<?xml version="1.0" encoding="utf-8" standalone="no"?>
<!DOCTYPE svg PUBLIC "-//W3C//DTD SVG 1.1//EN"
  "http://www.w3.org/Graphics/SVG/1.1/DTD/svg11.dtd">
<svg xmlns:xlink="http://www.w3.org/1999/xlink" width="248.3625pt" height="230.164pt" viewBox="0 0 248.3625 230.164" xmlns="http://www.w3.org/2000/svg" version="1.1">
 <metadata>
  <rdf:RDF xmlns:dc="http://purl.org/dc/elements/1.1/" xmlns:cc="http://creativecommons.org/ns#" xmlns:rdf="http://www.w3.org/1999/02/22-rdf-syntax-ns#">
   <cc:Work>
    <dc:type rdf:resource="http://purl.org/dc/dcmitype/StillImage"/>
    <dc:date>2022-02-27T00:26:34.376718</dc:date>
    <dc:format>image/svg+xml</dc:format>
    <dc:creator>
     <cc:Agent>
      <dc:title>Matplotlib v3.5.1, https://matplotlib.org/</dc:title>
     </cc:Agent>
    </dc:creator>
   </cc:Work>
  </rdf:RDF>
 </metadata>
 <defs>
  <style type="text/css">*{stroke-linejoin: round; stroke-linecap: butt}</style>
 </defs>
 <g id="figure_1">
  <g id="patch_1">
   <path d="M 0 230.164 
L 248.3625 230.164 
L 248.3625 0 
L 0 0 
L 0 230.164 
z
" style="fill: none"/>
  </g>
  <g id="axes_1">
   <g id="patch_2">
    <path d="M 39.1617 135.04 
C 40.108475 135.04 41.0166 134.663842 41.686071 133.994371 
C 42.355542 133.3249 42.7317 132.416775 42.7317 131.47 
C 42.7317 130.523225 42.355542 129.6151 41.686071 128.945629 
C 41.0166 128.276158 40.108475 127.9 39.1617 127.9 
C 38.214925 127.9 37.3068 128.276158 36.637329 128.945629 
C 35.967858 129.6151 35.5917 130.523225 35.5917 131.47 
C 35.5917 132.416775 35.967858 133.3249 36.637329 133.994371 
C 37.3068 134.663842 38.214925 135.04 39.1617 135.04 
L 39.1617 135.04 
z
" clip-path="url(#paec039c507)" style="fill: none; stroke: #000000; stroke-width: 2; stroke-linejoin: miter"/>
   </g>
   <g id="patch_3">
    <path d="M 204.4017 135.04 
C 205.348475 135.04 206.2566 134.663842 206.926071 133.994371 
C 207.595542 133.3249 207.9717 132.416775 207.9717 131.47 
C 207.9717 130.523225 207.595542 129.6151 206.926071 128.945629 
C 206.2566 128.276158 205.348475 127.9 204.4017 127.9 
C 203.454925 127.9 202.5468 128.276158 201.877329 128.945629 
C 201.207858 129.6151 200.8317 130.523225 200.8317 131.47 
C 200.8317 132.416775 201.207858 133.3249 201.877329 133.994371 
C 202.5468 134.663842 203.454925 135.04 204.4017 135.04 
L 204.4017 135.04 
z
" clip-path="url(#paec039c507)" style="fill: none; stroke: #000000; stroke-width: 2; stroke-linejoin: miter"/>
   </g>
   <g id="line2d_1">
    <path d="M 121.7817 154.42 
L 121.7817 167.17 
L 142.1817 167.17 
L 142.1817 187.57 
L 121.7817 187.57 
L 121.7817 200.32 
" clip-path="url(#paec039c507)" style="fill: none; stroke: #000000; stroke-width: 2; stroke-linecap: round"/>
   </g>
   <g id="line2d_2">
    <path d="M 147.2817 167.17 
L 147.2817 187.57 
" clip-path="url(#paec039c507)" style="fill: none; stroke: #000000; stroke-width: 2; stroke-linecap: round"/>
   </g>
   <g id="line2d_3">
    <path d="M 147.2817 177.37 
L 163.6017 177.37 
" clip-path="url(#paec039c507)" style="fill: none; stroke: #000000; stroke-width: 2; stroke-linecap: round"/>
   </g>
   <g id="line2d_4">
    <path d="M 121.7817 200.32 
L 121.7817 212.56 
L 114.1317 212.56 
L 129.4317 212.56 
M 116.4267 216.232 
L 127.1367 216.232 
M 120.2517 219.904 
L 123.3117 219.904 
" clip-path="url(#paec039c507)" style="fill: none; stroke: #000000; stroke-width: 2; stroke-linecap: round"/>
   </g>
   <g id="line2d_5">
    <path d="M 121.7817 154.42 
L 95.0067 154.42 
L 68.2317 154.42 
" clip-path="url(#paec039c507)" style="fill: none; stroke: #000000; stroke-width: 2; stroke-linecap: round"/>
   </g>
   <g id="line2d_6">
    <path d="M 68.2317 154.42 
L 68.2317 141.67 
L 47.8317 141.67 
L 47.8317 121.27 
L 68.2317 121.27 
L 68.2317 108.52 
" clip-path="url(#paec039c507)" style="fill: none; stroke: #000000; stroke-width: 2; stroke-linecap: round"/>
   </g>
   <g id="line2d_7">
    <path d="M 42.7317 141.67 
L 42.7317 121.27 
" clip-path="url(#paec039c507)" style="fill: none; stroke: #000000; stroke-width: 2; stroke-linecap: round"/>
   </g>
   <g id="line2d_8">
    <path d="M 35.5917 131.47 
L 26.4117 131.47 
" clip-path="url(#paec039c507)" style="fill: none; stroke: #000000; stroke-width: 2; stroke-linecap: round"/>
   </g>
   <g id="line2d_9">
    <path d="M 68.2317 131.47 
L 55.4817 131.47 
" clip-path="url(#paec039c507)" style="fill: none; stroke: #000000; stroke-width: 2; stroke-linecap: round"/>
   </g>
   <g id="patch_4">
    <path d="M 55.4817 134.53 
L 47.8317 131.47 
L 55.4817 128.41 
z
" clip-path="url(#paec039c507)"/>
   </g>
   <g id="line2d_10">
    <path d="M 121.7817 154.42 
L 148.5567 154.42 
L 175.3317 154.42 
" clip-path="url(#paec039c507)" style="fill: none; stroke: #000000; stroke-width: 2; stroke-linecap: round"/>
   </g>
   <g id="line2d_11">
    <path d="M 175.3317 154.42 
L 175.3317 141.67 
L 195.7317 141.67 
L 195.7317 121.27 
L 175.3317 121.27 
L 175.3317 108.52 
" clip-path="url(#paec039c507)" style="fill: none; stroke: #000000; stroke-width: 2; stroke-linecap: round"/>
   </g>
   <g id="line2d_12">
    <path d="M 200.8317 141.67 
L 200.8317 121.27 
" clip-path="url(#paec039c507)" style="fill: none; stroke: #000000; stroke-width: 2; stroke-linecap: round"/>
   </g>
   <g id="line2d_13">
    <path d="M 207.9717 131.47 
L 217.1517 131.47 
" clip-path="url(#paec039c507)" style="fill: none; stroke: #000000; stroke-width: 2; stroke-linecap: round"/>
   </g>
   <g id="line2d_14">
    <path d="M 175.3317 131.47 
L 188.0817 131.47 
" clip-path="url(#paec039c507)" style="fill: none; stroke: #000000; stroke-width: 2; stroke-linecap: round"/>
   </g>
   <g id="patch_5">
    <path d="M 188.0817 128.41 
L 195.7317 131.47 
L 188.0817 134.53 
z
" clip-path="url(#paec039c507)"/>
   </g>
   <g id="line2d_15">
    <path d="M 68.2317 108.52 
L 68.2317 77.92 
L 68.2317 47.32 
" clip-path="url(#paec039c507)" style="fill: none; stroke: #000000; stroke-width: 2; stroke-linecap: round"/>
   </g>
   <g id="line2d_16">
    <path d="M 68.2317 47.32 
L 75.8817 47.32 
L 83.5317 47.32 
" clip-path="url(#paec039c507)" style="fill: none; stroke: #000000; stroke-width: 2; stroke-linecap: round"/>
   </g>
   <g id="line2d_17">
    <path d="M 83.5317 47.32 
L 83.5317 35.08 
" clip-path="url(#paec039c507)" style="fill: none; stroke: #000000; stroke-width: 2; stroke-linecap: round"/>
   </g>
   <g id="line2d_18">
    <path d="M 83.5317 35.08 
L 77.7942 35.08 
" clip-path="url(#paec039c507)" style="fill: none; stroke: #000000; stroke-width: 2; stroke-linecap: round"/>
   </g>
   <g id="line2d_19">
    <path d="M 83.5317 35.08 
L 89.2692 35.08 
" clip-path="url(#paec039c507)" style="fill: none; stroke: #000000; stroke-width: 2; stroke-linecap: round"/>
   </g>
   <g id="line2d_20">
    <path d="M 68.2317 131.47 
L 72.0567 131.47 
L 75.8817 131.47 
" clip-path="url(#paec039c507)" style="fill: none; stroke: #000000; stroke-width: 2; stroke-linecap: round"/>
   </g>
   <g id="line2d_21">
    <path d="M 75.8817 131.47 
L 75.8817 119.995 
L 75.8817 108.52 
" clip-path="url(#paec039c507)" style="fill: none; stroke: #000000; stroke-width: 2; stroke-linecap: round"/>
   </g>
   <g id="line2d_22">
    <path d="M 75.8817 108.52 
L 72.0567 108.52 
L 68.2317 108.52 
" clip-path="url(#paec039c507)" style="fill: none; stroke: #000000; stroke-width: 2; stroke-linecap: round"/>
   </g>
   <g id="line2d_23">
    <path d="M 175.3317 131.47 
L 171.5067 131.47 
L 167.6817 131.47 
" clip-path="url(#paec039c507)" style="fill: none; stroke: #000000; stroke-width: 2; stroke-linecap: round"/>
   </g>
   <g id="line2d_24">
    <path d="M 167.6817 131.47 
L 167.6817 142.945 
L 167.6817 154.42 
" clip-path="url(#paec039c507)" style="fill: none; stroke: #000000; stroke-width: 2; stroke-linecap: round"/>
   </g>
   <g id="text_1">
    <g clip-path="url(#paec039c507)">
     <!-- $T_{3}$ -->
     <g transform="translate(105.0967 180.819219)scale(0.125 -0.125)">
      <defs>
       <path id="DejaVuSans-Oblique-54" d="M 378 4666 
L 4325 4666 
L 4225 4134 
L 2559 4134 
L 1759 0 
L 1125 0 
L 1925 4134 
L 275 4134 
L 378 4666 
z
" transform="scale(0.015625)"/>
       <path id="DejaVuSans-33" d="M 2597 2516 
Q 3050 2419 3304 2112 
Q 3559 1806 3559 1356 
Q 3559 666 3084 287 
Q 2609 -91 1734 -91 
Q 1441 -91 1130 -33 
Q 819 25 488 141 
L 488 750 
Q 750 597 1062 519 
Q 1375 441 1716 441 
Q 2309 441 2620 675 
Q 2931 909 2931 1356 
Q 2931 1769 2642 2001 
Q 2353 2234 1838 2234 
L 1294 2234 
L 1294 2753 
L 1863 2753 
Q 2328 2753 2575 2939 
Q 2822 3125 2822 3475 
Q 2822 3834 2567 4026 
Q 2313 4219 1838 4219 
Q 1578 4219 1281 4162 
Q 984 4106 628 3988 
L 628 4550 
Q 988 4650 1302 4700 
Q 1616 4750 1894 4750 
Q 2613 4750 3031 4423 
Q 3450 4097 3450 3541 
Q 3450 3153 3228 2886 
Q 3006 2619 2597 2516 
z
" transform="scale(0.015625)"/>
      </defs>
      <use xlink:href="#DejaVuSans-Oblique-54" transform="translate(0 0.09375)"/>
      <use xlink:href="#DejaVuSans-33" transform="translate(61.083984 -16.3125)scale(0.7)"/>
     </g>
    </g>
   </g>
   <g id="text_2">
    <g clip-path="url(#paec039c507)">
     <!-- $T_{1}$ -->
     <g transform="translate(83.5317 134.919219)scale(0.125 -0.125)">
      <defs>
       <path id="DejaVuSans-31" d="M 794 531 
L 1825 531 
L 1825 4091 
L 703 3866 
L 703 4441 
L 1819 4666 
L 2450 4666 
L 2450 531 
L 3481 531 
L 3481 0 
L 794 0 
L 794 531 
z
" transform="scale(0.015625)"/>
      </defs>
      <use xlink:href="#DejaVuSans-Oblique-54" transform="translate(0 0.09375)"/>
      <use xlink:href="#DejaVuSans-31" transform="translate(61.083984 -16.3125)scale(0.7)"/>
     </g>
    </g>
   </g>
   <g id="text_3">
    <g clip-path="url(#paec039c507)">
     <!-- $T_{2}$ -->
     <g transform="translate(146.4067 134.919219)scale(0.125 -0.125)">
      <defs>
       <path id="DejaVuSans-32" d="M 1228 531 
L 3431 531 
L 3431 0 
L 469 0 
L 469 531 
Q 828 903 1448 1529 
Q 2069 2156 2228 2338 
Q 2531 2678 2651 2914 
Q 2772 3150 2772 3378 
Q 2772 3750 2511 3984 
Q 2250 4219 1831 4219 
Q 1534 4219 1204 4116 
Q 875 4013 500 3803 
L 500 4441 
Q 881 4594 1212 4672 
Q 1544 4750 1819 4750 
Q 2544 4750 2975 4387 
Q 3406 4025 3406 3419 
Q 3406 3131 3298 2873 
Q 3191 2616 2906 2266 
Q 2828 2175 2409 1742 
Q 1991 1309 1228 531 
z
" transform="scale(0.015625)"/>
      </defs>
      <use xlink:href="#DejaVuSans-Oblique-54" transform="translate(0 0.09375)"/>
      <use xlink:href="#DejaVuSans-32" transform="translate(61.083984 -16.3125)scale(0.7)"/>
     </g>
    </g>
   </g>
   <g id="text_4">
    <g clip-path="url(#paec039c507)">
     <!-- $V_{dd}$ -->
     <g transform="translate(73.4692 29.420391)scale(0.125 -0.125)">
      <defs>
       <path id="DejaVuSans-Oblique-56" d="M 1319 0 
L 500 4666 
L 1119 4666 
L 1797 653 
L 4063 4666 
L 4750 4666 
L 2053 0 
L 1319 0 
z
" transform="scale(0.015625)"/>
       <path id="DejaVuSans-Oblique-64" d="M 2675 525 
Q 2444 222 2128 65 
Q 1813 -91 1428 -91 
Q 903 -91 598 267 
Q 294 625 294 1247 
Q 294 1766 478 2236 
Q 663 2706 1013 3078 
Q 1244 3325 1534 3454 
Q 1825 3584 2144 3584 
Q 2481 3584 2739 3421 
Q 2997 3259 3138 2956 
L 3513 4863 
L 4091 4863 
L 3144 0 
L 2566 0 
L 2675 525 
z
M 891 1350 
Q 891 897 1095 644 
Q 1300 391 1663 391 
Q 1931 391 2161 520 
Q 2391 650 2566 903 
Q 2750 1166 2856 1509 
Q 2963 1853 2963 2188 
Q 2963 2622 2758 2865 
Q 2553 3109 2194 3109 
Q 1922 3109 1687 2981 
Q 1453 2853 1288 2613 
Q 1106 2353 998 2009 
Q 891 1666 891 1350 
z
" transform="scale(0.015625)"/>
      </defs>
      <use xlink:href="#DejaVuSans-Oblique-56" transform="translate(0 0.09375)"/>
      <use xlink:href="#DejaVuSans-Oblique-64" transform="translate(68.408203 -16.3125)scale(0.7)"/>
      <use xlink:href="#DejaVuSans-Oblique-64" transform="translate(112.841797 -16.3125)scale(0.7)"/>
     </g>
    </g>
   </g>
   <g id="patch_6">
    <path d="M 121.7817 156.715 
C 122.390341 156.715 122.974136 156.473184 123.40451 156.04281 
C 123.834884 155.612436 124.0767 155.028641 124.0767 154.42 
C 124.0767 153.811359 123.834884 153.227564 123.40451 152.79719 
C 122.974136 152.366816 122.390341 152.125 121.7817 152.125 
C 121.173059 152.125 120.589264 152.366816 120.15889 152.79719 
C 119.728516 153.227564 119.4867 153.811359 119.4867 154.42 
C 119.4867 155.028641 119.728516 155.612436 120.15889 156.04281 
C 120.589264 156.473184 121.173059 156.715 121.7817 156.715 
z
" clip-path="url(#paec039c507)" style="stroke: #000000; stroke-width: 2; stroke-linejoin: miter"/>
   </g>
   <g id="text_5">
    <g clip-path="url(#paec039c507)">
     <!-- $V_{*}$ -->
     <g transform="translate(115.0942 146.465391)scale(0.125 -0.125)">
      <defs>
       <path id="DejaVuSans-2a" d="M 3009 3897 
L 1888 3291 
L 3009 2681 
L 2828 2375 
L 1778 3009 
L 1778 1831 
L 1422 1831 
L 1422 3009 
L 372 2375 
L 191 2681 
L 1313 3291 
L 191 3897 
L 372 4206 
L 1422 3572 
L 1422 4750 
L 1778 4750 
L 1778 3572 
L 2828 4206 
L 3009 3897 
z
" transform="scale(0.015625)"/>
      </defs>
      <use xlink:href="#DejaVuSans-Oblique-56" transform="translate(0 0.09375)"/>
      <use xlink:href="#DejaVuSans-2a" transform="translate(68.408203 -16.3125)scale(0.7)"/>
     </g>
    </g>
   </g>
   <g id="patch_7">
    <path d="M 175.3317 110.815 
C 175.940341 110.815 176.524136 110.573184 176.95451 110.14281 
C 177.384884 109.712436 177.6267 109.128641 177.6267 108.52 
C 177.6267 107.911359 177.384884 107.327564 176.95451 106.89719 
C 176.524136 106.466816 175.940341 106.225 175.3317 106.225 
C 174.723059 106.225 174.139264 106.466816 173.70889 106.89719 
C 173.278516 107.327564 173.0367 107.911359 173.0367 108.52 
C 173.0367 109.128641 173.278516 109.712436 173.70889 110.14281 
C 174.139264 110.573184 174.723059 110.815 175.3317 110.815 
z
" clip-path="url(#paec039c507)" style="fill: #ffffff; stroke: #000000; stroke-width: 2; stroke-linejoin: miter"/>
   </g>
   <g id="text_6">
    <g clip-path="url(#paec039c507)">
     <!-- $V_{out}$ -->
     <g transform="translate(163.7067 100.565391)scale(0.125 -0.125)">
      <defs>
       <path id="DejaVuSans-Oblique-6f" d="M 1625 -91 
Q 1009 -91 651 289 
Q 294 669 294 1325 
Q 294 1706 417 2101 
Q 541 2497 738 2766 
Q 1047 3184 1428 3384 
Q 1809 3584 2291 3584 
Q 2888 3584 3255 3212 
Q 3622 2841 3622 2241 
Q 3622 1825 3500 1412 
Q 3378 1000 3181 728 
Q 2875 309 2494 109 
Q 2113 -91 1625 -91 
z
M 891 1344 
Q 891 869 1089 633 
Q 1288 397 1691 397 
Q 2269 397 2648 901 
Q 3028 1406 3028 2181 
Q 3028 2634 2825 2865 
Q 2622 3097 2228 3097 
Q 1903 3097 1650 2945 
Q 1397 2794 1197 2484 
Q 1050 2253 970 1956 
Q 891 1659 891 1344 
z
" transform="scale(0.015625)"/>
       <path id="DejaVuSans-Oblique-75" d="M 428 1388 
L 838 3500 
L 1416 3500 
L 1006 1409 
Q 975 1256 961 1147 
Q 947 1038 947 966 
Q 947 700 1109 554 
Q 1272 409 1569 409 
Q 2031 409 2368 721 
Q 2706 1034 2809 1563 
L 3194 3500 
L 3769 3500 
L 3091 0 
L 2516 0 
L 2631 550 
Q 2388 244 2052 76 
Q 1716 -91 1338 -91 
Q 878 -91 622 161 
Q 366 413 366 863 
Q 366 956 381 1097 
Q 397 1238 428 1388 
z
" transform="scale(0.015625)"/>
       <path id="DejaVuSans-Oblique-74" d="M 2706 3500 
L 2619 3053 
L 1472 3053 
L 1100 1153 
Q 1081 1047 1072 975 
Q 1063 903 1063 863 
Q 1063 663 1183 572 
Q 1303 481 1569 481 
L 2150 481 
L 2053 0 
L 1503 0 
Q 991 0 739 200 
Q 488 400 488 806 
Q 488 878 497 964 
Q 506 1050 525 1153 
L 897 3053 
L 409 3053 
L 500 3500 
L 978 3500 
L 1172 4494 
L 1747 4494 
L 1556 3500 
L 2706 3500 
z
" transform="scale(0.015625)"/>
      </defs>
      <use xlink:href="#DejaVuSans-Oblique-56" transform="translate(0 0.09375)"/>
      <use xlink:href="#DejaVuSans-Oblique-6f" transform="translate(68.408203 -16.3125)scale(0.7)"/>
      <use xlink:href="#DejaVuSans-Oblique-75" transform="translate(111.235352 -16.3125)scale(0.7)"/>
      <use xlink:href="#DejaVuSans-Oblique-74" transform="translate(155.600586 -16.3125)scale(0.7)"/>
     </g>
    </g>
   </g>
   <g id="patch_8">
    <path d="M 26.4117 133.765 
C 27.020341 133.765 27.604136 133.523184 28.03451 133.09281 
C 28.464884 132.662436 28.7067 132.078641 28.7067 131.47 
C 28.7067 130.861359 28.464884 130.277564 28.03451 129.84719 
C 27.604136 129.416816 27.020341 129.175 26.4117 129.175 
C 25.803059 129.175 25.219264 129.416816 24.78889 129.84719 
C 24.358516 130.277564 24.1167 130.861359 24.1167 131.47 
C 24.1167 132.078641 24.358516 132.662436 24.78889 133.09281 
C 25.219264 133.523184 25.803059 133.765 26.4117 133.765 
z
" clip-path="url(#paec039c507)" style="fill: #ffffff; stroke: #000000; stroke-width: 2; stroke-linejoin: miter"/>
   </g>
   <g id="text_7">
    <g clip-path="url(#paec039c507)">
     <!-- $V_{in}$ -->
     <g transform="translate(17.9742 123.515391)scale(0.125 -0.125)">
      <defs>
       <path id="DejaVuSans-Oblique-69" d="M 1172 4863 
L 1747 4863 
L 1606 4134 
L 1031 4134 
L 1172 4863 
z
M 909 3500 
L 1484 3500 
L 800 0 
L 225 0 
L 909 3500 
z
" transform="scale(0.015625)"/>
       <path id="DejaVuSans-Oblique-6e" d="M 3566 2113 
L 3156 0 
L 2578 0 
L 2988 2091 
Q 3016 2238 3031 2350 
Q 3047 2463 3047 2528 
Q 3047 2791 2881 2937 
Q 2716 3084 2419 3084 
Q 1956 3084 1622 2776 
Q 1288 2469 1184 1941 
L 800 0 
L 225 0 
L 903 3500 
L 1478 3500 
L 1363 2950 
Q 1603 3253 1940 3418 
Q 2278 3584 2650 3584 
Q 3113 3584 3367 3334 
Q 3622 3084 3622 2631 
Q 3622 2519 3608 2391 
Q 3594 2263 3566 2113 
z
" transform="scale(0.015625)"/>
      </defs>
      <use xlink:href="#DejaVuSans-Oblique-56" transform="translate(0 0.09375)"/>
      <use xlink:href="#DejaVuSans-Oblique-69" transform="translate(68.408203 -16.3125)scale(0.7)"/>
      <use xlink:href="#DejaVuSans-Oblique-6e" transform="translate(87.856445 -16.3125)scale(0.7)"/>
     </g>
    </g>
   </g>
   <g id="patch_9">
    <path d="M 217.1517 133.765 
C 217.760341 133.765 218.344136 133.523184 218.77451 133.09281 
C 219.204884 132.662436 219.4467 132.078641 219.4467 131.47 
C 219.4467 130.861359 219.204884 130.277564 218.77451 129.84719 
C 218.344136 129.416816 217.760341 129.175 217.1517 129.175 
C 216.543059 129.175 215.959264 129.416816 215.52889 129.84719 
C 215.098516 130.277564 214.8567 130.861359 214.8567 131.47 
C 214.8567 132.078641 215.098516 132.662436 215.52889 133.09281 
C 215.959264 133.523184 216.543059 133.765 217.1517 133.765 
z
" clip-path="url(#paec039c507)" style="fill: #ffffff; stroke: #000000; stroke-width: 2; stroke-linejoin: miter"/>
   </g>
   <g id="text_8">
    <g clip-path="url(#paec039c507)">
     <!-- $V_{b}$ -->
     <g transform="translate(209.9017 123.515391)scale(0.125 -0.125)">
      <defs>
       <path id="DejaVuSans-Oblique-62" d="M 3169 2138 
Q 3169 2591 2961 2847 
Q 2753 3103 2388 3103 
Q 2122 3103 1889 2973 
Q 1656 2844 1484 2597 
Q 1303 2338 1198 1995 
Q 1094 1653 1094 1313 
Q 1094 881 1298 636 
Q 1503 391 1863 391 
Q 2134 391 2365 517 
Q 2597 644 2772 891 
Q 2950 1147 3059 1487 
Q 3169 1828 3169 2138 
z
M 1381 2969 
Q 1594 3256 1914 3420 
Q 2234 3584 2584 3584 
Q 3122 3584 3439 3221 
Q 3756 2859 3756 2241 
Q 3756 1734 3570 1259 
Q 3384 784 3041 416 
Q 2816 172 2522 40 
Q 2228 -91 1906 -91 
Q 1566 -91 1316 65 
Q 1066 222 909 531 
L 806 0 
L 231 0 
L 1178 4863 
L 1753 4863 
L 1381 2969 
z
" transform="scale(0.015625)"/>
      </defs>
      <use xlink:href="#DejaVuSans-Oblique-56" transform="translate(0 0.09375)"/>
      <use xlink:href="#DejaVuSans-Oblique-62" transform="translate(68.408203 -16.3125)scale(0.7)"/>
     </g>
    </g>
   </g>
   <g id="patch_10">
    <path d="M 163.6017 179.665 
C 164.210341 179.665 164.794136 179.423184 165.22451 178.99281 
C 165.654884 178.562436 165.8967 177.978641 165.8967 177.37 
C 165.8967 176.761359 165.654884 176.177564 165.22451 175.74719 
C 164.794136 175.316816 164.210341 175.075 163.6017 175.075 
C 162.993059 175.075 162.409264 175.316816 161.97889 175.74719 
C 161.548516 176.177564 161.3067 176.761359 161.3067 177.37 
C 161.3067 177.978641 161.548516 178.562436 161.97889 178.99281 
C 162.409264 179.423184 162.993059 179.665 163.6017 179.665 
z
" clip-path="url(#paec039c507)" style="fill: #ffffff; stroke: #000000; stroke-width: 2; stroke-linejoin: miter"/>
   </g>
   <g id="text_9">
    <g clip-path="url(#paec039c507)">
     <!-- $V_{a}$ -->
     <g transform="translate(156.4142 169.415391)scale(0.125 -0.125)">
      <defs>
       <path id="DejaVuSans-Oblique-61" d="M 3438 1997 
L 3047 0 
L 2472 0 
L 2578 531 
Q 2325 219 2001 64 
Q 1678 -91 1281 -91 
Q 834 -91 548 182 
Q 263 456 263 884 
Q 263 1497 752 1853 
Q 1241 2209 2100 2209 
L 2900 2209 
L 2931 2363 
Q 2938 2388 2941 2417 
Q 2944 2447 2944 2509 
Q 2944 2788 2717 2942 
Q 2491 3097 2081 3097 
Q 1800 3097 1504 3025 
Q 1209 2953 897 2809 
L 997 3341 
Q 1322 3463 1633 3523 
Q 1944 3584 2234 3584 
Q 2853 3584 3176 3315 
Q 3500 3047 3500 2534 
Q 3500 2431 3484 2292 
Q 3469 2153 3438 1997 
z
M 2816 1759 
L 2241 1759 
Q 1534 1759 1195 1570 
Q 856 1381 856 984 
Q 856 709 1029 553 
Q 1203 397 1509 397 
Q 1978 397 2328 733 
Q 2678 1069 2791 1631 
L 2816 1759 
z
" transform="scale(0.015625)"/>
      </defs>
      <use xlink:href="#DejaVuSans-Oblique-56" transform="translate(0 0.09375)"/>
      <use xlink:href="#DejaVuSans-Oblique-61" transform="translate(68.408203 -16.3125)scale(0.7)"/>
     </g>
    </g>
   </g>
  </g>
 </g>
 <defs>
  <clipPath id="paec039c507">
   <rect x="7.2" y="7.2" width="233.9625" height="215.764"/>
  </clipPath>
 </defs>
</svg>