<?xml version="1.0" encoding="utf-8" standalone="no"?>
<!DOCTYPE svg PUBLIC "-//W3C//DTD SVG 1.1//EN"
  "http://www.w3.org/Graphics/SVG/1.1/DTD/svg11.dtd">
<svg xmlns:xlink="http://www.w3.org/1999/xlink" width="301.3923pt" height="237.814pt" viewBox="0 0 301.3923 237.814" xmlns="http://www.w3.org/2000/svg" version="1.1">
 <metadata>
  <rdf:RDF xmlns:dc="http://purl.org/dc/elements/1.1/" xmlns:cc="http://creativecommons.org/ns#" xmlns:rdf="http://www.w3.org/1999/02/22-rdf-syntax-ns#">
   <cc:Work>
    <dc:type rdf:resource="http://purl.org/dc/dcmitype/StillImage"/>
    <dc:date>2022-09-18T20:49:14.603052</dc:date>
    <dc:format>image/svg+xml</dc:format>
    <dc:creator>
     <cc:Agent>
      <dc:title>Matplotlib v3.5.3, https://matplotlib.org/</dc:title>
     </cc:Agent>
    </dc:creator>
   </cc:Work>
  </rdf:RDF>
 </metadata>
 <defs>
  <style type="text/css">*{stroke-linejoin: round; stroke-linecap: butt}</style>
 </defs>
 <g id="figure_1">
  <g id="patch_1">
   <path d="M -0 237.814 
L 301.3923 237.814 
L 301.3923 0 
L -0 0 
z
" style="fill: #ffffff"/>
  </g>
  <g id="axes_1">
   <g id="patch_2">
    <path d="M 75.285 73.84 
C 76.231775 73.84 77.1399 73.463842 77.809371 72.794371 
C 78.478842 72.1249 78.855 71.216775 78.855 70.27 
C 78.855 69.323225 78.478842 68.4151 77.809371 67.745629 
C 77.1399 67.076158 76.231775 66.7 75.285 66.7 
C 74.338225 66.7 73.4301 67.076158 72.760629 67.745629 
C 72.091158 68.4151 71.715 69.323225 71.715 70.27 
C 71.715 71.216775 72.091158 72.1249 72.760629 72.794371 
C 73.4301 73.463842 74.338225 73.84 75.285 73.84 
L 75.285 73.84 
z
" clip-path="url(#pb9af0ff300)" style="fill: none; stroke: #000000; stroke-width: 2; stroke-linejoin: miter"/>
   </g>
   <g id="patch_3">
    <path d="M 179.325 73.84 
C 180.271775 73.84 181.1799 73.463842 181.849371 72.794371 
C 182.518842 72.1249 182.895 71.216775 182.895 70.27 
C 182.895 69.323225 182.518842 68.4151 181.849371 67.745629 
C 181.1799 67.076158 180.271775 66.7 179.325 66.7 
C 178.378225 66.7 177.4701 67.076158 176.800629 67.745629 
C 176.131158 68.4151 175.755 69.323225 175.755 70.27 
C 175.755 71.216775 176.131158 72.1249 176.800629 72.794371 
C 177.4701 73.463842 178.378225 73.84 179.325 73.84 
L 179.325 73.84 
z
" clip-path="url(#pb9af0ff300)" style="fill: none; stroke: #000000; stroke-width: 2; stroke-linejoin: miter"/>
   </g>
   <g id="patch_4">
    <path d="M 41.625 73.84 
C 42.571775 73.84 43.4799 73.463842 44.149371 72.794371 
C 44.818842 72.1249 45.195 71.216775 45.195 70.27 
C 45.195 69.323225 44.818842 68.4151 44.149371 67.745629 
C 43.4799 67.076158 42.571775 66.7 41.625 66.7 
C 40.678225 66.7 39.7701 67.076158 39.100629 67.745629 
C 38.431158 68.4151 38.055 69.323225 38.055 70.27 
C 38.055 71.216775 38.431158 72.1249 39.100629 72.794371 
C 39.7701 73.463842 40.678225 73.84 41.625 73.84 
L 41.625 73.84 
z
" clip-path="url(#pb9af0ff300)" style="fill: none; stroke: #000000; stroke-width: 2; stroke-linejoin: miter"/>
   </g>
   <g id="patch_5">
    <path d="M 212.985 73.84 
C 213.931775 73.84 214.8399 73.463842 215.509371 72.794371 
C 216.178842 72.1249 216.555 71.216775 216.555 70.27 
C 216.555 69.323225 216.178842 68.4151 215.509371 67.745629 
C 214.8399 67.076158 213.931775 66.7 212.985 66.7 
C 212.038225 66.7 211.1301 67.076158 210.460629 67.745629 
C 209.791158 68.4151 209.415 69.323225 209.415 70.27 
C 209.415 71.216775 209.791158 72.1249 210.460629 72.794371 
C 211.1301 73.463842 212.038225 73.84 212.985 73.84 
L 212.985 73.84 
z
" clip-path="url(#pb9af0ff300)" style="fill: none; stroke: #000000; stroke-width: 2; stroke-linejoin: miter"/>
   </g>
   <g id="line2d_1">
    <path d="M 127.305 162.07 
L 127.305 174.82 
L 147.705 174.82 
L 147.705 195.22 
L 127.305 195.22 
L 127.305 207.97 
" clip-path="url(#pb9af0ff300)" style="fill: none; stroke: #000000; stroke-width: 2; stroke-linecap: round"/>
   </g>
   <g id="line2d_2">
    <path d="M 152.805 174.82 
L 152.805 195.22 
" clip-path="url(#pb9af0ff300)" style="fill: none; stroke: #000000; stroke-width: 2; stroke-linecap: round"/>
   </g>
   <g id="line2d_3">
    <path d="M 152.805 185.02 
L 169.125 185.02 
" clip-path="url(#pb9af0ff300)" style="fill: none; stroke: #000000; stroke-width: 2; stroke-linecap: round"/>
   </g>
   <g id="line2d_4">
    <path d="M 127.305 207.97 
L 127.305 220.21 
L 119.655 220.21 
L 134.955 220.21 
M 121.95 223.882 
L 132.66 223.882 
M 125.775 227.554 
L 128.835 227.554 
" clip-path="url(#pb9af0ff300)" style="fill: none; stroke: #000000; stroke-width: 2; stroke-linecap: round"/>
   </g>
   <g id="line2d_5">
    <path d="M 127.305 162.07 
L 127.305 150.595 
L 127.305 139.12 
" clip-path="url(#pb9af0ff300)" style="fill: none; stroke: #000000; stroke-width: 2; stroke-linecap: round"/>
   </g>
   <g id="line2d_6">
    <path d="M 127.305 139.12 
L 115.83 139.12 
L 104.355 139.12 
" clip-path="url(#pb9af0ff300)" style="fill: none; stroke: #000000; stroke-width: 2; stroke-linecap: round"/>
   </g>
   <g id="line2d_7">
    <path d="M 104.355 139.12 
L 104.355 126.37 
L 83.955 126.37 
L 83.955 105.97 
L 104.355 105.97 
L 104.355 93.22 
" clip-path="url(#pb9af0ff300)" style="fill: none; stroke: #000000; stroke-width: 2; stroke-linecap: round"/>
   </g>
   <g id="line2d_8">
    <path d="M 78.855 126.37 
L 78.855 105.97 
" clip-path="url(#pb9af0ff300)" style="fill: none; stroke: #000000; stroke-width: 2; stroke-linecap: round"/>
   </g>
   <g id="line2d_9">
    <path d="M 78.855 116.17 
L 62.535 116.17 
" clip-path="url(#pb9af0ff300)" style="fill: none; stroke: #000000; stroke-width: 2; stroke-linecap: round"/>
   </g>
   <g id="line2d_10">
    <path d="M 104.355 93.22 
L 104.355 80.47 
L 83.955 80.47 
L 83.955 60.07 
L 104.355 60.07 
L 104.355 47.32 
" clip-path="url(#pb9af0ff300)" style="fill: none; stroke: #000000; stroke-width: 2; stroke-linecap: round"/>
   </g>
   <g id="line2d_11">
    <path d="M 78.855 80.47 
L 78.855 60.07 
" clip-path="url(#pb9af0ff300)" style="fill: none; stroke: #000000; stroke-width: 2; stroke-linecap: round"/>
   </g>
   <g id="line2d_12">
    <path d="M 71.715 70.27 
L 62.535 70.27 
" clip-path="url(#pb9af0ff300)" style="fill: none; stroke: #000000; stroke-width: 2; stroke-linecap: round"/>
   </g>
   <g id="line2d_13">
    <path d="M 104.355 93.22 
L 83.445 93.22 
L 62.535 93.22 
" clip-path="url(#pb9af0ff300)" style="fill: none; stroke: #000000; stroke-width: 2; stroke-linecap: round"/>
   </g>
   <g id="line2d_14">
    <path d="M 62.535 93.22 
L 62.535 81.745 
L 62.535 70.27 
" clip-path="url(#pb9af0ff300)" style="fill: none; stroke: #000000; stroke-width: 2; stroke-linecap: round"/>
   </g>
   <g id="line2d_15">
    <path d="M 104.355 47.32 
L 115.83 47.32 
L 127.305 47.32 
" clip-path="url(#pb9af0ff300)" style="fill: none; stroke: #000000; stroke-width: 2; stroke-linecap: round"/>
   </g>
   <g id="line2d_16">
    <path d="M 127.305 47.32 
L 127.305 35.08 
" clip-path="url(#pb9af0ff300)" style="fill: none; stroke: #000000; stroke-width: 2; stroke-linecap: round"/>
   </g>
   <g id="line2d_17">
    <path d="M 127.305 35.08 
L 121.5675 35.08 
" clip-path="url(#pb9af0ff300)" style="fill: none; stroke: #000000; stroke-width: 2; stroke-linecap: round"/>
   </g>
   <g id="line2d_18">
    <path d="M 127.305 35.08 
L 133.0425 35.08 
" clip-path="url(#pb9af0ff300)" style="fill: none; stroke: #000000; stroke-width: 2; stroke-linecap: round"/>
   </g>
   <g id="line2d_19">
    <path d="M 127.305 47.32 
L 138.78 47.32 
L 150.255 47.32 
" clip-path="url(#pb9af0ff300)" style="fill: none; stroke: #000000; stroke-width: 2; stroke-linecap: round"/>
   </g>
   <g id="line2d_20">
    <path d="M 150.255 47.32 
L 150.255 60.07 
L 170.655 60.07 
L 170.655 80.47 
L 150.255 80.47 
L 150.255 93.22 
" clip-path="url(#pb9af0ff300)" style="fill: none; stroke: #000000; stroke-width: 2; stroke-linecap: round"/>
   </g>
   <g id="line2d_21">
    <path d="M 175.755 60.07 
L 175.755 80.47 
" clip-path="url(#pb9af0ff300)" style="fill: none; stroke: #000000; stroke-width: 2; stroke-linecap: round"/>
   </g>
   <g id="line2d_22">
    <path d="M 182.895 70.27 
L 192.075 70.27 
" clip-path="url(#pb9af0ff300)" style="fill: none; stroke: #000000; stroke-width: 2; stroke-linecap: round"/>
   </g>
   <g id="line2d_23">
    <path d="M 150.255 93.22 
L 171.165 93.22 
L 192.075 93.22 
" clip-path="url(#pb9af0ff300)" style="fill: none; stroke: #000000; stroke-width: 2; stroke-linecap: round"/>
   </g>
   <g id="line2d_24">
    <path d="M 192.075 93.22 
L 192.075 81.745 
L 192.075 70.27 
" clip-path="url(#pb9af0ff300)" style="fill: none; stroke: #000000; stroke-width: 2; stroke-linecap: round"/>
   </g>
   <g id="line2d_25">
    <path d="M 150.255 93.22 
L 150.255 105.97 
L 170.655 105.97 
L 170.655 126.37 
L 150.255 126.37 
L 150.255 139.12 
" clip-path="url(#pb9af0ff300)" style="fill: none; stroke: #000000; stroke-width: 2; stroke-linecap: round"/>
   </g>
   <g id="line2d_26">
    <path d="M 175.755 105.97 
L 175.755 126.37 
" clip-path="url(#pb9af0ff300)" style="fill: none; stroke: #000000; stroke-width: 2; stroke-linecap: round"/>
   </g>
   <g id="line2d_27">
    <path d="M 175.755 116.17 
L 192.075 116.17 
" clip-path="url(#pb9af0ff300)" style="fill: none; stroke: #000000; stroke-width: 2; stroke-linecap: round"/>
   </g>
   <g id="line2d_28">
    <path d="M 150.255 139.12 
L 138.78 139.12 
L 127.305 139.12 
" clip-path="url(#pb9af0ff300)" style="fill: none; stroke: #000000; stroke-width: 2; stroke-linecap: round"/>
   </g>
   <g id="line2d_29">
    <path d="M 104.355 47.32 
L 58.455 47.32 
L 12.555 47.32 
" clip-path="url(#pb9af0ff300)" style="fill: none; stroke: #000000; stroke-width: 2; stroke-linecap: round"/>
   </g>
   <g id="line2d_30">
    <path d="M 12.555 47.32 
L 12.555 60.07 
L 32.955 60.07 
L 32.955 80.47 
L 12.555 80.47 
L 12.555 93.22 
" clip-path="url(#pb9af0ff300)" style="fill: none; stroke: #000000; stroke-width: 2; stroke-linecap: round"/>
   </g>
   <g id="line2d_31">
    <path d="M 38.055 60.07 
L 38.055 80.47 
" clip-path="url(#pb9af0ff300)" style="fill: none; stroke: #000000; stroke-width: 2; stroke-linecap: round"/>
   </g>
   <g id="line2d_32">
    <path d="M 45.195 70.27 
L 54.375 70.27 
" clip-path="url(#pb9af0ff300)" style="fill: none; stroke: #000000; stroke-width: 2; stroke-linecap: round"/>
   </g>
   <g id="line2d_33">
    <path d="M 54.375 70.27 
L 58.455 70.27 
L 62.535 70.27 
" clip-path="url(#pb9af0ff300)" style="fill: none; stroke: #000000; stroke-width: 2; stroke-linecap: round"/>
   </g>
   <g id="line2d_34">
    <path d="M 12.555 93.22 
L 12.555 115.405 
L 12.555 137.59 
" clip-path="url(#pb9af0ff300)" style="fill: none; stroke: #000000; stroke-width: 2; stroke-linecap: round"/>
   </g>
   <g id="line2d_35">
    <path d="M 12.555 137.59 
L 12.555 150.34 
L 32.955 150.34 
L 32.955 170.74 
L 12.555 170.74 
L 12.555 183.49 
" clip-path="url(#pb9af0ff300)" style="fill: none; stroke: #000000; stroke-width: 2; stroke-linecap: round"/>
   </g>
   <g id="line2d_36">
    <path d="M 38.055 150.34 
L 38.055 170.74 
" clip-path="url(#pb9af0ff300)" style="fill: none; stroke: #000000; stroke-width: 2; stroke-linecap: round"/>
   </g>
   <g id="line2d_37">
    <path d="M 38.055 160.54 
L 54.375 160.54 
" clip-path="url(#pb9af0ff300)" style="fill: none; stroke: #000000; stroke-width: 2; stroke-linecap: round"/>
   </g>
   <g id="line2d_38">
    <path d="M 12.555 183.49 
L 12.555 195.73 
L 12.555 207.97 
" clip-path="url(#pb9af0ff300)" style="fill: none; stroke: #000000; stroke-width: 2; stroke-linecap: round"/>
   </g>
   <g id="line2d_39">
    <path d="M 12.555 207.97 
L 69.93 207.97 
L 127.305 207.97 
" clip-path="url(#pb9af0ff300)" style="fill: none; stroke: #000000; stroke-width: 2; stroke-linecap: round"/>
   </g>
   <g id="line2d_40">
    <path d="M 127.305 207.97 
L 184.68 207.97 
L 242.055 207.97 
" clip-path="url(#pb9af0ff300)" style="fill: none; stroke: #000000; stroke-width: 2; stroke-linecap: round"/>
   </g>
   <g id="line2d_41">
    <path d="M 242.055 207.97 
L 242.055 195.73 
L 242.055 183.49 
" clip-path="url(#pb9af0ff300)" style="fill: none; stroke: #000000; stroke-width: 2; stroke-linecap: round"/>
   </g>
   <g id="line2d_42">
    <path d="M 242.055 183.49 
L 242.055 170.74 
L 221.655 170.74 
L 221.655 150.34 
L 242.055 150.34 
L 242.055 137.59 
" clip-path="url(#pb9af0ff300)" style="fill: none; stroke: #000000; stroke-width: 2; stroke-linecap: round"/>
   </g>
   <g id="line2d_43">
    <path d="M 216.555 170.74 
L 216.555 150.34 
" clip-path="url(#pb9af0ff300)" style="fill: none; stroke: #000000; stroke-width: 2; stroke-linecap: round"/>
   </g>
   <g id="line2d_44">
    <path d="M 216.555 160.54 
L 200.235 160.54 
" clip-path="url(#pb9af0ff300)" style="fill: none; stroke: #000000; stroke-width: 2; stroke-linecap: round"/>
   </g>
   <g id="line2d_45">
    <path d="M 242.055 137.59 
L 242.055 126.115 
L 242.055 114.64 
" clip-path="url(#pb9af0ff300)" style="fill: none; stroke: #000000; stroke-width: 2; stroke-linecap: round"/>
   </g>
   <g id="line2d_46">
    <path d="M 242.055 114.64 
L 242.055 103.93 
L 242.055 93.22 
" clip-path="url(#pb9af0ff300)" style="fill: none; stroke: #000000; stroke-width: 2; stroke-linecap: round"/>
   </g>
   <g id="line2d_47">
    <path d="M 242.055 93.22 
L 242.055 80.47 
L 221.655 80.47 
L 221.655 60.07 
L 242.055 60.07 
L 242.055 47.32 
" clip-path="url(#pb9af0ff300)" style="fill: none; stroke: #000000; stroke-width: 2; stroke-linecap: round"/>
   </g>
   <g id="line2d_48">
    <path d="M 216.555 80.47 
L 216.555 60.07 
" clip-path="url(#pb9af0ff300)" style="fill: none; stroke: #000000; stroke-width: 2; stroke-linecap: round"/>
   </g>
   <g id="line2d_49">
    <path d="M 209.415 70.27 
L 200.235 70.27 
" clip-path="url(#pb9af0ff300)" style="fill: none; stroke: #000000; stroke-width: 2; stroke-linecap: round"/>
   </g>
   <g id="line2d_50">
    <path d="M 200.235 70.27 
L 196.155 70.27 
L 192.075 70.27 
" clip-path="url(#pb9af0ff300)" style="fill: none; stroke: #000000; stroke-width: 2; stroke-linecap: round"/>
   </g>
   <g id="line2d_51">
    <path d="M 242.055 47.32 
L 242.055 47.32 
L 242.055 47.32 
" clip-path="url(#pb9af0ff300)" style="fill: none; stroke: #000000; stroke-width: 2; stroke-linecap: round"/>
   </g>
   <g id="line2d_52">
    <path d="M 242.055 47.32 
L 196.155 47.32 
L 150.255 47.32 
" clip-path="url(#pb9af0ff300)" style="fill: none; stroke: #000000; stroke-width: 2; stroke-linecap: round"/>
   </g>
   <g id="line2d_53">
    <path d="M 54.375 160.54 
L 54.375 149.065 
L 54.375 137.59 
" clip-path="url(#pb9af0ff300)" style="fill: none; stroke: #000000; stroke-width: 2; stroke-linecap: round"/>
   </g>
   <g id="line2d_54">
    <path d="M 54.375 137.59 
L 33.465 137.59 
L 12.555 137.59 
" clip-path="url(#pb9af0ff300)" style="fill: none; stroke: #000000; stroke-width: 2; stroke-linecap: round"/>
   </g>
   <g id="line2d_55">
    <path d="M 54.375 160.54 
L 127.305 160.54 
L 200.235 160.54 
" clip-path="url(#pb9af0ff300)" style="fill: none; stroke: #000000; stroke-width: 2; stroke-linecap: round"/>
   </g>
   <g id="line2d_56">
    <path d="M 242.055 114.64 
L 253.53 114.64 
L 265.005 114.64 
" clip-path="url(#pb9af0ff300)" style="fill: none; stroke: #000000; stroke-width: 2; stroke-linecap: round"/>
   </g>
   <g id="text_1">
    <g clip-path="url(#pb9af0ff300)">
     <!-- $I_{b}$ -->
     <g transform="translate(114.62 188.469219)scale(0.125 -0.125)">
      <defs>
       <path id="DejaVuSans-Oblique-49" d="M 1081 4666 
L 1716 4666 
L 806 0 
L 172 0 
L 1081 4666 
z
" transform="scale(0.015625)"/>
       <path id="DejaVuSans-Oblique-62" d="M 3169 2138 
Q 3169 2591 2961 2847 
Q 2753 3103 2388 3103 
Q 2122 3103 1889 2973 
Q 1656 2844 1484 2597 
Q 1303 2338 1198 1995 
Q 1094 1653 1094 1313 
Q 1094 881 1298 636 
Q 1503 391 1863 391 
Q 2134 391 2365 517 
Q 2597 644 2772 891 
Q 2950 1147 3059 1487 
Q 3169 1828 3169 2138 
z
M 1381 2969 
Q 1594 3256 1914 3420 
Q 2234 3584 2584 3584 
Q 3122 3584 3439 3221 
Q 3756 2859 3756 2241 
Q 3756 1734 3570 1259 
Q 3384 784 3041 416 
Q 2816 172 2522 40 
Q 2228 -91 1906 -91 
Q 1566 -91 1316 65 
Q 1066 222 909 531 
L 806 0 
L 231 0 
L 1178 4863 
L 1753 4863 
L 1381 2969 
z
" transform="scale(0.015625)"/>
      </defs>
      <use xlink:href="#DejaVuSans-Oblique-49" transform="translate(0 0.09375)"/>
      <use xlink:href="#DejaVuSans-Oblique-62" transform="translate(29.492188 -16.3125)scale(0.7)"/>
     </g>
    </g>
   </g>
   <g id="text_2">
    <g clip-path="url(#pb9af0ff300)">
     <!-- $V_{dd}$ -->
     <g transform="translate(117.2425 29.420391)scale(0.125 -0.125)">
      <defs>
       <path id="DejaVuSans-Oblique-56" d="M 1319 0 
L 500 4666 
L 1119 4666 
L 1797 653 
L 4063 4666 
L 4750 4666 
L 2053 0 
L 1319 0 
z
" transform="scale(0.015625)"/>
       <path id="DejaVuSans-Oblique-64" d="M 2675 525 
Q 2444 222 2128 65 
Q 1813 -91 1428 -91 
Q 903 -91 598 267 
Q 294 625 294 1247 
Q 294 1766 478 2236 
Q 663 2706 1013 3078 
Q 1244 3325 1534 3454 
Q 1825 3584 2144 3584 
Q 2481 3584 2739 3421 
Q 2997 3259 3138 2956 
L 3513 4863 
L 4091 4863 
L 3144 0 
L 2566 0 
L 2675 525 
z
M 891 1350 
Q 891 897 1095 644 
Q 1300 391 1663 391 
Q 1931 391 2161 520 
Q 2391 650 2566 903 
Q 2750 1166 2856 1509 
Q 2963 1853 2963 2188 
Q 2963 2622 2758 2865 
Q 2553 3109 2194 3109 
Q 1922 3109 1687 2981 
Q 1453 2853 1288 2613 
Q 1106 2353 998 2009 
Q 891 1666 891 1350 
z
" transform="scale(0.015625)"/>
      </defs>
      <use xlink:href="#DejaVuSans-Oblique-56" transform="translate(0 0.09375)"/>
      <use xlink:href="#DejaVuSans-Oblique-64" transform="translate(68.408203 -16.3125)scale(0.7)"/>
      <use xlink:href="#DejaVuSans-Oblique-64" transform="translate(112.841797 -16.3125)scale(0.7)"/>
     </g>
    </g>
   </g>
   <g id="patch_6">
    <path d="M 127.305 210.265 
C 127.913641 210.265 128.497436 210.023184 128.92781 209.59281 
C 129.358184 209.162436 129.6 208.578641 129.6 207.97 
C 129.6 207.361359 129.358184 206.777564 128.92781 206.34719 
C 128.497436 205.916816 127.913641 205.675 127.305 205.675 
C 126.696359 205.675 126.112564 205.916816 125.68219 206.34719 
C 125.251816 206.777564 125.01 207.361359 125.01 207.97 
C 125.01 208.578641 125.251816 209.162436 125.68219 209.59281 
C 126.112564 210.023184 126.696359 210.265 127.305 210.265 
z
" clip-path="url(#pb9af0ff300)" style="stroke: #000000; stroke-width: 2; stroke-linejoin: miter"/>
   </g>
   <g id="patch_7">
    <path d="M 127.305 141.415 
C 127.913641 141.415 128.497436 141.173184 128.92781 140.74281 
C 129.358184 140.312436 129.6 139.728641 129.6 139.12 
C 129.6 138.511359 129.358184 137.927564 128.92781 137.49719 
C 128.497436 137.066816 127.913641 136.825 127.305 136.825 
C 126.696359 136.825 126.112564 137.066816 125.68219 137.49719 
C 125.251816 137.927564 125.01 138.511359 125.01 139.12 
C 125.01 139.728641 125.251816 140.312436 125.68219 140.74281 
C 126.112564 141.173184 126.696359 141.415 127.305 141.415 
z
" clip-path="url(#pb9af0ff300)" style="stroke: #000000; stroke-width: 2; stroke-linejoin: miter"/>
   </g>
   <g id="patch_8">
    <path d="M 104.355 95.515 
C 104.963641 95.515 105.547436 95.273184 105.97781 94.84281 
C 106.408184 94.412436 106.65 93.828641 106.65 93.22 
C 106.65 92.611359 106.408184 92.027564 105.97781 91.59719 
C 105.547436 91.166816 104.963641 90.925 104.355 90.925 
C 103.746359 90.925 103.162564 91.166816 102.73219 91.59719 
C 102.301816 92.027564 102.06 92.611359 102.06 93.22 
C 102.06 93.828641 102.301816 94.412436 102.73219 94.84281 
C 103.162564 95.273184 103.746359 95.515 104.355 95.515 
z
" clip-path="url(#pb9af0ff300)" style="stroke: #000000; stroke-width: 2; stroke-linejoin: miter"/>
   </g>
   <g id="patch_9">
    <path d="M 62.535 72.565 
C 63.143641 72.565 63.727436 72.323184 64.15781 71.89281 
C 64.588184 71.462436 64.83 70.878641 64.83 70.27 
C 64.83 69.661359 64.588184 69.077564 64.15781 68.64719 
C 63.727436 68.216816 63.143641 67.975 62.535 67.975 
C 61.926359 67.975 61.342564 68.216816 60.91219 68.64719 
C 60.481816 69.077564 60.24 69.661359 60.24 70.27 
C 60.24 70.878641 60.481816 71.462436 60.91219 71.89281 
C 61.342564 72.323184 61.926359 72.565 62.535 72.565 
z
" clip-path="url(#pb9af0ff300)" style="stroke: #000000; stroke-width: 2; stroke-linejoin: miter"/>
   </g>
   <g id="patch_10">
    <path d="M 150.255 95.515 
C 150.863641 95.515 151.447436 95.273184 151.87781 94.84281 
C 152.308184 94.412436 152.55 93.828641 152.55 93.22 
C 152.55 92.611359 152.308184 92.027564 151.87781 91.59719 
C 151.447436 91.166816 150.863641 90.925 150.255 90.925 
C 149.646359 90.925 149.062564 91.166816 148.63219 91.59719 
C 148.201816 92.027564 147.96 92.611359 147.96 93.22 
C 147.96 93.828641 148.201816 94.412436 148.63219 94.84281 
C 149.062564 95.273184 149.646359 95.515 150.255 95.515 
z
" clip-path="url(#pb9af0ff300)" style="stroke: #000000; stroke-width: 2; stroke-linejoin: miter"/>
   </g>
   <g id="patch_11">
    <path d="M 192.075 72.565 
C 192.683641 72.565 193.267436 72.323184 193.69781 71.89281 
C 194.128184 71.462436 194.37 70.878641 194.37 70.27 
C 194.37 69.661359 194.128184 69.077564 193.69781 68.64719 
C 193.267436 68.216816 192.683641 67.975 192.075 67.975 
C 191.466359 67.975 190.882564 68.216816 190.45219 68.64719 
C 190.021816 69.077564 189.78 69.661359 189.78 70.27 
C 189.78 70.878641 190.021816 71.462436 190.45219 71.89281 
C 190.882564 72.323184 191.466359 72.565 192.075 72.565 
z
" clip-path="url(#pb9af0ff300)" style="stroke: #000000; stroke-width: 2; stroke-linejoin: miter"/>
   </g>
   <g id="patch_12">
    <path d="M 12.555 139.885 
C 13.163641 139.885 13.747436 139.643184 14.17781 139.21281 
C 14.608184 138.782436 14.85 138.198641 14.85 137.59 
C 14.85 136.981359 14.608184 136.397564 14.17781 135.96719 
C 13.747436 135.536816 13.163641 135.295 12.555 135.295 
C 11.946359 135.295 11.362564 135.536816 10.93219 135.96719 
C 10.501816 136.397564 10.26 136.981359 10.26 137.59 
C 10.26 138.198641 10.501816 138.782436 10.93219 139.21281 
C 11.362564 139.643184 11.946359 139.885 12.555 139.885 
z
" clip-path="url(#pb9af0ff300)" style="stroke: #000000; stroke-width: 2; stroke-linejoin: miter"/>
   </g>
   <g id="patch_13">
    <path d="M 242.055 116.935 
C 242.663641 116.935 243.247436 116.693184 243.67781 116.26281 
C 244.108184 115.832436 244.35 115.248641 244.35 114.64 
C 244.35 114.031359 244.108184 113.447564 243.67781 113.01719 
C 243.247436 112.586816 242.663641 112.345 242.055 112.345 
C 241.446359 112.345 240.862564 112.586816 240.43219 113.01719 
C 240.001816 113.447564 239.76 114.031359 239.76 114.64 
C 239.76 115.248641 240.001816 115.832436 240.43219 116.26281 
C 240.862564 116.693184 241.446359 116.935 242.055 116.935 
z
" clip-path="url(#pb9af0ff300)" style="stroke: #000000; stroke-width: 2; stroke-linejoin: miter"/>
   </g>
   <g id="patch_14">
    <path d="M 54.375 162.835 
C 54.983641 162.835 55.567436 162.593184 55.99781 162.16281 
C 56.428184 161.732436 56.67 161.148641 56.67 160.54 
C 56.67 159.931359 56.428184 159.347564 55.99781 158.91719 
C 55.567436 158.486816 54.983641 158.245 54.375 158.245 
C 53.766359 158.245 53.182564 158.486816 52.75219 158.91719 
C 52.321816 159.347564 52.08 159.931359 52.08 160.54 
C 52.08 161.148641 52.321816 161.732436 52.75219 162.16281 
C 53.182564 162.593184 53.766359 162.835 54.375 162.835 
z
" clip-path="url(#pb9af0ff300)" style="stroke: #000000; stroke-width: 2; stroke-linejoin: miter"/>
   </g>
   <g id="patch_15">
    <path d="M 265.005 116.935 
C 265.613641 116.935 266.197436 116.693184 266.62781 116.26281 
C 267.058184 115.832436 267.3 115.248641 267.3 114.64 
C 267.3 114.031359 267.058184 113.447564 266.62781 113.01719 
C 266.197436 112.586816 265.613641 112.345 265.005 112.345 
C 264.396359 112.345 263.812564 112.586816 263.38219 113.01719 
C 262.951816 113.447564 262.71 114.031359 262.71 114.64 
C 262.71 115.248641 262.951816 115.832436 263.38219 116.26281 
C 263.812564 116.693184 264.396359 116.935 265.005 116.935 
z
" clip-path="url(#pb9af0ff300)" style="fill: #ffffff; stroke: #000000; stroke-width: 2; stroke-linejoin: miter"/>
   </g>
   <g id="text_3">
    <g clip-path="url(#pb9af0ff300)">
     <!-- $V_{out}$ -->
     <g transform="translate(253.38 106.685391)scale(0.125 -0.125)">
      <defs>
       <path id="DejaVuSans-Oblique-6f" d="M 1625 -91 
Q 1009 -91 651 289 
Q 294 669 294 1325 
Q 294 1706 417 2101 
Q 541 2497 738 2766 
Q 1047 3184 1428 3384 
Q 1809 3584 2291 3584 
Q 2888 3584 3255 3212 
Q 3622 2841 3622 2241 
Q 3622 1825 3500 1412 
Q 3378 1000 3181 728 
Q 2875 309 2494 109 
Q 2113 -91 1625 -91 
z
M 891 1344 
Q 891 869 1089 633 
Q 1288 397 1691 397 
Q 2269 397 2648 901 
Q 3028 1406 3028 2181 
Q 3028 2634 2825 2865 
Q 2622 3097 2228 3097 
Q 1903 3097 1650 2945 
Q 1397 2794 1197 2484 
Q 1050 2253 970 1956 
Q 891 1659 891 1344 
z
" transform="scale(0.015625)"/>
       <path id="DejaVuSans-Oblique-75" d="M 428 1388 
L 838 3500 
L 1416 3500 
L 1006 1409 
Q 975 1256 961 1147 
Q 947 1038 947 966 
Q 947 700 1109 554 
Q 1272 409 1569 409 
Q 2031 409 2368 721 
Q 2706 1034 2809 1563 
L 3194 3500 
L 3769 3500 
L 3091 0 
L 2516 0 
L 2631 550 
Q 2388 244 2052 76 
Q 1716 -91 1338 -91 
Q 878 -91 622 161 
Q 366 413 366 863 
Q 366 956 381 1097 
Q 397 1238 428 1388 
z
" transform="scale(0.015625)"/>
       <path id="DejaVuSans-Oblique-74" d="M 2706 3500 
L 2619 3053 
L 1472 3053 
L 1100 1153 
Q 1081 1047 1072 975 
Q 1063 903 1063 863 
Q 1063 663 1183 572 
Q 1303 481 1569 481 
L 2150 481 
L 2053 0 
L 1503 0 
Q 991 0 739 200 
Q 488 400 488 806 
Q 488 878 497 964 
Q 506 1050 525 1153 
L 897 3053 
L 409 3053 
L 500 3500 
L 978 3500 
L 1172 4494 
L 1747 4494 
L 1556 3500 
L 2706 3500 
z
" transform="scale(0.015625)"/>
      </defs>
      <use xlink:href="#DejaVuSans-Oblique-56" transform="translate(0 0.09375)"/>
      <use xlink:href="#DejaVuSans-Oblique-6f" transform="translate(68.408203 -16.3125)scale(0.7)"/>
      <use xlink:href="#DejaVuSans-Oblique-75" transform="translate(111.235352 -16.3125)scale(0.7)"/>
      <use xlink:href="#DejaVuSans-Oblique-74" transform="translate(155.600586 -16.3125)scale(0.7)"/>
     </g>
    </g>
   </g>
   <g id="patch_16">
    <path d="M 169.125 187.315 
C 169.733641 187.315 170.317436 187.073184 170.74781 186.64281 
C 171.178184 186.212436 171.42 185.628641 171.42 185.02 
C 171.42 184.411359 171.178184 183.827564 170.74781 183.39719 
C 170.317436 182.966816 169.733641 182.725 169.125 182.725 
C 168.516359 182.725 167.932564 182.966816 167.50219 183.39719 
C 167.071816 183.827564 166.83 184.411359 166.83 185.02 
C 166.83 185.628641 167.071816 186.212436 167.50219 186.64281 
C 167.932564 187.073184 168.516359 187.315 169.125 187.315 
z
" clip-path="url(#pb9af0ff300)" style="fill: #ffffff; stroke: #000000; stroke-width: 2; stroke-linejoin: miter"/>
   </g>
   <g id="text_4">
    <g clip-path="url(#pb9af0ff300)">
     <!-- $V_{b}$ -->
     <g transform="translate(161.875 177.065391)scale(0.125 -0.125)">
      <use xlink:href="#DejaVuSans-Oblique-56" transform="translate(0 0.09375)"/>
      <use xlink:href="#DejaVuSans-Oblique-62" transform="translate(68.408203 -16.3125)scale(0.7)"/>
     </g>
    </g>
   </g>
   <g id="patch_17">
    <path d="M 192.075 118.465 
C 192.683641 118.465 193.267436 118.223184 193.69781 117.79281 
C 194.128184 117.362436 194.37 116.778641 194.37 116.17 
C 194.37 115.561359 194.128184 114.977564 193.69781 114.54719 
C 193.267436 114.116816 192.683641 113.875 192.075 113.875 
C 191.466359 113.875 190.882564 114.116816 190.45219 114.54719 
C 190.021816 114.977564 189.78 115.561359 189.78 116.17 
C 189.78 116.778641 190.021816 117.362436 190.45219 117.79281 
C 190.882564 118.223184 191.466359 118.465 192.075 118.465 
z
" clip-path="url(#pb9af0ff300)" style="fill: #ffffff; stroke: #000000; stroke-width: 2; stroke-linejoin: miter"/>
   </g>
   <g id="text_5">
    <g clip-path="url(#pb9af0ff300)">
     <!-- $V_{+}$ -->
     <g transform="translate(183.95 108.215391)scale(0.125 -0.125)">
      <defs>
       <path id="DejaVuSans-2b" d="M 2944 4013 
L 2944 2272 
L 4684 2272 
L 4684 1741 
L 2944 1741 
L 2944 0 
L 2419 0 
L 2419 1741 
L 678 1741 
L 678 2272 
L 2419 2272 
L 2419 4013 
L 2944 4013 
z
" transform="scale(0.015625)"/>
      </defs>
      <use xlink:href="#DejaVuSans-Oblique-56" transform="translate(0 0.09375)"/>
      <use xlink:href="#DejaVuSans-2b" transform="translate(68.408203 -16.3125)scale(0.7)"/>
     </g>
    </g>
   </g>
   <g id="patch_18">
    <path d="M 62.535 118.465 
C 63.143641 118.465 63.727436 118.223184 64.15781 117.79281 
C 64.588184 117.362436 64.83 116.778641 64.83 116.17 
C 64.83 115.561359 64.588184 114.977564 64.15781 114.54719 
C 63.727436 114.116816 63.143641 113.875 62.535 113.875 
C 61.926359 113.875 61.342564 114.116816 60.91219 114.54719 
C 60.481816 114.977564 60.24 115.561359 60.24 116.17 
C 60.24 116.778641 60.481816 117.362436 60.91219 117.79281 
C 61.342564 118.223184 61.926359 118.465 62.535 118.465 
z
" clip-path="url(#pb9af0ff300)" style="fill: #ffffff; stroke: #000000; stroke-width: 2; stroke-linejoin: miter"/>
   </g>
   <g id="text_6">
    <g clip-path="url(#pb9af0ff300)">
     <!-- $V_{-}$ -->
     <g transform="translate(54.41 108.215391)scale(0.125 -0.125)">
      <defs>
       <path id="DejaVuSans-2212" d="M 678 2272 
L 4684 2272 
L 4684 1741 
L 678 1741 
L 678 2272 
z
" transform="scale(0.015625)"/>
      </defs>
      <use xlink:href="#DejaVuSans-Oblique-56" transform="translate(0 0.09375)"/>
      <use xlink:href="#DejaVuSans-2212" transform="translate(68.408203 -16.3125)scale(0.7)"/>
     </g>
    </g>
   </g>
  </g>
 </g>
 <defs>
  <clipPath id="pb9af0ff300">
   <rect x="7.2" y="7.2" width="286.9923" height="223.414"/>
  </clipPath>
 </defs>
</svg>