<?xml version="1.0" encoding="utf-8" standalone="no"?>
<!DOCTYPE svg PUBLIC "-//W3C//DTD SVG 1.1//EN"
  "http://www.w3.org/Graphics/SVG/1.1/DTD/svg11.dtd">
<svg xmlns:xlink="http://www.w3.org/1999/xlink" width="299.0973pt" height="237.814pt" viewBox="0 0 299.0973 237.814" xmlns="http://www.w3.org/2000/svg" version="1.1">
 <metadata>
  <rdf:RDF xmlns:dc="http://purl.org/dc/elements/1.1/" xmlns:cc="http://creativecommons.org/ns#" xmlns:rdf="http://www.w3.org/1999/02/22-rdf-syntax-ns#">
   <cc:Work>
    <dc:type rdf:resource="http://purl.org/dc/dcmitype/StillImage"/>
    <dc:date>2022-09-18T20:49:23.036304</dc:date>
    <dc:format>image/svg+xml</dc:format>
    <dc:creator>
     <cc:Agent>
      <dc:title>Matplotlib v3.5.3, https://matplotlib.org/</dc:title>
     </cc:Agent>
    </dc:creator>
   </cc:Work>
  </rdf:RDF>
 </metadata>
 <defs>
  <style type="text/css">*{stroke-linejoin: round; stroke-linecap: butt}</style>
 </defs>
 <g id="figure_1">
  <g id="patch_1">
   <path d="M 0 237.814 
L 299.0973 237.814 
L 299.0973 0 
L 0 0 
z
" style="fill: #ffffff"/>
  </g>
  <g id="axes_1">
   <g id="patch_2">
    <path d="M 72.99 73.84 
C 73.936775 73.84 74.8449 73.463842 75.514371 72.794371 
C 76.183842 72.1249 76.56 71.216775 76.56 70.27 
C 76.56 69.323225 76.183842 68.4151 75.514371 67.745629 
C 74.8449 67.076158 73.936775 66.7 72.99 66.7 
C 72.043225 66.7 71.1351 67.076158 70.465629 67.745629 
C 69.796158 68.4151 69.42 69.323225 69.42 70.27 
C 69.42 71.216775 69.796158 72.1249 70.465629 72.794371 
C 71.1351 73.463842 72.043225 73.84 72.99 73.84 
L 72.99 73.84 
z
" clip-path="url(#p0297151ff5)" style="fill: none; stroke: #000000; stroke-width: 2; stroke-linejoin: miter"/>
   </g>
   <g id="patch_3">
    <path d="M 177.03 73.84 
C 177.976775 73.84 178.8849 73.463842 179.554371 72.794371 
C 180.223842 72.1249 180.6 71.216775 180.6 70.27 
C 180.6 69.323225 180.223842 68.4151 179.554371 67.745629 
C 178.8849 67.076158 177.976775 66.7 177.03 66.7 
C 176.083225 66.7 175.1751 67.076158 174.505629 67.745629 
C 173.836158 68.4151 173.46 69.323225 173.46 70.27 
C 173.46 71.216775 173.836158 72.1249 174.505629 72.794371 
C 175.1751 73.463842 176.083225 73.84 177.03 73.84 
L 177.03 73.84 
z
" clip-path="url(#p0297151ff5)" style="fill: none; stroke: #000000; stroke-width: 2; stroke-linejoin: miter"/>
   </g>
   <g id="patch_4">
    <path d="M 39.33 73.84 
C 40.276775 73.84 41.1849 73.463842 41.854371 72.794371 
C 42.523842 72.1249 42.9 71.216775 42.9 70.27 
C 42.9 69.323225 42.523842 68.4151 41.854371 67.745629 
C 41.1849 67.076158 40.276775 66.7 39.33 66.7 
C 38.383225 66.7 37.4751 67.076158 36.805629 67.745629 
C 36.136158 68.4151 35.76 69.323225 35.76 70.27 
C 35.76 71.216775 36.136158 72.1249 36.805629 72.794371 
C 37.4751 73.463842 38.383225 73.84 39.33 73.84 
L 39.33 73.84 
z
" clip-path="url(#p0297151ff5)" style="fill: none; stroke: #000000; stroke-width: 2; stroke-linejoin: miter"/>
   </g>
   <g id="patch_5">
    <path d="M 210.69 73.84 
C 211.636775 73.84 212.5449 73.463842 213.214371 72.794371 
C 213.883842 72.1249 214.26 71.216775 214.26 70.27 
C 214.26 69.323225 213.883842 68.4151 213.214371 67.745629 
C 212.5449 67.076158 211.636775 66.7 210.69 66.7 
C 209.743225 66.7 208.8351 67.076158 208.165629 67.745629 
C 207.496158 68.4151 207.12 69.323225 207.12 70.27 
C 207.12 71.216775 207.496158 72.1249 208.165629 72.794371 
C 208.8351 73.463842 209.743225 73.84 210.69 73.84 
L 210.69 73.84 
z
" clip-path="url(#p0297151ff5)" style="fill: none; stroke: #000000; stroke-width: 2; stroke-linejoin: miter"/>
   </g>
   <g id="line2d_1">
    <path d="M 125.01 162.07 
L 125.01 174.82 
L 145.41 174.82 
L 145.41 195.22 
L 125.01 195.22 
L 125.01 207.97 
" clip-path="url(#p0297151ff5)" style="fill: none; stroke: #000000; stroke-width: 2; stroke-linecap: round"/>
   </g>
   <g id="line2d_2">
    <path d="M 150.51 174.82 
L 150.51 195.22 
" clip-path="url(#p0297151ff5)" style="fill: none; stroke: #000000; stroke-width: 2; stroke-linecap: round"/>
   </g>
   <g id="line2d_3">
    <path d="M 150.51 185.02 
L 166.83 185.02 
" clip-path="url(#p0297151ff5)" style="fill: none; stroke: #000000; stroke-width: 2; stroke-linecap: round"/>
   </g>
   <g id="line2d_4">
    <path d="M 125.01 207.97 
L 125.01 220.21 
L 117.36 220.21 
L 132.66 220.21 
M 119.655 223.882 
L 130.365 223.882 
M 123.48 227.554 
L 126.54 227.554 
" clip-path="url(#p0297151ff5)" style="fill: none; stroke: #000000; stroke-width: 2; stroke-linecap: round"/>
   </g>
   <g id="line2d_5">
    <path d="M 125.01 162.07 
L 125.01 150.595 
L 125.01 139.12 
" clip-path="url(#p0297151ff5)" style="fill: none; stroke: #000000; stroke-width: 2; stroke-linecap: round"/>
   </g>
   <g id="line2d_6">
    <path d="M 125.01 139.12 
L 113.535 139.12 
L 102.06 139.12 
" clip-path="url(#p0297151ff5)" style="fill: none; stroke: #000000; stroke-width: 2; stroke-linecap: round"/>
   </g>
   <g id="line2d_7">
    <path d="M 102.06 139.12 
L 102.06 126.37 
L 81.66 126.37 
L 81.66 105.97 
L 102.06 105.97 
L 102.06 93.22 
" clip-path="url(#p0297151ff5)" style="fill: none; stroke: #000000; stroke-width: 2; stroke-linecap: round"/>
   </g>
   <g id="line2d_8">
    <path d="M 76.56 126.37 
L 76.56 105.97 
" clip-path="url(#p0297151ff5)" style="fill: none; stroke: #000000; stroke-width: 2; stroke-linecap: round"/>
   </g>
   <g id="line2d_9">
    <path d="M 76.56 116.17 
L 60.24 116.17 
" clip-path="url(#p0297151ff5)" style="fill: none; stroke: #000000; stroke-width: 2; stroke-linecap: round"/>
   </g>
   <g id="line2d_10">
    <path d="M 102.06 116.17 
L 89.31 116.17 
" clip-path="url(#p0297151ff5)" style="fill: none; stroke: #000000; stroke-width: 2; stroke-linecap: round"/>
   </g>
   <g id="patch_6">
    <path d="M 89.31 119.23 
L 81.66 116.17 
L 89.31 113.11 
z
" clip-path="url(#p0297151ff5)"/>
   </g>
   <g id="line2d_11">
    <path d="M 102.06 93.22 
L 102.06 80.47 
L 81.66 80.47 
L 81.66 60.07 
L 102.06 60.07 
L 102.06 47.32 
" clip-path="url(#p0297151ff5)" style="fill: none; stroke: #000000; stroke-width: 2; stroke-linecap: round"/>
   </g>
   <g id="line2d_12">
    <path d="M 76.56 80.47 
L 76.56 60.07 
" clip-path="url(#p0297151ff5)" style="fill: none; stroke: #000000; stroke-width: 2; stroke-linecap: round"/>
   </g>
   <g id="line2d_13">
    <path d="M 69.42 70.27 
L 60.24 70.27 
" clip-path="url(#p0297151ff5)" style="fill: none; stroke: #000000; stroke-width: 2; stroke-linecap: round"/>
   </g>
   <g id="line2d_14">
    <path d="M 102.06 93.22 
L 81.15 93.22 
L 60.24 93.22 
" clip-path="url(#p0297151ff5)" style="fill: none; stroke: #000000; stroke-width: 2; stroke-linecap: round"/>
   </g>
   <g id="line2d_15">
    <path d="M 60.24 93.22 
L 60.24 81.745 
L 60.24 70.27 
" clip-path="url(#p0297151ff5)" style="fill: none; stroke: #000000; stroke-width: 2; stroke-linecap: round"/>
   </g>
   <g id="line2d_16">
    <path d="M 102.06 47.32 
L 113.535 47.32 
L 125.01 47.32 
" clip-path="url(#p0297151ff5)" style="fill: none; stroke: #000000; stroke-width: 2; stroke-linecap: round"/>
   </g>
   <g id="line2d_17">
    <path d="M 125.01 47.32 
L 125.01 35.08 
" clip-path="url(#p0297151ff5)" style="fill: none; stroke: #000000; stroke-width: 2; stroke-linecap: round"/>
   </g>
   <g id="line2d_18">
    <path d="M 125.01 35.08 
L 119.2725 35.08 
" clip-path="url(#p0297151ff5)" style="fill: none; stroke: #000000; stroke-width: 2; stroke-linecap: round"/>
   </g>
   <g id="line2d_19">
    <path d="M 125.01 35.08 
L 130.7475 35.08 
" clip-path="url(#p0297151ff5)" style="fill: none; stroke: #000000; stroke-width: 2; stroke-linecap: round"/>
   </g>
   <g id="line2d_20">
    <path d="M 125.01 47.32 
L 136.485 47.32 
L 147.96 47.32 
" clip-path="url(#p0297151ff5)" style="fill: none; stroke: #000000; stroke-width: 2; stroke-linecap: round"/>
   </g>
   <g id="line2d_21">
    <path d="M 147.96 47.32 
L 147.96 60.07 
L 168.36 60.07 
L 168.36 80.47 
L 147.96 80.47 
L 147.96 93.22 
" clip-path="url(#p0297151ff5)" style="fill: none; stroke: #000000; stroke-width: 2; stroke-linecap: round"/>
   </g>
   <g id="line2d_22">
    <path d="M 173.46 60.07 
L 173.46 80.47 
" clip-path="url(#p0297151ff5)" style="fill: none; stroke: #000000; stroke-width: 2; stroke-linecap: round"/>
   </g>
   <g id="line2d_23">
    <path d="M 180.6 70.27 
L 189.78 70.27 
" clip-path="url(#p0297151ff5)" style="fill: none; stroke: #000000; stroke-width: 2; stroke-linecap: round"/>
   </g>
   <g id="line2d_24">
    <path d="M 147.96 93.22 
L 168.87 93.22 
L 189.78 93.22 
" clip-path="url(#p0297151ff5)" style="fill: none; stroke: #000000; stroke-width: 2; stroke-linecap: round"/>
   </g>
   <g id="line2d_25">
    <path d="M 189.78 93.22 
L 189.78 81.745 
L 189.78 70.27 
" clip-path="url(#p0297151ff5)" style="fill: none; stroke: #000000; stroke-width: 2; stroke-linecap: round"/>
   </g>
   <g id="line2d_26">
    <path d="M 147.96 93.22 
L 147.96 105.97 
L 168.36 105.97 
L 168.36 126.37 
L 147.96 126.37 
L 147.96 139.12 
" clip-path="url(#p0297151ff5)" style="fill: none; stroke: #000000; stroke-width: 2; stroke-linecap: round"/>
   </g>
   <g id="line2d_27">
    <path d="M 173.46 105.97 
L 173.46 126.37 
" clip-path="url(#p0297151ff5)" style="fill: none; stroke: #000000; stroke-width: 2; stroke-linecap: round"/>
   </g>
   <g id="line2d_28">
    <path d="M 173.46 116.17 
L 189.78 116.17 
" clip-path="url(#p0297151ff5)" style="fill: none; stroke: #000000; stroke-width: 2; stroke-linecap: round"/>
   </g>
   <g id="line2d_29">
    <path d="M 147.96 116.17 
L 160.71 116.17 
" clip-path="url(#p0297151ff5)" style="fill: none; stroke: #000000; stroke-width: 2; stroke-linecap: round"/>
   </g>
   <g id="patch_7">
    <path d="M 160.71 113.11 
L 168.36 116.17 
L 160.71 119.23 
z
" clip-path="url(#p0297151ff5)"/>
   </g>
   <g id="line2d_30">
    <path d="M 147.96 139.12 
L 136.485 139.12 
L 125.01 139.12 
" clip-path="url(#p0297151ff5)" style="fill: none; stroke: #000000; stroke-width: 2; stroke-linecap: round"/>
   </g>
   <g id="line2d_31">
    <path d="M 102.06 47.32 
L 56.16 47.32 
L 10.26 47.32 
" clip-path="url(#p0297151ff5)" style="fill: none; stroke: #000000; stroke-width: 2; stroke-linecap: round"/>
   </g>
   <g id="line2d_32">
    <path d="M 10.26 47.32 
L 10.26 60.07 
L 30.66 60.07 
L 30.66 80.47 
L 10.26 80.47 
L 10.26 93.22 
" clip-path="url(#p0297151ff5)" style="fill: none; stroke: #000000; stroke-width: 2; stroke-linecap: round"/>
   </g>
   <g id="line2d_33">
    <path d="M 35.76 60.07 
L 35.76 80.47 
" clip-path="url(#p0297151ff5)" style="fill: none; stroke: #000000; stroke-width: 2; stroke-linecap: round"/>
   </g>
   <g id="line2d_34">
    <path d="M 42.9 70.27 
L 52.08 70.27 
" clip-path="url(#p0297151ff5)" style="fill: none; stroke: #000000; stroke-width: 2; stroke-linecap: round"/>
   </g>
   <g id="line2d_35">
    <path d="M 52.08 70.27 
L 56.16 70.27 
L 60.24 70.27 
" clip-path="url(#p0297151ff5)" style="fill: none; stroke: #000000; stroke-width: 2; stroke-linecap: round"/>
   </g>
   <g id="line2d_36">
    <path d="M 10.26 93.22 
L 10.26 115.405 
L 10.26 137.59 
" clip-path="url(#p0297151ff5)" style="fill: none; stroke: #000000; stroke-width: 2; stroke-linecap: round"/>
   </g>
   <g id="line2d_37">
    <path d="M 10.26 137.59 
L 10.26 150.34 
L 30.66 150.34 
L 30.66 170.74 
L 10.26 170.74 
L 10.26 183.49 
" clip-path="url(#p0297151ff5)" style="fill: none; stroke: #000000; stroke-width: 2; stroke-linecap: round"/>
   </g>
   <g id="line2d_38">
    <path d="M 35.76 150.34 
L 35.76 170.74 
" clip-path="url(#p0297151ff5)" style="fill: none; stroke: #000000; stroke-width: 2; stroke-linecap: round"/>
   </g>
   <g id="line2d_39">
    <path d="M 35.76 160.54 
L 52.08 160.54 
" clip-path="url(#p0297151ff5)" style="fill: none; stroke: #000000; stroke-width: 2; stroke-linecap: round"/>
   </g>
   <g id="line2d_40">
    <path d="M 10.26 183.49 
L 10.26 195.73 
L 10.26 207.97 
" clip-path="url(#p0297151ff5)" style="fill: none; stroke: #000000; stroke-width: 2; stroke-linecap: round"/>
   </g>
   <g id="line2d_41">
    <path d="M 10.26 207.97 
L 67.635 207.97 
L 125.01 207.97 
" clip-path="url(#p0297151ff5)" style="fill: none; stroke: #000000; stroke-width: 2; stroke-linecap: round"/>
   </g>
   <g id="line2d_42">
    <path d="M 125.01 207.97 
L 182.385 207.97 
L 239.76 207.97 
" clip-path="url(#p0297151ff5)" style="fill: none; stroke: #000000; stroke-width: 2; stroke-linecap: round"/>
   </g>
   <g id="line2d_43">
    <path d="M 239.76 207.97 
L 239.76 195.73 
L 239.76 183.49 
" clip-path="url(#p0297151ff5)" style="fill: none; stroke: #000000; stroke-width: 2; stroke-linecap: round"/>
   </g>
   <g id="line2d_44">
    <path d="M 239.76 183.49 
L 239.76 170.74 
L 219.36 170.74 
L 219.36 150.34 
L 239.76 150.34 
L 239.76 137.59 
" clip-path="url(#p0297151ff5)" style="fill: none; stroke: #000000; stroke-width: 2; stroke-linecap: round"/>
   </g>
   <g id="line2d_45">
    <path d="M 214.26 170.74 
L 214.26 150.34 
" clip-path="url(#p0297151ff5)" style="fill: none; stroke: #000000; stroke-width: 2; stroke-linecap: round"/>
   </g>
   <g id="line2d_46">
    <path d="M 214.26 160.54 
L 197.94 160.54 
" clip-path="url(#p0297151ff5)" style="fill: none; stroke: #000000; stroke-width: 2; stroke-linecap: round"/>
   </g>
   <g id="line2d_47">
    <path d="M 239.76 137.59 
L 239.76 126.115 
L 239.76 114.64 
" clip-path="url(#p0297151ff5)" style="fill: none; stroke: #000000; stroke-width: 2; stroke-linecap: round"/>
   </g>
   <g id="line2d_48">
    <path d="M 239.76 114.64 
L 239.76 103.93 
L 239.76 93.22 
" clip-path="url(#p0297151ff5)" style="fill: none; stroke: #000000; stroke-width: 2; stroke-linecap: round"/>
   </g>
   <g id="line2d_49">
    <path d="M 239.76 93.22 
L 239.76 80.47 
L 219.36 80.47 
L 219.36 60.07 
L 239.76 60.07 
L 239.76 47.32 
" clip-path="url(#p0297151ff5)" style="fill: none; stroke: #000000; stroke-width: 2; stroke-linecap: round"/>
   </g>
   <g id="line2d_50">
    <path d="M 214.26 80.47 
L 214.26 60.07 
" clip-path="url(#p0297151ff5)" style="fill: none; stroke: #000000; stroke-width: 2; stroke-linecap: round"/>
   </g>
   <g id="line2d_51">
    <path d="M 207.12 70.27 
L 197.94 70.27 
" clip-path="url(#p0297151ff5)" style="fill: none; stroke: #000000; stroke-width: 2; stroke-linecap: round"/>
   </g>
   <g id="line2d_52">
    <path d="M 197.94 70.27 
L 193.86 70.27 
L 189.78 70.27 
" clip-path="url(#p0297151ff5)" style="fill: none; stroke: #000000; stroke-width: 2; stroke-linecap: round"/>
   </g>
   <g id="line2d_53">
    <path d="M 239.76 47.32 
L 239.76 47.32 
L 239.76 47.32 
" clip-path="url(#p0297151ff5)" style="fill: none; stroke: #000000; stroke-width: 2; stroke-linecap: round"/>
   </g>
   <g id="line2d_54">
    <path d="M 239.76 47.32 
L 193.86 47.32 
L 147.96 47.32 
" clip-path="url(#p0297151ff5)" style="fill: none; stroke: #000000; stroke-width: 2; stroke-linecap: round"/>
   </g>
   <g id="line2d_55">
    <path d="M 52.08 160.54 
L 52.08 149.065 
L 52.08 137.59 
" clip-path="url(#p0297151ff5)" style="fill: none; stroke: #000000; stroke-width: 2; stroke-linecap: round"/>
   </g>
   <g id="line2d_56">
    <path d="M 52.08 137.59 
L 31.17 137.59 
L 10.26 137.59 
" clip-path="url(#p0297151ff5)" style="fill: none; stroke: #000000; stroke-width: 2; stroke-linecap: round"/>
   </g>
   <g id="line2d_57">
    <path d="M 52.08 160.54 
L 125.01 160.54 
L 197.94 160.54 
" clip-path="url(#p0297151ff5)" style="fill: none; stroke: #000000; stroke-width: 2; stroke-linecap: round"/>
   </g>
   <g id="line2d_58">
    <path d="M 102.06 116.17 
L 105.885 116.17 
L 109.71 116.17 
" clip-path="url(#p0297151ff5)" style="fill: none; stroke: #000000; stroke-width: 2; stroke-linecap: round"/>
   </g>
   <g id="line2d_59">
    <path d="M 109.71 116.17 
L 109.71 127.645 
L 109.71 139.12 
" clip-path="url(#p0297151ff5)" style="fill: none; stroke: #000000; stroke-width: 2; stroke-linecap: round"/>
   </g>
   <g id="line2d_60">
    <path d="M 147.96 116.17 
L 144.135 116.17 
L 140.31 116.17 
" clip-path="url(#p0297151ff5)" style="fill: none; stroke: #000000; stroke-width: 2; stroke-linecap: round"/>
   </g>
   <g id="line2d_61">
    <path d="M 140.31 116.17 
L 140.31 127.645 
L 140.31 139.12 
" clip-path="url(#p0297151ff5)" style="fill: none; stroke: #000000; stroke-width: 2; stroke-linecap: round"/>
   </g>
   <g id="line2d_62">
    <path d="M 239.76 114.64 
L 251.235 114.64 
L 262.71 114.64 
" clip-path="url(#p0297151ff5)" style="fill: none; stroke: #000000; stroke-width: 2; stroke-linecap: round"/>
   </g>
   <g id="text_1">
    <g clip-path="url(#p0297151ff5)">
     <!-- $I_{b}$ -->
     <g transform="translate(112.325 188.469219)scale(0.125 -0.125)">
      <defs>
       <path id="DejaVuSans-Oblique-49" d="M 1081 4666 
L 1716 4666 
L 806 0 
L 172 0 
L 1081 4666 
z
" transform="scale(0.015625)"/>
       <path id="DejaVuSans-Oblique-62" d="M 3169 2138 
Q 3169 2591 2961 2847 
Q 2753 3103 2388 3103 
Q 2122 3103 1889 2973 
Q 1656 2844 1484 2597 
Q 1303 2338 1198 1995 
Q 1094 1653 1094 1313 
Q 1094 881 1298 636 
Q 1503 391 1863 391 
Q 2134 391 2365 517 
Q 2597 644 2772 891 
Q 2950 1147 3059 1487 
Q 3169 1828 3169 2138 
z
M 1381 2969 
Q 1594 3256 1914 3420 
Q 2234 3584 2584 3584 
Q 3122 3584 3439 3221 
Q 3756 2859 3756 2241 
Q 3756 1734 3570 1259 
Q 3384 784 3041 416 
Q 2816 172 2522 40 
Q 2228 -91 1906 -91 
Q 1566 -91 1316 65 
Q 1066 222 909 531 
L 806 0 
L 231 0 
L 1178 4863 
L 1753 4863 
L 1381 2969 
z
" transform="scale(0.015625)"/>
      </defs>
      <use xlink:href="#DejaVuSans-Oblique-49" transform="translate(0 0.09375)"/>
      <use xlink:href="#DejaVuSans-Oblique-62" transform="translate(29.492188 -16.3125)scale(0.7)"/>
     </g>
    </g>
   </g>
   <g id="text_2">
    <g clip-path="url(#p0297151ff5)">
     <!-- $V_{dd}$ -->
     <g transform="translate(114.9475 29.420391)scale(0.125 -0.125)">
      <defs>
       <path id="DejaVuSans-Oblique-56" d="M 1319 0 
L 500 4666 
L 1119 4666 
L 1797 653 
L 4063 4666 
L 4750 4666 
L 2053 0 
L 1319 0 
z
" transform="scale(0.015625)"/>
       <path id="DejaVuSans-Oblique-64" d="M 2675 525 
Q 2444 222 2128 65 
Q 1813 -91 1428 -91 
Q 903 -91 598 267 
Q 294 625 294 1247 
Q 294 1766 478 2236 
Q 663 2706 1013 3078 
Q 1244 3325 1534 3454 
Q 1825 3584 2144 3584 
Q 2481 3584 2739 3421 
Q 2997 3259 3138 2956 
L 3513 4863 
L 4091 4863 
L 3144 0 
L 2566 0 
L 2675 525 
z
M 891 1350 
Q 891 897 1095 644 
Q 1300 391 1663 391 
Q 1931 391 2161 520 
Q 2391 650 2566 903 
Q 2750 1166 2856 1509 
Q 2963 1853 2963 2188 
Q 2963 2622 2758 2865 
Q 2553 3109 2194 3109 
Q 1922 3109 1687 2981 
Q 1453 2853 1288 2613 
Q 1106 2353 998 2009 
Q 891 1666 891 1350 
z
" transform="scale(0.015625)"/>
      </defs>
      <use xlink:href="#DejaVuSans-Oblique-56" transform="translate(0 0.09375)"/>
      <use xlink:href="#DejaVuSans-Oblique-64" transform="translate(68.408203 -16.3125)scale(0.7)"/>
      <use xlink:href="#DejaVuSans-Oblique-64" transform="translate(112.841797 -16.3125)scale(0.7)"/>
     </g>
    </g>
   </g>
   <g id="patch_8">
    <path d="M 125.01 210.265 
C 125.618641 210.265 126.202436 210.023184 126.63281 209.59281 
C 127.063184 209.162436 127.305 208.578641 127.305 207.97 
C 127.305 207.361359 127.063184 206.777564 126.63281 206.34719 
C 126.202436 205.916816 125.618641 205.675 125.01 205.675 
C 124.401359 205.675 123.817564 205.916816 123.38719 206.34719 
C 122.956816 206.777564 122.715 207.361359 122.715 207.97 
C 122.715 208.578641 122.956816 209.162436 123.38719 209.59281 
C 123.817564 210.023184 124.401359 210.265 125.01 210.265 
z
" clip-path="url(#p0297151ff5)" style="stroke: #000000; stroke-width: 2; stroke-linejoin: miter"/>
   </g>
   <g id="patch_9">
    <path d="M 125.01 141.415 
C 125.618641 141.415 126.202436 141.173184 126.63281 140.74281 
C 127.063184 140.312436 127.305 139.728641 127.305 139.12 
C 127.305 138.511359 127.063184 137.927564 126.63281 137.49719 
C 126.202436 137.066816 125.618641 136.825 125.01 136.825 
C 124.401359 136.825 123.817564 137.066816 123.38719 137.49719 
C 122.956816 137.927564 122.715 138.511359 122.715 139.12 
C 122.715 139.728641 122.956816 140.312436 123.38719 140.74281 
C 123.817564 141.173184 124.401359 141.415 125.01 141.415 
z
" clip-path="url(#p0297151ff5)" style="stroke: #000000; stroke-width: 2; stroke-linejoin: miter"/>
   </g>
   <g id="patch_10">
    <path d="M 102.06 95.515 
C 102.668641 95.515 103.252436 95.273184 103.68281 94.84281 
C 104.113184 94.412436 104.355 93.828641 104.355 93.22 
C 104.355 92.611359 104.113184 92.027564 103.68281 91.59719 
C 103.252436 91.166816 102.668641 90.925 102.06 90.925 
C 101.451359 90.925 100.867564 91.166816 100.43719 91.59719 
C 100.006816 92.027564 99.765 92.611359 99.765 93.22 
C 99.765 93.828641 100.006816 94.412436 100.43719 94.84281 
C 100.867564 95.273184 101.451359 95.515 102.06 95.515 
z
" clip-path="url(#p0297151ff5)" style="stroke: #000000; stroke-width: 2; stroke-linejoin: miter"/>
   </g>
   <g id="patch_11">
    <path d="M 60.24 72.565 
C 60.848641 72.565 61.432436 72.323184 61.86281 71.89281 
C 62.293184 71.462436 62.535 70.878641 62.535 70.27 
C 62.535 69.661359 62.293184 69.077564 61.86281 68.64719 
C 61.432436 68.216816 60.848641 67.975 60.24 67.975 
C 59.631359 67.975 59.047564 68.216816 58.61719 68.64719 
C 58.186816 69.077564 57.945 69.661359 57.945 70.27 
C 57.945 70.878641 58.186816 71.462436 58.61719 71.89281 
C 59.047564 72.323184 59.631359 72.565 60.24 72.565 
z
" clip-path="url(#p0297151ff5)" style="stroke: #000000; stroke-width: 2; stroke-linejoin: miter"/>
   </g>
   <g id="patch_12">
    <path d="M 147.96 95.515 
C 148.568641 95.515 149.152436 95.273184 149.58281 94.84281 
C 150.013184 94.412436 150.255 93.828641 150.255 93.22 
C 150.255 92.611359 150.013184 92.027564 149.58281 91.59719 
C 149.152436 91.166816 148.568641 90.925 147.96 90.925 
C 147.351359 90.925 146.767564 91.166816 146.33719 91.59719 
C 145.906816 92.027564 145.665 92.611359 145.665 93.22 
C 145.665 93.828641 145.906816 94.412436 146.33719 94.84281 
C 146.767564 95.273184 147.351359 95.515 147.96 95.515 
z
" clip-path="url(#p0297151ff5)" style="stroke: #000000; stroke-width: 2; stroke-linejoin: miter"/>
   </g>
   <g id="patch_13">
    <path d="M 189.78 72.565 
C 190.388641 72.565 190.972436 72.323184 191.40281 71.89281 
C 191.833184 71.462436 192.075 70.878641 192.075 70.27 
C 192.075 69.661359 191.833184 69.077564 191.40281 68.64719 
C 190.972436 68.216816 190.388641 67.975 189.78 67.975 
C 189.171359 67.975 188.587564 68.216816 188.15719 68.64719 
C 187.726816 69.077564 187.485 69.661359 187.485 70.27 
C 187.485 70.878641 187.726816 71.462436 188.15719 71.89281 
C 188.587564 72.323184 189.171359 72.565 189.78 72.565 
z
" clip-path="url(#p0297151ff5)" style="stroke: #000000; stroke-width: 2; stroke-linejoin: miter"/>
   </g>
   <g id="patch_14">
    <path d="M 239.76 116.935 
C 240.368641 116.935 240.952436 116.693184 241.38281 116.26281 
C 241.813184 115.832436 242.055 115.248641 242.055 114.64 
C 242.055 114.031359 241.813184 113.447564 241.38281 113.01719 
C 240.952436 112.586816 240.368641 112.345 239.76 112.345 
C 239.151359 112.345 238.567564 112.586816 238.13719 113.01719 
C 237.706816 113.447564 237.465 114.031359 237.465 114.64 
C 237.465 115.248641 237.706816 115.832436 238.13719 116.26281 
C 238.567564 116.693184 239.151359 116.935 239.76 116.935 
z
" clip-path="url(#p0297151ff5)" style="stroke: #000000; stroke-width: 2; stroke-linejoin: miter"/>
   </g>
   <g id="patch_15">
    <path d="M 52.08 162.835 
C 52.688641 162.835 53.272436 162.593184 53.70281 162.16281 
C 54.133184 161.732436 54.375 161.148641 54.375 160.54 
C 54.375 159.931359 54.133184 159.347564 53.70281 158.91719 
C 53.272436 158.486816 52.688641 158.245 52.08 158.245 
C 51.471359 158.245 50.887564 158.486816 50.45719 158.91719 
C 50.026816 159.347564 49.785 159.931359 49.785 160.54 
C 49.785 161.148641 50.026816 161.732436 50.45719 162.16281 
C 50.887564 162.593184 51.471359 162.835 52.08 162.835 
z
" clip-path="url(#p0297151ff5)" style="stroke: #000000; stroke-width: 2; stroke-linejoin: miter"/>
   </g>
   <g id="patch_16">
    <path d="M 262.71 116.935 
C 263.318641 116.935 263.902436 116.693184 264.33281 116.26281 
C 264.763184 115.832436 265.005 115.248641 265.005 114.64 
C 265.005 114.031359 264.763184 113.447564 264.33281 113.01719 
C 263.902436 112.586816 263.318641 112.345 262.71 112.345 
C 262.101359 112.345 261.517564 112.586816 261.08719 113.01719 
C 260.656816 113.447564 260.415 114.031359 260.415 114.64 
C 260.415 115.248641 260.656816 115.832436 261.08719 116.26281 
C 261.517564 116.693184 262.101359 116.935 262.71 116.935 
z
" clip-path="url(#p0297151ff5)" style="fill: #ffffff; stroke: #000000; stroke-width: 2; stroke-linejoin: miter"/>
   </g>
   <g id="text_3">
    <g clip-path="url(#p0297151ff5)">
     <!-- $V_{out}$ -->
     <g transform="translate(251.085 106.685391)scale(0.125 -0.125)">
      <defs>
       <path id="DejaVuSans-Oblique-6f" d="M 1625 -91 
Q 1009 -91 651 289 
Q 294 669 294 1325 
Q 294 1706 417 2101 
Q 541 2497 738 2766 
Q 1047 3184 1428 3384 
Q 1809 3584 2291 3584 
Q 2888 3584 3255 3212 
Q 3622 2841 3622 2241 
Q 3622 1825 3500 1412 
Q 3378 1000 3181 728 
Q 2875 309 2494 109 
Q 2113 -91 1625 -91 
z
M 891 1344 
Q 891 869 1089 633 
Q 1288 397 1691 397 
Q 2269 397 2648 901 
Q 3028 1406 3028 2181 
Q 3028 2634 2825 2865 
Q 2622 3097 2228 3097 
Q 1903 3097 1650 2945 
Q 1397 2794 1197 2484 
Q 1050 2253 970 1956 
Q 891 1659 891 1344 
z
" transform="scale(0.015625)"/>
       <path id="DejaVuSans-Oblique-75" d="M 428 1388 
L 838 3500 
L 1416 3500 
L 1006 1409 
Q 975 1256 961 1147 
Q 947 1038 947 966 
Q 947 700 1109 554 
Q 1272 409 1569 409 
Q 2031 409 2368 721 
Q 2706 1034 2809 1563 
L 3194 3500 
L 3769 3500 
L 3091 0 
L 2516 0 
L 2631 550 
Q 2388 244 2052 76 
Q 1716 -91 1338 -91 
Q 878 -91 622 161 
Q 366 413 366 863 
Q 366 956 381 1097 
Q 397 1238 428 1388 
z
" transform="scale(0.015625)"/>
       <path id="DejaVuSans-Oblique-74" d="M 2706 3500 
L 2619 3053 
L 1472 3053 
L 1100 1153 
Q 1081 1047 1072 975 
Q 1063 903 1063 863 
Q 1063 663 1183 572 
Q 1303 481 1569 481 
L 2150 481 
L 2053 0 
L 1503 0 
Q 991 0 739 200 
Q 488 400 488 806 
Q 488 878 497 964 
Q 506 1050 525 1153 
L 897 3053 
L 409 3053 
L 500 3500 
L 978 3500 
L 1172 4494 
L 1747 4494 
L 1556 3500 
L 2706 3500 
z
" transform="scale(0.015625)"/>
      </defs>
      <use xlink:href="#DejaVuSans-Oblique-56" transform="translate(0 0.09375)"/>
      <use xlink:href="#DejaVuSans-Oblique-6f" transform="translate(68.408203 -16.3125)scale(0.7)"/>
      <use xlink:href="#DejaVuSans-Oblique-75" transform="translate(111.235352 -16.3125)scale(0.7)"/>
      <use xlink:href="#DejaVuSans-Oblique-74" transform="translate(155.600586 -16.3125)scale(0.7)"/>
     </g>
    </g>
   </g>
   <g id="patch_17">
    <path d="M 166.83 187.315 
C 167.438641 187.315 168.022436 187.073184 168.45281 186.64281 
C 168.883184 186.212436 169.125 185.628641 169.125 185.02 
C 169.125 184.411359 168.883184 183.827564 168.45281 183.39719 
C 168.022436 182.966816 167.438641 182.725 166.83 182.725 
C 166.221359 182.725 165.637564 182.966816 165.20719 183.39719 
C 164.776816 183.827564 164.535 184.411359 164.535 185.02 
C 164.535 185.628641 164.776816 186.212436 165.20719 186.64281 
C 165.637564 187.073184 166.221359 187.315 166.83 187.315 
z
" clip-path="url(#p0297151ff5)" style="fill: #ffffff; stroke: #000000; stroke-width: 2; stroke-linejoin: miter"/>
   </g>
   <g id="text_4">
    <g clip-path="url(#p0297151ff5)">
     <!-- $V_{b}$ -->
     <g transform="translate(159.58 177.065391)scale(0.125 -0.125)">
      <use xlink:href="#DejaVuSans-Oblique-56" transform="translate(0 0.09375)"/>
      <use xlink:href="#DejaVuSans-Oblique-62" transform="translate(68.408203 -16.3125)scale(0.7)"/>
     </g>
    </g>
   </g>
   <g id="patch_18">
    <path d="M 189.78 118.465 
C 190.388641 118.465 190.972436 118.223184 191.40281 117.79281 
C 191.833184 117.362436 192.075 116.778641 192.075 116.17 
C 192.075 115.561359 191.833184 114.977564 191.40281 114.54719 
C 190.972436 114.116816 190.388641 113.875 189.78 113.875 
C 189.171359 113.875 188.587564 114.116816 188.15719 114.54719 
C 187.726816 114.977564 187.485 115.561359 187.485 116.17 
C 187.485 116.778641 187.726816 117.362436 188.15719 117.79281 
C 188.587564 118.223184 189.171359 118.465 189.78 118.465 
z
" clip-path="url(#p0297151ff5)" style="fill: #ffffff; stroke: #000000; stroke-width: 2; stroke-linejoin: miter"/>
   </g>
   <g id="text_5">
    <g clip-path="url(#p0297151ff5)">
     <!-- $V_{+}$ -->
     <g transform="translate(181.655 108.215391)scale(0.125 -0.125)">
      <defs>
       <path id="DejaVuSans-2b" d="M 2944 4013 
L 2944 2272 
L 4684 2272 
L 4684 1741 
L 2944 1741 
L 2944 0 
L 2419 0 
L 2419 1741 
L 678 1741 
L 678 2272 
L 2419 2272 
L 2419 4013 
L 2944 4013 
z
" transform="scale(0.015625)"/>
      </defs>
      <use xlink:href="#DejaVuSans-Oblique-56" transform="translate(0 0.09375)"/>
      <use xlink:href="#DejaVuSans-2b" transform="translate(68.408203 -16.3125)scale(0.7)"/>
     </g>
    </g>
   </g>
   <g id="patch_19">
    <path d="M 60.24 118.465 
C 60.848641 118.465 61.432436 118.223184 61.86281 117.79281 
C 62.293184 117.362436 62.535 116.778641 62.535 116.17 
C 62.535 115.561359 62.293184 114.977564 61.86281 114.54719 
C 61.432436 114.116816 60.848641 113.875 60.24 113.875 
C 59.631359 113.875 59.047564 114.116816 58.61719 114.54719 
C 58.186816 114.977564 57.945 115.561359 57.945 116.17 
C 57.945 116.778641 58.186816 117.362436 58.61719 117.79281 
C 59.047564 118.223184 59.631359 118.465 60.24 118.465 
z
" clip-path="url(#p0297151ff5)" style="fill: #ffffff; stroke: #000000; stroke-width: 2; stroke-linejoin: miter"/>
   </g>
   <g id="text_6">
    <g clip-path="url(#p0297151ff5)">
     <!-- $V_{-}$ -->
     <g transform="translate(52.115 108.215391)scale(0.125 -0.125)">
      <defs>
       <path id="DejaVuSans-2212" d="M 678 2272 
L 4684 2272 
L 4684 1741 
L 678 1741 
L 678 2272 
z
" transform="scale(0.015625)"/>
      </defs>
      <use xlink:href="#DejaVuSans-Oblique-56" transform="translate(0 0.09375)"/>
      <use xlink:href="#DejaVuSans-2212" transform="translate(68.408203 -16.3125)scale(0.7)"/>
     </g>
    </g>
   </g>
  </g>
 </g>
 <defs>
  <clipPath id="p0297151ff5">
   <rect x="7.2" y="7.2" width="284.6973" height="223.414"/>
  </clipPath>
 </defs>
</svg>