<?xml version="1.0" encoding="utf-8" standalone="no"?>
<!DOCTYPE svg PUBLIC "-//W3C//DTD SVG 1.1//EN"
  "http://www.w3.org/Graphics/SVG/1.1/DTD/svg11.dtd">
<!-- Created with matplotlib (https://matplotlib.org/) -->
<svg height="231.694pt" version="1.1" viewBox="0 0 293.9514 231.694" width="293.9514pt" xmlns="http://www.w3.org/2000/svg" xmlns:xlink="http://www.w3.org/1999/xlink">
 <metadata>
  <rdf:RDF xmlns:cc="http://creativecommons.org/ns#" xmlns:dc="http://purl.org/dc/elements/1.1/" xmlns:rdf="http://www.w3.org/1999/02/22-rdf-syntax-ns#">
   <cc:Work>
    <dc:type rdf:resource="http://purl.org/dc/dcmitype/StillImage"/>
    <dc:date>2021-02-27T15:26:23.026279</dc:date>
    <dc:format>image/svg+xml</dc:format>
    <dc:creator>
     <cc:Agent>
      <dc:title>Matplotlib v3.3.4, https://matplotlib.org/</dc:title>
     </cc:Agent>
    </dc:creator>
   </cc:Work>
  </rdf:RDF>
 </metadata>
 <defs>
  <style type="text/css">*{stroke-linecap:butt;stroke-linejoin:round;}</style>
 </defs>
 <g id="figure_1">
  <g id="patch_1">
   <path d="M 0 231.694 
L 293.9514 231.694 
L 293.9514 0 
L 0 0 
z
" style="fill:none;"/>
  </g>
  <g id="axes_1">
   <g id="patch_2">
    <path clip-path="url(#p28c7f1af72)" d="M 72.735 67.72 
C 73.681775 67.72 74.5899 67.343842 75.259371 66.674371 
C 75.928842 66.0049 76.305 65.096775 76.305 64.15 
C 76.305 63.203225 75.928842 62.2951 75.259371 61.625629 
C 74.5899 60.956158 73.681775 60.58 72.735 60.58 
C 71.788225 60.58 70.8801 60.956158 70.210629 61.625629 
C 69.541158 62.2951 69.165 63.203225 69.165 64.15 
C 69.165 65.096775 69.541158 66.0049 70.210629 66.674371 
C 70.8801 67.343842 71.788225 67.72 72.735 67.72 
z
" style="fill:none;stroke:#000000;stroke-linejoin:miter;stroke-width:2;"/>
   </g>
   <g id="patch_3">
    <path clip-path="url(#p28c7f1af72)" d="M 181.875 67.72 
C 182.821775 67.72 183.7299 67.343842 184.399371 66.674371 
C 185.068842 66.0049 185.445 65.096775 185.445 64.15 
C 185.445 63.203225 185.068842 62.2951 184.399371 61.625629 
C 183.7299 60.956158 182.821775 60.58 181.875 60.58 
C 180.928225 60.58 180.0201 60.956158 179.350629 61.625629 
C 178.681158 62.2951 178.305 63.203225 178.305 64.15 
C 178.305 65.096775 178.681158 66.0049 179.350629 66.674371 
C 180.0201 67.343842 180.928225 67.72 181.875 67.72 
z
" style="fill:none;stroke:#000000;stroke-linejoin:miter;stroke-width:2;"/>
   </g>
   <g id="patch_4">
    <path clip-path="url(#p28c7f1af72)" d="M 44.175 67.72 
C 45.121775 67.72 46.0299 67.343842 46.699371 66.674371 
C 47.368842 66.0049 47.745 65.096775 47.745 64.15 
C 47.745 63.203225 47.368842 62.2951 46.699371 61.625629 
C 46.0299 60.956158 45.121775 60.58 44.175 60.58 
C 43.228225 60.58 42.3201 60.956158 41.650629 61.625629 
C 40.981158 62.2951 40.605 63.203225 40.605 64.15 
C 40.605 65.096775 40.981158 66.0049 41.650629 66.674371 
C 42.3201 67.343842 43.228225 67.72 44.175 67.72 
z
" style="fill:none;stroke:#000000;stroke-linejoin:miter;stroke-width:2;"/>
   </g>
   <g id="patch_5">
    <path clip-path="url(#p28c7f1af72)" d="M 210.435 67.72 
C 211.381775 67.72 212.2899 67.343842 212.959371 66.674371 
C 213.628842 66.0049 214.005 65.096775 214.005 64.15 
C 214.005 63.203225 213.628842 62.2951 212.959371 61.625629 
C 212.2899 60.956158 211.381775 60.58 210.435 60.58 
C 209.488225 60.58 208.5801 60.956158 207.910629 61.625629 
C 207.241158 62.2951 206.865 63.203225 206.865 64.15 
C 206.865 65.096775 207.241158 66.0049 207.910629 66.674371 
C 208.5801 67.343842 209.488225 67.72 210.435 67.72 
z
" style="fill:none;stroke:#000000;stroke-linejoin:miter;stroke-width:2;"/>
   </g>
   <g id="line2d_1">
    <path clip-path="url(#p28c7f1af72)" d="M 127.305 155.95 
L 127.305 168.7 
L 147.705 168.7 
L 147.705 189.1 
L 127.305 189.1 
L 127.305 201.85 
" style="fill:none;stroke:#000000;stroke-linecap:round;stroke-width:2;"/>
   </g>
   <g id="line2d_2">
    <path clip-path="url(#p28c7f1af72)" d="M 155.355 168.7 
L 155.355 189.1 
" style="fill:none;stroke:#000000;stroke-linecap:round;stroke-width:2;"/>
   </g>
   <g id="line2d_3">
    <path clip-path="url(#p28c7f1af72)" d="M 155.355 178.9 
L 171.675 178.9 
" style="fill:none;stroke:#000000;stroke-linecap:round;stroke-width:2;"/>
   </g>
   <g id="line2d_4">
    <path clip-path="url(#p28c7f1af72)" d="M 127.305 201.85 
L 127.305 214.09 
L 119.655 214.09 
L 134.955 214.09 
M 121.95 217.762 
L 132.66 217.762 
M 125.775 221.434 
L 128.835 221.434 
" style="fill:none;stroke:#000000;stroke-linecap:round;stroke-width:2;"/>
   </g>
   <g id="line2d_5">
    <path clip-path="url(#p28c7f1af72)" d="M 127.305 155.95 
L 127.305 144.475 
L 127.305 133 
" style="fill:none;stroke:#000000;stroke-linecap:round;stroke-width:2;"/>
   </g>
   <g id="line2d_6">
    <path clip-path="url(#p28c7f1af72)" d="M 127.305 133 
L 115.83 133 
L 104.355 133 
" style="fill:none;stroke:#000000;stroke-linecap:round;stroke-width:2;"/>
   </g>
   <g id="line2d_7">
    <path clip-path="url(#p28c7f1af72)" d="M 104.355 133 
L 104.355 120.25 
L 83.955 120.25 
L 83.955 99.85 
L 104.355 99.85 
L 104.355 87.1 
" style="fill:none;stroke:#000000;stroke-linecap:round;stroke-width:2;"/>
   </g>
   <g id="line2d_8">
    <path clip-path="url(#p28c7f1af72)" d="M 76.305 120.25 
L 76.305 99.85 
" style="fill:none;stroke:#000000;stroke-linecap:round;stroke-width:2;"/>
   </g>
   <g id="line2d_9">
    <path clip-path="url(#p28c7f1af72)" d="M 76.305 110.05 
L 59.985 110.05 
" style="fill:none;stroke:#000000;stroke-linecap:round;stroke-width:2;"/>
   </g>
   <g id="line2d_10">
    <path clip-path="url(#p28c7f1af72)" d="M 104.355 87.1 
L 104.355 74.35 
L 83.955 74.35 
L 83.955 53.95 
L 104.355 53.95 
L 104.355 41.2 
" style="fill:none;stroke:#000000;stroke-linecap:round;stroke-width:2;"/>
   </g>
   <g id="line2d_11">
    <path clip-path="url(#p28c7f1af72)" d="M 76.305 74.35 
L 76.305 53.95 
" style="fill:none;stroke:#000000;stroke-linecap:round;stroke-width:2;"/>
   </g>
   <g id="line2d_12">
    <path clip-path="url(#p28c7f1af72)" d="M 69.165 64.15 
L 59.985 64.15 
" style="fill:none;stroke:#000000;stroke-linecap:round;stroke-width:2;"/>
   </g>
   <g id="line2d_13">
    <path clip-path="url(#p28c7f1af72)" d="M 104.355 87.1 
L 82.17 87.1 
L 59.985 87.1 
" style="fill:none;stroke:#000000;stroke-linecap:round;stroke-width:2;"/>
   </g>
   <g id="line2d_14">
    <path clip-path="url(#p28c7f1af72)" d="M 59.985 87.1 
L 59.985 75.625 
L 59.985 64.15 
" style="fill:none;stroke:#000000;stroke-linecap:round;stroke-width:2;"/>
   </g>
   <g id="line2d_15">
    <path clip-path="url(#p28c7f1af72)" d="M 104.355 41.2 
L 115.83 41.2 
L 127.305 41.2 
" style="fill:none;stroke:#000000;stroke-linecap:round;stroke-width:2;"/>
   </g>
   <g id="line2d_16">
    <path clip-path="url(#p28c7f1af72)" d="M 127.305 41.2 
L 127.305 28.96 
" style="fill:none;stroke:#000000;stroke-linecap:round;stroke-width:2;"/>
   </g>
   <g id="line2d_17">
    <path clip-path="url(#p28c7f1af72)" d="M 127.305 28.96 
L 121.5675 28.96 
" style="fill:none;stroke:#000000;stroke-linecap:round;stroke-width:2;"/>
   </g>
   <g id="line2d_18">
    <path clip-path="url(#p28c7f1af72)" d="M 127.305 28.96 
L 133.0425 28.96 
" style="fill:none;stroke:#000000;stroke-linecap:round;stroke-width:2;"/>
   </g>
   <g id="line2d_19">
    <path clip-path="url(#p28c7f1af72)" d="M 127.305 41.2 
L 138.78 41.2 
L 150.255 41.2 
" style="fill:none;stroke:#000000;stroke-linecap:round;stroke-width:2;"/>
   </g>
   <g id="line2d_20">
    <path clip-path="url(#p28c7f1af72)" d="M 150.255 41.2 
L 150.255 53.95 
L 170.655 53.95 
L 170.655 74.35 
L 150.255 74.35 
L 150.255 87.1 
" style="fill:none;stroke:#000000;stroke-linecap:round;stroke-width:2;"/>
   </g>
   <g id="line2d_21">
    <path clip-path="url(#p28c7f1af72)" d="M 178.305 53.95 
L 178.305 74.35 
" style="fill:none;stroke:#000000;stroke-linecap:round;stroke-width:2;"/>
   </g>
   <g id="line2d_22">
    <path clip-path="url(#p28c7f1af72)" d="M 185.445 64.15 
L 194.625 64.15 
" style="fill:none;stroke:#000000;stroke-linecap:round;stroke-width:2;"/>
   </g>
   <g id="line2d_23">
    <path clip-path="url(#p28c7f1af72)" d="M 150.255 87.1 
L 172.44 87.1 
L 194.625 87.1 
" style="fill:none;stroke:#000000;stroke-linecap:round;stroke-width:2;"/>
   </g>
   <g id="line2d_24">
    <path clip-path="url(#p28c7f1af72)" d="M 194.625 87.1 
L 194.625 75.625 
L 194.625 64.15 
" style="fill:none;stroke:#000000;stroke-linecap:round;stroke-width:2;"/>
   </g>
   <g id="line2d_25">
    <path clip-path="url(#p28c7f1af72)" d="M 150.255 87.1 
L 150.255 99.85 
L 170.655 99.85 
L 170.655 120.25 
L 150.255 120.25 
L 150.255 133 
" style="fill:none;stroke:#000000;stroke-linecap:round;stroke-width:2;"/>
   </g>
   <g id="line2d_26">
    <path clip-path="url(#p28c7f1af72)" d="M 178.305 99.85 
L 178.305 120.25 
" style="fill:none;stroke:#000000;stroke-linecap:round;stroke-width:2;"/>
   </g>
   <g id="line2d_27">
    <path clip-path="url(#p28c7f1af72)" d="M 178.305 110.05 
L 194.625 110.05 
" style="fill:none;stroke:#000000;stroke-linecap:round;stroke-width:2;"/>
   </g>
   <g id="line2d_28">
    <path clip-path="url(#p28c7f1af72)" d="M 150.255 133 
L 138.78 133 
L 127.305 133 
" style="fill:none;stroke:#000000;stroke-linecap:round;stroke-width:2;"/>
   </g>
   <g id="line2d_29">
    <path clip-path="url(#p28c7f1af72)" d="M 104.355 41.2 
L 58.455 41.2 
L 12.555 41.2 
" style="fill:none;stroke:#000000;stroke-linecap:round;stroke-width:2;"/>
   </g>
   <g id="line2d_30">
    <path clip-path="url(#p28c7f1af72)" d="M 12.555 41.2 
L 12.555 53.95 
L 32.955 53.95 
L 32.955 74.35 
L 12.555 74.35 
L 12.555 87.1 
" style="fill:none;stroke:#000000;stroke-linecap:round;stroke-width:2;"/>
   </g>
   <g id="line2d_31">
    <path clip-path="url(#p28c7f1af72)" d="M 40.605 53.95 
L 40.605 74.35 
" style="fill:none;stroke:#000000;stroke-linecap:round;stroke-width:2;"/>
   </g>
   <g id="line2d_32">
    <path clip-path="url(#p28c7f1af72)" d="M 47.745 64.15 
L 56.925 64.15 
" style="fill:none;stroke:#000000;stroke-linecap:round;stroke-width:2;"/>
   </g>
   <g id="line2d_33">
    <path clip-path="url(#p28c7f1af72)" d="M 12.555 87.1 
L 12.555 109.285 
L 12.555 131.47 
" style="fill:none;stroke:#000000;stroke-linecap:round;stroke-width:2;"/>
   </g>
   <g id="line2d_34">
    <path clip-path="url(#p28c7f1af72)" d="M 12.555 131.47 
L 12.555 144.22 
L 32.955 144.22 
L 32.955 164.62 
L 12.555 164.62 
L 12.555 177.37 
" style="fill:none;stroke:#000000;stroke-linecap:round;stroke-width:2;"/>
   </g>
   <g id="line2d_35">
    <path clip-path="url(#p28c7f1af72)" d="M 40.605 144.22 
L 40.605 164.62 
" style="fill:none;stroke:#000000;stroke-linecap:round;stroke-width:2;"/>
   </g>
   <g id="line2d_36">
    <path clip-path="url(#p28c7f1af72)" d="M 40.605 154.42 
L 56.925 154.42 
" style="fill:none;stroke:#000000;stroke-linecap:round;stroke-width:2;"/>
   </g>
   <g id="line2d_37">
    <path clip-path="url(#p28c7f1af72)" d="M 12.555 177.37 
L 12.555 189.61 
L 12.555 201.85 
" style="fill:none;stroke:#000000;stroke-linecap:round;stroke-width:2;"/>
   </g>
   <g id="line2d_38">
    <path clip-path="url(#p28c7f1af72)" d="M 12.555 201.85 
L 69.93 201.85 
L 127.305 201.85 
" style="fill:none;stroke:#000000;stroke-linecap:round;stroke-width:2;"/>
   </g>
   <g id="line2d_39">
    <path clip-path="url(#p28c7f1af72)" d="M 127.305 201.85 
L 184.68 201.85 
L 242.055 201.85 
" style="fill:none;stroke:#000000;stroke-linecap:round;stroke-width:2;"/>
   </g>
   <g id="line2d_40">
    <path clip-path="url(#p28c7f1af72)" d="M 242.055 201.85 
L 242.055 189.61 
L 242.055 177.37 
" style="fill:none;stroke:#000000;stroke-linecap:round;stroke-width:2;"/>
   </g>
   <g id="line2d_41">
    <path clip-path="url(#p28c7f1af72)" d="M 242.055 177.37 
L 242.055 164.62 
L 221.655 164.62 
L 221.655 144.22 
L 242.055 144.22 
L 242.055 131.47 
" style="fill:none;stroke:#000000;stroke-linecap:round;stroke-width:2;"/>
   </g>
   <g id="line2d_42">
    <path clip-path="url(#p28c7f1af72)" d="M 214.005 164.62 
L 214.005 144.22 
" style="fill:none;stroke:#000000;stroke-linecap:round;stroke-width:2;"/>
   </g>
   <g id="line2d_43">
    <path clip-path="url(#p28c7f1af72)" d="M 214.005 154.42 
L 197.685 154.42 
" style="fill:none;stroke:#000000;stroke-linecap:round;stroke-width:2;"/>
   </g>
   <g id="line2d_44">
    <path clip-path="url(#p28c7f1af72)" d="M 242.055 131.47 
L 242.055 119.995 
L 242.055 108.52 
" style="fill:none;stroke:#000000;stroke-linecap:round;stroke-width:2;"/>
   </g>
   <g id="line2d_45">
    <path clip-path="url(#p28c7f1af72)" d="M 242.055 108.52 
L 242.055 97.81 
L 242.055 87.1 
" style="fill:none;stroke:#000000;stroke-linecap:round;stroke-width:2;"/>
   </g>
   <g id="line2d_46">
    <path clip-path="url(#p28c7f1af72)" d="M 242.055 87.1 
L 242.055 74.35 
L 221.655 74.35 
L 221.655 53.95 
L 242.055 53.95 
L 242.055 41.2 
" style="fill:none;stroke:#000000;stroke-linecap:round;stroke-width:2;"/>
   </g>
   <g id="line2d_47">
    <path clip-path="url(#p28c7f1af72)" d="M 214.005 74.35 
L 214.005 53.95 
" style="fill:none;stroke:#000000;stroke-linecap:round;stroke-width:2;"/>
   </g>
   <g id="line2d_48">
    <path clip-path="url(#p28c7f1af72)" d="M 206.865 64.15 
L 197.685 64.15 
" style="fill:none;stroke:#000000;stroke-linecap:round;stroke-width:2;"/>
   </g>
   <g id="line2d_49">
    <path clip-path="url(#p28c7f1af72)" d="M 242.055 41.2 
L 242.055 41.2 
L 242.055 41.2 
" style="fill:none;stroke:#000000;stroke-linecap:round;stroke-width:2;"/>
   </g>
   <g id="line2d_50">
    <path clip-path="url(#p28c7f1af72)" d="M 242.055 41.2 
L 196.155 41.2 
L 150.255 41.2 
" style="fill:none;stroke:#000000;stroke-linecap:round;stroke-width:2;"/>
   </g>
   <g id="line2d_51">
    <path clip-path="url(#p28c7f1af72)" d="M 56.925 154.42 
L 56.925 142.945 
L 56.925 131.47 
" style="fill:none;stroke:#000000;stroke-linecap:round;stroke-width:2;"/>
   </g>
   <g id="line2d_52">
    <path clip-path="url(#p28c7f1af72)" d="M 56.925 131.47 
L 34.74 131.47 
L 12.555 131.47 
" style="fill:none;stroke:#000000;stroke-linecap:round;stroke-width:2;"/>
   </g>
   <g id="line2d_53">
    <path clip-path="url(#p28c7f1af72)" d="M 56.925 154.42 
L 127.305 154.42 
L 197.685 154.42 
" style="fill:none;stroke:#000000;stroke-linecap:round;stroke-width:2;"/>
   </g>
   <g id="line2d_54">
    <path clip-path="url(#p28c7f1af72)" d="M 242.055 108.52 
L 253.53 108.52 
L 265.005 108.52 
" style="fill:none;stroke:#000000;stroke-linecap:round;stroke-width:2;"/>
   </g>
   <g id="text_1">
    <!-- $I_{b}$ -->
    <g transform="translate(113.465 182.763125)scale(0.14 -0.14)">
     <defs>
      <path d="M 16.890625 72.90625 
L 26.8125 72.90625 
L 12.59375 0 
L 2.6875 0 
z
" id="DejaVuSans-Oblique-73"/>
      <path d="M 49.515625 33.40625 
Q 49.515625 40.484375 46.265625 44.484375 
Q 43.015625 48.484375 37.3125 48.484375 
Q 33.15625 48.484375 29.515625 46.453125 
Q 25.875 44.4375 23.1875 40.578125 
Q 20.359375 36.53125 18.71875 31.171875 
Q 17.09375 25.828125 17.09375 20.515625 
Q 17.09375 13.765625 20.28125 9.9375 
Q 23.484375 6.109375 29.109375 6.109375 
Q 33.34375 6.109375 36.953125 8.078125 
Q 40.578125 10.0625 43.3125 13.921875 
Q 46.09375 17.921875 47.796875 23.234375 
Q 49.515625 28.5625 49.515625 33.40625 
z
M 21.578125 46.390625 
Q 24.90625 50.875 29.90625 53.4375 
Q 34.90625 56 40.375 56 
Q 48.78125 56 53.734375 50.328125 
Q 58.6875 44.671875 58.6875 35.015625 
Q 58.6875 27.09375 55.78125 19.671875 
Q 52.875 12.25 47.515625 6.5 
Q 44 2.6875 39.40625 0.625 
Q 34.8125 -1.421875 29.78125 -1.421875 
Q 24.46875 -1.421875 20.5625 1.015625 
Q 16.65625 3.46875 14.203125 8.296875 
L 12.59375 0 
L 3.609375 0 
L 18.40625 75.984375 
L 27.390625 75.984375 
z
" id="DejaVuSans-Oblique-98"/>
     </defs>
     <use transform="translate(0 0.09375)" xlink:href="#DejaVuSans-Oblique-73"/>
     <use transform="translate(29.492188 -16.3125)scale(0.7)" xlink:href="#DejaVuSans-Oblique-98"/>
    </g>
   </g>
   <g id="text_2">
    <!-- $V_{dd}$ -->
    <g transform="translate(116.035 22.988437)scale(0.14 -0.14)">
     <defs>
      <path d="M 20.609375 0 
L 7.8125 72.90625 
L 17.484375 72.90625 
L 28.078125 10.203125 
L 63.484375 72.90625 
L 74.21875 72.90625 
L 32.078125 0 
z
" id="DejaVuSans-Oblique-86"/>
      <path d="M 41.796875 8.203125 
Q 38.1875 3.46875 33.25 1.015625 
Q 28.328125 -1.421875 22.3125 -1.421875 
Q 14.109375 -1.421875 9.34375 4.171875 
Q 4.59375 9.765625 4.59375 19.484375 
Q 4.59375 27.59375 7.46875 34.9375 
Q 10.359375 42.28125 15.828125 48.09375 
Q 19.4375 51.953125 23.96875 53.96875 
Q 28.515625 56 33.5 56 
Q 38.765625 56 42.796875 53.453125 
Q 46.828125 50.921875 49.03125 46.1875 
L 54.890625 75.984375 
L 63.921875 75.984375 
L 49.125 0 
L 40.09375 0 
z
M 13.921875 21.09375 
Q 13.921875 14.015625 17.109375 10.0625 
Q 20.3125 6.109375 25.984375 6.109375 
Q 30.171875 6.109375 33.765625 8.125 
Q 37.359375 10.15625 40.09375 14.109375 
Q 42.96875 18.21875 44.625 23.578125 
Q 46.296875 28.953125 46.296875 34.1875 
Q 46.296875 40.96875 43.09375 44.765625 
Q 39.890625 48.578125 34.28125 48.578125 
Q 30.03125 48.578125 26.359375 46.578125 
Q 22.703125 44.578125 20.125 40.828125 
Q 17.28125 36.765625 15.59375 31.390625 
Q 13.921875 26.03125 13.921875 21.09375 
z
" id="DejaVuSans-Oblique-100"/>
     </defs>
     <use transform="translate(0 0.09375)" xlink:href="#DejaVuSans-Oblique-86"/>
     <use transform="translate(68.408203 -16.3125)scale(0.7)" xlink:href="#DejaVuSans-Oblique-100"/>
     <use transform="translate(112.841797 -16.3125)scale(0.7)" xlink:href="#DejaVuSans-Oblique-100"/>
    </g>
   </g>
   <g id="patch_6">
    <path clip-path="url(#p28c7f1af72)" d="M 127.305 204.145 
C 127.913641 204.145 128.497436 203.903184 128.92781 203.47281 
C 129.358184 203.042436 129.6 202.458641 129.6 201.85 
C 129.6 201.241359 129.358184 200.657564 128.92781 200.22719 
C 128.497436 199.796816 127.913641 199.555 127.305 199.555 
C 126.696359 199.555 126.112564 199.796816 125.68219 200.22719 
C 125.251816 200.657564 125.01 201.241359 125.01 201.85 
C 125.01 202.458641 125.251816 203.042436 125.68219 203.47281 
C 126.112564 203.903184 126.696359 204.145 127.305 204.145 
z
" style="stroke:#000000;stroke-linejoin:miter;stroke-width:2;"/>
   </g>
   <g id="patch_7">
    <path clip-path="url(#p28c7f1af72)" d="M 127.305 135.295 
C 127.913641 135.295 128.497436 135.053184 128.92781 134.62281 
C 129.358184 134.192436 129.6 133.608641 129.6 133 
C 129.6 132.391359 129.358184 131.807564 128.92781 131.37719 
C 128.497436 130.946816 127.913641 130.705 127.305 130.705 
C 126.696359 130.705 126.112564 130.946816 125.68219 131.37719 
C 125.251816 131.807564 125.01 132.391359 125.01 133 
C 125.01 133.608641 125.251816 134.192436 125.68219 134.62281 
C 126.112564 135.053184 126.696359 135.295 127.305 135.295 
z
" style="stroke:#000000;stroke-linejoin:miter;stroke-width:2;"/>
   </g>
   <g id="patch_8">
    <path clip-path="url(#p28c7f1af72)" d="M 104.355 89.395 
C 104.963641 89.395 105.547436 89.153184 105.97781 88.72281 
C 106.408184 88.292436 106.65 87.708641 106.65 87.1 
C 106.65 86.491359 106.408184 85.907564 105.97781 85.47719 
C 105.547436 85.046816 104.963641 84.805 104.355 84.805 
C 103.746359 84.805 103.162564 85.046816 102.73219 85.47719 
C 102.301816 85.907564 102.06 86.491359 102.06 87.1 
C 102.06 87.708641 102.301816 88.292436 102.73219 88.72281 
C 103.162564 89.153184 103.746359 89.395 104.355 89.395 
z
" style="stroke:#000000;stroke-linejoin:miter;stroke-width:2;"/>
   </g>
   <g id="patch_9">
    <path clip-path="url(#p28c7f1af72)" d="M 59.985 66.445 
C 60.593641 66.445 61.177436 66.203184 61.60781 65.77281 
C 62.038184 65.342436 62.28 64.758641 62.28 64.15 
C 62.28 63.541359 62.038184 62.957564 61.60781 62.52719 
C 61.177436 62.096816 60.593641 61.855 59.985 61.855 
C 59.376359 61.855 58.792564 62.096816 58.36219 62.52719 
C 57.931816 62.957564 57.69 63.541359 57.69 64.15 
C 57.69 64.758641 57.931816 65.342436 58.36219 65.77281 
C 58.792564 66.203184 59.376359 66.445 59.985 66.445 
z
" style="stroke:#000000;stroke-linejoin:miter;stroke-width:2;"/>
   </g>
   <g id="patch_10">
    <path clip-path="url(#p28c7f1af72)" d="M 150.255 89.395 
C 150.863641 89.395 151.447436 89.153184 151.87781 88.72281 
C 152.308184 88.292436 152.55 87.708641 152.55 87.1 
C 152.55 86.491359 152.308184 85.907564 151.87781 85.47719 
C 151.447436 85.046816 150.863641 84.805 150.255 84.805 
C 149.646359 84.805 149.062564 85.046816 148.63219 85.47719 
C 148.201816 85.907564 147.96 86.491359 147.96 87.1 
C 147.96 87.708641 148.201816 88.292436 148.63219 88.72281 
C 149.062564 89.153184 149.646359 89.395 150.255 89.395 
z
" style="stroke:#000000;stroke-linejoin:miter;stroke-width:2;"/>
   </g>
   <g id="patch_11">
    <path clip-path="url(#p28c7f1af72)" d="M 194.625 66.445 
C 195.233641 66.445 195.817436 66.203184 196.24781 65.77281 
C 196.678184 65.342436 196.92 64.758641 196.92 64.15 
C 196.92 63.541359 196.678184 62.957564 196.24781 62.52719 
C 195.817436 62.096816 195.233641 61.855 194.625 61.855 
C 194.016359 61.855 193.432564 62.096816 193.00219 62.52719 
C 192.571816 62.957564 192.33 63.541359 192.33 64.15 
C 192.33 64.758641 192.571816 65.342436 193.00219 65.77281 
C 193.432564 66.203184 194.016359 66.445 194.625 66.445 
z
" style="stroke:#000000;stroke-linejoin:miter;stroke-width:2;"/>
   </g>
   <g id="patch_12">
    <path clip-path="url(#p28c7f1af72)" d="M 12.555 133.765 
C 13.163641 133.765 13.747436 133.523184 14.17781 133.09281 
C 14.608184 132.662436 14.85 132.078641 14.85 131.47 
C 14.85 130.861359 14.608184 130.277564 14.17781 129.84719 
C 13.747436 129.416816 13.163641 129.175 12.555 129.175 
C 11.946359 129.175 11.362564 129.416816 10.93219 129.84719 
C 10.501816 130.277564 10.26 130.861359 10.26 131.47 
C 10.26 132.078641 10.501816 132.662436 10.93219 133.09281 
C 11.362564 133.523184 11.946359 133.765 12.555 133.765 
z
" style="stroke:#000000;stroke-linejoin:miter;stroke-width:2;"/>
   </g>
   <g id="patch_13">
    <path clip-path="url(#p28c7f1af72)" d="M 242.055 110.815 
C 242.663641 110.815 243.247436 110.573184 243.67781 110.14281 
C 244.108184 109.712436 244.35 109.128641 244.35 108.52 
C 244.35 107.911359 244.108184 107.327564 243.67781 106.89719 
C 243.247436 106.466816 242.663641 106.225 242.055 106.225 
C 241.446359 106.225 240.862564 106.466816 240.43219 106.89719 
C 240.001816 107.327564 239.76 107.911359 239.76 108.52 
C 239.76 109.128641 240.001816 109.712436 240.43219 110.14281 
C 240.862564 110.573184 241.446359 110.815 242.055 110.815 
z
" style="stroke:#000000;stroke-linejoin:miter;stroke-width:2;"/>
   </g>
   <g id="patch_14">
    <path clip-path="url(#p28c7f1af72)" d="M 56.925 156.715 
C 57.533641 156.715 58.117436 156.473184 58.54781 156.04281 
C 58.978184 155.612436 59.22 155.028641 59.22 154.42 
C 59.22 153.811359 58.978184 153.227564 58.54781 152.79719 
C 58.117436 152.366816 57.533641 152.125 56.925 152.125 
C 56.316359 152.125 55.732564 152.366816 55.30219 152.79719 
C 54.871816 153.227564 54.63 153.811359 54.63 154.42 
C 54.63 155.028641 54.871816 155.612436 55.30219 156.04281 
C 55.732564 156.473184 56.316359 156.715 56.925 156.715 
z
" style="stroke:#000000;stroke-linejoin:miter;stroke-width:2;"/>
   </g>
   <g id="patch_15">
    <path clip-path="url(#p28c7f1af72)" d="M 265.005 110.815 
C 265.613641 110.815 266.197436 110.573184 266.62781 110.14281 
C 267.058184 109.712436 267.3 109.128641 267.3 108.52 
C 267.3 107.911359 267.058184 107.327564 266.62781 106.89719 
C 266.197436 106.466816 265.613641 106.225 265.005 106.225 
C 264.396359 106.225 263.812564 106.466816 263.38219 106.89719 
C 262.951816 107.327564 262.71 107.911359 262.71 108.52 
C 262.71 109.128641 262.951816 109.712436 263.38219 110.14281 
C 263.812564 110.573184 264.396359 110.815 265.005 110.815 
z
" style="fill:#ffffff;stroke:#000000;stroke-linejoin:miter;stroke-width:2;"/>
   </g>
   <g id="patch_16">
    <path clip-path="url(#p28c7f1af72)" d="M 171.675 181.195 
C 172.283641 181.195 172.867436 180.953184 173.29781 180.52281 
C 173.728184 180.092436 173.97 179.508641 173.97 178.9 
C 173.97 178.291359 173.728184 177.707564 173.29781 177.27719 
C 172.867436 176.846816 172.283641 176.605 171.675 176.605 
C 171.066359 176.605 170.482564 176.846816 170.05219 177.27719 
C 169.621816 177.707564 169.38 178.291359 169.38 178.9 
C 169.38 179.508641 169.621816 180.092436 170.05219 180.52281 
C 170.482564 180.953184 171.066359 181.195 171.675 181.195 
z
" style="fill:#ffffff;stroke:#000000;stroke-linejoin:miter;stroke-width:2;"/>
   </g>
   <g id="patch_17">
    <path clip-path="url(#p28c7f1af72)" d="M 194.625 112.345 
C 195.233641 112.345 195.817436 112.103184 196.24781 111.67281 
C 196.678184 111.242436 196.92 110.658641 196.92 110.05 
C 196.92 109.441359 196.678184 108.857564 196.24781 108.42719 
C 195.817436 107.996816 195.233641 107.755 194.625 107.755 
C 194.016359 107.755 193.432564 107.996816 193.00219 108.42719 
C 192.571816 108.857564 192.33 109.441359 192.33 110.05 
C 192.33 110.658641 192.571816 111.242436 193.00219 111.67281 
C 193.432564 112.103184 194.016359 112.345 194.625 112.345 
z
" style="fill:#ffffff;stroke:#000000;stroke-linejoin:miter;stroke-width:2;"/>
   </g>
   <g id="patch_18">
    <path clip-path="url(#p28c7f1af72)" d="M 59.985 112.345 
C 60.593641 112.345 61.177436 112.103184 61.60781 111.67281 
C 62.038184 111.242436 62.28 110.658641 62.28 110.05 
C 62.28 109.441359 62.038184 108.857564 61.60781 108.42719 
C 61.177436 107.996816 60.593641 107.755 59.985 107.755 
C 59.376359 107.755 58.792564 107.996816 58.36219 108.42719 
C 57.931816 108.857564 57.69 109.441359 57.69 110.05 
C 57.69 110.658641 57.931816 111.242436 58.36219 111.67281 
C 58.792564 112.103184 59.376359 112.345 59.985 112.345 
z
" style="fill:#ffffff;stroke:#000000;stroke-linejoin:miter;stroke-width:2;"/>
   </g>
   <g id="text_3">
    <!-- $V_{out}$ -->
    <g transform="translate(251.985 100.253437)scale(0.14 -0.14)">
     <defs>
      <path d="M 25.390625 -1.421875 
Q 15.765625 -1.421875 10.171875 4.515625 
Q 4.59375 10.453125 4.59375 20.703125 
Q 4.59375 26.65625 6.515625 32.828125 
Q 8.453125 39.015625 11.53125 43.21875 
Q 16.359375 49.75 22.3125 52.875 
Q 28.265625 56 35.796875 56 
Q 45.125 56 50.859375 50.1875 
Q 56.59375 44.390625 56.59375 35.015625 
Q 56.59375 28.515625 54.6875 22.0625 
Q 52.78125 15.625 49.703125 11.375 
Q 44.921875 4.828125 38.96875 1.703125 
Q 33.015625 -1.421875 25.390625 -1.421875 
z
M 13.921875 21 
Q 13.921875 13.578125 17.015625 9.890625 
Q 20.125 6.203125 26.421875 6.203125 
Q 35.453125 6.203125 41.375 14.078125 
Q 47.3125 21.96875 47.3125 34.078125 
Q 47.3125 41.15625 44.140625 44.765625 
Q 40.96875 48.390625 34.8125 48.390625 
Q 29.734375 48.390625 25.78125 46.015625 
Q 21.828125 43.65625 18.703125 38.8125 
Q 16.40625 35.203125 15.15625 30.5625 
Q 13.921875 25.921875 13.921875 21 
z
" id="DejaVuSans-Oblique-111"/>
      <path d="M 6.6875 21.6875 
L 13.09375 54.6875 
L 22.125 54.6875 
L 15.71875 22.015625 
Q 15.234375 19.625 15.015625 17.921875 
Q 14.796875 16.21875 14.796875 15.09375 
Q 14.796875 10.9375 17.328125 8.65625 
Q 19.875 6.390625 24.515625 6.390625 
Q 31.734375 6.390625 37 11.265625 
Q 42.28125 16.15625 43.890625 24.421875 
L 49.90625 54.6875 
L 58.890625 54.6875 
L 48.296875 0 
L 39.3125 0 
L 41.109375 8.59375 
Q 37.3125 3.8125 32.0625 1.1875 
Q 26.8125 -1.421875 20.90625 -1.421875 
Q 13.71875 -1.421875 9.71875 2.515625 
Q 5.71875 6.453125 5.71875 13.484375 
Q 5.71875 14.9375 5.953125 17.140625 
Q 6.203125 19.34375 6.6875 21.6875 
z
" id="DejaVuSans-Oblique-117"/>
      <path d="M 42.28125 54.6875 
L 40.921875 47.703125 
L 23 47.703125 
L 17.1875 18.015625 
Q 16.890625 16.359375 16.75 15.234375 
Q 16.609375 14.109375 16.609375 13.484375 
Q 16.609375 10.359375 18.484375 8.9375 
Q 20.359375 7.515625 24.515625 7.515625 
L 33.59375 7.515625 
L 32.078125 0 
L 23.484375 0 
Q 15.484375 0 11.546875 3.125 
Q 7.625 6.25 7.625 12.59375 
Q 7.625 13.71875 7.765625 15.0625 
Q 7.90625 16.40625 8.203125 18.015625 
L 14.015625 47.703125 
L 6.390625 47.703125 
L 7.8125 54.6875 
L 15.28125 54.6875 
L 18.3125 70.21875 
L 27.296875 70.21875 
L 24.3125 54.6875 
z
" id="DejaVuSans-Oblique-116"/>
     </defs>
     <use transform="translate(0 0.09375)" xlink:href="#DejaVuSans-Oblique-86"/>
     <use transform="translate(68.408203 -16.3125)scale(0.7)" xlink:href="#DejaVuSans-Oblique-111"/>
     <use transform="translate(111.235352 -16.3125)scale(0.7)" xlink:href="#DejaVuSans-Oblique-117"/>
     <use transform="translate(155.600586 -16.3125)scale(0.7)" xlink:href="#DejaVuSans-Oblique-116"/>
    </g>
   </g>
   <g id="text_4">
    <!-- $V_{b}$ -->
    <g transform="translate(163.555 170.633437)scale(0.14 -0.14)">
     <use transform="translate(0 0.09375)" xlink:href="#DejaVuSans-Oblique-86"/>
     <use transform="translate(68.408203 -16.3125)scale(0.7)" xlink:href="#DejaVuSans-Oblique-98"/>
    </g>
   </g>
   <g id="text_5">
    <!-- $V_{+}$ -->
    <g transform="translate(185.525 101.783437)scale(0.14 -0.14)">
     <defs>
      <path d="M 46 62.703125 
L 46 35.5 
L 73.1875 35.5 
L 73.1875 27.203125 
L 46 27.203125 
L 46 0 
L 37.796875 0 
L 37.796875 27.203125 
L 10.59375 27.203125 
L 10.59375 35.5 
L 37.796875 35.5 
L 37.796875 62.703125 
z
" id="DejaVuSans-43"/>
     </defs>
     <use transform="translate(0 0.09375)" xlink:href="#DejaVuSans-Oblique-86"/>
     <use transform="translate(68.408203 -16.3125)scale(0.7)" xlink:href="#DejaVuSans-43"/>
    </g>
   </g>
   <g id="text_6">
    <!-- $V_{-}$ -->
    <g transform="translate(50.885 101.783437)scale(0.14 -0.14)">
     <defs>
      <path d="M 10.59375 35.5 
L 73.1875 35.5 
L 73.1875 27.203125 
L 10.59375 27.203125 
z
" id="DejaVuSans-8722"/>
     </defs>
     <use transform="translate(0 0.09375)" xlink:href="#DejaVuSans-Oblique-86"/>
     <use transform="translate(68.408203 -16.3125)scale(0.7)" xlink:href="#DejaVuSans-8722"/>
    </g>
   </g>
  </g>
 </g>
 <defs>
  <clipPath id="p28c7f1af72">
   <rect height="217.294" width="279.5514" x="7.2" y="7.2"/>
  </clipPath>
 </defs>
</svg>
