<?xml version="1.0" encoding="utf-8" standalone="no"?>
<!DOCTYPE svg PUBLIC "-//W3C//DTD SVG 1.1//EN"
  "http://www.w3.org/Graphics/SVG/1.1/DTD/svg11.dtd">
<!-- Created with matplotlib (https://matplotlib.org/) -->
<svg height="154.854pt" version="1.1" viewBox="0 0 192.9918 154.854" width="192.9918pt" xmlns="http://www.w3.org/2000/svg" xmlns:xlink="http://www.w3.org/1999/xlink">
 <metadata>
  <rdf:RDF xmlns:cc="http://creativecommons.org/ns#" xmlns:dc="http://purl.org/dc/elements/1.1/" xmlns:rdf="http://www.w3.org/1999/02/22-rdf-syntax-ns#">
   <cc:Work>
    <dc:type rdf:resource="http://purl.org/dc/dcmitype/StillImage"/>
    <dc:date>2021-02-27T15:27:47.077747</dc:date>
    <dc:format>image/svg+xml</dc:format>
    <dc:creator>
     <cc:Agent>
      <dc:title>Matplotlib v3.3.4, https://matplotlib.org/</dc:title>
     </cc:Agent>
    </dc:creator>
   </cc:Work>
  </rdf:RDF>
 </metadata>
 <defs>
  <style type="text/css">*{stroke-linecap:butt;stroke-linejoin:round;}</style>
 </defs>
 <g id="figure_1">
  <g id="patch_1">
   <path d="M 0 154.854 
L 192.9918 154.854 
L 192.9918 0 
L 0 0 
z
" style="fill:none;"/>
  </g>
  <g id="axes_1">
   <g id="patch_2">
    <path clip-path="url(#pe01acc40c8)" d="M 43.9659 33.21 
L 50.0859 30.15 
L 50.0859 33.1947 
L 64.3659 33.1947 
L 64.3659 33.2253 
L 50.0859 33.2253 
L 50.0859 36.27 
z
" style="stroke:#000000;stroke-width:2;"/>
   </g>
   <g id="patch_3">
    <path clip-path="url(#pe01acc40c8)" d="M 145.9659 33.21 
L 139.8459 36.27 
L 139.8459 33.2253 
L 125.5659 33.2253 
L 125.5659 33.1947 
L 139.8459 33.1947 
L 139.8459 30.15 
z
" style="stroke:#000000;stroke-width:2;"/>
   </g>
   <g id="line2d_1">
    <path clip-path="url(#pe01acc40c8)" d="M 87.3159 79.11 
L 87.3159 91.86 
L 107.7159 91.86 
L 107.7159 112.26 
L 87.3159 112.26 
L 87.3159 125.01 
" style="fill:none;stroke:#000000;stroke-linecap:round;stroke-width:2;"/>
   </g>
   <g id="line2d_2">
    <path clip-path="url(#pe01acc40c8)" d="M 115.3659 91.86 
L 115.3659 112.26 
" style="fill:none;stroke:#000000;stroke-linecap:round;stroke-width:2;"/>
   </g>
   <g id="line2d_3">
    <path clip-path="url(#pe01acc40c8)" d="M 115.3659 102.06 
L 131.6859 102.06 
" style="fill:none;stroke:#000000;stroke-linecap:round;stroke-width:2;"/>
   </g>
   <g id="line2d_4">
    <path clip-path="url(#pe01acc40c8)" d="M 87.3159 125.01 
L 87.3159 137.25 
L 79.6659 137.25 
L 94.9659 137.25 
M 81.9609 140.922 
L 92.6709 140.922 
M 85.7859 144.594 
L 88.8459 144.594 
" style="fill:none;stroke:#000000;stroke-linecap:round;stroke-width:2;"/>
   </g>
   <g id="line2d_5">
    <path clip-path="url(#pe01acc40c8)" d="M 87.3159 79.11 
L 87.3159 67.635 
L 87.3159 56.16 
" style="fill:none;stroke:#000000;stroke-linecap:round;stroke-width:2;"/>
   </g>
   <g id="line2d_6">
    <path clip-path="url(#pe01acc40c8)" d="M 87.3159 56.16 
L 75.8409 56.16 
L 64.3659 56.16 
" style="fill:none;stroke:#000000;stroke-linecap:round;stroke-width:2;"/>
   </g>
   <g id="line2d_7">
    <path clip-path="url(#pe01acc40c8)" d="M 64.3659 56.16 
L 64.3659 43.41 
L 43.9659 43.41 
L 43.9659 23.01 
L 64.3659 23.01 
L 64.3659 10.26 
" style="fill:none;stroke:#000000;stroke-linecap:round;stroke-width:2;"/>
   </g>
   <g id="line2d_8">
    <path clip-path="url(#pe01acc40c8)" d="M 36.3159 43.41 
L 36.3159 23.01 
" style="fill:none;stroke:#000000;stroke-linecap:round;stroke-width:2;"/>
   </g>
   <g id="line2d_9">
    <path clip-path="url(#pe01acc40c8)" d="M 36.3159 33.21 
L 19.9959 33.21 
" style="fill:none;stroke:#000000;stroke-linecap:round;stroke-width:2;"/>
   </g>
   <g id="line2d_10">
    <path clip-path="url(#pe01acc40c8)" d="M 125.5659 10.26 
L 125.5659 23.01 
L 145.9659 23.01 
L 145.9659 43.41 
L 125.5659 43.41 
L 125.5659 56.16 
" style="fill:none;stroke:#000000;stroke-linecap:round;stroke-width:2;"/>
   </g>
   <g id="line2d_11">
    <path clip-path="url(#pe01acc40c8)" d="M 153.6159 23.01 
L 153.6159 43.41 
" style="fill:none;stroke:#000000;stroke-linecap:round;stroke-width:2;"/>
   </g>
   <g id="line2d_12">
    <path clip-path="url(#pe01acc40c8)" d="M 153.6159 33.21 
L 169.9359 33.21 
" style="fill:none;stroke:#000000;stroke-linecap:round;stroke-width:2;"/>
   </g>
   <g id="line2d_13">
    <path clip-path="url(#pe01acc40c8)" d="M 125.5659 56.16 
L 106.4409 56.16 
L 87.3159 56.16 
" style="fill:none;stroke:#000000;stroke-linecap:round;stroke-width:2;"/>
   </g>
   <g id="line2d_14">
    <path clip-path="url(#pe01acc40c8)" d="M 64.3659 33.21 
L 68.1909 33.21 
L 72.0159 33.21 
" style="fill:none;stroke:#000000;stroke-linecap:round;stroke-width:2;"/>
   </g>
   <g id="line2d_15">
    <path clip-path="url(#pe01acc40c8)" d="M 72.0159 33.21 
L 72.0159 44.685 
L 72.0159 56.16 
" style="fill:none;stroke:#000000;stroke-linecap:round;stroke-width:2;"/>
   </g>
   <g id="line2d_16">
    <path clip-path="url(#pe01acc40c8)" d="M 125.5659 33.21 
L 121.7409 33.21 
L 117.9159 33.21 
" style="fill:none;stroke:#000000;stroke-linecap:round;stroke-width:2;"/>
   </g>
   <g id="line2d_17">
    <path clip-path="url(#pe01acc40c8)" d="M 117.9159 33.21 
L 117.9159 44.685 
L 117.9159 56.16 
" style="fill:none;stroke:#000000;stroke-linecap:round;stroke-width:2;"/>
   </g>
   <g id="patch_4">
    <path clip-path="url(#pe01acc40c8)" d="M 87.3159 58.455 
C 87.924541 58.455 88.508336 58.213184 88.93871 57.78281 
C 89.369084 57.352436 89.6109 56.768641 89.6109 56.16 
C 89.6109 55.551359 89.369084 54.967564 88.93871 54.53719 
C 88.508336 54.106816 87.924541 53.865 87.3159 53.865 
C 86.707259 53.865 86.123464 54.106816 85.69309 54.53719 
C 85.262716 54.967564 85.0209 55.551359 85.0209 56.16 
C 85.0209 56.768641 85.262716 57.352436 85.69309 57.78281 
C 86.123464 58.213184 86.707259 58.455 87.3159 58.455 
z
" style="stroke:#000000;stroke-linejoin:miter;stroke-width:2;"/>
   </g>
   <g id="patch_5">
    <path clip-path="url(#pe01acc40c8)" d="M 131.6859 104.355 
C 132.294541 104.355 132.878336 104.113184 133.30871 103.68281 
C 133.739084 103.252436 133.9809 102.668641 133.9809 102.06 
C 133.9809 101.451359 133.739084 100.867564 133.30871 100.43719 
C 132.878336 100.006816 132.294541 99.765 131.6859 99.765 
C 131.077259 99.765 130.493464 100.006816 130.06309 100.43719 
C 129.632716 100.867564 129.3909 101.451359 129.3909 102.06 
C 129.3909 102.668641 129.632716 103.252436 130.06309 103.68281 
C 130.493464 104.113184 131.077259 104.355 131.6859 104.355 
z
" style="fill:#ffffff;stroke:#000000;stroke-linejoin:miter;stroke-width:2;"/>
   </g>
   <g id="patch_6">
    <path clip-path="url(#pe01acc40c8)" d="M 169.9359 35.505 
C 170.544541 35.505 171.128336 35.263184 171.55871 34.83281 
C 171.989084 34.402436 172.2309 33.818641 172.2309 33.21 
C 172.2309 32.601359 171.989084 32.017564 171.55871 31.58719 
C 171.128336 31.156816 170.544541 30.915 169.9359 30.915 
C 169.327259 30.915 168.743464 31.156816 168.31309 31.58719 
C 167.882716 32.017564 167.6409 32.601359 167.6409 33.21 
C 167.6409 33.818641 167.882716 34.402436 168.31309 34.83281 
C 168.743464 35.263184 169.327259 35.505 169.9359 35.505 
z
" style="fill:#ffffff;stroke:#000000;stroke-linejoin:miter;stroke-width:2;"/>
   </g>
   <g id="patch_7">
    <path clip-path="url(#pe01acc40c8)" d="M 19.9959 35.505 
C 20.604541 35.505 21.188336 35.263184 21.61871 34.83281 
C 22.049084 34.402436 22.2909 33.818641 22.2909 33.21 
C 22.2909 32.601359 22.049084 32.017564 21.61871 31.58719 
C 21.188336 31.156816 20.604541 30.915 19.9959 30.915 
C 19.387259 30.915 18.803464 31.156816 18.37309 31.58719 
C 17.942716 32.017564 17.7009 32.601359 17.7009 33.21 
C 17.7009 33.818641 17.942716 34.402436 18.37309 34.83281 
C 18.803464 35.263184 19.387259 35.505 19.9959 35.505 
z
" style="fill:#ffffff;stroke:#000000;stroke-linejoin:miter;stroke-width:2;"/>
   </g>
   <g id="text_1">
    <!-- $V_{*}$ -->
    <g transform="translate(79.8259 47.893437)scale(0.14 -0.14)">
     <defs>
      <path d="M 20.609375 0 
L 7.8125 72.90625 
L 17.484375 72.90625 
L 28.078125 10.203125 
L 63.484375 72.90625 
L 74.21875 72.90625 
L 32.078125 0 
z
" id="DejaVuSans-Oblique-86"/>
      <path d="M 47.015625 60.890625 
L 29.5 51.421875 
L 47.015625 41.890625 
L 44.1875 37.109375 
L 27.78125 47.015625 
L 27.78125 28.609375 
L 22.21875 28.609375 
L 22.21875 47.015625 
L 5.8125 37.109375 
L 2.984375 41.890625 
L 20.515625 51.421875 
L 2.984375 60.890625 
L 5.8125 65.71875 
L 22.21875 55.8125 
L 22.21875 74.21875 
L 27.78125 74.21875 
L 27.78125 55.8125 
L 44.1875 65.71875 
z
" id="DejaVuSans-42"/>
     </defs>
     <use transform="translate(0 0.09375)" xlink:href="#DejaVuSans-Oblique-86"/>
     <use transform="translate(68.408203 -16.3125)scale(0.7)" xlink:href="#DejaVuSans-42"/>
    </g>
   </g>
   <g id="text_2">
    <!-- $V_{b}$ -->
    <g transform="translate(123.5659 93.793437)scale(0.14 -0.14)">
     <defs>
      <path d="M 49.515625 33.40625 
Q 49.515625 40.484375 46.265625 44.484375 
Q 43.015625 48.484375 37.3125 48.484375 
Q 33.15625 48.484375 29.515625 46.453125 
Q 25.875 44.4375 23.1875 40.578125 
Q 20.359375 36.53125 18.71875 31.171875 
Q 17.09375 25.828125 17.09375 20.515625 
Q 17.09375 13.765625 20.28125 9.9375 
Q 23.484375 6.109375 29.109375 6.109375 
Q 33.34375 6.109375 36.953125 8.078125 
Q 40.578125 10.0625 43.3125 13.921875 
Q 46.09375 17.921875 47.796875 23.234375 
Q 49.515625 28.5625 49.515625 33.40625 
z
M 21.578125 46.390625 
Q 24.90625 50.875 29.90625 53.4375 
Q 34.90625 56 40.375 56 
Q 48.78125 56 53.734375 50.328125 
Q 58.6875 44.671875 58.6875 35.015625 
Q 58.6875 27.09375 55.78125 19.671875 
Q 52.875 12.25 47.515625 6.5 
Q 44 2.6875 39.40625 0.625 
Q 34.8125 -1.421875 29.78125 -1.421875 
Q 24.46875 -1.421875 20.5625 1.015625 
Q 16.65625 3.46875 14.203125 8.296875 
L 12.59375 0 
L 3.609375 0 
L 18.40625 75.984375 
L 27.390625 75.984375 
z
" id="DejaVuSans-Oblique-98"/>
     </defs>
     <use transform="translate(0 0.09375)" xlink:href="#DejaVuSans-Oblique-86"/>
     <use transform="translate(68.408203 -16.3125)scale(0.7)" xlink:href="#DejaVuSans-Oblique-98"/>
    </g>
   </g>
   <g id="text_3">
    <!-- $V_{1}$ -->
    <g transform="translate(161.8159 24.943437)scale(0.14 -0.14)">
     <defs>
      <path d="M 12.40625 8.296875 
L 28.515625 8.296875 
L 28.515625 63.921875 
L 10.984375 60.40625 
L 10.984375 69.390625 
L 28.421875 72.90625 
L 38.28125 72.90625 
L 38.28125 8.296875 
L 54.390625 8.296875 
L 54.390625 0 
L 12.40625 0 
z
" id="DejaVuSans-49"/>
     </defs>
     <use transform="translate(0 0.09375)" xlink:href="#DejaVuSans-Oblique-86"/>
     <use transform="translate(68.408203 -16.3125)scale(0.7)" xlink:href="#DejaVuSans-49"/>
    </g>
   </g>
   <g id="text_4">
    <!-- $V_{2}$ -->
    <g transform="translate(11.8759 24.943437)scale(0.14 -0.14)">
     <defs>
      <path d="M 19.1875 8.296875 
L 53.609375 8.296875 
L 53.609375 0 
L 7.328125 0 
L 7.328125 8.296875 
Q 12.9375 14.109375 22.625 23.890625 
Q 32.328125 33.6875 34.8125 36.53125 
Q 39.546875 41.84375 41.421875 45.53125 
Q 43.3125 49.21875 43.3125 52.78125 
Q 43.3125 58.59375 39.234375 62.25 
Q 35.15625 65.921875 28.609375 65.921875 
Q 23.96875 65.921875 18.8125 64.3125 
Q 13.671875 62.703125 7.8125 59.421875 
L 7.8125 69.390625 
Q 13.765625 71.78125 18.9375 73 
Q 24.125 74.21875 28.421875 74.21875 
Q 39.75 74.21875 46.484375 68.546875 
Q 53.21875 62.890625 53.21875 53.421875 
Q 53.21875 48.921875 51.53125 44.890625 
Q 49.859375 40.875 45.40625 35.40625 
Q 44.1875 33.984375 37.640625 27.21875 
Q 31.109375 20.453125 19.1875 8.296875 
z
" id="DejaVuSans-50"/>
     </defs>
     <use transform="translate(0 0.09375)" xlink:href="#DejaVuSans-Oblique-86"/>
     <use transform="translate(68.408203 -16.3125)scale(0.7)" xlink:href="#DejaVuSans-50"/>
    </g>
   </g>
  </g>
 </g>
 <defs>
  <clipPath id="pe01acc40c8">
   <rect height="140.454" width="178.5918" x="7.2" y="7.2"/>
  </clipPath>
 </defs>
</svg>
