<?xml version="1.0" encoding="utf-8" standalone="no"?>
<!DOCTYPE svg PUBLIC "-//W3C//DTD SVG 1.1//EN"
  "http://www.w3.org/Graphics/SVG/1.1/DTD/svg11.dtd">
<!-- Created with matplotlib (https://matplotlib.org/) -->
<svg height="300.544pt" version="1.1" viewBox="0 0 233.0472 300.544" width="233.0472pt" xmlns="http://www.w3.org/2000/svg" xmlns:xlink="http://www.w3.org/1999/xlink">
 <metadata>
  <rdf:RDF xmlns:cc="http://creativecommons.org/ns#" xmlns:dc="http://purl.org/dc/elements/1.1/" xmlns:rdf="http://www.w3.org/1999/02/22-rdf-syntax-ns#">
   <cc:Work>
    <dc:type rdf:resource="http://purl.org/dc/dcmitype/StillImage"/>
    <dc:date>2021-02-27T16:15:08.940032</dc:date>
    <dc:format>image/svg+xml</dc:format>
    <dc:creator>
     <cc:Agent>
      <dc:title>Matplotlib v3.3.4, https://matplotlib.org/</dc:title>
     </cc:Agent>
    </dc:creator>
   </cc:Work>
  </rdf:RDF>
 </metadata>
 <defs>
  <style type="text/css">*{stroke-linecap:butt;stroke-linejoin:round;}</style>
 </defs>
 <g id="figure_1">
  <g id="patch_1">
   <path d="M 0 300.544 
L 233.0472 300.544 
L 233.0472 0 
L 0 0 
z
" style="fill:none;"/>
  </g>
  <g id="axes_1">
   <g id="patch_2">
    <path clip-path="url(#p77baacf05a)" d="M 89.3508 240.1 
C 93.408407 240.1 97.300372 238.487895 100.169534 235.618734 
C 103.038695 232.749572 104.6508 228.857607 104.6508 224.8 
C 104.6508 220.742393 103.038695 216.850428 100.169534 213.981266 
C 97.300372 211.112105 93.408407 209.5 89.3508 209.5 
C 85.293193 209.5 81.401228 211.112105 78.532066 213.981266 
C 75.662905 216.850428 74.0508 220.742393 74.0508 224.8 
C 74.0508 228.857607 75.662905 232.749572 78.532066 235.618734 
C 81.401228 238.487895 85.293193 240.1 89.3508 240.1 
z
" style="fill:none;stroke:#000000;stroke-linejoin:miter;stroke-width:2;"/>
   </g>
   <g id="patch_3">
    <path clip-path="url(#p77baacf05a)" d="M 89.3508 232.45 
L 86.2908 226.33 
L 89.3355 226.33 
L 89.3355 217.15 
L 89.3661 217.15 
L 89.3661 226.33 
L 92.4108 226.33 
z
" style="stroke:#000000;stroke-width:2;"/>
   </g>
   <g id="patch_4">
    <path clip-path="url(#p77baacf05a)" d="M 34.7808 159.52 
C 35.727575 159.52 36.6357 159.143842 37.305171 158.474371 
C 37.974642 157.8049 38.3508 156.896775 38.3508 155.95 
C 38.3508 155.003225 37.974642 154.0951 37.305171 153.425629 
C 36.6357 152.756158 35.727575 152.38 34.7808 152.38 
C 33.834025 152.38 32.9259 152.756158 32.256429 153.425629 
C 31.586958 154.0951 31.2108 155.003225 31.2108 155.95 
C 31.2108 156.896775 31.586958 157.8049 32.256429 158.474371 
C 32.9259 159.143842 33.834025 159.52 34.7808 159.52 
z
" style="fill:none;stroke:#000000;stroke-linejoin:miter;stroke-width:2;"/>
   </g>
   <g id="patch_5">
    <path clip-path="url(#p77baacf05a)" d="M 46.0008 155.95 
L 52.1208 152.89 
L 52.1208 155.9347 
L 66.4008 155.9347 
L 66.4008 155.9653 
L 52.1208 155.9653 
L 52.1208 159.01 
z
" style="stroke:#000000;stroke-width:2;"/>
   </g>
   <g id="patch_6">
    <path clip-path="url(#p77baacf05a)" d="M 132.7008 155.95 
L 126.5808 159.01 
L 126.5808 155.9653 
L 112.3008 155.9653 
L 112.3008 155.9347 
L 126.5808 155.9347 
L 126.5808 152.89 
z
" style="stroke:#000000;stroke-width:2;"/>
   </g>
   <g id="line2d_1">
    <path clip-path="url(#p77baacf05a)" d="M 89.3508 178.9 
L 89.3508 209.5 
L 89.3508 209.5 
M 89.3508 240.1 
L 89.3508 240.1 
L 89.3508 270.7 
" style="fill:none;stroke:#000000;stroke-linecap:round;stroke-width:2;"/>
   </g>
   <g id="line2d_2">
    <path clip-path="url(#p77baacf05a)" d="M 89.3508 270.7 
L 89.3508 282.94 
L 81.7008 282.94 
L 97.0008 282.94 
M 83.9958 286.612 
L 94.7058 286.612 
M 87.8208 290.284 
L 90.8808 290.284 
" style="fill:none;stroke:#000000;stroke-linecap:round;stroke-width:2;"/>
   </g>
   <g id="line2d_3">
    <path clip-path="url(#p77baacf05a)" d="M 89.3508 178.9 
L 77.8758 178.9 
L 66.4008 178.9 
" style="fill:none;stroke:#000000;stroke-linecap:round;stroke-width:2;"/>
   </g>
   <g id="line2d_4">
    <path clip-path="url(#p77baacf05a)" d="M 66.4008 178.9 
L 66.4008 166.15 
L 46.0008 166.15 
L 46.0008 145.75 
L 66.4008 145.75 
L 66.4008 133 
" style="fill:none;stroke:#000000;stroke-linecap:round;stroke-width:2;"/>
   </g>
   <g id="line2d_5">
    <path clip-path="url(#p77baacf05a)" d="M 38.3508 166.15 
L 38.3508 145.75 
" style="fill:none;stroke:#000000;stroke-linecap:round;stroke-width:2;"/>
   </g>
   <g id="line2d_6">
    <path clip-path="url(#p77baacf05a)" d="M 31.2108 155.95 
L 22.0308 155.95 
" style="fill:none;stroke:#000000;stroke-linecap:round;stroke-width:2;"/>
   </g>
   <g id="line2d_7">
    <path clip-path="url(#p77baacf05a)" d="M 89.3508 178.9 
L 100.8258 178.9 
L 112.3008 178.9 
" style="fill:none;stroke:#000000;stroke-linecap:round;stroke-width:2;"/>
   </g>
   <g id="line2d_8">
    <path clip-path="url(#p77baacf05a)" d="M 112.3008 178.9 
L 112.3008 166.15 
L 132.7008 166.15 
L 132.7008 145.75 
L 112.3008 145.75 
L 112.3008 133 
" style="fill:none;stroke:#000000;stroke-linecap:round;stroke-width:2;"/>
   </g>
   <g id="line2d_9">
    <path clip-path="url(#p77baacf05a)" d="M 140.3508 166.15 
L 140.3508 145.75 
" style="fill:none;stroke:#000000;stroke-linecap:round;stroke-width:2;"/>
   </g>
   <g id="line2d_10">
    <path clip-path="url(#p77baacf05a)" d="M 140.3508 155.95 
L 156.6708 155.95 
" style="fill:none;stroke:#000000;stroke-linecap:round;stroke-width:2;"/>
   </g>
   <g id="line2d_11">
    <path clip-path="url(#p77baacf05a)" d="M 112.3008 133 
L 112.3008 102.4 
L 104.6508 99.85 
L 119.9508 94.75 
L 104.6508 89.65 
L 119.9508 84.55 
L 104.6508 79.45 
L 119.9508 74.35 
L 112.3008 71.8 
L 112.3008 41.2 
" style="fill:none;stroke:#000000;stroke-linecap:round;stroke-width:2;"/>
   </g>
   <g id="line2d_12">
    <path clip-path="url(#p77baacf05a)" d="M 112.3008 41.2 
L 100.8258 41.2 
L 89.3508 41.2 
" style="fill:none;stroke:#000000;stroke-linecap:round;stroke-width:2;"/>
   </g>
   <g id="line2d_13">
    <path clip-path="url(#p77baacf05a)" d="M 89.3508 41.2 
L 89.3508 28.96 
" style="fill:none;stroke:#000000;stroke-linecap:round;stroke-width:2;"/>
   </g>
   <g id="line2d_14">
    <path clip-path="url(#p77baacf05a)" d="M 89.3508 28.96 
L 83.6133 28.96 
" style="fill:none;stroke:#000000;stroke-linecap:round;stroke-width:2;"/>
   </g>
   <g id="line2d_15">
    <path clip-path="url(#p77baacf05a)" d="M 89.3508 28.96 
L 95.0883 28.96 
" style="fill:none;stroke:#000000;stroke-linecap:round;stroke-width:2;"/>
   </g>
   <g id="line2d_16">
    <path clip-path="url(#p77baacf05a)" d="M 66.4008 133 
L 66.4008 87.1 
L 66.4008 41.2 
" style="fill:none;stroke:#000000;stroke-linecap:round;stroke-width:2;"/>
   </g>
   <g id="line2d_17">
    <path clip-path="url(#p77baacf05a)" d="M 66.4008 41.2 
L 77.8758 41.2 
L 89.3508 41.2 
" style="fill:none;stroke:#000000;stroke-linecap:round;stroke-width:2;"/>
   </g>
   <g id="line2d_18">
    <path clip-path="url(#p77baacf05a)" d="M 112.3008 133 
L 146.7258 133 
L 181.1508 133 
" style="fill:none;stroke:#000000;stroke-linecap:round;stroke-width:2;"/>
   </g>
   <g id="line2d_19">
    <path clip-path="url(#p77baacf05a)" d="M 181.1508 133 
L 181.1508 199.096 
M 188.8008 199.096 
L 173.5008 199.096 
M 188.8008 204.604 
L 173.5008 204.604 
M 181.1508 204.604 
L 181.1508 270.7 
" style="fill:none;stroke:#000000;stroke-linecap:round;stroke-width:2;"/>
   </g>
   <g id="line2d_20">
    <path clip-path="url(#p77baacf05a)" d="M 181.1508 270.7 
L 135.2508 270.7 
L 89.3508 270.7 
" style="fill:none;stroke:#000000;stroke-linecap:round;stroke-width:2;"/>
   </g>
   <g id="line2d_21">
    <path clip-path="url(#p77baacf05a)" d="M 66.4008 155.95 
L 70.2258 155.95 
L 74.0508 155.95 
" style="fill:none;stroke:#000000;stroke-linecap:round;stroke-width:2;"/>
   </g>
   <g id="line2d_22">
    <path clip-path="url(#p77baacf05a)" d="M 74.0508 155.95 
L 74.0508 144.475 
L 74.0508 133 
" style="fill:none;stroke:#000000;stroke-linecap:round;stroke-width:2;"/>
   </g>
   <g id="line2d_23">
    <path clip-path="url(#p77baacf05a)" d="M 74.0508 133 
L 70.2258 133 
L 66.4008 133 
" style="fill:none;stroke:#000000;stroke-linecap:round;stroke-width:2;"/>
   </g>
   <g id="line2d_24">
    <path clip-path="url(#p77baacf05a)" d="M 112.3008 155.95 
L 108.4758 155.95 
L 104.6508 155.95 
" style="fill:none;stroke:#000000;stroke-linecap:round;stroke-width:2;"/>
   </g>
   <g id="line2d_25">
    <path clip-path="url(#p77baacf05a)" d="M 104.6508 155.95 
L 104.6508 167.425 
L 104.6508 178.9 
" style="fill:none;stroke:#000000;stroke-linecap:round;stroke-width:2;"/>
   </g>
   <g id="line2d_26">
    <path clip-path="url(#p77baacf05a)" d="M 181.1508 133 
L 192.6258 133 
L 204.1008 133 
" style="fill:none;stroke:#000000;stroke-linecap:round;stroke-width:2;"/>
   </g>
   <g id="text_1">
    <!-- $I_{b}$ -->
    <g transform="translate(60.2108 228.663125)scale(0.14 -0.14)">
     <defs>
      <path d="M 16.890625 72.90625 
L 26.8125 72.90625 
L 12.59375 0 
L 2.6875 0 
z
" id="DejaVuSans-Oblique-73"/>
      <path d="M 49.515625 33.40625 
Q 49.515625 40.484375 46.265625 44.484375 
Q 43.015625 48.484375 37.3125 48.484375 
Q 33.15625 48.484375 29.515625 46.453125 
Q 25.875 44.4375 23.1875 40.578125 
Q 20.359375 36.53125 18.71875 31.171875 
Q 17.09375 25.828125 17.09375 20.515625 
Q 17.09375 13.765625 20.28125 9.9375 
Q 23.484375 6.109375 29.109375 6.109375 
Q 33.34375 6.109375 36.953125 8.078125 
Q 40.578125 10.0625 43.3125 13.921875 
Q 46.09375 17.921875 47.796875 23.234375 
Q 49.515625 28.5625 49.515625 33.40625 
z
M 21.578125 46.390625 
Q 24.90625 50.875 29.90625 53.4375 
Q 34.90625 56 40.375 56 
Q 48.78125 56 53.734375 50.328125 
Q 58.6875 44.671875 58.6875 35.015625 
Q 58.6875 27.09375 55.78125 19.671875 
Q 52.875 12.25 47.515625 6.5 
Q 44 2.6875 39.40625 0.625 
Q 34.8125 -1.421875 29.78125 -1.421875 
Q 24.46875 -1.421875 20.5625 1.015625 
Q 16.65625 3.46875 14.203125 8.296875 
L 12.59375 0 
L 3.609375 0 
L 18.40625 75.984375 
L 27.390625 75.984375 
z
" id="DejaVuSans-Oblique-98"/>
     </defs>
     <use transform="translate(0 0.09375)" xlink:href="#DejaVuSans-Oblique-73"/>
     <use transform="translate(29.492188 -16.3125)scale(0.7)" xlink:href="#DejaVuSans-Oblique-98"/>
    </g>
   </g>
   <g id="text_2">
    <!-- $R_{L}$ -->
    <g transform="translate(85.9108 90.963125)scale(0.14 -0.14)">
     <defs>
      <path d="M 25.203125 64.796875 
L 20.21875 38.921875 
L 32.90625 38.921875 
Q 40.375 38.921875 44.984375 43.046875 
Q 49.609375 47.171875 49.609375 53.8125 
Q 49.609375 59.125 46.5 61.953125 
Q 43.40625 64.796875 37.59375 64.796875 
z
M 43.3125 35.015625 
Q 46.4375 34.28125 48.515625 31.390625 
Q 50.59375 28.515625 53.328125 19.921875 
L 59.515625 0 
L 49.125 0 
L 43.40625 18.703125 
Q 41.21875 25.921875 38.328125 28.359375 
Q 35.453125 30.8125 29.5 30.8125 
L 18.609375 30.8125 
L 12.59375 0 
L 2.6875 0 
L 16.890625 72.90625 
L 39.109375 72.90625 
Q 49.21875 72.90625 54.609375 68.328125 
Q 60.015625 63.765625 60.015625 55.171875 
Q 60.015625 47.5625 55.421875 41.984375 
Q 50.828125 36.421875 43.3125 35.015625 
z
" id="DejaVuSans-Oblique-82"/>
      <path d="M 16.796875 72.90625 
L 26.703125 72.90625 
L 14.203125 8.203125 
L 49.703125 8.203125 
L 48.09375 0 
L 2.6875 0 
z
" id="DejaVuSans-Oblique-76"/>
     </defs>
     <use transform="translate(0 0.09375)" xlink:href="#DejaVuSans-Oblique-82"/>
     <use transform="translate(69.482422 -16.3125)scale(0.7)" xlink:href="#DejaVuSans-Oblique-76"/>
    </g>
   </g>
   <g id="text_3">
    <!-- $V_{dd}$ -->
    <g transform="translate(78.0808 22.988437)scale(0.14 -0.14)">
     <defs>
      <path d="M 20.609375 0 
L 7.8125 72.90625 
L 17.484375 72.90625 
L 28.078125 10.203125 
L 63.484375 72.90625 
L 74.21875 72.90625 
L 32.078125 0 
z
" id="DejaVuSans-Oblique-86"/>
      <path d="M 41.796875 8.203125 
Q 38.1875 3.46875 33.25 1.015625 
Q 28.328125 -1.421875 22.3125 -1.421875 
Q 14.109375 -1.421875 9.34375 4.171875 
Q 4.59375 9.765625 4.59375 19.484375 
Q 4.59375 27.59375 7.46875 34.9375 
Q 10.359375 42.28125 15.828125 48.09375 
Q 19.4375 51.953125 23.96875 53.96875 
Q 28.515625 56 33.5 56 
Q 38.765625 56 42.796875 53.453125 
Q 46.828125 50.921875 49.03125 46.1875 
L 54.890625 75.984375 
L 63.921875 75.984375 
L 49.125 0 
L 40.09375 0 
z
M 13.921875 21.09375 
Q 13.921875 14.015625 17.109375 10.0625 
Q 20.3125 6.109375 25.984375 6.109375 
Q 30.171875 6.109375 33.765625 8.125 
Q 37.359375 10.15625 40.09375 14.109375 
Q 42.96875 18.21875 44.625 23.578125 
Q 46.296875 28.953125 46.296875 34.1875 
Q 46.296875 40.96875 43.09375 44.765625 
Q 39.890625 48.578125 34.28125 48.578125 
Q 30.03125 48.578125 26.359375 46.578125 
Q 22.703125 44.578125 20.125 40.828125 
Q 17.28125 36.765625 15.59375 31.390625 
Q 13.921875 26.03125 13.921875 21.09375 
z
" id="DejaVuSans-Oblique-100"/>
     </defs>
     <use transform="translate(0 0.09375)" xlink:href="#DejaVuSans-Oblique-86"/>
     <use transform="translate(68.408203 -16.3125)scale(0.7)" xlink:href="#DejaVuSans-Oblique-100"/>
     <use transform="translate(112.841797 -16.3125)scale(0.7)" xlink:href="#DejaVuSans-Oblique-100"/>
    </g>
   </g>
   <g id="text_4">
    <!-- $C_{L}$ -->
    <g transform="translate(154.7608 205.713125)scale(0.14 -0.14)">
     <defs>
      <path d="M 69.484375 67.28125 
L 67.484375 56.890625 
Q 62.796875 61.625 57.546875 63.921875 
Q 52.296875 66.21875 46.1875 66.21875 
Q 37.84375 66.21875 31.515625 62.203125 
Q 25.203125 58.203125 20.609375 50 
Q 17.671875 44.734375 16.125 38.84375 
Q 14.59375 32.953125 14.59375 27 
Q 14.59375 17.046875 19.75 11.8125 
Q 24.90625 6.59375 34.71875 6.59375 
Q 41.5 6.59375 47.75 8.765625 
Q 54 10.9375 59.90625 15.28125 
L 57.625 3.609375 
Q 51.8125 1.125 45.875 -0.140625 
Q 39.9375 -1.421875 33.984375 -1.421875 
Q 19.96875 -1.421875 12.078125 6.1875 
Q 4.203125 13.8125 4.203125 27.390625 
Q 4.203125 36.078125 7.203125 44.46875 
Q 10.203125 52.875 15.828125 59.8125 
Q 21.78125 67.1875 29.421875 70.703125 
Q 37.0625 74.21875 47.21875 74.21875 
Q 53.46875 74.21875 59.0625 72.484375 
Q 64.65625 70.75 69.484375 67.28125 
z
" id="DejaVuSans-Oblique-67"/>
     </defs>
     <use transform="translate(0 0.78125)" xlink:href="#DejaVuSans-Oblique-67"/>
     <use transform="translate(69.824219 -15.625)scale(0.7)" xlink:href="#DejaVuSans-Oblique-76"/>
    </g>
   </g>
   <g id="patch_7">
    <path clip-path="url(#p77baacf05a)" d="M 89.3508 181.195 
C 89.959441 181.195 90.543236 180.953184 90.97361 180.52281 
C 91.403984 180.092436 91.6458 179.508641 91.6458 178.9 
C 91.6458 178.291359 91.403984 177.707564 90.97361 177.27719 
C 90.543236 176.846816 89.959441 176.605 89.3508 176.605 
C 88.742159 176.605 88.158364 176.846816 87.72799 177.27719 
C 87.297616 177.707564 87.0558 178.291359 87.0558 178.9 
C 87.0558 179.508641 87.297616 180.092436 87.72799 180.52281 
C 88.158364 180.953184 88.742159 181.195 89.3508 181.195 
z
" style="stroke:#000000;stroke-linejoin:miter;stroke-width:2;"/>
   </g>
   <g id="patch_8">
    <path clip-path="url(#p77baacf05a)" d="M 181.1508 135.295 
C 181.759441 135.295 182.343236 135.053184 182.77361 134.62281 
C 183.203984 134.192436 183.4458 133.608641 183.4458 133 
C 183.4458 132.391359 183.203984 131.807564 182.77361 131.37719 
C 182.343236 130.946816 181.759441 130.705 181.1508 130.705 
C 180.542159 130.705 179.958364 130.946816 179.52799 131.37719 
C 179.097616 131.807564 178.8558 132.391359 178.8558 133 
C 178.8558 133.608641 179.097616 134.192436 179.52799 134.62281 
C 179.958364 135.053184 180.542159 135.295 181.1508 135.295 
z
" style="stroke:#000000;stroke-linejoin:miter;stroke-width:2;"/>
   </g>
   <g id="patch_9">
    <path clip-path="url(#p77baacf05a)" d="M 89.3508 272.995 
C 89.959441 272.995 90.543236 272.753184 90.97361 272.32281 
C 91.403984 271.892436 91.6458 271.308641 91.6458 270.7 
C 91.6458 270.091359 91.403984 269.507564 90.97361 269.07719 
C 90.543236 268.646816 89.959441 268.405 89.3508 268.405 
C 88.742159 268.405 88.158364 268.646816 87.72799 269.07719 
C 87.297616 269.507564 87.0558 270.091359 87.0558 270.7 
C 87.0558 271.308641 87.297616 271.892436 87.72799 272.32281 
C 88.158364 272.753184 88.742159 272.995 89.3508 272.995 
z
" style="stroke:#000000;stroke-linejoin:miter;stroke-width:2;"/>
   </g>
   <g id="patch_10">
    <path clip-path="url(#p77baacf05a)" d="M 22.0308 158.245 
C 22.639441 158.245 23.223236 158.003184 23.65361 157.57281 
C 24.083984 157.142436 24.3258 156.558641 24.3258 155.95 
C 24.3258 155.341359 24.083984 154.757564 23.65361 154.32719 
C 23.223236 153.896816 22.639441 153.655 22.0308 153.655 
C 21.422159 153.655 20.838364 153.896816 20.40799 154.32719 
C 19.977616 154.757564 19.7358 155.341359 19.7358 155.95 
C 19.7358 156.558641 19.977616 157.142436 20.40799 157.57281 
C 20.838364 158.003184 21.422159 158.245 22.0308 158.245 
z
" style="fill:#ffffff;stroke:#000000;stroke-linejoin:miter;stroke-width:2;"/>
   </g>
   <g id="patch_11">
    <path clip-path="url(#p77baacf05a)" d="M 156.6708 158.245 
C 157.279441 158.245 157.863236 158.003184 158.29361 157.57281 
C 158.723984 157.142436 158.9658 156.558641 158.9658 155.95 
C 158.9658 155.341359 158.723984 154.757564 158.29361 154.32719 
C 157.863236 153.896816 157.279441 153.655 156.6708 153.655 
C 156.062159 153.655 155.478364 153.896816 155.04799 154.32719 
C 154.617616 154.757564 154.3758 155.341359 154.3758 155.95 
C 154.3758 156.558641 154.617616 157.142436 155.04799 157.57281 
C 155.478364 158.003184 156.062159 158.245 156.6708 158.245 
z
" style="fill:#ffffff;stroke:#000000;stroke-linejoin:miter;stroke-width:2;"/>
   </g>
   <g id="patch_12">
    <path clip-path="url(#p77baacf05a)" d="M 204.1008 135.295 
C 204.709441 135.295 205.293236 135.053184 205.72361 134.62281 
C 206.153984 134.192436 206.3958 133.608641 206.3958 133 
C 206.3958 132.391359 206.153984 131.807564 205.72361 131.37719 
C 205.293236 130.946816 204.709441 130.705 204.1008 130.705 
C 203.492159 130.705 202.908364 130.946816 202.47799 131.37719 
C 202.047616 131.807564 201.8058 132.391359 201.8058 133 
C 201.8058 133.608641 202.047616 134.192436 202.47799 134.62281 
C 202.908364 135.053184 203.492159 135.295 204.1008 135.295 
z
" style="fill:#ffffff;stroke:#000000;stroke-linejoin:miter;stroke-width:2;"/>
   </g>
   <g id="text_5">
    <!-- $V_{*}$ -->
    <g transform="translate(81.8608 170.633437)scale(0.14 -0.14)">
     <defs>
      <path d="M 47.015625 60.890625 
L 29.5 51.421875 
L 47.015625 41.890625 
L 44.1875 37.109375 
L 27.78125 47.015625 
L 27.78125 28.609375 
L 22.21875 28.609375 
L 22.21875 47.015625 
L 5.8125 37.109375 
L 2.984375 41.890625 
L 20.515625 51.421875 
L 2.984375 60.890625 
L 5.8125 65.71875 
L 22.21875 55.8125 
L 22.21875 74.21875 
L 27.78125 74.21875 
L 27.78125 55.8125 
L 44.1875 65.71875 
z
" id="DejaVuSans-42"/>
     </defs>
     <use transform="translate(0 0.09375)" xlink:href="#DejaVuSans-Oblique-86"/>
     <use transform="translate(68.408203 -16.3125)scale(0.7)" xlink:href="#DejaVuSans-42"/>
    </g>
   </g>
   <g id="text_6">
    <!-- $V_{in}$ -->
    <g transform="translate(12.5808 147.683437)scale(0.14 -0.14)">
     <defs>
      <path d="M 18.3125 75.984375 
L 27.296875 75.984375 
L 25.09375 64.59375 
L 16.109375 64.59375 
z
M 14.203125 54.6875 
L 23.1875 54.6875 
L 12.5 0 
L 3.515625 0 
z
" id="DejaVuSans-Oblique-105"/>
      <path d="M 55.71875 33.015625 
L 49.3125 0 
L 40.28125 0 
L 46.6875 32.671875 
Q 47.125 34.96875 47.359375 36.71875 
Q 47.609375 38.484375 47.609375 39.5 
Q 47.609375 43.609375 45.015625 45.890625 
Q 42.4375 48.1875 37.796875 48.1875 
Q 30.5625 48.1875 25.34375 43.375 
Q 20.125 38.578125 18.5 30.328125 
L 12.5 0 
L 3.515625 0 
L 14.109375 54.6875 
L 23.09375 54.6875 
L 21.296875 46.09375 
Q 25.046875 50.828125 30.3125 53.40625 
Q 35.59375 56 41.40625 56 
Q 48.640625 56 52.609375 52.09375 
Q 56.59375 48.1875 56.59375 41.109375 
Q 56.59375 39.359375 56.375 37.359375 
Q 56.15625 35.359375 55.71875 33.015625 
z
" id="DejaVuSans-Oblique-110"/>
     </defs>
     <use transform="translate(0 0.09375)" xlink:href="#DejaVuSans-Oblique-86"/>
     <use transform="translate(68.408203 -16.3125)scale(0.7)" xlink:href="#DejaVuSans-Oblique-105"/>
     <use transform="translate(87.856445 -16.3125)scale(0.7)" xlink:href="#DejaVuSans-Oblique-110"/>
    </g>
   </g>
   <g id="text_7">
    <!-- $V_{b}$ -->
    <g transform="translate(148.5508 147.683437)scale(0.14 -0.14)">
     <use transform="translate(0 0.09375)" xlink:href="#DejaVuSans-Oblique-86"/>
     <use transform="translate(68.408203 -16.3125)scale(0.7)" xlink:href="#DejaVuSans-Oblique-98"/>
    </g>
   </g>
   <g id="text_8">
    <!-- $V_{out}$ -->
    <g transform="translate(191.0808 124.733437)scale(0.14 -0.14)">
     <defs>
      <path d="M 25.390625 -1.421875 
Q 15.765625 -1.421875 10.171875 4.515625 
Q 4.59375 10.453125 4.59375 20.703125 
Q 4.59375 26.65625 6.515625 32.828125 
Q 8.453125 39.015625 11.53125 43.21875 
Q 16.359375 49.75 22.3125 52.875 
Q 28.265625 56 35.796875 56 
Q 45.125 56 50.859375 50.1875 
Q 56.59375 44.390625 56.59375 35.015625 
Q 56.59375 28.515625 54.6875 22.0625 
Q 52.78125 15.625 49.703125 11.375 
Q 44.921875 4.828125 38.96875 1.703125 
Q 33.015625 -1.421875 25.390625 -1.421875 
z
M 13.921875 21 
Q 13.921875 13.578125 17.015625 9.890625 
Q 20.125 6.203125 26.421875 6.203125 
Q 35.453125 6.203125 41.375 14.078125 
Q 47.3125 21.96875 47.3125 34.078125 
Q 47.3125 41.15625 44.140625 44.765625 
Q 40.96875 48.390625 34.8125 48.390625 
Q 29.734375 48.390625 25.78125 46.015625 
Q 21.828125 43.65625 18.703125 38.8125 
Q 16.40625 35.203125 15.15625 30.5625 
Q 13.921875 25.921875 13.921875 21 
z
" id="DejaVuSans-Oblique-111"/>
      <path d="M 6.6875 21.6875 
L 13.09375 54.6875 
L 22.125 54.6875 
L 15.71875 22.015625 
Q 15.234375 19.625 15.015625 17.921875 
Q 14.796875 16.21875 14.796875 15.09375 
Q 14.796875 10.9375 17.328125 8.65625 
Q 19.875 6.390625 24.515625 6.390625 
Q 31.734375 6.390625 37 11.265625 
Q 42.28125 16.15625 43.890625 24.421875 
L 49.90625 54.6875 
L 58.890625 54.6875 
L 48.296875 0 
L 39.3125 0 
L 41.109375 8.59375 
Q 37.3125 3.8125 32.0625 1.1875 
Q 26.8125 -1.421875 20.90625 -1.421875 
Q 13.71875 -1.421875 9.71875 2.515625 
Q 5.71875 6.453125 5.71875 13.484375 
Q 5.71875 14.9375 5.953125 17.140625 
Q 6.203125 19.34375 6.6875 21.6875 
z
" id="DejaVuSans-Oblique-117"/>
      <path d="M 42.28125 54.6875 
L 40.921875 47.703125 
L 23 47.703125 
L 17.1875 18.015625 
Q 16.890625 16.359375 16.75 15.234375 
Q 16.609375 14.109375 16.609375 13.484375 
Q 16.609375 10.359375 18.484375 8.9375 
Q 20.359375 7.515625 24.515625 7.515625 
L 33.59375 7.515625 
L 32.078125 0 
L 23.484375 0 
Q 15.484375 0 11.546875 3.125 
Q 7.625 6.25 7.625 12.59375 
Q 7.625 13.71875 7.765625 15.0625 
Q 7.90625 16.40625 8.203125 18.015625 
L 14.015625 47.703125 
L 6.390625 47.703125 
L 7.8125 54.6875 
L 15.28125 54.6875 
L 18.3125 70.21875 
L 27.296875 70.21875 
L 24.3125 54.6875 
z
" id="DejaVuSans-Oblique-116"/>
     </defs>
     <use transform="translate(0 0.09375)" xlink:href="#DejaVuSans-Oblique-86"/>
     <use transform="translate(68.408203 -16.3125)scale(0.7)" xlink:href="#DejaVuSans-Oblique-111"/>
     <use transform="translate(111.235352 -16.3125)scale(0.7)" xlink:href="#DejaVuSans-Oblique-117"/>
     <use transform="translate(155.600586 -16.3125)scale(0.7)" xlink:href="#DejaVuSans-Oblique-116"/>
    </g>
   </g>
  </g>
 </g>
 <defs>
  <clipPath id="p77baacf05a">
   <rect height="286.144" width="218.6472" x="7.2" y="7.2"/>
  </clipPath>
 </defs>
</svg>
