<?xml version="1.0" encoding="utf-8" standalone="no"?>
<!DOCTYPE svg PUBLIC "-//W3C//DTD SVG 1.1//EN"
  "http://www.w3.org/Graphics/SVG/1.1/DTD/svg11.dtd">
<!-- Created with matplotlib (https://matplotlib.org/) -->
<svg height="254.644pt" version="1.1" viewBox="0 0 275.8158 254.644" width="275.8158pt" xmlns="http://www.w3.org/2000/svg" xmlns:xlink="http://www.w3.org/1999/xlink">
 <metadata>
  <rdf:RDF xmlns:cc="http://creativecommons.org/ns#" xmlns:dc="http://purl.org/dc/elements/1.1/" xmlns:rdf="http://www.w3.org/1999/02/22-rdf-syntax-ns#">
   <cc:Work>
    <dc:type rdf:resource="http://purl.org/dc/dcmitype/StillImage"/>
    <dc:date>2021-02-27T15:27:40.146594</dc:date>
    <dc:format>image/svg+xml</dc:format>
    <dc:creator>
     <cc:Agent>
      <dc:title>Matplotlib v3.3.4, https://matplotlib.org/</dc:title>
     </cc:Agent>
    </dc:creator>
   </cc:Work>
  </rdf:RDF>
 </metadata>
 <defs>
  <style type="text/css">*{stroke-linecap:butt;stroke-linejoin:round;}</style>
 </defs>
 <g id="figure_1">
  <g id="patch_1">
   <path d="M 0 254.644 
L 275.8158 254.644 
L 275.8158 0 
L 0 0 
z
" style="fill:none;"/>
  </g>
  <g id="axes_1">
   <g id="patch_2">
    <path clip-path="url(#padeeab2fdd)" d="M 93.0279 133 
L 99.1479 129.94 
L 99.1479 132.9847 
L 113.4279 132.9847 
L 113.4279 133.0153 
L 99.1479 133.0153 
L 99.1479 136.06 
z
" style="stroke:#000000;stroke-width:2;"/>
   </g>
   <g id="patch_3">
    <path clip-path="url(#padeeab2fdd)" d="M 81.8079 67.72 
C 82.754675 67.72 83.6628 67.343842 84.332271 66.674371 
C 85.001742 66.0049 85.3779 65.096775 85.3779 64.15 
C 85.3779 63.203225 85.001742 62.2951 84.332271 61.625629 
C 83.6628 60.956158 82.754675 60.58 81.8079 60.58 
C 80.861125 60.58 79.953 60.956158 79.283529 61.625629 
C 78.614058 62.2951 78.2379 63.203225 78.2379 64.15 
C 78.2379 65.096775 78.614058 66.0049 79.283529 66.674371 
C 79.953 67.343842 80.861125 67.72 81.8079 67.72 
z
" style="fill:none;stroke:#000000;stroke-linejoin:miter;stroke-width:2;"/>
   </g>
   <g id="patch_4">
    <path clip-path="url(#padeeab2fdd)" d="M 190.9479 67.72 
C 191.894675 67.72 192.8028 67.343842 193.472271 66.674371 
C 194.141742 66.0049 194.5179 65.096775 194.5179 64.15 
C 194.5179 63.203225 194.141742 62.2951 193.472271 61.625629 
C 192.8028 60.956158 191.894675 60.58 190.9479 60.58 
C 190.001125 60.58 189.093 60.956158 188.423529 61.625629 
C 187.754058 62.2951 187.3779 63.203225 187.3779 64.15 
C 187.3779 65.096775 187.754058 66.0049 188.423529 66.674371 
C 189.093 67.343842 190.001125 67.72 190.9479 67.72 
z
" style="fill:none;stroke:#000000;stroke-linejoin:miter;stroke-width:2;"/>
   </g>
   <g id="patch_5">
    <path clip-path="url(#padeeab2fdd)" d="M 179.7279 133 
L 173.6079 136.06 
L 173.6079 133.0153 
L 159.3279 133.0153 
L 159.3279 132.9847 
L 173.6079 132.9847 
L 173.6079 129.94 
z
" style="stroke:#000000;stroke-width:2;"/>
   </g>
   <g id="line2d_1">
    <path clip-path="url(#padeeab2fdd)" d="M 136.3779 178.9 
L 136.3779 191.65 
L 156.7779 191.65 
L 156.7779 212.05 
L 136.3779 212.05 
L 136.3779 224.8 
" style="fill:none;stroke:#000000;stroke-linecap:round;stroke-width:2;"/>
   </g>
   <g id="line2d_2">
    <path clip-path="url(#padeeab2fdd)" d="M 164.4279 191.65 
L 164.4279 212.05 
" style="fill:none;stroke:#000000;stroke-linecap:round;stroke-width:2;"/>
   </g>
   <g id="line2d_3">
    <path clip-path="url(#padeeab2fdd)" d="M 164.4279 201.85 
L 180.7479 201.85 
" style="fill:none;stroke:#000000;stroke-linecap:round;stroke-width:2;"/>
   </g>
   <g id="line2d_4">
    <path clip-path="url(#padeeab2fdd)" d="M 136.3779 224.8 
L 136.3779 237.04 
L 128.7279 237.04 
L 144.0279 237.04 
M 131.0229 240.712 
L 141.7329 240.712 
M 134.8479 244.384 
L 137.9079 244.384 
" style="fill:none;stroke:#000000;stroke-linecap:round;stroke-width:2;"/>
   </g>
   <g id="line2d_5">
    <path clip-path="url(#padeeab2fdd)" d="M 136.3779 178.9 
L 136.3779 167.425 
L 136.3779 155.95 
" style="fill:none;stroke:#000000;stroke-linecap:round;stroke-width:2;"/>
   </g>
   <g id="line2d_6">
    <path clip-path="url(#padeeab2fdd)" d="M 136.3779 155.95 
L 124.9029 155.95 
L 113.4279 155.95 
" style="fill:none;stroke:#000000;stroke-linecap:round;stroke-width:2;"/>
   </g>
   <g id="line2d_7">
    <path clip-path="url(#padeeab2fdd)" d="M 113.4279 155.95 
L 113.4279 143.2 
L 93.0279 143.2 
L 93.0279 122.8 
L 113.4279 122.8 
L 113.4279 110.05 
" style="fill:none;stroke:#000000;stroke-linecap:round;stroke-width:2;"/>
   </g>
   <g id="line2d_8">
    <path clip-path="url(#padeeab2fdd)" d="M 85.3779 143.2 
L 85.3779 122.8 
" style="fill:none;stroke:#000000;stroke-linecap:round;stroke-width:2;"/>
   </g>
   <g id="line2d_9">
    <path clip-path="url(#padeeab2fdd)" d="M 85.3779 133 
L 69.0579 133 
" style="fill:none;stroke:#000000;stroke-linecap:round;stroke-width:2;"/>
   </g>
   <g id="line2d_10">
    <path clip-path="url(#padeeab2fdd)" d="M 113.4279 110.05 
L 113.4279 98.575 
L 113.4279 87.1 
" style="fill:none;stroke:#000000;stroke-linecap:round;stroke-width:2;"/>
   </g>
   <g id="line2d_11">
    <path clip-path="url(#padeeab2fdd)" d="M 113.4279 87.1 
L 71.3529 87.1 
L 29.2779 87.1 
" style="fill:none;stroke:#000000;stroke-linecap:round;stroke-width:2;"/>
   </g>
   <g id="line2d_12">
    <path clip-path="url(#padeeab2fdd)" d="M 113.4279 87.1 
L 113.4279 74.35 
L 93.0279 74.35 
L 93.0279 53.95 
L 113.4279 53.95 
L 113.4279 41.2 
" style="fill:none;stroke:#000000;stroke-linecap:round;stroke-width:2;"/>
   </g>
   <g id="line2d_13">
    <path clip-path="url(#padeeab2fdd)" d="M 85.3779 74.35 
L 85.3779 53.95 
" style="fill:none;stroke:#000000;stroke-linecap:round;stroke-width:2;"/>
   </g>
   <g id="line2d_14">
    <path clip-path="url(#padeeab2fdd)" d="M 78.2379 64.15 
L 69.0579 64.15 
" style="fill:none;stroke:#000000;stroke-linecap:round;stroke-width:2;"/>
   </g>
   <g id="line2d_15">
    <path clip-path="url(#padeeab2fdd)" d="M 113.4279 41.2 
L 124.9029 41.2 
L 136.3779 41.2 
" style="fill:none;stroke:#000000;stroke-linecap:round;stroke-width:2;"/>
   </g>
   <g id="line2d_16">
    <path clip-path="url(#padeeab2fdd)" d="M 136.3779 41.2 
L 136.3779 28.96 
" style="fill:none;stroke:#000000;stroke-linecap:round;stroke-width:2;"/>
   </g>
   <g id="line2d_17">
    <path clip-path="url(#padeeab2fdd)" d="M 136.3779 28.96 
L 130.6404 28.96 
" style="fill:none;stroke:#000000;stroke-linecap:round;stroke-width:2;"/>
   </g>
   <g id="line2d_18">
    <path clip-path="url(#padeeab2fdd)" d="M 136.3779 28.96 
L 142.1154 28.96 
" style="fill:none;stroke:#000000;stroke-linecap:round;stroke-width:2;"/>
   </g>
   <g id="line2d_19">
    <path clip-path="url(#padeeab2fdd)" d="M 136.3779 41.2 
L 147.8529 41.2 
L 159.3279 41.2 
" style="fill:none;stroke:#000000;stroke-linecap:round;stroke-width:2;"/>
   </g>
   <g id="line2d_20">
    <path clip-path="url(#padeeab2fdd)" d="M 159.3279 41.2 
L 159.3279 53.95 
L 179.7279 53.95 
L 179.7279 74.35 
L 159.3279 74.35 
L 159.3279 87.1 
" style="fill:none;stroke:#000000;stroke-linecap:round;stroke-width:2;"/>
   </g>
   <g id="line2d_21">
    <path clip-path="url(#padeeab2fdd)" d="M 187.3779 53.95 
L 187.3779 74.35 
" style="fill:none;stroke:#000000;stroke-linecap:round;stroke-width:2;"/>
   </g>
   <g id="line2d_22">
    <path clip-path="url(#padeeab2fdd)" d="M 194.5179 64.15 
L 203.6979 64.15 
" style="fill:none;stroke:#000000;stroke-linecap:round;stroke-width:2;"/>
   </g>
   <g id="line2d_23">
    <path clip-path="url(#padeeab2fdd)" d="M 159.3279 87.1 
L 201.4029 87.1 
L 243.4779 87.1 
" style="fill:none;stroke:#000000;stroke-linecap:round;stroke-width:2;"/>
   </g>
   <g id="line2d_24">
    <path clip-path="url(#padeeab2fdd)" d="M 159.3279 87.1 
L 159.3279 98.575 
L 159.3279 110.05 
" style="fill:none;stroke:#000000;stroke-linecap:round;stroke-width:2;"/>
   </g>
   <g id="line2d_25">
    <path clip-path="url(#padeeab2fdd)" d="M 159.3279 110.05 
L 159.3279 122.8 
L 179.7279 122.8 
L 179.7279 143.2 
L 159.3279 143.2 
L 159.3279 155.95 
" style="fill:none;stroke:#000000;stroke-linecap:round;stroke-width:2;"/>
   </g>
   <g id="line2d_26">
    <path clip-path="url(#padeeab2fdd)" d="M 187.3779 122.8 
L 187.3779 143.2 
" style="fill:none;stroke:#000000;stroke-linecap:round;stroke-width:2;"/>
   </g>
   <g id="line2d_27">
    <path clip-path="url(#padeeab2fdd)" d="M 187.3779 133 
L 203.6979 133 
" style="fill:none;stroke:#000000;stroke-linecap:round;stroke-width:2;"/>
   </g>
   <g id="line2d_28">
    <path clip-path="url(#padeeab2fdd)" d="M 159.3279 155.95 
L 147.8529 155.95 
L 136.3779 155.95 
" style="fill:none;stroke:#000000;stroke-linecap:round;stroke-width:2;"/>
   </g>
   <g id="line2d_29">
    <path clip-path="url(#padeeab2fdd)" d="M 113.4279 133 
L 117.2529 133 
L 121.0779 133 
" style="fill:none;stroke:#000000;stroke-linecap:round;stroke-width:2;"/>
   </g>
   <g id="line2d_30">
    <path clip-path="url(#padeeab2fdd)" d="M 121.0779 133 
L 121.0779 144.475 
L 121.0779 155.95 
" style="fill:none;stroke:#000000;stroke-linecap:round;stroke-width:2;"/>
   </g>
   <g id="line2d_31">
    <path clip-path="url(#padeeab2fdd)" d="M 159.3279 133 
L 155.5029 133 
L 151.6779 133 
" style="fill:none;stroke:#000000;stroke-linecap:round;stroke-width:2;"/>
   </g>
   <g id="line2d_32">
    <path clip-path="url(#padeeab2fdd)" d="M 151.6779 133 
L 151.6779 144.475 
L 151.6779 155.95 
" style="fill:none;stroke:#000000;stroke-linecap:round;stroke-width:2;"/>
   </g>
   <g id="text_1">
    <!-- $V_{dd}$ -->
    <g transform="translate(125.1079 22.988438)scale(0.14 -0.14)">
     <defs>
      <path d="M 20.609375 0 
L 7.8125 72.90625 
L 17.484375 72.90625 
L 28.078125 10.203125 
L 63.484375 72.90625 
L 74.21875 72.90625 
L 32.078125 0 
z
" id="DejaVuSans-Oblique-86"/>
      <path d="M 41.796875 8.203125 
Q 38.1875 3.46875 33.25 1.015625 
Q 28.328125 -1.421875 22.3125 -1.421875 
Q 14.109375 -1.421875 9.34375 4.171875 
Q 4.59375 9.765625 4.59375 19.484375 
Q 4.59375 27.59375 7.46875 34.9375 
Q 10.359375 42.28125 15.828125 48.09375 
Q 19.4375 51.953125 23.96875 53.96875 
Q 28.515625 56 33.5 56 
Q 38.765625 56 42.796875 53.453125 
Q 46.828125 50.921875 49.03125 46.1875 
L 54.890625 75.984375 
L 63.921875 75.984375 
L 49.125 0 
L 40.09375 0 
z
M 13.921875 21.09375 
Q 13.921875 14.015625 17.109375 10.0625 
Q 20.3125 6.109375 25.984375 6.109375 
Q 30.171875 6.109375 33.765625 8.125 
Q 37.359375 10.15625 40.09375 14.109375 
Q 42.96875 18.21875 44.625 23.578125 
Q 46.296875 28.953125 46.296875 34.1875 
Q 46.296875 40.96875 43.09375 44.765625 
Q 39.890625 48.578125 34.28125 48.578125 
Q 30.03125 48.578125 26.359375 46.578125 
Q 22.703125 44.578125 20.125 40.828125 
Q 17.28125 36.765625 15.59375 31.390625 
Q 13.921875 26.03125 13.921875 21.09375 
z
" id="DejaVuSans-Oblique-100"/>
     </defs>
     <use transform="translate(0 0.09375)" xlink:href="#DejaVuSans-Oblique-86"/>
     <use transform="translate(68.408203 -16.3125)scale(0.7)" xlink:href="#DejaVuSans-Oblique-100"/>
     <use transform="translate(112.841797 -16.3125)scale(0.7)" xlink:href="#DejaVuSans-Oblique-100"/>
    </g>
   </g>
   <g id="patch_6">
    <path clip-path="url(#padeeab2fdd)" d="M 136.3779 158.245 
C 136.986541 158.245 137.570336 158.003184 138.00071 157.57281 
C 138.431084 157.142436 138.6729 156.558641 138.6729 155.95 
C 138.6729 155.341359 138.431084 154.757564 138.00071 154.32719 
C 137.570336 153.896816 136.986541 153.655 136.3779 153.655 
C 135.769259 153.655 135.185464 153.896816 134.75509 154.32719 
C 134.324716 154.757564 134.0829 155.341359 134.0829 155.95 
C 134.0829 156.558641 134.324716 157.142436 134.75509 157.57281 
C 135.185464 158.003184 135.769259 158.245 136.3779 158.245 
z
" style="stroke:#000000;stroke-linejoin:miter;stroke-width:2;"/>
   </g>
   <g id="patch_7">
    <path clip-path="url(#padeeab2fdd)" d="M 113.4279 89.395 
C 114.036541 89.395 114.620336 89.153184 115.05071 88.72281 
C 115.481084 88.292436 115.7229 87.708641 115.7229 87.1 
C 115.7229 86.491359 115.481084 85.907564 115.05071 85.47719 
C 114.620336 85.046816 114.036541 84.805 113.4279 84.805 
C 112.819259 84.805 112.235464 85.046816 111.80509 85.47719 
C 111.374716 85.907564 111.1329 86.491359 111.1329 87.1 
C 111.1329 87.708641 111.374716 88.292436 111.80509 88.72281 
C 112.235464 89.153184 112.819259 89.395 113.4279 89.395 
z
" style="stroke:#000000;stroke-linejoin:miter;stroke-width:2;"/>
   </g>
   <g id="patch_8">
    <path clip-path="url(#padeeab2fdd)" d="M 29.2779 89.395 
C 29.886541 89.395 30.470336 89.153184 30.90071 88.72281 
C 31.331084 88.292436 31.5729 87.708641 31.5729 87.1 
C 31.5729 86.491359 31.331084 85.907564 30.90071 85.47719 
C 30.470336 85.046816 29.886541 84.805 29.2779 84.805 
C 28.669259 84.805 28.085464 85.046816 27.65509 85.47719 
C 27.224716 85.907564 26.9829 86.491359 26.9829 87.1 
C 26.9829 87.708641 27.224716 88.292436 27.65509 88.72281 
C 28.085464 89.153184 28.669259 89.395 29.2779 89.395 
z
" style="fill:#ffffff;stroke:#000000;stroke-linejoin:miter;stroke-width:2;"/>
   </g>
   <g id="patch_9">
    <path clip-path="url(#padeeab2fdd)" d="M 159.3279 89.395 
C 159.936541 89.395 160.520336 89.153184 160.95071 88.72281 
C 161.381084 88.292436 161.6229 87.708641 161.6229 87.1 
C 161.6229 86.491359 161.381084 85.907564 160.95071 85.47719 
C 160.520336 85.046816 159.936541 84.805 159.3279 84.805 
C 158.719259 84.805 158.135464 85.046816 157.70509 85.47719 
C 157.274716 85.907564 157.0329 86.491359 157.0329 87.1 
C 157.0329 87.708641 157.274716 88.292436 157.70509 88.72281 
C 158.135464 89.153184 158.719259 89.395 159.3279 89.395 
z
" style="stroke:#000000;stroke-linejoin:miter;stroke-width:2;"/>
   </g>
   <g id="patch_10">
    <path clip-path="url(#padeeab2fdd)" d="M 243.4779 89.395 
C 244.086541 89.395 244.670336 89.153184 245.10071 88.72281 
C 245.531084 88.292436 245.7729 87.708641 245.7729 87.1 
C 245.7729 86.491359 245.531084 85.907564 245.10071 85.47719 
C 244.670336 85.046816 244.086541 84.805 243.4779 84.805 
C 242.869259 84.805 242.285464 85.046816 241.85509 85.47719 
C 241.424716 85.907564 241.1829 86.491359 241.1829 87.1 
C 241.1829 87.708641 241.424716 88.292436 241.85509 88.72281 
C 242.285464 89.153184 242.869259 89.395 243.4779 89.395 
z
" style="fill:#ffffff;stroke:#000000;stroke-linejoin:miter;stroke-width:2;"/>
   </g>
   <g id="patch_11">
    <path clip-path="url(#padeeab2fdd)" d="M 180.7479 204.145 
C 181.356541 204.145 181.940336 203.903184 182.37071 203.47281 
C 182.801084 203.042436 183.0429 202.458641 183.0429 201.85 
C 183.0429 201.241359 182.801084 200.657564 182.37071 200.22719 
C 181.940336 199.796816 181.356541 199.555 180.7479 199.555 
C 180.139259 199.555 179.555464 199.796816 179.12509 200.22719 
C 178.694716 200.657564 178.4529 201.241359 178.4529 201.85 
C 178.4529 202.458641 178.694716 203.042436 179.12509 203.47281 
C 179.555464 203.903184 180.139259 204.145 180.7479 204.145 
z
" style="fill:#ffffff;stroke:#000000;stroke-linejoin:miter;stroke-width:2;"/>
   </g>
   <g id="patch_12">
    <path clip-path="url(#padeeab2fdd)" d="M 203.6979 135.295 
C 204.306541 135.295 204.890336 135.053184 205.32071 134.62281 
C 205.751084 134.192436 205.9929 133.608641 205.9929 133 
C 205.9929 132.391359 205.751084 131.807564 205.32071 131.37719 
C 204.890336 130.946816 204.306541 130.705 203.6979 130.705 
C 203.089259 130.705 202.505464 130.946816 202.07509 131.37719 
C 201.644716 131.807564 201.4029 132.391359 201.4029 133 
C 201.4029 133.608641 201.644716 134.192436 202.07509 134.62281 
C 202.505464 135.053184 203.089259 135.295 203.6979 135.295 
z
" style="fill:#ffffff;stroke:#000000;stroke-linejoin:miter;stroke-width:2;"/>
   </g>
   <g id="patch_13">
    <path clip-path="url(#padeeab2fdd)" d="M 69.0579 135.295 
C 69.666541 135.295 70.250336 135.053184 70.68071 134.62281 
C 71.111084 134.192436 71.3529 133.608641 71.3529 133 
C 71.3529 132.391359 71.111084 131.807564 70.68071 131.37719 
C 70.250336 130.946816 69.666541 130.705 69.0579 130.705 
C 68.449259 130.705 67.865464 130.946816 67.43509 131.37719 
C 67.004716 131.807564 66.7629 132.391359 66.7629 133 
C 66.7629 133.608641 67.004716 134.192436 67.43509 134.62281 
C 67.865464 135.053184 68.449259 135.295 69.0579 135.295 
z
" style="fill:#ffffff;stroke:#000000;stroke-linejoin:miter;stroke-width:2;"/>
   </g>
   <g id="patch_14">
    <path clip-path="url(#padeeab2fdd)" d="M 69.0579 66.445 
C 69.666541 66.445 70.250336 66.203184 70.68071 65.77281 
C 71.111084 65.342436 71.3529 64.758641 71.3529 64.15 
C 71.3529 63.541359 71.111084 62.957564 70.68071 62.52719 
C 70.250336 62.096816 69.666541 61.855 69.0579 61.855 
C 68.449259 61.855 67.865464 62.096816 67.43509 62.52719 
C 67.004716 62.957564 66.7629 63.541359 66.7629 64.15 
C 66.7629 64.758641 67.004716 65.342436 67.43509 65.77281 
C 67.865464 66.203184 68.449259 66.445 69.0579 66.445 
z
" style="fill:#ffffff;stroke:#000000;stroke-linejoin:miter;stroke-width:2;"/>
   </g>
   <g id="patch_15">
    <path clip-path="url(#padeeab2fdd)" d="M 203.6979 66.445 
C 204.306541 66.445 204.890336 66.203184 205.32071 65.77281 
C 205.751084 65.342436 205.9929 64.758641 205.9929 64.15 
C 205.9929 63.541359 205.751084 62.957564 205.32071 62.52719 
C 204.890336 62.096816 204.306541 61.855 203.6979 61.855 
C 203.089259 61.855 202.505464 62.096816 202.07509 62.52719 
C 201.644716 62.957564 201.4029 63.541359 201.4029 64.15 
C 201.4029 64.758641 201.644716 65.342436 202.07509 65.77281 
C 202.505464 66.203184 203.089259 66.445 203.6979 66.445 
z
" style="fill:#ffffff;stroke:#000000;stroke-linejoin:miter;stroke-width:2;"/>
   </g>
   <g id="text_2">
    <!-- $V_{*}$ -->
    <g transform="translate(128.8879 147.683437)scale(0.14 -0.14)">
     <defs>
      <path d="M 47.015625 60.890625 
L 29.5 51.421875 
L 47.015625 41.890625 
L 44.1875 37.109375 
L 27.78125 47.015625 
L 27.78125 28.609375 
L 22.21875 28.609375 
L 22.21875 47.015625 
L 5.8125 37.109375 
L 2.984375 41.890625 
L 20.515625 51.421875 
L 2.984375 60.890625 
L 5.8125 65.71875 
L 22.21875 55.8125 
L 22.21875 74.21875 
L 27.78125 74.21875 
L 27.78125 55.8125 
L 44.1875 65.71875 
z
" id="DejaVuSans-42"/>
     </defs>
     <use transform="translate(0 0.09375)" xlink:href="#DejaVuSans-Oblique-86"/>
     <use transform="translate(68.408203 -16.3125)scale(0.7)" xlink:href="#DejaVuSans-42"/>
    </g>
   </g>
   <g id="text_3">
    <!-- $V_{out2}$ -->
    <g transform="translate(13.1079 78.833438)scale(0.14 -0.14)">
     <defs>
      <path d="M 25.390625 -1.421875 
Q 15.765625 -1.421875 10.171875 4.515625 
Q 4.59375 10.453125 4.59375 20.703125 
Q 4.59375 26.65625 6.515625 32.828125 
Q 8.453125 39.015625 11.53125 43.21875 
Q 16.359375 49.75 22.3125 52.875 
Q 28.265625 56 35.796875 56 
Q 45.125 56 50.859375 50.1875 
Q 56.59375 44.390625 56.59375 35.015625 
Q 56.59375 28.515625 54.6875 22.0625 
Q 52.78125 15.625 49.703125 11.375 
Q 44.921875 4.828125 38.96875 1.703125 
Q 33.015625 -1.421875 25.390625 -1.421875 
z
M 13.921875 21 
Q 13.921875 13.578125 17.015625 9.890625 
Q 20.125 6.203125 26.421875 6.203125 
Q 35.453125 6.203125 41.375 14.078125 
Q 47.3125 21.96875 47.3125 34.078125 
Q 47.3125 41.15625 44.140625 44.765625 
Q 40.96875 48.390625 34.8125 48.390625 
Q 29.734375 48.390625 25.78125 46.015625 
Q 21.828125 43.65625 18.703125 38.8125 
Q 16.40625 35.203125 15.15625 30.5625 
Q 13.921875 25.921875 13.921875 21 
z
" id="DejaVuSans-Oblique-111"/>
      <path d="M 6.6875 21.6875 
L 13.09375 54.6875 
L 22.125 54.6875 
L 15.71875 22.015625 
Q 15.234375 19.625 15.015625 17.921875 
Q 14.796875 16.21875 14.796875 15.09375 
Q 14.796875 10.9375 17.328125 8.65625 
Q 19.875 6.390625 24.515625 6.390625 
Q 31.734375 6.390625 37 11.265625 
Q 42.28125 16.15625 43.890625 24.421875 
L 49.90625 54.6875 
L 58.890625 54.6875 
L 48.296875 0 
L 39.3125 0 
L 41.109375 8.59375 
Q 37.3125 3.8125 32.0625 1.1875 
Q 26.8125 -1.421875 20.90625 -1.421875 
Q 13.71875 -1.421875 9.71875 2.515625 
Q 5.71875 6.453125 5.71875 13.484375 
Q 5.71875 14.9375 5.953125 17.140625 
Q 6.203125 19.34375 6.6875 21.6875 
z
" id="DejaVuSans-Oblique-117"/>
      <path d="M 42.28125 54.6875 
L 40.921875 47.703125 
L 23 47.703125 
L 17.1875 18.015625 
Q 16.890625 16.359375 16.75 15.234375 
Q 16.609375 14.109375 16.609375 13.484375 
Q 16.609375 10.359375 18.484375 8.9375 
Q 20.359375 7.515625 24.515625 7.515625 
L 33.59375 7.515625 
L 32.078125 0 
L 23.484375 0 
Q 15.484375 0 11.546875 3.125 
Q 7.625 6.25 7.625 12.59375 
Q 7.625 13.71875 7.765625 15.0625 
Q 7.90625 16.40625 8.203125 18.015625 
L 14.015625 47.703125 
L 6.390625 47.703125 
L 7.8125 54.6875 
L 15.28125 54.6875 
L 18.3125 70.21875 
L 27.296875 70.21875 
L 24.3125 54.6875 
z
" id="DejaVuSans-Oblique-116"/>
      <path d="M 19.1875 8.296875 
L 53.609375 8.296875 
L 53.609375 0 
L 7.328125 0 
L 7.328125 8.296875 
Q 12.9375 14.109375 22.625 23.890625 
Q 32.328125 33.6875 34.8125 36.53125 
Q 39.546875 41.84375 41.421875 45.53125 
Q 43.3125 49.21875 43.3125 52.78125 
Q 43.3125 58.59375 39.234375 62.25 
Q 35.15625 65.921875 28.609375 65.921875 
Q 23.96875 65.921875 18.8125 64.3125 
Q 13.671875 62.703125 7.8125 59.421875 
L 7.8125 69.390625 
Q 13.765625 71.78125 18.9375 73 
Q 24.125 74.21875 28.421875 74.21875 
Q 39.75 74.21875 46.484375 68.546875 
Q 53.21875 62.890625 53.21875 53.421875 
Q 53.21875 48.921875 51.53125 44.890625 
Q 49.859375 40.875 45.40625 35.40625 
Q 44.1875 33.984375 37.640625 27.21875 
Q 31.109375 20.453125 19.1875 8.296875 
z
" id="DejaVuSans-50"/>
     </defs>
     <use transform="translate(0 0.09375)" xlink:href="#DejaVuSans-Oblique-86"/>
     <use transform="translate(68.408203 -16.3125)scale(0.7)" xlink:href="#DejaVuSans-Oblique-111"/>
     <use transform="translate(111.235352 -16.3125)scale(0.7)" xlink:href="#DejaVuSans-Oblique-117"/>
     <use transform="translate(155.600586 -16.3125)scale(0.7)" xlink:href="#DejaVuSans-Oblique-116"/>
     <use transform="translate(183.046875 -16.3125)scale(0.7)" xlink:href="#DejaVuSans-50"/>
    </g>
   </g>
   <g id="text_4">
    <!-- $V_{out1}$ -->
    <g transform="translate(227.3079 78.833438)scale(0.14 -0.14)">
     <defs>
      <path d="M 12.40625 8.296875 
L 28.515625 8.296875 
L 28.515625 63.921875 
L 10.984375 60.40625 
L 10.984375 69.390625 
L 28.421875 72.90625 
L 38.28125 72.90625 
L 38.28125 8.296875 
L 54.390625 8.296875 
L 54.390625 0 
L 12.40625 0 
z
" id="DejaVuSans-49"/>
     </defs>
     <use transform="translate(0 0.09375)" xlink:href="#DejaVuSans-Oblique-86"/>
     <use transform="translate(68.408203 -16.3125)scale(0.7)" xlink:href="#DejaVuSans-Oblique-111"/>
     <use transform="translate(111.235352 -16.3125)scale(0.7)" xlink:href="#DejaVuSans-Oblique-117"/>
     <use transform="translate(155.600586 -16.3125)scale(0.7)" xlink:href="#DejaVuSans-Oblique-116"/>
     <use transform="translate(183.046875 -16.3125)scale(0.7)" xlink:href="#DejaVuSans-49"/>
    </g>
   </g>
   <g id="text_5">
    <!-- $V_{b}$ -->
    <g transform="translate(172.6279 193.583438)scale(0.14 -0.14)">
     <defs>
      <path d="M 49.515625 33.40625 
Q 49.515625 40.484375 46.265625 44.484375 
Q 43.015625 48.484375 37.3125 48.484375 
Q 33.15625 48.484375 29.515625 46.453125 
Q 25.875 44.4375 23.1875 40.578125 
Q 20.359375 36.53125 18.71875 31.171875 
Q 17.09375 25.828125 17.09375 20.515625 
Q 17.09375 13.765625 20.28125 9.9375 
Q 23.484375 6.109375 29.109375 6.109375 
Q 33.34375 6.109375 36.953125 8.078125 
Q 40.578125 10.0625 43.3125 13.921875 
Q 46.09375 17.921875 47.796875 23.234375 
Q 49.515625 28.5625 49.515625 33.40625 
z
M 21.578125 46.390625 
Q 24.90625 50.875 29.90625 53.4375 
Q 34.90625 56 40.375 56 
Q 48.78125 56 53.734375 50.328125 
Q 58.6875 44.671875 58.6875 35.015625 
Q 58.6875 27.09375 55.78125 19.671875 
Q 52.875 12.25 47.515625 6.5 
Q 44 2.6875 39.40625 0.625 
Q 34.8125 -1.421875 29.78125 -1.421875 
Q 24.46875 -1.421875 20.5625 1.015625 
Q 16.65625 3.46875 14.203125 8.296875 
L 12.59375 0 
L 3.609375 0 
L 18.40625 75.984375 
L 27.390625 75.984375 
z
" id="DejaVuSans-Oblique-98"/>
     </defs>
     <use transform="translate(0 0.09375)" xlink:href="#DejaVuSans-Oblique-86"/>
     <use transform="translate(68.408203 -16.3125)scale(0.7)" xlink:href="#DejaVuSans-Oblique-98"/>
    </g>
   </g>
   <g id="text_6">
    <!-- $V_{1}$ -->
    <g transform="translate(195.5779 124.733438)scale(0.14 -0.14)">
     <use transform="translate(0 0.09375)" xlink:href="#DejaVuSans-Oblique-86"/>
     <use transform="translate(68.408203 -16.3125)scale(0.7)" xlink:href="#DejaVuSans-49"/>
    </g>
   </g>
   <g id="text_7">
    <!-- $V_{2}$ -->
    <g transform="translate(60.9379 124.733437)scale(0.14 -0.14)">
     <use transform="translate(0 0.09375)" xlink:href="#DejaVuSans-Oblique-86"/>
     <use transform="translate(68.408203 -16.3125)scale(0.7)" xlink:href="#DejaVuSans-50"/>
    </g>
   </g>
   <g id="text_8">
    <!-- $V_{a}$ -->
    <g transform="translate(61.0079 55.883438)scale(0.14 -0.14)">
     <defs>
      <path d="M 53.71875 31.203125 
L 47.609375 0 
L 38.625 0 
L 40.28125 8.296875 
Q 36.328125 3.421875 31.265625 1 
Q 26.21875 -1.421875 20.015625 -1.421875 
Q 13.03125 -1.421875 8.5625 2.84375 
Q 4.109375 7.125 4.109375 13.8125 
Q 4.109375 23.390625 11.75 28.953125 
Q 19.390625 34.515625 32.8125 34.515625 
L 45.3125 34.515625 
L 45.796875 36.921875 
Q 45.90625 37.3125 45.953125 37.765625 
Q 46 38.234375 46 39.203125 
Q 46 43.5625 42.453125 45.96875 
Q 38.921875 48.390625 32.515625 48.390625 
Q 28.125 48.390625 23.5 47.265625 
Q 18.890625 46.140625 14.015625 43.890625 
L 15.578125 52.203125 
Q 20.65625 54.109375 25.515625 55.046875 
Q 30.375 56 34.90625 56 
Q 44.578125 56 49.625 51.796875 
Q 54.6875 47.609375 54.6875 39.59375 
Q 54.6875 37.984375 54.4375 35.8125 
Q 54.203125 33.640625 53.71875 31.203125 
z
M 44 27.484375 
L 35.015625 27.484375 
Q 23.96875 27.484375 18.671875 24.53125 
Q 13.375 21.578125 13.375 15.375 
Q 13.375 11.078125 16.078125 8.640625 
Q 18.796875 6.203125 23.578125 6.203125 
Q 30.90625 6.203125 36.375 11.453125 
Q 41.84375 16.703125 43.609375 25.484375 
z
" id="DejaVuSans-Oblique-97"/>
     </defs>
     <use transform="translate(0 0.09375)" xlink:href="#DejaVuSans-Oblique-86"/>
     <use transform="translate(68.408203 -16.3125)scale(0.7)" xlink:href="#DejaVuSans-Oblique-97"/>
    </g>
   </g>
   <g id="text_9">
    <!-- $V_{a}$ -->
    <g transform="translate(195.6479 55.883438)scale(0.14 -0.14)">
     <use transform="translate(0 0.09375)" xlink:href="#DejaVuSans-Oblique-86"/>
     <use transform="translate(68.408203 -16.3125)scale(0.7)" xlink:href="#DejaVuSans-Oblique-97"/>
    </g>
   </g>
  </g>
 </g>
 <defs>
  <clipPath id="padeeab2fdd">
   <rect height="240.244" width="261.4158" x="7.2" y="7.2"/>
  </clipPath>
 </defs>
</svg>
