<?xml version="1.0" encoding="utf-8" standalone="no"?>
<!DOCTYPE svg PUBLIC "-//W3C//DTD SVG 1.1//EN"
  "http://www.w3.org/Graphics/SVG/1.1/DTD/svg11.dtd">
<!-- Created with matplotlib (https://matplotlib.org/) -->
<svg height="354.094pt" version="1.1" viewBox="0 0 385.7514 354.094" width="385.7514pt" xmlns="http://www.w3.org/2000/svg" xmlns:xlink="http://www.w3.org/1999/xlink">
 <metadata>
  <rdf:RDF xmlns:cc="http://creativecommons.org/ns#" xmlns:dc="http://purl.org/dc/elements/1.1/" xmlns:rdf="http://www.w3.org/1999/02/22-rdf-syntax-ns#">
   <cc:Work>
    <dc:type rdf:resource="http://purl.org/dc/dcmitype/StillImage"/>
    <dc:date>2021-02-21T17:55:18.943980</dc:date>
    <dc:format>image/svg+xml</dc:format>
    <dc:creator>
     <cc:Agent>
      <dc:title>Matplotlib v3.3.4, https://matplotlib.org/</dc:title>
     </cc:Agent>
    </dc:creator>
   </cc:Work>
  </rdf:RDF>
 </metadata>
 <defs>
  <style type="text/css">*{stroke-linecap:butt;stroke-linejoin:round;}</style>
 </defs>
 <g id="figure_1">
  <g id="patch_1">
   <path d="M -0 354.094 
L 385.7514 354.094 
L 385.7514 0 
L -0 0 
z
" style="fill:none;"/>
  </g>
  <g id="axes_1">
   <g id="patch_2">
    <path clip-path="url(#pf767fc4a6b)" d="M 129.855 171.25 
L 135.975 168.19 
L 135.975 171.2347 
L 150.255 171.2347 
L 150.255 171.2653 
L 135.975 171.2653 
L 135.975 174.31 
z
" style="stroke:#000000;stroke-width:2;"/>
   </g>
   <g id="patch_3">
    <path clip-path="url(#pf767fc4a6b)" d="M 118.635 113.62 
C 119.581775 113.62 120.4899 113.243842 121.159371 112.574371 
C 121.828842 111.9049 122.205 110.996775 122.205 110.05 
C 122.205 109.103225 121.828842 108.1951 121.159371 107.525629 
C 120.4899 106.856158 119.581775 106.48 118.635 106.48 
C 117.688225 106.48 116.7801 106.856158 116.110629 107.525629 
C 115.441158 108.1951 115.065 109.103225 115.065 110.05 
C 115.065 110.996775 115.441158 111.9049 116.110629 112.574371 
C 116.7801 113.243842 117.688225 113.62 118.635 113.62 
z
" style="fill:none;stroke:#000000;stroke-linejoin:miter;stroke-width:2;"/>
   </g>
   <g id="patch_4">
    <path clip-path="url(#pf767fc4a6b)" d="M 118.635 67.72 
C 119.581775 67.72 120.4899 67.343842 121.159371 66.674371 
C 121.828842 66.0049 122.205 65.096775 122.205 64.15 
C 122.205 63.203225 121.828842 62.2951 121.159371 61.625629 
C 120.4899 60.956158 119.581775 60.58 118.635 60.58 
C 117.688225 60.58 116.7801 60.956158 116.110629 61.625629 
C 115.441158 62.2951 115.065 63.203225 115.065 64.15 
C 115.065 65.096775 115.441158 66.0049 116.110629 66.674371 
C 116.7801 67.343842 117.688225 67.72 118.635 67.72 
z
" style="fill:none;stroke:#000000;stroke-linejoin:miter;stroke-width:2;"/>
   </g>
   <g id="patch_5">
    <path clip-path="url(#pf767fc4a6b)" d="M 227.775 67.72 
C 228.721775 67.72 229.6299 67.343842 230.299371 66.674371 
C 230.968842 66.0049 231.345 65.096775 231.345 64.15 
C 231.345 63.203225 230.968842 62.2951 230.299371 61.625629 
C 229.6299 60.956158 228.721775 60.58 227.775 60.58 
C 226.828225 60.58 225.9201 60.956158 225.250629 61.625629 
C 224.581158 62.2951 224.205 63.203225 224.205 64.15 
C 224.205 65.096775 224.581158 66.0049 225.250629 66.674371 
C 225.9201 67.343842 226.828225 67.72 227.775 67.72 
z
" style="fill:none;stroke:#000000;stroke-linejoin:miter;stroke-width:2;"/>
   </g>
   <g id="patch_6">
    <path clip-path="url(#pf767fc4a6b)" d="M 227.775 113.62 
C 228.721775 113.62 229.6299 113.243842 230.299371 112.574371 
C 230.968842 111.9049 231.345 110.996775 231.345 110.05 
C 231.345 109.103225 230.968842 108.1951 230.299371 107.525629 
C 229.6299 106.856158 228.721775 106.48 227.775 106.48 
C 226.828225 106.48 225.9201 106.856158 225.250629 107.525629 
C 224.581158 108.1951 224.205 109.103225 224.205 110.05 
C 224.205 110.996775 224.581158 111.9049 225.250629 112.574371 
C 225.9201 113.243842 226.828225 113.62 227.775 113.62 
z
" style="fill:none;stroke:#000000;stroke-linejoin:miter;stroke-width:2;"/>
   </g>
   <g id="patch_7">
    <path clip-path="url(#pf767fc4a6b)" d="M 216.555 171.25 
L 210.435 174.31 
L 210.435 171.2653 
L 196.155 171.2653 
L 196.155 171.2347 
L 210.435 171.2347 
L 210.435 168.19 
z
" style="stroke:#000000;stroke-width:2;"/>
   </g>
   <g id="patch_8">
    <path clip-path="url(#pf767fc4a6b)" d="M 44.175 67.72 
C 45.121775 67.72 46.0299 67.343842 46.699371 66.674371 
C 47.368842 66.0049 47.745 65.096775 47.745 64.15 
C 47.745 63.203225 47.368842 62.2951 46.699371 61.625629 
C 46.0299 60.956158 45.121775 60.58 44.175 60.58 
C 43.228225 60.58 42.3201 60.956158 41.650629 61.625629 
C 40.981158 62.2951 40.605 63.203225 40.605 64.15 
C 40.605 65.096775 40.981158 66.0049 41.650629 66.674371 
C 42.3201 67.343842 43.228225 67.72 44.175 67.72 
z
" style="fill:none;stroke:#000000;stroke-linejoin:miter;stroke-width:2;"/>
   </g>
   <g id="patch_9">
    <path clip-path="url(#pf767fc4a6b)" d="M 44.175 113.62 
C 45.121775 113.62 46.0299 113.243842 46.699371 112.574371 
C 47.368842 111.9049 47.745 110.996775 47.745 110.05 
C 47.745 109.103225 47.368842 108.1951 46.699371 107.525629 
C 46.0299 106.856158 45.121775 106.48 44.175 106.48 
C 43.228225 106.48 42.3201 106.856158 41.650629 107.525629 
C 40.981158 108.1951 40.605 109.103225 40.605 110.05 
C 40.605 110.996775 40.981158 111.9049 41.650629 112.574371 
C 42.3201 113.243842 43.228225 113.62 44.175 113.62 
z
" style="fill:none;stroke:#000000;stroke-linejoin:miter;stroke-width:2;"/>
   </g>
   <g id="patch_10">
    <path clip-path="url(#pf767fc4a6b)" d="M 302.235 113.62 
C 303.181775 113.62 304.0899 113.243842 304.759371 112.574371 
C 305.428842 111.9049 305.805 110.996775 305.805 110.05 
C 305.805 109.103225 305.428842 108.1951 304.759371 107.525629 
C 304.0899 106.856158 303.181775 106.48 302.235 106.48 
C 301.288225 106.48 300.3801 106.856158 299.710629 107.525629 
C 299.041158 108.1951 298.665 109.103225 298.665 110.05 
C 298.665 110.996775 299.041158 111.9049 299.710629 112.574371 
C 300.3801 113.243842 301.288225 113.62 302.235 113.62 
z
" style="fill:none;stroke:#000000;stroke-linejoin:miter;stroke-width:2;"/>
   </g>
   <g id="patch_11">
    <path clip-path="url(#pf767fc4a6b)" d="M 302.235 67.72 
C 303.181775 67.72 304.0899 67.343842 304.759371 66.674371 
C 305.428842 66.0049 305.805 65.096775 305.805 64.15 
C 305.805 63.203225 305.428842 62.2951 304.759371 61.625629 
C 304.0899 60.956158 303.181775 60.58 302.235 60.58 
C 301.288225 60.58 300.3801 60.956158 299.710629 61.625629 
C 299.041158 62.2951 298.665 63.203225 298.665 64.15 
C 298.665 65.096775 299.041158 66.0049 299.710629 66.674371 
C 300.3801 67.343842 301.288225 67.72 302.235 67.72 
z
" style="fill:none;stroke:#000000;stroke-linejoin:miter;stroke-width:2;"/>
   </g>
   <g id="line2d_1">
    <path clip-path="url(#pf767fc4a6b)" d="M 173.205 278.35 
L 173.205 291.1 
L 193.605 291.1 
L 193.605 311.5 
L 173.205 311.5 
L 173.205 324.25 
" style="fill:none;stroke:#000000;stroke-linecap:round;stroke-width:2;"/>
   </g>
   <g id="line2d_2">
    <path clip-path="url(#pf767fc4a6b)" d="M 201.255 291.1 
L 201.255 311.5 
" style="fill:none;stroke:#000000;stroke-linecap:round;stroke-width:2;"/>
   </g>
   <g id="line2d_3">
    <path clip-path="url(#pf767fc4a6b)" d="M 201.255 301.3 
L 217.575 301.3 
" style="fill:none;stroke:#000000;stroke-linecap:round;stroke-width:2;"/>
   </g>
   <g id="line2d_4">
    <path clip-path="url(#pf767fc4a6b)" d="M 173.205 324.25 
L 173.205 336.49 
L 165.555 336.49 
L 180.855 336.49 
M 167.85 340.162 
L 178.56 340.162 
M 171.675 343.834 
L 174.735 343.834 
" style="fill:none;stroke:#000000;stroke-linecap:round;stroke-width:2;"/>
   </g>
   <g id="line2d_5">
    <path clip-path="url(#pf767fc4a6b)" d="M 173.205 278.35 
L 173.205 236.275 
L 173.205 194.2 
" style="fill:none;stroke:#000000;stroke-linecap:round;stroke-width:2;"/>
   </g>
   <g id="line2d_6">
    <path clip-path="url(#pf767fc4a6b)" d="M 173.205 194.2 
L 161.73 194.2 
L 150.255 194.2 
" style="fill:none;stroke:#000000;stroke-linecap:round;stroke-width:2;"/>
   </g>
   <g id="line2d_7">
    <path clip-path="url(#pf767fc4a6b)" d="M 150.255 194.2 
L 150.255 181.45 
L 129.855 181.45 
L 129.855 161.05 
L 150.255 161.05 
L 150.255 148.3 
" style="fill:none;stroke:#000000;stroke-linecap:round;stroke-width:2;"/>
   </g>
   <g id="line2d_8">
    <path clip-path="url(#pf767fc4a6b)" d="M 122.205 181.45 
L 122.205 161.05 
" style="fill:none;stroke:#000000;stroke-linecap:round;stroke-width:2;"/>
   </g>
   <g id="line2d_9">
    <path clip-path="url(#pf767fc4a6b)" d="M 122.205 171.25 
L 105.885 171.25 
" style="fill:none;stroke:#000000;stroke-linecap:round;stroke-width:2;"/>
   </g>
   <g id="line2d_10">
    <path clip-path="url(#pf767fc4a6b)" d="M 150.255 148.3 
L 150.255 140.65 
L 150.255 133 
" style="fill:none;stroke:#000000;stroke-linecap:round;stroke-width:2;"/>
   </g>
   <g id="line2d_11">
    <path clip-path="url(#pf767fc4a6b)" d="M 150.255 133 
L 150.255 120.25 
L 129.855 120.25 
L 129.855 99.85 
L 150.255 99.85 
L 150.255 87.1 
" style="fill:none;stroke:#000000;stroke-linecap:round;stroke-width:2;"/>
   </g>
   <g id="line2d_12">
    <path clip-path="url(#pf767fc4a6b)" d="M 122.205 120.25 
L 122.205 99.85 
" style="fill:none;stroke:#000000;stroke-linecap:round;stroke-width:2;"/>
   </g>
   <g id="line2d_13">
    <path clip-path="url(#pf767fc4a6b)" d="M 115.065 110.05 
L 105.885 110.05 
" style="fill:none;stroke:#000000;stroke-linecap:round;stroke-width:2;"/>
   </g>
   <g id="line2d_14">
    <path clip-path="url(#pf767fc4a6b)" d="M 150.255 87.1 
L 150.255 74.35 
L 129.855 74.35 
L 129.855 53.95 
L 150.255 53.95 
L 150.255 41.2 
" style="fill:none;stroke:#000000;stroke-linecap:round;stroke-width:2;"/>
   </g>
   <g id="line2d_15">
    <path clip-path="url(#pf767fc4a6b)" d="M 122.205 74.35 
L 122.205 53.95 
" style="fill:none;stroke:#000000;stroke-linecap:round;stroke-width:2;"/>
   </g>
   <g id="line2d_16">
    <path clip-path="url(#pf767fc4a6b)" d="M 115.065 64.15 
L 105.885 64.15 
" style="fill:none;stroke:#000000;stroke-linecap:round;stroke-width:2;"/>
   </g>
   <g id="line2d_17">
    <path clip-path="url(#pf767fc4a6b)" d="M 150.255 133 
L 128.07 133 
L 105.885 133 
" style="fill:none;stroke:#000000;stroke-linecap:round;stroke-width:2;"/>
   </g>
   <g id="line2d_18">
    <path clip-path="url(#pf767fc4a6b)" d="M 105.885 133 
L 90.585 133 
L 75.285 133 
" style="fill:none;stroke:#000000;stroke-linecap:round;stroke-width:2;"/>
   </g>
   <g id="line2d_19">
    <path clip-path="url(#pf767fc4a6b)" d="M 75.285 133 
L 75.285 98.575 
L 75.285 64.15 
" style="fill:none;stroke:#000000;stroke-linecap:round;stroke-width:2;"/>
   </g>
   <g id="line2d_20">
    <path clip-path="url(#pf767fc4a6b)" d="M 150.255 41.2 
L 161.73 41.2 
L 173.205 41.2 
" style="fill:none;stroke:#000000;stroke-linecap:round;stroke-width:2;"/>
   </g>
   <g id="line2d_21">
    <path clip-path="url(#pf767fc4a6b)" d="M 173.205 41.2 
L 173.205 28.96 
" style="fill:none;stroke:#000000;stroke-linecap:round;stroke-width:2;"/>
   </g>
   <g id="line2d_22">
    <path clip-path="url(#pf767fc4a6b)" d="M 173.205 28.96 
L 167.4675 28.96 
" style="fill:none;stroke:#000000;stroke-linecap:round;stroke-width:2;"/>
   </g>
   <g id="line2d_23">
    <path clip-path="url(#pf767fc4a6b)" d="M 173.205 28.96 
L 178.9425 28.96 
" style="fill:none;stroke:#000000;stroke-linecap:round;stroke-width:2;"/>
   </g>
   <g id="line2d_24">
    <path clip-path="url(#pf767fc4a6b)" d="M 173.205 41.2 
L 184.68 41.2 
L 196.155 41.2 
" style="fill:none;stroke:#000000;stroke-linecap:round;stroke-width:2;"/>
   </g>
   <g id="line2d_25">
    <path clip-path="url(#pf767fc4a6b)" d="M 196.155 41.2 
L 196.155 53.95 
L 216.555 53.95 
L 216.555 74.35 
L 196.155 74.35 
L 196.155 87.1 
" style="fill:none;stroke:#000000;stroke-linecap:round;stroke-width:2;"/>
   </g>
   <g id="line2d_26">
    <path clip-path="url(#pf767fc4a6b)" d="M 224.205 53.95 
L 224.205 74.35 
" style="fill:none;stroke:#000000;stroke-linecap:round;stroke-width:2;"/>
   </g>
   <g id="line2d_27">
    <path clip-path="url(#pf767fc4a6b)" d="M 231.345 64.15 
L 240.525 64.15 
" style="fill:none;stroke:#000000;stroke-linecap:round;stroke-width:2;"/>
   </g>
   <g id="line2d_28">
    <path clip-path="url(#pf767fc4a6b)" d="M 196.155 87.1 
L 196.155 99.85 
L 216.555 99.85 
L 216.555 120.25 
L 196.155 120.25 
L 196.155 133 
" style="fill:none;stroke:#000000;stroke-linecap:round;stroke-width:2;"/>
   </g>
   <g id="line2d_29">
    <path clip-path="url(#pf767fc4a6b)" d="M 224.205 99.85 
L 224.205 120.25 
" style="fill:none;stroke:#000000;stroke-linecap:round;stroke-width:2;"/>
   </g>
   <g id="line2d_30">
    <path clip-path="url(#pf767fc4a6b)" d="M 231.345 110.05 
L 240.525 110.05 
" style="fill:none;stroke:#000000;stroke-linecap:round;stroke-width:2;"/>
   </g>
   <g id="line2d_31">
    <path clip-path="url(#pf767fc4a6b)" d="M 196.155 133 
L 218.34 133 
L 240.525 133 
" style="fill:none;stroke:#000000;stroke-linecap:round;stroke-width:2;"/>
   </g>
   <g id="line2d_32">
    <path clip-path="url(#pf767fc4a6b)" d="M 240.525 133 
L 255.825 133 
L 271.125 133 
" style="fill:none;stroke:#000000;stroke-linecap:round;stroke-width:2;"/>
   </g>
   <g id="line2d_33">
    <path clip-path="url(#pf767fc4a6b)" d="M 271.125 133 
L 271.125 98.575 
L 271.125 64.15 
" style="fill:none;stroke:#000000;stroke-linecap:round;stroke-width:2;"/>
   </g>
   <g id="line2d_34">
    <path clip-path="url(#pf767fc4a6b)" d="M 196.155 133 
L 196.155 140.65 
L 196.155 148.3 
" style="fill:none;stroke:#000000;stroke-linecap:round;stroke-width:2;"/>
   </g>
   <g id="line2d_35">
    <path clip-path="url(#pf767fc4a6b)" d="M 196.155 148.3 
L 196.155 161.05 
L 216.555 161.05 
L 216.555 181.45 
L 196.155 181.45 
L 196.155 194.2 
" style="fill:none;stroke:#000000;stroke-linecap:round;stroke-width:2;"/>
   </g>
   <g id="line2d_36">
    <path clip-path="url(#pf767fc4a6b)" d="M 224.205 161.05 
L 224.205 181.45 
" style="fill:none;stroke:#000000;stroke-linecap:round;stroke-width:2;"/>
   </g>
   <g id="line2d_37">
    <path clip-path="url(#pf767fc4a6b)" d="M 224.205 171.25 
L 240.525 171.25 
" style="fill:none;stroke:#000000;stroke-linecap:round;stroke-width:2;"/>
   </g>
   <g id="line2d_38">
    <path clip-path="url(#pf767fc4a6b)" d="M 196.155 194.2 
L 184.68 194.2 
L 173.205 194.2 
" style="fill:none;stroke:#000000;stroke-linecap:round;stroke-width:2;"/>
   </g>
   <g id="line2d_39">
    <path clip-path="url(#pf767fc4a6b)" d="M 150.255 41.2 
L 81.405 41.2 
L 12.555 41.2 
" style="fill:none;stroke:#000000;stroke-linecap:round;stroke-width:2;"/>
   </g>
   <g id="line2d_40">
    <path clip-path="url(#pf767fc4a6b)" d="M 12.555 41.2 
L 12.555 53.95 
L 32.955 53.95 
L 32.955 74.35 
L 12.555 74.35 
L 12.555 87.1 
" style="fill:none;stroke:#000000;stroke-linecap:round;stroke-width:2;"/>
   </g>
   <g id="line2d_41">
    <path clip-path="url(#pf767fc4a6b)" d="M 40.605 53.95 
L 40.605 74.35 
" style="fill:none;stroke:#000000;stroke-linecap:round;stroke-width:2;"/>
   </g>
   <g id="line2d_42">
    <path clip-path="url(#pf767fc4a6b)" d="M 47.745 64.15 
L 56.925 64.15 
" style="fill:none;stroke:#000000;stroke-linecap:round;stroke-width:2;"/>
   </g>
   <g id="line2d_43">
    <path clip-path="url(#pf767fc4a6b)" d="M 12.555 87.1 
L 12.555 99.85 
L 32.955 99.85 
L 32.955 120.25 
L 12.555 120.25 
L 12.555 133 
" style="fill:none;stroke:#000000;stroke-linecap:round;stroke-width:2;"/>
   </g>
   <g id="line2d_44">
    <path clip-path="url(#pf767fc4a6b)" d="M 40.605 99.85 
L 40.605 120.25 
" style="fill:none;stroke:#000000;stroke-linecap:round;stroke-width:2;"/>
   </g>
   <g id="line2d_45">
    <path clip-path="url(#pf767fc4a6b)" d="M 47.745 110.05 
L 56.925 110.05 
" style="fill:none;stroke:#000000;stroke-linecap:round;stroke-width:2;"/>
   </g>
   <g id="line2d_46">
    <path clip-path="url(#pf767fc4a6b)" d="M 12.555 133 
L 12.555 155.185 
L 12.555 177.37 
" style="fill:none;stroke:#000000;stroke-linecap:round;stroke-width:2;"/>
   </g>
   <g id="line2d_47">
    <path clip-path="url(#pf767fc4a6b)" d="M 12.555 177.37 
L 12.555 190.12 
L 32.955 190.12 
L 32.955 210.52 
L 12.555 210.52 
L 12.555 223.27 
" style="fill:none;stroke:#000000;stroke-linecap:round;stroke-width:2;"/>
   </g>
   <g id="line2d_48">
    <path clip-path="url(#pf767fc4a6b)" d="M 40.605 190.12 
L 40.605 210.52 
" style="fill:none;stroke:#000000;stroke-linecap:round;stroke-width:2;"/>
   </g>
   <g id="line2d_49">
    <path clip-path="url(#pf767fc4a6b)" d="M 40.605 200.32 
L 56.925 200.32 
" style="fill:none;stroke:#000000;stroke-linecap:round;stroke-width:2;"/>
   </g>
   <g id="line2d_50">
    <path clip-path="url(#pf767fc4a6b)" d="M 12.555 223.27 
L 12.555 236.02 
L 32.955 236.02 
L 32.955 256.42 
L 12.555 256.42 
L 12.555 269.17 
" style="fill:none;stroke:#000000;stroke-linecap:round;stroke-width:2;"/>
   </g>
   <g id="line2d_51">
    <path clip-path="url(#pf767fc4a6b)" d="M 40.605 236.02 
L 40.605 256.42 
" style="fill:none;stroke:#000000;stroke-linecap:round;stroke-width:2;"/>
   </g>
   <g id="line2d_52">
    <path clip-path="url(#pf767fc4a6b)" d="M 40.605 246.22 
L 56.925 246.22 
" style="fill:none;stroke:#000000;stroke-linecap:round;stroke-width:2;"/>
   </g>
   <g id="line2d_53">
    <path clip-path="url(#pf767fc4a6b)" d="M 12.555 269.17 
L 12.555 296.71 
L 12.555 324.25 
" style="fill:none;stroke:#000000;stroke-linecap:round;stroke-width:2;"/>
   </g>
   <g id="line2d_54">
    <path clip-path="url(#pf767fc4a6b)" d="M 12.555 324.25 
L 92.88 324.25 
L 173.205 324.25 
" style="fill:none;stroke:#000000;stroke-linecap:round;stroke-width:2;"/>
   </g>
   <g id="line2d_55">
    <path clip-path="url(#pf767fc4a6b)" d="M 173.205 324.25 
L 253.53 324.25 
L 333.855 324.25 
" style="fill:none;stroke:#000000;stroke-linecap:round;stroke-width:2;"/>
   </g>
   <g id="line2d_56">
    <path clip-path="url(#pf767fc4a6b)" d="M 333.855 324.25 
L 333.855 296.71 
L 333.855 269.17 
" style="fill:none;stroke:#000000;stroke-linecap:round;stroke-width:2;"/>
   </g>
   <g id="line2d_57">
    <path clip-path="url(#pf767fc4a6b)" d="M 333.855 269.17 
L 333.855 256.42 
L 313.455 256.42 
L 313.455 236.02 
L 333.855 236.02 
L 333.855 223.27 
" style="fill:none;stroke:#000000;stroke-linecap:round;stroke-width:2;"/>
   </g>
   <g id="line2d_58">
    <path clip-path="url(#pf767fc4a6b)" d="M 305.805 256.42 
L 305.805 236.02 
" style="fill:none;stroke:#000000;stroke-linecap:round;stroke-width:2;"/>
   </g>
   <g id="line2d_59">
    <path clip-path="url(#pf767fc4a6b)" d="M 305.805 246.22 
L 289.485 246.22 
" style="fill:none;stroke:#000000;stroke-linecap:round;stroke-width:2;"/>
   </g>
   <g id="line2d_60">
    <path clip-path="url(#pf767fc4a6b)" d="M 333.855 223.27 
L 333.855 210.52 
L 313.455 210.52 
L 313.455 190.12 
L 333.855 190.12 
L 333.855 177.37 
" style="fill:none;stroke:#000000;stroke-linecap:round;stroke-width:2;"/>
   </g>
   <g id="line2d_61">
    <path clip-path="url(#pf767fc4a6b)" d="M 305.805 210.52 
L 305.805 190.12 
" style="fill:none;stroke:#000000;stroke-linecap:round;stroke-width:2;"/>
   </g>
   <g id="line2d_62">
    <path clip-path="url(#pf767fc4a6b)" d="M 305.805 200.32 
L 289.485 200.32 
" style="fill:none;stroke:#000000;stroke-linecap:round;stroke-width:2;"/>
   </g>
   <g id="line2d_63">
    <path clip-path="url(#pf767fc4a6b)" d="M 333.855 177.37 
L 333.855 165.895 
L 333.855 154.42 
" style="fill:none;stroke:#000000;stroke-linecap:round;stroke-width:2;"/>
   </g>
   <g id="line2d_64">
    <path clip-path="url(#pf767fc4a6b)" d="M 333.855 154.42 
L 333.855 143.71 
L 333.855 133 
" style="fill:none;stroke:#000000;stroke-linecap:round;stroke-width:2;"/>
   </g>
   <g id="line2d_65">
    <path clip-path="url(#pf767fc4a6b)" d="M 333.855 133 
L 333.855 120.25 
L 313.455 120.25 
L 313.455 99.85 
L 333.855 99.85 
L 333.855 87.1 
" style="fill:none;stroke:#000000;stroke-linecap:round;stroke-width:2;"/>
   </g>
   <g id="line2d_66">
    <path clip-path="url(#pf767fc4a6b)" d="M 305.805 120.25 
L 305.805 99.85 
" style="fill:none;stroke:#000000;stroke-linecap:round;stroke-width:2;"/>
   </g>
   <g id="line2d_67">
    <path clip-path="url(#pf767fc4a6b)" d="M 298.665 110.05 
L 289.485 110.05 
" style="fill:none;stroke:#000000;stroke-linecap:round;stroke-width:2;"/>
   </g>
   <g id="line2d_68">
    <path clip-path="url(#pf767fc4a6b)" d="M 333.855 87.1 
L 333.855 74.35 
L 313.455 74.35 
L 313.455 53.95 
L 333.855 53.95 
L 333.855 41.2 
" style="fill:none;stroke:#000000;stroke-linecap:round;stroke-width:2;"/>
   </g>
   <g id="line2d_69">
    <path clip-path="url(#pf767fc4a6b)" d="M 305.805 74.35 
L 305.805 53.95 
" style="fill:none;stroke:#000000;stroke-linecap:round;stroke-width:2;"/>
   </g>
   <g id="line2d_70">
    <path clip-path="url(#pf767fc4a6b)" d="M 298.665 64.15 
L 289.485 64.15 
" style="fill:none;stroke:#000000;stroke-linecap:round;stroke-width:2;"/>
   </g>
   <g id="line2d_71">
    <path clip-path="url(#pf767fc4a6b)" d="M 333.855 41.2 
L 333.855 41.2 
L 333.855 41.2 
" style="fill:none;stroke:#000000;stroke-linecap:round;stroke-width:2;"/>
   </g>
   <g id="line2d_72">
    <path clip-path="url(#pf767fc4a6b)" d="M 333.855 41.2 
L 265.005 41.2 
L 196.155 41.2 
" style="fill:none;stroke:#000000;stroke-linecap:round;stroke-width:2;"/>
   </g>
   <g id="line2d_73">
    <path clip-path="url(#pf767fc4a6b)" d="M 56.925 246.22 
L 68.4 246.22 
L 79.875 246.22 
" style="fill:none;stroke:#000000;stroke-linecap:round;stroke-width:2;"/>
   </g>
   <g id="line2d_74">
    <path clip-path="url(#pf767fc4a6b)" d="M 79.875 246.22 
L 79.875 211.795 
L 79.875 177.37 
" style="fill:none;stroke:#000000;stroke-linecap:round;stroke-width:2;"/>
   </g>
   <g id="line2d_75">
    <path clip-path="url(#pf767fc4a6b)" d="M 79.875 177.37 
L 46.215 177.37 
L 12.555 177.37 
" style="fill:none;stroke:#000000;stroke-linecap:round;stroke-width:2;"/>
   </g>
   <g id="line2d_76">
    <path clip-path="url(#pf767fc4a6b)" d="M 56.925 64.15 
L 81.405 64.15 
L 105.885 64.15 
" style="fill:none;stroke:#000000;stroke-linecap:round;stroke-width:2;"/>
   </g>
   <g id="line2d_77">
    <path clip-path="url(#pf767fc4a6b)" d="M 240.525 64.15 
L 265.005 64.15 
L 289.485 64.15 
" style="fill:none;stroke:#000000;stroke-linecap:round;stroke-width:2;"/>
   </g>
   <g id="line2d_78">
    <path clip-path="url(#pf767fc4a6b)" d="M 56.925 246.22 
L 173.205 246.22 
L 289.485 246.22 
" style="fill:none;stroke:#000000;stroke-linecap:round;stroke-width:2;"/>
   </g>
   <g id="line2d_79">
    <path clip-path="url(#pf767fc4a6b)" d="M 150.255 171.25 
L 154.08 171.25 
L 157.905 171.25 
" style="fill:none;stroke:#000000;stroke-linecap:round;stroke-width:2;"/>
   </g>
   <g id="line2d_80">
    <path clip-path="url(#pf767fc4a6b)" d="M 157.905 171.25 
L 157.905 182.725 
L 157.905 194.2 
" style="fill:none;stroke:#000000;stroke-linecap:round;stroke-width:2;"/>
   </g>
   <g id="line2d_81">
    <path clip-path="url(#pf767fc4a6b)" d="M 196.155 171.25 
L 192.33 171.25 
L 188.505 171.25 
" style="fill:none;stroke:#000000;stroke-linecap:round;stroke-width:2;"/>
   </g>
   <g id="line2d_82">
    <path clip-path="url(#pf767fc4a6b)" d="M 188.505 171.25 
L 188.505 182.725 
L 188.505 194.2 
" style="fill:none;stroke:#000000;stroke-linecap:round;stroke-width:2;"/>
   </g>
   <g id="line2d_83">
    <path clip-path="url(#pf767fc4a6b)" d="M 333.855 154.42 
L 345.33 154.42 
L 356.805 154.42 
" style="fill:none;stroke:#000000;stroke-linecap:round;stroke-width:2;"/>
   </g>
   <g id="text_1">
    <!-- $I_{b}$ -->
    <g transform="translate(159.365 305.163125)scale(0.14 -0.14)">
     <defs>
      <path d="M 16.890625 72.90625 
L 26.8125 72.90625 
L 12.59375 0 
L 2.6875 0 
z
" id="DejaVuSans-Oblique-73"/>
      <path d="M 49.515625 33.40625 
Q 49.515625 40.484375 46.265625 44.484375 
Q 43.015625 48.484375 37.3125 48.484375 
Q 33.15625 48.484375 29.515625 46.453125 
Q 25.875 44.4375 23.1875 40.578125 
Q 20.359375 36.53125 18.71875 31.171875 
Q 17.09375 25.828125 17.09375 20.515625 
Q 17.09375 13.765625 20.28125 9.9375 
Q 23.484375 6.109375 29.109375 6.109375 
Q 33.34375 6.109375 36.953125 8.078125 
Q 40.578125 10.0625 43.3125 13.921875 
Q 46.09375 17.921875 47.796875 23.234375 
Q 49.515625 28.5625 49.515625 33.40625 
z
M 21.578125 46.390625 
Q 24.90625 50.875 29.90625 53.4375 
Q 34.90625 56 40.375 56 
Q 48.78125 56 53.734375 50.328125 
Q 58.6875 44.671875 58.6875 35.015625 
Q 58.6875 27.09375 55.78125 19.671875 
Q 52.875 12.25 47.515625 6.5 
Q 44 2.6875 39.40625 0.625 
Q 34.8125 -1.421875 29.78125 -1.421875 
Q 24.46875 -1.421875 20.5625 1.015625 
Q 16.65625 3.46875 14.203125 8.296875 
L 12.59375 0 
L 3.609375 0 
L 18.40625 75.984375 
L 27.390625 75.984375 
z
" id="DejaVuSans-Oblique-98"/>
     </defs>
     <use transform="translate(0 0.09375)" xlink:href="#DejaVuSans-Oblique-73"/>
     <use transform="translate(29.492188 -16.3125)scale(0.7)" xlink:href="#DejaVuSans-Oblique-98"/>
    </g>
   </g>
   <g id="text_2">
    <!-- $V_{dd}$ -->
    <g transform="translate(161.935 22.988437)scale(0.14 -0.14)">
     <defs>
      <path d="M 20.609375 0 
L 7.8125 72.90625 
L 17.484375 72.90625 
L 28.078125 10.203125 
L 63.484375 72.90625 
L 74.21875 72.90625 
L 32.078125 0 
z
" id="DejaVuSans-Oblique-86"/>
      <path d="M 41.796875 8.203125 
Q 38.1875 3.46875 33.25 1.015625 
Q 28.328125 -1.421875 22.3125 -1.421875 
Q 14.109375 -1.421875 9.34375 4.171875 
Q 4.59375 9.765625 4.59375 19.484375 
Q 4.59375 27.59375 7.46875 34.9375 
Q 10.359375 42.28125 15.828125 48.09375 
Q 19.4375 51.953125 23.96875 53.96875 
Q 28.515625 56 33.5 56 
Q 38.765625 56 42.796875 53.453125 
Q 46.828125 50.921875 49.03125 46.1875 
L 54.890625 75.984375 
L 63.921875 75.984375 
L 49.125 0 
L 40.09375 0 
z
M 13.921875 21.09375 
Q 13.921875 14.015625 17.109375 10.0625 
Q 20.3125 6.109375 25.984375 6.109375 
Q 30.171875 6.109375 33.765625 8.125 
Q 37.359375 10.15625 40.09375 14.109375 
Q 42.96875 18.21875 44.625 23.578125 
Q 46.296875 28.953125 46.296875 34.1875 
Q 46.296875 40.96875 43.09375 44.765625 
Q 39.890625 48.578125 34.28125 48.578125 
Q 30.03125 48.578125 26.359375 46.578125 
Q 22.703125 44.578125 20.125 40.828125 
Q 17.28125 36.765625 15.59375 31.390625 
Q 13.921875 26.03125 13.921875 21.09375 
z
" id="DejaVuSans-Oblique-100"/>
     </defs>
     <use transform="translate(0 0.09375)" xlink:href="#DejaVuSans-Oblique-86"/>
     <use transform="translate(68.408203 -16.3125)scale(0.7)" xlink:href="#DejaVuSans-Oblique-100"/>
     <use transform="translate(112.841797 -16.3125)scale(0.7)" xlink:href="#DejaVuSans-Oblique-100"/>
    </g>
   </g>
   <g id="patch_12">
    <path clip-path="url(#pf767fc4a6b)" d="M 173.205 326.545 
C 173.813641 326.545 174.397436 326.303184 174.82781 325.87281 
C 175.258184 325.442436 175.5 324.858641 175.5 324.25 
C 175.5 323.641359 175.258184 323.057564 174.82781 322.62719 
C 174.397436 322.196816 173.813641 321.955 173.205 321.955 
C 172.596359 321.955 172.012564 322.196816 171.58219 322.62719 
C 171.151816 323.057564 170.91 323.641359 170.91 324.25 
C 170.91 324.858641 171.151816 325.442436 171.58219 325.87281 
C 172.012564 326.303184 172.596359 326.545 173.205 326.545 
z
" style="stroke:#000000;stroke-linejoin:miter;stroke-width:2;"/>
   </g>
   <g id="patch_13">
    <path clip-path="url(#pf767fc4a6b)" d="M 173.205 196.495 
C 173.813641 196.495 174.397436 196.253184 174.82781 195.82281 
C 175.258184 195.392436 175.5 194.808641 175.5 194.2 
C 175.5 193.591359 175.258184 193.007564 174.82781 192.57719 
C 174.397436 192.146816 173.813641 191.905 173.205 191.905 
C 172.596359 191.905 172.012564 192.146816 171.58219 192.57719 
C 171.151816 193.007564 170.91 193.591359 170.91 194.2 
C 170.91 194.808641 171.151816 195.392436 171.58219 195.82281 
C 172.012564 196.253184 172.596359 196.495 173.205 196.495 
z
" style="stroke:#000000;stroke-linejoin:miter;stroke-width:2;"/>
   </g>
   <g id="patch_14">
    <path clip-path="url(#pf767fc4a6b)" d="M 150.255 135.295 
C 150.863641 135.295 151.447436 135.053184 151.87781 134.62281 
C 152.308184 134.192436 152.55 133.608641 152.55 133 
C 152.55 132.391359 152.308184 131.807564 151.87781 131.37719 
C 151.447436 130.946816 150.863641 130.705 150.255 130.705 
C 149.646359 130.705 149.062564 130.946816 148.63219 131.37719 
C 148.201816 131.807564 147.96 132.391359 147.96 133 
C 147.96 133.608641 148.201816 134.192436 148.63219 134.62281 
C 149.062564 135.053184 149.646359 135.295 150.255 135.295 
z
" style="stroke:#000000;stroke-linejoin:miter;stroke-width:2;"/>
   </g>
   <g id="patch_15">
    <path clip-path="url(#pf767fc4a6b)" d="M 75.285 66.445 
C 75.893641 66.445 76.477436 66.203184 76.90781 65.77281 
C 77.338184 65.342436 77.58 64.758641 77.58 64.15 
C 77.58 63.541359 77.338184 62.957564 76.90781 62.52719 
C 76.477436 62.096816 75.893641 61.855 75.285 61.855 
C 74.676359 61.855 74.092564 62.096816 73.66219 62.52719 
C 73.231816 62.957564 72.99 63.541359 72.99 64.15 
C 72.99 64.758641 73.231816 65.342436 73.66219 65.77281 
C 74.092564 66.203184 74.676359 66.445 75.285 66.445 
z
" style="stroke:#000000;stroke-linejoin:miter;stroke-width:2;"/>
   </g>
   <g id="patch_16">
    <path clip-path="url(#pf767fc4a6b)" d="M 196.155 135.295 
C 196.763641 135.295 197.347436 135.053184 197.77781 134.62281 
C 198.208184 134.192436 198.45 133.608641 198.45 133 
C 198.45 132.391359 198.208184 131.807564 197.77781 131.37719 
C 197.347436 130.946816 196.763641 130.705 196.155 130.705 
C 195.546359 130.705 194.962564 130.946816 194.53219 131.37719 
C 194.101816 131.807564 193.86 132.391359 193.86 133 
C 193.86 133.608641 194.101816 134.192436 194.53219 134.62281 
C 194.962564 135.053184 195.546359 135.295 196.155 135.295 
z
" style="stroke:#000000;stroke-linejoin:miter;stroke-width:2;"/>
   </g>
   <g id="patch_17">
    <path clip-path="url(#pf767fc4a6b)" d="M 271.125 66.445 
C 271.733641 66.445 272.317436 66.203184 272.74781 65.77281 
C 273.178184 65.342436 273.42 64.758641 273.42 64.15 
C 273.42 63.541359 273.178184 62.957564 272.74781 62.52719 
C 272.317436 62.096816 271.733641 61.855 271.125 61.855 
C 270.516359 61.855 269.932564 62.096816 269.50219 62.52719 
C 269.071816 62.957564 268.83 63.541359 268.83 64.15 
C 268.83 64.758641 269.071816 65.342436 269.50219 65.77281 
C 269.932564 66.203184 270.516359 66.445 271.125 66.445 
z
" style="stroke:#000000;stroke-linejoin:miter;stroke-width:2;"/>
   </g>
   <g id="patch_18">
    <path clip-path="url(#pf767fc4a6b)" d="M 333.855 156.715 
C 334.463641 156.715 335.047436 156.473184 335.47781 156.04281 
C 335.908184 155.612436 336.15 155.028641 336.15 154.42 
C 336.15 153.811359 335.908184 153.227564 335.47781 152.79719 
C 335.047436 152.366816 334.463641 152.125 333.855 152.125 
C 333.246359 152.125 332.662564 152.366816 332.23219 152.79719 
C 331.801816 153.227564 331.56 153.811359 331.56 154.42 
C 331.56 155.028641 331.801816 155.612436 332.23219 156.04281 
C 332.662564 156.473184 333.246359 156.715 333.855 156.715 
z
" style="stroke:#000000;stroke-linejoin:miter;stroke-width:2;"/>
   </g>
   <g id="patch_19">
    <path clip-path="url(#pf767fc4a6b)" d="M 79.875 248.515 
C 80.483641 248.515 81.067436 248.273184 81.49781 247.84281 
C 81.928184 247.412436 82.17 246.828641 82.17 246.22 
C 82.17 245.611359 81.928184 245.027564 81.49781 244.59719 
C 81.067436 244.166816 80.483641 243.925 79.875 243.925 
C 79.266359 243.925 78.682564 244.166816 78.25219 244.59719 
C 77.821816 245.027564 77.58 245.611359 77.58 246.22 
C 77.58 246.828641 77.821816 247.412436 78.25219 247.84281 
C 78.682564 248.273184 79.266359 248.515 79.875 248.515 
z
" style="stroke:#000000;stroke-linejoin:miter;stroke-width:2;"/>
   </g>
   <g id="patch_20">
    <path clip-path="url(#pf767fc4a6b)" d="M 12.555 179.665 
C 13.163641 179.665 13.747436 179.423184 14.17781 178.99281 
C 14.608184 178.562436 14.85 177.978641 14.85 177.37 
C 14.85 176.761359 14.608184 176.177564 14.17781 175.74719 
C 13.747436 175.316816 13.163641 175.075 12.555 175.075 
C 11.946359 175.075 11.362564 175.316816 10.93219 175.74719 
C 10.501816 176.177564 10.26 176.761359 10.26 177.37 
C 10.26 177.978641 10.501816 178.562436 10.93219 178.99281 
C 11.362564 179.423184 11.946359 179.665 12.555 179.665 
z
" style="stroke:#000000;stroke-linejoin:miter;stroke-width:2;"/>
   </g>
   <g id="patch_21">
    <path clip-path="url(#pf767fc4a6b)" d="M 157.905 196.495 
C 158.513641 196.495 159.097436 196.253184 159.52781 195.82281 
C 159.958184 195.392436 160.2 194.808641 160.2 194.2 
C 160.2 193.591359 159.958184 193.007564 159.52781 192.57719 
C 159.097436 192.146816 158.513641 191.905 157.905 191.905 
C 157.296359 191.905 156.712564 192.146816 156.28219 192.57719 
C 155.851816 193.007564 155.61 193.591359 155.61 194.2 
C 155.61 194.808641 155.851816 195.392436 156.28219 195.82281 
C 156.712564 196.253184 157.296359 196.495 157.905 196.495 
z
" style="stroke:#000000;stroke-linejoin:miter;stroke-width:2;"/>
   </g>
   <g id="patch_22">
    <path clip-path="url(#pf767fc4a6b)" d="M 188.505 196.495 
C 189.113641 196.495 189.697436 196.253184 190.12781 195.82281 
C 190.558184 195.392436 190.8 194.808641 190.8 194.2 
C 190.8 193.591359 190.558184 193.007564 190.12781 192.57719 
C 189.697436 192.146816 189.113641 191.905 188.505 191.905 
C 187.896359 191.905 187.312564 192.146816 186.88219 192.57719 
C 186.451816 193.007564 186.21 193.591359 186.21 194.2 
C 186.21 194.808641 186.451816 195.392436 186.88219 195.82281 
C 187.312564 196.253184 187.896359 196.495 188.505 196.495 
z
" style="stroke:#000000;stroke-linejoin:miter;stroke-width:2;"/>
   </g>
   <g id="patch_23">
    <path clip-path="url(#pf767fc4a6b)" d="M 356.805 156.715 
C 357.413641 156.715 357.997436 156.473184 358.42781 156.04281 
C 358.858184 155.612436 359.1 155.028641 359.1 154.42 
C 359.1 153.811359 358.858184 153.227564 358.42781 152.79719 
C 357.997436 152.366816 357.413641 152.125 356.805 152.125 
C 356.196359 152.125 355.612564 152.366816 355.18219 152.79719 
C 354.751816 153.227564 354.51 153.811359 354.51 154.42 
C 354.51 155.028641 354.751816 155.612436 355.18219 156.04281 
C 355.612564 156.473184 356.196359 156.715 356.805 156.715 
z
" style="fill:#ffffff;stroke:#000000;stroke-linejoin:miter;stroke-width:2;"/>
   </g>
   <g id="patch_24">
    <path clip-path="url(#pf767fc4a6b)" d="M 217.575 303.595 
C 218.183641 303.595 218.767436 303.353184 219.19781 302.92281 
C 219.628184 302.492436 219.87 301.908641 219.87 301.3 
C 219.87 300.691359 219.628184 300.107564 219.19781 299.67719 
C 218.767436 299.246816 218.183641 299.005 217.575 299.005 
C 216.966359 299.005 216.382564 299.246816 215.95219 299.67719 
C 215.521816 300.107564 215.28 300.691359 215.28 301.3 
C 215.28 301.908641 215.521816 302.492436 215.95219 302.92281 
C 216.382564 303.353184 216.966359 303.595 217.575 303.595 
z
" style="fill:#ffffff;stroke:#000000;stroke-linejoin:miter;stroke-width:2;"/>
   </g>
   <g id="patch_25">
    <path clip-path="url(#pf767fc4a6b)" d="M 240.525 173.545 
C 241.133641 173.545 241.717436 173.303184 242.14781 172.87281 
C 242.578184 172.442436 242.82 171.858641 242.82 171.25 
C 242.82 170.641359 242.578184 170.057564 242.14781 169.62719 
C 241.717436 169.196816 241.133641 168.955 240.525 168.955 
C 239.916359 168.955 239.332564 169.196816 238.90219 169.62719 
C 238.471816 170.057564 238.23 170.641359 238.23 171.25 
C 238.23 171.858641 238.471816 172.442436 238.90219 172.87281 
C 239.332564 173.303184 239.916359 173.545 240.525 173.545 
z
" style="fill:#ffffff;stroke:#000000;stroke-linejoin:miter;stroke-width:2;"/>
   </g>
   <g id="patch_26">
    <path clip-path="url(#pf767fc4a6b)" d="M 105.885 173.545 
C 106.493641 173.545 107.077436 173.303184 107.50781 172.87281 
C 107.938184 172.442436 108.18 171.858641 108.18 171.25 
C 108.18 170.641359 107.938184 170.057564 107.50781 169.62719 
C 107.077436 169.196816 106.493641 168.955 105.885 168.955 
C 105.276359 168.955 104.692564 169.196816 104.26219 169.62719 
C 103.831816 170.057564 103.59 170.641359 103.59 171.25 
C 103.59 171.858641 103.831816 172.442436 104.26219 172.87281 
C 104.692564 173.303184 105.276359 173.545 105.885 173.545 
z
" style="fill:#ffffff;stroke:#000000;stroke-linejoin:miter;stroke-width:2;"/>
   </g>
   <g id="patch_27">
    <path clip-path="url(#pf767fc4a6b)" d="M 105.885 112.345 
C 106.493641 112.345 107.077436 112.103184 107.50781 111.67281 
C 107.938184 111.242436 108.18 110.658641 108.18 110.05 
C 108.18 109.441359 107.938184 108.857564 107.50781 108.42719 
C 107.077436 107.996816 106.493641 107.755 105.885 107.755 
C 105.276359 107.755 104.692564 107.996816 104.26219 108.42719 
C 103.831816 108.857564 103.59 109.441359 103.59 110.05 
C 103.59 110.658641 103.831816 111.242436 104.26219 111.67281 
C 104.692564 112.103184 105.276359 112.345 105.885 112.345 
z
" style="fill:#ffffff;stroke:#000000;stroke-linejoin:miter;stroke-width:2;"/>
   </g>
   <g id="patch_28">
    <path clip-path="url(#pf767fc4a6b)" d="M 240.525 112.345 
C 241.133641 112.345 241.717436 112.103184 242.14781 111.67281 
C 242.578184 111.242436 242.82 110.658641 242.82 110.05 
C 242.82 109.441359 242.578184 108.857564 242.14781 108.42719 
C 241.717436 107.996816 241.133641 107.755 240.525 107.755 
C 239.916359 107.755 239.332564 107.996816 238.90219 108.42719 
C 238.471816 108.857564 238.23 109.441359 238.23 110.05 
C 238.23 110.658641 238.471816 111.242436 238.90219 111.67281 
C 239.332564 112.103184 239.916359 112.345 240.525 112.345 
z
" style="fill:#ffffff;stroke:#000000;stroke-linejoin:miter;stroke-width:2;"/>
   </g>
   <g id="patch_29">
    <path clip-path="url(#pf767fc4a6b)" d="M 56.925 112.345 
C 57.533641 112.345 58.117436 112.103184 58.54781 111.67281 
C 58.978184 111.242436 59.22 110.658641 59.22 110.05 
C 59.22 109.441359 58.978184 108.857564 58.54781 108.42719 
C 58.117436 107.996816 57.533641 107.755 56.925 107.755 
C 56.316359 107.755 55.732564 107.996816 55.30219 108.42719 
C 54.871816 108.857564 54.63 109.441359 54.63 110.05 
C 54.63 110.658641 54.871816 111.242436 55.30219 111.67281 
C 55.732564 112.103184 56.316359 112.345 56.925 112.345 
z
" style="fill:#ffffff;stroke:#000000;stroke-linejoin:miter;stroke-width:2;"/>
   </g>
   <g id="patch_30">
    <path clip-path="url(#pf767fc4a6b)" d="M 289.485 112.345 
C 290.093641 112.345 290.677436 112.103184 291.10781 111.67281 
C 291.538184 111.242436 291.78 110.658641 291.78 110.05 
C 291.78 109.441359 291.538184 108.857564 291.10781 108.42719 
C 290.677436 107.996816 290.093641 107.755 289.485 107.755 
C 288.876359 107.755 288.292564 107.996816 287.86219 108.42719 
C 287.431816 108.857564 287.19 109.441359 287.19 110.05 
C 287.19 110.658641 287.431816 111.242436 287.86219 111.67281 
C 288.292564 112.103184 288.876359 112.345 289.485 112.345 
z
" style="fill:#ffffff;stroke:#000000;stroke-linejoin:miter;stroke-width:2;"/>
   </g>
   <g id="patch_31">
    <path clip-path="url(#pf767fc4a6b)" d="M 56.925 202.615 
C 57.533641 202.615 58.117436 202.373184 58.54781 201.94281 
C 58.978184 201.512436 59.22 200.928641 59.22 200.32 
C 59.22 199.711359 58.978184 199.127564 58.54781 198.69719 
C 58.117436 198.266816 57.533641 198.025 56.925 198.025 
C 56.316359 198.025 55.732564 198.266816 55.30219 198.69719 
C 54.871816 199.127564 54.63 199.711359 54.63 200.32 
C 54.63 200.928641 54.871816 201.512436 55.30219 201.94281 
C 55.732564 202.373184 56.316359 202.615 56.925 202.615 
z
" style="fill:#ffffff;stroke:#000000;stroke-linejoin:miter;stroke-width:2;"/>
   </g>
   <g id="patch_32">
    <path clip-path="url(#pf767fc4a6b)" d="M 289.485 202.615 
C 290.093641 202.615 290.677436 202.373184 291.10781 201.94281 
C 291.538184 201.512436 291.78 200.928641 291.78 200.32 
C 291.78 199.711359 291.538184 199.127564 291.10781 198.69719 
C 290.677436 198.266816 290.093641 198.025 289.485 198.025 
C 288.876359 198.025 288.292564 198.266816 287.86219 198.69719 
C 287.431816 199.127564 287.19 199.711359 287.19 200.32 
C 287.19 200.928641 287.431816 201.512436 287.86219 201.94281 
C 288.292564 202.373184 288.876359 202.615 289.485 202.615 
z
" style="fill:#ffffff;stroke:#000000;stroke-linejoin:miter;stroke-width:2;"/>
   </g>
   <g id="text_3">
    <!-- $V_{out}$ -->
    <g transform="translate(343.785 146.153437)scale(0.14 -0.14)">
     <defs>
      <path d="M 25.390625 -1.421875 
Q 15.765625 -1.421875 10.171875 4.515625 
Q 4.59375 10.453125 4.59375 20.703125 
Q 4.59375 26.65625 6.515625 32.828125 
Q 8.453125 39.015625 11.53125 43.21875 
Q 16.359375 49.75 22.3125 52.875 
Q 28.265625 56 35.796875 56 
Q 45.125 56 50.859375 50.1875 
Q 56.59375 44.390625 56.59375 35.015625 
Q 56.59375 28.515625 54.6875 22.0625 
Q 52.78125 15.625 49.703125 11.375 
Q 44.921875 4.828125 38.96875 1.703125 
Q 33.015625 -1.421875 25.390625 -1.421875 
z
M 13.921875 21 
Q 13.921875 13.578125 17.015625 9.890625 
Q 20.125 6.203125 26.421875 6.203125 
Q 35.453125 6.203125 41.375 14.078125 
Q 47.3125 21.96875 47.3125 34.078125 
Q 47.3125 41.15625 44.140625 44.765625 
Q 40.96875 48.390625 34.8125 48.390625 
Q 29.734375 48.390625 25.78125 46.015625 
Q 21.828125 43.65625 18.703125 38.8125 
Q 16.40625 35.203125 15.15625 30.5625 
Q 13.921875 25.921875 13.921875 21 
z
" id="DejaVuSans-Oblique-111"/>
      <path d="M 6.6875 21.6875 
L 13.09375 54.6875 
L 22.125 54.6875 
L 15.71875 22.015625 
Q 15.234375 19.625 15.015625 17.921875 
Q 14.796875 16.21875 14.796875 15.09375 
Q 14.796875 10.9375 17.328125 8.65625 
Q 19.875 6.390625 24.515625 6.390625 
Q 31.734375 6.390625 37 11.265625 
Q 42.28125 16.15625 43.890625 24.421875 
L 49.90625 54.6875 
L 58.890625 54.6875 
L 48.296875 0 
L 39.3125 0 
L 41.109375 8.59375 
Q 37.3125 3.8125 32.0625 1.1875 
Q 26.8125 -1.421875 20.90625 -1.421875 
Q 13.71875 -1.421875 9.71875 2.515625 
Q 5.71875 6.453125 5.71875 13.484375 
Q 5.71875 14.9375 5.953125 17.140625 
Q 6.203125 19.34375 6.6875 21.6875 
z
" id="DejaVuSans-Oblique-117"/>
      <path d="M 42.28125 54.6875 
L 40.921875 47.703125 
L 23 47.703125 
L 17.1875 18.015625 
Q 16.890625 16.359375 16.75 15.234375 
Q 16.609375 14.109375 16.609375 13.484375 
Q 16.609375 10.359375 18.484375 8.9375 
Q 20.359375 7.515625 24.515625 7.515625 
L 33.59375 7.515625 
L 32.078125 0 
L 23.484375 0 
Q 15.484375 0 11.546875 3.125 
Q 7.625 6.25 7.625 12.59375 
Q 7.625 13.71875 7.765625 15.0625 
Q 7.90625 16.40625 8.203125 18.015625 
L 14.015625 47.703125 
L 6.390625 47.703125 
L 7.8125 54.6875 
L 15.28125 54.6875 
L 18.3125 70.21875 
L 27.296875 70.21875 
L 24.3125 54.6875 
z
" id="DejaVuSans-Oblique-116"/>
     </defs>
     <use transform="translate(0 0.09375)" xlink:href="#DejaVuSans-Oblique-86"/>
     <use transform="translate(68.408203 -16.3125)scale(0.7)" xlink:href="#DejaVuSans-Oblique-111"/>
     <use transform="translate(111.235352 -16.3125)scale(0.7)" xlink:href="#DejaVuSans-Oblique-117"/>
     <use transform="translate(155.600586 -16.3125)scale(0.7)" xlink:href="#DejaVuSans-Oblique-116"/>
    </g>
   </g>
   <g id="text_4">
    <!-- $V_{b}$ -->
    <g transform="translate(209.455 293.033437)scale(0.14 -0.14)">
     <use transform="translate(0 0.09375)" xlink:href="#DejaVuSans-Oblique-86"/>
     <use transform="translate(68.408203 -16.3125)scale(0.7)" xlink:href="#DejaVuSans-Oblique-98"/>
    </g>
   </g>
   <g id="text_5">
    <!-- $V_{+}$ -->
    <g transform="translate(231.425 162.983437)scale(0.14 -0.14)">
     <defs>
      <path d="M 46 62.703125 
L 46 35.5 
L 73.1875 35.5 
L 73.1875 27.203125 
L 46 27.203125 
L 46 0 
L 37.796875 0 
L 37.796875 27.203125 
L 10.59375 27.203125 
L 10.59375 35.5 
L 37.796875 35.5 
L 37.796875 62.703125 
z
" id="DejaVuSans-43"/>
     </defs>
     <use transform="translate(0 0.09375)" xlink:href="#DejaVuSans-Oblique-86"/>
     <use transform="translate(68.408203 -16.3125)scale(0.7)" xlink:href="#DejaVuSans-43"/>
    </g>
   </g>
   <g id="text_6">
    <!-- $V_{-}$ -->
    <g transform="translate(96.785 162.983437)scale(0.14 -0.14)">
     <defs>
      <path d="M 10.59375 35.5 
L 73.1875 35.5 
L 73.1875 27.203125 
L 10.59375 27.203125 
z
" id="DejaVuSans-8722"/>
     </defs>
     <use transform="translate(0 0.09375)" xlink:href="#DejaVuSans-Oblique-86"/>
     <use transform="translate(68.408203 -16.3125)scale(0.7)" xlink:href="#DejaVuSans-8722"/>
    </g>
   </g>
   <g id="text_7">
    <!-- $V_{b1}$ -->
    <g transform="translate(94.615 101.783437)scale(0.14 -0.14)">
     <defs>
      <path d="M 12.40625 8.296875 
L 28.515625 8.296875 
L 28.515625 63.921875 
L 10.984375 60.40625 
L 10.984375 69.390625 
L 28.421875 72.90625 
L 38.28125 72.90625 
L 38.28125 8.296875 
L 54.390625 8.296875 
L 54.390625 0 
L 12.40625 0 
z
" id="DejaVuSans-49"/>
     </defs>
     <use transform="translate(0 0.09375)" xlink:href="#DejaVuSans-Oblique-86"/>
     <use transform="translate(68.408203 -16.3125)scale(0.7)" xlink:href="#DejaVuSans-Oblique-98"/>
     <use transform="translate(112.841797 -16.3125)scale(0.7)" xlink:href="#DejaVuSans-49"/>
    </g>
   </g>
   <g id="text_8">
    <!-- $V_{b1}$ -->
    <g transform="translate(229.255 101.783437)scale(0.14 -0.14)">
     <use transform="translate(0 0.09375)" xlink:href="#DejaVuSans-Oblique-86"/>
     <use transform="translate(68.408203 -16.3125)scale(0.7)" xlink:href="#DejaVuSans-Oblique-98"/>
     <use transform="translate(112.841797 -16.3125)scale(0.7)" xlink:href="#DejaVuSans-49"/>
    </g>
   </g>
   <g id="text_9">
    <!-- $V_{b1}$ -->
    <g transform="translate(45.655 101.783437)scale(0.14 -0.14)">
     <use transform="translate(0 0.09375)" xlink:href="#DejaVuSans-Oblique-86"/>
     <use transform="translate(68.408203 -16.3125)scale(0.7)" xlink:href="#DejaVuSans-Oblique-98"/>
     <use transform="translate(112.841797 -16.3125)scale(0.7)" xlink:href="#DejaVuSans-49"/>
    </g>
   </g>
   <g id="text_10">
    <!-- $V_{b1}$ -->
    <g transform="translate(278.215 101.783437)scale(0.14 -0.14)">
     <use transform="translate(0 0.09375)" xlink:href="#DejaVuSans-Oblique-86"/>
     <use transform="translate(68.408203 -16.3125)scale(0.7)" xlink:href="#DejaVuSans-Oblique-98"/>
     <use transform="translate(112.841797 -16.3125)scale(0.7)" xlink:href="#DejaVuSans-49"/>
    </g>
   </g>
   <g id="text_11">
    <!-- $V_{b2}$ -->
    <g transform="translate(45.655 192.053437)scale(0.14 -0.14)">
     <defs>
      <path d="M 19.1875 8.296875 
L 53.609375 8.296875 
L 53.609375 0 
L 7.328125 0 
L 7.328125 8.296875 
Q 12.9375 14.109375 22.625 23.890625 
Q 32.328125 33.6875 34.8125 36.53125 
Q 39.546875 41.84375 41.421875 45.53125 
Q 43.3125 49.21875 43.3125 52.78125 
Q 43.3125 58.59375 39.234375 62.25 
Q 35.15625 65.921875 28.609375 65.921875 
Q 23.96875 65.921875 18.8125 64.3125 
Q 13.671875 62.703125 7.8125 59.421875 
L 7.8125 69.390625 
Q 13.765625 71.78125 18.9375 73 
Q 24.125 74.21875 28.421875 74.21875 
Q 39.75 74.21875 46.484375 68.546875 
Q 53.21875 62.890625 53.21875 53.421875 
Q 53.21875 48.921875 51.53125 44.890625 
Q 49.859375 40.875 45.40625 35.40625 
Q 44.1875 33.984375 37.640625 27.21875 
Q 31.109375 20.453125 19.1875 8.296875 
z
" id="DejaVuSans-50"/>
     </defs>
     <use transform="translate(0 0.09375)" xlink:href="#DejaVuSans-Oblique-86"/>
     <use transform="translate(68.408203 -16.3125)scale(0.7)" xlink:href="#DejaVuSans-Oblique-98"/>
     <use transform="translate(112.841797 -16.3125)scale(0.7)" xlink:href="#DejaVuSans-50"/>
    </g>
   </g>
   <g id="text_12">
    <!-- $V_{b2}$ -->
    <g transform="translate(278.215 192.053437)scale(0.14 -0.14)">
     <use transform="translate(0 0.09375)" xlink:href="#DejaVuSans-Oblique-86"/>
     <use transform="translate(68.408203 -16.3125)scale(0.7)" xlink:href="#DejaVuSans-Oblique-98"/>
     <use transform="translate(112.841797 -16.3125)scale(0.7)" xlink:href="#DejaVuSans-50"/>
    </g>
   </g>
  </g>
 </g>
 <defs>
  <clipPath id="pf767fc4a6b">
   <rect height="339.694" width="371.3514" x="7.2" y="7.2"/>
  </clipPath>
 </defs>
</svg>
