<?xml version="1.0" encoding="utf-8" standalone="no"?>
<!DOCTYPE svg PUBLIC "-//W3C//DTD SVG 1.1//EN"
  "http://www.w3.org/Graphics/SVG/1.1/DTD/svg11.dtd">
<svg xmlns:xlink="http://www.w3.org/1999/xlink" width="287.6376pt" height="260.764pt" viewBox="0 0 287.6376 260.764" xmlns="http://www.w3.org/2000/svg" version="1.1">
 <metadata>
  <rdf:RDF xmlns:dc="http://purl.org/dc/elements/1.1/" xmlns:cc="http://creativecommons.org/ns#" xmlns:rdf="http://www.w3.org/1999/02/22-rdf-syntax-ns#">
   <cc:Work>
    <dc:type rdf:resource="http://purl.org/dc/dcmitype/StillImage"/>
    <dc:date>2022-02-27T00:32:00.578954</dc:date>
    <dc:format>image/svg+xml</dc:format>
    <dc:creator>
     <cc:Agent>
      <dc:title>Matplotlib v3.5.1, https://matplotlib.org/</dc:title>
     </cc:Agent>
    </dc:creator>
   </cc:Work>
  </rdf:RDF>
 </metadata>
 <defs>
  <style type="text/css">*{stroke-linejoin: round; stroke-linecap: butt}</style>
 </defs>
 <g id="figure_1">
  <g id="patch_1">
   <path d="M 0 260.764 
L 287.6376 260.764 
L 287.6376 0 
L 0 0 
L 0 260.764 
z
" style="fill: none"/>
  </g>
  <g id="axes_1">
   <g id="patch_2">
    <path d="M 88.7388 73.84 
C 89.685575 73.84 90.5937 73.463842 91.263171 72.794371 
C 91.932642 72.1249 92.3088 71.216775 92.3088 70.27 
C 92.3088 69.323225 91.932642 68.4151 91.263171 67.745629 
C 90.5937 67.076158 89.685575 66.7 88.7388 66.7 
C 87.792025 66.7 86.8839 67.076158 86.214429 67.745629 
C 85.544958 68.4151 85.1688 69.323225 85.1688 70.27 
C 85.1688 71.216775 85.544958 72.1249 86.214429 72.794371 
C 86.8839 73.463842 87.792025 73.84 88.7388 73.84 
L 88.7388 73.84 
z
" clip-path="url(#pd1f4caf020)" style="fill: none; stroke: #000000; stroke-width: 2; stroke-linejoin: miter"/>
   </g>
   <g id="patch_3">
    <path d="M 192.7788 73.84 
C 193.725575 73.84 194.6337 73.463842 195.303171 72.794371 
C 195.972642 72.1249 196.3488 71.216775 196.3488 70.27 
C 196.3488 69.323225 195.972642 68.4151 195.303171 67.745629 
C 194.6337 67.076158 193.725575 66.7 192.7788 66.7 
C 191.832025 66.7 190.9239 67.076158 190.254429 67.745629 
C 189.584958 68.4151 189.2088 69.323225 189.2088 70.27 
C 189.2088 71.216775 189.584958 72.1249 190.254429 72.794371 
C 190.9239 73.463842 191.832025 73.84 192.7788 73.84 
L 192.7788 73.84 
z
" clip-path="url(#pd1f4caf020)" style="fill: none; stroke: #000000; stroke-width: 2; stroke-linejoin: miter"/>
   </g>
   <g id="line2d_1">
    <path d="M 140.7588 185.02 
L 140.7588 197.77 
L 161.1588 197.77 
L 161.1588 218.17 
L 140.7588 218.17 
L 140.7588 230.92 
" clip-path="url(#pd1f4caf020)" style="fill: none; stroke: #000000; stroke-width: 2; stroke-linecap: round"/>
   </g>
   <g id="line2d_2">
    <path d="M 166.2588 197.77 
L 166.2588 218.17 
" clip-path="url(#pd1f4caf020)" style="fill: none; stroke: #000000; stroke-width: 2; stroke-linecap: round"/>
   </g>
   <g id="line2d_3">
    <path d="M 166.2588 207.97 
L 182.5788 207.97 
" clip-path="url(#pd1f4caf020)" style="fill: none; stroke: #000000; stroke-width: 2; stroke-linecap: round"/>
   </g>
   <g id="line2d_4">
    <path d="M 140.7588 230.92 
L 140.7588 243.16 
L 133.1088 243.16 
L 148.4088 243.16 
M 135.4038 246.832 
L 146.1138 246.832 
M 139.2288 250.504 
L 142.2888 250.504 
" clip-path="url(#pd1f4caf020)" style="fill: none; stroke: #000000; stroke-width: 2; stroke-linecap: round"/>
   </g>
   <g id="line2d_5">
    <path d="M 140.7588 185.02 
L 140.7588 173.545 
L 140.7588 162.07 
" clip-path="url(#pd1f4caf020)" style="fill: none; stroke: #000000; stroke-width: 2; stroke-linecap: round"/>
   </g>
   <g id="line2d_6">
    <path d="M 140.7588 162.07 
L 129.2838 162.07 
L 117.8088 162.07 
" clip-path="url(#pd1f4caf020)" style="fill: none; stroke: #000000; stroke-width: 2; stroke-linecap: round"/>
   </g>
   <g id="line2d_7">
    <path d="M 117.8088 162.07 
L 117.8088 149.32 
L 97.4088 149.32 
L 97.4088 128.92 
L 117.8088 128.92 
L 117.8088 116.17 
" clip-path="url(#pd1f4caf020)" style="fill: none; stroke: #000000; stroke-width: 2; stroke-linecap: round"/>
   </g>
   <g id="line2d_8">
    <path d="M 92.3088 149.32 
L 92.3088 128.92 
" clip-path="url(#pd1f4caf020)" style="fill: none; stroke: #000000; stroke-width: 2; stroke-linecap: round"/>
   </g>
   <g id="line2d_9">
    <path d="M 92.3088 139.12 
L 75.9888 139.12 
" clip-path="url(#pd1f4caf020)" style="fill: none; stroke: #000000; stroke-width: 2; stroke-linecap: round"/>
   </g>
   <g id="line2d_10">
    <path d="M 117.8088 139.12 
L 105.0588 139.12 
" clip-path="url(#pd1f4caf020)" style="fill: none; stroke: #000000; stroke-width: 2; stroke-linecap: round"/>
   </g>
   <g id="patch_4">
    <path d="M 105.0588 142.18 
L 97.4088 139.12 
L 105.0588 136.06 
z
" clip-path="url(#pd1f4caf020)"/>
   </g>
   <g id="line2d_11">
    <path d="M 117.8088 116.17 
L 117.8088 104.695 
L 117.8088 93.22 
" clip-path="url(#pd1f4caf020)" style="fill: none; stroke: #000000; stroke-width: 2; stroke-linecap: round"/>
   </g>
   <g id="line2d_12">
    <path d="M 117.8088 93.22 
L 75.7338 93.22 
L 33.6588 93.22 
" clip-path="url(#pd1f4caf020)" style="fill: none; stroke: #000000; stroke-width: 2; stroke-linecap: round"/>
   </g>
   <g id="line2d_13">
    <path d="M 117.8088 93.22 
L 117.8088 80.47 
L 97.4088 80.47 
L 97.4088 60.07 
L 117.8088 60.07 
L 117.8088 47.32 
" clip-path="url(#pd1f4caf020)" style="fill: none; stroke: #000000; stroke-width: 2; stroke-linecap: round"/>
   </g>
   <g id="line2d_14">
    <path d="M 92.3088 80.47 
L 92.3088 60.07 
" clip-path="url(#pd1f4caf020)" style="fill: none; stroke: #000000; stroke-width: 2; stroke-linecap: round"/>
   </g>
   <g id="line2d_15">
    <path d="M 85.1688 70.27 
L 75.9888 70.27 
" clip-path="url(#pd1f4caf020)" style="fill: none; stroke: #000000; stroke-width: 2; stroke-linecap: round"/>
   </g>
   <g id="line2d_16">
    <path d="M 117.8088 47.32 
L 129.2838 47.32 
L 140.7588 47.32 
" clip-path="url(#pd1f4caf020)" style="fill: none; stroke: #000000; stroke-width: 2; stroke-linecap: round"/>
   </g>
   <g id="line2d_17">
    <path d="M 140.7588 47.32 
L 140.7588 35.08 
" clip-path="url(#pd1f4caf020)" style="fill: none; stroke: #000000; stroke-width: 2; stroke-linecap: round"/>
   </g>
   <g id="line2d_18">
    <path d="M 140.7588 35.08 
L 135.0213 35.08 
" clip-path="url(#pd1f4caf020)" style="fill: none; stroke: #000000; stroke-width: 2; stroke-linecap: round"/>
   </g>
   <g id="line2d_19">
    <path d="M 140.7588 35.08 
L 146.4963 35.08 
" clip-path="url(#pd1f4caf020)" style="fill: none; stroke: #000000; stroke-width: 2; stroke-linecap: round"/>
   </g>
   <g id="line2d_20">
    <path d="M 140.7588 47.32 
L 152.2338 47.32 
L 163.7088 47.32 
" clip-path="url(#pd1f4caf020)" style="fill: none; stroke: #000000; stroke-width: 2; stroke-linecap: round"/>
   </g>
   <g id="line2d_21">
    <path d="M 163.7088 47.32 
L 163.7088 60.07 
L 184.1088 60.07 
L 184.1088 80.47 
L 163.7088 80.47 
L 163.7088 93.22 
" clip-path="url(#pd1f4caf020)" style="fill: none; stroke: #000000; stroke-width: 2; stroke-linecap: round"/>
   </g>
   <g id="line2d_22">
    <path d="M 189.2088 60.07 
L 189.2088 80.47 
" clip-path="url(#pd1f4caf020)" style="fill: none; stroke: #000000; stroke-width: 2; stroke-linecap: round"/>
   </g>
   <g id="line2d_23">
    <path d="M 196.3488 70.27 
L 205.5288 70.27 
" clip-path="url(#pd1f4caf020)" style="fill: none; stroke: #000000; stroke-width: 2; stroke-linecap: round"/>
   </g>
   <g id="line2d_24">
    <path d="M 163.7088 93.22 
L 205.7838 93.22 
L 247.8588 93.22 
" clip-path="url(#pd1f4caf020)" style="fill: none; stroke: #000000; stroke-width: 2; stroke-linecap: round"/>
   </g>
   <g id="line2d_25">
    <path d="M 163.7088 93.22 
L 163.7088 104.695 
L 163.7088 116.17 
" clip-path="url(#pd1f4caf020)" style="fill: none; stroke: #000000; stroke-width: 2; stroke-linecap: round"/>
   </g>
   <g id="line2d_26">
    <path d="M 163.7088 116.17 
L 163.7088 128.92 
L 184.1088 128.92 
L 184.1088 149.32 
L 163.7088 149.32 
L 163.7088 162.07 
" clip-path="url(#pd1f4caf020)" style="fill: none; stroke: #000000; stroke-width: 2; stroke-linecap: round"/>
   </g>
   <g id="line2d_27">
    <path d="M 189.2088 128.92 
L 189.2088 149.32 
" clip-path="url(#pd1f4caf020)" style="fill: none; stroke: #000000; stroke-width: 2; stroke-linecap: round"/>
   </g>
   <g id="line2d_28">
    <path d="M 189.2088 139.12 
L 205.5288 139.12 
" clip-path="url(#pd1f4caf020)" style="fill: none; stroke: #000000; stroke-width: 2; stroke-linecap: round"/>
   </g>
   <g id="line2d_29">
    <path d="M 163.7088 139.12 
L 176.4588 139.12 
" clip-path="url(#pd1f4caf020)" style="fill: none; stroke: #000000; stroke-width: 2; stroke-linecap: round"/>
   </g>
   <g id="patch_5">
    <path d="M 176.4588 136.06 
L 184.1088 139.12 
L 176.4588 142.18 
z
" clip-path="url(#pd1f4caf020)"/>
   </g>
   <g id="line2d_30">
    <path d="M 163.7088 162.07 
L 152.2338 162.07 
L 140.7588 162.07 
" clip-path="url(#pd1f4caf020)" style="fill: none; stroke: #000000; stroke-width: 2; stroke-linecap: round"/>
   </g>
   <g id="line2d_31">
    <path d="M 117.8088 139.12 
L 121.6338 139.12 
L 125.4588 139.12 
" clip-path="url(#pd1f4caf020)" style="fill: none; stroke: #000000; stroke-width: 2; stroke-linecap: round"/>
   </g>
   <g id="line2d_32">
    <path d="M 125.4588 139.12 
L 125.4588 150.595 
L 125.4588 162.07 
" clip-path="url(#pd1f4caf020)" style="fill: none; stroke: #000000; stroke-width: 2; stroke-linecap: round"/>
   </g>
   <g id="line2d_33">
    <path d="M 163.7088 139.12 
L 159.8838 139.12 
L 156.0588 139.12 
" clip-path="url(#pd1f4caf020)" style="fill: none; stroke: #000000; stroke-width: 2; stroke-linecap: round"/>
   </g>
   <g id="line2d_34">
    <path d="M 156.0588 139.12 
L 156.0588 150.595 
L 156.0588 162.07 
" clip-path="url(#pd1f4caf020)" style="fill: none; stroke: #000000; stroke-width: 2; stroke-linecap: round"/>
   </g>
   <g id="text_1">
    <g clip-path="url(#pd1f4caf020)">
     <!-- $V_{dd}$ -->
     <g transform="translate(130.6963 29.420391)scale(0.125 -0.125)">
      <defs>
       <path id="DejaVuSans-Oblique-56" d="M 1319 0 
L 500 4666 
L 1119 4666 
L 1797 653 
L 4063 4666 
L 4750 4666 
L 2053 0 
L 1319 0 
z
" transform="scale(0.015625)"/>
       <path id="DejaVuSans-Oblique-64" d="M 2675 525 
Q 2444 222 2128 65 
Q 1813 -91 1428 -91 
Q 903 -91 598 267 
Q 294 625 294 1247 
Q 294 1766 478 2236 
Q 663 2706 1013 3078 
Q 1244 3325 1534 3454 
Q 1825 3584 2144 3584 
Q 2481 3584 2739 3421 
Q 2997 3259 3138 2956 
L 3513 4863 
L 4091 4863 
L 3144 0 
L 2566 0 
L 2675 525 
z
M 891 1350 
Q 891 897 1095 644 
Q 1300 391 1663 391 
Q 1931 391 2161 520 
Q 2391 650 2566 903 
Q 2750 1166 2856 1509 
Q 2963 1853 2963 2188 
Q 2963 2622 2758 2865 
Q 2553 3109 2194 3109 
Q 1922 3109 1687 2981 
Q 1453 2853 1288 2613 
Q 1106 2353 998 2009 
Q 891 1666 891 1350 
z
" transform="scale(0.015625)"/>
      </defs>
      <use xlink:href="#DejaVuSans-Oblique-56" transform="translate(0 0.09375)"/>
      <use xlink:href="#DejaVuSans-Oblique-64" transform="translate(68.408203 -16.3125)scale(0.7)"/>
      <use xlink:href="#DejaVuSans-Oblique-64" transform="translate(112.841797 -16.3125)scale(0.7)"/>
     </g>
    </g>
   </g>
   <g id="patch_6">
    <path d="M 140.7588 164.365 
C 141.367441 164.365 141.951236 164.123184 142.38161 163.69281 
C 142.811984 163.262436 143.0538 162.678641 143.0538 162.07 
C 143.0538 161.461359 142.811984 160.877564 142.38161 160.44719 
C 141.951236 160.016816 141.367441 159.775 140.7588 159.775 
C 140.150159 159.775 139.566364 160.016816 139.13599 160.44719 
C 138.705616 160.877564 138.4638 161.461359 138.4638 162.07 
C 138.4638 162.678641 138.705616 163.262436 139.13599 163.69281 
C 139.566364 164.123184 140.150159 164.365 140.7588 164.365 
z
" clip-path="url(#pd1f4caf020)" style="stroke: #000000; stroke-width: 2; stroke-linejoin: miter"/>
   </g>
   <g id="text_2">
    <g clip-path="url(#pd1f4caf020)">
     <!-- $V_{*}$ -->
     <g transform="translate(134.0713 154.115391)scale(0.125 -0.125)">
      <defs>
       <path id="DejaVuSans-2a" d="M 3009 3897 
L 1888 3291 
L 3009 2681 
L 2828 2375 
L 1778 3009 
L 1778 1831 
L 1422 1831 
L 1422 3009 
L 372 2375 
L 191 2681 
L 1313 3291 
L 191 3897 
L 372 4206 
L 1422 3572 
L 1422 4750 
L 1778 4750 
L 1778 3572 
L 2828 4206 
L 3009 3897 
z
" transform="scale(0.015625)"/>
      </defs>
      <use xlink:href="#DejaVuSans-Oblique-56" transform="translate(0 0.09375)"/>
      <use xlink:href="#DejaVuSans-2a" transform="translate(68.408203 -16.3125)scale(0.7)"/>
     </g>
    </g>
   </g>
   <g id="patch_7">
    <path d="M 117.8088 95.515 
C 118.417441 95.515 119.001236 95.273184 119.43161 94.84281 
C 119.861984 94.412436 120.1038 93.828641 120.1038 93.22 
C 120.1038 92.611359 119.861984 92.027564 119.43161 91.59719 
C 119.001236 91.166816 118.417441 90.925 117.8088 90.925 
C 117.200159 90.925 116.616364 91.166816 116.18599 91.59719 
C 115.755616 92.027564 115.5138 92.611359 115.5138 93.22 
C 115.5138 93.828641 115.755616 94.412436 116.18599 94.84281 
C 116.616364 95.273184 117.200159 95.515 117.8088 95.515 
z
" clip-path="url(#pd1f4caf020)" style="stroke: #000000; stroke-width: 2; stroke-linejoin: miter"/>
   </g>
   <g id="patch_8">
    <path d="M 33.6588 95.515 
C 34.267441 95.515 34.851236 95.273184 35.28161 94.84281 
C 35.711984 94.412436 35.9538 93.828641 35.9538 93.22 
C 35.9538 92.611359 35.711984 92.027564 35.28161 91.59719 
C 34.851236 91.166816 34.267441 90.925 33.6588 90.925 
C 33.050159 90.925 32.466364 91.166816 32.03599 91.59719 
C 31.605616 92.027564 31.3638 92.611359 31.3638 93.22 
C 31.3638 93.828641 31.605616 94.412436 32.03599 94.84281 
C 32.466364 95.273184 33.050159 95.515 33.6588 95.515 
z
" clip-path="url(#pd1f4caf020)" style="fill: #ffffff; stroke: #000000; stroke-width: 2; stroke-linejoin: miter"/>
   </g>
   <g id="text_3">
    <g clip-path="url(#pd1f4caf020)">
     <!-- $V_{out2}$ -->
     <g transform="translate(19.2213 85.265391)scale(0.125 -0.125)">
      <defs>
       <path id="DejaVuSans-Oblique-6f" d="M 1625 -91 
Q 1009 -91 651 289 
Q 294 669 294 1325 
Q 294 1706 417 2101 
Q 541 2497 738 2766 
Q 1047 3184 1428 3384 
Q 1809 3584 2291 3584 
Q 2888 3584 3255 3212 
Q 3622 2841 3622 2241 
Q 3622 1825 3500 1412 
Q 3378 1000 3181 728 
Q 2875 309 2494 109 
Q 2113 -91 1625 -91 
z
M 891 1344 
Q 891 869 1089 633 
Q 1288 397 1691 397 
Q 2269 397 2648 901 
Q 3028 1406 3028 2181 
Q 3028 2634 2825 2865 
Q 2622 3097 2228 3097 
Q 1903 3097 1650 2945 
Q 1397 2794 1197 2484 
Q 1050 2253 970 1956 
Q 891 1659 891 1344 
z
" transform="scale(0.015625)"/>
       <path id="DejaVuSans-Oblique-75" d="M 428 1388 
L 838 3500 
L 1416 3500 
L 1006 1409 
Q 975 1256 961 1147 
Q 947 1038 947 966 
Q 947 700 1109 554 
Q 1272 409 1569 409 
Q 2031 409 2368 721 
Q 2706 1034 2809 1563 
L 3194 3500 
L 3769 3500 
L 3091 0 
L 2516 0 
L 2631 550 
Q 2388 244 2052 76 
Q 1716 -91 1338 -91 
Q 878 -91 622 161 
Q 366 413 366 863 
Q 366 956 381 1097 
Q 397 1238 428 1388 
z
" transform="scale(0.015625)"/>
       <path id="DejaVuSans-Oblique-74" d="M 2706 3500 
L 2619 3053 
L 1472 3053 
L 1100 1153 
Q 1081 1047 1072 975 
Q 1063 903 1063 863 
Q 1063 663 1183 572 
Q 1303 481 1569 481 
L 2150 481 
L 2053 0 
L 1503 0 
Q 991 0 739 200 
Q 488 400 488 806 
Q 488 878 497 964 
Q 506 1050 525 1153 
L 897 3053 
L 409 3053 
L 500 3500 
L 978 3500 
L 1172 4494 
L 1747 4494 
L 1556 3500 
L 2706 3500 
z
" transform="scale(0.015625)"/>
       <path id="DejaVuSans-32" d="M 1228 531 
L 3431 531 
L 3431 0 
L 469 0 
L 469 531 
Q 828 903 1448 1529 
Q 2069 2156 2228 2338 
Q 2531 2678 2651 2914 
Q 2772 3150 2772 3378 
Q 2772 3750 2511 3984 
Q 2250 4219 1831 4219 
Q 1534 4219 1204 4116 
Q 875 4013 500 3803 
L 500 4441 
Q 881 4594 1212 4672 
Q 1544 4750 1819 4750 
Q 2544 4750 2975 4387 
Q 3406 4025 3406 3419 
Q 3406 3131 3298 2873 
Q 3191 2616 2906 2266 
Q 2828 2175 2409 1742 
Q 1991 1309 1228 531 
z
" transform="scale(0.015625)"/>
      </defs>
      <use xlink:href="#DejaVuSans-Oblique-56" transform="translate(0 0.09375)"/>
      <use xlink:href="#DejaVuSans-Oblique-6f" transform="translate(68.408203 -16.3125)scale(0.7)"/>
      <use xlink:href="#DejaVuSans-Oblique-75" transform="translate(111.235352 -16.3125)scale(0.7)"/>
      <use xlink:href="#DejaVuSans-Oblique-74" transform="translate(155.600586 -16.3125)scale(0.7)"/>
      <use xlink:href="#DejaVuSans-32" transform="translate(183.046875 -16.3125)scale(0.7)"/>
     </g>
    </g>
   </g>
   <g id="patch_9">
    <path d="M 163.7088 95.515 
C 164.317441 95.515 164.901236 95.273184 165.33161 94.84281 
C 165.761984 94.412436 166.0038 93.828641 166.0038 93.22 
C 166.0038 92.611359 165.761984 92.027564 165.33161 91.59719 
C 164.901236 91.166816 164.317441 90.925 163.7088 90.925 
C 163.100159 90.925 162.516364 91.166816 162.08599 91.59719 
C 161.655616 92.027564 161.4138 92.611359 161.4138 93.22 
C 161.4138 93.828641 161.655616 94.412436 162.08599 94.84281 
C 162.516364 95.273184 163.100159 95.515 163.7088 95.515 
z
" clip-path="url(#pd1f4caf020)" style="stroke: #000000; stroke-width: 2; stroke-linejoin: miter"/>
   </g>
   <g id="patch_10">
    <path d="M 247.8588 95.515 
C 248.467441 95.515 249.051236 95.273184 249.48161 94.84281 
C 249.911984 94.412436 250.1538 93.828641 250.1538 93.22 
C 250.1538 92.611359 249.911984 92.027564 249.48161 91.59719 
C 249.051236 91.166816 248.467441 90.925 247.8588 90.925 
C 247.250159 90.925 246.666364 91.166816 246.23599 91.59719 
C 245.805616 92.027564 245.5638 92.611359 245.5638 93.22 
C 245.5638 93.828641 245.805616 94.412436 246.23599 94.84281 
C 246.666364 95.273184 247.250159 95.515 247.8588 95.515 
z
" clip-path="url(#pd1f4caf020)" style="fill: #ffffff; stroke: #000000; stroke-width: 2; stroke-linejoin: miter"/>
   </g>
   <g id="text_4">
    <g clip-path="url(#pd1f4caf020)">
     <!-- $V_{out1}$ -->
     <g transform="translate(233.4213 85.265391)scale(0.125 -0.125)">
      <defs>
       <path id="DejaVuSans-31" d="M 794 531 
L 1825 531 
L 1825 4091 
L 703 3866 
L 703 4441 
L 1819 4666 
L 2450 4666 
L 2450 531 
L 3481 531 
L 3481 0 
L 794 0 
L 794 531 
z
" transform="scale(0.015625)"/>
      </defs>
      <use xlink:href="#DejaVuSans-Oblique-56" transform="translate(0 0.09375)"/>
      <use xlink:href="#DejaVuSans-Oblique-6f" transform="translate(68.408203 -16.3125)scale(0.7)"/>
      <use xlink:href="#DejaVuSans-Oblique-75" transform="translate(111.235352 -16.3125)scale(0.7)"/>
      <use xlink:href="#DejaVuSans-Oblique-74" transform="translate(155.600586 -16.3125)scale(0.7)"/>
      <use xlink:href="#DejaVuSans-31" transform="translate(183.046875 -16.3125)scale(0.7)"/>
     </g>
    </g>
   </g>
   <g id="patch_11">
    <path d="M 182.5788 210.265 
C 183.187441 210.265 183.771236 210.023184 184.20161 209.59281 
C 184.631984 209.162436 184.8738 208.578641 184.8738 207.97 
C 184.8738 207.361359 184.631984 206.777564 184.20161 206.34719 
C 183.771236 205.916816 183.187441 205.675 182.5788 205.675 
C 181.970159 205.675 181.386364 205.916816 180.95599 206.34719 
C 180.525616 206.777564 180.2838 207.361359 180.2838 207.97 
C 180.2838 208.578641 180.525616 209.162436 180.95599 209.59281 
C 181.386364 210.023184 181.970159 210.265 182.5788 210.265 
z
" clip-path="url(#pd1f4caf020)" style="fill: #ffffff; stroke: #000000; stroke-width: 2; stroke-linejoin: miter"/>
   </g>
   <g id="text_5">
    <g clip-path="url(#pd1f4caf020)">
     <!-- $V_{b}$ -->
     <g transform="translate(175.3288 200.015391)scale(0.125 -0.125)">
      <defs>
       <path id="DejaVuSans-Oblique-62" d="M 3169 2138 
Q 3169 2591 2961 2847 
Q 2753 3103 2388 3103 
Q 2122 3103 1889 2973 
Q 1656 2844 1484 2597 
Q 1303 2338 1198 1995 
Q 1094 1653 1094 1313 
Q 1094 881 1298 636 
Q 1503 391 1863 391 
Q 2134 391 2365 517 
Q 2597 644 2772 891 
Q 2950 1147 3059 1487 
Q 3169 1828 3169 2138 
z
M 1381 2969 
Q 1594 3256 1914 3420 
Q 2234 3584 2584 3584 
Q 3122 3584 3439 3221 
Q 3756 2859 3756 2241 
Q 3756 1734 3570 1259 
Q 3384 784 3041 416 
Q 2816 172 2522 40 
Q 2228 -91 1906 -91 
Q 1566 -91 1316 65 
Q 1066 222 909 531 
L 806 0 
L 231 0 
L 1178 4863 
L 1753 4863 
L 1381 2969 
z
" transform="scale(0.015625)"/>
      </defs>
      <use xlink:href="#DejaVuSans-Oblique-56" transform="translate(0 0.09375)"/>
      <use xlink:href="#DejaVuSans-Oblique-62" transform="translate(68.408203 -16.3125)scale(0.7)"/>
     </g>
    </g>
   </g>
   <g id="patch_12">
    <path d="M 205.5288 141.415 
C 206.137441 141.415 206.721236 141.173184 207.15161 140.74281 
C 207.581984 140.312436 207.8238 139.728641 207.8238 139.12 
C 207.8238 138.511359 207.581984 137.927564 207.15161 137.49719 
C 206.721236 137.066816 206.137441 136.825 205.5288 136.825 
C 204.920159 136.825 204.336364 137.066816 203.90599 137.49719 
C 203.475616 137.927564 203.2338 138.511359 203.2338 139.12 
C 203.2338 139.728641 203.475616 140.312436 203.90599 140.74281 
C 204.336364 141.173184 204.920159 141.415 205.5288 141.415 
z
" clip-path="url(#pd1f4caf020)" style="fill: #ffffff; stroke: #000000; stroke-width: 2; stroke-linejoin: miter"/>
   </g>
   <g id="text_6">
    <g clip-path="url(#pd1f4caf020)">
     <!-- $V_{1}$ -->
     <g transform="translate(198.2788 131.165391)scale(0.125 -0.125)">
      <use xlink:href="#DejaVuSans-Oblique-56" transform="translate(0 0.09375)"/>
      <use xlink:href="#DejaVuSans-31" transform="translate(68.408203 -16.3125)scale(0.7)"/>
     </g>
    </g>
   </g>
   <g id="patch_13">
    <path d="M 75.9888 141.415 
C 76.597441 141.415 77.181236 141.173184 77.61161 140.74281 
C 78.041984 140.312436 78.2838 139.728641 78.2838 139.12 
C 78.2838 138.511359 78.041984 137.927564 77.61161 137.49719 
C 77.181236 137.066816 76.597441 136.825 75.9888 136.825 
C 75.380159 136.825 74.796364 137.066816 74.36599 137.49719 
C 73.935616 137.927564 73.6938 138.511359 73.6938 139.12 
C 73.6938 139.728641 73.935616 140.312436 74.36599 140.74281 
C 74.796364 141.173184 75.380159 141.415 75.9888 141.415 
z
" clip-path="url(#pd1f4caf020)" style="fill: #ffffff; stroke: #000000; stroke-width: 2; stroke-linejoin: miter"/>
   </g>
   <g id="text_7">
    <g clip-path="url(#pd1f4caf020)">
     <!-- $V_{2}$ -->
     <g transform="translate(68.7388 131.165391)scale(0.125 -0.125)">
      <use xlink:href="#DejaVuSans-Oblique-56" transform="translate(0 0.09375)"/>
      <use xlink:href="#DejaVuSans-32" transform="translate(68.408203 -16.3125)scale(0.7)"/>
     </g>
    </g>
   </g>
   <g id="patch_14">
    <path d="M 75.9888 72.565 
C 76.597441 72.565 77.181236 72.323184 77.61161 71.89281 
C 78.041984 71.462436 78.2838 70.878641 78.2838 70.27 
C 78.2838 69.661359 78.041984 69.077564 77.61161 68.64719 
C 77.181236 68.216816 76.597441 67.975 75.9888 67.975 
C 75.380159 67.975 74.796364 68.216816 74.36599 68.64719 
C 73.935616 69.077564 73.6938 69.661359 73.6938 70.27 
C 73.6938 70.878641 73.935616 71.462436 74.36599 71.89281 
C 74.796364 72.323184 75.380159 72.565 75.9888 72.565 
z
" clip-path="url(#pd1f4caf020)" style="fill: #ffffff; stroke: #000000; stroke-width: 2; stroke-linejoin: miter"/>
   </g>
   <g id="text_8">
    <g clip-path="url(#pd1f4caf020)">
     <!-- $V_{a}$ -->
     <g transform="translate(68.8013 62.315391)scale(0.125 -0.125)">
      <defs>
       <path id="DejaVuSans-Oblique-61" d="M 3438 1997 
L 3047 0 
L 2472 0 
L 2578 531 
Q 2325 219 2001 64 
Q 1678 -91 1281 -91 
Q 834 -91 548 182 
Q 263 456 263 884 
Q 263 1497 752 1853 
Q 1241 2209 2100 2209 
L 2900 2209 
L 2931 2363 
Q 2938 2388 2941 2417 
Q 2944 2447 2944 2509 
Q 2944 2788 2717 2942 
Q 2491 3097 2081 3097 
Q 1800 3097 1504 3025 
Q 1209 2953 897 2809 
L 997 3341 
Q 1322 3463 1633 3523 
Q 1944 3584 2234 3584 
Q 2853 3584 3176 3315 
Q 3500 3047 3500 2534 
Q 3500 2431 3484 2292 
Q 3469 2153 3438 1997 
z
M 2816 1759 
L 2241 1759 
Q 1534 1759 1195 1570 
Q 856 1381 856 984 
Q 856 709 1029 553 
Q 1203 397 1509 397 
Q 1978 397 2328 733 
Q 2678 1069 2791 1631 
L 2816 1759 
z
" transform="scale(0.015625)"/>
      </defs>
      <use xlink:href="#DejaVuSans-Oblique-56" transform="translate(0 0.09375)"/>
      <use xlink:href="#DejaVuSans-Oblique-61" transform="translate(68.408203 -16.3125)scale(0.7)"/>
     </g>
    </g>
   </g>
   <g id="patch_15">
    <path d="M 205.5288 72.565 
C 206.137441 72.565 206.721236 72.323184 207.15161 71.89281 
C 207.581984 71.462436 207.8238 70.878641 207.8238 70.27 
C 207.8238 69.661359 207.581984 69.077564 207.15161 68.64719 
C 206.721236 68.216816 206.137441 67.975 205.5288 67.975 
C 204.920159 67.975 204.336364 68.216816 203.90599 68.64719 
C 203.475616 69.077564 203.2338 69.661359 203.2338 70.27 
C 203.2338 70.878641 203.475616 71.462436 203.90599 71.89281 
C 204.336364 72.323184 204.920159 72.565 205.5288 72.565 
z
" clip-path="url(#pd1f4caf020)" style="fill: #ffffff; stroke: #000000; stroke-width: 2; stroke-linejoin: miter"/>
   </g>
   <g id="text_9">
    <g clip-path="url(#pd1f4caf020)">
     <!-- $V_{a}$ -->
     <g transform="translate(198.3413 62.315391)scale(0.125 -0.125)">
      <use xlink:href="#DejaVuSans-Oblique-56" transform="translate(0 0.09375)"/>
      <use xlink:href="#DejaVuSans-Oblique-61" transform="translate(68.408203 -16.3125)scale(0.7)"/>
     </g>
    </g>
   </g>
  </g>
 </g>
 <defs>
  <clipPath id="pd1f4caf020">
   <rect x="7.2" y="7.2" width="273.2376" height="246.364"/>
  </clipPath>
 </defs>
</svg>
