<?xml version="1.0" encoding="utf-8" standalone="no"?>
<!DOCTYPE svg PUBLIC "-//W3C//DTD SVG 1.1//EN"
  "http://www.w3.org/Graphics/SVG/1.1/DTD/svg11.dtd">
<svg xmlns:xlink="http://www.w3.org/1999/xlink" width="393.1923pt" height="360.214pt" viewBox="0 0 393.1923 360.214" xmlns="http://www.w3.org/2000/svg" version="1.1">
 <metadata>
  <rdf:RDF xmlns:dc="http://purl.org/dc/elements/1.1/" xmlns:cc="http://creativecommons.org/ns#" xmlns:rdf="http://www.w3.org/1999/02/22-rdf-syntax-ns#">
   <cc:Work>
    <dc:type rdf:resource="http://purl.org/dc/dcmitype/StillImage"/>
    <dc:date>2022-02-27T00:31:03.365998</dc:date>
    <dc:format>image/svg+xml</dc:format>
    <dc:creator>
     <cc:Agent>
      <dc:title>Matplotlib v3.5.1, https://matplotlib.org/</dc:title>
     </cc:Agent>
    </dc:creator>
   </cc:Work>
  </rdf:RDF>
 </metadata>
 <defs>
  <style type="text/css">*{stroke-linejoin: round; stroke-linecap: butt}</style>
 </defs>
 <g id="figure_1">
  <g id="patch_1">
   <path d="M 0 360.214 
L 393.1923 360.214 
L 393.1923 0 
L 0 0 
L 0 360.214 
z
" style="fill: none"/>
  </g>
  <g id="axes_1">
   <g id="patch_2">
    <path d="M 121.185 119.74 
C 122.131775 119.74 123.0399 119.363842 123.709371 118.694371 
C 124.378842 118.0249 124.755 117.116775 124.755 116.17 
C 124.755 115.223225 124.378842 114.3151 123.709371 113.645629 
C 123.0399 112.976158 122.131775 112.6 121.185 112.6 
C 120.238225 112.6 119.3301 112.976158 118.660629 113.645629 
C 117.991158 114.3151 117.615 115.223225 117.615 116.17 
C 117.615 117.116775 117.991158 118.0249 118.660629 118.694371 
C 119.3301 119.363842 120.238225 119.74 121.185 119.74 
L 121.185 119.74 
z
" clip-path="url(#pe5b45b1389)" style="fill: none; stroke: #000000; stroke-width: 2; stroke-linejoin: miter"/>
   </g>
   <g id="patch_3">
    <path d="M 121.185 73.84 
C 122.131775 73.84 123.0399 73.463842 123.709371 72.794371 
C 124.378842 72.1249 124.755 71.216775 124.755 70.27 
C 124.755 69.323225 124.378842 68.4151 123.709371 67.745629 
C 123.0399 67.076158 122.131775 66.7 121.185 66.7 
C 120.238225 66.7 119.3301 67.076158 118.660629 67.745629 
C 117.991158 68.4151 117.615 69.323225 117.615 70.27 
C 117.615 71.216775 117.991158 72.1249 118.660629 72.794371 
C 119.3301 73.463842 120.238225 73.84 121.185 73.84 
L 121.185 73.84 
z
" clip-path="url(#pe5b45b1389)" style="fill: none; stroke: #000000; stroke-width: 2; stroke-linejoin: miter"/>
   </g>
   <g id="patch_4">
    <path d="M 225.225 73.84 
C 226.171775 73.84 227.0799 73.463842 227.749371 72.794371 
C 228.418842 72.1249 228.795 71.216775 228.795 70.27 
C 228.795 69.323225 228.418842 68.4151 227.749371 67.745629 
C 227.0799 67.076158 226.171775 66.7 225.225 66.7 
C 224.278225 66.7 223.3701 67.076158 222.700629 67.745629 
C 222.031158 68.4151 221.655 69.323225 221.655 70.27 
C 221.655 71.216775 222.031158 72.1249 222.700629 72.794371 
C 223.3701 73.463842 224.278225 73.84 225.225 73.84 
L 225.225 73.84 
z
" clip-path="url(#pe5b45b1389)" style="fill: none; stroke: #000000; stroke-width: 2; stroke-linejoin: miter"/>
   </g>
   <g id="patch_5">
    <path d="M 225.225 119.74 
C 226.171775 119.74 227.0799 119.363842 227.749371 118.694371 
C 228.418842 118.0249 228.795 117.116775 228.795 116.17 
C 228.795 115.223225 228.418842 114.3151 227.749371 113.645629 
C 227.0799 112.976158 226.171775 112.6 225.225 112.6 
C 224.278225 112.6 223.3701 112.976158 222.700629 113.645629 
C 222.031158 114.3151 221.655 115.223225 221.655 116.17 
C 221.655 117.116775 222.031158 118.0249 222.700629 118.694371 
C 223.3701 119.363842 224.278225 119.74 225.225 119.74 
L 225.225 119.74 
z
" clip-path="url(#pe5b45b1389)" style="fill: none; stroke: #000000; stroke-width: 2; stroke-linejoin: miter"/>
   </g>
   <g id="patch_6">
    <path d="M 41.625 73.84 
C 42.571775 73.84 43.4799 73.463842 44.149371 72.794371 
C 44.818842 72.1249 45.195 71.216775 45.195 70.27 
C 45.195 69.323225 44.818842 68.4151 44.149371 67.745629 
C 43.4799 67.076158 42.571775 66.7 41.625 66.7 
C 40.678225 66.7 39.7701 67.076158 39.100629 67.745629 
C 38.431158 68.4151 38.055 69.323225 38.055 70.27 
C 38.055 71.216775 38.431158 72.1249 39.100629 72.794371 
C 39.7701 73.463842 40.678225 73.84 41.625 73.84 
L 41.625 73.84 
z
" clip-path="url(#pe5b45b1389)" style="fill: none; stroke: #000000; stroke-width: 2; stroke-linejoin: miter"/>
   </g>
   <g id="patch_7">
    <path d="M 41.625 119.74 
C 42.571775 119.74 43.4799 119.363842 44.149371 118.694371 
C 44.818842 118.0249 45.195 117.116775 45.195 116.17 
C 45.195 115.223225 44.818842 114.3151 44.149371 113.645629 
C 43.4799 112.976158 42.571775 112.6 41.625 112.6 
C 40.678225 112.6 39.7701 112.976158 39.100629 113.645629 
C 38.431158 114.3151 38.055 115.223225 38.055 116.17 
C 38.055 117.116775 38.431158 118.0249 39.100629 118.694371 
C 39.7701 119.363842 40.678225 119.74 41.625 119.74 
L 41.625 119.74 
z
" clip-path="url(#pe5b45b1389)" style="fill: none; stroke: #000000; stroke-width: 2; stroke-linejoin: miter"/>
   </g>
   <g id="patch_8">
    <path d="M 304.785 119.74 
C 305.731775 119.74 306.6399 119.363842 307.309371 118.694371 
C 307.978842 118.0249 308.355 117.116775 308.355 116.17 
C 308.355 115.223225 307.978842 114.3151 307.309371 113.645629 
C 306.6399 112.976158 305.731775 112.6 304.785 112.6 
C 303.838225 112.6 302.9301 112.976158 302.260629 113.645629 
C 301.591158 114.3151 301.215 115.223225 301.215 116.17 
C 301.215 117.116775 301.591158 118.0249 302.260629 118.694371 
C 302.9301 119.363842 303.838225 119.74 304.785 119.74 
L 304.785 119.74 
z
" clip-path="url(#pe5b45b1389)" style="fill: none; stroke: #000000; stroke-width: 2; stroke-linejoin: miter"/>
   </g>
   <g id="patch_9">
    <path d="M 304.785 73.84 
C 305.731775 73.84 306.6399 73.463842 307.309371 72.794371 
C 307.978842 72.1249 308.355 71.216775 308.355 70.27 
C 308.355 69.323225 307.978842 68.4151 307.309371 67.745629 
C 306.6399 67.076158 305.731775 66.7 304.785 66.7 
C 303.838225 66.7 302.9301 67.076158 302.260629 67.745629 
C 301.591158 68.4151 301.215 69.323225 301.215 70.27 
C 301.215 71.216775 301.591158 72.1249 302.260629 72.794371 
C 302.9301 73.463842 303.838225 73.84 304.785 73.84 
L 304.785 73.84 
z
" clip-path="url(#pe5b45b1389)" style="fill: none; stroke: #000000; stroke-width: 2; stroke-linejoin: miter"/>
   </g>
   <g id="line2d_1">
    <path d="M 173.205 284.47 
L 173.205 297.22 
L 193.605 297.22 
L 193.605 317.62 
L 173.205 317.62 
L 173.205 330.37 
" clip-path="url(#pe5b45b1389)" style="fill: none; stroke: #000000; stroke-width: 2; stroke-linecap: round"/>
   </g>
   <g id="line2d_2">
    <path d="M 198.705 297.22 
L 198.705 317.62 
" clip-path="url(#pe5b45b1389)" style="fill: none; stroke: #000000; stroke-width: 2; stroke-linecap: round"/>
   </g>
   <g id="line2d_3">
    <path d="M 198.705 307.42 
L 215.025 307.42 
" clip-path="url(#pe5b45b1389)" style="fill: none; stroke: #000000; stroke-width: 2; stroke-linecap: round"/>
   </g>
   <g id="line2d_4">
    <path d="M 173.205 330.37 
L 173.205 342.61 
L 165.555 342.61 
L 180.855 342.61 
M 167.85 346.282 
L 178.56 346.282 
M 171.675 349.954 
L 174.735 349.954 
" clip-path="url(#pe5b45b1389)" style="fill: none; stroke: #000000; stroke-width: 2; stroke-linecap: round"/>
   </g>
   <g id="line2d_5">
    <path d="M 173.205 284.47 
L 173.205 242.395 
L 173.205 200.32 
" clip-path="url(#pe5b45b1389)" style="fill: none; stroke: #000000; stroke-width: 2; stroke-linecap: round"/>
   </g>
   <g id="line2d_6">
    <path d="M 173.205 200.32 
L 161.73 200.32 
L 150.255 200.32 
" clip-path="url(#pe5b45b1389)" style="fill: none; stroke: #000000; stroke-width: 2; stroke-linecap: round"/>
   </g>
   <g id="line2d_7">
    <path d="M 150.255 200.32 
L 150.255 187.57 
L 129.855 187.57 
L 129.855 167.17 
L 150.255 167.17 
L 150.255 154.42 
" clip-path="url(#pe5b45b1389)" style="fill: none; stroke: #000000; stroke-width: 2; stroke-linecap: round"/>
   </g>
   <g id="line2d_8">
    <path d="M 124.755 187.57 
L 124.755 167.17 
" clip-path="url(#pe5b45b1389)" style="fill: none; stroke: #000000; stroke-width: 2; stroke-linecap: round"/>
   </g>
   <g id="line2d_9">
    <path d="M 124.755 177.37 
L 108.435 177.37 
" clip-path="url(#pe5b45b1389)" style="fill: none; stroke: #000000; stroke-width: 2; stroke-linecap: round"/>
   </g>
   <g id="line2d_10">
    <path d="M 150.255 177.37 
L 137.505 177.37 
" clip-path="url(#pe5b45b1389)" style="fill: none; stroke: #000000; stroke-width: 2; stroke-linecap: round"/>
   </g>
   <g id="patch_10">
    <path d="M 137.505 180.43 
L 129.855 177.37 
L 137.505 174.31 
z
" clip-path="url(#pe5b45b1389)"/>
   </g>
   <g id="line2d_11">
    <path d="M 150.255 154.42 
L 150.255 146.77 
L 150.255 139.12 
" clip-path="url(#pe5b45b1389)" style="fill: none; stroke: #000000; stroke-width: 2; stroke-linecap: round"/>
   </g>
   <g id="line2d_12">
    <path d="M 150.255 139.12 
L 150.255 126.37 
L 129.855 126.37 
L 129.855 105.97 
L 150.255 105.97 
L 150.255 93.22 
" clip-path="url(#pe5b45b1389)" style="fill: none; stroke: #000000; stroke-width: 2; stroke-linecap: round"/>
   </g>
   <g id="line2d_13">
    <path d="M 124.755 126.37 
L 124.755 105.97 
" clip-path="url(#pe5b45b1389)" style="fill: none; stroke: #000000; stroke-width: 2; stroke-linecap: round"/>
   </g>
   <g id="line2d_14">
    <path d="M 117.615 116.17 
L 108.435 116.17 
" clip-path="url(#pe5b45b1389)" style="fill: none; stroke: #000000; stroke-width: 2; stroke-linecap: round"/>
   </g>
   <g id="line2d_15">
    <path d="M 150.255 93.22 
L 150.255 80.47 
L 129.855 80.47 
L 129.855 60.07 
L 150.255 60.07 
L 150.255 47.32 
" clip-path="url(#pe5b45b1389)" style="fill: none; stroke: #000000; stroke-width: 2; stroke-linecap: round"/>
   </g>
   <g id="line2d_16">
    <path d="M 124.755 80.47 
L 124.755 60.07 
" clip-path="url(#pe5b45b1389)" style="fill: none; stroke: #000000; stroke-width: 2; stroke-linecap: round"/>
   </g>
   <g id="line2d_17">
    <path d="M 117.615 70.27 
L 108.435 70.27 
" clip-path="url(#pe5b45b1389)" style="fill: none; stroke: #000000; stroke-width: 2; stroke-linecap: round"/>
   </g>
   <g id="line2d_18">
    <path d="M 150.255 139.12 
L 129.345 139.12 
L 108.435 139.12 
" clip-path="url(#pe5b45b1389)" style="fill: none; stroke: #000000; stroke-width: 2; stroke-linecap: round"/>
   </g>
   <g id="line2d_19">
    <path d="M 108.435 139.12 
L 93.135 139.12 
L 77.835 139.12 
" clip-path="url(#pe5b45b1389)" style="fill: none; stroke: #000000; stroke-width: 2; stroke-linecap: round"/>
   </g>
   <g id="line2d_20">
    <path d="M 77.835 139.12 
L 77.835 104.695 
L 77.835 70.27 
" clip-path="url(#pe5b45b1389)" style="fill: none; stroke: #000000; stroke-width: 2; stroke-linecap: round"/>
   </g>
   <g id="line2d_21">
    <path d="M 150.255 47.32 
L 161.73 47.32 
L 173.205 47.32 
" clip-path="url(#pe5b45b1389)" style="fill: none; stroke: #000000; stroke-width: 2; stroke-linecap: round"/>
   </g>
   <g id="line2d_22">
    <path d="M 173.205 47.32 
L 173.205 35.08 
" clip-path="url(#pe5b45b1389)" style="fill: none; stroke: #000000; stroke-width: 2; stroke-linecap: round"/>
   </g>
   <g id="line2d_23">
    <path d="M 173.205 35.08 
L 167.4675 35.08 
" clip-path="url(#pe5b45b1389)" style="fill: none; stroke: #000000; stroke-width: 2; stroke-linecap: round"/>
   </g>
   <g id="line2d_24">
    <path d="M 173.205 35.08 
L 178.9425 35.08 
" clip-path="url(#pe5b45b1389)" style="fill: none; stroke: #000000; stroke-width: 2; stroke-linecap: round"/>
   </g>
   <g id="line2d_25">
    <path d="M 173.205 47.32 
L 184.68 47.32 
L 196.155 47.32 
" clip-path="url(#pe5b45b1389)" style="fill: none; stroke: #000000; stroke-width: 2; stroke-linecap: round"/>
   </g>
   <g id="line2d_26">
    <path d="M 196.155 47.32 
L 196.155 60.07 
L 216.555 60.07 
L 216.555 80.47 
L 196.155 80.47 
L 196.155 93.22 
" clip-path="url(#pe5b45b1389)" style="fill: none; stroke: #000000; stroke-width: 2; stroke-linecap: round"/>
   </g>
   <g id="line2d_27">
    <path d="M 221.655 60.07 
L 221.655 80.47 
" clip-path="url(#pe5b45b1389)" style="fill: none; stroke: #000000; stroke-width: 2; stroke-linecap: round"/>
   </g>
   <g id="line2d_28">
    <path d="M 228.795 70.27 
L 237.975 70.27 
" clip-path="url(#pe5b45b1389)" style="fill: none; stroke: #000000; stroke-width: 2; stroke-linecap: round"/>
   </g>
   <g id="line2d_29">
    <path d="M 196.155 93.22 
L 196.155 105.97 
L 216.555 105.97 
L 216.555 126.37 
L 196.155 126.37 
L 196.155 139.12 
" clip-path="url(#pe5b45b1389)" style="fill: none; stroke: #000000; stroke-width: 2; stroke-linecap: round"/>
   </g>
   <g id="line2d_30">
    <path d="M 221.655 105.97 
L 221.655 126.37 
" clip-path="url(#pe5b45b1389)" style="fill: none; stroke: #000000; stroke-width: 2; stroke-linecap: round"/>
   </g>
   <g id="line2d_31">
    <path d="M 228.795 116.17 
L 237.975 116.17 
" clip-path="url(#pe5b45b1389)" style="fill: none; stroke: #000000; stroke-width: 2; stroke-linecap: round"/>
   </g>
   <g id="line2d_32">
    <path d="M 196.155 139.12 
L 217.065 139.12 
L 237.975 139.12 
" clip-path="url(#pe5b45b1389)" style="fill: none; stroke: #000000; stroke-width: 2; stroke-linecap: round"/>
   </g>
   <g id="line2d_33">
    <path d="M 237.975 139.12 
L 253.275 139.12 
L 268.575 139.12 
" clip-path="url(#pe5b45b1389)" style="fill: none; stroke: #000000; stroke-width: 2; stroke-linecap: round"/>
   </g>
   <g id="line2d_34">
    <path d="M 268.575 139.12 
L 268.575 104.695 
L 268.575 70.27 
" clip-path="url(#pe5b45b1389)" style="fill: none; stroke: #000000; stroke-width: 2; stroke-linecap: round"/>
   </g>
   <g id="line2d_35">
    <path d="M 196.155 139.12 
L 196.155 146.77 
L 196.155 154.42 
" clip-path="url(#pe5b45b1389)" style="fill: none; stroke: #000000; stroke-width: 2; stroke-linecap: round"/>
   </g>
   <g id="line2d_36">
    <path d="M 196.155 154.42 
L 196.155 167.17 
L 216.555 167.17 
L 216.555 187.57 
L 196.155 187.57 
L 196.155 200.32 
" clip-path="url(#pe5b45b1389)" style="fill: none; stroke: #000000; stroke-width: 2; stroke-linecap: round"/>
   </g>
   <g id="line2d_37">
    <path d="M 221.655 167.17 
L 221.655 187.57 
" clip-path="url(#pe5b45b1389)" style="fill: none; stroke: #000000; stroke-width: 2; stroke-linecap: round"/>
   </g>
   <g id="line2d_38">
    <path d="M 221.655 177.37 
L 237.975 177.37 
" clip-path="url(#pe5b45b1389)" style="fill: none; stroke: #000000; stroke-width: 2; stroke-linecap: round"/>
   </g>
   <g id="line2d_39">
    <path d="M 196.155 177.37 
L 208.905 177.37 
" clip-path="url(#pe5b45b1389)" style="fill: none; stroke: #000000; stroke-width: 2; stroke-linecap: round"/>
   </g>
   <g id="patch_11">
    <path d="M 208.905 174.31 
L 216.555 177.37 
L 208.905 180.43 
z
" clip-path="url(#pe5b45b1389)"/>
   </g>
   <g id="line2d_40">
    <path d="M 196.155 200.32 
L 184.68 200.32 
L 173.205 200.32 
" clip-path="url(#pe5b45b1389)" style="fill: none; stroke: #000000; stroke-width: 2; stroke-linecap: round"/>
   </g>
   <g id="line2d_41">
    <path d="M 150.255 47.32 
L 81.405 47.32 
L 12.555 47.32 
" clip-path="url(#pe5b45b1389)" style="fill: none; stroke: #000000; stroke-width: 2; stroke-linecap: round"/>
   </g>
   <g id="line2d_42">
    <path d="M 12.555 47.32 
L 12.555 60.07 
L 32.955 60.07 
L 32.955 80.47 
L 12.555 80.47 
L 12.555 93.22 
" clip-path="url(#pe5b45b1389)" style="fill: none; stroke: #000000; stroke-width: 2; stroke-linecap: round"/>
   </g>
   <g id="line2d_43">
    <path d="M 38.055 60.07 
L 38.055 80.47 
" clip-path="url(#pe5b45b1389)" style="fill: none; stroke: #000000; stroke-width: 2; stroke-linecap: round"/>
   </g>
   <g id="line2d_44">
    <path d="M 45.195 70.27 
L 54.375 70.27 
" clip-path="url(#pe5b45b1389)" style="fill: none; stroke: #000000; stroke-width: 2; stroke-linecap: round"/>
   </g>
   <g id="line2d_45">
    <path d="M 12.555 93.22 
L 12.555 105.97 
L 32.955 105.97 
L 32.955 126.37 
L 12.555 126.37 
L 12.555 139.12 
" clip-path="url(#pe5b45b1389)" style="fill: none; stroke: #000000; stroke-width: 2; stroke-linecap: round"/>
   </g>
   <g id="line2d_46">
    <path d="M 38.055 105.97 
L 38.055 126.37 
" clip-path="url(#pe5b45b1389)" style="fill: none; stroke: #000000; stroke-width: 2; stroke-linecap: round"/>
   </g>
   <g id="line2d_47">
    <path d="M 45.195 116.17 
L 54.375 116.17 
" clip-path="url(#pe5b45b1389)" style="fill: none; stroke: #000000; stroke-width: 2; stroke-linecap: round"/>
   </g>
   <g id="line2d_48">
    <path d="M 12.555 139.12 
L 12.555 161.305 
L 12.555 183.49 
" clip-path="url(#pe5b45b1389)" style="fill: none; stroke: #000000; stroke-width: 2; stroke-linecap: round"/>
   </g>
   <g id="line2d_49">
    <path d="M 12.555 183.49 
L 12.555 196.24 
L 32.955 196.24 
L 32.955 216.64 
L 12.555 216.64 
L 12.555 229.39 
" clip-path="url(#pe5b45b1389)" style="fill: none; stroke: #000000; stroke-width: 2; stroke-linecap: round"/>
   </g>
   <g id="line2d_50">
    <path d="M 38.055 196.24 
L 38.055 216.64 
" clip-path="url(#pe5b45b1389)" style="fill: none; stroke: #000000; stroke-width: 2; stroke-linecap: round"/>
   </g>
   <g id="line2d_51">
    <path d="M 38.055 206.44 
L 54.375 206.44 
" clip-path="url(#pe5b45b1389)" style="fill: none; stroke: #000000; stroke-width: 2; stroke-linecap: round"/>
   </g>
   <g id="line2d_52">
    <path d="M 12.555 229.39 
L 12.555 242.14 
L 32.955 242.14 
L 32.955 262.54 
L 12.555 262.54 
L 12.555 275.29 
" clip-path="url(#pe5b45b1389)" style="fill: none; stroke: #000000; stroke-width: 2; stroke-linecap: round"/>
   </g>
   <g id="line2d_53">
    <path d="M 38.055 242.14 
L 38.055 262.54 
" clip-path="url(#pe5b45b1389)" style="fill: none; stroke: #000000; stroke-width: 2; stroke-linecap: round"/>
   </g>
   <g id="line2d_54">
    <path d="M 38.055 252.34 
L 54.375 252.34 
" clip-path="url(#pe5b45b1389)" style="fill: none; stroke: #000000; stroke-width: 2; stroke-linecap: round"/>
   </g>
   <g id="line2d_55">
    <path d="M 12.555 275.29 
L 12.555 302.83 
L 12.555 330.37 
" clip-path="url(#pe5b45b1389)" style="fill: none; stroke: #000000; stroke-width: 2; stroke-linecap: round"/>
   </g>
   <g id="line2d_56">
    <path d="M 12.555 330.37 
L 92.88 330.37 
L 173.205 330.37 
" clip-path="url(#pe5b45b1389)" style="fill: none; stroke: #000000; stroke-width: 2; stroke-linecap: round"/>
   </g>
   <g id="line2d_57">
    <path d="M 173.205 330.37 
L 253.53 330.37 
L 333.855 330.37 
" clip-path="url(#pe5b45b1389)" style="fill: none; stroke: #000000; stroke-width: 2; stroke-linecap: round"/>
   </g>
   <g id="line2d_58">
    <path d="M 333.855 330.37 
L 333.855 302.83 
L 333.855 275.29 
" clip-path="url(#pe5b45b1389)" style="fill: none; stroke: #000000; stroke-width: 2; stroke-linecap: round"/>
   </g>
   <g id="line2d_59">
    <path d="M 333.855 275.29 
L 333.855 262.54 
L 313.455 262.54 
L 313.455 242.14 
L 333.855 242.14 
L 333.855 229.39 
" clip-path="url(#pe5b45b1389)" style="fill: none; stroke: #000000; stroke-width: 2; stroke-linecap: round"/>
   </g>
   <g id="line2d_60">
    <path d="M 308.355 262.54 
L 308.355 242.14 
" clip-path="url(#pe5b45b1389)" style="fill: none; stroke: #000000; stroke-width: 2; stroke-linecap: round"/>
   </g>
   <g id="line2d_61">
    <path d="M 308.355 252.34 
L 292.035 252.34 
" clip-path="url(#pe5b45b1389)" style="fill: none; stroke: #000000; stroke-width: 2; stroke-linecap: round"/>
   </g>
   <g id="line2d_62">
    <path d="M 333.855 229.39 
L 333.855 216.64 
L 313.455 216.64 
L 313.455 196.24 
L 333.855 196.24 
L 333.855 183.49 
" clip-path="url(#pe5b45b1389)" style="fill: none; stroke: #000000; stroke-width: 2; stroke-linecap: round"/>
   </g>
   <g id="line2d_63">
    <path d="M 308.355 216.64 
L 308.355 196.24 
" clip-path="url(#pe5b45b1389)" style="fill: none; stroke: #000000; stroke-width: 2; stroke-linecap: round"/>
   </g>
   <g id="line2d_64">
    <path d="M 308.355 206.44 
L 292.035 206.44 
" clip-path="url(#pe5b45b1389)" style="fill: none; stroke: #000000; stroke-width: 2; stroke-linecap: round"/>
   </g>
   <g id="line2d_65">
    <path d="M 333.855 183.49 
L 333.855 172.015 
L 333.855 160.54 
" clip-path="url(#pe5b45b1389)" style="fill: none; stroke: #000000; stroke-width: 2; stroke-linecap: round"/>
   </g>
   <g id="line2d_66">
    <path d="M 333.855 160.54 
L 333.855 149.83 
L 333.855 139.12 
" clip-path="url(#pe5b45b1389)" style="fill: none; stroke: #000000; stroke-width: 2; stroke-linecap: round"/>
   </g>
   <g id="line2d_67">
    <path d="M 333.855 139.12 
L 333.855 126.37 
L 313.455 126.37 
L 313.455 105.97 
L 333.855 105.97 
L 333.855 93.22 
" clip-path="url(#pe5b45b1389)" style="fill: none; stroke: #000000; stroke-width: 2; stroke-linecap: round"/>
   </g>
   <g id="line2d_68">
    <path d="M 308.355 126.37 
L 308.355 105.97 
" clip-path="url(#pe5b45b1389)" style="fill: none; stroke: #000000; stroke-width: 2; stroke-linecap: round"/>
   </g>
   <g id="line2d_69">
    <path d="M 301.215 116.17 
L 292.035 116.17 
" clip-path="url(#pe5b45b1389)" style="fill: none; stroke: #000000; stroke-width: 2; stroke-linecap: round"/>
   </g>
   <g id="line2d_70">
    <path d="M 333.855 93.22 
L 333.855 80.47 
L 313.455 80.47 
L 313.455 60.07 
L 333.855 60.07 
L 333.855 47.32 
" clip-path="url(#pe5b45b1389)" style="fill: none; stroke: #000000; stroke-width: 2; stroke-linecap: round"/>
   </g>
   <g id="line2d_71">
    <path d="M 308.355 80.47 
L 308.355 60.07 
" clip-path="url(#pe5b45b1389)" style="fill: none; stroke: #000000; stroke-width: 2; stroke-linecap: round"/>
   </g>
   <g id="line2d_72">
    <path d="M 301.215 70.27 
L 292.035 70.27 
" clip-path="url(#pe5b45b1389)" style="fill: none; stroke: #000000; stroke-width: 2; stroke-linecap: round"/>
   </g>
   <g id="line2d_73">
    <path d="M 333.855 47.32 
L 333.855 47.32 
L 333.855 47.32 
" clip-path="url(#pe5b45b1389)" style="fill: none; stroke: #000000; stroke-width: 2; stroke-linecap: round"/>
   </g>
   <g id="line2d_74">
    <path d="M 333.855 47.32 
L 265.005 47.32 
L 196.155 47.32 
" clip-path="url(#pe5b45b1389)" style="fill: none; stroke: #000000; stroke-width: 2; stroke-linecap: round"/>
   </g>
   <g id="line2d_75">
    <path d="M 54.375 252.34 
L 65.85 252.34 
L 77.325 252.34 
" clip-path="url(#pe5b45b1389)" style="fill: none; stroke: #000000; stroke-width: 2; stroke-linecap: round"/>
   </g>
   <g id="line2d_76">
    <path d="M 77.325 252.34 
L 77.325 217.915 
L 77.325 183.49 
" clip-path="url(#pe5b45b1389)" style="fill: none; stroke: #000000; stroke-width: 2; stroke-linecap: round"/>
   </g>
   <g id="line2d_77">
    <path d="M 77.325 183.49 
L 44.94 183.49 
L 12.555 183.49 
" clip-path="url(#pe5b45b1389)" style="fill: none; stroke: #000000; stroke-width: 2; stroke-linecap: round"/>
   </g>
   <g id="line2d_78">
    <path d="M 54.375 70.27 
L 81.405 70.27 
L 108.435 70.27 
" clip-path="url(#pe5b45b1389)" style="fill: none; stroke: #000000; stroke-width: 2; stroke-linecap: round"/>
   </g>
   <g id="line2d_79">
    <path d="M 237.975 70.27 
L 265.005 70.27 
L 292.035 70.27 
" clip-path="url(#pe5b45b1389)" style="fill: none; stroke: #000000; stroke-width: 2; stroke-linecap: round"/>
   </g>
   <g id="line2d_80">
    <path d="M 54.375 252.34 
L 173.205 252.34 
L 292.035 252.34 
" clip-path="url(#pe5b45b1389)" style="fill: none; stroke: #000000; stroke-width: 2; stroke-linecap: round"/>
   </g>
   <g id="line2d_81">
    <path d="M 150.255 177.37 
L 154.08 177.37 
L 157.905 177.37 
" clip-path="url(#pe5b45b1389)" style="fill: none; stroke: #000000; stroke-width: 2; stroke-linecap: round"/>
   </g>
   <g id="line2d_82">
    <path d="M 157.905 177.37 
L 157.905 188.845 
L 157.905 200.32 
" clip-path="url(#pe5b45b1389)" style="fill: none; stroke: #000000; stroke-width: 2; stroke-linecap: round"/>
   </g>
   <g id="line2d_83">
    <path d="M 196.155 177.37 
L 192.33 177.37 
L 188.505 177.37 
" clip-path="url(#pe5b45b1389)" style="fill: none; stroke: #000000; stroke-width: 2; stroke-linecap: round"/>
   </g>
   <g id="line2d_84">
    <path d="M 188.505 177.37 
L 188.505 188.845 
L 188.505 200.32 
" clip-path="url(#pe5b45b1389)" style="fill: none; stroke: #000000; stroke-width: 2; stroke-linecap: round"/>
   </g>
   <g id="line2d_85">
    <path d="M 333.855 160.54 
L 345.33 160.54 
L 356.805 160.54 
" clip-path="url(#pe5b45b1389)" style="fill: none; stroke: #000000; stroke-width: 2; stroke-linecap: round"/>
   </g>
   <g id="text_1">
    <g clip-path="url(#pe5b45b1389)">
     <!-- $I_{b}$ -->
     <g transform="translate(160.52 310.869219)scale(0.125 -0.125)">
      <defs>
       <path id="DejaVuSans-Oblique-49" d="M 1081 4666 
L 1716 4666 
L 806 0 
L 172 0 
L 1081 4666 
z
" transform="scale(0.015625)"/>
       <path id="DejaVuSans-Oblique-62" d="M 3169 2138 
Q 3169 2591 2961 2847 
Q 2753 3103 2388 3103 
Q 2122 3103 1889 2973 
Q 1656 2844 1484 2597 
Q 1303 2338 1198 1995 
Q 1094 1653 1094 1313 
Q 1094 881 1298 636 
Q 1503 391 1863 391 
Q 2134 391 2365 517 
Q 2597 644 2772 891 
Q 2950 1147 3059 1487 
Q 3169 1828 3169 2138 
z
M 1381 2969 
Q 1594 3256 1914 3420 
Q 2234 3584 2584 3584 
Q 3122 3584 3439 3221 
Q 3756 2859 3756 2241 
Q 3756 1734 3570 1259 
Q 3384 784 3041 416 
Q 2816 172 2522 40 
Q 2228 -91 1906 -91 
Q 1566 -91 1316 65 
Q 1066 222 909 531 
L 806 0 
L 231 0 
L 1178 4863 
L 1753 4863 
L 1381 2969 
z
" transform="scale(0.015625)"/>
      </defs>
      <use xlink:href="#DejaVuSans-Oblique-49" transform="translate(0 0.09375)"/>
      <use xlink:href="#DejaVuSans-Oblique-62" transform="translate(29.492188 -16.3125)scale(0.7)"/>
     </g>
    </g>
   </g>
   <g id="text_2">
    <g clip-path="url(#pe5b45b1389)">
     <!-- $V_{dd}$ -->
     <g transform="translate(163.1425 29.420391)scale(0.125 -0.125)">
      <defs>
       <path id="DejaVuSans-Oblique-56" d="M 1319 0 
L 500 4666 
L 1119 4666 
L 1797 653 
L 4063 4666 
L 4750 4666 
L 2053 0 
L 1319 0 
z
" transform="scale(0.015625)"/>
       <path id="DejaVuSans-Oblique-64" d="M 2675 525 
Q 2444 222 2128 65 
Q 1813 -91 1428 -91 
Q 903 -91 598 267 
Q 294 625 294 1247 
Q 294 1766 478 2236 
Q 663 2706 1013 3078 
Q 1244 3325 1534 3454 
Q 1825 3584 2144 3584 
Q 2481 3584 2739 3421 
Q 2997 3259 3138 2956 
L 3513 4863 
L 4091 4863 
L 3144 0 
L 2566 0 
L 2675 525 
z
M 891 1350 
Q 891 897 1095 644 
Q 1300 391 1663 391 
Q 1931 391 2161 520 
Q 2391 650 2566 903 
Q 2750 1166 2856 1509 
Q 2963 1853 2963 2188 
Q 2963 2622 2758 2865 
Q 2553 3109 2194 3109 
Q 1922 3109 1687 2981 
Q 1453 2853 1288 2613 
Q 1106 2353 998 2009 
Q 891 1666 891 1350 
z
" transform="scale(0.015625)"/>
      </defs>
      <use xlink:href="#DejaVuSans-Oblique-56" transform="translate(0 0.09375)"/>
      <use xlink:href="#DejaVuSans-Oblique-64" transform="translate(68.408203 -16.3125)scale(0.7)"/>
      <use xlink:href="#DejaVuSans-Oblique-64" transform="translate(112.841797 -16.3125)scale(0.7)"/>
     </g>
    </g>
   </g>
   <g id="patch_12">
    <path d="M 173.205 332.665 
C 173.813641 332.665 174.397436 332.423184 174.82781 331.99281 
C 175.258184 331.562436 175.5 330.978641 175.5 330.37 
C 175.5 329.761359 175.258184 329.177564 174.82781 328.74719 
C 174.397436 328.316816 173.813641 328.075 173.205 328.075 
C 172.596359 328.075 172.012564 328.316816 171.58219 328.74719 
C 171.151816 329.177564 170.91 329.761359 170.91 330.37 
C 170.91 330.978641 171.151816 331.562436 171.58219 331.99281 
C 172.012564 332.423184 172.596359 332.665 173.205 332.665 
z
" clip-path="url(#pe5b45b1389)" style="stroke: #000000; stroke-width: 2; stroke-linejoin: miter"/>
   </g>
   <g id="patch_13">
    <path d="M 173.205 202.615 
C 173.813641 202.615 174.397436 202.373184 174.82781 201.94281 
C 175.258184 201.512436 175.5 200.928641 175.5 200.32 
C 175.5 199.711359 175.258184 199.127564 174.82781 198.69719 
C 174.397436 198.266816 173.813641 198.025 173.205 198.025 
C 172.596359 198.025 172.012564 198.266816 171.58219 198.69719 
C 171.151816 199.127564 170.91 199.711359 170.91 200.32 
C 170.91 200.928641 171.151816 201.512436 171.58219 201.94281 
C 172.012564 202.373184 172.596359 202.615 173.205 202.615 
z
" clip-path="url(#pe5b45b1389)" style="stroke: #000000; stroke-width: 2; stroke-linejoin: miter"/>
   </g>
   <g id="patch_14">
    <path d="M 150.255 141.415 
C 150.863641 141.415 151.447436 141.173184 151.87781 140.74281 
C 152.308184 140.312436 152.55 139.728641 152.55 139.12 
C 152.55 138.511359 152.308184 137.927564 151.87781 137.49719 
C 151.447436 137.066816 150.863641 136.825 150.255 136.825 
C 149.646359 136.825 149.062564 137.066816 148.63219 137.49719 
C 148.201816 137.927564 147.96 138.511359 147.96 139.12 
C 147.96 139.728641 148.201816 140.312436 148.63219 140.74281 
C 149.062564 141.173184 149.646359 141.415 150.255 141.415 
z
" clip-path="url(#pe5b45b1389)" style="stroke: #000000; stroke-width: 2; stroke-linejoin: miter"/>
   </g>
   <g id="patch_15">
    <path d="M 77.835 72.565 
C 78.443641 72.565 79.027436 72.323184 79.45781 71.89281 
C 79.888184 71.462436 80.13 70.878641 80.13 70.27 
C 80.13 69.661359 79.888184 69.077564 79.45781 68.64719 
C 79.027436 68.216816 78.443641 67.975 77.835 67.975 
C 77.226359 67.975 76.642564 68.216816 76.21219 68.64719 
C 75.781816 69.077564 75.54 69.661359 75.54 70.27 
C 75.54 70.878641 75.781816 71.462436 76.21219 71.89281 
C 76.642564 72.323184 77.226359 72.565 77.835 72.565 
z
" clip-path="url(#pe5b45b1389)" style="stroke: #000000; stroke-width: 2; stroke-linejoin: miter"/>
   </g>
   <g id="patch_16">
    <path d="M 196.155 141.415 
C 196.763641 141.415 197.347436 141.173184 197.77781 140.74281 
C 198.208184 140.312436 198.45 139.728641 198.45 139.12 
C 198.45 138.511359 198.208184 137.927564 197.77781 137.49719 
C 197.347436 137.066816 196.763641 136.825 196.155 136.825 
C 195.546359 136.825 194.962564 137.066816 194.53219 137.49719 
C 194.101816 137.927564 193.86 138.511359 193.86 139.12 
C 193.86 139.728641 194.101816 140.312436 194.53219 140.74281 
C 194.962564 141.173184 195.546359 141.415 196.155 141.415 
z
" clip-path="url(#pe5b45b1389)" style="stroke: #000000; stroke-width: 2; stroke-linejoin: miter"/>
   </g>
   <g id="patch_17">
    <path d="M 268.575 72.565 
C 269.183641 72.565 269.767436 72.323184 270.19781 71.89281 
C 270.628184 71.462436 270.87 70.878641 270.87 70.27 
C 270.87 69.661359 270.628184 69.077564 270.19781 68.64719 
C 269.767436 68.216816 269.183641 67.975 268.575 67.975 
C 267.966359 67.975 267.382564 68.216816 266.95219 68.64719 
C 266.521816 69.077564 266.28 69.661359 266.28 70.27 
C 266.28 70.878641 266.521816 71.462436 266.95219 71.89281 
C 267.382564 72.323184 267.966359 72.565 268.575 72.565 
z
" clip-path="url(#pe5b45b1389)" style="stroke: #000000; stroke-width: 2; stroke-linejoin: miter"/>
   </g>
   <g id="patch_18">
    <path d="M 333.855 162.835 
C 334.463641 162.835 335.047436 162.593184 335.47781 162.16281 
C 335.908184 161.732436 336.15 161.148641 336.15 160.54 
C 336.15 159.931359 335.908184 159.347564 335.47781 158.91719 
C 335.047436 158.486816 334.463641 158.245 333.855 158.245 
C 333.246359 158.245 332.662564 158.486816 332.23219 158.91719 
C 331.801816 159.347564 331.56 159.931359 331.56 160.54 
C 331.56 161.148641 331.801816 161.732436 332.23219 162.16281 
C 332.662564 162.593184 333.246359 162.835 333.855 162.835 
z
" clip-path="url(#pe5b45b1389)" style="stroke: #000000; stroke-width: 2; stroke-linejoin: miter"/>
   </g>
   <g id="patch_19">
    <path d="M 77.325 254.635 
C 77.933641 254.635 78.517436 254.393184 78.94781 253.96281 
C 79.378184 253.532436 79.62 252.948641 79.62 252.34 
C 79.62 251.731359 79.378184 251.147564 78.94781 250.71719 
C 78.517436 250.286816 77.933641 250.045 77.325 250.045 
C 76.716359 250.045 76.132564 250.286816 75.70219 250.71719 
C 75.271816 251.147564 75.03 251.731359 75.03 252.34 
C 75.03 252.948641 75.271816 253.532436 75.70219 253.96281 
C 76.132564 254.393184 76.716359 254.635 77.325 254.635 
z
" clip-path="url(#pe5b45b1389)" style="stroke: #000000; stroke-width: 2; stroke-linejoin: miter"/>
   </g>
   <g id="patch_20">
    <path d="M 12.555 185.785 
C 13.163641 185.785 13.747436 185.543184 14.17781 185.11281 
C 14.608184 184.682436 14.85 184.098641 14.85 183.49 
C 14.85 182.881359 14.608184 182.297564 14.17781 181.86719 
C 13.747436 181.436816 13.163641 181.195 12.555 181.195 
C 11.946359 181.195 11.362564 181.436816 10.93219 181.86719 
C 10.501816 182.297564 10.26 182.881359 10.26 183.49 
C 10.26 184.098641 10.501816 184.682436 10.93219 185.11281 
C 11.362564 185.543184 11.946359 185.785 12.555 185.785 
z
" clip-path="url(#pe5b45b1389)" style="stroke: #000000; stroke-width: 2; stroke-linejoin: miter"/>
   </g>
   <g id="patch_21">
    <path d="M 157.905 202.615 
C 158.513641 202.615 159.097436 202.373184 159.52781 201.94281 
C 159.958184 201.512436 160.2 200.928641 160.2 200.32 
C 160.2 199.711359 159.958184 199.127564 159.52781 198.69719 
C 159.097436 198.266816 158.513641 198.025 157.905 198.025 
C 157.296359 198.025 156.712564 198.266816 156.28219 198.69719 
C 155.851816 199.127564 155.61 199.711359 155.61 200.32 
C 155.61 200.928641 155.851816 201.512436 156.28219 201.94281 
C 156.712564 202.373184 157.296359 202.615 157.905 202.615 
z
" clip-path="url(#pe5b45b1389)" style="stroke: #000000; stroke-width: 2; stroke-linejoin: miter"/>
   </g>
   <g id="patch_22">
    <path d="M 188.505 202.615 
C 189.113641 202.615 189.697436 202.373184 190.12781 201.94281 
C 190.558184 201.512436 190.8 200.928641 190.8 200.32 
C 190.8 199.711359 190.558184 199.127564 190.12781 198.69719 
C 189.697436 198.266816 189.113641 198.025 188.505 198.025 
C 187.896359 198.025 187.312564 198.266816 186.88219 198.69719 
C 186.451816 199.127564 186.21 199.711359 186.21 200.32 
C 186.21 200.928641 186.451816 201.512436 186.88219 201.94281 
C 187.312564 202.373184 187.896359 202.615 188.505 202.615 
z
" clip-path="url(#pe5b45b1389)" style="stroke: #000000; stroke-width: 2; stroke-linejoin: miter"/>
   </g>
   <g id="patch_23">
    <path d="M 356.805 162.835 
C 357.413641 162.835 357.997436 162.593184 358.42781 162.16281 
C 358.858184 161.732436 359.1 161.148641 359.1 160.54 
C 359.1 159.931359 358.858184 159.347564 358.42781 158.91719 
C 357.997436 158.486816 357.413641 158.245 356.805 158.245 
C 356.196359 158.245 355.612564 158.486816 355.18219 158.91719 
C 354.751816 159.347564 354.51 159.931359 354.51 160.54 
C 354.51 161.148641 354.751816 161.732436 355.18219 162.16281 
C 355.612564 162.593184 356.196359 162.835 356.805 162.835 
z
" clip-path="url(#pe5b45b1389)" style="fill: #ffffff; stroke: #000000; stroke-width: 2; stroke-linejoin: miter"/>
   </g>
   <g id="text_3">
    <g clip-path="url(#pe5b45b1389)">
     <!-- $V_{out}$ -->
     <g transform="translate(345.18 152.585391)scale(0.125 -0.125)">
      <defs>
       <path id="DejaVuSans-Oblique-6f" d="M 1625 -91 
Q 1009 -91 651 289 
Q 294 669 294 1325 
Q 294 1706 417 2101 
Q 541 2497 738 2766 
Q 1047 3184 1428 3384 
Q 1809 3584 2291 3584 
Q 2888 3584 3255 3212 
Q 3622 2841 3622 2241 
Q 3622 1825 3500 1412 
Q 3378 1000 3181 728 
Q 2875 309 2494 109 
Q 2113 -91 1625 -91 
z
M 891 1344 
Q 891 869 1089 633 
Q 1288 397 1691 397 
Q 2269 397 2648 901 
Q 3028 1406 3028 2181 
Q 3028 2634 2825 2865 
Q 2622 3097 2228 3097 
Q 1903 3097 1650 2945 
Q 1397 2794 1197 2484 
Q 1050 2253 970 1956 
Q 891 1659 891 1344 
z
" transform="scale(0.015625)"/>
       <path id="DejaVuSans-Oblique-75" d="M 428 1388 
L 838 3500 
L 1416 3500 
L 1006 1409 
Q 975 1256 961 1147 
Q 947 1038 947 966 
Q 947 700 1109 554 
Q 1272 409 1569 409 
Q 2031 409 2368 721 
Q 2706 1034 2809 1563 
L 3194 3500 
L 3769 3500 
L 3091 0 
L 2516 0 
L 2631 550 
Q 2388 244 2052 76 
Q 1716 -91 1338 -91 
Q 878 -91 622 161 
Q 366 413 366 863 
Q 366 956 381 1097 
Q 397 1238 428 1388 
z
" transform="scale(0.015625)"/>
       <path id="DejaVuSans-Oblique-74" d="M 2706 3500 
L 2619 3053 
L 1472 3053 
L 1100 1153 
Q 1081 1047 1072 975 
Q 1063 903 1063 863 
Q 1063 663 1183 572 
Q 1303 481 1569 481 
L 2150 481 
L 2053 0 
L 1503 0 
Q 991 0 739 200 
Q 488 400 488 806 
Q 488 878 497 964 
Q 506 1050 525 1153 
L 897 3053 
L 409 3053 
L 500 3500 
L 978 3500 
L 1172 4494 
L 1747 4494 
L 1556 3500 
L 2706 3500 
z
" transform="scale(0.015625)"/>
      </defs>
      <use xlink:href="#DejaVuSans-Oblique-56" transform="translate(0 0.09375)"/>
      <use xlink:href="#DejaVuSans-Oblique-6f" transform="translate(68.408203 -16.3125)scale(0.7)"/>
      <use xlink:href="#DejaVuSans-Oblique-75" transform="translate(111.235352 -16.3125)scale(0.7)"/>
      <use xlink:href="#DejaVuSans-Oblique-74" transform="translate(155.600586 -16.3125)scale(0.7)"/>
     </g>
    </g>
   </g>
   <g id="patch_24">
    <path d="M 215.025 309.715 
C 215.633641 309.715 216.217436 309.473184 216.64781 309.04281 
C 217.078184 308.612436 217.32 308.028641 217.32 307.42 
C 217.32 306.811359 217.078184 306.227564 216.64781 305.79719 
C 216.217436 305.366816 215.633641 305.125 215.025 305.125 
C 214.416359 305.125 213.832564 305.366816 213.40219 305.79719 
C 212.971816 306.227564 212.73 306.811359 212.73 307.42 
C 212.73 308.028641 212.971816 308.612436 213.40219 309.04281 
C 213.832564 309.473184 214.416359 309.715 215.025 309.715 
z
" clip-path="url(#pe5b45b1389)" style="fill: #ffffff; stroke: #000000; stroke-width: 2; stroke-linejoin: miter"/>
   </g>
   <g id="text_4">
    <g clip-path="url(#pe5b45b1389)">
     <!-- $V_{b}$ -->
     <g transform="translate(207.775 299.465391)scale(0.125 -0.125)">
      <use xlink:href="#DejaVuSans-Oblique-56" transform="translate(0 0.09375)"/>
      <use xlink:href="#DejaVuSans-Oblique-62" transform="translate(68.408203 -16.3125)scale(0.7)"/>
     </g>
    </g>
   </g>
   <g id="patch_25">
    <path d="M 237.975 179.665 
C 238.583641 179.665 239.167436 179.423184 239.59781 178.99281 
C 240.028184 178.562436 240.27 177.978641 240.27 177.37 
C 240.27 176.761359 240.028184 176.177564 239.59781 175.74719 
C 239.167436 175.316816 238.583641 175.075 237.975 175.075 
C 237.366359 175.075 236.782564 175.316816 236.35219 175.74719 
C 235.921816 176.177564 235.68 176.761359 235.68 177.37 
C 235.68 177.978641 235.921816 178.562436 236.35219 178.99281 
C 236.782564 179.423184 237.366359 179.665 237.975 179.665 
z
" clip-path="url(#pe5b45b1389)" style="fill: #ffffff; stroke: #000000; stroke-width: 2; stroke-linejoin: miter"/>
   </g>
   <g id="text_5">
    <g clip-path="url(#pe5b45b1389)">
     <!-- $V_{+}$ -->
     <g transform="translate(229.85 169.415391)scale(0.125 -0.125)">
      <defs>
       <path id="DejaVuSans-2b" d="M 2944 4013 
L 2944 2272 
L 4684 2272 
L 4684 1741 
L 2944 1741 
L 2944 0 
L 2419 0 
L 2419 1741 
L 678 1741 
L 678 2272 
L 2419 2272 
L 2419 4013 
L 2944 4013 
z
" transform="scale(0.015625)"/>
      </defs>
      <use xlink:href="#DejaVuSans-Oblique-56" transform="translate(0 0.09375)"/>
      <use xlink:href="#DejaVuSans-2b" transform="translate(68.408203 -16.3125)scale(0.7)"/>
     </g>
    </g>
   </g>
   <g id="patch_26">
    <path d="M 108.435 179.665 
C 109.043641 179.665 109.627436 179.423184 110.05781 178.99281 
C 110.488184 178.562436 110.73 177.978641 110.73 177.37 
C 110.73 176.761359 110.488184 176.177564 110.05781 175.74719 
C 109.627436 175.316816 109.043641 175.075 108.435 175.075 
C 107.826359 175.075 107.242564 175.316816 106.81219 175.74719 
C 106.381816 176.177564 106.14 176.761359 106.14 177.37 
C 106.14 177.978641 106.381816 178.562436 106.81219 178.99281 
C 107.242564 179.423184 107.826359 179.665 108.435 179.665 
z
" clip-path="url(#pe5b45b1389)" style="fill: #ffffff; stroke: #000000; stroke-width: 2; stroke-linejoin: miter"/>
   </g>
   <g id="text_6">
    <g clip-path="url(#pe5b45b1389)">
     <!-- $V_{-}$ -->
     <g transform="translate(100.31 169.415391)scale(0.125 -0.125)">
      <defs>
       <path id="DejaVuSans-2212" d="M 678 2272 
L 4684 2272 
L 4684 1741 
L 678 1741 
L 678 2272 
z
" transform="scale(0.015625)"/>
      </defs>
      <use xlink:href="#DejaVuSans-Oblique-56" transform="translate(0 0.09375)"/>
      <use xlink:href="#DejaVuSans-2212" transform="translate(68.408203 -16.3125)scale(0.7)"/>
     </g>
    </g>
   </g>
   <g id="patch_27">
    <path d="M 108.435 118.465 
C 109.043641 118.465 109.627436 118.223184 110.05781 117.79281 
C 110.488184 117.362436 110.73 116.778641 110.73 116.17 
C 110.73 115.561359 110.488184 114.977564 110.05781 114.54719 
C 109.627436 114.116816 109.043641 113.875 108.435 113.875 
C 107.826359 113.875 107.242564 114.116816 106.81219 114.54719 
C 106.381816 114.977564 106.14 115.561359 106.14 116.17 
C 106.14 116.778641 106.381816 117.362436 106.81219 117.79281 
C 107.242564 118.223184 107.826359 118.465 108.435 118.465 
z
" clip-path="url(#pe5b45b1389)" style="fill: #ffffff; stroke: #000000; stroke-width: 2; stroke-linejoin: miter"/>
   </g>
   <g id="text_7">
    <g clip-path="url(#pe5b45b1389)">
     <!-- $V_{b1}$ -->
     <g transform="translate(98.3725 108.215391)scale(0.125 -0.125)">
      <defs>
       <path id="DejaVuSans-31" d="M 794 531 
L 1825 531 
L 1825 4091 
L 703 3866 
L 703 4441 
L 1819 4666 
L 2450 4666 
L 2450 531 
L 3481 531 
L 3481 0 
L 794 0 
L 794 531 
z
" transform="scale(0.015625)"/>
      </defs>
      <use xlink:href="#DejaVuSans-Oblique-56" transform="translate(0 0.09375)"/>
      <use xlink:href="#DejaVuSans-Oblique-62" transform="translate(68.408203 -16.3125)scale(0.7)"/>
      <use xlink:href="#DejaVuSans-31" transform="translate(112.841797 -16.3125)scale(0.7)"/>
     </g>
    </g>
   </g>
   <g id="patch_28">
    <path d="M 237.975 118.465 
C 238.583641 118.465 239.167436 118.223184 239.59781 117.79281 
C 240.028184 117.362436 240.27 116.778641 240.27 116.17 
C 240.27 115.561359 240.028184 114.977564 239.59781 114.54719 
C 239.167436 114.116816 238.583641 113.875 237.975 113.875 
C 237.366359 113.875 236.782564 114.116816 236.35219 114.54719 
C 235.921816 114.977564 235.68 115.561359 235.68 116.17 
C 235.68 116.778641 235.921816 117.362436 236.35219 117.79281 
C 236.782564 118.223184 237.366359 118.465 237.975 118.465 
z
" clip-path="url(#pe5b45b1389)" style="fill: #ffffff; stroke: #000000; stroke-width: 2; stroke-linejoin: miter"/>
   </g>
   <g id="text_8">
    <g clip-path="url(#pe5b45b1389)">
     <!-- $V_{b1}$ -->
     <g transform="translate(227.9125 108.215391)scale(0.125 -0.125)">
      <use xlink:href="#DejaVuSans-Oblique-56" transform="translate(0 0.09375)"/>
      <use xlink:href="#DejaVuSans-Oblique-62" transform="translate(68.408203 -16.3125)scale(0.7)"/>
      <use xlink:href="#DejaVuSans-31" transform="translate(112.841797 -16.3125)scale(0.7)"/>
     </g>
    </g>
   </g>
   <g id="patch_29">
    <path d="M 54.375 118.465 
C 54.983641 118.465 55.567436 118.223184 55.99781 117.79281 
C 56.428184 117.362436 56.67 116.778641 56.67 116.17 
C 56.67 115.561359 56.428184 114.977564 55.99781 114.54719 
C 55.567436 114.116816 54.983641 113.875 54.375 113.875 
C 53.766359 113.875 53.182564 114.116816 52.75219 114.54719 
C 52.321816 114.977564 52.08 115.561359 52.08 116.17 
C 52.08 116.778641 52.321816 117.362436 52.75219 117.79281 
C 53.182564 118.223184 53.766359 118.465 54.375 118.465 
z
" clip-path="url(#pe5b45b1389)" style="fill: #ffffff; stroke: #000000; stroke-width: 2; stroke-linejoin: miter"/>
   </g>
   <g id="text_9">
    <g clip-path="url(#pe5b45b1389)">
     <!-- $V_{b1}$ -->
     <g transform="translate(44.3125 108.215391)scale(0.125 -0.125)">
      <use xlink:href="#DejaVuSans-Oblique-56" transform="translate(0 0.09375)"/>
      <use xlink:href="#DejaVuSans-Oblique-62" transform="translate(68.408203 -16.3125)scale(0.7)"/>
      <use xlink:href="#DejaVuSans-31" transform="translate(112.841797 -16.3125)scale(0.7)"/>
     </g>
    </g>
   </g>
   <g id="patch_30">
    <path d="M 292.035 118.465 
C 292.643641 118.465 293.227436 118.223184 293.65781 117.79281 
C 294.088184 117.362436 294.33 116.778641 294.33 116.17 
C 294.33 115.561359 294.088184 114.977564 293.65781 114.54719 
C 293.227436 114.116816 292.643641 113.875 292.035 113.875 
C 291.426359 113.875 290.842564 114.116816 290.41219 114.54719 
C 289.981816 114.977564 289.74 115.561359 289.74 116.17 
C 289.74 116.778641 289.981816 117.362436 290.41219 117.79281 
C 290.842564 118.223184 291.426359 118.465 292.035 118.465 
z
" clip-path="url(#pe5b45b1389)" style="fill: #ffffff; stroke: #000000; stroke-width: 2; stroke-linejoin: miter"/>
   </g>
   <g id="text_10">
    <g clip-path="url(#pe5b45b1389)">
     <!-- $V_{b1}$ -->
     <g transform="translate(281.9725 108.215391)scale(0.125 -0.125)">
      <use xlink:href="#DejaVuSans-Oblique-56" transform="translate(0 0.09375)"/>
      <use xlink:href="#DejaVuSans-Oblique-62" transform="translate(68.408203 -16.3125)scale(0.7)"/>
      <use xlink:href="#DejaVuSans-31" transform="translate(112.841797 -16.3125)scale(0.7)"/>
     </g>
    </g>
   </g>
   <g id="patch_31">
    <path d="M 54.375 208.735 
C 54.983641 208.735 55.567436 208.493184 55.99781 208.06281 
C 56.428184 207.632436 56.67 207.048641 56.67 206.44 
C 56.67 205.831359 56.428184 205.247564 55.99781 204.81719 
C 55.567436 204.386816 54.983641 204.145 54.375 204.145 
C 53.766359 204.145 53.182564 204.386816 52.75219 204.81719 
C 52.321816 205.247564 52.08 205.831359 52.08 206.44 
C 52.08 207.048641 52.321816 207.632436 52.75219 208.06281 
C 53.182564 208.493184 53.766359 208.735 54.375 208.735 
z
" clip-path="url(#pe5b45b1389)" style="fill: #ffffff; stroke: #000000; stroke-width: 2; stroke-linejoin: miter"/>
   </g>
   <g id="text_11">
    <g clip-path="url(#pe5b45b1389)">
     <!-- $V_{b2}$ -->
     <g transform="translate(44.3125 198.485391)scale(0.125 -0.125)">
      <defs>
       <path id="DejaVuSans-32" d="M 1228 531 
L 3431 531 
L 3431 0 
L 469 0 
L 469 531 
Q 828 903 1448 1529 
Q 2069 2156 2228 2338 
Q 2531 2678 2651 2914 
Q 2772 3150 2772 3378 
Q 2772 3750 2511 3984 
Q 2250 4219 1831 4219 
Q 1534 4219 1204 4116 
Q 875 4013 500 3803 
L 500 4441 
Q 881 4594 1212 4672 
Q 1544 4750 1819 4750 
Q 2544 4750 2975 4387 
Q 3406 4025 3406 3419 
Q 3406 3131 3298 2873 
Q 3191 2616 2906 2266 
Q 2828 2175 2409 1742 
Q 1991 1309 1228 531 
z
" transform="scale(0.015625)"/>
      </defs>
      <use xlink:href="#DejaVuSans-Oblique-56" transform="translate(0 0.09375)"/>
      <use xlink:href="#DejaVuSans-Oblique-62" transform="translate(68.408203 -16.3125)scale(0.7)"/>
      <use xlink:href="#DejaVuSans-32" transform="translate(112.841797 -16.3125)scale(0.7)"/>
     </g>
    </g>
   </g>
   <g id="patch_32">
    <path d="M 292.035 208.735 
C 292.643641 208.735 293.227436 208.493184 293.65781 208.06281 
C 294.088184 207.632436 294.33 207.048641 294.33 206.44 
C 294.33 205.831359 294.088184 205.247564 293.65781 204.81719 
C 293.227436 204.386816 292.643641 204.145 292.035 204.145 
C 291.426359 204.145 290.842564 204.386816 290.41219 204.81719 
C 289.981816 205.247564 289.74 205.831359 289.74 206.44 
C 289.74 207.048641 289.981816 207.632436 290.41219 208.06281 
C 290.842564 208.493184 291.426359 208.735 292.035 208.735 
z
" clip-path="url(#pe5b45b1389)" style="fill: #ffffff; stroke: #000000; stroke-width: 2; stroke-linejoin: miter"/>
   </g>
   <g id="text_12">
    <g clip-path="url(#pe5b45b1389)">
     <!-- $V_{b2}$ -->
     <g transform="translate(281.9725 198.485391)scale(0.125 -0.125)">
      <use xlink:href="#DejaVuSans-Oblique-56" transform="translate(0 0.09375)"/>
      <use xlink:href="#DejaVuSans-Oblique-62" transform="translate(68.408203 -16.3125)scale(0.7)"/>
      <use xlink:href="#DejaVuSans-32" transform="translate(112.841797 -16.3125)scale(0.7)"/>
     </g>
    </g>
   </g>
  </g>
 </g>
 <defs>
  <clipPath id="pe5b45b1389">
   <rect x="7.2" y="7.2" width="378.7923" height="345.814"/>
  </clipPath>
 </defs>
</svg>
