<?xml version="1.0" encoding="utf-8" standalone="no"?>
<!DOCTYPE svg PUBLIC "-//W3C//DTD SVG 1.1//EN"
  "http://www.w3.org/Graphics/SVG/1.1/DTD/svg11.dtd">
<svg xmlns:xlink="http://www.w3.org/1999/xlink" width="197.0718pt" height="159.019pt" viewBox="0 0 197.0718 159.019" xmlns="http://www.w3.org/2000/svg" version="1.1">
 <metadata>
  <rdf:RDF xmlns:dc="http://purl.org/dc/elements/1.1/" xmlns:cc="http://creativecommons.org/ns#" xmlns:rdf="http://www.w3.org/1999/02/22-rdf-syntax-ns#">
   <cc:Work>
    <dc:type rdf:resource="http://purl.org/dc/dcmitype/StillImage"/>
    <dc:date>2022-02-27T00:32:37.729759</dc:date>
    <dc:format>image/svg+xml</dc:format>
    <dc:creator>
     <cc:Agent>
      <dc:title>Matplotlib v3.5.1, https://matplotlib.org/</dc:title>
     </cc:Agent>
    </dc:creator>
   </cc:Work>
  </rdf:RDF>
 </metadata>
 <defs>
  <style type="text/css">*{stroke-linejoin: round; stroke-linecap: butt}</style>
 </defs>
 <g id="figure_1">
  <g id="patch_1">
   <path d="M 0 159.019 
L 197.0718 159.019 
L 197.0718 0 
L 0 0 
L 0 159.019 
z
" style="fill: none"/>
  </g>
  <g id="axes_1">
   <g id="line2d_1">
    <path d="M 87.8259 83.275 
L 87.8259 96.025 
L 108.2259 96.025 
L 108.2259 116.425 
L 87.8259 116.425 
L 87.8259 129.175 
" clip-path="url(#p35ba5abf35)" style="fill: none; stroke: #000000; stroke-width: 2; stroke-linecap: round"/>
   </g>
   <g id="line2d_2">
    <path d="M 113.3259 96.025 
L 113.3259 116.425 
" clip-path="url(#p35ba5abf35)" style="fill: none; stroke: #000000; stroke-width: 2; stroke-linecap: round"/>
   </g>
   <g id="line2d_3">
    <path d="M 113.3259 106.225 
L 129.6459 106.225 
" clip-path="url(#p35ba5abf35)" style="fill: none; stroke: #000000; stroke-width: 2; stroke-linecap: round"/>
   </g>
   <g id="line2d_4">
    <path d="M 87.8259 129.175 
L 87.8259 141.415 
L 80.1759 141.415 
L 95.4759 141.415 
M 82.4709 145.087 
L 93.1809 145.087 
M 86.2959 148.759 
L 89.3559 148.759 
" clip-path="url(#p35ba5abf35)" style="fill: none; stroke: #000000; stroke-width: 2; stroke-linecap: round"/>
   </g>
   <g id="line2d_5">
    <path d="M 87.8259 83.275 
L 87.8259 71.8 
L 87.8259 60.325 
" clip-path="url(#p35ba5abf35)" style="fill: none; stroke: #000000; stroke-width: 2; stroke-linecap: round"/>
   </g>
   <g id="line2d_6">
    <path d="M 87.8259 60.325 
L 76.3509 60.325 
L 64.8759 60.325 
" clip-path="url(#p35ba5abf35)" style="fill: none; stroke: #000000; stroke-width: 2; stroke-linecap: round"/>
   </g>
   <g id="line2d_7">
    <path d="M 64.8759 60.325 
L 64.8759 47.575 
L 44.4759 47.575 
L 44.4759 27.175 
L 64.8759 27.175 
L 64.8759 14.425 
" clip-path="url(#p35ba5abf35)" style="fill: none; stroke: #000000; stroke-width: 2; stroke-linecap: round"/>
   </g>
   <g id="line2d_8">
    <path d="M 39.3759 47.575 
L 39.3759 27.175 
" clip-path="url(#p35ba5abf35)" style="fill: none; stroke: #000000; stroke-width: 2; stroke-linecap: round"/>
   </g>
   <g id="line2d_9">
    <path d="M 39.3759 37.375 
L 23.0559 37.375 
" clip-path="url(#p35ba5abf35)" style="fill: none; stroke: #000000; stroke-width: 2; stroke-linecap: round"/>
   </g>
   <g id="line2d_10">
    <path d="M 64.8759 37.375 
L 52.1259 37.375 
" clip-path="url(#p35ba5abf35)" style="fill: none; stroke: #000000; stroke-width: 2; stroke-linecap: round"/>
   </g>
   <g id="patch_2">
    <path d="M 52.1259 40.435 
L 44.4759 37.375 
L 52.1259 34.315 
z
" clip-path="url(#p35ba5abf35)"/>
   </g>
   <g id="line2d_11">
    <path d="M 126.0759 14.425 
L 126.0759 27.175 
L 146.4759 27.175 
L 146.4759 47.575 
L 126.0759 47.575 
L 126.0759 60.325 
" clip-path="url(#p35ba5abf35)" style="fill: none; stroke: #000000; stroke-width: 2; stroke-linecap: round"/>
   </g>
   <g id="line2d_12">
    <path d="M 151.5759 27.175 
L 151.5759 47.575 
" clip-path="url(#p35ba5abf35)" style="fill: none; stroke: #000000; stroke-width: 2; stroke-linecap: round"/>
   </g>
   <g id="line2d_13">
    <path d="M 151.5759 37.375 
L 167.8959 37.375 
" clip-path="url(#p35ba5abf35)" style="fill: none; stroke: #000000; stroke-width: 2; stroke-linecap: round"/>
   </g>
   <g id="line2d_14">
    <path d="M 126.0759 37.375 
L 138.8259 37.375 
" clip-path="url(#p35ba5abf35)" style="fill: none; stroke: #000000; stroke-width: 2; stroke-linecap: round"/>
   </g>
   <g id="patch_3">
    <path d="M 138.8259 34.315 
L 146.4759 37.375 
L 138.8259 40.435 
z
" clip-path="url(#p35ba5abf35)"/>
   </g>
   <g id="line2d_15">
    <path d="M 126.0759 60.325 
L 106.9509 60.325 
L 87.8259 60.325 
" clip-path="url(#p35ba5abf35)" style="fill: none; stroke: #000000; stroke-width: 2; stroke-linecap: round"/>
   </g>
   <g id="line2d_16">
    <path d="M 64.8759 37.375 
L 68.7009 37.375 
L 72.5259 37.375 
" clip-path="url(#p35ba5abf35)" style="fill: none; stroke: #000000; stroke-width: 2; stroke-linecap: round"/>
   </g>
   <g id="line2d_17">
    <path d="M 72.5259 37.375 
L 72.5259 48.85 
L 72.5259 60.325 
" clip-path="url(#p35ba5abf35)" style="fill: none; stroke: #000000; stroke-width: 2; stroke-linecap: round"/>
   </g>
   <g id="line2d_18">
    <path d="M 126.0759 37.375 
L 122.2509 37.375 
L 118.4259 37.375 
" clip-path="url(#p35ba5abf35)" style="fill: none; stroke: #000000; stroke-width: 2; stroke-linecap: round"/>
   </g>
   <g id="line2d_19">
    <path d="M 118.4259 37.375 
L 118.4259 48.85 
L 118.4259 60.325 
" clip-path="url(#p35ba5abf35)" style="fill: none; stroke: #000000; stroke-width: 2; stroke-linecap: round"/>
   </g>
   <g id="patch_4">
    <path d="M 87.8259 62.62 
C 88.434541 62.62 89.018336 62.378184 89.44871 61.94781 
C 89.879084 61.517436 90.1209 60.933641 90.1209 60.325 
C 90.1209 59.716359 89.879084 59.132564 89.44871 58.70219 
C 89.018336 58.271816 88.434541 58.03 87.8259 58.03 
C 87.217259 58.03 86.633464 58.271816 86.20309 58.70219 
C 85.772716 59.132564 85.5309 59.716359 85.5309 60.325 
C 85.5309 60.933641 85.772716 61.517436 86.20309 61.94781 
C 86.633464 62.378184 87.217259 62.62 87.8259 62.62 
z
" clip-path="url(#p35ba5abf35)" style="stroke: #000000; stroke-width: 2; stroke-linejoin: miter"/>
   </g>
   <g id="text_1">
    <g clip-path="url(#p35ba5abf35)">
     <!-- $V_{*}$ -->
     <g transform="translate(81.1384 52.370391)scale(0.125 -0.125)">
      <defs>
       <path id="DejaVuSans-Oblique-56" d="M 1319 0 
L 500 4666 
L 1119 4666 
L 1797 653 
L 4063 4666 
L 4750 4666 
L 2053 0 
L 1319 0 
z
" transform="scale(0.015625)"/>
       <path id="DejaVuSans-2a" d="M 3009 3897 
L 1888 3291 
L 3009 2681 
L 2828 2375 
L 1778 3009 
L 1778 1831 
L 1422 1831 
L 1422 3009 
L 372 2375 
L 191 2681 
L 1313 3291 
L 191 3897 
L 372 4206 
L 1422 3572 
L 1422 4750 
L 1778 4750 
L 1778 3572 
L 2828 4206 
L 3009 3897 
z
" transform="scale(0.015625)"/>
      </defs>
      <use xlink:href="#DejaVuSans-Oblique-56" transform="translate(0 0.09375)"/>
      <use xlink:href="#DejaVuSans-2a" transform="translate(68.408203 -16.3125)scale(0.7)"/>
     </g>
    </g>
   </g>
   <g id="patch_5">
    <path d="M 129.6459 108.52 
C 130.254541 108.52 130.838336 108.278184 131.26871 107.84781 
C 131.699084 107.417436 131.9409 106.833641 131.9409 106.225 
C 131.9409 105.616359 131.699084 105.032564 131.26871 104.60219 
C 130.838336 104.171816 130.254541 103.93 129.6459 103.93 
C 129.037259 103.93 128.453464 104.171816 128.02309 104.60219 
C 127.592716 105.032564 127.3509 105.616359 127.3509 106.225 
C 127.3509 106.833641 127.592716 107.417436 128.02309 107.84781 
C 128.453464 108.278184 129.037259 108.52 129.6459 108.52 
z
" clip-path="url(#p35ba5abf35)" style="fill: #ffffff; stroke: #000000; stroke-width: 2; stroke-linejoin: miter"/>
   </g>
   <g id="text_2">
    <g clip-path="url(#p35ba5abf35)">
     <!-- $V_{b}$ -->
     <g transform="translate(122.3959 98.270391)scale(0.125 -0.125)">
      <defs>
       <path id="DejaVuSans-Oblique-62" d="M 3169 2138 
Q 3169 2591 2961 2847 
Q 2753 3103 2388 3103 
Q 2122 3103 1889 2973 
Q 1656 2844 1484 2597 
Q 1303 2338 1198 1995 
Q 1094 1653 1094 1313 
Q 1094 881 1298 636 
Q 1503 391 1863 391 
Q 2134 391 2365 517 
Q 2597 644 2772 891 
Q 2950 1147 3059 1487 
Q 3169 1828 3169 2138 
z
M 1381 2969 
Q 1594 3256 1914 3420 
Q 2234 3584 2584 3584 
Q 3122 3584 3439 3221 
Q 3756 2859 3756 2241 
Q 3756 1734 3570 1259 
Q 3384 784 3041 416 
Q 2816 172 2522 40 
Q 2228 -91 1906 -91 
Q 1566 -91 1316 65 
Q 1066 222 909 531 
L 806 0 
L 231 0 
L 1178 4863 
L 1753 4863 
L 1381 2969 
z
" transform="scale(0.015625)"/>
      </defs>
      <use xlink:href="#DejaVuSans-Oblique-56" transform="translate(0 0.09375)"/>
      <use xlink:href="#DejaVuSans-Oblique-62" transform="translate(68.408203 -16.3125)scale(0.7)"/>
     </g>
    </g>
   </g>
   <g id="patch_6">
    <path d="M 167.8959 39.67 
C 168.504541 39.67 169.088336 39.428184 169.51871 38.99781 
C 169.949084 38.567436 170.1909 37.983641 170.1909 37.375 
C 170.1909 36.766359 169.949084 36.182564 169.51871 35.75219 
C 169.088336 35.321816 168.504541 35.08 167.8959 35.08 
C 167.287259 35.08 166.703464 35.321816 166.27309 35.75219 
C 165.842716 36.182564 165.6009 36.766359 165.6009 37.375 
C 165.6009 37.983641 165.842716 38.567436 166.27309 38.99781 
C 166.703464 39.428184 167.287259 39.67 167.8959 39.67 
z
" clip-path="url(#p35ba5abf35)" style="fill: #ffffff; stroke: #000000; stroke-width: 2; stroke-linejoin: miter"/>
   </g>
   <g id="text_3">
    <g clip-path="url(#p35ba5abf35)">
     <!-- $V_{1}$ -->
     <g transform="translate(160.6459 29.420391)scale(0.125 -0.125)">
      <defs>
       <path id="DejaVuSans-31" d="M 794 531 
L 1825 531 
L 1825 4091 
L 703 3866 
L 703 4441 
L 1819 4666 
L 2450 4666 
L 2450 531 
L 3481 531 
L 3481 0 
L 794 0 
L 794 531 
z
" transform="scale(0.015625)"/>
      </defs>
      <use xlink:href="#DejaVuSans-Oblique-56" transform="translate(0 0.09375)"/>
      <use xlink:href="#DejaVuSans-31" transform="translate(68.408203 -16.3125)scale(0.7)"/>
     </g>
    </g>
   </g>
   <g id="patch_7">
    <path d="M 23.0559 39.67 
C 23.664541 39.67 24.248336 39.428184 24.67871 38.99781 
C 25.109084 38.567436 25.3509 37.983641 25.3509 37.375 
C 25.3509 36.766359 25.109084 36.182564 24.67871 35.75219 
C 24.248336 35.321816 23.664541 35.08 23.0559 35.08 
C 22.447259 35.08 21.863464 35.321816 21.43309 35.75219 
C 21.002716 36.182564 20.7609 36.766359 20.7609 37.375 
C 20.7609 37.983641 21.002716 38.567436 21.43309 38.99781 
C 21.863464 39.428184 22.447259 39.67 23.0559 39.67 
z
" clip-path="url(#p35ba5abf35)" style="fill: #ffffff; stroke: #000000; stroke-width: 2; stroke-linejoin: miter"/>
   </g>
   <g id="text_4">
    <g clip-path="url(#p35ba5abf35)">
     <!-- $V_{2}$ -->
     <g transform="translate(15.8059 29.420391)scale(0.125 -0.125)">
      <defs>
       <path id="DejaVuSans-32" d="M 1228 531 
L 3431 531 
L 3431 0 
L 469 0 
L 469 531 
Q 828 903 1448 1529 
Q 2069 2156 2228 2338 
Q 2531 2678 2651 2914 
Q 2772 3150 2772 3378 
Q 2772 3750 2511 3984 
Q 2250 4219 1831 4219 
Q 1534 4219 1204 4116 
Q 875 4013 500 3803 
L 500 4441 
Q 881 4594 1212 4672 
Q 1544 4750 1819 4750 
Q 2544 4750 2975 4387 
Q 3406 4025 3406 3419 
Q 3406 3131 3298 2873 
Q 3191 2616 2906 2266 
Q 2828 2175 2409 1742 
Q 1991 1309 1228 531 
z
" transform="scale(0.015625)"/>
      </defs>
      <use xlink:href="#DejaVuSans-Oblique-56" transform="translate(0 0.09375)"/>
      <use xlink:href="#DejaVuSans-32" transform="translate(68.408203 -16.3125)scale(0.7)"/>
     </g>
    </g>
   </g>
  </g>
 </g>
 <defs>
  <clipPath id="p35ba5abf35">
   <rect x="7.2" y="7.2" width="182.6718" height="144.619"/>
  </clipPath>
 </defs>
</svg>
