<?xml version="1.0" encoding="utf-8" standalone="no"?>
<!DOCTYPE svg PUBLIC "-//W3C//DTD SVG 1.1//EN"
  "http://www.w3.org/Graphics/SVG/1.1/DTD/svg11.dtd">
<svg xmlns:xlink="http://www.w3.org/1999/xlink" width="242.319pt" height="306.664pt" viewBox="0 0 242.319 306.664" xmlns="http://www.w3.org/2000/svg" version="1.1">
 <metadata>
  <rdf:RDF xmlns:dc="http://purl.org/dc/elements/1.1/" xmlns:cc="http://creativecommons.org/ns#" xmlns:rdf="http://www.w3.org/1999/02/22-rdf-syntax-ns#">
   <cc:Work>
    <dc:type rdf:resource="http://purl.org/dc/dcmitype/StillImage"/>
    <dc:date>2022-02-27T00:04:46.806204</dc:date>
    <dc:format>image/svg+xml</dc:format>
    <dc:creator>
     <cc:Agent>
      <dc:title>Matplotlib v3.5.1, https://matplotlib.org/</dc:title>
     </cc:Agent>
    </dc:creator>
   </cc:Work>
  </rdf:RDF>
 </metadata>
 <defs>
  <style type="text/css">*{stroke-linejoin: round; stroke-linecap: butt}</style>
 </defs>
 <g id="figure_1">
  <g id="patch_1">
   <path d="M 0 306.664 
L 242.319 306.664 
L 242.319 0 
L 0 0 
L 0 306.664 
z
" style="fill: none"/>
  </g>
  <g id="axes_1">
   <g id="patch_2">
    <path d="M 91.1817 246.22 
C 95.239307 246.22 99.131272 244.607895 102.000434 241.738734 
C 104.869595 238.869572 106.4817 234.977607 106.4817 230.92 
C 106.4817 226.862393 104.869595 222.970428 102.000434 220.101266 
C 99.131272 217.232105 95.239307 215.62 91.1817 215.62 
C 87.124093 215.62 83.232128 217.232105 80.362966 220.101266 
C 77.493805 222.970428 75.8817 226.862393 75.8817 230.92 
C 75.8817 234.977607 77.493805 238.869572 80.362966 241.738734 
C 83.232128 244.607895 87.124093 246.22 91.1817 246.22 
L 91.1817 246.22 
z
" clip-path="url(#pc3fb200707)" style="fill: none; stroke: #000000; stroke-width: 2; stroke-linejoin: miter"/>
   </g>
   <g id="patch_3">
    <path d="M 39.1617 165.64 
C 40.108475 165.64 41.0166 165.263842 41.686071 164.594371 
C 42.355542 163.9249 42.7317 163.016775 42.7317 162.07 
C 42.7317 161.123225 42.355542 160.2151 41.686071 159.545629 
C 41.0166 158.876158 40.108475 158.5 39.1617 158.5 
C 38.214925 158.5 37.3068 158.876158 36.637329 159.545629 
C 35.967858 160.2151 35.5917 161.123225 35.5917 162.07 
C 35.5917 163.016775 35.967858 163.9249 36.637329 164.594371 
C 37.3068 165.263842 38.214925 165.64 39.1617 165.64 
L 39.1617 165.64 
z
" clip-path="url(#pc3fb200707)" style="fill: none; stroke: #000000; stroke-width: 2; stroke-linejoin: miter"/>
   </g>
   <g id="line2d_1">
    <path d="M 91.1817 185.02 
L 91.1817 215.62 
L 91.1817 215.62 
M 91.1817 246.22 
L 91.1817 246.22 
L 91.1817 276.82 
" clip-path="url(#pc3fb200707)" style="fill: none; stroke: #000000; stroke-width: 2; stroke-linecap: round"/>
   </g>
   <g id="line2d_2">
    <path d="M 91.1817 223.27 
L 91.1817 230.92 
" clip-path="url(#pc3fb200707)" style="fill: none; stroke: #000000; stroke-width: 2; stroke-linecap: round"/>
   </g>
   <g id="patch_4">
    <path d="M 93.4767 230.92 
L 91.1817 238.57 
L 88.8867 230.92 
z
" clip-path="url(#pc3fb200707)"/>
   </g>
   <g id="line2d_3">
    <path d="M 91.1817 276.82 
L 91.1817 289.06 
L 83.5317 289.06 
L 98.8317 289.06 
M 85.8267 292.732 
L 96.5367 292.732 
M 89.6517 296.404 
L 92.7117 296.404 
" clip-path="url(#pc3fb200707)" style="fill: none; stroke: #000000; stroke-width: 2; stroke-linecap: round"/>
   </g>
   <g id="line2d_4">
    <path d="M 91.1817 185.02 
L 79.7067 185.02 
L 68.2317 185.02 
" clip-path="url(#pc3fb200707)" style="fill: none; stroke: #000000; stroke-width: 2; stroke-linecap: round"/>
   </g>
   <g id="line2d_5">
    <path d="M 68.2317 185.02 
L 68.2317 172.27 
L 47.8317 172.27 
L 47.8317 151.87 
L 68.2317 151.87 
L 68.2317 139.12 
" clip-path="url(#pc3fb200707)" style="fill: none; stroke: #000000; stroke-width: 2; stroke-linecap: round"/>
   </g>
   <g id="line2d_6">
    <path d="M 42.7317 172.27 
L 42.7317 151.87 
" clip-path="url(#pc3fb200707)" style="fill: none; stroke: #000000; stroke-width: 2; stroke-linecap: round"/>
   </g>
   <g id="line2d_7">
    <path d="M 35.5917 162.07 
L 26.4117 162.07 
" clip-path="url(#pc3fb200707)" style="fill: none; stroke: #000000; stroke-width: 2; stroke-linecap: round"/>
   </g>
   <g id="line2d_8">
    <path d="M 68.2317 162.07 
L 55.4817 162.07 
" clip-path="url(#pc3fb200707)" style="fill: none; stroke: #000000; stroke-width: 2; stroke-linecap: round"/>
   </g>
   <g id="patch_5">
    <path d="M 55.4817 165.13 
L 47.8317 162.07 
L 55.4817 159.01 
z
" clip-path="url(#pc3fb200707)"/>
   </g>
   <g id="line2d_9">
    <path d="M 91.1817 185.02 
L 102.6567 185.02 
L 114.1317 185.02 
" clip-path="url(#pc3fb200707)" style="fill: none; stroke: #000000; stroke-width: 2; stroke-linecap: round"/>
   </g>
   <g id="line2d_10">
    <path d="M 114.1317 185.02 
L 114.1317 172.27 
L 134.5317 172.27 
L 134.5317 151.87 
L 114.1317 151.87 
L 114.1317 139.12 
" clip-path="url(#pc3fb200707)" style="fill: none; stroke: #ff0000; stroke-width: 2; stroke-linecap: round"/>
   </g>
   <g id="line2d_11">
    <path d="M 139.6317 172.27 
L 139.6317 151.87 
" clip-path="url(#pc3fb200707)" style="fill: none; stroke: #ff0000; stroke-width: 2; stroke-linecap: round"/>
   </g>
   <g id="line2d_12">
    <path d="M 139.6317 162.07 
L 155.9517 162.07 
" clip-path="url(#pc3fb200707)" style="fill: none; stroke: #ff0000; stroke-width: 2; stroke-linecap: round"/>
   </g>
   <g id="line2d_13">
    <path d="M 114.1317 162.07 
L 126.8817 162.07 
" clip-path="url(#pc3fb200707)" style="fill: none; stroke: #ff0000; stroke-width: 2; stroke-linecap: round"/>
   </g>
   <g id="patch_6">
    <path d="M 126.8817 159.01 
L 134.5317 162.07 
L 126.8817 165.13 
z
" clip-path="url(#pc3fb200707)" style="fill: #ff0000"/>
   </g>
   <g id="line2d_14">
    <path d="M 114.1317 139.12 
L 114.1317 108.52 
L 106.4817 105.97 
L 121.7817 100.87 
L 106.4817 95.77 
L 121.7817 90.67 
L 106.4817 85.57 
L 121.7817 80.47 
L 114.1317 77.92 
L 114.1317 47.32 
" clip-path="url(#pc3fb200707)" style="fill: none; stroke: #000000; stroke-width: 2; stroke-linecap: round"/>
   </g>
   <g id="line2d_15">
    <path d="M 114.1317 47.32 
L 102.6567 47.32 
L 91.1817 47.32 
" clip-path="url(#pc3fb200707)" style="fill: none; stroke: #000000; stroke-width: 2; stroke-linecap: round"/>
   </g>
   <g id="line2d_16">
    <path d="M 91.1817 47.32 
L 91.1817 35.08 
" clip-path="url(#pc3fb200707)" style="fill: none; stroke: #000000; stroke-width: 2; stroke-linecap: round"/>
   </g>
   <g id="line2d_17">
    <path d="M 91.1817 35.08 
L 85.4442 35.08 
" clip-path="url(#pc3fb200707)" style="fill: none; stroke: #000000; stroke-width: 2; stroke-linecap: round"/>
   </g>
   <g id="line2d_18">
    <path d="M 91.1817 35.08 
L 96.9192 35.08 
" clip-path="url(#pc3fb200707)" style="fill: none; stroke: #000000; stroke-width: 2; stroke-linecap: round"/>
   </g>
   <g id="line2d_19">
    <path d="M 68.2317 139.12 
L 68.2317 93.22 
L 68.2317 47.32 
" clip-path="url(#pc3fb200707)" style="fill: none; stroke: #000000; stroke-width: 2; stroke-linecap: round"/>
   </g>
   <g id="line2d_20">
    <path d="M 68.2317 47.32 
L 79.7067 47.32 
L 91.1817 47.32 
" clip-path="url(#pc3fb200707)" style="fill: none; stroke: #000000; stroke-width: 2; stroke-linecap: round"/>
   </g>
   <g id="line2d_21">
    <path d="M 114.1317 139.12 
L 148.5567 139.12 
L 182.9817 139.12 
" clip-path="url(#pc3fb200707)" style="fill: none; stroke: #000000; stroke-width: 2; stroke-linecap: round"/>
   </g>
   <g id="line2d_22">
    <path d="M 182.9817 139.12 
L 182.9817 205.216 
M 190.6317 205.216 
L 175.3317 205.216 
M 190.6317 210.724 
L 175.3317 210.724 
M 182.9817 210.724 
L 182.9817 276.82 
" clip-path="url(#pc3fb200707)" style="fill: none; stroke: #000000; stroke-width: 2; stroke-linecap: round"/>
   </g>
   <g id="line2d_23">
    <path d="M 182.9817 276.82 
L 137.0817 276.82 
L 91.1817 276.82 
" clip-path="url(#pc3fb200707)" style="fill: none; stroke: #000000; stroke-width: 2; stroke-linecap: round"/>
   </g>
   <g id="line2d_24">
    <path d="M 68.2317 162.07 
L 72.0567 162.07 
L 75.8817 162.07 
" clip-path="url(#pc3fb200707)" style="fill: none; stroke: #000000; stroke-width: 2; stroke-linecap: round"/>
   </g>
   <g id="line2d_25">
    <path d="M 75.8817 162.07 
L 75.8817 150.595 
L 75.8817 139.12 
" clip-path="url(#pc3fb200707)" style="fill: none; stroke: #000000; stroke-width: 2; stroke-linecap: round"/>
   </g>
   <g id="line2d_26">
    <path d="M 75.8817 139.12 
L 72.0567 139.12 
L 68.2317 139.12 
" clip-path="url(#pc3fb200707)" style="fill: none; stroke: #000000; stroke-width: 2; stroke-linecap: round"/>
   </g>
   <g id="line2d_27">
    <path d="M 114.1317 162.07 
L 110.3067 162.07 
L 106.4817 162.07 
" clip-path="url(#pc3fb200707)" style="fill: none; stroke: #ff0000; stroke-width: 2; stroke-linecap: round"/>
   </g>
   <g id="line2d_28">
    <path d="M 106.4817 162.07 
L 106.4817 173.545 
L 106.4817 185.02 
" clip-path="url(#pc3fb200707)" style="fill: none; stroke: #ff0000; stroke-width: 2; stroke-linecap: round"/>
   </g>
   <g id="line2d_29">
    <path d="M 182.9817 139.12 
L 194.4567 139.12 
L 205.9317 139.12 
" clip-path="url(#pc3fb200707)" style="fill: none; stroke: #000000; stroke-width: 2; stroke-linecap: round"/>
   </g>
   <g id="text_1">
    <g clip-path="url(#pc3fb200707)">
     <!-- $I_{b}$ -->
     <g transform="translate(63.1967 234.369219)scale(0.125 -0.125)">
      <defs>
       <path id="DejaVuSans-Oblique-49" d="M 1081 4666 
L 1716 4666 
L 806 0 
L 172 0 
L 1081 4666 
z
" transform="scale(0.015625)"/>
       <path id="DejaVuSans-Oblique-62" d="M 3169 2138 
Q 3169 2591 2961 2847 
Q 2753 3103 2388 3103 
Q 2122 3103 1889 2973 
Q 1656 2844 1484 2597 
Q 1303 2338 1198 1995 
Q 1094 1653 1094 1313 
Q 1094 881 1298 636 
Q 1503 391 1863 391 
Q 2134 391 2365 517 
Q 2597 644 2772 891 
Q 2950 1147 3059 1487 
Q 3169 1828 3169 2138 
z
M 1381 2969 
Q 1594 3256 1914 3420 
Q 2234 3584 2584 3584 
Q 3122 3584 3439 3221 
Q 3756 2859 3756 2241 
Q 3756 1734 3570 1259 
Q 3384 784 3041 416 
Q 2816 172 2522 40 
Q 2228 -91 1906 -91 
Q 1566 -91 1316 65 
Q 1066 222 909 531 
L 806 0 
L 231 0 
L 1178 4863 
L 1753 4863 
L 1381 2969 
z
" transform="scale(0.015625)"/>
      </defs>
      <use xlink:href="#DejaVuSans-Oblique-49" transform="translate(0 0.09375)"/>
      <use xlink:href="#DejaVuSans-Oblique-62" transform="translate(29.492188 -16.3125)scale(0.7)"/>
     </g>
    </g>
   </g>
   <g id="text_2">
    <g clip-path="url(#pc3fb200707)">
     <!-- $R_{L}$ -->
     <g transform="translate(89.4217 96.669219)scale(0.125 -0.125)">
      <defs>
       <path id="DejaVuSans-Oblique-52" d="M 1613 4147 
L 1294 2491 
L 2106 2491 
Q 2584 2491 2879 2755 
Q 3175 3019 3175 3444 
Q 3175 3784 2976 3965 
Q 2778 4147 2406 4147 
L 1613 4147 
z
M 2772 2241 
Q 2972 2194 3105 2009 
Q 3238 1825 3413 1275 
L 3809 0 
L 3144 0 
L 2778 1197 
Q 2638 1659 2453 1815 
Q 2269 1972 1888 1972 
L 1191 1972 
L 806 0 
L 172 0 
L 1081 4666 
L 2503 4666 
Q 3150 4666 3495 4373 
Q 3841 4081 3841 3531 
Q 3841 3044 3547 2687 
Q 3253 2331 2772 2241 
z
" transform="scale(0.015625)"/>
       <path id="DejaVuSans-Oblique-4c" d="M 1075 4666 
L 1709 4666 
L 909 525 
L 3181 525 
L 3078 0 
L 172 0 
L 1075 4666 
z
" transform="scale(0.015625)"/>
      </defs>
      <use xlink:href="#DejaVuSans-Oblique-52" transform="translate(0 0.09375)"/>
      <use xlink:href="#DejaVuSans-Oblique-4c" transform="translate(69.482422 -16.3125)scale(0.7)"/>
     </g>
    </g>
   </g>
   <g id="text_3">
    <g clip-path="url(#pc3fb200707)">
     <!-- $V_{dd}$ -->
     <g transform="translate(81.1192 29.420391)scale(0.125 -0.125)">
      <defs>
       <path id="DejaVuSans-Oblique-56" d="M 1319 0 
L 500 4666 
L 1119 4666 
L 1797 653 
L 4063 4666 
L 4750 4666 
L 2053 0 
L 1319 0 
z
" transform="scale(0.015625)"/>
       <path id="DejaVuSans-Oblique-64" d="M 2675 525 
Q 2444 222 2128 65 
Q 1813 -91 1428 -91 
Q 903 -91 598 267 
Q 294 625 294 1247 
Q 294 1766 478 2236 
Q 663 2706 1013 3078 
Q 1244 3325 1534 3454 
Q 1825 3584 2144 3584 
Q 2481 3584 2739 3421 
Q 2997 3259 3138 2956 
L 3513 4863 
L 4091 4863 
L 3144 0 
L 2566 0 
L 2675 525 
z
M 891 1350 
Q 891 897 1095 644 
Q 1300 391 1663 391 
Q 1931 391 2161 520 
Q 2391 650 2566 903 
Q 2750 1166 2856 1509 
Q 2963 1853 2963 2188 
Q 2963 2622 2758 2865 
Q 2553 3109 2194 3109 
Q 1922 3109 1687 2981 
Q 1453 2853 1288 2613 
Q 1106 2353 998 2009 
Q 891 1666 891 1350 
z
" transform="scale(0.015625)"/>
      </defs>
      <use xlink:href="#DejaVuSans-Oblique-56" transform="translate(0 0.09375)"/>
      <use xlink:href="#DejaVuSans-Oblique-64" transform="translate(68.408203 -16.3125)scale(0.7)"/>
      <use xlink:href="#DejaVuSans-Oblique-64" transform="translate(112.841797 -16.3125)scale(0.7)"/>
     </g>
    </g>
   </g>
   <g id="text_4">
    <g clip-path="url(#pc3fb200707)">
     <!-- $C_{L}$ -->
     <g transform="translate(158.2717 211.419219)scale(0.125 -0.125)">
      <defs>
       <path id="DejaVuSans-Oblique-43" d="M 4447 4306 
L 4319 3641 
Q 4019 3944 3683 4091 
Q 3347 4238 2956 4238 
Q 2422 4238 2017 3981 
Q 1613 3725 1319 3200 
Q 1131 2863 1032 2486 
Q 934 2109 934 1728 
Q 934 1091 1264 756 
Q 1594 422 2222 422 
Q 2656 422 3056 561 
Q 3456 700 3834 978 
L 3688 231 
Q 3316 72 2936 -9 
Q 2556 -91 2175 -91 
Q 1278 -91 773 396 
Q 269 884 269 1753 
Q 269 2309 461 2846 
Q 653 3384 1013 3828 
Q 1394 4300 1883 4525 
Q 2372 4750 3022 4750 
Q 3422 4750 3780 4639 
Q 4138 4528 4447 4306 
z
" transform="scale(0.015625)"/>
      </defs>
      <use xlink:href="#DejaVuSans-Oblique-43" transform="translate(0 0.78125)"/>
      <use xlink:href="#DejaVuSans-Oblique-4c" transform="translate(69.824219 -15.625)scale(0.7)"/>
     </g>
    </g>
   </g>
   <g id="patch_7">
    <path d="M 91.1817 187.315 
C 91.790341 187.315 92.374136 187.073184 92.80451 186.64281 
C 93.234884 186.212436 93.4767 185.628641 93.4767 185.02 
C 93.4767 184.411359 93.234884 183.827564 92.80451 183.39719 
C 92.374136 182.966816 91.790341 182.725 91.1817 182.725 
C 90.573059 182.725 89.989264 182.966816 89.55889 183.39719 
C 89.128516 183.827564 88.8867 184.411359 88.8867 185.02 
C 88.8867 185.628641 89.128516 186.212436 89.55889 186.64281 
C 89.989264 187.073184 90.573059 187.315 91.1817 187.315 
z
" clip-path="url(#pc3fb200707)" style="stroke: #000000; stroke-width: 2; stroke-linejoin: miter"/>
   </g>
   <g id="text_5">
    <g clip-path="url(#pc3fb200707)">
     <!-- $V_{*}$ -->
     <g transform="translate(84.4942 177.065391)scale(0.125 -0.125)">
      <defs>
       <path id="DejaVuSans-2a" d="M 3009 3897 
L 1888 3291 
L 3009 2681 
L 2828 2375 
L 1778 3009 
L 1778 1831 
L 1422 1831 
L 1422 3009 
L 372 2375 
L 191 2681 
L 1313 3291 
L 191 3897 
L 372 4206 
L 1422 3572 
L 1422 4750 
L 1778 4750 
L 1778 3572 
L 2828 4206 
L 3009 3897 
z
" transform="scale(0.015625)"/>
      </defs>
      <use xlink:href="#DejaVuSans-Oblique-56" transform="translate(0 0.09375)"/>
      <use xlink:href="#DejaVuSans-2a" transform="translate(68.408203 -16.3125)scale(0.7)"/>
     </g>
    </g>
   </g>
   <g id="patch_8">
    <path d="M 182.9817 141.415 
C 183.590341 141.415 184.174136 141.173184 184.60451 140.74281 
C 185.034884 140.312436 185.2767 139.728641 185.2767 139.12 
C 185.2767 138.511359 185.034884 137.927564 184.60451 137.49719 
C 184.174136 137.066816 183.590341 136.825 182.9817 136.825 
C 182.373059 136.825 181.789264 137.066816 181.35889 137.49719 
C 180.928516 137.927564 180.6867 138.511359 180.6867 139.12 
C 180.6867 139.728641 180.928516 140.312436 181.35889 140.74281 
C 181.789264 141.173184 182.373059 141.415 182.9817 141.415 
z
" clip-path="url(#pc3fb200707)" style="stroke: #000000; stroke-width: 2; stroke-linejoin: miter"/>
   </g>
   <g id="patch_9">
    <path d="M 91.1817 279.115 
C 91.790341 279.115 92.374136 278.873184 92.80451 278.44281 
C 93.234884 278.012436 93.4767 277.428641 93.4767 276.82 
C 93.4767 276.211359 93.234884 275.627564 92.80451 275.19719 
C 92.374136 274.766816 91.790341 274.525 91.1817 274.525 
C 90.573059 274.525 89.989264 274.766816 89.55889 275.19719 
C 89.128516 275.627564 88.8867 276.211359 88.8867 276.82 
C 88.8867 277.428641 89.128516 278.012436 89.55889 278.44281 
C 89.989264 278.873184 90.573059 279.115 91.1817 279.115 
z
" clip-path="url(#pc3fb200707)" style="stroke: #000000; stroke-width: 2; stroke-linejoin: miter"/>
   </g>
   <g id="patch_10">
    <path d="M 26.4117 164.365 
C 27.020341 164.365 27.604136 164.123184 28.03451 163.69281 
C 28.464884 163.262436 28.7067 162.678641 28.7067 162.07 
C 28.7067 161.461359 28.464884 160.877564 28.03451 160.44719 
C 27.604136 160.016816 27.020341 159.775 26.4117 159.775 
C 25.803059 159.775 25.219264 160.016816 24.78889 160.44719 
C 24.358516 160.877564 24.1167 161.461359 24.1167 162.07 
C 24.1167 162.678641 24.358516 163.262436 24.78889 163.69281 
C 25.219264 164.123184 25.803059 164.365 26.4117 164.365 
z
" clip-path="url(#pc3fb200707)" style="fill: #ffffff; stroke: #000000; stroke-width: 2; stroke-linejoin: miter"/>
   </g>
   <g id="text_6">
    <g clip-path="url(#pc3fb200707)">
     <!-- $V_{in}$ -->
     <g transform="translate(17.9742 154.115391)scale(0.125 -0.125)">
      <defs>
       <path id="DejaVuSans-Oblique-69" d="M 1172 4863 
L 1747 4863 
L 1606 4134 
L 1031 4134 
L 1172 4863 
z
M 909 3500 
L 1484 3500 
L 800 0 
L 225 0 
L 909 3500 
z
" transform="scale(0.015625)"/>
       <path id="DejaVuSans-Oblique-6e" d="M 3566 2113 
L 3156 0 
L 2578 0 
L 2988 2091 
Q 3016 2238 3031 2350 
Q 3047 2463 3047 2528 
Q 3047 2791 2881 2937 
Q 2716 3084 2419 3084 
Q 1956 3084 1622 2776 
Q 1288 2469 1184 1941 
L 800 0 
L 225 0 
L 903 3500 
L 1478 3500 
L 1363 2950 
Q 1603 3253 1940 3418 
Q 2278 3584 2650 3584 
Q 3113 3584 3367 3334 
Q 3622 3084 3622 2631 
Q 3622 2519 3608 2391 
Q 3594 2263 3566 2113 
z
" transform="scale(0.015625)"/>
      </defs>
      <use xlink:href="#DejaVuSans-Oblique-56" transform="translate(0 0.09375)"/>
      <use xlink:href="#DejaVuSans-Oblique-69" transform="translate(68.408203 -16.3125)scale(0.7)"/>
      <use xlink:href="#DejaVuSans-Oblique-6e" transform="translate(87.856445 -16.3125)scale(0.7)"/>
     </g>
    </g>
   </g>
   <g id="patch_11">
    <path d="M 155.9517 164.365 
C 156.560341 164.365 157.144136 164.123184 157.57451 163.69281 
C 158.004884 163.262436 158.2467 162.678641 158.2467 162.07 
C 158.2467 161.461359 158.004884 160.877564 157.57451 160.44719 
C 157.144136 160.016816 156.560341 159.775 155.9517 159.775 
C 155.343059 159.775 154.759264 160.016816 154.32889 160.44719 
C 153.898516 160.877564 153.6567 161.461359 153.6567 162.07 
C 153.6567 162.678641 153.898516 163.262436 154.32889 163.69281 
C 154.759264 164.123184 155.343059 164.365 155.9517 164.365 
z
" clip-path="url(#pc3fb200707)" style="fill: #ffffff; stroke: #000000; stroke-width: 2; stroke-linejoin: miter"/>
   </g>
   <g id="text_7">
    <g clip-path="url(#pc3fb200707)">
     <!-- $V_{b}$ -->
     <g transform="translate(148.7017 154.115391)scale(0.125 -0.125)">
      <use xlink:href="#DejaVuSans-Oblique-56" transform="translate(0 0.09375)"/>
      <use xlink:href="#DejaVuSans-Oblique-62" transform="translate(68.408203 -16.3125)scale(0.7)"/>
     </g>
    </g>
   </g>
   <g id="patch_12">
    <path d="M 205.9317 141.415 
C 206.540341 141.415 207.124136 141.173184 207.55451 140.74281 
C 207.984884 140.312436 208.2267 139.728641 208.2267 139.12 
C 208.2267 138.511359 207.984884 137.927564 207.55451 137.49719 
C 207.124136 137.066816 206.540341 136.825 205.9317 136.825 
C 205.323059 136.825 204.739264 137.066816 204.30889 137.49719 
C 203.878516 137.927564 203.6367 138.511359 203.6367 139.12 
C 203.6367 139.728641 203.878516 140.312436 204.30889 140.74281 
C 204.739264 141.173184 205.323059 141.415 205.9317 141.415 
z
" clip-path="url(#pc3fb200707)" style="fill: #ffffff; stroke: #000000; stroke-width: 2; stroke-linejoin: miter"/>
   </g>
   <g id="text_8">
    <g clip-path="url(#pc3fb200707)">
     <!-- $V_{out}$ -->
     <g transform="translate(194.3067 131.165391)scale(0.125 -0.125)">
      <defs>
       <path id="DejaVuSans-Oblique-6f" d="M 1625 -91 
Q 1009 -91 651 289 
Q 294 669 294 1325 
Q 294 1706 417 2101 
Q 541 2497 738 2766 
Q 1047 3184 1428 3384 
Q 1809 3584 2291 3584 
Q 2888 3584 3255 3212 
Q 3622 2841 3622 2241 
Q 3622 1825 3500 1412 
Q 3378 1000 3181 728 
Q 2875 309 2494 109 
Q 2113 -91 1625 -91 
z
M 891 1344 
Q 891 869 1089 633 
Q 1288 397 1691 397 
Q 2269 397 2648 901 
Q 3028 1406 3028 2181 
Q 3028 2634 2825 2865 
Q 2622 3097 2228 3097 
Q 1903 3097 1650 2945 
Q 1397 2794 1197 2484 
Q 1050 2253 970 1956 
Q 891 1659 891 1344 
z
" transform="scale(0.015625)"/>
       <path id="DejaVuSans-Oblique-75" d="M 428 1388 
L 838 3500 
L 1416 3500 
L 1006 1409 
Q 975 1256 961 1147 
Q 947 1038 947 966 
Q 947 700 1109 554 
Q 1272 409 1569 409 
Q 2031 409 2368 721 
Q 2706 1034 2809 1563 
L 3194 3500 
L 3769 3500 
L 3091 0 
L 2516 0 
L 2631 550 
Q 2388 244 2052 76 
Q 1716 -91 1338 -91 
Q 878 -91 622 161 
Q 366 413 366 863 
Q 366 956 381 1097 
Q 397 1238 428 1388 
z
" transform="scale(0.015625)"/>
       <path id="DejaVuSans-Oblique-74" d="M 2706 3500 
L 2619 3053 
L 1472 3053 
L 1100 1153 
Q 1081 1047 1072 975 
Q 1063 903 1063 863 
Q 1063 663 1183 572 
Q 1303 481 1569 481 
L 2150 481 
L 2053 0 
L 1503 0 
Q 991 0 739 200 
Q 488 400 488 806 
Q 488 878 497 964 
Q 506 1050 525 1153 
L 897 3053 
L 409 3053 
L 500 3500 
L 978 3500 
L 1172 4494 
L 1747 4494 
L 1556 3500 
L 2706 3500 
z
" transform="scale(0.015625)"/>
      </defs>
      <use xlink:href="#DejaVuSans-Oblique-56" transform="translate(0 0.09375)"/>
      <use xlink:href="#DejaVuSans-Oblique-6f" transform="translate(68.408203 -16.3125)scale(0.7)"/>
      <use xlink:href="#DejaVuSans-Oblique-75" transform="translate(111.235352 -16.3125)scale(0.7)"/>
      <use xlink:href="#DejaVuSans-Oblique-74" transform="translate(155.600586 -16.3125)scale(0.7)"/>
     </g>
    </g>
   </g>
  </g>
 </g>
 <defs>
  <clipPath id="pc3fb200707">
   <rect x="7.2" y="7.2" width="227.919" height="292.264"/>
  </clipPath>
 </defs>
</svg>
