<?xml version="1.0" encoding="utf-8" standalone="no"?>
<!DOCTYPE svg PUBLIC "-//W3C//DTD SVG 1.1//EN"
  "http://www.w3.org/Graphics/SVG/1.1/DTD/svg11.dtd">
<svg xmlns:xlink="http://www.w3.org/1999/xlink" width="318.819pt" height="260.764pt" viewBox="0 0 318.819 260.764" xmlns="http://www.w3.org/2000/svg" version="1.1">
 <metadata>
  <rdf:RDF xmlns:dc="http://purl.org/dc/elements/1.1/" xmlns:cc="http://creativecommons.org/ns#" xmlns:rdf="http://www.w3.org/1999/02/22-rdf-syntax-ns#">
   <cc:Work>
    <dc:type rdf:resource="http://purl.org/dc/dcmitype/StillImage"/>
    <dc:date>2022-02-27T00:18:37.783959</dc:date>
    <dc:format>image/svg+xml</dc:format>
    <dc:creator>
     <cc:Agent>
      <dc:title>Matplotlib v3.5.1, https://matplotlib.org/</dc:title>
     </cc:Agent>
    </dc:creator>
   </cc:Work>
  </rdf:RDF>
 </metadata>
 <defs>
  <style type="text/css">*{stroke-linejoin: round; stroke-linecap: butt}</style>
 </defs>
 <g id="figure_1">
  <g id="patch_1">
   <path d="M 0 260.764 
L 318.819 260.764 
L 318.819 0 
L 0 0 
L 0 260.764 
z
" style="fill: none"/>
  </g>
  <g id="axes_1">
   <g id="patch_2">
    <path d="M 39.1617 165.64 
C 40.108475 165.64 41.0166 165.263842 41.686071 164.594371 
C 42.355542 163.9249 42.7317 163.016775 42.7317 162.07 
C 42.7317 161.123225 42.355542 160.2151 41.686071 159.545629 
C 41.0166 158.876158 40.108475 158.5 39.1617 158.5 
C 38.214925 158.5 37.3068 158.876158 36.637329 159.545629 
C 35.967858 160.2151 35.5917 161.123225 35.5917 162.07 
C 35.5917 163.016775 35.967858 163.9249 36.637329 164.594371 
C 37.3068 165.263842 38.214925 165.64 39.1617 165.64 
L 39.1617 165.64 
z
" clip-path="url(#pa065ae9555)" style="fill: none; stroke: #000000; stroke-width: 2; stroke-linejoin: miter"/>
   </g>
   <g id="patch_3">
    <path d="M 204.4017 165.64 
C 205.348475 165.64 206.2566 165.263842 206.926071 164.594371 
C 207.595542 163.9249 207.9717 163.016775 207.9717 162.07 
C 207.9717 161.123225 207.595542 160.2151 206.926071 159.545629 
C 206.2566 158.876158 205.348475 158.5 204.4017 158.5 
C 203.454925 158.5 202.5468 158.876158 201.877329 159.545629 
C 201.207858 160.2151 200.8317 161.123225 200.8317 162.07 
C 200.8317 163.016775 201.207858 163.9249 201.877329 164.594371 
C 202.5468 165.263842 203.454925 165.64 204.4017 165.64 
L 204.4017 165.64 
z
" clip-path="url(#pa065ae9555)" style="fill: none; stroke: #000000; stroke-width: 2; stroke-linejoin: miter"/>
   </g>
   <g id="line2d_1">
    <path d="M 121.7817 185.02 
L 121.7817 197.77 
L 142.1817 197.77 
L 142.1817 218.17 
L 121.7817 218.17 
L 121.7817 230.92 
" clip-path="url(#pa065ae9555)" style="fill: none; stroke: #000000; stroke-width: 2; stroke-linecap: round"/>
   </g>
   <g id="line2d_2">
    <path d="M 147.2817 197.77 
L 147.2817 218.17 
" clip-path="url(#pa065ae9555)" style="fill: none; stroke: #000000; stroke-width: 2; stroke-linecap: round"/>
   </g>
   <g id="line2d_3">
    <path d="M 147.2817 207.97 
L 163.6017 207.97 
" clip-path="url(#pa065ae9555)" style="fill: none; stroke: #000000; stroke-width: 2; stroke-linecap: round"/>
   </g>
   <g id="line2d_4">
    <path d="M 121.7817 230.92 
L 121.7817 243.16 
L 114.1317 243.16 
L 129.4317 243.16 
M 116.4267 246.832 
L 127.1367 246.832 
M 120.2517 250.504 
L 123.3117 250.504 
" clip-path="url(#pa065ae9555)" style="fill: none; stroke: #000000; stroke-width: 2; stroke-linecap: round"/>
   </g>
   <g id="line2d_5">
    <path d="M 121.7817 185.02 
L 95.0067 185.02 
L 68.2317 185.02 
" clip-path="url(#pa065ae9555)" style="fill: none; stroke: #000000; stroke-width: 2; stroke-linecap: round"/>
   </g>
   <g id="line2d_6">
    <path d="M 68.2317 185.02 
L 68.2317 172.27 
L 47.8317 172.27 
L 47.8317 151.87 
L 68.2317 151.87 
L 68.2317 139.12 
" clip-path="url(#pa065ae9555)" style="fill: none; stroke: #000000; stroke-width: 2; stroke-linecap: round"/>
   </g>
   <g id="line2d_7">
    <path d="M 42.7317 172.27 
L 42.7317 151.87 
" clip-path="url(#pa065ae9555)" style="fill: none; stroke: #000000; stroke-width: 2; stroke-linecap: round"/>
   </g>
   <g id="line2d_8">
    <path d="M 35.5917 162.07 
L 26.4117 162.07 
" clip-path="url(#pa065ae9555)" style="fill: none; stroke: #000000; stroke-width: 2; stroke-linecap: round"/>
   </g>
   <g id="line2d_9">
    <path d="M 68.2317 162.07 
L 55.4817 162.07 
" clip-path="url(#pa065ae9555)" style="fill: none; stroke: #000000; stroke-width: 2; stroke-linecap: round"/>
   </g>
   <g id="patch_4">
    <path d="M 55.4817 165.13 
L 47.8317 162.07 
L 55.4817 159.01 
z
" clip-path="url(#pa065ae9555)"/>
   </g>
   <g id="line2d_10">
    <path d="M 121.7817 185.02 
L 148.5567 185.02 
L 175.3317 185.02 
" clip-path="url(#pa065ae9555)" style="fill: none; stroke: #000000; stroke-width: 2; stroke-linecap: round"/>
   </g>
   <g id="line2d_11">
    <path d="M 175.3317 185.02 
L 175.3317 172.27 
L 195.7317 172.27 
L 195.7317 151.87 
L 175.3317 151.87 
L 175.3317 139.12 
" clip-path="url(#pa065ae9555)" style="fill: none; stroke: #000000; stroke-width: 2; stroke-linecap: round"/>
   </g>
   <g id="line2d_12">
    <path d="M 200.8317 172.27 
L 200.8317 151.87 
" clip-path="url(#pa065ae9555)" style="fill: none; stroke: #000000; stroke-width: 2; stroke-linecap: round"/>
   </g>
   <g id="line2d_13">
    <path d="M 207.9717 162.07 
L 217.1517 162.07 
" clip-path="url(#pa065ae9555)" style="fill: none; stroke: #000000; stroke-width: 2; stroke-linecap: round"/>
   </g>
   <g id="line2d_14">
    <path d="M 175.3317 162.07 
L 188.0817 162.07 
" clip-path="url(#pa065ae9555)" style="fill: none; stroke: #000000; stroke-width: 2; stroke-linecap: round"/>
   </g>
   <g id="patch_5">
    <path d="M 188.0817 159.01 
L 195.7317 162.07 
L 188.0817 165.13 
z
" clip-path="url(#pa065ae9555)"/>
   </g>
   <g id="line2d_15">
    <path d="M 175.3317 139.12 
L 175.3317 108.52 
L 167.6817 105.97 
L 182.9817 100.87 
L 167.6817 95.77 
L 182.9817 90.67 
L 167.6817 85.57 
L 182.9817 80.47 
L 175.3317 77.92 
L 175.3317 47.32 
" clip-path="url(#pa065ae9555)" style="fill: none; stroke: #000000; stroke-width: 2; stroke-linecap: round"/>
   </g>
   <g id="line2d_16">
    <path d="M 175.3317 47.32 
L 163.8567 47.32 
L 152.3817 47.32 
" clip-path="url(#pa065ae9555)" style="fill: none; stroke: #000000; stroke-width: 2; stroke-linecap: round"/>
   </g>
   <g id="line2d_17">
    <path d="M 152.3817 47.32 
L 152.3817 35.08 
" clip-path="url(#pa065ae9555)" style="fill: none; stroke: #000000; stroke-width: 2; stroke-linecap: round"/>
   </g>
   <g id="line2d_18">
    <path d="M 152.3817 35.08 
L 146.6442 35.08 
" clip-path="url(#pa065ae9555)" style="fill: none; stroke: #000000; stroke-width: 2; stroke-linecap: round"/>
   </g>
   <g id="line2d_19">
    <path d="M 152.3817 35.08 
L 158.1192 35.08 
" clip-path="url(#pa065ae9555)" style="fill: none; stroke: #000000; stroke-width: 2; stroke-linecap: round"/>
   </g>
   <g id="line2d_20">
    <path d="M 68.2317 139.12 
L 68.2317 93.22 
L 68.2317 47.32 
" clip-path="url(#pa065ae9555)" style="fill: none; stroke: #000000; stroke-width: 2; stroke-linecap: round"/>
   </g>
   <g id="line2d_21">
    <path d="M 68.2317 47.32 
L 110.3067 47.32 
L 152.3817 47.32 
" clip-path="url(#pa065ae9555)" style="fill: none; stroke: #000000; stroke-width: 2; stroke-linecap: round"/>
   </g>
   <g id="line2d_22">
    <path d="M 175.3317 139.12 
L 217.4067 139.12 
L 259.4817 139.12 
" clip-path="url(#pa065ae9555)" style="fill: none; stroke: #000000; stroke-width: 2; stroke-linecap: round"/>
   </g>
   <g id="line2d_23">
    <path d="M 259.4817 139.12 
L 259.4817 182.266 
M 267.1317 182.266 
L 251.8317 182.266 
M 267.1317 187.774 
L 251.8317 187.774 
M 259.4817 187.774 
L 259.4817 230.92 
" clip-path="url(#pa065ae9555)" style="fill: none; stroke: #000000; stroke-width: 2; stroke-linecap: round"/>
   </g>
   <g id="line2d_24">
    <path d="M 259.4817 230.92 
L 190.6317 230.92 
L 121.7817 230.92 
" clip-path="url(#pa065ae9555)" style="fill: none; stroke: #000000; stroke-width: 2; stroke-linecap: round"/>
   </g>
   <g id="line2d_25">
    <path d="M 68.2317 162.07 
L 72.0567 162.07 
L 75.8817 162.07 
" clip-path="url(#pa065ae9555)" style="fill: none; stroke: #000000; stroke-width: 2; stroke-linecap: round"/>
   </g>
   <g id="line2d_26">
    <path d="M 75.8817 162.07 
L 75.8817 150.595 
L 75.8817 139.12 
" clip-path="url(#pa065ae9555)" style="fill: none; stroke: #000000; stroke-width: 2; stroke-linecap: round"/>
   </g>
   <g id="line2d_27">
    <path d="M 75.8817 139.12 
L 72.0567 139.12 
L 68.2317 139.12 
" clip-path="url(#pa065ae9555)" style="fill: none; stroke: #000000; stroke-width: 2; stroke-linecap: round"/>
   </g>
   <g id="line2d_28">
    <path d="M 175.3317 162.07 
L 171.5067 162.07 
L 167.6817 162.07 
" clip-path="url(#pa065ae9555)" style="fill: none; stroke: #000000; stroke-width: 2; stroke-linecap: round"/>
   </g>
   <g id="line2d_29">
    <path d="M 167.6817 162.07 
L 167.6817 173.545 
L 167.6817 185.02 
" clip-path="url(#pa065ae9555)" style="fill: none; stroke: #000000; stroke-width: 2; stroke-linecap: round"/>
   </g>
   <g id="line2d_30">
    <path d="M 259.4817 139.12 
L 270.9567 139.12 
L 282.4317 139.12 
" clip-path="url(#pa065ae9555)" style="fill: none; stroke: #000000; stroke-width: 2; stroke-linecap: round"/>
   </g>
   <g id="text_1">
    <g clip-path="url(#pa065ae9555)">
     <!-- $T_{3}$ -->
     <g transform="translate(105.0967 211.419219)scale(0.125 -0.125)">
      <defs>
       <path id="DejaVuSans-Oblique-54" d="M 378 4666 
L 4325 4666 
L 4225 4134 
L 2559 4134 
L 1759 0 
L 1125 0 
L 1925 4134 
L 275 4134 
L 378 4666 
z
" transform="scale(0.015625)"/>
       <path id="DejaVuSans-33" d="M 2597 2516 
Q 3050 2419 3304 2112 
Q 3559 1806 3559 1356 
Q 3559 666 3084 287 
Q 2609 -91 1734 -91 
Q 1441 -91 1130 -33 
Q 819 25 488 141 
L 488 750 
Q 750 597 1062 519 
Q 1375 441 1716 441 
Q 2309 441 2620 675 
Q 2931 909 2931 1356 
Q 2931 1769 2642 2001 
Q 2353 2234 1838 2234 
L 1294 2234 
L 1294 2753 
L 1863 2753 
Q 2328 2753 2575 2939 
Q 2822 3125 2822 3475 
Q 2822 3834 2567 4026 
Q 2313 4219 1838 4219 
Q 1578 4219 1281 4162 
Q 984 4106 628 3988 
L 628 4550 
Q 988 4650 1302 4700 
Q 1616 4750 1894 4750 
Q 2613 4750 3031 4423 
Q 3450 4097 3450 3541 
Q 3450 3153 3228 2886 
Q 3006 2619 2597 2516 
z
" transform="scale(0.015625)"/>
      </defs>
      <use xlink:href="#DejaVuSans-Oblique-54" transform="translate(0 0.09375)"/>
      <use xlink:href="#DejaVuSans-33" transform="translate(61.083984 -16.3125)scale(0.7)"/>
     </g>
    </g>
   </g>
   <g id="text_2">
    <g clip-path="url(#pa065ae9555)">
     <!-- $T_{1}$ -->
     <g transform="translate(83.5317 165.519219)scale(0.125 -0.125)">
      <defs>
       <path id="DejaVuSans-31" d="M 794 531 
L 1825 531 
L 1825 4091 
L 703 3866 
L 703 4441 
L 1819 4666 
L 2450 4666 
L 2450 531 
L 3481 531 
L 3481 0 
L 794 0 
L 794 531 
z
" transform="scale(0.015625)"/>
      </defs>
      <use xlink:href="#DejaVuSans-Oblique-54" transform="translate(0 0.09375)"/>
      <use xlink:href="#DejaVuSans-31" transform="translate(61.083984 -16.3125)scale(0.7)"/>
     </g>
    </g>
   </g>
   <g id="text_3">
    <g clip-path="url(#pa065ae9555)">
     <!-- $T_{2}$ -->
     <g transform="translate(146.4067 165.519219)scale(0.125 -0.125)">
      <defs>
       <path id="DejaVuSans-32" d="M 1228 531 
L 3431 531 
L 3431 0 
L 469 0 
L 469 531 
Q 828 903 1448 1529 
Q 2069 2156 2228 2338 
Q 2531 2678 2651 2914 
Q 2772 3150 2772 3378 
Q 2772 3750 2511 3984 
Q 2250 4219 1831 4219 
Q 1534 4219 1204 4116 
Q 875 4013 500 3803 
L 500 4441 
Q 881 4594 1212 4672 
Q 1544 4750 1819 4750 
Q 2544 4750 2975 4387 
Q 3406 4025 3406 3419 
Q 3406 3131 3298 2873 
Q 3191 2616 2906 2266 
Q 2828 2175 2409 1742 
Q 1991 1309 1228 531 
z
" transform="scale(0.015625)"/>
      </defs>
      <use xlink:href="#DejaVuSans-Oblique-54" transform="translate(0 0.09375)"/>
      <use xlink:href="#DejaVuSans-32" transform="translate(61.083984 -16.3125)scale(0.7)"/>
     </g>
    </g>
   </g>
   <g id="text_4">
    <g clip-path="url(#pa065ae9555)">
     <!-- $R_{L}$ -->
     <g transform="translate(150.6217 96.669219)scale(0.125 -0.125)">
      <defs>
       <path id="DejaVuSans-Oblique-52" d="M 1613 4147 
L 1294 2491 
L 2106 2491 
Q 2584 2491 2879 2755 
Q 3175 3019 3175 3444 
Q 3175 3784 2976 3965 
Q 2778 4147 2406 4147 
L 1613 4147 
z
M 2772 2241 
Q 2972 2194 3105 2009 
Q 3238 1825 3413 1275 
L 3809 0 
L 3144 0 
L 2778 1197 
Q 2638 1659 2453 1815 
Q 2269 1972 1888 1972 
L 1191 1972 
L 806 0 
L 172 0 
L 1081 4666 
L 2503 4666 
Q 3150 4666 3495 4373 
Q 3841 4081 3841 3531 
Q 3841 3044 3547 2687 
Q 3253 2331 2772 2241 
z
" transform="scale(0.015625)"/>
       <path id="DejaVuSans-Oblique-4c" d="M 1075 4666 
L 1709 4666 
L 909 525 
L 3181 525 
L 3078 0 
L 172 0 
L 1075 4666 
z
" transform="scale(0.015625)"/>
      </defs>
      <use xlink:href="#DejaVuSans-Oblique-52" transform="translate(0 0.09375)"/>
      <use xlink:href="#DejaVuSans-Oblique-4c" transform="translate(69.482422 -16.3125)scale(0.7)"/>
     </g>
    </g>
   </g>
   <g id="text_5">
    <g clip-path="url(#pa065ae9555)">
     <!-- $V_{dd}$ -->
     <g transform="translate(142.3192 29.420391)scale(0.125 -0.125)">
      <defs>
       <path id="DejaVuSans-Oblique-56" d="M 1319 0 
L 500 4666 
L 1119 4666 
L 1797 653 
L 4063 4666 
L 4750 4666 
L 2053 0 
L 1319 0 
z
" transform="scale(0.015625)"/>
       <path id="DejaVuSans-Oblique-64" d="M 2675 525 
Q 2444 222 2128 65 
Q 1813 -91 1428 -91 
Q 903 -91 598 267 
Q 294 625 294 1247 
Q 294 1766 478 2236 
Q 663 2706 1013 3078 
Q 1244 3325 1534 3454 
Q 1825 3584 2144 3584 
Q 2481 3584 2739 3421 
Q 2997 3259 3138 2956 
L 3513 4863 
L 4091 4863 
L 3144 0 
L 2566 0 
L 2675 525 
z
M 891 1350 
Q 891 897 1095 644 
Q 1300 391 1663 391 
Q 1931 391 2161 520 
Q 2391 650 2566 903 
Q 2750 1166 2856 1509 
Q 2963 1853 2963 2188 
Q 2963 2622 2758 2865 
Q 2553 3109 2194 3109 
Q 1922 3109 1687 2981 
Q 1453 2853 1288 2613 
Q 1106 2353 998 2009 
Q 891 1666 891 1350 
z
" transform="scale(0.015625)"/>
      </defs>
      <use xlink:href="#DejaVuSans-Oblique-56" transform="translate(0 0.09375)"/>
      <use xlink:href="#DejaVuSans-Oblique-64" transform="translate(68.408203 -16.3125)scale(0.7)"/>
      <use xlink:href="#DejaVuSans-Oblique-64" transform="translate(112.841797 -16.3125)scale(0.7)"/>
     </g>
    </g>
   </g>
   <g id="text_6">
    <g clip-path="url(#pa065ae9555)">
     <!-- $C_{L}$ -->
     <g transform="translate(234.7717 188.469219)scale(0.125 -0.125)">
      <defs>
       <path id="DejaVuSans-Oblique-43" d="M 4447 4306 
L 4319 3641 
Q 4019 3944 3683 4091 
Q 3347 4238 2956 4238 
Q 2422 4238 2017 3981 
Q 1613 3725 1319 3200 
Q 1131 2863 1032 2486 
Q 934 2109 934 1728 
Q 934 1091 1264 756 
Q 1594 422 2222 422 
Q 2656 422 3056 561 
Q 3456 700 3834 978 
L 3688 231 
Q 3316 72 2936 -9 
Q 2556 -91 2175 -91 
Q 1278 -91 773 396 
Q 269 884 269 1753 
Q 269 2309 461 2846 
Q 653 3384 1013 3828 
Q 1394 4300 1883 4525 
Q 2372 4750 3022 4750 
Q 3422 4750 3780 4639 
Q 4138 4528 4447 4306 
z
" transform="scale(0.015625)"/>
      </defs>
      <use xlink:href="#DejaVuSans-Oblique-43" transform="translate(0 0.78125)"/>
      <use xlink:href="#DejaVuSans-Oblique-4c" transform="translate(69.824219 -15.625)scale(0.7)"/>
     </g>
    </g>
   </g>
   <g id="patch_6">
    <path d="M 121.7817 187.315 
C 122.390341 187.315 122.974136 187.073184 123.40451 186.64281 
C 123.834884 186.212436 124.0767 185.628641 124.0767 185.02 
C 124.0767 184.411359 123.834884 183.827564 123.40451 183.39719 
C 122.974136 182.966816 122.390341 182.725 121.7817 182.725 
C 121.173059 182.725 120.589264 182.966816 120.15889 183.39719 
C 119.728516 183.827564 119.4867 184.411359 119.4867 185.02 
C 119.4867 185.628641 119.728516 186.212436 120.15889 186.64281 
C 120.589264 187.073184 121.173059 187.315 121.7817 187.315 
z
" clip-path="url(#pa065ae9555)" style="stroke: #000000; stroke-width: 2; stroke-linejoin: miter"/>
   </g>
   <g id="text_7">
    <g clip-path="url(#pa065ae9555)">
     <!-- $V_{*}$ -->
     <g transform="translate(115.0942 177.065391)scale(0.125 -0.125)">
      <defs>
       <path id="DejaVuSans-2a" d="M 3009 3897 
L 1888 3291 
L 3009 2681 
L 2828 2375 
L 1778 3009 
L 1778 1831 
L 1422 1831 
L 1422 3009 
L 372 2375 
L 191 2681 
L 1313 3291 
L 191 3897 
L 372 4206 
L 1422 3572 
L 1422 4750 
L 1778 4750 
L 1778 3572 
L 2828 4206 
L 3009 3897 
z
" transform="scale(0.015625)"/>
      </defs>
      <use xlink:href="#DejaVuSans-Oblique-56" transform="translate(0 0.09375)"/>
      <use xlink:href="#DejaVuSans-2a" transform="translate(68.408203 -16.3125)scale(0.7)"/>
     </g>
    </g>
   </g>
   <g id="patch_7">
    <path d="M 259.4817 141.415 
C 260.090341 141.415 260.674136 141.173184 261.10451 140.74281 
C 261.534884 140.312436 261.7767 139.728641 261.7767 139.12 
C 261.7767 138.511359 261.534884 137.927564 261.10451 137.49719 
C 260.674136 137.066816 260.090341 136.825 259.4817 136.825 
C 258.873059 136.825 258.289264 137.066816 257.85889 137.49719 
C 257.428516 137.927564 257.1867 138.511359 257.1867 139.12 
C 257.1867 139.728641 257.428516 140.312436 257.85889 140.74281 
C 258.289264 141.173184 258.873059 141.415 259.4817 141.415 
z
" clip-path="url(#pa065ae9555)" style="stroke: #000000; stroke-width: 2; stroke-linejoin: miter"/>
   </g>
   <g id="patch_8">
    <path d="M 121.7817 233.215 
C 122.390341 233.215 122.974136 232.973184 123.40451 232.54281 
C 123.834884 232.112436 124.0767 231.528641 124.0767 230.92 
C 124.0767 230.311359 123.834884 229.727564 123.40451 229.29719 
C 122.974136 228.866816 122.390341 228.625 121.7817 228.625 
C 121.173059 228.625 120.589264 228.866816 120.15889 229.29719 
C 119.728516 229.727564 119.4867 230.311359 119.4867 230.92 
C 119.4867 231.528641 119.728516 232.112436 120.15889 232.54281 
C 120.589264 232.973184 121.173059 233.215 121.7817 233.215 
z
" clip-path="url(#pa065ae9555)" style="stroke: #000000; stroke-width: 2; stroke-linejoin: miter"/>
   </g>
   <g id="patch_9">
    <path d="M 26.4117 164.365 
C 27.020341 164.365 27.604136 164.123184 28.03451 163.69281 
C 28.464884 163.262436 28.7067 162.678641 28.7067 162.07 
C 28.7067 161.461359 28.464884 160.877564 28.03451 160.44719 
C 27.604136 160.016816 27.020341 159.775 26.4117 159.775 
C 25.803059 159.775 25.219264 160.016816 24.78889 160.44719 
C 24.358516 160.877564 24.1167 161.461359 24.1167 162.07 
C 24.1167 162.678641 24.358516 163.262436 24.78889 163.69281 
C 25.219264 164.123184 25.803059 164.365 26.4117 164.365 
z
" clip-path="url(#pa065ae9555)" style="fill: #ffffff; stroke: #000000; stroke-width: 2; stroke-linejoin: miter"/>
   </g>
   <g id="text_8">
    <g clip-path="url(#pa065ae9555)">
     <!-- $V_{in}$ -->
     <g transform="translate(17.9742 154.115391)scale(0.125 -0.125)">
      <defs>
       <path id="DejaVuSans-Oblique-69" d="M 1172 4863 
L 1747 4863 
L 1606 4134 
L 1031 4134 
L 1172 4863 
z
M 909 3500 
L 1484 3500 
L 800 0 
L 225 0 
L 909 3500 
z
" transform="scale(0.015625)"/>
       <path id="DejaVuSans-Oblique-6e" d="M 3566 2113 
L 3156 0 
L 2578 0 
L 2988 2091 
Q 3016 2238 3031 2350 
Q 3047 2463 3047 2528 
Q 3047 2791 2881 2937 
Q 2716 3084 2419 3084 
Q 1956 3084 1622 2776 
Q 1288 2469 1184 1941 
L 800 0 
L 225 0 
L 903 3500 
L 1478 3500 
L 1363 2950 
Q 1603 3253 1940 3418 
Q 2278 3584 2650 3584 
Q 3113 3584 3367 3334 
Q 3622 3084 3622 2631 
Q 3622 2519 3608 2391 
Q 3594 2263 3566 2113 
z
" transform="scale(0.015625)"/>
      </defs>
      <use xlink:href="#DejaVuSans-Oblique-56" transform="translate(0 0.09375)"/>
      <use xlink:href="#DejaVuSans-Oblique-69" transform="translate(68.408203 -16.3125)scale(0.7)"/>
      <use xlink:href="#DejaVuSans-Oblique-6e" transform="translate(87.856445 -16.3125)scale(0.7)"/>
     </g>
    </g>
   </g>
   <g id="patch_10">
    <path d="M 217.1517 164.365 
C 217.760341 164.365 218.344136 164.123184 218.77451 163.69281 
C 219.204884 163.262436 219.4467 162.678641 219.4467 162.07 
C 219.4467 161.461359 219.204884 160.877564 218.77451 160.44719 
C 218.344136 160.016816 217.760341 159.775 217.1517 159.775 
C 216.543059 159.775 215.959264 160.016816 215.52889 160.44719 
C 215.098516 160.877564 214.8567 161.461359 214.8567 162.07 
C 214.8567 162.678641 215.098516 163.262436 215.52889 163.69281 
C 215.959264 164.123184 216.543059 164.365 217.1517 164.365 
z
" clip-path="url(#pa065ae9555)" style="fill: #ffffff; stroke: #000000; stroke-width: 2; stroke-linejoin: miter"/>
   </g>
   <g id="text_9">
    <g clip-path="url(#pa065ae9555)">
     <!-- $V_{b}$ -->
     <g transform="translate(209.9017 154.115391)scale(0.125 -0.125)">
      <defs>
       <path id="DejaVuSans-Oblique-62" d="M 3169 2138 
Q 3169 2591 2961 2847 
Q 2753 3103 2388 3103 
Q 2122 3103 1889 2973 
Q 1656 2844 1484 2597 
Q 1303 2338 1198 1995 
Q 1094 1653 1094 1313 
Q 1094 881 1298 636 
Q 1503 391 1863 391 
Q 2134 391 2365 517 
Q 2597 644 2772 891 
Q 2950 1147 3059 1487 
Q 3169 1828 3169 2138 
z
M 1381 2969 
Q 1594 3256 1914 3420 
Q 2234 3584 2584 3584 
Q 3122 3584 3439 3221 
Q 3756 2859 3756 2241 
Q 3756 1734 3570 1259 
Q 3384 784 3041 416 
Q 2816 172 2522 40 
Q 2228 -91 1906 -91 
Q 1566 -91 1316 65 
Q 1066 222 909 531 
L 806 0 
L 231 0 
L 1178 4863 
L 1753 4863 
L 1381 2969 
z
" transform="scale(0.015625)"/>
      </defs>
      <use xlink:href="#DejaVuSans-Oblique-56" transform="translate(0 0.09375)"/>
      <use xlink:href="#DejaVuSans-Oblique-62" transform="translate(68.408203 -16.3125)scale(0.7)"/>
     </g>
    </g>
   </g>
   <g id="patch_11">
    <path d="M 163.6017 210.265 
C 164.210341 210.265 164.794136 210.023184 165.22451 209.59281 
C 165.654884 209.162436 165.8967 208.578641 165.8967 207.97 
C 165.8967 207.361359 165.654884 206.777564 165.22451 206.34719 
C 164.794136 205.916816 164.210341 205.675 163.6017 205.675 
C 162.993059 205.675 162.409264 205.916816 161.97889 206.34719 
C 161.548516 206.777564 161.3067 207.361359 161.3067 207.97 
C 161.3067 208.578641 161.548516 209.162436 161.97889 209.59281 
C 162.409264 210.023184 162.993059 210.265 163.6017 210.265 
z
" clip-path="url(#pa065ae9555)" style="fill: #ffffff; stroke: #000000; stroke-width: 2; stroke-linejoin: miter"/>
   </g>
   <g id="text_10">
    <g clip-path="url(#pa065ae9555)">
     <!-- $V_{a}$ -->
     <g transform="translate(156.4142 200.015391)scale(0.125 -0.125)">
      <defs>
       <path id="DejaVuSans-Oblique-61" d="M 3438 1997 
L 3047 0 
L 2472 0 
L 2578 531 
Q 2325 219 2001 64 
Q 1678 -91 1281 -91 
Q 834 -91 548 182 
Q 263 456 263 884 
Q 263 1497 752 1853 
Q 1241 2209 2100 2209 
L 2900 2209 
L 2931 2363 
Q 2938 2388 2941 2417 
Q 2944 2447 2944 2509 
Q 2944 2788 2717 2942 
Q 2491 3097 2081 3097 
Q 1800 3097 1504 3025 
Q 1209 2953 897 2809 
L 997 3341 
Q 1322 3463 1633 3523 
Q 1944 3584 2234 3584 
Q 2853 3584 3176 3315 
Q 3500 3047 3500 2534 
Q 3500 2431 3484 2292 
Q 3469 2153 3438 1997 
z
M 2816 1759 
L 2241 1759 
Q 1534 1759 1195 1570 
Q 856 1381 856 984 
Q 856 709 1029 553 
Q 1203 397 1509 397 
Q 1978 397 2328 733 
Q 2678 1069 2791 1631 
L 2816 1759 
z
" transform="scale(0.015625)"/>
      </defs>
      <use xlink:href="#DejaVuSans-Oblique-56" transform="translate(0 0.09375)"/>
      <use xlink:href="#DejaVuSans-Oblique-61" transform="translate(68.408203 -16.3125)scale(0.7)"/>
     </g>
    </g>
   </g>
   <g id="patch_12">
    <path d="M 282.4317 141.415 
C 283.040341 141.415 283.624136 141.173184 284.05451 140.74281 
C 284.484884 140.312436 284.7267 139.728641 284.7267 139.12 
C 284.7267 138.511359 284.484884 137.927564 284.05451 137.49719 
C 283.624136 137.066816 283.040341 136.825 282.4317 136.825 
C 281.823059 136.825 281.239264 137.066816 280.80889 137.49719 
C 280.378516 137.927564 280.1367 138.511359 280.1367 139.12 
C 280.1367 139.728641 280.378516 140.312436 280.80889 140.74281 
C 281.239264 141.173184 281.823059 141.415 282.4317 141.415 
z
" clip-path="url(#pa065ae9555)" style="fill: #ffffff; stroke: #000000; stroke-width: 2; stroke-linejoin: miter"/>
   </g>
   <g id="text_11">
    <g clip-path="url(#pa065ae9555)">
     <!-- $V_{out}$ -->
     <g transform="translate(270.8067 131.165391)scale(0.125 -0.125)">
      <defs>
       <path id="DejaVuSans-Oblique-6f" d="M 1625 -91 
Q 1009 -91 651 289 
Q 294 669 294 1325 
Q 294 1706 417 2101 
Q 541 2497 738 2766 
Q 1047 3184 1428 3384 
Q 1809 3584 2291 3584 
Q 2888 3584 3255 3212 
Q 3622 2841 3622 2241 
Q 3622 1825 3500 1412 
Q 3378 1000 3181 728 
Q 2875 309 2494 109 
Q 2113 -91 1625 -91 
z
M 891 1344 
Q 891 869 1089 633 
Q 1288 397 1691 397 
Q 2269 397 2648 901 
Q 3028 1406 3028 2181 
Q 3028 2634 2825 2865 
Q 2622 3097 2228 3097 
Q 1903 3097 1650 2945 
Q 1397 2794 1197 2484 
Q 1050 2253 970 1956 
Q 891 1659 891 1344 
z
" transform="scale(0.015625)"/>
       <path id="DejaVuSans-Oblique-75" d="M 428 1388 
L 838 3500 
L 1416 3500 
L 1006 1409 
Q 975 1256 961 1147 
Q 947 1038 947 966 
Q 947 700 1109 554 
Q 1272 409 1569 409 
Q 2031 409 2368 721 
Q 2706 1034 2809 1563 
L 3194 3500 
L 3769 3500 
L 3091 0 
L 2516 0 
L 2631 550 
Q 2388 244 2052 76 
Q 1716 -91 1338 -91 
Q 878 -91 622 161 
Q 366 413 366 863 
Q 366 956 381 1097 
Q 397 1238 428 1388 
z
" transform="scale(0.015625)"/>
       <path id="DejaVuSans-Oblique-74" d="M 2706 3500 
L 2619 3053 
L 1472 3053 
L 1100 1153 
Q 1081 1047 1072 975 
Q 1063 903 1063 863 
Q 1063 663 1183 572 
Q 1303 481 1569 481 
L 2150 481 
L 2053 0 
L 1503 0 
Q 991 0 739 200 
Q 488 400 488 806 
Q 488 878 497 964 
Q 506 1050 525 1153 
L 897 3053 
L 409 3053 
L 500 3500 
L 978 3500 
L 1172 4494 
L 1747 4494 
L 1556 3500 
L 2706 3500 
z
" transform="scale(0.015625)"/>
      </defs>
      <use xlink:href="#DejaVuSans-Oblique-56" transform="translate(0 0.09375)"/>
      <use xlink:href="#DejaVuSans-Oblique-6f" transform="translate(68.408203 -16.3125)scale(0.7)"/>
      <use xlink:href="#DejaVuSans-Oblique-75" transform="translate(111.235352 -16.3125)scale(0.7)"/>
      <use xlink:href="#DejaVuSans-Oblique-74" transform="translate(155.600586 -16.3125)scale(0.7)"/>
     </g>
    </g>
   </g>
  </g>
 </g>
 <defs>
  <clipPath id="pa065ae9555">
   <rect x="7.2" y="7.2" width="304.419" height="246.364"/>
  </clipPath>
 </defs>
</svg>
