<?xml version="1.0" encoding="UTF-8" standalone="no"?>
<svg
   xmlns:dc="http://purl.org/dc/elements/1.1/"
   xmlns:cc="http://creativecommons.org/ns#"
   xmlns:rdf="http://www.w3.org/1999/02/22-rdf-syntax-ns#"
   xmlns:svg="http://www.w3.org/2000/svg"
   xmlns="http://www.w3.org/2000/svg"
   xmlns:sodipodi="http://sodipodi.sourceforge.net/DTD/sodipodi-0.dtd"
   xmlns:inkscape="http://www.inkscape.org/namespaces/inkscape"
   width="330.07016"
   height="136.99994"
   overflow="hidden"
   version="1.1"
   id="svg81"
   sodipodi:docname="logo.svg"
   style="overflow:hidden"
   inkscape:version="0.92.3 (2405546, 2018-03-11)">
  <metadata
     id="metadata85">
    <rdf:RDF>
      <cc:Work
         rdf:about="">
        <dc:format>image/svg+xml</dc:format>
        <dc:type
           rdf:resource="http://purl.org/dc/dcmitype/StillImage" />
      </cc:Work>
    </rdf:RDF>
  </metadata>
  <sodipodi:namedview
     pagecolor="#ffffff"
     bordercolor="#666666"
     borderopacity="1"
     objecttolerance="10"
     gridtolerance="10"
     guidetolerance="10"
     inkscape:pageopacity="0"
     inkscape:pageshadow="2"
     inkscape:window-width="640"
     inkscape:window-height="480"
     id="namedview83"
     showgrid="false"
     inkscape:zoom="0.78676471"
     inkscape:cx="-47.097976"
     inkscape:cy="68.999993"
     inkscape:current-layer="svg81" />
  <defs
     id="defs5">
    <clipPath
       id="clip0">
      <rect
         x="0"
         y="0"
         width="816"
         height="144"
         id="rect2" />
    </clipPath>
  </defs>
  <path
     style="fill:none;fill-rule:evenodd;stroke:#000000;stroke-width:1.66666996;stroke-linejoin:round;stroke-miterlimit:10"
     inkscape:connector-curvature="0"
     id="path9"
     stroke-miterlimit="10"
     d="m 103.56558,54.99995 v 26.6667 l -26.000005,13.3662 v 6.65009 l 26.000005,13.301 v 20.016" />
  <path
     style="fill:none;fill-rule:evenodd;stroke:#000000;stroke-width:1.66666996;stroke-linejoin:round;stroke-miterlimit:10"
     inkscape:connector-curvature="0"
     id="path11"
     stroke-miterlimit="10"
     d="m 77.565575,80.99995 1,32.99999" />
  <path
     style="fill:none;fill-rule:evenodd;stroke:#000000;stroke-width:1.66666996;stroke-linejoin:round;stroke-miterlimit:10"
     inkscape:connector-curvature="0"
     id="path13"
     stroke-miterlimit="10"
     d="m 77.565575,97.999945 h -27" />
  <path
     style="fill-rule:evenodd"
     inkscape:connector-curvature="0"
     id="path15"
     d="m 103.56558,114.99994 -11.000005,-3.892 0.894,-1.802 1.7,-2.306 z" />
  <path
     style="fill:#ffffff;fill-rule:evenodd;stroke:#000000;stroke-width:1.66666996;stroke-linejoin:round;stroke-miterlimit:10"
     inkscape:connector-curvature="0"
     id="path17"
     stroke-miterlimit="10"
     d="m 45.565575,97.999945 c 0,-1.105 1.343,-2 3,-2 1.657,0 3,0.895 3,2 0,1.105 -1.343,2 -3,2 -1.657,0 -3,-0.895 -3,-2 z" />
  <path
     style="fill:none;fill-rule:evenodd;stroke:#000000;stroke-width:3;stroke-miterlimit:8"
     inkscape:connector-curvature="0"
     id="path19"
     stroke-miterlimit="8"
     d="M 2.0655753,1.5 196.06558,1.50011" />
  <path
     style="fill:none;fill-rule:evenodd;stroke:#000000;stroke-width:3;stroke-miterlimit:8"
     inkscape:connector-curvature="0"
     id="path21"
     stroke-miterlimit="8"
     d="m 2.0655753,135.49994 328.0000047,-1" />
  <path
     style="fill:none;fill-rule:evenodd;stroke:#000000;stroke-width:1.33333004;stroke-linejoin:round;stroke-miterlimit:10"
     inkscape:connector-curvature="0"
     id="path23"
     stroke-miterlimit="10"
     d="m 104.06558,65.50005 77,1" />
  <path
     style="fill:none;fill-rule:evenodd;stroke:#000000;stroke-width:1.33333004;stroke-linejoin:round;stroke-miterlimit:10"
     inkscape:connector-curvature="0"
     id="path25"
     stroke-miterlimit="10"
     d="m 104.22158,55.50005 c -2.479,0 -4.692005,0 -6.286005,-0.7398 -1.594,-0.7397 -4.25,-2.8767 -3.453,-3.9452 0.797,-1.0685 5.401,-2.5479 7.968005,-2.5479 2.568,0 7.615,1.726 7.615,2.4657 0,0.7398 -5.401,1.8082 -7.349,1.9726 -1.948,0.1644 -3.187005,0 -4.516005,-0.7397 -1.328,-0.7397 -2.833,-2.8767 -3.453,-3.9452 -0.619,-1.0685 -1.328,-1.6438 -0.088,-2.3836 1.239,-0.7397 5.312,-2.2191 7.791005,-2.0548 2.48,0.1644 7.349,2.4658 7.349,3.2055 0,0.7398 -4.692,1.8904 -7.171,1.3151 -2.48,-0.5753 -7.792005,-3.2877 -7.881005,-4.6849 -0.088,-1.3973 4.87,-3.3699 7.349005,-3.6987 2.479,-0.3287 7.615,1.0685 7.703,1.7261 0.089,0.6575 -4.869,2.7945 -7.437,2.3835 -2.568005,-0.4109 -7.969005,-3.452 -7.969005,-4.6849 0,-1.2329 5.136,-2.7123 7.703005,-2.9589 2.568,-0.2466 7.526,0.9863 7.526,1.5616 0,0.5754 -4.781,2.3014 -7.26,2.137 -2.479005,-0.1644 -6.464005,-1.9726 -7.703005,-3.1233 -1.24,-1.1507 -1.24,-2.7945 0.088,-3.5342 1.328,-0.7397 5.224,-1.1507 7.703005,-0.9863 2.48,0.1644 7.349,1.1507 7.349,1.8082 0,0.6575 -4.958,2.7123 -7.437,2.3836 -2.479005,-0.3288 -6.287005,-3.1233 -7.615005,-4.3562 -1.328,-1.2329 -1.328,-2.3014 -0.088,-2.9589 1.239,-0.6575 4.87,-1.3151 7.437005,-1.0685 2.568,0.2466 7.792,1.8082 7.792,2.4658 0,0.6575 -4.958,1.9726 -7.526,1.5616 -2.568005,-0.411 -7.969005,-2.6301 -7.969005,-3.9452 0,-1.3151 5.401,-3.4521 7.969005,-3.7808 2.568,-0.3288 7.703,1.315 7.703,1.9726 0,0.6575 -5.312,2.137 -7.969,2.0548 -2.656005,-0.0822 -6.729005,-1.6439 -7.880005,-2.7124 -1.151,-1.0685 -0.708,-2.9589 0.708,-3.9452 1.417,-0.9863 4.427,-1.726 7.704005,-2.2191" />
  <path
     style="fill:none;fill-rule:evenodd;stroke:#000000;stroke-width:1.33333004;stroke-linejoin:round;stroke-miterlimit:10"
     inkscape:connector-curvature="0"
     id="path27"
     stroke-miterlimit="10"
     d="m 103.06558,19.50005 1e-4,-18" />
  <text
     style="font-weight:400;font-size:12px;font-family:Tahoma, Tahoma_MSFontService, sans-serif"
     id="text35"
     font-size="12"
     font-weight="400"
     x="77.386566"
     y="34.999954">L<tspan
   style="font-size:12px"
   id="tspan29"
   y="21.99995"
   x="0.046875"
   font-size="12">V</tspan>
<tspan
   style="font-size:8px"
   id="tspan31"
   y="23.99995"
   x="7.2135773"
   font-size="8">dd</tspan>
<tspan
   style="font-size:12px"
   id="tspan33"
   y="125.99995"
   x="6.894165"
   font-size="12">0</tspan>
</text>
  <path
     style="fill:none;fill-rule:evenodd;stroke:#000000;stroke-width:1.33333004;stroke-miterlimit:8"
     inkscape:connector-curvature="0"
     id="path37"
     stroke-miterlimit="8"
     d="m 303.70158,105.49994 -7.09,-0.98 14.454,-2.615 -15,-3.136995 14.727,-2.68 -14.454,-2.091195 14.727,-2.549 -15,-2.353 14.455,-1.8954 -7.909,-0.8497 v -0.8496" />
  <path
     style="fill:none;fill-rule:evenodd;stroke:#000000;stroke-width:1.33333004;stroke-miterlimit:8"
     inkscape:connector-curvature="0"
     id="path39"
     stroke-miterlimit="8"
     d="m 303.61158,105.49994 6.909,1.226 -14.455,2.581 15,3.096 -14.727,2.645 14.454,2.065 -14.727,2.516 15,2.323 -14.454,1.871 7.909,0.838 v 0.839" />
  <path
     style="fill:none;fill-rule:evenodd;stroke:#000000;stroke-width:1.33333004;stroke-linejoin:round;stroke-miterlimit:10"
     inkscape:connector-curvature="0"
     id="path41"
     stroke-miterlimit="10"
     d="m 302.06558,71.50005 v 14" />
  <text
     style="font-weight:400;font-size:12px;font-family:Tahoma, Tahoma_MSFontService, sans-serif"
     id="text45"
     font-size="12"
     font-weight="400"
     x="316.63159"
     y="104.99995">R<tspan
   style="font-size:8px"
   id="tspan43"
   y="106.99995"
   x="324.13159"
   font-size="8">L</tspan>
</text>
  <path
     style="fill:none;fill-rule:evenodd;stroke:#000000;stroke-width:1.33333004;stroke-linejoin:round;stroke-miterlimit:10"
     inkscape:connector-curvature="0"
     id="path47"
     stroke-miterlimit="10"
     d="m 181.06558,66.00005 c 0,-2.3333 0,-4.4167 0.801,-5.9167 0.802,-1.5 3.117,-4 4.274,-3.25 1.158,0.75 2.761,5.0834 2.761,7.5 0,2.4167 -1.87,7.1667 -2.672,7.1667 -0.801,0 -1.958,-5.0833 -2.137,-6.9167 -0.178,-1.8333 0,-3 0.802,-4.25 0.801,-1.25 3.116,-2.6666 4.274,-3.25 1.157,-0.5833 1.781,-1.25 2.582,-0.0833 0.801,1.1667 2.404,5 2.226,7.3333 -0.178,2.3334 -2.671,6.9167 -3.473,6.9167 -0.801,0 -2.048,-4.4167 -1.424,-6.75 0.623,-2.3333 3.561,-7.3333 5.075,-7.4167 1.514,-0.0833 3.651,4.5834 4.007,6.9167 0.356,2.3333 -1.158,7.1667 -1.87,7.25 -0.712,0.0833 -3.027,-4.5833 -2.582,-7 0.445,-2.4167 3.74,-7.5 5.075,-7.5 1.336,0 2.939,4.8333 3.206,7.25 0.267,2.4167 -1.069,7.0833 -1.692,7.0833 -0.623,0 -2.493,-4.5 -2.315,-6.8333 0.178,-2.3333 2.137,-6.0833 3.383,-7.25 1.247,-1.1667 3.028,-1.1667 3.829,0.0833 0.802,1.25 1.247,4.9167 1.069,7.25 -0.178,2.3334 -1.247,6.9167 -1.959,6.9167 -0.713,0 -2.939,-4.6667 -2.582,-7 0.356,-2.3333 3.383,-5.9167 4.719,-7.1667 1.335,-1.25 2.493,-1.25 3.205,-0.0833 0.712,1.1667 1.425,4.5833 1.158,7 -0.267,2.4167 -1.959,7.3333 -2.672,7.3333 -0.712,0 -2.136,-4.6666 -1.691,-7.0833 0.445,-2.4167 2.849,-7.5 4.274,-7.5 1.424,0 3.739,5.0833 4.096,7.5 0.356,2.4167 -1.425,7.25 -2.137,7.25 -0.713,0 -2.316,-5 -2.226,-7.5 0.089,-2.5 1.78,-6.3333 2.938,-7.4167 1.157,-1.0833 3.205,-0.6666 4.274,0.6667 1.068,1.3333 1.87,4.1667 2.404,7.25" />
  <text
     style="font-weight:400;font-size:12px;font-family:Tahoma, Tahoma_MSFontService, sans-serif"
     id="text51"
     font-size="12"
     font-weight="400"
     x="194.14258"
     y="41.999954">L<tspan
   style="font-size:8px"
   id="tspan49"
   y="43.999954"
   x="200.14258"
   font-size="8">o</tspan>
</text>
  <path
     style="fill:none;fill-rule:evenodd;stroke:#000000;stroke-width:1.33333004;stroke-linejoin:round;stroke-miterlimit:10"
     inkscape:connector-curvature="0"
     id="path53"
     stroke-miterlimit="10"
     d="m 305.06558,125.49994 v 9" />
  <path
     style="fill:none;fill-rule:evenodd;stroke:#000000;stroke-width:1.33333004;stroke-linejoin:round;stroke-miterlimit:10"
     inkscape:connector-curvature="0"
     id="path55"
     stroke-miterlimit="10"
     d="m 141.06558,65.50005 v 26" />
  <path
     style="fill:none;fill-rule:evenodd;stroke:#000000;stroke-width:3;stroke-linejoin:round;stroke-miterlimit:10"
     inkscape:connector-curvature="0"
     id="path57"
     stroke-miterlimit="10"
     d="m 128.06558,91.50005 25,1e-4" />
  <path
     style="fill:none;fill-rule:evenodd;stroke:#000000;stroke-width:3;stroke-linejoin:round;stroke-miterlimit:10"
     inkscape:connector-curvature="0"
     id="path59"
     stroke-miterlimit="10"
     d="m 128.06558,96.499945 h 25" />
  <path
     style="fill:none;fill-rule:evenodd;stroke:#000000;stroke-width:1.33333004;stroke-linejoin:round;stroke-miterlimit:10"
     inkscape:connector-curvature="0"
     id="path61"
     stroke-miterlimit="10"
     d="M 141.06558,96.499945 V 134.49994" />
  <path
     style="fill:none;fill-rule:evenodd;stroke:#000000;stroke-width:3;stroke-linejoin:round;stroke-miterlimit:10"
     inkscape:connector-curvature="0"
     id="path63"
     stroke-miterlimit="10"
     d="m 257.06558,54.50005 v 20" />
  <path
     style="fill:none;fill-rule:evenodd;stroke:#000000;stroke-width:3;stroke-linejoin:round;stroke-miterlimit:10"
     inkscape:connector-curvature="0"
     id="path65"
     stroke-miterlimit="10"
     d="m 262.06558,54.50005 v 20" />
  <path
     style="fill:none;fill-rule:evenodd;stroke:#000000;stroke-width:1.33333004;stroke-linejoin:round;stroke-miterlimit:10"
     inkscape:connector-curvature="0"
     id="path67"
     stroke-miterlimit="10"
     d="m 263.06558,64.50005 40,1e-4" />
  <path
     style="fill:none;fill-rule:evenodd;stroke:#000000;stroke-width:1.33333004;stroke-linejoin:round;stroke-miterlimit:10"
     inkscape:connector-curvature="0"
     id="path69"
     stroke-miterlimit="10"
     d="m 302.06558,64.50005 v 9" />
  <path
     style="fill:none;fill-rule:evenodd;stroke:#000000;stroke-width:1.33333004;stroke-linejoin:round;stroke-miterlimit:10"
     inkscape:connector-curvature="0"
     id="path71"
     stroke-miterlimit="10"
     d="m 256.06558,64.50005 -37,1e-4" />
  <text
     style="font-weight:400;font-size:12px;font-family:Tahoma, Tahoma_MSFontService, sans-serif"
     id="text77"
     font-size="12"
     font-weight="400"
     x="255.24158"
     y="43.999954">C<tspan
   style="font-size:8px"
   id="tspan73"
   y="45.999954"
   x="262.4082"
   font-size="8">o</tspan>
<tspan
   style="font-size:12px"
   id="tspan75"
   y="101.99995"
   x="162.01245"
   font-size="12">C</tspan>
</text>
</svg>
