<?xml version="1.0" encoding="utf-8" standalone="no"?>
<!DOCTYPE svg PUBLIC "-//W3C//DTD SVG 1.1//EN"
  "http://www.w3.org/Graphics/SVG/1.1/DTD/svg11.dtd">
<svg xmlns:xlink="http://www.w3.org/1999/xlink" width="221.106pt" height="224.497656pt" viewBox="0 0 221.106 224.497656" xmlns="http://www.w3.org/2000/svg" version="1.1">
 <metadata>
  <rdf:RDF xmlns:dc="http://purl.org/dc/elements/1.1/" xmlns:cc="http://creativecommons.org/ns#" xmlns:rdf="http://www.w3.org/1999/02/22-rdf-syntax-ns#">
   <cc:Work>
    <dc:type rdf:resource="http://purl.org/dc/dcmitype/StillImage"/>
    <dc:date>2024-01-02T14:45:31.275878</dc:date>
    <dc:format>image/svg+xml</dc:format>
    <dc:creator>
     <cc:Agent>
      <dc:title>Matplotlib v3.8.2, https://matplotlib.org/</dc:title>
     </cc:Agent>
    </dc:creator>
   </cc:Work>
  </rdf:RDF>
 </metadata>
 <defs>
  <style type="text/css">*{stroke-linejoin: round; stroke-linecap: butt}</style>
 </defs>
 <g id="figure_1">
  <g id="patch_1">
   <path d="M 0 224.497656 
L 221.106 224.497656 
L 221.106 -0 
L 0 -0 
z
" style="fill: #ffffff"/>
  </g>
  <g id="axes_1">
   <g id="patch_2">
    <path d="M 53.883 91.657656 
L 54.054352 91.656297 
L 54.225662 91.652219 
L 54.396885 91.645424 
L 54.567978 91.635912 
L 54.7389 91.623688 
L 54.909605 91.608753 
L 55.080053 91.591112 
L 55.250198 91.570768 
L 55.42 91.547728 
L 55.589415 91.521996 
L 55.7584 91.49358 
L 55.926913 91.462486 
L 56.094912 91.428723 
L 56.262354 91.392298 
L 56.429197 91.353221 
L 56.595398 91.311502 
L 56.760917 91.267152 
L 56.925712 91.22018 
L 57.08974 91.1706 
L 57.252961 91.118424 
L 57.415334 91.063665 
L 57.576818 91.006337 
L 57.737371 90.946453 
L 57.896955 90.88403 
L 58.055527 90.819083 
L 58.21305 90.751628 
L 58.369482 90.681682 
L 58.524785 90.609263 
L 58.678919 90.534389 
L 58.831846 90.457079 
L 58.983528 90.377353 
L 59.133925 90.29523 
L 59.283 90.210731 
L 59.430716 90.123877 
L 59.577035 90.034691 
L 59.721921 89.943194 
L 59.865337 89.849411 
L 60.007247 89.753363 
L 60.147615 89.655077 
L 60.286406 89.554575 
L 60.423585 89.451884 
L 60.559117 89.34703 
L 60.692969 89.240038 
L 60.825106 89.130936 
L 60.955496 89.019752 
L 61.084105 88.906512 
L 61.210902 88.791247 
L 61.335853 88.673984 
L 61.458929 88.554753 
L 61.580097 88.433585 
L 61.699328 88.31051 
L 61.81659 88.185558 
L 61.931856 88.058761 
L 62.045095 87.930152 
L 62.15628 87.799762 
L 62.265382 87.667625 
L 62.372373 87.533773 
L 62.477228 87.398241 
L 62.579919 87.261062 
L 62.68042 87.122271 
L 62.778707 86.981903 
L 62.874754 86.839993 
L 62.968538 86.696577 
L 63.060035 86.551691 
L 63.149221 86.405372 
L 63.236074 86.257656 
L 63.320573 86.108581 
L 63.402696 85.958184 
L 63.482423 85.806503 
L 63.559733 85.653576 
L 63.634607 85.499441 
L 63.707026 85.344138 
L 63.776971 85.187706 
L 63.844426 85.030184 
L 63.909374 84.871611 
L 63.971797 84.712027 
L 64.03168 84.551474 
L 64.089009 84.38999 
L 64.143768 84.227617 
L 64.195944 84.064396 
L 64.245524 83.900368 
L 64.292495 83.735573 
L 64.336846 83.570055 
L 64.378565 83.403853 
L 64.417642 83.23701 
L 64.454066 83.069568 
L 64.48783 82.90157 
L 64.518924 82.733057 
L 64.54734 82.564071 
L 64.573072 82.394657 
L 64.596112 82.224855 
L 64.616455 82.054709 
L 64.634097 81.884262 
L 64.649032 81.713556 
L 64.661256 81.542635 
L 64.670767 81.371541 
L 64.677563 81.200318 
L 64.681641 81.029009 
L 64.683 80.857656 
L 64.683 37.297656 
L 64.681641 37.126304 
L 64.677563 36.954995 
L 64.670767 36.783772 
L 64.661256 36.612678 
L 64.649032 36.441757 
L 64.634097 36.271051 
L 64.616455 36.100604 
L 64.596112 35.930458 
L 64.573072 35.760656 
L 64.54734 35.591241 
L 64.518924 35.422256 
L 64.48783 35.253743 
L 64.454066 35.085744 
L 64.417642 34.918302 
L 64.378565 34.75146 
L 64.336846 34.585258 
L 64.292495 34.419739 
L 64.245524 34.254945 
L 64.195944 34.090916 
L 64.143768 33.927695 
L 64.089009 33.765322 
L 64.03168 33.603839 
L 63.971797 33.443285 
L 63.909374 33.283702 
L 63.844426 33.125129 
L 63.776971 32.967606 
L 63.707026 32.811174 
L 63.634607 32.655871 
L 63.559733 32.501737 
L 63.482423 32.34881 
L 63.402696 32.197129 
L 63.320573 32.046732 
L 63.236074 31.897656 
L 63.149221 31.74994 
L 63.060035 31.603621 
L 62.968538 31.458735 
L 62.874754 31.31532 
L 62.778707 31.17341 
L 62.68042 31.033042 
L 62.579919 30.894251 
L 62.477228 30.757072 
L 62.372373 30.621539 
L 62.265382 30.487687 
L 62.15628 30.35555 
L 62.045095 30.22516 
L 61.931856 30.096551 
L 61.81659 29.969755 
L 61.699328 29.844803 
L 61.580097 29.721727 
L 61.458929 29.600559 
L 61.335853 29.481329 
L 61.210902 29.364066 
L 61.084105 29.2488 
L 60.955496 29.135561 
L 60.825106 29.024376 
L 60.692969 28.915274 
L 60.559117 28.808283 
L 60.423585 28.703428 
L 60.286406 28.600737 
L 60.147615 28.500236 
L 60.007247 28.401949 
L 59.865337 28.305902 
L 59.721921 28.212118 
L 59.577035 28.120622 
L 59.430716 28.031435 
L 59.283 27.944582 
L 59.133925 27.860083 
L 58.983528 27.77796 
L 58.831846 27.698233 
L 58.678919 27.620923 
L 58.524785 27.54605 
L 58.369482 27.473631 
L 58.21305 27.403685 
L 58.055527 27.33623 
L 57.896955 27.271283 
L 57.737371 27.208859 
L 57.576818 27.148976 
L 57.415334 27.091647 
L 57.252961 27.036888 
L 57.08974 26.984712 
L 56.925712 26.935132 
L 56.760917 26.888161 
L 56.595398 26.84381 
L 56.429197 26.802091 
L 56.262354 26.763015 
L 56.094912 26.72659 
L 55.926913 26.692826 
L 55.7584 26.661733 
L 55.589415 26.633316 
L 55.42 26.607585 
L 55.250198 26.584544 
L 55.080053 26.564201 
L 54.909605 26.546559 
L 54.7389 26.531625 
L 54.567978 26.5194 
L 54.396885 26.509889 
L 54.225662 26.503094 
L 54.054352 26.499016 
L 53.883 26.497656 
L 41.223 26.497656 
L 41.051648 26.499016 
L 40.880338 26.503094 
L 40.709115 26.509889 
L 40.538022 26.5194 
L 40.3671 26.531625 
L 40.196395 26.546559 
L 40.025947 26.564201 
L 39.855802 26.584544 
L 39.686 26.607585 
L 39.516585 26.633316 
L 39.3476 26.661733 
L 39.179087 26.692826 
L 39.011088 26.72659 
L 38.843646 26.763015 
L 38.676803 26.802091 
L 38.510602 26.84381 
L 38.345083 26.888161 
L 38.180288 26.935132 
L 38.01626 26.984712 
L 37.853039 27.036888 
L 37.690666 27.091647 
L 37.529182 27.148976 
L 37.368629 27.208859 
L 37.209045 27.271283 
L 37.050473 27.33623 
L 36.89295 27.403685 
L 36.736518 27.473631 
L 36.581215 27.54605 
L 36.427081 27.620923 
L 36.274154 27.698233 
L 36.122472 27.77796 
L 35.972075 27.860083 
L 35.823 27.944582 
L 35.675284 28.031435 
L 35.528965 28.120622 
L 35.384079 28.212118 
L 35.240663 28.305902 
L 35.098753 28.401949 
L 34.958385 28.500236 
L 34.819594 28.600737 
L 34.682415 28.703428 
L 34.546883 28.808283 
L 34.413031 28.915274 
L 34.280894 29.024376 
L 34.150504 29.135561 
L 34.021895 29.2488 
L 33.895098 29.364066 
L 33.770147 29.481329 
L 33.647071 29.600559 
L 33.525903 29.721727 
L 33.406672 29.844803 
L 33.28941 29.969755 
L 33.174144 30.096551 
L 33.060905 30.22516 
L 32.94972 30.35555 
L 32.840618 30.487687 
L 32.733627 30.621539 
L 32.628772 30.757072 
L 32.526081 30.894251 
L 32.42558 31.033042 
L 32.327293 31.17341 
L 32.231246 31.31532 
L 32.137462 31.458735 
L 32.045965 31.603621 
L 31.956779 31.74994 
L 31.869926 31.897656 
L 31.785427 32.046732 
L 31.703304 32.197129 
L 31.623577 32.34881 
L 31.546267 32.501737 
L 31.471393 32.655871 
L 31.398974 32.811174 
L 31.329029 32.967606 
L 31.261574 33.125129 
L 31.196626 33.283702 
L 31.134203 33.443285 
L 31.07432 33.603839 
L 31.016991 33.765322 
L 30.962232 33.927695 
L 30.910056 34.090916 
L 30.860476 34.254945 
L 30.813505 34.419739 
L 30.769154 34.585258 
L 30.727435 34.75146 
L 30.688358 34.918302 
L 30.651934 35.085744 
L 30.61817 35.253743 
L 30.587076 35.422256 
L 30.55866 35.591241 
L 30.532928 35.760656 
L 30.509888 35.930458 
L 30.489545 36.100604 
L 30.471903 36.271051 
L 30.456968 36.441757 
L 30.444744 36.612678 
L 30.435233 36.783772 
L 30.428437 36.954995 
L 30.424359 37.126304 
L 30.423 37.297656 
L 30.423 80.857656 
L 30.424359 81.029009 
L 30.428437 81.200318 
L 30.435233 81.371541 
L 30.444744 81.542635 
L 30.456968 81.713556 
L 30.471903 81.884262 
L 30.489545 82.054709 
L 30.509888 82.224855 
L 30.532928 82.394657 
L 30.55866 82.564071 
L 30.587076 82.733057 
L 30.61817 82.90157 
L 30.651934 83.069568 
L 30.688358 83.23701 
L 30.727435 83.403853 
L 30.769154 83.570055 
L 30.813505 83.735573 
L 30.860476 83.900368 
L 30.910056 84.064396 
L 30.962232 84.227617 
L 31.016991 84.38999 
L 31.07432 84.551474 
L 31.134203 84.712027 
L 31.196626 84.871611 
L 31.261574 85.030184 
L 31.329029 85.187706 
L 31.398974 85.344138 
L 31.471393 85.499441 
L 31.546267 85.653576 
L 31.623577 85.806503 
L 31.703304 85.958184 
L 31.785427 86.108581 
L 31.869926 86.257656 
L 31.956779 86.405372 
L 32.045965 86.551691 
L 32.137462 86.696577 
L 32.231246 86.839993 
L 32.327293 86.981903 
L 32.42558 87.122271 
L 32.526081 87.261062 
L 32.628772 87.398241 
L 32.733627 87.533773 
L 32.840618 87.667625 
L 32.94972 87.799762 
L 33.060905 87.930152 
L 33.174144 88.058761 
L 33.28941 88.185558 
L 33.406672 88.31051 
L 33.525903 88.433585 
L 33.647071 88.554753 
L 33.770147 88.673984 
L 33.895098 88.791247 
L 34.021895 88.906512 
L 34.150504 89.019752 
L 34.280894 89.130936 
L 34.413031 89.240038 
L 34.546883 89.34703 
L 34.682415 89.451884 
L 34.819594 89.554575 
L 34.958385 89.655077 
L 35.098753 89.753363 
L 35.240663 89.849411 
L 35.384079 89.943194 
L 35.528965 90.034691 
L 35.675284 90.123877 
L 35.823 90.210731 
L 35.972075 90.29523 
L 36.122472 90.377353 
L 36.274154 90.457079 
L 36.427081 90.534389 
L 36.581215 90.609263 
L 36.736518 90.681682 
L 36.89295 90.751628 
L 37.050473 90.819083 
L 37.209045 90.88403 
L 37.368629 90.946453 
L 37.529182 91.006337 
L 37.690666 91.063665 
L 37.853039 91.118424 
L 38.01626 91.1706 
L 38.180288 91.22018 
L 38.345083 91.267152 
L 38.510602 91.311502 
L 38.676803 91.353221 
L 38.843646 91.392298 
L 39.011088 91.428723 
L 39.179087 91.462486 
L 39.3476 91.49358 
L 39.516585 91.521996 
L 39.686 91.547728 
L 39.855802 91.570768 
L 40.025947 91.591112 
L 40.196395 91.608753 
L 40.3671 91.623688 
L 40.538022 91.635912 
L 40.709115 91.645424 
L 40.880338 91.652219 
L 41.051648 91.656297 
L 41.223 91.657656 
L 53.883 91.657656 
z
" clip-path="url(#pc1be757bbc)" style="fill: none; stroke-dasharray: 1.85,0.8; stroke-dashoffset: 0; stroke: #008000; stroke-width: 0.5; stroke-linecap: round"/>
   </g>
   <g id="patch_3">
    <path d="M 53.883 195.457656 
L 54.054352 195.456297 
L 54.225662 195.452219 
L 54.396885 195.445424 
L 54.567978 195.435912 
L 54.7389 195.423688 
L 54.909605 195.408753 
L 55.080053 195.391112 
L 55.250198 195.370768 
L 55.42 195.347728 
L 55.589415 195.321996 
L 55.7584 195.29358 
L 55.926913 195.262486 
L 56.094912 195.228723 
L 56.262354 195.192298 
L 56.429197 195.153221 
L 56.595398 195.111502 
L 56.760917 195.067152 
L 56.925712 195.02018 
L 57.08974 194.9706 
L 57.252961 194.918424 
L 57.415334 194.863665 
L 57.576818 194.806337 
L 57.737371 194.746453 
L 57.896955 194.68403 
L 58.055527 194.619083 
L 58.21305 194.551628 
L 58.369482 194.481682 
L 58.524785 194.409263 
L 58.678919 194.334389 
L 58.831846 194.257079 
L 58.983528 194.177353 
L 59.133925 194.09523 
L 59.283 194.010731 
L 59.430716 193.923877 
L 59.577035 193.834691 
L 59.721921 193.743194 
L 59.865337 193.649411 
L 60.007247 193.553363 
L 60.147615 193.455077 
L 60.286406 193.354575 
L 60.423585 193.251884 
L 60.559117 193.14703 
L 60.692969 193.040038 
L 60.825106 192.930936 
L 60.955496 192.819752 
L 61.084105 192.706512 
L 61.210902 192.591247 
L 61.335853 192.473984 
L 61.458929 192.354753 
L 61.580097 192.233585 
L 61.699328 192.11051 
L 61.81659 191.985558 
L 61.931856 191.858761 
L 62.045095 191.730152 
L 62.15628 191.599762 
L 62.265382 191.467625 
L 62.372373 191.333773 
L 62.477228 191.198241 
L 62.579919 191.061062 
L 62.68042 190.922271 
L 62.778707 190.781903 
L 62.874754 190.639993 
L 62.968538 190.496577 
L 63.060035 190.351691 
L 63.149221 190.205372 
L 63.236074 190.057656 
L 63.320573 189.908581 
L 63.402696 189.758184 
L 63.482423 189.606503 
L 63.559733 189.453576 
L 63.634607 189.299441 
L 63.707026 189.144138 
L 63.776971 188.987706 
L 63.844426 188.830184 
L 63.909374 188.671611 
L 63.971797 188.512027 
L 64.03168 188.351474 
L 64.089009 188.18999 
L 64.143768 188.027617 
L 64.195944 187.864396 
L 64.245524 187.700368 
L 64.292495 187.535573 
L 64.336846 187.370055 
L 64.378565 187.203853 
L 64.417642 187.03701 
L 64.454066 186.869568 
L 64.48783 186.70157 
L 64.518924 186.533057 
L 64.54734 186.364071 
L 64.573072 186.194657 
L 64.596112 186.024855 
L 64.616455 185.854709 
L 64.634097 185.684262 
L 64.649032 185.513556 
L 64.661256 185.342635 
L 64.670767 185.171541 
L 64.677563 185.000318 
L 64.681641 184.829009 
L 64.683 184.657656 
L 64.683 141.097656 
L 64.681641 140.926304 
L 64.677563 140.754995 
L 64.670767 140.583772 
L 64.661256 140.412678 
L 64.649032 140.241757 
L 64.634097 140.071051 
L 64.616455 139.900604 
L 64.596112 139.730458 
L 64.573072 139.560656 
L 64.54734 139.391241 
L 64.518924 139.222256 
L 64.48783 139.053743 
L 64.454066 138.885744 
L 64.417642 138.718302 
L 64.378565 138.55146 
L 64.336846 138.385258 
L 64.292495 138.219739 
L 64.245524 138.054945 
L 64.195944 137.890916 
L 64.143768 137.727695 
L 64.089009 137.565322 
L 64.03168 137.403839 
L 63.971797 137.243285 
L 63.909374 137.083702 
L 63.844426 136.925129 
L 63.776971 136.767606 
L 63.707026 136.611174 
L 63.634607 136.455871 
L 63.559733 136.301737 
L 63.482423 136.14881 
L 63.402696 135.997129 
L 63.320573 135.846732 
L 63.236074 135.697656 
L 63.149221 135.54994 
L 63.060035 135.403621 
L 62.968538 135.258735 
L 62.874754 135.11532 
L 62.778707 134.97341 
L 62.68042 134.833042 
L 62.579919 134.694251 
L 62.477228 134.557072 
L 62.372373 134.421539 
L 62.265382 134.287687 
L 62.15628 134.15555 
L 62.045095 134.02516 
L 61.931856 133.896551 
L 61.81659 133.769755 
L 61.699328 133.644803 
L 61.580097 133.521727 
L 61.458929 133.400559 
L 61.335853 133.281329 
L 61.210902 133.164066 
L 61.084105 133.0488 
L 60.955496 132.935561 
L 60.825106 132.824376 
L 60.692969 132.715274 
L 60.559117 132.608283 
L 60.423585 132.503428 
L 60.286406 132.400737 
L 60.147615 132.300236 
L 60.007247 132.201949 
L 59.865337 132.105902 
L 59.721921 132.012118 
L 59.577035 131.920622 
L 59.430716 131.831435 
L 59.283 131.744582 
L 59.133925 131.660083 
L 58.983528 131.57796 
L 58.831846 131.498233 
L 58.678919 131.420923 
L 58.524785 131.34605 
L 58.369482 131.273631 
L 58.21305 131.203685 
L 58.055527 131.13623 
L 57.896955 131.071283 
L 57.737371 131.008859 
L 57.576818 130.948976 
L 57.415334 130.891647 
L 57.252961 130.836888 
L 57.08974 130.784712 
L 56.925712 130.735132 
L 56.760917 130.688161 
L 56.595398 130.64381 
L 56.429197 130.602091 
L 56.262354 130.563015 
L 56.094912 130.52659 
L 55.926913 130.492826 
L 55.7584 130.461733 
L 55.589415 130.433316 
L 55.42 130.407585 
L 55.250198 130.384544 
L 55.080053 130.364201 
L 54.909605 130.346559 
L 54.7389 130.331625 
L 54.567978 130.3194 
L 54.396885 130.309889 
L 54.225662 130.303094 
L 54.054352 130.299016 
L 53.883 130.297656 
L 41.223 130.297656 
L 41.051648 130.299016 
L 40.880338 130.303094 
L 40.709115 130.309889 
L 40.538022 130.3194 
L 40.3671 130.331625 
L 40.196395 130.346559 
L 40.025947 130.364201 
L 39.855802 130.384544 
L 39.686 130.407585 
L 39.516585 130.433316 
L 39.3476 130.461733 
L 39.179087 130.492826 
L 39.011088 130.52659 
L 38.843646 130.563015 
L 38.676803 130.602091 
L 38.510602 130.64381 
L 38.345083 130.688161 
L 38.180288 130.735132 
L 38.01626 130.784712 
L 37.853039 130.836888 
L 37.690666 130.891647 
L 37.529182 130.948976 
L 37.368629 131.008859 
L 37.209045 131.071283 
L 37.050473 131.13623 
L 36.89295 131.203685 
L 36.736518 131.273631 
L 36.581215 131.34605 
L 36.427081 131.420923 
L 36.274154 131.498233 
L 36.122472 131.57796 
L 35.972075 131.660083 
L 35.823 131.744582 
L 35.675284 131.831435 
L 35.528965 131.920622 
L 35.384079 132.012118 
L 35.240663 132.105902 
L 35.098753 132.201949 
L 34.958385 132.300236 
L 34.819594 132.400737 
L 34.682415 132.503428 
L 34.546883 132.608283 
L 34.413031 132.715274 
L 34.280894 132.824376 
L 34.150504 132.935561 
L 34.021895 133.0488 
L 33.895098 133.164066 
L 33.770147 133.281329 
L 33.647071 133.400559 
L 33.525903 133.521727 
L 33.406672 133.644803 
L 33.28941 133.769755 
L 33.174144 133.896551 
L 33.060905 134.02516 
L 32.94972 134.15555 
L 32.840618 134.287687 
L 32.733627 134.421539 
L 32.628772 134.557072 
L 32.526081 134.694251 
L 32.42558 134.833042 
L 32.327293 134.97341 
L 32.231246 135.11532 
L 32.137462 135.258735 
L 32.045965 135.403621 
L 31.956779 135.54994 
L 31.869926 135.697656 
L 31.785427 135.846732 
L 31.703304 135.997129 
L 31.623577 136.14881 
L 31.546267 136.301737 
L 31.471393 136.455871 
L 31.398974 136.611174 
L 31.329029 136.767606 
L 31.261574 136.925129 
L 31.196626 137.083702 
L 31.134203 137.243285 
L 31.07432 137.403839 
L 31.016991 137.565322 
L 30.962232 137.727695 
L 30.910056 137.890916 
L 30.860476 138.054945 
L 30.813505 138.219739 
L 30.769154 138.385258 
L 30.727435 138.55146 
L 30.688358 138.718302 
L 30.651934 138.885744 
L 30.61817 139.053743 
L 30.587076 139.222256 
L 30.55866 139.391241 
L 30.532928 139.560656 
L 30.509888 139.730458 
L 30.489545 139.900604 
L 30.471903 140.071051 
L 30.456968 140.241757 
L 30.444744 140.412678 
L 30.435233 140.583772 
L 30.428437 140.754995 
L 30.424359 140.926304 
L 30.423 141.097656 
L 30.423 184.657656 
L 30.424359 184.829009 
L 30.428437 185.000318 
L 30.435233 185.171541 
L 30.444744 185.342635 
L 30.456968 185.513556 
L 30.471903 185.684262 
L 30.489545 185.854709 
L 30.509888 186.024855 
L 30.532928 186.194657 
L 30.55866 186.364071 
L 30.587076 186.533057 
L 30.61817 186.70157 
L 30.651934 186.869568 
L 30.688358 187.03701 
L 30.727435 187.203853 
L 30.769154 187.370055 
L 30.813505 187.535573 
L 30.860476 187.700368 
L 30.910056 187.864396 
L 30.962232 188.027617 
L 31.016991 188.18999 
L 31.07432 188.351474 
L 31.134203 188.512027 
L 31.196626 188.671611 
L 31.261574 188.830184 
L 31.329029 188.987706 
L 31.398974 189.144138 
L 31.471393 189.299441 
L 31.546267 189.453576 
L 31.623577 189.606503 
L 31.703304 189.758184 
L 31.785427 189.908581 
L 31.869926 190.057656 
L 31.956779 190.205372 
L 32.045965 190.351691 
L 32.137462 190.496577 
L 32.231246 190.639993 
L 32.327293 190.781903 
L 32.42558 190.922271 
L 32.526081 191.061062 
L 32.628772 191.198241 
L 32.733627 191.333773 
L 32.840618 191.467625 
L 32.94972 191.599762 
L 33.060905 191.730152 
L 33.174144 191.858761 
L 33.28941 191.985558 
L 33.406672 192.11051 
L 33.525903 192.233585 
L 33.647071 192.354753 
L 33.770147 192.473984 
L 33.895098 192.591247 
L 34.021895 192.706512 
L 34.150504 192.819752 
L 34.280894 192.930936 
L 34.413031 193.040038 
L 34.546883 193.14703 
L 34.682415 193.251884 
L 34.819594 193.354575 
L 34.958385 193.455077 
L 35.098753 193.553363 
L 35.240663 193.649411 
L 35.384079 193.743194 
L 35.528965 193.834691 
L 35.675284 193.923877 
L 35.823 194.010731 
L 35.972075 194.09523 
L 36.122472 194.177353 
L 36.274154 194.257079 
L 36.427081 194.334389 
L 36.581215 194.409263 
L 36.736518 194.481682 
L 36.89295 194.551628 
L 37.050473 194.619083 
L 37.209045 194.68403 
L 37.368629 194.746453 
L 37.529182 194.806337 
L 37.690666 194.863665 
L 37.853039 194.918424 
L 38.01626 194.9706 
L 38.180288 195.02018 
L 38.345083 195.067152 
L 38.510602 195.111502 
L 38.676803 195.153221 
L 38.843646 195.192298 
L 39.011088 195.228723 
L 39.179087 195.262486 
L 39.3476 195.29358 
L 39.516585 195.321996 
L 39.686 195.347728 
L 39.855802 195.370768 
L 40.025947 195.391112 
L 40.196395 195.408753 
L 40.3671 195.423688 
L 40.538022 195.435912 
L 40.709115 195.445424 
L 40.880338 195.452219 
L 41.051648 195.456297 
L 41.223 195.457656 
L 53.883 195.457656 
z
" clip-path="url(#pc1be757bbc)" style="fill: none; stroke-dasharray: 1.85,0.8; stroke-dashoffset: 0; stroke: #008000; stroke-width: 0.5; stroke-linecap: round"/>
   </g>
   <g id="line2d_1">
    <path d="M 34.023 58.777656 
L 47.223 58.777656 
" clip-path="url(#pc1be757bbc)" style="fill: none; stroke: #000000; stroke-width: 2; stroke-linecap: round"/>
   </g>
   <g id="line2d_2">
    <path d="M 47.223 45.577656 
L 47.223 71.977656 
" clip-path="url(#pc1be757bbc)" style="fill: none; stroke: #000000; stroke-width: 2; stroke-linecap: round"/>
   </g>
   <g id="line2d_3">
    <path d="M 47.223 52.177656 
L 61.083 40.297656 
L 61.083 33.697656 
" clip-path="url(#pc1be757bbc)" style="fill: none; stroke: #000000; stroke-width: 2; stroke-linecap: round"/>
   </g>
   <g id="line2d_4">
    <path d="M 47.223 65.377656 
L 61.083 77.257656 
L 61.083 83.857656 
" clip-path="url(#pc1be757bbc)" style="fill: none; stroke: #000000; stroke-width: 2; stroke-linecap: round"/>
   </g>
   <g id="line2d_5">
    <path d="M 47.223 65.377656 
L 54.249691 71.400534 
" clip-path="url(#pc1be757bbc)" style="fill: none; stroke: #000000; stroke-width: 2; stroke-linecap: round"/>
   </g>
   <g id="patch_4">
    <path d="M 56.59254 68.66721 
L 61.083 77.257656 
L 51.906842 74.133858 
z
" clip-path="url(#pc1be757bbc)"/>
   </g>
   <g id="line2d_6">
    <path d="M 34.023 58.777656 
L 34.023 85.777656 
L 34.023 112.777656 
" clip-path="url(#pc1be757bbc)" style="fill: none; stroke: #000000; stroke-width: 2; stroke-linecap: round"/>
   </g>
   <g id="line2d_7">
    <path d="M 34.023 112.777656 
L 34.023 137.977656 
L 34.023 163.177656 
" clip-path="url(#pc1be757bbc)" style="fill: none; stroke: #000000; stroke-width: 2; stroke-linecap: round"/>
   </g>
   <g id="line2d_8">
    <path d="M 34.023 163.177656 
L 47.223 163.177656 
" clip-path="url(#pc1be757bbc)" style="fill: none; stroke: #000000; stroke-width: 2; stroke-linecap: round"/>
   </g>
   <g id="line2d_9">
    <path d="M 47.223 149.977656 
L 47.223 176.377656 
" clip-path="url(#pc1be757bbc)" style="fill: none; stroke: #000000; stroke-width: 2; stroke-linecap: round"/>
   </g>
   <g id="line2d_10">
    <path d="M 47.223 156.577656 
L 61.083 144.697656 
L 61.083 138.097656 
" clip-path="url(#pc1be757bbc)" style="fill: none; stroke: #000000; stroke-width: 2; stroke-linecap: round"/>
   </g>
   <g id="line2d_11">
    <path d="M 47.223 169.777656 
L 61.083 181.657656 
L 61.083 188.257656 
" clip-path="url(#pc1be757bbc)" style="fill: none; stroke: #000000; stroke-width: 2; stroke-linecap: round"/>
   </g>
   <g id="line2d_12">
    <path d="M 61.083 144.697656 
L 54.056309 150.720534 
" clip-path="url(#pc1be757bbc)" style="fill: none; stroke: #000000; stroke-width: 2; stroke-linecap: round"/>
   </g>
   <g id="patch_5">
    <path d="M 56.399158 153.453858 
L 47.223 156.577656 
L 51.71346 147.98721 
z
" clip-path="url(#pc1be757bbc)"/>
   </g>
   <g id="line2d_13">
    <path d="M 61.083 33.697656 
L 61.083 19.297656 
" clip-path="url(#pc1be757bbc)" style="fill: none; stroke: #000000; stroke-width: 2; stroke-linecap: round"/>
   </g>
   <g id="line2d_14">
    <path d="M 61.083 19.297656 
L 54.333 19.297656 
" clip-path="url(#pc1be757bbc)" style="fill: none; stroke: #000000; stroke-width: 2; stroke-linecap: round"/>
   </g>
   <g id="line2d_15">
    <path d="M 61.083 19.297656 
L 67.833 19.297656 
" clip-path="url(#pc1be757bbc)" style="fill: none; stroke: #000000; stroke-width: 2; stroke-linecap: round"/>
   </g>
   <g id="line2d_16">
    <path d="M 34.023 112.777656 
L 25.023 112.777656 
L 16.023 112.777656 
" clip-path="url(#pc1be757bbc)" style="fill: none; stroke: #000000; stroke-width: 2; stroke-linecap: round"/>
   </g>
   <g id="line2d_17">
    <path d="M 61.083 83.857656 
L 61.083 89.257656 
L 61.083 94.657656 
" clip-path="url(#pc1be757bbc)" style="fill: none; stroke: #000000; stroke-width: 2; stroke-linecap: round"/>
   </g>
   <g id="line2d_18">
    <path d="M 61.083 94.657656 
L 61.083 116.377656 
L 61.083 138.097656 
" clip-path="url(#pc1be757bbc)" style="fill: none; stroke: #000000; stroke-width: 2; stroke-linecap: round"/>
   </g>
   <g id="line2d_19">
    <path d="M 61.083 188.257656 
L 61.083 202.657656 
L 52.083 202.657656 
L 70.083 202.657656 
M 54.783 206.977656 
L 67.383 206.977656 
M 59.283 211.297656 
L 62.883 211.297656 
" clip-path="url(#pc1be757bbc)" style="fill: none; stroke: #000000; stroke-width: 2; stroke-linecap: round"/>
   </g>
   <g id="line2d_20">
    <path d="M 61.083 94.657656 
L 70.083 94.657656 
L 79.083 94.657656 
" clip-path="url(#pc1be757bbc)" style="fill: none; stroke: #000000; stroke-width: 2; stroke-linecap: round"/>
   </g>
   <g id="line2d_21">
    <path d="M 79.083 94.657656 
L 129.843 94.657656 
M 129.843 85.657656 
L 129.843 103.657656 
M 136.323 85.657656 
L 136.323 103.657656 
M 136.323 94.657656 
L 187.083 94.657656 
" clip-path="url(#pc1be757bbc)" style="fill: none; stroke: #000000; stroke-width: 2; stroke-linecap: round"/>
   </g>
   <g id="line2d_22">
    <path d="M 187.083 94.657656 
L 187.083 103.657656 
L 196.083 106.657656 
L 178.083 112.657656 
L 196.083 118.657656 
L 178.083 124.657656 
L 196.083 130.657656 
L 178.083 136.657656 
L 187.083 139.657656 
L 187.083 148.657656 
" clip-path="url(#pc1be757bbc)" style="fill: none; stroke: #000000; stroke-width: 2; stroke-linecap: round"/>
   </g>
   <g id="line2d_23">
    <path d="M 187.083 148.657656 
L 187.083 163.057656 
L 178.083 163.057656 
L 196.083 163.057656 
M 180.783 167.377656 
L 193.383 167.377656 
M 185.283 171.697656 
L 188.883 171.697656 
" clip-path="url(#pc1be757bbc)" style="fill: none; stroke: #000000; stroke-width: 2; stroke-linecap: round"/>
   </g>
   <g id="line2d_24">
    <path d="M 61.083 94.657656 
L 61.083 116.377656 
L 61.083 138.097656 
" clip-path="url(#pc1be757bbc)" style="fill: none; stroke: #000000; stroke-width: 2; stroke-linecap: round"/>
   </g>
   <g id="line2d_25">
    <path d="M 187.083 94.657656 
L 196.083 94.657656 
L 205.083 94.657656 
" clip-path="url(#pc1be757bbc)" style="fill: none; stroke: #000000; stroke-width: 2; stroke-linecap: round"/>
   </g>
   <g id="text_1">
    <!-- $V_{DD}$ -->
    <g transform="translate(49.8955 13.098047) scale(0.125 -0.125)">
     <defs>
      <path id="DejaVuSans-Oblique-56" d="M 1319 0 
L 500 4666 
L 1119 4666 
L 1797 653 
L 4063 4666 
L 4750 4666 
L 2053 0 
L 1319 0 
z
" transform="scale(0.015625)"/>
      <path id="DejaVuSans-Oblique-44" d="M 1081 4666 
L 2438 4666 
Q 3519 4666 4070 4208 
Q 4622 3750 4622 2847 
Q 4622 2250 4412 1698 
Q 4203 1147 3834 769 
Q 3463 381 2891 190 
Q 2319 0 1538 0 
L 172 0 
L 1081 4666 
z
M 1613 4147 
L 909 519 
L 1734 519 
Q 2794 519 3375 1128 
Q 3956 1738 3956 2847 
Q 3956 3519 3581 3833 
Q 3206 4147 2406 4147 
L 1613 4147 
z
" transform="scale(0.015625)"/>
     </defs>
     <use xlink:href="#DejaVuSans-Oblique-56" transform="translate(0 0.09375)"/>
     <use xlink:href="#DejaVuSans-Oblique-44" transform="translate(68.408203 -16.3125) scale(0.7)"/>
     <use xlink:href="#DejaVuSans-Oblique-44" transform="translate(122.30957 -16.3125) scale(0.7)"/>
    </g>
   </g>
   <g id="text_2">
    <!-- $C_{out}$ -->
    <g transform="translate(121.333 79.458047) scale(0.125 -0.125)">
     <defs>
      <path id="DejaVuSans-Oblique-43" d="M 4447 4306 
L 4319 3641 
Q 4019 3944 3683 4091 
Q 3347 4238 2956 4238 
Q 2422 4238 2017 3981 
Q 1613 3725 1319 3200 
Q 1131 2863 1032 2486 
Q 934 2109 934 1728 
Q 934 1091 1264 756 
Q 1594 422 2222 422 
Q 2656 422 3056 561 
Q 3456 700 3834 978 
L 3688 231 
Q 3316 72 2936 -9 
Q 2556 -91 2175 -91 
Q 1278 -91 773 396 
Q 269 884 269 1753 
Q 269 2309 461 2846 
Q 653 3384 1013 3828 
Q 1394 4300 1883 4525 
Q 2372 4750 3022 4750 
Q 3422 4750 3780 4639 
Q 4138 4528 4447 4306 
z
" transform="scale(0.015625)"/>
      <path id="DejaVuSans-Oblique-6f" d="M 1625 -91 
Q 1009 -91 651 289 
Q 294 669 294 1325 
Q 294 1706 417 2101 
Q 541 2497 738 2766 
Q 1047 3184 1428 3384 
Q 1809 3584 2291 3584 
Q 2888 3584 3255 3212 
Q 3622 2841 3622 2241 
Q 3622 1825 3500 1412 
Q 3378 1000 3181 728 
Q 2875 309 2494 109 
Q 2113 -91 1625 -91 
z
M 891 1344 
Q 891 869 1089 633 
Q 1288 397 1691 397 
Q 2269 397 2648 901 
Q 3028 1406 3028 2181 
Q 3028 2634 2825 2865 
Q 2622 3097 2228 3097 
Q 1903 3097 1650 2945 
Q 1397 2794 1197 2484 
Q 1050 2253 970 1956 
Q 891 1659 891 1344 
z
" transform="scale(0.015625)"/>
      <path id="DejaVuSans-Oblique-75" d="M 428 1388 
L 838 3500 
L 1416 3500 
L 1006 1409 
Q 975 1256 961 1147 
Q 947 1038 947 966 
Q 947 700 1109 554 
Q 1272 409 1569 409 
Q 2031 409 2368 721 
Q 2706 1034 2809 1563 
L 3194 3500 
L 3769 3500 
L 3091 0 
L 2516 0 
L 2631 550 
Q 2388 244 2052 76 
Q 1716 -91 1338 -91 
Q 878 -91 622 161 
Q 366 413 366 863 
Q 366 956 381 1097 
Q 397 1238 428 1388 
z
" transform="scale(0.015625)"/>
      <path id="DejaVuSans-Oblique-74" d="M 2706 3500 
L 2619 3053 
L 1472 3053 
L 1100 1153 
Q 1081 1047 1072 975 
Q 1063 903 1063 863 
Q 1063 663 1183 572 
Q 1303 481 1569 481 
L 2150 481 
L 2053 0 
L 1503 0 
Q 991 0 739 200 
Q 488 400 488 806 
Q 488 878 497 964 
Q 506 1050 525 1153 
L 897 3053 
L 409 3053 
L 500 3500 
L 978 3500 
L 1172 4494 
L 1747 4494 
L 1556 3500 
L 2706 3500 
z
" transform="scale(0.015625)"/>
     </defs>
     <use xlink:href="#DejaVuSans-Oblique-43" transform="translate(0 0.78125)"/>
     <use xlink:href="#DejaVuSans-Oblique-6f" transform="translate(69.824219 -15.625) scale(0.7)"/>
     <use xlink:href="#DejaVuSans-Oblique-75" transform="translate(112.651367 -15.625) scale(0.7)"/>
     <use xlink:href="#DejaVuSans-Oblique-74" transform="translate(157.016602 -15.625) scale(0.7)"/>
    </g>
   </g>
   <g id="text_3">
    <!-- $R_L$ -->
    <g transform="translate(160.483 125.106875) scale(0.125 -0.125)">
     <defs>
      <path id="DejaVuSans-Oblique-52" d="M 1613 4147 
L 1294 2491 
L 2106 2491 
Q 2584 2491 2879 2755 
Q 3175 3019 3175 3444 
Q 3175 3784 2976 3965 
Q 2778 4147 2406 4147 
L 1613 4147 
z
M 2772 2241 
Q 2972 2194 3105 2009 
Q 3238 1825 3413 1275 
L 3809 0 
L 3144 0 
L 2778 1197 
Q 2638 1659 2453 1815 
Q 2269 1972 1888 1972 
L 1191 1972 
L 806 0 
L 172 0 
L 1081 4666 
L 2503 4666 
Q 3150 4666 3495 4373 
Q 3841 4081 3841 3531 
Q 3841 3044 3547 2687 
Q 3253 2331 2772 2241 
z
" transform="scale(0.015625)"/>
      <path id="DejaVuSans-Oblique-4c" d="M 1075 4666 
L 1709 4666 
L 909 525 
L 3181 525 
L 3078 0 
L 172 0 
L 1075 4666 
z
" transform="scale(0.015625)"/>
     </defs>
     <use xlink:href="#DejaVuSans-Oblique-52" transform="translate(0 0.09375)"/>
     <use xlink:href="#DejaVuSans-Oblique-4c" transform="translate(69.482422 -16.3125) scale(0.7)"/>
    </g>
   </g>
   <g id="patch_6">
    <path d="M 34.023 115.477656 
C 34.739048 115.477656 35.425866 115.193167 35.932188 114.686845 
C 36.438511 114.180522 36.723 113.493705 36.723 112.777656 
C 36.723 112.061608 36.438511 111.374791 35.932188 110.868468 
C 35.425866 110.362145 34.739048 110.077656 34.023 110.077656 
C 33.306952 110.077656 32.620134 110.362145 32.113812 110.868468 
C 31.607489 111.374791 31.323 112.061608 31.323 112.777656 
C 31.323 113.493705 31.607489 114.180522 32.113812 114.686845 
C 32.620134 115.193167 33.306952 115.477656 34.023 115.477656 
z
" clip-path="url(#pc1be757bbc)" style="stroke: #000000; stroke-width: 2; stroke-linejoin: miter"/>
   </g>
   <g id="patch_7">
    <path d="M 16.023 115.477656 
C 16.739048 115.477656 17.425866 115.193167 17.932188 114.686845 
C 18.438511 114.180522 18.723 113.493705 18.723 112.777656 
C 18.723 112.061608 18.438511 111.374791 17.932188 110.868468 
C 17.425866 110.362145 16.739048 110.077656 16.023 110.077656 
C 15.306952 110.077656 14.620134 110.362145 14.113812 110.868468 
C 13.607489 111.374791 13.323 112.061608 13.323 112.777656 
C 13.323 113.493705 13.607489 114.180522 14.113812 114.686845 
C 14.620134 115.193167 15.306952 115.477656 16.023 115.477656 
z
" clip-path="url(#pc1be757bbc)" style="fill: #ffffff; stroke: #000000; stroke-width: 2; stroke-linejoin: miter"/>
   </g>
   <g id="text_4">
    <!-- $v_{in}$ -->
    <g transform="translate(8.148 103.878047) scale(0.125 -0.125)">
     <defs>
      <path id="DejaVuSans-Oblique-76" d="M 459 3500 
L 1069 3500 
L 1581 525 
L 3256 3500 
L 3866 3500 
L 1875 0 
L 1100 0 
L 459 3500 
z
" transform="scale(0.015625)"/>
      <path id="DejaVuSans-Oblique-69" d="M 1172 4863 
L 1747 4863 
L 1606 4134 
L 1031 4134 
L 1172 4863 
z
M 909 3500 
L 1484 3500 
L 800 0 
L 225 0 
L 909 3500 
z
" transform="scale(0.015625)"/>
      <path id="DejaVuSans-Oblique-6e" d="M 3566 2113 
L 3156 0 
L 2578 0 
L 2988 2091 
Q 3016 2238 3031 2350 
Q 3047 2463 3047 2528 
Q 3047 2791 2881 2937 
Q 2716 3084 2419 3084 
Q 1956 3084 1622 2776 
Q 1288 2469 1184 1941 
L 800 0 
L 225 0 
L 903 3500 
L 1478 3500 
L 1363 2950 
Q 1603 3253 1940 3418 
Q 2278 3584 2650 3584 
Q 3113 3584 3367 3334 
Q 3622 3084 3622 2631 
Q 3622 2519 3608 2391 
Q 3594 2263 3566 2113 
z
" transform="scale(0.015625)"/>
     </defs>
     <use xlink:href="#DejaVuSans-Oblique-76" transform="translate(0 0.3125)"/>
     <use xlink:href="#DejaVuSans-Oblique-69" transform="translate(59.179688 -16.09375) scale(0.7)"/>
     <use xlink:href="#DejaVuSans-Oblique-6e" transform="translate(78.62793 -16.09375) scale(0.7)"/>
    </g>
   </g>
   <g id="patch_8">
    <path d="M 61.083 97.357656 
C 61.799048 97.357656 62.485866 97.073167 62.992188 96.566845 
C 63.498511 96.060522 63.783 95.373705 63.783 94.657656 
C 63.783 93.941608 63.498511 93.254791 62.992188 92.748468 
C 62.485866 92.242145 61.799048 91.957656 61.083 91.957656 
C 60.366952 91.957656 59.680134 92.242145 59.173812 92.748468 
C 58.667489 93.254791 58.383 93.941608 58.383 94.657656 
C 58.383 95.373705 58.667489 96.060522 59.173812 96.566845 
C 59.680134 97.073167 60.366952 97.357656 61.083 97.357656 
z
" clip-path="url(#pc1be757bbc)" style="stroke: #000000; stroke-width: 2; stroke-linejoin: miter"/>
   </g>
   <g id="patch_9">
    <path d="M 205.083 97.357656 
C 205.799048 97.357656 206.485866 97.073167 206.992188 96.566845 
C 207.498511 96.060522 207.783 95.373705 207.783 94.657656 
C 207.783 93.941608 207.498511 93.254791 206.992188 92.748468 
C 206.485866 92.242145 205.799048 91.957656 205.083 91.957656 
C 204.366952 91.957656 203.680134 92.242145 203.173812 92.748468 
C 202.667489 93.254791 202.383 93.941608 202.383 94.657656 
C 202.383 95.373705 202.667489 96.060522 203.173812 96.566845 
C 203.680134 97.073167 204.366952 97.357656 205.083 97.357656 
z
" clip-path="url(#pc1be757bbc)" style="fill: #ffffff; stroke: #000000; stroke-width: 2; stroke-linejoin: miter"/>
   </g>
   <g id="text_5">
    <!-- $v_{out}$ -->
    <g transform="translate(194.0205 85.758047) scale(0.125 -0.125)">
     <use xlink:href="#DejaVuSans-Oblique-76" transform="translate(0 0.3125)"/>
     <use xlink:href="#DejaVuSans-Oblique-6f" transform="translate(59.179688 -16.09375) scale(0.7)"/>
     <use xlink:href="#DejaVuSans-Oblique-75" transform="translate(102.006836 -16.09375) scale(0.7)"/>
     <use xlink:href="#DejaVuSans-Oblique-74" transform="translate(146.37207 -16.09375) scale(0.7)"/>
    </g>
   </g>
  </g>
 </g>
 <defs>
  <clipPath id="pc1be757bbc">
   <rect x="3.6" y="9.697656" width="213.906" height="211.2"/>
  </clipPath>
 </defs>
</svg>