<?xml version="1.0" encoding="utf-8" standalone="no"?>
<!DOCTYPE svg PUBLIC "-//W3C//DTD SVG 1.1//EN"
  "http://www.w3.org/Graphics/SVG/1.1/DTD/svg11.dtd">
<svg xmlns:xlink="http://www.w3.org/1999/xlink" width="260.706pt" height="283.155312pt" viewBox="0 0 260.706 283.155312" xmlns="http://www.w3.org/2000/svg" version="1.1">
 <metadata>
  <rdf:RDF xmlns:dc="http://purl.org/dc/elements/1.1/" xmlns:cc="http://creativecommons.org/ns#" xmlns:rdf="http://www.w3.org/1999/02/22-rdf-syntax-ns#">
   <cc:Work>
    <dc:type rdf:resource="http://purl.org/dc/dcmitype/StillImage"/>
    <dc:date>2024-01-02T14:27:15.005381</dc:date>
    <dc:format>image/svg+xml</dc:format>
    <dc:creator>
     <cc:Agent>
      <dc:title>Matplotlib v3.8.2, https://matplotlib.org/</dc:title>
     </cc:Agent>
    </dc:creator>
   </cc:Work>
  </rdf:RDF>
 </metadata>
 <defs>
  <style type="text/css">*{stroke-linejoin: round; stroke-linecap: butt}</style>
 </defs>
 <g id="figure_1">
  <g id="patch_1">
   <path d="M 0 283.155312 
L 260.706 283.155312 
L 260.706 0 
L 0 0 
z
" style="fill: #ffffff"/>
  </g>
  <g id="axes_1">
   <g id="patch_2">
    <path d="M 123.183 89.497656 
L 110.583 80.497656 
L 123.183 71.497656 
L 123.183 89.497656 
z
" clip-path="url(#pd6c1a39998)" style="fill: none; stroke: #000000; stroke-width: 2; stroke-linecap: round"/>
   </g>
   <g id="patch_3">
    <path d="M 110.583 193.657656 
L 123.183 202.657656 
L 110.583 211.657656 
L 110.583 193.657656 
z
" clip-path="url(#pd6c1a39998)" style="fill: none; stroke: #000000; stroke-width: 2; stroke-linecap: round"/>
   </g>
   <g id="patch_4">
    <path d="M 55.683 138.457656 
L 55.854352 138.456297 
L 56.025662 138.452219 
L 56.196885 138.445424 
L 56.367978 138.435912 
L 56.5389 138.423688 
L 56.709605 138.408753 
L 56.880053 138.391112 
L 57.050198 138.370768 
L 57.22 138.347728 
L 57.389415 138.321996 
L 57.5584 138.29358 
L 57.726913 138.262486 
L 57.894912 138.228723 
L 58.062354 138.192298 
L 58.229197 138.153221 
L 58.395398 138.111502 
L 58.560917 138.067152 
L 58.725712 138.02018 
L 58.88974 137.9706 
L 59.052961 137.918424 
L 59.215334 137.863665 
L 59.376818 137.806337 
L 59.537371 137.746453 
L 59.696955 137.68403 
L 59.855527 137.619083 
L 60.01305 137.551628 
L 60.169482 137.481682 
L 60.324785 137.409263 
L 60.478919 137.334389 
L 60.631846 137.257079 
L 60.783528 137.177353 
L 60.933925 137.09523 
L 61.083 137.010731 
L 61.230716 136.923877 
L 61.377035 136.834691 
L 61.521921 136.743194 
L 61.665337 136.649411 
L 61.807247 136.553363 
L 61.947615 136.455077 
L 62.086406 136.354575 
L 62.223585 136.251884 
L 62.359117 136.14703 
L 62.492969 136.040038 
L 62.625106 135.930936 
L 62.755496 135.819752 
L 62.884105 135.706512 
L 63.010902 135.591247 
L 63.135853 135.473984 
L 63.258929 135.354753 
L 63.380097 135.233585 
L 63.499328 135.11051 
L 63.61659 134.985558 
L 63.731856 134.858761 
L 63.845095 134.730152 
L 63.95628 134.599762 
L 64.065382 134.467625 
L 64.172373 134.333773 
L 64.277228 134.198241 
L 64.379919 134.061062 
L 64.48042 133.922271 
L 64.578707 133.781903 
L 64.674754 133.639993 
L 64.768538 133.496577 
L 64.860035 133.351691 
L 64.949221 133.205372 
L 65.036074 133.057656 
L 65.120573 132.908581 
L 65.202696 132.758184 
L 65.282423 132.606503 
L 65.359733 132.453576 
L 65.434607 132.299441 
L 65.507026 132.144138 
L 65.576971 131.987706 
L 65.644426 131.830184 
L 65.709374 131.671611 
L 65.771797 131.512027 
L 65.83168 131.351474 
L 65.889009 131.18999 
L 65.943768 131.027617 
L 65.995944 130.864396 
L 66.045524 130.700368 
L 66.092495 130.535573 
L 66.136846 130.370055 
L 66.178565 130.203853 
L 66.217642 130.03701 
L 66.254066 129.869568 
L 66.28783 129.70157 
L 66.318924 129.533057 
L 66.34734 129.364071 
L 66.373072 129.194657 
L 66.396112 129.024855 
L 66.416455 128.854709 
L 66.434097 128.684262 
L 66.449032 128.513556 
L 66.461256 128.342635 
L 66.470767 128.171541 
L 66.477563 128.000318 
L 66.481641 127.829009 
L 66.483 127.657656 
L 66.483 37.297656 
L 66.481641 37.126304 
L 66.477563 36.954995 
L 66.470767 36.783772 
L 66.461256 36.612678 
L 66.449032 36.441757 
L 66.434097 36.271051 
L 66.416455 36.100604 
L 66.396112 35.930458 
L 66.373072 35.760656 
L 66.34734 35.591241 
L 66.318924 35.422256 
L 66.28783 35.253743 
L 66.254066 35.085744 
L 66.217642 34.918302 
L 66.178565 34.75146 
L 66.136846 34.585258 
L 66.092495 34.419739 
L 66.045524 34.254945 
L 65.995944 34.090916 
L 65.943768 33.927695 
L 65.889009 33.765322 
L 65.83168 33.603839 
L 65.771797 33.443285 
L 65.709374 33.283702 
L 65.644426 33.125129 
L 65.576971 32.967606 
L 65.507026 32.811174 
L 65.434607 32.655871 
L 65.359733 32.501737 
L 65.282423 32.34881 
L 65.202696 32.197129 
L 65.120573 32.046732 
L 65.036074 31.897656 
L 64.949221 31.74994 
L 64.860035 31.603621 
L 64.768538 31.458735 
L 64.674754 31.31532 
L 64.578707 31.17341 
L 64.48042 31.033042 
L 64.379919 30.894251 
L 64.277228 30.757072 
L 64.172373 30.621539 
L 64.065382 30.487687 
L 63.95628 30.35555 
L 63.845095 30.22516 
L 63.731856 30.096551 
L 63.61659 29.969755 
L 63.499328 29.844803 
L 63.380097 29.721727 
L 63.258929 29.600559 
L 63.135853 29.481329 
L 63.010902 29.364066 
L 62.884105 29.2488 
L 62.755496 29.135561 
L 62.625106 29.024376 
L 62.492969 28.915274 
L 62.359117 28.808283 
L 62.223585 28.703428 
L 62.086406 28.600737 
L 61.947615 28.500236 
L 61.807247 28.401949 
L 61.665337 28.305902 
L 61.521921 28.212118 
L 61.377035 28.120622 
L 61.230716 28.031435 
L 61.083 27.944582 
L 60.933925 27.860083 
L 60.783528 27.77796 
L 60.631846 27.698233 
L 60.478919 27.620923 
L 60.324785 27.54605 
L 60.169482 27.473631 
L 60.01305 27.403685 
L 59.855527 27.33623 
L 59.696955 27.271283 
L 59.537371 27.208859 
L 59.376818 27.148976 
L 59.215334 27.091647 
L 59.052961 27.036888 
L 58.88974 26.984712 
L 58.725712 26.935132 
L 58.560917 26.888161 
L 58.395398 26.84381 
L 58.229197 26.802091 
L 58.062354 26.763015 
L 57.894912 26.72659 
L 57.726913 26.692826 
L 57.5584 26.661733 
L 57.389415 26.633316 
L 57.22 26.607585 
L 57.050198 26.584544 
L 56.880053 26.564201 
L 56.709605 26.546559 
L 56.5389 26.531625 
L 56.367978 26.5194 
L 56.196885 26.509889 
L 56.025662 26.503094 
L 55.854352 26.499016 
L 55.683 26.497656 
L 43.023 26.497656 
L 42.851648 26.499016 
L 42.680338 26.503094 
L 42.509115 26.509889 
L 42.338022 26.5194 
L 42.1671 26.531625 
L 41.996395 26.546559 
L 41.825947 26.564201 
L 41.655802 26.584544 
L 41.486 26.607585 
L 41.316585 26.633316 
L 41.1476 26.661733 
L 40.979087 26.692826 
L 40.811088 26.72659 
L 40.643646 26.763015 
L 40.476803 26.802091 
L 40.310602 26.84381 
L 40.145083 26.888161 
L 39.980288 26.935132 
L 39.81626 26.984712 
L 39.653039 27.036888 
L 39.490666 27.091647 
L 39.329182 27.148976 
L 39.168629 27.208859 
L 39.009045 27.271283 
L 38.850473 27.33623 
L 38.69295 27.403685 
L 38.536518 27.473631 
L 38.381215 27.54605 
L 38.227081 27.620923 
L 38.074154 27.698233 
L 37.922472 27.77796 
L 37.772075 27.860083 
L 37.623 27.944582 
L 37.475284 28.031435 
L 37.328965 28.120622 
L 37.184079 28.212118 
L 37.040663 28.305902 
L 36.898753 28.401949 
L 36.758385 28.500236 
L 36.619594 28.600737 
L 36.482415 28.703428 
L 36.346883 28.808283 
L 36.213031 28.915274 
L 36.080894 29.024376 
L 35.950504 29.135561 
L 35.821895 29.2488 
L 35.695098 29.364066 
L 35.570147 29.481329 
L 35.447071 29.600559 
L 35.325903 29.721727 
L 35.206672 29.844803 
L 35.08941 29.969755 
L 34.974144 30.096551 
L 34.860905 30.22516 
L 34.74972 30.35555 
L 34.640618 30.487687 
L 34.533627 30.621539 
L 34.428772 30.757072 
L 34.326081 30.894251 
L 34.22558 31.033042 
L 34.127293 31.17341 
L 34.031246 31.31532 
L 33.937462 31.458735 
L 33.845965 31.603621 
L 33.756779 31.74994 
L 33.669926 31.897656 
L 33.585427 32.046732 
L 33.503304 32.197129 
L 33.423577 32.34881 
L 33.346267 32.501737 
L 33.271393 32.655871 
L 33.198974 32.811174 
L 33.129029 32.967606 
L 33.061574 33.125129 
L 32.996626 33.283702 
L 32.934203 33.443285 
L 32.87432 33.603839 
L 32.816991 33.765322 
L 32.762232 33.927695 
L 32.710056 34.090916 
L 32.660476 34.254945 
L 32.613505 34.419739 
L 32.569154 34.585258 
L 32.527435 34.75146 
L 32.488358 34.918302 
L 32.451934 35.085744 
L 32.41817 35.253743 
L 32.387076 35.422256 
L 32.35866 35.591241 
L 32.332928 35.760656 
L 32.309888 35.930458 
L 32.289545 36.100604 
L 32.271903 36.271051 
L 32.256968 36.441757 
L 32.244744 36.612678 
L 32.235233 36.783772 
L 32.228437 36.954995 
L 32.224359 37.126304 
L 32.223 37.297656 
L 32.223 127.657656 
L 32.224359 127.829009 
L 32.228437 128.000318 
L 32.235233 128.171541 
L 32.244744 128.342635 
L 32.256968 128.513556 
L 32.271903 128.684262 
L 32.289545 128.854709 
L 32.309888 129.024855 
L 32.332928 129.194657 
L 32.35866 129.364071 
L 32.387076 129.533057 
L 32.41817 129.70157 
L 32.451934 129.869568 
L 32.488358 130.03701 
L 32.527435 130.203853 
L 32.569154 130.370055 
L 32.613505 130.535573 
L 32.660476 130.700368 
L 32.710056 130.864396 
L 32.762232 131.027617 
L 32.816991 131.18999 
L 32.87432 131.351474 
L 32.934203 131.512027 
L 32.996626 131.671611 
L 33.061574 131.830184 
L 33.129029 131.987706 
L 33.198974 132.144138 
L 33.271393 132.299441 
L 33.346267 132.453576 
L 33.423577 132.606503 
L 33.503304 132.758184 
L 33.585427 132.908581 
L 33.669926 133.057656 
L 33.756779 133.205372 
L 33.845965 133.351691 
L 33.937462 133.496577 
L 34.031246 133.639993 
L 34.127293 133.781903 
L 34.22558 133.922271 
L 34.326081 134.061062 
L 34.428772 134.198241 
L 34.533627 134.333773 
L 34.640618 134.467625 
L 34.74972 134.599762 
L 34.860905 134.730152 
L 34.974144 134.858761 
L 35.08941 134.985558 
L 35.206672 135.11051 
L 35.325903 135.233585 
L 35.447071 135.354753 
L 35.570147 135.473984 
L 35.695098 135.591247 
L 35.821895 135.706512 
L 35.950504 135.819752 
L 36.080894 135.930936 
L 36.213031 136.040038 
L 36.346883 136.14703 
L 36.482415 136.251884 
L 36.619594 136.354575 
L 36.758385 136.455077 
L 36.898753 136.553363 
L 37.040663 136.649411 
L 37.184079 136.743194 
L 37.328965 136.834691 
L 37.475284 136.923877 
L 37.623 137.010731 
L 37.772075 137.09523 
L 37.922472 137.177353 
L 38.074154 137.257079 
L 38.227081 137.334389 
L 38.381215 137.409263 
L 38.536518 137.481682 
L 38.69295 137.551628 
L 38.850473 137.619083 
L 39.009045 137.68403 
L 39.168629 137.746453 
L 39.329182 137.806337 
L 39.490666 137.863665 
L 39.653039 137.918424 
L 39.81626 137.9706 
L 39.980288 138.02018 
L 40.145083 138.067152 
L 40.310602 138.111502 
L 40.476803 138.153221 
L 40.643646 138.192298 
L 40.811088 138.228723 
L 40.979087 138.262486 
L 41.1476 138.29358 
L 41.316585 138.321996 
L 41.486 138.347728 
L 41.655802 138.370768 
L 41.825947 138.391112 
L 41.996395 138.408753 
L 42.1671 138.423688 
L 42.338022 138.435912 
L 42.509115 138.445424 
L 42.680338 138.452219 
L 42.851648 138.456297 
L 43.023 138.457656 
L 55.683 138.457656 
z
" clip-path="url(#pd6c1a39998)" style="fill: none; stroke-dasharray: 1.85,0.8; stroke-dashoffset: 0; stroke: #008000; stroke-width: 0.5; stroke-linecap: round"/>
   </g>
   <g id="patch_5">
    <path d="M 67.819753 29.660903 
C 103.819753 29.660903 76.819753 22.460903 117.319753 22.460903 
" clip-path="url(#pd6c1a39998)" style="fill: none; stroke: #008000; stroke-width: 2; stroke-linejoin: miter; stroke-linecap: round"/>
   </g>
   <g id="patch_6">
    <path d="M 72.319753 33.260903 
L 63.319753 29.660903 
L 72.319753 26.060903 
z
" clip-path="url(#pd6c1a39998)" style="fill: #008000"/>
   </g>
   <g id="patch_7">
    <path d="M 55.683 256.657656 
L 55.854352 256.656297 
L 56.025662 256.652219 
L 56.196885 256.645424 
L 56.367978 256.635912 
L 56.5389 256.623688 
L 56.709605 256.608753 
L 56.880053 256.591112 
L 57.050198 256.570768 
L 57.22 256.547728 
L 57.389415 256.521996 
L 57.5584 256.49358 
L 57.726913 256.462486 
L 57.894912 256.428723 
L 58.062354 256.392298 
L 58.229197 256.353221 
L 58.395398 256.311502 
L 58.560917 256.267152 
L 58.725712 256.22018 
L 58.88974 256.1706 
L 59.052961 256.118424 
L 59.215334 256.063665 
L 59.376818 256.006337 
L 59.537371 255.946453 
L 59.696955 255.88403 
L 59.855527 255.819083 
L 60.01305 255.751628 
L 60.169482 255.681682 
L 60.324785 255.609263 
L 60.478919 255.534389 
L 60.631846 255.457079 
L 60.783528 255.377353 
L 60.933925 255.29523 
L 61.083 255.210731 
L 61.230716 255.123877 
L 61.377035 255.034691 
L 61.521921 254.943194 
L 61.665337 254.849411 
L 61.807247 254.753363 
L 61.947615 254.655077 
L 62.086406 254.554575 
L 62.223585 254.451884 
L 62.359117 254.34703 
L 62.492969 254.240038 
L 62.625106 254.130936 
L 62.755496 254.019752 
L 62.884105 253.906512 
L 63.010902 253.791247 
L 63.135853 253.673984 
L 63.258929 253.554753 
L 63.380097 253.433585 
L 63.499328 253.31051 
L 63.61659 253.185558 
L 63.731856 253.058761 
L 63.845095 252.930152 
L 63.95628 252.799762 
L 64.065382 252.667625 
L 64.172373 252.533773 
L 64.277228 252.398241 
L 64.379919 252.261062 
L 64.48042 252.122271 
L 64.578707 251.981903 
L 64.674754 251.839993 
L 64.768538 251.696577 
L 64.860035 251.551691 
L 64.949221 251.405372 
L 65.036074 251.257656 
L 65.120573 251.108581 
L 65.202696 250.958184 
L 65.282423 250.806503 
L 65.359733 250.653576 
L 65.434607 250.499441 
L 65.507026 250.344138 
L 65.576971 250.187706 
L 65.644426 250.030184 
L 65.709374 249.871611 
L 65.771797 249.712027 
L 65.83168 249.551474 
L 65.889009 249.38999 
L 65.943768 249.227617 
L 65.995944 249.064396 
L 66.045524 248.900368 
L 66.092495 248.735573 
L 66.136846 248.570055 
L 66.178565 248.403853 
L 66.217642 248.23701 
L 66.254066 248.069568 
L 66.28783 247.90157 
L 66.318924 247.733057 
L 66.34734 247.564071 
L 66.373072 247.394657 
L 66.396112 247.224855 
L 66.416455 247.054709 
L 66.434097 246.884262 
L 66.449032 246.713556 
L 66.461256 246.542635 
L 66.470767 246.371541 
L 66.477563 246.200318 
L 66.481641 246.029009 
L 66.483 245.857656 
L 66.483 155.497656 
L 66.481641 155.326304 
L 66.477563 155.154995 
L 66.470767 154.983772 
L 66.461256 154.812678 
L 66.449032 154.641757 
L 66.434097 154.471051 
L 66.416455 154.300604 
L 66.396112 154.130458 
L 66.373072 153.960656 
L 66.34734 153.791241 
L 66.318924 153.622256 
L 66.28783 153.453743 
L 66.254066 153.285744 
L 66.217642 153.118302 
L 66.178565 152.95146 
L 66.136846 152.785258 
L 66.092495 152.619739 
L 66.045524 152.454945 
L 65.995944 152.290916 
L 65.943768 152.127695 
L 65.889009 151.965322 
L 65.83168 151.803839 
L 65.771797 151.643285 
L 65.709374 151.483702 
L 65.644426 151.325129 
L 65.576971 151.167606 
L 65.507026 151.011174 
L 65.434607 150.855871 
L 65.359733 150.701737 
L 65.282423 150.54881 
L 65.202696 150.397129 
L 65.120573 150.246732 
L 65.036074 150.097656 
L 64.949221 149.94994 
L 64.860035 149.803621 
L 64.768538 149.658735 
L 64.674754 149.51532 
L 64.578707 149.37341 
L 64.48042 149.233042 
L 64.379919 149.094251 
L 64.277228 148.957072 
L 64.172373 148.821539 
L 64.065382 148.687687 
L 63.95628 148.55555 
L 63.845095 148.42516 
L 63.731856 148.296551 
L 63.61659 148.169755 
L 63.499328 148.044803 
L 63.380097 147.921727 
L 63.258929 147.800559 
L 63.135853 147.681329 
L 63.010902 147.564066 
L 62.884105 147.4488 
L 62.755496 147.335561 
L 62.625106 147.224376 
L 62.492969 147.115274 
L 62.359117 147.008283 
L 62.223585 146.903428 
L 62.086406 146.800737 
L 61.947615 146.700236 
L 61.807247 146.601949 
L 61.665337 146.505902 
L 61.521921 146.412118 
L 61.377035 146.320622 
L 61.230716 146.231435 
L 61.083 146.144582 
L 60.933925 146.060083 
L 60.783528 145.97796 
L 60.631846 145.898233 
L 60.478919 145.820923 
L 60.324785 145.74605 
L 60.169482 145.673631 
L 60.01305 145.603685 
L 59.855527 145.53623 
L 59.696955 145.471283 
L 59.537371 145.408859 
L 59.376818 145.348976 
L 59.215334 145.291647 
L 59.052961 145.236888 
L 58.88974 145.184712 
L 58.725712 145.135132 
L 58.560917 145.088161 
L 58.395398 145.04381 
L 58.229197 145.002091 
L 58.062354 144.963015 
L 57.894912 144.92659 
L 57.726913 144.892826 
L 57.5584 144.861733 
L 57.389415 144.833316 
L 57.22 144.807585 
L 57.050198 144.784544 
L 56.880053 144.764201 
L 56.709605 144.746559 
L 56.5389 144.731625 
L 56.367978 144.7194 
L 56.196885 144.709889 
L 56.025662 144.703094 
L 55.854352 144.699016 
L 55.683 144.697656 
L 43.023 144.697656 
L 42.851648 144.699016 
L 42.680338 144.703094 
L 42.509115 144.709889 
L 42.338022 144.7194 
L 42.1671 144.731625 
L 41.996395 144.746559 
L 41.825947 144.764201 
L 41.655802 144.784544 
L 41.486 144.807585 
L 41.316585 144.833316 
L 41.1476 144.861733 
L 40.979087 144.892826 
L 40.811088 144.92659 
L 40.643646 144.963015 
L 40.476803 145.002091 
L 40.310602 145.04381 
L 40.145083 145.088161 
L 39.980288 145.135132 
L 39.81626 145.184712 
L 39.653039 145.236888 
L 39.490666 145.291647 
L 39.329182 145.348976 
L 39.168629 145.408859 
L 39.009045 145.471283 
L 38.850473 145.53623 
L 38.69295 145.603685 
L 38.536518 145.673631 
L 38.381215 145.74605 
L 38.227081 145.820923 
L 38.074154 145.898233 
L 37.922472 145.97796 
L 37.772075 146.060083 
L 37.623 146.144582 
L 37.475284 146.231435 
L 37.328965 146.320622 
L 37.184079 146.412118 
L 37.040663 146.505902 
L 36.898753 146.601949 
L 36.758385 146.700236 
L 36.619594 146.800737 
L 36.482415 146.903428 
L 36.346883 147.008283 
L 36.213031 147.115274 
L 36.080894 147.224376 
L 35.950504 147.335561 
L 35.821895 147.4488 
L 35.695098 147.564066 
L 35.570147 147.681329 
L 35.447071 147.800559 
L 35.325903 147.921727 
L 35.206672 148.044803 
L 35.08941 148.169755 
L 34.974144 148.296551 
L 34.860905 148.42516 
L 34.74972 148.55555 
L 34.640618 148.687687 
L 34.533627 148.821539 
L 34.428772 148.957072 
L 34.326081 149.094251 
L 34.22558 149.233042 
L 34.127293 149.37341 
L 34.031246 149.51532 
L 33.937462 149.658735 
L 33.845965 149.803621 
L 33.756779 149.94994 
L 33.669926 150.097656 
L 33.585427 150.246732 
L 33.503304 150.397129 
L 33.423577 150.54881 
L 33.346267 150.701737 
L 33.271393 150.855871 
L 33.198974 151.011174 
L 33.129029 151.167606 
L 33.061574 151.325129 
L 32.996626 151.483702 
L 32.934203 151.643285 
L 32.87432 151.803839 
L 32.816991 151.965322 
L 32.762232 152.127695 
L 32.710056 152.290916 
L 32.660476 152.454945 
L 32.613505 152.619739 
L 32.569154 152.785258 
L 32.527435 152.95146 
L 32.488358 153.118302 
L 32.451934 153.285744 
L 32.41817 153.453743 
L 32.387076 153.622256 
L 32.35866 153.791241 
L 32.332928 153.960656 
L 32.309888 154.130458 
L 32.289545 154.300604 
L 32.271903 154.471051 
L 32.256968 154.641757 
L 32.244744 154.812678 
L 32.235233 154.983772 
L 32.228437 155.154995 
L 32.224359 155.326304 
L 32.223 155.497656 
L 32.223 245.857656 
L 32.224359 246.029009 
L 32.228437 246.200318 
L 32.235233 246.371541 
L 32.244744 246.542635 
L 32.256968 246.713556 
L 32.271903 246.884262 
L 32.289545 247.054709 
L 32.309888 247.224855 
L 32.332928 247.394657 
L 32.35866 247.564071 
L 32.387076 247.733057 
L 32.41817 247.90157 
L 32.451934 248.069568 
L 32.488358 248.23701 
L 32.527435 248.403853 
L 32.569154 248.570055 
L 32.613505 248.735573 
L 32.660476 248.900368 
L 32.710056 249.064396 
L 32.762232 249.227617 
L 32.816991 249.38999 
L 32.87432 249.551474 
L 32.934203 249.712027 
L 32.996626 249.871611 
L 33.061574 250.030184 
L 33.129029 250.187706 
L 33.198974 250.344138 
L 33.271393 250.499441 
L 33.346267 250.653576 
L 33.423577 250.806503 
L 33.503304 250.958184 
L 33.585427 251.108581 
L 33.669926 251.257656 
L 33.756779 251.405372 
L 33.845965 251.551691 
L 33.937462 251.696577 
L 34.031246 251.839993 
L 34.127293 251.981903 
L 34.22558 252.122271 
L 34.326081 252.261062 
L 34.428772 252.398241 
L 34.533627 252.533773 
L 34.640618 252.667625 
L 34.74972 252.799762 
L 34.860905 252.930152 
L 34.974144 253.058761 
L 35.08941 253.185558 
L 35.206672 253.31051 
L 35.325903 253.433585 
L 35.447071 253.554753 
L 35.570147 253.673984 
L 35.695098 253.791247 
L 35.821895 253.906512 
L 35.950504 254.019752 
L 36.080894 254.130936 
L 36.213031 254.240038 
L 36.346883 254.34703 
L 36.482415 254.451884 
L 36.619594 254.554575 
L 36.758385 254.655077 
L 36.898753 254.753363 
L 37.040663 254.849411 
L 37.184079 254.943194 
L 37.328965 255.034691 
L 37.475284 255.123877 
L 37.623 255.210731 
L 37.772075 255.29523 
L 37.922472 255.377353 
L 38.074154 255.457079 
L 38.227081 255.534389 
L 38.381215 255.609263 
L 38.536518 255.681682 
L 38.69295 255.751628 
L 38.850473 255.819083 
L 39.009045 255.88403 
L 39.168629 255.946453 
L 39.329182 256.006337 
L 39.490666 256.063665 
L 39.653039 256.118424 
L 39.81626 256.1706 
L 39.980288 256.22018 
L 40.145083 256.267152 
L 40.310602 256.311502 
L 40.476803 256.353221 
L 40.643646 256.392298 
L 40.811088 256.428723 
L 40.979087 256.462486 
L 41.1476 256.49358 
L 41.316585 256.521996 
L 41.486 256.547728 
L 41.655802 256.570768 
L 41.825947 256.591112 
L 41.996395 256.608753 
L 42.1671 256.623688 
L 42.338022 256.635912 
L 42.509115 256.645424 
L 42.680338 256.652219 
L 42.851648 256.656297 
L 43.023 256.657656 
L 55.683 256.657656 
z
" clip-path="url(#pd6c1a39998)" style="fill: none; stroke-dasharray: 1.85,0.8; stroke-dashoffset: 0; stroke: #008000; stroke-width: 0.5; stroke-linecap: round"/>
   </g>
   <g id="patch_8">
    <path d="M 67.819753 253.494409 
C 103.819753 253.494409 76.819753 260.694409 117.319753 260.694409 
" clip-path="url(#pd6c1a39998)" style="fill: none; stroke: #008000; stroke-width: 2; stroke-linejoin: miter; stroke-linecap: round"/>
   </g>
   <g id="patch_9">
    <path d="M 72.319753 257.094409 
L 63.319753 253.494409 
L 72.319753 249.894409 
z
" clip-path="url(#pd6c1a39998)" style="fill: #008000"/>
   </g>
   <g id="line2d_1">
    <path d="M 35.823 58.777656 
L 49.023 58.777656 
" clip-path="url(#pd6c1a39998)" style="fill: none; stroke: #000000; stroke-width: 2; stroke-linecap: round"/>
   </g>
   <g id="line2d_2">
    <path d="M 49.023 45.577656 
L 49.023 71.977656 
" clip-path="url(#pd6c1a39998)" style="fill: none; stroke: #000000; stroke-width: 2; stroke-linecap: round"/>
   </g>
   <g id="line2d_3">
    <path d="M 49.023 52.177656 
L 62.883 40.297656 
L 62.883 33.697656 
" clip-path="url(#pd6c1a39998)" style="fill: none; stroke: #000000; stroke-width: 2; stroke-linecap: round"/>
   </g>
   <g id="line2d_4">
    <path d="M 49.023 65.377656 
L 62.883 77.257656 
L 62.883 83.857656 
" clip-path="url(#pd6c1a39998)" style="fill: none; stroke: #000000; stroke-width: 2; stroke-linecap: round"/>
   </g>
   <g id="line2d_5">
    <path d="M 49.023 65.377656 
L 56.049691 71.400534 
" clip-path="url(#pd6c1a39998)" style="fill: none; stroke: #000000; stroke-width: 2; stroke-linecap: round"/>
   </g>
   <g id="patch_10">
    <path d="M 58.39254 68.66721 
L 62.883 77.257656 
L 53.706842 74.133858 
z
" clip-path="url(#pd6c1a39998)"/>
   </g>
   <g id="line2d_6">
    <path d="M 35.823 58.777656 
L 35.823 82.177656 
L 35.823 105.577656 
" clip-path="url(#pd6c1a39998)" style="fill: none; stroke: #000000; stroke-width: 2; stroke-linecap: round"/>
   </g>
   <g id="line2d_7">
    <path d="M 35.823 105.577656 
L 49.023 105.577656 
" clip-path="url(#pd6c1a39998)" style="fill: none; stroke: #000000; stroke-width: 2; stroke-linecap: round"/>
   </g>
   <g id="line2d_8">
    <path d="M 49.023 92.377656 
L 49.023 118.777656 
" clip-path="url(#pd6c1a39998)" style="fill: none; stroke: #000000; stroke-width: 2; stroke-linecap: round"/>
   </g>
   <g id="line2d_9">
    <path d="M 49.023 98.977656 
L 62.883 87.097656 
L 62.883 80.497656 
" clip-path="url(#pd6c1a39998)" style="fill: none; stroke: #000000; stroke-width: 2; stroke-linecap: round"/>
   </g>
   <g id="line2d_10">
    <path d="M 49.023 112.177656 
L 62.883 124.057656 
L 62.883 130.657656 
" clip-path="url(#pd6c1a39998)" style="fill: none; stroke: #000000; stroke-width: 2; stroke-linecap: round"/>
   </g>
   <g id="line2d_11">
    <path d="M 49.023 112.177656 
L 56.049691 118.200534 
" clip-path="url(#pd6c1a39998)" style="fill: none; stroke: #000000; stroke-width: 2; stroke-linecap: round"/>
   </g>
   <g id="patch_11">
    <path d="M 58.39254 115.46721 
L 62.883 124.057656 
L 53.706842 120.933858 
z
" clip-path="url(#pd6c1a39998)"/>
   </g>
   <g id="line2d_12">
    <path d="M 35.823 105.577656 
L 35.823 123.577656 
L 35.823 141.577656 
" clip-path="url(#pd6c1a39998)" style="fill: none; stroke: #000000; stroke-width: 2; stroke-linecap: round"/>
   </g>
   <g id="line2d_13">
    <path d="M 35.823 141.577656 
L 35.823 159.577656 
L 35.823 177.577656 
" clip-path="url(#pd6c1a39998)" style="fill: none; stroke: #000000; stroke-width: 2; stroke-linecap: round"/>
   </g>
   <g id="line2d_14">
    <path d="M 35.823 177.577656 
L 49.023 177.577656 
" clip-path="url(#pd6c1a39998)" style="fill: none; stroke: #000000; stroke-width: 2; stroke-linecap: round"/>
   </g>
   <g id="line2d_15">
    <path d="M 49.023 164.377656 
L 49.023 190.777656 
" clip-path="url(#pd6c1a39998)" style="fill: none; stroke: #000000; stroke-width: 2; stroke-linecap: round"/>
   </g>
   <g id="line2d_16">
    <path d="M 49.023 170.977656 
L 62.883 159.097656 
L 62.883 152.497656 
" clip-path="url(#pd6c1a39998)" style="fill: none; stroke: #000000; stroke-width: 2; stroke-linecap: round"/>
   </g>
   <g id="line2d_17">
    <path d="M 49.023 184.177656 
L 62.883 196.057656 
L 62.883 202.657656 
" clip-path="url(#pd6c1a39998)" style="fill: none; stroke: #000000; stroke-width: 2; stroke-linecap: round"/>
   </g>
   <g id="line2d_18">
    <path d="M 62.883 159.097656 
L 55.856309 165.120534 
" clip-path="url(#pd6c1a39998)" style="fill: none; stroke: #000000; stroke-width: 2; stroke-linecap: round"/>
   </g>
   <g id="patch_12">
    <path d="M 58.199158 167.853858 
L 49.023 170.977656 
L 53.51346 162.38721 
z
" clip-path="url(#pd6c1a39998)"/>
   </g>
   <g id="line2d_19">
    <path d="M 35.823 177.577656 
L 35.823 200.977656 
L 35.823 224.377656 
" clip-path="url(#pd6c1a39998)" style="fill: none; stroke: #000000; stroke-width: 2; stroke-linecap: round"/>
   </g>
   <g id="line2d_20">
    <path d="M 35.823 224.377656 
L 49.023 224.377656 
" clip-path="url(#pd6c1a39998)" style="fill: none; stroke: #000000; stroke-width: 2; stroke-linecap: round"/>
   </g>
   <g id="line2d_21">
    <path d="M 49.023 211.177656 
L 49.023 237.577656 
" clip-path="url(#pd6c1a39998)" style="fill: none; stroke: #000000; stroke-width: 2; stroke-linecap: round"/>
   </g>
   <g id="line2d_22">
    <path d="M 49.023 217.777656 
L 62.883 205.897656 
L 62.883 199.297656 
" clip-path="url(#pd6c1a39998)" style="fill: none; stroke: #000000; stroke-width: 2; stroke-linecap: round"/>
   </g>
   <g id="line2d_23">
    <path d="M 49.023 230.977656 
L 62.883 242.857656 
L 62.883 249.457656 
" clip-path="url(#pd6c1a39998)" style="fill: none; stroke: #000000; stroke-width: 2; stroke-linecap: round"/>
   </g>
   <g id="line2d_24">
    <path d="M 62.883 205.897656 
L 55.856309 211.920534 
" clip-path="url(#pd6c1a39998)" style="fill: none; stroke: #000000; stroke-width: 2; stroke-linecap: round"/>
   </g>
   <g id="patch_13">
    <path d="M 58.199158 214.653858 
L 49.023 217.777656 
L 53.51346 209.18721 
z
" clip-path="url(#pd6c1a39998)"/>
   </g>
   <g id="line2d_25">
    <path d="M 62.883 33.697656 
L 62.883 19.297656 
" clip-path="url(#pd6c1a39998)" style="fill: none; stroke: #000000; stroke-width: 2; stroke-linecap: round"/>
   </g>
   <g id="line2d_26">
    <path d="M 62.883 19.297656 
L 56.133 19.297656 
" clip-path="url(#pd6c1a39998)" style="fill: none; stroke: #000000; stroke-width: 2; stroke-linecap: round"/>
   </g>
   <g id="line2d_27">
    <path d="M 62.883 19.297656 
L 69.633 19.297656 
" clip-path="url(#pd6c1a39998)" style="fill: none; stroke: #000000; stroke-width: 2; stroke-linecap: round"/>
   </g>
   <g id="line2d_28">
    <path d="M 62.883 80.497656 
L 110.583 80.497656 
M 110.583 89.497656 
L 110.583 71.497656 
M 123.183 80.497656 
L 170.883 80.497656 
" clip-path="url(#pd6c1a39998)" style="fill: none; stroke: #000000; stroke-width: 2; stroke-linecap: round"/>
   </g>
   <g id="line2d_29">
    <path d="M 170.883 80.497656 
L 170.883 66.097656 
" clip-path="url(#pd6c1a39998)" style="fill: none; stroke: #000000; stroke-width: 2; stroke-linecap: round"/>
   </g>
   <g id="line2d_30">
    <path d="M 170.883 66.097656 
L 164.133 66.097656 
" clip-path="url(#pd6c1a39998)" style="fill: none; stroke: #000000; stroke-width: 2; stroke-linecap: round"/>
   </g>
   <g id="line2d_31">
    <path d="M 170.883 66.097656 
L 177.633 66.097656 
" clip-path="url(#pd6c1a39998)" style="fill: none; stroke: #000000; stroke-width: 2; stroke-linecap: round"/>
   </g>
   <g id="line2d_32">
    <path d="M 62.883 249.457656 
L 62.883 263.857656 
" clip-path="url(#pd6c1a39998)" style="fill: none; stroke: #000000; stroke-width: 2; stroke-linecap: round"/>
   </g>
   <g id="line2d_33">
    <path d="M 62.883 263.857656 
L 56.133 263.857656 
" clip-path="url(#pd6c1a39998)" style="fill: none; stroke: #000000; stroke-width: 2; stroke-linecap: round"/>
   </g>
   <g id="line2d_34">
    <path d="M 62.883 263.857656 
L 69.633 263.857656 
" clip-path="url(#pd6c1a39998)" style="fill: none; stroke: #000000; stroke-width: 2; stroke-linecap: round"/>
   </g>
   <g id="line2d_35">
    <path d="M 62.883 202.657656 
L 110.583 202.657656 
M 123.183 193.657656 
L 123.183 211.657656 
M 123.183 202.657656 
L 170.883 202.657656 
" clip-path="url(#pd6c1a39998)" style="fill: none; stroke: #000000; stroke-width: 2; stroke-linecap: round"/>
   </g>
   <g id="line2d_36">
    <path d="M 170.883 202.657656 
L 170.883 217.057656 
" clip-path="url(#pd6c1a39998)" style="fill: none; stroke: #000000; stroke-width: 2; stroke-linecap: round"/>
   </g>
   <g id="line2d_37">
    <path d="M 170.883 217.057656 
L 164.133 217.057656 
" clip-path="url(#pd6c1a39998)" style="fill: none; stroke: #000000; stroke-width: 2; stroke-linecap: round"/>
   </g>
   <g id="line2d_38">
    <path d="M 170.883 217.057656 
L 177.633 217.057656 
" clip-path="url(#pd6c1a39998)" style="fill: none; stroke: #000000; stroke-width: 2; stroke-linecap: round"/>
   </g>
   <g id="line2d_39">
    <path d="M 35.823 141.577656 
L 26.823 141.577656 
L 17.823 141.577656 
" clip-path="url(#pd6c1a39998)" style="fill: none; stroke: #000000; stroke-width: 2; stroke-linecap: round"/>
   </g>
   <g id="line2d_40">
    <path d="M 62.883 130.657656 
L 62.883 136.057656 
L 62.883 141.457656 
" clip-path="url(#pd6c1a39998)" style="fill: none; stroke: #000000; stroke-width: 2; stroke-linecap: round"/>
   </g>
   <g id="line2d_41">
    <path d="M 62.883 141.457656 
L 62.883 146.977656 
L 62.883 152.497656 
" clip-path="url(#pd6c1a39998)" style="fill: none; stroke: #000000; stroke-width: 2; stroke-linecap: round"/>
   </g>
   <g id="line2d_42">
    <path d="M 62.883 141.457656 
L 143.883 141.457656 
L 224.883 141.457656 
" clip-path="url(#pd6c1a39998)" style="fill: none; stroke: #000000; stroke-width: 2; stroke-linecap: round"/>
   </g>
   <g id="line2d_43">
    <path d="M 224.883 141.457656 
L 224.883 145.057656 
L 233.883 148.057656 
L 215.883 154.057656 
L 233.883 160.057656 
L 215.883 166.057656 
L 233.883 172.057656 
L 215.883 178.057656 
L 224.883 181.057656 
L 224.883 184.657656 
" clip-path="url(#pd6c1a39998)" style="fill: none; stroke: #000000; stroke-width: 2; stroke-linecap: round"/>
   </g>
   <g id="line2d_44">
    <path d="M 224.883 184.657656 
L 224.883 199.057656 
L 215.883 199.057656 
L 233.883 199.057656 
M 218.583 203.377656 
L 231.183 203.377656 
M 223.083 207.697656 
L 226.683 207.697656 
" clip-path="url(#pd6c1a39998)" style="fill: none; stroke: #000000; stroke-width: 2; stroke-linecap: round"/>
   </g>
   <g id="line2d_45">
    <path d="M 224.883 141.457656 
L 233.883 141.457656 
L 242.883 141.457656 
" clip-path="url(#pd6c1a39998)" style="fill: none; stroke: #000000; stroke-width: 2; stroke-linecap: round"/>
   </g>
   <g id="text_1">
    <!-- $V_{DD1}$ -->
    <g transform="translate(48.883 13.098047) scale(0.125 -0.125)">
     <defs>
      <path id="DejaVuSans-Oblique-56" d="M 1319 0 
L 500 4666 
L 1119 4666 
L 1797 653 
L 4063 4666 
L 4750 4666 
L 2053 0 
L 1319 0 
z
" transform="scale(0.015625)"/>
      <path id="DejaVuSans-Oblique-44" d="M 1081 4666 
L 2438 4666 
Q 3519 4666 4070 4208 
Q 4622 3750 4622 2847 
Q 4622 2250 4412 1698 
Q 4203 1147 3834 769 
Q 3463 381 2891 190 
Q 2319 0 1538 0 
L 172 0 
L 1081 4666 
z
M 1613 4147 
L 909 519 
L 1734 519 
Q 2794 519 3375 1128 
Q 3956 1738 3956 2847 
Q 3956 3519 3581 3833 
Q 3206 4147 2406 4147 
L 1613 4147 
z
" transform="scale(0.015625)"/>
      <path id="DejaVuSans-31" d="M 794 531 
L 1825 531 
L 1825 4091 
L 703 3866 
L 703 4441 
L 1819 4666 
L 2450 4666 
L 2450 531 
L 3481 531 
L 3481 0 
L 794 0 
L 794 531 
z
" transform="scale(0.015625)"/>
     </defs>
     <use xlink:href="#DejaVuSans-Oblique-56" transform="translate(0 0.09375)"/>
     <use xlink:href="#DejaVuSans-Oblique-44" transform="translate(68.408203 -16.3125) scale(0.7)"/>
     <use xlink:href="#DejaVuSans-Oblique-44" transform="translate(122.30957 -16.3125) scale(0.7)"/>
     <use xlink:href="#DejaVuSans-31" transform="translate(176.210938 -16.3125) scale(0.7)"/>
    </g>
   </g>
   <g id="text_2">
    <!-- $V_{DD2}$ -->
    <g transform="translate(156.883 59.898047) scale(0.125 -0.125)">
     <defs>
      <path id="DejaVuSans-32" d="M 1228 531 
L 3431 531 
L 3431 0 
L 469 0 
L 469 531 
Q 828 903 1448 1529 
Q 2069 2156 2228 2338 
Q 2531 2678 2651 2914 
Q 2772 3150 2772 3378 
Q 2772 3750 2511 3984 
Q 2250 4219 1831 4219 
Q 1534 4219 1204 4116 
Q 875 4013 500 3803 
L 500 4441 
Q 881 4594 1212 4672 
Q 1544 4750 1819 4750 
Q 2544 4750 2975 4387 
Q 3406 4025 3406 3419 
Q 3406 3131 3298 2873 
Q 3191 2616 2906 2266 
Q 2828 2175 2409 1742 
Q 1991 1309 1228 531 
z
" transform="scale(0.015625)"/>
     </defs>
     <use xlink:href="#DejaVuSans-Oblique-56" transform="translate(0 0.09375)"/>
     <use xlink:href="#DejaVuSans-Oblique-44" transform="translate(68.408203 -16.3125) scale(0.7)"/>
     <use xlink:href="#DejaVuSans-Oblique-44" transform="translate(122.30957 -16.3125) scale(0.7)"/>
     <use xlink:href="#DejaVuSans-32" transform="translate(176.210938 -16.3125) scale(0.7)"/>
    </g>
   </g>
   <g id="text_3">
    <!-- -$V_{DD1}$ -->
    <g transform="translate(46.633 276.955703) scale(0.125 -0.125)">
     <defs>
      <path id="DejaVuSans-2d" d="M 313 2009 
L 1997 2009 
L 1997 1497 
L 313 1497 
L 313 2009 
z
" transform="scale(0.015625)"/>
     </defs>
     <use xlink:href="#DejaVuSans-2d" transform="translate(0 0.09375)"/>
     <use xlink:href="#DejaVuSans-Oblique-56" transform="translate(36.083984 0.09375)"/>
     <use xlink:href="#DejaVuSans-Oblique-44" transform="translate(104.492188 -16.3125) scale(0.7)"/>
     <use xlink:href="#DejaVuSans-Oblique-44" transform="translate(158.393555 -16.3125) scale(0.7)"/>
     <use xlink:href="#DejaVuSans-31" transform="translate(212.294922 -16.3125) scale(0.7)"/>
    </g>
   </g>
   <g id="text_4">
    <!-- $-V_{DD2}$ -->
    <g transform="translate(151.633 230.155703) scale(0.125 -0.125)">
     <defs>
      <path id="DejaVuSans-2212" d="M 678 2272 
L 4684 2272 
L 4684 1741 
L 678 1741 
L 678 2272 
z
" transform="scale(0.015625)"/>
     </defs>
     <use xlink:href="#DejaVuSans-2212" transform="translate(0 0.09375)"/>
     <use xlink:href="#DejaVuSans-Oblique-56" transform="translate(83.789062 0.09375)"/>
     <use xlink:href="#DejaVuSans-Oblique-44" transform="translate(152.197266 -16.3125) scale(0.7)"/>
     <use xlink:href="#DejaVuSans-Oblique-44" transform="translate(206.098633 -16.3125) scale(0.7)"/>
     <use xlink:href="#DejaVuSans-32" transform="translate(260 -16.3125) scale(0.7)"/>
    </g>
   </g>
   <g id="text_5">
    <!-- $R_L$ -->
    <g transform="translate(198.283 166.506875) scale(0.125 -0.125)">
     <defs>
      <path id="DejaVuSans-Oblique-52" d="M 1613 4147 
L 1294 2491 
L 2106 2491 
Q 2584 2491 2879 2755 
Q 3175 3019 3175 3444 
Q 3175 3784 2976 3965 
Q 2778 4147 2406 4147 
L 1613 4147 
z
M 2772 2241 
Q 2972 2194 3105 2009 
Q 3238 1825 3413 1275 
L 3809 0 
L 3144 0 
L 2778 1197 
Q 2638 1659 2453 1815 
Q 2269 1972 1888 1972 
L 1191 1972 
L 806 0 
L 172 0 
L 1081 4666 
L 2503 4666 
Q 3150 4666 3495 4373 
Q 3841 4081 3841 3531 
Q 3841 3044 3547 2687 
Q 3253 2331 2772 2241 
z
" transform="scale(0.015625)"/>
      <path id="DejaVuSans-Oblique-4c" d="M 1075 4666 
L 1709 4666 
L 909 525 
L 3181 525 
L 3078 0 
L 172 0 
L 1075 4666 
z
" transform="scale(0.015625)"/>
     </defs>
     <use xlink:href="#DejaVuSans-Oblique-52" transform="translate(0 0.09375)"/>
     <use xlink:href="#DejaVuSans-Oblique-4c" transform="translate(69.482422 -16.3125) scale(0.7)"/>
    </g>
   </g>
   <g id="text_6">
    <!-- Pull-up -->
    <g style="fill: #008000" transform="translate(120.919753 25.910122) scale(0.125 -0.125)">
     <defs>
      <path id="DejaVuSans-50" d="M 1259 4147 
L 1259 2394 
L 2053 2394 
Q 2494 2394 2734 2622 
Q 2975 2850 2975 3272 
Q 2975 3691 2734 3919 
Q 2494 4147 2053 4147 
L 1259 4147 
z
M 628 4666 
L 2053 4666 
Q 2838 4666 3239 4311 
Q 3641 3956 3641 3272 
Q 3641 2581 3239 2228 
Q 2838 1875 2053 1875 
L 1259 1875 
L 1259 0 
L 628 0 
L 628 4666 
z
" transform="scale(0.015625)"/>
      <path id="DejaVuSans-75" d="M 544 1381 
L 544 3500 
L 1119 3500 
L 1119 1403 
Q 1119 906 1312 657 
Q 1506 409 1894 409 
Q 2359 409 2629 706 
Q 2900 1003 2900 1516 
L 2900 3500 
L 3475 3500 
L 3475 0 
L 2900 0 
L 2900 538 
Q 2691 219 2414 64 
Q 2138 -91 1772 -91 
Q 1169 -91 856 284 
Q 544 659 544 1381 
z
M 1991 3584 
L 1991 3584 
z
" transform="scale(0.015625)"/>
      <path id="DejaVuSans-6c" d="M 603 4863 
L 1178 4863 
L 1178 0 
L 603 0 
L 603 4863 
z
" transform="scale(0.015625)"/>
      <path id="DejaVuSans-70" d="M 1159 525 
L 1159 -1331 
L 581 -1331 
L 581 3500 
L 1159 3500 
L 1159 2969 
Q 1341 3281 1617 3432 
Q 1894 3584 2278 3584 
Q 2916 3584 3314 3078 
Q 3713 2572 3713 1747 
Q 3713 922 3314 415 
Q 2916 -91 2278 -91 
Q 1894 -91 1617 61 
Q 1341 213 1159 525 
z
M 3116 1747 
Q 3116 2381 2855 2742 
Q 2594 3103 2138 3103 
Q 1681 3103 1420 2742 
Q 1159 2381 1159 1747 
Q 1159 1113 1420 752 
Q 1681 391 2138 391 
Q 2594 391 2855 752 
Q 3116 1113 3116 1747 
z
" transform="scale(0.015625)"/>
     </defs>
     <use xlink:href="#DejaVuSans-50"/>
     <use xlink:href="#DejaVuSans-75" x="58.552734"/>
     <use xlink:href="#DejaVuSans-6c" x="121.931641"/>
     <use xlink:href="#DejaVuSans-6c" x="149.714844"/>
     <use xlink:href="#DejaVuSans-2d" x="177.498047"/>
     <use xlink:href="#DejaVuSans-75" x="213.582031"/>
     <use xlink:href="#DejaVuSans-70" x="276.960938"/>
    </g>
   </g>
   <g id="text_7">
    <!-- Pull-down -->
    <g style="fill: #008000" transform="translate(120.919753 264.143628) scale(0.125 -0.125)">
     <defs>
      <path id="DejaVuSans-64" d="M 2906 2969 
L 2906 4863 
L 3481 4863 
L 3481 0 
L 2906 0 
L 2906 525 
Q 2725 213 2448 61 
Q 2172 -91 1784 -91 
Q 1150 -91 751 415 
Q 353 922 353 1747 
Q 353 2572 751 3078 
Q 1150 3584 1784 3584 
Q 2172 3584 2448 3432 
Q 2725 3281 2906 2969 
z
M 947 1747 
Q 947 1113 1208 752 
Q 1469 391 1925 391 
Q 2381 391 2643 752 
Q 2906 1113 2906 1747 
Q 2906 2381 2643 2742 
Q 2381 3103 1925 3103 
Q 1469 3103 1208 2742 
Q 947 2381 947 1747 
z
" transform="scale(0.015625)"/>
      <path id="DejaVuSans-6f" d="M 1959 3097 
Q 1497 3097 1228 2736 
Q 959 2375 959 1747 
Q 959 1119 1226 758 
Q 1494 397 1959 397 
Q 2419 397 2687 759 
Q 2956 1122 2956 1747 
Q 2956 2369 2687 2733 
Q 2419 3097 1959 3097 
z
M 1959 3584 
Q 2709 3584 3137 3096 
Q 3566 2609 3566 1747 
Q 3566 888 3137 398 
Q 2709 -91 1959 -91 
Q 1206 -91 779 398 
Q 353 888 353 1747 
Q 353 2609 779 3096 
Q 1206 3584 1959 3584 
z
" transform="scale(0.015625)"/>
      <path id="DejaVuSans-77" d="M 269 3500 
L 844 3500 
L 1563 769 
L 2278 3500 
L 2956 3500 
L 3675 769 
L 4391 3500 
L 4966 3500 
L 4050 0 
L 3372 0 
L 2619 2869 
L 1863 0 
L 1184 0 
L 269 3500 
z
" transform="scale(0.015625)"/>
      <path id="DejaVuSans-6e" d="M 3513 2113 
L 3513 0 
L 2938 0 
L 2938 2094 
Q 2938 2591 2744 2837 
Q 2550 3084 2163 3084 
Q 1697 3084 1428 2787 
Q 1159 2491 1159 1978 
L 1159 0 
L 581 0 
L 581 3500 
L 1159 3500 
L 1159 2956 
Q 1366 3272 1645 3428 
Q 1925 3584 2291 3584 
Q 2894 3584 3203 3211 
Q 3513 2838 3513 2113 
z
" transform="scale(0.015625)"/>
     </defs>
     <use xlink:href="#DejaVuSans-50"/>
     <use xlink:href="#DejaVuSans-75" x="58.552734"/>
     <use xlink:href="#DejaVuSans-6c" x="121.931641"/>
     <use xlink:href="#DejaVuSans-6c" x="149.714844"/>
     <use xlink:href="#DejaVuSans-2d" x="177.498047"/>
     <use xlink:href="#DejaVuSans-64" x="213.582031"/>
     <use xlink:href="#DejaVuSans-6f" x="277.058594"/>
     <use xlink:href="#DejaVuSans-77" x="338.240234"/>
     <use xlink:href="#DejaVuSans-6e" x="420.027344"/>
    </g>
   </g>
   <g id="patch_14">
    <path d="M 35.823 144.277656 
C 36.539048 144.277656 37.225866 143.993167 37.732188 143.486845 
C 38.238511 142.980522 38.523 142.293705 38.523 141.577656 
C 38.523 140.861608 38.238511 140.174791 37.732188 139.668468 
C 37.225866 139.162145 36.539048 138.877656 35.823 138.877656 
C 35.106952 138.877656 34.420134 139.162145 33.913812 139.668468 
C 33.407489 140.174791 33.123 140.861608 33.123 141.577656 
C 33.123 142.293705 33.407489 142.980522 33.913812 143.486845 
C 34.420134 143.993167 35.106952 144.277656 35.823 144.277656 
z
" clip-path="url(#pd6c1a39998)" style="stroke: #000000; stroke-width: 2; stroke-linejoin: miter"/>
   </g>
   <g id="patch_15">
    <path d="M 17.823 144.277656 
C 18.539048 144.277656 19.225866 143.993167 19.732188 143.486845 
C 20.238511 142.980522 20.523 142.293705 20.523 141.577656 
C 20.523 140.861608 20.238511 140.174791 19.732188 139.668468 
C 19.225866 139.162145 18.539048 138.877656 17.823 138.877656 
C 17.106952 138.877656 16.420134 139.162145 15.913812 139.668468 
C 15.407489 140.174791 15.123 140.861608 15.123 141.577656 
C 15.123 142.293705 15.407489 142.980522 15.913812 143.486845 
C 16.420134 143.993167 17.106952 144.277656 17.823 144.277656 
z
" clip-path="url(#pd6c1a39998)" style="fill: #ffffff; stroke: #000000; stroke-width: 2; stroke-linejoin: miter"/>
   </g>
   <g id="patch_16">
    <path d="M 62.883 144.157656 
C 63.599048 144.157656 64.285866 143.873167 64.792188 143.366845 
C 65.298511 142.860522 65.583 142.173705 65.583 141.457656 
C 65.583 140.741608 65.298511 140.054791 64.792188 139.548468 
C 64.285866 139.042145 63.599048 138.757656 62.883 138.757656 
C 62.166952 138.757656 61.480134 139.042145 60.973812 139.548468 
C 60.467489 140.054791 60.183 140.741608 60.183 141.457656 
C 60.183 142.173705 60.467489 142.860522 60.973812 143.366845 
C 61.480134 143.873167 62.166952 144.157656 62.883 144.157656 
z
" clip-path="url(#pd6c1a39998)" style="stroke: #000000; stroke-width: 2; stroke-linejoin: miter"/>
   </g>
   <g id="patch_17">
    <path d="M 242.883 144.157656 
C 243.599048 144.157656 244.285866 143.873167 244.792188 143.366845 
C 245.298511 142.860522 245.583 142.173705 245.583 141.457656 
C 245.583 140.741608 245.298511 140.054791 244.792188 139.548468 
C 244.285866 139.042145 243.599048 138.757656 242.883 138.757656 
C 242.166952 138.757656 241.480134 139.042145 240.973812 139.548468 
C 240.467489 140.054791 240.183 140.741608 240.183 141.457656 
C 240.183 142.173705 240.467489 142.860522 240.973812 143.366845 
C 241.480134 143.873167 242.166952 144.157656 242.883 144.157656 
z
" clip-path="url(#pd6c1a39998)" style="fill: #ffffff; stroke: #000000; stroke-width: 2; stroke-linejoin: miter"/>
   </g>
   <g id="text_8">
    <!-- $v_{out}$ -->
    <g transform="translate(231.8205 132.558047) scale(0.125 -0.125)">
     <defs>
      <path id="DejaVuSans-Oblique-76" d="M 459 3500 
L 1069 3500 
L 1581 525 
L 3256 3500 
L 3866 3500 
L 1875 0 
L 1100 0 
L 459 3500 
z
" transform="scale(0.015625)"/>
      <path id="DejaVuSans-Oblique-6f" d="M 1625 -91 
Q 1009 -91 651 289 
Q 294 669 294 1325 
Q 294 1706 417 2101 
Q 541 2497 738 2766 
Q 1047 3184 1428 3384 
Q 1809 3584 2291 3584 
Q 2888 3584 3255 3212 
Q 3622 2841 3622 2241 
Q 3622 1825 3500 1412 
Q 3378 1000 3181 728 
Q 2875 309 2494 109 
Q 2113 -91 1625 -91 
z
M 891 1344 
Q 891 869 1089 633 
Q 1288 397 1691 397 
Q 2269 397 2648 901 
Q 3028 1406 3028 2181 
Q 3028 2634 2825 2865 
Q 2622 3097 2228 3097 
Q 1903 3097 1650 2945 
Q 1397 2794 1197 2484 
Q 1050 2253 970 1956 
Q 891 1659 891 1344 
z
" transform="scale(0.015625)"/>
      <path id="DejaVuSans-Oblique-75" d="M 428 1388 
L 838 3500 
L 1416 3500 
L 1006 1409 
Q 975 1256 961 1147 
Q 947 1038 947 966 
Q 947 700 1109 554 
Q 1272 409 1569 409 
Q 2031 409 2368 721 
Q 2706 1034 2809 1563 
L 3194 3500 
L 3769 3500 
L 3091 0 
L 2516 0 
L 2631 550 
Q 2388 244 2052 76 
Q 1716 -91 1338 -91 
Q 878 -91 622 161 
Q 366 413 366 863 
Q 366 956 381 1097 
Q 397 1238 428 1388 
z
" transform="scale(0.015625)"/>
      <path id="DejaVuSans-Oblique-74" d="M 2706 3500 
L 2619 3053 
L 1472 3053 
L 1100 1153 
Q 1081 1047 1072 975 
Q 1063 903 1063 863 
Q 1063 663 1183 572 
Q 1303 481 1569 481 
L 2150 481 
L 2053 0 
L 1503 0 
Q 991 0 739 200 
Q 488 400 488 806 
Q 488 878 497 964 
Q 506 1050 525 1153 
L 897 3053 
L 409 3053 
L 500 3500 
L 978 3500 
L 1172 4494 
L 1747 4494 
L 1556 3500 
L 2706 3500 
z
" transform="scale(0.015625)"/>
     </defs>
     <use xlink:href="#DejaVuSans-Oblique-76" transform="translate(0 0.3125)"/>
     <use xlink:href="#DejaVuSans-Oblique-6f" transform="translate(59.179688 -16.09375) scale(0.7)"/>
     <use xlink:href="#DejaVuSans-Oblique-75" transform="translate(102.006836 -16.09375) scale(0.7)"/>
     <use xlink:href="#DejaVuSans-Oblique-74" transform="translate(146.37207 -16.09375) scale(0.7)"/>
    </g>
   </g>
  </g>
 </g>
 <defs>
  <clipPath id="pd6c1a39998">
   <rect x="3.6" y="7.069656" width="253.506" height="269.016"/>
  </clipPath>
 </defs>
</svg>