<?xml version="1.0" encoding="utf-8" standalone="no"?>
<!DOCTYPE svg PUBLIC "-//W3C//DTD SVG 1.1//EN"
  "http://www.w3.org/Graphics/SVG/1.1/DTD/svg11.dtd">
<svg xmlns:xlink="http://www.w3.org/1999/xlink" width="255.36pt" height="244.8pt" viewBox="0 0 255.36 244.8" xmlns="http://www.w3.org/2000/svg" version="1.1">
 <metadata>
  <rdf:RDF xmlns:dc="http://purl.org/dc/elements/1.1/" xmlns:cc="http://creativecommons.org/ns#" xmlns:rdf="http://www.w3.org/1999/02/22-rdf-syntax-ns#">
   <cc:Work>
    <dc:type rdf:resource="http://purl.org/dc/dcmitype/StillImage"/>
    <dc:date>2025-01-22T13:43:33.070931</dc:date>
    <dc:format>image/svg+xml</dc:format>
    <dc:creator>
     <cc:Agent>
      <dc:title>Matplotlib v3.9.4, https://matplotlib.org/</dc:title>
     </cc:Agent>
    </dc:creator>
   </cc:Work>
  </rdf:RDF>
 </metadata>
 <defs>
  <style type="text/css">*{stroke-linejoin: round; stroke-linecap: butt}</style>
 </defs>
 <g id="figure_1">
  <g id="patch_1">
   <path d="M 0 244.8 
L 255.36 244.8 
L 255.36 0 
L 0 0 
z
" style="fill: #ffffff"/>
  </g>
  <g id="axes_1">
   <g id="patch_2">
    <path d="M 85.68 208.08 
C 88.066828 208.08 90.356219 207.131703 92.043961 205.443961 
C 93.731703 203.756219 94.68 201.466828 94.68 199.08 
C 94.68 196.693172 93.731703 194.403781 92.043961 192.716039 
C 90.356219 191.028297 88.066828 190.08 85.68 190.08 
C 83.293172 190.08 81.003781 191.028297 79.316039 192.716039 
C 77.628297 194.403781 76.68 196.693172 76.68 199.08 
C 76.68 201.466828 77.628297 203.756219 79.316039 205.443961 
C 81.003781 207.131703 83.293172 208.08 85.68 208.08 
L 85.68 208.08 
z
" clip-path="url(#p64d7634b73)" style="fill: none; stroke: #000000; stroke-width: 2; stroke-linejoin: miter"/>
   </g>
   <g id="patch_3">
    <path d="M 58.68 121.08 
L 47.43 132.33 
L 4.68 132.33 
L 4.68 109.83 
L 47.43 109.83 
L 58.68 121.08 
z
" clip-path="url(#p64d7634b73)" style="fill: none; stroke: #000000; stroke-width: 2; stroke-linecap: round"/>
   </g>
   <g id="patch_4">
    <path d="M 196.68 121.08 
L 207.93 109.83 
L 250.68 109.83 
L 250.68 132.33 
L 207.93 132.33 
L 196.68 121.08 
z
" clip-path="url(#p64d7634b73)" style="fill: none; stroke: #000000; stroke-width: 2; stroke-linecap: round"/>
   </g>
   <g id="patch_5">
    <path d="M 239.43 90.33 
L 196.68 90.33 
L 196.68 67.83 
L 239.43 67.83 
L 250.68 79.08 
L 239.43 90.33 
z
" clip-path="url(#p64d7634b73)" style="fill: none; stroke: #000000; stroke-width: 2; stroke-linecap: round"/>
   </g>
   <g id="line2d_1">
    <path d="M 127.68 199.08 
L 127.68 184.08 
L 112.68 184.08 
L 112.68 154.08 
L 127.68 154.08 
L 127.68 139.08 
" clip-path="url(#p64d7634b73)" style="fill: none; stroke: #000000; stroke-width: 2; stroke-linecap: round"/>
   </g>
   <g id="line2d_2">
    <path d="M 118.68 184.08 
L 112.68 184.08 
" clip-path="url(#p64d7634b73)" style="fill: none; stroke: #000000; stroke-width: 2; stroke-linecap: round"/>
   </g>
   <g id="patch_6">
    <path d="M 118.68 179.58 
L 127.68 184.08 
L 118.68 188.58 
z
" clip-path="url(#p64d7634b73)"/>
   </g>
   <g id="line2d_3">
    <path d="M 109.68 181.08 
L 109.68 157.08 
" clip-path="url(#p64d7634b73)" style="fill: none; stroke: #000000; stroke-width: 2; stroke-linecap: round"/>
   </g>
   <g id="line2d_4">
    <path d="M 94.68 181.08 
L 109.68 181.08 
" clip-path="url(#p64d7634b73)" style="fill: none; stroke: #000000; stroke-width: 2; stroke-linecap: round"/>
   </g>
   <g id="line2d_5">
    <path d="M 127.68 199.08 
L 127.68 208.08 
L 127.68 217.08 
" clip-path="url(#p64d7634b73)" style="fill: none; stroke: #000000; stroke-width: 2; stroke-linecap: round"/>
   </g>
   <g id="line2d_6">
    <path d="M 127.68 217.08 
L 127.68 231.48 
L 118.68 231.48 
L 136.68 231.48 
M 121.38 235.8 
L 133.98 235.8 
M 125.88 240.12 
L 129.48 240.12 
" clip-path="url(#p64d7634b73)" style="fill: none; stroke: #000000; stroke-width: 2; stroke-linecap: round"/>
   </g>
   <g id="line2d_7">
    <path d="M 127.68 139.08 
L 109.68 139.08 
L 91.68 139.08 
" clip-path="url(#p64d7634b73)" style="fill: none; stroke: #000000; stroke-width: 2; stroke-linecap: round"/>
   </g>
   <g id="line2d_8">
    <path d="M 91.68 139.08 
L 91.68 124.08 
L 76.68 124.08 
L 76.68 94.08 
L 91.68 94.08 
L 91.68 79.08 
" clip-path="url(#p64d7634b73)" style="fill: none; stroke: #000000; stroke-width: 2; stroke-linecap: round"/>
   </g>
   <g id="line2d_9">
    <path d="M 82.68 124.08 
L 76.68 124.08 
" clip-path="url(#p64d7634b73)" style="fill: none; stroke: #000000; stroke-width: 2; stroke-linecap: round"/>
   </g>
   <g id="patch_7">
    <path d="M 82.68 119.58 
L 91.68 124.08 
L 82.68 128.58 
z
" clip-path="url(#p64d7634b73)"/>
   </g>
   <g id="line2d_10">
    <path d="M 73.68 121.08 
L 73.68 97.08 
" clip-path="url(#p64d7634b73)" style="fill: none; stroke: #000000; stroke-width: 2; stroke-linecap: round"/>
   </g>
   <g id="line2d_11">
    <path d="M 58.68 121.08 
L 73.68 121.08 
" clip-path="url(#p64d7634b73)" style="fill: none; stroke: #000000; stroke-width: 2; stroke-linecap: round"/>
   </g>
   <g id="line2d_12">
    <path d="M 127.68 139.08 
L 145.68 139.08 
L 163.68 139.08 
" clip-path="url(#p64d7634b73)" style="fill: none; stroke: #000000; stroke-width: 2; stroke-linecap: round"/>
   </g>
   <g id="line2d_13">
    <path d="M 163.68 79.08 
L 163.68 94.08 
L 178.68 94.08 
L 178.68 124.08 
L 163.68 124.08 
L 163.68 139.08 
" clip-path="url(#p64d7634b73)" style="fill: none; stroke: #000000; stroke-width: 2; stroke-linecap: round"/>
   </g>
   <g id="line2d_14">
    <path d="M 178.68 124.08 
L 172.68 124.08 
" clip-path="url(#p64d7634b73)" style="fill: none; stroke: #000000; stroke-width: 2; stroke-linecap: round"/>
   </g>
   <g id="patch_8">
    <path d="M 172.68 128.58 
L 163.68 124.08 
L 172.68 119.58 
z
" clip-path="url(#p64d7634b73)"/>
   </g>
   <g id="line2d_15">
    <path d="M 181.68 97.08 
L 181.68 121.08 
" clip-path="url(#p64d7634b73)" style="fill: none; stroke: #000000; stroke-width: 2; stroke-linecap: round"/>
   </g>
   <g id="line2d_16">
    <path d="M 181.68 121.08 
L 196.68 121.08 
" clip-path="url(#p64d7634b73)" style="fill: none; stroke: #000000; stroke-width: 2; stroke-linecap: round"/>
   </g>
   <g id="line2d_17">
    <path d="M 91.68 19.08 
L 91.68 34.08 
L 106.68 34.08 
L 106.68 64.08 
L 91.68 64.08 
L 91.68 79.08 
" clip-path="url(#p64d7634b73)" style="fill: none; stroke: #000000; stroke-width: 2; stroke-linecap: round"/>
   </g>
   <g id="line2d_18">
    <path d="M 91.68 34.08 
L 97.68 34.08 
" clip-path="url(#p64d7634b73)" style="fill: none; stroke: #000000; stroke-width: 2; stroke-linecap: round"/>
   </g>
   <g id="patch_9">
    <path d="M 97.68 29.58 
L 106.68 34.08 
L 97.68 38.58 
z
" clip-path="url(#p64d7634b73)"/>
   </g>
   <g id="line2d_19">
    <path d="M 109.68 37.08 
L 109.68 61.08 
" clip-path="url(#p64d7634b73)" style="fill: none; stroke: #000000; stroke-width: 2; stroke-linecap: round"/>
   </g>
   <g id="line2d_20">
    <path d="M 109.68 37.08 
L 124.68 37.08 
" clip-path="url(#p64d7634b73)" style="fill: none; stroke: #000000; stroke-width: 2; stroke-linecap: round"/>
   </g>
   <g id="line2d_21">
    <path d="M 163.68 79.08 
L 163.68 64.08 
L 148.68 64.08 
L 148.68 34.08 
L 163.68 34.08 
L 163.68 19.08 
" clip-path="url(#p64d7634b73)" style="fill: none; stroke: #000000; stroke-width: 2; stroke-linecap: round"/>
   </g>
   <g id="line2d_22">
    <path d="M 157.68 34.08 
L 163.68 34.08 
" clip-path="url(#p64d7634b73)" style="fill: none; stroke: #000000; stroke-width: 2; stroke-linecap: round"/>
   </g>
   <g id="patch_10">
    <path d="M 157.68 38.58 
L 148.68 34.08 
L 157.68 29.58 
z
" clip-path="url(#p64d7634b73)"/>
   </g>
   <g id="line2d_23">
    <path d="M 145.68 61.08 
L 145.68 37.08 
" clip-path="url(#p64d7634b73)" style="fill: none; stroke: #000000; stroke-width: 2; stroke-linecap: round"/>
   </g>
   <g id="line2d_24">
    <path d="M 130.68 37.08 
L 145.68 37.08 
" clip-path="url(#p64d7634b73)" style="fill: none; stroke: #000000; stroke-width: 2; stroke-linecap: round"/>
   </g>
   <g id="line2d_25">
    <path d="M 124.68 37.08 
L 127.68 37.08 
L 130.68 37.08 
" clip-path="url(#p64d7634b73)" style="fill: none; stroke: #000000; stroke-width: 2; stroke-linecap: round"/>
   </g>
   <g id="line2d_26">
    <path d="M 127.68 37.08 
L 127.68 58.08 
L 127.68 79.08 
" clip-path="url(#p64d7634b73)" style="fill: none; stroke: #000000; stroke-width: 2; stroke-linecap: round"/>
   </g>
   <g id="line2d_27">
    <path d="M 127.68 79.08 
L 109.68 79.08 
L 91.68 79.08 
" clip-path="url(#p64d7634b73)" style="fill: none; stroke: #000000; stroke-width: 2; stroke-linecap: round"/>
   </g>
   <g id="line2d_28">
    <path d="M 91.68 19.08 
L 127.68 19.08 
L 163.68 19.08 
" clip-path="url(#p64d7634b73)" style="fill: none; stroke: #000000; stroke-width: 2; stroke-linecap: round"/>
   </g>
   <g id="line2d_29">
    <path d="M 127.68 19.08 
L 127.68 4.68 
" clip-path="url(#p64d7634b73)" style="fill: none; stroke: #000000; stroke-width: 2; stroke-linecap: round"/>
   </g>
   <g id="line2d_30">
    <path d="M 127.68 4.68 
L 120.93 4.68 
" clip-path="url(#p64d7634b73)" style="fill: none; stroke: #000000; stroke-width: 2; stroke-linecap: round"/>
   </g>
   <g id="line2d_31">
    <path d="M 127.68 4.68 
L 134.43 4.68 
" clip-path="url(#p64d7634b73)" style="fill: none; stroke: #000000; stroke-width: 2; stroke-linecap: round"/>
   </g>
   <g id="line2d_32">
    <path d="M 94.68 181.08 
L 90.18 181.08 
L 85.68 181.08 
" clip-path="url(#p64d7634b73)" style="fill: none; stroke: #000000; stroke-width: 2; stroke-linecap: round"/>
   </g>
   <g id="line2d_33">
    <path d="M 85.68 181.08 
L 85.68 190.08 
L 85.68 190.08 
M 85.68 208.08 
L 85.68 208.08 
L 85.68 217.08 
" clip-path="url(#p64d7634b73)" style="fill: none; stroke: #000000; stroke-width: 2; stroke-linecap: round"/>
   </g>
   <g id="line2d_34">
    <path d="M 87.48 203.58 
L 83.88 203.58 
" clip-path="url(#p64d7634b73)" style="fill: none; stroke: #000000; stroke-width: 2; stroke-linecap: round"/>
   </g>
   <g id="line2d_35">
    <path d="M 85.68 192.78 
L 85.68 196.38 
" clip-path="url(#p64d7634b73)" style="fill: none; stroke: #000000; stroke-width: 2; stroke-linecap: round"/>
   </g>
   <g id="line2d_36">
    <path d="M 87.48 194.58 
L 83.88 194.58 
" clip-path="url(#p64d7634b73)" style="fill: none; stroke: #000000; stroke-width: 2; stroke-linecap: round"/>
   </g>
   <g id="line2d_37">
    <path d="M 85.68 217.08 
L 85.68 231.48 
L 76.68 231.48 
L 94.68 231.48 
M 79.38 235.8 
L 91.98 235.8 
M 83.88 240.12 
L 87.48 240.12 
" clip-path="url(#p64d7634b73)" style="fill: none; stroke: #000000; stroke-width: 2; stroke-linecap: round"/>
   </g>
   <g id="line2d_38">
    <path d="M 163.68 79.08 
L 180.18 79.08 
L 196.68 79.08 
" clip-path="url(#p64d7634b73)" style="fill: none; stroke: #000000; stroke-width: 2; stroke-linecap: round"/>
   </g>
   <g id="line2d_39">
    <path d="M 136.68 146.58 
L 136.68 180.78 
" clip-path="url(#p64d7634b73)" style="fill: none; stroke: #000000; stroke-width: 2; stroke-linecap: round"/>
   </g>
   <g id="patch_11">
    <path d="M 140.28 180.78 
L 136.68 191.58 
L 133.08 180.78 
z
" clip-path="url(#p64d7634b73)"/>
   </g>
   <g id="line2d_40">
    <path d="M 82.68 60.78 
L 82.68 26.58 
" clip-path="url(#p64d7634b73)" style="fill: none; stroke: #000000; stroke-width: 2; stroke-linecap: round"/>
   </g>
   <g id="patch_12">
    <path d="M 86.28 60.78 
L 82.68 71.58 
L 79.08 60.78 
z
" clip-path="url(#p64d7634b73)"/>
   </g>
   <g id="line2d_41">
    <path d="M 172.68 26.58 
L 172.68 60.78 
" clip-path="url(#p64d7634b73)" style="fill: none; stroke: #000000; stroke-width: 2; stroke-linecap: round"/>
   </g>
   <g id="patch_13">
    <path d="M 176.28 60.78 
L 172.68 71.58 
L 169.08 60.78 
z
" clip-path="url(#p64d7634b73)"/>
   </g>
   <g id="text_1">
    <!-- Bias -->
    <g transform="translate(45.512812 202.943125) scale(0.14 -0.14)">
     <defs>
      <path id="DejaVuSans-42" d="M 1259 2228 
L 1259 519 
L 2272 519 
Q 2781 519 3026 730 
Q 3272 941 3272 1375 
Q 3272 1813 3026 2020 
Q 2781 2228 2272 2228 
L 1259 2228 
z
M 1259 4147 
L 1259 2741 
L 2194 2741 
Q 2656 2741 2882 2914 
Q 3109 3088 3109 3444 
Q 3109 3797 2882 3972 
Q 2656 4147 2194 4147 
L 1259 4147 
z
M 628 4666 
L 2241 4666 
Q 2963 4666 3353 4366 
Q 3744 4066 3744 3513 
Q 3744 3084 3544 2831 
Q 3344 2578 2956 2516 
Q 3422 2416 3680 2098 
Q 3938 1781 3938 1306 
Q 3938 681 3513 340 
Q 3088 0 2303 0 
L 628 0 
L 628 4666 
z
" transform="scale(0.015625)"/>
      <path id="DejaVuSans-69" d="M 603 3500 
L 1178 3500 
L 1178 0 
L 603 0 
L 603 3500 
z
M 603 4863 
L 1178 4863 
L 1178 4134 
L 603 4134 
L 603 4863 
z
" transform="scale(0.015625)"/>
      <path id="DejaVuSans-61" d="M 2194 1759 
Q 1497 1759 1228 1600 
Q 959 1441 959 1056 
Q 959 750 1161 570 
Q 1363 391 1709 391 
Q 2188 391 2477 730 
Q 2766 1069 2766 1631 
L 2766 1759 
L 2194 1759 
z
M 3341 1997 
L 3341 0 
L 2766 0 
L 2766 531 
Q 2569 213 2275 61 
Q 1981 -91 1556 -91 
Q 1019 -91 701 211 
Q 384 513 384 1019 
Q 384 1609 779 1909 
Q 1175 2209 1959 2209 
L 2766 2209 
L 2766 2266 
Q 2766 2663 2505 2880 
Q 2244 3097 1772 3097 
Q 1472 3097 1187 3025 
Q 903 2953 641 2809 
L 641 3341 
Q 956 3463 1253 3523 
Q 1550 3584 1831 3584 
Q 2591 3584 2966 3190 
Q 3341 2797 3341 1997 
z
" transform="scale(0.015625)"/>
      <path id="DejaVuSans-73" d="M 2834 3397 
L 2834 2853 
Q 2591 2978 2328 3040 
Q 2066 3103 1784 3103 
Q 1356 3103 1142 2972 
Q 928 2841 928 2578 
Q 928 2378 1081 2264 
Q 1234 2150 1697 2047 
L 1894 2003 
Q 2506 1872 2764 1633 
Q 3022 1394 3022 966 
Q 3022 478 2636 193 
Q 2250 -91 1575 -91 
Q 1294 -91 989 -36 
Q 684 19 347 128 
L 347 722 
Q 666 556 975 473 
Q 1284 391 1588 391 
Q 1994 391 2212 530 
Q 2431 669 2431 922 
Q 2431 1156 2273 1281 
Q 2116 1406 1581 1522 
L 1381 1569 
Q 847 1681 609 1914 
Q 372 2147 372 2553 
Q 372 3047 722 3315 
Q 1072 3584 1716 3584 
Q 2034 3584 2315 3537 
Q 2597 3491 2834 3397 
z
" transform="scale(0.015625)"/>
     </defs>
     <use xlink:href="#DejaVuSans-42"/>
     <use xlink:href="#DejaVuSans-69" x="68.603516"/>
     <use xlink:href="#DejaVuSans-61" x="96.386719"/>
     <use xlink:href="#DejaVuSans-73" x="157.666016"/>
    </g>
   </g>
   <g id="text_2">
    <!-- In+ -->
    <g transform="translate(21.079687 124.39125) scale(0.12 -0.12)">
     <defs>
      <path id="DejaVuSans-49" d="M 628 4666 
L 1259 4666 
L 1259 0 
L 628 0 
L 628 4666 
z
" transform="scale(0.015625)"/>
      <path id="DejaVuSans-6e" d="M 3513 2113 
L 3513 0 
L 2938 0 
L 2938 2094 
Q 2938 2591 2744 2837 
Q 2550 3084 2163 3084 
Q 1697 3084 1428 2787 
Q 1159 2491 1159 1978 
L 1159 0 
L 581 0 
L 581 3500 
L 1159 3500 
L 1159 2956 
Q 1366 3272 1645 3428 
Q 1925 3584 2291 3584 
Q 2894 3584 3203 3211 
Q 3513 2838 3513 2113 
z
" transform="scale(0.015625)"/>
      <path id="DejaVuSans-2b" d="M 2944 4013 
L 2944 2272 
L 4684 2272 
L 4684 1741 
L 2944 1741 
L 2944 0 
L 2419 0 
L 2419 1741 
L 678 1741 
L 678 2272 
L 2419 2272 
L 2419 4013 
L 2944 4013 
z
" transform="scale(0.015625)"/>
     </defs>
     <use xlink:href="#DejaVuSans-49"/>
     <use xlink:href="#DejaVuSans-6e" x="29.492188"/>
     <use xlink:href="#DejaVuSans-2b" x="92.871094"/>
    </g>
   </g>
   <g id="text_3">
    <!-- In− -->
    <g transform="translate(213.079688 124.39125) scale(0.12 -0.12)">
     <defs>
      <path id="DejaVuSans-2212" d="M 678 2272 
L 4684 2272 
L 4684 1741 
L 678 1741 
L 678 2272 
z
" transform="scale(0.015625)"/>
     </defs>
     <use xlink:href="#DejaVuSans-49"/>
     <use xlink:href="#DejaVuSans-6e" x="29.492188"/>
     <use xlink:href="#DejaVuSans-2212" x="92.871094"/>
    </g>
   </g>
   <g id="text_4">
    <!-- Out -->
    <g transform="translate(212.802188 82.39125) scale(0.12 -0.12)">
     <defs>
      <path id="DejaVuSans-4f" d="M 2522 4238 
Q 1834 4238 1429 3725 
Q 1025 3213 1025 2328 
Q 1025 1447 1429 934 
Q 1834 422 2522 422 
Q 3209 422 3611 934 
Q 4013 1447 4013 2328 
Q 4013 3213 3611 3725 
Q 3209 4238 2522 4238 
z
M 2522 4750 
Q 3503 4750 4090 4092 
Q 4678 3434 4678 2328 
Q 4678 1225 4090 567 
Q 3503 -91 2522 -91 
Q 1538 -91 948 565 
Q 359 1222 359 2328 
Q 359 3434 948 4092 
Q 1538 4750 2522 4750 
z
" transform="scale(0.015625)"/>
      <path id="DejaVuSans-75" d="M 544 1381 
L 544 3500 
L 1119 3500 
L 1119 1403 
Q 1119 906 1312 657 
Q 1506 409 1894 409 
Q 2359 409 2629 706 
Q 2900 1003 2900 1516 
L 2900 3500 
L 3475 3500 
L 3475 0 
L 2900 0 
L 2900 538 
Q 2691 219 2414 64 
Q 2138 -91 1772 -91 
Q 1169 -91 856 284 
Q 544 659 544 1381 
z
M 1991 3584 
L 1991 3584 
z
" transform="scale(0.015625)"/>
      <path id="DejaVuSans-74" d="M 1172 4494 
L 1172 3500 
L 2356 3500 
L 2356 3053 
L 1172 3053 
L 1172 1153 
Q 1172 725 1289 603 
Q 1406 481 1766 481 
L 2356 481 
L 2356 0 
L 1766 0 
Q 1100 0 847 248 
Q 594 497 594 1153 
L 594 3053 
L 172 3053 
L 172 3500 
L 594 3500 
L 594 4494 
L 1172 4494 
z
" transform="scale(0.015625)"/>
     </defs>
     <use xlink:href="#DejaVuSans-4f"/>
     <use xlink:href="#DejaVuSans-75" x="78.710938"/>
     <use xlink:href="#DejaVuSans-74" x="142.089844"/>
    </g>
   </g>
   <g id="text_5">
    <!-- 20µA -->
    <g transform="translate(140.28 172.943125) scale(0.14 -0.14)">
     <defs>
      <path id="DejaVuSans-32" d="M 1228 531 
L 3431 531 
L 3431 0 
L 469 0 
L 469 531 
Q 828 903 1448 1529 
Q 2069 2156 2228 2338 
Q 2531 2678 2651 2914 
Q 2772 3150 2772 3378 
Q 2772 3750 2511 3984 
Q 2250 4219 1831 4219 
Q 1534 4219 1204 4116 
Q 875 4013 500 3803 
L 500 4441 
Q 881 4594 1212 4672 
Q 1544 4750 1819 4750 
Q 2544 4750 2975 4387 
Q 3406 4025 3406 3419 
Q 3406 3131 3298 2873 
Q 3191 2616 2906 2266 
Q 2828 2175 2409 1742 
Q 1991 1309 1228 531 
z
" transform="scale(0.015625)"/>
      <path id="DejaVuSans-30" d="M 2034 4250 
Q 1547 4250 1301 3770 
Q 1056 3291 1056 2328 
Q 1056 1369 1301 889 
Q 1547 409 2034 409 
Q 2525 409 2770 889 
Q 3016 1369 3016 2328 
Q 3016 3291 2770 3770 
Q 2525 4250 2034 4250 
z
M 2034 4750 
Q 2819 4750 3233 4129 
Q 3647 3509 3647 2328 
Q 3647 1150 3233 529 
Q 2819 -91 2034 -91 
Q 1250 -91 836 529 
Q 422 1150 422 2328 
Q 422 3509 836 4129 
Q 1250 4750 2034 4750 
z
" transform="scale(0.015625)"/>
      <path id="DejaVuSans-b5" d="M 544 -1331 
L 544 3500 
L 1119 3500 
L 1119 1325 
Q 1119 872 1334 640 
Q 1550 409 1972 409 
Q 2434 409 2667 671 
Q 2900 934 2900 1459 
L 2900 3500 
L 3475 3500 
L 3475 806 
Q 3475 619 3529 530 
Q 3584 441 3700 441 
Q 3728 441 3778 458 
Q 3828 475 3916 513 
L 3916 50 
Q 3788 -22 3673 -56 
Q 3559 -91 3450 -91 
Q 3234 -91 3106 31 
Q 2978 153 2931 403 
Q 2775 156 2548 32 
Q 2322 -91 2016 -91 
Q 1697 -91 1473 31 
Q 1250 153 1119 397 
L 1119 -1331 
L 544 -1331 
z
" transform="scale(0.015625)"/>
      <path id="DejaVuSans-41" d="M 2188 4044 
L 1331 1722 
L 3047 1722 
L 2188 4044 
z
M 1831 4666 
L 2547 4666 
L 4325 0 
L 3669 0 
L 3244 1197 
L 1141 1197 
L 716 0 
L 50 0 
L 1831 4666 
z
" transform="scale(0.015625)"/>
     </defs>
     <use xlink:href="#DejaVuSans-32"/>
     <use xlink:href="#DejaVuSans-30" x="63.623047"/>
     <use xlink:href="#DejaVuSans-b5" x="127.246094"/>
     <use xlink:href="#DejaVuSans-41" x="190.869141"/>
    </g>
   </g>
   <g id="text_6">
    <!-- 10µA -->
    <g transform="translate(42.780625 52.943125) scale(0.14 -0.14)">
     <defs>
      <path id="DejaVuSans-31" d="M 794 531 
L 1825 531 
L 1825 4091 
L 703 3866 
L 703 4441 
L 1819 4666 
L 2450 4666 
L 2450 531 
L 3481 531 
L 3481 0 
L 794 0 
L 794 531 
z
" transform="scale(0.015625)"/>
     </defs>
     <use xlink:href="#DejaVuSans-31"/>
     <use xlink:href="#DejaVuSans-30" x="63.623047"/>
     <use xlink:href="#DejaVuSans-b5" x="127.246094"/>
     <use xlink:href="#DejaVuSans-41" x="190.869141"/>
    </g>
   </g>
   <g id="text_7">
    <!-- 10µA -->
    <g transform="translate(176.28 52.943125) scale(0.14 -0.14)">
     <use xlink:href="#DejaVuSans-31"/>
     <use xlink:href="#DejaVuSans-30" x="63.623047"/>
     <use xlink:href="#DejaVuSans-b5" x="127.246094"/>
     <use xlink:href="#DejaVuSans-41" x="190.869141"/>
    </g>
   </g>
   <g id="patch_14">
    <path d="M 127.68 141.78 
C 128.396048 141.78 129.082866 141.495511 129.589188 140.989188 
C 130.095511 140.482866 130.38 139.796048 130.38 139.08 
C 130.38 138.363952 130.095511 137.677134 129.589188 137.170812 
C 129.082866 136.664489 128.396048 136.38 127.68 136.38 
C 126.963952 136.38 126.277134 136.664489 125.770812 137.170812 
C 125.264489 137.677134 124.98 138.363952 124.98 139.08 
C 124.98 139.796048 125.264489 140.482866 125.770812 140.989188 
C 126.277134 141.495511 126.963952 141.78 127.68 141.78 
z
" clip-path="url(#p64d7634b73)" style="stroke: #000000; stroke-width: 2; stroke-linejoin: miter"/>
   </g>
   <g id="patch_15">
    <path d="M 127.68 39.78 
C 128.396048 39.78 129.082866 39.495511 129.589188 38.989188 
C 130.095511 38.482866 130.38 37.796048 130.38 37.08 
C 130.38 36.363952 130.095511 35.677134 129.589188 35.170812 
C 129.082866 34.664489 128.396048 34.38 127.68 34.38 
C 126.963952 34.38 126.277134 34.664489 125.770812 35.170812 
C 125.264489 35.677134 124.98 36.363952 124.98 37.08 
C 124.98 37.796048 125.264489 38.482866 125.770812 38.989188 
C 126.277134 39.495511 126.963952 39.78 127.68 39.78 
z
" clip-path="url(#p64d7634b73)" style="stroke: #000000; stroke-width: 2; stroke-linejoin: miter"/>
   </g>
   <g id="patch_16">
    <path d="M 91.68 81.78 
C 92.396048 81.78 93.082866 81.495511 93.589188 80.989188 
C 94.095511 80.482866 94.38 79.796048 94.38 79.08 
C 94.38 78.363952 94.095511 77.677134 93.589188 77.170812 
C 93.082866 76.664489 92.396048 76.38 91.68 76.38 
C 90.963952 76.38 90.277134 76.664489 89.770812 77.170812 
C 89.264489 77.677134 88.98 78.363952 88.98 79.08 
C 88.98 79.796048 89.264489 80.482866 89.770812 80.989188 
C 90.277134 81.495511 90.963952 81.78 91.68 81.78 
z
" clip-path="url(#p64d7634b73)" style="stroke: #000000; stroke-width: 2; stroke-linejoin: miter"/>
   </g>
   <g id="patch_17">
    <path d="M 127.68 21.78 
C 128.396048 21.78 129.082866 21.495511 129.589188 20.989188 
C 130.095511 20.482866 130.38 19.796048 130.38 19.08 
C 130.38 18.363952 130.095511 17.677134 129.589188 17.170812 
C 129.082866 16.664489 128.396048 16.38 127.68 16.38 
C 126.963952 16.38 126.277134 16.664489 125.770812 17.170812 
C 125.264489 17.677134 124.98 18.363952 124.98 19.08 
C 124.98 19.796048 125.264489 20.482866 125.770812 20.989188 
C 126.277134 21.495511 126.963952 21.78 127.68 21.78 
z
" clip-path="url(#p64d7634b73)" style="stroke: #000000; stroke-width: 2; stroke-linejoin: miter"/>
   </g>
   <g id="patch_18">
    <path d="M 163.68 81.78 
C 164.396048 81.78 165.082866 81.495511 165.589188 80.989188 
C 166.095511 80.482866 166.38 79.796048 166.38 79.08 
C 166.38 78.363952 166.095511 77.677134 165.589188 77.170812 
C 165.082866 76.664489 164.396048 76.38 163.68 76.38 
C 162.963952 76.38 162.277134 76.664489 161.770812 77.170812 
C 161.264489 77.677134 160.98 78.363952 160.98 79.08 
C 160.98 79.796048 161.264489 80.482866 161.770812 80.989188 
C 162.277134 81.495511 162.963952 81.78 163.68 81.78 
z
" clip-path="url(#p64d7634b73)" style="stroke: #000000; stroke-width: 2; stroke-linejoin: miter"/>
   </g>
  </g>
 </g>
 <defs>
  <clipPath id="p64d7634b73">
   <rect x="0" y="-0" width="255.36" height="244.8"/>
  </clipPath>
 </defs>
</svg>