<?xml version="1.0" encoding="utf-8" standalone="no"?>
<!DOCTYPE svg PUBLIC "-//W3C//DTD SVG 1.1//EN"
  "http://www.w3.org/Graphics/SVG/1.1/DTD/svg11.dtd">
<svg xmlns:xlink="http://www.w3.org/1999/xlink" width="280.506pt" height="263.620656pt" viewBox="0 0 280.506 263.620656" xmlns="http://www.w3.org/2000/svg" version="1.1">
 <metadata>
  <rdf:RDF xmlns:dc="http://purl.org/dc/elements/1.1/" xmlns:cc="http://creativecommons.org/ns#" xmlns:rdf="http://www.w3.org/1999/02/22-rdf-syntax-ns#">
   <cc:Work>
    <dc:type rdf:resource="http://purl.org/dc/dcmitype/StillImage"/>
    <dc:date>2024-01-13T17:07:16.100529</dc:date>
    <dc:format>image/svg+xml</dc:format>
    <dc:creator>
     <cc:Agent>
      <dc:title>Matplotlib v3.8.2, https://matplotlib.org/</dc:title>
     </cc:Agent>
    </dc:creator>
   </cc:Work>
  </rdf:RDF>
 </metadata>
 <defs>
  <style type="text/css">*{stroke-linejoin: round; stroke-linecap: butt}</style>
 </defs>
 <g id="figure_1">
  <g id="patch_1">
   <path d="M 0 263.620656 
L 280.506 263.620656 
L 280.506 0 
L 0 0 
z
" style="fill: #ffffff"/>
  </g>
  <g id="axes_1">
   <g id="patch_2">
    <path d="M 162.783 188.257656 
L 162.954352 188.256297 
L 163.125662 188.252219 
L 163.296885 188.245424 
L 163.467978 188.235912 
L 163.6389 188.223688 
L 163.809605 188.208753 
L 163.980053 188.191112 
L 164.150198 188.170768 
L 164.32 188.147728 
L 164.489415 188.121996 
L 164.6584 188.09358 
L 164.826913 188.062486 
L 164.994912 188.028723 
L 165.162354 187.992298 
L 165.329197 187.953221 
L 165.495398 187.911502 
L 165.660917 187.867152 
L 165.825712 187.82018 
L 165.98974 187.7706 
L 166.152961 187.718424 
L 166.315334 187.663665 
L 166.476818 187.606337 
L 166.637371 187.546453 
L 166.796955 187.48403 
L 166.955527 187.419083 
L 167.11305 187.351628 
L 167.269482 187.281682 
L 167.424785 187.209263 
L 167.578919 187.134389 
L 167.731846 187.057079 
L 167.883528 186.977353 
L 168.033925 186.89523 
L 168.183 186.810731 
L 168.330716 186.723877 
L 168.477035 186.634691 
L 168.621921 186.543194 
L 168.765337 186.449411 
L 168.907247 186.353363 
L 169.047615 186.255077 
L 169.186406 186.154575 
L 169.323585 186.051884 
L 169.459117 185.94703 
L 169.592969 185.840038 
L 169.725106 185.730936 
L 169.855496 185.619752 
L 169.984105 185.506512 
L 170.110902 185.391247 
L 170.235853 185.273984 
L 170.358929 185.154753 
L 170.480097 185.033585 
L 170.599328 184.91051 
L 170.71659 184.785558 
L 170.831856 184.658761 
L 170.945095 184.530152 
L 171.05628 184.399762 
L 171.165382 184.267625 
L 171.272373 184.133773 
L 171.377228 183.998241 
L 171.479919 183.861062 
L 171.58042 183.722271 
L 171.678707 183.581903 
L 171.774754 183.439993 
L 171.868538 183.296577 
L 171.960035 183.151691 
L 172.049221 183.005372 
L 172.136074 182.857656 
L 172.220573 182.708581 
L 172.302696 182.558184 
L 172.382423 182.406503 
L 172.459733 182.253576 
L 172.534607 182.099441 
L 172.607026 181.944138 
L 172.676971 181.787706 
L 172.744426 181.630184 
L 172.809374 181.471611 
L 172.871797 181.312027 
L 172.93168 181.151474 
L 172.989009 180.98999 
L 173.043768 180.827617 
L 173.095944 180.664396 
L 173.145524 180.500368 
L 173.192495 180.335573 
L 173.236846 180.170055 
L 173.278565 180.003853 
L 173.317642 179.83701 
L 173.354066 179.669568 
L 173.38783 179.50157 
L 173.418924 179.333057 
L 173.44734 179.164071 
L 173.473072 178.994657 
L 173.496112 178.824855 
L 173.516455 178.654709 
L 173.534097 178.484262 
L 173.549032 178.313556 
L 173.561256 178.142635 
L 173.570767 177.971541 
L 173.577563 177.800318 
L 173.581641 177.629009 
L 173.583 177.457656 
L 173.583 80.257656 
L 173.581641 80.086304 
L 173.577563 79.914995 
L 173.570767 79.743772 
L 173.561256 79.572678 
L 173.549032 79.401757 
L 173.534097 79.231051 
L 173.516455 79.060604 
L 173.496112 78.890458 
L 173.473072 78.720656 
L 173.44734 78.551241 
L 173.418924 78.382256 
L 173.38783 78.213743 
L 173.354066 78.045744 
L 173.317642 77.878302 
L 173.278565 77.71146 
L 173.236846 77.545258 
L 173.192495 77.379739 
L 173.145524 77.214945 
L 173.095944 77.050916 
L 173.043768 76.887695 
L 172.989009 76.725322 
L 172.93168 76.563839 
L 172.871797 76.403285 
L 172.809374 76.243702 
L 172.744426 76.085129 
L 172.676971 75.927606 
L 172.607026 75.771174 
L 172.534607 75.615871 
L 172.459733 75.461737 
L 172.382423 75.30881 
L 172.302696 75.157129 
L 172.220573 75.006732 
L 172.136074 74.857656 
L 172.049221 74.70994 
L 171.960035 74.563621 
L 171.868538 74.418735 
L 171.774754 74.27532 
L 171.678707 74.13341 
L 171.58042 73.993042 
L 171.479919 73.854251 
L 171.377228 73.717072 
L 171.272373 73.581539 
L 171.165382 73.447687 
L 171.05628 73.31555 
L 170.945095 73.18516 
L 170.831856 73.056551 
L 170.71659 72.929755 
L 170.599328 72.804803 
L 170.480097 72.681727 
L 170.358929 72.560559 
L 170.235853 72.441329 
L 170.110902 72.324066 
L 169.984105 72.2088 
L 169.855496 72.095561 
L 169.725106 71.984376 
L 169.592969 71.875274 
L 169.459117 71.768283 
L 169.323585 71.663428 
L 169.186406 71.560737 
L 169.047615 71.460236 
L 168.907247 71.361949 
L 168.765337 71.265902 
L 168.621921 71.172118 
L 168.477035 71.080622 
L 168.330716 70.991435 
L 168.183 70.904582 
L 168.033925 70.820083 
L 167.883528 70.73796 
L 167.731846 70.658233 
L 167.578919 70.580923 
L 167.424785 70.50605 
L 167.269482 70.433631 
L 167.11305 70.363685 
L 166.955527 70.29623 
L 166.796955 70.231283 
L 166.637371 70.168859 
L 166.476818 70.108976 
L 166.315334 70.051647 
L 166.152961 69.996888 
L 165.98974 69.944712 
L 165.825712 69.895132 
L 165.660917 69.848161 
L 165.495398 69.80381 
L 165.329197 69.762091 
L 165.162354 69.723015 
L 164.994912 69.68659 
L 164.826913 69.652826 
L 164.6584 69.621733 
L 164.489415 69.593316 
L 164.32 69.567585 
L 164.150198 69.544544 
L 163.980053 69.524201 
L 163.809605 69.506559 
L 163.6389 69.491625 
L 163.467978 69.4794 
L 163.296885 69.469889 
L 163.125662 69.463094 
L 162.954352 69.459016 
L 162.783 69.457656 
L 58.323 69.457656 
L 58.151648 69.459016 
L 57.980338 69.463094 
L 57.809115 69.469889 
L 57.638022 69.4794 
L 57.4671 69.491625 
L 57.296395 69.506559 
L 57.125947 69.524201 
L 56.955802 69.544544 
L 56.786 69.567585 
L 56.616585 69.593316 
L 56.4476 69.621733 
L 56.279087 69.652826 
L 56.111088 69.68659 
L 55.943646 69.723015 
L 55.776803 69.762091 
L 55.610602 69.80381 
L 55.445083 69.848161 
L 55.280288 69.895132 
L 55.11626 69.944712 
L 54.953039 69.996888 
L 54.790666 70.051647 
L 54.629182 70.108976 
L 54.468629 70.168859 
L 54.309045 70.231283 
L 54.150473 70.29623 
L 53.99295 70.363685 
L 53.836518 70.433631 
L 53.681215 70.50605 
L 53.527081 70.580923 
L 53.374154 70.658233 
L 53.222472 70.73796 
L 53.072075 70.820083 
L 52.923 70.904582 
L 52.775284 70.991435 
L 52.628965 71.080622 
L 52.484079 71.172118 
L 52.340663 71.265902 
L 52.198753 71.361949 
L 52.058385 71.460236 
L 51.919594 71.560737 
L 51.782415 71.663428 
L 51.646883 71.768283 
L 51.513031 71.875274 
L 51.380894 71.984376 
L 51.250504 72.095561 
L 51.121895 72.2088 
L 50.995098 72.324066 
L 50.870147 72.441329 
L 50.747071 72.560559 
L 50.625903 72.681727 
L 50.506672 72.804803 
L 50.38941 72.929755 
L 50.274144 73.056551 
L 50.160905 73.18516 
L 50.04972 73.31555 
L 49.940618 73.447687 
L 49.833627 73.581539 
L 49.728772 73.717072 
L 49.626081 73.854251 
L 49.52558 73.993042 
L 49.427293 74.13341 
L 49.331246 74.27532 
L 49.237462 74.418735 
L 49.145965 74.563621 
L 49.056779 74.70994 
L 48.969926 74.857656 
L 48.885427 75.006732 
L 48.803304 75.157129 
L 48.723577 75.30881 
L 48.646267 75.461737 
L 48.571393 75.615871 
L 48.498974 75.771174 
L 48.429029 75.927606 
L 48.361574 76.085129 
L 48.296626 76.243702 
L 48.234203 76.403285 
L 48.17432 76.563839 
L 48.116991 76.725322 
L 48.062232 76.887695 
L 48.010056 77.050916 
L 47.960476 77.214945 
L 47.913505 77.379739 
L 47.869154 77.545258 
L 47.827435 77.71146 
L 47.788358 77.878302 
L 47.751934 78.045744 
L 47.71817 78.213743 
L 47.687076 78.382256 
L 47.65866 78.551241 
L 47.632928 78.720656 
L 47.609888 78.890458 
L 47.589545 79.060604 
L 47.571903 79.231051 
L 47.556968 79.401757 
L 47.544744 79.572678 
L 47.535233 79.743772 
L 47.528437 79.914995 
L 47.524359 80.086304 
L 47.523 80.257656 
L 47.523 177.457656 
L 47.524359 177.629009 
L 47.528437 177.800318 
L 47.535233 177.971541 
L 47.544744 178.142635 
L 47.556968 178.313556 
L 47.571903 178.484262 
L 47.589545 178.654709 
L 47.609888 178.824855 
L 47.632928 178.994657 
L 47.65866 179.164071 
L 47.687076 179.333057 
L 47.71817 179.50157 
L 47.751934 179.669568 
L 47.788358 179.83701 
L 47.827435 180.003853 
L 47.869154 180.170055 
L 47.913505 180.335573 
L 47.960476 180.500368 
L 48.010056 180.664396 
L 48.062232 180.827617 
L 48.116991 180.98999 
L 48.17432 181.151474 
L 48.234203 181.312027 
L 48.296626 181.471611 
L 48.361574 181.630184 
L 48.429029 181.787706 
L 48.498974 181.944138 
L 48.571393 182.099441 
L 48.646267 182.253576 
L 48.723577 182.406503 
L 48.803304 182.558184 
L 48.885427 182.708581 
L 48.969926 182.857656 
L 49.056779 183.005372 
L 49.145965 183.151691 
L 49.237462 183.296577 
L 49.331246 183.439993 
L 49.427293 183.581903 
L 49.52558 183.722271 
L 49.626081 183.861062 
L 49.728772 183.998241 
L 49.833627 184.133773 
L 49.940618 184.267625 
L 50.04972 184.399762 
L 50.160905 184.530152 
L 50.274144 184.658761 
L 50.38941 184.785558 
L 50.506672 184.91051 
L 50.625903 185.033585 
L 50.747071 185.154753 
L 50.870147 185.273984 
L 50.995098 185.391247 
L 51.121895 185.506512 
L 51.250504 185.619752 
L 51.380894 185.730936 
L 51.513031 185.840038 
L 51.646883 185.94703 
L 51.782415 186.051884 
L 51.919594 186.154575 
L 52.058385 186.255077 
L 52.198753 186.353363 
L 52.340663 186.449411 
L 52.484079 186.543194 
L 52.628965 186.634691 
L 52.775284 186.723877 
L 52.923 186.810731 
L 53.072075 186.89523 
L 53.222472 186.977353 
L 53.374154 187.057079 
L 53.527081 187.134389 
L 53.681215 187.209263 
L 53.836518 187.281682 
L 53.99295 187.351628 
L 54.150473 187.419083 
L 54.309045 187.48403 
L 54.468629 187.546453 
L 54.629182 187.606337 
L 54.790666 187.663665 
L 54.953039 187.718424 
L 55.11626 187.7706 
L 55.280288 187.82018 
L 55.445083 187.867152 
L 55.610602 187.911502 
L 55.776803 187.953221 
L 55.943646 187.992298 
L 56.111088 188.028723 
L 56.279087 188.062486 
L 56.4476 188.09358 
L 56.616585 188.121996 
L 56.786 188.147728 
L 56.955802 188.170768 
L 57.125947 188.191112 
L 57.296395 188.208753 
L 57.4671 188.223688 
L 57.638022 188.235912 
L 57.809115 188.245424 
L 57.980338 188.252219 
L 58.151648 188.256297 
L 58.323 188.257656 
z
" clip-path="url(#pc410dcab27)" style="fill: #00ffff; stroke-dasharray: 1.85,0.8; stroke-dashoffset: 0; stroke: #00ffff; stroke-width: 0.5; stroke-linecap: round"/>
   </g>
   <g id="patch_3">
    <path d="M 231.183 242.257656 
L 231.354352 242.256297 
L 231.525662 242.252219 
L 231.696885 242.245424 
L 231.867978 242.235912 
L 232.0389 242.223688 
L 232.209605 242.208753 
L 232.380053 242.191112 
L 232.550198 242.170768 
L 232.72 242.147728 
L 232.889415 242.121996 
L 233.0584 242.09358 
L 233.226913 242.062486 
L 233.394912 242.028723 
L 233.562354 241.992298 
L 233.729197 241.953221 
L 233.895398 241.911502 
L 234.060917 241.867152 
L 234.225712 241.82018 
L 234.38974 241.7706 
L 234.552961 241.718424 
L 234.715334 241.663665 
L 234.876818 241.606337 
L 235.037371 241.546453 
L 235.196955 241.48403 
L 235.355527 241.419083 
L 235.51305 241.351628 
L 235.669482 241.281682 
L 235.824785 241.209263 
L 235.978919 241.134389 
L 236.131846 241.057079 
L 236.283528 240.977353 
L 236.433925 240.89523 
L 236.583 240.810731 
L 236.730716 240.723877 
L 236.877035 240.634691 
L 237.021921 240.543194 
L 237.165337 240.449411 
L 237.307247 240.353363 
L 237.447615 240.255077 
L 237.586406 240.154575 
L 237.723585 240.051884 
L 237.859117 239.94703 
L 237.992969 239.840038 
L 238.125106 239.730936 
L 238.255496 239.619752 
L 238.384105 239.506512 
L 238.510902 239.391247 
L 238.635853 239.273984 
L 238.758929 239.154753 
L 238.880097 239.033585 
L 238.999328 238.91051 
L 239.11659 238.785558 
L 239.231856 238.658761 
L 239.345095 238.530152 
L 239.45628 238.399762 
L 239.565382 238.267625 
L 239.672373 238.133773 
L 239.777228 237.998241 
L 239.879919 237.861062 
L 239.98042 237.722271 
L 240.078707 237.581903 
L 240.174754 237.439993 
L 240.268538 237.296577 
L 240.360035 237.151691 
L 240.449221 237.005372 
L 240.536074 236.857656 
L 240.620573 236.708581 
L 240.702696 236.558184 
L 240.782423 236.406503 
L 240.859733 236.253576 
L 240.934607 236.099441 
L 241.007026 235.944138 
L 241.076971 235.787706 
L 241.144426 235.630184 
L 241.209374 235.471611 
L 241.271797 235.312027 
L 241.33168 235.151474 
L 241.389009 234.98999 
L 241.443768 234.827617 
L 241.495944 234.664396 
L 241.545524 234.500368 
L 241.592495 234.335573 
L 241.636846 234.170055 
L 241.678565 234.003853 
L 241.717642 233.83701 
L 241.754066 233.669568 
L 241.78783 233.50157 
L 241.818924 233.333057 
L 241.84734 233.164071 
L 241.873072 232.994657 
L 241.896112 232.824855 
L 241.916455 232.654709 
L 241.934097 232.484262 
L 241.949032 232.313556 
L 241.961256 232.142635 
L 241.970767 231.971541 
L 241.977563 231.800318 
L 241.981641 231.629009 
L 241.983 231.457656 
L 241.983 206.257656 
L 241.981641 206.086304 
L 241.977563 205.914995 
L 241.970767 205.743772 
L 241.961256 205.572678 
L 241.949032 205.401757 
L 241.934097 205.231051 
L 241.916455 205.060604 
L 241.896112 204.890458 
L 241.873072 204.720656 
L 241.84734 204.551241 
L 241.818924 204.382256 
L 241.78783 204.213743 
L 241.754066 204.045744 
L 241.717642 203.878302 
L 241.678565 203.71146 
L 241.636846 203.545258 
L 241.592495 203.379739 
L 241.545524 203.214945 
L 241.495944 203.050916 
L 241.443768 202.887695 
L 241.389009 202.725322 
L 241.33168 202.563839 
L 241.271797 202.403285 
L 241.209374 202.243702 
L 241.144426 202.085129 
L 241.076971 201.927606 
L 241.007026 201.771174 
L 240.934607 201.615871 
L 240.859733 201.461737 
L 240.782423 201.30881 
L 240.702696 201.157129 
L 240.620573 201.006732 
L 240.536074 200.857656 
L 240.449221 200.70994 
L 240.360035 200.563621 
L 240.268538 200.418735 
L 240.174754 200.27532 
L 240.078707 200.13341 
L 239.98042 199.993042 
L 239.879919 199.854251 
L 239.777228 199.717072 
L 239.672373 199.581539 
L 239.565382 199.447687 
L 239.45628 199.31555 
L 239.345095 199.18516 
L 239.231856 199.056551 
L 239.11659 198.929755 
L 238.999328 198.804803 
L 238.880097 198.681727 
L 238.758929 198.560559 
L 238.635853 198.441329 
L 238.510902 198.324066 
L 238.384105 198.2088 
L 238.255496 198.095561 
L 238.125106 197.984376 
L 237.992969 197.875274 
L 237.859117 197.768283 
L 237.723585 197.663428 
L 237.586406 197.560737 
L 237.447615 197.460236 
L 237.307247 197.361949 
L 237.165337 197.265902 
L 237.021921 197.172118 
L 236.877035 197.080622 
L 236.730716 196.991435 
L 236.583 196.904582 
L 236.433925 196.820083 
L 236.283528 196.73796 
L 236.131846 196.658233 
L 235.978919 196.580923 
L 235.824785 196.50605 
L 235.669482 196.433631 
L 235.51305 196.363685 
L 235.355527 196.29623 
L 235.196955 196.231283 
L 235.037371 196.168859 
L 234.876818 196.108976 
L 234.715334 196.051647 
L 234.552961 195.996888 
L 234.38974 195.944712 
L 234.225712 195.895132 
L 234.060917 195.848161 
L 233.895398 195.80381 
L 233.729197 195.762091 
L 233.562354 195.723015 
L 233.394912 195.68659 
L 233.226913 195.652826 
L 233.0584 195.621733 
L 232.889415 195.593316 
L 232.72 195.567585 
L 232.550198 195.544544 
L 232.380053 195.524201 
L 232.209605 195.506559 
L 232.0389 195.491625 
L 231.867978 195.4794 
L 231.696885 195.469889 
L 231.525662 195.463094 
L 231.354352 195.459016 
L 231.183 195.457656 
L 184.887 195.457656 
L 184.715648 195.459016 
L 184.544338 195.463094 
L 184.373115 195.469889 
L 184.202022 195.4794 
L 184.0311 195.491625 
L 183.860395 195.506559 
L 183.689947 195.524201 
L 183.519802 195.544544 
L 183.35 195.567585 
L 183.180585 195.593316 
L 183.0116 195.621733 
L 182.843087 195.652826 
L 182.675088 195.68659 
L 182.507646 195.723015 
L 182.340803 195.762091 
L 182.174602 195.80381 
L 182.009083 195.848161 
L 181.844288 195.895132 
L 181.68026 195.944712 
L 181.517039 195.996888 
L 181.354666 196.051647 
L 181.193182 196.108976 
L 181.032629 196.168859 
L 180.873045 196.231283 
L 180.714473 196.29623 
L 180.55695 196.363685 
L 180.400518 196.433631 
L 180.245215 196.50605 
L 180.091081 196.580923 
L 179.938154 196.658233 
L 179.786472 196.73796 
L 179.636075 196.820083 
L 179.487 196.904582 
L 179.339284 196.991435 
L 179.192965 197.080622 
L 179.048079 197.172118 
L 178.904663 197.265902 
L 178.762753 197.361949 
L 178.622385 197.460236 
L 178.483594 197.560737 
L 178.346415 197.663428 
L 178.210883 197.768283 
L 178.077031 197.875274 
L 177.944894 197.984376 
L 177.814504 198.095561 
L 177.685895 198.2088 
L 177.559098 198.324066 
L 177.434147 198.441329 
L 177.311071 198.560559 
L 177.189903 198.681727 
L 177.070672 198.804803 
L 176.95341 198.929755 
L 176.838144 199.056551 
L 176.724905 199.18516 
L 176.61372 199.31555 
L 176.504618 199.447687 
L 176.397627 199.581539 
L 176.292772 199.717072 
L 176.190081 199.854251 
L 176.08958 199.993042 
L 175.991293 200.13341 
L 175.895246 200.27532 
L 175.801462 200.418735 
L 175.709965 200.563621 
L 175.620779 200.70994 
L 175.533926 200.857656 
L 175.449427 201.006732 
L 175.367304 201.157129 
L 175.287577 201.30881 
L 175.210267 201.461737 
L 175.135393 201.615871 
L 175.062974 201.771174 
L 174.993029 201.927606 
L 174.925574 202.085129 
L 174.860626 202.243702 
L 174.798203 202.403285 
L 174.73832 202.563839 
L 174.680991 202.725322 
L 174.626232 202.887695 
L 174.574056 203.050916 
L 174.524476 203.214945 
L 174.477505 203.379739 
L 174.433154 203.545258 
L 174.391435 203.71146 
L 174.352358 203.878302 
L 174.315934 204.045744 
L 174.28217 204.213743 
L 174.251076 204.382256 
L 174.22266 204.551241 
L 174.196928 204.720656 
L 174.173888 204.890458 
L 174.153545 205.060604 
L 174.135903 205.231051 
L 174.120968 205.401757 
L 174.108744 205.572678 
L 174.099233 205.743772 
L 174.092437 205.914995 
L 174.088359 206.086304 
L 174.087 206.257656 
L 174.087 231.457656 
L 174.088359 231.629009 
L 174.092437 231.800318 
L 174.099233 231.971541 
L 174.108744 232.142635 
L 174.120968 232.313556 
L 174.135903 232.484262 
L 174.153545 232.654709 
L 174.173888 232.824855 
L 174.196928 232.994657 
L 174.22266 233.164071 
L 174.251076 233.333057 
L 174.28217 233.50157 
L 174.315934 233.669568 
L 174.352358 233.83701 
L 174.391435 234.003853 
L 174.433154 234.170055 
L 174.477505 234.335573 
L 174.524476 234.500368 
L 174.574056 234.664396 
L 174.626232 234.827617 
L 174.680991 234.98999 
L 174.73832 235.151474 
L 174.798203 235.312027 
L 174.860626 235.471611 
L 174.925574 235.630184 
L 174.993029 235.787706 
L 175.062974 235.944138 
L 175.135393 236.099441 
L 175.210267 236.253576 
L 175.287577 236.406503 
L 175.367304 236.558184 
L 175.449427 236.708581 
L 175.533926 236.857656 
L 175.620779 237.005372 
L 175.709965 237.151691 
L 175.801462 237.296577 
L 175.895246 237.439993 
L 175.991293 237.581903 
L 176.08958 237.722271 
L 176.190081 237.861062 
L 176.292772 237.998241 
L 176.397627 238.133773 
L 176.504618 238.267625 
L 176.61372 238.399762 
L 176.724905 238.530152 
L 176.838144 238.658761 
L 176.95341 238.785558 
L 177.070672 238.91051 
L 177.189903 239.033585 
L 177.311071 239.154753 
L 177.434147 239.273984 
L 177.559098 239.391247 
L 177.685895 239.506512 
L 177.814504 239.619752 
L 177.944894 239.730936 
L 178.077031 239.840038 
L 178.210883 239.94703 
L 178.346415 240.051884 
L 178.483594 240.154575 
L 178.622385 240.255077 
L 178.762753 240.353363 
L 178.904663 240.449411 
L 179.048079 240.543194 
L 179.192965 240.634691 
L 179.339284 240.723877 
L 179.487 240.810731 
L 179.636075 240.89523 
L 179.786472 240.977353 
L 179.938154 241.057079 
L 180.091081 241.134389 
L 180.245215 241.209263 
L 180.400518 241.281682 
L 180.55695 241.351628 
L 180.714473 241.419083 
L 180.873045 241.48403 
L 181.032629 241.546453 
L 181.193182 241.606337 
L 181.354666 241.663665 
L 181.517039 241.718424 
L 181.68026 241.7706 
L 181.844288 241.82018 
L 182.009083 241.867152 
L 182.174602 241.911502 
L 182.340803 241.953221 
L 182.507646 241.992298 
L 182.675088 242.028723 
L 182.843087 242.062486 
L 183.0116 242.09358 
L 183.180585 242.121996 
L 183.35 242.147728 
L 183.519802 242.170768 
L 183.689947 242.191112 
L 183.860395 242.208753 
L 184.0311 242.223688 
L 184.202022 242.235912 
L 184.373115 242.245424 
L 184.544338 242.252219 
L 184.715648 242.256297 
L 184.887 242.257656 
z
" clip-path="url(#pc410dcab27)" style="fill: #00ffff; stroke-dasharray: 5.55,2.4; stroke-dashoffset: 0; stroke: #00ffff; stroke-width: 1.5; stroke-linecap: round"/>
   </g>
   <g id="patch_4">
    <path d="M 222.183 116.857656 
L 222.354352 116.856297 
L 222.525662 116.852219 
L 222.696885 116.845424 
L 222.867978 116.835912 
L 223.0389 116.823688 
L 223.209605 116.808753 
L 223.380053 116.791112 
L 223.550198 116.770768 
L 223.72 116.747728 
L 223.889415 116.721996 
L 224.0584 116.69358 
L 224.226913 116.662486 
L 224.394912 116.628723 
L 224.562354 116.592298 
L 224.729197 116.553221 
L 224.895398 116.511502 
L 225.060917 116.467152 
L 225.225712 116.42018 
L 225.38974 116.3706 
L 225.552961 116.318424 
L 225.715334 116.263665 
L 225.876818 116.206337 
L 226.037371 116.146453 
L 226.196955 116.08403 
L 226.355527 116.019083 
L 226.51305 115.951628 
L 226.669482 115.881682 
L 226.824785 115.809263 
L 226.978919 115.734389 
L 227.131846 115.657079 
L 227.283528 115.577353 
L 227.433925 115.49523 
L 227.583 115.410731 
L 227.730716 115.323877 
L 227.877035 115.234691 
L 228.021921 115.143194 
L 228.165337 115.049411 
L 228.307247 114.953363 
L 228.447615 114.855077 
L 228.586406 114.754575 
L 228.723585 114.651884 
L 228.859117 114.54703 
L 228.992969 114.440038 
L 229.125106 114.330936 
L 229.255496 114.219752 
L 229.384105 114.106512 
L 229.510902 113.991247 
L 229.635853 113.873984 
L 229.758929 113.754753 
L 229.880097 113.633585 
L 229.999328 113.51051 
L 230.11659 113.385558 
L 230.231856 113.258761 
L 230.345095 113.130152 
L 230.45628 112.999762 
L 230.565382 112.867625 
L 230.672373 112.733773 
L 230.777228 112.598241 
L 230.879919 112.461062 
L 230.98042 112.322271 
L 231.078707 112.181903 
L 231.174754 112.039993 
L 231.268538 111.896577 
L 231.360035 111.751691 
L 231.449221 111.605372 
L 231.536074 111.457656 
L 231.620573 111.308581 
L 231.702696 111.158184 
L 231.782423 111.006503 
L 231.859733 110.853576 
L 231.934607 110.699441 
L 232.007026 110.544138 
L 232.076971 110.387706 
L 232.144426 110.230184 
L 232.209374 110.071611 
L 232.271797 109.912027 
L 232.33168 109.751474 
L 232.389009 109.58999 
L 232.443768 109.427617 
L 232.495944 109.264396 
L 232.545524 109.100368 
L 232.592495 108.935573 
L 232.636846 108.770055 
L 232.678565 108.603853 
L 232.717642 108.43701 
L 232.754066 108.269568 
L 232.78783 108.10157 
L 232.818924 107.933057 
L 232.84734 107.764071 
L 232.873072 107.594657 
L 232.896112 107.424855 
L 232.916455 107.254709 
L 232.934097 107.084262 
L 232.949032 106.913556 
L 232.961256 106.742635 
L 232.970767 106.571541 
L 232.977563 106.400318 
L 232.981641 106.229009 
L 232.983 106.057656 
L 232.983 84.097656 
L 232.981641 83.926304 
L 232.977563 83.754995 
L 232.970767 83.583772 
L 232.961256 83.412678 
L 232.949032 83.241757 
L 232.934097 83.071051 
L 232.916455 82.900604 
L 232.896112 82.730458 
L 232.873072 82.560656 
L 232.84734 82.391241 
L 232.818924 82.222256 
L 232.78783 82.053743 
L 232.754066 81.885744 
L 232.717642 81.718302 
L 232.678565 81.55146 
L 232.636846 81.385258 
L 232.592495 81.219739 
L 232.545524 81.054945 
L 232.495944 80.890916 
L 232.443768 80.727695 
L 232.389009 80.565322 
L 232.33168 80.403839 
L 232.271797 80.243285 
L 232.209374 80.083702 
L 232.144426 79.925129 
L 232.076971 79.767606 
L 232.007026 79.611174 
L 231.934607 79.455871 
L 231.859733 79.301737 
L 231.782423 79.14881 
L 231.702696 78.997129 
L 231.620573 78.846732 
L 231.536074 78.697656 
L 231.449221 78.54994 
L 231.360035 78.403621 
L 231.268538 78.258735 
L 231.174754 78.11532 
L 231.078707 77.97341 
L 230.98042 77.833042 
L 230.879919 77.694251 
L 230.777228 77.557072 
L 230.672373 77.421539 
L 230.565382 77.287687 
L 230.45628 77.15555 
L 230.345095 77.02516 
L 230.231856 76.896551 
L 230.11659 76.769755 
L 229.999328 76.644803 
L 229.880097 76.521727 
L 229.758929 76.400559 
L 229.635853 76.281329 
L 229.510902 76.164066 
L 229.384105 76.0488 
L 229.255496 75.935561 
L 229.125106 75.824376 
L 228.992969 75.715274 
L 228.859117 75.608283 
L 228.723585 75.503428 
L 228.586406 75.400737 
L 228.447615 75.300236 
L 228.307247 75.201949 
L 228.165337 75.105902 
L 228.021921 75.012118 
L 227.877035 74.920622 
L 227.730716 74.831435 
L 227.583 74.744582 
L 227.433925 74.660083 
L 227.283528 74.57796 
L 227.131846 74.498233 
L 226.978919 74.420923 
L 226.824785 74.34605 
L 226.669482 74.273631 
L 226.51305 74.203685 
L 226.355527 74.13623 
L 226.196955 74.071283 
L 226.037371 74.008859 
L 225.876818 73.948976 
L 225.715334 73.891647 
L 225.552961 73.836888 
L 225.38974 73.784712 
L 225.225712 73.735132 
L 225.060917 73.688161 
L 224.895398 73.64381 
L 224.729197 73.602091 
L 224.562354 73.563015 
L 224.394912 73.52659 
L 224.226913 73.492826 
L 224.0584 73.461733 
L 223.889415 73.433316 
L 223.72 73.407585 
L 223.550198 73.384544 
L 223.380053 73.364201 
L 223.209605 73.346559 
L 223.0389 73.331625 
L 222.867978 73.3194 
L 222.696885 73.309889 
L 222.525662 73.303094 
L 222.354352 73.299016 
L 222.183 73.297656 
L 202.323 73.297656 
L 202.151648 73.299016 
L 201.980338 73.303094 
L 201.809115 73.309889 
L 201.638022 73.3194 
L 201.4671 73.331625 
L 201.296395 73.346559 
L 201.125947 73.364201 
L 200.955802 73.384544 
L 200.786 73.407585 
L 200.616585 73.433316 
L 200.4476 73.461733 
L 200.279087 73.492826 
L 200.111088 73.52659 
L 199.943646 73.563015 
L 199.776803 73.602091 
L 199.610602 73.64381 
L 199.445083 73.688161 
L 199.280288 73.735132 
L 199.11626 73.784712 
L 198.953039 73.836888 
L 198.790666 73.891647 
L 198.629182 73.948976 
L 198.468629 74.008859 
L 198.309045 74.071283 
L 198.150473 74.13623 
L 197.99295 74.203685 
L 197.836518 74.273631 
L 197.681215 74.34605 
L 197.527081 74.420923 
L 197.374154 74.498233 
L 197.222472 74.57796 
L 197.072075 74.660083 
L 196.923 74.744582 
L 196.775284 74.831435 
L 196.628965 74.920622 
L 196.484079 75.012118 
L 196.340663 75.105902 
L 196.198753 75.201949 
L 196.058385 75.300236 
L 195.919594 75.400737 
L 195.782415 75.503428 
L 195.646883 75.608283 
L 195.513031 75.715274 
L 195.380894 75.824376 
L 195.250504 75.935561 
L 195.121895 76.0488 
L 194.995098 76.164066 
L 194.870147 76.281329 
L 194.747071 76.400559 
L 194.625903 76.521727 
L 194.506672 76.644803 
L 194.38941 76.769755 
L 194.274144 76.896551 
L 194.160905 77.02516 
L 194.04972 77.15555 
L 193.940618 77.287687 
L 193.833627 77.421539 
L 193.728772 77.557072 
L 193.626081 77.694251 
L 193.52558 77.833042 
L 193.427293 77.97341 
L 193.331246 78.11532 
L 193.237462 78.258735 
L 193.145965 78.403621 
L 193.056779 78.54994 
L 192.969926 78.697656 
L 192.885427 78.846732 
L 192.803304 78.997129 
L 192.723577 79.14881 
L 192.646267 79.301737 
L 192.571393 79.455871 
L 192.498974 79.611174 
L 192.429029 79.767606 
L 192.361574 79.925129 
L 192.296626 80.083702 
L 192.234203 80.243285 
L 192.17432 80.403839 
L 192.116991 80.565322 
L 192.062232 80.727695 
L 192.010056 80.890916 
L 191.960476 81.054945 
L 191.913505 81.219739 
L 191.869154 81.385258 
L 191.827435 81.55146 
L 191.788358 81.718302 
L 191.751934 81.885744 
L 191.71817 82.053743 
L 191.687076 82.222256 
L 191.65866 82.391241 
L 191.632928 82.560656 
L 191.609888 82.730458 
L 191.589545 82.900604 
L 191.571903 83.071051 
L 191.556968 83.241757 
L 191.544744 83.412678 
L 191.535233 83.583772 
L 191.528437 83.754995 
L 191.524359 83.926304 
L 191.523 84.097656 
L 191.523 106.057656 
L 191.524359 106.229009 
L 191.528437 106.400318 
L 191.535233 106.571541 
L 191.544744 106.742635 
L 191.556968 106.913556 
L 191.571903 107.084262 
L 191.589545 107.254709 
L 191.609888 107.424855 
L 191.632928 107.594657 
L 191.65866 107.764071 
L 191.687076 107.933057 
L 191.71817 108.10157 
L 191.751934 108.269568 
L 191.788358 108.43701 
L 191.827435 108.603853 
L 191.869154 108.770055 
L 191.913505 108.935573 
L 191.960476 109.100368 
L 192.010056 109.264396 
L 192.062232 109.427617 
L 192.116991 109.58999 
L 192.17432 109.751474 
L 192.234203 109.912027 
L 192.296626 110.071611 
L 192.361574 110.230184 
L 192.429029 110.387706 
L 192.498974 110.544138 
L 192.571393 110.699441 
L 192.646267 110.853576 
L 192.723577 111.006503 
L 192.803304 111.158184 
L 192.885427 111.308581 
L 192.969926 111.457656 
L 193.056779 111.605372 
L 193.145965 111.751691 
L 193.237462 111.896577 
L 193.331246 112.039993 
L 193.427293 112.181903 
L 193.52558 112.322271 
L 193.626081 112.461062 
L 193.728772 112.598241 
L 193.833627 112.733773 
L 193.940618 112.867625 
L 194.04972 112.999762 
L 194.160905 113.130152 
L 194.274144 113.258761 
L 194.38941 113.385558 
L 194.506672 113.51051 
L 194.625903 113.633585 
L 194.747071 113.754753 
L 194.870147 113.873984 
L 194.995098 113.991247 
L 195.121895 114.106512 
L 195.250504 114.219752 
L 195.380894 114.330936 
L 195.513031 114.440038 
L 195.646883 114.54703 
L 195.782415 114.651884 
L 195.919594 114.754575 
L 196.058385 114.855077 
L 196.198753 114.953363 
L 196.340663 115.049411 
L 196.484079 115.143194 
L 196.628965 115.234691 
L 196.775284 115.323877 
L 196.923 115.410731 
L 197.072075 115.49523 
L 197.222472 115.577353 
L 197.374154 115.657079 
L 197.527081 115.734389 
L 197.681215 115.809263 
L 197.836518 115.881682 
L 197.99295 115.951628 
L 198.150473 116.019083 
L 198.309045 116.08403 
L 198.468629 116.146453 
L 198.629182 116.206337 
L 198.790666 116.263665 
L 198.953039 116.318424 
L 199.11626 116.3706 
L 199.280288 116.42018 
L 199.445083 116.467152 
L 199.610602 116.511502 
L 199.776803 116.553221 
L 199.943646 116.592298 
L 200.111088 116.628723 
L 200.279087 116.662486 
L 200.4476 116.69358 
L 200.616585 116.721996 
L 200.786 116.747728 
L 200.955802 116.770768 
L 201.125947 116.791112 
L 201.296395 116.808753 
L 201.4671 116.823688 
L 201.638022 116.835912 
L 201.809115 116.845424 
L 201.980338 116.852219 
L 202.151648 116.856297 
L 202.323 116.857656 
L 222.183 116.857656 
z
" clip-path="url(#pc410dcab27)" style="fill: none; stroke-dasharray: 1.85,0.8; stroke-dashoffset: 0; stroke: #008000; stroke-width: 0.5; stroke-linecap: round"/>
   </g>
   <g id="line2d_1">
    <path d="M 198.723 94.777656 
L 211.923 94.777656 
" clip-path="url(#pc410dcab27)" style="fill: none; stroke: #000000; stroke-width: 2; stroke-linecap: round"/>
   </g>
   <g id="line2d_2">
    <path d="M 211.923 81.577656 
L 211.923 107.977656 
" clip-path="url(#pc410dcab27)" style="fill: none; stroke: #000000; stroke-width: 2; stroke-linecap: round"/>
   </g>
   <g id="line2d_3">
    <path d="M 211.923 88.177656 
L 225.783 76.297656 
L 225.783 69.697656 
" clip-path="url(#pc410dcab27)" style="fill: none; stroke: #000000; stroke-width: 2; stroke-linecap: round"/>
   </g>
   <g id="line2d_4">
    <path d="M 211.923 101.377656 
L 225.783 113.257656 
L 225.783 119.857656 
" clip-path="url(#pc410dcab27)" style="fill: none; stroke: #000000; stroke-width: 2; stroke-linecap: round"/>
   </g>
   <g id="line2d_5">
    <path d="M 211.923 101.377656 
L 218.949691 107.400534 
" clip-path="url(#pc410dcab27)" style="fill: none; stroke: #000000; stroke-width: 2; stroke-linecap: round"/>
   </g>
   <g id="patch_5">
    <path d="M 221.29254 104.66721 
L 225.783 113.257656 
L 216.606842 110.133858 
z
" clip-path="url(#pc410dcab27)"/>
   </g>
   <g id="line2d_6">
    <path d="M 198.723 94.777656 
L 189.723 94.777656 
L 180.723 94.777656 
" clip-path="url(#pc410dcab27)" style="fill: none; stroke: #000000; stroke-width: 2; stroke-linecap: round"/>
   </g>
   <g id="line2d_7">
    <path d="M 180.723 94.777656 
L 180.723 76.777656 
L 180.723 58.777656 
" clip-path="url(#pc410dcab27)" style="fill: none; stroke: #000000; stroke-width: 2; stroke-linecap: round"/>
   </g>
   <g id="line2d_8">
    <path d="M 180.723 58.777656 
L 144.723 58.777656 
L 108.723 58.777656 
" clip-path="url(#pc410dcab27)" style="fill: none; stroke: #000000; stroke-width: 2; stroke-linecap: round"/>
   </g>
   <g id="line2d_9">
    <path d="M 108.723 58.777656 
L 63.723 58.777656 
L 18.723 58.777656 
" clip-path="url(#pc410dcab27)" style="fill: none; stroke: #000000; stroke-width: 2; stroke-linecap: round"/>
   </g>
   <g id="line2d_10">
    <path d="M 225.783 119.857656 
L 225.783 155.857656 
L 225.783 191.857656 
" clip-path="url(#pc410dcab27)" style="fill: none; stroke: #000000; stroke-width: 2; stroke-linecap: round"/>
   </g>
   <g id="line2d_11">
    <path d="M 225.783 191.857656 
L 225.783 200.857656 
L 234.783 203.857656 
L 216.783 209.857656 
L 234.783 215.857656 
L 216.783 221.857656 
L 234.783 227.857656 
L 216.783 233.857656 
L 225.783 236.857656 
L 225.783 245.857656 
" clip-path="url(#pc410dcab27)" style="fill: none; stroke: #000000; stroke-width: 2; stroke-linecap: round"/>
   </g>
   <g id="line2d_12">
    <path d="M 225.783 245.857656 
L 243.783 245.857656 
L 261.783 245.857656 
" clip-path="url(#pc410dcab27)" style="fill: none; stroke: #000000; stroke-width: 2; stroke-linecap: round"/>
   </g>
   <g id="line2d_13">
    <path d="M 225.783 191.857656 
L 171.783 191.857656 
L 117.783 191.857656 
" clip-path="url(#pc410dcab27)" style="fill: none; stroke: #000000; stroke-width: 2; stroke-linecap: round"/>
   </g>
   <g id="line2d_14">
    <path d="M 117.783 191.857656 
L 117.783 182.857656 
L 108.783 179.857656 
L 126.783 173.857656 
L 108.783 167.857656 
L 126.783 161.857656 
L 108.783 155.857656 
L 126.783 149.857656 
L 117.783 146.857656 
L 117.783 137.857656 
" clip-path="url(#pc410dcab27)" style="fill: none; stroke: #000000; stroke-width: 2; stroke-linecap: round"/>
   </g>
   <g id="line2d_15">
    <path d="M 117.783 137.857656 
L 117.783 128.857656 
L 117.783 119.857656 
" clip-path="url(#pc410dcab27)" style="fill: none; stroke: #000000; stroke-width: 2; stroke-linecap: round"/>
   </g>
   <g id="line2d_16">
    <path d="M 117.783 119.857656 
L 117.783 110.857656 
L 108.783 107.857656 
L 126.783 101.857656 
L 108.783 95.857656 
L 126.783 89.857656 
L 108.783 83.857656 
L 126.783 77.857656 
L 117.783 74.857656 
L 117.783 65.857656 
" clip-path="url(#pc410dcab27)" style="fill: none; stroke: #000000; stroke-width: 2; stroke-linecap: round"/>
   </g>
   <g id="line2d_17">
    <path d="M 117.783 65.857656 
L 117.783 49.777656 
L 117.783 33.697656 
" clip-path="url(#pc410dcab27)" style="fill: none; stroke: #000000; stroke-width: 2; stroke-linecap: round"/>
   </g>
   <g id="line2d_18">
    <path d="M 117.783 33.697656 
L 117.783 19.297656 
" clip-path="url(#pc410dcab27)" style="fill: none; stroke: #000000; stroke-width: 2; stroke-linecap: round"/>
   </g>
   <g id="line2d_19">
    <path d="M 117.783 19.297656 
L 111.033 19.297656 
" clip-path="url(#pc410dcab27)" style="fill: none; stroke: #000000; stroke-width: 2; stroke-linecap: round"/>
   </g>
   <g id="line2d_20">
    <path d="M 117.783 19.297656 
L 124.533 19.297656 
" clip-path="url(#pc410dcab27)" style="fill: none; stroke: #000000; stroke-width: 2; stroke-linecap: round"/>
   </g>
   <g id="line2d_21">
    <path d="M 117.783 33.697656 
L 171.783 33.697656 
L 225.783 33.697656 
" clip-path="url(#pc410dcab27)" style="fill: none; stroke: #000000; stroke-width: 2; stroke-linecap: round"/>
   </g>
   <g id="line2d_22">
    <path d="M 225.783 33.697656 
L 225.783 51.697656 
L 225.783 69.697656 
" clip-path="url(#pc410dcab27)" style="fill: none; stroke: #000000; stroke-width: 2; stroke-linecap: round"/>
   </g>
   <g id="line2d_23">
    <path d="M 117.783 137.857656 
L 99.783 137.857656 
L 81.783 137.857656 
" clip-path="url(#pc410dcab27)" style="fill: none; stroke: #000000; stroke-width: 2; stroke-linecap: round"/>
   </g>
   <g id="line2d_24">
    <path d="M 81.783 137.857656 
L 68.583 137.857656 
" clip-path="url(#pc410dcab27)" style="fill: none; stroke: #000000; stroke-width: 2; stroke-linecap: round"/>
   </g>
   <g id="line2d_25">
    <path d="M 68.583 124.657656 
L 68.583 151.057656 
" clip-path="url(#pc410dcab27)" style="fill: none; stroke: #000000; stroke-width: 2; stroke-linecap: round"/>
   </g>
   <g id="line2d_26">
    <path d="M 68.583 131.257656 
L 54.723 119.377656 
L 54.723 112.777656 
" clip-path="url(#pc410dcab27)" style="fill: none; stroke: #000000; stroke-width: 2; stroke-linecap: round"/>
   </g>
   <g id="line2d_27">
    <path d="M 68.583 144.457656 
L 54.723 156.337656 
L 54.723 162.937656 
" clip-path="url(#pc410dcab27)" style="fill: none; stroke: #000000; stroke-width: 2; stroke-linecap: round"/>
   </g>
   <g id="line2d_28">
    <path d="M 68.583 144.457656 
L 61.556309 150.480534 
" clip-path="url(#pc410dcab27)" style="fill: none; stroke: #000000; stroke-width: 2; stroke-linecap: round"/>
   </g>
   <g id="patch_6">
    <path d="M 63.899158 153.213858 
L 54.723 156.337656 
L 59.21346 147.74721 
z
" clip-path="url(#pc410dcab27)"/>
   </g>
   <g id="line2d_29">
    <path d="M 54.723 162.937656 
L 54.723 204.397656 
L 54.723 245.857656 
" clip-path="url(#pc410dcab27)" style="fill: none; stroke: #000000; stroke-width: 2; stroke-linecap: round"/>
   </g>
   <g id="line2d_30">
    <path d="M 54.723 245.857656 
L 140.253 245.857656 
L 225.783 245.857656 
" clip-path="url(#pc410dcab27)" style="fill: none; stroke: #000000; stroke-width: 2; stroke-linecap: round"/>
   </g>
   <g id="line2d_31">
    <path d="M 54.723 112.777656 
L 54.723 85.777656 
L 54.723 58.777656 
" clip-path="url(#pc410dcab27)" style="fill: none; stroke: #000000; stroke-width: 2; stroke-linecap: round"/>
   </g>
   <g id="line2d_32">
    <path d="M 40.323 101.857656 
L 40.323 163.057656 
" clip-path="url(#pc410dcab27)" style="fill: none; stroke: #ff0000; stroke-width: 2; stroke-linecap: round"/>
   </g>
   <g id="patch_7">
    <path d="M 43.923 163.057656 
L 40.323 173.857656 
L 36.723 163.057656 
z
" clip-path="url(#pc410dcab27)" style="fill: #ff0000"/>
   </g>
   <g id="line2d_33">
    <path d="M 103.383 85.657656 
L 103.383 110.857656 
" clip-path="url(#pc410dcab27)" style="fill: none; stroke: #ff0000; stroke-width: 2; stroke-linecap: round"/>
   </g>
   <g id="patch_8">
    <path d="M 99.783 85.657656 
L 103.383 74.857656 
L 106.983 85.657656 
z
" clip-path="url(#pc410dcab27)" style="fill: #ff0000"/>
   </g>
   <g id="line2d_34">
    <path d="M 240.183 58.777656 
L 240.183 119.977656 
" clip-path="url(#pc410dcab27)" style="fill: none; stroke: #008000; stroke-width: 5; stroke-linecap: round"/>
   </g>
   <g id="patch_9">
    <path d="M 243.783 119.977656 
L 240.183 130.777656 
L 236.583 119.977656 
z
" clip-path="url(#pc410dcab27)" style="fill: #008000"/>
   </g>
   <g id="line2d_35">
    <path d="M 27.723 44.377656 
L 88.923 44.377656 
" clip-path="url(#pc410dcab27)" style="fill: none; stroke: #008000; stroke-width: 2; stroke-linecap: round"/>
   </g>
   <g id="patch_10">
    <path d="M 88.923 40.777656 
L 99.723 44.377656 
L 88.923 47.977656 
z
" clip-path="url(#pc410dcab27)" style="fill: #008000"/>
   </g>
   <g id="text_1">
    <!-- $R_{I1}$ -->
    <g transform="translate(195.933 222.306875) scale(0.125 -0.125)">
     <defs>
      <path id="DejaVuSans-Oblique-52" d="M 1613 4147 
L 1294 2491 
L 2106 2491 
Q 2584 2491 2879 2755 
Q 3175 3019 3175 3444 
Q 3175 3784 2976 3965 
Q 2778 4147 2406 4147 
L 1613 4147 
z
M 2772 2241 
Q 2972 2194 3105 2009 
Q 3238 1825 3413 1275 
L 3809 0 
L 3144 0 
L 2778 1197 
Q 2638 1659 2453 1815 
Q 2269 1972 1888 1972 
L 1191 1972 
L 806 0 
L 172 0 
L 1081 4666 
L 2503 4666 
Q 3150 4666 3495 4373 
Q 3841 4081 3841 3531 
Q 3841 3044 3547 2687 
Q 3253 2331 2772 2241 
z
" transform="scale(0.015625)"/>
      <path id="DejaVuSans-Oblique-49" d="M 1081 4666 
L 1716 4666 
L 806 0 
L 172 0 
L 1081 4666 
z
" transform="scale(0.015625)"/>
      <path id="DejaVuSans-31" d="M 794 531 
L 1825 531 
L 1825 4091 
L 703 3866 
L 703 4441 
L 1819 4666 
L 2450 4666 
L 2450 531 
L 3481 531 
L 3481 0 
L 794 0 
L 794 531 
z
" transform="scale(0.015625)"/>
     </defs>
     <use xlink:href="#DejaVuSans-Oblique-52" transform="translate(0 0.09375)"/>
     <use xlink:href="#DejaVuSans-Oblique-49" transform="translate(69.482422 -16.3125) scale(0.7)"/>
     <use xlink:href="#DejaVuSans-31" transform="translate(90.126953 -16.3125) scale(0.7)"/>
    </g>
   </g>
   <g id="text_2">
    <!-- $R_{v1}$ -->
    <g transform="translate(132.108 168.306875) scale(0.125 -0.125)">
     <defs>
      <path id="DejaVuSans-Oblique-76" d="M 459 3500 
L 1069 3500 
L 1581 525 
L 3256 3500 
L 3866 3500 
L 1875 0 
L 1100 0 
L 459 3500 
z
" transform="scale(0.015625)"/>
     </defs>
     <use xlink:href="#DejaVuSans-Oblique-52" transform="translate(0 0.09375)"/>
     <use xlink:href="#DejaVuSans-Oblique-76" transform="translate(69.482422 -16.3125) scale(0.7)"/>
     <use xlink:href="#DejaVuSans-31" transform="translate(110.908203 -16.3125) scale(0.7)"/>
    </g>
   </g>
   <g id="text_3">
    <!-- $R_{v2}$ -->
    <g transform="translate(132.108 96.306875) scale(0.125 -0.125)">
     <defs>
      <path id="DejaVuSans-32" d="M 1228 531 
L 3431 531 
L 3431 0 
L 469 0 
L 469 531 
Q 828 903 1448 1529 
Q 2069 2156 2228 2338 
Q 2531 2678 2651 2914 
Q 2772 3150 2772 3378 
Q 2772 3750 2511 3984 
Q 2250 4219 1831 4219 
Q 1534 4219 1204 4116 
Q 875 4013 500 3803 
L 500 4441 
Q 881 4594 1212 4672 
Q 1544 4750 1819 4750 
Q 2544 4750 2975 4387 
Q 3406 4025 3406 3419 
Q 3406 3131 3298 2873 
Q 3191 2616 2906 2266 
Q 2828 2175 2409 1742 
Q 1991 1309 1228 531 
z
" transform="scale(0.015625)"/>
     </defs>
     <use xlink:href="#DejaVuSans-Oblique-52" transform="translate(0 0.09375)"/>
     <use xlink:href="#DejaVuSans-Oblique-76" transform="translate(69.482422 -16.3125) scale(0.7)"/>
     <use xlink:href="#DejaVuSans-32" transform="translate(110.908203 -16.3125) scale(0.7)"/>
    </g>
   </g>
   <g id="text_4">
    <!-- $V_{DD}$ -->
    <g transform="translate(106.5955 13.098047) scale(0.125 -0.125)">
     <defs>
      <path id="DejaVuSans-Oblique-56" d="M 1319 0 
L 500 4666 
L 1119 4666 
L 1797 653 
L 4063 4666 
L 4750 4666 
L 2053 0 
L 1319 0 
z
" transform="scale(0.015625)"/>
      <path id="DejaVuSans-Oblique-44" d="M 1081 4666 
L 2438 4666 
Q 3519 4666 4070 4208 
Q 4622 3750 4622 2847 
Q 4622 2250 4412 1698 
Q 4203 1147 3834 769 
Q 3463 381 2891 190 
Q 2319 0 1538 0 
L 172 0 
L 1081 4666 
z
M 1613 4147 
L 909 519 
L 1734 519 
Q 2794 519 3375 1128 
Q 3956 1738 3956 2847 
Q 3956 3519 3581 3833 
Q 3206 4147 2406 4147 
L 1613 4147 
z
" transform="scale(0.015625)"/>
     </defs>
     <use xlink:href="#DejaVuSans-Oblique-56" transform="translate(0 0.09375)"/>
     <use xlink:href="#DejaVuSans-Oblique-44" transform="translate(68.408203 -16.3125) scale(0.7)"/>
     <use xlink:href="#DejaVuSans-Oblique-44" transform="translate(122.30957 -16.3125) scale(0.7)"/>
    </g>
   </g>
   <g id="text_5">
    <!-- $\frac{I_{out}}{  \beta_{F1}}$ -->
    <g style="fill: #ff0000" transform="translate(21.848 141.107656) scale(0.125 -0.125)">
     <defs>
      <path id="DejaVuSans-Oblique-6f" d="M 1625 -91 
Q 1009 -91 651 289 
Q 294 669 294 1325 
Q 294 1706 417 2101 
Q 541 2497 738 2766 
Q 1047 3184 1428 3384 
Q 1809 3584 2291 3584 
Q 2888 3584 3255 3212 
Q 3622 2841 3622 2241 
Q 3622 1825 3500 1412 
Q 3378 1000 3181 728 
Q 2875 309 2494 109 
Q 2113 -91 1625 -91 
z
M 891 1344 
Q 891 869 1089 633 
Q 1288 397 1691 397 
Q 2269 397 2648 901 
Q 3028 1406 3028 2181 
Q 3028 2634 2825 2865 
Q 2622 3097 2228 3097 
Q 1903 3097 1650 2945 
Q 1397 2794 1197 2484 
Q 1050 2253 970 1956 
Q 891 1659 891 1344 
z
" transform="scale(0.015625)"/>
      <path id="DejaVuSans-Oblique-75" d="M 428 1388 
L 838 3500 
L 1416 3500 
L 1006 1409 
Q 975 1256 961 1147 
Q 947 1038 947 966 
Q 947 700 1109 554 
Q 1272 409 1569 409 
Q 2031 409 2368 721 
Q 2706 1034 2809 1563 
L 3194 3500 
L 3769 3500 
L 3091 0 
L 2516 0 
L 2631 550 
Q 2388 244 2052 76 
Q 1716 -91 1338 -91 
Q 878 -91 622 161 
Q 366 413 366 863 
Q 366 956 381 1097 
Q 397 1238 428 1388 
z
" transform="scale(0.015625)"/>
      <path id="DejaVuSans-Oblique-74" d="M 2706 3500 
L 2619 3053 
L 1472 3053 
L 1100 1153 
Q 1081 1047 1072 975 
Q 1063 903 1063 863 
Q 1063 663 1183 572 
Q 1303 481 1569 481 
L 2150 481 
L 2053 0 
L 1503 0 
Q 991 0 739 200 
Q 488 400 488 806 
Q 488 878 497 964 
Q 506 1050 525 1153 
L 897 3053 
L 409 3053 
L 500 3500 
L 978 3500 
L 1172 4494 
L 1747 4494 
L 1556 3500 
L 2706 3500 
z
" transform="scale(0.015625)"/>
      <path id="DejaVuSans-Oblique-3b2" d="M 872 216 
L 572 -1331 
L -6 -1331 
L 928 3478 
Q 1206 4903 2538 4903 
Q 3888 4903 3659 3700 
Q 3503 2844 2894 2531 
Q 3713 2250 3553 1416 
Q 3272 -69 1759 -66 
Q 1097 -63 872 216 
z
M 1019 966 
Q 1259 422 1875 425 
Q 2775 425 2966 1406 
Q 3138 2288 1675 2219 
L 1778 2750 
Q 2909 2731 3106 3750 
Q 3241 4438 2509 4434 
Q 1691 4434 1503 3459 
L 1019 966 
z
" transform="scale(0.015625)"/>
      <path id="DejaVuSans-Oblique-46" d="M 1081 4666 
L 3756 4666 
L 3653 4134 
L 1606 4134 
L 1338 2759 
L 3188 2759 
L 3084 2228 
L 1234 2228 
L 800 0 
L 172 0 
L 1081 4666 
z
" transform="scale(0.015625)"/>
     </defs>
     <use xlink:href="#DejaVuSans-Oblique-49" transform="translate(2 56.965625) scale(0.7)"/>
     <use xlink:href="#DejaVuSans-Oblique-6f" transform="translate(22.644531 45.48125) scale(0.49)"/>
     <use xlink:href="#DejaVuSans-Oblique-75" transform="translate(52.623535 45.48125) scale(0.49)"/>
     <use xlink:href="#DejaVuSans-Oblique-74" transform="translate(83.679199 45.48125) scale(0.49)"/>
     <use xlink:href="#DejaVuSans-Oblique-3b2" transform="translate(0 -40.092031) scale(0.7)"/>
     <use xlink:href="#DejaVuSans-Oblique-46" transform="translate(44.672852 -51.576406) scale(0.49)"/>
     <use xlink:href="#DejaVuSans-31" transform="translate(72.857422 -51.576406) scale(0.49)"/>
     <path d="M 0 19.784531 
L 0 26.034531 
L 105.946777 26.034531 
L 105.946777 19.784531 
L 0 19.784531 
z
"/>
    </g>
   </g>
   <g id="text_6">
    <!-- $\frac{I_{out}}{  \beta_{F1}\beta_{F2}}$ -->
    <g style="fill: #ff0000" transform="translate(71.658 96.107656) scale(0.125 -0.125)">
     <use xlink:href="#DejaVuSans-Oblique-49" transform="translate(55 56.965625) scale(0.7)"/>
     <use xlink:href="#DejaVuSans-Oblique-6f" transform="translate(75.644531 45.48125) scale(0.49)"/>
     <use xlink:href="#DejaVuSans-Oblique-75" transform="translate(105.623535 45.48125) scale(0.49)"/>
     <use xlink:href="#DejaVuSans-Oblique-74" transform="translate(136.679199 45.48125) scale(0.49)"/>
     <use xlink:href="#DejaVuSans-Oblique-3b2" transform="translate(0 -40.092031) scale(0.7)"/>
     <use xlink:href="#DejaVuSans-Oblique-46" transform="translate(44.672852 -51.576406) scale(0.49)"/>
     <use xlink:href="#DejaVuSans-31" transform="translate(72.857422 -51.576406) scale(0.49)"/>
     <use xlink:href="#DejaVuSans-Oblique-3b2" transform="translate(105.946777 -40.092031) scale(0.7)"/>
     <use xlink:href="#DejaVuSans-Oblique-46" transform="translate(150.619629 -51.576406) scale(0.49)"/>
     <use xlink:href="#DejaVuSans-32" transform="translate(178.804199 -51.576406) scale(0.49)"/>
     <path d="M 0 19.784531 
L 0 26.034531 
L 211.893555 26.034531 
L 211.893555 19.784531 
L 0 19.784531 
z
"/>
    </g>
   </g>
   <g id="text_7">
    <!-- $I_{out}$ -->
    <g style="fill: #008000" transform="translate(243.783 98.226875) scale(0.125 -0.125)">
     <use xlink:href="#DejaVuSans-Oblique-49" transform="translate(0 0.09375)"/>
     <use xlink:href="#DejaVuSans-Oblique-6f" transform="translate(29.492188 -16.3125) scale(0.7)"/>
     <use xlink:href="#DejaVuSans-Oblique-75" transform="translate(72.319336 -16.3125) scale(0.7)"/>
     <use xlink:href="#DejaVuSans-Oblique-74" transform="translate(116.68457 -16.3125) scale(0.7)"/>
    </g>
   </g>
   <g id="text_8">
    <!-- $\frac{I_{out}}{  \beta_{F1}}$ -->
    <g style="fill: #008000" transform="translate(56.2855 33.777656) scale(0.125 -0.125)">
     <use xlink:href="#DejaVuSans-Oblique-49" transform="translate(2 56.965625) scale(0.7)"/>
     <use xlink:href="#DejaVuSans-Oblique-6f" transform="translate(22.644531 45.48125) scale(0.49)"/>
     <use xlink:href="#DejaVuSans-Oblique-75" transform="translate(52.623535 45.48125) scale(0.49)"/>
     <use xlink:href="#DejaVuSans-Oblique-74" transform="translate(83.679199 45.48125) scale(0.49)"/>
     <use xlink:href="#DejaVuSans-Oblique-3b2" transform="translate(0 -40.092031) scale(0.7)"/>
     <use xlink:href="#DejaVuSans-Oblique-46" transform="translate(44.672852 -51.576406) scale(0.49)"/>
     <use xlink:href="#DejaVuSans-31" transform="translate(72.857422 -51.576406) scale(0.49)"/>
     <path d="M 0 19.784531 
L 0 26.034531 
L 105.946777 26.034531 
L 105.946777 19.784531 
L 0 19.784531 
z
"/>
    </g>
   </g>
   <g id="patch_11">
    <path d="M 18.723 61.477656 
C 19.439048 61.477656 20.125866 61.193167 20.632188 60.686845 
C 21.138511 60.180522 21.423 59.493705 21.423 58.777656 
C 21.423 58.061608 21.138511 57.374791 20.632188 56.868468 
C 20.125866 56.362145 19.439048 56.077656 18.723 56.077656 
C 18.006952 56.077656 17.320134 56.362145 16.813812 56.868468 
C 16.307489 57.374791 16.023 58.061608 16.023 58.777656 
C 16.023 59.493705 16.307489 60.180522 16.813812 60.686845 
C 17.320134 61.193167 18.006952 61.477656 18.723 61.477656 
z
" clip-path="url(#pc410dcab27)" style="fill: #ffffff; stroke: #000000; stroke-width: 2; stroke-linejoin: miter"/>
   </g>
   <g id="patch_12">
    <path d="M 225.783 194.557656 
C 226.499048 194.557656 227.185866 194.273167 227.692188 193.766845 
C 228.198511 193.260522 228.483 192.573705 228.483 191.857656 
C 228.483 191.141608 228.198511 190.454791 227.692188 189.948468 
C 227.185866 189.442145 226.499048 189.157656 225.783 189.157656 
C 225.066952 189.157656 224.380134 189.442145 223.873812 189.948468 
C 223.367489 190.454791 223.083 191.141608 223.083 191.857656 
C 223.083 192.573705 223.367489 193.260522 223.873812 193.766845 
C 224.380134 194.273167 225.066952 194.557656 225.783 194.557656 
z
" clip-path="url(#pc410dcab27)" style="stroke: #000000; stroke-width: 2; stroke-linejoin: miter"/>
   </g>
   <g id="patch_13">
    <path d="M 225.783 248.557656 
C 226.499048 248.557656 227.185866 248.273167 227.692188 247.766845 
C 228.198511 247.260522 228.483 246.573705 228.483 245.857656 
C 228.483 245.141608 228.198511 244.454791 227.692188 243.948468 
C 227.185866 243.442145 226.499048 243.157656 225.783 243.157656 
C 225.066952 243.157656 224.380134 243.442145 223.873812 243.948468 
C 223.367489 244.454791 223.083 245.141608 223.083 245.857656 
C 223.083 246.573705 223.367489 247.260522 223.873812 247.766845 
C 224.380134 248.273167 225.066952 248.557656 225.783 248.557656 
z
" clip-path="url(#pc410dcab27)" style="stroke: #000000; stroke-width: 2; stroke-linejoin: miter"/>
   </g>
   <g id="patch_14">
    <path d="M 261.783 248.557656 
C 262.499048 248.557656 263.185866 248.273167 263.692188 247.766845 
C 264.198511 247.260522 264.483 246.573705 264.483 245.857656 
C 264.483 245.141608 264.198511 244.454791 263.692188 243.948468 
C 263.185866 243.442145 262.499048 243.157656 261.783 243.157656 
C 261.066952 243.157656 260.380134 243.442145 259.873812 243.948468 
C 259.367489 244.454791 259.083 245.141608 259.083 245.857656 
C 259.083 246.573705 259.367489 247.260522 259.873812 247.766845 
C 260.380134 248.273167 261.066952 248.557656 261.783 248.557656 
z
" clip-path="url(#pc410dcab27)" style="fill: #ffffff; stroke: #000000; stroke-width: 2; stroke-linejoin: miter"/>
   </g>
   <g id="patch_15">
    <path d="M 117.783 140.557656 
C 118.499048 140.557656 119.185866 140.273167 119.692188 139.766845 
C 120.198511 139.260522 120.483 138.573705 120.483 137.857656 
C 120.483 137.141608 120.198511 136.454791 119.692188 135.948468 
C 119.185866 135.442145 118.499048 135.157656 117.783 135.157656 
C 117.066952 135.157656 116.380134 135.442145 115.873812 135.948468 
C 115.367489 136.454791 115.083 137.141608 115.083 137.857656 
C 115.083 138.573705 115.367489 139.260522 115.873812 139.766845 
C 116.380134 140.273167 117.066952 140.557656 117.783 140.557656 
z
" clip-path="url(#pc410dcab27)" style="stroke: #000000; stroke-width: 2; stroke-linejoin: miter"/>
   </g>
   <g id="patch_16">
    <path d="M 117.783 36.397656 
C 118.499048 36.397656 119.185866 36.113167 119.692188 35.606845 
C 120.198511 35.100522 120.483 34.413705 120.483 33.697656 
C 120.483 32.981608 120.198511 32.294791 119.692188 31.788468 
C 119.185866 31.282145 118.499048 30.997656 117.783 30.997656 
C 117.066952 30.997656 116.380134 31.282145 115.873812 31.788468 
C 115.367489 32.294791 115.083 32.981608 115.083 33.697656 
C 115.083 34.413705 115.367489 35.100522 115.873812 35.606845 
C 116.380134 36.113167 117.066952 36.397656 117.783 36.397656 
z
" clip-path="url(#pc410dcab27)" style="stroke: #000000; stroke-width: 2; stroke-linejoin: miter"/>
   </g>
   <g id="patch_17">
    <path d="M 54.723 61.477656 
C 55.439048 61.477656 56.125866 61.193167 56.632188 60.686845 
C 57.138511 60.180522 57.423 59.493705 57.423 58.777656 
C 57.423 58.061608 57.138511 57.374791 56.632188 56.868468 
C 56.125866 56.362145 55.439048 56.077656 54.723 56.077656 
C 54.006952 56.077656 53.320134 56.362145 52.813812 56.868468 
C 52.307489 57.374791 52.023 58.061608 52.023 58.777656 
C 52.023 59.493705 52.307489 60.180522 52.813812 60.686845 
C 53.320134 61.193167 54.006952 61.477656 54.723 61.477656 
z
" clip-path="url(#pc410dcab27)" style="stroke: #000000; stroke-width: 2; stroke-linejoin: miter"/>
   </g>
  </g>
 </g>
 <defs>
  <clipPath id="pc410dcab27">
   <rect x="3.6" y="7.834656" width="273.306" height="252.186"/>
  </clipPath>
 </defs>
</svg>