<?xml version="1.0" encoding="utf-8" standalone="no"?>
<!DOCTYPE svg PUBLIC "-//W3C//DTD SVG 1.1//EN"
  "http://www.w3.org/Graphics/SVG/1.1/DTD/svg11.dtd">
<svg xmlns:xlink="http://www.w3.org/1999/xlink" width="85.760258pt" height="145.057656pt" viewBox="0 0 85.760258 145.057656" xmlns="http://www.w3.org/2000/svg" version="1.1">
 <metadata>
  <rdf:RDF xmlns:dc="http://purl.org/dc/elements/1.1/" xmlns:cc="http://creativecommons.org/ns#" xmlns:rdf="http://www.w3.org/1999/02/22-rdf-syntax-ns#">
   <cc:Work>
    <dc:type rdf:resource="http://purl.org/dc/dcmitype/StillImage"/>
    <dc:date>2024-01-05T22:28:17.391938</dc:date>
    <dc:format>image/svg+xml</dc:format>
    <dc:creator>
     <cc:Agent>
      <dc:title>Matplotlib v3.8.2, https://matplotlib.org/</dc:title>
     </cc:Agent>
    </dc:creator>
   </cc:Work>
  </rdf:RDF>
 </metadata>
 <defs>
  <style type="text/css">*{stroke-linejoin: round; stroke-linecap: butt}</style>
 </defs>
 <g id="figure_1">
  <g id="patch_1">
   <path d="M 0 145.057656 
L 85.760258 145.057656 
L 85.760258 0 
L 0 0 
z
" style="fill: #ffffff"/>
  </g>
  <g id="axes_1">
   <g id="line2d_1">
    <path d="M 9.276 39.877656 
L 22.476 39.877656 
" clip-path="url(#pec7ba42dcb)" style="fill: none; stroke: #000000; stroke-width: 2; stroke-linecap: round"/>
   </g>
   <g id="line2d_2">
    <path d="M 22.476 26.677656 
L 22.476 53.077656 
" clip-path="url(#pec7ba42dcb)" style="fill: none; stroke: #000000; stroke-width: 2; stroke-linecap: round"/>
   </g>
   <g id="line2d_3">
    <path d="M 22.476 33.277656 
L 36.336 21.397656 
L 36.336 14.797656 
" clip-path="url(#pec7ba42dcb)" style="fill: none; stroke: #000000; stroke-width: 2; stroke-linecap: round"/>
   </g>
   <g id="line2d_4">
    <path d="M 22.476 46.477656 
L 36.336 58.357656 
L 36.336 64.957656 
" clip-path="url(#pec7ba42dcb)" style="fill: none; stroke: #000000; stroke-width: 2; stroke-linecap: round"/>
   </g>
   <g id="line2d_5">
    <path d="M 22.476 46.477656 
L 29.502691 52.500534 
" clip-path="url(#pec7ba42dcb)" style="fill: none; stroke: #000000; stroke-width: 2; stroke-linecap: round"/>
   </g>
   <g id="patch_2">
    <path d="M 31.84554 49.76721 
L 36.336 58.357656 
L 27.159842 55.233858 
z
" clip-path="url(#pec7ba42dcb)"/>
   </g>
   <g id="line2d_6">
    <path d="M 36.336 64.957656 
L 49.536 64.957656 
" clip-path="url(#pec7ba42dcb)" style="fill: none; stroke: #000000; stroke-width: 2; stroke-linecap: round"/>
   </g>
   <g id="line2d_7">
    <path d="M 49.536 51.757656 
L 49.536 78.157656 
" clip-path="url(#pec7ba42dcb)" style="fill: none; stroke: #000000; stroke-width: 2; stroke-linecap: round"/>
   </g>
   <g id="line2d_8">
    <path d="M 49.536 58.357656 
L 63.396 46.477656 
L 63.396 39.877656 
" clip-path="url(#pec7ba42dcb)" style="fill: none; stroke: #000000; stroke-width: 2; stroke-linecap: round"/>
   </g>
   <g id="line2d_9">
    <path d="M 49.536 71.557656 
L 63.396 83.437656 
L 63.396 90.037656 
" clip-path="url(#pec7ba42dcb)" style="fill: none; stroke: #000000; stroke-width: 2; stroke-linecap: round"/>
   </g>
   <g id="line2d_10">
    <path d="M 49.536 71.557656 
L 56.562691 77.580534 
" clip-path="url(#pec7ba42dcb)" style="fill: none; stroke: #000000; stroke-width: 2; stroke-linecap: round"/>
   </g>
   <g id="patch_3">
    <path d="M 58.90554 74.84721 
L 63.396 83.437656 
L 54.219842 80.313858 
z
" clip-path="url(#pec7ba42dcb)"/>
   </g>
   <g id="line2d_11">
    <path d="M 36.336 64.957656 
L 36.336 79.357656 
L 45.336 82.357656 
L 27.336 88.357656 
L 45.336 94.357656 
L 27.336 100.357656 
L 45.336 106.357656 
L 27.336 112.357656 
L 36.336 115.357656 
L 36.336 129.757656 
" clip-path="url(#pec7ba42dcb)" style="fill: none; stroke: #000000; stroke-width: 2; stroke-linecap: round"/>
   </g>
   <g id="line2d_12">
    <path d="M 63.396 90.037656 
L 63.396 109.897656 
L 63.396 129.757656 
" clip-path="url(#pec7ba42dcb)" style="fill: none; stroke: #000000; stroke-width: 2; stroke-linecap: round"/>
   </g>
   <g id="line2d_13">
    <path d="M 63.396 129.757656 
L 49.866 129.757656 
L 36.336 129.757656 
" clip-path="url(#pec7ba42dcb)" style="fill: none; stroke: #000000; stroke-width: 2; stroke-linecap: round"/>
   </g>
   <g id="line2d_14">
    <path d="M 63.396 39.877656 
L 63.396 27.337656 
L 63.396 14.797656 
" clip-path="url(#pec7ba42dcb)" style="fill: none; stroke: #000000; stroke-width: 2; stroke-linecap: round"/>
   </g>
   <g id="line2d_15">
    <path d="M 63.396 14.797656 
L 49.866 14.797656 
L 36.336 14.797656 
" clip-path="url(#pec7ba42dcb)" style="fill: none; stroke: #000000; stroke-width: 2; stroke-linecap: round"/>
   </g>
   <g id="text_1">
    <!-- $R_{ed}$ -->
    <g transform="translate(3.736 100.806875) scale(0.125 -0.125)">
     <defs>
      <path id="DejaVuSans-Oblique-52" d="M 1613 4147 
L 1294 2491 
L 2106 2491 
Q 2584 2491 2879 2755 
Q 3175 3019 3175 3444 
Q 3175 3784 2976 3965 
Q 2778 4147 2406 4147 
L 1613 4147 
z
M 2772 2241 
Q 2972 2194 3105 2009 
Q 3238 1825 3413 1275 
L 3809 0 
L 3144 0 
L 2778 1197 
Q 2638 1659 2453 1815 
Q 2269 1972 1888 1972 
L 1191 1972 
L 806 0 
L 172 0 
L 1081 4666 
L 2503 4666 
Q 3150 4666 3495 4373 
Q 3841 4081 3841 3531 
Q 3841 3044 3547 2687 
Q 3253 2331 2772 2241 
z
" transform="scale(0.015625)"/>
      <path id="DejaVuSans-Oblique-65" d="M 3078 2063 
Q 3088 2113 3092 2166 
Q 3097 2219 3097 2272 
Q 3097 2653 2873 2875 
Q 2650 3097 2266 3097 
Q 1838 3097 1509 2826 
Q 1181 2556 1013 2059 
L 3078 2063 
z
M 3578 1613 
L 903 1613 
Q 884 1494 878 1425 
Q 872 1356 872 1306 
Q 872 872 1139 634 
Q 1406 397 1894 397 
Q 2269 397 2603 481 
Q 2938 566 3225 728 
L 3116 159 
Q 2806 34 2476 -28 
Q 2147 -91 1806 -91 
Q 1078 -91 686 257 
Q 294 606 294 1247 
Q 294 1794 489 2264 
Q 684 2734 1063 3103 
Q 1306 3334 1642 3459 
Q 1978 3584 2356 3584 
Q 2950 3584 3301 3228 
Q 3653 2872 3653 2272 
Q 3653 2128 3634 1964 
Q 3616 1800 3578 1613 
z
" transform="scale(0.015625)"/>
      <path id="DejaVuSans-Oblique-64" d="M 2675 525 
Q 2444 222 2128 65 
Q 1813 -91 1428 -91 
Q 903 -91 598 267 
Q 294 625 294 1247 
Q 294 1766 478 2236 
Q 663 2706 1013 3078 
Q 1244 3325 1534 3454 
Q 1825 3584 2144 3584 
Q 2481 3584 2739 3421 
Q 2997 3259 3138 2956 
L 3513 4863 
L 4091 4863 
L 3144 0 
L 2566 0 
L 2675 525 
z
M 891 1350 
Q 891 897 1095 644 
Q 1300 391 1663 391 
Q 1931 391 2161 520 
Q 2391 650 2566 903 
Q 2750 1166 2856 1509 
Q 2963 1853 2963 2188 
Q 2963 2622 2758 2865 
Q 2553 3109 2194 3109 
Q 1922 3109 1687 2981 
Q 1453 2853 1288 2613 
Q 1106 2353 998 2009 
Q 891 1666 891 1350 
z
" transform="scale(0.015625)"/>
     </defs>
     <use xlink:href="#DejaVuSans-Oblique-52" transform="translate(0 0.09375)"/>
     <use xlink:href="#DejaVuSans-Oblique-65" transform="translate(69.482422 -16.3125) scale(0.7)"/>
     <use xlink:href="#DejaVuSans-Oblique-64" transform="translate(112.548828 -16.3125) scale(0.7)"/>
    </g>
   </g>
   <g id="patch_4">
    <path d="M 9.276 42.577656 
C 9.992048 42.577656 10.678866 42.293167 11.185188 41.786845 
C 11.691511 41.280522 11.976 40.593705 11.976 39.877656 
C 11.976 39.161608 11.691511 38.474791 11.185188 37.968468 
C 10.678866 37.462145 9.992048 37.177656 9.276 37.177656 
C 8.559952 37.177656 7.873134 37.462145 7.366812 37.968468 
C 6.860489 38.474791 6.576 39.161608 6.576 39.877656 
C 6.576 40.593705 6.860489 41.280522 7.366812 41.786845 
C 7.873134 42.293167 8.559952 42.577656 9.276 42.577656 
z
" clip-path="url(#pec7ba42dcb)" style="stroke: #000000; stroke-width: 2; stroke-linejoin: miter"/>
   </g>
   <g id="text_2">
    <!-- B -->
    <g transform="translate(4.987914 30.978047) scale(0.125 -0.125)">
     <defs>
      <path id="DejaVuSans-42" d="M 1259 2228 
L 1259 519 
L 2272 519 
Q 2781 519 3026 730 
Q 3272 941 3272 1375 
Q 3272 1813 3026 2020 
Q 2781 2228 2272 2228 
L 1259 2228 
z
M 1259 4147 
L 1259 2741 
L 2194 2741 
Q 2656 2741 2882 2914 
Q 3109 3088 3109 3444 
Q 3109 3797 2882 3972 
Q 2656 4147 2194 4147 
L 1259 4147 
z
M 628 4666 
L 2241 4666 
Q 2963 4666 3353 4366 
Q 3744 4066 3744 3513 
Q 3744 3084 3544 2831 
Q 3344 2578 2956 2516 
Q 3422 2416 3680 2098 
Q 3938 1781 3938 1306 
Q 3938 681 3513 340 
Q 3088 0 2303 0 
L 628 0 
L 628 4666 
z
" transform="scale(0.015625)"/>
     </defs>
     <use xlink:href="#DejaVuSans-42"/>
    </g>
   </g>
   <g id="patch_5">
    <path d="M 63.396 132.457656 
C 64.112048 132.457656 64.798866 132.173167 65.305188 131.666845 
C 65.811511 131.160522 66.096 130.473705 66.096 129.757656 
C 66.096 129.041608 65.811511 128.354791 65.305188 127.848468 
C 64.798866 127.342145 64.112048 127.057656 63.396 127.057656 
C 62.679952 127.057656 61.993134 127.342145 61.486812 127.848468 
C 60.980489 128.354791 60.696 129.041608 60.696 129.757656 
C 60.696 130.473705 60.980489 131.160522 61.486812 131.666845 
C 61.993134 132.173167 62.679952 132.457656 63.396 132.457656 
z
" clip-path="url(#pec7ba42dcb)" style="stroke: #000000; stroke-width: 2; stroke-linejoin: miter"/>
   </g>
   <g id="text_3">
    <!-- E -->
    <g transform="translate(73.846781 138.858047) scale(0.125 -0.125)">
     <defs>
      <path id="DejaVuSans-45" d="M 628 4666 
L 3578 4666 
L 3578 4134 
L 1259 4134 
L 1259 2753 
L 3481 2753 
L 3481 2222 
L 1259 2222 
L 1259 531 
L 3634 531 
L 3634 0 
L 628 0 
L 628 4666 
z
" transform="scale(0.015625)"/>
     </defs>
     <use xlink:href="#DejaVuSans-45"/>
    </g>
   </g>
   <g id="patch_6">
    <path d="M 63.396 17.497656 
C 64.112048 17.497656 64.798866 17.213167 65.305188 16.706845 
C 65.811511 16.200522 66.096 15.513705 66.096 14.797656 
C 66.096 14.081608 65.811511 13.394791 65.305188 12.888468 
C 64.798866 12.382145 64.112048 12.097656 63.396 12.097656 
C 62.679952 12.097656 61.993134 12.382145 61.486812 12.888468 
C 60.980489 13.394791 60.696 14.081608 60.696 14.797656 
C 60.696 15.513705 60.980489 16.200522 61.486812 16.706845 
C 61.993134 17.213167 62.679952 17.497656 63.396 17.497656 
z
" clip-path="url(#pec7ba42dcb)" style="stroke: #000000; stroke-width: 2; stroke-linejoin: miter"/>
   </g>
   <g id="text_4">
    <!-- C -->
    <g transform="translate(73.431742 13.098047) scale(0.125 -0.125)">
     <defs>
      <path id="DejaVuSans-43" d="M 4122 4306 
L 4122 3641 
Q 3803 3938 3442 4084 
Q 3081 4231 2675 4231 
Q 1875 4231 1450 3742 
Q 1025 3253 1025 2328 
Q 1025 1406 1450 917 
Q 1875 428 2675 428 
Q 3081 428 3442 575 
Q 3803 722 4122 1019 
L 4122 359 
Q 3791 134 3420 21 
Q 3050 -91 2638 -91 
Q 1578 -91 968 557 
Q 359 1206 359 2328 
Q 359 3453 968 4101 
Q 1578 4750 2638 4750 
Q 3056 4750 3426 4639 
Q 3797 4528 4122 4306 
z
" transform="scale(0.015625)"/>
     </defs>
     <use xlink:href="#DejaVuSans-43"/>
    </g>
   </g>
  </g>
 </g>
 <defs>
  <clipPath id="pec7ba42dcb">
   <rect x="3.6" y="6.079656" width="65.472" height="132.396"/>
  </clipPath>
 </defs>
</svg>