<?xml version="1.0" encoding="utf-8" standalone="no"?>
<!DOCTYPE svg PUBLIC "-//W3C//DTD SVG 1.1//EN"
  "http://www.w3.org/Graphics/SVG/1.1/DTD/svg11.dtd">
<svg xmlns:xlink="http://www.w3.org/1999/xlink" width="418.645097pt" height="367.032pt" viewBox="0 0 418.645097 367.032" xmlns="http://www.w3.org/2000/svg" version="1.1">
 <metadata>
  <rdf:RDF xmlns:dc="http://purl.org/dc/elements/1.1/" xmlns:cc="http://creativecommons.org/ns#" xmlns:rdf="http://www.w3.org/1999/02/22-rdf-syntax-ns#">
   <cc:Work>
    <dc:type rdf:resource="http://purl.org/dc/dcmitype/StillImage"/>
    <dc:date>2024-01-02T23:16:36.549262</dc:date>
    <dc:format>image/svg+xml</dc:format>
    <dc:creator>
     <cc:Agent>
      <dc:title>Matplotlib v3.8.2, https://matplotlib.org/</dc:title>
     </cc:Agent>
    </dc:creator>
   </cc:Work>
  </rdf:RDF>
 </metadata>
 <defs>
  <style type="text/css">*{stroke-linejoin: round; stroke-linecap: butt}</style>
 </defs>
 <g id="figure_1">
  <g id="patch_1">
   <path d="M 0 367.032 
L 418.645097 367.032 
L 418.645097 -0 
L 0 -0 
z
" style="fill: #ffffff"/>
  </g>
  <g id="axes_1">
   <g id="patch_2">
    <path d="M 313.625297 200.196 
L 313.796649 200.194641 
L 313.967959 200.190563 
L 314.139182 200.183767 
L 314.310275 200.174256 
L 314.481196 200.162032 
L 314.651902 200.147097 
L 314.822349 200.129455 
L 314.992495 200.109112 
L 315.162297 200.086072 
L 315.331712 200.06034 
L 315.500697 200.031924 
L 315.66921 200.00083 
L 315.837209 199.967066 
L 316.004651 199.930642 
L 316.171493 199.891565 
L 316.337695 199.849846 
L 316.503214 199.805495 
L 316.668008 199.758524 
L 316.832037 199.708944 
L 316.995258 199.656768 
L 317.157631 199.602009 
L 317.319114 199.54468 
L 317.479668 199.484797 
L 317.639251 199.422374 
L 317.797824 199.357426 
L 317.955347 199.289971 
L 318.111779 199.220026 
L 318.267082 199.147607 
L 318.421216 199.072733 
L 318.574143 198.995423 
L 318.725824 198.915696 
L 318.876222 198.833573 
L 319.025297 198.749074 
L 319.173013 198.662221 
L 319.319332 198.573035 
L 319.464218 198.481538 
L 319.607634 198.387754 
L 319.749543 198.291707 
L 319.889911 198.19342 
L 320.028703 198.092919 
L 320.165881 197.990228 
L 320.301414 197.885373 
L 320.435266 197.778382 
L 320.567403 197.66928 
L 320.697793 197.558095 
L 320.826402 197.444856 
L 320.953199 197.32959 
L 321.07815 197.212328 
L 321.201226 197.093097 
L 321.322394 196.971929 
L 321.441624 196.848853 
L 321.558887 196.723902 
L 321.674153 196.597105 
L 321.787392 196.468496 
L 321.898577 196.338106 
L 322.007679 196.205969 
L 322.11467 196.072117 
L 322.219525 195.936585 
L 322.322216 195.799406 
L 322.422717 195.660615 
L 322.521004 195.520247 
L 322.617051 195.378337 
L 322.710835 195.234921 
L 322.802332 195.090035 
L 322.891518 194.943716 
L 322.978371 194.796 
L 323.06287 194.646925 
L 323.144993 194.496528 
L 323.22472 194.344846 
L 323.30203 194.191919 
L 323.376903 194.037785 
L 323.449322 193.882482 
L 323.519268 193.72605 
L 323.586723 193.568527 
L 323.651671 193.409955 
L 323.714094 193.250371 
L 323.773977 193.089818 
L 323.831306 192.928334 
L 323.886065 192.765961 
L 323.938241 192.60274 
L 323.987821 192.438712 
L 324.034792 192.273917 
L 324.079143 192.108398 
L 324.120862 191.942197 
L 324.159939 191.775354 
L 324.196363 191.607912 
L 324.230127 191.439913 
L 324.261221 191.2714 
L 324.289637 191.102415 
L 324.315368 190.933 
L 324.338409 190.763198 
L 324.358752 190.593053 
L 324.376394 190.422605 
L 324.391328 190.2519 
L 324.403553 190.080978 
L 324.413064 189.909885 
L 324.41986 189.738662 
L 324.423937 189.567352 
L 324.425297 189.396 
L 324.425297 160.236 
L 324.423937 160.064648 
L 324.41986 159.893338 
L 324.413064 159.722115 
L 324.403553 159.551022 
L 324.391328 159.3801 
L 324.376394 159.209395 
L 324.358752 159.038947 
L 324.338409 158.868802 
L 324.315368 158.699 
L 324.289637 158.529585 
L 324.261221 158.3606 
L 324.230127 158.192087 
L 324.196363 158.024088 
L 324.159939 157.856646 
L 324.120862 157.689803 
L 324.079143 157.523602 
L 324.034792 157.358083 
L 323.987821 157.193288 
L 323.938241 157.02926 
L 323.886065 156.866039 
L 323.831306 156.703666 
L 323.773977 156.542182 
L 323.714094 156.381629 
L 323.651671 156.222045 
L 323.586723 156.063473 
L 323.519268 155.90595 
L 323.449322 155.749518 
L 323.376903 155.594215 
L 323.30203 155.440081 
L 323.22472 155.287154 
L 323.144993 155.135472 
L 323.06287 154.985075 
L 322.978371 154.836 
L 322.891518 154.688284 
L 322.802332 154.541965 
L 322.710835 154.397079 
L 322.617051 154.253663 
L 322.521004 154.111753 
L 322.422717 153.971385 
L 322.322216 153.832594 
L 322.219525 153.695415 
L 322.11467 153.559883 
L 322.007679 153.426031 
L 321.898577 153.293894 
L 321.787392 153.163504 
L 321.674153 153.034895 
L 321.558887 152.908098 
L 321.441624 152.783147 
L 321.322394 152.660071 
L 321.201226 152.538903 
L 321.07815 152.419672 
L 320.953199 152.30241 
L 320.826402 152.187144 
L 320.697793 152.073905 
L 320.567403 151.96272 
L 320.435266 151.853618 
L 320.301414 151.746627 
L 320.165881 151.641772 
L 320.028703 151.539081 
L 319.889911 151.43858 
L 319.749543 151.340293 
L 319.607634 151.244246 
L 319.464218 151.150462 
L 319.319332 151.058965 
L 319.173013 150.969779 
L 319.025297 150.882926 
L 318.876222 150.798427 
L 318.725824 150.716304 
L 318.574143 150.636577 
L 318.421216 150.559267 
L 318.267082 150.484393 
L 318.111779 150.411974 
L 317.955347 150.342029 
L 317.797824 150.274574 
L 317.639251 150.209626 
L 317.479668 150.147203 
L 317.319114 150.08732 
L 317.157631 150.029991 
L 316.995258 149.975232 
L 316.832037 149.923056 
L 316.668008 149.873476 
L 316.503214 149.826505 
L 316.337695 149.782154 
L 316.171493 149.740435 
L 316.004651 149.701358 
L 315.837209 149.664934 
L 315.66921 149.63117 
L 315.500697 149.600076 
L 315.331712 149.57166 
L 315.162297 149.545928 
L 314.992495 149.522888 
L 314.822349 149.502545 
L 314.651902 149.484903 
L 314.481196 149.469968 
L 314.310275 149.457744 
L 314.139182 149.448233 
L 313.967959 149.441437 
L 313.796649 149.437359 
L 313.625297 149.436 
L 308.165297 149.436 
L 307.993944 149.437359 
L 307.822635 149.441437 
L 307.651412 149.448233 
L 307.480319 149.457744 
L 307.309397 149.469968 
L 307.138692 149.484903 
L 306.968244 149.502545 
L 306.798098 149.522888 
L 306.628297 149.545928 
L 306.458882 149.57166 
L 306.289897 149.600076 
L 306.121383 149.63117 
L 305.953385 149.664934 
L 305.785943 149.701358 
L 305.6191 149.740435 
L 305.452899 149.782154 
L 305.28738 149.826505 
L 305.122585 149.873476 
L 304.958557 149.923056 
L 304.795336 149.975232 
L 304.632963 150.029991 
L 304.471479 150.08732 
L 304.310926 150.147203 
L 304.151342 150.209626 
L 303.99277 150.274574 
L 303.835247 150.342029 
L 303.678815 150.411974 
L 303.523512 150.484393 
L 303.369377 150.559267 
L 303.21645 150.636577 
L 303.064769 150.716304 
L 302.914372 150.798427 
L 302.765297 150.882926 
L 302.617581 150.969779 
L 302.471262 151.058965 
L 302.326376 151.150462 
L 302.18296 151.244246 
L 302.04105 151.340293 
L 301.900682 151.43858 
L 301.761891 151.539081 
L 301.624712 151.641772 
L 301.48918 151.746627 
L 301.355328 151.853618 
L 301.223191 151.96272 
L 301.092801 152.073905 
L 300.964192 152.187144 
L 300.837395 152.30241 
L 300.712444 152.419672 
L 300.589368 152.538903 
L 300.4682 152.660071 
L 300.348969 152.783147 
L 300.231706 152.908098 
L 300.116441 153.034895 
L 300.003201 153.163504 
L 299.892017 153.293894 
L 299.782915 153.426031 
L 299.675923 153.559883 
L 299.571069 153.695415 
L 299.468378 153.832594 
L 299.367877 153.971385 
L 299.26959 154.111753 
L 299.173542 154.253663 
L 299.079759 154.397079 
L 298.988262 154.541965 
L 298.899076 154.688284 
L 298.812223 154.836 
L 298.727724 154.985075 
L 298.645601 155.135472 
L 298.565874 155.287154 
L 298.488564 155.440081 
L 298.41369 155.594215 
L 298.341271 155.749518 
L 298.271326 155.90595 
L 298.20387 156.063473 
L 298.138923 156.222045 
L 298.0765 156.381629 
L 298.016617 156.542182 
L 297.959288 156.703666 
L 297.904529 156.866039 
L 297.852353 157.02926 
L 297.802773 157.193288 
L 297.755802 157.358083 
L 297.711451 157.523602 
L 297.669732 157.689803 
L 297.630655 157.856646 
L 297.59423 158.024088 
L 297.560467 158.192087 
L 297.529373 158.3606 
L 297.500957 158.529585 
L 297.475225 158.699 
L 297.452185 158.868802 
L 297.431841 159.038947 
L 297.4142 159.209395 
L 297.399265 159.3801 
L 297.387041 159.551022 
L 297.37753 159.722115 
L 297.370734 159.893338 
L 297.366656 160.064648 
L 297.365297 160.236 
L 297.365297 189.396 
L 297.366656 189.567352 
L 297.370734 189.738662 
L 297.37753 189.909885 
L 297.387041 190.080978 
L 297.399265 190.2519 
L 297.4142 190.422605 
L 297.431841 190.593053 
L 297.452185 190.763198 
L 297.475225 190.933 
L 297.500957 191.102415 
L 297.529373 191.2714 
L 297.560467 191.439913 
L 297.59423 191.607912 
L 297.630655 191.775354 
L 297.669732 191.942197 
L 297.711451 192.108398 
L 297.755802 192.273917 
L 297.802773 192.438712 
L 297.852353 192.60274 
L 297.904529 192.765961 
L 297.959288 192.928334 
L 298.016617 193.089818 
L 298.0765 193.250371 
L 298.138923 193.409955 
L 298.20387 193.568527 
L 298.271326 193.72605 
L 298.341271 193.882482 
L 298.41369 194.037785 
L 298.488564 194.191919 
L 298.565874 194.344846 
L 298.645601 194.496528 
L 298.727724 194.646925 
L 298.812223 194.796 
L 298.899076 194.943716 
L 298.988262 195.090035 
L 299.079759 195.234921 
L 299.173542 195.378337 
L 299.26959 195.520247 
L 299.367877 195.660615 
L 299.468378 195.799406 
L 299.571069 195.936585 
L 299.675923 196.072117 
L 299.782915 196.205969 
L 299.892017 196.338106 
L 300.003201 196.468496 
L 300.116441 196.597105 
L 300.231706 196.723902 
L 300.348969 196.848853 
L 300.4682 196.971929 
L 300.589368 197.093097 
L 300.712444 197.212328 
L 300.837395 197.32959 
L 300.964192 197.444856 
L 301.092801 197.558095 
L 301.223191 197.66928 
L 301.355328 197.778382 
L 301.48918 197.885373 
L 301.624712 197.990228 
L 301.761891 198.092919 
L 301.900682 198.19342 
L 302.04105 198.291707 
L 302.18296 198.387754 
L 302.326376 198.481538 
L 302.471262 198.573035 
L 302.617581 198.662221 
L 302.765297 198.749074 
L 302.914372 198.833573 
L 303.064769 198.915696 
L 303.21645 198.995423 
L 303.369377 199.072733 
L 303.523512 199.147607 
L 303.678815 199.220026 
L 303.835247 199.289971 
L 303.99277 199.357426 
L 304.151342 199.422374 
L 304.310926 199.484797 
L 304.471479 199.54468 
L 304.632963 199.602009 
L 304.795336 199.656768 
L 304.958557 199.708944 
L 305.122585 199.758524 
L 305.28738 199.805495 
L 305.452899 199.849846 
L 305.6191 199.891565 
L 305.785943 199.930642 
L 305.953385 199.967066 
L 306.121383 200.00083 
L 306.289897 200.031924 
L 306.458882 200.06034 
L 306.628297 200.086072 
L 306.798098 200.109112 
L 306.968244 200.129455 
L 307.138692 200.147097 
L 307.309397 200.162032 
L 307.480319 200.174256 
L 307.651412 200.183767 
L 307.822635 200.190563 
L 307.993944 200.194641 
L 308.165297 200.196 
L 313.625297 200.196 
z
" clip-path="url(#pdd55be50bf)" style="fill: none; stroke-dasharray: 1.85,0.8; stroke-dashoffset: 0; stroke: #008000; stroke-width: 0.5; stroke-linecap: round"/>
   </g>
   <g id="patch_3">
    <path d="M 313.625297 307.596 
L 313.796649 307.594641 
L 313.967959 307.590563 
L 314.139182 307.583767 
L 314.310275 307.574256 
L 314.481196 307.562032 
L 314.651902 307.547097 
L 314.822349 307.529455 
L 314.992495 307.509112 
L 315.162297 307.486072 
L 315.331712 307.46034 
L 315.500697 307.431924 
L 315.66921 307.40083 
L 315.837209 307.367066 
L 316.004651 307.330642 
L 316.171493 307.291565 
L 316.337695 307.249846 
L 316.503214 307.205495 
L 316.668008 307.158524 
L 316.832037 307.108944 
L 316.995258 307.056768 
L 317.157631 307.002009 
L 317.319114 306.94468 
L 317.479668 306.884797 
L 317.639251 306.822374 
L 317.797824 306.757426 
L 317.955347 306.689971 
L 318.111779 306.620026 
L 318.267082 306.547607 
L 318.421216 306.472733 
L 318.574143 306.395423 
L 318.725824 306.315696 
L 318.876222 306.233573 
L 319.025297 306.149074 
L 319.173013 306.062221 
L 319.319332 305.973035 
L 319.464218 305.881538 
L 319.607634 305.787754 
L 319.749543 305.691707 
L 319.889911 305.59342 
L 320.028703 305.492919 
L 320.165881 305.390228 
L 320.301414 305.285373 
L 320.435266 305.178382 
L 320.567403 305.06928 
L 320.697793 304.958095 
L 320.826402 304.844856 
L 320.953199 304.72959 
L 321.07815 304.612328 
L 321.201226 304.493097 
L 321.322394 304.371929 
L 321.441624 304.248853 
L 321.558887 304.123902 
L 321.674153 303.997105 
L 321.787392 303.868496 
L 321.898577 303.738106 
L 322.007679 303.605969 
L 322.11467 303.472117 
L 322.219525 303.336585 
L 322.322216 303.199406 
L 322.422717 303.060615 
L 322.521004 302.920247 
L 322.617051 302.778337 
L 322.710835 302.634921 
L 322.802332 302.490035 
L 322.891518 302.343716 
L 322.978371 302.196 
L 323.06287 302.046925 
L 323.144993 301.896528 
L 323.22472 301.744846 
L 323.30203 301.591919 
L 323.376903 301.437785 
L 323.449322 301.282482 
L 323.519268 301.12605 
L 323.586723 300.968527 
L 323.651671 300.809955 
L 323.714094 300.650371 
L 323.773977 300.489818 
L 323.831306 300.328334 
L 323.886065 300.165961 
L 323.938241 300.00274 
L 323.987821 299.838712 
L 324.034792 299.673917 
L 324.079143 299.508398 
L 324.120862 299.342197 
L 324.159939 299.175354 
L 324.196363 299.007912 
L 324.230127 298.839913 
L 324.261221 298.6714 
L 324.289637 298.502415 
L 324.315368 298.333 
L 324.338409 298.163198 
L 324.358752 297.993053 
L 324.376394 297.822605 
L 324.391328 297.6519 
L 324.403553 297.480978 
L 324.413064 297.309885 
L 324.41986 297.138662 
L 324.423937 296.967352 
L 324.425297 296.796 
L 324.425297 267.636 
L 324.423937 267.464648 
L 324.41986 267.293338 
L 324.413064 267.122115 
L 324.403553 266.951022 
L 324.391328 266.7801 
L 324.376394 266.609395 
L 324.358752 266.438947 
L 324.338409 266.268802 
L 324.315368 266.099 
L 324.289637 265.929585 
L 324.261221 265.7606 
L 324.230127 265.592087 
L 324.196363 265.424088 
L 324.159939 265.256646 
L 324.120862 265.089803 
L 324.079143 264.923602 
L 324.034792 264.758083 
L 323.987821 264.593288 
L 323.938241 264.42926 
L 323.886065 264.266039 
L 323.831306 264.103666 
L 323.773977 263.942182 
L 323.714094 263.781629 
L 323.651671 263.622045 
L 323.586723 263.463473 
L 323.519268 263.30595 
L 323.449322 263.149518 
L 323.376903 262.994215 
L 323.30203 262.840081 
L 323.22472 262.687154 
L 323.144993 262.535472 
L 323.06287 262.385075 
L 322.978371 262.236 
L 322.891518 262.088284 
L 322.802332 261.941965 
L 322.710835 261.797079 
L 322.617051 261.653663 
L 322.521004 261.511753 
L 322.422717 261.371385 
L 322.322216 261.232594 
L 322.219525 261.095415 
L 322.11467 260.959883 
L 322.007679 260.826031 
L 321.898577 260.693894 
L 321.787392 260.563504 
L 321.674153 260.434895 
L 321.558887 260.308098 
L 321.441624 260.183147 
L 321.322394 260.060071 
L 321.201226 259.938903 
L 321.07815 259.819672 
L 320.953199 259.70241 
L 320.826402 259.587144 
L 320.697793 259.473905 
L 320.567403 259.36272 
L 320.435266 259.253618 
L 320.301414 259.146627 
L 320.165881 259.041772 
L 320.028703 258.939081 
L 319.889911 258.83858 
L 319.749543 258.740293 
L 319.607634 258.644246 
L 319.464218 258.550462 
L 319.319332 258.458965 
L 319.173013 258.369779 
L 319.025297 258.282926 
L 318.876222 258.198427 
L 318.725824 258.116304 
L 318.574143 258.036577 
L 318.421216 257.959267 
L 318.267082 257.884393 
L 318.111779 257.811974 
L 317.955347 257.742029 
L 317.797824 257.674574 
L 317.639251 257.609626 
L 317.479668 257.547203 
L 317.319114 257.48732 
L 317.157631 257.429991 
L 316.995258 257.375232 
L 316.832037 257.323056 
L 316.668008 257.273476 
L 316.503214 257.226505 
L 316.337695 257.182154 
L 316.171493 257.140435 
L 316.004651 257.101358 
L 315.837209 257.064934 
L 315.66921 257.03117 
L 315.500697 257.000076 
L 315.331712 256.97166 
L 315.162297 256.945928 
L 314.992495 256.922888 
L 314.822349 256.902545 
L 314.651902 256.884903 
L 314.481196 256.869968 
L 314.310275 256.857744 
L 314.139182 256.848233 
L 313.967959 256.841437 
L 313.796649 256.837359 
L 313.625297 256.836 
L 308.165297 256.836 
L 307.993944 256.837359 
L 307.822635 256.841437 
L 307.651412 256.848233 
L 307.480319 256.857744 
L 307.309397 256.869968 
L 307.138692 256.884903 
L 306.968244 256.902545 
L 306.798098 256.922888 
L 306.628297 256.945928 
L 306.458882 256.97166 
L 306.289897 257.000076 
L 306.121383 257.03117 
L 305.953385 257.064934 
L 305.785943 257.101358 
L 305.6191 257.140435 
L 305.452899 257.182154 
L 305.28738 257.226505 
L 305.122585 257.273476 
L 304.958557 257.323056 
L 304.795336 257.375232 
L 304.632963 257.429991 
L 304.471479 257.48732 
L 304.310926 257.547203 
L 304.151342 257.609626 
L 303.99277 257.674574 
L 303.835247 257.742029 
L 303.678815 257.811974 
L 303.523512 257.884393 
L 303.369377 257.959267 
L 303.21645 258.036577 
L 303.064769 258.116304 
L 302.914372 258.198427 
L 302.765297 258.282926 
L 302.617581 258.369779 
L 302.471262 258.458965 
L 302.326376 258.550462 
L 302.18296 258.644246 
L 302.04105 258.740293 
L 301.900682 258.83858 
L 301.761891 258.939081 
L 301.624712 259.041772 
L 301.48918 259.146627 
L 301.355328 259.253618 
L 301.223191 259.36272 
L 301.092801 259.473905 
L 300.964192 259.587144 
L 300.837395 259.70241 
L 300.712444 259.819672 
L 300.589368 259.938903 
L 300.4682 260.060071 
L 300.348969 260.183147 
L 300.231706 260.308098 
L 300.116441 260.434895 
L 300.003201 260.563504 
L 299.892017 260.693894 
L 299.782915 260.826031 
L 299.675923 260.959883 
L 299.571069 261.095415 
L 299.468378 261.232594 
L 299.367877 261.371385 
L 299.26959 261.511753 
L 299.173542 261.653663 
L 299.079759 261.797079 
L 298.988262 261.941965 
L 298.899076 262.088284 
L 298.812223 262.236 
L 298.727724 262.385075 
L 298.645601 262.535472 
L 298.565874 262.687154 
L 298.488564 262.840081 
L 298.41369 262.994215 
L 298.341271 263.149518 
L 298.271326 263.30595 
L 298.20387 263.463473 
L 298.138923 263.622045 
L 298.0765 263.781629 
L 298.016617 263.942182 
L 297.959288 264.103666 
L 297.904529 264.266039 
L 297.852353 264.42926 
L 297.802773 264.593288 
L 297.755802 264.758083 
L 297.711451 264.923602 
L 297.669732 265.089803 
L 297.630655 265.256646 
L 297.59423 265.424088 
L 297.560467 265.592087 
L 297.529373 265.7606 
L 297.500957 265.929585 
L 297.475225 266.099 
L 297.452185 266.268802 
L 297.431841 266.438947 
L 297.4142 266.609395 
L 297.399265 266.7801 
L 297.387041 266.951022 
L 297.37753 267.122115 
L 297.370734 267.293338 
L 297.366656 267.464648 
L 297.365297 267.636 
L 297.365297 296.796 
L 297.366656 296.967352 
L 297.370734 297.138662 
L 297.37753 297.309885 
L 297.387041 297.480978 
L 297.399265 297.6519 
L 297.4142 297.822605 
L 297.431841 297.993053 
L 297.452185 298.163198 
L 297.475225 298.333 
L 297.500957 298.502415 
L 297.529373 298.6714 
L 297.560467 298.839913 
L 297.59423 299.007912 
L 297.630655 299.175354 
L 297.669732 299.342197 
L 297.711451 299.508398 
L 297.755802 299.673917 
L 297.802773 299.838712 
L 297.852353 300.00274 
L 297.904529 300.165961 
L 297.959288 300.328334 
L 298.016617 300.489818 
L 298.0765 300.650371 
L 298.138923 300.809955 
L 298.20387 300.968527 
L 298.271326 301.12605 
L 298.341271 301.282482 
L 298.41369 301.437785 
L 298.488564 301.591919 
L 298.565874 301.744846 
L 298.645601 301.896528 
L 298.727724 302.046925 
L 298.812223 302.196 
L 298.899076 302.343716 
L 298.988262 302.490035 
L 299.079759 302.634921 
L 299.173542 302.778337 
L 299.26959 302.920247 
L 299.367877 303.060615 
L 299.468378 303.199406 
L 299.571069 303.336585 
L 299.675923 303.472117 
L 299.782915 303.605969 
L 299.892017 303.738106 
L 300.003201 303.868496 
L 300.116441 303.997105 
L 300.231706 304.123902 
L 300.348969 304.248853 
L 300.4682 304.371929 
L 300.589368 304.493097 
L 300.712444 304.612328 
L 300.837395 304.72959 
L 300.964192 304.844856 
L 301.092801 304.958095 
L 301.223191 305.06928 
L 301.355328 305.178382 
L 301.48918 305.285373 
L 301.624712 305.390228 
L 301.761891 305.492919 
L 301.900682 305.59342 
L 302.04105 305.691707 
L 302.18296 305.787754 
L 302.326376 305.881538 
L 302.471262 305.973035 
L 302.617581 306.062221 
L 302.765297 306.149074 
L 302.914372 306.233573 
L 303.064769 306.315696 
L 303.21645 306.395423 
L 303.369377 306.472733 
L 303.523512 306.547607 
L 303.678815 306.620026 
L 303.835247 306.689971 
L 303.99277 306.757426 
L 304.151342 306.822374 
L 304.310926 306.884797 
L 304.471479 306.94468 
L 304.632963 307.002009 
L 304.795336 307.056768 
L 304.958557 307.108944 
L 305.122585 307.158524 
L 305.28738 307.205495 
L 305.452899 307.249846 
L 305.6191 307.291565 
L 305.785943 307.330642 
L 305.953385 307.367066 
L 306.121383 307.40083 
L 306.289897 307.431924 
L 306.458882 307.46034 
L 306.628297 307.486072 
L 306.798098 307.509112 
L 306.968244 307.529455 
L 307.138692 307.547097 
L 307.309397 307.562032 
L 307.480319 307.574256 
L 307.651412 307.583767 
L 307.822635 307.590563 
L 307.993944 307.594641 
L 308.165297 307.596 
L 313.625297 307.596 
z
" clip-path="url(#pdd55be50bf)" style="fill: none; stroke-dasharray: 1.85,0.8; stroke-dashoffset: 0; stroke: #008000; stroke-width: 0.5; stroke-linecap: round"/>
   </g>
   <g id="patch_4">
    <path d="M 266.825297 278.916 
L 266.996649 278.914641 
L 267.167959 278.910563 
L 267.339182 278.903767 
L 267.510275 278.894256 
L 267.681196 278.882032 
L 267.851902 278.867097 
L 268.022349 278.849455 
L 268.192495 278.829112 
L 268.362297 278.806072 
L 268.531712 278.78034 
L 268.700697 278.751924 
L 268.86921 278.72083 
L 269.037209 278.687066 
L 269.204651 278.650642 
L 269.371493 278.611565 
L 269.537695 278.569846 
L 269.703214 278.525495 
L 269.868008 278.478524 
L 270.032037 278.428944 
L 270.195258 278.376768 
L 270.357631 278.322009 
L 270.519114 278.26468 
L 270.679668 278.204797 
L 270.839251 278.142374 
L 270.997824 278.077426 
L 271.155347 278.009971 
L 271.311779 277.940026 
L 271.467082 277.867607 
L 271.621216 277.792733 
L 271.774143 277.715423 
L 271.925824 277.635696 
L 272.076222 277.553573 
L 272.225297 277.469074 
L 272.373013 277.382221 
L 272.519332 277.293035 
L 272.664218 277.201538 
L 272.807634 277.107754 
L 272.949543 277.011707 
L 273.089911 276.91342 
L 273.228703 276.812919 
L 273.365881 276.710228 
L 273.501414 276.605373 
L 273.635266 276.498382 
L 273.767403 276.38928 
L 273.897793 276.278095 
L 274.026402 276.164856 
L 274.153199 276.04959 
L 274.27815 275.932328 
L 274.401226 275.813097 
L 274.522394 275.691929 
L 274.641624 275.568853 
L 274.758887 275.443902 
L 274.874153 275.317105 
L 274.987392 275.188496 
L 275.098577 275.058106 
L 275.207679 274.925969 
L 275.31467 274.792117 
L 275.419525 274.656585 
L 275.522216 274.519406 
L 275.622717 274.380615 
L 275.721004 274.240247 
L 275.817051 274.098337 
L 275.910835 273.954921 
L 276.002332 273.810035 
L 276.091518 273.663716 
L 276.178371 273.516 
L 276.26287 273.366925 
L 276.344993 273.216528 
L 276.42472 273.064846 
L 276.50203 272.911919 
L 276.576903 272.757785 
L 276.649322 272.602482 
L 276.719268 272.44605 
L 276.786723 272.288527 
L 276.851671 272.129955 
L 276.914094 271.970371 
L 276.973977 271.809818 
L 277.031306 271.648334 
L 277.086065 271.485961 
L 277.138241 271.32274 
L 277.187821 271.158712 
L 277.234792 270.993917 
L 277.279143 270.828398 
L 277.320862 270.662197 
L 277.359939 270.495354 
L 277.396363 270.327912 
L 277.430127 270.159913 
L 277.461221 269.9914 
L 277.489637 269.822415 
L 277.515368 269.653 
L 277.538409 269.483198 
L 277.558752 269.313053 
L 277.576394 269.142605 
L 277.591328 268.9719 
L 277.603553 268.800978 
L 277.613064 268.629885 
L 277.61986 268.458662 
L 277.623937 268.287352 
L 277.625297 268.116 
L 277.625297 188.916 
L 277.623937 188.744648 
L 277.61986 188.573338 
L 277.613064 188.402115 
L 277.603553 188.231022 
L 277.591328 188.0601 
L 277.576394 187.889395 
L 277.558752 187.718947 
L 277.538409 187.548802 
L 277.515368 187.379 
L 277.489637 187.209585 
L 277.461221 187.0406 
L 277.430127 186.872087 
L 277.396363 186.704088 
L 277.359939 186.536646 
L 277.320862 186.369803 
L 277.279143 186.203602 
L 277.234792 186.038083 
L 277.187821 185.873288 
L 277.138241 185.70926 
L 277.086065 185.546039 
L 277.031306 185.383666 
L 276.973977 185.222182 
L 276.914094 185.061629 
L 276.851671 184.902045 
L 276.786723 184.743473 
L 276.719268 184.58595 
L 276.649322 184.429518 
L 276.576903 184.274215 
L 276.50203 184.120081 
L 276.42472 183.967154 
L 276.344993 183.815472 
L 276.26287 183.665075 
L 276.178371 183.516 
L 276.091518 183.368284 
L 276.002332 183.221965 
L 275.910835 183.077079 
L 275.817051 182.933663 
L 275.721004 182.791753 
L 275.622717 182.651385 
L 275.522216 182.512594 
L 275.419525 182.375415 
L 275.31467 182.239883 
L 275.207679 182.106031 
L 275.098577 181.973894 
L 274.987392 181.843504 
L 274.874153 181.714895 
L 274.758887 181.588098 
L 274.641624 181.463147 
L 274.522394 181.340071 
L 274.401226 181.218903 
L 274.27815 181.099672 
L 274.153199 180.98241 
L 274.026402 180.867144 
L 273.897793 180.753905 
L 273.767403 180.64272 
L 273.635266 180.533618 
L 273.501414 180.426627 
L 273.365881 180.321772 
L 273.228703 180.219081 
L 273.089911 180.11858 
L 272.949543 180.020293 
L 272.807634 179.924246 
L 272.664218 179.830462 
L 272.519332 179.738965 
L 272.373013 179.649779 
L 272.225297 179.562926 
L 272.076222 179.478427 
L 271.925824 179.396304 
L 271.774143 179.316577 
L 271.621216 179.239267 
L 271.467082 179.164393 
L 271.311779 179.091974 
L 271.155347 179.022029 
L 270.997824 178.954574 
L 270.839251 178.889626 
L 270.679668 178.827203 
L 270.519114 178.76732 
L 270.357631 178.709991 
L 270.195258 178.655232 
L 270.032037 178.603056 
L 269.868008 178.553476 
L 269.703214 178.506505 
L 269.537695 178.462154 
L 269.371493 178.420435 
L 269.204651 178.381358 
L 269.037209 178.344934 
L 268.86921 178.31117 
L 268.700697 178.280076 
L 268.531712 178.25166 
L 268.362297 178.225928 
L 268.192495 178.202888 
L 268.022349 178.182545 
L 267.851902 178.164903 
L 267.681196 178.149968 
L 267.510275 178.137744 
L 267.339182 178.128233 
L 267.167959 178.121437 
L 266.996649 178.117359 
L 266.825297 178.116 
L 199.529297 178.116 
L 199.357944 178.117359 
L 199.186635 178.121437 
L 199.015412 178.128233 
L 198.844319 178.137744 
L 198.673397 178.149968 
L 198.502692 178.164903 
L 198.332244 178.182545 
L 198.162098 178.202888 
L 197.992297 178.225928 
L 197.822882 178.25166 
L 197.653897 178.280076 
L 197.485383 178.31117 
L 197.317385 178.344934 
L 197.149943 178.381358 
L 196.9831 178.420435 
L 196.816899 178.462154 
L 196.65138 178.506505 
L 196.486585 178.553476 
L 196.322557 178.603056 
L 196.159336 178.655232 
L 195.996963 178.709991 
L 195.835479 178.76732 
L 195.674926 178.827203 
L 195.515342 178.889626 
L 195.35677 178.954574 
L 195.199247 179.022029 
L 195.042815 179.091974 
L 194.887512 179.164393 
L 194.733377 179.239267 
L 194.58045 179.316577 
L 194.428769 179.396304 
L 194.278372 179.478427 
L 194.129297 179.562926 
L 193.981581 179.649779 
L 193.835262 179.738965 
L 193.690376 179.830462 
L 193.54696 179.924246 
L 193.40505 180.020293 
L 193.264682 180.11858 
L 193.125891 180.219081 
L 192.988712 180.321772 
L 192.85318 180.426627 
L 192.719328 180.533618 
L 192.587191 180.64272 
L 192.456801 180.753905 
L 192.328192 180.867144 
L 192.201395 180.98241 
L 192.076444 181.099672 
L 191.953368 181.218903 
L 191.8322 181.340071 
L 191.712969 181.463147 
L 191.595706 181.588098 
L 191.480441 181.714895 
L 191.367201 181.843504 
L 191.256017 181.973894 
L 191.146915 182.106031 
L 191.039923 182.239883 
L 190.935069 182.375415 
L 190.832378 182.512594 
L 190.731877 182.651385 
L 190.63359 182.791753 
L 190.537542 182.933663 
L 190.443759 183.077079 
L 190.352262 183.221965 
L 190.263076 183.368284 
L 190.176223 183.516 
L 190.091724 183.665075 
L 190.009601 183.815472 
L 189.929874 183.967154 
L 189.852564 184.120081 
L 189.77769 184.274215 
L 189.705271 184.429518 
L 189.635326 184.58595 
L 189.56787 184.743473 
L 189.502923 184.902045 
L 189.4405 185.061629 
L 189.380617 185.222182 
L 189.323288 185.383666 
L 189.268529 185.546039 
L 189.216353 185.70926 
L 189.166773 185.873288 
L 189.119802 186.038083 
L 189.075451 186.203602 
L 189.033732 186.369803 
L 188.994655 186.536646 
L 188.95823 186.704088 
L 188.924467 186.872087 
L 188.893373 187.0406 
L 188.864957 187.209585 
L 188.839225 187.379 
L 188.816185 187.548802 
L 188.795841 187.718947 
L 188.7782 187.889395 
L 188.763265 188.0601 
L 188.751041 188.231022 
L 188.74153 188.402115 
L 188.734734 188.573338 
L 188.730656 188.744648 
L 188.729297 188.916 
L 188.729297 268.116 
L 188.730656 268.287352 
L 188.734734 268.458662 
L 188.74153 268.629885 
L 188.751041 268.800978 
L 188.763265 268.9719 
L 188.7782 269.142605 
L 188.795841 269.313053 
L 188.816185 269.483198 
L 188.839225 269.653 
L 188.864957 269.822415 
L 188.893373 269.9914 
L 188.924467 270.159913 
L 188.95823 270.327912 
L 188.994655 270.495354 
L 189.033732 270.662197 
L 189.075451 270.828398 
L 189.119802 270.993917 
L 189.166773 271.158712 
L 189.216353 271.32274 
L 189.268529 271.485961 
L 189.323288 271.648334 
L 189.380617 271.809818 
L 189.4405 271.970371 
L 189.502923 272.129955 
L 189.56787 272.288527 
L 189.635326 272.44605 
L 189.705271 272.602482 
L 189.77769 272.757785 
L 189.852564 272.911919 
L 189.929874 273.064846 
L 190.009601 273.216528 
L 190.091724 273.366925 
L 190.176223 273.516 
L 190.263076 273.663716 
L 190.352262 273.810035 
L 190.443759 273.954921 
L 190.537542 274.098337 
L 190.63359 274.240247 
L 190.731877 274.380615 
L 190.832378 274.519406 
L 190.935069 274.656585 
L 191.039923 274.792117 
L 191.146915 274.925969 
L 191.256017 275.058106 
L 191.367201 275.188496 
L 191.480441 275.317105 
L 191.595706 275.443902 
L 191.712969 275.568853 
L 191.8322 275.691929 
L 191.953368 275.813097 
L 192.076444 275.932328 
L 192.201395 276.04959 
L 192.328192 276.164856 
L 192.456801 276.278095 
L 192.587191 276.38928 
L 192.719328 276.498382 
L 192.85318 276.605373 
L 192.988712 276.710228 
L 193.125891 276.812919 
L 193.264682 276.91342 
L 193.40505 277.011707 
L 193.54696 277.107754 
L 193.690376 277.201538 
L 193.835262 277.293035 
L 193.981581 277.382221 
L 194.129297 277.469074 
L 194.278372 277.553573 
L 194.428769 277.635696 
L 194.58045 277.715423 
L 194.733377 277.792733 
L 194.887512 277.867607 
L 195.042815 277.940026 
L 195.199247 278.009971 
L 195.35677 278.077426 
L 195.515342 278.142374 
L 195.674926 278.204797 
L 195.835479 278.26468 
L 195.996963 278.322009 
L 196.159336 278.376768 
L 196.322557 278.428944 
L 196.486585 278.478524 
L 196.65138 278.525495 
L 196.816899 278.569846 
L 196.9831 278.611565 
L 197.149943 278.650642 
L 197.317385 278.687066 
L 197.485383 278.72083 
L 197.653897 278.751924 
L 197.822882 278.78034 
L 197.992297 278.806072 
L 198.162098 278.829112 
L 198.332244 278.849455 
L 198.502692 278.867097 
L 198.673397 278.882032 
L 198.844319 278.894256 
L 199.015412 278.903767 
L 199.186635 278.910563 
L 199.357944 278.914641 
L 199.529297 278.916 
L 266.825297 278.916 
z
" clip-path="url(#pdd55be50bf)" style="fill: none; stroke-dasharray: 1.85,0.8; stroke-dashoffset: 0; stroke: #ff0000; stroke-width: 0.5; stroke-linecap: round"/>
   </g>
   <g id="patch_5">
    <path d="M 248.765297 170.916 
L 248.936649 170.914641 
L 249.107959 170.910563 
L 249.279182 170.903767 
L 249.450275 170.894256 
L 249.621196 170.882032 
L 249.791902 170.867097 
L 249.962349 170.849455 
L 250.132495 170.829112 
L 250.302297 170.806072 
L 250.471712 170.78034 
L 250.640697 170.751924 
L 250.80921 170.72083 
L 250.977209 170.687066 
L 251.144651 170.650642 
L 251.311493 170.611565 
L 251.477695 170.569846 
L 251.643214 170.525495 
L 251.808008 170.478524 
L 251.972037 170.428944 
L 252.135258 170.376768 
L 252.297631 170.322009 
L 252.459114 170.26468 
L 252.619668 170.204797 
L 252.779251 170.142374 
L 252.937824 170.077426 
L 253.095347 170.009971 
L 253.251779 169.940026 
L 253.407082 169.867607 
L 253.561216 169.792733 
L 253.714143 169.715423 
L 253.865824 169.635696 
L 254.016222 169.553573 
L 254.165297 169.469074 
L 254.313013 169.382221 
L 254.459332 169.293035 
L 254.604218 169.201538 
L 254.747634 169.107754 
L 254.889543 169.011707 
L 255.029911 168.91342 
L 255.168703 168.812919 
L 255.305881 168.710228 
L 255.441414 168.605373 
L 255.575266 168.498382 
L 255.707403 168.38928 
L 255.837793 168.278095 
L 255.966402 168.164856 
L 256.093199 168.04959 
L 256.21815 167.932328 
L 256.341226 167.813097 
L 256.462394 167.691929 
L 256.581624 167.568853 
L 256.698887 167.443902 
L 256.814153 167.317105 
L 256.927392 167.188496 
L 257.038577 167.058106 
L 257.147679 166.925969 
L 257.25467 166.792117 
L 257.359525 166.656585 
L 257.462216 166.519406 
L 257.562717 166.380615 
L 257.661004 166.240247 
L 257.757051 166.098337 
L 257.850835 165.954921 
L 257.942332 165.810035 
L 258.031518 165.663716 
L 258.118371 165.516 
L 258.20287 165.366925 
L 258.284993 165.216528 
L 258.36472 165.064846 
L 258.44203 164.911919 
L 258.516903 164.757785 
L 258.589322 164.602482 
L 258.659268 164.44605 
L 258.726723 164.288527 
L 258.791671 164.129955 
L 258.854094 163.970371 
L 258.913977 163.809818 
L 258.971306 163.648334 
L 259.026065 163.485961 
L 259.078241 163.32274 
L 259.127821 163.158712 
L 259.174792 162.993917 
L 259.219143 162.828398 
L 259.260862 162.662197 
L 259.299939 162.495354 
L 259.336363 162.327912 
L 259.370127 162.159913 
L 259.401221 161.9914 
L 259.429637 161.822415 
L 259.455368 161.653 
L 259.478409 161.483198 
L 259.498752 161.313053 
L 259.516394 161.142605 
L 259.531328 160.9719 
L 259.543553 160.800978 
L 259.553064 160.629885 
L 259.55986 160.458662 
L 259.563937 160.287352 
L 259.565297 160.116 
L 259.565297 48.756 
L 259.563937 48.584648 
L 259.55986 48.413338 
L 259.553064 48.242115 
L 259.543553 48.071022 
L 259.531328 47.9001 
L 259.516394 47.729395 
L 259.498752 47.558947 
L 259.478409 47.388802 
L 259.455368 47.219 
L 259.429637 47.049585 
L 259.401221 46.8806 
L 259.370127 46.712087 
L 259.336363 46.544088 
L 259.299939 46.376646 
L 259.260862 46.209803 
L 259.219143 46.043602 
L 259.174792 45.878083 
L 259.127821 45.713288 
L 259.078241 45.54926 
L 259.026065 45.386039 
L 258.971306 45.223666 
L 258.913977 45.062182 
L 258.854094 44.901629 
L 258.791671 44.742045 
L 258.726723 44.583473 
L 258.659268 44.42595 
L 258.589322 44.269518 
L 258.516903 44.114215 
L 258.44203 43.960081 
L 258.36472 43.807154 
L 258.284993 43.655472 
L 258.20287 43.505075 
L 258.118371 43.356 
L 258.031518 43.208284 
L 257.942332 43.061965 
L 257.850835 42.917079 
L 257.757051 42.773663 
L 257.661004 42.631753 
L 257.562717 42.491385 
L 257.462216 42.352594 
L 257.359525 42.215415 
L 257.25467 42.079883 
L 257.147679 41.946031 
L 257.038577 41.813894 
L 256.927392 41.683504 
L 256.814153 41.554895 
L 256.698887 41.428098 
L 256.581624 41.303147 
L 256.462394 41.180071 
L 256.341226 41.058903 
L 256.21815 40.939672 
L 256.093199 40.82241 
L 255.966402 40.707144 
L 255.837793 40.593905 
L 255.707403 40.48272 
L 255.575266 40.373618 
L 255.441414 40.266627 
L 255.305881 40.161772 
L 255.168703 40.059081 
L 255.029911 39.95858 
L 254.889543 39.860293 
L 254.747634 39.764246 
L 254.604218 39.670462 
L 254.459332 39.578965 
L 254.313013 39.489779 
L 254.165297 39.402926 
L 254.016222 39.318427 
L 253.865824 39.236304 
L 253.714143 39.156577 
L 253.561216 39.079267 
L 253.407082 39.004393 
L 253.251779 38.931974 
L 253.095347 38.862029 
L 252.937824 38.794574 
L 252.779251 38.729626 
L 252.619668 38.667203 
L 252.459114 38.60732 
L 252.297631 38.549991 
L 252.135258 38.495232 
L 251.972037 38.443056 
L 251.808008 38.393476 
L 251.643214 38.346505 
L 251.477695 38.302154 
L 251.311493 38.260435 
L 251.144651 38.221358 
L 250.977209 38.184934 
L 250.80921 38.15117 
L 250.640697 38.120076 
L 250.471712 38.09166 
L 250.302297 38.065928 
L 250.132495 38.042888 
L 249.962349 38.022545 
L 249.791902 38.004903 
L 249.621196 37.989968 
L 249.450275 37.977744 
L 249.279182 37.968233 
L 249.107959 37.961437 
L 248.936649 37.957359 
L 248.765297 37.956 
L 134.729297 37.956 
L 134.557944 37.957359 
L 134.386635 37.961437 
L 134.215412 37.968233 
L 134.044319 37.977744 
L 133.873397 37.989968 
L 133.702692 38.004903 
L 133.532244 38.022545 
L 133.362098 38.042888 
L 133.192297 38.065928 
L 133.022882 38.09166 
L 132.853897 38.120076 
L 132.685383 38.15117 
L 132.517385 38.184934 
L 132.349943 38.221358 
L 132.1831 38.260435 
L 132.016899 38.302154 
L 131.85138 38.346505 
L 131.686585 38.393476 
L 131.522557 38.443056 
L 131.359336 38.495232 
L 131.196963 38.549991 
L 131.035479 38.60732 
L 130.874926 38.667203 
L 130.715342 38.729626 
L 130.55677 38.794574 
L 130.399247 38.862029 
L 130.242815 38.931974 
L 130.087512 39.004393 
L 129.933377 39.079267 
L 129.78045 39.156577 
L 129.628769 39.236304 
L 129.478372 39.318427 
L 129.329297 39.402926 
L 129.181581 39.489779 
L 129.035262 39.578965 
L 128.890376 39.670462 
L 128.74696 39.764246 
L 128.60505 39.860293 
L 128.464682 39.95858 
L 128.325891 40.059081 
L 128.188712 40.161772 
L 128.05318 40.266627 
L 127.919328 40.373618 
L 127.787191 40.48272 
L 127.656801 40.593905 
L 127.528192 40.707144 
L 127.401395 40.82241 
L 127.276444 40.939672 
L 127.153368 41.058903 
L 127.0322 41.180071 
L 126.912969 41.303147 
L 126.795706 41.428098 
L 126.680441 41.554895 
L 126.567201 41.683504 
L 126.456017 41.813894 
L 126.346915 41.946031 
L 126.239923 42.079883 
L 126.135069 42.215415 
L 126.032378 42.352594 
L 125.931877 42.491385 
L 125.83359 42.631753 
L 125.737542 42.773663 
L 125.643759 42.917079 
L 125.552262 43.061965 
L 125.463076 43.208284 
L 125.376223 43.356 
L 125.291724 43.505075 
L 125.209601 43.655472 
L 125.129874 43.807154 
L 125.052564 43.960081 
L 124.97769 44.114215 
L 124.905271 44.269518 
L 124.835326 44.42595 
L 124.76787 44.583473 
L 124.702923 44.742045 
L 124.6405 44.901629 
L 124.580617 45.062182 
L 124.523288 45.223666 
L 124.468529 45.386039 
L 124.416353 45.54926 
L 124.366773 45.713288 
L 124.319802 45.878083 
L 124.275451 46.043602 
L 124.233732 46.209803 
L 124.194655 46.376646 
L 124.15823 46.544088 
L 124.124467 46.712087 
L 124.093373 46.8806 
L 124.064957 47.049585 
L 124.039225 47.219 
L 124.016185 47.388802 
L 123.995841 47.558947 
L 123.9782 47.729395 
L 123.963265 47.9001 
L 123.951041 48.071022 
L 123.94153 48.242115 
L 123.934734 48.413338 
L 123.930656 48.584648 
L 123.929297 48.756 
L 123.929297 160.116 
L 123.930656 160.287352 
L 123.934734 160.458662 
L 123.94153 160.629885 
L 123.951041 160.800978 
L 123.963265 160.9719 
L 123.9782 161.142605 
L 123.995841 161.313053 
L 124.016185 161.483198 
L 124.039225 161.653 
L 124.064957 161.822415 
L 124.093373 161.9914 
L 124.124467 162.159913 
L 124.15823 162.327912 
L 124.194655 162.495354 
L 124.233732 162.662197 
L 124.275451 162.828398 
L 124.319802 162.993917 
L 124.366773 163.158712 
L 124.416353 163.32274 
L 124.468529 163.485961 
L 124.523288 163.648334 
L 124.580617 163.809818 
L 124.6405 163.970371 
L 124.702923 164.129955 
L 124.76787 164.288527 
L 124.835326 164.44605 
L 124.905271 164.602482 
L 124.97769 164.757785 
L 125.052564 164.911919 
L 125.129874 165.064846 
L 125.209601 165.216528 
L 125.291724 165.366925 
L 125.376223 165.516 
L 125.463076 165.663716 
L 125.552262 165.810035 
L 125.643759 165.954921 
L 125.737542 166.098337 
L 125.83359 166.240247 
L 125.931877 166.380615 
L 126.032378 166.519406 
L 126.135069 166.656585 
L 126.239923 166.792117 
L 126.346915 166.925969 
L 126.456017 167.058106 
L 126.567201 167.188496 
L 126.680441 167.317105 
L 126.795706 167.443902 
L 126.912969 167.568853 
L 127.0322 167.691929 
L 127.153368 167.813097 
L 127.276444 167.932328 
L 127.401395 168.04959 
L 127.528192 168.164856 
L 127.656801 168.278095 
L 127.787191 168.38928 
L 127.919328 168.498382 
L 128.05318 168.605373 
L 128.188712 168.710228 
L 128.325891 168.812919 
L 128.464682 168.91342 
L 128.60505 169.011707 
L 128.74696 169.107754 
L 128.890376 169.201538 
L 129.035262 169.293035 
L 129.181581 169.382221 
L 129.329297 169.469074 
L 129.478372 169.553573 
L 129.628769 169.635696 
L 129.78045 169.715423 
L 129.933377 169.792733 
L 130.087512 169.867607 
L 130.242815 169.940026 
L 130.399247 170.009971 
L 130.55677 170.077426 
L 130.715342 170.142374 
L 130.874926 170.204797 
L 131.035479 170.26468 
L 131.196963 170.322009 
L 131.359336 170.376768 
L 131.522557 170.428944 
L 131.686585 170.478524 
L 131.85138 170.525495 
L 132.016899 170.569846 
L 132.1831 170.611565 
L 132.349943 170.650642 
L 132.517385 170.687066 
L 132.685383 170.72083 
L 132.853897 170.751924 
L 133.022882 170.78034 
L 133.192297 170.806072 
L 133.362098 170.829112 
L 133.532244 170.849455 
L 133.702692 170.867097 
L 133.873397 170.882032 
L 134.044319 170.894256 
L 134.215412 170.903767 
L 134.386635 170.910563 
L 134.557944 170.914641 
L 134.729297 170.916 
z
" clip-path="url(#pdd55be50bf)" style="fill: #ad8150; stroke-dasharray: 5.55,2.4; stroke-dashoffset: 0; stroke: #a52a2a; stroke-width: 1.5; stroke-linecap: round"/>
   </g>
   <g id="patch_6">
    <path d="M 239.765297 329.676 
L 239.936649 329.674641 
L 240.107959 329.670563 
L 240.279182 329.663767 
L 240.450275 329.654256 
L 240.621196 329.642032 
L 240.791902 329.627097 
L 240.962349 329.609455 
L 241.132495 329.589112 
L 241.302297 329.566072 
L 241.471712 329.54034 
L 241.640697 329.511924 
L 241.80921 329.48083 
L 241.977209 329.447066 
L 242.144651 329.410642 
L 242.311493 329.371565 
L 242.477695 329.329846 
L 242.643214 329.285495 
L 242.808008 329.238524 
L 242.972037 329.188944 
L 243.135258 329.136768 
L 243.297631 329.082009 
L 243.459114 329.02468 
L 243.619668 328.964797 
L 243.779251 328.902374 
L 243.937824 328.837426 
L 244.095347 328.769971 
L 244.251779 328.700026 
L 244.407082 328.627607 
L 244.561216 328.552733 
L 244.714143 328.475423 
L 244.865824 328.395696 
L 245.016222 328.313573 
L 245.165297 328.229074 
L 245.313013 328.142221 
L 245.459332 328.053035 
L 245.604218 327.961538 
L 245.747634 327.867754 
L 245.889543 327.771707 
L 246.029911 327.67342 
L 246.168703 327.572919 
L 246.305881 327.470228 
L 246.441414 327.365373 
L 246.575266 327.258382 
L 246.707403 327.14928 
L 246.837793 327.038095 
L 246.966402 326.924856 
L 247.093199 326.80959 
L 247.21815 326.692328 
L 247.341226 326.573097 
L 247.462394 326.451929 
L 247.581624 326.328853 
L 247.698887 326.203902 
L 247.814153 326.077105 
L 247.927392 325.948496 
L 248.038577 325.818106 
L 248.147679 325.685969 
L 248.25467 325.552117 
L 248.359525 325.416585 
L 248.462216 325.279406 
L 248.562717 325.140615 
L 248.661004 325.000247 
L 248.757051 324.858337 
L 248.850835 324.714921 
L 248.942332 324.570035 
L 249.031518 324.423716 
L 249.118371 324.276 
L 249.20287 324.126925 
L 249.284993 323.976528 
L 249.36472 323.824846 
L 249.44203 323.671919 
L 249.516903 323.517785 
L 249.589322 323.362482 
L 249.659268 323.20605 
L 249.726723 323.048527 
L 249.791671 322.889955 
L 249.854094 322.730371 
L 249.913977 322.569818 
L 249.971306 322.408334 
L 250.026065 322.245961 
L 250.078241 322.08274 
L 250.127821 321.918712 
L 250.174792 321.753917 
L 250.219143 321.588398 
L 250.260862 321.422197 
L 250.299939 321.255354 
L 250.336363 321.087912 
L 250.370127 320.919913 
L 250.401221 320.7514 
L 250.429637 320.582415 
L 250.455368 320.413 
L 250.478409 320.243198 
L 250.498752 320.073053 
L 250.516394 319.902605 
L 250.531328 319.7319 
L 250.543553 319.560978 
L 250.553064 319.389885 
L 250.55986 319.218662 
L 250.563937 319.047352 
L 250.565297 318.876 
L 250.565297 296.916 
L 250.563937 296.744648 
L 250.55986 296.573338 
L 250.553064 296.402115 
L 250.543553 296.231022 
L 250.531328 296.0601 
L 250.516394 295.889395 
L 250.498752 295.718947 
L 250.478409 295.548802 
L 250.455368 295.379 
L 250.429637 295.209585 
L 250.401221 295.0406 
L 250.370127 294.872087 
L 250.336363 294.704088 
L 250.299939 294.536646 
L 250.260862 294.369803 
L 250.219143 294.203602 
L 250.174792 294.038083 
L 250.127821 293.873288 
L 250.078241 293.70926 
L 250.026065 293.546039 
L 249.971306 293.383666 
L 249.913977 293.222182 
L 249.854094 293.061629 
L 249.791671 292.902045 
L 249.726723 292.743473 
L 249.659268 292.58595 
L 249.589322 292.429518 
L 249.516903 292.274215 
L 249.44203 292.120081 
L 249.36472 291.967154 
L 249.284993 291.815472 
L 249.20287 291.665075 
L 249.118371 291.516 
L 249.031518 291.368284 
L 248.942332 291.221965 
L 248.850835 291.077079 
L 248.757051 290.933663 
L 248.661004 290.791753 
L 248.562717 290.651385 
L 248.462216 290.512594 
L 248.359525 290.375415 
L 248.25467 290.239883 
L 248.147679 290.106031 
L 248.038577 289.973894 
L 247.927392 289.843504 
L 247.814153 289.714895 
L 247.698887 289.588098 
L 247.581624 289.463147 
L 247.462394 289.340071 
L 247.341226 289.218903 
L 247.21815 289.099672 
L 247.093199 288.98241 
L 246.966402 288.867144 
L 246.837793 288.753905 
L 246.707403 288.64272 
L 246.575266 288.533618 
L 246.441414 288.426627 
L 246.305881 288.321772 
L 246.168703 288.219081 
L 246.029911 288.11858 
L 245.889543 288.020293 
L 245.747634 287.924246 
L 245.604218 287.830462 
L 245.459332 287.738965 
L 245.313013 287.649779 
L 245.165297 287.562926 
L 245.016222 287.478427 
L 244.865824 287.396304 
L 244.714143 287.316577 
L 244.561216 287.239267 
L 244.407082 287.164393 
L 244.251779 287.091974 
L 244.095347 287.022029 
L 243.937824 286.954574 
L 243.779251 286.889626 
L 243.619668 286.827203 
L 243.459114 286.76732 
L 243.297631 286.709991 
L 243.135258 286.655232 
L 242.972037 286.603056 
L 242.808008 286.553476 
L 242.643214 286.506505 
L 242.477695 286.462154 
L 242.311493 286.420435 
L 242.144651 286.381358 
L 241.977209 286.344934 
L 241.80921 286.31117 
L 241.640697 286.280076 
L 241.471712 286.25166 
L 241.302297 286.225928 
L 241.132495 286.202888 
L 240.962349 286.182545 
L 240.791902 286.164903 
L 240.621196 286.149968 
L 240.450275 286.137744 
L 240.279182 286.128233 
L 240.107959 286.121437 
L 239.936649 286.117359 
L 239.765297 286.116 
L 219.905297 286.116 
L 219.733944 286.117359 
L 219.562635 286.121437 
L 219.391412 286.128233 
L 219.220319 286.137744 
L 219.049397 286.149968 
L 218.878692 286.164903 
L 218.708244 286.182545 
L 218.538098 286.202888 
L 218.368297 286.225928 
L 218.198882 286.25166 
L 218.029897 286.280076 
L 217.861383 286.31117 
L 217.693385 286.344934 
L 217.525943 286.381358 
L 217.3591 286.420435 
L 217.192899 286.462154 
L 217.02738 286.506505 
L 216.862585 286.553476 
L 216.698557 286.603056 
L 216.535336 286.655232 
L 216.372963 286.709991 
L 216.211479 286.76732 
L 216.050926 286.827203 
L 215.891342 286.889626 
L 215.73277 286.954574 
L 215.575247 287.022029 
L 215.418815 287.091974 
L 215.263512 287.164393 
L 215.109377 287.239267 
L 214.95645 287.316577 
L 214.804769 287.396304 
L 214.654372 287.478427 
L 214.505297 287.562926 
L 214.357581 287.649779 
L 214.211262 287.738965 
L 214.066376 287.830462 
L 213.92296 287.924246 
L 213.78105 288.020293 
L 213.640682 288.11858 
L 213.501891 288.219081 
L 213.364712 288.321772 
L 213.22918 288.426627 
L 213.095328 288.533618 
L 212.963191 288.64272 
L 212.832801 288.753905 
L 212.704192 288.867144 
L 212.577395 288.98241 
L 212.452444 289.099672 
L 212.329368 289.218903 
L 212.2082 289.340071 
L 212.088969 289.463147 
L 211.971706 289.588098 
L 211.856441 289.714895 
L 211.743201 289.843504 
L 211.632017 289.973894 
L 211.522915 290.106031 
L 211.415923 290.239883 
L 211.311069 290.375415 
L 211.208378 290.512594 
L 211.107877 290.651385 
L 211.00959 290.791753 
L 210.913542 290.933663 
L 210.819759 291.077079 
L 210.728262 291.221965 
L 210.639076 291.368284 
L 210.552223 291.516 
L 210.467724 291.665075 
L 210.385601 291.815472 
L 210.305874 291.967154 
L 210.228564 292.120081 
L 210.15369 292.274215 
L 210.081271 292.429518 
L 210.011326 292.58595 
L 209.94387 292.743473 
L 209.878923 292.902045 
L 209.8165 293.061629 
L 209.756617 293.222182 
L 209.699288 293.383666 
L 209.644529 293.546039 
L 209.592353 293.70926 
L 209.542773 293.873288 
L 209.495802 294.038083 
L 209.451451 294.203602 
L 209.409732 294.369803 
L 209.370655 294.536646 
L 209.33423 294.704088 
L 209.300467 294.872087 
L 209.269373 295.0406 
L 209.240957 295.209585 
L 209.215225 295.379 
L 209.192185 295.548802 
L 209.171841 295.718947 
L 209.1542 295.889395 
L 209.139265 296.0601 
L 209.127041 296.231022 
L 209.11753 296.402115 
L 209.110734 296.573338 
L 209.106656 296.744648 
L 209.105297 296.916 
L 209.105297 318.876 
L 209.106656 319.047352 
L 209.110734 319.218662 
L 209.11753 319.389885 
L 209.127041 319.560978 
L 209.139265 319.7319 
L 209.1542 319.902605 
L 209.171841 320.073053 
L 209.192185 320.243198 
L 209.215225 320.413 
L 209.240957 320.582415 
L 209.269373 320.7514 
L 209.300467 320.919913 
L 209.33423 321.087912 
L 209.370655 321.255354 
L 209.409732 321.422197 
L 209.451451 321.588398 
L 209.495802 321.753917 
L 209.542773 321.918712 
L 209.592353 322.08274 
L 209.644529 322.245961 
L 209.699288 322.408334 
L 209.756617 322.569818 
L 209.8165 322.730371 
L 209.878923 322.889955 
L 209.94387 323.048527 
L 210.011326 323.20605 
L 210.081271 323.362482 
L 210.15369 323.517785 
L 210.228564 323.671919 
L 210.305874 323.824846 
L 210.385601 323.976528 
L 210.467724 324.126925 
L 210.552223 324.276 
L 210.639076 324.423716 
L 210.728262 324.570035 
L 210.819759 324.714921 
L 210.913542 324.858337 
L 211.00959 325.000247 
L 211.107877 325.140615 
L 211.208378 325.279406 
L 211.311069 325.416585 
L 211.415923 325.552117 
L 211.522915 325.685969 
L 211.632017 325.818106 
L 211.743201 325.948496 
L 211.856441 326.077105 
L 211.971706 326.203902 
L 212.088969 326.328853 
L 212.2082 326.451929 
L 212.329368 326.573097 
L 212.452444 326.692328 
L 212.577395 326.80959 
L 212.704192 326.924856 
L 212.832801 327.038095 
L 212.963191 327.14928 
L 213.095328 327.258382 
L 213.22918 327.365373 
L 213.364712 327.470228 
L 213.501891 327.572919 
L 213.640682 327.67342 
L 213.78105 327.771707 
L 213.92296 327.867754 
L 214.066376 327.961538 
L 214.211262 328.053035 
L 214.357581 328.142221 
L 214.505297 328.229074 
L 214.654372 328.313573 
L 214.804769 328.395696 
L 214.95645 328.475423 
L 215.109377 328.552733 
L 215.263512 328.627607 
L 215.418815 328.700026 
L 215.575247 328.769971 
L 215.73277 328.837426 
L 215.891342 328.902374 
L 216.050926 328.964797 
L 216.211479 329.02468 
L 216.372963 329.082009 
L 216.535336 329.136768 
L 216.698557 329.188944 
L 216.862585 329.238524 
L 217.02738 329.285495 
L 217.192899 329.329846 
L 217.3591 329.371565 
L 217.525943 329.410642 
L 217.693385 329.447066 
L 217.861383 329.48083 
L 218.029897 329.511924 
L 218.198882 329.54034 
L 218.368297 329.566072 
L 218.538098 329.589112 
L 218.708244 329.609455 
L 218.878692 329.627097 
L 219.049397 329.642032 
L 219.220319 329.654256 
L 219.391412 329.663767 
L 219.562635 329.670563 
L 219.733944 329.674641 
L 219.905297 329.676 
L 239.765297 329.676 
z
" clip-path="url(#pdd55be50bf)" style="fill: none; stroke-dasharray: 1.85,0.8; stroke-dashoffset: 0; stroke: #0000ff; stroke-width: 0.5; stroke-linecap: round"/>
   </g>
   <g id="patch_7">
    <path d="M 119.429297 104.436 
C 91.529297 104.436 113.129297 115.236 80.729297 115.236 
" clip-path="url(#pdd55be50bf)" style="fill: none; stroke: #a52a2a; stroke-width: 2; stroke-linejoin: miter; stroke-linecap: round"/>
   </g>
   <g id="patch_8">
    <path d="M 114.929297 100.836 
L 123.929297 104.436 
L 114.929297 108.036 
z
" clip-path="url(#pdd55be50bf)" style="fill: #a52a2a"/>
   </g>
   <g id="line2d_1">
    <path d="M 297.365297 174.516 
L 310.565297 174.516 
" clip-path="url(#pdd55be50bf)" style="fill: none; stroke: #000000; stroke-width: 2; stroke-linecap: round"/>
   </g>
   <g id="line2d_2">
    <path d="M 310.565297 161.316 
L 310.565297 187.716 
" clip-path="url(#pdd55be50bf)" style="fill: none; stroke: #000000; stroke-width: 2; stroke-linecap: round"/>
   </g>
   <g id="line2d_3">
    <path d="M 310.565297 167.916 
L 324.425297 156.036 
L 324.425297 149.436 
" clip-path="url(#pdd55be50bf)" style="fill: none; stroke: #000000; stroke-width: 2; stroke-linecap: round"/>
   </g>
   <g id="line2d_4">
    <path d="M 310.565297 181.116 
L 324.425297 192.996 
L 324.425297 199.596 
" clip-path="url(#pdd55be50bf)" style="fill: none; stroke: #000000; stroke-width: 2; stroke-linecap: round"/>
   </g>
   <g id="line2d_5">
    <path d="M 310.565297 181.116 
L 317.591987 187.138878 
" clip-path="url(#pdd55be50bf)" style="fill: none; stroke: #000000; stroke-width: 2; stroke-linecap: round"/>
   </g>
   <g id="patch_9">
    <path d="M 319.934836 184.405554 
L 324.425297 192.996 
L 315.249139 189.872201 
z
" clip-path="url(#pdd55be50bf)"/>
   </g>
   <g id="line2d_6">
    <path d="M 297.365297 174.516 
L 270.365297 174.516 
L 243.365297 174.516 
" clip-path="url(#pdd55be50bf)" style="fill: none; stroke: #000000; stroke-width: 2; stroke-linecap: round"/>
   </g>
   <g id="line2d_7">
    <path d="M 243.365297 174.516 
L 243.365297 183.516 
L 252.365297 186.516 
L 234.365297 192.516 
L 252.365297 198.516 
L 234.365297 204.516 
L 252.365297 210.516 
L 234.365297 216.516 
L 243.365297 219.516 
L 243.365297 228.516 
" clip-path="url(#pdd55be50bf)" style="fill: none; stroke: #000000; stroke-width: 2; stroke-linecap: round"/>
   </g>
   <g id="line2d_8">
    <path d="M 243.365297 228.516 
L 256.565297 228.516 
" clip-path="url(#pdd55be50bf)" style="fill: none; stroke: #000000; stroke-width: 2; stroke-linecap: round"/>
   </g>
   <g id="line2d_9">
    <path d="M 256.565297 215.316 
L 256.565297 241.716 
" clip-path="url(#pdd55be50bf)" style="fill: none; stroke: #000000; stroke-width: 2; stroke-linecap: round"/>
   </g>
   <g id="line2d_10">
    <path d="M 256.565297 221.916 
L 270.425297 210.036 
L 270.425297 203.436 
" clip-path="url(#pdd55be50bf)" style="fill: none; stroke: #000000; stroke-width: 2; stroke-linecap: round"/>
   </g>
   <g id="line2d_11">
    <path d="M 256.565297 235.116 
L 270.425297 246.996 
L 270.425297 253.596 
" clip-path="url(#pdd55be50bf)" style="fill: none; stroke: #000000; stroke-width: 2; stroke-linecap: round"/>
   </g>
   <g id="line2d_12">
    <path d="M 256.565297 235.116 
L 263.591987 241.138878 
" clip-path="url(#pdd55be50bf)" style="fill: none; stroke: #000000; stroke-width: 2; stroke-linecap: round"/>
   </g>
   <g id="patch_10">
    <path d="M 265.934836 238.405554 
L 270.425297 246.996 
L 261.249139 243.872201 
z
" clip-path="url(#pdd55be50bf)"/>
   </g>
   <g id="line2d_13">
    <path d="M 243.365297 228.516 
L 243.365297 237.516 
L 252.365297 240.516 
L 234.365297 246.516 
L 252.365297 252.516 
L 234.365297 258.516 
L 252.365297 264.516 
L 234.365297 270.516 
L 243.365297 273.516 
L 243.365297 282.516 
" clip-path="url(#pdd55be50bf)" style="fill: none; stroke: #000000; stroke-width: 2; stroke-linecap: round"/>
   </g>
   <g id="line2d_14">
    <path d="M 243.365297 282.516 
L 270.365297 282.516 
L 297.365297 282.516 
" clip-path="url(#pdd55be50bf)" style="fill: none; stroke: #000000; stroke-width: 2; stroke-linecap: round"/>
   </g>
   <g id="line2d_15">
    <path d="M 297.365297 282.516 
L 310.565297 282.516 
" clip-path="url(#pdd55be50bf)" style="fill: none; stroke: #000000; stroke-width: 2; stroke-linecap: round"/>
   </g>
   <g id="line2d_16">
    <path d="M 310.565297 269.316 
L 310.565297 295.716 
" clip-path="url(#pdd55be50bf)" style="fill: none; stroke: #000000; stroke-width: 2; stroke-linecap: round"/>
   </g>
   <g id="line2d_17">
    <path d="M 310.565297 275.916 
L 324.425297 264.036 
L 324.425297 257.436 
" clip-path="url(#pdd55be50bf)" style="fill: none; stroke: #000000; stroke-width: 2; stroke-linecap: round"/>
   </g>
   <g id="line2d_18">
    <path d="M 310.565297 289.116 
L 324.425297 300.996 
L 324.425297 307.596 
" clip-path="url(#pdd55be50bf)" style="fill: none; stroke: #000000; stroke-width: 2; stroke-linecap: round"/>
   </g>
   <g id="line2d_19">
    <path d="M 324.425297 264.036 
L 317.398606 270.058878 
" clip-path="url(#pdd55be50bf)" style="fill: none; stroke: #000000; stroke-width: 2; stroke-linecap: round"/>
   </g>
   <g id="patch_11">
    <path d="M 319.741455 272.792201 
L 310.565297 275.916 
L 315.055757 267.325554 
z
" clip-path="url(#pdd55be50bf)"/>
   </g>
   <g id="line2d_20">
    <path d="M 270.425297 203.436 
L 270.425297 188.976 
L 270.425297 174.516 
" clip-path="url(#pdd55be50bf)" style="fill: none; stroke: #000000; stroke-width: 2; stroke-linecap: round"/>
   </g>
   <g id="line2d_21">
    <path d="M 270.425297 253.596 
L 270.425297 268.056 
L 270.425297 282.516 
" clip-path="url(#pdd55be50bf)" style="fill: none; stroke: #000000; stroke-width: 2; stroke-linecap: round"/>
   </g>
   <g id="line2d_22">
    <path d="M 243.365297 174.516 
L 243.365297 156.516 
L 243.365297 138.516 
" clip-path="url(#pdd55be50bf)" style="fill: none; stroke: #000000; stroke-width: 2; stroke-linecap: round"/>
   </g>
   <g id="line2d_23">
    <path d="M 216.305297 113.436 
L 229.505297 113.436 
" clip-path="url(#pdd55be50bf)" style="fill: none; stroke: #000000; stroke-width: 2; stroke-linecap: round"/>
   </g>
   <g id="line2d_24">
    <path d="M 229.505297 100.236 
L 229.505297 126.636 
" clip-path="url(#pdd55be50bf)" style="fill: none; stroke: #000000; stroke-width: 2; stroke-linecap: round"/>
   </g>
   <g id="line2d_25">
    <path d="M 229.505297 106.836 
L 243.365297 94.956 
L 243.365297 88.356 
" clip-path="url(#pdd55be50bf)" style="fill: none; stroke: #000000; stroke-width: 2; stroke-linecap: round"/>
   </g>
   <g id="line2d_26">
    <path d="M 229.505297 120.036 
L 243.365297 131.916 
L 243.365297 138.516 
" clip-path="url(#pdd55be50bf)" style="fill: none; stroke: #000000; stroke-width: 2; stroke-linecap: round"/>
   </g>
   <g id="line2d_27">
    <path d="M 243.365297 94.956 
L 236.338606 100.978878 
" clip-path="url(#pdd55be50bf)" style="fill: none; stroke: #000000; stroke-width: 2; stroke-linecap: round"/>
   </g>
   <g id="patch_12">
    <path d="M 238.681455 103.712201 
L 229.505297 106.836 
L 233.995757 98.245554 
z
" clip-path="url(#pdd55be50bf)"/>
   </g>
   <g id="line2d_28">
    <path d="M 243.365297 88.356 
L 243.365297 79.356 
L 234.365297 76.356 
L 252.365297 70.356 
L 234.365297 64.356 
L 252.365297 58.356 
L 234.365297 52.356 
L 252.365297 46.356 
L 243.365297 43.356 
L 243.365297 34.356 
" clip-path="url(#pdd55be50bf)" style="fill: none; stroke: #000000; stroke-width: 2; stroke-linecap: round"/>
   </g>
   <g id="line2d_29">
    <path d="M 243.365297 34.356 
L 243.365297 19.956 
" clip-path="url(#pdd55be50bf)" style="fill: none; stroke: #000000; stroke-width: 2; stroke-linecap: round"/>
   </g>
   <g id="line2d_30">
    <path d="M 243.365297 19.956 
L 236.615297 19.956 
" clip-path="url(#pdd55be50bf)" style="fill: none; stroke: #000000; stroke-width: 2; stroke-linecap: round"/>
   </g>
   <g id="line2d_31">
    <path d="M 243.365297 19.956 
L 250.115297 19.956 
" clip-path="url(#pdd55be50bf)" style="fill: none; stroke: #000000; stroke-width: 2; stroke-linecap: round"/>
   </g>
   <g id="line2d_32">
    <path d="M 243.365297 34.356 
L 283.895297 34.356 
L 324.425297 34.356 
" clip-path="url(#pdd55be50bf)" style="fill: none; stroke: #000000; stroke-width: 2; stroke-linecap: round"/>
   </g>
   <g id="line2d_33">
    <path d="M 324.425297 34.356 
L 324.425297 91.896 
L 324.425297 149.436 
" clip-path="url(#pdd55be50bf)" style="fill: none; stroke: #000000; stroke-width: 2; stroke-linecap: round"/>
   </g>
   <g id="line2d_34">
    <path d="M 216.305297 307.596 
L 229.505297 307.596 
" clip-path="url(#pdd55be50bf)" style="fill: none; stroke: #000000; stroke-width: 2; stroke-linecap: round"/>
   </g>
   <g id="line2d_35">
    <path d="M 229.505297 294.396 
L 229.505297 320.796 
" clip-path="url(#pdd55be50bf)" style="fill: none; stroke: #000000; stroke-width: 2; stroke-linecap: round"/>
   </g>
   <g id="line2d_36">
    <path d="M 229.505297 300.996 
L 243.365297 289.116 
L 243.365297 282.516 
" clip-path="url(#pdd55be50bf)" style="fill: none; stroke: #000000; stroke-width: 2; stroke-linecap: round"/>
   </g>
   <g id="line2d_37">
    <path d="M 229.505297 314.196 
L 243.365297 326.076 
L 243.365297 332.676 
" clip-path="url(#pdd55be50bf)" style="fill: none; stroke: #000000; stroke-width: 2; stroke-linecap: round"/>
   </g>
   <g id="line2d_38">
    <path d="M 229.505297 314.196 
L 236.531987 320.218878 
" clip-path="url(#pdd55be50bf)" style="fill: none; stroke: #000000; stroke-width: 2; stroke-linecap: round"/>
   </g>
   <g id="patch_13">
    <path d="M 238.874836 317.485554 
L 243.365297 326.076 
L 234.189139 322.952201 
z
" clip-path="url(#pdd55be50bf)"/>
   </g>
   <g id="line2d_39">
    <path d="M 243.365297 332.676 
L 243.365297 347.076 
" clip-path="url(#pdd55be50bf)" style="fill: none; stroke: #000000; stroke-width: 2; stroke-linecap: round"/>
   </g>
   <g id="line2d_40">
    <path d="M 243.365297 347.076 
L 236.615297 347.076 
" clip-path="url(#pdd55be50bf)" style="fill: none; stroke: #000000; stroke-width: 2; stroke-linecap: round"/>
   </g>
   <g id="line2d_41">
    <path d="M 243.365297 347.076 
L 250.115297 347.076 
" clip-path="url(#pdd55be50bf)" style="fill: none; stroke: #000000; stroke-width: 2; stroke-linecap: round"/>
   </g>
   <g id="line2d_42">
    <path d="M 243.365297 332.676 
L 283.895297 332.676 
L 324.425297 332.676 
" clip-path="url(#pdd55be50bf)" style="fill: none; stroke: #000000; stroke-width: 2; stroke-linecap: round"/>
   </g>
   <g id="line2d_43">
    <path d="M 324.425297 332.676 
L 324.425297 320.136 
L 324.425297 307.596 
" clip-path="url(#pdd55be50bf)" style="fill: none; stroke: #000000; stroke-width: 2; stroke-linecap: round"/>
   </g>
   <g id="line2d_44">
    <path d="M 216.305297 307.596 
L 171.305297 307.596 
L 126.305297 307.596 
" clip-path="url(#pdd55be50bf)" style="fill: none; stroke: #000000; stroke-width: 2; stroke-linecap: round"/>
   </g>
   <g id="line2d_45">
    <path d="M 324.425297 199.596 
L 324.425297 213.996 
L 324.425297 228.396 
" clip-path="url(#pdd55be50bf)" style="fill: none; stroke: #000000; stroke-width: 2; stroke-linecap: round"/>
   </g>
   <g id="line2d_46">
    <path d="M 324.425297 228.396 
L 324.425297 242.916 
L 324.425297 257.436 
" clip-path="url(#pdd55be50bf)" style="fill: none; stroke: #000000; stroke-width: 2; stroke-linecap: round"/>
   </g>
   <g id="line2d_47">
    <path d="M 243.365297 34.356 
L 210.965297 34.356 
L 178.565297 34.356 
" clip-path="url(#pdd55be50bf)" style="fill: none; stroke: #000000; stroke-width: 2; stroke-linecap: round"/>
   </g>
   <g id="line2d_48">
    <path d="M 178.565297 34.356 
L 178.565297 55.896 
L 187.565297 58.896 
L 169.565297 64.896 
L 187.565297 70.896 
L 169.565297 76.896 
L 187.565297 82.896 
L 169.565297 88.896 
L 178.565297 91.896 
L 178.565297 113.436 
" clip-path="url(#pdd55be50bf)" style="fill: none; stroke: #000000; stroke-width: 2; stroke-linecap: round"/>
   </g>
   <g id="line2d_49">
    <path d="M 178.565297 113.436 
L 178.565297 125.976 
L 187.565297 128.976 
L 169.565297 134.976 
L 187.565297 140.976 
L 169.565297 146.976 
L 187.565297 152.976 
L 169.565297 158.976 
L 178.565297 161.976 
L 178.565297 174.516 
" clip-path="url(#pdd55be50bf)" style="fill: none; stroke: #000000; stroke-width: 2; stroke-linecap: round"/>
   </g>
   <g id="line2d_50">
    <path d="M 178.565297 174.516 
L 178.565297 253.596 
L 178.565297 332.676 
" clip-path="url(#pdd55be50bf)" style="fill: none; stroke: #000000; stroke-width: 2; stroke-linecap: round"/>
   </g>
   <g id="line2d_51">
    <path d="M 178.565297 332.676 
L 210.965297 332.676 
L 243.365297 332.676 
" clip-path="url(#pdd55be50bf)" style="fill: none; stroke: #000000; stroke-width: 2; stroke-linecap: round"/>
   </g>
   <g id="line2d_52">
    <path d="M 324.425297 228.396 
L 351.425297 228.396 
L 378.425297 228.396 
" clip-path="url(#pdd55be50bf)" style="fill: none; stroke: #000000; stroke-width: 2; stroke-linecap: round"/>
   </g>
   <g id="line2d_53">
    <path d="M 378.425297 228.396 
L 378.425297 237.396 
L 387.425297 240.396 
L 369.425297 246.396 
L 387.425297 252.396 
L 369.425297 258.396 
L 387.425297 264.396 
L 369.425297 270.396 
L 378.425297 273.396 
L 378.425297 282.396 
" clip-path="url(#pdd55be50bf)" style="fill: none; stroke: #000000; stroke-width: 2; stroke-linecap: round"/>
   </g>
   <g id="line2d_54">
    <path d="M 378.425297 282.396 
L 378.425297 296.796 
L 369.425297 296.796 
L 387.425297 296.796 
M 372.125297 301.116 
L 384.725297 301.116 
M 376.625297 305.436 
L 380.225297 305.436 
" clip-path="url(#pdd55be50bf)" style="fill: none; stroke: #000000; stroke-width: 2; stroke-linecap: round"/>
   </g>
   <g id="line2d_55">
    <path d="M 378.425297 228.396 
L 387.425297 228.396 
L 396.425297 228.396 
" clip-path="url(#pdd55be50bf)" style="fill: none; stroke: #000000; stroke-width: 2; stroke-linecap: round"/>
   </g>
   <g id="line2d_56">
    <path d="M 178.565297 113.436 
L 197.435297 113.436 
L 216.305297 113.436 
" clip-path="url(#pdd55be50bf)" style="fill: none; stroke: #000000; stroke-width: 2; stroke-linecap: round"/>
   </g>
   <g id="text_1">
    <!-- $R_{v1}$ -->
    <g transform="translate(210.890297 204.965219) scale(0.125 -0.125)">
     <defs>
      <path id="DejaVuSans-Oblique-52" d="M 1613 4147 
L 1294 2491 
L 2106 2491 
Q 2584 2491 2879 2755 
Q 3175 3019 3175 3444 
Q 3175 3784 2976 3965 
Q 2778 4147 2406 4147 
L 1613 4147 
z
M 2772 2241 
Q 2972 2194 3105 2009 
Q 3238 1825 3413 1275 
L 3809 0 
L 3144 0 
L 2778 1197 
Q 2638 1659 2453 1815 
Q 2269 1972 1888 1972 
L 1191 1972 
L 806 0 
L 172 0 
L 1081 4666 
L 2503 4666 
Q 3150 4666 3495 4373 
Q 3841 4081 3841 3531 
Q 3841 3044 3547 2687 
Q 3253 2331 2772 2241 
z
" transform="scale(0.015625)"/>
      <path id="DejaVuSans-Oblique-76" d="M 459 3500 
L 1069 3500 
L 1581 525 
L 3256 3500 
L 3866 3500 
L 1875 0 
L 1100 0 
L 459 3500 
z
" transform="scale(0.015625)"/>
      <path id="DejaVuSans-31" d="M 794 531 
L 1825 531 
L 1825 4091 
L 703 3866 
L 703 4441 
L 1819 4666 
L 2450 4666 
L 2450 531 
L 3481 531 
L 3481 0 
L 794 0 
L 794 531 
z
" transform="scale(0.015625)"/>
     </defs>
     <use xlink:href="#DejaVuSans-Oblique-52" transform="translate(0 0.09375)"/>
     <use xlink:href="#DejaVuSans-Oblique-76" transform="translate(69.482422 -16.3125) scale(0.7)"/>
     <use xlink:href="#DejaVuSans-31" transform="translate(110.908203 -16.3125) scale(0.7)"/>
    </g>
   </g>
   <g id="text_2">
    <!-- $R_{v2}$ -->
    <g transform="translate(210.890297 258.965219) scale(0.125 -0.125)">
     <defs>
      <path id="DejaVuSans-32" d="M 1228 531 
L 3431 531 
L 3431 0 
L 469 0 
L 469 531 
Q 828 903 1448 1529 
Q 2069 2156 2228 2338 
Q 2531 2678 2651 2914 
Q 2772 3150 2772 3378 
Q 2772 3750 2511 3984 
Q 2250 4219 1831 4219 
Q 1534 4219 1204 4116 
Q 875 4013 500 3803 
L 500 4441 
Q 881 4594 1212 4672 
Q 1544 4750 1819 4750 
Q 2544 4750 2975 4387 
Q 3406 4025 3406 3419 
Q 3406 3131 3298 2873 
Q 3191 2616 2906 2266 
Q 2828 2175 2409 1742 
Q 1991 1309 1228 531 
z
" transform="scale(0.015625)"/>
     </defs>
     <use xlink:href="#DejaVuSans-Oblique-52" transform="translate(0 0.09375)"/>
     <use xlink:href="#DejaVuSans-Oblique-76" transform="translate(69.482422 -16.3125) scale(0.7)"/>
     <use xlink:href="#DejaVuSans-32" transform="translate(110.908203 -16.3125) scale(0.7)"/>
    </g>
   </g>
   <g id="text_3">
    <!-- $R_{sed}$ -->
    <g transform="translate(206.140297 64.805219) scale(0.125 -0.125)">
     <defs>
      <path id="DejaVuSans-Oblique-73" d="M 3200 3397 
L 3091 2853 
Q 2863 2978 2609 3040 
Q 2356 3103 2088 3103 
Q 1634 3103 1373 2948 
Q 1113 2794 1113 2528 
Q 1113 2219 1719 2053 
Q 1766 2041 1788 2034 
L 1972 1978 
Q 2547 1819 2739 1644 
Q 2931 1469 2931 1166 
Q 2931 609 2489 259 
Q 2047 -91 1331 -91 
Q 1053 -91 747 -37 
Q 441 16 72 128 
L 184 722 
Q 500 559 806 475 
Q 1113 391 1394 391 
Q 1816 391 2080 572 
Q 2344 753 2344 1031 
Q 2344 1331 1650 1516 
L 1591 1531 
L 1394 1581 
Q 956 1697 753 1886 
Q 550 2075 550 2369 
Q 550 2928 970 3256 
Q 1391 3584 2113 3584 
Q 2397 3584 2667 3537 
Q 2938 3491 3200 3397 
z
" transform="scale(0.015625)"/>
      <path id="DejaVuSans-Oblique-65" d="M 3078 2063 
Q 3088 2113 3092 2166 
Q 3097 2219 3097 2272 
Q 3097 2653 2873 2875 
Q 2650 3097 2266 3097 
Q 1838 3097 1509 2826 
Q 1181 2556 1013 2059 
L 3078 2063 
z
M 3578 1613 
L 903 1613 
Q 884 1494 878 1425 
Q 872 1356 872 1306 
Q 872 872 1139 634 
Q 1406 397 1894 397 
Q 2269 397 2603 481 
Q 2938 566 3225 728 
L 3116 159 
Q 2806 34 2476 -28 
Q 2147 -91 1806 -91 
Q 1078 -91 686 257 
Q 294 606 294 1247 
Q 294 1794 489 2264 
Q 684 2734 1063 3103 
Q 1306 3334 1642 3459 
Q 1978 3584 2356 3584 
Q 2950 3584 3301 3228 
Q 3653 2872 3653 2272 
Q 3653 2128 3634 1964 
Q 3616 1800 3578 1613 
z
" transform="scale(0.015625)"/>
      <path id="DejaVuSans-Oblique-64" d="M 2675 525 
Q 2444 222 2128 65 
Q 1813 -91 1428 -91 
Q 903 -91 598 267 
Q 294 625 294 1247 
Q 294 1766 478 2236 
Q 663 2706 1013 3078 
Q 1244 3325 1534 3454 
Q 1825 3584 2144 3584 
Q 2481 3584 2739 3421 
Q 2997 3259 3138 2956 
L 3513 4863 
L 4091 4863 
L 3144 0 
L 2566 0 
L 2675 525 
z
M 891 1350 
Q 891 897 1095 644 
Q 1300 391 1663 391 
Q 1931 391 2161 520 
Q 2391 650 2566 903 
Q 2750 1166 2856 1509 
Q 2963 1853 2963 2188 
Q 2963 2622 2758 2865 
Q 2553 3109 2194 3109 
Q 1922 3109 1687 2981 
Q 1453 2853 1288 2613 
Q 1106 2353 998 2009 
Q 891 1666 891 1350 
z
" transform="scale(0.015625)"/>
     </defs>
     <use xlink:href="#DejaVuSans-Oblique-52" transform="translate(0 0.09375)"/>
     <use xlink:href="#DejaVuSans-Oblique-73" transform="translate(69.482422 -16.3125) scale(0.7)"/>
     <use xlink:href="#DejaVuSans-Oblique-65" transform="translate(105.952148 -16.3125) scale(0.7)"/>
     <use xlink:href="#DejaVuSans-Oblique-64" transform="translate(149.018555 -16.3125) scale(0.7)"/>
    </g>
   </g>
   <g id="text_4">
    <!-- $V_{DD}$ -->
    <g transform="translate(232.177797 13.756391) scale(0.125 -0.125)">
     <defs>
      <path id="DejaVuSans-Oblique-56" d="M 1319 0 
L 500 4666 
L 1119 4666 
L 1797 653 
L 4063 4666 
L 4750 4666 
L 2053 0 
L 1319 0 
z
" transform="scale(0.015625)"/>
      <path id="DejaVuSans-Oblique-44" d="M 1081 4666 
L 2438 4666 
Q 3519 4666 4070 4208 
Q 4622 3750 4622 2847 
Q 4622 2250 4412 1698 
Q 4203 1147 3834 769 
Q 3463 381 2891 190 
Q 2319 0 1538 0 
L 172 0 
L 1081 4666 
z
M 1613 4147 
L 909 519 
L 1734 519 
Q 2794 519 3375 1128 
Q 3956 1738 3956 2847 
Q 3956 3519 3581 3833 
Q 3206 4147 2406 4147 
L 1613 4147 
z
" transform="scale(0.015625)"/>
     </defs>
     <use xlink:href="#DejaVuSans-Oblique-56" transform="translate(0 0.09375)"/>
     <use xlink:href="#DejaVuSans-Oblique-44" transform="translate(68.408203 -16.3125) scale(0.7)"/>
     <use xlink:href="#DejaVuSans-Oblique-44" transform="translate(122.30957 -16.3125) scale(0.7)"/>
    </g>
   </g>
   <g id="text_5">
    <!-- -$V_{DD}$ -->
    <g transform="translate(229.865297 360.174047) scale(0.125 -0.125)">
     <defs>
      <path id="DejaVuSans-2d" d="M 313 2009 
L 1997 2009 
L 1997 1497 
L 313 1497 
L 313 2009 
z
" transform="scale(0.015625)"/>
     </defs>
     <use xlink:href="#DejaVuSans-2d" transform="translate(0 0.09375)"/>
     <use xlink:href="#DejaVuSans-Oblique-56" transform="translate(36.083984 0.09375)"/>
     <use xlink:href="#DejaVuSans-Oblique-44" transform="translate(104.492188 -16.3125) scale(0.7)"/>
     <use xlink:href="#DejaVuSans-Oblique-44" transform="translate(158.393555 -16.3125) scale(0.7)"/>
    </g>
   </g>
   <g id="text_6">
    <!-- $R_{s1}$ -->
    <g transform="translate(146.715297 77.345219) scale(0.125 -0.125)">
     <use xlink:href="#DejaVuSans-Oblique-52" transform="translate(0 0.09375)"/>
     <use xlink:href="#DejaVuSans-Oblique-73" transform="translate(69.482422 -16.3125) scale(0.7)"/>
     <use xlink:href="#DejaVuSans-31" transform="translate(105.952148 -16.3125) scale(0.7)"/>
    </g>
   </g>
   <g id="text_7">
    <!-- $R_{s2}$ -->
    <g transform="translate(146.715297 147.425219) scale(0.125 -0.125)">
     <use xlink:href="#DejaVuSans-Oblique-52" transform="translate(0 0.09375)"/>
     <use xlink:href="#DejaVuSans-Oblique-73" transform="translate(69.482422 -16.3125) scale(0.7)"/>
     <use xlink:href="#DejaVuSans-32" transform="translate(105.952148 -16.3125) scale(0.7)"/>
    </g>
   </g>
   <g id="text_8">
    <!-- $R_L$ -->
    <g transform="translate(351.825297 258.845219) scale(0.125 -0.125)">
     <defs>
      <path id="DejaVuSans-Oblique-4c" d="M 1075 4666 
L 1709 4666 
L 909 525 
L 3181 525 
L 3078 0 
L 172 0 
L 1075 4666 
z
" transform="scale(0.015625)"/>
     </defs>
     <use xlink:href="#DejaVuSans-Oblique-52" transform="translate(0 0.09375)"/>
     <use xlink:href="#DejaVuSans-Oblique-4c" transform="translate(69.482422 -16.3125) scale(0.7)"/>
    </g>
   </g>
   <g id="text_9">
    <!-- Stroombron -->
    <g style="fill: #a52a2a" transform="translate(3.6 118.685219) scale(0.125 -0.125)">
     <defs>
      <path id="DejaVuSans-53" d="M 3425 4513 
L 3425 3897 
Q 3066 4069 2747 4153 
Q 2428 4238 2131 4238 
Q 1616 4238 1336 4038 
Q 1056 3838 1056 3469 
Q 1056 3159 1242 3001 
Q 1428 2844 1947 2747 
L 2328 2669 
Q 3034 2534 3370 2195 
Q 3706 1856 3706 1288 
Q 3706 609 3251 259 
Q 2797 -91 1919 -91 
Q 1588 -91 1214 -16 
Q 841 59 441 206 
L 441 856 
Q 825 641 1194 531 
Q 1563 422 1919 422 
Q 2459 422 2753 634 
Q 3047 847 3047 1241 
Q 3047 1584 2836 1778 
Q 2625 1972 2144 2069 
L 1759 2144 
Q 1053 2284 737 2584 
Q 422 2884 422 3419 
Q 422 4038 858 4394 
Q 1294 4750 2059 4750 
Q 2388 4750 2728 4690 
Q 3069 4631 3425 4513 
z
" transform="scale(0.015625)"/>
      <path id="DejaVuSans-74" d="M 1172 4494 
L 1172 3500 
L 2356 3500 
L 2356 3053 
L 1172 3053 
L 1172 1153 
Q 1172 725 1289 603 
Q 1406 481 1766 481 
L 2356 481 
L 2356 0 
L 1766 0 
Q 1100 0 847 248 
Q 594 497 594 1153 
L 594 3053 
L 172 3053 
L 172 3500 
L 594 3500 
L 594 4494 
L 1172 4494 
z
" transform="scale(0.015625)"/>
      <path id="DejaVuSans-72" d="M 2631 2963 
Q 2534 3019 2420 3045 
Q 2306 3072 2169 3072 
Q 1681 3072 1420 2755 
Q 1159 2438 1159 1844 
L 1159 0 
L 581 0 
L 581 3500 
L 1159 3500 
L 1159 2956 
Q 1341 3275 1631 3429 
Q 1922 3584 2338 3584 
Q 2397 3584 2469 3576 
Q 2541 3569 2628 3553 
L 2631 2963 
z
" transform="scale(0.015625)"/>
      <path id="DejaVuSans-6f" d="M 1959 3097 
Q 1497 3097 1228 2736 
Q 959 2375 959 1747 
Q 959 1119 1226 758 
Q 1494 397 1959 397 
Q 2419 397 2687 759 
Q 2956 1122 2956 1747 
Q 2956 2369 2687 2733 
Q 2419 3097 1959 3097 
z
M 1959 3584 
Q 2709 3584 3137 3096 
Q 3566 2609 3566 1747 
Q 3566 888 3137 398 
Q 2709 -91 1959 -91 
Q 1206 -91 779 398 
Q 353 888 353 1747 
Q 353 2609 779 3096 
Q 1206 3584 1959 3584 
z
" transform="scale(0.015625)"/>
      <path id="DejaVuSans-6d" d="M 3328 2828 
Q 3544 3216 3844 3400 
Q 4144 3584 4550 3584 
Q 5097 3584 5394 3201 
Q 5691 2819 5691 2113 
L 5691 0 
L 5113 0 
L 5113 2094 
Q 5113 2597 4934 2840 
Q 4756 3084 4391 3084 
Q 3944 3084 3684 2787 
Q 3425 2491 3425 1978 
L 3425 0 
L 2847 0 
L 2847 2094 
Q 2847 2600 2669 2842 
Q 2491 3084 2119 3084 
Q 1678 3084 1418 2786 
Q 1159 2488 1159 1978 
L 1159 0 
L 581 0 
L 581 3500 
L 1159 3500 
L 1159 2956 
Q 1356 3278 1631 3431 
Q 1906 3584 2284 3584 
Q 2666 3584 2933 3390 
Q 3200 3197 3328 2828 
z
" transform="scale(0.015625)"/>
      <path id="DejaVuSans-62" d="M 3116 1747 
Q 3116 2381 2855 2742 
Q 2594 3103 2138 3103 
Q 1681 3103 1420 2742 
Q 1159 2381 1159 1747 
Q 1159 1113 1420 752 
Q 1681 391 2138 391 
Q 2594 391 2855 752 
Q 3116 1113 3116 1747 
z
M 1159 2969 
Q 1341 3281 1617 3432 
Q 1894 3584 2278 3584 
Q 2916 3584 3314 3078 
Q 3713 2572 3713 1747 
Q 3713 922 3314 415 
Q 2916 -91 2278 -91 
Q 1894 -91 1617 61 
Q 1341 213 1159 525 
L 1159 0 
L 581 0 
L 581 4863 
L 1159 4863 
L 1159 2969 
z
" transform="scale(0.015625)"/>
      <path id="DejaVuSans-6e" d="M 3513 2113 
L 3513 0 
L 2938 0 
L 2938 2094 
Q 2938 2591 2744 2837 
Q 2550 3084 2163 3084 
Q 1697 3084 1428 2787 
Q 1159 2491 1159 1978 
L 1159 0 
L 581 0 
L 581 3500 
L 1159 3500 
L 1159 2956 
Q 1366 3272 1645 3428 
Q 1925 3584 2291 3584 
Q 2894 3584 3203 3211 
Q 3513 2838 3513 2113 
z
" transform="scale(0.015625)"/>
     </defs>
     <use xlink:href="#DejaVuSans-53"/>
     <use xlink:href="#DejaVuSans-74" x="63.476562"/>
     <use xlink:href="#DejaVuSans-72" x="102.685547"/>
     <use xlink:href="#DejaVuSans-6f" x="141.548828"/>
     <use xlink:href="#DejaVuSans-6f" x="202.730469"/>
     <use xlink:href="#DejaVuSans-6d" x="263.912109"/>
     <use xlink:href="#DejaVuSans-62" x="361.324219"/>
     <use xlink:href="#DejaVuSans-72" x="424.800781"/>
     <use xlink:href="#DejaVuSans-6f" x="463.664062"/>
     <use xlink:href="#DejaVuSans-6e" x="524.845703"/>
    </g>
   </g>
   <g id="patch_14">
    <path d="M 243.365297 177.216 
C 244.081345 177.216 244.768163 176.931511 245.274485 176.425188 
C 245.780808 175.918866 246.065297 175.232048 246.065297 174.516 
C 246.065297 173.799952 245.780808 173.113134 245.274485 172.606812 
C 244.768163 172.100489 244.081345 171.816 243.365297 171.816 
C 242.649249 171.816 241.962431 172.100489 241.456109 172.606812 
C 240.949786 173.113134 240.665297 173.799952 240.665297 174.516 
C 240.665297 175.232048 240.949786 175.918866 241.456109 176.425188 
C 241.962431 176.931511 242.649249 177.216 243.365297 177.216 
z
" clip-path="url(#pdd55be50bf)" style="stroke: #000000; stroke-width: 2; stroke-linejoin: miter"/>
   </g>
   <g id="patch_15">
    <path d="M 243.365297 285.216 
C 244.081345 285.216 244.768163 284.931511 245.274485 284.425188 
C 245.780808 283.918866 246.065297 283.232048 246.065297 282.516 
C 246.065297 281.799952 245.780808 281.113134 245.274485 280.606812 
C 244.768163 280.100489 244.081345 279.816 243.365297 279.816 
C 242.649249 279.816 241.962431 280.100489 241.456109 280.606812 
C 240.949786 281.113134 240.665297 281.799952 240.665297 282.516 
C 240.665297 283.232048 240.949786 283.918866 241.456109 284.425188 
C 241.962431 284.931511 242.649249 285.216 243.365297 285.216 
z
" clip-path="url(#pdd55be50bf)" style="stroke: #000000; stroke-width: 2; stroke-linejoin: miter"/>
   </g>
   <g id="patch_16">
    <path d="M 270.425297 177.216 
C 271.141345 177.216 271.828163 176.931511 272.334485 176.425188 
C 272.840808 175.918866 273.125297 175.232048 273.125297 174.516 
C 273.125297 173.799952 272.840808 173.113134 272.334485 172.606812 
C 271.828163 172.100489 271.141345 171.816 270.425297 171.816 
C 269.709249 171.816 269.022431 172.100489 268.516109 172.606812 
C 268.009786 173.113134 267.725297 173.799952 267.725297 174.516 
C 267.725297 175.232048 268.009786 175.918866 268.516109 176.425188 
C 269.022431 176.931511 269.709249 177.216 270.425297 177.216 
z
" clip-path="url(#pdd55be50bf)" style="stroke: #000000; stroke-width: 2; stroke-linejoin: miter"/>
   </g>
   <g id="patch_17">
    <path d="M 270.425297 285.216 
C 271.141345 285.216 271.828163 284.931511 272.334485 284.425188 
C 272.840808 283.918866 273.125297 283.232048 273.125297 282.516 
C 273.125297 281.799952 272.840808 281.113134 272.334485 280.606812 
C 271.828163 280.100489 271.141345 279.816 270.425297 279.816 
C 269.709249 279.816 269.022431 280.100489 268.516109 280.606812 
C 268.009786 281.113134 267.725297 281.799952 267.725297 282.516 
C 267.725297 283.232048 268.009786 283.918866 268.516109 284.425188 
C 269.022431 284.931511 269.709249 285.216 270.425297 285.216 
z
" clip-path="url(#pdd55be50bf)" style="stroke: #000000; stroke-width: 2; stroke-linejoin: miter"/>
   </g>
   <g id="patch_18">
    <path d="M 243.365297 37.056 
C 244.081345 37.056 244.768163 36.771511 245.274485 36.265188 
C 245.780808 35.758866 246.065297 35.072048 246.065297 34.356 
C 246.065297 33.639952 245.780808 32.953134 245.274485 32.446812 
C 244.768163 31.940489 244.081345 31.656 243.365297 31.656 
C 242.649249 31.656 241.962431 31.940489 241.456109 32.446812 
C 240.949786 32.953134 240.665297 33.639952 240.665297 34.356 
C 240.665297 35.072048 240.949786 35.758866 241.456109 36.265188 
C 241.962431 36.771511 242.649249 37.056 243.365297 37.056 
z
" clip-path="url(#pdd55be50bf)" style="stroke: #000000; stroke-width: 2; stroke-linejoin: miter"/>
   </g>
   <g id="patch_19">
    <path d="M 243.365297 335.376 
C 244.081345 335.376 244.768163 335.091511 245.274485 334.585188 
C 245.780808 334.078866 246.065297 333.392048 246.065297 332.676 
C 246.065297 331.959952 245.780808 331.273134 245.274485 330.766812 
C 244.768163 330.260489 244.081345 329.976 243.365297 329.976 
C 242.649249 329.976 241.962431 330.260489 241.456109 330.766812 
C 240.949786 331.273134 240.665297 331.959952 240.665297 332.676 
C 240.665297 333.392048 240.949786 334.078866 241.456109 334.585188 
C 241.962431 335.091511 242.649249 335.376 243.365297 335.376 
z
" clip-path="url(#pdd55be50bf)" style="stroke: #000000; stroke-width: 2; stroke-linejoin: miter"/>
   </g>
   <g id="patch_20">
    <path d="M 126.305297 310.296 
C 127.021345 310.296 127.708163 310.011511 128.214485 309.505188 
C 128.720808 308.998866 129.005297 308.312048 129.005297 307.596 
C 129.005297 306.879952 128.720808 306.193134 128.214485 305.686812 
C 127.708163 305.180489 127.021345 304.896 126.305297 304.896 
C 125.589249 304.896 124.902431 305.180489 124.396109 305.686812 
C 123.889786 306.193134 123.605297 306.879952 123.605297 307.596 
C 123.605297 308.312048 123.889786 308.998866 124.396109 309.505188 
C 124.902431 310.011511 125.589249 310.296 126.305297 310.296 
z
" clip-path="url(#pdd55be50bf)" style="fill: #ffffff; stroke: #000000; stroke-width: 2; stroke-linejoin: miter"/>
   </g>
   <g id="text_10">
    <!-- $V_{in}$ -->
    <g transform="translate(96.267797 309.496391) scale(0.125 -0.125)">
     <defs>
      <path id="DejaVuSans-Oblique-69" d="M 1172 4863 
L 1747 4863 
L 1606 4134 
L 1031 4134 
L 1172 4863 
z
M 909 3500 
L 1484 3500 
L 800 0 
L 225 0 
L 909 3500 
z
" transform="scale(0.015625)"/>
      <path id="DejaVuSans-Oblique-6e" d="M 3566 2113 
L 3156 0 
L 2578 0 
L 2988 2091 
Q 3016 2238 3031 2350 
Q 3047 2463 3047 2528 
Q 3047 2791 2881 2937 
Q 2716 3084 2419 3084 
Q 1956 3084 1622 2776 
Q 1288 2469 1184 1941 
L 800 0 
L 225 0 
L 903 3500 
L 1478 3500 
L 1363 2950 
Q 1603 3253 1940 3418 
Q 2278 3584 2650 3584 
Q 3113 3584 3367 3334 
Q 3622 3084 3622 2631 
Q 3622 2519 3608 2391 
Q 3594 2263 3566 2113 
z
" transform="scale(0.015625)"/>
     </defs>
     <use xlink:href="#DejaVuSans-Oblique-56" transform="translate(0 0.09375)"/>
     <use xlink:href="#DejaVuSans-Oblique-69" transform="translate(68.408203 -16.3125) scale(0.7)"/>
     <use xlink:href="#DejaVuSans-Oblique-6e" transform="translate(87.856445 -16.3125) scale(0.7)"/>
    </g>
   </g>
   <g id="patch_21">
    <path d="M 324.425297 231.096 
C 325.141345 231.096 325.828163 230.811511 326.334485 230.305188 
C 326.840808 229.798866 327.125297 229.112048 327.125297 228.396 
C 327.125297 227.679952 326.840808 226.993134 326.334485 226.486812 
C 325.828163 225.980489 325.141345 225.696 324.425297 225.696 
C 323.709249 225.696 323.022431 225.980489 322.516109 226.486812 
C 322.009786 226.993134 321.725297 227.679952 321.725297 228.396 
C 321.725297 229.112048 322.009786 229.798866 322.516109 230.305188 
C 323.022431 230.811511 323.709249 231.096 324.425297 231.096 
z
" clip-path="url(#pdd55be50bf)" style="stroke: #000000; stroke-width: 2; stroke-linejoin: miter"/>
   </g>
   <g id="patch_22">
    <path d="M 178.565297 116.136 
C 179.281345 116.136 179.968163 115.851511 180.474485 115.345188 
C 180.980808 114.838866 181.265297 114.152048 181.265297 113.436 
C 181.265297 112.719952 180.980808 112.033134 180.474485 111.526812 
C 179.968163 111.020489 179.281345 110.736 178.565297 110.736 
C 177.849249 110.736 177.162431 111.020489 176.656109 111.526812 
C 176.149786 112.033134 175.865297 112.719952 175.865297 113.436 
C 175.865297 114.152048 176.149786 114.838866 176.656109 115.345188 
C 177.162431 115.851511 177.849249 116.136 178.565297 116.136 
z
" clip-path="url(#pdd55be50bf)" style="stroke: #000000; stroke-width: 2; stroke-linejoin: miter"/>
   </g>
   <g id="patch_23">
    <path d="M 396.425297 231.096 
C 397.141345 231.096 397.828163 230.811511 398.334485 230.305188 
C 398.840808 229.798866 399.125297 229.112048 399.125297 228.396 
C 399.125297 227.679952 398.840808 226.993134 398.334485 226.486812 
C 397.828163 225.980489 397.141345 225.696 396.425297 225.696 
C 395.709249 225.696 395.022431 225.980489 394.516109 226.486812 
C 394.009786 226.993134 393.725297 227.679952 393.725297 228.396 
C 393.725297 229.112048 394.009786 229.798866 394.516109 230.305188 
C 395.022431 230.811511 395.709249 231.096 396.425297 231.096 
z
" clip-path="url(#pdd55be50bf)" style="fill: #ffffff; stroke: #000000; stroke-width: 2; stroke-linejoin: miter"/>
   </g>
   <g id="text_11">
    <!-- $v_{out}$ -->
    <g transform="translate(385.362797 219.496391) scale(0.125 -0.125)">
     <defs>
      <path id="DejaVuSans-Oblique-6f" d="M 1625 -91 
Q 1009 -91 651 289 
Q 294 669 294 1325 
Q 294 1706 417 2101 
Q 541 2497 738 2766 
Q 1047 3184 1428 3384 
Q 1809 3584 2291 3584 
Q 2888 3584 3255 3212 
Q 3622 2841 3622 2241 
Q 3622 1825 3500 1412 
Q 3378 1000 3181 728 
Q 2875 309 2494 109 
Q 2113 -91 1625 -91 
z
M 891 1344 
Q 891 869 1089 633 
Q 1288 397 1691 397 
Q 2269 397 2648 901 
Q 3028 1406 3028 2181 
Q 3028 2634 2825 2865 
Q 2622 3097 2228 3097 
Q 1903 3097 1650 2945 
Q 1397 2794 1197 2484 
Q 1050 2253 970 1956 
Q 891 1659 891 1344 
z
" transform="scale(0.015625)"/>
      <path id="DejaVuSans-Oblique-75" d="M 428 1388 
L 838 3500 
L 1416 3500 
L 1006 1409 
Q 975 1256 961 1147 
Q 947 1038 947 966 
Q 947 700 1109 554 
Q 1272 409 1569 409 
Q 2031 409 2368 721 
Q 2706 1034 2809 1563 
L 3194 3500 
L 3769 3500 
L 3091 0 
L 2516 0 
L 2631 550 
Q 2388 244 2052 76 
Q 1716 -91 1338 -91 
Q 878 -91 622 161 
Q 366 413 366 863 
Q 366 956 381 1097 
Q 397 1238 428 1388 
z
" transform="scale(0.015625)"/>
      <path id="DejaVuSans-Oblique-74" d="M 2706 3500 
L 2619 3053 
L 1472 3053 
L 1100 1153 
Q 1081 1047 1072 975 
Q 1063 903 1063 863 
Q 1063 663 1183 572 
Q 1303 481 1569 481 
L 2150 481 
L 2053 0 
L 1503 0 
Q 991 0 739 200 
Q 488 400 488 806 
Q 488 878 497 964 
Q 506 1050 525 1153 
L 897 3053 
L 409 3053 
L 500 3500 
L 978 3500 
L 1172 4494 
L 1747 4494 
L 1556 3500 
L 2706 3500 
z
" transform="scale(0.015625)"/>
     </defs>
     <use xlink:href="#DejaVuSans-Oblique-76" transform="translate(0 0.3125)"/>
     <use xlink:href="#DejaVuSans-Oblique-6f" transform="translate(59.179688 -16.09375) scale(0.7)"/>
     <use xlink:href="#DejaVuSans-Oblique-75" transform="translate(102.006836 -16.09375) scale(0.7)"/>
     <use xlink:href="#DejaVuSans-Oblique-74" transform="translate(146.37207 -16.09375) scale(0.7)"/>
    </g>
   </g>
  </g>
 </g>
 <defs>
  <clipPath id="pdd55be50bf">
   <rect x="64.809497" y="3.6" width="350.2356" height="359.832"/>
  </clipPath>
 </defs>
</svg>