<?xml version="1.0" encoding="utf-8" standalone="no"?>
<!DOCTYPE svg PUBLIC "-//W3C//DTD SVG 1.1//EN"
  "http://www.w3.org/Graphics/SVG/1.1/DTD/svg11.dtd">
<svg xmlns:xlink="http://www.w3.org/1999/xlink" width="396.345331pt" height="283.395312pt" viewBox="0 0 396.345331 283.395312" xmlns="http://www.w3.org/2000/svg" version="1.1">
 <metadata>
  <rdf:RDF xmlns:dc="http://purl.org/dc/elements/1.1/" xmlns:cc="http://creativecommons.org/ns#" xmlns:rdf="http://www.w3.org/1999/02/22-rdf-syntax-ns#">
   <cc:Work>
    <dc:type rdf:resource="http://purl.org/dc/dcmitype/StillImage"/>
    <dc:date>2024-01-02T18:08:48.323568</dc:date>
    <dc:format>image/svg+xml</dc:format>
    <dc:creator>
     <cc:Agent>
      <dc:title>Matplotlib v3.8.2, https://matplotlib.org/</dc:title>
     </cc:Agent>
    </dc:creator>
   </cc:Work>
  </rdf:RDF>
 </metadata>
 <defs>
  <style type="text/css">*{stroke-linejoin: round; stroke-linecap: butt}</style>
 </defs>
 <g id="figure_1">
  <g id="patch_1">
   <path d="M -0 283.395312 
L 396.345331 283.395312 
L 396.345331 0 
L -0 0 
z
" style="fill: #ffffff"/>
  </g>
  <g id="axes_1">
   <g id="patch_2">
    <path d="M 294.565531 113.377656 
L 294.736884 113.376297 
L 294.908193 113.372219 
L 295.079416 113.365424 
L 295.25051 113.355912 
L 295.421431 113.343688 
L 295.592137 113.328753 
L 295.762584 113.311112 
L 295.93273 113.290768 
L 296.102532 113.267728 
L 296.271946 113.241996 
L 296.440932 113.21358 
L 296.609445 113.182486 
L 296.777443 113.148723 
L 296.944885 113.112298 
L 297.111728 113.073221 
L 297.27793 113.031502 
L 297.443448 112.987152 
L 297.608243 112.94018 
L 297.772271 112.8906 
L 297.935492 112.838424 
L 298.097865 112.783665 
L 298.259349 112.726337 
L 298.419902 112.666453 
L 298.579486 112.60403 
L 298.738059 112.539083 
L 298.895581 112.471628 
L 299.052013 112.401682 
L 299.207316 112.329263 
L 299.361451 112.254389 
L 299.514378 112.177079 
L 299.666059 112.097353 
L 299.816456 112.01523 
L 299.965531 111.930731 
L 300.113247 111.843877 
L 300.259566 111.754691 
L 300.404452 111.663194 
L 300.547868 111.569411 
L 300.689778 111.473363 
L 300.830146 111.375077 
L 300.968937 111.274575 
L 301.106116 111.171884 
L 301.241648 111.06703 
L 301.3755 110.960038 
L 301.507637 110.850936 
L 301.638027 110.739752 
L 301.766636 110.626512 
L 301.893433 110.511247 
L 302.018385 110.393984 
L 302.14146 110.274753 
L 302.262628 110.153585 
L 302.381859 110.03051 
L 302.499122 109.905558 
L 302.614387 109.778761 
L 302.727627 109.650152 
L 302.838811 109.519762 
L 302.947913 109.387625 
L 303.054905 109.253773 
L 303.159759 109.118241 
L 303.26245 108.981062 
L 303.362952 108.842271 
L 303.461238 108.701903 
L 303.557286 108.559993 
L 303.651069 108.416577 
L 303.742566 108.271691 
L 303.831752 108.125372 
L 303.918606 107.977656 
L 304.003105 107.828581 
L 304.085228 107.678184 
L 304.164954 107.526503 
L 304.242264 107.373576 
L 304.317138 107.219441 
L 304.389557 107.064138 
L 304.459503 106.907706 
L 304.526958 106.750184 
L 304.591905 106.591611 
L 304.654328 106.432027 
L 304.714212 106.271474 
L 304.77154 106.10999 
L 304.826299 105.947617 
L 304.878475 105.784396 
L 304.928055 105.620368 
L 304.975027 105.455573 
L 305.019377 105.290055 
L 305.061096 105.123853 
L 305.100173 104.95701 
L 305.136598 104.789568 
L 305.170361 104.62157 
L 305.201455 104.453057 
L 305.229871 104.284071 
L 305.255603 104.114657 
L 305.278643 103.944855 
L 305.298987 103.774709 
L 305.316628 103.604262 
L 305.331563 103.433556 
L 305.343787 103.262635 
L 305.353299 103.091541 
L 305.360094 102.920318 
L 305.364172 102.749009 
L 305.365531 102.577656 
L 305.365531 73.417656 
L 305.364172 73.246304 
L 305.360094 73.074995 
L 305.353299 72.903772 
L 305.343787 72.732678 
L 305.331563 72.561757 
L 305.316628 72.391051 
L 305.298987 72.220604 
L 305.278643 72.050458 
L 305.255603 71.880656 
L 305.229871 71.711241 
L 305.201455 71.542256 
L 305.170361 71.373743 
L 305.136598 71.205744 
L 305.100173 71.038302 
L 305.061096 70.87146 
L 305.019377 70.705258 
L 304.975027 70.539739 
L 304.928055 70.374945 
L 304.878475 70.210916 
L 304.826299 70.047695 
L 304.77154 69.885322 
L 304.714212 69.723839 
L 304.654328 69.563285 
L 304.591905 69.403702 
L 304.526958 69.245129 
L 304.459503 69.087606 
L 304.389557 68.931174 
L 304.317138 68.775871 
L 304.242264 68.621737 
L 304.164954 68.46881 
L 304.085228 68.317129 
L 304.003105 68.166732 
L 303.918606 68.017656 
L 303.831752 67.86994 
L 303.742566 67.723621 
L 303.651069 67.578735 
L 303.557286 67.43532 
L 303.461238 67.29341 
L 303.362952 67.153042 
L 303.26245 67.014251 
L 303.159759 66.877072 
L 303.054905 66.741539 
L 302.947913 66.607687 
L 302.838811 66.47555 
L 302.727627 66.34516 
L 302.614387 66.216551 
L 302.499122 66.089755 
L 302.381859 65.964803 
L 302.262628 65.841727 
L 302.14146 65.720559 
L 302.018385 65.601329 
L 301.893433 65.484066 
L 301.766636 65.3688 
L 301.638027 65.255561 
L 301.507637 65.144376 
L 301.3755 65.035274 
L 301.241648 64.928283 
L 301.106116 64.823428 
L 300.968937 64.720737 
L 300.830146 64.620236 
L 300.689778 64.521949 
L 300.547868 64.425902 
L 300.404452 64.332118 
L 300.259566 64.240622 
L 300.113247 64.151435 
L 299.965531 64.064582 
L 299.816456 63.980083 
L 299.666059 63.89796 
L 299.514378 63.818233 
L 299.361451 63.740923 
L 299.207316 63.66605 
L 299.052013 63.593631 
L 298.895581 63.523685 
L 298.738059 63.45623 
L 298.579486 63.391283 
L 298.419902 63.328859 
L 298.259349 63.268976 
L 298.097865 63.211647 
L 297.935492 63.156888 
L 297.772271 63.104712 
L 297.608243 63.055132 
L 297.443448 63.008161 
L 297.27793 62.96381 
L 297.111728 62.922091 
L 296.944885 62.883015 
L 296.777443 62.84659 
L 296.609445 62.812826 
L 296.440932 62.781733 
L 296.271946 62.753316 
L 296.102532 62.727585 
L 295.93273 62.704544 
L 295.762584 62.684201 
L 295.592137 62.666559 
L 295.421431 62.651625 
L 295.25051 62.6394 
L 295.079416 62.629889 
L 294.908193 62.623094 
L 294.736884 62.619016 
L 294.565531 62.617656 
L 289.105531 62.617656 
L 288.934179 62.619016 
L 288.76287 62.623094 
L 288.591647 62.629889 
L 288.420553 62.6394 
L 288.249632 62.651625 
L 288.078926 62.666559 
L 287.908479 62.684201 
L 287.738333 62.704544 
L 287.568531 62.727585 
L 287.399116 62.753316 
L 287.230131 62.781733 
L 287.061618 62.812826 
L 286.893619 62.84659 
L 286.726177 62.883015 
L 286.559335 62.922091 
L 286.393133 62.96381 
L 286.227614 63.008161 
L 286.06282 63.055132 
L 285.898791 63.104712 
L 285.73557 63.156888 
L 285.573197 63.211647 
L 285.411714 63.268976 
L 285.25116 63.328859 
L 285.091577 63.391283 
L 284.933004 63.45623 
L 284.775481 63.523685 
L 284.619049 63.593631 
L 284.463746 63.66605 
L 284.309612 63.740923 
L 284.156685 63.818233 
L 284.005004 63.89796 
L 283.854607 63.980083 
L 283.705531 64.064582 
L 283.557815 64.151435 
L 283.411496 64.240622 
L 283.26661 64.332118 
L 283.123195 64.425902 
L 282.981285 64.521949 
L 282.840917 64.620236 
L 282.702126 64.720737 
L 282.564947 64.823428 
L 282.429414 64.928283 
L 282.295562 65.035274 
L 282.163425 65.144376 
L 282.033035 65.255561 
L 281.904426 65.3688 
L 281.77763 65.484066 
L 281.652678 65.601329 
L 281.529602 65.720559 
L 281.408434 65.841727 
L 281.289204 65.964803 
L 281.171941 66.089755 
L 281.056675 66.216551 
L 280.943436 66.34516 
L 280.832251 66.47555 
L 280.723149 66.607687 
L 280.616158 66.741539 
L 280.511303 66.877072 
L 280.408612 67.014251 
L 280.308111 67.153042 
L 280.209824 67.29341 
L 280.113777 67.43532 
L 280.019993 67.578735 
L 279.928497 67.723621 
L 279.83931 67.86994 
L 279.752457 68.017656 
L 279.667958 68.166732 
L 279.585835 68.317129 
L 279.506108 68.46881 
L 279.428798 68.621737 
L 279.353925 68.775871 
L 279.281506 68.931174 
L 279.21156 69.087606 
L 279.144105 69.245129 
L 279.079158 69.403702 
L 279.016734 69.563285 
L 278.956851 69.723839 
L 278.899522 69.885322 
L 278.844763 70.047695 
L 278.792587 70.210916 
L 278.743007 70.374945 
L 278.696036 70.539739 
L 278.651685 70.705258 
L 278.609966 70.87146 
L 278.57089 71.038302 
L 278.534465 71.205744 
L 278.500701 71.373743 
L 278.469608 71.542256 
L 278.441191 71.711241 
L 278.41546 71.880656 
L 278.392419 72.050458 
L 278.372076 72.220604 
L 278.354434 72.391051 
L 278.3395 72.561757 
L 278.327275 72.732678 
L 278.317764 72.903772 
L 278.310969 73.074995 
L 278.306891 73.246304 
L 278.305531 73.417656 
L 278.305531 102.577656 
L 278.306891 102.749009 
L 278.310969 102.920318 
L 278.317764 103.091541 
L 278.327275 103.262635 
L 278.3395 103.433556 
L 278.354434 103.604262 
L 278.372076 103.774709 
L 278.392419 103.944855 
L 278.41546 104.114657 
L 278.441191 104.284071 
L 278.469608 104.453057 
L 278.500701 104.62157 
L 278.534465 104.789568 
L 278.57089 104.95701 
L 278.609966 105.123853 
L 278.651685 105.290055 
L 278.696036 105.455573 
L 278.743007 105.620368 
L 278.792587 105.784396 
L 278.844763 105.947617 
L 278.899522 106.10999 
L 278.956851 106.271474 
L 279.016734 106.432027 
L 279.079158 106.591611 
L 279.144105 106.750184 
L 279.21156 106.907706 
L 279.281506 107.064138 
L 279.353925 107.219441 
L 279.428798 107.373576 
L 279.506108 107.526503 
L 279.585835 107.678184 
L 279.667958 107.828581 
L 279.752457 107.977656 
L 279.83931 108.125372 
L 279.928497 108.271691 
L 280.019993 108.416577 
L 280.113777 108.559993 
L 280.209824 108.701903 
L 280.308111 108.842271 
L 280.408612 108.981062 
L 280.511303 109.118241 
L 280.616158 109.253773 
L 280.723149 109.387625 
L 280.832251 109.519762 
L 280.943436 109.650152 
L 281.056675 109.778761 
L 281.171941 109.905558 
L 281.289204 110.03051 
L 281.408434 110.153585 
L 281.529602 110.274753 
L 281.652678 110.393984 
L 281.77763 110.511247 
L 281.904426 110.626512 
L 282.033035 110.739752 
L 282.163425 110.850936 
L 282.295562 110.960038 
L 282.429414 111.06703 
L 282.564947 111.171884 
L 282.702126 111.274575 
L 282.840917 111.375077 
L 282.981285 111.473363 
L 283.123195 111.569411 
L 283.26661 111.663194 
L 283.411496 111.754691 
L 283.557815 111.843877 
L 283.705531 111.930731 
L 283.854607 112.01523 
L 284.005004 112.097353 
L 284.156685 112.177079 
L 284.309612 112.254389 
L 284.463746 112.329263 
L 284.619049 112.401682 
L 284.775481 112.471628 
L 284.933004 112.539083 
L 285.091577 112.60403 
L 285.25116 112.666453 
L 285.411714 112.726337 
L 285.573197 112.783665 
L 285.73557 112.838424 
L 285.898791 112.8906 
L 286.06282 112.94018 
L 286.227614 112.987152 
L 286.393133 113.031502 
L 286.559335 113.073221 
L 286.726177 113.112298 
L 286.893619 113.148723 
L 287.061618 113.182486 
L 287.230131 113.21358 
L 287.399116 113.241996 
L 287.568531 113.267728 
L 287.738333 113.290768 
L 287.908479 113.311112 
L 288.078926 113.328753 
L 288.249632 113.343688 
L 288.420553 113.355912 
L 288.591647 113.365424 
L 288.76287 113.372219 
L 288.934179 113.376297 
L 289.105531 113.377656 
L 294.565531 113.377656 
z
" clip-path="url(#pcbc83e2327)" style="fill: none; stroke-dasharray: 1.85,0.8; stroke-dashoffset: 0; stroke: #008000; stroke-width: 0.5; stroke-linecap: round"/>
   </g>
   <g id="patch_3">
    <path d="M 294.565531 220.777656 
L 294.736884 220.776297 
L 294.908193 220.772219 
L 295.079416 220.765424 
L 295.25051 220.755912 
L 295.421431 220.743688 
L 295.592137 220.728753 
L 295.762584 220.711112 
L 295.93273 220.690768 
L 296.102532 220.667728 
L 296.271946 220.641996 
L 296.440932 220.61358 
L 296.609445 220.582486 
L 296.777443 220.548723 
L 296.944885 220.512298 
L 297.111728 220.473221 
L 297.27793 220.431502 
L 297.443448 220.387152 
L 297.608243 220.34018 
L 297.772271 220.2906 
L 297.935492 220.238424 
L 298.097865 220.183665 
L 298.259349 220.126337 
L 298.419902 220.066453 
L 298.579486 220.00403 
L 298.738059 219.939083 
L 298.895581 219.871628 
L 299.052013 219.801682 
L 299.207316 219.729263 
L 299.361451 219.654389 
L 299.514378 219.577079 
L 299.666059 219.497353 
L 299.816456 219.41523 
L 299.965531 219.330731 
L 300.113247 219.243877 
L 300.259566 219.154691 
L 300.404452 219.063194 
L 300.547868 218.969411 
L 300.689778 218.873363 
L 300.830146 218.775077 
L 300.968937 218.674575 
L 301.106116 218.571884 
L 301.241648 218.46703 
L 301.3755 218.360038 
L 301.507637 218.250936 
L 301.638027 218.139752 
L 301.766636 218.026512 
L 301.893433 217.911247 
L 302.018385 217.793984 
L 302.14146 217.674753 
L 302.262628 217.553585 
L 302.381859 217.43051 
L 302.499122 217.305558 
L 302.614387 217.178761 
L 302.727627 217.050152 
L 302.838811 216.919762 
L 302.947913 216.787625 
L 303.054905 216.653773 
L 303.159759 216.518241 
L 303.26245 216.381062 
L 303.362952 216.242271 
L 303.461238 216.101903 
L 303.557286 215.959993 
L 303.651069 215.816577 
L 303.742566 215.671691 
L 303.831752 215.525372 
L 303.918606 215.377656 
L 304.003105 215.228581 
L 304.085228 215.078184 
L 304.164954 214.926503 
L 304.242264 214.773576 
L 304.317138 214.619441 
L 304.389557 214.464138 
L 304.459503 214.307706 
L 304.526958 214.150184 
L 304.591905 213.991611 
L 304.654328 213.832027 
L 304.714212 213.671474 
L 304.77154 213.50999 
L 304.826299 213.347617 
L 304.878475 213.184396 
L 304.928055 213.020368 
L 304.975027 212.855573 
L 305.019377 212.690055 
L 305.061096 212.523853 
L 305.100173 212.35701 
L 305.136598 212.189568 
L 305.170361 212.02157 
L 305.201455 211.853057 
L 305.229871 211.684071 
L 305.255603 211.514657 
L 305.278643 211.344855 
L 305.298987 211.174709 
L 305.316628 211.004262 
L 305.331563 210.833556 
L 305.343787 210.662635 
L 305.353299 210.491541 
L 305.360094 210.320318 
L 305.364172 210.149009 
L 305.365531 209.977656 
L 305.365531 180.817656 
L 305.364172 180.646304 
L 305.360094 180.474995 
L 305.353299 180.303772 
L 305.343787 180.132678 
L 305.331563 179.961757 
L 305.316628 179.791051 
L 305.298987 179.620604 
L 305.278643 179.450458 
L 305.255603 179.280656 
L 305.229871 179.111241 
L 305.201455 178.942256 
L 305.170361 178.773743 
L 305.136598 178.605744 
L 305.100173 178.438302 
L 305.061096 178.27146 
L 305.019377 178.105258 
L 304.975027 177.939739 
L 304.928055 177.774945 
L 304.878475 177.610916 
L 304.826299 177.447695 
L 304.77154 177.285322 
L 304.714212 177.123839 
L 304.654328 176.963285 
L 304.591905 176.803702 
L 304.526958 176.645129 
L 304.459503 176.487606 
L 304.389557 176.331174 
L 304.317138 176.175871 
L 304.242264 176.021737 
L 304.164954 175.86881 
L 304.085228 175.717129 
L 304.003105 175.566732 
L 303.918606 175.417656 
L 303.831752 175.26994 
L 303.742566 175.123621 
L 303.651069 174.978735 
L 303.557286 174.83532 
L 303.461238 174.69341 
L 303.362952 174.553042 
L 303.26245 174.414251 
L 303.159759 174.277072 
L 303.054905 174.141539 
L 302.947913 174.007687 
L 302.838811 173.87555 
L 302.727627 173.74516 
L 302.614387 173.616551 
L 302.499122 173.489755 
L 302.381859 173.364803 
L 302.262628 173.241727 
L 302.14146 173.120559 
L 302.018385 173.001329 
L 301.893433 172.884066 
L 301.766636 172.7688 
L 301.638027 172.655561 
L 301.507637 172.544376 
L 301.3755 172.435274 
L 301.241648 172.328283 
L 301.106116 172.223428 
L 300.968937 172.120737 
L 300.830146 172.020236 
L 300.689778 171.921949 
L 300.547868 171.825902 
L 300.404452 171.732118 
L 300.259566 171.640622 
L 300.113247 171.551435 
L 299.965531 171.464582 
L 299.816456 171.380083 
L 299.666059 171.29796 
L 299.514378 171.218233 
L 299.361451 171.140923 
L 299.207316 171.06605 
L 299.052013 170.993631 
L 298.895581 170.923685 
L 298.738059 170.85623 
L 298.579486 170.791283 
L 298.419902 170.728859 
L 298.259349 170.668976 
L 298.097865 170.611647 
L 297.935492 170.556888 
L 297.772271 170.504712 
L 297.608243 170.455132 
L 297.443448 170.408161 
L 297.27793 170.36381 
L 297.111728 170.322091 
L 296.944885 170.283015 
L 296.777443 170.24659 
L 296.609445 170.212826 
L 296.440932 170.181733 
L 296.271946 170.153316 
L 296.102532 170.127585 
L 295.93273 170.104544 
L 295.762584 170.084201 
L 295.592137 170.066559 
L 295.421431 170.051625 
L 295.25051 170.0394 
L 295.079416 170.029889 
L 294.908193 170.023094 
L 294.736884 170.019016 
L 294.565531 170.017656 
L 289.105531 170.017656 
L 288.934179 170.019016 
L 288.76287 170.023094 
L 288.591647 170.029889 
L 288.420553 170.0394 
L 288.249632 170.051625 
L 288.078926 170.066559 
L 287.908479 170.084201 
L 287.738333 170.104544 
L 287.568531 170.127585 
L 287.399116 170.153316 
L 287.230131 170.181733 
L 287.061618 170.212826 
L 286.893619 170.24659 
L 286.726177 170.283015 
L 286.559335 170.322091 
L 286.393133 170.36381 
L 286.227614 170.408161 
L 286.06282 170.455132 
L 285.898791 170.504712 
L 285.73557 170.556888 
L 285.573197 170.611647 
L 285.411714 170.668976 
L 285.25116 170.728859 
L 285.091577 170.791283 
L 284.933004 170.85623 
L 284.775481 170.923685 
L 284.619049 170.993631 
L 284.463746 171.06605 
L 284.309612 171.140923 
L 284.156685 171.218233 
L 284.005004 171.29796 
L 283.854607 171.380083 
L 283.705531 171.464582 
L 283.557815 171.551435 
L 283.411496 171.640622 
L 283.26661 171.732118 
L 283.123195 171.825902 
L 282.981285 171.921949 
L 282.840917 172.020236 
L 282.702126 172.120737 
L 282.564947 172.223428 
L 282.429414 172.328283 
L 282.295562 172.435274 
L 282.163425 172.544376 
L 282.033035 172.655561 
L 281.904426 172.7688 
L 281.77763 172.884066 
L 281.652678 173.001329 
L 281.529602 173.120559 
L 281.408434 173.241727 
L 281.289204 173.364803 
L 281.171941 173.489755 
L 281.056675 173.616551 
L 280.943436 173.74516 
L 280.832251 173.87555 
L 280.723149 174.007687 
L 280.616158 174.141539 
L 280.511303 174.277072 
L 280.408612 174.414251 
L 280.308111 174.553042 
L 280.209824 174.69341 
L 280.113777 174.83532 
L 280.019993 174.978735 
L 279.928497 175.123621 
L 279.83931 175.26994 
L 279.752457 175.417656 
L 279.667958 175.566732 
L 279.585835 175.717129 
L 279.506108 175.86881 
L 279.428798 176.021737 
L 279.353925 176.175871 
L 279.281506 176.331174 
L 279.21156 176.487606 
L 279.144105 176.645129 
L 279.079158 176.803702 
L 279.016734 176.963285 
L 278.956851 177.123839 
L 278.899522 177.285322 
L 278.844763 177.447695 
L 278.792587 177.610916 
L 278.743007 177.774945 
L 278.696036 177.939739 
L 278.651685 178.105258 
L 278.609966 178.27146 
L 278.57089 178.438302 
L 278.534465 178.605744 
L 278.500701 178.773743 
L 278.469608 178.942256 
L 278.441191 179.111241 
L 278.41546 179.280656 
L 278.392419 179.450458 
L 278.372076 179.620604 
L 278.354434 179.791051 
L 278.3395 179.961757 
L 278.327275 180.132678 
L 278.317764 180.303772 
L 278.310969 180.474995 
L 278.306891 180.646304 
L 278.305531 180.817656 
L 278.305531 209.977656 
L 278.306891 210.149009 
L 278.310969 210.320318 
L 278.317764 210.491541 
L 278.327275 210.662635 
L 278.3395 210.833556 
L 278.354434 211.004262 
L 278.372076 211.174709 
L 278.392419 211.344855 
L 278.41546 211.514657 
L 278.441191 211.684071 
L 278.469608 211.853057 
L 278.500701 212.02157 
L 278.534465 212.189568 
L 278.57089 212.35701 
L 278.609966 212.523853 
L 278.651685 212.690055 
L 278.696036 212.855573 
L 278.743007 213.020368 
L 278.792587 213.184396 
L 278.844763 213.347617 
L 278.899522 213.50999 
L 278.956851 213.671474 
L 279.016734 213.832027 
L 279.079158 213.991611 
L 279.144105 214.150184 
L 279.21156 214.307706 
L 279.281506 214.464138 
L 279.353925 214.619441 
L 279.428798 214.773576 
L 279.506108 214.926503 
L 279.585835 215.078184 
L 279.667958 215.228581 
L 279.752457 215.377656 
L 279.83931 215.525372 
L 279.928497 215.671691 
L 280.019993 215.816577 
L 280.113777 215.959993 
L 280.209824 216.101903 
L 280.308111 216.242271 
L 280.408612 216.381062 
L 280.511303 216.518241 
L 280.616158 216.653773 
L 280.723149 216.787625 
L 280.832251 216.919762 
L 280.943436 217.050152 
L 281.056675 217.178761 
L 281.171941 217.305558 
L 281.289204 217.43051 
L 281.408434 217.553585 
L 281.529602 217.674753 
L 281.652678 217.793984 
L 281.77763 217.911247 
L 281.904426 218.026512 
L 282.033035 218.139752 
L 282.163425 218.250936 
L 282.295562 218.360038 
L 282.429414 218.46703 
L 282.564947 218.571884 
L 282.702126 218.674575 
L 282.840917 218.775077 
L 282.981285 218.873363 
L 283.123195 218.969411 
L 283.26661 219.063194 
L 283.411496 219.154691 
L 283.557815 219.243877 
L 283.705531 219.330731 
L 283.854607 219.41523 
L 284.005004 219.497353 
L 284.156685 219.577079 
L 284.309612 219.654389 
L 284.463746 219.729263 
L 284.619049 219.801682 
L 284.775481 219.871628 
L 284.933004 219.939083 
L 285.091577 220.00403 
L 285.25116 220.066453 
L 285.411714 220.126337 
L 285.573197 220.183665 
L 285.73557 220.238424 
L 285.898791 220.2906 
L 286.06282 220.34018 
L 286.227614 220.387152 
L 286.393133 220.431502 
L 286.559335 220.473221 
L 286.726177 220.512298 
L 286.893619 220.548723 
L 287.061618 220.582486 
L 287.230131 220.61358 
L 287.399116 220.641996 
L 287.568531 220.667728 
L 287.738333 220.690768 
L 287.908479 220.711112 
L 288.078926 220.728753 
L 288.249632 220.743688 
L 288.420553 220.755912 
L 288.591647 220.765424 
L 288.76287 220.772219 
L 288.934179 220.776297 
L 289.105531 220.777656 
L 294.565531 220.777656 
z
" clip-path="url(#pcbc83e2327)" style="fill: none; stroke-dasharray: 1.85,0.8; stroke-dashoffset: 0; stroke: #008000; stroke-width: 0.5; stroke-linecap: round"/>
   </g>
   <g id="patch_4">
    <path d="M 247.765531 192.097656 
L 247.936884 192.096297 
L 248.108193 192.092219 
L 248.279416 192.085424 
L 248.45051 192.075912 
L 248.621431 192.063688 
L 248.792137 192.048753 
L 248.962584 192.031112 
L 249.13273 192.010768 
L 249.302532 191.987728 
L 249.471946 191.961996 
L 249.640932 191.93358 
L 249.809445 191.902486 
L 249.977443 191.868723 
L 250.144885 191.832298 
L 250.311728 191.793221 
L 250.47793 191.751502 
L 250.643448 191.707152 
L 250.808243 191.66018 
L 250.972271 191.6106 
L 251.135492 191.558424 
L 251.297865 191.503665 
L 251.459349 191.446337 
L 251.619902 191.386453 
L 251.779486 191.32403 
L 251.938059 191.259083 
L 252.095581 191.191628 
L 252.252013 191.121682 
L 252.407316 191.049263 
L 252.561451 190.974389 
L 252.714378 190.897079 
L 252.866059 190.817353 
L 253.016456 190.73523 
L 253.165531 190.650731 
L 253.313247 190.563877 
L 253.459566 190.474691 
L 253.604452 190.383194 
L 253.747868 190.289411 
L 253.889778 190.193363 
L 254.030146 190.095077 
L 254.168937 189.994575 
L 254.306116 189.891884 
L 254.441648 189.78703 
L 254.5755 189.680038 
L 254.707637 189.570936 
L 254.838027 189.459752 
L 254.966636 189.346512 
L 255.093433 189.231247 
L 255.218385 189.113984 
L 255.34146 188.994753 
L 255.462628 188.873585 
L 255.581859 188.75051 
L 255.699122 188.625558 
L 255.814387 188.498761 
L 255.927627 188.370152 
L 256.038811 188.239762 
L 256.147913 188.107625 
L 256.254905 187.973773 
L 256.359759 187.838241 
L 256.46245 187.701062 
L 256.562952 187.562271 
L 256.661238 187.421903 
L 256.757286 187.279993 
L 256.851069 187.136577 
L 256.942566 186.991691 
L 257.031752 186.845372 
L 257.118606 186.697656 
L 257.203105 186.548581 
L 257.285228 186.398184 
L 257.364954 186.246503 
L 257.442264 186.093576 
L 257.517138 185.939441 
L 257.589557 185.784138 
L 257.659503 185.627706 
L 257.726958 185.470184 
L 257.791905 185.311611 
L 257.854328 185.152027 
L 257.914212 184.991474 
L 257.97154 184.82999 
L 258.026299 184.667617 
L 258.078475 184.504396 
L 258.128055 184.340368 
L 258.175027 184.175573 
L 258.219377 184.010055 
L 258.261096 183.843853 
L 258.300173 183.67701 
L 258.336598 183.509568 
L 258.370361 183.34157 
L 258.401455 183.173057 
L 258.429871 183.004071 
L 258.455603 182.834657 
L 258.478643 182.664855 
L 258.498987 182.494709 
L 258.516628 182.324262 
L 258.531563 182.153556 
L 258.543787 181.982635 
L 258.553299 181.811541 
L 258.560094 181.640318 
L 258.564172 181.469009 
L 258.565531 181.297656 
L 258.565531 102.097656 
L 258.564172 101.926304 
L 258.560094 101.754995 
L 258.553299 101.583772 
L 258.543787 101.412678 
L 258.531563 101.241757 
L 258.516628 101.071051 
L 258.498987 100.900604 
L 258.478643 100.730458 
L 258.455603 100.560656 
L 258.429871 100.391241 
L 258.401455 100.222256 
L 258.370361 100.053743 
L 258.336598 99.885744 
L 258.300173 99.718302 
L 258.261096 99.55146 
L 258.219377 99.385258 
L 258.175027 99.219739 
L 258.128055 99.054945 
L 258.078475 98.890916 
L 258.026299 98.727695 
L 257.97154 98.565322 
L 257.914212 98.403839 
L 257.854328 98.243285 
L 257.791905 98.083702 
L 257.726958 97.925129 
L 257.659503 97.767606 
L 257.589557 97.611174 
L 257.517138 97.455871 
L 257.442264 97.301737 
L 257.364954 97.14881 
L 257.285228 96.997129 
L 257.203105 96.846732 
L 257.118606 96.697656 
L 257.031752 96.54994 
L 256.942566 96.403621 
L 256.851069 96.258735 
L 256.757286 96.11532 
L 256.661238 95.97341 
L 256.562952 95.833042 
L 256.46245 95.694251 
L 256.359759 95.557072 
L 256.254905 95.421539 
L 256.147913 95.287687 
L 256.038811 95.15555 
L 255.927627 95.02516 
L 255.814387 94.896551 
L 255.699122 94.769755 
L 255.581859 94.644803 
L 255.462628 94.521727 
L 255.34146 94.400559 
L 255.218385 94.281329 
L 255.093433 94.164066 
L 254.966636 94.0488 
L 254.838027 93.935561 
L 254.707637 93.824376 
L 254.5755 93.715274 
L 254.441648 93.608283 
L 254.306116 93.503428 
L 254.168937 93.400737 
L 254.030146 93.300236 
L 253.889778 93.201949 
L 253.747868 93.105902 
L 253.604452 93.012118 
L 253.459566 92.920622 
L 253.313247 92.831435 
L 253.165531 92.744582 
L 253.016456 92.660083 
L 252.866059 92.57796 
L 252.714378 92.498233 
L 252.561451 92.420923 
L 252.407316 92.34605 
L 252.252013 92.273631 
L 252.095581 92.203685 
L 251.938059 92.13623 
L 251.779486 92.071283 
L 251.619902 92.008859 
L 251.459349 91.948976 
L 251.297865 91.891647 
L 251.135492 91.836888 
L 250.972271 91.784712 
L 250.808243 91.735132 
L 250.643448 91.688161 
L 250.47793 91.64381 
L 250.311728 91.602091 
L 250.144885 91.563015 
L 249.977443 91.52659 
L 249.809445 91.492826 
L 249.640932 91.461733 
L 249.471946 91.433316 
L 249.302532 91.407585 
L 249.13273 91.384544 
L 248.962584 91.364201 
L 248.792137 91.346559 
L 248.621431 91.331625 
L 248.45051 91.3194 
L 248.279416 91.309889 
L 248.108193 91.303094 
L 247.936884 91.299016 
L 247.765531 91.297656 
L 180.469531 91.297656 
L 180.298179 91.299016 
L 180.12687 91.303094 
L 179.955647 91.309889 
L 179.784553 91.3194 
L 179.613632 91.331625 
L 179.442926 91.346559 
L 179.272479 91.364201 
L 179.102333 91.384544 
L 178.932531 91.407585 
L 178.763116 91.433316 
L 178.594131 91.461733 
L 178.425618 91.492826 
L 178.257619 91.52659 
L 178.090177 91.563015 
L 177.923335 91.602091 
L 177.757133 91.64381 
L 177.591614 91.688161 
L 177.42682 91.735132 
L 177.262791 91.784712 
L 177.09957 91.836888 
L 176.937197 91.891647 
L 176.775714 91.948976 
L 176.61516 92.008859 
L 176.455577 92.071283 
L 176.297004 92.13623 
L 176.139481 92.203685 
L 175.983049 92.273631 
L 175.827746 92.34605 
L 175.673612 92.420923 
L 175.520685 92.498233 
L 175.369004 92.57796 
L 175.218607 92.660083 
L 175.069531 92.744582 
L 174.921815 92.831435 
L 174.775496 92.920622 
L 174.63061 93.012118 
L 174.487195 93.105902 
L 174.345285 93.201949 
L 174.204917 93.300236 
L 174.066126 93.400737 
L 173.928947 93.503428 
L 173.793414 93.608283 
L 173.659562 93.715274 
L 173.527425 93.824376 
L 173.397035 93.935561 
L 173.268426 94.0488 
L 173.14163 94.164066 
L 173.016678 94.281329 
L 172.893602 94.400559 
L 172.772434 94.521727 
L 172.653204 94.644803 
L 172.535941 94.769755 
L 172.420675 94.896551 
L 172.307436 95.02516 
L 172.196251 95.15555 
L 172.087149 95.287687 
L 171.980158 95.421539 
L 171.875303 95.557072 
L 171.772612 95.694251 
L 171.672111 95.833042 
L 171.573824 95.97341 
L 171.477777 96.11532 
L 171.383993 96.258735 
L 171.292497 96.403621 
L 171.20331 96.54994 
L 171.116457 96.697656 
L 171.031958 96.846732 
L 170.949835 96.997129 
L 170.870108 97.14881 
L 170.792798 97.301737 
L 170.717925 97.455871 
L 170.645506 97.611174 
L 170.57556 97.767606 
L 170.508105 97.925129 
L 170.443158 98.083702 
L 170.380734 98.243285 
L 170.320851 98.403839 
L 170.263522 98.565322 
L 170.208763 98.727695 
L 170.156587 98.890916 
L 170.107007 99.054945 
L 170.060036 99.219739 
L 170.015685 99.385258 
L 169.973966 99.55146 
L 169.93489 99.718302 
L 169.898465 99.885744 
L 169.864701 100.053743 
L 169.833608 100.222256 
L 169.805191 100.391241 
L 169.77946 100.560656 
L 169.756419 100.730458 
L 169.736076 100.900604 
L 169.718434 101.071051 
L 169.7035 101.241757 
L 169.691275 101.412678 
L 169.681764 101.583772 
L 169.674969 101.754995 
L 169.670891 101.926304 
L 169.669531 102.097656 
L 169.669531 181.297656 
L 169.670891 181.469009 
L 169.674969 181.640318 
L 169.681764 181.811541 
L 169.691275 181.982635 
L 169.7035 182.153556 
L 169.718434 182.324262 
L 169.736076 182.494709 
L 169.756419 182.664855 
L 169.77946 182.834657 
L 169.805191 183.004071 
L 169.833608 183.173057 
L 169.864701 183.34157 
L 169.898465 183.509568 
L 169.93489 183.67701 
L 169.973966 183.843853 
L 170.015685 184.010055 
L 170.060036 184.175573 
L 170.107007 184.340368 
L 170.156587 184.504396 
L 170.208763 184.667617 
L 170.263522 184.82999 
L 170.320851 184.991474 
L 170.380734 185.152027 
L 170.443158 185.311611 
L 170.508105 185.470184 
L 170.57556 185.627706 
L 170.645506 185.784138 
L 170.717925 185.939441 
L 170.792798 186.093576 
L 170.870108 186.246503 
L 170.949835 186.398184 
L 171.031958 186.548581 
L 171.116457 186.697656 
L 171.20331 186.845372 
L 171.292497 186.991691 
L 171.383993 187.136577 
L 171.477777 187.279993 
L 171.573824 187.421903 
L 171.672111 187.562271 
L 171.772612 187.701062 
L 171.875303 187.838241 
L 171.980158 187.973773 
L 172.087149 188.107625 
L 172.196251 188.239762 
L 172.307436 188.370152 
L 172.420675 188.498761 
L 172.535941 188.625558 
L 172.653204 188.75051 
L 172.772434 188.873585 
L 172.893602 188.994753 
L 173.016678 189.113984 
L 173.14163 189.231247 
L 173.268426 189.346512 
L 173.397035 189.459752 
L 173.527425 189.570936 
L 173.659562 189.680038 
L 173.793414 189.78703 
L 173.928947 189.891884 
L 174.066126 189.994575 
L 174.204917 190.095077 
L 174.345285 190.193363 
L 174.487195 190.289411 
L 174.63061 190.383194 
L 174.775496 190.474691 
L 174.921815 190.563877 
L 175.069531 190.650731 
L 175.218607 190.73523 
L 175.369004 190.817353 
L 175.520685 190.897079 
L 175.673612 190.974389 
L 175.827746 191.049263 
L 175.983049 191.121682 
L 176.139481 191.191628 
L 176.297004 191.259083 
L 176.455577 191.32403 
L 176.61516 191.386453 
L 176.775714 191.446337 
L 176.937197 191.503665 
L 177.09957 191.558424 
L 177.262791 191.6106 
L 177.42682 191.66018 
L 177.591614 191.707152 
L 177.757133 191.751502 
L 177.923335 191.793221 
L 178.090177 191.832298 
L 178.257619 191.868723 
L 178.425618 191.902486 
L 178.594131 191.93358 
L 178.763116 191.961996 
L 178.932531 191.987728 
L 179.102333 192.010768 
L 179.272479 192.031112 
L 179.442926 192.048753 
L 179.613632 192.063688 
L 179.784553 192.075912 
L 179.955647 192.085424 
L 180.12687 192.092219 
L 180.298179 192.096297 
L 180.469531 192.097656 
L 247.765531 192.097656 
z
" clip-path="url(#pcbc83e2327)" style="fill: none; stroke-dasharray: 1.85,0.8; stroke-dashoffset: 0; stroke: #ff0000; stroke-width: 0.5; stroke-linecap: round"/>
   </g>
   <g id="patch_5">
    <path d="M 229.705531 87.697656 
L 229.876884 87.696297 
L 230.048193 87.692219 
L 230.219416 87.685424 
L 230.39051 87.675912 
L 230.561431 87.663688 
L 230.732137 87.648753 
L 230.902584 87.631112 
L 231.07273 87.610768 
L 231.242532 87.587728 
L 231.411946 87.561996 
L 231.580932 87.53358 
L 231.749445 87.502486 
L 231.917443 87.468723 
L 232.084885 87.432298 
L 232.251728 87.393221 
L 232.41793 87.351502 
L 232.583448 87.307152 
L 232.748243 87.26018 
L 232.912271 87.2106 
L 233.075492 87.158424 
L 233.237865 87.103665 
L 233.399349 87.046337 
L 233.559902 86.986453 
L 233.719486 86.92403 
L 233.878059 86.859083 
L 234.035581 86.791628 
L 234.192013 86.721682 
L 234.347316 86.649263 
L 234.501451 86.574389 
L 234.654378 86.497079 
L 234.806059 86.417353 
L 234.956456 86.33523 
L 235.105531 86.250731 
L 235.253247 86.163877 
L 235.399566 86.074691 
L 235.544452 85.983194 
L 235.687868 85.889411 
L 235.829778 85.793363 
L 235.970146 85.695077 
L 236.108937 85.594575 
L 236.246116 85.491884 
L 236.381648 85.38703 
L 236.5155 85.280038 
L 236.647637 85.170936 
L 236.778027 85.059752 
L 236.906636 84.946512 
L 237.033433 84.831247 
L 237.158385 84.713984 
L 237.28146 84.594753 
L 237.402628 84.473585 
L 237.521859 84.35051 
L 237.639122 84.225558 
L 237.754387 84.098761 
L 237.867627 83.970152 
L 237.978811 83.839762 
L 238.087913 83.707625 
L 238.194905 83.573773 
L 238.299759 83.438241 
L 238.40245 83.301062 
L 238.502952 83.162271 
L 238.601238 83.021903 
L 238.697286 82.879993 
L 238.791069 82.736577 
L 238.882566 82.591691 
L 238.971752 82.445372 
L 239.058606 82.297656 
L 239.143105 82.148581 
L 239.225228 81.998184 
L 239.304954 81.846503 
L 239.382264 81.693576 
L 239.457138 81.539441 
L 239.529557 81.384138 
L 239.599503 81.227706 
L 239.666958 81.070184 
L 239.731905 80.911611 
L 239.794328 80.752027 
L 239.854212 80.591474 
L 239.91154 80.42999 
L 239.966299 80.267617 
L 240.018475 80.104396 
L 240.068055 79.940368 
L 240.115027 79.775573 
L 240.159377 79.610055 
L 240.201096 79.443853 
L 240.240173 79.27701 
L 240.276598 79.109568 
L 240.310361 78.94157 
L 240.341455 78.773057 
L 240.369871 78.604071 
L 240.395603 78.434657 
L 240.418643 78.264855 
L 240.438987 78.094709 
L 240.456628 77.924262 
L 240.471563 77.753556 
L 240.483787 77.582635 
L 240.493299 77.411541 
L 240.500094 77.240318 
L 240.504172 77.069009 
L 240.505531 76.897656 
L 240.505531 44.497656 
L 240.504172 44.326304 
L 240.500094 44.154995 
L 240.493299 43.983772 
L 240.483787 43.812678 
L 240.471563 43.641757 
L 240.456628 43.471051 
L 240.438987 43.300604 
L 240.418643 43.130458 
L 240.395603 42.960656 
L 240.369871 42.791241 
L 240.341455 42.622256 
L 240.310361 42.453743 
L 240.276598 42.285744 
L 240.240173 42.118302 
L 240.201096 41.95146 
L 240.159377 41.785258 
L 240.115027 41.619739 
L 240.068055 41.454945 
L 240.018475 41.290916 
L 239.966299 41.127695 
L 239.91154 40.965322 
L 239.854212 40.803839 
L 239.794328 40.643285 
L 239.731905 40.483702 
L 239.666958 40.325129 
L 239.599503 40.167606 
L 239.529557 40.011174 
L 239.457138 39.855871 
L 239.382264 39.701737 
L 239.304954 39.54881 
L 239.225228 39.397129 
L 239.143105 39.246732 
L 239.058606 39.097656 
L 238.971752 38.94994 
L 238.882566 38.803621 
L 238.791069 38.658735 
L 238.697286 38.51532 
L 238.601238 38.37341 
L 238.502952 38.233042 
L 238.40245 38.094251 
L 238.299759 37.957072 
L 238.194905 37.821539 
L 238.087913 37.687687 
L 237.978811 37.55555 
L 237.867627 37.42516 
L 237.754387 37.296551 
L 237.639122 37.169755 
L 237.521859 37.044803 
L 237.402628 36.921727 
L 237.28146 36.800559 
L 237.158385 36.681329 
L 237.033433 36.564066 
L 236.906636 36.4488 
L 236.778027 36.335561 
L 236.647637 36.224376 
L 236.5155 36.115274 
L 236.381648 36.008283 
L 236.246116 35.903428 
L 236.108937 35.800737 
L 235.970146 35.700236 
L 235.829778 35.601949 
L 235.687868 35.505902 
L 235.544452 35.412118 
L 235.399566 35.320622 
L 235.253247 35.231435 
L 235.105531 35.144582 
L 234.956456 35.060083 
L 234.806059 34.97796 
L 234.654378 34.898233 
L 234.501451 34.820923 
L 234.347316 34.74605 
L 234.192013 34.673631 
L 234.035581 34.603685 
L 233.878059 34.53623 
L 233.719486 34.471283 
L 233.559902 34.408859 
L 233.399349 34.348976 
L 233.237865 34.291647 
L 233.075492 34.236888 
L 232.912271 34.184712 
L 232.748243 34.135132 
L 232.583448 34.088161 
L 232.41793 34.04381 
L 232.251728 34.002091 
L 232.084885 33.963015 
L 231.917443 33.92659 
L 231.749445 33.892826 
L 231.580932 33.861733 
L 231.411946 33.833316 
L 231.242532 33.807585 
L 231.07273 33.784544 
L 230.902584 33.764201 
L 230.732137 33.746559 
L 230.561431 33.731625 
L 230.39051 33.7194 
L 230.219416 33.709889 
L 230.048193 33.703094 
L 229.876884 33.699016 
L 229.705531 33.697656 
L 192.397531 33.697656 
L 192.226179 33.699016 
L 192.05487 33.703094 
L 191.883647 33.709889 
L 191.712553 33.7194 
L 191.541632 33.731625 
L 191.370926 33.746559 
L 191.200479 33.764201 
L 191.030333 33.784544 
L 190.860531 33.807585 
L 190.691116 33.833316 
L 190.522131 33.861733 
L 190.353618 33.892826 
L 190.185619 33.92659 
L 190.018177 33.963015 
L 189.851335 34.002091 
L 189.685133 34.04381 
L 189.519614 34.088161 
L 189.35482 34.135132 
L 189.190791 34.184712 
L 189.02757 34.236888 
L 188.865197 34.291647 
L 188.703714 34.348976 
L 188.54316 34.408859 
L 188.383577 34.471283 
L 188.225004 34.53623 
L 188.067481 34.603685 
L 187.911049 34.673631 
L 187.755746 34.74605 
L 187.601612 34.820923 
L 187.448685 34.898233 
L 187.297004 34.97796 
L 187.146607 35.060083 
L 186.997531 35.144582 
L 186.849815 35.231435 
L 186.703496 35.320622 
L 186.55861 35.412118 
L 186.415195 35.505902 
L 186.273285 35.601949 
L 186.132917 35.700236 
L 185.994126 35.800737 
L 185.856947 35.903428 
L 185.721414 36.008283 
L 185.587562 36.115274 
L 185.455425 36.224376 
L 185.325035 36.335561 
L 185.196426 36.4488 
L 185.06963 36.564066 
L 184.944678 36.681329 
L 184.821602 36.800559 
L 184.700434 36.921727 
L 184.581204 37.044803 
L 184.463941 37.169755 
L 184.348675 37.296551 
L 184.235436 37.42516 
L 184.124251 37.55555 
L 184.015149 37.687687 
L 183.908158 37.821539 
L 183.803303 37.957072 
L 183.700612 38.094251 
L 183.600111 38.233042 
L 183.501824 38.37341 
L 183.405777 38.51532 
L 183.311993 38.658735 
L 183.220497 38.803621 
L 183.13131 38.94994 
L 183.044457 39.097656 
L 182.959958 39.246732 
L 182.877835 39.397129 
L 182.798108 39.54881 
L 182.720798 39.701737 
L 182.645925 39.855871 
L 182.573506 40.011174 
L 182.50356 40.167606 
L 182.436105 40.325129 
L 182.371158 40.483702 
L 182.308734 40.643285 
L 182.248851 40.803839 
L 182.191522 40.965322 
L 182.136763 41.127695 
L 182.084587 41.290916 
L 182.035007 41.454945 
L 181.988036 41.619739 
L 181.943685 41.785258 
L 181.901966 41.95146 
L 181.86289 42.118302 
L 181.826465 42.285744 
L 181.792701 42.453743 
L 181.761608 42.622256 
L 181.733191 42.791241 
L 181.70746 42.960656 
L 181.684419 43.130458 
L 181.664076 43.300604 
L 181.646434 43.471051 
L 181.6315 43.641757 
L 181.619275 43.812678 
L 181.609764 43.983772 
L 181.602969 44.154995 
L 181.598891 44.326304 
L 181.597531 44.497656 
L 181.597531 76.897656 
L 181.598891 77.069009 
L 181.602969 77.240318 
L 181.609764 77.411541 
L 181.619275 77.582635 
L 181.6315 77.753556 
L 181.646434 77.924262 
L 181.664076 78.094709 
L 181.684419 78.264855 
L 181.70746 78.434657 
L 181.733191 78.604071 
L 181.761608 78.773057 
L 181.792701 78.94157 
L 181.826465 79.109568 
L 181.86289 79.27701 
L 181.901966 79.443853 
L 181.943685 79.610055 
L 181.988036 79.775573 
L 182.035007 79.940368 
L 182.084587 80.104396 
L 182.136763 80.267617 
L 182.191522 80.42999 
L 182.248851 80.591474 
L 182.308734 80.752027 
L 182.371158 80.911611 
L 182.436105 81.070184 
L 182.50356 81.227706 
L 182.573506 81.384138 
L 182.645925 81.539441 
L 182.720798 81.693576 
L 182.798108 81.846503 
L 182.877835 81.998184 
L 182.959958 82.148581 
L 183.044457 82.297656 
L 183.13131 82.445372 
L 183.220497 82.591691 
L 183.311993 82.736577 
L 183.405777 82.879993 
L 183.501824 83.021903 
L 183.600111 83.162271 
L 183.700612 83.301062 
L 183.803303 83.438241 
L 183.908158 83.573773 
L 184.015149 83.707625 
L 184.124251 83.839762 
L 184.235436 83.970152 
L 184.348675 84.098761 
L 184.463941 84.225558 
L 184.581204 84.35051 
L 184.700434 84.473585 
L 184.821602 84.594753 
L 184.944678 84.713984 
L 185.06963 84.831247 
L 185.196426 84.946512 
L 185.325035 85.059752 
L 185.455425 85.170936 
L 185.587562 85.280038 
L 185.721414 85.38703 
L 185.856947 85.491884 
L 185.994126 85.594575 
L 186.132917 85.695077 
L 186.273285 85.793363 
L 186.415195 85.889411 
L 186.55861 85.983194 
L 186.703496 86.074691 
L 186.849815 86.163877 
L 186.997531 86.250731 
L 187.146607 86.33523 
L 187.297004 86.417353 
L 187.448685 86.497079 
L 187.601612 86.574389 
L 187.755746 86.649263 
L 187.911049 86.721682 
L 188.067481 86.791628 
L 188.225004 86.859083 
L 188.383577 86.92403 
L 188.54316 86.986453 
L 188.703714 87.046337 
L 188.865197 87.103665 
L 189.02757 87.158424 
L 189.190791 87.2106 
L 189.35482 87.26018 
L 189.519614 87.307152 
L 189.685133 87.351502 
L 189.851335 87.393221 
L 190.018177 87.432298 
L 190.185619 87.468723 
L 190.353618 87.502486 
L 190.522131 87.53358 
L 190.691116 87.561996 
L 190.860531 87.587728 
L 191.030333 87.610768 
L 191.200479 87.631112 
L 191.370926 87.648753 
L 191.541632 87.663688 
L 191.712553 87.675912 
L 191.883647 87.685424 
L 192.05487 87.692219 
L 192.226179 87.696297 
L 192.397531 87.697656 
L 229.705531 87.697656 
z
" clip-path="url(#pcbc83e2327)" style="fill: none; stroke-dasharray: 1.85,0.8; stroke-dashoffset: 0; stroke: #a52a2a; stroke-width: 0.5; stroke-linecap: round"/>
   </g>
   <g id="patch_6">
    <path d="M 229.705531 249.697656 
L 229.876884 249.696297 
L 230.048193 249.692219 
L 230.219416 249.685424 
L 230.39051 249.675912 
L 230.561431 249.663688 
L 230.732137 249.648753 
L 230.902584 249.631112 
L 231.07273 249.610768 
L 231.242532 249.587728 
L 231.411946 249.561996 
L 231.580932 249.53358 
L 231.749445 249.502486 
L 231.917443 249.468723 
L 232.084885 249.432298 
L 232.251728 249.393221 
L 232.41793 249.351502 
L 232.583448 249.307152 
L 232.748243 249.26018 
L 232.912271 249.2106 
L 233.075492 249.158424 
L 233.237865 249.103665 
L 233.399349 249.046337 
L 233.559902 248.986453 
L 233.719486 248.92403 
L 233.878059 248.859083 
L 234.035581 248.791628 
L 234.192013 248.721682 
L 234.347316 248.649263 
L 234.501451 248.574389 
L 234.654378 248.497079 
L 234.806059 248.417353 
L 234.956456 248.33523 
L 235.105531 248.250731 
L 235.253247 248.163877 
L 235.399566 248.074691 
L 235.544452 247.983194 
L 235.687868 247.889411 
L 235.829778 247.793363 
L 235.970146 247.695077 
L 236.108937 247.594575 
L 236.246116 247.491884 
L 236.381648 247.38703 
L 236.5155 247.280038 
L 236.647637 247.170936 
L 236.778027 247.059752 
L 236.906636 246.946512 
L 237.033433 246.831247 
L 237.158385 246.713984 
L 237.28146 246.594753 
L 237.402628 246.473585 
L 237.521859 246.35051 
L 237.639122 246.225558 
L 237.754387 246.098761 
L 237.867627 245.970152 
L 237.978811 245.839762 
L 238.087913 245.707625 
L 238.194905 245.573773 
L 238.299759 245.438241 
L 238.40245 245.301062 
L 238.502952 245.162271 
L 238.601238 245.021903 
L 238.697286 244.879993 
L 238.791069 244.736577 
L 238.882566 244.591691 
L 238.971752 244.445372 
L 239.058606 244.297656 
L 239.143105 244.148581 
L 239.225228 243.998184 
L 239.304954 243.846503 
L 239.382264 243.693576 
L 239.457138 243.539441 
L 239.529557 243.384138 
L 239.599503 243.227706 
L 239.666958 243.070184 
L 239.731905 242.911611 
L 239.794328 242.752027 
L 239.854212 242.591474 
L 239.91154 242.42999 
L 239.966299 242.267617 
L 240.018475 242.104396 
L 240.068055 241.940368 
L 240.115027 241.775573 
L 240.159377 241.610055 
L 240.201096 241.443853 
L 240.240173 241.27701 
L 240.276598 241.109568 
L 240.310361 240.94157 
L 240.341455 240.773057 
L 240.369871 240.604071 
L 240.395603 240.434657 
L 240.418643 240.264855 
L 240.438987 240.094709 
L 240.456628 239.924262 
L 240.471563 239.753556 
L 240.483787 239.582635 
L 240.493299 239.411541 
L 240.500094 239.240318 
L 240.504172 239.069009 
L 240.505531 238.897656 
L 240.505531 206.497656 
L 240.504172 206.326304 
L 240.500094 206.154995 
L 240.493299 205.983772 
L 240.483787 205.812678 
L 240.471563 205.641757 
L 240.456628 205.471051 
L 240.438987 205.300604 
L 240.418643 205.130458 
L 240.395603 204.960656 
L 240.369871 204.791241 
L 240.341455 204.622256 
L 240.310361 204.453743 
L 240.276598 204.285744 
L 240.240173 204.118302 
L 240.201096 203.95146 
L 240.159377 203.785258 
L 240.115027 203.619739 
L 240.068055 203.454945 
L 240.018475 203.290916 
L 239.966299 203.127695 
L 239.91154 202.965322 
L 239.854212 202.803839 
L 239.794328 202.643285 
L 239.731905 202.483702 
L 239.666958 202.325129 
L 239.599503 202.167606 
L 239.529557 202.011174 
L 239.457138 201.855871 
L 239.382264 201.701737 
L 239.304954 201.54881 
L 239.225228 201.397129 
L 239.143105 201.246732 
L 239.058606 201.097656 
L 238.971752 200.94994 
L 238.882566 200.803621 
L 238.791069 200.658735 
L 238.697286 200.51532 
L 238.601238 200.37341 
L 238.502952 200.233042 
L 238.40245 200.094251 
L 238.299759 199.957072 
L 238.194905 199.821539 
L 238.087913 199.687687 
L 237.978811 199.55555 
L 237.867627 199.42516 
L 237.754387 199.296551 
L 237.639122 199.169755 
L 237.521859 199.044803 
L 237.402628 198.921727 
L 237.28146 198.800559 
L 237.158385 198.681329 
L 237.033433 198.564066 
L 236.906636 198.4488 
L 236.778027 198.335561 
L 236.647637 198.224376 
L 236.5155 198.115274 
L 236.381648 198.008283 
L 236.246116 197.903428 
L 236.108937 197.800737 
L 235.970146 197.700236 
L 235.829778 197.601949 
L 235.687868 197.505902 
L 235.544452 197.412118 
L 235.399566 197.320622 
L 235.253247 197.231435 
L 235.105531 197.144582 
L 234.956456 197.060083 
L 234.806059 196.97796 
L 234.654378 196.898233 
L 234.501451 196.820923 
L 234.347316 196.74605 
L 234.192013 196.673631 
L 234.035581 196.603685 
L 233.878059 196.53623 
L 233.719486 196.471283 
L 233.559902 196.408859 
L 233.399349 196.348976 
L 233.237865 196.291647 
L 233.075492 196.236888 
L 232.912271 196.184712 
L 232.748243 196.135132 
L 232.583448 196.088161 
L 232.41793 196.04381 
L 232.251728 196.002091 
L 232.084885 195.963015 
L 231.917443 195.92659 
L 231.749445 195.892826 
L 231.580932 195.861733 
L 231.411946 195.833316 
L 231.242532 195.807585 
L 231.07273 195.784544 
L 230.902584 195.764201 
L 230.732137 195.746559 
L 230.561431 195.731625 
L 230.39051 195.7194 
L 230.219416 195.709889 
L 230.048193 195.703094 
L 229.876884 195.699016 
L 229.705531 195.697656 
L 192.397531 195.697656 
L 192.226179 195.699016 
L 192.05487 195.703094 
L 191.883647 195.709889 
L 191.712553 195.7194 
L 191.541632 195.731625 
L 191.370926 195.746559 
L 191.200479 195.764201 
L 191.030333 195.784544 
L 190.860531 195.807585 
L 190.691116 195.833316 
L 190.522131 195.861733 
L 190.353618 195.892826 
L 190.185619 195.92659 
L 190.018177 195.963015 
L 189.851335 196.002091 
L 189.685133 196.04381 
L 189.519614 196.088161 
L 189.35482 196.135132 
L 189.190791 196.184712 
L 189.02757 196.236888 
L 188.865197 196.291647 
L 188.703714 196.348976 
L 188.54316 196.408859 
L 188.383577 196.471283 
L 188.225004 196.53623 
L 188.067481 196.603685 
L 187.911049 196.673631 
L 187.755746 196.74605 
L 187.601612 196.820923 
L 187.448685 196.898233 
L 187.297004 196.97796 
L 187.146607 197.060083 
L 186.997531 197.144582 
L 186.849815 197.231435 
L 186.703496 197.320622 
L 186.55861 197.412118 
L 186.415195 197.505902 
L 186.273285 197.601949 
L 186.132917 197.700236 
L 185.994126 197.800737 
L 185.856947 197.903428 
L 185.721414 198.008283 
L 185.587562 198.115274 
L 185.455425 198.224376 
L 185.325035 198.335561 
L 185.196426 198.4488 
L 185.06963 198.564066 
L 184.944678 198.681329 
L 184.821602 198.800559 
L 184.700434 198.921727 
L 184.581204 199.044803 
L 184.463941 199.169755 
L 184.348675 199.296551 
L 184.235436 199.42516 
L 184.124251 199.55555 
L 184.015149 199.687687 
L 183.908158 199.821539 
L 183.803303 199.957072 
L 183.700612 200.094251 
L 183.600111 200.233042 
L 183.501824 200.37341 
L 183.405777 200.51532 
L 183.311993 200.658735 
L 183.220497 200.803621 
L 183.13131 200.94994 
L 183.044457 201.097656 
L 182.959958 201.246732 
L 182.877835 201.397129 
L 182.798108 201.54881 
L 182.720798 201.701737 
L 182.645925 201.855871 
L 182.573506 202.011174 
L 182.50356 202.167606 
L 182.436105 202.325129 
L 182.371158 202.483702 
L 182.308734 202.643285 
L 182.248851 202.803839 
L 182.191522 202.965322 
L 182.136763 203.127695 
L 182.084587 203.290916 
L 182.035007 203.454945 
L 181.988036 203.619739 
L 181.943685 203.785258 
L 181.901966 203.95146 
L 181.86289 204.118302 
L 181.826465 204.285744 
L 181.792701 204.453743 
L 181.761608 204.622256 
L 181.733191 204.791241 
L 181.70746 204.960656 
L 181.684419 205.130458 
L 181.664076 205.300604 
L 181.646434 205.471051 
L 181.6315 205.641757 
L 181.619275 205.812678 
L 181.609764 205.983772 
L 181.602969 206.154995 
L 181.598891 206.326304 
L 181.597531 206.497656 
L 181.597531 238.897656 
L 181.598891 239.069009 
L 181.602969 239.240318 
L 181.609764 239.411541 
L 181.619275 239.582635 
L 181.6315 239.753556 
L 181.646434 239.924262 
L 181.664076 240.094709 
L 181.684419 240.264855 
L 181.70746 240.434657 
L 181.733191 240.604071 
L 181.761608 240.773057 
L 181.792701 240.94157 
L 181.826465 241.109568 
L 181.86289 241.27701 
L 181.901966 241.443853 
L 181.943685 241.610055 
L 181.988036 241.775573 
L 182.035007 241.940368 
L 182.084587 242.104396 
L 182.136763 242.267617 
L 182.191522 242.42999 
L 182.248851 242.591474 
L 182.308734 242.752027 
L 182.371158 242.911611 
L 182.436105 243.070184 
L 182.50356 243.227706 
L 182.573506 243.384138 
L 182.645925 243.539441 
L 182.720798 243.693576 
L 182.798108 243.846503 
L 182.877835 243.998184 
L 182.959958 244.148581 
L 183.044457 244.297656 
L 183.13131 244.445372 
L 183.220497 244.591691 
L 183.311993 244.736577 
L 183.405777 244.879993 
L 183.501824 245.021903 
L 183.600111 245.162271 
L 183.700612 245.301062 
L 183.803303 245.438241 
L 183.908158 245.573773 
L 184.015149 245.707625 
L 184.124251 245.839762 
L 184.235436 245.970152 
L 184.348675 246.098761 
L 184.463941 246.225558 
L 184.581204 246.35051 
L 184.700434 246.473585 
L 184.821602 246.594753 
L 184.944678 246.713984 
L 185.06963 246.831247 
L 185.196426 246.946512 
L 185.325035 247.059752 
L 185.455425 247.170936 
L 185.587562 247.280038 
L 185.721414 247.38703 
L 185.856947 247.491884 
L 185.994126 247.594575 
L 186.132917 247.695077 
L 186.273285 247.793363 
L 186.415195 247.889411 
L 186.55861 247.983194 
L 186.703496 248.074691 
L 186.849815 248.163877 
L 186.997531 248.250731 
L 187.146607 248.33523 
L 187.297004 248.417353 
L 187.448685 248.497079 
L 187.601612 248.574389 
L 187.755746 248.649263 
L 187.911049 248.721682 
L 188.067481 248.791628 
L 188.225004 248.859083 
L 188.383577 248.92403 
L 188.54316 248.986453 
L 188.703714 249.046337 
L 188.865197 249.103665 
L 189.02757 249.158424 
L 189.190791 249.2106 
L 189.35482 249.26018 
L 189.519614 249.307152 
L 189.685133 249.351502 
L 189.851335 249.393221 
L 190.018177 249.432298 
L 190.185619 249.468723 
L 190.353618 249.502486 
L 190.522131 249.53358 
L 190.691116 249.561996 
L 190.860531 249.587728 
L 191.030333 249.610768 
L 191.200479 249.631112 
L 191.370926 249.648753 
L 191.541632 249.663688 
L 191.712553 249.675912 
L 191.883647 249.685424 
L 192.05487 249.692219 
L 192.226179 249.696297 
L 192.397531 249.697656 
L 229.705531 249.697656 
z
" clip-path="url(#pcbc83e2327)" style="fill: none; stroke-dasharray: 1.85,0.8; stroke-dashoffset: 0; stroke: #0000ff; stroke-width: 0.5; stroke-linecap: round"/>
   </g>
   <g id="patch_7">
    <path d="M 165.169531 141.697656 
C 137.269531 141.697656 158.869531 130.897656 126.469531 130.897656 
" clip-path="url(#pcbc83e2327)" style="fill: none; stroke: #ff0000; stroke-width: 2; stroke-linejoin: miter; stroke-linecap: round"/>
   </g>
   <g id="patch_8">
    <path d="M 160.669531 138.097656 
L 169.669531 141.697656 
L 160.669531 145.297656 
z
" clip-path="url(#pcbc83e2327)" style="fill: #ff0000"/>
   </g>
   <g id="line2d_1">
    <path d="M 278.305531 87.697656 
L 291.505531 87.697656 
" clip-path="url(#pcbc83e2327)" style="fill: none; stroke: #000000; stroke-width: 2; stroke-linecap: round"/>
   </g>
   <g id="line2d_2">
    <path d="M 291.505531 74.497656 
L 291.505531 100.897656 
" clip-path="url(#pcbc83e2327)" style="fill: none; stroke: #000000; stroke-width: 2; stroke-linecap: round"/>
   </g>
   <g id="line2d_3">
    <path d="M 291.505531 81.097656 
L 305.365531 69.217656 
L 305.365531 62.617656 
" clip-path="url(#pcbc83e2327)" style="fill: none; stroke: #000000; stroke-width: 2; stroke-linecap: round"/>
   </g>
   <g id="line2d_4">
    <path d="M 291.505531 94.297656 
L 305.365531 106.177656 
L 305.365531 112.777656 
" clip-path="url(#pcbc83e2327)" style="fill: none; stroke: #000000; stroke-width: 2; stroke-linecap: round"/>
   </g>
   <g id="line2d_5">
    <path d="M 291.505531 94.297656 
L 298.532222 100.320534 
" clip-path="url(#pcbc83e2327)" style="fill: none; stroke: #000000; stroke-width: 2; stroke-linecap: round"/>
   </g>
   <g id="patch_9">
    <path d="M 300.875071 97.58721 
L 305.365531 106.177656 
L 296.189373 103.053858 
z
" clip-path="url(#pcbc83e2327)"/>
   </g>
   <g id="line2d_6">
    <path d="M 278.305531 87.697656 
L 251.305531 87.697656 
L 224.305531 87.697656 
" clip-path="url(#pcbc83e2327)" style="fill: none; stroke: #000000; stroke-width: 2; stroke-linecap: round"/>
   </g>
   <g id="line2d_7">
    <path d="M 224.305531 87.697656 
L 224.305531 96.697656 
L 233.305531 99.697656 
L 215.305531 105.697656 
L 233.305531 111.697656 
L 215.305531 117.697656 
L 233.305531 123.697656 
L 215.305531 129.697656 
L 224.305531 132.697656 
L 224.305531 141.697656 
" clip-path="url(#pcbc83e2327)" style="fill: none; stroke: #000000; stroke-width: 2; stroke-linecap: round"/>
   </g>
   <g id="line2d_8">
    <path d="M 224.305531 141.697656 
L 237.505531 141.697656 
" clip-path="url(#pcbc83e2327)" style="fill: none; stroke: #000000; stroke-width: 2; stroke-linecap: round"/>
   </g>
   <g id="line2d_9">
    <path d="M 237.505531 128.497656 
L 237.505531 154.897656 
" clip-path="url(#pcbc83e2327)" style="fill: none; stroke: #000000; stroke-width: 2; stroke-linecap: round"/>
   </g>
   <g id="line2d_10">
    <path d="M 237.505531 135.097656 
L 251.365531 123.217656 
L 251.365531 116.617656 
" clip-path="url(#pcbc83e2327)" style="fill: none; stroke: #000000; stroke-width: 2; stroke-linecap: round"/>
   </g>
   <g id="line2d_11">
    <path d="M 237.505531 148.297656 
L 251.365531 160.177656 
L 251.365531 166.777656 
" clip-path="url(#pcbc83e2327)" style="fill: none; stroke: #000000; stroke-width: 2; stroke-linecap: round"/>
   </g>
   <g id="line2d_12">
    <path d="M 237.505531 148.297656 
L 244.532222 154.320534 
" clip-path="url(#pcbc83e2327)" style="fill: none; stroke: #000000; stroke-width: 2; stroke-linecap: round"/>
   </g>
   <g id="patch_10">
    <path d="M 246.875071 151.58721 
L 251.365531 160.177656 
L 242.189373 157.053858 
z
" clip-path="url(#pcbc83e2327)"/>
   </g>
   <g id="line2d_13">
    <path d="M 224.305531 141.697656 
L 224.305531 150.697656 
L 233.305531 153.697656 
L 215.305531 159.697656 
L 233.305531 165.697656 
L 215.305531 171.697656 
L 233.305531 177.697656 
L 215.305531 183.697656 
L 224.305531 186.697656 
L 224.305531 195.697656 
" clip-path="url(#pcbc83e2327)" style="fill: none; stroke: #000000; stroke-width: 2; stroke-linecap: round"/>
   </g>
   <g id="line2d_14">
    <path d="M 224.305531 195.697656 
L 251.305531 195.697656 
L 278.305531 195.697656 
" clip-path="url(#pcbc83e2327)" style="fill: none; stroke: #000000; stroke-width: 2; stroke-linecap: round"/>
   </g>
   <g id="line2d_15">
    <path d="M 278.305531 195.697656 
L 291.505531 195.697656 
" clip-path="url(#pcbc83e2327)" style="fill: none; stroke: #000000; stroke-width: 2; stroke-linecap: round"/>
   </g>
   <g id="line2d_16">
    <path d="M 291.505531 182.497656 
L 291.505531 208.897656 
" clip-path="url(#pcbc83e2327)" style="fill: none; stroke: #000000; stroke-width: 2; stroke-linecap: round"/>
   </g>
   <g id="line2d_17">
    <path d="M 291.505531 189.097656 
L 305.365531 177.217656 
L 305.365531 170.617656 
" clip-path="url(#pcbc83e2327)" style="fill: none; stroke: #000000; stroke-width: 2; stroke-linecap: round"/>
   </g>
   <g id="line2d_18">
    <path d="M 291.505531 202.297656 
L 305.365531 214.177656 
L 305.365531 220.777656 
" clip-path="url(#pcbc83e2327)" style="fill: none; stroke: #000000; stroke-width: 2; stroke-linecap: round"/>
   </g>
   <g id="line2d_19">
    <path d="M 305.365531 177.217656 
L 298.338841 183.240534 
" clip-path="url(#pcbc83e2327)" style="fill: none; stroke: #000000; stroke-width: 2; stroke-linecap: round"/>
   </g>
   <g id="patch_11">
    <path d="M 300.68169 185.973858 
L 291.505531 189.097656 
L 295.995992 180.50721 
z
" clip-path="url(#pcbc83e2327)"/>
   </g>
   <g id="line2d_20">
    <path d="M 251.365531 116.617656 
L 251.365531 102.157656 
L 251.365531 87.697656 
" clip-path="url(#pcbc83e2327)" style="fill: none; stroke: #000000; stroke-width: 2; stroke-linecap: round"/>
   </g>
   <g id="line2d_21">
    <path d="M 251.365531 166.777656 
L 251.365531 181.237656 
L 251.365531 195.697656 
" clip-path="url(#pcbc83e2327)" style="fill: none; stroke: #000000; stroke-width: 2; stroke-linecap: round"/>
   </g>
   <g id="line2d_22">
    <path d="M 224.305531 87.697656 
L 224.305531 78.697656 
L 215.305531 75.697656 
L 233.305531 69.697656 
L 215.305531 63.697656 
L 233.305531 57.697656 
L 215.305531 51.697656 
L 233.305531 45.697656 
L 224.305531 42.697656 
L 224.305531 33.697656 
" clip-path="url(#pcbc83e2327)" style="fill: none; stroke: #000000; stroke-width: 2; stroke-linecap: round"/>
   </g>
   <g id="line2d_23">
    <path d="M 224.305531 33.697656 
L 231.505531 33.697656 
L 238.705531 33.697656 
" clip-path="url(#pcbc83e2327)" style="fill: none; stroke: #000000; stroke-width: 2; stroke-linecap: round"/>
   </g>
   <g id="line2d_24">
    <path d="M 238.705531 33.697656 
L 238.705531 19.297656 
" clip-path="url(#pcbc83e2327)" style="fill: none; stroke: #000000; stroke-width: 2; stroke-linecap: round"/>
   </g>
   <g id="line2d_25">
    <path d="M 238.705531 19.297656 
L 231.955531 19.297656 
" clip-path="url(#pcbc83e2327)" style="fill: none; stroke: #000000; stroke-width: 2; stroke-linecap: round"/>
   </g>
   <g id="line2d_26">
    <path d="M 238.705531 19.297656 
L 245.455531 19.297656 
" clip-path="url(#pcbc83e2327)" style="fill: none; stroke: #000000; stroke-width: 2; stroke-linecap: round"/>
   </g>
   <g id="line2d_27">
    <path d="M 238.705531 33.697656 
L 272.035531 33.697656 
L 305.365531 33.697656 
" clip-path="url(#pcbc83e2327)" style="fill: none; stroke: #000000; stroke-width: 2; stroke-linecap: round"/>
   </g>
   <g id="line2d_28">
    <path d="M 305.365531 33.697656 
L 305.365531 48.157656 
L 305.365531 62.617656 
" clip-path="url(#pcbc83e2327)" style="fill: none; stroke: #000000; stroke-width: 2; stroke-linecap: round"/>
   </g>
   <g id="line2d_29">
    <path d="M 224.305531 195.697656 
L 224.305531 204.697656 
L 233.305531 207.697656 
L 215.305531 213.697656 
L 233.305531 219.697656 
L 215.305531 225.697656 
L 233.305531 231.697656 
L 215.305531 237.697656 
L 224.305531 240.697656 
L 224.305531 249.697656 
" clip-path="url(#pcbc83e2327)" style="fill: none; stroke: #000000; stroke-width: 2; stroke-linecap: round"/>
   </g>
   <g id="line2d_30">
    <path d="M 224.305531 249.697656 
L 231.505531 249.697656 
L 238.705531 249.697656 
" clip-path="url(#pcbc83e2327)" style="fill: none; stroke: #000000; stroke-width: 2; stroke-linecap: round"/>
   </g>
   <g id="line2d_31">
    <path d="M 238.705531 249.697656 
L 238.705531 264.097656 
" clip-path="url(#pcbc83e2327)" style="fill: none; stroke: #000000; stroke-width: 2; stroke-linecap: round"/>
   </g>
   <g id="line2d_32">
    <path d="M 238.705531 264.097656 
L 231.955531 264.097656 
" clip-path="url(#pcbc83e2327)" style="fill: none; stroke: #000000; stroke-width: 2; stroke-linecap: round"/>
   </g>
   <g id="line2d_33">
    <path d="M 238.705531 264.097656 
L 245.455531 264.097656 
" clip-path="url(#pcbc83e2327)" style="fill: none; stroke: #000000; stroke-width: 2; stroke-linecap: round"/>
   </g>
   <g id="line2d_34">
    <path d="M 238.705531 249.697656 
L 272.035531 249.697656 
L 305.365531 249.697656 
" clip-path="url(#pcbc83e2327)" style="fill: none; stroke: #000000; stroke-width: 2; stroke-linecap: round"/>
   </g>
   <g id="line2d_35">
    <path d="M 305.365531 249.697656 
L 305.365531 235.237656 
L 305.365531 220.777656 
" clip-path="url(#pcbc83e2327)" style="fill: none; stroke: #000000; stroke-width: 2; stroke-linecap: round"/>
   </g>
   <g id="line2d_36">
    <path d="M 224.305531 195.697656 
L 197.305531 195.697656 
L 170.305531 195.697656 
" clip-path="url(#pcbc83e2327)" style="fill: none; stroke: #000000; stroke-width: 2; stroke-linecap: round"/>
   </g>
   <g id="line2d_37">
    <path d="M 305.365531 112.777656 
L 305.365531 127.177656 
L 305.365531 141.577656 
" clip-path="url(#pcbc83e2327)" style="fill: none; stroke: #000000; stroke-width: 2; stroke-linecap: round"/>
   </g>
   <g id="line2d_38">
    <path d="M 305.365531 141.577656 
L 305.365531 156.097656 
L 305.365531 170.617656 
" clip-path="url(#pcbc83e2327)" style="fill: none; stroke: #000000; stroke-width: 2; stroke-linecap: round"/>
   </g>
   <g id="line2d_39">
    <path d="M 305.365531 141.577656 
L 332.365531 141.577656 
L 359.365531 141.577656 
" clip-path="url(#pcbc83e2327)" style="fill: none; stroke: #000000; stroke-width: 2; stroke-linecap: round"/>
   </g>
   <g id="line2d_40">
    <path d="M 359.365531 141.577656 
L 359.365531 150.577656 
L 368.365531 153.577656 
L 350.365531 159.577656 
L 368.365531 165.577656 
L 350.365531 171.577656 
L 368.365531 177.577656 
L 350.365531 183.577656 
L 359.365531 186.577656 
L 359.365531 195.577656 
" clip-path="url(#pcbc83e2327)" style="fill: none; stroke: #000000; stroke-width: 2; stroke-linecap: round"/>
   </g>
   <g id="line2d_41">
    <path d="M 359.365531 195.577656 
L 359.365531 209.977656 
L 350.365531 209.977656 
L 368.365531 209.977656 
M 353.065531 214.297656 
L 365.665531 214.297656 
M 357.565531 218.617656 
L 361.165531 218.617656 
" clip-path="url(#pcbc83e2327)" style="fill: none; stroke: #000000; stroke-width: 2; stroke-linecap: round"/>
   </g>
   <g id="line2d_42">
    <path d="M 359.365531 141.577656 
L 368.365531 141.577656 
L 377.365531 141.577656 
" clip-path="url(#pcbc83e2327)" style="fill: none; stroke: #000000; stroke-width: 2; stroke-linecap: round"/>
   </g>
   <g id="text_1">
    <!-- $R_{v1}$ -->
    <g transform="translate(191.830531 118.146875) scale(0.125 -0.125)">
     <defs>
      <path id="DejaVuSans-Oblique-52" d="M 1613 4147 
L 1294 2491 
L 2106 2491 
Q 2584 2491 2879 2755 
Q 3175 3019 3175 3444 
Q 3175 3784 2976 3965 
Q 2778 4147 2406 4147 
L 1613 4147 
z
M 2772 2241 
Q 2972 2194 3105 2009 
Q 3238 1825 3413 1275 
L 3809 0 
L 3144 0 
L 2778 1197 
Q 2638 1659 2453 1815 
Q 2269 1972 1888 1972 
L 1191 1972 
L 806 0 
L 172 0 
L 1081 4666 
L 2503 4666 
Q 3150 4666 3495 4373 
Q 3841 4081 3841 3531 
Q 3841 3044 3547 2687 
Q 3253 2331 2772 2241 
z
" transform="scale(0.015625)"/>
      <path id="DejaVuSans-Oblique-76" d="M 459 3500 
L 1069 3500 
L 1581 525 
L 3256 3500 
L 3866 3500 
L 1875 0 
L 1100 0 
L 459 3500 
z
" transform="scale(0.015625)"/>
      <path id="DejaVuSans-31" d="M 794 531 
L 1825 531 
L 1825 4091 
L 703 3866 
L 703 4441 
L 1819 4666 
L 2450 4666 
L 2450 531 
L 3481 531 
L 3481 0 
L 794 0 
L 794 531 
z
" transform="scale(0.015625)"/>
     </defs>
     <use xlink:href="#DejaVuSans-Oblique-52" transform="translate(0 0.09375)"/>
     <use xlink:href="#DejaVuSans-Oblique-76" transform="translate(69.482422 -16.3125) scale(0.7)"/>
     <use xlink:href="#DejaVuSans-31" transform="translate(110.908203 -16.3125) scale(0.7)"/>
    </g>
   </g>
   <g id="text_2">
    <!-- $R_{v2}$ -->
    <g transform="translate(191.830531 172.146875) scale(0.125 -0.125)">
     <defs>
      <path id="DejaVuSans-32" d="M 1228 531 
L 3431 531 
L 3431 0 
L 469 0 
L 469 531 
Q 828 903 1448 1529 
Q 2069 2156 2228 2338 
Q 2531 2678 2651 2914 
Q 2772 3150 2772 3378 
Q 2772 3750 2511 3984 
Q 2250 4219 1831 4219 
Q 1534 4219 1204 4116 
Q 875 4013 500 3803 
L 500 4441 
Q 881 4594 1212 4672 
Q 1544 4750 1819 4750 
Q 2544 4750 2975 4387 
Q 3406 4025 3406 3419 
Q 3406 3131 3298 2873 
Q 3191 2616 2906 2266 
Q 2828 2175 2409 1742 
Q 1991 1309 1228 531 
z
" transform="scale(0.015625)"/>
     </defs>
     <use xlink:href="#DejaVuSans-Oblique-52" transform="translate(0 0.09375)"/>
     <use xlink:href="#DejaVuSans-Oblique-76" transform="translate(69.482422 -16.3125) scale(0.7)"/>
     <use xlink:href="#DejaVuSans-32" transform="translate(110.908203 -16.3125) scale(0.7)"/>
    </g>
   </g>
   <g id="text_3">
    <!-- $R_1$ -->
    <g transform="translate(197.080531 64.146875) scale(0.125 -0.125)">
     <use xlink:href="#DejaVuSans-Oblique-52" transform="translate(0 0.09375)"/>
     <use xlink:href="#DejaVuSans-31" transform="translate(69.482422 -16.3125) scale(0.7)"/>
    </g>
   </g>
   <g id="text_4">
    <!-- $V_{DD}$ -->
    <g transform="translate(227.518031 13.098047) scale(0.125 -0.125)">
     <defs>
      <path id="DejaVuSans-Oblique-56" d="M 1319 0 
L 500 4666 
L 1119 4666 
L 1797 653 
L 4063 4666 
L 4750 4666 
L 2053 0 
L 1319 0 
z
" transform="scale(0.015625)"/>
      <path id="DejaVuSans-Oblique-44" d="M 1081 4666 
L 2438 4666 
Q 3519 4666 4070 4208 
Q 4622 3750 4622 2847 
Q 4622 2250 4412 1698 
Q 4203 1147 3834 769 
Q 3463 381 2891 190 
Q 2319 0 1538 0 
L 172 0 
L 1081 4666 
z
M 1613 4147 
L 909 519 
L 1734 519 
Q 2794 519 3375 1128 
Q 3956 1738 3956 2847 
Q 3956 3519 3581 3833 
Q 3206 4147 2406 4147 
L 1613 4147 
z
" transform="scale(0.015625)"/>
     </defs>
     <use xlink:href="#DejaVuSans-Oblique-56" transform="translate(0 0.09375)"/>
     <use xlink:href="#DejaVuSans-Oblique-44" transform="translate(68.408203 -16.3125) scale(0.7)"/>
     <use xlink:href="#DejaVuSans-Oblique-44" transform="translate(122.30957 -16.3125) scale(0.7)"/>
    </g>
   </g>
   <g id="text_5">
    <!-- $R_2$ -->
    <g transform="translate(197.080531 226.146875) scale(0.125 -0.125)">
     <use xlink:href="#DejaVuSans-Oblique-52" transform="translate(0 0.09375)"/>
     <use xlink:href="#DejaVuSans-32" transform="translate(69.482422 -16.3125) scale(0.7)"/>
    </g>
   </g>
   <g id="text_6">
    <!-- -$V_{DD}$ -->
    <g transform="translate(225.205531 277.195703) scale(0.125 -0.125)">
     <defs>
      <path id="DejaVuSans-2d" d="M 313 2009 
L 1997 2009 
L 1997 1497 
L 313 1497 
L 313 2009 
z
" transform="scale(0.015625)"/>
     </defs>
     <use xlink:href="#DejaVuSans-2d" transform="translate(0 0.09375)"/>
     <use xlink:href="#DejaVuSans-Oblique-56" transform="translate(36.083984 0.09375)"/>
     <use xlink:href="#DejaVuSans-Oblique-44" transform="translate(104.492188 -16.3125) scale(0.7)"/>
     <use xlink:href="#DejaVuSans-Oblique-44" transform="translate(158.393555 -16.3125) scale(0.7)"/>
    </g>
   </g>
   <g id="text_7">
    <!-- $R_L$ -->
    <g transform="translate(332.765531 172.026875) scale(0.125 -0.125)">
     <defs>
      <path id="DejaVuSans-Oblique-4c" d="M 1075 4666 
L 1709 4666 
L 909 525 
L 3181 525 
L 3078 0 
L 172 0 
L 1075 4666 
z
" transform="scale(0.015625)"/>
     </defs>
     <use xlink:href="#DejaVuSans-Oblique-52" transform="translate(0 0.09375)"/>
     <use xlink:href="#DejaVuSans-Oblique-4c" transform="translate(69.482422 -16.3125) scale(0.7)"/>
    </g>
   </g>
   <g id="text_8">
    <!-- Voorinstelspanning -->
    <g style="fill: #ff0000" transform="translate(3.6 134.346875) scale(0.125 -0.125)">
     <defs>
      <path id="DejaVuSans-56" d="M 1831 0 
L 50 4666 
L 709 4666 
L 2188 738 
L 3669 4666 
L 4325 4666 
L 2547 0 
L 1831 0 
z
" transform="scale(0.015625)"/>
      <path id="DejaVuSans-6f" d="M 1959 3097 
Q 1497 3097 1228 2736 
Q 959 2375 959 1747 
Q 959 1119 1226 758 
Q 1494 397 1959 397 
Q 2419 397 2687 759 
Q 2956 1122 2956 1747 
Q 2956 2369 2687 2733 
Q 2419 3097 1959 3097 
z
M 1959 3584 
Q 2709 3584 3137 3096 
Q 3566 2609 3566 1747 
Q 3566 888 3137 398 
Q 2709 -91 1959 -91 
Q 1206 -91 779 398 
Q 353 888 353 1747 
Q 353 2609 779 3096 
Q 1206 3584 1959 3584 
z
" transform="scale(0.015625)"/>
      <path id="DejaVuSans-72" d="M 2631 2963 
Q 2534 3019 2420 3045 
Q 2306 3072 2169 3072 
Q 1681 3072 1420 2755 
Q 1159 2438 1159 1844 
L 1159 0 
L 581 0 
L 581 3500 
L 1159 3500 
L 1159 2956 
Q 1341 3275 1631 3429 
Q 1922 3584 2338 3584 
Q 2397 3584 2469 3576 
Q 2541 3569 2628 3553 
L 2631 2963 
z
" transform="scale(0.015625)"/>
      <path id="DejaVuSans-69" d="M 603 3500 
L 1178 3500 
L 1178 0 
L 603 0 
L 603 3500 
z
M 603 4863 
L 1178 4863 
L 1178 4134 
L 603 4134 
L 603 4863 
z
" transform="scale(0.015625)"/>
      <path id="DejaVuSans-6e" d="M 3513 2113 
L 3513 0 
L 2938 0 
L 2938 2094 
Q 2938 2591 2744 2837 
Q 2550 3084 2163 3084 
Q 1697 3084 1428 2787 
Q 1159 2491 1159 1978 
L 1159 0 
L 581 0 
L 581 3500 
L 1159 3500 
L 1159 2956 
Q 1366 3272 1645 3428 
Q 1925 3584 2291 3584 
Q 2894 3584 3203 3211 
Q 3513 2838 3513 2113 
z
" transform="scale(0.015625)"/>
      <path id="DejaVuSans-73" d="M 2834 3397 
L 2834 2853 
Q 2591 2978 2328 3040 
Q 2066 3103 1784 3103 
Q 1356 3103 1142 2972 
Q 928 2841 928 2578 
Q 928 2378 1081 2264 
Q 1234 2150 1697 2047 
L 1894 2003 
Q 2506 1872 2764 1633 
Q 3022 1394 3022 966 
Q 3022 478 2636 193 
Q 2250 -91 1575 -91 
Q 1294 -91 989 -36 
Q 684 19 347 128 
L 347 722 
Q 666 556 975 473 
Q 1284 391 1588 391 
Q 1994 391 2212 530 
Q 2431 669 2431 922 
Q 2431 1156 2273 1281 
Q 2116 1406 1581 1522 
L 1381 1569 
Q 847 1681 609 1914 
Q 372 2147 372 2553 
Q 372 3047 722 3315 
Q 1072 3584 1716 3584 
Q 2034 3584 2315 3537 
Q 2597 3491 2834 3397 
z
" transform="scale(0.015625)"/>
      <path id="DejaVuSans-74" d="M 1172 4494 
L 1172 3500 
L 2356 3500 
L 2356 3053 
L 1172 3053 
L 1172 1153 
Q 1172 725 1289 603 
Q 1406 481 1766 481 
L 2356 481 
L 2356 0 
L 1766 0 
Q 1100 0 847 248 
Q 594 497 594 1153 
L 594 3053 
L 172 3053 
L 172 3500 
L 594 3500 
L 594 4494 
L 1172 4494 
z
" transform="scale(0.015625)"/>
      <path id="DejaVuSans-65" d="M 3597 1894 
L 3597 1613 
L 953 1613 
Q 991 1019 1311 708 
Q 1631 397 2203 397 
Q 2534 397 2845 478 
Q 3156 559 3463 722 
L 3463 178 
Q 3153 47 2828 -22 
Q 2503 -91 2169 -91 
Q 1331 -91 842 396 
Q 353 884 353 1716 
Q 353 2575 817 3079 
Q 1281 3584 2069 3584 
Q 2775 3584 3186 3129 
Q 3597 2675 3597 1894 
z
M 3022 2063 
Q 3016 2534 2758 2815 
Q 2500 3097 2075 3097 
Q 1594 3097 1305 2825 
Q 1016 2553 972 2059 
L 3022 2063 
z
" transform="scale(0.015625)"/>
      <path id="DejaVuSans-6c" d="M 603 4863 
L 1178 4863 
L 1178 0 
L 603 0 
L 603 4863 
z
" transform="scale(0.015625)"/>
      <path id="DejaVuSans-70" d="M 1159 525 
L 1159 -1331 
L 581 -1331 
L 581 3500 
L 1159 3500 
L 1159 2969 
Q 1341 3281 1617 3432 
Q 1894 3584 2278 3584 
Q 2916 3584 3314 3078 
Q 3713 2572 3713 1747 
Q 3713 922 3314 415 
Q 2916 -91 2278 -91 
Q 1894 -91 1617 61 
Q 1341 213 1159 525 
z
M 3116 1747 
Q 3116 2381 2855 2742 
Q 2594 3103 2138 3103 
Q 1681 3103 1420 2742 
Q 1159 2381 1159 1747 
Q 1159 1113 1420 752 
Q 1681 391 2138 391 
Q 2594 391 2855 752 
Q 3116 1113 3116 1747 
z
" transform="scale(0.015625)"/>
      <path id="DejaVuSans-61" d="M 2194 1759 
Q 1497 1759 1228 1600 
Q 959 1441 959 1056 
Q 959 750 1161 570 
Q 1363 391 1709 391 
Q 2188 391 2477 730 
Q 2766 1069 2766 1631 
L 2766 1759 
L 2194 1759 
z
M 3341 1997 
L 3341 0 
L 2766 0 
L 2766 531 
Q 2569 213 2275 61 
Q 1981 -91 1556 -91 
Q 1019 -91 701 211 
Q 384 513 384 1019 
Q 384 1609 779 1909 
Q 1175 2209 1959 2209 
L 2766 2209 
L 2766 2266 
Q 2766 2663 2505 2880 
Q 2244 3097 1772 3097 
Q 1472 3097 1187 3025 
Q 903 2953 641 2809 
L 641 3341 
Q 956 3463 1253 3523 
Q 1550 3584 1831 3584 
Q 2591 3584 2966 3190 
Q 3341 2797 3341 1997 
z
" transform="scale(0.015625)"/>
      <path id="DejaVuSans-67" d="M 2906 1791 
Q 2906 2416 2648 2759 
Q 2391 3103 1925 3103 
Q 1463 3103 1205 2759 
Q 947 2416 947 1791 
Q 947 1169 1205 825 
Q 1463 481 1925 481 
Q 2391 481 2648 825 
Q 2906 1169 2906 1791 
z
M 3481 434 
Q 3481 -459 3084 -895 
Q 2688 -1331 1869 -1331 
Q 1566 -1331 1297 -1286 
Q 1028 -1241 775 -1147 
L 775 -588 
Q 1028 -725 1275 -790 
Q 1522 -856 1778 -856 
Q 2344 -856 2625 -561 
Q 2906 -266 2906 331 
L 2906 616 
Q 2728 306 2450 153 
Q 2172 0 1784 0 
Q 1141 0 747 490 
Q 353 981 353 1791 
Q 353 2603 747 3093 
Q 1141 3584 1784 3584 
Q 2172 3584 2450 3431 
Q 2728 3278 2906 2969 
L 2906 3500 
L 3481 3500 
L 3481 434 
z
" transform="scale(0.015625)"/>
     </defs>
     <use xlink:href="#DejaVuSans-56"/>
     <use xlink:href="#DejaVuSans-6f" x="60.658203"/>
     <use xlink:href="#DejaVuSans-6f" x="121.839844"/>
     <use xlink:href="#DejaVuSans-72" x="183.021484"/>
     <use xlink:href="#DejaVuSans-69" x="224.134766"/>
     <use xlink:href="#DejaVuSans-6e" x="251.917969"/>
     <use xlink:href="#DejaVuSans-73" x="315.296875"/>
     <use xlink:href="#DejaVuSans-74" x="367.396484"/>
     <use xlink:href="#DejaVuSans-65" x="406.605469"/>
     <use xlink:href="#DejaVuSans-6c" x="468.128906"/>
     <use xlink:href="#DejaVuSans-73" x="495.912109"/>
     <use xlink:href="#DejaVuSans-70" x="548.011719"/>
     <use xlink:href="#DejaVuSans-61" x="611.488281"/>
     <use xlink:href="#DejaVuSans-6e" x="672.767578"/>
     <use xlink:href="#DejaVuSans-6e" x="736.146484"/>
     <use xlink:href="#DejaVuSans-69" x="799.525391"/>
     <use xlink:href="#DejaVuSans-6e" x="827.308594"/>
     <use xlink:href="#DejaVuSans-67" x="890.6875"/>
    </g>
   </g>
   <g id="patch_12">
    <path d="M 224.305531 90.397656 
C 225.02158 90.397656 225.708397 90.113167 226.21472 89.606845 
C 226.721042 89.100522 227.005531 88.413705 227.005531 87.697656 
C 227.005531 86.981608 226.721042 86.294791 226.21472 85.788468 
C 225.708397 85.282145 225.02158 84.997656 224.305531 84.997656 
C 223.589483 84.997656 222.902666 85.282145 222.396343 85.788468 
C 221.89002 86.294791 221.605531 86.981608 221.605531 87.697656 
C 221.605531 88.413705 221.89002 89.100522 222.396343 89.606845 
C 222.902666 90.113167 223.589483 90.397656 224.305531 90.397656 
z
" clip-path="url(#pcbc83e2327)" style="stroke: #000000; stroke-width: 2; stroke-linejoin: miter"/>
   </g>
   <g id="patch_13">
    <path d="M 224.305531 198.397656 
C 225.02158 198.397656 225.708397 198.113167 226.21472 197.606845 
C 226.721042 197.100522 227.005531 196.413705 227.005531 195.697656 
C 227.005531 194.981608 226.721042 194.294791 226.21472 193.788468 
C 225.708397 193.282145 225.02158 192.997656 224.305531 192.997656 
C 223.589483 192.997656 222.902666 193.282145 222.396343 193.788468 
C 221.89002 194.294791 221.605531 194.981608 221.605531 195.697656 
C 221.605531 196.413705 221.89002 197.100522 222.396343 197.606845 
C 222.902666 198.113167 223.589483 198.397656 224.305531 198.397656 
z
" clip-path="url(#pcbc83e2327)" style="stroke: #000000; stroke-width: 2; stroke-linejoin: miter"/>
   </g>
   <g id="patch_14">
    <path d="M 251.365531 90.397656 
C 252.08158 90.397656 252.768397 90.113167 253.27472 89.606845 
C 253.781042 89.100522 254.065531 88.413705 254.065531 87.697656 
C 254.065531 86.981608 253.781042 86.294791 253.27472 85.788468 
C 252.768397 85.282145 252.08158 84.997656 251.365531 84.997656 
C 250.649483 84.997656 249.962666 85.282145 249.456343 85.788468 
C 248.95002 86.294791 248.665531 86.981608 248.665531 87.697656 
C 248.665531 88.413705 248.95002 89.100522 249.456343 89.606845 
C 249.962666 90.113167 250.649483 90.397656 251.365531 90.397656 
z
" clip-path="url(#pcbc83e2327)" style="stroke: #000000; stroke-width: 2; stroke-linejoin: miter"/>
   </g>
   <g id="patch_15">
    <path d="M 251.365531 198.397656 
C 252.08158 198.397656 252.768397 198.113167 253.27472 197.606845 
C 253.781042 197.100522 254.065531 196.413705 254.065531 195.697656 
C 254.065531 194.981608 253.781042 194.294791 253.27472 193.788468 
C 252.768397 193.282145 252.08158 192.997656 251.365531 192.997656 
C 250.649483 192.997656 249.962666 193.282145 249.456343 193.788468 
C 248.95002 194.294791 248.665531 194.981608 248.665531 195.697656 
C 248.665531 196.413705 248.95002 197.100522 249.456343 197.606845 
C 249.962666 198.113167 250.649483 198.397656 251.365531 198.397656 
z
" clip-path="url(#pcbc83e2327)" style="stroke: #000000; stroke-width: 2; stroke-linejoin: miter"/>
   </g>
   <g id="patch_16">
    <path d="M 170.305531 198.397656 
C 171.02158 198.397656 171.708397 198.113167 172.21472 197.606845 
C 172.721042 197.100522 173.005531 196.413705 173.005531 195.697656 
C 173.005531 194.981608 172.721042 194.294791 172.21472 193.788468 
C 171.708397 193.282145 171.02158 192.997656 170.305531 192.997656 
C 169.589483 192.997656 168.902666 193.282145 168.396343 193.788468 
C 167.89002 194.294791 167.605531 194.981608 167.605531 195.697656 
C 167.605531 196.413705 167.89002 197.100522 168.396343 197.606845 
C 168.902666 198.113167 169.589483 198.397656 170.305531 198.397656 
z
" clip-path="url(#pcbc83e2327)" style="fill: #ffffff; stroke: #000000; stroke-width: 2; stroke-linejoin: miter"/>
   </g>
   <g id="text_9">
    <!-- $V_{in}$ -->
    <g transform="translate(140.268031 197.598047) scale(0.125 -0.125)">
     <defs>
      <path id="DejaVuSans-Oblique-69" d="M 1172 4863 
L 1747 4863 
L 1606 4134 
L 1031 4134 
L 1172 4863 
z
M 909 3500 
L 1484 3500 
L 800 0 
L 225 0 
L 909 3500 
z
" transform="scale(0.015625)"/>
      <path id="DejaVuSans-Oblique-6e" d="M 3566 2113 
L 3156 0 
L 2578 0 
L 2988 2091 
Q 3016 2238 3031 2350 
Q 3047 2463 3047 2528 
Q 3047 2791 2881 2937 
Q 2716 3084 2419 3084 
Q 1956 3084 1622 2776 
Q 1288 2469 1184 1941 
L 800 0 
L 225 0 
L 903 3500 
L 1478 3500 
L 1363 2950 
Q 1603 3253 1940 3418 
Q 2278 3584 2650 3584 
Q 3113 3584 3367 3334 
Q 3622 3084 3622 2631 
Q 3622 2519 3608 2391 
Q 3594 2263 3566 2113 
z
" transform="scale(0.015625)"/>
     </defs>
     <use xlink:href="#DejaVuSans-Oblique-56" transform="translate(0 0.09375)"/>
     <use xlink:href="#DejaVuSans-Oblique-69" transform="translate(68.408203 -16.3125) scale(0.7)"/>
     <use xlink:href="#DejaVuSans-Oblique-6e" transform="translate(87.856445 -16.3125) scale(0.7)"/>
    </g>
   </g>
   <g id="patch_17">
    <path d="M 305.365531 144.277656 
C 306.08158 144.277656 306.768397 143.993167 307.27472 143.486845 
C 307.781042 142.980522 308.065531 142.293705 308.065531 141.577656 
C 308.065531 140.861608 307.781042 140.174791 307.27472 139.668468 
C 306.768397 139.162145 306.08158 138.877656 305.365531 138.877656 
C 304.649483 138.877656 303.962666 139.162145 303.456343 139.668468 
C 302.95002 140.174791 302.665531 140.861608 302.665531 141.577656 
C 302.665531 142.293705 302.95002 142.980522 303.456343 143.486845 
C 303.962666 143.993167 304.649483 144.277656 305.365531 144.277656 
z
" clip-path="url(#pcbc83e2327)" style="stroke: #000000; stroke-width: 2; stroke-linejoin: miter"/>
   </g>
   <g id="patch_18">
    <path d="M 377.365531 144.277656 
C 378.08158 144.277656 378.768397 143.993167 379.27472 143.486845 
C 379.781042 142.980522 380.065531 142.293705 380.065531 141.577656 
C 380.065531 140.861608 379.781042 140.174791 379.27472 139.668468 
C 378.768397 139.162145 378.08158 138.877656 377.365531 138.877656 
C 376.649483 138.877656 375.962666 139.162145 375.456343 139.668468 
C 374.95002 140.174791 374.665531 140.861608 374.665531 141.577656 
C 374.665531 142.293705 374.95002 142.980522 375.456343 143.486845 
C 375.962666 143.993167 376.649483 144.277656 377.365531 144.277656 
z
" clip-path="url(#pcbc83e2327)" style="fill: #ffffff; stroke: #000000; stroke-width: 2; stroke-linejoin: miter"/>
   </g>
   <g id="text_10">
    <!-- $v_{out}$ -->
    <g transform="translate(366.303031 132.678047) scale(0.125 -0.125)">
     <defs>
      <path id="DejaVuSans-Oblique-6f" d="M 1625 -91 
Q 1009 -91 651 289 
Q 294 669 294 1325 
Q 294 1706 417 2101 
Q 541 2497 738 2766 
Q 1047 3184 1428 3384 
Q 1809 3584 2291 3584 
Q 2888 3584 3255 3212 
Q 3622 2841 3622 2241 
Q 3622 1825 3500 1412 
Q 3378 1000 3181 728 
Q 2875 309 2494 109 
Q 2113 -91 1625 -91 
z
M 891 1344 
Q 891 869 1089 633 
Q 1288 397 1691 397 
Q 2269 397 2648 901 
Q 3028 1406 3028 2181 
Q 3028 2634 2825 2865 
Q 2622 3097 2228 3097 
Q 1903 3097 1650 2945 
Q 1397 2794 1197 2484 
Q 1050 2253 970 1956 
Q 891 1659 891 1344 
z
" transform="scale(0.015625)"/>
      <path id="DejaVuSans-Oblique-75" d="M 428 1388 
L 838 3500 
L 1416 3500 
L 1006 1409 
Q 975 1256 961 1147 
Q 947 1038 947 966 
Q 947 700 1109 554 
Q 1272 409 1569 409 
Q 2031 409 2368 721 
Q 2706 1034 2809 1563 
L 3194 3500 
L 3769 3500 
L 3091 0 
L 2516 0 
L 2631 550 
Q 2388 244 2052 76 
Q 1716 -91 1338 -91 
Q 878 -91 622 161 
Q 366 413 366 863 
Q 366 956 381 1097 
Q 397 1238 428 1388 
z
" transform="scale(0.015625)"/>
      <path id="DejaVuSans-Oblique-74" d="M 2706 3500 
L 2619 3053 
L 1472 3053 
L 1100 1153 
Q 1081 1047 1072 975 
Q 1063 903 1063 863 
Q 1063 663 1183 572 
Q 1303 481 1569 481 
L 2150 481 
L 2053 0 
L 1503 0 
Q 991 0 739 200 
Q 488 400 488 806 
Q 488 878 497 964 
Q 506 1050 525 1153 
L 897 3053 
L 409 3053 
L 500 3500 
L 978 3500 
L 1172 4494 
L 1747 4494 
L 1556 3500 
L 2706 3500 
z
" transform="scale(0.015625)"/>
     </defs>
     <use xlink:href="#DejaVuSans-Oblique-76" transform="translate(0 0.3125)"/>
     <use xlink:href="#DejaVuSans-Oblique-6f" transform="translate(59.179688 -16.09375) scale(0.7)"/>
     <use xlink:href="#DejaVuSans-Oblique-75" transform="translate(102.006836 -16.09375) scale(0.7)"/>
     <use xlink:href="#DejaVuSans-Oblique-74" transform="translate(146.37207 -16.09375) scale(0.7)"/>
    </g>
   </g>
  </g>
 </g>
 <defs>
  <clipPath id="pcbc83e2327">
   <rect x="113.789731" y="7.057656" width="278.9556" height="269.28"/>
  </clipPath>
 </defs>
</svg>