<?xml version="1.0" encoding="utf-8" standalone="no"?>
<!DOCTYPE svg PUBLIC "-//W3C//DTD SVG 1.1//EN"
  "http://www.w3.org/Graphics/SVG/1.1/DTD/svg11.dtd">
<svg xmlns:xlink="http://www.w3.org/1999/xlink" width="223.0475pt" height="330.337656pt" viewBox="0 0 223.0475 330.337656" xmlns="http://www.w3.org/2000/svg" version="1.1">
 <metadata>
  <rdf:RDF xmlns:dc="http://purl.org/dc/elements/1.1/" xmlns:cc="http://creativecommons.org/ns#" xmlns:rdf="http://www.w3.org/1999/02/22-rdf-syntax-ns#">
   <cc:Work>
    <dc:type rdf:resource="http://purl.org/dc/dcmitype/StillImage"/>
    <dc:date>2023-12-31T15:55:19.668676</dc:date>
    <dc:format>image/svg+xml</dc:format>
    <dc:creator>
     <cc:Agent>
      <dc:title>Matplotlib v3.8.2, https://matplotlib.org/</dc:title>
     </cc:Agent>
    </dc:creator>
   </cc:Work>
  </rdf:RDF>
 </metadata>
 <defs>
  <style type="text/css">*{stroke-linejoin: round; stroke-linecap: butt}</style>
 </defs>
 <g id="figure_1">
  <g id="patch_1">
   <path d="M 0 330.337656 
L 223.0475 330.337656 
L 223.0475 0 
L 0 0 
z
" style="fill: #ffffff"/>
  </g>
  <g id="axes_1">
   <g id="patch_2">
    <path d="M 73.385 120.097656 
C 75.293826 120.097656 77.126425 119.338569 78.476169 117.988825 
C 79.825913 116.639081 80.585 114.806483 80.585 112.897656 
C 80.585 110.98883 79.825913 109.156231 78.476169 107.806487 
C 77.126425 106.456743 75.293826 105.697656 73.385 105.697656 
" clip-path="url(#p17baaf715a)" style="fill: none; stroke: #000000; stroke-width: 2; stroke-linejoin: miter"/>
   </g>
   <g id="patch_3">
    <path d="M 73.385 134.497656 
C 75.293826 134.497656 77.126425 133.738569 78.476169 132.388825 
C 79.825913 131.039081 80.585 129.206483 80.585 127.297656 
C 80.585 125.38883 79.825913 123.556231 78.476169 122.206487 
C 77.126425 120.856743 75.293826 120.097656 73.385 120.097656 
" clip-path="url(#p17baaf715a)" style="fill: none; stroke: #000000; stroke-width: 2; stroke-linejoin: miter"/>
   </g>
   <g id="patch_4">
    <path d="M 73.385 148.897656 
C 75.293826 148.897656 77.126425 148.138569 78.476169 146.788825 
C 79.825913 145.439081 80.585 143.606483 80.585 141.697656 
C 80.585 139.78883 79.825913 137.956231 78.476169 136.606487 
C 77.126425 135.256743 75.293826 134.497656 73.385 134.497656 
" clip-path="url(#p17baaf715a)" style="fill: none; stroke: #000000; stroke-width: 2; stroke-linejoin: miter"/>
   </g>
   <g id="patch_5">
    <path d="M 73.385 163.297656 
C 75.293826 163.297656 77.126425 162.538569 78.476169 161.188825 
C 79.825913 159.839081 80.585 158.006483 80.585 156.097656 
C 80.585 154.18883 79.825913 152.356231 78.476169 151.006487 
C 77.126425 149.656743 75.293826 148.897656 73.385 148.897656 
" clip-path="url(#p17baaf715a)" style="fill: none; stroke: #000000; stroke-width: 2; stroke-linejoin: miter"/>
   </g>
   <g id="patch_6">
    <path d="M 73.385 177.697656 
C 75.293826 177.697656 77.126425 176.938569 78.476169 175.588825 
C 79.825913 174.239081 80.585 172.406483 80.585 170.497656 
C 80.585 168.58883 79.825913 166.756231 78.476169 165.406487 
C 77.126425 164.056743 75.293826 163.297656 73.385 163.297656 
" clip-path="url(#p17baaf715a)" style="fill: none; stroke: #000000; stroke-width: 2; stroke-linejoin: miter"/>
   </g>
   <g id="patch_7">
    <path d="M 73.385 192.097656 
C 75.293826 192.097656 77.126425 191.338569 78.476169 189.988825 
C 79.825913 188.639081 80.585 186.806483 80.585 184.897656 
C 80.585 182.98883 79.825913 181.156231 78.476169 179.806487 
C 77.126425 178.456743 75.293826 177.697656 73.385 177.697656 
" clip-path="url(#p17baaf715a)" style="fill: none; stroke: #000000; stroke-width: 2; stroke-linejoin: miter"/>
   </g>
   <g id="patch_8">
    <path d="M 73.385 206.497656 
C 75.293826 206.497656 77.126425 205.738569 78.476169 204.388825 
C 79.825913 203.039081 80.585 201.206483 80.585 199.297656 
C 80.585 197.38883 79.825913 195.556231 78.476169 194.206487 
C 77.126425 192.856743 75.293826 192.097656 73.385 192.097656 
" clip-path="url(#p17baaf715a)" style="fill: none; stroke: #000000; stroke-width: 2; stroke-linejoin: miter"/>
   </g>
   <g id="patch_9">
    <path d="M 73.385 220.897656 
C 75.293826 220.897656 77.126425 220.138569 78.476169 218.788825 
C 79.825913 217.439081 80.585 215.606483 80.585 213.697656 
C 80.585 211.78883 79.825913 209.956231 78.476169 208.606487 
C 77.126425 207.256743 75.293826 206.497656 73.385 206.497656 
" clip-path="url(#p17baaf715a)" style="fill: none; stroke: #000000; stroke-width: 2; stroke-linejoin: miter"/>
   </g>
   <g id="patch_10">
    <path d="M 109.385 120.097656 
C 107.476174 120.097656 105.643575 120.856743 104.293831 122.206487 
C 102.944087 123.556231 102.185 125.38883 102.185 127.297656 
C 102.185 129.206483 102.944087 131.039081 104.293831 132.388825 
C 105.643575 133.738569 107.476174 134.497656 109.385 134.497656 
" clip-path="url(#p17baaf715a)" style="fill: none; stroke: #000000; stroke-width: 2; stroke-linejoin: miter"/>
   </g>
   <g id="patch_11">
    <path d="M 109.385 134.497656 
C 107.476174 134.497656 105.643575 135.256743 104.293831 136.606487 
C 102.944087 137.956231 102.185 139.78883 102.185 141.697656 
C 102.185 143.606483 102.944087 145.439081 104.293831 146.788825 
C 105.643575 148.138569 107.476174 148.897656 109.385 148.897656 
" clip-path="url(#p17baaf715a)" style="fill: none; stroke: #000000; stroke-width: 2; stroke-linejoin: miter"/>
   </g>
   <g id="patch_12">
    <path d="M 109.385 148.897656 
C 107.476174 148.897656 105.643575 149.656743 104.293831 151.006487 
C 102.944087 152.356231 102.185 154.18883 102.185 156.097656 
C 102.185 158.006483 102.944087 159.839081 104.293831 161.188825 
C 105.643575 162.538569 107.476174 163.297656 109.385 163.297656 
" clip-path="url(#p17baaf715a)" style="fill: none; stroke: #000000; stroke-width: 2; stroke-linejoin: miter"/>
   </g>
   <g id="patch_13">
    <path d="M 109.385 163.297656 
C 107.476174 163.297656 105.643575 164.056743 104.293831 165.406487 
C 102.944087 166.756231 102.185 168.58883 102.185 170.497656 
C 102.185 172.406483 102.944087 174.239081 104.293831 175.588825 
C 105.643575 176.938569 107.476174 177.697656 109.385 177.697656 
" clip-path="url(#p17baaf715a)" style="fill: none; stroke: #000000; stroke-width: 2; stroke-linejoin: miter"/>
   </g>
   <g id="patch_14">
    <path d="M 109.385 177.697656 
C 107.476174 177.697656 105.643575 178.456743 104.293831 179.806487 
C 102.944087 181.156231 102.185 182.98883 102.185 184.897656 
C 102.185 186.806483 102.944087 188.639081 104.293831 189.988825 
C 105.643575 191.338569 107.476174 192.097656 109.385 192.097656 
" clip-path="url(#p17baaf715a)" style="fill: none; stroke: #000000; stroke-width: 2; stroke-linejoin: miter"/>
   </g>
   <g id="patch_15">
    <path d="M 109.385 192.097656 
C 107.476174 192.097656 105.643575 192.856743 104.293831 194.206487 
C 102.944087 195.556231 102.185 197.38883 102.185 199.297656 
C 102.185 201.206483 102.944087 203.039081 104.293831 204.388825 
C 105.643575 205.738569 107.476174 206.497656 109.385 206.497656 
" clip-path="url(#p17baaf715a)" style="fill: none; stroke: #000000; stroke-width: 2; stroke-linejoin: miter"/>
   </g>
   <g id="line2d_1">
    <path d="M 19.325 263.977656 
L 32.525 263.977656 
" clip-path="url(#p17baaf715a)" style="fill: none; stroke: #000000; stroke-width: 2; stroke-linecap: round"/>
   </g>
   <g id="line2d_2">
    <path d="M 32.525 250.777656 
L 32.525 277.177656 
" clip-path="url(#p17baaf715a)" style="fill: none; stroke: #000000; stroke-width: 2; stroke-linecap: round"/>
   </g>
   <g id="line2d_3">
    <path d="M 32.525 257.377656 
L 46.385 245.497656 
L 46.385 238.897656 
" clip-path="url(#p17baaf715a)" style="fill: none; stroke: #000000; stroke-width: 2; stroke-linecap: round"/>
   </g>
   <g id="line2d_4">
    <path d="M 32.525 270.577656 
L 46.385 282.457656 
L 46.385 289.057656 
" clip-path="url(#p17baaf715a)" style="fill: none; stroke: #000000; stroke-width: 2; stroke-linecap: round"/>
   </g>
   <g id="line2d_5">
    <path d="M 32.525 270.577656 
L 39.551691 276.600534 
" clip-path="url(#p17baaf715a)" style="fill: none; stroke: #000000; stroke-width: 2; stroke-linecap: round"/>
   </g>
   <g id="patch_16">
    <path d="M 41.89454 273.86721 
L 46.385 282.457656 
L 37.208842 279.333858 
z
" clip-path="url(#p17baaf715a)"/>
   </g>
   <g id="line2d_6">
    <path d="M 46.385 289.057656 
L 46.385 303.457656 
L 37.385 303.457656 
L 55.385 303.457656 
M 40.085 307.777656 
L 52.685 307.777656 
M 44.585 312.097656 
L 48.185 312.097656 
" clip-path="url(#p17baaf715a)" style="fill: none; stroke: #000000; stroke-width: 2; stroke-linecap: round"/>
   </g>
   <g id="line2d_7">
    <path d="M 46.385 238.897656 
L 46.385 229.897656 
L 46.385 220.897656 
" clip-path="url(#p17baaf715a)" style="fill: none; stroke: #000000; stroke-width: 2; stroke-linecap: round"/>
   </g>
   <g id="line2d_8">
    <path d="M 46.385 220.897656 
L 59.885 220.897656 
L 73.385 220.897656 
" clip-path="url(#p17baaf715a)" style="fill: none; stroke: #000000; stroke-width: 2; stroke-linecap: round"/>
   </g>
   <g id="line2d_9">
    <path d="M 87.785 105.697656 
L 87.785 220.897656 
" clip-path="url(#p17baaf715a)" style="fill: none; stroke: #000000; stroke-width: 2; stroke-linecap: round"/>
   </g>
   <g id="line2d_10">
    <path d="M 94.985 105.697656 
L 94.985 220.897656 
" clip-path="url(#p17baaf715a)" style="fill: none; stroke: #000000; stroke-width: 2; stroke-linecap: round"/>
   </g>
   <g id="line2d_11">
    <path d="M 73.385 105.697656 
L 59.885 105.697656 
L 46.385 105.697656 
" clip-path="url(#p17baaf715a)" style="fill: none; stroke: #000000; stroke-width: 2; stroke-linecap: round"/>
   </g>
   <g id="line2d_12">
    <path d="M 46.385 105.697656 
L 46.385 96.697656 
L 46.385 87.697656 
" clip-path="url(#p17baaf715a)" style="fill: none; stroke: #000000; stroke-width: 2; stroke-linecap: round"/>
   </g>
   <g id="line2d_13">
    <path d="M 46.385 87.697656 
L 46.385 78.697656 
L 37.385 75.697656 
L 55.385 69.697656 
L 37.385 63.697656 
L 55.385 57.697656 
L 37.385 51.697656 
L 55.385 45.697656 
L 46.385 42.697656 
L 46.385 33.697656 
" clip-path="url(#p17baaf715a)" style="fill: none; stroke: #000000; stroke-width: 2; stroke-linecap: round"/>
   </g>
   <g id="line2d_14">
    <path d="M 46.385 33.697656 
L 46.385 19.297656 
" clip-path="url(#p17baaf715a)" style="fill: none; stroke: #000000; stroke-width: 2; stroke-linecap: round"/>
   </g>
   <g id="line2d_15">
    <path d="M 46.385 19.297656 
L 39.635 19.297656 
" clip-path="url(#p17baaf715a)" style="fill: none; stroke: #000000; stroke-width: 2; stroke-linecap: round"/>
   </g>
   <g id="line2d_16">
    <path d="M 46.385 19.297656 
L 53.135 19.297656 
" clip-path="url(#p17baaf715a)" style="fill: none; stroke: #000000; stroke-width: 2; stroke-linecap: round"/>
   </g>
   <g id="line2d_17">
    <path d="M 109.385 120.097656 
L 140.885 120.097656 
L 172.385 120.097656 
" clip-path="url(#p17baaf715a)" style="fill: none; stroke: #000000; stroke-width: 2; stroke-linecap: round"/>
   </g>
   <g id="line2d_18">
    <path d="M 109.385 206.497656 
L 140.885 206.497656 
L 172.385 206.497656 
" clip-path="url(#p17baaf715a)" style="fill: none; stroke: #000000; stroke-width: 2; stroke-linecap: round"/>
   </g>
   <g id="line2d_19">
    <path d="M 172.385 206.497656 
L 172.385 220.897656 
L 163.385 220.897656 
L 181.385 220.897656 
M 166.085 225.217656 
L 178.685 225.217656 
M 170.585 229.537656 
L 174.185 229.537656 
" clip-path="url(#p17baaf715a)" style="fill: none; stroke: #000000; stroke-width: 2; stroke-linecap: round"/>
   </g>
   <g id="line2d_20">
    <path d="M 172.385 206.497656 
L 172.385 181.297656 
L 163.385 178.297656 
L 181.385 172.297656 
L 163.385 166.297656 
L 181.385 160.297656 
L 163.385 154.297656 
L 181.385 148.297656 
L 172.385 145.297656 
L 172.385 120.097656 
" clip-path="url(#p17baaf715a)" style="fill: none; stroke: #000000; stroke-width: 2; stroke-linecap: round"/>
   </g>
   <g id="text_1">
    <!-- $I_{in}$ -->
    <g transform="translate(3.6 267.726875) scale(0.125 -0.125)">
     <defs>
      <path id="DejaVuSans-Oblique-49" d="M 1081 4666 
L 1716 4666 
L 806 0 
L 172 0 
L 1081 4666 
z
" transform="scale(0.015625)"/>
      <path id="DejaVuSans-Oblique-69" d="M 1172 4863 
L 1747 4863 
L 1606 4134 
L 1031 4134 
L 1172 4863 
z
M 909 3500 
L 1484 3500 
L 800 0 
L 225 0 
L 909 3500 
z
" transform="scale(0.015625)"/>
      <path id="DejaVuSans-Oblique-6e" d="M 3566 2113 
L 3156 0 
L 2578 0 
L 2988 2091 
Q 3016 2238 3031 2350 
Q 3047 2463 3047 2528 
Q 3047 2791 2881 2937 
Q 2716 3084 2419 3084 
Q 1956 3084 1622 2776 
Q 1288 2469 1184 1941 
L 800 0 
L 225 0 
L 903 3500 
L 1478 3500 
L 1363 2950 
Q 1603 3253 1940 3418 
Q 2278 3584 2650 3584 
Q 3113 3584 3367 3334 
Q 3622 3084 3622 2631 
Q 3622 2519 3608 2391 
Q 3594 2263 3566 2113 
z
" transform="scale(0.015625)"/>
     </defs>
     <use xlink:href="#DejaVuSans-Oblique-49" transform="translate(0 0.09375)"/>
     <use xlink:href="#DejaVuSans-Oblique-69" transform="translate(29.492188 -16.3125) scale(0.7)"/>
     <use xlink:href="#DejaVuSans-Oblique-6e" transform="translate(48.94043 -16.3125) scale(0.7)"/>
    </g>
   </g>
   <g id="text_2">
    <!-- $R_p$ -->
    <g transform="translate(19.16 63.322656) scale(0.125 -0.125)">
     <defs>
      <path id="DejaVuSans-Oblique-52" d="M 1613 4147 
L 1294 2491 
L 2106 2491 
Q 2584 2491 2879 2755 
Q 3175 3019 3175 3444 
Q 3175 3784 2976 3965 
Q 2778 4147 2406 4147 
L 1613 4147 
z
M 2772 2241 
Q 2972 2194 3105 2009 
Q 3238 1825 3413 1275 
L 3809 0 
L 3144 0 
L 2778 1197 
Q 2638 1659 2453 1815 
Q 2269 1972 1888 1972 
L 1191 1972 
L 806 0 
L 172 0 
L 1081 4666 
L 2503 4666 
Q 3150 4666 3495 4373 
Q 3841 4081 3841 3531 
Q 3841 3044 3547 2687 
Q 3253 2331 2772 2241 
z
" transform="scale(0.015625)"/>
      <path id="DejaVuSans-Oblique-70" d="M 3175 2156 
Q 3175 2616 2975 2859 
Q 2775 3103 2400 3103 
Q 2144 3103 1911 2972 
Q 1678 2841 1497 2591 
Q 1319 2344 1212 1994 
Q 1106 1644 1106 1300 
Q 1106 863 1306 627 
Q 1506 391 1875 391 
Q 2147 391 2380 519 
Q 2613 647 2778 891 
Q 2956 1147 3065 1494 
Q 3175 1841 3175 2156 
z
M 1394 2969 
Q 1625 3272 1939 3428 
Q 2253 3584 2638 3584 
Q 3175 3584 3472 3232 
Q 3769 2881 3769 2247 
Q 3769 1728 3584 1258 
Q 3400 788 3053 416 
Q 2822 169 2531 39 
Q 2241 -91 1919 -91 
Q 1547 -91 1294 64 
Q 1041 219 916 525 
L 556 -1331 
L -19 -1331 
L 922 3500 
L 1497 3500 
L 1394 2969 
z
" transform="scale(0.015625)"/>
     </defs>
     <use xlink:href="#DejaVuSans-Oblique-52" transform="translate(0 0.09375)"/>
     <use xlink:href="#DejaVuSans-Oblique-70" transform="translate(69.482422 -16.3125) scale(0.7)"/>
    </g>
   </g>
   <g id="text_3">
    <!-- $V_{dd}$ -->
    <g transform="translate(36.3225 13.098047) scale(0.125 -0.125)">
     <defs>
      <path id="DejaVuSans-Oblique-56" d="M 1319 0 
L 500 4666 
L 1119 4666 
L 1797 653 
L 4063 4666 
L 4750 4666 
L 2053 0 
L 1319 0 
z
" transform="scale(0.015625)"/>
      <path id="DejaVuSans-Oblique-64" d="M 2675 525 
Q 2444 222 2128 65 
Q 1813 -91 1428 -91 
Q 903 -91 598 267 
Q 294 625 294 1247 
Q 294 1766 478 2236 
Q 663 2706 1013 3078 
Q 1244 3325 1534 3454 
Q 1825 3584 2144 3584 
Q 2481 3584 2739 3421 
Q 2997 3259 3138 2956 
L 3513 4863 
L 4091 4863 
L 3144 0 
L 2566 0 
L 2675 525 
z
M 891 1350 
Q 891 897 1095 644 
Q 1300 391 1663 391 
Q 1931 391 2161 520 
Q 2391 650 2566 903 
Q 2750 1166 2856 1509 
Q 2963 1853 2963 2188 
Q 2963 2622 2758 2865 
Q 2553 3109 2194 3109 
Q 1922 3109 1687 2981 
Q 1453 2853 1288 2613 
Q 1106 2353 998 2009 
Q 891 1666 891 1350 
z
" transform="scale(0.015625)"/>
     </defs>
     <use xlink:href="#DejaVuSans-Oblique-56" transform="translate(0 0.09375)"/>
     <use xlink:href="#DejaVuSans-Oblique-64" transform="translate(68.408203 -16.3125) scale(0.7)"/>
     <use xlink:href="#DejaVuSans-Oblique-64" transform="translate(112.841797 -16.3125) scale(0.7)"/>
    </g>
   </g>
   <g id="text_4">
    <!-- $R_L$ -->
    <g transform="translate(145.785 166.746875) scale(0.125 -0.125)">
     <defs>
      <path id="DejaVuSans-Oblique-4c" d="M 1075 4666 
L 1709 4666 
L 909 525 
L 3181 525 
L 3078 0 
L 172 0 
L 1075 4666 
z
" transform="scale(0.015625)"/>
     </defs>
     <use xlink:href="#DejaVuSans-Oblique-52" transform="translate(0 0.09375)"/>
     <use xlink:href="#DejaVuSans-Oblique-4c" transform="translate(69.482422 -16.3125) scale(0.7)"/>
    </g>
   </g>
   <g id="text_5">
    <!-- - -->
    <g transform="translate(206.130117 188.346875) scale(0.125 -0.125)">
     <defs>
      <path id="DejaVuSans-2d" d="M 313 2009 
L 1997 2009 
L 1997 1497 
L 313 1497 
L 313 2009 
z
" transform="scale(0.015625)"/>
     </defs>
     <use xlink:href="#DejaVuSans-2d"/>
    </g>
   </g>
   <g id="text_6">
    <!-- $v_{out}$ -->
    <g transform="translate(197.3225 166.746875) scale(0.125 -0.125)">
     <defs>
      <path id="DejaVuSans-Oblique-76" d="M 459 3500 
L 1069 3500 
L 1581 525 
L 3256 3500 
L 3866 3500 
L 1875 0 
L 1100 0 
L 459 3500 
z
" transform="scale(0.015625)"/>
      <path id="DejaVuSans-Oblique-6f" d="M 1625 -91 
Q 1009 -91 651 289 
Q 294 669 294 1325 
Q 294 1706 417 2101 
Q 541 2497 738 2766 
Q 1047 3184 1428 3384 
Q 1809 3584 2291 3584 
Q 2888 3584 3255 3212 
Q 3622 2841 3622 2241 
Q 3622 1825 3500 1412 
Q 3378 1000 3181 728 
Q 2875 309 2494 109 
Q 2113 -91 1625 -91 
z
M 891 1344 
Q 891 869 1089 633 
Q 1288 397 1691 397 
Q 2269 397 2648 901 
Q 3028 1406 3028 2181 
Q 3028 2634 2825 2865 
Q 2622 3097 2228 3097 
Q 1903 3097 1650 2945 
Q 1397 2794 1197 2484 
Q 1050 2253 970 1956 
Q 891 1659 891 1344 
z
" transform="scale(0.015625)"/>
      <path id="DejaVuSans-Oblique-75" d="M 428 1388 
L 838 3500 
L 1416 3500 
L 1006 1409 
Q 975 1256 961 1147 
Q 947 1038 947 966 
Q 947 700 1109 554 
Q 1272 409 1569 409 
Q 2031 409 2368 721 
Q 2706 1034 2809 1563 
L 3194 3500 
L 3769 3500 
L 3091 0 
L 2516 0 
L 2631 550 
Q 2388 244 2052 76 
Q 1716 -91 1338 -91 
Q 878 -91 622 161 
Q 366 413 366 863 
Q 366 956 381 1097 
Q 397 1238 428 1388 
z
" transform="scale(0.015625)"/>
      <path id="DejaVuSans-Oblique-74" d="M 2706 3500 
L 2619 3053 
L 1472 3053 
L 1100 1153 
Q 1081 1047 1072 975 
Q 1063 903 1063 863 
Q 1063 663 1183 572 
Q 1303 481 1569 481 
L 2150 481 
L 2053 0 
L 1503 0 
Q 991 0 739 200 
Q 488 400 488 806 
Q 488 878 497 964 
Q 506 1050 525 1153 
L 897 3053 
L 409 3053 
L 500 3500 
L 978 3500 
L 1172 4494 
L 1747 4494 
L 1556 3500 
L 2706 3500 
z
" transform="scale(0.015625)"/>
     </defs>
     <use xlink:href="#DejaVuSans-Oblique-76" transform="translate(0 0.3125)"/>
     <use xlink:href="#DejaVuSans-Oblique-6f" transform="translate(59.179688 -16.09375) scale(0.7)"/>
     <use xlink:href="#DejaVuSans-Oblique-75" transform="translate(102.006836 -16.09375) scale(0.7)"/>
     <use xlink:href="#DejaVuSans-Oblique-74" transform="translate(146.37207 -16.09375) scale(0.7)"/>
    </g>
   </g>
   <g id="text_7">
    <!-- $+$ -->
    <g transform="translate(203.135 145.146875) scale(0.125 -0.125)">
     <defs>
      <path id="DejaVuSans-2b" d="M 2944 4013 
L 2944 2272 
L 4684 2272 
L 4684 1741 
L 2944 1741 
L 2944 0 
L 2419 0 
L 2419 1741 
L 678 1741 
L 678 2272 
L 2419 2272 
L 2419 4013 
L 2944 4013 
z
" transform="scale(0.015625)"/>
     </defs>
     <use xlink:href="#DejaVuSans-2b" transform="translate(0 0.296875)"/>
    </g>
   </g>
   <g id="patch_17">
    <path d="M 46.385 291.757656 
C 47.101048 291.757656 47.787866 291.473167 48.294188 290.966845 
C 48.800511 290.460522 49.085 289.773705 49.085 289.057656 
C 49.085 288.341608 48.800511 287.654791 48.294188 287.148468 
C 47.787866 286.642145 47.101048 286.357656 46.385 286.357656 
C 45.668952 286.357656 44.982134 286.642145 44.475812 287.148468 
C 43.969489 287.654791 43.685 288.341608 43.685 289.057656 
C 43.685 289.773705 43.969489 290.460522 44.475812 290.966845 
C 44.982134 291.473167 45.668952 291.757656 46.385 291.757656 
z
" clip-path="url(#p17baaf715a)" style="stroke: #000000; stroke-width: 2; stroke-linejoin: miter"/>
   </g>
   <g id="patch_18">
    <path d="M 19.325 266.677656 
C 20.041048 266.677656 20.727866 266.393167 21.234188 265.886845 
C 21.740511 265.380522 22.025 264.693705 22.025 263.977656 
C 22.025 263.261608 21.740511 262.574791 21.234188 262.068468 
C 20.727866 261.562145 20.041048 261.277656 19.325 261.277656 
C 18.608952 261.277656 17.922134 261.562145 17.415812 262.068468 
C 16.909489 262.574791 16.625 263.261608 16.625 263.977656 
C 16.625 264.693705 16.909489 265.380522 17.415812 265.886845 
C 17.922134 266.393167 18.608952 266.677656 19.325 266.677656 
z
" clip-path="url(#p17baaf715a)" style="fill: #ffffff; stroke: #000000; stroke-width: 2; stroke-linejoin: miter"/>
   </g>
   <g id="patch_19">
    <path d="M 46.385 223.597656 
C 47.101048 223.597656 47.787866 223.313167 48.294188 222.806845 
C 48.800511 222.300522 49.085 221.613705 49.085 220.897656 
C 49.085 220.181608 48.800511 219.494791 48.294188 218.988468 
C 47.787866 218.482145 47.101048 218.197656 46.385 218.197656 
C 45.668952 218.197656 44.982134 218.482145 44.475812 218.988468 
C 43.969489 219.494791 43.685 220.181608 43.685 220.897656 
C 43.685 221.613705 43.969489 222.300522 44.475812 222.806845 
C 44.982134 223.313167 45.668952 223.597656 46.385 223.597656 
z
" clip-path="url(#p17baaf715a)" style="stroke: #000000; stroke-width: 2; stroke-linejoin: miter"/>
   </g>
   <g id="patch_20">
    <path d="M 46.385 108.397656 
C 47.101048 108.397656 47.787866 108.113167 48.294188 107.606845 
C 48.800511 107.100522 49.085 106.413705 49.085 105.697656 
C 49.085 104.981608 48.800511 104.294791 48.294188 103.788468 
C 47.787866 103.282145 47.101048 102.997656 46.385 102.997656 
C 45.668952 102.997656 44.982134 103.282145 44.475812 103.788468 
C 43.969489 104.294791 43.685 104.981608 43.685 105.697656 
C 43.685 106.413705 43.969489 107.100522 44.475812 107.606845 
C 44.982134 108.113167 45.668952 108.397656 46.385 108.397656 
z
" clip-path="url(#p17baaf715a)" style="stroke: #000000; stroke-width: 2; stroke-linejoin: miter"/>
   </g>
   <g id="patch_21">
    <path d="M 46.385 36.397656 
C 47.101048 36.397656 47.787866 36.113167 48.294188 35.606845 
C 48.800511 35.100522 49.085 34.413705 49.085 33.697656 
C 49.085 32.981608 48.800511 32.294791 48.294188 31.788468 
C 47.787866 31.282145 47.101048 30.997656 46.385 30.997656 
C 45.668952 30.997656 44.982134 31.282145 44.475812 31.788468 
C 43.969489 32.294791 43.685 32.981608 43.685 33.697656 
C 43.685 34.413705 43.969489 35.100522 44.475812 35.606845 
C 44.982134 36.113167 45.668952 36.397656 46.385 36.397656 
z
" clip-path="url(#p17baaf715a)" style="stroke: #000000; stroke-width: 2; stroke-linejoin: miter"/>
   </g>
   <g id="patch_22">
    <path d="M 172.385 209.197656 
C 173.101048 209.197656 173.787866 208.913167 174.294188 208.406845 
C 174.800511 207.900522 175.085 207.213705 175.085 206.497656 
C 175.085 205.781608 174.800511 205.094791 174.294188 204.588468 
C 173.787866 204.082145 173.101048 203.797656 172.385 203.797656 
C 171.668952 203.797656 170.982134 204.082145 170.475812 204.588468 
C 169.969489 205.094791 169.685 205.781608 169.685 206.497656 
C 169.685 207.213705 169.969489 207.900522 170.475812 208.406845 
C 170.982134 208.913167 171.668952 209.197656 172.385 209.197656 
z
" clip-path="url(#p17baaf715a)" style="stroke: #000000; stroke-width: 2; stroke-linejoin: miter"/>
   </g>
   <g id="patch_23">
    <path d="M 172.385 122.797656 
C 173.101048 122.797656 173.787866 122.513167 174.294188 122.006845 
C 174.800511 121.500522 175.085 120.813705 175.085 120.097656 
C 175.085 119.381608 174.800511 118.694791 174.294188 118.188468 
C 173.787866 117.682145 173.101048 117.397656 172.385 117.397656 
C 171.668952 117.397656 170.982134 117.682145 170.475812 118.188468 
C 169.969489 118.694791 169.685 119.381608 169.685 120.097656 
C 169.685 120.813705 169.969489 121.500522 170.475812 122.006845 
C 170.982134 122.513167 171.668952 122.797656 172.385 122.797656 
z
" clip-path="url(#p17baaf715a)" style="stroke: #000000; stroke-width: 2; stroke-linejoin: miter"/>
   </g>
  </g>
 </g>
 <defs>
  <clipPath id="p17baaf715a">
   <rect x="8.387" y="4.657656" width="181.236" height="322.08"/>
  </clipPath>
 </defs>
</svg>