<?xml version="1.0" encoding="utf-8" standalone="no"?>
<!DOCTYPE svg PUBLIC "-//W3C//DTD SVG 1.1//EN"
  "http://www.w3.org/Graphics/SVG/1.1/DTD/svg11.dtd">
<svg xmlns:xlink="http://www.w3.org/1999/xlink" width="85.760258pt" height="115.704pt" viewBox="0 0 85.760258 115.704" xmlns="http://www.w3.org/2000/svg" version="1.1">
 <metadata>
  <rdf:RDF xmlns:dc="http://purl.org/dc/elements/1.1/" xmlns:cc="http://creativecommons.org/ns#" xmlns:rdf="http://www.w3.org/1999/02/22-rdf-syntax-ns#">
   <cc:Work>
    <dc:type rdf:resource="http://purl.org/dc/dcmitype/StillImage"/>
    <dc:date>2024-01-09T10:49:44.000211</dc:date>
    <dc:format>image/svg+xml</dc:format>
    <dc:creator>
     <cc:Agent>
      <dc:title>Matplotlib v3.8.2, https://matplotlib.org/</dc:title>
     </cc:Agent>
    </dc:creator>
   </cc:Work>
  </rdf:RDF>
 </metadata>
 <defs>
  <style type="text/css">*{stroke-linejoin: round; stroke-linecap: butt}</style>
 </defs>
 <g id="figure_1">
  <g id="patch_1">
   <path d="M 0 115.704 
L 85.760258 115.704 
L 85.760258 0 
L 0 0 
z
" style="fill: #ffffff"/>
  </g>
  <g id="axes_1">
   <g id="line2d_1">
    <path d="M 9.276 61.392 
L 22.476 61.392 
" clip-path="url(#pb4f350bdfb)" style="fill: none; stroke: #000000; stroke-width: 2; stroke-linecap: round"/>
   </g>
   <g id="line2d_2">
    <path d="M 22.476 48.192 
L 22.476 74.592 
" clip-path="url(#pb4f350bdfb)" style="fill: none; stroke: #000000; stroke-width: 2; stroke-linecap: round"/>
   </g>
   <g id="line2d_3">
    <path d="M 22.476 54.792 
L 36.336 42.912 
L 36.336 36.312 
" clip-path="url(#pb4f350bdfb)" style="fill: none; stroke: #000000; stroke-width: 2; stroke-linecap: round"/>
   </g>
   <g id="line2d_4">
    <path d="M 22.476 67.992 
L 36.336 79.872 
L 36.336 86.472 
" clip-path="url(#pb4f350bdfb)" style="fill: none; stroke: #000000; stroke-width: 2; stroke-linecap: round"/>
   </g>
   <g id="line2d_5">
    <path d="M 22.476 67.992 
L 29.502691 74.014878 
" clip-path="url(#pb4f350bdfb)" style="fill: none; stroke: #000000; stroke-width: 2; stroke-linecap: round"/>
   </g>
   <g id="patch_2">
    <path d="M 31.84554 71.281554 
L 36.336 79.872 
L 27.159842 76.748201 
z
" clip-path="url(#pb4f350bdfb)"/>
   </g>
   <g id="line2d_6">
    <path d="M 36.336 36.312 
L 49.536 36.312 
" clip-path="url(#pb4f350bdfb)" style="fill: none; stroke: #000000; stroke-width: 2; stroke-linecap: round"/>
   </g>
   <g id="line2d_7">
    <path d="M 49.536 23.112 
L 49.536 49.512 
" clip-path="url(#pb4f350bdfb)" style="fill: none; stroke: #000000; stroke-width: 2; stroke-linecap: round"/>
   </g>
   <g id="line2d_8">
    <path d="M 49.536 29.712 
L 63.396 17.832 
L 63.396 11.232 
" clip-path="url(#pb4f350bdfb)" style="fill: none; stroke: #000000; stroke-width: 2; stroke-linecap: round"/>
   </g>
   <g id="line2d_9">
    <path d="M 49.536 42.912 
L 63.396 54.792 
L 63.396 61.392 
" clip-path="url(#pb4f350bdfb)" style="fill: none; stroke: #000000; stroke-width: 2; stroke-linecap: round"/>
   </g>
   <g id="line2d_10">
    <path d="M 63.396 17.832 
L 56.369309 23.854878 
" clip-path="url(#pb4f350bdfb)" style="fill: none; stroke: #000000; stroke-width: 2; stroke-linecap: round"/>
   </g>
   <g id="patch_3">
    <path d="M 58.712158 26.588201 
L 49.536 29.712 
L 54.02646 21.121554 
z
" clip-path="url(#pb4f350bdfb)"/>
   </g>
   <g id="line2d_11">
    <path d="M 63.396 61.392 
L 63.396 73.932 
L 63.396 86.472 
" clip-path="url(#pb4f350bdfb)" style="fill: none; stroke: #000000; stroke-width: 2; stroke-linecap: round"/>
   </g>
   <g id="line2d_12">
    <path d="M 63.396 86.472 
L 49.866 86.472 
L 36.336 86.472 
" clip-path="url(#pb4f350bdfb)" style="fill: none; stroke: #000000; stroke-width: 2; stroke-linecap: round"/>
   </g>
   <g id="line2d_13">
    <path d="M 63.396 86.472 
L 63.396 95.472 
L 63.396 104.472 
" clip-path="url(#pb4f350bdfb)" style="fill: none; stroke: #000000; stroke-width: 2; stroke-linecap: round"/>
   </g>
   <g id="patch_4">
    <path d="M 9.276 64.092 
C 9.992048 64.092 10.678866 63.807511 11.185188 63.301188 
C 11.691511 62.794866 11.976 62.108048 11.976 61.392 
C 11.976 60.675952 11.691511 59.989134 11.185188 59.482812 
C 10.678866 58.976489 9.992048 58.692 9.276 58.692 
C 8.559952 58.692 7.873134 58.976489 7.366812 59.482812 
C 6.860489 59.989134 6.576 60.675952 6.576 61.392 
C 6.576 62.108048 6.860489 62.794866 7.366812 63.301188 
C 7.873134 63.807511 8.559952 64.092 9.276 64.092 
z
" clip-path="url(#pb4f350bdfb)" style="fill: #ffffff; stroke: #000000; stroke-width: 2; stroke-linejoin: miter"/>
   </g>
   <g id="text_1">
    <!-- B -->
    <g transform="translate(4.987914 52.492391) scale(0.125 -0.125)">
     <defs>
      <path id="DejaVuSans-42" d="M 1259 2228 
L 1259 519 
L 2272 519 
Q 2781 519 3026 730 
Q 3272 941 3272 1375 
Q 3272 1813 3026 2020 
Q 2781 2228 2272 2228 
L 1259 2228 
z
M 1259 4147 
L 1259 2741 
L 2194 2741 
Q 2656 2741 2882 2914 
Q 3109 3088 3109 3444 
Q 3109 3797 2882 3972 
Q 2656 4147 2194 4147 
L 1259 4147 
z
M 628 4666 
L 2241 4666 
Q 2963 4666 3353 4366 
Q 3744 4066 3744 3513 
Q 3744 3084 3544 2831 
Q 3344 2578 2956 2516 
Q 3422 2416 3680 2098 
Q 3938 1781 3938 1306 
Q 3938 681 3513 340 
Q 3088 0 2303 0 
L 628 0 
L 628 4666 
z
" transform="scale(0.015625)"/>
     </defs>
     <use xlink:href="#DejaVuSans-42"/>
    </g>
   </g>
   <g id="patch_5">
    <path d="M 63.396 13.932 
C 64.112048 13.932 64.798866 13.647511 65.305188 13.141188 
C 65.811511 12.634866 66.096 11.948048 66.096 11.232 
C 66.096 10.515952 65.811511 9.829134 65.305188 9.322812 
C 64.798866 8.816489 64.112048 8.532 63.396 8.532 
C 62.679952 8.532 61.993134 8.816489 61.486812 9.322812 
C 60.980489 9.829134 60.696 10.515952 60.696 11.232 
C 60.696 11.948048 60.980489 12.634866 61.486812 13.141188 
C 61.993134 13.647511 62.679952 13.932 63.396 13.932 
z
" clip-path="url(#pb4f350bdfb)" style="fill: #ffffff; stroke: #000000; stroke-width: 2; stroke-linejoin: miter"/>
   </g>
   <g id="text_2">
    <!-- C -->
    <g transform="translate(73.431742 20.332391) scale(0.125 -0.125)">
     <defs>
      <path id="DejaVuSans-43" d="M 4122 4306 
L 4122 3641 
Q 3803 3938 3442 4084 
Q 3081 4231 2675 4231 
Q 1875 4231 1450 3742 
Q 1025 3253 1025 2328 
Q 1025 1406 1450 917 
Q 1875 428 2675 428 
Q 3081 428 3442 575 
Q 3803 722 4122 1019 
L 4122 359 
Q 3791 134 3420 21 
Q 3050 -91 2638 -91 
Q 1578 -91 968 557 
Q 359 1206 359 2328 
Q 359 3453 968 4101 
Q 1578 4750 2638 4750 
Q 3056 4750 3426 4639 
Q 3797 4528 4122 4306 
z
" transform="scale(0.015625)"/>
     </defs>
     <use xlink:href="#DejaVuSans-43"/>
    </g>
   </g>
   <g id="patch_6">
    <path d="M 63.396 89.172 
C 64.112048 89.172 64.798866 88.887511 65.305188 88.381188 
C 65.811511 87.874866 66.096 87.188048 66.096 86.472 
C 66.096 85.755952 65.811511 85.069134 65.305188 84.562812 
C 64.798866 84.056489 64.112048 83.772 63.396 83.772 
C 62.679952 83.772 61.993134 84.056489 61.486812 84.562812 
C 60.980489 85.069134 60.696 85.755952 60.696 86.472 
C 60.696 87.188048 60.980489 87.874866 61.486812 88.381188 
C 61.993134 88.887511 62.679952 89.172 63.396 89.172 
z
" clip-path="url(#pb4f350bdfb)" style="stroke: #000000; stroke-width: 2; stroke-linejoin: miter"/>
   </g>
   <g id="patch_7">
    <path d="M 63.396 107.172 
C 64.112048 107.172 64.798866 106.887511 65.305188 106.381188 
C 65.811511 105.874866 66.096 105.188048 66.096 104.472 
C 66.096 103.755952 65.811511 103.069134 65.305188 102.562812 
C 64.798866 102.056489 64.112048 101.772 63.396 101.772 
C 62.679952 101.772 61.993134 102.056489 61.486812 102.562812 
C 60.980489 103.069134 60.696 103.755952 60.696 104.472 
C 60.696 105.188048 60.980489 105.874866 61.486812 106.381188 
C 61.993134 106.887511 62.679952 107.172 63.396 107.172 
z
" clip-path="url(#pb4f350bdfb)" style="fill: #ffffff; stroke: #000000; stroke-width: 2; stroke-linejoin: miter"/>
   </g>
   <g id="text_3">
    <!-- E -->
    <g transform="translate(73.846781 102.772391) scale(0.125 -0.125)">
     <defs>
      <path id="DejaVuSans-45" d="M 628 4666 
L 3578 4666 
L 3578 4134 
L 1259 4134 
L 1259 2753 
L 3481 2753 
L 3481 2222 
L 1259 2222 
L 1259 531 
L 3634 531 
L 3634 0 
L 628 0 
L 628 4666 
z
" transform="scale(0.015625)"/>
     </defs>
     <use xlink:href="#DejaVuSans-45"/>
    </g>
   </g>
  </g>
 </g>
 <defs>
  <clipPath id="pb4f350bdfb">
   <rect x="3.6" y="3.6" width="65.472" height="108.504"/>
  </clipPath>
 </defs>
</svg>