<?xml version="1.0" encoding="utf-8" standalone="no"?>
<!DOCTYPE svg PUBLIC "-//W3C//DTD SVG 1.1//EN"
  "http://www.w3.org/Graphics/SVG/1.1/DTD/svg11.dtd">
<svg xmlns:xlink="http://www.w3.org/1999/xlink" width="201.306pt" height="300.097656pt" viewBox="0 0 201.306 300.097656" xmlns="http://www.w3.org/2000/svg" version="1.1">
 <metadata>
  <rdf:RDF xmlns:dc="http://purl.org/dc/elements/1.1/" xmlns:cc="http://creativecommons.org/ns#" xmlns:rdf="http://www.w3.org/1999/02/22-rdf-syntax-ns#">
   <cc:Work>
    <dc:type rdf:resource="http://purl.org/dc/dcmitype/StillImage"/>
    <dc:date>2024-01-02T15:15:39.840621</dc:date>
    <dc:format>image/svg+xml</dc:format>
    <dc:creator>
     <cc:Agent>
      <dc:title>Matplotlib v3.8.2, https://matplotlib.org/</dc:title>
     </cc:Agent>
    </dc:creator>
   </cc:Work>
  </rdf:RDF>
 </metadata>
 <defs>
  <style type="text/css">*{stroke-linejoin: round; stroke-linecap: butt}</style>
 </defs>
 <g id="figure_1">
  <g id="patch_1">
   <path d="M 0 300.097656 
L 201.306 300.097656 
L 201.306 0 
L 0 0 
z
" style="fill: #ffffff"/>
  </g>
  <g id="axes_1">
   <g id="patch_2">
    <path d="M 83.643 145.057656 
L 83.814352 145.056297 
L 83.985662 145.052219 
L 84.156885 145.045424 
L 84.327978 145.035912 
L 84.4989 145.023688 
L 84.669605 145.008753 
L 84.840053 144.991112 
L 85.010198 144.970768 
L 85.18 144.947728 
L 85.349415 144.921996 
L 85.5184 144.89358 
L 85.686913 144.862486 
L 85.854912 144.828723 
L 86.022354 144.792298 
L 86.189197 144.753221 
L 86.355398 144.711502 
L 86.520917 144.667152 
L 86.685712 144.62018 
L 86.84974 144.5706 
L 87.012961 144.518424 
L 87.175334 144.463665 
L 87.336818 144.406337 
L 87.497371 144.346453 
L 87.656955 144.28403 
L 87.815527 144.219083 
L 87.97305 144.151628 
L 88.129482 144.081682 
L 88.284785 144.009263 
L 88.438919 143.934389 
L 88.591846 143.857079 
L 88.743528 143.777353 
L 88.893925 143.69523 
L 89.043 143.610731 
L 89.190716 143.523877 
L 89.337035 143.434691 
L 89.481921 143.343194 
L 89.625337 143.249411 
L 89.767247 143.153363 
L 89.907615 143.055077 
L 90.046406 142.954575 
L 90.183585 142.851884 
L 90.319117 142.74703 
L 90.452969 142.640038 
L 90.585106 142.530936 
L 90.715496 142.419752 
L 90.844105 142.306512 
L 90.970902 142.191247 
L 91.095853 142.073984 
L 91.218929 141.954753 
L 91.340097 141.833585 
L 91.459328 141.71051 
L 91.57659 141.585558 
L 91.691856 141.458761 
L 91.805095 141.330152 
L 91.91628 141.199762 
L 92.025382 141.067625 
L 92.132373 140.933773 
L 92.237228 140.798241 
L 92.339919 140.661062 
L 92.44042 140.522271 
L 92.538707 140.381903 
L 92.634754 140.239993 
L 92.728538 140.096577 
L 92.820035 139.951691 
L 92.909221 139.805372 
L 92.996074 139.657656 
L 93.080573 139.508581 
L 93.162696 139.358184 
L 93.242423 139.206503 
L 93.319733 139.053576 
L 93.394607 138.899441 
L 93.467026 138.744138 
L 93.536971 138.587706 
L 93.604426 138.430184 
L 93.669374 138.271611 
L 93.731797 138.112027 
L 93.79168 137.951474 
L 93.849009 137.78999 
L 93.903768 137.627617 
L 93.955944 137.464396 
L 94.005524 137.300368 
L 94.052495 137.135573 
L 94.096846 136.970055 
L 94.138565 136.803853 
L 94.177642 136.63701 
L 94.214066 136.469568 
L 94.24783 136.30157 
L 94.278924 136.133057 
L 94.30734 135.964071 
L 94.333072 135.794657 
L 94.356112 135.624855 
L 94.376455 135.454709 
L 94.394097 135.284262 
L 94.409032 135.113556 
L 94.421256 134.942635 
L 94.430767 134.771541 
L 94.437563 134.600318 
L 94.441641 134.429009 
L 94.443 134.257656 
L 94.443 48.097656 
L 94.441641 47.926304 
L 94.437563 47.754995 
L 94.430767 47.583772 
L 94.421256 47.412678 
L 94.409032 47.241757 
L 94.394097 47.071051 
L 94.376455 46.900604 
L 94.356112 46.730458 
L 94.333072 46.560656 
L 94.30734 46.391241 
L 94.278924 46.222256 
L 94.24783 46.053743 
L 94.214066 45.885744 
L 94.177642 45.718302 
L 94.138565 45.55146 
L 94.096846 45.385258 
L 94.052495 45.219739 
L 94.005524 45.054945 
L 93.955944 44.890916 
L 93.903768 44.727695 
L 93.849009 44.565322 
L 93.79168 44.403839 
L 93.731797 44.243285 
L 93.669374 44.083702 
L 93.604426 43.925129 
L 93.536971 43.767606 
L 93.467026 43.611174 
L 93.394607 43.455871 
L 93.319733 43.301737 
L 93.242423 43.14881 
L 93.162696 42.997129 
L 93.080573 42.846732 
L 92.996074 42.697656 
L 92.909221 42.54994 
L 92.820035 42.403621 
L 92.728538 42.258735 
L 92.634754 42.11532 
L 92.538707 41.97341 
L 92.44042 41.833042 
L 92.339919 41.694251 
L 92.237228 41.557072 
L 92.132373 41.421539 
L 92.025382 41.287687 
L 91.91628 41.15555 
L 91.805095 41.02516 
L 91.691856 40.896551 
L 91.57659 40.769755 
L 91.459328 40.644803 
L 91.340097 40.521727 
L 91.218929 40.400559 
L 91.095853 40.281329 
L 90.970902 40.164066 
L 90.844105 40.0488 
L 90.715496 39.935561 
L 90.585106 39.824376 
L 90.452969 39.715274 
L 90.319117 39.608283 
L 90.183585 39.503428 
L 90.046406 39.400737 
L 89.907615 39.300236 
L 89.767247 39.201949 
L 89.625337 39.105902 
L 89.481921 39.012118 
L 89.337035 38.920622 
L 89.190716 38.831435 
L 89.043 38.744582 
L 88.893925 38.660083 
L 88.743528 38.57796 
L 88.591846 38.498233 
L 88.438919 38.420923 
L 88.284785 38.34605 
L 88.129482 38.273631 
L 87.97305 38.203685 
L 87.815527 38.13623 
L 87.656955 38.071283 
L 87.497371 38.008859 
L 87.336818 37.948976 
L 87.175334 37.891647 
L 87.012961 37.836888 
L 86.84974 37.784712 
L 86.685712 37.735132 
L 86.520917 37.688161 
L 86.355398 37.64381 
L 86.189197 37.602091 
L 86.022354 37.563015 
L 85.854912 37.52659 
L 85.686913 37.492826 
L 85.5184 37.461733 
L 85.349415 37.433316 
L 85.18 37.407585 
L 85.010198 37.384544 
L 84.840053 37.364201 
L 84.669605 37.346559 
L 84.4989 37.331625 
L 84.327978 37.3194 
L 84.156885 37.309889 
L 83.985662 37.303094 
L 83.814352 37.299016 
L 83.643 37.297656 
L 36.723 37.297656 
L 36.551648 37.299016 
L 36.380338 37.303094 
L 36.209115 37.309889 
L 36.038022 37.3194 
L 35.8671 37.331625 
L 35.696395 37.346559 
L 35.525947 37.364201 
L 35.355802 37.384544 
L 35.186 37.407585 
L 35.016585 37.433316 
L 34.8476 37.461733 
L 34.679087 37.492826 
L 34.511088 37.52659 
L 34.343646 37.563015 
L 34.176803 37.602091 
L 34.010602 37.64381 
L 33.845083 37.688161 
L 33.680288 37.735132 
L 33.51626 37.784712 
L 33.353039 37.836888 
L 33.190666 37.891647 
L 33.029182 37.948976 
L 32.868629 38.008859 
L 32.709045 38.071283 
L 32.550473 38.13623 
L 32.39295 38.203685 
L 32.236518 38.273631 
L 32.081215 38.34605 
L 31.927081 38.420923 
L 31.774154 38.498233 
L 31.622472 38.57796 
L 31.472075 38.660083 
L 31.323 38.744582 
L 31.175284 38.831435 
L 31.028965 38.920622 
L 30.884079 39.012118 
L 30.740663 39.105902 
L 30.598753 39.201949 
L 30.458385 39.300236 
L 30.319594 39.400737 
L 30.182415 39.503428 
L 30.046883 39.608283 
L 29.913031 39.715274 
L 29.780894 39.824376 
L 29.650504 39.935561 
L 29.521895 40.0488 
L 29.395098 40.164066 
L 29.270147 40.281329 
L 29.147071 40.400559 
L 29.025903 40.521727 
L 28.906672 40.644803 
L 28.78941 40.769755 
L 28.674144 40.896551 
L 28.560905 41.02516 
L 28.44972 41.15555 
L 28.340618 41.287687 
L 28.233627 41.421539 
L 28.128772 41.557072 
L 28.026081 41.694251 
L 27.92558 41.833042 
L 27.827293 41.97341 
L 27.731246 42.11532 
L 27.637462 42.258735 
L 27.545965 42.403621 
L 27.456779 42.54994 
L 27.369926 42.697656 
L 27.285427 42.846732 
L 27.203304 42.997129 
L 27.123577 43.14881 
L 27.046267 43.301737 
L 26.971393 43.455871 
L 26.898974 43.611174 
L 26.829029 43.767606 
L 26.761574 43.925129 
L 26.696626 44.083702 
L 26.634203 44.243285 
L 26.57432 44.403839 
L 26.516991 44.565322 
L 26.462232 44.727695 
L 26.410056 44.890916 
L 26.360476 45.054945 
L 26.313505 45.219739 
L 26.269154 45.385258 
L 26.227435 45.55146 
L 26.188358 45.718302 
L 26.151934 45.885744 
L 26.11817 46.053743 
L 26.087076 46.222256 
L 26.05866 46.391241 
L 26.032928 46.560656 
L 26.009888 46.730458 
L 25.989545 46.900604 
L 25.971903 47.071051 
L 25.956968 47.241757 
L 25.944744 47.412678 
L 25.935233 47.583772 
L 25.928437 47.754995 
L 25.924359 47.926304 
L 25.923 48.097656 
L 25.923 134.257656 
L 25.924359 134.429009 
L 25.928437 134.600318 
L 25.935233 134.771541 
L 25.944744 134.942635 
L 25.956968 135.113556 
L 25.971903 135.284262 
L 25.989545 135.454709 
L 26.009888 135.624855 
L 26.032928 135.794657 
L 26.05866 135.964071 
L 26.087076 136.133057 
L 26.11817 136.30157 
L 26.151934 136.469568 
L 26.188358 136.63701 
L 26.227435 136.803853 
L 26.269154 136.970055 
L 26.313505 137.135573 
L 26.360476 137.300368 
L 26.410056 137.464396 
L 26.462232 137.627617 
L 26.516991 137.78999 
L 26.57432 137.951474 
L 26.634203 138.112027 
L 26.696626 138.271611 
L 26.761574 138.430184 
L 26.829029 138.587706 
L 26.898974 138.744138 
L 26.971393 138.899441 
L 27.046267 139.053576 
L 27.123577 139.206503 
L 27.203304 139.358184 
L 27.285427 139.508581 
L 27.369926 139.657656 
L 27.456779 139.805372 
L 27.545965 139.951691 
L 27.637462 140.096577 
L 27.731246 140.239993 
L 27.827293 140.381903 
L 27.92558 140.522271 
L 28.026081 140.661062 
L 28.128772 140.798241 
L 28.233627 140.933773 
L 28.340618 141.067625 
L 28.44972 141.199762 
L 28.560905 141.330152 
L 28.674144 141.458761 
L 28.78941 141.585558 
L 28.906672 141.71051 
L 29.025903 141.833585 
L 29.147071 141.954753 
L 29.270147 142.073984 
L 29.395098 142.191247 
L 29.521895 142.306512 
L 29.650504 142.419752 
L 29.780894 142.530936 
L 29.913031 142.640038 
L 30.046883 142.74703 
L 30.182415 142.851884 
L 30.319594 142.954575 
L 30.458385 143.055077 
L 30.598753 143.153363 
L 30.740663 143.249411 
L 30.884079 143.343194 
L 31.028965 143.434691 
L 31.175284 143.523877 
L 31.323 143.610731 
L 31.472075 143.69523 
L 31.622472 143.777353 
L 31.774154 143.857079 
L 31.927081 143.934389 
L 32.081215 144.009263 
L 32.236518 144.081682 
L 32.39295 144.151628 
L 32.550473 144.219083 
L 32.709045 144.28403 
L 32.868629 144.346453 
L 33.029182 144.406337 
L 33.190666 144.463665 
L 33.353039 144.518424 
L 33.51626 144.5706 
L 33.680288 144.62018 
L 33.845083 144.667152 
L 34.010602 144.711502 
L 34.176803 144.753221 
L 34.343646 144.792298 
L 34.511088 144.828723 
L 34.679087 144.862486 
L 34.8476 144.89358 
L 35.016585 144.921996 
L 35.186 144.947728 
L 35.355802 144.970768 
L 35.525947 144.991112 
L 35.696395 145.008753 
L 35.8671 145.023688 
L 36.038022 145.035912 
L 36.209115 145.045424 
L 36.380338 145.052219 
L 36.551648 145.056297 
L 36.723 145.057656 
L 83.643 145.057656 
z
" clip-path="url(#pdf075f84ce)" style="fill: none; stroke-dasharray: 1.85,0.8; stroke-dashoffset: 0; stroke: #008000; stroke-width: 0.5; stroke-linecap: round"/>
   </g>
   <g id="patch_3">
    <path d="M 83.643 256.657656 
L 83.814352 256.656297 
L 83.985662 256.652219 
L 84.156885 256.645424 
L 84.327978 256.635912 
L 84.4989 256.623688 
L 84.669605 256.608753 
L 84.840053 256.591112 
L 85.010198 256.570768 
L 85.18 256.547728 
L 85.349415 256.521996 
L 85.5184 256.49358 
L 85.686913 256.462486 
L 85.854912 256.428723 
L 86.022354 256.392298 
L 86.189197 256.353221 
L 86.355398 256.311502 
L 86.520917 256.267152 
L 86.685712 256.22018 
L 86.84974 256.1706 
L 87.012961 256.118424 
L 87.175334 256.063665 
L 87.336818 256.006337 
L 87.497371 255.946453 
L 87.656955 255.88403 
L 87.815527 255.819083 
L 87.97305 255.751628 
L 88.129482 255.681682 
L 88.284785 255.609263 
L 88.438919 255.534389 
L 88.591846 255.457079 
L 88.743528 255.377353 
L 88.893925 255.29523 
L 89.043 255.210731 
L 89.190716 255.123877 
L 89.337035 255.034691 
L 89.481921 254.943194 
L 89.625337 254.849411 
L 89.767247 254.753363 
L 89.907615 254.655077 
L 90.046406 254.554575 
L 90.183585 254.451884 
L 90.319117 254.34703 
L 90.452969 254.240038 
L 90.585106 254.130936 
L 90.715496 254.019752 
L 90.844105 253.906512 
L 90.970902 253.791247 
L 91.095853 253.673984 
L 91.218929 253.554753 
L 91.340097 253.433585 
L 91.459328 253.31051 
L 91.57659 253.185558 
L 91.691856 253.058761 
L 91.805095 252.930152 
L 91.91628 252.799762 
L 92.025382 252.667625 
L 92.132373 252.533773 
L 92.237228 252.398241 
L 92.339919 252.261062 
L 92.44042 252.122271 
L 92.538707 251.981903 
L 92.634754 251.839993 
L 92.728538 251.696577 
L 92.820035 251.551691 
L 92.909221 251.405372 
L 92.996074 251.257656 
L 93.080573 251.108581 
L 93.162696 250.958184 
L 93.242423 250.806503 
L 93.319733 250.653576 
L 93.394607 250.499441 
L 93.467026 250.344138 
L 93.536971 250.187706 
L 93.604426 250.030184 
L 93.669374 249.871611 
L 93.731797 249.712027 
L 93.79168 249.551474 
L 93.849009 249.38999 
L 93.903768 249.227617 
L 93.955944 249.064396 
L 94.005524 248.900368 
L 94.052495 248.735573 
L 94.096846 248.570055 
L 94.138565 248.403853 
L 94.177642 248.23701 
L 94.214066 248.069568 
L 94.24783 247.90157 
L 94.278924 247.733057 
L 94.30734 247.564071 
L 94.333072 247.394657 
L 94.356112 247.224855 
L 94.376455 247.054709 
L 94.394097 246.884262 
L 94.409032 246.713556 
L 94.421256 246.542635 
L 94.430767 246.371541 
L 94.437563 246.200318 
L 94.441641 246.029009 
L 94.443 245.857656 
L 94.443 163.057656 
L 94.441641 162.886304 
L 94.437563 162.714995 
L 94.430767 162.543772 
L 94.421256 162.372678 
L 94.409032 162.201757 
L 94.394097 162.031051 
L 94.376455 161.860604 
L 94.356112 161.690458 
L 94.333072 161.520656 
L 94.30734 161.351241 
L 94.278924 161.182256 
L 94.24783 161.013743 
L 94.214066 160.845744 
L 94.177642 160.678302 
L 94.138565 160.51146 
L 94.096846 160.345258 
L 94.052495 160.179739 
L 94.005524 160.014945 
L 93.955944 159.850916 
L 93.903768 159.687695 
L 93.849009 159.525322 
L 93.79168 159.363839 
L 93.731797 159.203285 
L 93.669374 159.043702 
L 93.604426 158.885129 
L 93.536971 158.727606 
L 93.467026 158.571174 
L 93.394607 158.415871 
L 93.319733 158.261737 
L 93.242423 158.10881 
L 93.162696 157.957129 
L 93.080573 157.806732 
L 92.996074 157.657656 
L 92.909221 157.50994 
L 92.820035 157.363621 
L 92.728538 157.218735 
L 92.634754 157.07532 
L 92.538707 156.93341 
L 92.44042 156.793042 
L 92.339919 156.654251 
L 92.237228 156.517072 
L 92.132373 156.381539 
L 92.025382 156.247687 
L 91.91628 156.11555 
L 91.805095 155.98516 
L 91.691856 155.856551 
L 91.57659 155.729755 
L 91.459328 155.604803 
L 91.340097 155.481727 
L 91.218929 155.360559 
L 91.095853 155.241329 
L 90.970902 155.124066 
L 90.844105 155.0088 
L 90.715496 154.895561 
L 90.585106 154.784376 
L 90.452969 154.675274 
L 90.319117 154.568283 
L 90.183585 154.463428 
L 90.046406 154.360737 
L 89.907615 154.260236 
L 89.767247 154.161949 
L 89.625337 154.065902 
L 89.481921 153.972118 
L 89.337035 153.880622 
L 89.190716 153.791435 
L 89.043 153.704582 
L 88.893925 153.620083 
L 88.743528 153.53796 
L 88.591846 153.458233 
L 88.438919 153.380923 
L 88.284785 153.30605 
L 88.129482 153.233631 
L 87.97305 153.163685 
L 87.815527 153.09623 
L 87.656955 153.031283 
L 87.497371 152.968859 
L 87.336818 152.908976 
L 87.175334 152.851647 
L 87.012961 152.796888 
L 86.84974 152.744712 
L 86.685712 152.695132 
L 86.520917 152.648161 
L 86.355398 152.60381 
L 86.189197 152.562091 
L 86.022354 152.523015 
L 85.854912 152.48659 
L 85.686913 152.452826 
L 85.5184 152.421733 
L 85.349415 152.393316 
L 85.18 152.367585 
L 85.010198 152.344544 
L 84.840053 152.324201 
L 84.669605 152.306559 
L 84.4989 152.291625 
L 84.327978 152.2794 
L 84.156885 152.269889 
L 83.985662 152.263094 
L 83.814352 152.259016 
L 83.643 152.257656 
L 36.723 152.257656 
L 36.551648 152.259016 
L 36.380338 152.263094 
L 36.209115 152.269889 
L 36.038022 152.2794 
L 35.8671 152.291625 
L 35.696395 152.306559 
L 35.525947 152.324201 
L 35.355802 152.344544 
L 35.186 152.367585 
L 35.016585 152.393316 
L 34.8476 152.421733 
L 34.679087 152.452826 
L 34.511088 152.48659 
L 34.343646 152.523015 
L 34.176803 152.562091 
L 34.010602 152.60381 
L 33.845083 152.648161 
L 33.680288 152.695132 
L 33.51626 152.744712 
L 33.353039 152.796888 
L 33.190666 152.851647 
L 33.029182 152.908976 
L 32.868629 152.968859 
L 32.709045 153.031283 
L 32.550473 153.09623 
L 32.39295 153.163685 
L 32.236518 153.233631 
L 32.081215 153.30605 
L 31.927081 153.380923 
L 31.774154 153.458233 
L 31.622472 153.53796 
L 31.472075 153.620083 
L 31.323 153.704582 
L 31.175284 153.791435 
L 31.028965 153.880622 
L 30.884079 153.972118 
L 30.740663 154.065902 
L 30.598753 154.161949 
L 30.458385 154.260236 
L 30.319594 154.360737 
L 30.182415 154.463428 
L 30.046883 154.568283 
L 29.913031 154.675274 
L 29.780894 154.784376 
L 29.650504 154.895561 
L 29.521895 155.0088 
L 29.395098 155.124066 
L 29.270147 155.241329 
L 29.147071 155.360559 
L 29.025903 155.481727 
L 28.906672 155.604803 
L 28.78941 155.729755 
L 28.674144 155.856551 
L 28.560905 155.98516 
L 28.44972 156.11555 
L 28.340618 156.247687 
L 28.233627 156.381539 
L 28.128772 156.517072 
L 28.026081 156.654251 
L 27.92558 156.793042 
L 27.827293 156.93341 
L 27.731246 157.07532 
L 27.637462 157.218735 
L 27.545965 157.363621 
L 27.456779 157.50994 
L 27.369926 157.657656 
L 27.285427 157.806732 
L 27.203304 157.957129 
L 27.123577 158.10881 
L 27.046267 158.261737 
L 26.971393 158.415871 
L 26.898974 158.571174 
L 26.829029 158.727606 
L 26.761574 158.885129 
L 26.696626 159.043702 
L 26.634203 159.203285 
L 26.57432 159.363839 
L 26.516991 159.525322 
L 26.462232 159.687695 
L 26.410056 159.850916 
L 26.360476 160.014945 
L 26.313505 160.179739 
L 26.269154 160.345258 
L 26.227435 160.51146 
L 26.188358 160.678302 
L 26.151934 160.845744 
L 26.11817 161.013743 
L 26.087076 161.182256 
L 26.05866 161.351241 
L 26.032928 161.520656 
L 26.009888 161.690458 
L 25.989545 161.860604 
L 25.971903 162.031051 
L 25.956968 162.201757 
L 25.944744 162.372678 
L 25.935233 162.543772 
L 25.928437 162.714995 
L 25.924359 162.886304 
L 25.923 163.057656 
L 25.923 245.857656 
L 25.924359 246.029009 
L 25.928437 246.200318 
L 25.935233 246.371541 
L 25.944744 246.542635 
L 25.956968 246.713556 
L 25.971903 246.884262 
L 25.989545 247.054709 
L 26.009888 247.224855 
L 26.032928 247.394657 
L 26.05866 247.564071 
L 26.087076 247.733057 
L 26.11817 247.90157 
L 26.151934 248.069568 
L 26.188358 248.23701 
L 26.227435 248.403853 
L 26.269154 248.570055 
L 26.313505 248.735573 
L 26.360476 248.900368 
L 26.410056 249.064396 
L 26.462232 249.227617 
L 26.516991 249.38999 
L 26.57432 249.551474 
L 26.634203 249.712027 
L 26.696626 249.871611 
L 26.761574 250.030184 
L 26.829029 250.187706 
L 26.898974 250.344138 
L 26.971393 250.499441 
L 27.046267 250.653576 
L 27.123577 250.806503 
L 27.203304 250.958184 
L 27.285427 251.108581 
L 27.369926 251.257656 
L 27.456779 251.405372 
L 27.545965 251.551691 
L 27.637462 251.696577 
L 27.731246 251.839993 
L 27.827293 251.981903 
L 27.92558 252.122271 
L 28.026081 252.261062 
L 28.128772 252.398241 
L 28.233627 252.533773 
L 28.340618 252.667625 
L 28.44972 252.799762 
L 28.560905 252.930152 
L 28.674144 253.058761 
L 28.78941 253.185558 
L 28.906672 253.31051 
L 29.025903 253.433585 
L 29.147071 253.554753 
L 29.270147 253.673984 
L 29.395098 253.791247 
L 29.521895 253.906512 
L 29.650504 254.019752 
L 29.780894 254.130936 
L 29.913031 254.240038 
L 30.046883 254.34703 
L 30.182415 254.451884 
L 30.319594 254.554575 
L 30.458385 254.655077 
L 30.598753 254.753363 
L 30.740663 254.849411 
L 30.884079 254.943194 
L 31.028965 255.034691 
L 31.175284 255.123877 
L 31.323 255.210731 
L 31.472075 255.29523 
L 31.622472 255.377353 
L 31.774154 255.457079 
L 31.927081 255.534389 
L 32.081215 255.609263 
L 32.236518 255.681682 
L 32.39295 255.751628 
L 32.550473 255.819083 
L 32.709045 255.88403 
L 32.868629 255.946453 
L 33.029182 256.006337 
L 33.190666 256.063665 
L 33.353039 256.118424 
L 33.51626 256.1706 
L 33.680288 256.22018 
L 33.845083 256.267152 
L 34.010602 256.311502 
L 34.176803 256.353221 
L 34.343646 256.392298 
L 34.511088 256.428723 
L 34.679087 256.462486 
L 34.8476 256.49358 
L 35.016585 256.521996 
L 35.186 256.547728 
L 35.355802 256.570768 
L 35.525947 256.591112 
L 35.696395 256.608753 
L 35.8671 256.623688 
L 36.038022 256.635912 
L 36.209115 256.645424 
L 36.380338 256.652219 
L 36.551648 256.656297 
L 36.723 256.657656 
L 83.643 256.657656 
z
" clip-path="url(#pdf075f84ce)" style="fill: none; stroke-dasharray: 1.85,0.8; stroke-dashoffset: 0; stroke: #008000; stroke-width: 0.5; stroke-linecap: round"/>
   </g>
   <g id="line2d_1">
    <path d="M 33.123 58.777656 
L 46.323 58.777656 
" clip-path="url(#pdf075f84ce)" style="fill: none; stroke: #000000; stroke-width: 2; stroke-linecap: round"/>
   </g>
   <g id="line2d_2">
    <path d="M 46.323 45.577656 
L 46.323 71.977656 
" clip-path="url(#pdf075f84ce)" style="fill: none; stroke: #000000; stroke-width: 2; stroke-linecap: round"/>
   </g>
   <g id="line2d_3">
    <path d="M 46.323 52.177656 
L 60.183 40.297656 
L 60.183 33.697656 
" clip-path="url(#pdf075f84ce)" style="fill: none; stroke: #000000; stroke-width: 2; stroke-linecap: round"/>
   </g>
   <g id="line2d_4">
    <path d="M 46.323 65.377656 
L 60.183 77.257656 
L 60.183 83.857656 
" clip-path="url(#pdf075f84ce)" style="fill: none; stroke: #000000; stroke-width: 2; stroke-linecap: round"/>
   </g>
   <g id="line2d_5">
    <path d="M 46.323 65.377656 
L 53.349691 71.400534 
" clip-path="url(#pdf075f84ce)" style="fill: none; stroke: #000000; stroke-width: 2; stroke-linecap: round"/>
   </g>
   <g id="patch_4">
    <path d="M 55.69254 68.66721 
L 60.183 77.257656 
L 51.006842 74.133858 
z
" clip-path="url(#pdf075f84ce)"/>
   </g>
   <g id="line2d_6">
    <path d="M 33.123 58.777656 
L 33.123 103.777656 
L 33.123 148.777656 
" clip-path="url(#pdf075f84ce)" style="fill: none; stroke: #000000; stroke-width: 2; stroke-linecap: round"/>
   </g>
   <g id="line2d_7">
    <path d="M 33.123 148.777656 
L 33.123 191.977656 
L 33.123 235.177656 
" clip-path="url(#pdf075f84ce)" style="fill: none; stroke: #000000; stroke-width: 2; stroke-linecap: round"/>
   </g>
   <g id="line2d_8">
    <path d="M 33.123 235.177656 
L 46.323 235.177656 
" clip-path="url(#pdf075f84ce)" style="fill: none; stroke: #000000; stroke-width: 2; stroke-linecap: round"/>
   </g>
   <g id="line2d_9">
    <path d="M 46.323 221.977656 
L 46.323 248.377656 
" clip-path="url(#pdf075f84ce)" style="fill: none; stroke: #000000; stroke-width: 2; stroke-linecap: round"/>
   </g>
   <g id="line2d_10">
    <path d="M 46.323 228.577656 
L 60.183 216.697656 
L 60.183 210.097656 
" clip-path="url(#pdf075f84ce)" style="fill: none; stroke: #000000; stroke-width: 2; stroke-linecap: round"/>
   </g>
   <g id="line2d_11">
    <path d="M 46.323 241.777656 
L 60.183 253.657656 
L 60.183 260.257656 
" clip-path="url(#pdf075f84ce)" style="fill: none; stroke: #000000; stroke-width: 2; stroke-linecap: round"/>
   </g>
   <g id="line2d_12">
    <path d="M 60.183 216.697656 
L 53.156309 222.720534 
" clip-path="url(#pdf075f84ce)" style="fill: none; stroke: #000000; stroke-width: 2; stroke-linecap: round"/>
   </g>
   <g id="patch_5">
    <path d="M 55.499158 225.453858 
L 46.323 228.577656 
L 50.81346 219.98721 
z
" clip-path="url(#pdf075f84ce)"/>
   </g>
   <g id="line2d_13">
    <path d="M 33.123 148.777656 
L 24.123 148.777656 
L 15.123 148.777656 
" clip-path="url(#pdf075f84ce)" style="fill: none; stroke: #000000; stroke-width: 2; stroke-linecap: round"/>
   </g>
   <g id="line2d_14">
    <path d="M 60.183 83.857656 
L 73.383 83.857656 
" clip-path="url(#pdf075f84ce)" style="fill: none; stroke: #000000; stroke-width: 2; stroke-linecap: round"/>
   </g>
   <g id="line2d_15">
    <path d="M 73.383 70.657656 
L 73.383 97.057656 
" clip-path="url(#pdf075f84ce)" style="fill: none; stroke: #000000; stroke-width: 2; stroke-linecap: round"/>
   </g>
   <g id="line2d_16">
    <path d="M 73.383 77.257656 
L 87.243 65.377656 
L 87.243 58.777656 
" clip-path="url(#pdf075f84ce)" style="fill: none; stroke: #000000; stroke-width: 2; stroke-linecap: round"/>
   </g>
   <g id="line2d_17">
    <path d="M 73.383 90.457656 
L 87.243 102.337656 
L 87.243 108.937656 
" clip-path="url(#pdf075f84ce)" style="fill: none; stroke: #000000; stroke-width: 2; stroke-linecap: round"/>
   </g>
   <g id="line2d_18">
    <path d="M 73.383 90.457656 
L 80.409691 96.480534 
" clip-path="url(#pdf075f84ce)" style="fill: none; stroke: #000000; stroke-width: 2; stroke-linecap: round"/>
   </g>
   <g id="patch_6">
    <path d="M 82.75254 93.74721 
L 87.243 102.337656 
L 78.066842 99.213858 
z
" clip-path="url(#pdf075f84ce)"/>
   </g>
   <g id="line2d_19">
    <path d="M 60.183 83.857656 
L 60.183 98.257656 
L 69.183 101.257656 
L 51.183 107.257656 
L 69.183 113.257656 
L 51.183 119.257656 
L 69.183 125.257656 
L 51.183 131.257656 
L 60.183 134.257656 
L 60.183 148.657656 
" clip-path="url(#pdf075f84ce)" style="fill: none; stroke: #000000; stroke-width: 2; stroke-linecap: round"/>
   </g>
   <g id="line2d_20">
    <path d="M 87.243 108.937656 
L 87.243 128.797656 
L 87.243 148.657656 
" clip-path="url(#pdf075f84ce)" style="fill: none; stroke: #000000; stroke-width: 2; stroke-linecap: round"/>
   </g>
   <g id="line2d_21">
    <path d="M 87.243 58.777656 
L 87.243 46.237656 
L 87.243 33.697656 
" clip-path="url(#pdf075f84ce)" style="fill: none; stroke: #000000; stroke-width: 2; stroke-linecap: round"/>
   </g>
   <g id="line2d_22">
    <path d="M 87.243 33.697656 
L 80.043 33.697656 
L 72.843 33.697656 
" clip-path="url(#pdf075f84ce)" style="fill: none; stroke: #000000; stroke-width: 2; stroke-linecap: round"/>
   </g>
   <g id="line2d_23">
    <path d="M 72.843 33.697656 
L 72.843 19.297656 
" clip-path="url(#pdf075f84ce)" style="fill: none; stroke: #000000; stroke-width: 2; stroke-linecap: round"/>
   </g>
   <g id="line2d_24">
    <path d="M 72.843 19.297656 
L 66.093 19.297656 
" clip-path="url(#pdf075f84ce)" style="fill: none; stroke: #000000; stroke-width: 2; stroke-linecap: round"/>
   </g>
   <g id="line2d_25">
    <path d="M 72.843 19.297656 
L 79.593 19.297656 
" clip-path="url(#pdf075f84ce)" style="fill: none; stroke: #000000; stroke-width: 2; stroke-linecap: round"/>
   </g>
   <g id="line2d_26">
    <path d="M 72.843 33.697656 
L 66.513 33.697656 
L 60.183 33.697656 
" clip-path="url(#pdf075f84ce)" style="fill: none; stroke: #000000; stroke-width: 2; stroke-linecap: round"/>
   </g>
   <g id="line2d_27">
    <path d="M 60.183 148.657656 
L 60.183 161.377656 
L 69.183 164.377656 
L 51.183 170.377656 
L 69.183 176.377656 
L 51.183 182.377656 
L 69.183 188.377656 
L 51.183 194.377656 
L 60.183 197.377656 
L 60.183 210.097656 
" clip-path="url(#pdf075f84ce)" style="fill: none; stroke: #000000; stroke-width: 2; stroke-linecap: round"/>
   </g>
   <g id="line2d_28">
    <path d="M 60.183 210.097656 
L 73.383 210.097656 
" clip-path="url(#pdf075f84ce)" style="fill: none; stroke: #000000; stroke-width: 2; stroke-linecap: round"/>
   </g>
   <g id="line2d_29">
    <path d="M 73.383 196.897656 
L 73.383 223.297656 
" clip-path="url(#pdf075f84ce)" style="fill: none; stroke: #000000; stroke-width: 2; stroke-linecap: round"/>
   </g>
   <g id="line2d_30">
    <path d="M 73.383 203.497656 
L 87.243 191.617656 
L 87.243 185.017656 
" clip-path="url(#pdf075f84ce)" style="fill: none; stroke: #000000; stroke-width: 2; stroke-linecap: round"/>
   </g>
   <g id="line2d_31">
    <path d="M 73.383 216.697656 
L 87.243 228.577656 
L 87.243 235.177656 
" clip-path="url(#pdf075f84ce)" style="fill: none; stroke: #000000; stroke-width: 2; stroke-linecap: round"/>
   </g>
   <g id="line2d_32">
    <path d="M 87.243 191.617656 
L 80.216309 197.640534 
" clip-path="url(#pdf075f84ce)" style="fill: none; stroke: #000000; stroke-width: 2; stroke-linecap: round"/>
   </g>
   <g id="patch_7">
    <path d="M 82.559158 200.373858 
L 73.383 203.497656 
L 77.87346 194.90721 
z
" clip-path="url(#pdf075f84ce)"/>
   </g>
   <g id="line2d_33">
    <path d="M 87.243 185.017656 
L 87.243 166.837656 
L 87.243 148.657656 
" clip-path="url(#pdf075f84ce)" style="fill: none; stroke: #000000; stroke-width: 2; stroke-linecap: round"/>
   </g>
   <g id="line2d_34">
    <path d="M 87.243 235.177656 
L 87.243 247.717656 
L 87.243 260.257656 
" clip-path="url(#pdf075f84ce)" style="fill: none; stroke: #000000; stroke-width: 2; stroke-linecap: round"/>
   </g>
   <g id="line2d_35">
    <path d="M 87.243 260.257656 
L 80.043 260.257656 
L 72.843 260.257656 
" clip-path="url(#pdf075f84ce)" style="fill: none; stroke: #000000; stroke-width: 2; stroke-linecap: round"/>
   </g>
   <g id="line2d_36">
    <path d="M 72.843 260.257656 
L 72.843 274.657656 
L 63.843 274.657656 
L 81.843 274.657656 
M 66.543 278.977656 
L 79.143 278.977656 
M 71.043 283.297656 
L 74.643 283.297656 
" clip-path="url(#pdf075f84ce)" style="fill: none; stroke: #000000; stroke-width: 2; stroke-linecap: round"/>
   </g>
   <g id="line2d_37">
    <path d="M 72.843 260.257656 
L 66.513 260.257656 
L 60.183 260.257656 
" clip-path="url(#pdf075f84ce)" style="fill: none; stroke: #000000; stroke-width: 2; stroke-linecap: round"/>
   </g>
   <g id="line2d_38">
    <path d="M 60.183 148.657656 
L 110.943 148.657656 
M 110.943 139.657656 
L 110.943 157.657656 
M 117.423 139.657656 
L 117.423 157.657656 
M 117.423 148.657656 
L 168.183 148.657656 
" clip-path="url(#pdf075f84ce)" style="fill: none; stroke: #000000; stroke-width: 2; stroke-linecap: round"/>
   </g>
   <g id="line2d_39">
    <path d="M 168.183 148.657656 
L 168.183 184.657656 
L 177.183 187.657656 
L 159.183 193.657656 
L 177.183 199.657656 
L 159.183 205.657656 
L 177.183 211.657656 
L 159.183 217.657656 
L 168.183 220.657656 
L 168.183 256.657656 
" clip-path="url(#pdf075f84ce)" style="fill: none; stroke: #000000; stroke-width: 2; stroke-linecap: round"/>
   </g>
   <g id="line2d_40">
    <path d="M 168.183 148.657656 
L 177.183 148.657656 
L 186.183 148.657656 
" clip-path="url(#pdf075f84ce)" style="fill: none; stroke: #000000; stroke-width: 2; stroke-linecap: round"/>
   </g>
   <g id="line2d_41">
    <path d="M 168.183 256.657656 
L 168.183 271.057656 
L 159.183 271.057656 
L 177.183 271.057656 
M 161.883 275.377656 
L 174.483 275.377656 
M 166.383 279.697656 
L 169.983 279.697656 
" clip-path="url(#pdf075f84ce)" style="fill: none; stroke: #000000; stroke-width: 2; stroke-linecap: round"/>
   </g>
   <g id="line2d_42">
    <path d="M 168.183 256.657656 
L 168.183 254.857656 
L 168.183 253.057656 
" clip-path="url(#pdf075f84ce)" style="fill: none; stroke: #000000; stroke-width: 2; stroke-linecap: round"/>
   </g>
   <g id="text_1">
    <!-- $V_{DD}$ -->
    <g transform="translate(61.6555 13.098047) scale(0.125 -0.125)">
     <defs>
      <path id="DejaVuSans-Oblique-56" d="M 1319 0 
L 500 4666 
L 1119 4666 
L 1797 653 
L 4063 4666 
L 4750 4666 
L 2053 0 
L 1319 0 
z
" transform="scale(0.015625)"/>
      <path id="DejaVuSans-Oblique-44" d="M 1081 4666 
L 2438 4666 
Q 3519 4666 4070 4208 
Q 4622 3750 4622 2847 
Q 4622 2250 4412 1698 
Q 4203 1147 3834 769 
Q 3463 381 2891 190 
Q 2319 0 1538 0 
L 172 0 
L 1081 4666 
z
M 1613 4147 
L 909 519 
L 1734 519 
Q 2794 519 3375 1128 
Q 3956 1738 3956 2847 
Q 3956 3519 3581 3833 
Q 3206 4147 2406 4147 
L 1613 4147 
z
" transform="scale(0.015625)"/>
     </defs>
     <use xlink:href="#DejaVuSans-Oblique-56" transform="translate(0 0.09375)"/>
     <use xlink:href="#DejaVuSans-Oblique-44" transform="translate(68.408203 -16.3125) scale(0.7)"/>
     <use xlink:href="#DejaVuSans-Oblique-44" transform="translate(122.30957 -16.3125) scale(0.7)"/>
    </g>
   </g>
   <g id="text_2">
    <!-- $C_{out}$ -->
    <g transform="translate(102.433 133.458047) scale(0.125 -0.125)">
     <defs>
      <path id="DejaVuSans-Oblique-43" d="M 4447 4306 
L 4319 3641 
Q 4019 3944 3683 4091 
Q 3347 4238 2956 4238 
Q 2422 4238 2017 3981 
Q 1613 3725 1319 3200 
Q 1131 2863 1032 2486 
Q 934 2109 934 1728 
Q 934 1091 1264 756 
Q 1594 422 2222 422 
Q 2656 422 3056 561 
Q 3456 700 3834 978 
L 3688 231 
Q 3316 72 2936 -9 
Q 2556 -91 2175 -91 
Q 1278 -91 773 396 
Q 269 884 269 1753 
Q 269 2309 461 2846 
Q 653 3384 1013 3828 
Q 1394 4300 1883 4525 
Q 2372 4750 3022 4750 
Q 3422 4750 3780 4639 
Q 4138 4528 4447 4306 
z
" transform="scale(0.015625)"/>
      <path id="DejaVuSans-Oblique-6f" d="M 1625 -91 
Q 1009 -91 651 289 
Q 294 669 294 1325 
Q 294 1706 417 2101 
Q 541 2497 738 2766 
Q 1047 3184 1428 3384 
Q 1809 3584 2291 3584 
Q 2888 3584 3255 3212 
Q 3622 2841 3622 2241 
Q 3622 1825 3500 1412 
Q 3378 1000 3181 728 
Q 2875 309 2494 109 
Q 2113 -91 1625 -91 
z
M 891 1344 
Q 891 869 1089 633 
Q 1288 397 1691 397 
Q 2269 397 2648 901 
Q 3028 1406 3028 2181 
Q 3028 2634 2825 2865 
Q 2622 3097 2228 3097 
Q 1903 3097 1650 2945 
Q 1397 2794 1197 2484 
Q 1050 2253 970 1956 
Q 891 1659 891 1344 
z
" transform="scale(0.015625)"/>
      <path id="DejaVuSans-Oblique-75" d="M 428 1388 
L 838 3500 
L 1416 3500 
L 1006 1409 
Q 975 1256 961 1147 
Q 947 1038 947 966 
Q 947 700 1109 554 
Q 1272 409 1569 409 
Q 2031 409 2368 721 
Q 2706 1034 2809 1563 
L 3194 3500 
L 3769 3500 
L 3091 0 
L 2516 0 
L 2631 550 
Q 2388 244 2052 76 
Q 1716 -91 1338 -91 
Q 878 -91 622 161 
Q 366 413 366 863 
Q 366 956 381 1097 
Q 397 1238 428 1388 
z
" transform="scale(0.015625)"/>
      <path id="DejaVuSans-Oblique-74" d="M 2706 3500 
L 2619 3053 
L 1472 3053 
L 1100 1153 
Q 1081 1047 1072 975 
Q 1063 903 1063 863 
Q 1063 663 1183 572 
Q 1303 481 1569 481 
L 2150 481 
L 2053 0 
L 1503 0 
Q 991 0 739 200 
Q 488 400 488 806 
Q 488 878 497 964 
Q 506 1050 525 1153 
L 897 3053 
L 409 3053 
L 500 3500 
L 978 3500 
L 1172 4494 
L 1747 4494 
L 1556 3500 
L 2706 3500 
z
" transform="scale(0.015625)"/>
     </defs>
     <use xlink:href="#DejaVuSans-Oblique-43" transform="translate(0 0.78125)"/>
     <use xlink:href="#DejaVuSans-Oblique-6f" transform="translate(69.824219 -15.625) scale(0.7)"/>
     <use xlink:href="#DejaVuSans-Oblique-75" transform="translate(112.651367 -15.625) scale(0.7)"/>
     <use xlink:href="#DejaVuSans-Oblique-74" transform="translate(157.016602 -15.625) scale(0.7)"/>
    </g>
   </g>
   <g id="text_3">
    <!-- $R_L$ -->
    <g transform="translate(141.583 206.106875) scale(0.125 -0.125)">
     <defs>
      <path id="DejaVuSans-Oblique-52" d="M 1613 4147 
L 1294 2491 
L 2106 2491 
Q 2584 2491 2879 2755 
Q 3175 3019 3175 3444 
Q 3175 3784 2976 3965 
Q 2778 4147 2406 4147 
L 1613 4147 
z
M 2772 2241 
Q 2972 2194 3105 2009 
Q 3238 1825 3413 1275 
L 3809 0 
L 3144 0 
L 2778 1197 
Q 2638 1659 2453 1815 
Q 2269 1972 1888 1972 
L 1191 1972 
L 806 0 
L 172 0 
L 1081 4666 
L 2503 4666 
Q 3150 4666 3495 4373 
Q 3841 4081 3841 3531 
Q 3841 3044 3547 2687 
Q 3253 2331 2772 2241 
z
" transform="scale(0.015625)"/>
      <path id="DejaVuSans-Oblique-4c" d="M 1075 4666 
L 1709 4666 
L 909 525 
L 3181 525 
L 3078 0 
L 172 0 
L 1075 4666 
z
" transform="scale(0.015625)"/>
     </defs>
     <use xlink:href="#DejaVuSans-Oblique-52" transform="translate(0 0.09375)"/>
     <use xlink:href="#DejaVuSans-Oblique-4c" transform="translate(69.482422 -16.3125) scale(0.7)"/>
    </g>
   </g>
   <g id="patch_8">
    <path d="M 33.123 151.477656 
C 33.839048 151.477656 34.525866 151.193167 35.032188 150.686845 
C 35.538511 150.180522 35.823 149.493705 35.823 148.777656 
C 35.823 148.061608 35.538511 147.374791 35.032188 146.868468 
C 34.525866 146.362145 33.839048 146.077656 33.123 146.077656 
C 32.406952 146.077656 31.720134 146.362145 31.213812 146.868468 
C 30.707489 147.374791 30.423 148.061608 30.423 148.777656 
C 30.423 149.493705 30.707489 150.180522 31.213812 150.686845 
C 31.720134 151.193167 32.406952 151.477656 33.123 151.477656 
z
" clip-path="url(#pdf075f84ce)" style="stroke: #000000; stroke-width: 2; stroke-linejoin: miter"/>
   </g>
   <g id="patch_9">
    <path d="M 15.123 151.477656 
C 15.839048 151.477656 16.525866 151.193167 17.032188 150.686845 
C 17.538511 150.180522 17.823 149.493705 17.823 148.777656 
C 17.823 148.061608 17.538511 147.374791 17.032188 146.868468 
C 16.525866 146.362145 15.839048 146.077656 15.123 146.077656 
C 14.406952 146.077656 13.720134 146.362145 13.213812 146.868468 
C 12.707489 147.374791 12.423 148.061608 12.423 148.777656 
C 12.423 149.493705 12.707489 150.180522 13.213812 150.686845 
C 13.720134 151.193167 14.406952 151.477656 15.123 151.477656 
z
" clip-path="url(#pdf075f84ce)" style="fill: #ffffff; stroke: #000000; stroke-width: 2; stroke-linejoin: miter"/>
   </g>
   <g id="patch_10">
    <path d="M 60.183 151.357656 
C 60.899048 151.357656 61.585866 151.073167 62.092188 150.566845 
C 62.598511 150.060522 62.883 149.373705 62.883 148.657656 
C 62.883 147.941608 62.598511 147.254791 62.092188 146.748468 
C 61.585866 146.242145 60.899048 145.957656 60.183 145.957656 
C 59.466952 145.957656 58.780134 146.242145 58.273812 146.748468 
C 57.767489 147.254791 57.483 147.941608 57.483 148.657656 
C 57.483 149.373705 57.767489 150.060522 58.273812 150.566845 
C 58.780134 151.073167 59.466952 151.357656 60.183 151.357656 
z
" clip-path="url(#pdf075f84ce)" style="stroke: #000000; stroke-width: 2; stroke-linejoin: miter"/>
   </g>
   <g id="patch_11">
    <path d="M 87.243 151.357656 
C 87.959048 151.357656 88.645866 151.073167 89.152188 150.566845 
C 89.658511 150.060522 89.943 149.373705 89.943 148.657656 
C 89.943 147.941608 89.658511 147.254791 89.152188 146.748468 
C 88.645866 146.242145 87.959048 145.957656 87.243 145.957656 
C 86.526952 145.957656 85.840134 146.242145 85.333812 146.748468 
C 84.827489 147.254791 84.543 147.941608 84.543 148.657656 
C 84.543 149.373705 84.827489 150.060522 85.333812 150.566845 
C 85.840134 151.073167 86.526952 151.357656 87.243 151.357656 
z
" clip-path="url(#pdf075f84ce)" style="stroke: #000000; stroke-width: 2; stroke-linejoin: miter"/>
   </g>
   <g id="patch_12">
    <path d="M 72.843 36.397656 
C 73.559048 36.397656 74.245866 36.113167 74.752188 35.606845 
C 75.258511 35.100522 75.543 34.413705 75.543 33.697656 
C 75.543 32.981608 75.258511 32.294791 74.752188 31.788468 
C 74.245866 31.282145 73.559048 30.997656 72.843 30.997656 
C 72.126952 30.997656 71.440134 31.282145 70.933812 31.788468 
C 70.427489 32.294791 70.143 32.981608 70.143 33.697656 
C 70.143 34.413705 70.427489 35.100522 70.933812 35.606845 
C 71.440134 36.113167 72.126952 36.397656 72.843 36.397656 
z
" clip-path="url(#pdf075f84ce)" style="stroke: #000000; stroke-width: 2; stroke-linejoin: miter"/>
   </g>
   <g id="patch_13">
    <path d="M 72.843 262.957656 
C 73.559048 262.957656 74.245866 262.673167 74.752188 262.166845 
C 75.258511 261.660522 75.543 260.973705 75.543 260.257656 
C 75.543 259.541608 75.258511 258.854791 74.752188 258.348468 
C 74.245866 257.842145 73.559048 257.557656 72.843 257.557656 
C 72.126952 257.557656 71.440134 257.842145 70.933812 258.348468 
C 70.427489 258.854791 70.143 259.541608 70.143 260.257656 
C 70.143 260.973705 70.427489 261.660522 70.933812 262.166845 
C 71.440134 262.673167 72.126952 262.957656 72.843 262.957656 
z
" clip-path="url(#pdf075f84ce)" style="stroke: #000000; stroke-width: 2; stroke-linejoin: miter"/>
   </g>
   <g id="patch_14">
    <path d="M 186.183 151.357656 
C 186.899048 151.357656 187.585866 151.073167 188.092188 150.566845 
C 188.598511 150.060522 188.883 149.373705 188.883 148.657656 
C 188.883 147.941608 188.598511 147.254791 188.092188 146.748468 
C 187.585866 146.242145 186.899048 145.957656 186.183 145.957656 
C 185.466952 145.957656 184.780134 146.242145 184.273812 146.748468 
C 183.767489 147.254791 183.483 147.941608 183.483 148.657656 
C 183.483 149.373705 183.767489 150.060522 184.273812 150.566845 
C 184.780134 151.073167 185.466952 151.357656 186.183 151.357656 
z
" clip-path="url(#pdf075f84ce)" style="fill: #ffffff; stroke: #000000; stroke-width: 2; stroke-linejoin: miter"/>
   </g>
   <g id="text_4">
    <!-- $v_{out}$ -->
    <g transform="translate(175.1205 139.758047) scale(0.125 -0.125)">
     <defs>
      <path id="DejaVuSans-Oblique-76" d="M 459 3500 
L 1069 3500 
L 1581 525 
L 3256 3500 
L 3866 3500 
L 1875 0 
L 1100 0 
L 459 3500 
z
" transform="scale(0.015625)"/>
     </defs>
     <use xlink:href="#DejaVuSans-Oblique-76" transform="translate(0 0.3125)"/>
     <use xlink:href="#DejaVuSans-Oblique-6f" transform="translate(59.179688 -16.09375) scale(0.7)"/>
     <use xlink:href="#DejaVuSans-Oblique-75" transform="translate(102.006836 -16.09375) scale(0.7)"/>
     <use xlink:href="#DejaVuSans-Oblique-74" transform="translate(146.37207 -16.09375) scale(0.7)"/>
    </g>
   </g>
  </g>
 </g>
 <defs>
  <clipPath id="pdf075f84ce">
   <rect x="3.6" y="6.097656" width="194.106" height="290.4"/>
  </clipPath>
 </defs>
</svg>