<?xml version="1.0" encoding="utf-8" standalone="no"?>
<!DOCTYPE svg PUBLIC "-//W3C//DTD SVG 1.1//EN"
  "http://www.w3.org/Graphics/SVG/1.1/DTD/svg11.dtd">
<svg xmlns:xlink="http://www.w3.org/1999/xlink" width="539.262pt" height="222.56pt" viewBox="0 0 539.262 222.56" xmlns="http://www.w3.org/2000/svg" version="1.1">
 <metadata>
  <rdf:RDF xmlns:dc="http://purl.org/dc/elements/1.1/" xmlns:cc="http://creativecommons.org/ns#" xmlns:rdf="http://www.w3.org/1999/02/22-rdf-syntax-ns#">
   <cc:Work>
    <dc:type rdf:resource="http://purl.org/dc/dcmitype/StillImage"/>
    <dc:date>2026-02-16T20:29:41.036670</dc:date>
    <dc:format>image/svg+xml</dc:format>
    <dc:creator>
     <cc:Agent>
      <dc:title>Matplotlib v3.10.8, https://matplotlib.org/</dc:title>
     </cc:Agent>
    </dc:creator>
   </cc:Work>
  </rdf:RDF>
 </metadata>
 <defs>
  <style type="text/css">*{stroke-linejoin: round; stroke-linecap: butt}</style>
 </defs>
 <g id="figure_1">
  <g id="patch_1">
   <path d="M 0 222.56 
L 539.262 222.56 
L 539.262 0 
L 0 0 
z
" style="fill: #ffffff"/>
  </g>
  <g id="axes_1">
   <g id="patch_2">
    <path d="M 70.482 205.76 
C 70.482 202.838527 69.415124 199.960504 67.373828 197.375344 
C 65.332532 194.790183 62.377537 192.574782 58.764923 190.921128 
C 55.152309 189.267474 50.989537 188.224757 46.637355 187.883339 
C 42.285172 187.541921 37.87304 187.911958 33.783314 188.961383 
" clip-path="url(#pedb0454ccf)" style="fill: none; stroke: #ff0000; stroke-width: 2; stroke-linejoin: miter"/>
   </g>
   <g id="patch_3">
    <path d="M 70.482 215.12 
L 67.782 206.12 
L 70.464 206.12 
L 70.464 205.76 
L 70.5 205.76 
L 70.5 206.12 
L 73.182 206.12 
z
" clip-path="url(#pedb0454ccf)" style="fill: #ff0000; stroke: #ff0000; stroke-linejoin: miter"/>
   </g>
   <g id="patch_4">
    <path d="M 214.542 72.68 
L 214.542 36.68 
L 502.542 36.68 
L 502.542 108.68 
L 214.542 108.68 
z
" clip-path="url(#pedb0454ccf)" style="fill: #add8e6; stroke: #add8e6; stroke-linejoin: miter"/>
   </g>
   <g id="line2d_1">
    <path d="M 79.482 169.76 
L 92.682 169.76 
" clip-path="url(#pedb0454ccf)" style="fill: none; stroke: #000000; stroke-width: 2; stroke-linecap: round"/>
   </g>
   <g id="line2d_2">
    <path d="M 92.682 156.56 
L 92.682 182.96 
" clip-path="url(#pedb0454ccf)" style="fill: none; stroke: #000000; stroke-width: 2; stroke-linecap: round"/>
   </g>
   <g id="line2d_3">
    <path d="M 92.682 163.16 
L 106.542 151.28 
L 106.542 144.68 
" clip-path="url(#pedb0454ccf)" style="fill: none; stroke: #000000; stroke-width: 2; stroke-linecap: round"/>
   </g>
   <g id="line2d_4">
    <path d="M 92.682 176.36 
L 106.542 188.24 
L 106.542 194.84 
" clip-path="url(#pedb0454ccf)" style="fill: none; stroke: #000000; stroke-width: 2; stroke-linecap: round"/>
   </g>
   <g id="line2d_5">
    <path d="M 92.682 176.36 
L 99.708691 182.382878 
" clip-path="url(#pedb0454ccf)" style="fill: none; stroke: #000000; stroke-width: 2; stroke-linecap: round"/>
   </g>
   <g id="patch_5">
    <path d="M 102.05154 179.649554 
L 106.542 188.24 
L 97.365842 185.116201 
z
" clip-path="url(#pedb0454ccf)"/>
   </g>
   <g id="line2d_6">
    <path d="M 106.542 194.84 
L 106.542 209.24 
L 97.542 209.24 
L 115.542 209.24 
M 100.242 213.56 
L 112.842 213.56 
M 104.742 217.88 
L 108.342 217.88 
" clip-path="url(#pedb0454ccf)" style="fill: none; stroke: #000000; stroke-width: 2; stroke-linecap: round"/>
   </g>
   <g id="line2d_7">
    <path d="M 79.482 169.76 
L 76.482 178.76 
L 70.482 160.76 
L 64.482 178.76 
L 58.482 160.76 
L 52.482 178.76 
L 46.482 160.76 
L 43.482 169.76 
" clip-path="url(#pedb0454ccf)" style="fill: none; stroke: #000000; stroke-width: 2; stroke-linecap: round"/>
   </g>
   <g id="line2d_8">
    <path d="M 43.482 169.76 
L 29.982 169.76 
L 16.482 169.76 
" clip-path="url(#pedb0454ccf)" style="fill: none; stroke: #000000; stroke-width: 2; stroke-linecap: round"/>
   </g>
   <g id="line2d_9">
    <path d="M 106.542 144.68 
L 120.042 144.68 
L 133.542 144.68 
" clip-path="url(#pedb0454ccf)" style="fill: none; stroke: #000000; stroke-width: 2; stroke-linecap: round"/>
   </g>
   <g id="line2d_10">
    <path d="M 106.542 144.68 
L 106.542 108.68 
L 97.542 105.68 
L 115.542 99.68 
L 97.542 93.68 
L 115.542 87.68 
L 97.542 81.68 
L 115.542 75.68 
L 106.542 72.68 
L 106.542 36.68 
" clip-path="url(#pedb0454ccf)" style="fill: none; stroke: #000000; stroke-width: 2; stroke-linecap: round"/>
   </g>
   <g id="line2d_11">
    <path d="M 106.542 36.68 
L 106.542 22.28 
" clip-path="url(#pedb0454ccf)" style="fill: none; stroke: #000000; stroke-width: 2; stroke-linecap: round"/>
   </g>
   <g id="line2d_12">
    <path d="M 106.542 22.28 
L 99.792 22.28 
" clip-path="url(#pedb0454ccf)" style="fill: none; stroke: #000000; stroke-width: 2; stroke-linecap: round"/>
   </g>
   <g id="line2d_13">
    <path d="M 106.542 22.28 
L 113.292 22.28 
" clip-path="url(#pedb0454ccf)" style="fill: none; stroke: #000000; stroke-width: 2; stroke-linecap: round"/>
   </g>
   <g id="line2d_14">
    <path d="M 137.142 115.88 
L 137.142 54.68 
" clip-path="url(#pedb0454ccf)" style="fill: none; stroke: #008000; stroke-width: 2; stroke-linecap: round"/>
   </g>
   <g id="patch_6">
    <path d="M 140.742 115.88 
L 137.142 126.68 
L 133.542 115.88 
z
" clip-path="url(#pedb0454ccf)" style="fill: #008000"/>
   </g>
   <g id="line2d_15">
    <path d="M 214.542 72.68 
L 214.542 36.68 
L 502.542 36.68 
L 502.542 108.68 
L 214.542 108.68 
L 214.542 72.68 
" clip-path="url(#pedb0454ccf)" style="fill: none; stroke: #0000ff; stroke-width: 2; stroke-linecap: round"/>
   </g>
   <g id="text_1">
    <!-- $R_{in}$ -->
    <g transform="translate(51.892 154.248438) scale(0.14 -0.14)">
     <defs>
      <path id="DejaVuSans-Oblique-52" d="M 1613 4147 
L 1294 2491 
L 2106 2491 
Q 2584 2491 2879 2755 
Q 3175 3019 3175 3444 
Q 3175 3784 2976 3965 
Q 2778 4147 2406 4147 
L 1613 4147 
z
M 2772 2241 
Q 2972 2194 3105 2009 
Q 3238 1825 3413 1275 
L 3809 0 
L 3144 0 
L 2778 1197 
Q 2638 1659 2453 1815 
Q 2269 1972 1888 1972 
L 1191 1972 
L 806 0 
L 172 0 
L 1081 4666 
L 2503 4666 
Q 3150 4666 3495 4373 
Q 3841 4081 3841 3531 
Q 3841 3044 3547 2687 
Q 3253 2331 2772 2241 
z
" transform="scale(0.015625)"/>
      <path id="DejaVuSans-Oblique-69" d="M 1172 4863 
L 1747 4863 
L 1606 4134 
L 1031 4134 
L 1172 4863 
z
M 909 3500 
L 1484 3500 
L 800 0 
L 225 0 
L 909 3500 
z
" transform="scale(0.015625)"/>
      <path id="DejaVuSans-Oblique-6e" d="M 3566 2113 
L 3156 0 
L 2578 0 
L 2988 2091 
Q 3016 2238 3031 2350 
Q 3047 2463 3047 2528 
Q 3047 2791 2881 2937 
Q 2716 3084 2419 3084 
Q 1956 3084 1622 2776 
Q 1288 2469 1184 1941 
L 800 0 
L 225 0 
L 903 3500 
L 1478 3500 
L 1363 2950 
Q 1603 3253 1940 3418 
Q 2278 3584 2650 3584 
Q 3113 3584 3367 3334 
Q 3622 3084 3622 2631 
Q 3622 2519 3608 2391 
Q 3594 2263 3566 2113 
z
" transform="scale(0.015625)"/>
     </defs>
     <use xlink:href="#DejaVuSans-Oblique-52" transform="translate(0 0.09375)"/>
     <use xlink:href="#DejaVuSans-Oblique-69" transform="translate(69.482422 -16.3125) scale(0.7)"/>
     <use xlink:href="#DejaVuSans-Oblique-6e" transform="translate(88.930664 -16.3125) scale(0.7)"/>
    </g>
   </g>
   <g id="text_2">
    <!-- $R_{L}$ -->
    <g transform="translate(78.262 94.543125) scale(0.14 -0.14)">
     <defs>
      <path id="DejaVuSans-Oblique-4c" d="M 1075 4666 
L 1709 4666 
L 909 525 
L 3181 525 
L 3078 0 
L 172 0 
L 1075 4666 
z
" transform="scale(0.015625)"/>
     </defs>
     <use xlink:href="#DejaVuSans-Oblique-52" transform="translate(0 0.09375)"/>
     <use xlink:href="#DejaVuSans-Oblique-4c" transform="translate(69.482422 -16.3125) scale(0.7)"/>
    </g>
   </g>
   <g id="text_3">
    <!-- $V_{dd}$ -->
    <g transform="translate(95.272 15.768438) scale(0.14 -0.14)">
     <defs>
      <path id="DejaVuSans-Oblique-56" d="M 1319 0 
L 500 4666 
L 1119 4666 
L 1797 653 
L 4063 4666 
L 4750 4666 
L 2053 0 
L 1319 0 
z
" transform="scale(0.015625)"/>
      <path id="DejaVuSans-Oblique-64" d="M 2675 525 
Q 2444 222 2128 65 
Q 1813 -91 1428 -91 
Q 903 -91 598 267 
Q 294 625 294 1247 
Q 294 1766 478 2236 
Q 663 2706 1013 3078 
Q 1244 3325 1534 3454 
Q 1825 3584 2144 3584 
Q 2481 3584 2739 3421 
Q 2997 3259 3138 2956 
L 3513 4863 
L 4091 4863 
L 3144 0 
L 2566 0 
L 2675 525 
z
M 891 1350 
Q 891 897 1095 644 
Q 1300 391 1663 391 
Q 1931 391 2161 520 
Q 2391 650 2566 903 
Q 2750 1166 2856 1509 
Q 2963 1853 2963 2188 
Q 2963 2622 2758 2865 
Q 2553 3109 2194 3109 
Q 1922 3109 1687 2981 
Q 1453 2853 1288 2613 
Q 1106 2353 998 2009 
Q 891 1666 891 1350 
z
" transform="scale(0.015625)"/>
     </defs>
     <use xlink:href="#DejaVuSans-Oblique-56" transform="translate(0 0.09375)"/>
     <use xlink:href="#DejaVuSans-Oblique-64" transform="translate(68.408203 -16.3125) scale(0.7)"/>
     <use xlink:href="#DejaVuSans-Oblique-64" transform="translate(112.841797 -16.3125) scale(0.7)"/>
    </g>
   </g>
   <g id="text_4">
    <!-- $I_{in}$ -->
    <g style="fill: #ff0000" transform="translate(36.692 209.623125) scale(0.14 -0.14)">
     <defs>
      <path id="DejaVuSans-Oblique-49" d="M 1081 4666 
L 1716 4666 
L 806 0 
L 172 0 
L 1081 4666 
z
" transform="scale(0.015625)"/>
     </defs>
     <use xlink:href="#DejaVuSans-Oblique-49" transform="translate(0 0.09375)"/>
     <use xlink:href="#DejaVuSans-Oblique-69" transform="translate(29.492188 -16.3125) scale(0.7)"/>
     <use xlink:href="#DejaVuSans-Oblique-6e" transform="translate(48.94043 -16.3125) scale(0.7)"/>
    </g>
   </g>
   <g id="text_5">
    <!-- $I_{uit}=\beta_{F}I_{in}$ -->
    <g style="fill: #008000" transform="translate(138.942 94.6) scale(0.14 -0.14)">
     <defs>
      <path id="DejaVuSans-Oblique-75" d="M 428 1388 
L 838 3500 
L 1416 3500 
L 1006 1409 
Q 975 1256 961 1147 
Q 947 1038 947 966 
Q 947 700 1109 554 
Q 1272 409 1569 409 
Q 2031 409 2368 721 
Q 2706 1034 2809 1563 
L 3194 3500 
L 3769 3500 
L 3091 0 
L 2516 0 
L 2631 550 
Q 2388 244 2052 76 
Q 1716 -91 1338 -91 
Q 878 -91 622 161 
Q 366 413 366 863 
Q 366 956 381 1097 
Q 397 1238 428 1388 
z
" transform="scale(0.015625)"/>
      <path id="DejaVuSans-Oblique-74" d="M 2706 3500 
L 2619 3053 
L 1472 3053 
L 1100 1153 
Q 1081 1047 1072 975 
Q 1063 903 1063 863 
Q 1063 663 1183 572 
Q 1303 481 1569 481 
L 2150 481 
L 2053 0 
L 1503 0 
Q 991 0 739 200 
Q 488 400 488 806 
Q 488 878 497 964 
Q 506 1050 525 1153 
L 897 3053 
L 409 3053 
L 500 3500 
L 978 3500 
L 1172 4494 
L 1747 4494 
L 1556 3500 
L 2706 3500 
z
" transform="scale(0.015625)"/>
      <path id="DejaVuSans-3d" d="M 678 2906 
L 4684 2906 
L 4684 2381 
L 678 2381 
L 678 2906 
z
M 678 1631 
L 4684 1631 
L 4684 1100 
L 678 1100 
L 678 1631 
z
" transform="scale(0.015625)"/>
      <path id="DejaVuSans-Oblique-3b2" d="M 872 216 
L 572 -1331 
L -6 -1331 
L 928 3478 
Q 1206 4903 2538 4903 
Q 3888 4903 3659 3700 
Q 3503 2844 2894 2531 
Q 3713 2250 3553 1416 
Q 3272 -69 1759 -66 
Q 1097 -63 872 216 
z
M 1019 966 
Q 1259 422 1875 425 
Q 2775 425 2966 1406 
Q 3138 2288 1675 2219 
L 1778 2750 
Q 2909 2731 3106 3750 
Q 3241 4438 2509 4434 
Q 1691 4434 1503 3459 
L 1019 966 
z
" transform="scale(0.015625)"/>
      <path id="DejaVuSans-Oblique-46" d="M 1081 4666 
L 3756 4666 
L 3653 4134 
L 1606 4134 
L 1338 2759 
L 3188 2759 
L 3084 2228 
L 1234 2228 
L 800 0 
L 172 0 
L 1081 4666 
z
" transform="scale(0.015625)"/>
     </defs>
     <use xlink:href="#DejaVuSans-Oblique-49" transform="translate(0 0.390625)"/>
     <use xlink:href="#DejaVuSans-Oblique-75" transform="translate(29.492188 -16.015625) scale(0.7)"/>
     <use xlink:href="#DejaVuSans-Oblique-69" transform="translate(73.857422 -16.015625) scale(0.7)"/>
     <use xlink:href="#DejaVuSans-Oblique-74" transform="translate(93.305664 -16.015625) scale(0.7)"/>
     <use xlink:href="#DejaVuSans-3d" transform="translate(142.96875 0.390625)"/>
     <use xlink:href="#DejaVuSans-Oblique-3b2" transform="translate(246.240234 0.390625)"/>
     <use xlink:href="#DejaVuSans-Oblique-46" transform="translate(310.058594 -16.015625) scale(0.7)"/>
     <use xlink:href="#DejaVuSans-Oblique-49" transform="translate(353.056641 0.390625)"/>
     <use xlink:href="#DejaVuSans-Oblique-69" transform="translate(382.548828 -16.015625) scale(0.7)"/>
     <use xlink:href="#DejaVuSans-Oblique-6e" transform="translate(401.99707 -16.015625) scale(0.7)"/>
    </g>
   </g>
   <g id="text_6">
    <!-- $V_{uit}=V_{dd}−\frac{R_{L}\beta_{F}}{R_{in}}(V_{in}−V_{BE})$ -->
    <g style="fill: #0000ff" transform="translate(247.572 78.26) scale(0.18 -0.18)">
     <defs>
      <path id="DejaVuSans-2212" d="M 678 2272 
L 4684 2272 
L 4684 1741 
L 678 1741 
L 678 2272 
z
" transform="scale(0.015625)"/>
      <path id="DejaVuSans-28" d="M 1984 4856 
Q 1566 4138 1362 3434 
Q 1159 2731 1159 2009 
Q 1159 1288 1364 580 
Q 1569 -128 1984 -844 
L 1484 -844 
Q 1016 -109 783 600 
Q 550 1309 550 2009 
Q 550 2706 781 3412 
Q 1013 4119 1484 4856 
L 1984 4856 
z
" transform="scale(0.015625)"/>
      <path id="DejaVuSans-Oblique-42" d="M 1081 4666 
L 2694 4666 
Q 3350 4666 3675 4422 
Q 4000 4178 4000 3688 
Q 4000 3238 3720 2911 
Q 3441 2584 2988 2516 
Q 3375 2428 3569 2181 
Q 3763 1934 3763 1522 
Q 3763 819 3242 409 
Q 2722 0 1819 0 
L 172 0 
L 1081 4666 
z
M 1234 2228 
L 903 519 
L 1919 519 
Q 2491 519 2800 781 
Q 3109 1044 3109 1522 
Q 3109 1891 2904 2059 
Q 2700 2228 2247 2228 
L 1234 2228 
z
M 1606 4147 
L 1331 2741 
L 2272 2741 
Q 2775 2741 3058 2959 
Q 3341 3178 3341 3566 
Q 3341 3869 3150 4008 
Q 2959 4147 2541 4147 
L 1606 4147 
z
" transform="scale(0.015625)"/>
      <path id="DejaVuSans-Oblique-45" d="M 1081 4666 
L 4031 4666 
L 3928 4134 
L 1606 4134 
L 1338 2753 
L 3566 2753 
L 3463 2222 
L 1234 2222 
L 909 531 
L 3284 531 
L 3181 0 
L 172 0 
L 1081 4666 
z
" transform="scale(0.015625)"/>
      <path id="DejaVuSans-29" d="M 513 4856 
L 1013 4856 
Q 1481 4119 1714 3412 
Q 1947 2706 1947 2009 
Q 1947 1309 1714 600 
Q 1481 -109 1013 -844 
L 513 -844 
Q 928 -128 1133 580 
Q 1338 1288 1338 2009 
Q 1338 2731 1133 3434 
Q 928 4138 513 4856 
z
" transform="scale(0.015625)"/>
     </defs>
     <use xlink:href="#DejaVuSans-Oblique-56" transform="translate(0 0.01875)"/>
     <use xlink:href="#DejaVuSans-Oblique-75" transform="translate(68.408203 -16.3875) scale(0.7)"/>
     <use xlink:href="#DejaVuSans-Oblique-69" transform="translate(112.773438 -16.3875) scale(0.7)"/>
     <use xlink:href="#DejaVuSans-Oblique-74" transform="translate(132.22168 -16.3875) scale(0.7)"/>
     <use xlink:href="#DejaVuSans-3d" transform="translate(181.884766 0.01875)"/>
     <use xlink:href="#DejaVuSans-Oblique-56" transform="translate(285.15625 0.01875)"/>
     <use xlink:href="#DejaVuSans-Oblique-64" transform="translate(353.564453 -16.3875) scale(0.7)"/>
     <use xlink:href="#DejaVuSans-Oblique-64" transform="translate(397.998047 -16.3875) scale(0.7)"/>
     <use xlink:href="#DejaVuSans-2212" transform="translate(464.648438 0.01875)"/>
     <use xlink:href="#DejaVuSans-Oblique-52" transform="translate(567.919922 58.373438) scale(0.7)"/>
     <use xlink:href="#DejaVuSans-Oblique-4c" transform="translate(616.557617 46.889062) scale(0.49)"/>
     <use xlink:href="#DejaVuSans-Oblique-3b2" transform="translate(645.770996 58.373438) scale(0.7)"/>
     <use xlink:href="#DejaVuSans-Oblique-46" transform="translate(690.443848 46.889062) scale(0.49)"/>
     <use xlink:href="#DejaVuSans-Oblique-52" transform="translate(596.919922 -38.46875) scale(0.7)"/>
     <use xlink:href="#DejaVuSans-Oblique-69" transform="translate(645.557617 -49.953125) scale(0.49)"/>
     <use xlink:href="#DejaVuSans-Oblique-6e" transform="translate(659.171387 -49.953125) scale(0.49)"/>
     <use xlink:href="#DejaVuSans-28" transform="translate(733.04248 0.01875)"/>
     <use xlink:href="#DejaVuSans-Oblique-56" transform="translate(772.056152 0.01875)"/>
     <use xlink:href="#DejaVuSans-Oblique-69" transform="translate(840.464355 -16.3875) scale(0.7)"/>
     <use xlink:href="#DejaVuSans-Oblique-6e" transform="translate(859.912598 -16.3875) scale(0.7)"/>
     <use xlink:href="#DejaVuSans-2212" transform="translate(926.494629 0.01875)"/>
     <use xlink:href="#DejaVuSans-Oblique-56" transform="translate(1029.766113 0.01875)"/>
     <use xlink:href="#DejaVuSans-Oblique-42" transform="translate(1098.174316 -16.3875) scale(0.7)"/>
     <use xlink:href="#DejaVuSans-Oblique-45" transform="translate(1146.196777 -16.3875) scale(0.7)"/>
     <use xlink:href="#DejaVuSans-29" transform="translate(1193.159668 0.01875)"/>
     <path d="M 567.919922 18.815625 
L 567.919922 25.065625 
L 720.54248 25.065625 
L 720.54248 18.815625 
L 567.919922 18.815625 
z
"/>
    </g>
   </g>
   <g id="patch_7">
    <path d="M 16.482 172.46 
C 17.198048 172.46 17.884866 172.175511 18.391188 171.669188 
C 18.897511 171.162866 19.182 170.476048 19.182 169.76 
C 19.182 169.043952 18.897511 168.357134 18.391188 167.850812 
C 17.884866 167.344489 17.198048 167.06 16.482 167.06 
C 15.765952 167.06 15.079134 167.344489 14.572812 167.850812 
C 14.066489 168.357134 13.782 169.043952 13.782 169.76 
C 13.782 170.476048 14.066489 171.162866 14.572812 171.669188 
C 15.079134 172.175511 15.765952 172.46 16.482 172.46 
z
" clip-path="url(#pedb0454ccf)" style="fill: #ffffff; stroke: #000000; stroke-width: 2; stroke-linejoin: miter"/>
   </g>
   <g id="text_7">
    <!-- $V_{in}$ -->
    <g transform="translate(7.032 160.548438) scale(0.14 -0.14)">
     <use xlink:href="#DejaVuSans-Oblique-56" transform="translate(0 0.09375)"/>
     <use xlink:href="#DejaVuSans-Oblique-69" transform="translate(68.408203 -16.3125) scale(0.7)"/>
     <use xlink:href="#DejaVuSans-Oblique-6e" transform="translate(87.856445 -16.3125) scale(0.7)"/>
    </g>
   </g>
   <g id="patch_8">
    <path d="M 106.542 147.38 
C 107.258048 147.38 107.944866 147.095511 108.451188 146.589188 
C 108.957511 146.082866 109.242 145.396048 109.242 144.68 
C 109.242 143.963952 108.957511 143.277134 108.451188 142.770812 
C 107.944866 142.264489 107.258048 141.98 106.542 141.98 
C 105.825952 141.98 105.139134 142.264489 104.632812 142.770812 
C 104.126489 143.277134 103.842 143.963952 103.842 144.68 
C 103.842 145.396048 104.126489 146.082866 104.632812 146.589188 
C 105.139134 147.095511 105.825952 147.38 106.542 147.38 
z
" clip-path="url(#pedb0454ccf)" style="stroke: #000000; stroke-width: 2; stroke-linejoin: miter"/>
   </g>
   <g id="patch_9">
    <path d="M 133.542 147.38 
C 134.258048 147.38 134.944866 147.095511 135.451188 146.589188 
C 135.957511 146.082866 136.242 145.396048 136.242 144.68 
C 136.242 143.963952 135.957511 143.277134 135.451188 142.770812 
C 134.944866 142.264489 134.258048 141.98 133.542 141.98 
C 132.825952 141.98 132.139134 142.264489 131.632812 142.770812 
C 131.126489 143.277134 130.842 143.963952 130.842 144.68 
C 130.842 145.396048 131.126489 146.082866 131.632812 146.589188 
C 132.139134 147.095511 132.825952 147.38 133.542 147.38 
z
" clip-path="url(#pedb0454ccf)" style="fill: #ffffff; stroke: #000000; stroke-width: 2; stroke-linejoin: miter"/>
   </g>
   <g id="text_8">
    <!-- $V_{uit}$ -->
    <g transform="translate(122.132 135.468438) scale(0.14 -0.14)">
     <use xlink:href="#DejaVuSans-Oblique-56" transform="translate(0 0.09375)"/>
     <use xlink:href="#DejaVuSans-Oblique-75" transform="translate(68.408203 -16.3125) scale(0.7)"/>
     <use xlink:href="#DejaVuSans-Oblique-69" transform="translate(112.773438 -16.3125) scale(0.7)"/>
     <use xlink:href="#DejaVuSans-Oblique-74" transform="translate(132.22168 -16.3125) scale(0.7)"/>
    </g>
   </g>
  </g>
 </g>
 <defs>
  <clipPath id="pedb0454ccf">
   <rect x="0" y="0" width="539.262" height="222.56"/>
  </clipPath>
 </defs>
</svg>