<?xml version="1.0" encoding="utf-8" standalone="no"?>
<!DOCTYPE svg PUBLIC "-//W3C//DTD SVG 1.1//EN"
  "http://www.w3.org/Graphics/SVG/1.1/DTD/svg11.dtd">
<svg xmlns:xlink="http://www.w3.org/1999/xlink" width="330.006pt" height="224.497656pt" viewBox="0 0 330.006 224.497656" xmlns="http://www.w3.org/2000/svg" version="1.1">
 <metadata>
  <rdf:RDF xmlns:dc="http://purl.org/dc/elements/1.1/" xmlns:cc="http://creativecommons.org/ns#" xmlns:rdf="http://www.w3.org/1999/02/22-rdf-syntax-ns#">
   <cc:Work>
    <dc:type rdf:resource="http://purl.org/dc/dcmitype/StillImage"/>
    <dc:date>2024-01-08T08:01:40.213374</dc:date>
    <dc:format>image/svg+xml</dc:format>
    <dc:creator>
     <cc:Agent>
      <dc:title>Matplotlib v3.8.2, https://matplotlib.org/</dc:title>
     </cc:Agent>
    </dc:creator>
   </cc:Work>
  </rdf:RDF>
 </metadata>
 <defs>
  <style type="text/css">*{stroke-linejoin: round; stroke-linecap: butt}</style>
 </defs>
 <g id="figure_1">
  <g id="patch_1">
   <path d="M 0 224.497656 
L 330.006 224.497656 
L 330.006 -0 
L 0 -0 
z
" style="fill: #ffffff"/>
  </g>
  <g id="axes_1">
   <g id="patch_2">
    <path d="M 157.833 91.657656 
L 158.004352 91.656297 
L 158.175662 91.652219 
L 158.346885 91.645424 
L 158.517978 91.635912 
L 158.6889 91.623688 
L 158.859605 91.608753 
L 159.030053 91.591112 
L 159.200198 91.570768 
L 159.37 91.547728 
L 159.539415 91.521996 
L 159.7084 91.49358 
L 159.876913 91.462486 
L 160.044912 91.428723 
L 160.212354 91.392298 
L 160.379197 91.353221 
L 160.545398 91.311502 
L 160.710917 91.267152 
L 160.875712 91.22018 
L 161.03974 91.1706 
L 161.202961 91.118424 
L 161.365334 91.063665 
L 161.526818 91.006337 
L 161.687371 90.946453 
L 161.846955 90.88403 
L 162.005527 90.819083 
L 162.16305 90.751628 
L 162.319482 90.681682 
L 162.474785 90.609263 
L 162.628919 90.534389 
L 162.781846 90.457079 
L 162.933528 90.377353 
L 163.083925 90.29523 
L 163.233 90.210731 
L 163.380716 90.123877 
L 163.527035 90.034691 
L 163.671921 89.943194 
L 163.815337 89.849411 
L 163.957247 89.753363 
L 164.097615 89.655077 
L 164.236406 89.554575 
L 164.373585 89.451884 
L 164.509117 89.34703 
L 164.642969 89.240038 
L 164.775106 89.130936 
L 164.905496 89.019752 
L 165.034105 88.906512 
L 165.160902 88.791247 
L 165.285853 88.673984 
L 165.408929 88.554753 
L 165.530097 88.433585 
L 165.649328 88.31051 
L 165.76659 88.185558 
L 165.881856 88.058761 
L 165.995095 87.930152 
L 166.10628 87.799762 
L 166.215382 87.667625 
L 166.322373 87.533773 
L 166.427228 87.398241 
L 166.529919 87.261062 
L 166.63042 87.122271 
L 166.728707 86.981903 
L 166.824754 86.839993 
L 166.918538 86.696577 
L 167.010035 86.551691 
L 167.099221 86.405372 
L 167.186074 86.257656 
L 167.270573 86.108581 
L 167.352696 85.958184 
L 167.432423 85.806503 
L 167.509733 85.653576 
L 167.584607 85.499441 
L 167.657026 85.344138 
L 167.726971 85.187706 
L 167.794426 85.030184 
L 167.859374 84.871611 
L 167.921797 84.712027 
L 167.98168 84.551474 
L 168.039009 84.38999 
L 168.093768 84.227617 
L 168.145944 84.064396 
L 168.195524 83.900368 
L 168.242495 83.735573 
L 168.286846 83.570055 
L 168.328565 83.403853 
L 168.367642 83.23701 
L 168.404066 83.069568 
L 168.43783 82.90157 
L 168.468924 82.733057 
L 168.49734 82.564071 
L 168.523072 82.394657 
L 168.546112 82.224855 
L 168.566455 82.054709 
L 168.584097 81.884262 
L 168.599032 81.713556 
L 168.611256 81.542635 
L 168.620767 81.371541 
L 168.627563 81.200318 
L 168.631641 81.029009 
L 168.633 80.857656 
L 168.633 37.297656 
L 168.631641 37.126304 
L 168.627563 36.954995 
L 168.620767 36.783772 
L 168.611256 36.612678 
L 168.599032 36.441757 
L 168.584097 36.271051 
L 168.566455 36.100604 
L 168.546112 35.930458 
L 168.523072 35.760656 
L 168.49734 35.591241 
L 168.468924 35.422256 
L 168.43783 35.253743 
L 168.404066 35.085744 
L 168.367642 34.918302 
L 168.328565 34.75146 
L 168.286846 34.585258 
L 168.242495 34.419739 
L 168.195524 34.254945 
L 168.145944 34.090916 
L 168.093768 33.927695 
L 168.039009 33.765322 
L 167.98168 33.603839 
L 167.921797 33.443285 
L 167.859374 33.283702 
L 167.794426 33.125129 
L 167.726971 32.967606 
L 167.657026 32.811174 
L 167.584607 32.655871 
L 167.509733 32.501737 
L 167.432423 32.34881 
L 167.352696 32.197129 
L 167.270573 32.046732 
L 167.186074 31.897656 
L 167.099221 31.74994 
L 167.010035 31.603621 
L 166.918538 31.458735 
L 166.824754 31.31532 
L 166.728707 31.17341 
L 166.63042 31.033042 
L 166.529919 30.894251 
L 166.427228 30.757072 
L 166.322373 30.621539 
L 166.215382 30.487687 
L 166.10628 30.35555 
L 165.995095 30.22516 
L 165.881856 30.096551 
L 165.76659 29.969755 
L 165.649328 29.844803 
L 165.530097 29.721727 
L 165.408929 29.600559 
L 165.285853 29.481329 
L 165.160902 29.364066 
L 165.034105 29.2488 
L 164.905496 29.135561 
L 164.775106 29.024376 
L 164.642969 28.915274 
L 164.509117 28.808283 
L 164.373585 28.703428 
L 164.236406 28.600737 
L 164.097615 28.500236 
L 163.957247 28.401949 
L 163.815337 28.305902 
L 163.671921 28.212118 
L 163.527035 28.120622 
L 163.380716 28.031435 
L 163.233 27.944582 
L 163.083925 27.860083 
L 162.933528 27.77796 
L 162.781846 27.698233 
L 162.628919 27.620923 
L 162.474785 27.54605 
L 162.319482 27.473631 
L 162.16305 27.403685 
L 162.005527 27.33623 
L 161.846955 27.271283 
L 161.687371 27.208859 
L 161.526818 27.148976 
L 161.365334 27.091647 
L 161.202961 27.036888 
L 161.03974 26.984712 
L 160.875712 26.935132 
L 160.710917 26.888161 
L 160.545398 26.84381 
L 160.379197 26.802091 
L 160.212354 26.763015 
L 160.044912 26.72659 
L 159.876913 26.692826 
L 159.7084 26.661733 
L 159.539415 26.633316 
L 159.37 26.607585 
L 159.200198 26.584544 
L 159.030053 26.564201 
L 158.859605 26.546559 
L 158.6889 26.531625 
L 158.517978 26.5194 
L 158.346885 26.509889 
L 158.175662 26.503094 
L 158.004352 26.499016 
L 157.833 26.497656 
L 145.173 26.497656 
L 145.001648 26.499016 
L 144.830338 26.503094 
L 144.659115 26.509889 
L 144.488022 26.5194 
L 144.3171 26.531625 
L 144.146395 26.546559 
L 143.975947 26.564201 
L 143.805802 26.584544 
L 143.636 26.607585 
L 143.466585 26.633316 
L 143.2976 26.661733 
L 143.129087 26.692826 
L 142.961088 26.72659 
L 142.793646 26.763015 
L 142.626803 26.802091 
L 142.460602 26.84381 
L 142.295083 26.888161 
L 142.130288 26.935132 
L 141.96626 26.984712 
L 141.803039 27.036888 
L 141.640666 27.091647 
L 141.479182 27.148976 
L 141.318629 27.208859 
L 141.159045 27.271283 
L 141.000473 27.33623 
L 140.84295 27.403685 
L 140.686518 27.473631 
L 140.531215 27.54605 
L 140.377081 27.620923 
L 140.224154 27.698233 
L 140.072472 27.77796 
L 139.922075 27.860083 
L 139.773 27.944582 
L 139.625284 28.031435 
L 139.478965 28.120622 
L 139.334079 28.212118 
L 139.190663 28.305902 
L 139.048753 28.401949 
L 138.908385 28.500236 
L 138.769594 28.600737 
L 138.632415 28.703428 
L 138.496883 28.808283 
L 138.363031 28.915274 
L 138.230894 29.024376 
L 138.100504 29.135561 
L 137.971895 29.2488 
L 137.845098 29.364066 
L 137.720147 29.481329 
L 137.597071 29.600559 
L 137.475903 29.721727 
L 137.356672 29.844803 
L 137.23941 29.969755 
L 137.124144 30.096551 
L 137.010905 30.22516 
L 136.89972 30.35555 
L 136.790618 30.487687 
L 136.683627 30.621539 
L 136.578772 30.757072 
L 136.476081 30.894251 
L 136.37558 31.033042 
L 136.277293 31.17341 
L 136.181246 31.31532 
L 136.087462 31.458735 
L 135.995965 31.603621 
L 135.906779 31.74994 
L 135.819926 31.897656 
L 135.735427 32.046732 
L 135.653304 32.197129 
L 135.573577 32.34881 
L 135.496267 32.501737 
L 135.421393 32.655871 
L 135.348974 32.811174 
L 135.279029 32.967606 
L 135.211574 33.125129 
L 135.146626 33.283702 
L 135.084203 33.443285 
L 135.02432 33.603839 
L 134.966991 33.765322 
L 134.912232 33.927695 
L 134.860056 34.090916 
L 134.810476 34.254945 
L 134.763505 34.419739 
L 134.719154 34.585258 
L 134.677435 34.75146 
L 134.638358 34.918302 
L 134.601934 35.085744 
L 134.56817 35.253743 
L 134.537076 35.422256 
L 134.50866 35.591241 
L 134.482928 35.760656 
L 134.459888 35.930458 
L 134.439545 36.100604 
L 134.421903 36.271051 
L 134.406968 36.441757 
L 134.394744 36.612678 
L 134.385233 36.783772 
L 134.378437 36.954995 
L 134.374359 37.126304 
L 134.373 37.297656 
L 134.373 80.857656 
L 134.374359 81.029009 
L 134.378437 81.200318 
L 134.385233 81.371541 
L 134.394744 81.542635 
L 134.406968 81.713556 
L 134.421903 81.884262 
L 134.439545 82.054709 
L 134.459888 82.224855 
L 134.482928 82.394657 
L 134.50866 82.564071 
L 134.537076 82.733057 
L 134.56817 82.90157 
L 134.601934 83.069568 
L 134.638358 83.23701 
L 134.677435 83.403853 
L 134.719154 83.570055 
L 134.763505 83.735573 
L 134.810476 83.900368 
L 134.860056 84.064396 
L 134.912232 84.227617 
L 134.966991 84.38999 
L 135.02432 84.551474 
L 135.084203 84.712027 
L 135.146626 84.871611 
L 135.211574 85.030184 
L 135.279029 85.187706 
L 135.348974 85.344138 
L 135.421393 85.499441 
L 135.496267 85.653576 
L 135.573577 85.806503 
L 135.653304 85.958184 
L 135.735427 86.108581 
L 135.819926 86.257656 
L 135.906779 86.405372 
L 135.995965 86.551691 
L 136.087462 86.696577 
L 136.181246 86.839993 
L 136.277293 86.981903 
L 136.37558 87.122271 
L 136.476081 87.261062 
L 136.578772 87.398241 
L 136.683627 87.533773 
L 136.790618 87.667625 
L 136.89972 87.799762 
L 137.010905 87.930152 
L 137.124144 88.058761 
L 137.23941 88.185558 
L 137.356672 88.31051 
L 137.475903 88.433585 
L 137.597071 88.554753 
L 137.720147 88.673984 
L 137.845098 88.791247 
L 137.971895 88.906512 
L 138.100504 89.019752 
L 138.230894 89.130936 
L 138.363031 89.240038 
L 138.496883 89.34703 
L 138.632415 89.451884 
L 138.769594 89.554575 
L 138.908385 89.655077 
L 139.048753 89.753363 
L 139.190663 89.849411 
L 139.334079 89.943194 
L 139.478965 90.034691 
L 139.625284 90.123877 
L 139.773 90.210731 
L 139.922075 90.29523 
L 140.072472 90.377353 
L 140.224154 90.457079 
L 140.377081 90.534389 
L 140.531215 90.609263 
L 140.686518 90.681682 
L 140.84295 90.751628 
L 141.000473 90.819083 
L 141.159045 90.88403 
L 141.318629 90.946453 
L 141.479182 91.006337 
L 141.640666 91.063665 
L 141.803039 91.118424 
L 141.96626 91.1706 
L 142.130288 91.22018 
L 142.295083 91.267152 
L 142.460602 91.311502 
L 142.626803 91.353221 
L 142.793646 91.392298 
L 142.961088 91.428723 
L 143.129087 91.462486 
L 143.2976 91.49358 
L 143.466585 91.521996 
L 143.636 91.547728 
L 143.805802 91.570768 
L 143.975947 91.591112 
L 144.146395 91.608753 
L 144.3171 91.623688 
L 144.488022 91.635912 
L 144.659115 91.645424 
L 144.830338 91.652219 
L 145.001648 91.656297 
L 145.173 91.657656 
L 157.833 91.657656 
z
" clip-path="url(#pab5e365ff6)" style="fill: none; stroke-dasharray: 1.85,0.8; stroke-dashoffset: 0; stroke: #008000; stroke-width: 0.5; stroke-linecap: round"/>
   </g>
   <g id="patch_3">
    <path d="M 157.833 195.457656 
L 158.004352 195.456297 
L 158.175662 195.452219 
L 158.346885 195.445424 
L 158.517978 195.435912 
L 158.6889 195.423688 
L 158.859605 195.408753 
L 159.030053 195.391112 
L 159.200198 195.370768 
L 159.37 195.347728 
L 159.539415 195.321996 
L 159.7084 195.29358 
L 159.876913 195.262486 
L 160.044912 195.228723 
L 160.212354 195.192298 
L 160.379197 195.153221 
L 160.545398 195.111502 
L 160.710917 195.067152 
L 160.875712 195.02018 
L 161.03974 194.9706 
L 161.202961 194.918424 
L 161.365334 194.863665 
L 161.526818 194.806337 
L 161.687371 194.746453 
L 161.846955 194.68403 
L 162.005527 194.619083 
L 162.16305 194.551628 
L 162.319482 194.481682 
L 162.474785 194.409263 
L 162.628919 194.334389 
L 162.781846 194.257079 
L 162.933528 194.177353 
L 163.083925 194.09523 
L 163.233 194.010731 
L 163.380716 193.923877 
L 163.527035 193.834691 
L 163.671921 193.743194 
L 163.815337 193.649411 
L 163.957247 193.553363 
L 164.097615 193.455077 
L 164.236406 193.354575 
L 164.373585 193.251884 
L 164.509117 193.14703 
L 164.642969 193.040038 
L 164.775106 192.930936 
L 164.905496 192.819752 
L 165.034105 192.706512 
L 165.160902 192.591247 
L 165.285853 192.473984 
L 165.408929 192.354753 
L 165.530097 192.233585 
L 165.649328 192.11051 
L 165.76659 191.985558 
L 165.881856 191.858761 
L 165.995095 191.730152 
L 166.10628 191.599762 
L 166.215382 191.467625 
L 166.322373 191.333773 
L 166.427228 191.198241 
L 166.529919 191.061062 
L 166.63042 190.922271 
L 166.728707 190.781903 
L 166.824754 190.639993 
L 166.918538 190.496577 
L 167.010035 190.351691 
L 167.099221 190.205372 
L 167.186074 190.057656 
L 167.270573 189.908581 
L 167.352696 189.758184 
L 167.432423 189.606503 
L 167.509733 189.453576 
L 167.584607 189.299441 
L 167.657026 189.144138 
L 167.726971 188.987706 
L 167.794426 188.830184 
L 167.859374 188.671611 
L 167.921797 188.512027 
L 167.98168 188.351474 
L 168.039009 188.18999 
L 168.093768 188.027617 
L 168.145944 187.864396 
L 168.195524 187.700368 
L 168.242495 187.535573 
L 168.286846 187.370055 
L 168.328565 187.203853 
L 168.367642 187.03701 
L 168.404066 186.869568 
L 168.43783 186.70157 
L 168.468924 186.533057 
L 168.49734 186.364071 
L 168.523072 186.194657 
L 168.546112 186.024855 
L 168.566455 185.854709 
L 168.584097 185.684262 
L 168.599032 185.513556 
L 168.611256 185.342635 
L 168.620767 185.171541 
L 168.627563 185.000318 
L 168.631641 184.829009 
L 168.633 184.657656 
L 168.633 141.097656 
L 168.631641 140.926304 
L 168.627563 140.754995 
L 168.620767 140.583772 
L 168.611256 140.412678 
L 168.599032 140.241757 
L 168.584097 140.071051 
L 168.566455 139.900604 
L 168.546112 139.730458 
L 168.523072 139.560656 
L 168.49734 139.391241 
L 168.468924 139.222256 
L 168.43783 139.053743 
L 168.404066 138.885744 
L 168.367642 138.718302 
L 168.328565 138.55146 
L 168.286846 138.385258 
L 168.242495 138.219739 
L 168.195524 138.054945 
L 168.145944 137.890916 
L 168.093768 137.727695 
L 168.039009 137.565322 
L 167.98168 137.403839 
L 167.921797 137.243285 
L 167.859374 137.083702 
L 167.794426 136.925129 
L 167.726971 136.767606 
L 167.657026 136.611174 
L 167.584607 136.455871 
L 167.509733 136.301737 
L 167.432423 136.14881 
L 167.352696 135.997129 
L 167.270573 135.846732 
L 167.186074 135.697656 
L 167.099221 135.54994 
L 167.010035 135.403621 
L 166.918538 135.258735 
L 166.824754 135.11532 
L 166.728707 134.97341 
L 166.63042 134.833042 
L 166.529919 134.694251 
L 166.427228 134.557072 
L 166.322373 134.421539 
L 166.215382 134.287687 
L 166.10628 134.15555 
L 165.995095 134.02516 
L 165.881856 133.896551 
L 165.76659 133.769755 
L 165.649328 133.644803 
L 165.530097 133.521727 
L 165.408929 133.400559 
L 165.285853 133.281329 
L 165.160902 133.164066 
L 165.034105 133.0488 
L 164.905496 132.935561 
L 164.775106 132.824376 
L 164.642969 132.715274 
L 164.509117 132.608283 
L 164.373585 132.503428 
L 164.236406 132.400737 
L 164.097615 132.300236 
L 163.957247 132.201949 
L 163.815337 132.105902 
L 163.671921 132.012118 
L 163.527035 131.920622 
L 163.380716 131.831435 
L 163.233 131.744582 
L 163.083925 131.660083 
L 162.933528 131.57796 
L 162.781846 131.498233 
L 162.628919 131.420923 
L 162.474785 131.34605 
L 162.319482 131.273631 
L 162.16305 131.203685 
L 162.005527 131.13623 
L 161.846955 131.071283 
L 161.687371 131.008859 
L 161.526818 130.948976 
L 161.365334 130.891647 
L 161.202961 130.836888 
L 161.03974 130.784712 
L 160.875712 130.735132 
L 160.710917 130.688161 
L 160.545398 130.64381 
L 160.379197 130.602091 
L 160.212354 130.563015 
L 160.044912 130.52659 
L 159.876913 130.492826 
L 159.7084 130.461733 
L 159.539415 130.433316 
L 159.37 130.407585 
L 159.200198 130.384544 
L 159.030053 130.364201 
L 158.859605 130.346559 
L 158.6889 130.331625 
L 158.517978 130.3194 
L 158.346885 130.309889 
L 158.175662 130.303094 
L 158.004352 130.299016 
L 157.833 130.297656 
L 145.173 130.297656 
L 145.001648 130.299016 
L 144.830338 130.303094 
L 144.659115 130.309889 
L 144.488022 130.3194 
L 144.3171 130.331625 
L 144.146395 130.346559 
L 143.975947 130.364201 
L 143.805802 130.384544 
L 143.636 130.407585 
L 143.466585 130.433316 
L 143.2976 130.461733 
L 143.129087 130.492826 
L 142.961088 130.52659 
L 142.793646 130.563015 
L 142.626803 130.602091 
L 142.460602 130.64381 
L 142.295083 130.688161 
L 142.130288 130.735132 
L 141.96626 130.784712 
L 141.803039 130.836888 
L 141.640666 130.891647 
L 141.479182 130.948976 
L 141.318629 131.008859 
L 141.159045 131.071283 
L 141.000473 131.13623 
L 140.84295 131.203685 
L 140.686518 131.273631 
L 140.531215 131.34605 
L 140.377081 131.420923 
L 140.224154 131.498233 
L 140.072472 131.57796 
L 139.922075 131.660083 
L 139.773 131.744582 
L 139.625284 131.831435 
L 139.478965 131.920622 
L 139.334079 132.012118 
L 139.190663 132.105902 
L 139.048753 132.201949 
L 138.908385 132.300236 
L 138.769594 132.400737 
L 138.632415 132.503428 
L 138.496883 132.608283 
L 138.363031 132.715274 
L 138.230894 132.824376 
L 138.100504 132.935561 
L 137.971895 133.0488 
L 137.845098 133.164066 
L 137.720147 133.281329 
L 137.597071 133.400559 
L 137.475903 133.521727 
L 137.356672 133.644803 
L 137.23941 133.769755 
L 137.124144 133.896551 
L 137.010905 134.02516 
L 136.89972 134.15555 
L 136.790618 134.287687 
L 136.683627 134.421539 
L 136.578772 134.557072 
L 136.476081 134.694251 
L 136.37558 134.833042 
L 136.277293 134.97341 
L 136.181246 135.11532 
L 136.087462 135.258735 
L 135.995965 135.403621 
L 135.906779 135.54994 
L 135.819926 135.697656 
L 135.735427 135.846732 
L 135.653304 135.997129 
L 135.573577 136.14881 
L 135.496267 136.301737 
L 135.421393 136.455871 
L 135.348974 136.611174 
L 135.279029 136.767606 
L 135.211574 136.925129 
L 135.146626 137.083702 
L 135.084203 137.243285 
L 135.02432 137.403839 
L 134.966991 137.565322 
L 134.912232 137.727695 
L 134.860056 137.890916 
L 134.810476 138.054945 
L 134.763505 138.219739 
L 134.719154 138.385258 
L 134.677435 138.55146 
L 134.638358 138.718302 
L 134.601934 138.885744 
L 134.56817 139.053743 
L 134.537076 139.222256 
L 134.50866 139.391241 
L 134.482928 139.560656 
L 134.459888 139.730458 
L 134.439545 139.900604 
L 134.421903 140.071051 
L 134.406968 140.241757 
L 134.394744 140.412678 
L 134.385233 140.583772 
L 134.378437 140.754995 
L 134.374359 140.926304 
L 134.373 141.097656 
L 134.373 184.657656 
L 134.374359 184.829009 
L 134.378437 185.000318 
L 134.385233 185.171541 
L 134.394744 185.342635 
L 134.406968 185.513556 
L 134.421903 185.684262 
L 134.439545 185.854709 
L 134.459888 186.024855 
L 134.482928 186.194657 
L 134.50866 186.364071 
L 134.537076 186.533057 
L 134.56817 186.70157 
L 134.601934 186.869568 
L 134.638358 187.03701 
L 134.677435 187.203853 
L 134.719154 187.370055 
L 134.763505 187.535573 
L 134.810476 187.700368 
L 134.860056 187.864396 
L 134.912232 188.027617 
L 134.966991 188.18999 
L 135.02432 188.351474 
L 135.084203 188.512027 
L 135.146626 188.671611 
L 135.211574 188.830184 
L 135.279029 188.987706 
L 135.348974 189.144138 
L 135.421393 189.299441 
L 135.496267 189.453576 
L 135.573577 189.606503 
L 135.653304 189.758184 
L 135.735427 189.908581 
L 135.819926 190.057656 
L 135.906779 190.205372 
L 135.995965 190.351691 
L 136.087462 190.496577 
L 136.181246 190.639993 
L 136.277293 190.781903 
L 136.37558 190.922271 
L 136.476081 191.061062 
L 136.578772 191.198241 
L 136.683627 191.333773 
L 136.790618 191.467625 
L 136.89972 191.599762 
L 137.010905 191.730152 
L 137.124144 191.858761 
L 137.23941 191.985558 
L 137.356672 192.11051 
L 137.475903 192.233585 
L 137.597071 192.354753 
L 137.720147 192.473984 
L 137.845098 192.591247 
L 137.971895 192.706512 
L 138.100504 192.819752 
L 138.230894 192.930936 
L 138.363031 193.040038 
L 138.496883 193.14703 
L 138.632415 193.251884 
L 138.769594 193.354575 
L 138.908385 193.455077 
L 139.048753 193.553363 
L 139.190663 193.649411 
L 139.334079 193.743194 
L 139.478965 193.834691 
L 139.625284 193.923877 
L 139.773 194.010731 
L 139.922075 194.09523 
L 140.072472 194.177353 
L 140.224154 194.257079 
L 140.377081 194.334389 
L 140.531215 194.409263 
L 140.686518 194.481682 
L 140.84295 194.551628 
L 141.000473 194.619083 
L 141.159045 194.68403 
L 141.318629 194.746453 
L 141.479182 194.806337 
L 141.640666 194.863665 
L 141.803039 194.918424 
L 141.96626 194.9706 
L 142.130288 195.02018 
L 142.295083 195.067152 
L 142.460602 195.111502 
L 142.626803 195.153221 
L 142.793646 195.192298 
L 142.961088 195.228723 
L 143.129087 195.262486 
L 143.2976 195.29358 
L 143.466585 195.321996 
L 143.636 195.347728 
L 143.805802 195.370768 
L 143.975947 195.391112 
L 144.146395 195.408753 
L 144.3171 195.423688 
L 144.488022 195.435912 
L 144.659115 195.445424 
L 144.830338 195.452219 
L 145.001648 195.456297 
L 145.173 195.457656 
L 157.833 195.457656 
z
" clip-path="url(#pab5e365ff6)" style="fill: none; stroke-dasharray: 1.85,0.8; stroke-dashoffset: 0; stroke: #008000; stroke-width: 0.5; stroke-linecap: round"/>
   </g>
   <g id="line2d_1">
    <path d="M 137.973 58.777656 
L 151.173 58.777656 
" clip-path="url(#pab5e365ff6)" style="fill: none; stroke: #000000; stroke-width: 2; stroke-linecap: round"/>
   </g>
   <g id="line2d_2">
    <path d="M 151.173 45.577656 
L 151.173 71.977656 
" clip-path="url(#pab5e365ff6)" style="fill: none; stroke: #000000; stroke-width: 2; stroke-linecap: round"/>
   </g>
   <g id="line2d_3">
    <path d="M 151.173 52.177656 
L 165.033 40.297656 
L 165.033 33.697656 
" clip-path="url(#pab5e365ff6)" style="fill: none; stroke: #000000; stroke-width: 2; stroke-linecap: round"/>
   </g>
   <g id="line2d_4">
    <path d="M 151.173 65.377656 
L 165.033 77.257656 
L 165.033 83.857656 
" clip-path="url(#pab5e365ff6)" style="fill: none; stroke: #000000; stroke-width: 2; stroke-linecap: round"/>
   </g>
   <g id="line2d_5">
    <path d="M 151.173 65.377656 
L 158.199691 71.400534 
" clip-path="url(#pab5e365ff6)" style="fill: none; stroke: #000000; stroke-width: 2; stroke-linecap: round"/>
   </g>
   <g id="patch_4">
    <path d="M 160.54254 68.66721 
L 165.033 77.257656 
L 155.856842 74.133858 
z
" clip-path="url(#pab5e365ff6)"/>
   </g>
   <g id="line2d_6">
    <path d="M 137.973 58.777656 
L 137.973 85.777656 
L 137.973 112.777656 
" clip-path="url(#pab5e365ff6)" style="fill: none; stroke: #000000; stroke-width: 2; stroke-linecap: round"/>
   </g>
   <g id="line2d_7">
    <path d="M 137.973 112.777656 
L 137.973 137.977656 
L 137.973 163.177656 
" clip-path="url(#pab5e365ff6)" style="fill: none; stroke: #000000; stroke-width: 2; stroke-linecap: round"/>
   </g>
   <g id="line2d_8">
    <path d="M 137.973 163.177656 
L 151.173 163.177656 
" clip-path="url(#pab5e365ff6)" style="fill: none; stroke: #000000; stroke-width: 2; stroke-linecap: round"/>
   </g>
   <g id="line2d_9">
    <path d="M 151.173 149.977656 
L 151.173 176.377656 
" clip-path="url(#pab5e365ff6)" style="fill: none; stroke: #000000; stroke-width: 2; stroke-linecap: round"/>
   </g>
   <g id="line2d_10">
    <path d="M 151.173 156.577656 
L 165.033 144.697656 
L 165.033 138.097656 
" clip-path="url(#pab5e365ff6)" style="fill: none; stroke: #000000; stroke-width: 2; stroke-linecap: round"/>
   </g>
   <g id="line2d_11">
    <path d="M 151.173 169.777656 
L 165.033 181.657656 
L 165.033 188.257656 
" clip-path="url(#pab5e365ff6)" style="fill: none; stroke: #000000; stroke-width: 2; stroke-linecap: round"/>
   </g>
   <g id="line2d_12">
    <path d="M 165.033 144.697656 
L 158.006309 150.720534 
" clip-path="url(#pab5e365ff6)" style="fill: none; stroke: #000000; stroke-width: 2; stroke-linecap: round"/>
   </g>
   <g id="patch_5">
    <path d="M 160.349158 153.453858 
L 151.173 156.577656 
L 155.66346 147.98721 
z
" clip-path="url(#pab5e365ff6)"/>
   </g>
   <g id="line2d_13">
    <path d="M 165.033 33.697656 
L 165.033 19.297656 
" clip-path="url(#pab5e365ff6)" style="fill: none; stroke: #000000; stroke-width: 2; stroke-linecap: round"/>
   </g>
   <g id="line2d_14">
    <path d="M 165.033 19.297656 
L 158.283 19.297656 
" clip-path="url(#pab5e365ff6)" style="fill: none; stroke: #000000; stroke-width: 2; stroke-linecap: round"/>
   </g>
   <g id="line2d_15">
    <path d="M 165.033 19.297656 
L 171.783 19.297656 
" clip-path="url(#pab5e365ff6)" style="fill: none; stroke: #000000; stroke-width: 2; stroke-linecap: round"/>
   </g>
   <g id="line2d_16">
    <path d="M 137.973 112.777656 
L 133.473 112.777656 
L 128.973 112.777656 
" clip-path="url(#pab5e365ff6)" style="fill: none; stroke: #000000; stroke-width: 2; stroke-linecap: round"/>
   </g>
   <g id="line2d_17">
    <path d="M 128.973 112.777656 
L 78.213 112.777656 
M 78.213 121.777656 
L 78.213 103.777656 
M 71.733 121.777656 
L 71.733 103.777656 
M 71.733 112.777656 
L 20.973 112.777656 
" clip-path="url(#pab5e365ff6)" style="fill: none; stroke: #000000; stroke-width: 2; stroke-linecap: round"/>
   </g>
   <g id="line2d_18">
    <path d="M 165.033 83.857656 
L 165.033 89.257656 
L 165.033 94.657656 
" clip-path="url(#pab5e365ff6)" style="fill: none; stroke: #000000; stroke-width: 2; stroke-linecap: round"/>
   </g>
   <g id="line2d_19">
    <path d="M 165.033 94.657656 
L 165.033 116.377656 
L 165.033 138.097656 
" clip-path="url(#pab5e365ff6)" style="fill: none; stroke: #000000; stroke-width: 2; stroke-linecap: round"/>
   </g>
   <g id="line2d_20">
    <path d="M 165.033 188.257656 
L 165.033 202.657656 
L 156.033 202.657656 
L 174.033 202.657656 
M 158.733 206.977656 
L 171.333 206.977656 
M 163.233 211.297656 
L 166.833 211.297656 
" clip-path="url(#pab5e365ff6)" style="fill: none; stroke: #000000; stroke-width: 2; stroke-linecap: round"/>
   </g>
   <g id="line2d_21">
    <path d="M 165.033 94.657656 
L 174.033 94.657656 
L 183.033 94.657656 
" clip-path="url(#pab5e365ff6)" style="fill: none; stroke: #000000; stroke-width: 2; stroke-linecap: round"/>
   </g>
   <g id="line2d_22">
    <path d="M 183.033 94.657656 
L 233.793 94.657656 
M 233.793 85.657656 
L 233.793 103.657656 
M 240.273 85.657656 
L 240.273 103.657656 
M 240.273 94.657656 
L 291.033 94.657656 
" clip-path="url(#pab5e365ff6)" style="fill: none; stroke: #000000; stroke-width: 2; stroke-linecap: round"/>
   </g>
   <g id="line2d_23">
    <path d="M 291.033 94.657656 
L 291.033 103.657656 
L 300.033 106.657656 
L 282.033 112.657656 
L 300.033 118.657656 
L 282.033 124.657656 
L 300.033 130.657656 
L 282.033 136.657656 
L 291.033 139.657656 
L 291.033 148.657656 
" clip-path="url(#pab5e365ff6)" style="fill: none; stroke: #000000; stroke-width: 2; stroke-linecap: round"/>
   </g>
   <g id="line2d_24">
    <path d="M 291.033 148.657656 
L 291.033 163.057656 
L 282.033 163.057656 
L 300.033 163.057656 
M 284.733 167.377656 
L 297.333 167.377656 
M 289.233 171.697656 
L 292.833 171.697656 
" clip-path="url(#pab5e365ff6)" style="fill: none; stroke: #000000; stroke-width: 2; stroke-linecap: round"/>
   </g>
   <g id="line2d_25">
    <path d="M 165.033 94.657656 
L 165.033 116.377656 
L 165.033 138.097656 
" clip-path="url(#pab5e365ff6)" style="fill: none; stroke: #000000; stroke-width: 2; stroke-linecap: round"/>
   </g>
   <g id="line2d_26">
    <path d="M 291.033 94.657656 
L 300.033 94.657656 
L 309.033 94.657656 
" clip-path="url(#pab5e365ff6)" style="fill: none; stroke: #000000; stroke-width: 2; stroke-linecap: round"/>
   </g>
   <g id="text_1">
    <!-- $V_{DD2}$ -->
    <g transform="translate(151.033 13.098047) scale(0.125 -0.125)">
     <defs>
      <path id="DejaVuSans-Oblique-56" d="M 1319 0 
L 500 4666 
L 1119 4666 
L 1797 653 
L 4063 4666 
L 4750 4666 
L 2053 0 
L 1319 0 
z
" transform="scale(0.015625)"/>
      <path id="DejaVuSans-Oblique-44" d="M 1081 4666 
L 2438 4666 
Q 3519 4666 4070 4208 
Q 4622 3750 4622 2847 
Q 4622 2250 4412 1698 
Q 4203 1147 3834 769 
Q 3463 381 2891 190 
Q 2319 0 1538 0 
L 172 0 
L 1081 4666 
z
M 1613 4147 
L 909 519 
L 1734 519 
Q 2794 519 3375 1128 
Q 3956 1738 3956 2847 
Q 3956 3519 3581 3833 
Q 3206 4147 2406 4147 
L 1613 4147 
z
" transform="scale(0.015625)"/>
      <path id="DejaVuSans-32" d="M 1228 531 
L 3431 531 
L 3431 0 
L 469 0 
L 469 531 
Q 828 903 1448 1529 
Q 2069 2156 2228 2338 
Q 2531 2678 2651 2914 
Q 2772 3150 2772 3378 
Q 2772 3750 2511 3984 
Q 2250 4219 1831 4219 
Q 1534 4219 1204 4116 
Q 875 4013 500 3803 
L 500 4441 
Q 881 4594 1212 4672 
Q 1544 4750 1819 4750 
Q 2544 4750 2975 4387 
Q 3406 4025 3406 3419 
Q 3406 3131 3298 2873 
Q 3191 2616 2906 2266 
Q 2828 2175 2409 1742 
Q 1991 1309 1228 531 
z
" transform="scale(0.015625)"/>
     </defs>
     <use xlink:href="#DejaVuSans-Oblique-56" transform="translate(0 0.09375)"/>
     <use xlink:href="#DejaVuSans-Oblique-44" transform="translate(68.408203 -16.3125) scale(0.7)"/>
     <use xlink:href="#DejaVuSans-Oblique-44" transform="translate(122.30957 -16.3125) scale(0.7)"/>
     <use xlink:href="#DejaVuSans-32" transform="translate(176.210938 -16.3125) scale(0.7)"/>
    </g>
   </g>
   <g id="text_2">
    <!-- $C_{in}$ -->
    <g transform="translate(66.4105 97.578047) scale(0.125 -0.125)">
     <defs>
      <path id="DejaVuSans-Oblique-43" d="M 4447 4306 
L 4319 3641 
Q 4019 3944 3683 4091 
Q 3347 4238 2956 4238 
Q 2422 4238 2017 3981 
Q 1613 3725 1319 3200 
Q 1131 2863 1032 2486 
Q 934 2109 934 1728 
Q 934 1091 1264 756 
Q 1594 422 2222 422 
Q 2656 422 3056 561 
Q 3456 700 3834 978 
L 3688 231 
Q 3316 72 2936 -9 
Q 2556 -91 2175 -91 
Q 1278 -91 773 396 
Q 269 884 269 1753 
Q 269 2309 461 2846 
Q 653 3384 1013 3828 
Q 1394 4300 1883 4525 
Q 2372 4750 3022 4750 
Q 3422 4750 3780 4639 
Q 4138 4528 4447 4306 
z
" transform="scale(0.015625)"/>
      <path id="DejaVuSans-Oblique-69" d="M 1172 4863 
L 1747 4863 
L 1606 4134 
L 1031 4134 
L 1172 4863 
z
M 909 3500 
L 1484 3500 
L 800 0 
L 225 0 
L 909 3500 
z
" transform="scale(0.015625)"/>
      <path id="DejaVuSans-Oblique-6e" d="M 3566 2113 
L 3156 0 
L 2578 0 
L 2988 2091 
Q 3016 2238 3031 2350 
Q 3047 2463 3047 2528 
Q 3047 2791 2881 2937 
Q 2716 3084 2419 3084 
Q 1956 3084 1622 2776 
Q 1288 2469 1184 1941 
L 800 0 
L 225 0 
L 903 3500 
L 1478 3500 
L 1363 2950 
Q 1603 3253 1940 3418 
Q 2278 3584 2650 3584 
Q 3113 3584 3367 3334 
Q 3622 3084 3622 2631 
Q 3622 2519 3608 2391 
Q 3594 2263 3566 2113 
z
" transform="scale(0.015625)"/>
     </defs>
     <use xlink:href="#DejaVuSans-Oblique-43" transform="translate(0 0.78125)"/>
     <use xlink:href="#DejaVuSans-Oblique-69" transform="translate(69.824219 -15.625) scale(0.7)"/>
     <use xlink:href="#DejaVuSans-Oblique-6e" transform="translate(89.272461 -15.625) scale(0.7)"/>
    </g>
   </g>
   <g id="text_3">
    <!-- $C_{out}$ -->
    <g transform="translate(225.283 79.458047) scale(0.125 -0.125)">
     <defs>
      <path id="DejaVuSans-Oblique-6f" d="M 1625 -91 
Q 1009 -91 651 289 
Q 294 669 294 1325 
Q 294 1706 417 2101 
Q 541 2497 738 2766 
Q 1047 3184 1428 3384 
Q 1809 3584 2291 3584 
Q 2888 3584 3255 3212 
Q 3622 2841 3622 2241 
Q 3622 1825 3500 1412 
Q 3378 1000 3181 728 
Q 2875 309 2494 109 
Q 2113 -91 1625 -91 
z
M 891 1344 
Q 891 869 1089 633 
Q 1288 397 1691 397 
Q 2269 397 2648 901 
Q 3028 1406 3028 2181 
Q 3028 2634 2825 2865 
Q 2622 3097 2228 3097 
Q 1903 3097 1650 2945 
Q 1397 2794 1197 2484 
Q 1050 2253 970 1956 
Q 891 1659 891 1344 
z
" transform="scale(0.015625)"/>
      <path id="DejaVuSans-Oblique-75" d="M 428 1388 
L 838 3500 
L 1416 3500 
L 1006 1409 
Q 975 1256 961 1147 
Q 947 1038 947 966 
Q 947 700 1109 554 
Q 1272 409 1569 409 
Q 2031 409 2368 721 
Q 2706 1034 2809 1563 
L 3194 3500 
L 3769 3500 
L 3091 0 
L 2516 0 
L 2631 550 
Q 2388 244 2052 76 
Q 1716 -91 1338 -91 
Q 878 -91 622 161 
Q 366 413 366 863 
Q 366 956 381 1097 
Q 397 1238 428 1388 
z
" transform="scale(0.015625)"/>
      <path id="DejaVuSans-Oblique-74" d="M 2706 3500 
L 2619 3053 
L 1472 3053 
L 1100 1153 
Q 1081 1047 1072 975 
Q 1063 903 1063 863 
Q 1063 663 1183 572 
Q 1303 481 1569 481 
L 2150 481 
L 2053 0 
L 1503 0 
Q 991 0 739 200 
Q 488 400 488 806 
Q 488 878 497 964 
Q 506 1050 525 1153 
L 897 3053 
L 409 3053 
L 500 3500 
L 978 3500 
L 1172 4494 
L 1747 4494 
L 1556 3500 
L 2706 3500 
z
" transform="scale(0.015625)"/>
     </defs>
     <use xlink:href="#DejaVuSans-Oblique-43" transform="translate(0 0.78125)"/>
     <use xlink:href="#DejaVuSans-Oblique-6f" transform="translate(69.824219 -15.625) scale(0.7)"/>
     <use xlink:href="#DejaVuSans-Oblique-75" transform="translate(112.651367 -15.625) scale(0.7)"/>
     <use xlink:href="#DejaVuSans-Oblique-74" transform="translate(157.016602 -15.625) scale(0.7)"/>
    </g>
   </g>
   <g id="text_4">
    <!-- $R_L$ -->
    <g transform="translate(264.433 125.106875) scale(0.125 -0.125)">
     <defs>
      <path id="DejaVuSans-Oblique-52" d="M 1613 4147 
L 1294 2491 
L 2106 2491 
Q 2584 2491 2879 2755 
Q 3175 3019 3175 3444 
Q 3175 3784 2976 3965 
Q 2778 4147 2406 4147 
L 1613 4147 
z
M 2772 2241 
Q 2972 2194 3105 2009 
Q 3238 1825 3413 1275 
L 3809 0 
L 3144 0 
L 2778 1197 
Q 2638 1659 2453 1815 
Q 2269 1972 1888 1972 
L 1191 1972 
L 806 0 
L 172 0 
L 1081 4666 
L 2503 4666 
Q 3150 4666 3495 4373 
Q 3841 4081 3841 3531 
Q 3841 3044 3547 2687 
Q 3253 2331 2772 2241 
z
" transform="scale(0.015625)"/>
      <path id="DejaVuSans-Oblique-4c" d="M 1075 4666 
L 1709 4666 
L 909 525 
L 3181 525 
L 3078 0 
L 172 0 
L 1075 4666 
z
" transform="scale(0.015625)"/>
     </defs>
     <use xlink:href="#DejaVuSans-Oblique-52" transform="translate(0 0.09375)"/>
     <use xlink:href="#DejaVuSans-Oblique-4c" transform="translate(69.482422 -16.3125) scale(0.7)"/>
    </g>
   </g>
   <g id="patch_6">
    <path d="M 137.973 115.477656 
C 138.689048 115.477656 139.375866 115.193167 139.882188 114.686845 
C 140.388511 114.180522 140.673 113.493705 140.673 112.777656 
C 140.673 112.061608 140.388511 111.374791 139.882188 110.868468 
C 139.375866 110.362145 138.689048 110.077656 137.973 110.077656 
C 137.256952 110.077656 136.570134 110.362145 136.063812 110.868468 
C 135.557489 111.374791 135.273 112.061608 135.273 112.777656 
C 135.273 113.493705 135.557489 114.180522 136.063812 114.686845 
C 136.570134 115.193167 137.256952 115.477656 137.973 115.477656 
z
" clip-path="url(#pab5e365ff6)" style="stroke: #000000; stroke-width: 2; stroke-linejoin: miter"/>
   </g>
   <g id="patch_7">
    <path d="M 20.973 115.477656 
C 21.689048 115.477656 22.375866 115.193167 22.882188 114.686845 
C 23.388511 114.180522 23.673 113.493705 23.673 112.777656 
C 23.673 112.061608 23.388511 111.374791 22.882188 110.868468 
C 22.375866 110.362145 21.689048 110.077656 20.973 110.077656 
C 20.256952 110.077656 19.570134 110.362145 19.063812 110.868468 
C 18.557489 111.374791 18.273 112.061608 18.273 112.777656 
C 18.273 113.493705 18.557489 114.180522 19.063812 114.686845 
C 19.570134 115.193167 20.256952 115.477656 20.973 115.477656 
z
" clip-path="url(#pab5e365ff6)" style="fill: #ffffff; stroke: #000000; stroke-width: 2; stroke-linejoin: miter"/>
   </g>
   <g id="text_5">
    <!-- $v_{in}$ -->
    <g transform="translate(13.098 103.878047) scale(0.125 -0.125)">
     <defs>
      <path id="DejaVuSans-Oblique-76" d="M 459 3500 
L 1069 3500 
L 1581 525 
L 3256 3500 
L 3866 3500 
L 1875 0 
L 1100 0 
L 459 3500 
z
" transform="scale(0.015625)"/>
     </defs>
     <use xlink:href="#DejaVuSans-Oblique-76" transform="translate(0 0.3125)"/>
     <use xlink:href="#DejaVuSans-Oblique-69" transform="translate(59.179688 -16.09375) scale(0.7)"/>
     <use xlink:href="#DejaVuSans-Oblique-6e" transform="translate(78.62793 -16.09375) scale(0.7)"/>
    </g>
   </g>
   <g id="patch_8">
    <path d="M 165.033 97.357656 
C 165.749048 97.357656 166.435866 97.073167 166.942188 96.566845 
C 167.448511 96.060522 167.733 95.373705 167.733 94.657656 
C 167.733 93.941608 167.448511 93.254791 166.942188 92.748468 
C 166.435866 92.242145 165.749048 91.957656 165.033 91.957656 
C 164.316952 91.957656 163.630134 92.242145 163.123812 92.748468 
C 162.617489 93.254791 162.333 93.941608 162.333 94.657656 
C 162.333 95.373705 162.617489 96.060522 163.123812 96.566845 
C 163.630134 97.073167 164.316952 97.357656 165.033 97.357656 
z
" clip-path="url(#pab5e365ff6)" style="stroke: #000000; stroke-width: 2; stroke-linejoin: miter"/>
   </g>
   <g id="patch_9">
    <path d="M 309.033 97.357656 
C 309.749048 97.357656 310.435866 97.073167 310.942188 96.566845 
C 311.448511 96.060522 311.733 95.373705 311.733 94.657656 
C 311.733 93.941608 311.448511 93.254791 310.942188 92.748468 
C 310.435866 92.242145 309.749048 91.957656 309.033 91.957656 
C 308.316952 91.957656 307.630134 92.242145 307.123812 92.748468 
C 306.617489 93.254791 306.333 93.941608 306.333 94.657656 
C 306.333 95.373705 306.617489 96.060522 307.123812 96.566845 
C 307.630134 97.073167 308.316952 97.357656 309.033 97.357656 
z
" clip-path="url(#pab5e365ff6)" style="fill: #ffffff; stroke: #000000; stroke-width: 2; stroke-linejoin: miter"/>
   </g>
   <g id="text_6">
    <!-- $v_{out}$ -->
    <g transform="translate(297.9705 85.758047) scale(0.125 -0.125)">
     <use xlink:href="#DejaVuSans-Oblique-76" transform="translate(0 0.3125)"/>
     <use xlink:href="#DejaVuSans-Oblique-6f" transform="translate(59.179688 -16.09375) scale(0.7)"/>
     <use xlink:href="#DejaVuSans-Oblique-75" transform="translate(102.006836 -16.09375) scale(0.7)"/>
     <use xlink:href="#DejaVuSans-Oblique-74" transform="translate(146.37207 -16.09375) scale(0.7)"/>
    </g>
   </g>
  </g>
 </g>
 <defs>
  <clipPath id="pab5e365ff6">
   <rect x="3.6" y="9.697656" width="322.806" height="211.2"/>
  </clipPath>
 </defs>
</svg>