<?xml version="1.0" encoding="utf-8" standalone="no"?>
<!DOCTYPE svg PUBLIC "-//W3C//DTD SVG 1.1//EN"
  "http://www.w3.org/Graphics/SVG/1.1/DTD/svg11.dtd">
<svg xmlns:xlink="http://www.w3.org/1999/xlink" width="467.91pt" height="128.97pt" viewBox="0 0 467.91 128.97" xmlns="http://www.w3.org/2000/svg" version="1.1">
 <metadata>
  <rdf:RDF xmlns:dc="http://purl.org/dc/elements/1.1/" xmlns:cc="http://creativecommons.org/ns#" xmlns:rdf="http://www.w3.org/1999/02/22-rdf-syntax-ns#">
   <cc:Work>
    <dc:type rdf:resource="http://purl.org/dc/dcmitype/StillImage"/>
    <dc:date>2024-02-10T16:52:01.531752</dc:date>
    <dc:format>image/svg+xml</dc:format>
    <dc:creator>
     <cc:Agent>
      <dc:title>Matplotlib v3.8.2, https://matplotlib.org/</dc:title>
     </cc:Agent>
    </dc:creator>
   </cc:Work>
  </rdf:RDF>
 </metadata>
 <defs>
  <style type="text/css">*{stroke-linejoin: round; stroke-linecap: butt}</style>
 </defs>
 <g id="figure_1">
  <g id="patch_1">
   <path d="M 0 128.97 
L 467.91 128.97 
L 467.91 0 
L 0 0 
z
" style="fill: #ffffff"/>
  </g>
  <g id="axes_1">
   <g id="patch_2">
    <path d="M 42.276314 106.933617 
C 46.36604 107.983042 50.778172 108.353079 55.130355 108.011661 
C 59.482537 107.670243 63.645309 106.627526 67.257923 104.973872 
C 70.870537 103.320218 73.825532 101.104817 75.866828 98.519656 
C 77.908124 95.934496 78.975 93.056473 78.975 90.135 
C 78.975 87.213527 77.908124 84.335504 75.866828 81.750344 
C 73.825532 79.165183 70.870537 76.949782 67.257923 75.296128 
C 63.645309 73.642474 59.482537 72.599757 55.130355 72.258339 
C 50.778172 71.916921 46.36604 72.286958 42.276314 73.336383 
" clip-path="url(#p909d91bebd)" style="fill: none; stroke: #ff0000; stroke-width: 2; stroke-linejoin: miter"/>
   </g>
   <g id="patch_3">
    <path d="M 33.541033 103.571406 
L 42.91021 104.284509 
L 41.946807 106.787503 
L 42.282779 106.916819 
L 42.269848 106.950416 
L 41.933876 106.8211 
L 40.970473 109.324094 
z
" clip-path="url(#p909d91bebd)" style="fill: #ff0000; stroke: #ff0000; stroke-linejoin: miter"/>
   </g>
   <g id="patch_4">
    <path d="M 191.475 45.135 
L 191.475 9.135 
L 299.475 9.135 
L 299.475 81.135 
L 191.475 81.135 
z
" clip-path="url(#p909d91bebd)" style="fill: #add8e6; stroke: #add8e6; stroke-linejoin: miter"/>
   </g>
   <g id="patch_5">
    <path d="M 335.475 45.135 
L 335.475 9.135 
L 443.475 9.135 
L 443.475 81.135 
L 335.475 81.135 
z
" clip-path="url(#p909d91bebd)" style="fill: #add8e6; stroke: #add8e6; stroke-linejoin: miter"/>
   </g>
   <g id="line2d_1">
    <path d="M 29.475 63.135 
L 47.475 63.135 
L 65.475 63.135 
" clip-path="url(#p909d91bebd)" style="fill: none; stroke: #000000; stroke-width: 2; stroke-linecap: round"/>
   </g>
   <g id="line2d_2">
    <path d="M 83.475 99.135 
L 155.475 99.135 
L 155.475 27.135 
L 83.475 27.135 
L 83.475 99.135 
" clip-path="url(#p909d91bebd)" style="fill: none; stroke: #000000; stroke-width: 2; stroke-linecap: round"/>
   </g>
   <g id="line2d_3">
    <path d="M 83.475 63.135 
L 65.475 63.135 
" clip-path="url(#p909d91bebd)" style="fill: none; stroke: #000000; stroke-width: 2; stroke-linecap: round"/>
   </g>
   <g id="line2d_4">
    <path d="M 119.475 99.135 
L 119.475 117.135 
" clip-path="url(#p909d91bebd)" style="fill: none; stroke: #000000; stroke-width: 2; stroke-linecap: round"/>
   </g>
   <g id="line2d_5">
    <path d="M 119.475 117.135 
L 74.475 117.135 
L 29.475 117.135 
" clip-path="url(#p909d91bebd)" style="fill: none; stroke: #000000; stroke-width: 2; stroke-linecap: round"/>
   </g>
   <g id="line2d_6">
    <path d="M 191.475 45.135 
L 191.475 9.135 
L 299.475 9.135 
L 299.475 81.135 
L 191.475 81.135 
L 191.475 45.135 
" clip-path="url(#p909d91bebd)" style="fill: none; stroke: #0000ff; stroke-width: 2; stroke-linecap: round"/>
   </g>
   <g id="line2d_7">
    <path d="M 335.475 45.135 
L 335.475 9.135 
L 443.475 9.135 
L 443.475 81.135 
L 335.475 81.135 
L 335.475 45.135 
" clip-path="url(#p909d91bebd)" style="fill: none; stroke: #0000ff; stroke-width: 2; stroke-linecap: round"/>
   </g>
   <g id="text_1">
    <!-- 2 terminal -->
    <g transform="translate(92.535937 56.553492) scale(0.105 -0.105)">
     <defs>
      <path id="DejaVuSans-32" d="M 1228 531 
L 3431 531 
L 3431 0 
L 469 0 
L 469 531 
Q 828 903 1448 1529 
Q 2069 2156 2228 2338 
Q 2531 2678 2651 2914 
Q 2772 3150 2772 3378 
Q 2772 3750 2511 3984 
Q 2250 4219 1831 4219 
Q 1534 4219 1204 4116 
Q 875 4013 500 3803 
L 500 4441 
Q 881 4594 1212 4672 
Q 1544 4750 1819 4750 
Q 2544 4750 2975 4387 
Q 3406 4025 3406 3419 
Q 3406 3131 3298 2873 
Q 3191 2616 2906 2266 
Q 2828 2175 2409 1742 
Q 1991 1309 1228 531 
z
" transform="scale(0.015625)"/>
      <path id="DejaVuSans-20" transform="scale(0.015625)"/>
      <path id="DejaVuSans-74" d="M 1172 4494 
L 1172 3500 
L 2356 3500 
L 2356 3053 
L 1172 3053 
L 1172 1153 
Q 1172 725 1289 603 
Q 1406 481 1766 481 
L 2356 481 
L 2356 0 
L 1766 0 
Q 1100 0 847 248 
Q 594 497 594 1153 
L 594 3053 
L 172 3053 
L 172 3500 
L 594 3500 
L 594 4494 
L 1172 4494 
z
" transform="scale(0.015625)"/>
      <path id="DejaVuSans-65" d="M 3597 1894 
L 3597 1613 
L 953 1613 
Q 991 1019 1311 708 
Q 1631 397 2203 397 
Q 2534 397 2845 478 
Q 3156 559 3463 722 
L 3463 178 
Q 3153 47 2828 -22 
Q 2503 -91 2169 -91 
Q 1331 -91 842 396 
Q 353 884 353 1716 
Q 353 2575 817 3079 
Q 1281 3584 2069 3584 
Q 2775 3584 3186 3129 
Q 3597 2675 3597 1894 
z
M 3022 2063 
Q 3016 2534 2758 2815 
Q 2500 3097 2075 3097 
Q 1594 3097 1305 2825 
Q 1016 2553 972 2059 
L 3022 2063 
z
" transform="scale(0.015625)"/>
      <path id="DejaVuSans-72" d="M 2631 2963 
Q 2534 3019 2420 3045 
Q 2306 3072 2169 3072 
Q 1681 3072 1420 2755 
Q 1159 2438 1159 1844 
L 1159 0 
L 581 0 
L 581 3500 
L 1159 3500 
L 1159 2956 
Q 1341 3275 1631 3429 
Q 1922 3584 2338 3584 
Q 2397 3584 2469 3576 
Q 2541 3569 2628 3553 
L 2631 2963 
z
" transform="scale(0.015625)"/>
      <path id="DejaVuSans-6d" d="M 3328 2828 
Q 3544 3216 3844 3400 
Q 4144 3584 4550 3584 
Q 5097 3584 5394 3201 
Q 5691 2819 5691 2113 
L 5691 0 
L 5113 0 
L 5113 2094 
Q 5113 2597 4934 2840 
Q 4756 3084 4391 3084 
Q 3944 3084 3684 2787 
Q 3425 2491 3425 1978 
L 3425 0 
L 2847 0 
L 2847 2094 
Q 2847 2600 2669 2842 
Q 2491 3084 2119 3084 
Q 1678 3084 1418 2786 
Q 1159 2488 1159 1978 
L 1159 0 
L 581 0 
L 581 3500 
L 1159 3500 
L 1159 2956 
Q 1356 3278 1631 3431 
Q 1906 3584 2284 3584 
Q 2666 3584 2933 3390 
Q 3200 3197 3328 2828 
z
" transform="scale(0.015625)"/>
      <path id="DejaVuSans-69" d="M 603 3500 
L 1178 3500 
L 1178 0 
L 603 0 
L 603 3500 
z
M 603 4863 
L 1178 4863 
L 1178 4134 
L 603 4134 
L 603 4863 
z
" transform="scale(0.015625)"/>
      <path id="DejaVuSans-6e" d="M 3513 2113 
L 3513 0 
L 2938 0 
L 2938 2094 
Q 2938 2591 2744 2837 
Q 2550 3084 2163 3084 
Q 1697 3084 1428 2787 
Q 1159 2491 1159 1978 
L 1159 0 
L 581 0 
L 581 3500 
L 1159 3500 
L 1159 2956 
Q 1366 3272 1645 3428 
Q 1925 3584 2291 3584 
Q 2894 3584 3203 3211 
Q 3513 2838 3513 2113 
z
" transform="scale(0.015625)"/>
      <path id="DejaVuSans-61" d="M 2194 1759 
Q 1497 1759 1228 1600 
Q 959 1441 959 1056 
Q 959 750 1161 570 
Q 1363 391 1709 391 
Q 2188 391 2477 730 
Q 2766 1069 2766 1631 
L 2766 1759 
L 2194 1759 
z
M 3341 1997 
L 3341 0 
L 2766 0 
L 2766 531 
Q 2569 213 2275 61 
Q 1981 -91 1556 -91 
Q 1019 -91 701 211 
Q 384 513 384 1019 
Q 384 1609 779 1909 
Q 1175 2209 1959 2209 
L 2766 2209 
L 2766 2266 
Q 2766 2663 2505 2880 
Q 2244 3097 1772 3097 
Q 1472 3097 1187 3025 
Q 903 2953 641 2809 
L 641 3341 
Q 956 3463 1253 3523 
Q 1550 3584 1831 3584 
Q 2591 3584 2966 3190 
Q 3341 2797 3341 1997 
z
" transform="scale(0.015625)"/>
      <path id="DejaVuSans-6c" d="M 603 4863 
L 1178 4863 
L 1178 0 
L 603 0 
L 603 4863 
z
" transform="scale(0.015625)"/>
     </defs>
     <use xlink:href="#DejaVuSans-32"/>
     <use xlink:href="#DejaVuSans-20" x="63.623047"/>
     <use xlink:href="#DejaVuSans-74" x="95.410156"/>
     <use xlink:href="#DejaVuSans-65" x="134.619141"/>
     <use xlink:href="#DejaVuSans-72" x="196.142578"/>
     <use xlink:href="#DejaVuSans-6d" x="235.505859"/>
     <use xlink:href="#DejaVuSans-69" x="332.917969"/>
     <use xlink:href="#DejaVuSans-6e" x="360.701172"/>
     <use xlink:href="#DejaVuSans-61" x="424.080078"/>
     <use xlink:href="#DejaVuSans-6c" x="485.359375"/>
    </g>
    <!--  component -->
    <g transform="translate(88.10543 68.311195) scale(0.105 -0.105)">
     <defs>
      <path id="DejaVuSans-63" d="M 3122 3366 
L 3122 2828 
Q 2878 2963 2633 3030 
Q 2388 3097 2138 3097 
Q 1578 3097 1268 2742 
Q 959 2388 959 1747 
Q 959 1106 1268 751 
Q 1578 397 2138 397 
Q 2388 397 2633 464 
Q 2878 531 3122 666 
L 3122 134 
Q 2881 22 2623 -34 
Q 2366 -91 2075 -91 
Q 1284 -91 818 406 
Q 353 903 353 1747 
Q 353 2603 823 3093 
Q 1294 3584 2113 3584 
Q 2378 3584 2631 3529 
Q 2884 3475 3122 3366 
z
" transform="scale(0.015625)"/>
      <path id="DejaVuSans-6f" d="M 1959 3097 
Q 1497 3097 1228 2736 
Q 959 2375 959 1747 
Q 959 1119 1226 758 
Q 1494 397 1959 397 
Q 2419 397 2687 759 
Q 2956 1122 2956 1747 
Q 2956 2369 2687 2733 
Q 2419 3097 1959 3097 
z
M 1959 3584 
Q 2709 3584 3137 3096 
Q 3566 2609 3566 1747 
Q 3566 888 3137 398 
Q 2709 -91 1959 -91 
Q 1206 -91 779 398 
Q 353 888 353 1747 
Q 353 2609 779 3096 
Q 1206 3584 1959 3584 
z
" transform="scale(0.015625)"/>
      <path id="DejaVuSans-70" d="M 1159 525 
L 1159 -1331 
L 581 -1331 
L 581 3500 
L 1159 3500 
L 1159 2969 
Q 1341 3281 1617 3432 
Q 1894 3584 2278 3584 
Q 2916 3584 3314 3078 
Q 3713 2572 3713 1747 
Q 3713 922 3314 415 
Q 2916 -91 2278 -91 
Q 1894 -91 1617 61 
Q 1341 213 1159 525 
z
M 3116 1747 
Q 3116 2381 2855 2742 
Q 2594 3103 2138 3103 
Q 1681 3103 1420 2742 
Q 1159 2381 1159 1747 
Q 1159 1113 1420 752 
Q 1681 391 2138 391 
Q 2594 391 2855 752 
Q 3116 1113 3116 1747 
z
" transform="scale(0.015625)"/>
     </defs>
     <use xlink:href="#DejaVuSans-20"/>
     <use xlink:href="#DejaVuSans-63" x="31.787109"/>
     <use xlink:href="#DejaVuSans-6f" x="86.767578"/>
     <use xlink:href="#DejaVuSans-6d" x="147.949219"/>
     <use xlink:href="#DejaVuSans-70" x="245.361328"/>
     <use xlink:href="#DejaVuSans-6f" x="308.837891"/>
     <use xlink:href="#DejaVuSans-6e" x="370.019531"/>
     <use xlink:href="#DejaVuSans-65" x="433.398438"/>
     <use xlink:href="#DejaVuSans-6e" x="494.921875"/>
     <use xlink:href="#DejaVuSans-74" x="558.300781"/>
    </g>
   </g>
   <g id="text_2">
    <!-- $I_{in}$ -->
    <g style="fill: #ff0000" transform="translate(45.9125 93.584219) scale(0.125 -0.125)">
     <defs>
      <path id="DejaVuSans-Oblique-49" d="M 1081 4666 
L 1716 4666 
L 806 0 
L 172 0 
L 1081 4666 
z
" transform="scale(0.015625)"/>
      <path id="DejaVuSans-Oblique-69" d="M 1172 4863 
L 1747 4863 
L 1606 4134 
L 1031 4134 
L 1172 4863 
z
M 909 3500 
L 1484 3500 
L 800 0 
L 225 0 
L 909 3500 
z
" transform="scale(0.015625)"/>
      <path id="DejaVuSans-Oblique-6e" d="M 3566 2113 
L 3156 0 
L 2578 0 
L 2988 2091 
Q 3016 2238 3031 2350 
Q 3047 2463 3047 2528 
Q 3047 2791 2881 2937 
Q 2716 3084 2419 3084 
Q 1956 3084 1622 2776 
Q 1288 2469 1184 1941 
L 800 0 
L 225 0 
L 903 3500 
L 1478 3500 
L 1363 2950 
Q 1603 3253 1940 3418 
Q 2278 3584 2650 3584 
Q 3113 3584 3367 3334 
Q 3622 3084 3622 2631 
Q 3622 2519 3608 2391 
Q 3594 2263 3566 2113 
z
" transform="scale(0.015625)"/>
     </defs>
     <use xlink:href="#DejaVuSans-Oblique-49" transform="translate(0 0.09375)"/>
     <use xlink:href="#DejaVuSans-Oblique-69" transform="translate(29.492188 -16.3125) scale(0.7)"/>
     <use xlink:href="#DejaVuSans-Oblique-6e" transform="translate(48.94043 -16.3125) scale(0.7)"/>
    </g>
   </g>
   <g id="text_3">
    <!-- - -->
    <g style="fill: #ff0000" transform="translate(9.220117 107.084219) scale(0.125 -0.125)">
     <defs>
      <path id="DejaVuSans-2d" d="M 313 2009 
L 1997 2009 
L 1997 1497 
L 313 1497 
L 313 2009 
z
" transform="scale(0.015625)"/>
     </defs>
     <use xlink:href="#DejaVuSans-2d"/>
    </g>
   </g>
   <g id="text_4">
    <!-- $v_{in}$ -->
    <g style="fill: #ff0000" transform="translate(3.6 93.584219) scale(0.125 -0.125)">
     <defs>
      <path id="DejaVuSans-Oblique-76" d="M 459 3500 
L 1069 3500 
L 1581 525 
L 3256 3500 
L 3866 3500 
L 1875 0 
L 1100 0 
L 459 3500 
z
" transform="scale(0.015625)"/>
     </defs>
     <use xlink:href="#DejaVuSans-Oblique-76" transform="translate(0 0.3125)"/>
     <use xlink:href="#DejaVuSans-Oblique-69" transform="translate(59.179688 -16.09375) scale(0.7)"/>
     <use xlink:href="#DejaVuSans-Oblique-6e" transform="translate(78.62793 -16.09375) scale(0.7)"/>
    </g>
   </g>
   <g id="text_5">
    <!-- $+$ -->
    <g style="fill: #ff0000" transform="translate(6.225 80.084219) scale(0.125 -0.125)">
     <defs>
      <path id="DejaVuSans-2b" d="M 2944 4013 
L 2944 2272 
L 4684 2272 
L 4684 1741 
L 2944 1741 
L 2944 0 
L 2419 0 
L 2419 1741 
L 678 1741 
L 678 2272 
L 2419 2272 
L 2419 4013 
L 2944 4013 
z
" transform="scale(0.015625)"/>
     </defs>
     <use xlink:href="#DejaVuSans-2b" transform="translate(0 0.296875)"/>
    </g>
   </g>
   <g id="text_6">
    <!-- $g_o=\frac{\partial I_{uit}}{\partial v_{in}}$ -->
    <g style="fill: #0000ff" transform="translate(215.0325 50.25) scale(0.165 -0.165)">
     <defs>
      <path id="DejaVuSans-Oblique-67" d="M 3816 3500 
L 3219 434 
Q 3047 -456 2561 -893 
Q 2075 -1331 1253 -1331 
Q 950 -1331 690 -1286 
Q 431 -1241 206 -1147 
L 313 -588 
Q 525 -725 762 -790 
Q 1000 -856 1269 -856 
Q 1816 -856 2167 -557 
Q 2519 -259 2631 300 
L 2681 563 
Q 2441 288 2122 144 
Q 1803 0 1434 0 
Q 903 0 598 351 
Q 294 703 294 1319 
Q 294 1803 478 2267 
Q 663 2731 997 3091 
Q 1219 3328 1514 3456 
Q 1809 3584 2131 3584 
Q 2484 3584 2746 3420 
Q 3009 3256 3138 2956 
L 3238 3500 
L 3816 3500 
z
M 2950 2216 
Q 2950 2641 2750 2872 
Q 2550 3103 2181 3103 
Q 1953 3103 1747 3012 
Q 1541 2922 1394 2759 
Q 1156 2491 1023 2127 
Q 891 1763 891 1375 
Q 891 944 1092 712 
Q 1294 481 1672 481 
Q 2219 481 2584 976 
Q 2950 1472 2950 2216 
z
" transform="scale(0.015625)"/>
      <path id="DejaVuSans-Oblique-6f" d="M 1625 -91 
Q 1009 -91 651 289 
Q 294 669 294 1325 
Q 294 1706 417 2101 
Q 541 2497 738 2766 
Q 1047 3184 1428 3384 
Q 1809 3584 2291 3584 
Q 2888 3584 3255 3212 
Q 3622 2841 3622 2241 
Q 3622 1825 3500 1412 
Q 3378 1000 3181 728 
Q 2875 309 2494 109 
Q 2113 -91 1625 -91 
z
M 891 1344 
Q 891 869 1089 633 
Q 1288 397 1691 397 
Q 2269 397 2648 901 
Q 3028 1406 3028 2181 
Q 3028 2634 2825 2865 
Q 2622 3097 2228 3097 
Q 1903 3097 1650 2945 
Q 1397 2794 1197 2484 
Q 1050 2253 970 1956 
Q 891 1659 891 1344 
z
" transform="scale(0.015625)"/>
      <path id="DejaVuSans-3d" d="M 678 2906 
L 4684 2906 
L 4684 2381 
L 678 2381 
L 678 2906 
z
M 678 1631 
L 4684 1631 
L 4684 1100 
L 678 1100 
L 678 1631 
z
" transform="scale(0.015625)"/>
      <path id="DejaVuSans-2202" d="M 1366 -91 
Q 925 -91 638 175 
Q 297 491 297 1063 
Q 297 1656 597 2119 
Q 906 2594 1463 2594 
Q 1828 2594 2116 2366 
Q 2284 2231 2400 2006 
Q 2441 2259 2441 2547 
Q 2441 2969 2341 3213 
Q 2119 3753 1531 3753 
Q 1309 3753 966 3616 
L 966 4141 
Q 1328 4238 1653 4238 
Q 2491 4238 2847 3469 
Q 3013 3106 3013 2566 
Q 3013 2213 2934 1803 
Q 2738 778 2228 291 
Q 1828 -91 1366 -91 
z
M 831 969 
Q 831 656 969 488 
Q 1116 309 1341 309 
Q 1541 309 1700 450 
Q 1925 644 2091 959 
Q 2228 1219 2297 1497 
Q 2019 2169 1538 2169 
Q 1125 2169 944 1625 
Q 831 1288 831 969 
z
" transform="scale(0.015625)"/>
      <path id="DejaVuSans-Oblique-75" d="M 428 1388 
L 838 3500 
L 1416 3500 
L 1006 1409 
Q 975 1256 961 1147 
Q 947 1038 947 966 
Q 947 700 1109 554 
Q 1272 409 1569 409 
Q 2031 409 2368 721 
Q 2706 1034 2809 1563 
L 3194 3500 
L 3769 3500 
L 3091 0 
L 2516 0 
L 2631 550 
Q 2388 244 2052 76 
Q 1716 -91 1338 -91 
Q 878 -91 622 161 
Q 366 413 366 863 
Q 366 956 381 1097 
Q 397 1238 428 1388 
z
" transform="scale(0.015625)"/>
      <path id="DejaVuSans-Oblique-74" d="M 2706 3500 
L 2619 3053 
L 1472 3053 
L 1100 1153 
Q 1081 1047 1072 975 
Q 1063 903 1063 863 
Q 1063 663 1183 572 
Q 1303 481 1569 481 
L 2150 481 
L 2053 0 
L 1503 0 
Q 991 0 739 200 
Q 488 400 488 806 
Q 488 878 497 964 
Q 506 1050 525 1153 
L 897 3053 
L 409 3053 
L 500 3500 
L 978 3500 
L 1172 4494 
L 1747 4494 
L 1556 3500 
L 2706 3500 
z
" transform="scale(0.015625)"/>
     </defs>
     <use xlink:href="#DejaVuSans-Oblique-67" transform="translate(0 0.987656)"/>
     <use xlink:href="#DejaVuSans-Oblique-6f" transform="translate(63.476562 -15.418594) scale(0.7)"/>
     <use xlink:href="#DejaVuSans-3d" transform="translate(128.520508 0.987656)"/>
     <use xlink:href="#DejaVuSans-2202" transform="translate(232.791992 56.965625) scale(0.7)"/>
     <use xlink:href="#DejaVuSans-Oblique-49" transform="translate(268.988281 56.965625) scale(0.7)"/>
     <use xlink:href="#DejaVuSans-Oblique-75" transform="translate(289.632812 45.48125) scale(0.49)"/>
     <use xlink:href="#DejaVuSans-Oblique-69" transform="translate(320.688477 45.48125) scale(0.49)"/>
     <use xlink:href="#DejaVuSans-Oblique-74" transform="translate(334.302246 45.48125) scale(0.49)"/>
     <use xlink:href="#DejaVuSans-2202" transform="translate(231.791992 -32.818594) scale(0.7)"/>
     <use xlink:href="#DejaVuSans-Oblique-76" transform="translate(267.988281 -32.818594) scale(0.7)"/>
     <use xlink:href="#DejaVuSans-Oblique-69" transform="translate(309.414062 -44.302969) scale(0.49)"/>
     <use xlink:href="#DejaVuSans-Oblique-6e" transform="translate(323.027832 -44.302969) scale(0.49)"/>
     <path d="M 231.791992 19.784531 
L 231.791992 26.034531 
L 355.997559 26.034531 
L 355.997559 19.784531 
L 231.791992 19.784531 
z
"/>
    </g>
   </g>
   <g id="text_7">
    <!-- $R_o=\frac{\partial v_{in}}{\partial I_{uit}}$ -->
    <g style="fill: #0000ff" transform="translate(358.5375 49.3425) scale(0.165 -0.165)">
     <defs>
      <path id="DejaVuSans-Oblique-52" d="M 1613 4147 
L 1294 2491 
L 2106 2491 
Q 2584 2491 2879 2755 
Q 3175 3019 3175 3444 
Q 3175 3784 2976 3965 
Q 2778 4147 2406 4147 
L 1613 4147 
z
M 2772 2241 
Q 2972 2194 3105 2009 
Q 3238 1825 3413 1275 
L 3809 0 
L 3144 0 
L 2778 1197 
Q 2638 1659 2453 1815 
Q 2269 1972 1888 1972 
L 1191 1972 
L 806 0 
L 172 0 
L 1081 4666 
L 2503 4666 
Q 3150 4666 3495 4373 
Q 3841 4081 3841 3531 
Q 3841 3044 3547 2687 
Q 3253 2331 2772 2241 
z
" transform="scale(0.015625)"/>
     </defs>
     <use xlink:href="#DejaVuSans-Oblique-52" transform="translate(0 0.365625)"/>
     <use xlink:href="#DejaVuSans-Oblique-6f" transform="translate(69.482422 -16.040625) scale(0.7)"/>
     <use xlink:href="#DejaVuSans-3d" transform="translate(134.526367 0.365625)"/>
     <use xlink:href="#DejaVuSans-2202" transform="translate(237.797852 55.646875) scale(0.7)"/>
     <use xlink:href="#DejaVuSans-Oblique-76" transform="translate(273.994141 55.646875) scale(0.7)"/>
     <use xlink:href="#DejaVuSans-Oblique-69" transform="translate(315.419922 44.1625) scale(0.49)"/>
     <use xlink:href="#DejaVuSans-Oblique-6e" transform="translate(329.033691 44.1625) scale(0.49)"/>
     <use xlink:href="#DejaVuSans-2202" transform="translate(238.797852 -38.121875) scale(0.7)"/>
     <use xlink:href="#DejaVuSans-Oblique-49" transform="translate(274.994141 -38.121875) scale(0.7)"/>
     <use xlink:href="#DejaVuSans-Oblique-75" transform="translate(295.638672 -49.60625) scale(0.49)"/>
     <use xlink:href="#DejaVuSans-Oblique-69" transform="translate(326.694336 -49.60625) scale(0.49)"/>
     <use xlink:href="#DejaVuSans-Oblique-74" transform="translate(340.308105 -49.60625) scale(0.49)"/>
     <path d="M 237.797852 19.1625 
L 237.797852 25.4125 
L 362.003418 25.4125 
L 362.003418 19.1625 
L 237.797852 19.1625 
z
"/>
    </g>
   </g>
   <g id="patch_6">
    <path d="M 29.475 65.835 
C 30.191048 65.835 30.877866 65.550511 31.384188 65.044188 
C 31.890511 64.537866 32.175 63.851048 32.175 63.135 
C 32.175 62.418952 31.890511 61.732134 31.384188 61.225812 
C 30.877866 60.719489 30.191048 60.435 29.475 60.435 
C 28.758952 60.435 28.072134 60.719489 27.565812 61.225812 
C 27.059489 61.732134 26.775 62.418952 26.775 63.135 
C 26.775 63.851048 27.059489 64.537866 27.565812 65.044188 
C 28.072134 65.550511 28.758952 65.835 29.475 65.835 
z
" clip-path="url(#p909d91bebd)" style="fill: #ffffff; stroke: #000000; stroke-width: 2; stroke-linejoin: miter"/>
   </g>
   <g id="patch_7">
    <path d="M 29.475 119.835 
C 30.191048 119.835 30.877866 119.550511 31.384188 119.044188 
C 31.890511 118.537866 32.175 117.851048 32.175 117.135 
C 32.175 116.418952 31.890511 115.732134 31.384188 115.225812 
C 30.877866 114.719489 30.191048 114.435 29.475 114.435 
C 28.758952 114.435 28.072134 114.719489 27.565812 115.225812 
C 27.059489 115.732134 26.775 116.418952 26.775 117.135 
C 26.775 117.851048 27.059489 118.537866 27.565812 119.044188 
C 28.072134 119.550511 28.758952 119.835 29.475 119.835 
z
" clip-path="url(#p909d91bebd)" style="fill: #ffffff; stroke: #000000; stroke-width: 2; stroke-linejoin: miter"/>
   </g>
  </g>
 </g>
 <defs>
  <clipPath id="p909d91bebd">
   <rect x="5.94" y="3.6" width="458.37" height="121.77"/>
  </clipPath>
 </defs>
</svg>