<?xml version="1.0" encoding="utf-8" standalone="no"?>
<!DOCTYPE svg PUBLIC "-//W3C//DTD SVG 1.1//EN"
  "http://www.w3.org/Graphics/SVG/1.1/DTD/svg11.dtd">
<svg xmlns:xlink="http://www.w3.org/1999/xlink" width="144.1455pt" height="221.955312pt" viewBox="0 0 144.1455 221.955312" xmlns="http://www.w3.org/2000/svg" version="1.1">
 <metadata>
  <rdf:RDF xmlns:dc="http://purl.org/dc/elements/1.1/" xmlns:cc="http://creativecommons.org/ns#" xmlns:rdf="http://www.w3.org/1999/02/22-rdf-syntax-ns#">
   <cc:Work>
    <dc:type rdf:resource="http://purl.org/dc/dcmitype/StillImage"/>
    <dc:date>2024-01-02T14:37:13.323376</dc:date>
    <dc:format>image/svg+xml</dc:format>
    <dc:creator>
     <cc:Agent>
      <dc:title>Matplotlib v3.8.2, https://matplotlib.org/</dc:title>
     </cc:Agent>
    </dc:creator>
   </cc:Work>
  </rdf:RDF>
 </metadata>
 <defs>
  <style type="text/css">*{stroke-linejoin: round; stroke-linecap: butt}</style>
 </defs>
 <g id="figure_1">
  <g id="patch_1">
   <path d="M -0 221.955312 
L 144.1455 221.955312 
L 144.1455 0 
L -0 0 
z
" style="fill: #ffffff"/>
  </g>
  <g id="axes_1">
   <g id="line2d_1">
    <path d="M 30.423 58.777656 
L 43.623 58.777656 
" clip-path="url(#p187b253df2)" style="fill: none; stroke: #000000; stroke-width: 2; stroke-linecap: round"/>
   </g>
   <g id="line2d_2">
    <path d="M 43.623 45.577656 
L 43.623 71.977656 
" clip-path="url(#p187b253df2)" style="fill: none; stroke: #000000; stroke-width: 2; stroke-linecap: round"/>
   </g>
   <g id="line2d_3">
    <path d="M 43.623 52.177656 
L 57.483 40.297656 
L 57.483 33.697656 
" clip-path="url(#p187b253df2)" style="fill: none; stroke: #000000; stroke-width: 2; stroke-linecap: round"/>
   </g>
   <g id="line2d_4">
    <path d="M 43.623 65.377656 
L 57.483 77.257656 
L 57.483 83.857656 
" clip-path="url(#p187b253df2)" style="fill: none; stroke: #000000; stroke-width: 2; stroke-linecap: round"/>
   </g>
   <g id="line2d_5">
    <path d="M 43.623 65.377656 
L 50.649691 71.400534 
" clip-path="url(#p187b253df2)" style="fill: none; stroke: #000000; stroke-width: 2; stroke-linecap: round"/>
   </g>
   <g id="patch_2">
    <path d="M 52.99254 68.66721 
L 57.483 77.257656 
L 48.306842 74.133858 
z
" clip-path="url(#p187b253df2)"/>
   </g>
   <g id="line2d_6">
    <path d="M 30.423 58.777656 
L 30.423 85.777656 
L 30.423 112.777656 
" clip-path="url(#p187b253df2)" style="fill: none; stroke: #000000; stroke-width: 2; stroke-linecap: round"/>
   </g>
   <g id="line2d_7">
    <path d="M 30.423 112.777656 
L 30.423 137.977656 
L 30.423 163.177656 
" clip-path="url(#p187b253df2)" style="fill: none; stroke: #000000; stroke-width: 2; stroke-linecap: round"/>
   </g>
   <g id="line2d_8">
    <path d="M 30.423 163.177656 
L 43.623 163.177656 
" clip-path="url(#p187b253df2)" style="fill: none; stroke: #000000; stroke-width: 2; stroke-linecap: round"/>
   </g>
   <g id="line2d_9">
    <path d="M 43.623 149.977656 
L 43.623 176.377656 
" clip-path="url(#p187b253df2)" style="fill: none; stroke: #000000; stroke-width: 2; stroke-linecap: round"/>
   </g>
   <g id="line2d_10">
    <path d="M 43.623 156.577656 
L 57.483 144.697656 
L 57.483 138.097656 
" clip-path="url(#p187b253df2)" style="fill: none; stroke: #000000; stroke-width: 2; stroke-linecap: round"/>
   </g>
   <g id="line2d_11">
    <path d="M 43.623 169.777656 
L 57.483 181.657656 
L 57.483 188.257656 
" clip-path="url(#p187b253df2)" style="fill: none; stroke: #000000; stroke-width: 2; stroke-linecap: round"/>
   </g>
   <g id="line2d_12">
    <path d="M 57.483 144.697656 
L 50.456309 150.720534 
" clip-path="url(#p187b253df2)" style="fill: none; stroke: #000000; stroke-width: 2; stroke-linecap: round"/>
   </g>
   <g id="patch_3">
    <path d="M 52.799158 153.453858 
L 43.623 156.577656 
L 48.11346 147.98721 
z
" clip-path="url(#p187b253df2)"/>
   </g>
   <g id="line2d_13">
    <path d="M 57.483 33.697656 
L 57.483 19.297656 
" clip-path="url(#p187b253df2)" style="fill: none; stroke: #000000; stroke-width: 2; stroke-linecap: round"/>
   </g>
   <g id="line2d_14">
    <path d="M 57.483 19.297656 
L 50.733 19.297656 
" clip-path="url(#p187b253df2)" style="fill: none; stroke: #000000; stroke-width: 2; stroke-linecap: round"/>
   </g>
   <g id="line2d_15">
    <path d="M 57.483 19.297656 
L 64.233 19.297656 
" clip-path="url(#p187b253df2)" style="fill: none; stroke: #000000; stroke-width: 2; stroke-linecap: round"/>
   </g>
   <g id="line2d_16">
    <path d="M 30.423 112.777656 
L 21.423 112.777656 
L 12.423 112.777656 
" clip-path="url(#p187b253df2)" style="fill: none; stroke: #000000; stroke-width: 2; stroke-linecap: round"/>
   </g>
   <g id="line2d_17">
    <path d="M 57.483 83.857656 
L 57.483 89.257656 
L 57.483 94.657656 
" clip-path="url(#p187b253df2)" style="fill: none; stroke: #000000; stroke-width: 2; stroke-linecap: round"/>
   </g>
   <g id="line2d_18">
    <path d="M 57.483 94.657656 
L 57.483 116.377656 
L 57.483 138.097656 
" clip-path="url(#p187b253df2)" style="fill: none; stroke: #000000; stroke-width: 2; stroke-linecap: round"/>
   </g>
   <g id="line2d_19">
    <path d="M 57.483 188.257656 
L 57.483 202.657656 
" clip-path="url(#p187b253df2)" style="fill: none; stroke: #000000; stroke-width: 2; stroke-linecap: round"/>
   </g>
   <g id="line2d_20">
    <path d="M 57.483 202.657656 
L 50.733 202.657656 
" clip-path="url(#p187b253df2)" style="fill: none; stroke: #000000; stroke-width: 2; stroke-linecap: round"/>
   </g>
   <g id="line2d_21">
    <path d="M 57.483 202.657656 
L 64.233 202.657656 
" clip-path="url(#p187b253df2)" style="fill: none; stroke: #000000; stroke-width: 2; stroke-linecap: round"/>
   </g>
   <g id="line2d_22">
    <path d="M 57.483 94.657656 
L 84.483 94.657656 
L 111.483 94.657656 
" clip-path="url(#p187b253df2)" style="fill: none; stroke: #000000; stroke-width: 2; stroke-linecap: round"/>
   </g>
   <g id="line2d_23">
    <path d="M 111.483 94.657656 
L 111.483 103.657656 
L 120.483 106.657656 
L 102.483 112.657656 
L 120.483 118.657656 
L 102.483 124.657656 
L 120.483 130.657656 
L 102.483 136.657656 
L 111.483 139.657656 
L 111.483 148.657656 
" clip-path="url(#p187b253df2)" style="fill: none; stroke: #000000; stroke-width: 2; stroke-linecap: round"/>
   </g>
   <g id="line2d_24">
    <path d="M 111.483 148.657656 
L 111.483 163.057656 
L 102.483 163.057656 
L 120.483 163.057656 
M 105.183 167.377656 
L 117.783 167.377656 
M 109.683 171.697656 
L 113.283 171.697656 
" clip-path="url(#p187b253df2)" style="fill: none; stroke: #000000; stroke-width: 2; stroke-linecap: round"/>
   </g>
   <g id="line2d_25">
    <path d="M 111.483 94.657656 
L 120.483 94.657656 
L 129.483 94.657656 
" clip-path="url(#p187b253df2)" style="fill: none; stroke: #000000; stroke-width: 2; stroke-linecap: round"/>
   </g>
   <g id="text_1">
    <!-- $V_{DD}$ -->
    <g transform="translate(46.2955 13.098047) scale(0.125 -0.125)">
     <defs>
      <path id="DejaVuSans-Oblique-56" d="M 1319 0 
L 500 4666 
L 1119 4666 
L 1797 653 
L 4063 4666 
L 4750 4666 
L 2053 0 
L 1319 0 
z
" transform="scale(0.015625)"/>
      <path id="DejaVuSans-Oblique-44" d="M 1081 4666 
L 2438 4666 
Q 3519 4666 4070 4208 
Q 4622 3750 4622 2847 
Q 4622 2250 4412 1698 
Q 4203 1147 3834 769 
Q 3463 381 2891 190 
Q 2319 0 1538 0 
L 172 0 
L 1081 4666 
z
M 1613 4147 
L 909 519 
L 1734 519 
Q 2794 519 3375 1128 
Q 3956 1738 3956 2847 
Q 3956 3519 3581 3833 
Q 3206 4147 2406 4147 
L 1613 4147 
z
" transform="scale(0.015625)"/>
     </defs>
     <use xlink:href="#DejaVuSans-Oblique-56" transform="translate(0 0.09375)"/>
     <use xlink:href="#DejaVuSans-Oblique-44" transform="translate(68.408203 -16.3125) scale(0.7)"/>
     <use xlink:href="#DejaVuSans-Oblique-44" transform="translate(122.30957 -16.3125) scale(0.7)"/>
    </g>
   </g>
   <g id="text_2">
    <!-- -$V_{DD}$ -->
    <g transform="translate(43.983 215.755703) scale(0.125 -0.125)">
     <defs>
      <path id="DejaVuSans-2d" d="M 313 2009 
L 1997 2009 
L 1997 1497 
L 313 1497 
L 313 2009 
z
" transform="scale(0.015625)"/>
     </defs>
     <use xlink:href="#DejaVuSans-2d" transform="translate(0 0.09375)"/>
     <use xlink:href="#DejaVuSans-Oblique-56" transform="translate(36.083984 0.09375)"/>
     <use xlink:href="#DejaVuSans-Oblique-44" transform="translate(104.492188 -16.3125) scale(0.7)"/>
     <use xlink:href="#DejaVuSans-Oblique-44" transform="translate(158.393555 -16.3125) scale(0.7)"/>
    </g>
   </g>
   <g id="text_3">
    <!-- $R_L$ -->
    <g transform="translate(84.883 125.106875) scale(0.125 -0.125)">
     <defs>
      <path id="DejaVuSans-Oblique-52" d="M 1613 4147 
L 1294 2491 
L 2106 2491 
Q 2584 2491 2879 2755 
Q 3175 3019 3175 3444 
Q 3175 3784 2976 3965 
Q 2778 4147 2406 4147 
L 1613 4147 
z
M 2772 2241 
Q 2972 2194 3105 2009 
Q 3238 1825 3413 1275 
L 3809 0 
L 3144 0 
L 2778 1197 
Q 2638 1659 2453 1815 
Q 2269 1972 1888 1972 
L 1191 1972 
L 806 0 
L 172 0 
L 1081 4666 
L 2503 4666 
Q 3150 4666 3495 4373 
Q 3841 4081 3841 3531 
Q 3841 3044 3547 2687 
Q 3253 2331 2772 2241 
z
" transform="scale(0.015625)"/>
      <path id="DejaVuSans-Oblique-4c" d="M 1075 4666 
L 1709 4666 
L 909 525 
L 3181 525 
L 3078 0 
L 172 0 
L 1075 4666 
z
" transform="scale(0.015625)"/>
     </defs>
     <use xlink:href="#DejaVuSans-Oblique-52" transform="translate(0 0.09375)"/>
     <use xlink:href="#DejaVuSans-Oblique-4c" transform="translate(69.482422 -16.3125) scale(0.7)"/>
    </g>
   </g>
   <g id="patch_4">
    <path d="M 30.423 115.477656 
C 31.139048 115.477656 31.825866 115.193167 32.332188 114.686845 
C 32.838511 114.180522 33.123 113.493705 33.123 112.777656 
C 33.123 112.061608 32.838511 111.374791 32.332188 110.868468 
C 31.825866 110.362145 31.139048 110.077656 30.423 110.077656 
C 29.706952 110.077656 29.020134 110.362145 28.513812 110.868468 
C 28.007489 111.374791 27.723 112.061608 27.723 112.777656 
C 27.723 113.493705 28.007489 114.180522 28.513812 114.686845 
C 29.020134 115.193167 29.706952 115.477656 30.423 115.477656 
z
" clip-path="url(#p187b253df2)" style="stroke: #000000; stroke-width: 2; stroke-linejoin: miter"/>
   </g>
   <g id="patch_5">
    <path d="M 12.423 115.477656 
C 13.139048 115.477656 13.825866 115.193167 14.332188 114.686845 
C 14.838511 114.180522 15.123 113.493705 15.123 112.777656 
C 15.123 112.061608 14.838511 111.374791 14.332188 110.868468 
C 13.825866 110.362145 13.139048 110.077656 12.423 110.077656 
C 11.706952 110.077656 11.020134 110.362145 10.513812 110.868468 
C 10.007489 111.374791 9.723 112.061608 9.723 112.777656 
C 9.723 113.493705 10.007489 114.180522 10.513812 114.686845 
C 11.020134 115.193167 11.706952 115.477656 12.423 115.477656 
z
" clip-path="url(#p187b253df2)" style="fill: #ffffff; stroke: #000000; stroke-width: 2; stroke-linejoin: miter"/>
   </g>
   <g id="text_4">
    <!-- $v_{in}$ -->
    <g transform="translate(4.548 103.878047) scale(0.125 -0.125)">
     <defs>
      <path id="DejaVuSans-Oblique-76" d="M 459 3500 
L 1069 3500 
L 1581 525 
L 3256 3500 
L 3866 3500 
L 1875 0 
L 1100 0 
L 459 3500 
z
" transform="scale(0.015625)"/>
      <path id="DejaVuSans-Oblique-69" d="M 1172 4863 
L 1747 4863 
L 1606 4134 
L 1031 4134 
L 1172 4863 
z
M 909 3500 
L 1484 3500 
L 800 0 
L 225 0 
L 909 3500 
z
" transform="scale(0.015625)"/>
      <path id="DejaVuSans-Oblique-6e" d="M 3566 2113 
L 3156 0 
L 2578 0 
L 2988 2091 
Q 3016 2238 3031 2350 
Q 3047 2463 3047 2528 
Q 3047 2791 2881 2937 
Q 2716 3084 2419 3084 
Q 1956 3084 1622 2776 
Q 1288 2469 1184 1941 
L 800 0 
L 225 0 
L 903 3500 
L 1478 3500 
L 1363 2950 
Q 1603 3253 1940 3418 
Q 2278 3584 2650 3584 
Q 3113 3584 3367 3334 
Q 3622 3084 3622 2631 
Q 3622 2519 3608 2391 
Q 3594 2263 3566 2113 
z
" transform="scale(0.015625)"/>
     </defs>
     <use xlink:href="#DejaVuSans-Oblique-76" transform="translate(0 0.3125)"/>
     <use xlink:href="#DejaVuSans-Oblique-69" transform="translate(59.179688 -16.09375) scale(0.7)"/>
     <use xlink:href="#DejaVuSans-Oblique-6e" transform="translate(78.62793 -16.09375) scale(0.7)"/>
    </g>
   </g>
   <g id="patch_6">
    <path d="M 57.483 97.357656 
C 58.199048 97.357656 58.885866 97.073167 59.392188 96.566845 
C 59.898511 96.060522 60.183 95.373705 60.183 94.657656 
C 60.183 93.941608 59.898511 93.254791 59.392188 92.748468 
C 58.885866 92.242145 58.199048 91.957656 57.483 91.957656 
C 56.766952 91.957656 56.080134 92.242145 55.573812 92.748468 
C 55.067489 93.254791 54.783 93.941608 54.783 94.657656 
C 54.783 95.373705 55.067489 96.060522 55.573812 96.566845 
C 56.080134 97.073167 56.766952 97.357656 57.483 97.357656 
z
" clip-path="url(#p187b253df2)" style="stroke: #000000; stroke-width: 2; stroke-linejoin: miter"/>
   </g>
   <g id="patch_7">
    <path d="M 129.483 97.357656 
C 130.199048 97.357656 130.885866 97.073167 131.392188 96.566845 
C 131.898511 96.060522 132.183 95.373705 132.183 94.657656 
C 132.183 93.941608 131.898511 93.254791 131.392188 92.748468 
C 130.885866 92.242145 130.199048 91.957656 129.483 91.957656 
C 128.766952 91.957656 128.080134 92.242145 127.573812 92.748468 
C 127.067489 93.254791 126.783 93.941608 126.783 94.657656 
C 126.783 95.373705 127.067489 96.060522 127.573812 96.566845 
C 128.080134 97.073167 128.766952 97.357656 129.483 97.357656 
z
" clip-path="url(#p187b253df2)" style="fill: #ffffff; stroke: #000000; stroke-width: 2; stroke-linejoin: miter"/>
   </g>
   <g id="text_5">
    <!-- $v_{out}$ -->
    <g transform="translate(118.4205 85.758047) scale(0.125 -0.125)">
     <defs>
      <path id="DejaVuSans-Oblique-6f" d="M 1625 -91 
Q 1009 -91 651 289 
Q 294 669 294 1325 
Q 294 1706 417 2101 
Q 541 2497 738 2766 
Q 1047 3184 1428 3384 
Q 1809 3584 2291 3584 
Q 2888 3584 3255 3212 
Q 3622 2841 3622 2241 
Q 3622 1825 3500 1412 
Q 3378 1000 3181 728 
Q 2875 309 2494 109 
Q 2113 -91 1625 -91 
z
M 891 1344 
Q 891 869 1089 633 
Q 1288 397 1691 397 
Q 2269 397 2648 901 
Q 3028 1406 3028 2181 
Q 3028 2634 2825 2865 
Q 2622 3097 2228 3097 
Q 1903 3097 1650 2945 
Q 1397 2794 1197 2484 
Q 1050 2253 970 1956 
Q 891 1659 891 1344 
z
" transform="scale(0.015625)"/>
      <path id="DejaVuSans-Oblique-75" d="M 428 1388 
L 838 3500 
L 1416 3500 
L 1006 1409 
Q 975 1256 961 1147 
Q 947 1038 947 966 
Q 947 700 1109 554 
Q 1272 409 1569 409 
Q 2031 409 2368 721 
Q 2706 1034 2809 1563 
L 3194 3500 
L 3769 3500 
L 3091 0 
L 2516 0 
L 2631 550 
Q 2388 244 2052 76 
Q 1716 -91 1338 -91 
Q 878 -91 622 161 
Q 366 413 366 863 
Q 366 956 381 1097 
Q 397 1238 428 1388 
z
" transform="scale(0.015625)"/>
      <path id="DejaVuSans-Oblique-74" d="M 2706 3500 
L 2619 3053 
L 1472 3053 
L 1100 1153 
Q 1081 1047 1072 975 
Q 1063 903 1063 863 
Q 1063 663 1183 572 
Q 1303 481 1569 481 
L 2150 481 
L 2053 0 
L 1503 0 
Q 991 0 739 200 
Q 488 400 488 806 
Q 488 878 497 964 
Q 506 1050 525 1153 
L 897 3053 
L 409 3053 
L 500 3500 
L 978 3500 
L 1172 4494 
L 1747 4494 
L 1556 3500 
L 2706 3500 
z
" transform="scale(0.015625)"/>
     </defs>
     <use xlink:href="#DejaVuSans-Oblique-76" transform="translate(0 0.3125)"/>
     <use xlink:href="#DejaVuSans-Oblique-6f" transform="translate(59.179688 -16.09375) scale(0.7)"/>
     <use xlink:href="#DejaVuSans-Oblique-75" transform="translate(102.006836 -16.09375) scale(0.7)"/>
     <use xlink:href="#DejaVuSans-Oblique-74" transform="translate(146.37207 -16.09375) scale(0.7)"/>
    </g>
   </g>
  </g>
 </g>
 <defs>
  <clipPath id="p187b253df2">
   <rect x="3.6" y="10.129656" width="134.706" height="201.696"/>
  </clipPath>
 </defs>
</svg>