<?xml version="1.0" encoding="utf-8" standalone="no"?>
<!DOCTYPE svg PUBLIC "-//W3C//DTD SVG 1.1//EN"
  "http://www.w3.org/Graphics/SVG/1.1/DTD/svg11.dtd">
<svg xmlns:xlink="http://www.w3.org/1999/xlink" width="271.4625pt" height="113.239656pt" viewBox="0 0 271.4625 113.239656" xmlns="http://www.w3.org/2000/svg" version="1.1">
 <metadata>
  <rdf:RDF xmlns:dc="http://purl.org/dc/elements/1.1/" xmlns:cc="http://creativecommons.org/ns#" xmlns:rdf="http://www.w3.org/1999/02/22-rdf-syntax-ns#">
   <cc:Work>
    <dc:type rdf:resource="http://purl.org/dc/dcmitype/StillImage"/>
    <dc:date>2024-01-03T10:32:20.984863</dc:date>
    <dc:format>image/svg+xml</dc:format>
    <dc:creator>
     <cc:Agent>
      <dc:title>Matplotlib v3.8.2, https://matplotlib.org/</dc:title>
     </cc:Agent>
    </dc:creator>
   </cc:Work>
  </rdf:RDF>
 </metadata>
 <defs>
  <style type="text/css">*{stroke-linejoin: round; stroke-linecap: butt}</style>
 </defs>
 <g id="figure_1">
  <g id="patch_1">
   <path d="M 0 113.239656 
L 271.4625 113.239656 
L 271.4625 0 
L 0 0 
z
" style="fill: #ffffff"/>
  </g>
  <g id="axes_1">
   <g id="line2d_1">
    <path d="M 231.6375 28.297656 
L 222.6375 28.297656 
L 213.6375 28.297656 
" clip-path="url(#p6e23765d14)" style="fill: none; stroke: #000000; stroke-width: 2; stroke-linecap: round"/>
   </g>
   <g id="line2d_2">
    <path d="M 213.6375 28.297656 
L 213.6375 37.297656 
L 222.6375 40.297656 
L 204.6375 46.297656 
L 222.6375 52.297656 
L 204.6375 58.297656 
L 222.6375 64.297656 
L 204.6375 70.297656 
L 213.6375 73.297656 
L 213.6375 82.297656 
" clip-path="url(#p6e23765d14)" style="fill: none; stroke: #000000; stroke-width: 2; stroke-linecap: round"/>
   </g>
   <g id="line2d_3">
    <path d="M 213.6375 82.297656 
L 213.6375 96.697656 
L 204.6375 96.697656 
L 222.6375 96.697656 
M 207.3375 101.017656 
L 219.9375 101.017656 
M 211.8375 105.337656 
L 215.4375 105.337656 
" clip-path="url(#p6e23765d14)" style="fill: none; stroke: #000000; stroke-width: 2; stroke-linecap: round"/>
   </g>
   <g id="line2d_4">
    <path d="M 213.6375 28.297656 
L 186.6375 28.297656 
L 159.6375 28.297656 
" clip-path="url(#p6e23765d14)" style="fill: none; stroke: #000000; stroke-width: 2; stroke-linecap: round"/>
   </g>
   <g id="line2d_5">
    <path d="M 159.6375 28.297656 
L 159.6375 52.057656 
M 168.6375 52.057656 
L 150.6375 52.057656 
M 168.6375 58.537656 
L 150.6375 58.537656 
M 159.6375 58.537656 
L 159.6375 82.297656 
" clip-path="url(#p6e23765d14)" style="fill: none; stroke: #000000; stroke-width: 2; stroke-linecap: round"/>
   </g>
   <g id="line2d_6">
    <path d="M 159.6375 82.297656 
L 159.6375 96.697656 
L 150.6375 96.697656 
L 168.6375 96.697656 
M 153.3375 101.017656 
L 165.9375 101.017656 
M 157.8375 105.337656 
L 161.4375 105.337656 
" clip-path="url(#p6e23765d14)" style="fill: none; stroke: #000000; stroke-width: 2; stroke-linecap: round"/>
   </g>
   <g id="line2d_7">
    <path d="M 159.6375 28.297656 
L 150.6375 28.297656 
L 141.6375 28.297656 
" clip-path="url(#p6e23765d14)" style="fill: none; stroke: #000000; stroke-width: 2; stroke-linecap: round"/>
   </g>
   <g id="line2d_8">
    <path d="M 141.6375 28.297656 
L 132.6375 28.297656 
L 129.6375 37.297656 
L 123.6375 19.297656 
L 117.6375 37.297656 
L 111.6375 19.297656 
L 105.6375 37.297656 
L 99.6375 19.297656 
L 96.6375 28.297656 
L 87.6375 28.297656 
" clip-path="url(#p6e23765d14)" style="fill: none; stroke: #000000; stroke-width: 2; stroke-linecap: round"/>
   </g>
   <g id="line2d_9">
    <path d="M 87.6375 28.297656 
L 63.8775 28.297656 
M 63.8775 37.297656 
L 63.8775 19.297656 
M 57.3975 37.297656 
L 57.3975 19.297656 
M 57.3975 28.297656 
L 33.6375 28.297656 
" clip-path="url(#p6e23765d14)" style="fill: none; stroke: #000000; stroke-width: 2; stroke-linecap: round"/>
   </g>
   <g id="text_1">
    <!-- $R_{f2}$ -->
    <g transform="translate(183.2875 58.746875) scale(0.125 -0.125)">
     <defs>
      <path id="DejaVuSans-Oblique-52" d="M 1613 4147 
L 1294 2491 
L 2106 2491 
Q 2584 2491 2879 2755 
Q 3175 3019 3175 3444 
Q 3175 3784 2976 3965 
Q 2778 4147 2406 4147 
L 1613 4147 
z
M 2772 2241 
Q 2972 2194 3105 2009 
Q 3238 1825 3413 1275 
L 3809 0 
L 3144 0 
L 2778 1197 
Q 2638 1659 2453 1815 
Q 2269 1972 1888 1972 
L 1191 1972 
L 806 0 
L 172 0 
L 1081 4666 
L 2503 4666 
Q 3150 4666 3495 4373 
Q 3841 4081 3841 3531 
Q 3841 3044 3547 2687 
Q 3253 2331 2772 2241 
z
" transform="scale(0.015625)"/>
      <path id="DejaVuSans-Oblique-66" d="M 3059 4863 
L 2969 4384 
L 2419 4384 
Q 2106 4384 1964 4261 
Q 1822 4138 1753 3809 
L 1691 3500 
L 2638 3500 
L 2553 3053 
L 1606 3053 
L 1013 0 
L 434 0 
L 1031 3053 
L 481 3053 
L 563 3500 
L 1113 3500 
L 1159 3744 
Q 1278 4363 1576 4613 
Q 1875 4863 2516 4863 
L 3059 4863 
z
" transform="scale(0.015625)"/>
      <path id="DejaVuSans-32" d="M 1228 531 
L 3431 531 
L 3431 0 
L 469 0 
L 469 531 
Q 828 903 1448 1529 
Q 2069 2156 2228 2338 
Q 2531 2678 2651 2914 
Q 2772 3150 2772 3378 
Q 2772 3750 2511 3984 
Q 2250 4219 1831 4219 
Q 1534 4219 1204 4116 
Q 875 4013 500 3803 
L 500 4441 
Q 881 4594 1212 4672 
Q 1544 4750 1819 4750 
Q 2544 4750 2975 4387 
Q 3406 4025 3406 3419 
Q 3406 3131 3298 2873 
Q 3191 2616 2906 2266 
Q 2828 2175 2409 1742 
Q 1991 1309 1228 531 
z
" transform="scale(0.015625)"/>
     </defs>
     <use xlink:href="#DejaVuSans-Oblique-52" transform="translate(0 0.09375)"/>
     <use xlink:href="#DejaVuSans-Oblique-66" transform="translate(69.482422 -16.3125) scale(0.7)"/>
     <use xlink:href="#DejaVuSans-32" transform="translate(94.125977 -16.3125) scale(0.7)"/>
    </g>
   </g>
   <g id="text_2">
    <!-- $C_{f2}$ -->
    <g transform="translate(129.2875 58.746875) scale(0.125 -0.125)">
     <defs>
      <path id="DejaVuSans-Oblique-43" d="M 4447 4306 
L 4319 3641 
Q 4019 3944 3683 4091 
Q 3347 4238 2956 4238 
Q 2422 4238 2017 3981 
Q 1613 3725 1319 3200 
Q 1131 2863 1032 2486 
Q 934 2109 934 1728 
Q 934 1091 1264 756 
Q 1594 422 2222 422 
Q 2656 422 3056 561 
Q 3456 700 3834 978 
L 3688 231 
Q 3316 72 2936 -9 
Q 2556 -91 2175 -91 
Q 1278 -91 773 396 
Q 269 884 269 1753 
Q 269 2309 461 2846 
Q 653 3384 1013 3828 
Q 1394 4300 1883 4525 
Q 2372 4750 3022 4750 
Q 3422 4750 3780 4639 
Q 4138 4528 4447 4306 
z
" transform="scale(0.015625)"/>
     </defs>
     <use xlink:href="#DejaVuSans-Oblique-43" transform="translate(0 0.78125)"/>
     <use xlink:href="#DejaVuSans-Oblique-66" transform="translate(69.824219 -15.625) scale(0.7)"/>
     <use xlink:href="#DejaVuSans-32" transform="translate(94.467773 -15.625) scale(0.7)"/>
    </g>
   </g>
   <g id="text_3">
    <!-- $R_{f1}$ -->
    <g transform="translate(105.7625 13.098047) scale(0.125 -0.125)">
     <defs>
      <path id="DejaVuSans-31" d="M 794 531 
L 1825 531 
L 1825 4091 
L 703 3866 
L 703 4441 
L 1819 4666 
L 2450 4666 
L 2450 531 
L 3481 531 
L 3481 0 
L 794 0 
L 794 531 
z
" transform="scale(0.015625)"/>
     </defs>
     <use xlink:href="#DejaVuSans-Oblique-52" transform="translate(0 0.09375)"/>
     <use xlink:href="#DejaVuSans-Oblique-66" transform="translate(69.482422 -16.3125) scale(0.7)"/>
     <use xlink:href="#DejaVuSans-31" transform="translate(94.125977 -16.3125) scale(0.7)"/>
    </g>
   </g>
   <g id="text_4">
    <!-- $C_{f1}$ -->
    <g transform="translate(51.7625 13.098047) scale(0.125 -0.125)">
     <use xlink:href="#DejaVuSans-Oblique-43" transform="translate(0 0.78125)"/>
     <use xlink:href="#DejaVuSans-Oblique-66" transform="translate(69.824219 -15.625) scale(0.7)"/>
     <use xlink:href="#DejaVuSans-31" transform="translate(94.467773 -15.625) scale(0.7)"/>
    </g>
   </g>
   <g id="patch_2">
    <path d="M 231.6375 30.997656 
C 232.353548 30.997656 233.040366 30.713167 233.546688 30.206845 
C 234.053011 29.700522 234.3375 29.013705 234.3375 28.297656 
C 234.3375 27.581608 234.053011 26.894791 233.546688 26.388468 
C 233.040366 25.882145 232.353548 25.597656 231.6375 25.597656 
C 230.921452 25.597656 230.234634 25.882145 229.728312 26.388468 
C 229.221989 26.894791 228.9375 27.581608 228.9375 28.297656 
C 228.9375 29.013705 229.221989 29.700522 229.728312 30.206845 
C 230.234634 30.713167 230.921452 30.997656 231.6375 30.997656 
z
" clip-path="url(#p6e23765d14)" style="fill: #ffffff; stroke: #000000; stroke-width: 2; stroke-linejoin: miter"/>
   </g>
   <g id="text_5">
    <!-- $V_{filter}$ -->
    <g transform="translate(238.6125 30.198047) scale(0.125 -0.125)">
     <defs>
      <path id="DejaVuSans-Oblique-56" d="M 1319 0 
L 500 4666 
L 1119 4666 
L 1797 653 
L 4063 4666 
L 4750 4666 
L 2053 0 
L 1319 0 
z
" transform="scale(0.015625)"/>
      <path id="DejaVuSans-Oblique-69" d="M 1172 4863 
L 1747 4863 
L 1606 4134 
L 1031 4134 
L 1172 4863 
z
M 909 3500 
L 1484 3500 
L 800 0 
L 225 0 
L 909 3500 
z
" transform="scale(0.015625)"/>
      <path id="DejaVuSans-Oblique-6c" d="M 1172 4863 
L 1747 4863 
L 800 0 
L 225 0 
L 1172 4863 
z
" transform="scale(0.015625)"/>
      <path id="DejaVuSans-Oblique-74" d="M 2706 3500 
L 2619 3053 
L 1472 3053 
L 1100 1153 
Q 1081 1047 1072 975 
Q 1063 903 1063 863 
Q 1063 663 1183 572 
Q 1303 481 1569 481 
L 2150 481 
L 2053 0 
L 1503 0 
Q 991 0 739 200 
Q 488 400 488 806 
Q 488 878 497 964 
Q 506 1050 525 1153 
L 897 3053 
L 409 3053 
L 500 3500 
L 978 3500 
L 1172 4494 
L 1747 4494 
L 1556 3500 
L 2706 3500 
z
" transform="scale(0.015625)"/>
      <path id="DejaVuSans-Oblique-65" d="M 3078 2063 
Q 3088 2113 3092 2166 
Q 3097 2219 3097 2272 
Q 3097 2653 2873 2875 
Q 2650 3097 2266 3097 
Q 1838 3097 1509 2826 
Q 1181 2556 1013 2059 
L 3078 2063 
z
M 3578 1613 
L 903 1613 
Q 884 1494 878 1425 
Q 872 1356 872 1306 
Q 872 872 1139 634 
Q 1406 397 1894 397 
Q 2269 397 2603 481 
Q 2938 566 3225 728 
L 3116 159 
Q 2806 34 2476 -28 
Q 2147 -91 1806 -91 
Q 1078 -91 686 257 
Q 294 606 294 1247 
Q 294 1794 489 2264 
Q 684 2734 1063 3103 
Q 1306 3334 1642 3459 
Q 1978 3584 2356 3584 
Q 2950 3584 3301 3228 
Q 3653 2872 3653 2272 
Q 3653 2128 3634 1964 
Q 3616 1800 3578 1613 
z
" transform="scale(0.015625)"/>
      <path id="DejaVuSans-Oblique-72" d="M 2853 2969 
Q 2766 3016 2653 3041 
Q 2541 3066 2413 3066 
Q 1953 3066 1609 2717 
Q 1266 2369 1153 1784 
L 800 0 
L 225 0 
L 909 3500 
L 1484 3500 
L 1375 2956 
Q 1603 3259 1920 3421 
Q 2238 3584 2597 3584 
Q 2691 3584 2781 3573 
Q 2872 3563 2963 3538 
L 2853 2969 
z
" transform="scale(0.015625)"/>
     </defs>
     <use xlink:href="#DejaVuSans-Oblique-56" transform="translate(0 0.09375)"/>
     <use xlink:href="#DejaVuSans-Oblique-66" transform="translate(68.408203 -16.3125) scale(0.7)"/>
     <use xlink:href="#DejaVuSans-Oblique-69" transform="translate(93.051758 -16.3125) scale(0.7)"/>
     <use xlink:href="#DejaVuSans-Oblique-6c" transform="translate(112.5 -16.3125) scale(0.7)"/>
     <use xlink:href="#DejaVuSans-Oblique-74" transform="translate(131.948242 -16.3125) scale(0.7)"/>
     <use xlink:href="#DejaVuSans-Oblique-65" transform="translate(159.394531 -16.3125) scale(0.7)"/>
     <use xlink:href="#DejaVuSans-Oblique-72" transform="translate(202.460938 -16.3125) scale(0.7)"/>
    </g>
   </g>
   <g id="patch_3">
    <path d="M 213.6375 30.997656 
C 214.353548 30.997656 215.040366 30.713167 215.546688 30.206845 
C 216.053011 29.700522 216.3375 29.013705 216.3375 28.297656 
C 216.3375 27.581608 216.053011 26.894791 215.546688 26.388468 
C 215.040366 25.882145 214.353548 25.597656 213.6375 25.597656 
C 212.921452 25.597656 212.234634 25.882145 211.728312 26.388468 
C 211.221989 26.894791 210.9375 27.581608 210.9375 28.297656 
C 210.9375 29.013705 211.221989 29.700522 211.728312 30.206845 
C 212.234634 30.713167 212.921452 30.997656 213.6375 30.997656 
z
" clip-path="url(#p6e23765d14)" style="stroke: #000000; stroke-width: 2; stroke-linejoin: miter"/>
   </g>
   <g id="patch_4">
    <path d="M 159.6375 30.997656 
C 160.353548 30.997656 161.040366 30.713167 161.546688 30.206845 
C 162.053011 29.700522 162.3375 29.013705 162.3375 28.297656 
C 162.3375 27.581608 162.053011 26.894791 161.546688 26.388468 
C 161.040366 25.882145 160.353548 25.597656 159.6375 25.597656 
C 158.921452 25.597656 158.234634 25.882145 157.728312 26.388468 
C 157.221989 26.894791 156.9375 27.581608 156.9375 28.297656 
C 156.9375 29.013705 157.221989 29.700522 157.728312 30.206845 
C 158.234634 30.713167 158.921452 30.997656 159.6375 30.997656 
z
" clip-path="url(#p6e23765d14)" style="stroke: #000000; stroke-width: 2; stroke-linejoin: miter"/>
   </g>
   <g id="patch_5">
    <path d="M 33.6375 30.997656 
C 34.353548 30.997656 35.040366 30.713167 35.546688 30.206845 
C 36.053011 29.700522 36.3375 29.013705 36.3375 28.297656 
C 36.3375 27.581608 36.053011 26.894791 35.546688 26.388468 
C 35.040366 25.882145 34.353548 25.597656 33.6375 25.597656 
C 32.921452 25.597656 32.234634 25.882145 31.728312 26.388468 
C 31.221989 26.894791 30.9375 27.581608 30.9375 28.297656 
C 30.9375 29.013705 31.221989 29.700522 31.728312 30.206845 
C 32.234634 30.713167 32.921452 30.997656 33.6375 30.997656 
z
" clip-path="url(#p6e23765d14)" style="fill: #ffffff; stroke: #000000; stroke-width: 2; stroke-linejoin: miter"/>
   </g>
   <g id="text_6">
    <!-- $V_{in}$ -->
    <g transform="translate(3.6 30.198047) scale(0.125 -0.125)">
     <defs>
      <path id="DejaVuSans-Oblique-6e" d="M 3566 2113 
L 3156 0 
L 2578 0 
L 2988 2091 
Q 3016 2238 3031 2350 
Q 3047 2463 3047 2528 
Q 3047 2791 2881 2937 
Q 2716 3084 2419 3084 
Q 1956 3084 1622 2776 
Q 1288 2469 1184 1941 
L 800 0 
L 225 0 
L 903 3500 
L 1478 3500 
L 1363 2950 
Q 1603 3253 1940 3418 
Q 2278 3584 2650 3584 
Q 3113 3584 3367 3334 
Q 3622 3084 3622 2631 
Q 3622 2519 3608 2391 
Q 3594 2263 3566 2113 
z
" transform="scale(0.015625)"/>
     </defs>
     <use xlink:href="#DejaVuSans-Oblique-56" transform="translate(0 0.09375)"/>
     <use xlink:href="#DejaVuSans-Oblique-69" transform="translate(68.408203 -16.3125) scale(0.7)"/>
     <use xlink:href="#DejaVuSans-Oblique-6e" transform="translate(87.856445 -16.3125) scale(0.7)"/>
    </g>
   </g>
  </g>
 </g>
 <defs>
  <clipPath id="p6e23765d14">
   <rect x="20.7675" y="14.995656" width="223.74" height="94.644"/>
  </clipPath>
 </defs>
</svg>