<?xml version="1.0" encoding="utf-8" standalone="no"?>
<!DOCTYPE svg PUBLIC "-//W3C//DTD SVG 1.1//EN"
  "http://www.w3.org/Graphics/SVG/1.1/DTD/svg11.dtd">
<svg xmlns:xlink="http://www.w3.org/1999/xlink" width="336.50984pt" height="269.06pt" viewBox="0 0 336.50984 269.06" xmlns="http://www.w3.org/2000/svg" version="1.1">
 <metadata>
  <rdf:RDF xmlns:dc="http://purl.org/dc/elements/1.1/" xmlns:cc="http://creativecommons.org/ns#" xmlns:rdf="http://www.w3.org/1999/02/22-rdf-syntax-ns#">
   <cc:Work>
    <dc:type rdf:resource="http://purl.org/dc/dcmitype/StillImage"/>
    <dc:date>2022-05-28T00:12:16.918061</dc:date>
    <dc:format>image/svg+xml</dc:format>
    <dc:creator>
     <cc:Agent>
      <dc:title>Matplotlib v3.5.1, https://matplotlib.org/</dc:title>
     </cc:Agent>
    </dc:creator>
   </cc:Work>
  </rdf:RDF>
 </metadata>
 <defs>
  <style type="text/css">*{stroke-linejoin: round; stroke-linecap: butt}</style>
 </defs>
 <g id="figure_1">
  <g id="patch_1">
   <path d="M 0 269.06 
L 336.50984 269.06 
L 336.50984 0 
L 0 0 
L 0 269.06 
z
" style="fill: none"/>
  </g>
  <g id="axes_1">
   <g id="patch_2">
    <path d="M 209.23544 110.815 
L 201.58544 121.525 
L 193.93544 110.815 
L 209.23544 110.815 
z
" clip-path="url(#p7324eab579)" style="fill: none; stroke: #000000; stroke-width: 2; stroke-linecap: round"/>
   </g>
   <g id="patch_3">
    <path d="M 209.23544 155.185 
L 201.58544 165.895 
L 193.93544 155.185 
L 209.23544 155.185 
z
" clip-path="url(#p7324eab579)" style="fill: none; stroke: #000000; stroke-width: 2; stroke-linecap: round"/>
   </g>
   <g id="patch_4">
    <path d="M 230.70644 115.048 
L 230.85209 115.046844 
L 230.997703 115.043378 
L 231.143242 115.037602 
L 231.288672 115.029518 
L 231.433955 115.019127 
L 231.579055 115.006432 
L 231.723935 114.991437 
L 231.868559 114.974145 
L 232.01289 114.954561 
L 232.156893 114.932689 
L 232.300531 114.908535 
L 232.443767 114.882105 
L 232.586565 114.853406 
L 232.728891 114.822445 
L 232.870707 114.78923 
L 233.011979 114.753769 
L 233.15267 114.716071 
L 233.292745 114.676145 
L 233.432169 114.634003 
L 233.570907 114.589653 
L 233.708924 114.543108 
L 233.846185 114.494378 
L 233.982656 114.443477 
L 234.118302 114.390418 
L 234.253089 114.335212 
L 234.386983 114.277876 
L 234.51995 114.218422 
L 234.651958 114.156866 
L 234.782972 114.093223 
L 234.91296 114.027509 
L 235.041889 113.959742 
L 235.169726 113.889937 
L 235.29644 113.818113 
L 235.421999 113.744288 
L 235.54637 113.668479 
L 235.669523 113.590707 
L 235.791426 113.510991 
L 235.91205 113.429351 
L 236.031363 113.345807 
L 236.149335 113.260381 
L 236.265937 113.173094 
L 236.38114 113.083967 
L 236.494914 112.993025 
L 236.607231 112.900288 
L 236.718062 112.805781 
L 236.82738 112.709528 
L 236.935157 112.611552 
L 237.041366 112.511878 
L 237.14598 112.410532 
L 237.248973 112.307539 
L 237.350319 112.202925 
L 237.449992 112.096716 
L 237.547968 111.988939 
L 237.644221 111.879622 
L 237.738728 111.76879 
L 237.831465 111.656473 
L 237.922408 111.542699 
L 238.011534 111.427497 
L 238.098821 111.310895 
L 238.184247 111.192922 
L 238.267791 111.07361 
L 238.349432 110.952986 
L 238.429148 110.831083 
L 238.50692 110.70793 
L 238.582728 110.583558 
L 238.656553 110.458 
L 238.728378 110.331286 
L 238.798182 110.203448 
L 238.86595 110.074519 
L 238.931663 109.944532 
L 238.995306 109.813517 
L 239.056862 109.68151 
L 239.116316 109.548542 
L 239.173653 109.414648 
L 239.228858 109.279861 
L 239.281918 109.144216 
L 239.332819 109.007745 
L 239.381548 108.870484 
L 239.428093 108.732467 
L 239.472443 108.593729 
L 239.514586 108.454305 
L 239.554511 108.31423 
L 239.592209 108.173539 
L 239.62767 108.032267 
L 239.660886 107.890451 
L 239.691847 107.748125 
L 239.720546 107.605326 
L 239.746975 107.46209 
L 239.771129 107.318453 
L 239.793001 107.17445 
L 239.812585 107.030119 
L 239.829877 106.885495 
L 239.844873 106.740614 
L 239.857567 106.595515 
L 239.867958 106.450232 
L 239.876042 106.304802 
L 239.881819 106.159262 
L 239.885285 106.01365 
L 239.88644 105.868 
L 239.88644 81.082 
L 239.885285 80.93635 
L 239.881819 80.790738 
L 239.876042 80.645198 
L 239.867958 80.499768 
L 239.857567 80.354485 
L 239.844873 80.209386 
L 239.829877 80.064505 
L 239.812585 79.919881 
L 239.793001 79.77555 
L 239.771129 79.631547 
L 239.746975 79.48791 
L 239.720546 79.344674 
L 239.691847 79.201875 
L 239.660886 79.059549 
L 239.62767 78.917733 
L 239.592209 78.776461 
L 239.554511 78.63577 
L 239.514586 78.495695 
L 239.472443 78.356271 
L 239.428093 78.217533 
L 239.381548 78.079516 
L 239.332819 77.942255 
L 239.281918 77.805784 
L 239.228858 77.670139 
L 239.173653 77.535352 
L 239.116316 77.401458 
L 239.056862 77.26849 
L 238.995306 77.136483 
L 238.931663 77.005468 
L 238.86595 76.875481 
L 238.798182 76.746552 
L 238.728378 76.618714 
L 238.656553 76.492 
L 238.582728 76.366442 
L 238.50692 76.24207 
L 238.429148 76.118917 
L 238.349432 75.997014 
L 238.267791 75.87639 
L 238.184247 75.757078 
L 238.098821 75.639105 
L 238.011534 75.522503 
L 237.922408 75.407301 
L 237.831465 75.293527 
L 237.738728 75.18121 
L 237.644221 75.070378 
L 237.547968 74.961061 
L 237.449992 74.853284 
L 237.350319 74.747075 
L 237.248973 74.642461 
L 237.14598 74.539468 
L 237.041366 74.438122 
L 236.935157 74.338448 
L 236.82738 74.240472 
L 236.718062 74.144219 
L 236.607231 74.049712 
L 236.494914 73.956975 
L 236.38114 73.866033 
L 236.265937 73.776906 
L 236.149335 73.689619 
L 236.031363 73.604193 
L 235.91205 73.520649 
L 235.791426 73.439009 
L 235.669523 73.359293 
L 235.54637 73.281521 
L 235.421999 73.205712 
L 235.29644 73.131887 
L 235.169726 73.060063 
L 235.041889 72.990258 
L 234.91296 72.922491 
L 234.782972 72.856777 
L 234.651958 72.793134 
L 234.51995 72.731578 
L 234.386983 72.672124 
L 234.253089 72.614788 
L 234.118302 72.559582 
L 233.982656 72.506523 
L 233.846185 72.455622 
L 233.708924 72.406892 
L 233.570907 72.360347 
L 233.432169 72.315997 
L 233.292745 72.273855 
L 233.15267 72.233929 
L 233.011979 72.196231 
L 232.870707 72.16077 
L 232.728891 72.127555 
L 232.586565 72.096594 
L 232.443767 72.067895 
L 232.300531 72.041465 
L 232.156893 72.017311 
L 232.01289 71.995439 
L 231.868559 71.975855 
L 231.723935 71.958563 
L 231.579055 71.943568 
L 231.433955 71.930873 
L 231.288672 71.920482 
L 231.143242 71.912398 
L 230.997703 71.906622 
L 230.85209 71.903156 
L 230.70644 71.902 
L 226.06544 71.902 
L 225.919791 71.903156 
L 225.774178 71.906622 
L 225.628638 71.912398 
L 225.483209 71.920482 
L 225.337926 71.930873 
L 225.192826 71.943568 
L 225.047946 71.958563 
L 224.903322 71.975855 
L 224.75899 71.995439 
L 224.614987 72.017311 
L 224.47135 72.041465 
L 224.328114 72.067895 
L 224.185315 72.096594 
L 224.04299 72.127555 
L 223.901173 72.16077 
L 223.759902 72.196231 
L 223.619211 72.233929 
L 223.479135 72.273855 
L 223.339711 72.315997 
L 223.200973 72.360347 
L 223.062956 72.406892 
L 222.925695 72.455622 
L 222.789225 72.506523 
L 222.653579 72.559582 
L 222.518792 72.614788 
L 222.384898 72.672124 
L 222.25193 72.731578 
L 222.119923 72.793134 
L 221.988909 72.856777 
L 221.858921 72.922491 
L 221.729992 72.990258 
L 221.602154 73.060063 
L 221.47544 73.131887 
L 221.349882 73.205712 
L 221.22551 73.281521 
L 221.102358 73.359293 
L 220.980454 73.439009 
L 220.859831 73.520649 
L 220.740518 73.604193 
L 220.622545 73.689619 
L 220.505943 73.776906 
L 220.390741 73.866033 
L 220.276967 73.956975 
L 220.16465 74.049712 
L 220.053819 74.144219 
L 219.944501 74.240472 
L 219.836724 74.338448 
L 219.730515 74.438122 
L 219.625901 74.539468 
L 219.522908 74.642461 
L 219.421562 74.747075 
L 219.321888 74.853284 
L 219.223913 74.961061 
L 219.127659 75.070378 
L 219.033152 75.18121 
L 218.940416 75.293527 
L 218.849473 75.407301 
L 218.760347 75.522503 
L 218.673059 75.639105 
L 218.587633 75.757078 
L 218.504089 75.87639 
L 218.422449 75.997014 
L 218.342733 76.118917 
L 218.264961 76.24207 
L 218.189153 76.366442 
L 218.115327 76.492 
L 218.043503 76.618714 
L 217.973698 76.746552 
L 217.905931 76.875481 
L 217.840217 77.005468 
L 217.776575 77.136483 
L 217.715019 77.26849 
L 217.655565 77.401458 
L 217.598228 77.535352 
L 217.543023 77.670139 
L 217.489963 77.805784 
L 217.439062 77.942255 
L 217.390333 78.079516 
L 217.343787 78.217533 
L 217.299438 78.356271 
L 217.257295 78.495695 
L 217.217369 78.63577 
L 217.179671 78.776461 
L 217.14421 78.917733 
L 217.110995 79.059549 
L 217.080034 79.201875 
L 217.051335 79.344674 
L 217.024905 79.48791 
L 217.000751 79.631547 
L 216.978879 79.77555 
L 216.959295 79.919881 
L 216.942003 80.064505 
L 216.927008 80.209386 
L 216.914313 80.354485 
L 216.903923 80.499768 
L 216.895838 80.645198 
L 216.890062 80.790738 
L 216.886596 80.93635 
L 216.88544 81.082 
L 216.88544 105.868 
L 216.886596 106.01365 
L 216.890062 106.159262 
L 216.895838 106.304802 
L 216.903923 106.450232 
L 216.914313 106.595515 
L 216.927008 106.740614 
L 216.942003 106.885495 
L 216.959295 107.030119 
L 216.978879 107.17445 
L 217.000751 107.318453 
L 217.024905 107.46209 
L 217.051335 107.605326 
L 217.080034 107.748125 
L 217.110995 107.890451 
L 217.14421 108.032267 
L 217.179671 108.173539 
L 217.217369 108.31423 
L 217.257295 108.454305 
L 217.299438 108.593729 
L 217.343787 108.732467 
L 217.390333 108.870484 
L 217.439062 109.007745 
L 217.489963 109.144216 
L 217.543023 109.279861 
L 217.598228 109.414648 
L 217.655565 109.548542 
L 217.715019 109.68151 
L 217.776575 109.813517 
L 217.840217 109.944532 
L 217.905931 110.074519 
L 217.973698 110.203448 
L 218.043503 110.331286 
L 218.115327 110.458 
L 218.189153 110.583558 
L 218.264961 110.70793 
L 218.342733 110.831083 
L 218.422449 110.952986 
L 218.504089 111.07361 
L 218.587633 111.192922 
L 218.673059 111.310895 
L 218.760347 111.427497 
L 218.849473 111.542699 
L 218.940416 111.656473 
L 219.033152 111.76879 
L 219.127659 111.879622 
L 219.223913 111.988939 
L 219.321888 112.096716 
L 219.421562 112.202925 
L 219.522908 112.307539 
L 219.625901 112.410532 
L 219.730515 112.511878 
L 219.836724 112.611552 
L 219.944501 112.709528 
L 220.053819 112.805781 
L 220.16465 112.900288 
L 220.276967 112.993025 
L 220.390741 113.083967 
L 220.505943 113.173094 
L 220.622545 113.260381 
L 220.740518 113.345807 
L 220.859831 113.429351 
L 220.980454 113.510991 
L 221.102358 113.590707 
L 221.22551 113.668479 
L 221.349882 113.744288 
L 221.47544 113.818113 
L 221.602154 113.889937 
L 221.729992 113.959742 
L 221.858921 114.027509 
L 221.988909 114.093223 
L 222.119923 114.156866 
L 222.25193 114.218422 
L 222.384898 114.277876 
L 222.518792 114.335212 
L 222.653579 114.390418 
L 222.789225 114.443477 
L 222.925695 114.494378 
L 223.062956 114.543108 
L 223.200973 114.589653 
L 223.339711 114.634003 
L 223.479135 114.676145 
L 223.619211 114.716071 
L 223.759902 114.753769 
L 223.901173 114.78923 
L 224.04299 114.822445 
L 224.185315 114.853406 
L 224.328114 114.882105 
L 224.47135 114.908535 
L 224.614987 114.932689 
L 224.75899 114.954561 
L 224.903322 114.974145 
L 225.047946 114.991437 
L 225.192826 115.006432 
L 225.337926 115.019127 
L 225.483209 115.029518 
L 225.628638 115.037602 
L 225.774178 115.043378 
L 225.919791 115.046844 
L 226.06544 115.048 
L 230.70644 115.048 
z
" clip-path="url(#p7324eab579)" style="fill: none; stroke-dasharray: 1.85,0.8; stroke-dashoffset: 0; stroke: #008000; stroke-width: 0.5; stroke-linecap: round"/>
   </g>
   <g id="patch_5">
    <path d="M 230.70644 203.278 
L 230.85209 203.276844 
L 230.997703 203.273378 
L 231.143242 203.267602 
L 231.288672 203.259518 
L 231.433955 203.249127 
L 231.579055 203.236432 
L 231.723935 203.221437 
L 231.868559 203.204145 
L 232.01289 203.184561 
L 232.156893 203.162689 
L 232.300531 203.138535 
L 232.443767 203.112105 
L 232.586565 203.083406 
L 232.728891 203.052445 
L 232.870707 203.01923 
L 233.011979 202.983769 
L 233.15267 202.946071 
L 233.292745 202.906145 
L 233.432169 202.864003 
L 233.570907 202.819653 
L 233.708924 202.773108 
L 233.846185 202.724378 
L 233.982656 202.673477 
L 234.118302 202.620418 
L 234.253089 202.565212 
L 234.386983 202.507876 
L 234.51995 202.448422 
L 234.651958 202.386866 
L 234.782972 202.323223 
L 234.91296 202.257509 
L 235.041889 202.189742 
L 235.169726 202.119937 
L 235.29644 202.048113 
L 235.421999 201.974288 
L 235.54637 201.898479 
L 235.669523 201.820707 
L 235.791426 201.740991 
L 235.91205 201.659351 
L 236.031363 201.575807 
L 236.149335 201.490381 
L 236.265937 201.403094 
L 236.38114 201.313967 
L 236.494914 201.223025 
L 236.607231 201.130288 
L 236.718062 201.035781 
L 236.82738 200.939528 
L 236.935157 200.841552 
L 237.041366 200.741878 
L 237.14598 200.640532 
L 237.248973 200.537539 
L 237.350319 200.432925 
L 237.449992 200.326716 
L 237.547968 200.218939 
L 237.644221 200.109622 
L 237.738728 199.99879 
L 237.831465 199.886473 
L 237.922408 199.772699 
L 238.011534 199.657497 
L 238.098821 199.540895 
L 238.184247 199.422922 
L 238.267791 199.30361 
L 238.349432 199.182986 
L 238.429148 199.061083 
L 238.50692 198.93793 
L 238.582728 198.813558 
L 238.656553 198.688 
L 238.728378 198.561286 
L 238.798182 198.433448 
L 238.86595 198.304519 
L 238.931663 198.174532 
L 238.995306 198.043517 
L 239.056862 197.91151 
L 239.116316 197.778542 
L 239.173653 197.644648 
L 239.228858 197.509861 
L 239.281918 197.374216 
L 239.332819 197.237745 
L 239.381548 197.100484 
L 239.428093 196.962467 
L 239.472443 196.823729 
L 239.514586 196.684305 
L 239.554511 196.54423 
L 239.592209 196.403539 
L 239.62767 196.262267 
L 239.660886 196.120451 
L 239.691847 195.978125 
L 239.720546 195.835326 
L 239.746975 195.69209 
L 239.771129 195.548453 
L 239.793001 195.40445 
L 239.812585 195.260119 
L 239.829877 195.115495 
L 239.844873 194.970614 
L 239.857567 194.825515 
L 239.867958 194.680232 
L 239.876042 194.534802 
L 239.881819 194.389262 
L 239.885285 194.24365 
L 239.88644 194.098 
L 239.88644 169.312 
L 239.885285 169.16635 
L 239.881819 169.020738 
L 239.876042 168.875198 
L 239.867958 168.729768 
L 239.857567 168.584485 
L 239.844873 168.439386 
L 239.829877 168.294505 
L 239.812585 168.149881 
L 239.793001 168.00555 
L 239.771129 167.861547 
L 239.746975 167.71791 
L 239.720546 167.574674 
L 239.691847 167.431875 
L 239.660886 167.289549 
L 239.62767 167.147733 
L 239.592209 167.006461 
L 239.554511 166.86577 
L 239.514586 166.725695 
L 239.472443 166.586271 
L 239.428093 166.447533 
L 239.381548 166.309516 
L 239.332819 166.172255 
L 239.281918 166.035784 
L 239.228858 165.900139 
L 239.173653 165.765352 
L 239.116316 165.631458 
L 239.056862 165.49849 
L 238.995306 165.366483 
L 238.931663 165.235468 
L 238.86595 165.105481 
L 238.798182 164.976552 
L 238.728378 164.848714 
L 238.656553 164.722 
L 238.582728 164.596442 
L 238.50692 164.47207 
L 238.429148 164.348917 
L 238.349432 164.227014 
L 238.267791 164.10639 
L 238.184247 163.987078 
L 238.098821 163.869105 
L 238.011534 163.752503 
L 237.922408 163.637301 
L 237.831465 163.523527 
L 237.738728 163.41121 
L 237.644221 163.300378 
L 237.547968 163.191061 
L 237.449992 163.083284 
L 237.350319 162.977075 
L 237.248973 162.872461 
L 237.14598 162.769468 
L 237.041366 162.668122 
L 236.935157 162.568448 
L 236.82738 162.470472 
L 236.718062 162.374219 
L 236.607231 162.279712 
L 236.494914 162.186975 
L 236.38114 162.096033 
L 236.265937 162.006906 
L 236.149335 161.919619 
L 236.031363 161.834193 
L 235.91205 161.750649 
L 235.791426 161.669009 
L 235.669523 161.589293 
L 235.54637 161.511521 
L 235.421999 161.435712 
L 235.29644 161.361887 
L 235.169726 161.290063 
L 235.041889 161.220258 
L 234.91296 161.152491 
L 234.782972 161.086777 
L 234.651958 161.023134 
L 234.51995 160.961578 
L 234.386983 160.902124 
L 234.253089 160.844788 
L 234.118302 160.789582 
L 233.982656 160.736523 
L 233.846185 160.685622 
L 233.708924 160.636892 
L 233.570907 160.590347 
L 233.432169 160.545997 
L 233.292745 160.503855 
L 233.15267 160.463929 
L 233.011979 160.426231 
L 232.870707 160.39077 
L 232.728891 160.357555 
L 232.586565 160.326594 
L 232.443767 160.297895 
L 232.300531 160.271465 
L 232.156893 160.247311 
L 232.01289 160.225439 
L 231.868559 160.205855 
L 231.723935 160.188563 
L 231.579055 160.173568 
L 231.433955 160.160873 
L 231.288672 160.150482 
L 231.143242 160.142398 
L 230.997703 160.136622 
L 230.85209 160.133156 
L 230.70644 160.132 
L 226.06544 160.132 
L 225.919791 160.133156 
L 225.774178 160.136622 
L 225.628638 160.142398 
L 225.483209 160.150482 
L 225.337926 160.160873 
L 225.192826 160.173568 
L 225.047946 160.188563 
L 224.903322 160.205855 
L 224.75899 160.225439 
L 224.614987 160.247311 
L 224.47135 160.271465 
L 224.328114 160.297895 
L 224.185315 160.326594 
L 224.04299 160.357555 
L 223.901173 160.39077 
L 223.759902 160.426231 
L 223.619211 160.463929 
L 223.479135 160.503855 
L 223.339711 160.545997 
L 223.200973 160.590347 
L 223.062956 160.636892 
L 222.925695 160.685622 
L 222.789225 160.736523 
L 222.653579 160.789582 
L 222.518792 160.844788 
L 222.384898 160.902124 
L 222.25193 160.961578 
L 222.119923 161.023134 
L 221.988909 161.086777 
L 221.858921 161.152491 
L 221.729992 161.220258 
L 221.602154 161.290063 
L 221.47544 161.361887 
L 221.349882 161.435712 
L 221.22551 161.511521 
L 221.102358 161.589293 
L 220.980454 161.669009 
L 220.859831 161.750649 
L 220.740518 161.834193 
L 220.622545 161.919619 
L 220.505943 162.006906 
L 220.390741 162.096033 
L 220.276967 162.186975 
L 220.16465 162.279712 
L 220.053819 162.374219 
L 219.944501 162.470472 
L 219.836724 162.568448 
L 219.730515 162.668122 
L 219.625901 162.769468 
L 219.522908 162.872461 
L 219.421562 162.977075 
L 219.321888 163.083284 
L 219.223913 163.191061 
L 219.127659 163.300378 
L 219.033152 163.41121 
L 218.940416 163.523527 
L 218.849473 163.637301 
L 218.760347 163.752503 
L 218.673059 163.869105 
L 218.587633 163.987078 
L 218.504089 164.10639 
L 218.422449 164.227014 
L 218.342733 164.348917 
L 218.264961 164.47207 
L 218.189153 164.596442 
L 218.115327 164.722 
L 218.043503 164.848714 
L 217.973698 164.976552 
L 217.905931 165.105481 
L 217.840217 165.235468 
L 217.776575 165.366483 
L 217.715019 165.49849 
L 217.655565 165.631458 
L 217.598228 165.765352 
L 217.543023 165.900139 
L 217.489963 166.035784 
L 217.439062 166.172255 
L 217.390333 166.309516 
L 217.343787 166.447533 
L 217.299438 166.586271 
L 217.257295 166.725695 
L 217.217369 166.86577 
L 217.179671 167.006461 
L 217.14421 167.147733 
L 217.110995 167.289549 
L 217.080034 167.431875 
L 217.051335 167.574674 
L 217.024905 167.71791 
L 217.000751 167.861547 
L 216.978879 168.00555 
L 216.959295 168.149881 
L 216.942003 168.294505 
L 216.927008 168.439386 
L 216.914313 168.584485 
L 216.903923 168.729768 
L 216.895838 168.875198 
L 216.890062 169.020738 
L 216.886596 169.16635 
L 216.88544 169.312 
L 216.88544 194.098 
L 216.886596 194.24365 
L 216.890062 194.389262 
L 216.895838 194.534802 
L 216.903923 194.680232 
L 216.914313 194.825515 
L 216.927008 194.970614 
L 216.942003 195.115495 
L 216.959295 195.260119 
L 216.978879 195.40445 
L 217.000751 195.548453 
L 217.024905 195.69209 
L 217.051335 195.835326 
L 217.080034 195.978125 
L 217.110995 196.120451 
L 217.14421 196.262267 
L 217.179671 196.403539 
L 217.217369 196.54423 
L 217.257295 196.684305 
L 217.299438 196.823729 
L 217.343787 196.962467 
L 217.390333 197.100484 
L 217.439062 197.237745 
L 217.489963 197.374216 
L 217.543023 197.509861 
L 217.598228 197.644648 
L 217.655565 197.778542 
L 217.715019 197.91151 
L 217.776575 198.043517 
L 217.840217 198.174532 
L 217.905931 198.304519 
L 217.973698 198.433448 
L 218.043503 198.561286 
L 218.115327 198.688 
L 218.189153 198.813558 
L 218.264961 198.93793 
L 218.342733 199.061083 
L 218.422449 199.182986 
L 218.504089 199.30361 
L 218.587633 199.422922 
L 218.673059 199.540895 
L 218.760347 199.657497 
L 218.849473 199.772699 
L 218.940416 199.886473 
L 219.033152 199.99879 
L 219.127659 200.109622 
L 219.223913 200.218939 
L 219.321888 200.326716 
L 219.421562 200.432925 
L 219.522908 200.537539 
L 219.625901 200.640532 
L 219.730515 200.741878 
L 219.836724 200.841552 
L 219.944501 200.939528 
L 220.053819 201.035781 
L 220.16465 201.130288 
L 220.276967 201.223025 
L 220.390741 201.313967 
L 220.505943 201.403094 
L 220.622545 201.490381 
L 220.740518 201.575807 
L 220.859831 201.659351 
L 220.980454 201.740991 
L 221.102358 201.820707 
L 221.22551 201.898479 
L 221.349882 201.974288 
L 221.47544 202.048113 
L 221.602154 202.119937 
L 221.729992 202.189742 
L 221.858921 202.257509 
L 221.988909 202.323223 
L 222.119923 202.386866 
L 222.25193 202.448422 
L 222.384898 202.507876 
L 222.518792 202.565212 
L 222.653579 202.620418 
L 222.789225 202.673477 
L 222.925695 202.724378 
L 223.062956 202.773108 
L 223.200973 202.819653 
L 223.339711 202.864003 
L 223.479135 202.906145 
L 223.619211 202.946071 
L 223.759902 202.983769 
L 223.901173 203.01923 
L 224.04299 203.052445 
L 224.185315 203.083406 
L 224.328114 203.112105 
L 224.47135 203.138535 
L 224.614987 203.162689 
L 224.75899 203.184561 
L 224.903322 203.204145 
L 225.047946 203.221437 
L 225.192826 203.236432 
L 225.337926 203.249127 
L 225.483209 203.259518 
L 225.628638 203.267602 
L 225.774178 203.273378 
L 225.919791 203.276844 
L 226.06544 203.278 
L 230.70644 203.278 
z
" clip-path="url(#p7324eab579)" style="fill: none; stroke-dasharray: 1.85,0.8; stroke-dashoffset: 0; stroke: #008000; stroke-width: 0.5; stroke-linecap: round"/>
   </g>
   <g id="patch_6">
    <path d="M 206.17544 181.96 
L 206.32109 181.958844 
L 206.466703 181.955378 
L 206.612242 181.949602 
L 206.757672 181.941518 
L 206.902955 181.931127 
L 207.048055 181.918432 
L 207.192935 181.903437 
L 207.337559 181.886145 
L 207.48189 181.866561 
L 207.625893 181.844689 
L 207.769531 181.820535 
L 207.912767 181.794105 
L 208.055565 181.765406 
L 208.197891 181.734445 
L 208.339707 181.70123 
L 208.480979 181.665769 
L 208.62167 181.628071 
L 208.761745 181.588145 
L 208.901169 181.546003 
L 209.039907 181.501653 
L 209.177924 181.455108 
L 209.315185 181.406378 
L 209.451656 181.355477 
L 209.587302 181.302418 
L 209.722089 181.247212 
L 209.855983 181.189876 
L 209.98895 181.130422 
L 210.120958 181.068866 
L 210.251972 181.005223 
L 210.38196 180.939509 
L 210.510889 180.871742 
L 210.638726 180.801937 
L 210.76544 180.730113 
L 210.890999 180.656288 
L 211.01537 180.580479 
L 211.138523 180.502707 
L 211.260426 180.422991 
L 211.38105 180.341351 
L 211.500363 180.257807 
L 211.618335 180.172381 
L 211.734937 180.085094 
L 211.85014 179.995967 
L 211.963914 179.905025 
L 212.076231 179.812288 
L 212.187062 179.717781 
L 212.29638 179.621528 
L 212.404157 179.523552 
L 212.510366 179.423878 
L 212.61498 179.322532 
L 212.717973 179.219539 
L 212.819319 179.114925 
L 212.918992 179.008716 
L 213.016968 178.900939 
L 213.113221 178.791622 
L 213.207728 178.68079 
L 213.300465 178.568473 
L 213.391408 178.454699 
L 213.480534 178.339497 
L 213.567821 178.222895 
L 213.653247 178.104922 
L 213.736791 177.98561 
L 213.818432 177.864986 
L 213.898148 177.743083 
L 213.97592 177.61993 
L 214.051728 177.495558 
L 214.125553 177.37 
L 214.197378 177.243286 
L 214.267182 177.115448 
L 214.33495 176.986519 
L 214.400663 176.856532 
L 214.464306 176.725517 
L 214.525862 176.59351 
L 214.585316 176.460542 
L 214.642653 176.326648 
L 214.697858 176.191861 
L 214.750918 176.056216 
L 214.801819 175.919745 
L 214.850548 175.782484 
L 214.897093 175.644467 
L 214.941443 175.505729 
L 214.983586 175.366305 
L 215.023511 175.22623 
L 215.061209 175.085539 
L 215.09667 174.944267 
L 215.129886 174.802451 
L 215.160847 174.660125 
L 215.189546 174.517326 
L 215.215975 174.37409 
L 215.240129 174.230453 
L 215.262001 174.08645 
L 215.281585 173.942119 
L 215.298877 173.797495 
L 215.313873 173.652614 
L 215.326567 173.507515 
L 215.336958 173.362232 
L 215.345042 173.216802 
L 215.350819 173.071262 
L 215.354285 172.92565 
L 215.35544 172.78 
L 215.35544 102.4 
L 215.354285 102.25435 
L 215.350819 102.108738 
L 215.345042 101.963198 
L 215.336958 101.817768 
L 215.326567 101.672485 
L 215.313873 101.527386 
L 215.298877 101.382505 
L 215.281585 101.237881 
L 215.262001 101.09355 
L 215.240129 100.949547 
L 215.215975 100.80591 
L 215.189546 100.662674 
L 215.160847 100.519875 
L 215.129886 100.377549 
L 215.09667 100.235733 
L 215.061209 100.094461 
L 215.023511 99.95377 
L 214.983586 99.813695 
L 214.941443 99.674271 
L 214.897093 99.535533 
L 214.850548 99.397516 
L 214.801819 99.260255 
L 214.750918 99.123784 
L 214.697858 98.988139 
L 214.642653 98.853352 
L 214.585316 98.719458 
L 214.525862 98.58649 
L 214.464306 98.454483 
L 214.400663 98.323468 
L 214.33495 98.193481 
L 214.267182 98.064552 
L 214.197378 97.936714 
L 214.125553 97.81 
L 214.051728 97.684442 
L 213.97592 97.56007 
L 213.898148 97.436917 
L 213.818432 97.315014 
L 213.736791 97.19439 
L 213.653247 97.075078 
L 213.567821 96.957105 
L 213.480534 96.840503 
L 213.391408 96.725301 
L 213.300465 96.611527 
L 213.207728 96.49921 
L 213.113221 96.388378 
L 213.016968 96.279061 
L 212.918992 96.171284 
L 212.819319 96.065075 
L 212.717973 95.960461 
L 212.61498 95.857468 
L 212.510366 95.756122 
L 212.404157 95.656448 
L 212.29638 95.558472 
L 212.187062 95.462219 
L 212.076231 95.367712 
L 211.963914 95.274975 
L 211.85014 95.184033 
L 211.734937 95.094906 
L 211.618335 95.007619 
L 211.500363 94.922193 
L 211.38105 94.838649 
L 211.260426 94.757009 
L 211.138523 94.677293 
L 211.01537 94.599521 
L 210.890999 94.523712 
L 210.76544 94.449887 
L 210.638726 94.378063 
L 210.510889 94.308258 
L 210.38196 94.240491 
L 210.251972 94.174777 
L 210.120958 94.111134 
L 209.98895 94.049578 
L 209.855983 93.990124 
L 209.722089 93.932788 
L 209.587302 93.877582 
L 209.451656 93.824523 
L 209.315185 93.773622 
L 209.177924 93.724892 
L 209.039907 93.678347 
L 208.901169 93.633997 
L 208.761745 93.591855 
L 208.62167 93.551929 
L 208.480979 93.514231 
L 208.339707 93.47877 
L 208.197891 93.445555 
L 208.055565 93.414594 
L 207.912767 93.385895 
L 207.769531 93.359465 
L 207.625893 93.335311 
L 207.48189 93.313439 
L 207.337559 93.293855 
L 207.192935 93.276563 
L 207.048055 93.261568 
L 206.902955 93.248873 
L 206.757672 93.238482 
L 206.612242 93.230398 
L 206.466703 93.224622 
L 206.32109 93.221156 
L 206.17544 93.22 
L 196.99544 93.22 
L 196.849791 93.221156 
L 196.704178 93.224622 
L 196.558638 93.230398 
L 196.413209 93.238482 
L 196.267926 93.248873 
L 196.122826 93.261568 
L 195.977946 93.276563 
L 195.833322 93.293855 
L 195.68899 93.313439 
L 195.544987 93.335311 
L 195.40135 93.359465 
L 195.258114 93.385895 
L 195.115315 93.414594 
L 194.97299 93.445555 
L 194.831173 93.47877 
L 194.689902 93.514231 
L 194.549211 93.551929 
L 194.409135 93.591855 
L 194.269711 93.633997 
L 194.130973 93.678347 
L 193.992956 93.724892 
L 193.855695 93.773622 
L 193.719225 93.824523 
L 193.583579 93.877582 
L 193.448792 93.932788 
L 193.314898 93.990124 
L 193.18193 94.049578 
L 193.049923 94.111134 
L 192.918909 94.174777 
L 192.788921 94.240491 
L 192.659992 94.308258 
L 192.532154 94.378063 
L 192.40544 94.449887 
L 192.279882 94.523712 
L 192.15551 94.599521 
L 192.032358 94.677293 
L 191.910454 94.757009 
L 191.789831 94.838649 
L 191.670518 94.922193 
L 191.552545 95.007619 
L 191.435943 95.094906 
L 191.320741 95.184033 
L 191.206967 95.274975 
L 191.09465 95.367712 
L 190.983819 95.462219 
L 190.874501 95.558472 
L 190.766724 95.656448 
L 190.660515 95.756122 
L 190.555901 95.857468 
L 190.452908 95.960461 
L 190.351562 96.065075 
L 190.251888 96.171284 
L 190.153913 96.279061 
L 190.057659 96.388378 
L 189.963152 96.49921 
L 189.870416 96.611527 
L 189.779473 96.725301 
L 189.690347 96.840503 
L 189.603059 96.957105 
L 189.517633 97.075078 
L 189.434089 97.19439 
L 189.352449 97.315014 
L 189.272733 97.436917 
L 189.194961 97.56007 
L 189.119153 97.684442 
L 189.045327 97.81 
L 188.973503 97.936714 
L 188.903698 98.064552 
L 188.835931 98.193481 
L 188.770217 98.323468 
L 188.706575 98.454483 
L 188.645019 98.58649 
L 188.585565 98.719458 
L 188.528228 98.853352 
L 188.473023 98.988139 
L 188.419963 99.123784 
L 188.369062 99.260255 
L 188.320333 99.397516 
L 188.273787 99.535533 
L 188.229438 99.674271 
L 188.187295 99.813695 
L 188.147369 99.95377 
L 188.109671 100.094461 
L 188.07421 100.235733 
L 188.040995 100.377549 
L 188.010034 100.519875 
L 187.981335 100.662674 
L 187.954905 100.80591 
L 187.930751 100.949547 
L 187.908879 101.09355 
L 187.889295 101.237881 
L 187.872003 101.382505 
L 187.857008 101.527386 
L 187.844313 101.672485 
L 187.833923 101.817768 
L 187.825838 101.963198 
L 187.820062 102.108738 
L 187.816596 102.25435 
L 187.81544 102.4 
L 187.81544 172.78 
L 187.816596 172.92565 
L 187.820062 173.071262 
L 187.825838 173.216802 
L 187.833923 173.362232 
L 187.844313 173.507515 
L 187.857008 173.652614 
L 187.872003 173.797495 
L 187.889295 173.942119 
L 187.908879 174.08645 
L 187.930751 174.230453 
L 187.954905 174.37409 
L 187.981335 174.517326 
L 188.010034 174.660125 
L 188.040995 174.802451 
L 188.07421 174.944267 
L 188.109671 175.085539 
L 188.147369 175.22623 
L 188.187295 175.366305 
L 188.229438 175.505729 
L 188.273787 175.644467 
L 188.320333 175.782484 
L 188.369062 175.919745 
L 188.419963 176.056216 
L 188.473023 176.191861 
L 188.528228 176.326648 
L 188.585565 176.460542 
L 188.645019 176.59351 
L 188.706575 176.725517 
L 188.770217 176.856532 
L 188.835931 176.986519 
L 188.903698 177.115448 
L 188.973503 177.243286 
L 189.045327 177.37 
L 189.119153 177.495558 
L 189.194961 177.61993 
L 189.272733 177.743083 
L 189.352449 177.864986 
L 189.434089 177.98561 
L 189.517633 178.104922 
L 189.603059 178.222895 
L 189.690347 178.339497 
L 189.779473 178.454699 
L 189.870416 178.568473 
L 189.963152 178.68079 
L 190.057659 178.791622 
L 190.153913 178.900939 
L 190.251888 179.008716 
L 190.351562 179.114925 
L 190.452908 179.219539 
L 190.555901 179.322532 
L 190.660515 179.423878 
L 190.766724 179.523552 
L 190.874501 179.621528 
L 190.983819 179.717781 
L 191.09465 179.812288 
L 191.206967 179.905025 
L 191.320741 179.995967 
L 191.435943 180.085094 
L 191.552545 180.172381 
L 191.670518 180.257807 
L 191.789831 180.341351 
L 191.910454 180.422991 
L 192.032358 180.502707 
L 192.15551 180.580479 
L 192.279882 180.656288 
L 192.40544 180.730113 
L 192.532154 180.801937 
L 192.659992 180.871742 
L 192.788921 180.939509 
L 192.918909 181.005223 
L 193.049923 181.068866 
L 193.18193 181.130422 
L 193.314898 181.189876 
L 193.448792 181.247212 
L 193.583579 181.302418 
L 193.719225 181.355477 
L 193.855695 181.406378 
L 193.992956 181.455108 
L 194.130973 181.501653 
L 194.269711 181.546003 
L 194.409135 181.588145 
L 194.549211 181.628071 
L 194.689902 181.665769 
L 194.831173 181.70123 
L 194.97299 181.734445 
L 195.115315 181.765406 
L 195.258114 181.794105 
L 195.40135 181.820535 
L 195.544987 181.844689 
L 195.68899 181.866561 
L 195.833322 181.886145 
L 195.977946 181.903437 
L 196.122826 181.918432 
L 196.267926 181.931127 
L 196.413209 181.941518 
L 196.558638 181.949602 
L 196.704178 181.955378 
L 196.849791 181.958844 
L 196.99544 181.96 
L 206.17544 181.96 
z
" clip-path="url(#p7324eab579)" style="fill: none; stroke-dasharray: 1.85,0.8; stroke-dashoffset: 0; stroke: #ff0000; stroke-width: 0.5; stroke-linecap: round"/>
   </g>
   <g id="patch_7">
    <path d="M 200.05544 93.22 
L 200.20109 93.218844 
L 200.346703 93.215378 
L 200.492242 93.209602 
L 200.637672 93.201518 
L 200.782955 93.191127 
L 200.928055 93.178432 
L 201.072935 93.163437 
L 201.217559 93.146145 
L 201.36189 93.126561 
L 201.505893 93.104689 
L 201.649531 93.080535 
L 201.792767 93.054105 
L 201.935565 93.025406 
L 202.077891 92.994445 
L 202.219707 92.96123 
L 202.360979 92.925769 
L 202.50167 92.888071 
L 202.641745 92.848145 
L 202.781169 92.806003 
L 202.919907 92.761653 
L 203.057924 92.715108 
L 203.195185 92.666378 
L 203.331656 92.615477 
L 203.467302 92.562418 
L 203.602089 92.507212 
L 203.735983 92.449876 
L 203.86895 92.390422 
L 204.000958 92.328866 
L 204.131972 92.265223 
L 204.26196 92.199509 
L 204.390889 92.131742 
L 204.518726 92.061937 
L 204.64544 91.990113 
L 204.770999 91.916288 
L 204.89537 91.840479 
L 205.018523 91.762707 
L 205.140426 91.682991 
L 205.26105 91.601351 
L 205.380363 91.517807 
L 205.498335 91.432381 
L 205.614937 91.345094 
L 205.73014 91.255967 
L 205.843914 91.165025 
L 205.956231 91.072288 
L 206.067062 90.977781 
L 206.17638 90.881528 
L 206.284157 90.783552 
L 206.390366 90.683878 
L 206.49498 90.582532 
L 206.597973 90.479539 
L 206.699319 90.374925 
L 206.798992 90.268716 
L 206.896968 90.160939 
L 206.993221 90.051622 
L 207.087728 89.94079 
L 207.180465 89.828473 
L 207.271408 89.714699 
L 207.360534 89.599497 
L 207.447821 89.482895 
L 207.533247 89.364922 
L 207.616791 89.24561 
L 207.698432 89.124986 
L 207.778148 89.003083 
L 207.85592 88.87993 
L 207.931728 88.755558 
L 208.005553 88.63 
L 208.077378 88.503286 
L 208.147182 88.375448 
L 208.21495 88.246519 
L 208.280663 88.116532 
L 208.344306 87.985517 
L 208.405862 87.85351 
L 208.465316 87.720542 
L 208.522653 87.586648 
L 208.577858 87.451861 
L 208.630918 87.316216 
L 208.681819 87.179745 
L 208.730548 87.042484 
L 208.777093 86.904467 
L 208.821443 86.765729 
L 208.863586 86.626305 
L 208.903511 86.48623 
L 208.941209 86.345539 
L 208.97667 86.204267 
L 209.009886 86.062451 
L 209.040847 85.920125 
L 209.069546 85.777326 
L 209.095975 85.63409 
L 209.120129 85.490453 
L 209.142001 85.34645 
L 209.161585 85.202119 
L 209.178877 85.057495 
L 209.193873 84.912614 
L 209.206567 84.767515 
L 209.216958 84.622232 
L 209.225042 84.476802 
L 209.230819 84.331262 
L 209.234285 84.18565 
L 209.23544 84.04 
L 209.23544 56.5 
L 209.234285 56.35435 
L 209.230819 56.208738 
L 209.225042 56.063198 
L 209.216958 55.917768 
L 209.206567 55.772485 
L 209.193873 55.627386 
L 209.178877 55.482505 
L 209.161585 55.337881 
L 209.142001 55.19355 
L 209.120129 55.049547 
L 209.095975 54.90591 
L 209.069546 54.762674 
L 209.040847 54.619875 
L 209.009886 54.477549 
L 208.97667 54.335733 
L 208.941209 54.194461 
L 208.903511 54.05377 
L 208.863586 53.913695 
L 208.821443 53.774271 
L 208.777093 53.635533 
L 208.730548 53.497516 
L 208.681819 53.360255 
L 208.630918 53.223784 
L 208.577858 53.088139 
L 208.522653 52.953352 
L 208.465316 52.819458 
L 208.405862 52.68649 
L 208.344306 52.554483 
L 208.280663 52.423468 
L 208.21495 52.293481 
L 208.147182 52.164552 
L 208.077378 52.036714 
L 208.005553 51.91 
L 207.931728 51.784442 
L 207.85592 51.66007 
L 207.778148 51.536917 
L 207.698432 51.415014 
L 207.616791 51.29439 
L 207.533247 51.175078 
L 207.447821 51.057105 
L 207.360534 50.940503 
L 207.271408 50.825301 
L 207.180465 50.711527 
L 207.087728 50.59921 
L 206.993221 50.488378 
L 206.896968 50.379061 
L 206.798992 50.271284 
L 206.699319 50.165075 
L 206.597973 50.060461 
L 206.49498 49.957468 
L 206.390366 49.856122 
L 206.284157 49.756448 
L 206.17638 49.658472 
L 206.067062 49.562219 
L 205.956231 49.467712 
L 205.843914 49.374975 
L 205.73014 49.284033 
L 205.614937 49.194906 
L 205.498335 49.107619 
L 205.380363 49.022193 
L 205.26105 48.938649 
L 205.140426 48.857009 
L 205.018523 48.777293 
L 204.89537 48.699521 
L 204.770999 48.623712 
L 204.64544 48.549887 
L 204.518726 48.478063 
L 204.390889 48.408258 
L 204.26196 48.340491 
L 204.131972 48.274777 
L 204.000958 48.211134 
L 203.86895 48.149578 
L 203.735983 48.090124 
L 203.602089 48.032788 
L 203.467302 47.977582 
L 203.331656 47.924523 
L 203.195185 47.873622 
L 203.057924 47.824892 
L 202.919907 47.778347 
L 202.781169 47.733997 
L 202.641745 47.691855 
L 202.50167 47.651929 
L 202.360979 47.614231 
L 202.219707 47.57877 
L 202.077891 47.545555 
L 201.935565 47.514594 
L 201.792767 47.485895 
L 201.649531 47.459465 
L 201.505893 47.435311 
L 201.36189 47.413439 
L 201.217559 47.393855 
L 201.072935 47.376563 
L 200.928055 47.361568 
L 200.782955 47.348873 
L 200.637672 47.338482 
L 200.492242 47.330398 
L 200.346703 47.324622 
L 200.20109 47.321156 
L 200.05544 47.32 
L 203.11544 47.32 
L 202.969791 47.321156 
L 202.824178 47.324622 
L 202.678638 47.330398 
L 202.533209 47.338482 
L 202.387926 47.348873 
L 202.242826 47.361568 
L 202.097946 47.376563 
L 201.953322 47.393855 
L 201.80899 47.413439 
L 201.664987 47.435311 
L 201.52135 47.459465 
L 201.378114 47.485895 
L 201.235315 47.514594 
L 201.09299 47.545555 
L 200.951173 47.57877 
L 200.809902 47.614231 
L 200.669211 47.651929 
L 200.529135 47.691855 
L 200.389711 47.733997 
L 200.250973 47.778347 
L 200.112956 47.824892 
L 199.975695 47.873622 
L 199.839225 47.924523 
L 199.703579 47.977582 
L 199.568792 48.032788 
L 199.434898 48.090124 
L 199.30193 48.149578 
L 199.169923 48.211134 
L 199.038909 48.274777 
L 198.908921 48.340491 
L 198.779992 48.408258 
L 198.652154 48.478063 
L 198.52544 48.549887 
L 198.399882 48.623712 
L 198.27551 48.699521 
L 198.152358 48.777293 
L 198.030454 48.857009 
L 197.909831 48.938649 
L 197.790518 49.022193 
L 197.672545 49.107619 
L 197.555943 49.194906 
L 197.440741 49.284033 
L 197.326967 49.374975 
L 197.21465 49.467712 
L 197.103819 49.562219 
L 196.994501 49.658472 
L 196.886724 49.756448 
L 196.780515 49.856122 
L 196.675901 49.957468 
L 196.572908 50.060461 
L 196.471562 50.165075 
L 196.371888 50.271284 
L 196.273913 50.379061 
L 196.177659 50.488378 
L 196.083152 50.59921 
L 195.990416 50.711527 
L 195.899473 50.825301 
L 195.810347 50.940503 
L 195.723059 51.057105 
L 195.637633 51.175078 
L 195.554089 51.29439 
L 195.472449 51.415014 
L 195.392733 51.536917 
L 195.314961 51.66007 
L 195.239153 51.784442 
L 195.165327 51.91 
L 195.093503 52.036714 
L 195.023698 52.164552 
L 194.955931 52.293481 
L 194.890217 52.423468 
L 194.826575 52.554483 
L 194.765019 52.68649 
L 194.705565 52.819458 
L 194.648228 52.953352 
L 194.593023 53.088139 
L 194.539963 53.223784 
L 194.489062 53.360255 
L 194.440333 53.497516 
L 194.393787 53.635533 
L 194.349438 53.774271 
L 194.307295 53.913695 
L 194.267369 54.05377 
L 194.229671 54.194461 
L 194.19421 54.335733 
L 194.160995 54.477549 
L 194.130034 54.619875 
L 194.101335 54.762674 
L 194.074905 54.90591 
L 194.050751 55.049547 
L 194.028879 55.19355 
L 194.009295 55.337881 
L 193.992003 55.482505 
L 193.977008 55.627386 
L 193.964313 55.772485 
L 193.953923 55.917768 
L 193.945838 56.063198 
L 193.940062 56.208738 
L 193.936596 56.35435 
L 193.93544 56.5 
L 193.93544 84.04 
L 193.936596 84.18565 
L 193.940062 84.331262 
L 193.945838 84.476802 
L 193.953923 84.622232 
L 193.964313 84.767515 
L 193.977008 84.912614 
L 193.992003 85.057495 
L 194.009295 85.202119 
L 194.028879 85.34645 
L 194.050751 85.490453 
L 194.074905 85.63409 
L 194.101335 85.777326 
L 194.130034 85.920125 
L 194.160995 86.062451 
L 194.19421 86.204267 
L 194.229671 86.345539 
L 194.267369 86.48623 
L 194.307295 86.626305 
L 194.349438 86.765729 
L 194.393787 86.904467 
L 194.440333 87.042484 
L 194.489062 87.179745 
L 194.539963 87.316216 
L 194.593023 87.451861 
L 194.648228 87.586648 
L 194.705565 87.720542 
L 194.765019 87.85351 
L 194.826575 87.985517 
L 194.890217 88.116532 
L 194.955931 88.246519 
L 195.023698 88.375448 
L 195.093503 88.503286 
L 195.165327 88.63 
L 195.239153 88.755558 
L 195.314961 88.87993 
L 195.392733 89.003083 
L 195.472449 89.124986 
L 195.554089 89.24561 
L 195.637633 89.364922 
L 195.723059 89.482895 
L 195.810347 89.599497 
L 195.899473 89.714699 
L 195.990416 89.828473 
L 196.083152 89.94079 
L 196.177659 90.051622 
L 196.273913 90.160939 
L 196.371888 90.268716 
L 196.471562 90.374925 
L 196.572908 90.479539 
L 196.675901 90.582532 
L 196.780515 90.683878 
L 196.886724 90.783552 
L 196.994501 90.881528 
L 197.103819 90.977781 
L 197.21465 91.072288 
L 197.326967 91.165025 
L 197.440741 91.255967 
L 197.555943 91.345094 
L 197.672545 91.432381 
L 197.790518 91.517807 
L 197.909831 91.601351 
L 198.030454 91.682991 
L 198.152358 91.762707 
L 198.27551 91.840479 
L 198.399882 91.916288 
L 198.52544 91.990113 
L 198.652154 92.061937 
L 198.779992 92.131742 
L 198.908921 92.199509 
L 199.038909 92.265223 
L 199.169923 92.328866 
L 199.30193 92.390422 
L 199.434898 92.449876 
L 199.568792 92.507212 
L 199.703579 92.562418 
L 199.839225 92.615477 
L 199.975695 92.666378 
L 200.112956 92.715108 
L 200.250973 92.761653 
L 200.389711 92.806003 
L 200.529135 92.848145 
L 200.669211 92.888071 
L 200.809902 92.925769 
L 200.951173 92.96123 
L 201.09299 92.994445 
L 201.235315 93.025406 
L 201.378114 93.054105 
L 201.52135 93.080535 
L 201.664987 93.104689 
L 201.80899 93.126561 
L 201.953322 93.146145 
L 202.097946 93.163437 
L 202.242826 93.178432 
L 202.387926 93.191127 
L 202.533209 93.201518 
L 202.678638 93.209602 
L 202.824178 93.215378 
L 202.969791 93.218844 
L 203.11544 93.22 
L 200.05544 93.22 
z
" clip-path="url(#p7324eab579)" style="fill: none; stroke-dasharray: 1.85,0.8; stroke-dashoffset: 0; stroke: #a52a2a; stroke-width: 0.5; stroke-linecap: round"/>
   </g>
   <g id="patch_8">
    <path d="M 200.05544 227.86 
L 200.20109 227.858844 
L 200.346703 227.855378 
L 200.492242 227.849602 
L 200.637672 227.841518 
L 200.782955 227.831127 
L 200.928055 227.818432 
L 201.072935 227.803437 
L 201.217559 227.786145 
L 201.36189 227.766561 
L 201.505893 227.744689 
L 201.649531 227.720535 
L 201.792767 227.694105 
L 201.935565 227.665406 
L 202.077891 227.634445 
L 202.219707 227.60123 
L 202.360979 227.565769 
L 202.50167 227.528071 
L 202.641745 227.488145 
L 202.781169 227.446003 
L 202.919907 227.401653 
L 203.057924 227.355108 
L 203.195185 227.306378 
L 203.331656 227.255477 
L 203.467302 227.202418 
L 203.602089 227.147212 
L 203.735983 227.089876 
L 203.86895 227.030422 
L 204.000958 226.968866 
L 204.131972 226.905223 
L 204.26196 226.839509 
L 204.390889 226.771742 
L 204.518726 226.701937 
L 204.64544 226.630113 
L 204.770999 226.556288 
L 204.89537 226.480479 
L 205.018523 226.402707 
L 205.140426 226.322991 
L 205.26105 226.241351 
L 205.380363 226.157807 
L 205.498335 226.072381 
L 205.614937 225.985094 
L 205.73014 225.895967 
L 205.843914 225.805025 
L 205.956231 225.712288 
L 206.067062 225.617781 
L 206.17638 225.521528 
L 206.284157 225.423552 
L 206.390366 225.323878 
L 206.49498 225.222532 
L 206.597973 225.119539 
L 206.699319 225.014925 
L 206.798992 224.908716 
L 206.896968 224.800939 
L 206.993221 224.691622 
L 207.087728 224.58079 
L 207.180465 224.468473 
L 207.271408 224.354699 
L 207.360534 224.239497 
L 207.447821 224.122895 
L 207.533247 224.004922 
L 207.616791 223.88561 
L 207.698432 223.764986 
L 207.778148 223.643083 
L 207.85592 223.51993 
L 207.931728 223.395558 
L 208.005553 223.27 
L 208.077378 223.143286 
L 208.147182 223.015448 
L 208.21495 222.886519 
L 208.280663 222.756532 
L 208.344306 222.625517 
L 208.405862 222.49351 
L 208.465316 222.360542 
L 208.522653 222.226648 
L 208.577858 222.091861 
L 208.630918 221.956216 
L 208.681819 221.819745 
L 208.730548 221.682484 
L 208.777093 221.544467 
L 208.821443 221.405729 
L 208.863586 221.266305 
L 208.903511 221.12623 
L 208.941209 220.985539 
L 208.97667 220.844267 
L 209.009886 220.702451 
L 209.040847 220.560125 
L 209.069546 220.417326 
L 209.095975 220.27409 
L 209.120129 220.130453 
L 209.142001 219.98645 
L 209.161585 219.842119 
L 209.178877 219.697495 
L 209.193873 219.552614 
L 209.206567 219.407515 
L 209.216958 219.262232 
L 209.225042 219.116802 
L 209.230819 218.971262 
L 209.234285 218.82565 
L 209.23544 218.68 
L 209.23544 191.14 
L 209.234285 190.99435 
L 209.230819 190.848738 
L 209.225042 190.703198 
L 209.216958 190.557768 
L 209.206567 190.412485 
L 209.193873 190.267386 
L 209.178877 190.122505 
L 209.161585 189.977881 
L 209.142001 189.83355 
L 209.120129 189.689547 
L 209.095975 189.54591 
L 209.069546 189.402674 
L 209.040847 189.259875 
L 209.009886 189.117549 
L 208.97667 188.975733 
L 208.941209 188.834461 
L 208.903511 188.69377 
L 208.863586 188.553695 
L 208.821443 188.414271 
L 208.777093 188.275533 
L 208.730548 188.137516 
L 208.681819 188.000255 
L 208.630918 187.863784 
L 208.577858 187.728139 
L 208.522653 187.593352 
L 208.465316 187.459458 
L 208.405862 187.32649 
L 208.344306 187.194483 
L 208.280663 187.063468 
L 208.21495 186.933481 
L 208.147182 186.804552 
L 208.077378 186.676714 
L 208.005553 186.55 
L 207.931728 186.424442 
L 207.85592 186.30007 
L 207.778148 186.176917 
L 207.698432 186.055014 
L 207.616791 185.93439 
L 207.533247 185.815078 
L 207.447821 185.697105 
L 207.360534 185.580503 
L 207.271408 185.465301 
L 207.180465 185.351527 
L 207.087728 185.23921 
L 206.993221 185.128378 
L 206.896968 185.019061 
L 206.798992 184.911284 
L 206.699319 184.805075 
L 206.597973 184.700461 
L 206.49498 184.597468 
L 206.390366 184.496122 
L 206.284157 184.396448 
L 206.17638 184.298472 
L 206.067062 184.202219 
L 205.956231 184.107712 
L 205.843914 184.014975 
L 205.73014 183.924033 
L 205.614937 183.834906 
L 205.498335 183.747619 
L 205.380363 183.662193 
L 205.26105 183.578649 
L 205.140426 183.497009 
L 205.018523 183.417293 
L 204.89537 183.339521 
L 204.770999 183.263712 
L 204.64544 183.189887 
L 204.518726 183.118063 
L 204.390889 183.048258 
L 204.26196 182.980491 
L 204.131972 182.914777 
L 204.000958 182.851134 
L 203.86895 182.789578 
L 203.735983 182.730124 
L 203.602089 182.672788 
L 203.467302 182.617582 
L 203.331656 182.564523 
L 203.195185 182.513622 
L 203.057924 182.464892 
L 202.919907 182.418347 
L 202.781169 182.373997 
L 202.641745 182.331855 
L 202.50167 182.291929 
L 202.360979 182.254231 
L 202.219707 182.21877 
L 202.077891 182.185555 
L 201.935565 182.154594 
L 201.792767 182.125895 
L 201.649531 182.099465 
L 201.505893 182.075311 
L 201.36189 182.053439 
L 201.217559 182.033855 
L 201.072935 182.016563 
L 200.928055 182.001568 
L 200.782955 181.988873 
L 200.637672 181.978482 
L 200.492242 181.970398 
L 200.346703 181.964622 
L 200.20109 181.961156 
L 200.05544 181.96 
L 203.11544 181.96 
L 202.969791 181.961156 
L 202.824178 181.964622 
L 202.678638 181.970398 
L 202.533209 181.978482 
L 202.387926 181.988873 
L 202.242826 182.001568 
L 202.097946 182.016563 
L 201.953322 182.033855 
L 201.80899 182.053439 
L 201.664987 182.075311 
L 201.52135 182.099465 
L 201.378114 182.125895 
L 201.235315 182.154594 
L 201.09299 182.185555 
L 200.951173 182.21877 
L 200.809902 182.254231 
L 200.669211 182.291929 
L 200.529135 182.331855 
L 200.389711 182.373997 
L 200.250973 182.418347 
L 200.112956 182.464892 
L 199.975695 182.513622 
L 199.839225 182.564523 
L 199.703579 182.617582 
L 199.568792 182.672788 
L 199.434898 182.730124 
L 199.30193 182.789578 
L 199.169923 182.851134 
L 199.038909 182.914777 
L 198.908921 182.980491 
L 198.779992 183.048258 
L 198.652154 183.118063 
L 198.52544 183.189887 
L 198.399882 183.263712 
L 198.27551 183.339521 
L 198.152358 183.417293 
L 198.030454 183.497009 
L 197.909831 183.578649 
L 197.790518 183.662193 
L 197.672545 183.747619 
L 197.555943 183.834906 
L 197.440741 183.924033 
L 197.326967 184.014975 
L 197.21465 184.107712 
L 197.103819 184.202219 
L 196.994501 184.298472 
L 196.886724 184.396448 
L 196.780515 184.496122 
L 196.675901 184.597468 
L 196.572908 184.700461 
L 196.471562 184.805075 
L 196.371888 184.911284 
L 196.273913 185.019061 
L 196.177659 185.128378 
L 196.083152 185.23921 
L 195.990416 185.351527 
L 195.899473 185.465301 
L 195.810347 185.580503 
L 195.723059 185.697105 
L 195.637633 185.815078 
L 195.554089 185.93439 
L 195.472449 186.055014 
L 195.392733 186.176917 
L 195.314961 186.30007 
L 195.239153 186.424442 
L 195.165327 186.55 
L 195.093503 186.676714 
L 195.023698 186.804552 
L 194.955931 186.933481 
L 194.890217 187.063468 
L 194.826575 187.194483 
L 194.765019 187.32649 
L 194.705565 187.459458 
L 194.648228 187.593352 
L 194.593023 187.728139 
L 194.539963 187.863784 
L 194.489062 188.000255 
L 194.440333 188.137516 
L 194.393787 188.275533 
L 194.349438 188.414271 
L 194.307295 188.553695 
L 194.267369 188.69377 
L 194.229671 188.834461 
L 194.19421 188.975733 
L 194.160995 189.117549 
L 194.130034 189.259875 
L 194.101335 189.402674 
L 194.074905 189.54591 
L 194.050751 189.689547 
L 194.028879 189.83355 
L 194.009295 189.977881 
L 193.992003 190.122505 
L 193.977008 190.267386 
L 193.964313 190.412485 
L 193.953923 190.557768 
L 193.945838 190.703198 
L 193.940062 190.848738 
L 193.936596 190.99435 
L 193.93544 191.14 
L 193.93544 218.68 
L 193.936596 218.82565 
L 193.940062 218.971262 
L 193.945838 219.116802 
L 193.953923 219.262232 
L 193.964313 219.407515 
L 193.977008 219.552614 
L 193.992003 219.697495 
L 194.009295 219.842119 
L 194.028879 219.98645 
L 194.050751 220.130453 
L 194.074905 220.27409 
L 194.101335 220.417326 
L 194.130034 220.560125 
L 194.160995 220.702451 
L 194.19421 220.844267 
L 194.229671 220.985539 
L 194.267369 221.12623 
L 194.307295 221.266305 
L 194.349438 221.405729 
L 194.393787 221.544467 
L 194.440333 221.682484 
L 194.489062 221.819745 
L 194.539963 221.956216 
L 194.593023 222.091861 
L 194.648228 222.226648 
L 194.705565 222.360542 
L 194.765019 222.49351 
L 194.826575 222.625517 
L 194.890217 222.756532 
L 194.955931 222.886519 
L 195.023698 223.015448 
L 195.093503 223.143286 
L 195.165327 223.27 
L 195.239153 223.395558 
L 195.314961 223.51993 
L 195.392733 223.643083 
L 195.472449 223.764986 
L 195.554089 223.88561 
L 195.637633 224.004922 
L 195.723059 224.122895 
L 195.810347 224.239497 
L 195.899473 224.354699 
L 195.990416 224.468473 
L 196.083152 224.58079 
L 196.177659 224.691622 
L 196.273913 224.800939 
L 196.371888 224.908716 
L 196.471562 225.014925 
L 196.572908 225.119539 
L 196.675901 225.222532 
L 196.780515 225.323878 
L 196.886724 225.423552 
L 196.994501 225.521528 
L 197.103819 225.617781 
L 197.21465 225.712288 
L 197.326967 225.805025 
L 197.440741 225.895967 
L 197.555943 225.985094 
L 197.672545 226.072381 
L 197.790518 226.157807 
L 197.909831 226.241351 
L 198.030454 226.322991 
L 198.152358 226.402707 
L 198.27551 226.480479 
L 198.399882 226.556288 
L 198.52544 226.630113 
L 198.652154 226.701937 
L 198.779992 226.771742 
L 198.908921 226.839509 
L 199.038909 226.905223 
L 199.169923 226.968866 
L 199.30193 227.030422 
L 199.434898 227.089876 
L 199.568792 227.147212 
L 199.703579 227.202418 
L 199.839225 227.255477 
L 199.975695 227.306378 
L 200.112956 227.355108 
L 200.250973 227.401653 
L 200.389711 227.446003 
L 200.529135 227.488145 
L 200.669211 227.528071 
L 200.809902 227.565769 
L 200.951173 227.60123 
L 201.09299 227.634445 
L 201.235315 227.665406 
L 201.378114 227.694105 
L 201.52135 227.720535 
L 201.664987 227.744689 
L 201.80899 227.766561 
L 201.953322 227.786145 
L 202.097946 227.803437 
L 202.242826 227.818432 
L 202.387926 227.831127 
L 202.533209 227.841518 
L 202.678638 227.849602 
L 202.824178 227.855378 
L 202.969791 227.858844 
L 203.11544 227.86 
L 200.05544 227.86 
z
" clip-path="url(#p7324eab579)" style="fill: none; stroke-dasharray: 1.85,0.8; stroke-dashoffset: 0; stroke: #0000ff; stroke-width: 0.5; stroke-linecap: round"/>
   </g>
   <g id="patch_9">
    <path d="M 186.6792 179.27124 
C 162.9642 179.27124 181.3242 170.09124 153.7842 170.09124 
" clip-path="url(#p7324eab579)" style="fill: none; stroke: #ff0000; stroke-width: 2; stroke-linejoin: miter; stroke-linecap: round"/>
   </g>
   <g id="patch_10">
    <path d="M 182.8542 176.21124 
L 190.5042 179.27124 
L 182.8542 182.33124 
z
" clip-path="url(#p7324eab579)" style="fill: #ff0000"/>
   </g>
   <g id="line2d_1">
    <path d="M 216.88544 93.22 
L 228.10544 93.22 
" clip-path="url(#p7324eab579)" style="fill: none; stroke: #000000; stroke-width: 2; stroke-linecap: round"/>
   </g>
   <g id="line2d_2">
    <path d="M 228.10544 82 
L 228.10544 104.44 
" clip-path="url(#p7324eab579)" style="fill: none; stroke: #000000; stroke-width: 2; stroke-linecap: round"/>
   </g>
   <g id="line2d_3">
    <path d="M 228.10544 87.61 
L 239.88644 77.512 
L 239.88644 71.902 
" clip-path="url(#p7324eab579)" style="fill: none; stroke: #000000; stroke-width: 2; stroke-linecap: round"/>
   </g>
   <g id="line2d_4">
    <path d="M 228.10544 98.83 
L 239.88644 108.928 
L 239.88644 114.538 
" clip-path="url(#p7324eab579)" style="fill: none; stroke: #000000; stroke-width: 2; stroke-linecap: round"/>
   </g>
   <g id="line2d_5">
    <path d="M 228.10544 98.83 
L 234.078127 103.949446 
" clip-path="url(#p7324eab579)" style="fill: none; stroke: #000000; stroke-width: 2; stroke-linecap: round"/>
   </g>
   <g id="patch_11">
    <path d="M 236.069549 101.626121 
L 239.88644 108.928 
L 232.086706 106.272771 
z
" clip-path="url(#p7324eab579)"/>
   </g>
   <g id="line2d_6">
    <path d="M 216.88544 93.22 
L 209.23544 93.22 
L 201.58544 93.22 
" clip-path="url(#p7324eab579)" style="fill: none; stroke: #000000; stroke-width: 2; stroke-linecap: round"/>
   </g>
   <g id="line2d_7">
    <path d="M 201.58544 93.22 
L 201.58544 110.815 
M 209.23544 121.525 
L 193.93544 121.525 
M 201.58544 121.525 
L 201.58544 139.12 
" clip-path="url(#p7324eab579)" style="fill: none; stroke: #000000; stroke-width: 2; stroke-linecap: round"/>
   </g>
   <g id="line2d_8">
    <path d="M 201.58544 139.12 
L 201.58544 155.185 
M 209.23544 165.895 
L 193.93544 165.895 
M 201.58544 165.895 
L 201.58544 181.96 
" clip-path="url(#p7324eab579)" style="fill: none; stroke: #000000; stroke-width: 2; stroke-linecap: round"/>
   </g>
   <g id="line2d_9">
    <path d="M 201.58544 181.96 
L 209.23544 181.96 
L 216.88544 181.96 
" clip-path="url(#p7324eab579)" style="fill: none; stroke: #000000; stroke-width: 2; stroke-linecap: round"/>
   </g>
   <g id="line2d_10">
    <path d="M 216.88544 181.96 
L 228.10544 181.96 
" clip-path="url(#p7324eab579)" style="fill: none; stroke: #000000; stroke-width: 2; stroke-linecap: round"/>
   </g>
   <g id="line2d_11">
    <path d="M 228.10544 170.74 
L 228.10544 193.18 
" clip-path="url(#p7324eab579)" style="fill: none; stroke: #000000; stroke-width: 2; stroke-linecap: round"/>
   </g>
   <g id="line2d_12">
    <path d="M 228.10544 176.35 
L 239.88644 166.252 
L 239.88644 160.642 
" clip-path="url(#p7324eab579)" style="fill: none; stroke: #000000; stroke-width: 2; stroke-linecap: round"/>
   </g>
   <g id="line2d_13">
    <path d="M 228.10544 187.57 
L 239.88644 197.668 
L 239.88644 203.278 
" clip-path="url(#p7324eab579)" style="fill: none; stroke: #000000; stroke-width: 2; stroke-linecap: round"/>
   </g>
   <g id="line2d_14">
    <path d="M 239.88644 166.252 
L 233.913753 171.371446 
" clip-path="url(#p7324eab579)" style="fill: none; stroke: #000000; stroke-width: 2; stroke-linecap: round"/>
   </g>
   <g id="patch_12">
    <path d="M 235.905175 173.694771 
L 228.10544 176.35 
L 231.922332 169.048121 
z
" clip-path="url(#p7324eab579)"/>
   </g>
   <g id="line2d_15">
    <path d="M 201.58544 93.22 
L 201.58544 85.57 
L 193.93544 83.02 
L 209.23544 77.92 
L 193.93544 72.82 
L 209.23544 67.72 
L 193.93544 62.62 
L 209.23544 57.52 
L 201.58544 54.97 
L 201.58544 47.32 
" clip-path="url(#p7324eab579)" style="fill: none; stroke: #000000; stroke-width: 2; stroke-linecap: round"/>
   </g>
   <g id="line2d_16">
    <path d="M 201.58544 47.32 
L 207.70544 47.32 
L 213.82544 47.32 
" clip-path="url(#p7324eab579)" style="fill: none; stroke: #000000; stroke-width: 2; stroke-linecap: round"/>
   </g>
   <g id="line2d_17">
    <path d="M 213.82544 47.32 
L 213.82544 35.08 
" clip-path="url(#p7324eab579)" style="fill: none; stroke: #000000; stroke-width: 2; stroke-linecap: round"/>
   </g>
   <g id="line2d_18">
    <path d="M 213.82544 35.08 
L 208.08794 35.08 
" clip-path="url(#p7324eab579)" style="fill: none; stroke: #000000; stroke-width: 2; stroke-linecap: round"/>
   </g>
   <g id="line2d_19">
    <path d="M 213.82544 35.08 
L 219.56294 35.08 
" clip-path="url(#p7324eab579)" style="fill: none; stroke: #000000; stroke-width: 2; stroke-linecap: round"/>
   </g>
   <g id="line2d_20">
    <path d="M 213.82544 47.32 
L 226.85594 47.32 
L 239.88644 47.32 
" clip-path="url(#p7324eab579)" style="fill: none; stroke: #000000; stroke-width: 2; stroke-linecap: round"/>
   </g>
   <g id="line2d_21">
    <path d="M 239.88644 47.32 
L 239.88644 59.611 
L 239.88644 71.902 
" clip-path="url(#p7324eab579)" style="fill: none; stroke: #000000; stroke-width: 2; stroke-linecap: round"/>
   </g>
   <g id="line2d_22">
    <path d="M 201.58544 181.96 
L 201.58544 189.61 
L 209.23544 192.16 
L 193.93544 197.26 
L 209.23544 202.36 
L 193.93544 207.46 
L 209.23544 212.56 
L 193.93544 217.66 
L 201.58544 220.21 
L 201.58544 227.86 
" clip-path="url(#p7324eab579)" style="fill: none; stroke: #000000; stroke-width: 2; stroke-linecap: round"/>
   </g>
   <g id="line2d_23">
    <path d="M 201.58544 227.86 
L 207.70544 227.86 
L 213.82544 227.86 
" clip-path="url(#p7324eab579)" style="fill: none; stroke: #000000; stroke-width: 2; stroke-linecap: round"/>
   </g>
   <g id="line2d_24">
    <path d="M 213.82544 227.86 
L 213.82544 240.1 
" clip-path="url(#p7324eab579)" style="fill: none; stroke: #000000; stroke-width: 2; stroke-linecap: round"/>
   </g>
   <g id="line2d_25">
    <path d="M 213.82544 240.1 
L 208.08794 240.1 
" clip-path="url(#p7324eab579)" style="fill: none; stroke: #000000; stroke-width: 2; stroke-linecap: round"/>
   </g>
   <g id="line2d_26">
    <path d="M 213.82544 240.1 
L 219.56294 240.1 
" clip-path="url(#p7324eab579)" style="fill: none; stroke: #000000; stroke-width: 2; stroke-linecap: round"/>
   </g>
   <g id="line2d_27">
    <path d="M 213.82544 227.86 
L 226.85594 227.86 
L 239.88644 227.86 
" clip-path="url(#p7324eab579)" style="fill: none; stroke: #000000; stroke-width: 2; stroke-linecap: round"/>
   </g>
   <g id="line2d_28">
    <path d="M 239.88644 227.86 
L 239.88644 215.569 
L 239.88644 203.278 
" clip-path="url(#p7324eab579)" style="fill: none; stroke: #000000; stroke-width: 2; stroke-linecap: round"/>
   </g>
   <g id="line2d_29">
    <path d="M 201.58544 139.12 
L 193.93544 139.12 
L 186.28544 139.12 
" clip-path="url(#p7324eab579)" style="fill: none; stroke: #000000; stroke-width: 2; stroke-linecap: round"/>
   </g>
   <g id="line2d_30">
    <path d="M 239.88644 114.538 
L 239.88644 126.778 
L 239.88644 139.018 
" clip-path="url(#p7324eab579)" style="fill: none; stroke: #000000; stroke-width: 2; stroke-linecap: round"/>
   </g>
   <g id="line2d_31">
    <path d="M 239.88644 139.018 
L 239.88644 149.83 
L 239.88644 160.642 
" clip-path="url(#p7324eab579)" style="fill: none; stroke: #000000; stroke-width: 2; stroke-linecap: round"/>
   </g>
   <g id="line2d_32">
    <path d="M 239.88644 139.018 
L 262.83644 139.018 
L 285.78644 139.018 
" clip-path="url(#p7324eab579)" style="fill: none; stroke: #000000; stroke-width: 2; stroke-linecap: round"/>
   </g>
   <g id="line2d_33">
    <path d="M 285.78644 139.018 
L 285.78644 146.668 
L 293.43644 149.218 
L 278.13644 154.318 
L 293.43644 159.418 
L 278.13644 164.518 
L 293.43644 169.618 
L 278.13644 174.718 
L 285.78644 177.268 
L 285.78644 184.918 
" clip-path="url(#p7324eab579)" style="fill: none; stroke: #000000; stroke-width: 2; stroke-linecap: round"/>
   </g>
   <g id="line2d_34">
    <path d="M 285.78644 184.918 
L 285.78644 197.158 
L 278.13644 197.158 
L 293.43644 197.158 
M 280.43144 200.83 
L 291.14144 200.83 
M 284.25644 204.502 
L 287.31644 204.502 
" clip-path="url(#p7324eab579)" style="fill: none; stroke: #000000; stroke-width: 2; stroke-linecap: round"/>
   </g>
   <g id="line2d_35">
    <path d="M 285.78644 139.018 
L 293.43644 139.018 
L 301.08644 139.018 
" clip-path="url(#p7324eab579)" style="fill: none; stroke: #000000; stroke-width: 2; stroke-linecap: round"/>
   </g>
   <g id="text_1">
    <g clip-path="url(#p7324eab579)">
     <!-- $R_1$ -->
     <g transform="translate(176.25044 73.719219)scale(0.125 -0.125)">
      <defs>
       <path id="DejaVuSans-Oblique-52" d="M 1613 4147 
L 1294 2491 
L 2106 2491 
Q 2584 2491 2879 2755 
Q 3175 3019 3175 3444 
Q 3175 3784 2976 3965 
Q 2778 4147 2406 4147 
L 1613 4147 
z
M 2772 2241 
Q 2972 2194 3105 2009 
Q 3238 1825 3413 1275 
L 3809 0 
L 3144 0 
L 2778 1197 
Q 2638 1659 2453 1815 
Q 2269 1972 1888 1972 
L 1191 1972 
L 806 0 
L 172 0 
L 1081 4666 
L 2503 4666 
Q 3150 4666 3495 4373 
Q 3841 4081 3841 3531 
Q 3841 3044 3547 2687 
Q 3253 2331 2772 2241 
z
" transform="scale(0.015625)"/>
       <path id="DejaVuSans-31" d="M 794 531 
L 1825 531 
L 1825 4091 
L 703 3866 
L 703 4441 
L 1819 4666 
L 2450 4666 
L 2450 531 
L 3481 531 
L 3481 0 
L 794 0 
L 794 531 
z
" transform="scale(0.015625)"/>
      </defs>
      <use xlink:href="#DejaVuSans-Oblique-52" transform="translate(0 0.09375)"/>
      <use xlink:href="#DejaVuSans-31" transform="translate(69.482422 -16.3125)scale(0.7)"/>
     </g>
    </g>
   </g>
   <g id="text_2">
    <g clip-path="url(#p7324eab579)">
     <!-- $V_{DD}$ -->
     <g transform="translate(202.63794 29.420391)scale(0.125 -0.125)">
      <defs>
       <path id="DejaVuSans-Oblique-56" d="M 1319 0 
L 500 4666 
L 1119 4666 
L 1797 653 
L 4063 4666 
L 4750 4666 
L 2053 0 
L 1319 0 
z
" transform="scale(0.015625)"/>
       <path id="DejaVuSans-Oblique-44" d="M 1081 4666 
L 2438 4666 
Q 3519 4666 4070 4208 
Q 4622 3750 4622 2847 
Q 4622 2250 4412 1698 
Q 4203 1147 3834 769 
Q 3463 381 2891 190 
Q 2319 0 1538 0 
L 172 0 
L 1081 4666 
z
M 1613 4147 
L 909 519 
L 1734 519 
Q 2794 519 3375 1128 
Q 3956 1738 3956 2847 
Q 3956 3519 3581 3833 
Q 3206 4147 2406 4147 
L 1613 4147 
z
" transform="scale(0.015625)"/>
      </defs>
      <use xlink:href="#DejaVuSans-Oblique-56" transform="translate(0 0.09375)"/>
      <use xlink:href="#DejaVuSans-Oblique-44" transform="translate(68.408203 -16.3125)scale(0.7)"/>
      <use xlink:href="#DejaVuSans-Oblique-44" transform="translate(122.30957 -16.3125)scale(0.7)"/>
     </g>
    </g>
   </g>
   <g id="text_3">
    <g clip-path="url(#p7324eab579)">
     <!-- $R_2$ -->
     <g transform="translate(176.25044 208.359219)scale(0.125 -0.125)">
      <defs>
       <path id="DejaVuSans-32" d="M 1228 531 
L 3431 531 
L 3431 0 
L 469 0 
L 469 531 
Q 828 903 1448 1529 
Q 2069 2156 2228 2338 
Q 2531 2678 2651 2914 
Q 2772 3150 2772 3378 
Q 2772 3750 2511 3984 
Q 2250 4219 1831 4219 
Q 1534 4219 1204 4116 
Q 875 4013 500 3803 
L 500 4441 
Q 881 4594 1212 4672 
Q 1544 4750 1819 4750 
Q 2544 4750 2975 4387 
Q 3406 4025 3406 3419 
Q 3406 3131 3298 2873 
Q 3191 2616 2906 2266 
Q 2828 2175 2409 1742 
Q 1991 1309 1228 531 
z
" transform="scale(0.015625)"/>
      </defs>
      <use xlink:href="#DejaVuSans-Oblique-52" transform="translate(0 0.09375)"/>
      <use xlink:href="#DejaVuSans-32" transform="translate(69.482422 -16.3125)scale(0.7)"/>
     </g>
    </g>
   </g>
   <g id="text_4">
    <g clip-path="url(#p7324eab579)">
     <!-- -$V_{DD}$ -->
     <g transform="translate(200.32544 252.658047)scale(0.125 -0.125)">
      <defs>
       <path id="DejaVuSans-2d" d="M 313 2009 
L 1997 2009 
L 1997 1497 
L 313 1497 
L 313 2009 
z
" transform="scale(0.015625)"/>
      </defs>
      <use xlink:href="#DejaVuSans-2d" transform="translate(0 0.09375)"/>
      <use xlink:href="#DejaVuSans-Oblique-56" transform="translate(36.083984 0.09375)"/>
      <use xlink:href="#DejaVuSans-Oblique-44" transform="translate(104.492188 -16.3125)scale(0.7)"/>
      <use xlink:href="#DejaVuSans-Oblique-44" transform="translate(158.393555 -16.3125)scale(0.7)"/>
     </g>
    </g>
   </g>
   <g id="text_5">
    <g clip-path="url(#p7324eab579)">
     <!-- $R_L$ -->
     <g transform="translate(261.07644 165.417219)scale(0.125 -0.125)">
      <defs>
       <path id="DejaVuSans-Oblique-4c" d="M 1075 4666 
L 1709 4666 
L 909 525 
L 3181 525 
L 3078 0 
L 172 0 
L 1075 4666 
z
" transform="scale(0.015625)"/>
      </defs>
      <use xlink:href="#DejaVuSans-Oblique-52" transform="translate(0 0.09375)"/>
      <use xlink:href="#DejaVuSans-Oblique-4c" transform="translate(69.482422 -16.3125)scale(0.7)"/>
     </g>
    </g>
   </g>
   <g id="text_6">
    <g clip-path="url(#p7324eab579)">
     <!-- Voorinstelspanning -->
     <g style="fill: #ff0000" transform="translate(31.454669 173.540459)scale(0.125 -0.125)">
      <defs>
       <path id="DejaVuSans-56" d="M 1831 0 
L 50 4666 
L 709 4666 
L 2188 738 
L 3669 4666 
L 4325 4666 
L 2547 0 
L 1831 0 
z
" transform="scale(0.015625)"/>
       <path id="DejaVuSans-6f" d="M 1959 3097 
Q 1497 3097 1228 2736 
Q 959 2375 959 1747 
Q 959 1119 1226 758 
Q 1494 397 1959 397 
Q 2419 397 2687 759 
Q 2956 1122 2956 1747 
Q 2956 2369 2687 2733 
Q 2419 3097 1959 3097 
z
M 1959 3584 
Q 2709 3584 3137 3096 
Q 3566 2609 3566 1747 
Q 3566 888 3137 398 
Q 2709 -91 1959 -91 
Q 1206 -91 779 398 
Q 353 888 353 1747 
Q 353 2609 779 3096 
Q 1206 3584 1959 3584 
z
" transform="scale(0.015625)"/>
       <path id="DejaVuSans-72" d="M 2631 2963 
Q 2534 3019 2420 3045 
Q 2306 3072 2169 3072 
Q 1681 3072 1420 2755 
Q 1159 2438 1159 1844 
L 1159 0 
L 581 0 
L 581 3500 
L 1159 3500 
L 1159 2956 
Q 1341 3275 1631 3429 
Q 1922 3584 2338 3584 
Q 2397 3584 2469 3576 
Q 2541 3569 2628 3553 
L 2631 2963 
z
" transform="scale(0.015625)"/>
       <path id="DejaVuSans-69" d="M 603 3500 
L 1178 3500 
L 1178 0 
L 603 0 
L 603 3500 
z
M 603 4863 
L 1178 4863 
L 1178 4134 
L 603 4134 
L 603 4863 
z
" transform="scale(0.015625)"/>
       <path id="DejaVuSans-6e" d="M 3513 2113 
L 3513 0 
L 2938 0 
L 2938 2094 
Q 2938 2591 2744 2837 
Q 2550 3084 2163 3084 
Q 1697 3084 1428 2787 
Q 1159 2491 1159 1978 
L 1159 0 
L 581 0 
L 581 3500 
L 1159 3500 
L 1159 2956 
Q 1366 3272 1645 3428 
Q 1925 3584 2291 3584 
Q 2894 3584 3203 3211 
Q 3513 2838 3513 2113 
z
" transform="scale(0.015625)"/>
       <path id="DejaVuSans-73" d="M 2834 3397 
L 2834 2853 
Q 2591 2978 2328 3040 
Q 2066 3103 1784 3103 
Q 1356 3103 1142 2972 
Q 928 2841 928 2578 
Q 928 2378 1081 2264 
Q 1234 2150 1697 2047 
L 1894 2003 
Q 2506 1872 2764 1633 
Q 3022 1394 3022 966 
Q 3022 478 2636 193 
Q 2250 -91 1575 -91 
Q 1294 -91 989 -36 
Q 684 19 347 128 
L 347 722 
Q 666 556 975 473 
Q 1284 391 1588 391 
Q 1994 391 2212 530 
Q 2431 669 2431 922 
Q 2431 1156 2273 1281 
Q 2116 1406 1581 1522 
L 1381 1569 
Q 847 1681 609 1914 
Q 372 2147 372 2553 
Q 372 3047 722 3315 
Q 1072 3584 1716 3584 
Q 2034 3584 2315 3537 
Q 2597 3491 2834 3397 
z
" transform="scale(0.015625)"/>
       <path id="DejaVuSans-74" d="M 1172 4494 
L 1172 3500 
L 2356 3500 
L 2356 3053 
L 1172 3053 
L 1172 1153 
Q 1172 725 1289 603 
Q 1406 481 1766 481 
L 2356 481 
L 2356 0 
L 1766 0 
Q 1100 0 847 248 
Q 594 497 594 1153 
L 594 3053 
L 172 3053 
L 172 3500 
L 594 3500 
L 594 4494 
L 1172 4494 
z
" transform="scale(0.015625)"/>
       <path id="DejaVuSans-65" d="M 3597 1894 
L 3597 1613 
L 953 1613 
Q 991 1019 1311 708 
Q 1631 397 2203 397 
Q 2534 397 2845 478 
Q 3156 559 3463 722 
L 3463 178 
Q 3153 47 2828 -22 
Q 2503 -91 2169 -91 
Q 1331 -91 842 396 
Q 353 884 353 1716 
Q 353 2575 817 3079 
Q 1281 3584 2069 3584 
Q 2775 3584 3186 3129 
Q 3597 2675 3597 1894 
z
M 3022 2063 
Q 3016 2534 2758 2815 
Q 2500 3097 2075 3097 
Q 1594 3097 1305 2825 
Q 1016 2553 972 2059 
L 3022 2063 
z
" transform="scale(0.015625)"/>
       <path id="DejaVuSans-6c" d="M 603 4863 
L 1178 4863 
L 1178 0 
L 603 0 
L 603 4863 
z
" transform="scale(0.015625)"/>
       <path id="DejaVuSans-70" d="M 1159 525 
L 1159 -1331 
L 581 -1331 
L 581 3500 
L 1159 3500 
L 1159 2969 
Q 1341 3281 1617 3432 
Q 1894 3584 2278 3584 
Q 2916 3584 3314 3078 
Q 3713 2572 3713 1747 
Q 3713 922 3314 415 
Q 2916 -91 2278 -91 
Q 1894 -91 1617 61 
Q 1341 213 1159 525 
z
M 3116 1747 
Q 3116 2381 2855 2742 
Q 2594 3103 2138 3103 
Q 1681 3103 1420 2742 
Q 1159 2381 1159 1747 
Q 1159 1113 1420 752 
Q 1681 391 2138 391 
Q 2594 391 2855 752 
Q 3116 1113 3116 1747 
z
" transform="scale(0.015625)"/>
       <path id="DejaVuSans-61" d="M 2194 1759 
Q 1497 1759 1228 1600 
Q 959 1441 959 1056 
Q 959 750 1161 570 
Q 1363 391 1709 391 
Q 2188 391 2477 730 
Q 2766 1069 2766 1631 
L 2766 1759 
L 2194 1759 
z
M 3341 1997 
L 3341 0 
L 2766 0 
L 2766 531 
Q 2569 213 2275 61 
Q 1981 -91 1556 -91 
Q 1019 -91 701 211 
Q 384 513 384 1019 
Q 384 1609 779 1909 
Q 1175 2209 1959 2209 
L 2766 2209 
L 2766 2266 
Q 2766 2663 2505 2880 
Q 2244 3097 1772 3097 
Q 1472 3097 1187 3025 
Q 903 2953 641 2809 
L 641 3341 
Q 956 3463 1253 3523 
Q 1550 3584 1831 3584 
Q 2591 3584 2966 3190 
Q 3341 2797 3341 1997 
z
" transform="scale(0.015625)"/>
       <path id="DejaVuSans-67" d="M 2906 1791 
Q 2906 2416 2648 2759 
Q 2391 3103 1925 3103 
Q 1463 3103 1205 2759 
Q 947 2416 947 1791 
Q 947 1169 1205 825 
Q 1463 481 1925 481 
Q 2391 481 2648 825 
Q 2906 1169 2906 1791 
z
M 3481 434 
Q 3481 -459 3084 -895 
Q 2688 -1331 1869 -1331 
Q 1566 -1331 1297 -1286 
Q 1028 -1241 775 -1147 
L 775 -588 
Q 1028 -725 1275 -790 
Q 1522 -856 1778 -856 
Q 2344 -856 2625 -561 
Q 2906 -266 2906 331 
L 2906 616 
Q 2728 306 2450 153 
Q 2172 0 1784 0 
Q 1141 0 747 490 
Q 353 981 353 1791 
Q 353 2603 747 3093 
Q 1141 3584 1784 3584 
Q 2172 3584 2450 3431 
Q 2728 3278 2906 2969 
L 2906 3500 
L 3481 3500 
L 3481 434 
z
" transform="scale(0.015625)"/>
      </defs>
      <use xlink:href="#DejaVuSans-56"/>
      <use xlink:href="#DejaVuSans-6f" x="60.658203"/>
      <use xlink:href="#DejaVuSans-6f" x="121.839844"/>
      <use xlink:href="#DejaVuSans-72" x="183.021484"/>
      <use xlink:href="#DejaVuSans-69" x="224.134766"/>
      <use xlink:href="#DejaVuSans-6e" x="251.917969"/>
      <use xlink:href="#DejaVuSans-73" x="315.296875"/>
      <use xlink:href="#DejaVuSans-74" x="367.396484"/>
      <use xlink:href="#DejaVuSans-65" x="406.605469"/>
      <use xlink:href="#DejaVuSans-6c" x="468.128906"/>
      <use xlink:href="#DejaVuSans-73" x="495.912109"/>
      <use xlink:href="#DejaVuSans-70" x="548.011719"/>
      <use xlink:href="#DejaVuSans-61" x="611.488281"/>
      <use xlink:href="#DejaVuSans-6e" x="672.767578"/>
      <use xlink:href="#DejaVuSans-6e" x="736.146484"/>
      <use xlink:href="#DejaVuSans-69" x="799.525391"/>
      <use xlink:href="#DejaVuSans-6e" x="827.308594"/>
      <use xlink:href="#DejaVuSans-67" x="890.6875"/>
     </g>
    </g>
   </g>
   <g id="patch_13">
    <path d="M 201.58544 95.515 
C 202.194081 95.515 202.777876 95.273184 203.20825 94.84281 
C 203.638625 94.412436 203.88044 93.828641 203.88044 93.22 
C 203.88044 92.611359 203.638625 92.027564 203.20825 91.59719 
C 202.777876 91.166816 202.194081 90.925 201.58544 90.925 
C 200.976799 90.925 200.393004 91.166816 199.96263 91.59719 
C 199.532256 92.027564 199.29044 92.611359 199.29044 93.22 
C 199.29044 93.828641 199.532256 94.412436 199.96263 94.84281 
C 200.393004 95.273184 200.976799 95.515 201.58544 95.515 
z
" clip-path="url(#p7324eab579)" style="stroke: #000000; stroke-width: 2; stroke-linejoin: miter"/>
   </g>
   <g id="patch_14">
    <path d="M 201.58544 141.415 
C 202.194081 141.415 202.777876 141.173184 203.20825 140.74281 
C 203.638625 140.312436 203.88044 139.728641 203.88044 139.12 
C 203.88044 138.511359 203.638625 137.927564 203.20825 137.49719 
C 202.777876 137.066816 202.194081 136.825 201.58544 136.825 
C 200.976799 136.825 200.393004 137.066816 199.96263 137.49719 
C 199.532256 137.927564 199.29044 138.511359 199.29044 139.12 
C 199.29044 139.728641 199.532256 140.312436 199.96263 140.74281 
C 200.393004 141.173184 200.976799 141.415 201.58544 141.415 
z
" clip-path="url(#p7324eab579)" style="stroke: #000000; stroke-width: 2; stroke-linejoin: miter"/>
   </g>
   <g id="patch_15">
    <path d="M 201.58544 184.255 
C 202.194081 184.255 202.777876 184.013184 203.20825 183.58281 
C 203.638625 183.152436 203.88044 182.568641 203.88044 181.96 
C 203.88044 181.351359 203.638625 180.767564 203.20825 180.33719 
C 202.777876 179.906816 202.194081 179.665 201.58544 179.665 
C 200.976799 179.665 200.393004 179.906816 199.96263 180.33719 
C 199.532256 180.767564 199.29044 181.351359 199.29044 181.96 
C 199.29044 182.568641 199.532256 183.152436 199.96263 183.58281 
C 200.393004 184.013184 200.976799 184.255 201.58544 184.255 
z
" clip-path="url(#p7324eab579)" style="stroke: #000000; stroke-width: 2; stroke-linejoin: miter"/>
   </g>
   <g id="patch_16">
    <path d="M 186.28544 141.415 
C 186.894081 141.415 187.477876 141.173184 187.90825 140.74281 
C 188.338625 140.312436 188.58044 139.728641 188.58044 139.12 
C 188.58044 138.511359 188.338625 137.927564 187.90825 137.49719 
C 187.477876 137.066816 186.894081 136.825 186.28544 136.825 
C 185.676799 136.825 185.093004 137.066816 184.66263 137.49719 
C 184.232256 137.927564 183.99044 138.511359 183.99044 139.12 
C 183.99044 139.728641 184.232256 140.312436 184.66263 140.74281 
C 185.093004 141.173184 185.676799 141.415 186.28544 141.415 
z
" clip-path="url(#p7324eab579)" style="fill: #ffffff; stroke: #000000; stroke-width: 2; stroke-linejoin: miter"/>
   </g>
   <g id="patch_17">
    <path d="M 239.88644 141.313 
C 240.495081 141.313 241.078876 141.071184 241.50925 140.64081 
C 241.939625 140.210436 242.18144 139.626641 242.18144 139.018 
C 242.18144 138.409359 241.939625 137.825564 241.50925 137.39519 
C 241.078876 136.964816 240.495081 136.723 239.88644 136.723 
C 239.277799 136.723 238.694004 136.964816 238.26363 137.39519 
C 237.833256 137.825564 237.59144 138.409359 237.59144 139.018 
C 237.59144 139.626641 237.833256 140.210436 238.26363 140.64081 
C 238.694004 141.071184 239.277799 141.313 239.88644 141.313 
z
" clip-path="url(#p7324eab579)" style="stroke: #000000; stroke-width: 2; stroke-linejoin: miter"/>
   </g>
   <g id="patch_18">
    <path d="M 301.08644 141.313 
C 301.695081 141.313 302.278876 141.071184 302.70925 140.64081 
C 303.139625 140.210436 303.38144 139.626641 303.38144 139.018 
C 303.38144 138.409359 303.139625 137.825564 302.70925 137.39519 
C 302.278876 136.964816 301.695081 136.723 301.08644 136.723 
C 300.477799 136.723 299.894004 136.964816 299.46363 137.39519 
C 299.033256 137.825564 298.79144 138.409359 298.79144 139.018 
C 298.79144 139.626641 299.033256 140.210436 299.46363 140.64081 
C 299.894004 141.071184 300.477799 141.313 301.08644 141.313 
z
" clip-path="url(#p7324eab579)" style="fill: #ffffff; stroke: #000000; stroke-width: 2; stroke-linejoin: miter"/>
   </g>
   <g id="text_7">
    <g clip-path="url(#p7324eab579)">
     <!-- $v_{out}$ -->
     <g transform="translate(290.02394 131.063391)scale(0.125 -0.125)">
      <defs>
       <path id="DejaVuSans-Oblique-76" d="M 459 3500 
L 1069 3500 
L 1581 525 
L 3256 3500 
L 3866 3500 
L 1875 0 
L 1100 0 
L 459 3500 
z
" transform="scale(0.015625)"/>
       <path id="DejaVuSans-Oblique-6f" d="M 1625 -91 
Q 1009 -91 651 289 
Q 294 669 294 1325 
Q 294 1706 417 2101 
Q 541 2497 738 2766 
Q 1047 3184 1428 3384 
Q 1809 3584 2291 3584 
Q 2888 3584 3255 3212 
Q 3622 2841 3622 2241 
Q 3622 1825 3500 1412 
Q 3378 1000 3181 728 
Q 2875 309 2494 109 
Q 2113 -91 1625 -91 
z
M 891 1344 
Q 891 869 1089 633 
Q 1288 397 1691 397 
Q 2269 397 2648 901 
Q 3028 1406 3028 2181 
Q 3028 2634 2825 2865 
Q 2622 3097 2228 3097 
Q 1903 3097 1650 2945 
Q 1397 2794 1197 2484 
Q 1050 2253 970 1956 
Q 891 1659 891 1344 
z
" transform="scale(0.015625)"/>
       <path id="DejaVuSans-Oblique-75" d="M 428 1388 
L 838 3500 
L 1416 3500 
L 1006 1409 
Q 975 1256 961 1147 
Q 947 1038 947 966 
Q 947 700 1109 554 
Q 1272 409 1569 409 
Q 2031 409 2368 721 
Q 2706 1034 2809 1563 
L 3194 3500 
L 3769 3500 
L 3091 0 
L 2516 0 
L 2631 550 
Q 2388 244 2052 76 
Q 1716 -91 1338 -91 
Q 878 -91 622 161 
Q 366 413 366 863 
Q 366 956 381 1097 
Q 397 1238 428 1388 
z
" transform="scale(0.015625)"/>
       <path id="DejaVuSans-Oblique-74" d="M 2706 3500 
L 2619 3053 
L 1472 3053 
L 1100 1153 
Q 1081 1047 1072 975 
Q 1063 903 1063 863 
Q 1063 663 1183 572 
Q 1303 481 1569 481 
L 2150 481 
L 2053 0 
L 1503 0 
Q 991 0 739 200 
Q 488 400 488 806 
Q 488 878 497 964 
Q 506 1050 525 1153 
L 897 3053 
L 409 3053 
L 500 3500 
L 978 3500 
L 1172 4494 
L 1747 4494 
L 1556 3500 
L 2706 3500 
z
" transform="scale(0.015625)"/>
      </defs>
      <use xlink:href="#DejaVuSans-Oblique-76" transform="translate(0 0.3125)"/>
      <use xlink:href="#DejaVuSans-Oblique-6f" transform="translate(59.179688 -16.09375)scale(0.7)"/>
      <use xlink:href="#DejaVuSans-Oblique-75" transform="translate(102.006836 -16.09375)scale(0.7)"/>
      <use xlink:href="#DejaVuSans-Oblique-74" transform="translate(146.37207 -16.09375)scale(0.7)"/>
     </g>
    </g>
   </g>
  </g>
 </g>
 <defs>
  <clipPath id="p7324eab579">
   <rect x="7.2" y="7.2" width="322.10984" height="254.66"/>
  </clipPath>
 </defs>
</svg>