<?xml version="1.0" encoding="utf-8" standalone="no"?>
<!DOCTYPE svg PUBLIC "-//W3C//DTD SVG 1.1//EN"
  "http://www.w3.org/Graphics/SVG/1.1/DTD/svg11.dtd">
<svg xmlns:xlink="http://www.w3.org/1999/xlink" width="160.3722pt" height="219.896pt" viewBox="0 0 160.3722 219.896" xmlns="http://www.w3.org/2000/svg" version="1.1">
 <metadata>
  <rdf:RDF xmlns:dc="http://purl.org/dc/elements/1.1/" xmlns:cc="http://creativecommons.org/ns#" xmlns:rdf="http://www.w3.org/1999/02/22-rdf-syntax-ns#">
   <cc:Work>
    <dc:type rdf:resource="http://purl.org/dc/dcmitype/StillImage"/>
    <dc:date>2022-03-27T14:56:52.964788</dc:date>
    <dc:format>image/svg+xml</dc:format>
    <dc:creator>
     <cc:Agent>
      <dc:title>Matplotlib v3.5.1, https://matplotlib.org/</dc:title>
     </cc:Agent>
    </dc:creator>
   </cc:Work>
  </rdf:RDF>
 </metadata>
 <defs>
  <style type="text/css">*{stroke-linejoin: round; stroke-linecap: butt}</style>
 </defs>
 <g id="figure_1">
  <g id="patch_1">
   <path d="M 0 219.896 
L 160.3722 219.896 
L 160.3722 0 
L 0 0 
L 0 219.896 
z
" style="fill: none"/>
  </g>
  <g id="axes_1">
   <g id="line2d_1">
    <path d="M 40.7478 68.638 
L 51.9678 68.638 
" clip-path="url(#p19f485ba84)" style="fill: none; stroke: #000000; stroke-width: 2; stroke-linecap: round"/>
   </g>
   <g id="line2d_2">
    <path d="M 51.9678 57.418 
L 51.9678 79.858 
" clip-path="url(#p19f485ba84)" style="fill: none; stroke: #000000; stroke-width: 2; stroke-linecap: round"/>
   </g>
   <g id="line2d_3">
    <path d="M 51.9678 63.028 
L 63.7488 52.93 
L 63.7488 47.32 
" clip-path="url(#p19f485ba84)" style="fill: none; stroke: #000000; stroke-width: 2; stroke-linecap: round"/>
   </g>
   <g id="line2d_4">
    <path d="M 51.9678 74.248 
L 63.7488 84.346 
L 63.7488 89.956 
" clip-path="url(#p19f485ba84)" style="fill: none; stroke: #000000; stroke-width: 2; stroke-linecap: round"/>
   </g>
   <g id="line2d_5">
    <path d="M 51.9678 74.248 
L 57.940487 79.367446 
" clip-path="url(#p19f485ba84)" style="fill: none; stroke: #000000; stroke-width: 2; stroke-linecap: round"/>
   </g>
   <g id="patch_2">
    <path d="M 59.931909 77.044121 
L 63.7488 84.346 
L 55.949065 81.690771 
z
" clip-path="url(#p19f485ba84)"/>
   </g>
   <g id="line2d_6">
    <path d="M 40.7478 68.638 
L 40.7478 91.588 
L 40.7478 114.538 
" clip-path="url(#p19f485ba84)" style="fill: none; stroke: #000000; stroke-width: 2; stroke-linecap: round"/>
   </g>
   <g id="line2d_7">
    <path d="M 40.7478 114.538 
L 40.7478 135.958 
L 40.7478 157.378 
" clip-path="url(#p19f485ba84)" style="fill: none; stroke: #000000; stroke-width: 2; stroke-linecap: round"/>
   </g>
   <g id="line2d_8">
    <path d="M 40.7478 157.378 
L 51.9678 157.378 
" clip-path="url(#p19f485ba84)" style="fill: none; stroke: #000000; stroke-width: 2; stroke-linecap: round"/>
   </g>
   <g id="line2d_9">
    <path d="M 51.9678 146.158 
L 51.9678 168.598 
" clip-path="url(#p19f485ba84)" style="fill: none; stroke: #000000; stroke-width: 2; stroke-linecap: round"/>
   </g>
   <g id="line2d_10">
    <path d="M 51.9678 151.768 
L 63.7488 141.67 
L 63.7488 136.06 
" clip-path="url(#p19f485ba84)" style="fill: none; stroke: #000000; stroke-width: 2; stroke-linecap: round"/>
   </g>
   <g id="line2d_11">
    <path d="M 51.9678 162.988 
L 63.7488 173.086 
L 63.7488 178.696 
" clip-path="url(#p19f485ba84)" style="fill: none; stroke: #000000; stroke-width: 2; stroke-linecap: round"/>
   </g>
   <g id="line2d_12">
    <path d="M 63.7488 141.67 
L 57.776113 146.789446 
" clip-path="url(#p19f485ba84)" style="fill: none; stroke: #000000; stroke-width: 2; stroke-linecap: round"/>
   </g>
   <g id="patch_3">
    <path d="M 59.767535 149.112771 
L 51.9678 151.768 
L 55.784691 144.466121 
z
" clip-path="url(#p19f485ba84)"/>
   </g>
   <g id="line2d_13">
    <path d="M 63.7488 47.32 
L 63.7488 35.08 
" clip-path="url(#p19f485ba84)" style="fill: none; stroke: #000000; stroke-width: 2; stroke-linecap: round"/>
   </g>
   <g id="line2d_14">
    <path d="M 63.7488 35.08 
L 58.0113 35.08 
" clip-path="url(#p19f485ba84)" style="fill: none; stroke: #000000; stroke-width: 2; stroke-linecap: round"/>
   </g>
   <g id="line2d_15">
    <path d="M 63.7488 35.08 
L 69.4863 35.08 
" clip-path="url(#p19f485ba84)" style="fill: none; stroke: #000000; stroke-width: 2; stroke-linecap: round"/>
   </g>
   <g id="line2d_16">
    <path d="M 40.7478 114.538 
L 33.0978 114.538 
L 25.4478 114.538 
" clip-path="url(#p19f485ba84)" style="fill: none; stroke: #000000; stroke-width: 2; stroke-linecap: round"/>
   </g>
   <g id="line2d_17">
    <path d="M 63.7488 89.956 
L 63.7488 102.196 
L 63.7488 114.436 
" clip-path="url(#p19f485ba84)" style="fill: none; stroke: #000000; stroke-width: 2; stroke-linecap: round"/>
   </g>
   <g id="line2d_18">
    <path d="M 63.7488 114.436 
L 63.7488 125.248 
L 63.7488 136.06 
" clip-path="url(#p19f485ba84)" style="fill: none; stroke: #000000; stroke-width: 2; stroke-linecap: round"/>
   </g>
   <g id="line2d_19">
    <path d="M 63.7488 178.696 
L 63.7488 190.936 
" clip-path="url(#p19f485ba84)" style="fill: none; stroke: #000000; stroke-width: 2; stroke-linecap: round"/>
   </g>
   <g id="line2d_20">
    <path d="M 63.7488 190.936 
L 58.0113 190.936 
" clip-path="url(#p19f485ba84)" style="fill: none; stroke: #000000; stroke-width: 2; stroke-linecap: round"/>
   </g>
   <g id="line2d_21">
    <path d="M 63.7488 190.936 
L 69.4863 190.936 
" clip-path="url(#p19f485ba84)" style="fill: none; stroke: #000000; stroke-width: 2; stroke-linecap: round"/>
   </g>
   <g id="line2d_22">
    <path d="M 63.7488 114.436 
L 86.6988 114.436 
L 109.6488 114.436 
" clip-path="url(#p19f485ba84)" style="fill: none; stroke: #000000; stroke-width: 2; stroke-linecap: round"/>
   </g>
   <g id="line2d_23">
    <path d="M 109.6488 114.436 
L 109.6488 122.086 
L 117.2988 124.636 
L 101.9988 129.736 
L 117.2988 134.836 
L 101.9988 139.936 
L 117.2988 145.036 
L 101.9988 150.136 
L 109.6488 152.686 
L 109.6488 160.336 
" clip-path="url(#p19f485ba84)" style="fill: none; stroke: #000000; stroke-width: 2; stroke-linecap: round"/>
   </g>
   <g id="line2d_24">
    <path d="M 109.6488 160.336 
L 109.6488 172.576 
L 101.9988 172.576 
L 117.2988 172.576 
M 104.2938 176.248 
L 115.0038 176.248 
M 108.1188 179.92 
L 111.1788 179.92 
" clip-path="url(#p19f485ba84)" style="fill: none; stroke: #000000; stroke-width: 2; stroke-linecap: round"/>
   </g>
   <g id="line2d_25">
    <path d="M 109.6488 114.436 
L 117.2988 114.436 
L 124.9488 114.436 
" clip-path="url(#p19f485ba84)" style="fill: none; stroke: #000000; stroke-width: 2; stroke-linecap: round"/>
   </g>
   <g id="text_1">
    <g clip-path="url(#p19f485ba84)">
     <!-- $V_{DD}$ -->
     <g transform="translate(52.5613 29.420391)scale(0.125 -0.125)">
      <defs>
       <path id="DejaVuSans-Oblique-56" d="M 1319 0 
L 500 4666 
L 1119 4666 
L 1797 653 
L 4063 4666 
L 4750 4666 
L 2053 0 
L 1319 0 
z
" transform="scale(0.015625)"/>
       <path id="DejaVuSans-Oblique-44" d="M 1081 4666 
L 2438 4666 
Q 3519 4666 4070 4208 
Q 4622 3750 4622 2847 
Q 4622 2250 4412 1698 
Q 4203 1147 3834 769 
Q 3463 381 2891 190 
Q 2319 0 1538 0 
L 172 0 
L 1081 4666 
z
M 1613 4147 
L 909 519 
L 1734 519 
Q 2794 519 3375 1128 
Q 3956 1738 3956 2847 
Q 3956 3519 3581 3833 
Q 3206 4147 2406 4147 
L 1613 4147 
z
" transform="scale(0.015625)"/>
      </defs>
      <use xlink:href="#DejaVuSans-Oblique-56" transform="translate(0 0.09375)"/>
      <use xlink:href="#DejaVuSans-Oblique-44" transform="translate(68.408203 -16.3125)scale(0.7)"/>
      <use xlink:href="#DejaVuSans-Oblique-44" transform="translate(122.30957 -16.3125)scale(0.7)"/>
     </g>
    </g>
   </g>
   <g id="text_2">
    <g clip-path="url(#p19f485ba84)">
     <!-- -$V_{DD}$ -->
     <g transform="translate(50.2488 203.494047)scale(0.125 -0.125)">
      <defs>
       <path id="DejaVuSans-2d" d="M 313 2009 
L 1997 2009 
L 1997 1497 
L 313 1497 
L 313 2009 
z
" transform="scale(0.015625)"/>
      </defs>
      <use xlink:href="#DejaVuSans-2d" transform="translate(0 0.09375)"/>
      <use xlink:href="#DejaVuSans-Oblique-56" transform="translate(36.083984 0.09375)"/>
      <use xlink:href="#DejaVuSans-Oblique-44" transform="translate(104.492188 -16.3125)scale(0.7)"/>
      <use xlink:href="#DejaVuSans-Oblique-44" transform="translate(158.393555 -16.3125)scale(0.7)"/>
     </g>
    </g>
   </g>
   <g id="text_3">
    <g clip-path="url(#p19f485ba84)">
     <!-- $R_L$ -->
     <g transform="translate(84.9388 140.835219)scale(0.125 -0.125)">
      <defs>
       <path id="DejaVuSans-Oblique-52" d="M 1613 4147 
L 1294 2491 
L 2106 2491 
Q 2584 2491 2879 2755 
Q 3175 3019 3175 3444 
Q 3175 3784 2976 3965 
Q 2778 4147 2406 4147 
L 1613 4147 
z
M 2772 2241 
Q 2972 2194 3105 2009 
Q 3238 1825 3413 1275 
L 3809 0 
L 3144 0 
L 2778 1197 
Q 2638 1659 2453 1815 
Q 2269 1972 1888 1972 
L 1191 1972 
L 806 0 
L 172 0 
L 1081 4666 
L 2503 4666 
Q 3150 4666 3495 4373 
Q 3841 4081 3841 3531 
Q 3841 3044 3547 2687 
Q 3253 2331 2772 2241 
z
" transform="scale(0.015625)"/>
       <path id="DejaVuSans-Oblique-4c" d="M 1075 4666 
L 1709 4666 
L 909 525 
L 3181 525 
L 3078 0 
L 172 0 
L 1075 4666 
z
" transform="scale(0.015625)"/>
      </defs>
      <use xlink:href="#DejaVuSans-Oblique-52" transform="translate(0 0.09375)"/>
      <use xlink:href="#DejaVuSans-Oblique-4c" transform="translate(69.482422 -16.3125)scale(0.7)"/>
     </g>
    </g>
   </g>
   <g id="patch_4">
    <path d="M 40.7478 116.833 
C 41.356441 116.833 41.940236 116.591184 42.37061 116.16081 
C 42.800984 115.730436 43.0428 115.146641 43.0428 114.538 
C 43.0428 113.929359 42.800984 113.345564 42.37061 112.91519 
C 41.940236 112.484816 41.356441 112.243 40.7478 112.243 
C 40.139159 112.243 39.555364 112.484816 39.12499 112.91519 
C 38.694616 113.345564 38.4528 113.929359 38.4528 114.538 
C 38.4528 115.146641 38.694616 115.730436 39.12499 116.16081 
C 39.555364 116.591184 40.139159 116.833 40.7478 116.833 
z
" clip-path="url(#p19f485ba84)" style="stroke: #000000; stroke-width: 2; stroke-linejoin: miter"/>
   </g>
   <g id="patch_5">
    <path d="M 25.4478 116.833 
C 26.056441 116.833 26.640236 116.591184 27.07061 116.16081 
C 27.500984 115.730436 27.7428 115.146641 27.7428 114.538 
C 27.7428 113.929359 27.500984 113.345564 27.07061 112.91519 
C 26.640236 112.484816 26.056441 112.243 25.4478 112.243 
C 24.839159 112.243 24.255364 112.484816 23.82499 112.91519 
C 23.394616 113.345564 23.1528 113.929359 23.1528 114.538 
C 23.1528 115.146641 23.394616 115.730436 23.82499 116.16081 
C 24.255364 116.591184 24.839159 116.833 25.4478 116.833 
z
" clip-path="url(#p19f485ba84)" style="fill: #ffffff; stroke: #000000; stroke-width: 2; stroke-linejoin: miter"/>
   </g>
   <g id="text_4">
    <g clip-path="url(#p19f485ba84)">
     <!-- $v_{in}$ -->
     <g transform="translate(17.5728 106.583391)scale(0.125 -0.125)">
      <defs>
       <path id="DejaVuSans-Oblique-76" d="M 459 3500 
L 1069 3500 
L 1581 525 
L 3256 3500 
L 3866 3500 
L 1875 0 
L 1100 0 
L 459 3500 
z
" transform="scale(0.015625)"/>
       <path id="DejaVuSans-Oblique-69" d="M 1172 4863 
L 1747 4863 
L 1606 4134 
L 1031 4134 
L 1172 4863 
z
M 909 3500 
L 1484 3500 
L 800 0 
L 225 0 
L 909 3500 
z
" transform="scale(0.015625)"/>
       <path id="DejaVuSans-Oblique-6e" d="M 3566 2113 
L 3156 0 
L 2578 0 
L 2988 2091 
Q 3016 2238 3031 2350 
Q 3047 2463 3047 2528 
Q 3047 2791 2881 2937 
Q 2716 3084 2419 3084 
Q 1956 3084 1622 2776 
Q 1288 2469 1184 1941 
L 800 0 
L 225 0 
L 903 3500 
L 1478 3500 
L 1363 2950 
Q 1603 3253 1940 3418 
Q 2278 3584 2650 3584 
Q 3113 3584 3367 3334 
Q 3622 3084 3622 2631 
Q 3622 2519 3608 2391 
Q 3594 2263 3566 2113 
z
" transform="scale(0.015625)"/>
      </defs>
      <use xlink:href="#DejaVuSans-Oblique-76" transform="translate(0 0.3125)"/>
      <use xlink:href="#DejaVuSans-Oblique-69" transform="translate(59.179688 -16.09375)scale(0.7)"/>
      <use xlink:href="#DejaVuSans-Oblique-6e" transform="translate(78.62793 -16.09375)scale(0.7)"/>
     </g>
    </g>
   </g>
   <g id="patch_6">
    <path d="M 63.7488 116.731 
C 64.357441 116.731 64.941236 116.489184 65.37161 116.05881 
C 65.801984 115.628436 66.0438 115.044641 66.0438 114.436 
C 66.0438 113.827359 65.801984 113.243564 65.37161 112.81319 
C 64.941236 112.382816 64.357441 112.141 63.7488 112.141 
C 63.140159 112.141 62.556364 112.382816 62.12599 112.81319 
C 61.695616 113.243564 61.4538 113.827359 61.4538 114.436 
C 61.4538 115.044641 61.695616 115.628436 62.12599 116.05881 
C 62.556364 116.489184 63.140159 116.731 63.7488 116.731 
z
" clip-path="url(#p19f485ba84)" style="stroke: #000000; stroke-width: 2; stroke-linejoin: miter"/>
   </g>
   <g id="patch_7">
    <path d="M 124.9488 116.731 
C 125.557441 116.731 126.141236 116.489184 126.57161 116.05881 
C 127.001984 115.628436 127.2438 115.044641 127.2438 114.436 
C 127.2438 113.827359 127.001984 113.243564 126.57161 112.81319 
C 126.141236 112.382816 125.557441 112.141 124.9488 112.141 
C 124.340159 112.141 123.756364 112.382816 123.32599 112.81319 
C 122.895616 113.243564 122.6538 113.827359 122.6538 114.436 
C 122.6538 115.044641 122.895616 115.628436 123.32599 116.05881 
C 123.756364 116.489184 124.340159 116.731 124.9488 116.731 
z
" clip-path="url(#p19f485ba84)" style="fill: #ffffff; stroke: #000000; stroke-width: 2; stroke-linejoin: miter"/>
   </g>
   <g id="text_5">
    <g clip-path="url(#p19f485ba84)">
     <!-- $v_{out}$ -->
     <g transform="translate(113.8863 106.481391)scale(0.125 -0.125)">
      <defs>
       <path id="DejaVuSans-Oblique-6f" d="M 1625 -91 
Q 1009 -91 651 289 
Q 294 669 294 1325 
Q 294 1706 417 2101 
Q 541 2497 738 2766 
Q 1047 3184 1428 3384 
Q 1809 3584 2291 3584 
Q 2888 3584 3255 3212 
Q 3622 2841 3622 2241 
Q 3622 1825 3500 1412 
Q 3378 1000 3181 728 
Q 2875 309 2494 109 
Q 2113 -91 1625 -91 
z
M 891 1344 
Q 891 869 1089 633 
Q 1288 397 1691 397 
Q 2269 397 2648 901 
Q 3028 1406 3028 2181 
Q 3028 2634 2825 2865 
Q 2622 3097 2228 3097 
Q 1903 3097 1650 2945 
Q 1397 2794 1197 2484 
Q 1050 2253 970 1956 
Q 891 1659 891 1344 
z
" transform="scale(0.015625)"/>
       <path id="DejaVuSans-Oblique-75" d="M 428 1388 
L 838 3500 
L 1416 3500 
L 1006 1409 
Q 975 1256 961 1147 
Q 947 1038 947 966 
Q 947 700 1109 554 
Q 1272 409 1569 409 
Q 2031 409 2368 721 
Q 2706 1034 2809 1563 
L 3194 3500 
L 3769 3500 
L 3091 0 
L 2516 0 
L 2631 550 
Q 2388 244 2052 76 
Q 1716 -91 1338 -91 
Q 878 -91 622 161 
Q 366 413 366 863 
Q 366 956 381 1097 
Q 397 1238 428 1388 
z
" transform="scale(0.015625)"/>
       <path id="DejaVuSans-Oblique-74" d="M 2706 3500 
L 2619 3053 
L 1472 3053 
L 1100 1153 
Q 1081 1047 1072 975 
Q 1063 903 1063 863 
Q 1063 663 1183 572 
Q 1303 481 1569 481 
L 2150 481 
L 2053 0 
L 1503 0 
Q 991 0 739 200 
Q 488 400 488 806 
Q 488 878 497 964 
Q 506 1050 525 1153 
L 897 3053 
L 409 3053 
L 500 3500 
L 978 3500 
L 1172 4494 
L 1747 4494 
L 1556 3500 
L 2706 3500 
z
" transform="scale(0.015625)"/>
      </defs>
      <use xlink:href="#DejaVuSans-Oblique-76" transform="translate(0 0.3125)"/>
      <use xlink:href="#DejaVuSans-Oblique-6f" transform="translate(59.179688 -16.09375)scale(0.7)"/>
      <use xlink:href="#DejaVuSans-Oblique-75" transform="translate(102.006836 -16.09375)scale(0.7)"/>
      <use xlink:href="#DejaVuSans-Oblique-74" transform="translate(146.37207 -16.09375)scale(0.7)"/>
     </g>
    </g>
   </g>
  </g>
 </g>
 <defs>
  <clipPath id="p19f485ba84">
   <rect x="7.2" y="7.2" width="145.9722" height="205.496"/>
  </clipPath>
 </defs>
</svg>