<?xml version="1.0" encoding="utf-8" standalone="no"?>
<!DOCTYPE svg PUBLIC "-//W3C//DTD SVG 1.1//EN"
  "http://www.w3.org/Graphics/SVG/1.1/DTD/svg11.dtd">
<svg xmlns:xlink="http://www.w3.org/1999/xlink" width="295.525pt" height="171.584pt" viewBox="0 0 295.525 171.584" xmlns="http://www.w3.org/2000/svg" version="1.1">
 <metadata>
  <rdf:RDF xmlns:dc="http://purl.org/dc/elements/1.1/" xmlns:cc="http://creativecommons.org/ns#" xmlns:rdf="http://www.w3.org/1999/02/22-rdf-syntax-ns#">
   <cc:Work>
    <dc:type rdf:resource="http://purl.org/dc/dcmitype/StillImage"/>
    <dc:date>2024-01-03T11:50:54.903290</dc:date>
    <dc:format>image/svg+xml</dc:format>
    <dc:creator>
     <cc:Agent>
      <dc:title>Matplotlib v3.8.2, https://matplotlib.org/</dc:title>
     </cc:Agent>
    </dc:creator>
   </cc:Work>
  </rdf:RDF>
 </metadata>
 <defs>
  <style type="text/css">*{stroke-linejoin: round; stroke-linecap: butt}</style>
 </defs>
 <g id="figure_1">
  <g id="patch_1">
   <path d="M 0 171.584 
L 295.525 171.584 
L 295.525 0 
L 0 0 
z
" style="fill: #ffffff"/>
  </g>
  <g id="axes_1">
   <g id="patch_2">
    <path d="M 147.7 72.672 
L 147.871352 72.670641 
L 148.042662 72.666563 
L 148.213885 72.659767 
L 148.384978 72.650256 
L 148.5559 72.638032 
L 148.726605 72.623097 
L 148.897053 72.605455 
L 149.067198 72.585112 
L 149.237 72.562072 
L 149.406415 72.53634 
L 149.5754 72.507924 
L 149.743913 72.47683 
L 149.911912 72.443066 
L 150.079354 72.406642 
L 150.246197 72.367565 
L 150.412398 72.325846 
L 150.577917 72.281495 
L 150.742712 72.234524 
L 150.90674 72.184944 
L 151.069961 72.132768 
L 151.232334 72.078009 
L 151.393818 72.02068 
L 151.554371 71.960797 
L 151.713955 71.898374 
L 151.872527 71.833426 
L 152.03005 71.765971 
L 152.186482 71.696026 
L 152.341785 71.623607 
L 152.495919 71.548733 
L 152.648846 71.471423 
L 152.800528 71.391696 
L 152.950925 71.309573 
L 153.1 71.225074 
L 153.247716 71.138221 
L 153.394035 71.049035 
L 153.538921 70.957538 
L 153.682337 70.863754 
L 153.824247 70.767707 
L 153.964615 70.66942 
L 154.103406 70.568919 
L 154.240585 70.466228 
L 154.376117 70.361373 
L 154.509969 70.254382 
L 154.642106 70.14528 
L 154.772496 70.034095 
L 154.901105 69.920856 
L 155.027902 69.80559 
L 155.152853 69.688328 
L 155.275929 69.569097 
L 155.397097 69.447929 
L 155.516328 69.324853 
L 155.63359 69.199902 
L 155.748856 69.073105 
L 155.862095 68.944496 
L 155.97328 68.814106 
L 156.082382 68.681969 
L 156.189373 68.548117 
L 156.294228 68.412585 
L 156.396919 68.275406 
L 156.49742 68.136615 
L 156.595707 67.996247 
L 156.691754 67.854337 
L 156.785538 67.710921 
L 156.877035 67.566035 
L 156.966221 67.419716 
L 157.053074 67.272 
L 157.137573 67.122925 
L 157.219696 66.972528 
L 157.299423 66.820846 
L 157.376733 66.667919 
L 157.451607 66.513785 
L 157.524026 66.358482 
L 157.593971 66.20205 
L 157.661426 66.044527 
L 157.726374 65.885955 
L 157.788797 65.726371 
L 157.84868 65.565818 
L 157.906009 65.404334 
L 157.960768 65.241961 
L 158.012944 65.07874 
L 158.062524 64.914712 
L 158.109495 64.749917 
L 158.153846 64.584398 
L 158.195565 64.418197 
L 158.234642 64.251354 
L 158.271066 64.083912 
L 158.30483 63.915913 
L 158.335924 63.7474 
L 158.36434 63.578415 
L 158.390072 63.409 
L 158.413112 63.239198 
L 158.433455 63.069053 
L 158.451097 62.898605 
L 158.466032 62.7279 
L 158.478256 62.556978 
L 158.487767 62.385885 
L 158.494563 62.214662 
L 158.498641 62.043352 
L 158.5 61.872 
L 158.5 21.872 
L 158.498641 21.700648 
L 158.494563 21.529338 
L 158.487767 21.358115 
L 158.478256 21.187022 
L 158.466032 21.0161 
L 158.451097 20.845395 
L 158.433455 20.674947 
L 158.413112 20.504802 
L 158.390072 20.335 
L 158.36434 20.165585 
L 158.335924 19.9966 
L 158.30483 19.828087 
L 158.271066 19.660088 
L 158.234642 19.492646 
L 158.195565 19.325803 
L 158.153846 19.159602 
L 158.109495 18.994083 
L 158.062524 18.829288 
L 158.012944 18.66526 
L 157.960768 18.502039 
L 157.906009 18.339666 
L 157.84868 18.178182 
L 157.788797 18.017629 
L 157.726374 17.858045 
L 157.661426 17.699473 
L 157.593971 17.54195 
L 157.524026 17.385518 
L 157.451607 17.230215 
L 157.376733 17.076081 
L 157.299423 16.923154 
L 157.219696 16.771472 
L 157.137573 16.621075 
L 157.053074 16.472 
L 156.966221 16.324284 
L 156.877035 16.177965 
L 156.785538 16.033079 
L 156.691754 15.889663 
L 156.595707 15.747753 
L 156.49742 15.607385 
L 156.396919 15.468594 
L 156.294228 15.331415 
L 156.189373 15.195883 
L 156.082382 15.062031 
L 155.97328 14.929894 
L 155.862095 14.799504 
L 155.748856 14.670895 
L 155.63359 14.544098 
L 155.516328 14.419147 
L 155.397097 14.296071 
L 155.275929 14.174903 
L 155.152853 14.055672 
L 155.027902 13.93841 
L 154.901105 13.823144 
L 154.772496 13.709905 
L 154.642106 13.59872 
L 154.509969 13.489618 
L 154.376117 13.382627 
L 154.240585 13.277772 
L 154.103406 13.175081 
L 153.964615 13.07458 
L 153.824247 12.976293 
L 153.682337 12.880246 
L 153.538921 12.786462 
L 153.394035 12.694965 
L 153.247716 12.605779 
L 153.1 12.518926 
L 152.950925 12.434427 
L 152.800528 12.352304 
L 152.648846 12.272577 
L 152.495919 12.195267 
L 152.341785 12.120393 
L 152.186482 12.047974 
L 152.03005 11.978029 
L 151.872527 11.910574 
L 151.713955 11.845626 
L 151.554371 11.783203 
L 151.393818 11.72332 
L 151.232334 11.665991 
L 151.069961 11.611232 
L 150.90674 11.559056 
L 150.742712 11.509476 
L 150.577917 11.462505 
L 150.412398 11.418154 
L 150.246197 11.376435 
L 150.079354 11.337358 
L 149.911912 11.300934 
L 149.743913 11.26717 
L 149.5754 11.236076 
L 149.406415 11.20766 
L 149.237 11.181928 
L 149.067198 11.158888 
L 148.897053 11.138545 
L 148.726605 11.120903 
L 148.5559 11.105968 
L 148.384978 11.093744 
L 148.213885 11.084233 
L 148.042662 11.077437 
L 147.871352 11.073359 
L 147.7 11.072 
L 75.7 11.072 
L 75.528648 11.073359 
L 75.357338 11.077437 
L 75.186115 11.084233 
L 75.015022 11.093744 
L 74.8441 11.105968 
L 74.673395 11.120903 
L 74.502947 11.138545 
L 74.332802 11.158888 
L 74.163 11.181928 
L 73.993585 11.20766 
L 73.8246 11.236076 
L 73.656087 11.26717 
L 73.488088 11.300934 
L 73.320646 11.337358 
L 73.153803 11.376435 
L 72.987602 11.418154 
L 72.822083 11.462505 
L 72.657288 11.509476 
L 72.49326 11.559056 
L 72.330039 11.611232 
L 72.167666 11.665991 
L 72.006182 11.72332 
L 71.845629 11.783203 
L 71.686045 11.845626 
L 71.527473 11.910574 
L 71.36995 11.978029 
L 71.213518 12.047974 
L 71.058215 12.120393 
L 70.904081 12.195267 
L 70.751154 12.272577 
L 70.599472 12.352304 
L 70.449075 12.434427 
L 70.3 12.518926 
L 70.152284 12.605779 
L 70.005965 12.694965 
L 69.861079 12.786462 
L 69.717663 12.880246 
L 69.575753 12.976293 
L 69.435385 13.07458 
L 69.296594 13.175081 
L 69.159415 13.277772 
L 69.023883 13.382627 
L 68.890031 13.489618 
L 68.757894 13.59872 
L 68.627504 13.709905 
L 68.498895 13.823144 
L 68.372098 13.93841 
L 68.247147 14.055672 
L 68.124071 14.174903 
L 68.002903 14.296071 
L 67.883672 14.419147 
L 67.76641 14.544098 
L 67.651144 14.670895 
L 67.537905 14.799504 
L 67.42672 14.929894 
L 67.317618 15.062031 
L 67.210627 15.195883 
L 67.105772 15.331415 
L 67.003081 15.468594 
L 66.90258 15.607385 
L 66.804293 15.747753 
L 66.708246 15.889663 
L 66.614462 16.033079 
L 66.522965 16.177965 
L 66.433779 16.324284 
L 66.346926 16.472 
L 66.262427 16.621075 
L 66.180304 16.771472 
L 66.100577 16.923154 
L 66.023267 17.076081 
L 65.948393 17.230215 
L 65.875974 17.385518 
L 65.806029 17.54195 
L 65.738574 17.699473 
L 65.673626 17.858045 
L 65.611203 18.017629 
L 65.55132 18.178182 
L 65.493991 18.339666 
L 65.439232 18.502039 
L 65.387056 18.66526 
L 65.337476 18.829288 
L 65.290505 18.994083 
L 65.246154 19.159602 
L 65.204435 19.325803 
L 65.165358 19.492646 
L 65.128934 19.660088 
L 65.09517 19.828087 
L 65.064076 19.9966 
L 65.03566 20.165585 
L 65.009928 20.335 
L 64.986888 20.504802 
L 64.966545 20.674947 
L 64.948903 20.845395 
L 64.933968 21.0161 
L 64.921744 21.187022 
L 64.912233 21.358115 
L 64.905437 21.529338 
L 64.901359 21.700648 
L 64.9 21.872 
L 64.9 61.872 
L 64.901359 62.043352 
L 64.905437 62.214662 
L 64.912233 62.385885 
L 64.921744 62.556978 
L 64.933968 62.7279 
L 64.948903 62.898605 
L 64.966545 63.069053 
L 64.986888 63.239198 
L 65.009928 63.409 
L 65.03566 63.578415 
L 65.064076 63.7474 
L 65.09517 63.915913 
L 65.128934 64.083912 
L 65.165358 64.251354 
L 65.204435 64.418197 
L 65.246154 64.584398 
L 65.290505 64.749917 
L 65.337476 64.914712 
L 65.387056 65.07874 
L 65.439232 65.241961 
L 65.493991 65.404334 
L 65.55132 65.565818 
L 65.611203 65.726371 
L 65.673626 65.885955 
L 65.738574 66.044527 
L 65.806029 66.20205 
L 65.875974 66.358482 
L 65.948393 66.513785 
L 66.023267 66.667919 
L 66.100577 66.820846 
L 66.180304 66.972528 
L 66.262427 67.122925 
L 66.346926 67.272 
L 66.433779 67.419716 
L 66.522965 67.566035 
L 66.614462 67.710921 
L 66.708246 67.854337 
L 66.804293 67.996247 
L 66.90258 68.136615 
L 67.003081 68.275406 
L 67.105772 68.412585 
L 67.210627 68.548117 
L 67.317618 68.681969 
L 67.42672 68.814106 
L 67.537905 68.944496 
L 67.651144 69.073105 
L 67.76641 69.199902 
L 67.883672 69.324853 
L 68.002903 69.447929 
L 68.124071 69.569097 
L 68.247147 69.688328 
L 68.372098 69.80559 
L 68.498895 69.920856 
L 68.627504 70.034095 
L 68.757894 70.14528 
L 68.890031 70.254382 
L 69.023883 70.361373 
L 69.159415 70.466228 
L 69.296594 70.568919 
L 69.435385 70.66942 
L 69.575753 70.767707 
L 69.717663 70.863754 
L 69.861079 70.957538 
L 70.005965 71.049035 
L 70.152284 71.138221 
L 70.3 71.225074 
L 70.449075 71.309573 
L 70.599472 71.391696 
L 70.751154 71.471423 
L 70.904081 71.548733 
L 71.058215 71.623607 
L 71.213518 71.696026 
L 71.36995 71.765971 
L 71.527473 71.833426 
L 71.686045 71.898374 
L 71.845629 71.960797 
L 72.006182 72.02068 
L 72.167666 72.078009 
L 72.330039 72.132768 
L 72.49326 72.184944 
L 72.657288 72.234524 
L 72.822083 72.281495 
L 72.987602 72.325846 
L 73.153803 72.367565 
L 73.320646 72.406642 
L 73.488088 72.443066 
L 73.656087 72.47683 
L 73.8246 72.507924 
L 73.993585 72.53634 
L 74.163 72.562072 
L 74.332802 72.585112 
L 74.502947 72.605455 
L 74.673395 72.623097 
L 74.8441 72.638032 
L 75.015022 72.650256 
L 75.186115 72.659767 
L 75.357338 72.666563 
L 75.528648 72.670641 
L 75.7 72.672 
L 147.7 72.672 
z
" clip-path="url(#pabc6d428e9)" style="fill: none; stroke-dasharray: 5.55,2.4; stroke-dashoffset: 0; stroke: #ffff00; stroke-width: 1.5; stroke-linecap: round"/>
   </g>
   <g id="patch_3">
    <path d="M 243.1 133.872 
L 243.271352 133.870641 
L 243.442662 133.866563 
L 243.613885 133.859767 
L 243.784978 133.850256 
L 243.9559 133.838032 
L 244.126605 133.823097 
L 244.297053 133.805455 
L 244.467198 133.785112 
L 244.637 133.762072 
L 244.806415 133.73634 
L 244.9754 133.707924 
L 245.143913 133.67683 
L 245.311912 133.643066 
L 245.479354 133.606642 
L 245.646197 133.567565 
L 245.812398 133.525846 
L 245.977917 133.481495 
L 246.142712 133.434524 
L 246.30674 133.384944 
L 246.469961 133.332768 
L 246.632334 133.278009 
L 246.793818 133.22068 
L 246.954371 133.160797 
L 247.113955 133.098374 
L 247.272527 133.033426 
L 247.43005 132.965971 
L 247.586482 132.896026 
L 247.741785 132.823607 
L 247.895919 132.748733 
L 248.048846 132.671423 
L 248.200528 132.591696 
L 248.350925 132.509573 
L 248.5 132.425074 
L 248.647716 132.338221 
L 248.794035 132.249035 
L 248.938921 132.157538 
L 249.082337 132.063754 
L 249.224247 131.967707 
L 249.364615 131.86942 
L 249.503406 131.768919 
L 249.640585 131.666228 
L 249.776117 131.561373 
L 249.909969 131.454382 
L 250.042106 131.34528 
L 250.172496 131.234095 
L 250.301105 131.120856 
L 250.427902 131.00559 
L 250.552853 130.888328 
L 250.675929 130.769097 
L 250.797097 130.647929 
L 250.916328 130.524853 
L 251.03359 130.399902 
L 251.148856 130.273105 
L 251.262095 130.144496 
L 251.37328 130.014106 
L 251.482382 129.881969 
L 251.589373 129.748117 
L 251.694228 129.612585 
L 251.796919 129.475406 
L 251.89742 129.336615 
L 251.995707 129.196247 
L 252.091754 129.054337 
L 252.185538 128.910921 
L 252.277035 128.766035 
L 252.366221 128.619716 
L 252.453074 128.472 
L 252.537573 128.322925 
L 252.619696 128.172528 
L 252.699423 128.020846 
L 252.776733 127.867919 
L 252.851607 127.713785 
L 252.924026 127.558482 
L 252.993971 127.40205 
L 253.061426 127.244527 
L 253.126374 127.085955 
L 253.188797 126.926371 
L 253.24868 126.765818 
L 253.306009 126.604334 
L 253.360768 126.441961 
L 253.412944 126.27874 
L 253.462524 126.114712 
L 253.509495 125.949917 
L 253.553846 125.784398 
L 253.595565 125.618197 
L 253.634642 125.451354 
L 253.671066 125.283912 
L 253.70483 125.115913 
L 253.735924 124.9474 
L 253.76434 124.778415 
L 253.790072 124.609 
L 253.813112 124.439198 
L 253.833455 124.269053 
L 253.851097 124.098605 
L 253.866032 123.9279 
L 253.878256 123.756978 
L 253.887767 123.585885 
L 253.894563 123.414662 
L 253.898641 123.243352 
L 253.9 123.072 
L 253.9 97.872 
L 253.898641 97.700648 
L 253.894563 97.529338 
L 253.887767 97.358115 
L 253.878256 97.187022 
L 253.866032 97.0161 
L 253.851097 96.845395 
L 253.833455 96.674947 
L 253.813112 96.504802 
L 253.790072 96.335 
L 253.76434 96.165585 
L 253.735924 95.9966 
L 253.70483 95.828087 
L 253.671066 95.660088 
L 253.634642 95.492646 
L 253.595565 95.325803 
L 253.553846 95.159602 
L 253.509495 94.994083 
L 253.462524 94.829288 
L 253.412944 94.66526 
L 253.360768 94.502039 
L 253.306009 94.339666 
L 253.24868 94.178182 
L 253.188797 94.017629 
L 253.126374 93.858045 
L 253.061426 93.699473 
L 252.993971 93.54195 
L 252.924026 93.385518 
L 252.851607 93.230215 
L 252.776733 93.076081 
L 252.699423 92.923154 
L 252.619696 92.771472 
L 252.537573 92.621075 
L 252.453074 92.472 
L 252.366221 92.324284 
L 252.277035 92.177965 
L 252.185538 92.033079 
L 252.091754 91.889663 
L 251.995707 91.747753 
L 251.89742 91.607385 
L 251.796919 91.468594 
L 251.694228 91.331415 
L 251.589373 91.195883 
L 251.482382 91.062031 
L 251.37328 90.929894 
L 251.262095 90.799504 
L 251.148856 90.670895 
L 251.03359 90.544098 
L 250.916328 90.419147 
L 250.797097 90.296071 
L 250.675929 90.174903 
L 250.552853 90.055672 
L 250.427902 89.93841 
L 250.301105 89.823144 
L 250.172496 89.709905 
L 250.042106 89.59872 
L 249.909969 89.489618 
L 249.776117 89.382627 
L 249.640585 89.277772 
L 249.503406 89.175081 
L 249.364615 89.07458 
L 249.224247 88.976293 
L 249.082337 88.880246 
L 248.938921 88.786462 
L 248.794035 88.694965 
L 248.647716 88.605779 
L 248.5 88.518926 
L 248.350925 88.434427 
L 248.200528 88.352304 
L 248.048846 88.272577 
L 247.895919 88.195267 
L 247.741785 88.120393 
L 247.586482 88.047974 
L 247.43005 87.978029 
L 247.272527 87.910574 
L 247.113955 87.845626 
L 246.954371 87.783203 
L 246.793818 87.72332 
L 246.632334 87.665991 
L 246.469961 87.611232 
L 246.30674 87.559056 
L 246.142712 87.509476 
L 245.977917 87.462505 
L 245.812398 87.418154 
L 245.646197 87.376435 
L 245.479354 87.337358 
L 245.311912 87.300934 
L 245.143913 87.26717 
L 244.9754 87.236076 
L 244.806415 87.20766 
L 244.637 87.181928 
L 244.467198 87.158888 
L 244.297053 87.138545 
L 244.126605 87.120903 
L 243.9559 87.105968 
L 243.784978 87.093744 
L 243.613885 87.084233 
L 243.442662 87.077437 
L 243.271352 87.073359 
L 243.1 87.072 
L 142.804 87.072 
L 142.632648 87.073359 
L 142.461338 87.077437 
L 142.290115 87.084233 
L 142.119022 87.093744 
L 141.9481 87.105968 
L 141.777395 87.120903 
L 141.606947 87.138545 
L 141.436802 87.158888 
L 141.267 87.181928 
L 141.097585 87.20766 
L 140.9286 87.236076 
L 140.760087 87.26717 
L 140.592088 87.300934 
L 140.424646 87.337358 
L 140.257803 87.376435 
L 140.091602 87.418154 
L 139.926083 87.462505 
L 139.761288 87.509476 
L 139.59726 87.559056 
L 139.434039 87.611232 
L 139.271666 87.665991 
L 139.110182 87.72332 
L 138.949629 87.783203 
L 138.790045 87.845626 
L 138.631473 87.910574 
L 138.47395 87.978029 
L 138.317518 88.047974 
L 138.162215 88.120393 
L 138.008081 88.195267 
L 137.855154 88.272577 
L 137.703472 88.352304 
L 137.553075 88.434427 
L 137.404 88.518926 
L 137.256284 88.605779 
L 137.109965 88.694965 
L 136.965079 88.786462 
L 136.821663 88.880246 
L 136.679753 88.976293 
L 136.539385 89.07458 
L 136.400594 89.175081 
L 136.263415 89.277772 
L 136.127883 89.382627 
L 135.994031 89.489618 
L 135.861894 89.59872 
L 135.731504 89.709905 
L 135.602895 89.823144 
L 135.476098 89.93841 
L 135.351147 90.055672 
L 135.228071 90.174903 
L 135.106903 90.296071 
L 134.987672 90.419147 
L 134.87041 90.544098 
L 134.755144 90.670895 
L 134.641905 90.799504 
L 134.53072 90.929894 
L 134.421618 91.062031 
L 134.314627 91.195883 
L 134.209772 91.331415 
L 134.107081 91.468594 
L 134.00658 91.607385 
L 133.908293 91.747753 
L 133.812246 91.889663 
L 133.718462 92.033079 
L 133.626965 92.177965 
L 133.537779 92.324284 
L 133.450926 92.472 
L 133.366427 92.621075 
L 133.284304 92.771472 
L 133.204577 92.923154 
L 133.127267 93.076081 
L 133.052393 93.230215 
L 132.979974 93.385518 
L 132.910029 93.54195 
L 132.842574 93.699473 
L 132.777626 93.858045 
L 132.715203 94.017629 
L 132.65532 94.178182 
L 132.597991 94.339666 
L 132.543232 94.502039 
L 132.491056 94.66526 
L 132.441476 94.829288 
L 132.394505 94.994083 
L 132.350154 95.159602 
L 132.308435 95.325803 
L 132.269358 95.492646 
L 132.232934 95.660088 
L 132.19917 95.828087 
L 132.168076 95.9966 
L 132.13966 96.165585 
L 132.113928 96.335 
L 132.090888 96.504802 
L 132.070545 96.674947 
L 132.052903 96.845395 
L 132.037968 97.0161 
L 132.025744 97.187022 
L 132.016233 97.358115 
L 132.009437 97.529338 
L 132.005359 97.700648 
L 132.004 97.872 
L 132.004 123.072 
L 132.005359 123.243352 
L 132.009437 123.414662 
L 132.016233 123.585885 
L 132.025744 123.756978 
L 132.037968 123.9279 
L 132.052903 124.098605 
L 132.070545 124.269053 
L 132.090888 124.439198 
L 132.113928 124.609 
L 132.13966 124.778415 
L 132.168076 124.9474 
L 132.19917 125.115913 
L 132.232934 125.283912 
L 132.269358 125.451354 
L 132.308435 125.618197 
L 132.350154 125.784398 
L 132.394505 125.949917 
L 132.441476 126.114712 
L 132.491056 126.27874 
L 132.543232 126.441961 
L 132.597991 126.604334 
L 132.65532 126.765818 
L 132.715203 126.926371 
L 132.777626 127.085955 
L 132.842574 127.244527 
L 132.910029 127.40205 
L 132.979974 127.558482 
L 133.052393 127.713785 
L 133.127267 127.867919 
L 133.204577 128.020846 
L 133.284304 128.172528 
L 133.366427 128.322925 
L 133.450926 128.472 
L 133.537779 128.619716 
L 133.626965 128.766035 
L 133.718462 128.910921 
L 133.812246 129.054337 
L 133.908293 129.196247 
L 134.00658 129.336615 
L 134.107081 129.475406 
L 134.209772 129.612585 
L 134.314627 129.748117 
L 134.421618 129.881969 
L 134.53072 130.014106 
L 134.641905 130.144496 
L 134.755144 130.273105 
L 134.87041 130.399902 
L 134.987672 130.524853 
L 135.106903 130.647929 
L 135.228071 130.769097 
L 135.351147 130.888328 
L 135.476098 131.00559 
L 135.602895 131.120856 
L 135.731504 131.234095 
L 135.861894 131.34528 
L 135.994031 131.454382 
L 136.127883 131.561373 
L 136.263415 131.666228 
L 136.400594 131.768919 
L 136.539385 131.86942 
L 136.679753 131.967707 
L 136.821663 132.063754 
L 136.965079 132.157538 
L 137.109965 132.249035 
L 137.256284 132.338221 
L 137.404 132.425074 
L 137.553075 132.509573 
L 137.703472 132.591696 
L 137.855154 132.671423 
L 138.008081 132.748733 
L 138.162215 132.823607 
L 138.317518 132.896026 
L 138.47395 132.965971 
L 138.631473 133.033426 
L 138.790045 133.098374 
L 138.949629 133.160797 
L 139.110182 133.22068 
L 139.271666 133.278009 
L 139.434039 133.332768 
L 139.59726 133.384944 
L 139.761288 133.434524 
L 139.926083 133.481495 
L 140.091602 133.525846 
L 140.257803 133.567565 
L 140.424646 133.606642 
L 140.592088 133.643066 
L 140.760087 133.67683 
L 140.9286 133.707924 
L 141.097585 133.73634 
L 141.267 133.762072 
L 141.436802 133.785112 
L 141.606947 133.805455 
L 141.777395 133.823097 
L 141.9481 133.838032 
L 142.119022 133.850256 
L 142.290115 133.859767 
L 142.461338 133.866563 
L 142.632648 133.870641 
L 142.804 133.872 
L 243.1 133.872 
z
" clip-path="url(#pabc6d428e9)" style="fill: none; stroke-dasharray: 5.55,2.4; stroke-dashoffset: 0; stroke: #ffff00; stroke-width: 1.5; stroke-linecap: round"/>
   </g>
   <g id="patch_4">
    <path d="M 60.4 41.872 
C 32.5 41.872 54.1 31.072 21.7 31.072 
" clip-path="url(#pabc6d428e9)" style="fill: none; stroke: #000000; stroke-width: 2; stroke-linejoin: miter; stroke-linecap: round"/>
   </g>
   <g id="patch_5">
    <path d="M 55.9 38.272 
L 64.9 41.872 
L 55.9 45.472 
z
" clip-path="url(#pabc6d428e9)"/>
   </g>
   <g id="patch_6">
    <path d="M 127.504 110.472 
C 99.604 110.472 121.204 121.272 88.804 121.272 
" clip-path="url(#pabc6d428e9)" style="fill: none; stroke: #000000; stroke-width: 2; stroke-linejoin: miter; stroke-linecap: round"/>
   </g>
   <g id="patch_7">
    <path d="M 123.004 106.872 
L 132.004 110.472 
L 123.004 114.072 
z
" clip-path="url(#pabc6d428e9)"/>
   </g>
   <g id="line2d_1">
    <path d="M 255.7 56.472 
L 246.7 56.472 
L 237.7 56.472 
" clip-path="url(#pabc6d428e9)" style="fill: none; stroke: #000000; stroke-width: 2; stroke-linecap: round"/>
   </g>
   <g id="line2d_2">
    <path d="M 237.7 56.472 
L 237.7 69.972 
L 237.7 83.472 
" clip-path="url(#pabc6d428e9)" style="fill: none; stroke: #000000; stroke-width: 2; stroke-linecap: round"/>
   </g>
   <g id="line2d_3">
    <path d="M 237.7 83.472 
L 237.7 92.472 
L 246.7 95.472 
L 228.7 101.472 
L 246.7 107.472 
L 228.7 113.472 
L 246.7 119.472 
L 228.7 125.472 
L 237.7 128.472 
L 237.7 137.472 
" clip-path="url(#pabc6d428e9)" style="fill: none; stroke: #000000; stroke-width: 2; stroke-linecap: round"/>
   </g>
   <g id="line2d_4">
    <path d="M 237.7 137.472 
L 237.7 151.872 
L 228.7 151.872 
L 246.7 151.872 
M 231.4 156.192 
L 244 156.192 
M 235.9 160.512 
L 239.5 160.512 
" clip-path="url(#pabc6d428e9)" style="fill: none; stroke: #000000; stroke-width: 2; stroke-linecap: round"/>
   </g>
   <g id="line2d_5">
    <path d="M 237.7 56.472 
L 210.7 56.472 
L 183.7 56.472 
" clip-path="url(#pabc6d428e9)" style="fill: none; stroke: #000000; stroke-width: 2; stroke-linecap: round"/>
   </g>
   <g id="line2d_6">
    <path d="M 183.7 56.472 
L 183.7 69.972 
L 183.7 83.472 
" clip-path="url(#pabc6d428e9)" style="fill: none; stroke: #000000; stroke-width: 2; stroke-linecap: round"/>
   </g>
   <g id="line2d_7">
    <path d="M 183.7 83.472 
L 183.7 107.232 
M 192.7 107.232 
L 174.7 107.232 
M 192.7 113.712 
L 174.7 113.712 
M 183.7 113.712 
L 183.7 137.472 
" clip-path="url(#pabc6d428e9)" style="fill: none; stroke: #000000; stroke-width: 2; stroke-linecap: round"/>
   </g>
   <g id="line2d_8">
    <path d="M 183.7 137.472 
L 183.7 151.872 
L 174.7 151.872 
L 192.7 151.872 
M 177.4 156.192 
L 190 156.192 
M 181.9 160.512 
L 185.5 160.512 
" clip-path="url(#pabc6d428e9)" style="fill: none; stroke: #000000; stroke-width: 2; stroke-linecap: round"/>
   </g>
   <g id="line2d_9">
    <path d="M 183.7 56.472 
L 174.7 56.472 
L 165.7 56.472 
" clip-path="url(#pabc6d428e9)" style="fill: none; stroke: #000000; stroke-width: 2; stroke-linecap: round"/>
   </g>
   <g id="line2d_10">
    <path d="M 165.7 56.472 
L 156.7 56.472 
L 153.7 65.472 
L 147.7 47.472 
L 141.7 65.472 
L 135.7 47.472 
L 129.7 65.472 
L 123.7 47.472 
L 120.7 56.472 
L 111.7 56.472 
" clip-path="url(#pabc6d428e9)" style="fill: none; stroke: #000000; stroke-width: 2; stroke-linecap: round"/>
   </g>
   <g id="line2d_11">
    <path d="M 111.7 56.472 
L 87.94 56.472 
M 87.94 65.472 
L 87.94 47.472 
M 81.46 65.472 
L 81.46 47.472 
M 81.46 56.472 
L 57.7 56.472 
" clip-path="url(#pabc6d428e9)" style="fill: none; stroke: #000000; stroke-width: 2; stroke-linecap: round"/>
   </g>
   <g id="text_1">
    <!-- $R_{f2}$ -->
    <g transform="translate(207.35 113.921219) scale(0.125 -0.125)">
     <defs>
      <path id="DejaVuSans-Oblique-52" d="M 1613 4147 
L 1294 2491 
L 2106 2491 
Q 2584 2491 2879 2755 
Q 3175 3019 3175 3444 
Q 3175 3784 2976 3965 
Q 2778 4147 2406 4147 
L 1613 4147 
z
M 2772 2241 
Q 2972 2194 3105 2009 
Q 3238 1825 3413 1275 
L 3809 0 
L 3144 0 
L 2778 1197 
Q 2638 1659 2453 1815 
Q 2269 1972 1888 1972 
L 1191 1972 
L 806 0 
L 172 0 
L 1081 4666 
L 2503 4666 
Q 3150 4666 3495 4373 
Q 3841 4081 3841 3531 
Q 3841 3044 3547 2687 
Q 3253 2331 2772 2241 
z
" transform="scale(0.015625)"/>
      <path id="DejaVuSans-Oblique-66" d="M 3059 4863 
L 2969 4384 
L 2419 4384 
Q 2106 4384 1964 4261 
Q 1822 4138 1753 3809 
L 1691 3500 
L 2638 3500 
L 2553 3053 
L 1606 3053 
L 1013 0 
L 434 0 
L 1031 3053 
L 481 3053 
L 563 3500 
L 1113 3500 
L 1159 3744 
Q 1278 4363 1576 4613 
Q 1875 4863 2516 4863 
L 3059 4863 
z
" transform="scale(0.015625)"/>
      <path id="DejaVuSans-32" d="M 1228 531 
L 3431 531 
L 3431 0 
L 469 0 
L 469 531 
Q 828 903 1448 1529 
Q 2069 2156 2228 2338 
Q 2531 2678 2651 2914 
Q 2772 3150 2772 3378 
Q 2772 3750 2511 3984 
Q 2250 4219 1831 4219 
Q 1534 4219 1204 4116 
Q 875 4013 500 3803 
L 500 4441 
Q 881 4594 1212 4672 
Q 1544 4750 1819 4750 
Q 2544 4750 2975 4387 
Q 3406 4025 3406 3419 
Q 3406 3131 3298 2873 
Q 3191 2616 2906 2266 
Q 2828 2175 2409 1742 
Q 1991 1309 1228 531 
z
" transform="scale(0.015625)"/>
     </defs>
     <use xlink:href="#DejaVuSans-Oblique-52" transform="translate(0 0.09375)"/>
     <use xlink:href="#DejaVuSans-Oblique-66" transform="translate(69.482422 -16.3125) scale(0.7)"/>
     <use xlink:href="#DejaVuSans-32" transform="translate(94.125977 -16.3125) scale(0.7)"/>
    </g>
   </g>
   <g id="text_2">
    <!-- $C_{f2}$ -->
    <g transform="translate(153.35 113.921219) scale(0.125 -0.125)">
     <defs>
      <path id="DejaVuSans-Oblique-43" d="M 4447 4306 
L 4319 3641 
Q 4019 3944 3683 4091 
Q 3347 4238 2956 4238 
Q 2422 4238 2017 3981 
Q 1613 3725 1319 3200 
Q 1131 2863 1032 2486 
Q 934 2109 934 1728 
Q 934 1091 1264 756 
Q 1594 422 2222 422 
Q 2656 422 3056 561 
Q 3456 700 3834 978 
L 3688 231 
Q 3316 72 2936 -9 
Q 2556 -91 2175 -91 
Q 1278 -91 773 396 
Q 269 884 269 1753 
Q 269 2309 461 2846 
Q 653 3384 1013 3828 
Q 1394 4300 1883 4525 
Q 2372 4750 3022 4750 
Q 3422 4750 3780 4639 
Q 4138 4528 4447 4306 
z
" transform="scale(0.015625)"/>
     </defs>
     <use xlink:href="#DejaVuSans-Oblique-43" transform="translate(0 0.78125)"/>
     <use xlink:href="#DejaVuSans-Oblique-66" transform="translate(69.824219 -15.625) scale(0.7)"/>
     <use xlink:href="#DejaVuSans-32" transform="translate(94.467773 -15.625) scale(0.7)"/>
    </g>
   </g>
   <g id="text_3">
    <!-- $R_{f1}$ -->
    <g transform="translate(129.825 41.272391) scale(0.125 -0.125)">
     <defs>
      <path id="DejaVuSans-31" d="M 794 531 
L 1825 531 
L 1825 4091 
L 703 3866 
L 703 4441 
L 1819 4666 
L 2450 4666 
L 2450 531 
L 3481 531 
L 3481 0 
L 794 0 
L 794 531 
z
" transform="scale(0.015625)"/>
     </defs>
     <use xlink:href="#DejaVuSans-Oblique-52" transform="translate(0 0.09375)"/>
     <use xlink:href="#DejaVuSans-Oblique-66" transform="translate(69.482422 -16.3125) scale(0.7)"/>
     <use xlink:href="#DejaVuSans-31" transform="translate(94.125977 -16.3125) scale(0.7)"/>
    </g>
   </g>
   <g id="text_4">
    <!-- $C_{f1}$ -->
    <g transform="translate(75.825 41.272391) scale(0.125 -0.125)">
     <use xlink:href="#DejaVuSans-Oblique-43" transform="translate(0 0.78125)"/>
     <use xlink:href="#DejaVuSans-Oblique-66" transform="translate(69.824219 -15.625) scale(0.7)"/>
     <use xlink:href="#DejaVuSans-31" transform="translate(94.467773 -15.625) scale(0.7)"/>
    </g>
   </g>
   <g id="text_5">
    <!-- $Z_1$ -->
    <g transform="translate(3.6 34.521219) scale(0.125 -0.125)">
     <defs>
      <path id="DejaVuSans-Oblique-5a" d="M 838 4666 
L 4500 4666 
L 4409 4184 
L 794 531 
L 3769 531 
L 3669 0 
L -141 0 
L -50 481 
L 3566 4134 
L 738 4134 
L 838 4666 
z
" transform="scale(0.015625)"/>
     </defs>
     <use xlink:href="#DejaVuSans-Oblique-5a" transform="translate(0 0.09375)"/>
     <use xlink:href="#DejaVuSans-31" transform="translate(68.505859 -16.3125) scale(0.7)"/>
    </g>
   </g>
   <g id="text_6">
    <!-- $Z_2$ -->
    <g transform="translate(70.704 124.721219) scale(0.125 -0.125)">
     <use xlink:href="#DejaVuSans-Oblique-5a" transform="translate(0 0.09375)"/>
     <use xlink:href="#DejaVuSans-32" transform="translate(68.505859 -16.3125) scale(0.7)"/>
    </g>
   </g>
   <g id="patch_8">
    <path d="M 255.7 59.172 
C 256.416048 59.172 257.102866 58.887511 257.609188 58.381188 
C 258.115511 57.874866 258.4 57.188048 258.4 56.472 
C 258.4 55.755952 258.115511 55.069134 257.609188 54.562812 
C 257.102866 54.056489 256.416048 53.772 255.7 53.772 
C 254.983952 53.772 254.297134 54.056489 253.790812 54.562812 
C 253.284489 55.069134 253 55.755952 253 56.472 
C 253 57.188048 253.284489 57.874866 253.790812 58.381188 
C 254.297134 58.887511 254.983952 59.172 255.7 59.172 
z
" clip-path="url(#pabc6d428e9)" style="fill: #ffffff; stroke: #000000; stroke-width: 2; stroke-linejoin: miter"/>
   </g>
   <g id="text_7">
    <!-- $V_{filter}$ -->
    <g transform="translate(262.675 58.372391) scale(0.125 -0.125)">
     <defs>
      <path id="DejaVuSans-Oblique-56" d="M 1319 0 
L 500 4666 
L 1119 4666 
L 1797 653 
L 4063 4666 
L 4750 4666 
L 2053 0 
L 1319 0 
z
" transform="scale(0.015625)"/>
      <path id="DejaVuSans-Oblique-69" d="M 1172 4863 
L 1747 4863 
L 1606 4134 
L 1031 4134 
L 1172 4863 
z
M 909 3500 
L 1484 3500 
L 800 0 
L 225 0 
L 909 3500 
z
" transform="scale(0.015625)"/>
      <path id="DejaVuSans-Oblique-6c" d="M 1172 4863 
L 1747 4863 
L 800 0 
L 225 0 
L 1172 4863 
z
" transform="scale(0.015625)"/>
      <path id="DejaVuSans-Oblique-74" d="M 2706 3500 
L 2619 3053 
L 1472 3053 
L 1100 1153 
Q 1081 1047 1072 975 
Q 1063 903 1063 863 
Q 1063 663 1183 572 
Q 1303 481 1569 481 
L 2150 481 
L 2053 0 
L 1503 0 
Q 991 0 739 200 
Q 488 400 488 806 
Q 488 878 497 964 
Q 506 1050 525 1153 
L 897 3053 
L 409 3053 
L 500 3500 
L 978 3500 
L 1172 4494 
L 1747 4494 
L 1556 3500 
L 2706 3500 
z
" transform="scale(0.015625)"/>
      <path id="DejaVuSans-Oblique-65" d="M 3078 2063 
Q 3088 2113 3092 2166 
Q 3097 2219 3097 2272 
Q 3097 2653 2873 2875 
Q 2650 3097 2266 3097 
Q 1838 3097 1509 2826 
Q 1181 2556 1013 2059 
L 3078 2063 
z
M 3578 1613 
L 903 1613 
Q 884 1494 878 1425 
Q 872 1356 872 1306 
Q 872 872 1139 634 
Q 1406 397 1894 397 
Q 2269 397 2603 481 
Q 2938 566 3225 728 
L 3116 159 
Q 2806 34 2476 -28 
Q 2147 -91 1806 -91 
Q 1078 -91 686 257 
Q 294 606 294 1247 
Q 294 1794 489 2264 
Q 684 2734 1063 3103 
Q 1306 3334 1642 3459 
Q 1978 3584 2356 3584 
Q 2950 3584 3301 3228 
Q 3653 2872 3653 2272 
Q 3653 2128 3634 1964 
Q 3616 1800 3578 1613 
z
" transform="scale(0.015625)"/>
      <path id="DejaVuSans-Oblique-72" d="M 2853 2969 
Q 2766 3016 2653 3041 
Q 2541 3066 2413 3066 
Q 1953 3066 1609 2717 
Q 1266 2369 1153 1784 
L 800 0 
L 225 0 
L 909 3500 
L 1484 3500 
L 1375 2956 
Q 1603 3259 1920 3421 
Q 2238 3584 2597 3584 
Q 2691 3584 2781 3573 
Q 2872 3563 2963 3538 
L 2853 2969 
z
" transform="scale(0.015625)"/>
     </defs>
     <use xlink:href="#DejaVuSans-Oblique-56" transform="translate(0 0.09375)"/>
     <use xlink:href="#DejaVuSans-Oblique-66" transform="translate(68.408203 -16.3125) scale(0.7)"/>
     <use xlink:href="#DejaVuSans-Oblique-69" transform="translate(93.051758 -16.3125) scale(0.7)"/>
     <use xlink:href="#DejaVuSans-Oblique-6c" transform="translate(112.5 -16.3125) scale(0.7)"/>
     <use xlink:href="#DejaVuSans-Oblique-74" transform="translate(131.948242 -16.3125) scale(0.7)"/>
     <use xlink:href="#DejaVuSans-Oblique-65" transform="translate(159.394531 -16.3125) scale(0.7)"/>
     <use xlink:href="#DejaVuSans-Oblique-72" transform="translate(202.460938 -16.3125) scale(0.7)"/>
    </g>
   </g>
   <g id="patch_9">
    <path d="M 237.7 59.172 
C 238.416048 59.172 239.102866 58.887511 239.609188 58.381188 
C 240.115511 57.874866 240.4 57.188048 240.4 56.472 
C 240.4 55.755952 240.115511 55.069134 239.609188 54.562812 
C 239.102866 54.056489 238.416048 53.772 237.7 53.772 
C 236.983952 53.772 236.297134 54.056489 235.790812 54.562812 
C 235.284489 55.069134 235 55.755952 235 56.472 
C 235 57.188048 235.284489 57.874866 235.790812 58.381188 
C 236.297134 58.887511 236.983952 59.172 237.7 59.172 
z
" clip-path="url(#pabc6d428e9)" style="stroke: #000000; stroke-width: 2; stroke-linejoin: miter"/>
   </g>
   <g id="patch_10">
    <path d="M 183.7 59.172 
C 184.416048 59.172 185.102866 58.887511 185.609188 58.381188 
C 186.115511 57.874866 186.4 57.188048 186.4 56.472 
C 186.4 55.755952 186.115511 55.069134 185.609188 54.562812 
C 185.102866 54.056489 184.416048 53.772 183.7 53.772 
C 182.983952 53.772 182.297134 54.056489 181.790812 54.562812 
C 181.284489 55.069134 181 55.755952 181 56.472 
C 181 57.188048 181.284489 57.874866 181.790812 58.381188 
C 182.297134 58.887511 182.983952 59.172 183.7 59.172 
z
" clip-path="url(#pabc6d428e9)" style="stroke: #000000; stroke-width: 2; stroke-linejoin: miter"/>
   </g>
   <g id="patch_11">
    <path d="M 57.7 59.172 
C 58.416048 59.172 59.102866 58.887511 59.609188 58.381188 
C 60.115511 57.874866 60.4 57.188048 60.4 56.472 
C 60.4 55.755952 60.115511 55.069134 59.609188 54.562812 
C 59.102866 54.056489 58.416048 53.772 57.7 53.772 
C 56.983952 53.772 56.297134 54.056489 55.790812 54.562812 
C 55.284489 55.069134 55 55.755952 55 56.472 
C 55 57.188048 55.284489 57.874866 55.790812 58.381188 
C 56.297134 58.887511 56.983952 59.172 57.7 59.172 
z
" clip-path="url(#pabc6d428e9)" style="fill: #ffffff; stroke: #000000; stroke-width: 2; stroke-linejoin: miter"/>
   </g>
   <g id="text_8">
    <!-- $V_{in}$ -->
    <g transform="translate(27.6625 58.372391) scale(0.125 -0.125)">
     <defs>
      <path id="DejaVuSans-Oblique-6e" d="M 3566 2113 
L 3156 0 
L 2578 0 
L 2988 2091 
Q 3016 2238 3031 2350 
Q 3047 2463 3047 2528 
Q 3047 2791 2881 2937 
Q 2716 3084 2419 3084 
Q 1956 3084 1622 2776 
Q 1288 2469 1184 1941 
L 800 0 
L 225 0 
L 903 3500 
L 1478 3500 
L 1363 2950 
Q 1603 3253 1940 3418 
Q 2278 3584 2650 3584 
Q 3113 3584 3367 3334 
Q 3622 3084 3622 2631 
Q 3622 2519 3608 2391 
Q 3594 2263 3566 2113 
z
" transform="scale(0.015625)"/>
     </defs>
     <use xlink:href="#DejaVuSans-Oblique-56" transform="translate(0 0.09375)"/>
     <use xlink:href="#DejaVuSans-Oblique-69" transform="translate(68.408203 -16.3125) scale(0.7)"/>
     <use xlink:href="#DejaVuSans-Oblique-6e" transform="translate(87.856445 -16.3125) scale(0.7)"/>
    </g>
   </g>
  </g>
 </g>
 <defs>
  <clipPath id="pabc6d428e9">
   <rect x="9.865" y="3.6" width="260.37" height="164.384"/>
  </clipPath>
 </defs>
</svg>