<?xml version="1.0" encoding="utf-8" standalone="no"?>
<!DOCTYPE svg PUBLIC "-//W3C//DTD SVG 1.1//EN"
  "http://www.w3.org/Graphics/SVG/1.1/DTD/svg11.dtd">
<svg xmlns:xlink="http://www.w3.org/1999/xlink" width="359.706pt" height="300.097656pt" viewBox="0 0 359.706 300.097656" xmlns="http://www.w3.org/2000/svg" version="1.1">
 <metadata>
  <rdf:RDF xmlns:dc="http://purl.org/dc/elements/1.1/" xmlns:cc="http://creativecommons.org/ns#" xmlns:rdf="http://www.w3.org/1999/02/22-rdf-syntax-ns#">
   <cc:Work>
    <dc:type rdf:resource="http://purl.org/dc/dcmitype/StillImage"/>
    <dc:date>2024-01-10T23:40:13.751950</dc:date>
    <dc:format>image/svg+xml</dc:format>
    <dc:creator>
     <cc:Agent>
      <dc:title>Matplotlib v3.8.2, https://matplotlib.org/</dc:title>
     </cc:Agent>
    </dc:creator>
   </cc:Work>
  </rdf:RDF>
 </metadata>
 <defs>
  <style type="text/css">*{stroke-linejoin: round; stroke-linecap: butt}</style>
 </defs>
 <g id="figure_1">
  <g id="patch_1">
   <path d="M 0 300.097656 
L 359.706 300.097656 
L 359.706 0 
L 0 0 
z
" style="fill: #ffffff"/>
  </g>
  <g id="axes_1">
   <g id="patch_2">
    <path d="M 234.843 145.057656 
L 235.014352 145.056297 
L 235.185662 145.052219 
L 235.356885 145.045424 
L 235.527978 145.035912 
L 235.6989 145.023688 
L 235.869605 145.008753 
L 236.040053 144.991112 
L 236.210198 144.970768 
L 236.38 144.947728 
L 236.549415 144.921996 
L 236.7184 144.89358 
L 236.886913 144.862486 
L 237.054912 144.828723 
L 237.222354 144.792298 
L 237.389197 144.753221 
L 237.555398 144.711502 
L 237.720917 144.667152 
L 237.885712 144.62018 
L 238.04974 144.5706 
L 238.212961 144.518424 
L 238.375334 144.463665 
L 238.536818 144.406337 
L 238.697371 144.346453 
L 238.856955 144.28403 
L 239.015527 144.219083 
L 239.17305 144.151628 
L 239.329482 144.081682 
L 239.484785 144.009263 
L 239.638919 143.934389 
L 239.791846 143.857079 
L 239.943528 143.777353 
L 240.093925 143.69523 
L 240.243 143.610731 
L 240.390716 143.523877 
L 240.537035 143.434691 
L 240.681921 143.343194 
L 240.825337 143.249411 
L 240.967247 143.153363 
L 241.107615 143.055077 
L 241.246406 142.954575 
L 241.383585 142.851884 
L 241.519117 142.74703 
L 241.652969 142.640038 
L 241.785106 142.530936 
L 241.915496 142.419752 
L 242.044105 142.306512 
L 242.170902 142.191247 
L 242.295853 142.073984 
L 242.418929 141.954753 
L 242.540097 141.833585 
L 242.659328 141.71051 
L 242.77659 141.585558 
L 242.891856 141.458761 
L 243.005095 141.330152 
L 243.11628 141.199762 
L 243.225382 141.067625 
L 243.332373 140.933773 
L 243.437228 140.798241 
L 243.539919 140.661062 
L 243.64042 140.522271 
L 243.738707 140.381903 
L 243.834754 140.239993 
L 243.928538 140.096577 
L 244.020035 139.951691 
L 244.109221 139.805372 
L 244.196074 139.657656 
L 244.280573 139.508581 
L 244.362696 139.358184 
L 244.442423 139.206503 
L 244.519733 139.053576 
L 244.594607 138.899441 
L 244.667026 138.744138 
L 244.736971 138.587706 
L 244.804426 138.430184 
L 244.869374 138.271611 
L 244.931797 138.112027 
L 244.99168 137.951474 
L 245.049009 137.78999 
L 245.103768 137.627617 
L 245.155944 137.464396 
L 245.205524 137.300368 
L 245.252495 137.135573 
L 245.296846 136.970055 
L 245.338565 136.803853 
L 245.377642 136.63701 
L 245.414066 136.469568 
L 245.44783 136.30157 
L 245.478924 136.133057 
L 245.50734 135.964071 
L 245.533072 135.794657 
L 245.556112 135.624855 
L 245.576455 135.454709 
L 245.594097 135.284262 
L 245.609032 135.113556 
L 245.621256 134.942635 
L 245.630767 134.771541 
L 245.637563 134.600318 
L 245.641641 134.429009 
L 245.643 134.257656 
L 245.643 48.097656 
L 245.641641 47.926304 
L 245.637563 47.754995 
L 245.630767 47.583772 
L 245.621256 47.412678 
L 245.609032 47.241757 
L 245.594097 47.071051 
L 245.576455 46.900604 
L 245.556112 46.730458 
L 245.533072 46.560656 
L 245.50734 46.391241 
L 245.478924 46.222256 
L 245.44783 46.053743 
L 245.414066 45.885744 
L 245.377642 45.718302 
L 245.338565 45.55146 
L 245.296846 45.385258 
L 245.252495 45.219739 
L 245.205524 45.054945 
L 245.155944 44.890916 
L 245.103768 44.727695 
L 245.049009 44.565322 
L 244.99168 44.403839 
L 244.931797 44.243285 
L 244.869374 44.083702 
L 244.804426 43.925129 
L 244.736971 43.767606 
L 244.667026 43.611174 
L 244.594607 43.455871 
L 244.519733 43.301737 
L 244.442423 43.14881 
L 244.362696 42.997129 
L 244.280573 42.846732 
L 244.196074 42.697656 
L 244.109221 42.54994 
L 244.020035 42.403621 
L 243.928538 42.258735 
L 243.834754 42.11532 
L 243.738707 41.97341 
L 243.64042 41.833042 
L 243.539919 41.694251 
L 243.437228 41.557072 
L 243.332373 41.421539 
L 243.225382 41.287687 
L 243.11628 41.15555 
L 243.005095 41.02516 
L 242.891856 40.896551 
L 242.77659 40.769755 
L 242.659328 40.644803 
L 242.540097 40.521727 
L 242.418929 40.400559 
L 242.295853 40.281329 
L 242.170902 40.164066 
L 242.044105 40.0488 
L 241.915496 39.935561 
L 241.785106 39.824376 
L 241.652969 39.715274 
L 241.519117 39.608283 
L 241.383585 39.503428 
L 241.246406 39.400737 
L 241.107615 39.300236 
L 240.967247 39.201949 
L 240.825337 39.105902 
L 240.681921 39.012118 
L 240.537035 38.920622 
L 240.390716 38.831435 
L 240.243 38.744582 
L 240.093925 38.660083 
L 239.943528 38.57796 
L 239.791846 38.498233 
L 239.638919 38.420923 
L 239.484785 38.34605 
L 239.329482 38.273631 
L 239.17305 38.203685 
L 239.015527 38.13623 
L 238.856955 38.071283 
L 238.697371 38.008859 
L 238.536818 37.948976 
L 238.375334 37.891647 
L 238.212961 37.836888 
L 238.04974 37.784712 
L 237.885712 37.735132 
L 237.720917 37.688161 
L 237.555398 37.64381 
L 237.389197 37.602091 
L 237.222354 37.563015 
L 237.054912 37.52659 
L 236.886913 37.492826 
L 236.7184 37.461733 
L 236.549415 37.433316 
L 236.38 37.407585 
L 236.210198 37.384544 
L 236.040053 37.364201 
L 235.869605 37.346559 
L 235.6989 37.331625 
L 235.527978 37.3194 
L 235.356885 37.309889 
L 235.185662 37.303094 
L 235.014352 37.299016 
L 234.843 37.297656 
L 158.727 37.297656 
L 158.555648 37.299016 
L 158.384338 37.303094 
L 158.213115 37.309889 
L 158.042022 37.3194 
L 157.8711 37.331625 
L 157.700395 37.346559 
L 157.529947 37.364201 
L 157.359802 37.384544 
L 157.19 37.407585 
L 157.020585 37.433316 
L 156.8516 37.461733 
L 156.683087 37.492826 
L 156.515088 37.52659 
L 156.347646 37.563015 
L 156.180803 37.602091 
L 156.014602 37.64381 
L 155.849083 37.688161 
L 155.684288 37.735132 
L 155.52026 37.784712 
L 155.357039 37.836888 
L 155.194666 37.891647 
L 155.033182 37.948976 
L 154.872629 38.008859 
L 154.713045 38.071283 
L 154.554473 38.13623 
L 154.39695 38.203685 
L 154.240518 38.273631 
L 154.085215 38.34605 
L 153.931081 38.420923 
L 153.778154 38.498233 
L 153.626472 38.57796 
L 153.476075 38.660083 
L 153.327 38.744582 
L 153.179284 38.831435 
L 153.032965 38.920622 
L 152.888079 39.012118 
L 152.744663 39.105902 
L 152.602753 39.201949 
L 152.462385 39.300236 
L 152.323594 39.400737 
L 152.186415 39.503428 
L 152.050883 39.608283 
L 151.917031 39.715274 
L 151.784894 39.824376 
L 151.654504 39.935561 
L 151.525895 40.0488 
L 151.399098 40.164066 
L 151.274147 40.281329 
L 151.151071 40.400559 
L 151.029903 40.521727 
L 150.910672 40.644803 
L 150.79341 40.769755 
L 150.678144 40.896551 
L 150.564905 41.02516 
L 150.45372 41.15555 
L 150.344618 41.287687 
L 150.237627 41.421539 
L 150.132772 41.557072 
L 150.030081 41.694251 
L 149.92958 41.833042 
L 149.831293 41.97341 
L 149.735246 42.11532 
L 149.641462 42.258735 
L 149.549965 42.403621 
L 149.460779 42.54994 
L 149.373926 42.697656 
L 149.289427 42.846732 
L 149.207304 42.997129 
L 149.127577 43.14881 
L 149.050267 43.301737 
L 148.975393 43.455871 
L 148.902974 43.611174 
L 148.833029 43.767606 
L 148.765574 43.925129 
L 148.700626 44.083702 
L 148.638203 44.243285 
L 148.57832 44.403839 
L 148.520991 44.565322 
L 148.466232 44.727695 
L 148.414056 44.890916 
L 148.364476 45.054945 
L 148.317505 45.219739 
L 148.273154 45.385258 
L 148.231435 45.55146 
L 148.192358 45.718302 
L 148.155934 45.885744 
L 148.12217 46.053743 
L 148.091076 46.222256 
L 148.06266 46.391241 
L 148.036928 46.560656 
L 148.013888 46.730458 
L 147.993545 46.900604 
L 147.975903 47.071051 
L 147.960968 47.241757 
L 147.948744 47.412678 
L 147.939233 47.583772 
L 147.932437 47.754995 
L 147.928359 47.926304 
L 147.927 48.097656 
L 147.927 134.257656 
L 147.928359 134.429009 
L 147.932437 134.600318 
L 147.939233 134.771541 
L 147.948744 134.942635 
L 147.960968 135.113556 
L 147.975903 135.284262 
L 147.993545 135.454709 
L 148.013888 135.624855 
L 148.036928 135.794657 
L 148.06266 135.964071 
L 148.091076 136.133057 
L 148.12217 136.30157 
L 148.155934 136.469568 
L 148.192358 136.63701 
L 148.231435 136.803853 
L 148.273154 136.970055 
L 148.317505 137.135573 
L 148.364476 137.300368 
L 148.414056 137.464396 
L 148.466232 137.627617 
L 148.520991 137.78999 
L 148.57832 137.951474 
L 148.638203 138.112027 
L 148.700626 138.271611 
L 148.765574 138.430184 
L 148.833029 138.587706 
L 148.902974 138.744138 
L 148.975393 138.899441 
L 149.050267 139.053576 
L 149.127577 139.206503 
L 149.207304 139.358184 
L 149.289427 139.508581 
L 149.373926 139.657656 
L 149.460779 139.805372 
L 149.549965 139.951691 
L 149.641462 140.096577 
L 149.735246 140.239993 
L 149.831293 140.381903 
L 149.92958 140.522271 
L 150.030081 140.661062 
L 150.132772 140.798241 
L 150.237627 140.933773 
L 150.344618 141.067625 
L 150.45372 141.199762 
L 150.564905 141.330152 
L 150.678144 141.458761 
L 150.79341 141.585558 
L 150.910672 141.71051 
L 151.029903 141.833585 
L 151.151071 141.954753 
L 151.274147 142.073984 
L 151.399098 142.191247 
L 151.525895 142.306512 
L 151.654504 142.419752 
L 151.784894 142.530936 
L 151.917031 142.640038 
L 152.050883 142.74703 
L 152.186415 142.851884 
L 152.323594 142.954575 
L 152.462385 143.055077 
L 152.602753 143.153363 
L 152.744663 143.249411 
L 152.888079 143.343194 
L 153.032965 143.434691 
L 153.179284 143.523877 
L 153.327 143.610731 
L 153.476075 143.69523 
L 153.626472 143.777353 
L 153.778154 143.857079 
L 153.931081 143.934389 
L 154.085215 144.009263 
L 154.240518 144.081682 
L 154.39695 144.151628 
L 154.554473 144.219083 
L 154.713045 144.28403 
L 154.872629 144.346453 
L 155.033182 144.406337 
L 155.194666 144.463665 
L 155.357039 144.518424 
L 155.52026 144.5706 
L 155.684288 144.62018 
L 155.849083 144.667152 
L 156.014602 144.711502 
L 156.180803 144.753221 
L 156.347646 144.792298 
L 156.515088 144.828723 
L 156.683087 144.862486 
L 156.8516 144.89358 
L 157.020585 144.921996 
L 157.19 144.947728 
L 157.359802 144.970768 
L 157.529947 144.991112 
L 157.700395 145.008753 
L 157.8711 145.023688 
L 158.042022 145.035912 
L 158.213115 145.045424 
L 158.384338 145.052219 
L 158.555648 145.056297 
L 158.727 145.057656 
L 234.843 145.057656 
z
" clip-path="url(#p24ac13dc8c)" style="fill: none; stroke-dasharray: 1.85,0.8; stroke-dashoffset: 0; stroke: #008000; stroke-width: 0.5; stroke-linecap: round"/>
   </g>
   <g id="patch_3">
    <path d="M 234.843 256.657656 
L 235.014352 256.656297 
L 235.185662 256.652219 
L 235.356885 256.645424 
L 235.527978 256.635912 
L 235.6989 256.623688 
L 235.869605 256.608753 
L 236.040053 256.591112 
L 236.210198 256.570768 
L 236.38 256.547728 
L 236.549415 256.521996 
L 236.7184 256.49358 
L 236.886913 256.462486 
L 237.054912 256.428723 
L 237.222354 256.392298 
L 237.389197 256.353221 
L 237.555398 256.311502 
L 237.720917 256.267152 
L 237.885712 256.22018 
L 238.04974 256.1706 
L 238.212961 256.118424 
L 238.375334 256.063665 
L 238.536818 256.006337 
L 238.697371 255.946453 
L 238.856955 255.88403 
L 239.015527 255.819083 
L 239.17305 255.751628 
L 239.329482 255.681682 
L 239.484785 255.609263 
L 239.638919 255.534389 
L 239.791846 255.457079 
L 239.943528 255.377353 
L 240.093925 255.29523 
L 240.243 255.210731 
L 240.390716 255.123877 
L 240.537035 255.034691 
L 240.681921 254.943194 
L 240.825337 254.849411 
L 240.967247 254.753363 
L 241.107615 254.655077 
L 241.246406 254.554575 
L 241.383585 254.451884 
L 241.519117 254.34703 
L 241.652969 254.240038 
L 241.785106 254.130936 
L 241.915496 254.019752 
L 242.044105 253.906512 
L 242.170902 253.791247 
L 242.295853 253.673984 
L 242.418929 253.554753 
L 242.540097 253.433585 
L 242.659328 253.31051 
L 242.77659 253.185558 
L 242.891856 253.058761 
L 243.005095 252.930152 
L 243.11628 252.799762 
L 243.225382 252.667625 
L 243.332373 252.533773 
L 243.437228 252.398241 
L 243.539919 252.261062 
L 243.64042 252.122271 
L 243.738707 251.981903 
L 243.834754 251.839993 
L 243.928538 251.696577 
L 244.020035 251.551691 
L 244.109221 251.405372 
L 244.196074 251.257656 
L 244.280573 251.108581 
L 244.362696 250.958184 
L 244.442423 250.806503 
L 244.519733 250.653576 
L 244.594607 250.499441 
L 244.667026 250.344138 
L 244.736971 250.187706 
L 244.804426 250.030184 
L 244.869374 249.871611 
L 244.931797 249.712027 
L 244.99168 249.551474 
L 245.049009 249.38999 
L 245.103768 249.227617 
L 245.155944 249.064396 
L 245.205524 248.900368 
L 245.252495 248.735573 
L 245.296846 248.570055 
L 245.338565 248.403853 
L 245.377642 248.23701 
L 245.414066 248.069568 
L 245.44783 247.90157 
L 245.478924 247.733057 
L 245.50734 247.564071 
L 245.533072 247.394657 
L 245.556112 247.224855 
L 245.576455 247.054709 
L 245.594097 246.884262 
L 245.609032 246.713556 
L 245.621256 246.542635 
L 245.630767 246.371541 
L 245.637563 246.200318 
L 245.641641 246.029009 
L 245.643 245.857656 
L 245.643 163.057656 
L 245.641641 162.886304 
L 245.637563 162.714995 
L 245.630767 162.543772 
L 245.621256 162.372678 
L 245.609032 162.201757 
L 245.594097 162.031051 
L 245.576455 161.860604 
L 245.556112 161.690458 
L 245.533072 161.520656 
L 245.50734 161.351241 
L 245.478924 161.182256 
L 245.44783 161.013743 
L 245.414066 160.845744 
L 245.377642 160.678302 
L 245.338565 160.51146 
L 245.296846 160.345258 
L 245.252495 160.179739 
L 245.205524 160.014945 
L 245.155944 159.850916 
L 245.103768 159.687695 
L 245.049009 159.525322 
L 244.99168 159.363839 
L 244.931797 159.203285 
L 244.869374 159.043702 
L 244.804426 158.885129 
L 244.736971 158.727606 
L 244.667026 158.571174 
L 244.594607 158.415871 
L 244.519733 158.261737 
L 244.442423 158.10881 
L 244.362696 157.957129 
L 244.280573 157.806732 
L 244.196074 157.657656 
L 244.109221 157.50994 
L 244.020035 157.363621 
L 243.928538 157.218735 
L 243.834754 157.07532 
L 243.738707 156.93341 
L 243.64042 156.793042 
L 243.539919 156.654251 
L 243.437228 156.517072 
L 243.332373 156.381539 
L 243.225382 156.247687 
L 243.11628 156.11555 
L 243.005095 155.98516 
L 242.891856 155.856551 
L 242.77659 155.729755 
L 242.659328 155.604803 
L 242.540097 155.481727 
L 242.418929 155.360559 
L 242.295853 155.241329 
L 242.170902 155.124066 
L 242.044105 155.0088 
L 241.915496 154.895561 
L 241.785106 154.784376 
L 241.652969 154.675274 
L 241.519117 154.568283 
L 241.383585 154.463428 
L 241.246406 154.360737 
L 241.107615 154.260236 
L 240.967247 154.161949 
L 240.825337 154.065902 
L 240.681921 153.972118 
L 240.537035 153.880622 
L 240.390716 153.791435 
L 240.243 153.704582 
L 240.093925 153.620083 
L 239.943528 153.53796 
L 239.791846 153.458233 
L 239.638919 153.380923 
L 239.484785 153.30605 
L 239.329482 153.233631 
L 239.17305 153.163685 
L 239.015527 153.09623 
L 238.856955 153.031283 
L 238.697371 152.968859 
L 238.536818 152.908976 
L 238.375334 152.851647 
L 238.212961 152.796888 
L 238.04974 152.744712 
L 237.885712 152.695132 
L 237.720917 152.648161 
L 237.555398 152.60381 
L 237.389197 152.562091 
L 237.222354 152.523015 
L 237.054912 152.48659 
L 236.886913 152.452826 
L 236.7184 152.421733 
L 236.549415 152.393316 
L 236.38 152.367585 
L 236.210198 152.344544 
L 236.040053 152.324201 
L 235.869605 152.306559 
L 235.6989 152.291625 
L 235.527978 152.2794 
L 235.356885 152.269889 
L 235.185662 152.263094 
L 235.014352 152.259016 
L 234.843 152.257656 
L 158.727 152.257656 
L 158.555648 152.259016 
L 158.384338 152.263094 
L 158.213115 152.269889 
L 158.042022 152.2794 
L 157.8711 152.291625 
L 157.700395 152.306559 
L 157.529947 152.324201 
L 157.359802 152.344544 
L 157.19 152.367585 
L 157.020585 152.393316 
L 156.8516 152.421733 
L 156.683087 152.452826 
L 156.515088 152.48659 
L 156.347646 152.523015 
L 156.180803 152.562091 
L 156.014602 152.60381 
L 155.849083 152.648161 
L 155.684288 152.695132 
L 155.52026 152.744712 
L 155.357039 152.796888 
L 155.194666 152.851647 
L 155.033182 152.908976 
L 154.872629 152.968859 
L 154.713045 153.031283 
L 154.554473 153.09623 
L 154.39695 153.163685 
L 154.240518 153.233631 
L 154.085215 153.30605 
L 153.931081 153.380923 
L 153.778154 153.458233 
L 153.626472 153.53796 
L 153.476075 153.620083 
L 153.327 153.704582 
L 153.179284 153.791435 
L 153.032965 153.880622 
L 152.888079 153.972118 
L 152.744663 154.065902 
L 152.602753 154.161949 
L 152.462385 154.260236 
L 152.323594 154.360737 
L 152.186415 154.463428 
L 152.050883 154.568283 
L 151.917031 154.675274 
L 151.784894 154.784376 
L 151.654504 154.895561 
L 151.525895 155.0088 
L 151.399098 155.124066 
L 151.274147 155.241329 
L 151.151071 155.360559 
L 151.029903 155.481727 
L 150.910672 155.604803 
L 150.79341 155.729755 
L 150.678144 155.856551 
L 150.564905 155.98516 
L 150.45372 156.11555 
L 150.344618 156.247687 
L 150.237627 156.381539 
L 150.132772 156.517072 
L 150.030081 156.654251 
L 149.92958 156.793042 
L 149.831293 156.93341 
L 149.735246 157.07532 
L 149.641462 157.218735 
L 149.549965 157.363621 
L 149.460779 157.50994 
L 149.373926 157.657656 
L 149.289427 157.806732 
L 149.207304 157.957129 
L 149.127577 158.10881 
L 149.050267 158.261737 
L 148.975393 158.415871 
L 148.902974 158.571174 
L 148.833029 158.727606 
L 148.765574 158.885129 
L 148.700626 159.043702 
L 148.638203 159.203285 
L 148.57832 159.363839 
L 148.520991 159.525322 
L 148.466232 159.687695 
L 148.414056 159.850916 
L 148.364476 160.014945 
L 148.317505 160.179739 
L 148.273154 160.345258 
L 148.231435 160.51146 
L 148.192358 160.678302 
L 148.155934 160.845744 
L 148.12217 161.013743 
L 148.091076 161.182256 
L 148.06266 161.351241 
L 148.036928 161.520656 
L 148.013888 161.690458 
L 147.993545 161.860604 
L 147.975903 162.031051 
L 147.960968 162.201757 
L 147.948744 162.372678 
L 147.939233 162.543772 
L 147.932437 162.714995 
L 147.928359 162.886304 
L 147.927 163.057656 
L 147.927 245.857656 
L 147.928359 246.029009 
L 147.932437 246.200318 
L 147.939233 246.371541 
L 147.948744 246.542635 
L 147.960968 246.713556 
L 147.975903 246.884262 
L 147.993545 247.054709 
L 148.013888 247.224855 
L 148.036928 247.394657 
L 148.06266 247.564071 
L 148.091076 247.733057 
L 148.12217 247.90157 
L 148.155934 248.069568 
L 148.192358 248.23701 
L 148.231435 248.403853 
L 148.273154 248.570055 
L 148.317505 248.735573 
L 148.364476 248.900368 
L 148.414056 249.064396 
L 148.466232 249.227617 
L 148.520991 249.38999 
L 148.57832 249.551474 
L 148.638203 249.712027 
L 148.700626 249.871611 
L 148.765574 250.030184 
L 148.833029 250.187706 
L 148.902974 250.344138 
L 148.975393 250.499441 
L 149.050267 250.653576 
L 149.127577 250.806503 
L 149.207304 250.958184 
L 149.289427 251.108581 
L 149.373926 251.257656 
L 149.460779 251.405372 
L 149.549965 251.551691 
L 149.641462 251.696577 
L 149.735246 251.839993 
L 149.831293 251.981903 
L 149.92958 252.122271 
L 150.030081 252.261062 
L 150.132772 252.398241 
L 150.237627 252.533773 
L 150.344618 252.667625 
L 150.45372 252.799762 
L 150.564905 252.930152 
L 150.678144 253.058761 
L 150.79341 253.185558 
L 150.910672 253.31051 
L 151.029903 253.433585 
L 151.151071 253.554753 
L 151.274147 253.673984 
L 151.399098 253.791247 
L 151.525895 253.906512 
L 151.654504 254.019752 
L 151.784894 254.130936 
L 151.917031 254.240038 
L 152.050883 254.34703 
L 152.186415 254.451884 
L 152.323594 254.554575 
L 152.462385 254.655077 
L 152.602753 254.753363 
L 152.744663 254.849411 
L 152.888079 254.943194 
L 153.032965 255.034691 
L 153.179284 255.123877 
L 153.327 255.210731 
L 153.476075 255.29523 
L 153.626472 255.377353 
L 153.778154 255.457079 
L 153.931081 255.534389 
L 154.085215 255.609263 
L 154.240518 255.681682 
L 154.39695 255.751628 
L 154.554473 255.819083 
L 154.713045 255.88403 
L 154.872629 255.946453 
L 155.033182 256.006337 
L 155.194666 256.063665 
L 155.357039 256.118424 
L 155.52026 256.1706 
L 155.684288 256.22018 
L 155.849083 256.267152 
L 156.014602 256.311502 
L 156.180803 256.353221 
L 156.347646 256.392298 
L 156.515088 256.428723 
L 156.683087 256.462486 
L 156.8516 256.49358 
L 157.020585 256.521996 
L 157.19 256.547728 
L 157.359802 256.570768 
L 157.529947 256.591112 
L 157.700395 256.608753 
L 157.8711 256.623688 
L 158.042022 256.635912 
L 158.213115 256.645424 
L 158.384338 256.652219 
L 158.555648 256.656297 
L 158.727 256.657656 
L 234.843 256.657656 
z
" clip-path="url(#p24ac13dc8c)" style="fill: none; stroke-dasharray: 1.85,0.8; stroke-dashoffset: 0; stroke: #008000; stroke-width: 0.5; stroke-linecap: round"/>
   </g>
   <g id="line2d_1">
    <path d="M 184.323 58.777656 
L 197.523 58.777656 
" clip-path="url(#p24ac13dc8c)" style="fill: none; stroke: #000000; stroke-width: 2; stroke-linecap: round"/>
   </g>
   <g id="line2d_2">
    <path d="M 197.523 45.577656 
L 197.523 71.977656 
" clip-path="url(#p24ac13dc8c)" style="fill: none; stroke: #000000; stroke-width: 2; stroke-linecap: round"/>
   </g>
   <g id="line2d_3">
    <path d="M 197.523 52.177656 
L 211.383 40.297656 
L 211.383 33.697656 
" clip-path="url(#p24ac13dc8c)" style="fill: none; stroke: #000000; stroke-width: 2; stroke-linecap: round"/>
   </g>
   <g id="line2d_4">
    <path d="M 197.523 65.377656 
L 211.383 77.257656 
L 211.383 83.857656 
" clip-path="url(#p24ac13dc8c)" style="fill: none; stroke: #000000; stroke-width: 2; stroke-linecap: round"/>
   </g>
   <g id="line2d_5">
    <path d="M 197.523 65.377656 
L 204.549691 71.400534 
" clip-path="url(#p24ac13dc8c)" style="fill: none; stroke: #000000; stroke-width: 2; stroke-linecap: round"/>
   </g>
   <g id="patch_4">
    <path d="M 206.89254 68.66721 
L 211.383 77.257656 
L 202.206842 74.133858 
z
" clip-path="url(#p24ac13dc8c)"/>
   </g>
   <g id="line2d_6">
    <path d="M 184.323 58.777656 
L 157.323 58.777656 
L 130.323 58.777656 
" clip-path="url(#p24ac13dc8c)" style="fill: none; stroke: #000000; stroke-width: 2; stroke-linecap: round"/>
   </g>
   <g id="line2d_7">
    <path d="M 130.323 58.777656 
L 130.323 103.777656 
L 130.323 148.777656 
" clip-path="url(#p24ac13dc8c)" style="fill: none; stroke: #000000; stroke-width: 2; stroke-linecap: round"/>
   </g>
   <g id="line2d_8">
    <path d="M 130.323 148.777656 
L 130.323 191.977656 
L 130.323 235.177656 
" clip-path="url(#p24ac13dc8c)" style="fill: none; stroke: #000000; stroke-width: 2; stroke-linecap: round"/>
   </g>
   <g id="line2d_9">
    <path d="M 130.323 235.177656 
L 157.323 235.177656 
L 184.323 235.177656 
" clip-path="url(#p24ac13dc8c)" style="fill: none; stroke: #000000; stroke-width: 2; stroke-linecap: round"/>
   </g>
   <g id="line2d_10">
    <path d="M 184.323 235.177656 
L 197.523 235.177656 
" clip-path="url(#p24ac13dc8c)" style="fill: none; stroke: #000000; stroke-width: 2; stroke-linecap: round"/>
   </g>
   <g id="line2d_11">
    <path d="M 197.523 221.977656 
L 197.523 248.377656 
" clip-path="url(#p24ac13dc8c)" style="fill: none; stroke: #000000; stroke-width: 2; stroke-linecap: round"/>
   </g>
   <g id="line2d_12">
    <path d="M 197.523 228.577656 
L 211.383 216.697656 
L 211.383 210.097656 
" clip-path="url(#p24ac13dc8c)" style="fill: none; stroke: #000000; stroke-width: 2; stroke-linecap: round"/>
   </g>
   <g id="line2d_13">
    <path d="M 197.523 241.777656 
L 211.383 253.657656 
L 211.383 260.257656 
" clip-path="url(#p24ac13dc8c)" style="fill: none; stroke: #000000; stroke-width: 2; stroke-linecap: round"/>
   </g>
   <g id="line2d_14">
    <path d="M 211.383 216.697656 
L 204.356309 222.720534 
" clip-path="url(#p24ac13dc8c)" style="fill: none; stroke: #000000; stroke-width: 2; stroke-linecap: round"/>
   </g>
   <g id="patch_5">
    <path d="M 206.699158 225.453858 
L 197.523 228.577656 
L 202.01346 219.98721 
z
" clip-path="url(#p24ac13dc8c)"/>
   </g>
   <g id="line2d_15">
    <path d="M 130.323 148.777656 
L 79.563 148.777656 
M 79.563 157.777656 
L 79.563 139.777656 
M 73.083 157.777656 
L 73.083 139.777656 
M 73.083 148.777656 
L 22.323 148.777656 
" clip-path="url(#p24ac13dc8c)" style="fill: none; stroke: #000000; stroke-width: 2; stroke-linecap: round"/>
   </g>
   <g id="line2d_16">
    <path d="M 211.383 83.857656 
L 224.583 83.857656 
" clip-path="url(#p24ac13dc8c)" style="fill: none; stroke: #000000; stroke-width: 2; stroke-linecap: round"/>
   </g>
   <g id="line2d_17">
    <path d="M 224.583 70.657656 
L 224.583 97.057656 
" clip-path="url(#p24ac13dc8c)" style="fill: none; stroke: #000000; stroke-width: 2; stroke-linecap: round"/>
   </g>
   <g id="line2d_18">
    <path d="M 224.583 77.257656 
L 238.443 65.377656 
L 238.443 58.777656 
" clip-path="url(#p24ac13dc8c)" style="fill: none; stroke: #000000; stroke-width: 2; stroke-linecap: round"/>
   </g>
   <g id="line2d_19">
    <path d="M 224.583 90.457656 
L 238.443 102.337656 
L 238.443 108.937656 
" clip-path="url(#p24ac13dc8c)" style="fill: none; stroke: #000000; stroke-width: 2; stroke-linecap: round"/>
   </g>
   <g id="line2d_20">
    <path d="M 224.583 90.457656 
L 231.609691 96.480534 
" clip-path="url(#p24ac13dc8c)" style="fill: none; stroke: #000000; stroke-width: 2; stroke-linecap: round"/>
   </g>
   <g id="patch_6">
    <path d="M 233.95254 93.74721 
L 238.443 102.337656 
L 229.266842 99.213858 
z
" clip-path="url(#p24ac13dc8c)"/>
   </g>
   <g id="line2d_21">
    <path d="M 211.383 83.857656 
L 211.383 98.257656 
L 220.383 101.257656 
L 202.383 107.257656 
L 220.383 113.257656 
L 202.383 119.257656 
L 220.383 125.257656 
L 202.383 131.257656 
L 211.383 134.257656 
L 211.383 148.657656 
" clip-path="url(#p24ac13dc8c)" style="fill: none; stroke: #000000; stroke-width: 2; stroke-linecap: round"/>
   </g>
   <g id="line2d_22">
    <path d="M 238.443 108.937656 
L 238.443 128.797656 
L 238.443 148.657656 
" clip-path="url(#p24ac13dc8c)" style="fill: none; stroke: #000000; stroke-width: 2; stroke-linecap: round"/>
   </g>
   <g id="line2d_23">
    <path d="M 238.443 58.777656 
L 238.443 46.237656 
L 238.443 33.697656 
" clip-path="url(#p24ac13dc8c)" style="fill: none; stroke: #000000; stroke-width: 2; stroke-linecap: round"/>
   </g>
   <g id="line2d_24">
    <path d="M 238.443 33.697656 
L 231.243 33.697656 
L 224.043 33.697656 
" clip-path="url(#p24ac13dc8c)" style="fill: none; stroke: #000000; stroke-width: 2; stroke-linecap: round"/>
   </g>
   <g id="line2d_25">
    <path d="M 224.043 33.697656 
L 224.043 19.297656 
" clip-path="url(#p24ac13dc8c)" style="fill: none; stroke: #000000; stroke-width: 2; stroke-linecap: round"/>
   </g>
   <g id="line2d_26">
    <path d="M 224.043 19.297656 
L 217.293 19.297656 
" clip-path="url(#p24ac13dc8c)" style="fill: none; stroke: #000000; stroke-width: 2; stroke-linecap: round"/>
   </g>
   <g id="line2d_27">
    <path d="M 224.043 19.297656 
L 230.793 19.297656 
" clip-path="url(#p24ac13dc8c)" style="fill: none; stroke: #000000; stroke-width: 2; stroke-linecap: round"/>
   </g>
   <g id="line2d_28">
    <path d="M 224.043 33.697656 
L 217.713 33.697656 
L 211.383 33.697656 
" clip-path="url(#p24ac13dc8c)" style="fill: none; stroke: #000000; stroke-width: 2; stroke-linecap: round"/>
   </g>
   <g id="line2d_29">
    <path d="M 211.383 148.657656 
L 211.383 161.377656 
L 220.383 164.377656 
L 202.383 170.377656 
L 220.383 176.377656 
L 202.383 182.377656 
L 220.383 188.377656 
L 202.383 194.377656 
L 211.383 197.377656 
L 211.383 210.097656 
" clip-path="url(#p24ac13dc8c)" style="fill: none; stroke: #000000; stroke-width: 2; stroke-linecap: round"/>
   </g>
   <g id="line2d_30">
    <path d="M 211.383 210.097656 
L 224.583 210.097656 
" clip-path="url(#p24ac13dc8c)" style="fill: none; stroke: #000000; stroke-width: 2; stroke-linecap: round"/>
   </g>
   <g id="line2d_31">
    <path d="M 224.583 196.897656 
L 224.583 223.297656 
" clip-path="url(#p24ac13dc8c)" style="fill: none; stroke: #000000; stroke-width: 2; stroke-linecap: round"/>
   </g>
   <g id="line2d_32">
    <path d="M 224.583 203.497656 
L 238.443 191.617656 
L 238.443 185.017656 
" clip-path="url(#p24ac13dc8c)" style="fill: none; stroke: #000000; stroke-width: 2; stroke-linecap: round"/>
   </g>
   <g id="line2d_33">
    <path d="M 224.583 216.697656 
L 238.443 228.577656 
L 238.443 235.177656 
" clip-path="url(#p24ac13dc8c)" style="fill: none; stroke: #000000; stroke-width: 2; stroke-linecap: round"/>
   </g>
   <g id="line2d_34">
    <path d="M 238.443 191.617656 
L 231.416309 197.640534 
" clip-path="url(#p24ac13dc8c)" style="fill: none; stroke: #000000; stroke-width: 2; stroke-linecap: round"/>
   </g>
   <g id="patch_7">
    <path d="M 233.759158 200.373858 
L 224.583 203.497656 
L 229.07346 194.90721 
z
" clip-path="url(#p24ac13dc8c)"/>
   </g>
   <g id="line2d_35">
    <path d="M 238.443 185.017656 
L 238.443 166.837656 
L 238.443 148.657656 
" clip-path="url(#p24ac13dc8c)" style="fill: none; stroke: #000000; stroke-width: 2; stroke-linecap: round"/>
   </g>
   <g id="line2d_36">
    <path d="M 238.443 235.177656 
L 238.443 247.717656 
L 238.443 260.257656 
" clip-path="url(#p24ac13dc8c)" style="fill: none; stroke: #000000; stroke-width: 2; stroke-linecap: round"/>
   </g>
   <g id="line2d_37">
    <path d="M 238.443 260.257656 
L 231.243 260.257656 
L 224.043 260.257656 
" clip-path="url(#p24ac13dc8c)" style="fill: none; stroke: #000000; stroke-width: 2; stroke-linecap: round"/>
   </g>
   <g id="line2d_38">
    <path d="M 224.043 260.257656 
L 224.043 274.657656 
L 215.043 274.657656 
L 233.043 274.657656 
M 217.743 278.977656 
L 230.343 278.977656 
M 222.243 283.297656 
L 225.843 283.297656 
" clip-path="url(#p24ac13dc8c)" style="fill: none; stroke: #000000; stroke-width: 2; stroke-linecap: round"/>
   </g>
   <g id="line2d_39">
    <path d="M 224.043 260.257656 
L 217.713 260.257656 
L 211.383 260.257656 
" clip-path="url(#p24ac13dc8c)" style="fill: none; stroke: #000000; stroke-width: 2; stroke-linecap: round"/>
   </g>
   <g id="line2d_40">
    <path d="M 211.383 148.657656 
L 262.143 148.657656 
M 262.143 139.657656 
L 262.143 157.657656 
M 268.623 139.657656 
L 268.623 157.657656 
M 268.623 148.657656 
L 319.383 148.657656 
" clip-path="url(#p24ac13dc8c)" style="fill: none; stroke: #000000; stroke-width: 2; stroke-linecap: round"/>
   </g>
   <g id="line2d_41">
    <path d="M 319.383 148.657656 
L 319.383 184.657656 
L 328.383 187.657656 
L 310.383 193.657656 
L 328.383 199.657656 
L 310.383 205.657656 
L 328.383 211.657656 
L 310.383 217.657656 
L 319.383 220.657656 
L 319.383 256.657656 
" clip-path="url(#p24ac13dc8c)" style="fill: none; stroke: #000000; stroke-width: 2; stroke-linecap: round"/>
   </g>
   <g id="line2d_42">
    <path d="M 319.383 148.657656 
L 328.383 148.657656 
L 337.383 148.657656 
" clip-path="url(#p24ac13dc8c)" style="fill: none; stroke: #000000; stroke-width: 2; stroke-linecap: round"/>
   </g>
   <g id="line2d_43">
    <path d="M 319.383 256.657656 
L 319.383 271.057656 
L 310.383 271.057656 
L 328.383 271.057656 
M 313.083 275.377656 
L 325.683 275.377656 
M 317.583 279.697656 
L 321.183 279.697656 
" clip-path="url(#p24ac13dc8c)" style="fill: none; stroke: #000000; stroke-width: 2; stroke-linecap: round"/>
   </g>
   <g id="line2d_44">
    <path d="M 319.383 256.657656 
L 319.383 254.857656 
L 319.383 253.057656 
" clip-path="url(#p24ac13dc8c)" style="fill: none; stroke: #000000; stroke-width: 2; stroke-linecap: round"/>
   </g>
   <g id="text_1">
    <!-- $C_{in}$ -->
    <g transform="translate(67.7605 133.578047) scale(0.125 -0.125)">
     <defs>
      <path id="DejaVuSans-Oblique-43" d="M 4447 4306 
L 4319 3641 
Q 4019 3944 3683 4091 
Q 3347 4238 2956 4238 
Q 2422 4238 2017 3981 
Q 1613 3725 1319 3200 
Q 1131 2863 1032 2486 
Q 934 2109 934 1728 
Q 934 1091 1264 756 
Q 1594 422 2222 422 
Q 2656 422 3056 561 
Q 3456 700 3834 978 
L 3688 231 
Q 3316 72 2936 -9 
Q 2556 -91 2175 -91 
Q 1278 -91 773 396 
Q 269 884 269 1753 
Q 269 2309 461 2846 
Q 653 3384 1013 3828 
Q 1394 4300 1883 4525 
Q 2372 4750 3022 4750 
Q 3422 4750 3780 4639 
Q 4138 4528 4447 4306 
z
" transform="scale(0.015625)"/>
      <path id="DejaVuSans-Oblique-69" d="M 1172 4863 
L 1747 4863 
L 1606 4134 
L 1031 4134 
L 1172 4863 
z
M 909 3500 
L 1484 3500 
L 800 0 
L 225 0 
L 909 3500 
z
" transform="scale(0.015625)"/>
      <path id="DejaVuSans-Oblique-6e" d="M 3566 2113 
L 3156 0 
L 2578 0 
L 2988 2091 
Q 3016 2238 3031 2350 
Q 3047 2463 3047 2528 
Q 3047 2791 2881 2937 
Q 2716 3084 2419 3084 
Q 1956 3084 1622 2776 
Q 1288 2469 1184 1941 
L 800 0 
L 225 0 
L 903 3500 
L 1478 3500 
L 1363 2950 
Q 1603 3253 1940 3418 
Q 2278 3584 2650 3584 
Q 3113 3584 3367 3334 
Q 3622 3084 3622 2631 
Q 3622 2519 3608 2391 
Q 3594 2263 3566 2113 
z
" transform="scale(0.015625)"/>
     </defs>
     <use xlink:href="#DejaVuSans-Oblique-43" transform="translate(0 0.78125)"/>
     <use xlink:href="#DejaVuSans-Oblique-69" transform="translate(69.824219 -15.625) scale(0.7)"/>
     <use xlink:href="#DejaVuSans-Oblique-6e" transform="translate(89.272461 -15.625) scale(0.7)"/>
    </g>
   </g>
   <g id="text_2">
    <!-- $R_{ed1}$ -->
    <g transform="translate(173.158 119.706875) scale(0.125 -0.125)">
     <defs>
      <path id="DejaVuSans-Oblique-52" d="M 1613 4147 
L 1294 2491 
L 2106 2491 
Q 2584 2491 2879 2755 
Q 3175 3019 3175 3444 
Q 3175 3784 2976 3965 
Q 2778 4147 2406 4147 
L 1613 4147 
z
M 2772 2241 
Q 2972 2194 3105 2009 
Q 3238 1825 3413 1275 
L 3809 0 
L 3144 0 
L 2778 1197 
Q 2638 1659 2453 1815 
Q 2269 1972 1888 1972 
L 1191 1972 
L 806 0 
L 172 0 
L 1081 4666 
L 2503 4666 
Q 3150 4666 3495 4373 
Q 3841 4081 3841 3531 
Q 3841 3044 3547 2687 
Q 3253 2331 2772 2241 
z
" transform="scale(0.015625)"/>
      <path id="DejaVuSans-Oblique-65" d="M 3078 2063 
Q 3088 2113 3092 2166 
Q 3097 2219 3097 2272 
Q 3097 2653 2873 2875 
Q 2650 3097 2266 3097 
Q 1838 3097 1509 2826 
Q 1181 2556 1013 2059 
L 3078 2063 
z
M 3578 1613 
L 903 1613 
Q 884 1494 878 1425 
Q 872 1356 872 1306 
Q 872 872 1139 634 
Q 1406 397 1894 397 
Q 2269 397 2603 481 
Q 2938 566 3225 728 
L 3116 159 
Q 2806 34 2476 -28 
Q 2147 -91 1806 -91 
Q 1078 -91 686 257 
Q 294 606 294 1247 
Q 294 1794 489 2264 
Q 684 2734 1063 3103 
Q 1306 3334 1642 3459 
Q 1978 3584 2356 3584 
Q 2950 3584 3301 3228 
Q 3653 2872 3653 2272 
Q 3653 2128 3634 1964 
Q 3616 1800 3578 1613 
z
" transform="scale(0.015625)"/>
      <path id="DejaVuSans-Oblique-64" d="M 2675 525 
Q 2444 222 2128 65 
Q 1813 -91 1428 -91 
Q 903 -91 598 267 
Q 294 625 294 1247 
Q 294 1766 478 2236 
Q 663 2706 1013 3078 
Q 1244 3325 1534 3454 
Q 1825 3584 2144 3584 
Q 2481 3584 2739 3421 
Q 2997 3259 3138 2956 
L 3513 4863 
L 4091 4863 
L 3144 0 
L 2566 0 
L 2675 525 
z
M 891 1350 
Q 891 897 1095 644 
Q 1300 391 1663 391 
Q 1931 391 2161 520 
Q 2391 650 2566 903 
Q 2750 1166 2856 1509 
Q 2963 1853 2963 2188 
Q 2963 2622 2758 2865 
Q 2553 3109 2194 3109 
Q 1922 3109 1687 2981 
Q 1453 2853 1288 2613 
Q 1106 2353 998 2009 
Q 891 1666 891 1350 
z
" transform="scale(0.015625)"/>
      <path id="DejaVuSans-31" d="M 794 531 
L 1825 531 
L 1825 4091 
L 703 3866 
L 703 4441 
L 1819 4666 
L 2450 4666 
L 2450 531 
L 3481 531 
L 3481 0 
L 794 0 
L 794 531 
z
" transform="scale(0.015625)"/>
     </defs>
     <use xlink:href="#DejaVuSans-Oblique-52" transform="translate(0 0.09375)"/>
     <use xlink:href="#DejaVuSans-Oblique-65" transform="translate(69.482422 -16.3125) scale(0.7)"/>
     <use xlink:href="#DejaVuSans-Oblique-64" transform="translate(112.548828 -16.3125) scale(0.7)"/>
     <use xlink:href="#DejaVuSans-31" transform="translate(156.982422 -16.3125) scale(0.7)"/>
    </g>
   </g>
   <g id="text_3">
    <!-- $V_{DD}$ -->
    <g transform="translate(212.8555 13.098047) scale(0.125 -0.125)">
     <defs>
      <path id="DejaVuSans-Oblique-56" d="M 1319 0 
L 500 4666 
L 1119 4666 
L 1797 653 
L 4063 4666 
L 4750 4666 
L 2053 0 
L 1319 0 
z
" transform="scale(0.015625)"/>
      <path id="DejaVuSans-Oblique-44" d="M 1081 4666 
L 2438 4666 
Q 3519 4666 4070 4208 
Q 4622 3750 4622 2847 
Q 4622 2250 4412 1698 
Q 4203 1147 3834 769 
Q 3463 381 2891 190 
Q 2319 0 1538 0 
L 172 0 
L 1081 4666 
z
M 1613 4147 
L 909 519 
L 1734 519 
Q 2794 519 3375 1128 
Q 3956 1738 3956 2847 
Q 3956 3519 3581 3833 
Q 3206 4147 2406 4147 
L 1613 4147 
z
" transform="scale(0.015625)"/>
     </defs>
     <use xlink:href="#DejaVuSans-Oblique-56" transform="translate(0 0.09375)"/>
     <use xlink:href="#DejaVuSans-Oblique-44" transform="translate(68.408203 -16.3125) scale(0.7)"/>
     <use xlink:href="#DejaVuSans-Oblique-44" transform="translate(122.30957 -16.3125) scale(0.7)"/>
    </g>
   </g>
   <g id="text_4">
    <!-- $R_{ed2}$ -->
    <g transform="translate(173.158 182.826875) scale(0.125 -0.125)">
     <defs>
      <path id="DejaVuSans-32" d="M 1228 531 
L 3431 531 
L 3431 0 
L 469 0 
L 469 531 
Q 828 903 1448 1529 
Q 2069 2156 2228 2338 
Q 2531 2678 2651 2914 
Q 2772 3150 2772 3378 
Q 2772 3750 2511 3984 
Q 2250 4219 1831 4219 
Q 1534 4219 1204 4116 
Q 875 4013 500 3803 
L 500 4441 
Q 881 4594 1212 4672 
Q 1544 4750 1819 4750 
Q 2544 4750 2975 4387 
Q 3406 4025 3406 3419 
Q 3406 3131 3298 2873 
Q 3191 2616 2906 2266 
Q 2828 2175 2409 1742 
Q 1991 1309 1228 531 
z
" transform="scale(0.015625)"/>
     </defs>
     <use xlink:href="#DejaVuSans-Oblique-52" transform="translate(0 0.09375)"/>
     <use xlink:href="#DejaVuSans-Oblique-65" transform="translate(69.482422 -16.3125) scale(0.7)"/>
     <use xlink:href="#DejaVuSans-Oblique-64" transform="translate(112.548828 -16.3125) scale(0.7)"/>
     <use xlink:href="#DejaVuSans-32" transform="translate(156.982422 -16.3125) scale(0.7)"/>
    </g>
   </g>
   <g id="text_5">
    <!-- $C_{out}$ -->
    <g transform="translate(253.633 133.458047) scale(0.125 -0.125)">
     <defs>
      <path id="DejaVuSans-Oblique-6f" d="M 1625 -91 
Q 1009 -91 651 289 
Q 294 669 294 1325 
Q 294 1706 417 2101 
Q 541 2497 738 2766 
Q 1047 3184 1428 3384 
Q 1809 3584 2291 3584 
Q 2888 3584 3255 3212 
Q 3622 2841 3622 2241 
Q 3622 1825 3500 1412 
Q 3378 1000 3181 728 
Q 2875 309 2494 109 
Q 2113 -91 1625 -91 
z
M 891 1344 
Q 891 869 1089 633 
Q 1288 397 1691 397 
Q 2269 397 2648 901 
Q 3028 1406 3028 2181 
Q 3028 2634 2825 2865 
Q 2622 3097 2228 3097 
Q 1903 3097 1650 2945 
Q 1397 2794 1197 2484 
Q 1050 2253 970 1956 
Q 891 1659 891 1344 
z
" transform="scale(0.015625)"/>
      <path id="DejaVuSans-Oblique-75" d="M 428 1388 
L 838 3500 
L 1416 3500 
L 1006 1409 
Q 975 1256 961 1147 
Q 947 1038 947 966 
Q 947 700 1109 554 
Q 1272 409 1569 409 
Q 2031 409 2368 721 
Q 2706 1034 2809 1563 
L 3194 3500 
L 3769 3500 
L 3091 0 
L 2516 0 
L 2631 550 
Q 2388 244 2052 76 
Q 1716 -91 1338 -91 
Q 878 -91 622 161 
Q 366 413 366 863 
Q 366 956 381 1097 
Q 397 1238 428 1388 
z
" transform="scale(0.015625)"/>
      <path id="DejaVuSans-Oblique-74" d="M 2706 3500 
L 2619 3053 
L 1472 3053 
L 1100 1153 
Q 1081 1047 1072 975 
Q 1063 903 1063 863 
Q 1063 663 1183 572 
Q 1303 481 1569 481 
L 2150 481 
L 2053 0 
L 1503 0 
Q 991 0 739 200 
Q 488 400 488 806 
Q 488 878 497 964 
Q 506 1050 525 1153 
L 897 3053 
L 409 3053 
L 500 3500 
L 978 3500 
L 1172 4494 
L 1747 4494 
L 1556 3500 
L 2706 3500 
z
" transform="scale(0.015625)"/>
     </defs>
     <use xlink:href="#DejaVuSans-Oblique-43" transform="translate(0 0.78125)"/>
     <use xlink:href="#DejaVuSans-Oblique-6f" transform="translate(69.824219 -15.625) scale(0.7)"/>
     <use xlink:href="#DejaVuSans-Oblique-75" transform="translate(112.651367 -15.625) scale(0.7)"/>
     <use xlink:href="#DejaVuSans-Oblique-74" transform="translate(157.016602 -15.625) scale(0.7)"/>
    </g>
   </g>
   <g id="text_6">
    <!-- $R_L$ -->
    <g transform="translate(292.783 206.106875) scale(0.125 -0.125)">
     <defs>
      <path id="DejaVuSans-Oblique-4c" d="M 1075 4666 
L 1709 4666 
L 909 525 
L 3181 525 
L 3078 0 
L 172 0 
L 1075 4666 
z
" transform="scale(0.015625)"/>
     </defs>
     <use xlink:href="#DejaVuSans-Oblique-52" transform="translate(0 0.09375)"/>
     <use xlink:href="#DejaVuSans-Oblique-4c" transform="translate(69.482422 -16.3125) scale(0.7)"/>
    </g>
   </g>
   <g id="patch_8">
    <path d="M 130.323 151.477656 
C 131.039048 151.477656 131.725866 151.193167 132.232188 150.686845 
C 132.738511 150.180522 133.023 149.493705 133.023 148.777656 
C 133.023 148.061608 132.738511 147.374791 132.232188 146.868468 
C 131.725866 146.362145 131.039048 146.077656 130.323 146.077656 
C 129.606952 146.077656 128.920134 146.362145 128.413812 146.868468 
C 127.907489 147.374791 127.623 148.061608 127.623 148.777656 
C 127.623 149.493705 127.907489 150.180522 128.413812 150.686845 
C 128.920134 151.193167 129.606952 151.477656 130.323 151.477656 
z
" clip-path="url(#p24ac13dc8c)" style="stroke: #000000; stroke-width: 2; stroke-linejoin: miter"/>
   </g>
   <g id="patch_9">
    <path d="M 22.323 151.477656 
C 23.039048 151.477656 23.725866 151.193167 24.232188 150.686845 
C 24.738511 150.180522 25.023 149.493705 25.023 148.777656 
C 25.023 148.061608 24.738511 147.374791 24.232188 146.868468 
C 23.725866 146.362145 23.039048 146.077656 22.323 146.077656 
C 21.606952 146.077656 20.920134 146.362145 20.413812 146.868468 
C 19.907489 147.374791 19.623 148.061608 19.623 148.777656 
C 19.623 149.493705 19.907489 150.180522 20.413812 150.686845 
C 20.920134 151.193167 21.606952 151.477656 22.323 151.477656 
z
" clip-path="url(#p24ac13dc8c)" style="fill: #ffffff; stroke: #000000; stroke-width: 2; stroke-linejoin: miter"/>
   </g>
   <g id="text_7">
    <!-- $v_{in}$ -->
    <g transform="translate(14.448 139.878047) scale(0.125 -0.125)">
     <defs>
      <path id="DejaVuSans-Oblique-76" d="M 459 3500 
L 1069 3500 
L 1581 525 
L 3256 3500 
L 3866 3500 
L 1875 0 
L 1100 0 
L 459 3500 
z
" transform="scale(0.015625)"/>
     </defs>
     <use xlink:href="#DejaVuSans-Oblique-76" transform="translate(0 0.3125)"/>
     <use xlink:href="#DejaVuSans-Oblique-69" transform="translate(59.179688 -16.09375) scale(0.7)"/>
     <use xlink:href="#DejaVuSans-Oblique-6e" transform="translate(78.62793 -16.09375) scale(0.7)"/>
    </g>
   </g>
   <g id="patch_10">
    <path d="M 211.383 151.357656 
C 212.099048 151.357656 212.785866 151.073167 213.292188 150.566845 
C 213.798511 150.060522 214.083 149.373705 214.083 148.657656 
C 214.083 147.941608 213.798511 147.254791 213.292188 146.748468 
C 212.785866 146.242145 212.099048 145.957656 211.383 145.957656 
C 210.666952 145.957656 209.980134 146.242145 209.473812 146.748468 
C 208.967489 147.254791 208.683 147.941608 208.683 148.657656 
C 208.683 149.373705 208.967489 150.060522 209.473812 150.566845 
C 209.980134 151.073167 210.666952 151.357656 211.383 151.357656 
z
" clip-path="url(#p24ac13dc8c)" style="stroke: #000000; stroke-width: 2; stroke-linejoin: miter"/>
   </g>
   <g id="patch_11">
    <path d="M 238.443 151.357656 
C 239.159048 151.357656 239.845866 151.073167 240.352188 150.566845 
C 240.858511 150.060522 241.143 149.373705 241.143 148.657656 
C 241.143 147.941608 240.858511 147.254791 240.352188 146.748468 
C 239.845866 146.242145 239.159048 145.957656 238.443 145.957656 
C 237.726952 145.957656 237.040134 146.242145 236.533812 146.748468 
C 236.027489 147.254791 235.743 147.941608 235.743 148.657656 
C 235.743 149.373705 236.027489 150.060522 236.533812 150.566845 
C 237.040134 151.073167 237.726952 151.357656 238.443 151.357656 
z
" clip-path="url(#p24ac13dc8c)" style="stroke: #000000; stroke-width: 2; stroke-linejoin: miter"/>
   </g>
   <g id="patch_12">
    <path d="M 224.043 36.397656 
C 224.759048 36.397656 225.445866 36.113167 225.952188 35.606845 
C 226.458511 35.100522 226.743 34.413705 226.743 33.697656 
C 226.743 32.981608 226.458511 32.294791 225.952188 31.788468 
C 225.445866 31.282145 224.759048 30.997656 224.043 30.997656 
C 223.326952 30.997656 222.640134 31.282145 222.133812 31.788468 
C 221.627489 32.294791 221.343 32.981608 221.343 33.697656 
C 221.343 34.413705 221.627489 35.100522 222.133812 35.606845 
C 222.640134 36.113167 223.326952 36.397656 224.043 36.397656 
z
" clip-path="url(#p24ac13dc8c)" style="stroke: #000000; stroke-width: 2; stroke-linejoin: miter"/>
   </g>
   <g id="patch_13">
    <path d="M 224.043 262.957656 
C 224.759048 262.957656 225.445866 262.673167 225.952188 262.166845 
C 226.458511 261.660522 226.743 260.973705 226.743 260.257656 
C 226.743 259.541608 226.458511 258.854791 225.952188 258.348468 
C 225.445866 257.842145 224.759048 257.557656 224.043 257.557656 
C 223.326952 257.557656 222.640134 257.842145 222.133812 258.348468 
C 221.627489 258.854791 221.343 259.541608 221.343 260.257656 
C 221.343 260.973705 221.627489 261.660522 222.133812 262.166845 
C 222.640134 262.673167 223.326952 262.957656 224.043 262.957656 
z
" clip-path="url(#p24ac13dc8c)" style="stroke: #000000; stroke-width: 2; stroke-linejoin: miter"/>
   </g>
   <g id="patch_14">
    <path d="M 337.383 151.357656 
C 338.099048 151.357656 338.785866 151.073167 339.292188 150.566845 
C 339.798511 150.060522 340.083 149.373705 340.083 148.657656 
C 340.083 147.941608 339.798511 147.254791 339.292188 146.748468 
C 338.785866 146.242145 338.099048 145.957656 337.383 145.957656 
C 336.666952 145.957656 335.980134 146.242145 335.473812 146.748468 
C 334.967489 147.254791 334.683 147.941608 334.683 148.657656 
C 334.683 149.373705 334.967489 150.060522 335.473812 150.566845 
C 335.980134 151.073167 336.666952 151.357656 337.383 151.357656 
z
" clip-path="url(#p24ac13dc8c)" style="fill: #ffffff; stroke: #000000; stroke-width: 2; stroke-linejoin: miter"/>
   </g>
   <g id="text_8">
    <!-- $v_{out}$ -->
    <g transform="translate(326.3205 139.758047) scale(0.125 -0.125)">
     <use xlink:href="#DejaVuSans-Oblique-76" transform="translate(0 0.3125)"/>
     <use xlink:href="#DejaVuSans-Oblique-6f" transform="translate(59.179688 -16.09375) scale(0.7)"/>
     <use xlink:href="#DejaVuSans-Oblique-75" transform="translate(102.006836 -16.09375) scale(0.7)"/>
     <use xlink:href="#DejaVuSans-Oblique-74" transform="translate(146.37207 -16.09375) scale(0.7)"/>
    </g>
   </g>
  </g>
 </g>
 <defs>
  <clipPath id="p24ac13dc8c">
   <rect x="3.6" y="6.097656" width="352.506" height="290.4"/>
  </clipPath>
 </defs>
</svg>