<?xml version="1.0" encoding="utf-8" standalone="no"?>
<!DOCTYPE svg PUBLIC "-//W3C//DTD SVG 1.1//EN"
  "http://www.w3.org/Graphics/SVG/1.1/DTD/svg11.dtd">
<svg xmlns:xlink="http://www.w3.org/1999/xlink" width="318.187531pt" height="276.195312pt" viewBox="0 0 318.187531 276.195312" xmlns="http://www.w3.org/2000/svg" version="1.1">
 <metadata>
  <rdf:RDF xmlns:dc="http://purl.org/dc/elements/1.1/" xmlns:cc="http://creativecommons.org/ns#" xmlns:rdf="http://www.w3.org/1999/02/22-rdf-syntax-ns#">
   <cc:Work>
    <dc:type rdf:resource="http://purl.org/dc/dcmitype/StillImage"/>
    <dc:date>2024-01-02T17:48:14.100115</dc:date>
    <dc:format>image/svg+xml</dc:format>
    <dc:creator>
     <cc:Agent>
      <dc:title>Matplotlib v3.8.2, https://matplotlib.org/</dc:title>
     </cc:Agent>
    </dc:creator>
   </cc:Work>
  </rdf:RDF>
 </metadata>
 <defs>
  <style type="text/css">*{stroke-linejoin: round; stroke-linecap: butt}</style>
 </defs>
 <g id="figure_1">
  <g id="patch_1">
   <path d="M 0 276.195312 
L 318.187531 276.195312 
L 318.187531 0 
L 0 0 
z
" style="fill: #ffffff"/>
  </g>
  <g id="axes_1">
   <g id="patch_2">
    <path d="M 194.869531 102.997656 
L 185.869531 115.597656 
L 176.869531 102.997656 
L 194.869531 102.997656 
z
" clip-path="url(#p4c98955a50)" style="fill: none; stroke: #000000; stroke-width: 2; stroke-linecap: round"/>
   </g>
   <g id="patch_3">
    <path d="M 194.869531 153.397656 
L 185.869531 165.997656 
L 176.869531 153.397656 
L 194.869531 153.397656 
z
" clip-path="url(#p4c98955a50)" style="fill: none; stroke: #000000; stroke-width: 2; stroke-linecap: round"/>
   </g>
   <g id="patch_4">
    <path d="M 220.129531 113.377656 
L 220.300884 113.376297 
L 220.472193 113.372219 
L 220.643416 113.365424 
L 220.81451 113.355912 
L 220.985431 113.343688 
L 221.156137 113.328753 
L 221.326584 113.311112 
L 221.49673 113.290768 
L 221.666532 113.267728 
L 221.835946 113.241996 
L 222.004932 113.21358 
L 222.173445 113.182486 
L 222.341443 113.148723 
L 222.508885 113.112298 
L 222.675728 113.073221 
L 222.84193 113.031502 
L 223.007448 112.987152 
L 223.172243 112.94018 
L 223.336271 112.8906 
L 223.499492 112.838424 
L 223.661865 112.783665 
L 223.823349 112.726337 
L 223.983902 112.666453 
L 224.143486 112.60403 
L 224.302059 112.539083 
L 224.459581 112.471628 
L 224.616013 112.401682 
L 224.771316 112.329263 
L 224.925451 112.254389 
L 225.078378 112.177079 
L 225.230059 112.097353 
L 225.380456 112.01523 
L 225.529531 111.930731 
L 225.677247 111.843877 
L 225.823566 111.754691 
L 225.968452 111.663194 
L 226.111868 111.569411 
L 226.253778 111.473363 
L 226.394146 111.375077 
L 226.532937 111.274575 
L 226.670116 111.171884 
L 226.805648 111.06703 
L 226.9395 110.960038 
L 227.071637 110.850936 
L 227.202027 110.739752 
L 227.330636 110.626512 
L 227.457433 110.511247 
L 227.582385 110.393984 
L 227.70546 110.274753 
L 227.826628 110.153585 
L 227.945859 110.03051 
L 228.063122 109.905558 
L 228.178387 109.778761 
L 228.291627 109.650152 
L 228.402811 109.519762 
L 228.511913 109.387625 
L 228.618905 109.253773 
L 228.723759 109.118241 
L 228.82645 108.981062 
L 228.926952 108.842271 
L 229.025238 108.701903 
L 229.121286 108.559993 
L 229.215069 108.416577 
L 229.306566 108.271691 
L 229.395752 108.125372 
L 229.482606 107.977656 
L 229.567105 107.828581 
L 229.649228 107.678184 
L 229.728954 107.526503 
L 229.806264 107.373576 
L 229.881138 107.219441 
L 229.953557 107.064138 
L 230.023503 106.907706 
L 230.090958 106.750184 
L 230.155905 106.591611 
L 230.218328 106.432027 
L 230.278212 106.271474 
L 230.33554 106.10999 
L 230.390299 105.947617 
L 230.442475 105.784396 
L 230.492055 105.620368 
L 230.539027 105.455573 
L 230.583377 105.290055 
L 230.625096 105.123853 
L 230.664173 104.95701 
L 230.700598 104.789568 
L 230.734361 104.62157 
L 230.765455 104.453057 
L 230.793871 104.284071 
L 230.819603 104.114657 
L 230.842643 103.944855 
L 230.862987 103.774709 
L 230.880628 103.604262 
L 230.895563 103.433556 
L 230.907787 103.262635 
L 230.917299 103.091541 
L 230.924094 102.920318 
L 230.928172 102.749009 
L 230.929531 102.577656 
L 230.929531 73.417656 
L 230.928172 73.246304 
L 230.924094 73.074995 
L 230.917299 72.903772 
L 230.907787 72.732678 
L 230.895563 72.561757 
L 230.880628 72.391051 
L 230.862987 72.220604 
L 230.842643 72.050458 
L 230.819603 71.880656 
L 230.793871 71.711241 
L 230.765455 71.542256 
L 230.734361 71.373743 
L 230.700598 71.205744 
L 230.664173 71.038302 
L 230.625096 70.87146 
L 230.583377 70.705258 
L 230.539027 70.539739 
L 230.492055 70.374945 
L 230.442475 70.210916 
L 230.390299 70.047695 
L 230.33554 69.885322 
L 230.278212 69.723839 
L 230.218328 69.563285 
L 230.155905 69.403702 
L 230.090958 69.245129 
L 230.023503 69.087606 
L 229.953557 68.931174 
L 229.881138 68.775871 
L 229.806264 68.621737 
L 229.728954 68.46881 
L 229.649228 68.317129 
L 229.567105 68.166732 
L 229.482606 68.017656 
L 229.395752 67.86994 
L 229.306566 67.723621 
L 229.215069 67.578735 
L 229.121286 67.43532 
L 229.025238 67.29341 
L 228.926952 67.153042 
L 228.82645 67.014251 
L 228.723759 66.877072 
L 228.618905 66.741539 
L 228.511913 66.607687 
L 228.402811 66.47555 
L 228.291627 66.34516 
L 228.178387 66.216551 
L 228.063122 66.089755 
L 227.945859 65.964803 
L 227.826628 65.841727 
L 227.70546 65.720559 
L 227.582385 65.601329 
L 227.457433 65.484066 
L 227.330636 65.3688 
L 227.202027 65.255561 
L 227.071637 65.144376 
L 226.9395 65.035274 
L 226.805648 64.928283 
L 226.670116 64.823428 
L 226.532937 64.720737 
L 226.394146 64.620236 
L 226.253778 64.521949 
L 226.111868 64.425902 
L 225.968452 64.332118 
L 225.823566 64.240622 
L 225.677247 64.151435 
L 225.529531 64.064582 
L 225.380456 63.980083 
L 225.230059 63.89796 
L 225.078378 63.818233 
L 224.925451 63.740923 
L 224.771316 63.66605 
L 224.616013 63.593631 
L 224.459581 63.523685 
L 224.302059 63.45623 
L 224.143486 63.391283 
L 223.983902 63.328859 
L 223.823349 63.268976 
L 223.661865 63.211647 
L 223.499492 63.156888 
L 223.336271 63.104712 
L 223.172243 63.055132 
L 223.007448 63.008161 
L 222.84193 62.96381 
L 222.675728 62.922091 
L 222.508885 62.883015 
L 222.341443 62.84659 
L 222.173445 62.812826 
L 222.004932 62.781733 
L 221.835946 62.753316 
L 221.666532 62.727585 
L 221.49673 62.704544 
L 221.326584 62.684201 
L 221.156137 62.666559 
L 220.985431 62.651625 
L 220.81451 62.6394 
L 220.643416 62.629889 
L 220.472193 62.623094 
L 220.300884 62.619016 
L 220.129531 62.617656 
L 214.669531 62.617656 
L 214.498179 62.619016 
L 214.32687 62.623094 
L 214.155647 62.629889 
L 213.984553 62.6394 
L 213.813632 62.651625 
L 213.642926 62.666559 
L 213.472479 62.684201 
L 213.302333 62.704544 
L 213.132531 62.727585 
L 212.963116 62.753316 
L 212.794131 62.781733 
L 212.625618 62.812826 
L 212.457619 62.84659 
L 212.290177 62.883015 
L 212.123335 62.922091 
L 211.957133 62.96381 
L 211.791614 63.008161 
L 211.62682 63.055132 
L 211.462791 63.104712 
L 211.29957 63.156888 
L 211.137197 63.211647 
L 210.975714 63.268976 
L 210.81516 63.328859 
L 210.655577 63.391283 
L 210.497004 63.45623 
L 210.339481 63.523685 
L 210.183049 63.593631 
L 210.027746 63.66605 
L 209.873612 63.740923 
L 209.720685 63.818233 
L 209.569004 63.89796 
L 209.418607 63.980083 
L 209.269531 64.064582 
L 209.121815 64.151435 
L 208.975496 64.240622 
L 208.83061 64.332118 
L 208.687195 64.425902 
L 208.545285 64.521949 
L 208.404917 64.620236 
L 208.266126 64.720737 
L 208.128947 64.823428 
L 207.993414 64.928283 
L 207.859562 65.035274 
L 207.727425 65.144376 
L 207.597035 65.255561 
L 207.468426 65.3688 
L 207.34163 65.484066 
L 207.216678 65.601329 
L 207.093602 65.720559 
L 206.972434 65.841727 
L 206.853204 65.964803 
L 206.735941 66.089755 
L 206.620675 66.216551 
L 206.507436 66.34516 
L 206.396251 66.47555 
L 206.287149 66.607687 
L 206.180158 66.741539 
L 206.075303 66.877072 
L 205.972612 67.014251 
L 205.872111 67.153042 
L 205.773824 67.29341 
L 205.677777 67.43532 
L 205.583993 67.578735 
L 205.492497 67.723621 
L 205.40331 67.86994 
L 205.316457 68.017656 
L 205.231958 68.166732 
L 205.149835 68.317129 
L 205.070108 68.46881 
L 204.992798 68.621737 
L 204.917925 68.775871 
L 204.845506 68.931174 
L 204.77556 69.087606 
L 204.708105 69.245129 
L 204.643158 69.403702 
L 204.580734 69.563285 
L 204.520851 69.723839 
L 204.463522 69.885322 
L 204.408763 70.047695 
L 204.356587 70.210916 
L 204.307007 70.374945 
L 204.260036 70.539739 
L 204.215685 70.705258 
L 204.173966 70.87146 
L 204.13489 71.038302 
L 204.098465 71.205744 
L 204.064701 71.373743 
L 204.033608 71.542256 
L 204.005191 71.711241 
L 203.97946 71.880656 
L 203.956419 72.050458 
L 203.936076 72.220604 
L 203.918434 72.391051 
L 203.9035 72.561757 
L 203.891275 72.732678 
L 203.881764 72.903772 
L 203.874969 73.074995 
L 203.870891 73.246304 
L 203.869531 73.417656 
L 203.869531 102.577656 
L 203.870891 102.749009 
L 203.874969 102.920318 
L 203.881764 103.091541 
L 203.891275 103.262635 
L 203.9035 103.433556 
L 203.918434 103.604262 
L 203.936076 103.774709 
L 203.956419 103.944855 
L 203.97946 104.114657 
L 204.005191 104.284071 
L 204.033608 104.453057 
L 204.064701 104.62157 
L 204.098465 104.789568 
L 204.13489 104.95701 
L 204.173966 105.123853 
L 204.215685 105.290055 
L 204.260036 105.455573 
L 204.307007 105.620368 
L 204.356587 105.784396 
L 204.408763 105.947617 
L 204.463522 106.10999 
L 204.520851 106.271474 
L 204.580734 106.432027 
L 204.643158 106.591611 
L 204.708105 106.750184 
L 204.77556 106.907706 
L 204.845506 107.064138 
L 204.917925 107.219441 
L 204.992798 107.373576 
L 205.070108 107.526503 
L 205.149835 107.678184 
L 205.231958 107.828581 
L 205.316457 107.977656 
L 205.40331 108.125372 
L 205.492497 108.271691 
L 205.583993 108.416577 
L 205.677777 108.559993 
L 205.773824 108.701903 
L 205.872111 108.842271 
L 205.972612 108.981062 
L 206.075303 109.118241 
L 206.180158 109.253773 
L 206.287149 109.387625 
L 206.396251 109.519762 
L 206.507436 109.650152 
L 206.620675 109.778761 
L 206.735941 109.905558 
L 206.853204 110.03051 
L 206.972434 110.153585 
L 207.093602 110.274753 
L 207.216678 110.393984 
L 207.34163 110.511247 
L 207.468426 110.626512 
L 207.597035 110.739752 
L 207.727425 110.850936 
L 207.859562 110.960038 
L 207.993414 111.06703 
L 208.128947 111.171884 
L 208.266126 111.274575 
L 208.404917 111.375077 
L 208.545285 111.473363 
L 208.687195 111.569411 
L 208.83061 111.663194 
L 208.975496 111.754691 
L 209.121815 111.843877 
L 209.269531 111.930731 
L 209.418607 112.01523 
L 209.569004 112.097353 
L 209.720685 112.177079 
L 209.873612 112.254389 
L 210.027746 112.329263 
L 210.183049 112.401682 
L 210.339481 112.471628 
L 210.497004 112.539083 
L 210.655577 112.60403 
L 210.81516 112.666453 
L 210.975714 112.726337 
L 211.137197 112.783665 
L 211.29957 112.838424 
L 211.462791 112.8906 
L 211.62682 112.94018 
L 211.791614 112.987152 
L 211.957133 113.031502 
L 212.123335 113.073221 
L 212.290177 113.112298 
L 212.457619 113.148723 
L 212.625618 113.182486 
L 212.794131 113.21358 
L 212.963116 113.241996 
L 213.132531 113.267728 
L 213.302333 113.290768 
L 213.472479 113.311112 
L 213.642926 113.328753 
L 213.813632 113.343688 
L 213.984553 113.355912 
L 214.155647 113.365424 
L 214.32687 113.372219 
L 214.498179 113.376297 
L 214.669531 113.377656 
L 220.129531 113.377656 
z
" clip-path="url(#p4c98955a50)" style="fill: none; stroke-dasharray: 1.85,0.8; stroke-dashoffset: 0; stroke: #008000; stroke-width: 0.5; stroke-linecap: round"/>
   </g>
   <g id="patch_5">
    <path d="M 220.129531 213.577656 
L 220.300884 213.576297 
L 220.472193 213.572219 
L 220.643416 213.565424 
L 220.81451 213.555912 
L 220.985431 213.543688 
L 221.156137 213.528753 
L 221.326584 213.511112 
L 221.49673 213.490768 
L 221.666532 213.467728 
L 221.835946 213.441996 
L 222.004932 213.41358 
L 222.173445 213.382486 
L 222.341443 213.348723 
L 222.508885 213.312298 
L 222.675728 213.273221 
L 222.84193 213.231502 
L 223.007448 213.187152 
L 223.172243 213.14018 
L 223.336271 213.0906 
L 223.499492 213.038424 
L 223.661865 212.983665 
L 223.823349 212.926337 
L 223.983902 212.866453 
L 224.143486 212.80403 
L 224.302059 212.739083 
L 224.459581 212.671628 
L 224.616013 212.601682 
L 224.771316 212.529263 
L 224.925451 212.454389 
L 225.078378 212.377079 
L 225.230059 212.297353 
L 225.380456 212.21523 
L 225.529531 212.130731 
L 225.677247 212.043877 
L 225.823566 211.954691 
L 225.968452 211.863194 
L 226.111868 211.769411 
L 226.253778 211.673363 
L 226.394146 211.575077 
L 226.532937 211.474575 
L 226.670116 211.371884 
L 226.805648 211.26703 
L 226.9395 211.160038 
L 227.071637 211.050936 
L 227.202027 210.939752 
L 227.330636 210.826512 
L 227.457433 210.711247 
L 227.582385 210.593984 
L 227.70546 210.474753 
L 227.826628 210.353585 
L 227.945859 210.23051 
L 228.063122 210.105558 
L 228.178387 209.978761 
L 228.291627 209.850152 
L 228.402811 209.719762 
L 228.511913 209.587625 
L 228.618905 209.453773 
L 228.723759 209.318241 
L 228.82645 209.181062 
L 228.926952 209.042271 
L 229.025238 208.901903 
L 229.121286 208.759993 
L 229.215069 208.616577 
L 229.306566 208.471691 
L 229.395752 208.325372 
L 229.482606 208.177656 
L 229.567105 208.028581 
L 229.649228 207.878184 
L 229.728954 207.726503 
L 229.806264 207.573576 
L 229.881138 207.419441 
L 229.953557 207.264138 
L 230.023503 207.107706 
L 230.090958 206.950184 
L 230.155905 206.791611 
L 230.218328 206.632027 
L 230.278212 206.471474 
L 230.33554 206.30999 
L 230.390299 206.147617 
L 230.442475 205.984396 
L 230.492055 205.820368 
L 230.539027 205.655573 
L 230.583377 205.490055 
L 230.625096 205.323853 
L 230.664173 205.15701 
L 230.700598 204.989568 
L 230.734361 204.82157 
L 230.765455 204.653057 
L 230.793871 204.484071 
L 230.819603 204.314657 
L 230.842643 204.144855 
L 230.862987 203.974709 
L 230.880628 203.804262 
L 230.895563 203.633556 
L 230.907787 203.462635 
L 230.917299 203.291541 
L 230.924094 203.120318 
L 230.928172 202.949009 
L 230.929531 202.777656 
L 230.929531 173.617656 
L 230.928172 173.446304 
L 230.924094 173.274995 
L 230.917299 173.103772 
L 230.907787 172.932678 
L 230.895563 172.761757 
L 230.880628 172.591051 
L 230.862987 172.420604 
L 230.842643 172.250458 
L 230.819603 172.080656 
L 230.793871 171.911241 
L 230.765455 171.742256 
L 230.734361 171.573743 
L 230.700598 171.405744 
L 230.664173 171.238302 
L 230.625096 171.07146 
L 230.583377 170.905258 
L 230.539027 170.739739 
L 230.492055 170.574945 
L 230.442475 170.410916 
L 230.390299 170.247695 
L 230.33554 170.085322 
L 230.278212 169.923839 
L 230.218328 169.763285 
L 230.155905 169.603702 
L 230.090958 169.445129 
L 230.023503 169.287606 
L 229.953557 169.131174 
L 229.881138 168.975871 
L 229.806264 168.821737 
L 229.728954 168.66881 
L 229.649228 168.517129 
L 229.567105 168.366732 
L 229.482606 168.217656 
L 229.395752 168.06994 
L 229.306566 167.923621 
L 229.215069 167.778735 
L 229.121286 167.63532 
L 229.025238 167.49341 
L 228.926952 167.353042 
L 228.82645 167.214251 
L 228.723759 167.077072 
L 228.618905 166.941539 
L 228.511913 166.807687 
L 228.402811 166.67555 
L 228.291627 166.54516 
L 228.178387 166.416551 
L 228.063122 166.289755 
L 227.945859 166.164803 
L 227.826628 166.041727 
L 227.70546 165.920559 
L 227.582385 165.801329 
L 227.457433 165.684066 
L 227.330636 165.5688 
L 227.202027 165.455561 
L 227.071637 165.344376 
L 226.9395 165.235274 
L 226.805648 165.128283 
L 226.670116 165.023428 
L 226.532937 164.920737 
L 226.394146 164.820236 
L 226.253778 164.721949 
L 226.111868 164.625902 
L 225.968452 164.532118 
L 225.823566 164.440622 
L 225.677247 164.351435 
L 225.529531 164.264582 
L 225.380456 164.180083 
L 225.230059 164.09796 
L 225.078378 164.018233 
L 224.925451 163.940923 
L 224.771316 163.86605 
L 224.616013 163.793631 
L 224.459581 163.723685 
L 224.302059 163.65623 
L 224.143486 163.591283 
L 223.983902 163.528859 
L 223.823349 163.468976 
L 223.661865 163.411647 
L 223.499492 163.356888 
L 223.336271 163.304712 
L 223.172243 163.255132 
L 223.007448 163.208161 
L 222.84193 163.16381 
L 222.675728 163.122091 
L 222.508885 163.083015 
L 222.341443 163.04659 
L 222.173445 163.012826 
L 222.004932 162.981733 
L 221.835946 162.953316 
L 221.666532 162.927585 
L 221.49673 162.904544 
L 221.326584 162.884201 
L 221.156137 162.866559 
L 220.985431 162.851625 
L 220.81451 162.8394 
L 220.643416 162.829889 
L 220.472193 162.823094 
L 220.300884 162.819016 
L 220.129531 162.817656 
L 214.669531 162.817656 
L 214.498179 162.819016 
L 214.32687 162.823094 
L 214.155647 162.829889 
L 213.984553 162.8394 
L 213.813632 162.851625 
L 213.642926 162.866559 
L 213.472479 162.884201 
L 213.302333 162.904544 
L 213.132531 162.927585 
L 212.963116 162.953316 
L 212.794131 162.981733 
L 212.625618 163.012826 
L 212.457619 163.04659 
L 212.290177 163.083015 
L 212.123335 163.122091 
L 211.957133 163.16381 
L 211.791614 163.208161 
L 211.62682 163.255132 
L 211.462791 163.304712 
L 211.29957 163.356888 
L 211.137197 163.411647 
L 210.975714 163.468976 
L 210.81516 163.528859 
L 210.655577 163.591283 
L 210.497004 163.65623 
L 210.339481 163.723685 
L 210.183049 163.793631 
L 210.027746 163.86605 
L 209.873612 163.940923 
L 209.720685 164.018233 
L 209.569004 164.09796 
L 209.418607 164.180083 
L 209.269531 164.264582 
L 209.121815 164.351435 
L 208.975496 164.440622 
L 208.83061 164.532118 
L 208.687195 164.625902 
L 208.545285 164.721949 
L 208.404917 164.820236 
L 208.266126 164.920737 
L 208.128947 165.023428 
L 207.993414 165.128283 
L 207.859562 165.235274 
L 207.727425 165.344376 
L 207.597035 165.455561 
L 207.468426 165.5688 
L 207.34163 165.684066 
L 207.216678 165.801329 
L 207.093602 165.920559 
L 206.972434 166.041727 
L 206.853204 166.164803 
L 206.735941 166.289755 
L 206.620675 166.416551 
L 206.507436 166.54516 
L 206.396251 166.67555 
L 206.287149 166.807687 
L 206.180158 166.941539 
L 206.075303 167.077072 
L 205.972612 167.214251 
L 205.872111 167.353042 
L 205.773824 167.49341 
L 205.677777 167.63532 
L 205.583993 167.778735 
L 205.492497 167.923621 
L 205.40331 168.06994 
L 205.316457 168.217656 
L 205.231958 168.366732 
L 205.149835 168.517129 
L 205.070108 168.66881 
L 204.992798 168.821737 
L 204.917925 168.975871 
L 204.845506 169.131174 
L 204.77556 169.287606 
L 204.708105 169.445129 
L 204.643158 169.603702 
L 204.580734 169.763285 
L 204.520851 169.923839 
L 204.463522 170.085322 
L 204.408763 170.247695 
L 204.356587 170.410916 
L 204.307007 170.574945 
L 204.260036 170.739739 
L 204.215685 170.905258 
L 204.173966 171.07146 
L 204.13489 171.238302 
L 204.098465 171.405744 
L 204.064701 171.573743 
L 204.033608 171.742256 
L 204.005191 171.911241 
L 203.97946 172.080656 
L 203.956419 172.250458 
L 203.936076 172.420604 
L 203.918434 172.591051 
L 203.9035 172.761757 
L 203.891275 172.932678 
L 203.881764 173.103772 
L 203.874969 173.274995 
L 203.870891 173.446304 
L 203.869531 173.617656 
L 203.869531 202.777656 
L 203.870891 202.949009 
L 203.874969 203.120318 
L 203.881764 203.291541 
L 203.891275 203.462635 
L 203.9035 203.633556 
L 203.918434 203.804262 
L 203.936076 203.974709 
L 203.956419 204.144855 
L 203.97946 204.314657 
L 204.005191 204.484071 
L 204.033608 204.653057 
L 204.064701 204.82157 
L 204.098465 204.989568 
L 204.13489 205.15701 
L 204.173966 205.323853 
L 204.215685 205.490055 
L 204.260036 205.655573 
L 204.307007 205.820368 
L 204.356587 205.984396 
L 204.408763 206.147617 
L 204.463522 206.30999 
L 204.520851 206.471474 
L 204.580734 206.632027 
L 204.643158 206.791611 
L 204.708105 206.950184 
L 204.77556 207.107706 
L 204.845506 207.264138 
L 204.917925 207.419441 
L 204.992798 207.573576 
L 205.070108 207.726503 
L 205.149835 207.878184 
L 205.231958 208.028581 
L 205.316457 208.177656 
L 205.40331 208.325372 
L 205.492497 208.471691 
L 205.583993 208.616577 
L 205.677777 208.759993 
L 205.773824 208.901903 
L 205.872111 209.042271 
L 205.972612 209.181062 
L 206.075303 209.318241 
L 206.180158 209.453773 
L 206.287149 209.587625 
L 206.396251 209.719762 
L 206.507436 209.850152 
L 206.620675 209.978761 
L 206.735941 210.105558 
L 206.853204 210.23051 
L 206.972434 210.353585 
L 207.093602 210.474753 
L 207.216678 210.593984 
L 207.34163 210.711247 
L 207.468426 210.826512 
L 207.597035 210.939752 
L 207.727425 211.050936 
L 207.859562 211.160038 
L 207.993414 211.26703 
L 208.128947 211.371884 
L 208.266126 211.474575 
L 208.404917 211.575077 
L 208.545285 211.673363 
L 208.687195 211.769411 
L 208.83061 211.863194 
L 208.975496 211.954691 
L 209.121815 212.043877 
L 209.269531 212.130731 
L 209.418607 212.21523 
L 209.569004 212.297353 
L 209.720685 212.377079 
L 209.873612 212.454389 
L 210.027746 212.529263 
L 210.183049 212.601682 
L 210.339481 212.671628 
L 210.497004 212.739083 
L 210.655577 212.80403 
L 210.81516 212.866453 
L 210.975714 212.926337 
L 211.137197 212.983665 
L 211.29957 213.038424 
L 211.462791 213.0906 
L 211.62682 213.14018 
L 211.791614 213.187152 
L 211.957133 213.231502 
L 212.123335 213.273221 
L 212.290177 213.312298 
L 212.457619 213.348723 
L 212.625618 213.382486 
L 212.794131 213.41358 
L 212.963116 213.441996 
L 213.132531 213.467728 
L 213.302333 213.490768 
L 213.472479 213.511112 
L 213.642926 213.528753 
L 213.813632 213.543688 
L 213.984553 213.555912 
L 214.155647 213.565424 
L 214.32687 213.572219 
L 214.498179 213.576297 
L 214.669531 213.577656 
L 220.129531 213.577656 
z
" clip-path="url(#p4c98955a50)" style="fill: none; stroke-dasharray: 1.85,0.8; stroke-dashoffset: 0; stroke: #008000; stroke-width: 0.5; stroke-linecap: round"/>
   </g>
   <g id="patch_6">
    <path d="M 191.269531 188.497656 
L 191.440884 188.496297 
L 191.612193 188.492219 
L 191.783416 188.485424 
L 191.95451 188.475912 
L 192.125431 188.463688 
L 192.296137 188.448753 
L 192.466584 188.431112 
L 192.63673 188.410768 
L 192.806532 188.387728 
L 192.975946 188.361996 
L 193.144932 188.33358 
L 193.313445 188.302486 
L 193.481443 188.268723 
L 193.648885 188.232298 
L 193.815728 188.193221 
L 193.98193 188.151502 
L 194.147448 188.107152 
L 194.312243 188.06018 
L 194.476271 188.0106 
L 194.639492 187.958424 
L 194.801865 187.903665 
L 194.963349 187.846337 
L 195.123902 187.786453 
L 195.283486 187.72403 
L 195.442059 187.659083 
L 195.599581 187.591628 
L 195.756013 187.521682 
L 195.911316 187.449263 
L 196.065451 187.374389 
L 196.218378 187.297079 
L 196.370059 187.217353 
L 196.520456 187.13523 
L 196.669531 187.050731 
L 196.817247 186.963877 
L 196.963566 186.874691 
L 197.108452 186.783194 
L 197.251868 186.689411 
L 197.393778 186.593363 
L 197.534146 186.495077 
L 197.672937 186.394575 
L 197.810116 186.291884 
L 197.945648 186.18703 
L 198.0795 186.080038 
L 198.211637 185.970936 
L 198.342027 185.859752 
L 198.470636 185.746512 
L 198.597433 185.631247 
L 198.722385 185.513984 
L 198.84546 185.394753 
L 198.966628 185.273585 
L 199.085859 185.15051 
L 199.203122 185.025558 
L 199.318387 184.898761 
L 199.431627 184.770152 
L 199.542811 184.639762 
L 199.651913 184.507625 
L 199.758905 184.373773 
L 199.863759 184.238241 
L 199.96645 184.101062 
L 200.066952 183.962271 
L 200.165238 183.821903 
L 200.261286 183.679993 
L 200.355069 183.536577 
L 200.446566 183.391691 
L 200.535752 183.245372 
L 200.622606 183.097656 
L 200.707105 182.948581 
L 200.789228 182.798184 
L 200.868954 182.646503 
L 200.946264 182.493576 
L 201.021138 182.339441 
L 201.093557 182.184138 
L 201.163503 182.027706 
L 201.230958 181.870184 
L 201.295905 181.711611 
L 201.358328 181.552027 
L 201.418212 181.391474 
L 201.47554 181.22999 
L 201.530299 181.067617 
L 201.582475 180.904396 
L 201.632055 180.740368 
L 201.679027 180.575573 
L 201.723377 180.410055 
L 201.765096 180.243853 
L 201.804173 180.07701 
L 201.840598 179.909568 
L 201.874361 179.74157 
L 201.905455 179.573057 
L 201.933871 179.404071 
L 201.959603 179.234657 
L 201.982643 179.064855 
L 202.002987 178.894709 
L 202.020628 178.724262 
L 202.035563 178.553556 
L 202.047787 178.382635 
L 202.057299 178.211541 
L 202.064094 178.040318 
L 202.068172 177.869009 
L 202.069531 177.697656 
L 202.069531 98.497656 
L 202.068172 98.326304 
L 202.064094 98.154995 
L 202.057299 97.983772 
L 202.047787 97.812678 
L 202.035563 97.641757 
L 202.020628 97.471051 
L 202.002987 97.300604 
L 201.982643 97.130458 
L 201.959603 96.960656 
L 201.933871 96.791241 
L 201.905455 96.622256 
L 201.874361 96.453743 
L 201.840598 96.285744 
L 201.804173 96.118302 
L 201.765096 95.95146 
L 201.723377 95.785258 
L 201.679027 95.619739 
L 201.632055 95.454945 
L 201.582475 95.290916 
L 201.530299 95.127695 
L 201.47554 94.965322 
L 201.418212 94.803839 
L 201.358328 94.643285 
L 201.295905 94.483702 
L 201.230958 94.325129 
L 201.163503 94.167606 
L 201.093557 94.011174 
L 201.021138 93.855871 
L 200.946264 93.701737 
L 200.868954 93.54881 
L 200.789228 93.397129 
L 200.707105 93.246732 
L 200.622606 93.097656 
L 200.535752 92.94994 
L 200.446566 92.803621 
L 200.355069 92.658735 
L 200.261286 92.51532 
L 200.165238 92.37341 
L 200.066952 92.233042 
L 199.96645 92.094251 
L 199.863759 91.957072 
L 199.758905 91.821539 
L 199.651913 91.687687 
L 199.542811 91.55555 
L 199.431627 91.42516 
L 199.318387 91.296551 
L 199.203122 91.169755 
L 199.085859 91.044803 
L 198.966628 90.921727 
L 198.84546 90.800559 
L 198.722385 90.681329 
L 198.597433 90.564066 
L 198.470636 90.4488 
L 198.342027 90.335561 
L 198.211637 90.224376 
L 198.0795 90.115274 
L 197.945648 90.008283 
L 197.810116 89.903428 
L 197.672937 89.800737 
L 197.534146 89.700236 
L 197.393778 89.601949 
L 197.251868 89.505902 
L 197.108452 89.412118 
L 196.963566 89.320622 
L 196.817247 89.231435 
L 196.669531 89.144582 
L 196.520456 89.060083 
L 196.370059 88.97796 
L 196.218378 88.898233 
L 196.065451 88.820923 
L 195.911316 88.74605 
L 195.756013 88.673631 
L 195.599581 88.603685 
L 195.442059 88.53623 
L 195.283486 88.471283 
L 195.123902 88.408859 
L 194.963349 88.348976 
L 194.801865 88.291647 
L 194.639492 88.236888 
L 194.476271 88.184712 
L 194.312243 88.135132 
L 194.147448 88.088161 
L 193.98193 88.04381 
L 193.815728 88.002091 
L 193.648885 87.963015 
L 193.481443 87.92659 
L 193.313445 87.892826 
L 193.144932 87.861733 
L 192.975946 87.833316 
L 192.806532 87.807585 
L 192.63673 87.784544 
L 192.466584 87.764201 
L 192.296137 87.746559 
L 192.125431 87.731625 
L 191.95451 87.7194 
L 191.783416 87.709889 
L 191.612193 87.703094 
L 191.440884 87.699016 
L 191.269531 87.697656 
L 180.469531 87.697656 
L 180.298179 87.699016 
L 180.12687 87.703094 
L 179.955647 87.709889 
L 179.784553 87.7194 
L 179.613632 87.731625 
L 179.442926 87.746559 
L 179.272479 87.764201 
L 179.102333 87.784544 
L 178.932531 87.807585 
L 178.763116 87.833316 
L 178.594131 87.861733 
L 178.425618 87.892826 
L 178.257619 87.92659 
L 178.090177 87.963015 
L 177.923335 88.002091 
L 177.757133 88.04381 
L 177.591614 88.088161 
L 177.42682 88.135132 
L 177.262791 88.184712 
L 177.09957 88.236888 
L 176.937197 88.291647 
L 176.775714 88.348976 
L 176.61516 88.408859 
L 176.455577 88.471283 
L 176.297004 88.53623 
L 176.139481 88.603685 
L 175.983049 88.673631 
L 175.827746 88.74605 
L 175.673612 88.820923 
L 175.520685 88.898233 
L 175.369004 88.97796 
L 175.218607 89.060083 
L 175.069531 89.144582 
L 174.921815 89.231435 
L 174.775496 89.320622 
L 174.63061 89.412118 
L 174.487195 89.505902 
L 174.345285 89.601949 
L 174.204917 89.700236 
L 174.066126 89.800737 
L 173.928947 89.903428 
L 173.793414 90.008283 
L 173.659562 90.115274 
L 173.527425 90.224376 
L 173.397035 90.335561 
L 173.268426 90.4488 
L 173.14163 90.564066 
L 173.016678 90.681329 
L 172.893602 90.800559 
L 172.772434 90.921727 
L 172.653204 91.044803 
L 172.535941 91.169755 
L 172.420675 91.296551 
L 172.307436 91.42516 
L 172.196251 91.55555 
L 172.087149 91.687687 
L 171.980158 91.821539 
L 171.875303 91.957072 
L 171.772612 92.094251 
L 171.672111 92.233042 
L 171.573824 92.37341 
L 171.477777 92.51532 
L 171.383993 92.658735 
L 171.292497 92.803621 
L 171.20331 92.94994 
L 171.116457 93.097656 
L 171.031958 93.246732 
L 170.949835 93.397129 
L 170.870108 93.54881 
L 170.792798 93.701737 
L 170.717925 93.855871 
L 170.645506 94.011174 
L 170.57556 94.167606 
L 170.508105 94.325129 
L 170.443158 94.483702 
L 170.380734 94.643285 
L 170.320851 94.803839 
L 170.263522 94.965322 
L 170.208763 95.127695 
L 170.156587 95.290916 
L 170.107007 95.454945 
L 170.060036 95.619739 
L 170.015685 95.785258 
L 169.973966 95.95146 
L 169.93489 96.118302 
L 169.898465 96.285744 
L 169.864701 96.453743 
L 169.833608 96.622256 
L 169.805191 96.791241 
L 169.77946 96.960656 
L 169.756419 97.130458 
L 169.736076 97.300604 
L 169.718434 97.471051 
L 169.7035 97.641757 
L 169.691275 97.812678 
L 169.681764 97.983772 
L 169.674969 98.154995 
L 169.670891 98.326304 
L 169.669531 98.497656 
L 169.669531 177.697656 
L 169.670891 177.869009 
L 169.674969 178.040318 
L 169.681764 178.211541 
L 169.691275 178.382635 
L 169.7035 178.553556 
L 169.718434 178.724262 
L 169.736076 178.894709 
L 169.756419 179.064855 
L 169.77946 179.234657 
L 169.805191 179.404071 
L 169.833608 179.573057 
L 169.864701 179.74157 
L 169.898465 179.909568 
L 169.93489 180.07701 
L 169.973966 180.243853 
L 170.015685 180.410055 
L 170.060036 180.575573 
L 170.107007 180.740368 
L 170.156587 180.904396 
L 170.208763 181.067617 
L 170.263522 181.22999 
L 170.320851 181.391474 
L 170.380734 181.552027 
L 170.443158 181.711611 
L 170.508105 181.870184 
L 170.57556 182.027706 
L 170.645506 182.184138 
L 170.717925 182.339441 
L 170.792798 182.493576 
L 170.870108 182.646503 
L 170.949835 182.798184 
L 171.031958 182.948581 
L 171.116457 183.097656 
L 171.20331 183.245372 
L 171.292497 183.391691 
L 171.383993 183.536577 
L 171.477777 183.679993 
L 171.573824 183.821903 
L 171.672111 183.962271 
L 171.772612 184.101062 
L 171.875303 184.238241 
L 171.980158 184.373773 
L 172.087149 184.507625 
L 172.196251 184.639762 
L 172.307436 184.770152 
L 172.420675 184.898761 
L 172.535941 185.025558 
L 172.653204 185.15051 
L 172.772434 185.273585 
L 172.893602 185.394753 
L 173.016678 185.513984 
L 173.14163 185.631247 
L 173.268426 185.746512 
L 173.397035 185.859752 
L 173.527425 185.970936 
L 173.659562 186.080038 
L 173.793414 186.18703 
L 173.928947 186.291884 
L 174.066126 186.394575 
L 174.204917 186.495077 
L 174.345285 186.593363 
L 174.487195 186.689411 
L 174.63061 186.783194 
L 174.775496 186.874691 
L 174.921815 186.963877 
L 175.069531 187.050731 
L 175.218607 187.13523 
L 175.369004 187.217353 
L 175.520685 187.297079 
L 175.673612 187.374389 
L 175.827746 187.449263 
L 175.983049 187.521682 
L 176.139481 187.591628 
L 176.297004 187.659083 
L 176.455577 187.72403 
L 176.61516 187.786453 
L 176.775714 187.846337 
L 176.937197 187.903665 
L 177.09957 187.958424 
L 177.262791 188.0106 
L 177.42682 188.06018 
L 177.591614 188.107152 
L 177.757133 188.151502 
L 177.923335 188.193221 
L 178.090177 188.232298 
L 178.257619 188.268723 
L 178.425618 188.302486 
L 178.594131 188.33358 
L 178.763116 188.361996 
L 178.932531 188.387728 
L 179.102333 188.410768 
L 179.272479 188.431112 
L 179.442926 188.448753 
L 179.613632 188.463688 
L 179.784553 188.475912 
L 179.955647 188.485424 
L 180.12687 188.492219 
L 180.298179 188.496297 
L 180.469531 188.497656 
L 191.269531 188.497656 
z
" clip-path="url(#p4c98955a50)" style="fill: none; stroke-dasharray: 1.85,0.8; stroke-dashoffset: 0; stroke: #ff0000; stroke-width: 0.5; stroke-linecap: round"/>
   </g>
   <g id="patch_7">
    <path d="M 191.269531 87.697656 
L 191.440884 87.696297 
L 191.612193 87.692219 
L 191.783416 87.685424 
L 191.95451 87.675912 
L 192.125431 87.663688 
L 192.296137 87.648753 
L 192.466584 87.631112 
L 192.63673 87.610768 
L 192.806532 87.587728 
L 192.975946 87.561996 
L 193.144932 87.53358 
L 193.313445 87.502486 
L 193.481443 87.468723 
L 193.648885 87.432298 
L 193.815728 87.393221 
L 193.98193 87.351502 
L 194.147448 87.307152 
L 194.312243 87.26018 
L 194.476271 87.2106 
L 194.639492 87.158424 
L 194.801865 87.103665 
L 194.963349 87.046337 
L 195.123902 86.986453 
L 195.283486 86.92403 
L 195.442059 86.859083 
L 195.599581 86.791628 
L 195.756013 86.721682 
L 195.911316 86.649263 
L 196.065451 86.574389 
L 196.218378 86.497079 
L 196.370059 86.417353 
L 196.520456 86.33523 
L 196.669531 86.250731 
L 196.817247 86.163877 
L 196.963566 86.074691 
L 197.108452 85.983194 
L 197.251868 85.889411 
L 197.393778 85.793363 
L 197.534146 85.695077 
L 197.672937 85.594575 
L 197.810116 85.491884 
L 197.945648 85.38703 
L 198.0795 85.280038 
L 198.211637 85.170936 
L 198.342027 85.059752 
L 198.470636 84.946512 
L 198.597433 84.831247 
L 198.722385 84.713984 
L 198.84546 84.594753 
L 198.966628 84.473585 
L 199.085859 84.35051 
L 199.203122 84.225558 
L 199.318387 84.098761 
L 199.431627 83.970152 
L 199.542811 83.839762 
L 199.651913 83.707625 
L 199.758905 83.573773 
L 199.863759 83.438241 
L 199.96645 83.301062 
L 200.066952 83.162271 
L 200.165238 83.021903 
L 200.261286 82.879993 
L 200.355069 82.736577 
L 200.446566 82.591691 
L 200.535752 82.445372 
L 200.622606 82.297656 
L 200.707105 82.148581 
L 200.789228 81.998184 
L 200.868954 81.846503 
L 200.946264 81.693576 
L 201.021138 81.539441 
L 201.093557 81.384138 
L 201.163503 81.227706 
L 201.230958 81.070184 
L 201.295905 80.911611 
L 201.358328 80.752027 
L 201.418212 80.591474 
L 201.47554 80.42999 
L 201.530299 80.267617 
L 201.582475 80.104396 
L 201.632055 79.940368 
L 201.679027 79.775573 
L 201.723377 79.610055 
L 201.765096 79.443853 
L 201.804173 79.27701 
L 201.840598 79.109568 
L 201.874361 78.94157 
L 201.905455 78.773057 
L 201.933871 78.604071 
L 201.959603 78.434657 
L 201.982643 78.264855 
L 202.002987 78.094709 
L 202.020628 77.924262 
L 202.035563 77.753556 
L 202.047787 77.582635 
L 202.057299 77.411541 
L 202.064094 77.240318 
L 202.068172 77.069009 
L 202.069531 76.897656 
L 202.069531 44.497656 
L 202.068172 44.326304 
L 202.064094 44.154995 
L 202.057299 43.983772 
L 202.047787 43.812678 
L 202.035563 43.641757 
L 202.020628 43.471051 
L 202.002987 43.300604 
L 201.982643 43.130458 
L 201.959603 42.960656 
L 201.933871 42.791241 
L 201.905455 42.622256 
L 201.874361 42.453743 
L 201.840598 42.285744 
L 201.804173 42.118302 
L 201.765096 41.95146 
L 201.723377 41.785258 
L 201.679027 41.619739 
L 201.632055 41.454945 
L 201.582475 41.290916 
L 201.530299 41.127695 
L 201.47554 40.965322 
L 201.418212 40.803839 
L 201.358328 40.643285 
L 201.295905 40.483702 
L 201.230958 40.325129 
L 201.163503 40.167606 
L 201.093557 40.011174 
L 201.021138 39.855871 
L 200.946264 39.701737 
L 200.868954 39.54881 
L 200.789228 39.397129 
L 200.707105 39.246732 
L 200.622606 39.097656 
L 200.535752 38.94994 
L 200.446566 38.803621 
L 200.355069 38.658735 
L 200.261286 38.51532 
L 200.165238 38.37341 
L 200.066952 38.233042 
L 199.96645 38.094251 
L 199.863759 37.957072 
L 199.758905 37.821539 
L 199.651913 37.687687 
L 199.542811 37.55555 
L 199.431627 37.42516 
L 199.318387 37.296551 
L 199.203122 37.169755 
L 199.085859 37.044803 
L 198.966628 36.921727 
L 198.84546 36.800559 
L 198.722385 36.681329 
L 198.597433 36.564066 
L 198.470636 36.4488 
L 198.342027 36.335561 
L 198.211637 36.224376 
L 198.0795 36.115274 
L 197.945648 36.008283 
L 197.810116 35.903428 
L 197.672937 35.800737 
L 197.534146 35.700236 
L 197.393778 35.601949 
L 197.251868 35.505902 
L 197.108452 35.412118 
L 196.963566 35.320622 
L 196.817247 35.231435 
L 196.669531 35.144582 
L 196.520456 35.060083 
L 196.370059 34.97796 
L 196.218378 34.898233 
L 196.065451 34.820923 
L 195.911316 34.74605 
L 195.756013 34.673631 
L 195.599581 34.603685 
L 195.442059 34.53623 
L 195.283486 34.471283 
L 195.123902 34.408859 
L 194.963349 34.348976 
L 194.801865 34.291647 
L 194.639492 34.236888 
L 194.476271 34.184712 
L 194.312243 34.135132 
L 194.147448 34.088161 
L 193.98193 34.04381 
L 193.815728 34.002091 
L 193.648885 33.963015 
L 193.481443 33.92659 
L 193.313445 33.892826 
L 193.144932 33.861733 
L 192.975946 33.833316 
L 192.806532 33.807585 
L 192.63673 33.784544 
L 192.466584 33.764201 
L 192.296137 33.746559 
L 192.125431 33.731625 
L 191.95451 33.7194 
L 191.783416 33.709889 
L 191.612193 33.703094 
L 191.440884 33.699016 
L 191.269531 33.697656 
L 153.961531 33.697656 
L 153.790179 33.699016 
L 153.61887 33.703094 
L 153.447647 33.709889 
L 153.276553 33.7194 
L 153.105632 33.731625 
L 152.934926 33.746559 
L 152.764479 33.764201 
L 152.594333 33.784544 
L 152.424531 33.807585 
L 152.255116 33.833316 
L 152.086131 33.861733 
L 151.917618 33.892826 
L 151.749619 33.92659 
L 151.582177 33.963015 
L 151.415335 34.002091 
L 151.249133 34.04381 
L 151.083614 34.088161 
L 150.91882 34.135132 
L 150.754791 34.184712 
L 150.59157 34.236888 
L 150.429197 34.291647 
L 150.267714 34.348976 
L 150.10716 34.408859 
L 149.947577 34.471283 
L 149.789004 34.53623 
L 149.631481 34.603685 
L 149.475049 34.673631 
L 149.319746 34.74605 
L 149.165612 34.820923 
L 149.012685 34.898233 
L 148.861004 34.97796 
L 148.710607 35.060083 
L 148.561531 35.144582 
L 148.413815 35.231435 
L 148.267496 35.320622 
L 148.12261 35.412118 
L 147.979195 35.505902 
L 147.837285 35.601949 
L 147.696917 35.700236 
L 147.558126 35.800737 
L 147.420947 35.903428 
L 147.285414 36.008283 
L 147.151562 36.115274 
L 147.019425 36.224376 
L 146.889035 36.335561 
L 146.760426 36.4488 
L 146.63363 36.564066 
L 146.508678 36.681329 
L 146.385602 36.800559 
L 146.264434 36.921727 
L 146.145204 37.044803 
L 146.027941 37.169755 
L 145.912675 37.296551 
L 145.799436 37.42516 
L 145.688251 37.55555 
L 145.579149 37.687687 
L 145.472158 37.821539 
L 145.367303 37.957072 
L 145.264612 38.094251 
L 145.164111 38.233042 
L 145.065824 38.37341 
L 144.969777 38.51532 
L 144.875993 38.658735 
L 144.784497 38.803621 
L 144.69531 38.94994 
L 144.608457 39.097656 
L 144.523958 39.246732 
L 144.441835 39.397129 
L 144.362108 39.54881 
L 144.284798 39.701737 
L 144.209925 39.855871 
L 144.137506 40.011174 
L 144.06756 40.167606 
L 144.000105 40.325129 
L 143.935158 40.483702 
L 143.872734 40.643285 
L 143.812851 40.803839 
L 143.755522 40.965322 
L 143.700763 41.127695 
L 143.648587 41.290916 
L 143.599007 41.454945 
L 143.552036 41.619739 
L 143.507685 41.785258 
L 143.465966 41.95146 
L 143.42689 42.118302 
L 143.390465 42.285744 
L 143.356701 42.453743 
L 143.325608 42.622256 
L 143.297191 42.791241 
L 143.27146 42.960656 
L 143.248419 43.130458 
L 143.228076 43.300604 
L 143.210434 43.471051 
L 143.1955 43.641757 
L 143.183275 43.812678 
L 143.173764 43.983772 
L 143.166969 44.154995 
L 143.162891 44.326304 
L 143.161531 44.497656 
L 143.161531 76.897656 
L 143.162891 77.069009 
L 143.166969 77.240318 
L 143.173764 77.411541 
L 143.183275 77.582635 
L 143.1955 77.753556 
L 143.210434 77.924262 
L 143.228076 78.094709 
L 143.248419 78.264855 
L 143.27146 78.434657 
L 143.297191 78.604071 
L 143.325608 78.773057 
L 143.356701 78.94157 
L 143.390465 79.109568 
L 143.42689 79.27701 
L 143.465966 79.443853 
L 143.507685 79.610055 
L 143.552036 79.775573 
L 143.599007 79.940368 
L 143.648587 80.104396 
L 143.700763 80.267617 
L 143.755522 80.42999 
L 143.812851 80.591474 
L 143.872734 80.752027 
L 143.935158 80.911611 
L 144.000105 81.070184 
L 144.06756 81.227706 
L 144.137506 81.384138 
L 144.209925 81.539441 
L 144.284798 81.693576 
L 144.362108 81.846503 
L 144.441835 81.998184 
L 144.523958 82.148581 
L 144.608457 82.297656 
L 144.69531 82.445372 
L 144.784497 82.591691 
L 144.875993 82.736577 
L 144.969777 82.879993 
L 145.065824 83.021903 
L 145.164111 83.162271 
L 145.264612 83.301062 
L 145.367303 83.438241 
L 145.472158 83.573773 
L 145.579149 83.707625 
L 145.688251 83.839762 
L 145.799436 83.970152 
L 145.912675 84.098761 
L 146.027941 84.225558 
L 146.145204 84.35051 
L 146.264434 84.473585 
L 146.385602 84.594753 
L 146.508678 84.713984 
L 146.63363 84.831247 
L 146.760426 84.946512 
L 146.889035 85.059752 
L 147.019425 85.170936 
L 147.151562 85.280038 
L 147.285414 85.38703 
L 147.420947 85.491884 
L 147.558126 85.594575 
L 147.696917 85.695077 
L 147.837285 85.793363 
L 147.979195 85.889411 
L 148.12261 85.983194 
L 148.267496 86.074691 
L 148.413815 86.163877 
L 148.561531 86.250731 
L 148.710607 86.33523 
L 148.861004 86.417353 
L 149.012685 86.497079 
L 149.165612 86.574389 
L 149.319746 86.649263 
L 149.475049 86.721682 
L 149.631481 86.791628 
L 149.789004 86.859083 
L 149.947577 86.92403 
L 150.10716 86.986453 
L 150.267714 87.046337 
L 150.429197 87.103665 
L 150.59157 87.158424 
L 150.754791 87.2106 
L 150.91882 87.26018 
L 151.083614 87.307152 
L 151.249133 87.351502 
L 151.415335 87.393221 
L 151.582177 87.432298 
L 151.749619 87.468723 
L 151.917618 87.502486 
L 152.086131 87.53358 
L 152.255116 87.561996 
L 152.424531 87.587728 
L 152.594333 87.610768 
L 152.764479 87.631112 
L 152.934926 87.648753 
L 153.105632 87.663688 
L 153.276553 87.675912 
L 153.447647 87.685424 
L 153.61887 87.692219 
L 153.790179 87.696297 
L 153.961531 87.697656 
L 191.269531 87.697656 
z
" clip-path="url(#p4c98955a50)" style="fill: none; stroke-dasharray: 1.85,0.8; stroke-dashoffset: 0; stroke: #a52a2a; stroke-width: 0.5; stroke-linecap: round"/>
   </g>
   <g id="patch_8">
    <path d="M 191.269531 242.497656 
L 191.440884 242.496297 
L 191.612193 242.492219 
L 191.783416 242.485424 
L 191.95451 242.475912 
L 192.125431 242.463688 
L 192.296137 242.448753 
L 192.466584 242.431112 
L 192.63673 242.410768 
L 192.806532 242.387728 
L 192.975946 242.361996 
L 193.144932 242.33358 
L 193.313445 242.302486 
L 193.481443 242.268723 
L 193.648885 242.232298 
L 193.815728 242.193221 
L 193.98193 242.151502 
L 194.147448 242.107152 
L 194.312243 242.06018 
L 194.476271 242.0106 
L 194.639492 241.958424 
L 194.801865 241.903665 
L 194.963349 241.846337 
L 195.123902 241.786453 
L 195.283486 241.72403 
L 195.442059 241.659083 
L 195.599581 241.591628 
L 195.756013 241.521682 
L 195.911316 241.449263 
L 196.065451 241.374389 
L 196.218378 241.297079 
L 196.370059 241.217353 
L 196.520456 241.13523 
L 196.669531 241.050731 
L 196.817247 240.963877 
L 196.963566 240.874691 
L 197.108452 240.783194 
L 197.251868 240.689411 
L 197.393778 240.593363 
L 197.534146 240.495077 
L 197.672937 240.394575 
L 197.810116 240.291884 
L 197.945648 240.18703 
L 198.0795 240.080038 
L 198.211637 239.970936 
L 198.342027 239.859752 
L 198.470636 239.746512 
L 198.597433 239.631247 
L 198.722385 239.513984 
L 198.84546 239.394753 
L 198.966628 239.273585 
L 199.085859 239.15051 
L 199.203122 239.025558 
L 199.318387 238.898761 
L 199.431627 238.770152 
L 199.542811 238.639762 
L 199.651913 238.507625 
L 199.758905 238.373773 
L 199.863759 238.238241 
L 199.96645 238.101062 
L 200.066952 237.962271 
L 200.165238 237.821903 
L 200.261286 237.679993 
L 200.355069 237.536577 
L 200.446566 237.391691 
L 200.535752 237.245372 
L 200.622606 237.097656 
L 200.707105 236.948581 
L 200.789228 236.798184 
L 200.868954 236.646503 
L 200.946264 236.493576 
L 201.021138 236.339441 
L 201.093557 236.184138 
L 201.163503 236.027706 
L 201.230958 235.870184 
L 201.295905 235.711611 
L 201.358328 235.552027 
L 201.418212 235.391474 
L 201.47554 235.22999 
L 201.530299 235.067617 
L 201.582475 234.904396 
L 201.632055 234.740368 
L 201.679027 234.575573 
L 201.723377 234.410055 
L 201.765096 234.243853 
L 201.804173 234.07701 
L 201.840598 233.909568 
L 201.874361 233.74157 
L 201.905455 233.573057 
L 201.933871 233.404071 
L 201.959603 233.234657 
L 201.982643 233.064855 
L 202.002987 232.894709 
L 202.020628 232.724262 
L 202.035563 232.553556 
L 202.047787 232.382635 
L 202.057299 232.211541 
L 202.064094 232.040318 
L 202.068172 231.869009 
L 202.069531 231.697656 
L 202.069531 199.297656 
L 202.068172 199.126304 
L 202.064094 198.954995 
L 202.057299 198.783772 
L 202.047787 198.612678 
L 202.035563 198.441757 
L 202.020628 198.271051 
L 202.002987 198.100604 
L 201.982643 197.930458 
L 201.959603 197.760656 
L 201.933871 197.591241 
L 201.905455 197.422256 
L 201.874361 197.253743 
L 201.840598 197.085744 
L 201.804173 196.918302 
L 201.765096 196.75146 
L 201.723377 196.585258 
L 201.679027 196.419739 
L 201.632055 196.254945 
L 201.582475 196.090916 
L 201.530299 195.927695 
L 201.47554 195.765322 
L 201.418212 195.603839 
L 201.358328 195.443285 
L 201.295905 195.283702 
L 201.230958 195.125129 
L 201.163503 194.967606 
L 201.093557 194.811174 
L 201.021138 194.655871 
L 200.946264 194.501737 
L 200.868954 194.34881 
L 200.789228 194.197129 
L 200.707105 194.046732 
L 200.622606 193.897656 
L 200.535752 193.74994 
L 200.446566 193.603621 
L 200.355069 193.458735 
L 200.261286 193.31532 
L 200.165238 193.17341 
L 200.066952 193.033042 
L 199.96645 192.894251 
L 199.863759 192.757072 
L 199.758905 192.621539 
L 199.651913 192.487687 
L 199.542811 192.35555 
L 199.431627 192.22516 
L 199.318387 192.096551 
L 199.203122 191.969755 
L 199.085859 191.844803 
L 198.966628 191.721727 
L 198.84546 191.600559 
L 198.722385 191.481329 
L 198.597433 191.364066 
L 198.470636 191.2488 
L 198.342027 191.135561 
L 198.211637 191.024376 
L 198.0795 190.915274 
L 197.945648 190.808283 
L 197.810116 190.703428 
L 197.672937 190.600737 
L 197.534146 190.500236 
L 197.393778 190.401949 
L 197.251868 190.305902 
L 197.108452 190.212118 
L 196.963566 190.120622 
L 196.817247 190.031435 
L 196.669531 189.944582 
L 196.520456 189.860083 
L 196.370059 189.77796 
L 196.218378 189.698233 
L 196.065451 189.620923 
L 195.911316 189.54605 
L 195.756013 189.473631 
L 195.599581 189.403685 
L 195.442059 189.33623 
L 195.283486 189.271283 
L 195.123902 189.208859 
L 194.963349 189.148976 
L 194.801865 189.091647 
L 194.639492 189.036888 
L 194.476271 188.984712 
L 194.312243 188.935132 
L 194.147448 188.888161 
L 193.98193 188.84381 
L 193.815728 188.802091 
L 193.648885 188.763015 
L 193.481443 188.72659 
L 193.313445 188.692826 
L 193.144932 188.661733 
L 192.975946 188.633316 
L 192.806532 188.607585 
L 192.63673 188.584544 
L 192.466584 188.564201 
L 192.296137 188.546559 
L 192.125431 188.531625 
L 191.95451 188.5194 
L 191.783416 188.509889 
L 191.612193 188.503094 
L 191.440884 188.499016 
L 191.269531 188.497656 
L 153.961531 188.497656 
L 153.790179 188.499016 
L 153.61887 188.503094 
L 153.447647 188.509889 
L 153.276553 188.5194 
L 153.105632 188.531625 
L 152.934926 188.546559 
L 152.764479 188.564201 
L 152.594333 188.584544 
L 152.424531 188.607585 
L 152.255116 188.633316 
L 152.086131 188.661733 
L 151.917618 188.692826 
L 151.749619 188.72659 
L 151.582177 188.763015 
L 151.415335 188.802091 
L 151.249133 188.84381 
L 151.083614 188.888161 
L 150.91882 188.935132 
L 150.754791 188.984712 
L 150.59157 189.036888 
L 150.429197 189.091647 
L 150.267714 189.148976 
L 150.10716 189.208859 
L 149.947577 189.271283 
L 149.789004 189.33623 
L 149.631481 189.403685 
L 149.475049 189.473631 
L 149.319746 189.54605 
L 149.165612 189.620923 
L 149.012685 189.698233 
L 148.861004 189.77796 
L 148.710607 189.860083 
L 148.561531 189.944582 
L 148.413815 190.031435 
L 148.267496 190.120622 
L 148.12261 190.212118 
L 147.979195 190.305902 
L 147.837285 190.401949 
L 147.696917 190.500236 
L 147.558126 190.600737 
L 147.420947 190.703428 
L 147.285414 190.808283 
L 147.151562 190.915274 
L 147.019425 191.024376 
L 146.889035 191.135561 
L 146.760426 191.2488 
L 146.63363 191.364066 
L 146.508678 191.481329 
L 146.385602 191.600559 
L 146.264434 191.721727 
L 146.145204 191.844803 
L 146.027941 191.969755 
L 145.912675 192.096551 
L 145.799436 192.22516 
L 145.688251 192.35555 
L 145.579149 192.487687 
L 145.472158 192.621539 
L 145.367303 192.757072 
L 145.264612 192.894251 
L 145.164111 193.033042 
L 145.065824 193.17341 
L 144.969777 193.31532 
L 144.875993 193.458735 
L 144.784497 193.603621 
L 144.69531 193.74994 
L 144.608457 193.897656 
L 144.523958 194.046732 
L 144.441835 194.197129 
L 144.362108 194.34881 
L 144.284798 194.501737 
L 144.209925 194.655871 
L 144.137506 194.811174 
L 144.06756 194.967606 
L 144.000105 195.125129 
L 143.935158 195.283702 
L 143.872734 195.443285 
L 143.812851 195.603839 
L 143.755522 195.765322 
L 143.700763 195.927695 
L 143.648587 196.090916 
L 143.599007 196.254945 
L 143.552036 196.419739 
L 143.507685 196.585258 
L 143.465966 196.75146 
L 143.42689 196.918302 
L 143.390465 197.085744 
L 143.356701 197.253743 
L 143.325608 197.422256 
L 143.297191 197.591241 
L 143.27146 197.760656 
L 143.248419 197.930458 
L 143.228076 198.100604 
L 143.210434 198.271051 
L 143.1955 198.441757 
L 143.183275 198.612678 
L 143.173764 198.783772 
L 143.166969 198.954995 
L 143.162891 199.126304 
L 143.161531 199.297656 
L 143.161531 231.697656 
L 143.162891 231.869009 
L 143.166969 232.040318 
L 143.173764 232.211541 
L 143.183275 232.382635 
L 143.1955 232.553556 
L 143.210434 232.724262 
L 143.228076 232.894709 
L 143.248419 233.064855 
L 143.27146 233.234657 
L 143.297191 233.404071 
L 143.325608 233.573057 
L 143.356701 233.74157 
L 143.390465 233.909568 
L 143.42689 234.07701 
L 143.465966 234.243853 
L 143.507685 234.410055 
L 143.552036 234.575573 
L 143.599007 234.740368 
L 143.648587 234.904396 
L 143.700763 235.067617 
L 143.755522 235.22999 
L 143.812851 235.391474 
L 143.872734 235.552027 
L 143.935158 235.711611 
L 144.000105 235.870184 
L 144.06756 236.027706 
L 144.137506 236.184138 
L 144.209925 236.339441 
L 144.284798 236.493576 
L 144.362108 236.646503 
L 144.441835 236.798184 
L 144.523958 236.948581 
L 144.608457 237.097656 
L 144.69531 237.245372 
L 144.784497 237.391691 
L 144.875993 237.536577 
L 144.969777 237.679993 
L 145.065824 237.821903 
L 145.164111 237.962271 
L 145.264612 238.101062 
L 145.367303 238.238241 
L 145.472158 238.373773 
L 145.579149 238.507625 
L 145.688251 238.639762 
L 145.799436 238.770152 
L 145.912675 238.898761 
L 146.027941 239.025558 
L 146.145204 239.15051 
L 146.264434 239.273585 
L 146.385602 239.394753 
L 146.508678 239.513984 
L 146.63363 239.631247 
L 146.760426 239.746512 
L 146.889035 239.859752 
L 147.019425 239.970936 
L 147.151562 240.080038 
L 147.285414 240.18703 
L 147.420947 240.291884 
L 147.558126 240.394575 
L 147.696917 240.495077 
L 147.837285 240.593363 
L 147.979195 240.689411 
L 148.12261 240.783194 
L 148.267496 240.874691 
L 148.413815 240.963877 
L 148.561531 241.050731 
L 148.710607 241.13523 
L 148.861004 241.217353 
L 149.012685 241.297079 
L 149.165612 241.374389 
L 149.319746 241.449263 
L 149.475049 241.521682 
L 149.631481 241.591628 
L 149.789004 241.659083 
L 149.947577 241.72403 
L 150.10716 241.786453 
L 150.267714 241.846337 
L 150.429197 241.903665 
L 150.59157 241.958424 
L 150.754791 242.0106 
L 150.91882 242.06018 
L 151.083614 242.107152 
L 151.249133 242.151502 
L 151.415335 242.193221 
L 151.582177 242.232298 
L 151.749619 242.268723 
L 151.917618 242.302486 
L 152.086131 242.33358 
L 152.255116 242.361996 
L 152.424531 242.387728 
L 152.594333 242.410768 
L 152.764479 242.431112 
L 152.934926 242.448753 
L 153.105632 242.463688 
L 153.276553 242.475912 
L 153.447647 242.485424 
L 153.61887 242.492219 
L 153.790179 242.496297 
L 153.961531 242.497656 
L 191.269531 242.497656 
z
" clip-path="url(#p4c98955a50)" style="fill: none; stroke-dasharray: 1.85,0.8; stroke-dashoffset: 0; stroke: #0000ff; stroke-width: 0.5; stroke-linecap: round"/>
   </g>
   <g id="patch_9">
    <path d="M 165.169531 138.097656 
C 137.269531 138.097656 158.869531 163.297656 126.469531 163.297656 
" clip-path="url(#p4c98955a50)" style="fill: none; stroke: #ff0000; stroke-width: 2; stroke-linejoin: miter; stroke-linecap: round"/>
   </g>
   <g id="patch_10">
    <path d="M 160.669531 134.497656 
L 169.669531 138.097656 
L 160.669531 141.697656 
z
" clip-path="url(#p4c98955a50)" style="fill: #ff0000"/>
   </g>
   <g id="line2d_1">
    <path d="M 203.869531 87.697656 
L 217.069531 87.697656 
" clip-path="url(#p4c98955a50)" style="fill: none; stroke: #000000; stroke-width: 2; stroke-linecap: round"/>
   </g>
   <g id="line2d_2">
    <path d="M 217.069531 74.497656 
L 217.069531 100.897656 
" clip-path="url(#p4c98955a50)" style="fill: none; stroke: #000000; stroke-width: 2; stroke-linecap: round"/>
   </g>
   <g id="line2d_3">
    <path d="M 217.069531 81.097656 
L 230.929531 69.217656 
L 230.929531 62.617656 
" clip-path="url(#p4c98955a50)" style="fill: none; stroke: #000000; stroke-width: 2; stroke-linecap: round"/>
   </g>
   <g id="line2d_4">
    <path d="M 217.069531 94.297656 
L 230.929531 106.177656 
L 230.929531 112.777656 
" clip-path="url(#p4c98955a50)" style="fill: none; stroke: #000000; stroke-width: 2; stroke-linecap: round"/>
   </g>
   <g id="line2d_5">
    <path d="M 217.069531 94.297656 
L 224.096222 100.320534 
" clip-path="url(#p4c98955a50)" style="fill: none; stroke: #000000; stroke-width: 2; stroke-linecap: round"/>
   </g>
   <g id="patch_11">
    <path d="M 226.439071 97.58721 
L 230.929531 106.177656 
L 221.753373 103.053858 
z
" clip-path="url(#p4c98955a50)"/>
   </g>
   <g id="line2d_6">
    <path d="M 203.869531 87.697656 
L 194.869531 87.697656 
L 185.869531 87.697656 
" clip-path="url(#p4c98955a50)" style="fill: none; stroke: #000000; stroke-width: 2; stroke-linecap: round"/>
   </g>
   <g id="line2d_7">
    <path d="M 185.869531 87.697656 
L 185.869531 102.997656 
M 194.869531 115.597656 
L 176.869531 115.597656 
M 185.869531 115.597656 
L 185.869531 130.897656 
" clip-path="url(#p4c98955a50)" style="fill: none; stroke: #000000; stroke-width: 2; stroke-linecap: round"/>
   </g>
   <g id="line2d_8">
    <path d="M 185.869531 130.897656 
L 185.869531 153.397656 
M 194.869531 165.997656 
L 176.869531 165.997656 
M 185.869531 165.997656 
L 185.869531 188.497656 
" clip-path="url(#p4c98955a50)" style="fill: none; stroke: #000000; stroke-width: 2; stroke-linecap: round"/>
   </g>
   <g id="line2d_9">
    <path d="M 185.869531 188.497656 
L 194.869531 188.497656 
L 203.869531 188.497656 
" clip-path="url(#p4c98955a50)" style="fill: none; stroke: #000000; stroke-width: 2; stroke-linecap: round"/>
   </g>
   <g id="line2d_10">
    <path d="M 203.869531 188.497656 
L 217.069531 188.497656 
" clip-path="url(#p4c98955a50)" style="fill: none; stroke: #000000; stroke-width: 2; stroke-linecap: round"/>
   </g>
   <g id="line2d_11">
    <path d="M 217.069531 175.297656 
L 217.069531 201.697656 
" clip-path="url(#p4c98955a50)" style="fill: none; stroke: #000000; stroke-width: 2; stroke-linecap: round"/>
   </g>
   <g id="line2d_12">
    <path d="M 217.069531 181.897656 
L 230.929531 170.017656 
L 230.929531 163.417656 
" clip-path="url(#p4c98955a50)" style="fill: none; stroke: #000000; stroke-width: 2; stroke-linecap: round"/>
   </g>
   <g id="line2d_13">
    <path d="M 217.069531 195.097656 
L 230.929531 206.977656 
L 230.929531 213.577656 
" clip-path="url(#p4c98955a50)" style="fill: none; stroke: #000000; stroke-width: 2; stroke-linecap: round"/>
   </g>
   <g id="line2d_14">
    <path d="M 230.929531 170.017656 
L 223.902841 176.040534 
" clip-path="url(#p4c98955a50)" style="fill: none; stroke: #000000; stroke-width: 2; stroke-linecap: round"/>
   </g>
   <g id="patch_12">
    <path d="M 226.24569 178.773858 
L 217.069531 181.897656 
L 221.559992 173.30721 
z
" clip-path="url(#p4c98955a50)"/>
   </g>
   <g id="line2d_15">
    <path d="M 185.869531 87.697656 
L 185.869531 78.697656 
L 176.869531 75.697656 
L 194.869531 69.697656 
L 176.869531 63.697656 
L 194.869531 57.697656 
L 176.869531 51.697656 
L 194.869531 45.697656 
L 185.869531 42.697656 
L 185.869531 33.697656 
" clip-path="url(#p4c98955a50)" style="fill: none; stroke: #000000; stroke-width: 2; stroke-linecap: round"/>
   </g>
   <g id="line2d_16">
    <path d="M 185.869531 33.697656 
L 193.069531 33.697656 
L 200.269531 33.697656 
" clip-path="url(#p4c98955a50)" style="fill: none; stroke: #000000; stroke-width: 2; stroke-linecap: round"/>
   </g>
   <g id="line2d_17">
    <path d="M 200.269531 33.697656 
L 200.269531 19.297656 
" clip-path="url(#p4c98955a50)" style="fill: none; stroke: #000000; stroke-width: 2; stroke-linecap: round"/>
   </g>
   <g id="line2d_18">
    <path d="M 200.269531 19.297656 
L 193.519531 19.297656 
" clip-path="url(#p4c98955a50)" style="fill: none; stroke: #000000; stroke-width: 2; stroke-linecap: round"/>
   </g>
   <g id="line2d_19">
    <path d="M 200.269531 19.297656 
L 207.019531 19.297656 
" clip-path="url(#p4c98955a50)" style="fill: none; stroke: #000000; stroke-width: 2; stroke-linecap: round"/>
   </g>
   <g id="line2d_20">
    <path d="M 200.269531 33.697656 
L 215.599531 33.697656 
L 230.929531 33.697656 
" clip-path="url(#p4c98955a50)" style="fill: none; stroke: #000000; stroke-width: 2; stroke-linecap: round"/>
   </g>
   <g id="line2d_21">
    <path d="M 230.929531 33.697656 
L 230.929531 48.157656 
L 230.929531 62.617656 
" clip-path="url(#p4c98955a50)" style="fill: none; stroke: #000000; stroke-width: 2; stroke-linecap: round"/>
   </g>
   <g id="line2d_22">
    <path d="M 185.869531 188.497656 
L 185.869531 197.497656 
L 194.869531 200.497656 
L 176.869531 206.497656 
L 194.869531 212.497656 
L 176.869531 218.497656 
L 194.869531 224.497656 
L 176.869531 230.497656 
L 185.869531 233.497656 
L 185.869531 242.497656 
" clip-path="url(#p4c98955a50)" style="fill: none; stroke: #000000; stroke-width: 2; stroke-linecap: round"/>
   </g>
   <g id="line2d_23">
    <path d="M 185.869531 242.497656 
L 193.069531 242.497656 
L 200.269531 242.497656 
" clip-path="url(#p4c98955a50)" style="fill: none; stroke: #000000; stroke-width: 2; stroke-linecap: round"/>
   </g>
   <g id="line2d_24">
    <path d="M 200.269531 242.497656 
L 200.269531 256.897656 
" clip-path="url(#p4c98955a50)" style="fill: none; stroke: #000000; stroke-width: 2; stroke-linecap: round"/>
   </g>
   <g id="line2d_25">
    <path d="M 200.269531 256.897656 
L 193.519531 256.897656 
" clip-path="url(#p4c98955a50)" style="fill: none; stroke: #000000; stroke-width: 2; stroke-linecap: round"/>
   </g>
   <g id="line2d_26">
    <path d="M 200.269531 256.897656 
L 207.019531 256.897656 
" clip-path="url(#p4c98955a50)" style="fill: none; stroke: #000000; stroke-width: 2; stroke-linecap: round"/>
   </g>
   <g id="line2d_27">
    <path d="M 200.269531 242.497656 
L 215.599531 242.497656 
L 230.929531 242.497656 
" clip-path="url(#p4c98955a50)" style="fill: none; stroke: #000000; stroke-width: 2; stroke-linecap: round"/>
   </g>
   <g id="line2d_28">
    <path d="M 230.929531 242.497656 
L 230.929531 228.037656 
L 230.929531 213.577656 
" clip-path="url(#p4c98955a50)" style="fill: none; stroke: #000000; stroke-width: 2; stroke-linecap: round"/>
   </g>
   <g id="line2d_29">
    <path d="M 185.869531 130.897656 
L 158.869531 130.897656 
L 131.869531 130.897656 
" clip-path="url(#p4c98955a50)" style="fill: none; stroke: #000000; stroke-width: 2; stroke-linecap: round"/>
   </g>
   <g id="line2d_30">
    <path d="M 230.929531 112.777656 
L 230.929531 127.177656 
L 230.929531 141.577656 
" clip-path="url(#p4c98955a50)" style="fill: none; stroke: #000000; stroke-width: 2; stroke-linecap: round"/>
   </g>
   <g id="line2d_31">
    <path d="M 230.929531 141.577656 
L 230.929531 152.497656 
L 230.929531 163.417656 
" clip-path="url(#p4c98955a50)" style="fill: none; stroke: #000000; stroke-width: 2; stroke-linecap: round"/>
   </g>
   <g id="line2d_32">
    <path d="M 230.929531 141.577656 
L 257.929531 141.577656 
L 284.929531 141.577656 
" clip-path="url(#p4c98955a50)" style="fill: none; stroke: #000000; stroke-width: 2; stroke-linecap: round"/>
   </g>
   <g id="line2d_33">
    <path d="M 284.929531 141.577656 
L 284.929531 150.577656 
L 293.929531 153.577656 
L 275.929531 159.577656 
L 293.929531 165.577656 
L 275.929531 171.577656 
L 293.929531 177.577656 
L 275.929531 183.577656 
L 284.929531 186.577656 
L 284.929531 195.577656 
" clip-path="url(#p4c98955a50)" style="fill: none; stroke: #000000; stroke-width: 2; stroke-linecap: round"/>
   </g>
   <g id="line2d_34">
    <path d="M 284.929531 195.577656 
L 284.929531 209.977656 
L 275.929531 209.977656 
L 293.929531 209.977656 
M 278.629531 214.297656 
L 291.229531 214.297656 
M 283.129531 218.617656 
L 286.729531 218.617656 
" clip-path="url(#p4c98955a50)" style="fill: none; stroke: #000000; stroke-width: 2; stroke-linecap: round"/>
   </g>
   <g id="line2d_35">
    <path d="M 284.929531 141.577656 
L 293.929531 141.577656 
L 302.929531 141.577656 
" clip-path="url(#p4c98955a50)" style="fill: none; stroke: #000000; stroke-width: 2; stroke-linecap: round"/>
   </g>
   <g id="text_1">
    <!-- $R_1$ -->
    <g transform="translate(158.644531 64.146875) scale(0.125 -0.125)">
     <defs>
      <path id="DejaVuSans-Oblique-52" d="M 1613 4147 
L 1294 2491 
L 2106 2491 
Q 2584 2491 2879 2755 
Q 3175 3019 3175 3444 
Q 3175 3784 2976 3965 
Q 2778 4147 2406 4147 
L 1613 4147 
z
M 2772 2241 
Q 2972 2194 3105 2009 
Q 3238 1825 3413 1275 
L 3809 0 
L 3144 0 
L 2778 1197 
Q 2638 1659 2453 1815 
Q 2269 1972 1888 1972 
L 1191 1972 
L 806 0 
L 172 0 
L 1081 4666 
L 2503 4666 
Q 3150 4666 3495 4373 
Q 3841 4081 3841 3531 
Q 3841 3044 3547 2687 
Q 3253 2331 2772 2241 
z
" transform="scale(0.015625)"/>
      <path id="DejaVuSans-31" d="M 794 531 
L 1825 531 
L 1825 4091 
L 703 3866 
L 703 4441 
L 1819 4666 
L 2450 4666 
L 2450 531 
L 3481 531 
L 3481 0 
L 794 0 
L 794 531 
z
" transform="scale(0.015625)"/>
     </defs>
     <use xlink:href="#DejaVuSans-Oblique-52" transform="translate(0 0.09375)"/>
     <use xlink:href="#DejaVuSans-31" transform="translate(69.482422 -16.3125) scale(0.7)"/>
    </g>
   </g>
   <g id="text_2">
    <!-- $V_{DD}$ -->
    <g transform="translate(189.082031 13.098047) scale(0.125 -0.125)">
     <defs>
      <path id="DejaVuSans-Oblique-56" d="M 1319 0 
L 500 4666 
L 1119 4666 
L 1797 653 
L 4063 4666 
L 4750 4666 
L 2053 0 
L 1319 0 
z
" transform="scale(0.015625)"/>
      <path id="DejaVuSans-Oblique-44" d="M 1081 4666 
L 2438 4666 
Q 3519 4666 4070 4208 
Q 4622 3750 4622 2847 
Q 4622 2250 4412 1698 
Q 4203 1147 3834 769 
Q 3463 381 2891 190 
Q 2319 0 1538 0 
L 172 0 
L 1081 4666 
z
M 1613 4147 
L 909 519 
L 1734 519 
Q 2794 519 3375 1128 
Q 3956 1738 3956 2847 
Q 3956 3519 3581 3833 
Q 3206 4147 2406 4147 
L 1613 4147 
z
" transform="scale(0.015625)"/>
     </defs>
     <use xlink:href="#DejaVuSans-Oblique-56" transform="translate(0 0.09375)"/>
     <use xlink:href="#DejaVuSans-Oblique-44" transform="translate(68.408203 -16.3125) scale(0.7)"/>
     <use xlink:href="#DejaVuSans-Oblique-44" transform="translate(122.30957 -16.3125) scale(0.7)"/>
    </g>
   </g>
   <g id="text_3">
    <!-- $R_2$ -->
    <g transform="translate(158.644531 218.946875) scale(0.125 -0.125)">
     <defs>
      <path id="DejaVuSans-32" d="M 1228 531 
L 3431 531 
L 3431 0 
L 469 0 
L 469 531 
Q 828 903 1448 1529 
Q 2069 2156 2228 2338 
Q 2531 2678 2651 2914 
Q 2772 3150 2772 3378 
Q 2772 3750 2511 3984 
Q 2250 4219 1831 4219 
Q 1534 4219 1204 4116 
Q 875 4013 500 3803 
L 500 4441 
Q 881 4594 1212 4672 
Q 1544 4750 1819 4750 
Q 2544 4750 2975 4387 
Q 3406 4025 3406 3419 
Q 3406 3131 3298 2873 
Q 3191 2616 2906 2266 
Q 2828 2175 2409 1742 
Q 1991 1309 1228 531 
z
" transform="scale(0.015625)"/>
     </defs>
     <use xlink:href="#DejaVuSans-Oblique-52" transform="translate(0 0.09375)"/>
     <use xlink:href="#DejaVuSans-32" transform="translate(69.482422 -16.3125) scale(0.7)"/>
    </g>
   </g>
   <g id="text_4">
    <!-- -$V_{DD}$ -->
    <g transform="translate(186.769531 269.995703) scale(0.125 -0.125)">
     <defs>
      <path id="DejaVuSans-2d" d="M 313 2009 
L 1997 2009 
L 1997 1497 
L 313 1497 
L 313 2009 
z
" transform="scale(0.015625)"/>
     </defs>
     <use xlink:href="#DejaVuSans-2d" transform="translate(0 0.09375)"/>
     <use xlink:href="#DejaVuSans-Oblique-56" transform="translate(36.083984 0.09375)"/>
     <use xlink:href="#DejaVuSans-Oblique-44" transform="translate(104.492188 -16.3125) scale(0.7)"/>
     <use xlink:href="#DejaVuSans-Oblique-44" transform="translate(158.393555 -16.3125) scale(0.7)"/>
    </g>
   </g>
   <g id="text_5">
    <!-- $R_L$ -->
    <g transform="translate(258.329531 172.026875) scale(0.125 -0.125)">
     <defs>
      <path id="DejaVuSans-Oblique-4c" d="M 1075 4666 
L 1709 4666 
L 909 525 
L 3181 525 
L 3078 0 
L 172 0 
L 1075 4666 
z
" transform="scale(0.015625)"/>
     </defs>
     <use xlink:href="#DejaVuSans-Oblique-52" transform="translate(0 0.09375)"/>
     <use xlink:href="#DejaVuSans-Oblique-4c" transform="translate(69.482422 -16.3125) scale(0.7)"/>
    </g>
   </g>
   <g id="text_6">
    <!-- Voorinstelspanning -->
    <g style="fill: #ff0000" transform="translate(3.6 166.746875) scale(0.125 -0.125)">
     <defs>
      <path id="DejaVuSans-56" d="M 1831 0 
L 50 4666 
L 709 4666 
L 2188 738 
L 3669 4666 
L 4325 4666 
L 2547 0 
L 1831 0 
z
" transform="scale(0.015625)"/>
      <path id="DejaVuSans-6f" d="M 1959 3097 
Q 1497 3097 1228 2736 
Q 959 2375 959 1747 
Q 959 1119 1226 758 
Q 1494 397 1959 397 
Q 2419 397 2687 759 
Q 2956 1122 2956 1747 
Q 2956 2369 2687 2733 
Q 2419 3097 1959 3097 
z
M 1959 3584 
Q 2709 3584 3137 3096 
Q 3566 2609 3566 1747 
Q 3566 888 3137 398 
Q 2709 -91 1959 -91 
Q 1206 -91 779 398 
Q 353 888 353 1747 
Q 353 2609 779 3096 
Q 1206 3584 1959 3584 
z
" transform="scale(0.015625)"/>
      <path id="DejaVuSans-72" d="M 2631 2963 
Q 2534 3019 2420 3045 
Q 2306 3072 2169 3072 
Q 1681 3072 1420 2755 
Q 1159 2438 1159 1844 
L 1159 0 
L 581 0 
L 581 3500 
L 1159 3500 
L 1159 2956 
Q 1341 3275 1631 3429 
Q 1922 3584 2338 3584 
Q 2397 3584 2469 3576 
Q 2541 3569 2628 3553 
L 2631 2963 
z
" transform="scale(0.015625)"/>
      <path id="DejaVuSans-69" d="M 603 3500 
L 1178 3500 
L 1178 0 
L 603 0 
L 603 3500 
z
M 603 4863 
L 1178 4863 
L 1178 4134 
L 603 4134 
L 603 4863 
z
" transform="scale(0.015625)"/>
      <path id="DejaVuSans-6e" d="M 3513 2113 
L 3513 0 
L 2938 0 
L 2938 2094 
Q 2938 2591 2744 2837 
Q 2550 3084 2163 3084 
Q 1697 3084 1428 2787 
Q 1159 2491 1159 1978 
L 1159 0 
L 581 0 
L 581 3500 
L 1159 3500 
L 1159 2956 
Q 1366 3272 1645 3428 
Q 1925 3584 2291 3584 
Q 2894 3584 3203 3211 
Q 3513 2838 3513 2113 
z
" transform="scale(0.015625)"/>
      <path id="DejaVuSans-73" d="M 2834 3397 
L 2834 2853 
Q 2591 2978 2328 3040 
Q 2066 3103 1784 3103 
Q 1356 3103 1142 2972 
Q 928 2841 928 2578 
Q 928 2378 1081 2264 
Q 1234 2150 1697 2047 
L 1894 2003 
Q 2506 1872 2764 1633 
Q 3022 1394 3022 966 
Q 3022 478 2636 193 
Q 2250 -91 1575 -91 
Q 1294 -91 989 -36 
Q 684 19 347 128 
L 347 722 
Q 666 556 975 473 
Q 1284 391 1588 391 
Q 1994 391 2212 530 
Q 2431 669 2431 922 
Q 2431 1156 2273 1281 
Q 2116 1406 1581 1522 
L 1381 1569 
Q 847 1681 609 1914 
Q 372 2147 372 2553 
Q 372 3047 722 3315 
Q 1072 3584 1716 3584 
Q 2034 3584 2315 3537 
Q 2597 3491 2834 3397 
z
" transform="scale(0.015625)"/>
      <path id="DejaVuSans-74" d="M 1172 4494 
L 1172 3500 
L 2356 3500 
L 2356 3053 
L 1172 3053 
L 1172 1153 
Q 1172 725 1289 603 
Q 1406 481 1766 481 
L 2356 481 
L 2356 0 
L 1766 0 
Q 1100 0 847 248 
Q 594 497 594 1153 
L 594 3053 
L 172 3053 
L 172 3500 
L 594 3500 
L 594 4494 
L 1172 4494 
z
" transform="scale(0.015625)"/>
      <path id="DejaVuSans-65" d="M 3597 1894 
L 3597 1613 
L 953 1613 
Q 991 1019 1311 708 
Q 1631 397 2203 397 
Q 2534 397 2845 478 
Q 3156 559 3463 722 
L 3463 178 
Q 3153 47 2828 -22 
Q 2503 -91 2169 -91 
Q 1331 -91 842 396 
Q 353 884 353 1716 
Q 353 2575 817 3079 
Q 1281 3584 2069 3584 
Q 2775 3584 3186 3129 
Q 3597 2675 3597 1894 
z
M 3022 2063 
Q 3016 2534 2758 2815 
Q 2500 3097 2075 3097 
Q 1594 3097 1305 2825 
Q 1016 2553 972 2059 
L 3022 2063 
z
" transform="scale(0.015625)"/>
      <path id="DejaVuSans-6c" d="M 603 4863 
L 1178 4863 
L 1178 0 
L 603 0 
L 603 4863 
z
" transform="scale(0.015625)"/>
      <path id="DejaVuSans-70" d="M 1159 525 
L 1159 -1331 
L 581 -1331 
L 581 3500 
L 1159 3500 
L 1159 2969 
Q 1341 3281 1617 3432 
Q 1894 3584 2278 3584 
Q 2916 3584 3314 3078 
Q 3713 2572 3713 1747 
Q 3713 922 3314 415 
Q 2916 -91 2278 -91 
Q 1894 -91 1617 61 
Q 1341 213 1159 525 
z
M 3116 1747 
Q 3116 2381 2855 2742 
Q 2594 3103 2138 3103 
Q 1681 3103 1420 2742 
Q 1159 2381 1159 1747 
Q 1159 1113 1420 752 
Q 1681 391 2138 391 
Q 2594 391 2855 752 
Q 3116 1113 3116 1747 
z
" transform="scale(0.015625)"/>
      <path id="DejaVuSans-61" d="M 2194 1759 
Q 1497 1759 1228 1600 
Q 959 1441 959 1056 
Q 959 750 1161 570 
Q 1363 391 1709 391 
Q 2188 391 2477 730 
Q 2766 1069 2766 1631 
L 2766 1759 
L 2194 1759 
z
M 3341 1997 
L 3341 0 
L 2766 0 
L 2766 531 
Q 2569 213 2275 61 
Q 1981 -91 1556 -91 
Q 1019 -91 701 211 
Q 384 513 384 1019 
Q 384 1609 779 1909 
Q 1175 2209 1959 2209 
L 2766 2209 
L 2766 2266 
Q 2766 2663 2505 2880 
Q 2244 3097 1772 3097 
Q 1472 3097 1187 3025 
Q 903 2953 641 2809 
L 641 3341 
Q 956 3463 1253 3523 
Q 1550 3584 1831 3584 
Q 2591 3584 2966 3190 
Q 3341 2797 3341 1997 
z
" transform="scale(0.015625)"/>
      <path id="DejaVuSans-67" d="M 2906 1791 
Q 2906 2416 2648 2759 
Q 2391 3103 1925 3103 
Q 1463 3103 1205 2759 
Q 947 2416 947 1791 
Q 947 1169 1205 825 
Q 1463 481 1925 481 
Q 2391 481 2648 825 
Q 2906 1169 2906 1791 
z
M 3481 434 
Q 3481 -459 3084 -895 
Q 2688 -1331 1869 -1331 
Q 1566 -1331 1297 -1286 
Q 1028 -1241 775 -1147 
L 775 -588 
Q 1028 -725 1275 -790 
Q 1522 -856 1778 -856 
Q 2344 -856 2625 -561 
Q 2906 -266 2906 331 
L 2906 616 
Q 2728 306 2450 153 
Q 2172 0 1784 0 
Q 1141 0 747 490 
Q 353 981 353 1791 
Q 353 2603 747 3093 
Q 1141 3584 1784 3584 
Q 2172 3584 2450 3431 
Q 2728 3278 2906 2969 
L 2906 3500 
L 3481 3500 
L 3481 434 
z
" transform="scale(0.015625)"/>
     </defs>
     <use xlink:href="#DejaVuSans-56"/>
     <use xlink:href="#DejaVuSans-6f" x="60.658203"/>
     <use xlink:href="#DejaVuSans-6f" x="121.839844"/>
     <use xlink:href="#DejaVuSans-72" x="183.021484"/>
     <use xlink:href="#DejaVuSans-69" x="224.134766"/>
     <use xlink:href="#DejaVuSans-6e" x="251.917969"/>
     <use xlink:href="#DejaVuSans-73" x="315.296875"/>
     <use xlink:href="#DejaVuSans-74" x="367.396484"/>
     <use xlink:href="#DejaVuSans-65" x="406.605469"/>
     <use xlink:href="#DejaVuSans-6c" x="468.128906"/>
     <use xlink:href="#DejaVuSans-73" x="495.912109"/>
     <use xlink:href="#DejaVuSans-70" x="548.011719"/>
     <use xlink:href="#DejaVuSans-61" x="611.488281"/>
     <use xlink:href="#DejaVuSans-6e" x="672.767578"/>
     <use xlink:href="#DejaVuSans-6e" x="736.146484"/>
     <use xlink:href="#DejaVuSans-69" x="799.525391"/>
     <use xlink:href="#DejaVuSans-6e" x="827.308594"/>
     <use xlink:href="#DejaVuSans-67" x="890.6875"/>
    </g>
   </g>
   <g id="patch_13">
    <path d="M 185.869531 90.397656 
C 186.58558 90.397656 187.272397 90.113167 187.77872 89.606845 
C 188.285042 89.100522 188.569531 88.413705 188.569531 87.697656 
C 188.569531 86.981608 188.285042 86.294791 187.77872 85.788468 
C 187.272397 85.282145 186.58558 84.997656 185.869531 84.997656 
C 185.153483 84.997656 184.466666 85.282145 183.960343 85.788468 
C 183.45402 86.294791 183.169531 86.981608 183.169531 87.697656 
C 183.169531 88.413705 183.45402 89.100522 183.960343 89.606845 
C 184.466666 90.113167 185.153483 90.397656 185.869531 90.397656 
z
" clip-path="url(#p4c98955a50)" style="stroke: #000000; stroke-width: 2; stroke-linejoin: miter"/>
   </g>
   <g id="patch_14">
    <path d="M 185.869531 133.597656 
C 186.58558 133.597656 187.272397 133.313167 187.77872 132.806845 
C 188.285042 132.300522 188.569531 131.613705 188.569531 130.897656 
C 188.569531 130.181608 188.285042 129.494791 187.77872 128.988468 
C 187.272397 128.482145 186.58558 128.197656 185.869531 128.197656 
C 185.153483 128.197656 184.466666 128.482145 183.960343 128.988468 
C 183.45402 129.494791 183.169531 130.181608 183.169531 130.897656 
C 183.169531 131.613705 183.45402 132.300522 183.960343 132.806845 
C 184.466666 133.313167 185.153483 133.597656 185.869531 133.597656 
z
" clip-path="url(#p4c98955a50)" style="stroke: #000000; stroke-width: 2; stroke-linejoin: miter"/>
   </g>
   <g id="patch_15">
    <path d="M 185.869531 191.197656 
C 186.58558 191.197656 187.272397 190.913167 187.77872 190.406845 
C 188.285042 189.900522 188.569531 189.213705 188.569531 188.497656 
C 188.569531 187.781608 188.285042 187.094791 187.77872 186.588468 
C 187.272397 186.082145 186.58558 185.797656 185.869531 185.797656 
C 185.153483 185.797656 184.466666 186.082145 183.960343 186.588468 
C 183.45402 187.094791 183.169531 187.781608 183.169531 188.497656 
C 183.169531 189.213705 183.45402 189.900522 183.960343 190.406845 
C 184.466666 190.913167 185.153483 191.197656 185.869531 191.197656 
z
" clip-path="url(#p4c98955a50)" style="stroke: #000000; stroke-width: 2; stroke-linejoin: miter"/>
   </g>
   <g id="patch_16">
    <path d="M 131.869531 133.597656 
C 132.58558 133.597656 133.272397 133.313167 133.77872 132.806845 
C 134.285042 132.300522 134.569531 131.613705 134.569531 130.897656 
C 134.569531 130.181608 134.285042 129.494791 133.77872 128.988468 
C 133.272397 128.482145 132.58558 128.197656 131.869531 128.197656 
C 131.153483 128.197656 130.466666 128.482145 129.960343 128.988468 
C 129.45402 129.494791 129.169531 130.181608 129.169531 130.897656 
C 129.169531 131.613705 129.45402 132.300522 129.960343 132.806845 
C 130.466666 133.313167 131.153483 133.597656 131.869531 133.597656 
z
" clip-path="url(#p4c98955a50)" style="fill: #ffffff; stroke: #000000; stroke-width: 2; stroke-linejoin: miter"/>
   </g>
   <g id="text_7">
    <!-- $V_{in}$ -->
    <g transform="translate(91.032031 139.998047) scale(0.125 -0.125)">
     <defs>
      <path id="DejaVuSans-Oblique-69" d="M 1172 4863 
L 1747 4863 
L 1606 4134 
L 1031 4134 
L 1172 4863 
z
M 909 3500 
L 1484 3500 
L 800 0 
L 225 0 
L 909 3500 
z
" transform="scale(0.015625)"/>
      <path id="DejaVuSans-Oblique-6e" d="M 3566 2113 
L 3156 0 
L 2578 0 
L 2988 2091 
Q 3016 2238 3031 2350 
Q 3047 2463 3047 2528 
Q 3047 2791 2881 2937 
Q 2716 3084 2419 3084 
Q 1956 3084 1622 2776 
Q 1288 2469 1184 1941 
L 800 0 
L 225 0 
L 903 3500 
L 1478 3500 
L 1363 2950 
Q 1603 3253 1940 3418 
Q 2278 3584 2650 3584 
Q 3113 3584 3367 3334 
Q 3622 3084 3622 2631 
Q 3622 2519 3608 2391 
Q 3594 2263 3566 2113 
z
" transform="scale(0.015625)"/>
     </defs>
     <use xlink:href="#DejaVuSans-Oblique-56" transform="translate(0 0.09375)"/>
     <use xlink:href="#DejaVuSans-Oblique-69" transform="translate(68.408203 -16.3125) scale(0.7)"/>
     <use xlink:href="#DejaVuSans-Oblique-6e" transform="translate(87.856445 -16.3125) scale(0.7)"/>
    </g>
   </g>
   <g id="patch_17">
    <path d="M 230.929531 144.277656 
C 231.64558 144.277656 232.332397 143.993167 232.83872 143.486845 
C 233.345042 142.980522 233.629531 142.293705 233.629531 141.577656 
C 233.629531 140.861608 233.345042 140.174791 232.83872 139.668468 
C 232.332397 139.162145 231.64558 138.877656 230.929531 138.877656 
C 230.213483 138.877656 229.526666 139.162145 229.020343 139.668468 
C 228.51402 140.174791 228.229531 140.861608 228.229531 141.577656 
C 228.229531 142.293705 228.51402 142.980522 229.020343 143.486845 
C 229.526666 143.993167 230.213483 144.277656 230.929531 144.277656 
z
" clip-path="url(#p4c98955a50)" style="stroke: #000000; stroke-width: 2; stroke-linejoin: miter"/>
   </g>
   <g id="patch_18">
    <path d="M 302.929531 144.277656 
C 303.64558 144.277656 304.332397 143.993167 304.83872 143.486845 
C 305.345042 142.980522 305.629531 142.293705 305.629531 141.577656 
C 305.629531 140.861608 305.345042 140.174791 304.83872 139.668468 
C 304.332397 139.162145 303.64558 138.877656 302.929531 138.877656 
C 302.213483 138.877656 301.526666 139.162145 301.020343 139.668468 
C 300.51402 140.174791 300.229531 140.861608 300.229531 141.577656 
C 300.229531 142.293705 300.51402 142.980522 301.020343 143.486845 
C 301.526666 143.993167 302.213483 144.277656 302.929531 144.277656 
z
" clip-path="url(#p4c98955a50)" style="fill: #ffffff; stroke: #000000; stroke-width: 2; stroke-linejoin: miter"/>
   </g>
   <g id="text_8">
    <!-- $v_{out}$ -->
    <g transform="translate(291.867031 132.678047) scale(0.125 -0.125)">
     <defs>
      <path id="DejaVuSans-Oblique-76" d="M 459 3500 
L 1069 3500 
L 1581 525 
L 3256 3500 
L 3866 3500 
L 1875 0 
L 1100 0 
L 459 3500 
z
" transform="scale(0.015625)"/>
      <path id="DejaVuSans-Oblique-6f" d="M 1625 -91 
Q 1009 -91 651 289 
Q 294 669 294 1325 
Q 294 1706 417 2101 
Q 541 2497 738 2766 
Q 1047 3184 1428 3384 
Q 1809 3584 2291 3584 
Q 2888 3584 3255 3212 
Q 3622 2841 3622 2241 
Q 3622 1825 3500 1412 
Q 3378 1000 3181 728 
Q 2875 309 2494 109 
Q 2113 -91 1625 -91 
z
M 891 1344 
Q 891 869 1089 633 
Q 1288 397 1691 397 
Q 2269 397 2648 901 
Q 3028 1406 3028 2181 
Q 3028 2634 2825 2865 
Q 2622 3097 2228 3097 
Q 1903 3097 1650 2945 
Q 1397 2794 1197 2484 
Q 1050 2253 970 1956 
Q 891 1659 891 1344 
z
" transform="scale(0.015625)"/>
      <path id="DejaVuSans-Oblique-75" d="M 428 1388 
L 838 3500 
L 1416 3500 
L 1006 1409 
Q 975 1256 961 1147 
Q 947 1038 947 966 
Q 947 700 1109 554 
Q 1272 409 1569 409 
Q 2031 409 2368 721 
Q 2706 1034 2809 1563 
L 3194 3500 
L 3769 3500 
L 3091 0 
L 2516 0 
L 2631 550 
Q 2388 244 2052 76 
Q 1716 -91 1338 -91 
Q 878 -91 622 161 
Q 366 413 366 863 
Q 366 956 381 1097 
Q 397 1238 428 1388 
z
" transform="scale(0.015625)"/>
      <path id="DejaVuSans-Oblique-74" d="M 2706 3500 
L 2619 3053 
L 1472 3053 
L 1100 1153 
Q 1081 1047 1072 975 
Q 1063 903 1063 863 
Q 1063 663 1183 572 
Q 1303 481 1569 481 
L 2150 481 
L 2053 0 
L 1503 0 
Q 991 0 739 200 
Q 488 400 488 806 
Q 488 878 497 964 
Q 506 1050 525 1153 
L 897 3053 
L 409 3053 
L 500 3500 
L 978 3500 
L 1172 4494 
L 1747 4494 
L 1556 3500 
L 2706 3500 
z
" transform="scale(0.015625)"/>
     </defs>
     <use xlink:href="#DejaVuSans-Oblique-76" transform="translate(0 0.3125)"/>
     <use xlink:href="#DejaVuSans-Oblique-6f" transform="translate(59.179688 -16.09375) scale(0.7)"/>
     <use xlink:href="#DejaVuSans-Oblique-75" transform="translate(102.006836 -16.09375) scale(0.7)"/>
     <use xlink:href="#DejaVuSans-Oblique-74" transform="translate(146.37207 -16.09375) scale(0.7)"/>
    </g>
   </g>
  </g>
 </g>
 <defs>
  <clipPath id="p4c98955a50">
   <rect x="117.511531" y="7.417656" width="197.076" height="261.36"/>
  </clipPath>
 </defs>
</svg>