<?xml version="1.0" encoding="utf-8" standalone="no"?>
<!DOCTYPE svg PUBLIC "-//W3C//DTD SVG 1.1//EN"
  "http://www.w3.org/Graphics/SVG/1.1/DTD/svg11.dtd">
<svg xmlns:xlink="http://www.w3.org/1999/xlink" width="221.106pt" height="150.220656pt" viewBox="0 0 221.106 150.220656" xmlns="http://www.w3.org/2000/svg" version="1.1">
 <metadata>
  <rdf:RDF xmlns:dc="http://purl.org/dc/elements/1.1/" xmlns:cc="http://creativecommons.org/ns#" xmlns:rdf="http://www.w3.org/1999/02/22-rdf-syntax-ns#">
   <cc:Work>
    <dc:type rdf:resource="http://purl.org/dc/dcmitype/StillImage"/>
    <dc:date>2024-01-21T11:54:52.267124</dc:date>
    <dc:format>image/svg+xml</dc:format>
    <dc:creator>
     <cc:Agent>
      <dc:title>Matplotlib v3.8.2, https://matplotlib.org/</dc:title>
     </cc:Agent>
    </dc:creator>
   </cc:Work>
  </rdf:RDF>
 </metadata>
 <defs>
  <style type="text/css">*{stroke-linejoin: round; stroke-linecap: butt}</style>
 </defs>
 <g id="figure_1">
  <g id="patch_1">
   <path d="M 0 150.220656 
L 221.106 150.220656 
L 221.106 0 
L 0 0 
z
" style="fill: #ffffff"/>
  </g>
  <g id="axes_1">
   <g id="patch_2">
    <path d="M 75.423 127.177656 
L 75.594352 127.176297 
L 75.765662 127.172219 
L 75.936885 127.165424 
L 76.107978 127.155912 
L 76.2789 127.143688 
L 76.449605 127.128753 
L 76.620053 127.111112 
L 76.790198 127.090768 
L 76.96 127.067728 
L 77.129415 127.041996 
L 77.2984 127.01358 
L 77.466913 126.982486 
L 77.634912 126.948723 
L 77.802354 126.912298 
L 77.969197 126.873221 
L 78.135398 126.831502 
L 78.300917 126.787152 
L 78.465712 126.74018 
L 78.62974 126.6906 
L 78.792961 126.638424 
L 78.955334 126.583665 
L 79.116818 126.526337 
L 79.277371 126.466453 
L 79.436955 126.40403 
L 79.595527 126.339083 
L 79.75305 126.271628 
L 79.909482 126.201682 
L 80.064785 126.129263 
L 80.218919 126.054389 
L 80.371846 125.977079 
L 80.523528 125.897353 
L 80.673925 125.81523 
L 80.823 125.730731 
L 80.970716 125.643877 
L 81.117035 125.554691 
L 81.261921 125.463194 
L 81.405337 125.369411 
L 81.547247 125.273363 
L 81.687615 125.175077 
L 81.826406 125.074575 
L 81.963585 124.971884 
L 82.099117 124.86703 
L 82.232969 124.760038 
L 82.365106 124.650936 
L 82.495496 124.539752 
L 82.624105 124.426512 
L 82.750902 124.311247 
L 82.875853 124.193984 
L 82.998929 124.074753 
L 83.120097 123.953585 
L 83.239328 123.83051 
L 83.35659 123.705558 
L 83.471856 123.578761 
L 83.585095 123.450152 
L 83.69628 123.319762 
L 83.805382 123.187625 
L 83.912373 123.053773 
L 84.017228 122.918241 
L 84.119919 122.781062 
L 84.22042 122.642271 
L 84.318707 122.501903 
L 84.414754 122.359993 
L 84.508538 122.216577 
L 84.600035 122.071691 
L 84.689221 121.925372 
L 84.776074 121.777656 
L 84.860573 121.628581 
L 84.942696 121.478184 
L 85.022423 121.326503 
L 85.099733 121.173576 
L 85.174607 121.019441 
L 85.247026 120.864138 
L 85.316971 120.707706 
L 85.384426 120.550184 
L 85.449374 120.391611 
L 85.511797 120.232027 
L 85.57168 120.071474 
L 85.629009 119.90999 
L 85.683768 119.747617 
L 85.735944 119.584396 
L 85.785524 119.420368 
L 85.832495 119.255573 
L 85.876846 119.090055 
L 85.918565 118.923853 
L 85.957642 118.75701 
L 85.994066 118.589568 
L 86.02783 118.42157 
L 86.058924 118.253057 
L 86.08734 118.084071 
L 86.113072 117.914657 
L 86.136112 117.744855 
L 86.156455 117.574709 
L 86.174097 117.404262 
L 86.189032 117.233556 
L 86.201256 117.062635 
L 86.210767 116.891541 
L 86.217563 116.720318 
L 86.221641 116.549009 
L 86.223 116.377656 
L 86.223 73.177656 
L 86.221641 73.006304 
L 86.217563 72.834995 
L 86.210767 72.663772 
L 86.201256 72.492678 
L 86.189032 72.321757 
L 86.174097 72.151051 
L 86.156455 71.980604 
L 86.136112 71.810458 
L 86.113072 71.640656 
L 86.08734 71.471241 
L 86.058924 71.302256 
L 86.02783 71.133743 
L 85.994066 70.965744 
L 85.957642 70.798302 
L 85.918565 70.63146 
L 85.876846 70.465258 
L 85.832495 70.299739 
L 85.785524 70.134945 
L 85.735944 69.970916 
L 85.683768 69.807695 
L 85.629009 69.645322 
L 85.57168 69.483839 
L 85.511797 69.323285 
L 85.449374 69.163702 
L 85.384426 69.005129 
L 85.316971 68.847606 
L 85.247026 68.691174 
L 85.174607 68.535871 
L 85.099733 68.381737 
L 85.022423 68.22881 
L 84.942696 68.077129 
L 84.860573 67.926732 
L 84.776074 67.777656 
L 84.689221 67.62994 
L 84.600035 67.483621 
L 84.508538 67.338735 
L 84.414754 67.19532 
L 84.318707 67.05341 
L 84.22042 66.913042 
L 84.119919 66.774251 
L 84.017228 66.637072 
L 83.912373 66.501539 
L 83.805382 66.367687 
L 83.69628 66.23555 
L 83.585095 66.10516 
L 83.471856 65.976551 
L 83.35659 65.849755 
L 83.239328 65.724803 
L 83.120097 65.601727 
L 82.998929 65.480559 
L 82.875853 65.361329 
L 82.750902 65.244066 
L 82.624105 65.1288 
L 82.495496 65.015561 
L 82.365106 64.904376 
L 82.232969 64.795274 
L 82.099117 64.688283 
L 81.963585 64.583428 
L 81.826406 64.480737 
L 81.687615 64.380236 
L 81.547247 64.281949 
L 81.405337 64.185902 
L 81.261921 64.092118 
L 81.117035 64.000622 
L 80.970716 63.911435 
L 80.823 63.824582 
L 80.673925 63.740083 
L 80.523528 63.65796 
L 80.371846 63.578233 
L 80.218919 63.500923 
L 80.064785 63.42605 
L 79.909482 63.353631 
L 79.75305 63.283685 
L 79.595527 63.21623 
L 79.436955 63.151283 
L 79.277371 63.088859 
L 79.116818 63.028976 
L 78.955334 62.971647 
L 78.792961 62.916888 
L 78.62974 62.864712 
L 78.465712 62.815132 
L 78.300917 62.768161 
L 78.135398 62.72381 
L 77.969197 62.682091 
L 77.802354 62.643015 
L 77.634912 62.60659 
L 77.466913 62.572826 
L 77.2984 62.541733 
L 77.129415 62.513316 
L 76.96 62.487585 
L 76.790198 62.464544 
L 76.620053 62.444201 
L 76.449605 62.426559 
L 76.2789 62.411625 
L 76.107978 62.3994 
L 75.936885 62.389889 
L 75.765662 62.383094 
L 75.594352 62.379016 
L 75.423 62.377656 
L 64.623 62.377656 
L 64.451648 62.379016 
L 64.280338 62.383094 
L 64.109115 62.389889 
L 63.938022 62.3994 
L 63.7671 62.411625 
L 63.596395 62.426559 
L 63.425947 62.444201 
L 63.255802 62.464544 
L 63.086 62.487585 
L 62.916585 62.513316 
L 62.7476 62.541733 
L 62.579087 62.572826 
L 62.411088 62.60659 
L 62.243646 62.643015 
L 62.076803 62.682091 
L 61.910602 62.72381 
L 61.745083 62.768161 
L 61.580288 62.815132 
L 61.41626 62.864712 
L 61.253039 62.916888 
L 61.090666 62.971647 
L 60.929182 63.028976 
L 60.768629 63.088859 
L 60.609045 63.151283 
L 60.450473 63.21623 
L 60.29295 63.283685 
L 60.136518 63.353631 
L 59.981215 63.42605 
L 59.827081 63.500923 
L 59.674154 63.578233 
L 59.522472 63.65796 
L 59.372075 63.740083 
L 59.223 63.824582 
L 59.075284 63.911435 
L 58.928965 64.000622 
L 58.784079 64.092118 
L 58.640663 64.185902 
L 58.498753 64.281949 
L 58.358385 64.380236 
L 58.219594 64.480737 
L 58.082415 64.583428 
L 57.946883 64.688283 
L 57.813031 64.795274 
L 57.680894 64.904376 
L 57.550504 65.015561 
L 57.421895 65.1288 
L 57.295098 65.244066 
L 57.170147 65.361329 
L 57.047071 65.480559 
L 56.925903 65.601727 
L 56.806672 65.724803 
L 56.68941 65.849755 
L 56.574144 65.976551 
L 56.460905 66.10516 
L 56.34972 66.23555 
L 56.240618 66.367687 
L 56.133627 66.501539 
L 56.028772 66.637072 
L 55.926081 66.774251 
L 55.82558 66.913042 
L 55.727293 67.05341 
L 55.631246 67.19532 
L 55.537462 67.338735 
L 55.445965 67.483621 
L 55.356779 67.62994 
L 55.269926 67.777656 
L 55.185427 67.926732 
L 55.103304 68.077129 
L 55.023577 68.22881 
L 54.946267 68.381737 
L 54.871393 68.535871 
L 54.798974 68.691174 
L 54.729029 68.847606 
L 54.661574 69.005129 
L 54.596626 69.163702 
L 54.534203 69.323285 
L 54.47432 69.483839 
L 54.416991 69.645322 
L 54.362232 69.807695 
L 54.310056 69.970916 
L 54.260476 70.134945 
L 54.213505 70.299739 
L 54.169154 70.465258 
L 54.127435 70.63146 
L 54.088358 70.798302 
L 54.051934 70.965744 
L 54.01817 71.133743 
L 53.987076 71.302256 
L 53.95866 71.471241 
L 53.932928 71.640656 
L 53.909888 71.810458 
L 53.889545 71.980604 
L 53.871903 72.151051 
L 53.856968 72.321757 
L 53.844744 72.492678 
L 53.835233 72.663772 
L 53.828437 72.834995 
L 53.824359 73.006304 
L 53.823 73.177656 
L 53.823 116.377656 
L 53.824359 116.549009 
L 53.828437 116.720318 
L 53.835233 116.891541 
L 53.844744 117.062635 
L 53.856968 117.233556 
L 53.871903 117.404262 
L 53.889545 117.574709 
L 53.909888 117.744855 
L 53.932928 117.914657 
L 53.95866 118.084071 
L 53.987076 118.253057 
L 54.01817 118.42157 
L 54.051934 118.589568 
L 54.088358 118.75701 
L 54.127435 118.923853 
L 54.169154 119.090055 
L 54.213505 119.255573 
L 54.260476 119.420368 
L 54.310056 119.584396 
L 54.362232 119.747617 
L 54.416991 119.90999 
L 54.47432 120.071474 
L 54.534203 120.232027 
L 54.596626 120.391611 
L 54.661574 120.550184 
L 54.729029 120.707706 
L 54.798974 120.864138 
L 54.871393 121.019441 
L 54.946267 121.173576 
L 55.023577 121.326503 
L 55.103304 121.478184 
L 55.185427 121.628581 
L 55.269926 121.777656 
L 55.356779 121.925372 
L 55.445965 122.071691 
L 55.537462 122.216577 
L 55.631246 122.359993 
L 55.727293 122.501903 
L 55.82558 122.642271 
L 55.926081 122.781062 
L 56.028772 122.918241 
L 56.133627 123.053773 
L 56.240618 123.187625 
L 56.34972 123.319762 
L 56.460905 123.450152 
L 56.574144 123.578761 
L 56.68941 123.705558 
L 56.806672 123.83051 
L 56.925903 123.953585 
L 57.047071 124.074753 
L 57.170147 124.193984 
L 57.295098 124.311247 
L 57.421895 124.426512 
L 57.550504 124.539752 
L 57.680894 124.650936 
L 57.813031 124.760038 
L 57.946883 124.86703 
L 58.082415 124.971884 
L 58.219594 125.074575 
L 58.358385 125.175077 
L 58.498753 125.273363 
L 58.640663 125.369411 
L 58.784079 125.463194 
L 58.928965 125.554691 
L 59.075284 125.643877 
L 59.223 125.730731 
L 59.372075 125.81523 
L 59.522472 125.897353 
L 59.674154 125.977079 
L 59.827081 126.054389 
L 59.981215 126.129263 
L 60.136518 126.201682 
L 60.29295 126.271628 
L 60.450473 126.339083 
L 60.609045 126.40403 
L 60.768629 126.466453 
L 60.929182 126.526337 
L 61.090666 126.583665 
L 61.253039 126.638424 
L 61.41626 126.6906 
L 61.580288 126.74018 
L 61.745083 126.787152 
L 61.910602 126.831502 
L 62.076803 126.873221 
L 62.243646 126.912298 
L 62.411088 126.948723 
L 62.579087 126.982486 
L 62.7476 127.01358 
L 62.916585 127.041996 
L 63.086 127.067728 
L 63.255802 127.090768 
L 63.425947 127.111112 
L 63.596395 127.128753 
L 63.7671 127.143688 
L 63.938022 127.155912 
L 64.109115 127.165424 
L 64.280338 127.172219 
L 64.451648 127.176297 
L 64.623 127.177656 
z
" clip-path="url(#p8e94593647)" style="fill: #00ffff; stroke-dasharray: 1.85,0.8; stroke-dashoffset: 0; stroke: #00ffff; stroke-width: 0.5; stroke-linecap: round"/>
   </g>
   <g id="patch_3">
    <path d="M 174.483 134.257656 
L 174.654352 134.256297 
L 174.825662 134.252219 
L 174.996885 134.245424 
L 175.167978 134.235912 
L 175.3389 134.223688 
L 175.509605 134.208753 
L 175.680053 134.191112 
L 175.850198 134.170768 
L 176.02 134.147728 
L 176.189415 134.121996 
L 176.3584 134.09358 
L 176.526913 134.062486 
L 176.694912 134.028723 
L 176.862354 133.992298 
L 177.029197 133.953221 
L 177.195398 133.911502 
L 177.360917 133.867152 
L 177.525712 133.82018 
L 177.68974 133.7706 
L 177.852961 133.718424 
L 178.015334 133.663665 
L 178.176818 133.606337 
L 178.337371 133.546453 
L 178.496955 133.48403 
L 178.655527 133.419083 
L 178.81305 133.351628 
L 178.969482 133.281682 
L 179.124785 133.209263 
L 179.278919 133.134389 
L 179.431846 133.057079 
L 179.583528 132.977353 
L 179.733925 132.89523 
L 179.883 132.810731 
L 180.030716 132.723877 
L 180.177035 132.634691 
L 180.321921 132.543194 
L 180.465337 132.449411 
L 180.607247 132.353363 
L 180.747615 132.255077 
L 180.886406 132.154575 
L 181.023585 132.051884 
L 181.159117 131.94703 
L 181.292969 131.840038 
L 181.425106 131.730936 
L 181.555496 131.619752 
L 181.684105 131.506512 
L 181.810902 131.391247 
L 181.935853 131.273984 
L 182.058929 131.154753 
L 182.180097 131.033585 
L 182.299328 130.91051 
L 182.41659 130.785558 
L 182.531856 130.658761 
L 182.645095 130.530152 
L 182.75628 130.399762 
L 182.865382 130.267625 
L 182.972373 130.133773 
L 183.077228 129.998241 
L 183.179919 129.861062 
L 183.28042 129.722271 
L 183.378707 129.581903 
L 183.474754 129.439993 
L 183.568538 129.296577 
L 183.660035 129.151691 
L 183.749221 129.005372 
L 183.836074 128.857656 
L 183.920573 128.708581 
L 184.002696 128.558184 
L 184.082423 128.406503 
L 184.159733 128.253576 
L 184.234607 128.099441 
L 184.307026 127.944138 
L 184.376971 127.787706 
L 184.444426 127.630184 
L 184.509374 127.471611 
L 184.571797 127.312027 
L 184.63168 127.151474 
L 184.689009 126.98999 
L 184.743768 126.827617 
L 184.795944 126.664396 
L 184.845524 126.500368 
L 184.892495 126.335573 
L 184.936846 126.170055 
L 184.978565 126.003853 
L 185.017642 125.83701 
L 185.054066 125.669568 
L 185.08783 125.50157 
L 185.118924 125.333057 
L 185.14734 125.164071 
L 185.173072 124.994657 
L 185.196112 124.824855 
L 185.216455 124.654709 
L 185.234097 124.484262 
L 185.249032 124.313556 
L 185.261256 124.142635 
L 185.270767 123.971541 
L 185.277563 123.800318 
L 185.281641 123.629009 
L 185.283 123.457656 
L 185.283 98.257656 
L 185.281641 98.086304 
L 185.277563 97.914995 
L 185.270767 97.743772 
L 185.261256 97.572678 
L 185.249032 97.401757 
L 185.234097 97.231051 
L 185.216455 97.060604 
L 185.196112 96.890458 
L 185.173072 96.720656 
L 185.14734 96.551241 
L 185.118924 96.382256 
L 185.08783 96.213743 
L 185.054066 96.045744 
L 185.017642 95.878302 
L 184.978565 95.71146 
L 184.936846 95.545258 
L 184.892495 95.379739 
L 184.845524 95.214945 
L 184.795944 95.050916 
L 184.743768 94.887695 
L 184.689009 94.725322 
L 184.63168 94.563839 
L 184.571797 94.403285 
L 184.509374 94.243702 
L 184.444426 94.085129 
L 184.376971 93.927606 
L 184.307026 93.771174 
L 184.234607 93.615871 
L 184.159733 93.461737 
L 184.082423 93.30881 
L 184.002696 93.157129 
L 183.920573 93.006732 
L 183.836074 92.857656 
L 183.749221 92.70994 
L 183.660035 92.563621 
L 183.568538 92.418735 
L 183.474754 92.27532 
L 183.378707 92.13341 
L 183.28042 91.993042 
L 183.179919 91.854251 
L 183.077228 91.717072 
L 182.972373 91.581539 
L 182.865382 91.447687 
L 182.75628 91.31555 
L 182.645095 91.18516 
L 182.531856 91.056551 
L 182.41659 90.929755 
L 182.299328 90.804803 
L 182.180097 90.681727 
L 182.058929 90.560559 
L 181.935853 90.441329 
L 181.810902 90.324066 
L 181.684105 90.2088 
L 181.555496 90.095561 
L 181.425106 89.984376 
L 181.292969 89.875274 
L 181.159117 89.768283 
L 181.023585 89.663428 
L 180.886406 89.560737 
L 180.747615 89.460236 
L 180.607247 89.361949 
L 180.465337 89.265902 
L 180.321921 89.172118 
L 180.177035 89.080622 
L 180.030716 88.991435 
L 179.883 88.904582 
L 179.733925 88.820083 
L 179.583528 88.73796 
L 179.431846 88.658233 
L 179.278919 88.580923 
L 179.124785 88.50605 
L 178.969482 88.433631 
L 178.81305 88.363685 
L 178.655527 88.29623 
L 178.496955 88.231283 
L 178.337371 88.168859 
L 178.176818 88.108976 
L 178.015334 88.051647 
L 177.852961 87.996888 
L 177.68974 87.944712 
L 177.525712 87.895132 
L 177.360917 87.848161 
L 177.195398 87.80381 
L 177.029197 87.762091 
L 176.862354 87.723015 
L 176.694912 87.68659 
L 176.526913 87.652826 
L 176.3584 87.621733 
L 176.189415 87.593316 
L 176.02 87.567585 
L 175.850198 87.544544 
L 175.680053 87.524201 
L 175.509605 87.506559 
L 175.3389 87.491625 
L 175.167978 87.4794 
L 174.996885 87.469889 
L 174.825662 87.463094 
L 174.654352 87.459016 
L 174.483 87.457656 
L 128.187 87.457656 
L 128.015648 87.459016 
L 127.844338 87.463094 
L 127.673115 87.469889 
L 127.502022 87.4794 
L 127.3311 87.491625 
L 127.160395 87.506559 
L 126.989947 87.524201 
L 126.819802 87.544544 
L 126.65 87.567585 
L 126.480585 87.593316 
L 126.3116 87.621733 
L 126.143087 87.652826 
L 125.975088 87.68659 
L 125.807646 87.723015 
L 125.640803 87.762091 
L 125.474602 87.80381 
L 125.309083 87.848161 
L 125.144288 87.895132 
L 124.98026 87.944712 
L 124.817039 87.996888 
L 124.654666 88.051647 
L 124.493182 88.108976 
L 124.332629 88.168859 
L 124.173045 88.231283 
L 124.014473 88.29623 
L 123.85695 88.363685 
L 123.700518 88.433631 
L 123.545215 88.50605 
L 123.391081 88.580923 
L 123.238154 88.658233 
L 123.086472 88.73796 
L 122.936075 88.820083 
L 122.787 88.904582 
L 122.639284 88.991435 
L 122.492965 89.080622 
L 122.348079 89.172118 
L 122.204663 89.265902 
L 122.062753 89.361949 
L 121.922385 89.460236 
L 121.783594 89.560737 
L 121.646415 89.663428 
L 121.510883 89.768283 
L 121.377031 89.875274 
L 121.244894 89.984376 
L 121.114504 90.095561 
L 120.985895 90.2088 
L 120.859098 90.324066 
L 120.734147 90.441329 
L 120.611071 90.560559 
L 120.489903 90.681727 
L 120.370672 90.804803 
L 120.25341 90.929755 
L 120.138144 91.056551 
L 120.024905 91.18516 
L 119.91372 91.31555 
L 119.804618 91.447687 
L 119.697627 91.581539 
L 119.592772 91.717072 
L 119.490081 91.854251 
L 119.38958 91.993042 
L 119.291293 92.13341 
L 119.195246 92.27532 
L 119.101462 92.418735 
L 119.009965 92.563621 
L 118.920779 92.70994 
L 118.833926 92.857656 
L 118.749427 93.006732 
L 118.667304 93.157129 
L 118.587577 93.30881 
L 118.510267 93.461737 
L 118.435393 93.615871 
L 118.362974 93.771174 
L 118.293029 93.927606 
L 118.225574 94.085129 
L 118.160626 94.243702 
L 118.098203 94.403285 
L 118.03832 94.563839 
L 117.980991 94.725322 
L 117.926232 94.887695 
L 117.874056 95.050916 
L 117.824476 95.214945 
L 117.777505 95.379739 
L 117.733154 95.545258 
L 117.691435 95.71146 
L 117.652358 95.878302 
L 117.615934 96.045744 
L 117.58217 96.213743 
L 117.551076 96.382256 
L 117.52266 96.551241 
L 117.496928 96.720656 
L 117.473888 96.890458 
L 117.453545 97.060604 
L 117.435903 97.231051 
L 117.420968 97.401757 
L 117.408744 97.572678 
L 117.399233 97.743772 
L 117.392437 97.914995 
L 117.388359 98.086304 
L 117.387 98.257656 
L 117.387 123.457656 
L 117.388359 123.629009 
L 117.392437 123.800318 
L 117.399233 123.971541 
L 117.408744 124.142635 
L 117.420968 124.313556 
L 117.435903 124.484262 
L 117.453545 124.654709 
L 117.473888 124.824855 
L 117.496928 124.994657 
L 117.52266 125.164071 
L 117.551076 125.333057 
L 117.58217 125.50157 
L 117.615934 125.669568 
L 117.652358 125.83701 
L 117.691435 126.003853 
L 117.733154 126.170055 
L 117.777505 126.335573 
L 117.824476 126.500368 
L 117.874056 126.664396 
L 117.926232 126.827617 
L 117.980991 126.98999 
L 118.03832 127.151474 
L 118.098203 127.312027 
L 118.160626 127.471611 
L 118.225574 127.630184 
L 118.293029 127.787706 
L 118.362974 127.944138 
L 118.435393 128.099441 
L 118.510267 128.253576 
L 118.587577 128.406503 
L 118.667304 128.558184 
L 118.749427 128.708581 
L 118.833926 128.857656 
L 118.920779 129.005372 
L 119.009965 129.151691 
L 119.101462 129.296577 
L 119.195246 129.439993 
L 119.291293 129.581903 
L 119.38958 129.722271 
L 119.490081 129.861062 
L 119.592772 129.998241 
L 119.697627 130.133773 
L 119.804618 130.267625 
L 119.91372 130.399762 
L 120.024905 130.530152 
L 120.138144 130.658761 
L 120.25341 130.785558 
L 120.370672 130.91051 
L 120.489903 131.033585 
L 120.611071 131.154753 
L 120.734147 131.273984 
L 120.859098 131.391247 
L 120.985895 131.506512 
L 121.114504 131.619752 
L 121.244894 131.730936 
L 121.377031 131.840038 
L 121.510883 131.94703 
L 121.646415 132.051884 
L 121.783594 132.154575 
L 121.922385 132.255077 
L 122.062753 132.353363 
L 122.204663 132.449411 
L 122.348079 132.543194 
L 122.492965 132.634691 
L 122.639284 132.723877 
L 122.787 132.810731 
L 122.936075 132.89523 
L 123.086472 132.977353 
L 123.238154 133.057079 
L 123.391081 133.134389 
L 123.545215 133.209263 
L 123.700518 133.281682 
L 123.85695 133.351628 
L 124.014473 133.419083 
L 124.173045 133.48403 
L 124.332629 133.546453 
L 124.493182 133.606337 
L 124.654666 133.663665 
L 124.817039 133.718424 
L 124.98026 133.7706 
L 125.144288 133.82018 
L 125.309083 133.867152 
L 125.474602 133.911502 
L 125.640803 133.953221 
L 125.807646 133.992298 
L 125.975088 134.028723 
L 126.143087 134.062486 
L 126.3116 134.09358 
L 126.480585 134.121996 
L 126.65 134.147728 
L 126.819802 134.170768 
L 126.989947 134.191112 
L 127.160395 134.208753 
L 127.3311 134.223688 
L 127.502022 134.235912 
L 127.673115 134.245424 
L 127.844338 134.252219 
L 128.015648 134.256297 
L 128.187 134.257656 
z
" clip-path="url(#p8e94593647)" style="fill: #00ffff; stroke-dasharray: 5.55,2.4; stroke-dashoffset: 0; stroke: #00ffff; stroke-width: 1.5; stroke-linecap: round"/>
   </g>
   <g id="patch_4">
    <path d="M 79.023 70.477656 
L 70.023 83.077656 
L 61.023 70.477656 
L 79.023 70.477656 
z
" clip-path="url(#p8e94593647)" style="fill: none; stroke: #000000; stroke-width: 2; stroke-linecap: round"/>
   </g>
   <g id="patch_5">
    <path d="M 79.023 106.477656 
L 70.023 119.077656 
L 61.023 106.477656 
L 79.023 106.477656 
z
" clip-path="url(#p8e94593647)" style="fill: none; stroke: #000000; stroke-width: 2; stroke-linecap: round"/>
   </g>
   <g id="patch_6">
    <path d="M 165.483 80.857656 
L 165.654352 80.856297 
L 165.825662 80.852219 
L 165.996885 80.845424 
L 166.167978 80.835912 
L 166.3389 80.823688 
L 166.509605 80.808753 
L 166.680053 80.791112 
L 166.850198 80.770768 
L 167.02 80.747728 
L 167.189415 80.721996 
L 167.3584 80.69358 
L 167.526913 80.662486 
L 167.694912 80.628723 
L 167.862354 80.592298 
L 168.029197 80.553221 
L 168.195398 80.511502 
L 168.360917 80.467152 
L 168.525712 80.42018 
L 168.68974 80.3706 
L 168.852961 80.318424 
L 169.015334 80.263665 
L 169.176818 80.206337 
L 169.337371 80.146453 
L 169.496955 80.08403 
L 169.655527 80.019083 
L 169.81305 79.951628 
L 169.969482 79.881682 
L 170.124785 79.809263 
L 170.278919 79.734389 
L 170.431846 79.657079 
L 170.583528 79.577353 
L 170.733925 79.49523 
L 170.883 79.410731 
L 171.030716 79.323877 
L 171.177035 79.234691 
L 171.321921 79.143194 
L 171.465337 79.049411 
L 171.607247 78.953363 
L 171.747615 78.855077 
L 171.886406 78.754575 
L 172.023585 78.651884 
L 172.159117 78.54703 
L 172.292969 78.440038 
L 172.425106 78.330936 
L 172.555496 78.219752 
L 172.684105 78.106512 
L 172.810902 77.991247 
L 172.935853 77.873984 
L 173.058929 77.754753 
L 173.180097 77.633585 
L 173.299328 77.51051 
L 173.41659 77.385558 
L 173.531856 77.258761 
L 173.645095 77.130152 
L 173.75628 76.999762 
L 173.865382 76.867625 
L 173.972373 76.733773 
L 174.077228 76.598241 
L 174.179919 76.461062 
L 174.28042 76.322271 
L 174.378707 76.181903 
L 174.474754 76.039993 
L 174.568538 75.896577 
L 174.660035 75.751691 
L 174.749221 75.605372 
L 174.836074 75.457656 
L 174.920573 75.308581 
L 175.002696 75.158184 
L 175.082423 75.006503 
L 175.159733 74.853576 
L 175.234607 74.699441 
L 175.307026 74.544138 
L 175.376971 74.387706 
L 175.444426 74.230184 
L 175.509374 74.071611 
L 175.571797 73.912027 
L 175.63168 73.751474 
L 175.689009 73.58999 
L 175.743768 73.427617 
L 175.795944 73.264396 
L 175.845524 73.100368 
L 175.892495 72.935573 
L 175.936846 72.770055 
L 175.978565 72.603853 
L 176.017642 72.43701 
L 176.054066 72.269568 
L 176.08783 72.10157 
L 176.118924 71.933057 
L 176.14734 71.764071 
L 176.173072 71.594657 
L 176.196112 71.424855 
L 176.216455 71.254709 
L 176.234097 71.084262 
L 176.249032 70.913556 
L 176.261256 70.742635 
L 176.270767 70.571541 
L 176.277563 70.400318 
L 176.281641 70.229009 
L 176.283 70.057656 
L 176.283 48.097656 
L 176.281641 47.926304 
L 176.277563 47.754995 
L 176.270767 47.583772 
L 176.261256 47.412678 
L 176.249032 47.241757 
L 176.234097 47.071051 
L 176.216455 46.900604 
L 176.196112 46.730458 
L 176.173072 46.560656 
L 176.14734 46.391241 
L 176.118924 46.222256 
L 176.08783 46.053743 
L 176.054066 45.885744 
L 176.017642 45.718302 
L 175.978565 45.55146 
L 175.936846 45.385258 
L 175.892495 45.219739 
L 175.845524 45.054945 
L 175.795944 44.890916 
L 175.743768 44.727695 
L 175.689009 44.565322 
L 175.63168 44.403839 
L 175.571797 44.243285 
L 175.509374 44.083702 
L 175.444426 43.925129 
L 175.376971 43.767606 
L 175.307026 43.611174 
L 175.234607 43.455871 
L 175.159733 43.301737 
L 175.082423 43.14881 
L 175.002696 42.997129 
L 174.920573 42.846732 
L 174.836074 42.697656 
L 174.749221 42.54994 
L 174.660035 42.403621 
L 174.568538 42.258735 
L 174.474754 42.11532 
L 174.378707 41.97341 
L 174.28042 41.833042 
L 174.179919 41.694251 
L 174.077228 41.557072 
L 173.972373 41.421539 
L 173.865382 41.287687 
L 173.75628 41.15555 
L 173.645095 41.02516 
L 173.531856 40.896551 
L 173.41659 40.769755 
L 173.299328 40.644803 
L 173.180097 40.521727 
L 173.058929 40.400559 
L 172.935853 40.281329 
L 172.810902 40.164066 
L 172.684105 40.0488 
L 172.555496 39.935561 
L 172.425106 39.824376 
L 172.292969 39.715274 
L 172.159117 39.608283 
L 172.023585 39.503428 
L 171.886406 39.400737 
L 171.747615 39.300236 
L 171.607247 39.201949 
L 171.465337 39.105902 
L 171.321921 39.012118 
L 171.177035 38.920622 
L 171.030716 38.831435 
L 170.883 38.744582 
L 170.733925 38.660083 
L 170.583528 38.57796 
L 170.431846 38.498233 
L 170.278919 38.420923 
L 170.124785 38.34605 
L 169.969482 38.273631 
L 169.81305 38.203685 
L 169.655527 38.13623 
L 169.496955 38.071283 
L 169.337371 38.008859 
L 169.176818 37.948976 
L 169.015334 37.891647 
L 168.852961 37.836888 
L 168.68974 37.784712 
L 168.525712 37.735132 
L 168.360917 37.688161 
L 168.195398 37.64381 
L 168.029197 37.602091 
L 167.862354 37.563015 
L 167.694912 37.52659 
L 167.526913 37.492826 
L 167.3584 37.461733 
L 167.189415 37.433316 
L 167.02 37.407585 
L 166.850198 37.384544 
L 166.680053 37.364201 
L 166.509605 37.346559 
L 166.3389 37.331625 
L 166.167978 37.3194 
L 165.996885 37.309889 
L 165.825662 37.303094 
L 165.654352 37.299016 
L 165.483 37.297656 
L 145.623 37.297656 
L 145.451648 37.299016 
L 145.280338 37.303094 
L 145.109115 37.309889 
L 144.938022 37.3194 
L 144.7671 37.331625 
L 144.596395 37.346559 
L 144.425947 37.364201 
L 144.255802 37.384544 
L 144.086 37.407585 
L 143.916585 37.433316 
L 143.7476 37.461733 
L 143.579087 37.492826 
L 143.411088 37.52659 
L 143.243646 37.563015 
L 143.076803 37.602091 
L 142.910602 37.64381 
L 142.745083 37.688161 
L 142.580288 37.735132 
L 142.41626 37.784712 
L 142.253039 37.836888 
L 142.090666 37.891647 
L 141.929182 37.948976 
L 141.768629 38.008859 
L 141.609045 38.071283 
L 141.450473 38.13623 
L 141.29295 38.203685 
L 141.136518 38.273631 
L 140.981215 38.34605 
L 140.827081 38.420923 
L 140.674154 38.498233 
L 140.522472 38.57796 
L 140.372075 38.660083 
L 140.223 38.744582 
L 140.075284 38.831435 
L 139.928965 38.920622 
L 139.784079 39.012118 
L 139.640663 39.105902 
L 139.498753 39.201949 
L 139.358385 39.300236 
L 139.219594 39.400737 
L 139.082415 39.503428 
L 138.946883 39.608283 
L 138.813031 39.715274 
L 138.680894 39.824376 
L 138.550504 39.935561 
L 138.421895 40.0488 
L 138.295098 40.164066 
L 138.170147 40.281329 
L 138.047071 40.400559 
L 137.925903 40.521727 
L 137.806672 40.644803 
L 137.68941 40.769755 
L 137.574144 40.896551 
L 137.460905 41.02516 
L 137.34972 41.15555 
L 137.240618 41.287687 
L 137.133627 41.421539 
L 137.028772 41.557072 
L 136.926081 41.694251 
L 136.82558 41.833042 
L 136.727293 41.97341 
L 136.631246 42.11532 
L 136.537462 42.258735 
L 136.445965 42.403621 
L 136.356779 42.54994 
L 136.269926 42.697656 
L 136.185427 42.846732 
L 136.103304 42.997129 
L 136.023577 43.14881 
L 135.946267 43.301737 
L 135.871393 43.455871 
L 135.798974 43.611174 
L 135.729029 43.767606 
L 135.661574 43.925129 
L 135.596626 44.083702 
L 135.534203 44.243285 
L 135.47432 44.403839 
L 135.416991 44.565322 
L 135.362232 44.727695 
L 135.310056 44.890916 
L 135.260476 45.054945 
L 135.213505 45.219739 
L 135.169154 45.385258 
L 135.127435 45.55146 
L 135.088358 45.718302 
L 135.051934 45.885744 
L 135.01817 46.053743 
L 134.987076 46.222256 
L 134.95866 46.391241 
L 134.932928 46.560656 
L 134.909888 46.730458 
L 134.889545 46.900604 
L 134.871903 47.071051 
L 134.856968 47.241757 
L 134.844744 47.412678 
L 134.835233 47.583772 
L 134.828437 47.754995 
L 134.824359 47.926304 
L 134.823 48.097656 
L 134.823 70.057656 
L 134.824359 70.229009 
L 134.828437 70.400318 
L 134.835233 70.571541 
L 134.844744 70.742635 
L 134.856968 70.913556 
L 134.871903 71.084262 
L 134.889545 71.254709 
L 134.909888 71.424855 
L 134.932928 71.594657 
L 134.95866 71.764071 
L 134.987076 71.933057 
L 135.01817 72.10157 
L 135.051934 72.269568 
L 135.088358 72.43701 
L 135.127435 72.603853 
L 135.169154 72.770055 
L 135.213505 72.935573 
L 135.260476 73.100368 
L 135.310056 73.264396 
L 135.362232 73.427617 
L 135.416991 73.58999 
L 135.47432 73.751474 
L 135.534203 73.912027 
L 135.596626 74.071611 
L 135.661574 74.230184 
L 135.729029 74.387706 
L 135.798974 74.544138 
L 135.871393 74.699441 
L 135.946267 74.853576 
L 136.023577 75.006503 
L 136.103304 75.158184 
L 136.185427 75.308581 
L 136.269926 75.457656 
L 136.356779 75.605372 
L 136.445965 75.751691 
L 136.537462 75.896577 
L 136.631246 76.039993 
L 136.727293 76.181903 
L 136.82558 76.322271 
L 136.926081 76.461062 
L 137.028772 76.598241 
L 137.133627 76.733773 
L 137.240618 76.867625 
L 137.34972 76.999762 
L 137.460905 77.130152 
L 137.574144 77.258761 
L 137.68941 77.385558 
L 137.806672 77.51051 
L 137.925903 77.633585 
L 138.047071 77.754753 
L 138.170147 77.873984 
L 138.295098 77.991247 
L 138.421895 78.106512 
L 138.550504 78.219752 
L 138.680894 78.330936 
L 138.813031 78.440038 
L 138.946883 78.54703 
L 139.082415 78.651884 
L 139.219594 78.754575 
L 139.358385 78.855077 
L 139.498753 78.953363 
L 139.640663 79.049411 
L 139.784079 79.143194 
L 139.928965 79.234691 
L 140.075284 79.323877 
L 140.223 79.410731 
L 140.372075 79.49523 
L 140.522472 79.577353 
L 140.674154 79.657079 
L 140.827081 79.734389 
L 140.981215 79.809263 
L 141.136518 79.881682 
L 141.29295 79.951628 
L 141.450473 80.019083 
L 141.609045 80.08403 
L 141.768629 80.146453 
L 141.929182 80.206337 
L 142.090666 80.263665 
L 142.253039 80.318424 
L 142.41626 80.3706 
L 142.580288 80.42018 
L 142.745083 80.467152 
L 142.910602 80.511502 
L 143.076803 80.553221 
L 143.243646 80.592298 
L 143.411088 80.628723 
L 143.579087 80.662486 
L 143.7476 80.69358 
L 143.916585 80.721996 
L 144.086 80.747728 
L 144.255802 80.770768 
L 144.425947 80.791112 
L 144.596395 80.808753 
L 144.7671 80.823688 
L 144.938022 80.835912 
L 145.109115 80.845424 
L 145.280338 80.852219 
L 145.451648 80.856297 
L 145.623 80.857656 
L 165.483 80.857656 
z
" clip-path="url(#p8e94593647)" style="fill: none; stroke-dasharray: 1.85,0.8; stroke-dashoffset: 0; stroke: #008000; stroke-width: 0.5; stroke-linecap: round"/>
   </g>
   <g id="line2d_1">
    <path d="M 142.023 58.777656 
L 155.223 58.777656 
" clip-path="url(#p8e94593647)" style="fill: none; stroke: #000000; stroke-width: 2; stroke-linecap: round"/>
   </g>
   <g id="line2d_2">
    <path d="M 155.223 45.577656 
L 155.223 71.977656 
" clip-path="url(#p8e94593647)" style="fill: none; stroke: #000000; stroke-width: 2; stroke-linecap: round"/>
   </g>
   <g id="line2d_3">
    <path d="M 155.223 52.177656 
L 169.083 40.297656 
L 169.083 33.697656 
" clip-path="url(#p8e94593647)" style="fill: none; stroke: #000000; stroke-width: 2; stroke-linecap: round"/>
   </g>
   <g id="line2d_4">
    <path d="M 155.223 65.377656 
L 169.083 77.257656 
L 169.083 83.857656 
" clip-path="url(#p8e94593647)" style="fill: none; stroke: #000000; stroke-width: 2; stroke-linecap: round"/>
   </g>
   <g id="line2d_5">
    <path d="M 155.223 65.377656 
L 162.249691 71.400534 
" clip-path="url(#p8e94593647)" style="fill: none; stroke: #000000; stroke-width: 2; stroke-linecap: round"/>
   </g>
   <g id="patch_7">
    <path d="M 164.59254 68.66721 
L 169.083 77.257656 
L 159.906842 74.133858 
z
" clip-path="url(#p8e94593647)"/>
   </g>
   <g id="line2d_6">
    <path d="M 142.023 58.777656 
L 106.023 58.777656 
L 70.023 58.777656 
" clip-path="url(#p8e94593647)" style="fill: none; stroke: #000000; stroke-width: 2; stroke-linecap: round"/>
   </g>
   <g id="line2d_7">
    <path d="M 70.023 58.777656 
L 43.023 58.777656 
L 16.023 58.777656 
" clip-path="url(#p8e94593647)" style="fill: none; stroke: #000000; stroke-width: 2; stroke-linecap: round"/>
   </g>
   <g id="line2d_8">
    <path d="M 169.083 83.857656 
L 169.083 92.857656 
L 178.083 95.857656 
L 160.083 101.857656 
L 178.083 107.857656 
L 160.083 113.857656 
L 178.083 119.857656 
L 160.083 125.857656 
L 169.083 128.857656 
L 169.083 137.857656 
" clip-path="url(#p8e94593647)" style="fill: none; stroke: #000000; stroke-width: 2; stroke-linecap: round"/>
   </g>
   <g id="line2d_9">
    <path d="M 169.083 137.857656 
L 187.083 137.857656 
L 205.083 137.857656 
" clip-path="url(#p8e94593647)" style="fill: none; stroke: #000000; stroke-width: 2; stroke-linecap: round"/>
   </g>
   <g id="line2d_10">
    <path d="M 70.023 58.777656 
L 70.023 70.477656 
M 79.023 83.077656 
L 61.023 83.077656 
M 70.023 83.077656 
L 70.023 94.777656 
" clip-path="url(#p8e94593647)" style="fill: none; stroke: #000000; stroke-width: 2; stroke-linecap: round"/>
   </g>
   <g id="line2d_11">
    <path d="M 70.023 94.777656 
L 70.023 106.477656 
M 79.023 119.077656 
L 61.023 119.077656 
M 70.023 119.077656 
L 70.023 130.777656 
" clip-path="url(#p8e94593647)" style="fill: none; stroke: #000000; stroke-width: 2; stroke-linecap: round"/>
   </g>
   <g id="line2d_12">
    <path d="M 70.023 130.777656 
L 70.023 134.317656 
L 70.023 137.857656 
" clip-path="url(#p8e94593647)" style="fill: none; stroke: #000000; stroke-width: 2; stroke-linecap: round"/>
   </g>
   <g id="line2d_13">
    <path d="M 70.023 137.857656 
L 119.553 137.857656 
L 169.083 137.857656 
" clip-path="url(#p8e94593647)" style="fill: none; stroke: #000000; stroke-width: 2; stroke-linecap: round"/>
   </g>
   <g id="line2d_14">
    <path d="M 169.083 33.697656 
L 169.083 19.297656 
" clip-path="url(#p8e94593647)" style="fill: none; stroke: #000000; stroke-width: 2; stroke-linecap: round"/>
   </g>
   <g id="line2d_15">
    <path d="M 169.083 19.297656 
L 162.333 19.297656 
" clip-path="url(#p8e94593647)" style="fill: none; stroke: #000000; stroke-width: 2; stroke-linecap: round"/>
   </g>
   <g id="line2d_16">
    <path d="M 169.083 19.297656 
L 175.833 19.297656 
" clip-path="url(#p8e94593647)" style="fill: none; stroke: #000000; stroke-width: 2; stroke-linecap: round"/>
   </g>
   <g id="line2d_17">
    <path d="M 84.423 91.177656 
L 84.423 123.577656 
" clip-path="url(#p8e94593647)" style="fill: none; stroke: #ff0000; stroke-width: 2; stroke-linecap: round"/>
   </g>
   <g id="patch_8">
    <path d="M 88.023 123.577656 
L 84.423 134.377656 
L 80.823 123.577656 
z
" clip-path="url(#p8e94593647)" style="fill: #ff0000"/>
   </g>
   <g id="line2d_18">
    <path d="M 183.483 22.777656 
L 183.483 83.977656 
" clip-path="url(#p8e94593647)" style="fill: none; stroke: #008000; stroke-width: 5; stroke-linecap: round"/>
   </g>
   <g id="patch_9">
    <path d="M 187.083 83.977656 
L 183.483 94.777656 
L 179.883 83.977656 
z
" clip-path="url(#p8e94593647)" style="fill: #008000"/>
   </g>
   <g id="line2d_19">
    <path d="M 70.023 44.377656 
L 131.223 44.377656 
" clip-path="url(#p8e94593647)" style="fill: none; stroke: #008000; stroke-width: 2; stroke-linecap: round"/>
   </g>
   <g id="patch_10">
    <path d="M 131.223 40.777656 
L 142.023 44.377656 
L 131.223 47.977656 
z
" clip-path="url(#p8e94593647)" style="fill: #008000"/>
   </g>
   <g id="text_1">
    <!-- $R_{I1}$ -->
    <g transform="translate(139.233 114.306875) scale(0.125 -0.125)">
     <defs>
      <path id="DejaVuSans-Oblique-52" d="M 1613 4147 
L 1294 2491 
L 2106 2491 
Q 2584 2491 2879 2755 
Q 3175 3019 3175 3444 
Q 3175 3784 2976 3965 
Q 2778 4147 2406 4147 
L 1613 4147 
z
M 2772 2241 
Q 2972 2194 3105 2009 
Q 3238 1825 3413 1275 
L 3809 0 
L 3144 0 
L 2778 1197 
Q 2638 1659 2453 1815 
Q 2269 1972 1888 1972 
L 1191 1972 
L 806 0 
L 172 0 
L 1081 4666 
L 2503 4666 
Q 3150 4666 3495 4373 
Q 3841 4081 3841 3531 
Q 3841 3044 3547 2687 
Q 3253 2331 2772 2241 
z
" transform="scale(0.015625)"/>
      <path id="DejaVuSans-Oblique-49" d="M 1081 4666 
L 1716 4666 
L 806 0 
L 172 0 
L 1081 4666 
z
" transform="scale(0.015625)"/>
      <path id="DejaVuSans-31" d="M 794 531 
L 1825 531 
L 1825 4091 
L 703 3866 
L 703 4441 
L 1819 4666 
L 2450 4666 
L 2450 531 
L 3481 531 
L 3481 0 
L 794 0 
L 794 531 
z
" transform="scale(0.015625)"/>
     </defs>
     <use xlink:href="#DejaVuSans-Oblique-52" transform="translate(0 0.09375)"/>
     <use xlink:href="#DejaVuSans-Oblique-49" transform="translate(69.482422 -16.3125) scale(0.7)"/>
     <use xlink:href="#DejaVuSans-31" transform="translate(90.126953 -16.3125) scale(0.7)"/>
    </g>
   </g>
   <g id="text_2">
    <!-- $V_{DD}$ -->
    <g transform="translate(157.8955 13.098047) scale(0.125 -0.125)">
     <defs>
      <path id="DejaVuSans-Oblique-56" d="M 1319 0 
L 500 4666 
L 1119 4666 
L 1797 653 
L 4063 4666 
L 4750 4666 
L 2053 0 
L 1319 0 
z
" transform="scale(0.015625)"/>
      <path id="DejaVuSans-Oblique-44" d="M 1081 4666 
L 2438 4666 
Q 3519 4666 4070 4208 
Q 4622 3750 4622 2847 
Q 4622 2250 4412 1698 
Q 4203 1147 3834 769 
Q 3463 381 2891 190 
Q 2319 0 1538 0 
L 172 0 
L 1081 4666 
z
M 1613 4147 
L 909 519 
L 1734 519 
Q 2794 519 3375 1128 
Q 3956 1738 3956 2847 
Q 3956 3519 3581 3833 
Q 3206 4147 2406 4147 
L 1613 4147 
z
" transform="scale(0.015625)"/>
     </defs>
     <use xlink:href="#DejaVuSans-Oblique-56" transform="translate(0 0.09375)"/>
     <use xlink:href="#DejaVuSans-Oblique-44" transform="translate(68.408203 -16.3125) scale(0.7)"/>
     <use xlink:href="#DejaVuSans-Oblique-44" transform="translate(122.30957 -16.3125) scale(0.7)"/>
    </g>
   </g>
   <g id="text_3">
    <!-- $\frac{I_{out}}{  \beta_{F1}}$ -->
    <g style="fill: #ff0000" transform="translate(88.023 116.027656) scale(0.125 -0.125)">
     <defs>
      <path id="DejaVuSans-Oblique-6f" d="M 1625 -91 
Q 1009 -91 651 289 
Q 294 669 294 1325 
Q 294 1706 417 2101 
Q 541 2497 738 2766 
Q 1047 3184 1428 3384 
Q 1809 3584 2291 3584 
Q 2888 3584 3255 3212 
Q 3622 2841 3622 2241 
Q 3622 1825 3500 1412 
Q 3378 1000 3181 728 
Q 2875 309 2494 109 
Q 2113 -91 1625 -91 
z
M 891 1344 
Q 891 869 1089 633 
Q 1288 397 1691 397 
Q 2269 397 2648 901 
Q 3028 1406 3028 2181 
Q 3028 2634 2825 2865 
Q 2622 3097 2228 3097 
Q 1903 3097 1650 2945 
Q 1397 2794 1197 2484 
Q 1050 2253 970 1956 
Q 891 1659 891 1344 
z
" transform="scale(0.015625)"/>
      <path id="DejaVuSans-Oblique-75" d="M 428 1388 
L 838 3500 
L 1416 3500 
L 1006 1409 
Q 975 1256 961 1147 
Q 947 1038 947 966 
Q 947 700 1109 554 
Q 1272 409 1569 409 
Q 2031 409 2368 721 
Q 2706 1034 2809 1563 
L 3194 3500 
L 3769 3500 
L 3091 0 
L 2516 0 
L 2631 550 
Q 2388 244 2052 76 
Q 1716 -91 1338 -91 
Q 878 -91 622 161 
Q 366 413 366 863 
Q 366 956 381 1097 
Q 397 1238 428 1388 
z
" transform="scale(0.015625)"/>
      <path id="DejaVuSans-Oblique-74" d="M 2706 3500 
L 2619 3053 
L 1472 3053 
L 1100 1153 
Q 1081 1047 1072 975 
Q 1063 903 1063 863 
Q 1063 663 1183 572 
Q 1303 481 1569 481 
L 2150 481 
L 2053 0 
L 1503 0 
Q 991 0 739 200 
Q 488 400 488 806 
Q 488 878 497 964 
Q 506 1050 525 1153 
L 897 3053 
L 409 3053 
L 500 3500 
L 978 3500 
L 1172 4494 
L 1747 4494 
L 1556 3500 
L 2706 3500 
z
" transform="scale(0.015625)"/>
      <path id="DejaVuSans-Oblique-3b2" d="M 872 216 
L 572 -1331 
L -6 -1331 
L 928 3478 
Q 1206 4903 2538 4903 
Q 3888 4903 3659 3700 
Q 3503 2844 2894 2531 
Q 3713 2250 3553 1416 
Q 3272 -69 1759 -66 
Q 1097 -63 872 216 
z
M 1019 966 
Q 1259 422 1875 425 
Q 2775 425 2966 1406 
Q 3138 2288 1675 2219 
L 1778 2750 
Q 2909 2731 3106 3750 
Q 3241 4438 2509 4434 
Q 1691 4434 1503 3459 
L 1019 966 
z
" transform="scale(0.015625)"/>
      <path id="DejaVuSans-Oblique-46" d="M 1081 4666 
L 3756 4666 
L 3653 4134 
L 1606 4134 
L 1338 2759 
L 3188 2759 
L 3084 2228 
L 1234 2228 
L 800 0 
L 172 0 
L 1081 4666 
z
" transform="scale(0.015625)"/>
     </defs>
     <use xlink:href="#DejaVuSans-Oblique-49" transform="translate(2 56.965625) scale(0.7)"/>
     <use xlink:href="#DejaVuSans-Oblique-6f" transform="translate(22.644531 45.48125) scale(0.49)"/>
     <use xlink:href="#DejaVuSans-Oblique-75" transform="translate(52.623535 45.48125) scale(0.49)"/>
     <use xlink:href="#DejaVuSans-Oblique-74" transform="translate(83.679199 45.48125) scale(0.49)"/>
     <use xlink:href="#DejaVuSans-Oblique-3b2" transform="translate(0 -40.092031) scale(0.7)"/>
     <use xlink:href="#DejaVuSans-Oblique-46" transform="translate(44.672852 -51.576406) scale(0.49)"/>
     <use xlink:href="#DejaVuSans-31" transform="translate(72.857422 -51.576406) scale(0.49)"/>
     <path d="M 0 19.784531 
L 0 26.034531 
L 105.946777 26.034531 
L 105.946777 19.784531 
L 0 19.784531 
z
"/>
    </g>
   </g>
   <g id="text_4">
    <!-- $I_{out}$ -->
    <g style="fill: #008000" transform="translate(187.083 62.226875) scale(0.125 -0.125)">
     <use xlink:href="#DejaVuSans-Oblique-49" transform="translate(0 0.09375)"/>
     <use xlink:href="#DejaVuSans-Oblique-6f" transform="translate(29.492188 -16.3125) scale(0.7)"/>
     <use xlink:href="#DejaVuSans-Oblique-75" transform="translate(72.319336 -16.3125) scale(0.7)"/>
     <use xlink:href="#DejaVuSans-Oblique-74" transform="translate(116.68457 -16.3125) scale(0.7)"/>
    </g>
   </g>
   <g id="text_5">
    <!-- $\frac{I_{out}}{  \beta_{F1}}$ -->
    <g style="fill: #008000" transform="translate(98.5855 33.777656) scale(0.125 -0.125)">
     <use xlink:href="#DejaVuSans-Oblique-49" transform="translate(2 56.965625) scale(0.7)"/>
     <use xlink:href="#DejaVuSans-Oblique-6f" transform="translate(22.644531 45.48125) scale(0.49)"/>
     <use xlink:href="#DejaVuSans-Oblique-75" transform="translate(52.623535 45.48125) scale(0.49)"/>
     <use xlink:href="#DejaVuSans-Oblique-74" transform="translate(83.679199 45.48125) scale(0.49)"/>
     <use xlink:href="#DejaVuSans-Oblique-3b2" transform="translate(0 -40.092031) scale(0.7)"/>
     <use xlink:href="#DejaVuSans-Oblique-46" transform="translate(44.672852 -51.576406) scale(0.49)"/>
     <use xlink:href="#DejaVuSans-31" transform="translate(72.857422 -51.576406) scale(0.49)"/>
     <path d="M 0 19.784531 
L 0 26.034531 
L 105.946777 26.034531 
L 105.946777 19.784531 
L 0 19.784531 
z
"/>
    </g>
   </g>
   <g id="patch_11">
    <path d="M 70.023 61.477656 
C 70.739048 61.477656 71.425866 61.193167 71.932188 60.686845 
C 72.438511 60.180522 72.723 59.493705 72.723 58.777656 
C 72.723 58.061608 72.438511 57.374791 71.932188 56.868468 
C 71.425866 56.362145 70.739048 56.077656 70.023 56.077656 
C 69.306952 56.077656 68.620134 56.362145 68.113812 56.868468 
C 67.607489 57.374791 67.323 58.061608 67.323 58.777656 
C 67.323 59.493705 67.607489 60.180522 68.113812 60.686845 
C 68.620134 61.193167 69.306952 61.477656 70.023 61.477656 
z
" clip-path="url(#p8e94593647)" style="stroke: #000000; stroke-width: 2; stroke-linejoin: miter"/>
   </g>
   <g id="patch_12">
    <path d="M 16.023 61.477656 
C 16.739048 61.477656 17.425866 61.193167 17.932188 60.686845 
C 18.438511 60.180522 18.723 59.493705 18.723 58.777656 
C 18.723 58.061608 18.438511 57.374791 17.932188 56.868468 
C 17.425866 56.362145 16.739048 56.077656 16.023 56.077656 
C 15.306952 56.077656 14.620134 56.362145 14.113812 56.868468 
C 13.607489 57.374791 13.323 58.061608 13.323 58.777656 
C 13.323 59.493705 13.607489 60.180522 14.113812 60.686845 
C 14.620134 61.193167 15.306952 61.477656 16.023 61.477656 
z
" clip-path="url(#p8e94593647)" style="fill: #ffffff; stroke: #000000; stroke-width: 2; stroke-linejoin: miter"/>
   </g>
   <g id="patch_13">
    <path d="M 169.083 140.557656 
C 169.799048 140.557656 170.485866 140.273167 170.992188 139.766845 
C 171.498511 139.260522 171.783 138.573705 171.783 137.857656 
C 171.783 137.141608 171.498511 136.454791 170.992188 135.948468 
C 170.485866 135.442145 169.799048 135.157656 169.083 135.157656 
C 168.366952 135.157656 167.680134 135.442145 167.173812 135.948468 
C 166.667489 136.454791 166.383 137.141608 166.383 137.857656 
C 166.383 138.573705 166.667489 139.260522 167.173812 139.766845 
C 167.680134 140.273167 168.366952 140.557656 169.083 140.557656 
z
" clip-path="url(#p8e94593647)" style="stroke: #000000; stroke-width: 2; stroke-linejoin: miter"/>
   </g>
   <g id="patch_14">
    <path d="M 205.083 140.557656 
C 205.799048 140.557656 206.485866 140.273167 206.992188 139.766845 
C 207.498511 139.260522 207.783 138.573705 207.783 137.857656 
C 207.783 137.141608 207.498511 136.454791 206.992188 135.948468 
C 206.485866 135.442145 205.799048 135.157656 205.083 135.157656 
C 204.366952 135.157656 203.680134 135.442145 203.173812 135.948468 
C 202.667489 136.454791 202.383 137.141608 202.383 137.857656 
C 202.383 138.573705 202.667489 139.260522 203.173812 139.766845 
C 203.680134 140.273167 204.366952 140.557656 205.083 140.557656 
z
" clip-path="url(#p8e94593647)" style="fill: #ffffff; stroke: #000000; stroke-width: 2; stroke-linejoin: miter"/>
   </g>
   <g id="patch_15">
    <path d="M 169.083 36.397656 
C 169.799048 36.397656 170.485866 36.113167 170.992188 35.606845 
C 171.498511 35.100522 171.783 34.413705 171.783 33.697656 
C 171.783 32.981608 171.498511 32.294791 170.992188 31.788468 
C 170.485866 31.282145 169.799048 30.997656 169.083 30.997656 
C 168.366952 30.997656 167.680134 31.282145 167.173812 31.788468 
C 166.667489 32.294791 166.383 32.981608 166.383 33.697656 
C 166.383 34.413705 166.667489 35.100522 167.173812 35.606845 
C 167.680134 36.113167 168.366952 36.397656 169.083 36.397656 
z
" clip-path="url(#p8e94593647)" style="stroke: #000000; stroke-width: 2; stroke-linejoin: miter"/>
   </g>
  </g>
 </g>
 <defs>
  <clipPath id="p8e94593647">
   <rect x="3.6" y="13.234656" width="213.906" height="133.386"/>
  </clipPath>
 </defs>
</svg>