<?xml version="1.0" encoding="utf-8" standalone="no"?>
<!DOCTYPE svg PUBLIC "-//W3C//DTD SVG 1.1//EN"
  "http://www.w3.org/Graphics/SVG/1.1/DTD/svg11.dtd">
<svg xmlns:xlink="http://www.w3.org/1999/xlink" width="595.610544pt" height="202.824pt" viewBox="0 0 595.610544 202.824" xmlns="http://www.w3.org/2000/svg" version="1.1">
 <metadata>
  <rdf:RDF xmlns:dc="http://purl.org/dc/elements/1.1/" xmlns:cc="http://creativecommons.org/ns#" xmlns:rdf="http://www.w3.org/1999/02/22-rdf-syntax-ns#">
   <cc:Work>
    <dc:type rdf:resource="http://purl.org/dc/dcmitype/StillImage"/>
    <dc:date>2024-02-10T21:07:14.216445</dc:date>
    <dc:format>image/svg+xml</dc:format>
    <dc:creator>
     <cc:Agent>
      <dc:title>Matplotlib v3.8.2, https://matplotlib.org/</dc:title>
     </cc:Agent>
    </dc:creator>
   </cc:Work>
  </rdf:RDF>
 </metadata>
 <defs>
  <style type="text/css">*{stroke-linejoin: round; stroke-linecap: butt}</style>
 </defs>
 <g id="figure_1">
  <g id="patch_1">
   <path d="M 0 202.824 
L 595.610544 202.824 
L 595.610544 0 
L 0 0 
z
" style="fill: #ffffff"/>
  </g>
  <g id="axes_1">
   <g id="patch_2">
    <path d="M 426.388706 77.292 
L 426.388706 41.292 
L 570.388706 41.292 
L 570.388706 113.292 
L 426.388706 113.292 
z
" clip-path="url(#p64b857a01b)" style="fill: #add8e6; stroke: #add8e6; stroke-linejoin: miter"/>
   </g>
   <g id="patch_3">
    <path d="M 263.188706 174.492 
L 263.360059 174.490641 
L 263.531368 174.486563 
L 263.702591 174.479767 
L 263.873685 174.470256 
L 264.044606 174.458032 
L 264.215312 174.443097 
L 264.385759 174.425455 
L 264.555905 174.405112 
L 264.725707 174.382072 
L 264.895121 174.35634 
L 265.064107 174.327924 
L 265.23262 174.29683 
L 265.400618 174.263066 
L 265.56806 174.226642 
L 265.734903 174.187565 
L 265.901105 174.145846 
L 266.066624 174.101495 
L 266.231418 174.054524 
L 266.395446 174.004944 
L 266.558668 173.952768 
L 266.72104 173.898009 
L 266.882524 173.84068 
L 267.043078 173.780797 
L 267.202661 173.718374 
L 267.361234 173.653426 
L 267.518756 173.585971 
L 267.675189 173.516026 
L 267.830491 173.443607 
L 267.984626 173.368733 
L 268.137553 173.291423 
L 268.289234 173.211696 
L 268.439631 173.129573 
L 268.588706 173.045074 
L 268.736422 172.958221 
L 268.882741 172.869035 
L 269.027627 172.777538 
L 269.171043 172.683754 
L 269.312953 172.587707 
L 269.453321 172.48942 
L 269.592112 172.388919 
L 269.729291 172.286228 
L 269.864823 172.181373 
L 269.998675 172.074382 
L 270.130813 171.96528 
L 270.261202 171.854095 
L 270.389812 171.740856 
L 270.516608 171.62559 
L 270.64156 171.508328 
L 270.764635 171.389097 
L 270.885803 171.267929 
L 271.005034 171.144853 
L 271.122297 171.019902 
L 271.237562 170.893105 
L 271.350802 170.764496 
L 271.461986 170.634106 
L 271.571088 170.501969 
L 271.67808 170.368117 
L 271.782934 170.232585 
L 271.885625 170.095406 
L 271.986127 169.956615 
L 272.084413 169.816247 
L 272.180461 169.674337 
L 272.274245 169.530921 
L 272.365741 169.386035 
L 272.454927 169.239716 
L 272.541781 169.092 
L 272.62628 168.942925 
L 272.708403 168.792528 
L 272.788129 168.640846 
L 272.865439 168.487919 
L 272.940313 168.333785 
L 273.012732 168.178482 
L 273.082678 168.02205 
L 273.150133 167.864527 
L 273.21508 167.705955 
L 273.277503 167.546371 
L 273.337387 167.385818 
L 273.394715 167.224334 
L 273.449474 167.061961 
L 273.501651 166.89874 
L 273.55123 166.734712 
L 273.598202 166.569917 
L 273.642552 166.404398 
L 273.684271 166.238197 
L 273.723348 166.071354 
L 273.759773 165.903912 
L 273.793536 165.735913 
L 273.82463 165.5674 
L 273.853046 165.398415 
L 273.878778 165.229 
L 273.901818 165.059198 
L 273.922162 164.889053 
L 273.939803 164.718605 
L 273.954738 164.5479 
L 273.966962 164.376978 
L 273.976474 164.205885 
L 273.983269 164.034662 
L 273.987347 163.863352 
L 273.988706 163.692 
L 273.988706 116.892 
L 273.987347 116.720648 
L 273.983269 116.549338 
L 273.976474 116.378115 
L 273.966962 116.207022 
L 273.954738 116.0361 
L 273.939803 115.865395 
L 273.922162 115.694947 
L 273.901818 115.524802 
L 273.878778 115.355 
L 273.853046 115.185585 
L 273.82463 115.0166 
L 273.793536 114.848087 
L 273.759773 114.680088 
L 273.723348 114.512646 
L 273.684271 114.345803 
L 273.642552 114.179602 
L 273.598202 114.014083 
L 273.55123 113.849288 
L 273.501651 113.68526 
L 273.449474 113.522039 
L 273.394715 113.359666 
L 273.337387 113.198182 
L 273.277503 113.037629 
L 273.21508 112.878045 
L 273.150133 112.719473 
L 273.082678 112.56195 
L 273.012732 112.405518 
L 272.940313 112.250215 
L 272.865439 112.096081 
L 272.788129 111.943154 
L 272.708403 111.791472 
L 272.62628 111.641075 
L 272.541781 111.492 
L 272.454927 111.344284 
L 272.365741 111.197965 
L 272.274245 111.053079 
L 272.180461 110.909663 
L 272.084413 110.767753 
L 271.986127 110.627385 
L 271.885625 110.488594 
L 271.782934 110.351415 
L 271.67808 110.215883 
L 271.571088 110.082031 
L 271.461986 109.949894 
L 271.350802 109.819504 
L 271.237562 109.690895 
L 271.122297 109.564098 
L 271.005034 109.439147 
L 270.885803 109.316071 
L 270.764635 109.194903 
L 270.64156 109.075672 
L 270.516608 108.95841 
L 270.389812 108.843144 
L 270.261202 108.729905 
L 270.130813 108.61872 
L 269.998675 108.509618 
L 269.864823 108.402627 
L 269.729291 108.297772 
L 269.592112 108.195081 
L 269.453321 108.09458 
L 269.312953 107.996293 
L 269.171043 107.900246 
L 269.027627 107.806462 
L 268.882741 107.714965 
L 268.736422 107.625779 
L 268.588706 107.538926 
L 268.439631 107.454427 
L 268.289234 107.372304 
L 268.137553 107.292577 
L 267.984626 107.215267 
L 267.830491 107.140393 
L 267.675189 107.067974 
L 267.518756 106.998029 
L 267.361234 106.930574 
L 267.202661 106.865626 
L 267.043078 106.803203 
L 266.882524 106.74332 
L 266.72104 106.685991 
L 266.558668 106.631232 
L 266.395446 106.579056 
L 266.231418 106.529476 
L 266.066624 106.482505 
L 265.901105 106.438154 
L 265.734903 106.396435 
L 265.56806 106.357358 
L 265.400618 106.320934 
L 265.23262 106.28717 
L 265.064107 106.256076 
L 264.895121 106.22766 
L 264.725707 106.201928 
L 264.555905 106.178888 
L 264.385759 106.158545 
L 264.215312 106.140903 
L 264.044606 106.125968 
L 263.873685 106.113744 
L 263.702591 106.104233 
L 263.531368 106.097437 
L 263.360059 106.093359 
L 263.188706 106.092 
L 206.788706 106.092 
L 206.617354 106.093359 
L 206.446045 106.097437 
L 206.274822 106.104233 
L 206.103728 106.113744 
L 205.932807 106.125968 
L 205.762101 106.140903 
L 205.591654 106.158545 
L 205.421508 106.178888 
L 205.251706 106.201928 
L 205.082291 106.22766 
L 204.913306 106.256076 
L 204.744793 106.28717 
L 204.576794 106.320934 
L 204.409353 106.357358 
L 204.24251 106.396435 
L 204.076308 106.438154 
L 203.910789 106.482505 
L 203.745995 106.529476 
L 203.581966 106.579056 
L 203.418745 106.631232 
L 203.256372 106.685991 
L 203.094889 106.74332 
L 202.934335 106.803203 
L 202.774752 106.865626 
L 202.616179 106.930574 
L 202.458657 106.998029 
L 202.302224 107.067974 
L 202.146921 107.140393 
L 201.992787 107.215267 
L 201.83986 107.292577 
L 201.688179 107.372304 
L 201.537782 107.454427 
L 201.388706 107.538926 
L 201.240991 107.625779 
L 201.094671 107.714965 
L 200.949786 107.806462 
L 200.80637 107.900246 
L 200.66446 107.996293 
L 200.524092 108.09458 
L 200.385301 108.195081 
L 200.248122 108.297772 
L 200.112589 108.402627 
L 199.978738 108.509618 
L 199.8466 108.61872 
L 199.71621 108.729905 
L 199.587601 108.843144 
L 199.460805 108.95841 
L 199.335853 109.075672 
L 199.212778 109.194903 
L 199.091609 109.316071 
L 198.972379 109.439147 
L 198.855116 109.564098 
L 198.73985 109.690895 
L 198.626611 109.819504 
L 198.515426 109.949894 
L 198.406325 110.082031 
L 198.299333 110.215883 
L 198.194478 110.351415 
L 198.091788 110.488594 
L 197.991286 110.627385 
L 197.892999 110.767753 
L 197.796952 110.909663 
L 197.703168 111.053079 
L 197.611672 111.197965 
L 197.522485 111.344284 
L 197.435632 111.492 
L 197.351133 111.641075 
L 197.26901 111.791472 
L 197.189284 111.943154 
L 197.111974 112.096081 
L 197.0371 112.250215 
L 196.964681 112.405518 
L 196.894735 112.56195 
L 196.82728 112.719473 
L 196.762333 112.878045 
L 196.699909 113.037629 
L 196.640026 113.198182 
L 196.582698 113.359666 
L 196.527938 113.522039 
L 196.475762 113.68526 
L 196.426182 113.849288 
L 196.379211 114.014083 
L 196.33486 114.179602 
L 196.293141 114.345803 
L 196.254065 114.512646 
L 196.21764 114.680088 
L 196.183876 114.848087 
L 196.152783 115.0166 
L 196.124366 115.185585 
L 196.098635 115.355 
L 196.075594 115.524802 
L 196.055251 115.694947 
L 196.03761 115.865395 
L 196.022675 116.0361 
L 196.01045 116.207022 
L 196.000939 116.378115 
L 195.994144 116.549338 
L 195.990066 116.720648 
L 195.988706 116.892 
L 195.988706 163.692 
L 195.990066 163.863352 
L 195.994144 164.034662 
L 196.000939 164.205885 
L 196.01045 164.376978 
L 196.022675 164.5479 
L 196.03761 164.718605 
L 196.055251 164.889053 
L 196.075594 165.059198 
L 196.098635 165.229 
L 196.124366 165.398415 
L 196.152783 165.5674 
L 196.183876 165.735913 
L 196.21764 165.903912 
L 196.254065 166.071354 
L 196.293141 166.238197 
L 196.33486 166.404398 
L 196.379211 166.569917 
L 196.426182 166.734712 
L 196.475762 166.89874 
L 196.527938 167.061961 
L 196.582698 167.224334 
L 196.640026 167.385818 
L 196.699909 167.546371 
L 196.762333 167.705955 
L 196.82728 167.864527 
L 196.894735 168.02205 
L 196.964681 168.178482 
L 197.0371 168.333785 
L 197.111974 168.487919 
L 197.189284 168.640846 
L 197.26901 168.792528 
L 197.351133 168.942925 
L 197.435632 169.092 
L 197.522485 169.239716 
L 197.611672 169.386035 
L 197.703168 169.530921 
L 197.796952 169.674337 
L 197.892999 169.816247 
L 197.991286 169.956615 
L 198.091788 170.095406 
L 198.194478 170.232585 
L 198.299333 170.368117 
L 198.406325 170.501969 
L 198.515426 170.634106 
L 198.626611 170.764496 
L 198.73985 170.893105 
L 198.855116 171.019902 
L 198.972379 171.144853 
L 199.091609 171.267929 
L 199.212778 171.389097 
L 199.335853 171.508328 
L 199.460805 171.62559 
L 199.587601 171.740856 
L 199.71621 171.854095 
L 199.8466 171.96528 
L 199.978738 172.074382 
L 200.112589 172.181373 
L 200.248122 172.286228 
L 200.385301 172.388919 
L 200.524092 172.48942 
L 200.66446 172.587707 
L 200.80637 172.683754 
L 200.949786 172.777538 
L 201.094671 172.869035 
L 201.240991 172.958221 
L 201.388706 173.045074 
L 201.537782 173.129573 
L 201.688179 173.211696 
L 201.83986 173.291423 
L 201.992787 173.368733 
L 202.146921 173.443607 
L 202.302224 173.516026 
L 202.458657 173.585971 
L 202.616179 173.653426 
L 202.774752 173.718374 
L 202.934335 173.780797 
L 203.094889 173.84068 
L 203.256372 173.898009 
L 203.418745 173.952768 
L 203.581966 174.004944 
L 203.745995 174.054524 
L 203.910789 174.101495 
L 204.076308 174.145846 
L 204.24251 174.187565 
L 204.409353 174.226642 
L 204.576794 174.263066 
L 204.744793 174.29683 
L 204.913306 174.327924 
L 205.082291 174.35634 
L 205.251706 174.382072 
L 205.421508 174.405112 
L 205.591654 174.425455 
L 205.762101 174.443097 
L 205.932807 174.458032 
L 206.103728 174.470256 
L 206.274822 174.479767 
L 206.446045 174.486563 
L 206.617354 174.490641 
L 206.788706 174.492 
z
" clip-path="url(#p64b857a01b)" style="fill: #d1ffbd; stroke-dasharray: 1.85,0.8; stroke-dashoffset: 0; stroke: #008000; stroke-width: 0.5; stroke-linecap: round"/>
   </g>
   <g id="patch_4">
    <path d="M 194.651953 109.255247 
C 153.251953 109.255247 183.851953 80.455247 137.951953 80.455247 
" clip-path="url(#p64b857a01b)" style="fill: none; stroke: #008000; stroke-width: 2; stroke-linejoin: miter; stroke-linecap: round"/>
   </g>
   <g id="patch_5">
    <path d="M 190.151953 105.655247 
L 199.151953 109.255247 
L 190.151953 112.855247 
z
" clip-path="url(#p64b857a01b)" style="fill: #008000"/>
   </g>
   <g id="line2d_1">
    <path d="M 210.388706 113.292 
L 210.388706 128.292 
L 234.388706 128.292 
L 234.388706 152.292 
L 210.388706 152.292 
L 210.388706 167.292 
" clip-path="url(#p64b857a01b)" style="fill: none; stroke: #000000; stroke-width: 2; stroke-linecap: round"/>
   </g>
   <g id="line2d_2">
    <path d="M 240.388706 128.292 
L 240.388706 152.292 
" clip-path="url(#p64b857a01b)" style="fill: none; stroke: #000000; stroke-width: 2; stroke-linecap: round"/>
   </g>
   <g id="line2d_3">
    <path d="M 240.388706 140.292 
L 259.588706 140.292 
" clip-path="url(#p64b857a01b)" style="fill: none; stroke: #000000; stroke-width: 2; stroke-linecap: round"/>
   </g>
   <g id="line2d_4">
    <path d="M 210.388706 140.292 
L 225.388706 140.292 
" clip-path="url(#p64b857a01b)" style="fill: none; stroke: #000000; stroke-width: 2; stroke-linecap: round"/>
   </g>
   <g id="patch_6">
    <path d="M 225.388706 136.692 
L 234.388706 140.292 
L 225.388706 143.892 
z
" clip-path="url(#p64b857a01b)"/>
   </g>
   <g id="line2d_5">
    <path d="M 210.388706 140.292 
L 201.388706 140.292 
L 192.388706 140.292 
" clip-path="url(#p64b857a01b)" style="fill: none; stroke: #000000; stroke-width: 2; stroke-linecap: round"/>
   </g>
   <g id="line2d_6">
    <path d="M 192.388706 140.292 
L 192.388706 153.792 
L 192.388706 167.292 
" clip-path="url(#p64b857a01b)" style="fill: none; stroke: #000000; stroke-width: 2; stroke-linecap: round"/>
   </g>
   <g id="line2d_7">
    <path d="M 192.388706 167.292 
L 201.388706 167.292 
L 210.388706 167.292 
" clip-path="url(#p64b857a01b)" style="fill: none; stroke: #000000; stroke-width: 2; stroke-linecap: round"/>
   </g>
   <g id="line2d_8">
    <path d="M 210.388706 167.292 
L 210.388706 181.692 
L 201.388706 181.692 
L 219.388706 181.692 
M 204.088706 186.012 
L 216.688706 186.012 
M 208.588706 190.332 
L 212.188706 190.332 
" clip-path="url(#p64b857a01b)" style="fill: none; stroke: #000000; stroke-width: 2; stroke-linecap: round"/>
   </g>
   <g id="line2d_9">
    <path d="M 259.588706 140.292 
L 259.588706 126.792 
L 259.588706 113.292 
" clip-path="url(#p64b857a01b)" style="fill: none; stroke: #000000; stroke-width: 2; stroke-linecap: round"/>
   </g>
   <g id="line2d_10">
    <path d="M 259.588706 113.292 
L 234.988706 113.292 
L 210.388706 113.292 
" clip-path="url(#p64b857a01b)" style="fill: none; stroke: #000000; stroke-width: 2; stroke-linecap: round"/>
   </g>
   <g id="line2d_11">
    <path d="M 210.388706 113.292 
L 210.388706 104.292 
L 210.388706 95.292 
" clip-path="url(#p64b857a01b)" style="fill: none; stroke: #000000; stroke-width: 2; stroke-linecap: round"/>
   </g>
   <g id="line2d_12">
    <path d="M 308.788706 167.292 
L 308.788706 152.292 
L 284.788706 152.292 
L 284.788706 128.292 
L 308.788706 128.292 
L 308.788706 113.292 
" clip-path="url(#p64b857a01b)" style="fill: none; stroke: #000000; stroke-width: 2; stroke-linecap: round"/>
   </g>
   <g id="line2d_13">
    <path d="M 278.788706 152.292 
L 278.788706 128.292 
" clip-path="url(#p64b857a01b)" style="fill: none; stroke: #000000; stroke-width: 2; stroke-linecap: round"/>
   </g>
   <g id="line2d_14">
    <path d="M 259.588706 140.292 
L 278.788706 140.292 
" clip-path="url(#p64b857a01b)" style="fill: none; stroke: #000000; stroke-width: 2; stroke-linecap: round"/>
   </g>
   <g id="line2d_15">
    <path d="M 293.788706 140.292 
L 308.788706 140.292 
" clip-path="url(#p64b857a01b)" style="fill: none; stroke: #000000; stroke-width: 2; stroke-linecap: round"/>
   </g>
   <g id="patch_7">
    <path d="M 293.788706 143.892 
L 284.788706 140.292 
L 293.788706 136.692 
z
" clip-path="url(#p64b857a01b)"/>
   </g>
   <g id="line2d_16">
    <path d="M 308.788706 140.292 
L 317.788706 140.292 
L 326.788706 140.292 
" clip-path="url(#p64b857a01b)" style="fill: none; stroke: #000000; stroke-width: 2; stroke-linecap: round"/>
   </g>
   <g id="line2d_17">
    <path d="M 326.788706 140.292 
L 326.788706 153.792 
L 326.788706 167.292 
" clip-path="url(#p64b857a01b)" style="fill: none; stroke: #000000; stroke-width: 2; stroke-linecap: round"/>
   </g>
   <g id="line2d_18">
    <path d="M 326.788706 167.292 
L 317.788706 167.292 
L 308.788706 167.292 
" clip-path="url(#p64b857a01b)" style="fill: none; stroke: #000000; stroke-width: 2; stroke-linecap: round"/>
   </g>
   <g id="line2d_19">
    <path d="M 308.788706 167.292 
L 308.788706 181.692 
L 299.788706 181.692 
L 317.788706 181.692 
M 302.488706 186.012 
L 315.088706 186.012 
M 306.988706 190.332 
L 310.588706 190.332 
" clip-path="url(#p64b857a01b)" style="fill: none; stroke: #000000; stroke-width: 2; stroke-linecap: round"/>
   </g>
   <g id="line2d_20">
    <path d="M 308.788706 113.292 
L 308.788706 104.292 
L 308.788706 95.292 
" clip-path="url(#p64b857a01b)" style="fill: none; stroke: #000000; stroke-width: 2; stroke-linecap: round"/>
   </g>
   <g id="line2d_21">
    <path d="M 210.388706 12.492 
L 210.388706 73.692 
" clip-path="url(#p64b857a01b)" style="fill: none; stroke: #ff0000; stroke-width: 2; stroke-linecap: round"/>
   </g>
   <g id="patch_8">
    <path d="M 213.988706 73.692 
L 210.388706 84.492 
L 206.788706 73.692 
z
" clip-path="url(#p64b857a01b)" style="fill: #ff0000"/>
   </g>
   <g id="line2d_22">
    <path d="M 308.788706 12.492 
L 308.788706 73.692 
" clip-path="url(#p64b857a01b)" style="fill: none; stroke: #008000; stroke-width: 2; stroke-linecap: round"/>
   </g>
   <g id="patch_9">
    <path d="M 312.388706 73.692 
L 308.788706 84.492 
L 305.188706 73.692 
z
" clip-path="url(#p64b857a01b)" style="fill: #008000"/>
   </g>
   <g id="line2d_23">
    <path d="M 426.388706 77.292 
L 426.388706 41.292 
L 570.388706 41.292 
L 570.388706 113.292 
L 426.388706 113.292 
L 426.388706 77.292 
" clip-path="url(#p64b857a01b)" style="fill: none; stroke: #0000ff; stroke-width: 2; stroke-linecap: round"/>
   </g>
   <g id="text_1">
    <!-- $I_{in}$ -->
    <g style="fill: #ff0000" transform="translate(194.663706 51.941219) scale(0.125 -0.125)">
     <defs>
      <path id="DejaVuSans-Oblique-49" d="M 1081 4666 
L 1716 4666 
L 806 0 
L 172 0 
L 1081 4666 
z
" transform="scale(0.015625)"/>
      <path id="DejaVuSans-Oblique-69" d="M 1172 4863 
L 1747 4863 
L 1606 4134 
L 1031 4134 
L 1172 4863 
z
M 909 3500 
L 1484 3500 
L 800 0 
L 225 0 
L 909 3500 
z
" transform="scale(0.015625)"/>
      <path id="DejaVuSans-Oblique-6e" d="M 3566 2113 
L 3156 0 
L 2578 0 
L 2988 2091 
Q 3016 2238 3031 2350 
Q 3047 2463 3047 2528 
Q 3047 2791 2881 2937 
Q 2716 3084 2419 3084 
Q 1956 3084 1622 2776 
Q 1288 2469 1184 1941 
L 800 0 
L 225 0 
L 903 3500 
L 1478 3500 
L 1363 2950 
Q 1603 3253 1940 3418 
Q 2278 3584 2650 3584 
Q 3113 3584 3367 3334 
Q 3622 3084 3622 2631 
Q 3622 2519 3608 2391 
Q 3594 2263 3566 2113 
z
" transform="scale(0.015625)"/>
     </defs>
     <use xlink:href="#DejaVuSans-Oblique-49" transform="translate(0 0.09375)"/>
     <use xlink:href="#DejaVuSans-Oblique-69" transform="translate(29.492188 -16.3125) scale(0.7)"/>
     <use xlink:href="#DejaVuSans-Oblique-6e" transform="translate(48.94043 -16.3125) scale(0.7)"/>
    </g>
   </g>
   <g id="text_2">
    <!-- $I_{uit}$ -->
    <g style="fill: #008000" transform="translate(314.888706 51.941219) scale(0.125 -0.125)">
     <defs>
      <path id="DejaVuSans-Oblique-75" d="M 428 1388 
L 838 3500 
L 1416 3500 
L 1006 1409 
Q 975 1256 961 1147 
Q 947 1038 947 966 
Q 947 700 1109 554 
Q 1272 409 1569 409 
Q 2031 409 2368 721 
Q 2706 1034 2809 1563 
L 3194 3500 
L 3769 3500 
L 3091 0 
L 2516 0 
L 2631 550 
Q 2388 244 2052 76 
Q 1716 -91 1338 -91 
Q 878 -91 622 161 
Q 366 413 366 863 
Q 366 956 381 1097 
Q 397 1238 428 1388 
z
" transform="scale(0.015625)"/>
      <path id="DejaVuSans-Oblique-74" d="M 2706 3500 
L 2619 3053 
L 1472 3053 
L 1100 1153 
Q 1081 1047 1072 975 
Q 1063 903 1063 863 
Q 1063 663 1183 572 
Q 1303 481 1569 481 
L 2150 481 
L 2053 0 
L 1503 0 
Q 991 0 739 200 
Q 488 400 488 806 
Q 488 878 497 964 
Q 506 1050 525 1153 
L 897 3053 
L 409 3053 
L 500 3500 
L 978 3500 
L 1172 4494 
L 1747 4494 
L 1556 3500 
L 2706 3500 
z
" transform="scale(0.015625)"/>
     </defs>
     <use xlink:href="#DejaVuSans-Oblique-49" transform="translate(0 0.09375)"/>
     <use xlink:href="#DejaVuSans-Oblique-75" transform="translate(29.492188 -16.3125) scale(0.7)"/>
     <use xlink:href="#DejaVuSans-Oblique-69" transform="translate(73.857422 -16.3125) scale(0.7)"/>
     <use xlink:href="#DejaVuSans-Oblique-74" transform="translate(93.305664 -16.3125) scale(0.7)"/>
    </g>
   </g>
   <g id="text_3">
    <!-- $\frac{I_{in}}{\frac{W_1}{L_1}}=\frac{I_{uit}}{\frac{W_2}{L_2}}$ -->
    <g style="fill: #0000ff" transform="translate(462.951206 78.5295) scale(0.225 -0.225)">
     <defs>
      <path id="DejaVuSans-Oblique-57" d="M 616 4666 
L 1228 4666 
L 1453 697 
L 3213 4666 
L 3916 4666 
L 4147 697 
L 5888 4666 
L 6528 4666 
L 4453 0 
L 3659 0 
L 3444 3891 
L 1697 0 
L 903 0 
L 616 4666 
z
" transform="scale(0.015625)"/>
      <path id="DejaVuSans-31" d="M 794 531 
L 1825 531 
L 1825 4091 
L 703 3866 
L 703 4441 
L 1819 4666 
L 2450 4666 
L 2450 531 
L 3481 531 
L 3481 0 
L 794 0 
L 794 531 
z
" transform="scale(0.015625)"/>
      <path id="DejaVuSans-Oblique-4c" d="M 1075 4666 
L 1709 4666 
L 909 525 
L 3181 525 
L 3078 0 
L 172 0 
L 1075 4666 
z
" transform="scale(0.015625)"/>
      <path id="DejaVuSans-3d" d="M 678 2906 
L 4684 2906 
L 4684 2381 
L 678 2381 
L 678 2906 
z
M 678 1631 
L 4684 1631 
L 4684 1100 
L 678 1100 
L 678 1631 
z
" transform="scale(0.015625)"/>
      <path id="DejaVuSans-32" d="M 1228 531 
L 3431 531 
L 3431 0 
L 469 0 
L 469 531 
Q 828 903 1448 1529 
Q 2069 2156 2228 2338 
Q 2531 2678 2651 2914 
Q 2772 3150 2772 3378 
Q 2772 3750 2511 3984 
Q 2250 4219 1831 4219 
Q 1534 4219 1204 4116 
Q 875 4013 500 3803 
L 500 4441 
Q 881 4594 1212 4672 
Q 1544 4750 1819 4750 
Q 2544 4750 2975 4387 
Q 3406 4025 3406 3419 
Q 3406 3131 3298 2873 
Q 3191 2616 2906 2266 
Q 2828 2175 2409 1742 
Q 1991 1309 1228 531 
z
" transform="scale(0.015625)"/>
     </defs>
     <use xlink:href="#DejaVuSans-Oblique-49" transform="translate(7 56.268906) scale(0.7)"/>
     <use xlink:href="#DejaVuSans-Oblique-69" transform="translate(27.644531 44.784531) scale(0.49)"/>
     <use xlink:href="#DejaVuSans-Oblique-6e" transform="translate(41.258301 44.784531) scale(0.49)"/>
     <use xlink:href="#DejaVuSans-Oblique-57" transform="translate(0 -22.189531) scale(0.49)"/>
     <use xlink:href="#DejaVuSans-31" transform="translate(48.449707 -30.228594) scale(0.343)"/>
     <use xlink:href="#DejaVuSans-Oblique-4c" transform="translate(11 -87.827656) scale(0.49)"/>
     <use xlink:href="#DejaVuSans-31" transform="translate(38.299316 -95.866719) scale(0.343)"/>
     <use xlink:href="#DejaVuSans-3d" transform="translate(112.344678 0.987656)"/>
     <use xlink:href="#DejaVuSans-Oblique-49" transform="translate(215.616162 56.965625) scale(0.7)"/>
     <use xlink:href="#DejaVuSans-Oblique-75" transform="translate(236.260693 45.48125) scale(0.49)"/>
     <use xlink:href="#DejaVuSans-Oblique-69" transform="translate(267.316357 45.48125) scale(0.49)"/>
     <use xlink:href="#DejaVuSans-Oblique-74" transform="translate(280.930127 45.48125) scale(0.49)"/>
     <use xlink:href="#DejaVuSans-Oblique-57" transform="translate(218.616162 -22.189531) scale(0.49)"/>
     <use xlink:href="#DejaVuSans-32" transform="translate(267.065869 -30.228594) scale(0.343)"/>
     <use xlink:href="#DejaVuSans-Oblique-4c" transform="translate(229.616162 -87.827656) scale(0.49)"/>
     <use xlink:href="#DejaVuSans-32" transform="translate(256.915479 -95.866719) scale(0.343)"/>
     <path d="M 0 19.784531 
L 0 26.034531 
L 80.362256 26.034531 
L 80.362256 19.784531 
L 0 19.784531 
z
"/>
     <path d="M 0 -47.728594 
L 0 -43.353594 
L 71.612256 -43.353594 
L 71.612256 -47.728594 
L 0 -47.728594 
z
"/>
     <path d="M 215.616162 19.784531 
L 215.616162 26.034531 
L 302.056592 26.034531 
L 302.056592 19.784531 
L 215.616162 19.784531 
z
"/>
     <path d="M 218.616162 -47.728594 
L 218.616162 -43.353594 
L 290.228418 -43.353594 
L 290.228418 -47.728594 
L 218.616162 -47.728594 
z
"/>
    </g>
   </g>
   <g id="text_4">
    <!-- transistor actief -->
    <g style="fill: #008000" transform="translate(35.576562 76.905833) scale(0.125 -0.125)">
     <defs>
      <path id="DejaVuSans-74" d="M 1172 4494 
L 1172 3500 
L 2356 3500 
L 2356 3053 
L 1172 3053 
L 1172 1153 
Q 1172 725 1289 603 
Q 1406 481 1766 481 
L 2356 481 
L 2356 0 
L 1766 0 
Q 1100 0 847 248 
Q 594 497 594 1153 
L 594 3053 
L 172 3053 
L 172 3500 
L 594 3500 
L 594 4494 
L 1172 4494 
z
" transform="scale(0.015625)"/>
      <path id="DejaVuSans-72" d="M 2631 2963 
Q 2534 3019 2420 3045 
Q 2306 3072 2169 3072 
Q 1681 3072 1420 2755 
Q 1159 2438 1159 1844 
L 1159 0 
L 581 0 
L 581 3500 
L 1159 3500 
L 1159 2956 
Q 1341 3275 1631 3429 
Q 1922 3584 2338 3584 
Q 2397 3584 2469 3576 
Q 2541 3569 2628 3553 
L 2631 2963 
z
" transform="scale(0.015625)"/>
      <path id="DejaVuSans-61" d="M 2194 1759 
Q 1497 1759 1228 1600 
Q 959 1441 959 1056 
Q 959 750 1161 570 
Q 1363 391 1709 391 
Q 2188 391 2477 730 
Q 2766 1069 2766 1631 
L 2766 1759 
L 2194 1759 
z
M 3341 1997 
L 3341 0 
L 2766 0 
L 2766 531 
Q 2569 213 2275 61 
Q 1981 -91 1556 -91 
Q 1019 -91 701 211 
Q 384 513 384 1019 
Q 384 1609 779 1909 
Q 1175 2209 1959 2209 
L 2766 2209 
L 2766 2266 
Q 2766 2663 2505 2880 
Q 2244 3097 1772 3097 
Q 1472 3097 1187 3025 
Q 903 2953 641 2809 
L 641 3341 
Q 956 3463 1253 3523 
Q 1550 3584 1831 3584 
Q 2591 3584 2966 3190 
Q 3341 2797 3341 1997 
z
" transform="scale(0.015625)"/>
      <path id="DejaVuSans-6e" d="M 3513 2113 
L 3513 0 
L 2938 0 
L 2938 2094 
Q 2938 2591 2744 2837 
Q 2550 3084 2163 3084 
Q 1697 3084 1428 2787 
Q 1159 2491 1159 1978 
L 1159 0 
L 581 0 
L 581 3500 
L 1159 3500 
L 1159 2956 
Q 1366 3272 1645 3428 
Q 1925 3584 2291 3584 
Q 2894 3584 3203 3211 
Q 3513 2838 3513 2113 
z
" transform="scale(0.015625)"/>
      <path id="DejaVuSans-73" d="M 2834 3397 
L 2834 2853 
Q 2591 2978 2328 3040 
Q 2066 3103 1784 3103 
Q 1356 3103 1142 2972 
Q 928 2841 928 2578 
Q 928 2378 1081 2264 
Q 1234 2150 1697 2047 
L 1894 2003 
Q 2506 1872 2764 1633 
Q 3022 1394 3022 966 
Q 3022 478 2636 193 
Q 2250 -91 1575 -91 
Q 1294 -91 989 -36 
Q 684 19 347 128 
L 347 722 
Q 666 556 975 473 
Q 1284 391 1588 391 
Q 1994 391 2212 530 
Q 2431 669 2431 922 
Q 2431 1156 2273 1281 
Q 2116 1406 1581 1522 
L 1381 1569 
Q 847 1681 609 1914 
Q 372 2147 372 2553 
Q 372 3047 722 3315 
Q 1072 3584 1716 3584 
Q 2034 3584 2315 3537 
Q 2597 3491 2834 3397 
z
" transform="scale(0.015625)"/>
      <path id="DejaVuSans-69" d="M 603 3500 
L 1178 3500 
L 1178 0 
L 603 0 
L 603 3500 
z
M 603 4863 
L 1178 4863 
L 1178 4134 
L 603 4134 
L 603 4863 
z
" transform="scale(0.015625)"/>
      <path id="DejaVuSans-6f" d="M 1959 3097 
Q 1497 3097 1228 2736 
Q 959 2375 959 1747 
Q 959 1119 1226 758 
Q 1494 397 1959 397 
Q 2419 397 2687 759 
Q 2956 1122 2956 1747 
Q 2956 2369 2687 2733 
Q 2419 3097 1959 3097 
z
M 1959 3584 
Q 2709 3584 3137 3096 
Q 3566 2609 3566 1747 
Q 3566 888 3137 398 
Q 2709 -91 1959 -91 
Q 1206 -91 779 398 
Q 353 888 353 1747 
Q 353 2609 779 3096 
Q 1206 3584 1959 3584 
z
" transform="scale(0.015625)"/>
      <path id="DejaVuSans-20" transform="scale(0.015625)"/>
      <path id="DejaVuSans-63" d="M 3122 3366 
L 3122 2828 
Q 2878 2963 2633 3030 
Q 2388 3097 2138 3097 
Q 1578 3097 1268 2742 
Q 959 2388 959 1747 
Q 959 1106 1268 751 
Q 1578 397 2138 397 
Q 2388 397 2633 464 
Q 2878 531 3122 666 
L 3122 134 
Q 2881 22 2623 -34 
Q 2366 -91 2075 -91 
Q 1284 -91 818 406 
Q 353 903 353 1747 
Q 353 2603 823 3093 
Q 1294 3584 2113 3584 
Q 2378 3584 2631 3529 
Q 2884 3475 3122 3366 
z
" transform="scale(0.015625)"/>
      <path id="DejaVuSans-65" d="M 3597 1894 
L 3597 1613 
L 953 1613 
Q 991 1019 1311 708 
Q 1631 397 2203 397 
Q 2534 397 2845 478 
Q 3156 559 3463 722 
L 3463 178 
Q 3153 47 2828 -22 
Q 2503 -91 2169 -91 
Q 1331 -91 842 396 
Q 353 884 353 1716 
Q 353 2575 817 3079 
Q 1281 3584 2069 3584 
Q 2775 3584 3186 3129 
Q 3597 2675 3597 1894 
z
M 3022 2063 
Q 3016 2534 2758 2815 
Q 2500 3097 2075 3097 
Q 1594 3097 1305 2825 
Q 1016 2553 972 2059 
L 3022 2063 
z
" transform="scale(0.015625)"/>
      <path id="DejaVuSans-66" d="M 2375 4863 
L 2375 4384 
L 1825 4384 
Q 1516 4384 1395 4259 
Q 1275 4134 1275 3809 
L 1275 3500 
L 2222 3500 
L 2222 3053 
L 1275 3053 
L 1275 0 
L 697 0 
L 697 3053 
L 147 3053 
L 147 3500 
L 697 3500 
L 697 3744 
Q 697 4328 969 4595 
Q 1241 4863 1831 4863 
L 2375 4863 
z
" transform="scale(0.015625)"/>
     </defs>
     <use xlink:href="#DejaVuSans-74"/>
     <use xlink:href="#DejaVuSans-72" x="39.208984"/>
     <use xlink:href="#DejaVuSans-61" x="80.322266"/>
     <use xlink:href="#DejaVuSans-6e" x="141.601562"/>
     <use xlink:href="#DejaVuSans-73" x="204.980469"/>
     <use xlink:href="#DejaVuSans-69" x="257.080078"/>
     <use xlink:href="#DejaVuSans-73" x="284.863281"/>
     <use xlink:href="#DejaVuSans-74" x="336.962891"/>
     <use xlink:href="#DejaVuSans-6f" x="376.171875"/>
     <use xlink:href="#DejaVuSans-72" x="437.353516"/>
     <use xlink:href="#DejaVuSans-20" x="478.466797"/>
     <use xlink:href="#DejaVuSans-61" x="510.253906"/>
     <use xlink:href="#DejaVuSans-63" x="571.533203"/>
     <use xlink:href="#DejaVuSans-74" x="626.513672"/>
     <use xlink:href="#DejaVuSans-69" x="665.722656"/>
     <use xlink:href="#DejaVuSans-65" x="693.505859"/>
     <use xlink:href="#DejaVuSans-66" x="755.029297"/>
    </g>
    <!-- als diode geschakeld -->
    <g style="fill: #008000" transform="translate(3.6 90.903098) scale(0.125 -0.125)">
     <defs>
      <path id="DejaVuSans-6c" d="M 603 4863 
L 1178 4863 
L 1178 0 
L 603 0 
L 603 4863 
z
" transform="scale(0.015625)"/>
      <path id="DejaVuSans-64" d="M 2906 2969 
L 2906 4863 
L 3481 4863 
L 3481 0 
L 2906 0 
L 2906 525 
Q 2725 213 2448 61 
Q 2172 -91 1784 -91 
Q 1150 -91 751 415 
Q 353 922 353 1747 
Q 353 2572 751 3078 
Q 1150 3584 1784 3584 
Q 2172 3584 2448 3432 
Q 2725 3281 2906 2969 
z
M 947 1747 
Q 947 1113 1208 752 
Q 1469 391 1925 391 
Q 2381 391 2643 752 
Q 2906 1113 2906 1747 
Q 2906 2381 2643 2742 
Q 2381 3103 1925 3103 
Q 1469 3103 1208 2742 
Q 947 2381 947 1747 
z
" transform="scale(0.015625)"/>
      <path id="DejaVuSans-67" d="M 2906 1791 
Q 2906 2416 2648 2759 
Q 2391 3103 1925 3103 
Q 1463 3103 1205 2759 
Q 947 2416 947 1791 
Q 947 1169 1205 825 
Q 1463 481 1925 481 
Q 2391 481 2648 825 
Q 2906 1169 2906 1791 
z
M 3481 434 
Q 3481 -459 3084 -895 
Q 2688 -1331 1869 -1331 
Q 1566 -1331 1297 -1286 
Q 1028 -1241 775 -1147 
L 775 -588 
Q 1028 -725 1275 -790 
Q 1522 -856 1778 -856 
Q 2344 -856 2625 -561 
Q 2906 -266 2906 331 
L 2906 616 
Q 2728 306 2450 153 
Q 2172 0 1784 0 
Q 1141 0 747 490 
Q 353 981 353 1791 
Q 353 2603 747 3093 
Q 1141 3584 1784 3584 
Q 2172 3584 2450 3431 
Q 2728 3278 2906 2969 
L 2906 3500 
L 3481 3500 
L 3481 434 
z
" transform="scale(0.015625)"/>
      <path id="DejaVuSans-68" d="M 3513 2113 
L 3513 0 
L 2938 0 
L 2938 2094 
Q 2938 2591 2744 2837 
Q 2550 3084 2163 3084 
Q 1697 3084 1428 2787 
Q 1159 2491 1159 1978 
L 1159 0 
L 581 0 
L 581 4863 
L 1159 4863 
L 1159 2956 
Q 1366 3272 1645 3428 
Q 1925 3584 2291 3584 
Q 2894 3584 3203 3211 
Q 3513 2838 3513 2113 
z
" transform="scale(0.015625)"/>
      <path id="DejaVuSans-6b" d="M 581 4863 
L 1159 4863 
L 1159 1991 
L 2875 3500 
L 3609 3500 
L 1753 1863 
L 3688 0 
L 2938 0 
L 1159 1709 
L 1159 0 
L 581 0 
L 581 4863 
z
" transform="scale(0.015625)"/>
     </defs>
     <use xlink:href="#DejaVuSans-61"/>
     <use xlink:href="#DejaVuSans-6c" x="61.279297"/>
     <use xlink:href="#DejaVuSans-73" x="89.0625"/>
     <use xlink:href="#DejaVuSans-20" x="141.162109"/>
     <use xlink:href="#DejaVuSans-64" x="172.949219"/>
     <use xlink:href="#DejaVuSans-69" x="236.425781"/>
     <use xlink:href="#DejaVuSans-6f" x="264.208984"/>
     <use xlink:href="#DejaVuSans-64" x="325.390625"/>
     <use xlink:href="#DejaVuSans-65" x="388.867188"/>
     <use xlink:href="#DejaVuSans-20" x="450.390625"/>
     <use xlink:href="#DejaVuSans-67" x="482.177734"/>
     <use xlink:href="#DejaVuSans-65" x="545.654297"/>
     <use xlink:href="#DejaVuSans-73" x="607.177734"/>
     <use xlink:href="#DejaVuSans-63" x="659.277344"/>
     <use xlink:href="#DejaVuSans-68" x="714.257812"/>
     <use xlink:href="#DejaVuSans-61" x="777.636719"/>
     <use xlink:href="#DejaVuSans-6b" x="838.916016"/>
     <use xlink:href="#DejaVuSans-65" x="893.201172"/>
     <use xlink:href="#DejaVuSans-6c" x="954.724609"/>
     <use xlink:href="#DejaVuSans-64" x="982.507812"/>
    </g>
   </g>
   <g id="patch_10">
    <path d="M 210.388706 169.992 
C 211.104755 169.992 211.791572 169.707511 212.297895 169.201188 
C 212.804217 168.694866 213.088706 168.008048 213.088706 167.292 
C 213.088706 166.575952 212.804217 165.889134 212.297895 165.382812 
C 211.791572 164.876489 211.104755 164.592 210.388706 164.592 
C 209.672658 164.592 208.985841 164.876489 208.479518 165.382812 
C 207.973195 165.889134 207.688706 166.575952 207.688706 167.292 
C 207.688706 168.008048 207.973195 168.694866 208.479518 169.201188 
C 208.985841 169.707511 209.672658 169.992 210.388706 169.992 
z
" clip-path="url(#p64b857a01b)" style="stroke: #000000; stroke-width: 2; stroke-linejoin: miter"/>
   </g>
   <g id="patch_11">
    <path d="M 210.388706 115.992 
C 211.104755 115.992 211.791572 115.707511 212.297895 115.201188 
C 212.804217 114.694866 213.088706 114.008048 213.088706 113.292 
C 213.088706 112.575952 212.804217 111.889134 212.297895 111.382812 
C 211.791572 110.876489 211.104755 110.592 210.388706 110.592 
C 209.672658 110.592 208.985841 110.876489 208.479518 111.382812 
C 207.973195 111.889134 207.688706 112.575952 207.688706 113.292 
C 207.688706 114.008048 207.973195 114.694866 208.479518 115.201188 
C 208.985841 115.707511 209.672658 115.992 210.388706 115.992 
z
" clip-path="url(#p64b857a01b)" style="stroke: #000000; stroke-width: 2; stroke-linejoin: miter"/>
   </g>
   <g id="patch_12">
    <path d="M 210.388706 97.992 
C 211.104755 97.992 211.791572 97.707511 212.297895 97.201188 
C 212.804217 96.694866 213.088706 96.008048 213.088706 95.292 
C 213.088706 94.575952 212.804217 93.889134 212.297895 93.382812 
C 211.791572 92.876489 211.104755 92.592 210.388706 92.592 
C 209.672658 92.592 208.985841 92.876489 208.479518 93.382812 
C 207.973195 93.889134 207.688706 94.575952 207.688706 95.292 
C 207.688706 96.008048 207.973195 96.694866 208.479518 97.201188 
C 208.985841 97.707511 209.672658 97.992 210.388706 97.992 
z
" clip-path="url(#p64b857a01b)" style="fill: #ffffff; stroke: #000000; stroke-width: 2; stroke-linejoin: miter"/>
   </g>
   <g id="patch_13">
    <path d="M 308.788706 169.992 
C 309.504755 169.992 310.191572 169.707511 310.697895 169.201188 
C 311.204217 168.694866 311.488706 168.008048 311.488706 167.292 
C 311.488706 166.575952 311.204217 165.889134 310.697895 165.382812 
C 310.191572 164.876489 309.504755 164.592 308.788706 164.592 
C 308.072658 164.592 307.385841 164.876489 306.879518 165.382812 
C 306.373195 165.889134 306.088706 166.575952 306.088706 167.292 
C 306.088706 168.008048 306.373195 168.694866 306.879518 169.201188 
C 307.385841 169.707511 308.072658 169.992 308.788706 169.992 
z
" clip-path="url(#p64b857a01b)" style="stroke: #000000; stroke-width: 2; stroke-linejoin: miter"/>
   </g>
   <g id="patch_14">
    <path d="M 308.788706 97.992 
C 309.504755 97.992 310.191572 97.707511 310.697895 97.201188 
C 311.204217 96.694866 311.488706 96.008048 311.488706 95.292 
C 311.488706 94.575952 311.204217 93.889134 310.697895 93.382812 
C 310.191572 92.876489 309.504755 92.592 308.788706 92.592 
C 308.072658 92.592 307.385841 92.876489 306.879518 93.382812 
C 306.373195 93.889134 306.088706 94.575952 306.088706 95.292 
C 306.088706 96.008048 306.373195 96.694866 306.879518 97.201188 
C 307.385841 97.707511 308.072658 97.992 308.788706 97.992 
z
" clip-path="url(#p64b857a01b)" style="fill: #ffffff; stroke: #000000; stroke-width: 2; stroke-linejoin: miter"/>
   </g>
  </g>
 </g>
 <defs>
  <clipPath id="p64b857a01b">
   <rect x="116.330115" y="3.6" width="475.680429" height="195.624"/>
  </clipPath>
 </defs>
</svg>