<?xml version="1.0" encoding="utf-8" standalone="no"?>
<!DOCTYPE svg PUBLIC "-//W3C//DTD SVG 1.1//EN"
  "http://www.w3.org/Graphics/SVG/1.1/DTD/svg11.dtd">
<svg xmlns:xlink="http://www.w3.org/1999/xlink" width="445.77pt" height="148.77pt" viewBox="0 0 445.77 148.77" xmlns="http://www.w3.org/2000/svg" version="1.1">
 <metadata>
  <rdf:RDF xmlns:dc="http://purl.org/dc/elements/1.1/" xmlns:cc="http://creativecommons.org/ns#" xmlns:rdf="http://www.w3.org/1999/02/22-rdf-syntax-ns#">
   <cc:Work>
    <dc:type rdf:resource="http://purl.org/dc/dcmitype/StillImage"/>
    <dc:date>2024-02-10T16:52:26.045589</dc:date>
    <dc:format>image/svg+xml</dc:format>
    <dc:creator>
     <cc:Agent>
      <dc:title>Matplotlib v3.8.2, https://matplotlib.org/</dc:title>
     </cc:Agent>
    </dc:creator>
   </cc:Work>
  </rdf:RDF>
 </metadata>
 <defs>
  <style type="text/css">*{stroke-linejoin: round; stroke-linecap: butt}</style>
 </defs>
 <g id="figure_1">
  <g id="patch_1">
   <path d="M 0 148.77 
L 445.77 148.77 
L 445.77 0 
L 0 0 
z
" style="fill: #ffffff"/>
  </g>
  <g id="axes_1">
   <g id="patch_2">
    <path d="M 39.036314 125.833617 
C 43.12604 126.883042 47.538172 127.253079 51.890355 126.911661 
C 56.242537 126.570243 60.405309 125.527526 64.017923 123.873872 
C 67.630537 122.220218 70.585532 120.004817 72.626828 117.419656 
C 74.668124 114.834496 75.735 111.956473 75.735 109.035 
C 75.735 106.113527 74.668124 103.235504 72.626828 100.650344 
C 70.585532 98.065183 67.630537 95.849782 64.017923 94.196128 
C 60.405309 92.542474 56.242537 91.499757 51.890355 91.158339 
C 47.538172 90.816921 43.12604 91.186958 39.036314 92.236383 
" clip-path="url(#p8a2e62826a)" style="fill: none; stroke: #ff0000; stroke-width: 2; stroke-linejoin: miter"/>
   </g>
   <g id="patch_3">
    <path d="M 30.301033 122.471406 
L 39.67021 123.184509 
L 38.706807 125.687503 
L 39.042779 125.816819 
L 39.029848 125.850416 
L 38.693876 125.7211 
L 37.730473 128.224094 
z
" clip-path="url(#p8a2e62826a)" style="fill: #ff0000; stroke: #ff0000; stroke-linejoin: miter"/>
   </g>
   <g id="patch_4">
    <path d="M 193.433686 92.236383 
C 189.34396 91.186958 184.931828 90.816921 180.579645 91.158339 
C 176.227463 91.499757 172.064691 92.542474 168.452077 94.196128 
C 164.839463 95.849782 161.884468 98.065183 159.843172 100.650344 
C 157.801876 103.235504 156.735 106.113527 156.735 109.035 
C 156.735 111.956473 157.801876 114.834496 159.843172 117.419656 
C 161.884468 120.004817 164.839463 122.220218 168.452077 123.873872 
C 172.064691 125.527526 176.227463 126.570243 180.579645 126.911661 
C 184.931828 127.253079 189.34396 126.883042 193.433686 125.833617 
" clip-path="url(#p8a2e62826a)" style="fill: none; stroke: #008000; stroke-width: 2; stroke-linejoin: miter"/>
   </g>
   <g id="patch_5">
    <path d="M 201.702833 121.403353 
L 195.044738 128.03357 
L 193.778159 125.669484 
L 193.442187 125.849484 
L 193.425186 125.817751 
L 193.761158 125.637751 
L 192.494579 123.273665 
z
" clip-path="url(#p8a2e62826a)" style="fill: #008000; stroke: #008000; stroke-linejoin: miter"/>
   </g>
   <g id="patch_6">
    <path d="M 314.235 46.035 
L 314.235 10.035 
L 422.235 10.035 
L 422.235 82.035 
L 314.235 82.035 
z
" clip-path="url(#p8a2e62826a)" style="fill: #add8e6; stroke: #add8e6; stroke-linejoin: miter"/>
   </g>
   <g id="line2d_1">
    <path d="M 26.235 82.035 
L 44.235 82.035 
L 62.235 82.035 
" clip-path="url(#p8a2e62826a)" style="fill: none; stroke: #000000; stroke-width: 2; stroke-linecap: round"/>
   </g>
   <g id="line2d_2">
    <path d="M 80.235 118.035 
L 152.235 118.035 
L 152.235 46.035 
L 80.235 46.035 
L 80.235 118.035 
" clip-path="url(#p8a2e62826a)" style="fill: none; stroke: #000000; stroke-width: 2; stroke-linecap: round"/>
   </g>
   <g id="line2d_3">
    <path d="M 80.235 82.035 
L 62.235 82.035 
" clip-path="url(#p8a2e62826a)" style="fill: none; stroke: #000000; stroke-width: 2; stroke-linecap: round"/>
   </g>
   <g id="line2d_4">
    <path d="M 152.235 82.035 
L 170.235 82.035 
" clip-path="url(#p8a2e62826a)" style="fill: none; stroke: #000000; stroke-width: 2; stroke-linecap: round"/>
   </g>
   <g id="line2d_5">
    <path d="M 116.235 118.035 
L 116.235 136.035 
" clip-path="url(#p8a2e62826a)" style="fill: none; stroke: #000000; stroke-width: 2; stroke-linecap: round"/>
   </g>
   <g id="line2d_6">
    <path d="M 116.235 136.035 
L 71.235 136.035 
L 26.235 136.035 
" clip-path="url(#p8a2e62826a)" style="fill: none; stroke: #000000; stroke-width: 2; stroke-linecap: round"/>
   </g>
   <g id="line2d_7">
    <path d="M 170.235 82.035 
L 188.235 82.035 
L 206.235 82.035 
" clip-path="url(#p8a2e62826a)" style="fill: none; stroke: #000000; stroke-width: 2; stroke-linecap: round"/>
   </g>
   <g id="line2d_8">
    <path d="M 116.235 136.035 
L 161.235 136.035 
L 206.235 136.035 
" clip-path="url(#p8a2e62826a)" style="fill: none; stroke: #000000; stroke-width: 2; stroke-linecap: round"/>
   </g>
   <g id="line2d_9">
    <path d="M 314.235 46.035 
L 314.235 10.035 
L 422.235 10.035 
L 422.235 82.035 
L 314.235 82.035 
L 314.235 46.035 
" clip-path="url(#p8a2e62826a)" style="fill: none; stroke: #0000ff; stroke-width: 2; stroke-linecap: round"/>
   </g>
   <g id="text_1">
    <!-- 3 terminal -->
    <g transform="translate(89.295938 75.453492) scale(0.105 -0.105)">
     <defs>
      <path id="DejaVuSans-33" d="M 2597 2516 
Q 3050 2419 3304 2112 
Q 3559 1806 3559 1356 
Q 3559 666 3084 287 
Q 2609 -91 1734 -91 
Q 1441 -91 1130 -33 
Q 819 25 488 141 
L 488 750 
Q 750 597 1062 519 
Q 1375 441 1716 441 
Q 2309 441 2620 675 
Q 2931 909 2931 1356 
Q 2931 1769 2642 2001 
Q 2353 2234 1838 2234 
L 1294 2234 
L 1294 2753 
L 1863 2753 
Q 2328 2753 2575 2939 
Q 2822 3125 2822 3475 
Q 2822 3834 2567 4026 
Q 2313 4219 1838 4219 
Q 1578 4219 1281 4162 
Q 984 4106 628 3988 
L 628 4550 
Q 988 4650 1302 4700 
Q 1616 4750 1894 4750 
Q 2613 4750 3031 4423 
Q 3450 4097 3450 3541 
Q 3450 3153 3228 2886 
Q 3006 2619 2597 2516 
z
" transform="scale(0.015625)"/>
      <path id="DejaVuSans-20" transform="scale(0.015625)"/>
      <path id="DejaVuSans-74" d="M 1172 4494 
L 1172 3500 
L 2356 3500 
L 2356 3053 
L 1172 3053 
L 1172 1153 
Q 1172 725 1289 603 
Q 1406 481 1766 481 
L 2356 481 
L 2356 0 
L 1766 0 
Q 1100 0 847 248 
Q 594 497 594 1153 
L 594 3053 
L 172 3053 
L 172 3500 
L 594 3500 
L 594 4494 
L 1172 4494 
z
" transform="scale(0.015625)"/>
      <path id="DejaVuSans-65" d="M 3597 1894 
L 3597 1613 
L 953 1613 
Q 991 1019 1311 708 
Q 1631 397 2203 397 
Q 2534 397 2845 478 
Q 3156 559 3463 722 
L 3463 178 
Q 3153 47 2828 -22 
Q 2503 -91 2169 -91 
Q 1331 -91 842 396 
Q 353 884 353 1716 
Q 353 2575 817 3079 
Q 1281 3584 2069 3584 
Q 2775 3584 3186 3129 
Q 3597 2675 3597 1894 
z
M 3022 2063 
Q 3016 2534 2758 2815 
Q 2500 3097 2075 3097 
Q 1594 3097 1305 2825 
Q 1016 2553 972 2059 
L 3022 2063 
z
" transform="scale(0.015625)"/>
      <path id="DejaVuSans-72" d="M 2631 2963 
Q 2534 3019 2420 3045 
Q 2306 3072 2169 3072 
Q 1681 3072 1420 2755 
Q 1159 2438 1159 1844 
L 1159 0 
L 581 0 
L 581 3500 
L 1159 3500 
L 1159 2956 
Q 1341 3275 1631 3429 
Q 1922 3584 2338 3584 
Q 2397 3584 2469 3576 
Q 2541 3569 2628 3553 
L 2631 2963 
z
" transform="scale(0.015625)"/>
      <path id="DejaVuSans-6d" d="M 3328 2828 
Q 3544 3216 3844 3400 
Q 4144 3584 4550 3584 
Q 5097 3584 5394 3201 
Q 5691 2819 5691 2113 
L 5691 0 
L 5113 0 
L 5113 2094 
Q 5113 2597 4934 2840 
Q 4756 3084 4391 3084 
Q 3944 3084 3684 2787 
Q 3425 2491 3425 1978 
L 3425 0 
L 2847 0 
L 2847 2094 
Q 2847 2600 2669 2842 
Q 2491 3084 2119 3084 
Q 1678 3084 1418 2786 
Q 1159 2488 1159 1978 
L 1159 0 
L 581 0 
L 581 3500 
L 1159 3500 
L 1159 2956 
Q 1356 3278 1631 3431 
Q 1906 3584 2284 3584 
Q 2666 3584 2933 3390 
Q 3200 3197 3328 2828 
z
" transform="scale(0.015625)"/>
      <path id="DejaVuSans-69" d="M 603 3500 
L 1178 3500 
L 1178 0 
L 603 0 
L 603 3500 
z
M 603 4863 
L 1178 4863 
L 1178 4134 
L 603 4134 
L 603 4863 
z
" transform="scale(0.015625)"/>
      <path id="DejaVuSans-6e" d="M 3513 2113 
L 3513 0 
L 2938 0 
L 2938 2094 
Q 2938 2591 2744 2837 
Q 2550 3084 2163 3084 
Q 1697 3084 1428 2787 
Q 1159 2491 1159 1978 
L 1159 0 
L 581 0 
L 581 3500 
L 1159 3500 
L 1159 2956 
Q 1366 3272 1645 3428 
Q 1925 3584 2291 3584 
Q 2894 3584 3203 3211 
Q 3513 2838 3513 2113 
z
" transform="scale(0.015625)"/>
      <path id="DejaVuSans-61" d="M 2194 1759 
Q 1497 1759 1228 1600 
Q 959 1441 959 1056 
Q 959 750 1161 570 
Q 1363 391 1709 391 
Q 2188 391 2477 730 
Q 2766 1069 2766 1631 
L 2766 1759 
L 2194 1759 
z
M 3341 1997 
L 3341 0 
L 2766 0 
L 2766 531 
Q 2569 213 2275 61 
Q 1981 -91 1556 -91 
Q 1019 -91 701 211 
Q 384 513 384 1019 
Q 384 1609 779 1909 
Q 1175 2209 1959 2209 
L 2766 2209 
L 2766 2266 
Q 2766 2663 2505 2880 
Q 2244 3097 1772 3097 
Q 1472 3097 1187 3025 
Q 903 2953 641 2809 
L 641 3341 
Q 956 3463 1253 3523 
Q 1550 3584 1831 3584 
Q 2591 3584 2966 3190 
Q 3341 2797 3341 1997 
z
" transform="scale(0.015625)"/>
      <path id="DejaVuSans-6c" d="M 603 4863 
L 1178 4863 
L 1178 0 
L 603 0 
L 603 4863 
z
" transform="scale(0.015625)"/>
     </defs>
     <use xlink:href="#DejaVuSans-33"/>
     <use xlink:href="#DejaVuSans-20" x="63.623047"/>
     <use xlink:href="#DejaVuSans-74" x="95.410156"/>
     <use xlink:href="#DejaVuSans-65" x="134.619141"/>
     <use xlink:href="#DejaVuSans-72" x="196.142578"/>
     <use xlink:href="#DejaVuSans-6d" x="235.505859"/>
     <use xlink:href="#DejaVuSans-69" x="332.917969"/>
     <use xlink:href="#DejaVuSans-6e" x="360.701172"/>
     <use xlink:href="#DejaVuSans-61" x="424.080078"/>
     <use xlink:href="#DejaVuSans-6c" x="485.359375"/>
    </g>
    <!--  component -->
    <g transform="translate(84.86543 87.211195) scale(0.105 -0.105)">
     <defs>
      <path id="DejaVuSans-63" d="M 3122 3366 
L 3122 2828 
Q 2878 2963 2633 3030 
Q 2388 3097 2138 3097 
Q 1578 3097 1268 2742 
Q 959 2388 959 1747 
Q 959 1106 1268 751 
Q 1578 397 2138 397 
Q 2388 397 2633 464 
Q 2878 531 3122 666 
L 3122 134 
Q 2881 22 2623 -34 
Q 2366 -91 2075 -91 
Q 1284 -91 818 406 
Q 353 903 353 1747 
Q 353 2603 823 3093 
Q 1294 3584 2113 3584 
Q 2378 3584 2631 3529 
Q 2884 3475 3122 3366 
z
" transform="scale(0.015625)"/>
      <path id="DejaVuSans-6f" d="M 1959 3097 
Q 1497 3097 1228 2736 
Q 959 2375 959 1747 
Q 959 1119 1226 758 
Q 1494 397 1959 397 
Q 2419 397 2687 759 
Q 2956 1122 2956 1747 
Q 2956 2369 2687 2733 
Q 2419 3097 1959 3097 
z
M 1959 3584 
Q 2709 3584 3137 3096 
Q 3566 2609 3566 1747 
Q 3566 888 3137 398 
Q 2709 -91 1959 -91 
Q 1206 -91 779 398 
Q 353 888 353 1747 
Q 353 2609 779 3096 
Q 1206 3584 1959 3584 
z
" transform="scale(0.015625)"/>
      <path id="DejaVuSans-70" d="M 1159 525 
L 1159 -1331 
L 581 -1331 
L 581 3500 
L 1159 3500 
L 1159 2969 
Q 1341 3281 1617 3432 
Q 1894 3584 2278 3584 
Q 2916 3584 3314 3078 
Q 3713 2572 3713 1747 
Q 3713 922 3314 415 
Q 2916 -91 2278 -91 
Q 1894 -91 1617 61 
Q 1341 213 1159 525 
z
M 3116 1747 
Q 3116 2381 2855 2742 
Q 2594 3103 2138 3103 
Q 1681 3103 1420 2742 
Q 1159 2381 1159 1747 
Q 1159 1113 1420 752 
Q 1681 391 2138 391 
Q 2594 391 2855 752 
Q 3116 1113 3116 1747 
z
" transform="scale(0.015625)"/>
     </defs>
     <use xlink:href="#DejaVuSans-20"/>
     <use xlink:href="#DejaVuSans-63" x="31.787109"/>
     <use xlink:href="#DejaVuSans-6f" x="86.767578"/>
     <use xlink:href="#DejaVuSans-6d" x="147.949219"/>
     <use xlink:href="#DejaVuSans-70" x="245.361328"/>
     <use xlink:href="#DejaVuSans-6f" x="308.837891"/>
     <use xlink:href="#DejaVuSans-6e" x="370.019531"/>
     <use xlink:href="#DejaVuSans-65" x="433.398438"/>
     <use xlink:href="#DejaVuSans-6e" x="494.921875"/>
     <use xlink:href="#DejaVuSans-74" x="558.300781"/>
    </g>
   </g>
   <g id="text_2">
    <!-- $I_{in}$ -->
    <g style="fill: #ff0000" transform="translate(42.6725 112.484219) scale(0.125 -0.125)">
     <defs>
      <path id="DejaVuSans-Oblique-49" d="M 1081 4666 
L 1716 4666 
L 806 0 
L 172 0 
L 1081 4666 
z
" transform="scale(0.015625)"/>
      <path id="DejaVuSans-Oblique-69" d="M 1172 4863 
L 1747 4863 
L 1606 4134 
L 1031 4134 
L 1172 4863 
z
M 909 3500 
L 1484 3500 
L 800 0 
L 225 0 
L 909 3500 
z
" transform="scale(0.015625)"/>
      <path id="DejaVuSans-Oblique-6e" d="M 3566 2113 
L 3156 0 
L 2578 0 
L 2988 2091 
Q 3016 2238 3031 2350 
Q 3047 2463 3047 2528 
Q 3047 2791 2881 2937 
Q 2716 3084 2419 3084 
Q 1956 3084 1622 2776 
Q 1288 2469 1184 1941 
L 800 0 
L 225 0 
L 903 3500 
L 1478 3500 
L 1363 2950 
Q 1603 3253 1940 3418 
Q 2278 3584 2650 3584 
Q 3113 3584 3367 3334 
Q 3622 3084 3622 2631 
Q 3622 2519 3608 2391 
Q 3594 2263 3566 2113 
z
" transform="scale(0.015625)"/>
     </defs>
     <use xlink:href="#DejaVuSans-Oblique-49" transform="translate(0 0.09375)"/>
     <use xlink:href="#DejaVuSans-Oblique-69" transform="translate(29.492188 -16.3125) scale(0.7)"/>
     <use xlink:href="#DejaVuSans-Oblique-6e" transform="translate(48.94043 -16.3125) scale(0.7)"/>
    </g>
   </g>
   <g id="text_3">
    <!-- $I_{uit}$ -->
    <g style="fill: #008000" transform="translate(175.985 112.484219) scale(0.125 -0.125)">
     <defs>
      <path id="DejaVuSans-Oblique-75" d="M 428 1388 
L 838 3500 
L 1416 3500 
L 1006 1409 
Q 975 1256 961 1147 
Q 947 1038 947 966 
Q 947 700 1109 554 
Q 1272 409 1569 409 
Q 2031 409 2368 721 
Q 2706 1034 2809 1563 
L 3194 3500 
L 3769 3500 
L 3091 0 
L 2516 0 
L 2631 550 
Q 2388 244 2052 76 
Q 1716 -91 1338 -91 
Q 878 -91 622 161 
Q 366 413 366 863 
Q 366 956 381 1097 
Q 397 1238 428 1388 
z
" transform="scale(0.015625)"/>
      <path id="DejaVuSans-Oblique-74" d="M 2706 3500 
L 2619 3053 
L 1472 3053 
L 1100 1153 
Q 1081 1047 1072 975 
Q 1063 903 1063 863 
Q 1063 663 1183 572 
Q 1303 481 1569 481 
L 2150 481 
L 2053 0 
L 1503 0 
Q 991 0 739 200 
Q 488 400 488 806 
Q 488 878 497 964 
Q 506 1050 525 1153 
L 897 3053 
L 409 3053 
L 500 3500 
L 978 3500 
L 1172 4494 
L 1747 4494 
L 1556 3500 
L 2706 3500 
z
" transform="scale(0.015625)"/>
     </defs>
     <use xlink:href="#DejaVuSans-Oblique-49" transform="translate(0 0.09375)"/>
     <use xlink:href="#DejaVuSans-Oblique-75" transform="translate(29.492188 -16.3125) scale(0.7)"/>
     <use xlink:href="#DejaVuSans-Oblique-69" transform="translate(73.857422 -16.3125) scale(0.7)"/>
     <use xlink:href="#DejaVuSans-Oblique-74" transform="translate(93.305664 -16.3125) scale(0.7)"/>
    </g>
   </g>
   <g id="text_4">
    <!-- $\beta=\frac{\partial I_{uit}}{\partial I_{in}}$ -->
    <g style="fill: #0000ff" transform="translate(341.67 50.82) scale(0.165 -0.165)">
     <defs>
      <path id="DejaVuSans-Oblique-3b2" d="M 872 216 
L 572 -1331 
L -6 -1331 
L 928 3478 
Q 1206 4903 2538 4903 
Q 3888 4903 3659 3700 
Q 3503 2844 2894 2531 
Q 3713 2250 3553 1416 
Q 3272 -69 1759 -66 
Q 1097 -63 872 216 
z
M 1019 966 
Q 1259 422 1875 425 
Q 2775 425 2966 1406 
Q 3138 2288 1675 2219 
L 1778 2750 
Q 2909 2731 3106 3750 
Q 3241 4438 2509 4434 
Q 1691 4434 1503 3459 
L 1019 966 
z
" transform="scale(0.015625)"/>
      <path id="DejaVuSans-3d" d="M 678 2906 
L 4684 2906 
L 4684 2381 
L 678 2381 
L 678 2906 
z
M 678 1631 
L 4684 1631 
L 4684 1100 
L 678 1100 
L 678 1631 
z
" transform="scale(0.015625)"/>
      <path id="DejaVuSans-2202" d="M 1366 -91 
Q 925 -91 638 175 
Q 297 491 297 1063 
Q 297 1656 597 2119 
Q 906 2594 1463 2594 
Q 1828 2594 2116 2366 
Q 2284 2231 2400 2006 
Q 2441 2259 2441 2547 
Q 2441 2969 2341 3213 
Q 2119 3753 1531 3753 
Q 1309 3753 966 3616 
L 966 4141 
Q 1328 4238 1653 4238 
Q 2491 4238 2847 3469 
Q 3013 3106 3013 2566 
Q 3013 2213 2934 1803 
Q 2738 778 2228 291 
Q 1828 -91 1366 -91 
z
M 831 969 
Q 831 656 969 488 
Q 1116 309 1341 309 
Q 1541 309 1700 450 
Q 1925 644 2091 959 
Q 2228 1219 2297 1497 
Q 2019 2169 1538 2169 
Q 1125 2169 944 1625 
Q 831 1288 831 969 
z
" transform="scale(0.015625)"/>
     </defs>
     <use xlink:href="#DejaVuSans-Oblique-3b2" transform="translate(0 0.987656)"/>
     <use xlink:href="#DejaVuSans-3d" transform="translate(83.300781 0.987656)"/>
     <use xlink:href="#DejaVuSans-2202" transform="translate(186.572266 56.965625) scale(0.7)"/>
     <use xlink:href="#DejaVuSans-Oblique-49" transform="translate(222.768555 56.965625) scale(0.7)"/>
     <use xlink:href="#DejaVuSans-Oblique-75" transform="translate(243.413086 45.48125) scale(0.49)"/>
     <use xlink:href="#DejaVuSans-Oblique-69" transform="translate(274.46875 45.48125) scale(0.49)"/>
     <use xlink:href="#DejaVuSans-Oblique-74" transform="translate(288.08252 45.48125) scale(0.49)"/>
     <use xlink:href="#DejaVuSans-2202" transform="translate(196.572266 -37.499844) scale(0.7)"/>
     <use xlink:href="#DejaVuSans-Oblique-49" transform="translate(232.768555 -37.499844) scale(0.7)"/>
     <use xlink:href="#DejaVuSans-Oblique-69" transform="translate(253.413086 -48.984219) scale(0.49)"/>
     <use xlink:href="#DejaVuSans-Oblique-6e" transform="translate(267.026855 -48.984219) scale(0.49)"/>
     <path d="M 186.572266 19.784531 
L 186.572266 26.034531 
L 309.208984 26.034531 
L 309.208984 19.784531 
L 186.572266 19.784531 
z
"/>
    </g>
   </g>
   <g id="patch_7">
    <path d="M 26.235 84.735 
C 26.951048 84.735 27.637866 84.450511 28.144188 83.944188 
C 28.650511 83.437866 28.935 82.751048 28.935 82.035 
C 28.935 81.318952 28.650511 80.632134 28.144188 80.125812 
C 27.637866 79.619489 26.951048 79.335 26.235 79.335 
C 25.518952 79.335 24.832134 79.619489 24.325812 80.125812 
C 23.819489 80.632134 23.535 81.318952 23.535 82.035 
C 23.535 82.751048 23.819489 83.437866 24.325812 83.944188 
C 24.832134 84.450511 25.518952 84.735 26.235 84.735 
z
" clip-path="url(#p8a2e62826a)" style="fill: #ffffff; stroke: #000000; stroke-width: 2; stroke-linejoin: miter"/>
   </g>
   <g id="patch_8">
    <path d="M 116.235 138.735 
C 116.951048 138.735 117.637866 138.450511 118.144188 137.944188 
C 118.650511 137.437866 118.935 136.751048 118.935 136.035 
C 118.935 135.318952 118.650511 134.632134 118.144188 134.125812 
C 117.637866 133.619489 116.951048 133.335 116.235 133.335 
C 115.518952 133.335 114.832134 133.619489 114.325812 134.125812 
C 113.819489 134.632134 113.535 135.318952 113.535 136.035 
C 113.535 136.751048 113.819489 137.437866 114.325812 137.944188 
C 114.832134 138.450511 115.518952 138.735 116.235 138.735 
z
" clip-path="url(#p8a2e62826a)" style="stroke: #000000; stroke-width: 2; stroke-linejoin: miter"/>
   </g>
   <g id="patch_9">
    <path d="M 26.235 138.735 
C 26.951048 138.735 27.637866 138.450511 28.144188 137.944188 
C 28.650511 137.437866 28.935 136.751048 28.935 136.035 
C 28.935 135.318952 28.650511 134.632134 28.144188 134.125812 
C 27.637866 133.619489 26.951048 133.335 26.235 133.335 
C 25.518952 133.335 24.832134 133.619489 24.325812 134.125812 
C 23.819489 134.632134 23.535 135.318952 23.535 136.035 
C 23.535 136.751048 23.819489 137.437866 24.325812 137.944188 
C 24.832134 138.450511 25.518952 138.735 26.235 138.735 
z
" clip-path="url(#p8a2e62826a)" style="fill: #ffffff; stroke: #000000; stroke-width: 2; stroke-linejoin: miter"/>
   </g>
   <g id="patch_10">
    <path d="M 206.235 84.735 
C 206.951048 84.735 207.637866 84.450511 208.144188 83.944188 
C 208.650511 83.437866 208.935 82.751048 208.935 82.035 
C 208.935 81.318952 208.650511 80.632134 208.144188 80.125812 
C 207.637866 79.619489 206.951048 79.335 206.235 79.335 
C 205.518952 79.335 204.832134 79.619489 204.325812 80.125812 
C 203.819489 80.632134 203.535 81.318952 203.535 82.035 
C 203.535 82.751048 203.819489 83.437866 204.325812 83.944188 
C 204.832134 84.450511 205.518952 84.735 206.235 84.735 
z
" clip-path="url(#p8a2e62826a)" style="fill: #ffffff; stroke: #000000; stroke-width: 2; stroke-linejoin: miter"/>
   </g>
   <g id="patch_11">
    <path d="M 206.235 138.735 
C 206.951048 138.735 207.637866 138.450511 208.144188 137.944188 
C 208.650511 137.437866 208.935 136.751048 208.935 136.035 
C 208.935 135.318952 208.650511 134.632134 208.144188 134.125812 
C 207.637866 133.619489 206.951048 133.335 206.235 133.335 
C 205.518952 133.335 204.832134 133.619489 204.325812 134.125812 
C 203.819489 134.632134 203.535 135.318952 203.535 136.035 
C 203.535 136.751048 203.819489 137.437866 204.325812 137.944188 
C 204.832134 138.450511 205.518952 138.735 206.235 138.735 
z
" clip-path="url(#p8a2e62826a)" style="fill: #ffffff; stroke: #000000; stroke-width: 2; stroke-linejoin: miter"/>
   </g>
  </g>
 </g>
 <defs>
  <clipPath id="p8a2e62826a">
   <rect x="3.6" y="3.6" width="438.57" height="141.57"/>
  </clipPath>
 </defs>
</svg>