<?xml version="1.0" encoding="utf-8" standalone="no"?>
<!DOCTYPE svg PUBLIC "-//W3C//DTD SVG 1.1//EN"
  "http://www.w3.org/Graphics/SVG/1.1/DTD/svg11.dtd">
<svg xmlns:xlink="http://www.w3.org/1999/xlink" width="221.106pt" height="150.220656pt" viewBox="0 0 221.106 150.220656" xmlns="http://www.w3.org/2000/svg" version="1.1">
 <metadata>
  <rdf:RDF xmlns:dc="http://purl.org/dc/elements/1.1/" xmlns:cc="http://creativecommons.org/ns#" xmlns:rdf="http://www.w3.org/1999/02/22-rdf-syntax-ns#">
   <cc:Work>
    <dc:type rdf:resource="http://purl.org/dc/dcmitype/StillImage"/>
    <dc:date>2024-01-13T17:15:12.733869</dc:date>
    <dc:format>image/svg+xml</dc:format>
    <dc:creator>
     <cc:Agent>
      <dc:title>Matplotlib v3.8.2, https://matplotlib.org/</dc:title>
     </cc:Agent>
    </dc:creator>
   </cc:Work>
  </rdf:RDF>
 </metadata>
 <defs>
  <style type="text/css">*{stroke-linejoin: round; stroke-linecap: butt}</style>
 </defs>
 <g id="figure_1">
  <g id="patch_1">
   <path d="M 0 150.220656 
L 221.106 150.220656 
L 221.106 0 
L 0 0 
z
" style="fill: #ffffff"/>
  </g>
  <g id="axes_1">
   <g id="patch_2">
    <path d="M 84.483 134.257656 
L 84.654352 134.256297 
L 84.825662 134.252219 
L 84.996885 134.245424 
L 85.167978 134.235912 
L 85.3389 134.223688 
L 85.509605 134.208753 
L 85.680053 134.191112 
L 85.850198 134.170768 
L 86.02 134.147728 
L 86.189415 134.121996 
L 86.3584 134.09358 
L 86.526913 134.062486 
L 86.694912 134.028723 
L 86.862354 133.992298 
L 87.029197 133.953221 
L 87.195398 133.911502 
L 87.360917 133.867152 
L 87.525712 133.82018 
L 87.68974 133.7706 
L 87.852961 133.718424 
L 88.015334 133.663665 
L 88.176818 133.606337 
L 88.337371 133.546453 
L 88.496955 133.48403 
L 88.655527 133.419083 
L 88.81305 133.351628 
L 88.969482 133.281682 
L 89.124785 133.209263 
L 89.278919 133.134389 
L 89.431846 133.057079 
L 89.583528 132.977353 
L 89.733925 132.89523 
L 89.883 132.810731 
L 90.030716 132.723877 
L 90.177035 132.634691 
L 90.321921 132.543194 
L 90.465337 132.449411 
L 90.607247 132.353363 
L 90.747615 132.255077 
L 90.886406 132.154575 
L 91.023585 132.051884 
L 91.159117 131.94703 
L 91.292969 131.840038 
L 91.425106 131.730936 
L 91.555496 131.619752 
L 91.684105 131.506512 
L 91.810902 131.391247 
L 91.935853 131.273984 
L 92.058929 131.154753 
L 92.180097 131.033585 
L 92.299328 130.91051 
L 92.41659 130.785558 
L 92.531856 130.658761 
L 92.645095 130.530152 
L 92.75628 130.399762 
L 92.865382 130.267625 
L 92.972373 130.133773 
L 93.077228 129.998241 
L 93.179919 129.861062 
L 93.28042 129.722271 
L 93.378707 129.581903 
L 93.474754 129.439993 
L 93.568538 129.296577 
L 93.660035 129.151691 
L 93.749221 129.005372 
L 93.836074 128.857656 
L 93.920573 128.708581 
L 94.002696 128.558184 
L 94.082423 128.406503 
L 94.159733 128.253576 
L 94.234607 128.099441 
L 94.307026 127.944138 
L 94.376971 127.787706 
L 94.444426 127.630184 
L 94.509374 127.471611 
L 94.571797 127.312027 
L 94.63168 127.151474 
L 94.689009 126.98999 
L 94.743768 126.827617 
L 94.795944 126.664396 
L 94.845524 126.500368 
L 94.892495 126.335573 
L 94.936846 126.170055 
L 94.978565 126.003853 
L 95.017642 125.83701 
L 95.054066 125.669568 
L 95.08783 125.50157 
L 95.118924 125.333057 
L 95.14734 125.164071 
L 95.173072 124.994657 
L 95.196112 124.824855 
L 95.216455 124.654709 
L 95.234097 124.484262 
L 95.249032 124.313556 
L 95.261256 124.142635 
L 95.270767 123.971541 
L 95.277563 123.800318 
L 95.281641 123.629009 
L 95.283 123.457656 
L 95.283 80.257656 
L 95.281641 80.086304 
L 95.277563 79.914995 
L 95.270767 79.743772 
L 95.261256 79.572678 
L 95.249032 79.401757 
L 95.234097 79.231051 
L 95.216455 79.060604 
L 95.196112 78.890458 
L 95.173072 78.720656 
L 95.14734 78.551241 
L 95.118924 78.382256 
L 95.08783 78.213743 
L 95.054066 78.045744 
L 95.017642 77.878302 
L 94.978565 77.71146 
L 94.936846 77.545258 
L 94.892495 77.379739 
L 94.845524 77.214945 
L 94.795944 77.050916 
L 94.743768 76.887695 
L 94.689009 76.725322 
L 94.63168 76.563839 
L 94.571797 76.403285 
L 94.509374 76.243702 
L 94.444426 76.085129 
L 94.376971 75.927606 
L 94.307026 75.771174 
L 94.234607 75.615871 
L 94.159733 75.461737 
L 94.082423 75.30881 
L 94.002696 75.157129 
L 93.920573 75.006732 
L 93.836074 74.857656 
L 93.749221 74.70994 
L 93.660035 74.563621 
L 93.568538 74.418735 
L 93.474754 74.27532 
L 93.378707 74.13341 
L 93.28042 73.993042 
L 93.179919 73.854251 
L 93.077228 73.717072 
L 92.972373 73.581539 
L 92.865382 73.447687 
L 92.75628 73.31555 
L 92.645095 73.18516 
L 92.531856 73.056551 
L 92.41659 72.929755 
L 92.299328 72.804803 
L 92.180097 72.681727 
L 92.058929 72.560559 
L 91.935853 72.441329 
L 91.810902 72.324066 
L 91.684105 72.2088 
L 91.555496 72.095561 
L 91.425106 71.984376 
L 91.292969 71.875274 
L 91.159117 71.768283 
L 91.023585 71.663428 
L 90.886406 71.560737 
L 90.747615 71.460236 
L 90.607247 71.361949 
L 90.465337 71.265902 
L 90.321921 71.172118 
L 90.177035 71.080622 
L 90.030716 70.991435 
L 89.883 70.904582 
L 89.733925 70.820083 
L 89.583528 70.73796 
L 89.431846 70.658233 
L 89.278919 70.580923 
L 89.124785 70.50605 
L 88.969482 70.433631 
L 88.81305 70.363685 
L 88.655527 70.29623 
L 88.496955 70.231283 
L 88.337371 70.168859 
L 88.176818 70.108976 
L 88.015334 70.051647 
L 87.852961 69.996888 
L 87.68974 69.944712 
L 87.525712 69.895132 
L 87.360917 69.848161 
L 87.195398 69.80381 
L 87.029197 69.762091 
L 86.862354 69.723015 
L 86.694912 69.68659 
L 86.526913 69.652826 
L 86.3584 69.621733 
L 86.189415 69.593316 
L 86.02 69.567585 
L 85.850198 69.544544 
L 85.680053 69.524201 
L 85.509605 69.506559 
L 85.3389 69.491625 
L 85.167978 69.4794 
L 84.996885 69.469889 
L 84.825662 69.463094 
L 84.654352 69.459016 
L 84.483 69.457656 
L 73.683 69.457656 
L 73.511648 69.459016 
L 73.340338 69.463094 
L 73.169115 69.469889 
L 72.998022 69.4794 
L 72.8271 69.491625 
L 72.656395 69.506559 
L 72.485947 69.524201 
L 72.315802 69.544544 
L 72.146 69.567585 
L 71.976585 69.593316 
L 71.8076 69.621733 
L 71.639087 69.652826 
L 71.471088 69.68659 
L 71.303646 69.723015 
L 71.136803 69.762091 
L 70.970602 69.80381 
L 70.805083 69.848161 
L 70.640288 69.895132 
L 70.47626 69.944712 
L 70.313039 69.996888 
L 70.150666 70.051647 
L 69.989182 70.108976 
L 69.828629 70.168859 
L 69.669045 70.231283 
L 69.510473 70.29623 
L 69.35295 70.363685 
L 69.196518 70.433631 
L 69.041215 70.50605 
L 68.887081 70.580923 
L 68.734154 70.658233 
L 68.582472 70.73796 
L 68.432075 70.820083 
L 68.283 70.904582 
L 68.135284 70.991435 
L 67.988965 71.080622 
L 67.844079 71.172118 
L 67.700663 71.265902 
L 67.558753 71.361949 
L 67.418385 71.460236 
L 67.279594 71.560737 
L 67.142415 71.663428 
L 67.006883 71.768283 
L 66.873031 71.875274 
L 66.740894 71.984376 
L 66.610504 72.095561 
L 66.481895 72.2088 
L 66.355098 72.324066 
L 66.230147 72.441329 
L 66.107071 72.560559 
L 65.985903 72.681727 
L 65.866672 72.804803 
L 65.74941 72.929755 
L 65.634144 73.056551 
L 65.520905 73.18516 
L 65.40972 73.31555 
L 65.300618 73.447687 
L 65.193627 73.581539 
L 65.088772 73.717072 
L 64.986081 73.854251 
L 64.88558 73.993042 
L 64.787293 74.13341 
L 64.691246 74.27532 
L 64.597462 74.418735 
L 64.505965 74.563621 
L 64.416779 74.70994 
L 64.329926 74.857656 
L 64.245427 75.006732 
L 64.163304 75.157129 
L 64.083577 75.30881 
L 64.006267 75.461737 
L 63.931393 75.615871 
L 63.858974 75.771174 
L 63.789029 75.927606 
L 63.721574 76.085129 
L 63.656626 76.243702 
L 63.594203 76.403285 
L 63.53432 76.563839 
L 63.476991 76.725322 
L 63.422232 76.887695 
L 63.370056 77.050916 
L 63.320476 77.214945 
L 63.273505 77.379739 
L 63.229154 77.545258 
L 63.187435 77.71146 
L 63.148358 77.878302 
L 63.111934 78.045744 
L 63.07817 78.213743 
L 63.047076 78.382256 
L 63.01866 78.551241 
L 62.992928 78.720656 
L 62.969888 78.890458 
L 62.949545 79.060604 
L 62.931903 79.231051 
L 62.916968 79.401757 
L 62.904744 79.572678 
L 62.895233 79.743772 
L 62.888437 79.914995 
L 62.884359 80.086304 
L 62.883 80.257656 
L 62.883 123.457656 
L 62.884359 123.629009 
L 62.888437 123.800318 
L 62.895233 123.971541 
L 62.904744 124.142635 
L 62.916968 124.313556 
L 62.931903 124.484262 
L 62.949545 124.654709 
L 62.969888 124.824855 
L 62.992928 124.994657 
L 63.01866 125.164071 
L 63.047076 125.333057 
L 63.07817 125.50157 
L 63.111934 125.669568 
L 63.148358 125.83701 
L 63.187435 126.003853 
L 63.229154 126.170055 
L 63.273505 126.335573 
L 63.320476 126.500368 
L 63.370056 126.664396 
L 63.422232 126.827617 
L 63.476991 126.98999 
L 63.53432 127.151474 
L 63.594203 127.312027 
L 63.656626 127.471611 
L 63.721574 127.630184 
L 63.789029 127.787706 
L 63.858974 127.944138 
L 63.931393 128.099441 
L 64.006267 128.253576 
L 64.083577 128.406503 
L 64.163304 128.558184 
L 64.245427 128.708581 
L 64.329926 128.857656 
L 64.416779 129.005372 
L 64.505965 129.151691 
L 64.597462 129.296577 
L 64.691246 129.439993 
L 64.787293 129.581903 
L 64.88558 129.722271 
L 64.986081 129.861062 
L 65.088772 129.998241 
L 65.193627 130.133773 
L 65.300618 130.267625 
L 65.40972 130.399762 
L 65.520905 130.530152 
L 65.634144 130.658761 
L 65.74941 130.785558 
L 65.866672 130.91051 
L 65.985903 131.033585 
L 66.107071 131.154753 
L 66.230147 131.273984 
L 66.355098 131.391247 
L 66.481895 131.506512 
L 66.610504 131.619752 
L 66.740894 131.730936 
L 66.873031 131.840038 
L 67.006883 131.94703 
L 67.142415 132.051884 
L 67.279594 132.154575 
L 67.418385 132.255077 
L 67.558753 132.353363 
L 67.700663 132.449411 
L 67.844079 132.543194 
L 67.988965 132.634691 
L 68.135284 132.723877 
L 68.283 132.810731 
L 68.432075 132.89523 
L 68.582472 132.977353 
L 68.734154 133.057079 
L 68.887081 133.134389 
L 69.041215 133.209263 
L 69.196518 133.281682 
L 69.35295 133.351628 
L 69.510473 133.419083 
L 69.669045 133.48403 
L 69.828629 133.546453 
L 69.989182 133.606337 
L 70.150666 133.663665 
L 70.313039 133.718424 
L 70.47626 133.7706 
L 70.640288 133.82018 
L 70.805083 133.867152 
L 70.970602 133.911502 
L 71.136803 133.953221 
L 71.303646 133.992298 
L 71.471088 134.028723 
L 71.639087 134.062486 
L 71.8076 134.09358 
L 71.976585 134.121996 
L 72.146 134.147728 
L 72.315802 134.170768 
L 72.485947 134.191112 
L 72.656395 134.208753 
L 72.8271 134.223688 
L 72.998022 134.235912 
L 73.169115 134.245424 
L 73.340338 134.252219 
L 73.511648 134.256297 
L 73.683 134.257656 
z
" clip-path="url(#p84431af220)" style="fill: #00ffff; stroke-dasharray: 1.85,0.8; stroke-dashoffset: 0; stroke: #00ffff; stroke-width: 0.5; stroke-linecap: round"/>
   </g>
   <g id="patch_3">
    <path d="M 174.483 134.257656 
L 174.654352 134.256297 
L 174.825662 134.252219 
L 174.996885 134.245424 
L 175.167978 134.235912 
L 175.3389 134.223688 
L 175.509605 134.208753 
L 175.680053 134.191112 
L 175.850198 134.170768 
L 176.02 134.147728 
L 176.189415 134.121996 
L 176.3584 134.09358 
L 176.526913 134.062486 
L 176.694912 134.028723 
L 176.862354 133.992298 
L 177.029197 133.953221 
L 177.195398 133.911502 
L 177.360917 133.867152 
L 177.525712 133.82018 
L 177.68974 133.7706 
L 177.852961 133.718424 
L 178.015334 133.663665 
L 178.176818 133.606337 
L 178.337371 133.546453 
L 178.496955 133.48403 
L 178.655527 133.419083 
L 178.81305 133.351628 
L 178.969482 133.281682 
L 179.124785 133.209263 
L 179.278919 133.134389 
L 179.431846 133.057079 
L 179.583528 132.977353 
L 179.733925 132.89523 
L 179.883 132.810731 
L 180.030716 132.723877 
L 180.177035 132.634691 
L 180.321921 132.543194 
L 180.465337 132.449411 
L 180.607247 132.353363 
L 180.747615 132.255077 
L 180.886406 132.154575 
L 181.023585 132.051884 
L 181.159117 131.94703 
L 181.292969 131.840038 
L 181.425106 131.730936 
L 181.555496 131.619752 
L 181.684105 131.506512 
L 181.810902 131.391247 
L 181.935853 131.273984 
L 182.058929 131.154753 
L 182.180097 131.033585 
L 182.299328 130.91051 
L 182.41659 130.785558 
L 182.531856 130.658761 
L 182.645095 130.530152 
L 182.75628 130.399762 
L 182.865382 130.267625 
L 182.972373 130.133773 
L 183.077228 129.998241 
L 183.179919 129.861062 
L 183.28042 129.722271 
L 183.378707 129.581903 
L 183.474754 129.439993 
L 183.568538 129.296577 
L 183.660035 129.151691 
L 183.749221 129.005372 
L 183.836074 128.857656 
L 183.920573 128.708581 
L 184.002696 128.558184 
L 184.082423 128.406503 
L 184.159733 128.253576 
L 184.234607 128.099441 
L 184.307026 127.944138 
L 184.376971 127.787706 
L 184.444426 127.630184 
L 184.509374 127.471611 
L 184.571797 127.312027 
L 184.63168 127.151474 
L 184.689009 126.98999 
L 184.743768 126.827617 
L 184.795944 126.664396 
L 184.845524 126.500368 
L 184.892495 126.335573 
L 184.936846 126.170055 
L 184.978565 126.003853 
L 185.017642 125.83701 
L 185.054066 125.669568 
L 185.08783 125.50157 
L 185.118924 125.333057 
L 185.14734 125.164071 
L 185.173072 124.994657 
L 185.196112 124.824855 
L 185.216455 124.654709 
L 185.234097 124.484262 
L 185.249032 124.313556 
L 185.261256 124.142635 
L 185.270767 123.971541 
L 185.277563 123.800318 
L 185.281641 123.629009 
L 185.283 123.457656 
L 185.283 98.257656 
L 185.281641 98.086304 
L 185.277563 97.914995 
L 185.270767 97.743772 
L 185.261256 97.572678 
L 185.249032 97.401757 
L 185.234097 97.231051 
L 185.216455 97.060604 
L 185.196112 96.890458 
L 185.173072 96.720656 
L 185.14734 96.551241 
L 185.118924 96.382256 
L 185.08783 96.213743 
L 185.054066 96.045744 
L 185.017642 95.878302 
L 184.978565 95.71146 
L 184.936846 95.545258 
L 184.892495 95.379739 
L 184.845524 95.214945 
L 184.795944 95.050916 
L 184.743768 94.887695 
L 184.689009 94.725322 
L 184.63168 94.563839 
L 184.571797 94.403285 
L 184.509374 94.243702 
L 184.444426 94.085129 
L 184.376971 93.927606 
L 184.307026 93.771174 
L 184.234607 93.615871 
L 184.159733 93.461737 
L 184.082423 93.30881 
L 184.002696 93.157129 
L 183.920573 93.006732 
L 183.836074 92.857656 
L 183.749221 92.70994 
L 183.660035 92.563621 
L 183.568538 92.418735 
L 183.474754 92.27532 
L 183.378707 92.13341 
L 183.28042 91.993042 
L 183.179919 91.854251 
L 183.077228 91.717072 
L 182.972373 91.581539 
L 182.865382 91.447687 
L 182.75628 91.31555 
L 182.645095 91.18516 
L 182.531856 91.056551 
L 182.41659 90.929755 
L 182.299328 90.804803 
L 182.180097 90.681727 
L 182.058929 90.560559 
L 181.935853 90.441329 
L 181.810902 90.324066 
L 181.684105 90.2088 
L 181.555496 90.095561 
L 181.425106 89.984376 
L 181.292969 89.875274 
L 181.159117 89.768283 
L 181.023585 89.663428 
L 180.886406 89.560737 
L 180.747615 89.460236 
L 180.607247 89.361949 
L 180.465337 89.265902 
L 180.321921 89.172118 
L 180.177035 89.080622 
L 180.030716 88.991435 
L 179.883 88.904582 
L 179.733925 88.820083 
L 179.583528 88.73796 
L 179.431846 88.658233 
L 179.278919 88.580923 
L 179.124785 88.50605 
L 178.969482 88.433631 
L 178.81305 88.363685 
L 178.655527 88.29623 
L 178.496955 88.231283 
L 178.337371 88.168859 
L 178.176818 88.108976 
L 178.015334 88.051647 
L 177.852961 87.996888 
L 177.68974 87.944712 
L 177.525712 87.895132 
L 177.360917 87.848161 
L 177.195398 87.80381 
L 177.029197 87.762091 
L 176.862354 87.723015 
L 176.694912 87.68659 
L 176.526913 87.652826 
L 176.3584 87.621733 
L 176.189415 87.593316 
L 176.02 87.567585 
L 175.850198 87.544544 
L 175.680053 87.524201 
L 175.509605 87.506559 
L 175.3389 87.491625 
L 175.167978 87.4794 
L 174.996885 87.469889 
L 174.825662 87.463094 
L 174.654352 87.459016 
L 174.483 87.457656 
L 128.187 87.457656 
L 128.015648 87.459016 
L 127.844338 87.463094 
L 127.673115 87.469889 
L 127.502022 87.4794 
L 127.3311 87.491625 
L 127.160395 87.506559 
L 126.989947 87.524201 
L 126.819802 87.544544 
L 126.65 87.567585 
L 126.480585 87.593316 
L 126.3116 87.621733 
L 126.143087 87.652826 
L 125.975088 87.68659 
L 125.807646 87.723015 
L 125.640803 87.762091 
L 125.474602 87.80381 
L 125.309083 87.848161 
L 125.144288 87.895132 
L 124.98026 87.944712 
L 124.817039 87.996888 
L 124.654666 88.051647 
L 124.493182 88.108976 
L 124.332629 88.168859 
L 124.173045 88.231283 
L 124.014473 88.29623 
L 123.85695 88.363685 
L 123.700518 88.433631 
L 123.545215 88.50605 
L 123.391081 88.580923 
L 123.238154 88.658233 
L 123.086472 88.73796 
L 122.936075 88.820083 
L 122.787 88.904582 
L 122.639284 88.991435 
L 122.492965 89.080622 
L 122.348079 89.172118 
L 122.204663 89.265902 
L 122.062753 89.361949 
L 121.922385 89.460236 
L 121.783594 89.560737 
L 121.646415 89.663428 
L 121.510883 89.768283 
L 121.377031 89.875274 
L 121.244894 89.984376 
L 121.114504 90.095561 
L 120.985895 90.2088 
L 120.859098 90.324066 
L 120.734147 90.441329 
L 120.611071 90.560559 
L 120.489903 90.681727 
L 120.370672 90.804803 
L 120.25341 90.929755 
L 120.138144 91.056551 
L 120.024905 91.18516 
L 119.91372 91.31555 
L 119.804618 91.447687 
L 119.697627 91.581539 
L 119.592772 91.717072 
L 119.490081 91.854251 
L 119.38958 91.993042 
L 119.291293 92.13341 
L 119.195246 92.27532 
L 119.101462 92.418735 
L 119.009965 92.563621 
L 118.920779 92.70994 
L 118.833926 92.857656 
L 118.749427 93.006732 
L 118.667304 93.157129 
L 118.587577 93.30881 
L 118.510267 93.461737 
L 118.435393 93.615871 
L 118.362974 93.771174 
L 118.293029 93.927606 
L 118.225574 94.085129 
L 118.160626 94.243702 
L 118.098203 94.403285 
L 118.03832 94.563839 
L 117.980991 94.725322 
L 117.926232 94.887695 
L 117.874056 95.050916 
L 117.824476 95.214945 
L 117.777505 95.379739 
L 117.733154 95.545258 
L 117.691435 95.71146 
L 117.652358 95.878302 
L 117.615934 96.045744 
L 117.58217 96.213743 
L 117.551076 96.382256 
L 117.52266 96.551241 
L 117.496928 96.720656 
L 117.473888 96.890458 
L 117.453545 97.060604 
L 117.435903 97.231051 
L 117.420968 97.401757 
L 117.408744 97.572678 
L 117.399233 97.743772 
L 117.392437 97.914995 
L 117.388359 98.086304 
L 117.387 98.257656 
L 117.387 123.457656 
L 117.388359 123.629009 
L 117.392437 123.800318 
L 117.399233 123.971541 
L 117.408744 124.142635 
L 117.420968 124.313556 
L 117.435903 124.484262 
L 117.453545 124.654709 
L 117.473888 124.824855 
L 117.496928 124.994657 
L 117.52266 125.164071 
L 117.551076 125.333057 
L 117.58217 125.50157 
L 117.615934 125.669568 
L 117.652358 125.83701 
L 117.691435 126.003853 
L 117.733154 126.170055 
L 117.777505 126.335573 
L 117.824476 126.500368 
L 117.874056 126.664396 
L 117.926232 126.827617 
L 117.980991 126.98999 
L 118.03832 127.151474 
L 118.098203 127.312027 
L 118.160626 127.471611 
L 118.225574 127.630184 
L 118.293029 127.787706 
L 118.362974 127.944138 
L 118.435393 128.099441 
L 118.510267 128.253576 
L 118.587577 128.406503 
L 118.667304 128.558184 
L 118.749427 128.708581 
L 118.833926 128.857656 
L 118.920779 129.005372 
L 119.009965 129.151691 
L 119.101462 129.296577 
L 119.195246 129.439993 
L 119.291293 129.581903 
L 119.38958 129.722271 
L 119.490081 129.861062 
L 119.592772 129.998241 
L 119.697627 130.133773 
L 119.804618 130.267625 
L 119.91372 130.399762 
L 120.024905 130.530152 
L 120.138144 130.658761 
L 120.25341 130.785558 
L 120.370672 130.91051 
L 120.489903 131.033585 
L 120.611071 131.154753 
L 120.734147 131.273984 
L 120.859098 131.391247 
L 120.985895 131.506512 
L 121.114504 131.619752 
L 121.244894 131.730936 
L 121.377031 131.840038 
L 121.510883 131.94703 
L 121.646415 132.051884 
L 121.783594 132.154575 
L 121.922385 132.255077 
L 122.062753 132.353363 
L 122.204663 132.449411 
L 122.348079 132.543194 
L 122.492965 132.634691 
L 122.639284 132.723877 
L 122.787 132.810731 
L 122.936075 132.89523 
L 123.086472 132.977353 
L 123.238154 133.057079 
L 123.391081 133.134389 
L 123.545215 133.209263 
L 123.700518 133.281682 
L 123.85695 133.351628 
L 124.014473 133.419083 
L 124.173045 133.48403 
L 124.332629 133.546453 
L 124.493182 133.606337 
L 124.654666 133.663665 
L 124.817039 133.718424 
L 124.98026 133.7706 
L 125.144288 133.82018 
L 125.309083 133.867152 
L 125.474602 133.911502 
L 125.640803 133.953221 
L 125.807646 133.992298 
L 125.975088 134.028723 
L 126.143087 134.062486 
L 126.3116 134.09358 
L 126.480585 134.121996 
L 126.65 134.147728 
L 126.819802 134.170768 
L 126.989947 134.191112 
L 127.160395 134.208753 
L 127.3311 134.223688 
L 127.502022 134.235912 
L 127.673115 134.245424 
L 127.844338 134.252219 
L 128.015648 134.256297 
L 128.187 134.257656 
z
" clip-path="url(#p84431af220)" style="fill: #00ffff; stroke-dasharray: 5.55,2.4; stroke-dashoffset: 0; stroke: #00ffff; stroke-width: 1.5; stroke-linecap: round"/>
   </g>
   <g id="patch_4">
    <path d="M 88.083 113.557656 
L 79.083 126.157656 
L 70.083 113.557656 
L 88.083 113.557656 
z
" clip-path="url(#p84431af220)" style="fill: none; stroke: #000000; stroke-width: 2; stroke-linecap: round"/>
   </g>
   <g id="patch_5">
    <path d="M 88.083 77.557656 
L 79.083 90.157656 
L 70.083 77.557656 
L 88.083 77.557656 
z
" clip-path="url(#p84431af220)" style="fill: none; stroke: #000000; stroke-width: 2; stroke-linecap: round"/>
   </g>
   <g id="patch_6">
    <path d="M 165.483 80.857656 
L 165.654352 80.856297 
L 165.825662 80.852219 
L 165.996885 80.845424 
L 166.167978 80.835912 
L 166.3389 80.823688 
L 166.509605 80.808753 
L 166.680053 80.791112 
L 166.850198 80.770768 
L 167.02 80.747728 
L 167.189415 80.721996 
L 167.3584 80.69358 
L 167.526913 80.662486 
L 167.694912 80.628723 
L 167.862354 80.592298 
L 168.029197 80.553221 
L 168.195398 80.511502 
L 168.360917 80.467152 
L 168.525712 80.42018 
L 168.68974 80.3706 
L 168.852961 80.318424 
L 169.015334 80.263665 
L 169.176818 80.206337 
L 169.337371 80.146453 
L 169.496955 80.08403 
L 169.655527 80.019083 
L 169.81305 79.951628 
L 169.969482 79.881682 
L 170.124785 79.809263 
L 170.278919 79.734389 
L 170.431846 79.657079 
L 170.583528 79.577353 
L 170.733925 79.49523 
L 170.883 79.410731 
L 171.030716 79.323877 
L 171.177035 79.234691 
L 171.321921 79.143194 
L 171.465337 79.049411 
L 171.607247 78.953363 
L 171.747615 78.855077 
L 171.886406 78.754575 
L 172.023585 78.651884 
L 172.159117 78.54703 
L 172.292969 78.440038 
L 172.425106 78.330936 
L 172.555496 78.219752 
L 172.684105 78.106512 
L 172.810902 77.991247 
L 172.935853 77.873984 
L 173.058929 77.754753 
L 173.180097 77.633585 
L 173.299328 77.51051 
L 173.41659 77.385558 
L 173.531856 77.258761 
L 173.645095 77.130152 
L 173.75628 76.999762 
L 173.865382 76.867625 
L 173.972373 76.733773 
L 174.077228 76.598241 
L 174.179919 76.461062 
L 174.28042 76.322271 
L 174.378707 76.181903 
L 174.474754 76.039993 
L 174.568538 75.896577 
L 174.660035 75.751691 
L 174.749221 75.605372 
L 174.836074 75.457656 
L 174.920573 75.308581 
L 175.002696 75.158184 
L 175.082423 75.006503 
L 175.159733 74.853576 
L 175.234607 74.699441 
L 175.307026 74.544138 
L 175.376971 74.387706 
L 175.444426 74.230184 
L 175.509374 74.071611 
L 175.571797 73.912027 
L 175.63168 73.751474 
L 175.689009 73.58999 
L 175.743768 73.427617 
L 175.795944 73.264396 
L 175.845524 73.100368 
L 175.892495 72.935573 
L 175.936846 72.770055 
L 175.978565 72.603853 
L 176.017642 72.43701 
L 176.054066 72.269568 
L 176.08783 72.10157 
L 176.118924 71.933057 
L 176.14734 71.764071 
L 176.173072 71.594657 
L 176.196112 71.424855 
L 176.216455 71.254709 
L 176.234097 71.084262 
L 176.249032 70.913556 
L 176.261256 70.742635 
L 176.270767 70.571541 
L 176.277563 70.400318 
L 176.281641 70.229009 
L 176.283 70.057656 
L 176.283 48.097656 
L 176.281641 47.926304 
L 176.277563 47.754995 
L 176.270767 47.583772 
L 176.261256 47.412678 
L 176.249032 47.241757 
L 176.234097 47.071051 
L 176.216455 46.900604 
L 176.196112 46.730458 
L 176.173072 46.560656 
L 176.14734 46.391241 
L 176.118924 46.222256 
L 176.08783 46.053743 
L 176.054066 45.885744 
L 176.017642 45.718302 
L 175.978565 45.55146 
L 175.936846 45.385258 
L 175.892495 45.219739 
L 175.845524 45.054945 
L 175.795944 44.890916 
L 175.743768 44.727695 
L 175.689009 44.565322 
L 175.63168 44.403839 
L 175.571797 44.243285 
L 175.509374 44.083702 
L 175.444426 43.925129 
L 175.376971 43.767606 
L 175.307026 43.611174 
L 175.234607 43.455871 
L 175.159733 43.301737 
L 175.082423 43.14881 
L 175.002696 42.997129 
L 174.920573 42.846732 
L 174.836074 42.697656 
L 174.749221 42.54994 
L 174.660035 42.403621 
L 174.568538 42.258735 
L 174.474754 42.11532 
L 174.378707 41.97341 
L 174.28042 41.833042 
L 174.179919 41.694251 
L 174.077228 41.557072 
L 173.972373 41.421539 
L 173.865382 41.287687 
L 173.75628 41.15555 
L 173.645095 41.02516 
L 173.531856 40.896551 
L 173.41659 40.769755 
L 173.299328 40.644803 
L 173.180097 40.521727 
L 173.058929 40.400559 
L 172.935853 40.281329 
L 172.810902 40.164066 
L 172.684105 40.0488 
L 172.555496 39.935561 
L 172.425106 39.824376 
L 172.292969 39.715274 
L 172.159117 39.608283 
L 172.023585 39.503428 
L 171.886406 39.400737 
L 171.747615 39.300236 
L 171.607247 39.201949 
L 171.465337 39.105902 
L 171.321921 39.012118 
L 171.177035 38.920622 
L 171.030716 38.831435 
L 170.883 38.744582 
L 170.733925 38.660083 
L 170.583528 38.57796 
L 170.431846 38.498233 
L 170.278919 38.420923 
L 170.124785 38.34605 
L 169.969482 38.273631 
L 169.81305 38.203685 
L 169.655527 38.13623 
L 169.496955 38.071283 
L 169.337371 38.008859 
L 169.176818 37.948976 
L 169.015334 37.891647 
L 168.852961 37.836888 
L 168.68974 37.784712 
L 168.525712 37.735132 
L 168.360917 37.688161 
L 168.195398 37.64381 
L 168.029197 37.602091 
L 167.862354 37.563015 
L 167.694912 37.52659 
L 167.526913 37.492826 
L 167.3584 37.461733 
L 167.189415 37.433316 
L 167.02 37.407585 
L 166.850198 37.384544 
L 166.680053 37.364201 
L 166.509605 37.346559 
L 166.3389 37.331625 
L 166.167978 37.3194 
L 165.996885 37.309889 
L 165.825662 37.303094 
L 165.654352 37.299016 
L 165.483 37.297656 
L 145.623 37.297656 
L 145.451648 37.299016 
L 145.280338 37.303094 
L 145.109115 37.309889 
L 144.938022 37.3194 
L 144.7671 37.331625 
L 144.596395 37.346559 
L 144.425947 37.364201 
L 144.255802 37.384544 
L 144.086 37.407585 
L 143.916585 37.433316 
L 143.7476 37.461733 
L 143.579087 37.492826 
L 143.411088 37.52659 
L 143.243646 37.563015 
L 143.076803 37.602091 
L 142.910602 37.64381 
L 142.745083 37.688161 
L 142.580288 37.735132 
L 142.41626 37.784712 
L 142.253039 37.836888 
L 142.090666 37.891647 
L 141.929182 37.948976 
L 141.768629 38.008859 
L 141.609045 38.071283 
L 141.450473 38.13623 
L 141.29295 38.203685 
L 141.136518 38.273631 
L 140.981215 38.34605 
L 140.827081 38.420923 
L 140.674154 38.498233 
L 140.522472 38.57796 
L 140.372075 38.660083 
L 140.223 38.744582 
L 140.075284 38.831435 
L 139.928965 38.920622 
L 139.784079 39.012118 
L 139.640663 39.105902 
L 139.498753 39.201949 
L 139.358385 39.300236 
L 139.219594 39.400737 
L 139.082415 39.503428 
L 138.946883 39.608283 
L 138.813031 39.715274 
L 138.680894 39.824376 
L 138.550504 39.935561 
L 138.421895 40.0488 
L 138.295098 40.164066 
L 138.170147 40.281329 
L 138.047071 40.400559 
L 137.925903 40.521727 
L 137.806672 40.644803 
L 137.68941 40.769755 
L 137.574144 40.896551 
L 137.460905 41.02516 
L 137.34972 41.15555 
L 137.240618 41.287687 
L 137.133627 41.421539 
L 137.028772 41.557072 
L 136.926081 41.694251 
L 136.82558 41.833042 
L 136.727293 41.97341 
L 136.631246 42.11532 
L 136.537462 42.258735 
L 136.445965 42.403621 
L 136.356779 42.54994 
L 136.269926 42.697656 
L 136.185427 42.846732 
L 136.103304 42.997129 
L 136.023577 43.14881 
L 135.946267 43.301737 
L 135.871393 43.455871 
L 135.798974 43.611174 
L 135.729029 43.767606 
L 135.661574 43.925129 
L 135.596626 44.083702 
L 135.534203 44.243285 
L 135.47432 44.403839 
L 135.416991 44.565322 
L 135.362232 44.727695 
L 135.310056 44.890916 
L 135.260476 45.054945 
L 135.213505 45.219739 
L 135.169154 45.385258 
L 135.127435 45.55146 
L 135.088358 45.718302 
L 135.051934 45.885744 
L 135.01817 46.053743 
L 134.987076 46.222256 
L 134.95866 46.391241 
L 134.932928 46.560656 
L 134.909888 46.730458 
L 134.889545 46.900604 
L 134.871903 47.071051 
L 134.856968 47.241757 
L 134.844744 47.412678 
L 134.835233 47.583772 
L 134.828437 47.754995 
L 134.824359 47.926304 
L 134.823 48.097656 
L 134.823 70.057656 
L 134.824359 70.229009 
L 134.828437 70.400318 
L 134.835233 70.571541 
L 134.844744 70.742635 
L 134.856968 70.913556 
L 134.871903 71.084262 
L 134.889545 71.254709 
L 134.909888 71.424855 
L 134.932928 71.594657 
L 134.95866 71.764071 
L 134.987076 71.933057 
L 135.01817 72.10157 
L 135.051934 72.269568 
L 135.088358 72.43701 
L 135.127435 72.603853 
L 135.169154 72.770055 
L 135.213505 72.935573 
L 135.260476 73.100368 
L 135.310056 73.264396 
L 135.362232 73.427617 
L 135.416991 73.58999 
L 135.47432 73.751474 
L 135.534203 73.912027 
L 135.596626 74.071611 
L 135.661574 74.230184 
L 135.729029 74.387706 
L 135.798974 74.544138 
L 135.871393 74.699441 
L 135.946267 74.853576 
L 136.023577 75.006503 
L 136.103304 75.158184 
L 136.185427 75.308581 
L 136.269926 75.457656 
L 136.356779 75.605372 
L 136.445965 75.751691 
L 136.537462 75.896577 
L 136.631246 76.039993 
L 136.727293 76.181903 
L 136.82558 76.322271 
L 136.926081 76.461062 
L 137.028772 76.598241 
L 137.133627 76.733773 
L 137.240618 76.867625 
L 137.34972 76.999762 
L 137.460905 77.130152 
L 137.574144 77.258761 
L 137.68941 77.385558 
L 137.806672 77.51051 
L 137.925903 77.633585 
L 138.047071 77.754753 
L 138.170147 77.873984 
L 138.295098 77.991247 
L 138.421895 78.106512 
L 138.550504 78.219752 
L 138.680894 78.330936 
L 138.813031 78.440038 
L 138.946883 78.54703 
L 139.082415 78.651884 
L 139.219594 78.754575 
L 139.358385 78.855077 
L 139.498753 78.953363 
L 139.640663 79.049411 
L 139.784079 79.143194 
L 139.928965 79.234691 
L 140.075284 79.323877 
L 140.223 79.410731 
L 140.372075 79.49523 
L 140.522472 79.577353 
L 140.674154 79.657079 
L 140.827081 79.734389 
L 140.981215 79.809263 
L 141.136518 79.881682 
L 141.29295 79.951628 
L 141.450473 80.019083 
L 141.609045 80.08403 
L 141.768629 80.146453 
L 141.929182 80.206337 
L 142.090666 80.263665 
L 142.253039 80.318424 
L 142.41626 80.3706 
L 142.580288 80.42018 
L 142.745083 80.467152 
L 142.910602 80.511502 
L 143.076803 80.553221 
L 143.243646 80.592298 
L 143.411088 80.628723 
L 143.579087 80.662486 
L 143.7476 80.69358 
L 143.916585 80.721996 
L 144.086 80.747728 
L 144.255802 80.770768 
L 144.425947 80.791112 
L 144.596395 80.808753 
L 144.7671 80.823688 
L 144.938022 80.835912 
L 145.109115 80.845424 
L 145.280338 80.852219 
L 145.451648 80.856297 
L 145.623 80.857656 
L 165.483 80.857656 
z
" clip-path="url(#p84431af220)" style="fill: none; stroke-dasharray: 1.85,0.8; stroke-dashoffset: 0; stroke: #008000; stroke-width: 0.5; stroke-linecap: round"/>
   </g>
   <g id="line2d_1">
    <path d="M 142.023 58.777656 
L 155.223 58.777656 
" clip-path="url(#p84431af220)" style="fill: none; stroke: #000000; stroke-width: 2; stroke-linecap: round"/>
   </g>
   <g id="line2d_2">
    <path d="M 155.223 45.577656 
L 155.223 71.977656 
" clip-path="url(#p84431af220)" style="fill: none; stroke: #000000; stroke-width: 2; stroke-linecap: round"/>
   </g>
   <g id="line2d_3">
    <path d="M 155.223 52.177656 
L 169.083 40.297656 
L 169.083 33.697656 
" clip-path="url(#p84431af220)" style="fill: none; stroke: #000000; stroke-width: 2; stroke-linecap: round"/>
   </g>
   <g id="line2d_4">
    <path d="M 155.223 65.377656 
L 169.083 77.257656 
L 169.083 83.857656 
" clip-path="url(#p84431af220)" style="fill: none; stroke: #000000; stroke-width: 2; stroke-linecap: round"/>
   </g>
   <g id="line2d_5">
    <path d="M 155.223 65.377656 
L 162.249691 71.400534 
" clip-path="url(#p84431af220)" style="fill: none; stroke: #000000; stroke-width: 2; stroke-linecap: round"/>
   </g>
   <g id="patch_7">
    <path d="M 164.59254 68.66721 
L 169.083 77.257656 
L 159.906842 74.133858 
z
" clip-path="url(#p84431af220)"/>
   </g>
   <g id="line2d_6">
    <path d="M 142.023 58.777656 
L 79.023 58.777656 
L 16.023 58.777656 
" clip-path="url(#p84431af220)" style="fill: none; stroke: #000000; stroke-width: 2; stroke-linecap: round"/>
   </g>
   <g id="line2d_7">
    <path d="M 169.083 83.857656 
L 169.083 92.857656 
L 178.083 95.857656 
L 160.083 101.857656 
L 178.083 107.857656 
L 160.083 113.857656 
L 178.083 119.857656 
L 160.083 125.857656 
L 169.083 128.857656 
L 169.083 137.857656 
" clip-path="url(#p84431af220)" style="fill: none; stroke: #000000; stroke-width: 2; stroke-linecap: round"/>
   </g>
   <g id="line2d_8">
    <path d="M 169.083 137.857656 
L 187.083 137.857656 
L 205.083 137.857656 
" clip-path="url(#p84431af220)" style="fill: none; stroke: #000000; stroke-width: 2; stroke-linecap: round"/>
   </g>
   <g id="line2d_9">
    <path d="M 169.083 137.857656 
L 124.083 137.857656 
L 79.083 137.857656 
" clip-path="url(#p84431af220)" style="fill: none; stroke: #000000; stroke-width: 2; stroke-linecap: round"/>
   </g>
   <g id="line2d_10">
    <path d="M 79.083 137.857656 
L 79.083 126.157656 
M 88.083 126.157656 
L 70.083 126.157656 
M 79.083 113.557656 
L 79.083 101.857656 
" clip-path="url(#p84431af220)" style="fill: none; stroke: #000000; stroke-width: 2; stroke-linecap: round"/>
   </g>
   <g id="line2d_11">
    <path d="M 79.083 101.857656 
L 79.083 90.157656 
M 88.083 90.157656 
L 70.083 90.157656 
M 79.083 77.557656 
L 79.083 65.857656 
" clip-path="url(#p84431af220)" style="fill: none; stroke: #000000; stroke-width: 2; stroke-linecap: round"/>
   </g>
   <g id="line2d_12">
    <path d="M 79.083 65.857656 
L 79.083 62.317656 
L 79.083 58.777656 
" clip-path="url(#p84431af220)" style="fill: none; stroke: #000000; stroke-width: 2; stroke-linecap: round"/>
   </g>
   <g id="line2d_13">
    <path d="M 169.083 33.697656 
L 169.083 19.297656 
" clip-path="url(#p84431af220)" style="fill: none; stroke: #000000; stroke-width: 2; stroke-linecap: round"/>
   </g>
   <g id="line2d_14">
    <path d="M 169.083 19.297656 
L 162.333 19.297656 
" clip-path="url(#p84431af220)" style="fill: none; stroke: #000000; stroke-width: 2; stroke-linecap: round"/>
   </g>
   <g id="line2d_15">
    <path d="M 169.083 19.297656 
L 175.833 19.297656 
" clip-path="url(#p84431af220)" style="fill: none; stroke: #000000; stroke-width: 2; stroke-linecap: round"/>
   </g>
   <g id="line2d_16">
    <path d="M 64.683 58.657656 
L 64.683 119.857656 
" clip-path="url(#p84431af220)" style="fill: none; stroke: #ff0000; stroke-width: 2; stroke-linecap: round"/>
   </g>
   <g id="patch_8">
    <path d="M 61.083 58.657656 
L 64.683 47.857656 
L 68.283 58.657656 
z
" clip-path="url(#p84431af220)" style="fill: #ff0000"/>
   </g>
   <g id="line2d_17">
    <path d="M 183.483 22.777656 
L 183.483 83.977656 
" clip-path="url(#p84431af220)" style="fill: none; stroke: #008000; stroke-width: 5; stroke-linecap: round"/>
   </g>
   <g id="patch_9">
    <path d="M 187.083 83.977656 
L 183.483 94.777656 
L 179.883 83.977656 
z
" clip-path="url(#p84431af220)" style="fill: #008000"/>
   </g>
   <g id="line2d_18">
    <path d="M 43.023 44.377656 
L 104.223 44.377656 
" clip-path="url(#p84431af220)" style="fill: none; stroke: #008000; stroke-width: 2; stroke-linecap: round"/>
   </g>
   <g id="patch_10">
    <path d="M 104.223 40.777656 
L 115.023 44.377656 
L 104.223 47.977656 
z
" clip-path="url(#p84431af220)" style="fill: #008000"/>
   </g>
   <g id="text_1">
    <!-- $R_{I1}$ -->
    <g transform="translate(139.233 114.306875) scale(0.125 -0.125)">
     <defs>
      <path id="DejaVuSans-Oblique-52" d="M 1613 4147 
L 1294 2491 
L 2106 2491 
Q 2584 2491 2879 2755 
Q 3175 3019 3175 3444 
Q 3175 3784 2976 3965 
Q 2778 4147 2406 4147 
L 1613 4147 
z
M 2772 2241 
Q 2972 2194 3105 2009 
Q 3238 1825 3413 1275 
L 3809 0 
L 3144 0 
L 2778 1197 
Q 2638 1659 2453 1815 
Q 2269 1972 1888 1972 
L 1191 1972 
L 806 0 
L 172 0 
L 1081 4666 
L 2503 4666 
Q 3150 4666 3495 4373 
Q 3841 4081 3841 3531 
Q 3841 3044 3547 2687 
Q 3253 2331 2772 2241 
z
" transform="scale(0.015625)"/>
      <path id="DejaVuSans-Oblique-49" d="M 1081 4666 
L 1716 4666 
L 806 0 
L 172 0 
L 1081 4666 
z
" transform="scale(0.015625)"/>
      <path id="DejaVuSans-31" d="M 794 531 
L 1825 531 
L 1825 4091 
L 703 3866 
L 703 4441 
L 1819 4666 
L 2450 4666 
L 2450 531 
L 3481 531 
L 3481 0 
L 794 0 
L 794 531 
z
" transform="scale(0.015625)"/>
     </defs>
     <use xlink:href="#DejaVuSans-Oblique-52" transform="translate(0 0.09375)"/>
     <use xlink:href="#DejaVuSans-Oblique-49" transform="translate(69.482422 -16.3125) scale(0.7)"/>
     <use xlink:href="#DejaVuSans-31" transform="translate(90.126953 -16.3125) scale(0.7)"/>
    </g>
   </g>
   <g id="text_2">
    <!-- $V_{DD}$ -->
    <g transform="translate(157.8955 13.098047) scale(0.125 -0.125)">
     <defs>
      <path id="DejaVuSans-Oblique-56" d="M 1319 0 
L 500 4666 
L 1119 4666 
L 1797 653 
L 4063 4666 
L 4750 4666 
L 2053 0 
L 1319 0 
z
" transform="scale(0.015625)"/>
      <path id="DejaVuSans-Oblique-44" d="M 1081 4666 
L 2438 4666 
Q 3519 4666 4070 4208 
Q 4622 3750 4622 2847 
Q 4622 2250 4412 1698 
Q 4203 1147 3834 769 
Q 3463 381 2891 190 
Q 2319 0 1538 0 
L 172 0 
L 1081 4666 
z
M 1613 4147 
L 909 519 
L 1734 519 
Q 2794 519 3375 1128 
Q 3956 1738 3956 2847 
Q 3956 3519 3581 3833 
Q 3206 4147 2406 4147 
L 1613 4147 
z
" transform="scale(0.015625)"/>
     </defs>
     <use xlink:href="#DejaVuSans-Oblique-56" transform="translate(0 0.09375)"/>
     <use xlink:href="#DejaVuSans-Oblique-44" transform="translate(68.408203 -16.3125) scale(0.7)"/>
     <use xlink:href="#DejaVuSans-Oblique-44" transform="translate(122.30957 -16.3125) scale(0.7)"/>
    </g>
   </g>
   <g id="text_3">
    <!-- $\frac{I_{out}}{  \beta_{F1}}$ -->
    <g style="fill: #ff0000" transform="translate(46.208 87.107656) scale(0.125 -0.125)">
     <defs>
      <path id="DejaVuSans-Oblique-6f" d="M 1625 -91 
Q 1009 -91 651 289 
Q 294 669 294 1325 
Q 294 1706 417 2101 
Q 541 2497 738 2766 
Q 1047 3184 1428 3384 
Q 1809 3584 2291 3584 
Q 2888 3584 3255 3212 
Q 3622 2841 3622 2241 
Q 3622 1825 3500 1412 
Q 3378 1000 3181 728 
Q 2875 309 2494 109 
Q 2113 -91 1625 -91 
z
M 891 1344 
Q 891 869 1089 633 
Q 1288 397 1691 397 
Q 2269 397 2648 901 
Q 3028 1406 3028 2181 
Q 3028 2634 2825 2865 
Q 2622 3097 2228 3097 
Q 1903 3097 1650 2945 
Q 1397 2794 1197 2484 
Q 1050 2253 970 1956 
Q 891 1659 891 1344 
z
" transform="scale(0.015625)"/>
      <path id="DejaVuSans-Oblique-75" d="M 428 1388 
L 838 3500 
L 1416 3500 
L 1006 1409 
Q 975 1256 961 1147 
Q 947 1038 947 966 
Q 947 700 1109 554 
Q 1272 409 1569 409 
Q 2031 409 2368 721 
Q 2706 1034 2809 1563 
L 3194 3500 
L 3769 3500 
L 3091 0 
L 2516 0 
L 2631 550 
Q 2388 244 2052 76 
Q 1716 -91 1338 -91 
Q 878 -91 622 161 
Q 366 413 366 863 
Q 366 956 381 1097 
Q 397 1238 428 1388 
z
" transform="scale(0.015625)"/>
      <path id="DejaVuSans-Oblique-74" d="M 2706 3500 
L 2619 3053 
L 1472 3053 
L 1100 1153 
Q 1081 1047 1072 975 
Q 1063 903 1063 863 
Q 1063 663 1183 572 
Q 1303 481 1569 481 
L 2150 481 
L 2053 0 
L 1503 0 
Q 991 0 739 200 
Q 488 400 488 806 
Q 488 878 497 964 
Q 506 1050 525 1153 
L 897 3053 
L 409 3053 
L 500 3500 
L 978 3500 
L 1172 4494 
L 1747 4494 
L 1556 3500 
L 2706 3500 
z
" transform="scale(0.015625)"/>
      <path id="DejaVuSans-Oblique-3b2" d="M 872 216 
L 572 -1331 
L -6 -1331 
L 928 3478 
Q 1206 4903 2538 4903 
Q 3888 4903 3659 3700 
Q 3503 2844 2894 2531 
Q 3713 2250 3553 1416 
Q 3272 -69 1759 -66 
Q 1097 -63 872 216 
z
M 1019 966 
Q 1259 422 1875 425 
Q 2775 425 2966 1406 
Q 3138 2288 1675 2219 
L 1778 2750 
Q 2909 2731 3106 3750 
Q 3241 4438 2509 4434 
Q 1691 4434 1503 3459 
L 1019 966 
z
" transform="scale(0.015625)"/>
      <path id="DejaVuSans-Oblique-46" d="M 1081 4666 
L 3756 4666 
L 3653 4134 
L 1606 4134 
L 1338 2759 
L 3188 2759 
L 3084 2228 
L 1234 2228 
L 800 0 
L 172 0 
L 1081 4666 
z
" transform="scale(0.015625)"/>
     </defs>
     <use xlink:href="#DejaVuSans-Oblique-49" transform="translate(2 56.965625) scale(0.7)"/>
     <use xlink:href="#DejaVuSans-Oblique-6f" transform="translate(22.644531 45.48125) scale(0.49)"/>
     <use xlink:href="#DejaVuSans-Oblique-75" transform="translate(52.623535 45.48125) scale(0.49)"/>
     <use xlink:href="#DejaVuSans-Oblique-74" transform="translate(83.679199 45.48125) scale(0.49)"/>
     <use xlink:href="#DejaVuSans-Oblique-3b2" transform="translate(0 -40.092031) scale(0.7)"/>
     <use xlink:href="#DejaVuSans-Oblique-46" transform="translate(44.672852 -51.576406) scale(0.49)"/>
     <use xlink:href="#DejaVuSans-31" transform="translate(72.857422 -51.576406) scale(0.49)"/>
     <path d="M 0 19.784531 
L 0 26.034531 
L 105.946777 26.034531 
L 105.946777 19.784531 
L 0 19.784531 
z
"/>
    </g>
   </g>
   <g id="text_4">
    <!-- $I_{out}$ -->
    <g style="fill: #008000" transform="translate(187.083 62.226875) scale(0.125 -0.125)">
     <use xlink:href="#DejaVuSans-Oblique-49" transform="translate(0 0.09375)"/>
     <use xlink:href="#DejaVuSans-Oblique-6f" transform="translate(29.492188 -16.3125) scale(0.7)"/>
     <use xlink:href="#DejaVuSans-Oblique-75" transform="translate(72.319336 -16.3125) scale(0.7)"/>
     <use xlink:href="#DejaVuSans-Oblique-74" transform="translate(116.68457 -16.3125) scale(0.7)"/>
    </g>
   </g>
   <g id="text_5">
    <!-- $\frac{I_{out}}{  \beta_{F1}}$ -->
    <g style="fill: #008000" transform="translate(71.5855 33.777656) scale(0.125 -0.125)">
     <use xlink:href="#DejaVuSans-Oblique-49" transform="translate(2 56.965625) scale(0.7)"/>
     <use xlink:href="#DejaVuSans-Oblique-6f" transform="translate(22.644531 45.48125) scale(0.49)"/>
     <use xlink:href="#DejaVuSans-Oblique-75" transform="translate(52.623535 45.48125) scale(0.49)"/>
     <use xlink:href="#DejaVuSans-Oblique-74" transform="translate(83.679199 45.48125) scale(0.49)"/>
     <use xlink:href="#DejaVuSans-Oblique-3b2" transform="translate(0 -40.092031) scale(0.7)"/>
     <use xlink:href="#DejaVuSans-Oblique-46" transform="translate(44.672852 -51.576406) scale(0.49)"/>
     <use xlink:href="#DejaVuSans-31" transform="translate(72.857422 -51.576406) scale(0.49)"/>
     <path d="M 0 19.784531 
L 0 26.034531 
L 105.946777 26.034531 
L 105.946777 19.784531 
L 0 19.784531 
z
"/>
    </g>
   </g>
   <g id="patch_11">
    <path d="M 16.023 61.477656 
C 16.739048 61.477656 17.425866 61.193167 17.932188 60.686845 
C 18.438511 60.180522 18.723 59.493705 18.723 58.777656 
C 18.723 58.061608 18.438511 57.374791 17.932188 56.868468 
C 17.425866 56.362145 16.739048 56.077656 16.023 56.077656 
C 15.306952 56.077656 14.620134 56.362145 14.113812 56.868468 
C 13.607489 57.374791 13.323 58.061608 13.323 58.777656 
C 13.323 59.493705 13.607489 60.180522 14.113812 60.686845 
C 14.620134 61.193167 15.306952 61.477656 16.023 61.477656 
z
" clip-path="url(#p84431af220)" style="fill: #ffffff; stroke: #000000; stroke-width: 2; stroke-linejoin: miter"/>
   </g>
   <g id="patch_12">
    <path d="M 169.083 140.557656 
C 169.799048 140.557656 170.485866 140.273167 170.992188 139.766845 
C 171.498511 139.260522 171.783 138.573705 171.783 137.857656 
C 171.783 137.141608 171.498511 136.454791 170.992188 135.948468 
C 170.485866 135.442145 169.799048 135.157656 169.083 135.157656 
C 168.366952 135.157656 167.680134 135.442145 167.173812 135.948468 
C 166.667489 136.454791 166.383 137.141608 166.383 137.857656 
C 166.383 138.573705 166.667489 139.260522 167.173812 139.766845 
C 167.680134 140.273167 168.366952 140.557656 169.083 140.557656 
z
" clip-path="url(#p84431af220)" style="stroke: #000000; stroke-width: 2; stroke-linejoin: miter"/>
   </g>
   <g id="patch_13">
    <path d="M 205.083 140.557656 
C 205.799048 140.557656 206.485866 140.273167 206.992188 139.766845 
C 207.498511 139.260522 207.783 138.573705 207.783 137.857656 
C 207.783 137.141608 207.498511 136.454791 206.992188 135.948468 
C 206.485866 135.442145 205.799048 135.157656 205.083 135.157656 
C 204.366952 135.157656 203.680134 135.442145 203.173812 135.948468 
C 202.667489 136.454791 202.383 137.141608 202.383 137.857656 
C 202.383 138.573705 202.667489 139.260522 203.173812 139.766845 
C 203.680134 140.273167 204.366952 140.557656 205.083 140.557656 
z
" clip-path="url(#p84431af220)" style="fill: #ffffff; stroke: #000000; stroke-width: 2; stroke-linejoin: miter"/>
   </g>
   <g id="patch_14">
    <path d="M 79.083 61.477656 
C 79.799048 61.477656 80.485866 61.193167 80.992188 60.686845 
C 81.498511 60.180522 81.783 59.493705 81.783 58.777656 
C 81.783 58.061608 81.498511 57.374791 80.992188 56.868468 
C 80.485866 56.362145 79.799048 56.077656 79.083 56.077656 
C 78.366952 56.077656 77.680134 56.362145 77.173812 56.868468 
C 76.667489 57.374791 76.383 58.061608 76.383 58.777656 
C 76.383 59.493705 76.667489 60.180522 77.173812 60.686845 
C 77.680134 61.193167 78.366952 61.477656 79.083 61.477656 
z
" clip-path="url(#p84431af220)" style="stroke: #000000; stroke-width: 2; stroke-linejoin: miter"/>
   </g>
   <g id="patch_15">
    <path d="M 169.083 36.397656 
C 169.799048 36.397656 170.485866 36.113167 170.992188 35.606845 
C 171.498511 35.100522 171.783 34.413705 171.783 33.697656 
C 171.783 32.981608 171.498511 32.294791 170.992188 31.788468 
C 170.485866 31.282145 169.799048 30.997656 169.083 30.997656 
C 168.366952 30.997656 167.680134 31.282145 167.173812 31.788468 
C 166.667489 32.294791 166.383 32.981608 166.383 33.697656 
C 166.383 34.413705 166.667489 35.100522 167.173812 35.606845 
C 167.680134 36.113167 168.366952 36.397656 169.083 36.397656 
z
" clip-path="url(#p84431af220)" style="stroke: #000000; stroke-width: 2; stroke-linejoin: miter"/>
   </g>
  </g>
 </g>
 <defs>
  <clipPath id="p84431af220">
   <rect x="3.6" y="13.234656" width="213.906" height="133.386"/>
  </clipPath>
 </defs>
</svg>