<?xml version="1.0" encoding="utf-8" standalone="no"?>
<!DOCTYPE svg PUBLIC "-//W3C//DTD SVG 1.1//EN"
  "http://www.w3.org/Graphics/SVG/1.1/DTD/svg11.dtd">
<svg xmlns:xlink="http://www.w3.org/1999/xlink" width="564.21pt" height="143.86pt" viewBox="0 0 564.21 143.86" xmlns="http://www.w3.org/2000/svg" version="1.1">
 <metadata>
  <rdf:RDF xmlns:dc="http://purl.org/dc/elements/1.1/" xmlns:cc="http://creativecommons.org/ns#" xmlns:rdf="http://www.w3.org/1999/02/22-rdf-syntax-ns#">
   <cc:Work>
    <dc:type rdf:resource="http://purl.org/dc/dcmitype/StillImage"/>
    <dc:date>2024-07-10T00:53:31.022388</dc:date>
    <dc:format>image/svg+xml</dc:format>
    <dc:creator>
     <cc:Agent>
      <dc:title>Matplotlib v3.8.4, https://matplotlib.org/</dc:title>
     </cc:Agent>
    </dc:creator>
   </cc:Work>
  </rdf:RDF>
 </metadata>
 <defs>
  <style type="text/css">*{stroke-linejoin: round; stroke-linecap: butt}</style>
 </defs>
 <g id="figure_1">
  <g id="patch_1">
   <path d="M 0 143.86 
L 564.21 143.86 
L 564.21 0 
L 0 0 
z
" style="fill: #ffffff"/>
  </g>
  <g id="axes_1">
   <g id="patch_2">
    <path d="M 53.916 100.48 
C 58.689656 100.48 63.268438 98.583406 66.643922 95.207922 
C 70.019406 91.832438 71.916 87.253656 71.916 82.48 
C 71.916 77.706344 70.019406 73.127562 66.643922 69.752078 
C 63.268438 66.376594 58.689656 64.48 53.916 64.48 
C 49.142344 64.48 44.563562 66.376594 41.188078 69.752078 
C 37.812594 73.127562 35.916 77.706344 35.916 82.48 
C 35.916 87.253656 37.812594 91.832438 41.188078 95.207922 
C 44.563562 98.583406 49.142344 100.48 53.916 100.48 
L 53.916 100.48 
z
" clip-path="url(#pf47a70da1c)" style="fill: none; stroke: #000000; stroke-width: 2; stroke-linejoin: miter"/>
   </g>
   <g id="patch_3">
    <path d="M 377.916 100.48 
C 382.689656 100.48 387.268438 98.583406 390.643922 95.207922 
C 394.019406 91.832438 395.916 87.253656 395.916 82.48 
C 395.916 77.706344 394.019406 73.127562 390.643922 69.752078 
C 387.268438 66.376594 382.689656 64.48 377.916 64.48 
C 373.142344 64.48 368.563562 66.376594 365.188078 69.752078 
C 361.812594 73.127562 359.916 77.706344 359.916 82.48 
C 359.916 87.253656 361.812594 91.832438 365.188078 95.207922 
C 368.563562 98.583406 373.142344 100.48 377.916 100.48 
L 377.916 100.48 
z
" clip-path="url(#pf47a70da1c)" style="fill: none; stroke: #000000; stroke-width: 2; stroke-linejoin: miter"/>
   </g>
   <g id="line2d_1">
    <path d="M 53.916 136.48 
L 53.916 100.48 
L 53.916 100.48 
M 53.916 64.48 
L 53.916 64.48 
L 53.916 28.48 
" clip-path="url(#pf47a70da1c)" style="fill: none; stroke: #000000; stroke-width: 2; stroke-linecap: round"/>
   </g>
   <g id="line2d_2">
    <path d="M 57.516 91.48 
L 50.316 91.48 
" clip-path="url(#pf47a70da1c)" style="fill: none; stroke: #000000; stroke-width: 2; stroke-linecap: round"/>
   </g>
   <g id="line2d_3">
    <path d="M 53.916 77.08 
L 53.916 69.88 
" clip-path="url(#pf47a70da1c)" style="fill: none; stroke: #000000; stroke-width: 2; stroke-linecap: round"/>
   </g>
   <g id="line2d_4">
    <path d="M 57.516 73.48 
L 50.316 73.48 
" clip-path="url(#pf47a70da1c)" style="fill: none; stroke: #000000; stroke-width: 2; stroke-linecap: round"/>
   </g>
   <g id="line2d_5">
    <path d="M 53.916 28.48 
L 89.916 28.48 
L 92.916 19.48 
L 98.916 37.48 
L 104.916 19.48 
L 110.916 37.48 
L 116.916 19.48 
L 122.916 37.48 
L 125.916 28.48 
L 161.916 28.48 
" clip-path="url(#pf47a70da1c)" style="fill: none; stroke: #000000; stroke-width: 2; stroke-linecap: round"/>
   </g>
   <g id="line2d_6">
    <path d="M 53.916 136.48 
L 107.916 136.48 
L 161.916 136.48 
" clip-path="url(#pf47a70da1c)" style="fill: none; stroke: #000000; stroke-width: 2; stroke-linecap: round"/>
   </g>
   <g id="line2d_7">
    <path d="M 377.916 136.48 
L 377.916 100.48 
L 377.916 100.48 
M 377.916 64.48 
L 377.916 64.48 
L 377.916 28.48 
" clip-path="url(#pf47a70da1c)" style="fill: none; stroke: #000000; stroke-width: 2; stroke-linecap: round"/>
   </g>
   <g id="line2d_8">
    <path d="M 377.916 91.48 
L 377.916 82.48 
" clip-path="url(#pf47a70da1c)" style="fill: none; stroke: #000000; stroke-width: 2; stroke-linecap: round"/>
   </g>
   <g id="patch_4">
    <path d="M 375.216 82.48 
L 377.916 73.48 
L 380.616 82.48 
z
" clip-path="url(#pf47a70da1c)"/>
   </g>
   <g id="line2d_9">
    <path d="M 377.916 136.48 
L 449.916 136.48 
L 521.916 136.48 
" clip-path="url(#pf47a70da1c)" style="fill: none; stroke: #000000; stroke-width: 2; stroke-linecap: round"/>
   </g>
   <g id="line2d_10">
    <path d="M 377.916 28.48 
L 449.916 28.48 
L 521.916 28.48 
" clip-path="url(#pf47a70da1c)" style="fill: none; stroke: #000000; stroke-width: 2; stroke-linecap: round"/>
   </g>
   <g id="line2d_11">
    <path d="M 467.916 136.48 
L 467.916 100.48 
L 458.916 97.48 
L 476.916 91.48 
L 458.916 85.48 
L 476.916 79.48 
L 458.916 73.48 
L 476.916 67.48 
L 467.916 64.48 
L 467.916 28.48 
" clip-path="url(#pf47a70da1c)" style="fill: none; stroke: #000000; stroke-width: 2; stroke-linecap: round"/>
   </g>
   <g id="text_1">
    <!-- $V_{oc}$ -->
    <g transform="translate(10.896 86.343125) scale(0.14 -0.14)">
     <defs>
      <path id="DejaVuSans-Oblique-56" d="M 1319 0 
L 500 4666 
L 1119 4666 
L 1797 653 
L 4063 4666 
L 4750 4666 
L 2053 0 
L 1319 0 
z
" transform="scale(0.015625)"/>
      <path id="DejaVuSans-Oblique-6f" d="M 1625 -91 
Q 1009 -91 651 289 
Q 294 669 294 1325 
Q 294 1706 417 2101 
Q 541 2497 738 2766 
Q 1047 3184 1428 3384 
Q 1809 3584 2291 3584 
Q 2888 3584 3255 3212 
Q 3622 2841 3622 2241 
Q 3622 1825 3500 1412 
Q 3378 1000 3181 728 
Q 2875 309 2494 109 
Q 2113 -91 1625 -91 
z
M 891 1344 
Q 891 869 1089 633 
Q 1288 397 1691 397 
Q 2269 397 2648 901 
Q 3028 1406 3028 2181 
Q 3028 2634 2825 2865 
Q 2622 3097 2228 3097 
Q 1903 3097 1650 2945 
Q 1397 2794 1197 2484 
Q 1050 2253 970 1956 
Q 891 1659 891 1344 
z
" transform="scale(0.015625)"/>
      <path id="DejaVuSans-Oblique-63" d="M 3431 3366 
L 3316 2797 
Q 3109 2947 2876 3022 
Q 2644 3097 2394 3097 
Q 2119 3097 1870 3000 
Q 1622 2903 1453 2725 
Q 1184 2453 1037 2087 
Q 891 1722 891 1331 
Q 891 859 1127 628 
Q 1363 397 1844 397 
Q 2081 397 2348 469 
Q 2616 541 2906 684 
L 2797 116 
Q 2547 13 2283 -39 
Q 2019 -91 1741 -91 
Q 1044 -91 669 257 
Q 294 606 294 1253 
Q 294 1797 489 2255 
Q 684 2713 1069 3078 
Q 1331 3328 1684 3456 
Q 2038 3584 2456 3584 
Q 2700 3584 2940 3529 
Q 3181 3475 3431 3366 
z
" transform="scale(0.015625)"/>
     </defs>
     <use xlink:href="#DejaVuSans-Oblique-56" transform="translate(0 0.09375)"/>
     <use xlink:href="#DejaVuSans-Oblique-6f" transform="translate(68.408203 -16.3125) scale(0.7)"/>
     <use xlink:href="#DejaVuSans-Oblique-63" transform="translate(111.235352 -16.3125) scale(0.7)"/>
    </g>
   </g>
   <g id="text_2">
    <!-- $R_o$ -->
    <g transform="translate(99.796 12.968438) scale(0.14 -0.14)">
     <defs>
      <path id="DejaVuSans-Oblique-52" d="M 1613 4147 
L 1294 2491 
L 2106 2491 
Q 2584 2491 2879 2755 
Q 3175 3019 3175 3444 
Q 3175 3784 2976 3965 
Q 2778 4147 2406 4147 
L 1613 4147 
z
M 2772 2241 
Q 2972 2194 3105 2009 
Q 3238 1825 3413 1275 
L 3809 0 
L 3144 0 
L 2778 1197 
Q 2638 1659 2453 1815 
Q 2269 1972 1888 1972 
L 1191 1972 
L 806 0 
L 172 0 
L 1081 4666 
L 2503 4666 
Q 3150 4666 3495 4373 
Q 3841 4081 3841 3531 
Q 3841 3044 3547 2687 
Q 3253 2331 2772 2241 
z
" transform="scale(0.015625)"/>
     </defs>
     <use xlink:href="#DejaVuSans-Oblique-52" transform="translate(0 0.09375)"/>
     <use xlink:href="#DejaVuSans-Oblique-6f" transform="translate(69.482422 -16.3125) scale(0.7)"/>
    </g>
   </g>
   <g id="text_3">
    <!-- + -->
    <g style="fill: #ff0000" transform="translate(174.050219 59.343125) scale(0.14 -0.14)">
     <defs>
      <path id="DejaVuSans-2b" d="M 2944 4013 
L 2944 2272 
L 4684 2272 
L 4684 1741 
L 2944 1741 
L 2944 0 
L 2419 0 
L 2419 1741 
L 678 1741 
L 678 2272 
L 2419 2272 
L 2419 4013 
L 2944 4013 
z
" transform="scale(0.015625)"/>
     </defs>
     <use xlink:href="#DejaVuSans-2b"/>
    </g>
   </g>
   <g id="text_4">
    <!-- $v_{bron}$ -->
    <g style="fill: #ff0000" transform="translate(164.306 86.343125) scale(0.14 -0.14)">
     <defs>
      <path id="DejaVuSans-Oblique-76" d="M 459 3500 
L 1069 3500 
L 1581 525 
L 3256 3500 
L 3866 3500 
L 1875 0 
L 1100 0 
L 459 3500 
z
" transform="scale(0.015625)"/>
      <path id="DejaVuSans-Oblique-62" d="M 3169 2138 
Q 3169 2591 2961 2847 
Q 2753 3103 2388 3103 
Q 2122 3103 1889 2973 
Q 1656 2844 1484 2597 
Q 1303 2338 1198 1995 
Q 1094 1653 1094 1313 
Q 1094 881 1298 636 
Q 1503 391 1863 391 
Q 2134 391 2365 517 
Q 2597 644 2772 891 
Q 2950 1147 3059 1487 
Q 3169 1828 3169 2138 
z
M 1381 2969 
Q 1594 3256 1914 3420 
Q 2234 3584 2584 3584 
Q 3122 3584 3439 3221 
Q 3756 2859 3756 2241 
Q 3756 1734 3570 1259 
Q 3384 784 3041 416 
Q 2816 172 2522 40 
Q 2228 -91 1906 -91 
Q 1566 -91 1316 65 
Q 1066 222 909 531 
L 806 0 
L 231 0 
L 1178 4863 
L 1753 4863 
L 1381 2969 
z
" transform="scale(0.015625)"/>
      <path id="DejaVuSans-Oblique-72" d="M 2853 2969 
Q 2766 3016 2653 3041 
Q 2541 3066 2413 3066 
Q 1953 3066 1609 2717 
Q 1266 2369 1153 1784 
L 800 0 
L 225 0 
L 909 3500 
L 1484 3500 
L 1375 2956 
Q 1603 3259 1920 3421 
Q 2238 3584 2597 3584 
Q 2691 3584 2781 3573 
Q 2872 3563 2963 3538 
L 2853 2969 
z
" transform="scale(0.015625)"/>
      <path id="DejaVuSans-Oblique-6e" d="M 3566 2113 
L 3156 0 
L 2578 0 
L 2988 2091 
Q 3016 2238 3031 2350 
Q 3047 2463 3047 2528 
Q 3047 2791 2881 2937 
Q 2716 3084 2419 3084 
Q 1956 3084 1622 2776 
Q 1288 2469 1184 1941 
L 800 0 
L 225 0 
L 903 3500 
L 1478 3500 
L 1363 2950 
Q 1603 3253 1940 3418 
Q 2278 3584 2650 3584 
Q 3113 3584 3367 3334 
Q 3622 3084 3622 2631 
Q 3622 2519 3608 2391 
Q 3594 2263 3566 2113 
z
" transform="scale(0.015625)"/>
     </defs>
     <use xlink:href="#DejaVuSans-Oblique-76" transform="translate(0 0.3125)"/>
     <use xlink:href="#DejaVuSans-Oblique-62" transform="translate(59.179688 -16.09375) scale(0.7)"/>
     <use xlink:href="#DejaVuSans-Oblique-72" transform="translate(103.613281 -16.09375) scale(0.7)"/>
     <use xlink:href="#DejaVuSans-Oblique-6f" transform="translate(132.392578 -16.09375) scale(0.7)"/>
     <use xlink:href="#DejaVuSans-Oblique-6e" transform="translate(175.219727 -16.09375) scale(0.7)"/>
    </g>
   </g>
   <g id="text_5">
    <!-- $-$ -->
    <g style="fill: #ff0000" transform="translate(174.036 113.343125) scale(0.14 -0.14)">
     <defs>
      <path id="DejaVuSans-2212" d="M 678 2272 
L 4684 2272 
L 4684 1741 
L 678 1741 
L 678 2272 
z
" transform="scale(0.015625)"/>
     </defs>
     <use xlink:href="#DejaVuSans-2212" transform="translate(0 0.5)"/>
    </g>
   </g>
   <g id="text_6">
    <!-- $I_{sc}$ -->
    <g transform="translate(341.196 86.343125) scale(0.14 -0.14)">
     <defs>
      <path id="DejaVuSans-Oblique-49" d="M 1081 4666 
L 1716 4666 
L 806 0 
L 172 0 
L 1081 4666 
z
" transform="scale(0.015625)"/>
      <path id="DejaVuSans-Oblique-73" d="M 3200 3397 
L 3091 2853 
Q 2863 2978 2609 3040 
Q 2356 3103 2088 3103 
Q 1634 3103 1373 2948 
Q 1113 2794 1113 2528 
Q 1113 2219 1719 2053 
Q 1766 2041 1788 2034 
L 1972 1978 
Q 2547 1819 2739 1644 
Q 2931 1469 2931 1166 
Q 2931 609 2489 259 
Q 2047 -91 1331 -91 
Q 1053 -91 747 -37 
Q 441 16 72 128 
L 184 722 
Q 500 559 806 475 
Q 1113 391 1394 391 
Q 1816 391 2080 572 
Q 2344 753 2344 1031 
Q 2344 1331 1650 1516 
L 1591 1531 
L 1394 1581 
Q 956 1697 753 1886 
Q 550 2075 550 2369 
Q 550 2928 970 3256 
Q 1391 3584 2113 3584 
Q 2397 3584 2667 3537 
Q 2938 3491 3200 3397 
z
" transform="scale(0.015625)"/>
     </defs>
     <use xlink:href="#DejaVuSans-Oblique-49" transform="translate(0 0.09375)"/>
     <use xlink:href="#DejaVuSans-Oblique-73" transform="translate(29.492188 -16.3125) scale(0.7)"/>
     <use xlink:href="#DejaVuSans-Oblique-63" transform="translate(65.961914 -16.3125) scale(0.7)"/>
    </g>
   </g>
   <g id="text_7">
    <!-- $R_o$ -->
    <g transform="translate(439.076 86.343125) scale(0.14 -0.14)">
     <use xlink:href="#DejaVuSans-Oblique-52" transform="translate(0 0.09375)"/>
     <use xlink:href="#DejaVuSans-Oblique-6f" transform="translate(69.482422 -16.3125) scale(0.7)"/>
    </g>
   </g>
   <g id="text_8">
    <!-- + -->
    <g style="fill: #ff0000" transform="translate(534.050219 59.343125) scale(0.14 -0.14)">
     <use xlink:href="#DejaVuSans-2b"/>
    </g>
   </g>
   <g id="text_9">
    <!-- $v_{bron}$ -->
    <g style="fill: #ff0000" transform="translate(524.306 86.343125) scale(0.14 -0.14)">
     <use xlink:href="#DejaVuSans-Oblique-76" transform="translate(0 0.3125)"/>
     <use xlink:href="#DejaVuSans-Oblique-62" transform="translate(59.179688 -16.09375) scale(0.7)"/>
     <use xlink:href="#DejaVuSans-Oblique-72" transform="translate(103.613281 -16.09375) scale(0.7)"/>
     <use xlink:href="#DejaVuSans-Oblique-6f" transform="translate(132.392578 -16.09375) scale(0.7)"/>
     <use xlink:href="#DejaVuSans-Oblique-6e" transform="translate(175.219727 -16.09375) scale(0.7)"/>
    </g>
   </g>
   <g id="text_10">
    <!-- $-$ -->
    <g style="fill: #ff0000" transform="translate(534.036 113.343125) scale(0.14 -0.14)">
     <use xlink:href="#DejaVuSans-2212" transform="translate(0 0.5)"/>
    </g>
   </g>
   <g id="patch_5">
    <path d="M 161.916 31.18 
C 162.632048 31.18 163.318866 30.895511 163.825188 30.389188 
C 164.331511 29.882866 164.616 29.196048 164.616 28.48 
C 164.616 27.763952 164.331511 27.077134 163.825188 26.570812 
C 163.318866 26.064489 162.632048 25.78 161.916 25.78 
C 161.199952 25.78 160.513134 26.064489 160.006812 26.570812 
C 159.500489 27.077134 159.216 27.763952 159.216 28.48 
C 159.216 29.196048 159.500489 29.882866 160.006812 30.389188 
C 160.513134 30.895511 161.199952 31.18 161.916 31.18 
z
" clip-path="url(#pf47a70da1c)" style="fill: #ffffff; stroke: #000000; stroke-width: 2; stroke-linejoin: miter"/>
   </g>
   <g id="text_11">
    <!-- $V_i$ -->
    <g transform="translate(155.546 19.268438) scale(0.14 -0.14)">
     <defs>
      <path id="DejaVuSans-Oblique-69" d="M 1172 4863 
L 1747 4863 
L 1606 4134 
L 1031 4134 
L 1172 4863 
z
M 909 3500 
L 1484 3500 
L 800 0 
L 225 0 
L 909 3500 
z
" transform="scale(0.015625)"/>
     </defs>
     <use xlink:href="#DejaVuSans-Oblique-56" transform="translate(0 0.09375)"/>
     <use xlink:href="#DejaVuSans-Oblique-69" transform="translate(68.408203 -16.3125) scale(0.7)"/>
    </g>
   </g>
   <g id="patch_6">
    <path d="M 161.916 139.18 
C 162.632048 139.18 163.318866 138.895511 163.825188 138.389188 
C 164.331511 137.882866 164.616 137.196048 164.616 136.48 
C 164.616 135.763952 164.331511 135.077134 163.825188 134.570812 
C 163.318866 134.064489 162.632048 133.78 161.916 133.78 
C 161.199952 133.78 160.513134 134.064489 160.006812 134.570812 
C 159.500489 135.077134 159.216 135.763952 159.216 136.48 
C 159.216 137.196048 159.500489 137.882866 160.006812 138.389188 
C 160.513134 138.895511 161.199952 139.18 161.916 139.18 
z
" clip-path="url(#pf47a70da1c)" style="fill: #ffffff; stroke: #000000; stroke-width: 2; stroke-linejoin: miter"/>
   </g>
   <g id="text_12">
    <!-- $V_j$ -->
    <g transform="translate(155.546 125.84) scale(0.14 -0.14)">
     <defs>
      <path id="DejaVuSans-Oblique-6a" d="M 928 3500 
L 1503 3500 
L 813 -63 
L 809 -78 
Q 694 -675 544 -897 
Q 403 -1106 132 -1218 
Q -138 -1331 -506 -1331 
L -722 -1331 
L -628 -844 
L -481 -844 
Q -144 -844 -1 -703 
Q 141 -563 238 -63 
L 928 3500 
z
M 1197 4863 
L 1772 4863 
L 1631 4134 
L 1056 4134 
L 1197 4863 
z
" transform="scale(0.015625)"/>
     </defs>
     <use xlink:href="#DejaVuSans-Oblique-56" transform="translate(0 0.09375)"/>
     <use xlink:href="#DejaVuSans-Oblique-6a" transform="translate(68.408203 -16.3125) scale(0.7)"/>
    </g>
   </g>
   <g id="patch_7">
    <path d="M 521.916 139.18 
C 522.632048 139.18 523.318866 138.895511 523.825188 138.389188 
C 524.331511 137.882866 524.616 137.196048 524.616 136.48 
C 524.616 135.763952 524.331511 135.077134 523.825188 134.570812 
C 523.318866 134.064489 522.632048 133.78 521.916 133.78 
C 521.199952 133.78 520.513134 134.064489 520.006812 134.570812 
C 519.500489 135.077134 519.216 135.763952 519.216 136.48 
C 519.216 137.196048 519.500489 137.882866 520.006812 138.389188 
C 520.513134 138.895511 521.199952 139.18 521.916 139.18 
z
" clip-path="url(#pf47a70da1c)" style="fill: #ffffff; stroke: #000000; stroke-width: 2; stroke-linejoin: miter"/>
   </g>
   <g id="text_13">
    <!-- $V_j$ -->
    <g transform="translate(515.546 125.84) scale(0.14 -0.14)">
     <use xlink:href="#DejaVuSans-Oblique-56" transform="translate(0 0.09375)"/>
     <use xlink:href="#DejaVuSans-Oblique-6a" transform="translate(68.408203 -16.3125) scale(0.7)"/>
    </g>
   </g>
   <g id="patch_8">
    <path d="M 521.916 31.18 
C 522.632048 31.18 523.318866 30.895511 523.825188 30.389188 
C 524.331511 29.882866 524.616 29.196048 524.616 28.48 
C 524.616 27.763952 524.331511 27.077134 523.825188 26.570812 
C 523.318866 26.064489 522.632048 25.78 521.916 25.78 
C 521.199952 25.78 520.513134 26.064489 520.006812 26.570812 
C 519.500489 27.077134 519.216 27.763952 519.216 28.48 
C 519.216 29.196048 519.500489 29.882866 520.006812 30.389188 
C 520.513134 30.895511 521.199952 31.18 521.916 31.18 
z
" clip-path="url(#pf47a70da1c)" style="fill: #ffffff; stroke: #000000; stroke-width: 2; stroke-linejoin: miter"/>
   </g>
   <g id="text_14">
    <!-- $V_i$ -->
    <g transform="translate(515.546 19.268438) scale(0.14 -0.14)">
     <use xlink:href="#DejaVuSans-Oblique-56" transform="translate(0 0.09375)"/>
     <use xlink:href="#DejaVuSans-Oblique-69" transform="translate(68.408203 -16.3125) scale(0.7)"/>
    </g>
   </g>
  </g>
 </g>
 <defs>
  <clipPath id="pf47a70da1c">
   <rect x="0" y="0" width="564.21" height="143.86"/>
  </clipPath>
 </defs>
</svg>