<?xml version="1.0" encoding="utf-8" standalone="no"?>
<!DOCTYPE svg PUBLIC "-//W3C//DTD SVG 1.1//EN"
  "http://www.w3.org/Graphics/SVG/1.1/DTD/svg11.dtd">
<svg xmlns:xlink="http://www.w3.org/1999/xlink" width="85.760258pt" height="250.476pt" viewBox="0 0 85.760258 250.476" xmlns="http://www.w3.org/2000/svg" version="1.1">
 <metadata>
  <rdf:RDF xmlns:dc="http://purl.org/dc/elements/1.1/" xmlns:cc="http://creativecommons.org/ns#" xmlns:rdf="http://www.w3.org/1999/02/22-rdf-syntax-ns#">
   <cc:Work>
    <dc:type rdf:resource="http://purl.org/dc/dcmitype/StillImage"/>
    <dc:date>2024-01-09T11:09:10.844085</dc:date>
    <dc:format>image/svg+xml</dc:format>
    <dc:creator>
     <cc:Agent>
      <dc:title>Matplotlib v3.8.2, https://matplotlib.org/</dc:title>
     </cc:Agent>
    </dc:creator>
   </cc:Work>
  </rdf:RDF>
 </metadata>
 <defs>
  <style type="text/css">*{stroke-linejoin: round; stroke-linecap: butt}</style>
 </defs>
 <g id="figure_1">
  <g id="patch_1">
   <path d="M 0 250.476 
L 85.760258 250.476 
L 85.760258 0 
L 0 0 
z
" style="fill: #ffffff"/>
  </g>
  <g id="axes_1">
   <g id="line2d_1">
    <path d="M 9.276 125.238 
L 22.476 125.238 
" clip-path="url(#pda6a194fab)" style="fill: none; stroke: #000000; stroke-width: 2; stroke-linecap: round"/>
   </g>
   <g id="line2d_2">
    <path d="M 22.476 112.038 
L 22.476 138.438 
" clip-path="url(#pda6a194fab)" style="fill: none; stroke: #000000; stroke-width: 2; stroke-linecap: round"/>
   </g>
   <g id="line2d_3">
    <path d="M 22.476 118.638 
L 36.336 106.758 
L 36.336 100.158 
" clip-path="url(#pda6a194fab)" style="fill: none; stroke: #000000; stroke-width: 2; stroke-linecap: round"/>
   </g>
   <g id="line2d_4">
    <path d="M 22.476 131.838 
L 36.336 143.718 
L 36.336 150.318 
" clip-path="url(#pda6a194fab)" style="fill: none; stroke: #000000; stroke-width: 2; stroke-linecap: round"/>
   </g>
   <g id="line2d_5">
    <path d="M 22.476 131.838 
L 29.502691 137.860878 
" clip-path="url(#pda6a194fab)" style="fill: none; stroke: #000000; stroke-width: 2; stroke-linecap: round"/>
   </g>
   <g id="patch_2">
    <path d="M 31.84554 135.127554 
L 36.336 143.718 
L 27.159842 140.594201 
z
" clip-path="url(#pda6a194fab)"/>
   </g>
   <g id="line2d_6">
    <path d="M 36.336 100.158 
L 49.536 100.158 
" clip-path="url(#pda6a194fab)" style="fill: none; stroke: #000000; stroke-width: 2; stroke-linecap: round"/>
   </g>
   <g id="line2d_7">
    <path d="M 49.536 86.958 
L 49.536 113.358 
" clip-path="url(#pda6a194fab)" style="fill: none; stroke: #000000; stroke-width: 2; stroke-linecap: round"/>
   </g>
   <g id="line2d_8">
    <path d="M 49.536 93.558 
L 63.396 81.678 
L 63.396 75.078 
" clip-path="url(#pda6a194fab)" style="fill: none; stroke: #000000; stroke-width: 2; stroke-linecap: round"/>
   </g>
   <g id="line2d_9">
    <path d="M 49.536 106.758 
L 63.396 118.638 
L 63.396 125.238 
" clip-path="url(#pda6a194fab)" style="fill: none; stroke: #000000; stroke-width: 2; stroke-linecap: round"/>
   </g>
   <g id="line2d_10">
    <path d="M 63.396 81.678 
L 56.369309 87.700878 
" clip-path="url(#pda6a194fab)" style="fill: none; stroke: #000000; stroke-width: 2; stroke-linecap: round"/>
   </g>
   <g id="patch_3">
    <path d="M 58.712158 90.434201 
L 49.536 93.558 
L 54.02646 84.967554 
z
" clip-path="url(#pda6a194fab)"/>
   </g>
   <g id="line2d_11">
    <path d="M 36.336 150.318 
L 36.336 164.718 
L 45.336 167.718 
L 27.336 173.718 
L 45.336 179.718 
L 27.336 185.718 
L 45.336 191.718 
L 27.336 197.718 
L 36.336 200.718 
L 36.336 215.118 
" clip-path="url(#pda6a194fab)" style="fill: none; stroke: #000000; stroke-width: 2; stroke-linecap: round"/>
   </g>
   <g id="line2d_12">
    <path d="M 36.336 100.158 
L 36.336 85.758 
L 27.336 82.758 
L 45.336 76.758 
L 27.336 70.758 
L 45.336 64.758 
L 27.336 58.758 
L 45.336 52.758 
L 36.336 49.758 
L 36.336 35.358 
" clip-path="url(#pda6a194fab)" style="fill: none; stroke: #000000; stroke-width: 2; stroke-linecap: round"/>
   </g>
   <g id="line2d_13">
    <path d="M 36.336 35.358 
L 49.866 35.358 
L 63.396 35.358 
" clip-path="url(#pda6a194fab)" style="fill: none; stroke: #000000; stroke-width: 2; stroke-linecap: round"/>
   </g>
   <g id="line2d_14">
    <path d="M 63.396 75.078 
L 63.396 55.218 
L 63.396 35.358 
" clip-path="url(#pda6a194fab)" style="fill: none; stroke: #000000; stroke-width: 2; stroke-linecap: round"/>
   </g>
   <g id="line2d_15">
    <path d="M 63.396 35.358 
L 63.396 26.358 
L 63.396 17.358 
" clip-path="url(#pda6a194fab)" style="fill: none; stroke: #000000; stroke-width: 2; stroke-linecap: round"/>
   </g>
   <g id="line2d_16">
    <path d="M 63.396 125.238 
L 63.396 170.178 
L 63.396 215.118 
" clip-path="url(#pda6a194fab)" style="fill: none; stroke: #000000; stroke-width: 2; stroke-linecap: round"/>
   </g>
   <g id="line2d_17">
    <path d="M 63.396 215.118 
L 49.866 215.118 
L 36.336 215.118 
" clip-path="url(#pda6a194fab)" style="fill: none; stroke: #000000; stroke-width: 2; stroke-linecap: round"/>
   </g>
   <g id="line2d_18">
    <path d="M 63.396 215.118 
L 63.396 224.118 
L 63.396 233.118 
" clip-path="url(#pda6a194fab)" style="fill: none; stroke: #000000; stroke-width: 2; stroke-linecap: round"/>
   </g>
   <g id="text_1">
    <!-- $R_{ed}$ -->
    <g transform="translate(3.736 186.167219) scale(0.125 -0.125)">
     <defs>
      <path id="DejaVuSans-Oblique-52" d="M 1613 4147 
L 1294 2491 
L 2106 2491 
Q 2584 2491 2879 2755 
Q 3175 3019 3175 3444 
Q 3175 3784 2976 3965 
Q 2778 4147 2406 4147 
L 1613 4147 
z
M 2772 2241 
Q 2972 2194 3105 2009 
Q 3238 1825 3413 1275 
L 3809 0 
L 3144 0 
L 2778 1197 
Q 2638 1659 2453 1815 
Q 2269 1972 1888 1972 
L 1191 1972 
L 806 0 
L 172 0 
L 1081 4666 
L 2503 4666 
Q 3150 4666 3495 4373 
Q 3841 4081 3841 3531 
Q 3841 3044 3547 2687 
Q 3253 2331 2772 2241 
z
" transform="scale(0.015625)"/>
      <path id="DejaVuSans-Oblique-65" d="M 3078 2063 
Q 3088 2113 3092 2166 
Q 3097 2219 3097 2272 
Q 3097 2653 2873 2875 
Q 2650 3097 2266 3097 
Q 1838 3097 1509 2826 
Q 1181 2556 1013 2059 
L 3078 2063 
z
M 3578 1613 
L 903 1613 
Q 884 1494 878 1425 
Q 872 1356 872 1306 
Q 872 872 1139 634 
Q 1406 397 1894 397 
Q 2269 397 2603 481 
Q 2938 566 3225 728 
L 3116 159 
Q 2806 34 2476 -28 
Q 2147 -91 1806 -91 
Q 1078 -91 686 257 
Q 294 606 294 1247 
Q 294 1794 489 2264 
Q 684 2734 1063 3103 
Q 1306 3334 1642 3459 
Q 1978 3584 2356 3584 
Q 2950 3584 3301 3228 
Q 3653 2872 3653 2272 
Q 3653 2128 3634 1964 
Q 3616 1800 3578 1613 
z
" transform="scale(0.015625)"/>
      <path id="DejaVuSans-Oblique-64" d="M 2675 525 
Q 2444 222 2128 65 
Q 1813 -91 1428 -91 
Q 903 -91 598 267 
Q 294 625 294 1247 
Q 294 1766 478 2236 
Q 663 2706 1013 3078 
Q 1244 3325 1534 3454 
Q 1825 3584 2144 3584 
Q 2481 3584 2739 3421 
Q 2997 3259 3138 2956 
L 3513 4863 
L 4091 4863 
L 3144 0 
L 2566 0 
L 2675 525 
z
M 891 1350 
Q 891 897 1095 644 
Q 1300 391 1663 391 
Q 1931 391 2161 520 
Q 2391 650 2566 903 
Q 2750 1166 2856 1509 
Q 2963 1853 2963 2188 
Q 2963 2622 2758 2865 
Q 2553 3109 2194 3109 
Q 1922 3109 1687 2981 
Q 1453 2853 1288 2613 
Q 1106 2353 998 2009 
Q 891 1666 891 1350 
z
" transform="scale(0.015625)"/>
     </defs>
     <use xlink:href="#DejaVuSans-Oblique-52" transform="translate(0 0.09375)"/>
     <use xlink:href="#DejaVuSans-Oblique-65" transform="translate(69.482422 -16.3125) scale(0.7)"/>
     <use xlink:href="#DejaVuSans-Oblique-64" transform="translate(112.548828 -16.3125) scale(0.7)"/>
    </g>
   </g>
   <g id="text_2">
    <!-- $R_{2}$ -->
    <g transform="translate(9.111 71.207219) scale(0.125 -0.125)">
     <defs>
      <path id="DejaVuSans-32" d="M 1228 531 
L 3431 531 
L 3431 0 
L 469 0 
L 469 531 
Q 828 903 1448 1529 
Q 2069 2156 2228 2338 
Q 2531 2678 2651 2914 
Q 2772 3150 2772 3378 
Q 2772 3750 2511 3984 
Q 2250 4219 1831 4219 
Q 1534 4219 1204 4116 
Q 875 4013 500 3803 
L 500 4441 
Q 881 4594 1212 4672 
Q 1544 4750 1819 4750 
Q 2544 4750 2975 4387 
Q 3406 4025 3406 3419 
Q 3406 3131 3298 2873 
Q 3191 2616 2906 2266 
Q 2828 2175 2409 1742 
Q 1991 1309 1228 531 
z
" transform="scale(0.015625)"/>
     </defs>
     <use xlink:href="#DejaVuSans-Oblique-52" transform="translate(0 0.09375)"/>
     <use xlink:href="#DejaVuSans-32" transform="translate(69.482422 -16.3125) scale(0.7)"/>
    </g>
   </g>
   <g id="patch_4">
    <path d="M 9.276 127.938 
C 9.992048 127.938 10.678866 127.653511 11.185188 127.147188 
C 11.691511 126.640866 11.976 125.954048 11.976 125.238 
C 11.976 124.521952 11.691511 123.835134 11.185188 123.328812 
C 10.678866 122.822489 9.992048 122.538 9.276 122.538 
C 8.559952 122.538 7.873134 122.822489 7.366812 123.328812 
C 6.860489 123.835134 6.576 124.521952 6.576 125.238 
C 6.576 125.954048 6.860489 126.640866 7.366812 127.147188 
C 7.873134 127.653511 8.559952 127.938 9.276 127.938 
z
" clip-path="url(#pda6a194fab)" style="fill: #ffffff; stroke: #000000; stroke-width: 2; stroke-linejoin: miter"/>
   </g>
   <g id="text_3">
    <!-- B -->
    <g transform="translate(4.987914 116.338391) scale(0.125 -0.125)">
     <defs>
      <path id="DejaVuSans-42" d="M 1259 2228 
L 1259 519 
L 2272 519 
Q 2781 519 3026 730 
Q 3272 941 3272 1375 
Q 3272 1813 3026 2020 
Q 2781 2228 2272 2228 
L 1259 2228 
z
M 1259 4147 
L 1259 2741 
L 2194 2741 
Q 2656 2741 2882 2914 
Q 3109 3088 3109 3444 
Q 3109 3797 2882 3972 
Q 2656 4147 2194 4147 
L 1259 4147 
z
M 628 4666 
L 2241 4666 
Q 2963 4666 3353 4366 
Q 3744 4066 3744 3513 
Q 3744 3084 3544 2831 
Q 3344 2578 2956 2516 
Q 3422 2416 3680 2098 
Q 3938 1781 3938 1306 
Q 3938 681 3513 340 
Q 3088 0 2303 0 
L 628 0 
L 628 4666 
z
" transform="scale(0.015625)"/>
     </defs>
     <use xlink:href="#DejaVuSans-42"/>
    </g>
   </g>
   <g id="patch_5">
    <path d="M 63.396 38.058 
C 64.112048 38.058 64.798866 37.773511 65.305188 37.267188 
C 65.811511 36.760866 66.096 36.074048 66.096 35.358 
C 66.096 34.641952 65.811511 33.955134 65.305188 33.448812 
C 64.798866 32.942489 64.112048 32.658 63.396 32.658 
C 62.679952 32.658 61.993134 32.942489 61.486812 33.448812 
C 60.980489 33.955134 60.696 34.641952 60.696 35.358 
C 60.696 36.074048 60.980489 36.760866 61.486812 37.267188 
C 61.993134 37.773511 62.679952 38.058 63.396 38.058 
z
" clip-path="url(#pda6a194fab)" style="stroke: #000000; stroke-width: 2; stroke-linejoin: miter"/>
   </g>
   <g id="patch_6">
    <path d="M 63.396 20.058 
C 64.112048 20.058 64.798866 19.773511 65.305188 19.267188 
C 65.811511 18.760866 66.096 18.074048 66.096 17.358 
C 66.096 16.641952 65.811511 15.955134 65.305188 15.448812 
C 64.798866 14.942489 64.112048 14.658 63.396 14.658 
C 62.679952 14.658 61.993134 14.942489 61.486812 15.448812 
C 60.980489 15.955134 60.696 16.641952 60.696 17.358 
C 60.696 18.074048 60.980489 18.760866 61.486812 19.267188 
C 61.993134 19.773511 62.679952 20.058 63.396 20.058 
z
" clip-path="url(#pda6a194fab)" style="fill: #ffffff; stroke: #000000; stroke-width: 2; stroke-linejoin: miter"/>
   </g>
   <g id="text_4">
    <!-- C -->
    <g transform="translate(73.431742 26.458391) scale(0.125 -0.125)">
     <defs>
      <path id="DejaVuSans-43" d="M 4122 4306 
L 4122 3641 
Q 3803 3938 3442 4084 
Q 3081 4231 2675 4231 
Q 1875 4231 1450 3742 
Q 1025 3253 1025 2328 
Q 1025 1406 1450 917 
Q 1875 428 2675 428 
Q 3081 428 3442 575 
Q 3803 722 4122 1019 
L 4122 359 
Q 3791 134 3420 21 
Q 3050 -91 2638 -91 
Q 1578 -91 968 557 
Q 359 1206 359 2328 
Q 359 3453 968 4101 
Q 1578 4750 2638 4750 
Q 3056 4750 3426 4639 
Q 3797 4528 4122 4306 
z
" transform="scale(0.015625)"/>
     </defs>
     <use xlink:href="#DejaVuSans-43"/>
    </g>
   </g>
   <g id="patch_7">
    <path d="M 63.396 217.818 
C 64.112048 217.818 64.798866 217.533511 65.305188 217.027188 
C 65.811511 216.520866 66.096 215.834048 66.096 215.118 
C 66.096 214.401952 65.811511 213.715134 65.305188 213.208812 
C 64.798866 212.702489 64.112048 212.418 63.396 212.418 
C 62.679952 212.418 61.993134 212.702489 61.486812 213.208812 
C 60.980489 213.715134 60.696 214.401952 60.696 215.118 
C 60.696 215.834048 60.980489 216.520866 61.486812 217.027188 
C 61.993134 217.533511 62.679952 217.818 63.396 217.818 
z
" clip-path="url(#pda6a194fab)" style="stroke: #000000; stroke-width: 2; stroke-linejoin: miter"/>
   </g>
   <g id="patch_8">
    <path d="M 63.396 235.818 
C 64.112048 235.818 64.798866 235.533511 65.305188 235.027188 
C 65.811511 234.520866 66.096 233.834048 66.096 233.118 
C 66.096 232.401952 65.811511 231.715134 65.305188 231.208812 
C 64.798866 230.702489 64.112048 230.418 63.396 230.418 
C 62.679952 230.418 61.993134 230.702489 61.486812 231.208812 
C 60.980489 231.715134 60.696 232.401952 60.696 233.118 
C 60.696 233.834048 60.980489 234.520866 61.486812 235.027188 
C 61.993134 235.533511 62.679952 235.818 63.396 235.818 
z
" clip-path="url(#pda6a194fab)" style="fill: #ffffff; stroke: #000000; stroke-width: 2; stroke-linejoin: miter"/>
   </g>
   <g id="text_5">
    <!-- E -->
    <g transform="translate(73.846781 231.418391) scale(0.125 -0.125)">
     <defs>
      <path id="DejaVuSans-45" d="M 628 4666 
L 3578 4666 
L 3578 4134 
L 1259 4134 
L 1259 2753 
L 3481 2753 
L 3481 2222 
L 1259 2222 
L 1259 531 
L 3634 531 
L 3634 0 
L 628 0 
L 628 4666 
z
" transform="scale(0.015625)"/>
     </defs>
     <use xlink:href="#DejaVuSans-45"/>
    </g>
   </g>
  </g>
 </g>
 <defs>
  <clipPath id="pda6a194fab">
   <rect x="3.6" y="3.6" width="65.472" height="243.276"/>
  </clipPath>
 </defs>
</svg>