<?xml version="1.0" encoding="utf-8" standalone="no"?>
<!DOCTYPE svg PUBLIC "-//W3C//DTD SVG 1.1//EN"
  "http://www.w3.org/Graphics/SVG/1.1/DTD/svg11.dtd">
<svg xmlns:xlink="http://www.w3.org/1999/xlink" width="300.306pt" height="300.097656pt" viewBox="0 0 300.306 300.097656" xmlns="http://www.w3.org/2000/svg" version="1.1">
 <metadata>
  <rdf:RDF xmlns:dc="http://purl.org/dc/elements/1.1/" xmlns:cc="http://creativecommons.org/ns#" xmlns:rdf="http://www.w3.org/1999/02/22-rdf-syntax-ns#">
   <cc:Work>
    <dc:type rdf:resource="http://purl.org/dc/dcmitype/StillImage"/>
    <dc:date>2024-01-04T15:44:23.860672</dc:date>
    <dc:format>image/svg+xml</dc:format>
    <dc:creator>
     <cc:Agent>
      <dc:title>Matplotlib v3.8.2, https://matplotlib.org/</dc:title>
     </cc:Agent>
    </dc:creator>
   </cc:Work>
  </rdf:RDF>
 </metadata>
 <defs>
  <style type="text/css">*{stroke-linejoin: round; stroke-linecap: butt}</style>
 </defs>
 <g id="figure_1">
  <g id="patch_1">
   <path d="M 0 300.097656 
L 300.306 300.097656 
L 300.306 0 
L 0 0 
z
" style="fill: #ffffff"/>
  </g>
  <g id="axes_1">
   <g id="patch_2">
    <path d="M 178.143 145.057656 
L 178.314352 145.056297 
L 178.485662 145.052219 
L 178.656885 145.045424 
L 178.827978 145.035912 
L 178.9989 145.023688 
L 179.169605 145.008753 
L 179.340053 144.991112 
L 179.510198 144.970768 
L 179.68 144.947728 
L 179.849415 144.921996 
L 180.0184 144.89358 
L 180.186913 144.862486 
L 180.354912 144.828723 
L 180.522354 144.792298 
L 180.689197 144.753221 
L 180.855398 144.711502 
L 181.020917 144.667152 
L 181.185712 144.62018 
L 181.34974 144.5706 
L 181.512961 144.518424 
L 181.675334 144.463665 
L 181.836818 144.406337 
L 181.997371 144.346453 
L 182.156955 144.28403 
L 182.315527 144.219083 
L 182.47305 144.151628 
L 182.629482 144.081682 
L 182.784785 144.009263 
L 182.938919 143.934389 
L 183.091846 143.857079 
L 183.243528 143.777353 
L 183.393925 143.69523 
L 183.543 143.610731 
L 183.690716 143.523877 
L 183.837035 143.434691 
L 183.981921 143.343194 
L 184.125337 143.249411 
L 184.267247 143.153363 
L 184.407615 143.055077 
L 184.546406 142.954575 
L 184.683585 142.851884 
L 184.819117 142.74703 
L 184.952969 142.640038 
L 185.085106 142.530936 
L 185.215496 142.419752 
L 185.344105 142.306512 
L 185.470902 142.191247 
L 185.595853 142.073984 
L 185.718929 141.954753 
L 185.840097 141.833585 
L 185.959328 141.71051 
L 186.07659 141.585558 
L 186.191856 141.458761 
L 186.305095 141.330152 
L 186.41628 141.199762 
L 186.525382 141.067625 
L 186.632373 140.933773 
L 186.737228 140.798241 
L 186.839919 140.661062 
L 186.94042 140.522271 
L 187.038707 140.381903 
L 187.134754 140.239993 
L 187.228538 140.096577 
L 187.320035 139.951691 
L 187.409221 139.805372 
L 187.496074 139.657656 
L 187.580573 139.508581 
L 187.662696 139.358184 
L 187.742423 139.206503 
L 187.819733 139.053576 
L 187.894607 138.899441 
L 187.967026 138.744138 
L 188.036971 138.587706 
L 188.104426 138.430184 
L 188.169374 138.271611 
L 188.231797 138.112027 
L 188.29168 137.951474 
L 188.349009 137.78999 
L 188.403768 137.627617 
L 188.455944 137.464396 
L 188.505524 137.300368 
L 188.552495 137.135573 
L 188.596846 136.970055 
L 188.638565 136.803853 
L 188.677642 136.63701 
L 188.714066 136.469568 
L 188.74783 136.30157 
L 188.778924 136.133057 
L 188.80734 135.964071 
L 188.833072 135.794657 
L 188.856112 135.624855 
L 188.876455 135.454709 
L 188.894097 135.284262 
L 188.909032 135.113556 
L 188.921256 134.942635 
L 188.930767 134.771541 
L 188.937563 134.600318 
L 188.941641 134.429009 
L 188.943 134.257656 
L 188.943 48.097656 
L 188.941641 47.926304 
L 188.937563 47.754995 
L 188.930767 47.583772 
L 188.921256 47.412678 
L 188.909032 47.241757 
L 188.894097 47.071051 
L 188.876455 46.900604 
L 188.856112 46.730458 
L 188.833072 46.560656 
L 188.80734 46.391241 
L 188.778924 46.222256 
L 188.74783 46.053743 
L 188.714066 45.885744 
L 188.677642 45.718302 
L 188.638565 45.55146 
L 188.596846 45.385258 
L 188.552495 45.219739 
L 188.505524 45.054945 
L 188.455944 44.890916 
L 188.403768 44.727695 
L 188.349009 44.565322 
L 188.29168 44.403839 
L 188.231797 44.243285 
L 188.169374 44.083702 
L 188.104426 43.925129 
L 188.036971 43.767606 
L 187.967026 43.611174 
L 187.894607 43.455871 
L 187.819733 43.301737 
L 187.742423 43.14881 
L 187.662696 42.997129 
L 187.580573 42.846732 
L 187.496074 42.697656 
L 187.409221 42.54994 
L 187.320035 42.403621 
L 187.228538 42.258735 
L 187.134754 42.11532 
L 187.038707 41.97341 
L 186.94042 41.833042 
L 186.839919 41.694251 
L 186.737228 41.557072 
L 186.632373 41.421539 
L 186.525382 41.287687 
L 186.41628 41.15555 
L 186.305095 41.02516 
L 186.191856 40.896551 
L 186.07659 40.769755 
L 185.959328 40.644803 
L 185.840097 40.521727 
L 185.718929 40.400559 
L 185.595853 40.281329 
L 185.470902 40.164066 
L 185.344105 40.0488 
L 185.215496 39.935561 
L 185.085106 39.824376 
L 184.952969 39.715274 
L 184.819117 39.608283 
L 184.683585 39.503428 
L 184.546406 39.400737 
L 184.407615 39.300236 
L 184.267247 39.201949 
L 184.125337 39.105902 
L 183.981921 39.012118 
L 183.837035 38.920622 
L 183.690716 38.831435 
L 183.543 38.744582 
L 183.393925 38.660083 
L 183.243528 38.57796 
L 183.091846 38.498233 
L 182.938919 38.420923 
L 182.784785 38.34605 
L 182.629482 38.273631 
L 182.47305 38.203685 
L 182.315527 38.13623 
L 182.156955 38.071283 
L 181.997371 38.008859 
L 181.836818 37.948976 
L 181.675334 37.891647 
L 181.512961 37.836888 
L 181.34974 37.784712 
L 181.185712 37.735132 
L 181.020917 37.688161 
L 180.855398 37.64381 
L 180.689197 37.602091 
L 180.522354 37.563015 
L 180.354912 37.52659 
L 180.186913 37.492826 
L 180.0184 37.461733 
L 179.849415 37.433316 
L 179.68 37.407585 
L 179.510198 37.384544 
L 179.340053 37.364201 
L 179.169605 37.346559 
L 178.9989 37.331625 
L 178.827978 37.3194 
L 178.656885 37.309889 
L 178.485662 37.303094 
L 178.314352 37.299016 
L 178.143 37.297656 
L 131.223 37.297656 
L 131.051648 37.299016 
L 130.880338 37.303094 
L 130.709115 37.309889 
L 130.538022 37.3194 
L 130.3671 37.331625 
L 130.196395 37.346559 
L 130.025947 37.364201 
L 129.855802 37.384544 
L 129.686 37.407585 
L 129.516585 37.433316 
L 129.3476 37.461733 
L 129.179087 37.492826 
L 129.011088 37.52659 
L 128.843646 37.563015 
L 128.676803 37.602091 
L 128.510602 37.64381 
L 128.345083 37.688161 
L 128.180288 37.735132 
L 128.01626 37.784712 
L 127.853039 37.836888 
L 127.690666 37.891647 
L 127.529182 37.948976 
L 127.368629 38.008859 
L 127.209045 38.071283 
L 127.050473 38.13623 
L 126.89295 38.203685 
L 126.736518 38.273631 
L 126.581215 38.34605 
L 126.427081 38.420923 
L 126.274154 38.498233 
L 126.122472 38.57796 
L 125.972075 38.660083 
L 125.823 38.744582 
L 125.675284 38.831435 
L 125.528965 38.920622 
L 125.384079 39.012118 
L 125.240663 39.105902 
L 125.098753 39.201949 
L 124.958385 39.300236 
L 124.819594 39.400737 
L 124.682415 39.503428 
L 124.546883 39.608283 
L 124.413031 39.715274 
L 124.280894 39.824376 
L 124.150504 39.935561 
L 124.021895 40.0488 
L 123.895098 40.164066 
L 123.770147 40.281329 
L 123.647071 40.400559 
L 123.525903 40.521727 
L 123.406672 40.644803 
L 123.28941 40.769755 
L 123.174144 40.896551 
L 123.060905 41.02516 
L 122.94972 41.15555 
L 122.840618 41.287687 
L 122.733627 41.421539 
L 122.628772 41.557072 
L 122.526081 41.694251 
L 122.42558 41.833042 
L 122.327293 41.97341 
L 122.231246 42.11532 
L 122.137462 42.258735 
L 122.045965 42.403621 
L 121.956779 42.54994 
L 121.869926 42.697656 
L 121.785427 42.846732 
L 121.703304 42.997129 
L 121.623577 43.14881 
L 121.546267 43.301737 
L 121.471393 43.455871 
L 121.398974 43.611174 
L 121.329029 43.767606 
L 121.261574 43.925129 
L 121.196626 44.083702 
L 121.134203 44.243285 
L 121.07432 44.403839 
L 121.016991 44.565322 
L 120.962232 44.727695 
L 120.910056 44.890916 
L 120.860476 45.054945 
L 120.813505 45.219739 
L 120.769154 45.385258 
L 120.727435 45.55146 
L 120.688358 45.718302 
L 120.651934 45.885744 
L 120.61817 46.053743 
L 120.587076 46.222256 
L 120.55866 46.391241 
L 120.532928 46.560656 
L 120.509888 46.730458 
L 120.489545 46.900604 
L 120.471903 47.071051 
L 120.456968 47.241757 
L 120.444744 47.412678 
L 120.435233 47.583772 
L 120.428437 47.754995 
L 120.424359 47.926304 
L 120.423 48.097656 
L 120.423 134.257656 
L 120.424359 134.429009 
L 120.428437 134.600318 
L 120.435233 134.771541 
L 120.444744 134.942635 
L 120.456968 135.113556 
L 120.471903 135.284262 
L 120.489545 135.454709 
L 120.509888 135.624855 
L 120.532928 135.794657 
L 120.55866 135.964071 
L 120.587076 136.133057 
L 120.61817 136.30157 
L 120.651934 136.469568 
L 120.688358 136.63701 
L 120.727435 136.803853 
L 120.769154 136.970055 
L 120.813505 137.135573 
L 120.860476 137.300368 
L 120.910056 137.464396 
L 120.962232 137.627617 
L 121.016991 137.78999 
L 121.07432 137.951474 
L 121.134203 138.112027 
L 121.196626 138.271611 
L 121.261574 138.430184 
L 121.329029 138.587706 
L 121.398974 138.744138 
L 121.471393 138.899441 
L 121.546267 139.053576 
L 121.623577 139.206503 
L 121.703304 139.358184 
L 121.785427 139.508581 
L 121.869926 139.657656 
L 121.956779 139.805372 
L 122.045965 139.951691 
L 122.137462 140.096577 
L 122.231246 140.239993 
L 122.327293 140.381903 
L 122.42558 140.522271 
L 122.526081 140.661062 
L 122.628772 140.798241 
L 122.733627 140.933773 
L 122.840618 141.067625 
L 122.94972 141.199762 
L 123.060905 141.330152 
L 123.174144 141.458761 
L 123.28941 141.585558 
L 123.406672 141.71051 
L 123.525903 141.833585 
L 123.647071 141.954753 
L 123.770147 142.073984 
L 123.895098 142.191247 
L 124.021895 142.306512 
L 124.150504 142.419752 
L 124.280894 142.530936 
L 124.413031 142.640038 
L 124.546883 142.74703 
L 124.682415 142.851884 
L 124.819594 142.954575 
L 124.958385 143.055077 
L 125.098753 143.153363 
L 125.240663 143.249411 
L 125.384079 143.343194 
L 125.528965 143.434691 
L 125.675284 143.523877 
L 125.823 143.610731 
L 125.972075 143.69523 
L 126.122472 143.777353 
L 126.274154 143.857079 
L 126.427081 143.934389 
L 126.581215 144.009263 
L 126.736518 144.081682 
L 126.89295 144.151628 
L 127.050473 144.219083 
L 127.209045 144.28403 
L 127.368629 144.346453 
L 127.529182 144.406337 
L 127.690666 144.463665 
L 127.853039 144.518424 
L 128.01626 144.5706 
L 128.180288 144.62018 
L 128.345083 144.667152 
L 128.510602 144.711502 
L 128.676803 144.753221 
L 128.843646 144.792298 
L 129.011088 144.828723 
L 129.179087 144.862486 
L 129.3476 144.89358 
L 129.516585 144.921996 
L 129.686 144.947728 
L 129.855802 144.970768 
L 130.025947 144.991112 
L 130.196395 145.008753 
L 130.3671 145.023688 
L 130.538022 145.035912 
L 130.709115 145.045424 
L 130.880338 145.052219 
L 131.051648 145.056297 
L 131.223 145.057656 
L 178.143 145.057656 
z
" clip-path="url(#p1df5b363de)" style="fill: none; stroke-dasharray: 1.85,0.8; stroke-dashoffset: 0; stroke: #008000; stroke-width: 0.5; stroke-linecap: round"/>
   </g>
   <g id="patch_3">
    <path d="M 178.143 256.657656 
L 178.314352 256.656297 
L 178.485662 256.652219 
L 178.656885 256.645424 
L 178.827978 256.635912 
L 178.9989 256.623688 
L 179.169605 256.608753 
L 179.340053 256.591112 
L 179.510198 256.570768 
L 179.68 256.547728 
L 179.849415 256.521996 
L 180.0184 256.49358 
L 180.186913 256.462486 
L 180.354912 256.428723 
L 180.522354 256.392298 
L 180.689197 256.353221 
L 180.855398 256.311502 
L 181.020917 256.267152 
L 181.185712 256.22018 
L 181.34974 256.1706 
L 181.512961 256.118424 
L 181.675334 256.063665 
L 181.836818 256.006337 
L 181.997371 255.946453 
L 182.156955 255.88403 
L 182.315527 255.819083 
L 182.47305 255.751628 
L 182.629482 255.681682 
L 182.784785 255.609263 
L 182.938919 255.534389 
L 183.091846 255.457079 
L 183.243528 255.377353 
L 183.393925 255.29523 
L 183.543 255.210731 
L 183.690716 255.123877 
L 183.837035 255.034691 
L 183.981921 254.943194 
L 184.125337 254.849411 
L 184.267247 254.753363 
L 184.407615 254.655077 
L 184.546406 254.554575 
L 184.683585 254.451884 
L 184.819117 254.34703 
L 184.952969 254.240038 
L 185.085106 254.130936 
L 185.215496 254.019752 
L 185.344105 253.906512 
L 185.470902 253.791247 
L 185.595853 253.673984 
L 185.718929 253.554753 
L 185.840097 253.433585 
L 185.959328 253.31051 
L 186.07659 253.185558 
L 186.191856 253.058761 
L 186.305095 252.930152 
L 186.41628 252.799762 
L 186.525382 252.667625 
L 186.632373 252.533773 
L 186.737228 252.398241 
L 186.839919 252.261062 
L 186.94042 252.122271 
L 187.038707 251.981903 
L 187.134754 251.839993 
L 187.228538 251.696577 
L 187.320035 251.551691 
L 187.409221 251.405372 
L 187.496074 251.257656 
L 187.580573 251.108581 
L 187.662696 250.958184 
L 187.742423 250.806503 
L 187.819733 250.653576 
L 187.894607 250.499441 
L 187.967026 250.344138 
L 188.036971 250.187706 
L 188.104426 250.030184 
L 188.169374 249.871611 
L 188.231797 249.712027 
L 188.29168 249.551474 
L 188.349009 249.38999 
L 188.403768 249.227617 
L 188.455944 249.064396 
L 188.505524 248.900368 
L 188.552495 248.735573 
L 188.596846 248.570055 
L 188.638565 248.403853 
L 188.677642 248.23701 
L 188.714066 248.069568 
L 188.74783 247.90157 
L 188.778924 247.733057 
L 188.80734 247.564071 
L 188.833072 247.394657 
L 188.856112 247.224855 
L 188.876455 247.054709 
L 188.894097 246.884262 
L 188.909032 246.713556 
L 188.921256 246.542635 
L 188.930767 246.371541 
L 188.937563 246.200318 
L 188.941641 246.029009 
L 188.943 245.857656 
L 188.943 163.057656 
L 188.941641 162.886304 
L 188.937563 162.714995 
L 188.930767 162.543772 
L 188.921256 162.372678 
L 188.909032 162.201757 
L 188.894097 162.031051 
L 188.876455 161.860604 
L 188.856112 161.690458 
L 188.833072 161.520656 
L 188.80734 161.351241 
L 188.778924 161.182256 
L 188.74783 161.013743 
L 188.714066 160.845744 
L 188.677642 160.678302 
L 188.638565 160.51146 
L 188.596846 160.345258 
L 188.552495 160.179739 
L 188.505524 160.014945 
L 188.455944 159.850916 
L 188.403768 159.687695 
L 188.349009 159.525322 
L 188.29168 159.363839 
L 188.231797 159.203285 
L 188.169374 159.043702 
L 188.104426 158.885129 
L 188.036971 158.727606 
L 187.967026 158.571174 
L 187.894607 158.415871 
L 187.819733 158.261737 
L 187.742423 158.10881 
L 187.662696 157.957129 
L 187.580573 157.806732 
L 187.496074 157.657656 
L 187.409221 157.50994 
L 187.320035 157.363621 
L 187.228538 157.218735 
L 187.134754 157.07532 
L 187.038707 156.93341 
L 186.94042 156.793042 
L 186.839919 156.654251 
L 186.737228 156.517072 
L 186.632373 156.381539 
L 186.525382 156.247687 
L 186.41628 156.11555 
L 186.305095 155.98516 
L 186.191856 155.856551 
L 186.07659 155.729755 
L 185.959328 155.604803 
L 185.840097 155.481727 
L 185.718929 155.360559 
L 185.595853 155.241329 
L 185.470902 155.124066 
L 185.344105 155.0088 
L 185.215496 154.895561 
L 185.085106 154.784376 
L 184.952969 154.675274 
L 184.819117 154.568283 
L 184.683585 154.463428 
L 184.546406 154.360737 
L 184.407615 154.260236 
L 184.267247 154.161949 
L 184.125337 154.065902 
L 183.981921 153.972118 
L 183.837035 153.880622 
L 183.690716 153.791435 
L 183.543 153.704582 
L 183.393925 153.620083 
L 183.243528 153.53796 
L 183.091846 153.458233 
L 182.938919 153.380923 
L 182.784785 153.30605 
L 182.629482 153.233631 
L 182.47305 153.163685 
L 182.315527 153.09623 
L 182.156955 153.031283 
L 181.997371 152.968859 
L 181.836818 152.908976 
L 181.675334 152.851647 
L 181.512961 152.796888 
L 181.34974 152.744712 
L 181.185712 152.695132 
L 181.020917 152.648161 
L 180.855398 152.60381 
L 180.689197 152.562091 
L 180.522354 152.523015 
L 180.354912 152.48659 
L 180.186913 152.452826 
L 180.0184 152.421733 
L 179.849415 152.393316 
L 179.68 152.367585 
L 179.510198 152.344544 
L 179.340053 152.324201 
L 179.169605 152.306559 
L 178.9989 152.291625 
L 178.827978 152.2794 
L 178.656885 152.269889 
L 178.485662 152.263094 
L 178.314352 152.259016 
L 178.143 152.257656 
L 131.223 152.257656 
L 131.051648 152.259016 
L 130.880338 152.263094 
L 130.709115 152.269889 
L 130.538022 152.2794 
L 130.3671 152.291625 
L 130.196395 152.306559 
L 130.025947 152.324201 
L 129.855802 152.344544 
L 129.686 152.367585 
L 129.516585 152.393316 
L 129.3476 152.421733 
L 129.179087 152.452826 
L 129.011088 152.48659 
L 128.843646 152.523015 
L 128.676803 152.562091 
L 128.510602 152.60381 
L 128.345083 152.648161 
L 128.180288 152.695132 
L 128.01626 152.744712 
L 127.853039 152.796888 
L 127.690666 152.851647 
L 127.529182 152.908976 
L 127.368629 152.968859 
L 127.209045 153.031283 
L 127.050473 153.09623 
L 126.89295 153.163685 
L 126.736518 153.233631 
L 126.581215 153.30605 
L 126.427081 153.380923 
L 126.274154 153.458233 
L 126.122472 153.53796 
L 125.972075 153.620083 
L 125.823 153.704582 
L 125.675284 153.791435 
L 125.528965 153.880622 
L 125.384079 153.972118 
L 125.240663 154.065902 
L 125.098753 154.161949 
L 124.958385 154.260236 
L 124.819594 154.360737 
L 124.682415 154.463428 
L 124.546883 154.568283 
L 124.413031 154.675274 
L 124.280894 154.784376 
L 124.150504 154.895561 
L 124.021895 155.0088 
L 123.895098 155.124066 
L 123.770147 155.241329 
L 123.647071 155.360559 
L 123.525903 155.481727 
L 123.406672 155.604803 
L 123.28941 155.729755 
L 123.174144 155.856551 
L 123.060905 155.98516 
L 122.94972 156.11555 
L 122.840618 156.247687 
L 122.733627 156.381539 
L 122.628772 156.517072 
L 122.526081 156.654251 
L 122.42558 156.793042 
L 122.327293 156.93341 
L 122.231246 157.07532 
L 122.137462 157.218735 
L 122.045965 157.363621 
L 121.956779 157.50994 
L 121.869926 157.657656 
L 121.785427 157.806732 
L 121.703304 157.957129 
L 121.623577 158.10881 
L 121.546267 158.261737 
L 121.471393 158.415871 
L 121.398974 158.571174 
L 121.329029 158.727606 
L 121.261574 158.885129 
L 121.196626 159.043702 
L 121.134203 159.203285 
L 121.07432 159.363839 
L 121.016991 159.525322 
L 120.962232 159.687695 
L 120.910056 159.850916 
L 120.860476 160.014945 
L 120.813505 160.179739 
L 120.769154 160.345258 
L 120.727435 160.51146 
L 120.688358 160.678302 
L 120.651934 160.845744 
L 120.61817 161.013743 
L 120.587076 161.182256 
L 120.55866 161.351241 
L 120.532928 161.520656 
L 120.509888 161.690458 
L 120.489545 161.860604 
L 120.471903 162.031051 
L 120.456968 162.201757 
L 120.444744 162.372678 
L 120.435233 162.543772 
L 120.428437 162.714995 
L 120.424359 162.886304 
L 120.423 163.057656 
L 120.423 245.857656 
L 120.424359 246.029009 
L 120.428437 246.200318 
L 120.435233 246.371541 
L 120.444744 246.542635 
L 120.456968 246.713556 
L 120.471903 246.884262 
L 120.489545 247.054709 
L 120.509888 247.224855 
L 120.532928 247.394657 
L 120.55866 247.564071 
L 120.587076 247.733057 
L 120.61817 247.90157 
L 120.651934 248.069568 
L 120.688358 248.23701 
L 120.727435 248.403853 
L 120.769154 248.570055 
L 120.813505 248.735573 
L 120.860476 248.900368 
L 120.910056 249.064396 
L 120.962232 249.227617 
L 121.016991 249.38999 
L 121.07432 249.551474 
L 121.134203 249.712027 
L 121.196626 249.871611 
L 121.261574 250.030184 
L 121.329029 250.187706 
L 121.398974 250.344138 
L 121.471393 250.499441 
L 121.546267 250.653576 
L 121.623577 250.806503 
L 121.703304 250.958184 
L 121.785427 251.108581 
L 121.869926 251.257656 
L 121.956779 251.405372 
L 122.045965 251.551691 
L 122.137462 251.696577 
L 122.231246 251.839993 
L 122.327293 251.981903 
L 122.42558 252.122271 
L 122.526081 252.261062 
L 122.628772 252.398241 
L 122.733627 252.533773 
L 122.840618 252.667625 
L 122.94972 252.799762 
L 123.060905 252.930152 
L 123.174144 253.058761 
L 123.28941 253.185558 
L 123.406672 253.31051 
L 123.525903 253.433585 
L 123.647071 253.554753 
L 123.770147 253.673984 
L 123.895098 253.791247 
L 124.021895 253.906512 
L 124.150504 254.019752 
L 124.280894 254.130936 
L 124.413031 254.240038 
L 124.546883 254.34703 
L 124.682415 254.451884 
L 124.819594 254.554575 
L 124.958385 254.655077 
L 125.098753 254.753363 
L 125.240663 254.849411 
L 125.384079 254.943194 
L 125.528965 255.034691 
L 125.675284 255.123877 
L 125.823 255.210731 
L 125.972075 255.29523 
L 126.122472 255.377353 
L 126.274154 255.457079 
L 126.427081 255.534389 
L 126.581215 255.609263 
L 126.736518 255.681682 
L 126.89295 255.751628 
L 127.050473 255.819083 
L 127.209045 255.88403 
L 127.368629 255.946453 
L 127.529182 256.006337 
L 127.690666 256.063665 
L 127.853039 256.118424 
L 128.01626 256.1706 
L 128.180288 256.22018 
L 128.345083 256.267152 
L 128.510602 256.311502 
L 128.676803 256.353221 
L 128.843646 256.392298 
L 129.011088 256.428723 
L 129.179087 256.462486 
L 129.3476 256.49358 
L 129.516585 256.521996 
L 129.686 256.547728 
L 129.855802 256.570768 
L 130.025947 256.591112 
L 130.196395 256.608753 
L 130.3671 256.623688 
L 130.538022 256.635912 
L 130.709115 256.645424 
L 130.880338 256.652219 
L 131.051648 256.656297 
L 131.223 256.657656 
L 178.143 256.657656 
z
" clip-path="url(#p1df5b363de)" style="fill: none; stroke-dasharray: 1.85,0.8; stroke-dashoffset: 0; stroke: #008000; stroke-width: 0.5; stroke-linecap: round"/>
   </g>
   <g id="line2d_1">
    <path d="M 127.623 58.777656 
L 140.823 58.777656 
" clip-path="url(#p1df5b363de)" style="fill: none; stroke: #000000; stroke-width: 2; stroke-linecap: round"/>
   </g>
   <g id="line2d_2">
    <path d="M 140.823 45.577656 
L 140.823 71.977656 
" clip-path="url(#p1df5b363de)" style="fill: none; stroke: #000000; stroke-width: 2; stroke-linecap: round"/>
   </g>
   <g id="line2d_3">
    <path d="M 140.823 52.177656 
L 154.683 40.297656 
L 154.683 33.697656 
" clip-path="url(#p1df5b363de)" style="fill: none; stroke: #000000; stroke-width: 2; stroke-linecap: round"/>
   </g>
   <g id="line2d_4">
    <path d="M 140.823 65.377656 
L 154.683 77.257656 
L 154.683 83.857656 
" clip-path="url(#p1df5b363de)" style="fill: none; stroke: #000000; stroke-width: 2; stroke-linecap: round"/>
   </g>
   <g id="line2d_5">
    <path d="M 140.823 65.377656 
L 147.849691 71.400534 
" clip-path="url(#p1df5b363de)" style="fill: none; stroke: #000000; stroke-width: 2; stroke-linecap: round"/>
   </g>
   <g id="patch_4">
    <path d="M 150.19254 68.66721 
L 154.683 77.257656 
L 145.506842 74.133858 
z
" clip-path="url(#p1df5b363de)"/>
   </g>
   <g id="line2d_6">
    <path d="M 127.623 58.777656 
L 127.623 103.777656 
L 127.623 148.777656 
" clip-path="url(#p1df5b363de)" style="fill: none; stroke: #000000; stroke-width: 2; stroke-linecap: round"/>
   </g>
   <g id="line2d_7">
    <path d="M 127.623 148.777656 
L 127.623 191.977656 
L 127.623 235.177656 
" clip-path="url(#p1df5b363de)" style="fill: none; stroke: #000000; stroke-width: 2; stroke-linecap: round"/>
   </g>
   <g id="line2d_8">
    <path d="M 127.623 235.177656 
L 140.823 235.177656 
" clip-path="url(#p1df5b363de)" style="fill: none; stroke: #000000; stroke-width: 2; stroke-linecap: round"/>
   </g>
   <g id="line2d_9">
    <path d="M 140.823 221.977656 
L 140.823 248.377656 
" clip-path="url(#p1df5b363de)" style="fill: none; stroke: #000000; stroke-width: 2; stroke-linecap: round"/>
   </g>
   <g id="line2d_10">
    <path d="M 140.823 228.577656 
L 154.683 216.697656 
L 154.683 210.097656 
" clip-path="url(#p1df5b363de)" style="fill: none; stroke: #000000; stroke-width: 2; stroke-linecap: round"/>
   </g>
   <g id="line2d_11">
    <path d="M 140.823 241.777656 
L 154.683 253.657656 
L 154.683 260.257656 
" clip-path="url(#p1df5b363de)" style="fill: none; stroke: #000000; stroke-width: 2; stroke-linecap: round"/>
   </g>
   <g id="line2d_12">
    <path d="M 154.683 216.697656 
L 147.656309 222.720534 
" clip-path="url(#p1df5b363de)" style="fill: none; stroke: #000000; stroke-width: 2; stroke-linecap: round"/>
   </g>
   <g id="patch_5">
    <path d="M 149.999158 225.453858 
L 140.823 228.577656 
L 145.31346 219.98721 
z
" clip-path="url(#p1df5b363de)"/>
   </g>
   <g id="line2d_13">
    <path d="M 127.623 148.777656 
L 76.863 148.777656 
M 76.863 157.777656 
L 76.863 139.777656 
M 70.383 157.777656 
L 70.383 139.777656 
M 70.383 148.777656 
L 19.623 148.777656 
" clip-path="url(#p1df5b363de)" style="fill: none; stroke: #000000; stroke-width: 2; stroke-linecap: round"/>
   </g>
   <g id="line2d_14">
    <path d="M 154.683 83.857656 
L 167.883 83.857656 
" clip-path="url(#p1df5b363de)" style="fill: none; stroke: #000000; stroke-width: 2; stroke-linecap: round"/>
   </g>
   <g id="line2d_15">
    <path d="M 167.883 70.657656 
L 167.883 97.057656 
" clip-path="url(#p1df5b363de)" style="fill: none; stroke: #000000; stroke-width: 2; stroke-linecap: round"/>
   </g>
   <g id="line2d_16">
    <path d="M 167.883 77.257656 
L 181.743 65.377656 
L 181.743 58.777656 
" clip-path="url(#p1df5b363de)" style="fill: none; stroke: #000000; stroke-width: 2; stroke-linecap: round"/>
   </g>
   <g id="line2d_17">
    <path d="M 167.883 90.457656 
L 181.743 102.337656 
L 181.743 108.937656 
" clip-path="url(#p1df5b363de)" style="fill: none; stroke: #000000; stroke-width: 2; stroke-linecap: round"/>
   </g>
   <g id="line2d_18">
    <path d="M 167.883 90.457656 
L 174.909691 96.480534 
" clip-path="url(#p1df5b363de)" style="fill: none; stroke: #000000; stroke-width: 2; stroke-linecap: round"/>
   </g>
   <g id="patch_6">
    <path d="M 177.25254 93.74721 
L 181.743 102.337656 
L 172.566842 99.213858 
z
" clip-path="url(#p1df5b363de)"/>
   </g>
   <g id="line2d_19">
    <path d="M 154.683 83.857656 
L 154.683 98.257656 
L 163.683 101.257656 
L 145.683 107.257656 
L 163.683 113.257656 
L 145.683 119.257656 
L 163.683 125.257656 
L 145.683 131.257656 
L 154.683 134.257656 
L 154.683 148.657656 
" clip-path="url(#p1df5b363de)" style="fill: none; stroke: #000000; stroke-width: 2; stroke-linecap: round"/>
   </g>
   <g id="line2d_20">
    <path d="M 181.743 108.937656 
L 181.743 128.797656 
L 181.743 148.657656 
" clip-path="url(#p1df5b363de)" style="fill: none; stroke: #000000; stroke-width: 2; stroke-linecap: round"/>
   </g>
   <g id="line2d_21">
    <path d="M 181.743 58.777656 
L 181.743 46.237656 
L 181.743 33.697656 
" clip-path="url(#p1df5b363de)" style="fill: none; stroke: #000000; stroke-width: 2; stroke-linecap: round"/>
   </g>
   <g id="line2d_22">
    <path d="M 181.743 33.697656 
L 174.543 33.697656 
L 167.343 33.697656 
" clip-path="url(#p1df5b363de)" style="fill: none; stroke: #000000; stroke-width: 2; stroke-linecap: round"/>
   </g>
   <g id="line2d_23">
    <path d="M 167.343 33.697656 
L 167.343 19.297656 
" clip-path="url(#p1df5b363de)" style="fill: none; stroke: #000000; stroke-width: 2; stroke-linecap: round"/>
   </g>
   <g id="line2d_24">
    <path d="M 167.343 19.297656 
L 160.593 19.297656 
" clip-path="url(#p1df5b363de)" style="fill: none; stroke: #000000; stroke-width: 2; stroke-linecap: round"/>
   </g>
   <g id="line2d_25">
    <path d="M 167.343 19.297656 
L 174.093 19.297656 
" clip-path="url(#p1df5b363de)" style="fill: none; stroke: #000000; stroke-width: 2; stroke-linecap: round"/>
   </g>
   <g id="line2d_26">
    <path d="M 167.343 33.697656 
L 161.013 33.697656 
L 154.683 33.697656 
" clip-path="url(#p1df5b363de)" style="fill: none; stroke: #000000; stroke-width: 2; stroke-linecap: round"/>
   </g>
   <g id="line2d_27">
    <path d="M 154.683 148.657656 
L 154.683 161.377656 
L 163.683 164.377656 
L 145.683 170.377656 
L 163.683 176.377656 
L 145.683 182.377656 
L 163.683 188.377656 
L 145.683 194.377656 
L 154.683 197.377656 
L 154.683 210.097656 
" clip-path="url(#p1df5b363de)" style="fill: none; stroke: #000000; stroke-width: 2; stroke-linecap: round"/>
   </g>
   <g id="line2d_28">
    <path d="M 154.683 210.097656 
L 167.883 210.097656 
" clip-path="url(#p1df5b363de)" style="fill: none; stroke: #000000; stroke-width: 2; stroke-linecap: round"/>
   </g>
   <g id="line2d_29">
    <path d="M 167.883 196.897656 
L 167.883 223.297656 
" clip-path="url(#p1df5b363de)" style="fill: none; stroke: #000000; stroke-width: 2; stroke-linecap: round"/>
   </g>
   <g id="line2d_30">
    <path d="M 167.883 203.497656 
L 181.743 191.617656 
L 181.743 185.017656 
" clip-path="url(#p1df5b363de)" style="fill: none; stroke: #000000; stroke-width: 2; stroke-linecap: round"/>
   </g>
   <g id="line2d_31">
    <path d="M 167.883 216.697656 
L 181.743 228.577656 
L 181.743 235.177656 
" clip-path="url(#p1df5b363de)" style="fill: none; stroke: #000000; stroke-width: 2; stroke-linecap: round"/>
   </g>
   <g id="line2d_32">
    <path d="M 181.743 191.617656 
L 174.716309 197.640534 
" clip-path="url(#p1df5b363de)" style="fill: none; stroke: #000000; stroke-width: 2; stroke-linecap: round"/>
   </g>
   <g id="patch_7">
    <path d="M 177.059158 200.373858 
L 167.883 203.497656 
L 172.37346 194.90721 
z
" clip-path="url(#p1df5b363de)"/>
   </g>
   <g id="line2d_33">
    <path d="M 181.743 185.017656 
L 181.743 166.837656 
L 181.743 148.657656 
" clip-path="url(#p1df5b363de)" style="fill: none; stroke: #000000; stroke-width: 2; stroke-linecap: round"/>
   </g>
   <g id="line2d_34">
    <path d="M 181.743 235.177656 
L 181.743 247.717656 
L 181.743 260.257656 
" clip-path="url(#p1df5b363de)" style="fill: none; stroke: #000000; stroke-width: 2; stroke-linecap: round"/>
   </g>
   <g id="line2d_35">
    <path d="M 181.743 260.257656 
L 174.543 260.257656 
L 167.343 260.257656 
" clip-path="url(#p1df5b363de)" style="fill: none; stroke: #000000; stroke-width: 2; stroke-linecap: round"/>
   </g>
   <g id="line2d_36">
    <path d="M 167.343 260.257656 
L 167.343 274.657656 
L 158.343 274.657656 
L 176.343 274.657656 
M 161.043 278.977656 
L 173.643 278.977656 
M 165.543 283.297656 
L 169.143 283.297656 
" clip-path="url(#p1df5b363de)" style="fill: none; stroke: #000000; stroke-width: 2; stroke-linecap: round"/>
   </g>
   <g id="line2d_37">
    <path d="M 167.343 260.257656 
L 161.013 260.257656 
L 154.683 260.257656 
" clip-path="url(#p1df5b363de)" style="fill: none; stroke: #000000; stroke-width: 2; stroke-linecap: round"/>
   </g>
   <g id="line2d_38">
    <path d="M 154.683 148.657656 
L 205.443 148.657656 
M 205.443 139.657656 
L 205.443 157.657656 
M 211.923 139.657656 
L 211.923 157.657656 
M 211.923 148.657656 
L 262.683 148.657656 
" clip-path="url(#p1df5b363de)" style="fill: none; stroke: #000000; stroke-width: 2; stroke-linecap: round"/>
   </g>
   <g id="line2d_39">
    <path d="M 262.683 148.657656 
L 262.683 184.657656 
L 271.683 187.657656 
L 253.683 193.657656 
L 271.683 199.657656 
L 253.683 205.657656 
L 271.683 211.657656 
L 253.683 217.657656 
L 262.683 220.657656 
L 262.683 256.657656 
" clip-path="url(#p1df5b363de)" style="fill: none; stroke: #000000; stroke-width: 2; stroke-linecap: round"/>
   </g>
   <g id="line2d_40">
    <path d="M 262.683 148.657656 
L 271.683 148.657656 
L 280.683 148.657656 
" clip-path="url(#p1df5b363de)" style="fill: none; stroke: #000000; stroke-width: 2; stroke-linecap: round"/>
   </g>
   <g id="line2d_41">
    <path d="M 262.683 256.657656 
L 262.683 271.057656 
L 253.683 271.057656 
L 271.683 271.057656 
M 256.383 275.377656 
L 268.983 275.377656 
M 260.883 279.697656 
L 264.483 279.697656 
" clip-path="url(#p1df5b363de)" style="fill: none; stroke: #000000; stroke-width: 2; stroke-linecap: round"/>
   </g>
   <g id="line2d_42">
    <path d="M 262.683 256.657656 
L 262.683 254.857656 
L 262.683 253.057656 
" clip-path="url(#p1df5b363de)" style="fill: none; stroke: #000000; stroke-width: 2; stroke-linecap: round"/>
   </g>
   <g id="text_1">
    <!-- $C_{in}$ -->
    <g transform="translate(65.0605 133.578047) scale(0.125 -0.125)">
     <defs>
      <path id="DejaVuSans-Oblique-43" d="M 4447 4306 
L 4319 3641 
Q 4019 3944 3683 4091 
Q 3347 4238 2956 4238 
Q 2422 4238 2017 3981 
Q 1613 3725 1319 3200 
Q 1131 2863 1032 2486 
Q 934 2109 934 1728 
Q 934 1091 1264 756 
Q 1594 422 2222 422 
Q 2656 422 3056 561 
Q 3456 700 3834 978 
L 3688 231 
Q 3316 72 2936 -9 
Q 2556 -91 2175 -91 
Q 1278 -91 773 396 
Q 269 884 269 1753 
Q 269 2309 461 2846 
Q 653 3384 1013 3828 
Q 1394 4300 1883 4525 
Q 2372 4750 3022 4750 
Q 3422 4750 3780 4639 
Q 4138 4528 4447 4306 
z
" transform="scale(0.015625)"/>
      <path id="DejaVuSans-Oblique-69" d="M 1172 4863 
L 1747 4863 
L 1606 4134 
L 1031 4134 
L 1172 4863 
z
M 909 3500 
L 1484 3500 
L 800 0 
L 225 0 
L 909 3500 
z
" transform="scale(0.015625)"/>
      <path id="DejaVuSans-Oblique-6e" d="M 3566 2113 
L 3156 0 
L 2578 0 
L 2988 2091 
Q 3016 2238 3031 2350 
Q 3047 2463 3047 2528 
Q 3047 2791 2881 2937 
Q 2716 3084 2419 3084 
Q 1956 3084 1622 2776 
Q 1288 2469 1184 1941 
L 800 0 
L 225 0 
L 903 3500 
L 1478 3500 
L 1363 2950 
Q 1603 3253 1940 3418 
Q 2278 3584 2650 3584 
Q 3113 3584 3367 3334 
Q 3622 3084 3622 2631 
Q 3622 2519 3608 2391 
Q 3594 2263 3566 2113 
z
" transform="scale(0.015625)"/>
     </defs>
     <use xlink:href="#DejaVuSans-Oblique-43" transform="translate(0 0.78125)"/>
     <use xlink:href="#DejaVuSans-Oblique-69" transform="translate(69.824219 -15.625) scale(0.7)"/>
     <use xlink:href="#DejaVuSans-Oblique-6e" transform="translate(89.272461 -15.625) scale(0.7)"/>
    </g>
   </g>
   <g id="text_2">
    <!-- $V_{DD}$ -->
    <g transform="translate(156.1555 13.098047) scale(0.125 -0.125)">
     <defs>
      <path id="DejaVuSans-Oblique-56" d="M 1319 0 
L 500 4666 
L 1119 4666 
L 1797 653 
L 4063 4666 
L 4750 4666 
L 2053 0 
L 1319 0 
z
" transform="scale(0.015625)"/>
      <path id="DejaVuSans-Oblique-44" d="M 1081 4666 
L 2438 4666 
Q 3519 4666 4070 4208 
Q 4622 3750 4622 2847 
Q 4622 2250 4412 1698 
Q 4203 1147 3834 769 
Q 3463 381 2891 190 
Q 2319 0 1538 0 
L 172 0 
L 1081 4666 
z
M 1613 4147 
L 909 519 
L 1734 519 
Q 2794 519 3375 1128 
Q 3956 1738 3956 2847 
Q 3956 3519 3581 3833 
Q 3206 4147 2406 4147 
L 1613 4147 
z
" transform="scale(0.015625)"/>
     </defs>
     <use xlink:href="#DejaVuSans-Oblique-56" transform="translate(0 0.09375)"/>
     <use xlink:href="#DejaVuSans-Oblique-44" transform="translate(68.408203 -16.3125) scale(0.7)"/>
     <use xlink:href="#DejaVuSans-Oblique-44" transform="translate(122.30957 -16.3125) scale(0.7)"/>
    </g>
   </g>
   <g id="text_3">
    <!-- $C_{out}$ -->
    <g transform="translate(196.933 133.458047) scale(0.125 -0.125)">
     <defs>
      <path id="DejaVuSans-Oblique-6f" d="M 1625 -91 
Q 1009 -91 651 289 
Q 294 669 294 1325 
Q 294 1706 417 2101 
Q 541 2497 738 2766 
Q 1047 3184 1428 3384 
Q 1809 3584 2291 3584 
Q 2888 3584 3255 3212 
Q 3622 2841 3622 2241 
Q 3622 1825 3500 1412 
Q 3378 1000 3181 728 
Q 2875 309 2494 109 
Q 2113 -91 1625 -91 
z
M 891 1344 
Q 891 869 1089 633 
Q 1288 397 1691 397 
Q 2269 397 2648 901 
Q 3028 1406 3028 2181 
Q 3028 2634 2825 2865 
Q 2622 3097 2228 3097 
Q 1903 3097 1650 2945 
Q 1397 2794 1197 2484 
Q 1050 2253 970 1956 
Q 891 1659 891 1344 
z
" transform="scale(0.015625)"/>
      <path id="DejaVuSans-Oblique-75" d="M 428 1388 
L 838 3500 
L 1416 3500 
L 1006 1409 
Q 975 1256 961 1147 
Q 947 1038 947 966 
Q 947 700 1109 554 
Q 1272 409 1569 409 
Q 2031 409 2368 721 
Q 2706 1034 2809 1563 
L 3194 3500 
L 3769 3500 
L 3091 0 
L 2516 0 
L 2631 550 
Q 2388 244 2052 76 
Q 1716 -91 1338 -91 
Q 878 -91 622 161 
Q 366 413 366 863 
Q 366 956 381 1097 
Q 397 1238 428 1388 
z
" transform="scale(0.015625)"/>
      <path id="DejaVuSans-Oblique-74" d="M 2706 3500 
L 2619 3053 
L 1472 3053 
L 1100 1153 
Q 1081 1047 1072 975 
Q 1063 903 1063 863 
Q 1063 663 1183 572 
Q 1303 481 1569 481 
L 2150 481 
L 2053 0 
L 1503 0 
Q 991 0 739 200 
Q 488 400 488 806 
Q 488 878 497 964 
Q 506 1050 525 1153 
L 897 3053 
L 409 3053 
L 500 3500 
L 978 3500 
L 1172 4494 
L 1747 4494 
L 1556 3500 
L 2706 3500 
z
" transform="scale(0.015625)"/>
     </defs>
     <use xlink:href="#DejaVuSans-Oblique-43" transform="translate(0 0.78125)"/>
     <use xlink:href="#DejaVuSans-Oblique-6f" transform="translate(69.824219 -15.625) scale(0.7)"/>
     <use xlink:href="#DejaVuSans-Oblique-75" transform="translate(112.651367 -15.625) scale(0.7)"/>
     <use xlink:href="#DejaVuSans-Oblique-74" transform="translate(157.016602 -15.625) scale(0.7)"/>
    </g>
   </g>
   <g id="text_4">
    <!-- $R_L$ -->
    <g transform="translate(236.083 206.106875) scale(0.125 -0.125)">
     <defs>
      <path id="DejaVuSans-Oblique-52" d="M 1613 4147 
L 1294 2491 
L 2106 2491 
Q 2584 2491 2879 2755 
Q 3175 3019 3175 3444 
Q 3175 3784 2976 3965 
Q 2778 4147 2406 4147 
L 1613 4147 
z
M 2772 2241 
Q 2972 2194 3105 2009 
Q 3238 1825 3413 1275 
L 3809 0 
L 3144 0 
L 2778 1197 
Q 2638 1659 2453 1815 
Q 2269 1972 1888 1972 
L 1191 1972 
L 806 0 
L 172 0 
L 1081 4666 
L 2503 4666 
Q 3150 4666 3495 4373 
Q 3841 4081 3841 3531 
Q 3841 3044 3547 2687 
Q 3253 2331 2772 2241 
z
" transform="scale(0.015625)"/>
      <path id="DejaVuSans-Oblique-4c" d="M 1075 4666 
L 1709 4666 
L 909 525 
L 3181 525 
L 3078 0 
L 172 0 
L 1075 4666 
z
" transform="scale(0.015625)"/>
     </defs>
     <use xlink:href="#DejaVuSans-Oblique-52" transform="translate(0 0.09375)"/>
     <use xlink:href="#DejaVuSans-Oblique-4c" transform="translate(69.482422 -16.3125) scale(0.7)"/>
    </g>
   </g>
   <g id="patch_8">
    <path d="M 127.623 151.477656 
C 128.339048 151.477656 129.025866 151.193167 129.532188 150.686845 
C 130.038511 150.180522 130.323 149.493705 130.323 148.777656 
C 130.323 148.061608 130.038511 147.374791 129.532188 146.868468 
C 129.025866 146.362145 128.339048 146.077656 127.623 146.077656 
C 126.906952 146.077656 126.220134 146.362145 125.713812 146.868468 
C 125.207489 147.374791 124.923 148.061608 124.923 148.777656 
C 124.923 149.493705 125.207489 150.180522 125.713812 150.686845 
C 126.220134 151.193167 126.906952 151.477656 127.623 151.477656 
z
" clip-path="url(#p1df5b363de)" style="stroke: #000000; stroke-width: 2; stroke-linejoin: miter"/>
   </g>
   <g id="patch_9">
    <path d="M 19.623 151.477656 
C 20.339048 151.477656 21.025866 151.193167 21.532188 150.686845 
C 22.038511 150.180522 22.323 149.493705 22.323 148.777656 
C 22.323 148.061608 22.038511 147.374791 21.532188 146.868468 
C 21.025866 146.362145 20.339048 146.077656 19.623 146.077656 
C 18.906952 146.077656 18.220134 146.362145 17.713812 146.868468 
C 17.207489 147.374791 16.923 148.061608 16.923 148.777656 
C 16.923 149.493705 17.207489 150.180522 17.713812 150.686845 
C 18.220134 151.193167 18.906952 151.477656 19.623 151.477656 
z
" clip-path="url(#p1df5b363de)" style="fill: #ffffff; stroke: #000000; stroke-width: 2; stroke-linejoin: miter"/>
   </g>
   <g id="text_5">
    <!-- $v_{in}$ -->
    <g transform="translate(11.748 139.878047) scale(0.125 -0.125)">
     <defs>
      <path id="DejaVuSans-Oblique-76" d="M 459 3500 
L 1069 3500 
L 1581 525 
L 3256 3500 
L 3866 3500 
L 1875 0 
L 1100 0 
L 459 3500 
z
" transform="scale(0.015625)"/>
     </defs>
     <use xlink:href="#DejaVuSans-Oblique-76" transform="translate(0 0.3125)"/>
     <use xlink:href="#DejaVuSans-Oblique-69" transform="translate(59.179688 -16.09375) scale(0.7)"/>
     <use xlink:href="#DejaVuSans-Oblique-6e" transform="translate(78.62793 -16.09375) scale(0.7)"/>
    </g>
   </g>
   <g id="patch_10">
    <path d="M 154.683 151.357656 
C 155.399048 151.357656 156.085866 151.073167 156.592188 150.566845 
C 157.098511 150.060522 157.383 149.373705 157.383 148.657656 
C 157.383 147.941608 157.098511 147.254791 156.592188 146.748468 
C 156.085866 146.242145 155.399048 145.957656 154.683 145.957656 
C 153.966952 145.957656 153.280134 146.242145 152.773812 146.748468 
C 152.267489 147.254791 151.983 147.941608 151.983 148.657656 
C 151.983 149.373705 152.267489 150.060522 152.773812 150.566845 
C 153.280134 151.073167 153.966952 151.357656 154.683 151.357656 
z
" clip-path="url(#p1df5b363de)" style="stroke: #000000; stroke-width: 2; stroke-linejoin: miter"/>
   </g>
   <g id="patch_11">
    <path d="M 181.743 151.357656 
C 182.459048 151.357656 183.145866 151.073167 183.652188 150.566845 
C 184.158511 150.060522 184.443 149.373705 184.443 148.657656 
C 184.443 147.941608 184.158511 147.254791 183.652188 146.748468 
C 183.145866 146.242145 182.459048 145.957656 181.743 145.957656 
C 181.026952 145.957656 180.340134 146.242145 179.833812 146.748468 
C 179.327489 147.254791 179.043 147.941608 179.043 148.657656 
C 179.043 149.373705 179.327489 150.060522 179.833812 150.566845 
C 180.340134 151.073167 181.026952 151.357656 181.743 151.357656 
z
" clip-path="url(#p1df5b363de)" style="stroke: #000000; stroke-width: 2; stroke-linejoin: miter"/>
   </g>
   <g id="patch_12">
    <path d="M 167.343 36.397656 
C 168.059048 36.397656 168.745866 36.113167 169.252188 35.606845 
C 169.758511 35.100522 170.043 34.413705 170.043 33.697656 
C 170.043 32.981608 169.758511 32.294791 169.252188 31.788468 
C 168.745866 31.282145 168.059048 30.997656 167.343 30.997656 
C 166.626952 30.997656 165.940134 31.282145 165.433812 31.788468 
C 164.927489 32.294791 164.643 32.981608 164.643 33.697656 
C 164.643 34.413705 164.927489 35.100522 165.433812 35.606845 
C 165.940134 36.113167 166.626952 36.397656 167.343 36.397656 
z
" clip-path="url(#p1df5b363de)" style="stroke: #000000; stroke-width: 2; stroke-linejoin: miter"/>
   </g>
   <g id="patch_13">
    <path d="M 167.343 262.957656 
C 168.059048 262.957656 168.745866 262.673167 169.252188 262.166845 
C 169.758511 261.660522 170.043 260.973705 170.043 260.257656 
C 170.043 259.541608 169.758511 258.854791 169.252188 258.348468 
C 168.745866 257.842145 168.059048 257.557656 167.343 257.557656 
C 166.626952 257.557656 165.940134 257.842145 165.433812 258.348468 
C 164.927489 258.854791 164.643 259.541608 164.643 260.257656 
C 164.643 260.973705 164.927489 261.660522 165.433812 262.166845 
C 165.940134 262.673167 166.626952 262.957656 167.343 262.957656 
z
" clip-path="url(#p1df5b363de)" style="stroke: #000000; stroke-width: 2; stroke-linejoin: miter"/>
   </g>
   <g id="patch_14">
    <path d="M 280.683 151.357656 
C 281.399048 151.357656 282.085866 151.073167 282.592188 150.566845 
C 283.098511 150.060522 283.383 149.373705 283.383 148.657656 
C 283.383 147.941608 283.098511 147.254791 282.592188 146.748468 
C 282.085866 146.242145 281.399048 145.957656 280.683 145.957656 
C 279.966952 145.957656 279.280134 146.242145 278.773812 146.748468 
C 278.267489 147.254791 277.983 147.941608 277.983 148.657656 
C 277.983 149.373705 278.267489 150.060522 278.773812 150.566845 
C 279.280134 151.073167 279.966952 151.357656 280.683 151.357656 
z
" clip-path="url(#p1df5b363de)" style="fill: #ffffff; stroke: #000000; stroke-width: 2; stroke-linejoin: miter"/>
   </g>
   <g id="text_6">
    <!-- $v_{out}$ -->
    <g transform="translate(269.6205 139.758047) scale(0.125 -0.125)">
     <use xlink:href="#DejaVuSans-Oblique-76" transform="translate(0 0.3125)"/>
     <use xlink:href="#DejaVuSans-Oblique-6f" transform="translate(59.179688 -16.09375) scale(0.7)"/>
     <use xlink:href="#DejaVuSans-Oblique-75" transform="translate(102.006836 -16.09375) scale(0.7)"/>
     <use xlink:href="#DejaVuSans-Oblique-74" transform="translate(146.37207 -16.09375) scale(0.7)"/>
    </g>
   </g>
  </g>
 </g>
 <defs>
  <clipPath id="p1df5b363de">
   <rect x="3.6" y="6.097656" width="293.106" height="290.4"/>
  </clipPath>
 </defs>
</svg>