<?xml version="1.0" encoding="utf-8" standalone="no"?>
<!DOCTYPE svg PUBLIC "-//W3C//DTD SVG 1.1//EN"
  "http://www.w3.org/Graphics/SVG/1.1/DTD/svg11.dtd">
<svg xmlns:xlink="http://www.w3.org/1999/xlink" width="465.636pt" height="228.277656pt" viewBox="0 0 465.636 228.277656" xmlns="http://www.w3.org/2000/svg" version="1.1">
 <metadata>
  <rdf:RDF xmlns:dc="http://purl.org/dc/elements/1.1/" xmlns:cc="http://creativecommons.org/ns#" xmlns:rdf="http://www.w3.org/1999/02/22-rdf-syntax-ns#">
   <cc:Work>
    <dc:type rdf:resource="http://purl.org/dc/dcmitype/StillImage"/>
    <dc:date>2024-02-10T16:50:44.908389</dc:date>
    <dc:format>image/svg+xml</dc:format>
    <dc:creator>
     <cc:Agent>
      <dc:title>Matplotlib v3.8.2, https://matplotlib.org/</dc:title>
     </cc:Agent>
    </dc:creator>
   </cc:Work>
  </rdf:RDF>
 </metadata>
 <defs>
  <style type="text/css">*{stroke-linejoin: round; stroke-linecap: butt}</style>
 </defs>
 <g id="figure_1">
  <g id="patch_1">
   <path d="M 0 228.277656 
L 465.636 228.277656 
L 465.636 0 
L 0 0 
z
" style="fill: #ffffff"/>
  </g>
  <g id="axes_1">
   <g id="patch_2">
    <path d="M 81.138 202.777656 
C 81.138 199.856183 80.071124 196.978161 78.029828 194.393 
C 75.988532 191.807839 73.033537 189.592438 69.420923 187.938784 
C 65.808309 186.285131 61.645537 185.242414 57.293355 184.900996 
C 52.941172 184.559578 48.52904 184.929615 44.439314 185.979039 
" clip-path="url(#pa7220f3216)" style="fill: none; stroke: #ff0000; stroke-width: 2; stroke-linejoin: miter"/>
   </g>
   <g id="patch_3">
    <path d="M 81.138 212.137656 
L 78.438 203.137656 
L 81.12 203.137656 
L 81.12 202.777656 
L 81.156 202.777656 
L 81.156 203.137656 
L 83.838 203.137656 
z
" clip-path="url(#pa7220f3216)" style="fill: #ff0000; stroke: #ff0000; stroke-linejoin: miter"/>
   </g>
   <g id="patch_4">
    <path d="M 225.198 69.697656 
L 225.198 33.697656 
L 441.198 33.697656 
L 441.198 105.697656 
L 225.198 105.697656 
z
" clip-path="url(#pa7220f3216)" style="fill: #add8e6; stroke: #add8e6; stroke-linejoin: miter"/>
   </g>
   <g id="line2d_1">
    <path d="M 90.138 166.777656 
L 103.338 166.777656 
" clip-path="url(#pa7220f3216)" style="fill: none; stroke: #000000; stroke-width: 2; stroke-linecap: round"/>
   </g>
   <g id="line2d_2">
    <path d="M 103.338 153.577656 
L 103.338 179.977656 
" clip-path="url(#pa7220f3216)" style="fill: none; stroke: #000000; stroke-width: 2; stroke-linecap: round"/>
   </g>
   <g id="line2d_3">
    <path d="M 103.338 160.177656 
L 117.198 148.297656 
L 117.198 141.697656 
" clip-path="url(#pa7220f3216)" style="fill: none; stroke: #000000; stroke-width: 2; stroke-linecap: round"/>
   </g>
   <g id="line2d_4">
    <path d="M 103.338 173.377656 
L 117.198 185.257656 
L 117.198 191.857656 
" clip-path="url(#pa7220f3216)" style="fill: none; stroke: #000000; stroke-width: 2; stroke-linecap: round"/>
   </g>
   <g id="line2d_5">
    <path d="M 103.338 173.377656 
L 110.364691 179.400534 
" clip-path="url(#pa7220f3216)" style="fill: none; stroke: #000000; stroke-width: 2; stroke-linecap: round"/>
   </g>
   <g id="patch_5">
    <path d="M 112.70754 176.66721 
L 117.198 185.257656 
L 108.021842 182.133858 
z
" clip-path="url(#pa7220f3216)"/>
   </g>
   <g id="line2d_6">
    <path d="M 117.198 191.857656 
L 117.198 206.257656 
L 108.198 206.257656 
L 126.198 206.257656 
M 110.898 210.577656 
L 123.498 210.577656 
M 115.398 214.897656 
L 118.998 214.897656 
" clip-path="url(#pa7220f3216)" style="fill: none; stroke: #000000; stroke-width: 2; stroke-linecap: round"/>
   </g>
   <g id="line2d_7">
    <path d="M 90.138 166.777656 
L 87.138 175.777656 
L 81.138 157.777656 
L 75.138 175.777656 
L 69.138 157.777656 
L 63.138 175.777656 
L 57.138 157.777656 
L 54.138 166.777656 
" clip-path="url(#pa7220f3216)" style="fill: none; stroke: #000000; stroke-width: 2; stroke-linecap: round"/>
   </g>
   <g id="line2d_8">
    <path d="M 54.138 166.777656 
L 40.638 166.777656 
L 27.138 166.777656 
" clip-path="url(#pa7220f3216)" style="fill: none; stroke: #000000; stroke-width: 2; stroke-linecap: round"/>
   </g>
   <g id="line2d_9">
    <path d="M 117.198 141.697656 
L 130.698 141.697656 
L 144.198 141.697656 
" clip-path="url(#pa7220f3216)" style="fill: none; stroke: #000000; stroke-width: 2; stroke-linecap: round"/>
   </g>
   <g id="line2d_10">
    <path d="M 117.198 141.697656 
L 117.198 105.697656 
L 108.198 102.697656 
L 126.198 96.697656 
L 108.198 90.697656 
L 126.198 84.697656 
L 108.198 78.697656 
L 126.198 72.697656 
L 117.198 69.697656 
L 117.198 33.697656 
" clip-path="url(#pa7220f3216)" style="fill: none; stroke: #000000; stroke-width: 2; stroke-linecap: round"/>
   </g>
   <g id="line2d_11">
    <path d="M 117.198 33.697656 
L 117.198 19.297656 
" clip-path="url(#pa7220f3216)" style="fill: none; stroke: #000000; stroke-width: 2; stroke-linecap: round"/>
   </g>
   <g id="line2d_12">
    <path d="M 117.198 19.297656 
L 110.448 19.297656 
" clip-path="url(#pa7220f3216)" style="fill: none; stroke: #000000; stroke-width: 2; stroke-linecap: round"/>
   </g>
   <g id="line2d_13">
    <path d="M 117.198 19.297656 
L 123.948 19.297656 
" clip-path="url(#pa7220f3216)" style="fill: none; stroke: #000000; stroke-width: 2; stroke-linecap: round"/>
   </g>
   <g id="line2d_14">
    <path d="M 147.798 112.897656 
L 147.798 51.697656 
" clip-path="url(#pa7220f3216)" style="fill: none; stroke: #008000; stroke-width: 2; stroke-linecap: round"/>
   </g>
   <g id="patch_6">
    <path d="M 151.398 112.897656 
L 147.798 123.697656 
L 144.198 112.897656 
z
" clip-path="url(#pa7220f3216)" style="fill: #008000"/>
   </g>
   <g id="line2d_15">
    <path d="M 225.198 69.697656 
L 225.198 33.697656 
L 441.198 33.697656 
L 441.198 105.697656 
L 225.198 105.697656 
L 225.198 69.697656 
" clip-path="url(#pa7220f3216)" style="fill: none; stroke: #0000ff; stroke-width: 2; stroke-linecap: round"/>
   </g>
   <g id="text_1">
    <!-- $R_{in}$ -->
    <g transform="translate(63.5755 151.578047) scale(0.125 -0.125)">
     <defs>
      <path id="DejaVuSans-Oblique-52" d="M 1613 4147 
L 1294 2491 
L 2106 2491 
Q 2584 2491 2879 2755 
Q 3175 3019 3175 3444 
Q 3175 3784 2976 3965 
Q 2778 4147 2406 4147 
L 1613 4147 
z
M 2772 2241 
Q 2972 2194 3105 2009 
Q 3238 1825 3413 1275 
L 3809 0 
L 3144 0 
L 2778 1197 
Q 2638 1659 2453 1815 
Q 2269 1972 1888 1972 
L 1191 1972 
L 806 0 
L 172 0 
L 1081 4666 
L 2503 4666 
Q 3150 4666 3495 4373 
Q 3841 4081 3841 3531 
Q 3841 3044 3547 2687 
Q 3253 2331 2772 2241 
z
" transform="scale(0.015625)"/>
      <path id="DejaVuSans-Oblique-69" d="M 1172 4863 
L 1747 4863 
L 1606 4134 
L 1031 4134 
L 1172 4863 
z
M 909 3500 
L 1484 3500 
L 800 0 
L 225 0 
L 909 3500 
z
" transform="scale(0.015625)"/>
      <path id="DejaVuSans-Oblique-6e" d="M 3566 2113 
L 3156 0 
L 2578 0 
L 2988 2091 
Q 3016 2238 3031 2350 
Q 3047 2463 3047 2528 
Q 3047 2791 2881 2937 
Q 2716 3084 2419 3084 
Q 1956 3084 1622 2776 
Q 1288 2469 1184 1941 
L 800 0 
L 225 0 
L 903 3500 
L 1478 3500 
L 1363 2950 
Q 1603 3253 1940 3418 
Q 2278 3584 2650 3584 
Q 3113 3584 3367 3334 
Q 3622 3084 3622 2631 
Q 3622 2519 3608 2391 
Q 3594 2263 3566 2113 
z
" transform="scale(0.015625)"/>
     </defs>
     <use xlink:href="#DejaVuSans-Oblique-52" transform="translate(0 0.09375)"/>
     <use xlink:href="#DejaVuSans-Oblique-69" transform="translate(69.482422 -16.3125) scale(0.7)"/>
     <use xlink:href="#DejaVuSans-Oblique-6e" transform="translate(88.930664 -16.3125) scale(0.7)"/>
    </g>
   </g>
   <g id="text_2">
    <!-- $R_L$ -->
    <g transform="translate(90.598 91.146875) scale(0.125 -0.125)">
     <defs>
      <path id="DejaVuSans-Oblique-4c" d="M 1075 4666 
L 1709 4666 
L 909 525 
L 3181 525 
L 3078 0 
L 172 0 
L 1075 4666 
z
" transform="scale(0.015625)"/>
     </defs>
     <use xlink:href="#DejaVuSans-Oblique-52" transform="translate(0 0.09375)"/>
     <use xlink:href="#DejaVuSans-Oblique-4c" transform="translate(69.482422 -16.3125) scale(0.7)"/>
    </g>
   </g>
   <g id="text_3">
    <!-- $V_{dd}$ -->
    <g transform="translate(107.1355 13.098047) scale(0.125 -0.125)">
     <defs>
      <path id="DejaVuSans-Oblique-56" d="M 1319 0 
L 500 4666 
L 1119 4666 
L 1797 653 
L 4063 4666 
L 4750 4666 
L 2053 0 
L 1319 0 
z
" transform="scale(0.015625)"/>
      <path id="DejaVuSans-Oblique-64" d="M 2675 525 
Q 2444 222 2128 65 
Q 1813 -91 1428 -91 
Q 903 -91 598 267 
Q 294 625 294 1247 
Q 294 1766 478 2236 
Q 663 2706 1013 3078 
Q 1244 3325 1534 3454 
Q 1825 3584 2144 3584 
Q 2481 3584 2739 3421 
Q 2997 3259 3138 2956 
L 3513 4863 
L 4091 4863 
L 3144 0 
L 2566 0 
L 2675 525 
z
M 891 1350 
Q 891 897 1095 644 
Q 1300 391 1663 391 
Q 1931 391 2161 520 
Q 2391 650 2566 903 
Q 2750 1166 2856 1509 
Q 2963 1853 2963 2188 
Q 2963 2622 2758 2865 
Q 2553 3109 2194 3109 
Q 1922 3109 1687 2981 
Q 1453 2853 1288 2613 
Q 1106 2353 998 2009 
Q 891 1666 891 1350 
z
" transform="scale(0.015625)"/>
     </defs>
     <use xlink:href="#DejaVuSans-Oblique-56" transform="translate(0 0.09375)"/>
     <use xlink:href="#DejaVuSans-Oblique-64" transform="translate(68.408203 -16.3125) scale(0.7)"/>
     <use xlink:href="#DejaVuSans-Oblique-64" transform="translate(112.841797 -16.3125) scale(0.7)"/>
    </g>
   </g>
   <g id="text_4">
    <!-- $I_{in}$ -->
    <g style="fill: #ff0000" transform="translate(48.0755 206.226875) scale(0.125 -0.125)">
     <defs>
      <path id="DejaVuSans-Oblique-49" d="M 1081 4666 
L 1716 4666 
L 806 0 
L 172 0 
L 1081 4666 
z
" transform="scale(0.015625)"/>
     </defs>
     <use xlink:href="#DejaVuSans-Oblique-49" transform="translate(0 0.09375)"/>
     <use xlink:href="#DejaVuSans-Oblique-69" transform="translate(29.492188 -16.3125) scale(0.7)"/>
     <use xlink:href="#DejaVuSans-Oblique-6e" transform="translate(48.94043 -16.3125) scale(0.7)"/>
    </g>
   </g>
   <g id="text_5">
    <!-- $I_{uit}=\beta_{F} I_{in}$ -->
    <g style="fill: #008000" transform="translate(156.348 91.197656) scale(0.125 -0.125)">
     <defs>
      <path id="DejaVuSans-Oblique-75" d="M 428 1388 
L 838 3500 
L 1416 3500 
L 1006 1409 
Q 975 1256 961 1147 
Q 947 1038 947 966 
Q 947 700 1109 554 
Q 1272 409 1569 409 
Q 2031 409 2368 721 
Q 2706 1034 2809 1563 
L 3194 3500 
L 3769 3500 
L 3091 0 
L 2516 0 
L 2631 550 
Q 2388 244 2052 76 
Q 1716 -91 1338 -91 
Q 878 -91 622 161 
Q 366 413 366 863 
Q 366 956 381 1097 
Q 397 1238 428 1388 
z
" transform="scale(0.015625)"/>
      <path id="DejaVuSans-Oblique-74" d="M 2706 3500 
L 2619 3053 
L 1472 3053 
L 1100 1153 
Q 1081 1047 1072 975 
Q 1063 903 1063 863 
Q 1063 663 1183 572 
Q 1303 481 1569 481 
L 2150 481 
L 2053 0 
L 1503 0 
Q 991 0 739 200 
Q 488 400 488 806 
Q 488 878 497 964 
Q 506 1050 525 1153 
L 897 3053 
L 409 3053 
L 500 3500 
L 978 3500 
L 1172 4494 
L 1747 4494 
L 1556 3500 
L 2706 3500 
z
" transform="scale(0.015625)"/>
      <path id="DejaVuSans-3d" d="M 678 2906 
L 4684 2906 
L 4684 2381 
L 678 2381 
L 678 2906 
z
M 678 1631 
L 4684 1631 
L 4684 1100 
L 678 1100 
L 678 1631 
z
" transform="scale(0.015625)"/>
      <path id="DejaVuSans-Oblique-3b2" d="M 872 216 
L 572 -1331 
L -6 -1331 
L 928 3478 
Q 1206 4903 2538 4903 
Q 3888 4903 3659 3700 
Q 3503 2844 2894 2531 
Q 3713 2250 3553 1416 
Q 3272 -69 1759 -66 
Q 1097 -63 872 216 
z
M 1019 966 
Q 1259 422 1875 425 
Q 2775 425 2966 1406 
Q 3138 2288 1675 2219 
L 1778 2750 
Q 2909 2731 3106 3750 
Q 3241 4438 2509 4434 
Q 1691 4434 1503 3459 
L 1019 966 
z
" transform="scale(0.015625)"/>
      <path id="DejaVuSans-Oblique-46" d="M 1081 4666 
L 3756 4666 
L 3653 4134 
L 1606 4134 
L 1338 2759 
L 3188 2759 
L 3084 2228 
L 1234 2228 
L 800 0 
L 172 0 
L 1081 4666 
z
" transform="scale(0.015625)"/>
     </defs>
     <use xlink:href="#DejaVuSans-Oblique-49" transform="translate(0 0.390625)"/>
     <use xlink:href="#DejaVuSans-Oblique-75" transform="translate(29.492188 -16.015625) scale(0.7)"/>
     <use xlink:href="#DejaVuSans-Oblique-69" transform="translate(73.857422 -16.015625) scale(0.7)"/>
     <use xlink:href="#DejaVuSans-Oblique-74" transform="translate(93.305664 -16.015625) scale(0.7)"/>
     <use xlink:href="#DejaVuSans-3d" transform="translate(142.96875 0.390625)"/>
     <use xlink:href="#DejaVuSans-Oblique-3b2" transform="translate(246.240234 0.390625)"/>
     <use xlink:href="#DejaVuSans-Oblique-46" transform="translate(310.058594 -16.015625) scale(0.7)"/>
     <use xlink:href="#DejaVuSans-Oblique-49" transform="translate(353.056641 0.390625)"/>
     <use xlink:href="#DejaVuSans-Oblique-69" transform="translate(382.548828 -16.015625) scale(0.7)"/>
     <use xlink:href="#DejaVuSans-Oblique-6e" transform="translate(401.99707 -16.015625) scale(0.7)"/>
    </g>
   </g>
   <g id="text_6">
    <!-- $A=\frac{\partial v_{uit}}{\partial v_{in}}=- \frac{R_L \beta_{F}}{R_{in}} $ -->
    <g style="fill: #0000ff" transform="translate(270.663 74.812656) scale(0.165 -0.165)">
     <defs>
      <path id="DejaVuSans-Oblique-41" d="M 2356 4666 
L 3072 4666 
L 3938 0 
L 3278 0 
L 3084 1197 
L 984 1197 
L 325 0 
L -341 0 
L 2356 4666 
z
M 2584 4044 
L 1275 1722 
L 2988 1722 
L 2584 4044 
z
" transform="scale(0.015625)"/>
      <path id="DejaVuSans-2202" d="M 1366 -91 
Q 925 -91 638 175 
Q 297 491 297 1063 
Q 297 1656 597 2119 
Q 906 2594 1463 2594 
Q 1828 2594 2116 2366 
Q 2284 2231 2400 2006 
Q 2441 2259 2441 2547 
Q 2441 2969 2341 3213 
Q 2119 3753 1531 3753 
Q 1309 3753 966 3616 
L 966 4141 
Q 1328 4238 1653 4238 
Q 2491 4238 2847 3469 
Q 3013 3106 3013 2566 
Q 3013 2213 2934 1803 
Q 2738 778 2228 291 
Q 1828 -91 1366 -91 
z
M 831 969 
Q 831 656 969 488 
Q 1116 309 1341 309 
Q 1541 309 1700 450 
Q 1925 644 2091 959 
Q 2228 1219 2297 1497 
Q 2019 2169 1538 2169 
Q 1125 2169 944 1625 
Q 831 1288 831 969 
z
" transform="scale(0.015625)"/>
      <path id="DejaVuSans-Oblique-76" d="M 459 3500 
L 1069 3500 
L 1581 525 
L 3256 3500 
L 3866 3500 
L 1875 0 
L 1100 0 
L 459 3500 
z
" transform="scale(0.015625)"/>
      <path id="DejaVuSans-2212" d="M 678 2272 
L 4684 2272 
L 4684 1741 
L 678 1741 
L 678 2272 
z
" transform="scale(0.015625)"/>
     </defs>
     <use xlink:href="#DejaVuSans-Oblique-41" transform="translate(0 0.01875)"/>
     <use xlink:href="#DejaVuSans-3d" transform="translate(87.890625 0.01875)"/>
     <use xlink:href="#DejaVuSans-2202" transform="translate(191.162109 55.996719) scale(0.7)"/>
     <use xlink:href="#DejaVuSans-Oblique-76" transform="translate(227.358398 55.996719) scale(0.7)"/>
     <use xlink:href="#DejaVuSans-Oblique-75" transform="translate(268.78418 44.512344) scale(0.49)"/>
     <use xlink:href="#DejaVuSans-Oblique-69" transform="translate(299.839844 44.512344) scale(0.49)"/>
     <use xlink:href="#DejaVuSans-Oblique-74" transform="translate(313.453613 44.512344) scale(0.49)"/>
     <use xlink:href="#DejaVuSans-2202" transform="translate(201.162109 -33.7875) scale(0.7)"/>
     <use xlink:href="#DejaVuSans-Oblique-76" transform="translate(237.358398 -33.7875) scale(0.7)"/>
     <use xlink:href="#DejaVuSans-Oblique-69" transform="translate(278.78418 -45.271875) scale(0.49)"/>
     <use xlink:href="#DejaVuSans-Oblique-6e" transform="translate(292.397949 -45.271875) scale(0.49)"/>
     <use xlink:href="#DejaVuSans-3d" transform="translate(366.5625 0.01875)"/>
     <use xlink:href="#DejaVuSans-2212" transform="translate(489.316406 0.01875)"/>
     <use xlink:href="#DejaVuSans-Oblique-52" transform="translate(592.587891 58.373438) scale(0.7)"/>
     <use xlink:href="#DejaVuSans-Oblique-4c" transform="translate(641.225586 46.889062) scale(0.49)"/>
     <use xlink:href="#DejaVuSans-Oblique-3b2" transform="translate(670.438965 58.373438) scale(0.7)"/>
     <use xlink:href="#DejaVuSans-Oblique-46" transform="translate(715.111816 46.889062) scale(0.49)"/>
     <use xlink:href="#DejaVuSans-Oblique-52" transform="translate(621.587891 -38.46875) scale(0.7)"/>
     <use xlink:href="#DejaVuSans-Oblique-69" transform="translate(670.225586 -49.953125) scale(0.49)"/>
     <use xlink:href="#DejaVuSans-Oblique-6e" transform="translate(683.839355 -49.953125) scale(0.49)"/>
     <path d="M 191.162109 18.815625 
L 191.162109 25.065625 
L 334.580078 25.065625 
L 334.580078 18.815625 
L 191.162109 18.815625 
z
"/>
     <path d="M 592.587891 18.815625 
L 592.587891 25.065625 
L 745.210449 25.065625 
L 745.210449 18.815625 
L 592.587891 18.815625 
z
"/>
    </g>
   </g>
   <g id="patch_7">
    <path d="M 27.138 169.477656 
C 27.854048 169.477656 28.540866 169.193167 29.047188 168.686845 
C 29.553511 168.180522 29.838 167.493705 29.838 166.777656 
C 29.838 166.061608 29.553511 165.374791 29.047188 164.868468 
C 28.540866 164.362145 27.854048 164.077656 27.138 164.077656 
C 26.421952 164.077656 25.735134 164.362145 25.228812 164.868468 
C 24.722489 165.374791 24.438 166.061608 24.438 166.777656 
C 24.438 167.493705 24.722489 168.180522 25.228812 168.686845 
C 25.735134 169.193167 26.421952 169.477656 27.138 169.477656 
z
" clip-path="url(#pa7220f3216)" style="fill: #ffffff; stroke: #000000; stroke-width: 2; stroke-linejoin: miter"/>
   </g>
   <g id="text_7">
    <!-- $V_{in}$ -->
    <g transform="translate(18.7005 157.878047) scale(0.125 -0.125)">
     <use xlink:href="#DejaVuSans-Oblique-56" transform="translate(0 0.09375)"/>
     <use xlink:href="#DejaVuSans-Oblique-69" transform="translate(68.408203 -16.3125) scale(0.7)"/>
     <use xlink:href="#DejaVuSans-Oblique-6e" transform="translate(87.856445 -16.3125) scale(0.7)"/>
    </g>
   </g>
   <g id="patch_8">
    <path d="M 117.198 144.397656 
C 117.914048 144.397656 118.600866 144.113167 119.107188 143.606845 
C 119.613511 143.100522 119.898 142.413705 119.898 141.697656 
C 119.898 140.981608 119.613511 140.294791 119.107188 139.788468 
C 118.600866 139.282145 117.914048 138.997656 117.198 138.997656 
C 116.481952 138.997656 115.795134 139.282145 115.288812 139.788468 
C 114.782489 140.294791 114.498 140.981608 114.498 141.697656 
C 114.498 142.413705 114.782489 143.100522 115.288812 143.606845 
C 115.795134 144.113167 116.481952 144.397656 117.198 144.397656 
z
" clip-path="url(#pa7220f3216)" style="stroke: #000000; stroke-width: 2; stroke-linejoin: miter"/>
   </g>
   <g id="patch_9">
    <path d="M 144.198 144.397656 
C 144.914048 144.397656 145.600866 144.113167 146.107188 143.606845 
C 146.613511 143.100522 146.898 142.413705 146.898 141.697656 
C 146.898 140.981608 146.613511 140.294791 146.107188 139.788468 
C 145.600866 139.282145 144.914048 138.997656 144.198 138.997656 
C 143.481952 138.997656 142.795134 139.282145 142.288812 139.788468 
C 141.782489 140.294791 141.498 140.981608 141.498 141.697656 
C 141.498 142.413705 141.782489 143.100522 142.288812 143.606845 
C 142.795134 144.113167 143.481952 144.397656 144.198 144.397656 
z
" clip-path="url(#pa7220f3216)" style="fill: #ffffff; stroke: #000000; stroke-width: 2; stroke-linejoin: miter"/>
   </g>
   <g id="text_8">
    <!-- $V_{uit}$ -->
    <g transform="translate(134.0105 132.798047) scale(0.125 -0.125)">
     <use xlink:href="#DejaVuSans-Oblique-56" transform="translate(0 0.09375)"/>
     <use xlink:href="#DejaVuSans-Oblique-75" transform="translate(68.408203 -16.3125) scale(0.7)"/>
     <use xlink:href="#DejaVuSans-Oblique-69" transform="translate(112.773438 -16.3125) scale(0.7)"/>
     <use xlink:href="#DejaVuSans-Oblique-74" transform="translate(132.22168 -16.3125) scale(0.7)"/>
    </g>
   </g>
  </g>
 </g>
 <defs>
  <clipPath id="pa7220f3216">
   <rect x="3.6" y="9.517656" width="458.436" height="215.16"/>
  </clipPath>
 </defs>
</svg>