<?xml version="1.0" encoding="utf-8" standalone="no"?>
<!DOCTYPE svg PUBLIC "-//W3C//DTD SVG 1.1//EN"
  "http://www.w3.org/Graphics/SVG/1.1/DTD/svg11.dtd">
<svg xmlns:xlink="http://www.w3.org/1999/xlink" width="350.166331pt" height="232.183656pt" viewBox="0 0 350.166331 232.183656" xmlns="http://www.w3.org/2000/svg" version="1.1">
 <metadata>
  <rdf:RDF xmlns:dc="http://purl.org/dc/elements/1.1/" xmlns:cc="http://creativecommons.org/ns#" xmlns:rdf="http://www.w3.org/1999/02/22-rdf-syntax-ns#">
   <cc:Work>
    <dc:type rdf:resource="http://purl.org/dc/dcmitype/StillImage"/>
    <dc:date>2024-01-02T17:57:34.140169</dc:date>
    <dc:format>image/svg+xml</dc:format>
    <dc:creator>
     <cc:Agent>
      <dc:title>Matplotlib v3.8.2, https://matplotlib.org/</dc:title>
     </cc:Agent>
    </dc:creator>
   </cc:Work>
  </rdf:RDF>
 </metadata>
 <defs>
  <style type="text/css">*{stroke-linejoin: round; stroke-linecap: butt}</style>
 </defs>
 <g id="figure_1">
  <g id="patch_1">
   <path d="M 0 232.183656 
L 350.166331 232.183656 
L 350.166331 0 
L 0 0 
z
" style="fill: #ffffff"/>
  </g>
  <g id="axes_1">
   <g id="patch_2">
    <path d="M 250.585531 113.377656 
L 250.756884 113.376297 
L 250.928193 113.372219 
L 251.099416 113.365424 
L 251.27051 113.355912 
L 251.441431 113.343688 
L 251.612137 113.328753 
L 251.782584 113.311112 
L 251.95273 113.290768 
L 252.122532 113.267728 
L 252.291946 113.241996 
L 252.460932 113.21358 
L 252.629445 113.182486 
L 252.797443 113.148723 
L 252.964885 113.112298 
L 253.131728 113.073221 
L 253.29793 113.031502 
L 253.463448 112.987152 
L 253.628243 112.94018 
L 253.792271 112.8906 
L 253.955492 112.838424 
L 254.117865 112.783665 
L 254.279349 112.726337 
L 254.439902 112.666453 
L 254.599486 112.60403 
L 254.758059 112.539083 
L 254.915581 112.471628 
L 255.072013 112.401682 
L 255.227316 112.329263 
L 255.381451 112.254389 
L 255.534378 112.177079 
L 255.686059 112.097353 
L 255.836456 112.01523 
L 255.985531 111.930731 
L 256.133247 111.843877 
L 256.279566 111.754691 
L 256.424452 111.663194 
L 256.567868 111.569411 
L 256.709778 111.473363 
L 256.850146 111.375077 
L 256.988937 111.274575 
L 257.126116 111.171884 
L 257.261648 111.06703 
L 257.3955 110.960038 
L 257.527637 110.850936 
L 257.658027 110.739752 
L 257.786636 110.626512 
L 257.913433 110.511247 
L 258.038385 110.393984 
L 258.16146 110.274753 
L 258.282628 110.153585 
L 258.401859 110.03051 
L 258.519122 109.905558 
L 258.634387 109.778761 
L 258.747627 109.650152 
L 258.858811 109.519762 
L 258.967913 109.387625 
L 259.074905 109.253773 
L 259.179759 109.118241 
L 259.28245 108.981062 
L 259.382952 108.842271 
L 259.481238 108.701903 
L 259.577286 108.559993 
L 259.671069 108.416577 
L 259.762566 108.271691 
L 259.851752 108.125372 
L 259.938606 107.977656 
L 260.023105 107.828581 
L 260.105228 107.678184 
L 260.184954 107.526503 
L 260.262264 107.373576 
L 260.337138 107.219441 
L 260.409557 107.064138 
L 260.479503 106.907706 
L 260.546958 106.750184 
L 260.611905 106.591611 
L 260.674328 106.432027 
L 260.734212 106.271474 
L 260.79154 106.10999 
L 260.846299 105.947617 
L 260.898475 105.784396 
L 260.948055 105.620368 
L 260.995027 105.455573 
L 261.039377 105.290055 
L 261.081096 105.123853 
L 261.120173 104.95701 
L 261.156598 104.789568 
L 261.190361 104.62157 
L 261.221455 104.453057 
L 261.249871 104.284071 
L 261.275603 104.114657 
L 261.298643 103.944855 
L 261.318987 103.774709 
L 261.336628 103.604262 
L 261.351563 103.433556 
L 261.363787 103.262635 
L 261.373299 103.091541 
L 261.380094 102.920318 
L 261.384172 102.749009 
L 261.385531 102.577656 
L 261.385531 73.417656 
L 261.384172 73.246304 
L 261.380094 73.074995 
L 261.373299 72.903772 
L 261.363787 72.732678 
L 261.351563 72.561757 
L 261.336628 72.391051 
L 261.318987 72.220604 
L 261.298643 72.050458 
L 261.275603 71.880656 
L 261.249871 71.711241 
L 261.221455 71.542256 
L 261.190361 71.373743 
L 261.156598 71.205744 
L 261.120173 71.038302 
L 261.081096 70.87146 
L 261.039377 70.705258 
L 260.995027 70.539739 
L 260.948055 70.374945 
L 260.898475 70.210916 
L 260.846299 70.047695 
L 260.79154 69.885322 
L 260.734212 69.723839 
L 260.674328 69.563285 
L 260.611905 69.403702 
L 260.546958 69.245129 
L 260.479503 69.087606 
L 260.409557 68.931174 
L 260.337138 68.775871 
L 260.262264 68.621737 
L 260.184954 68.46881 
L 260.105228 68.317129 
L 260.023105 68.166732 
L 259.938606 68.017656 
L 259.851752 67.86994 
L 259.762566 67.723621 
L 259.671069 67.578735 
L 259.577286 67.43532 
L 259.481238 67.29341 
L 259.382952 67.153042 
L 259.28245 67.014251 
L 259.179759 66.877072 
L 259.074905 66.741539 
L 258.967913 66.607687 
L 258.858811 66.47555 
L 258.747627 66.34516 
L 258.634387 66.216551 
L 258.519122 66.089755 
L 258.401859 65.964803 
L 258.282628 65.841727 
L 258.16146 65.720559 
L 258.038385 65.601329 
L 257.913433 65.484066 
L 257.786636 65.3688 
L 257.658027 65.255561 
L 257.527637 65.144376 
L 257.3955 65.035274 
L 257.261648 64.928283 
L 257.126116 64.823428 
L 256.988937 64.720737 
L 256.850146 64.620236 
L 256.709778 64.521949 
L 256.567868 64.425902 
L 256.424452 64.332118 
L 256.279566 64.240622 
L 256.133247 64.151435 
L 255.985531 64.064582 
L 255.836456 63.980083 
L 255.686059 63.89796 
L 255.534378 63.818233 
L 255.381451 63.740923 
L 255.227316 63.66605 
L 255.072013 63.593631 
L 254.915581 63.523685 
L 254.758059 63.45623 
L 254.599486 63.391283 
L 254.439902 63.328859 
L 254.279349 63.268976 
L 254.117865 63.211647 
L 253.955492 63.156888 
L 253.792271 63.104712 
L 253.628243 63.055132 
L 253.463448 63.008161 
L 253.29793 62.96381 
L 253.131728 62.922091 
L 252.964885 62.883015 
L 252.797443 62.84659 
L 252.629445 62.812826 
L 252.460932 62.781733 
L 252.291946 62.753316 
L 252.122532 62.727585 
L 251.95273 62.704544 
L 251.782584 62.684201 
L 251.612137 62.666559 
L 251.441431 62.651625 
L 251.27051 62.6394 
L 251.099416 62.629889 
L 250.928193 62.623094 
L 250.756884 62.619016 
L 250.585531 62.617656 
L 245.125531 62.617656 
L 244.954179 62.619016 
L 244.78287 62.623094 
L 244.611647 62.629889 
L 244.440553 62.6394 
L 244.269632 62.651625 
L 244.098926 62.666559 
L 243.928479 62.684201 
L 243.758333 62.704544 
L 243.588531 62.727585 
L 243.419116 62.753316 
L 243.250131 62.781733 
L 243.081618 62.812826 
L 242.913619 62.84659 
L 242.746177 62.883015 
L 242.579335 62.922091 
L 242.413133 62.96381 
L 242.247614 63.008161 
L 242.08282 63.055132 
L 241.918791 63.104712 
L 241.75557 63.156888 
L 241.593197 63.211647 
L 241.431714 63.268976 
L 241.27116 63.328859 
L 241.111577 63.391283 
L 240.953004 63.45623 
L 240.795481 63.523685 
L 240.639049 63.593631 
L 240.483746 63.66605 
L 240.329612 63.740923 
L 240.176685 63.818233 
L 240.025004 63.89796 
L 239.874607 63.980083 
L 239.725531 64.064582 
L 239.577815 64.151435 
L 239.431496 64.240622 
L 239.28661 64.332118 
L 239.143195 64.425902 
L 239.001285 64.521949 
L 238.860917 64.620236 
L 238.722126 64.720737 
L 238.584947 64.823428 
L 238.449414 64.928283 
L 238.315562 65.035274 
L 238.183425 65.144376 
L 238.053035 65.255561 
L 237.924426 65.3688 
L 237.79763 65.484066 
L 237.672678 65.601329 
L 237.549602 65.720559 
L 237.428434 65.841727 
L 237.309204 65.964803 
L 237.191941 66.089755 
L 237.076675 66.216551 
L 236.963436 66.34516 
L 236.852251 66.47555 
L 236.743149 66.607687 
L 236.636158 66.741539 
L 236.531303 66.877072 
L 236.428612 67.014251 
L 236.328111 67.153042 
L 236.229824 67.29341 
L 236.133777 67.43532 
L 236.039993 67.578735 
L 235.948497 67.723621 
L 235.85931 67.86994 
L 235.772457 68.017656 
L 235.687958 68.166732 
L 235.605835 68.317129 
L 235.526108 68.46881 
L 235.448798 68.621737 
L 235.373925 68.775871 
L 235.301506 68.931174 
L 235.23156 69.087606 
L 235.164105 69.245129 
L 235.099158 69.403702 
L 235.036734 69.563285 
L 234.976851 69.723839 
L 234.919522 69.885322 
L 234.864763 70.047695 
L 234.812587 70.210916 
L 234.763007 70.374945 
L 234.716036 70.539739 
L 234.671685 70.705258 
L 234.629966 70.87146 
L 234.59089 71.038302 
L 234.554465 71.205744 
L 234.520701 71.373743 
L 234.489608 71.542256 
L 234.461191 71.711241 
L 234.43546 71.880656 
L 234.412419 72.050458 
L 234.392076 72.220604 
L 234.374434 72.391051 
L 234.3595 72.561757 
L 234.347275 72.732678 
L 234.337764 72.903772 
L 234.330969 73.074995 
L 234.326891 73.246304 
L 234.325531 73.417656 
L 234.325531 102.577656 
L 234.326891 102.749009 
L 234.330969 102.920318 
L 234.337764 103.091541 
L 234.347275 103.262635 
L 234.3595 103.433556 
L 234.374434 103.604262 
L 234.392076 103.774709 
L 234.412419 103.944855 
L 234.43546 104.114657 
L 234.461191 104.284071 
L 234.489608 104.453057 
L 234.520701 104.62157 
L 234.554465 104.789568 
L 234.59089 104.95701 
L 234.629966 105.123853 
L 234.671685 105.290055 
L 234.716036 105.455573 
L 234.763007 105.620368 
L 234.812587 105.784396 
L 234.864763 105.947617 
L 234.919522 106.10999 
L 234.976851 106.271474 
L 235.036734 106.432027 
L 235.099158 106.591611 
L 235.164105 106.750184 
L 235.23156 106.907706 
L 235.301506 107.064138 
L 235.373925 107.219441 
L 235.448798 107.373576 
L 235.526108 107.526503 
L 235.605835 107.678184 
L 235.687958 107.828581 
L 235.772457 107.977656 
L 235.85931 108.125372 
L 235.948497 108.271691 
L 236.039993 108.416577 
L 236.133777 108.559993 
L 236.229824 108.701903 
L 236.328111 108.842271 
L 236.428612 108.981062 
L 236.531303 109.118241 
L 236.636158 109.253773 
L 236.743149 109.387625 
L 236.852251 109.519762 
L 236.963436 109.650152 
L 237.076675 109.778761 
L 237.191941 109.905558 
L 237.309204 110.03051 
L 237.428434 110.153585 
L 237.549602 110.274753 
L 237.672678 110.393984 
L 237.79763 110.511247 
L 237.924426 110.626512 
L 238.053035 110.739752 
L 238.183425 110.850936 
L 238.315562 110.960038 
L 238.449414 111.06703 
L 238.584947 111.171884 
L 238.722126 111.274575 
L 238.860917 111.375077 
L 239.001285 111.473363 
L 239.143195 111.569411 
L 239.28661 111.663194 
L 239.431496 111.754691 
L 239.577815 111.843877 
L 239.725531 111.930731 
L 239.874607 112.01523 
L 240.025004 112.097353 
L 240.176685 112.177079 
L 240.329612 112.254389 
L 240.483746 112.329263 
L 240.639049 112.401682 
L 240.795481 112.471628 
L 240.953004 112.539083 
L 241.111577 112.60403 
L 241.27116 112.666453 
L 241.431714 112.726337 
L 241.593197 112.783665 
L 241.75557 112.838424 
L 241.918791 112.8906 
L 242.08282 112.94018 
L 242.247614 112.987152 
L 242.413133 113.031502 
L 242.579335 113.073221 
L 242.746177 113.112298 
L 242.913619 113.148723 
L 243.081618 113.182486 
L 243.250131 113.21358 
L 243.419116 113.241996 
L 243.588531 113.267728 
L 243.758333 113.290768 
L 243.928479 113.311112 
L 244.098926 113.328753 
L 244.269632 113.343688 
L 244.440553 113.355912 
L 244.611647 113.365424 
L 244.78287 113.372219 
L 244.954179 113.376297 
L 245.125531 113.377656 
L 250.585531 113.377656 
z
" clip-path="url(#pf3eb595b2c)" style="fill: none; stroke-dasharray: 1.85,0.8; stroke-dashoffset: 0; stroke: #008000; stroke-width: 0.5; stroke-linecap: round"/>
   </g>
   <g id="patch_3">
    <path d="M 250.585531 166.777656 
L 250.756884 166.776297 
L 250.928193 166.772219 
L 251.099416 166.765424 
L 251.27051 166.755912 
L 251.441431 166.743688 
L 251.612137 166.728753 
L 251.782584 166.711112 
L 251.95273 166.690768 
L 252.122532 166.667728 
L 252.291946 166.641996 
L 252.460932 166.61358 
L 252.629445 166.582486 
L 252.797443 166.548723 
L 252.964885 166.512298 
L 253.131728 166.473221 
L 253.29793 166.431502 
L 253.463448 166.387152 
L 253.628243 166.34018 
L 253.792271 166.2906 
L 253.955492 166.238424 
L 254.117865 166.183665 
L 254.279349 166.126337 
L 254.439902 166.066453 
L 254.599486 166.00403 
L 254.758059 165.939083 
L 254.915581 165.871628 
L 255.072013 165.801682 
L 255.227316 165.729263 
L 255.381451 165.654389 
L 255.534378 165.577079 
L 255.686059 165.497353 
L 255.836456 165.41523 
L 255.985531 165.330731 
L 256.133247 165.243877 
L 256.279566 165.154691 
L 256.424452 165.063194 
L 256.567868 164.969411 
L 256.709778 164.873363 
L 256.850146 164.775077 
L 256.988937 164.674575 
L 257.126116 164.571884 
L 257.261648 164.46703 
L 257.3955 164.360038 
L 257.527637 164.250936 
L 257.658027 164.139752 
L 257.786636 164.026512 
L 257.913433 163.911247 
L 258.038385 163.793984 
L 258.16146 163.674753 
L 258.282628 163.553585 
L 258.401859 163.43051 
L 258.519122 163.305558 
L 258.634387 163.178761 
L 258.747627 163.050152 
L 258.858811 162.919762 
L 258.967913 162.787625 
L 259.074905 162.653773 
L 259.179759 162.518241 
L 259.28245 162.381062 
L 259.382952 162.242271 
L 259.481238 162.101903 
L 259.577286 161.959993 
L 259.671069 161.816577 
L 259.762566 161.671691 
L 259.851752 161.525372 
L 259.938606 161.377656 
L 260.023105 161.228581 
L 260.105228 161.078184 
L 260.184954 160.926503 
L 260.262264 160.773576 
L 260.337138 160.619441 
L 260.409557 160.464138 
L 260.479503 160.307706 
L 260.546958 160.150184 
L 260.611905 159.991611 
L 260.674328 159.832027 
L 260.734212 159.671474 
L 260.79154 159.50999 
L 260.846299 159.347617 
L 260.898475 159.184396 
L 260.948055 159.020368 
L 260.995027 158.855573 
L 261.039377 158.690055 
L 261.081096 158.523853 
L 261.120173 158.35701 
L 261.156598 158.189568 
L 261.190361 158.02157 
L 261.221455 157.853057 
L 261.249871 157.684071 
L 261.275603 157.514657 
L 261.298643 157.344855 
L 261.318987 157.174709 
L 261.336628 157.004262 
L 261.351563 156.833556 
L 261.363787 156.662635 
L 261.373299 156.491541 
L 261.380094 156.320318 
L 261.384172 156.149009 
L 261.385531 155.977656 
L 261.385531 126.817656 
L 261.384172 126.646304 
L 261.380094 126.474995 
L 261.373299 126.303772 
L 261.363787 126.132678 
L 261.351563 125.961757 
L 261.336628 125.791051 
L 261.318987 125.620604 
L 261.298643 125.450458 
L 261.275603 125.280656 
L 261.249871 125.111241 
L 261.221455 124.942256 
L 261.190361 124.773743 
L 261.156598 124.605744 
L 261.120173 124.438302 
L 261.081096 124.27146 
L 261.039377 124.105258 
L 260.995027 123.939739 
L 260.948055 123.774945 
L 260.898475 123.610916 
L 260.846299 123.447695 
L 260.79154 123.285322 
L 260.734212 123.123839 
L 260.674328 122.963285 
L 260.611905 122.803702 
L 260.546958 122.645129 
L 260.479503 122.487606 
L 260.409557 122.331174 
L 260.337138 122.175871 
L 260.262264 122.021737 
L 260.184954 121.86881 
L 260.105228 121.717129 
L 260.023105 121.566732 
L 259.938606 121.417656 
L 259.851752 121.26994 
L 259.762566 121.123621 
L 259.671069 120.978735 
L 259.577286 120.83532 
L 259.481238 120.69341 
L 259.382952 120.553042 
L 259.28245 120.414251 
L 259.179759 120.277072 
L 259.074905 120.141539 
L 258.967913 120.007687 
L 258.858811 119.87555 
L 258.747627 119.74516 
L 258.634387 119.616551 
L 258.519122 119.489755 
L 258.401859 119.364803 
L 258.282628 119.241727 
L 258.16146 119.120559 
L 258.038385 119.001329 
L 257.913433 118.884066 
L 257.786636 118.7688 
L 257.658027 118.655561 
L 257.527637 118.544376 
L 257.3955 118.435274 
L 257.261648 118.328283 
L 257.126116 118.223428 
L 256.988937 118.120737 
L 256.850146 118.020236 
L 256.709778 117.921949 
L 256.567868 117.825902 
L 256.424452 117.732118 
L 256.279566 117.640622 
L 256.133247 117.551435 
L 255.985531 117.464582 
L 255.836456 117.380083 
L 255.686059 117.29796 
L 255.534378 117.218233 
L 255.381451 117.140923 
L 255.227316 117.06605 
L 255.072013 116.993631 
L 254.915581 116.923685 
L 254.758059 116.85623 
L 254.599486 116.791283 
L 254.439902 116.728859 
L 254.279349 116.668976 
L 254.117865 116.611647 
L 253.955492 116.556888 
L 253.792271 116.504712 
L 253.628243 116.455132 
L 253.463448 116.408161 
L 253.29793 116.36381 
L 253.131728 116.322091 
L 252.964885 116.283015 
L 252.797443 116.24659 
L 252.629445 116.212826 
L 252.460932 116.181733 
L 252.291946 116.153316 
L 252.122532 116.127585 
L 251.95273 116.104544 
L 251.782584 116.084201 
L 251.612137 116.066559 
L 251.441431 116.051625 
L 251.27051 116.0394 
L 251.099416 116.029889 
L 250.928193 116.023094 
L 250.756884 116.019016 
L 250.585531 116.017656 
L 245.125531 116.017656 
L 244.954179 116.019016 
L 244.78287 116.023094 
L 244.611647 116.029889 
L 244.440553 116.0394 
L 244.269632 116.051625 
L 244.098926 116.066559 
L 243.928479 116.084201 
L 243.758333 116.104544 
L 243.588531 116.127585 
L 243.419116 116.153316 
L 243.250131 116.181733 
L 243.081618 116.212826 
L 242.913619 116.24659 
L 242.746177 116.283015 
L 242.579335 116.322091 
L 242.413133 116.36381 
L 242.247614 116.408161 
L 242.08282 116.455132 
L 241.918791 116.504712 
L 241.75557 116.556888 
L 241.593197 116.611647 
L 241.431714 116.668976 
L 241.27116 116.728859 
L 241.111577 116.791283 
L 240.953004 116.85623 
L 240.795481 116.923685 
L 240.639049 116.993631 
L 240.483746 117.06605 
L 240.329612 117.140923 
L 240.176685 117.218233 
L 240.025004 117.29796 
L 239.874607 117.380083 
L 239.725531 117.464582 
L 239.577815 117.551435 
L 239.431496 117.640622 
L 239.28661 117.732118 
L 239.143195 117.825902 
L 239.001285 117.921949 
L 238.860917 118.020236 
L 238.722126 118.120737 
L 238.584947 118.223428 
L 238.449414 118.328283 
L 238.315562 118.435274 
L 238.183425 118.544376 
L 238.053035 118.655561 
L 237.924426 118.7688 
L 237.79763 118.884066 
L 237.672678 119.001329 
L 237.549602 119.120559 
L 237.428434 119.241727 
L 237.309204 119.364803 
L 237.191941 119.489755 
L 237.076675 119.616551 
L 236.963436 119.74516 
L 236.852251 119.87555 
L 236.743149 120.007687 
L 236.636158 120.141539 
L 236.531303 120.277072 
L 236.428612 120.414251 
L 236.328111 120.553042 
L 236.229824 120.69341 
L 236.133777 120.83532 
L 236.039993 120.978735 
L 235.948497 121.123621 
L 235.85931 121.26994 
L 235.772457 121.417656 
L 235.687958 121.566732 
L 235.605835 121.717129 
L 235.526108 121.86881 
L 235.448798 122.021737 
L 235.373925 122.175871 
L 235.301506 122.331174 
L 235.23156 122.487606 
L 235.164105 122.645129 
L 235.099158 122.803702 
L 235.036734 122.963285 
L 234.976851 123.123839 
L 234.919522 123.285322 
L 234.864763 123.447695 
L 234.812587 123.610916 
L 234.763007 123.774945 
L 234.716036 123.939739 
L 234.671685 124.105258 
L 234.629966 124.27146 
L 234.59089 124.438302 
L 234.554465 124.605744 
L 234.520701 124.773743 
L 234.489608 124.942256 
L 234.461191 125.111241 
L 234.43546 125.280656 
L 234.412419 125.450458 
L 234.392076 125.620604 
L 234.374434 125.791051 
L 234.3595 125.961757 
L 234.347275 126.132678 
L 234.337764 126.303772 
L 234.330969 126.474995 
L 234.326891 126.646304 
L 234.325531 126.817656 
L 234.325531 155.977656 
L 234.326891 156.149009 
L 234.330969 156.320318 
L 234.337764 156.491541 
L 234.347275 156.662635 
L 234.3595 156.833556 
L 234.374434 157.004262 
L 234.392076 157.174709 
L 234.412419 157.344855 
L 234.43546 157.514657 
L 234.461191 157.684071 
L 234.489608 157.853057 
L 234.520701 158.02157 
L 234.554465 158.189568 
L 234.59089 158.35701 
L 234.629966 158.523853 
L 234.671685 158.690055 
L 234.716036 158.855573 
L 234.763007 159.020368 
L 234.812587 159.184396 
L 234.864763 159.347617 
L 234.919522 159.50999 
L 234.976851 159.671474 
L 235.036734 159.832027 
L 235.099158 159.991611 
L 235.164105 160.150184 
L 235.23156 160.307706 
L 235.301506 160.464138 
L 235.373925 160.619441 
L 235.448798 160.773576 
L 235.526108 160.926503 
L 235.605835 161.078184 
L 235.687958 161.228581 
L 235.772457 161.377656 
L 235.85931 161.525372 
L 235.948497 161.671691 
L 236.039993 161.816577 
L 236.133777 161.959993 
L 236.229824 162.101903 
L 236.328111 162.242271 
L 236.428612 162.381062 
L 236.531303 162.518241 
L 236.636158 162.653773 
L 236.743149 162.787625 
L 236.852251 162.919762 
L 236.963436 163.050152 
L 237.076675 163.178761 
L 237.191941 163.305558 
L 237.309204 163.43051 
L 237.428434 163.553585 
L 237.549602 163.674753 
L 237.672678 163.793984 
L 237.79763 163.911247 
L 237.924426 164.026512 
L 238.053035 164.139752 
L 238.183425 164.250936 
L 238.315562 164.360038 
L 238.449414 164.46703 
L 238.584947 164.571884 
L 238.722126 164.674575 
L 238.860917 164.775077 
L 239.001285 164.873363 
L 239.143195 164.969411 
L 239.28661 165.063194 
L 239.431496 165.154691 
L 239.577815 165.243877 
L 239.725531 165.330731 
L 239.874607 165.41523 
L 240.025004 165.497353 
L 240.176685 165.577079 
L 240.329612 165.654389 
L 240.483746 165.729263 
L 240.639049 165.801682 
L 240.795481 165.871628 
L 240.953004 165.939083 
L 241.111577 166.00403 
L 241.27116 166.066453 
L 241.431714 166.126337 
L 241.593197 166.183665 
L 241.75557 166.238424 
L 241.918791 166.2906 
L 242.08282 166.34018 
L 242.247614 166.387152 
L 242.413133 166.431502 
L 242.579335 166.473221 
L 242.746177 166.512298 
L 242.913619 166.548723 
L 243.081618 166.582486 
L 243.250131 166.61358 
L 243.419116 166.641996 
L 243.588531 166.667728 
L 243.758333 166.690768 
L 243.928479 166.711112 
L 244.098926 166.728753 
L 244.269632 166.743688 
L 244.440553 166.755912 
L 244.611647 166.765424 
L 244.78287 166.772219 
L 244.954179 166.776297 
L 245.125531 166.777656 
L 250.585531 166.777656 
z
" clip-path="url(#pf3eb595b2c)" style="fill: none; stroke-dasharray: 1.85,0.8; stroke-dashoffset: 0; stroke: #008000; stroke-width: 0.5; stroke-linecap: round"/>
   </g>
   <g id="patch_4">
    <path d="M 221.725531 141.697656 
L 221.896884 141.696297 
L 222.068193 141.692219 
L 222.239416 141.685424 
L 222.41051 141.675912 
L 222.581431 141.663688 
L 222.752137 141.648753 
L 222.922584 141.631112 
L 223.09273 141.610768 
L 223.262532 141.587728 
L 223.431946 141.561996 
L 223.600932 141.53358 
L 223.769445 141.502486 
L 223.937443 141.468723 
L 224.104885 141.432298 
L 224.271728 141.393221 
L 224.43793 141.351502 
L 224.603448 141.307152 
L 224.768243 141.26018 
L 224.932271 141.2106 
L 225.095492 141.158424 
L 225.257865 141.103665 
L 225.419349 141.046337 
L 225.579902 140.986453 
L 225.739486 140.92403 
L 225.898059 140.859083 
L 226.055581 140.791628 
L 226.212013 140.721682 
L 226.367316 140.649263 
L 226.521451 140.574389 
L 226.674378 140.497079 
L 226.826059 140.417353 
L 226.976456 140.33523 
L 227.125531 140.250731 
L 227.273247 140.163877 
L 227.419566 140.074691 
L 227.564452 139.983194 
L 227.707868 139.889411 
L 227.849778 139.793363 
L 227.990146 139.695077 
L 228.128937 139.594575 
L 228.266116 139.491884 
L 228.401648 139.38703 
L 228.5355 139.280038 
L 228.667637 139.170936 
L 228.798027 139.059752 
L 228.926636 138.946512 
L 229.053433 138.831247 
L 229.178385 138.713984 
L 229.30146 138.594753 
L 229.422628 138.473585 
L 229.541859 138.35051 
L 229.659122 138.225558 
L 229.774387 138.098761 
L 229.887627 137.970152 
L 229.998811 137.839762 
L 230.107913 137.707625 
L 230.214905 137.573773 
L 230.319759 137.438241 
L 230.42245 137.301062 
L 230.522952 137.162271 
L 230.621238 137.021903 
L 230.717286 136.879993 
L 230.811069 136.736577 
L 230.902566 136.591691 
L 230.991752 136.445372 
L 231.078606 136.297656 
L 231.163105 136.148581 
L 231.245228 135.998184 
L 231.324954 135.846503 
L 231.402264 135.693576 
L 231.477138 135.539441 
L 231.549557 135.384138 
L 231.619503 135.227706 
L 231.686958 135.070184 
L 231.751905 134.911611 
L 231.814328 134.752027 
L 231.874212 134.591474 
L 231.93154 134.42999 
L 231.986299 134.267617 
L 232.038475 134.104396 
L 232.088055 133.940368 
L 232.135027 133.775573 
L 232.179377 133.610055 
L 232.221096 133.443853 
L 232.260173 133.27701 
L 232.296598 133.109568 
L 232.330361 132.94157 
L 232.361455 132.773057 
L 232.389871 132.604071 
L 232.415603 132.434657 
L 232.438643 132.264855 
L 232.458987 132.094709 
L 232.476628 131.924262 
L 232.491563 131.753556 
L 232.503787 131.582635 
L 232.513299 131.411541 
L 232.520094 131.240318 
L 232.524172 131.069009 
L 232.525531 130.897656 
L 232.525531 98.497656 
L 232.524172 98.326304 
L 232.520094 98.154995 
L 232.513299 97.983772 
L 232.503787 97.812678 
L 232.491563 97.641757 
L 232.476628 97.471051 
L 232.458987 97.300604 
L 232.438643 97.130458 
L 232.415603 96.960656 
L 232.389871 96.791241 
L 232.361455 96.622256 
L 232.330361 96.453743 
L 232.296598 96.285744 
L 232.260173 96.118302 
L 232.221096 95.95146 
L 232.179377 95.785258 
L 232.135027 95.619739 
L 232.088055 95.454945 
L 232.038475 95.290916 
L 231.986299 95.127695 
L 231.93154 94.965322 
L 231.874212 94.803839 
L 231.814328 94.643285 
L 231.751905 94.483702 
L 231.686958 94.325129 
L 231.619503 94.167606 
L 231.549557 94.011174 
L 231.477138 93.855871 
L 231.402264 93.701737 
L 231.324954 93.54881 
L 231.245228 93.397129 
L 231.163105 93.246732 
L 231.078606 93.097656 
L 230.991752 92.94994 
L 230.902566 92.803621 
L 230.811069 92.658735 
L 230.717286 92.51532 
L 230.621238 92.37341 
L 230.522952 92.233042 
L 230.42245 92.094251 
L 230.319759 91.957072 
L 230.214905 91.821539 
L 230.107913 91.687687 
L 229.998811 91.55555 
L 229.887627 91.42516 
L 229.774387 91.296551 
L 229.659122 91.169755 
L 229.541859 91.044803 
L 229.422628 90.921727 
L 229.30146 90.800559 
L 229.178385 90.681329 
L 229.053433 90.564066 
L 228.926636 90.4488 
L 228.798027 90.335561 
L 228.667637 90.224376 
L 228.5355 90.115274 
L 228.401648 90.008283 
L 228.266116 89.903428 
L 228.128937 89.800737 
L 227.990146 89.700236 
L 227.849778 89.601949 
L 227.707868 89.505902 
L 227.564452 89.412118 
L 227.419566 89.320622 
L 227.273247 89.231435 
L 227.125531 89.144582 
L 226.976456 89.060083 
L 226.826059 88.97796 
L 226.674378 88.898233 
L 226.521451 88.820923 
L 226.367316 88.74605 
L 226.212013 88.673631 
L 226.055581 88.603685 
L 225.898059 88.53623 
L 225.739486 88.471283 
L 225.579902 88.408859 
L 225.419349 88.348976 
L 225.257865 88.291647 
L 225.095492 88.236888 
L 224.932271 88.184712 
L 224.768243 88.135132 
L 224.603448 88.088161 
L 224.43793 88.04381 
L 224.271728 88.002091 
L 224.104885 87.963015 
L 223.937443 87.92659 
L 223.769445 87.892826 
L 223.600932 87.861733 
L 223.431946 87.833316 
L 223.262532 87.807585 
L 223.09273 87.784544 
L 222.922584 87.764201 
L 222.752137 87.746559 
L 222.581431 87.731625 
L 222.41051 87.7194 
L 222.239416 87.709889 
L 222.068193 87.703094 
L 221.896884 87.699016 
L 221.725531 87.697656 
L 180.469531 87.697656 
L 180.298179 87.699016 
L 180.12687 87.703094 
L 179.955647 87.709889 
L 179.784553 87.7194 
L 179.613632 87.731625 
L 179.442926 87.746559 
L 179.272479 87.764201 
L 179.102333 87.784544 
L 178.932531 87.807585 
L 178.763116 87.833316 
L 178.594131 87.861733 
L 178.425618 87.892826 
L 178.257619 87.92659 
L 178.090177 87.963015 
L 177.923335 88.002091 
L 177.757133 88.04381 
L 177.591614 88.088161 
L 177.42682 88.135132 
L 177.262791 88.184712 
L 177.09957 88.236888 
L 176.937197 88.291647 
L 176.775714 88.348976 
L 176.61516 88.408859 
L 176.455577 88.471283 
L 176.297004 88.53623 
L 176.139481 88.603685 
L 175.983049 88.673631 
L 175.827746 88.74605 
L 175.673612 88.820923 
L 175.520685 88.898233 
L 175.369004 88.97796 
L 175.218607 89.060083 
L 175.069531 89.144582 
L 174.921815 89.231435 
L 174.775496 89.320622 
L 174.63061 89.412118 
L 174.487195 89.505902 
L 174.345285 89.601949 
L 174.204917 89.700236 
L 174.066126 89.800737 
L 173.928947 89.903428 
L 173.793414 90.008283 
L 173.659562 90.115274 
L 173.527425 90.224376 
L 173.397035 90.335561 
L 173.268426 90.4488 
L 173.14163 90.564066 
L 173.016678 90.681329 
L 172.893602 90.800559 
L 172.772434 90.921727 
L 172.653204 91.044803 
L 172.535941 91.169755 
L 172.420675 91.296551 
L 172.307436 91.42516 
L 172.196251 91.55555 
L 172.087149 91.687687 
L 171.980158 91.821539 
L 171.875303 91.957072 
L 171.772612 92.094251 
L 171.672111 92.233042 
L 171.573824 92.37341 
L 171.477777 92.51532 
L 171.383993 92.658735 
L 171.292497 92.803621 
L 171.20331 92.94994 
L 171.116457 93.097656 
L 171.031958 93.246732 
L 170.949835 93.397129 
L 170.870108 93.54881 
L 170.792798 93.701737 
L 170.717925 93.855871 
L 170.645506 94.011174 
L 170.57556 94.167606 
L 170.508105 94.325129 
L 170.443158 94.483702 
L 170.380734 94.643285 
L 170.320851 94.803839 
L 170.263522 94.965322 
L 170.208763 95.127695 
L 170.156587 95.290916 
L 170.107007 95.454945 
L 170.060036 95.619739 
L 170.015685 95.785258 
L 169.973966 95.95146 
L 169.93489 96.118302 
L 169.898465 96.285744 
L 169.864701 96.453743 
L 169.833608 96.622256 
L 169.805191 96.791241 
L 169.77946 96.960656 
L 169.756419 97.130458 
L 169.736076 97.300604 
L 169.718434 97.471051 
L 169.7035 97.641757 
L 169.691275 97.812678 
L 169.681764 97.983772 
L 169.674969 98.154995 
L 169.670891 98.326304 
L 169.669531 98.497656 
L 169.669531 130.897656 
L 169.670891 131.069009 
L 169.674969 131.240318 
L 169.681764 131.411541 
L 169.691275 131.582635 
L 169.7035 131.753556 
L 169.718434 131.924262 
L 169.736076 132.094709 
L 169.756419 132.264855 
L 169.77946 132.434657 
L 169.805191 132.604071 
L 169.833608 132.773057 
L 169.864701 132.94157 
L 169.898465 133.109568 
L 169.93489 133.27701 
L 169.973966 133.443853 
L 170.015685 133.610055 
L 170.060036 133.775573 
L 170.107007 133.940368 
L 170.156587 134.104396 
L 170.208763 134.267617 
L 170.263522 134.42999 
L 170.320851 134.591474 
L 170.380734 134.752027 
L 170.443158 134.911611 
L 170.508105 135.070184 
L 170.57556 135.227706 
L 170.645506 135.384138 
L 170.717925 135.539441 
L 170.792798 135.693576 
L 170.870108 135.846503 
L 170.949835 135.998184 
L 171.031958 136.148581 
L 171.116457 136.297656 
L 171.20331 136.445372 
L 171.292497 136.591691 
L 171.383993 136.736577 
L 171.477777 136.879993 
L 171.573824 137.021903 
L 171.672111 137.162271 
L 171.772612 137.301062 
L 171.875303 137.438241 
L 171.980158 137.573773 
L 172.087149 137.707625 
L 172.196251 137.839762 
L 172.307436 137.970152 
L 172.420675 138.098761 
L 172.535941 138.225558 
L 172.653204 138.35051 
L 172.772434 138.473585 
L 172.893602 138.594753 
L 173.016678 138.713984 
L 173.14163 138.831247 
L 173.268426 138.946512 
L 173.397035 139.059752 
L 173.527425 139.170936 
L 173.659562 139.280038 
L 173.793414 139.38703 
L 173.928947 139.491884 
L 174.066126 139.594575 
L 174.204917 139.695077 
L 174.345285 139.793363 
L 174.487195 139.889411 
L 174.63061 139.983194 
L 174.775496 140.074691 
L 174.921815 140.163877 
L 175.069531 140.250731 
L 175.218607 140.33523 
L 175.369004 140.417353 
L 175.520685 140.497079 
L 175.673612 140.574389 
L 175.827746 140.649263 
L 175.983049 140.721682 
L 176.139481 140.791628 
L 176.297004 140.859083 
L 176.455577 140.92403 
L 176.61516 140.986453 
L 176.775714 141.046337 
L 176.937197 141.103665 
L 177.09957 141.158424 
L 177.262791 141.2106 
L 177.42682 141.26018 
L 177.591614 141.307152 
L 177.757133 141.351502 
L 177.923335 141.393221 
L 178.090177 141.432298 
L 178.257619 141.468723 
L 178.425618 141.502486 
L 178.594131 141.53358 
L 178.763116 141.561996 
L 178.932531 141.587728 
L 179.102333 141.610768 
L 179.272479 141.631112 
L 179.442926 141.648753 
L 179.613632 141.663688 
L 179.784553 141.675912 
L 179.955647 141.685424 
L 180.12687 141.692219 
L 180.298179 141.696297 
L 180.469531 141.697656 
L 221.725531 141.697656 
z
" clip-path="url(#pf3eb595b2c)" style="fill: none; stroke-dasharray: 1.85,0.8; stroke-dashoffset: 0; stroke: #ff0000; stroke-width: 0.5; stroke-linecap: round"/>
   </g>
   <g id="patch_5">
    <path d="M 221.725531 87.697656 
L 221.896884 87.696297 
L 222.068193 87.692219 
L 222.239416 87.685424 
L 222.41051 87.675912 
L 222.581431 87.663688 
L 222.752137 87.648753 
L 222.922584 87.631112 
L 223.09273 87.610768 
L 223.262532 87.587728 
L 223.431946 87.561996 
L 223.600932 87.53358 
L 223.769445 87.502486 
L 223.937443 87.468723 
L 224.104885 87.432298 
L 224.271728 87.393221 
L 224.43793 87.351502 
L 224.603448 87.307152 
L 224.768243 87.26018 
L 224.932271 87.2106 
L 225.095492 87.158424 
L 225.257865 87.103665 
L 225.419349 87.046337 
L 225.579902 86.986453 
L 225.739486 86.92403 
L 225.898059 86.859083 
L 226.055581 86.791628 
L 226.212013 86.721682 
L 226.367316 86.649263 
L 226.521451 86.574389 
L 226.674378 86.497079 
L 226.826059 86.417353 
L 226.976456 86.33523 
L 227.125531 86.250731 
L 227.273247 86.163877 
L 227.419566 86.074691 
L 227.564452 85.983194 
L 227.707868 85.889411 
L 227.849778 85.793363 
L 227.990146 85.695077 
L 228.128937 85.594575 
L 228.266116 85.491884 
L 228.401648 85.38703 
L 228.5355 85.280038 
L 228.667637 85.170936 
L 228.798027 85.059752 
L 228.926636 84.946512 
L 229.053433 84.831247 
L 229.178385 84.713984 
L 229.30146 84.594753 
L 229.422628 84.473585 
L 229.541859 84.35051 
L 229.659122 84.225558 
L 229.774387 84.098761 
L 229.887627 83.970152 
L 229.998811 83.839762 
L 230.107913 83.707625 
L 230.214905 83.573773 
L 230.319759 83.438241 
L 230.42245 83.301062 
L 230.522952 83.162271 
L 230.621238 83.021903 
L 230.717286 82.879993 
L 230.811069 82.736577 
L 230.902566 82.591691 
L 230.991752 82.445372 
L 231.078606 82.297656 
L 231.163105 82.148581 
L 231.245228 81.998184 
L 231.324954 81.846503 
L 231.402264 81.693576 
L 231.477138 81.539441 
L 231.549557 81.384138 
L 231.619503 81.227706 
L 231.686958 81.070184 
L 231.751905 80.911611 
L 231.814328 80.752027 
L 231.874212 80.591474 
L 231.93154 80.42999 
L 231.986299 80.267617 
L 232.038475 80.104396 
L 232.088055 79.940368 
L 232.135027 79.775573 
L 232.179377 79.610055 
L 232.221096 79.443853 
L 232.260173 79.27701 
L 232.296598 79.109568 
L 232.330361 78.94157 
L 232.361455 78.773057 
L 232.389871 78.604071 
L 232.415603 78.434657 
L 232.438643 78.264855 
L 232.458987 78.094709 
L 232.476628 77.924262 
L 232.491563 77.753556 
L 232.503787 77.582635 
L 232.513299 77.411541 
L 232.520094 77.240318 
L 232.524172 77.069009 
L 232.525531 76.897656 
L 232.525531 44.497656 
L 232.524172 44.326304 
L 232.520094 44.154995 
L 232.513299 43.983772 
L 232.503787 43.812678 
L 232.491563 43.641757 
L 232.476628 43.471051 
L 232.458987 43.300604 
L 232.438643 43.130458 
L 232.415603 42.960656 
L 232.389871 42.791241 
L 232.361455 42.622256 
L 232.330361 42.453743 
L 232.296598 42.285744 
L 232.260173 42.118302 
L 232.221096 41.95146 
L 232.179377 41.785258 
L 232.135027 41.619739 
L 232.088055 41.454945 
L 232.038475 41.290916 
L 231.986299 41.127695 
L 231.93154 40.965322 
L 231.874212 40.803839 
L 231.814328 40.643285 
L 231.751905 40.483702 
L 231.686958 40.325129 
L 231.619503 40.167606 
L 231.549557 40.011174 
L 231.477138 39.855871 
L 231.402264 39.701737 
L 231.324954 39.54881 
L 231.245228 39.397129 
L 231.163105 39.246732 
L 231.078606 39.097656 
L 230.991752 38.94994 
L 230.902566 38.803621 
L 230.811069 38.658735 
L 230.717286 38.51532 
L 230.621238 38.37341 
L 230.522952 38.233042 
L 230.42245 38.094251 
L 230.319759 37.957072 
L 230.214905 37.821539 
L 230.107913 37.687687 
L 229.998811 37.55555 
L 229.887627 37.42516 
L 229.774387 37.296551 
L 229.659122 37.169755 
L 229.541859 37.044803 
L 229.422628 36.921727 
L 229.30146 36.800559 
L 229.178385 36.681329 
L 229.053433 36.564066 
L 228.926636 36.4488 
L 228.798027 36.335561 
L 228.667637 36.224376 
L 228.5355 36.115274 
L 228.401648 36.008283 
L 228.266116 35.903428 
L 228.128937 35.800737 
L 227.990146 35.700236 
L 227.849778 35.601949 
L 227.707868 35.505902 
L 227.564452 35.412118 
L 227.419566 35.320622 
L 227.273247 35.231435 
L 227.125531 35.144582 
L 226.976456 35.060083 
L 226.826059 34.97796 
L 226.674378 34.898233 
L 226.521451 34.820923 
L 226.367316 34.74605 
L 226.212013 34.673631 
L 226.055581 34.603685 
L 225.898059 34.53623 
L 225.739486 34.471283 
L 225.579902 34.408859 
L 225.419349 34.348976 
L 225.257865 34.291647 
L 225.095492 34.236888 
L 224.932271 34.184712 
L 224.768243 34.135132 
L 224.603448 34.088161 
L 224.43793 34.04381 
L 224.271728 34.002091 
L 224.104885 33.963015 
L 223.937443 33.92659 
L 223.769445 33.892826 
L 223.600932 33.861733 
L 223.431946 33.833316 
L 223.262532 33.807585 
L 223.09273 33.784544 
L 222.922584 33.764201 
L 222.752137 33.746559 
L 222.581431 33.731625 
L 222.41051 33.7194 
L 222.239416 33.709889 
L 222.068193 33.703094 
L 221.896884 33.699016 
L 221.725531 33.697656 
L 184.417531 33.697656 
L 184.246179 33.699016 
L 184.07487 33.703094 
L 183.903647 33.709889 
L 183.732553 33.7194 
L 183.561632 33.731625 
L 183.390926 33.746559 
L 183.220479 33.764201 
L 183.050333 33.784544 
L 182.880531 33.807585 
L 182.711116 33.833316 
L 182.542131 33.861733 
L 182.373618 33.892826 
L 182.205619 33.92659 
L 182.038177 33.963015 
L 181.871335 34.002091 
L 181.705133 34.04381 
L 181.539614 34.088161 
L 181.37482 34.135132 
L 181.210791 34.184712 
L 181.04757 34.236888 
L 180.885197 34.291647 
L 180.723714 34.348976 
L 180.56316 34.408859 
L 180.403577 34.471283 
L 180.245004 34.53623 
L 180.087481 34.603685 
L 179.931049 34.673631 
L 179.775746 34.74605 
L 179.621612 34.820923 
L 179.468685 34.898233 
L 179.317004 34.97796 
L 179.166607 35.060083 
L 179.017531 35.144582 
L 178.869815 35.231435 
L 178.723496 35.320622 
L 178.57861 35.412118 
L 178.435195 35.505902 
L 178.293285 35.601949 
L 178.152917 35.700236 
L 178.014126 35.800737 
L 177.876947 35.903428 
L 177.741414 36.008283 
L 177.607562 36.115274 
L 177.475425 36.224376 
L 177.345035 36.335561 
L 177.216426 36.4488 
L 177.08963 36.564066 
L 176.964678 36.681329 
L 176.841602 36.800559 
L 176.720434 36.921727 
L 176.601204 37.044803 
L 176.483941 37.169755 
L 176.368675 37.296551 
L 176.255436 37.42516 
L 176.144251 37.55555 
L 176.035149 37.687687 
L 175.928158 37.821539 
L 175.823303 37.957072 
L 175.720612 38.094251 
L 175.620111 38.233042 
L 175.521824 38.37341 
L 175.425777 38.51532 
L 175.331993 38.658735 
L 175.240497 38.803621 
L 175.15131 38.94994 
L 175.064457 39.097656 
L 174.979958 39.246732 
L 174.897835 39.397129 
L 174.818108 39.54881 
L 174.740798 39.701737 
L 174.665925 39.855871 
L 174.593506 40.011174 
L 174.52356 40.167606 
L 174.456105 40.325129 
L 174.391158 40.483702 
L 174.328734 40.643285 
L 174.268851 40.803839 
L 174.211522 40.965322 
L 174.156763 41.127695 
L 174.104587 41.290916 
L 174.055007 41.454945 
L 174.008036 41.619739 
L 173.963685 41.785258 
L 173.921966 41.95146 
L 173.88289 42.118302 
L 173.846465 42.285744 
L 173.812701 42.453743 
L 173.781608 42.622256 
L 173.753191 42.791241 
L 173.72746 42.960656 
L 173.704419 43.130458 
L 173.684076 43.300604 
L 173.666434 43.471051 
L 173.6515 43.641757 
L 173.639275 43.812678 
L 173.629764 43.983772 
L 173.622969 44.154995 
L 173.618891 44.326304 
L 173.617531 44.497656 
L 173.617531 76.897656 
L 173.618891 77.069009 
L 173.622969 77.240318 
L 173.629764 77.411541 
L 173.639275 77.582635 
L 173.6515 77.753556 
L 173.666434 77.924262 
L 173.684076 78.094709 
L 173.704419 78.264855 
L 173.72746 78.434657 
L 173.753191 78.604071 
L 173.781608 78.773057 
L 173.812701 78.94157 
L 173.846465 79.109568 
L 173.88289 79.27701 
L 173.921966 79.443853 
L 173.963685 79.610055 
L 174.008036 79.775573 
L 174.055007 79.940368 
L 174.104587 80.104396 
L 174.156763 80.267617 
L 174.211522 80.42999 
L 174.268851 80.591474 
L 174.328734 80.752027 
L 174.391158 80.911611 
L 174.456105 81.070184 
L 174.52356 81.227706 
L 174.593506 81.384138 
L 174.665925 81.539441 
L 174.740798 81.693576 
L 174.818108 81.846503 
L 174.897835 81.998184 
L 174.979958 82.148581 
L 175.064457 82.297656 
L 175.15131 82.445372 
L 175.240497 82.591691 
L 175.331993 82.736577 
L 175.425777 82.879993 
L 175.521824 83.021903 
L 175.620111 83.162271 
L 175.720612 83.301062 
L 175.823303 83.438241 
L 175.928158 83.573773 
L 176.035149 83.707625 
L 176.144251 83.839762 
L 176.255436 83.970152 
L 176.368675 84.098761 
L 176.483941 84.225558 
L 176.601204 84.35051 
L 176.720434 84.473585 
L 176.841602 84.594753 
L 176.964678 84.713984 
L 177.08963 84.831247 
L 177.216426 84.946512 
L 177.345035 85.059752 
L 177.475425 85.170936 
L 177.607562 85.280038 
L 177.741414 85.38703 
L 177.876947 85.491884 
L 178.014126 85.594575 
L 178.152917 85.695077 
L 178.293285 85.793363 
L 178.435195 85.889411 
L 178.57861 85.983194 
L 178.723496 86.074691 
L 178.869815 86.163877 
L 179.017531 86.250731 
L 179.166607 86.33523 
L 179.317004 86.417353 
L 179.468685 86.497079 
L 179.621612 86.574389 
L 179.775746 86.649263 
L 179.931049 86.721682 
L 180.087481 86.791628 
L 180.245004 86.859083 
L 180.403577 86.92403 
L 180.56316 86.986453 
L 180.723714 87.046337 
L 180.885197 87.103665 
L 181.04757 87.158424 
L 181.210791 87.2106 
L 181.37482 87.26018 
L 181.539614 87.307152 
L 181.705133 87.351502 
L 181.871335 87.393221 
L 182.038177 87.432298 
L 182.205619 87.468723 
L 182.373618 87.502486 
L 182.542131 87.53358 
L 182.711116 87.561996 
L 182.880531 87.587728 
L 183.050333 87.610768 
L 183.220479 87.631112 
L 183.390926 87.648753 
L 183.561632 87.663688 
L 183.732553 87.675912 
L 183.903647 87.685424 
L 184.07487 87.692219 
L 184.246179 87.696297 
L 184.417531 87.697656 
L 221.725531 87.697656 
z
" clip-path="url(#pf3eb595b2c)" style="fill: none; stroke-dasharray: 1.85,0.8; stroke-dashoffset: 0; stroke: #a52a2a; stroke-width: 0.5; stroke-linecap: round"/>
   </g>
   <g id="patch_6">
    <path d="M 221.725531 195.697656 
L 221.896884 195.696297 
L 222.068193 195.692219 
L 222.239416 195.685424 
L 222.41051 195.675912 
L 222.581431 195.663688 
L 222.752137 195.648753 
L 222.922584 195.631112 
L 223.09273 195.610768 
L 223.262532 195.587728 
L 223.431946 195.561996 
L 223.600932 195.53358 
L 223.769445 195.502486 
L 223.937443 195.468723 
L 224.104885 195.432298 
L 224.271728 195.393221 
L 224.43793 195.351502 
L 224.603448 195.307152 
L 224.768243 195.26018 
L 224.932271 195.2106 
L 225.095492 195.158424 
L 225.257865 195.103665 
L 225.419349 195.046337 
L 225.579902 194.986453 
L 225.739486 194.92403 
L 225.898059 194.859083 
L 226.055581 194.791628 
L 226.212013 194.721682 
L 226.367316 194.649263 
L 226.521451 194.574389 
L 226.674378 194.497079 
L 226.826059 194.417353 
L 226.976456 194.33523 
L 227.125531 194.250731 
L 227.273247 194.163877 
L 227.419566 194.074691 
L 227.564452 193.983194 
L 227.707868 193.889411 
L 227.849778 193.793363 
L 227.990146 193.695077 
L 228.128937 193.594575 
L 228.266116 193.491884 
L 228.401648 193.38703 
L 228.5355 193.280038 
L 228.667637 193.170936 
L 228.798027 193.059752 
L 228.926636 192.946512 
L 229.053433 192.831247 
L 229.178385 192.713984 
L 229.30146 192.594753 
L 229.422628 192.473585 
L 229.541859 192.35051 
L 229.659122 192.225558 
L 229.774387 192.098761 
L 229.887627 191.970152 
L 229.998811 191.839762 
L 230.107913 191.707625 
L 230.214905 191.573773 
L 230.319759 191.438241 
L 230.42245 191.301062 
L 230.522952 191.162271 
L 230.621238 191.021903 
L 230.717286 190.879993 
L 230.811069 190.736577 
L 230.902566 190.591691 
L 230.991752 190.445372 
L 231.078606 190.297656 
L 231.163105 190.148581 
L 231.245228 189.998184 
L 231.324954 189.846503 
L 231.402264 189.693576 
L 231.477138 189.539441 
L 231.549557 189.384138 
L 231.619503 189.227706 
L 231.686958 189.070184 
L 231.751905 188.911611 
L 231.814328 188.752027 
L 231.874212 188.591474 
L 231.93154 188.42999 
L 231.986299 188.267617 
L 232.038475 188.104396 
L 232.088055 187.940368 
L 232.135027 187.775573 
L 232.179377 187.610055 
L 232.221096 187.443853 
L 232.260173 187.27701 
L 232.296598 187.109568 
L 232.330361 186.94157 
L 232.361455 186.773057 
L 232.389871 186.604071 
L 232.415603 186.434657 
L 232.438643 186.264855 
L 232.458987 186.094709 
L 232.476628 185.924262 
L 232.491563 185.753556 
L 232.503787 185.582635 
L 232.513299 185.411541 
L 232.520094 185.240318 
L 232.524172 185.069009 
L 232.525531 184.897656 
L 232.525531 152.497656 
L 232.524172 152.326304 
L 232.520094 152.154995 
L 232.513299 151.983772 
L 232.503787 151.812678 
L 232.491563 151.641757 
L 232.476628 151.471051 
L 232.458987 151.300604 
L 232.438643 151.130458 
L 232.415603 150.960656 
L 232.389871 150.791241 
L 232.361455 150.622256 
L 232.330361 150.453743 
L 232.296598 150.285744 
L 232.260173 150.118302 
L 232.221096 149.95146 
L 232.179377 149.785258 
L 232.135027 149.619739 
L 232.088055 149.454945 
L 232.038475 149.290916 
L 231.986299 149.127695 
L 231.93154 148.965322 
L 231.874212 148.803839 
L 231.814328 148.643285 
L 231.751905 148.483702 
L 231.686958 148.325129 
L 231.619503 148.167606 
L 231.549557 148.011174 
L 231.477138 147.855871 
L 231.402264 147.701737 
L 231.324954 147.54881 
L 231.245228 147.397129 
L 231.163105 147.246732 
L 231.078606 147.097656 
L 230.991752 146.94994 
L 230.902566 146.803621 
L 230.811069 146.658735 
L 230.717286 146.51532 
L 230.621238 146.37341 
L 230.522952 146.233042 
L 230.42245 146.094251 
L 230.319759 145.957072 
L 230.214905 145.821539 
L 230.107913 145.687687 
L 229.998811 145.55555 
L 229.887627 145.42516 
L 229.774387 145.296551 
L 229.659122 145.169755 
L 229.541859 145.044803 
L 229.422628 144.921727 
L 229.30146 144.800559 
L 229.178385 144.681329 
L 229.053433 144.564066 
L 228.926636 144.4488 
L 228.798027 144.335561 
L 228.667637 144.224376 
L 228.5355 144.115274 
L 228.401648 144.008283 
L 228.266116 143.903428 
L 228.128937 143.800737 
L 227.990146 143.700236 
L 227.849778 143.601949 
L 227.707868 143.505902 
L 227.564452 143.412118 
L 227.419566 143.320622 
L 227.273247 143.231435 
L 227.125531 143.144582 
L 226.976456 143.060083 
L 226.826059 142.97796 
L 226.674378 142.898233 
L 226.521451 142.820923 
L 226.367316 142.74605 
L 226.212013 142.673631 
L 226.055581 142.603685 
L 225.898059 142.53623 
L 225.739486 142.471283 
L 225.579902 142.408859 
L 225.419349 142.348976 
L 225.257865 142.291647 
L 225.095492 142.236888 
L 224.932271 142.184712 
L 224.768243 142.135132 
L 224.603448 142.088161 
L 224.43793 142.04381 
L 224.271728 142.002091 
L 224.104885 141.963015 
L 223.937443 141.92659 
L 223.769445 141.892826 
L 223.600932 141.861733 
L 223.431946 141.833316 
L 223.262532 141.807585 
L 223.09273 141.784544 
L 222.922584 141.764201 
L 222.752137 141.746559 
L 222.581431 141.731625 
L 222.41051 141.7194 
L 222.239416 141.709889 
L 222.068193 141.703094 
L 221.896884 141.699016 
L 221.725531 141.697656 
L 184.417531 141.697656 
L 184.246179 141.699016 
L 184.07487 141.703094 
L 183.903647 141.709889 
L 183.732553 141.7194 
L 183.561632 141.731625 
L 183.390926 141.746559 
L 183.220479 141.764201 
L 183.050333 141.784544 
L 182.880531 141.807585 
L 182.711116 141.833316 
L 182.542131 141.861733 
L 182.373618 141.892826 
L 182.205619 141.92659 
L 182.038177 141.963015 
L 181.871335 142.002091 
L 181.705133 142.04381 
L 181.539614 142.088161 
L 181.37482 142.135132 
L 181.210791 142.184712 
L 181.04757 142.236888 
L 180.885197 142.291647 
L 180.723714 142.348976 
L 180.56316 142.408859 
L 180.403577 142.471283 
L 180.245004 142.53623 
L 180.087481 142.603685 
L 179.931049 142.673631 
L 179.775746 142.74605 
L 179.621612 142.820923 
L 179.468685 142.898233 
L 179.317004 142.97796 
L 179.166607 143.060083 
L 179.017531 143.144582 
L 178.869815 143.231435 
L 178.723496 143.320622 
L 178.57861 143.412118 
L 178.435195 143.505902 
L 178.293285 143.601949 
L 178.152917 143.700236 
L 178.014126 143.800737 
L 177.876947 143.903428 
L 177.741414 144.008283 
L 177.607562 144.115274 
L 177.475425 144.224376 
L 177.345035 144.335561 
L 177.216426 144.4488 
L 177.08963 144.564066 
L 176.964678 144.681329 
L 176.841602 144.800559 
L 176.720434 144.921727 
L 176.601204 145.044803 
L 176.483941 145.169755 
L 176.368675 145.296551 
L 176.255436 145.42516 
L 176.144251 145.55555 
L 176.035149 145.687687 
L 175.928158 145.821539 
L 175.823303 145.957072 
L 175.720612 146.094251 
L 175.620111 146.233042 
L 175.521824 146.37341 
L 175.425777 146.51532 
L 175.331993 146.658735 
L 175.240497 146.803621 
L 175.15131 146.94994 
L 175.064457 147.097656 
L 174.979958 147.246732 
L 174.897835 147.397129 
L 174.818108 147.54881 
L 174.740798 147.701737 
L 174.665925 147.855871 
L 174.593506 148.011174 
L 174.52356 148.167606 
L 174.456105 148.325129 
L 174.391158 148.483702 
L 174.328734 148.643285 
L 174.268851 148.803839 
L 174.211522 148.965322 
L 174.156763 149.127695 
L 174.104587 149.290916 
L 174.055007 149.454945 
L 174.008036 149.619739 
L 173.963685 149.785258 
L 173.921966 149.95146 
L 173.88289 150.118302 
L 173.846465 150.285744 
L 173.812701 150.453743 
L 173.781608 150.622256 
L 173.753191 150.791241 
L 173.72746 150.960656 
L 173.704419 151.130458 
L 173.684076 151.300604 
L 173.666434 151.471051 
L 173.6515 151.641757 
L 173.639275 151.812678 
L 173.629764 151.983772 
L 173.622969 152.154995 
L 173.618891 152.326304 
L 173.617531 152.497656 
L 173.617531 184.897656 
L 173.618891 185.069009 
L 173.622969 185.240318 
L 173.629764 185.411541 
L 173.639275 185.582635 
L 173.6515 185.753556 
L 173.666434 185.924262 
L 173.684076 186.094709 
L 173.704419 186.264855 
L 173.72746 186.434657 
L 173.753191 186.604071 
L 173.781608 186.773057 
L 173.812701 186.94157 
L 173.846465 187.109568 
L 173.88289 187.27701 
L 173.921966 187.443853 
L 173.963685 187.610055 
L 174.008036 187.775573 
L 174.055007 187.940368 
L 174.104587 188.104396 
L 174.156763 188.267617 
L 174.211522 188.42999 
L 174.268851 188.591474 
L 174.328734 188.752027 
L 174.391158 188.911611 
L 174.456105 189.070184 
L 174.52356 189.227706 
L 174.593506 189.384138 
L 174.665925 189.539441 
L 174.740798 189.693576 
L 174.818108 189.846503 
L 174.897835 189.998184 
L 174.979958 190.148581 
L 175.064457 190.297656 
L 175.15131 190.445372 
L 175.240497 190.591691 
L 175.331993 190.736577 
L 175.425777 190.879993 
L 175.521824 191.021903 
L 175.620111 191.162271 
L 175.720612 191.301062 
L 175.823303 191.438241 
L 175.928158 191.573773 
L 176.035149 191.707625 
L 176.144251 191.839762 
L 176.255436 191.970152 
L 176.368675 192.098761 
L 176.483941 192.225558 
L 176.601204 192.35051 
L 176.720434 192.473585 
L 176.841602 192.594753 
L 176.964678 192.713984 
L 177.08963 192.831247 
L 177.216426 192.946512 
L 177.345035 193.059752 
L 177.475425 193.170936 
L 177.607562 193.280038 
L 177.741414 193.38703 
L 177.876947 193.491884 
L 178.014126 193.594575 
L 178.152917 193.695077 
L 178.293285 193.793363 
L 178.435195 193.889411 
L 178.57861 193.983194 
L 178.723496 194.074691 
L 178.869815 194.163877 
L 179.017531 194.250731 
L 179.166607 194.33523 
L 179.317004 194.417353 
L 179.468685 194.497079 
L 179.621612 194.574389 
L 179.775746 194.649263 
L 179.931049 194.721682 
L 180.087481 194.791628 
L 180.245004 194.859083 
L 180.403577 194.92403 
L 180.56316 194.986453 
L 180.723714 195.046337 
L 180.885197 195.103665 
L 181.04757 195.158424 
L 181.210791 195.2106 
L 181.37482 195.26018 
L 181.539614 195.307152 
L 181.705133 195.351502 
L 181.871335 195.393221 
L 182.038177 195.432298 
L 182.205619 195.468723 
L 182.373618 195.502486 
L 182.542131 195.53358 
L 182.711116 195.561996 
L 182.880531 195.587728 
L 183.050333 195.610768 
L 183.220479 195.631112 
L 183.390926 195.648753 
L 183.561632 195.663688 
L 183.732553 195.675912 
L 183.903647 195.685424 
L 184.07487 195.692219 
L 184.246179 195.696297 
L 184.417531 195.697656 
L 221.725531 195.697656 
z
" clip-path="url(#pf3eb595b2c)" style="fill: none; stroke-dasharray: 1.85,0.8; stroke-dashoffset: 0; stroke: #0000ff; stroke-width: 0.5; stroke-linecap: round"/>
   </g>
   <g id="patch_7">
    <path d="M 165.169531 114.697656 
C 137.269531 114.697656 158.869531 103.897656 126.469531 103.897656 
" clip-path="url(#pf3eb595b2c)" style="fill: none; stroke: #ff0000; stroke-width: 2; stroke-linejoin: miter; stroke-linecap: round"/>
   </g>
   <g id="patch_8">
    <path d="M 160.669531 111.097656 
L 169.669531 114.697656 
L 160.669531 118.297656 
z
" clip-path="url(#pf3eb595b2c)" style="fill: #ff0000"/>
   </g>
   <g id="line2d_1">
    <path d="M 234.325531 87.697656 
L 247.525531 87.697656 
" clip-path="url(#pf3eb595b2c)" style="fill: none; stroke: #000000; stroke-width: 2; stroke-linecap: round"/>
   </g>
   <g id="line2d_2">
    <path d="M 247.525531 74.497656 
L 247.525531 100.897656 
" clip-path="url(#pf3eb595b2c)" style="fill: none; stroke: #000000; stroke-width: 2; stroke-linecap: round"/>
   </g>
   <g id="line2d_3">
    <path d="M 247.525531 81.097656 
L 261.385531 69.217656 
L 261.385531 62.617656 
" clip-path="url(#pf3eb595b2c)" style="fill: none; stroke: #000000; stroke-width: 2; stroke-linecap: round"/>
   </g>
   <g id="line2d_4">
    <path d="M 247.525531 94.297656 
L 261.385531 106.177656 
L 261.385531 112.777656 
" clip-path="url(#pf3eb595b2c)" style="fill: none; stroke: #000000; stroke-width: 2; stroke-linecap: round"/>
   </g>
   <g id="line2d_5">
    <path d="M 247.525531 94.297656 
L 254.552222 100.320534 
" clip-path="url(#pf3eb595b2c)" style="fill: none; stroke: #000000; stroke-width: 2; stroke-linecap: round"/>
   </g>
   <g id="patch_9">
    <path d="M 256.895071 97.58721 
L 261.385531 106.177656 
L 252.209373 103.053858 
z
" clip-path="url(#pf3eb595b2c)"/>
   </g>
   <g id="line2d_6">
    <path d="M 234.325531 87.697656 
L 225.325531 87.697656 
L 216.325531 87.697656 
" clip-path="url(#pf3eb595b2c)" style="fill: none; stroke: #000000; stroke-width: 2; stroke-linecap: round"/>
   </g>
   <g id="line2d_7">
    <path d="M 216.325531 87.697656 
L 216.325531 96.697656 
L 225.325531 99.697656 
L 207.325531 105.697656 
L 225.325531 111.697656 
L 207.325531 117.697656 
L 225.325531 123.697656 
L 207.325531 129.697656 
L 216.325531 132.697656 
L 216.325531 141.697656 
" clip-path="url(#pf3eb595b2c)" style="fill: none; stroke: #000000; stroke-width: 2; stroke-linecap: round"/>
   </g>
   <g id="line2d_8">
    <path d="M 216.325531 141.697656 
L 225.325531 141.697656 
L 234.325531 141.697656 
" clip-path="url(#pf3eb595b2c)" style="fill: none; stroke: #000000; stroke-width: 2; stroke-linecap: round"/>
   </g>
   <g id="line2d_9">
    <path d="M 234.325531 141.697656 
L 247.525531 141.697656 
" clip-path="url(#pf3eb595b2c)" style="fill: none; stroke: #000000; stroke-width: 2; stroke-linecap: round"/>
   </g>
   <g id="line2d_10">
    <path d="M 247.525531 128.497656 
L 247.525531 154.897656 
" clip-path="url(#pf3eb595b2c)" style="fill: none; stroke: #000000; stroke-width: 2; stroke-linecap: round"/>
   </g>
   <g id="line2d_11">
    <path d="M 247.525531 135.097656 
L 261.385531 123.217656 
L 261.385531 116.617656 
" clip-path="url(#pf3eb595b2c)" style="fill: none; stroke: #000000; stroke-width: 2; stroke-linecap: round"/>
   </g>
   <g id="line2d_12">
    <path d="M 247.525531 148.297656 
L 261.385531 160.177656 
L 261.385531 166.777656 
" clip-path="url(#pf3eb595b2c)" style="fill: none; stroke: #000000; stroke-width: 2; stroke-linecap: round"/>
   </g>
   <g id="line2d_13">
    <path d="M 261.385531 123.217656 
L 254.358841 129.240534 
" clip-path="url(#pf3eb595b2c)" style="fill: none; stroke: #000000; stroke-width: 2; stroke-linecap: round"/>
   </g>
   <g id="patch_10">
    <path d="M 256.70169 131.973858 
L 247.525531 135.097656 
L 252.015992 126.50721 
z
" clip-path="url(#pf3eb595b2c)"/>
   </g>
   <g id="line2d_14">
    <path d="M 216.325531 87.697656 
L 216.325531 78.697656 
L 207.325531 75.697656 
L 225.325531 69.697656 
L 207.325531 63.697656 
L 225.325531 57.697656 
L 207.325531 51.697656 
L 225.325531 45.697656 
L 216.325531 42.697656 
L 216.325531 33.697656 
" clip-path="url(#pf3eb595b2c)" style="fill: none; stroke: #000000; stroke-width: 2; stroke-linecap: round"/>
   </g>
   <g id="line2d_15">
    <path d="M 216.325531 33.697656 
L 223.525531 33.697656 
L 230.725531 33.697656 
" clip-path="url(#pf3eb595b2c)" style="fill: none; stroke: #000000; stroke-width: 2; stroke-linecap: round"/>
   </g>
   <g id="line2d_16">
    <path d="M 230.725531 33.697656 
L 230.725531 19.297656 
" clip-path="url(#pf3eb595b2c)" style="fill: none; stroke: #000000; stroke-width: 2; stroke-linecap: round"/>
   </g>
   <g id="line2d_17">
    <path d="M 230.725531 19.297656 
L 223.975531 19.297656 
" clip-path="url(#pf3eb595b2c)" style="fill: none; stroke: #000000; stroke-width: 2; stroke-linecap: round"/>
   </g>
   <g id="line2d_18">
    <path d="M 230.725531 19.297656 
L 237.475531 19.297656 
" clip-path="url(#pf3eb595b2c)" style="fill: none; stroke: #000000; stroke-width: 2; stroke-linecap: round"/>
   </g>
   <g id="line2d_19">
    <path d="M 230.725531 33.697656 
L 246.055531 33.697656 
L 261.385531 33.697656 
" clip-path="url(#pf3eb595b2c)" style="fill: none; stroke: #000000; stroke-width: 2; stroke-linecap: round"/>
   </g>
   <g id="line2d_20">
    <path d="M 261.385531 33.697656 
L 261.385531 48.157656 
L 261.385531 62.617656 
" clip-path="url(#pf3eb595b2c)" style="fill: none; stroke: #000000; stroke-width: 2; stroke-linecap: round"/>
   </g>
   <g id="line2d_21">
    <path d="M 216.325531 141.697656 
L 216.325531 150.697656 
L 225.325531 153.697656 
L 207.325531 159.697656 
L 225.325531 165.697656 
L 207.325531 171.697656 
L 225.325531 177.697656 
L 207.325531 183.697656 
L 216.325531 186.697656 
L 216.325531 195.697656 
" clip-path="url(#pf3eb595b2c)" style="fill: none; stroke: #000000; stroke-width: 2; stroke-linecap: round"/>
   </g>
   <g id="line2d_22">
    <path d="M 216.325531 195.697656 
L 223.525531 195.697656 
L 230.725531 195.697656 
" clip-path="url(#pf3eb595b2c)" style="fill: none; stroke: #000000; stroke-width: 2; stroke-linecap: round"/>
   </g>
   <g id="line2d_23">
    <path d="M 230.725531 195.697656 
L 230.725531 210.097656 
" clip-path="url(#pf3eb595b2c)" style="fill: none; stroke: #000000; stroke-width: 2; stroke-linecap: round"/>
   </g>
   <g id="line2d_24">
    <path d="M 230.725531 210.097656 
L 223.975531 210.097656 
" clip-path="url(#pf3eb595b2c)" style="fill: none; stroke: #000000; stroke-width: 2; stroke-linecap: round"/>
   </g>
   <g id="line2d_25">
    <path d="M 230.725531 210.097656 
L 237.475531 210.097656 
" clip-path="url(#pf3eb595b2c)" style="fill: none; stroke: #000000; stroke-width: 2; stroke-linecap: round"/>
   </g>
   <g id="line2d_26">
    <path d="M 230.725531 195.697656 
L 246.055531 195.697656 
L 261.385531 195.697656 
" clip-path="url(#pf3eb595b2c)" style="fill: none; stroke: #000000; stroke-width: 2; stroke-linecap: round"/>
   </g>
   <g id="line2d_27">
    <path d="M 261.385531 195.697656 
L 261.385531 181.237656 
L 261.385531 166.777656 
" clip-path="url(#pf3eb595b2c)" style="fill: none; stroke: #000000; stroke-width: 2; stroke-linecap: round"/>
   </g>
   <g id="line2d_28">
    <path d="M 216.325531 141.697656 
L 189.325531 141.697656 
L 162.325531 141.697656 
" clip-path="url(#pf3eb595b2c)" style="fill: none; stroke: #000000; stroke-width: 2; stroke-linecap: round"/>
   </g>
   <g id="line2d_29">
    <path d="M 261.385531 112.777656 
L 261.385531 127.177656 
L 261.385531 141.577656 
" clip-path="url(#pf3eb595b2c)" style="fill: none; stroke: #000000; stroke-width: 2; stroke-linecap: round"/>
   </g>
   <g id="line2d_30">
    <path d="M 261.385531 141.577656 
L 261.385531 154.057656 
L 261.385531 166.537656 
" clip-path="url(#pf3eb595b2c)" style="fill: none; stroke: #000000; stroke-width: 2; stroke-linecap: round"/>
   </g>
   <g id="line2d_31">
    <path d="M 261.385531 141.577656 
L 288.385531 141.577656 
L 315.385531 141.577656 
" clip-path="url(#pf3eb595b2c)" style="fill: none; stroke: #000000; stroke-width: 2; stroke-linecap: round"/>
   </g>
   <g id="line2d_32">
    <path d="M 315.385531 141.577656 
L 315.385531 150.577656 
L 324.385531 153.577656 
L 306.385531 159.577656 
L 324.385531 165.577656 
L 306.385531 171.577656 
L 324.385531 177.577656 
L 306.385531 183.577656 
L 315.385531 186.577656 
L 315.385531 195.577656 
" clip-path="url(#pf3eb595b2c)" style="fill: none; stroke: #000000; stroke-width: 2; stroke-linecap: round"/>
   </g>
   <g id="line2d_33">
    <path d="M 315.385531 195.577656 
L 315.385531 209.977656 
L 306.385531 209.977656 
L 324.385531 209.977656 
M 309.085531 214.297656 
L 321.685531 214.297656 
M 313.585531 218.617656 
L 317.185531 218.617656 
" clip-path="url(#pf3eb595b2c)" style="fill: none; stroke: #000000; stroke-width: 2; stroke-linecap: round"/>
   </g>
   <g id="line2d_34">
    <path d="M 315.385531 141.577656 
L 324.385531 141.577656 
L 333.385531 141.577656 
" clip-path="url(#pf3eb595b2c)" style="fill: none; stroke: #000000; stroke-width: 2; stroke-linecap: round"/>
   </g>
   <g id="text_1">
    <!-- $R_v$ -->
    <g transform="translate(189.475531 118.146875) scale(0.125 -0.125)">
     <defs>
      <path id="DejaVuSans-Oblique-52" d="M 1613 4147 
L 1294 2491 
L 2106 2491 
Q 2584 2491 2879 2755 
Q 3175 3019 3175 3444 
Q 3175 3784 2976 3965 
Q 2778 4147 2406 4147 
L 1613 4147 
z
M 2772 2241 
Q 2972 2194 3105 2009 
Q 3238 1825 3413 1275 
L 3809 0 
L 3144 0 
L 2778 1197 
Q 2638 1659 2453 1815 
Q 2269 1972 1888 1972 
L 1191 1972 
L 806 0 
L 172 0 
L 1081 4666 
L 2503 4666 
Q 3150 4666 3495 4373 
Q 3841 4081 3841 3531 
Q 3841 3044 3547 2687 
Q 3253 2331 2772 2241 
z
" transform="scale(0.015625)"/>
      <path id="DejaVuSans-Oblique-76" d="M 459 3500 
L 1069 3500 
L 1581 525 
L 3256 3500 
L 3866 3500 
L 1875 0 
L 1100 0 
L 459 3500 
z
" transform="scale(0.015625)"/>
     </defs>
     <use xlink:href="#DejaVuSans-Oblique-52" transform="translate(0 0.09375)"/>
     <use xlink:href="#DejaVuSans-Oblique-76" transform="translate(69.482422 -16.3125) scale(0.7)"/>
    </g>
   </g>
   <g id="text_2">
    <!-- $R_1$ -->
    <g transform="translate(189.100531 64.146875) scale(0.125 -0.125)">
     <defs>
      <path id="DejaVuSans-31" d="M 794 531 
L 1825 531 
L 1825 4091 
L 703 3866 
L 703 4441 
L 1819 4666 
L 2450 4666 
L 2450 531 
L 3481 531 
L 3481 0 
L 794 0 
L 794 531 
z
" transform="scale(0.015625)"/>
     </defs>
     <use xlink:href="#DejaVuSans-Oblique-52" transform="translate(0 0.09375)"/>
     <use xlink:href="#DejaVuSans-31" transform="translate(69.482422 -16.3125) scale(0.7)"/>
    </g>
   </g>
   <g id="text_3">
    <!-- $V_{DD}$ -->
    <g transform="translate(219.538031 13.098047) scale(0.125 -0.125)">
     <defs>
      <path id="DejaVuSans-Oblique-56" d="M 1319 0 
L 500 4666 
L 1119 4666 
L 1797 653 
L 4063 4666 
L 4750 4666 
L 2053 0 
L 1319 0 
z
" transform="scale(0.015625)"/>
      <path id="DejaVuSans-Oblique-44" d="M 1081 4666 
L 2438 4666 
Q 3519 4666 4070 4208 
Q 4622 3750 4622 2847 
Q 4622 2250 4412 1698 
Q 4203 1147 3834 769 
Q 3463 381 2891 190 
Q 2319 0 1538 0 
L 172 0 
L 1081 4666 
z
M 1613 4147 
L 909 519 
L 1734 519 
Q 2794 519 3375 1128 
Q 3956 1738 3956 2847 
Q 3956 3519 3581 3833 
Q 3206 4147 2406 4147 
L 1613 4147 
z
" transform="scale(0.015625)"/>
     </defs>
     <use xlink:href="#DejaVuSans-Oblique-56" transform="translate(0 0.09375)"/>
     <use xlink:href="#DejaVuSans-Oblique-44" transform="translate(68.408203 -16.3125) scale(0.7)"/>
     <use xlink:href="#DejaVuSans-Oblique-44" transform="translate(122.30957 -16.3125) scale(0.7)"/>
    </g>
   </g>
   <g id="text_4">
    <!-- $R_2$ -->
    <g transform="translate(189.100531 172.146875) scale(0.125 -0.125)">
     <defs>
      <path id="DejaVuSans-32" d="M 1228 531 
L 3431 531 
L 3431 0 
L 469 0 
L 469 531 
Q 828 903 1448 1529 
Q 2069 2156 2228 2338 
Q 2531 2678 2651 2914 
Q 2772 3150 2772 3378 
Q 2772 3750 2511 3984 
Q 2250 4219 1831 4219 
Q 1534 4219 1204 4116 
Q 875 4013 500 3803 
L 500 4441 
Q 881 4594 1212 4672 
Q 1544 4750 1819 4750 
Q 2544 4750 2975 4387 
Q 3406 4025 3406 3419 
Q 3406 3131 3298 2873 
Q 3191 2616 2906 2266 
Q 2828 2175 2409 1742 
Q 1991 1309 1228 531 
z
" transform="scale(0.015625)"/>
     </defs>
     <use xlink:href="#DejaVuSans-Oblique-52" transform="translate(0 0.09375)"/>
     <use xlink:href="#DejaVuSans-32" transform="translate(69.482422 -16.3125) scale(0.7)"/>
    </g>
   </g>
   <g id="text_5">
    <!-- -$V_{DD}$ -->
    <g transform="translate(217.225531 223.195703) scale(0.125 -0.125)">
     <defs>
      <path id="DejaVuSans-2d" d="M 313 2009 
L 1997 2009 
L 1997 1497 
L 313 1497 
L 313 2009 
z
" transform="scale(0.015625)"/>
     </defs>
     <use xlink:href="#DejaVuSans-2d" transform="translate(0 0.09375)"/>
     <use xlink:href="#DejaVuSans-Oblique-56" transform="translate(36.083984 0.09375)"/>
     <use xlink:href="#DejaVuSans-Oblique-44" transform="translate(104.492188 -16.3125) scale(0.7)"/>
     <use xlink:href="#DejaVuSans-Oblique-44" transform="translate(158.393555 -16.3125) scale(0.7)"/>
    </g>
   </g>
   <g id="text_6">
    <!-- $R_L$ -->
    <g transform="translate(288.785531 172.026875) scale(0.125 -0.125)">
     <defs>
      <path id="DejaVuSans-Oblique-4c" d="M 1075 4666 
L 1709 4666 
L 909 525 
L 3181 525 
L 3078 0 
L 172 0 
L 1075 4666 
z
" transform="scale(0.015625)"/>
     </defs>
     <use xlink:href="#DejaVuSans-Oblique-52" transform="translate(0 0.09375)"/>
     <use xlink:href="#DejaVuSans-Oblique-4c" transform="translate(69.482422 -16.3125) scale(0.7)"/>
    </g>
   </g>
   <g id="text_7">
    <!-- Voorinstelspanning -->
    <g style="fill: #ff0000" transform="translate(3.6 107.346875) scale(0.125 -0.125)">
     <defs>
      <path id="DejaVuSans-56" d="M 1831 0 
L 50 4666 
L 709 4666 
L 2188 738 
L 3669 4666 
L 4325 4666 
L 2547 0 
L 1831 0 
z
" transform="scale(0.015625)"/>
      <path id="DejaVuSans-6f" d="M 1959 3097 
Q 1497 3097 1228 2736 
Q 959 2375 959 1747 
Q 959 1119 1226 758 
Q 1494 397 1959 397 
Q 2419 397 2687 759 
Q 2956 1122 2956 1747 
Q 2956 2369 2687 2733 
Q 2419 3097 1959 3097 
z
M 1959 3584 
Q 2709 3584 3137 3096 
Q 3566 2609 3566 1747 
Q 3566 888 3137 398 
Q 2709 -91 1959 -91 
Q 1206 -91 779 398 
Q 353 888 353 1747 
Q 353 2609 779 3096 
Q 1206 3584 1959 3584 
z
" transform="scale(0.015625)"/>
      <path id="DejaVuSans-72" d="M 2631 2963 
Q 2534 3019 2420 3045 
Q 2306 3072 2169 3072 
Q 1681 3072 1420 2755 
Q 1159 2438 1159 1844 
L 1159 0 
L 581 0 
L 581 3500 
L 1159 3500 
L 1159 2956 
Q 1341 3275 1631 3429 
Q 1922 3584 2338 3584 
Q 2397 3584 2469 3576 
Q 2541 3569 2628 3553 
L 2631 2963 
z
" transform="scale(0.015625)"/>
      <path id="DejaVuSans-69" d="M 603 3500 
L 1178 3500 
L 1178 0 
L 603 0 
L 603 3500 
z
M 603 4863 
L 1178 4863 
L 1178 4134 
L 603 4134 
L 603 4863 
z
" transform="scale(0.015625)"/>
      <path id="DejaVuSans-6e" d="M 3513 2113 
L 3513 0 
L 2938 0 
L 2938 2094 
Q 2938 2591 2744 2837 
Q 2550 3084 2163 3084 
Q 1697 3084 1428 2787 
Q 1159 2491 1159 1978 
L 1159 0 
L 581 0 
L 581 3500 
L 1159 3500 
L 1159 2956 
Q 1366 3272 1645 3428 
Q 1925 3584 2291 3584 
Q 2894 3584 3203 3211 
Q 3513 2838 3513 2113 
z
" transform="scale(0.015625)"/>
      <path id="DejaVuSans-73" d="M 2834 3397 
L 2834 2853 
Q 2591 2978 2328 3040 
Q 2066 3103 1784 3103 
Q 1356 3103 1142 2972 
Q 928 2841 928 2578 
Q 928 2378 1081 2264 
Q 1234 2150 1697 2047 
L 1894 2003 
Q 2506 1872 2764 1633 
Q 3022 1394 3022 966 
Q 3022 478 2636 193 
Q 2250 -91 1575 -91 
Q 1294 -91 989 -36 
Q 684 19 347 128 
L 347 722 
Q 666 556 975 473 
Q 1284 391 1588 391 
Q 1994 391 2212 530 
Q 2431 669 2431 922 
Q 2431 1156 2273 1281 
Q 2116 1406 1581 1522 
L 1381 1569 
Q 847 1681 609 1914 
Q 372 2147 372 2553 
Q 372 3047 722 3315 
Q 1072 3584 1716 3584 
Q 2034 3584 2315 3537 
Q 2597 3491 2834 3397 
z
" transform="scale(0.015625)"/>
      <path id="DejaVuSans-74" d="M 1172 4494 
L 1172 3500 
L 2356 3500 
L 2356 3053 
L 1172 3053 
L 1172 1153 
Q 1172 725 1289 603 
Q 1406 481 1766 481 
L 2356 481 
L 2356 0 
L 1766 0 
Q 1100 0 847 248 
Q 594 497 594 1153 
L 594 3053 
L 172 3053 
L 172 3500 
L 594 3500 
L 594 4494 
L 1172 4494 
z
" transform="scale(0.015625)"/>
      <path id="DejaVuSans-65" d="M 3597 1894 
L 3597 1613 
L 953 1613 
Q 991 1019 1311 708 
Q 1631 397 2203 397 
Q 2534 397 2845 478 
Q 3156 559 3463 722 
L 3463 178 
Q 3153 47 2828 -22 
Q 2503 -91 2169 -91 
Q 1331 -91 842 396 
Q 353 884 353 1716 
Q 353 2575 817 3079 
Q 1281 3584 2069 3584 
Q 2775 3584 3186 3129 
Q 3597 2675 3597 1894 
z
M 3022 2063 
Q 3016 2534 2758 2815 
Q 2500 3097 2075 3097 
Q 1594 3097 1305 2825 
Q 1016 2553 972 2059 
L 3022 2063 
z
" transform="scale(0.015625)"/>
      <path id="DejaVuSans-6c" d="M 603 4863 
L 1178 4863 
L 1178 0 
L 603 0 
L 603 4863 
z
" transform="scale(0.015625)"/>
      <path id="DejaVuSans-70" d="M 1159 525 
L 1159 -1331 
L 581 -1331 
L 581 3500 
L 1159 3500 
L 1159 2969 
Q 1341 3281 1617 3432 
Q 1894 3584 2278 3584 
Q 2916 3584 3314 3078 
Q 3713 2572 3713 1747 
Q 3713 922 3314 415 
Q 2916 -91 2278 -91 
Q 1894 -91 1617 61 
Q 1341 213 1159 525 
z
M 3116 1747 
Q 3116 2381 2855 2742 
Q 2594 3103 2138 3103 
Q 1681 3103 1420 2742 
Q 1159 2381 1159 1747 
Q 1159 1113 1420 752 
Q 1681 391 2138 391 
Q 2594 391 2855 752 
Q 3116 1113 3116 1747 
z
" transform="scale(0.015625)"/>
      <path id="DejaVuSans-61" d="M 2194 1759 
Q 1497 1759 1228 1600 
Q 959 1441 959 1056 
Q 959 750 1161 570 
Q 1363 391 1709 391 
Q 2188 391 2477 730 
Q 2766 1069 2766 1631 
L 2766 1759 
L 2194 1759 
z
M 3341 1997 
L 3341 0 
L 2766 0 
L 2766 531 
Q 2569 213 2275 61 
Q 1981 -91 1556 -91 
Q 1019 -91 701 211 
Q 384 513 384 1019 
Q 384 1609 779 1909 
Q 1175 2209 1959 2209 
L 2766 2209 
L 2766 2266 
Q 2766 2663 2505 2880 
Q 2244 3097 1772 3097 
Q 1472 3097 1187 3025 
Q 903 2953 641 2809 
L 641 3341 
Q 956 3463 1253 3523 
Q 1550 3584 1831 3584 
Q 2591 3584 2966 3190 
Q 3341 2797 3341 1997 
z
" transform="scale(0.015625)"/>
      <path id="DejaVuSans-67" d="M 2906 1791 
Q 2906 2416 2648 2759 
Q 2391 3103 1925 3103 
Q 1463 3103 1205 2759 
Q 947 2416 947 1791 
Q 947 1169 1205 825 
Q 1463 481 1925 481 
Q 2391 481 2648 825 
Q 2906 1169 2906 1791 
z
M 3481 434 
Q 3481 -459 3084 -895 
Q 2688 -1331 1869 -1331 
Q 1566 -1331 1297 -1286 
Q 1028 -1241 775 -1147 
L 775 -588 
Q 1028 -725 1275 -790 
Q 1522 -856 1778 -856 
Q 2344 -856 2625 -561 
Q 2906 -266 2906 331 
L 2906 616 
Q 2728 306 2450 153 
Q 2172 0 1784 0 
Q 1141 0 747 490 
Q 353 981 353 1791 
Q 353 2603 747 3093 
Q 1141 3584 1784 3584 
Q 2172 3584 2450 3431 
Q 2728 3278 2906 2969 
L 2906 3500 
L 3481 3500 
L 3481 434 
z
" transform="scale(0.015625)"/>
     </defs>
     <use xlink:href="#DejaVuSans-56"/>
     <use xlink:href="#DejaVuSans-6f" x="60.658203"/>
     <use xlink:href="#DejaVuSans-6f" x="121.839844"/>
     <use xlink:href="#DejaVuSans-72" x="183.021484"/>
     <use xlink:href="#DejaVuSans-69" x="224.134766"/>
     <use xlink:href="#DejaVuSans-6e" x="251.917969"/>
     <use xlink:href="#DejaVuSans-73" x="315.296875"/>
     <use xlink:href="#DejaVuSans-74" x="367.396484"/>
     <use xlink:href="#DejaVuSans-65" x="406.605469"/>
     <use xlink:href="#DejaVuSans-6c" x="468.128906"/>
     <use xlink:href="#DejaVuSans-73" x="495.912109"/>
     <use xlink:href="#DejaVuSans-70" x="548.011719"/>
     <use xlink:href="#DejaVuSans-61" x="611.488281"/>
     <use xlink:href="#DejaVuSans-6e" x="672.767578"/>
     <use xlink:href="#DejaVuSans-6e" x="736.146484"/>
     <use xlink:href="#DejaVuSans-69" x="799.525391"/>
     <use xlink:href="#DejaVuSans-6e" x="827.308594"/>
     <use xlink:href="#DejaVuSans-67" x="890.6875"/>
    </g>
   </g>
   <g id="patch_11">
    <path d="M 216.325531 90.397656 
C 217.04158 90.397656 217.728397 90.113167 218.23472 89.606845 
C 218.741042 89.100522 219.025531 88.413705 219.025531 87.697656 
C 219.025531 86.981608 218.741042 86.294791 218.23472 85.788468 
C 217.728397 85.282145 217.04158 84.997656 216.325531 84.997656 
C 215.609483 84.997656 214.922666 85.282145 214.416343 85.788468 
C 213.91002 86.294791 213.625531 86.981608 213.625531 87.697656 
C 213.625531 88.413705 213.91002 89.100522 214.416343 89.606845 
C 214.922666 90.113167 215.609483 90.397656 216.325531 90.397656 
z
" clip-path="url(#pf3eb595b2c)" style="stroke: #000000; stroke-width: 2; stroke-linejoin: miter"/>
   </g>
   <g id="patch_12">
    <path d="M 216.325531 144.397656 
C 217.04158 144.397656 217.728397 144.113167 218.23472 143.606845 
C 218.741042 143.100522 219.025531 142.413705 219.025531 141.697656 
C 219.025531 140.981608 218.741042 140.294791 218.23472 139.788468 
C 217.728397 139.282145 217.04158 138.997656 216.325531 138.997656 
C 215.609483 138.997656 214.922666 139.282145 214.416343 139.788468 
C 213.91002 140.294791 213.625531 140.981608 213.625531 141.697656 
C 213.625531 142.413705 213.91002 143.100522 214.416343 143.606845 
C 214.922666 144.113167 215.609483 144.397656 216.325531 144.397656 
z
" clip-path="url(#pf3eb595b2c)" style="stroke: #000000; stroke-width: 2; stroke-linejoin: miter"/>
   </g>
   <g id="patch_13">
    <path d="M 162.325531 144.397656 
C 163.04158 144.397656 163.728397 144.113167 164.23472 143.606845 
C 164.741042 143.100522 165.025531 142.413705 165.025531 141.697656 
C 165.025531 140.981608 164.741042 140.294791 164.23472 139.788468 
C 163.728397 139.282145 163.04158 138.997656 162.325531 138.997656 
C 161.609483 138.997656 160.922666 139.282145 160.416343 139.788468 
C 159.91002 140.294791 159.625531 140.981608 159.625531 141.697656 
C 159.625531 142.413705 159.91002 143.100522 160.416343 143.606845 
C 160.922666 144.113167 161.609483 144.397656 162.325531 144.397656 
z
" clip-path="url(#pf3eb595b2c)" style="fill: #ffffff; stroke: #000000; stroke-width: 2; stroke-linejoin: miter"/>
   </g>
   <g id="text_8">
    <!-- $V_{in}$ -->
    <g transform="translate(132.288031 143.598047) scale(0.125 -0.125)">
     <defs>
      <path id="DejaVuSans-Oblique-69" d="M 1172 4863 
L 1747 4863 
L 1606 4134 
L 1031 4134 
L 1172 4863 
z
M 909 3500 
L 1484 3500 
L 800 0 
L 225 0 
L 909 3500 
z
" transform="scale(0.015625)"/>
      <path id="DejaVuSans-Oblique-6e" d="M 3566 2113 
L 3156 0 
L 2578 0 
L 2988 2091 
Q 3016 2238 3031 2350 
Q 3047 2463 3047 2528 
Q 3047 2791 2881 2937 
Q 2716 3084 2419 3084 
Q 1956 3084 1622 2776 
Q 1288 2469 1184 1941 
L 800 0 
L 225 0 
L 903 3500 
L 1478 3500 
L 1363 2950 
Q 1603 3253 1940 3418 
Q 2278 3584 2650 3584 
Q 3113 3584 3367 3334 
Q 3622 3084 3622 2631 
Q 3622 2519 3608 2391 
Q 3594 2263 3566 2113 
z
" transform="scale(0.015625)"/>
     </defs>
     <use xlink:href="#DejaVuSans-Oblique-56" transform="translate(0 0.09375)"/>
     <use xlink:href="#DejaVuSans-Oblique-69" transform="translate(68.408203 -16.3125) scale(0.7)"/>
     <use xlink:href="#DejaVuSans-Oblique-6e" transform="translate(87.856445 -16.3125) scale(0.7)"/>
    </g>
   </g>
   <g id="patch_14">
    <path d="M 261.385531 144.277656 
C 262.10158 144.277656 262.788397 143.993167 263.29472 143.486845 
C 263.801042 142.980522 264.085531 142.293705 264.085531 141.577656 
C 264.085531 140.861608 263.801042 140.174791 263.29472 139.668468 
C 262.788397 139.162145 262.10158 138.877656 261.385531 138.877656 
C 260.669483 138.877656 259.982666 139.162145 259.476343 139.668468 
C 258.97002 140.174791 258.685531 140.861608 258.685531 141.577656 
C 258.685531 142.293705 258.97002 142.980522 259.476343 143.486845 
C 259.982666 143.993167 260.669483 144.277656 261.385531 144.277656 
z
" clip-path="url(#pf3eb595b2c)" style="stroke: #000000; stroke-width: 2; stroke-linejoin: miter"/>
   </g>
   <g id="patch_15">
    <path d="M 333.385531 144.277656 
C 334.10158 144.277656 334.788397 143.993167 335.29472 143.486845 
C 335.801042 142.980522 336.085531 142.293705 336.085531 141.577656 
C 336.085531 140.861608 335.801042 140.174791 335.29472 139.668468 
C 334.788397 139.162145 334.10158 138.877656 333.385531 138.877656 
C 332.669483 138.877656 331.982666 139.162145 331.476343 139.668468 
C 330.97002 140.174791 330.685531 140.861608 330.685531 141.577656 
C 330.685531 142.293705 330.97002 142.980522 331.476343 143.486845 
C 331.982666 143.993167 332.669483 144.277656 333.385531 144.277656 
z
" clip-path="url(#pf3eb595b2c)" style="fill: #ffffff; stroke: #000000; stroke-width: 2; stroke-linejoin: miter"/>
   </g>
   <g id="text_9">
    <!-- $v_{out}$ -->
    <g transform="translate(322.323031 132.678047) scale(0.125 -0.125)">
     <defs>
      <path id="DejaVuSans-Oblique-6f" d="M 1625 -91 
Q 1009 -91 651 289 
Q 294 669 294 1325 
Q 294 1706 417 2101 
Q 541 2497 738 2766 
Q 1047 3184 1428 3384 
Q 1809 3584 2291 3584 
Q 2888 3584 3255 3212 
Q 3622 2841 3622 2241 
Q 3622 1825 3500 1412 
Q 3378 1000 3181 728 
Q 2875 309 2494 109 
Q 2113 -91 1625 -91 
z
M 891 1344 
Q 891 869 1089 633 
Q 1288 397 1691 397 
Q 2269 397 2648 901 
Q 3028 1406 3028 2181 
Q 3028 2634 2825 2865 
Q 2622 3097 2228 3097 
Q 1903 3097 1650 2945 
Q 1397 2794 1197 2484 
Q 1050 2253 970 1956 
Q 891 1659 891 1344 
z
" transform="scale(0.015625)"/>
      <path id="DejaVuSans-Oblique-75" d="M 428 1388 
L 838 3500 
L 1416 3500 
L 1006 1409 
Q 975 1256 961 1147 
Q 947 1038 947 966 
Q 947 700 1109 554 
Q 1272 409 1569 409 
Q 2031 409 2368 721 
Q 2706 1034 2809 1563 
L 3194 3500 
L 3769 3500 
L 3091 0 
L 2516 0 
L 2631 550 
Q 2388 244 2052 76 
Q 1716 -91 1338 -91 
Q 878 -91 622 161 
Q 366 413 366 863 
Q 366 956 381 1097 
Q 397 1238 428 1388 
z
" transform="scale(0.015625)"/>
      <path id="DejaVuSans-Oblique-74" d="M 2706 3500 
L 2619 3053 
L 1472 3053 
L 1100 1153 
Q 1081 1047 1072 975 
Q 1063 903 1063 863 
Q 1063 663 1183 572 
Q 1303 481 1569 481 
L 2150 481 
L 2053 0 
L 1503 0 
Q 991 0 739 200 
Q 488 400 488 806 
Q 488 878 497 964 
Q 506 1050 525 1153 
L 897 3053 
L 409 3053 
L 500 3500 
L 978 3500 
L 1172 4494 
L 1747 4494 
L 1556 3500 
L 2706 3500 
z
" transform="scale(0.015625)"/>
     </defs>
     <use xlink:href="#DejaVuSans-Oblique-76" transform="translate(0 0.3125)"/>
     <use xlink:href="#DejaVuSans-Oblique-6f" transform="translate(59.179688 -16.09375) scale(0.7)"/>
     <use xlink:href="#DejaVuSans-Oblique-75" transform="translate(102.006836 -16.09375) scale(0.7)"/>
     <use xlink:href="#DejaVuSans-Oblique-74" transform="translate(146.37207 -16.09375) scale(0.7)"/>
    </g>
   </g>
  </g>
 </g>
 <defs>
  <clipPath id="pf3eb595b2c">
   <rect x="115.988731" y="9.331656" width="230.5776" height="219.252"/>
  </clipPath>
 </defs>
</svg>