<?xml version="1.0" encoding="utf-8" standalone="no"?>
<!DOCTYPE svg PUBLIC "-//W3C//DTD SVG 1.1//EN"
  "http://www.w3.org/Graphics/SVG/1.1/DTD/svg11.dtd">
<svg xmlns:xlink="http://www.w3.org/1999/xlink" width="424.98pt" height="205.2pt" viewBox="0 0 424.98 205.2" xmlns="http://www.w3.org/2000/svg" version="1.1">
 <metadata>
  <rdf:RDF xmlns:dc="http://purl.org/dc/elements/1.1/" xmlns:cc="http://creativecommons.org/ns#" xmlns:rdf="http://www.w3.org/1999/02/22-rdf-syntax-ns#">
   <cc:Work>
    <dc:type rdf:resource="http://purl.org/dc/dcmitype/StillImage"/>
    <dc:date>2024-02-10T19:50:39.628410</dc:date>
    <dc:format>image/svg+xml</dc:format>
    <dc:creator>
     <cc:Agent>
      <dc:title>Matplotlib v3.8.2, https://matplotlib.org/</dc:title>
     </cc:Agent>
    </dc:creator>
   </cc:Work>
  </rdf:RDF>
 </metadata>
 <defs>
  <style type="text/css">*{stroke-linejoin: round; stroke-linecap: butt}</style>
 </defs>
 <g id="figure_1">
  <g id="patch_1">
   <path d="M -0 205.2 
L 424.98 205.2 
L 424.98 0 
L -0 0 
z
" style="fill: #ffffff"/>
  </g>
  <g id="axes_1">
   <g id="patch_2">
    <path d="M 150.39 48.6 
L 150.39 12.6 
L 366.39 12.6 
L 366.39 84.6 
L 150.39 84.6 
z
" clip-path="url(#p197e54f7f6)" style="fill: #add8e6; stroke: #add8e6; stroke-linejoin: miter"/>
   </g>
   <g id="patch_3">
    <path d="M 114.39 156.6 
L 114.39 120.6 
L 402.39 120.6 
L 402.39 192.6 
L 114.39 192.6 
z
" clip-path="url(#p197e54f7f6)" style="fill: #add8e6; stroke: #add8e6; stroke-linejoin: miter"/>
   </g>
   <g id="line2d_1">
    <path d="M 42.39 84.6 
L 42.39 99.6 
L 66.39 99.6 
L 66.39 123.6 
L 42.39 123.6 
L 42.39 138.6 
" clip-path="url(#p197e54f7f6)" style="fill: none; stroke: #000000; stroke-width: 2; stroke-linecap: round"/>
   </g>
   <g id="line2d_2">
    <path d="M 72.39 99.6 
L 72.39 123.6 
" clip-path="url(#p197e54f7f6)" style="fill: none; stroke: #000000; stroke-width: 2; stroke-linecap: round"/>
   </g>
   <g id="line2d_3">
    <path d="M 72.39 111.6 
L 91.59 111.6 
" clip-path="url(#p197e54f7f6)" style="fill: none; stroke: #000000; stroke-width: 2; stroke-linecap: round"/>
   </g>
   <g id="line2d_4">
    <path d="M 42.39 111.6 
L 57.39 111.6 
" clip-path="url(#p197e54f7f6)" style="fill: none; stroke: #000000; stroke-width: 2; stroke-linecap: round"/>
   </g>
   <g id="patch_4">
    <path d="M 57.39 108 
L 66.39 111.6 
L 57.39 115.2 
z
" clip-path="url(#p197e54f7f6)"/>
   </g>
   <g id="line2d_5">
    <path d="M 42.39 111.6 
L 33.39 111.6 
L 24.39 111.6 
" clip-path="url(#p197e54f7f6)" style="fill: none; stroke: #000000; stroke-width: 2; stroke-linecap: round"/>
   </g>
   <g id="line2d_6">
    <path d="M 24.39 111.6 
L 24.39 125.1 
L 24.39 138.6 
" clip-path="url(#p197e54f7f6)" style="fill: none; stroke: #000000; stroke-width: 2; stroke-linecap: round"/>
   </g>
   <g id="line2d_7">
    <path d="M 24.39 138.6 
L 33.39 138.6 
L 42.39 138.6 
" clip-path="url(#p197e54f7f6)" style="fill: none; stroke: #000000; stroke-width: 2; stroke-linecap: round"/>
   </g>
   <g id="line2d_8">
    <path d="M 42.39 138.6 
L 42.39 153 
L 33.39 153 
L 51.39 153 
M 36.09 157.32 
L 48.69 157.32 
M 40.59 161.64 
L 44.19 161.64 
" clip-path="url(#p197e54f7f6)" style="fill: none; stroke: #000000; stroke-width: 2; stroke-linecap: round"/>
   </g>
   <g id="line2d_9">
    <path d="M 91.59 111.6 
L 91.59 98.1 
L 91.59 84.6 
" clip-path="url(#p197e54f7f6)" style="fill: none; stroke: #000000; stroke-width: 2; stroke-linecap: round"/>
   </g>
   <g id="line2d_10">
    <path d="M 91.59 84.6 
L 66.99 84.6 
L 42.39 84.6 
" clip-path="url(#p197e54f7f6)" style="fill: none; stroke: #000000; stroke-width: 2; stroke-linecap: round"/>
   </g>
   <g id="line2d_11">
    <path d="M 42.39 84.6 
L 42.39 75.6 
L 42.39 66.6 
" clip-path="url(#p197e54f7f6)" style="fill: none; stroke: #000000; stroke-width: 2; stroke-linecap: round"/>
   </g>
   <g id="line2d_12">
    <path d="M 26.19 91.8 
L 26.19 30.6 
" clip-path="url(#p197e54f7f6)" style="fill: none; stroke: #ff0000; stroke-width: 2; stroke-linecap: round"/>
   </g>
   <g id="patch_5">
    <path d="M 29.79 91.8 
L 26.19 102.6 
L 22.59 91.8 
z
" clip-path="url(#p197e54f7f6)" style="fill: #ff0000"/>
   </g>
   <g id="line2d_13">
    <path d="M 150.39 48.6 
L 150.39 12.6 
L 366.39 12.6 
L 366.39 84.6 
L 150.39 84.6 
L 150.39 48.6 
" clip-path="url(#p197e54f7f6)" style="fill: none; stroke: #0000ff; stroke-width: 2; stroke-linecap: round"/>
   </g>
   <g id="line2d_14">
    <path d="M 114.39 156.6 
L 114.39 120.6 
L 402.39 120.6 
L 402.39 192.6 
L 114.39 192.6 
L 114.39 156.6 
" clip-path="url(#p197e54f7f6)" style="fill: none; stroke: #0000ff; stroke-width: 2; stroke-linecap: round"/>
   </g>
   <g id="text_1">
    <!-- $I_{in}$ -->
    <g style="fill: #ff0000" transform="translate(10.465 70.049219) scale(0.125 -0.125)">
     <defs>
      <path id="DejaVuSans-Oblique-49" d="M 1081 4666 
L 1716 4666 
L 806 0 
L 172 0 
L 1081 4666 
z
" transform="scale(0.015625)"/>
      <path id="DejaVuSans-Oblique-69" d="M 1172 4863 
L 1747 4863 
L 1606 4134 
L 1031 4134 
L 1172 4863 
z
M 909 3500 
L 1484 3500 
L 800 0 
L 225 0 
L 909 3500 
z
" transform="scale(0.015625)"/>
      <path id="DejaVuSans-Oblique-6e" d="M 3566 2113 
L 3156 0 
L 2578 0 
L 2988 2091 
Q 3016 2238 3031 2350 
Q 3047 2463 3047 2528 
Q 3047 2791 2881 2937 
Q 2716 3084 2419 3084 
Q 1956 3084 1622 2776 
Q 1288 2469 1184 1941 
L 800 0 
L 225 0 
L 903 3500 
L 1478 3500 
L 1363 2950 
Q 1603 3253 1940 3418 
Q 2278 3584 2650 3584 
Q 3113 3584 3367 3334 
Q 3622 3084 3622 2631 
Q 3622 2519 3608 2391 
Q 3594 2263 3566 2113 
z
" transform="scale(0.015625)"/>
     </defs>
     <use xlink:href="#DejaVuSans-Oblique-49" transform="translate(0 0.09375)"/>
     <use xlink:href="#DejaVuSans-Oblique-69" transform="translate(29.492188 -16.3125) scale(0.7)"/>
     <use xlink:href="#DejaVuSans-Oblique-6e" transform="translate(48.94043 -16.3125) scale(0.7)"/>
    </g>
   </g>
   <g id="text_2">
    <!-- $I_{in}=\frac{\mu C_{ox}}{2}\frac{W}{L}(V_{in}-V_{T})^2$ -->
    <g style="fill: #0000ff" transform="translate(178.695 54.4575) scale(0.165 -0.165)">
     <defs>
      <path id="DejaVuSans-3d" d="M 678 2906 
L 4684 2906 
L 4684 2381 
L 678 2381 
L 678 2906 
z
M 678 1631 
L 4684 1631 
L 4684 1100 
L 678 1100 
L 678 1631 
z
" transform="scale(0.015625)"/>
      <path id="DejaVuSans-Oblique-3bc" d="M -84 -1331 
L 856 3500 
L 1434 3500 
L 1009 1322 
Q 997 1256 987 1175 
Q 978 1094 978 1013 
Q 978 722 1161 565 
Q 1344 409 1684 409 
Q 2147 409 2431 671 
Q 2716 934 2816 1459 
L 3213 3500 
L 3788 3500 
L 3266 809 
Q 3253 750 3248 706 
Q 3244 663 3244 628 
Q 3244 531 3283 486 
Q 3322 441 3406 441 
Q 3438 441 3492 456 
Q 3547 472 3647 513 
L 3559 50 
Q 3422 -19 3297 -55 
Q 3172 -91 3053 -91 
Q 2847 -91 2730 40 
Q 2613 172 2613 403 
Q 2438 153 2195 31 
Q 1953 -91 1625 -91 
Q 1334 -91 1117 43 
Q 900 178 831 397 
L 494 -1331 
L -84 -1331 
z
" transform="scale(0.015625)"/>
      <path id="DejaVuSans-Oblique-43" d="M 4447 4306 
L 4319 3641 
Q 4019 3944 3683 4091 
Q 3347 4238 2956 4238 
Q 2422 4238 2017 3981 
Q 1613 3725 1319 3200 
Q 1131 2863 1032 2486 
Q 934 2109 934 1728 
Q 934 1091 1264 756 
Q 1594 422 2222 422 
Q 2656 422 3056 561 
Q 3456 700 3834 978 
L 3688 231 
Q 3316 72 2936 -9 
Q 2556 -91 2175 -91 
Q 1278 -91 773 396 
Q 269 884 269 1753 
Q 269 2309 461 2846 
Q 653 3384 1013 3828 
Q 1394 4300 1883 4525 
Q 2372 4750 3022 4750 
Q 3422 4750 3780 4639 
Q 4138 4528 4447 4306 
z
" transform="scale(0.015625)"/>
      <path id="DejaVuSans-Oblique-6f" d="M 1625 -91 
Q 1009 -91 651 289 
Q 294 669 294 1325 
Q 294 1706 417 2101 
Q 541 2497 738 2766 
Q 1047 3184 1428 3384 
Q 1809 3584 2291 3584 
Q 2888 3584 3255 3212 
Q 3622 2841 3622 2241 
Q 3622 1825 3500 1412 
Q 3378 1000 3181 728 
Q 2875 309 2494 109 
Q 2113 -91 1625 -91 
z
M 891 1344 
Q 891 869 1089 633 
Q 1288 397 1691 397 
Q 2269 397 2648 901 
Q 3028 1406 3028 2181 
Q 3028 2634 2825 2865 
Q 2622 3097 2228 3097 
Q 1903 3097 1650 2945 
Q 1397 2794 1197 2484 
Q 1050 2253 970 1956 
Q 891 1659 891 1344 
z
" transform="scale(0.015625)"/>
      <path id="DejaVuSans-Oblique-78" d="M 3841 3500 
L 2234 1784 
L 3219 0 
L 2559 0 
L 1819 1388 
L 531 0 
L -166 0 
L 1556 1844 
L 641 3500 
L 1300 3500 
L 1972 2234 
L 3144 3500 
L 3841 3500 
z
" transform="scale(0.015625)"/>
      <path id="DejaVuSans-32" d="M 1228 531 
L 3431 531 
L 3431 0 
L 469 0 
L 469 531 
Q 828 903 1448 1529 
Q 2069 2156 2228 2338 
Q 2531 2678 2651 2914 
Q 2772 3150 2772 3378 
Q 2772 3750 2511 3984 
Q 2250 4219 1831 4219 
Q 1534 4219 1204 4116 
Q 875 4013 500 3803 
L 500 4441 
Q 881 4594 1212 4672 
Q 1544 4750 1819 4750 
Q 2544 4750 2975 4387 
Q 3406 4025 3406 3419 
Q 3406 3131 3298 2873 
Q 3191 2616 2906 2266 
Q 2828 2175 2409 1742 
Q 1991 1309 1228 531 
z
" transform="scale(0.015625)"/>
      <path id="DejaVuSans-Oblique-57" d="M 616 4666 
L 1228 4666 
L 1453 697 
L 3213 4666 
L 3916 4666 
L 4147 697 
L 5888 4666 
L 6528 4666 
L 4453 0 
L 3659 0 
L 3444 3891 
L 1697 0 
L 903 0 
L 616 4666 
z
" transform="scale(0.015625)"/>
      <path id="DejaVuSans-Oblique-4c" d="M 1075 4666 
L 1709 4666 
L 909 525 
L 3181 525 
L 3078 0 
L 172 0 
L 1075 4666 
z
" transform="scale(0.015625)"/>
      <path id="DejaVuSans-28" d="M 1984 4856 
Q 1566 4138 1362 3434 
Q 1159 2731 1159 2009 
Q 1159 1288 1364 580 
Q 1569 -128 1984 -844 
L 1484 -844 
Q 1016 -109 783 600 
Q 550 1309 550 2009 
Q 550 2706 781 3412 
Q 1013 4119 1484 4856 
L 1984 4856 
z
" transform="scale(0.015625)"/>
      <path id="DejaVuSans-Oblique-56" d="M 1319 0 
L 500 4666 
L 1119 4666 
L 1797 653 
L 4063 4666 
L 4750 4666 
L 2053 0 
L 1319 0 
z
" transform="scale(0.015625)"/>
      <path id="DejaVuSans-2212" d="M 678 2272 
L 4684 2272 
L 4684 1741 
L 678 1741 
L 678 2272 
z
" transform="scale(0.015625)"/>
      <path id="DejaVuSans-Oblique-54" d="M 378 4666 
L 4325 4666 
L 4225 4134 
L 2559 4134 
L 1759 0 
L 1125 0 
L 1925 4134 
L 275 4134 
L 378 4666 
z
" transform="scale(0.015625)"/>
      <path id="DejaVuSans-29" d="M 513 4856 
L 1013 4856 
Q 1481 4119 1714 3412 
Q 1947 2706 1947 2009 
Q 1947 1309 1714 600 
Q 1481 -109 1013 -844 
L 513 -844 
Q 928 -128 1133 580 
Q 1338 1288 1338 2009 
Q 1338 2731 1133 3434 
Q 928 4138 513 4856 
z
" transform="scale(0.015625)"/>
     </defs>
     <use xlink:href="#DejaVuSans-Oblique-49" transform="translate(0 0.692187)"/>
     <use xlink:href="#DejaVuSans-Oblique-69" transform="translate(29.492188 -15.714063) scale(0.7)"/>
     <use xlink:href="#DejaVuSans-Oblique-6e" transform="translate(48.94043 -15.714063) scale(0.7)"/>
     <use xlink:href="#DejaVuSans-3d" transform="translate(115.522461 0.692187)"/>
     <use xlink:href="#DejaVuSans-Oblique-3bc" transform="translate(218.793945 59.046875) scale(0.7)"/>
     <use xlink:href="#DejaVuSans-Oblique-43" transform="translate(263.330078 59.046875) scale(0.7)"/>
     <use xlink:href="#DejaVuSans-Oblique-6f" transform="translate(312.207031 47.5625) scale(0.49)"/>
     <use xlink:href="#DejaVuSans-Oblique-78" transform="translate(342.186035 47.5625) scale(0.49)"/>
     <use xlink:href="#DejaVuSans-32" transform="translate(273.793945 -38.714063) scale(0.7)"/>
     <use xlink:href="#DejaVuSans-Oblique-57" transform="translate(385.598145 44.489062) scale(0.7)"/>
     <use xlink:href="#DejaVuSans-Oblique-4c" transform="translate(400.598145 -37.795313) scale(0.7)"/>
     <use xlink:href="#DejaVuSans-28" transform="translate(467.312012 0.692187)"/>
     <use xlink:href="#DejaVuSans-Oblique-56" transform="translate(506.325684 0.692187)"/>
     <use xlink:href="#DejaVuSans-Oblique-69" transform="translate(574.733887 -15.714063) scale(0.7)"/>
     <use xlink:href="#DejaVuSans-Oblique-6e" transform="translate(594.182129 -15.714063) scale(0.7)"/>
     <use xlink:href="#DejaVuSans-2212" transform="translate(660.76416 0.692187)"/>
     <use xlink:href="#DejaVuSans-Oblique-56" transform="translate(764.035645 0.692187)"/>
     <use xlink:href="#DejaVuSans-Oblique-54" transform="translate(832.443848 -15.714063) scale(0.7)"/>
     <use xlink:href="#DejaVuSans-29" transform="translate(877.937012 0.692187)"/>
     <use xlink:href="#DejaVuSans-32" transform="translate(917.907715 38.973437) scale(0.7)"/>
     <path d="M 218.793945 19.489063 
L 218.793945 25.739063 
L 373.098145 25.739063 
L 373.098145 19.489063 
L 218.793945 19.489063 
z
"/>
     <path d="M 385.598145 19.489062 
L 385.598145 25.739062 
L 454.812012 25.739062 
L 454.812012 19.489062 
L 385.598145 19.489062 
z
"/>
    </g>
   </g>
   <g id="text_3">
    <!-- $g_o=\frac{\partial I_{uit}}{\partial v_{in}}=\mu C_{ox}\frac{W}{L}(V_{in}-V_{T})$ -->
    <g style="fill: #0000ff" transform="translate(155.76 161.715) scale(0.165 -0.165)">
     <defs>
      <path id="DejaVuSans-Oblique-67" d="M 3816 3500 
L 3219 434 
Q 3047 -456 2561 -893 
Q 2075 -1331 1253 -1331 
Q 950 -1331 690 -1286 
Q 431 -1241 206 -1147 
L 313 -588 
Q 525 -725 762 -790 
Q 1000 -856 1269 -856 
Q 1816 -856 2167 -557 
Q 2519 -259 2631 300 
L 2681 563 
Q 2441 288 2122 144 
Q 1803 0 1434 0 
Q 903 0 598 351 
Q 294 703 294 1319 
Q 294 1803 478 2267 
Q 663 2731 997 3091 
Q 1219 3328 1514 3456 
Q 1809 3584 2131 3584 
Q 2484 3584 2746 3420 
Q 3009 3256 3138 2956 
L 3238 3500 
L 3816 3500 
z
M 2950 2216 
Q 2950 2641 2750 2872 
Q 2550 3103 2181 3103 
Q 1953 3103 1747 3012 
Q 1541 2922 1394 2759 
Q 1156 2491 1023 2127 
Q 891 1763 891 1375 
Q 891 944 1092 712 
Q 1294 481 1672 481 
Q 2219 481 2584 976 
Q 2950 1472 2950 2216 
z
" transform="scale(0.015625)"/>
      <path id="DejaVuSans-2202" d="M 1366 -91 
Q 925 -91 638 175 
Q 297 491 297 1063 
Q 297 1656 597 2119 
Q 906 2594 1463 2594 
Q 1828 2594 2116 2366 
Q 2284 2231 2400 2006 
Q 2441 2259 2441 2547 
Q 2441 2969 2341 3213 
Q 2119 3753 1531 3753 
Q 1309 3753 966 3616 
L 966 4141 
Q 1328 4238 1653 4238 
Q 2491 4238 2847 3469 
Q 3013 3106 3013 2566 
Q 3013 2213 2934 1803 
Q 2738 778 2228 291 
Q 1828 -91 1366 -91 
z
M 831 969 
Q 831 656 969 488 
Q 1116 309 1341 309 
Q 1541 309 1700 450 
Q 1925 644 2091 959 
Q 2228 1219 2297 1497 
Q 2019 2169 1538 2169 
Q 1125 2169 944 1625 
Q 831 1288 831 969 
z
" transform="scale(0.015625)"/>
      <path id="DejaVuSans-Oblique-75" d="M 428 1388 
L 838 3500 
L 1416 3500 
L 1006 1409 
Q 975 1256 961 1147 
Q 947 1038 947 966 
Q 947 700 1109 554 
Q 1272 409 1569 409 
Q 2031 409 2368 721 
Q 2706 1034 2809 1563 
L 3194 3500 
L 3769 3500 
L 3091 0 
L 2516 0 
L 2631 550 
Q 2388 244 2052 76 
Q 1716 -91 1338 -91 
Q 878 -91 622 161 
Q 366 413 366 863 
Q 366 956 381 1097 
Q 397 1238 428 1388 
z
" transform="scale(0.015625)"/>
      <path id="DejaVuSans-Oblique-74" d="M 2706 3500 
L 2619 3053 
L 1472 3053 
L 1100 1153 
Q 1081 1047 1072 975 
Q 1063 903 1063 863 
Q 1063 663 1183 572 
Q 1303 481 1569 481 
L 2150 481 
L 2053 0 
L 1503 0 
Q 991 0 739 200 
Q 488 400 488 806 
Q 488 878 497 964 
Q 506 1050 525 1153 
L 897 3053 
L 409 3053 
L 500 3500 
L 978 3500 
L 1172 4494 
L 1747 4494 
L 1556 3500 
L 2706 3500 
z
" transform="scale(0.015625)"/>
      <path id="DejaVuSans-Oblique-76" d="M 459 3500 
L 1069 3500 
L 1581 525 
L 3256 3500 
L 3866 3500 
L 1875 0 
L 1100 0 
L 459 3500 
z
" transform="scale(0.015625)"/>
     </defs>
     <use xlink:href="#DejaVuSans-Oblique-67" transform="translate(0 0.987656)"/>
     <use xlink:href="#DejaVuSans-Oblique-6f" transform="translate(63.476562 -15.418594) scale(0.7)"/>
     <use xlink:href="#DejaVuSans-3d" transform="translate(128.520508 0.987656)"/>
     <use xlink:href="#DejaVuSans-2202" transform="translate(232.791992 56.965625) scale(0.7)"/>
     <use xlink:href="#DejaVuSans-Oblique-49" transform="translate(268.988281 56.965625) scale(0.7)"/>
     <use xlink:href="#DejaVuSans-Oblique-75" transform="translate(289.632812 45.48125) scale(0.49)"/>
     <use xlink:href="#DejaVuSans-Oblique-69" transform="translate(320.688477 45.48125) scale(0.49)"/>
     <use xlink:href="#DejaVuSans-Oblique-74" transform="translate(334.302246 45.48125) scale(0.49)"/>
     <use xlink:href="#DejaVuSans-2202" transform="translate(231.791992 -32.818594) scale(0.7)"/>
     <use xlink:href="#DejaVuSans-Oblique-76" transform="translate(267.988281 -32.818594) scale(0.7)"/>
     <use xlink:href="#DejaVuSans-Oblique-69" transform="translate(309.414062 -44.302969) scale(0.49)"/>
     <use xlink:href="#DejaVuSans-Oblique-6e" transform="translate(323.027832 -44.302969) scale(0.49)"/>
     <use xlink:href="#DejaVuSans-3d" transform="translate(387.97998 0.987656)"/>
     <use xlink:href="#DejaVuSans-Oblique-3bc" transform="translate(491.251465 0.987656)"/>
     <use xlink:href="#DejaVuSans-Oblique-43" transform="translate(554.874512 0.987656)"/>
     <use xlink:href="#DejaVuSans-Oblique-6f" transform="translate(624.69873 -15.418594) scale(0.7)"/>
     <use xlink:href="#DejaVuSans-Oblique-78" transform="translate(667.525879 -15.418594) scale(0.7)"/>
     <use xlink:href="#DejaVuSans-Oblique-57" transform="translate(711.686035 44.784531) scale(0.7)"/>
     <use xlink:href="#DejaVuSans-Oblique-4c" transform="translate(726.686035 -37.499844) scale(0.7)"/>
     <use xlink:href="#DejaVuSans-28" transform="translate(793.399902 0.987656)"/>
     <use xlink:href="#DejaVuSans-Oblique-56" transform="translate(832.413574 0.987656)"/>
     <use xlink:href="#DejaVuSans-Oblique-69" transform="translate(900.821777 -15.418594) scale(0.7)"/>
     <use xlink:href="#DejaVuSans-Oblique-6e" transform="translate(920.27002 -15.418594) scale(0.7)"/>
     <use xlink:href="#DejaVuSans-2212" transform="translate(986.852051 0.987656)"/>
     <use xlink:href="#DejaVuSans-Oblique-56" transform="translate(1090.123535 0.987656)"/>
     <use xlink:href="#DejaVuSans-Oblique-54" transform="translate(1158.531738 -15.418594) scale(0.7)"/>
     <use xlink:href="#DejaVuSans-29" transform="translate(1204.024902 0.987656)"/>
     <path d="M 231.791992 19.784531 
L 231.791992 26.034531 
L 355.997559 26.034531 
L 355.997559 19.784531 
L 231.791992 19.784531 
z
"/>
     <path d="M 711.686035 19.784531 
L 711.686035 26.034531 
L 780.899902 26.034531 
L 780.899902 19.784531 
L 711.686035 19.784531 
z
"/>
    </g>
   </g>
   <g id="patch_6">
    <path d="M 42.39 141.3 
C 43.106048 141.3 43.792866 141.015511 44.299188 140.509188 
C 44.805511 140.002866 45.09 139.316048 45.09 138.6 
C 45.09 137.883952 44.805511 137.197134 44.299188 136.690812 
C 43.792866 136.184489 43.106048 135.9 42.39 135.9 
C 41.673952 135.9 40.987134 136.184489 40.480812 136.690812 
C 39.974489 137.197134 39.69 137.883952 39.69 138.6 
C 39.69 139.316048 39.974489 140.002866 40.480812 140.509188 
C 40.987134 141.015511 41.673952 141.3 42.39 141.3 
z
" clip-path="url(#p197e54f7f6)" style="stroke: #000000; stroke-width: 2; stroke-linejoin: miter"/>
   </g>
   <g id="patch_7">
    <path d="M 42.39 87.3 
C 43.106048 87.3 43.792866 87.015511 44.299188 86.509188 
C 44.805511 86.002866 45.09 85.316048 45.09 84.6 
C 45.09 83.883952 44.805511 83.197134 44.299188 82.690812 
C 43.792866 82.184489 43.106048 81.9 42.39 81.9 
C 41.673952 81.9 40.987134 82.184489 40.480812 82.690812 
C 39.974489 83.197134 39.69 83.883952 39.69 84.6 
C 39.69 85.316048 39.974489 86.002866 40.480812 86.509188 
C 40.987134 87.015511 41.673952 87.3 42.39 87.3 
z
" clip-path="url(#p197e54f7f6)" style="stroke: #000000; stroke-width: 2; stroke-linejoin: miter"/>
   </g>
   <g id="patch_8">
    <path d="M 42.39 69.3 
C 43.106048 69.3 43.792866 69.015511 44.299188 68.509188 
C 44.805511 68.002866 45.09 67.316048 45.09 66.6 
C 45.09 65.883952 44.805511 65.197134 44.299188 64.690812 
C 43.792866 64.184489 43.106048 63.9 42.39 63.9 
C 41.673952 63.9 40.987134 64.184489 40.480812 64.690812 
C 39.974489 65.197134 39.69 65.883952 39.69 66.6 
C 39.69 67.316048 39.974489 68.002866 40.480812 68.509188 
C 40.987134 69.015511 41.673952 69.3 42.39 69.3 
z
" clip-path="url(#p197e54f7f6)" style="fill: #ffffff; stroke: #000000; stroke-width: 2; stroke-linejoin: miter"/>
   </g>
   <g id="text_4">
    <!-- $V_{in}$ -->
    <g transform="translate(33.9525 57.700391) scale(0.125 -0.125)">
     <use xlink:href="#DejaVuSans-Oblique-56" transform="translate(0 0.09375)"/>
     <use xlink:href="#DejaVuSans-Oblique-69" transform="translate(68.408203 -16.3125) scale(0.7)"/>
     <use xlink:href="#DejaVuSans-Oblique-6e" transform="translate(87.856445 -16.3125) scale(0.7)"/>
    </g>
   </g>
  </g>
 </g>
 <defs>
  <clipPath id="p197e54f7f6">
   <rect x="3.6" y="3.6" width="417.78" height="198"/>
  </clipPath>
 </defs>
</svg>