<?xml version="1.0" encoding="utf-8" standalone="no"?>
<!DOCTYPE svg PUBLIC "-//W3C//DTD SVG 1.1//EN"
  "http://www.w3.org/Graphics/SVG/1.1/DTD/svg11.dtd">
<svg xmlns:xlink="http://www.w3.org/1999/xlink" width="189.282688pt" height="227.92pt" viewBox="0 0 189.282688 227.92" xmlns="http://www.w3.org/2000/svg" version="1.1">
 <metadata>
  <rdf:RDF xmlns:dc="http://purl.org/dc/elements/1.1/" xmlns:cc="http://creativecommons.org/ns#" xmlns:rdf="http://www.w3.org/1999/02/22-rdf-syntax-ns#">
   <cc:Work>
    <dc:type rdf:resource="http://purl.org/dc/dcmitype/StillImage"/>
    <dc:date>2026-02-23T00:38:08.105906</dc:date>
    <dc:format>image/svg+xml</dc:format>
    <dc:creator>
     <cc:Agent>
      <dc:title>Matplotlib v3.10.8, https://matplotlib.org/</dc:title>
     </cc:Agent>
    </dc:creator>
   </cc:Work>
  </rdf:RDF>
 </metadata>
 <defs>
  <style type="text/css">*{stroke-linejoin: round; stroke-linecap: butt}</style>
 </defs>
 <g id="figure_1">
  <g id="patch_1">
   <path d="M 0 227.92 
L 189.282688 227.92 
L 189.282688 0 
L 0 0 
z
" style="fill: #ffffff"/>
  </g>
  <g id="axes_1">
   <g id="patch_2">
    <path d="M 53.208 94.64 
L 53.379352 94.638641 
L 53.550662 94.634563 
L 53.721885 94.627767 
L 53.892978 94.618256 
L 54.0639 94.606032 
L 54.234605 94.591097 
L 54.405053 94.573455 
L 54.575198 94.553112 
L 54.745 94.530072 
L 54.914415 94.50434 
L 55.0834 94.475924 
L 55.251913 94.44483 
L 55.419912 94.411066 
L 55.587354 94.374642 
L 55.754197 94.335565 
L 55.920398 94.293846 
L 56.085917 94.249495 
L 56.250712 94.202524 
L 56.41474 94.152944 
L 56.577961 94.100768 
L 56.740334 94.046009 
L 56.901818 93.98868 
L 57.062371 93.928797 
L 57.221955 93.866374 
L 57.380527 93.801426 
L 57.53805 93.733971 
L 57.694482 93.664026 
L 57.849785 93.591607 
L 58.003919 93.516733 
L 58.156846 93.439423 
L 58.308528 93.359696 
L 58.458925 93.277573 
L 58.608 93.193074 
L 58.755716 93.106221 
L 58.902035 93.017035 
L 59.046921 92.925538 
L 59.190337 92.831754 
L 59.332247 92.735707 
L 59.472615 92.63742 
L 59.611406 92.536919 
L 59.748585 92.434228 
L 59.884117 92.329373 
L 60.017969 92.222382 
L 60.150106 92.11328 
L 60.280496 92.002095 
L 60.409105 91.888856 
L 60.535902 91.77359 
L 60.660853 91.656328 
L 60.783929 91.537097 
L 60.905097 91.415929 
L 61.024328 91.292853 
L 61.14159 91.167902 
L 61.256856 91.041105 
L 61.370095 90.912496 
L 61.48128 90.782106 
L 61.590382 90.649969 
L 61.697373 90.516117 
L 61.802228 90.380585 
L 61.904919 90.243406 
L 62.00542 90.104615 
L 62.103707 89.964247 
L 62.199754 89.822337 
L 62.293538 89.678921 
L 62.385035 89.534035 
L 62.474221 89.387716 
L 62.561074 89.24 
L 62.645573 89.090925 
L 62.727696 88.940528 
L 62.807423 88.788846 
L 62.884733 88.635919 
L 62.959607 88.481785 
L 63.032026 88.326482 
L 63.101971 88.17005 
L 63.169426 88.012527 
L 63.234374 87.853955 
L 63.296797 87.694371 
L 63.35668 87.533818 
L 63.414009 87.372334 
L 63.468768 87.209961 
L 63.520944 87.04674 
L 63.570524 86.882712 
L 63.617495 86.717917 
L 63.661846 86.552398 
L 63.703565 86.386197 
L 63.742642 86.219354 
L 63.779066 86.051912 
L 63.81283 85.883913 
L 63.843924 85.7154 
L 63.87234 85.546415 
L 63.898072 85.377 
L 63.921112 85.207198 
L 63.941455 85.037053 
L 63.959097 84.866605 
L 63.974032 84.6959 
L 63.986256 84.524978 
L 63.995767 84.353885 
L 64.002563 84.182662 
L 64.006641 84.011352 
L 64.008 83.84 
L 64.008 40.28 
L 64.006641 40.108648 
L 64.002563 39.937338 
L 63.995767 39.766115 
L 63.986256 39.595022 
L 63.974032 39.4241 
L 63.959097 39.253395 
L 63.941455 39.082947 
L 63.921112 38.912802 
L 63.898072 38.743 
L 63.87234 38.573585 
L 63.843924 38.4046 
L 63.81283 38.236087 
L 63.779066 38.068088 
L 63.742642 37.900646 
L 63.703565 37.733803 
L 63.661846 37.567602 
L 63.617495 37.402083 
L 63.570524 37.237288 
L 63.520944 37.07326 
L 63.468768 36.910039 
L 63.414009 36.747666 
L 63.35668 36.586182 
L 63.296797 36.425629 
L 63.234374 36.266045 
L 63.169426 36.107473 
L 63.101971 35.94995 
L 63.032026 35.793518 
L 62.959607 35.638215 
L 62.884733 35.484081 
L 62.807423 35.331154 
L 62.727696 35.179472 
L 62.645573 35.029075 
L 62.561074 34.88 
L 62.474221 34.732284 
L 62.385035 34.585965 
L 62.293538 34.441079 
L 62.199754 34.297663 
L 62.103707 34.155753 
L 62.00542 34.015385 
L 61.904919 33.876594 
L 61.802228 33.739415 
L 61.697373 33.603883 
L 61.590382 33.470031 
L 61.48128 33.337894 
L 61.370095 33.207504 
L 61.256856 33.078895 
L 61.14159 32.952098 
L 61.024328 32.827147 
L 60.905097 32.704071 
L 60.783929 32.582903 
L 60.660853 32.463672 
L 60.535902 32.34641 
L 60.409105 32.231144 
L 60.280496 32.117905 
L 60.150106 32.00672 
L 60.017969 31.897618 
L 59.884117 31.790627 
L 59.748585 31.685772 
L 59.611406 31.583081 
L 59.472615 31.48258 
L 59.332247 31.384293 
L 59.190337 31.288246 
L 59.046921 31.194462 
L 58.902035 31.102965 
L 58.755716 31.013779 
L 58.608 30.926926 
L 58.458925 30.842427 
L 58.308528 30.760304 
L 58.156846 30.680577 
L 58.003919 30.603267 
L 57.849785 30.528393 
L 57.694482 30.455974 
L 57.53805 30.386029 
L 57.380527 30.318574 
L 57.221955 30.253626 
L 57.062371 30.191203 
L 56.901818 30.13132 
L 56.740334 30.073991 
L 56.577961 30.019232 
L 56.41474 29.967056 
L 56.250712 29.917476 
L 56.085917 29.870505 
L 55.920398 29.826154 
L 55.754197 29.784435 
L 55.587354 29.745358 
L 55.419912 29.708934 
L 55.251913 29.67517 
L 55.0834 29.644076 
L 54.914415 29.61566 
L 54.745 29.589928 
L 54.575198 29.566888 
L 54.405053 29.546545 
L 54.234605 29.528903 
L 54.0639 29.513968 
L 53.892978 29.501744 
L 53.721885 29.492233 
L 53.550662 29.485437 
L 53.379352 29.481359 
L 53.208 29.48 
L 40.548 29.48 
L 40.376648 29.481359 
L 40.205338 29.485437 
L 40.034115 29.492233 
L 39.863022 29.501744 
L 39.6921 29.513968 
L 39.521395 29.528903 
L 39.350947 29.546545 
L 39.180802 29.566888 
L 39.011 29.589928 
L 38.841585 29.61566 
L 38.6726 29.644076 
L 38.504087 29.67517 
L 38.336088 29.708934 
L 38.168646 29.745358 
L 38.001803 29.784435 
L 37.835602 29.826154 
L 37.670083 29.870505 
L 37.505288 29.917476 
L 37.34126 29.967056 
L 37.178039 30.019232 
L 37.015666 30.073991 
L 36.854182 30.13132 
L 36.693629 30.191203 
L 36.534045 30.253626 
L 36.375473 30.318574 
L 36.21795 30.386029 
L 36.061518 30.455974 
L 35.906215 30.528393 
L 35.752081 30.603267 
L 35.599154 30.680577 
L 35.447472 30.760304 
L 35.297075 30.842427 
L 35.148 30.926926 
L 35.000284 31.013779 
L 34.853965 31.102965 
L 34.709079 31.194462 
L 34.565663 31.288246 
L 34.423753 31.384293 
L 34.283385 31.48258 
L 34.144594 31.583081 
L 34.007415 31.685772 
L 33.871883 31.790627 
L 33.738031 31.897618 
L 33.605894 32.00672 
L 33.475504 32.117905 
L 33.346895 32.231144 
L 33.220098 32.34641 
L 33.095147 32.463672 
L 32.972071 32.582903 
L 32.850903 32.704071 
L 32.731672 32.827147 
L 32.61441 32.952098 
L 32.499144 33.078895 
L 32.385905 33.207504 
L 32.27472 33.337894 
L 32.165618 33.470031 
L 32.058627 33.603883 
L 31.953772 33.739415 
L 31.851081 33.876594 
L 31.75058 34.015385 
L 31.652293 34.155753 
L 31.556246 34.297663 
L 31.462462 34.441079 
L 31.370965 34.585965 
L 31.281779 34.732284 
L 31.194926 34.88 
L 31.110427 35.029075 
L 31.028304 35.179472 
L 30.948577 35.331154 
L 30.871267 35.484081 
L 30.796393 35.638215 
L 30.723974 35.793518 
L 30.654029 35.94995 
L 30.586574 36.107473 
L 30.521626 36.266045 
L 30.459203 36.425629 
L 30.39932 36.586182 
L 30.341991 36.747666 
L 30.287232 36.910039 
L 30.235056 37.07326 
L 30.185476 37.237288 
L 30.138505 37.402083 
L 30.094154 37.567602 
L 30.052435 37.733803 
L 30.013358 37.900646 
L 29.976934 38.068088 
L 29.94317 38.236087 
L 29.912076 38.4046 
L 29.88366 38.573585 
L 29.857928 38.743 
L 29.834888 38.912802 
L 29.814545 39.082947 
L 29.796903 39.253395 
L 29.781968 39.4241 
L 29.769744 39.595022 
L 29.760233 39.766115 
L 29.753437 39.937338 
L 29.749359 40.108648 
L 29.748 40.28 
L 29.748 83.84 
L 29.749359 84.011352 
L 29.753437 84.182662 
L 29.760233 84.353885 
L 29.769744 84.524978 
L 29.781968 84.6959 
L 29.796903 84.866605 
L 29.814545 85.037053 
L 29.834888 85.207198 
L 29.857928 85.377 
L 29.88366 85.546415 
L 29.912076 85.7154 
L 29.94317 85.883913 
L 29.976934 86.051912 
L 30.013358 86.219354 
L 30.052435 86.386197 
L 30.094154 86.552398 
L 30.138505 86.717917 
L 30.185476 86.882712 
L 30.235056 87.04674 
L 30.287232 87.209961 
L 30.341991 87.372334 
L 30.39932 87.533818 
L 30.459203 87.694371 
L 30.521626 87.853955 
L 30.586574 88.012527 
L 30.654029 88.17005 
L 30.723974 88.326482 
L 30.796393 88.481785 
L 30.871267 88.635919 
L 30.948577 88.788846 
L 31.028304 88.940528 
L 31.110427 89.090925 
L 31.194926 89.24 
L 31.281779 89.387716 
L 31.370965 89.534035 
L 31.462462 89.678921 
L 31.556246 89.822337 
L 31.652293 89.964247 
L 31.75058 90.104615 
L 31.851081 90.243406 
L 31.953772 90.380585 
L 32.058627 90.516117 
L 32.165618 90.649969 
L 32.27472 90.782106 
L 32.385905 90.912496 
L 32.499144 91.041105 
L 32.61441 91.167902 
L 32.731672 91.292853 
L 32.850903 91.415929 
L 32.972071 91.537097 
L 33.095147 91.656328 
L 33.220098 91.77359 
L 33.346895 91.888856 
L 33.475504 92.002095 
L 33.605894 92.11328 
L 33.738031 92.222382 
L 33.871883 92.329373 
L 34.007415 92.434228 
L 34.144594 92.536919 
L 34.283385 92.63742 
L 34.423753 92.735707 
L 34.565663 92.831754 
L 34.709079 92.925538 
L 34.853965 93.017035 
L 35.000284 93.106221 
L 35.148 93.193074 
L 35.297075 93.277573 
L 35.447472 93.359696 
L 35.599154 93.439423 
L 35.752081 93.516733 
L 35.906215 93.591607 
L 36.061518 93.664026 
L 36.21795 93.733971 
L 36.375473 93.801426 
L 36.534045 93.866374 
L 36.693629 93.928797 
L 36.854182 93.98868 
L 37.015666 94.046009 
L 37.178039 94.100768 
L 37.34126 94.152944 
L 37.505288 94.202524 
L 37.670083 94.249495 
L 37.835602 94.293846 
L 38.001803 94.335565 
L 38.168646 94.374642 
L 38.336088 94.411066 
L 38.504087 94.44483 
L 38.6726 94.475924 
L 38.841585 94.50434 
L 39.011 94.530072 
L 39.180802 94.553112 
L 39.350947 94.573455 
L 39.521395 94.591097 
L 39.6921 94.606032 
L 39.863022 94.618256 
L 40.034115 94.627767 
L 40.205338 94.634563 
L 40.376648 94.638641 
L 40.548 94.64 
L 53.208 94.64 
z
" clip-path="url(#p3cbc13ec89)" style="fill: none; stroke-dasharray: 5.55,2.4; stroke-dashoffset: 0; stroke: #008000; stroke-width: 1.5; stroke-linecap: round"/>
   </g>
   <g id="patch_3">
    <path d="M 53.208 198.44 
L 53.379352 198.438641 
L 53.550662 198.434563 
L 53.721885 198.427767 
L 53.892978 198.418256 
L 54.0639 198.406032 
L 54.234605 198.391097 
L 54.405053 198.373455 
L 54.575198 198.353112 
L 54.745 198.330072 
L 54.914415 198.30434 
L 55.0834 198.275924 
L 55.251913 198.24483 
L 55.419912 198.211066 
L 55.587354 198.174642 
L 55.754197 198.135565 
L 55.920398 198.093846 
L 56.085917 198.049495 
L 56.250712 198.002524 
L 56.41474 197.952944 
L 56.577961 197.900768 
L 56.740334 197.846009 
L 56.901818 197.78868 
L 57.062371 197.728797 
L 57.221955 197.666374 
L 57.380527 197.601426 
L 57.53805 197.533971 
L 57.694482 197.464026 
L 57.849785 197.391607 
L 58.003919 197.316733 
L 58.156846 197.239423 
L 58.308528 197.159696 
L 58.458925 197.077573 
L 58.608 196.993074 
L 58.755716 196.906221 
L 58.902035 196.817035 
L 59.046921 196.725538 
L 59.190337 196.631754 
L 59.332247 196.535707 
L 59.472615 196.43742 
L 59.611406 196.336919 
L 59.748585 196.234228 
L 59.884117 196.129373 
L 60.017969 196.022382 
L 60.150106 195.91328 
L 60.280496 195.802095 
L 60.409105 195.688856 
L 60.535902 195.57359 
L 60.660853 195.456328 
L 60.783929 195.337097 
L 60.905097 195.215929 
L 61.024328 195.092853 
L 61.14159 194.967902 
L 61.256856 194.841105 
L 61.370095 194.712496 
L 61.48128 194.582106 
L 61.590382 194.449969 
L 61.697373 194.316117 
L 61.802228 194.180585 
L 61.904919 194.043406 
L 62.00542 193.904615 
L 62.103707 193.764247 
L 62.199754 193.622337 
L 62.293538 193.478921 
L 62.385035 193.334035 
L 62.474221 193.187716 
L 62.561074 193.04 
L 62.645573 192.890925 
L 62.727696 192.740528 
L 62.807423 192.588846 
L 62.884733 192.435919 
L 62.959607 192.281785 
L 63.032026 192.126482 
L 63.101971 191.97005 
L 63.169426 191.812527 
L 63.234374 191.653955 
L 63.296797 191.494371 
L 63.35668 191.333818 
L 63.414009 191.172334 
L 63.468768 191.009961 
L 63.520944 190.84674 
L 63.570524 190.682712 
L 63.617495 190.517917 
L 63.661846 190.352398 
L 63.703565 190.186197 
L 63.742642 190.019354 
L 63.779066 189.851912 
L 63.81283 189.683913 
L 63.843924 189.5154 
L 63.87234 189.346415 
L 63.898072 189.177 
L 63.921112 189.007198 
L 63.941455 188.837053 
L 63.959097 188.666605 
L 63.974032 188.4959 
L 63.986256 188.324978 
L 63.995767 188.153885 
L 64.002563 187.982662 
L 64.006641 187.811352 
L 64.008 187.64 
L 64.008 144.08 
L 64.006641 143.908648 
L 64.002563 143.737338 
L 63.995767 143.566115 
L 63.986256 143.395022 
L 63.974032 143.2241 
L 63.959097 143.053395 
L 63.941455 142.882947 
L 63.921112 142.712802 
L 63.898072 142.543 
L 63.87234 142.373585 
L 63.843924 142.2046 
L 63.81283 142.036087 
L 63.779066 141.868088 
L 63.742642 141.700646 
L 63.703565 141.533803 
L 63.661846 141.367602 
L 63.617495 141.202083 
L 63.570524 141.037288 
L 63.520944 140.87326 
L 63.468768 140.710039 
L 63.414009 140.547666 
L 63.35668 140.386182 
L 63.296797 140.225629 
L 63.234374 140.066045 
L 63.169426 139.907473 
L 63.101971 139.74995 
L 63.032026 139.593518 
L 62.959607 139.438215 
L 62.884733 139.284081 
L 62.807423 139.131154 
L 62.727696 138.979472 
L 62.645573 138.829075 
L 62.561074 138.68 
L 62.474221 138.532284 
L 62.385035 138.385965 
L 62.293538 138.241079 
L 62.199754 138.097663 
L 62.103707 137.955753 
L 62.00542 137.815385 
L 61.904919 137.676594 
L 61.802228 137.539415 
L 61.697373 137.403883 
L 61.590382 137.270031 
L 61.48128 137.137894 
L 61.370095 137.007504 
L 61.256856 136.878895 
L 61.14159 136.752098 
L 61.024328 136.627147 
L 60.905097 136.504071 
L 60.783929 136.382903 
L 60.660853 136.263672 
L 60.535902 136.14641 
L 60.409105 136.031144 
L 60.280496 135.917905 
L 60.150106 135.80672 
L 60.017969 135.697618 
L 59.884117 135.590627 
L 59.748585 135.485772 
L 59.611406 135.383081 
L 59.472615 135.28258 
L 59.332247 135.184293 
L 59.190337 135.088246 
L 59.046921 134.994462 
L 58.902035 134.902965 
L 58.755716 134.813779 
L 58.608 134.726926 
L 58.458925 134.642427 
L 58.308528 134.560304 
L 58.156846 134.480577 
L 58.003919 134.403267 
L 57.849785 134.328393 
L 57.694482 134.255974 
L 57.53805 134.186029 
L 57.380527 134.118574 
L 57.221955 134.053626 
L 57.062371 133.991203 
L 56.901818 133.93132 
L 56.740334 133.873991 
L 56.577961 133.819232 
L 56.41474 133.767056 
L 56.250712 133.717476 
L 56.085917 133.670505 
L 55.920398 133.626154 
L 55.754197 133.584435 
L 55.587354 133.545358 
L 55.419912 133.508934 
L 55.251913 133.47517 
L 55.0834 133.444076 
L 54.914415 133.41566 
L 54.745 133.389928 
L 54.575198 133.366888 
L 54.405053 133.346545 
L 54.234605 133.328903 
L 54.0639 133.313968 
L 53.892978 133.301744 
L 53.721885 133.292233 
L 53.550662 133.285437 
L 53.379352 133.281359 
L 53.208 133.28 
L 40.548 133.28 
L 40.376648 133.281359 
L 40.205338 133.285437 
L 40.034115 133.292233 
L 39.863022 133.301744 
L 39.6921 133.313968 
L 39.521395 133.328903 
L 39.350947 133.346545 
L 39.180802 133.366888 
L 39.011 133.389928 
L 38.841585 133.41566 
L 38.6726 133.444076 
L 38.504087 133.47517 
L 38.336088 133.508934 
L 38.168646 133.545358 
L 38.001803 133.584435 
L 37.835602 133.626154 
L 37.670083 133.670505 
L 37.505288 133.717476 
L 37.34126 133.767056 
L 37.178039 133.819232 
L 37.015666 133.873991 
L 36.854182 133.93132 
L 36.693629 133.991203 
L 36.534045 134.053626 
L 36.375473 134.118574 
L 36.21795 134.186029 
L 36.061518 134.255974 
L 35.906215 134.328393 
L 35.752081 134.403267 
L 35.599154 134.480577 
L 35.447472 134.560304 
L 35.297075 134.642427 
L 35.148 134.726926 
L 35.000284 134.813779 
L 34.853965 134.902965 
L 34.709079 134.994462 
L 34.565663 135.088246 
L 34.423753 135.184293 
L 34.283385 135.28258 
L 34.144594 135.383081 
L 34.007415 135.485772 
L 33.871883 135.590627 
L 33.738031 135.697618 
L 33.605894 135.80672 
L 33.475504 135.917905 
L 33.346895 136.031144 
L 33.220098 136.14641 
L 33.095147 136.263672 
L 32.972071 136.382903 
L 32.850903 136.504071 
L 32.731672 136.627147 
L 32.61441 136.752098 
L 32.499144 136.878895 
L 32.385905 137.007504 
L 32.27472 137.137894 
L 32.165618 137.270031 
L 32.058627 137.403883 
L 31.953772 137.539415 
L 31.851081 137.676594 
L 31.75058 137.815385 
L 31.652293 137.955753 
L 31.556246 138.097663 
L 31.462462 138.241079 
L 31.370965 138.385965 
L 31.281779 138.532284 
L 31.194926 138.68 
L 31.110427 138.829075 
L 31.028304 138.979472 
L 30.948577 139.131154 
L 30.871267 139.284081 
L 30.796393 139.438215 
L 30.723974 139.593518 
L 30.654029 139.74995 
L 30.586574 139.907473 
L 30.521626 140.066045 
L 30.459203 140.225629 
L 30.39932 140.386182 
L 30.341991 140.547666 
L 30.287232 140.710039 
L 30.235056 140.87326 
L 30.185476 141.037288 
L 30.138505 141.202083 
L 30.094154 141.367602 
L 30.052435 141.533803 
L 30.013358 141.700646 
L 29.976934 141.868088 
L 29.94317 142.036087 
L 29.912076 142.2046 
L 29.88366 142.373585 
L 29.857928 142.543 
L 29.834888 142.712802 
L 29.814545 142.882947 
L 29.796903 143.053395 
L 29.781968 143.2241 
L 29.769744 143.395022 
L 29.760233 143.566115 
L 29.753437 143.737338 
L 29.749359 143.908648 
L 29.748 144.08 
L 29.748 187.64 
L 29.749359 187.811352 
L 29.753437 187.982662 
L 29.760233 188.153885 
L 29.769744 188.324978 
L 29.781968 188.4959 
L 29.796903 188.666605 
L 29.814545 188.837053 
L 29.834888 189.007198 
L 29.857928 189.177 
L 29.88366 189.346415 
L 29.912076 189.5154 
L 29.94317 189.683913 
L 29.976934 189.851912 
L 30.013358 190.019354 
L 30.052435 190.186197 
L 30.094154 190.352398 
L 30.138505 190.517917 
L 30.185476 190.682712 
L 30.235056 190.84674 
L 30.287232 191.009961 
L 30.341991 191.172334 
L 30.39932 191.333818 
L 30.459203 191.494371 
L 30.521626 191.653955 
L 30.586574 191.812527 
L 30.654029 191.97005 
L 30.723974 192.126482 
L 30.796393 192.281785 
L 30.871267 192.435919 
L 30.948577 192.588846 
L 31.028304 192.740528 
L 31.110427 192.890925 
L 31.194926 193.04 
L 31.281779 193.187716 
L 31.370965 193.334035 
L 31.462462 193.478921 
L 31.556246 193.622337 
L 31.652293 193.764247 
L 31.75058 193.904615 
L 31.851081 194.043406 
L 31.953772 194.180585 
L 32.058627 194.316117 
L 32.165618 194.449969 
L 32.27472 194.582106 
L 32.385905 194.712496 
L 32.499144 194.841105 
L 32.61441 194.967902 
L 32.731672 195.092853 
L 32.850903 195.215929 
L 32.972071 195.337097 
L 33.095147 195.456328 
L 33.220098 195.57359 
L 33.346895 195.688856 
L 33.475504 195.802095 
L 33.605894 195.91328 
L 33.738031 196.022382 
L 33.871883 196.129373 
L 34.007415 196.234228 
L 34.144594 196.336919 
L 34.283385 196.43742 
L 34.423753 196.535707 
L 34.565663 196.631754 
L 34.709079 196.725538 
L 34.853965 196.817035 
L 35.000284 196.906221 
L 35.148 196.993074 
L 35.297075 197.077573 
L 35.447472 197.159696 
L 35.599154 197.239423 
L 35.752081 197.316733 
L 35.906215 197.391607 
L 36.061518 197.464026 
L 36.21795 197.533971 
L 36.375473 197.601426 
L 36.534045 197.666374 
L 36.693629 197.728797 
L 36.854182 197.78868 
L 37.015666 197.846009 
L 37.178039 197.900768 
L 37.34126 197.952944 
L 37.505288 198.002524 
L 37.670083 198.049495 
L 37.835602 198.093846 
L 38.001803 198.135565 
L 38.168646 198.174642 
L 38.336088 198.211066 
L 38.504087 198.24483 
L 38.6726 198.275924 
L 38.841585 198.30434 
L 39.011 198.330072 
L 39.180802 198.353112 
L 39.350947 198.373455 
L 39.521395 198.391097 
L 39.6921 198.406032 
L 39.863022 198.418256 
L 40.034115 198.427767 
L 40.205338 198.434563 
L 40.376648 198.438641 
L 40.548 198.44 
L 53.208 198.44 
z
" clip-path="url(#p3cbc13ec89)" style="fill: none; stroke-dasharray: 5.55,2.4; stroke-dashoffset: 0; stroke: #008000; stroke-width: 1.5; stroke-linecap: round"/>
   </g>
   <g id="patch_4">
    <path d="M 68.508 62.06 
C 104.508 62.06 77.508 18.86 118.008 18.86 
" clip-path="url(#p3cbc13ec89)" style="fill: none; stroke: #008000; stroke-width: 2; stroke-linejoin: miter; stroke-linecap: round"/>
   </g>
   <g id="patch_5">
    <path d="M 73.008 65.66 
L 64.008 62.06 
L 73.008 58.46 
z
" clip-path="url(#p3cbc13ec89)" style="fill: #008000"/>
   </g>
   <g id="patch_6">
    <path d="M 68.508 165.86 
C 104.508 165.86 77.508 209.06 118.008 209.06 
" clip-path="url(#p3cbc13ec89)" style="fill: none; stroke: #008000; stroke-width: 2; stroke-linejoin: miter; stroke-linecap: round"/>
   </g>
   <g id="patch_7">
    <path d="M 73.008 169.46 
L 64.008 165.86 
L 73.008 162.26 
z
" clip-path="url(#p3cbc13ec89)" style="fill: #008000"/>
   </g>
   <g id="line2d_1">
    <path d="M 33.348 61.76 
L 46.548 61.76 
" clip-path="url(#p3cbc13ec89)" style="fill: none; stroke: #000000; stroke-width: 2; stroke-linecap: round"/>
   </g>
   <g id="line2d_2">
    <path d="M 46.548 48.56 
L 46.548 74.96 
" clip-path="url(#p3cbc13ec89)" style="fill: none; stroke: #000000; stroke-width: 2; stroke-linecap: round"/>
   </g>
   <g id="line2d_3">
    <path d="M 46.548 55.16 
L 60.408 43.28 
L 60.408 36.68 
" clip-path="url(#p3cbc13ec89)" style="fill: none; stroke: #000000; stroke-width: 2; stroke-linecap: round"/>
   </g>
   <g id="line2d_4">
    <path d="M 46.548 68.36 
L 60.408 80.24 
L 60.408 86.84 
" clip-path="url(#p3cbc13ec89)" style="fill: none; stroke: #000000; stroke-width: 2; stroke-linecap: round"/>
   </g>
   <g id="line2d_5">
    <path d="M 46.548 68.36 
L 53.574691 74.382878 
" clip-path="url(#p3cbc13ec89)" style="fill: none; stroke: #000000; stroke-width: 2; stroke-linecap: round"/>
   </g>
   <g id="patch_8">
    <path d="M 55.91754 71.649554 
L 60.408 80.24 
L 51.231842 77.116201 
z
" clip-path="url(#p3cbc13ec89)"/>
   </g>
   <g id="line2d_6">
    <path d="M 33.348 61.76 
L 33.348 88.76 
L 33.348 115.76 
" clip-path="url(#p3cbc13ec89)" style="fill: none; stroke: #000000; stroke-width: 2; stroke-linecap: round"/>
   </g>
   <g id="line2d_7">
    <path d="M 33.348 115.76 
L 33.348 140.96 
L 33.348 166.16 
" clip-path="url(#p3cbc13ec89)" style="fill: none; stroke: #000000; stroke-width: 2; stroke-linecap: round"/>
   </g>
   <g id="line2d_8">
    <path d="M 33.348 166.16 
L 46.548 166.16 
" clip-path="url(#p3cbc13ec89)" style="fill: none; stroke: #000000; stroke-width: 2; stroke-linecap: round"/>
   </g>
   <g id="line2d_9">
    <path d="M 46.548 152.96 
L 46.548 179.36 
" clip-path="url(#p3cbc13ec89)" style="fill: none; stroke: #000000; stroke-width: 2; stroke-linecap: round"/>
   </g>
   <g id="line2d_10">
    <path d="M 46.548 159.56 
L 60.408 147.68 
L 60.408 141.08 
" clip-path="url(#p3cbc13ec89)" style="fill: none; stroke: #000000; stroke-width: 2; stroke-linecap: round"/>
   </g>
   <g id="line2d_11">
    <path d="M 46.548 172.76 
L 60.408 184.64 
L 60.408 191.24 
" clip-path="url(#p3cbc13ec89)" style="fill: none; stroke: #000000; stroke-width: 2; stroke-linecap: round"/>
   </g>
   <g id="line2d_12">
    <path d="M 60.408 147.68 
L 53.381309 153.702878 
" clip-path="url(#p3cbc13ec89)" style="fill: none; stroke: #000000; stroke-width: 2; stroke-linecap: round"/>
   </g>
   <g id="patch_9">
    <path d="M 55.724158 156.436201 
L 46.548 159.56 
L 51.03846 150.969554 
z
" clip-path="url(#p3cbc13ec89)"/>
   </g>
   <g id="line2d_13">
    <path d="M 60.408 36.68 
L 60.408 22.28 
" clip-path="url(#p3cbc13ec89)" style="fill: none; stroke: #000000; stroke-width: 2; stroke-linecap: round"/>
   </g>
   <g id="line2d_14">
    <path d="M 60.408 22.28 
L 53.658 22.28 
" clip-path="url(#p3cbc13ec89)" style="fill: none; stroke: #000000; stroke-width: 2; stroke-linecap: round"/>
   </g>
   <g id="line2d_15">
    <path d="M 60.408 22.28 
L 67.158 22.28 
" clip-path="url(#p3cbc13ec89)" style="fill: none; stroke: #000000; stroke-width: 2; stroke-linecap: round"/>
   </g>
   <g id="line2d_16">
    <path d="M 33.348 115.76 
L 24.348 115.76 
L 15.348 115.76 
" clip-path="url(#p3cbc13ec89)" style="fill: none; stroke: #000000; stroke-width: 2; stroke-linecap: round"/>
   </g>
   <g id="line2d_17">
    <path d="M 60.408 86.84 
L 60.408 92.24 
L 60.408 97.64 
" clip-path="url(#p3cbc13ec89)" style="fill: none; stroke: #000000; stroke-width: 2; stroke-linecap: round"/>
   </g>
   <g id="line2d_18">
    <path d="M 60.408 97.64 
L 60.408 119.36 
L 60.408 141.08 
" clip-path="url(#p3cbc13ec89)" style="fill: none; stroke: #000000; stroke-width: 2; stroke-linecap: round"/>
   </g>
   <g id="line2d_19">
    <path d="M 60.408 191.24 
L 60.408 205.64 
" clip-path="url(#p3cbc13ec89)" style="fill: none; stroke: #000000; stroke-width: 2; stroke-linecap: round"/>
   </g>
   <g id="line2d_20">
    <path d="M 60.408 205.64 
L 53.658 205.64 
" clip-path="url(#p3cbc13ec89)" style="fill: none; stroke: #000000; stroke-width: 2; stroke-linecap: round"/>
   </g>
   <g id="line2d_21">
    <path d="M 60.408 205.64 
L 67.158 205.64 
" clip-path="url(#p3cbc13ec89)" style="fill: none; stroke: #000000; stroke-width: 2; stroke-linecap: round"/>
   </g>
   <g id="line2d_22">
    <path d="M 60.408 97.64 
L 87.408 97.64 
L 114.408 97.64 
" clip-path="url(#p3cbc13ec89)" style="fill: none; stroke: #000000; stroke-width: 2; stroke-linecap: round"/>
   </g>
   <g id="line2d_23">
    <path d="M 114.408 97.64 
L 114.408 106.64 
L 123.408 109.64 
L 105.408 115.64 
L 123.408 121.64 
L 105.408 127.64 
L 123.408 133.64 
L 105.408 139.64 
L 114.408 142.64 
L 114.408 151.64 
" clip-path="url(#p3cbc13ec89)" style="fill: none; stroke: #000000; stroke-width: 2; stroke-linecap: round"/>
   </g>
   <g id="line2d_24">
    <path d="M 114.408 151.64 
L 114.408 166.04 
L 105.408 166.04 
L 123.408 166.04 
M 108.108 170.36 
L 120.708 170.36 
M 112.608 174.68 
L 116.208 174.68 
" clip-path="url(#p3cbc13ec89)" style="fill: none; stroke: #000000; stroke-width: 2; stroke-linecap: round"/>
   </g>
   <g id="line2d_25">
    <path d="M 114.408 97.64 
L 123.408 97.64 
L 132.408 97.64 
" clip-path="url(#p3cbc13ec89)" style="fill: none; stroke: #000000; stroke-width: 2; stroke-linecap: round"/>
   </g>
   <g id="text_1">
    <!-- $V_{DD}$ -->
    <g transform="translate(47.878 15.768438) scale(0.14 -0.14)">
     <defs>
      <path id="DejaVuSans-Oblique-56" d="M 1319 0 
L 500 4666 
L 1119 4666 
L 1797 653 
L 4063 4666 
L 4750 4666 
L 2053 0 
L 1319 0 
z
" transform="scale(0.015625)"/>
      <path id="DejaVuSans-Oblique-44" d="M 1081 4666 
L 2438 4666 
Q 3519 4666 4070 4208 
Q 4622 3750 4622 2847 
Q 4622 2250 4412 1698 
Q 4203 1147 3834 769 
Q 3463 381 2891 190 
Q 2319 0 1538 0 
L 172 0 
L 1081 4666 
z
M 1613 4147 
L 909 519 
L 1734 519 
Q 2794 519 3375 1128 
Q 3956 1738 3956 2847 
Q 3956 3519 3581 3833 
Q 3206 4147 2406 4147 
L 1613 4147 
z
" transform="scale(0.015625)"/>
     </defs>
     <use xlink:href="#DejaVuSans-Oblique-56" transform="translate(0 0.09375)"/>
     <use xlink:href="#DejaVuSans-Oblique-44" transform="translate(68.408203 -16.3125) scale(0.7)"/>
     <use xlink:href="#DejaVuSans-Oblique-44" transform="translate(122.30957 -16.3125) scale(0.7)"/>
    </g>
   </g>
   <g id="text_2">
    <!-- $-V_{DD}$ -->
    <g transform="translate(41.998 219.877813) scale(0.14 -0.14)">
     <defs>
      <path id="DejaVuSans-2212" d="M 678 2272 
L 4684 2272 
L 4684 1741 
L 678 1741 
L 678 2272 
z
" transform="scale(0.015625)"/>
     </defs>
     <use xlink:href="#DejaVuSans-2212" transform="translate(0 0.09375)"/>
     <use xlink:href="#DejaVuSans-Oblique-56" transform="translate(83.789062 0.09375)"/>
     <use xlink:href="#DejaVuSans-Oblique-44" transform="translate(152.197266 -16.3125) scale(0.7)"/>
     <use xlink:href="#DejaVuSans-Oblique-44" transform="translate(206.098633 -16.3125) scale(0.7)"/>
    </g>
   </g>
   <g id="text_3">
    <!-- $R_L$ -->
    <g transform="translate(86.128 128.503125) scale(0.14 -0.14)">
     <defs>
      <path id="DejaVuSans-Oblique-52" d="M 1613 4147 
L 1294 2491 
L 2106 2491 
Q 2584 2491 2879 2755 
Q 3175 3019 3175 3444 
Q 3175 3784 2976 3965 
Q 2778 4147 2406 4147 
L 1613 4147 
z
M 2772 2241 
Q 2972 2194 3105 2009 
Q 3238 1825 3413 1275 
L 3809 0 
L 3144 0 
L 2778 1197 
Q 2638 1659 2453 1815 
Q 2269 1972 1888 1972 
L 1191 1972 
L 806 0 
L 172 0 
L 1081 4666 
L 2503 4666 
Q 3150 4666 3495 4373 
Q 3841 4081 3841 3531 
Q 3841 3044 3547 2687 
Q 3253 2331 2772 2241 
z
" transform="scale(0.015625)"/>
      <path id="DejaVuSans-Oblique-4c" d="M 1075 4666 
L 1709 4666 
L 909 525 
L 3181 525 
L 3078 0 
L 172 0 
L 1075 4666 
z
" transform="scale(0.015625)"/>
     </defs>
     <use xlink:href="#DejaVuSans-Oblique-52" transform="translate(0 0.09375)"/>
     <use xlink:href="#DejaVuSans-Oblique-4c" transform="translate(69.482422 -16.3125) scale(0.7)"/>
    </g>
   </g>
   <g id="text_4">
    <!-- Pull-up -->
    <g style="fill: #008000" transform="translate(121.608 22.723125) scale(0.14 -0.14)">
     <defs>
      <path id="DejaVuSans-50" d="M 1259 4147 
L 1259 2394 
L 2053 2394 
Q 2494 2394 2734 2622 
Q 2975 2850 2975 3272 
Q 2975 3691 2734 3919 
Q 2494 4147 2053 4147 
L 1259 4147 
z
M 628 4666 
L 2053 4666 
Q 2838 4666 3239 4311 
Q 3641 3956 3641 3272 
Q 3641 2581 3239 2228 
Q 2838 1875 2053 1875 
L 1259 1875 
L 1259 0 
L 628 0 
L 628 4666 
z
" transform="scale(0.015625)"/>
      <path id="DejaVuSans-75" d="M 544 1381 
L 544 3500 
L 1119 3500 
L 1119 1403 
Q 1119 906 1312 657 
Q 1506 409 1894 409 
Q 2359 409 2629 706 
Q 2900 1003 2900 1516 
L 2900 3500 
L 3475 3500 
L 3475 0 
L 2900 0 
L 2900 538 
Q 2691 219 2414 64 
Q 2138 -91 1772 -91 
Q 1169 -91 856 284 
Q 544 659 544 1381 
z
M 1991 3584 
L 1991 3584 
z
" transform="scale(0.015625)"/>
      <path id="DejaVuSans-6c" d="M 603 4863 
L 1178 4863 
L 1178 0 
L 603 0 
L 603 4863 
z
" transform="scale(0.015625)"/>
      <path id="DejaVuSans-2d" d="M 313 2009 
L 1997 2009 
L 1997 1497 
L 313 1497 
L 313 2009 
z
" transform="scale(0.015625)"/>
      <path id="DejaVuSans-70" d="M 1159 525 
L 1159 -1331 
L 581 -1331 
L 581 3500 
L 1159 3500 
L 1159 2969 
Q 1341 3281 1617 3432 
Q 1894 3584 2278 3584 
Q 2916 3584 3314 3078 
Q 3713 2572 3713 1747 
Q 3713 922 3314 415 
Q 2916 -91 2278 -91 
Q 1894 -91 1617 61 
Q 1341 213 1159 525 
z
M 3116 1747 
Q 3116 2381 2855 2742 
Q 2594 3103 2138 3103 
Q 1681 3103 1420 2742 
Q 1159 2381 1159 1747 
Q 1159 1113 1420 752 
Q 1681 391 2138 391 
Q 2594 391 2855 752 
Q 3116 1113 3116 1747 
z
" transform="scale(0.015625)"/>
     </defs>
     <use xlink:href="#DejaVuSans-50"/>
     <use xlink:href="#DejaVuSans-75" transform="translate(58.552734 0)"/>
     <use xlink:href="#DejaVuSans-6c" transform="translate(121.931641 0)"/>
     <use xlink:href="#DejaVuSans-6c" transform="translate(149.714844 0)"/>
     <use xlink:href="#DejaVuSans-2d" transform="translate(177.498047 0)"/>
     <use xlink:href="#DejaVuSans-75" transform="translate(213.582031 0)"/>
     <use xlink:href="#DejaVuSans-70" transform="translate(276.960938 0)"/>
    </g>
   </g>
   <g id="text_5">
    <!-- Pull-down -->
    <g style="fill: #008000" transform="translate(121.608 212.923125) scale(0.14 -0.14)">
     <defs>
      <path id="DejaVuSans-64" d="M 2906 2969 
L 2906 4863 
L 3481 4863 
L 3481 0 
L 2906 0 
L 2906 525 
Q 2725 213 2448 61 
Q 2172 -91 1784 -91 
Q 1150 -91 751 415 
Q 353 922 353 1747 
Q 353 2572 751 3078 
Q 1150 3584 1784 3584 
Q 2172 3584 2448 3432 
Q 2725 3281 2906 2969 
z
M 947 1747 
Q 947 1113 1208 752 
Q 1469 391 1925 391 
Q 2381 391 2643 752 
Q 2906 1113 2906 1747 
Q 2906 2381 2643 2742 
Q 2381 3103 1925 3103 
Q 1469 3103 1208 2742 
Q 947 2381 947 1747 
z
" transform="scale(0.015625)"/>
      <path id="DejaVuSans-6f" d="M 1959 3097 
Q 1497 3097 1228 2736 
Q 959 2375 959 1747 
Q 959 1119 1226 758 
Q 1494 397 1959 397 
Q 2419 397 2687 759 
Q 2956 1122 2956 1747 
Q 2956 2369 2687 2733 
Q 2419 3097 1959 3097 
z
M 1959 3584 
Q 2709 3584 3137 3096 
Q 3566 2609 3566 1747 
Q 3566 888 3137 398 
Q 2709 -91 1959 -91 
Q 1206 -91 779 398 
Q 353 888 353 1747 
Q 353 2609 779 3096 
Q 1206 3584 1959 3584 
z
" transform="scale(0.015625)"/>
      <path id="DejaVuSans-77" d="M 269 3500 
L 844 3500 
L 1563 769 
L 2278 3500 
L 2956 3500 
L 3675 769 
L 4391 3500 
L 4966 3500 
L 4050 0 
L 3372 0 
L 2619 2869 
L 1863 0 
L 1184 0 
L 269 3500 
z
" transform="scale(0.015625)"/>
      <path id="DejaVuSans-6e" d="M 3513 2113 
L 3513 0 
L 2938 0 
L 2938 2094 
Q 2938 2591 2744 2837 
Q 2550 3084 2163 3084 
Q 1697 3084 1428 2787 
Q 1159 2491 1159 1978 
L 1159 0 
L 581 0 
L 581 3500 
L 1159 3500 
L 1159 2956 
Q 1366 3272 1645 3428 
Q 1925 3584 2291 3584 
Q 2894 3584 3203 3211 
Q 3513 2838 3513 2113 
z
" transform="scale(0.015625)"/>
     </defs>
     <use xlink:href="#DejaVuSans-50"/>
     <use xlink:href="#DejaVuSans-75" transform="translate(58.552734 0)"/>
     <use xlink:href="#DejaVuSans-6c" transform="translate(121.931641 0)"/>
     <use xlink:href="#DejaVuSans-6c" transform="translate(149.714844 0)"/>
     <use xlink:href="#DejaVuSans-2d" transform="translate(177.498047 0)"/>
     <use xlink:href="#DejaVuSans-64" transform="translate(213.582031 0)"/>
     <use xlink:href="#DejaVuSans-6f" transform="translate(277.058594 0)"/>
     <use xlink:href="#DejaVuSans-77" transform="translate(338.240234 0)"/>
     <use xlink:href="#DejaVuSans-6e" transform="translate(420.027344 0)"/>
    </g>
   </g>
   <g id="patch_10">
    <path d="M 33.348 118.46 
C 34.064048 118.46 34.750866 118.175511 35.257188 117.669188 
C 35.763511 117.162866 36.048 116.476048 36.048 115.76 
C 36.048 115.043952 35.763511 114.357134 35.257188 113.850812 
C 34.750866 113.344489 34.064048 113.06 33.348 113.06 
C 32.631952 113.06 31.945134 113.344489 31.438812 113.850812 
C 30.932489 114.357134 30.648 115.043952 30.648 115.76 
C 30.648 116.476048 30.932489 117.162866 31.438812 117.669188 
C 31.945134 118.175511 32.631952 118.46 33.348 118.46 
z
" clip-path="url(#p3cbc13ec89)" style="stroke: #000000; stroke-width: 2; stroke-linejoin: miter"/>
   </g>
   <g id="patch_11">
    <path d="M 15.348 118.46 
C 16.064048 118.46 16.750866 118.175511 17.257188 117.669188 
C 17.763511 117.162866 18.048 116.476048 18.048 115.76 
C 18.048 115.043952 17.763511 114.357134 17.257188 113.850812 
C 16.750866 113.344489 16.064048 113.06 15.348 113.06 
C 14.631952 113.06 13.945134 113.344489 13.438812 113.850812 
C 12.932489 114.357134 12.648 115.043952 12.648 115.76 
C 12.648 116.476048 12.932489 117.162866 13.438812 117.669188 
C 13.945134 118.175511 14.631952 118.46 15.348 118.46 
z
" clip-path="url(#p3cbc13ec89)" style="fill: #ffffff; stroke: #000000; stroke-width: 2; stroke-linejoin: miter"/>
   </g>
   <g id="text_6">
    <!-- $v_{in}$ -->
    <g transform="translate(6.528 106.548438) scale(0.14 -0.14)">
     <defs>
      <path id="DejaVuSans-Oblique-76" d="M 459 3500 
L 1069 3500 
L 1581 525 
L 3256 3500 
L 3866 3500 
L 1875 0 
L 1100 0 
L 459 3500 
z
" transform="scale(0.015625)"/>
      <path id="DejaVuSans-Oblique-69" d="M 1172 4863 
L 1747 4863 
L 1606 4134 
L 1031 4134 
L 1172 4863 
z
M 909 3500 
L 1484 3500 
L 800 0 
L 225 0 
L 909 3500 
z
" transform="scale(0.015625)"/>
      <path id="DejaVuSans-Oblique-6e" d="M 3566 2113 
L 3156 0 
L 2578 0 
L 2988 2091 
Q 3016 2238 3031 2350 
Q 3047 2463 3047 2528 
Q 3047 2791 2881 2937 
Q 2716 3084 2419 3084 
Q 1956 3084 1622 2776 
Q 1288 2469 1184 1941 
L 800 0 
L 225 0 
L 903 3500 
L 1478 3500 
L 1363 2950 
Q 1603 3253 1940 3418 
Q 2278 3584 2650 3584 
Q 3113 3584 3367 3334 
Q 3622 3084 3622 2631 
Q 3622 2519 3608 2391 
Q 3594 2263 3566 2113 
z
" transform="scale(0.015625)"/>
     </defs>
     <use xlink:href="#DejaVuSans-Oblique-76" transform="translate(0 0.3125)"/>
     <use xlink:href="#DejaVuSans-Oblique-69" transform="translate(59.179688 -16.09375) scale(0.7)"/>
     <use xlink:href="#DejaVuSans-Oblique-6e" transform="translate(78.62793 -16.09375) scale(0.7)"/>
    </g>
   </g>
   <g id="patch_12">
    <path d="M 60.408 100.34 
C 61.124048 100.34 61.810866 100.055511 62.317188 99.549188 
C 62.823511 99.042866 63.108 98.356048 63.108 97.64 
C 63.108 96.923952 62.823511 96.237134 62.317188 95.730812 
C 61.810866 95.224489 61.124048 94.94 60.408 94.94 
C 59.691952 94.94 59.005134 95.224489 58.498812 95.730812 
C 57.992489 96.237134 57.708 96.923952 57.708 97.64 
C 57.708 98.356048 57.992489 99.042866 58.498812 99.549188 
C 59.005134 100.055511 59.691952 100.34 60.408 100.34 
z
" clip-path="url(#p3cbc13ec89)" style="stroke: #000000; stroke-width: 2; stroke-linejoin: miter"/>
   </g>
   <g id="patch_13">
    <path d="M 132.408 100.34 
C 133.124048 100.34 133.810866 100.055511 134.317188 99.549188 
C 134.823511 99.042866 135.108 98.356048 135.108 97.64 
C 135.108 96.923952 134.823511 96.237134 134.317188 95.730812 
C 133.810866 95.224489 133.124048 94.94 132.408 94.94 
C 131.691952 94.94 131.005134 95.224489 130.498812 95.730812 
C 129.992489 96.237134 129.708 96.923952 129.708 97.64 
C 129.708 98.356048 129.992489 99.042866 130.498812 99.549188 
C 131.005134 100.055511 131.691952 100.34 132.408 100.34 
z
" clip-path="url(#p3cbc13ec89)" style="fill: #ffffff; stroke: #000000; stroke-width: 2; stroke-linejoin: miter"/>
   </g>
   <g id="text_7">
    <!-- $v_{out}$ -->
    <g transform="translate(120.018 88.428438) scale(0.14 -0.14)">
     <defs>
      <path id="DejaVuSans-Oblique-6f" d="M 1625 -91 
Q 1009 -91 651 289 
Q 294 669 294 1325 
Q 294 1706 417 2101 
Q 541 2497 738 2766 
Q 1047 3184 1428 3384 
Q 1809 3584 2291 3584 
Q 2888 3584 3255 3212 
Q 3622 2841 3622 2241 
Q 3622 1825 3500 1412 
Q 3378 1000 3181 728 
Q 2875 309 2494 109 
Q 2113 -91 1625 -91 
z
M 891 1344 
Q 891 869 1089 633 
Q 1288 397 1691 397 
Q 2269 397 2648 901 
Q 3028 1406 3028 2181 
Q 3028 2634 2825 2865 
Q 2622 3097 2228 3097 
Q 1903 3097 1650 2945 
Q 1397 2794 1197 2484 
Q 1050 2253 970 1956 
Q 891 1659 891 1344 
z
" transform="scale(0.015625)"/>
      <path id="DejaVuSans-Oblique-75" d="M 428 1388 
L 838 3500 
L 1416 3500 
L 1006 1409 
Q 975 1256 961 1147 
Q 947 1038 947 966 
Q 947 700 1109 554 
Q 1272 409 1569 409 
Q 2031 409 2368 721 
Q 2706 1034 2809 1563 
L 3194 3500 
L 3769 3500 
L 3091 0 
L 2516 0 
L 2631 550 
Q 2388 244 2052 76 
Q 1716 -91 1338 -91 
Q 878 -91 622 161 
Q 366 413 366 863 
Q 366 956 381 1097 
Q 397 1238 428 1388 
z
" transform="scale(0.015625)"/>
      <path id="DejaVuSans-Oblique-74" d="M 2706 3500 
L 2619 3053 
L 1472 3053 
L 1100 1153 
Q 1081 1047 1072 975 
Q 1063 903 1063 863 
Q 1063 663 1183 572 
Q 1303 481 1569 481 
L 2150 481 
L 2053 0 
L 1503 0 
Q 991 0 739 200 
Q 488 400 488 806 
Q 488 878 497 964 
Q 506 1050 525 1153 
L 897 3053 
L 409 3053 
L 500 3500 
L 978 3500 
L 1172 4494 
L 1747 4494 
L 1556 3500 
L 2706 3500 
z
" transform="scale(0.015625)"/>
     </defs>
     <use xlink:href="#DejaVuSans-Oblique-76" transform="translate(0 0.3125)"/>
     <use xlink:href="#DejaVuSans-Oblique-6f" transform="translate(59.179688 -16.09375) scale(0.7)"/>
     <use xlink:href="#DejaVuSans-Oblique-75" transform="translate(102.006836 -16.09375) scale(0.7)"/>
     <use xlink:href="#DejaVuSans-Oblique-74" transform="translate(146.37207 -16.09375) scale(0.7)"/>
    </g>
   </g>
  </g>
 </g>
 <defs>
  <clipPath id="p3cbc13ec89">
   <rect x="0" y="0" width="188.28" height="227.92"/>
  </clipPath>
 </defs>
</svg>