<?xml version="1.0" encoding="utf-8" standalone="no"?>
<!DOCTYPE svg PUBLIC "-//W3C//DTD SVG 1.1//EN"
  "http://www.w3.org/Graphics/SVG/1.1/DTD/svg11.dtd">
<svg xmlns:xlink="http://www.w3.org/1999/xlink" width="365.8075pt" height="372.708pt" viewBox="0 0 365.8075 372.708" xmlns="http://www.w3.org/2000/svg" version="1.1">
 <metadata>
  <rdf:RDF xmlns:dc="http://purl.org/dc/elements/1.1/" xmlns:cc="http://creativecommons.org/ns#" xmlns:rdf="http://www.w3.org/1999/02/22-rdf-syntax-ns#">
   <cc:Work>
    <dc:type rdf:resource="http://purl.org/dc/dcmitype/StillImage"/>
    <dc:date>2024-01-04T23:46:51.232940</dc:date>
    <dc:format>image/svg+xml</dc:format>
    <dc:creator>
     <cc:Agent>
      <dc:title>Matplotlib v3.8.2, https://matplotlib.org/</dc:title>
     </cc:Agent>
    </dc:creator>
   </cc:Work>
  </rdf:RDF>
 </metadata>
 <defs>
  <style type="text/css">*{stroke-linejoin: round; stroke-linecap: butt}</style>
 </defs>
 <g id="figure_1">
  <g id="patch_1">
   <path d="M 0 372.708 
L 365.8075 372.708 
L 365.8075 0 
L 0 0 
z
" style="fill: #ffffff"/>
  </g>
  <g id="axes_1">
   <g id="patch_2">
    <path d="M 220.9575 200.454 
L 221.128852 200.452641 
L 221.300162 200.448563 
L 221.471385 200.441767 
L 221.642478 200.432256 
L 221.8134 200.420032 
L 221.984105 200.405097 
L 222.154553 200.387455 
L 222.324698 200.367112 
L 222.4945 200.344072 
L 222.663915 200.31834 
L 222.8329 200.289924 
L 223.001413 200.25883 
L 223.169412 200.225066 
L 223.336854 200.188642 
L 223.503697 200.149565 
L 223.669898 200.107846 
L 223.835417 200.063495 
L 224.000212 200.016524 
L 224.16424 199.966944 
L 224.327461 199.914768 
L 224.489834 199.860009 
L 224.651318 199.80268 
L 224.811871 199.742797 
L 224.971455 199.680374 
L 225.130027 199.615426 
L 225.28755 199.547971 
L 225.443982 199.478026 
L 225.599285 199.405607 
L 225.753419 199.330733 
L 225.906346 199.253423 
L 226.058028 199.173696 
L 226.208425 199.091573 
L 226.3575 199.007074 
L 226.505216 198.920221 
L 226.651535 198.831035 
L 226.796421 198.739538 
L 226.939837 198.645754 
L 227.081747 198.549707 
L 227.222115 198.45142 
L 227.360906 198.350919 
L 227.498085 198.248228 
L 227.633617 198.143373 
L 227.767469 198.036382 
L 227.899606 197.92728 
L 228.029996 197.816095 
L 228.158605 197.702856 
L 228.285402 197.58759 
L 228.410353 197.470328 
L 228.533429 197.351097 
L 228.654597 197.229929 
L 228.773828 197.106853 
L 228.89109 196.981902 
L 229.006356 196.855105 
L 229.119595 196.726496 
L 229.23078 196.596106 
L 229.339882 196.463969 
L 229.446873 196.330117 
L 229.551728 196.194585 
L 229.654419 196.057406 
L 229.75492 195.918615 
L 229.853207 195.778247 
L 229.949254 195.636337 
L 230.043038 195.492921 
L 230.134535 195.348035 
L 230.223721 195.201716 
L 230.310574 195.054 
L 230.395073 194.904925 
L 230.477196 194.754528 
L 230.556923 194.602846 
L 230.634233 194.449919 
L 230.709107 194.295785 
L 230.781526 194.140482 
L 230.851471 193.98405 
L 230.918926 193.826527 
L 230.983874 193.667955 
L 231.046297 193.508371 
L 231.10618 193.347818 
L 231.163509 193.186334 
L 231.218268 193.023961 
L 231.270444 192.86074 
L 231.320024 192.696712 
L 231.366995 192.531917 
L 231.411346 192.366398 
L 231.453065 192.200197 
L 231.492142 192.033354 
L 231.528566 191.865912 
L 231.56233 191.697913 
L 231.593424 191.5294 
L 231.62184 191.360415 
L 231.647572 191.191 
L 231.670612 191.021198 
L 231.690955 190.851053 
L 231.708597 190.680605 
L 231.723532 190.5099 
L 231.735756 190.338978 
L 231.745267 190.167885 
L 231.752063 189.996662 
L 231.756141 189.825352 
L 231.7575 189.654 
L 231.7575 160.494 
L 231.756141 160.322648 
L 231.752063 160.151338 
L 231.745267 159.980115 
L 231.735756 159.809022 
L 231.723532 159.6381 
L 231.708597 159.467395 
L 231.690955 159.296947 
L 231.670612 159.126802 
L 231.647572 158.957 
L 231.62184 158.787585 
L 231.593424 158.6186 
L 231.56233 158.450087 
L 231.528566 158.282088 
L 231.492142 158.114646 
L 231.453065 157.947803 
L 231.411346 157.781602 
L 231.366995 157.616083 
L 231.320024 157.451288 
L 231.270444 157.28726 
L 231.218268 157.124039 
L 231.163509 156.961666 
L 231.10618 156.800182 
L 231.046297 156.639629 
L 230.983874 156.480045 
L 230.918926 156.321473 
L 230.851471 156.16395 
L 230.781526 156.007518 
L 230.709107 155.852215 
L 230.634233 155.698081 
L 230.556923 155.545154 
L 230.477196 155.393472 
L 230.395073 155.243075 
L 230.310574 155.094 
L 230.223721 154.946284 
L 230.134535 154.799965 
L 230.043038 154.655079 
L 229.949254 154.511663 
L 229.853207 154.369753 
L 229.75492 154.229385 
L 229.654419 154.090594 
L 229.551728 153.953415 
L 229.446873 153.817883 
L 229.339882 153.684031 
L 229.23078 153.551894 
L 229.119595 153.421504 
L 229.006356 153.292895 
L 228.89109 153.166098 
L 228.773828 153.041147 
L 228.654597 152.918071 
L 228.533429 152.796903 
L 228.410353 152.677672 
L 228.285402 152.56041 
L 228.158605 152.445144 
L 228.029996 152.331905 
L 227.899606 152.22072 
L 227.767469 152.111618 
L 227.633617 152.004627 
L 227.498085 151.899772 
L 227.360906 151.797081 
L 227.222115 151.69658 
L 227.081747 151.598293 
L 226.939837 151.502246 
L 226.796421 151.408462 
L 226.651535 151.316965 
L 226.505216 151.227779 
L 226.3575 151.140926 
L 226.208425 151.056427 
L 226.058028 150.974304 
L 225.906346 150.894577 
L 225.753419 150.817267 
L 225.599285 150.742393 
L 225.443982 150.669974 
L 225.28755 150.600029 
L 225.130027 150.532574 
L 224.971455 150.467626 
L 224.811871 150.405203 
L 224.651318 150.34532 
L 224.489834 150.287991 
L 224.327461 150.233232 
L 224.16424 150.181056 
L 224.000212 150.131476 
L 223.835417 150.084505 
L 223.669898 150.040154 
L 223.503697 149.998435 
L 223.336854 149.959358 
L 223.169412 149.922934 
L 223.001413 149.88917 
L 222.8329 149.858076 
L 222.663915 149.82966 
L 222.4945 149.803928 
L 222.324698 149.780888 
L 222.154553 149.760545 
L 221.984105 149.742903 
L 221.8134 149.727968 
L 221.642478 149.715744 
L 221.471385 149.706233 
L 221.300162 149.699437 
L 221.128852 149.695359 
L 220.9575 149.694 
L 215.4975 149.694 
L 215.326148 149.695359 
L 215.154838 149.699437 
L 214.983615 149.706233 
L 214.812522 149.715744 
L 214.6416 149.727968 
L 214.470895 149.742903 
L 214.300447 149.760545 
L 214.130302 149.780888 
L 213.9605 149.803928 
L 213.791085 149.82966 
L 213.6221 149.858076 
L 213.453587 149.88917 
L 213.285588 149.922934 
L 213.118146 149.959358 
L 212.951303 149.998435 
L 212.785102 150.040154 
L 212.619583 150.084505 
L 212.454788 150.131476 
L 212.29076 150.181056 
L 212.127539 150.233232 
L 211.965166 150.287991 
L 211.803682 150.34532 
L 211.643129 150.405203 
L 211.483545 150.467626 
L 211.324973 150.532574 
L 211.16745 150.600029 
L 211.011018 150.669974 
L 210.855715 150.742393 
L 210.701581 150.817267 
L 210.548654 150.894577 
L 210.396972 150.974304 
L 210.246575 151.056427 
L 210.0975 151.140926 
L 209.949784 151.227779 
L 209.803465 151.316965 
L 209.658579 151.408462 
L 209.515163 151.502246 
L 209.373253 151.598293 
L 209.232885 151.69658 
L 209.094094 151.797081 
L 208.956915 151.899772 
L 208.821383 152.004627 
L 208.687531 152.111618 
L 208.555394 152.22072 
L 208.425004 152.331905 
L 208.296395 152.445144 
L 208.169598 152.56041 
L 208.044647 152.677672 
L 207.921571 152.796903 
L 207.800403 152.918071 
L 207.681172 153.041147 
L 207.56391 153.166098 
L 207.448644 153.292895 
L 207.335405 153.421504 
L 207.22422 153.551894 
L 207.115118 153.684031 
L 207.008127 153.817883 
L 206.903272 153.953415 
L 206.800581 154.090594 
L 206.70008 154.229385 
L 206.601793 154.369753 
L 206.505746 154.511663 
L 206.411962 154.655079 
L 206.320465 154.799965 
L 206.231279 154.946284 
L 206.144426 155.094 
L 206.059927 155.243075 
L 205.977804 155.393472 
L 205.898077 155.545154 
L 205.820767 155.698081 
L 205.745893 155.852215 
L 205.673474 156.007518 
L 205.603529 156.16395 
L 205.536074 156.321473 
L 205.471126 156.480045 
L 205.408703 156.639629 
L 205.34882 156.800182 
L 205.291491 156.961666 
L 205.236732 157.124039 
L 205.184556 157.28726 
L 205.134976 157.451288 
L 205.088005 157.616083 
L 205.043654 157.781602 
L 205.001935 157.947803 
L 204.962858 158.114646 
L 204.926434 158.282088 
L 204.89267 158.450087 
L 204.861576 158.6186 
L 204.83316 158.787585 
L 204.807428 158.957 
L 204.784388 159.126802 
L 204.764045 159.296947 
L 204.746403 159.467395 
L 204.731468 159.6381 
L 204.719244 159.809022 
L 204.709733 159.980115 
L 204.702937 160.151338 
L 204.698859 160.322648 
L 204.6975 160.494 
L 204.6975 189.654 
L 204.698859 189.825352 
L 204.702937 189.996662 
L 204.709733 190.167885 
L 204.719244 190.338978 
L 204.731468 190.5099 
L 204.746403 190.680605 
L 204.764045 190.851053 
L 204.784388 191.021198 
L 204.807428 191.191 
L 204.83316 191.360415 
L 204.861576 191.5294 
L 204.89267 191.697913 
L 204.926434 191.865912 
L 204.962858 192.033354 
L 205.001935 192.200197 
L 205.043654 192.366398 
L 205.088005 192.531917 
L 205.134976 192.696712 
L 205.184556 192.86074 
L 205.236732 193.023961 
L 205.291491 193.186334 
L 205.34882 193.347818 
L 205.408703 193.508371 
L 205.471126 193.667955 
L 205.536074 193.826527 
L 205.603529 193.98405 
L 205.673474 194.140482 
L 205.745893 194.295785 
L 205.820767 194.449919 
L 205.898077 194.602846 
L 205.977804 194.754528 
L 206.059927 194.904925 
L 206.144426 195.054 
L 206.231279 195.201716 
L 206.320465 195.348035 
L 206.411962 195.492921 
L 206.505746 195.636337 
L 206.601793 195.778247 
L 206.70008 195.918615 
L 206.800581 196.057406 
L 206.903272 196.194585 
L 207.008127 196.330117 
L 207.115118 196.463969 
L 207.22422 196.596106 
L 207.335405 196.726496 
L 207.448644 196.855105 
L 207.56391 196.981902 
L 207.681172 197.106853 
L 207.800403 197.229929 
L 207.921571 197.351097 
L 208.044647 197.470328 
L 208.169598 197.58759 
L 208.296395 197.702856 
L 208.425004 197.816095 
L 208.555394 197.92728 
L 208.687531 198.036382 
L 208.821383 198.143373 
L 208.956915 198.248228 
L 209.094094 198.350919 
L 209.232885 198.45142 
L 209.373253 198.549707 
L 209.515163 198.645754 
L 209.658579 198.739538 
L 209.803465 198.831035 
L 209.949784 198.920221 
L 210.0975 199.007074 
L 210.246575 199.091573 
L 210.396972 199.173696 
L 210.548654 199.253423 
L 210.701581 199.330733 
L 210.855715 199.405607 
L 211.011018 199.478026 
L 211.16745 199.547971 
L 211.324973 199.615426 
L 211.483545 199.680374 
L 211.643129 199.742797 
L 211.803682 199.80268 
L 211.965166 199.860009 
L 212.127539 199.914768 
L 212.29076 199.966944 
L 212.454788 200.016524 
L 212.619583 200.063495 
L 212.785102 200.107846 
L 212.951303 200.149565 
L 213.118146 200.188642 
L 213.285588 200.225066 
L 213.453587 200.25883 
L 213.6221 200.289924 
L 213.791085 200.31834 
L 213.9605 200.344072 
L 214.130302 200.367112 
L 214.300447 200.387455 
L 214.470895 200.405097 
L 214.6416 200.420032 
L 214.812522 200.432256 
L 214.983615 200.441767 
L 215.154838 200.448563 
L 215.326148 200.452641 
L 215.4975 200.454 
L 220.9575 200.454 
z
" clip-path="url(#pa92bb56ec3)" style="fill: none; stroke-dasharray: 1.85,0.8; stroke-dashoffset: 0; stroke: #008000; stroke-width: 0.5; stroke-linecap: round"/>
   </g>
   <g id="patch_3">
    <path d="M 220.9575 307.854 
L 221.128852 307.852641 
L 221.300162 307.848563 
L 221.471385 307.841767 
L 221.642478 307.832256 
L 221.8134 307.820032 
L 221.984105 307.805097 
L 222.154553 307.787455 
L 222.324698 307.767112 
L 222.4945 307.744072 
L 222.663915 307.71834 
L 222.8329 307.689924 
L 223.001413 307.65883 
L 223.169412 307.625066 
L 223.336854 307.588642 
L 223.503697 307.549565 
L 223.669898 307.507846 
L 223.835417 307.463495 
L 224.000212 307.416524 
L 224.16424 307.366944 
L 224.327461 307.314768 
L 224.489834 307.260009 
L 224.651318 307.20268 
L 224.811871 307.142797 
L 224.971455 307.080374 
L 225.130027 307.015426 
L 225.28755 306.947971 
L 225.443982 306.878026 
L 225.599285 306.805607 
L 225.753419 306.730733 
L 225.906346 306.653423 
L 226.058028 306.573696 
L 226.208425 306.491573 
L 226.3575 306.407074 
L 226.505216 306.320221 
L 226.651535 306.231035 
L 226.796421 306.139538 
L 226.939837 306.045754 
L 227.081747 305.949707 
L 227.222115 305.85142 
L 227.360906 305.750919 
L 227.498085 305.648228 
L 227.633617 305.543373 
L 227.767469 305.436382 
L 227.899606 305.32728 
L 228.029996 305.216095 
L 228.158605 305.102856 
L 228.285402 304.98759 
L 228.410353 304.870328 
L 228.533429 304.751097 
L 228.654597 304.629929 
L 228.773828 304.506853 
L 228.89109 304.381902 
L 229.006356 304.255105 
L 229.119595 304.126496 
L 229.23078 303.996106 
L 229.339882 303.863969 
L 229.446873 303.730117 
L 229.551728 303.594585 
L 229.654419 303.457406 
L 229.75492 303.318615 
L 229.853207 303.178247 
L 229.949254 303.036337 
L 230.043038 302.892921 
L 230.134535 302.748035 
L 230.223721 302.601716 
L 230.310574 302.454 
L 230.395073 302.304925 
L 230.477196 302.154528 
L 230.556923 302.002846 
L 230.634233 301.849919 
L 230.709107 301.695785 
L 230.781526 301.540482 
L 230.851471 301.38405 
L 230.918926 301.226527 
L 230.983874 301.067955 
L 231.046297 300.908371 
L 231.10618 300.747818 
L 231.163509 300.586334 
L 231.218268 300.423961 
L 231.270444 300.26074 
L 231.320024 300.096712 
L 231.366995 299.931917 
L 231.411346 299.766398 
L 231.453065 299.600197 
L 231.492142 299.433354 
L 231.528566 299.265912 
L 231.56233 299.097913 
L 231.593424 298.9294 
L 231.62184 298.760415 
L 231.647572 298.591 
L 231.670612 298.421198 
L 231.690955 298.251053 
L 231.708597 298.080605 
L 231.723532 297.9099 
L 231.735756 297.738978 
L 231.745267 297.567885 
L 231.752063 297.396662 
L 231.756141 297.225352 
L 231.7575 297.054 
L 231.7575 267.894 
L 231.756141 267.722648 
L 231.752063 267.551338 
L 231.745267 267.380115 
L 231.735756 267.209022 
L 231.723532 267.0381 
L 231.708597 266.867395 
L 231.690955 266.696947 
L 231.670612 266.526802 
L 231.647572 266.357 
L 231.62184 266.187585 
L 231.593424 266.0186 
L 231.56233 265.850087 
L 231.528566 265.682088 
L 231.492142 265.514646 
L 231.453065 265.347803 
L 231.411346 265.181602 
L 231.366995 265.016083 
L 231.320024 264.851288 
L 231.270444 264.68726 
L 231.218268 264.524039 
L 231.163509 264.361666 
L 231.10618 264.200182 
L 231.046297 264.039629 
L 230.983874 263.880045 
L 230.918926 263.721473 
L 230.851471 263.56395 
L 230.781526 263.407518 
L 230.709107 263.252215 
L 230.634233 263.098081 
L 230.556923 262.945154 
L 230.477196 262.793472 
L 230.395073 262.643075 
L 230.310574 262.494 
L 230.223721 262.346284 
L 230.134535 262.199965 
L 230.043038 262.055079 
L 229.949254 261.911663 
L 229.853207 261.769753 
L 229.75492 261.629385 
L 229.654419 261.490594 
L 229.551728 261.353415 
L 229.446873 261.217883 
L 229.339882 261.084031 
L 229.23078 260.951894 
L 229.119595 260.821504 
L 229.006356 260.692895 
L 228.89109 260.566098 
L 228.773828 260.441147 
L 228.654597 260.318071 
L 228.533429 260.196903 
L 228.410353 260.077672 
L 228.285402 259.96041 
L 228.158605 259.845144 
L 228.029996 259.731905 
L 227.899606 259.62072 
L 227.767469 259.511618 
L 227.633617 259.404627 
L 227.498085 259.299772 
L 227.360906 259.197081 
L 227.222115 259.09658 
L 227.081747 258.998293 
L 226.939837 258.902246 
L 226.796421 258.808462 
L 226.651535 258.716965 
L 226.505216 258.627779 
L 226.3575 258.540926 
L 226.208425 258.456427 
L 226.058028 258.374304 
L 225.906346 258.294577 
L 225.753419 258.217267 
L 225.599285 258.142393 
L 225.443982 258.069974 
L 225.28755 258.000029 
L 225.130027 257.932574 
L 224.971455 257.867626 
L 224.811871 257.805203 
L 224.651318 257.74532 
L 224.489834 257.687991 
L 224.327461 257.633232 
L 224.16424 257.581056 
L 224.000212 257.531476 
L 223.835417 257.484505 
L 223.669898 257.440154 
L 223.503697 257.398435 
L 223.336854 257.359358 
L 223.169412 257.322934 
L 223.001413 257.28917 
L 222.8329 257.258076 
L 222.663915 257.22966 
L 222.4945 257.203928 
L 222.324698 257.180888 
L 222.154553 257.160545 
L 221.984105 257.142903 
L 221.8134 257.127968 
L 221.642478 257.115744 
L 221.471385 257.106233 
L 221.300162 257.099437 
L 221.128852 257.095359 
L 220.9575 257.094 
L 215.4975 257.094 
L 215.326148 257.095359 
L 215.154838 257.099437 
L 214.983615 257.106233 
L 214.812522 257.115744 
L 214.6416 257.127968 
L 214.470895 257.142903 
L 214.300447 257.160545 
L 214.130302 257.180888 
L 213.9605 257.203928 
L 213.791085 257.22966 
L 213.6221 257.258076 
L 213.453587 257.28917 
L 213.285588 257.322934 
L 213.118146 257.359358 
L 212.951303 257.398435 
L 212.785102 257.440154 
L 212.619583 257.484505 
L 212.454788 257.531476 
L 212.29076 257.581056 
L 212.127539 257.633232 
L 211.965166 257.687991 
L 211.803682 257.74532 
L 211.643129 257.805203 
L 211.483545 257.867626 
L 211.324973 257.932574 
L 211.16745 258.000029 
L 211.011018 258.069974 
L 210.855715 258.142393 
L 210.701581 258.217267 
L 210.548654 258.294577 
L 210.396972 258.374304 
L 210.246575 258.456427 
L 210.0975 258.540926 
L 209.949784 258.627779 
L 209.803465 258.716965 
L 209.658579 258.808462 
L 209.515163 258.902246 
L 209.373253 258.998293 
L 209.232885 259.09658 
L 209.094094 259.197081 
L 208.956915 259.299772 
L 208.821383 259.404627 
L 208.687531 259.511618 
L 208.555394 259.62072 
L 208.425004 259.731905 
L 208.296395 259.845144 
L 208.169598 259.96041 
L 208.044647 260.077672 
L 207.921571 260.196903 
L 207.800403 260.318071 
L 207.681172 260.441147 
L 207.56391 260.566098 
L 207.448644 260.692895 
L 207.335405 260.821504 
L 207.22422 260.951894 
L 207.115118 261.084031 
L 207.008127 261.217883 
L 206.903272 261.353415 
L 206.800581 261.490594 
L 206.70008 261.629385 
L 206.601793 261.769753 
L 206.505746 261.911663 
L 206.411962 262.055079 
L 206.320465 262.199965 
L 206.231279 262.346284 
L 206.144426 262.494 
L 206.059927 262.643075 
L 205.977804 262.793472 
L 205.898077 262.945154 
L 205.820767 263.098081 
L 205.745893 263.252215 
L 205.673474 263.407518 
L 205.603529 263.56395 
L 205.536074 263.721473 
L 205.471126 263.880045 
L 205.408703 264.039629 
L 205.34882 264.200182 
L 205.291491 264.361666 
L 205.236732 264.524039 
L 205.184556 264.68726 
L 205.134976 264.851288 
L 205.088005 265.016083 
L 205.043654 265.181602 
L 205.001935 265.347803 
L 204.962858 265.514646 
L 204.926434 265.682088 
L 204.89267 265.850087 
L 204.861576 266.0186 
L 204.83316 266.187585 
L 204.807428 266.357 
L 204.784388 266.526802 
L 204.764045 266.696947 
L 204.746403 266.867395 
L 204.731468 267.0381 
L 204.719244 267.209022 
L 204.709733 267.380115 
L 204.702937 267.551338 
L 204.698859 267.722648 
L 204.6975 267.894 
L 204.6975 297.054 
L 204.698859 297.225352 
L 204.702937 297.396662 
L 204.709733 297.567885 
L 204.719244 297.738978 
L 204.731468 297.9099 
L 204.746403 298.080605 
L 204.764045 298.251053 
L 204.784388 298.421198 
L 204.807428 298.591 
L 204.83316 298.760415 
L 204.861576 298.9294 
L 204.89267 299.097913 
L 204.926434 299.265912 
L 204.962858 299.433354 
L 205.001935 299.600197 
L 205.043654 299.766398 
L 205.088005 299.931917 
L 205.134976 300.096712 
L 205.184556 300.26074 
L 205.236732 300.423961 
L 205.291491 300.586334 
L 205.34882 300.747818 
L 205.408703 300.908371 
L 205.471126 301.067955 
L 205.536074 301.226527 
L 205.603529 301.38405 
L 205.673474 301.540482 
L 205.745893 301.695785 
L 205.820767 301.849919 
L 205.898077 302.002846 
L 205.977804 302.154528 
L 206.059927 302.304925 
L 206.144426 302.454 
L 206.231279 302.601716 
L 206.320465 302.748035 
L 206.411962 302.892921 
L 206.505746 303.036337 
L 206.601793 303.178247 
L 206.70008 303.318615 
L 206.800581 303.457406 
L 206.903272 303.594585 
L 207.008127 303.730117 
L 207.115118 303.863969 
L 207.22422 303.996106 
L 207.335405 304.126496 
L 207.448644 304.255105 
L 207.56391 304.381902 
L 207.681172 304.506853 
L 207.800403 304.629929 
L 207.921571 304.751097 
L 208.044647 304.870328 
L 208.169598 304.98759 
L 208.296395 305.102856 
L 208.425004 305.216095 
L 208.555394 305.32728 
L 208.687531 305.436382 
L 208.821383 305.543373 
L 208.956915 305.648228 
L 209.094094 305.750919 
L 209.232885 305.85142 
L 209.373253 305.949707 
L 209.515163 306.045754 
L 209.658579 306.139538 
L 209.803465 306.231035 
L 209.949784 306.320221 
L 210.0975 306.407074 
L 210.246575 306.491573 
L 210.396972 306.573696 
L 210.548654 306.653423 
L 210.701581 306.730733 
L 210.855715 306.805607 
L 211.011018 306.878026 
L 211.16745 306.947971 
L 211.324973 307.015426 
L 211.483545 307.080374 
L 211.643129 307.142797 
L 211.803682 307.20268 
L 211.965166 307.260009 
L 212.127539 307.314768 
L 212.29076 307.366944 
L 212.454788 307.416524 
L 212.619583 307.463495 
L 212.785102 307.507846 
L 212.951303 307.549565 
L 213.118146 307.588642 
L 213.285588 307.625066 
L 213.453587 307.65883 
L 213.6221 307.689924 
L 213.791085 307.71834 
L 213.9605 307.744072 
L 214.130302 307.767112 
L 214.300447 307.787455 
L 214.470895 307.805097 
L 214.6416 307.820032 
L 214.812522 307.832256 
L 214.983615 307.841767 
L 215.154838 307.848563 
L 215.326148 307.852641 
L 215.4975 307.854 
L 220.9575 307.854 
z
" clip-path="url(#pa92bb56ec3)" style="fill: none; stroke-dasharray: 1.85,0.8; stroke-dashoffset: 0; stroke: #008000; stroke-width: 0.5; stroke-linecap: round"/>
   </g>
   <g id="patch_4">
    <path d="M 174.1575 279.174 
L 174.328852 279.172641 
L 174.500162 279.168563 
L 174.671385 279.161767 
L 174.842478 279.152256 
L 175.0134 279.140032 
L 175.184105 279.125097 
L 175.354553 279.107455 
L 175.524698 279.087112 
L 175.6945 279.064072 
L 175.863915 279.03834 
L 176.0329 279.009924 
L 176.201413 278.97883 
L 176.369412 278.945066 
L 176.536854 278.908642 
L 176.703697 278.869565 
L 176.869898 278.827846 
L 177.035417 278.783495 
L 177.200212 278.736524 
L 177.36424 278.686944 
L 177.527461 278.634768 
L 177.689834 278.580009 
L 177.851318 278.52268 
L 178.011871 278.462797 
L 178.171455 278.400374 
L 178.330027 278.335426 
L 178.48755 278.267971 
L 178.643982 278.198026 
L 178.799285 278.125607 
L 178.953419 278.050733 
L 179.106346 277.973423 
L 179.258028 277.893696 
L 179.408425 277.811573 
L 179.5575 277.727074 
L 179.705216 277.640221 
L 179.851535 277.551035 
L 179.996421 277.459538 
L 180.139837 277.365754 
L 180.281747 277.269707 
L 180.422115 277.17142 
L 180.560906 277.070919 
L 180.698085 276.968228 
L 180.833617 276.863373 
L 180.967469 276.756382 
L 181.099606 276.64728 
L 181.229996 276.536095 
L 181.358605 276.422856 
L 181.485402 276.30759 
L 181.610353 276.190328 
L 181.733429 276.071097 
L 181.854597 275.949929 
L 181.973828 275.826853 
L 182.09109 275.701902 
L 182.206356 275.575105 
L 182.319595 275.446496 
L 182.43078 275.316106 
L 182.539882 275.183969 
L 182.646873 275.050117 
L 182.751728 274.914585 
L 182.854419 274.777406 
L 182.95492 274.638615 
L 183.053207 274.498247 
L 183.149254 274.356337 
L 183.243038 274.212921 
L 183.334535 274.068035 
L 183.423721 273.921716 
L 183.510574 273.774 
L 183.595073 273.624925 
L 183.677196 273.474528 
L 183.756923 273.322846 
L 183.834233 273.169919 
L 183.909107 273.015785 
L 183.981526 272.860482 
L 184.051471 272.70405 
L 184.118926 272.546527 
L 184.183874 272.387955 
L 184.246297 272.228371 
L 184.30618 272.067818 
L 184.363509 271.906334 
L 184.418268 271.743961 
L 184.470444 271.58074 
L 184.520024 271.416712 
L 184.566995 271.251917 
L 184.611346 271.086398 
L 184.653065 270.920197 
L 184.692142 270.753354 
L 184.728566 270.585912 
L 184.76233 270.417913 
L 184.793424 270.2494 
L 184.82184 270.080415 
L 184.847572 269.911 
L 184.870612 269.741198 
L 184.890955 269.571053 
L 184.908597 269.400605 
L 184.923532 269.2299 
L 184.935756 269.058978 
L 184.945267 268.887885 
L 184.952063 268.716662 
L 184.956141 268.545352 
L 184.9575 268.374 
L 184.9575 189.174 
L 184.956141 189.002648 
L 184.952063 188.831338 
L 184.945267 188.660115 
L 184.935756 188.489022 
L 184.923532 188.3181 
L 184.908597 188.147395 
L 184.890955 187.976947 
L 184.870612 187.806802 
L 184.847572 187.637 
L 184.82184 187.467585 
L 184.793424 187.2986 
L 184.76233 187.130087 
L 184.728566 186.962088 
L 184.692142 186.794646 
L 184.653065 186.627803 
L 184.611346 186.461602 
L 184.566995 186.296083 
L 184.520024 186.131288 
L 184.470444 185.96726 
L 184.418268 185.804039 
L 184.363509 185.641666 
L 184.30618 185.480182 
L 184.246297 185.319629 
L 184.183874 185.160045 
L 184.118926 185.001473 
L 184.051471 184.84395 
L 183.981526 184.687518 
L 183.909107 184.532215 
L 183.834233 184.378081 
L 183.756923 184.225154 
L 183.677196 184.073472 
L 183.595073 183.923075 
L 183.510574 183.774 
L 183.423721 183.626284 
L 183.334535 183.479965 
L 183.243038 183.335079 
L 183.149254 183.191663 
L 183.053207 183.049753 
L 182.95492 182.909385 
L 182.854419 182.770594 
L 182.751728 182.633415 
L 182.646873 182.497883 
L 182.539882 182.364031 
L 182.43078 182.231894 
L 182.319595 182.101504 
L 182.206356 181.972895 
L 182.09109 181.846098 
L 181.973828 181.721147 
L 181.854597 181.598071 
L 181.733429 181.476903 
L 181.610353 181.357672 
L 181.485402 181.24041 
L 181.358605 181.125144 
L 181.229996 181.011905 
L 181.099606 180.90072 
L 180.967469 180.791618 
L 180.833617 180.684627 
L 180.698085 180.579772 
L 180.560906 180.477081 
L 180.422115 180.37658 
L 180.281747 180.278293 
L 180.139837 180.182246 
L 179.996421 180.088462 
L 179.851535 179.996965 
L 179.705216 179.907779 
L 179.5575 179.820926 
L 179.408425 179.736427 
L 179.258028 179.654304 
L 179.106346 179.574577 
L 178.953419 179.497267 
L 178.799285 179.422393 
L 178.643982 179.349974 
L 178.48755 179.280029 
L 178.330027 179.212574 
L 178.171455 179.147626 
L 178.011871 179.085203 
L 177.851318 179.02532 
L 177.689834 178.967991 
L 177.527461 178.913232 
L 177.36424 178.861056 
L 177.200212 178.811476 
L 177.035417 178.764505 
L 176.869898 178.720154 
L 176.703697 178.678435 
L 176.536854 178.639358 
L 176.369412 178.602934 
L 176.201413 178.56917 
L 176.0329 178.538076 
L 175.863915 178.50966 
L 175.6945 178.483928 
L 175.524698 178.460888 
L 175.354553 178.440545 
L 175.184105 178.422903 
L 175.0134 178.407968 
L 174.842478 178.395744 
L 174.671385 178.386233 
L 174.500162 178.379437 
L 174.328852 178.375359 
L 174.1575 178.374 
L 106.8615 178.374 
L 106.690148 178.375359 
L 106.518838 178.379437 
L 106.347615 178.386233 
L 106.176522 178.395744 
L 106.0056 178.407968 
L 105.834895 178.422903 
L 105.664447 178.440545 
L 105.494302 178.460888 
L 105.3245 178.483928 
L 105.155085 178.50966 
L 104.9861 178.538076 
L 104.817587 178.56917 
L 104.649588 178.602934 
L 104.482146 178.639358 
L 104.315303 178.678435 
L 104.149102 178.720154 
L 103.983583 178.764505 
L 103.818788 178.811476 
L 103.65476 178.861056 
L 103.491539 178.913232 
L 103.329166 178.967991 
L 103.167682 179.02532 
L 103.007129 179.085203 
L 102.847545 179.147626 
L 102.688973 179.212574 
L 102.53145 179.280029 
L 102.375018 179.349974 
L 102.219715 179.422393 
L 102.065581 179.497267 
L 101.912654 179.574577 
L 101.760972 179.654304 
L 101.610575 179.736427 
L 101.4615 179.820926 
L 101.313784 179.907779 
L 101.167465 179.996965 
L 101.022579 180.088462 
L 100.879163 180.182246 
L 100.737253 180.278293 
L 100.596885 180.37658 
L 100.458094 180.477081 
L 100.320915 180.579772 
L 100.185383 180.684627 
L 100.051531 180.791618 
L 99.919394 180.90072 
L 99.789004 181.011905 
L 99.660395 181.125144 
L 99.533598 181.24041 
L 99.408647 181.357672 
L 99.285571 181.476903 
L 99.164403 181.598071 
L 99.045172 181.721147 
L 98.92791 181.846098 
L 98.812644 181.972895 
L 98.699405 182.101504 
L 98.58822 182.231894 
L 98.479118 182.364031 
L 98.372127 182.497883 
L 98.267272 182.633415 
L 98.164581 182.770594 
L 98.06408 182.909385 
L 97.965793 183.049753 
L 97.869746 183.191663 
L 97.775962 183.335079 
L 97.684465 183.479965 
L 97.595279 183.626284 
L 97.508426 183.774 
L 97.423927 183.923075 
L 97.341804 184.073472 
L 97.262077 184.225154 
L 97.184767 184.378081 
L 97.109893 184.532215 
L 97.037474 184.687518 
L 96.967529 184.84395 
L 96.900074 185.001473 
L 96.835126 185.160045 
L 96.772703 185.319629 
L 96.71282 185.480182 
L 96.655491 185.641666 
L 96.600732 185.804039 
L 96.548556 185.96726 
L 96.498976 186.131288 
L 96.452005 186.296083 
L 96.407654 186.461602 
L 96.365935 186.627803 
L 96.326858 186.794646 
L 96.290434 186.962088 
L 96.25667 187.130087 
L 96.225576 187.2986 
L 96.19716 187.467585 
L 96.171428 187.637 
L 96.148388 187.806802 
L 96.128045 187.976947 
L 96.110403 188.147395 
L 96.095468 188.3181 
L 96.083244 188.489022 
L 96.073733 188.660115 
L 96.066937 188.831338 
L 96.062859 189.002648 
L 96.0615 189.174 
L 96.0615 268.374 
L 96.062859 268.545352 
L 96.066937 268.716662 
L 96.073733 268.887885 
L 96.083244 269.058978 
L 96.095468 269.2299 
L 96.110403 269.400605 
L 96.128045 269.571053 
L 96.148388 269.741198 
L 96.171428 269.911 
L 96.19716 270.080415 
L 96.225576 270.2494 
L 96.25667 270.417913 
L 96.290434 270.585912 
L 96.326858 270.753354 
L 96.365935 270.920197 
L 96.407654 271.086398 
L 96.452005 271.251917 
L 96.498976 271.416712 
L 96.548556 271.58074 
L 96.600732 271.743961 
L 96.655491 271.906334 
L 96.71282 272.067818 
L 96.772703 272.228371 
L 96.835126 272.387955 
L 96.900074 272.546527 
L 96.967529 272.70405 
L 97.037474 272.860482 
L 97.109893 273.015785 
L 97.184767 273.169919 
L 97.262077 273.322846 
L 97.341804 273.474528 
L 97.423927 273.624925 
L 97.508426 273.774 
L 97.595279 273.921716 
L 97.684465 274.068035 
L 97.775962 274.212921 
L 97.869746 274.356337 
L 97.965793 274.498247 
L 98.06408 274.638615 
L 98.164581 274.777406 
L 98.267272 274.914585 
L 98.372127 275.050117 
L 98.479118 275.183969 
L 98.58822 275.316106 
L 98.699405 275.446496 
L 98.812644 275.575105 
L 98.92791 275.701902 
L 99.045172 275.826853 
L 99.164403 275.949929 
L 99.285571 276.071097 
L 99.408647 276.190328 
L 99.533598 276.30759 
L 99.660395 276.422856 
L 99.789004 276.536095 
L 99.919394 276.64728 
L 100.051531 276.756382 
L 100.185383 276.863373 
L 100.320915 276.968228 
L 100.458094 277.070919 
L 100.596885 277.17142 
L 100.737253 277.269707 
L 100.879163 277.365754 
L 101.022579 277.459538 
L 101.167465 277.551035 
L 101.313784 277.640221 
L 101.4615 277.727074 
L 101.610575 277.811573 
L 101.760972 277.893696 
L 101.912654 277.973423 
L 102.065581 278.050733 
L 102.219715 278.125607 
L 102.375018 278.198026 
L 102.53145 278.267971 
L 102.688973 278.335426 
L 102.847545 278.400374 
L 103.007129 278.462797 
L 103.167682 278.52268 
L 103.329166 278.580009 
L 103.491539 278.634768 
L 103.65476 278.686944 
L 103.818788 278.736524 
L 103.983583 278.783495 
L 104.149102 278.827846 
L 104.315303 278.869565 
L 104.482146 278.908642 
L 104.649588 278.945066 
L 104.817587 278.97883 
L 104.9861 279.009924 
L 105.155085 279.03834 
L 105.3245 279.064072 
L 105.494302 279.087112 
L 105.664447 279.107455 
L 105.834895 279.125097 
L 106.0056 279.140032 
L 106.176522 279.152256 
L 106.347615 279.161767 
L 106.518838 279.168563 
L 106.690148 279.172641 
L 106.8615 279.174 
L 174.1575 279.174 
z
" clip-path="url(#pa92bb56ec3)" style="fill: none; stroke-dasharray: 1.85,0.8; stroke-dashoffset: 0; stroke: #ff0000; stroke-width: 0.5; stroke-linecap: round"/>
   </g>
   <g id="patch_5">
    <path d="M 156.0975 171.174 
L 156.268852 171.172641 
L 156.440162 171.168563 
L 156.611385 171.161767 
L 156.782478 171.152256 
L 156.9534 171.140032 
L 157.124105 171.125097 
L 157.294553 171.107455 
L 157.464698 171.087112 
L 157.6345 171.064072 
L 157.803915 171.03834 
L 157.9729 171.009924 
L 158.141413 170.97883 
L 158.309412 170.945066 
L 158.476854 170.908642 
L 158.643697 170.869565 
L 158.809898 170.827846 
L 158.975417 170.783495 
L 159.140212 170.736524 
L 159.30424 170.686944 
L 159.467461 170.634768 
L 159.629834 170.580009 
L 159.791318 170.52268 
L 159.951871 170.462797 
L 160.111455 170.400374 
L 160.270027 170.335426 
L 160.42755 170.267971 
L 160.583982 170.198026 
L 160.739285 170.125607 
L 160.893419 170.050733 
L 161.046346 169.973423 
L 161.198028 169.893696 
L 161.348425 169.811573 
L 161.4975 169.727074 
L 161.645216 169.640221 
L 161.791535 169.551035 
L 161.936421 169.459538 
L 162.079837 169.365754 
L 162.221747 169.269707 
L 162.362115 169.17142 
L 162.500906 169.070919 
L 162.638085 168.968228 
L 162.773617 168.863373 
L 162.907469 168.756382 
L 163.039606 168.64728 
L 163.169996 168.536095 
L 163.298605 168.422856 
L 163.425402 168.30759 
L 163.550353 168.190328 
L 163.673429 168.071097 
L 163.794597 167.949929 
L 163.913828 167.826853 
L 164.03109 167.701902 
L 164.146356 167.575105 
L 164.259595 167.446496 
L 164.37078 167.316106 
L 164.479882 167.183969 
L 164.586873 167.050117 
L 164.691728 166.914585 
L 164.794419 166.777406 
L 164.89492 166.638615 
L 164.993207 166.498247 
L 165.089254 166.356337 
L 165.183038 166.212921 
L 165.274535 166.068035 
L 165.363721 165.921716 
L 165.450574 165.774 
L 165.535073 165.624925 
L 165.617196 165.474528 
L 165.696923 165.322846 
L 165.774233 165.169919 
L 165.849107 165.015785 
L 165.921526 164.860482 
L 165.991471 164.70405 
L 166.058926 164.546527 
L 166.123874 164.387955 
L 166.186297 164.228371 
L 166.24618 164.067818 
L 166.303509 163.906334 
L 166.358268 163.743961 
L 166.410444 163.58074 
L 166.460024 163.416712 
L 166.506995 163.251917 
L 166.551346 163.086398 
L 166.593065 162.920197 
L 166.632142 162.753354 
L 166.668566 162.585912 
L 166.70233 162.417913 
L 166.733424 162.2494 
L 166.76184 162.080415 
L 166.787572 161.911 
L 166.810612 161.741198 
L 166.830955 161.571053 
L 166.848597 161.400605 
L 166.863532 161.2299 
L 166.875756 161.058978 
L 166.885267 160.887885 
L 166.892063 160.716662 
L 166.896141 160.545352 
L 166.8975 160.374 
L 166.8975 49.014 
L 166.896141 48.842648 
L 166.892063 48.671338 
L 166.885267 48.500115 
L 166.875756 48.329022 
L 166.863532 48.1581 
L 166.848597 47.987395 
L 166.830955 47.816947 
L 166.810612 47.646802 
L 166.787572 47.477 
L 166.76184 47.307585 
L 166.733424 47.1386 
L 166.70233 46.970087 
L 166.668566 46.802088 
L 166.632142 46.634646 
L 166.593065 46.467803 
L 166.551346 46.301602 
L 166.506995 46.136083 
L 166.460024 45.971288 
L 166.410444 45.80726 
L 166.358268 45.644039 
L 166.303509 45.481666 
L 166.24618 45.320182 
L 166.186297 45.159629 
L 166.123874 45.000045 
L 166.058926 44.841473 
L 165.991471 44.68395 
L 165.921526 44.527518 
L 165.849107 44.372215 
L 165.774233 44.218081 
L 165.696923 44.065154 
L 165.617196 43.913472 
L 165.535073 43.763075 
L 165.450574 43.614 
L 165.363721 43.466284 
L 165.274535 43.319965 
L 165.183038 43.175079 
L 165.089254 43.031663 
L 164.993207 42.889753 
L 164.89492 42.749385 
L 164.794419 42.610594 
L 164.691728 42.473415 
L 164.586873 42.337883 
L 164.479882 42.204031 
L 164.37078 42.071894 
L 164.259595 41.941504 
L 164.146356 41.812895 
L 164.03109 41.686098 
L 163.913828 41.561147 
L 163.794597 41.438071 
L 163.673429 41.316903 
L 163.550353 41.197672 
L 163.425402 41.08041 
L 163.298605 40.965144 
L 163.169996 40.851905 
L 163.039606 40.74072 
L 162.907469 40.631618 
L 162.773617 40.524627 
L 162.638085 40.419772 
L 162.500906 40.317081 
L 162.362115 40.21658 
L 162.221747 40.118293 
L 162.079837 40.022246 
L 161.936421 39.928462 
L 161.791535 39.836965 
L 161.645216 39.747779 
L 161.4975 39.660926 
L 161.348425 39.576427 
L 161.198028 39.494304 
L 161.046346 39.414577 
L 160.893419 39.337267 
L 160.739285 39.262393 
L 160.583982 39.189974 
L 160.42755 39.120029 
L 160.270027 39.052574 
L 160.111455 38.987626 
L 159.951871 38.925203 
L 159.791318 38.86532 
L 159.629834 38.807991 
L 159.467461 38.753232 
L 159.30424 38.701056 
L 159.140212 38.651476 
L 158.975417 38.604505 
L 158.809898 38.560154 
L 158.643697 38.518435 
L 158.476854 38.479358 
L 158.309412 38.442934 
L 158.141413 38.40917 
L 157.9729 38.378076 
L 157.803915 38.34966 
L 157.6345 38.323928 
L 157.464698 38.300888 
L 157.294553 38.280545 
L 157.124105 38.262903 
L 156.9534 38.247968 
L 156.782478 38.235744 
L 156.611385 38.226233 
L 156.440162 38.219437 
L 156.268852 38.215359 
L 156.0975 38.214 
L 42.0615 38.214 
L 41.890148 38.215359 
L 41.718838 38.219437 
L 41.547615 38.226233 
L 41.376522 38.235744 
L 41.2056 38.247968 
L 41.034895 38.262903 
L 40.864447 38.280545 
L 40.694302 38.300888 
L 40.5245 38.323928 
L 40.355085 38.34966 
L 40.1861 38.378076 
L 40.017587 38.40917 
L 39.849588 38.442934 
L 39.682146 38.479358 
L 39.515303 38.518435 
L 39.349102 38.560154 
L 39.183583 38.604505 
L 39.018788 38.651476 
L 38.85476 38.701056 
L 38.691539 38.753232 
L 38.529166 38.807991 
L 38.367682 38.86532 
L 38.207129 38.925203 
L 38.047545 38.987626 
L 37.888973 39.052574 
L 37.73145 39.120029 
L 37.575018 39.189974 
L 37.419715 39.262393 
L 37.265581 39.337267 
L 37.112654 39.414577 
L 36.960972 39.494304 
L 36.810575 39.576427 
L 36.6615 39.660926 
L 36.513784 39.747779 
L 36.367465 39.836965 
L 36.222579 39.928462 
L 36.079163 40.022246 
L 35.937253 40.118293 
L 35.796885 40.21658 
L 35.658094 40.317081 
L 35.520915 40.419772 
L 35.385383 40.524627 
L 35.251531 40.631618 
L 35.119394 40.74072 
L 34.989004 40.851905 
L 34.860395 40.965144 
L 34.733598 41.08041 
L 34.608647 41.197672 
L 34.485571 41.316903 
L 34.364403 41.438071 
L 34.245172 41.561147 
L 34.12791 41.686098 
L 34.012644 41.812895 
L 33.899405 41.941504 
L 33.78822 42.071894 
L 33.679118 42.204031 
L 33.572127 42.337883 
L 33.467272 42.473415 
L 33.364581 42.610594 
L 33.26408 42.749385 
L 33.165793 42.889753 
L 33.069746 43.031663 
L 32.975962 43.175079 
L 32.884465 43.319965 
L 32.795279 43.466284 
L 32.708426 43.614 
L 32.623927 43.763075 
L 32.541804 43.913472 
L 32.462077 44.065154 
L 32.384767 44.218081 
L 32.309893 44.372215 
L 32.237474 44.527518 
L 32.167529 44.68395 
L 32.100074 44.841473 
L 32.035126 45.000045 
L 31.972703 45.159629 
L 31.91282 45.320182 
L 31.855491 45.481666 
L 31.800732 45.644039 
L 31.748556 45.80726 
L 31.698976 45.971288 
L 31.652005 46.136083 
L 31.607654 46.301602 
L 31.565935 46.467803 
L 31.526858 46.634646 
L 31.490434 46.802088 
L 31.45667 46.970087 
L 31.425576 47.1386 
L 31.39716 47.307585 
L 31.371428 47.477 
L 31.348388 47.646802 
L 31.328045 47.816947 
L 31.310403 47.987395 
L 31.295468 48.1581 
L 31.283244 48.329022 
L 31.273733 48.500115 
L 31.266937 48.671338 
L 31.262859 48.842648 
L 31.2615 49.014 
L 31.2615 160.374 
L 31.262859 160.545352 
L 31.266937 160.716662 
L 31.273733 160.887885 
L 31.283244 161.058978 
L 31.295468 161.2299 
L 31.310403 161.400605 
L 31.328045 161.571053 
L 31.348388 161.741198 
L 31.371428 161.911 
L 31.39716 162.080415 
L 31.425576 162.2494 
L 31.45667 162.417913 
L 31.490434 162.585912 
L 31.526858 162.753354 
L 31.565935 162.920197 
L 31.607654 163.086398 
L 31.652005 163.251917 
L 31.698976 163.416712 
L 31.748556 163.58074 
L 31.800732 163.743961 
L 31.855491 163.906334 
L 31.91282 164.067818 
L 31.972703 164.228371 
L 32.035126 164.387955 
L 32.100074 164.546527 
L 32.167529 164.70405 
L 32.237474 164.860482 
L 32.309893 165.015785 
L 32.384767 165.169919 
L 32.462077 165.322846 
L 32.541804 165.474528 
L 32.623927 165.624925 
L 32.708426 165.774 
L 32.795279 165.921716 
L 32.884465 166.068035 
L 32.975962 166.212921 
L 33.069746 166.356337 
L 33.165793 166.498247 
L 33.26408 166.638615 
L 33.364581 166.777406 
L 33.467272 166.914585 
L 33.572127 167.050117 
L 33.679118 167.183969 
L 33.78822 167.316106 
L 33.899405 167.446496 
L 34.012644 167.575105 
L 34.12791 167.701902 
L 34.245172 167.826853 
L 34.364403 167.949929 
L 34.485571 168.071097 
L 34.608647 168.190328 
L 34.733598 168.30759 
L 34.860395 168.422856 
L 34.989004 168.536095 
L 35.119394 168.64728 
L 35.251531 168.756382 
L 35.385383 168.863373 
L 35.520915 168.968228 
L 35.658094 169.070919 
L 35.796885 169.17142 
L 35.937253 169.269707 
L 36.079163 169.365754 
L 36.222579 169.459538 
L 36.367465 169.551035 
L 36.513784 169.640221 
L 36.6615 169.727074 
L 36.810575 169.811573 
L 36.960972 169.893696 
L 37.112654 169.973423 
L 37.265581 170.050733 
L 37.419715 170.125607 
L 37.575018 170.198026 
L 37.73145 170.267971 
L 37.888973 170.335426 
L 38.047545 170.400374 
L 38.207129 170.462797 
L 38.367682 170.52268 
L 38.529166 170.580009 
L 38.691539 170.634768 
L 38.85476 170.686944 
L 39.018788 170.736524 
L 39.183583 170.783495 
L 39.349102 170.827846 
L 39.515303 170.869565 
L 39.682146 170.908642 
L 39.849588 170.945066 
L 40.017587 170.97883 
L 40.1861 171.009924 
L 40.355085 171.03834 
L 40.5245 171.064072 
L 40.694302 171.087112 
L 40.864447 171.107455 
L 41.034895 171.125097 
L 41.2056 171.140032 
L 41.376522 171.152256 
L 41.547615 171.161767 
L 41.718838 171.168563 
L 41.890148 171.172641 
L 42.0615 171.174 
L 156.0975 171.174 
z
" clip-path="url(#pa92bb56ec3)" style="fill: none; stroke-dasharray: 1.85,0.8; stroke-dashoffset: 0; stroke: #a52a2a; stroke-width: 0.5; stroke-linecap: round"/>
   </g>
   <g id="patch_6">
    <path d="M 147.0975 329.934 
L 147.268852 329.932641 
L 147.440162 329.928563 
L 147.611385 329.921767 
L 147.782478 329.912256 
L 147.9534 329.900032 
L 148.124105 329.885097 
L 148.294553 329.867455 
L 148.464698 329.847112 
L 148.6345 329.824072 
L 148.803915 329.79834 
L 148.9729 329.769924 
L 149.141413 329.73883 
L 149.309412 329.705066 
L 149.476854 329.668642 
L 149.643697 329.629565 
L 149.809898 329.587846 
L 149.975417 329.543495 
L 150.140212 329.496524 
L 150.30424 329.446944 
L 150.467461 329.394768 
L 150.629834 329.340009 
L 150.791318 329.28268 
L 150.951871 329.222797 
L 151.111455 329.160374 
L 151.270027 329.095426 
L 151.42755 329.027971 
L 151.583982 328.958026 
L 151.739285 328.885607 
L 151.893419 328.810733 
L 152.046346 328.733423 
L 152.198028 328.653696 
L 152.348425 328.571573 
L 152.4975 328.487074 
L 152.645216 328.400221 
L 152.791535 328.311035 
L 152.936421 328.219538 
L 153.079837 328.125754 
L 153.221747 328.029707 
L 153.362115 327.93142 
L 153.500906 327.830919 
L 153.638085 327.728228 
L 153.773617 327.623373 
L 153.907469 327.516382 
L 154.039606 327.40728 
L 154.169996 327.296095 
L 154.298605 327.182856 
L 154.425402 327.06759 
L 154.550353 326.950328 
L 154.673429 326.831097 
L 154.794597 326.709929 
L 154.913828 326.586853 
L 155.03109 326.461902 
L 155.146356 326.335105 
L 155.259595 326.206496 
L 155.37078 326.076106 
L 155.479882 325.943969 
L 155.586873 325.810117 
L 155.691728 325.674585 
L 155.794419 325.537406 
L 155.89492 325.398615 
L 155.993207 325.258247 
L 156.089254 325.116337 
L 156.183038 324.972921 
L 156.274535 324.828035 
L 156.363721 324.681716 
L 156.450574 324.534 
L 156.535073 324.384925 
L 156.617196 324.234528 
L 156.696923 324.082846 
L 156.774233 323.929919 
L 156.849107 323.775785 
L 156.921526 323.620482 
L 156.991471 323.46405 
L 157.058926 323.306527 
L 157.123874 323.147955 
L 157.186297 322.988371 
L 157.24618 322.827818 
L 157.303509 322.666334 
L 157.358268 322.503961 
L 157.410444 322.34074 
L 157.460024 322.176712 
L 157.506995 322.011917 
L 157.551346 321.846398 
L 157.593065 321.680197 
L 157.632142 321.513354 
L 157.668566 321.345912 
L 157.70233 321.177913 
L 157.733424 321.0094 
L 157.76184 320.840415 
L 157.787572 320.671 
L 157.810612 320.501198 
L 157.830955 320.331053 
L 157.848597 320.160605 
L 157.863532 319.9899 
L 157.875756 319.818978 
L 157.885267 319.647885 
L 157.892063 319.476662 
L 157.896141 319.305352 
L 157.8975 319.134 
L 157.8975 297.174 
L 157.896141 297.002648 
L 157.892063 296.831338 
L 157.885267 296.660115 
L 157.875756 296.489022 
L 157.863532 296.3181 
L 157.848597 296.147395 
L 157.830955 295.976947 
L 157.810612 295.806802 
L 157.787572 295.637 
L 157.76184 295.467585 
L 157.733424 295.2986 
L 157.70233 295.130087 
L 157.668566 294.962088 
L 157.632142 294.794646 
L 157.593065 294.627803 
L 157.551346 294.461602 
L 157.506995 294.296083 
L 157.460024 294.131288 
L 157.410444 293.96726 
L 157.358268 293.804039 
L 157.303509 293.641666 
L 157.24618 293.480182 
L 157.186297 293.319629 
L 157.123874 293.160045 
L 157.058926 293.001473 
L 156.991471 292.84395 
L 156.921526 292.687518 
L 156.849107 292.532215 
L 156.774233 292.378081 
L 156.696923 292.225154 
L 156.617196 292.073472 
L 156.535073 291.923075 
L 156.450574 291.774 
L 156.363721 291.626284 
L 156.274535 291.479965 
L 156.183038 291.335079 
L 156.089254 291.191663 
L 155.993207 291.049753 
L 155.89492 290.909385 
L 155.794419 290.770594 
L 155.691728 290.633415 
L 155.586873 290.497883 
L 155.479882 290.364031 
L 155.37078 290.231894 
L 155.259595 290.101504 
L 155.146356 289.972895 
L 155.03109 289.846098 
L 154.913828 289.721147 
L 154.794597 289.598071 
L 154.673429 289.476903 
L 154.550353 289.357672 
L 154.425402 289.24041 
L 154.298605 289.125144 
L 154.169996 289.011905 
L 154.039606 288.90072 
L 153.907469 288.791618 
L 153.773617 288.684627 
L 153.638085 288.579772 
L 153.500906 288.477081 
L 153.362115 288.37658 
L 153.221747 288.278293 
L 153.079837 288.182246 
L 152.936421 288.088462 
L 152.791535 287.996965 
L 152.645216 287.907779 
L 152.4975 287.820926 
L 152.348425 287.736427 
L 152.198028 287.654304 
L 152.046346 287.574577 
L 151.893419 287.497267 
L 151.739285 287.422393 
L 151.583982 287.349974 
L 151.42755 287.280029 
L 151.270027 287.212574 
L 151.111455 287.147626 
L 150.951871 287.085203 
L 150.791318 287.02532 
L 150.629834 286.967991 
L 150.467461 286.913232 
L 150.30424 286.861056 
L 150.140212 286.811476 
L 149.975417 286.764505 
L 149.809898 286.720154 
L 149.643697 286.678435 
L 149.476854 286.639358 
L 149.309412 286.602934 
L 149.141413 286.56917 
L 148.9729 286.538076 
L 148.803915 286.50966 
L 148.6345 286.483928 
L 148.464698 286.460888 
L 148.294553 286.440545 
L 148.124105 286.422903 
L 147.9534 286.407968 
L 147.782478 286.395744 
L 147.611385 286.386233 
L 147.440162 286.379437 
L 147.268852 286.375359 
L 147.0975 286.374 
L 127.2375 286.374 
L 127.066148 286.375359 
L 126.894838 286.379437 
L 126.723615 286.386233 
L 126.552522 286.395744 
L 126.3816 286.407968 
L 126.210895 286.422903 
L 126.040447 286.440545 
L 125.870302 286.460888 
L 125.7005 286.483928 
L 125.531085 286.50966 
L 125.3621 286.538076 
L 125.193587 286.56917 
L 125.025588 286.602934 
L 124.858146 286.639358 
L 124.691303 286.678435 
L 124.525102 286.720154 
L 124.359583 286.764505 
L 124.194788 286.811476 
L 124.03076 286.861056 
L 123.867539 286.913232 
L 123.705166 286.967991 
L 123.543682 287.02532 
L 123.383129 287.085203 
L 123.223545 287.147626 
L 123.064973 287.212574 
L 122.90745 287.280029 
L 122.751018 287.349974 
L 122.595715 287.422393 
L 122.441581 287.497267 
L 122.288654 287.574577 
L 122.136972 287.654304 
L 121.986575 287.736427 
L 121.8375 287.820926 
L 121.689784 287.907779 
L 121.543465 287.996965 
L 121.398579 288.088462 
L 121.255163 288.182246 
L 121.113253 288.278293 
L 120.972885 288.37658 
L 120.834094 288.477081 
L 120.696915 288.579772 
L 120.561383 288.684627 
L 120.427531 288.791618 
L 120.295394 288.90072 
L 120.165004 289.011905 
L 120.036395 289.125144 
L 119.909598 289.24041 
L 119.784647 289.357672 
L 119.661571 289.476903 
L 119.540403 289.598071 
L 119.421172 289.721147 
L 119.30391 289.846098 
L 119.188644 289.972895 
L 119.075405 290.101504 
L 118.96422 290.231894 
L 118.855118 290.364031 
L 118.748127 290.497883 
L 118.643272 290.633415 
L 118.540581 290.770594 
L 118.44008 290.909385 
L 118.341793 291.049753 
L 118.245746 291.191663 
L 118.151962 291.335079 
L 118.060465 291.479965 
L 117.971279 291.626284 
L 117.884426 291.774 
L 117.799927 291.923075 
L 117.717804 292.073472 
L 117.638077 292.225154 
L 117.560767 292.378081 
L 117.485893 292.532215 
L 117.413474 292.687518 
L 117.343529 292.84395 
L 117.276074 293.001473 
L 117.211126 293.160045 
L 117.148703 293.319629 
L 117.08882 293.480182 
L 117.031491 293.641666 
L 116.976732 293.804039 
L 116.924556 293.96726 
L 116.874976 294.131288 
L 116.828005 294.296083 
L 116.783654 294.461602 
L 116.741935 294.627803 
L 116.702858 294.794646 
L 116.666434 294.962088 
L 116.63267 295.130087 
L 116.601576 295.2986 
L 116.57316 295.467585 
L 116.547428 295.637 
L 116.524388 295.806802 
L 116.504045 295.976947 
L 116.486403 296.147395 
L 116.471468 296.3181 
L 116.459244 296.489022 
L 116.449733 296.660115 
L 116.442937 296.831338 
L 116.438859 297.002648 
L 116.4375 297.174 
L 116.4375 319.134 
L 116.438859 319.305352 
L 116.442937 319.476662 
L 116.449733 319.647885 
L 116.459244 319.818978 
L 116.471468 319.9899 
L 116.486403 320.160605 
L 116.504045 320.331053 
L 116.524388 320.501198 
L 116.547428 320.671 
L 116.57316 320.840415 
L 116.601576 321.0094 
L 116.63267 321.177913 
L 116.666434 321.345912 
L 116.702858 321.513354 
L 116.741935 321.680197 
L 116.783654 321.846398 
L 116.828005 322.011917 
L 116.874976 322.176712 
L 116.924556 322.34074 
L 116.976732 322.503961 
L 117.031491 322.666334 
L 117.08882 322.827818 
L 117.148703 322.988371 
L 117.211126 323.147955 
L 117.276074 323.306527 
L 117.343529 323.46405 
L 117.413474 323.620482 
L 117.485893 323.775785 
L 117.560767 323.929919 
L 117.638077 324.082846 
L 117.717804 324.234528 
L 117.799927 324.384925 
L 117.884426 324.534 
L 117.971279 324.681716 
L 118.060465 324.828035 
L 118.151962 324.972921 
L 118.245746 325.116337 
L 118.341793 325.258247 
L 118.44008 325.398615 
L 118.540581 325.537406 
L 118.643272 325.674585 
L 118.748127 325.810117 
L 118.855118 325.943969 
L 118.96422 326.076106 
L 119.075405 326.206496 
L 119.188644 326.335105 
L 119.30391 326.461902 
L 119.421172 326.586853 
L 119.540403 326.709929 
L 119.661571 326.831097 
L 119.784647 326.950328 
L 119.909598 327.06759 
L 120.036395 327.182856 
L 120.165004 327.296095 
L 120.295394 327.40728 
L 120.427531 327.516382 
L 120.561383 327.623373 
L 120.696915 327.728228 
L 120.834094 327.830919 
L 120.972885 327.93142 
L 121.113253 328.029707 
L 121.255163 328.125754 
L 121.398579 328.219538 
L 121.543465 328.311035 
L 121.689784 328.400221 
L 121.8375 328.487074 
L 121.986575 328.571573 
L 122.136972 328.653696 
L 122.288654 328.733423 
L 122.441581 328.810733 
L 122.595715 328.885607 
L 122.751018 328.958026 
L 122.90745 329.027971 
L 123.064973 329.095426 
L 123.223545 329.160374 
L 123.383129 329.222797 
L 123.543682 329.28268 
L 123.705166 329.340009 
L 123.867539 329.394768 
L 124.03076 329.446944 
L 124.194788 329.496524 
L 124.359583 329.543495 
L 124.525102 329.587846 
L 124.691303 329.629565 
L 124.858146 329.668642 
L 125.025588 329.705066 
L 125.193587 329.73883 
L 125.3621 329.769924 
L 125.531085 329.79834 
L 125.7005 329.824072 
L 125.870302 329.847112 
L 126.040447 329.867455 
L 126.210895 329.885097 
L 126.3816 329.900032 
L 126.552522 329.912256 
L 126.723615 329.921767 
L 126.894838 329.928563 
L 127.066148 329.932641 
L 127.2375 329.934 
L 147.0975 329.934 
z
" clip-path="url(#pa92bb56ec3)" style="fill: none; stroke-dasharray: 1.85,0.8; stroke-dashoffset: 0; stroke: #0000ff; stroke-width: 0.5; stroke-linecap: round"/>
   </g>
   <g id="patch_7">
    <path d="M 294.7575 325.854 
L 294.928852 325.852641 
L 295.100162 325.848563 
L 295.271385 325.841767 
L 295.442478 325.832256 
L 295.6134 325.820032 
L 295.784105 325.805097 
L 295.954553 325.787455 
L 296.124698 325.767112 
L 296.2945 325.744072 
L 296.463915 325.71834 
L 296.6329 325.689924 
L 296.801413 325.65883 
L 296.969412 325.625066 
L 297.136854 325.588642 
L 297.303697 325.549565 
L 297.469898 325.507846 
L 297.635417 325.463495 
L 297.800212 325.416524 
L 297.96424 325.366944 
L 298.127461 325.314768 
L 298.289834 325.260009 
L 298.451318 325.20268 
L 298.611871 325.142797 
L 298.771455 325.080374 
L 298.930027 325.015426 
L 299.08755 324.947971 
L 299.243982 324.878026 
L 299.399285 324.805607 
L 299.553419 324.730733 
L 299.706346 324.653423 
L 299.858028 324.573696 
L 300.008425 324.491573 
L 300.1575 324.407074 
L 300.305216 324.320221 
L 300.451535 324.231035 
L 300.596421 324.139538 
L 300.739837 324.045754 
L 300.881747 323.949707 
L 301.022115 323.85142 
L 301.160906 323.750919 
L 301.298085 323.648228 
L 301.433617 323.543373 
L 301.567469 323.436382 
L 301.699606 323.32728 
L 301.829996 323.216095 
L 301.958605 323.102856 
L 302.085402 322.98759 
L 302.210353 322.870328 
L 302.333429 322.751097 
L 302.454597 322.629929 
L 302.573828 322.506853 
L 302.69109 322.381902 
L 302.806356 322.255105 
L 302.919595 322.126496 
L 303.03078 321.996106 
L 303.139882 321.863969 
L 303.246873 321.730117 
L 303.351728 321.594585 
L 303.454419 321.457406 
L 303.55492 321.318615 
L 303.653207 321.178247 
L 303.749254 321.036337 
L 303.843038 320.892921 
L 303.934535 320.748035 
L 304.023721 320.601716 
L 304.110574 320.454 
L 304.195073 320.304925 
L 304.277196 320.154528 
L 304.356923 320.002846 
L 304.434233 319.849919 
L 304.509107 319.695785 
L 304.581526 319.540482 
L 304.651471 319.38405 
L 304.718926 319.226527 
L 304.783874 319.067955 
L 304.846297 318.908371 
L 304.90618 318.747818 
L 304.963509 318.586334 
L 305.018268 318.423961 
L 305.070444 318.26074 
L 305.120024 318.096712 
L 305.166995 317.931917 
L 305.211346 317.766398 
L 305.253065 317.600197 
L 305.292142 317.433354 
L 305.328566 317.265912 
L 305.36233 317.097913 
L 305.393424 316.9294 
L 305.42184 316.760415 
L 305.447572 316.591 
L 305.470612 316.421198 
L 305.490955 316.251053 
L 305.508597 316.080605 
L 305.523532 315.9099 
L 305.535756 315.738978 
L 305.545267 315.567885 
L 305.552063 315.396662 
L 305.556141 315.225352 
L 305.5575 315.054 
L 305.5575 297.054 
L 305.556141 296.882648 
L 305.552063 296.711338 
L 305.545267 296.540115 
L 305.535756 296.369022 
L 305.523532 296.1981 
L 305.508597 296.027395 
L 305.490955 295.856947 
L 305.470612 295.686802 
L 305.447572 295.517 
L 305.42184 295.347585 
L 305.393424 295.1786 
L 305.36233 295.010087 
L 305.328566 294.842088 
L 305.292142 294.674646 
L 305.253065 294.507803 
L 305.211346 294.341602 
L 305.166995 294.176083 
L 305.120024 294.011288 
L 305.070444 293.84726 
L 305.018268 293.684039 
L 304.963509 293.521666 
L 304.90618 293.360182 
L 304.846297 293.199629 
L 304.783874 293.040045 
L 304.718926 292.881473 
L 304.651471 292.72395 
L 304.581526 292.567518 
L 304.509107 292.412215 
L 304.434233 292.258081 
L 304.356923 292.105154 
L 304.277196 291.953472 
L 304.195073 291.803075 
L 304.110574 291.654 
L 304.023721 291.506284 
L 303.934535 291.359965 
L 303.843038 291.215079 
L 303.749254 291.071663 
L 303.653207 290.929753 
L 303.55492 290.789385 
L 303.454419 290.650594 
L 303.351728 290.513415 
L 303.246873 290.377883 
L 303.139882 290.244031 
L 303.03078 290.111894 
L 302.919595 289.981504 
L 302.806356 289.852895 
L 302.69109 289.726098 
L 302.573828 289.601147 
L 302.454597 289.478071 
L 302.333429 289.356903 
L 302.210353 289.237672 
L 302.085402 289.12041 
L 301.958605 289.005144 
L 301.829996 288.891905 
L 301.699606 288.78072 
L 301.567469 288.671618 
L 301.433617 288.564627 
L 301.298085 288.459772 
L 301.160906 288.357081 
L 301.022115 288.25658 
L 300.881747 288.158293 
L 300.739837 288.062246 
L 300.596421 287.968462 
L 300.451535 287.876965 
L 300.305216 287.787779 
L 300.1575 287.700926 
L 300.008425 287.616427 
L 299.858028 287.534304 
L 299.706346 287.454577 
L 299.553419 287.377267 
L 299.399285 287.302393 
L 299.243982 287.229974 
L 299.08755 287.160029 
L 298.930027 287.092574 
L 298.771455 287.027626 
L 298.611871 286.965203 
L 298.451318 286.90532 
L 298.289834 286.847991 
L 298.127461 286.793232 
L 297.96424 286.741056 
L 297.800212 286.691476 
L 297.635417 286.644505 
L 297.469898 286.600154 
L 297.303697 286.558435 
L 297.136854 286.519358 
L 296.969412 286.482934 
L 296.801413 286.44917 
L 296.6329 286.418076 
L 296.463915 286.38966 
L 296.2945 286.363928 
L 296.124698 286.340888 
L 295.954553 286.320545 
L 295.784105 286.302903 
L 295.6134 286.287968 
L 295.442478 286.275744 
L 295.271385 286.266233 
L 295.100162 286.259437 
L 294.928852 286.255359 
L 294.7575 286.254 
L 249.2415 286.254 
L 249.070148 286.255359 
L 248.898838 286.259437 
L 248.727615 286.266233 
L 248.556522 286.275744 
L 248.3856 286.287968 
L 248.214895 286.302903 
L 248.044447 286.320545 
L 247.874302 286.340888 
L 247.7045 286.363928 
L 247.535085 286.38966 
L 247.3661 286.418076 
L 247.197587 286.44917 
L 247.029588 286.482934 
L 246.862146 286.519358 
L 246.695303 286.558435 
L 246.529102 286.600154 
L 246.363583 286.644505 
L 246.198788 286.691476 
L 246.03476 286.741056 
L 245.871539 286.793232 
L 245.709166 286.847991 
L 245.547682 286.90532 
L 245.387129 286.965203 
L 245.227545 287.027626 
L 245.068973 287.092574 
L 244.91145 287.160029 
L 244.755018 287.229974 
L 244.599715 287.302393 
L 244.445581 287.377267 
L 244.292654 287.454577 
L 244.140972 287.534304 
L 243.990575 287.616427 
L 243.8415 287.700926 
L 243.693784 287.787779 
L 243.547465 287.876965 
L 243.402579 287.968462 
L 243.259163 288.062246 
L 243.117253 288.158293 
L 242.976885 288.25658 
L 242.838094 288.357081 
L 242.700915 288.459772 
L 242.565383 288.564627 
L 242.431531 288.671618 
L 242.299394 288.78072 
L 242.169004 288.891905 
L 242.040395 289.005144 
L 241.913598 289.12041 
L 241.788647 289.237672 
L 241.665571 289.356903 
L 241.544403 289.478071 
L 241.425172 289.601147 
L 241.30791 289.726098 
L 241.192644 289.852895 
L 241.079405 289.981504 
L 240.96822 290.111894 
L 240.859118 290.244031 
L 240.752127 290.377883 
L 240.647272 290.513415 
L 240.544581 290.650594 
L 240.44408 290.789385 
L 240.345793 290.929753 
L 240.249746 291.071663 
L 240.155962 291.215079 
L 240.064465 291.359965 
L 239.975279 291.506284 
L 239.888426 291.654 
L 239.803927 291.803075 
L 239.721804 291.953472 
L 239.642077 292.105154 
L 239.564767 292.258081 
L 239.489893 292.412215 
L 239.417474 292.567518 
L 239.347529 292.72395 
L 239.280074 292.881473 
L 239.215126 293.040045 
L 239.152703 293.199629 
L 239.09282 293.360182 
L 239.035491 293.521666 
L 238.980732 293.684039 
L 238.928556 293.84726 
L 238.878976 294.011288 
L 238.832005 294.176083 
L 238.787654 294.341602 
L 238.745935 294.507803 
L 238.706858 294.674646 
L 238.670434 294.842088 
L 238.63667 295.010087 
L 238.605576 295.1786 
L 238.57716 295.347585 
L 238.551428 295.517 
L 238.528388 295.686802 
L 238.508045 295.856947 
L 238.490403 296.027395 
L 238.475468 296.1981 
L 238.463244 296.369022 
L 238.453733 296.540115 
L 238.446937 296.711338 
L 238.442859 296.882648 
L 238.4415 297.054 
L 238.4415 315.054 
L 238.442859 315.225352 
L 238.446937 315.396662 
L 238.453733 315.567885 
L 238.463244 315.738978 
L 238.475468 315.9099 
L 238.490403 316.080605 
L 238.508045 316.251053 
L 238.528388 316.421198 
L 238.551428 316.591 
L 238.57716 316.760415 
L 238.605576 316.9294 
L 238.63667 317.097913 
L 238.670434 317.265912 
L 238.706858 317.433354 
L 238.745935 317.600197 
L 238.787654 317.766398 
L 238.832005 317.931917 
L 238.878976 318.096712 
L 238.928556 318.26074 
L 238.980732 318.423961 
L 239.035491 318.586334 
L 239.09282 318.747818 
L 239.152703 318.908371 
L 239.215126 319.067955 
L 239.280074 319.226527 
L 239.347529 319.38405 
L 239.417474 319.540482 
L 239.489893 319.695785 
L 239.564767 319.849919 
L 239.642077 320.002846 
L 239.721804 320.154528 
L 239.803927 320.304925 
L 239.888426 320.454 
L 239.975279 320.601716 
L 240.064465 320.748035 
L 240.155962 320.892921 
L 240.249746 321.036337 
L 240.345793 321.178247 
L 240.44408 321.318615 
L 240.544581 321.457406 
L 240.647272 321.594585 
L 240.752127 321.730117 
L 240.859118 321.863969 
L 240.96822 321.996106 
L 241.079405 322.126496 
L 241.192644 322.255105 
L 241.30791 322.381902 
L 241.425172 322.506853 
L 241.544403 322.629929 
L 241.665571 322.751097 
L 241.788647 322.870328 
L 241.913598 322.98759 
L 242.040395 323.102856 
L 242.169004 323.216095 
L 242.299394 323.32728 
L 242.431531 323.436382 
L 242.565383 323.543373 
L 242.700915 323.648228 
L 242.838094 323.750919 
L 242.976885 323.85142 
L 243.117253 323.949707 
L 243.259163 324.045754 
L 243.402579 324.139538 
L 243.547465 324.231035 
L 243.693784 324.320221 
L 243.8415 324.407074 
L 243.990575 324.491573 
L 244.140972 324.573696 
L 244.292654 324.653423 
L 244.445581 324.730733 
L 244.599715 324.805607 
L 244.755018 324.878026 
L 244.91145 324.947971 
L 245.068973 325.015426 
L 245.227545 325.080374 
L 245.387129 325.142797 
L 245.547682 325.20268 
L 245.709166 325.260009 
L 245.871539 325.314768 
L 246.03476 325.366944 
L 246.198788 325.416524 
L 246.363583 325.463495 
L 246.529102 325.507846 
L 246.695303 325.549565 
L 246.862146 325.588642 
L 247.029588 325.625066 
L 247.197587 325.65883 
L 247.3661 325.689924 
L 247.535085 325.71834 
L 247.7045 325.744072 
L 247.874302 325.767112 
L 248.044447 325.787455 
L 248.214895 325.805097 
L 248.3856 325.820032 
L 248.556522 325.832256 
L 248.727615 325.841767 
L 248.898838 325.848563 
L 249.070148 325.852641 
L 249.2415 325.854 
z
" clip-path="url(#pa92bb56ec3)" style="fill: #00ffff; stroke-dasharray: 5.55,2.4; stroke-dashoffset: 0; stroke: #00ffff; stroke-width: 1.5; stroke-linecap: round"/>
   </g>
   <g id="line2d_1">
    <path d="M 204.6975 174.774 
L 217.8975 174.774 
" clip-path="url(#pa92bb56ec3)" style="fill: none; stroke: #000000; stroke-width: 2; stroke-linecap: round"/>
   </g>
   <g id="line2d_2">
    <path d="M 217.8975 161.574 
L 217.8975 187.974 
" clip-path="url(#pa92bb56ec3)" style="fill: none; stroke: #000000; stroke-width: 2; stroke-linecap: round"/>
   </g>
   <g id="line2d_3">
    <path d="M 217.8975 168.174 
L 231.7575 156.294 
L 231.7575 149.694 
" clip-path="url(#pa92bb56ec3)" style="fill: none; stroke: #000000; stroke-width: 2; stroke-linecap: round"/>
   </g>
   <g id="line2d_4">
    <path d="M 217.8975 181.374 
L 231.7575 193.254 
L 231.7575 199.854 
" clip-path="url(#pa92bb56ec3)" style="fill: none; stroke: #000000; stroke-width: 2; stroke-linecap: round"/>
   </g>
   <g id="line2d_5">
    <path d="M 217.8975 181.374 
L 224.924191 187.396878 
" clip-path="url(#pa92bb56ec3)" style="fill: none; stroke: #000000; stroke-width: 2; stroke-linecap: round"/>
   </g>
   <g id="patch_8">
    <path d="M 227.26704 184.663554 
L 231.7575 193.254 
L 222.581342 190.130201 
z
" clip-path="url(#pa92bb56ec3)"/>
   </g>
   <g id="line2d_6">
    <path d="M 204.6975 174.774 
L 177.6975 174.774 
L 150.6975 174.774 
" clip-path="url(#pa92bb56ec3)" style="fill: none; stroke: #000000; stroke-width: 2; stroke-linecap: round"/>
   </g>
   <g id="line2d_7">
    <path d="M 150.6975 174.774 
L 150.6975 183.774 
L 159.6975 186.774 
L 141.6975 192.774 
L 159.6975 198.774 
L 141.6975 204.774 
L 159.6975 210.774 
L 141.6975 216.774 
L 150.6975 219.774 
L 150.6975 228.774 
" clip-path="url(#pa92bb56ec3)" style="fill: none; stroke: #000000; stroke-width: 2; stroke-linecap: round"/>
   </g>
   <g id="line2d_8">
    <path d="M 150.6975 228.774 
L 163.8975 228.774 
" clip-path="url(#pa92bb56ec3)" style="fill: none; stroke: #000000; stroke-width: 2; stroke-linecap: round"/>
   </g>
   <g id="line2d_9">
    <path d="M 163.8975 215.574 
L 163.8975 241.974 
" clip-path="url(#pa92bb56ec3)" style="fill: none; stroke: #000000; stroke-width: 2; stroke-linecap: round"/>
   </g>
   <g id="line2d_10">
    <path d="M 163.8975 222.174 
L 177.7575 210.294 
L 177.7575 203.694 
" clip-path="url(#pa92bb56ec3)" style="fill: none; stroke: #000000; stroke-width: 2; stroke-linecap: round"/>
   </g>
   <g id="line2d_11">
    <path d="M 163.8975 235.374 
L 177.7575 247.254 
L 177.7575 253.854 
" clip-path="url(#pa92bb56ec3)" style="fill: none; stroke: #000000; stroke-width: 2; stroke-linecap: round"/>
   </g>
   <g id="line2d_12">
    <path d="M 163.8975 235.374 
L 170.924191 241.396878 
" clip-path="url(#pa92bb56ec3)" style="fill: none; stroke: #000000; stroke-width: 2; stroke-linecap: round"/>
   </g>
   <g id="patch_9">
    <path d="M 173.26704 238.663554 
L 177.7575 247.254 
L 168.581342 244.130201 
z
" clip-path="url(#pa92bb56ec3)"/>
   </g>
   <g id="line2d_13">
    <path d="M 150.6975 228.774 
L 150.6975 237.774 
L 159.6975 240.774 
L 141.6975 246.774 
L 159.6975 252.774 
L 141.6975 258.774 
L 159.6975 264.774 
L 141.6975 270.774 
L 150.6975 273.774 
L 150.6975 282.774 
" clip-path="url(#pa92bb56ec3)" style="fill: none; stroke: #000000; stroke-width: 2; stroke-linecap: round"/>
   </g>
   <g id="line2d_14">
    <path d="M 150.6975 282.774 
L 177.6975 282.774 
L 204.6975 282.774 
" clip-path="url(#pa92bb56ec3)" style="fill: none; stroke: #000000; stroke-width: 2; stroke-linecap: round"/>
   </g>
   <g id="line2d_15">
    <path d="M 204.6975 282.774 
L 217.8975 282.774 
" clip-path="url(#pa92bb56ec3)" style="fill: none; stroke: #000000; stroke-width: 2; stroke-linecap: round"/>
   </g>
   <g id="line2d_16">
    <path d="M 217.8975 269.574 
L 217.8975 295.974 
" clip-path="url(#pa92bb56ec3)" style="fill: none; stroke: #000000; stroke-width: 2; stroke-linecap: round"/>
   </g>
   <g id="line2d_17">
    <path d="M 217.8975 276.174 
L 231.7575 264.294 
L 231.7575 257.694 
" clip-path="url(#pa92bb56ec3)" style="fill: none; stroke: #000000; stroke-width: 2; stroke-linecap: round"/>
   </g>
   <g id="line2d_18">
    <path d="M 217.8975 289.374 
L 231.7575 301.254 
L 231.7575 307.854 
" clip-path="url(#pa92bb56ec3)" style="fill: none; stroke: #000000; stroke-width: 2; stroke-linecap: round"/>
   </g>
   <g id="line2d_19">
    <path d="M 231.7575 264.294 
L 224.730809 270.316878 
" clip-path="url(#pa92bb56ec3)" style="fill: none; stroke: #000000; stroke-width: 2; stroke-linecap: round"/>
   </g>
   <g id="patch_10">
    <path d="M 227.073658 273.050201 
L 217.8975 276.174 
L 222.38796 267.583554 
z
" clip-path="url(#pa92bb56ec3)"/>
   </g>
   <g id="line2d_20">
    <path d="M 177.7575 203.694 
L 177.7575 189.234 
L 177.7575 174.774 
" clip-path="url(#pa92bb56ec3)" style="fill: none; stroke: #000000; stroke-width: 2; stroke-linecap: round"/>
   </g>
   <g id="line2d_21">
    <path d="M 177.7575 253.854 
L 177.7575 268.314 
L 177.7575 282.774 
" clip-path="url(#pa92bb56ec3)" style="fill: none; stroke: #000000; stroke-width: 2; stroke-linecap: round"/>
   </g>
   <g id="line2d_22">
    <path d="M 150.6975 174.774 
L 150.6975 156.774 
L 150.6975 138.774 
" clip-path="url(#pa92bb56ec3)" style="fill: none; stroke: #000000; stroke-width: 2; stroke-linecap: round"/>
   </g>
   <g id="line2d_23">
    <path d="M 123.6375 113.694 
L 136.8375 113.694 
" clip-path="url(#pa92bb56ec3)" style="fill: none; stroke: #000000; stroke-width: 2; stroke-linecap: round"/>
   </g>
   <g id="line2d_24">
    <path d="M 136.8375 100.494 
L 136.8375 126.894 
" clip-path="url(#pa92bb56ec3)" style="fill: none; stroke: #000000; stroke-width: 2; stroke-linecap: round"/>
   </g>
   <g id="line2d_25">
    <path d="M 136.8375 107.094 
L 150.6975 95.214 
L 150.6975 88.614 
" clip-path="url(#pa92bb56ec3)" style="fill: none; stroke: #000000; stroke-width: 2; stroke-linecap: round"/>
   </g>
   <g id="line2d_26">
    <path d="M 136.8375 120.294 
L 150.6975 132.174 
L 150.6975 138.774 
" clip-path="url(#pa92bb56ec3)" style="fill: none; stroke: #000000; stroke-width: 2; stroke-linecap: round"/>
   </g>
   <g id="line2d_27">
    <path d="M 150.6975 95.214 
L 143.670809 101.236878 
" clip-path="url(#pa92bb56ec3)" style="fill: none; stroke: #000000; stroke-width: 2; stroke-linecap: round"/>
   </g>
   <g id="patch_11">
    <path d="M 146.013658 103.970201 
L 136.8375 107.094 
L 141.32796 98.503554 
z
" clip-path="url(#pa92bb56ec3)"/>
   </g>
   <g id="line2d_28">
    <path d="M 150.6975 88.614 
L 150.6975 79.614 
L 141.6975 76.614 
L 159.6975 70.614 
L 141.6975 64.614 
L 159.6975 58.614 
L 141.6975 52.614 
L 159.6975 46.614 
L 150.6975 43.614 
L 150.6975 34.614 
" clip-path="url(#pa92bb56ec3)" style="fill: none; stroke: #000000; stroke-width: 2; stroke-linecap: round"/>
   </g>
   <g id="line2d_29">
    <path d="M 150.6975 34.614 
L 150.6975 20.214 
" clip-path="url(#pa92bb56ec3)" style="fill: none; stroke: #000000; stroke-width: 2; stroke-linecap: round"/>
   </g>
   <g id="line2d_30">
    <path d="M 150.6975 20.214 
L 143.9475 20.214 
" clip-path="url(#pa92bb56ec3)" style="fill: none; stroke: #000000; stroke-width: 2; stroke-linecap: round"/>
   </g>
   <g id="line2d_31">
    <path d="M 150.6975 20.214 
L 157.4475 20.214 
" clip-path="url(#pa92bb56ec3)" style="fill: none; stroke: #000000; stroke-width: 2; stroke-linecap: round"/>
   </g>
   <g id="line2d_32">
    <path d="M 150.6975 34.614 
L 191.2275 34.614 
L 231.7575 34.614 
" clip-path="url(#pa92bb56ec3)" style="fill: none; stroke: #000000; stroke-width: 2; stroke-linecap: round"/>
   </g>
   <g id="line2d_33">
    <path d="M 231.7575 34.614 
L 231.7575 92.154 
L 231.7575 149.694 
" clip-path="url(#pa92bb56ec3)" style="fill: none; stroke: #000000; stroke-width: 2; stroke-linecap: round"/>
   </g>
   <g id="line2d_34">
    <path d="M 123.6375 307.854 
L 136.8375 307.854 
" clip-path="url(#pa92bb56ec3)" style="fill: none; stroke: #000000; stroke-width: 2; stroke-linecap: round"/>
   </g>
   <g id="line2d_35">
    <path d="M 136.8375 294.654 
L 136.8375 321.054 
" clip-path="url(#pa92bb56ec3)" style="fill: none; stroke: #000000; stroke-width: 2; stroke-linecap: round"/>
   </g>
   <g id="line2d_36">
    <path d="M 136.8375 301.254 
L 150.6975 289.374 
L 150.6975 282.774 
" clip-path="url(#pa92bb56ec3)" style="fill: none; stroke: #000000; stroke-width: 2; stroke-linecap: round"/>
   </g>
   <g id="line2d_37">
    <path d="M 136.8375 314.454 
L 150.6975 326.334 
L 150.6975 332.934 
" clip-path="url(#pa92bb56ec3)" style="fill: none; stroke: #000000; stroke-width: 2; stroke-linecap: round"/>
   </g>
   <g id="line2d_38">
    <path d="M 136.8375 314.454 
L 143.864191 320.476878 
" clip-path="url(#pa92bb56ec3)" style="fill: none; stroke: #000000; stroke-width: 2; stroke-linecap: round"/>
   </g>
   <g id="patch_12">
    <path d="M 146.20704 317.743554 
L 150.6975 326.334 
L 141.521342 323.210201 
z
" clip-path="url(#pa92bb56ec3)"/>
   </g>
   <g id="line2d_39">
    <path d="M 150.6975 332.934 
L 150.6975 347.334 
" clip-path="url(#pa92bb56ec3)" style="fill: none; stroke: #000000; stroke-width: 2; stroke-linecap: round"/>
   </g>
   <g id="line2d_40">
    <path d="M 150.6975 347.334 
L 143.9475 347.334 
" clip-path="url(#pa92bb56ec3)" style="fill: none; stroke: #000000; stroke-width: 2; stroke-linecap: round"/>
   </g>
   <g id="line2d_41">
    <path d="M 150.6975 347.334 
L 157.4475 347.334 
" clip-path="url(#pa92bb56ec3)" style="fill: none; stroke: #000000; stroke-width: 2; stroke-linecap: round"/>
   </g>
   <g id="line2d_42">
    <path d="M 150.6975 332.934 
L 191.2275 332.934 
L 231.7575 332.934 
" clip-path="url(#pa92bb56ec3)" style="fill: none; stroke: #000000; stroke-width: 2; stroke-linecap: round"/>
   </g>
   <g id="line2d_43">
    <path d="M 231.7575 332.934 
L 231.7575 320.394 
L 231.7575 307.854 
" clip-path="url(#pa92bb56ec3)" style="fill: none; stroke: #000000; stroke-width: 2; stroke-linecap: round"/>
   </g>
   <g id="line2d_44">
    <path d="M 123.6375 307.854 
L 78.6375 307.854 
L 33.6375 307.854 
" clip-path="url(#pa92bb56ec3)" style="fill: none; stroke: #000000; stroke-width: 2; stroke-linecap: round"/>
   </g>
   <g id="line2d_45">
    <path d="M 231.7575 199.854 
L 231.7575 214.254 
L 231.7575 228.654 
" clip-path="url(#pa92bb56ec3)" style="fill: none; stroke: #000000; stroke-width: 2; stroke-linecap: round"/>
   </g>
   <g id="line2d_46">
    <path d="M 231.7575 228.654 
L 231.7575 243.174 
L 231.7575 257.694 
" clip-path="url(#pa92bb56ec3)" style="fill: none; stroke: #000000; stroke-width: 2; stroke-linecap: round"/>
   </g>
   <g id="line2d_47">
    <path d="M 150.6975 34.614 
L 118.2975 34.614 
L 85.8975 34.614 
" clip-path="url(#pa92bb56ec3)" style="fill: none; stroke: #000000; stroke-width: 2; stroke-linecap: round"/>
   </g>
   <g id="line2d_48">
    <path d="M 85.8975 34.614 
L 85.8975 56.154 
L 94.8975 59.154 
L 76.8975 65.154 
L 94.8975 71.154 
L 76.8975 77.154 
L 94.8975 83.154 
L 76.8975 89.154 
L 85.8975 92.154 
L 85.8975 113.694 
" clip-path="url(#pa92bb56ec3)" style="fill: none; stroke: #000000; stroke-width: 2; stroke-linecap: round"/>
   </g>
   <g id="line2d_49">
    <path d="M 85.8975 113.694 
L 85.8975 126.234 
L 94.8975 129.234 
L 76.8975 135.234 
L 94.8975 141.234 
L 76.8975 147.234 
L 94.8975 153.234 
L 76.8975 159.234 
L 85.8975 162.234 
L 85.8975 174.774 
" clip-path="url(#pa92bb56ec3)" style="fill: none; stroke: #000000; stroke-width: 2; stroke-linecap: round"/>
   </g>
   <g id="line2d_50">
    <path d="M 85.8975 174.774 
L 85.8975 253.854 
L 85.8975 332.934 
" clip-path="url(#pa92bb56ec3)" style="fill: none; stroke: #000000; stroke-width: 2; stroke-linecap: round"/>
   </g>
   <g id="line2d_51">
    <path d="M 85.8975 332.934 
L 118.2975 332.934 
L 150.6975 332.934 
" clip-path="url(#pa92bb56ec3)" style="fill: none; stroke: #000000; stroke-width: 2; stroke-linecap: round"/>
   </g>
   <g id="line2d_52">
    <path d="M 231.7575 228.654 
L 258.7575 228.654 
L 285.7575 228.654 
" clip-path="url(#pa92bb56ec3)" style="fill: none; stroke: #000000; stroke-width: 2; stroke-linecap: round"/>
   </g>
   <g id="line2d_53">
    <path d="M 285.7575 228.654 
L 285.7575 237.654 
L 294.7575 240.654 
L 276.7575 246.654 
L 294.7575 252.654 
L 276.7575 258.654 
L 294.7575 264.654 
L 276.7575 270.654 
L 285.7575 273.654 
L 285.7575 282.654 
" clip-path="url(#pa92bb56ec3)" style="fill: none; stroke: #000000; stroke-width: 2; stroke-linecap: round"/>
   </g>
   <g id="line2d_54">
    <path d="M 285.7575 282.654 
L 285.7575 288.054 
L 294.7575 291.054 
L 276.7575 297.054 
L 294.7575 303.054 
L 276.7575 309.054 
L 294.7575 315.054 
L 276.7575 321.054 
L 285.7575 324.054 
L 285.7575 329.454 
" clip-path="url(#pa92bb56ec3)" style="fill: none; stroke: #000000; stroke-width: 2; stroke-linecap: round"/>
   </g>
   <g id="line2d_55">
    <path d="M 285.7575 329.454 
L 285.7575 343.854 
L 276.7575 343.854 
L 294.7575 343.854 
M 279.4575 348.174 
L 292.0575 348.174 
M 283.9575 352.494 
L 287.5575 352.494 
" clip-path="url(#pa92bb56ec3)" style="fill: none; stroke: #000000; stroke-width: 2; stroke-linecap: round"/>
   </g>
   <g id="line2d_56">
    <path d="M 285.7575 228.654 
L 312.7575 228.654 
L 339.7575 228.654 
" clip-path="url(#pa92bb56ec3)" style="fill: none; stroke: #000000; stroke-width: 2; stroke-linecap: round"/>
   </g>
   <g id="line2d_57">
    <path d="M 285.7575 282.654 
L 312.7575 282.654 
L 339.7575 282.654 
" clip-path="url(#pa92bb56ec3)" style="fill: none; stroke: #000000; stroke-width: 2; stroke-linecap: round"/>
   </g>
   <g id="line2d_58">
    <path d="M 285.7575 329.454 
L 312.7575 329.454 
L 339.7575 329.454 
" clip-path="url(#pa92bb56ec3)" style="fill: none; stroke: #000000; stroke-width: 2; stroke-linecap: round"/>
   </g>
   <g id="line2d_59">
    <path d="M 85.8975 113.694 
L 104.7675 113.694 
L 123.6375 113.694 
" clip-path="url(#pa92bb56ec3)" style="fill: none; stroke: #000000; stroke-width: 2; stroke-linecap: round"/>
   </g>
   <g id="text_1">
    <!-- $R_{v1}$ -->
    <g transform="translate(118.2225 205.223219) scale(0.125 -0.125)">
     <defs>
      <path id="DejaVuSans-Oblique-52" d="M 1613 4147 
L 1294 2491 
L 2106 2491 
Q 2584 2491 2879 2755 
Q 3175 3019 3175 3444 
Q 3175 3784 2976 3965 
Q 2778 4147 2406 4147 
L 1613 4147 
z
M 2772 2241 
Q 2972 2194 3105 2009 
Q 3238 1825 3413 1275 
L 3809 0 
L 3144 0 
L 2778 1197 
Q 2638 1659 2453 1815 
Q 2269 1972 1888 1972 
L 1191 1972 
L 806 0 
L 172 0 
L 1081 4666 
L 2503 4666 
Q 3150 4666 3495 4373 
Q 3841 4081 3841 3531 
Q 3841 3044 3547 2687 
Q 3253 2331 2772 2241 
z
" transform="scale(0.015625)"/>
      <path id="DejaVuSans-Oblique-76" d="M 459 3500 
L 1069 3500 
L 1581 525 
L 3256 3500 
L 3866 3500 
L 1875 0 
L 1100 0 
L 459 3500 
z
" transform="scale(0.015625)"/>
      <path id="DejaVuSans-31" d="M 794 531 
L 1825 531 
L 1825 4091 
L 703 3866 
L 703 4441 
L 1819 4666 
L 2450 4666 
L 2450 531 
L 3481 531 
L 3481 0 
L 794 0 
L 794 531 
z
" transform="scale(0.015625)"/>
     </defs>
     <use xlink:href="#DejaVuSans-Oblique-52" transform="translate(0 0.09375)"/>
     <use xlink:href="#DejaVuSans-Oblique-76" transform="translate(69.482422 -16.3125) scale(0.7)"/>
     <use xlink:href="#DejaVuSans-31" transform="translate(110.908203 -16.3125) scale(0.7)"/>
    </g>
   </g>
   <g id="text_2">
    <!-- $R_{v2}$ -->
    <g transform="translate(118.2225 259.223219) scale(0.125 -0.125)">
     <defs>
      <path id="DejaVuSans-32" d="M 1228 531 
L 3431 531 
L 3431 0 
L 469 0 
L 469 531 
Q 828 903 1448 1529 
Q 2069 2156 2228 2338 
Q 2531 2678 2651 2914 
Q 2772 3150 2772 3378 
Q 2772 3750 2511 3984 
Q 2250 4219 1831 4219 
Q 1534 4219 1204 4116 
Q 875 4013 500 3803 
L 500 4441 
Q 881 4594 1212 4672 
Q 1544 4750 1819 4750 
Q 2544 4750 2975 4387 
Q 3406 4025 3406 3419 
Q 3406 3131 3298 2873 
Q 3191 2616 2906 2266 
Q 2828 2175 2409 1742 
Q 1991 1309 1228 531 
z
" transform="scale(0.015625)"/>
     </defs>
     <use xlink:href="#DejaVuSans-Oblique-52" transform="translate(0 0.09375)"/>
     <use xlink:href="#DejaVuSans-Oblique-76" transform="translate(69.482422 -16.3125) scale(0.7)"/>
     <use xlink:href="#DejaVuSans-32" transform="translate(110.908203 -16.3125) scale(0.7)"/>
    </g>
   </g>
   <g id="text_3">
    <!-- $R_{sed}$ -->
    <g transform="translate(113.4725 65.063219) scale(0.125 -0.125)">
     <defs>
      <path id="DejaVuSans-Oblique-73" d="M 3200 3397 
L 3091 2853 
Q 2863 2978 2609 3040 
Q 2356 3103 2088 3103 
Q 1634 3103 1373 2948 
Q 1113 2794 1113 2528 
Q 1113 2219 1719 2053 
Q 1766 2041 1788 2034 
L 1972 1978 
Q 2547 1819 2739 1644 
Q 2931 1469 2931 1166 
Q 2931 609 2489 259 
Q 2047 -91 1331 -91 
Q 1053 -91 747 -37 
Q 441 16 72 128 
L 184 722 
Q 500 559 806 475 
Q 1113 391 1394 391 
Q 1816 391 2080 572 
Q 2344 753 2344 1031 
Q 2344 1331 1650 1516 
L 1591 1531 
L 1394 1581 
Q 956 1697 753 1886 
Q 550 2075 550 2369 
Q 550 2928 970 3256 
Q 1391 3584 2113 3584 
Q 2397 3584 2667 3537 
Q 2938 3491 3200 3397 
z
" transform="scale(0.015625)"/>
      <path id="DejaVuSans-Oblique-65" d="M 3078 2063 
Q 3088 2113 3092 2166 
Q 3097 2219 3097 2272 
Q 3097 2653 2873 2875 
Q 2650 3097 2266 3097 
Q 1838 3097 1509 2826 
Q 1181 2556 1013 2059 
L 3078 2063 
z
M 3578 1613 
L 903 1613 
Q 884 1494 878 1425 
Q 872 1356 872 1306 
Q 872 872 1139 634 
Q 1406 397 1894 397 
Q 2269 397 2603 481 
Q 2938 566 3225 728 
L 3116 159 
Q 2806 34 2476 -28 
Q 2147 -91 1806 -91 
Q 1078 -91 686 257 
Q 294 606 294 1247 
Q 294 1794 489 2264 
Q 684 2734 1063 3103 
Q 1306 3334 1642 3459 
Q 1978 3584 2356 3584 
Q 2950 3584 3301 3228 
Q 3653 2872 3653 2272 
Q 3653 2128 3634 1964 
Q 3616 1800 3578 1613 
z
" transform="scale(0.015625)"/>
      <path id="DejaVuSans-Oblique-64" d="M 2675 525 
Q 2444 222 2128 65 
Q 1813 -91 1428 -91 
Q 903 -91 598 267 
Q 294 625 294 1247 
Q 294 1766 478 2236 
Q 663 2706 1013 3078 
Q 1244 3325 1534 3454 
Q 1825 3584 2144 3584 
Q 2481 3584 2739 3421 
Q 2997 3259 3138 2956 
L 3513 4863 
L 4091 4863 
L 3144 0 
L 2566 0 
L 2675 525 
z
M 891 1350 
Q 891 897 1095 644 
Q 1300 391 1663 391 
Q 1931 391 2161 520 
Q 2391 650 2566 903 
Q 2750 1166 2856 1509 
Q 2963 1853 2963 2188 
Q 2963 2622 2758 2865 
Q 2553 3109 2194 3109 
Q 1922 3109 1687 2981 
Q 1453 2853 1288 2613 
Q 1106 2353 998 2009 
Q 891 1666 891 1350 
z
" transform="scale(0.015625)"/>
     </defs>
     <use xlink:href="#DejaVuSans-Oblique-52" transform="translate(0 0.09375)"/>
     <use xlink:href="#DejaVuSans-Oblique-73" transform="translate(69.482422 -16.3125) scale(0.7)"/>
     <use xlink:href="#DejaVuSans-Oblique-65" transform="translate(105.952148 -16.3125) scale(0.7)"/>
     <use xlink:href="#DejaVuSans-Oblique-64" transform="translate(149.018555 -16.3125) scale(0.7)"/>
    </g>
   </g>
   <g id="text_4">
    <!-- $V_{DD}$ -->
    <g transform="translate(139.51 14.014391) scale(0.125 -0.125)">
     <defs>
      <path id="DejaVuSans-Oblique-56" d="M 1319 0 
L 500 4666 
L 1119 4666 
L 1797 653 
L 4063 4666 
L 4750 4666 
L 2053 0 
L 1319 0 
z
" transform="scale(0.015625)"/>
      <path id="DejaVuSans-Oblique-44" d="M 1081 4666 
L 2438 4666 
Q 3519 4666 4070 4208 
Q 4622 3750 4622 2847 
Q 4622 2250 4412 1698 
Q 4203 1147 3834 769 
Q 3463 381 2891 190 
Q 2319 0 1538 0 
L 172 0 
L 1081 4666 
z
M 1613 4147 
L 909 519 
L 1734 519 
Q 2794 519 3375 1128 
Q 3956 1738 3956 2847 
Q 3956 3519 3581 3833 
Q 3206 4147 2406 4147 
L 1613 4147 
z
" transform="scale(0.015625)"/>
     </defs>
     <use xlink:href="#DejaVuSans-Oblique-56" transform="translate(0 0.09375)"/>
     <use xlink:href="#DejaVuSans-Oblique-44" transform="translate(68.408203 -16.3125) scale(0.7)"/>
     <use xlink:href="#DejaVuSans-Oblique-44" transform="translate(122.30957 -16.3125) scale(0.7)"/>
    </g>
   </g>
   <g id="text_5">
    <!-- -$V_{DD}$ -->
    <g transform="translate(137.1975 360.432047) scale(0.125 -0.125)">
     <defs>
      <path id="DejaVuSans-2d" d="M 313 2009 
L 1997 2009 
L 1997 1497 
L 313 1497 
L 313 2009 
z
" transform="scale(0.015625)"/>
     </defs>
     <use xlink:href="#DejaVuSans-2d" transform="translate(0 0.09375)"/>
     <use xlink:href="#DejaVuSans-Oblique-56" transform="translate(36.083984 0.09375)"/>
     <use xlink:href="#DejaVuSans-Oblique-44" transform="translate(104.492188 -16.3125) scale(0.7)"/>
     <use xlink:href="#DejaVuSans-Oblique-44" transform="translate(158.393555 -16.3125) scale(0.7)"/>
    </g>
   </g>
   <g id="text_6">
    <!-- $R_{s1}$ -->
    <g transform="translate(54.0475 77.603219) scale(0.125 -0.125)">
     <use xlink:href="#DejaVuSans-Oblique-52" transform="translate(0 0.09375)"/>
     <use xlink:href="#DejaVuSans-Oblique-73" transform="translate(69.482422 -16.3125) scale(0.7)"/>
     <use xlink:href="#DejaVuSans-31" transform="translate(105.952148 -16.3125) scale(0.7)"/>
    </g>
   </g>
   <g id="text_7">
    <!-- $R_{s2}$ -->
    <g transform="translate(54.0475 147.683219) scale(0.125 -0.125)">
     <use xlink:href="#DejaVuSans-Oblique-52" transform="translate(0 0.09375)"/>
     <use xlink:href="#DejaVuSans-Oblique-73" transform="translate(69.482422 -16.3125) scale(0.7)"/>
     <use xlink:href="#DejaVuSans-32" transform="translate(105.952148 -16.3125) scale(0.7)"/>
    </g>
   </g>
   <g id="text_8">
    <!-- $R_L$ -->
    <g transform="translate(259.1575 259.103219) scale(0.125 -0.125)">
     <defs>
      <path id="DejaVuSans-Oblique-4c" d="M 1075 4666 
L 1709 4666 
L 909 525 
L 3181 525 
L 3078 0 
L 172 0 
L 1075 4666 
z
" transform="scale(0.015625)"/>
     </defs>
     <use xlink:href="#DejaVuSans-Oblique-52" transform="translate(0 0.09375)"/>
     <use xlink:href="#DejaVuSans-Oblique-4c" transform="translate(69.482422 -16.3125) scale(0.7)"/>
    </g>
   </g>
   <g id="text_9">
    <!-- $R_I$ -->
    <g transform="translate(261.5325 309.503219) scale(0.125 -0.125)">
     <defs>
      <path id="DejaVuSans-Oblique-49" d="M 1081 4666 
L 1716 4666 
L 806 0 
L 172 0 
L 1081 4666 
z
" transform="scale(0.015625)"/>
     </defs>
     <use xlink:href="#DejaVuSans-Oblique-52" transform="translate(0 0.09375)"/>
     <use xlink:href="#DejaVuSans-Oblique-49" transform="translate(69.482422 -16.3125) scale(0.7)"/>
    </g>
   </g>
   <g id="text_10">
    <!-- - -->
    <g transform="translate(344.702617 272.603219) scale(0.125 -0.125)">
     <use xlink:href="#DejaVuSans-2d"/>
    </g>
   </g>
   <g id="text_11">
    <!-- $v_{out}$ -->
    <g transform="translate(335.895 259.103219) scale(0.125 -0.125)">
     <defs>
      <path id="DejaVuSans-Oblique-6f" d="M 1625 -91 
Q 1009 -91 651 289 
Q 294 669 294 1325 
Q 294 1706 417 2101 
Q 541 2497 738 2766 
Q 1047 3184 1428 3384 
Q 1809 3584 2291 3584 
Q 2888 3584 3255 3212 
Q 3622 2841 3622 2241 
Q 3622 1825 3500 1412 
Q 3378 1000 3181 728 
Q 2875 309 2494 109 
Q 2113 -91 1625 -91 
z
M 891 1344 
Q 891 869 1089 633 
Q 1288 397 1691 397 
Q 2269 397 2648 901 
Q 3028 1406 3028 2181 
Q 3028 2634 2825 2865 
Q 2622 3097 2228 3097 
Q 1903 3097 1650 2945 
Q 1397 2794 1197 2484 
Q 1050 2253 970 1956 
Q 891 1659 891 1344 
z
" transform="scale(0.015625)"/>
      <path id="DejaVuSans-Oblique-75" d="M 428 1388 
L 838 3500 
L 1416 3500 
L 1006 1409 
Q 975 1256 961 1147 
Q 947 1038 947 966 
Q 947 700 1109 554 
Q 1272 409 1569 409 
Q 2031 409 2368 721 
Q 2706 1034 2809 1563 
L 3194 3500 
L 3769 3500 
L 3091 0 
L 2516 0 
L 2631 550 
Q 2388 244 2052 76 
Q 1716 -91 1338 -91 
Q 878 -91 622 161 
Q 366 413 366 863 
Q 366 956 381 1097 
Q 397 1238 428 1388 
z
" transform="scale(0.015625)"/>
      <path id="DejaVuSans-Oblique-74" d="M 2706 3500 
L 2619 3053 
L 1472 3053 
L 1100 1153 
Q 1081 1047 1072 975 
Q 1063 903 1063 863 
Q 1063 663 1183 572 
Q 1303 481 1569 481 
L 2150 481 
L 2053 0 
L 1503 0 
Q 991 0 739 200 
Q 488 400 488 806 
Q 488 878 497 964 
Q 506 1050 525 1153 
L 897 3053 
L 409 3053 
L 500 3500 
L 978 3500 
L 1172 4494 
L 1747 4494 
L 1556 3500 
L 2706 3500 
z
" transform="scale(0.015625)"/>
     </defs>
     <use xlink:href="#DejaVuSans-Oblique-76" transform="translate(0 0.3125)"/>
     <use xlink:href="#DejaVuSans-Oblique-6f" transform="translate(59.179688 -16.09375) scale(0.7)"/>
     <use xlink:href="#DejaVuSans-Oblique-75" transform="translate(102.006836 -16.09375) scale(0.7)"/>
     <use xlink:href="#DejaVuSans-Oblique-74" transform="translate(146.37207 -16.09375) scale(0.7)"/>
    </g>
   </g>
   <g id="text_12">
    <!-- $+$ -->
    <g transform="translate(341.7075 245.603219) scale(0.125 -0.125)">
     <defs>
      <path id="DejaVuSans-2b" d="M 2944 4013 
L 2944 2272 
L 4684 2272 
L 4684 1741 
L 2944 1741 
L 2944 0 
L 2419 0 
L 2419 1741 
L 678 1741 
L 678 2272 
L 2419 2272 
L 2419 4013 
L 2944 4013 
z
" transform="scale(0.015625)"/>
     </defs>
     <use xlink:href="#DejaVuSans-2b" transform="translate(0 0.296875)"/>
    </g>
   </g>
   <g id="text_13">
    <!-- - -->
    <g transform="translate(344.702617 321.203219) scale(0.125 -0.125)">
     <use xlink:href="#DejaVuSans-2d"/>
    </g>
   </g>
   <g id="text_14">
    <!-- $v_{meet}$ -->
    <g transform="translate(331.7075 309.503219) scale(0.125 -0.125)">
     <defs>
      <path id="DejaVuSans-Oblique-6d" d="M 5747 2113 
L 5338 0 
L 4763 0 
L 5166 2094 
Q 5191 2228 5203 2325 
Q 5216 2422 5216 2491 
Q 5216 2772 5059 2928 
Q 4903 3084 4622 3084 
Q 4203 3084 3875 2770 
Q 3547 2456 3450 1953 
L 3066 0 
L 2491 0 
L 2900 2094 
Q 2925 2209 2937 2307 
Q 2950 2406 2950 2484 
Q 2950 2769 2794 2926 
Q 2638 3084 2363 3084 
Q 1938 3084 1609 2770 
Q 1281 2456 1184 1953 
L 800 0 
L 225 0 
L 909 3500 
L 1484 3500 
L 1375 2956 
Q 1609 3263 1923 3423 
Q 2238 3584 2597 3584 
Q 2978 3584 3223 3384 
Q 3469 3184 3519 2828 
Q 3781 3197 4126 3390 
Q 4472 3584 4856 3584 
Q 5306 3584 5551 3325 
Q 5797 3066 5797 2591 
Q 5797 2488 5784 2364 
Q 5772 2241 5747 2113 
z
" transform="scale(0.015625)"/>
     </defs>
     <use xlink:href="#DejaVuSans-Oblique-76" transform="translate(0 0.3125)"/>
     <use xlink:href="#DejaVuSans-Oblique-6d" transform="translate(59.179688 -16.09375) scale(0.7)"/>
     <use xlink:href="#DejaVuSans-Oblique-65" transform="translate(127.368164 -16.09375) scale(0.7)"/>
     <use xlink:href="#DejaVuSans-Oblique-65" transform="translate(170.43457 -16.09375) scale(0.7)"/>
     <use xlink:href="#DejaVuSans-Oblique-74" transform="translate(213.500977 -16.09375) scale(0.7)"/>
    </g>
   </g>
   <g id="text_15">
    <!-- $+$ -->
    <g transform="translate(341.7075 297.803219) scale(0.125 -0.125)">
     <use xlink:href="#DejaVuSans-2b" transform="translate(0 0.296875)"/>
    </g>
   </g>
   <g id="patch_13">
    <path d="M 150.6975 177.474 
C 151.413548 177.474 152.100366 177.189511 152.606688 176.683188 
C 153.113011 176.176866 153.3975 175.490048 153.3975 174.774 
C 153.3975 174.057952 153.113011 173.371134 152.606688 172.864812 
C 152.100366 172.358489 151.413548 172.074 150.6975 172.074 
C 149.981452 172.074 149.294634 172.358489 148.788312 172.864812 
C 148.281989 173.371134 147.9975 174.057952 147.9975 174.774 
C 147.9975 175.490048 148.281989 176.176866 148.788312 176.683188 
C 149.294634 177.189511 149.981452 177.474 150.6975 177.474 
z
" clip-path="url(#pa92bb56ec3)" style="stroke: #000000; stroke-width: 2; stroke-linejoin: miter"/>
   </g>
   <g id="patch_14">
    <path d="M 150.6975 285.474 
C 151.413548 285.474 152.100366 285.189511 152.606688 284.683188 
C 153.113011 284.176866 153.3975 283.490048 153.3975 282.774 
C 153.3975 282.057952 153.113011 281.371134 152.606688 280.864812 
C 152.100366 280.358489 151.413548 280.074 150.6975 280.074 
C 149.981452 280.074 149.294634 280.358489 148.788312 280.864812 
C 148.281989 281.371134 147.9975 282.057952 147.9975 282.774 
C 147.9975 283.490048 148.281989 284.176866 148.788312 284.683188 
C 149.294634 285.189511 149.981452 285.474 150.6975 285.474 
z
" clip-path="url(#pa92bb56ec3)" style="stroke: #000000; stroke-width: 2; stroke-linejoin: miter"/>
   </g>
   <g id="patch_15">
    <path d="M 177.7575 177.474 
C 178.473548 177.474 179.160366 177.189511 179.666688 176.683188 
C 180.173011 176.176866 180.4575 175.490048 180.4575 174.774 
C 180.4575 174.057952 180.173011 173.371134 179.666688 172.864812 
C 179.160366 172.358489 178.473548 172.074 177.7575 172.074 
C 177.041452 172.074 176.354634 172.358489 175.848312 172.864812 
C 175.341989 173.371134 175.0575 174.057952 175.0575 174.774 
C 175.0575 175.490048 175.341989 176.176866 175.848312 176.683188 
C 176.354634 177.189511 177.041452 177.474 177.7575 177.474 
z
" clip-path="url(#pa92bb56ec3)" style="stroke: #000000; stroke-width: 2; stroke-linejoin: miter"/>
   </g>
   <g id="patch_16">
    <path d="M 177.7575 285.474 
C 178.473548 285.474 179.160366 285.189511 179.666688 284.683188 
C 180.173011 284.176866 180.4575 283.490048 180.4575 282.774 
C 180.4575 282.057952 180.173011 281.371134 179.666688 280.864812 
C 179.160366 280.358489 178.473548 280.074 177.7575 280.074 
C 177.041452 280.074 176.354634 280.358489 175.848312 280.864812 
C 175.341989 281.371134 175.0575 282.057952 175.0575 282.774 
C 175.0575 283.490048 175.341989 284.176866 175.848312 284.683188 
C 176.354634 285.189511 177.041452 285.474 177.7575 285.474 
z
" clip-path="url(#pa92bb56ec3)" style="stroke: #000000; stroke-width: 2; stroke-linejoin: miter"/>
   </g>
   <g id="patch_17">
    <path d="M 150.6975 37.314 
C 151.413548 37.314 152.100366 37.029511 152.606688 36.523188 
C 153.113011 36.016866 153.3975 35.330048 153.3975 34.614 
C 153.3975 33.897952 153.113011 33.211134 152.606688 32.704812 
C 152.100366 32.198489 151.413548 31.914 150.6975 31.914 
C 149.981452 31.914 149.294634 32.198489 148.788312 32.704812 
C 148.281989 33.211134 147.9975 33.897952 147.9975 34.614 
C 147.9975 35.330048 148.281989 36.016866 148.788312 36.523188 
C 149.294634 37.029511 149.981452 37.314 150.6975 37.314 
z
" clip-path="url(#pa92bb56ec3)" style="stroke: #000000; stroke-width: 2; stroke-linejoin: miter"/>
   </g>
   <g id="patch_18">
    <path d="M 150.6975 335.634 
C 151.413548 335.634 152.100366 335.349511 152.606688 334.843188 
C 153.113011 334.336866 153.3975 333.650048 153.3975 332.934 
C 153.3975 332.217952 153.113011 331.531134 152.606688 331.024812 
C 152.100366 330.518489 151.413548 330.234 150.6975 330.234 
C 149.981452 330.234 149.294634 330.518489 148.788312 331.024812 
C 148.281989 331.531134 147.9975 332.217952 147.9975 332.934 
C 147.9975 333.650048 148.281989 334.336866 148.788312 334.843188 
C 149.294634 335.349511 149.981452 335.634 150.6975 335.634 
z
" clip-path="url(#pa92bb56ec3)" style="stroke: #000000; stroke-width: 2; stroke-linejoin: miter"/>
   </g>
   <g id="patch_19">
    <path d="M 33.6375 310.554 
C 34.353548 310.554 35.040366 310.269511 35.546688 309.763188 
C 36.053011 309.256866 36.3375 308.570048 36.3375 307.854 
C 36.3375 307.137952 36.053011 306.451134 35.546688 305.944812 
C 35.040366 305.438489 34.353548 305.154 33.6375 305.154 
C 32.921452 305.154 32.234634 305.438489 31.728312 305.944812 
C 31.221989 306.451134 30.9375 307.137952 30.9375 307.854 
C 30.9375 308.570048 31.221989 309.256866 31.728312 309.763188 
C 32.234634 310.269511 32.921452 310.554 33.6375 310.554 
z
" clip-path="url(#pa92bb56ec3)" style="fill: #ffffff; stroke: #000000; stroke-width: 2; stroke-linejoin: miter"/>
   </g>
   <g id="text_16">
    <!-- $V_{in}$ -->
    <g transform="translate(3.6 309.754391) scale(0.125 -0.125)">
     <defs>
      <path id="DejaVuSans-Oblique-69" d="M 1172 4863 
L 1747 4863 
L 1606 4134 
L 1031 4134 
L 1172 4863 
z
M 909 3500 
L 1484 3500 
L 800 0 
L 225 0 
L 909 3500 
z
" transform="scale(0.015625)"/>
      <path id="DejaVuSans-Oblique-6e" d="M 3566 2113 
L 3156 0 
L 2578 0 
L 2988 2091 
Q 3016 2238 3031 2350 
Q 3047 2463 3047 2528 
Q 3047 2791 2881 2937 
Q 2716 3084 2419 3084 
Q 1956 3084 1622 2776 
Q 1288 2469 1184 1941 
L 800 0 
L 225 0 
L 903 3500 
L 1478 3500 
L 1363 2950 
Q 1603 3253 1940 3418 
Q 2278 3584 2650 3584 
Q 3113 3584 3367 3334 
Q 3622 3084 3622 2631 
Q 3622 2519 3608 2391 
Q 3594 2263 3566 2113 
z
" transform="scale(0.015625)"/>
     </defs>
     <use xlink:href="#DejaVuSans-Oblique-56" transform="translate(0 0.09375)"/>
     <use xlink:href="#DejaVuSans-Oblique-69" transform="translate(68.408203 -16.3125) scale(0.7)"/>
     <use xlink:href="#DejaVuSans-Oblique-6e" transform="translate(87.856445 -16.3125) scale(0.7)"/>
    </g>
   </g>
   <g id="patch_20">
    <path d="M 231.7575 231.354 
C 232.473548 231.354 233.160366 231.069511 233.666688 230.563188 
C 234.173011 230.056866 234.4575 229.370048 234.4575 228.654 
C 234.4575 227.937952 234.173011 227.251134 233.666688 226.744812 
C 233.160366 226.238489 232.473548 225.954 231.7575 225.954 
C 231.041452 225.954 230.354634 226.238489 229.848312 226.744812 
C 229.341989 227.251134 229.0575 227.937952 229.0575 228.654 
C 229.0575 229.370048 229.341989 230.056866 229.848312 230.563188 
C 230.354634 231.069511 231.041452 231.354 231.7575 231.354 
z
" clip-path="url(#pa92bb56ec3)" style="stroke: #000000; stroke-width: 2; stroke-linejoin: miter"/>
   </g>
   <g id="patch_21">
    <path d="M 85.8975 116.394 
C 86.613548 116.394 87.300366 116.109511 87.806688 115.603188 
C 88.313011 115.096866 88.5975 114.410048 88.5975 113.694 
C 88.5975 112.977952 88.313011 112.291134 87.806688 111.784812 
C 87.300366 111.278489 86.613548 110.994 85.8975 110.994 
C 85.181452 110.994 84.494634 111.278489 83.988312 111.784812 
C 83.481989 112.291134 83.1975 112.977952 83.1975 113.694 
C 83.1975 114.410048 83.481989 115.096866 83.988312 115.603188 
C 84.494634 116.109511 85.181452 116.394 85.8975 116.394 
z
" clip-path="url(#pa92bb56ec3)" style="stroke: #000000; stroke-width: 2; stroke-linejoin: miter"/>
   </g>
   <g id="patch_22">
    <path d="M 339.7575 231.354 
C 340.473548 231.354 341.160366 231.069511 341.666688 230.563188 
C 342.173011 230.056866 342.4575 229.370048 342.4575 228.654 
C 342.4575 227.937952 342.173011 227.251134 341.666688 226.744812 
C 341.160366 226.238489 340.473548 225.954 339.7575 225.954 
C 339.041452 225.954 338.354634 226.238489 337.848312 226.744812 
C 337.341989 227.251134 337.0575 227.937952 337.0575 228.654 
C 337.0575 229.370048 337.341989 230.056866 337.848312 230.563188 
C 338.354634 231.069511 339.041452 231.354 339.7575 231.354 
z
" clip-path="url(#pa92bb56ec3)" style="fill: #ffffff; stroke: #000000; stroke-width: 2; stroke-linejoin: miter"/>
   </g>
   <g id="patch_23">
    <path d="M 339.7575 285.354 
C 340.473548 285.354 341.160366 285.069511 341.666688 284.563188 
C 342.173011 284.056866 342.4575 283.370048 342.4575 282.654 
C 342.4575 281.937952 342.173011 281.251134 341.666688 280.744812 
C 341.160366 280.238489 340.473548 279.954 339.7575 279.954 
C 339.041452 279.954 338.354634 280.238489 337.848312 280.744812 
C 337.341989 281.251134 337.0575 281.937952 337.0575 282.654 
C 337.0575 283.370048 337.341989 284.056866 337.848312 284.563188 
C 338.354634 285.069511 339.041452 285.354 339.7575 285.354 
z
" clip-path="url(#pa92bb56ec3)" style="fill: #ffffff; stroke: #000000; stroke-width: 2; stroke-linejoin: miter"/>
   </g>
   <g id="patch_24">
    <path d="M 339.7575 332.154 
C 340.473548 332.154 341.160366 331.869511 341.666688 331.363188 
C 342.173011 330.856866 342.4575 330.170048 342.4575 329.454 
C 342.4575 328.737952 342.173011 328.051134 341.666688 327.544812 
C 341.160366 327.038489 340.473548 326.754 339.7575 326.754 
C 339.041452 326.754 338.354634 327.038489 337.848312 327.544812 
C 337.341989 328.051134 337.0575 328.737952 337.0575 329.454 
C 337.0575 330.170048 337.341989 330.856866 337.848312 331.363188 
C 338.354634 331.869511 339.041452 332.154 339.7575 332.154 
z
" clip-path="url(#pa92bb56ec3)" style="fill: #ffffff; stroke: #000000; stroke-width: 2; stroke-linejoin: miter"/>
   </g>
  </g>
 </g>
 <defs>
  <clipPath id="pa92bb56ec3">
   <rect x="15.3615" y="3.6" width="342.672" height="365.508"/>
  </clipPath>
 </defs>
</svg>