<?xml version="1.0" encoding="utf-8" standalone="no"?>
<!DOCTYPE svg PUBLIC "-//W3C//DTD SVG 1.1//EN"
  "http://www.w3.org/Graphics/SVG/1.1/DTD/svg11.dtd">
<svg xmlns:xlink="http://www.w3.org/1999/xlink" width="179.64pt" height="117.800512pt" viewBox="0 0 179.64 117.800512" xmlns="http://www.w3.org/2000/svg" version="1.1">
 <metadata>
  <rdf:RDF xmlns:dc="http://purl.org/dc/elements/1.1/" xmlns:cc="http://creativecommons.org/ns#" xmlns:rdf="http://www.w3.org/1999/02/22-rdf-syntax-ns#">
   <cc:Work>
    <dc:type rdf:resource="http://purl.org/dc/dcmitype/StillImage"/>
    <dc:date>2024-07-02T23:34:16.680524</dc:date>
    <dc:format>image/svg+xml</dc:format>
    <dc:creator>
     <cc:Agent>
      <dc:title>Matplotlib v3.8.4, https://matplotlib.org/</dc:title>
     </cc:Agent>
    </dc:creator>
   </cc:Work>
  </rdf:RDF>
 </metadata>
 <defs>
  <style type="text/css">*{stroke-linejoin: round; stroke-linecap: butt}</style>
 </defs>
 <g id="figure_1">
  <g id="patch_1">
   <path d="M 0 117.800512 
L 179.64 117.800512 
L 179.64 0 
L 0 0 
z
" style="fill: #ffffff"/>
  </g>
  <g id="axes_1">
   <g id="line2d_1">
    <path d="M 62.604 107.520512 
L 64.066912 107.45101 
L 65.568187 107.23956 
L 67.07618 106.884003 
L 68.559107 106.385217 
L 69.985709 105.747101 
L 71.325917 104.976488 
L 72.551481 104.083007 
L 73.636568 103.078873 
L 74.558308 101.978637 
L 75.297271 100.798874 
L 75.837881 99.557835 
L 76.168744 98.275063 
L 76.282884 96.970981 
L 76.177898 95.666461 
L 75.855996 94.382383 
L 75.323965 93.139198 
L 74.593018 91.956494 
L 73.678564 90.852585 
L 72.599876 89.844123 
L 71.379691 88.945749 
L 70.04373 88.169783 
L 68.62015 87.525964 
L 67.13896 87.021249 
L 65.63138 86.659659 
L 64.129186 86.442201 
L 62.664043 86.366841 
L 61.266833 86.428553 
L 59.967006 86.61942 
L 58.791961 86.928803 
L 57.766465 87.343565 
L 56.912134 87.848348 
L 56.246976 88.425895 
L 55.785011 89.057418 
L 55.535977 89.722989 
L 55.505122 90.401963 
L 55.693097 91.073413 
L 56.09594 91.716571 
L 56.70516 92.311262 
L 57.507915 92.838338 
L 58.487285 93.280071 
L 59.622626 93.620536 
L 60.890008 93.84594 
L 62.262716 93.944916 
L 63.711816 93.908762 
L 65.206764 93.731624 
L 66.716049 93.410621 
L 68.207858 92.945901 
L 69.650746 92.340646 
L 71.0143 91.600997 
L 72.269779 90.735928 
L 73.390719 89.757058 
L 74.353494 88.678403 
L 75.137808 87.516084 
L 75.727131 86.287985 
L 76.109041 85.013376 
L 76.275487 83.712507 
L 76.222962 82.406183 
L 75.952572 81.115322 
L 75.470017 79.860518 
L 74.785468 78.661604 
L 73.913355 77.537236 
L 72.872059 76.504496 
L 71.683529 75.578537 
L 70.372818 74.772261 
L 68.967553 74.096048 
L 67.497354 73.557533 
L 65.993211 73.161454 
L 64.486828 72.909541 
L 63.009956 72.80049 
L 61.593727 72.829983 
L 60.26799 72.990782 
L 59.060691 73.272883 
L 57.997277 73.663723 
L 57.100163 74.148448 
L 56.388258 74.710225 
L 55.876569 75.330598 
L 55.57588 75.989874 
L 55.492529 76.66754 
L 55.628275 77.342697 
L 55.980254 77.994499 
L 56.541048 78.602589 
L 57.298837 79.147536 
L 58.237648 79.611236 
L 59.337691 79.977301 
L 60.575782 80.231397 
L 61.925822 80.361554 
L 63.359355 80.358411 
L 64.846165 80.21542 
L 66.354913 79.928979 
L 67.853798 79.498509 
L 69.311224 78.926467 
L 70.696473 78.218297 
L 71.980345 77.382308 
L 73.13578 76.429507 
L 74.138422 75.37336 
L 74.967138 74.229514 
L 75.60446 73.015462 
L 76.036955 71.750179 
L 76.255505 70.453719 
L 76.255505 69.146793 
L 76.036955 67.850333 
L 75.60446 66.585051 
L 74.967138 65.370999 
L 74.138422 64.227152 
L 73.13578 63.171006 
L 71.980345 62.218204 
L 70.696473 61.382215 
L 69.311224 60.674045 
L 67.853798 60.102004 
L 66.354913 59.671534 
L 64.846165 59.385092 
L 63.359355 59.242101 
L 61.925822 59.238959 
L 60.575782 59.369115 
L 59.337691 59.623212 
L 58.237648 59.989276 
L 57.298837 60.452976 
L 56.541048 60.997923 
L 55.980254 61.606014 
L 55.628275 62.257815 
L 55.492529 62.932972 
L 55.57588 63.610639 
L 55.876569 64.269914 
L 56.388258 64.890287 
L 57.100163 65.452065 
L 57.997277 65.93679 
L 59.060691 66.32763 
L 60.26799 66.60973 
L 61.593727 66.77053 
L 63.009956 66.800023 
L 64.486828 66.690971 
L 65.993211 66.439059 
L 67.497354 66.042979 
L 68.967553 65.504465 
L 70.372818 64.828251 
L 71.683529 64.021975 
L 72.872059 63.096017 
L 73.913355 62.063277 
L 74.785468 60.938908 
L 75.470017 59.739994 
L 75.952572 58.48519 
L 76.222962 57.19433 
L 76.275487 55.888006 
L 76.109041 54.587137 
L 75.727131 53.312528 
L 75.137808 52.084428 
L 74.353494 50.92211 
L 73.390719 49.843455 
L 72.269779 48.864585 
L 71.0143 47.999516 
L 69.650746 47.259866 
L 68.207858 46.654611 
L 66.716049 46.189892 
L 65.206764 45.868888 
L 63.711816 45.69175 
L 62.262716 45.655596 
L 60.890008 45.754572 
L 59.622626 45.979976 
L 58.487285 46.320441 
L 57.507915 46.762175 
L 56.70516 47.28925 
L 56.09594 47.883942 
L 55.693097 48.527099 
L 55.505122 49.198549 
L 55.535977 49.877523 
L 55.785011 50.543094 
L 56.246976 51.174617 
L 56.912134 51.752165 
L 57.766465 52.256947 
L 58.791961 52.671709 
L 59.967006 52.981092 
L 61.266833 53.171959 
L 62.664043 53.233671 
L 64.129186 53.158312 
L 65.63138 52.940853 
L 67.13896 52.579263 
L 68.62015 52.074548 
L 70.04373 51.43073 
L 71.379691 50.654764 
L 72.599876 49.756389 
L 73.678564 48.747927 
L 74.593018 47.644018 
L 75.323965 46.461314 
L 75.855996 45.21813 
L 76.177898 43.934052 
L 76.282884 42.629531 
L 76.168744 41.325449 
L 75.837881 40.042678 
L 75.297271 38.801638 
L 74.558308 37.621875 
L 73.636568 36.521639 
L 72.551481 35.517506 
L 71.325917 34.624024 
L 69.985709 33.853412 
L 68.559107 33.215295 
L 67.07618 32.71651 
L 65.568187 32.360952 
L 64.066912 32.149502 
L 62.604 32.08 
L 62.604 32.08 
" clip-path="url(#pf0bb91882e)" style="fill: none; stroke: #000000; stroke-width: 2; stroke-linecap: round"/>
   </g>
   <g id="line2d_2">
    <path d="M 113.004 107.520512 
L 111.541088 107.45101 
L 110.039813 107.23956 
L 108.53182 106.884003 
L 107.048893 106.385217 
L 105.622291 105.747101 
L 104.282083 104.976488 
L 103.056519 104.083007 
L 101.971432 103.078873 
L 101.049692 101.978637 
L 100.310729 100.798874 
L 99.770119 99.557835 
L 99.439256 98.275063 
L 99.325116 96.970981 
L 99.430102 95.666461 
L 99.752004 94.382383 
L 100.284035 93.139198 
L 101.014982 91.956494 
L 101.929436 90.852585 
L 103.008124 89.844123 
L 104.228309 88.945749 
L 105.56427 88.169783 
L 106.98785 87.525964 
L 108.46904 87.021249 
L 109.97662 86.659659 
L 111.478814 86.442201 
L 112.943957 86.366841 
L 114.341167 86.428553 
L 115.640994 86.61942 
L 116.816039 86.928803 
L 117.841535 87.343565 
L 118.695866 87.848348 
L 119.361024 88.425895 
L 119.822989 89.057418 
L 120.072023 89.722989 
L 120.102878 90.401963 
L 119.914903 91.073413 
L 119.51206 91.716571 
L 118.90284 92.311262 
L 118.100085 92.838338 
L 117.120715 93.280071 
L 115.985374 93.620536 
L 114.717992 93.84594 
L 113.345284 93.944916 
L 111.896184 93.908762 
L 110.401236 93.731624 
L 108.891951 93.410621 
L 107.400142 92.945901 
L 105.957254 92.340646 
L 104.5937 91.600997 
L 103.338221 90.735928 
L 102.217281 89.757058 
L 101.254506 88.678403 
L 100.470192 87.516084 
L 99.880869 86.287985 
L 99.498959 85.013376 
L 99.332513 83.712507 
L 99.385038 82.406183 
L 99.655428 81.115322 
L 100.137983 79.860518 
L 100.822532 78.661604 
L 101.694645 77.537236 
L 102.735941 76.504496 
L 103.924471 75.578537 
L 105.235182 74.772261 
L 106.640447 74.096048 
L 108.110646 73.557533 
L 109.614789 73.161454 
L 111.121172 72.909541 
L 112.598044 72.80049 
L 114.014273 72.829983 
L 115.34001 72.990782 
L 116.547309 73.272883 
L 117.610723 73.663723 
L 118.507837 74.148448 
L 119.219742 74.710225 
L 119.731431 75.330598 
L 120.03212 75.989874 
L 120.115471 76.66754 
L 119.979725 77.342697 
L 119.627746 77.994499 
L 119.066952 78.602589 
L 118.309163 79.147536 
L 117.370352 79.611236 
L 116.270309 79.977301 
L 115.032218 80.231397 
L 113.682178 80.361554 
L 112.248645 80.358411 
L 110.761835 80.21542 
L 109.253087 79.928979 
L 107.754202 79.498509 
L 106.296776 78.926467 
L 104.911527 78.218297 
L 103.627655 77.382308 
L 102.47222 76.429507 
L 101.469578 75.37336 
L 100.640862 74.229514 
L 100.00354 73.015462 
L 99.571045 71.750179 
L 99.352495 70.453719 
L 99.352495 69.146793 
L 99.571045 67.850333 
L 100.00354 66.585051 
L 100.640862 65.370999 
L 101.469578 64.227152 
L 102.47222 63.171006 
L 103.627655 62.218204 
L 104.911527 61.382215 
L 106.296776 60.674045 
L 107.754202 60.102004 
L 109.253087 59.671534 
L 110.761835 59.385092 
L 112.248645 59.242101 
L 113.682178 59.238959 
L 115.032218 59.369115 
L 116.270309 59.623212 
L 117.370352 59.989276 
L 118.309163 60.452976 
L 119.066952 60.997923 
L 119.627746 61.606014 
L 119.979725 62.257815 
L 120.115471 62.932972 
L 120.03212 63.610639 
L 119.731431 64.269914 
L 119.219742 64.890287 
L 118.507837 65.452065 
L 117.610723 65.93679 
L 116.547309 66.32763 
L 115.34001 66.60973 
L 114.014273 66.77053 
L 112.598044 66.800023 
L 111.121172 66.690971 
L 109.614789 66.439059 
L 108.110646 66.042979 
L 106.640447 65.504465 
L 105.235182 64.828251 
L 103.924471 64.021975 
L 102.735941 63.096017 
L 101.694645 62.063277 
L 100.822532 60.938908 
L 100.137983 59.739994 
L 99.655428 58.48519 
L 99.385038 57.19433 
L 99.332513 55.888006 
L 99.498959 54.587137 
L 99.880869 53.312528 
L 100.470192 52.084428 
L 101.254506 50.92211 
L 102.217281 49.843455 
L 103.338221 48.864585 
L 104.5937 47.999516 
L 105.957254 47.259866 
L 107.400142 46.654611 
L 108.891951 46.189892 
L 110.401236 45.868888 
L 111.896184 45.69175 
L 113.345284 45.655596 
L 114.717992 45.754572 
L 115.985374 45.979976 
L 117.120715 46.320441 
L 118.100085 46.762175 
L 118.90284 47.28925 
L 119.51206 47.883942 
L 119.914903 48.527099 
L 120.102878 49.198549 
L 120.072023 49.877523 
L 119.822989 50.543094 
L 119.361024 51.174617 
L 118.695866 51.752165 
L 117.841535 52.256947 
L 116.816039 52.671709 
L 115.640994 52.981092 
L 114.341167 53.171959 
L 112.943957 53.233671 
L 111.478814 53.158312 
L 109.97662 52.940853 
L 108.46904 52.579263 
L 106.98785 52.074548 
L 105.56427 51.43073 
L 104.228309 50.654764 
L 103.008124 49.756389 
L 101.929436 48.747927 
L 101.014982 47.644018 
L 100.284035 46.461314 
L 99.752004 45.21813 
L 99.430102 43.934052 
L 99.325116 42.629531 
L 99.439256 41.325449 
L 99.770119 40.042678 
L 100.310729 38.801638 
L 101.049692 37.621875 
L 101.971432 36.521639 
L 103.056519 35.517506 
L 104.282083 34.624024 
L 105.622291 33.853412 
L 107.048893 33.215295 
L 108.53182 32.71651 
L 110.039813 32.360952 
L 111.541088 32.149502 
L 113.004 32.08 
L 113.004 32.08 
" clip-path="url(#pf0bb91882e)" style="fill: none; stroke: #000000; stroke-width: 2; stroke-linecap: round"/>
   </g>
   <g id="line2d_3">
    <path d="M 82.764 32.08 
L 82.764 107.520512 
" clip-path="url(#pf0bb91882e)" style="fill: none; stroke: #000000; stroke-width: 2; stroke-linecap: round"/>
   </g>
   <g id="line2d_4">
    <path d="M 92.844 32.08 
L 92.844 107.520512 
" clip-path="url(#pf0bb91882e)" style="fill: none; stroke: #000000; stroke-width: 2; stroke-linecap: round"/>
   </g>
   <g id="line2d_5">
    <path d="M 113.004 32.08 
L 131.004 32.08 
L 149.004 32.08 
" clip-path="url(#pf0bb91882e)" style="fill: none; stroke: #000000; stroke-width: 2; stroke-linecap: round"/>
   </g>
   <g id="line2d_6">
    <path d="M 113.004 107.520512 
L 131.004 107.520512 
L 149.004 107.520512 
" clip-path="url(#pf0bb91882e)" style="fill: none; stroke: #000000; stroke-width: 2; stroke-linecap: round"/>
   </g>
   <g id="line2d_7">
    <path d="M 62.604 32.08 
L 44.604 32.08 
L 26.604 32.08 
" clip-path="url(#pf0bb91882e)" style="fill: none; stroke: #000000; stroke-width: 2; stroke-linecap: round"/>
   </g>
   <g id="line2d_8">
    <path d="M 62.604 107.520512 
L 44.604 107.520512 
L 26.604 107.520512 
" clip-path="url(#pf0bb91882e)" style="fill: none; stroke: #000000; stroke-width: 2; stroke-linecap: round"/>
   </g>
   <g id="line2d_9">
    <path d="M 30.204 19.48 
L 12.204 19.48 
" clip-path="url(#pf0bb91882e)" style="fill: none; stroke: #ff0000; stroke-width: 2; stroke-linecap: round"/>
   </g>
   <g id="patch_2">
    <path d="M 30.204 15.88 
L 41.004 19.48 
L 30.204 23.08 
z
" clip-path="url(#pf0bb91882e)" style="fill: #ff0000"/>
   </g>
   <g id="line2d_10">
    <path d="M 163.404 19.48 
L 145.404 19.48 
" clip-path="url(#pf0bb91882e)" style="fill: none; stroke: #ff0000; stroke-width: 2; stroke-linecap: round"/>
   </g>
   <g id="patch_3">
    <path d="M 145.404 23.08 
L 134.604 19.48 
L 145.404 15.88 
z
" clip-path="url(#pf0bb91882e)" style="fill: #ff0000"/>
   </g>
   <g id="text_1">
    <!-- M -->
    <g style="fill: #0000ff" transform="translate(81.764312 25.568438) scale(0.14 -0.14)">
     <defs>
      <path id="DejaVuSans-4d" d="M 628 4666 
L 1569 4666 
L 2759 1491 
L 3956 4666 
L 4897 4666 
L 4897 0 
L 4281 0 
L 4281 4097 
L 3078 897 
L 2444 897 
L 1241 4097 
L 1241 0 
L 628 0 
L 628 4666 
z
" transform="scale(0.015625)"/>
     </defs>
     <use xlink:href="#DejaVuSans-4d"/>
    </g>
   </g>
   <g id="text_2">
    <!-- $L_{ij}$ -->
    <g style="fill: #0000ff" transform="translate(38.172529 72.740256) scale(0.14 -0.14)">
     <defs>
      <path id="DejaVuSans-Oblique-4c" d="M 1075 4666 
L 1709 4666 
L 909 525 
L 3181 525 
L 3078 0 
L 172 0 
L 1075 4666 
z
" transform="scale(0.015625)"/>
      <path id="DejaVuSans-Oblique-69" d="M 1172 4863 
L 1747 4863 
L 1606 4134 
L 1031 4134 
L 1172 4863 
z
M 909 3500 
L 1484 3500 
L 800 0 
L 225 0 
L 909 3500 
z
" transform="scale(0.015625)"/>
      <path id="DejaVuSans-Oblique-6a" d="M 928 3500 
L 1503 3500 
L 813 -63 
L 809 -78 
Q 694 -675 544 -897 
Q 403 -1106 132 -1218 
Q -138 -1331 -506 -1331 
L -722 -1331 
L -628 -844 
L -481 -844 
Q -144 -844 -1 -703 
Q 141 -563 238 -63 
L 928 3500 
z
M 1197 4863 
L 1772 4863 
L 1631 4134 
L 1056 4134 
L 1197 4863 
z
" transform="scale(0.015625)"/>
     </defs>
     <use xlink:href="#DejaVuSans-Oblique-4c" transform="translate(0 0.09375)"/>
     <use xlink:href="#DejaVuSans-Oblique-69" transform="translate(55.712891 -16.3125) scale(0.7)"/>
     <use xlink:href="#DejaVuSans-Oblique-6a" transform="translate(75.161133 -16.3125) scale(0.7)"/>
    </g>
   </g>
   <g id="text_3">
    <!-- $L_{kl}$ -->
    <g style="fill: #0000ff" transform="translate(123.715471 73.663381) scale(0.14 -0.14)">
     <defs>
      <path id="DejaVuSans-Oblique-6b" d="M 1172 4863 
L 1747 4863 
L 1197 2028 
L 3169 3500 
L 3916 3500 
L 1716 1825 
L 3322 0 
L 2625 0 
L 1131 1709 
L 800 0 
L 225 0 
L 1172 4863 
z
" transform="scale(0.015625)"/>
      <path id="DejaVuSans-Oblique-6c" d="M 1172 4863 
L 1747 4863 
L 800 0 
L 225 0 
L 1172 4863 
z
" transform="scale(0.015625)"/>
     </defs>
     <use xlink:href="#DejaVuSans-Oblique-4c" transform="translate(0 0.09375)"/>
     <use xlink:href="#DejaVuSans-Oblique-6b" transform="translate(55.712891 -16.3125) scale(0.7)"/>
     <use xlink:href="#DejaVuSans-Oblique-6c" transform="translate(96.25 -16.3125) scale(0.7)"/>
    </g>
   </g>
   <g id="text_4">
    <!-- $I_{1}$ -->
    <g style="fill: #ff0000" transform="translate(21.214 12.968438) scale(0.14 -0.14)">
     <defs>
      <path id="DejaVuSans-Oblique-49" d="M 1081 4666 
L 1716 4666 
L 806 0 
L 172 0 
L 1081 4666 
z
" transform="scale(0.015625)"/>
      <path id="DejaVuSans-31" d="M 794 531 
L 1825 531 
L 1825 4091 
L 703 3866 
L 703 4441 
L 1819 4666 
L 2450 4666 
L 2450 531 
L 3481 531 
L 3481 0 
L 794 0 
L 794 531 
z
" transform="scale(0.015625)"/>
     </defs>
     <use xlink:href="#DejaVuSans-Oblique-49" transform="translate(0 0.09375)"/>
     <use xlink:href="#DejaVuSans-31" transform="translate(29.492188 -16.3125) scale(0.7)"/>
    </g>
   </g>
   <g id="text_5">
    <!-- $I_{2}$ -->
    <g style="fill: #ff0000" transform="translate(143.614 12.968438) scale(0.14 -0.14)">
     <defs>
      <path id="DejaVuSans-32" d="M 1228 531 
L 3431 531 
L 3431 0 
L 469 0 
L 469 531 
Q 828 903 1448 1529 
Q 2069 2156 2228 2338 
Q 2531 2678 2651 2914 
Q 2772 3150 2772 3378 
Q 2772 3750 2511 3984 
Q 2250 4219 1831 4219 
Q 1534 4219 1204 4116 
Q 875 4013 500 3803 
L 500 4441 
Q 881 4594 1212 4672 
Q 1544 4750 1819 4750 
Q 2544 4750 2975 4387 
Q 3406 4025 3406 3419 
Q 3406 3131 3298 2873 
Q 3191 2616 2906 2266 
Q 2828 2175 2409 1742 
Q 1991 1309 1228 531 
z
" transform="scale(0.015625)"/>
     </defs>
     <use xlink:href="#DejaVuSans-Oblique-49" transform="translate(0 0.09375)"/>
     <use xlink:href="#DejaVuSans-32" transform="translate(29.492188 -16.3125) scale(0.7)"/>
    </g>
   </g>
   <g id="patch_4">
    <path d="M 149.004 34.78 
C 149.720048 34.78 150.406866 34.495511 150.913188 33.989188 
C 151.419511 33.482866 151.704 32.796048 151.704 32.08 
C 151.704 31.363952 151.419511 30.677134 150.913188 30.170812 
C 150.406866 29.664489 149.720048 29.38 149.004 29.38 
C 148.287952 29.38 147.601134 29.664489 147.094812 30.170812 
C 146.588489 30.677134 146.304 31.363952 146.304 32.08 
C 146.304 32.796048 146.588489 33.482866 147.094812 33.989188 
C 147.601134 34.495511 148.287952 34.78 149.004 34.78 
z
" clip-path="url(#pf0bb91882e)" style="fill: #ffffff; stroke: #000000; stroke-width: 2; stroke-linejoin: miter"/>
   </g>
   <g id="text_6">
    <!-- $V_{k}$ -->
    <g transform="translate(155.304 35.943125) scale(0.14 -0.14)">
     <defs>
      <path id="DejaVuSans-Oblique-56" d="M 1319 0 
L 500 4666 
L 1119 4666 
L 1797 653 
L 4063 4666 
L 4750 4666 
L 2053 0 
L 1319 0 
z
" transform="scale(0.015625)"/>
     </defs>
     <use xlink:href="#DejaVuSans-Oblique-56" transform="translate(0 0.09375)"/>
     <use xlink:href="#DejaVuSans-Oblique-6b" transform="translate(68.408203 -16.3125) scale(0.7)"/>
    </g>
   </g>
   <g id="patch_5">
    <path d="M 149.004 110.220512 
C 149.720048 110.220512 150.406866 109.936023 150.913188 109.429701 
C 151.419511 108.923378 151.704 108.236561 151.704 107.520512 
C 151.704 106.804464 151.419511 106.117647 150.913188 105.611324 
C 150.406866 105.105002 149.720048 104.820512 149.004 104.820512 
C 148.287952 104.820512 147.601134 105.105002 147.094812 105.611324 
C 146.588489 106.117647 146.304 106.804464 146.304 107.520512 
C 146.304 108.236561 146.588489 108.923378 147.094812 109.429701 
C 147.601134 109.936023 148.287952 110.220512 149.004 110.220512 
z
" clip-path="url(#pf0bb91882e)" style="fill: #ffffff; stroke: #000000; stroke-width: 2; stroke-linejoin: miter"/>
   </g>
   <g id="text_7">
    <!-- $V_{l}$ -->
    <g transform="translate(155.304 111.383637) scale(0.14 -0.14)">
     <use xlink:href="#DejaVuSans-Oblique-56" transform="translate(0 0.09375)"/>
     <use xlink:href="#DejaVuSans-Oblique-6c" transform="translate(68.408203 -16.3125) scale(0.7)"/>
    </g>
   </g>
   <g id="patch_6">
    <path d="M 26.604 34.78 
C 27.320048 34.78 28.006866 34.495511 28.513188 33.989188 
C 29.019511 33.482866 29.304 32.796048 29.304 32.08 
C 29.304 31.363952 29.019511 30.677134 28.513188 30.170812 
C 28.006866 29.664489 27.320048 29.38 26.604 29.38 
C 25.887952 29.38 25.201134 29.664489 24.694812 30.170812 
C 24.188489 30.677134 23.904 31.363952 23.904 32.08 
C 23.904 32.796048 24.188489 33.482866 24.694812 33.989188 
C 25.201134 34.495511 25.887952 34.78 26.604 34.78 
z
" clip-path="url(#pf0bb91882e)" style="fill: #ffffff; stroke: #000000; stroke-width: 2; stroke-linejoin: miter"/>
   </g>
   <g id="text_8">
    <!-- $V_{i}$ -->
    <g transform="translate(7.564 35.943125) scale(0.14 -0.14)">
     <use xlink:href="#DejaVuSans-Oblique-56" transform="translate(0 0.09375)"/>
     <use xlink:href="#DejaVuSans-Oblique-69" transform="translate(68.408203 -16.3125) scale(0.7)"/>
    </g>
   </g>
   <g id="patch_7">
    <path d="M 26.604 110.220512 
C 27.320048 110.220512 28.006866 109.936023 28.513188 109.429701 
C 29.019511 108.923378 29.304 108.236561 29.304 107.520512 
C 29.304 106.804464 29.019511 106.117647 28.513188 105.611324 
C 28.006866 105.105002 27.320048 104.820512 26.604 104.820512 
C 25.887952 104.820512 25.201134 105.105002 24.694812 105.611324 
C 24.188489 106.117647 23.904 106.804464 23.904 107.520512 
C 23.904 108.236561 24.188489 108.923378 24.694812 109.429701 
C 25.201134 109.936023 25.887952 110.220512 26.604 110.220512 
z
" clip-path="url(#pf0bb91882e)" style="fill: #ffffff; stroke: #000000; stroke-width: 2; stroke-linejoin: miter"/>
   </g>
   <g id="text_9">
    <!-- $V_{j}$ -->
    <g transform="translate(7.564 110.460512) scale(0.14 -0.14)">
     <use xlink:href="#DejaVuSans-Oblique-56" transform="translate(0 0.09375)"/>
     <use xlink:href="#DejaVuSans-Oblique-6a" transform="translate(68.408203 -16.3125) scale(0.7)"/>
    </g>
   </g>
  </g>
 </g>
 <defs>
  <clipPath id="pf0bb91882e">
   <rect x="0" y="0" width="179.64" height="117.800512"/>
  </clipPath>
 </defs>
</svg>