<?xml version="1.0" encoding="utf-8" standalone="no"?>
<!DOCTYPE svg PUBLIC "-//W3C//DTD SVG 1.1//EN"
  "http://www.w3.org/Graphics/SVG/1.1/DTD/svg11.dtd">
<svg xmlns:xlink="http://www.w3.org/1999/xlink" width="231.201pt" height="278.92pt" viewBox="0 0 231.201 278.92" xmlns="http://www.w3.org/2000/svg" version="1.1">
 <metadata>
  <rdf:RDF xmlns:dc="http://purl.org/dc/elements/1.1/" xmlns:cc="http://creativecommons.org/ns#" xmlns:rdf="http://www.w3.org/1999/02/22-rdf-syntax-ns#">
   <cc:Work>
    <dc:type rdf:resource="http://purl.org/dc/dcmitype/StillImage"/>
    <dc:date>2021-12-30T17:16:50.217151</dc:date>
    <dc:format>image/svg+xml</dc:format>
    <dc:creator>
     <cc:Agent>
      <dc:title>Matplotlib v3.5.1, https://matplotlib.org/</dc:title>
     </cc:Agent>
    </dc:creator>
   </cc:Work>
  </rdf:RDF>
 </metadata>
 <defs>
  <style type="text/css">*{stroke-linejoin: round; stroke-linecap: butt}</style>
 </defs>
 <g id="figure_1">
  <g id="patch_1">
   <path d="M 0 278.92 
L 231.201 278.92 
L 231.201 0 
L 0 0 
L 0 278.92 
z
" style="fill: none"/>
  </g>
  <g id="axes_1">
   <g id="patch_2">
    <path d="M 81.0276 105.46 
C 82.650102 105.46 84.207811 104.814776 85.355094 103.667494 
C 86.502376 102.520211 87.1476 100.962502 87.1476 99.34 
C 87.1476 97.717498 86.502376 96.159789 85.355094 95.012506 
C 84.207811 93.865224 82.650102 93.22 81.0276 93.22 
" clip-path="url(#p31adef6022)" style="fill: none; stroke: #000000; stroke-width: 2; stroke-linejoin: miter"/>
   </g>
   <g id="patch_3">
    <path d="M 81.0276 117.7 
C 82.650102 117.7 84.207811 117.054776 85.355094 115.907494 
C 86.502376 114.760211 87.1476 113.202502 87.1476 111.58 
C 87.1476 109.957498 86.502376 108.399789 85.355094 107.252506 
C 84.207811 106.105224 82.650102 105.46 81.0276 105.46 
" clip-path="url(#p31adef6022)" style="fill: none; stroke: #000000; stroke-width: 2; stroke-linejoin: miter"/>
   </g>
   <g id="patch_4">
    <path d="M 81.0276 129.94 
C 82.650102 129.94 84.207811 129.294776 85.355094 128.147494 
C 86.502376 127.000211 87.1476 125.442502 87.1476 123.82 
C 87.1476 122.197498 86.502376 120.639789 85.355094 119.492506 
C 84.207811 118.345224 82.650102 117.7 81.0276 117.7 
" clip-path="url(#p31adef6022)" style="fill: none; stroke: #000000; stroke-width: 2; stroke-linejoin: miter"/>
   </g>
   <g id="patch_5">
    <path d="M 81.0276 142.18 
C 82.650102 142.18 84.207811 141.534776 85.355094 140.387494 
C 86.502376 139.240211 87.1476 137.682502 87.1476 136.06 
C 87.1476 134.437498 86.502376 132.879789 85.355094 131.732506 
C 84.207811 130.585224 82.650102 129.94 81.0276 129.94 
" clip-path="url(#p31adef6022)" style="fill: none; stroke: #000000; stroke-width: 2; stroke-linejoin: miter"/>
   </g>
   <g id="patch_6">
    <path d="M 81.0276 154.42 
C 82.650102 154.42 84.207811 153.774776 85.355094 152.627494 
C 86.502376 151.480211 87.1476 149.922502 87.1476 148.3 
C 87.1476 146.677498 86.502376 145.119789 85.355094 143.972506 
C 84.207811 142.825224 82.650102 142.18 81.0276 142.18 
" clip-path="url(#p31adef6022)" style="fill: none; stroke: #000000; stroke-width: 2; stroke-linejoin: miter"/>
   </g>
   <g id="patch_7">
    <path d="M 81.0276 166.66 
C 82.650102 166.66 84.207811 166.014776 85.355094 164.867494 
C 86.502376 163.720211 87.1476 162.162502 87.1476 160.54 
C 87.1476 158.917498 86.502376 157.359789 85.355094 156.212506 
C 84.207811 155.065224 82.650102 154.42 81.0276 154.42 
" clip-path="url(#p31adef6022)" style="fill: none; stroke: #000000; stroke-width: 2; stroke-linejoin: miter"/>
   </g>
   <g id="patch_8">
    <path d="M 81.0276 178.9 
C 82.650102 178.9 84.207811 178.254776 85.355094 177.107494 
C 86.502376 175.960211 87.1476 174.402502 87.1476 172.78 
C 87.1476 171.157498 86.502376 169.599789 85.355094 168.452506 
C 84.207811 167.305224 82.650102 166.66 81.0276 166.66 
" clip-path="url(#p31adef6022)" style="fill: none; stroke: #000000; stroke-width: 2; stroke-linejoin: miter"/>
   </g>
   <g id="patch_9">
    <path d="M 81.0276 191.14 
C 82.650102 191.14 84.207811 190.494776 85.355094 189.347494 
C 86.502376 188.200211 87.1476 186.642502 87.1476 185.02 
C 87.1476 183.397498 86.502376 181.839789 85.355094 180.692506 
C 84.207811 179.545224 82.650102 178.9 81.0276 178.9 
" clip-path="url(#p31adef6022)" style="fill: none; stroke: #000000; stroke-width: 2; stroke-linejoin: miter"/>
   </g>
   <g id="patch_10">
    <path d="M 111.6276 105.46 
C 110.005098 105.46 108.447389 106.105224 107.300106 107.252506 
C 106.152824 108.399789 105.5076 109.957498 105.5076 111.58 
C 105.5076 113.202502 106.152824 114.760211 107.300106 115.907494 
C 108.447389 117.054776 110.005098 117.7 111.6276 117.7 
" clip-path="url(#p31adef6022)" style="fill: none; stroke: #000000; stroke-width: 2; stroke-linejoin: miter"/>
   </g>
   <g id="patch_11">
    <path d="M 111.6276 117.7 
C 110.005098 117.7 108.447389 118.345224 107.300106 119.492506 
C 106.152824 120.639789 105.5076 122.197498 105.5076 123.82 
C 105.5076 125.442502 106.152824 127.000211 107.300106 128.147494 
C 108.447389 129.294776 110.005098 129.94 111.6276 129.94 
" clip-path="url(#p31adef6022)" style="fill: none; stroke: #000000; stroke-width: 2; stroke-linejoin: miter"/>
   </g>
   <g id="patch_12">
    <path d="M 111.6276 129.94 
C 110.005098 129.94 108.447389 130.585224 107.300106 131.732506 
C 106.152824 132.879789 105.5076 134.437498 105.5076 136.06 
C 105.5076 137.682502 106.152824 139.240211 107.300106 140.387494 
C 108.447389 141.534776 110.005098 142.18 111.6276 142.18 
" clip-path="url(#p31adef6022)" style="fill: none; stroke: #000000; stroke-width: 2; stroke-linejoin: miter"/>
   </g>
   <g id="patch_13">
    <path d="M 111.6276 142.18 
C 110.005098 142.18 108.447389 142.825224 107.300106 143.972506 
C 106.152824 145.119789 105.5076 146.677498 105.5076 148.3 
C 105.5076 149.922502 106.152824 151.480211 107.300106 152.627494 
C 108.447389 153.774776 110.005098 154.42 111.6276 154.42 
" clip-path="url(#p31adef6022)" style="fill: none; stroke: #000000; stroke-width: 2; stroke-linejoin: miter"/>
   </g>
   <g id="patch_14">
    <path d="M 111.6276 154.42 
C 110.005098 154.42 108.447389 155.065224 107.300106 156.212506 
C 106.152824 157.359789 105.5076 158.917498 105.5076 160.54 
C 105.5076 162.162502 106.152824 163.720211 107.300106 164.867494 
C 108.447389 166.014776 110.005098 166.66 111.6276 166.66 
" clip-path="url(#p31adef6022)" style="fill: none; stroke: #000000; stroke-width: 2; stroke-linejoin: miter"/>
   </g>
   <g id="patch_15">
    <path d="M 111.6276 166.66 
C 110.005098 166.66 108.447389 167.305224 107.300106 168.452506 
C 106.152824 169.599789 105.5076 171.157498 105.5076 172.78 
C 105.5076 174.402502 106.152824 175.960211 107.300106 177.107494 
C 108.447389 178.254776 110.005098 178.9 111.6276 178.9 
" clip-path="url(#p31adef6022)" style="fill: none; stroke: #000000; stroke-width: 2; stroke-linejoin: miter"/>
   </g>
   <g id="line2d_1">
    <path d="M 35.0766 227.758 
L 46.2966 227.758 
" clip-path="url(#p31adef6022)" style="fill: none; stroke: #000000; stroke-width: 2; stroke-linecap: round"/>
   </g>
   <g id="line2d_2">
    <path d="M 46.2966 216.538 
L 46.2966 238.978 
" clip-path="url(#p31adef6022)" style="fill: none; stroke: #000000; stroke-width: 2; stroke-linecap: round"/>
   </g>
   <g id="line2d_3">
    <path d="M 46.2966 222.148 
L 58.0776 212.05 
L 58.0776 206.44 
" clip-path="url(#p31adef6022)" style="fill: none; stroke: #000000; stroke-width: 2; stroke-linecap: round"/>
   </g>
   <g id="line2d_4">
    <path d="M 46.2966 233.368 
L 58.0776 243.466 
L 58.0776 249.076 
" clip-path="url(#p31adef6022)" style="fill: none; stroke: #000000; stroke-width: 2; stroke-linecap: round"/>
   </g>
   <g id="line2d_5">
    <path d="M 46.2966 233.368 
L 52.269287 238.487446 
" clip-path="url(#p31adef6022)" style="fill: none; stroke: #000000; stroke-width: 2; stroke-linecap: round"/>
   </g>
   <g id="patch_16">
    <path d="M 54.260709 236.164121 
L 58.0776 243.466 
L 50.277865 240.810771 
z
" clip-path="url(#p31adef6022)"/>
   </g>
   <g id="line2d_6">
    <path d="M 58.0776 249.076 
L 58.0776 261.316 
L 50.4276 261.316 
L 65.7276 261.316 
M 52.7226 264.988 
L 63.4326 264.988 
M 56.5476 268.66 
L 59.6076 268.66 
" clip-path="url(#p31adef6022)" style="fill: none; stroke: #000000; stroke-width: 2; stroke-linecap: round"/>
   </g>
   <g id="line2d_7">
    <path d="M 58.0776 206.44 
L 58.0776 198.79 
L 58.0776 191.14 
" clip-path="url(#p31adef6022)" style="fill: none; stroke: #000000; stroke-width: 2; stroke-linecap: round"/>
   </g>
   <g id="line2d_8">
    <path d="M 58.0776 191.14 
L 69.5526 191.14 
L 81.0276 191.14 
" clip-path="url(#p31adef6022)" style="fill: none; stroke: #000000; stroke-width: 2; stroke-linecap: round"/>
   </g>
   <g id="line2d_9">
    <path d="M 93.2676 93.22 
L 93.2676 191.14 
" clip-path="url(#p31adef6022)" style="fill: none; stroke: #000000; stroke-width: 2; stroke-linecap: round"/>
   </g>
   <g id="line2d_10">
    <path d="M 99.3876 93.22 
L 99.3876 191.14 
" clip-path="url(#p31adef6022)" style="fill: none; stroke: #000000; stroke-width: 2; stroke-linecap: round"/>
   </g>
   <g id="line2d_11">
    <path d="M 81.0276 93.22 
L 69.5526 93.22 
L 58.0776 93.22 
" clip-path="url(#p31adef6022)" style="fill: none; stroke: #000000; stroke-width: 2; stroke-linecap: round"/>
   </g>
   <g id="line2d_12">
    <path d="M 58.0776 93.22 
L 58.0776 85.57 
L 58.0776 77.92 
" clip-path="url(#p31adef6022)" style="fill: none; stroke: #000000; stroke-width: 2; stroke-linecap: round"/>
   </g>
   <g id="line2d_13">
    <path d="M 58.0776 77.92 
L 50.4276 75.37 
L 65.7276 70.27 
L 50.4276 65.17 
L 65.7276 60.07 
L 50.4276 54.97 
L 65.7276 49.87 
L 58.0776 47.32 
" clip-path="url(#p31adef6022)" style="fill: none; stroke: #000000; stroke-width: 2; stroke-linecap: round"/>
   </g>
   <g id="line2d_14">
    <path d="M 58.0776 47.32 
L 58.0776 35.08 
" clip-path="url(#p31adef6022)" style="fill: none; stroke: #000000; stroke-width: 2; stroke-linecap: round"/>
   </g>
   <g id="line2d_15">
    <path d="M 58.0776 35.08 
L 52.3401 35.08 
" clip-path="url(#p31adef6022)" style="fill: none; stroke: #000000; stroke-width: 2; stroke-linecap: round"/>
   </g>
   <g id="line2d_16">
    <path d="M 58.0776 35.08 
L 63.8151 35.08 
" clip-path="url(#p31adef6022)" style="fill: none; stroke: #000000; stroke-width: 2; stroke-linecap: round"/>
   </g>
   <g id="line2d_17">
    <path d="M 111.6276 105.46 
L 138.4026 105.46 
L 165.1776 105.46 
" clip-path="url(#p31adef6022)" style="fill: none; stroke: #000000; stroke-width: 2; stroke-linecap: round"/>
   </g>
   <g id="line2d_18">
    <path d="M 111.6276 178.9 
L 138.4026 178.9 
L 165.1776 178.9 
" clip-path="url(#p31adef6022)" style="fill: none; stroke: #000000; stroke-width: 2; stroke-linecap: round"/>
   </g>
   <g id="line2d_19">
    <path d="M 165.1776 178.9 
L 165.1776 191.14 
L 157.5276 191.14 
L 172.8276 191.14 
M 159.8226 194.812 
L 170.5326 194.812 
M 163.6476 198.484 
L 166.7076 198.484 
" clip-path="url(#p31adef6022)" style="fill: none; stroke: #000000; stroke-width: 2; stroke-linecap: round"/>
   </g>
   <g id="line2d_20">
    <path d="M 165.1776 178.9 
L 165.1776 157.48 
L 157.5276 154.93 
L 172.8276 149.83 
L 157.5276 144.73 
L 172.8276 139.63 
L 157.5276 134.53 
L 172.8276 129.43 
L 165.1776 126.88 
L 165.1776 105.46 
" clip-path="url(#p31adef6022)" style="fill: none; stroke: #000000; stroke-width: 2; stroke-linecap: round"/>
   </g>
   <g id="text_1">
    <g clip-path="url(#p31adef6022)">
     <!-- $I_{in}$ -->
     <g transform="translate(19.8916 231.462219)scale(0.125 -0.125)">
      <defs>
       <path id="DejaVuSans-Oblique-49" d="M 1081 4666 
L 1716 4666 
L 806 0 
L 172 0 
L 1081 4666 
z
" transform="scale(0.015625)"/>
       <path id="DejaVuSans-Oblique-69" d="M 1172 4863 
L 1747 4863 
L 1606 4134 
L 1031 4134 
L 1172 4863 
z
M 909 3500 
L 1484 3500 
L 800 0 
L 225 0 
L 909 3500 
z
" transform="scale(0.015625)"/>
       <path id="DejaVuSans-Oblique-6e" d="M 3566 2113 
L 3156 0 
L 2578 0 
L 2988 2091 
Q 3016 2238 3031 2350 
Q 3047 2463 3047 2528 
Q 3047 2791 2881 2937 
Q 2716 3084 2419 3084 
Q 1956 3084 1622 2776 
Q 1288 2469 1184 1941 
L 800 0 
L 225 0 
L 903 3500 
L 1478 3500 
L 1363 2950 
Q 1603 3253 1940 3418 
Q 2278 3584 2650 3584 
Q 3113 3584 3367 3334 
Q 3622 3084 3622 2631 
Q 3622 2519 3608 2391 
Q 3594 2263 3566 2113 
z
" transform="scale(0.015625)"/>
      </defs>
      <use xlink:href="#DejaVuSans-Oblique-49" transform="translate(0 0.09375)"/>
      <use xlink:href="#DejaVuSans-Oblique-69" transform="translate(29.492188 -16.3125)scale(0.7)"/>
      <use xlink:href="#DejaVuSans-Oblique-6e" transform="translate(48.94043 -16.3125)scale(0.7)"/>
     </g>
    </g>
   </g>
   <g id="text_2">
    <g clip-path="url(#p31adef6022)">
     <!-- $R_p$ -->
     <g transform="translate(32.7426 65.245)scale(0.125 -0.125)">
      <defs>
       <path id="DejaVuSans-Oblique-52" d="M 1613 4147 
L 1294 2491 
L 2106 2491 
Q 2584 2491 2879 2755 
Q 3175 3019 3175 3444 
Q 3175 3784 2976 3965 
Q 2778 4147 2406 4147 
L 1613 4147 
z
M 2772 2241 
Q 2972 2194 3105 2009 
Q 3238 1825 3413 1275 
L 3809 0 
L 3144 0 
L 2778 1197 
Q 2638 1659 2453 1815 
Q 2269 1972 1888 1972 
L 1191 1972 
L 806 0 
L 172 0 
L 1081 4666 
L 2503 4666 
Q 3150 4666 3495 4373 
Q 3841 4081 3841 3531 
Q 3841 3044 3547 2687 
Q 3253 2331 2772 2241 
z
" transform="scale(0.015625)"/>
       <path id="DejaVuSans-Oblique-70" d="M 3175 2156 
Q 3175 2616 2975 2859 
Q 2775 3103 2400 3103 
Q 2144 3103 1911 2972 
Q 1678 2841 1497 2591 
Q 1319 2344 1212 1994 
Q 1106 1644 1106 1300 
Q 1106 863 1306 627 
Q 1506 391 1875 391 
Q 2147 391 2380 519 
Q 2613 647 2778 891 
Q 2956 1147 3065 1494 
Q 3175 1841 3175 2156 
z
M 1394 2969 
Q 1625 3272 1939 3428 
Q 2253 3584 2638 3584 
Q 3175 3584 3472 3232 
Q 3769 2881 3769 2247 
Q 3769 1728 3584 1258 
Q 3400 788 3053 416 
Q 2822 169 2531 39 
Q 2241 -91 1919 -91 
Q 1547 -91 1294 64 
Q 1041 219 916 525 
L 556 -1331 
L -19 -1331 
L 922 3500 
L 1497 3500 
L 1394 2969 
z
" transform="scale(0.015625)"/>
      </defs>
      <use xlink:href="#DejaVuSans-Oblique-52" transform="translate(0 0.09375)"/>
      <use xlink:href="#DejaVuSans-Oblique-70" transform="translate(69.482422 -16.3125)scale(0.7)"/>
     </g>
    </g>
   </g>
   <g id="text_3">
    <g clip-path="url(#p31adef6022)">
     <!-- $V_{dd}$ -->
     <g transform="translate(48.0151 29.420391)scale(0.125 -0.125)">
      <defs>
       <path id="DejaVuSans-Oblique-56" d="M 1319 0 
L 500 4666 
L 1119 4666 
L 1797 653 
L 4063 4666 
L 4750 4666 
L 2053 0 
L 1319 0 
z
" transform="scale(0.015625)"/>
       <path id="DejaVuSans-Oblique-64" d="M 2675 525 
Q 2444 222 2128 65 
Q 1813 -91 1428 -91 
Q 903 -91 598 267 
Q 294 625 294 1247 
Q 294 1766 478 2236 
Q 663 2706 1013 3078 
Q 1244 3325 1534 3454 
Q 1825 3584 2144 3584 
Q 2481 3584 2739 3421 
Q 2997 3259 3138 2956 
L 3513 4863 
L 4091 4863 
L 3144 0 
L 2566 0 
L 2675 525 
z
M 891 1350 
Q 891 897 1095 644 
Q 1300 391 1663 391 
Q 1931 391 2161 520 
Q 2391 650 2566 903 
Q 2750 1166 2856 1509 
Q 2963 1853 2963 2188 
Q 2963 2622 2758 2865 
Q 2553 3109 2194 3109 
Q 1922 3109 1687 2981 
Q 1453 2853 1288 2613 
Q 1106 2353 998 2009 
Q 891 1666 891 1350 
z
" transform="scale(0.015625)"/>
      </defs>
      <use xlink:href="#DejaVuSans-Oblique-56" transform="translate(0 0.09375)"/>
      <use xlink:href="#DejaVuSans-Oblique-64" transform="translate(68.408203 -16.3125)scale(0.7)"/>
      <use xlink:href="#DejaVuSans-Oblique-64" transform="translate(112.841797 -16.3125)scale(0.7)"/>
     </g>
    </g>
   </g>
   <g id="text_4">
    <g clip-path="url(#p31adef6022)">
     <!-- $R_L$ -->
     <g transform="translate(140.4676 145.629219)scale(0.125 -0.125)">
      <defs>
       <path id="DejaVuSans-Oblique-4c" d="M 1075 4666 
L 1709 4666 
L 909 525 
L 3181 525 
L 3078 0 
L 172 0 
L 1075 4666 
z
" transform="scale(0.015625)"/>
      </defs>
      <use xlink:href="#DejaVuSans-Oblique-52" transform="translate(0 0.09375)"/>
      <use xlink:href="#DejaVuSans-Oblique-4c" transform="translate(69.482422 -16.3125)scale(0.7)"/>
     </g>
    </g>
   </g>
   <g id="text_5">
    <g clip-path="url(#p31adef6022)">
     <!-- - -->
     <g transform="translate(193.522717 163.989219)scale(0.125 -0.125)">
      <defs>
       <path id="DejaVuSans-2d" d="M 313 2009 
L 1997 2009 
L 1997 1497 
L 313 1497 
L 313 2009 
z
" transform="scale(0.015625)"/>
      </defs>
      <use xlink:href="#DejaVuSans-2d"/>
     </g>
    </g>
   </g>
   <g id="text_6">
    <g clip-path="url(#p31adef6022)">
     <!-- $v_{out}$ -->
     <g transform="translate(184.7151 145.629219)scale(0.125 -0.125)">
      <defs>
       <path id="DejaVuSans-Oblique-76" d="M 459 3500 
L 1069 3500 
L 1581 525 
L 3256 3500 
L 3866 3500 
L 1875 0 
L 1100 0 
L 459 3500 
z
" transform="scale(0.015625)"/>
       <path id="DejaVuSans-Oblique-6f" d="M 1625 -91 
Q 1009 -91 651 289 
Q 294 669 294 1325 
Q 294 1706 417 2101 
Q 541 2497 738 2766 
Q 1047 3184 1428 3384 
Q 1809 3584 2291 3584 
Q 2888 3584 3255 3212 
Q 3622 2841 3622 2241 
Q 3622 1825 3500 1412 
Q 3378 1000 3181 728 
Q 2875 309 2494 109 
Q 2113 -91 1625 -91 
z
M 891 1344 
Q 891 869 1089 633 
Q 1288 397 1691 397 
Q 2269 397 2648 901 
Q 3028 1406 3028 2181 
Q 3028 2634 2825 2865 
Q 2622 3097 2228 3097 
Q 1903 3097 1650 2945 
Q 1397 2794 1197 2484 
Q 1050 2253 970 1956 
Q 891 1659 891 1344 
z
" transform="scale(0.015625)"/>
       <path id="DejaVuSans-Oblique-75" d="M 428 1388 
L 838 3500 
L 1416 3500 
L 1006 1409 
Q 975 1256 961 1147 
Q 947 1038 947 966 
Q 947 700 1109 554 
Q 1272 409 1569 409 
Q 2031 409 2368 721 
Q 2706 1034 2809 1563 
L 3194 3500 
L 3769 3500 
L 3091 0 
L 2516 0 
L 2631 550 
Q 2388 244 2052 76 
Q 1716 -91 1338 -91 
Q 878 -91 622 161 
Q 366 413 366 863 
Q 366 956 381 1097 
Q 397 1238 428 1388 
z
" transform="scale(0.015625)"/>
       <path id="DejaVuSans-Oblique-74" d="M 2706 3500 
L 2619 3053 
L 1472 3053 
L 1100 1153 
Q 1081 1047 1072 975 
Q 1063 903 1063 863 
Q 1063 663 1183 572 
Q 1303 481 1569 481 
L 2150 481 
L 2053 0 
L 1503 0 
Q 991 0 739 200 
Q 488 400 488 806 
Q 488 878 497 964 
Q 506 1050 525 1153 
L 897 3053 
L 409 3053 
L 500 3500 
L 978 3500 
L 1172 4494 
L 1747 4494 
L 1556 3500 
L 2706 3500 
z
" transform="scale(0.015625)"/>
      </defs>
      <use xlink:href="#DejaVuSans-Oblique-76" transform="translate(0 0.3125)"/>
      <use xlink:href="#DejaVuSans-Oblique-6f" transform="translate(59.179688 -16.09375)scale(0.7)"/>
      <use xlink:href="#DejaVuSans-Oblique-75" transform="translate(102.006836 -16.09375)scale(0.7)"/>
      <use xlink:href="#DejaVuSans-Oblique-74" transform="translate(146.37207 -16.09375)scale(0.7)"/>
     </g>
    </g>
   </g>
   <g id="text_7">
    <g clip-path="url(#p31adef6022)">
     <!-- $+$ -->
     <g transform="translate(190.5276 127.269219)scale(0.125 -0.125)">
      <defs>
       <path id="DejaVuSans-2b" d="M 2944 4013 
L 2944 2272 
L 4684 2272 
L 4684 1741 
L 2944 1741 
L 2944 0 
L 2419 0 
L 2419 1741 
L 678 1741 
L 678 2272 
L 2419 2272 
L 2419 4013 
L 2944 4013 
z
" transform="scale(0.015625)"/>
      </defs>
      <use xlink:href="#DejaVuSans-2b" transform="translate(0 0.296875)"/>
     </g>
    </g>
   </g>
   <g id="patch_17">
    <path d="M 58.0776 251.371 
C 58.686241 251.371 59.270036 251.129184 59.70041 250.69881 
C 60.130784 250.268436 60.3726 249.684641 60.3726 249.076 
C 60.3726 248.467359 60.130784 247.883564 59.70041 247.45319 
C 59.270036 247.022816 58.686241 246.781 58.0776 246.781 
C 57.468959 246.781 56.885164 247.022816 56.45479 247.45319 
C 56.024416 247.883564 55.7826 248.467359 55.7826 249.076 
C 55.7826 249.684641 56.024416 250.268436 56.45479 250.69881 
C 56.885164 251.129184 57.468959 251.371 58.0776 251.371 
z
" clip-path="url(#p31adef6022)" style="stroke: #000000; stroke-width: 2; stroke-linejoin: miter"/>
   </g>
   <g id="patch_18">
    <path d="M 35.0766 230.053 
C 35.685241 230.053 36.269036 229.811184 36.69941 229.38081 
C 37.129784 228.950436 37.3716 228.366641 37.3716 227.758 
C 37.3716 227.149359 37.129784 226.565564 36.69941 226.13519 
C 36.269036 225.704816 35.685241 225.463 35.0766 225.463 
C 34.467959 225.463 33.884164 225.704816 33.45379 226.13519 
C 33.023416 226.565564 32.7816 227.149359 32.7816 227.758 
C 32.7816 228.366641 33.023416 228.950436 33.45379 229.38081 
C 33.884164 229.811184 34.467959 230.053 35.0766 230.053 
z
" clip-path="url(#p31adef6022)" style="fill: #ffffff; stroke: #000000; stroke-width: 2; stroke-linejoin: miter"/>
   </g>
   <g id="patch_19">
    <path d="M 58.0776 193.435 
C 58.686241 193.435 59.270036 193.193184 59.70041 192.76281 
C 60.130784 192.332436 60.3726 191.748641 60.3726 191.14 
C 60.3726 190.531359 60.130784 189.947564 59.70041 189.51719 
C 59.270036 189.086816 58.686241 188.845 58.0776 188.845 
C 57.468959 188.845 56.885164 189.086816 56.45479 189.51719 
C 56.024416 189.947564 55.7826 190.531359 55.7826 191.14 
C 55.7826 191.748641 56.024416 192.332436 56.45479 192.76281 
C 56.885164 193.193184 57.468959 193.435 58.0776 193.435 
z
" clip-path="url(#p31adef6022)" style="stroke: #000000; stroke-width: 2; stroke-linejoin: miter"/>
   </g>
   <g id="patch_20">
    <path d="M 58.0776 95.515 
C 58.686241 95.515 59.270036 95.273184 59.70041 94.84281 
C 60.130784 94.412436 60.3726 93.828641 60.3726 93.22 
C 60.3726 92.611359 60.130784 92.027564 59.70041 91.59719 
C 59.270036 91.166816 58.686241 90.925 58.0776 90.925 
C 57.468959 90.925 56.885164 91.166816 56.45479 91.59719 
C 56.024416 92.027564 55.7826 92.611359 55.7826 93.22 
C 55.7826 93.828641 56.024416 94.412436 56.45479 94.84281 
C 56.885164 95.273184 57.468959 95.515 58.0776 95.515 
z
" clip-path="url(#p31adef6022)" style="stroke: #000000; stroke-width: 2; stroke-linejoin: miter"/>
   </g>
   <g id="patch_21">
    <path d="M 165.1776 107.755 
C 165.786241 107.755 166.370036 107.513184 166.80041 107.08281 
C 167.230784 106.652436 167.4726 106.068641 167.4726 105.46 
C 167.4726 104.851359 167.230784 104.267564 166.80041 103.83719 
C 166.370036 103.406816 165.786241 103.165 165.1776 103.165 
C 164.568959 103.165 163.985164 103.406816 163.55479 103.83719 
C 163.124416 104.267564 162.8826 104.851359 162.8826 105.46 
C 162.8826 106.068641 163.124416 106.652436 163.55479 107.08281 
C 163.985164 107.513184 164.568959 107.755 165.1776 107.755 
z
" clip-path="url(#p31adef6022)" style="stroke: #000000; stroke-width: 2; stroke-linejoin: miter"/>
   </g>
   <g id="patch_22">
    <path d="M 165.1776 181.195 
C 165.786241 181.195 166.370036 180.953184 166.80041 180.52281 
C 167.230784 180.092436 167.4726 179.508641 167.4726 178.9 
C 167.4726 178.291359 167.230784 177.707564 166.80041 177.27719 
C 166.370036 176.846816 165.786241 176.605 165.1776 176.605 
C 164.568959 176.605 163.985164 176.846816 163.55479 177.27719 
C 163.124416 177.707564 162.8826 178.291359 162.8826 178.9 
C 162.8826 179.508641 163.124416 180.092436 163.55479 180.52281 
C 163.985164 180.953184 164.568959 181.195 165.1776 181.195 
z
" clip-path="url(#p31adef6022)" style="stroke: #000000; stroke-width: 2; stroke-linejoin: miter"/>
   </g>
   <g id="patch_23">
    <path d="M 165.1776 107.755 
C 165.786241 107.755 166.370036 107.513184 166.80041 107.08281 
C 167.230784 106.652436 167.4726 106.068641 167.4726 105.46 
C 167.4726 104.851359 167.230784 104.267564 166.80041 103.83719 
C 166.370036 103.406816 165.786241 103.165 165.1776 103.165 
C 164.568959 103.165 163.985164 103.406816 163.55479 103.83719 
C 163.124416 104.267564 162.8826 104.851359 162.8826 105.46 
C 162.8826 106.068641 163.124416 106.652436 163.55479 107.08281 
C 163.985164 107.513184 164.568959 107.755 165.1776 107.755 
z
" clip-path="url(#p31adef6022)" style="stroke: #000000; stroke-width: 2; stroke-linejoin: miter"/>
   </g>
  </g>
 </g>
 <defs>
  <clipPath id="p31adef6022">
   <rect x="7.2" y="7.2" width="216.801" height="264.52"/>
  </clipPath>
 </defs>
</svg>