<?xml version="1.0" encoding="utf-8" standalone="no"?>
<!DOCTYPE svg PUBLIC "-//W3C//DTD SVG 1.1//EN"
  "http://www.w3.org/Graphics/SVG/1.1/DTD/svg11.dtd">
<svg xmlns:xlink="http://www.w3.org/1999/xlink" width="329.969472pt" height="279.555313pt" viewBox="0 0 329.969472 279.555313" xmlns="http://www.w3.org/2000/svg" version="1.1">
 <metadata>
  <rdf:RDF xmlns:dc="http://purl.org/dc/elements/1.1/" xmlns:cc="http://creativecommons.org/ns#" xmlns:rdf="http://www.w3.org/1999/02/22-rdf-syntax-ns#">
   <cc:Work>
    <dc:type rdf:resource="http://purl.org/dc/dcmitype/StillImage"/>
    <dc:date>2024-01-02T19:35:05.260854</dc:date>
    <dc:format>image/svg+xml</dc:format>
    <dc:creator>
     <cc:Agent>
      <dc:title>Matplotlib v3.8.2, https://matplotlib.org/</dc:title>
     </cc:Agent>
    </dc:creator>
   </cc:Work>
  </rdf:RDF>
 </metadata>
 <defs>
  <style type="text/css">*{stroke-linejoin: round; stroke-linecap: butt}</style>
 </defs>
 <g id="figure_1">
  <g id="patch_1">
   <path d="M 0 279.555313 
L 329.969472 279.555313 
L 329.969472 0 
L 0 0 
z
" style="fill: #ffffff"/>
  </g>
  <g id="axes_1">
   <g id="patch_2">
    <path d="M 228.893472 113.377656 
L 229.064824 113.376297 
L 229.236134 113.372219 
L 229.407357 113.365424 
L 229.57845 113.355912 
L 229.749372 113.343688 
L 229.920077 113.328753 
L 230.090525 113.311112 
L 230.26067 113.290768 
L 230.430472 113.267728 
L 230.599887 113.241996 
L 230.768872 113.21358 
L 230.937385 113.182486 
L 231.105384 113.148723 
L 231.272826 113.112298 
L 231.439668 113.073221 
L 231.60587 113.031502 
L 231.771389 112.987152 
L 231.936184 112.94018 
L 232.100212 112.8906 
L 232.263433 112.838424 
L 232.425806 112.783665 
L 232.58729 112.726337 
L 232.747843 112.666453 
L 232.907427 112.60403 
L 233.065999 112.539083 
L 233.223522 112.471628 
L 233.379954 112.401682 
L 233.535257 112.329263 
L 233.689391 112.254389 
L 233.842318 112.177079 
L 233.994 112.097353 
L 234.144397 112.01523 
L 234.293472 111.930731 
L 234.441188 111.843877 
L 234.587507 111.754691 
L 234.732393 111.663194 
L 234.875809 111.569411 
L 235.017719 111.473363 
L 235.158087 111.375077 
L 235.296878 111.274575 
L 235.434057 111.171884 
L 235.569589 111.06703 
L 235.703441 110.960038 
L 235.835578 110.850936 
L 235.965968 110.739752 
L 236.094577 110.626512 
L 236.221374 110.511247 
L 236.346325 110.393984 
L 236.469401 110.274753 
L 236.590569 110.153585 
L 236.7098 110.03051 
L 236.827062 109.905558 
L 236.942328 109.778761 
L 237.055567 109.650152 
L 237.166752 109.519762 
L 237.275854 109.387625 
L 237.382845 109.253773 
L 237.4877 109.118241 
L 237.590391 108.981062 
L 237.690892 108.842271 
L 237.789179 108.701903 
L 237.885226 108.559993 
L 237.97901 108.416577 
L 238.070507 108.271691 
L 238.159693 108.125372 
L 238.246546 107.977656 
L 238.331045 107.828581 
L 238.413168 107.678184 
L 238.492895 107.526503 
L 238.570205 107.373576 
L 238.645079 107.219441 
L 238.717498 107.064138 
L 238.787443 106.907706 
L 238.854898 106.750184 
L 238.919846 106.591611 
L 238.982269 106.432027 
L 239.042152 106.271474 
L 239.099481 106.10999 
L 239.15424 105.947617 
L 239.206416 105.784396 
L 239.255996 105.620368 
L 239.302967 105.455573 
L 239.347318 105.290055 
L 239.389037 105.123853 
L 239.428114 104.95701 
L 239.464538 104.789568 
L 239.498302 104.62157 
L 239.529396 104.453057 
L 239.557812 104.284071 
L 239.583544 104.114657 
L 239.606584 103.944855 
L 239.626927 103.774709 
L 239.644569 103.604262 
L 239.659504 103.433556 
L 239.671728 103.262635 
L 239.681239 103.091541 
L 239.688035 102.920318 
L 239.692113 102.749009 
L 239.693472 102.577656 
L 239.693472 73.417656 
L 239.692113 73.246304 
L 239.688035 73.074995 
L 239.681239 72.903772 
L 239.671728 72.732678 
L 239.659504 72.561757 
L 239.644569 72.391051 
L 239.626927 72.220604 
L 239.606584 72.050458 
L 239.583544 71.880656 
L 239.557812 71.711241 
L 239.529396 71.542256 
L 239.498302 71.373743 
L 239.464538 71.205744 
L 239.428114 71.038302 
L 239.389037 70.87146 
L 239.347318 70.705258 
L 239.302967 70.539739 
L 239.255996 70.374945 
L 239.206416 70.210916 
L 239.15424 70.047695 
L 239.099481 69.885322 
L 239.042152 69.723839 
L 238.982269 69.563285 
L 238.919846 69.403702 
L 238.854898 69.245129 
L 238.787443 69.087606 
L 238.717498 68.931174 
L 238.645079 68.775871 
L 238.570205 68.621737 
L 238.492895 68.46881 
L 238.413168 68.317129 
L 238.331045 68.166732 
L 238.246546 68.017656 
L 238.159693 67.86994 
L 238.070507 67.723621 
L 237.97901 67.578735 
L 237.885226 67.43532 
L 237.789179 67.29341 
L 237.690892 67.153042 
L 237.590391 67.014251 
L 237.4877 66.877072 
L 237.382845 66.741539 
L 237.275854 66.607687 
L 237.166752 66.47555 
L 237.055567 66.34516 
L 236.942328 66.216551 
L 236.827062 66.089755 
L 236.7098 65.964803 
L 236.590569 65.841727 
L 236.469401 65.720559 
L 236.346325 65.601329 
L 236.221374 65.484066 
L 236.094577 65.3688 
L 235.965968 65.255561 
L 235.835578 65.144376 
L 235.703441 65.035274 
L 235.569589 64.928283 
L 235.434057 64.823428 
L 235.296878 64.720737 
L 235.158087 64.620236 
L 235.017719 64.521949 
L 234.875809 64.425902 
L 234.732393 64.332118 
L 234.587507 64.240622 
L 234.441188 64.151435 
L 234.293472 64.064582 
L 234.144397 63.980083 
L 233.994 63.89796 
L 233.842318 63.818233 
L 233.689391 63.740923 
L 233.535257 63.66605 
L 233.379954 63.593631 
L 233.223522 63.523685 
L 233.065999 63.45623 
L 232.907427 63.391283 
L 232.747843 63.328859 
L 232.58729 63.268976 
L 232.425806 63.211647 
L 232.263433 63.156888 
L 232.100212 63.104712 
L 231.936184 63.055132 
L 231.771389 63.008161 
L 231.60587 62.96381 
L 231.439668 62.922091 
L 231.272826 62.883015 
L 231.105384 62.84659 
L 230.937385 62.812826 
L 230.768872 62.781733 
L 230.599887 62.753316 
L 230.430472 62.727585 
L 230.26067 62.704544 
L 230.090525 62.684201 
L 229.920077 62.666559 
L 229.749372 62.651625 
L 229.57845 62.6394 
L 229.407357 62.629889 
L 229.236134 62.623094 
L 229.064824 62.619016 
L 228.893472 62.617656 
L 223.433472 62.617656 
L 223.26212 62.619016 
L 223.09081 62.623094 
L 222.919587 62.629889 
L 222.748494 62.6394 
L 222.577572 62.651625 
L 222.406867 62.666559 
L 222.236419 62.684201 
L 222.066273 62.704544 
L 221.896472 62.727585 
L 221.727057 62.753316 
L 221.558072 62.781733 
L 221.389559 62.812826 
L 221.22156 62.84659 
L 221.054118 62.883015 
L 220.887275 62.922091 
L 220.721074 62.96381 
L 220.555555 63.008161 
L 220.39076 63.055132 
L 220.226732 63.104712 
L 220.063511 63.156888 
L 219.901138 63.211647 
L 219.739654 63.268976 
L 219.579101 63.328859 
L 219.419517 63.391283 
L 219.260945 63.45623 
L 219.103422 63.523685 
L 218.94699 63.593631 
L 218.791687 63.66605 
L 218.637553 63.740923 
L 218.484626 63.818233 
L 218.332944 63.89796 
L 218.182547 63.980083 
L 218.033472 64.064582 
L 217.885756 64.151435 
L 217.739437 64.240622 
L 217.594551 64.332118 
L 217.451135 64.425902 
L 217.309225 64.521949 
L 217.168857 64.620236 
L 217.030066 64.720737 
L 216.892887 64.823428 
L 216.757355 64.928283 
L 216.623503 65.035274 
L 216.491366 65.144376 
L 216.360976 65.255561 
L 216.232367 65.3688 
L 216.10557 65.484066 
L 215.980619 65.601329 
L 215.857543 65.720559 
L 215.736375 65.841727 
L 215.617144 65.964803 
L 215.499882 66.089755 
L 215.384616 66.216551 
L 215.271377 66.34516 
L 215.160192 66.47555 
L 215.05109 66.607687 
L 214.944099 66.741539 
L 214.839244 66.877072 
L 214.736553 67.014251 
L 214.636052 67.153042 
L 214.537765 67.29341 
L 214.441718 67.43532 
L 214.347934 67.578735 
L 214.256437 67.723621 
L 214.167251 67.86994 
L 214.080398 68.017656 
L 213.995899 68.166732 
L 213.913776 68.317129 
L 213.834049 68.46881 
L 213.756739 68.621737 
L 213.681865 68.775871 
L 213.609446 68.931174 
L 213.539501 69.087606 
L 213.472046 69.245129 
L 213.407098 69.403702 
L 213.344675 69.563285 
L 213.284792 69.723839 
L 213.227463 69.885322 
L 213.172704 70.047695 
L 213.120528 70.210916 
L 213.070948 70.374945 
L 213.023977 70.539739 
L 212.979626 70.705258 
L 212.937907 70.87146 
L 212.89883 71.038302 
L 212.862406 71.205744 
L 212.828642 71.373743 
L 212.797548 71.542256 
L 212.769132 71.711241 
L 212.7434 71.880656 
L 212.72036 72.050458 
L 212.700017 72.220604 
L 212.682375 72.391051 
L 212.66744 72.561757 
L 212.655216 72.732678 
L 212.645705 72.903772 
L 212.638909 73.074995 
L 212.634831 73.246304 
L 212.633472 73.417656 
L 212.633472 102.577656 
L 212.634831 102.749009 
L 212.638909 102.920318 
L 212.645705 103.091541 
L 212.655216 103.262635 
L 212.66744 103.433556 
L 212.682375 103.604262 
L 212.700017 103.774709 
L 212.72036 103.944855 
L 212.7434 104.114657 
L 212.769132 104.284071 
L 212.797548 104.453057 
L 212.828642 104.62157 
L 212.862406 104.789568 
L 212.89883 104.95701 
L 212.937907 105.123853 
L 212.979626 105.290055 
L 213.023977 105.455573 
L 213.070948 105.620368 
L 213.120528 105.784396 
L 213.172704 105.947617 
L 213.227463 106.10999 
L 213.284792 106.271474 
L 213.344675 106.432027 
L 213.407098 106.591611 
L 213.472046 106.750184 
L 213.539501 106.907706 
L 213.609446 107.064138 
L 213.681865 107.219441 
L 213.756739 107.373576 
L 213.834049 107.526503 
L 213.913776 107.678184 
L 213.995899 107.828581 
L 214.080398 107.977656 
L 214.167251 108.125372 
L 214.256437 108.271691 
L 214.347934 108.416577 
L 214.441718 108.559993 
L 214.537765 108.701903 
L 214.636052 108.842271 
L 214.736553 108.981062 
L 214.839244 109.118241 
L 214.944099 109.253773 
L 215.05109 109.387625 
L 215.160192 109.519762 
L 215.271377 109.650152 
L 215.384616 109.778761 
L 215.499882 109.905558 
L 215.617144 110.03051 
L 215.736375 110.153585 
L 215.857543 110.274753 
L 215.980619 110.393984 
L 216.10557 110.511247 
L 216.232367 110.626512 
L 216.360976 110.739752 
L 216.491366 110.850936 
L 216.623503 110.960038 
L 216.757355 111.06703 
L 216.892887 111.171884 
L 217.030066 111.274575 
L 217.168857 111.375077 
L 217.309225 111.473363 
L 217.451135 111.569411 
L 217.594551 111.663194 
L 217.739437 111.754691 
L 217.885756 111.843877 
L 218.033472 111.930731 
L 218.182547 112.01523 
L 218.332944 112.097353 
L 218.484626 112.177079 
L 218.637553 112.254389 
L 218.791687 112.329263 
L 218.94699 112.401682 
L 219.103422 112.471628 
L 219.260945 112.539083 
L 219.419517 112.60403 
L 219.579101 112.666453 
L 219.739654 112.726337 
L 219.901138 112.783665 
L 220.063511 112.838424 
L 220.226732 112.8906 
L 220.39076 112.94018 
L 220.555555 112.987152 
L 220.721074 113.031502 
L 220.887275 113.073221 
L 221.054118 113.112298 
L 221.22156 113.148723 
L 221.389559 113.182486 
L 221.558072 113.21358 
L 221.727057 113.241996 
L 221.896472 113.267728 
L 222.066273 113.290768 
L 222.236419 113.311112 
L 222.406867 113.328753 
L 222.577572 113.343688 
L 222.748494 113.355912 
L 222.919587 113.365424 
L 223.09081 113.372219 
L 223.26212 113.376297 
L 223.433472 113.377656 
L 228.893472 113.377656 
z
" clip-path="url(#p54a994390e)" style="fill: none; stroke-dasharray: 1.85,0.8; stroke-dashoffset: 0; stroke: #008000; stroke-width: 0.5; stroke-linecap: round"/>
   </g>
   <g id="patch_3">
    <path d="M 228.893472 220.777656 
L 229.064824 220.776297 
L 229.236134 220.772219 
L 229.407357 220.765424 
L 229.57845 220.755912 
L 229.749372 220.743688 
L 229.920077 220.728753 
L 230.090525 220.711112 
L 230.26067 220.690768 
L 230.430472 220.667728 
L 230.599887 220.641996 
L 230.768872 220.61358 
L 230.937385 220.582486 
L 231.105384 220.548723 
L 231.272826 220.512298 
L 231.439668 220.473221 
L 231.60587 220.431502 
L 231.771389 220.387152 
L 231.936184 220.34018 
L 232.100212 220.2906 
L 232.263433 220.238424 
L 232.425806 220.183665 
L 232.58729 220.126337 
L 232.747843 220.066453 
L 232.907427 220.00403 
L 233.065999 219.939083 
L 233.223522 219.871628 
L 233.379954 219.801682 
L 233.535257 219.729263 
L 233.689391 219.654389 
L 233.842318 219.577079 
L 233.994 219.497353 
L 234.144397 219.41523 
L 234.293472 219.330731 
L 234.441188 219.243877 
L 234.587507 219.154691 
L 234.732393 219.063194 
L 234.875809 218.969411 
L 235.017719 218.873363 
L 235.158087 218.775077 
L 235.296878 218.674575 
L 235.434057 218.571884 
L 235.569589 218.46703 
L 235.703441 218.360038 
L 235.835578 218.250936 
L 235.965968 218.139752 
L 236.094577 218.026512 
L 236.221374 217.911247 
L 236.346325 217.793984 
L 236.469401 217.674753 
L 236.590569 217.553585 
L 236.7098 217.43051 
L 236.827062 217.305558 
L 236.942328 217.178761 
L 237.055567 217.050152 
L 237.166752 216.919762 
L 237.275854 216.787625 
L 237.382845 216.653773 
L 237.4877 216.518241 
L 237.590391 216.381062 
L 237.690892 216.242271 
L 237.789179 216.101903 
L 237.885226 215.959993 
L 237.97901 215.816577 
L 238.070507 215.671691 
L 238.159693 215.525372 
L 238.246546 215.377656 
L 238.331045 215.228581 
L 238.413168 215.078184 
L 238.492895 214.926503 
L 238.570205 214.773576 
L 238.645079 214.619441 
L 238.717498 214.464138 
L 238.787443 214.307706 
L 238.854898 214.150184 
L 238.919846 213.991611 
L 238.982269 213.832027 
L 239.042152 213.671474 
L 239.099481 213.50999 
L 239.15424 213.347617 
L 239.206416 213.184396 
L 239.255996 213.020368 
L 239.302967 212.855573 
L 239.347318 212.690055 
L 239.389037 212.523853 
L 239.428114 212.35701 
L 239.464538 212.189568 
L 239.498302 212.02157 
L 239.529396 211.853057 
L 239.557812 211.684071 
L 239.583544 211.514657 
L 239.606584 211.344855 
L 239.626927 211.174709 
L 239.644569 211.004262 
L 239.659504 210.833556 
L 239.671728 210.662635 
L 239.681239 210.491541 
L 239.688035 210.320318 
L 239.692113 210.149009 
L 239.693472 209.977656 
L 239.693472 180.817656 
L 239.692113 180.646304 
L 239.688035 180.474995 
L 239.681239 180.303772 
L 239.671728 180.132678 
L 239.659504 179.961757 
L 239.644569 179.791051 
L 239.626927 179.620604 
L 239.606584 179.450458 
L 239.583544 179.280656 
L 239.557812 179.111241 
L 239.529396 178.942256 
L 239.498302 178.773743 
L 239.464538 178.605744 
L 239.428114 178.438302 
L 239.389037 178.27146 
L 239.347318 178.105258 
L 239.302967 177.939739 
L 239.255996 177.774945 
L 239.206416 177.610916 
L 239.15424 177.447695 
L 239.099481 177.285322 
L 239.042152 177.123839 
L 238.982269 176.963285 
L 238.919846 176.803702 
L 238.854898 176.645129 
L 238.787443 176.487606 
L 238.717498 176.331174 
L 238.645079 176.175871 
L 238.570205 176.021737 
L 238.492895 175.86881 
L 238.413168 175.717129 
L 238.331045 175.566732 
L 238.246546 175.417656 
L 238.159693 175.26994 
L 238.070507 175.123621 
L 237.97901 174.978735 
L 237.885226 174.83532 
L 237.789179 174.69341 
L 237.690892 174.553042 
L 237.590391 174.414251 
L 237.4877 174.277072 
L 237.382845 174.141539 
L 237.275854 174.007687 
L 237.166752 173.87555 
L 237.055567 173.74516 
L 236.942328 173.616551 
L 236.827062 173.489755 
L 236.7098 173.364803 
L 236.590569 173.241727 
L 236.469401 173.120559 
L 236.346325 173.001329 
L 236.221374 172.884066 
L 236.094577 172.7688 
L 235.965968 172.655561 
L 235.835578 172.544376 
L 235.703441 172.435274 
L 235.569589 172.328283 
L 235.434057 172.223428 
L 235.296878 172.120737 
L 235.158087 172.020236 
L 235.017719 171.921949 
L 234.875809 171.825902 
L 234.732393 171.732118 
L 234.587507 171.640622 
L 234.441188 171.551435 
L 234.293472 171.464582 
L 234.144397 171.380083 
L 233.994 171.29796 
L 233.842318 171.218233 
L 233.689391 171.140923 
L 233.535257 171.06605 
L 233.379954 170.993631 
L 233.223522 170.923685 
L 233.065999 170.85623 
L 232.907427 170.791283 
L 232.747843 170.728859 
L 232.58729 170.668976 
L 232.425806 170.611647 
L 232.263433 170.556888 
L 232.100212 170.504712 
L 231.936184 170.455132 
L 231.771389 170.408161 
L 231.60587 170.36381 
L 231.439668 170.322091 
L 231.272826 170.283015 
L 231.105384 170.24659 
L 230.937385 170.212826 
L 230.768872 170.181733 
L 230.599887 170.153316 
L 230.430472 170.127585 
L 230.26067 170.104544 
L 230.090525 170.084201 
L 229.920077 170.066559 
L 229.749372 170.051625 
L 229.57845 170.0394 
L 229.407357 170.029889 
L 229.236134 170.023094 
L 229.064824 170.019016 
L 228.893472 170.017656 
L 223.433472 170.017656 
L 223.26212 170.019016 
L 223.09081 170.023094 
L 222.919587 170.029889 
L 222.748494 170.0394 
L 222.577572 170.051625 
L 222.406867 170.066559 
L 222.236419 170.084201 
L 222.066273 170.104544 
L 221.896472 170.127585 
L 221.727057 170.153316 
L 221.558072 170.181733 
L 221.389559 170.212826 
L 221.22156 170.24659 
L 221.054118 170.283015 
L 220.887275 170.322091 
L 220.721074 170.36381 
L 220.555555 170.408161 
L 220.39076 170.455132 
L 220.226732 170.504712 
L 220.063511 170.556888 
L 219.901138 170.611647 
L 219.739654 170.668976 
L 219.579101 170.728859 
L 219.419517 170.791283 
L 219.260945 170.85623 
L 219.103422 170.923685 
L 218.94699 170.993631 
L 218.791687 171.06605 
L 218.637553 171.140923 
L 218.484626 171.218233 
L 218.332944 171.29796 
L 218.182547 171.380083 
L 218.033472 171.464582 
L 217.885756 171.551435 
L 217.739437 171.640622 
L 217.594551 171.732118 
L 217.451135 171.825902 
L 217.309225 171.921949 
L 217.168857 172.020236 
L 217.030066 172.120737 
L 216.892887 172.223428 
L 216.757355 172.328283 
L 216.623503 172.435274 
L 216.491366 172.544376 
L 216.360976 172.655561 
L 216.232367 172.7688 
L 216.10557 172.884066 
L 215.980619 173.001329 
L 215.857543 173.120559 
L 215.736375 173.241727 
L 215.617144 173.364803 
L 215.499882 173.489755 
L 215.384616 173.616551 
L 215.271377 173.74516 
L 215.160192 173.87555 
L 215.05109 174.007687 
L 214.944099 174.141539 
L 214.839244 174.277072 
L 214.736553 174.414251 
L 214.636052 174.553042 
L 214.537765 174.69341 
L 214.441718 174.83532 
L 214.347934 174.978735 
L 214.256437 175.123621 
L 214.167251 175.26994 
L 214.080398 175.417656 
L 213.995899 175.566732 
L 213.913776 175.717129 
L 213.834049 175.86881 
L 213.756739 176.021737 
L 213.681865 176.175871 
L 213.609446 176.331174 
L 213.539501 176.487606 
L 213.472046 176.645129 
L 213.407098 176.803702 
L 213.344675 176.963285 
L 213.284792 177.123839 
L 213.227463 177.285322 
L 213.172704 177.447695 
L 213.120528 177.610916 
L 213.070948 177.774945 
L 213.023977 177.939739 
L 212.979626 178.105258 
L 212.937907 178.27146 
L 212.89883 178.438302 
L 212.862406 178.605744 
L 212.828642 178.773743 
L 212.797548 178.942256 
L 212.769132 179.111241 
L 212.7434 179.280656 
L 212.72036 179.450458 
L 212.700017 179.620604 
L 212.682375 179.791051 
L 212.66744 179.961757 
L 212.655216 180.132678 
L 212.645705 180.303772 
L 212.638909 180.474995 
L 212.634831 180.646304 
L 212.633472 180.817656 
L 212.633472 209.977656 
L 212.634831 210.149009 
L 212.638909 210.320318 
L 212.645705 210.491541 
L 212.655216 210.662635 
L 212.66744 210.833556 
L 212.682375 211.004262 
L 212.700017 211.174709 
L 212.72036 211.344855 
L 212.7434 211.514657 
L 212.769132 211.684071 
L 212.797548 211.853057 
L 212.828642 212.02157 
L 212.862406 212.189568 
L 212.89883 212.35701 
L 212.937907 212.523853 
L 212.979626 212.690055 
L 213.023977 212.855573 
L 213.070948 213.020368 
L 213.120528 213.184396 
L 213.172704 213.347617 
L 213.227463 213.50999 
L 213.284792 213.671474 
L 213.344675 213.832027 
L 213.407098 213.991611 
L 213.472046 214.150184 
L 213.539501 214.307706 
L 213.609446 214.464138 
L 213.681865 214.619441 
L 213.756739 214.773576 
L 213.834049 214.926503 
L 213.913776 215.078184 
L 213.995899 215.228581 
L 214.080398 215.377656 
L 214.167251 215.525372 
L 214.256437 215.671691 
L 214.347934 215.816577 
L 214.441718 215.959993 
L 214.537765 216.101903 
L 214.636052 216.242271 
L 214.736553 216.381062 
L 214.839244 216.518241 
L 214.944099 216.653773 
L 215.05109 216.787625 
L 215.160192 216.919762 
L 215.271377 217.050152 
L 215.384616 217.178761 
L 215.499882 217.305558 
L 215.617144 217.43051 
L 215.736375 217.553585 
L 215.857543 217.674753 
L 215.980619 217.793984 
L 216.10557 217.911247 
L 216.232367 218.026512 
L 216.360976 218.139752 
L 216.491366 218.250936 
L 216.623503 218.360038 
L 216.757355 218.46703 
L 216.892887 218.571884 
L 217.030066 218.674575 
L 217.168857 218.775077 
L 217.309225 218.873363 
L 217.451135 218.969411 
L 217.594551 219.063194 
L 217.739437 219.154691 
L 217.885756 219.243877 
L 218.033472 219.330731 
L 218.182547 219.41523 
L 218.332944 219.497353 
L 218.484626 219.577079 
L 218.637553 219.654389 
L 218.791687 219.729263 
L 218.94699 219.801682 
L 219.103422 219.871628 
L 219.260945 219.939083 
L 219.419517 220.00403 
L 219.579101 220.066453 
L 219.739654 220.126337 
L 219.901138 220.183665 
L 220.063511 220.238424 
L 220.226732 220.2906 
L 220.39076 220.34018 
L 220.555555 220.387152 
L 220.721074 220.431502 
L 220.887275 220.473221 
L 221.054118 220.512298 
L 221.22156 220.548723 
L 221.389559 220.582486 
L 221.558072 220.61358 
L 221.727057 220.641996 
L 221.896472 220.667728 
L 222.066273 220.690768 
L 222.236419 220.711112 
L 222.406867 220.728753 
L 222.577572 220.743688 
L 222.748494 220.755912 
L 222.919587 220.765424 
L 223.09081 220.772219 
L 223.26212 220.776297 
L 223.433472 220.777656 
L 228.893472 220.777656 
z
" clip-path="url(#p54a994390e)" style="fill: none; stroke-dasharray: 1.85,0.8; stroke-dashoffset: 0; stroke: #008000; stroke-width: 0.5; stroke-linecap: round"/>
   </g>
   <g id="patch_4">
    <path d="M 182.093472 192.097656 
L 182.264824 192.096297 
L 182.436134 192.092219 
L 182.607357 192.085424 
L 182.77845 192.075912 
L 182.949372 192.063688 
L 183.120077 192.048753 
L 183.290525 192.031112 
L 183.46067 192.010768 
L 183.630472 191.987728 
L 183.799887 191.961996 
L 183.968872 191.93358 
L 184.137385 191.902486 
L 184.305384 191.868723 
L 184.472826 191.832298 
L 184.639668 191.793221 
L 184.80587 191.751502 
L 184.971389 191.707152 
L 185.136184 191.66018 
L 185.300212 191.6106 
L 185.463433 191.558424 
L 185.625806 191.503665 
L 185.78729 191.446337 
L 185.947843 191.386453 
L 186.107427 191.32403 
L 186.265999 191.259083 
L 186.423522 191.191628 
L 186.579954 191.121682 
L 186.735257 191.049263 
L 186.889391 190.974389 
L 187.042318 190.897079 
L 187.194 190.817353 
L 187.344397 190.73523 
L 187.493472 190.650731 
L 187.641188 190.563877 
L 187.787507 190.474691 
L 187.932393 190.383194 
L 188.075809 190.289411 
L 188.217719 190.193363 
L 188.358087 190.095077 
L 188.496878 189.994575 
L 188.634057 189.891884 
L 188.769589 189.78703 
L 188.903441 189.680038 
L 189.035578 189.570936 
L 189.165968 189.459752 
L 189.294577 189.346512 
L 189.421374 189.231247 
L 189.546325 189.113984 
L 189.669401 188.994753 
L 189.790569 188.873585 
L 189.9098 188.75051 
L 190.027062 188.625558 
L 190.142328 188.498761 
L 190.255567 188.370152 
L 190.366752 188.239762 
L 190.475854 188.107625 
L 190.582845 187.973773 
L 190.6877 187.838241 
L 190.790391 187.701062 
L 190.890892 187.562271 
L 190.989179 187.421903 
L 191.085226 187.279993 
L 191.17901 187.136577 
L 191.270507 186.991691 
L 191.359693 186.845372 
L 191.446546 186.697656 
L 191.531045 186.548581 
L 191.613168 186.398184 
L 191.692895 186.246503 
L 191.770205 186.093576 
L 191.845079 185.939441 
L 191.917498 185.784138 
L 191.987443 185.627706 
L 192.054898 185.470184 
L 192.119846 185.311611 
L 192.182269 185.152027 
L 192.242152 184.991474 
L 192.299481 184.82999 
L 192.35424 184.667617 
L 192.406416 184.504396 
L 192.455996 184.340368 
L 192.502967 184.175573 
L 192.547318 184.010055 
L 192.589037 183.843853 
L 192.628114 183.67701 
L 192.664538 183.509568 
L 192.698302 183.34157 
L 192.729396 183.173057 
L 192.757812 183.004071 
L 192.783544 182.834657 
L 192.806584 182.664855 
L 192.826927 182.494709 
L 192.844569 182.324262 
L 192.859504 182.153556 
L 192.871728 181.982635 
L 192.881239 181.811541 
L 192.888035 181.640318 
L 192.892113 181.469009 
L 192.893472 181.297656 
L 192.893472 102.097656 
L 192.892113 101.926304 
L 192.888035 101.754995 
L 192.881239 101.583772 
L 192.871728 101.412678 
L 192.859504 101.241757 
L 192.844569 101.071051 
L 192.826927 100.900604 
L 192.806584 100.730458 
L 192.783544 100.560656 
L 192.757812 100.391241 
L 192.729396 100.222256 
L 192.698302 100.053743 
L 192.664538 99.885744 
L 192.628114 99.718302 
L 192.589037 99.55146 
L 192.547318 99.385258 
L 192.502967 99.219739 
L 192.455996 99.054945 
L 192.406416 98.890916 
L 192.35424 98.727695 
L 192.299481 98.565322 
L 192.242152 98.403839 
L 192.182269 98.243285 
L 192.119846 98.083702 
L 192.054898 97.925129 
L 191.987443 97.767606 
L 191.917498 97.611174 
L 191.845079 97.455871 
L 191.770205 97.301737 
L 191.692895 97.14881 
L 191.613168 96.997129 
L 191.531045 96.846732 
L 191.446546 96.697656 
L 191.359693 96.54994 
L 191.270507 96.403621 
L 191.17901 96.258735 
L 191.085226 96.11532 
L 190.989179 95.97341 
L 190.890892 95.833042 
L 190.790391 95.694251 
L 190.6877 95.557072 
L 190.582845 95.421539 
L 190.475854 95.287687 
L 190.366752 95.15555 
L 190.255567 95.02516 
L 190.142328 94.896551 
L 190.027062 94.769755 
L 189.9098 94.644803 
L 189.790569 94.521727 
L 189.669401 94.400559 
L 189.546325 94.281329 
L 189.421374 94.164066 
L 189.294577 94.0488 
L 189.165968 93.935561 
L 189.035578 93.824376 
L 188.903441 93.715274 
L 188.769589 93.608283 
L 188.634057 93.503428 
L 188.496878 93.400737 
L 188.358087 93.300236 
L 188.217719 93.201949 
L 188.075809 93.105902 
L 187.932393 93.012118 
L 187.787507 92.920622 
L 187.641188 92.831435 
L 187.493472 92.744582 
L 187.344397 92.660083 
L 187.194 92.57796 
L 187.042318 92.498233 
L 186.889391 92.420923 
L 186.735257 92.34605 
L 186.579954 92.273631 
L 186.423522 92.203685 
L 186.265999 92.13623 
L 186.107427 92.071283 
L 185.947843 92.008859 
L 185.78729 91.948976 
L 185.625806 91.891647 
L 185.463433 91.836888 
L 185.300212 91.784712 
L 185.136184 91.735132 
L 184.971389 91.688161 
L 184.80587 91.64381 
L 184.639668 91.602091 
L 184.472826 91.563015 
L 184.305384 91.52659 
L 184.137385 91.492826 
L 183.968872 91.461733 
L 183.799887 91.433316 
L 183.630472 91.407585 
L 183.46067 91.384544 
L 183.290525 91.364201 
L 183.120077 91.346559 
L 182.949372 91.331625 
L 182.77845 91.3194 
L 182.607357 91.309889 
L 182.436134 91.303094 
L 182.264824 91.299016 
L 182.093472 91.297656 
L 114.797472 91.297656 
L 114.62612 91.299016 
L 114.45481 91.303094 
L 114.283587 91.309889 
L 114.112494 91.3194 
L 113.941572 91.331625 
L 113.770867 91.346559 
L 113.600419 91.364201 
L 113.430273 91.384544 
L 113.260472 91.407585 
L 113.091057 91.433316 
L 112.922072 91.461733 
L 112.753559 91.492826 
L 112.58556 91.52659 
L 112.418118 91.563015 
L 112.251275 91.602091 
L 112.085074 91.64381 
L 111.919555 91.688161 
L 111.75476 91.735132 
L 111.590732 91.784712 
L 111.427511 91.836888 
L 111.265138 91.891647 
L 111.103654 91.948976 
L 110.943101 92.008859 
L 110.783517 92.071283 
L 110.624945 92.13623 
L 110.467422 92.203685 
L 110.31099 92.273631 
L 110.155687 92.34605 
L 110.001553 92.420923 
L 109.848626 92.498233 
L 109.696944 92.57796 
L 109.546547 92.660083 
L 109.397472 92.744582 
L 109.249756 92.831435 
L 109.103437 92.920622 
L 108.958551 93.012118 
L 108.815135 93.105902 
L 108.673225 93.201949 
L 108.532857 93.300236 
L 108.394066 93.400737 
L 108.256887 93.503428 
L 108.121355 93.608283 
L 107.987503 93.715274 
L 107.855366 93.824376 
L 107.724976 93.935561 
L 107.596367 94.0488 
L 107.46957 94.164066 
L 107.344619 94.281329 
L 107.221543 94.400559 
L 107.100375 94.521727 
L 106.981144 94.644803 
L 106.863882 94.769755 
L 106.748616 94.896551 
L 106.635377 95.02516 
L 106.524192 95.15555 
L 106.41509 95.287687 
L 106.308099 95.421539 
L 106.203244 95.557072 
L 106.100553 95.694251 
L 106.000052 95.833042 
L 105.901765 95.97341 
L 105.805718 96.11532 
L 105.711934 96.258735 
L 105.620437 96.403621 
L 105.531251 96.54994 
L 105.444398 96.697656 
L 105.359899 96.846732 
L 105.277776 96.997129 
L 105.198049 97.14881 
L 105.120739 97.301737 
L 105.045865 97.455871 
L 104.973446 97.611174 
L 104.903501 97.767606 
L 104.836046 97.925129 
L 104.771098 98.083702 
L 104.708675 98.243285 
L 104.648792 98.403839 
L 104.591463 98.565322 
L 104.536704 98.727695 
L 104.484528 98.890916 
L 104.434948 99.054945 
L 104.387977 99.219739 
L 104.343626 99.385258 
L 104.301907 99.55146 
L 104.26283 99.718302 
L 104.226406 99.885744 
L 104.192642 100.053743 
L 104.161548 100.222256 
L 104.133132 100.391241 
L 104.1074 100.560656 
L 104.08436 100.730458 
L 104.064017 100.900604 
L 104.046375 101.071051 
L 104.03144 101.241757 
L 104.019216 101.412678 
L 104.009705 101.583772 
L 104.002909 101.754995 
L 103.998831 101.926304 
L 103.997472 102.097656 
L 103.997472 181.297656 
L 103.998831 181.469009 
L 104.002909 181.640318 
L 104.009705 181.811541 
L 104.019216 181.982635 
L 104.03144 182.153556 
L 104.046375 182.324262 
L 104.064017 182.494709 
L 104.08436 182.664855 
L 104.1074 182.834657 
L 104.133132 183.004071 
L 104.161548 183.173057 
L 104.192642 183.34157 
L 104.226406 183.509568 
L 104.26283 183.67701 
L 104.301907 183.843853 
L 104.343626 184.010055 
L 104.387977 184.175573 
L 104.434948 184.340368 
L 104.484528 184.504396 
L 104.536704 184.667617 
L 104.591463 184.82999 
L 104.648792 184.991474 
L 104.708675 185.152027 
L 104.771098 185.311611 
L 104.836046 185.470184 
L 104.903501 185.627706 
L 104.973446 185.784138 
L 105.045865 185.939441 
L 105.120739 186.093576 
L 105.198049 186.246503 
L 105.277776 186.398184 
L 105.359899 186.548581 
L 105.444398 186.697656 
L 105.531251 186.845372 
L 105.620437 186.991691 
L 105.711934 187.136577 
L 105.805718 187.279993 
L 105.901765 187.421903 
L 106.000052 187.562271 
L 106.100553 187.701062 
L 106.203244 187.838241 
L 106.308099 187.973773 
L 106.41509 188.107625 
L 106.524192 188.239762 
L 106.635377 188.370152 
L 106.748616 188.498761 
L 106.863882 188.625558 
L 106.981144 188.75051 
L 107.100375 188.873585 
L 107.221543 188.994753 
L 107.344619 189.113984 
L 107.46957 189.231247 
L 107.596367 189.346512 
L 107.724976 189.459752 
L 107.855366 189.570936 
L 107.987503 189.680038 
L 108.121355 189.78703 
L 108.256887 189.891884 
L 108.394066 189.994575 
L 108.532857 190.095077 
L 108.673225 190.193363 
L 108.815135 190.289411 
L 108.958551 190.383194 
L 109.103437 190.474691 
L 109.249756 190.563877 
L 109.397472 190.650731 
L 109.546547 190.73523 
L 109.696944 190.817353 
L 109.848626 190.897079 
L 110.001553 190.974389 
L 110.155687 191.049263 
L 110.31099 191.121682 
L 110.467422 191.191628 
L 110.624945 191.259083 
L 110.783517 191.32403 
L 110.943101 191.386453 
L 111.103654 191.446337 
L 111.265138 191.503665 
L 111.427511 191.558424 
L 111.590732 191.6106 
L 111.75476 191.66018 
L 111.919555 191.707152 
L 112.085074 191.751502 
L 112.251275 191.793221 
L 112.418118 191.832298 
L 112.58556 191.868723 
L 112.753559 191.902486 
L 112.922072 191.93358 
L 113.091057 191.961996 
L 113.260472 191.987728 
L 113.430273 192.010768 
L 113.600419 192.031112 
L 113.770867 192.048753 
L 113.941572 192.063688 
L 114.112494 192.075912 
L 114.283587 192.085424 
L 114.45481 192.092219 
L 114.62612 192.096297 
L 114.797472 192.097656 
L 182.093472 192.097656 
z
" clip-path="url(#p54a994390e)" style="fill: none; stroke-dasharray: 1.85,0.8; stroke-dashoffset: 0; stroke: #ff0000; stroke-width: 0.5; stroke-linecap: round"/>
   </g>
   <g id="patch_5">
    <path d="M 164.033472 84.097656 
L 164.204824 84.096297 
L 164.376134 84.092219 
L 164.547357 84.085424 
L 164.71845 84.075912 
L 164.889372 84.063688 
L 165.060077 84.048753 
L 165.230525 84.031112 
L 165.40067 84.010768 
L 165.570472 83.987728 
L 165.739887 83.961996 
L 165.908872 83.93358 
L 166.077385 83.902486 
L 166.245384 83.868723 
L 166.412826 83.832298 
L 166.579668 83.793221 
L 166.74587 83.751502 
L 166.911389 83.707152 
L 167.076184 83.66018 
L 167.240212 83.6106 
L 167.403433 83.558424 
L 167.565806 83.503665 
L 167.72729 83.446337 
L 167.887843 83.386453 
L 168.047427 83.32403 
L 168.205999 83.259083 
L 168.363522 83.191628 
L 168.519954 83.121682 
L 168.675257 83.049263 
L 168.829391 82.974389 
L 168.982318 82.897079 
L 169.134 82.817353 
L 169.284397 82.73523 
L 169.433472 82.650731 
L 169.581188 82.563877 
L 169.727507 82.474691 
L 169.872393 82.383194 
L 170.015809 82.289411 
L 170.157719 82.193363 
L 170.298087 82.095077 
L 170.436878 81.994575 
L 170.574057 81.891884 
L 170.709589 81.78703 
L 170.843441 81.680038 
L 170.975578 81.570936 
L 171.105968 81.459752 
L 171.234577 81.346512 
L 171.361374 81.231247 
L 171.486325 81.113984 
L 171.609401 80.994753 
L 171.730569 80.873585 
L 171.8498 80.75051 
L 171.967062 80.625558 
L 172.082328 80.498761 
L 172.195567 80.370152 
L 172.306752 80.239762 
L 172.415854 80.107625 
L 172.522845 79.973773 
L 172.6277 79.838241 
L 172.730391 79.701062 
L 172.830892 79.562271 
L 172.929179 79.421903 
L 173.025226 79.279993 
L 173.11901 79.136577 
L 173.210507 78.991691 
L 173.299693 78.845372 
L 173.386546 78.697656 
L 173.471045 78.548581 
L 173.553168 78.398184 
L 173.632895 78.246503 
L 173.710205 78.093576 
L 173.785079 77.939441 
L 173.857498 77.784138 
L 173.927443 77.627706 
L 173.994898 77.470184 
L 174.059846 77.311611 
L 174.122269 77.152027 
L 174.182152 76.991474 
L 174.239481 76.82999 
L 174.29424 76.667617 
L 174.346416 76.504396 
L 174.395996 76.340368 
L 174.442967 76.175573 
L 174.487318 76.010055 
L 174.529037 75.843853 
L 174.568114 75.67701 
L 174.604538 75.509568 
L 174.638302 75.34157 
L 174.669396 75.173057 
L 174.697812 75.004071 
L 174.723544 74.834657 
L 174.746584 74.664855 
L 174.766927 74.494709 
L 174.784569 74.324262 
L 174.799504 74.153556 
L 174.811728 73.982635 
L 174.821239 73.811541 
L 174.828035 73.640318 
L 174.832113 73.469009 
L 174.833472 73.297656 
L 174.833472 48.097656 
L 174.832113 47.926304 
L 174.828035 47.754995 
L 174.821239 47.583772 
L 174.811728 47.412678 
L 174.799504 47.241757 
L 174.784569 47.071051 
L 174.766927 46.900604 
L 174.746584 46.730458 
L 174.723544 46.560656 
L 174.697812 46.391241 
L 174.669396 46.222256 
L 174.638302 46.053743 
L 174.604538 45.885744 
L 174.568114 45.718302 
L 174.529037 45.55146 
L 174.487318 45.385258 
L 174.442967 45.219739 
L 174.395996 45.054945 
L 174.346416 44.890916 
L 174.29424 44.727695 
L 174.239481 44.565322 
L 174.182152 44.403839 
L 174.122269 44.243285 
L 174.059846 44.083702 
L 173.994898 43.925129 
L 173.927443 43.767606 
L 173.857498 43.611174 
L 173.785079 43.455871 
L 173.710205 43.301737 
L 173.632895 43.14881 
L 173.553168 42.997129 
L 173.471045 42.846732 
L 173.386546 42.697656 
L 173.299693 42.54994 
L 173.210507 42.403621 
L 173.11901 42.258735 
L 173.025226 42.11532 
L 172.929179 41.97341 
L 172.830892 41.833042 
L 172.730391 41.694251 
L 172.6277 41.557072 
L 172.522845 41.421539 
L 172.415854 41.287687 
L 172.306752 41.15555 
L 172.195567 41.02516 
L 172.082328 40.896551 
L 171.967062 40.769755 
L 171.8498 40.644803 
L 171.730569 40.521727 
L 171.609401 40.400559 
L 171.486325 40.281329 
L 171.361374 40.164066 
L 171.234577 40.0488 
L 171.105968 39.935561 
L 170.975578 39.824376 
L 170.843441 39.715274 
L 170.709589 39.608283 
L 170.574057 39.503428 
L 170.436878 39.400737 
L 170.298087 39.300236 
L 170.157719 39.201949 
L 170.015809 39.105902 
L 169.872393 39.012118 
L 169.727507 38.920622 
L 169.581188 38.831435 
L 169.433472 38.744582 
L 169.284397 38.660083 
L 169.134 38.57796 
L 168.982318 38.498233 
L 168.829391 38.420923 
L 168.675257 38.34605 
L 168.519954 38.273631 
L 168.363522 38.203685 
L 168.205999 38.13623 
L 168.047427 38.071283 
L 167.887843 38.008859 
L 167.72729 37.948976 
L 167.565806 37.891647 
L 167.403433 37.836888 
L 167.240212 37.784712 
L 167.076184 37.735132 
L 166.911389 37.688161 
L 166.74587 37.64381 
L 166.579668 37.602091 
L 166.412826 37.563015 
L 166.245384 37.52659 
L 166.077385 37.492826 
L 165.908872 37.461733 
L 165.739887 37.433316 
L 165.570472 37.407585 
L 165.40067 37.384544 
L 165.230525 37.364201 
L 165.060077 37.346559 
L 164.889372 37.331625 
L 164.71845 37.3194 
L 164.547357 37.309889 
L 164.376134 37.303094 
L 164.204824 37.299016 
L 164.033472 37.297656 
L 126.725472 37.297656 
L 126.55412 37.299016 
L 126.38281 37.303094 
L 126.211587 37.309889 
L 126.040494 37.3194 
L 125.869572 37.331625 
L 125.698867 37.346559 
L 125.528419 37.364201 
L 125.358273 37.384544 
L 125.188472 37.407585 
L 125.019057 37.433316 
L 124.850072 37.461733 
L 124.681559 37.492826 
L 124.51356 37.52659 
L 124.346118 37.563015 
L 124.179275 37.602091 
L 124.013074 37.64381 
L 123.847555 37.688161 
L 123.68276 37.735132 
L 123.518732 37.784712 
L 123.355511 37.836888 
L 123.193138 37.891647 
L 123.031654 37.948976 
L 122.871101 38.008859 
L 122.711517 38.071283 
L 122.552945 38.13623 
L 122.395422 38.203685 
L 122.23899 38.273631 
L 122.083687 38.34605 
L 121.929553 38.420923 
L 121.776626 38.498233 
L 121.624944 38.57796 
L 121.474547 38.660083 
L 121.325472 38.744582 
L 121.177756 38.831435 
L 121.031437 38.920622 
L 120.886551 39.012118 
L 120.743135 39.105902 
L 120.601225 39.201949 
L 120.460857 39.300236 
L 120.322066 39.400737 
L 120.184887 39.503428 
L 120.049355 39.608283 
L 119.915503 39.715274 
L 119.783366 39.824376 
L 119.652976 39.935561 
L 119.524367 40.0488 
L 119.39757 40.164066 
L 119.272619 40.281329 
L 119.149543 40.400559 
L 119.028375 40.521727 
L 118.909144 40.644803 
L 118.791882 40.769755 
L 118.676616 40.896551 
L 118.563377 41.02516 
L 118.452192 41.15555 
L 118.34309 41.287687 
L 118.236099 41.421539 
L 118.131244 41.557072 
L 118.028553 41.694251 
L 117.928052 41.833042 
L 117.829765 41.97341 
L 117.733718 42.11532 
L 117.639934 42.258735 
L 117.548437 42.403621 
L 117.459251 42.54994 
L 117.372398 42.697656 
L 117.287899 42.846732 
L 117.205776 42.997129 
L 117.126049 43.14881 
L 117.048739 43.301737 
L 116.973865 43.455871 
L 116.901446 43.611174 
L 116.831501 43.767606 
L 116.764046 43.925129 
L 116.699098 44.083702 
L 116.636675 44.243285 
L 116.576792 44.403839 
L 116.519463 44.565322 
L 116.464704 44.727695 
L 116.412528 44.890916 
L 116.362948 45.054945 
L 116.315977 45.219739 
L 116.271626 45.385258 
L 116.229907 45.55146 
L 116.19083 45.718302 
L 116.154406 45.885744 
L 116.120642 46.053743 
L 116.089548 46.222256 
L 116.061132 46.391241 
L 116.0354 46.560656 
L 116.01236 46.730458 
L 115.992017 46.900604 
L 115.974375 47.071051 
L 115.95944 47.241757 
L 115.947216 47.412678 
L 115.937705 47.583772 
L 115.930909 47.754995 
L 115.926831 47.926304 
L 115.925472 48.097656 
L 115.925472 73.297656 
L 115.926831 73.469009 
L 115.930909 73.640318 
L 115.937705 73.811541 
L 115.947216 73.982635 
L 115.95944 74.153556 
L 115.974375 74.324262 
L 115.992017 74.494709 
L 116.01236 74.664855 
L 116.0354 74.834657 
L 116.061132 75.004071 
L 116.089548 75.173057 
L 116.120642 75.34157 
L 116.154406 75.509568 
L 116.19083 75.67701 
L 116.229907 75.843853 
L 116.271626 76.010055 
L 116.315977 76.175573 
L 116.362948 76.340368 
L 116.412528 76.504396 
L 116.464704 76.667617 
L 116.519463 76.82999 
L 116.576792 76.991474 
L 116.636675 77.152027 
L 116.699098 77.311611 
L 116.764046 77.470184 
L 116.831501 77.627706 
L 116.901446 77.784138 
L 116.973865 77.939441 
L 117.048739 78.093576 
L 117.126049 78.246503 
L 117.205776 78.398184 
L 117.287899 78.548581 
L 117.372398 78.697656 
L 117.459251 78.845372 
L 117.548437 78.991691 
L 117.639934 79.136577 
L 117.733718 79.279993 
L 117.829765 79.421903 
L 117.928052 79.562271 
L 118.028553 79.701062 
L 118.131244 79.838241 
L 118.236099 79.973773 
L 118.34309 80.107625 
L 118.452192 80.239762 
L 118.563377 80.370152 
L 118.676616 80.498761 
L 118.791882 80.625558 
L 118.909144 80.75051 
L 119.028375 80.873585 
L 119.149543 80.994753 
L 119.272619 81.113984 
L 119.39757 81.231247 
L 119.524367 81.346512 
L 119.652976 81.459752 
L 119.783366 81.570936 
L 119.915503 81.680038 
L 120.049355 81.78703 
L 120.184887 81.891884 
L 120.322066 81.994575 
L 120.460857 82.095077 
L 120.601225 82.193363 
L 120.743135 82.289411 
L 120.886551 82.383194 
L 121.031437 82.474691 
L 121.177756 82.563877 
L 121.325472 82.650731 
L 121.474547 82.73523 
L 121.624944 82.817353 
L 121.776626 82.897079 
L 121.929553 82.974389 
L 122.083687 83.049263 
L 122.23899 83.121682 
L 122.395422 83.191628 
L 122.552945 83.259083 
L 122.711517 83.32403 
L 122.871101 83.386453 
L 123.031654 83.446337 
L 123.193138 83.503665 
L 123.355511 83.558424 
L 123.518732 83.6106 
L 123.68276 83.66018 
L 123.847555 83.707152 
L 124.013074 83.751502 
L 124.179275 83.793221 
L 124.346118 83.832298 
L 124.51356 83.868723 
L 124.681559 83.902486 
L 124.850072 83.93358 
L 125.019057 83.961996 
L 125.188472 83.987728 
L 125.358273 84.010768 
L 125.528419 84.031112 
L 125.698867 84.048753 
L 125.869572 84.063688 
L 126.040494 84.075912 
L 126.211587 84.085424 
L 126.38281 84.092219 
L 126.55412 84.096297 
L 126.725472 84.097656 
L 164.033472 84.097656 
z
" clip-path="url(#p54a994390e)" style="fill: none; stroke-dasharray: 1.85,0.8; stroke-dashoffset: 0; stroke: #a52a2a; stroke-width: 0.5; stroke-linecap: round"/>
   </g>
   <g id="patch_6">
    <path d="M 155.033472 242.857656 
L 155.204824 242.856297 
L 155.376134 242.852219 
L 155.547357 242.845424 
L 155.71845 242.835912 
L 155.889372 242.823688 
L 156.060077 242.808753 
L 156.230525 242.791112 
L 156.40067 242.770768 
L 156.570472 242.747728 
L 156.739887 242.721996 
L 156.908872 242.69358 
L 157.077385 242.662486 
L 157.245384 242.628723 
L 157.412826 242.592298 
L 157.579668 242.553221 
L 157.74587 242.511502 
L 157.911389 242.467152 
L 158.076184 242.42018 
L 158.240212 242.3706 
L 158.403433 242.318424 
L 158.565806 242.263665 
L 158.72729 242.206337 
L 158.887843 242.146453 
L 159.047427 242.08403 
L 159.205999 242.019083 
L 159.363522 241.951628 
L 159.519954 241.881682 
L 159.675257 241.809263 
L 159.829391 241.734389 
L 159.982318 241.657079 
L 160.134 241.577353 
L 160.284397 241.49523 
L 160.433472 241.410731 
L 160.581188 241.323877 
L 160.727507 241.234691 
L 160.872393 241.143194 
L 161.015809 241.049411 
L 161.157719 240.953363 
L 161.298087 240.855077 
L 161.436878 240.754575 
L 161.574057 240.651884 
L 161.709589 240.54703 
L 161.843441 240.440038 
L 161.975578 240.330936 
L 162.105968 240.219752 
L 162.234577 240.106512 
L 162.361374 239.991247 
L 162.486325 239.873984 
L 162.609401 239.754753 
L 162.730569 239.633585 
L 162.8498 239.51051 
L 162.967062 239.385558 
L 163.082328 239.258761 
L 163.195567 239.130152 
L 163.306752 238.999762 
L 163.415854 238.867625 
L 163.522845 238.733773 
L 163.6277 238.598241 
L 163.730391 238.461062 
L 163.830892 238.322271 
L 163.929179 238.181903 
L 164.025226 238.039993 
L 164.11901 237.896577 
L 164.210507 237.751691 
L 164.299693 237.605372 
L 164.386546 237.457656 
L 164.471045 237.308581 
L 164.553168 237.158184 
L 164.632895 237.006503 
L 164.710205 236.853576 
L 164.785079 236.699441 
L 164.857498 236.544138 
L 164.927443 236.387706 
L 164.994898 236.230184 
L 165.059846 236.071611 
L 165.122269 235.912027 
L 165.182152 235.751474 
L 165.239481 235.58999 
L 165.29424 235.427617 
L 165.346416 235.264396 
L 165.395996 235.100368 
L 165.442967 234.935573 
L 165.487318 234.770055 
L 165.529037 234.603853 
L 165.568114 234.43701 
L 165.604538 234.269568 
L 165.638302 234.10157 
L 165.669396 233.933057 
L 165.697812 233.764071 
L 165.723544 233.594657 
L 165.746584 233.424855 
L 165.766927 233.254709 
L 165.784569 233.084262 
L 165.799504 232.913556 
L 165.811728 232.742635 
L 165.821239 232.571541 
L 165.828035 232.400318 
L 165.832113 232.229009 
L 165.833472 232.057656 
L 165.833472 210.097656 
L 165.832113 209.926304 
L 165.828035 209.754995 
L 165.821239 209.583772 
L 165.811728 209.412678 
L 165.799504 209.241757 
L 165.784569 209.071051 
L 165.766927 208.900604 
L 165.746584 208.730458 
L 165.723544 208.560656 
L 165.697812 208.391241 
L 165.669396 208.222256 
L 165.638302 208.053743 
L 165.604538 207.885744 
L 165.568114 207.718302 
L 165.529037 207.55146 
L 165.487318 207.385258 
L 165.442967 207.219739 
L 165.395996 207.054945 
L 165.346416 206.890916 
L 165.29424 206.727695 
L 165.239481 206.565322 
L 165.182152 206.403839 
L 165.122269 206.243285 
L 165.059846 206.083702 
L 164.994898 205.925129 
L 164.927443 205.767606 
L 164.857498 205.611174 
L 164.785079 205.455871 
L 164.710205 205.301737 
L 164.632895 205.14881 
L 164.553168 204.997129 
L 164.471045 204.846732 
L 164.386546 204.697656 
L 164.299693 204.54994 
L 164.210507 204.403621 
L 164.11901 204.258735 
L 164.025226 204.11532 
L 163.929179 203.97341 
L 163.830892 203.833042 
L 163.730391 203.694251 
L 163.6277 203.557072 
L 163.522845 203.421539 
L 163.415854 203.287687 
L 163.306752 203.15555 
L 163.195567 203.02516 
L 163.082328 202.896551 
L 162.967062 202.769755 
L 162.8498 202.644803 
L 162.730569 202.521727 
L 162.609401 202.400559 
L 162.486325 202.281329 
L 162.361374 202.164066 
L 162.234577 202.0488 
L 162.105968 201.935561 
L 161.975578 201.824376 
L 161.843441 201.715274 
L 161.709589 201.608283 
L 161.574057 201.503428 
L 161.436878 201.400737 
L 161.298087 201.300236 
L 161.157719 201.201949 
L 161.015809 201.105902 
L 160.872393 201.012118 
L 160.727507 200.920622 
L 160.581188 200.831435 
L 160.433472 200.744582 
L 160.284397 200.660083 
L 160.134 200.57796 
L 159.982318 200.498233 
L 159.829391 200.420923 
L 159.675257 200.34605 
L 159.519954 200.273631 
L 159.363522 200.203685 
L 159.205999 200.13623 
L 159.047427 200.071283 
L 158.887843 200.008859 
L 158.72729 199.948976 
L 158.565806 199.891647 
L 158.403433 199.836888 
L 158.240212 199.784712 
L 158.076184 199.735132 
L 157.911389 199.688161 
L 157.74587 199.64381 
L 157.579668 199.602091 
L 157.412826 199.563015 
L 157.245384 199.52659 
L 157.077385 199.492826 
L 156.908872 199.461733 
L 156.739887 199.433316 
L 156.570472 199.407585 
L 156.40067 199.384544 
L 156.230525 199.364201 
L 156.060077 199.346559 
L 155.889372 199.331625 
L 155.71845 199.3194 
L 155.547357 199.309889 
L 155.376134 199.303094 
L 155.204824 199.299016 
L 155.033472 199.297656 
L 135.173472 199.297656 
L 135.00212 199.299016 
L 134.83081 199.303094 
L 134.659587 199.309889 
L 134.488494 199.3194 
L 134.317572 199.331625 
L 134.146867 199.346559 
L 133.976419 199.364201 
L 133.806273 199.384544 
L 133.636472 199.407585 
L 133.467057 199.433316 
L 133.298072 199.461733 
L 133.129559 199.492826 
L 132.96156 199.52659 
L 132.794118 199.563015 
L 132.627275 199.602091 
L 132.461074 199.64381 
L 132.295555 199.688161 
L 132.13076 199.735132 
L 131.966732 199.784712 
L 131.803511 199.836888 
L 131.641138 199.891647 
L 131.479654 199.948976 
L 131.319101 200.008859 
L 131.159517 200.071283 
L 131.000945 200.13623 
L 130.843422 200.203685 
L 130.68699 200.273631 
L 130.531687 200.34605 
L 130.377553 200.420923 
L 130.224626 200.498233 
L 130.072944 200.57796 
L 129.922547 200.660083 
L 129.773472 200.744582 
L 129.625756 200.831435 
L 129.479437 200.920622 
L 129.334551 201.012118 
L 129.191135 201.105902 
L 129.049225 201.201949 
L 128.908857 201.300236 
L 128.770066 201.400737 
L 128.632887 201.503428 
L 128.497355 201.608283 
L 128.363503 201.715274 
L 128.231366 201.824376 
L 128.100976 201.935561 
L 127.972367 202.0488 
L 127.84557 202.164066 
L 127.720619 202.281329 
L 127.597543 202.400559 
L 127.476375 202.521727 
L 127.357144 202.644803 
L 127.239882 202.769755 
L 127.124616 202.896551 
L 127.011377 203.02516 
L 126.900192 203.15555 
L 126.79109 203.287687 
L 126.684099 203.421539 
L 126.579244 203.557072 
L 126.476553 203.694251 
L 126.376052 203.833042 
L 126.277765 203.97341 
L 126.181718 204.11532 
L 126.087934 204.258735 
L 125.996437 204.403621 
L 125.907251 204.54994 
L 125.820398 204.697656 
L 125.735899 204.846732 
L 125.653776 204.997129 
L 125.574049 205.14881 
L 125.496739 205.301737 
L 125.421865 205.455871 
L 125.349446 205.611174 
L 125.279501 205.767606 
L 125.212046 205.925129 
L 125.147098 206.083702 
L 125.084675 206.243285 
L 125.024792 206.403839 
L 124.967463 206.565322 
L 124.912704 206.727695 
L 124.860528 206.890916 
L 124.810948 207.054945 
L 124.763977 207.219739 
L 124.719626 207.385258 
L 124.677907 207.55146 
L 124.63883 207.718302 
L 124.602406 207.885744 
L 124.568642 208.053743 
L 124.537548 208.222256 
L 124.509132 208.391241 
L 124.4834 208.560656 
L 124.46036 208.730458 
L 124.440017 208.900604 
L 124.422375 209.071051 
L 124.40744 209.241757 
L 124.395216 209.412678 
L 124.385705 209.583772 
L 124.378909 209.754995 
L 124.374831 209.926304 
L 124.373472 210.097656 
L 124.373472 232.057656 
L 124.374831 232.229009 
L 124.378909 232.400318 
L 124.385705 232.571541 
L 124.395216 232.742635 
L 124.40744 232.913556 
L 124.422375 233.084262 
L 124.440017 233.254709 
L 124.46036 233.424855 
L 124.4834 233.594657 
L 124.509132 233.764071 
L 124.537548 233.933057 
L 124.568642 234.10157 
L 124.602406 234.269568 
L 124.63883 234.43701 
L 124.677907 234.603853 
L 124.719626 234.770055 
L 124.763977 234.935573 
L 124.810948 235.100368 
L 124.860528 235.264396 
L 124.912704 235.427617 
L 124.967463 235.58999 
L 125.024792 235.751474 
L 125.084675 235.912027 
L 125.147098 236.071611 
L 125.212046 236.230184 
L 125.279501 236.387706 
L 125.349446 236.544138 
L 125.421865 236.699441 
L 125.496739 236.853576 
L 125.574049 237.006503 
L 125.653776 237.158184 
L 125.735899 237.308581 
L 125.820398 237.457656 
L 125.907251 237.605372 
L 125.996437 237.751691 
L 126.087934 237.896577 
L 126.181718 238.039993 
L 126.277765 238.181903 
L 126.376052 238.322271 
L 126.476553 238.461062 
L 126.579244 238.598241 
L 126.684099 238.733773 
L 126.79109 238.867625 
L 126.900192 238.999762 
L 127.011377 239.130152 
L 127.124616 239.258761 
L 127.239882 239.385558 
L 127.357144 239.51051 
L 127.476375 239.633585 
L 127.597543 239.754753 
L 127.720619 239.873984 
L 127.84557 239.991247 
L 127.972367 240.106512 
L 128.100976 240.219752 
L 128.231366 240.330936 
L 128.363503 240.440038 
L 128.497355 240.54703 
L 128.632887 240.651884 
L 128.770066 240.754575 
L 128.908857 240.855077 
L 129.049225 240.953363 
L 129.191135 241.049411 
L 129.334551 241.143194 
L 129.479437 241.234691 
L 129.625756 241.323877 
L 129.773472 241.410731 
L 129.922547 241.49523 
L 130.072944 241.577353 
L 130.224626 241.657079 
L 130.377553 241.734389 
L 130.531687 241.809263 
L 130.68699 241.881682 
L 130.843422 241.951628 
L 131.000945 242.019083 
L 131.159517 242.08403 
L 131.319101 242.146453 
L 131.479654 242.206337 
L 131.641138 242.263665 
L 131.803511 242.318424 
L 131.966732 242.3706 
L 132.13076 242.42018 
L 132.295555 242.467152 
L 132.461074 242.511502 
L 132.627275 242.553221 
L 132.794118 242.592298 
L 132.96156 242.628723 
L 133.129559 242.662486 
L 133.298072 242.69358 
L 133.467057 242.721996 
L 133.636472 242.747728 
L 133.806273 242.770768 
L 133.976419 242.791112 
L 134.146867 242.808753 
L 134.317572 242.823688 
L 134.488494 242.835912 
L 134.659587 242.845424 
L 134.83081 242.852219 
L 135.00212 242.856297 
L 135.173472 242.857656 
z
" clip-path="url(#p54a994390e)" style="fill: #d5ffff; stroke-dasharray: 5.55,2.4; stroke-dashoffset: 0; stroke: #0000ff; stroke-width: 1.5; stroke-linecap: round"/>
   </g>
   <g id="patch_7">
    <path d="M 123.036719 202.460903 
C 95.136719 202.460903 116.736719 191.660903 84.336719 191.660903 
" clip-path="url(#p54a994390e)" style="fill: none; stroke: #0000ff; stroke-width: 2; stroke-linejoin: miter; stroke-linecap: round"/>
   </g>
   <g id="patch_8">
    <path d="M 118.536719 198.860903 
L 127.536719 202.460903 
L 118.536719 206.060903 
z
" clip-path="url(#p54a994390e)" style="fill: #0000ff"/>
   </g>
   <g id="line2d_1">
    <path d="M 212.633472 87.697656 
L 225.833472 87.697656 
" clip-path="url(#p54a994390e)" style="fill: none; stroke: #000000; stroke-width: 2; stroke-linecap: round"/>
   </g>
   <g id="line2d_2">
    <path d="M 225.833472 74.497656 
L 225.833472 100.897656 
" clip-path="url(#p54a994390e)" style="fill: none; stroke: #000000; stroke-width: 2; stroke-linecap: round"/>
   </g>
   <g id="line2d_3">
    <path d="M 225.833472 81.097656 
L 239.693472 69.217656 
L 239.693472 62.617656 
" clip-path="url(#p54a994390e)" style="fill: none; stroke: #000000; stroke-width: 2; stroke-linecap: round"/>
   </g>
   <g id="line2d_4">
    <path d="M 225.833472 94.297656 
L 239.693472 106.177656 
L 239.693472 112.777656 
" clip-path="url(#p54a994390e)" style="fill: none; stroke: #000000; stroke-width: 2; stroke-linecap: round"/>
   </g>
   <g id="line2d_5">
    <path d="M 225.833472 94.297656 
L 232.860163 100.320534 
" clip-path="url(#p54a994390e)" style="fill: none; stroke: #000000; stroke-width: 2; stroke-linecap: round"/>
   </g>
   <g id="patch_9">
    <path d="M 235.203012 97.58721 
L 239.693472 106.177656 
L 230.517314 103.053858 
z
" clip-path="url(#p54a994390e)"/>
   </g>
   <g id="line2d_6">
    <path d="M 212.633472 87.697656 
L 185.633472 87.697656 
L 158.633472 87.697656 
" clip-path="url(#p54a994390e)" style="fill: none; stroke: #000000; stroke-width: 2; stroke-linecap: round"/>
   </g>
   <g id="line2d_7">
    <path d="M 158.633472 87.697656 
L 158.633472 96.697656 
L 167.633472 99.697656 
L 149.633472 105.697656 
L 167.633472 111.697656 
L 149.633472 117.697656 
L 167.633472 123.697656 
L 149.633472 129.697656 
L 158.633472 132.697656 
L 158.633472 141.697656 
" clip-path="url(#p54a994390e)" style="fill: none; stroke: #000000; stroke-width: 2; stroke-linecap: round"/>
   </g>
   <g id="line2d_8">
    <path d="M 158.633472 141.697656 
L 171.833472 141.697656 
" clip-path="url(#p54a994390e)" style="fill: none; stroke: #000000; stroke-width: 2; stroke-linecap: round"/>
   </g>
   <g id="line2d_9">
    <path d="M 171.833472 128.497656 
L 171.833472 154.897656 
" clip-path="url(#p54a994390e)" style="fill: none; stroke: #000000; stroke-width: 2; stroke-linecap: round"/>
   </g>
   <g id="line2d_10">
    <path d="M 171.833472 135.097656 
L 185.693472 123.217656 
L 185.693472 116.617656 
" clip-path="url(#p54a994390e)" style="fill: none; stroke: #000000; stroke-width: 2; stroke-linecap: round"/>
   </g>
   <g id="line2d_11">
    <path d="M 171.833472 148.297656 
L 185.693472 160.177656 
L 185.693472 166.777656 
" clip-path="url(#p54a994390e)" style="fill: none; stroke: #000000; stroke-width: 2; stroke-linecap: round"/>
   </g>
   <g id="line2d_12">
    <path d="M 171.833472 148.297656 
L 178.860163 154.320534 
" clip-path="url(#p54a994390e)" style="fill: none; stroke: #000000; stroke-width: 2; stroke-linecap: round"/>
   </g>
   <g id="patch_10">
    <path d="M 181.203012 151.58721 
L 185.693472 160.177656 
L 176.517314 157.053858 
z
" clip-path="url(#p54a994390e)"/>
   </g>
   <g id="line2d_13">
    <path d="M 158.633472 141.697656 
L 158.633472 150.697656 
L 167.633472 153.697656 
L 149.633472 159.697656 
L 167.633472 165.697656 
L 149.633472 171.697656 
L 167.633472 177.697656 
L 149.633472 183.697656 
L 158.633472 186.697656 
L 158.633472 195.697656 
" clip-path="url(#p54a994390e)" style="fill: none; stroke: #000000; stroke-width: 2; stroke-linecap: round"/>
   </g>
   <g id="line2d_14">
    <path d="M 158.633472 195.697656 
L 185.633472 195.697656 
L 212.633472 195.697656 
" clip-path="url(#p54a994390e)" style="fill: none; stroke: #000000; stroke-width: 2; stroke-linecap: round"/>
   </g>
   <g id="line2d_15">
    <path d="M 212.633472 195.697656 
L 225.833472 195.697656 
" clip-path="url(#p54a994390e)" style="fill: none; stroke: #000000; stroke-width: 2; stroke-linecap: round"/>
   </g>
   <g id="line2d_16">
    <path d="M 225.833472 182.497656 
L 225.833472 208.897656 
" clip-path="url(#p54a994390e)" style="fill: none; stroke: #000000; stroke-width: 2; stroke-linecap: round"/>
   </g>
   <g id="line2d_17">
    <path d="M 225.833472 189.097656 
L 239.693472 177.217656 
L 239.693472 170.617656 
" clip-path="url(#p54a994390e)" style="fill: none; stroke: #000000; stroke-width: 2; stroke-linecap: round"/>
   </g>
   <g id="line2d_18">
    <path d="M 225.833472 202.297656 
L 239.693472 214.177656 
L 239.693472 220.777656 
" clip-path="url(#p54a994390e)" style="fill: none; stroke: #000000; stroke-width: 2; stroke-linecap: round"/>
   </g>
   <g id="line2d_19">
    <path d="M 239.693472 177.217656 
L 232.666781 183.240534 
" clip-path="url(#p54a994390e)" style="fill: none; stroke: #000000; stroke-width: 2; stroke-linecap: round"/>
   </g>
   <g id="patch_11">
    <path d="M 235.00963 185.973858 
L 225.833472 189.097656 
L 230.323932 180.50721 
z
" clip-path="url(#p54a994390e)"/>
   </g>
   <g id="line2d_20">
    <path d="M 185.693472 116.617656 
L 185.693472 102.157656 
L 185.693472 87.697656 
" clip-path="url(#p54a994390e)" style="fill: none; stroke: #000000; stroke-width: 2; stroke-linecap: round"/>
   </g>
   <g id="line2d_21">
    <path d="M 185.693472 166.777656 
L 185.693472 181.237656 
L 185.693472 195.697656 
" clip-path="url(#p54a994390e)" style="fill: none; stroke: #000000; stroke-width: 2; stroke-linecap: round"/>
   </g>
   <g id="line2d_22">
    <path d="M 158.633472 87.697656 
L 158.633472 78.697656 
L 149.633472 75.697656 
L 167.633472 69.697656 
L 149.633472 63.697656 
L 167.633472 57.697656 
L 149.633472 51.697656 
L 167.633472 45.697656 
L 158.633472 42.697656 
L 158.633472 33.697656 
" clip-path="url(#p54a994390e)" style="fill: none; stroke: #000000; stroke-width: 2; stroke-linecap: round"/>
   </g>
   <g id="line2d_23">
    <path d="M 158.633472 33.697656 
L 165.833472 33.697656 
L 173.033472 33.697656 
" clip-path="url(#p54a994390e)" style="fill: none; stroke: #000000; stroke-width: 2; stroke-linecap: round"/>
   </g>
   <g id="line2d_24">
    <path d="M 173.033472 33.697656 
L 173.033472 19.297656 
" clip-path="url(#p54a994390e)" style="fill: none; stroke: #000000; stroke-width: 2; stroke-linecap: round"/>
   </g>
   <g id="line2d_25">
    <path d="M 173.033472 19.297656 
L 166.283472 19.297656 
" clip-path="url(#p54a994390e)" style="fill: none; stroke: #000000; stroke-width: 2; stroke-linecap: round"/>
   </g>
   <g id="line2d_26">
    <path d="M 173.033472 19.297656 
L 179.783472 19.297656 
" clip-path="url(#p54a994390e)" style="fill: none; stroke: #000000; stroke-width: 2; stroke-linecap: round"/>
   </g>
   <g id="line2d_27">
    <path d="M 173.033472 33.697656 
L 206.363472 33.697656 
L 239.693472 33.697656 
" clip-path="url(#p54a994390e)" style="fill: none; stroke: #000000; stroke-width: 2; stroke-linecap: round"/>
   </g>
   <g id="line2d_28">
    <path d="M 239.693472 33.697656 
L 239.693472 48.157656 
L 239.693472 62.617656 
" clip-path="url(#p54a994390e)" style="fill: none; stroke: #000000; stroke-width: 2; stroke-linecap: round"/>
   </g>
   <g id="line2d_29">
    <path d="M 131.573472 220.777656 
L 144.773472 220.777656 
" clip-path="url(#p54a994390e)" style="fill: none; stroke: #000000; stroke-width: 2; stroke-linecap: round"/>
   </g>
   <g id="line2d_30">
    <path d="M 144.773472 207.577656 
L 144.773472 233.977656 
" clip-path="url(#p54a994390e)" style="fill: none; stroke: #000000; stroke-width: 2; stroke-linecap: round"/>
   </g>
   <g id="line2d_31">
    <path d="M 144.773472 214.177656 
L 158.633472 202.297656 
L 158.633472 195.697656 
" clip-path="url(#p54a994390e)" style="fill: none; stroke: #000000; stroke-width: 2; stroke-linecap: round"/>
   </g>
   <g id="line2d_32">
    <path d="M 144.773472 227.377656 
L 158.633472 239.257656 
L 158.633472 245.857656 
" clip-path="url(#p54a994390e)" style="fill: none; stroke: #000000; stroke-width: 2; stroke-linecap: round"/>
   </g>
   <g id="line2d_33">
    <path d="M 144.773472 227.377656 
L 151.800163 233.400534 
" clip-path="url(#p54a994390e)" style="fill: none; stroke: #000000; stroke-width: 2; stroke-linecap: round"/>
   </g>
   <g id="patch_12">
    <path d="M 154.143012 230.66721 
L 158.633472 239.257656 
L 149.457314 236.133858 
z
" clip-path="url(#p54a994390e)"/>
   </g>
   <g id="line2d_34">
    <path d="M 158.633472 245.857656 
L 176.633472 245.857656 
L 194.633472 245.857656 
" clip-path="url(#p54a994390e)" style="fill: none; stroke: #000000; stroke-width: 2; stroke-linecap: round"/>
   </g>
   <g id="line2d_35">
    <path d="M 194.633472 245.857656 
L 194.633472 260.257656 
" clip-path="url(#p54a994390e)" style="fill: none; stroke: #000000; stroke-width: 2; stroke-linecap: round"/>
   </g>
   <g id="line2d_36">
    <path d="M 194.633472 260.257656 
L 187.883472 260.257656 
" clip-path="url(#p54a994390e)" style="fill: none; stroke: #000000; stroke-width: 2; stroke-linecap: round"/>
   </g>
   <g id="line2d_37">
    <path d="M 194.633472 260.257656 
L 201.383472 260.257656 
" clip-path="url(#p54a994390e)" style="fill: none; stroke: #000000; stroke-width: 2; stroke-linecap: round"/>
   </g>
   <g id="line2d_38">
    <path d="M 194.633472 245.857656 
L 217.163472 245.857656 
L 239.693472 245.857656 
" clip-path="url(#p54a994390e)" style="fill: none; stroke: #000000; stroke-width: 2; stroke-linecap: round"/>
   </g>
   <g id="line2d_39">
    <path d="M 239.693472 245.857656 
L 239.693472 233.317656 
L 239.693472 220.777656 
" clip-path="url(#p54a994390e)" style="fill: none; stroke: #000000; stroke-width: 2; stroke-linecap: round"/>
   </g>
   <g id="line2d_40">
    <path d="M 131.573472 220.777656 
L 104.573472 220.777656 
L 77.573472 220.777656 
" clip-path="url(#p54a994390e)" style="fill: none; stroke: #000000; stroke-width: 2; stroke-linecap: round"/>
   </g>
   <g id="line2d_41">
    <path d="M 239.693472 112.777656 
L 239.693472 127.177656 
L 239.693472 141.577656 
" clip-path="url(#p54a994390e)" style="fill: none; stroke: #000000; stroke-width: 2; stroke-linecap: round"/>
   </g>
   <g id="line2d_42">
    <path d="M 239.693472 141.577656 
L 239.693472 156.097656 
L 239.693472 170.617656 
" clip-path="url(#p54a994390e)" style="fill: none; stroke: #000000; stroke-width: 2; stroke-linecap: round"/>
   </g>
   <g id="line2d_43">
    <path d="M 239.693472 141.577656 
L 266.693472 141.577656 
L 293.693472 141.577656 
" clip-path="url(#p54a994390e)" style="fill: none; stroke: #000000; stroke-width: 2; stroke-linecap: round"/>
   </g>
   <g id="line2d_44">
    <path d="M 293.693472 141.577656 
L 293.693472 150.577656 
L 302.693472 153.577656 
L 284.693472 159.577656 
L 302.693472 165.577656 
L 284.693472 171.577656 
L 302.693472 177.577656 
L 284.693472 183.577656 
L 293.693472 186.577656 
L 293.693472 195.577656 
" clip-path="url(#p54a994390e)" style="fill: none; stroke: #000000; stroke-width: 2; stroke-linecap: round"/>
   </g>
   <g id="line2d_45">
    <path d="M 293.693472 195.577656 
L 293.693472 209.977656 
L 284.693472 209.977656 
L 302.693472 209.977656 
M 287.393472 214.297656 
L 299.993472 214.297656 
M 291.893472 218.617656 
L 295.493472 218.617656 
" clip-path="url(#p54a994390e)" style="fill: none; stroke: #000000; stroke-width: 2; stroke-linecap: round"/>
   </g>
   <g id="line2d_46">
    <path d="M 293.693472 141.577656 
L 302.693472 141.577656 
L 311.693472 141.577656 
" clip-path="url(#p54a994390e)" style="fill: none; stroke: #000000; stroke-width: 2; stroke-linecap: round"/>
   </g>
   <g id="text_1">
    <!-- $R_{v1}$ -->
    <g transform="translate(126.158472 118.146875) scale(0.125 -0.125)">
     <defs>
      <path id="DejaVuSans-Oblique-52" d="M 1613 4147 
L 1294 2491 
L 2106 2491 
Q 2584 2491 2879 2755 
Q 3175 3019 3175 3444 
Q 3175 3784 2976 3965 
Q 2778 4147 2406 4147 
L 1613 4147 
z
M 2772 2241 
Q 2972 2194 3105 2009 
Q 3238 1825 3413 1275 
L 3809 0 
L 3144 0 
L 2778 1197 
Q 2638 1659 2453 1815 
Q 2269 1972 1888 1972 
L 1191 1972 
L 806 0 
L 172 0 
L 1081 4666 
L 2503 4666 
Q 3150 4666 3495 4373 
Q 3841 4081 3841 3531 
Q 3841 3044 3547 2687 
Q 3253 2331 2772 2241 
z
" transform="scale(0.015625)"/>
      <path id="DejaVuSans-Oblique-76" d="M 459 3500 
L 1069 3500 
L 1581 525 
L 3256 3500 
L 3866 3500 
L 1875 0 
L 1100 0 
L 459 3500 
z
" transform="scale(0.015625)"/>
      <path id="DejaVuSans-31" d="M 794 531 
L 1825 531 
L 1825 4091 
L 703 3866 
L 703 4441 
L 1819 4666 
L 2450 4666 
L 2450 531 
L 3481 531 
L 3481 0 
L 794 0 
L 794 531 
z
" transform="scale(0.015625)"/>
     </defs>
     <use xlink:href="#DejaVuSans-Oblique-52" transform="translate(0 0.09375)"/>
     <use xlink:href="#DejaVuSans-Oblique-76" transform="translate(69.482422 -16.3125) scale(0.7)"/>
     <use xlink:href="#DejaVuSans-31" transform="translate(110.908203 -16.3125) scale(0.7)"/>
    </g>
   </g>
   <g id="text_2">
    <!-- $R_{v2}$ -->
    <g transform="translate(126.158472 172.146875) scale(0.125 -0.125)">
     <defs>
      <path id="DejaVuSans-32" d="M 1228 531 
L 3431 531 
L 3431 0 
L 469 0 
L 469 531 
Q 828 903 1448 1529 
Q 2069 2156 2228 2338 
Q 2531 2678 2651 2914 
Q 2772 3150 2772 3378 
Q 2772 3750 2511 3984 
Q 2250 4219 1831 4219 
Q 1534 4219 1204 4116 
Q 875 4013 500 3803 
L 500 4441 
Q 881 4594 1212 4672 
Q 1544 4750 1819 4750 
Q 2544 4750 2975 4387 
Q 3406 4025 3406 3419 
Q 3406 3131 3298 2873 
Q 3191 2616 2906 2266 
Q 2828 2175 2409 1742 
Q 1991 1309 1228 531 
z
" transform="scale(0.015625)"/>
     </defs>
     <use xlink:href="#DejaVuSans-Oblique-52" transform="translate(0 0.09375)"/>
     <use xlink:href="#DejaVuSans-Oblique-76" transform="translate(69.482422 -16.3125) scale(0.7)"/>
     <use xlink:href="#DejaVuSans-32" transform="translate(110.908203 -16.3125) scale(0.7)"/>
    </g>
   </g>
   <g id="text_3">
    <!-- $R_1$ -->
    <g transform="translate(131.408472 64.146875) scale(0.125 -0.125)">
     <use xlink:href="#DejaVuSans-Oblique-52" transform="translate(0 0.09375)"/>
     <use xlink:href="#DejaVuSans-31" transform="translate(69.482422 -16.3125) scale(0.7)"/>
    </g>
   </g>
   <g id="text_4">
    <!-- $V_{DD}$ -->
    <g transform="translate(161.845972 13.098047) scale(0.125 -0.125)">
     <defs>
      <path id="DejaVuSans-Oblique-56" d="M 1319 0 
L 500 4666 
L 1119 4666 
L 1797 653 
L 4063 4666 
L 4750 4666 
L 2053 0 
L 1319 0 
z
" transform="scale(0.015625)"/>
      <path id="DejaVuSans-Oblique-44" d="M 1081 4666 
L 2438 4666 
Q 3519 4666 4070 4208 
Q 4622 3750 4622 2847 
Q 4622 2250 4412 1698 
Q 4203 1147 3834 769 
Q 3463 381 2891 190 
Q 2319 0 1538 0 
L 172 0 
L 1081 4666 
z
M 1613 4147 
L 909 519 
L 1734 519 
Q 2794 519 3375 1128 
Q 3956 1738 3956 2847 
Q 3956 3519 3581 3833 
Q 3206 4147 2406 4147 
L 1613 4147 
z
" transform="scale(0.015625)"/>
     </defs>
     <use xlink:href="#DejaVuSans-Oblique-56" transform="translate(0 0.09375)"/>
     <use xlink:href="#DejaVuSans-Oblique-44" transform="translate(68.408203 -16.3125) scale(0.7)"/>
     <use xlink:href="#DejaVuSans-Oblique-44" transform="translate(122.30957 -16.3125) scale(0.7)"/>
    </g>
   </g>
   <g id="text_5">
    <!-- -$V_{DD}$ -->
    <g transform="translate(181.133472 273.355703) scale(0.125 -0.125)">
     <defs>
      <path id="DejaVuSans-2d" d="M 313 2009 
L 1997 2009 
L 1997 1497 
L 313 1497 
L 313 2009 
z
" transform="scale(0.015625)"/>
     </defs>
     <use xlink:href="#DejaVuSans-2d" transform="translate(0 0.09375)"/>
     <use xlink:href="#DejaVuSans-Oblique-56" transform="translate(36.083984 0.09375)"/>
     <use xlink:href="#DejaVuSans-Oblique-44" transform="translate(104.492188 -16.3125) scale(0.7)"/>
     <use xlink:href="#DejaVuSans-Oblique-44" transform="translate(158.393555 -16.3125) scale(0.7)"/>
    </g>
   </g>
   <g id="text_6">
    <!-- $R_L$ -->
    <g transform="translate(267.093472 172.026875) scale(0.125 -0.125)">
     <defs>
      <path id="DejaVuSans-Oblique-4c" d="M 1075 4666 
L 1709 4666 
L 909 525 
L 3181 525 
L 3078 0 
L 172 0 
L 1075 4666 
z
" transform="scale(0.015625)"/>
     </defs>
     <use xlink:href="#DejaVuSans-Oblique-52" transform="translate(0 0.09375)"/>
     <use xlink:href="#DejaVuSans-Oblique-4c" transform="translate(69.482422 -16.3125) scale(0.7)"/>
    </g>
   </g>
   <g id="text_7">
    <!-- Driver stage -->
    <g style="fill: #0000ff" transform="translate(3.6 195.110122) scale(0.125 -0.125)">
     <defs>
      <path id="DejaVuSans-44" d="M 1259 4147 
L 1259 519 
L 2022 519 
Q 2988 519 3436 956 
Q 3884 1394 3884 2338 
Q 3884 3275 3436 3711 
Q 2988 4147 2022 4147 
L 1259 4147 
z
M 628 4666 
L 1925 4666 
Q 3281 4666 3915 4102 
Q 4550 3538 4550 2338 
Q 4550 1131 3912 565 
Q 3275 0 1925 0 
L 628 0 
L 628 4666 
z
" transform="scale(0.015625)"/>
      <path id="DejaVuSans-72" d="M 2631 2963 
Q 2534 3019 2420 3045 
Q 2306 3072 2169 3072 
Q 1681 3072 1420 2755 
Q 1159 2438 1159 1844 
L 1159 0 
L 581 0 
L 581 3500 
L 1159 3500 
L 1159 2956 
Q 1341 3275 1631 3429 
Q 1922 3584 2338 3584 
Q 2397 3584 2469 3576 
Q 2541 3569 2628 3553 
L 2631 2963 
z
" transform="scale(0.015625)"/>
      <path id="DejaVuSans-69" d="M 603 3500 
L 1178 3500 
L 1178 0 
L 603 0 
L 603 3500 
z
M 603 4863 
L 1178 4863 
L 1178 4134 
L 603 4134 
L 603 4863 
z
" transform="scale(0.015625)"/>
      <path id="DejaVuSans-76" d="M 191 3500 
L 800 3500 
L 1894 563 
L 2988 3500 
L 3597 3500 
L 2284 0 
L 1503 0 
L 191 3500 
z
" transform="scale(0.015625)"/>
      <path id="DejaVuSans-65" d="M 3597 1894 
L 3597 1613 
L 953 1613 
Q 991 1019 1311 708 
Q 1631 397 2203 397 
Q 2534 397 2845 478 
Q 3156 559 3463 722 
L 3463 178 
Q 3153 47 2828 -22 
Q 2503 -91 2169 -91 
Q 1331 -91 842 396 
Q 353 884 353 1716 
Q 353 2575 817 3079 
Q 1281 3584 2069 3584 
Q 2775 3584 3186 3129 
Q 3597 2675 3597 1894 
z
M 3022 2063 
Q 3016 2534 2758 2815 
Q 2500 3097 2075 3097 
Q 1594 3097 1305 2825 
Q 1016 2553 972 2059 
L 3022 2063 
z
" transform="scale(0.015625)"/>
      <path id="DejaVuSans-20" transform="scale(0.015625)"/>
      <path id="DejaVuSans-73" d="M 2834 3397 
L 2834 2853 
Q 2591 2978 2328 3040 
Q 2066 3103 1784 3103 
Q 1356 3103 1142 2972 
Q 928 2841 928 2578 
Q 928 2378 1081 2264 
Q 1234 2150 1697 2047 
L 1894 2003 
Q 2506 1872 2764 1633 
Q 3022 1394 3022 966 
Q 3022 478 2636 193 
Q 2250 -91 1575 -91 
Q 1294 -91 989 -36 
Q 684 19 347 128 
L 347 722 
Q 666 556 975 473 
Q 1284 391 1588 391 
Q 1994 391 2212 530 
Q 2431 669 2431 922 
Q 2431 1156 2273 1281 
Q 2116 1406 1581 1522 
L 1381 1569 
Q 847 1681 609 1914 
Q 372 2147 372 2553 
Q 372 3047 722 3315 
Q 1072 3584 1716 3584 
Q 2034 3584 2315 3537 
Q 2597 3491 2834 3397 
z
" transform="scale(0.015625)"/>
      <path id="DejaVuSans-74" d="M 1172 4494 
L 1172 3500 
L 2356 3500 
L 2356 3053 
L 1172 3053 
L 1172 1153 
Q 1172 725 1289 603 
Q 1406 481 1766 481 
L 2356 481 
L 2356 0 
L 1766 0 
Q 1100 0 847 248 
Q 594 497 594 1153 
L 594 3053 
L 172 3053 
L 172 3500 
L 594 3500 
L 594 4494 
L 1172 4494 
z
" transform="scale(0.015625)"/>
      <path id="DejaVuSans-61" d="M 2194 1759 
Q 1497 1759 1228 1600 
Q 959 1441 959 1056 
Q 959 750 1161 570 
Q 1363 391 1709 391 
Q 2188 391 2477 730 
Q 2766 1069 2766 1631 
L 2766 1759 
L 2194 1759 
z
M 3341 1997 
L 3341 0 
L 2766 0 
L 2766 531 
Q 2569 213 2275 61 
Q 1981 -91 1556 -91 
Q 1019 -91 701 211 
Q 384 513 384 1019 
Q 384 1609 779 1909 
Q 1175 2209 1959 2209 
L 2766 2209 
L 2766 2266 
Q 2766 2663 2505 2880 
Q 2244 3097 1772 3097 
Q 1472 3097 1187 3025 
Q 903 2953 641 2809 
L 641 3341 
Q 956 3463 1253 3523 
Q 1550 3584 1831 3584 
Q 2591 3584 2966 3190 
Q 3341 2797 3341 1997 
z
" transform="scale(0.015625)"/>
      <path id="DejaVuSans-67" d="M 2906 1791 
Q 2906 2416 2648 2759 
Q 2391 3103 1925 3103 
Q 1463 3103 1205 2759 
Q 947 2416 947 1791 
Q 947 1169 1205 825 
Q 1463 481 1925 481 
Q 2391 481 2648 825 
Q 2906 1169 2906 1791 
z
M 3481 434 
Q 3481 -459 3084 -895 
Q 2688 -1331 1869 -1331 
Q 1566 -1331 1297 -1286 
Q 1028 -1241 775 -1147 
L 775 -588 
Q 1028 -725 1275 -790 
Q 1522 -856 1778 -856 
Q 2344 -856 2625 -561 
Q 2906 -266 2906 331 
L 2906 616 
Q 2728 306 2450 153 
Q 2172 0 1784 0 
Q 1141 0 747 490 
Q 353 981 353 1791 
Q 353 2603 747 3093 
Q 1141 3584 1784 3584 
Q 2172 3584 2450 3431 
Q 2728 3278 2906 2969 
L 2906 3500 
L 3481 3500 
L 3481 434 
z
" transform="scale(0.015625)"/>
     </defs>
     <use xlink:href="#DejaVuSans-44"/>
     <use xlink:href="#DejaVuSans-72" x="77.001953"/>
     <use xlink:href="#DejaVuSans-69" x="118.115234"/>
     <use xlink:href="#DejaVuSans-76" x="145.898438"/>
     <use xlink:href="#DejaVuSans-65" x="205.078125"/>
     <use xlink:href="#DejaVuSans-72" x="266.601562"/>
     <use xlink:href="#DejaVuSans-20" x="307.714844"/>
     <use xlink:href="#DejaVuSans-73" x="339.501953"/>
     <use xlink:href="#DejaVuSans-74" x="391.601562"/>
     <use xlink:href="#DejaVuSans-61" x="430.810547"/>
     <use xlink:href="#DejaVuSans-67" x="492.089844"/>
     <use xlink:href="#DejaVuSans-65" x="555.566406"/>
    </g>
   </g>
   <g id="patch_13">
    <path d="M 158.633472 90.397656 
C 159.34952 90.397656 160.036338 90.113167 160.54266 89.606845 
C 161.048983 89.100522 161.333472 88.413705 161.333472 87.697656 
C 161.333472 86.981608 161.048983 86.294791 160.54266 85.788468 
C 160.036338 85.282145 159.34952 84.997656 158.633472 84.997656 
C 157.917424 84.997656 157.230606 85.282145 156.724284 85.788468 
C 156.217961 86.294791 155.933472 86.981608 155.933472 87.697656 
C 155.933472 88.413705 156.217961 89.100522 156.724284 89.606845 
C 157.230606 90.113167 157.917424 90.397656 158.633472 90.397656 
z
" clip-path="url(#p54a994390e)" style="stroke: #000000; stroke-width: 2; stroke-linejoin: miter"/>
   </g>
   <g id="patch_14">
    <path d="M 158.633472 198.397656 
C 159.34952 198.397656 160.036338 198.113167 160.54266 197.606845 
C 161.048983 197.100522 161.333472 196.413705 161.333472 195.697656 
C 161.333472 194.981608 161.048983 194.294791 160.54266 193.788468 
C 160.036338 193.282145 159.34952 192.997656 158.633472 192.997656 
C 157.917424 192.997656 157.230606 193.282145 156.724284 193.788468 
C 156.217961 194.294791 155.933472 194.981608 155.933472 195.697656 
C 155.933472 196.413705 156.217961 197.100522 156.724284 197.606845 
C 157.230606 198.113167 157.917424 198.397656 158.633472 198.397656 
z
" clip-path="url(#p54a994390e)" style="stroke: #000000; stroke-width: 2; stroke-linejoin: miter"/>
   </g>
   <g id="patch_15">
    <path d="M 185.693472 90.397656 
C 186.40952 90.397656 187.096338 90.113167 187.60266 89.606845 
C 188.108983 89.100522 188.393472 88.413705 188.393472 87.697656 
C 188.393472 86.981608 188.108983 86.294791 187.60266 85.788468 
C 187.096338 85.282145 186.40952 84.997656 185.693472 84.997656 
C 184.977424 84.997656 184.290606 85.282145 183.784284 85.788468 
C 183.277961 86.294791 182.993472 86.981608 182.993472 87.697656 
C 182.993472 88.413705 183.277961 89.100522 183.784284 89.606845 
C 184.290606 90.113167 184.977424 90.397656 185.693472 90.397656 
z
" clip-path="url(#p54a994390e)" style="stroke: #000000; stroke-width: 2; stroke-linejoin: miter"/>
   </g>
   <g id="patch_16">
    <path d="M 185.693472 198.397656 
C 186.40952 198.397656 187.096338 198.113167 187.60266 197.606845 
C 188.108983 197.100522 188.393472 196.413705 188.393472 195.697656 
C 188.393472 194.981608 188.108983 194.294791 187.60266 193.788468 
C 187.096338 193.282145 186.40952 192.997656 185.693472 192.997656 
C 184.977424 192.997656 184.290606 193.282145 183.784284 193.788468 
C 183.277961 194.294791 182.993472 194.981608 182.993472 195.697656 
C 182.993472 196.413705 183.277961 197.100522 183.784284 197.606845 
C 184.290606 198.113167 184.977424 198.397656 185.693472 198.397656 
z
" clip-path="url(#p54a994390e)" style="stroke: #000000; stroke-width: 2; stroke-linejoin: miter"/>
   </g>
   <g id="patch_17">
    <path d="M 77.573472 223.477656 
C 78.28952 223.477656 78.976338 223.193167 79.48266 222.686845 
C 79.988983 222.180522 80.273472 221.493705 80.273472 220.777656 
C 80.273472 220.061608 79.988983 219.374791 79.48266 218.868468 
C 78.976338 218.362145 78.28952 218.077656 77.573472 218.077656 
C 76.857424 218.077656 76.170606 218.362145 75.664284 218.868468 
C 75.157961 219.374791 74.873472 220.061608 74.873472 220.777656 
C 74.873472 221.493705 75.157961 222.180522 75.664284 222.686845 
C 76.170606 223.193167 76.857424 223.477656 77.573472 223.477656 
z
" clip-path="url(#p54a994390e)" style="fill: #ffffff; stroke: #000000; stroke-width: 2; stroke-linejoin: miter"/>
   </g>
   <g id="text_8">
    <!-- $V_{in}$ -->
    <g transform="translate(47.535972 222.678047) scale(0.125 -0.125)">
     <defs>
      <path id="DejaVuSans-Oblique-69" d="M 1172 4863 
L 1747 4863 
L 1606 4134 
L 1031 4134 
L 1172 4863 
z
M 909 3500 
L 1484 3500 
L 800 0 
L 225 0 
L 909 3500 
z
" transform="scale(0.015625)"/>
      <path id="DejaVuSans-Oblique-6e" d="M 3566 2113 
L 3156 0 
L 2578 0 
L 2988 2091 
Q 3016 2238 3031 2350 
Q 3047 2463 3047 2528 
Q 3047 2791 2881 2937 
Q 2716 3084 2419 3084 
Q 1956 3084 1622 2776 
Q 1288 2469 1184 1941 
L 800 0 
L 225 0 
L 903 3500 
L 1478 3500 
L 1363 2950 
Q 1603 3253 1940 3418 
Q 2278 3584 2650 3584 
Q 3113 3584 3367 3334 
Q 3622 3084 3622 2631 
Q 3622 2519 3608 2391 
Q 3594 2263 3566 2113 
z
" transform="scale(0.015625)"/>
     </defs>
     <use xlink:href="#DejaVuSans-Oblique-56" transform="translate(0 0.09375)"/>
     <use xlink:href="#DejaVuSans-Oblique-69" transform="translate(68.408203 -16.3125) scale(0.7)"/>
     <use xlink:href="#DejaVuSans-Oblique-6e" transform="translate(87.856445 -16.3125) scale(0.7)"/>
    </g>
   </g>
   <g id="patch_18">
    <path d="M 239.693472 144.277656 
C 240.40952 144.277656 241.096338 143.993167 241.60266 143.486845 
C 242.108983 142.980522 242.393472 142.293705 242.393472 141.577656 
C 242.393472 140.861608 242.108983 140.174791 241.60266 139.668468 
C 241.096338 139.162145 240.40952 138.877656 239.693472 138.877656 
C 238.977424 138.877656 238.290606 139.162145 237.784284 139.668468 
C 237.277961 140.174791 236.993472 140.861608 236.993472 141.577656 
C 236.993472 142.293705 237.277961 142.980522 237.784284 143.486845 
C 238.290606 143.993167 238.977424 144.277656 239.693472 144.277656 
z
" clip-path="url(#p54a994390e)" style="stroke: #000000; stroke-width: 2; stroke-linejoin: miter"/>
   </g>
   <g id="patch_19">
    <path d="M 311.693472 144.277656 
C 312.40952 144.277656 313.096338 143.993167 313.60266 143.486845 
C 314.108983 142.980522 314.393472 142.293705 314.393472 141.577656 
C 314.393472 140.861608 314.108983 140.174791 313.60266 139.668468 
C 313.096338 139.162145 312.40952 138.877656 311.693472 138.877656 
C 310.977424 138.877656 310.290606 139.162145 309.784284 139.668468 
C 309.277961 140.174791 308.993472 140.861608 308.993472 141.577656 
C 308.993472 142.293705 309.277961 142.980522 309.784284 143.486845 
C 310.290606 143.993167 310.977424 144.277656 311.693472 144.277656 
z
" clip-path="url(#p54a994390e)" style="fill: #ffffff; stroke: #000000; stroke-width: 2; stroke-linejoin: miter"/>
   </g>
   <g id="text_9">
    <!-- $v_{out}$ -->
    <g transform="translate(300.630972 132.678047) scale(0.125 -0.125)">
     <defs>
      <path id="DejaVuSans-Oblique-6f" d="M 1625 -91 
Q 1009 -91 651 289 
Q 294 669 294 1325 
Q 294 1706 417 2101 
Q 541 2497 738 2766 
Q 1047 3184 1428 3384 
Q 1809 3584 2291 3584 
Q 2888 3584 3255 3212 
Q 3622 2841 3622 2241 
Q 3622 1825 3500 1412 
Q 3378 1000 3181 728 
Q 2875 309 2494 109 
Q 2113 -91 1625 -91 
z
M 891 1344 
Q 891 869 1089 633 
Q 1288 397 1691 397 
Q 2269 397 2648 901 
Q 3028 1406 3028 2181 
Q 3028 2634 2825 2865 
Q 2622 3097 2228 3097 
Q 1903 3097 1650 2945 
Q 1397 2794 1197 2484 
Q 1050 2253 970 1956 
Q 891 1659 891 1344 
z
" transform="scale(0.015625)"/>
      <path id="DejaVuSans-Oblique-75" d="M 428 1388 
L 838 3500 
L 1416 3500 
L 1006 1409 
Q 975 1256 961 1147 
Q 947 1038 947 966 
Q 947 700 1109 554 
Q 1272 409 1569 409 
Q 2031 409 2368 721 
Q 2706 1034 2809 1563 
L 3194 3500 
L 3769 3500 
L 3091 0 
L 2516 0 
L 2631 550 
Q 2388 244 2052 76 
Q 1716 -91 1338 -91 
Q 878 -91 622 161 
Q 366 413 366 863 
Q 366 956 381 1097 
Q 397 1238 428 1388 
z
" transform="scale(0.015625)"/>
      <path id="DejaVuSans-Oblique-74" d="M 2706 3500 
L 2619 3053 
L 1472 3053 
L 1100 1153 
Q 1081 1047 1072 975 
Q 1063 903 1063 863 
Q 1063 663 1183 572 
Q 1303 481 1569 481 
L 2150 481 
L 2053 0 
L 1503 0 
Q 991 0 739 200 
Q 488 400 488 806 
Q 488 878 497 964 
Q 506 1050 525 1153 
L 897 3053 
L 409 3053 
L 500 3500 
L 978 3500 
L 1172 4494 
L 1747 4494 
L 1556 3500 
L 2706 3500 
z
" transform="scale(0.015625)"/>
     </defs>
     <use xlink:href="#DejaVuSans-Oblique-76" transform="translate(0 0.3125)"/>
     <use xlink:href="#DejaVuSans-Oblique-6f" transform="translate(59.179688 -16.09375) scale(0.7)"/>
     <use xlink:href="#DejaVuSans-Oblique-75" transform="translate(102.006836 -16.09375) scale(0.7)"/>
     <use xlink:href="#DejaVuSans-Oblique-74" transform="translate(146.37207 -16.09375) scale(0.7)"/>
    </g>
   </g>
  </g>
 </g>
 <defs>
  <clipPath id="p54a994390e">
   <rect x="62.897472" y="7.249656" width="263.472" height="265.056"/>
  </clipPath>
 </defs>
</svg>