<?xml version="1.0" encoding="utf-8" standalone="no"?>
<!DOCTYPE svg PUBLIC "-//W3C//DTD SVG 1.1//EN"
  "http://www.w3.org/Graphics/SVG/1.1/DTD/svg11.dtd">
<svg xmlns:xlink="http://www.w3.org/1999/xlink" width="392.31pt" height="188.37pt" viewBox="0 0 392.31 188.37" xmlns="http://www.w3.org/2000/svg" version="1.1">
 <metadata>
  <rdf:RDF xmlns:dc="http://purl.org/dc/elements/1.1/" xmlns:cc="http://creativecommons.org/ns#" xmlns:rdf="http://www.w3.org/1999/02/22-rdf-syntax-ns#">
   <cc:Work>
    <dc:type rdf:resource="http://purl.org/dc/dcmitype/StillImage"/>
    <dc:date>2024-02-10T16:52:34.522669</dc:date>
    <dc:format>image/svg+xml</dc:format>
    <dc:creator>
     <cc:Agent>
      <dc:title>Matplotlib v3.8.2, https://matplotlib.org/</dc:title>
     </cc:Agent>
    </dc:creator>
   </cc:Work>
  </rdf:RDF>
 </metadata>
 <defs>
  <style type="text/css">*{stroke-linejoin: round; stroke-linecap: butt}</style>
 </defs>
 <g id="figure_1">
  <g id="patch_1">
   <path d="M 0 188.37 
L 392.31 188.37 
L 392.31 0 
L 0 0 
z
" style="fill: #ffffff"/>
  </g>
  <g id="axes_1">
   <g id="patch_2">
    <path d="M 263.475 47.835 
L 263.475 11.835 
L 371.475 11.835 
L 371.475 83.835 
L 263.475 83.835 
z
" clip-path="url(#p29c0f9f424)" style="fill: #add8e6; stroke: #add8e6; stroke-linejoin: miter"/>
   </g>
   <g id="line2d_1">
    <path d="M 29.475 119.835 
L 47.475 119.835 
L 65.475 119.835 
" clip-path="url(#p29c0f9f424)" style="fill: none; stroke: #000000; stroke-width: 2; stroke-linecap: round"/>
   </g>
   <g id="line2d_2">
    <path d="M 83.475 155.835 
L 155.475 155.835 
L 155.475 83.835 
L 83.475 83.835 
L 83.475 155.835 
" clip-path="url(#p29c0f9f424)" style="fill: none; stroke: #000000; stroke-width: 2; stroke-linecap: round"/>
   </g>
   <g id="line2d_3">
    <path d="M 83.475 119.835 
L 65.475 119.835 
" clip-path="url(#p29c0f9f424)" style="fill: none; stroke: #000000; stroke-width: 2; stroke-linecap: round"/>
   </g>
   <g id="line2d_4">
    <path d="M 155.475 119.835 
L 173.475 119.835 
" clip-path="url(#p29c0f9f424)" style="fill: none; stroke: #000000; stroke-width: 2; stroke-linecap: round"/>
   </g>
   <g id="line2d_5">
    <path d="M 119.475 155.835 
L 119.475 173.835 
" clip-path="url(#p29c0f9f424)" style="fill: none; stroke: #000000; stroke-width: 2; stroke-linecap: round"/>
   </g>
   <g id="line2d_6">
    <path d="M 119.475 173.835 
L 74.475 173.835 
L 29.475 173.835 
" clip-path="url(#p29c0f9f424)" style="fill: none; stroke: #000000; stroke-width: 2; stroke-linecap: round"/>
   </g>
   <g id="line2d_7">
    <path d="M 173.475 119.835 
L 191.475 119.835 
L 209.475 119.835 
" clip-path="url(#p29c0f9f424)" style="fill: none; stroke: #000000; stroke-width: 2; stroke-linecap: round"/>
   </g>
   <g id="line2d_8">
    <path d="M 119.475 173.835 
L 164.475 173.835 
L 209.475 173.835 
" clip-path="url(#p29c0f9f424)" style="fill: none; stroke: #000000; stroke-width: 2; stroke-linecap: round"/>
   </g>
   <g id="line2d_9">
    <path d="M 263.475 47.835 
L 263.475 11.835 
L 371.475 11.835 
L 371.475 83.835 
L 263.475 83.835 
L 263.475 47.835 
" clip-path="url(#p29c0f9f424)" style="fill: none; stroke: #0000ff; stroke-width: 2; stroke-linecap: round"/>
   </g>
   <g id="text_1">
    <!-- 3 terminal -->
    <g transform="translate(92.535937 113.253492) scale(0.105 -0.105)">
     <defs>
      <path id="DejaVuSans-33" d="M 2597 2516 
Q 3050 2419 3304 2112 
Q 3559 1806 3559 1356 
Q 3559 666 3084 287 
Q 2609 -91 1734 -91 
Q 1441 -91 1130 -33 
Q 819 25 488 141 
L 488 750 
Q 750 597 1062 519 
Q 1375 441 1716 441 
Q 2309 441 2620 675 
Q 2931 909 2931 1356 
Q 2931 1769 2642 2001 
Q 2353 2234 1838 2234 
L 1294 2234 
L 1294 2753 
L 1863 2753 
Q 2328 2753 2575 2939 
Q 2822 3125 2822 3475 
Q 2822 3834 2567 4026 
Q 2313 4219 1838 4219 
Q 1578 4219 1281 4162 
Q 984 4106 628 3988 
L 628 4550 
Q 988 4650 1302 4700 
Q 1616 4750 1894 4750 
Q 2613 4750 3031 4423 
Q 3450 4097 3450 3541 
Q 3450 3153 3228 2886 
Q 3006 2619 2597 2516 
z
" transform="scale(0.015625)"/>
      <path id="DejaVuSans-20" transform="scale(0.015625)"/>
      <path id="DejaVuSans-74" d="M 1172 4494 
L 1172 3500 
L 2356 3500 
L 2356 3053 
L 1172 3053 
L 1172 1153 
Q 1172 725 1289 603 
Q 1406 481 1766 481 
L 2356 481 
L 2356 0 
L 1766 0 
Q 1100 0 847 248 
Q 594 497 594 1153 
L 594 3053 
L 172 3053 
L 172 3500 
L 594 3500 
L 594 4494 
L 1172 4494 
z
" transform="scale(0.015625)"/>
      <path id="DejaVuSans-65" d="M 3597 1894 
L 3597 1613 
L 953 1613 
Q 991 1019 1311 708 
Q 1631 397 2203 397 
Q 2534 397 2845 478 
Q 3156 559 3463 722 
L 3463 178 
Q 3153 47 2828 -22 
Q 2503 -91 2169 -91 
Q 1331 -91 842 396 
Q 353 884 353 1716 
Q 353 2575 817 3079 
Q 1281 3584 2069 3584 
Q 2775 3584 3186 3129 
Q 3597 2675 3597 1894 
z
M 3022 2063 
Q 3016 2534 2758 2815 
Q 2500 3097 2075 3097 
Q 1594 3097 1305 2825 
Q 1016 2553 972 2059 
L 3022 2063 
z
" transform="scale(0.015625)"/>
      <path id="DejaVuSans-72" d="M 2631 2963 
Q 2534 3019 2420 3045 
Q 2306 3072 2169 3072 
Q 1681 3072 1420 2755 
Q 1159 2438 1159 1844 
L 1159 0 
L 581 0 
L 581 3500 
L 1159 3500 
L 1159 2956 
Q 1341 3275 1631 3429 
Q 1922 3584 2338 3584 
Q 2397 3584 2469 3576 
Q 2541 3569 2628 3553 
L 2631 2963 
z
" transform="scale(0.015625)"/>
      <path id="DejaVuSans-6d" d="M 3328 2828 
Q 3544 3216 3844 3400 
Q 4144 3584 4550 3584 
Q 5097 3584 5394 3201 
Q 5691 2819 5691 2113 
L 5691 0 
L 5113 0 
L 5113 2094 
Q 5113 2597 4934 2840 
Q 4756 3084 4391 3084 
Q 3944 3084 3684 2787 
Q 3425 2491 3425 1978 
L 3425 0 
L 2847 0 
L 2847 2094 
Q 2847 2600 2669 2842 
Q 2491 3084 2119 3084 
Q 1678 3084 1418 2786 
Q 1159 2488 1159 1978 
L 1159 0 
L 581 0 
L 581 3500 
L 1159 3500 
L 1159 2956 
Q 1356 3278 1631 3431 
Q 1906 3584 2284 3584 
Q 2666 3584 2933 3390 
Q 3200 3197 3328 2828 
z
" transform="scale(0.015625)"/>
      <path id="DejaVuSans-69" d="M 603 3500 
L 1178 3500 
L 1178 0 
L 603 0 
L 603 3500 
z
M 603 4863 
L 1178 4863 
L 1178 4134 
L 603 4134 
L 603 4863 
z
" transform="scale(0.015625)"/>
      <path id="DejaVuSans-6e" d="M 3513 2113 
L 3513 0 
L 2938 0 
L 2938 2094 
Q 2938 2591 2744 2837 
Q 2550 3084 2163 3084 
Q 1697 3084 1428 2787 
Q 1159 2491 1159 1978 
L 1159 0 
L 581 0 
L 581 3500 
L 1159 3500 
L 1159 2956 
Q 1366 3272 1645 3428 
Q 1925 3584 2291 3584 
Q 2894 3584 3203 3211 
Q 3513 2838 3513 2113 
z
" transform="scale(0.015625)"/>
      <path id="DejaVuSans-61" d="M 2194 1759 
Q 1497 1759 1228 1600 
Q 959 1441 959 1056 
Q 959 750 1161 570 
Q 1363 391 1709 391 
Q 2188 391 2477 730 
Q 2766 1069 2766 1631 
L 2766 1759 
L 2194 1759 
z
M 3341 1997 
L 3341 0 
L 2766 0 
L 2766 531 
Q 2569 213 2275 61 
Q 1981 -91 1556 -91 
Q 1019 -91 701 211 
Q 384 513 384 1019 
Q 384 1609 779 1909 
Q 1175 2209 1959 2209 
L 2766 2209 
L 2766 2266 
Q 2766 2663 2505 2880 
Q 2244 3097 1772 3097 
Q 1472 3097 1187 3025 
Q 903 2953 641 2809 
L 641 3341 
Q 956 3463 1253 3523 
Q 1550 3584 1831 3584 
Q 2591 3584 2966 3190 
Q 3341 2797 3341 1997 
z
" transform="scale(0.015625)"/>
      <path id="DejaVuSans-6c" d="M 603 4863 
L 1178 4863 
L 1178 0 
L 603 0 
L 603 4863 
z
" transform="scale(0.015625)"/>
     </defs>
     <use xlink:href="#DejaVuSans-33"/>
     <use xlink:href="#DejaVuSans-20" x="63.623047"/>
     <use xlink:href="#DejaVuSans-74" x="95.410156"/>
     <use xlink:href="#DejaVuSans-65" x="134.619141"/>
     <use xlink:href="#DejaVuSans-72" x="196.142578"/>
     <use xlink:href="#DejaVuSans-6d" x="235.505859"/>
     <use xlink:href="#DejaVuSans-69" x="332.917969"/>
     <use xlink:href="#DejaVuSans-6e" x="360.701172"/>
     <use xlink:href="#DejaVuSans-61" x="424.080078"/>
     <use xlink:href="#DejaVuSans-6c" x="485.359375"/>
    </g>
    <!--  component -->
    <g transform="translate(88.10543 125.011195) scale(0.105 -0.105)">
     <defs>
      <path id="DejaVuSans-63" d="M 3122 3366 
L 3122 2828 
Q 2878 2963 2633 3030 
Q 2388 3097 2138 3097 
Q 1578 3097 1268 2742 
Q 959 2388 959 1747 
Q 959 1106 1268 751 
Q 1578 397 2138 397 
Q 2388 397 2633 464 
Q 2878 531 3122 666 
L 3122 134 
Q 2881 22 2623 -34 
Q 2366 -91 2075 -91 
Q 1284 -91 818 406 
Q 353 903 353 1747 
Q 353 2603 823 3093 
Q 1294 3584 2113 3584 
Q 2378 3584 2631 3529 
Q 2884 3475 3122 3366 
z
" transform="scale(0.015625)"/>
      <path id="DejaVuSans-6f" d="M 1959 3097 
Q 1497 3097 1228 2736 
Q 959 2375 959 1747 
Q 959 1119 1226 758 
Q 1494 397 1959 397 
Q 2419 397 2687 759 
Q 2956 1122 2956 1747 
Q 2956 2369 2687 2733 
Q 2419 3097 1959 3097 
z
M 1959 3584 
Q 2709 3584 3137 3096 
Q 3566 2609 3566 1747 
Q 3566 888 3137 398 
Q 2709 -91 1959 -91 
Q 1206 -91 779 398 
Q 353 888 353 1747 
Q 353 2609 779 3096 
Q 1206 3584 1959 3584 
z
" transform="scale(0.015625)"/>
      <path id="DejaVuSans-70" d="M 1159 525 
L 1159 -1331 
L 581 -1331 
L 581 3500 
L 1159 3500 
L 1159 2969 
Q 1341 3281 1617 3432 
Q 1894 3584 2278 3584 
Q 2916 3584 3314 3078 
Q 3713 2572 3713 1747 
Q 3713 922 3314 415 
Q 2916 -91 2278 -91 
Q 1894 -91 1617 61 
Q 1341 213 1159 525 
z
M 3116 1747 
Q 3116 2381 2855 2742 
Q 2594 3103 2138 3103 
Q 1681 3103 1420 2742 
Q 1159 2381 1159 1747 
Q 1159 1113 1420 752 
Q 1681 391 2138 391 
Q 2594 391 2855 752 
Q 3116 1113 3116 1747 
z
" transform="scale(0.015625)"/>
     </defs>
     <use xlink:href="#DejaVuSans-20"/>
     <use xlink:href="#DejaVuSans-63" x="31.787109"/>
     <use xlink:href="#DejaVuSans-6f" x="86.767578"/>
     <use xlink:href="#DejaVuSans-6d" x="147.949219"/>
     <use xlink:href="#DejaVuSans-70" x="245.361328"/>
     <use xlink:href="#DejaVuSans-6f" x="308.837891"/>
     <use xlink:href="#DejaVuSans-6e" x="370.019531"/>
     <use xlink:href="#DejaVuSans-65" x="433.398438"/>
     <use xlink:href="#DejaVuSans-6e" x="494.921875"/>
     <use xlink:href="#DejaVuSans-74" x="558.300781"/>
    </g>
   </g>
   <g id="text_2">
    <!-- - -->
    <g style="fill: #ff0000" transform="translate(9.220117 163.784219) scale(0.125 -0.125)">
     <defs>
      <path id="DejaVuSans-2d" d="M 313 2009 
L 1997 2009 
L 1997 1497 
L 313 1497 
L 313 2009 
z
" transform="scale(0.015625)"/>
     </defs>
     <use xlink:href="#DejaVuSans-2d"/>
    </g>
   </g>
   <g id="text_3">
    <!-- $v_{in}$ -->
    <g style="fill: #ff0000" transform="translate(3.6 150.284219) scale(0.125 -0.125)">
     <defs>
      <path id="DejaVuSans-Oblique-76" d="M 459 3500 
L 1069 3500 
L 1581 525 
L 3256 3500 
L 3866 3500 
L 1875 0 
L 1100 0 
L 459 3500 
z
" transform="scale(0.015625)"/>
      <path id="DejaVuSans-Oblique-69" d="M 1172 4863 
L 1747 4863 
L 1606 4134 
L 1031 4134 
L 1172 4863 
z
M 909 3500 
L 1484 3500 
L 800 0 
L 225 0 
L 909 3500 
z
" transform="scale(0.015625)"/>
      <path id="DejaVuSans-Oblique-6e" d="M 3566 2113 
L 3156 0 
L 2578 0 
L 2988 2091 
Q 3016 2238 3031 2350 
Q 3047 2463 3047 2528 
Q 3047 2791 2881 2937 
Q 2716 3084 2419 3084 
Q 1956 3084 1622 2776 
Q 1288 2469 1184 1941 
L 800 0 
L 225 0 
L 903 3500 
L 1478 3500 
L 1363 2950 
Q 1603 3253 1940 3418 
Q 2278 3584 2650 3584 
Q 3113 3584 3367 3334 
Q 3622 3084 3622 2631 
Q 3622 2519 3608 2391 
Q 3594 2263 3566 2113 
z
" transform="scale(0.015625)"/>
     </defs>
     <use xlink:href="#DejaVuSans-Oblique-76" transform="translate(0 0.3125)"/>
     <use xlink:href="#DejaVuSans-Oblique-69" transform="translate(59.179688 -16.09375) scale(0.7)"/>
     <use xlink:href="#DejaVuSans-Oblique-6e" transform="translate(78.62793 -16.09375) scale(0.7)"/>
    </g>
   </g>
   <g id="text_4">
    <!-- $+$ -->
    <g style="fill: #ff0000" transform="translate(6.225 136.784219) scale(0.125 -0.125)">
     <defs>
      <path id="DejaVuSans-2b" d="M 2944 4013 
L 2944 2272 
L 4684 2272 
L 4684 1741 
L 2944 1741 
L 2944 0 
L 2419 0 
L 2419 1741 
L 678 1741 
L 678 2272 
L 2419 2272 
L 2419 4013 
L 2944 4013 
z
" transform="scale(0.015625)"/>
     </defs>
     <use xlink:href="#DejaVuSans-2b" transform="translate(0 0.296875)"/>
    </g>
   </g>
   <g id="text_5">
    <!-- - -->
    <g style="fill: #008000" transform="translate(225.220117 163.784219) scale(0.125 -0.125)">
     <use xlink:href="#DejaVuSans-2d"/>
    </g>
   </g>
   <g id="text_6">
    <!-- $v_{uit}$ -->
    <g style="fill: #008000" transform="translate(217.85 150.284219) scale(0.125 -0.125)">
     <defs>
      <path id="DejaVuSans-Oblique-75" d="M 428 1388 
L 838 3500 
L 1416 3500 
L 1006 1409 
Q 975 1256 961 1147 
Q 947 1038 947 966 
Q 947 700 1109 554 
Q 1272 409 1569 409 
Q 2031 409 2368 721 
Q 2706 1034 2809 1563 
L 3194 3500 
L 3769 3500 
L 3091 0 
L 2516 0 
L 2631 550 
Q 2388 244 2052 76 
Q 1716 -91 1338 -91 
Q 878 -91 622 161 
Q 366 413 366 863 
Q 366 956 381 1097 
Q 397 1238 428 1388 
z
" transform="scale(0.015625)"/>
      <path id="DejaVuSans-Oblique-74" d="M 2706 3500 
L 2619 3053 
L 1472 3053 
L 1100 1153 
Q 1081 1047 1072 975 
Q 1063 903 1063 863 
Q 1063 663 1183 572 
Q 1303 481 1569 481 
L 2150 481 
L 2053 0 
L 1503 0 
Q 991 0 739 200 
Q 488 400 488 806 
Q 488 878 497 964 
Q 506 1050 525 1153 
L 897 3053 
L 409 3053 
L 500 3500 
L 978 3500 
L 1172 4494 
L 1747 4494 
L 1556 3500 
L 2706 3500 
z
" transform="scale(0.015625)"/>
     </defs>
     <use xlink:href="#DejaVuSans-Oblique-76" transform="translate(0 0.3125)"/>
     <use xlink:href="#DejaVuSans-Oblique-75" transform="translate(59.179688 -16.09375) scale(0.7)"/>
     <use xlink:href="#DejaVuSans-Oblique-69" transform="translate(103.544922 -16.09375) scale(0.7)"/>
     <use xlink:href="#DejaVuSans-Oblique-74" transform="translate(122.993164 -16.09375) scale(0.7)"/>
    </g>
   </g>
   <g id="text_7">
    <!-- $+$ -->
    <g style="fill: #008000" transform="translate(222.225 136.784219) scale(0.125 -0.125)">
     <use xlink:href="#DejaVuSans-2b" transform="translate(0 0.296875)"/>
    </g>
   </g>
   <g id="text_8">
    <!-- $A=\frac{\partial v_{uit}}{\partial v_{in}}$ -->
    <g style="fill: #0000ff" transform="translate(288.765 52.5375) scale(0.165 -0.165)">
     <defs>
      <path id="DejaVuSans-Oblique-41" d="M 2356 4666 
L 3072 4666 
L 3938 0 
L 3278 0 
L 3084 1197 
L 984 1197 
L 325 0 
L -341 0 
L 2356 4666 
z
M 2584 4044 
L 1275 1722 
L 2988 1722 
L 2584 4044 
z
" transform="scale(0.015625)"/>
      <path id="DejaVuSans-3d" d="M 678 2906 
L 4684 2906 
L 4684 2381 
L 678 2381 
L 678 2906 
z
M 678 1631 
L 4684 1631 
L 4684 1100 
L 678 1100 
L 678 1631 
z
" transform="scale(0.015625)"/>
      <path id="DejaVuSans-2202" d="M 1366 -91 
Q 925 -91 638 175 
Q 297 491 297 1063 
Q 297 1656 597 2119 
Q 906 2594 1463 2594 
Q 1828 2594 2116 2366 
Q 2284 2231 2400 2006 
Q 2441 2259 2441 2547 
Q 2441 2969 2341 3213 
Q 2119 3753 1531 3753 
Q 1309 3753 966 3616 
L 966 4141 
Q 1328 4238 1653 4238 
Q 2491 4238 2847 3469 
Q 3013 3106 3013 2566 
Q 3013 2213 2934 1803 
Q 2738 778 2228 291 
Q 1828 -91 1366 -91 
z
M 831 969 
Q 831 656 969 488 
Q 1116 309 1341 309 
Q 1541 309 1700 450 
Q 1925 644 2091 959 
Q 2228 1219 2297 1497 
Q 2019 2169 1538 2169 
Q 1125 2169 944 1625 
Q 831 1288 831 969 
z
" transform="scale(0.015625)"/>
     </defs>
     <use xlink:href="#DejaVuSans-Oblique-41" transform="translate(0 0.668906)"/>
     <use xlink:href="#DejaVuSans-3d" transform="translate(87.890625 0.668906)"/>
     <use xlink:href="#DejaVuSans-2202" transform="translate(191.162109 56.646875) scale(0.7)"/>
     <use xlink:href="#DejaVuSans-Oblique-76" transform="translate(227.358398 56.646875) scale(0.7)"/>
     <use xlink:href="#DejaVuSans-Oblique-75" transform="translate(268.78418 45.1625) scale(0.49)"/>
     <use xlink:href="#DejaVuSans-Oblique-69" transform="translate(299.839844 45.1625) scale(0.49)"/>
     <use xlink:href="#DejaVuSans-Oblique-74" transform="translate(313.453613 45.1625) scale(0.49)"/>
     <use xlink:href="#DejaVuSans-2202" transform="translate(201.162109 -33.137344) scale(0.7)"/>
     <use xlink:href="#DejaVuSans-Oblique-76" transform="translate(237.358398 -33.137344) scale(0.7)"/>
     <use xlink:href="#DejaVuSans-Oblique-69" transform="translate(278.78418 -44.621719) scale(0.49)"/>
     <use xlink:href="#DejaVuSans-Oblique-6e" transform="translate(292.397949 -44.621719) scale(0.49)"/>
     <path d="M 191.162109 19.465781 
L 191.162109 25.715781 
L 334.580078 25.715781 
L 334.580078 19.465781 
L 191.162109 19.465781 
z
"/>
    </g>
   </g>
   <g id="patch_3">
    <path d="M 29.475 122.535 
C 30.191048 122.535 30.877866 122.250511 31.384188 121.744188 
C 31.890511 121.237866 32.175 120.551048 32.175 119.835 
C 32.175 119.118952 31.890511 118.432134 31.384188 117.925812 
C 30.877866 117.419489 30.191048 117.135 29.475 117.135 
C 28.758952 117.135 28.072134 117.419489 27.565812 117.925812 
C 27.059489 118.432134 26.775 119.118952 26.775 119.835 
C 26.775 120.551048 27.059489 121.237866 27.565812 121.744188 
C 28.072134 122.250511 28.758952 122.535 29.475 122.535 
z
" clip-path="url(#p29c0f9f424)" style="fill: #ffffff; stroke: #000000; stroke-width: 2; stroke-linejoin: miter"/>
   </g>
   <g id="patch_4">
    <path d="M 119.475 176.535 
C 120.191048 176.535 120.877866 176.250511 121.384188 175.744188 
C 121.890511 175.237866 122.175 174.551048 122.175 173.835 
C 122.175 173.118952 121.890511 172.432134 121.384188 171.925812 
C 120.877866 171.419489 120.191048 171.135 119.475 171.135 
C 118.758952 171.135 118.072134 171.419489 117.565812 171.925812 
C 117.059489 172.432134 116.775 173.118952 116.775 173.835 
C 116.775 174.551048 117.059489 175.237866 117.565812 175.744188 
C 118.072134 176.250511 118.758952 176.535 119.475 176.535 
z
" clip-path="url(#p29c0f9f424)" style="stroke: #000000; stroke-width: 2; stroke-linejoin: miter"/>
   </g>
   <g id="patch_5">
    <path d="M 29.475 176.535 
C 30.191048 176.535 30.877866 176.250511 31.384188 175.744188 
C 31.890511 175.237866 32.175 174.551048 32.175 173.835 
C 32.175 173.118952 31.890511 172.432134 31.384188 171.925812 
C 30.877866 171.419489 30.191048 171.135 29.475 171.135 
C 28.758952 171.135 28.072134 171.419489 27.565812 171.925812 
C 27.059489 172.432134 26.775 173.118952 26.775 173.835 
C 26.775 174.551048 27.059489 175.237866 27.565812 175.744188 
C 28.072134 176.250511 28.758952 176.535 29.475 176.535 
z
" clip-path="url(#p29c0f9f424)" style="fill: #ffffff; stroke: #000000; stroke-width: 2; stroke-linejoin: miter"/>
   </g>
   <g id="patch_6">
    <path d="M 209.475 122.535 
C 210.191048 122.535 210.877866 122.250511 211.384188 121.744188 
C 211.890511 121.237866 212.175 120.551048 212.175 119.835 
C 212.175 119.118952 211.890511 118.432134 211.384188 117.925812 
C 210.877866 117.419489 210.191048 117.135 209.475 117.135 
C 208.758952 117.135 208.072134 117.419489 207.565812 117.925812 
C 207.059489 118.432134 206.775 119.118952 206.775 119.835 
C 206.775 120.551048 207.059489 121.237866 207.565812 121.744188 
C 208.072134 122.250511 208.758952 122.535 209.475 122.535 
z
" clip-path="url(#p29c0f9f424)" style="fill: #ffffff; stroke: #000000; stroke-width: 2; stroke-linejoin: miter"/>
   </g>
   <g id="patch_7">
    <path d="M 209.475 176.535 
C 210.191048 176.535 210.877866 176.250511 211.384188 175.744188 
C 211.890511 175.237866 212.175 174.551048 212.175 173.835 
C 212.175 173.118952 211.890511 172.432134 211.384188 171.925812 
C 210.877866 171.419489 210.191048 171.135 209.475 171.135 
C 208.758952 171.135 208.072134 171.419489 207.565812 171.925812 
C 207.059489 172.432134 206.775 173.118952 206.775 173.835 
C 206.775 174.551048 207.059489 175.237866 207.565812 175.744188 
C 208.072134 176.250511 208.758952 176.535 209.475 176.535 
z
" clip-path="url(#p29c0f9f424)" style="fill: #ffffff; stroke: #000000; stroke-width: 2; stroke-linejoin: miter"/>
   </g>
  </g>
 </g>
 <defs>
  <clipPath id="p29c0f9f424">
   <rect x="9.54" y="3.6" width="379.17" height="181.17"/>
  </clipPath>
 </defs>
</svg>