<?xml version="1.0" encoding="utf-8" standalone="no"?>
<!DOCTYPE svg PUBLIC "-//W3C//DTD SVG 1.1//EN"
  "http://www.w3.org/Graphics/SVG/1.1/DTD/svg11.dtd">
<svg xmlns:xlink="http://www.w3.org/1999/xlink" width="489.99pt" height="232.309656pt" viewBox="0 0 489.99 232.309656" xmlns="http://www.w3.org/2000/svg" version="1.1">
 <metadata>
  <rdf:RDF xmlns:dc="http://purl.org/dc/elements/1.1/" xmlns:cc="http://creativecommons.org/ns#" xmlns:rdf="http://www.w3.org/1999/02/22-rdf-syntax-ns#">
   <cc:Work>
    <dc:type rdf:resource="http://purl.org/dc/dcmitype/StillImage"/>
    <dc:date>2024-02-10T16:51:39.226178</dc:date>
    <dc:format>image/svg+xml</dc:format>
    <dc:creator>
     <cc:Agent>
      <dc:title>Matplotlib v3.8.2, https://matplotlib.org/</dc:title>
     </cc:Agent>
    </dc:creator>
   </cc:Work>
  </rdf:RDF>
 </metadata>
 <defs>
  <style type="text/css">*{stroke-linejoin: round; stroke-linecap: butt}</style>
 </defs>
 <g id="figure_1">
  <g id="patch_1">
   <path d="M 0 232.309656 
L 489.99 232.309656 
L 489.99 0 
L 0 0 
z
" style="fill: #ffffff"/>
  </g>
  <g id="axes_1">
   <g id="patch_2">
    <path d="M 248.445 105.697656 
L 248.445 69.697656 
L 464.445 69.697656 
L 464.445 141.697656 
L 248.445 141.697656 
z
" clip-path="url(#p7337f6f7df)" style="fill: #add8e6; stroke: #add8e6; stroke-linejoin: miter"/>
   </g>
   <g id="line2d_1">
    <path d="M 104.445 195.697656 
L 104.445 180.697656 
L 80.445 180.697656 
L 80.445 156.697656 
L 104.445 156.697656 
L 104.445 141.697656 
" clip-path="url(#p7337f6f7df)" style="fill: none; stroke: #000000; stroke-width: 2; stroke-linecap: round"/>
   </g>
   <g id="line2d_2">
    <path d="M 74.445 180.697656 
L 74.445 156.697656 
" clip-path="url(#p7337f6f7df)" style="fill: none; stroke: #000000; stroke-width: 2; stroke-linecap: round"/>
   </g>
   <g id="line2d_3">
    <path d="M 55.245 168.697656 
L 74.445 168.697656 
" clip-path="url(#p7337f6f7df)" style="fill: none; stroke: #000000; stroke-width: 2; stroke-linecap: round"/>
   </g>
   <g id="line2d_4">
    <path d="M 104.445 195.697656 
L 104.445 210.097656 
L 95.445 210.097656 
L 113.445 210.097656 
M 98.145 214.417656 
L 110.745 214.417656 
M 102.645 218.737656 
L 106.245 218.737656 
" clip-path="url(#p7337f6f7df)" style="fill: none; stroke: #000000; stroke-width: 2; stroke-linecap: round"/>
   </g>
   <g id="line2d_5">
    <path d="M 55.245 168.697656 
L 41.745 168.697656 
L 28.245 168.697656 
" clip-path="url(#p7337f6f7df)" style="fill: none; stroke: #000000; stroke-width: 2; stroke-linecap: round"/>
   </g>
   <g id="line2d_6">
    <path d="M 104.445 141.697656 
L 117.945 141.697656 
L 131.445 141.697656 
" clip-path="url(#p7337f6f7df)" style="fill: none; stroke: #000000; stroke-width: 2; stroke-linecap: round"/>
   </g>
   <g id="line2d_7">
    <path d="M 104.445 141.697656 
L 104.445 105.697656 
L 95.445 102.697656 
L 113.445 96.697656 
L 95.445 90.697656 
L 113.445 84.697656 
L 95.445 78.697656 
L 113.445 72.697656 
L 104.445 69.697656 
L 104.445 33.697656 
" clip-path="url(#p7337f6f7df)" style="fill: none; stroke: #000000; stroke-width: 2; stroke-linecap: round"/>
   </g>
   <g id="line2d_8">
    <path d="M 104.445 33.697656 
L 104.445 19.297656 
" clip-path="url(#p7337f6f7df)" style="fill: none; stroke: #000000; stroke-width: 2; stroke-linecap: round"/>
   </g>
   <g id="line2d_9">
    <path d="M 104.445 19.297656 
L 97.695 19.297656 
" clip-path="url(#p7337f6f7df)" style="fill: none; stroke: #000000; stroke-width: 2; stroke-linecap: round"/>
   </g>
   <g id="line2d_10">
    <path d="M 104.445 19.297656 
L 111.195 19.297656 
" clip-path="url(#p7337f6f7df)" style="fill: none; stroke: #000000; stroke-width: 2; stroke-linecap: round"/>
   </g>
   <g id="line2d_11">
    <path d="M 120.645 112.897656 
L 120.645 51.697656 
" clip-path="url(#p7337f6f7df)" style="fill: none; stroke: #008000; stroke-width: 2; stroke-linecap: round"/>
   </g>
   <g id="patch_3">
    <path d="M 124.245 112.897656 
L 120.645 123.697656 
L 117.045 112.897656 
z
" clip-path="url(#p7337f6f7df)" style="fill: #008000"/>
   </g>
   <g id="line2d_12">
    <path d="M 248.445 105.697656 
L 248.445 69.697656 
L 464.445 69.697656 
L 464.445 141.697656 
L 248.445 141.697656 
L 248.445 105.697656 
" clip-path="url(#p7337f6f7df)" style="fill: none; stroke: #0000ff; stroke-width: 2; stroke-linecap: round"/>
   </g>
   <g id="text_1">
    <!-- $R_L$ -->
    <g transform="translate(77.845 91.146875) scale(0.125 -0.125)">
     <defs>
      <path id="DejaVuSans-Oblique-52" d="M 1613 4147 
L 1294 2491 
L 2106 2491 
Q 2584 2491 2879 2755 
Q 3175 3019 3175 3444 
Q 3175 3784 2976 3965 
Q 2778 4147 2406 4147 
L 1613 4147 
z
M 2772 2241 
Q 2972 2194 3105 2009 
Q 3238 1825 3413 1275 
L 3809 0 
L 3144 0 
L 2778 1197 
Q 2638 1659 2453 1815 
Q 2269 1972 1888 1972 
L 1191 1972 
L 806 0 
L 172 0 
L 1081 4666 
L 2503 4666 
Q 3150 4666 3495 4373 
Q 3841 4081 3841 3531 
Q 3841 3044 3547 2687 
Q 3253 2331 2772 2241 
z
" transform="scale(0.015625)"/>
      <path id="DejaVuSans-Oblique-4c" d="M 1075 4666 
L 1709 4666 
L 909 525 
L 3181 525 
L 3078 0 
L 172 0 
L 1075 4666 
z
" transform="scale(0.015625)"/>
     </defs>
     <use xlink:href="#DejaVuSans-Oblique-52" transform="translate(0 0.09375)"/>
     <use xlink:href="#DejaVuSans-Oblique-4c" transform="translate(69.482422 -16.3125) scale(0.7)"/>
    </g>
   </g>
   <g id="text_2">
    <!-- $V_{dd}$ -->
    <g transform="translate(94.3825 13.098047) scale(0.125 -0.125)">
     <defs>
      <path id="DejaVuSans-Oblique-56" d="M 1319 0 
L 500 4666 
L 1119 4666 
L 1797 653 
L 4063 4666 
L 4750 4666 
L 2053 0 
L 1319 0 
z
" transform="scale(0.015625)"/>
      <path id="DejaVuSans-Oblique-64" d="M 2675 525 
Q 2444 222 2128 65 
Q 1813 -91 1428 -91 
Q 903 -91 598 267 
Q 294 625 294 1247 
Q 294 1766 478 2236 
Q 663 2706 1013 3078 
Q 1244 3325 1534 3454 
Q 1825 3584 2144 3584 
Q 2481 3584 2739 3421 
Q 2997 3259 3138 2956 
L 3513 4863 
L 4091 4863 
L 3144 0 
L 2566 0 
L 2675 525 
z
M 891 1350 
Q 891 897 1095 644 
Q 1300 391 1663 391 
Q 1931 391 2161 520 
Q 2391 650 2566 903 
Q 2750 1166 2856 1509 
Q 2963 1853 2963 2188 
Q 2963 2622 2758 2865 
Q 2553 3109 2194 3109 
Q 1922 3109 1687 2981 
Q 1453 2853 1288 2613 
Q 1106 2353 998 2009 
Q 891 1666 891 1350 
z
" transform="scale(0.015625)"/>
     </defs>
     <use xlink:href="#DejaVuSans-Oblique-56" transform="translate(0 0.09375)"/>
     <use xlink:href="#DejaVuSans-Oblique-64" transform="translate(68.408203 -16.3125) scale(0.7)"/>
     <use xlink:href="#DejaVuSans-Oblique-64" transform="translate(112.841797 -16.3125) scale(0.7)"/>
    </g>
   </g>
   <g id="text_3">
    <!-- $I_{uit}=g_{m} V_{in}$ -->
    <g style="fill: #008000" transform="translate(129.945 91.121484) scale(0.125 -0.125)">
     <defs>
      <path id="DejaVuSans-Oblique-49" d="M 1081 4666 
L 1716 4666 
L 806 0 
L 172 0 
L 1081 4666 
z
" transform="scale(0.015625)"/>
      <path id="DejaVuSans-Oblique-75" d="M 428 1388 
L 838 3500 
L 1416 3500 
L 1006 1409 
Q 975 1256 961 1147 
Q 947 1038 947 966 
Q 947 700 1109 554 
Q 1272 409 1569 409 
Q 2031 409 2368 721 
Q 2706 1034 2809 1563 
L 3194 3500 
L 3769 3500 
L 3091 0 
L 2516 0 
L 2631 550 
Q 2388 244 2052 76 
Q 1716 -91 1338 -91 
Q 878 -91 622 161 
Q 366 413 366 863 
Q 366 956 381 1097 
Q 397 1238 428 1388 
z
" transform="scale(0.015625)"/>
      <path id="DejaVuSans-Oblique-69" d="M 1172 4863 
L 1747 4863 
L 1606 4134 
L 1031 4134 
L 1172 4863 
z
M 909 3500 
L 1484 3500 
L 800 0 
L 225 0 
L 909 3500 
z
" transform="scale(0.015625)"/>
      <path id="DejaVuSans-Oblique-74" d="M 2706 3500 
L 2619 3053 
L 1472 3053 
L 1100 1153 
Q 1081 1047 1072 975 
Q 1063 903 1063 863 
Q 1063 663 1183 572 
Q 1303 481 1569 481 
L 2150 481 
L 2053 0 
L 1503 0 
Q 991 0 739 200 
Q 488 400 488 806 
Q 488 878 497 964 
Q 506 1050 525 1153 
L 897 3053 
L 409 3053 
L 500 3500 
L 978 3500 
L 1172 4494 
L 1747 4494 
L 1556 3500 
L 2706 3500 
z
" transform="scale(0.015625)"/>
      <path id="DejaVuSans-3d" d="M 678 2906 
L 4684 2906 
L 4684 2381 
L 678 2381 
L 678 2906 
z
M 678 1631 
L 4684 1631 
L 4684 1100 
L 678 1100 
L 678 1631 
z
" transform="scale(0.015625)"/>
      <path id="DejaVuSans-Oblique-67" d="M 3816 3500 
L 3219 434 
Q 3047 -456 2561 -893 
Q 2075 -1331 1253 -1331 
Q 950 -1331 690 -1286 
Q 431 -1241 206 -1147 
L 313 -588 
Q 525 -725 762 -790 
Q 1000 -856 1269 -856 
Q 1816 -856 2167 -557 
Q 2519 -259 2631 300 
L 2681 563 
Q 2441 288 2122 144 
Q 1803 0 1434 0 
Q 903 0 598 351 
Q 294 703 294 1319 
Q 294 1803 478 2267 
Q 663 2731 997 3091 
Q 1219 3328 1514 3456 
Q 1809 3584 2131 3584 
Q 2484 3584 2746 3420 
Q 3009 3256 3138 2956 
L 3238 3500 
L 3816 3500 
z
M 2950 2216 
Q 2950 2641 2750 2872 
Q 2550 3103 2181 3103 
Q 1953 3103 1747 3012 
Q 1541 2922 1394 2759 
Q 1156 2491 1023 2127 
Q 891 1763 891 1375 
Q 891 944 1092 712 
Q 1294 481 1672 481 
Q 2219 481 2584 976 
Q 2950 1472 2950 2216 
z
" transform="scale(0.015625)"/>
      <path id="DejaVuSans-Oblique-6d" d="M 5747 2113 
L 5338 0 
L 4763 0 
L 5166 2094 
Q 5191 2228 5203 2325 
Q 5216 2422 5216 2491 
Q 5216 2772 5059 2928 
Q 4903 3084 4622 3084 
Q 4203 3084 3875 2770 
Q 3547 2456 3450 1953 
L 3066 0 
L 2491 0 
L 2900 2094 
Q 2925 2209 2937 2307 
Q 2950 2406 2950 2484 
Q 2950 2769 2794 2926 
Q 2638 3084 2363 3084 
Q 1938 3084 1609 2770 
Q 1281 2456 1184 1953 
L 800 0 
L 225 0 
L 909 3500 
L 1484 3500 
L 1375 2956 
Q 1609 3263 1923 3423 
Q 2238 3584 2597 3584 
Q 2978 3584 3223 3384 
Q 3469 3184 3519 2828 
Q 3781 3197 4126 3390 
Q 4472 3584 4856 3584 
Q 5306 3584 5551 3325 
Q 5797 3066 5797 2591 
Q 5797 2488 5784 2364 
Q 5772 2241 5747 2113 
z
" transform="scale(0.015625)"/>
      <path id="DejaVuSans-Oblique-6e" d="M 3566 2113 
L 3156 0 
L 2578 0 
L 2988 2091 
Q 3016 2238 3031 2350 
Q 3047 2463 3047 2528 
Q 3047 2791 2881 2937 
Q 2716 3084 2419 3084 
Q 1956 3084 1622 2776 
Q 1288 2469 1184 1941 
L 800 0 
L 225 0 
L 903 3500 
L 1478 3500 
L 1363 2950 
Q 1603 3253 1940 3418 
Q 2278 3584 2650 3584 
Q 3113 3584 3367 3334 
Q 3622 3084 3622 2631 
Q 3622 2519 3608 2391 
Q 3594 2263 3566 2113 
z
" transform="scale(0.015625)"/>
     </defs>
     <use xlink:href="#DejaVuSans-Oblique-49" transform="translate(0 0.09375)"/>
     <use xlink:href="#DejaVuSans-Oblique-75" transform="translate(29.492188 -16.3125) scale(0.7)"/>
     <use xlink:href="#DejaVuSans-Oblique-69" transform="translate(73.857422 -16.3125) scale(0.7)"/>
     <use xlink:href="#DejaVuSans-Oblique-74" transform="translate(93.305664 -16.3125) scale(0.7)"/>
     <use xlink:href="#DejaVuSans-3d" transform="translate(142.96875 0.09375)"/>
     <use xlink:href="#DejaVuSans-Oblique-67" transform="translate(246.240234 0.09375)"/>
     <use xlink:href="#DejaVuSans-Oblique-6d" transform="translate(309.716797 -16.3125) scale(0.7)"/>
     <use xlink:href="#DejaVuSans-Oblique-56" transform="translate(380.639648 0.09375)"/>
     <use xlink:href="#DejaVuSans-Oblique-69" transform="translate(449.047852 -16.3125) scale(0.7)"/>
     <use xlink:href="#DejaVuSans-Oblique-6e" transform="translate(468.496094 -16.3125) scale(0.7)"/>
    </g>
   </g>
   <g id="text_4">
    <!-- $V_{uit}=V_{dd}- R_L g_{m} V_{in}$ -->
    <g style="fill: #0000ff" transform="translate(278.1525 110.217109) scale(0.165 -0.165)">
     <defs>
      <path id="DejaVuSans-2212" d="M 678 2272 
L 4684 2272 
L 4684 1741 
L 678 1741 
L 678 2272 
z
" transform="scale(0.015625)"/>
     </defs>
     <use xlink:href="#DejaVuSans-Oblique-56" transform="translate(0 0.09375)"/>
     <use xlink:href="#DejaVuSans-Oblique-75" transform="translate(68.408203 -16.3125) scale(0.7)"/>
     <use xlink:href="#DejaVuSans-Oblique-69" transform="translate(112.773438 -16.3125) scale(0.7)"/>
     <use xlink:href="#DejaVuSans-Oblique-74" transform="translate(132.22168 -16.3125) scale(0.7)"/>
     <use xlink:href="#DejaVuSans-3d" transform="translate(181.884766 0.09375)"/>
     <use xlink:href="#DejaVuSans-Oblique-56" transform="translate(285.15625 0.09375)"/>
     <use xlink:href="#DejaVuSans-Oblique-64" transform="translate(353.564453 -16.3125) scale(0.7)"/>
     <use xlink:href="#DejaVuSans-Oblique-64" transform="translate(397.998047 -16.3125) scale(0.7)"/>
     <use xlink:href="#DejaVuSans-2212" transform="translate(464.648438 0.09375)"/>
     <use xlink:href="#DejaVuSans-Oblique-52" transform="translate(567.919922 0.09375)"/>
     <use xlink:href="#DejaVuSans-Oblique-4c" transform="translate(637.402344 -16.3125) scale(0.7)"/>
     <use xlink:href="#DejaVuSans-Oblique-67" transform="translate(679.135742 0.09375)"/>
     <use xlink:href="#DejaVuSans-Oblique-6d" transform="translate(742.612305 -16.3125) scale(0.7)"/>
     <use xlink:href="#DejaVuSans-Oblique-56" transform="translate(813.535156 0.09375)"/>
     <use xlink:href="#DejaVuSans-Oblique-69" transform="translate(881.943359 -16.3125) scale(0.7)"/>
     <use xlink:href="#DejaVuSans-Oblique-6e" transform="translate(901.391602 -16.3125) scale(0.7)"/>
    </g>
   </g>
   <g id="patch_4">
    <path d="M 28.245 171.397656 
C 28.961048 171.397656 29.647866 171.113167 30.154188 170.606845 
C 30.660511 170.100522 30.945 169.413705 30.945 168.697656 
C 30.945 167.981608 30.660511 167.294791 30.154188 166.788468 
C 29.647866 166.282145 28.961048 165.997656 28.245 165.997656 
C 27.528952 165.997656 26.842134 166.282145 26.335812 166.788468 
C 25.829489 167.294791 25.545 167.981608 25.545 168.697656 
C 25.545 169.413705 25.829489 170.100522 26.335812 170.606845 
C 26.842134 171.113167 27.528952 171.397656 28.245 171.397656 
z
" clip-path="url(#p7337f6f7df)" style="fill: #ffffff; stroke: #000000; stroke-width: 2; stroke-linejoin: miter"/>
   </g>
   <g id="text_5">
    <!-- $V_{in}$ -->
    <g transform="translate(19.8075 159.798047) scale(0.125 -0.125)">
     <use xlink:href="#DejaVuSans-Oblique-56" transform="translate(0 0.09375)"/>
     <use xlink:href="#DejaVuSans-Oblique-69" transform="translate(68.408203 -16.3125) scale(0.7)"/>
     <use xlink:href="#DejaVuSans-Oblique-6e" transform="translate(87.856445 -16.3125) scale(0.7)"/>
    </g>
   </g>
   <g id="patch_5">
    <path d="M 104.445 144.397656 
C 105.161048 144.397656 105.847866 144.113167 106.354188 143.606845 
C 106.860511 143.100522 107.145 142.413705 107.145 141.697656 
C 107.145 140.981608 106.860511 140.294791 106.354188 139.788468 
C 105.847866 139.282145 105.161048 138.997656 104.445 138.997656 
C 103.728952 138.997656 103.042134 139.282145 102.535812 139.788468 
C 102.029489 140.294791 101.745 140.981608 101.745 141.697656 
C 101.745 142.413705 102.029489 143.100522 102.535812 143.606845 
C 103.042134 144.113167 103.728952 144.397656 104.445 144.397656 
z
" clip-path="url(#p7337f6f7df)" style="stroke: #000000; stroke-width: 2; stroke-linejoin: miter"/>
   </g>
   <g id="patch_6">
    <path d="M 131.445 144.397656 
C 132.161048 144.397656 132.847866 144.113167 133.354188 143.606845 
C 133.860511 143.100522 134.145 142.413705 134.145 141.697656 
C 134.145 140.981608 133.860511 140.294791 133.354188 139.788468 
C 132.847866 139.282145 132.161048 138.997656 131.445 138.997656 
C 130.728952 138.997656 130.042134 139.282145 129.535812 139.788468 
C 129.029489 140.294791 128.745 140.981608 128.745 141.697656 
C 128.745 142.413705 129.029489 143.100522 129.535812 143.606845 
C 130.042134 144.113167 130.728952 144.397656 131.445 144.397656 
z
" clip-path="url(#p7337f6f7df)" style="fill: #ffffff; stroke: #000000; stroke-width: 2; stroke-linejoin: miter"/>
   </g>
   <g id="text_6">
    <!-- $V_{uit}$ -->
    <g transform="translate(121.2575 132.798047) scale(0.125 -0.125)">
     <use xlink:href="#DejaVuSans-Oblique-56" transform="translate(0 0.09375)"/>
     <use xlink:href="#DejaVuSans-Oblique-75" transform="translate(68.408203 -16.3125) scale(0.7)"/>
     <use xlink:href="#DejaVuSans-Oblique-69" transform="translate(112.773438 -16.3125) scale(0.7)"/>
     <use xlink:href="#DejaVuSans-Oblique-74" transform="translate(132.22168 -16.3125) scale(0.7)"/>
    </g>
   </g>
  </g>
 </g>
 <defs>
  <clipPath id="p7337f6f7df">
   <rect x="3.6" y="9.325656" width="482.79" height="219.384"/>
  </clipPath>
 </defs>
</svg>