<?xml version="1.0" encoding="utf-8" standalone="no"?>
<!DOCTYPE svg PUBLIC "-//W3C//DTD SVG 1.1//EN"
  "http://www.w3.org/Graphics/SVG/1.1/DTD/svg11.dtd">
<svg xmlns:xlink="http://www.w3.org/1999/xlink" width="460.29pt" height="193.32pt" viewBox="0 0 460.29 193.32" xmlns="http://www.w3.org/2000/svg" version="1.1">
 <metadata>
  <rdf:RDF xmlns:dc="http://purl.org/dc/elements/1.1/" xmlns:cc="http://creativecommons.org/ns#" xmlns:rdf="http://www.w3.org/1999/02/22-rdf-syntax-ns#">
   <cc:Work>
    <dc:type rdf:resource="http://purl.org/dc/dcmitype/StillImage"/>
    <dc:date>2024-02-10T21:45:43.728040</dc:date>
    <dc:format>image/svg+xml</dc:format>
    <dc:creator>
     <cc:Agent>
      <dc:title>Matplotlib v3.8.2, https://matplotlib.org/</dc:title>
     </cc:Agent>
    </dc:creator>
   </cc:Work>
  </rdf:RDF>
 </metadata>
 <defs>
  <style type="text/css">*{stroke-linejoin: round; stroke-linecap: butt}</style>
 </defs>
 <g id="figure_1">
  <g id="patch_1">
   <path d="M -0 193.32 
L 460.29 193.32 
L 460.29 0 
L -0 0 
z
" style="fill: #ffffff"/>
  </g>
  <g id="axes_1">
   <g id="patch_2">
    <path d="M 41.895 57.66 
C 43.008853 57.66 44.077235 57.217462 44.864848 56.429848 
C 45.652462 55.642235 46.095 54.573853 46.095 53.46 
C 46.095 52.346147 45.652462 51.277765 44.864848 50.490152 
C 44.077235 49.702538 43.008853 49.26 41.895 49.26 
C 40.781147 49.26 39.712765 49.702538 38.925152 50.490152 
C 38.137538 51.277765 37.695 52.346147 37.695 53.46 
C 37.695 54.573853 38.137538 55.642235 38.925152 56.429848 
C 39.712765 57.217462 40.781147 57.66 41.895 57.66 
L 41.895 57.66 
z
" clip-path="url(#pfafcb12c15)" style="fill: none; stroke: #000000; stroke-width: 2; stroke-linejoin: miter"/>
   </g>
   <g id="patch_3">
    <path d="M 148.095 116.46 
L 148.095 80.46 
L 436.095 80.46 
L 436.095 152.46 
L 148.095 152.46 
z
" clip-path="url(#pfafcb12c15)" style="fill: #add8e6; stroke: #add8e6; stroke-linejoin: miter"/>
   </g>
   <g id="line2d_1">
    <path d="M 76.095 80.46 
L 76.095 65.46 
L 52.095 65.46 
L 52.095 41.46 
L 76.095 41.46 
L 76.095 26.46 
" clip-path="url(#pfafcb12c15)" style="fill: none; stroke: #000000; stroke-width: 2; stroke-linecap: round"/>
   </g>
   <g id="line2d_2">
    <path d="M 46.095 65.46 
L 46.095 41.46 
" clip-path="url(#pfafcb12c15)" style="fill: none; stroke: #000000; stroke-width: 2; stroke-linecap: round"/>
   </g>
   <g id="line2d_3">
    <path d="M 26.895 53.46 
L 37.695 53.46 
" clip-path="url(#pfafcb12c15)" style="fill: none; stroke: #000000; stroke-width: 2; stroke-linecap: round"/>
   </g>
   <g id="line2d_4">
    <path d="M 61.095 53.46 
L 76.095 53.46 
" clip-path="url(#pfafcb12c15)" style="fill: none; stroke: #000000; stroke-width: 2; stroke-linecap: round"/>
   </g>
   <g id="patch_4">
    <path d="M 61.095 57.06 
L 52.095 53.46 
L 61.095 49.86 
z
" clip-path="url(#pfafcb12c15)"/>
   </g>
   <g id="line2d_5">
    <path d="M 76.095 53.46 
L 85.095 53.46 
L 94.095 53.46 
" clip-path="url(#pfafcb12c15)" style="fill: none; stroke: #000000; stroke-width: 2; stroke-linecap: round"/>
   </g>
   <g id="line2d_6">
    <path d="M 94.095 53.46 
L 94.095 39.96 
L 94.095 26.46 
" clip-path="url(#pfafcb12c15)" style="fill: none; stroke: #000000; stroke-width: 2; stroke-linecap: round"/>
   </g>
   <g id="line2d_7">
    <path d="M 94.095 26.46 
L 85.095 26.46 
L 76.095 26.46 
" clip-path="url(#pfafcb12c15)" style="fill: none; stroke: #000000; stroke-width: 2; stroke-linecap: round"/>
   </g>
   <g id="line2d_8">
    <path d="M 76.095 26.46 
L 76.095 12.06 
" clip-path="url(#pfafcb12c15)" style="fill: none; stroke: #000000; stroke-width: 2; stroke-linecap: round"/>
   </g>
   <g id="line2d_9">
    <path d="M 76.095 12.06 
L 69.345 12.06 
" clip-path="url(#pfafcb12c15)" style="fill: none; stroke: #000000; stroke-width: 2; stroke-linecap: round"/>
   </g>
   <g id="line2d_10">
    <path d="M 76.095 12.06 
L 82.845 12.06 
" clip-path="url(#pfafcb12c15)" style="fill: none; stroke: #000000; stroke-width: 2; stroke-linecap: round"/>
   </g>
   <g id="line2d_11">
    <path d="M 76.095 80.46 
L 76.095 89.46 
L 76.095 98.46 
" clip-path="url(#pfafcb12c15)" style="fill: none; stroke: #000000; stroke-width: 2; stroke-linecap: round"/>
   </g>
   <g id="line2d_12">
    <path d="M 76.095 109.26 
L 76.095 170.46 
" clip-path="url(#pfafcb12c15)" style="fill: none; stroke: #008000; stroke-width: 2; stroke-linecap: round"/>
   </g>
   <g id="patch_5">
    <path d="M 79.695 170.46 
L 76.095 181.26 
L 72.495 170.46 
z
" clip-path="url(#pfafcb12c15)" style="fill: #008000"/>
   </g>
   <g id="line2d_13">
    <path d="M 148.095 116.46 
L 148.095 80.46 
L 436.095 80.46 
L 436.095 152.46 
L 148.095 152.46 
L 148.095 116.46 
" clip-path="url(#pfafcb12c15)" style="fill: none; stroke: #0000ff; stroke-width: 2; stroke-linecap: round"/>
   </g>
   <g id="text_1">
    <!-- $I$ -->
    <g style="fill: #008000" transform="translate(93.945 148.709219) scale(0.125 -0.125)">
     <defs>
      <path id="DejaVuSans-Oblique-49" d="M 1081 4666 
L 1716 4666 
L 806 0 
L 172 0 
L 1081 4666 
z
" transform="scale(0.015625)"/>
     </defs>
     <use xlink:href="#DejaVuSans-Oblique-49" transform="translate(0 0.09375)"/>
    </g>
   </g>
   <g id="text_2">
    <!-- $I=\frac{\mu C_{ox}}{2}\frac{W}{L}(V^+ - V_T)^2 (1+ \lambda V)$ -->
    <g style="fill: #0000ff" transform="translate(183.195 122.3175) scale(0.165 -0.165)">
     <defs>
      <path id="DejaVuSans-3d" d="M 678 2906 
L 4684 2906 
L 4684 2381 
L 678 2381 
L 678 2906 
z
M 678 1631 
L 4684 1631 
L 4684 1100 
L 678 1100 
L 678 1631 
z
" transform="scale(0.015625)"/>
      <path id="DejaVuSans-Oblique-3bc" d="M -84 -1331 
L 856 3500 
L 1434 3500 
L 1009 1322 
Q 997 1256 987 1175 
Q 978 1094 978 1013 
Q 978 722 1161 565 
Q 1344 409 1684 409 
Q 2147 409 2431 671 
Q 2716 934 2816 1459 
L 3213 3500 
L 3788 3500 
L 3266 809 
Q 3253 750 3248 706 
Q 3244 663 3244 628 
Q 3244 531 3283 486 
Q 3322 441 3406 441 
Q 3438 441 3492 456 
Q 3547 472 3647 513 
L 3559 50 
Q 3422 -19 3297 -55 
Q 3172 -91 3053 -91 
Q 2847 -91 2730 40 
Q 2613 172 2613 403 
Q 2438 153 2195 31 
Q 1953 -91 1625 -91 
Q 1334 -91 1117 43 
Q 900 178 831 397 
L 494 -1331 
L -84 -1331 
z
" transform="scale(0.015625)"/>
      <path id="DejaVuSans-Oblique-43" d="M 4447 4306 
L 4319 3641 
Q 4019 3944 3683 4091 
Q 3347 4238 2956 4238 
Q 2422 4238 2017 3981 
Q 1613 3725 1319 3200 
Q 1131 2863 1032 2486 
Q 934 2109 934 1728 
Q 934 1091 1264 756 
Q 1594 422 2222 422 
Q 2656 422 3056 561 
Q 3456 700 3834 978 
L 3688 231 
Q 3316 72 2936 -9 
Q 2556 -91 2175 -91 
Q 1278 -91 773 396 
Q 269 884 269 1753 
Q 269 2309 461 2846 
Q 653 3384 1013 3828 
Q 1394 4300 1883 4525 
Q 2372 4750 3022 4750 
Q 3422 4750 3780 4639 
Q 4138 4528 4447 4306 
z
" transform="scale(0.015625)"/>
      <path id="DejaVuSans-Oblique-6f" d="M 1625 -91 
Q 1009 -91 651 289 
Q 294 669 294 1325 
Q 294 1706 417 2101 
Q 541 2497 738 2766 
Q 1047 3184 1428 3384 
Q 1809 3584 2291 3584 
Q 2888 3584 3255 3212 
Q 3622 2841 3622 2241 
Q 3622 1825 3500 1412 
Q 3378 1000 3181 728 
Q 2875 309 2494 109 
Q 2113 -91 1625 -91 
z
M 891 1344 
Q 891 869 1089 633 
Q 1288 397 1691 397 
Q 2269 397 2648 901 
Q 3028 1406 3028 2181 
Q 3028 2634 2825 2865 
Q 2622 3097 2228 3097 
Q 1903 3097 1650 2945 
Q 1397 2794 1197 2484 
Q 1050 2253 970 1956 
Q 891 1659 891 1344 
z
" transform="scale(0.015625)"/>
      <path id="DejaVuSans-Oblique-78" d="M 3841 3500 
L 2234 1784 
L 3219 0 
L 2559 0 
L 1819 1388 
L 531 0 
L -166 0 
L 1556 1844 
L 641 3500 
L 1300 3500 
L 1972 2234 
L 3144 3500 
L 3841 3500 
z
" transform="scale(0.015625)"/>
      <path id="DejaVuSans-32" d="M 1228 531 
L 3431 531 
L 3431 0 
L 469 0 
L 469 531 
Q 828 903 1448 1529 
Q 2069 2156 2228 2338 
Q 2531 2678 2651 2914 
Q 2772 3150 2772 3378 
Q 2772 3750 2511 3984 
Q 2250 4219 1831 4219 
Q 1534 4219 1204 4116 
Q 875 4013 500 3803 
L 500 4441 
Q 881 4594 1212 4672 
Q 1544 4750 1819 4750 
Q 2544 4750 2975 4387 
Q 3406 4025 3406 3419 
Q 3406 3131 3298 2873 
Q 3191 2616 2906 2266 
Q 2828 2175 2409 1742 
Q 1991 1309 1228 531 
z
" transform="scale(0.015625)"/>
      <path id="DejaVuSans-Oblique-57" d="M 616 4666 
L 1228 4666 
L 1453 697 
L 3213 4666 
L 3916 4666 
L 4147 697 
L 5888 4666 
L 6528 4666 
L 4453 0 
L 3659 0 
L 3444 3891 
L 1697 0 
L 903 0 
L 616 4666 
z
" transform="scale(0.015625)"/>
      <path id="DejaVuSans-Oblique-4c" d="M 1075 4666 
L 1709 4666 
L 909 525 
L 3181 525 
L 3078 0 
L 172 0 
L 1075 4666 
z
" transform="scale(0.015625)"/>
      <path id="DejaVuSans-28" d="M 1984 4856 
Q 1566 4138 1362 3434 
Q 1159 2731 1159 2009 
Q 1159 1288 1364 580 
Q 1569 -128 1984 -844 
L 1484 -844 
Q 1016 -109 783 600 
Q 550 1309 550 2009 
Q 550 2706 781 3412 
Q 1013 4119 1484 4856 
L 1984 4856 
z
" transform="scale(0.015625)"/>
      <path id="DejaVuSans-Oblique-56" d="M 1319 0 
L 500 4666 
L 1119 4666 
L 1797 653 
L 4063 4666 
L 4750 4666 
L 2053 0 
L 1319 0 
z
" transform="scale(0.015625)"/>
      <path id="DejaVuSans-2b" d="M 2944 4013 
L 2944 2272 
L 4684 2272 
L 4684 1741 
L 2944 1741 
L 2944 0 
L 2419 0 
L 2419 1741 
L 678 1741 
L 678 2272 
L 2419 2272 
L 2419 4013 
L 2944 4013 
z
" transform="scale(0.015625)"/>
      <path id="DejaVuSans-2212" d="M 678 2272 
L 4684 2272 
L 4684 1741 
L 678 1741 
L 678 2272 
z
" transform="scale(0.015625)"/>
      <path id="DejaVuSans-Oblique-54" d="M 378 4666 
L 4325 4666 
L 4225 4134 
L 2559 4134 
L 1759 0 
L 1125 0 
L 1925 4134 
L 275 4134 
L 378 4666 
z
" transform="scale(0.015625)"/>
      <path id="DejaVuSans-29" d="M 513 4856 
L 1013 4856 
Q 1481 4119 1714 3412 
Q 1947 2706 1947 2009 
Q 1947 1309 1714 600 
Q 1481 -109 1013 -844 
L 513 -844 
Q 928 -128 1133 580 
Q 1338 1288 1338 2009 
Q 1338 2731 1133 3434 
Q 928 4138 513 4856 
z
" transform="scale(0.015625)"/>
      <path id="DejaVuSans-31" d="M 794 531 
L 1825 531 
L 1825 4091 
L 703 3866 
L 703 4441 
L 1819 4666 
L 2450 4666 
L 2450 531 
L 3481 531 
L 3481 0 
L 794 0 
L 794 531 
z
" transform="scale(0.015625)"/>
      <path id="DejaVuSans-Oblique-3bb" d="M 2350 4316 
L 3125 0 
L 2516 0 
L 2038 2588 
L 328 0 
L -281 0 
L 1903 3356 
L 1794 3975 
Q 1725 4369 1391 4369 
L 1091 4369 
L 1184 4863 
L 1550 4856 
Q 2253 4847 2350 4316 
z
" transform="scale(0.015625)"/>
     </defs>
     <use xlink:href="#DejaVuSans-Oblique-49" transform="translate(0 0.692187)"/>
     <use xlink:href="#DejaVuSans-3d" transform="translate(48.974609 0.692187)"/>
     <use xlink:href="#DejaVuSans-Oblique-3bc" transform="translate(152.246094 59.046875) scale(0.7)"/>
     <use xlink:href="#DejaVuSans-Oblique-43" transform="translate(196.782227 59.046875) scale(0.7)"/>
     <use xlink:href="#DejaVuSans-Oblique-6f" transform="translate(245.65918 47.5625) scale(0.49)"/>
     <use xlink:href="#DejaVuSans-Oblique-78" transform="translate(275.638184 47.5625) scale(0.49)"/>
     <use xlink:href="#DejaVuSans-32" transform="translate(207.246094 -38.714063) scale(0.7)"/>
     <use xlink:href="#DejaVuSans-Oblique-57" transform="translate(319.050293 44.489062) scale(0.7)"/>
     <use xlink:href="#DejaVuSans-Oblique-4c" transform="translate(334.050293 -37.795313) scale(0.7)"/>
     <use xlink:href="#DejaVuSans-28" transform="translate(400.76416 0.692187)"/>
     <use xlink:href="#DejaVuSans-Oblique-56" transform="translate(439.777832 0.692187)"/>
     <use xlink:href="#DejaVuSans-2b" transform="translate(528.840501 38.973437) scale(0.7)"/>
     <use xlink:href="#DejaVuSans-2212" transform="translate(623.347337 0.692187)"/>
     <use xlink:href="#DejaVuSans-Oblique-56" transform="translate(726.618822 0.692187)"/>
     <use xlink:href="#DejaVuSans-Oblique-54" transform="translate(795.027025 -15.714063) scale(0.7)"/>
     <use xlink:href="#DejaVuSans-29" transform="translate(840.520189 0.692187)"/>
     <use xlink:href="#DejaVuSans-32" transform="translate(880.490892 38.973437) scale(0.7)"/>
     <use xlink:href="#DejaVuSans-28" transform="translate(927.7614 0.692187)"/>
     <use xlink:href="#DejaVuSans-31" transform="translate(966.775072 0.692187)"/>
     <use xlink:href="#DejaVuSans-2b" transform="translate(1049.88054 0.692187)"/>
     <use xlink:href="#DejaVuSans-Oblique-3bb" transform="translate(1153.152025 0.692187)"/>
     <use xlink:href="#DejaVuSans-Oblique-56" transform="translate(1212.331712 0.692187)"/>
     <use xlink:href="#DejaVuSans-29" transform="translate(1280.739915 0.692187)"/>
     <path d="M 152.246094 19.489063 
L 152.246094 25.739063 
L 306.550293 25.739063 
L 306.550293 19.489063 
L 152.246094 19.489063 
z
"/>
     <path d="M 319.050293 19.489062 
L 319.050293 25.739062 
L 388.26416 25.739062 
L 388.26416 19.489062 
L 319.050293 19.489062 
z
"/>
    </g>
   </g>
   <g id="patch_6">
    <path d="M 76.095 29.16 
C 76.811048 29.16 77.497866 28.875511 78.004188 28.369188 
C 78.510511 27.862866 78.795 27.176048 78.795 26.46 
C 78.795 25.743952 78.510511 25.057134 78.004188 24.550812 
C 77.497866 24.044489 76.811048 23.76 76.095 23.76 
C 75.378952 23.76 74.692134 24.044489 74.185812 24.550812 
C 73.679489 25.057134 73.395 25.743952 73.395 26.46 
C 73.395 27.176048 73.679489 27.862866 74.185812 28.369188 
C 74.692134 28.875511 75.378952 29.16 76.095 29.16 
z
" clip-path="url(#pfafcb12c15)" style="stroke: #000000; stroke-width: 2; stroke-linejoin: miter"/>
   </g>
   <g id="patch_7">
    <path d="M 76.095 101.16 
C 76.811048 101.16 77.497866 100.875511 78.004188 100.369188 
C 78.510511 99.862866 78.795 99.176048 78.795 98.46 
C 78.795 97.743952 78.510511 97.057134 78.004188 96.550812 
C 77.497866 96.044489 76.811048 95.76 76.095 95.76 
C 75.378952 95.76 74.692134 96.044489 74.185812 96.550812 
C 73.679489 97.057134 73.395 97.743952 73.395 98.46 
C 73.395 99.176048 73.679489 99.862866 74.185812 100.369188 
C 74.692134 100.875511 75.378952 101.16 76.095 101.16 
z
" clip-path="url(#pfafcb12c15)" style="fill: #ffffff; stroke: #000000; stroke-width: 2; stroke-linejoin: miter"/>
   </g>
   <g id="text_3">
    <!-- $V$ -->
    <g transform="translate(60.9825 93.160391) scale(0.125 -0.125)">
     <use xlink:href="#DejaVuSans-Oblique-56" transform="translate(0 0.09375)"/>
    </g>
   </g>
   <g id="patch_8">
    <path d="M 26.895 56.16 
C 27.611048 56.16 28.297866 55.875511 28.804188 55.369188 
C 29.310511 54.862866 29.595 54.176048 29.595 53.46 
C 29.595 52.743952 29.310511 52.057134 28.804188 51.550812 
C 28.297866 51.044489 27.611048 50.76 26.895 50.76 
C 26.178952 50.76 25.492134 51.044489 24.985812 51.550812 
C 24.479489 52.057134 24.195 52.743952 24.195 53.46 
C 24.195 54.176048 24.479489 54.862866 24.985812 55.369188 
C 25.492134 55.875511 26.178952 56.16 26.895 56.16 
z
" clip-path="url(#pfafcb12c15)" style="fill: #ffffff; stroke: #000000; stroke-width: 2; stroke-linejoin: miter"/>
   </g>
   <g id="text_4">
    <!-- $V^+$ -->
    <g transform="translate(9.3825 48.160391) scale(0.125 -0.125)">
     <use xlink:href="#DejaVuSans-Oblique-56" transform="translate(0 0.826562)"/>
     <use xlink:href="#DejaVuSans-2b" transform="translate(89.062669 39.107812) scale(0.7)"/>
    </g>
   </g>
  </g>
 </g>
 <defs>
  <clipPath id="pfafcb12c15">
   <rect x="3.6" y="3.6" width="453.09" height="186.12"/>
  </clipPath>
 </defs>
</svg>