<?xml version="1.0" encoding="utf-8" standalone="no"?>
<!DOCTYPE svg PUBLIC "-//W3C//DTD SVG 1.1//EN"
  "http://www.w3.org/Graphics/SVG/1.1/DTD/svg11.dtd">
<svg xmlns:xlink="http://www.w3.org/1999/xlink" width="361.6335pt" height="446.232pt" viewBox="0 0 361.6335 446.232" xmlns="http://www.w3.org/2000/svg" version="1.1">
 <metadata>
  <rdf:RDF xmlns:dc="http://purl.org/dc/elements/1.1/" xmlns:cc="http://creativecommons.org/ns#" xmlns:rdf="http://www.w3.org/1999/02/22-rdf-syntax-ns#">
   <cc:Work>
    <dc:type rdf:resource="http://purl.org/dc/dcmitype/StillImage"/>
    <dc:date>2024-01-02T23:47:10.552652</dc:date>
    <dc:format>image/svg+xml</dc:format>
    <dc:creator>
     <cc:Agent>
      <dc:title>Matplotlib v3.8.2, https://matplotlib.org/</dc:title>
     </cc:Agent>
    </dc:creator>
   </cc:Work>
  </rdf:RDF>
 </metadata>
 <defs>
  <style type="text/css">*{stroke-linejoin: round; stroke-linecap: butt}</style>
 </defs>
 <g id="figure_1">
  <g id="patch_1">
   <path d="M 0 446.232 
L 361.6335 446.232 
L 361.6335 -0 
L 0 -0 
z
" style="fill: #ffffff"/>
  </g>
  <g id="axes_1">
   <g id="patch_2">
    <path d="M 255.2175 264.396 
L 255.388852 264.394641 
L 255.560162 264.390563 
L 255.731385 264.383767 
L 255.902478 264.374256 
L 256.0734 264.362032 
L 256.244105 264.347097 
L 256.414553 264.329455 
L 256.584698 264.309112 
L 256.7545 264.286072 
L 256.923915 264.26034 
L 257.0929 264.231924 
L 257.261413 264.20083 
L 257.429412 264.167066 
L 257.596854 264.130642 
L 257.763697 264.091565 
L 257.929898 264.049846 
L 258.095417 264.005495 
L 258.260212 263.958524 
L 258.42424 263.908944 
L 258.587461 263.856768 
L 258.749834 263.802009 
L 258.911318 263.74468 
L 259.071871 263.684797 
L 259.231455 263.622374 
L 259.390027 263.557426 
L 259.54755 263.489971 
L 259.703982 263.420026 
L 259.859285 263.347607 
L 260.013419 263.272733 
L 260.166346 263.195423 
L 260.318028 263.115696 
L 260.468425 263.033573 
L 260.6175 262.949074 
L 260.765216 262.862221 
L 260.911535 262.773035 
L 261.056421 262.681538 
L 261.199837 262.587754 
L 261.341747 262.491707 
L 261.482115 262.39342 
L 261.620906 262.292919 
L 261.758085 262.190228 
L 261.893617 262.085373 
L 262.027469 261.978382 
L 262.159606 261.86928 
L 262.289996 261.758095 
L 262.418605 261.644856 
L 262.545402 261.52959 
L 262.670353 261.412328 
L 262.793429 261.293097 
L 262.914597 261.171929 
L 263.033828 261.048853 
L 263.15109 260.923902 
L 263.266356 260.797105 
L 263.379595 260.668496 
L 263.49078 260.538106 
L 263.599882 260.405969 
L 263.706873 260.272117 
L 263.811728 260.136585 
L 263.914419 259.999406 
L 264.01492 259.860615 
L 264.113207 259.720247 
L 264.209254 259.578337 
L 264.303038 259.434921 
L 264.394535 259.290035 
L 264.483721 259.143716 
L 264.570574 258.996 
L 264.655073 258.846925 
L 264.737196 258.696528 
L 264.816923 258.544846 
L 264.894233 258.391919 
L 264.969107 258.237785 
L 265.041526 258.082482 
L 265.111471 257.92605 
L 265.178926 257.768527 
L 265.243874 257.609955 
L 265.306297 257.450371 
L 265.36618 257.289818 
L 265.423509 257.128334 
L 265.478268 256.965961 
L 265.530444 256.80274 
L 265.580024 256.638712 
L 265.626995 256.473917 
L 265.671346 256.308398 
L 265.713065 256.142197 
L 265.752142 255.975354 
L 265.788566 255.807912 
L 265.82233 255.639913 
L 265.853424 255.4714 
L 265.88184 255.302415 
L 265.907572 255.133 
L 265.930612 254.963198 
L 265.950955 254.793053 
L 265.968597 254.622605 
L 265.983532 254.4519 
L 265.995756 254.280978 
L 266.005267 254.109885 
L 266.012063 253.938662 
L 266.016141 253.767352 
L 266.0175 253.596 
L 266.0175 167.436 
L 266.016141 167.264648 
L 266.012063 167.093338 
L 266.005267 166.922115 
L 265.995756 166.751022 
L 265.983532 166.5801 
L 265.968597 166.409395 
L 265.950955 166.238947 
L 265.930612 166.068802 
L 265.907572 165.899 
L 265.88184 165.729585 
L 265.853424 165.5606 
L 265.82233 165.392087 
L 265.788566 165.224088 
L 265.752142 165.056646 
L 265.713065 164.889803 
L 265.671346 164.723602 
L 265.626995 164.558083 
L 265.580024 164.393288 
L 265.530444 164.22926 
L 265.478268 164.066039 
L 265.423509 163.903666 
L 265.36618 163.742182 
L 265.306297 163.581629 
L 265.243874 163.422045 
L 265.178926 163.263473 
L 265.111471 163.10595 
L 265.041526 162.949518 
L 264.969107 162.794215 
L 264.894233 162.640081 
L 264.816923 162.487154 
L 264.737196 162.335472 
L 264.655073 162.185075 
L 264.570574 162.036 
L 264.483721 161.888284 
L 264.394535 161.741965 
L 264.303038 161.597079 
L 264.209254 161.453663 
L 264.113207 161.311753 
L 264.01492 161.171385 
L 263.914419 161.032594 
L 263.811728 160.895415 
L 263.706873 160.759883 
L 263.599882 160.626031 
L 263.49078 160.493894 
L 263.379595 160.363504 
L 263.266356 160.234895 
L 263.15109 160.108098 
L 263.033828 159.983147 
L 262.914597 159.860071 
L 262.793429 159.738903 
L 262.670353 159.619672 
L 262.545402 159.50241 
L 262.418605 159.387144 
L 262.289996 159.273905 
L 262.159606 159.16272 
L 262.027469 159.053618 
L 261.893617 158.946627 
L 261.758085 158.841772 
L 261.620906 158.739081 
L 261.482115 158.63858 
L 261.341747 158.540293 
L 261.199837 158.444246 
L 261.056421 158.350462 
L 260.911535 158.258965 
L 260.765216 158.169779 
L 260.6175 158.082926 
L 260.468425 157.998427 
L 260.318028 157.916304 
L 260.166346 157.836577 
L 260.013419 157.759267 
L 259.859285 157.684393 
L 259.703982 157.611974 
L 259.54755 157.542029 
L 259.390027 157.474574 
L 259.231455 157.409626 
L 259.071871 157.347203 
L 258.911318 157.28732 
L 258.749834 157.229991 
L 258.587461 157.175232 
L 258.42424 157.123056 
L 258.260212 157.073476 
L 258.095417 157.026505 
L 257.929898 156.982154 
L 257.763697 156.940435 
L 257.596854 156.901358 
L 257.429412 156.864934 
L 257.261413 156.83117 
L 257.0929 156.800076 
L 256.923915 156.77166 
L 256.7545 156.745928 
L 256.584698 156.722888 
L 256.414553 156.702545 
L 256.244105 156.684903 
L 256.0734 156.669968 
L 255.902478 156.657744 
L 255.731385 156.648233 
L 255.560162 156.641437 
L 255.388852 156.637359 
L 255.2175 156.636 
L 179.1015 156.636 
L 178.930148 156.637359 
L 178.758838 156.641437 
L 178.587615 156.648233 
L 178.416522 156.657744 
L 178.2456 156.669968 
L 178.074895 156.684903 
L 177.904447 156.702545 
L 177.734302 156.722888 
L 177.5645 156.745928 
L 177.395085 156.77166 
L 177.2261 156.800076 
L 177.057587 156.83117 
L 176.889588 156.864934 
L 176.722146 156.901358 
L 176.555303 156.940435 
L 176.389102 156.982154 
L 176.223583 157.026505 
L 176.058788 157.073476 
L 175.89476 157.123056 
L 175.731539 157.175232 
L 175.569166 157.229991 
L 175.407682 157.28732 
L 175.247129 157.347203 
L 175.087545 157.409626 
L 174.928973 157.474574 
L 174.77145 157.542029 
L 174.615018 157.611974 
L 174.459715 157.684393 
L 174.305581 157.759267 
L 174.152654 157.836577 
L 174.000972 157.916304 
L 173.850575 157.998427 
L 173.7015 158.082926 
L 173.553784 158.169779 
L 173.407465 158.258965 
L 173.262579 158.350462 
L 173.119163 158.444246 
L 172.977253 158.540293 
L 172.836885 158.63858 
L 172.698094 158.739081 
L 172.560915 158.841772 
L 172.425383 158.946627 
L 172.291531 159.053618 
L 172.159394 159.16272 
L 172.029004 159.273905 
L 171.900395 159.387144 
L 171.773598 159.50241 
L 171.648647 159.619672 
L 171.525571 159.738903 
L 171.404403 159.860071 
L 171.285172 159.983147 
L 171.16791 160.108098 
L 171.052644 160.234895 
L 170.939405 160.363504 
L 170.82822 160.493894 
L 170.719118 160.626031 
L 170.612127 160.759883 
L 170.507272 160.895415 
L 170.404581 161.032594 
L 170.30408 161.171385 
L 170.205793 161.311753 
L 170.109746 161.453663 
L 170.015962 161.597079 
L 169.924465 161.741965 
L 169.835279 161.888284 
L 169.748426 162.036 
L 169.663927 162.185075 
L 169.581804 162.335472 
L 169.502077 162.487154 
L 169.424767 162.640081 
L 169.349893 162.794215 
L 169.277474 162.949518 
L 169.207529 163.10595 
L 169.140074 163.263473 
L 169.075126 163.422045 
L 169.012703 163.581629 
L 168.95282 163.742182 
L 168.895491 163.903666 
L 168.840732 164.066039 
L 168.788556 164.22926 
L 168.738976 164.393288 
L 168.692005 164.558083 
L 168.647654 164.723602 
L 168.605935 164.889803 
L 168.566858 165.056646 
L 168.530434 165.224088 
L 168.49667 165.392087 
L 168.465576 165.5606 
L 168.43716 165.729585 
L 168.411428 165.899 
L 168.388388 166.068802 
L 168.368045 166.238947 
L 168.350403 166.409395 
L 168.335468 166.5801 
L 168.323244 166.751022 
L 168.313733 166.922115 
L 168.306937 167.093338 
L 168.302859 167.264648 
L 168.3015 167.436 
L 168.3015 253.596 
L 168.302859 253.767352 
L 168.306937 253.938662 
L 168.313733 254.109885 
L 168.323244 254.280978 
L 168.335468 254.4519 
L 168.350403 254.622605 
L 168.368045 254.793053 
L 168.388388 254.963198 
L 168.411428 255.133 
L 168.43716 255.302415 
L 168.465576 255.4714 
L 168.49667 255.639913 
L 168.530434 255.807912 
L 168.566858 255.975354 
L 168.605935 256.142197 
L 168.647654 256.308398 
L 168.692005 256.473917 
L 168.738976 256.638712 
L 168.788556 256.80274 
L 168.840732 256.965961 
L 168.895491 257.128334 
L 168.95282 257.289818 
L 169.012703 257.450371 
L 169.075126 257.609955 
L 169.140074 257.768527 
L 169.207529 257.92605 
L 169.277474 258.082482 
L 169.349893 258.237785 
L 169.424767 258.391919 
L 169.502077 258.544846 
L 169.581804 258.696528 
L 169.663927 258.846925 
L 169.748426 258.996 
L 169.835279 259.143716 
L 169.924465 259.290035 
L 170.015962 259.434921 
L 170.109746 259.578337 
L 170.205793 259.720247 
L 170.30408 259.860615 
L 170.404581 259.999406 
L 170.507272 260.136585 
L 170.612127 260.272117 
L 170.719118 260.405969 
L 170.82822 260.538106 
L 170.939405 260.668496 
L 171.052644 260.797105 
L 171.16791 260.923902 
L 171.285172 261.048853 
L 171.404403 261.171929 
L 171.525571 261.293097 
L 171.648647 261.412328 
L 171.773598 261.52959 
L 171.900395 261.644856 
L 172.029004 261.758095 
L 172.159394 261.86928 
L 172.291531 261.978382 
L 172.425383 262.085373 
L 172.560915 262.190228 
L 172.698094 262.292919 
L 172.836885 262.39342 
L 172.977253 262.491707 
L 173.119163 262.587754 
L 173.262579 262.681538 
L 173.407465 262.773035 
L 173.553784 262.862221 
L 173.7015 262.949074 
L 173.850575 263.033573 
L 174.000972 263.115696 
L 174.152654 263.195423 
L 174.305581 263.272733 
L 174.459715 263.347607 
L 174.615018 263.420026 
L 174.77145 263.489971 
L 174.928973 263.557426 
L 175.087545 263.622374 
L 175.247129 263.684797 
L 175.407682 263.74468 
L 175.569166 263.802009 
L 175.731539 263.856768 
L 175.89476 263.908944 
L 176.058788 263.958524 
L 176.223583 264.005495 
L 176.389102 264.049846 
L 176.555303 264.091565 
L 176.722146 264.130642 
L 176.889588 264.167066 
L 177.057587 264.20083 
L 177.2261 264.231924 
L 177.395085 264.26034 
L 177.5645 264.286072 
L 177.734302 264.309112 
L 177.904447 264.329455 
L 178.074895 264.347097 
L 178.2456 264.362032 
L 178.416522 264.374256 
L 178.587615 264.383767 
L 178.758838 264.390563 
L 178.930148 264.394641 
L 179.1015 264.396 
L 255.2175 264.396 
z
" clip-path="url(#pd13c40c593)" style="fill: none; stroke-dasharray: 1.85,0.8; stroke-dashoffset: 0; stroke: #008000; stroke-width: 0.5; stroke-linecap: round"/>
   </g>
   <g id="patch_3">
    <path d="M 255.2175 379.596 
L 255.388852 379.594641 
L 255.560162 379.590563 
L 255.731385 379.583767 
L 255.902478 379.574256 
L 256.0734 379.562032 
L 256.244105 379.547097 
L 256.414553 379.529455 
L 256.584698 379.509112 
L 256.7545 379.486072 
L 256.923915 379.46034 
L 257.0929 379.431924 
L 257.261413 379.40083 
L 257.429412 379.367066 
L 257.596854 379.330642 
L 257.763697 379.291565 
L 257.929898 379.249846 
L 258.095417 379.205495 
L 258.260212 379.158524 
L 258.42424 379.108944 
L 258.587461 379.056768 
L 258.749834 379.002009 
L 258.911318 378.94468 
L 259.071871 378.884797 
L 259.231455 378.822374 
L 259.390027 378.757426 
L 259.54755 378.689971 
L 259.703982 378.620026 
L 259.859285 378.547607 
L 260.013419 378.472733 
L 260.166346 378.395423 
L 260.318028 378.315696 
L 260.468425 378.233573 
L 260.6175 378.149074 
L 260.765216 378.062221 
L 260.911535 377.973035 
L 261.056421 377.881538 
L 261.199837 377.787754 
L 261.341747 377.691707 
L 261.482115 377.59342 
L 261.620906 377.492919 
L 261.758085 377.390228 
L 261.893617 377.285373 
L 262.027469 377.178382 
L 262.159606 377.06928 
L 262.289996 376.958095 
L 262.418605 376.844856 
L 262.545402 376.72959 
L 262.670353 376.612328 
L 262.793429 376.493097 
L 262.914597 376.371929 
L 263.033828 376.248853 
L 263.15109 376.123902 
L 263.266356 375.997105 
L 263.379595 375.868496 
L 263.49078 375.738106 
L 263.599882 375.605969 
L 263.706873 375.472117 
L 263.811728 375.336585 
L 263.914419 375.199406 
L 264.01492 375.060615 
L 264.113207 374.920247 
L 264.209254 374.778337 
L 264.303038 374.634921 
L 264.394535 374.490035 
L 264.483721 374.343716 
L 264.570574 374.196 
L 264.655073 374.046925 
L 264.737196 373.896528 
L 264.816923 373.744846 
L 264.894233 373.591919 
L 264.969107 373.437785 
L 265.041526 373.282482 
L 265.111471 373.12605 
L 265.178926 372.968527 
L 265.243874 372.809955 
L 265.306297 372.650371 
L 265.36618 372.489818 
L 265.423509 372.328334 
L 265.478268 372.165961 
L 265.530444 372.00274 
L 265.580024 371.838712 
L 265.626995 371.673917 
L 265.671346 371.508398 
L 265.713065 371.342197 
L 265.752142 371.175354 
L 265.788566 371.007912 
L 265.82233 370.839913 
L 265.853424 370.6714 
L 265.88184 370.502415 
L 265.907572 370.333 
L 265.930612 370.163198 
L 265.950955 369.993053 
L 265.968597 369.822605 
L 265.983532 369.6519 
L 265.995756 369.480978 
L 266.005267 369.309885 
L 266.012063 369.138662 
L 266.016141 368.967352 
L 266.0175 368.796 
L 266.0175 282.396 
L 266.016141 282.224648 
L 266.012063 282.053338 
L 266.005267 281.882115 
L 265.995756 281.711022 
L 265.983532 281.5401 
L 265.968597 281.369395 
L 265.950955 281.198947 
L 265.930612 281.028802 
L 265.907572 280.859 
L 265.88184 280.689585 
L 265.853424 280.5206 
L 265.82233 280.352087 
L 265.788566 280.184088 
L 265.752142 280.016646 
L 265.713065 279.849803 
L 265.671346 279.683602 
L 265.626995 279.518083 
L 265.580024 279.353288 
L 265.530444 279.18926 
L 265.478268 279.026039 
L 265.423509 278.863666 
L 265.36618 278.702182 
L 265.306297 278.541629 
L 265.243874 278.382045 
L 265.178926 278.223473 
L 265.111471 278.06595 
L 265.041526 277.909518 
L 264.969107 277.754215 
L 264.894233 277.600081 
L 264.816923 277.447154 
L 264.737196 277.295472 
L 264.655073 277.145075 
L 264.570574 276.996 
L 264.483721 276.848284 
L 264.394535 276.701965 
L 264.303038 276.557079 
L 264.209254 276.413663 
L 264.113207 276.271753 
L 264.01492 276.131385 
L 263.914419 275.992594 
L 263.811728 275.855415 
L 263.706873 275.719883 
L 263.599882 275.586031 
L 263.49078 275.453894 
L 263.379595 275.323504 
L 263.266356 275.194895 
L 263.15109 275.068098 
L 263.033828 274.943147 
L 262.914597 274.820071 
L 262.793429 274.698903 
L 262.670353 274.579672 
L 262.545402 274.46241 
L 262.418605 274.347144 
L 262.289996 274.233905 
L 262.159606 274.12272 
L 262.027469 274.013618 
L 261.893617 273.906627 
L 261.758085 273.801772 
L 261.620906 273.699081 
L 261.482115 273.59858 
L 261.341747 273.500293 
L 261.199837 273.404246 
L 261.056421 273.310462 
L 260.911535 273.218965 
L 260.765216 273.129779 
L 260.6175 273.042926 
L 260.468425 272.958427 
L 260.318028 272.876304 
L 260.166346 272.796577 
L 260.013419 272.719267 
L 259.859285 272.644393 
L 259.703982 272.571974 
L 259.54755 272.502029 
L 259.390027 272.434574 
L 259.231455 272.369626 
L 259.071871 272.307203 
L 258.911318 272.24732 
L 258.749834 272.189991 
L 258.587461 272.135232 
L 258.42424 272.083056 
L 258.260212 272.033476 
L 258.095417 271.986505 
L 257.929898 271.942154 
L 257.763697 271.900435 
L 257.596854 271.861358 
L 257.429412 271.824934 
L 257.261413 271.79117 
L 257.0929 271.760076 
L 256.923915 271.73166 
L 256.7545 271.705928 
L 256.584698 271.682888 
L 256.414553 271.662545 
L 256.244105 271.644903 
L 256.0734 271.629968 
L 255.902478 271.617744 
L 255.731385 271.608233 
L 255.560162 271.601437 
L 255.388852 271.597359 
L 255.2175 271.596 
L 179.1015 271.596 
L 178.930148 271.597359 
L 178.758838 271.601437 
L 178.587615 271.608233 
L 178.416522 271.617744 
L 178.2456 271.629968 
L 178.074895 271.644903 
L 177.904447 271.662545 
L 177.734302 271.682888 
L 177.5645 271.705928 
L 177.395085 271.73166 
L 177.2261 271.760076 
L 177.057587 271.79117 
L 176.889588 271.824934 
L 176.722146 271.861358 
L 176.555303 271.900435 
L 176.389102 271.942154 
L 176.223583 271.986505 
L 176.058788 272.033476 
L 175.89476 272.083056 
L 175.731539 272.135232 
L 175.569166 272.189991 
L 175.407682 272.24732 
L 175.247129 272.307203 
L 175.087545 272.369626 
L 174.928973 272.434574 
L 174.77145 272.502029 
L 174.615018 272.571974 
L 174.459715 272.644393 
L 174.305581 272.719267 
L 174.152654 272.796577 
L 174.000972 272.876304 
L 173.850575 272.958427 
L 173.7015 273.042926 
L 173.553784 273.129779 
L 173.407465 273.218965 
L 173.262579 273.310462 
L 173.119163 273.404246 
L 172.977253 273.500293 
L 172.836885 273.59858 
L 172.698094 273.699081 
L 172.560915 273.801772 
L 172.425383 273.906627 
L 172.291531 274.013618 
L 172.159394 274.12272 
L 172.029004 274.233905 
L 171.900395 274.347144 
L 171.773598 274.46241 
L 171.648647 274.579672 
L 171.525571 274.698903 
L 171.404403 274.820071 
L 171.285172 274.943147 
L 171.16791 275.068098 
L 171.052644 275.194895 
L 170.939405 275.323504 
L 170.82822 275.453894 
L 170.719118 275.586031 
L 170.612127 275.719883 
L 170.507272 275.855415 
L 170.404581 275.992594 
L 170.30408 276.131385 
L 170.205793 276.271753 
L 170.109746 276.413663 
L 170.015962 276.557079 
L 169.924465 276.701965 
L 169.835279 276.848284 
L 169.748426 276.996 
L 169.663927 277.145075 
L 169.581804 277.295472 
L 169.502077 277.447154 
L 169.424767 277.600081 
L 169.349893 277.754215 
L 169.277474 277.909518 
L 169.207529 278.06595 
L 169.140074 278.223473 
L 169.075126 278.382045 
L 169.012703 278.541629 
L 168.95282 278.702182 
L 168.895491 278.863666 
L 168.840732 279.026039 
L 168.788556 279.18926 
L 168.738976 279.353288 
L 168.692005 279.518083 
L 168.647654 279.683602 
L 168.605935 279.849803 
L 168.566858 280.016646 
L 168.530434 280.184088 
L 168.49667 280.352087 
L 168.465576 280.5206 
L 168.43716 280.689585 
L 168.411428 280.859 
L 168.388388 281.028802 
L 168.368045 281.198947 
L 168.350403 281.369395 
L 168.335468 281.5401 
L 168.323244 281.711022 
L 168.313733 281.882115 
L 168.306937 282.053338 
L 168.302859 282.224648 
L 168.3015 282.396 
L 168.3015 368.796 
L 168.302859 368.967352 
L 168.306937 369.138662 
L 168.313733 369.309885 
L 168.323244 369.480978 
L 168.335468 369.6519 
L 168.350403 369.822605 
L 168.368045 369.993053 
L 168.388388 370.163198 
L 168.411428 370.333 
L 168.43716 370.502415 
L 168.465576 370.6714 
L 168.49667 370.839913 
L 168.530434 371.007912 
L 168.566858 371.175354 
L 168.605935 371.342197 
L 168.647654 371.508398 
L 168.692005 371.673917 
L 168.738976 371.838712 
L 168.788556 372.00274 
L 168.840732 372.165961 
L 168.895491 372.328334 
L 168.95282 372.489818 
L 169.012703 372.650371 
L 169.075126 372.809955 
L 169.140074 372.968527 
L 169.207529 373.12605 
L 169.277474 373.282482 
L 169.349893 373.437785 
L 169.424767 373.591919 
L 169.502077 373.744846 
L 169.581804 373.896528 
L 169.663927 374.046925 
L 169.748426 374.196 
L 169.835279 374.343716 
L 169.924465 374.490035 
L 170.015962 374.634921 
L 170.109746 374.778337 
L 170.205793 374.920247 
L 170.30408 375.060615 
L 170.404581 375.199406 
L 170.507272 375.336585 
L 170.612127 375.472117 
L 170.719118 375.605969 
L 170.82822 375.738106 
L 170.939405 375.868496 
L 171.052644 375.997105 
L 171.16791 376.123902 
L 171.285172 376.248853 
L 171.404403 376.371929 
L 171.525571 376.493097 
L 171.648647 376.612328 
L 171.773598 376.72959 
L 171.900395 376.844856 
L 172.029004 376.958095 
L 172.159394 377.06928 
L 172.291531 377.178382 
L 172.425383 377.285373 
L 172.560915 377.390228 
L 172.698094 377.492919 
L 172.836885 377.59342 
L 172.977253 377.691707 
L 173.119163 377.787754 
L 173.262579 377.881538 
L 173.407465 377.973035 
L 173.553784 378.062221 
L 173.7015 378.149074 
L 173.850575 378.233573 
L 174.000972 378.315696 
L 174.152654 378.395423 
L 174.305581 378.472733 
L 174.459715 378.547607 
L 174.615018 378.620026 
L 174.77145 378.689971 
L 174.928973 378.757426 
L 175.087545 378.822374 
L 175.247129 378.884797 
L 175.407682 378.94468 
L 175.569166 379.002009 
L 175.731539 379.056768 
L 175.89476 379.108944 
L 176.058788 379.158524 
L 176.223583 379.205495 
L 176.389102 379.249846 
L 176.555303 379.291565 
L 176.722146 379.330642 
L 176.889588 379.367066 
L 177.057587 379.40083 
L 177.2261 379.431924 
L 177.395085 379.46034 
L 177.5645 379.486072 
L 177.734302 379.509112 
L 177.904447 379.529455 
L 178.074895 379.547097 
L 178.2456 379.562032 
L 178.416522 379.574256 
L 178.587615 379.583767 
L 178.758838 379.590563 
L 178.930148 379.594641 
L 179.1015 379.596 
L 255.2175 379.596 
z
" clip-path="url(#pd13c40c593)" style="fill: none; stroke-dasharray: 1.85,0.8; stroke-dashoffset: 0; stroke: #008000; stroke-width: 0.5; stroke-linecap: round"/>
   </g>
   <g id="patch_4">
    <path d="M 174.1575 354.516 
L 174.328852 354.514641 
L 174.500162 354.510563 
L 174.671385 354.503767 
L 174.842478 354.494256 
L 175.0134 354.482032 
L 175.184105 354.467097 
L 175.354553 354.449455 
L 175.524698 354.429112 
L 175.6945 354.406072 
L 175.863915 354.38034 
L 176.0329 354.351924 
L 176.201413 354.32083 
L 176.369412 354.287066 
L 176.536854 354.250642 
L 176.703697 354.211565 
L 176.869898 354.169846 
L 177.035417 354.125495 
L 177.200212 354.078524 
L 177.36424 354.028944 
L 177.527461 353.976768 
L 177.689834 353.922009 
L 177.851318 353.86468 
L 178.011871 353.804797 
L 178.171455 353.742374 
L 178.330027 353.677426 
L 178.48755 353.609971 
L 178.643982 353.540026 
L 178.799285 353.467607 
L 178.953419 353.392733 
L 179.106346 353.315423 
L 179.258028 353.235696 
L 179.408425 353.153573 
L 179.5575 353.069074 
L 179.705216 352.982221 
L 179.851535 352.893035 
L 179.996421 352.801538 
L 180.139837 352.707754 
L 180.281747 352.611707 
L 180.422115 352.51342 
L 180.560906 352.412919 
L 180.698085 352.310228 
L 180.833617 352.205373 
L 180.967469 352.098382 
L 181.099606 351.98928 
L 181.229996 351.878095 
L 181.358605 351.764856 
L 181.485402 351.64959 
L 181.610353 351.532328 
L 181.733429 351.413097 
L 181.854597 351.291929 
L 181.973828 351.168853 
L 182.09109 351.043902 
L 182.206356 350.917105 
L 182.319595 350.788496 
L 182.43078 350.658106 
L 182.539882 350.525969 
L 182.646873 350.392117 
L 182.751728 350.256585 
L 182.854419 350.119406 
L 182.95492 349.980615 
L 183.053207 349.840247 
L 183.149254 349.698337 
L 183.243038 349.554921 
L 183.334535 349.410035 
L 183.423721 349.263716 
L 183.510574 349.116 
L 183.595073 348.966925 
L 183.677196 348.816528 
L 183.756923 348.664846 
L 183.834233 348.511919 
L 183.909107 348.357785 
L 183.981526 348.202482 
L 184.051471 348.04605 
L 184.118926 347.888527 
L 184.183874 347.729955 
L 184.246297 347.570371 
L 184.30618 347.409818 
L 184.363509 347.248334 
L 184.418268 347.085961 
L 184.470444 346.92274 
L 184.520024 346.758712 
L 184.566995 346.593917 
L 184.611346 346.428398 
L 184.653065 346.262197 
L 184.692142 346.095354 
L 184.728566 345.927912 
L 184.76233 345.759913 
L 184.793424 345.5914 
L 184.82184 345.422415 
L 184.847572 345.253 
L 184.870612 345.083198 
L 184.890955 344.913053 
L 184.908597 344.742605 
L 184.923532 344.5719 
L 184.935756 344.400978 
L 184.945267 344.229885 
L 184.952063 344.058662 
L 184.956141 343.887352 
L 184.9575 343.716 
L 184.9575 192.516 
L 184.956141 192.344648 
L 184.952063 192.173338 
L 184.945267 192.002115 
L 184.935756 191.831022 
L 184.923532 191.6601 
L 184.908597 191.489395 
L 184.890955 191.318947 
L 184.870612 191.148802 
L 184.847572 190.979 
L 184.82184 190.809585 
L 184.793424 190.6406 
L 184.76233 190.472087 
L 184.728566 190.304088 
L 184.692142 190.136646 
L 184.653065 189.969803 
L 184.611346 189.803602 
L 184.566995 189.638083 
L 184.520024 189.473288 
L 184.470444 189.30926 
L 184.418268 189.146039 
L 184.363509 188.983666 
L 184.30618 188.822182 
L 184.246297 188.661629 
L 184.183874 188.502045 
L 184.118926 188.343473 
L 184.051471 188.18595 
L 183.981526 188.029518 
L 183.909107 187.874215 
L 183.834233 187.720081 
L 183.756923 187.567154 
L 183.677196 187.415472 
L 183.595073 187.265075 
L 183.510574 187.116 
L 183.423721 186.968284 
L 183.334535 186.821965 
L 183.243038 186.677079 
L 183.149254 186.533663 
L 183.053207 186.391753 
L 182.95492 186.251385 
L 182.854419 186.112594 
L 182.751728 185.975415 
L 182.646873 185.839883 
L 182.539882 185.706031 
L 182.43078 185.573894 
L 182.319595 185.443504 
L 182.206356 185.314895 
L 182.09109 185.188098 
L 181.973828 185.063147 
L 181.854597 184.940071 
L 181.733429 184.818903 
L 181.610353 184.699672 
L 181.485402 184.58241 
L 181.358605 184.467144 
L 181.229996 184.353905 
L 181.099606 184.24272 
L 180.967469 184.133618 
L 180.833617 184.026627 
L 180.698085 183.921772 
L 180.560906 183.819081 
L 180.422115 183.71858 
L 180.281747 183.620293 
L 180.139837 183.524246 
L 179.996421 183.430462 
L 179.851535 183.338965 
L 179.705216 183.249779 
L 179.5575 183.162926 
L 179.408425 183.078427 
L 179.258028 182.996304 
L 179.106346 182.916577 
L 178.953419 182.839267 
L 178.799285 182.764393 
L 178.643982 182.691974 
L 178.48755 182.622029 
L 178.330027 182.554574 
L 178.171455 182.489626 
L 178.011871 182.427203 
L 177.851318 182.36732 
L 177.689834 182.309991 
L 177.527461 182.255232 
L 177.36424 182.203056 
L 177.200212 182.153476 
L 177.035417 182.106505 
L 176.869898 182.062154 
L 176.703697 182.020435 
L 176.536854 181.981358 
L 176.369412 181.944934 
L 176.201413 181.91117 
L 176.0329 181.880076 
L 175.863915 181.85166 
L 175.6945 181.825928 
L 175.524698 181.802888 
L 175.354553 181.782545 
L 175.184105 181.764903 
L 175.0134 181.749968 
L 174.842478 181.737744 
L 174.671385 181.728233 
L 174.500162 181.721437 
L 174.328852 181.717359 
L 174.1575 181.716 
L 106.8615 181.716 
L 106.690148 181.717359 
L 106.518838 181.721437 
L 106.347615 181.728233 
L 106.176522 181.737744 
L 106.0056 181.749968 
L 105.834895 181.764903 
L 105.664447 181.782545 
L 105.494302 181.802888 
L 105.3245 181.825928 
L 105.155085 181.85166 
L 104.9861 181.880076 
L 104.817587 181.91117 
L 104.649588 181.944934 
L 104.482146 181.981358 
L 104.315303 182.020435 
L 104.149102 182.062154 
L 103.983583 182.106505 
L 103.818788 182.153476 
L 103.65476 182.203056 
L 103.491539 182.255232 
L 103.329166 182.309991 
L 103.167682 182.36732 
L 103.007129 182.427203 
L 102.847545 182.489626 
L 102.688973 182.554574 
L 102.53145 182.622029 
L 102.375018 182.691974 
L 102.219715 182.764393 
L 102.065581 182.839267 
L 101.912654 182.916577 
L 101.760972 182.996304 
L 101.610575 183.078427 
L 101.4615 183.162926 
L 101.313784 183.249779 
L 101.167465 183.338965 
L 101.022579 183.430462 
L 100.879163 183.524246 
L 100.737253 183.620293 
L 100.596885 183.71858 
L 100.458094 183.819081 
L 100.320915 183.921772 
L 100.185383 184.026627 
L 100.051531 184.133618 
L 99.919394 184.24272 
L 99.789004 184.353905 
L 99.660395 184.467144 
L 99.533598 184.58241 
L 99.408647 184.699672 
L 99.285571 184.818903 
L 99.164403 184.940071 
L 99.045172 185.063147 
L 98.92791 185.188098 
L 98.812644 185.314895 
L 98.699405 185.443504 
L 98.58822 185.573894 
L 98.479118 185.706031 
L 98.372127 185.839883 
L 98.267272 185.975415 
L 98.164581 186.112594 
L 98.06408 186.251385 
L 97.965793 186.391753 
L 97.869746 186.533663 
L 97.775962 186.677079 
L 97.684465 186.821965 
L 97.595279 186.968284 
L 97.508426 187.116 
L 97.423927 187.265075 
L 97.341804 187.415472 
L 97.262077 187.567154 
L 97.184767 187.720081 
L 97.109893 187.874215 
L 97.037474 188.029518 
L 96.967529 188.18595 
L 96.900074 188.343473 
L 96.835126 188.502045 
L 96.772703 188.661629 
L 96.71282 188.822182 
L 96.655491 188.983666 
L 96.600732 189.146039 
L 96.548556 189.30926 
L 96.498976 189.473288 
L 96.452005 189.638083 
L 96.407654 189.803602 
L 96.365935 189.969803 
L 96.326858 190.136646 
L 96.290434 190.304088 
L 96.25667 190.472087 
L 96.225576 190.6406 
L 96.19716 190.809585 
L 96.171428 190.979 
L 96.148388 191.148802 
L 96.128045 191.318947 
L 96.110403 191.489395 
L 96.095468 191.6601 
L 96.083244 191.831022 
L 96.073733 192.002115 
L 96.066937 192.173338 
L 96.062859 192.344648 
L 96.0615 192.516 
L 96.0615 343.716 
L 96.062859 343.887352 
L 96.066937 344.058662 
L 96.073733 344.229885 
L 96.083244 344.400978 
L 96.095468 344.5719 
L 96.110403 344.742605 
L 96.128045 344.913053 
L 96.148388 345.083198 
L 96.171428 345.253 
L 96.19716 345.422415 
L 96.225576 345.5914 
L 96.25667 345.759913 
L 96.290434 345.927912 
L 96.326858 346.095354 
L 96.365935 346.262197 
L 96.407654 346.428398 
L 96.452005 346.593917 
L 96.498976 346.758712 
L 96.548556 346.92274 
L 96.600732 347.085961 
L 96.655491 347.248334 
L 96.71282 347.409818 
L 96.772703 347.570371 
L 96.835126 347.729955 
L 96.900074 347.888527 
L 96.967529 348.04605 
L 97.037474 348.202482 
L 97.109893 348.357785 
L 97.184767 348.511919 
L 97.262077 348.664846 
L 97.341804 348.816528 
L 97.423927 348.966925 
L 97.508426 349.116 
L 97.595279 349.263716 
L 97.684465 349.410035 
L 97.775962 349.554921 
L 97.869746 349.698337 
L 97.965793 349.840247 
L 98.06408 349.980615 
L 98.164581 350.119406 
L 98.267272 350.256585 
L 98.372127 350.392117 
L 98.479118 350.525969 
L 98.58822 350.658106 
L 98.699405 350.788496 
L 98.812644 350.917105 
L 98.92791 351.043902 
L 99.045172 351.168853 
L 99.164403 351.291929 
L 99.285571 351.413097 
L 99.408647 351.532328 
L 99.533598 351.64959 
L 99.660395 351.764856 
L 99.789004 351.878095 
L 99.919394 351.98928 
L 100.051531 352.098382 
L 100.185383 352.205373 
L 100.320915 352.310228 
L 100.458094 352.412919 
L 100.596885 352.51342 
L 100.737253 352.611707 
L 100.879163 352.707754 
L 101.022579 352.801538 
L 101.167465 352.893035 
L 101.313784 352.982221 
L 101.4615 353.069074 
L 101.610575 353.153573 
L 101.760972 353.235696 
L 101.912654 353.315423 
L 102.065581 353.392733 
L 102.219715 353.467607 
L 102.375018 353.540026 
L 102.53145 353.609971 
L 102.688973 353.677426 
L 102.847545 353.742374 
L 103.007129 353.804797 
L 103.167682 353.86468 
L 103.329166 353.922009 
L 103.491539 353.976768 
L 103.65476 354.028944 
L 103.818788 354.078524 
L 103.983583 354.125495 
L 104.149102 354.169846 
L 104.315303 354.211565 
L 104.482146 354.250642 
L 104.649588 354.287066 
L 104.817587 354.32083 
L 104.9861 354.351924 
L 105.155085 354.38034 
L 105.3245 354.406072 
L 105.494302 354.429112 
L 105.664447 354.449455 
L 105.834895 354.467097 
L 106.0056 354.482032 
L 106.176522 354.494256 
L 106.347615 354.503767 
L 106.518838 354.510563 
L 106.690148 354.514641 
L 106.8615 354.516 
L 174.1575 354.516 
z
" clip-path="url(#pd13c40c593)" style="fill: none; stroke-dasharray: 1.85,0.8; stroke-dashoffset: 0; stroke: #ff0000; stroke-width: 0.5; stroke-linecap: round"/>
   </g>
   <g id="patch_5">
    <path d="M 156.0975 174.516 
L 156.268852 174.514641 
L 156.440162 174.510563 
L 156.611385 174.503767 
L 156.782478 174.494256 
L 156.9534 174.482032 
L 157.124105 174.467097 
L 157.294553 174.449455 
L 157.464698 174.429112 
L 157.6345 174.406072 
L 157.803915 174.38034 
L 157.9729 174.351924 
L 158.141413 174.32083 
L 158.309412 174.287066 
L 158.476854 174.250642 
L 158.643697 174.211565 
L 158.809898 174.169846 
L 158.975417 174.125495 
L 159.140212 174.078524 
L 159.30424 174.028944 
L 159.467461 173.976768 
L 159.629834 173.922009 
L 159.791318 173.86468 
L 159.951871 173.804797 
L 160.111455 173.742374 
L 160.270027 173.677426 
L 160.42755 173.609971 
L 160.583982 173.540026 
L 160.739285 173.467607 
L 160.893419 173.392733 
L 161.046346 173.315423 
L 161.198028 173.235696 
L 161.348425 173.153573 
L 161.4975 173.069074 
L 161.645216 172.982221 
L 161.791535 172.893035 
L 161.936421 172.801538 
L 162.079837 172.707754 
L 162.221747 172.611707 
L 162.362115 172.51342 
L 162.500906 172.412919 
L 162.638085 172.310228 
L 162.773617 172.205373 
L 162.907469 172.098382 
L 163.039606 171.98928 
L 163.169996 171.878095 
L 163.298605 171.764856 
L 163.425402 171.64959 
L 163.550353 171.532328 
L 163.673429 171.413097 
L 163.794597 171.291929 
L 163.913828 171.168853 
L 164.03109 171.043902 
L 164.146356 170.917105 
L 164.259595 170.788496 
L 164.37078 170.658106 
L 164.479882 170.525969 
L 164.586873 170.392117 
L 164.691728 170.256585 
L 164.794419 170.119406 
L 164.89492 169.980615 
L 164.993207 169.840247 
L 165.089254 169.698337 
L 165.183038 169.554921 
L 165.274535 169.410035 
L 165.363721 169.263716 
L 165.450574 169.116 
L 165.535073 168.966925 
L 165.617196 168.816528 
L 165.696923 168.664846 
L 165.774233 168.511919 
L 165.849107 168.357785 
L 165.921526 168.202482 
L 165.991471 168.04605 
L 166.058926 167.888527 
L 166.123874 167.729955 
L 166.186297 167.570371 
L 166.24618 167.409818 
L 166.303509 167.248334 
L 166.358268 167.085961 
L 166.410444 166.92274 
L 166.460024 166.758712 
L 166.506995 166.593917 
L 166.551346 166.428398 
L 166.593065 166.262197 
L 166.632142 166.095354 
L 166.668566 165.927912 
L 166.70233 165.759913 
L 166.733424 165.5914 
L 166.76184 165.422415 
L 166.787572 165.253 
L 166.810612 165.083198 
L 166.830955 164.913053 
L 166.848597 164.742605 
L 166.863532 164.5719 
L 166.875756 164.400978 
L 166.885267 164.229885 
L 166.892063 164.058662 
L 166.896141 163.887352 
L 166.8975 163.716 
L 166.8975 52.356 
L 166.896141 52.184648 
L 166.892063 52.013338 
L 166.885267 51.842115 
L 166.875756 51.671022 
L 166.863532 51.5001 
L 166.848597 51.329395 
L 166.830955 51.158947 
L 166.810612 50.988802 
L 166.787572 50.819 
L 166.76184 50.649585 
L 166.733424 50.4806 
L 166.70233 50.312087 
L 166.668566 50.144088 
L 166.632142 49.976646 
L 166.593065 49.809803 
L 166.551346 49.643602 
L 166.506995 49.478083 
L 166.460024 49.313288 
L 166.410444 49.14926 
L 166.358268 48.986039 
L 166.303509 48.823666 
L 166.24618 48.662182 
L 166.186297 48.501629 
L 166.123874 48.342045 
L 166.058926 48.183473 
L 165.991471 48.02595 
L 165.921526 47.869518 
L 165.849107 47.714215 
L 165.774233 47.560081 
L 165.696923 47.407154 
L 165.617196 47.255472 
L 165.535073 47.105075 
L 165.450574 46.956 
L 165.363721 46.808284 
L 165.274535 46.661965 
L 165.183038 46.517079 
L 165.089254 46.373663 
L 164.993207 46.231753 
L 164.89492 46.091385 
L 164.794419 45.952594 
L 164.691728 45.815415 
L 164.586873 45.679883 
L 164.479882 45.546031 
L 164.37078 45.413894 
L 164.259595 45.283504 
L 164.146356 45.154895 
L 164.03109 45.028098 
L 163.913828 44.903147 
L 163.794597 44.780071 
L 163.673429 44.658903 
L 163.550353 44.539672 
L 163.425402 44.42241 
L 163.298605 44.307144 
L 163.169996 44.193905 
L 163.039606 44.08272 
L 162.907469 43.973618 
L 162.773617 43.866627 
L 162.638085 43.761772 
L 162.500906 43.659081 
L 162.362115 43.55858 
L 162.221747 43.460293 
L 162.079837 43.364246 
L 161.936421 43.270462 
L 161.791535 43.178965 
L 161.645216 43.089779 
L 161.4975 43.002926 
L 161.348425 42.918427 
L 161.198028 42.836304 
L 161.046346 42.756577 
L 160.893419 42.679267 
L 160.739285 42.604393 
L 160.583982 42.531974 
L 160.42755 42.462029 
L 160.270027 42.394574 
L 160.111455 42.329626 
L 159.951871 42.267203 
L 159.791318 42.20732 
L 159.629834 42.149991 
L 159.467461 42.095232 
L 159.30424 42.043056 
L 159.140212 41.993476 
L 158.975417 41.946505 
L 158.809898 41.902154 
L 158.643697 41.860435 
L 158.476854 41.821358 
L 158.309412 41.784934 
L 158.141413 41.75117 
L 157.9729 41.720076 
L 157.803915 41.69166 
L 157.6345 41.665928 
L 157.464698 41.642888 
L 157.294553 41.622545 
L 157.124105 41.604903 
L 156.9534 41.589968 
L 156.782478 41.577744 
L 156.611385 41.568233 
L 156.440162 41.561437 
L 156.268852 41.557359 
L 156.0975 41.556 
L 42.0615 41.556 
L 41.890148 41.557359 
L 41.718838 41.561437 
L 41.547615 41.568233 
L 41.376522 41.577744 
L 41.2056 41.589968 
L 41.034895 41.604903 
L 40.864447 41.622545 
L 40.694302 41.642888 
L 40.5245 41.665928 
L 40.355085 41.69166 
L 40.1861 41.720076 
L 40.017587 41.75117 
L 39.849588 41.784934 
L 39.682146 41.821358 
L 39.515303 41.860435 
L 39.349102 41.902154 
L 39.183583 41.946505 
L 39.018788 41.993476 
L 38.85476 42.043056 
L 38.691539 42.095232 
L 38.529166 42.149991 
L 38.367682 42.20732 
L 38.207129 42.267203 
L 38.047545 42.329626 
L 37.888973 42.394574 
L 37.73145 42.462029 
L 37.575018 42.531974 
L 37.419715 42.604393 
L 37.265581 42.679267 
L 37.112654 42.756577 
L 36.960972 42.836304 
L 36.810575 42.918427 
L 36.6615 43.002926 
L 36.513784 43.089779 
L 36.367465 43.178965 
L 36.222579 43.270462 
L 36.079163 43.364246 
L 35.937253 43.460293 
L 35.796885 43.55858 
L 35.658094 43.659081 
L 35.520915 43.761772 
L 35.385383 43.866627 
L 35.251531 43.973618 
L 35.119394 44.08272 
L 34.989004 44.193905 
L 34.860395 44.307144 
L 34.733598 44.42241 
L 34.608647 44.539672 
L 34.485571 44.658903 
L 34.364403 44.780071 
L 34.245172 44.903147 
L 34.12791 45.028098 
L 34.012644 45.154895 
L 33.899405 45.283504 
L 33.78822 45.413894 
L 33.679118 45.546031 
L 33.572127 45.679883 
L 33.467272 45.815415 
L 33.364581 45.952594 
L 33.26408 46.091385 
L 33.165793 46.231753 
L 33.069746 46.373663 
L 32.975962 46.517079 
L 32.884465 46.661965 
L 32.795279 46.808284 
L 32.708426 46.956 
L 32.623927 47.105075 
L 32.541804 47.255472 
L 32.462077 47.407154 
L 32.384767 47.560081 
L 32.309893 47.714215 
L 32.237474 47.869518 
L 32.167529 48.02595 
L 32.100074 48.183473 
L 32.035126 48.342045 
L 31.972703 48.501629 
L 31.91282 48.662182 
L 31.855491 48.823666 
L 31.800732 48.986039 
L 31.748556 49.14926 
L 31.698976 49.313288 
L 31.652005 49.478083 
L 31.607654 49.643602 
L 31.565935 49.809803 
L 31.526858 49.976646 
L 31.490434 50.144088 
L 31.45667 50.312087 
L 31.425576 50.4806 
L 31.39716 50.649585 
L 31.371428 50.819 
L 31.348388 50.988802 
L 31.328045 51.158947 
L 31.310403 51.329395 
L 31.295468 51.5001 
L 31.283244 51.671022 
L 31.273733 51.842115 
L 31.266937 52.013338 
L 31.262859 52.184648 
L 31.2615 52.356 
L 31.2615 163.716 
L 31.262859 163.887352 
L 31.266937 164.058662 
L 31.273733 164.229885 
L 31.283244 164.400978 
L 31.295468 164.5719 
L 31.310403 164.742605 
L 31.328045 164.913053 
L 31.348388 165.083198 
L 31.371428 165.253 
L 31.39716 165.422415 
L 31.425576 165.5914 
L 31.45667 165.759913 
L 31.490434 165.927912 
L 31.526858 166.095354 
L 31.565935 166.262197 
L 31.607654 166.428398 
L 31.652005 166.593917 
L 31.698976 166.758712 
L 31.748556 166.92274 
L 31.800732 167.085961 
L 31.855491 167.248334 
L 31.91282 167.409818 
L 31.972703 167.570371 
L 32.035126 167.729955 
L 32.100074 167.888527 
L 32.167529 168.04605 
L 32.237474 168.202482 
L 32.309893 168.357785 
L 32.384767 168.511919 
L 32.462077 168.664846 
L 32.541804 168.816528 
L 32.623927 168.966925 
L 32.708426 169.116 
L 32.795279 169.263716 
L 32.884465 169.410035 
L 32.975962 169.554921 
L 33.069746 169.698337 
L 33.165793 169.840247 
L 33.26408 169.980615 
L 33.364581 170.119406 
L 33.467272 170.256585 
L 33.572127 170.392117 
L 33.679118 170.525969 
L 33.78822 170.658106 
L 33.899405 170.788496 
L 34.012644 170.917105 
L 34.12791 171.043902 
L 34.245172 171.168853 
L 34.364403 171.291929 
L 34.485571 171.413097 
L 34.608647 171.532328 
L 34.733598 171.64959 
L 34.860395 171.764856 
L 34.989004 171.878095 
L 35.119394 171.98928 
L 35.251531 172.098382 
L 35.385383 172.205373 
L 35.520915 172.310228 
L 35.658094 172.412919 
L 35.796885 172.51342 
L 35.937253 172.611707 
L 36.079163 172.707754 
L 36.222579 172.801538 
L 36.367465 172.893035 
L 36.513784 172.982221 
L 36.6615 173.069074 
L 36.810575 173.153573 
L 36.960972 173.235696 
L 37.112654 173.315423 
L 37.265581 173.392733 
L 37.419715 173.467607 
L 37.575018 173.540026 
L 37.73145 173.609971 
L 37.888973 173.677426 
L 38.047545 173.742374 
L 38.207129 173.804797 
L 38.367682 173.86468 
L 38.529166 173.922009 
L 38.691539 173.976768 
L 38.85476 174.028944 
L 39.018788 174.078524 
L 39.183583 174.125495 
L 39.349102 174.169846 
L 39.515303 174.211565 
L 39.682146 174.250642 
L 39.849588 174.287066 
L 40.017587 174.32083 
L 40.1861 174.351924 
L 40.355085 174.38034 
L 40.5245 174.406072 
L 40.694302 174.429112 
L 40.864447 174.449455 
L 41.034895 174.467097 
L 41.2056 174.482032 
L 41.376522 174.494256 
L 41.547615 174.503767 
L 41.718838 174.510563 
L 41.890148 174.514641 
L 42.0615 174.516 
L 156.0975 174.516 
z
" clip-path="url(#pd13c40c593)" style="fill: none; stroke-dasharray: 1.85,0.8; stroke-dashoffset: 0; stroke: #a52a2a; stroke-width: 0.5; stroke-linecap: round"/>
   </g>
   <g id="patch_6">
    <path d="M 147.0975 405.276 
L 147.268852 405.274641 
L 147.440162 405.270563 
L 147.611385 405.263767 
L 147.782478 405.254256 
L 147.9534 405.242032 
L 148.124105 405.227097 
L 148.294553 405.209455 
L 148.464698 405.189112 
L 148.6345 405.166072 
L 148.803915 405.14034 
L 148.9729 405.111924 
L 149.141413 405.08083 
L 149.309412 405.047066 
L 149.476854 405.010642 
L 149.643697 404.971565 
L 149.809898 404.929846 
L 149.975417 404.885495 
L 150.140212 404.838524 
L 150.30424 404.788944 
L 150.467461 404.736768 
L 150.629834 404.682009 
L 150.791318 404.62468 
L 150.951871 404.564797 
L 151.111455 404.502374 
L 151.270027 404.437426 
L 151.42755 404.369971 
L 151.583982 404.300026 
L 151.739285 404.227607 
L 151.893419 404.152733 
L 152.046346 404.075423 
L 152.198028 403.995696 
L 152.348425 403.913573 
L 152.4975 403.829074 
L 152.645216 403.742221 
L 152.791535 403.653035 
L 152.936421 403.561538 
L 153.079837 403.467754 
L 153.221747 403.371707 
L 153.362115 403.27342 
L 153.500906 403.172919 
L 153.638085 403.070228 
L 153.773617 402.965373 
L 153.907469 402.858382 
L 154.039606 402.74928 
L 154.169996 402.638095 
L 154.298605 402.524856 
L 154.425402 402.40959 
L 154.550353 402.292328 
L 154.673429 402.173097 
L 154.794597 402.051929 
L 154.913828 401.928853 
L 155.03109 401.803902 
L 155.146356 401.677105 
L 155.259595 401.548496 
L 155.37078 401.418106 
L 155.479882 401.285969 
L 155.586873 401.152117 
L 155.691728 401.016585 
L 155.794419 400.879406 
L 155.89492 400.740615 
L 155.993207 400.600247 
L 156.089254 400.458337 
L 156.183038 400.314921 
L 156.274535 400.170035 
L 156.363721 400.023716 
L 156.450574 399.876 
L 156.535073 399.726925 
L 156.617196 399.576528 
L 156.696923 399.424846 
L 156.774233 399.271919 
L 156.849107 399.117785 
L 156.921526 398.962482 
L 156.991471 398.80605 
L 157.058926 398.648527 
L 157.123874 398.489955 
L 157.186297 398.330371 
L 157.24618 398.169818 
L 157.303509 398.008334 
L 157.358268 397.845961 
L 157.410444 397.68274 
L 157.460024 397.518712 
L 157.506995 397.353917 
L 157.551346 397.188398 
L 157.593065 397.022197 
L 157.632142 396.855354 
L 157.668566 396.687912 
L 157.70233 396.519913 
L 157.733424 396.3514 
L 157.76184 396.182415 
L 157.787572 396.013 
L 157.810612 395.843198 
L 157.830955 395.673053 
L 157.848597 395.502605 
L 157.863532 395.3319 
L 157.875756 395.160978 
L 157.885267 394.989885 
L 157.892063 394.818662 
L 157.896141 394.647352 
L 157.8975 394.476 
L 157.8975 372.516 
L 157.896141 372.344648 
L 157.892063 372.173338 
L 157.885267 372.002115 
L 157.875756 371.831022 
L 157.863532 371.6601 
L 157.848597 371.489395 
L 157.830955 371.318947 
L 157.810612 371.148802 
L 157.787572 370.979 
L 157.76184 370.809585 
L 157.733424 370.6406 
L 157.70233 370.472087 
L 157.668566 370.304088 
L 157.632142 370.136646 
L 157.593065 369.969803 
L 157.551346 369.803602 
L 157.506995 369.638083 
L 157.460024 369.473288 
L 157.410444 369.30926 
L 157.358268 369.146039 
L 157.303509 368.983666 
L 157.24618 368.822182 
L 157.186297 368.661629 
L 157.123874 368.502045 
L 157.058926 368.343473 
L 156.991471 368.18595 
L 156.921526 368.029518 
L 156.849107 367.874215 
L 156.774233 367.720081 
L 156.696923 367.567154 
L 156.617196 367.415472 
L 156.535073 367.265075 
L 156.450574 367.116 
L 156.363721 366.968284 
L 156.274535 366.821965 
L 156.183038 366.677079 
L 156.089254 366.533663 
L 155.993207 366.391753 
L 155.89492 366.251385 
L 155.794419 366.112594 
L 155.691728 365.975415 
L 155.586873 365.839883 
L 155.479882 365.706031 
L 155.37078 365.573894 
L 155.259595 365.443504 
L 155.146356 365.314895 
L 155.03109 365.188098 
L 154.913828 365.063147 
L 154.794597 364.940071 
L 154.673429 364.818903 
L 154.550353 364.699672 
L 154.425402 364.58241 
L 154.298605 364.467144 
L 154.169996 364.353905 
L 154.039606 364.24272 
L 153.907469 364.133618 
L 153.773617 364.026627 
L 153.638085 363.921772 
L 153.500906 363.819081 
L 153.362115 363.71858 
L 153.221747 363.620293 
L 153.079837 363.524246 
L 152.936421 363.430462 
L 152.791535 363.338965 
L 152.645216 363.249779 
L 152.4975 363.162926 
L 152.348425 363.078427 
L 152.198028 362.996304 
L 152.046346 362.916577 
L 151.893419 362.839267 
L 151.739285 362.764393 
L 151.583982 362.691974 
L 151.42755 362.622029 
L 151.270027 362.554574 
L 151.111455 362.489626 
L 150.951871 362.427203 
L 150.791318 362.36732 
L 150.629834 362.309991 
L 150.467461 362.255232 
L 150.30424 362.203056 
L 150.140212 362.153476 
L 149.975417 362.106505 
L 149.809898 362.062154 
L 149.643697 362.020435 
L 149.476854 361.981358 
L 149.309412 361.944934 
L 149.141413 361.91117 
L 148.9729 361.880076 
L 148.803915 361.85166 
L 148.6345 361.825928 
L 148.464698 361.802888 
L 148.294553 361.782545 
L 148.124105 361.764903 
L 147.9534 361.749968 
L 147.782478 361.737744 
L 147.611385 361.728233 
L 147.440162 361.721437 
L 147.268852 361.717359 
L 147.0975 361.716 
L 127.2375 361.716 
L 127.066148 361.717359 
L 126.894838 361.721437 
L 126.723615 361.728233 
L 126.552522 361.737744 
L 126.3816 361.749968 
L 126.210895 361.764903 
L 126.040447 361.782545 
L 125.870302 361.802888 
L 125.7005 361.825928 
L 125.531085 361.85166 
L 125.3621 361.880076 
L 125.193587 361.91117 
L 125.025588 361.944934 
L 124.858146 361.981358 
L 124.691303 362.020435 
L 124.525102 362.062154 
L 124.359583 362.106505 
L 124.194788 362.153476 
L 124.03076 362.203056 
L 123.867539 362.255232 
L 123.705166 362.309991 
L 123.543682 362.36732 
L 123.383129 362.427203 
L 123.223545 362.489626 
L 123.064973 362.554574 
L 122.90745 362.622029 
L 122.751018 362.691974 
L 122.595715 362.764393 
L 122.441581 362.839267 
L 122.288654 362.916577 
L 122.136972 362.996304 
L 121.986575 363.078427 
L 121.8375 363.162926 
L 121.689784 363.249779 
L 121.543465 363.338965 
L 121.398579 363.430462 
L 121.255163 363.524246 
L 121.113253 363.620293 
L 120.972885 363.71858 
L 120.834094 363.819081 
L 120.696915 363.921772 
L 120.561383 364.026627 
L 120.427531 364.133618 
L 120.295394 364.24272 
L 120.165004 364.353905 
L 120.036395 364.467144 
L 119.909598 364.58241 
L 119.784647 364.699672 
L 119.661571 364.818903 
L 119.540403 364.940071 
L 119.421172 365.063147 
L 119.30391 365.188098 
L 119.188644 365.314895 
L 119.075405 365.443504 
L 118.96422 365.573894 
L 118.855118 365.706031 
L 118.748127 365.839883 
L 118.643272 365.975415 
L 118.540581 366.112594 
L 118.44008 366.251385 
L 118.341793 366.391753 
L 118.245746 366.533663 
L 118.151962 366.677079 
L 118.060465 366.821965 
L 117.971279 366.968284 
L 117.884426 367.116 
L 117.799927 367.265075 
L 117.717804 367.415472 
L 117.638077 367.567154 
L 117.560767 367.720081 
L 117.485893 367.874215 
L 117.413474 368.029518 
L 117.343529 368.18595 
L 117.276074 368.343473 
L 117.211126 368.502045 
L 117.148703 368.661629 
L 117.08882 368.822182 
L 117.031491 368.983666 
L 116.976732 369.146039 
L 116.924556 369.30926 
L 116.874976 369.473288 
L 116.828005 369.638083 
L 116.783654 369.803602 
L 116.741935 369.969803 
L 116.702858 370.136646 
L 116.666434 370.304088 
L 116.63267 370.472087 
L 116.601576 370.6406 
L 116.57316 370.809585 
L 116.547428 370.979 
L 116.524388 371.148802 
L 116.504045 371.318947 
L 116.486403 371.489395 
L 116.471468 371.6601 
L 116.459244 371.831022 
L 116.449733 372.002115 
L 116.442937 372.173338 
L 116.438859 372.344648 
L 116.4375 372.516 
L 116.4375 394.476 
L 116.438859 394.647352 
L 116.442937 394.818662 
L 116.449733 394.989885 
L 116.459244 395.160978 
L 116.471468 395.3319 
L 116.486403 395.502605 
L 116.504045 395.673053 
L 116.524388 395.843198 
L 116.547428 396.013 
L 116.57316 396.182415 
L 116.601576 396.3514 
L 116.63267 396.519913 
L 116.666434 396.687912 
L 116.702858 396.855354 
L 116.741935 397.022197 
L 116.783654 397.188398 
L 116.828005 397.353917 
L 116.874976 397.518712 
L 116.924556 397.68274 
L 116.976732 397.845961 
L 117.031491 398.008334 
L 117.08882 398.169818 
L 117.148703 398.330371 
L 117.211126 398.489955 
L 117.276074 398.648527 
L 117.343529 398.80605 
L 117.413474 398.962482 
L 117.485893 399.117785 
L 117.560767 399.271919 
L 117.638077 399.424846 
L 117.717804 399.576528 
L 117.799927 399.726925 
L 117.884426 399.876 
L 117.971279 400.023716 
L 118.060465 400.170035 
L 118.151962 400.314921 
L 118.245746 400.458337 
L 118.341793 400.600247 
L 118.44008 400.740615 
L 118.540581 400.879406 
L 118.643272 401.016585 
L 118.748127 401.152117 
L 118.855118 401.285969 
L 118.96422 401.418106 
L 119.075405 401.548496 
L 119.188644 401.677105 
L 119.30391 401.803902 
L 119.421172 401.928853 
L 119.540403 402.051929 
L 119.661571 402.173097 
L 119.784647 402.292328 
L 119.909598 402.40959 
L 120.036395 402.524856 
L 120.165004 402.638095 
L 120.295394 402.74928 
L 120.427531 402.858382 
L 120.561383 402.965373 
L 120.696915 403.070228 
L 120.834094 403.172919 
L 120.972885 403.27342 
L 121.113253 403.371707 
L 121.255163 403.467754 
L 121.398579 403.561538 
L 121.543465 403.653035 
L 121.689784 403.742221 
L 121.8375 403.829074 
L 121.986575 403.913573 
L 122.136972 403.995696 
L 122.288654 404.075423 
L 122.441581 404.152733 
L 122.595715 404.227607 
L 122.751018 404.300026 
L 122.90745 404.369971 
L 123.064973 404.437426 
L 123.223545 404.502374 
L 123.383129 404.564797 
L 123.543682 404.62468 
L 123.705166 404.682009 
L 123.867539 404.736768 
L 124.03076 404.788944 
L 124.194788 404.838524 
L 124.359583 404.885495 
L 124.525102 404.929846 
L 124.691303 404.971565 
L 124.858146 405.010642 
L 125.025588 405.047066 
L 125.193587 405.08083 
L 125.3621 405.111924 
L 125.531085 405.14034 
L 125.7005 405.166072 
L 125.870302 405.189112 
L 126.040447 405.209455 
L 126.210895 405.227097 
L 126.3816 405.242032 
L 126.552522 405.254256 
L 126.723615 405.263767 
L 126.894838 405.270563 
L 127.066148 405.274641 
L 127.2375 405.276 
L 147.0975 405.276 
z
" clip-path="url(#pd13c40c593)" style="fill: none; stroke-dasharray: 1.85,0.8; stroke-dashoffset: 0; stroke: #0000ff; stroke-width: 0.5; stroke-linecap: round"/>
   </g>
   <g id="line2d_1">
    <path d="M 204.6975 178.116 
L 217.8975 178.116 
" clip-path="url(#pd13c40c593)" style="fill: none; stroke: #000000; stroke-width: 2; stroke-linecap: round"/>
   </g>
   <g id="line2d_2">
    <path d="M 217.8975 164.916 
L 217.8975 191.316 
" clip-path="url(#pd13c40c593)" style="fill: none; stroke: #000000; stroke-width: 2; stroke-linecap: round"/>
   </g>
   <g id="line2d_3">
    <path d="M 217.8975 171.516 
L 231.7575 159.636 
L 231.7575 153.036 
" clip-path="url(#pd13c40c593)" style="fill: none; stroke: #000000; stroke-width: 2; stroke-linecap: round"/>
   </g>
   <g id="line2d_4">
    <path d="M 217.8975 184.716 
L 231.7575 196.596 
L 231.7575 203.196 
" clip-path="url(#pd13c40c593)" style="fill: none; stroke: #000000; stroke-width: 2; stroke-linecap: round"/>
   </g>
   <g id="line2d_5">
    <path d="M 217.8975 184.716 
L 224.924191 190.738878 
" clip-path="url(#pd13c40c593)" style="fill: none; stroke: #000000; stroke-width: 2; stroke-linecap: round"/>
   </g>
   <g id="patch_7">
    <path d="M 227.26704 188.005554 
L 231.7575 196.596 
L 222.581342 193.472201 
z
" clip-path="url(#pd13c40c593)"/>
   </g>
   <g id="line2d_6">
    <path d="M 204.6975 178.116 
L 177.6975 178.116 
L 150.6975 178.116 
" clip-path="url(#pd13c40c593)" style="fill: none; stroke: #000000; stroke-width: 2; stroke-linecap: round"/>
   </g>
   <g id="line2d_7">
    <path d="M 150.6975 178.116 
L 150.6975 205.116 
L 159.6975 208.116 
L 141.6975 214.116 
L 159.6975 220.116 
L 141.6975 226.116 
L 159.6975 232.116 
L 141.6975 238.116 
L 150.6975 241.116 
L 150.6975 268.116 
" clip-path="url(#pd13c40c593)" style="fill: none; stroke: #000000; stroke-width: 2; stroke-linecap: round"/>
   </g>
   <g id="line2d_8">
    <path d="M 150.6975 268.116 
L 163.8975 268.116 
" clip-path="url(#pd13c40c593)" style="fill: none; stroke: #000000; stroke-width: 2; stroke-linecap: round"/>
   </g>
   <g id="line2d_9">
    <path d="M 163.8975 254.916 
L 163.8975 281.316 
" clip-path="url(#pd13c40c593)" style="fill: none; stroke: #000000; stroke-width: 2; stroke-linecap: round"/>
   </g>
   <g id="line2d_10">
    <path d="M 163.8975 261.516 
L 177.7575 249.636 
L 177.7575 243.036 
" clip-path="url(#pd13c40c593)" style="fill: none; stroke: #000000; stroke-width: 2; stroke-linecap: round"/>
   </g>
   <g id="line2d_11">
    <path d="M 163.8975 274.716 
L 177.7575 286.596 
L 177.7575 293.196 
" clip-path="url(#pd13c40c593)" style="fill: none; stroke: #000000; stroke-width: 2; stroke-linecap: round"/>
   </g>
   <g id="line2d_12">
    <path d="M 163.8975 274.716 
L 170.924191 280.738878 
" clip-path="url(#pd13c40c593)" style="fill: none; stroke: #000000; stroke-width: 2; stroke-linecap: round"/>
   </g>
   <g id="patch_8">
    <path d="M 173.26704 278.005554 
L 177.7575 286.596 
L 168.581342 283.472201 
z
" clip-path="url(#pd13c40c593)"/>
   </g>
   <g id="line2d_13">
    <path d="M 150.6975 268.116 
L 150.6975 295.116 
L 159.6975 298.116 
L 141.6975 304.116 
L 159.6975 310.116 
L 141.6975 316.116 
L 159.6975 322.116 
L 141.6975 328.116 
L 150.6975 331.116 
L 150.6975 358.116 
" clip-path="url(#pd13c40c593)" style="fill: none; stroke: #000000; stroke-width: 2; stroke-linecap: round"/>
   </g>
   <g id="line2d_14">
    <path d="M 150.6975 358.116 
L 177.6975 358.116 
L 204.6975 358.116 
" clip-path="url(#pd13c40c593)" style="fill: none; stroke: #000000; stroke-width: 2; stroke-linecap: round"/>
   </g>
   <g id="line2d_15">
    <path d="M 204.6975 358.116 
L 217.8975 358.116 
" clip-path="url(#pd13c40c593)" style="fill: none; stroke: #000000; stroke-width: 2; stroke-linecap: round"/>
   </g>
   <g id="line2d_16">
    <path d="M 217.8975 344.916 
L 217.8975 371.316 
" clip-path="url(#pd13c40c593)" style="fill: none; stroke: #000000; stroke-width: 2; stroke-linecap: round"/>
   </g>
   <g id="line2d_17">
    <path d="M 217.8975 351.516 
L 231.7575 339.636 
L 231.7575 333.036 
" clip-path="url(#pd13c40c593)" style="fill: none; stroke: #000000; stroke-width: 2; stroke-linecap: round"/>
   </g>
   <g id="line2d_18">
    <path d="M 217.8975 364.716 
L 231.7575 376.596 
L 231.7575 383.196 
" clip-path="url(#pd13c40c593)" style="fill: none; stroke: #000000; stroke-width: 2; stroke-linecap: round"/>
   </g>
   <g id="line2d_19">
    <path d="M 231.7575 339.636 
L 224.730809 345.658878 
" clip-path="url(#pd13c40c593)" style="fill: none; stroke: #000000; stroke-width: 2; stroke-linecap: round"/>
   </g>
   <g id="patch_9">
    <path d="M 227.073658 348.392201 
L 217.8975 351.516 
L 222.38796 342.925554 
z
" clip-path="url(#pd13c40c593)"/>
   </g>
   <g id="line2d_20">
    <path d="M 177.7575 243.036 
L 177.7575 210.576 
L 177.7575 178.116 
" clip-path="url(#pd13c40c593)" style="fill: none; stroke: #000000; stroke-width: 2; stroke-linecap: round"/>
   </g>
   <g id="line2d_21">
    <path d="M 177.7575 293.196 
L 177.7575 325.656 
L 177.7575 358.116 
" clip-path="url(#pd13c40c593)" style="fill: none; stroke: #000000; stroke-width: 2; stroke-linecap: round"/>
   </g>
   <g id="line2d_22">
    <path d="M 150.6975 178.116 
L 150.6975 160.116 
L 150.6975 142.116 
" clip-path="url(#pd13c40c593)" style="fill: none; stroke: #000000; stroke-width: 2; stroke-linecap: round"/>
   </g>
   <g id="line2d_23">
    <path d="M 123.6375 117.036 
L 136.8375 117.036 
" clip-path="url(#pd13c40c593)" style="fill: none; stroke: #000000; stroke-width: 2; stroke-linecap: round"/>
   </g>
   <g id="line2d_24">
    <path d="M 136.8375 103.836 
L 136.8375 130.236 
" clip-path="url(#pd13c40c593)" style="fill: none; stroke: #000000; stroke-width: 2; stroke-linecap: round"/>
   </g>
   <g id="line2d_25">
    <path d="M 136.8375 110.436 
L 150.6975 98.556 
L 150.6975 91.956 
" clip-path="url(#pd13c40c593)" style="fill: none; stroke: #000000; stroke-width: 2; stroke-linecap: round"/>
   </g>
   <g id="line2d_26">
    <path d="M 136.8375 123.636 
L 150.6975 135.516 
L 150.6975 142.116 
" clip-path="url(#pd13c40c593)" style="fill: none; stroke: #000000; stroke-width: 2; stroke-linecap: round"/>
   </g>
   <g id="line2d_27">
    <path d="M 150.6975 98.556 
L 143.670809 104.578878 
" clip-path="url(#pd13c40c593)" style="fill: none; stroke: #000000; stroke-width: 2; stroke-linecap: round"/>
   </g>
   <g id="patch_10">
    <path d="M 146.013658 107.312201 
L 136.8375 110.436 
L 141.32796 101.845554 
z
" clip-path="url(#pd13c40c593)"/>
   </g>
   <g id="line2d_28">
    <path d="M 150.6975 91.956 
L 150.6975 82.956 
L 141.6975 79.956 
L 159.6975 73.956 
L 141.6975 67.956 
L 159.6975 61.956 
L 141.6975 55.956 
L 159.6975 49.956 
L 150.6975 46.956 
L 150.6975 37.956 
" clip-path="url(#pd13c40c593)" style="fill: none; stroke: #000000; stroke-width: 2; stroke-linecap: round"/>
   </g>
   <g id="line2d_29">
    <path d="M 150.6975 37.956 
L 150.6975 23.556 
" clip-path="url(#pd13c40c593)" style="fill: none; stroke: #000000; stroke-width: 2; stroke-linecap: round"/>
   </g>
   <g id="line2d_30">
    <path d="M 150.6975 23.556 
L 143.9475 23.556 
" clip-path="url(#pd13c40c593)" style="fill: none; stroke: #000000; stroke-width: 2; stroke-linecap: round"/>
   </g>
   <g id="line2d_31">
    <path d="M 150.6975 23.556 
L 157.4475 23.556 
" clip-path="url(#pd13c40c593)" style="fill: none; stroke: #000000; stroke-width: 2; stroke-linecap: round"/>
   </g>
   <g id="line2d_32">
    <path d="M 150.6975 37.956 
L 191.2275 37.956 
L 231.7575 37.956 
" clip-path="url(#pd13c40c593)" style="fill: none; stroke: #000000; stroke-width: 2; stroke-linecap: round"/>
   </g>
   <g id="line2d_33">
    <path d="M 231.7575 37.956 
L 231.7575 95.496 
L 231.7575 153.036 
" clip-path="url(#pd13c40c593)" style="fill: none; stroke: #000000; stroke-width: 2; stroke-linecap: round"/>
   </g>
   <g id="line2d_34">
    <path d="M 123.6375 383.196 
L 136.8375 383.196 
" clip-path="url(#pd13c40c593)" style="fill: none; stroke: #000000; stroke-width: 2; stroke-linecap: round"/>
   </g>
   <g id="line2d_35">
    <path d="M 136.8375 369.996 
L 136.8375 396.396 
" clip-path="url(#pd13c40c593)" style="fill: none; stroke: #000000; stroke-width: 2; stroke-linecap: round"/>
   </g>
   <g id="line2d_36">
    <path d="M 136.8375 376.596 
L 150.6975 364.716 
L 150.6975 358.116 
" clip-path="url(#pd13c40c593)" style="fill: none; stroke: #000000; stroke-width: 2; stroke-linecap: round"/>
   </g>
   <g id="line2d_37">
    <path d="M 136.8375 389.796 
L 150.6975 401.676 
L 150.6975 408.276 
" clip-path="url(#pd13c40c593)" style="fill: none; stroke: #000000; stroke-width: 2; stroke-linecap: round"/>
   </g>
   <g id="line2d_38">
    <path d="M 136.8375 389.796 
L 143.864191 395.818878 
" clip-path="url(#pd13c40c593)" style="fill: none; stroke: #000000; stroke-width: 2; stroke-linecap: round"/>
   </g>
   <g id="patch_11">
    <path d="M 146.20704 393.085554 
L 150.6975 401.676 
L 141.521342 398.552201 
z
" clip-path="url(#pd13c40c593)"/>
   </g>
   <g id="line2d_39">
    <path d="M 150.6975 408.276 
L 150.6975 422.676 
" clip-path="url(#pd13c40c593)" style="fill: none; stroke: #000000; stroke-width: 2; stroke-linecap: round"/>
   </g>
   <g id="line2d_40">
    <path d="M 150.6975 422.676 
L 143.9475 422.676 
" clip-path="url(#pd13c40c593)" style="fill: none; stroke: #000000; stroke-width: 2; stroke-linecap: round"/>
   </g>
   <g id="line2d_41">
    <path d="M 150.6975 422.676 
L 157.4475 422.676 
" clip-path="url(#pd13c40c593)" style="fill: none; stroke: #000000; stroke-width: 2; stroke-linecap: round"/>
   </g>
   <g id="line2d_42">
    <path d="M 150.6975 408.276 
L 191.2275 408.276 
L 231.7575 408.276 
" clip-path="url(#pd13c40c593)" style="fill: none; stroke: #000000; stroke-width: 2; stroke-linecap: round"/>
   </g>
   <g id="line2d_43">
    <path d="M 231.7575 408.276 
L 231.7575 395.736 
L 231.7575 383.196 
" clip-path="url(#pd13c40c593)" style="fill: none; stroke: #000000; stroke-width: 2; stroke-linecap: round"/>
   </g>
   <g id="line2d_44">
    <path d="M 123.6375 383.196 
L 78.6375 383.196 
L 33.6375 383.196 
" clip-path="url(#pd13c40c593)" style="fill: none; stroke: #000000; stroke-width: 2; stroke-linecap: round"/>
   </g>
   <g id="line2d_45">
    <path d="M 231.7575 203.196 
L 244.9575 203.196 
" clip-path="url(#pd13c40c593)" style="fill: none; stroke: #000000; stroke-width: 2; stroke-linecap: round"/>
   </g>
   <g id="line2d_46">
    <path d="M 244.9575 189.996 
L 244.9575 216.396 
" clip-path="url(#pd13c40c593)" style="fill: none; stroke: #000000; stroke-width: 2; stroke-linecap: round"/>
   </g>
   <g id="line2d_47">
    <path d="M 244.9575 196.596 
L 258.8175 184.716 
L 258.8175 178.116 
" clip-path="url(#pd13c40c593)" style="fill: none; stroke: #000000; stroke-width: 2; stroke-linecap: round"/>
   </g>
   <g id="line2d_48">
    <path d="M 244.9575 209.796 
L 258.8175 221.676 
L 258.8175 228.276 
" clip-path="url(#pd13c40c593)" style="fill: none; stroke: #000000; stroke-width: 2; stroke-linecap: round"/>
   </g>
   <g id="line2d_49">
    <path d="M 244.9575 209.796 
L 251.984191 215.818878 
" clip-path="url(#pd13c40c593)" style="fill: none; stroke: #000000; stroke-width: 2; stroke-linecap: round"/>
   </g>
   <g id="patch_12">
    <path d="M 254.32704 213.085554 
L 258.8175 221.676 
L 249.641342 218.552201 
z
" clip-path="url(#pd13c40c593)"/>
   </g>
   <g id="line2d_50">
    <path d="M 231.7575 203.196 
L 231.7575 217.596 
L 240.7575 220.596 
L 222.7575 226.596 
L 240.7575 232.596 
L 222.7575 238.596 
L 240.7575 244.596 
L 222.7575 250.596 
L 231.7575 253.596 
L 231.7575 267.996 
" clip-path="url(#pd13c40c593)" style="fill: none; stroke: #000000; stroke-width: 2; stroke-linecap: round"/>
   </g>
   <g id="line2d_51">
    <path d="M 258.8175 228.276 
L 258.8175 248.136 
L 258.8175 267.996 
" clip-path="url(#pd13c40c593)" style="fill: none; stroke: #000000; stroke-width: 2; stroke-linecap: round"/>
   </g>
   <g id="line2d_52">
    <path d="M 258.8175 178.116 
L 258.8175 108.036 
L 258.8175 37.956 
" clip-path="url(#pd13c40c593)" style="fill: none; stroke: #000000; stroke-width: 2; stroke-linecap: round"/>
   </g>
   <g id="line2d_53">
    <path d="M 258.8175 37.956 
L 245.2875 37.956 
L 231.7575 37.956 
" clip-path="url(#pd13c40c593)" style="fill: none; stroke: #000000; stroke-width: 2; stroke-linecap: round"/>
   </g>
   <g id="line2d_54">
    <path d="M 231.7575 267.996 
L 231.7575 282.516 
L 240.7575 285.516 
L 222.7575 291.516 
L 240.7575 297.516 
L 222.7575 303.516 
L 240.7575 309.516 
L 222.7575 315.516 
L 231.7575 318.516 
L 231.7575 333.036 
" clip-path="url(#pd13c40c593)" style="fill: none; stroke: #000000; stroke-width: 2; stroke-linecap: round"/>
   </g>
   <g id="line2d_55">
    <path d="M 231.7575 333.036 
L 244.9575 333.036 
" clip-path="url(#pd13c40c593)" style="fill: none; stroke: #000000; stroke-width: 2; stroke-linecap: round"/>
   </g>
   <g id="line2d_56">
    <path d="M 244.9575 319.836 
L 244.9575 346.236 
" clip-path="url(#pd13c40c593)" style="fill: none; stroke: #000000; stroke-width: 2; stroke-linecap: round"/>
   </g>
   <g id="line2d_57">
    <path d="M 244.9575 326.436 
L 258.8175 314.556 
L 258.8175 307.956 
" clip-path="url(#pd13c40c593)" style="fill: none; stroke: #000000; stroke-width: 2; stroke-linecap: round"/>
   </g>
   <g id="line2d_58">
    <path d="M 244.9575 339.636 
L 258.8175 351.516 
L 258.8175 358.116 
" clip-path="url(#pd13c40c593)" style="fill: none; stroke: #000000; stroke-width: 2; stroke-linecap: round"/>
   </g>
   <g id="line2d_59">
    <path d="M 258.8175 314.556 
L 251.790809 320.578878 
" clip-path="url(#pd13c40c593)" style="fill: none; stroke: #000000; stroke-width: 2; stroke-linecap: round"/>
   </g>
   <g id="patch_13">
    <path d="M 254.133658 323.312201 
L 244.9575 326.436 
L 249.44796 317.845554 
z
" clip-path="url(#pd13c40c593)"/>
   </g>
   <g id="line2d_60">
    <path d="M 258.8175 307.956 
L 258.8175 287.976 
L 258.8175 267.996 
" clip-path="url(#pd13c40c593)" style="fill: none; stroke: #000000; stroke-width: 2; stroke-linecap: round"/>
   </g>
   <g id="line2d_61">
    <path d="M 258.8175 358.116 
L 258.8175 383.196 
L 258.8175 408.276 
" clip-path="url(#pd13c40c593)" style="fill: none; stroke: #000000; stroke-width: 2; stroke-linecap: round"/>
   </g>
   <g id="line2d_62">
    <path d="M 258.8175 408.276 
L 245.2875 408.276 
L 231.7575 408.276 
" clip-path="url(#pd13c40c593)" style="fill: none; stroke: #000000; stroke-width: 2; stroke-linecap: round"/>
   </g>
   <g id="line2d_63">
    <path d="M 150.6975 37.956 
L 118.2975 37.956 
L 85.8975 37.956 
" clip-path="url(#pd13c40c593)" style="fill: none; stroke: #000000; stroke-width: 2; stroke-linecap: round"/>
   </g>
   <g id="line2d_64">
    <path d="M 85.8975 37.956 
L 85.8975 59.496 
L 94.8975 62.496 
L 76.8975 68.496 
L 94.8975 74.496 
L 76.8975 80.496 
L 94.8975 86.496 
L 76.8975 92.496 
L 85.8975 95.496 
L 85.8975 117.036 
" clip-path="url(#pd13c40c593)" style="fill: none; stroke: #000000; stroke-width: 2; stroke-linecap: round"/>
   </g>
   <g id="line2d_65">
    <path d="M 85.8975 117.036 
L 85.8975 129.576 
L 94.8975 132.576 
L 76.8975 138.576 
L 94.8975 144.576 
L 76.8975 150.576 
L 94.8975 156.576 
L 76.8975 162.576 
L 85.8975 165.576 
L 85.8975 178.116 
" clip-path="url(#pd13c40c593)" style="fill: none; stroke: #000000; stroke-width: 2; stroke-linecap: round"/>
   </g>
   <g id="line2d_66">
    <path d="M 85.8975 178.116 
L 85.8975 293.196 
L 85.8975 408.276 
" clip-path="url(#pd13c40c593)" style="fill: none; stroke: #000000; stroke-width: 2; stroke-linecap: round"/>
   </g>
   <g id="line2d_67">
    <path d="M 85.8975 408.276 
L 118.2975 408.276 
L 150.6975 408.276 
" clip-path="url(#pd13c40c593)" style="fill: none; stroke: #000000; stroke-width: 2; stroke-linecap: round"/>
   </g>
   <g id="line2d_68">
    <path d="M 231.7575 267.996 
L 276.7575 267.996 
L 321.7575 267.996 
" clip-path="url(#pd13c40c593)" style="fill: none; stroke: #000000; stroke-width: 2; stroke-linecap: round"/>
   </g>
   <g id="line2d_69">
    <path d="M 321.7575 267.996 
L 321.7575 276.996 
L 330.7575 279.996 
L 312.7575 285.996 
L 330.7575 291.996 
L 312.7575 297.996 
L 330.7575 303.996 
L 312.7575 309.996 
L 321.7575 312.996 
L 321.7575 321.996 
" clip-path="url(#pd13c40c593)" style="fill: none; stroke: #000000; stroke-width: 2; stroke-linecap: round"/>
   </g>
   <g id="line2d_70">
    <path d="M 321.7575 321.996 
L 321.7575 336.396 
L 312.7575 336.396 
L 330.7575 336.396 
M 315.4575 340.716 
L 328.0575 340.716 
M 319.9575 345.036 
L 323.5575 345.036 
" clip-path="url(#pd13c40c593)" style="fill: none; stroke: #000000; stroke-width: 2; stroke-linecap: round"/>
   </g>
   <g id="line2d_71">
    <path d="M 321.7575 267.996 
L 330.7575 267.996 
L 339.7575 267.996 
" clip-path="url(#pd13c40c593)" style="fill: none; stroke: #000000; stroke-width: 2; stroke-linecap: round"/>
   </g>
   <g id="line2d_72">
    <path d="M 85.8975 117.036 
L 104.7675 117.036 
L 123.6375 117.036 
" clip-path="url(#pd13c40c593)" style="fill: none; stroke: #000000; stroke-width: 2; stroke-linecap: round"/>
   </g>
   <g id="text_1">
    <!-- $R_{v1}$ -->
    <g transform="translate(118.2225 226.565219) scale(0.125 -0.125)">
     <defs>
      <path id="DejaVuSans-Oblique-52" d="M 1613 4147 
L 1294 2491 
L 2106 2491 
Q 2584 2491 2879 2755 
Q 3175 3019 3175 3444 
Q 3175 3784 2976 3965 
Q 2778 4147 2406 4147 
L 1613 4147 
z
M 2772 2241 
Q 2972 2194 3105 2009 
Q 3238 1825 3413 1275 
L 3809 0 
L 3144 0 
L 2778 1197 
Q 2638 1659 2453 1815 
Q 2269 1972 1888 1972 
L 1191 1972 
L 806 0 
L 172 0 
L 1081 4666 
L 2503 4666 
Q 3150 4666 3495 4373 
Q 3841 4081 3841 3531 
Q 3841 3044 3547 2687 
Q 3253 2331 2772 2241 
z
" transform="scale(0.015625)"/>
      <path id="DejaVuSans-Oblique-76" d="M 459 3500 
L 1069 3500 
L 1581 525 
L 3256 3500 
L 3866 3500 
L 1875 0 
L 1100 0 
L 459 3500 
z
" transform="scale(0.015625)"/>
      <path id="DejaVuSans-31" d="M 794 531 
L 1825 531 
L 1825 4091 
L 703 3866 
L 703 4441 
L 1819 4666 
L 2450 4666 
L 2450 531 
L 3481 531 
L 3481 0 
L 794 0 
L 794 531 
z
" transform="scale(0.015625)"/>
     </defs>
     <use xlink:href="#DejaVuSans-Oblique-52" transform="translate(0 0.09375)"/>
     <use xlink:href="#DejaVuSans-Oblique-76" transform="translate(69.482422 -16.3125) scale(0.7)"/>
     <use xlink:href="#DejaVuSans-31" transform="translate(110.908203 -16.3125) scale(0.7)"/>
    </g>
   </g>
   <g id="text_2">
    <!-- $R_{v2}$ -->
    <g transform="translate(118.2225 316.565219) scale(0.125 -0.125)">
     <defs>
      <path id="DejaVuSans-32" d="M 1228 531 
L 3431 531 
L 3431 0 
L 469 0 
L 469 531 
Q 828 903 1448 1529 
Q 2069 2156 2228 2338 
Q 2531 2678 2651 2914 
Q 2772 3150 2772 3378 
Q 2772 3750 2511 3984 
Q 2250 4219 1831 4219 
Q 1534 4219 1204 4116 
Q 875 4013 500 3803 
L 500 4441 
Q 881 4594 1212 4672 
Q 1544 4750 1819 4750 
Q 2544 4750 2975 4387 
Q 3406 4025 3406 3419 
Q 3406 3131 3298 2873 
Q 3191 2616 2906 2266 
Q 2828 2175 2409 1742 
Q 1991 1309 1228 531 
z
" transform="scale(0.015625)"/>
     </defs>
     <use xlink:href="#DejaVuSans-Oblique-52" transform="translate(0 0.09375)"/>
     <use xlink:href="#DejaVuSans-Oblique-76" transform="translate(69.482422 -16.3125) scale(0.7)"/>
     <use xlink:href="#DejaVuSans-32" transform="translate(110.908203 -16.3125) scale(0.7)"/>
    </g>
   </g>
   <g id="text_3">
    <!-- $R_{sed}$ -->
    <g transform="translate(113.4725 68.405219) scale(0.125 -0.125)">
     <defs>
      <path id="DejaVuSans-Oblique-73" d="M 3200 3397 
L 3091 2853 
Q 2863 2978 2609 3040 
Q 2356 3103 2088 3103 
Q 1634 3103 1373 2948 
Q 1113 2794 1113 2528 
Q 1113 2219 1719 2053 
Q 1766 2041 1788 2034 
L 1972 1978 
Q 2547 1819 2739 1644 
Q 2931 1469 2931 1166 
Q 2931 609 2489 259 
Q 2047 -91 1331 -91 
Q 1053 -91 747 -37 
Q 441 16 72 128 
L 184 722 
Q 500 559 806 475 
Q 1113 391 1394 391 
Q 1816 391 2080 572 
Q 2344 753 2344 1031 
Q 2344 1331 1650 1516 
L 1591 1531 
L 1394 1581 
Q 956 1697 753 1886 
Q 550 2075 550 2369 
Q 550 2928 970 3256 
Q 1391 3584 2113 3584 
Q 2397 3584 2667 3537 
Q 2938 3491 3200 3397 
z
" transform="scale(0.015625)"/>
      <path id="DejaVuSans-Oblique-65" d="M 3078 2063 
Q 3088 2113 3092 2166 
Q 3097 2219 3097 2272 
Q 3097 2653 2873 2875 
Q 2650 3097 2266 3097 
Q 1838 3097 1509 2826 
Q 1181 2556 1013 2059 
L 3078 2063 
z
M 3578 1613 
L 903 1613 
Q 884 1494 878 1425 
Q 872 1356 872 1306 
Q 872 872 1139 634 
Q 1406 397 1894 397 
Q 2269 397 2603 481 
Q 2938 566 3225 728 
L 3116 159 
Q 2806 34 2476 -28 
Q 2147 -91 1806 -91 
Q 1078 -91 686 257 
Q 294 606 294 1247 
Q 294 1794 489 2264 
Q 684 2734 1063 3103 
Q 1306 3334 1642 3459 
Q 1978 3584 2356 3584 
Q 2950 3584 3301 3228 
Q 3653 2872 3653 2272 
Q 3653 2128 3634 1964 
Q 3616 1800 3578 1613 
z
" transform="scale(0.015625)"/>
      <path id="DejaVuSans-Oblique-64" d="M 2675 525 
Q 2444 222 2128 65 
Q 1813 -91 1428 -91 
Q 903 -91 598 267 
Q 294 625 294 1247 
Q 294 1766 478 2236 
Q 663 2706 1013 3078 
Q 1244 3325 1534 3454 
Q 1825 3584 2144 3584 
Q 2481 3584 2739 3421 
Q 2997 3259 3138 2956 
L 3513 4863 
L 4091 4863 
L 3144 0 
L 2566 0 
L 2675 525 
z
M 891 1350 
Q 891 897 1095 644 
Q 1300 391 1663 391 
Q 1931 391 2161 520 
Q 2391 650 2566 903 
Q 2750 1166 2856 1509 
Q 2963 1853 2963 2188 
Q 2963 2622 2758 2865 
Q 2553 3109 2194 3109 
Q 1922 3109 1687 2981 
Q 1453 2853 1288 2613 
Q 1106 2353 998 2009 
Q 891 1666 891 1350 
z
" transform="scale(0.015625)"/>
     </defs>
     <use xlink:href="#DejaVuSans-Oblique-52" transform="translate(0 0.09375)"/>
     <use xlink:href="#DejaVuSans-Oblique-73" transform="translate(69.482422 -16.3125) scale(0.7)"/>
     <use xlink:href="#DejaVuSans-Oblique-65" transform="translate(105.952148 -16.3125) scale(0.7)"/>
     <use xlink:href="#DejaVuSans-Oblique-64" transform="translate(149.018555 -16.3125) scale(0.7)"/>
    </g>
   </g>
   <g id="text_4">
    <!-- $V_{DD}$ -->
    <g transform="translate(139.51 17.356391) scale(0.125 -0.125)">
     <defs>
      <path id="DejaVuSans-Oblique-56" d="M 1319 0 
L 500 4666 
L 1119 4666 
L 1797 653 
L 4063 4666 
L 4750 4666 
L 2053 0 
L 1319 0 
z
" transform="scale(0.015625)"/>
      <path id="DejaVuSans-Oblique-44" d="M 1081 4666 
L 2438 4666 
Q 3519 4666 4070 4208 
Q 4622 3750 4622 2847 
Q 4622 2250 4412 1698 
Q 4203 1147 3834 769 
Q 3463 381 2891 190 
Q 2319 0 1538 0 
L 172 0 
L 1081 4666 
z
M 1613 4147 
L 909 519 
L 1734 519 
Q 2794 519 3375 1128 
Q 3956 1738 3956 2847 
Q 3956 3519 3581 3833 
Q 3206 4147 2406 4147 
L 1613 4147 
z
" transform="scale(0.015625)"/>
     </defs>
     <use xlink:href="#DejaVuSans-Oblique-56" transform="translate(0 0.09375)"/>
     <use xlink:href="#DejaVuSans-Oblique-44" transform="translate(68.408203 -16.3125) scale(0.7)"/>
     <use xlink:href="#DejaVuSans-Oblique-44" transform="translate(122.30957 -16.3125) scale(0.7)"/>
    </g>
   </g>
   <g id="text_5">
    <!-- -$V_{DD}$ -->
    <g transform="translate(137.1975 435.774047) scale(0.125 -0.125)">
     <defs>
      <path id="DejaVuSans-2d" d="M 313 2009 
L 1997 2009 
L 1997 1497 
L 313 1497 
L 313 2009 
z
" transform="scale(0.015625)"/>
     </defs>
     <use xlink:href="#DejaVuSans-2d" transform="translate(0 0.09375)"/>
     <use xlink:href="#DejaVuSans-Oblique-56" transform="translate(36.083984 0.09375)"/>
     <use xlink:href="#DejaVuSans-Oblique-44" transform="translate(104.492188 -16.3125) scale(0.7)"/>
     <use xlink:href="#DejaVuSans-Oblique-44" transform="translate(158.393555 -16.3125) scale(0.7)"/>
    </g>
   </g>
   <g id="text_6">
    <!-- $R_{ed1}$ -->
    <g transform="translate(193.5325 239.045219) scale(0.125 -0.125)">
     <use xlink:href="#DejaVuSans-Oblique-52" transform="translate(0 0.09375)"/>
     <use xlink:href="#DejaVuSans-Oblique-65" transform="translate(69.482422 -16.3125) scale(0.7)"/>
     <use xlink:href="#DejaVuSans-Oblique-64" transform="translate(112.548828 -16.3125) scale(0.7)"/>
     <use xlink:href="#DejaVuSans-31" transform="translate(156.982422 -16.3125) scale(0.7)"/>
    </g>
   </g>
   <g id="text_7">
    <!-- $R_{ed2}$ -->
    <g transform="translate(193.5325 303.965219) scale(0.125 -0.125)">
     <use xlink:href="#DejaVuSans-Oblique-52" transform="translate(0 0.09375)"/>
     <use xlink:href="#DejaVuSans-Oblique-65" transform="translate(69.482422 -16.3125) scale(0.7)"/>
     <use xlink:href="#DejaVuSans-Oblique-64" transform="translate(112.548828 -16.3125) scale(0.7)"/>
     <use xlink:href="#DejaVuSans-32" transform="translate(156.982422 -16.3125) scale(0.7)"/>
    </g>
   </g>
   <g id="text_8">
    <!-- $R_{s1}$ -->
    <g transform="translate(54.0475 80.945219) scale(0.125 -0.125)">
     <use xlink:href="#DejaVuSans-Oblique-52" transform="translate(0 0.09375)"/>
     <use xlink:href="#DejaVuSans-Oblique-73" transform="translate(69.482422 -16.3125) scale(0.7)"/>
     <use xlink:href="#DejaVuSans-31" transform="translate(105.952148 -16.3125) scale(0.7)"/>
    </g>
   </g>
   <g id="text_9">
    <!-- $R_{s2}$ -->
    <g transform="translate(54.0475 151.025219) scale(0.125 -0.125)">
     <use xlink:href="#DejaVuSans-Oblique-52" transform="translate(0 0.09375)"/>
     <use xlink:href="#DejaVuSans-Oblique-73" transform="translate(69.482422 -16.3125) scale(0.7)"/>
     <use xlink:href="#DejaVuSans-32" transform="translate(105.952148 -16.3125) scale(0.7)"/>
    </g>
   </g>
   <g id="text_10">
    <!-- $R_L$ -->
    <g transform="translate(295.1575 298.445219) scale(0.125 -0.125)">
     <defs>
      <path id="DejaVuSans-Oblique-4c" d="M 1075 4666 
L 1709 4666 
L 909 525 
L 3181 525 
L 3078 0 
L 172 0 
L 1075 4666 
z
" transform="scale(0.015625)"/>
     </defs>
     <use xlink:href="#DejaVuSans-Oblique-52" transform="translate(0 0.09375)"/>
     <use xlink:href="#DejaVuSans-Oblique-4c" transform="translate(69.482422 -16.3125) scale(0.7)"/>
    </g>
   </g>
   <g id="patch_14">
    <path d="M 150.6975 180.816 
C 151.413548 180.816 152.100366 180.531511 152.606688 180.025188 
C 153.113011 179.518866 153.3975 178.832048 153.3975 178.116 
C 153.3975 177.399952 153.113011 176.713134 152.606688 176.206812 
C 152.100366 175.700489 151.413548 175.416 150.6975 175.416 
C 149.981452 175.416 149.294634 175.700489 148.788312 176.206812 
C 148.281989 176.713134 147.9975 177.399952 147.9975 178.116 
C 147.9975 178.832048 148.281989 179.518866 148.788312 180.025188 
C 149.294634 180.531511 149.981452 180.816 150.6975 180.816 
z
" clip-path="url(#pd13c40c593)" style="stroke: #000000; stroke-width: 2; stroke-linejoin: miter"/>
   </g>
   <g id="patch_15">
    <path d="M 150.6975 360.816 
C 151.413548 360.816 152.100366 360.531511 152.606688 360.025188 
C 153.113011 359.518866 153.3975 358.832048 153.3975 358.116 
C 153.3975 357.399952 153.113011 356.713134 152.606688 356.206812 
C 152.100366 355.700489 151.413548 355.416 150.6975 355.416 
C 149.981452 355.416 149.294634 355.700489 148.788312 356.206812 
C 148.281989 356.713134 147.9975 357.399952 147.9975 358.116 
C 147.9975 358.832048 148.281989 359.518866 148.788312 360.025188 
C 149.294634 360.531511 149.981452 360.816 150.6975 360.816 
z
" clip-path="url(#pd13c40c593)" style="stroke: #000000; stroke-width: 2; stroke-linejoin: miter"/>
   </g>
   <g id="patch_16">
    <path d="M 177.7575 180.816 
C 178.473548 180.816 179.160366 180.531511 179.666688 180.025188 
C 180.173011 179.518866 180.4575 178.832048 180.4575 178.116 
C 180.4575 177.399952 180.173011 176.713134 179.666688 176.206812 
C 179.160366 175.700489 178.473548 175.416 177.7575 175.416 
C 177.041452 175.416 176.354634 175.700489 175.848312 176.206812 
C 175.341989 176.713134 175.0575 177.399952 175.0575 178.116 
C 175.0575 178.832048 175.341989 179.518866 175.848312 180.025188 
C 176.354634 180.531511 177.041452 180.816 177.7575 180.816 
z
" clip-path="url(#pd13c40c593)" style="stroke: #000000; stroke-width: 2; stroke-linejoin: miter"/>
   </g>
   <g id="patch_17">
    <path d="M 177.7575 360.816 
C 178.473548 360.816 179.160366 360.531511 179.666688 360.025188 
C 180.173011 359.518866 180.4575 358.832048 180.4575 358.116 
C 180.4575 357.399952 180.173011 356.713134 179.666688 356.206812 
C 179.160366 355.700489 178.473548 355.416 177.7575 355.416 
C 177.041452 355.416 176.354634 355.700489 175.848312 356.206812 
C 175.341989 356.713134 175.0575 357.399952 175.0575 358.116 
C 175.0575 358.832048 175.341989 359.518866 175.848312 360.025188 
C 176.354634 360.531511 177.041452 360.816 177.7575 360.816 
z
" clip-path="url(#pd13c40c593)" style="stroke: #000000; stroke-width: 2; stroke-linejoin: miter"/>
   </g>
   <g id="patch_18">
    <path d="M 150.6975 40.656 
C 151.413548 40.656 152.100366 40.371511 152.606688 39.865188 
C 153.113011 39.358866 153.3975 38.672048 153.3975 37.956 
C 153.3975 37.239952 153.113011 36.553134 152.606688 36.046812 
C 152.100366 35.540489 151.413548 35.256 150.6975 35.256 
C 149.981452 35.256 149.294634 35.540489 148.788312 36.046812 
C 148.281989 36.553134 147.9975 37.239952 147.9975 37.956 
C 147.9975 38.672048 148.281989 39.358866 148.788312 39.865188 
C 149.294634 40.371511 149.981452 40.656 150.6975 40.656 
z
" clip-path="url(#pd13c40c593)" style="stroke: #000000; stroke-width: 2; stroke-linejoin: miter"/>
   </g>
   <g id="patch_19">
    <path d="M 150.6975 410.976 
C 151.413548 410.976 152.100366 410.691511 152.606688 410.185188 
C 153.113011 409.678866 153.3975 408.992048 153.3975 408.276 
C 153.3975 407.559952 153.113011 406.873134 152.606688 406.366812 
C 152.100366 405.860489 151.413548 405.576 150.6975 405.576 
C 149.981452 405.576 149.294634 405.860489 148.788312 406.366812 
C 148.281989 406.873134 147.9975 407.559952 147.9975 408.276 
C 147.9975 408.992048 148.281989 409.678866 148.788312 410.185188 
C 149.294634 410.691511 149.981452 410.976 150.6975 410.976 
z
" clip-path="url(#pd13c40c593)" style="stroke: #000000; stroke-width: 2; stroke-linejoin: miter"/>
   </g>
   <g id="patch_20">
    <path d="M 33.6375 385.896 
C 34.353548 385.896 35.040366 385.611511 35.546688 385.105188 
C 36.053011 384.598866 36.3375 383.912048 36.3375 383.196 
C 36.3375 382.479952 36.053011 381.793134 35.546688 381.286812 
C 35.040366 380.780489 34.353548 380.496 33.6375 380.496 
C 32.921452 380.496 32.234634 380.780489 31.728312 381.286812 
C 31.221989 381.793134 30.9375 382.479952 30.9375 383.196 
C 30.9375 383.912048 31.221989 384.598866 31.728312 385.105188 
C 32.234634 385.611511 32.921452 385.896 33.6375 385.896 
z
" clip-path="url(#pd13c40c593)" style="fill: #ffffff; stroke: #000000; stroke-width: 2; stroke-linejoin: miter"/>
   </g>
   <g id="text_11">
    <!-- $V_{in}$ -->
    <g transform="translate(3.6 385.096391) scale(0.125 -0.125)">
     <defs>
      <path id="DejaVuSans-Oblique-69" d="M 1172 4863 
L 1747 4863 
L 1606 4134 
L 1031 4134 
L 1172 4863 
z
M 909 3500 
L 1484 3500 
L 800 0 
L 225 0 
L 909 3500 
z
" transform="scale(0.015625)"/>
      <path id="DejaVuSans-Oblique-6e" d="M 3566 2113 
L 3156 0 
L 2578 0 
L 2988 2091 
Q 3016 2238 3031 2350 
Q 3047 2463 3047 2528 
Q 3047 2791 2881 2937 
Q 2716 3084 2419 3084 
Q 1956 3084 1622 2776 
Q 1288 2469 1184 1941 
L 800 0 
L 225 0 
L 903 3500 
L 1478 3500 
L 1363 2950 
Q 1603 3253 1940 3418 
Q 2278 3584 2650 3584 
Q 3113 3584 3367 3334 
Q 3622 3084 3622 2631 
Q 3622 2519 3608 2391 
Q 3594 2263 3566 2113 
z
" transform="scale(0.015625)"/>
     </defs>
     <use xlink:href="#DejaVuSans-Oblique-56" transform="translate(0 0.09375)"/>
     <use xlink:href="#DejaVuSans-Oblique-69" transform="translate(68.408203 -16.3125) scale(0.7)"/>
     <use xlink:href="#DejaVuSans-Oblique-6e" transform="translate(87.856445 -16.3125) scale(0.7)"/>
    </g>
   </g>
   <g id="patch_21">
    <path d="M 231.7575 270.696 
C 232.473548 270.696 233.160366 270.411511 233.666688 269.905188 
C 234.173011 269.398866 234.4575 268.712048 234.4575 267.996 
C 234.4575 267.279952 234.173011 266.593134 233.666688 266.086812 
C 233.160366 265.580489 232.473548 265.296 231.7575 265.296 
C 231.041452 265.296 230.354634 265.580489 229.848312 266.086812 
C 229.341989 266.593134 229.0575 267.279952 229.0575 267.996 
C 229.0575 268.712048 229.341989 269.398866 229.848312 269.905188 
C 230.354634 270.411511 231.041452 270.696 231.7575 270.696 
z
" clip-path="url(#pd13c40c593)" style="stroke: #000000; stroke-width: 2; stroke-linejoin: miter"/>
   </g>
   <g id="patch_22">
    <path d="M 258.8175 270.696 
C 259.533548 270.696 260.220366 270.411511 260.726688 269.905188 
C 261.233011 269.398866 261.5175 268.712048 261.5175 267.996 
C 261.5175 267.279952 261.233011 266.593134 260.726688 266.086812 
C 260.220366 265.580489 259.533548 265.296 258.8175 265.296 
C 258.101452 265.296 257.414634 265.580489 256.908312 266.086812 
C 256.401989 266.593134 256.1175 267.279952 256.1175 267.996 
C 256.1175 268.712048 256.401989 269.398866 256.908312 269.905188 
C 257.414634 270.411511 258.101452 270.696 258.8175 270.696 
z
" clip-path="url(#pd13c40c593)" style="stroke: #000000; stroke-width: 2; stroke-linejoin: miter"/>
   </g>
   <g id="patch_23">
    <path d="M 231.7575 40.656 
C 232.473548 40.656 233.160366 40.371511 233.666688 39.865188 
C 234.173011 39.358866 234.4575 38.672048 234.4575 37.956 
C 234.4575 37.239952 234.173011 36.553134 233.666688 36.046812 
C 233.160366 35.540489 232.473548 35.256 231.7575 35.256 
C 231.041452 35.256 230.354634 35.540489 229.848312 36.046812 
C 229.341989 36.553134 229.0575 37.239952 229.0575 37.956 
C 229.0575 38.672048 229.341989 39.358866 229.848312 39.865188 
C 230.354634 40.371511 231.041452 40.656 231.7575 40.656 
z
" clip-path="url(#pd13c40c593)" style="stroke: #000000; stroke-width: 2; stroke-linejoin: miter"/>
   </g>
   <g id="patch_24">
    <path d="M 231.7575 410.976 
C 232.473548 410.976 233.160366 410.691511 233.666688 410.185188 
C 234.173011 409.678866 234.4575 408.992048 234.4575 408.276 
C 234.4575 407.559952 234.173011 406.873134 233.666688 406.366812 
C 233.160366 405.860489 232.473548 405.576 231.7575 405.576 
C 231.041452 405.576 230.354634 405.860489 229.848312 406.366812 
C 229.341989 406.873134 229.0575 407.559952 229.0575 408.276 
C 229.0575 408.992048 229.341989 409.678866 229.848312 410.185188 
C 230.354634 410.691511 231.041452 410.976 231.7575 410.976 
z
" clip-path="url(#pd13c40c593)" style="stroke: #000000; stroke-width: 2; stroke-linejoin: miter"/>
   </g>
   <g id="patch_25">
    <path d="M 85.8975 119.736 
C 86.613548 119.736 87.300366 119.451511 87.806688 118.945188 
C 88.313011 118.438866 88.5975 117.752048 88.5975 117.036 
C 88.5975 116.319952 88.313011 115.633134 87.806688 115.126812 
C 87.300366 114.620489 86.613548 114.336 85.8975 114.336 
C 85.181452 114.336 84.494634 114.620489 83.988312 115.126812 
C 83.481989 115.633134 83.1975 116.319952 83.1975 117.036 
C 83.1975 117.752048 83.481989 118.438866 83.988312 118.945188 
C 84.494634 119.451511 85.181452 119.736 85.8975 119.736 
z
" clip-path="url(#pd13c40c593)" style="stroke: #000000; stroke-width: 2; stroke-linejoin: miter"/>
   </g>
   <g id="patch_26">
    <path d="M 339.7575 270.696 
C 340.473548 270.696 341.160366 270.411511 341.666688 269.905188 
C 342.173011 269.398866 342.4575 268.712048 342.4575 267.996 
C 342.4575 267.279952 342.173011 266.593134 341.666688 266.086812 
C 341.160366 265.580489 340.473548 265.296 339.7575 265.296 
C 339.041452 265.296 338.354634 265.580489 337.848312 266.086812 
C 337.341989 266.593134 337.0575 267.279952 337.0575 267.996 
C 337.0575 268.712048 337.341989 269.398866 337.848312 269.905188 
C 338.354634 270.411511 339.041452 270.696 339.7575 270.696 
z
" clip-path="url(#pd13c40c593)" style="fill: #ffffff; stroke: #000000; stroke-width: 2; stroke-linejoin: miter"/>
   </g>
   <g id="text_12">
    <!-- $v_{out}$ -->
    <g transform="translate(328.695 259.096391) scale(0.125 -0.125)">
     <defs>
      <path id="DejaVuSans-Oblique-6f" d="M 1625 -91 
Q 1009 -91 651 289 
Q 294 669 294 1325 
Q 294 1706 417 2101 
Q 541 2497 738 2766 
Q 1047 3184 1428 3384 
Q 1809 3584 2291 3584 
Q 2888 3584 3255 3212 
Q 3622 2841 3622 2241 
Q 3622 1825 3500 1412 
Q 3378 1000 3181 728 
Q 2875 309 2494 109 
Q 2113 -91 1625 -91 
z
M 891 1344 
Q 891 869 1089 633 
Q 1288 397 1691 397 
Q 2269 397 2648 901 
Q 3028 1406 3028 2181 
Q 3028 2634 2825 2865 
Q 2622 3097 2228 3097 
Q 1903 3097 1650 2945 
Q 1397 2794 1197 2484 
Q 1050 2253 970 1956 
Q 891 1659 891 1344 
z
" transform="scale(0.015625)"/>
      <path id="DejaVuSans-Oblique-75" d="M 428 1388 
L 838 3500 
L 1416 3500 
L 1006 1409 
Q 975 1256 961 1147 
Q 947 1038 947 966 
Q 947 700 1109 554 
Q 1272 409 1569 409 
Q 2031 409 2368 721 
Q 2706 1034 2809 1563 
L 3194 3500 
L 3769 3500 
L 3091 0 
L 2516 0 
L 2631 550 
Q 2388 244 2052 76 
Q 1716 -91 1338 -91 
Q 878 -91 622 161 
Q 366 413 366 863 
Q 366 956 381 1097 
Q 397 1238 428 1388 
z
" transform="scale(0.015625)"/>
      <path id="DejaVuSans-Oblique-74" d="M 2706 3500 
L 2619 3053 
L 1472 3053 
L 1100 1153 
Q 1081 1047 1072 975 
Q 1063 903 1063 863 
Q 1063 663 1183 572 
Q 1303 481 1569 481 
L 2150 481 
L 2053 0 
L 1503 0 
Q 991 0 739 200 
Q 488 400 488 806 
Q 488 878 497 964 
Q 506 1050 525 1153 
L 897 3053 
L 409 3053 
L 500 3500 
L 978 3500 
L 1172 4494 
L 1747 4494 
L 1556 3500 
L 2706 3500 
z
" transform="scale(0.015625)"/>
     </defs>
     <use xlink:href="#DejaVuSans-Oblique-76" transform="translate(0 0.3125)"/>
     <use xlink:href="#DejaVuSans-Oblique-6f" transform="translate(59.179688 -16.09375) scale(0.7)"/>
     <use xlink:href="#DejaVuSans-Oblique-75" transform="translate(102.006836 -16.09375) scale(0.7)"/>
     <use xlink:href="#DejaVuSans-Oblique-74" transform="translate(146.37207 -16.09375) scale(0.7)"/>
    </g>
   </g>
  </g>
 </g>
 <defs>
  <clipPath id="pd13c40c593">
   <rect x="15.3615" y="3.6" width="342.672" height="439.032"/>
  </clipPath>
 </defs>
</svg>