<?xml version="1.0" encoding="utf-8" standalone="no"?>
<!DOCTYPE svg PUBLIC "-//W3C//DTD SVG 1.1//EN"
  "http://www.w3.org/Graphics/SVG/1.1/DTD/svg11.dtd">
<svg xmlns:xlink="http://www.w3.org/1999/xlink" width="213.186pt" height="263.620656pt" viewBox="0 0 213.186 263.620656" xmlns="http://www.w3.org/2000/svg" version="1.1">
 <metadata>
  <rdf:RDF xmlns:dc="http://purl.org/dc/elements/1.1/" xmlns:cc="http://creativecommons.org/ns#" xmlns:rdf="http://www.w3.org/1999/02/22-rdf-syntax-ns#">
   <cc:Work>
    <dc:type rdf:resource="http://purl.org/dc/dcmitype/StillImage"/>
    <dc:date>2024-01-07T23:43:34.603594</dc:date>
    <dc:format>image/svg+xml</dc:format>
    <dc:creator>
     <cc:Agent>
      <dc:title>Matplotlib v3.8.2, https://matplotlib.org/</dc:title>
     </cc:Agent>
    </dc:creator>
   </cc:Work>
  </rdf:RDF>
 </metadata>
 <defs>
  <style type="text/css">*{stroke-linejoin: round; stroke-linecap: butt}</style>
 </defs>
 <g id="figure_1">
  <g id="patch_1">
   <path d="M 0 263.620656 
L 213.186 263.620656 
L 213.186 0 
L 0 0 
z
" style="fill: #ffffff"/>
  </g>
  <g id="axes_1">
   <g id="patch_2">
    <path d="M 121.023 188.257656 
L 121.194352 188.256297 
L 121.365662 188.252219 
L 121.536885 188.245424 
L 121.707978 188.235912 
L 121.8789 188.223688 
L 122.049605 188.208753 
L 122.220053 188.191112 
L 122.390198 188.170768 
L 122.56 188.147728 
L 122.729415 188.121996 
L 122.8984 188.09358 
L 123.066913 188.062486 
L 123.234912 188.028723 
L 123.402354 187.992298 
L 123.569197 187.953221 
L 123.735398 187.911502 
L 123.900917 187.867152 
L 124.065712 187.82018 
L 124.22974 187.7706 
L 124.392961 187.718424 
L 124.555334 187.663665 
L 124.716818 187.606337 
L 124.877371 187.546453 
L 125.036955 187.48403 
L 125.195527 187.419083 
L 125.35305 187.351628 
L 125.509482 187.281682 
L 125.664785 187.209263 
L 125.818919 187.134389 
L 125.971846 187.057079 
L 126.123528 186.977353 
L 126.273925 186.89523 
L 126.423 186.810731 
L 126.570716 186.723877 
L 126.717035 186.634691 
L 126.861921 186.543194 
L 127.005337 186.449411 
L 127.147247 186.353363 
L 127.287615 186.255077 
L 127.426406 186.154575 
L 127.563585 186.051884 
L 127.699117 185.94703 
L 127.832969 185.840038 
L 127.965106 185.730936 
L 128.095496 185.619752 
L 128.224105 185.506512 
L 128.350902 185.391247 
L 128.475853 185.273984 
L 128.598929 185.154753 
L 128.720097 185.033585 
L 128.839328 184.91051 
L 128.95659 184.785558 
L 129.071856 184.658761 
L 129.185095 184.530152 
L 129.29628 184.399762 
L 129.405382 184.267625 
L 129.512373 184.133773 
L 129.617228 183.998241 
L 129.719919 183.861062 
L 129.82042 183.722271 
L 129.918707 183.581903 
L 130.014754 183.439993 
L 130.108538 183.296577 
L 130.200035 183.151691 
L 130.289221 183.005372 
L 130.376074 182.857656 
L 130.460573 182.708581 
L 130.542696 182.558184 
L 130.622423 182.406503 
L 130.699733 182.253576 
L 130.774607 182.099441 
L 130.847026 181.944138 
L 130.916971 181.787706 
L 130.984426 181.630184 
L 131.049374 181.471611 
L 131.111797 181.312027 
L 131.17168 181.151474 
L 131.229009 180.98999 
L 131.283768 180.827617 
L 131.335944 180.664396 
L 131.385524 180.500368 
L 131.432495 180.335573 
L 131.476846 180.170055 
L 131.518565 180.003853 
L 131.557642 179.83701 
L 131.594066 179.669568 
L 131.62783 179.50157 
L 131.658924 179.333057 
L 131.68734 179.164071 
L 131.713072 178.994657 
L 131.736112 178.824855 
L 131.756455 178.654709 
L 131.774097 178.484262 
L 131.789032 178.313556 
L 131.801256 178.142635 
L 131.810767 177.971541 
L 131.817563 177.800318 
L 131.821641 177.629009 
L 131.823 177.457656 
L 131.823 80.257656 
L 131.821641 80.086304 
L 131.817563 79.914995 
L 131.810767 79.743772 
L 131.801256 79.572678 
L 131.789032 79.401757 
L 131.774097 79.231051 
L 131.756455 79.060604 
L 131.736112 78.890458 
L 131.713072 78.720656 
L 131.68734 78.551241 
L 131.658924 78.382256 
L 131.62783 78.213743 
L 131.594066 78.045744 
L 131.557642 77.878302 
L 131.518565 77.71146 
L 131.476846 77.545258 
L 131.432495 77.379739 
L 131.385524 77.214945 
L 131.335944 77.050916 
L 131.283768 76.887695 
L 131.229009 76.725322 
L 131.17168 76.563839 
L 131.111797 76.403285 
L 131.049374 76.243702 
L 130.984426 76.085129 
L 130.916971 75.927606 
L 130.847026 75.771174 
L 130.774607 75.615871 
L 130.699733 75.461737 
L 130.622423 75.30881 
L 130.542696 75.157129 
L 130.460573 75.006732 
L 130.376074 74.857656 
L 130.289221 74.70994 
L 130.200035 74.563621 
L 130.108538 74.418735 
L 130.014754 74.27532 
L 129.918707 74.13341 
L 129.82042 73.993042 
L 129.719919 73.854251 
L 129.617228 73.717072 
L 129.512373 73.581539 
L 129.405382 73.447687 
L 129.29628 73.31555 
L 129.185095 73.18516 
L 129.071856 73.056551 
L 128.95659 72.929755 
L 128.839328 72.804803 
L 128.720097 72.681727 
L 128.598929 72.560559 
L 128.475853 72.441329 
L 128.350902 72.324066 
L 128.224105 72.2088 
L 128.095496 72.095561 
L 127.965106 71.984376 
L 127.832969 71.875274 
L 127.699117 71.768283 
L 127.563585 71.663428 
L 127.426406 71.560737 
L 127.287615 71.460236 
L 127.147247 71.361949 
L 127.005337 71.265902 
L 126.861921 71.172118 
L 126.717035 71.080622 
L 126.570716 70.991435 
L 126.423 70.904582 
L 126.273925 70.820083 
L 126.123528 70.73796 
L 125.971846 70.658233 
L 125.818919 70.580923 
L 125.664785 70.50605 
L 125.509482 70.433631 
L 125.35305 70.363685 
L 125.195527 70.29623 
L 125.036955 70.231283 
L 124.877371 70.168859 
L 124.716818 70.108976 
L 124.555334 70.051647 
L 124.392961 69.996888 
L 124.22974 69.944712 
L 124.065712 69.895132 
L 123.900917 69.848161 
L 123.735398 69.80381 
L 123.569197 69.762091 
L 123.402354 69.723015 
L 123.234912 69.68659 
L 123.066913 69.652826 
L 122.8984 69.621733 
L 122.729415 69.593316 
L 122.56 69.567585 
L 122.390198 69.544544 
L 122.220053 69.524201 
L 122.049605 69.506559 
L 121.8789 69.491625 
L 121.707978 69.4794 
L 121.536885 69.469889 
L 121.365662 69.463094 
L 121.194352 69.459016 
L 121.023 69.457656 
L 34.563 69.457656 
L 34.391648 69.459016 
L 34.220338 69.463094 
L 34.049115 69.469889 
L 33.878022 69.4794 
L 33.7071 69.491625 
L 33.536395 69.506559 
L 33.365947 69.524201 
L 33.195802 69.544544 
L 33.026 69.567585 
L 32.856585 69.593316 
L 32.6876 69.621733 
L 32.519087 69.652826 
L 32.351088 69.68659 
L 32.183646 69.723015 
L 32.016803 69.762091 
L 31.850602 69.80381 
L 31.685083 69.848161 
L 31.520288 69.895132 
L 31.35626 69.944712 
L 31.193039 69.996888 
L 31.030666 70.051647 
L 30.869182 70.108976 
L 30.708629 70.168859 
L 30.549045 70.231283 
L 30.390473 70.29623 
L 30.23295 70.363685 
L 30.076518 70.433631 
L 29.921215 70.50605 
L 29.767081 70.580923 
L 29.614154 70.658233 
L 29.462472 70.73796 
L 29.312075 70.820083 
L 29.163 70.904582 
L 29.015284 70.991435 
L 28.868965 71.080622 
L 28.724079 71.172118 
L 28.580663 71.265902 
L 28.438753 71.361949 
L 28.298385 71.460236 
L 28.159594 71.560737 
L 28.022415 71.663428 
L 27.886883 71.768283 
L 27.753031 71.875274 
L 27.620894 71.984376 
L 27.490504 72.095561 
L 27.361895 72.2088 
L 27.235098 72.324066 
L 27.110147 72.441329 
L 26.987071 72.560559 
L 26.865903 72.681727 
L 26.746672 72.804803 
L 26.62941 72.929755 
L 26.514144 73.056551 
L 26.400905 73.18516 
L 26.28972 73.31555 
L 26.180618 73.447687 
L 26.073627 73.581539 
L 25.968772 73.717072 
L 25.866081 73.854251 
L 25.76558 73.993042 
L 25.667293 74.13341 
L 25.571246 74.27532 
L 25.477462 74.418735 
L 25.385965 74.563621 
L 25.296779 74.70994 
L 25.209926 74.857656 
L 25.125427 75.006732 
L 25.043304 75.157129 
L 24.963577 75.30881 
L 24.886267 75.461737 
L 24.811393 75.615871 
L 24.738974 75.771174 
L 24.669029 75.927606 
L 24.601574 76.085129 
L 24.536626 76.243702 
L 24.474203 76.403285 
L 24.41432 76.563839 
L 24.356991 76.725322 
L 24.302232 76.887695 
L 24.250056 77.050916 
L 24.200476 77.214945 
L 24.153505 77.379739 
L 24.109154 77.545258 
L 24.067435 77.71146 
L 24.028358 77.878302 
L 23.991934 78.045744 
L 23.95817 78.213743 
L 23.927076 78.382256 
L 23.89866 78.551241 
L 23.872928 78.720656 
L 23.849888 78.890458 
L 23.829545 79.060604 
L 23.811903 79.231051 
L 23.796968 79.401757 
L 23.784744 79.572678 
L 23.775233 79.743772 
L 23.768437 79.914995 
L 23.764359 80.086304 
L 23.763 80.257656 
L 23.763 177.457656 
L 23.764359 177.629009 
L 23.768437 177.800318 
L 23.775233 177.971541 
L 23.784744 178.142635 
L 23.796968 178.313556 
L 23.811903 178.484262 
L 23.829545 178.654709 
L 23.849888 178.824855 
L 23.872928 178.994657 
L 23.89866 179.164071 
L 23.927076 179.333057 
L 23.95817 179.50157 
L 23.991934 179.669568 
L 24.028358 179.83701 
L 24.067435 180.003853 
L 24.109154 180.170055 
L 24.153505 180.335573 
L 24.200476 180.500368 
L 24.250056 180.664396 
L 24.302232 180.827617 
L 24.356991 180.98999 
L 24.41432 181.151474 
L 24.474203 181.312027 
L 24.536626 181.471611 
L 24.601574 181.630184 
L 24.669029 181.787706 
L 24.738974 181.944138 
L 24.811393 182.099441 
L 24.886267 182.253576 
L 24.963577 182.406503 
L 25.043304 182.558184 
L 25.125427 182.708581 
L 25.209926 182.857656 
L 25.296779 183.005372 
L 25.385965 183.151691 
L 25.477462 183.296577 
L 25.571246 183.439993 
L 25.667293 183.581903 
L 25.76558 183.722271 
L 25.866081 183.861062 
L 25.968772 183.998241 
L 26.073627 184.133773 
L 26.180618 184.267625 
L 26.28972 184.399762 
L 26.400905 184.530152 
L 26.514144 184.658761 
L 26.62941 184.785558 
L 26.746672 184.91051 
L 26.865903 185.033585 
L 26.987071 185.154753 
L 27.110147 185.273984 
L 27.235098 185.391247 
L 27.361895 185.506512 
L 27.490504 185.619752 
L 27.620894 185.730936 
L 27.753031 185.840038 
L 27.886883 185.94703 
L 28.022415 186.051884 
L 28.159594 186.154575 
L 28.298385 186.255077 
L 28.438753 186.353363 
L 28.580663 186.449411 
L 28.724079 186.543194 
L 28.868965 186.634691 
L 29.015284 186.723877 
L 29.163 186.810731 
L 29.312075 186.89523 
L 29.462472 186.977353 
L 29.614154 187.057079 
L 29.767081 187.134389 
L 29.921215 187.209263 
L 30.076518 187.281682 
L 30.23295 187.351628 
L 30.390473 187.419083 
L 30.549045 187.48403 
L 30.708629 187.546453 
L 30.869182 187.606337 
L 31.030666 187.663665 
L 31.193039 187.718424 
L 31.35626 187.7706 
L 31.520288 187.82018 
L 31.685083 187.867152 
L 31.850602 187.911502 
L 32.016803 187.953221 
L 32.183646 187.992298 
L 32.351088 188.028723 
L 32.519087 188.062486 
L 32.6876 188.09358 
L 32.856585 188.121996 
L 33.026 188.147728 
L 33.195802 188.170768 
L 33.365947 188.191112 
L 33.536395 188.208753 
L 33.7071 188.223688 
L 33.878022 188.235912 
L 34.049115 188.245424 
L 34.220338 188.252219 
L 34.391648 188.256297 
L 34.563 188.257656 
z
" clip-path="url(#p527dbb86b5)" style="fill: #00ffff; stroke-dasharray: 1.85,0.8; stroke-dashoffset: 0; stroke: #00ffff; stroke-width: 0.5; stroke-linecap: round"/>
   </g>
   <g id="patch_3">
    <path d="M 189.423 242.257656 
L 189.594352 242.256297 
L 189.765662 242.252219 
L 189.936885 242.245424 
L 190.107978 242.235912 
L 190.2789 242.223688 
L 190.449605 242.208753 
L 190.620053 242.191112 
L 190.790198 242.170768 
L 190.96 242.147728 
L 191.129415 242.121996 
L 191.2984 242.09358 
L 191.466913 242.062486 
L 191.634912 242.028723 
L 191.802354 241.992298 
L 191.969197 241.953221 
L 192.135398 241.911502 
L 192.300917 241.867152 
L 192.465712 241.82018 
L 192.62974 241.7706 
L 192.792961 241.718424 
L 192.955334 241.663665 
L 193.116818 241.606337 
L 193.277371 241.546453 
L 193.436955 241.48403 
L 193.595527 241.419083 
L 193.75305 241.351628 
L 193.909482 241.281682 
L 194.064785 241.209263 
L 194.218919 241.134389 
L 194.371846 241.057079 
L 194.523528 240.977353 
L 194.673925 240.89523 
L 194.823 240.810731 
L 194.970716 240.723877 
L 195.117035 240.634691 
L 195.261921 240.543194 
L 195.405337 240.449411 
L 195.547247 240.353363 
L 195.687615 240.255077 
L 195.826406 240.154575 
L 195.963585 240.051884 
L 196.099117 239.94703 
L 196.232969 239.840038 
L 196.365106 239.730936 
L 196.495496 239.619752 
L 196.624105 239.506512 
L 196.750902 239.391247 
L 196.875853 239.273984 
L 196.998929 239.154753 
L 197.120097 239.033585 
L 197.239328 238.91051 
L 197.35659 238.785558 
L 197.471856 238.658761 
L 197.585095 238.530152 
L 197.69628 238.399762 
L 197.805382 238.267625 
L 197.912373 238.133773 
L 198.017228 237.998241 
L 198.119919 237.861062 
L 198.22042 237.722271 
L 198.318707 237.581903 
L 198.414754 237.439993 
L 198.508538 237.296577 
L 198.600035 237.151691 
L 198.689221 237.005372 
L 198.776074 236.857656 
L 198.860573 236.708581 
L 198.942696 236.558184 
L 199.022423 236.406503 
L 199.099733 236.253576 
L 199.174607 236.099441 
L 199.247026 235.944138 
L 199.316971 235.787706 
L 199.384426 235.630184 
L 199.449374 235.471611 
L 199.511797 235.312027 
L 199.57168 235.151474 
L 199.629009 234.98999 
L 199.683768 234.827617 
L 199.735944 234.664396 
L 199.785524 234.500368 
L 199.832495 234.335573 
L 199.876846 234.170055 
L 199.918565 234.003853 
L 199.957642 233.83701 
L 199.994066 233.669568 
L 200.02783 233.50157 
L 200.058924 233.333057 
L 200.08734 233.164071 
L 200.113072 232.994657 
L 200.136112 232.824855 
L 200.156455 232.654709 
L 200.174097 232.484262 
L 200.189032 232.313556 
L 200.201256 232.142635 
L 200.210767 231.971541 
L 200.217563 231.800318 
L 200.221641 231.629009 
L 200.223 231.457656 
L 200.223 206.257656 
L 200.221641 206.086304 
L 200.217563 205.914995 
L 200.210767 205.743772 
L 200.201256 205.572678 
L 200.189032 205.401757 
L 200.174097 205.231051 
L 200.156455 205.060604 
L 200.136112 204.890458 
L 200.113072 204.720656 
L 200.08734 204.551241 
L 200.058924 204.382256 
L 200.02783 204.213743 
L 199.994066 204.045744 
L 199.957642 203.878302 
L 199.918565 203.71146 
L 199.876846 203.545258 
L 199.832495 203.379739 
L 199.785524 203.214945 
L 199.735944 203.050916 
L 199.683768 202.887695 
L 199.629009 202.725322 
L 199.57168 202.563839 
L 199.511797 202.403285 
L 199.449374 202.243702 
L 199.384426 202.085129 
L 199.316971 201.927606 
L 199.247026 201.771174 
L 199.174607 201.615871 
L 199.099733 201.461737 
L 199.022423 201.30881 
L 198.942696 201.157129 
L 198.860573 201.006732 
L 198.776074 200.857656 
L 198.689221 200.70994 
L 198.600035 200.563621 
L 198.508538 200.418735 
L 198.414754 200.27532 
L 198.318707 200.13341 
L 198.22042 199.993042 
L 198.119919 199.854251 
L 198.017228 199.717072 
L 197.912373 199.581539 
L 197.805382 199.447687 
L 197.69628 199.31555 
L 197.585095 199.18516 
L 197.471856 199.056551 
L 197.35659 198.929755 
L 197.239328 198.804803 
L 197.120097 198.681727 
L 196.998929 198.560559 
L 196.875853 198.441329 
L 196.750902 198.324066 
L 196.624105 198.2088 
L 196.495496 198.095561 
L 196.365106 197.984376 
L 196.232969 197.875274 
L 196.099117 197.768283 
L 195.963585 197.663428 
L 195.826406 197.560737 
L 195.687615 197.460236 
L 195.547247 197.361949 
L 195.405337 197.265902 
L 195.261921 197.172118 
L 195.117035 197.080622 
L 194.970716 196.991435 
L 194.823 196.904582 
L 194.673925 196.820083 
L 194.523528 196.73796 
L 194.371846 196.658233 
L 194.218919 196.580923 
L 194.064785 196.50605 
L 193.909482 196.433631 
L 193.75305 196.363685 
L 193.595527 196.29623 
L 193.436955 196.231283 
L 193.277371 196.168859 
L 193.116818 196.108976 
L 192.955334 196.051647 
L 192.792961 195.996888 
L 192.62974 195.944712 
L 192.465712 195.895132 
L 192.300917 195.848161 
L 192.135398 195.80381 
L 191.969197 195.762091 
L 191.802354 195.723015 
L 191.634912 195.68659 
L 191.466913 195.652826 
L 191.2984 195.621733 
L 191.129415 195.593316 
L 190.96 195.567585 
L 190.790198 195.544544 
L 190.620053 195.524201 
L 190.449605 195.506559 
L 190.2789 195.491625 
L 190.107978 195.4794 
L 189.936885 195.469889 
L 189.765662 195.463094 
L 189.594352 195.459016 
L 189.423 195.457656 
L 143.127 195.457656 
L 142.955648 195.459016 
L 142.784338 195.463094 
L 142.613115 195.469889 
L 142.442022 195.4794 
L 142.2711 195.491625 
L 142.100395 195.506559 
L 141.929947 195.524201 
L 141.759802 195.544544 
L 141.59 195.567585 
L 141.420585 195.593316 
L 141.2516 195.621733 
L 141.083087 195.652826 
L 140.915088 195.68659 
L 140.747646 195.723015 
L 140.580803 195.762091 
L 140.414602 195.80381 
L 140.249083 195.848161 
L 140.084288 195.895132 
L 139.92026 195.944712 
L 139.757039 195.996888 
L 139.594666 196.051647 
L 139.433182 196.108976 
L 139.272629 196.168859 
L 139.113045 196.231283 
L 138.954473 196.29623 
L 138.79695 196.363685 
L 138.640518 196.433631 
L 138.485215 196.50605 
L 138.331081 196.580923 
L 138.178154 196.658233 
L 138.026472 196.73796 
L 137.876075 196.820083 
L 137.727 196.904582 
L 137.579284 196.991435 
L 137.432965 197.080622 
L 137.288079 197.172118 
L 137.144663 197.265902 
L 137.002753 197.361949 
L 136.862385 197.460236 
L 136.723594 197.560737 
L 136.586415 197.663428 
L 136.450883 197.768283 
L 136.317031 197.875274 
L 136.184894 197.984376 
L 136.054504 198.095561 
L 135.925895 198.2088 
L 135.799098 198.324066 
L 135.674147 198.441329 
L 135.551071 198.560559 
L 135.429903 198.681727 
L 135.310672 198.804803 
L 135.19341 198.929755 
L 135.078144 199.056551 
L 134.964905 199.18516 
L 134.85372 199.31555 
L 134.744618 199.447687 
L 134.637627 199.581539 
L 134.532772 199.717072 
L 134.430081 199.854251 
L 134.32958 199.993042 
L 134.231293 200.13341 
L 134.135246 200.27532 
L 134.041462 200.418735 
L 133.949965 200.563621 
L 133.860779 200.70994 
L 133.773926 200.857656 
L 133.689427 201.006732 
L 133.607304 201.157129 
L 133.527577 201.30881 
L 133.450267 201.461737 
L 133.375393 201.615871 
L 133.302974 201.771174 
L 133.233029 201.927606 
L 133.165574 202.085129 
L 133.100626 202.243702 
L 133.038203 202.403285 
L 132.97832 202.563839 
L 132.920991 202.725322 
L 132.866232 202.887695 
L 132.814056 203.050916 
L 132.764476 203.214945 
L 132.717505 203.379739 
L 132.673154 203.545258 
L 132.631435 203.71146 
L 132.592358 203.878302 
L 132.555934 204.045744 
L 132.52217 204.213743 
L 132.491076 204.382256 
L 132.46266 204.551241 
L 132.436928 204.720656 
L 132.413888 204.890458 
L 132.393545 205.060604 
L 132.375903 205.231051 
L 132.360968 205.401757 
L 132.348744 205.572678 
L 132.339233 205.743772 
L 132.332437 205.914995 
L 132.328359 206.086304 
L 132.327 206.257656 
L 132.327 231.457656 
L 132.328359 231.629009 
L 132.332437 231.800318 
L 132.339233 231.971541 
L 132.348744 232.142635 
L 132.360968 232.313556 
L 132.375903 232.484262 
L 132.393545 232.654709 
L 132.413888 232.824855 
L 132.436928 232.994657 
L 132.46266 233.164071 
L 132.491076 233.333057 
L 132.52217 233.50157 
L 132.555934 233.669568 
L 132.592358 233.83701 
L 132.631435 234.003853 
L 132.673154 234.170055 
L 132.717505 234.335573 
L 132.764476 234.500368 
L 132.814056 234.664396 
L 132.866232 234.827617 
L 132.920991 234.98999 
L 132.97832 235.151474 
L 133.038203 235.312027 
L 133.100626 235.471611 
L 133.165574 235.630184 
L 133.233029 235.787706 
L 133.302974 235.944138 
L 133.375393 236.099441 
L 133.450267 236.253576 
L 133.527577 236.406503 
L 133.607304 236.558184 
L 133.689427 236.708581 
L 133.773926 236.857656 
L 133.860779 237.005372 
L 133.949965 237.151691 
L 134.041462 237.296577 
L 134.135246 237.439993 
L 134.231293 237.581903 
L 134.32958 237.722271 
L 134.430081 237.861062 
L 134.532772 237.998241 
L 134.637627 238.133773 
L 134.744618 238.267625 
L 134.85372 238.399762 
L 134.964905 238.530152 
L 135.078144 238.658761 
L 135.19341 238.785558 
L 135.310672 238.91051 
L 135.429903 239.033585 
L 135.551071 239.154753 
L 135.674147 239.273984 
L 135.799098 239.391247 
L 135.925895 239.506512 
L 136.054504 239.619752 
L 136.184894 239.730936 
L 136.317031 239.840038 
L 136.450883 239.94703 
L 136.586415 240.051884 
L 136.723594 240.154575 
L 136.862385 240.255077 
L 137.002753 240.353363 
L 137.144663 240.449411 
L 137.288079 240.543194 
L 137.432965 240.634691 
L 137.579284 240.723877 
L 137.727 240.810731 
L 137.876075 240.89523 
L 138.026472 240.977353 
L 138.178154 241.057079 
L 138.331081 241.134389 
L 138.485215 241.209263 
L 138.640518 241.281682 
L 138.79695 241.351628 
L 138.954473 241.419083 
L 139.113045 241.48403 
L 139.272629 241.546453 
L 139.433182 241.606337 
L 139.594666 241.663665 
L 139.757039 241.718424 
L 139.92026 241.7706 
L 140.084288 241.82018 
L 140.249083 241.867152 
L 140.414602 241.911502 
L 140.580803 241.953221 
L 140.747646 241.992298 
L 140.915088 242.028723 
L 141.083087 242.062486 
L 141.2516 242.09358 
L 141.420585 242.121996 
L 141.59 242.147728 
L 141.759802 242.170768 
L 141.929947 242.191112 
L 142.100395 242.208753 
L 142.2711 242.223688 
L 142.442022 242.235912 
L 142.613115 242.245424 
L 142.784338 242.252219 
L 142.955648 242.256297 
L 143.127 242.257656 
z
" clip-path="url(#p527dbb86b5)" style="fill: #00ffff; stroke-dasharray: 5.55,2.4; stroke-dashoffset: 0; stroke: #00ffff; stroke-width: 1.5; stroke-linecap: round"/>
   </g>
   <g id="patch_4">
    <path d="M 180.423 116.857656 
L 180.594352 116.856297 
L 180.765662 116.852219 
L 180.936885 116.845424 
L 181.107978 116.835912 
L 181.2789 116.823688 
L 181.449605 116.808753 
L 181.620053 116.791112 
L 181.790198 116.770768 
L 181.96 116.747728 
L 182.129415 116.721996 
L 182.2984 116.69358 
L 182.466913 116.662486 
L 182.634912 116.628723 
L 182.802354 116.592298 
L 182.969197 116.553221 
L 183.135398 116.511502 
L 183.300917 116.467152 
L 183.465712 116.42018 
L 183.62974 116.3706 
L 183.792961 116.318424 
L 183.955334 116.263665 
L 184.116818 116.206337 
L 184.277371 116.146453 
L 184.436955 116.08403 
L 184.595527 116.019083 
L 184.75305 115.951628 
L 184.909482 115.881682 
L 185.064785 115.809263 
L 185.218919 115.734389 
L 185.371846 115.657079 
L 185.523528 115.577353 
L 185.673925 115.49523 
L 185.823 115.410731 
L 185.970716 115.323877 
L 186.117035 115.234691 
L 186.261921 115.143194 
L 186.405337 115.049411 
L 186.547247 114.953363 
L 186.687615 114.855077 
L 186.826406 114.754575 
L 186.963585 114.651884 
L 187.099117 114.54703 
L 187.232969 114.440038 
L 187.365106 114.330936 
L 187.495496 114.219752 
L 187.624105 114.106512 
L 187.750902 113.991247 
L 187.875853 113.873984 
L 187.998929 113.754753 
L 188.120097 113.633585 
L 188.239328 113.51051 
L 188.35659 113.385558 
L 188.471856 113.258761 
L 188.585095 113.130152 
L 188.69628 112.999762 
L 188.805382 112.867625 
L 188.912373 112.733773 
L 189.017228 112.598241 
L 189.119919 112.461062 
L 189.22042 112.322271 
L 189.318707 112.181903 
L 189.414754 112.039993 
L 189.508538 111.896577 
L 189.600035 111.751691 
L 189.689221 111.605372 
L 189.776074 111.457656 
L 189.860573 111.308581 
L 189.942696 111.158184 
L 190.022423 111.006503 
L 190.099733 110.853576 
L 190.174607 110.699441 
L 190.247026 110.544138 
L 190.316971 110.387706 
L 190.384426 110.230184 
L 190.449374 110.071611 
L 190.511797 109.912027 
L 190.57168 109.751474 
L 190.629009 109.58999 
L 190.683768 109.427617 
L 190.735944 109.264396 
L 190.785524 109.100368 
L 190.832495 108.935573 
L 190.876846 108.770055 
L 190.918565 108.603853 
L 190.957642 108.43701 
L 190.994066 108.269568 
L 191.02783 108.10157 
L 191.058924 107.933057 
L 191.08734 107.764071 
L 191.113072 107.594657 
L 191.136112 107.424855 
L 191.156455 107.254709 
L 191.174097 107.084262 
L 191.189032 106.913556 
L 191.201256 106.742635 
L 191.210767 106.571541 
L 191.217563 106.400318 
L 191.221641 106.229009 
L 191.223 106.057656 
L 191.223 84.097656 
L 191.221641 83.926304 
L 191.217563 83.754995 
L 191.210767 83.583772 
L 191.201256 83.412678 
L 191.189032 83.241757 
L 191.174097 83.071051 
L 191.156455 82.900604 
L 191.136112 82.730458 
L 191.113072 82.560656 
L 191.08734 82.391241 
L 191.058924 82.222256 
L 191.02783 82.053743 
L 190.994066 81.885744 
L 190.957642 81.718302 
L 190.918565 81.55146 
L 190.876846 81.385258 
L 190.832495 81.219739 
L 190.785524 81.054945 
L 190.735944 80.890916 
L 190.683768 80.727695 
L 190.629009 80.565322 
L 190.57168 80.403839 
L 190.511797 80.243285 
L 190.449374 80.083702 
L 190.384426 79.925129 
L 190.316971 79.767606 
L 190.247026 79.611174 
L 190.174607 79.455871 
L 190.099733 79.301737 
L 190.022423 79.14881 
L 189.942696 78.997129 
L 189.860573 78.846732 
L 189.776074 78.697656 
L 189.689221 78.54994 
L 189.600035 78.403621 
L 189.508538 78.258735 
L 189.414754 78.11532 
L 189.318707 77.97341 
L 189.22042 77.833042 
L 189.119919 77.694251 
L 189.017228 77.557072 
L 188.912373 77.421539 
L 188.805382 77.287687 
L 188.69628 77.15555 
L 188.585095 77.02516 
L 188.471856 76.896551 
L 188.35659 76.769755 
L 188.239328 76.644803 
L 188.120097 76.521727 
L 187.998929 76.400559 
L 187.875853 76.281329 
L 187.750902 76.164066 
L 187.624105 76.0488 
L 187.495496 75.935561 
L 187.365106 75.824376 
L 187.232969 75.715274 
L 187.099117 75.608283 
L 186.963585 75.503428 
L 186.826406 75.400737 
L 186.687615 75.300236 
L 186.547247 75.201949 
L 186.405337 75.105902 
L 186.261921 75.012118 
L 186.117035 74.920622 
L 185.970716 74.831435 
L 185.823 74.744582 
L 185.673925 74.660083 
L 185.523528 74.57796 
L 185.371846 74.498233 
L 185.218919 74.420923 
L 185.064785 74.34605 
L 184.909482 74.273631 
L 184.75305 74.203685 
L 184.595527 74.13623 
L 184.436955 74.071283 
L 184.277371 74.008859 
L 184.116818 73.948976 
L 183.955334 73.891647 
L 183.792961 73.836888 
L 183.62974 73.784712 
L 183.465712 73.735132 
L 183.300917 73.688161 
L 183.135398 73.64381 
L 182.969197 73.602091 
L 182.802354 73.563015 
L 182.634912 73.52659 
L 182.466913 73.492826 
L 182.2984 73.461733 
L 182.129415 73.433316 
L 181.96 73.407585 
L 181.790198 73.384544 
L 181.620053 73.364201 
L 181.449605 73.346559 
L 181.2789 73.331625 
L 181.107978 73.3194 
L 180.936885 73.309889 
L 180.765662 73.303094 
L 180.594352 73.299016 
L 180.423 73.297656 
L 160.563 73.297656 
L 160.391648 73.299016 
L 160.220338 73.303094 
L 160.049115 73.309889 
L 159.878022 73.3194 
L 159.7071 73.331625 
L 159.536395 73.346559 
L 159.365947 73.364201 
L 159.195802 73.384544 
L 159.026 73.407585 
L 158.856585 73.433316 
L 158.6876 73.461733 
L 158.519087 73.492826 
L 158.351088 73.52659 
L 158.183646 73.563015 
L 158.016803 73.602091 
L 157.850602 73.64381 
L 157.685083 73.688161 
L 157.520288 73.735132 
L 157.35626 73.784712 
L 157.193039 73.836888 
L 157.030666 73.891647 
L 156.869182 73.948976 
L 156.708629 74.008859 
L 156.549045 74.071283 
L 156.390473 74.13623 
L 156.23295 74.203685 
L 156.076518 74.273631 
L 155.921215 74.34605 
L 155.767081 74.420923 
L 155.614154 74.498233 
L 155.462472 74.57796 
L 155.312075 74.660083 
L 155.163 74.744582 
L 155.015284 74.831435 
L 154.868965 74.920622 
L 154.724079 75.012118 
L 154.580663 75.105902 
L 154.438753 75.201949 
L 154.298385 75.300236 
L 154.159594 75.400737 
L 154.022415 75.503428 
L 153.886883 75.608283 
L 153.753031 75.715274 
L 153.620894 75.824376 
L 153.490504 75.935561 
L 153.361895 76.0488 
L 153.235098 76.164066 
L 153.110147 76.281329 
L 152.987071 76.400559 
L 152.865903 76.521727 
L 152.746672 76.644803 
L 152.62941 76.769755 
L 152.514144 76.896551 
L 152.400905 77.02516 
L 152.28972 77.15555 
L 152.180618 77.287687 
L 152.073627 77.421539 
L 151.968772 77.557072 
L 151.866081 77.694251 
L 151.76558 77.833042 
L 151.667293 77.97341 
L 151.571246 78.11532 
L 151.477462 78.258735 
L 151.385965 78.403621 
L 151.296779 78.54994 
L 151.209926 78.697656 
L 151.125427 78.846732 
L 151.043304 78.997129 
L 150.963577 79.14881 
L 150.886267 79.301737 
L 150.811393 79.455871 
L 150.738974 79.611174 
L 150.669029 79.767606 
L 150.601574 79.925129 
L 150.536626 80.083702 
L 150.474203 80.243285 
L 150.41432 80.403839 
L 150.356991 80.565322 
L 150.302232 80.727695 
L 150.250056 80.890916 
L 150.200476 81.054945 
L 150.153505 81.219739 
L 150.109154 81.385258 
L 150.067435 81.55146 
L 150.028358 81.718302 
L 149.991934 81.885744 
L 149.95817 82.053743 
L 149.927076 82.222256 
L 149.89866 82.391241 
L 149.872928 82.560656 
L 149.849888 82.730458 
L 149.829545 82.900604 
L 149.811903 83.071051 
L 149.796968 83.241757 
L 149.784744 83.412678 
L 149.775233 83.583772 
L 149.768437 83.754995 
L 149.764359 83.926304 
L 149.763 84.097656 
L 149.763 106.057656 
L 149.764359 106.229009 
L 149.768437 106.400318 
L 149.775233 106.571541 
L 149.784744 106.742635 
L 149.796968 106.913556 
L 149.811903 107.084262 
L 149.829545 107.254709 
L 149.849888 107.424855 
L 149.872928 107.594657 
L 149.89866 107.764071 
L 149.927076 107.933057 
L 149.95817 108.10157 
L 149.991934 108.269568 
L 150.028358 108.43701 
L 150.067435 108.603853 
L 150.109154 108.770055 
L 150.153505 108.935573 
L 150.200476 109.100368 
L 150.250056 109.264396 
L 150.302232 109.427617 
L 150.356991 109.58999 
L 150.41432 109.751474 
L 150.474203 109.912027 
L 150.536626 110.071611 
L 150.601574 110.230184 
L 150.669029 110.387706 
L 150.738974 110.544138 
L 150.811393 110.699441 
L 150.886267 110.853576 
L 150.963577 111.006503 
L 151.043304 111.158184 
L 151.125427 111.308581 
L 151.209926 111.457656 
L 151.296779 111.605372 
L 151.385965 111.751691 
L 151.477462 111.896577 
L 151.571246 112.039993 
L 151.667293 112.181903 
L 151.76558 112.322271 
L 151.866081 112.461062 
L 151.968772 112.598241 
L 152.073627 112.733773 
L 152.180618 112.867625 
L 152.28972 112.999762 
L 152.400905 113.130152 
L 152.514144 113.258761 
L 152.62941 113.385558 
L 152.746672 113.51051 
L 152.865903 113.633585 
L 152.987071 113.754753 
L 153.110147 113.873984 
L 153.235098 113.991247 
L 153.361895 114.106512 
L 153.490504 114.219752 
L 153.620894 114.330936 
L 153.753031 114.440038 
L 153.886883 114.54703 
L 154.022415 114.651884 
L 154.159594 114.754575 
L 154.298385 114.855077 
L 154.438753 114.953363 
L 154.580663 115.049411 
L 154.724079 115.143194 
L 154.868965 115.234691 
L 155.015284 115.323877 
L 155.163 115.410731 
L 155.312075 115.49523 
L 155.462472 115.577353 
L 155.614154 115.657079 
L 155.767081 115.734389 
L 155.921215 115.809263 
L 156.076518 115.881682 
L 156.23295 115.951628 
L 156.390473 116.019083 
L 156.549045 116.08403 
L 156.708629 116.146453 
L 156.869182 116.206337 
L 157.030666 116.263665 
L 157.193039 116.318424 
L 157.35626 116.3706 
L 157.520288 116.42018 
L 157.685083 116.467152 
L 157.850602 116.511502 
L 158.016803 116.553221 
L 158.183646 116.592298 
L 158.351088 116.628723 
L 158.519087 116.662486 
L 158.6876 116.69358 
L 158.856585 116.721996 
L 159.026 116.747728 
L 159.195802 116.770768 
L 159.365947 116.791112 
L 159.536395 116.808753 
L 159.7071 116.823688 
L 159.878022 116.835912 
L 160.049115 116.845424 
L 160.220338 116.852219 
L 160.391648 116.856297 
L 160.563 116.857656 
L 180.423 116.857656 
z
" clip-path="url(#p527dbb86b5)" style="fill: none; stroke-dasharray: 1.85,0.8; stroke-dashoffset: 0; stroke: #008000; stroke-width: 0.5; stroke-linecap: round"/>
   </g>
   <g id="line2d_1">
    <path d="M 156.963 94.777656 
L 170.163 94.777656 
" clip-path="url(#p527dbb86b5)" style="fill: none; stroke: #000000; stroke-width: 2; stroke-linecap: round"/>
   </g>
   <g id="line2d_2">
    <path d="M 170.163 81.577656 
L 170.163 107.977656 
" clip-path="url(#p527dbb86b5)" style="fill: none; stroke: #000000; stroke-width: 2; stroke-linecap: round"/>
   </g>
   <g id="line2d_3">
    <path d="M 170.163 88.177656 
L 184.023 76.297656 
L 184.023 69.697656 
" clip-path="url(#p527dbb86b5)" style="fill: none; stroke: #000000; stroke-width: 2; stroke-linecap: round"/>
   </g>
   <g id="line2d_4">
    <path d="M 170.163 101.377656 
L 184.023 113.257656 
L 184.023 119.857656 
" clip-path="url(#p527dbb86b5)" style="fill: none; stroke: #000000; stroke-width: 2; stroke-linecap: round"/>
   </g>
   <g id="line2d_5">
    <path d="M 170.163 101.377656 
L 177.189691 107.400534 
" clip-path="url(#p527dbb86b5)" style="fill: none; stroke: #000000; stroke-width: 2; stroke-linecap: round"/>
   </g>
   <g id="patch_5">
    <path d="M 179.53254 104.66721 
L 184.023 113.257656 
L 174.846842 110.133858 
z
" clip-path="url(#p527dbb86b5)"/>
   </g>
   <g id="line2d_6">
    <path d="M 156.963 94.777656 
L 147.963 94.777656 
L 138.963 94.777656 
" clip-path="url(#p527dbb86b5)" style="fill: none; stroke: #000000; stroke-width: 2; stroke-linecap: round"/>
   </g>
   <g id="line2d_7">
    <path d="M 138.963 94.777656 
L 138.963 76.777656 
L 138.963 58.777656 
" clip-path="url(#p527dbb86b5)" style="fill: none; stroke: #000000; stroke-width: 2; stroke-linecap: round"/>
   </g>
   <g id="line2d_8">
    <path d="M 138.963 58.777656 
L 75.963 58.777656 
L 12.963 58.777656 
" clip-path="url(#p527dbb86b5)" style="fill: none; stroke: #000000; stroke-width: 2; stroke-linecap: round"/>
   </g>
   <g id="line2d_9">
    <path d="M 184.023 119.857656 
L 184.023 155.857656 
L 184.023 191.857656 
" clip-path="url(#p527dbb86b5)" style="fill: none; stroke: #000000; stroke-width: 2; stroke-linecap: round"/>
   </g>
   <g id="line2d_10">
    <path d="M 184.023 191.857656 
L 184.023 200.857656 
L 193.023 203.857656 
L 175.023 209.857656 
L 193.023 215.857656 
L 175.023 221.857656 
L 193.023 227.857656 
L 175.023 233.857656 
L 184.023 236.857656 
L 184.023 245.857656 
" clip-path="url(#p527dbb86b5)" style="fill: none; stroke: #000000; stroke-width: 2; stroke-linecap: round"/>
   </g>
   <g id="line2d_11">
    <path d="M 184.023 191.857656 
L 130.023 191.857656 
L 76.023 191.857656 
" clip-path="url(#p527dbb86b5)" style="fill: none; stroke: #000000; stroke-width: 2; stroke-linecap: round"/>
   </g>
   <g id="line2d_12">
    <path d="M 76.023 191.857656 
L 76.023 182.857656 
L 67.023 179.857656 
L 85.023 173.857656 
L 67.023 167.857656 
L 85.023 161.857656 
L 67.023 155.857656 
L 85.023 149.857656 
L 76.023 146.857656 
L 76.023 137.857656 
" clip-path="url(#p527dbb86b5)" style="fill: none; stroke: #000000; stroke-width: 2; stroke-linecap: round"/>
   </g>
   <g id="line2d_13">
    <path d="M 76.023 137.857656 
L 76.023 128.857656 
L 76.023 119.857656 
" clip-path="url(#p527dbb86b5)" style="fill: none; stroke: #000000; stroke-width: 2; stroke-linecap: round"/>
   </g>
   <g id="line2d_14">
    <path d="M 76.023 119.857656 
L 76.023 110.857656 
L 67.023 107.857656 
L 85.023 101.857656 
L 67.023 95.857656 
L 85.023 89.857656 
L 67.023 83.857656 
L 85.023 77.857656 
L 76.023 74.857656 
L 76.023 65.857656 
" clip-path="url(#p527dbb86b5)" style="fill: none; stroke: #000000; stroke-width: 2; stroke-linecap: round"/>
   </g>
   <g id="line2d_15">
    <path d="M 76.023 65.857656 
L 76.023 49.777656 
L 76.023 33.697656 
" clip-path="url(#p527dbb86b5)" style="fill: none; stroke: #000000; stroke-width: 2; stroke-linecap: round"/>
   </g>
   <g id="line2d_16">
    <path d="M 76.023 33.697656 
L 76.023 19.297656 
" clip-path="url(#p527dbb86b5)" style="fill: none; stroke: #000000; stroke-width: 2; stroke-linecap: round"/>
   </g>
   <g id="line2d_17">
    <path d="M 76.023 19.297656 
L 69.273 19.297656 
" clip-path="url(#p527dbb86b5)" style="fill: none; stroke: #000000; stroke-width: 2; stroke-linecap: round"/>
   </g>
   <g id="line2d_18">
    <path d="M 76.023 19.297656 
L 82.773 19.297656 
" clip-path="url(#p527dbb86b5)" style="fill: none; stroke: #000000; stroke-width: 2; stroke-linecap: round"/>
   </g>
   <g id="line2d_19">
    <path d="M 76.023 33.697656 
L 130.023 33.697656 
L 184.023 33.697656 
" clip-path="url(#p527dbb86b5)" style="fill: none; stroke: #000000; stroke-width: 2; stroke-linecap: round"/>
   </g>
   <g id="line2d_20">
    <path d="M 184.023 33.697656 
L 184.023 51.697656 
L 184.023 69.697656 
" clip-path="url(#p527dbb86b5)" style="fill: none; stroke: #000000; stroke-width: 2; stroke-linecap: round"/>
   </g>
   <g id="line2d_21">
    <path d="M 76.023 137.857656 
L 67.023 137.857656 
L 58.023 137.857656 
" clip-path="url(#p527dbb86b5)" style="fill: none; stroke: #000000; stroke-width: 2; stroke-linecap: round"/>
   </g>
   <g id="line2d_22">
    <path d="M 58.023 137.857656 
L 44.823 137.857656 
" clip-path="url(#p527dbb86b5)" style="fill: none; stroke: #000000; stroke-width: 2; stroke-linecap: round"/>
   </g>
   <g id="line2d_23">
    <path d="M 44.823 124.657656 
L 44.823 151.057656 
" clip-path="url(#p527dbb86b5)" style="fill: none; stroke: #000000; stroke-width: 2; stroke-linecap: round"/>
   </g>
   <g id="line2d_24">
    <path d="M 44.823 131.257656 
L 30.963 119.377656 
L 30.963 112.777656 
" clip-path="url(#p527dbb86b5)" style="fill: none; stroke: #000000; stroke-width: 2; stroke-linecap: round"/>
   </g>
   <g id="line2d_25">
    <path d="M 44.823 144.457656 
L 30.963 156.337656 
L 30.963 162.937656 
" clip-path="url(#p527dbb86b5)" style="fill: none; stroke: #000000; stroke-width: 2; stroke-linecap: round"/>
   </g>
   <g id="line2d_26">
    <path d="M 44.823 144.457656 
L 37.796309 150.480534 
" clip-path="url(#p527dbb86b5)" style="fill: none; stroke: #000000; stroke-width: 2; stroke-linecap: round"/>
   </g>
   <g id="patch_6">
    <path d="M 40.139158 153.213858 
L 30.963 156.337656 
L 35.45346 147.74721 
z
" clip-path="url(#p527dbb86b5)"/>
   </g>
   <g id="line2d_27">
    <path d="M 30.963 162.937656 
L 30.963 204.397656 
L 30.963 245.857656 
" clip-path="url(#p527dbb86b5)" style="fill: none; stroke: #000000; stroke-width: 2; stroke-linecap: round"/>
   </g>
   <g id="line2d_28">
    <path d="M 30.963 245.857656 
L 107.493 245.857656 
L 184.023 245.857656 
" clip-path="url(#p527dbb86b5)" style="fill: none; stroke: #000000; stroke-width: 2; stroke-linecap: round"/>
   </g>
   <g id="line2d_29">
    <path d="M 30.963 112.777656 
L 30.963 85.777656 
L 30.963 58.777656 
" clip-path="url(#p527dbb86b5)" style="fill: none; stroke: #000000; stroke-width: 2; stroke-linecap: round"/>
   </g>
   <g id="text_1">
    <!-- $R_{I1}$ -->
    <g transform="translate(154.173 222.306875) scale(0.125 -0.125)">
     <defs>
      <path id="DejaVuSans-Oblique-52" d="M 1613 4147 
L 1294 2491 
L 2106 2491 
Q 2584 2491 2879 2755 
Q 3175 3019 3175 3444 
Q 3175 3784 2976 3965 
Q 2778 4147 2406 4147 
L 1613 4147 
z
M 2772 2241 
Q 2972 2194 3105 2009 
Q 3238 1825 3413 1275 
L 3809 0 
L 3144 0 
L 2778 1197 
Q 2638 1659 2453 1815 
Q 2269 1972 1888 1972 
L 1191 1972 
L 806 0 
L 172 0 
L 1081 4666 
L 2503 4666 
Q 3150 4666 3495 4373 
Q 3841 4081 3841 3531 
Q 3841 3044 3547 2687 
Q 3253 2331 2772 2241 
z
" transform="scale(0.015625)"/>
      <path id="DejaVuSans-Oblique-49" d="M 1081 4666 
L 1716 4666 
L 806 0 
L 172 0 
L 1081 4666 
z
" transform="scale(0.015625)"/>
      <path id="DejaVuSans-31" d="M 794 531 
L 1825 531 
L 1825 4091 
L 703 3866 
L 703 4441 
L 1819 4666 
L 2450 4666 
L 2450 531 
L 3481 531 
L 3481 0 
L 794 0 
L 794 531 
z
" transform="scale(0.015625)"/>
     </defs>
     <use xlink:href="#DejaVuSans-Oblique-52" transform="translate(0 0.09375)"/>
     <use xlink:href="#DejaVuSans-Oblique-49" transform="translate(69.482422 -16.3125) scale(0.7)"/>
     <use xlink:href="#DejaVuSans-31" transform="translate(90.126953 -16.3125) scale(0.7)"/>
    </g>
   </g>
   <g id="text_2">
    <!-- $R_{v1}$ -->
    <g transform="translate(90.348 168.306875) scale(0.125 -0.125)">
     <defs>
      <path id="DejaVuSans-Oblique-76" d="M 459 3500 
L 1069 3500 
L 1581 525 
L 3256 3500 
L 3866 3500 
L 1875 0 
L 1100 0 
L 459 3500 
z
" transform="scale(0.015625)"/>
     </defs>
     <use xlink:href="#DejaVuSans-Oblique-52" transform="translate(0 0.09375)"/>
     <use xlink:href="#DejaVuSans-Oblique-76" transform="translate(69.482422 -16.3125) scale(0.7)"/>
     <use xlink:href="#DejaVuSans-31" transform="translate(110.908203 -16.3125) scale(0.7)"/>
    </g>
   </g>
   <g id="text_3">
    <!-- $R_{v2}$ -->
    <g transform="translate(90.348 96.306875) scale(0.125 -0.125)">
     <defs>
      <path id="DejaVuSans-32" d="M 1228 531 
L 3431 531 
L 3431 0 
L 469 0 
L 469 531 
Q 828 903 1448 1529 
Q 2069 2156 2228 2338 
Q 2531 2678 2651 2914 
Q 2772 3150 2772 3378 
Q 2772 3750 2511 3984 
Q 2250 4219 1831 4219 
Q 1534 4219 1204 4116 
Q 875 4013 500 3803 
L 500 4441 
Q 881 4594 1212 4672 
Q 1544 4750 1819 4750 
Q 2544 4750 2975 4387 
Q 3406 4025 3406 3419 
Q 3406 3131 3298 2873 
Q 3191 2616 2906 2266 
Q 2828 2175 2409 1742 
Q 1991 1309 1228 531 
z
" transform="scale(0.015625)"/>
     </defs>
     <use xlink:href="#DejaVuSans-Oblique-52" transform="translate(0 0.09375)"/>
     <use xlink:href="#DejaVuSans-Oblique-76" transform="translate(69.482422 -16.3125) scale(0.7)"/>
     <use xlink:href="#DejaVuSans-32" transform="translate(110.908203 -16.3125) scale(0.7)"/>
    </g>
   </g>
   <g id="text_4">
    <!-- $V_{DD}$ -->
    <g transform="translate(64.8355 13.098047) scale(0.125 -0.125)">
     <defs>
      <path id="DejaVuSans-Oblique-56" d="M 1319 0 
L 500 4666 
L 1119 4666 
L 1797 653 
L 4063 4666 
L 4750 4666 
L 2053 0 
L 1319 0 
z
" transform="scale(0.015625)"/>
      <path id="DejaVuSans-Oblique-44" d="M 1081 4666 
L 2438 4666 
Q 3519 4666 4070 4208 
Q 4622 3750 4622 2847 
Q 4622 2250 4412 1698 
Q 4203 1147 3834 769 
Q 3463 381 2891 190 
Q 2319 0 1538 0 
L 172 0 
L 1081 4666 
z
M 1613 4147 
L 909 519 
L 1734 519 
Q 2794 519 3375 1128 
Q 3956 1738 3956 2847 
Q 3956 3519 3581 3833 
Q 3206 4147 2406 4147 
L 1613 4147 
z
" transform="scale(0.015625)"/>
     </defs>
     <use xlink:href="#DejaVuSans-Oblique-56" transform="translate(0 0.09375)"/>
     <use xlink:href="#DejaVuSans-Oblique-44" transform="translate(68.408203 -16.3125) scale(0.7)"/>
     <use xlink:href="#DejaVuSans-Oblique-44" transform="translate(122.30957 -16.3125) scale(0.7)"/>
    </g>
   </g>
   <g id="patch_7">
    <path d="M 184.023 194.557656 
C 184.739048 194.557656 185.425866 194.273167 185.932188 193.766845 
C 186.438511 193.260522 186.723 192.573705 186.723 191.857656 
C 186.723 191.141608 186.438511 190.454791 185.932188 189.948468 
C 185.425866 189.442145 184.739048 189.157656 184.023 189.157656 
C 183.306952 189.157656 182.620134 189.442145 182.113812 189.948468 
C 181.607489 190.454791 181.323 191.141608 181.323 191.857656 
C 181.323 192.573705 181.607489 193.260522 182.113812 193.766845 
C 182.620134 194.273167 183.306952 194.557656 184.023 194.557656 
z
" clip-path="url(#p527dbb86b5)" style="stroke: #000000; stroke-width: 2; stroke-linejoin: miter"/>
   </g>
   <g id="patch_8">
    <path d="M 184.023 248.557656 
C 184.739048 248.557656 185.425866 248.273167 185.932188 247.766845 
C 186.438511 247.260522 186.723 246.573705 186.723 245.857656 
C 186.723 245.141608 186.438511 244.454791 185.932188 243.948468 
C 185.425866 243.442145 184.739048 243.157656 184.023 243.157656 
C 183.306952 243.157656 182.620134 243.442145 182.113812 243.948468 
C 181.607489 244.454791 181.323 245.141608 181.323 245.857656 
C 181.323 246.573705 181.607489 247.260522 182.113812 247.766845 
C 182.620134 248.273167 183.306952 248.557656 184.023 248.557656 
z
" clip-path="url(#p527dbb86b5)" style="stroke: #000000; stroke-width: 2; stroke-linejoin: miter"/>
   </g>
   <g id="patch_9">
    <path d="M 76.023 140.557656 
C 76.739048 140.557656 77.425866 140.273167 77.932188 139.766845 
C 78.438511 139.260522 78.723 138.573705 78.723 137.857656 
C 78.723 137.141608 78.438511 136.454791 77.932188 135.948468 
C 77.425866 135.442145 76.739048 135.157656 76.023 135.157656 
C 75.306952 135.157656 74.620134 135.442145 74.113812 135.948468 
C 73.607489 136.454791 73.323 137.141608 73.323 137.857656 
C 73.323 138.573705 73.607489 139.260522 74.113812 139.766845 
C 74.620134 140.273167 75.306952 140.557656 76.023 140.557656 
z
" clip-path="url(#p527dbb86b5)" style="stroke: #000000; stroke-width: 2; stroke-linejoin: miter"/>
   </g>
   <g id="patch_10">
    <path d="M 76.023 36.397656 
C 76.739048 36.397656 77.425866 36.113167 77.932188 35.606845 
C 78.438511 35.100522 78.723 34.413705 78.723 33.697656 
C 78.723 32.981608 78.438511 32.294791 77.932188 31.788468 
C 77.425866 31.282145 76.739048 30.997656 76.023 30.997656 
C 75.306952 30.997656 74.620134 31.282145 74.113812 31.788468 
C 73.607489 32.294791 73.323 32.981608 73.323 33.697656 
C 73.323 34.413705 73.607489 35.100522 74.113812 35.606845 
C 74.620134 36.113167 75.306952 36.397656 76.023 36.397656 
z
" clip-path="url(#p527dbb86b5)" style="stroke: #000000; stroke-width: 2; stroke-linejoin: miter"/>
   </g>
   <g id="patch_11">
    <path d="M 30.963 61.477656 
C 31.679048 61.477656 32.365866 61.193167 32.872188 60.686845 
C 33.378511 60.180522 33.663 59.493705 33.663 58.777656 
C 33.663 58.061608 33.378511 57.374791 32.872188 56.868468 
C 32.365866 56.362145 31.679048 56.077656 30.963 56.077656 
C 30.246952 56.077656 29.560134 56.362145 29.053812 56.868468 
C 28.547489 57.374791 28.263 58.061608 28.263 58.777656 
C 28.263 59.493705 28.547489 60.180522 29.053812 60.686845 
C 29.560134 61.193167 30.246952 61.477656 30.963 61.477656 
z
" clip-path="url(#p527dbb86b5)" style="stroke: #000000; stroke-width: 2; stroke-linejoin: miter"/>
   </g>
  </g>
 </g>
 <defs>
  <clipPath id="p527dbb86b5">
   <rect x="3.6" y="7.834656" width="205.986" height="252.186"/>
  </clipPath>
 </defs>
</svg>