<?xml version="1.0" encoding="utf-8" standalone="no"?>
<!DOCTYPE svg PUBLIC "-//W3C//DTD SVG 1.1//EN"
  "http://www.w3.org/Graphics/SVG/1.1/DTD/svg11.dtd">
<svg xmlns:xlink="http://www.w3.org/1999/xlink" width="312.186pt" height="283.155312pt" viewBox="0 0 312.186 283.155312" xmlns="http://www.w3.org/2000/svg" version="1.1">
 <metadata>
  <rdf:RDF xmlns:dc="http://purl.org/dc/elements/1.1/" xmlns:cc="http://creativecommons.org/ns#" xmlns:rdf="http://www.w3.org/1999/02/22-rdf-syntax-ns#">
   <cc:Work>
    <dc:type rdf:resource="http://purl.org/dc/dcmitype/StillImage"/>
    <dc:date>2024-01-02T14:28:52.764618</dc:date>
    <dc:format>image/svg+xml</dc:format>
    <dc:creator>
     <cc:Agent>
      <dc:title>Matplotlib v3.8.2, https://matplotlib.org/</dc:title>
     </cc:Agent>
    </dc:creator>
   </cc:Work>
  </rdf:RDF>
 </metadata>
 <defs>
  <style type="text/css">*{stroke-linejoin: round; stroke-linecap: butt}</style>
 </defs>
 <g id="figure_1">
  <g id="patch_1">
   <path d="M 0 283.155312 
L 312.186 283.155312 
L 312.186 0 
L 0 0 
z
" style="fill: #ffffff"/>
  </g>
  <g id="axes_1">
   <g id="patch_2">
    <path d="M 55.263 96.577656 
L 67.863 105.577656 
L 55.263 114.577656 
L 55.263 96.577656 
z
" clip-path="url(#p77974b370c)" style="fill: none; stroke: #000000; stroke-width: 2; stroke-linecap: round"/>
   </g>
   <g id="patch_3">
    <path d="M 67.863 186.577656 
L 55.263 177.577656 
L 67.863 168.577656 
L 67.863 186.577656 
z
" clip-path="url(#p77974b370c)" style="fill: none; stroke: #000000; stroke-width: 2; stroke-linecap: round"/>
   </g>
   <g id="patch_4">
    <path d="M 172.323 89.497656 
L 159.723 80.497656 
L 172.323 71.497656 
L 172.323 89.497656 
z
" clip-path="url(#p77974b370c)" style="fill: none; stroke: #000000; stroke-width: 2; stroke-linecap: round"/>
   </g>
   <g id="patch_5">
    <path d="M 159.723 193.657656 
L 172.323 202.657656 
L 159.723 211.657656 
L 159.723 193.657656 
z
" clip-path="url(#p77974b370c)" style="fill: none; stroke: #000000; stroke-width: 2; stroke-linecap: round"/>
   </g>
   <g id="patch_6">
    <path d="M 104.823 138.457656 
L 104.994352 138.456297 
L 105.165662 138.452219 
L 105.336885 138.445424 
L 105.507978 138.435912 
L 105.6789 138.423688 
L 105.849605 138.408753 
L 106.020053 138.391112 
L 106.190198 138.370768 
L 106.36 138.347728 
L 106.529415 138.321996 
L 106.6984 138.29358 
L 106.866913 138.262486 
L 107.034912 138.228723 
L 107.202354 138.192298 
L 107.369197 138.153221 
L 107.535398 138.111502 
L 107.700917 138.067152 
L 107.865712 138.02018 
L 108.02974 137.9706 
L 108.192961 137.918424 
L 108.355334 137.863665 
L 108.516818 137.806337 
L 108.677371 137.746453 
L 108.836955 137.68403 
L 108.995527 137.619083 
L 109.15305 137.551628 
L 109.309482 137.481682 
L 109.464785 137.409263 
L 109.618919 137.334389 
L 109.771846 137.257079 
L 109.923528 137.177353 
L 110.073925 137.09523 
L 110.223 137.010731 
L 110.370716 136.923877 
L 110.517035 136.834691 
L 110.661921 136.743194 
L 110.805337 136.649411 
L 110.947247 136.553363 
L 111.087615 136.455077 
L 111.226406 136.354575 
L 111.363585 136.251884 
L 111.499117 136.14703 
L 111.632969 136.040038 
L 111.765106 135.930936 
L 111.895496 135.819752 
L 112.024105 135.706512 
L 112.150902 135.591247 
L 112.275853 135.473984 
L 112.398929 135.354753 
L 112.520097 135.233585 
L 112.639328 135.11051 
L 112.75659 134.985558 
L 112.871856 134.858761 
L 112.985095 134.730152 
L 113.09628 134.599762 
L 113.205382 134.467625 
L 113.312373 134.333773 
L 113.417228 134.198241 
L 113.519919 134.061062 
L 113.62042 133.922271 
L 113.718707 133.781903 
L 113.814754 133.639993 
L 113.908538 133.496577 
L 114.000035 133.351691 
L 114.089221 133.205372 
L 114.176074 133.057656 
L 114.260573 132.908581 
L 114.342696 132.758184 
L 114.422423 132.606503 
L 114.499733 132.453576 
L 114.574607 132.299441 
L 114.647026 132.144138 
L 114.716971 131.987706 
L 114.784426 131.830184 
L 114.849374 131.671611 
L 114.911797 131.512027 
L 114.97168 131.351474 
L 115.029009 131.18999 
L 115.083768 131.027617 
L 115.135944 130.864396 
L 115.185524 130.700368 
L 115.232495 130.535573 
L 115.276846 130.370055 
L 115.318565 130.203853 
L 115.357642 130.03701 
L 115.394066 129.869568 
L 115.42783 129.70157 
L 115.458924 129.533057 
L 115.48734 129.364071 
L 115.513072 129.194657 
L 115.536112 129.024855 
L 115.556455 128.854709 
L 115.574097 128.684262 
L 115.589032 128.513556 
L 115.601256 128.342635 
L 115.610767 128.171541 
L 115.617563 128.000318 
L 115.621641 127.829009 
L 115.623 127.657656 
L 115.623 37.297656 
L 115.621641 37.126304 
L 115.617563 36.954995 
L 115.610767 36.783772 
L 115.601256 36.612678 
L 115.589032 36.441757 
L 115.574097 36.271051 
L 115.556455 36.100604 
L 115.536112 35.930458 
L 115.513072 35.760656 
L 115.48734 35.591241 
L 115.458924 35.422256 
L 115.42783 35.253743 
L 115.394066 35.085744 
L 115.357642 34.918302 
L 115.318565 34.75146 
L 115.276846 34.585258 
L 115.232495 34.419739 
L 115.185524 34.254945 
L 115.135944 34.090916 
L 115.083768 33.927695 
L 115.029009 33.765322 
L 114.97168 33.603839 
L 114.911797 33.443285 
L 114.849374 33.283702 
L 114.784426 33.125129 
L 114.716971 32.967606 
L 114.647026 32.811174 
L 114.574607 32.655871 
L 114.499733 32.501737 
L 114.422423 32.34881 
L 114.342696 32.197129 
L 114.260573 32.046732 
L 114.176074 31.897656 
L 114.089221 31.74994 
L 114.000035 31.603621 
L 113.908538 31.458735 
L 113.814754 31.31532 
L 113.718707 31.17341 
L 113.62042 31.033042 
L 113.519919 30.894251 
L 113.417228 30.757072 
L 113.312373 30.621539 
L 113.205382 30.487687 
L 113.09628 30.35555 
L 112.985095 30.22516 
L 112.871856 30.096551 
L 112.75659 29.969755 
L 112.639328 29.844803 
L 112.520097 29.721727 
L 112.398929 29.600559 
L 112.275853 29.481329 
L 112.150902 29.364066 
L 112.024105 29.2488 
L 111.895496 29.135561 
L 111.765106 29.024376 
L 111.632969 28.915274 
L 111.499117 28.808283 
L 111.363585 28.703428 
L 111.226406 28.600737 
L 111.087615 28.500236 
L 110.947247 28.401949 
L 110.805337 28.305902 
L 110.661921 28.212118 
L 110.517035 28.120622 
L 110.370716 28.031435 
L 110.223 27.944582 
L 110.073925 27.860083 
L 109.923528 27.77796 
L 109.771846 27.698233 
L 109.618919 27.620923 
L 109.464785 27.54605 
L 109.309482 27.473631 
L 109.15305 27.403685 
L 108.995527 27.33623 
L 108.836955 27.271283 
L 108.677371 27.208859 
L 108.516818 27.148976 
L 108.355334 27.091647 
L 108.192961 27.036888 
L 108.02974 26.984712 
L 107.865712 26.935132 
L 107.700917 26.888161 
L 107.535398 26.84381 
L 107.369197 26.802091 
L 107.202354 26.763015 
L 107.034912 26.72659 
L 106.866913 26.692826 
L 106.6984 26.661733 
L 106.529415 26.633316 
L 106.36 26.607585 
L 106.190198 26.584544 
L 106.020053 26.564201 
L 105.849605 26.546559 
L 105.6789 26.531625 
L 105.507978 26.5194 
L 105.336885 26.509889 
L 105.165662 26.503094 
L 104.994352 26.499016 
L 104.823 26.497656 
L 45.363 26.497656 
L 45.191648 26.499016 
L 45.020338 26.503094 
L 44.849115 26.509889 
L 44.678022 26.5194 
L 44.5071 26.531625 
L 44.336395 26.546559 
L 44.165947 26.564201 
L 43.995802 26.584544 
L 43.826 26.607585 
L 43.656585 26.633316 
L 43.4876 26.661733 
L 43.319087 26.692826 
L 43.151088 26.72659 
L 42.983646 26.763015 
L 42.816803 26.802091 
L 42.650602 26.84381 
L 42.485083 26.888161 
L 42.320288 26.935132 
L 42.15626 26.984712 
L 41.993039 27.036888 
L 41.830666 27.091647 
L 41.669182 27.148976 
L 41.508629 27.208859 
L 41.349045 27.271283 
L 41.190473 27.33623 
L 41.03295 27.403685 
L 40.876518 27.473631 
L 40.721215 27.54605 
L 40.567081 27.620923 
L 40.414154 27.698233 
L 40.262472 27.77796 
L 40.112075 27.860083 
L 39.963 27.944582 
L 39.815284 28.031435 
L 39.668965 28.120622 
L 39.524079 28.212118 
L 39.380663 28.305902 
L 39.238753 28.401949 
L 39.098385 28.500236 
L 38.959594 28.600737 
L 38.822415 28.703428 
L 38.686883 28.808283 
L 38.553031 28.915274 
L 38.420894 29.024376 
L 38.290504 29.135561 
L 38.161895 29.2488 
L 38.035098 29.364066 
L 37.910147 29.481329 
L 37.787071 29.600559 
L 37.665903 29.721727 
L 37.546672 29.844803 
L 37.42941 29.969755 
L 37.314144 30.096551 
L 37.200905 30.22516 
L 37.08972 30.35555 
L 36.980618 30.487687 
L 36.873627 30.621539 
L 36.768772 30.757072 
L 36.666081 30.894251 
L 36.56558 31.033042 
L 36.467293 31.17341 
L 36.371246 31.31532 
L 36.277462 31.458735 
L 36.185965 31.603621 
L 36.096779 31.74994 
L 36.009926 31.897656 
L 35.925427 32.046732 
L 35.843304 32.197129 
L 35.763577 32.34881 
L 35.686267 32.501737 
L 35.611393 32.655871 
L 35.538974 32.811174 
L 35.469029 32.967606 
L 35.401574 33.125129 
L 35.336626 33.283702 
L 35.274203 33.443285 
L 35.21432 33.603839 
L 35.156991 33.765322 
L 35.102232 33.927695 
L 35.050056 34.090916 
L 35.000476 34.254945 
L 34.953505 34.419739 
L 34.909154 34.585258 
L 34.867435 34.75146 
L 34.828358 34.918302 
L 34.791934 35.085744 
L 34.75817 35.253743 
L 34.727076 35.422256 
L 34.69866 35.591241 
L 34.672928 35.760656 
L 34.649888 35.930458 
L 34.629545 36.100604 
L 34.611903 36.271051 
L 34.596968 36.441757 
L 34.584744 36.612678 
L 34.575233 36.783772 
L 34.568437 36.954995 
L 34.564359 37.126304 
L 34.563 37.297656 
L 34.563 127.657656 
L 34.564359 127.829009 
L 34.568437 128.000318 
L 34.575233 128.171541 
L 34.584744 128.342635 
L 34.596968 128.513556 
L 34.611903 128.684262 
L 34.629545 128.854709 
L 34.649888 129.024855 
L 34.672928 129.194657 
L 34.69866 129.364071 
L 34.727076 129.533057 
L 34.75817 129.70157 
L 34.791934 129.869568 
L 34.828358 130.03701 
L 34.867435 130.203853 
L 34.909154 130.370055 
L 34.953505 130.535573 
L 35.000476 130.700368 
L 35.050056 130.864396 
L 35.102232 131.027617 
L 35.156991 131.18999 
L 35.21432 131.351474 
L 35.274203 131.512027 
L 35.336626 131.671611 
L 35.401574 131.830184 
L 35.469029 131.987706 
L 35.538974 132.144138 
L 35.611393 132.299441 
L 35.686267 132.453576 
L 35.763577 132.606503 
L 35.843304 132.758184 
L 35.925427 132.908581 
L 36.009926 133.057656 
L 36.096779 133.205372 
L 36.185965 133.351691 
L 36.277462 133.496577 
L 36.371246 133.639993 
L 36.467293 133.781903 
L 36.56558 133.922271 
L 36.666081 134.061062 
L 36.768772 134.198241 
L 36.873627 134.333773 
L 36.980618 134.467625 
L 37.08972 134.599762 
L 37.200905 134.730152 
L 37.314144 134.858761 
L 37.42941 134.985558 
L 37.546672 135.11051 
L 37.665903 135.233585 
L 37.787071 135.354753 
L 37.910147 135.473984 
L 38.035098 135.591247 
L 38.161895 135.706512 
L 38.290504 135.819752 
L 38.420894 135.930936 
L 38.553031 136.040038 
L 38.686883 136.14703 
L 38.822415 136.251884 
L 38.959594 136.354575 
L 39.098385 136.455077 
L 39.238753 136.553363 
L 39.380663 136.649411 
L 39.524079 136.743194 
L 39.668965 136.834691 
L 39.815284 136.923877 
L 39.963 137.010731 
L 40.112075 137.09523 
L 40.262472 137.177353 
L 40.414154 137.257079 
L 40.567081 137.334389 
L 40.721215 137.409263 
L 40.876518 137.481682 
L 41.03295 137.551628 
L 41.190473 137.619083 
L 41.349045 137.68403 
L 41.508629 137.746453 
L 41.669182 137.806337 
L 41.830666 137.863665 
L 41.993039 137.918424 
L 42.15626 137.9706 
L 42.320288 138.02018 
L 42.485083 138.067152 
L 42.650602 138.111502 
L 42.816803 138.153221 
L 42.983646 138.192298 
L 43.151088 138.228723 
L 43.319087 138.262486 
L 43.4876 138.29358 
L 43.656585 138.321996 
L 43.826 138.347728 
L 43.995802 138.370768 
L 44.165947 138.391112 
L 44.336395 138.408753 
L 44.5071 138.423688 
L 44.678022 138.435912 
L 44.849115 138.445424 
L 45.020338 138.452219 
L 45.191648 138.456297 
L 45.363 138.457656 
L 104.823 138.457656 
z
" clip-path="url(#p77974b370c)" style="fill: none; stroke-dasharray: 1.85,0.8; stroke-dashoffset: 0; stroke: #008000; stroke-width: 0.5; stroke-linecap: round"/>
   </g>
   <g id="patch_7">
    <path d="M 116.959753 29.660903 
C 152.959753 29.660903 125.959753 22.460903 166.459753 22.460903 
" clip-path="url(#p77974b370c)" style="fill: none; stroke: #008000; stroke-width: 2; stroke-linejoin: miter; stroke-linecap: round"/>
   </g>
   <g id="patch_8">
    <path d="M 121.459753 33.260903 
L 112.459753 29.660903 
L 121.459753 26.060903 
z
" clip-path="url(#p77974b370c)" style="fill: #008000"/>
   </g>
   <g id="patch_9">
    <path d="M 104.823 256.657656 
L 104.994352 256.656297 
L 105.165662 256.652219 
L 105.336885 256.645424 
L 105.507978 256.635912 
L 105.6789 256.623688 
L 105.849605 256.608753 
L 106.020053 256.591112 
L 106.190198 256.570768 
L 106.36 256.547728 
L 106.529415 256.521996 
L 106.6984 256.49358 
L 106.866913 256.462486 
L 107.034912 256.428723 
L 107.202354 256.392298 
L 107.369197 256.353221 
L 107.535398 256.311502 
L 107.700917 256.267152 
L 107.865712 256.22018 
L 108.02974 256.1706 
L 108.192961 256.118424 
L 108.355334 256.063665 
L 108.516818 256.006337 
L 108.677371 255.946453 
L 108.836955 255.88403 
L 108.995527 255.819083 
L 109.15305 255.751628 
L 109.309482 255.681682 
L 109.464785 255.609263 
L 109.618919 255.534389 
L 109.771846 255.457079 
L 109.923528 255.377353 
L 110.073925 255.29523 
L 110.223 255.210731 
L 110.370716 255.123877 
L 110.517035 255.034691 
L 110.661921 254.943194 
L 110.805337 254.849411 
L 110.947247 254.753363 
L 111.087615 254.655077 
L 111.226406 254.554575 
L 111.363585 254.451884 
L 111.499117 254.34703 
L 111.632969 254.240038 
L 111.765106 254.130936 
L 111.895496 254.019752 
L 112.024105 253.906512 
L 112.150902 253.791247 
L 112.275853 253.673984 
L 112.398929 253.554753 
L 112.520097 253.433585 
L 112.639328 253.31051 
L 112.75659 253.185558 
L 112.871856 253.058761 
L 112.985095 252.930152 
L 113.09628 252.799762 
L 113.205382 252.667625 
L 113.312373 252.533773 
L 113.417228 252.398241 
L 113.519919 252.261062 
L 113.62042 252.122271 
L 113.718707 251.981903 
L 113.814754 251.839993 
L 113.908538 251.696577 
L 114.000035 251.551691 
L 114.089221 251.405372 
L 114.176074 251.257656 
L 114.260573 251.108581 
L 114.342696 250.958184 
L 114.422423 250.806503 
L 114.499733 250.653576 
L 114.574607 250.499441 
L 114.647026 250.344138 
L 114.716971 250.187706 
L 114.784426 250.030184 
L 114.849374 249.871611 
L 114.911797 249.712027 
L 114.97168 249.551474 
L 115.029009 249.38999 
L 115.083768 249.227617 
L 115.135944 249.064396 
L 115.185524 248.900368 
L 115.232495 248.735573 
L 115.276846 248.570055 
L 115.318565 248.403853 
L 115.357642 248.23701 
L 115.394066 248.069568 
L 115.42783 247.90157 
L 115.458924 247.733057 
L 115.48734 247.564071 
L 115.513072 247.394657 
L 115.536112 247.224855 
L 115.556455 247.054709 
L 115.574097 246.884262 
L 115.589032 246.713556 
L 115.601256 246.542635 
L 115.610767 246.371541 
L 115.617563 246.200318 
L 115.621641 246.029009 
L 115.623 245.857656 
L 115.623 155.497656 
L 115.621641 155.326304 
L 115.617563 155.154995 
L 115.610767 154.983772 
L 115.601256 154.812678 
L 115.589032 154.641757 
L 115.574097 154.471051 
L 115.556455 154.300604 
L 115.536112 154.130458 
L 115.513072 153.960656 
L 115.48734 153.791241 
L 115.458924 153.622256 
L 115.42783 153.453743 
L 115.394066 153.285744 
L 115.357642 153.118302 
L 115.318565 152.95146 
L 115.276846 152.785258 
L 115.232495 152.619739 
L 115.185524 152.454945 
L 115.135944 152.290916 
L 115.083768 152.127695 
L 115.029009 151.965322 
L 114.97168 151.803839 
L 114.911797 151.643285 
L 114.849374 151.483702 
L 114.784426 151.325129 
L 114.716971 151.167606 
L 114.647026 151.011174 
L 114.574607 150.855871 
L 114.499733 150.701737 
L 114.422423 150.54881 
L 114.342696 150.397129 
L 114.260573 150.246732 
L 114.176074 150.097656 
L 114.089221 149.94994 
L 114.000035 149.803621 
L 113.908538 149.658735 
L 113.814754 149.51532 
L 113.718707 149.37341 
L 113.62042 149.233042 
L 113.519919 149.094251 
L 113.417228 148.957072 
L 113.312373 148.821539 
L 113.205382 148.687687 
L 113.09628 148.55555 
L 112.985095 148.42516 
L 112.871856 148.296551 
L 112.75659 148.169755 
L 112.639328 148.044803 
L 112.520097 147.921727 
L 112.398929 147.800559 
L 112.275853 147.681329 
L 112.150902 147.564066 
L 112.024105 147.4488 
L 111.895496 147.335561 
L 111.765106 147.224376 
L 111.632969 147.115274 
L 111.499117 147.008283 
L 111.363585 146.903428 
L 111.226406 146.800737 
L 111.087615 146.700236 
L 110.947247 146.601949 
L 110.805337 146.505902 
L 110.661921 146.412118 
L 110.517035 146.320622 
L 110.370716 146.231435 
L 110.223 146.144582 
L 110.073925 146.060083 
L 109.923528 145.97796 
L 109.771846 145.898233 
L 109.618919 145.820923 
L 109.464785 145.74605 
L 109.309482 145.673631 
L 109.15305 145.603685 
L 108.995527 145.53623 
L 108.836955 145.471283 
L 108.677371 145.408859 
L 108.516818 145.348976 
L 108.355334 145.291647 
L 108.192961 145.236888 
L 108.02974 145.184712 
L 107.865712 145.135132 
L 107.700917 145.088161 
L 107.535398 145.04381 
L 107.369197 145.002091 
L 107.202354 144.963015 
L 107.034912 144.92659 
L 106.866913 144.892826 
L 106.6984 144.861733 
L 106.529415 144.833316 
L 106.36 144.807585 
L 106.190198 144.784544 
L 106.020053 144.764201 
L 105.849605 144.746559 
L 105.6789 144.731625 
L 105.507978 144.7194 
L 105.336885 144.709889 
L 105.165662 144.703094 
L 104.994352 144.699016 
L 104.823 144.697656 
L 45.363 144.697656 
L 45.191648 144.699016 
L 45.020338 144.703094 
L 44.849115 144.709889 
L 44.678022 144.7194 
L 44.5071 144.731625 
L 44.336395 144.746559 
L 44.165947 144.764201 
L 43.995802 144.784544 
L 43.826 144.807585 
L 43.656585 144.833316 
L 43.4876 144.861733 
L 43.319087 144.892826 
L 43.151088 144.92659 
L 42.983646 144.963015 
L 42.816803 145.002091 
L 42.650602 145.04381 
L 42.485083 145.088161 
L 42.320288 145.135132 
L 42.15626 145.184712 
L 41.993039 145.236888 
L 41.830666 145.291647 
L 41.669182 145.348976 
L 41.508629 145.408859 
L 41.349045 145.471283 
L 41.190473 145.53623 
L 41.03295 145.603685 
L 40.876518 145.673631 
L 40.721215 145.74605 
L 40.567081 145.820923 
L 40.414154 145.898233 
L 40.262472 145.97796 
L 40.112075 146.060083 
L 39.963 146.144582 
L 39.815284 146.231435 
L 39.668965 146.320622 
L 39.524079 146.412118 
L 39.380663 146.505902 
L 39.238753 146.601949 
L 39.098385 146.700236 
L 38.959594 146.800737 
L 38.822415 146.903428 
L 38.686883 147.008283 
L 38.553031 147.115274 
L 38.420894 147.224376 
L 38.290504 147.335561 
L 38.161895 147.4488 
L 38.035098 147.564066 
L 37.910147 147.681329 
L 37.787071 147.800559 
L 37.665903 147.921727 
L 37.546672 148.044803 
L 37.42941 148.169755 
L 37.314144 148.296551 
L 37.200905 148.42516 
L 37.08972 148.55555 
L 36.980618 148.687687 
L 36.873627 148.821539 
L 36.768772 148.957072 
L 36.666081 149.094251 
L 36.56558 149.233042 
L 36.467293 149.37341 
L 36.371246 149.51532 
L 36.277462 149.658735 
L 36.185965 149.803621 
L 36.096779 149.94994 
L 36.009926 150.097656 
L 35.925427 150.246732 
L 35.843304 150.397129 
L 35.763577 150.54881 
L 35.686267 150.701737 
L 35.611393 150.855871 
L 35.538974 151.011174 
L 35.469029 151.167606 
L 35.401574 151.325129 
L 35.336626 151.483702 
L 35.274203 151.643285 
L 35.21432 151.803839 
L 35.156991 151.965322 
L 35.102232 152.127695 
L 35.050056 152.290916 
L 35.000476 152.454945 
L 34.953505 152.619739 
L 34.909154 152.785258 
L 34.867435 152.95146 
L 34.828358 153.118302 
L 34.791934 153.285744 
L 34.75817 153.453743 
L 34.727076 153.622256 
L 34.69866 153.791241 
L 34.672928 153.960656 
L 34.649888 154.130458 
L 34.629545 154.300604 
L 34.611903 154.471051 
L 34.596968 154.641757 
L 34.584744 154.812678 
L 34.575233 154.983772 
L 34.568437 155.154995 
L 34.564359 155.326304 
L 34.563 155.497656 
L 34.563 245.857656 
L 34.564359 246.029009 
L 34.568437 246.200318 
L 34.575233 246.371541 
L 34.584744 246.542635 
L 34.596968 246.713556 
L 34.611903 246.884262 
L 34.629545 247.054709 
L 34.649888 247.224855 
L 34.672928 247.394657 
L 34.69866 247.564071 
L 34.727076 247.733057 
L 34.75817 247.90157 
L 34.791934 248.069568 
L 34.828358 248.23701 
L 34.867435 248.403853 
L 34.909154 248.570055 
L 34.953505 248.735573 
L 35.000476 248.900368 
L 35.050056 249.064396 
L 35.102232 249.227617 
L 35.156991 249.38999 
L 35.21432 249.551474 
L 35.274203 249.712027 
L 35.336626 249.871611 
L 35.401574 250.030184 
L 35.469029 250.187706 
L 35.538974 250.344138 
L 35.611393 250.499441 
L 35.686267 250.653576 
L 35.763577 250.806503 
L 35.843304 250.958184 
L 35.925427 251.108581 
L 36.009926 251.257656 
L 36.096779 251.405372 
L 36.185965 251.551691 
L 36.277462 251.696577 
L 36.371246 251.839993 
L 36.467293 251.981903 
L 36.56558 252.122271 
L 36.666081 252.261062 
L 36.768772 252.398241 
L 36.873627 252.533773 
L 36.980618 252.667625 
L 37.08972 252.799762 
L 37.200905 252.930152 
L 37.314144 253.058761 
L 37.42941 253.185558 
L 37.546672 253.31051 
L 37.665903 253.433585 
L 37.787071 253.554753 
L 37.910147 253.673984 
L 38.035098 253.791247 
L 38.161895 253.906512 
L 38.290504 254.019752 
L 38.420894 254.130936 
L 38.553031 254.240038 
L 38.686883 254.34703 
L 38.822415 254.451884 
L 38.959594 254.554575 
L 39.098385 254.655077 
L 39.238753 254.753363 
L 39.380663 254.849411 
L 39.524079 254.943194 
L 39.668965 255.034691 
L 39.815284 255.123877 
L 39.963 255.210731 
L 40.112075 255.29523 
L 40.262472 255.377353 
L 40.414154 255.457079 
L 40.567081 255.534389 
L 40.721215 255.609263 
L 40.876518 255.681682 
L 41.03295 255.751628 
L 41.190473 255.819083 
L 41.349045 255.88403 
L 41.508629 255.946453 
L 41.669182 256.006337 
L 41.830666 256.063665 
L 41.993039 256.118424 
L 42.15626 256.1706 
L 42.320288 256.22018 
L 42.485083 256.267152 
L 42.650602 256.311502 
L 42.816803 256.353221 
L 42.983646 256.392298 
L 43.151088 256.428723 
L 43.319087 256.462486 
L 43.4876 256.49358 
L 43.656585 256.521996 
L 43.826 256.547728 
L 43.995802 256.570768 
L 44.165947 256.591112 
L 44.336395 256.608753 
L 44.5071 256.623688 
L 44.678022 256.635912 
L 44.849115 256.645424 
L 45.020338 256.652219 
L 45.191648 256.656297 
L 45.363 256.657656 
L 104.823 256.657656 
z
" clip-path="url(#p77974b370c)" style="fill: none; stroke-dasharray: 1.85,0.8; stroke-dashoffset: 0; stroke: #008000; stroke-width: 0.5; stroke-linecap: round"/>
   </g>
   <g id="patch_10">
    <path d="M 116.959753 253.494409 
C 152.959753 253.494409 125.959753 260.694409 166.459753 260.694409 
" clip-path="url(#p77974b370c)" style="fill: none; stroke: #008000; stroke-width: 2; stroke-linejoin: miter; stroke-linecap: round"/>
   </g>
   <g id="patch_11">
    <path d="M 121.459753 257.094409 
L 112.459753 253.494409 
L 121.459753 249.894409 
z
" clip-path="url(#p77974b370c)" style="fill: #008000"/>
   </g>
   <g id="line2d_1">
    <path d="M 84.963 58.777656 
L 98.163 58.777656 
" clip-path="url(#p77974b370c)" style="fill: none; stroke: #000000; stroke-width: 2; stroke-linecap: round"/>
   </g>
   <g id="line2d_2">
    <path d="M 98.163 45.577656 
L 98.163 71.977656 
" clip-path="url(#p77974b370c)" style="fill: none; stroke: #000000; stroke-width: 2; stroke-linecap: round"/>
   </g>
   <g id="line2d_3">
    <path d="M 98.163 52.177656 
L 112.023 40.297656 
L 112.023 33.697656 
" clip-path="url(#p77974b370c)" style="fill: none; stroke: #000000; stroke-width: 2; stroke-linecap: round"/>
   </g>
   <g id="line2d_4">
    <path d="M 98.163 65.377656 
L 112.023 77.257656 
L 112.023 83.857656 
" clip-path="url(#p77974b370c)" style="fill: none; stroke: #000000; stroke-width: 2; stroke-linecap: round"/>
   </g>
   <g id="line2d_5">
    <path d="M 98.163 65.377656 
L 105.189691 71.400534 
" clip-path="url(#p77974b370c)" style="fill: none; stroke: #000000; stroke-width: 2; stroke-linecap: round"/>
   </g>
   <g id="patch_12">
    <path d="M 107.53254 68.66721 
L 112.023 77.257656 
L 102.846842 74.133858 
z
" clip-path="url(#p77974b370c)"/>
   </g>
   <g id="line2d_6">
    <path d="M 84.963 58.777656 
L 61.563 58.777656 
L 38.163 58.777656 
" clip-path="url(#p77974b370c)" style="fill: none; stroke: #000000; stroke-width: 2; stroke-linecap: round"/>
   </g>
   <g id="line2d_7">
    <path d="M 38.163 58.777656 
L 38.163 82.177656 
L 38.163 105.577656 
" clip-path="url(#p77974b370c)" style="fill: none; stroke: #000000; stroke-width: 2; stroke-linecap: round"/>
   </g>
   <g id="line2d_8">
    <path d="M 38.163 105.577656 
L 55.263 105.577656 
M 67.863 96.577656 
L 67.863 114.577656 
M 67.863 105.577656 
L 84.963 105.577656 
" clip-path="url(#p77974b370c)" style="fill: none; stroke: #000000; stroke-width: 2; stroke-linecap: round"/>
   </g>
   <g id="line2d_9">
    <path d="M 84.963 105.577656 
L 98.163 105.577656 
" clip-path="url(#p77974b370c)" style="fill: none; stroke: #000000; stroke-width: 2; stroke-linecap: round"/>
   </g>
   <g id="line2d_10">
    <path d="M 98.163 92.377656 
L 98.163 118.777656 
" clip-path="url(#p77974b370c)" style="fill: none; stroke: #000000; stroke-width: 2; stroke-linecap: round"/>
   </g>
   <g id="line2d_11">
    <path d="M 98.163 98.977656 
L 112.023 87.097656 
L 112.023 80.497656 
" clip-path="url(#p77974b370c)" style="fill: none; stroke: #000000; stroke-width: 2; stroke-linecap: round"/>
   </g>
   <g id="line2d_12">
    <path d="M 98.163 112.177656 
L 112.023 124.057656 
L 112.023 130.657656 
" clip-path="url(#p77974b370c)" style="fill: none; stroke: #000000; stroke-width: 2; stroke-linecap: round"/>
   </g>
   <g id="line2d_13">
    <path d="M 98.163 112.177656 
L 105.189691 118.200534 
" clip-path="url(#p77974b370c)" style="fill: none; stroke: #000000; stroke-width: 2; stroke-linecap: round"/>
   </g>
   <g id="patch_13">
    <path d="M 107.53254 115.46721 
L 112.023 124.057656 
L 102.846842 120.933858 
z
" clip-path="url(#p77974b370c)"/>
   </g>
   <g id="line2d_14">
    <path d="M 38.163 105.577656 
L 38.163 123.577656 
L 38.163 141.577656 
" clip-path="url(#p77974b370c)" style="fill: none; stroke: #000000; stroke-width: 2; stroke-linecap: round"/>
   </g>
   <g id="line2d_15">
    <path d="M 38.163 141.577656 
L 38.163 159.577656 
L 38.163 177.577656 
" clip-path="url(#p77974b370c)" style="fill: none; stroke: #000000; stroke-width: 2; stroke-linecap: round"/>
   </g>
   <g id="line2d_16">
    <path d="M 38.163 177.577656 
L 55.263 177.577656 
M 55.263 186.577656 
L 55.263 168.577656 
M 67.863 177.577656 
L 84.963 177.577656 
" clip-path="url(#p77974b370c)" style="fill: none; stroke: #000000; stroke-width: 2; stroke-linecap: round"/>
   </g>
   <g id="line2d_17">
    <path d="M 84.963 177.577656 
L 98.163 177.577656 
" clip-path="url(#p77974b370c)" style="fill: none; stroke: #000000; stroke-width: 2; stroke-linecap: round"/>
   </g>
   <g id="line2d_18">
    <path d="M 98.163 164.377656 
L 98.163 190.777656 
" clip-path="url(#p77974b370c)" style="fill: none; stroke: #000000; stroke-width: 2; stroke-linecap: round"/>
   </g>
   <g id="line2d_19">
    <path d="M 98.163 170.977656 
L 112.023 159.097656 
L 112.023 152.497656 
" clip-path="url(#p77974b370c)" style="fill: none; stroke: #000000; stroke-width: 2; stroke-linecap: round"/>
   </g>
   <g id="line2d_20">
    <path d="M 98.163 184.177656 
L 112.023 196.057656 
L 112.023 202.657656 
" clip-path="url(#p77974b370c)" style="fill: none; stroke: #000000; stroke-width: 2; stroke-linecap: round"/>
   </g>
   <g id="line2d_21">
    <path d="M 112.023 159.097656 
L 104.996309 165.120534 
" clip-path="url(#p77974b370c)" style="fill: none; stroke: #000000; stroke-width: 2; stroke-linecap: round"/>
   </g>
   <g id="patch_14">
    <path d="M 107.339158 167.853858 
L 98.163 170.977656 
L 102.65346 162.38721 
z
" clip-path="url(#p77974b370c)"/>
   </g>
   <g id="line2d_22">
    <path d="M 38.163 177.577656 
L 38.163 200.977656 
L 38.163 224.377656 
" clip-path="url(#p77974b370c)" style="fill: none; stroke: #000000; stroke-width: 2; stroke-linecap: round"/>
   </g>
   <g id="line2d_23">
    <path d="M 38.163 224.377656 
L 61.563 224.377656 
L 84.963 224.377656 
" clip-path="url(#p77974b370c)" style="fill: none; stroke: #000000; stroke-width: 2; stroke-linecap: round"/>
   </g>
   <g id="line2d_24">
    <path d="M 84.963 224.377656 
L 98.163 224.377656 
" clip-path="url(#p77974b370c)" style="fill: none; stroke: #000000; stroke-width: 2; stroke-linecap: round"/>
   </g>
   <g id="line2d_25">
    <path d="M 98.163 211.177656 
L 98.163 237.577656 
" clip-path="url(#p77974b370c)" style="fill: none; stroke: #000000; stroke-width: 2; stroke-linecap: round"/>
   </g>
   <g id="line2d_26">
    <path d="M 98.163 217.777656 
L 112.023 205.897656 
L 112.023 199.297656 
" clip-path="url(#p77974b370c)" style="fill: none; stroke: #000000; stroke-width: 2; stroke-linecap: round"/>
   </g>
   <g id="line2d_27">
    <path d="M 98.163 230.977656 
L 112.023 242.857656 
L 112.023 249.457656 
" clip-path="url(#p77974b370c)" style="fill: none; stroke: #000000; stroke-width: 2; stroke-linecap: round"/>
   </g>
   <g id="line2d_28">
    <path d="M 112.023 205.897656 
L 104.996309 211.920534 
" clip-path="url(#p77974b370c)" style="fill: none; stroke: #000000; stroke-width: 2; stroke-linecap: round"/>
   </g>
   <g id="patch_15">
    <path d="M 107.339158 214.653858 
L 98.163 217.777656 
L 102.65346 209.18721 
z
" clip-path="url(#p77974b370c)"/>
   </g>
   <g id="line2d_29">
    <path d="M 112.023 33.697656 
L 112.023 19.297656 
" clip-path="url(#p77974b370c)" style="fill: none; stroke: #000000; stroke-width: 2; stroke-linecap: round"/>
   </g>
   <g id="line2d_30">
    <path d="M 112.023 19.297656 
L 105.273 19.297656 
" clip-path="url(#p77974b370c)" style="fill: none; stroke: #000000; stroke-width: 2; stroke-linecap: round"/>
   </g>
   <g id="line2d_31">
    <path d="M 112.023 19.297656 
L 118.773 19.297656 
" clip-path="url(#p77974b370c)" style="fill: none; stroke: #000000; stroke-width: 2; stroke-linecap: round"/>
   </g>
   <g id="line2d_32">
    <path d="M 112.023 80.497656 
L 159.723 80.497656 
M 159.723 89.497656 
L 159.723 71.497656 
M 172.323 80.497656 
L 220.023 80.497656 
" clip-path="url(#p77974b370c)" style="fill: none; stroke: #000000; stroke-width: 2; stroke-linecap: round"/>
   </g>
   <g id="line2d_33">
    <path d="M 220.023 80.497656 
L 220.023 66.097656 
" clip-path="url(#p77974b370c)" style="fill: none; stroke: #000000; stroke-width: 2; stroke-linecap: round"/>
   </g>
   <g id="line2d_34">
    <path d="M 220.023 66.097656 
L 213.273 66.097656 
" clip-path="url(#p77974b370c)" style="fill: none; stroke: #000000; stroke-width: 2; stroke-linecap: round"/>
   </g>
   <g id="line2d_35">
    <path d="M 220.023 66.097656 
L 226.773 66.097656 
" clip-path="url(#p77974b370c)" style="fill: none; stroke: #000000; stroke-width: 2; stroke-linecap: round"/>
   </g>
   <g id="line2d_36">
    <path d="M 112.023 249.457656 
L 112.023 263.857656 
" clip-path="url(#p77974b370c)" style="fill: none; stroke: #000000; stroke-width: 2; stroke-linecap: round"/>
   </g>
   <g id="line2d_37">
    <path d="M 112.023 263.857656 
L 105.273 263.857656 
" clip-path="url(#p77974b370c)" style="fill: none; stroke: #000000; stroke-width: 2; stroke-linecap: round"/>
   </g>
   <g id="line2d_38">
    <path d="M 112.023 263.857656 
L 118.773 263.857656 
" clip-path="url(#p77974b370c)" style="fill: none; stroke: #000000; stroke-width: 2; stroke-linecap: round"/>
   </g>
   <g id="line2d_39">
    <path d="M 112.023 202.657656 
L 159.723 202.657656 
M 172.323 193.657656 
L 172.323 211.657656 
M 172.323 202.657656 
L 220.023 202.657656 
" clip-path="url(#p77974b370c)" style="fill: none; stroke: #000000; stroke-width: 2; stroke-linecap: round"/>
   </g>
   <g id="line2d_40">
    <path d="M 220.023 202.657656 
L 220.023 217.057656 
" clip-path="url(#p77974b370c)" style="fill: none; stroke: #000000; stroke-width: 2; stroke-linecap: round"/>
   </g>
   <g id="line2d_41">
    <path d="M 220.023 217.057656 
L 213.273 217.057656 
" clip-path="url(#p77974b370c)" style="fill: none; stroke: #000000; stroke-width: 2; stroke-linecap: round"/>
   </g>
   <g id="line2d_42">
    <path d="M 220.023 217.057656 
L 226.773 217.057656 
" clip-path="url(#p77974b370c)" style="fill: none; stroke: #000000; stroke-width: 2; stroke-linecap: round"/>
   </g>
   <g id="line2d_43">
    <path d="M 38.163 141.577656 
L 29.163 141.577656 
L 20.163 141.577656 
" clip-path="url(#p77974b370c)" style="fill: none; stroke: #000000; stroke-width: 2; stroke-linecap: round"/>
   </g>
   <g id="line2d_44">
    <path d="M 112.023 130.657656 
L 112.023 136.057656 
L 112.023 141.457656 
" clip-path="url(#p77974b370c)" style="fill: none; stroke: #000000; stroke-width: 2; stroke-linecap: round"/>
   </g>
   <g id="line2d_45">
    <path d="M 112.023 141.457656 
L 112.023 146.977656 
L 112.023 152.497656 
" clip-path="url(#p77974b370c)" style="fill: none; stroke: #000000; stroke-width: 2; stroke-linecap: round"/>
   </g>
   <g id="line2d_46">
    <path d="M 112.023 141.457656 
L 193.023 141.457656 
L 274.023 141.457656 
" clip-path="url(#p77974b370c)" style="fill: none; stroke: #000000; stroke-width: 2; stroke-linecap: round"/>
   </g>
   <g id="line2d_47">
    <path d="M 274.023 141.457656 
L 274.023 145.057656 
L 283.023 148.057656 
L 265.023 154.057656 
L 283.023 160.057656 
L 265.023 166.057656 
L 283.023 172.057656 
L 265.023 178.057656 
L 274.023 181.057656 
L 274.023 184.657656 
" clip-path="url(#p77974b370c)" style="fill: none; stroke: #000000; stroke-width: 2; stroke-linecap: round"/>
   </g>
   <g id="line2d_48">
    <path d="M 274.023 184.657656 
L 274.023 199.057656 
L 265.023 199.057656 
L 283.023 199.057656 
M 267.723 203.377656 
L 280.323 203.377656 
M 272.223 207.697656 
L 275.823 207.697656 
" clip-path="url(#p77974b370c)" style="fill: none; stroke: #000000; stroke-width: 2; stroke-linecap: round"/>
   </g>
   <g id="line2d_49">
    <path d="M 274.023 141.457656 
L 283.023 141.457656 
L 292.023 141.457656 
" clip-path="url(#p77974b370c)" style="fill: none; stroke: #000000; stroke-width: 2; stroke-linecap: round"/>
   </g>
   <g id="text_1">
    <!-- $V_{DD1}$ -->
    <g transform="translate(98.023 13.098047) scale(0.125 -0.125)">
     <defs>
      <path id="DejaVuSans-Oblique-56" d="M 1319 0 
L 500 4666 
L 1119 4666 
L 1797 653 
L 4063 4666 
L 4750 4666 
L 2053 0 
L 1319 0 
z
" transform="scale(0.015625)"/>
      <path id="DejaVuSans-Oblique-44" d="M 1081 4666 
L 2438 4666 
Q 3519 4666 4070 4208 
Q 4622 3750 4622 2847 
Q 4622 2250 4412 1698 
Q 4203 1147 3834 769 
Q 3463 381 2891 190 
Q 2319 0 1538 0 
L 172 0 
L 1081 4666 
z
M 1613 4147 
L 909 519 
L 1734 519 
Q 2794 519 3375 1128 
Q 3956 1738 3956 2847 
Q 3956 3519 3581 3833 
Q 3206 4147 2406 4147 
L 1613 4147 
z
" transform="scale(0.015625)"/>
      <path id="DejaVuSans-31" d="M 794 531 
L 1825 531 
L 1825 4091 
L 703 3866 
L 703 4441 
L 1819 4666 
L 2450 4666 
L 2450 531 
L 3481 531 
L 3481 0 
L 794 0 
L 794 531 
z
" transform="scale(0.015625)"/>
     </defs>
     <use xlink:href="#DejaVuSans-Oblique-56" transform="translate(0 0.09375)"/>
     <use xlink:href="#DejaVuSans-Oblique-44" transform="translate(68.408203 -16.3125) scale(0.7)"/>
     <use xlink:href="#DejaVuSans-Oblique-44" transform="translate(122.30957 -16.3125) scale(0.7)"/>
     <use xlink:href="#DejaVuSans-31" transform="translate(176.210938 -16.3125) scale(0.7)"/>
    </g>
   </g>
   <g id="text_2">
    <!-- $V_{DD2}$ -->
    <g transform="translate(206.023 59.898047) scale(0.125 -0.125)">
     <defs>
      <path id="DejaVuSans-32" d="M 1228 531 
L 3431 531 
L 3431 0 
L 469 0 
L 469 531 
Q 828 903 1448 1529 
Q 2069 2156 2228 2338 
Q 2531 2678 2651 2914 
Q 2772 3150 2772 3378 
Q 2772 3750 2511 3984 
Q 2250 4219 1831 4219 
Q 1534 4219 1204 4116 
Q 875 4013 500 3803 
L 500 4441 
Q 881 4594 1212 4672 
Q 1544 4750 1819 4750 
Q 2544 4750 2975 4387 
Q 3406 4025 3406 3419 
Q 3406 3131 3298 2873 
Q 3191 2616 2906 2266 
Q 2828 2175 2409 1742 
Q 1991 1309 1228 531 
z
" transform="scale(0.015625)"/>
     </defs>
     <use xlink:href="#DejaVuSans-Oblique-56" transform="translate(0 0.09375)"/>
     <use xlink:href="#DejaVuSans-Oblique-44" transform="translate(68.408203 -16.3125) scale(0.7)"/>
     <use xlink:href="#DejaVuSans-Oblique-44" transform="translate(122.30957 -16.3125) scale(0.7)"/>
     <use xlink:href="#DejaVuSans-32" transform="translate(176.210938 -16.3125) scale(0.7)"/>
    </g>
   </g>
   <g id="text_3">
    <!-- -$V_{DD1}$ -->
    <g transform="translate(95.773 276.955703) scale(0.125 -0.125)">
     <defs>
      <path id="DejaVuSans-2d" d="M 313 2009 
L 1997 2009 
L 1997 1497 
L 313 1497 
L 313 2009 
z
" transform="scale(0.015625)"/>
     </defs>
     <use xlink:href="#DejaVuSans-2d" transform="translate(0 0.09375)"/>
     <use xlink:href="#DejaVuSans-Oblique-56" transform="translate(36.083984 0.09375)"/>
     <use xlink:href="#DejaVuSans-Oblique-44" transform="translate(104.492188 -16.3125) scale(0.7)"/>
     <use xlink:href="#DejaVuSans-Oblique-44" transform="translate(158.393555 -16.3125) scale(0.7)"/>
     <use xlink:href="#DejaVuSans-31" transform="translate(212.294922 -16.3125) scale(0.7)"/>
    </g>
   </g>
   <g id="text_4">
    <!-- $-V_{DD2}$ -->
    <g transform="translate(200.773 230.155703) scale(0.125 -0.125)">
     <defs>
      <path id="DejaVuSans-2212" d="M 678 2272 
L 4684 2272 
L 4684 1741 
L 678 1741 
L 678 2272 
z
" transform="scale(0.015625)"/>
     </defs>
     <use xlink:href="#DejaVuSans-2212" transform="translate(0 0.09375)"/>
     <use xlink:href="#DejaVuSans-Oblique-56" transform="translate(83.789062 0.09375)"/>
     <use xlink:href="#DejaVuSans-Oblique-44" transform="translate(152.197266 -16.3125) scale(0.7)"/>
     <use xlink:href="#DejaVuSans-Oblique-44" transform="translate(206.098633 -16.3125) scale(0.7)"/>
     <use xlink:href="#DejaVuSans-32" transform="translate(260 -16.3125) scale(0.7)"/>
    </g>
   </g>
   <g id="text_5">
    <!-- $R_L$ -->
    <g transform="translate(247.423 166.506875) scale(0.125 -0.125)">
     <defs>
      <path id="DejaVuSans-Oblique-52" d="M 1613 4147 
L 1294 2491 
L 2106 2491 
Q 2584 2491 2879 2755 
Q 3175 3019 3175 3444 
Q 3175 3784 2976 3965 
Q 2778 4147 2406 4147 
L 1613 4147 
z
M 2772 2241 
Q 2972 2194 3105 2009 
Q 3238 1825 3413 1275 
L 3809 0 
L 3144 0 
L 2778 1197 
Q 2638 1659 2453 1815 
Q 2269 1972 1888 1972 
L 1191 1972 
L 806 0 
L 172 0 
L 1081 4666 
L 2503 4666 
Q 3150 4666 3495 4373 
Q 3841 4081 3841 3531 
Q 3841 3044 3547 2687 
Q 3253 2331 2772 2241 
z
" transform="scale(0.015625)"/>
      <path id="DejaVuSans-Oblique-4c" d="M 1075 4666 
L 1709 4666 
L 909 525 
L 3181 525 
L 3078 0 
L 172 0 
L 1075 4666 
z
" transform="scale(0.015625)"/>
     </defs>
     <use xlink:href="#DejaVuSans-Oblique-52" transform="translate(0 0.09375)"/>
     <use xlink:href="#DejaVuSans-Oblique-4c" transform="translate(69.482422 -16.3125) scale(0.7)"/>
    </g>
   </g>
   <g id="text_6">
    <!-- Pull-up -->
    <g style="fill: #008000" transform="translate(170.059753 25.910122) scale(0.125 -0.125)">
     <defs>
      <path id="DejaVuSans-50" d="M 1259 4147 
L 1259 2394 
L 2053 2394 
Q 2494 2394 2734 2622 
Q 2975 2850 2975 3272 
Q 2975 3691 2734 3919 
Q 2494 4147 2053 4147 
L 1259 4147 
z
M 628 4666 
L 2053 4666 
Q 2838 4666 3239 4311 
Q 3641 3956 3641 3272 
Q 3641 2581 3239 2228 
Q 2838 1875 2053 1875 
L 1259 1875 
L 1259 0 
L 628 0 
L 628 4666 
z
" transform="scale(0.015625)"/>
      <path id="DejaVuSans-75" d="M 544 1381 
L 544 3500 
L 1119 3500 
L 1119 1403 
Q 1119 906 1312 657 
Q 1506 409 1894 409 
Q 2359 409 2629 706 
Q 2900 1003 2900 1516 
L 2900 3500 
L 3475 3500 
L 3475 0 
L 2900 0 
L 2900 538 
Q 2691 219 2414 64 
Q 2138 -91 1772 -91 
Q 1169 -91 856 284 
Q 544 659 544 1381 
z
M 1991 3584 
L 1991 3584 
z
" transform="scale(0.015625)"/>
      <path id="DejaVuSans-6c" d="M 603 4863 
L 1178 4863 
L 1178 0 
L 603 0 
L 603 4863 
z
" transform="scale(0.015625)"/>
      <path id="DejaVuSans-70" d="M 1159 525 
L 1159 -1331 
L 581 -1331 
L 581 3500 
L 1159 3500 
L 1159 2969 
Q 1341 3281 1617 3432 
Q 1894 3584 2278 3584 
Q 2916 3584 3314 3078 
Q 3713 2572 3713 1747 
Q 3713 922 3314 415 
Q 2916 -91 2278 -91 
Q 1894 -91 1617 61 
Q 1341 213 1159 525 
z
M 3116 1747 
Q 3116 2381 2855 2742 
Q 2594 3103 2138 3103 
Q 1681 3103 1420 2742 
Q 1159 2381 1159 1747 
Q 1159 1113 1420 752 
Q 1681 391 2138 391 
Q 2594 391 2855 752 
Q 3116 1113 3116 1747 
z
" transform="scale(0.015625)"/>
     </defs>
     <use xlink:href="#DejaVuSans-50"/>
     <use xlink:href="#DejaVuSans-75" x="58.552734"/>
     <use xlink:href="#DejaVuSans-6c" x="121.931641"/>
     <use xlink:href="#DejaVuSans-6c" x="149.714844"/>
     <use xlink:href="#DejaVuSans-2d" x="177.498047"/>
     <use xlink:href="#DejaVuSans-75" x="213.582031"/>
     <use xlink:href="#DejaVuSans-70" x="276.960938"/>
    </g>
   </g>
   <g id="text_7">
    <!-- Pull-down -->
    <g style="fill: #008000" transform="translate(170.059753 264.143628) scale(0.125 -0.125)">
     <defs>
      <path id="DejaVuSans-64" d="M 2906 2969 
L 2906 4863 
L 3481 4863 
L 3481 0 
L 2906 0 
L 2906 525 
Q 2725 213 2448 61 
Q 2172 -91 1784 -91 
Q 1150 -91 751 415 
Q 353 922 353 1747 
Q 353 2572 751 3078 
Q 1150 3584 1784 3584 
Q 2172 3584 2448 3432 
Q 2725 3281 2906 2969 
z
M 947 1747 
Q 947 1113 1208 752 
Q 1469 391 1925 391 
Q 2381 391 2643 752 
Q 2906 1113 2906 1747 
Q 2906 2381 2643 2742 
Q 2381 3103 1925 3103 
Q 1469 3103 1208 2742 
Q 947 2381 947 1747 
z
" transform="scale(0.015625)"/>
      <path id="DejaVuSans-6f" d="M 1959 3097 
Q 1497 3097 1228 2736 
Q 959 2375 959 1747 
Q 959 1119 1226 758 
Q 1494 397 1959 397 
Q 2419 397 2687 759 
Q 2956 1122 2956 1747 
Q 2956 2369 2687 2733 
Q 2419 3097 1959 3097 
z
M 1959 3584 
Q 2709 3584 3137 3096 
Q 3566 2609 3566 1747 
Q 3566 888 3137 398 
Q 2709 -91 1959 -91 
Q 1206 -91 779 398 
Q 353 888 353 1747 
Q 353 2609 779 3096 
Q 1206 3584 1959 3584 
z
" transform="scale(0.015625)"/>
      <path id="DejaVuSans-77" d="M 269 3500 
L 844 3500 
L 1563 769 
L 2278 3500 
L 2956 3500 
L 3675 769 
L 4391 3500 
L 4966 3500 
L 4050 0 
L 3372 0 
L 2619 2869 
L 1863 0 
L 1184 0 
L 269 3500 
z
" transform="scale(0.015625)"/>
      <path id="DejaVuSans-6e" d="M 3513 2113 
L 3513 0 
L 2938 0 
L 2938 2094 
Q 2938 2591 2744 2837 
Q 2550 3084 2163 3084 
Q 1697 3084 1428 2787 
Q 1159 2491 1159 1978 
L 1159 0 
L 581 0 
L 581 3500 
L 1159 3500 
L 1159 2956 
Q 1366 3272 1645 3428 
Q 1925 3584 2291 3584 
Q 2894 3584 3203 3211 
Q 3513 2838 3513 2113 
z
" transform="scale(0.015625)"/>
     </defs>
     <use xlink:href="#DejaVuSans-50"/>
     <use xlink:href="#DejaVuSans-75" x="58.552734"/>
     <use xlink:href="#DejaVuSans-6c" x="121.931641"/>
     <use xlink:href="#DejaVuSans-6c" x="149.714844"/>
     <use xlink:href="#DejaVuSans-2d" x="177.498047"/>
     <use xlink:href="#DejaVuSans-64" x="213.582031"/>
     <use xlink:href="#DejaVuSans-6f" x="277.058594"/>
     <use xlink:href="#DejaVuSans-77" x="338.240234"/>
     <use xlink:href="#DejaVuSans-6e" x="420.027344"/>
    </g>
   </g>
   <g id="patch_16">
    <path d="M 38.163 108.277656 
C 38.879048 108.277656 39.565866 107.993167 40.072188 107.486845 
C 40.578511 106.980522 40.863 106.293705 40.863 105.577656 
C 40.863 104.861608 40.578511 104.174791 40.072188 103.668468 
C 39.565866 103.162145 38.879048 102.877656 38.163 102.877656 
C 37.446952 102.877656 36.760134 103.162145 36.253812 103.668468 
C 35.747489 104.174791 35.463 104.861608 35.463 105.577656 
C 35.463 106.293705 35.747489 106.980522 36.253812 107.486845 
C 36.760134 107.993167 37.446952 108.277656 38.163 108.277656 
z
" clip-path="url(#p77974b370c)" style="stroke: #000000; stroke-width: 2; stroke-linejoin: miter"/>
   </g>
   <g id="patch_17">
    <path d="M 38.163 144.277656 
C 38.879048 144.277656 39.565866 143.993167 40.072188 143.486845 
C 40.578511 142.980522 40.863 142.293705 40.863 141.577656 
C 40.863 140.861608 40.578511 140.174791 40.072188 139.668468 
C 39.565866 139.162145 38.879048 138.877656 38.163 138.877656 
C 37.446952 138.877656 36.760134 139.162145 36.253812 139.668468 
C 35.747489 140.174791 35.463 140.861608 35.463 141.577656 
C 35.463 142.293705 35.747489 142.980522 36.253812 143.486845 
C 36.760134 143.993167 37.446952 144.277656 38.163 144.277656 
z
" clip-path="url(#p77974b370c)" style="stroke: #000000; stroke-width: 2; stroke-linejoin: miter"/>
   </g>
   <g id="patch_18">
    <path d="M 38.163 180.277656 
C 38.879048 180.277656 39.565866 179.993167 40.072188 179.486845 
C 40.578511 178.980522 40.863 178.293705 40.863 177.577656 
C 40.863 176.861608 40.578511 176.174791 40.072188 175.668468 
C 39.565866 175.162145 38.879048 174.877656 38.163 174.877656 
C 37.446952 174.877656 36.760134 175.162145 36.253812 175.668468 
C 35.747489 176.174791 35.463 176.861608 35.463 177.577656 
C 35.463 178.293705 35.747489 178.980522 36.253812 179.486845 
C 36.760134 179.993167 37.446952 180.277656 38.163 180.277656 
z
" clip-path="url(#p77974b370c)" style="stroke: #000000; stroke-width: 2; stroke-linejoin: miter"/>
   </g>
   <g id="patch_19">
    <path d="M 20.163 144.277656 
C 20.879048 144.277656 21.565866 143.993167 22.072188 143.486845 
C 22.578511 142.980522 22.863 142.293705 22.863 141.577656 
C 22.863 140.861608 22.578511 140.174791 22.072188 139.668468 
C 21.565866 139.162145 20.879048 138.877656 20.163 138.877656 
C 19.446952 138.877656 18.760134 139.162145 18.253812 139.668468 
C 17.747489 140.174791 17.463 140.861608 17.463 141.577656 
C 17.463 142.293705 17.747489 142.980522 18.253812 143.486845 
C 18.760134 143.993167 19.446952 144.277656 20.163 144.277656 
z
" clip-path="url(#p77974b370c)" style="fill: #ffffff; stroke: #000000; stroke-width: 2; stroke-linejoin: miter"/>
   </g>
   <g id="patch_20">
    <path d="M 112.023 144.157656 
C 112.739048 144.157656 113.425866 143.873167 113.932188 143.366845 
C 114.438511 142.860522 114.723 142.173705 114.723 141.457656 
C 114.723 140.741608 114.438511 140.054791 113.932188 139.548468 
C 113.425866 139.042145 112.739048 138.757656 112.023 138.757656 
C 111.306952 138.757656 110.620134 139.042145 110.113812 139.548468 
C 109.607489 140.054791 109.323 140.741608 109.323 141.457656 
C 109.323 142.173705 109.607489 142.860522 110.113812 143.366845 
C 110.620134 143.873167 111.306952 144.157656 112.023 144.157656 
z
" clip-path="url(#p77974b370c)" style="stroke: #000000; stroke-width: 2; stroke-linejoin: miter"/>
   </g>
   <g id="patch_21">
    <path d="M 292.023 144.157656 
C 292.739048 144.157656 293.425866 143.873167 293.932188 143.366845 
C 294.438511 142.860522 294.723 142.173705 294.723 141.457656 
C 294.723 140.741608 294.438511 140.054791 293.932188 139.548468 
C 293.425866 139.042145 292.739048 138.757656 292.023 138.757656 
C 291.306952 138.757656 290.620134 139.042145 290.113812 139.548468 
C 289.607489 140.054791 289.323 140.741608 289.323 141.457656 
C 289.323 142.173705 289.607489 142.860522 290.113812 143.366845 
C 290.620134 143.873167 291.306952 144.157656 292.023 144.157656 
z
" clip-path="url(#p77974b370c)" style="fill: #ffffff; stroke: #000000; stroke-width: 2; stroke-linejoin: miter"/>
   </g>
   <g id="text_8">
    <!-- $v_{out}$ -->
    <g transform="translate(280.9605 132.558047) scale(0.125 -0.125)">
     <defs>
      <path id="DejaVuSans-Oblique-76" d="M 459 3500 
L 1069 3500 
L 1581 525 
L 3256 3500 
L 3866 3500 
L 1875 0 
L 1100 0 
L 459 3500 
z
" transform="scale(0.015625)"/>
      <path id="DejaVuSans-Oblique-6f" d="M 1625 -91 
Q 1009 -91 651 289 
Q 294 669 294 1325 
Q 294 1706 417 2101 
Q 541 2497 738 2766 
Q 1047 3184 1428 3384 
Q 1809 3584 2291 3584 
Q 2888 3584 3255 3212 
Q 3622 2841 3622 2241 
Q 3622 1825 3500 1412 
Q 3378 1000 3181 728 
Q 2875 309 2494 109 
Q 2113 -91 1625 -91 
z
M 891 1344 
Q 891 869 1089 633 
Q 1288 397 1691 397 
Q 2269 397 2648 901 
Q 3028 1406 3028 2181 
Q 3028 2634 2825 2865 
Q 2622 3097 2228 3097 
Q 1903 3097 1650 2945 
Q 1397 2794 1197 2484 
Q 1050 2253 970 1956 
Q 891 1659 891 1344 
z
" transform="scale(0.015625)"/>
      <path id="DejaVuSans-Oblique-75" d="M 428 1388 
L 838 3500 
L 1416 3500 
L 1006 1409 
Q 975 1256 961 1147 
Q 947 1038 947 966 
Q 947 700 1109 554 
Q 1272 409 1569 409 
Q 2031 409 2368 721 
Q 2706 1034 2809 1563 
L 3194 3500 
L 3769 3500 
L 3091 0 
L 2516 0 
L 2631 550 
Q 2388 244 2052 76 
Q 1716 -91 1338 -91 
Q 878 -91 622 161 
Q 366 413 366 863 
Q 366 956 381 1097 
Q 397 1238 428 1388 
z
" transform="scale(0.015625)"/>
      <path id="DejaVuSans-Oblique-74" d="M 2706 3500 
L 2619 3053 
L 1472 3053 
L 1100 1153 
Q 1081 1047 1072 975 
Q 1063 903 1063 863 
Q 1063 663 1183 572 
Q 1303 481 1569 481 
L 2150 481 
L 2053 0 
L 1503 0 
Q 991 0 739 200 
Q 488 400 488 806 
Q 488 878 497 964 
Q 506 1050 525 1153 
L 897 3053 
L 409 3053 
L 500 3500 
L 978 3500 
L 1172 4494 
L 1747 4494 
L 1556 3500 
L 2706 3500 
z
" transform="scale(0.015625)"/>
     </defs>
     <use xlink:href="#DejaVuSans-Oblique-76" transform="translate(0 0.3125)"/>
     <use xlink:href="#DejaVuSans-Oblique-6f" transform="translate(59.179688 -16.09375) scale(0.7)"/>
     <use xlink:href="#DejaVuSans-Oblique-75" transform="translate(102.006836 -16.09375) scale(0.7)"/>
     <use xlink:href="#DejaVuSans-Oblique-74" transform="translate(146.37207 -16.09375) scale(0.7)"/>
    </g>
   </g>
  </g>
 </g>
 <defs>
  <clipPath id="p77974b370c">
   <rect x="3.6" y="7.069656" width="304.986" height="269.016"/>
  </clipPath>
 </defs>
</svg>