<?xml version="1.0" encoding="utf-8" standalone="no"?>
<!DOCTYPE svg PUBLIC "-//W3C//DTD SVG 1.1//EN"
  "http://www.w3.org/Graphics/SVG/1.1/DTD/svg11.dtd">
<svg xmlns:xlink="http://www.w3.org/1999/xlink" width="660.6pt" height="404.784pt" viewBox="0 0 660.6 404.784" xmlns="http://www.w3.org/2000/svg" version="1.1">
 <metadata>
  <rdf:RDF xmlns:dc="http://purl.org/dc/elements/1.1/" xmlns:cc="http://creativecommons.org/ns#" xmlns:rdf="http://www.w3.org/1999/02/22-rdf-syntax-ns#">
   <cc:Work>
    <dc:type rdf:resource="http://purl.org/dc/dcmitype/StillImage"/>
    <dc:date>2024-02-10T21:32:09.968079</dc:date>
    <dc:format>image/svg+xml</dc:format>
    <dc:creator>
     <cc:Agent>
      <dc:title>Matplotlib v3.8.2, https://matplotlib.org/</dc:title>
     </cc:Agent>
    </dc:creator>
   </cc:Work>
  </rdf:RDF>
 </metadata>
 <defs>
  <style type="text/css">*{stroke-linejoin: round; stroke-linecap: butt}</style>
 </defs>
 <g id="figure_1">
  <g id="patch_1">
   <path d="M 0 404.784 
L 660.6 404.784 
L 660.6 0 
L 0 0 
z
" style="fill: #ffffff"/>
  </g>
  <g id="axes_1">
   <g id="patch_2">
    <path d="M 85.5 67.272 
C 86.613853 67.272 87.682235 66.829462 88.469848 66.041848 
C 89.257462 65.254235 89.7 64.185853 89.7 63.072 
C 89.7 61.958147 89.257462 60.889765 88.469848 60.102152 
C 87.682235 59.314538 86.613853 58.872 85.5 58.872 
C 84.386147 58.872 83.317765 59.314538 82.530152 60.102152 
C 81.742538 60.889765 81.3 61.958147 81.3 63.072 
C 81.3 64.185853 81.742538 65.254235 82.530152 66.041848 
C 83.317765 66.829462 84.386147 67.272 85.5 67.272 
L 85.5 67.272 
z
" clip-path="url(#pe40a5e3421)" style="fill: none; stroke: #000000; stroke-width: 2; stroke-linejoin: miter"/>
   </g>
   <g id="patch_3">
    <path d="M 115.5 67.272 
C 116.613853 67.272 117.682235 66.829462 118.469848 66.041848 
C 119.257462 65.254235 119.7 64.185853 119.7 63.072 
C 119.7 61.958147 119.257462 60.889765 118.469848 60.102152 
C 117.682235 59.314538 116.613853 58.872 115.5 58.872 
C 114.386147 58.872 113.317765 59.314538 112.530152 60.102152 
C 111.742538 60.889765 111.3 61.958147 111.3 63.072 
C 111.3 64.185853 111.742538 65.254235 112.530152 66.041848 
C 113.317765 66.829462 114.386147 67.272 115.5 67.272 
L 115.5 67.272 
z
" clip-path="url(#pe40a5e3421)" style="fill: none; stroke: #000000; stroke-width: 2; stroke-linejoin: miter"/>
   </g>
   <g id="patch_4">
    <path d="M 205.5 67.272 
C 206.613853 67.272 207.682235 66.829462 208.469848 66.041848 
C 209.257462 65.254235 209.7 64.185853 209.7 63.072 
C 209.7 61.958147 209.257462 60.889765 208.469848 60.102152 
C 207.682235 59.314538 206.613853 58.872 205.5 58.872 
C 204.386147 58.872 203.317765 59.314538 202.530152 60.102152 
C 201.742538 60.889765 201.3 61.958147 201.3 63.072 
C 201.3 64.185853 201.742538 65.254235 202.530152 66.041848 
C 203.317765 66.829462 204.386147 67.272 205.5 67.272 
L 205.5 67.272 
z
" clip-path="url(#pe40a5e3421)" style="fill: none; stroke: #000000; stroke-width: 2; stroke-linejoin: miter"/>
   </g>
   <g id="patch_5">
    <path d="M 339.3 270.072 
L 339.3 234.072 
L 627.3 234.072 
L 627.3 306.072 
L 339.3 306.072 
z
" clip-path="url(#pe40a5e3421)" style="fill: #add8e6; stroke: #add8e6; stroke-linejoin: miter"/>
   </g>
   <g id="line2d_1">
    <path d="M 51.3 36.072 
L 51.3 51.072 
L 75.3 51.072 
L 75.3 75.072 
L 51.3 75.072 
L 51.3 90.072 
" clip-path="url(#pe40a5e3421)" style="fill: none; stroke: #000000; stroke-width: 2; stroke-linecap: round"/>
   </g>
   <g id="line2d_2">
    <path d="M 81.3 51.072 
L 81.3 75.072 
" clip-path="url(#pe40a5e3421)" style="fill: none; stroke: #000000; stroke-width: 2; stroke-linecap: round"/>
   </g>
   <g id="line2d_3">
    <path d="M 89.7 63.072 
L 100.5 63.072 
" clip-path="url(#pe40a5e3421)" style="fill: none; stroke: #000000; stroke-width: 2; stroke-linecap: round"/>
   </g>
   <g id="line2d_4">
    <path d="M 51.3 63.072 
L 66.3 63.072 
" clip-path="url(#pe40a5e3421)" style="fill: none; stroke: #000000; stroke-width: 2; stroke-linecap: round"/>
   </g>
   <g id="patch_6">
    <path d="M 66.3 59.472 
L 75.3 63.072 
L 66.3 66.672 
z
" clip-path="url(#pe40a5e3421)"/>
   </g>
   <g id="line2d_5">
    <path d="M 51.3 63.072 
L 42.3 63.072 
L 33.3 63.072 
" clip-path="url(#pe40a5e3421)" style="fill: none; stroke: #000000; stroke-width: 2; stroke-linecap: round"/>
   </g>
   <g id="line2d_6">
    <path d="M 33.3 63.072 
L 33.3 49.572 
L 33.3 36.072 
" clip-path="url(#pe40a5e3421)" style="fill: none; stroke: #000000; stroke-width: 2; stroke-linecap: round"/>
   </g>
   <g id="line2d_7">
    <path d="M 33.3 36.072 
L 42.3 36.072 
L 51.3 36.072 
" clip-path="url(#pe40a5e3421)" style="fill: none; stroke: #000000; stroke-width: 2; stroke-linecap: round"/>
   </g>
   <g id="line2d_8">
    <path d="M 51.3 36.072 
L 51.3 21.672 
" clip-path="url(#pe40a5e3421)" style="fill: none; stroke: #000000; stroke-width: 2; stroke-linecap: round"/>
   </g>
   <g id="line2d_9">
    <path d="M 51.3 21.672 
L 44.55 21.672 
" clip-path="url(#pe40a5e3421)" style="fill: none; stroke: #000000; stroke-width: 2; stroke-linecap: round"/>
   </g>
   <g id="line2d_10">
    <path d="M 51.3 21.672 
L 58.05 21.672 
" clip-path="url(#pe40a5e3421)" style="fill: none; stroke: #000000; stroke-width: 2; stroke-linecap: round"/>
   </g>
   <g id="line2d_11">
    <path d="M 100.5 63.072 
L 100.5 76.572 
L 100.5 90.072 
" clip-path="url(#pe40a5e3421)" style="fill: none; stroke: #000000; stroke-width: 2; stroke-linecap: round"/>
   </g>
   <g id="line2d_12">
    <path d="M 100.5 90.072 
L 75.9 90.072 
L 51.3 90.072 
" clip-path="url(#pe40a5e3421)" style="fill: none; stroke: #000000; stroke-width: 2; stroke-linecap: round"/>
   </g>
   <g id="line2d_13">
    <path d="M 51.3 90.072 
L 51.3 99.072 
L 51.3 108.072 
" clip-path="url(#pe40a5e3421)" style="fill: none; stroke: #000000; stroke-width: 2; stroke-linecap: round"/>
   </g>
   <g id="line2d_14">
    <path d="M 51.3 118.872 
L 51.3 180.072 
" clip-path="url(#pe40a5e3421)" style="fill: none; stroke: #ff0000; stroke-width: 2; stroke-linecap: round"/>
   </g>
   <g id="patch_7">
    <path d="M 54.9 180.072 
L 51.3 190.872 
L 47.7 180.072 
z
" clip-path="url(#pe40a5e3421)" style="fill: #ff0000"/>
   </g>
   <g id="line2d_15">
    <path d="M 149.7 90.072 
L 149.7 75.072 
L 125.7 75.072 
L 125.7 51.072 
L 149.7 51.072 
L 149.7 36.072 
" clip-path="url(#pe40a5e3421)" style="fill: none; stroke: #000000; stroke-width: 2; stroke-linecap: round"/>
   </g>
   <g id="line2d_16">
    <path d="M 119.7 75.072 
L 119.7 51.072 
" clip-path="url(#pe40a5e3421)" style="fill: none; stroke: #000000; stroke-width: 2; stroke-linecap: round"/>
   </g>
   <g id="line2d_17">
    <path d="M 100.5 63.072 
L 111.3 63.072 
" clip-path="url(#pe40a5e3421)" style="fill: none; stroke: #000000; stroke-width: 2; stroke-linecap: round"/>
   </g>
   <g id="line2d_18">
    <path d="M 134.7 63.072 
L 149.7 63.072 
" clip-path="url(#pe40a5e3421)" style="fill: none; stroke: #000000; stroke-width: 2; stroke-linecap: round"/>
   </g>
   <g id="patch_8">
    <path d="M 134.7 66.672 
L 125.7 63.072 
L 134.7 59.472 
z
" clip-path="url(#pe40a5e3421)"/>
   </g>
   <g id="line2d_19">
    <path d="M 149.7 63.072 
L 158.7 63.072 
L 167.7 63.072 
" clip-path="url(#pe40a5e3421)" style="fill: none; stroke: #000000; stroke-width: 2; stroke-linecap: round"/>
   </g>
   <g id="line2d_20">
    <path d="M 167.7 63.072 
L 167.7 49.572 
L 167.7 36.072 
" clip-path="url(#pe40a5e3421)" style="fill: none; stroke: #000000; stroke-width: 2; stroke-linecap: round"/>
   </g>
   <g id="line2d_21">
    <path d="M 167.7 36.072 
L 158.7 36.072 
L 149.7 36.072 
" clip-path="url(#pe40a5e3421)" style="fill: none; stroke: #000000; stroke-width: 2; stroke-linecap: round"/>
   </g>
   <g id="line2d_22">
    <path d="M 149.7 36.072 
L 149.7 21.672 
" clip-path="url(#pe40a5e3421)" style="fill: none; stroke: #000000; stroke-width: 2; stroke-linecap: round"/>
   </g>
   <g id="line2d_23">
    <path d="M 149.7 21.672 
L 142.95 21.672 
" clip-path="url(#pe40a5e3421)" style="fill: none; stroke: #000000; stroke-width: 2; stroke-linecap: round"/>
   </g>
   <g id="line2d_24">
    <path d="M 149.7 21.672 
L 156.45 21.672 
" clip-path="url(#pe40a5e3421)" style="fill: none; stroke: #000000; stroke-width: 2; stroke-linecap: round"/>
   </g>
   <g id="line2d_25">
    <path d="M 149.7 90.072 
L 149.7 99.072 
L 149.7 108.072 
" clip-path="url(#pe40a5e3421)" style="fill: none; stroke: #000000; stroke-width: 2; stroke-linecap: round"/>
   </g>
   <g id="line2d_26">
    <path d="M 100.5 90.072 
L 145.5 90.072 
L 190.5 90.072 
" clip-path="url(#pe40a5e3421)" style="fill: none; stroke: #000000; stroke-width: 2; stroke-linecap: round"/>
   </g>
   <g id="line2d_27">
    <path d="M 190.5 90.072 
L 190.5 76.572 
L 190.5 63.072 
" clip-path="url(#pe40a5e3421)" style="fill: none; stroke: #000000; stroke-width: 2; stroke-linecap: round"/>
   </g>
   <g id="line2d_28">
    <path d="M 239.7 90.072 
L 239.7 75.072 
L 215.7 75.072 
L 215.7 51.072 
L 239.7 51.072 
L 239.7 36.072 
" clip-path="url(#pe40a5e3421)" style="fill: none; stroke: #000000; stroke-width: 2; stroke-linecap: round"/>
   </g>
   <g id="line2d_29">
    <path d="M 209.7 75.072 
L 209.7 51.072 
" clip-path="url(#pe40a5e3421)" style="fill: none; stroke: #000000; stroke-width: 2; stroke-linecap: round"/>
   </g>
   <g id="line2d_30">
    <path d="M 190.5 63.072 
L 201.3 63.072 
" clip-path="url(#pe40a5e3421)" style="fill: none; stroke: #000000; stroke-width: 2; stroke-linecap: round"/>
   </g>
   <g id="line2d_31">
    <path d="M 224.7 63.072 
L 239.7 63.072 
" clip-path="url(#pe40a5e3421)" style="fill: none; stroke: #000000; stroke-width: 2; stroke-linecap: round"/>
   </g>
   <g id="patch_9">
    <path d="M 224.7 66.672 
L 215.7 63.072 
L 224.7 59.472 
z
" clip-path="url(#pe40a5e3421)"/>
   </g>
   <g id="line2d_32">
    <path d="M 239.7 63.072 
L 248.7 63.072 
L 257.7 63.072 
" clip-path="url(#pe40a5e3421)" style="fill: none; stroke: #000000; stroke-width: 2; stroke-linecap: round"/>
   </g>
   <g id="line2d_33">
    <path d="M 257.7 63.072 
L 257.7 49.572 
L 257.7 36.072 
" clip-path="url(#pe40a5e3421)" style="fill: none; stroke: #000000; stroke-width: 2; stroke-linecap: round"/>
   </g>
   <g id="line2d_34">
    <path d="M 257.7 36.072 
L 248.7 36.072 
L 239.7 36.072 
" clip-path="url(#pe40a5e3421)" style="fill: none; stroke: #000000; stroke-width: 2; stroke-linecap: round"/>
   </g>
   <g id="line2d_35">
    <path d="M 239.7 36.072 
L 239.7 21.672 
" clip-path="url(#pe40a5e3421)" style="fill: none; stroke: #000000; stroke-width: 2; stroke-linecap: round"/>
   </g>
   <g id="line2d_36">
    <path d="M 239.7 21.672 
L 232.95 21.672 
" clip-path="url(#pe40a5e3421)" style="fill: none; stroke: #000000; stroke-width: 2; stroke-linecap: round"/>
   </g>
   <g id="line2d_37">
    <path d="M 239.7 21.672 
L 246.45 21.672 
" clip-path="url(#pe40a5e3421)" style="fill: none; stroke: #000000; stroke-width: 2; stroke-linecap: round"/>
   </g>
   <g id="line2d_38">
    <path d="M 239.7 90.072 
L 239.7 99.072 
L 239.7 108.072 
" clip-path="url(#pe40a5e3421)" style="fill: none; stroke: #000000; stroke-width: 2; stroke-linecap: round"/>
   </g>
   <g id="line2d_39">
    <path d="M 149.7 118.872 
L 149.7 180.072 
" clip-path="url(#pe40a5e3421)" style="fill: none; stroke: #008000; stroke-width: 2; stroke-linecap: round"/>
   </g>
   <g id="patch_10">
    <path d="M 153.3 180.072 
L 149.7 190.872 
L 146.1 180.072 
z
" clip-path="url(#pe40a5e3421)" style="fill: #008000"/>
   </g>
   <g id="line2d_40">
    <path d="M 239.7 118.872 
L 239.7 180.072 
" clip-path="url(#pe40a5e3421)" style="fill: none; stroke: #008000; stroke-width: 2; stroke-linecap: round"/>
   </g>
   <g id="patch_11">
    <path d="M 243.3 180.072 
L 239.7 190.872 
L 236.1 180.072 
z
" clip-path="url(#pe40a5e3421)" style="fill: #008000"/>
   </g>
   <g id="line2d_41">
    <path d="M 51.3 306.072 
L 51.3 321.072 
L 75.3 321.072 
L 75.3 345.072 
L 51.3 345.072 
L 51.3 360.072 
" clip-path="url(#pe40a5e3421)" style="fill: none; stroke: #000000; stroke-width: 2; stroke-linecap: round"/>
   </g>
   <g id="line2d_42">
    <path d="M 81.3 321.072 
L 81.3 345.072 
" clip-path="url(#pe40a5e3421)" style="fill: none; stroke: #000000; stroke-width: 2; stroke-linecap: round"/>
   </g>
   <g id="line2d_43">
    <path d="M 81.3 333.072 
L 100.5 333.072 
" clip-path="url(#pe40a5e3421)" style="fill: none; stroke: #000000; stroke-width: 2; stroke-linecap: round"/>
   </g>
   <g id="line2d_44">
    <path d="M 51.3 333.072 
L 66.3 333.072 
" clip-path="url(#pe40a5e3421)" style="fill: none; stroke: #000000; stroke-width: 2; stroke-linecap: round"/>
   </g>
   <g id="patch_12">
    <path d="M 66.3 329.472 
L 75.3 333.072 
L 66.3 336.672 
z
" clip-path="url(#pe40a5e3421)"/>
   </g>
   <g id="line2d_45">
    <path d="M 51.3 333.072 
L 42.3 333.072 
L 33.3 333.072 
" clip-path="url(#pe40a5e3421)" style="fill: none; stroke: #000000; stroke-width: 2; stroke-linecap: round"/>
   </g>
   <g id="line2d_46">
    <path d="M 33.3 333.072 
L 33.3 346.572 
L 33.3 360.072 
" clip-path="url(#pe40a5e3421)" style="fill: none; stroke: #000000; stroke-width: 2; stroke-linecap: round"/>
   </g>
   <g id="line2d_47">
    <path d="M 33.3 360.072 
L 42.3 360.072 
L 51.3 360.072 
" clip-path="url(#pe40a5e3421)" style="fill: none; stroke: #000000; stroke-width: 2; stroke-linecap: round"/>
   </g>
   <g id="line2d_48">
    <path d="M 51.3 360.072 
L 51.3 374.472 
L 42.3 374.472 
L 60.3 374.472 
M 45 378.792 
L 57.6 378.792 
M 49.5 383.112 
L 53.1 383.112 
" clip-path="url(#pe40a5e3421)" style="fill: none; stroke: #000000; stroke-width: 2; stroke-linecap: round"/>
   </g>
   <g id="line2d_49">
    <path d="M 100.5 333.072 
L 100.5 319.572 
L 100.5 306.072 
" clip-path="url(#pe40a5e3421)" style="fill: none; stroke: #000000; stroke-width: 2; stroke-linecap: round"/>
   </g>
   <g id="line2d_50">
    <path d="M 100.5 306.072 
L 75.9 306.072 
L 51.3 306.072 
" clip-path="url(#pe40a5e3421)" style="fill: none; stroke: #000000; stroke-width: 2; stroke-linecap: round"/>
   </g>
   <g id="line2d_51">
    <path d="M 51.3 306.072 
L 51.3 297.072 
L 51.3 288.072 
" clip-path="url(#pe40a5e3421)" style="fill: none; stroke: #000000; stroke-width: 2; stroke-linecap: round"/>
   </g>
   <g id="line2d_52">
    <path d="M 149.7 360.072 
L 149.7 345.072 
L 125.7 345.072 
L 125.7 321.072 
L 149.7 321.072 
L 149.7 306.072 
" clip-path="url(#pe40a5e3421)" style="fill: none; stroke: #000000; stroke-width: 2; stroke-linecap: round"/>
   </g>
   <g id="line2d_53">
    <path d="M 119.7 345.072 
L 119.7 321.072 
" clip-path="url(#pe40a5e3421)" style="fill: none; stroke: #000000; stroke-width: 2; stroke-linecap: round"/>
   </g>
   <g id="line2d_54">
    <path d="M 100.5 333.072 
L 119.7 333.072 
" clip-path="url(#pe40a5e3421)" style="fill: none; stroke: #000000; stroke-width: 2; stroke-linecap: round"/>
   </g>
   <g id="line2d_55">
    <path d="M 134.7 333.072 
L 149.7 333.072 
" clip-path="url(#pe40a5e3421)" style="fill: none; stroke: #000000; stroke-width: 2; stroke-linecap: round"/>
   </g>
   <g id="patch_13">
    <path d="M 134.7 336.672 
L 125.7 333.072 
L 134.7 329.472 
z
" clip-path="url(#pe40a5e3421)"/>
   </g>
   <g id="line2d_56">
    <path d="M 149.7 333.072 
L 158.7 333.072 
L 167.7 333.072 
" clip-path="url(#pe40a5e3421)" style="fill: none; stroke: #000000; stroke-width: 2; stroke-linecap: round"/>
   </g>
   <g id="line2d_57">
    <path d="M 167.7 333.072 
L 167.7 346.572 
L 167.7 360.072 
" clip-path="url(#pe40a5e3421)" style="fill: none; stroke: #000000; stroke-width: 2; stroke-linecap: round"/>
   </g>
   <g id="line2d_58">
    <path d="M 167.7 360.072 
L 158.7 360.072 
L 149.7 360.072 
" clip-path="url(#pe40a5e3421)" style="fill: none; stroke: #000000; stroke-width: 2; stroke-linecap: round"/>
   </g>
   <g id="line2d_59">
    <path d="M 149.7 360.072 
L 149.7 374.472 
L 140.7 374.472 
L 158.7 374.472 
M 143.4 378.792 
L 156 378.792 
M 147.9 383.112 
L 151.5 383.112 
" clip-path="url(#pe40a5e3421)" style="fill: none; stroke: #000000; stroke-width: 2; stroke-linecap: round"/>
   </g>
   <g id="line2d_60">
    <path d="M 149.7 306.072 
L 149.7 297.072 
L 149.7 288.072 
" clip-path="url(#pe40a5e3421)" style="fill: none; stroke: #000000; stroke-width: 2; stroke-linecap: round"/>
   </g>
   <g id="line2d_61">
    <path d="M 100.5 306.072 
L 145.5 306.072 
L 190.5 306.072 
" clip-path="url(#pe40a5e3421)" style="fill: none; stroke: #000000; stroke-width: 2; stroke-linecap: round"/>
   </g>
   <g id="line2d_62">
    <path d="M 190.5 306.072 
L 190.5 319.572 
L 190.5 333.072 
" clip-path="url(#pe40a5e3421)" style="fill: none; stroke: #000000; stroke-width: 2; stroke-linecap: round"/>
   </g>
   <g id="line2d_63">
    <path d="M 239.7 360.072 
L 239.7 345.072 
L 215.7 345.072 
L 215.7 321.072 
L 239.7 321.072 
L 239.7 306.072 
" clip-path="url(#pe40a5e3421)" style="fill: none; stroke: #000000; stroke-width: 2; stroke-linecap: round"/>
   </g>
   <g id="line2d_64">
    <path d="M 209.7 345.072 
L 209.7 321.072 
" clip-path="url(#pe40a5e3421)" style="fill: none; stroke: #000000; stroke-width: 2; stroke-linecap: round"/>
   </g>
   <g id="line2d_65">
    <path d="M 190.5 333.072 
L 209.7 333.072 
" clip-path="url(#pe40a5e3421)" style="fill: none; stroke: #000000; stroke-width: 2; stroke-linecap: round"/>
   </g>
   <g id="line2d_66">
    <path d="M 224.7 333.072 
L 239.7 333.072 
" clip-path="url(#pe40a5e3421)" style="fill: none; stroke: #000000; stroke-width: 2; stroke-linecap: round"/>
   </g>
   <g id="patch_14">
    <path d="M 224.7 336.672 
L 215.7 333.072 
L 224.7 329.472 
z
" clip-path="url(#pe40a5e3421)"/>
   </g>
   <g id="line2d_67">
    <path d="M 239.7 333.072 
L 248.7 333.072 
L 257.7 333.072 
" clip-path="url(#pe40a5e3421)" style="fill: none; stroke: #000000; stroke-width: 2; stroke-linecap: round"/>
   </g>
   <g id="line2d_68">
    <path d="M 257.7 333.072 
L 257.7 346.572 
L 257.7 360.072 
" clip-path="url(#pe40a5e3421)" style="fill: none; stroke: #000000; stroke-width: 2; stroke-linecap: round"/>
   </g>
   <g id="line2d_69">
    <path d="M 257.7 360.072 
L 248.7 360.072 
L 239.7 360.072 
" clip-path="url(#pe40a5e3421)" style="fill: none; stroke: #000000; stroke-width: 2; stroke-linecap: round"/>
   </g>
   <g id="line2d_70">
    <path d="M 239.7 360.072 
L 239.7 374.472 
L 230.7 374.472 
L 248.7 374.472 
M 233.4 378.792 
L 246 378.792 
M 237.9 383.112 
L 241.5 383.112 
" clip-path="url(#pe40a5e3421)" style="fill: none; stroke: #000000; stroke-width: 2; stroke-linecap: round"/>
   </g>
   <g id="line2d_71">
    <path d="M 239.7 306.072 
L 239.7 297.072 
L 239.7 288.072 
" clip-path="url(#pe40a5e3421)" style="fill: none; stroke: #000000; stroke-width: 2; stroke-linecap: round"/>
   </g>
   <g id="line2d_72">
    <path d="M 51.3 205.272 
L 51.3 266.472 
" clip-path="url(#pe40a5e3421)" style="fill: none; stroke: #ff0000; stroke-width: 2; stroke-linecap: round"/>
   </g>
   <g id="patch_15">
    <path d="M 54.9 266.472 
L 51.3 277.272 
L 47.7 266.472 
z
" clip-path="url(#pe40a5e3421)" style="fill: #ff0000"/>
   </g>
   <g id="line2d_73">
    <path d="M 149.7 205.272 
L 149.7 266.472 
" clip-path="url(#pe40a5e3421)" style="fill: none; stroke: #008000; stroke-width: 2; stroke-linecap: round"/>
   </g>
   <g id="patch_16">
    <path d="M 153.3 266.472 
L 149.7 277.272 
L 146.1 266.472 
z
" clip-path="url(#pe40a5e3421)" style="fill: #008000"/>
   </g>
   <g id="line2d_74">
    <path d="M 239.7 205.272 
L 239.7 266.472 
" clip-path="url(#pe40a5e3421)" style="fill: none; stroke: #008000; stroke-width: 2; stroke-linecap: round"/>
   </g>
   <g id="patch_17">
    <path d="M 243.3 266.472 
L 239.7 277.272 
L 236.1 266.472 
z
" clip-path="url(#pe40a5e3421)" style="fill: #008000"/>
   </g>
   <g id="line2d_75">
    <path d="M 339.3 270.072 
L 339.3 234.072 
L 627.3 234.072 
L 627.3 306.072 
L 339.3 306.072 
L 339.3 270.072 
" clip-path="url(#pe40a5e3421)" style="fill: none; stroke: #0000ff; stroke-width: 2; stroke-linecap: round"/>
   </g>
   <g id="text_1">
    <!-- $I_{in}$ -->
    <g style="fill: #ff0000" transform="translate(35.575 158.321219) scale(0.125 -0.125)">
     <defs>
      <path id="DejaVuSans-Oblique-49" d="M 1081 4666 
L 1716 4666 
L 806 0 
L 172 0 
L 1081 4666 
z
" transform="scale(0.015625)"/>
      <path id="DejaVuSans-Oblique-69" d="M 1172 4863 
L 1747 4863 
L 1606 4134 
L 1031 4134 
L 1172 4863 
z
M 909 3500 
L 1484 3500 
L 800 0 
L 225 0 
L 909 3500 
z
" transform="scale(0.015625)"/>
      <path id="DejaVuSans-Oblique-6e" d="M 3566 2113 
L 3156 0 
L 2578 0 
L 2988 2091 
Q 3016 2238 3031 2350 
Q 3047 2463 3047 2528 
Q 3047 2791 2881 2937 
Q 2716 3084 2419 3084 
Q 1956 3084 1622 2776 
Q 1288 2469 1184 1941 
L 800 0 
L 225 0 
L 903 3500 
L 1478 3500 
L 1363 2950 
Q 1603 3253 1940 3418 
Q 2278 3584 2650 3584 
Q 3113 3584 3367 3334 
Q 3622 3084 3622 2631 
Q 3622 2519 3608 2391 
Q 3594 2263 3566 2113 
z
" transform="scale(0.015625)"/>
     </defs>
     <use xlink:href="#DejaVuSans-Oblique-49" transform="translate(0 0.09375)"/>
     <use xlink:href="#DejaVuSans-Oblique-69" transform="translate(29.492188 -16.3125) scale(0.7)"/>
     <use xlink:href="#DejaVuSans-Oblique-6e" transform="translate(48.94043 -16.3125) scale(0.7)"/>
    </g>
   </g>
   <g id="text_2">
    <!-- $I_{2}$ -->
    <g style="fill: #008000" transform="translate(161.675 158.321219) scale(0.125 -0.125)">
     <defs>
      <path id="DejaVuSans-32" d="M 1228 531 
L 3431 531 
L 3431 0 
L 469 0 
L 469 531 
Q 828 903 1448 1529 
Q 2069 2156 2228 2338 
Q 2531 2678 2651 2914 
Q 2772 3150 2772 3378 
Q 2772 3750 2511 3984 
Q 2250 4219 1831 4219 
Q 1534 4219 1204 4116 
Q 875 4013 500 3803 
L 500 4441 
Q 881 4594 1212 4672 
Q 1544 4750 1819 4750 
Q 2544 4750 2975 4387 
Q 3406 4025 3406 3419 
Q 3406 3131 3298 2873 
Q 3191 2616 2906 2266 
Q 2828 2175 2409 1742 
Q 1991 1309 1228 531 
z
" transform="scale(0.015625)"/>
     </defs>
     <use xlink:href="#DejaVuSans-Oblique-49" transform="translate(0 0.09375)"/>
     <use xlink:href="#DejaVuSans-32" transform="translate(29.492188 -16.3125) scale(0.7)"/>
    </g>
   </g>
   <g id="text_3">
    <!-- $I_{3}$ -->
    <g style="fill: #008000" transform="translate(251.675 158.321219) scale(0.125 -0.125)">
     <defs>
      <path id="DejaVuSans-33" d="M 2597 2516 
Q 3050 2419 3304 2112 
Q 3559 1806 3559 1356 
Q 3559 666 3084 287 
Q 2609 -91 1734 -91 
Q 1441 -91 1130 -33 
Q 819 25 488 141 
L 488 750 
Q 750 597 1062 519 
Q 1375 441 1716 441 
Q 2309 441 2620 675 
Q 2931 909 2931 1356 
Q 2931 1769 2642 2001 
Q 2353 2234 1838 2234 
L 1294 2234 
L 1294 2753 
L 1863 2753 
Q 2328 2753 2575 2939 
Q 2822 3125 2822 3475 
Q 2822 3834 2567 4026 
Q 2313 4219 1838 4219 
Q 1578 4219 1281 4162 
Q 984 4106 628 3988 
L 628 4550 
Q 988 4650 1302 4700 
Q 1616 4750 1894 4750 
Q 2613 4750 3031 4423 
Q 3450 4097 3450 3541 
Q 3450 3153 3228 2886 
Q 3006 2619 2597 2516 
z
" transform="scale(0.015625)"/>
     </defs>
     <use xlink:href="#DejaVuSans-Oblique-49" transform="translate(0 0.09375)"/>
     <use xlink:href="#DejaVuSans-33" transform="translate(29.492188 -16.3125) scale(0.7)"/>
    </g>
   </g>
   <g id="text_4">
    <!-- $I_{in}$ -->
    <g style="fill: #ff0000" transform="translate(35.575 244.721219) scale(0.125 -0.125)">
     <use xlink:href="#DejaVuSans-Oblique-49" transform="translate(0 0.09375)"/>
     <use xlink:href="#DejaVuSans-Oblique-69" transform="translate(29.492188 -16.3125) scale(0.7)"/>
     <use xlink:href="#DejaVuSans-Oblique-6e" transform="translate(48.94043 -16.3125) scale(0.7)"/>
    </g>
   </g>
   <g id="text_5">
    <!-- $I_{2}$ -->
    <g style="fill: #008000" transform="translate(161.675 244.721219) scale(0.125 -0.125)">
     <use xlink:href="#DejaVuSans-Oblique-49" transform="translate(0 0.09375)"/>
     <use xlink:href="#DejaVuSans-32" transform="translate(29.492188 -16.3125) scale(0.7)"/>
    </g>
   </g>
   <g id="text_6">
    <!-- $I_{3}$ -->
    <g style="fill: #008000" transform="translate(251.675 244.721219) scale(0.125 -0.125)">
     <use xlink:href="#DejaVuSans-Oblique-49" transform="translate(0 0.09375)"/>
     <use xlink:href="#DejaVuSans-33" transform="translate(29.492188 -16.3125) scale(0.7)"/>
    </g>
   </g>
   <g id="text_7">
    <!-- $\frac{I_{in}}{\frac{W_1}{L_1}}=\frac{I_{2}}{\frac{W_2}{L_2}}=\frac{I_{3}}{\frac{W_3}{L_3}} = ...$ -->
    <g style="fill: #0000ff" transform="translate(393.1875 271.197) scale(0.225 -0.225)">
     <defs>
      <path id="DejaVuSans-Oblique-57" d="M 616 4666 
L 1228 4666 
L 1453 697 
L 3213 4666 
L 3916 4666 
L 4147 697 
L 5888 4666 
L 6528 4666 
L 4453 0 
L 3659 0 
L 3444 3891 
L 1697 0 
L 903 0 
L 616 4666 
z
" transform="scale(0.015625)"/>
      <path id="DejaVuSans-31" d="M 794 531 
L 1825 531 
L 1825 4091 
L 703 3866 
L 703 4441 
L 1819 4666 
L 2450 4666 
L 2450 531 
L 3481 531 
L 3481 0 
L 794 0 
L 794 531 
z
" transform="scale(0.015625)"/>
      <path id="DejaVuSans-Oblique-4c" d="M 1075 4666 
L 1709 4666 
L 909 525 
L 3181 525 
L 3078 0 
L 172 0 
L 1075 4666 
z
" transform="scale(0.015625)"/>
      <path id="DejaVuSans-3d" d="M 678 2906 
L 4684 2906 
L 4684 2381 
L 678 2381 
L 678 2906 
z
M 678 1631 
L 4684 1631 
L 4684 1100 
L 678 1100 
L 678 1631 
z
" transform="scale(0.015625)"/>
      <path id="DejaVuSans-2e" d="M 684 794 
L 1344 794 
L 1344 0 
L 684 0 
L 684 794 
z
" transform="scale(0.015625)"/>
     </defs>
     <use xlink:href="#DejaVuSans-Oblique-49" transform="translate(7 56.268906) scale(0.7)"/>
     <use xlink:href="#DejaVuSans-Oblique-69" transform="translate(27.644531 44.784531) scale(0.49)"/>
     <use xlink:href="#DejaVuSans-Oblique-6e" transform="translate(41.258301 44.784531) scale(0.49)"/>
     <use xlink:href="#DejaVuSans-Oblique-57" transform="translate(0 -22.189531) scale(0.49)"/>
     <use xlink:href="#DejaVuSans-31" transform="translate(48.449707 -30.228594) scale(0.343)"/>
     <use xlink:href="#DejaVuSans-Oblique-4c" transform="translate(11 -87.827656) scale(0.49)"/>
     <use xlink:href="#DejaVuSans-31" transform="translate(38.299316 -95.866719) scale(0.343)"/>
     <use xlink:href="#DejaVuSans-3d" transform="translate(112.344678 0.987656)"/>
     <use xlink:href="#DejaVuSans-Oblique-49" transform="translate(228.616162 56.268906) scale(0.7)"/>
     <use xlink:href="#DejaVuSans-32" transform="translate(249.260693 44.784531) scale(0.49)"/>
     <use xlink:href="#DejaVuSans-Oblique-57" transform="translate(215.616162 -22.189531) scale(0.49)"/>
     <use xlink:href="#DejaVuSans-32" transform="translate(264.065869 -30.228594) scale(0.343)"/>
     <use xlink:href="#DejaVuSans-Oblique-4c" transform="translate(226.616162 -87.827656) scale(0.49)"/>
     <use xlink:href="#DejaVuSans-32" transform="translate(253.915479 -95.866719) scale(0.343)"/>
     <use xlink:href="#DejaVuSans-3d" transform="translate(327.96084 0.987656)"/>
     <use xlink:href="#DejaVuSans-Oblique-49" transform="translate(444.232324 56.965625) scale(0.7)"/>
     <use xlink:href="#DejaVuSans-33" transform="translate(464.876855 45.48125) scale(0.49)"/>
     <use xlink:href="#DejaVuSans-Oblique-57" transform="translate(431.232324 -22.189531) scale(0.49)"/>
     <use xlink:href="#DejaVuSans-33" transform="translate(479.682031 -30.228594) scale(0.343)"/>
     <use xlink:href="#DejaVuSans-Oblique-4c" transform="translate(442.232324 -88.315359) scale(0.49)"/>
     <use xlink:href="#DejaVuSans-33" transform="translate(469.531641 -96.354422) scale(0.343)"/>
     <use xlink:href="#DejaVuSans-3d" transform="translate(543.577002 0.987656)"/>
     <use xlink:href="#DejaVuSans-2e" transform="translate(646.848486 0.987656)"/>
     <use xlink:href="#DejaVuSans-2e" transform="translate(698.118018 0.987656)"/>
     <use xlink:href="#DejaVuSans-2e" transform="translate(749.387549 0.987656)"/>
     <path d="M 0 19.784531 
L 0 26.034531 
L 80.362256 26.034531 
L 80.362256 19.784531 
L 0 19.784531 
z
"/>
     <path d="M 0 -47.728594 
L 0 -43.353594 
L 71.612256 -43.353594 
L 71.612256 -47.728594 
L 0 -47.728594 
z
"/>
     <path d="M 215.616162 19.784531 
L 215.616162 26.034531 
L 295.978418 26.034531 
L 295.978418 19.784531 
L 215.616162 19.784531 
z
"/>
     <path d="M 215.616162 -47.728594 
L 215.616162 -43.353594 
L 287.228418 -43.353594 
L 287.228418 -47.728594 
L 215.616162 -47.728594 
z
"/>
     <path d="M 431.232324 19.784531 
L 431.232324 26.034531 
L 511.59458 26.034531 
L 511.59458 19.784531 
L 431.232324 19.784531 
z
"/>
     <path d="M 431.232324 -48.216297 
L 431.232324 -43.841297 
L 502.84458 -43.841297 
L 502.84458 -48.216297 
L 431.232324 -48.216297 
z
"/>
    </g>
   </g>
   <g id="patch_18">
    <path d="M 51.3 38.772 
C 52.016048 38.772 52.702866 38.487511 53.209188 37.981188 
C 53.715511 37.474866 54 36.788048 54 36.072 
C 54 35.355952 53.715511 34.669134 53.209188 34.162812 
C 52.702866 33.656489 52.016048 33.372 51.3 33.372 
C 50.583952 33.372 49.897134 33.656489 49.390812 34.162812 
C 48.884489 34.669134 48.6 35.355952 48.6 36.072 
C 48.6 36.788048 48.884489 37.474866 49.390812 37.981188 
C 49.897134 38.487511 50.583952 38.772 51.3 38.772 
z
" clip-path="url(#pe40a5e3421)" style="stroke: #000000; stroke-width: 2; stroke-linejoin: miter"/>
   </g>
   <g id="patch_19">
    <path d="M 100.5 65.772 
C 101.216048 65.772 101.902866 65.487511 102.409188 64.981188 
C 102.915511 64.474866 103.2 63.788048 103.2 63.072 
C 103.2 62.355952 102.915511 61.669134 102.409188 61.162812 
C 101.902866 60.656489 101.216048 60.372 100.5 60.372 
C 99.783952 60.372 99.097134 60.656489 98.590812 61.162812 
C 98.084489 61.669134 97.8 62.355952 97.8 63.072 
C 97.8 63.788048 98.084489 64.474866 98.590812 64.981188 
C 99.097134 65.487511 99.783952 65.772 100.5 65.772 
z
" clip-path="url(#pe40a5e3421)" style="stroke: #000000; stroke-width: 2; stroke-linejoin: miter"/>
   </g>
   <g id="patch_20">
    <path d="M 100.5 92.772 
C 101.216048 92.772 101.902866 92.487511 102.409188 91.981188 
C 102.915511 91.474866 103.2 90.788048 103.2 90.072 
C 103.2 89.355952 102.915511 88.669134 102.409188 88.162812 
C 101.902866 87.656489 101.216048 87.372 100.5 87.372 
C 99.783952 87.372 99.097134 87.656489 98.590812 88.162812 
C 98.084489 88.669134 97.8 89.355952 97.8 90.072 
C 97.8 90.788048 98.084489 91.474866 98.590812 91.981188 
C 99.097134 92.487511 99.783952 92.772 100.5 92.772 
z
" clip-path="url(#pe40a5e3421)" style="stroke: #000000; stroke-width: 2; stroke-linejoin: miter"/>
   </g>
   <g id="patch_21">
    <path d="M 51.3 92.772 
C 52.016048 92.772 52.702866 92.487511 53.209188 91.981188 
C 53.715511 91.474866 54 90.788048 54 90.072 
C 54 89.355952 53.715511 88.669134 53.209188 88.162812 
C 52.702866 87.656489 52.016048 87.372 51.3 87.372 
C 50.583952 87.372 49.897134 87.656489 49.390812 88.162812 
C 48.884489 88.669134 48.6 89.355952 48.6 90.072 
C 48.6 90.788048 48.884489 91.474866 49.390812 91.981188 
C 49.897134 92.487511 50.583952 92.772 51.3 92.772 
z
" clip-path="url(#pe40a5e3421)" style="stroke: #000000; stroke-width: 2; stroke-linejoin: miter"/>
   </g>
   <g id="patch_22">
    <path d="M 51.3 110.772 
C 52.016048 110.772 52.702866 110.487511 53.209188 109.981188 
C 53.715511 109.474866 54 108.788048 54 108.072 
C 54 107.355952 53.715511 106.669134 53.209188 106.162812 
C 52.702866 105.656489 52.016048 105.372 51.3 105.372 
C 50.583952 105.372 49.897134 105.656489 49.390812 106.162812 
C 48.884489 106.669134 48.6 107.355952 48.6 108.072 
C 48.6 108.788048 48.884489 109.474866 49.390812 109.981188 
C 49.897134 110.487511 50.583952 110.772 51.3 110.772 
z
" clip-path="url(#pe40a5e3421)" style="fill: #ffffff; stroke: #000000; stroke-width: 2; stroke-linejoin: miter"/>
   </g>
   <g id="patch_23">
    <path d="M 149.7 38.772 
C 150.416048 38.772 151.102866 38.487511 151.609188 37.981188 
C 152.115511 37.474866 152.4 36.788048 152.4 36.072 
C 152.4 35.355952 152.115511 34.669134 151.609188 34.162812 
C 151.102866 33.656489 150.416048 33.372 149.7 33.372 
C 148.983952 33.372 148.297134 33.656489 147.790812 34.162812 
C 147.284489 34.669134 147 35.355952 147 36.072 
C 147 36.788048 147.284489 37.474866 147.790812 37.981188 
C 148.297134 38.487511 148.983952 38.772 149.7 38.772 
z
" clip-path="url(#pe40a5e3421)" style="stroke: #000000; stroke-width: 2; stroke-linejoin: miter"/>
   </g>
   <g id="patch_24">
    <path d="M 149.7 110.772 
C 150.416048 110.772 151.102866 110.487511 151.609188 109.981188 
C 152.115511 109.474866 152.4 108.788048 152.4 108.072 
C 152.4 107.355952 152.115511 106.669134 151.609188 106.162812 
C 151.102866 105.656489 150.416048 105.372 149.7 105.372 
C 148.983952 105.372 148.297134 105.656489 147.790812 106.162812 
C 147.284489 106.669134 147 107.355952 147 108.072 
C 147 108.788048 147.284489 109.474866 147.790812 109.981188 
C 148.297134 110.487511 148.983952 110.772 149.7 110.772 
z
" clip-path="url(#pe40a5e3421)" style="fill: #ffffff; stroke: #000000; stroke-width: 2; stroke-linejoin: miter"/>
   </g>
   <g id="patch_25">
    <path d="M 239.7 38.772 
C 240.416048 38.772 241.102866 38.487511 241.609188 37.981188 
C 242.115511 37.474866 242.4 36.788048 242.4 36.072 
C 242.4 35.355952 242.115511 34.669134 241.609188 34.162812 
C 241.102866 33.656489 240.416048 33.372 239.7 33.372 
C 238.983952 33.372 238.297134 33.656489 237.790812 34.162812 
C 237.284489 34.669134 237 35.355952 237 36.072 
C 237 36.788048 237.284489 37.474866 237.790812 37.981188 
C 238.297134 38.487511 238.983952 38.772 239.7 38.772 
z
" clip-path="url(#pe40a5e3421)" style="stroke: #000000; stroke-width: 2; stroke-linejoin: miter"/>
   </g>
   <g id="patch_26">
    <path d="M 239.7 110.772 
C 240.416048 110.772 241.102866 110.487511 241.609188 109.981188 
C 242.115511 109.474866 242.4 108.788048 242.4 108.072 
C 242.4 107.355952 242.115511 106.669134 241.609188 106.162812 
C 241.102866 105.656489 240.416048 105.372 239.7 105.372 
C 238.983952 105.372 238.297134 105.656489 237.790812 106.162812 
C 237.284489 106.669134 237 107.355952 237 108.072 
C 237 108.788048 237.284489 109.474866 237.790812 109.981188 
C 238.297134 110.487511 238.983952 110.772 239.7 110.772 
z
" clip-path="url(#pe40a5e3421)" style="fill: #ffffff; stroke: #000000; stroke-width: 2; stroke-linejoin: miter"/>
   </g>
   <g id="patch_27">
    <path d="M 51.3 362.772 
C 52.016048 362.772 52.702866 362.487511 53.209188 361.981188 
C 53.715511 361.474866 54 360.788048 54 360.072 
C 54 359.355952 53.715511 358.669134 53.209188 358.162812 
C 52.702866 357.656489 52.016048 357.372 51.3 357.372 
C 50.583952 357.372 49.897134 357.656489 49.390812 358.162812 
C 48.884489 358.669134 48.6 359.355952 48.6 360.072 
C 48.6 360.788048 48.884489 361.474866 49.390812 361.981188 
C 49.897134 362.487511 50.583952 362.772 51.3 362.772 
z
" clip-path="url(#pe40a5e3421)" style="stroke: #000000; stroke-width: 2; stroke-linejoin: miter"/>
   </g>
   <g id="patch_28">
    <path d="M 100.5 335.772 
C 101.216048 335.772 101.902866 335.487511 102.409188 334.981188 
C 102.915511 334.474866 103.2 333.788048 103.2 333.072 
C 103.2 332.355952 102.915511 331.669134 102.409188 331.162812 
C 101.902866 330.656489 101.216048 330.372 100.5 330.372 
C 99.783952 330.372 99.097134 330.656489 98.590812 331.162812 
C 98.084489 331.669134 97.8 332.355952 97.8 333.072 
C 97.8 333.788048 98.084489 334.474866 98.590812 334.981188 
C 99.097134 335.487511 99.783952 335.772 100.5 335.772 
z
" clip-path="url(#pe40a5e3421)" style="stroke: #000000; stroke-width: 2; stroke-linejoin: miter"/>
   </g>
   <g id="patch_29">
    <path d="M 100.5 308.772 
C 101.216048 308.772 101.902866 308.487511 102.409188 307.981188 
C 102.915511 307.474866 103.2 306.788048 103.2 306.072 
C 103.2 305.355952 102.915511 304.669134 102.409188 304.162812 
C 101.902866 303.656489 101.216048 303.372 100.5 303.372 
C 99.783952 303.372 99.097134 303.656489 98.590812 304.162812 
C 98.084489 304.669134 97.8 305.355952 97.8 306.072 
C 97.8 306.788048 98.084489 307.474866 98.590812 307.981188 
C 99.097134 308.487511 99.783952 308.772 100.5 308.772 
z
" clip-path="url(#pe40a5e3421)" style="stroke: #000000; stroke-width: 2; stroke-linejoin: miter"/>
   </g>
   <g id="patch_30">
    <path d="M 51.3 308.772 
C 52.016048 308.772 52.702866 308.487511 53.209188 307.981188 
C 53.715511 307.474866 54 306.788048 54 306.072 
C 54 305.355952 53.715511 304.669134 53.209188 304.162812 
C 52.702866 303.656489 52.016048 303.372 51.3 303.372 
C 50.583952 303.372 49.897134 303.656489 49.390812 304.162812 
C 48.884489 304.669134 48.6 305.355952 48.6 306.072 
C 48.6 306.788048 48.884489 307.474866 49.390812 307.981188 
C 49.897134 308.487511 50.583952 308.772 51.3 308.772 
z
" clip-path="url(#pe40a5e3421)" style="stroke: #000000; stroke-width: 2; stroke-linejoin: miter"/>
   </g>
   <g id="patch_31">
    <path d="M 51.3 290.772 
C 52.016048 290.772 52.702866 290.487511 53.209188 289.981188 
C 53.715511 289.474866 54 288.788048 54 288.072 
C 54 287.355952 53.715511 286.669134 53.209188 286.162812 
C 52.702866 285.656489 52.016048 285.372 51.3 285.372 
C 50.583952 285.372 49.897134 285.656489 49.390812 286.162812 
C 48.884489 286.669134 48.6 287.355952 48.6 288.072 
C 48.6 288.788048 48.884489 289.474866 49.390812 289.981188 
C 49.897134 290.487511 50.583952 290.772 51.3 290.772 
z
" clip-path="url(#pe40a5e3421)" style="fill: #ffffff; stroke: #000000; stroke-width: 2; stroke-linejoin: miter"/>
   </g>
   <g id="patch_32">
    <path d="M 149.7 362.772 
C 150.416048 362.772 151.102866 362.487511 151.609188 361.981188 
C 152.115511 361.474866 152.4 360.788048 152.4 360.072 
C 152.4 359.355952 152.115511 358.669134 151.609188 358.162812 
C 151.102866 357.656489 150.416048 357.372 149.7 357.372 
C 148.983952 357.372 148.297134 357.656489 147.790812 358.162812 
C 147.284489 358.669134 147 359.355952 147 360.072 
C 147 360.788048 147.284489 361.474866 147.790812 361.981188 
C 148.297134 362.487511 148.983952 362.772 149.7 362.772 
z
" clip-path="url(#pe40a5e3421)" style="stroke: #000000; stroke-width: 2; stroke-linejoin: miter"/>
   </g>
   <g id="patch_33">
    <path d="M 149.7 290.772 
C 150.416048 290.772 151.102866 290.487511 151.609188 289.981188 
C 152.115511 289.474866 152.4 288.788048 152.4 288.072 
C 152.4 287.355952 152.115511 286.669134 151.609188 286.162812 
C 151.102866 285.656489 150.416048 285.372 149.7 285.372 
C 148.983952 285.372 148.297134 285.656489 147.790812 286.162812 
C 147.284489 286.669134 147 287.355952 147 288.072 
C 147 288.788048 147.284489 289.474866 147.790812 289.981188 
C 148.297134 290.487511 148.983952 290.772 149.7 290.772 
z
" clip-path="url(#pe40a5e3421)" style="fill: #ffffff; stroke: #000000; stroke-width: 2; stroke-linejoin: miter"/>
   </g>
   <g id="patch_34">
    <path d="M 239.7 362.772 
C 240.416048 362.772 241.102866 362.487511 241.609188 361.981188 
C 242.115511 361.474866 242.4 360.788048 242.4 360.072 
C 242.4 359.355952 242.115511 358.669134 241.609188 358.162812 
C 241.102866 357.656489 240.416048 357.372 239.7 357.372 
C 238.983952 357.372 238.297134 357.656489 237.790812 358.162812 
C 237.284489 358.669134 237 359.355952 237 360.072 
C 237 360.788048 237.284489 361.474866 237.790812 361.981188 
C 238.297134 362.487511 238.983952 362.772 239.7 362.772 
z
" clip-path="url(#pe40a5e3421)" style="stroke: #000000; stroke-width: 2; stroke-linejoin: miter"/>
   </g>
   <g id="patch_35">
    <path d="M 239.7 290.772 
C 240.416048 290.772 241.102866 290.487511 241.609188 289.981188 
C 242.115511 289.474866 242.4 288.788048 242.4 288.072 
C 242.4 287.355952 242.115511 286.669134 241.609188 286.162812 
C 241.102866 285.656489 240.416048 285.372 239.7 285.372 
C 238.983952 285.372 238.297134 285.656489 237.790812 286.162812 
C 237.284489 286.669134 237 287.355952 237 288.072 
C 237 288.788048 237.284489 289.474866 237.790812 289.981188 
C 238.297134 290.487511 238.983952 290.772 239.7 290.772 
z
" clip-path="url(#pe40a5e3421)" style="fill: #ffffff; stroke: #000000; stroke-width: 2; stroke-linejoin: miter"/>
   </g>
  </g>
 </g>
 <defs>
  <clipPath id="pe40a5e3421">
   <rect x="3.6" y="3.6" width="653.4" height="397.584"/>
  </clipPath>
 </defs>
</svg>