<?xml version="1.0" encoding="utf-8" standalone="no"?>
<!DOCTYPE svg PUBLIC "-//W3C//DTD SVG 1.1//EN"
  "http://www.w3.org/Graphics/SVG/1.1/DTD/svg11.dtd">
<svg xmlns:xlink="http://www.w3.org/1999/xlink" width="193.3794pt" height="269.74pt" viewBox="0 0 193.3794 269.74" xmlns="http://www.w3.org/2000/svg" version="1.1">
 <metadata>
  <rdf:RDF xmlns:dc="http://purl.org/dc/elements/1.1/" xmlns:cc="http://creativecommons.org/ns#" xmlns:rdf="http://www.w3.org/1999/02/22-rdf-syntax-ns#">
   <cc:Work>
    <dc:type rdf:resource="http://purl.org/dc/dcmitype/StillImage"/>
    <dc:date>2022-03-27T21:37:33.754869</dc:date>
    <dc:format>image/svg+xml</dc:format>
    <dc:creator>
     <cc:Agent>
      <dc:title>Matplotlib v3.5.1, https://matplotlib.org/</dc:title>
     </cc:Agent>
    </dc:creator>
   </cc:Work>
  </rdf:RDF>
 </metadata>
 <defs>
  <style type="text/css">*{stroke-linejoin: round; stroke-linecap: butt}</style>
 </defs>
 <g id="figure_1">
  <g id="patch_1">
   <path d="M 0 269.74 
L 193.3794 269.74 
L 193.3794 0 
L 0 0 
L 0 269.74 
z
" style="fill: none"/>
  </g>
  <g id="axes_1">
   <g id="patch_2">
    <path d="M 70.797 141.976 
L 70.94265 141.974844 
L 71.088262 141.971378 
L 71.233802 141.965602 
L 71.379232 141.957518 
L 71.524515 141.947127 
L 71.669614 141.934432 
L 71.814495 141.919437 
L 71.959119 141.902145 
L 72.10345 141.882561 
L 72.247453 141.860689 
L 72.39109 141.836535 
L 72.534326 141.810105 
L 72.677125 141.781406 
L 72.819451 141.750445 
L 72.961267 141.71723 
L 73.102539 141.681769 
L 73.24323 141.644071 
L 73.383305 141.604145 
L 73.522729 141.562003 
L 73.661467 141.517653 
L 73.799484 141.471108 
L 73.936745 141.422378 
L 74.073216 141.371477 
L 74.208861 141.318418 
L 74.343648 141.263212 
L 74.477542 141.205876 
L 74.61051 141.146422 
L 74.742517 141.084866 
L 74.873532 141.021223 
L 75.003519 140.955509 
L 75.132448 140.887742 
L 75.260286 140.817937 
L 75.387 140.746113 
L 75.512558 140.672288 
L 75.63693 140.596479 
L 75.760083 140.518707 
L 75.881986 140.438991 
L 76.00261 140.357351 
L 76.121922 140.273807 
L 76.239895 140.188381 
L 76.356497 140.101094 
L 76.471699 140.011967 
L 76.585473 139.921025 
L 76.69779 139.828288 
L 76.808622 139.733781 
L 76.917939 139.637528 
L 77.025716 139.539552 
L 77.131925 139.439878 
L 77.236539 139.338532 
L 77.339532 139.235539 
L 77.440878 139.130925 
L 77.540552 139.024716 
L 77.638528 138.916939 
L 77.734781 138.807622 
L 77.829288 138.69679 
L 77.922025 138.584473 
L 78.012967 138.470699 
L 78.102094 138.355497 
L 78.189381 138.238895 
L 78.274807 138.120922 
L 78.358351 138.00161 
L 78.439991 137.880986 
L 78.519707 137.759083 
L 78.597479 137.63593 
L 78.673288 137.511558 
L 78.747113 137.386 
L 78.818937 137.259286 
L 78.888742 137.131448 
L 78.956509 137.002519 
L 79.022223 136.872532 
L 79.085866 136.741517 
L 79.147422 136.60951 
L 79.206876 136.476542 
L 79.264212 136.342648 
L 79.319418 136.207861 
L 79.372477 136.072216 
L 79.423378 135.935745 
L 79.472108 135.798484 
L 79.518653 135.660467 
L 79.563003 135.521729 
L 79.605145 135.382305 
L 79.645071 135.24223 
L 79.682769 135.101539 
L 79.71823 134.960267 
L 79.751445 134.818451 
L 79.782406 134.676125 
L 79.811105 134.533326 
L 79.837535 134.39009 
L 79.861689 134.246453 
L 79.883561 134.10245 
L 79.903145 133.958119 
L 79.920437 133.813495 
L 79.935432 133.668614 
L 79.948127 133.523515 
L 79.958518 133.378232 
L 79.966602 133.232802 
L 79.972378 133.087262 
L 79.975844 132.94165 
L 79.977 132.796 
L 79.977 59.56 
L 79.975844 59.41435 
L 79.972378 59.268738 
L 79.966602 59.123198 
L 79.958518 58.977768 
L 79.948127 58.832485 
L 79.935432 58.687386 
L 79.920437 58.542505 
L 79.903145 58.397881 
L 79.883561 58.25355 
L 79.861689 58.109547 
L 79.837535 57.96591 
L 79.811105 57.822674 
L 79.782406 57.679875 
L 79.751445 57.537549 
L 79.71823 57.395733 
L 79.682769 57.254461 
L 79.645071 57.11377 
L 79.605145 56.973695 
L 79.563003 56.834271 
L 79.518653 56.695533 
L 79.472108 56.557516 
L 79.423378 56.420255 
L 79.372477 56.283784 
L 79.319418 56.148139 
L 79.264212 56.013352 
L 79.206876 55.879458 
L 79.147422 55.74649 
L 79.085866 55.614483 
L 79.022223 55.483468 
L 78.956509 55.353481 
L 78.888742 55.224552 
L 78.818937 55.096714 
L 78.747113 54.97 
L 78.673288 54.844442 
L 78.597479 54.72007 
L 78.519707 54.596917 
L 78.439991 54.475014 
L 78.358351 54.35439 
L 78.274807 54.235078 
L 78.189381 54.117105 
L 78.102094 54.000503 
L 78.012967 53.885301 
L 77.922025 53.771527 
L 77.829288 53.65921 
L 77.734781 53.548378 
L 77.638528 53.439061 
L 77.540552 53.331284 
L 77.440878 53.225075 
L 77.339532 53.120461 
L 77.236539 53.017468 
L 77.131925 52.916122 
L 77.025716 52.816448 
L 76.917939 52.718472 
L 76.808622 52.622219 
L 76.69779 52.527712 
L 76.585473 52.434975 
L 76.471699 52.344033 
L 76.356497 52.254906 
L 76.239895 52.167619 
L 76.121922 52.082193 
L 76.00261 51.998649 
L 75.881986 51.917009 
L 75.760083 51.837293 
L 75.63693 51.759521 
L 75.512558 51.683712 
L 75.387 51.609887 
L 75.260286 51.538063 
L 75.132448 51.468258 
L 75.003519 51.400491 
L 74.873532 51.334777 
L 74.742517 51.271134 
L 74.61051 51.209578 
L 74.477542 51.150124 
L 74.343648 51.092788 
L 74.208861 51.037582 
L 74.073216 50.984523 
L 73.936745 50.933622 
L 73.799484 50.884892 
L 73.661467 50.838347 
L 73.522729 50.793997 
L 73.383305 50.751855 
L 73.24323 50.711929 
L 73.102539 50.674231 
L 72.961267 50.63877 
L 72.819451 50.605555 
L 72.677125 50.574594 
L 72.534326 50.545895 
L 72.39109 50.519465 
L 72.247453 50.495311 
L 72.10345 50.473439 
L 71.959119 50.453855 
L 71.814495 50.436563 
L 71.669614 50.421568 
L 71.524515 50.408873 
L 71.379232 50.398482 
L 71.233802 50.390398 
L 71.088262 50.384622 
L 70.94265 50.381156 
L 70.797 50.38 
L 30.915 50.38 
L 30.76935 50.381156 
L 30.623738 50.384622 
L 30.478198 50.390398 
L 30.332768 50.398482 
L 30.187485 50.408873 
L 30.042386 50.421568 
L 29.897505 50.436563 
L 29.752881 50.453855 
L 29.60855 50.473439 
L 29.464547 50.495311 
L 29.32091 50.519465 
L 29.177674 50.545895 
L 29.034875 50.574594 
L 28.892549 50.605555 
L 28.750733 50.63877 
L 28.609461 50.674231 
L 28.46877 50.711929 
L 28.328695 50.751855 
L 28.189271 50.793997 
L 28.050533 50.838347 
L 27.912516 50.884892 
L 27.775255 50.933622 
L 27.638784 50.984523 
L 27.503139 51.037582 
L 27.368352 51.092788 
L 27.234458 51.150124 
L 27.10149 51.209578 
L 26.969483 51.271134 
L 26.838468 51.334777 
L 26.708481 51.400491 
L 26.579552 51.468258 
L 26.451714 51.538063 
L 26.325 51.609887 
L 26.199442 51.683712 
L 26.07507 51.759521 
L 25.951917 51.837293 
L 25.830014 51.917009 
L 25.70939 51.998649 
L 25.590078 52.082193 
L 25.472105 52.167619 
L 25.355503 52.254906 
L 25.240301 52.344033 
L 25.126527 52.434975 
L 25.01421 52.527712 
L 24.903378 52.622219 
L 24.794061 52.718472 
L 24.686284 52.816448 
L 24.580075 52.916122 
L 24.475461 53.017468 
L 24.372468 53.120461 
L 24.271122 53.225075 
L 24.171448 53.331284 
L 24.073472 53.439061 
L 23.977219 53.548378 
L 23.882712 53.65921 
L 23.789975 53.771527 
L 23.699033 53.885301 
L 23.609906 54.000503 
L 23.522619 54.117105 
L 23.437193 54.235078 
L 23.353649 54.35439 
L 23.272009 54.475014 
L 23.192293 54.596917 
L 23.114521 54.72007 
L 23.038712 54.844442 
L 22.964887 54.97 
L 22.893063 55.096714 
L 22.823258 55.224552 
L 22.755491 55.353481 
L 22.689777 55.483468 
L 22.626134 55.614483 
L 22.564578 55.74649 
L 22.505124 55.879458 
L 22.447788 56.013352 
L 22.392582 56.148139 
L 22.339523 56.283784 
L 22.288622 56.420255 
L 22.239892 56.557516 
L 22.193347 56.695533 
L 22.148997 56.834271 
L 22.106855 56.973695 
L 22.066929 57.11377 
L 22.029231 57.254461 
L 21.99377 57.395733 
L 21.960555 57.537549 
L 21.929594 57.679875 
L 21.900895 57.822674 
L 21.874465 57.96591 
L 21.850311 58.109547 
L 21.828439 58.25355 
L 21.808855 58.397881 
L 21.791563 58.542505 
L 21.776568 58.687386 
L 21.763873 58.832485 
L 21.753482 58.977768 
L 21.745398 59.123198 
L 21.739622 59.268738 
L 21.736156 59.41435 
L 21.735 59.56 
L 21.735 132.796 
L 21.736156 132.94165 
L 21.739622 133.087262 
L 21.745398 133.232802 
L 21.753482 133.378232 
L 21.763873 133.523515 
L 21.776568 133.668614 
L 21.791563 133.813495 
L 21.808855 133.958119 
L 21.828439 134.10245 
L 21.850311 134.246453 
L 21.874465 134.39009 
L 21.900895 134.533326 
L 21.929594 134.676125 
L 21.960555 134.818451 
L 21.99377 134.960267 
L 22.029231 135.101539 
L 22.066929 135.24223 
L 22.106855 135.382305 
L 22.148997 135.521729 
L 22.193347 135.660467 
L 22.239892 135.798484 
L 22.288622 135.935745 
L 22.339523 136.072216 
L 22.392582 136.207861 
L 22.447788 136.342648 
L 22.505124 136.476542 
L 22.564578 136.60951 
L 22.626134 136.741517 
L 22.689777 136.872532 
L 22.755491 137.002519 
L 22.823258 137.131448 
L 22.893063 137.259286 
L 22.964887 137.386 
L 23.038712 137.511558 
L 23.114521 137.63593 
L 23.192293 137.759083 
L 23.272009 137.880986 
L 23.353649 138.00161 
L 23.437193 138.120922 
L 23.522619 138.238895 
L 23.609906 138.355497 
L 23.699033 138.470699 
L 23.789975 138.584473 
L 23.882712 138.69679 
L 23.977219 138.807622 
L 24.073472 138.916939 
L 24.171448 139.024716 
L 24.271122 139.130925 
L 24.372468 139.235539 
L 24.475461 139.338532 
L 24.580075 139.439878 
L 24.686284 139.539552 
L 24.794061 139.637528 
L 24.903378 139.733781 
L 25.01421 139.828288 
L 25.126527 139.921025 
L 25.240301 140.011967 
L 25.355503 140.101094 
L 25.472105 140.188381 
L 25.590078 140.273807 
L 25.70939 140.357351 
L 25.830014 140.438991 
L 25.951917 140.518707 
L 26.07507 140.596479 
L 26.199442 140.672288 
L 26.325 140.746113 
L 26.451714 140.817937 
L 26.579552 140.887742 
L 26.708481 140.955509 
L 26.838468 141.021223 
L 26.969483 141.084866 
L 27.10149 141.146422 
L 27.234458 141.205876 
L 27.368352 141.263212 
L 27.503139 141.318418 
L 27.638784 141.371477 
L 27.775255 141.422378 
L 27.912516 141.471108 
L 28.050533 141.517653 
L 28.189271 141.562003 
L 28.328695 141.604145 
L 28.46877 141.644071 
L 28.609461 141.681769 
L 28.750733 141.71723 
L 28.892549 141.750445 
L 29.034875 141.781406 
L 29.177674 141.810105 
L 29.32091 141.836535 
L 29.464547 141.860689 
L 29.60855 141.882561 
L 29.752881 141.902145 
L 29.897505 141.919437 
L 30.042386 141.934432 
L 30.187485 141.947127 
L 30.332768 141.957518 
L 30.478198 141.965602 
L 30.623738 141.971378 
L 30.76935 141.974844 
L 30.915 141.976 
L 70.797 141.976 
z
" clip-path="url(#pe3636c59ec)" style="fill: none; stroke-dasharray: 1.85,0.8; stroke-dashoffset: 0; stroke: #008000; stroke-width: 0.5; stroke-linecap: round"/>
   </g>
   <g id="patch_3">
    <path d="M 70.797 236.836 
L 70.94265 236.834844 
L 71.088262 236.831378 
L 71.233802 236.825602 
L 71.379232 236.817518 
L 71.524515 236.807127 
L 71.669614 236.794432 
L 71.814495 236.779437 
L 71.959119 236.762145 
L 72.10345 236.742561 
L 72.247453 236.720689 
L 72.39109 236.696535 
L 72.534326 236.670105 
L 72.677125 236.641406 
L 72.819451 236.610445 
L 72.961267 236.57723 
L 73.102539 236.541769 
L 73.24323 236.504071 
L 73.383305 236.464145 
L 73.522729 236.422003 
L 73.661467 236.377653 
L 73.799484 236.331108 
L 73.936745 236.282378 
L 74.073216 236.231477 
L 74.208861 236.178418 
L 74.343648 236.123212 
L 74.477542 236.065876 
L 74.61051 236.006422 
L 74.742517 235.944866 
L 74.873532 235.881223 
L 75.003519 235.815509 
L 75.132448 235.747742 
L 75.260286 235.677937 
L 75.387 235.606113 
L 75.512558 235.532288 
L 75.63693 235.456479 
L 75.760083 235.378707 
L 75.881986 235.298991 
L 76.00261 235.217351 
L 76.121922 235.133807 
L 76.239895 235.048381 
L 76.356497 234.961094 
L 76.471699 234.871967 
L 76.585473 234.781025 
L 76.69779 234.688288 
L 76.808622 234.593781 
L 76.917939 234.497528 
L 77.025716 234.399552 
L 77.131925 234.299878 
L 77.236539 234.198532 
L 77.339532 234.095539 
L 77.440878 233.990925 
L 77.540552 233.884716 
L 77.638528 233.776939 
L 77.734781 233.667622 
L 77.829288 233.55679 
L 77.922025 233.444473 
L 78.012967 233.330699 
L 78.102094 233.215497 
L 78.189381 233.098895 
L 78.274807 232.980922 
L 78.358351 232.86161 
L 78.439991 232.740986 
L 78.519707 232.619083 
L 78.597479 232.49593 
L 78.673288 232.371558 
L 78.747113 232.246 
L 78.818937 232.119286 
L 78.888742 231.991448 
L 78.956509 231.862519 
L 79.022223 231.732532 
L 79.085866 231.601517 
L 79.147422 231.46951 
L 79.206876 231.336542 
L 79.264212 231.202648 
L 79.319418 231.067861 
L 79.372477 230.932216 
L 79.423378 230.795745 
L 79.472108 230.658484 
L 79.518653 230.520467 
L 79.563003 230.381729 
L 79.605145 230.242305 
L 79.645071 230.10223 
L 79.682769 229.961539 
L 79.71823 229.820267 
L 79.751445 229.678451 
L 79.782406 229.536125 
L 79.811105 229.393326 
L 79.837535 229.25009 
L 79.861689 229.106453 
L 79.883561 228.96245 
L 79.903145 228.818119 
L 79.920437 228.673495 
L 79.935432 228.528614 
L 79.948127 228.383515 
L 79.958518 228.238232 
L 79.966602 228.092802 
L 79.972378 227.947262 
L 79.975844 227.80165 
L 79.977 227.656 
L 79.977 157.276 
L 79.975844 157.13035 
L 79.972378 156.984738 
L 79.966602 156.839198 
L 79.958518 156.693768 
L 79.948127 156.548485 
L 79.935432 156.403386 
L 79.920437 156.258505 
L 79.903145 156.113881 
L 79.883561 155.96955 
L 79.861689 155.825547 
L 79.837535 155.68191 
L 79.811105 155.538674 
L 79.782406 155.395875 
L 79.751445 155.253549 
L 79.71823 155.111733 
L 79.682769 154.970461 
L 79.645071 154.82977 
L 79.605145 154.689695 
L 79.563003 154.550271 
L 79.518653 154.411533 
L 79.472108 154.273516 
L 79.423378 154.136255 
L 79.372477 153.999784 
L 79.319418 153.864139 
L 79.264212 153.729352 
L 79.206876 153.595458 
L 79.147422 153.46249 
L 79.085866 153.330483 
L 79.022223 153.199468 
L 78.956509 153.069481 
L 78.888742 152.940552 
L 78.818937 152.812714 
L 78.747113 152.686 
L 78.673288 152.560442 
L 78.597479 152.43607 
L 78.519707 152.312917 
L 78.439991 152.191014 
L 78.358351 152.07039 
L 78.274807 151.951078 
L 78.189381 151.833105 
L 78.102094 151.716503 
L 78.012967 151.601301 
L 77.922025 151.487527 
L 77.829288 151.37521 
L 77.734781 151.264378 
L 77.638528 151.155061 
L 77.540552 151.047284 
L 77.440878 150.941075 
L 77.339532 150.836461 
L 77.236539 150.733468 
L 77.131925 150.632122 
L 77.025716 150.532448 
L 76.917939 150.434472 
L 76.808622 150.338219 
L 76.69779 150.243712 
L 76.585473 150.150975 
L 76.471699 150.060033 
L 76.356497 149.970906 
L 76.239895 149.883619 
L 76.121922 149.798193 
L 76.00261 149.714649 
L 75.881986 149.633009 
L 75.760083 149.553293 
L 75.63693 149.475521 
L 75.512558 149.399712 
L 75.387 149.325887 
L 75.260286 149.254063 
L 75.132448 149.184258 
L 75.003519 149.116491 
L 74.873532 149.050777 
L 74.742517 148.987134 
L 74.61051 148.925578 
L 74.477542 148.866124 
L 74.343648 148.808788 
L 74.208861 148.753582 
L 74.073216 148.700523 
L 73.936745 148.649622 
L 73.799484 148.600892 
L 73.661467 148.554347 
L 73.522729 148.509997 
L 73.383305 148.467855 
L 73.24323 148.427929 
L 73.102539 148.390231 
L 72.961267 148.35477 
L 72.819451 148.321555 
L 72.677125 148.290594 
L 72.534326 148.261895 
L 72.39109 148.235465 
L 72.247453 148.211311 
L 72.10345 148.189439 
L 71.959119 148.169855 
L 71.814495 148.152563 
L 71.669614 148.137568 
L 71.524515 148.124873 
L 71.379232 148.114482 
L 71.233802 148.106398 
L 71.088262 148.100622 
L 70.94265 148.097156 
L 70.797 148.096 
L 30.915 148.096 
L 30.76935 148.097156 
L 30.623738 148.100622 
L 30.478198 148.106398 
L 30.332768 148.114482 
L 30.187485 148.124873 
L 30.042386 148.137568 
L 29.897505 148.152563 
L 29.752881 148.169855 
L 29.60855 148.189439 
L 29.464547 148.211311 
L 29.32091 148.235465 
L 29.177674 148.261895 
L 29.034875 148.290594 
L 28.892549 148.321555 
L 28.750733 148.35477 
L 28.609461 148.390231 
L 28.46877 148.427929 
L 28.328695 148.467855 
L 28.189271 148.509997 
L 28.050533 148.554347 
L 27.912516 148.600892 
L 27.775255 148.649622 
L 27.638784 148.700523 
L 27.503139 148.753582 
L 27.368352 148.808788 
L 27.234458 148.866124 
L 27.10149 148.925578 
L 26.969483 148.987134 
L 26.838468 149.050777 
L 26.708481 149.116491 
L 26.579552 149.184258 
L 26.451714 149.254063 
L 26.325 149.325887 
L 26.199442 149.399712 
L 26.07507 149.475521 
L 25.951917 149.553293 
L 25.830014 149.633009 
L 25.70939 149.714649 
L 25.590078 149.798193 
L 25.472105 149.883619 
L 25.355503 149.970906 
L 25.240301 150.060033 
L 25.126527 150.150975 
L 25.01421 150.243712 
L 24.903378 150.338219 
L 24.794061 150.434472 
L 24.686284 150.532448 
L 24.580075 150.632122 
L 24.475461 150.733468 
L 24.372468 150.836461 
L 24.271122 150.941075 
L 24.171448 151.047284 
L 24.073472 151.155061 
L 23.977219 151.264378 
L 23.882712 151.37521 
L 23.789975 151.487527 
L 23.699033 151.601301 
L 23.609906 151.716503 
L 23.522619 151.833105 
L 23.437193 151.951078 
L 23.353649 152.07039 
L 23.272009 152.191014 
L 23.192293 152.312917 
L 23.114521 152.43607 
L 23.038712 152.560442 
L 22.964887 152.686 
L 22.893063 152.812714 
L 22.823258 152.940552 
L 22.755491 153.069481 
L 22.689777 153.199468 
L 22.626134 153.330483 
L 22.564578 153.46249 
L 22.505124 153.595458 
L 22.447788 153.729352 
L 22.392582 153.864139 
L 22.339523 153.999784 
L 22.288622 154.136255 
L 22.239892 154.273516 
L 22.193347 154.411533 
L 22.148997 154.550271 
L 22.106855 154.689695 
L 22.066929 154.82977 
L 22.029231 154.970461 
L 21.99377 155.111733 
L 21.960555 155.253549 
L 21.929594 155.395875 
L 21.900895 155.538674 
L 21.874465 155.68191 
L 21.850311 155.825547 
L 21.828439 155.96955 
L 21.808855 156.113881 
L 21.791563 156.258505 
L 21.776568 156.403386 
L 21.763873 156.548485 
L 21.753482 156.693768 
L 21.745398 156.839198 
L 21.739622 156.984738 
L 21.736156 157.13035 
L 21.735 157.276 
L 21.735 227.656 
L 21.736156 227.80165 
L 21.739622 227.947262 
L 21.745398 228.092802 
L 21.753482 228.238232 
L 21.763873 228.383515 
L 21.776568 228.528614 
L 21.791563 228.673495 
L 21.808855 228.818119 
L 21.828439 228.96245 
L 21.850311 229.106453 
L 21.874465 229.25009 
L 21.900895 229.393326 
L 21.929594 229.536125 
L 21.960555 229.678451 
L 21.99377 229.820267 
L 22.029231 229.961539 
L 22.066929 230.10223 
L 22.106855 230.242305 
L 22.148997 230.381729 
L 22.193347 230.520467 
L 22.239892 230.658484 
L 22.288622 230.795745 
L 22.339523 230.932216 
L 22.392582 231.067861 
L 22.447788 231.202648 
L 22.505124 231.336542 
L 22.564578 231.46951 
L 22.626134 231.601517 
L 22.689777 231.732532 
L 22.755491 231.862519 
L 22.823258 231.991448 
L 22.893063 232.119286 
L 22.964887 232.246 
L 23.038712 232.371558 
L 23.114521 232.49593 
L 23.192293 232.619083 
L 23.272009 232.740986 
L 23.353649 232.86161 
L 23.437193 232.980922 
L 23.522619 233.098895 
L 23.609906 233.215497 
L 23.699033 233.330699 
L 23.789975 233.444473 
L 23.882712 233.55679 
L 23.977219 233.667622 
L 24.073472 233.776939 
L 24.171448 233.884716 
L 24.271122 233.990925 
L 24.372468 234.095539 
L 24.475461 234.198532 
L 24.580075 234.299878 
L 24.686284 234.399552 
L 24.794061 234.497528 
L 24.903378 234.593781 
L 25.01421 234.688288 
L 25.126527 234.781025 
L 25.240301 234.871967 
L 25.355503 234.961094 
L 25.472105 235.048381 
L 25.590078 235.133807 
L 25.70939 235.217351 
L 25.830014 235.298991 
L 25.951917 235.378707 
L 26.07507 235.456479 
L 26.199442 235.532288 
L 26.325 235.606113 
L 26.451714 235.677937 
L 26.579552 235.747742 
L 26.708481 235.815509 
L 26.838468 235.881223 
L 26.969483 235.944866 
L 27.10149 236.006422 
L 27.234458 236.065876 
L 27.368352 236.123212 
L 27.503139 236.178418 
L 27.638784 236.231477 
L 27.775255 236.282378 
L 27.912516 236.331108 
L 28.050533 236.377653 
L 28.189271 236.422003 
L 28.328695 236.464145 
L 28.46877 236.504071 
L 28.609461 236.541769 
L 28.750733 236.57723 
L 28.892549 236.610445 
L 29.034875 236.641406 
L 29.177674 236.670105 
L 29.32091 236.696535 
L 29.464547 236.720689 
L 29.60855 236.742561 
L 29.752881 236.762145 
L 29.897505 236.779437 
L 30.042386 236.794432 
L 30.187485 236.807127 
L 30.332768 236.817518 
L 30.478198 236.825602 
L 30.623738 236.831378 
L 30.76935 236.834844 
L 30.915 236.836 
L 70.797 236.836 
z
" clip-path="url(#pe3636c59ec)" style="fill: none; stroke-dasharray: 1.85,0.8; stroke-dashoffset: 0; stroke: #008000; stroke-width: 0.5; stroke-linecap: round"/>
   </g>
   <g id="line2d_1">
    <path d="M 27.855 68.638 
L 39.075 68.638 
" clip-path="url(#pe3636c59ec)" style="fill: none; stroke: #000000; stroke-width: 2; stroke-linecap: round"/>
   </g>
   <g id="line2d_2">
    <path d="M 39.075 57.418 
L 39.075 79.858 
" clip-path="url(#pe3636c59ec)" style="fill: none; stroke: #000000; stroke-width: 2; stroke-linecap: round"/>
   </g>
   <g id="line2d_3">
    <path d="M 39.075 63.028 
L 50.856 52.93 
L 50.856 47.32 
" clip-path="url(#pe3636c59ec)" style="fill: none; stroke: #000000; stroke-width: 2; stroke-linecap: round"/>
   </g>
   <g id="line2d_4">
    <path d="M 39.075 74.248 
L 50.856 84.346 
L 50.856 89.956 
" clip-path="url(#pe3636c59ec)" style="fill: none; stroke: #000000; stroke-width: 2; stroke-linecap: round"/>
   </g>
   <g id="line2d_5">
    <path d="M 39.075 74.248 
L 45.047687 79.367446 
" clip-path="url(#pe3636c59ec)" style="fill: none; stroke: #000000; stroke-width: 2; stroke-linecap: round"/>
   </g>
   <g id="patch_4">
    <path d="M 47.039109 77.044121 
L 50.856 84.346 
L 43.056265 81.690771 
z
" clip-path="url(#pe3636c59ec)"/>
   </g>
   <g id="line2d_6">
    <path d="M 27.855 68.638 
L 27.855 106.888 
L 27.855 145.138 
" clip-path="url(#pe3636c59ec)" style="fill: none; stroke: #000000; stroke-width: 2; stroke-linecap: round"/>
   </g>
   <g id="line2d_7">
    <path d="M 27.855 145.138 
L 27.855 181.858 
L 27.855 218.578 
" clip-path="url(#pe3636c59ec)" style="fill: none; stroke: #000000; stroke-width: 2; stroke-linecap: round"/>
   </g>
   <g id="line2d_8">
    <path d="M 27.855 218.578 
L 39.075 218.578 
" clip-path="url(#pe3636c59ec)" style="fill: none; stroke: #000000; stroke-width: 2; stroke-linecap: round"/>
   </g>
   <g id="line2d_9">
    <path d="M 39.075 207.358 
L 39.075 229.798 
" clip-path="url(#pe3636c59ec)" style="fill: none; stroke: #000000; stroke-width: 2; stroke-linecap: round"/>
   </g>
   <g id="line2d_10">
    <path d="M 39.075 212.968 
L 50.856 202.87 
L 50.856 197.26 
" clip-path="url(#pe3636c59ec)" style="fill: none; stroke: #000000; stroke-width: 2; stroke-linecap: round"/>
   </g>
   <g id="line2d_11">
    <path d="M 39.075 224.188 
L 50.856 234.286 
L 50.856 239.896 
" clip-path="url(#pe3636c59ec)" style="fill: none; stroke: #000000; stroke-width: 2; stroke-linecap: round"/>
   </g>
   <g id="line2d_12">
    <path d="M 50.856 202.87 
L 44.883313 207.989446 
" clip-path="url(#pe3636c59ec)" style="fill: none; stroke: #000000; stroke-width: 2; stroke-linecap: round"/>
   </g>
   <g id="patch_5">
    <path d="M 46.874735 210.312771 
L 39.075 212.968 
L 42.891891 205.666121 
z
" clip-path="url(#pe3636c59ec)"/>
   </g>
   <g id="line2d_13">
    <path d="M 27.855 145.138 
L 20.205 145.138 
L 12.555 145.138 
" clip-path="url(#pe3636c59ec)" style="fill: none; stroke: #000000; stroke-width: 2; stroke-linecap: round"/>
   </g>
   <g id="line2d_14">
    <path d="M 50.856 89.956 
L 62.076 89.956 
" clip-path="url(#pe3636c59ec)" style="fill: none; stroke: #000000; stroke-width: 2; stroke-linecap: round"/>
   </g>
   <g id="line2d_15">
    <path d="M 62.076 78.736 
L 62.076 101.176 
" clip-path="url(#pe3636c59ec)" style="fill: none; stroke: #000000; stroke-width: 2; stroke-linecap: round"/>
   </g>
   <g id="line2d_16">
    <path d="M 62.076 84.346 
L 73.857 74.248 
L 73.857 68.638 
" clip-path="url(#pe3636c59ec)" style="fill: none; stroke: #000000; stroke-width: 2; stroke-linecap: round"/>
   </g>
   <g id="line2d_17">
    <path d="M 62.076 95.566 
L 73.857 105.664 
L 73.857 111.274 
" clip-path="url(#pe3636c59ec)" style="fill: none; stroke: #000000; stroke-width: 2; stroke-linecap: round"/>
   </g>
   <g id="line2d_18">
    <path d="M 62.076 95.566 
L 68.048687 100.685446 
" clip-path="url(#pe3636c59ec)" style="fill: none; stroke: #000000; stroke-width: 2; stroke-linecap: round"/>
   </g>
   <g id="patch_6">
    <path d="M 70.040109 98.362121 
L 73.857 105.664 
L 66.057265 103.008771 
z
" clip-path="url(#pe3636c59ec)"/>
   </g>
   <g id="line2d_19">
    <path d="M 50.856 89.956 
L 50.856 102.196 
L 58.506 104.746 
L 43.206 109.846 
L 58.506 114.946 
L 43.206 120.046 
L 58.506 125.146 
L 43.206 130.246 
L 50.856 132.796 
L 50.856 145.036 
" clip-path="url(#pe3636c59ec)" style="fill: none; stroke: #000000; stroke-width: 2; stroke-linecap: round"/>
   </g>
   <g id="line2d_20">
    <path d="M 73.857 111.274 
L 73.857 128.155 
L 73.857 145.036 
" clip-path="url(#pe3636c59ec)" style="fill: none; stroke: #000000; stroke-width: 2; stroke-linecap: round"/>
   </g>
   <g id="line2d_21">
    <path d="M 73.857 68.638 
L 73.857 57.979 
L 73.857 47.32 
" clip-path="url(#pe3636c59ec)" style="fill: none; stroke: #000000; stroke-width: 2; stroke-linecap: round"/>
   </g>
   <g id="line2d_22">
    <path d="M 73.857 47.32 
L 67.737 47.32 
L 61.617 47.32 
" clip-path="url(#pe3636c59ec)" style="fill: none; stroke: #000000; stroke-width: 2; stroke-linecap: round"/>
   </g>
   <g id="line2d_23">
    <path d="M 61.617 47.32 
L 61.617 35.08 
" clip-path="url(#pe3636c59ec)" style="fill: none; stroke: #000000; stroke-width: 2; stroke-linecap: round"/>
   </g>
   <g id="line2d_24">
    <path d="M 61.617 35.08 
L 55.8795 35.08 
" clip-path="url(#pe3636c59ec)" style="fill: none; stroke: #000000; stroke-width: 2; stroke-linecap: round"/>
   </g>
   <g id="line2d_25">
    <path d="M 61.617 35.08 
L 67.3545 35.08 
" clip-path="url(#pe3636c59ec)" style="fill: none; stroke: #000000; stroke-width: 2; stroke-linecap: round"/>
   </g>
   <g id="line2d_26">
    <path d="M 61.617 47.32 
L 56.2365 47.32 
L 50.856 47.32 
" clip-path="url(#pe3636c59ec)" style="fill: none; stroke: #000000; stroke-width: 2; stroke-linecap: round"/>
   </g>
   <g id="line2d_27">
    <path d="M 50.856 145.036 
L 50.856 155.848 
L 58.506 158.398 
L 43.206 163.498 
L 58.506 168.598 
L 43.206 173.698 
L 58.506 178.798 
L 43.206 183.898 
L 50.856 186.448 
L 50.856 197.26 
" clip-path="url(#pe3636c59ec)" style="fill: none; stroke: #000000; stroke-width: 2; stroke-linecap: round"/>
   </g>
   <g id="line2d_28">
    <path d="M 50.856 197.26 
L 62.076 197.26 
" clip-path="url(#pe3636c59ec)" style="fill: none; stroke: #000000; stroke-width: 2; stroke-linecap: round"/>
   </g>
   <g id="line2d_29">
    <path d="M 62.076 186.04 
L 62.076 208.48 
" clip-path="url(#pe3636c59ec)" style="fill: none; stroke: #000000; stroke-width: 2; stroke-linecap: round"/>
   </g>
   <g id="line2d_30">
    <path d="M 62.076 191.65 
L 73.857 181.552 
L 73.857 175.942 
" clip-path="url(#pe3636c59ec)" style="fill: none; stroke: #000000; stroke-width: 2; stroke-linecap: round"/>
   </g>
   <g id="line2d_31">
    <path d="M 62.076 202.87 
L 73.857 212.968 
L 73.857 218.578 
" clip-path="url(#pe3636c59ec)" style="fill: none; stroke: #000000; stroke-width: 2; stroke-linecap: round"/>
   </g>
   <g id="line2d_32">
    <path d="M 73.857 181.552 
L 67.884313 186.671446 
" clip-path="url(#pe3636c59ec)" style="fill: none; stroke: #000000; stroke-width: 2; stroke-linecap: round"/>
   </g>
   <g id="patch_7">
    <path d="M 69.875735 188.994771 
L 62.076 191.65 
L 65.892891 184.348121 
z
" clip-path="url(#pe3636c59ec)"/>
   </g>
   <g id="line2d_33">
    <path d="M 73.857 175.942 
L 73.857 160.489 
L 73.857 145.036 
" clip-path="url(#pe3636c59ec)" style="fill: none; stroke: #000000; stroke-width: 2; stroke-linecap: round"/>
   </g>
   <g id="line2d_34">
    <path d="M 73.857 218.578 
L 73.857 229.237 
L 73.857 239.896 
" clip-path="url(#pe3636c59ec)" style="fill: none; stroke: #000000; stroke-width: 2; stroke-linecap: round"/>
   </g>
   <g id="line2d_35">
    <path d="M 73.857 239.896 
L 67.737 239.896 
L 61.617 239.896 
" clip-path="url(#pe3636c59ec)" style="fill: none; stroke: #000000; stroke-width: 2; stroke-linecap: round"/>
   </g>
   <g id="line2d_36">
    <path d="M 61.617 239.896 
L 61.617 252.136 
L 53.967 252.136 
L 69.267 252.136 
M 56.262 255.808 
L 66.972 255.808 
M 60.087 259.48 
L 63.147 259.48 
" clip-path="url(#pe3636c59ec)" style="fill: none; stroke: #000000; stroke-width: 2; stroke-linecap: round"/>
   </g>
   <g id="line2d_37">
    <path d="M 61.617 239.896 
L 56.2365 239.896 
L 50.856 239.896 
" clip-path="url(#pe3636c59ec)" style="fill: none; stroke: #000000; stroke-width: 2; stroke-linecap: round"/>
   </g>
   <g id="line2d_38">
    <path d="M 50.856 145.036 
L 94.002 145.036 
M 94.002 137.386 
L 94.002 152.686 
M 99.51 137.386 
L 99.51 152.686 
M 99.51 145.036 
L 142.656 145.036 
" clip-path="url(#pe3636c59ec)" style="fill: none; stroke: #000000; stroke-width: 2; stroke-linecap: round"/>
   </g>
   <g id="line2d_39">
    <path d="M 142.656 145.036 
L 142.656 175.636 
L 150.306 178.186 
L 135.006 183.286 
L 150.306 188.386 
L 135.006 193.486 
L 150.306 198.586 
L 135.006 203.686 
L 142.656 206.236 
L 142.656 236.836 
" clip-path="url(#pe3636c59ec)" style="fill: none; stroke: #000000; stroke-width: 2; stroke-linecap: round"/>
   </g>
   <g id="line2d_40">
    <path d="M 142.656 145.036 
L 150.306 145.036 
L 157.956 145.036 
" clip-path="url(#pe3636c59ec)" style="fill: none; stroke: #000000; stroke-width: 2; stroke-linecap: round"/>
   </g>
   <g id="line2d_41">
    <path d="M 142.656 236.836 
L 142.656 249.076 
L 135.006 249.076 
L 150.306 249.076 
M 137.301 252.748 
L 148.011 252.748 
M 141.126 256.42 
L 144.186 256.42 
" clip-path="url(#pe3636c59ec)" style="fill: none; stroke: #000000; stroke-width: 2; stroke-linecap: round"/>
   </g>
   <g id="line2d_42">
    <path d="M 142.656 236.836 
L 142.656 235.306 
L 142.656 233.776 
" clip-path="url(#pe3636c59ec)" style="fill: none; stroke: #000000; stroke-width: 2; stroke-linecap: round"/>
   </g>
   <g id="text_1">
    <g clip-path="url(#pe3636c59ec)">
     <!-- $V_{DD}$ -->
     <g transform="translate(50.4295 29.420391)scale(0.125 -0.125)">
      <defs>
       <path id="DejaVuSans-Oblique-56" d="M 1319 0 
L 500 4666 
L 1119 4666 
L 1797 653 
L 4063 4666 
L 4750 4666 
L 2053 0 
L 1319 0 
z
" transform="scale(0.015625)"/>
       <path id="DejaVuSans-Oblique-44" d="M 1081 4666 
L 2438 4666 
Q 3519 4666 4070 4208 
Q 4622 3750 4622 2847 
Q 4622 2250 4412 1698 
Q 4203 1147 3834 769 
Q 3463 381 2891 190 
Q 2319 0 1538 0 
L 172 0 
L 1081 4666 
z
M 1613 4147 
L 909 519 
L 1734 519 
Q 2794 519 3375 1128 
Q 3956 1738 3956 2847 
Q 3956 3519 3581 3833 
Q 3206 4147 2406 4147 
L 1613 4147 
z
" transform="scale(0.015625)"/>
      </defs>
      <use xlink:href="#DejaVuSans-Oblique-56" transform="translate(0 0.09375)"/>
      <use xlink:href="#DejaVuSans-Oblique-44" transform="translate(68.408203 -16.3125)scale(0.7)"/>
      <use xlink:href="#DejaVuSans-Oblique-44" transform="translate(122.30957 -16.3125)scale(0.7)"/>
     </g>
    </g>
   </g>
   <g id="text_2">
    <g clip-path="url(#pe3636c59ec)">
     <!-- $C_{out}$ -->
     <g transform="translate(85.006 131.726391)scale(0.125 -0.125)">
      <defs>
       <path id="DejaVuSans-Oblique-43" d="M 4447 4306 
L 4319 3641 
Q 4019 3944 3683 4091 
Q 3347 4238 2956 4238 
Q 2422 4238 2017 3981 
Q 1613 3725 1319 3200 
Q 1131 2863 1032 2486 
Q 934 2109 934 1728 
Q 934 1091 1264 756 
Q 1594 422 2222 422 
Q 2656 422 3056 561 
Q 3456 700 3834 978 
L 3688 231 
Q 3316 72 2936 -9 
Q 2556 -91 2175 -91 
Q 1278 -91 773 396 
Q 269 884 269 1753 
Q 269 2309 461 2846 
Q 653 3384 1013 3828 
Q 1394 4300 1883 4525 
Q 2372 4750 3022 4750 
Q 3422 4750 3780 4639 
Q 4138 4528 4447 4306 
z
" transform="scale(0.015625)"/>
       <path id="DejaVuSans-Oblique-6f" d="M 1625 -91 
Q 1009 -91 651 289 
Q 294 669 294 1325 
Q 294 1706 417 2101 
Q 541 2497 738 2766 
Q 1047 3184 1428 3384 
Q 1809 3584 2291 3584 
Q 2888 3584 3255 3212 
Q 3622 2841 3622 2241 
Q 3622 1825 3500 1412 
Q 3378 1000 3181 728 
Q 2875 309 2494 109 
Q 2113 -91 1625 -91 
z
M 891 1344 
Q 891 869 1089 633 
Q 1288 397 1691 397 
Q 2269 397 2648 901 
Q 3028 1406 3028 2181 
Q 3028 2634 2825 2865 
Q 2622 3097 2228 3097 
Q 1903 3097 1650 2945 
Q 1397 2794 1197 2484 
Q 1050 2253 970 1956 
Q 891 1659 891 1344 
z
" transform="scale(0.015625)"/>
       <path id="DejaVuSans-Oblique-75" d="M 428 1388 
L 838 3500 
L 1416 3500 
L 1006 1409 
Q 975 1256 961 1147 
Q 947 1038 947 966 
Q 947 700 1109 554 
Q 1272 409 1569 409 
Q 2031 409 2368 721 
Q 2706 1034 2809 1563 
L 3194 3500 
L 3769 3500 
L 3091 0 
L 2516 0 
L 2631 550 
Q 2388 244 2052 76 
Q 1716 -91 1338 -91 
Q 878 -91 622 161 
Q 366 413 366 863 
Q 366 956 381 1097 
Q 397 1238 428 1388 
z
" transform="scale(0.015625)"/>
       <path id="DejaVuSans-Oblique-74" d="M 2706 3500 
L 2619 3053 
L 1472 3053 
L 1100 1153 
Q 1081 1047 1072 975 
Q 1063 903 1063 863 
Q 1063 663 1183 572 
Q 1303 481 1569 481 
L 2150 481 
L 2053 0 
L 1503 0 
Q 991 0 739 200 
Q 488 400 488 806 
Q 488 878 497 964 
Q 506 1050 525 1153 
L 897 3053 
L 409 3053 
L 500 3500 
L 978 3500 
L 1172 4494 
L 1747 4494 
L 1556 3500 
L 2706 3500 
z
" transform="scale(0.015625)"/>
      </defs>
      <use xlink:href="#DejaVuSans-Oblique-43" transform="translate(0 0.78125)"/>
      <use xlink:href="#DejaVuSans-Oblique-6f" transform="translate(69.824219 -15.625)scale(0.7)"/>
      <use xlink:href="#DejaVuSans-Oblique-75" transform="translate(112.651367 -15.625)scale(0.7)"/>
      <use xlink:href="#DejaVuSans-Oblique-74" transform="translate(157.016602 -15.625)scale(0.7)"/>
     </g>
    </g>
   </g>
   <g id="text_3">
    <g clip-path="url(#pe3636c59ec)">
     <!-- $R_L$ -->
     <g transform="translate(117.946 194.385219)scale(0.125 -0.125)">
      <defs>
       <path id="DejaVuSans-Oblique-52" d="M 1613 4147 
L 1294 2491 
L 2106 2491 
Q 2584 2491 2879 2755 
Q 3175 3019 3175 3444 
Q 3175 3784 2976 3965 
Q 2778 4147 2406 4147 
L 1613 4147 
z
M 2772 2241 
Q 2972 2194 3105 2009 
Q 3238 1825 3413 1275 
L 3809 0 
L 3144 0 
L 2778 1197 
Q 2638 1659 2453 1815 
Q 2269 1972 1888 1972 
L 1191 1972 
L 806 0 
L 172 0 
L 1081 4666 
L 2503 4666 
Q 3150 4666 3495 4373 
Q 3841 4081 3841 3531 
Q 3841 3044 3547 2687 
Q 3253 2331 2772 2241 
z
" transform="scale(0.015625)"/>
       <path id="DejaVuSans-Oblique-4c" d="M 1075 4666 
L 1709 4666 
L 909 525 
L 3181 525 
L 3078 0 
L 172 0 
L 1075 4666 
z
" transform="scale(0.015625)"/>
      </defs>
      <use xlink:href="#DejaVuSans-Oblique-52" transform="translate(0 0.09375)"/>
      <use xlink:href="#DejaVuSans-Oblique-4c" transform="translate(69.482422 -16.3125)scale(0.7)"/>
     </g>
    </g>
   </g>
   <g id="patch_8">
    <path d="M 27.855 147.433 
C 28.463641 147.433 29.047436 147.191184 29.47781 146.76081 
C 29.908184 146.330436 30.15 145.746641 30.15 145.138 
C 30.15 144.529359 29.908184 143.945564 29.47781 143.51519 
C 29.047436 143.084816 28.463641 142.843 27.855 142.843 
C 27.246359 142.843 26.662564 143.084816 26.23219 143.51519 
C 25.801816 143.945564 25.56 144.529359 25.56 145.138 
C 25.56 145.746641 25.801816 146.330436 26.23219 146.76081 
C 26.662564 147.191184 27.246359 147.433 27.855 147.433 
z
" clip-path="url(#pe3636c59ec)" style="stroke: #000000; stroke-width: 2; stroke-linejoin: miter"/>
   </g>
   <g id="patch_9">
    <path d="M 12.555 147.433 
C 13.163641 147.433 13.747436 147.191184 14.17781 146.76081 
C 14.608184 146.330436 14.85 145.746641 14.85 145.138 
C 14.85 144.529359 14.608184 143.945564 14.17781 143.51519 
C 13.747436 143.084816 13.163641 142.843 12.555 142.843 
C 11.946359 142.843 11.362564 143.084816 10.93219 143.51519 
C 10.501816 143.945564 10.26 144.529359 10.26 145.138 
C 10.26 145.746641 10.501816 146.330436 10.93219 146.76081 
C 11.362564 147.191184 11.946359 147.433 12.555 147.433 
z
" clip-path="url(#pe3636c59ec)" style="fill: #ffffff; stroke: #000000; stroke-width: 2; stroke-linejoin: miter"/>
   </g>
   <g id="patch_10">
    <path d="M 50.856 147.331 
C 51.464641 147.331 52.048436 147.089184 52.47881 146.65881 
C 52.909184 146.228436 53.151 145.644641 53.151 145.036 
C 53.151 144.427359 52.909184 143.843564 52.47881 143.41319 
C 52.048436 142.982816 51.464641 142.741 50.856 142.741 
C 50.247359 142.741 49.663564 142.982816 49.23319 143.41319 
C 48.802816 143.843564 48.561 144.427359 48.561 145.036 
C 48.561 145.644641 48.802816 146.228436 49.23319 146.65881 
C 49.663564 147.089184 50.247359 147.331 50.856 147.331 
z
" clip-path="url(#pe3636c59ec)" style="stroke: #000000; stroke-width: 2; stroke-linejoin: miter"/>
   </g>
   <g id="patch_11">
    <path d="M 73.857 147.331 
C 74.465641 147.331 75.049436 147.089184 75.47981 146.65881 
C 75.910184 146.228436 76.152 145.644641 76.152 145.036 
C 76.152 144.427359 75.910184 143.843564 75.47981 143.41319 
C 75.049436 142.982816 74.465641 142.741 73.857 142.741 
C 73.248359 142.741 72.664564 142.982816 72.23419 143.41319 
C 71.803816 143.843564 71.562 144.427359 71.562 145.036 
C 71.562 145.644641 71.803816 146.228436 72.23419 146.65881 
C 72.664564 147.089184 73.248359 147.331 73.857 147.331 
z
" clip-path="url(#pe3636c59ec)" style="stroke: #000000; stroke-width: 2; stroke-linejoin: miter"/>
   </g>
   <g id="patch_12">
    <path d="M 61.617 49.615 
C 62.225641 49.615 62.809436 49.373184 63.23981 48.94281 
C 63.670184 48.512436 63.912 47.928641 63.912 47.32 
C 63.912 46.711359 63.670184 46.127564 63.23981 45.69719 
C 62.809436 45.266816 62.225641 45.025 61.617 45.025 
C 61.008359 45.025 60.424564 45.266816 59.99419 45.69719 
C 59.563816 46.127564 59.322 46.711359 59.322 47.32 
C 59.322 47.928641 59.563816 48.512436 59.99419 48.94281 
C 60.424564 49.373184 61.008359 49.615 61.617 49.615 
z
" clip-path="url(#pe3636c59ec)" style="stroke: #000000; stroke-width: 2; stroke-linejoin: miter"/>
   </g>
   <g id="patch_13">
    <path d="M 61.617 242.191 
C 62.225641 242.191 62.809436 241.949184 63.23981 241.51881 
C 63.670184 241.088436 63.912 240.504641 63.912 239.896 
C 63.912 239.287359 63.670184 238.703564 63.23981 238.27319 
C 62.809436 237.842816 62.225641 237.601 61.617 237.601 
C 61.008359 237.601 60.424564 237.842816 59.99419 238.27319 
C 59.563816 238.703564 59.322 239.287359 59.322 239.896 
C 59.322 240.504641 59.563816 241.088436 59.99419 241.51881 
C 60.424564 241.949184 61.008359 242.191 61.617 242.191 
z
" clip-path="url(#pe3636c59ec)" style="stroke: #000000; stroke-width: 2; stroke-linejoin: miter"/>
   </g>
   <g id="patch_14">
    <path d="M 157.956 147.331 
C 158.564641 147.331 159.148436 147.089184 159.57881 146.65881 
C 160.009184 146.228436 160.251 145.644641 160.251 145.036 
C 160.251 144.427359 160.009184 143.843564 159.57881 143.41319 
C 159.148436 142.982816 158.564641 142.741 157.956 142.741 
C 157.347359 142.741 156.763564 142.982816 156.33319 143.41319 
C 155.902816 143.843564 155.661 144.427359 155.661 145.036 
C 155.661 145.644641 155.902816 146.228436 156.33319 146.65881 
C 156.763564 147.089184 157.347359 147.331 157.956 147.331 
z
" clip-path="url(#pe3636c59ec)" style="fill: #ffffff; stroke: #000000; stroke-width: 2; stroke-linejoin: miter"/>
   </g>
   <g id="text_4">
    <g clip-path="url(#pe3636c59ec)">
     <!-- $v_{out}$ -->
     <g transform="translate(146.8935 137.081391)scale(0.125 -0.125)">
      <defs>
       <path id="DejaVuSans-Oblique-76" d="M 459 3500 
L 1069 3500 
L 1581 525 
L 3256 3500 
L 3866 3500 
L 1875 0 
L 1100 0 
L 459 3500 
z
" transform="scale(0.015625)"/>
      </defs>
      <use xlink:href="#DejaVuSans-Oblique-76" transform="translate(0 0.3125)"/>
      <use xlink:href="#DejaVuSans-Oblique-6f" transform="translate(59.179688 -16.09375)scale(0.7)"/>
      <use xlink:href="#DejaVuSans-Oblique-75" transform="translate(102.006836 -16.09375)scale(0.7)"/>
      <use xlink:href="#DejaVuSans-Oblique-74" transform="translate(146.37207 -16.09375)scale(0.7)"/>
     </g>
    </g>
   </g>
  </g>
 </g>
 <defs>
  <clipPath id="pe3636c59ec">
   <rect x="7.2" y="7.2" width="178.9794" height="255.34"/>
  </clipPath>
 </defs>
</svg>
