<?xml version="1.0" encoding="utf-8" standalone="no"?>
<!DOCTYPE svg PUBLIC "-//W3C//DTD SVG 1.1//EN"
  "http://www.w3.org/Graphics/SVG/1.1/DTD/svg11.dtd">
<svg xmlns:xlink="http://www.w3.org/1999/xlink" width="239.2794pt" height="271.916pt" viewBox="0 0 239.2794 271.916" xmlns="http://www.w3.org/2000/svg" version="1.1">
 <metadata>
  <rdf:RDF xmlns:dc="http://purl.org/dc/elements/1.1/" xmlns:cc="http://creativecommons.org/ns#" xmlns:rdf="http://www.w3.org/1999/02/22-rdf-syntax-ns#">
   <cc:Work>
    <dc:type rdf:resource="http://purl.org/dc/dcmitype/StillImage"/>
    <dc:date>2022-03-27T21:45:55.029311</dc:date>
    <dc:format>image/svg+xml</dc:format>
    <dc:creator>
     <cc:Agent>
      <dc:title>Matplotlib v3.5.1, https://matplotlib.org/</dc:title>
     </cc:Agent>
    </dc:creator>
   </cc:Work>
  </rdf:RDF>
 </metadata>
 <defs>
  <style type="text/css">*{stroke-linejoin: round; stroke-linecap: butt}</style>
 </defs>
 <g id="figure_1">
  <g id="patch_1">
   <path d="M 0 271.916 
L 239.2794 271.916 
L 239.2794 0 
L 0 0 
L 0 271.916 
z
" style="fill: none"/>
  </g>
  <g id="axes_1">
   <g id="patch_2">
    <path d="M 102.111 94.75 
L 91.401 87.1 
L 102.111 79.45 
L 102.111 94.75 
z
" clip-path="url(#pf07bec7843)" style="fill: none; stroke: #000000; stroke-width: 2; stroke-linecap: round"/>
   </g>
   <g id="patch_3">
    <path d="M 91.401 183.286 
L 102.111 190.936 
L 91.401 198.586 
L 91.401 183.286 
z
" clip-path="url(#pf07bec7843)" style="fill: none; stroke: #000000; stroke-width: 2; stroke-linecap: round"/>
   </g>
   <g id="patch_4">
    <path d="M 44.736 136.366 
L 44.88165 136.364844 
L 45.027262 136.361378 
L 45.172802 136.355602 
L 45.318232 136.347518 
L 45.463515 136.337127 
L 45.608614 136.324432 
L 45.753495 136.309437 
L 45.898119 136.292145 
L 46.04245 136.272561 
L 46.186453 136.250689 
L 46.33009 136.226535 
L 46.473326 136.200105 
L 46.616125 136.171406 
L 46.758451 136.140445 
L 46.900267 136.10723 
L 47.041539 136.071769 
L 47.18223 136.034071 
L 47.322305 135.994145 
L 47.461729 135.952003 
L 47.600467 135.907653 
L 47.738484 135.861108 
L 47.875745 135.812378 
L 48.012216 135.761477 
L 48.147861 135.708418 
L 48.282648 135.653212 
L 48.416542 135.595876 
L 48.54951 135.536422 
L 48.681517 135.474866 
L 48.812532 135.411223 
L 48.942519 135.345509 
L 49.071448 135.277742 
L 49.199286 135.207937 
L 49.326 135.136113 
L 49.451558 135.062288 
L 49.57593 134.986479 
L 49.699083 134.908707 
L 49.820986 134.828991 
L 49.94161 134.747351 
L 50.060922 134.663807 
L 50.178895 134.578381 
L 50.295497 134.491094 
L 50.410699 134.401967 
L 50.524473 134.311025 
L 50.63679 134.218288 
L 50.747622 134.123781 
L 50.856939 134.027528 
L 50.964716 133.929552 
L 51.070925 133.829878 
L 51.175539 133.728532 
L 51.278532 133.625539 
L 51.379878 133.520925 
L 51.479552 133.414716 
L 51.577528 133.306939 
L 51.673781 133.197622 
L 51.768288 133.08679 
L 51.861025 132.974473 
L 51.951967 132.860699 
L 52.041094 132.745497 
L 52.128381 132.628895 
L 52.213807 132.510922 
L 52.297351 132.39161 
L 52.378991 132.270986 
L 52.458707 132.149083 
L 52.536479 132.02593 
L 52.612288 131.901558 
L 52.686113 131.776 
L 52.757937 131.649286 
L 52.827742 131.521448 
L 52.895509 131.392519 
L 52.961223 131.262532 
L 53.024866 131.131517 
L 53.086422 130.99951 
L 53.145876 130.866542 
L 53.203212 130.732648 
L 53.258418 130.597861 
L 53.311477 130.462216 
L 53.362378 130.325745 
L 53.411108 130.188484 
L 53.457653 130.050467 
L 53.502003 129.911729 
L 53.544145 129.772305 
L 53.584071 129.63223 
L 53.621769 129.491539 
L 53.65723 129.350267 
L 53.690445 129.208451 
L 53.721406 129.066125 
L 53.750105 128.923326 
L 53.776535 128.78009 
L 53.800689 128.636453 
L 53.822561 128.49245 
L 53.842145 128.348119 
L 53.859437 128.203495 
L 53.874432 128.058614 
L 53.887127 127.913515 
L 53.897518 127.768232 
L 53.905602 127.622802 
L 53.911378 127.477262 
L 53.914844 127.33165 
L 53.916 127.186 
L 53.916 50.38 
L 53.914844 50.23435 
L 53.911378 50.088738 
L 53.905602 49.943198 
L 53.897518 49.797768 
L 53.887127 49.652485 
L 53.874432 49.507386 
L 53.859437 49.362505 
L 53.842145 49.217881 
L 53.822561 49.07355 
L 53.800689 48.929547 
L 53.776535 48.78591 
L 53.750105 48.642674 
L 53.721406 48.499875 
L 53.690445 48.357549 
L 53.65723 48.215733 
L 53.621769 48.074461 
L 53.584071 47.93377 
L 53.544145 47.793695 
L 53.502003 47.654271 
L 53.457653 47.515533 
L 53.411108 47.377516 
L 53.362378 47.240255 
L 53.311477 47.103784 
L 53.258418 46.968139 
L 53.203212 46.833352 
L 53.145876 46.699458 
L 53.086422 46.56649 
L 53.024866 46.434483 
L 52.961223 46.303468 
L 52.895509 46.173481 
L 52.827742 46.044552 
L 52.757937 45.916714 
L 52.686113 45.79 
L 52.612288 45.664442 
L 52.536479 45.54007 
L 52.458707 45.416917 
L 52.378991 45.295014 
L 52.297351 45.17439 
L 52.213807 45.055078 
L 52.128381 44.937105 
L 52.041094 44.820503 
L 51.951967 44.705301 
L 51.861025 44.591527 
L 51.768288 44.47921 
L 51.673781 44.368378 
L 51.577528 44.259061 
L 51.479552 44.151284 
L 51.379878 44.045075 
L 51.278532 43.940461 
L 51.175539 43.837468 
L 51.070925 43.736122 
L 50.964716 43.636448 
L 50.856939 43.538472 
L 50.747622 43.442219 
L 50.63679 43.347712 
L 50.524473 43.254975 
L 50.410699 43.164033 
L 50.295497 43.074906 
L 50.178895 42.987619 
L 50.060922 42.902193 
L 49.94161 42.818649 
L 49.820986 42.737009 
L 49.699083 42.657293 
L 49.57593 42.579521 
L 49.451558 42.503712 
L 49.326 42.429887 
L 49.199286 42.358063 
L 49.071448 42.288258 
L 48.942519 42.220491 
L 48.812532 42.154777 
L 48.681517 42.091134 
L 48.54951 42.029578 
L 48.416542 41.970124 
L 48.282648 41.912788 
L 48.147861 41.857582 
L 48.012216 41.804523 
L 47.875745 41.753622 
L 47.738484 41.704892 
L 47.600467 41.658347 
L 47.461729 41.613997 
L 47.322305 41.571855 
L 47.18223 41.531929 
L 47.041539 41.494231 
L 46.900267 41.45877 
L 46.758451 41.425555 
L 46.616125 41.394594 
L 46.473326 41.365895 
L 46.33009 41.339465 
L 46.186453 41.315311 
L 46.04245 41.293439 
L 45.898119 41.273855 
L 45.753495 41.256563 
L 45.608614 41.241568 
L 45.463515 41.228873 
L 45.318232 41.218482 
L 45.172802 41.210398 
L 45.027262 41.204622 
L 44.88165 41.201156 
L 44.736 41.2 
L 33.975 41.2 
L 33.82935 41.201156 
L 33.683738 41.204622 
L 33.538198 41.210398 
L 33.392768 41.218482 
L 33.247485 41.228873 
L 33.102386 41.241568 
L 32.957505 41.256563 
L 32.812881 41.273855 
L 32.66855 41.293439 
L 32.524547 41.315311 
L 32.38091 41.339465 
L 32.237674 41.365895 
L 32.094875 41.394594 
L 31.952549 41.425555 
L 31.810733 41.45877 
L 31.669461 41.494231 
L 31.52877 41.531929 
L 31.388695 41.571855 
L 31.249271 41.613997 
L 31.110533 41.658347 
L 30.972516 41.704892 
L 30.835255 41.753622 
L 30.698784 41.804523 
L 30.563139 41.857582 
L 30.428352 41.912788 
L 30.294458 41.970124 
L 30.16149 42.029578 
L 30.029483 42.091134 
L 29.898468 42.154777 
L 29.768481 42.220491 
L 29.639552 42.288258 
L 29.511714 42.358063 
L 29.385 42.429887 
L 29.259442 42.503712 
L 29.13507 42.579521 
L 29.011917 42.657293 
L 28.890014 42.737009 
L 28.76939 42.818649 
L 28.650078 42.902193 
L 28.532105 42.987619 
L 28.415503 43.074906 
L 28.300301 43.164033 
L 28.186527 43.254975 
L 28.07421 43.347712 
L 27.963378 43.442219 
L 27.854061 43.538472 
L 27.746284 43.636448 
L 27.640075 43.736122 
L 27.535461 43.837468 
L 27.432468 43.940461 
L 27.331122 44.045075 
L 27.231448 44.151284 
L 27.133472 44.259061 
L 27.037219 44.368378 
L 26.942712 44.47921 
L 26.849975 44.591527 
L 26.759033 44.705301 
L 26.669906 44.820503 
L 26.582619 44.937105 
L 26.497193 45.055078 
L 26.413649 45.17439 
L 26.332009 45.295014 
L 26.252293 45.416917 
L 26.174521 45.54007 
L 26.098712 45.664442 
L 26.024887 45.79 
L 25.953063 45.916714 
L 25.883258 46.044552 
L 25.815491 46.173481 
L 25.749777 46.303468 
L 25.686134 46.434483 
L 25.624578 46.56649 
L 25.565124 46.699458 
L 25.507788 46.833352 
L 25.452582 46.968139 
L 25.399523 47.103784 
L 25.348622 47.240255 
L 25.299892 47.377516 
L 25.253347 47.515533 
L 25.208997 47.654271 
L 25.166855 47.793695 
L 25.126929 47.93377 
L 25.089231 48.074461 
L 25.05377 48.215733 
L 25.020555 48.357549 
L 24.989594 48.499875 
L 24.960895 48.642674 
L 24.934465 48.78591 
L 24.910311 48.929547 
L 24.888439 49.07355 
L 24.868855 49.217881 
L 24.851563 49.362505 
L 24.836568 49.507386 
L 24.823873 49.652485 
L 24.813482 49.797768 
L 24.805398 49.943198 
L 24.799622 50.088738 
L 24.796156 50.23435 
L 24.795 50.38 
L 24.795 127.186 
L 24.796156 127.33165 
L 24.799622 127.477262 
L 24.805398 127.622802 
L 24.813482 127.768232 
L 24.823873 127.913515 
L 24.836568 128.058614 
L 24.851563 128.203495 
L 24.868855 128.348119 
L 24.888439 128.49245 
L 24.910311 128.636453 
L 24.934465 128.78009 
L 24.960895 128.923326 
L 24.989594 129.066125 
L 25.020555 129.208451 
L 25.05377 129.350267 
L 25.089231 129.491539 
L 25.126929 129.63223 
L 25.166855 129.772305 
L 25.208997 129.911729 
L 25.253347 130.050467 
L 25.299892 130.188484 
L 25.348622 130.325745 
L 25.399523 130.462216 
L 25.452582 130.597861 
L 25.507788 130.732648 
L 25.565124 130.866542 
L 25.624578 130.99951 
L 25.686134 131.131517 
L 25.749777 131.262532 
L 25.815491 131.392519 
L 25.883258 131.521448 
L 25.953063 131.649286 
L 26.024887 131.776 
L 26.098712 131.901558 
L 26.174521 132.02593 
L 26.252293 132.149083 
L 26.332009 132.270986 
L 26.413649 132.39161 
L 26.497193 132.510922 
L 26.582619 132.628895 
L 26.669906 132.745497 
L 26.759033 132.860699 
L 26.849975 132.974473 
L 26.942712 133.08679 
L 27.037219 133.197622 
L 27.133472 133.306939 
L 27.231448 133.414716 
L 27.331122 133.520925 
L 27.432468 133.625539 
L 27.535461 133.728532 
L 27.640075 133.829878 
L 27.746284 133.929552 
L 27.854061 134.027528 
L 27.963378 134.123781 
L 28.07421 134.218288 
L 28.186527 134.311025 
L 28.300301 134.401967 
L 28.415503 134.491094 
L 28.532105 134.578381 
L 28.650078 134.663807 
L 28.76939 134.747351 
L 28.890014 134.828991 
L 29.011917 134.908707 
L 29.13507 134.986479 
L 29.259442 135.062288 
L 29.385 135.136113 
L 29.511714 135.207937 
L 29.639552 135.277742 
L 29.768481 135.345509 
L 29.898468 135.411223 
L 30.029483 135.474866 
L 30.16149 135.536422 
L 30.294458 135.595876 
L 30.428352 135.653212 
L 30.563139 135.708418 
L 30.698784 135.761477 
L 30.835255 135.812378 
L 30.972516 135.861108 
L 31.110533 135.907653 
L 31.249271 135.952003 
L 31.388695 135.994145 
L 31.52877 136.034071 
L 31.669461 136.071769 
L 31.810733 136.10723 
L 31.952549 136.140445 
L 32.094875 136.171406 
L 32.237674 136.200105 
L 32.38091 136.226535 
L 32.524547 136.250689 
L 32.66855 136.272561 
L 32.812881 136.292145 
L 32.957505 136.309437 
L 33.102386 136.324432 
L 33.247485 136.337127 
L 33.392768 136.347518 
L 33.538198 136.355602 
L 33.683738 136.361378 
L 33.82935 136.364844 
L 33.975 136.366 
L 44.736 136.366 
z
" clip-path="url(#pf07bec7843)" style="fill: none; stroke-dasharray: 1.85,0.8; stroke-dashoffset: 0; stroke: #008000; stroke-width: 0.5; stroke-linecap: round"/>
   </g>
   <g id="patch_5">
    <path d="M 44.736 236.836 
L 44.88165 236.834844 
L 45.027262 236.831378 
L 45.172802 236.825602 
L 45.318232 236.817518 
L 45.463515 236.807127 
L 45.608614 236.794432 
L 45.753495 236.779437 
L 45.898119 236.762145 
L 46.04245 236.742561 
L 46.186453 236.720689 
L 46.33009 236.696535 
L 46.473326 236.670105 
L 46.616125 236.641406 
L 46.758451 236.610445 
L 46.900267 236.57723 
L 47.041539 236.541769 
L 47.18223 236.504071 
L 47.322305 236.464145 
L 47.461729 236.422003 
L 47.600467 236.377653 
L 47.738484 236.331108 
L 47.875745 236.282378 
L 48.012216 236.231477 
L 48.147861 236.178418 
L 48.282648 236.123212 
L 48.416542 236.065876 
L 48.54951 236.006422 
L 48.681517 235.944866 
L 48.812532 235.881223 
L 48.942519 235.815509 
L 49.071448 235.747742 
L 49.199286 235.677937 
L 49.326 235.606113 
L 49.451558 235.532288 
L 49.57593 235.456479 
L 49.699083 235.378707 
L 49.820986 235.298991 
L 49.94161 235.217351 
L 50.060922 235.133807 
L 50.178895 235.048381 
L 50.295497 234.961094 
L 50.410699 234.871967 
L 50.524473 234.781025 
L 50.63679 234.688288 
L 50.747622 234.593781 
L 50.856939 234.497528 
L 50.964716 234.399552 
L 51.070925 234.299878 
L 51.175539 234.198532 
L 51.278532 234.095539 
L 51.379878 233.990925 
L 51.479552 233.884716 
L 51.577528 233.776939 
L 51.673781 233.667622 
L 51.768288 233.55679 
L 51.861025 233.444473 
L 51.951967 233.330699 
L 52.041094 233.215497 
L 52.128381 233.098895 
L 52.213807 232.980922 
L 52.297351 232.86161 
L 52.378991 232.740986 
L 52.458707 232.619083 
L 52.536479 232.49593 
L 52.612288 232.371558 
L 52.686113 232.246 
L 52.757937 232.119286 
L 52.827742 231.991448 
L 52.895509 231.862519 
L 52.961223 231.732532 
L 53.024866 231.601517 
L 53.086422 231.46951 
L 53.145876 231.336542 
L 53.203212 231.202648 
L 53.258418 231.067861 
L 53.311477 230.932216 
L 53.362378 230.795745 
L 53.411108 230.658484 
L 53.457653 230.520467 
L 53.502003 230.381729 
L 53.544145 230.242305 
L 53.584071 230.10223 
L 53.621769 229.961539 
L 53.65723 229.820267 
L 53.690445 229.678451 
L 53.721406 229.536125 
L 53.750105 229.393326 
L 53.776535 229.25009 
L 53.800689 229.106453 
L 53.822561 228.96245 
L 53.842145 228.818119 
L 53.859437 228.673495 
L 53.874432 228.528614 
L 53.887127 228.383515 
L 53.897518 228.238232 
L 53.905602 228.092802 
L 53.911378 227.947262 
L 53.914844 227.80165 
L 53.916 227.656 
L 53.916 150.85 
L 53.914844 150.70435 
L 53.911378 150.558738 
L 53.905602 150.413198 
L 53.897518 150.267768 
L 53.887127 150.122485 
L 53.874432 149.977386 
L 53.859437 149.832505 
L 53.842145 149.687881 
L 53.822561 149.54355 
L 53.800689 149.399547 
L 53.776535 149.25591 
L 53.750105 149.112674 
L 53.721406 148.969875 
L 53.690445 148.827549 
L 53.65723 148.685733 
L 53.621769 148.544461 
L 53.584071 148.40377 
L 53.544145 148.263695 
L 53.502003 148.124271 
L 53.457653 147.985533 
L 53.411108 147.847516 
L 53.362378 147.710255 
L 53.311477 147.573784 
L 53.258418 147.438139 
L 53.203212 147.303352 
L 53.145876 147.169458 
L 53.086422 147.03649 
L 53.024866 146.904483 
L 52.961223 146.773468 
L 52.895509 146.643481 
L 52.827742 146.514552 
L 52.757937 146.386714 
L 52.686113 146.26 
L 52.612288 146.134442 
L 52.536479 146.01007 
L 52.458707 145.886917 
L 52.378991 145.765014 
L 52.297351 145.64439 
L 52.213807 145.525078 
L 52.128381 145.407105 
L 52.041094 145.290503 
L 51.951967 145.175301 
L 51.861025 145.061527 
L 51.768288 144.94921 
L 51.673781 144.838378 
L 51.577528 144.729061 
L 51.479552 144.621284 
L 51.379878 144.515075 
L 51.278532 144.410461 
L 51.175539 144.307468 
L 51.070925 144.206122 
L 50.964716 144.106448 
L 50.856939 144.008472 
L 50.747622 143.912219 
L 50.63679 143.817712 
L 50.524473 143.724975 
L 50.410699 143.634033 
L 50.295497 143.544906 
L 50.178895 143.457619 
L 50.060922 143.372193 
L 49.94161 143.288649 
L 49.820986 143.207009 
L 49.699083 143.127293 
L 49.57593 143.049521 
L 49.451558 142.973712 
L 49.326 142.899887 
L 49.199286 142.828063 
L 49.071448 142.758258 
L 48.942519 142.690491 
L 48.812532 142.624777 
L 48.681517 142.561134 
L 48.54951 142.499578 
L 48.416542 142.440124 
L 48.282648 142.382788 
L 48.147861 142.327582 
L 48.012216 142.274523 
L 47.875745 142.223622 
L 47.738484 142.174892 
L 47.600467 142.128347 
L 47.461729 142.083997 
L 47.322305 142.041855 
L 47.18223 142.001929 
L 47.041539 141.964231 
L 46.900267 141.92877 
L 46.758451 141.895555 
L 46.616125 141.864594 
L 46.473326 141.835895 
L 46.33009 141.809465 
L 46.186453 141.785311 
L 46.04245 141.763439 
L 45.898119 141.743855 
L 45.753495 141.726563 
L 45.608614 141.711568 
L 45.463515 141.698873 
L 45.318232 141.688482 
L 45.172802 141.680398 
L 45.027262 141.674622 
L 44.88165 141.671156 
L 44.736 141.67 
L 33.975 141.67 
L 33.82935 141.671156 
L 33.683738 141.674622 
L 33.538198 141.680398 
L 33.392768 141.688482 
L 33.247485 141.698873 
L 33.102386 141.711568 
L 32.957505 141.726563 
L 32.812881 141.743855 
L 32.66855 141.763439 
L 32.524547 141.785311 
L 32.38091 141.809465 
L 32.237674 141.835895 
L 32.094875 141.864594 
L 31.952549 141.895555 
L 31.810733 141.92877 
L 31.669461 141.964231 
L 31.52877 142.001929 
L 31.388695 142.041855 
L 31.249271 142.083997 
L 31.110533 142.128347 
L 30.972516 142.174892 
L 30.835255 142.223622 
L 30.698784 142.274523 
L 30.563139 142.327582 
L 30.428352 142.382788 
L 30.294458 142.440124 
L 30.16149 142.499578 
L 30.029483 142.561134 
L 29.898468 142.624777 
L 29.768481 142.690491 
L 29.639552 142.758258 
L 29.511714 142.828063 
L 29.385 142.899887 
L 29.259442 142.973712 
L 29.13507 143.049521 
L 29.011917 143.127293 
L 28.890014 143.207009 
L 28.76939 143.288649 
L 28.650078 143.372193 
L 28.532105 143.457619 
L 28.415503 143.544906 
L 28.300301 143.634033 
L 28.186527 143.724975 
L 28.07421 143.817712 
L 27.963378 143.912219 
L 27.854061 144.008472 
L 27.746284 144.106448 
L 27.640075 144.206122 
L 27.535461 144.307468 
L 27.432468 144.410461 
L 27.331122 144.515075 
L 27.231448 144.621284 
L 27.133472 144.729061 
L 27.037219 144.838378 
L 26.942712 144.94921 
L 26.849975 145.061527 
L 26.759033 145.175301 
L 26.669906 145.290503 
L 26.582619 145.407105 
L 26.497193 145.525078 
L 26.413649 145.64439 
L 26.332009 145.765014 
L 26.252293 145.886917 
L 26.174521 146.01007 
L 26.098712 146.134442 
L 26.024887 146.26 
L 25.953063 146.386714 
L 25.883258 146.514552 
L 25.815491 146.643481 
L 25.749777 146.773468 
L 25.686134 146.904483 
L 25.624578 147.03649 
L 25.565124 147.169458 
L 25.507788 147.303352 
L 25.452582 147.438139 
L 25.399523 147.573784 
L 25.348622 147.710255 
L 25.299892 147.847516 
L 25.253347 147.985533 
L 25.208997 148.124271 
L 25.166855 148.263695 
L 25.126929 148.40377 
L 25.089231 148.544461 
L 25.05377 148.685733 
L 25.020555 148.827549 
L 24.989594 148.969875 
L 24.960895 149.112674 
L 24.934465 149.25591 
L 24.910311 149.399547 
L 24.888439 149.54355 
L 24.868855 149.687881 
L 24.851563 149.832505 
L 24.836568 149.977386 
L 24.823873 150.122485 
L 24.813482 150.267768 
L 24.805398 150.413198 
L 24.799622 150.558738 
L 24.796156 150.70435 
L 24.795 150.85 
L 24.795 227.656 
L 24.796156 227.80165 
L 24.799622 227.947262 
L 24.805398 228.092802 
L 24.813482 228.238232 
L 24.823873 228.383515 
L 24.836568 228.528614 
L 24.851563 228.673495 
L 24.868855 228.818119 
L 24.888439 228.96245 
L 24.910311 229.106453 
L 24.934465 229.25009 
L 24.960895 229.393326 
L 24.989594 229.536125 
L 25.020555 229.678451 
L 25.05377 229.820267 
L 25.089231 229.961539 
L 25.126929 230.10223 
L 25.166855 230.242305 
L 25.208997 230.381729 
L 25.253347 230.520467 
L 25.299892 230.658484 
L 25.348622 230.795745 
L 25.399523 230.932216 
L 25.452582 231.067861 
L 25.507788 231.202648 
L 25.565124 231.336542 
L 25.624578 231.46951 
L 25.686134 231.601517 
L 25.749777 231.732532 
L 25.815491 231.862519 
L 25.883258 231.991448 
L 25.953063 232.119286 
L 26.024887 232.246 
L 26.098712 232.371558 
L 26.174521 232.49593 
L 26.252293 232.619083 
L 26.332009 232.740986 
L 26.413649 232.86161 
L 26.497193 232.980922 
L 26.582619 233.098895 
L 26.669906 233.215497 
L 26.759033 233.330699 
L 26.849975 233.444473 
L 26.942712 233.55679 
L 27.037219 233.667622 
L 27.133472 233.776939 
L 27.231448 233.884716 
L 27.331122 233.990925 
L 27.432468 234.095539 
L 27.535461 234.198532 
L 27.640075 234.299878 
L 27.746284 234.399552 
L 27.854061 234.497528 
L 27.963378 234.593781 
L 28.07421 234.688288 
L 28.186527 234.781025 
L 28.300301 234.871967 
L 28.415503 234.961094 
L 28.532105 235.048381 
L 28.650078 235.133807 
L 28.76939 235.217351 
L 28.890014 235.298991 
L 29.011917 235.378707 
L 29.13507 235.456479 
L 29.259442 235.532288 
L 29.385 235.606113 
L 29.511714 235.677937 
L 29.639552 235.747742 
L 29.768481 235.815509 
L 29.898468 235.881223 
L 30.029483 235.944866 
L 30.16149 236.006422 
L 30.294458 236.065876 
L 30.428352 236.123212 
L 30.563139 236.178418 
L 30.698784 236.231477 
L 30.835255 236.282378 
L 30.972516 236.331108 
L 31.110533 236.377653 
L 31.249271 236.422003 
L 31.388695 236.464145 
L 31.52877 236.504071 
L 31.669461 236.541769 
L 31.810733 236.57723 
L 31.952549 236.610445 
L 32.094875 236.641406 
L 32.237674 236.670105 
L 32.38091 236.696535 
L 32.524547 236.720689 
L 32.66855 236.742561 
L 32.812881 236.762145 
L 32.957505 236.779437 
L 33.102386 236.794432 
L 33.247485 236.807127 
L 33.392768 236.817518 
L 33.538198 236.825602 
L 33.683738 236.831378 
L 33.82935 236.834844 
L 33.975 236.836 
L 44.736 236.836 
z
" clip-path="url(#pf07bec7843)" style="fill: none; stroke-dasharray: 1.85,0.8; stroke-dashoffset: 0; stroke: #008000; stroke-width: 0.5; stroke-linecap: round"/>
   </g>
   <g id="line2d_1">
    <path d="M 27.855 68.638 
L 39.075 68.638 
" clip-path="url(#pf07bec7843)" style="fill: none; stroke: #000000; stroke-width: 2; stroke-linecap: round"/>
   </g>
   <g id="line2d_2">
    <path d="M 39.075 57.418 
L 39.075 79.858 
" clip-path="url(#pf07bec7843)" style="fill: none; stroke: #000000; stroke-width: 2; stroke-linecap: round"/>
   </g>
   <g id="line2d_3">
    <path d="M 39.075 63.028 
L 50.856 52.93 
L 50.856 47.32 
" clip-path="url(#pf07bec7843)" style="fill: none; stroke: #000000; stroke-width: 2; stroke-linecap: round"/>
   </g>
   <g id="line2d_4">
    <path d="M 39.075 74.248 
L 50.856 84.346 
L 50.856 89.956 
" clip-path="url(#pf07bec7843)" style="fill: none; stroke: #000000; stroke-width: 2; stroke-linecap: round"/>
   </g>
   <g id="line2d_5">
    <path d="M 39.075 74.248 
L 45.047687 79.367446 
" clip-path="url(#pf07bec7843)" style="fill: none; stroke: #000000; stroke-width: 2; stroke-linecap: round"/>
   </g>
   <g id="patch_6">
    <path d="M 47.039109 77.044121 
L 50.856 84.346 
L 43.056265 81.690771 
z
" clip-path="url(#pf07bec7843)"/>
   </g>
   <g id="line2d_6">
    <path d="M 27.855 68.638 
L 27.855 88.528 
L 27.855 108.418 
" clip-path="url(#pf07bec7843)" style="fill: none; stroke: #000000; stroke-width: 2; stroke-linecap: round"/>
   </g>
   <g id="line2d_7">
    <path d="M 27.855 108.418 
L 39.075 108.418 
" clip-path="url(#pf07bec7843)" style="fill: none; stroke: #000000; stroke-width: 2; stroke-linecap: round"/>
   </g>
   <g id="line2d_8">
    <path d="M 39.075 97.198 
L 39.075 119.638 
" clip-path="url(#pf07bec7843)" style="fill: none; stroke: #000000; stroke-width: 2; stroke-linecap: round"/>
   </g>
   <g id="line2d_9">
    <path d="M 39.075 102.808 
L 50.856 92.71 
L 50.856 87.1 
" clip-path="url(#pf07bec7843)" style="fill: none; stroke: #000000; stroke-width: 2; stroke-linecap: round"/>
   </g>
   <g id="line2d_10">
    <path d="M 39.075 114.028 
L 50.856 124.126 
L 50.856 129.736 
" clip-path="url(#pf07bec7843)" style="fill: none; stroke: #000000; stroke-width: 2; stroke-linecap: round"/>
   </g>
   <g id="line2d_11">
    <path d="M 39.075 114.028 
L 45.047687 119.147446 
" clip-path="url(#pf07bec7843)" style="fill: none; stroke: #000000; stroke-width: 2; stroke-linecap: round"/>
   </g>
   <g id="patch_7">
    <path d="M 47.039109 116.824121 
L 50.856 124.126 
L 43.056265 121.470771 
z
" clip-path="url(#pf07bec7843)"/>
   </g>
   <g id="line2d_12">
    <path d="M 27.855 108.418 
L 27.855 123.718 
L 27.855 139.018 
" clip-path="url(#pf07bec7843)" style="fill: none; stroke: #000000; stroke-width: 2; stroke-linecap: round"/>
   </g>
   <g id="line2d_13">
    <path d="M 27.855 139.018 
L 27.855 154.318 
L 27.855 169.618 
" clip-path="url(#pf07bec7843)" style="fill: none; stroke: #000000; stroke-width: 2; stroke-linecap: round"/>
   </g>
   <g id="line2d_14">
    <path d="M 27.855 169.618 
L 39.075 169.618 
" clip-path="url(#pf07bec7843)" style="fill: none; stroke: #000000; stroke-width: 2; stroke-linecap: round"/>
   </g>
   <g id="line2d_15">
    <path d="M 39.075 158.398 
L 39.075 180.838 
" clip-path="url(#pf07bec7843)" style="fill: none; stroke: #000000; stroke-width: 2; stroke-linecap: round"/>
   </g>
   <g id="line2d_16">
    <path d="M 39.075 164.008 
L 50.856 153.91 
L 50.856 148.3 
" clip-path="url(#pf07bec7843)" style="fill: none; stroke: #000000; stroke-width: 2; stroke-linecap: round"/>
   </g>
   <g id="line2d_17">
    <path d="M 39.075 175.228 
L 50.856 185.326 
L 50.856 190.936 
" clip-path="url(#pf07bec7843)" style="fill: none; stroke: #000000; stroke-width: 2; stroke-linecap: round"/>
   </g>
   <g id="line2d_18">
    <path d="M 50.856 153.91 
L 44.883313 159.029446 
" clip-path="url(#pf07bec7843)" style="fill: none; stroke: #000000; stroke-width: 2; stroke-linecap: round"/>
   </g>
   <g id="patch_8">
    <path d="M 46.874735 161.352771 
L 39.075 164.008 
L 42.891891 156.706121 
z
" clip-path="url(#pf07bec7843)"/>
   </g>
   <g id="line2d_19">
    <path d="M 27.855 169.618 
L 27.855 189.508 
L 27.855 209.398 
" clip-path="url(#pf07bec7843)" style="fill: none; stroke: #000000; stroke-width: 2; stroke-linecap: round"/>
   </g>
   <g id="line2d_20">
    <path d="M 27.855 209.398 
L 39.075 209.398 
" clip-path="url(#pf07bec7843)" style="fill: none; stroke: #000000; stroke-width: 2; stroke-linecap: round"/>
   </g>
   <g id="line2d_21">
    <path d="M 39.075 198.178 
L 39.075 220.618 
" clip-path="url(#pf07bec7843)" style="fill: none; stroke: #000000; stroke-width: 2; stroke-linecap: round"/>
   </g>
   <g id="line2d_22">
    <path d="M 39.075 203.788 
L 50.856 193.69 
L 50.856 188.08 
" clip-path="url(#pf07bec7843)" style="fill: none; stroke: #000000; stroke-width: 2; stroke-linecap: round"/>
   </g>
   <g id="line2d_23">
    <path d="M 39.075 215.008 
L 50.856 225.106 
L 50.856 230.716 
" clip-path="url(#pf07bec7843)" style="fill: none; stroke: #000000; stroke-width: 2; stroke-linecap: round"/>
   </g>
   <g id="line2d_24">
    <path d="M 50.856 193.69 
L 44.883313 198.809446 
" clip-path="url(#pf07bec7843)" style="fill: none; stroke: #000000; stroke-width: 2; stroke-linecap: round"/>
   </g>
   <g id="patch_9">
    <path d="M 46.874735 201.132771 
L 39.075 203.788 
L 42.891891 196.486121 
z
" clip-path="url(#pf07bec7843)"/>
   </g>
   <g id="line2d_25">
    <path d="M 50.856 47.32 
L 50.856 35.08 
" clip-path="url(#pf07bec7843)" style="fill: none; stroke: #000000; stroke-width: 2; stroke-linecap: round"/>
   </g>
   <g id="line2d_26">
    <path d="M 50.856 35.08 
L 45.1185 35.08 
" clip-path="url(#pf07bec7843)" style="fill: none; stroke: #000000; stroke-width: 2; stroke-linecap: round"/>
   </g>
   <g id="line2d_27">
    <path d="M 50.856 35.08 
L 56.5935 35.08 
" clip-path="url(#pf07bec7843)" style="fill: none; stroke: #000000; stroke-width: 2; stroke-linecap: round"/>
   </g>
   <g id="line2d_28">
    <path d="M 50.856 87.1 
L 91.401 87.1 
M 91.401 94.75 
L 91.401 79.45 
M 102.111 87.1 
L 142.656 87.1 
" clip-path="url(#pf07bec7843)" style="fill: none; stroke: #000000; stroke-width: 2; stroke-linecap: round"/>
   </g>
   <g id="line2d_29">
    <path d="M 142.656 87.1 
L 142.656 74.86 
" clip-path="url(#pf07bec7843)" style="fill: none; stroke: #000000; stroke-width: 2; stroke-linecap: round"/>
   </g>
   <g id="line2d_30">
    <path d="M 142.656 74.86 
L 136.9185 74.86 
" clip-path="url(#pf07bec7843)" style="fill: none; stroke: #000000; stroke-width: 2; stroke-linecap: round"/>
   </g>
   <g id="line2d_31">
    <path d="M 142.656 74.86 
L 148.3935 74.86 
" clip-path="url(#pf07bec7843)" style="fill: none; stroke: #000000; stroke-width: 2; stroke-linecap: round"/>
   </g>
   <g id="line2d_32">
    <path d="M 50.856 230.716 
L 50.856 242.956 
" clip-path="url(#pf07bec7843)" style="fill: none; stroke: #000000; stroke-width: 2; stroke-linecap: round"/>
   </g>
   <g id="line2d_33">
    <path d="M 50.856 242.956 
L 45.1185 242.956 
" clip-path="url(#pf07bec7843)" style="fill: none; stroke: #000000; stroke-width: 2; stroke-linecap: round"/>
   </g>
   <g id="line2d_34">
    <path d="M 50.856 242.956 
L 56.5935 242.956 
" clip-path="url(#pf07bec7843)" style="fill: none; stroke: #000000; stroke-width: 2; stroke-linecap: round"/>
   </g>
   <g id="line2d_35">
    <path d="M 50.856 190.936 
L 91.401 190.936 
M 102.111 183.286 
L 102.111 198.586 
M 102.111 190.936 
L 142.656 190.936 
" clip-path="url(#pf07bec7843)" style="fill: none; stroke: #000000; stroke-width: 2; stroke-linecap: round"/>
   </g>
   <g id="line2d_36">
    <path d="M 142.656 190.936 
L 142.656 203.176 
" clip-path="url(#pf07bec7843)" style="fill: none; stroke: #000000; stroke-width: 2; stroke-linecap: round"/>
   </g>
   <g id="line2d_37">
    <path d="M 142.656 203.176 
L 136.9185 203.176 
" clip-path="url(#pf07bec7843)" style="fill: none; stroke: #000000; stroke-width: 2; stroke-linecap: round"/>
   </g>
   <g id="line2d_38">
    <path d="M 142.656 203.176 
L 148.3935 203.176 
" clip-path="url(#pf07bec7843)" style="fill: none; stroke: #000000; stroke-width: 2; stroke-linecap: round"/>
   </g>
   <g id="line2d_39">
    <path d="M 27.855 139.018 
L 20.205 139.018 
L 12.555 139.018 
" clip-path="url(#pf07bec7843)" style="fill: none; stroke: #000000; stroke-width: 2; stroke-linecap: round"/>
   </g>
   <g id="line2d_40">
    <path d="M 50.856 129.736 
L 50.856 134.326 
L 50.856 138.916 
" clip-path="url(#pf07bec7843)" style="fill: none; stroke: #000000; stroke-width: 2; stroke-linecap: round"/>
   </g>
   <g id="line2d_41">
    <path d="M 50.856 138.916 
L 50.856 143.608 
L 50.856 148.3 
" clip-path="url(#pf07bec7843)" style="fill: none; stroke: #000000; stroke-width: 2; stroke-linecap: round"/>
   </g>
   <g id="line2d_42">
    <path d="M 50.856 138.916 
L 119.706 138.916 
L 188.556 138.916 
" clip-path="url(#pf07bec7843)" style="fill: none; stroke: #000000; stroke-width: 2; stroke-linecap: round"/>
   </g>
   <g id="line2d_43">
    <path d="M 188.556 138.916 
L 188.556 141.976 
L 196.206 144.526 
L 180.906 149.626 
L 196.206 154.726 
L 180.906 159.826 
L 196.206 164.926 
L 180.906 170.026 
L 188.556 172.576 
L 188.556 175.636 
" clip-path="url(#pf07bec7843)" style="fill: none; stroke: #000000; stroke-width: 2; stroke-linecap: round"/>
   </g>
   <g id="line2d_44">
    <path d="M 188.556 175.636 
L 188.556 187.876 
L 180.906 187.876 
L 196.206 187.876 
M 183.201 191.548 
L 193.911 191.548 
M 187.026 195.22 
L 190.086 195.22 
" clip-path="url(#pf07bec7843)" style="fill: none; stroke: #000000; stroke-width: 2; stroke-linecap: round"/>
   </g>
   <g id="line2d_45">
    <path d="M 188.556 138.916 
L 196.206 138.916 
L 203.856 138.916 
" clip-path="url(#pf07bec7843)" style="fill: none; stroke: #000000; stroke-width: 2; stroke-linecap: round"/>
   </g>
   <g id="text_1">
    <g clip-path="url(#pf07bec7843)">
     <!-- $V_{DD1}$ -->
     <g transform="translate(36.856 29.420391)scale(0.125 -0.125)">
      <defs>
       <path id="DejaVuSans-Oblique-56" d="M 1319 0 
L 500 4666 
L 1119 4666 
L 1797 653 
L 4063 4666 
L 4750 4666 
L 2053 0 
L 1319 0 
z
" transform="scale(0.015625)"/>
       <path id="DejaVuSans-Oblique-44" d="M 1081 4666 
L 2438 4666 
Q 3519 4666 4070 4208 
Q 4622 3750 4622 2847 
Q 4622 2250 4412 1698 
Q 4203 1147 3834 769 
Q 3463 381 2891 190 
Q 2319 0 1538 0 
L 172 0 
L 1081 4666 
z
M 1613 4147 
L 909 519 
L 1734 519 
Q 2794 519 3375 1128 
Q 3956 1738 3956 2847 
Q 3956 3519 3581 3833 
Q 3206 4147 2406 4147 
L 1613 4147 
z
" transform="scale(0.015625)"/>
       <path id="DejaVuSans-31" d="M 794 531 
L 1825 531 
L 1825 4091 
L 703 3866 
L 703 4441 
L 1819 4666 
L 2450 4666 
L 2450 531 
L 3481 531 
L 3481 0 
L 794 0 
L 794 531 
z
" transform="scale(0.015625)"/>
      </defs>
      <use xlink:href="#DejaVuSans-Oblique-56" transform="translate(0 0.09375)"/>
      <use xlink:href="#DejaVuSans-Oblique-44" transform="translate(68.408203 -16.3125)scale(0.7)"/>
      <use xlink:href="#DejaVuSans-Oblique-44" transform="translate(122.30957 -16.3125)scale(0.7)"/>
      <use xlink:href="#DejaVuSans-31" transform="translate(176.210938 -16.3125)scale(0.7)"/>
     </g>
    </g>
   </g>
   <g id="text_2">
    <g clip-path="url(#pf07bec7843)">
     <!-- $V_{DD2}$ -->
     <g transform="translate(128.656 69.200391)scale(0.125 -0.125)">
      <defs>
       <path id="DejaVuSans-32" d="M 1228 531 
L 3431 531 
L 3431 0 
L 469 0 
L 469 531 
Q 828 903 1448 1529 
Q 2069 2156 2228 2338 
Q 2531 2678 2651 2914 
Q 2772 3150 2772 3378 
Q 2772 3750 2511 3984 
Q 2250 4219 1831 4219 
Q 1534 4219 1204 4116 
Q 875 4013 500 3803 
L 500 4441 
Q 881 4594 1212 4672 
Q 1544 4750 1819 4750 
Q 2544 4750 2975 4387 
Q 3406 4025 3406 3419 
Q 3406 3131 3298 2873 
Q 3191 2616 2906 2266 
Q 2828 2175 2409 1742 
Q 1991 1309 1228 531 
z
" transform="scale(0.015625)"/>
      </defs>
      <use xlink:href="#DejaVuSans-Oblique-56" transform="translate(0 0.09375)"/>
      <use xlink:href="#DejaVuSans-Oblique-44" transform="translate(68.408203 -16.3125)scale(0.7)"/>
      <use xlink:href="#DejaVuSans-Oblique-44" transform="translate(122.30957 -16.3125)scale(0.7)"/>
      <use xlink:href="#DejaVuSans-32" transform="translate(176.210938 -16.3125)scale(0.7)"/>
     </g>
    </g>
   </g>
   <g id="text_3">
    <g clip-path="url(#pf07bec7843)">
     <!-- -$V_{DD1}$ -->
     <g transform="translate(34.606 255.514047)scale(0.125 -0.125)">
      <defs>
       <path id="DejaVuSans-2d" d="M 313 2009 
L 1997 2009 
L 1997 1497 
L 313 1497 
L 313 2009 
z
" transform="scale(0.015625)"/>
      </defs>
      <use xlink:href="#DejaVuSans-2d" transform="translate(0 0.09375)"/>
      <use xlink:href="#DejaVuSans-Oblique-56" transform="translate(36.083984 0.09375)"/>
      <use xlink:href="#DejaVuSans-Oblique-44" transform="translate(104.492188 -16.3125)scale(0.7)"/>
      <use xlink:href="#DejaVuSans-Oblique-44" transform="translate(158.393555 -16.3125)scale(0.7)"/>
      <use xlink:href="#DejaVuSans-31" transform="translate(212.294922 -16.3125)scale(0.7)"/>
     </g>
    </g>
   </g>
   <g id="text_4">
    <g clip-path="url(#pf07bec7843)">
     <!-- $-V_{DD2}$ -->
     <g transform="translate(123.406 215.734047)scale(0.125 -0.125)">
      <defs>
       <path id="DejaVuSans-2212" d="M 678 2272 
L 4684 2272 
L 4684 1741 
L 678 1741 
L 678 2272 
z
" transform="scale(0.015625)"/>
      </defs>
      <use xlink:href="#DejaVuSans-2212" transform="translate(0 0.09375)"/>
      <use xlink:href="#DejaVuSans-Oblique-56" transform="translate(83.789062 0.09375)"/>
      <use xlink:href="#DejaVuSans-Oblique-44" transform="translate(152.197266 -16.3125)scale(0.7)"/>
      <use xlink:href="#DejaVuSans-Oblique-44" transform="translate(206.098633 -16.3125)scale(0.7)"/>
      <use xlink:href="#DejaVuSans-32" transform="translate(260 -16.3125)scale(0.7)"/>
     </g>
    </g>
   </g>
   <g id="text_5">
    <g clip-path="url(#pf07bec7843)">
     <!-- $R_L$ -->
     <g transform="translate(163.846 160.725219)scale(0.125 -0.125)">
      <defs>
       <path id="DejaVuSans-Oblique-52" d="M 1613 4147 
L 1294 2491 
L 2106 2491 
Q 2584 2491 2879 2755 
Q 3175 3019 3175 3444 
Q 3175 3784 2976 3965 
Q 2778 4147 2406 4147 
L 1613 4147 
z
M 2772 2241 
Q 2972 2194 3105 2009 
Q 3238 1825 3413 1275 
L 3809 0 
L 3144 0 
L 2778 1197 
Q 2638 1659 2453 1815 
Q 2269 1972 1888 1972 
L 1191 1972 
L 806 0 
L 172 0 
L 1081 4666 
L 2503 4666 
Q 3150 4666 3495 4373 
Q 3841 4081 3841 3531 
Q 3841 3044 3547 2687 
Q 3253 2331 2772 2241 
z
" transform="scale(0.015625)"/>
       <path id="DejaVuSans-Oblique-4c" d="M 1075 4666 
L 1709 4666 
L 909 525 
L 3181 525 
L 3078 0 
L 172 0 
L 1075 4666 
z
" transform="scale(0.015625)"/>
      </defs>
      <use xlink:href="#DejaVuSans-Oblique-52" transform="translate(0 0.09375)"/>
      <use xlink:href="#DejaVuSans-Oblique-4c" transform="translate(69.482422 -16.3125)scale(0.7)"/>
     </g>
    </g>
   </g>
   <g id="patch_10">
    <path d="M 27.855 141.313 
C 28.463641 141.313 29.047436 141.071184 29.47781 140.64081 
C 29.908184 140.210436 30.15 139.626641 30.15 139.018 
C 30.15 138.409359 29.908184 137.825564 29.47781 137.39519 
C 29.047436 136.964816 28.463641 136.723 27.855 136.723 
C 27.246359 136.723 26.662564 136.964816 26.23219 137.39519 
C 25.801816 137.825564 25.56 138.409359 25.56 139.018 
C 25.56 139.626641 25.801816 140.210436 26.23219 140.64081 
C 26.662564 141.071184 27.246359 141.313 27.855 141.313 
z
" clip-path="url(#pf07bec7843)" style="stroke: #000000; stroke-width: 2; stroke-linejoin: miter"/>
   </g>
   <g id="patch_11">
    <path d="M 12.555 141.313 
C 13.163641 141.313 13.747436 141.071184 14.17781 140.64081 
C 14.608184 140.210436 14.85 139.626641 14.85 139.018 
C 14.85 138.409359 14.608184 137.825564 14.17781 137.39519 
C 13.747436 136.964816 13.163641 136.723 12.555 136.723 
C 11.946359 136.723 11.362564 136.964816 10.93219 137.39519 
C 10.501816 137.825564 10.26 138.409359 10.26 139.018 
C 10.26 139.626641 10.501816 140.210436 10.93219 140.64081 
C 11.362564 141.071184 11.946359 141.313 12.555 141.313 
z
" clip-path="url(#pf07bec7843)" style="fill: #ffffff; stroke: #000000; stroke-width: 2; stroke-linejoin: miter"/>
   </g>
   <g id="patch_12">
    <path d="M 50.856 141.211 
C 51.464641 141.211 52.048436 140.969184 52.47881 140.53881 
C 52.909184 140.108436 53.151 139.524641 53.151 138.916 
C 53.151 138.307359 52.909184 137.723564 52.47881 137.29319 
C 52.048436 136.862816 51.464641 136.621 50.856 136.621 
C 50.247359 136.621 49.663564 136.862816 49.23319 137.29319 
C 48.802816 137.723564 48.561 138.307359 48.561 138.916 
C 48.561 139.524641 48.802816 140.108436 49.23319 140.53881 
C 49.663564 140.969184 50.247359 141.211 50.856 141.211 
z
" clip-path="url(#pf07bec7843)" style="stroke: #000000; stroke-width: 2; stroke-linejoin: miter"/>
   </g>
   <g id="patch_13">
    <path d="M 203.856 141.211 
C 204.464641 141.211 205.048436 140.969184 205.47881 140.53881 
C 205.909184 140.108436 206.151 139.524641 206.151 138.916 
C 206.151 138.307359 205.909184 137.723564 205.47881 137.29319 
C 205.048436 136.862816 204.464641 136.621 203.856 136.621 
C 203.247359 136.621 202.663564 136.862816 202.23319 137.29319 
C 201.802816 137.723564 201.561 138.307359 201.561 138.916 
C 201.561 139.524641 201.802816 140.108436 202.23319 140.53881 
C 202.663564 140.969184 203.247359 141.211 203.856 141.211 
z
" clip-path="url(#pf07bec7843)" style="fill: #ffffff; stroke: #000000; stroke-width: 2; stroke-linejoin: miter"/>
   </g>
   <g id="text_6">
    <g clip-path="url(#pf07bec7843)">
     <!-- $v_{out}$ -->
     <g transform="translate(192.7935 130.961391)scale(0.125 -0.125)">
      <defs>
       <path id="DejaVuSans-Oblique-76" d="M 459 3500 
L 1069 3500 
L 1581 525 
L 3256 3500 
L 3866 3500 
L 1875 0 
L 1100 0 
L 459 3500 
z
" transform="scale(0.015625)"/>
       <path id="DejaVuSans-Oblique-6f" d="M 1625 -91 
Q 1009 -91 651 289 
Q 294 669 294 1325 
Q 294 1706 417 2101 
Q 541 2497 738 2766 
Q 1047 3184 1428 3384 
Q 1809 3584 2291 3584 
Q 2888 3584 3255 3212 
Q 3622 2841 3622 2241 
Q 3622 1825 3500 1412 
Q 3378 1000 3181 728 
Q 2875 309 2494 109 
Q 2113 -91 1625 -91 
z
M 891 1344 
Q 891 869 1089 633 
Q 1288 397 1691 397 
Q 2269 397 2648 901 
Q 3028 1406 3028 2181 
Q 3028 2634 2825 2865 
Q 2622 3097 2228 3097 
Q 1903 3097 1650 2945 
Q 1397 2794 1197 2484 
Q 1050 2253 970 1956 
Q 891 1659 891 1344 
z
" transform="scale(0.015625)"/>
       <path id="DejaVuSans-Oblique-75" d="M 428 1388 
L 838 3500 
L 1416 3500 
L 1006 1409 
Q 975 1256 961 1147 
Q 947 1038 947 966 
Q 947 700 1109 554 
Q 1272 409 1569 409 
Q 2031 409 2368 721 
Q 2706 1034 2809 1563 
L 3194 3500 
L 3769 3500 
L 3091 0 
L 2516 0 
L 2631 550 
Q 2388 244 2052 76 
Q 1716 -91 1338 -91 
Q 878 -91 622 161 
Q 366 413 366 863 
Q 366 956 381 1097 
Q 397 1238 428 1388 
z
" transform="scale(0.015625)"/>
       <path id="DejaVuSans-Oblique-74" d="M 2706 3500 
L 2619 3053 
L 1472 3053 
L 1100 1153 
Q 1081 1047 1072 975 
Q 1063 903 1063 863 
Q 1063 663 1183 572 
Q 1303 481 1569 481 
L 2150 481 
L 2053 0 
L 1503 0 
Q 991 0 739 200 
Q 488 400 488 806 
Q 488 878 497 964 
Q 506 1050 525 1153 
L 897 3053 
L 409 3053 
L 500 3500 
L 978 3500 
L 1172 4494 
L 1747 4494 
L 1556 3500 
L 2706 3500 
z
" transform="scale(0.015625)"/>
      </defs>
      <use xlink:href="#DejaVuSans-Oblique-76" transform="translate(0 0.3125)"/>
      <use xlink:href="#DejaVuSans-Oblique-6f" transform="translate(59.179688 -16.09375)scale(0.7)"/>
      <use xlink:href="#DejaVuSans-Oblique-75" transform="translate(102.006836 -16.09375)scale(0.7)"/>
      <use xlink:href="#DejaVuSans-Oblique-74" transform="translate(146.37207 -16.09375)scale(0.7)"/>
     </g>
    </g>
   </g>
  </g>
 </g>
 <defs>
  <clipPath id="pf07bec7843">
   <rect x="7.2" y="7.2" width="224.8794" height="257.516"/>
  </clipPath>
 </defs>
</svg>
