<?xml version="1.0" encoding="utf-8" standalone="no"?>
<!DOCTYPE svg PUBLIC "-//W3C//DTD SVG 1.1//EN"
  "http://www.w3.org/Graphics/SVG/1.1/DTD/svg11.dtd">
<svg xmlns:xlink="http://www.w3.org/1999/xlink" width="193.3794pt" height="208.54pt" viewBox="0 0 193.3794 208.54" xmlns="http://www.w3.org/2000/svg" version="1.1">
 <metadata>
  <rdf:RDF xmlns:dc="http://purl.org/dc/elements/1.1/" xmlns:cc="http://creativecommons.org/ns#" xmlns:rdf="http://www.w3.org/1999/02/22-rdf-syntax-ns#">
   <cc:Work>
    <dc:type rdf:resource="http://purl.org/dc/dcmitype/StillImage"/>
    <dc:date>2022-03-27T21:20:54.518152</dc:date>
    <dc:format>image/svg+xml</dc:format>
    <dc:creator>
     <cc:Agent>
      <dc:title>Matplotlib v3.5.1, https://matplotlib.org/</dc:title>
     </cc:Agent>
    </dc:creator>
   </cc:Work>
  </rdf:RDF>
 </metadata>
 <defs>
  <style type="text/css">*{stroke-linejoin: round; stroke-linecap: butt}</style>
 </defs>
 <g id="figure_1">
  <g id="patch_1">
   <path d="M 0 208.54 
L 193.3794 208.54 
L 193.3794 0 
L 0 0 
L 0 208.54 
z
" style="fill: none"/>
  </g>
  <g id="axes_1">
   <g id="patch_2">
    <path d="M 44.736 96.586 
L 44.88165 96.584844 
L 45.027262 96.581378 
L 45.172802 96.575602 
L 45.318232 96.567518 
L 45.463515 96.557127 
L 45.608614 96.544432 
L 45.753495 96.529437 
L 45.898119 96.512145 
L 46.04245 96.492561 
L 46.186453 96.470689 
L 46.33009 96.446535 
L 46.473326 96.420105 
L 46.616125 96.391406 
L 46.758451 96.360445 
L 46.900267 96.32723 
L 47.041539 96.291769 
L 47.18223 96.254071 
L 47.322305 96.214145 
L 47.461729 96.172003 
L 47.600467 96.127653 
L 47.738484 96.081108 
L 47.875745 96.032378 
L 48.012216 95.981477 
L 48.147861 95.928418 
L 48.282648 95.873212 
L 48.416542 95.815876 
L 48.54951 95.756422 
L 48.681517 95.694866 
L 48.812532 95.631223 
L 48.942519 95.565509 
L 49.071448 95.497742 
L 49.199286 95.427937 
L 49.326 95.356113 
L 49.451558 95.282288 
L 49.57593 95.206479 
L 49.699083 95.128707 
L 49.820986 95.048991 
L 49.94161 94.967351 
L 50.060922 94.883807 
L 50.178895 94.798381 
L 50.295497 94.711094 
L 50.410699 94.621967 
L 50.524473 94.531025 
L 50.63679 94.438288 
L 50.747622 94.343781 
L 50.856939 94.247528 
L 50.964716 94.149552 
L 51.070925 94.049878 
L 51.175539 93.948532 
L 51.278532 93.845539 
L 51.379878 93.740925 
L 51.479552 93.634716 
L 51.577528 93.526939 
L 51.673781 93.417622 
L 51.768288 93.30679 
L 51.861025 93.194473 
L 51.951967 93.080699 
L 52.041094 92.965497 
L 52.128381 92.848895 
L 52.213807 92.730922 
L 52.297351 92.61161 
L 52.378991 92.490986 
L 52.458707 92.369083 
L 52.536479 92.24593 
L 52.612288 92.121558 
L 52.686113 91.996 
L 52.757937 91.869286 
L 52.827742 91.741448 
L 52.895509 91.612519 
L 52.961223 91.482532 
L 53.024866 91.351517 
L 53.086422 91.21951 
L 53.145876 91.086542 
L 53.203212 90.952648 
L 53.258418 90.817861 
L 53.311477 90.682216 
L 53.362378 90.545745 
L 53.411108 90.408484 
L 53.457653 90.270467 
L 53.502003 90.131729 
L 53.544145 89.992305 
L 53.584071 89.85223 
L 53.621769 89.711539 
L 53.65723 89.570267 
L 53.690445 89.428451 
L 53.721406 89.286125 
L 53.750105 89.143326 
L 53.776535 89.00009 
L 53.800689 88.856453 
L 53.822561 88.71245 
L 53.842145 88.568119 
L 53.859437 88.423495 
L 53.874432 88.278614 
L 53.887127 88.133515 
L 53.897518 87.988232 
L 53.905602 87.842802 
L 53.911378 87.697262 
L 53.914844 87.55165 
L 53.916 87.406 
L 53.916 50.38 
L 53.914844 50.23435 
L 53.911378 50.088738 
L 53.905602 49.943198 
L 53.897518 49.797768 
L 53.887127 49.652485 
L 53.874432 49.507386 
L 53.859437 49.362505 
L 53.842145 49.217881 
L 53.822561 49.07355 
L 53.800689 48.929547 
L 53.776535 48.78591 
L 53.750105 48.642674 
L 53.721406 48.499875 
L 53.690445 48.357549 
L 53.65723 48.215733 
L 53.621769 48.074461 
L 53.584071 47.93377 
L 53.544145 47.793695 
L 53.502003 47.654271 
L 53.457653 47.515533 
L 53.411108 47.377516 
L 53.362378 47.240255 
L 53.311477 47.103784 
L 53.258418 46.968139 
L 53.203212 46.833352 
L 53.145876 46.699458 
L 53.086422 46.56649 
L 53.024866 46.434483 
L 52.961223 46.303468 
L 52.895509 46.173481 
L 52.827742 46.044552 
L 52.757937 45.916714 
L 52.686113 45.79 
L 52.612288 45.664442 
L 52.536479 45.54007 
L 52.458707 45.416917 
L 52.378991 45.295014 
L 52.297351 45.17439 
L 52.213807 45.055078 
L 52.128381 44.937105 
L 52.041094 44.820503 
L 51.951967 44.705301 
L 51.861025 44.591527 
L 51.768288 44.47921 
L 51.673781 44.368378 
L 51.577528 44.259061 
L 51.479552 44.151284 
L 51.379878 44.045075 
L 51.278532 43.940461 
L 51.175539 43.837468 
L 51.070925 43.736122 
L 50.964716 43.636448 
L 50.856939 43.538472 
L 50.747622 43.442219 
L 50.63679 43.347712 
L 50.524473 43.254975 
L 50.410699 43.164033 
L 50.295497 43.074906 
L 50.178895 42.987619 
L 50.060922 42.902193 
L 49.94161 42.818649 
L 49.820986 42.737009 
L 49.699083 42.657293 
L 49.57593 42.579521 
L 49.451558 42.503712 
L 49.326 42.429887 
L 49.199286 42.358063 
L 49.071448 42.288258 
L 48.942519 42.220491 
L 48.812532 42.154777 
L 48.681517 42.091134 
L 48.54951 42.029578 
L 48.416542 41.970124 
L 48.282648 41.912788 
L 48.147861 41.857582 
L 48.012216 41.804523 
L 47.875745 41.753622 
L 47.738484 41.704892 
L 47.600467 41.658347 
L 47.461729 41.613997 
L 47.322305 41.571855 
L 47.18223 41.531929 
L 47.041539 41.494231 
L 46.900267 41.45877 
L 46.758451 41.425555 
L 46.616125 41.394594 
L 46.473326 41.365895 
L 46.33009 41.339465 
L 46.186453 41.315311 
L 46.04245 41.293439 
L 45.898119 41.273855 
L 45.753495 41.256563 
L 45.608614 41.241568 
L 45.463515 41.228873 
L 45.318232 41.218482 
L 45.172802 41.210398 
L 45.027262 41.204622 
L 44.88165 41.201156 
L 44.736 41.2 
L 33.975 41.2 
L 33.82935 41.201156 
L 33.683738 41.204622 
L 33.538198 41.210398 
L 33.392768 41.218482 
L 33.247485 41.228873 
L 33.102386 41.241568 
L 32.957505 41.256563 
L 32.812881 41.273855 
L 32.66855 41.293439 
L 32.524547 41.315311 
L 32.38091 41.339465 
L 32.237674 41.365895 
L 32.094875 41.394594 
L 31.952549 41.425555 
L 31.810733 41.45877 
L 31.669461 41.494231 
L 31.52877 41.531929 
L 31.388695 41.571855 
L 31.249271 41.613997 
L 31.110533 41.658347 
L 30.972516 41.704892 
L 30.835255 41.753622 
L 30.698784 41.804523 
L 30.563139 41.857582 
L 30.428352 41.912788 
L 30.294458 41.970124 
L 30.16149 42.029578 
L 30.029483 42.091134 
L 29.898468 42.154777 
L 29.768481 42.220491 
L 29.639552 42.288258 
L 29.511714 42.358063 
L 29.385 42.429887 
L 29.259442 42.503712 
L 29.13507 42.579521 
L 29.011917 42.657293 
L 28.890014 42.737009 
L 28.76939 42.818649 
L 28.650078 42.902193 
L 28.532105 42.987619 
L 28.415503 43.074906 
L 28.300301 43.164033 
L 28.186527 43.254975 
L 28.07421 43.347712 
L 27.963378 43.442219 
L 27.854061 43.538472 
L 27.746284 43.636448 
L 27.640075 43.736122 
L 27.535461 43.837468 
L 27.432468 43.940461 
L 27.331122 44.045075 
L 27.231448 44.151284 
L 27.133472 44.259061 
L 27.037219 44.368378 
L 26.942712 44.47921 
L 26.849975 44.591527 
L 26.759033 44.705301 
L 26.669906 44.820503 
L 26.582619 44.937105 
L 26.497193 45.055078 
L 26.413649 45.17439 
L 26.332009 45.295014 
L 26.252293 45.416917 
L 26.174521 45.54007 
L 26.098712 45.664442 
L 26.024887 45.79 
L 25.953063 45.916714 
L 25.883258 46.044552 
L 25.815491 46.173481 
L 25.749777 46.303468 
L 25.686134 46.434483 
L 25.624578 46.56649 
L 25.565124 46.699458 
L 25.507788 46.833352 
L 25.452582 46.968139 
L 25.399523 47.103784 
L 25.348622 47.240255 
L 25.299892 47.377516 
L 25.253347 47.515533 
L 25.208997 47.654271 
L 25.166855 47.793695 
L 25.126929 47.93377 
L 25.089231 48.074461 
L 25.05377 48.215733 
L 25.020555 48.357549 
L 24.989594 48.499875 
L 24.960895 48.642674 
L 24.934465 48.78591 
L 24.910311 48.929547 
L 24.888439 49.07355 
L 24.868855 49.217881 
L 24.851563 49.362505 
L 24.836568 49.507386 
L 24.823873 49.652485 
L 24.813482 49.797768 
L 24.805398 49.943198 
L 24.799622 50.088738 
L 24.796156 50.23435 
L 24.795 50.38 
L 24.795 87.406 
L 24.796156 87.55165 
L 24.799622 87.697262 
L 24.805398 87.842802 
L 24.813482 87.988232 
L 24.823873 88.133515 
L 24.836568 88.278614 
L 24.851563 88.423495 
L 24.868855 88.568119 
L 24.888439 88.71245 
L 24.910311 88.856453 
L 24.934465 89.00009 
L 24.960895 89.143326 
L 24.989594 89.286125 
L 25.020555 89.428451 
L 25.05377 89.570267 
L 25.089231 89.711539 
L 25.126929 89.85223 
L 25.166855 89.992305 
L 25.208997 90.131729 
L 25.253347 90.270467 
L 25.299892 90.408484 
L 25.348622 90.545745 
L 25.399523 90.682216 
L 25.452582 90.817861 
L 25.507788 90.952648 
L 25.565124 91.086542 
L 25.624578 91.21951 
L 25.686134 91.351517 
L 25.749777 91.482532 
L 25.815491 91.612519 
L 25.883258 91.741448 
L 25.953063 91.869286 
L 26.024887 91.996 
L 26.098712 92.121558 
L 26.174521 92.24593 
L 26.252293 92.369083 
L 26.332009 92.490986 
L 26.413649 92.61161 
L 26.497193 92.730922 
L 26.582619 92.848895 
L 26.669906 92.965497 
L 26.759033 93.080699 
L 26.849975 93.194473 
L 26.942712 93.30679 
L 27.037219 93.417622 
L 27.133472 93.526939 
L 27.231448 93.634716 
L 27.331122 93.740925 
L 27.432468 93.845539 
L 27.535461 93.948532 
L 27.640075 94.049878 
L 27.746284 94.149552 
L 27.854061 94.247528 
L 27.963378 94.343781 
L 28.07421 94.438288 
L 28.186527 94.531025 
L 28.300301 94.621967 
L 28.415503 94.711094 
L 28.532105 94.798381 
L 28.650078 94.883807 
L 28.76939 94.967351 
L 28.890014 95.048991 
L 29.011917 95.128707 
L 29.13507 95.206479 
L 29.259442 95.282288 
L 29.385 95.356113 
L 29.511714 95.427937 
L 29.639552 95.497742 
L 29.768481 95.565509 
L 29.898468 95.631223 
L 30.029483 95.694866 
L 30.16149 95.756422 
L 30.294458 95.815876 
L 30.428352 95.873212 
L 30.563139 95.928418 
L 30.698784 95.981477 
L 30.835255 96.032378 
L 30.972516 96.081108 
L 31.110533 96.127653 
L 31.249271 96.172003 
L 31.388695 96.214145 
L 31.52877 96.254071 
L 31.669461 96.291769 
L 31.810733 96.32723 
L 31.952549 96.360445 
L 32.094875 96.391406 
L 32.237674 96.420105 
L 32.38091 96.446535 
L 32.524547 96.470689 
L 32.66855 96.492561 
L 32.812881 96.512145 
L 32.957505 96.529437 
L 33.102386 96.544432 
L 33.247485 96.557127 
L 33.392768 96.567518 
L 33.538198 96.575602 
L 33.683738 96.581378 
L 33.82935 96.584844 
L 33.975 96.586 
L 44.736 96.586 
z
" clip-path="url(#pcaf1a0d0c8)" style="fill: none; stroke-dasharray: 1.85,0.8; stroke-dashoffset: 0; stroke: #008000; stroke-width: 0.5; stroke-linecap: round"/>
   </g>
   <g id="patch_3">
    <path d="M 44.736 184.816 
L 44.88165 184.814844 
L 45.027262 184.811378 
L 45.172802 184.805602 
L 45.318232 184.797518 
L 45.463515 184.787127 
L 45.608614 184.774432 
L 45.753495 184.759437 
L 45.898119 184.742145 
L 46.04245 184.722561 
L 46.186453 184.700689 
L 46.33009 184.676535 
L 46.473326 184.650105 
L 46.616125 184.621406 
L 46.758451 184.590445 
L 46.900267 184.55723 
L 47.041539 184.521769 
L 47.18223 184.484071 
L 47.322305 184.444145 
L 47.461729 184.402003 
L 47.600467 184.357653 
L 47.738484 184.311108 
L 47.875745 184.262378 
L 48.012216 184.211477 
L 48.147861 184.158418 
L 48.282648 184.103212 
L 48.416542 184.045876 
L 48.54951 183.986422 
L 48.681517 183.924866 
L 48.812532 183.861223 
L 48.942519 183.795509 
L 49.071448 183.727742 
L 49.199286 183.657937 
L 49.326 183.586113 
L 49.451558 183.512288 
L 49.57593 183.436479 
L 49.699083 183.358707 
L 49.820986 183.278991 
L 49.94161 183.197351 
L 50.060922 183.113807 
L 50.178895 183.028381 
L 50.295497 182.941094 
L 50.410699 182.851967 
L 50.524473 182.761025 
L 50.63679 182.668288 
L 50.747622 182.573781 
L 50.856939 182.477528 
L 50.964716 182.379552 
L 51.070925 182.279878 
L 51.175539 182.178532 
L 51.278532 182.075539 
L 51.379878 181.970925 
L 51.479552 181.864716 
L 51.577528 181.756939 
L 51.673781 181.647622 
L 51.768288 181.53679 
L 51.861025 181.424473 
L 51.951967 181.310699 
L 52.041094 181.195497 
L 52.128381 181.078895 
L 52.213807 180.960922 
L 52.297351 180.84161 
L 52.378991 180.720986 
L 52.458707 180.599083 
L 52.536479 180.47593 
L 52.612288 180.351558 
L 52.686113 180.226 
L 52.757937 180.099286 
L 52.827742 179.971448 
L 52.895509 179.842519 
L 52.961223 179.712532 
L 53.024866 179.581517 
L 53.086422 179.44951 
L 53.145876 179.316542 
L 53.203212 179.182648 
L 53.258418 179.047861 
L 53.311477 178.912216 
L 53.362378 178.775745 
L 53.411108 178.638484 
L 53.457653 178.500467 
L 53.502003 178.361729 
L 53.544145 178.222305 
L 53.584071 178.08223 
L 53.621769 177.941539 
L 53.65723 177.800267 
L 53.690445 177.658451 
L 53.721406 177.516125 
L 53.750105 177.373326 
L 53.776535 177.23009 
L 53.800689 177.086453 
L 53.822561 176.94245 
L 53.842145 176.798119 
L 53.859437 176.653495 
L 53.874432 176.508614 
L 53.887127 176.363515 
L 53.897518 176.218232 
L 53.905602 176.072802 
L 53.911378 175.927262 
L 53.914844 175.78165 
L 53.916 175.636 
L 53.916 138.61 
L 53.914844 138.46435 
L 53.911378 138.318738 
L 53.905602 138.173198 
L 53.897518 138.027768 
L 53.887127 137.882485 
L 53.874432 137.737386 
L 53.859437 137.592505 
L 53.842145 137.447881 
L 53.822561 137.30355 
L 53.800689 137.159547 
L 53.776535 137.01591 
L 53.750105 136.872674 
L 53.721406 136.729875 
L 53.690445 136.587549 
L 53.65723 136.445733 
L 53.621769 136.304461 
L 53.584071 136.16377 
L 53.544145 136.023695 
L 53.502003 135.884271 
L 53.457653 135.745533 
L 53.411108 135.607516 
L 53.362378 135.470255 
L 53.311477 135.333784 
L 53.258418 135.198139 
L 53.203212 135.063352 
L 53.145876 134.929458 
L 53.086422 134.79649 
L 53.024866 134.664483 
L 52.961223 134.533468 
L 52.895509 134.403481 
L 52.827742 134.274552 
L 52.757937 134.146714 
L 52.686113 134.02 
L 52.612288 133.894442 
L 52.536479 133.77007 
L 52.458707 133.646917 
L 52.378991 133.525014 
L 52.297351 133.40439 
L 52.213807 133.285078 
L 52.128381 133.167105 
L 52.041094 133.050503 
L 51.951967 132.935301 
L 51.861025 132.821527 
L 51.768288 132.70921 
L 51.673781 132.598378 
L 51.577528 132.489061 
L 51.479552 132.381284 
L 51.379878 132.275075 
L 51.278532 132.170461 
L 51.175539 132.067468 
L 51.070925 131.966122 
L 50.964716 131.866448 
L 50.856939 131.768472 
L 50.747622 131.672219 
L 50.63679 131.577712 
L 50.524473 131.484975 
L 50.410699 131.394033 
L 50.295497 131.304906 
L 50.178895 131.217619 
L 50.060922 131.132193 
L 49.94161 131.048649 
L 49.820986 130.967009 
L 49.699083 130.887293 
L 49.57593 130.809521 
L 49.451558 130.733712 
L 49.326 130.659887 
L 49.199286 130.588063 
L 49.071448 130.518258 
L 48.942519 130.450491 
L 48.812532 130.384777 
L 48.681517 130.321134 
L 48.54951 130.259578 
L 48.416542 130.200124 
L 48.282648 130.142788 
L 48.147861 130.087582 
L 48.012216 130.034523 
L 47.875745 129.983622 
L 47.738484 129.934892 
L 47.600467 129.888347 
L 47.461729 129.843997 
L 47.322305 129.801855 
L 47.18223 129.761929 
L 47.041539 129.724231 
L 46.900267 129.68877 
L 46.758451 129.655555 
L 46.616125 129.624594 
L 46.473326 129.595895 
L 46.33009 129.569465 
L 46.186453 129.545311 
L 46.04245 129.523439 
L 45.898119 129.503855 
L 45.753495 129.486563 
L 45.608614 129.471568 
L 45.463515 129.458873 
L 45.318232 129.448482 
L 45.172802 129.440398 
L 45.027262 129.434622 
L 44.88165 129.431156 
L 44.736 129.43 
L 33.975 129.43 
L 33.82935 129.431156 
L 33.683738 129.434622 
L 33.538198 129.440398 
L 33.392768 129.448482 
L 33.247485 129.458873 
L 33.102386 129.471568 
L 32.957505 129.486563 
L 32.812881 129.503855 
L 32.66855 129.523439 
L 32.524547 129.545311 
L 32.38091 129.569465 
L 32.237674 129.595895 
L 32.094875 129.624594 
L 31.952549 129.655555 
L 31.810733 129.68877 
L 31.669461 129.724231 
L 31.52877 129.761929 
L 31.388695 129.801855 
L 31.249271 129.843997 
L 31.110533 129.888347 
L 30.972516 129.934892 
L 30.835255 129.983622 
L 30.698784 130.034523 
L 30.563139 130.087582 
L 30.428352 130.142788 
L 30.294458 130.200124 
L 30.16149 130.259578 
L 30.029483 130.321134 
L 29.898468 130.384777 
L 29.768481 130.450491 
L 29.639552 130.518258 
L 29.511714 130.588063 
L 29.385 130.659887 
L 29.259442 130.733712 
L 29.13507 130.809521 
L 29.011917 130.887293 
L 28.890014 130.967009 
L 28.76939 131.048649 
L 28.650078 131.132193 
L 28.532105 131.217619 
L 28.415503 131.304906 
L 28.300301 131.394033 
L 28.186527 131.484975 
L 28.07421 131.577712 
L 27.963378 131.672219 
L 27.854061 131.768472 
L 27.746284 131.866448 
L 27.640075 131.966122 
L 27.535461 132.067468 
L 27.432468 132.170461 
L 27.331122 132.275075 
L 27.231448 132.381284 
L 27.133472 132.489061 
L 27.037219 132.598378 
L 26.942712 132.70921 
L 26.849975 132.821527 
L 26.759033 132.935301 
L 26.669906 133.050503 
L 26.582619 133.167105 
L 26.497193 133.285078 
L 26.413649 133.40439 
L 26.332009 133.525014 
L 26.252293 133.646917 
L 26.174521 133.77007 
L 26.098712 133.894442 
L 26.024887 134.02 
L 25.953063 134.146714 
L 25.883258 134.274552 
L 25.815491 134.403481 
L 25.749777 134.533468 
L 25.686134 134.664483 
L 25.624578 134.79649 
L 25.565124 134.929458 
L 25.507788 135.063352 
L 25.452582 135.198139 
L 25.399523 135.333784 
L 25.348622 135.470255 
L 25.299892 135.607516 
L 25.253347 135.745533 
L 25.208997 135.884271 
L 25.166855 136.023695 
L 25.126929 136.16377 
L 25.089231 136.304461 
L 25.05377 136.445733 
L 25.020555 136.587549 
L 24.989594 136.729875 
L 24.960895 136.872674 
L 24.934465 137.01591 
L 24.910311 137.159547 
L 24.888439 137.30355 
L 24.868855 137.447881 
L 24.851563 137.592505 
L 24.836568 137.737386 
L 24.823873 137.882485 
L 24.813482 138.027768 
L 24.805398 138.173198 
L 24.799622 138.318738 
L 24.796156 138.46435 
L 24.795 138.61 
L 24.795 175.636 
L 24.796156 175.78165 
L 24.799622 175.927262 
L 24.805398 176.072802 
L 24.813482 176.218232 
L 24.823873 176.363515 
L 24.836568 176.508614 
L 24.851563 176.653495 
L 24.868855 176.798119 
L 24.888439 176.94245 
L 24.910311 177.086453 
L 24.934465 177.23009 
L 24.960895 177.373326 
L 24.989594 177.516125 
L 25.020555 177.658451 
L 25.05377 177.800267 
L 25.089231 177.941539 
L 25.126929 178.08223 
L 25.166855 178.222305 
L 25.208997 178.361729 
L 25.253347 178.500467 
L 25.299892 178.638484 
L 25.348622 178.775745 
L 25.399523 178.912216 
L 25.452582 179.047861 
L 25.507788 179.182648 
L 25.565124 179.316542 
L 25.624578 179.44951 
L 25.686134 179.581517 
L 25.749777 179.712532 
L 25.815491 179.842519 
L 25.883258 179.971448 
L 25.953063 180.099286 
L 26.024887 180.226 
L 26.098712 180.351558 
L 26.174521 180.47593 
L 26.252293 180.599083 
L 26.332009 180.720986 
L 26.413649 180.84161 
L 26.497193 180.960922 
L 26.582619 181.078895 
L 26.669906 181.195497 
L 26.759033 181.310699 
L 26.849975 181.424473 
L 26.942712 181.53679 
L 27.037219 181.647622 
L 27.133472 181.756939 
L 27.231448 181.864716 
L 27.331122 181.970925 
L 27.432468 182.075539 
L 27.535461 182.178532 
L 27.640075 182.279878 
L 27.746284 182.379552 
L 27.854061 182.477528 
L 27.963378 182.573781 
L 28.07421 182.668288 
L 28.186527 182.761025 
L 28.300301 182.851967 
L 28.415503 182.941094 
L 28.532105 183.028381 
L 28.650078 183.113807 
L 28.76939 183.197351 
L 28.890014 183.278991 
L 29.011917 183.358707 
L 29.13507 183.436479 
L 29.259442 183.512288 
L 29.385 183.586113 
L 29.511714 183.657937 
L 29.639552 183.727742 
L 29.768481 183.795509 
L 29.898468 183.861223 
L 30.029483 183.924866 
L 30.16149 183.986422 
L 30.294458 184.045876 
L 30.428352 184.103212 
L 30.563139 184.158418 
L 30.698784 184.211477 
L 30.835255 184.262378 
L 30.972516 184.311108 
L 31.110533 184.357653 
L 31.249271 184.402003 
L 31.388695 184.444145 
L 31.52877 184.484071 
L 31.669461 184.521769 
L 31.810733 184.55723 
L 31.952549 184.590445 
L 32.094875 184.621406 
L 32.237674 184.650105 
L 32.38091 184.676535 
L 32.524547 184.700689 
L 32.66855 184.722561 
L 32.812881 184.742145 
L 32.957505 184.759437 
L 33.102386 184.774432 
L 33.247485 184.787127 
L 33.392768 184.797518 
L 33.538198 184.805602 
L 33.683738 184.811378 
L 33.82935 184.814844 
L 33.975 184.816 
L 44.736 184.816 
z
" clip-path="url(#pcaf1a0d0c8)" style="fill: none; stroke-dasharray: 1.85,0.8; stroke-dashoffset: 0; stroke: #008000; stroke-width: 0.5; stroke-linecap: round"/>
   </g>
   <g id="line2d_1">
    <path d="M 27.855 68.638 
L 39.075 68.638 
" clip-path="url(#pcaf1a0d0c8)" style="fill: none; stroke: #000000; stroke-width: 2; stroke-linecap: round"/>
   </g>
   <g id="line2d_2">
    <path d="M 39.075 57.418 
L 39.075 79.858 
" clip-path="url(#pcaf1a0d0c8)" style="fill: none; stroke: #000000; stroke-width: 2; stroke-linecap: round"/>
   </g>
   <g id="line2d_3">
    <path d="M 39.075 63.028 
L 50.856 52.93 
L 50.856 47.32 
" clip-path="url(#pcaf1a0d0c8)" style="fill: none; stroke: #000000; stroke-width: 2; stroke-linecap: round"/>
   </g>
   <g id="line2d_4">
    <path d="M 39.075 74.248 
L 50.856 84.346 
L 50.856 89.956 
" clip-path="url(#pcaf1a0d0c8)" style="fill: none; stroke: #000000; stroke-width: 2; stroke-linecap: round"/>
   </g>
   <g id="line2d_5">
    <path d="M 39.075 74.248 
L 45.047687 79.367446 
" clip-path="url(#pcaf1a0d0c8)" style="fill: none; stroke: #000000; stroke-width: 2; stroke-linecap: round"/>
   </g>
   <g id="patch_4">
    <path d="M 47.039109 77.044121 
L 50.856 84.346 
L 43.056265 81.690771 
z
" clip-path="url(#pcaf1a0d0c8)"/>
   </g>
   <g id="line2d_6">
    <path d="M 27.855 68.638 
L 27.855 91.588 
L 27.855 114.538 
" clip-path="url(#pcaf1a0d0c8)" style="fill: none; stroke: #000000; stroke-width: 2; stroke-linecap: round"/>
   </g>
   <g id="line2d_7">
    <path d="M 27.855 114.538 
L 27.855 135.958 
L 27.855 157.378 
" clip-path="url(#pcaf1a0d0c8)" style="fill: none; stroke: #000000; stroke-width: 2; stroke-linecap: round"/>
   </g>
   <g id="line2d_8">
    <path d="M 27.855 157.378 
L 39.075 157.378 
" clip-path="url(#pcaf1a0d0c8)" style="fill: none; stroke: #000000; stroke-width: 2; stroke-linecap: round"/>
   </g>
   <g id="line2d_9">
    <path d="M 39.075 146.158 
L 39.075 168.598 
" clip-path="url(#pcaf1a0d0c8)" style="fill: none; stroke: #000000; stroke-width: 2; stroke-linecap: round"/>
   </g>
   <g id="line2d_10">
    <path d="M 39.075 151.768 
L 50.856 141.67 
L 50.856 136.06 
" clip-path="url(#pcaf1a0d0c8)" style="fill: none; stroke: #000000; stroke-width: 2; stroke-linecap: round"/>
   </g>
   <g id="line2d_11">
    <path d="M 39.075 162.988 
L 50.856 173.086 
L 50.856 178.696 
" clip-path="url(#pcaf1a0d0c8)" style="fill: none; stroke: #000000; stroke-width: 2; stroke-linecap: round"/>
   </g>
   <g id="line2d_12">
    <path d="M 50.856 141.67 
L 44.883313 146.789446 
" clip-path="url(#pcaf1a0d0c8)" style="fill: none; stroke: #000000; stroke-width: 2; stroke-linecap: round"/>
   </g>
   <g id="patch_5">
    <path d="M 46.874735 149.112771 
L 39.075 151.768 
L 42.891891 144.466121 
z
" clip-path="url(#pcaf1a0d0c8)"/>
   </g>
   <g id="line2d_13">
    <path d="M 50.856 47.32 
L 50.856 35.08 
" clip-path="url(#pcaf1a0d0c8)" style="fill: none; stroke: #000000; stroke-width: 2; stroke-linecap: round"/>
   </g>
   <g id="line2d_14">
    <path d="M 50.856 35.08 
L 45.1185 35.08 
" clip-path="url(#pcaf1a0d0c8)" style="fill: none; stroke: #000000; stroke-width: 2; stroke-linecap: round"/>
   </g>
   <g id="line2d_15">
    <path d="M 50.856 35.08 
L 56.5935 35.08 
" clip-path="url(#pcaf1a0d0c8)" style="fill: none; stroke: #000000; stroke-width: 2; stroke-linecap: round"/>
   </g>
   <g id="line2d_16">
    <path d="M 27.855 114.538 
L 20.205 114.538 
L 12.555 114.538 
" clip-path="url(#pcaf1a0d0c8)" style="fill: none; stroke: #000000; stroke-width: 2; stroke-linecap: round"/>
   </g>
   <g id="line2d_17">
    <path d="M 50.856 89.956 
L 50.856 102.196 
L 50.856 114.436 
" clip-path="url(#pcaf1a0d0c8)" style="fill: none; stroke: #000000; stroke-width: 2; stroke-linecap: round"/>
   </g>
   <g id="line2d_18">
    <path d="M 50.856 114.436 
L 94.002 114.436 
M 94.002 106.786 
L 94.002 122.086 
M 99.51 106.786 
L 99.51 122.086 
M 99.51 114.436 
L 142.656 114.436 
" clip-path="url(#pcaf1a0d0c8)" style="fill: none; stroke: #000000; stroke-width: 2; stroke-linecap: round"/>
   </g>
   <g id="line2d_19">
    <path d="M 142.656 114.436 
L 142.656 122.086 
L 150.306 124.636 
L 135.006 129.736 
L 150.306 134.836 
L 135.006 139.936 
L 150.306 145.036 
L 135.006 150.136 
L 142.656 152.686 
L 142.656 160.336 
" clip-path="url(#pcaf1a0d0c8)" style="fill: none; stroke: #000000; stroke-width: 2; stroke-linecap: round"/>
   </g>
   <g id="line2d_20">
    <path d="M 142.656 160.336 
L 142.656 172.576 
L 135.006 172.576 
L 150.306 172.576 
M 137.301 176.248 
L 148.011 176.248 
M 141.126 179.92 
L 144.186 179.92 
" clip-path="url(#pcaf1a0d0c8)" style="fill: none; stroke: #000000; stroke-width: 2; stroke-linecap: round"/>
   </g>
   <g id="line2d_21">
    <path d="M 50.856 114.436 
L 50.856 125.248 
L 50.856 136.06 
" clip-path="url(#pcaf1a0d0c8)" style="fill: none; stroke: #000000; stroke-width: 2; stroke-linecap: round"/>
   </g>
   <g id="line2d_22">
    <path d="M 142.656 114.436 
L 150.306 114.436 
L 157.956 114.436 
" clip-path="url(#pcaf1a0d0c8)" style="fill: none; stroke: #000000; stroke-width: 2; stroke-linecap: round"/>
   </g>
   <g id="line2d_23">
    <path d="M 50.856 178.696 
L 50.856 190.936 
L 43.206 190.936 
L 58.506 190.936 
M 45.501 194.608 
L 56.211 194.608 
M 49.326 198.28 
L 52.386 198.28 
" clip-path="url(#pcaf1a0d0c8)" style="fill: none; stroke: #000000; stroke-width: 2; stroke-linecap: round"/>
   </g>
   <g id="text_1">
    <g clip-path="url(#pcaf1a0d0c8)">
     <!-- $V_{DD}$ -->
     <g transform="translate(39.6685 29.420391)scale(0.125 -0.125)">
      <defs>
       <path id="DejaVuSans-Oblique-56" d="M 1319 0 
L 500 4666 
L 1119 4666 
L 1797 653 
L 4063 4666 
L 4750 4666 
L 2053 0 
L 1319 0 
z
" transform="scale(0.015625)"/>
       <path id="DejaVuSans-Oblique-44" d="M 1081 4666 
L 2438 4666 
Q 3519 4666 4070 4208 
Q 4622 3750 4622 2847 
Q 4622 2250 4412 1698 
Q 4203 1147 3834 769 
Q 3463 381 2891 190 
Q 2319 0 1538 0 
L 172 0 
L 1081 4666 
z
M 1613 4147 
L 909 519 
L 1734 519 
Q 2794 519 3375 1128 
Q 3956 1738 3956 2847 
Q 3956 3519 3581 3833 
Q 3206 4147 2406 4147 
L 1613 4147 
z
" transform="scale(0.015625)"/>
      </defs>
      <use xlink:href="#DejaVuSans-Oblique-56" transform="translate(0 0.09375)"/>
      <use xlink:href="#DejaVuSans-Oblique-44" transform="translate(68.408203 -16.3125)scale(0.7)"/>
      <use xlink:href="#DejaVuSans-Oblique-44" transform="translate(122.30957 -16.3125)scale(0.7)"/>
     </g>
    </g>
   </g>
   <g id="text_2">
    <g clip-path="url(#pcaf1a0d0c8)">
     <!-- $C_{out}$ -->
     <g transform="translate(85.006 101.126391)scale(0.125 -0.125)">
      <defs>
       <path id="DejaVuSans-Oblique-43" d="M 4447 4306 
L 4319 3641 
Q 4019 3944 3683 4091 
Q 3347 4238 2956 4238 
Q 2422 4238 2017 3981 
Q 1613 3725 1319 3200 
Q 1131 2863 1032 2486 
Q 934 2109 934 1728 
Q 934 1091 1264 756 
Q 1594 422 2222 422 
Q 2656 422 3056 561 
Q 3456 700 3834 978 
L 3688 231 
Q 3316 72 2936 -9 
Q 2556 -91 2175 -91 
Q 1278 -91 773 396 
Q 269 884 269 1753 
Q 269 2309 461 2846 
Q 653 3384 1013 3828 
Q 1394 4300 1883 4525 
Q 2372 4750 3022 4750 
Q 3422 4750 3780 4639 
Q 4138 4528 4447 4306 
z
" transform="scale(0.015625)"/>
       <path id="DejaVuSans-Oblique-6f" d="M 1625 -91 
Q 1009 -91 651 289 
Q 294 669 294 1325 
Q 294 1706 417 2101 
Q 541 2497 738 2766 
Q 1047 3184 1428 3384 
Q 1809 3584 2291 3584 
Q 2888 3584 3255 3212 
Q 3622 2841 3622 2241 
Q 3622 1825 3500 1412 
Q 3378 1000 3181 728 
Q 2875 309 2494 109 
Q 2113 -91 1625 -91 
z
M 891 1344 
Q 891 869 1089 633 
Q 1288 397 1691 397 
Q 2269 397 2648 901 
Q 3028 1406 3028 2181 
Q 3028 2634 2825 2865 
Q 2622 3097 2228 3097 
Q 1903 3097 1650 2945 
Q 1397 2794 1197 2484 
Q 1050 2253 970 1956 
Q 891 1659 891 1344 
z
" transform="scale(0.015625)"/>
       <path id="DejaVuSans-Oblique-75" d="M 428 1388 
L 838 3500 
L 1416 3500 
L 1006 1409 
Q 975 1256 961 1147 
Q 947 1038 947 966 
Q 947 700 1109 554 
Q 1272 409 1569 409 
Q 2031 409 2368 721 
Q 2706 1034 2809 1563 
L 3194 3500 
L 3769 3500 
L 3091 0 
L 2516 0 
L 2631 550 
Q 2388 244 2052 76 
Q 1716 -91 1338 -91 
Q 878 -91 622 161 
Q 366 413 366 863 
Q 366 956 381 1097 
Q 397 1238 428 1388 
z
" transform="scale(0.015625)"/>
       <path id="DejaVuSans-Oblique-74" d="M 2706 3500 
L 2619 3053 
L 1472 3053 
L 1100 1153 
Q 1081 1047 1072 975 
Q 1063 903 1063 863 
Q 1063 663 1183 572 
Q 1303 481 1569 481 
L 2150 481 
L 2053 0 
L 1503 0 
Q 991 0 739 200 
Q 488 400 488 806 
Q 488 878 497 964 
Q 506 1050 525 1153 
L 897 3053 
L 409 3053 
L 500 3500 
L 978 3500 
L 1172 4494 
L 1747 4494 
L 1556 3500 
L 2706 3500 
z
" transform="scale(0.015625)"/>
      </defs>
      <use xlink:href="#DejaVuSans-Oblique-43" transform="translate(0 0.78125)"/>
      <use xlink:href="#DejaVuSans-Oblique-6f" transform="translate(69.824219 -15.625)scale(0.7)"/>
      <use xlink:href="#DejaVuSans-Oblique-75" transform="translate(112.651367 -15.625)scale(0.7)"/>
      <use xlink:href="#DejaVuSans-Oblique-74" transform="translate(157.016602 -15.625)scale(0.7)"/>
     </g>
    </g>
   </g>
   <g id="text_3">
    <g clip-path="url(#pcaf1a0d0c8)">
     <!-- $R_L$ -->
     <g transform="translate(117.946 140.835219)scale(0.125 -0.125)">
      <defs>
       <path id="DejaVuSans-Oblique-52" d="M 1613 4147 
L 1294 2491 
L 2106 2491 
Q 2584 2491 2879 2755 
Q 3175 3019 3175 3444 
Q 3175 3784 2976 3965 
Q 2778 4147 2406 4147 
L 1613 4147 
z
M 2772 2241 
Q 2972 2194 3105 2009 
Q 3238 1825 3413 1275 
L 3809 0 
L 3144 0 
L 2778 1197 
Q 2638 1659 2453 1815 
Q 2269 1972 1888 1972 
L 1191 1972 
L 806 0 
L 172 0 
L 1081 4666 
L 2503 4666 
Q 3150 4666 3495 4373 
Q 3841 4081 3841 3531 
Q 3841 3044 3547 2687 
Q 3253 2331 2772 2241 
z
" transform="scale(0.015625)"/>
       <path id="DejaVuSans-Oblique-4c" d="M 1075 4666 
L 1709 4666 
L 909 525 
L 3181 525 
L 3078 0 
L 172 0 
L 1075 4666 
z
" transform="scale(0.015625)"/>
      </defs>
      <use xlink:href="#DejaVuSans-Oblique-52" transform="translate(0 0.09375)"/>
      <use xlink:href="#DejaVuSans-Oblique-4c" transform="translate(69.482422 -16.3125)scale(0.7)"/>
     </g>
    </g>
   </g>
   <g id="patch_6">
    <path d="M 27.855 116.833 
C 28.463641 116.833 29.047436 116.591184 29.47781 116.16081 
C 29.908184 115.730436 30.15 115.146641 30.15 114.538 
C 30.15 113.929359 29.908184 113.345564 29.47781 112.91519 
C 29.047436 112.484816 28.463641 112.243 27.855 112.243 
C 27.246359 112.243 26.662564 112.484816 26.23219 112.91519 
C 25.801816 113.345564 25.56 113.929359 25.56 114.538 
C 25.56 115.146641 25.801816 115.730436 26.23219 116.16081 
C 26.662564 116.591184 27.246359 116.833 27.855 116.833 
z
" clip-path="url(#pcaf1a0d0c8)" style="stroke: #000000; stroke-width: 2; stroke-linejoin: miter"/>
   </g>
   <g id="patch_7">
    <path d="M 12.555 116.833 
C 13.163641 116.833 13.747436 116.591184 14.17781 116.16081 
C 14.608184 115.730436 14.85 115.146641 14.85 114.538 
C 14.85 113.929359 14.608184 113.345564 14.17781 112.91519 
C 13.747436 112.484816 13.163641 112.243 12.555 112.243 
C 11.946359 112.243 11.362564 112.484816 10.93219 112.91519 
C 10.501816 113.345564 10.26 113.929359 10.26 114.538 
C 10.26 115.146641 10.501816 115.730436 10.93219 116.16081 
C 11.362564 116.591184 11.946359 116.833 12.555 116.833 
z
" clip-path="url(#pcaf1a0d0c8)" style="fill: #ffffff; stroke: #000000; stroke-width: 2; stroke-linejoin: miter"/>
   </g>
   <g id="patch_8">
    <path d="M 50.856 116.731 
C 51.464641 116.731 52.048436 116.489184 52.47881 116.05881 
C 52.909184 115.628436 53.151 115.044641 53.151 114.436 
C 53.151 113.827359 52.909184 113.243564 52.47881 112.81319 
C 52.048436 112.382816 51.464641 112.141 50.856 112.141 
C 50.247359 112.141 49.663564 112.382816 49.23319 112.81319 
C 48.802816 113.243564 48.561 113.827359 48.561 114.436 
C 48.561 115.044641 48.802816 115.628436 49.23319 116.05881 
C 49.663564 116.489184 50.247359 116.731 50.856 116.731 
z
" clip-path="url(#pcaf1a0d0c8)" style="stroke: #000000; stroke-width: 2; stroke-linejoin: miter"/>
   </g>
   <g id="patch_9">
    <path d="M 157.956 116.731 
C 158.564641 116.731 159.148436 116.489184 159.57881 116.05881 
C 160.009184 115.628436 160.251 115.044641 160.251 114.436 
C 160.251 113.827359 160.009184 113.243564 159.57881 112.81319 
C 159.148436 112.382816 158.564641 112.141 157.956 112.141 
C 157.347359 112.141 156.763564 112.382816 156.33319 112.81319 
C 155.902816 113.243564 155.661 113.827359 155.661 114.436 
C 155.661 115.044641 155.902816 115.628436 156.33319 116.05881 
C 156.763564 116.489184 157.347359 116.731 157.956 116.731 
z
" clip-path="url(#pcaf1a0d0c8)" style="fill: #ffffff; stroke: #000000; stroke-width: 2; stroke-linejoin: miter"/>
   </g>
   <g id="text_4">
    <g clip-path="url(#pcaf1a0d0c8)">
     <!-- $v_{out}$ -->
     <g transform="translate(146.8935 106.481391)scale(0.125 -0.125)">
      <defs>
       <path id="DejaVuSans-Oblique-76" d="M 459 3500 
L 1069 3500 
L 1581 525 
L 3256 3500 
L 3866 3500 
L 1875 0 
L 1100 0 
L 459 3500 
z
" transform="scale(0.015625)"/>
      </defs>
      <use xlink:href="#DejaVuSans-Oblique-76" transform="translate(0 0.3125)"/>
      <use xlink:href="#DejaVuSans-Oblique-6f" transform="translate(59.179688 -16.09375)scale(0.7)"/>
      <use xlink:href="#DejaVuSans-Oblique-75" transform="translate(102.006836 -16.09375)scale(0.7)"/>
      <use xlink:href="#DejaVuSans-Oblique-74" transform="translate(146.37207 -16.09375)scale(0.7)"/>
     </g>
    </g>
   </g>
  </g>
 </g>
 <defs>
  <clipPath id="pcaf1a0d0c8">
   <rect x="7.2" y="7.2" width="178.9794" height="194.14"/>
  </clipPath>
 </defs>
</svg>
