<?xml version="1.0" encoding="utf-8" standalone="no"?>
<!DOCTYPE svg PUBLIC "-//W3C//DTD SVG 1.1//EN"
  "http://www.w3.org/Graphics/SVG/1.1/DTD/svg11.dtd">
<svg xmlns:xlink="http://www.w3.org/1999/xlink" width="231.201pt" height="294.22pt" viewBox="0 0 231.201 294.22" xmlns="http://www.w3.org/2000/svg" version="1.1">
 <metadata>
  <rdf:RDF xmlns:dc="http://purl.org/dc/elements/1.1/" xmlns:cc="http://creativecommons.org/ns#" xmlns:rdf="http://www.w3.org/1999/02/22-rdf-syntax-ns#">
   <cc:Work>
    <dc:type rdf:resource="http://purl.org/dc/dcmitype/StillImage"/>
    <dc:date>2021-12-30T17:30:42.236031</dc:date>
    <dc:format>image/svg+xml</dc:format>
    <dc:creator>
     <cc:Agent>
      <dc:title>Matplotlib v3.5.1, https://matplotlib.org/</dc:title>
     </cc:Agent>
    </dc:creator>
   </cc:Work>
  </rdf:RDF>
 </metadata>
 <defs>
  <style type="text/css">*{stroke-linejoin: round; stroke-linecap: butt}</style>
 </defs>
 <g id="figure_1">
  <g id="patch_1">
   <path d="M 0 294.22 
L 231.201 294.22 
L 231.201 0 
L 0 0 
L 0 294.22 
z
" style="fill: none"/>
  </g>
  <g id="axes_1">
   <g id="patch_2">
    <path d="M 81.0276 120.76 
C 82.650102 120.76 84.207811 120.114776 85.355094 118.967494 
C 86.502376 117.820211 87.1476 116.262502 87.1476 114.64 
C 87.1476 113.017498 86.502376 111.459789 85.355094 110.312506 
C 84.207811 109.165224 82.650102 108.52 81.0276 108.52 
" clip-path="url(#p004883c1a0)" style="fill: none; stroke: #000000; stroke-width: 2; stroke-linejoin: miter"/>
   </g>
   <g id="patch_3">
    <path d="M 81.0276 133 
C 82.650102 133 84.207811 132.354776 85.355094 131.207494 
C 86.502376 130.060211 87.1476 128.502502 87.1476 126.88 
C 87.1476 125.257498 86.502376 123.699789 85.355094 122.552506 
C 84.207811 121.405224 82.650102 120.76 81.0276 120.76 
" clip-path="url(#p004883c1a0)" style="fill: none; stroke: #000000; stroke-width: 2; stroke-linejoin: miter"/>
   </g>
   <g id="patch_4">
    <path d="M 81.0276 145.24 
C 82.650102 145.24 84.207811 144.594776 85.355094 143.447494 
C 86.502376 142.300211 87.1476 140.742502 87.1476 139.12 
C 87.1476 137.497498 86.502376 135.939789 85.355094 134.792506 
C 84.207811 133.645224 82.650102 133 81.0276 133 
" clip-path="url(#p004883c1a0)" style="fill: none; stroke: #000000; stroke-width: 2; stroke-linejoin: miter"/>
   </g>
   <g id="patch_5">
    <path d="M 81.0276 157.48 
C 82.650102 157.48 84.207811 156.834776 85.355094 155.687494 
C 86.502376 154.540211 87.1476 152.982502 87.1476 151.36 
C 87.1476 149.737498 86.502376 148.179789 85.355094 147.032506 
C 84.207811 145.885224 82.650102 145.24 81.0276 145.24 
" clip-path="url(#p004883c1a0)" style="fill: none; stroke: #000000; stroke-width: 2; stroke-linejoin: miter"/>
   </g>
   <g id="patch_6">
    <path d="M 81.0276 169.72 
C 82.650102 169.72 84.207811 169.074776 85.355094 167.927494 
C 86.502376 166.780211 87.1476 165.222502 87.1476 163.6 
C 87.1476 161.977498 86.502376 160.419789 85.355094 159.272506 
C 84.207811 158.125224 82.650102 157.48 81.0276 157.48 
" clip-path="url(#p004883c1a0)" style="fill: none; stroke: #000000; stroke-width: 2; stroke-linejoin: miter"/>
   </g>
   <g id="patch_7">
    <path d="M 81.0276 181.96 
C 82.650102 181.96 84.207811 181.314776 85.355094 180.167494 
C 86.502376 179.020211 87.1476 177.462502 87.1476 175.84 
C 87.1476 174.217498 86.502376 172.659789 85.355094 171.512506 
C 84.207811 170.365224 82.650102 169.72 81.0276 169.72 
" clip-path="url(#p004883c1a0)" style="fill: none; stroke: #000000; stroke-width: 2; stroke-linejoin: miter"/>
   </g>
   <g id="patch_8">
    <path d="M 81.0276 194.2 
C 82.650102 194.2 84.207811 193.554776 85.355094 192.407494 
C 86.502376 191.260211 87.1476 189.702502 87.1476 188.08 
C 87.1476 186.457498 86.502376 184.899789 85.355094 183.752506 
C 84.207811 182.605224 82.650102 181.96 81.0276 181.96 
" clip-path="url(#p004883c1a0)" style="fill: none; stroke: #000000; stroke-width: 2; stroke-linejoin: miter"/>
   </g>
   <g id="patch_9">
    <path d="M 81.0276 206.44 
C 82.650102 206.44 84.207811 205.794776 85.355094 204.647494 
C 86.502376 203.500211 87.1476 201.942502 87.1476 200.32 
C 87.1476 198.697498 86.502376 197.139789 85.355094 195.992506 
C 84.207811 194.845224 82.650102 194.2 81.0276 194.2 
" clip-path="url(#p004883c1a0)" style="fill: none; stroke: #000000; stroke-width: 2; stroke-linejoin: miter"/>
   </g>
   <g id="patch_10">
    <path d="M 111.6276 120.76 
C 110.005098 120.76 108.447389 121.405224 107.300106 122.552506 
C 106.152824 123.699789 105.5076 125.257498 105.5076 126.88 
C 105.5076 128.502502 106.152824 130.060211 107.300106 131.207494 
C 108.447389 132.354776 110.005098 133 111.6276 133 
" clip-path="url(#p004883c1a0)" style="fill: none; stroke: #000000; stroke-width: 2; stroke-linejoin: miter"/>
   </g>
   <g id="patch_11">
    <path d="M 111.6276 133 
C 110.005098 133 108.447389 133.645224 107.300106 134.792506 
C 106.152824 135.939789 105.5076 137.497498 105.5076 139.12 
C 105.5076 140.742502 106.152824 142.300211 107.300106 143.447494 
C 108.447389 144.594776 110.005098 145.24 111.6276 145.24 
" clip-path="url(#p004883c1a0)" style="fill: none; stroke: #000000; stroke-width: 2; stroke-linejoin: miter"/>
   </g>
   <g id="patch_12">
    <path d="M 111.6276 145.24 
C 110.005098 145.24 108.447389 145.885224 107.300106 147.032506 
C 106.152824 148.179789 105.5076 149.737498 105.5076 151.36 
C 105.5076 152.982502 106.152824 154.540211 107.300106 155.687494 
C 108.447389 156.834776 110.005098 157.48 111.6276 157.48 
" clip-path="url(#p004883c1a0)" style="fill: none; stroke: #000000; stroke-width: 2; stroke-linejoin: miter"/>
   </g>
   <g id="patch_13">
    <path d="M 111.6276 157.48 
C 110.005098 157.48 108.447389 158.125224 107.300106 159.272506 
C 106.152824 160.419789 105.5076 161.977498 105.5076 163.6 
C 105.5076 165.222502 106.152824 166.780211 107.300106 167.927494 
C 108.447389 169.074776 110.005098 169.72 111.6276 169.72 
" clip-path="url(#p004883c1a0)" style="fill: none; stroke: #000000; stroke-width: 2; stroke-linejoin: miter"/>
   </g>
   <g id="patch_14">
    <path d="M 111.6276 169.72 
C 110.005098 169.72 108.447389 170.365224 107.300106 171.512506 
C 106.152824 172.659789 105.5076 174.217498 105.5076 175.84 
C 105.5076 177.462502 106.152824 179.020211 107.300106 180.167494 
C 108.447389 181.314776 110.005098 181.96 111.6276 181.96 
" clip-path="url(#p004883c1a0)" style="fill: none; stroke: #000000; stroke-width: 2; stroke-linejoin: miter"/>
   </g>
   <g id="patch_15">
    <path d="M 111.6276 181.96 
C 110.005098 181.96 108.447389 182.605224 107.300106 183.752506 
C 106.152824 184.899789 105.5076 186.457498 105.5076 188.08 
C 105.5076 189.702502 106.152824 191.260211 107.300106 192.407494 
C 108.447389 193.554776 110.005098 194.2 111.6276 194.2 
" clip-path="url(#p004883c1a0)" style="fill: none; stroke: #000000; stroke-width: 2; stroke-linejoin: miter"/>
   </g>
   <g id="line2d_1">
    <path d="M 35.0766 243.058 
L 46.2966 243.058 
" clip-path="url(#p004883c1a0)" style="fill: none; stroke: #000000; stroke-width: 2; stroke-linecap: round"/>
   </g>
   <g id="line2d_2">
    <path d="M 46.2966 231.838 
L 46.2966 254.278 
" clip-path="url(#p004883c1a0)" style="fill: none; stroke: #000000; stroke-width: 2; stroke-linecap: round"/>
   </g>
   <g id="line2d_3">
    <path d="M 46.2966 237.448 
L 58.0776 227.35 
L 58.0776 221.74 
" clip-path="url(#p004883c1a0)" style="fill: none; stroke: #000000; stroke-width: 2; stroke-linecap: round"/>
   </g>
   <g id="line2d_4">
    <path d="M 46.2966 248.668 
L 58.0776 258.766 
L 58.0776 264.376 
" clip-path="url(#p004883c1a0)" style="fill: none; stroke: #000000; stroke-width: 2; stroke-linecap: round"/>
   </g>
   <g id="line2d_5">
    <path d="M 46.2966 248.668 
L 52.269287 253.787446 
" clip-path="url(#p004883c1a0)" style="fill: none; stroke: #000000; stroke-width: 2; stroke-linecap: round"/>
   </g>
   <g id="patch_16">
    <path d="M 54.260709 251.464121 
L 58.0776 258.766 
L 50.277865 256.110771 
z
" clip-path="url(#p004883c1a0)"/>
   </g>
   <g id="line2d_6">
    <path d="M 58.0776 264.376 
L 58.0776 276.616 
L 50.4276 276.616 
L 65.7276 276.616 
M 52.7226 280.288 
L 63.4326 280.288 
M 56.5476 283.96 
L 59.6076 283.96 
" clip-path="url(#p004883c1a0)" style="fill: none; stroke: #000000; stroke-width: 2; stroke-linecap: round"/>
   </g>
   <g id="line2d_7">
    <path d="M 58.0776 221.74 
L 58.0776 214.09 
L 58.0776 206.44 
" clip-path="url(#p004883c1a0)" style="fill: none; stroke: #000000; stroke-width: 2; stroke-linecap: round"/>
   </g>
   <g id="line2d_8">
    <path d="M 58.0776 206.44 
L 69.5526 206.44 
L 81.0276 206.44 
" clip-path="url(#p004883c1a0)" style="fill: none; stroke: #000000; stroke-width: 2; stroke-linecap: round"/>
   </g>
   <g id="line2d_9">
    <path d="M 93.2676 108.52 
L 93.2676 206.44 
" clip-path="url(#p004883c1a0)" style="fill: none; stroke: #000000; stroke-width: 2; stroke-linecap: round"/>
   </g>
   <g id="line2d_10">
    <path d="M 99.3876 108.52 
L 99.3876 206.44 
" clip-path="url(#p004883c1a0)" style="fill: none; stroke: #000000; stroke-width: 2; stroke-linecap: round"/>
   </g>
   <g id="line2d_11">
    <path d="M 81.0276 108.52 
L 69.5526 108.52 
L 58.0776 108.52 
" clip-path="url(#p004883c1a0)" style="fill: none; stroke: #000000; stroke-width: 2; stroke-linecap: round"/>
   </g>
   <g id="line2d_12">
    <path d="M 58.0776 108.52 
L 58.0776 100.87 
L 58.0776 93.22 
" clip-path="url(#p004883c1a0)" style="fill: none; stroke: #000000; stroke-width: 2; stroke-linecap: round"/>
   </g>
   <g id="line2d_13">
    <path d="M 58.0776 93.22 
L 50.4276 90.67 
L 65.7276 85.57 
L 50.4276 80.47 
L 65.7276 75.37 
L 50.4276 70.27 
L 65.7276 65.17 
L 58.0776 62.62 
" clip-path="url(#p004883c1a0)" style="fill: none; stroke: #000000; stroke-width: 2; stroke-linecap: round"/>
   </g>
   <g id="line2d_14">
    <path d="M 58.0776 62.62 
L 58.0776 54.97 
L 58.0776 47.32 
" clip-path="url(#p004883c1a0)" style="fill: none; stroke: #000000; stroke-width: 2; stroke-linecap: round"/>
   </g>
   <g id="line2d_15">
    <path d="M 58.0776 47.32 
L 58.0776 35.08 
" clip-path="url(#p004883c1a0)" style="fill: none; stroke: #000000; stroke-width: 2; stroke-linecap: round"/>
   </g>
   <g id="line2d_16">
    <path d="M 58.0776 35.08 
L 52.3401 35.08 
" clip-path="url(#p004883c1a0)" style="fill: none; stroke: #000000; stroke-width: 2; stroke-linecap: round"/>
   </g>
   <g id="line2d_17">
    <path d="M 58.0776 35.08 
L 63.8151 35.08 
" clip-path="url(#p004883c1a0)" style="fill: none; stroke: #000000; stroke-width: 2; stroke-linecap: round"/>
   </g>
   <g id="line2d_18">
    <path d="M 111.6276 120.76 
L 138.4026 120.76 
L 165.1776 120.76 
" clip-path="url(#p004883c1a0)" style="fill: none; stroke: #000000; stroke-width: 2; stroke-linecap: round"/>
   </g>
   <g id="line2d_19">
    <path d="M 111.6276 194.2 
L 138.4026 194.2 
L 165.1776 194.2 
" clip-path="url(#p004883c1a0)" style="fill: none; stroke: #000000; stroke-width: 2; stroke-linecap: round"/>
   </g>
   <g id="line2d_20">
    <path d="M 165.1776 194.2 
L 165.1776 206.44 
L 157.5276 206.44 
L 172.8276 206.44 
M 159.8226 210.112 
L 170.5326 210.112 
M 163.6476 213.784 
L 166.7076 213.784 
" clip-path="url(#p004883c1a0)" style="fill: none; stroke: #000000; stroke-width: 2; stroke-linecap: round"/>
   </g>
   <g id="line2d_21">
    <path d="M 165.1776 194.2 
L 165.1776 172.78 
L 157.5276 170.23 
L 172.8276 165.13 
L 157.5276 160.03 
L 172.8276 154.93 
L 157.5276 149.83 
L 172.8276 144.73 
L 165.1776 142.18 
L 165.1776 120.76 
" clip-path="url(#p004883c1a0)" style="fill: none; stroke: #000000; stroke-width: 2; stroke-linecap: round"/>
   </g>
   <g id="text_1">
    <g clip-path="url(#p004883c1a0)">
     <!-- $I_{in}$ -->
     <g transform="translate(19.8916 246.762219)scale(0.125 -0.125)">
      <defs>
       <path id="DejaVuSans-Oblique-49" d="M 1081 4666 
L 1716 4666 
L 806 0 
L 172 0 
L 1081 4666 
z
" transform="scale(0.015625)"/>
       <path id="DejaVuSans-Oblique-69" d="M 1172 4863 
L 1747 4863 
L 1606 4134 
L 1031 4134 
L 1172 4863 
z
M 909 3500 
L 1484 3500 
L 800 0 
L 225 0 
L 909 3500 
z
" transform="scale(0.015625)"/>
       <path id="DejaVuSans-Oblique-6e" d="M 3566 2113 
L 3156 0 
L 2578 0 
L 2988 2091 
Q 3016 2238 3031 2350 
Q 3047 2463 3047 2528 
Q 3047 2791 2881 2937 
Q 2716 3084 2419 3084 
Q 1956 3084 1622 2776 
Q 1288 2469 1184 1941 
L 800 0 
L 225 0 
L 903 3500 
L 1478 3500 
L 1363 2950 
Q 1603 3253 1940 3418 
Q 2278 3584 2650 3584 
Q 3113 3584 3367 3334 
Q 3622 3084 3622 2631 
Q 3622 2519 3608 2391 
Q 3594 2263 3566 2113 
z
" transform="scale(0.015625)"/>
      </defs>
      <use xlink:href="#DejaVuSans-Oblique-49" transform="translate(0 0.09375)"/>
      <use xlink:href="#DejaVuSans-Oblique-69" transform="translate(29.492188 -16.3125)scale(0.7)"/>
      <use xlink:href="#DejaVuSans-Oblique-6e" transform="translate(48.94043 -16.3125)scale(0.7)"/>
     </g>
    </g>
   </g>
   <g id="text_2">
    <g clip-path="url(#p004883c1a0)">
     <!-- $R_p$ -->
     <g transform="translate(32.7426 80.545)scale(0.125 -0.125)">
      <defs>
       <path id="DejaVuSans-Oblique-52" d="M 1613 4147 
L 1294 2491 
L 2106 2491 
Q 2584 2491 2879 2755 
Q 3175 3019 3175 3444 
Q 3175 3784 2976 3965 
Q 2778 4147 2406 4147 
L 1613 4147 
z
M 2772 2241 
Q 2972 2194 3105 2009 
Q 3238 1825 3413 1275 
L 3809 0 
L 3144 0 
L 2778 1197 
Q 2638 1659 2453 1815 
Q 2269 1972 1888 1972 
L 1191 1972 
L 806 0 
L 172 0 
L 1081 4666 
L 2503 4666 
Q 3150 4666 3495 4373 
Q 3841 4081 3841 3531 
Q 3841 3044 3547 2687 
Q 3253 2331 2772 2241 
z
" transform="scale(0.015625)"/>
       <path id="DejaVuSans-Oblique-70" d="M 3175 2156 
Q 3175 2616 2975 2859 
Q 2775 3103 2400 3103 
Q 2144 3103 1911 2972 
Q 1678 2841 1497 2591 
Q 1319 2344 1212 1994 
Q 1106 1644 1106 1300 
Q 1106 863 1306 627 
Q 1506 391 1875 391 
Q 2147 391 2380 519 
Q 2613 647 2778 891 
Q 2956 1147 3065 1494 
Q 3175 1841 3175 2156 
z
M 1394 2969 
Q 1625 3272 1939 3428 
Q 2253 3584 2638 3584 
Q 3175 3584 3472 3232 
Q 3769 2881 3769 2247 
Q 3769 1728 3584 1258 
Q 3400 788 3053 416 
Q 2822 169 2531 39 
Q 2241 -91 1919 -91 
Q 1547 -91 1294 64 
Q 1041 219 916 525 
L 556 -1331 
L -19 -1331 
L 922 3500 
L 1497 3500 
L 1394 2969 
z
" transform="scale(0.015625)"/>
      </defs>
      <use xlink:href="#DejaVuSans-Oblique-52" transform="translate(0 0.09375)"/>
      <use xlink:href="#DejaVuSans-Oblique-70" transform="translate(69.482422 -16.3125)scale(0.7)"/>
     </g>
    </g>
   </g>
   <g id="text_3">
    <g clip-path="url(#p004883c1a0)">
     <!-- $V_{dd}$ -->
     <g transform="translate(48.0151 29.420391)scale(0.125 -0.125)">
      <defs>
       <path id="DejaVuSans-Oblique-56" d="M 1319 0 
L 500 4666 
L 1119 4666 
L 1797 653 
L 4063 4666 
L 4750 4666 
L 2053 0 
L 1319 0 
z
" transform="scale(0.015625)"/>
       <path id="DejaVuSans-Oblique-64" d="M 2675 525 
Q 2444 222 2128 65 
Q 1813 -91 1428 -91 
Q 903 -91 598 267 
Q 294 625 294 1247 
Q 294 1766 478 2236 
Q 663 2706 1013 3078 
Q 1244 3325 1534 3454 
Q 1825 3584 2144 3584 
Q 2481 3584 2739 3421 
Q 2997 3259 3138 2956 
L 3513 4863 
L 4091 4863 
L 3144 0 
L 2566 0 
L 2675 525 
z
M 891 1350 
Q 891 897 1095 644 
Q 1300 391 1663 391 
Q 1931 391 2161 520 
Q 2391 650 2566 903 
Q 2750 1166 2856 1509 
Q 2963 1853 2963 2188 
Q 2963 2622 2758 2865 
Q 2553 3109 2194 3109 
Q 1922 3109 1687 2981 
Q 1453 2853 1288 2613 
Q 1106 2353 998 2009 
Q 891 1666 891 1350 
z
" transform="scale(0.015625)"/>
      </defs>
      <use xlink:href="#DejaVuSans-Oblique-56" transform="translate(0 0.09375)"/>
      <use xlink:href="#DejaVuSans-Oblique-64" transform="translate(68.408203 -16.3125)scale(0.7)"/>
      <use xlink:href="#DejaVuSans-Oblique-64" transform="translate(112.841797 -16.3125)scale(0.7)"/>
     </g>
    </g>
   </g>
   <g id="text_4">
    <g clip-path="url(#p004883c1a0)">
     <!-- $R_L$ -->
     <g transform="translate(140.4676 160.929219)scale(0.125 -0.125)">
      <defs>
       <path id="DejaVuSans-Oblique-4c" d="M 1075 4666 
L 1709 4666 
L 909 525 
L 3181 525 
L 3078 0 
L 172 0 
L 1075 4666 
z
" transform="scale(0.015625)"/>
      </defs>
      <use xlink:href="#DejaVuSans-Oblique-52" transform="translate(0 0.09375)"/>
      <use xlink:href="#DejaVuSans-Oblique-4c" transform="translate(69.482422 -16.3125)scale(0.7)"/>
     </g>
    </g>
   </g>
   <g id="text_5">
    <g clip-path="url(#p004883c1a0)">
     <!-- - -->
     <g transform="translate(193.522717 179.289219)scale(0.125 -0.125)">
      <defs>
       <path id="DejaVuSans-2d" d="M 313 2009 
L 1997 2009 
L 1997 1497 
L 313 1497 
L 313 2009 
z
" transform="scale(0.015625)"/>
      </defs>
      <use xlink:href="#DejaVuSans-2d"/>
     </g>
    </g>
   </g>
   <g id="text_6">
    <g clip-path="url(#p004883c1a0)">
     <!-- $v_{out}$ -->
     <g transform="translate(184.7151 160.929219)scale(0.125 -0.125)">
      <defs>
       <path id="DejaVuSans-Oblique-76" d="M 459 3500 
L 1069 3500 
L 1581 525 
L 3256 3500 
L 3866 3500 
L 1875 0 
L 1100 0 
L 459 3500 
z
" transform="scale(0.015625)"/>
       <path id="DejaVuSans-Oblique-6f" d="M 1625 -91 
Q 1009 -91 651 289 
Q 294 669 294 1325 
Q 294 1706 417 2101 
Q 541 2497 738 2766 
Q 1047 3184 1428 3384 
Q 1809 3584 2291 3584 
Q 2888 3584 3255 3212 
Q 3622 2841 3622 2241 
Q 3622 1825 3500 1412 
Q 3378 1000 3181 728 
Q 2875 309 2494 109 
Q 2113 -91 1625 -91 
z
M 891 1344 
Q 891 869 1089 633 
Q 1288 397 1691 397 
Q 2269 397 2648 901 
Q 3028 1406 3028 2181 
Q 3028 2634 2825 2865 
Q 2622 3097 2228 3097 
Q 1903 3097 1650 2945 
Q 1397 2794 1197 2484 
Q 1050 2253 970 1956 
Q 891 1659 891 1344 
z
" transform="scale(0.015625)"/>
       <path id="DejaVuSans-Oblique-75" d="M 428 1388 
L 838 3500 
L 1416 3500 
L 1006 1409 
Q 975 1256 961 1147 
Q 947 1038 947 966 
Q 947 700 1109 554 
Q 1272 409 1569 409 
Q 2031 409 2368 721 
Q 2706 1034 2809 1563 
L 3194 3500 
L 3769 3500 
L 3091 0 
L 2516 0 
L 2631 550 
Q 2388 244 2052 76 
Q 1716 -91 1338 -91 
Q 878 -91 622 161 
Q 366 413 366 863 
Q 366 956 381 1097 
Q 397 1238 428 1388 
z
" transform="scale(0.015625)"/>
       <path id="DejaVuSans-Oblique-74" d="M 2706 3500 
L 2619 3053 
L 1472 3053 
L 1100 1153 
Q 1081 1047 1072 975 
Q 1063 903 1063 863 
Q 1063 663 1183 572 
Q 1303 481 1569 481 
L 2150 481 
L 2053 0 
L 1503 0 
Q 991 0 739 200 
Q 488 400 488 806 
Q 488 878 497 964 
Q 506 1050 525 1153 
L 897 3053 
L 409 3053 
L 500 3500 
L 978 3500 
L 1172 4494 
L 1747 4494 
L 1556 3500 
L 2706 3500 
z
" transform="scale(0.015625)"/>
      </defs>
      <use xlink:href="#DejaVuSans-Oblique-76" transform="translate(0 0.3125)"/>
      <use xlink:href="#DejaVuSans-Oblique-6f" transform="translate(59.179688 -16.09375)scale(0.7)"/>
      <use xlink:href="#DejaVuSans-Oblique-75" transform="translate(102.006836 -16.09375)scale(0.7)"/>
      <use xlink:href="#DejaVuSans-Oblique-74" transform="translate(146.37207 -16.09375)scale(0.7)"/>
     </g>
    </g>
   </g>
   <g id="text_7">
    <g clip-path="url(#p004883c1a0)">
     <!-- $+$ -->
     <g transform="translate(190.5276 142.569219)scale(0.125 -0.125)">
      <defs>
       <path id="DejaVuSans-2b" d="M 2944 4013 
L 2944 2272 
L 4684 2272 
L 4684 1741 
L 2944 1741 
L 2944 0 
L 2419 0 
L 2419 1741 
L 678 1741 
L 678 2272 
L 2419 2272 
L 2419 4013 
L 2944 4013 
z
" transform="scale(0.015625)"/>
      </defs>
      <use xlink:href="#DejaVuSans-2b" transform="translate(0 0.296875)"/>
     </g>
    </g>
   </g>
   <g id="patch_17">
    <path d="M 58.0776 266.671 
C 58.686241 266.671 59.270036 266.429184 59.70041 265.99881 
C 60.130784 265.568436 60.3726 264.984641 60.3726 264.376 
C 60.3726 263.767359 60.130784 263.183564 59.70041 262.75319 
C 59.270036 262.322816 58.686241 262.081 58.0776 262.081 
C 57.468959 262.081 56.885164 262.322816 56.45479 262.75319 
C 56.024416 263.183564 55.7826 263.767359 55.7826 264.376 
C 55.7826 264.984641 56.024416 265.568436 56.45479 265.99881 
C 56.885164 266.429184 57.468959 266.671 58.0776 266.671 
z
" clip-path="url(#p004883c1a0)" style="fill: #ff0000; stroke: #ff0000; stroke-width: 2; stroke-linejoin: miter"/>
   </g>
   <g id="text_8">
    <g clip-path="url(#p004883c1a0)">
     <!-- 0 -->
     <g style="fill: #ff0000" transform="translate(65.424475 261.776391)scale(0.125 -0.125)">
      <defs>
       <path id="DejaVuSans-30" d="M 2034 4250 
Q 1547 4250 1301 3770 
Q 1056 3291 1056 2328 
Q 1056 1369 1301 889 
Q 1547 409 2034 409 
Q 2525 409 2770 889 
Q 3016 1369 3016 2328 
Q 3016 3291 2770 3770 
Q 2525 4250 2034 4250 
z
M 2034 4750 
Q 2819 4750 3233 4129 
Q 3647 3509 3647 2328 
Q 3647 1150 3233 529 
Q 2819 -91 2034 -91 
Q 1250 -91 836 529 
Q 422 1150 422 2328 
Q 422 3509 836 4129 
Q 1250 4750 2034 4750 
z
" transform="scale(0.015625)"/>
      </defs>
      <use xlink:href="#DejaVuSans-30"/>
     </g>
    </g>
   </g>
   <g id="patch_18">
    <path d="M 35.0766 245.353 
C 35.685241 245.353 36.269036 245.111184 36.69941 244.68081 
C 37.129784 244.250436 37.3716 243.666641 37.3716 243.058 
C 37.3716 242.449359 37.129784 241.865564 36.69941 241.43519 
C 36.269036 241.004816 35.685241 240.763 35.0766 240.763 
C 34.467959 240.763 33.884164 241.004816 33.45379 241.43519 
C 33.023416 241.865564 32.7816 242.449359 32.7816 243.058 
C 32.7816 243.666641 33.023416 244.250436 33.45379 244.68081 
C 33.884164 245.111184 34.467959 245.353 35.0766 245.353 
z
" clip-path="url(#p004883c1a0)" style="fill: #ffffff; stroke: #ff0000; stroke-width: 2; stroke-linejoin: miter"/>
   </g>
   <g id="text_9">
    <g clip-path="url(#p004883c1a0)">
     <!-- 5 -->
     <g style="fill: #ff0000" transform="translate(27.123475 231.278391)scale(0.125 -0.125)">
      <defs>
       <path id="DejaVuSans-35" d="M 691 4666 
L 3169 4666 
L 3169 4134 
L 1269 4134 
L 1269 2991 
Q 1406 3038 1543 3061 
Q 1681 3084 1819 3084 
Q 2600 3084 3056 2656 
Q 3513 2228 3513 1497 
Q 3513 744 3044 326 
Q 2575 -91 1722 -91 
Q 1428 -91 1123 -41 
Q 819 9 494 109 
L 494 744 
Q 775 591 1075 516 
Q 1375 441 1709 441 
Q 2250 441 2565 725 
Q 2881 1009 2881 1497 
Q 2881 1984 2565 2268 
Q 2250 2553 1709 2553 
Q 1456 2553 1204 2497 
Q 953 2441 691 2322 
L 691 4666 
z
" transform="scale(0.015625)"/>
      </defs>
      <use xlink:href="#DejaVuSans-35"/>
     </g>
    </g>
   </g>
   <g id="patch_19">
    <path d="M 58.0776 208.735 
C 58.686241 208.735 59.270036 208.493184 59.70041 208.06281 
C 60.130784 207.632436 60.3726 207.048641 60.3726 206.44 
C 60.3726 205.831359 60.130784 205.247564 59.70041 204.81719 
C 59.270036 204.386816 58.686241 204.145 58.0776 204.145 
C 57.468959 204.145 56.885164 204.386816 56.45479 204.81719 
C 56.024416 205.247564 55.7826 205.831359 55.7826 206.44 
C 55.7826 207.048641 56.024416 207.632436 56.45479 208.06281 
C 56.885164 208.493184 57.468959 208.735 58.0776 208.735 
z
" clip-path="url(#p004883c1a0)" style="fill: #ff0000; stroke: #ff0000; stroke-width: 2; stroke-linejoin: miter"/>
   </g>
   <g id="text_10">
    <g clip-path="url(#p004883c1a0)">
     <!-- 4 -->
     <g style="fill: #ff0000" transform="translate(50.124475 194.660391)scale(0.125 -0.125)">
      <defs>
       <path id="DejaVuSans-34" d="M 2419 4116 
L 825 1625 
L 2419 1625 
L 2419 4116 
z
M 2253 4666 
L 3047 4666 
L 3047 1625 
L 3713 1625 
L 3713 1100 
L 3047 1100 
L 3047 0 
L 2419 0 
L 2419 1100 
L 313 1100 
L 313 1709 
L 2253 4666 
z
" transform="scale(0.015625)"/>
      </defs>
      <use xlink:href="#DejaVuSans-34"/>
     </g>
    </g>
   </g>
   <g id="patch_20">
    <path d="M 58.0776 110.815 
C 58.686241 110.815 59.270036 110.573184 59.70041 110.14281 
C 60.130784 109.712436 60.3726 109.128641 60.3726 108.52 
C 60.3726 107.911359 60.130784 107.327564 59.70041 106.89719 
C 59.270036 106.466816 58.686241 106.225 58.0776 106.225 
C 57.468959 106.225 56.885164 106.466816 56.45479 106.89719 
C 56.024416 107.327564 55.7826 107.911359 55.7826 108.52 
C 55.7826 109.128641 56.024416 109.712436 56.45479 110.14281 
C 56.885164 110.573184 57.468959 110.815 58.0776 110.815 
z
" clip-path="url(#p004883c1a0)" style="fill: #ff0000; stroke: #ff0000; stroke-width: 2; stroke-linejoin: miter"/>
   </g>
   <g id="text_11">
    <g clip-path="url(#p004883c1a0)">
     <!-- 3 -->
     <g style="fill: #ff0000" transform="translate(40.944475 115.100391)scale(0.125 -0.125)">
      <defs>
       <path id="DejaVuSans-33" d="M 2597 2516 
Q 3050 2419 3304 2112 
Q 3559 1806 3559 1356 
Q 3559 666 3084 287 
Q 2609 -91 1734 -91 
Q 1441 -91 1130 -33 
Q 819 25 488 141 
L 488 750 
Q 750 597 1062 519 
Q 1375 441 1716 441 
Q 2309 441 2620 675 
Q 2931 909 2931 1356 
Q 2931 1769 2642 2001 
Q 2353 2234 1838 2234 
L 1294 2234 
L 1294 2753 
L 1863 2753 
Q 2328 2753 2575 2939 
Q 2822 3125 2822 3475 
Q 2822 3834 2567 4026 
Q 2313 4219 1838 4219 
Q 1578 4219 1281 4162 
Q 984 4106 628 3988 
L 628 4550 
Q 988 4650 1302 4700 
Q 1616 4750 1894 4750 
Q 2613 4750 3031 4423 
Q 3450 4097 3450 3541 
Q 3450 3153 3228 2886 
Q 3006 2619 2597 2516 
z
" transform="scale(0.015625)"/>
      </defs>
      <use xlink:href="#DejaVuSans-33"/>
     </g>
    </g>
   </g>
   <g id="patch_21">
    <path d="M 58.0776 49.615 
C 58.686241 49.615 59.270036 49.373184 59.70041 48.94281 
C 60.130784 48.512436 60.3726 47.928641 60.3726 47.32 
C 60.3726 46.711359 60.130784 46.127564 59.70041 45.69719 
C 59.270036 45.266816 58.686241 45.025 58.0776 45.025 
C 57.468959 45.025 56.885164 45.266816 56.45479 45.69719 
C 56.024416 46.127564 55.7826 46.711359 55.7826 47.32 
C 55.7826 47.928641 56.024416 48.512436 56.45479 48.94281 
C 56.885164 49.373184 57.468959 49.615 58.0776 49.615 
z
" clip-path="url(#p004883c1a0)" style="fill: #ff0000; stroke: #ff0000; stroke-width: 2; stroke-linejoin: miter"/>
   </g>
   <g id="text_12">
    <g clip-path="url(#p004883c1a0)">
     <!-- 2 -->
     <g style="fill: #ff0000" transform="translate(40.944475 44.720391)scale(0.125 -0.125)">
      <defs>
       <path id="DejaVuSans-32" d="M 1228 531 
L 3431 531 
L 3431 0 
L 469 0 
L 469 531 
Q 828 903 1448 1529 
Q 2069 2156 2228 2338 
Q 2531 2678 2651 2914 
Q 2772 3150 2772 3378 
Q 2772 3750 2511 3984 
Q 2250 4219 1831 4219 
Q 1534 4219 1204 4116 
Q 875 4013 500 3803 
L 500 4441 
Q 881 4594 1212 4672 
Q 1544 4750 1819 4750 
Q 2544 4750 2975 4387 
Q 3406 4025 3406 3419 
Q 3406 3131 3298 2873 
Q 3191 2616 2906 2266 
Q 2828 2175 2409 1742 
Q 1991 1309 1228 531 
z
" transform="scale(0.015625)"/>
      </defs>
      <use xlink:href="#DejaVuSans-32"/>
     </g>
    </g>
   </g>
   <g id="patch_22">
    <path d="M 165.1776 196.495 
C 165.786241 196.495 166.370036 196.253184 166.80041 195.82281 
C 167.230784 195.392436 167.4726 194.808641 167.4726 194.2 
C 167.4726 193.591359 167.230784 193.007564 166.80041 192.57719 
C 166.370036 192.146816 165.786241 191.905 165.1776 191.905 
C 164.568959 191.905 163.985164 192.146816 163.55479 192.57719 
C 163.124416 193.007564 162.8826 193.591359 162.8826 194.2 
C 162.8826 194.808641 163.124416 195.392436 163.55479 195.82281 
C 163.985164 196.253184 164.568959 196.495 165.1776 196.495 
z
" clip-path="url(#p004883c1a0)" style="fill: #ff0000; stroke: #ff0000; stroke-width: 2; stroke-linejoin: miter"/>
   </g>
   <g id="text_13">
    <g clip-path="url(#p004883c1a0)">
     <!-- 0 -->
     <g style="fill: #ff0000" transform="translate(172.524475 191.600391)scale(0.125 -0.125)">
      <use xlink:href="#DejaVuSans-30"/>
     </g>
    </g>
   </g>
   <g id="patch_23">
    <path d="M 165.1776 123.055 
C 165.786241 123.055 166.370036 122.813184 166.80041 122.38281 
C 167.230784 121.952436 167.4726 121.368641 167.4726 120.76 
C 167.4726 120.151359 167.230784 119.567564 166.80041 119.13719 
C 166.370036 118.706816 165.786241 118.465 165.1776 118.465 
C 164.568959 118.465 163.985164 118.706816 163.55479 119.13719 
C 163.124416 119.567564 162.8826 120.151359 162.8826 120.76 
C 162.8826 121.368641 163.124416 121.952436 163.55479 122.38281 
C 163.985164 122.813184 164.568959 123.055 165.1776 123.055 
z
" clip-path="url(#p004883c1a0)" style="fill: #ff0000; stroke: #ff0000; stroke-width: 2; stroke-linejoin: miter"/>
   </g>
   <g id="text_14">
    <g clip-path="url(#p004883c1a0)">
     <!-- 1 -->
     <g style="fill: #ff0000" transform="translate(157.224475 108.980391)scale(0.125 -0.125)">
      <defs>
       <path id="DejaVuSans-31" d="M 794 531 
L 1825 531 
L 1825 4091 
L 703 3866 
L 703 4441 
L 1819 4666 
L 2450 4666 
L 2450 531 
L 3481 531 
L 3481 0 
L 794 0 
L 794 531 
z
" transform="scale(0.015625)"/>
      </defs>
      <use xlink:href="#DejaVuSans-31"/>
     </g>
    </g>
   </g>
  </g>
 </g>
 <defs>
  <clipPath id="p004883c1a0">
   <rect x="7.2" y="7.2" width="216.801" height="279.82"/>
  </clipPath>
 </defs>
</svg>
