<?xml version="1.0" encoding="utf-8" standalone="no"?>
<!DOCTYPE svg PUBLIC "-//W3C//DTD SVG 1.1//EN"
  "http://www.w3.org/Graphics/SVG/1.1/DTD/svg11.dtd">
<svg xmlns:xlink="http://www.w3.org/1999/xlink" width="305.90984pt" height="269.06pt" viewBox="0 0 305.90984 269.06" xmlns="http://www.w3.org/2000/svg" version="1.1">
 <metadata>
  <rdf:RDF xmlns:dc="http://purl.org/dc/elements/1.1/" xmlns:cc="http://creativecommons.org/ns#" xmlns:rdf="http://www.w3.org/1999/02/22-rdf-syntax-ns#">
   <cc:Work>
    <dc:type rdf:resource="http://purl.org/dc/dcmitype/StillImage"/>
    <dc:date>2022-03-27T20:37:00.762628</dc:date>
    <dc:format>image/svg+xml</dc:format>
    <dc:creator>
     <cc:Agent>
      <dc:title>Matplotlib v3.5.1, https://matplotlib.org/</dc:title>
     </cc:Agent>
    </dc:creator>
   </cc:Work>
  </rdf:RDF>
 </metadata>
 <defs>
  <style type="text/css">*{stroke-linejoin: round; stroke-linecap: butt}</style>
 </defs>
 <g id="figure_1">
  <g id="patch_1">
   <path d="M 0 269.06 
L 305.90984 269.06 
L 305.90984 0 
L 0 0 
L 0 269.06 
z
" style="fill: none"/>
  </g>
  <g id="axes_1">
   <g id="patch_2">
    <path d="M 178.63544 110.815 
L 170.98544 121.525 
L 163.33544 110.815 
L 178.63544 110.815 
z
" clip-path="url(#pd6023612e0)" style="fill: none; stroke: #000000; stroke-width: 2; stroke-linecap: round"/>
   </g>
   <g id="patch_3">
    <path d="M 178.63544 155.185 
L 170.98544 165.895 
L 163.33544 155.185 
L 178.63544 155.185 
z
" clip-path="url(#pd6023612e0)" style="fill: none; stroke: #000000; stroke-width: 2; stroke-linecap: round"/>
   </g>
   <g id="patch_4">
    <path d="M 200.10644 115.048 
L 200.25209 115.046844 
L 200.397703 115.043378 
L 200.543242 115.037602 
L 200.688672 115.029518 
L 200.833955 115.019127 
L 200.979055 115.006432 
L 201.123935 114.991437 
L 201.268559 114.974145 
L 201.41289 114.954561 
L 201.556893 114.932689 
L 201.700531 114.908535 
L 201.843767 114.882105 
L 201.986565 114.853406 
L 202.128891 114.822445 
L 202.270707 114.78923 
L 202.411979 114.753769 
L 202.55267 114.716071 
L 202.692745 114.676145 
L 202.832169 114.634003 
L 202.970907 114.589653 
L 203.108924 114.543108 
L 203.246185 114.494378 
L 203.382656 114.443477 
L 203.518302 114.390418 
L 203.653089 114.335212 
L 203.786983 114.277876 
L 203.91995 114.218422 
L 204.051958 114.156866 
L 204.182972 114.093223 
L 204.31296 114.027509 
L 204.441889 113.959742 
L 204.569726 113.889937 
L 204.69644 113.818113 
L 204.821999 113.744288 
L 204.94637 113.668479 
L 205.069523 113.590707 
L 205.191426 113.510991 
L 205.31205 113.429351 
L 205.431363 113.345807 
L 205.549335 113.260381 
L 205.665937 113.173094 
L 205.78114 113.083967 
L 205.894914 112.993025 
L 206.007231 112.900288 
L 206.118062 112.805781 
L 206.22738 112.709528 
L 206.335157 112.611552 
L 206.441366 112.511878 
L 206.54598 112.410532 
L 206.648973 112.307539 
L 206.750319 112.202925 
L 206.849992 112.096716 
L 206.947968 111.988939 
L 207.044221 111.879622 
L 207.138728 111.76879 
L 207.231465 111.656473 
L 207.322408 111.542699 
L 207.411534 111.427497 
L 207.498821 111.310895 
L 207.584247 111.192922 
L 207.667791 111.07361 
L 207.749432 110.952986 
L 207.829148 110.831083 
L 207.90692 110.70793 
L 207.982728 110.583558 
L 208.056553 110.458 
L 208.128378 110.331286 
L 208.198182 110.203448 
L 208.26595 110.074519 
L 208.331663 109.944532 
L 208.395306 109.813517 
L 208.456862 109.68151 
L 208.516316 109.548542 
L 208.573653 109.414648 
L 208.628858 109.279861 
L 208.681918 109.144216 
L 208.732819 109.007745 
L 208.781548 108.870484 
L 208.828093 108.732467 
L 208.872443 108.593729 
L 208.914586 108.454305 
L 208.954511 108.31423 
L 208.992209 108.173539 
L 209.02767 108.032267 
L 209.060886 107.890451 
L 209.091847 107.748125 
L 209.120546 107.605326 
L 209.146975 107.46209 
L 209.171129 107.318453 
L 209.193001 107.17445 
L 209.212585 107.030119 
L 209.229877 106.885495 
L 209.244873 106.740614 
L 209.257567 106.595515 
L 209.267958 106.450232 
L 209.276042 106.304802 
L 209.281819 106.159262 
L 209.285285 106.01365 
L 209.28644 105.868 
L 209.28644 81.082 
L 209.285285 80.93635 
L 209.281819 80.790738 
L 209.276042 80.645198 
L 209.267958 80.499768 
L 209.257567 80.354485 
L 209.244873 80.209386 
L 209.229877 80.064505 
L 209.212585 79.919881 
L 209.193001 79.77555 
L 209.171129 79.631547 
L 209.146975 79.48791 
L 209.120546 79.344674 
L 209.091847 79.201875 
L 209.060886 79.059549 
L 209.02767 78.917733 
L 208.992209 78.776461 
L 208.954511 78.63577 
L 208.914586 78.495695 
L 208.872443 78.356271 
L 208.828093 78.217533 
L 208.781548 78.079516 
L 208.732819 77.942255 
L 208.681918 77.805784 
L 208.628858 77.670139 
L 208.573653 77.535352 
L 208.516316 77.401458 
L 208.456862 77.26849 
L 208.395306 77.136483 
L 208.331663 77.005468 
L 208.26595 76.875481 
L 208.198182 76.746552 
L 208.128378 76.618714 
L 208.056553 76.492 
L 207.982728 76.366442 
L 207.90692 76.24207 
L 207.829148 76.118917 
L 207.749432 75.997014 
L 207.667791 75.87639 
L 207.584247 75.757078 
L 207.498821 75.639105 
L 207.411534 75.522503 
L 207.322408 75.407301 
L 207.231465 75.293527 
L 207.138728 75.18121 
L 207.044221 75.070378 
L 206.947968 74.961061 
L 206.849992 74.853284 
L 206.750319 74.747075 
L 206.648973 74.642461 
L 206.54598 74.539468 
L 206.441366 74.438122 
L 206.335157 74.338448 
L 206.22738 74.240472 
L 206.118062 74.144219 
L 206.007231 74.049712 
L 205.894914 73.956975 
L 205.78114 73.866033 
L 205.665937 73.776906 
L 205.549335 73.689619 
L 205.431363 73.604193 
L 205.31205 73.520649 
L 205.191426 73.439009 
L 205.069523 73.359293 
L 204.94637 73.281521 
L 204.821999 73.205712 
L 204.69644 73.131887 
L 204.569726 73.060063 
L 204.441889 72.990258 
L 204.31296 72.922491 
L 204.182972 72.856777 
L 204.051958 72.793134 
L 203.91995 72.731578 
L 203.786983 72.672124 
L 203.653089 72.614788 
L 203.518302 72.559582 
L 203.382656 72.506523 
L 203.246185 72.455622 
L 203.108924 72.406892 
L 202.970907 72.360347 
L 202.832169 72.315997 
L 202.692745 72.273855 
L 202.55267 72.233929 
L 202.411979 72.196231 
L 202.270707 72.16077 
L 202.128891 72.127555 
L 201.986565 72.096594 
L 201.843767 72.067895 
L 201.700531 72.041465 
L 201.556893 72.017311 
L 201.41289 71.995439 
L 201.268559 71.975855 
L 201.123935 71.958563 
L 200.979055 71.943568 
L 200.833955 71.930873 
L 200.688672 71.920482 
L 200.543242 71.912398 
L 200.397703 71.906622 
L 200.25209 71.903156 
L 200.10644 71.902 
L 195.46544 71.902 
L 195.319791 71.903156 
L 195.174178 71.906622 
L 195.028638 71.912398 
L 194.883209 71.920482 
L 194.737926 71.930873 
L 194.592826 71.943568 
L 194.447946 71.958563 
L 194.303322 71.975855 
L 194.15899 71.995439 
L 194.014987 72.017311 
L 193.87135 72.041465 
L 193.728114 72.067895 
L 193.585315 72.096594 
L 193.44299 72.127555 
L 193.301173 72.16077 
L 193.159902 72.196231 
L 193.019211 72.233929 
L 192.879135 72.273855 
L 192.739711 72.315997 
L 192.600973 72.360347 
L 192.462956 72.406892 
L 192.325695 72.455622 
L 192.189225 72.506523 
L 192.053579 72.559582 
L 191.918792 72.614788 
L 191.784898 72.672124 
L 191.65193 72.731578 
L 191.519923 72.793134 
L 191.388909 72.856777 
L 191.258921 72.922491 
L 191.129992 72.990258 
L 191.002154 73.060063 
L 190.87544 73.131887 
L 190.749882 73.205712 
L 190.62551 73.281521 
L 190.502358 73.359293 
L 190.380454 73.439009 
L 190.259831 73.520649 
L 190.140518 73.604193 
L 190.022545 73.689619 
L 189.905943 73.776906 
L 189.790741 73.866033 
L 189.676967 73.956975 
L 189.56465 74.049712 
L 189.453819 74.144219 
L 189.344501 74.240472 
L 189.236724 74.338448 
L 189.130515 74.438122 
L 189.025901 74.539468 
L 188.922908 74.642461 
L 188.821562 74.747075 
L 188.721888 74.853284 
L 188.623913 74.961061 
L 188.527659 75.070378 
L 188.433152 75.18121 
L 188.340416 75.293527 
L 188.249473 75.407301 
L 188.160347 75.522503 
L 188.073059 75.639105 
L 187.987633 75.757078 
L 187.904089 75.87639 
L 187.822449 75.997014 
L 187.742733 76.118917 
L 187.664961 76.24207 
L 187.589153 76.366442 
L 187.515327 76.492 
L 187.443503 76.618714 
L 187.373698 76.746552 
L 187.305931 76.875481 
L 187.240217 77.005468 
L 187.176575 77.136483 
L 187.115019 77.26849 
L 187.055565 77.401458 
L 186.998228 77.535352 
L 186.943023 77.670139 
L 186.889963 77.805784 
L 186.839062 77.942255 
L 186.790333 78.079516 
L 186.743787 78.217533 
L 186.699438 78.356271 
L 186.657295 78.495695 
L 186.617369 78.63577 
L 186.579671 78.776461 
L 186.54421 78.917733 
L 186.510995 79.059549 
L 186.480034 79.201875 
L 186.451335 79.344674 
L 186.424905 79.48791 
L 186.400751 79.631547 
L 186.378879 79.77555 
L 186.359295 79.919881 
L 186.342003 80.064505 
L 186.327008 80.209386 
L 186.314313 80.354485 
L 186.303923 80.499768 
L 186.295838 80.645198 
L 186.290062 80.790738 
L 186.286596 80.93635 
L 186.28544 81.082 
L 186.28544 105.868 
L 186.286596 106.01365 
L 186.290062 106.159262 
L 186.295838 106.304802 
L 186.303923 106.450232 
L 186.314313 106.595515 
L 186.327008 106.740614 
L 186.342003 106.885495 
L 186.359295 107.030119 
L 186.378879 107.17445 
L 186.400751 107.318453 
L 186.424905 107.46209 
L 186.451335 107.605326 
L 186.480034 107.748125 
L 186.510995 107.890451 
L 186.54421 108.032267 
L 186.579671 108.173539 
L 186.617369 108.31423 
L 186.657295 108.454305 
L 186.699438 108.593729 
L 186.743787 108.732467 
L 186.790333 108.870484 
L 186.839062 109.007745 
L 186.889963 109.144216 
L 186.943023 109.279861 
L 186.998228 109.414648 
L 187.055565 109.548542 
L 187.115019 109.68151 
L 187.176575 109.813517 
L 187.240217 109.944532 
L 187.305931 110.074519 
L 187.373698 110.203448 
L 187.443503 110.331286 
L 187.515327 110.458 
L 187.589153 110.583558 
L 187.664961 110.70793 
L 187.742733 110.831083 
L 187.822449 110.952986 
L 187.904089 111.07361 
L 187.987633 111.192922 
L 188.073059 111.310895 
L 188.160347 111.427497 
L 188.249473 111.542699 
L 188.340416 111.656473 
L 188.433152 111.76879 
L 188.527659 111.879622 
L 188.623913 111.988939 
L 188.721888 112.096716 
L 188.821562 112.202925 
L 188.922908 112.307539 
L 189.025901 112.410532 
L 189.130515 112.511878 
L 189.236724 112.611552 
L 189.344501 112.709528 
L 189.453819 112.805781 
L 189.56465 112.900288 
L 189.676967 112.993025 
L 189.790741 113.083967 
L 189.905943 113.173094 
L 190.022545 113.260381 
L 190.140518 113.345807 
L 190.259831 113.429351 
L 190.380454 113.510991 
L 190.502358 113.590707 
L 190.62551 113.668479 
L 190.749882 113.744288 
L 190.87544 113.818113 
L 191.002154 113.889937 
L 191.129992 113.959742 
L 191.258921 114.027509 
L 191.388909 114.093223 
L 191.519923 114.156866 
L 191.65193 114.218422 
L 191.784898 114.277876 
L 191.918792 114.335212 
L 192.053579 114.390418 
L 192.189225 114.443477 
L 192.325695 114.494378 
L 192.462956 114.543108 
L 192.600973 114.589653 
L 192.739711 114.634003 
L 192.879135 114.676145 
L 193.019211 114.716071 
L 193.159902 114.753769 
L 193.301173 114.78923 
L 193.44299 114.822445 
L 193.585315 114.853406 
L 193.728114 114.882105 
L 193.87135 114.908535 
L 194.014987 114.932689 
L 194.15899 114.954561 
L 194.303322 114.974145 
L 194.447946 114.991437 
L 194.592826 115.006432 
L 194.737926 115.019127 
L 194.883209 115.029518 
L 195.028638 115.037602 
L 195.174178 115.043378 
L 195.319791 115.046844 
L 195.46544 115.048 
L 200.10644 115.048 
z
" clip-path="url(#pd6023612e0)" style="fill: none; stroke-dasharray: 1.85,0.8; stroke-dashoffset: 0; stroke: #008000; stroke-width: 0.5; stroke-linecap: round"/>
   </g>
   <g id="patch_5">
    <path d="M 200.10644 203.278 
L 200.25209 203.276844 
L 200.397703 203.273378 
L 200.543242 203.267602 
L 200.688672 203.259518 
L 200.833955 203.249127 
L 200.979055 203.236432 
L 201.123935 203.221437 
L 201.268559 203.204145 
L 201.41289 203.184561 
L 201.556893 203.162689 
L 201.700531 203.138535 
L 201.843767 203.112105 
L 201.986565 203.083406 
L 202.128891 203.052445 
L 202.270707 203.01923 
L 202.411979 202.983769 
L 202.55267 202.946071 
L 202.692745 202.906145 
L 202.832169 202.864003 
L 202.970907 202.819653 
L 203.108924 202.773108 
L 203.246185 202.724378 
L 203.382656 202.673477 
L 203.518302 202.620418 
L 203.653089 202.565212 
L 203.786983 202.507876 
L 203.91995 202.448422 
L 204.051958 202.386866 
L 204.182972 202.323223 
L 204.31296 202.257509 
L 204.441889 202.189742 
L 204.569726 202.119937 
L 204.69644 202.048113 
L 204.821999 201.974288 
L 204.94637 201.898479 
L 205.069523 201.820707 
L 205.191426 201.740991 
L 205.31205 201.659351 
L 205.431363 201.575807 
L 205.549335 201.490381 
L 205.665937 201.403094 
L 205.78114 201.313967 
L 205.894914 201.223025 
L 206.007231 201.130288 
L 206.118062 201.035781 
L 206.22738 200.939528 
L 206.335157 200.841552 
L 206.441366 200.741878 
L 206.54598 200.640532 
L 206.648973 200.537539 
L 206.750319 200.432925 
L 206.849992 200.326716 
L 206.947968 200.218939 
L 207.044221 200.109622 
L 207.138728 199.99879 
L 207.231465 199.886473 
L 207.322408 199.772699 
L 207.411534 199.657497 
L 207.498821 199.540895 
L 207.584247 199.422922 
L 207.667791 199.30361 
L 207.749432 199.182986 
L 207.829148 199.061083 
L 207.90692 198.93793 
L 207.982728 198.813558 
L 208.056553 198.688 
L 208.128378 198.561286 
L 208.198182 198.433448 
L 208.26595 198.304519 
L 208.331663 198.174532 
L 208.395306 198.043517 
L 208.456862 197.91151 
L 208.516316 197.778542 
L 208.573653 197.644648 
L 208.628858 197.509861 
L 208.681918 197.374216 
L 208.732819 197.237745 
L 208.781548 197.100484 
L 208.828093 196.962467 
L 208.872443 196.823729 
L 208.914586 196.684305 
L 208.954511 196.54423 
L 208.992209 196.403539 
L 209.02767 196.262267 
L 209.060886 196.120451 
L 209.091847 195.978125 
L 209.120546 195.835326 
L 209.146975 195.69209 
L 209.171129 195.548453 
L 209.193001 195.40445 
L 209.212585 195.260119 
L 209.229877 195.115495 
L 209.244873 194.970614 
L 209.257567 194.825515 
L 209.267958 194.680232 
L 209.276042 194.534802 
L 209.281819 194.389262 
L 209.285285 194.24365 
L 209.28644 194.098 
L 209.28644 169.312 
L 209.285285 169.16635 
L 209.281819 169.020738 
L 209.276042 168.875198 
L 209.267958 168.729768 
L 209.257567 168.584485 
L 209.244873 168.439386 
L 209.229877 168.294505 
L 209.212585 168.149881 
L 209.193001 168.00555 
L 209.171129 167.861547 
L 209.146975 167.71791 
L 209.120546 167.574674 
L 209.091847 167.431875 
L 209.060886 167.289549 
L 209.02767 167.147733 
L 208.992209 167.006461 
L 208.954511 166.86577 
L 208.914586 166.725695 
L 208.872443 166.586271 
L 208.828093 166.447533 
L 208.781548 166.309516 
L 208.732819 166.172255 
L 208.681918 166.035784 
L 208.628858 165.900139 
L 208.573653 165.765352 
L 208.516316 165.631458 
L 208.456862 165.49849 
L 208.395306 165.366483 
L 208.331663 165.235468 
L 208.26595 165.105481 
L 208.198182 164.976552 
L 208.128378 164.848714 
L 208.056553 164.722 
L 207.982728 164.596442 
L 207.90692 164.47207 
L 207.829148 164.348917 
L 207.749432 164.227014 
L 207.667791 164.10639 
L 207.584247 163.987078 
L 207.498821 163.869105 
L 207.411534 163.752503 
L 207.322408 163.637301 
L 207.231465 163.523527 
L 207.138728 163.41121 
L 207.044221 163.300378 
L 206.947968 163.191061 
L 206.849992 163.083284 
L 206.750319 162.977075 
L 206.648973 162.872461 
L 206.54598 162.769468 
L 206.441366 162.668122 
L 206.335157 162.568448 
L 206.22738 162.470472 
L 206.118062 162.374219 
L 206.007231 162.279712 
L 205.894914 162.186975 
L 205.78114 162.096033 
L 205.665937 162.006906 
L 205.549335 161.919619 
L 205.431363 161.834193 
L 205.31205 161.750649 
L 205.191426 161.669009 
L 205.069523 161.589293 
L 204.94637 161.511521 
L 204.821999 161.435712 
L 204.69644 161.361887 
L 204.569726 161.290063 
L 204.441889 161.220258 
L 204.31296 161.152491 
L 204.182972 161.086777 
L 204.051958 161.023134 
L 203.91995 160.961578 
L 203.786983 160.902124 
L 203.653089 160.844788 
L 203.518302 160.789582 
L 203.382656 160.736523 
L 203.246185 160.685622 
L 203.108924 160.636892 
L 202.970907 160.590347 
L 202.832169 160.545997 
L 202.692745 160.503855 
L 202.55267 160.463929 
L 202.411979 160.426231 
L 202.270707 160.39077 
L 202.128891 160.357555 
L 201.986565 160.326594 
L 201.843767 160.297895 
L 201.700531 160.271465 
L 201.556893 160.247311 
L 201.41289 160.225439 
L 201.268559 160.205855 
L 201.123935 160.188563 
L 200.979055 160.173568 
L 200.833955 160.160873 
L 200.688672 160.150482 
L 200.543242 160.142398 
L 200.397703 160.136622 
L 200.25209 160.133156 
L 200.10644 160.132 
L 195.46544 160.132 
L 195.319791 160.133156 
L 195.174178 160.136622 
L 195.028638 160.142398 
L 194.883209 160.150482 
L 194.737926 160.160873 
L 194.592826 160.173568 
L 194.447946 160.188563 
L 194.303322 160.205855 
L 194.15899 160.225439 
L 194.014987 160.247311 
L 193.87135 160.271465 
L 193.728114 160.297895 
L 193.585315 160.326594 
L 193.44299 160.357555 
L 193.301173 160.39077 
L 193.159902 160.426231 
L 193.019211 160.463929 
L 192.879135 160.503855 
L 192.739711 160.545997 
L 192.600973 160.590347 
L 192.462956 160.636892 
L 192.325695 160.685622 
L 192.189225 160.736523 
L 192.053579 160.789582 
L 191.918792 160.844788 
L 191.784898 160.902124 
L 191.65193 160.961578 
L 191.519923 161.023134 
L 191.388909 161.086777 
L 191.258921 161.152491 
L 191.129992 161.220258 
L 191.002154 161.290063 
L 190.87544 161.361887 
L 190.749882 161.435712 
L 190.62551 161.511521 
L 190.502358 161.589293 
L 190.380454 161.669009 
L 190.259831 161.750649 
L 190.140518 161.834193 
L 190.022545 161.919619 
L 189.905943 162.006906 
L 189.790741 162.096033 
L 189.676967 162.186975 
L 189.56465 162.279712 
L 189.453819 162.374219 
L 189.344501 162.470472 
L 189.236724 162.568448 
L 189.130515 162.668122 
L 189.025901 162.769468 
L 188.922908 162.872461 
L 188.821562 162.977075 
L 188.721888 163.083284 
L 188.623913 163.191061 
L 188.527659 163.300378 
L 188.433152 163.41121 
L 188.340416 163.523527 
L 188.249473 163.637301 
L 188.160347 163.752503 
L 188.073059 163.869105 
L 187.987633 163.987078 
L 187.904089 164.10639 
L 187.822449 164.227014 
L 187.742733 164.348917 
L 187.664961 164.47207 
L 187.589153 164.596442 
L 187.515327 164.722 
L 187.443503 164.848714 
L 187.373698 164.976552 
L 187.305931 165.105481 
L 187.240217 165.235468 
L 187.176575 165.366483 
L 187.115019 165.49849 
L 187.055565 165.631458 
L 186.998228 165.765352 
L 186.943023 165.900139 
L 186.889963 166.035784 
L 186.839062 166.172255 
L 186.790333 166.309516 
L 186.743787 166.447533 
L 186.699438 166.586271 
L 186.657295 166.725695 
L 186.617369 166.86577 
L 186.579671 167.006461 
L 186.54421 167.147733 
L 186.510995 167.289549 
L 186.480034 167.431875 
L 186.451335 167.574674 
L 186.424905 167.71791 
L 186.400751 167.861547 
L 186.378879 168.00555 
L 186.359295 168.149881 
L 186.342003 168.294505 
L 186.327008 168.439386 
L 186.314313 168.584485 
L 186.303923 168.729768 
L 186.295838 168.875198 
L 186.290062 169.020738 
L 186.286596 169.16635 
L 186.28544 169.312 
L 186.28544 194.098 
L 186.286596 194.24365 
L 186.290062 194.389262 
L 186.295838 194.534802 
L 186.303923 194.680232 
L 186.314313 194.825515 
L 186.327008 194.970614 
L 186.342003 195.115495 
L 186.359295 195.260119 
L 186.378879 195.40445 
L 186.400751 195.548453 
L 186.424905 195.69209 
L 186.451335 195.835326 
L 186.480034 195.978125 
L 186.510995 196.120451 
L 186.54421 196.262267 
L 186.579671 196.403539 
L 186.617369 196.54423 
L 186.657295 196.684305 
L 186.699438 196.823729 
L 186.743787 196.962467 
L 186.790333 197.100484 
L 186.839062 197.237745 
L 186.889963 197.374216 
L 186.943023 197.509861 
L 186.998228 197.644648 
L 187.055565 197.778542 
L 187.115019 197.91151 
L 187.176575 198.043517 
L 187.240217 198.174532 
L 187.305931 198.304519 
L 187.373698 198.433448 
L 187.443503 198.561286 
L 187.515327 198.688 
L 187.589153 198.813558 
L 187.664961 198.93793 
L 187.742733 199.061083 
L 187.822449 199.182986 
L 187.904089 199.30361 
L 187.987633 199.422922 
L 188.073059 199.540895 
L 188.160347 199.657497 
L 188.249473 199.772699 
L 188.340416 199.886473 
L 188.433152 199.99879 
L 188.527659 200.109622 
L 188.623913 200.218939 
L 188.721888 200.326716 
L 188.821562 200.432925 
L 188.922908 200.537539 
L 189.025901 200.640532 
L 189.130515 200.741878 
L 189.236724 200.841552 
L 189.344501 200.939528 
L 189.453819 201.035781 
L 189.56465 201.130288 
L 189.676967 201.223025 
L 189.790741 201.313967 
L 189.905943 201.403094 
L 190.022545 201.490381 
L 190.140518 201.575807 
L 190.259831 201.659351 
L 190.380454 201.740991 
L 190.502358 201.820707 
L 190.62551 201.898479 
L 190.749882 201.974288 
L 190.87544 202.048113 
L 191.002154 202.119937 
L 191.129992 202.189742 
L 191.258921 202.257509 
L 191.388909 202.323223 
L 191.519923 202.386866 
L 191.65193 202.448422 
L 191.784898 202.507876 
L 191.918792 202.565212 
L 192.053579 202.620418 
L 192.189225 202.673477 
L 192.325695 202.724378 
L 192.462956 202.773108 
L 192.600973 202.819653 
L 192.739711 202.864003 
L 192.879135 202.906145 
L 193.019211 202.946071 
L 193.159902 202.983769 
L 193.301173 203.01923 
L 193.44299 203.052445 
L 193.585315 203.083406 
L 193.728114 203.112105 
L 193.87135 203.138535 
L 194.014987 203.162689 
L 194.15899 203.184561 
L 194.303322 203.204145 
L 194.447946 203.221437 
L 194.592826 203.236432 
L 194.737926 203.249127 
L 194.883209 203.259518 
L 195.028638 203.267602 
L 195.174178 203.273378 
L 195.319791 203.276844 
L 195.46544 203.278 
L 200.10644 203.278 
z
" clip-path="url(#pd6023612e0)" style="fill: none; stroke-dasharray: 1.85,0.8; stroke-dashoffset: 0; stroke: #008000; stroke-width: 0.5; stroke-linecap: round"/>
   </g>
   <g id="patch_6">
    <path d="M 175.57544 181.96 
L 175.72109 181.958844 
L 175.866703 181.955378 
L 176.012242 181.949602 
L 176.157672 181.941518 
L 176.302955 181.931127 
L 176.448055 181.918432 
L 176.592935 181.903437 
L 176.737559 181.886145 
L 176.88189 181.866561 
L 177.025893 181.844689 
L 177.169531 181.820535 
L 177.312767 181.794105 
L 177.455565 181.765406 
L 177.597891 181.734445 
L 177.739707 181.70123 
L 177.880979 181.665769 
L 178.02167 181.628071 
L 178.161745 181.588145 
L 178.301169 181.546003 
L 178.439907 181.501653 
L 178.577924 181.455108 
L 178.715185 181.406378 
L 178.851656 181.355477 
L 178.987302 181.302418 
L 179.122089 181.247212 
L 179.255983 181.189876 
L 179.38895 181.130422 
L 179.520958 181.068866 
L 179.651972 181.005223 
L 179.78196 180.939509 
L 179.910889 180.871742 
L 180.038726 180.801937 
L 180.16544 180.730113 
L 180.290999 180.656288 
L 180.41537 180.580479 
L 180.538523 180.502707 
L 180.660426 180.422991 
L 180.78105 180.341351 
L 180.900363 180.257807 
L 181.018335 180.172381 
L 181.134937 180.085094 
L 181.25014 179.995967 
L 181.363914 179.905025 
L 181.476231 179.812288 
L 181.587062 179.717781 
L 181.69638 179.621528 
L 181.804157 179.523552 
L 181.910366 179.423878 
L 182.01498 179.322532 
L 182.117973 179.219539 
L 182.219319 179.114925 
L 182.318992 179.008716 
L 182.416968 178.900939 
L 182.513221 178.791622 
L 182.607728 178.68079 
L 182.700465 178.568473 
L 182.791408 178.454699 
L 182.880534 178.339497 
L 182.967821 178.222895 
L 183.053247 178.104922 
L 183.136791 177.98561 
L 183.218432 177.864986 
L 183.298148 177.743083 
L 183.37592 177.61993 
L 183.451728 177.495558 
L 183.525553 177.37 
L 183.597378 177.243286 
L 183.667182 177.115448 
L 183.73495 176.986519 
L 183.800663 176.856532 
L 183.864306 176.725517 
L 183.925862 176.59351 
L 183.985316 176.460542 
L 184.042653 176.326648 
L 184.097858 176.191861 
L 184.150918 176.056216 
L 184.201819 175.919745 
L 184.250548 175.782484 
L 184.297093 175.644467 
L 184.341443 175.505729 
L 184.383586 175.366305 
L 184.423511 175.22623 
L 184.461209 175.085539 
L 184.49667 174.944267 
L 184.529886 174.802451 
L 184.560847 174.660125 
L 184.589546 174.517326 
L 184.615975 174.37409 
L 184.640129 174.230453 
L 184.662001 174.08645 
L 184.681585 173.942119 
L 184.698877 173.797495 
L 184.713873 173.652614 
L 184.726567 173.507515 
L 184.736958 173.362232 
L 184.745042 173.216802 
L 184.750819 173.071262 
L 184.754285 172.92565 
L 184.75544 172.78 
L 184.75544 102.4 
L 184.754285 102.25435 
L 184.750819 102.108738 
L 184.745042 101.963198 
L 184.736958 101.817768 
L 184.726567 101.672485 
L 184.713873 101.527386 
L 184.698877 101.382505 
L 184.681585 101.237881 
L 184.662001 101.09355 
L 184.640129 100.949547 
L 184.615975 100.80591 
L 184.589546 100.662674 
L 184.560847 100.519875 
L 184.529886 100.377549 
L 184.49667 100.235733 
L 184.461209 100.094461 
L 184.423511 99.95377 
L 184.383586 99.813695 
L 184.341443 99.674271 
L 184.297093 99.535533 
L 184.250548 99.397516 
L 184.201819 99.260255 
L 184.150918 99.123784 
L 184.097858 98.988139 
L 184.042653 98.853352 
L 183.985316 98.719458 
L 183.925862 98.58649 
L 183.864306 98.454483 
L 183.800663 98.323468 
L 183.73495 98.193481 
L 183.667182 98.064552 
L 183.597378 97.936714 
L 183.525553 97.81 
L 183.451728 97.684442 
L 183.37592 97.56007 
L 183.298148 97.436917 
L 183.218432 97.315014 
L 183.136791 97.19439 
L 183.053247 97.075078 
L 182.967821 96.957105 
L 182.880534 96.840503 
L 182.791408 96.725301 
L 182.700465 96.611527 
L 182.607728 96.49921 
L 182.513221 96.388378 
L 182.416968 96.279061 
L 182.318992 96.171284 
L 182.219319 96.065075 
L 182.117973 95.960461 
L 182.01498 95.857468 
L 181.910366 95.756122 
L 181.804157 95.656448 
L 181.69638 95.558472 
L 181.587062 95.462219 
L 181.476231 95.367712 
L 181.363914 95.274975 
L 181.25014 95.184033 
L 181.134937 95.094906 
L 181.018335 95.007619 
L 180.900363 94.922193 
L 180.78105 94.838649 
L 180.660426 94.757009 
L 180.538523 94.677293 
L 180.41537 94.599521 
L 180.290999 94.523712 
L 180.16544 94.449887 
L 180.038726 94.378063 
L 179.910889 94.308258 
L 179.78196 94.240491 
L 179.651972 94.174777 
L 179.520958 94.111134 
L 179.38895 94.049578 
L 179.255983 93.990124 
L 179.122089 93.932788 
L 178.987302 93.877582 
L 178.851656 93.824523 
L 178.715185 93.773622 
L 178.577924 93.724892 
L 178.439907 93.678347 
L 178.301169 93.633997 
L 178.161745 93.591855 
L 178.02167 93.551929 
L 177.880979 93.514231 
L 177.739707 93.47877 
L 177.597891 93.445555 
L 177.455565 93.414594 
L 177.312767 93.385895 
L 177.169531 93.359465 
L 177.025893 93.335311 
L 176.88189 93.313439 
L 176.737559 93.293855 
L 176.592935 93.276563 
L 176.448055 93.261568 
L 176.302955 93.248873 
L 176.157672 93.238482 
L 176.012242 93.230398 
L 175.866703 93.224622 
L 175.72109 93.221156 
L 175.57544 93.22 
L 166.39544 93.22 
L 166.249791 93.221156 
L 166.104178 93.224622 
L 165.958638 93.230398 
L 165.813209 93.238482 
L 165.667926 93.248873 
L 165.522826 93.261568 
L 165.377946 93.276563 
L 165.233322 93.293855 
L 165.08899 93.313439 
L 164.944987 93.335311 
L 164.80135 93.359465 
L 164.658114 93.385895 
L 164.515315 93.414594 
L 164.37299 93.445555 
L 164.231173 93.47877 
L 164.089902 93.514231 
L 163.949211 93.551929 
L 163.809135 93.591855 
L 163.669711 93.633997 
L 163.530973 93.678347 
L 163.392956 93.724892 
L 163.255695 93.773622 
L 163.119225 93.824523 
L 162.983579 93.877582 
L 162.848792 93.932788 
L 162.714898 93.990124 
L 162.58193 94.049578 
L 162.449923 94.111134 
L 162.318909 94.174777 
L 162.188921 94.240491 
L 162.059992 94.308258 
L 161.932154 94.378063 
L 161.80544 94.449887 
L 161.679882 94.523712 
L 161.55551 94.599521 
L 161.432358 94.677293 
L 161.310454 94.757009 
L 161.189831 94.838649 
L 161.070518 94.922193 
L 160.952545 95.007619 
L 160.835943 95.094906 
L 160.720741 95.184033 
L 160.606967 95.274975 
L 160.49465 95.367712 
L 160.383819 95.462219 
L 160.274501 95.558472 
L 160.166724 95.656448 
L 160.060515 95.756122 
L 159.955901 95.857468 
L 159.852908 95.960461 
L 159.751562 96.065075 
L 159.651888 96.171284 
L 159.553913 96.279061 
L 159.457659 96.388378 
L 159.363152 96.49921 
L 159.270416 96.611527 
L 159.179473 96.725301 
L 159.090347 96.840503 
L 159.003059 96.957105 
L 158.917633 97.075078 
L 158.834089 97.19439 
L 158.752449 97.315014 
L 158.672733 97.436917 
L 158.594961 97.56007 
L 158.519153 97.684442 
L 158.445327 97.81 
L 158.373503 97.936714 
L 158.303698 98.064552 
L 158.235931 98.193481 
L 158.170217 98.323468 
L 158.106575 98.454483 
L 158.045019 98.58649 
L 157.985565 98.719458 
L 157.928228 98.853352 
L 157.873023 98.988139 
L 157.819963 99.123784 
L 157.769062 99.260255 
L 157.720333 99.397516 
L 157.673787 99.535533 
L 157.629438 99.674271 
L 157.587295 99.813695 
L 157.547369 99.95377 
L 157.509671 100.094461 
L 157.47421 100.235733 
L 157.440995 100.377549 
L 157.410034 100.519875 
L 157.381335 100.662674 
L 157.354905 100.80591 
L 157.330751 100.949547 
L 157.308879 101.09355 
L 157.289295 101.237881 
L 157.272003 101.382505 
L 157.257008 101.527386 
L 157.244313 101.672485 
L 157.233923 101.817768 
L 157.225838 101.963198 
L 157.220062 102.108738 
L 157.216596 102.25435 
L 157.21544 102.4 
L 157.21544 172.78 
L 157.216596 172.92565 
L 157.220062 173.071262 
L 157.225838 173.216802 
L 157.233923 173.362232 
L 157.244313 173.507515 
L 157.257008 173.652614 
L 157.272003 173.797495 
L 157.289295 173.942119 
L 157.308879 174.08645 
L 157.330751 174.230453 
L 157.354905 174.37409 
L 157.381335 174.517326 
L 157.410034 174.660125 
L 157.440995 174.802451 
L 157.47421 174.944267 
L 157.509671 175.085539 
L 157.547369 175.22623 
L 157.587295 175.366305 
L 157.629438 175.505729 
L 157.673787 175.644467 
L 157.720333 175.782484 
L 157.769062 175.919745 
L 157.819963 176.056216 
L 157.873023 176.191861 
L 157.928228 176.326648 
L 157.985565 176.460542 
L 158.045019 176.59351 
L 158.106575 176.725517 
L 158.170217 176.856532 
L 158.235931 176.986519 
L 158.303698 177.115448 
L 158.373503 177.243286 
L 158.445327 177.37 
L 158.519153 177.495558 
L 158.594961 177.61993 
L 158.672733 177.743083 
L 158.752449 177.864986 
L 158.834089 177.98561 
L 158.917633 178.104922 
L 159.003059 178.222895 
L 159.090347 178.339497 
L 159.179473 178.454699 
L 159.270416 178.568473 
L 159.363152 178.68079 
L 159.457659 178.791622 
L 159.553913 178.900939 
L 159.651888 179.008716 
L 159.751562 179.114925 
L 159.852908 179.219539 
L 159.955901 179.322532 
L 160.060515 179.423878 
L 160.166724 179.523552 
L 160.274501 179.621528 
L 160.383819 179.717781 
L 160.49465 179.812288 
L 160.606967 179.905025 
L 160.720741 179.995967 
L 160.835943 180.085094 
L 160.952545 180.172381 
L 161.070518 180.257807 
L 161.189831 180.341351 
L 161.310454 180.422991 
L 161.432358 180.502707 
L 161.55551 180.580479 
L 161.679882 180.656288 
L 161.80544 180.730113 
L 161.932154 180.801937 
L 162.059992 180.871742 
L 162.188921 180.939509 
L 162.318909 181.005223 
L 162.449923 181.068866 
L 162.58193 181.130422 
L 162.714898 181.189876 
L 162.848792 181.247212 
L 162.983579 181.302418 
L 163.119225 181.355477 
L 163.255695 181.406378 
L 163.392956 181.455108 
L 163.530973 181.501653 
L 163.669711 181.546003 
L 163.809135 181.588145 
L 163.949211 181.628071 
L 164.089902 181.665769 
L 164.231173 181.70123 
L 164.37299 181.734445 
L 164.515315 181.765406 
L 164.658114 181.794105 
L 164.80135 181.820535 
L 164.944987 181.844689 
L 165.08899 181.866561 
L 165.233322 181.886145 
L 165.377946 181.903437 
L 165.522826 181.918432 
L 165.667926 181.931127 
L 165.813209 181.941518 
L 165.958638 181.949602 
L 166.104178 181.955378 
L 166.249791 181.958844 
L 166.39544 181.96 
L 175.57544 181.96 
z
" clip-path="url(#pd6023612e0)" style="fill: none; stroke-dasharray: 1.85,0.8; stroke-dashoffset: 0; stroke: #ff0000; stroke-width: 0.5; stroke-linecap: round"/>
   </g>
   <g id="patch_7">
    <path d="M 169.45544 93.22 
L 169.60109 93.218844 
L 169.746703 93.215378 
L 169.892242 93.209602 
L 170.037672 93.201518 
L 170.182955 93.191127 
L 170.328055 93.178432 
L 170.472935 93.163437 
L 170.617559 93.146145 
L 170.76189 93.126561 
L 170.905893 93.104689 
L 171.049531 93.080535 
L 171.192767 93.054105 
L 171.335565 93.025406 
L 171.477891 92.994445 
L 171.619707 92.96123 
L 171.760979 92.925769 
L 171.90167 92.888071 
L 172.041745 92.848145 
L 172.181169 92.806003 
L 172.319907 92.761653 
L 172.457924 92.715108 
L 172.595185 92.666378 
L 172.731656 92.615477 
L 172.867302 92.562418 
L 173.002089 92.507212 
L 173.135983 92.449876 
L 173.26895 92.390422 
L 173.400958 92.328866 
L 173.531972 92.265223 
L 173.66196 92.199509 
L 173.790889 92.131742 
L 173.918726 92.061937 
L 174.04544 91.990113 
L 174.170999 91.916288 
L 174.29537 91.840479 
L 174.418523 91.762707 
L 174.540426 91.682991 
L 174.66105 91.601351 
L 174.780363 91.517807 
L 174.898335 91.432381 
L 175.014937 91.345094 
L 175.13014 91.255967 
L 175.243914 91.165025 
L 175.356231 91.072288 
L 175.467062 90.977781 
L 175.57638 90.881528 
L 175.684157 90.783552 
L 175.790366 90.683878 
L 175.89498 90.582532 
L 175.997973 90.479539 
L 176.099319 90.374925 
L 176.198992 90.268716 
L 176.296968 90.160939 
L 176.393221 90.051622 
L 176.487728 89.94079 
L 176.580465 89.828473 
L 176.671408 89.714699 
L 176.760534 89.599497 
L 176.847821 89.482895 
L 176.933247 89.364922 
L 177.016791 89.24561 
L 177.098432 89.124986 
L 177.178148 89.003083 
L 177.25592 88.87993 
L 177.331728 88.755558 
L 177.405553 88.63 
L 177.477378 88.503286 
L 177.547182 88.375448 
L 177.61495 88.246519 
L 177.680663 88.116532 
L 177.744306 87.985517 
L 177.805862 87.85351 
L 177.865316 87.720542 
L 177.922653 87.586648 
L 177.977858 87.451861 
L 178.030918 87.316216 
L 178.081819 87.179745 
L 178.130548 87.042484 
L 178.177093 86.904467 
L 178.221443 86.765729 
L 178.263586 86.626305 
L 178.303511 86.48623 
L 178.341209 86.345539 
L 178.37667 86.204267 
L 178.409886 86.062451 
L 178.440847 85.920125 
L 178.469546 85.777326 
L 178.495975 85.63409 
L 178.520129 85.490453 
L 178.542001 85.34645 
L 178.561585 85.202119 
L 178.578877 85.057495 
L 178.593873 84.912614 
L 178.606567 84.767515 
L 178.616958 84.622232 
L 178.625042 84.476802 
L 178.630819 84.331262 
L 178.634285 84.18565 
L 178.63544 84.04 
L 178.63544 56.5 
L 178.634285 56.35435 
L 178.630819 56.208738 
L 178.625042 56.063198 
L 178.616958 55.917768 
L 178.606567 55.772485 
L 178.593873 55.627386 
L 178.578877 55.482505 
L 178.561585 55.337881 
L 178.542001 55.19355 
L 178.520129 55.049547 
L 178.495975 54.90591 
L 178.469546 54.762674 
L 178.440847 54.619875 
L 178.409886 54.477549 
L 178.37667 54.335733 
L 178.341209 54.194461 
L 178.303511 54.05377 
L 178.263586 53.913695 
L 178.221443 53.774271 
L 178.177093 53.635533 
L 178.130548 53.497516 
L 178.081819 53.360255 
L 178.030918 53.223784 
L 177.977858 53.088139 
L 177.922653 52.953352 
L 177.865316 52.819458 
L 177.805862 52.68649 
L 177.744306 52.554483 
L 177.680663 52.423468 
L 177.61495 52.293481 
L 177.547182 52.164552 
L 177.477378 52.036714 
L 177.405553 51.91 
L 177.331728 51.784442 
L 177.25592 51.66007 
L 177.178148 51.536917 
L 177.098432 51.415014 
L 177.016791 51.29439 
L 176.933247 51.175078 
L 176.847821 51.057105 
L 176.760534 50.940503 
L 176.671408 50.825301 
L 176.580465 50.711527 
L 176.487728 50.59921 
L 176.393221 50.488378 
L 176.296968 50.379061 
L 176.198992 50.271284 
L 176.099319 50.165075 
L 175.997973 50.060461 
L 175.89498 49.957468 
L 175.790366 49.856122 
L 175.684157 49.756448 
L 175.57638 49.658472 
L 175.467062 49.562219 
L 175.356231 49.467712 
L 175.243914 49.374975 
L 175.13014 49.284033 
L 175.014937 49.194906 
L 174.898335 49.107619 
L 174.780363 49.022193 
L 174.66105 48.938649 
L 174.540426 48.857009 
L 174.418523 48.777293 
L 174.29537 48.699521 
L 174.170999 48.623712 
L 174.04544 48.549887 
L 173.918726 48.478063 
L 173.790889 48.408258 
L 173.66196 48.340491 
L 173.531972 48.274777 
L 173.400958 48.211134 
L 173.26895 48.149578 
L 173.135983 48.090124 
L 173.002089 48.032788 
L 172.867302 47.977582 
L 172.731656 47.924523 
L 172.595185 47.873622 
L 172.457924 47.824892 
L 172.319907 47.778347 
L 172.181169 47.733997 
L 172.041745 47.691855 
L 171.90167 47.651929 
L 171.760979 47.614231 
L 171.619707 47.57877 
L 171.477891 47.545555 
L 171.335565 47.514594 
L 171.192767 47.485895 
L 171.049531 47.459465 
L 170.905893 47.435311 
L 170.76189 47.413439 
L 170.617559 47.393855 
L 170.472935 47.376563 
L 170.328055 47.361568 
L 170.182955 47.348873 
L 170.037672 47.338482 
L 169.892242 47.330398 
L 169.746703 47.324622 
L 169.60109 47.321156 
L 169.45544 47.32 
L 172.51544 47.32 
L 172.369791 47.321156 
L 172.224178 47.324622 
L 172.078638 47.330398 
L 171.933209 47.338482 
L 171.787926 47.348873 
L 171.642826 47.361568 
L 171.497946 47.376563 
L 171.353322 47.393855 
L 171.20899 47.413439 
L 171.064987 47.435311 
L 170.92135 47.459465 
L 170.778114 47.485895 
L 170.635315 47.514594 
L 170.49299 47.545555 
L 170.351173 47.57877 
L 170.209902 47.614231 
L 170.069211 47.651929 
L 169.929135 47.691855 
L 169.789711 47.733997 
L 169.650973 47.778347 
L 169.512956 47.824892 
L 169.375695 47.873622 
L 169.239225 47.924523 
L 169.103579 47.977582 
L 168.968792 48.032788 
L 168.834898 48.090124 
L 168.70193 48.149578 
L 168.569923 48.211134 
L 168.438909 48.274777 
L 168.308921 48.340491 
L 168.179992 48.408258 
L 168.052154 48.478063 
L 167.92544 48.549887 
L 167.799882 48.623712 
L 167.67551 48.699521 
L 167.552358 48.777293 
L 167.430454 48.857009 
L 167.309831 48.938649 
L 167.190518 49.022193 
L 167.072545 49.107619 
L 166.955943 49.194906 
L 166.840741 49.284033 
L 166.726967 49.374975 
L 166.61465 49.467712 
L 166.503819 49.562219 
L 166.394501 49.658472 
L 166.286724 49.756448 
L 166.180515 49.856122 
L 166.075901 49.957468 
L 165.972908 50.060461 
L 165.871562 50.165075 
L 165.771888 50.271284 
L 165.673913 50.379061 
L 165.577659 50.488378 
L 165.483152 50.59921 
L 165.390416 50.711527 
L 165.299473 50.825301 
L 165.210347 50.940503 
L 165.123059 51.057105 
L 165.037633 51.175078 
L 164.954089 51.29439 
L 164.872449 51.415014 
L 164.792733 51.536917 
L 164.714961 51.66007 
L 164.639153 51.784442 
L 164.565327 51.91 
L 164.493503 52.036714 
L 164.423698 52.164552 
L 164.355931 52.293481 
L 164.290217 52.423468 
L 164.226575 52.554483 
L 164.165019 52.68649 
L 164.105565 52.819458 
L 164.048228 52.953352 
L 163.993023 53.088139 
L 163.939963 53.223784 
L 163.889062 53.360255 
L 163.840333 53.497516 
L 163.793787 53.635533 
L 163.749438 53.774271 
L 163.707295 53.913695 
L 163.667369 54.05377 
L 163.629671 54.194461 
L 163.59421 54.335733 
L 163.560995 54.477549 
L 163.530034 54.619875 
L 163.501335 54.762674 
L 163.474905 54.90591 
L 163.450751 55.049547 
L 163.428879 55.19355 
L 163.409295 55.337881 
L 163.392003 55.482505 
L 163.377008 55.627386 
L 163.364313 55.772485 
L 163.353923 55.917768 
L 163.345838 56.063198 
L 163.340062 56.208738 
L 163.336596 56.35435 
L 163.33544 56.5 
L 163.33544 84.04 
L 163.336596 84.18565 
L 163.340062 84.331262 
L 163.345838 84.476802 
L 163.353923 84.622232 
L 163.364313 84.767515 
L 163.377008 84.912614 
L 163.392003 85.057495 
L 163.409295 85.202119 
L 163.428879 85.34645 
L 163.450751 85.490453 
L 163.474905 85.63409 
L 163.501335 85.777326 
L 163.530034 85.920125 
L 163.560995 86.062451 
L 163.59421 86.204267 
L 163.629671 86.345539 
L 163.667369 86.48623 
L 163.707295 86.626305 
L 163.749438 86.765729 
L 163.793787 86.904467 
L 163.840333 87.042484 
L 163.889062 87.179745 
L 163.939963 87.316216 
L 163.993023 87.451861 
L 164.048228 87.586648 
L 164.105565 87.720542 
L 164.165019 87.85351 
L 164.226575 87.985517 
L 164.290217 88.116532 
L 164.355931 88.246519 
L 164.423698 88.375448 
L 164.493503 88.503286 
L 164.565327 88.63 
L 164.639153 88.755558 
L 164.714961 88.87993 
L 164.792733 89.003083 
L 164.872449 89.124986 
L 164.954089 89.24561 
L 165.037633 89.364922 
L 165.123059 89.482895 
L 165.210347 89.599497 
L 165.299473 89.714699 
L 165.390416 89.828473 
L 165.483152 89.94079 
L 165.577659 90.051622 
L 165.673913 90.160939 
L 165.771888 90.268716 
L 165.871562 90.374925 
L 165.972908 90.479539 
L 166.075901 90.582532 
L 166.180515 90.683878 
L 166.286724 90.783552 
L 166.394501 90.881528 
L 166.503819 90.977781 
L 166.61465 91.072288 
L 166.726967 91.165025 
L 166.840741 91.255967 
L 166.955943 91.345094 
L 167.072545 91.432381 
L 167.190518 91.517807 
L 167.309831 91.601351 
L 167.430454 91.682991 
L 167.552358 91.762707 
L 167.67551 91.840479 
L 167.799882 91.916288 
L 167.92544 91.990113 
L 168.052154 92.061937 
L 168.179992 92.131742 
L 168.308921 92.199509 
L 168.438909 92.265223 
L 168.569923 92.328866 
L 168.70193 92.390422 
L 168.834898 92.449876 
L 168.968792 92.507212 
L 169.103579 92.562418 
L 169.239225 92.615477 
L 169.375695 92.666378 
L 169.512956 92.715108 
L 169.650973 92.761653 
L 169.789711 92.806003 
L 169.929135 92.848145 
L 170.069211 92.888071 
L 170.209902 92.925769 
L 170.351173 92.96123 
L 170.49299 92.994445 
L 170.635315 93.025406 
L 170.778114 93.054105 
L 170.92135 93.080535 
L 171.064987 93.104689 
L 171.20899 93.126561 
L 171.353322 93.146145 
L 171.497946 93.163437 
L 171.642826 93.178432 
L 171.787926 93.191127 
L 171.933209 93.201518 
L 172.078638 93.209602 
L 172.224178 93.215378 
L 172.369791 93.218844 
L 172.51544 93.22 
L 169.45544 93.22 
z
" clip-path="url(#pd6023612e0)" style="fill: none; stroke-dasharray: 1.85,0.8; stroke-dashoffset: 0; stroke: #a52a2a; stroke-width: 0.5; stroke-linecap: round"/>
   </g>
   <g id="patch_8">
    <path d="M 169.45544 227.86 
L 169.60109 227.858844 
L 169.746703 227.855378 
L 169.892242 227.849602 
L 170.037672 227.841518 
L 170.182955 227.831127 
L 170.328055 227.818432 
L 170.472935 227.803437 
L 170.617559 227.786145 
L 170.76189 227.766561 
L 170.905893 227.744689 
L 171.049531 227.720535 
L 171.192767 227.694105 
L 171.335565 227.665406 
L 171.477891 227.634445 
L 171.619707 227.60123 
L 171.760979 227.565769 
L 171.90167 227.528071 
L 172.041745 227.488145 
L 172.181169 227.446003 
L 172.319907 227.401653 
L 172.457924 227.355108 
L 172.595185 227.306378 
L 172.731656 227.255477 
L 172.867302 227.202418 
L 173.002089 227.147212 
L 173.135983 227.089876 
L 173.26895 227.030422 
L 173.400958 226.968866 
L 173.531972 226.905223 
L 173.66196 226.839509 
L 173.790889 226.771742 
L 173.918726 226.701937 
L 174.04544 226.630113 
L 174.170999 226.556288 
L 174.29537 226.480479 
L 174.418523 226.402707 
L 174.540426 226.322991 
L 174.66105 226.241351 
L 174.780363 226.157807 
L 174.898335 226.072381 
L 175.014937 225.985094 
L 175.13014 225.895967 
L 175.243914 225.805025 
L 175.356231 225.712288 
L 175.467062 225.617781 
L 175.57638 225.521528 
L 175.684157 225.423552 
L 175.790366 225.323878 
L 175.89498 225.222532 
L 175.997973 225.119539 
L 176.099319 225.014925 
L 176.198992 224.908716 
L 176.296968 224.800939 
L 176.393221 224.691622 
L 176.487728 224.58079 
L 176.580465 224.468473 
L 176.671408 224.354699 
L 176.760534 224.239497 
L 176.847821 224.122895 
L 176.933247 224.004922 
L 177.016791 223.88561 
L 177.098432 223.764986 
L 177.178148 223.643083 
L 177.25592 223.51993 
L 177.331728 223.395558 
L 177.405553 223.27 
L 177.477378 223.143286 
L 177.547182 223.015448 
L 177.61495 222.886519 
L 177.680663 222.756532 
L 177.744306 222.625517 
L 177.805862 222.49351 
L 177.865316 222.360542 
L 177.922653 222.226648 
L 177.977858 222.091861 
L 178.030918 221.956216 
L 178.081819 221.819745 
L 178.130548 221.682484 
L 178.177093 221.544467 
L 178.221443 221.405729 
L 178.263586 221.266305 
L 178.303511 221.12623 
L 178.341209 220.985539 
L 178.37667 220.844267 
L 178.409886 220.702451 
L 178.440847 220.560125 
L 178.469546 220.417326 
L 178.495975 220.27409 
L 178.520129 220.130453 
L 178.542001 219.98645 
L 178.561585 219.842119 
L 178.578877 219.697495 
L 178.593873 219.552614 
L 178.606567 219.407515 
L 178.616958 219.262232 
L 178.625042 219.116802 
L 178.630819 218.971262 
L 178.634285 218.82565 
L 178.63544 218.68 
L 178.63544 191.14 
L 178.634285 190.99435 
L 178.630819 190.848738 
L 178.625042 190.703198 
L 178.616958 190.557768 
L 178.606567 190.412485 
L 178.593873 190.267386 
L 178.578877 190.122505 
L 178.561585 189.977881 
L 178.542001 189.83355 
L 178.520129 189.689547 
L 178.495975 189.54591 
L 178.469546 189.402674 
L 178.440847 189.259875 
L 178.409886 189.117549 
L 178.37667 188.975733 
L 178.341209 188.834461 
L 178.303511 188.69377 
L 178.263586 188.553695 
L 178.221443 188.414271 
L 178.177093 188.275533 
L 178.130548 188.137516 
L 178.081819 188.000255 
L 178.030918 187.863784 
L 177.977858 187.728139 
L 177.922653 187.593352 
L 177.865316 187.459458 
L 177.805862 187.32649 
L 177.744306 187.194483 
L 177.680663 187.063468 
L 177.61495 186.933481 
L 177.547182 186.804552 
L 177.477378 186.676714 
L 177.405553 186.55 
L 177.331728 186.424442 
L 177.25592 186.30007 
L 177.178148 186.176917 
L 177.098432 186.055014 
L 177.016791 185.93439 
L 176.933247 185.815078 
L 176.847821 185.697105 
L 176.760534 185.580503 
L 176.671408 185.465301 
L 176.580465 185.351527 
L 176.487728 185.23921 
L 176.393221 185.128378 
L 176.296968 185.019061 
L 176.198992 184.911284 
L 176.099319 184.805075 
L 175.997973 184.700461 
L 175.89498 184.597468 
L 175.790366 184.496122 
L 175.684157 184.396448 
L 175.57638 184.298472 
L 175.467062 184.202219 
L 175.356231 184.107712 
L 175.243914 184.014975 
L 175.13014 183.924033 
L 175.014937 183.834906 
L 174.898335 183.747619 
L 174.780363 183.662193 
L 174.66105 183.578649 
L 174.540426 183.497009 
L 174.418523 183.417293 
L 174.29537 183.339521 
L 174.170999 183.263712 
L 174.04544 183.189887 
L 173.918726 183.118063 
L 173.790889 183.048258 
L 173.66196 182.980491 
L 173.531972 182.914777 
L 173.400958 182.851134 
L 173.26895 182.789578 
L 173.135983 182.730124 
L 173.002089 182.672788 
L 172.867302 182.617582 
L 172.731656 182.564523 
L 172.595185 182.513622 
L 172.457924 182.464892 
L 172.319907 182.418347 
L 172.181169 182.373997 
L 172.041745 182.331855 
L 171.90167 182.291929 
L 171.760979 182.254231 
L 171.619707 182.21877 
L 171.477891 182.185555 
L 171.335565 182.154594 
L 171.192767 182.125895 
L 171.049531 182.099465 
L 170.905893 182.075311 
L 170.76189 182.053439 
L 170.617559 182.033855 
L 170.472935 182.016563 
L 170.328055 182.001568 
L 170.182955 181.988873 
L 170.037672 181.978482 
L 169.892242 181.970398 
L 169.746703 181.964622 
L 169.60109 181.961156 
L 169.45544 181.96 
L 172.51544 181.96 
L 172.369791 181.961156 
L 172.224178 181.964622 
L 172.078638 181.970398 
L 171.933209 181.978482 
L 171.787926 181.988873 
L 171.642826 182.001568 
L 171.497946 182.016563 
L 171.353322 182.033855 
L 171.20899 182.053439 
L 171.064987 182.075311 
L 170.92135 182.099465 
L 170.778114 182.125895 
L 170.635315 182.154594 
L 170.49299 182.185555 
L 170.351173 182.21877 
L 170.209902 182.254231 
L 170.069211 182.291929 
L 169.929135 182.331855 
L 169.789711 182.373997 
L 169.650973 182.418347 
L 169.512956 182.464892 
L 169.375695 182.513622 
L 169.239225 182.564523 
L 169.103579 182.617582 
L 168.968792 182.672788 
L 168.834898 182.730124 
L 168.70193 182.789578 
L 168.569923 182.851134 
L 168.438909 182.914777 
L 168.308921 182.980491 
L 168.179992 183.048258 
L 168.052154 183.118063 
L 167.92544 183.189887 
L 167.799882 183.263712 
L 167.67551 183.339521 
L 167.552358 183.417293 
L 167.430454 183.497009 
L 167.309831 183.578649 
L 167.190518 183.662193 
L 167.072545 183.747619 
L 166.955943 183.834906 
L 166.840741 183.924033 
L 166.726967 184.014975 
L 166.61465 184.107712 
L 166.503819 184.202219 
L 166.394501 184.298472 
L 166.286724 184.396448 
L 166.180515 184.496122 
L 166.075901 184.597468 
L 165.972908 184.700461 
L 165.871562 184.805075 
L 165.771888 184.911284 
L 165.673913 185.019061 
L 165.577659 185.128378 
L 165.483152 185.23921 
L 165.390416 185.351527 
L 165.299473 185.465301 
L 165.210347 185.580503 
L 165.123059 185.697105 
L 165.037633 185.815078 
L 164.954089 185.93439 
L 164.872449 186.055014 
L 164.792733 186.176917 
L 164.714961 186.30007 
L 164.639153 186.424442 
L 164.565327 186.55 
L 164.493503 186.676714 
L 164.423698 186.804552 
L 164.355931 186.933481 
L 164.290217 187.063468 
L 164.226575 187.194483 
L 164.165019 187.32649 
L 164.105565 187.459458 
L 164.048228 187.593352 
L 163.993023 187.728139 
L 163.939963 187.863784 
L 163.889062 188.000255 
L 163.840333 188.137516 
L 163.793787 188.275533 
L 163.749438 188.414271 
L 163.707295 188.553695 
L 163.667369 188.69377 
L 163.629671 188.834461 
L 163.59421 188.975733 
L 163.560995 189.117549 
L 163.530034 189.259875 
L 163.501335 189.402674 
L 163.474905 189.54591 
L 163.450751 189.689547 
L 163.428879 189.83355 
L 163.409295 189.977881 
L 163.392003 190.122505 
L 163.377008 190.267386 
L 163.364313 190.412485 
L 163.353923 190.557768 
L 163.345838 190.703198 
L 163.340062 190.848738 
L 163.336596 190.99435 
L 163.33544 191.14 
L 163.33544 218.68 
L 163.336596 218.82565 
L 163.340062 218.971262 
L 163.345838 219.116802 
L 163.353923 219.262232 
L 163.364313 219.407515 
L 163.377008 219.552614 
L 163.392003 219.697495 
L 163.409295 219.842119 
L 163.428879 219.98645 
L 163.450751 220.130453 
L 163.474905 220.27409 
L 163.501335 220.417326 
L 163.530034 220.560125 
L 163.560995 220.702451 
L 163.59421 220.844267 
L 163.629671 220.985539 
L 163.667369 221.12623 
L 163.707295 221.266305 
L 163.749438 221.405729 
L 163.793787 221.544467 
L 163.840333 221.682484 
L 163.889062 221.819745 
L 163.939963 221.956216 
L 163.993023 222.091861 
L 164.048228 222.226648 
L 164.105565 222.360542 
L 164.165019 222.49351 
L 164.226575 222.625517 
L 164.290217 222.756532 
L 164.355931 222.886519 
L 164.423698 223.015448 
L 164.493503 223.143286 
L 164.565327 223.27 
L 164.639153 223.395558 
L 164.714961 223.51993 
L 164.792733 223.643083 
L 164.872449 223.764986 
L 164.954089 223.88561 
L 165.037633 224.004922 
L 165.123059 224.122895 
L 165.210347 224.239497 
L 165.299473 224.354699 
L 165.390416 224.468473 
L 165.483152 224.58079 
L 165.577659 224.691622 
L 165.673913 224.800939 
L 165.771888 224.908716 
L 165.871562 225.014925 
L 165.972908 225.119539 
L 166.075901 225.222532 
L 166.180515 225.323878 
L 166.286724 225.423552 
L 166.394501 225.521528 
L 166.503819 225.617781 
L 166.61465 225.712288 
L 166.726967 225.805025 
L 166.840741 225.895967 
L 166.955943 225.985094 
L 167.072545 226.072381 
L 167.190518 226.157807 
L 167.309831 226.241351 
L 167.430454 226.322991 
L 167.552358 226.402707 
L 167.67551 226.480479 
L 167.799882 226.556288 
L 167.92544 226.630113 
L 168.052154 226.701937 
L 168.179992 226.771742 
L 168.308921 226.839509 
L 168.438909 226.905223 
L 168.569923 226.968866 
L 168.70193 227.030422 
L 168.834898 227.089876 
L 168.968792 227.147212 
L 169.103579 227.202418 
L 169.239225 227.255477 
L 169.375695 227.306378 
L 169.512956 227.355108 
L 169.650973 227.401653 
L 169.789711 227.446003 
L 169.929135 227.488145 
L 170.069211 227.528071 
L 170.209902 227.565769 
L 170.351173 227.60123 
L 170.49299 227.634445 
L 170.635315 227.665406 
L 170.778114 227.694105 
L 170.92135 227.720535 
L 171.064987 227.744689 
L 171.20899 227.766561 
L 171.353322 227.786145 
L 171.497946 227.803437 
L 171.642826 227.818432 
L 171.787926 227.831127 
L 171.933209 227.841518 
L 172.078638 227.849602 
L 172.224178 227.855378 
L 172.369791 227.858844 
L 172.51544 227.86 
L 169.45544 227.86 
z
" clip-path="url(#pd6023612e0)" style="fill: none; stroke-dasharray: 1.85,0.8; stroke-dashoffset: 0; stroke: #0000ff; stroke-width: 0.5; stroke-linecap: round"/>
   </g>
   <g id="patch_9">
    <path d="M 156.0792 179.27124 
C 132.3642 179.27124 150.7242 170.09124 123.1842 170.09124 
" clip-path="url(#pd6023612e0)" style="fill: none; stroke: #ff0000; stroke-width: 2; stroke-linejoin: miter; stroke-linecap: round"/>
   </g>
   <g id="patch_10">
    <path d="M 152.2542 176.21124 
L 159.9042 179.27124 
L 152.2542 182.33124 
z
" clip-path="url(#pd6023612e0)" style="fill: #ff0000"/>
   </g>
   <g id="line2d_1">
    <path d="M 186.28544 93.22 
L 197.50544 93.22 
" clip-path="url(#pd6023612e0)" style="fill: none; stroke: #000000; stroke-width: 2; stroke-linecap: round"/>
   </g>
   <g id="line2d_2">
    <path d="M 197.50544 82 
L 197.50544 104.44 
" clip-path="url(#pd6023612e0)" style="fill: none; stroke: #000000; stroke-width: 2; stroke-linecap: round"/>
   </g>
   <g id="line2d_3">
    <path d="M 197.50544 87.61 
L 209.28644 77.512 
L 209.28644 71.902 
" clip-path="url(#pd6023612e0)" style="fill: none; stroke: #000000; stroke-width: 2; stroke-linecap: round"/>
   </g>
   <g id="line2d_4">
    <path d="M 197.50544 98.83 
L 209.28644 108.928 
L 209.28644 114.538 
" clip-path="url(#pd6023612e0)" style="fill: none; stroke: #000000; stroke-width: 2; stroke-linecap: round"/>
   </g>
   <g id="line2d_5">
    <path d="M 197.50544 98.83 
L 203.478127 103.949446 
" clip-path="url(#pd6023612e0)" style="fill: none; stroke: #000000; stroke-width: 2; stroke-linecap: round"/>
   </g>
   <g id="patch_11">
    <path d="M 205.469549 101.626121 
L 209.28644 108.928 
L 201.486706 106.272771 
z
" clip-path="url(#pd6023612e0)"/>
   </g>
   <g id="line2d_6">
    <path d="M 186.28544 93.22 
L 178.63544 93.22 
L 170.98544 93.22 
" clip-path="url(#pd6023612e0)" style="fill: none; stroke: #000000; stroke-width: 2; stroke-linecap: round"/>
   </g>
   <g id="line2d_7">
    <path d="M 170.98544 93.22 
L 170.98544 110.815 
M 178.63544 121.525 
L 163.33544 121.525 
M 170.98544 121.525 
L 170.98544 139.12 
" clip-path="url(#pd6023612e0)" style="fill: none; stroke: #000000; stroke-width: 2; stroke-linecap: round"/>
   </g>
   <g id="line2d_8">
    <path d="M 170.98544 139.12 
L 170.98544 155.185 
M 178.63544 165.895 
L 163.33544 165.895 
M 170.98544 165.895 
L 170.98544 181.96 
" clip-path="url(#pd6023612e0)" style="fill: none; stroke: #000000; stroke-width: 2; stroke-linecap: round"/>
   </g>
   <g id="line2d_9">
    <path d="M 170.98544 181.96 
L 178.63544 181.96 
L 186.28544 181.96 
" clip-path="url(#pd6023612e0)" style="fill: none; stroke: #000000; stroke-width: 2; stroke-linecap: round"/>
   </g>
   <g id="line2d_10">
    <path d="M 186.28544 181.96 
L 197.50544 181.96 
" clip-path="url(#pd6023612e0)" style="fill: none; stroke: #000000; stroke-width: 2; stroke-linecap: round"/>
   </g>
   <g id="line2d_11">
    <path d="M 197.50544 170.74 
L 197.50544 193.18 
" clip-path="url(#pd6023612e0)" style="fill: none; stroke: #000000; stroke-width: 2; stroke-linecap: round"/>
   </g>
   <g id="line2d_12">
    <path d="M 197.50544 176.35 
L 209.28644 166.252 
L 209.28644 160.642 
" clip-path="url(#pd6023612e0)" style="fill: none; stroke: #000000; stroke-width: 2; stroke-linecap: round"/>
   </g>
   <g id="line2d_13">
    <path d="M 197.50544 187.57 
L 209.28644 197.668 
L 209.28644 203.278 
" clip-path="url(#pd6023612e0)" style="fill: none; stroke: #000000; stroke-width: 2; stroke-linecap: round"/>
   </g>
   <g id="line2d_14">
    <path d="M 209.28644 166.252 
L 203.313753 171.371446 
" clip-path="url(#pd6023612e0)" style="fill: none; stroke: #000000; stroke-width: 2; stroke-linecap: round"/>
   </g>
   <g id="patch_12">
    <path d="M 205.305175 173.694771 
L 197.50544 176.35 
L 201.322332 169.048121 
z
" clip-path="url(#pd6023612e0)"/>
   </g>
   <g id="line2d_15">
    <path d="M 170.98544 93.22 
L 170.98544 85.57 
L 163.33544 83.02 
L 178.63544 77.92 
L 163.33544 72.82 
L 178.63544 67.72 
L 163.33544 62.62 
L 178.63544 57.52 
L 170.98544 54.97 
L 170.98544 47.32 
" clip-path="url(#pd6023612e0)" style="fill: none; stroke: #000000; stroke-width: 2; stroke-linecap: round"/>
   </g>
   <g id="line2d_16">
    <path d="M 170.98544 47.32 
L 177.10544 47.32 
L 183.22544 47.32 
" clip-path="url(#pd6023612e0)" style="fill: none; stroke: #000000; stroke-width: 2; stroke-linecap: round"/>
   </g>
   <g id="line2d_17">
    <path d="M 183.22544 47.32 
L 183.22544 35.08 
" clip-path="url(#pd6023612e0)" style="fill: none; stroke: #000000; stroke-width: 2; stroke-linecap: round"/>
   </g>
   <g id="line2d_18">
    <path d="M 183.22544 35.08 
L 177.48794 35.08 
" clip-path="url(#pd6023612e0)" style="fill: none; stroke: #000000; stroke-width: 2; stroke-linecap: round"/>
   </g>
   <g id="line2d_19">
    <path d="M 183.22544 35.08 
L 188.96294 35.08 
" clip-path="url(#pd6023612e0)" style="fill: none; stroke: #000000; stroke-width: 2; stroke-linecap: round"/>
   </g>
   <g id="line2d_20">
    <path d="M 183.22544 47.32 
L 196.25594 47.32 
L 209.28644 47.32 
" clip-path="url(#pd6023612e0)" style="fill: none; stroke: #000000; stroke-width: 2; stroke-linecap: round"/>
   </g>
   <g id="line2d_21">
    <path d="M 209.28644 47.32 
L 209.28644 59.611 
L 209.28644 71.902 
" clip-path="url(#pd6023612e0)" style="fill: none; stroke: #000000; stroke-width: 2; stroke-linecap: round"/>
   </g>
   <g id="line2d_22">
    <path d="M 170.98544 181.96 
L 170.98544 189.61 
L 178.63544 192.16 
L 163.33544 197.26 
L 178.63544 202.36 
L 163.33544 207.46 
L 178.63544 212.56 
L 163.33544 217.66 
L 170.98544 220.21 
L 170.98544 227.86 
" clip-path="url(#pd6023612e0)" style="fill: none; stroke: #000000; stroke-width: 2; stroke-linecap: round"/>
   </g>
   <g id="line2d_23">
    <path d="M 170.98544 227.86 
L 177.10544 227.86 
L 183.22544 227.86 
" clip-path="url(#pd6023612e0)" style="fill: none; stroke: #000000; stroke-width: 2; stroke-linecap: round"/>
   </g>
   <g id="line2d_24">
    <path d="M 183.22544 227.86 
L 183.22544 240.1 
" clip-path="url(#pd6023612e0)" style="fill: none; stroke: #000000; stroke-width: 2; stroke-linecap: round"/>
   </g>
   <g id="line2d_25">
    <path d="M 183.22544 240.1 
L 177.48794 240.1 
" clip-path="url(#pd6023612e0)" style="fill: none; stroke: #000000; stroke-width: 2; stroke-linecap: round"/>
   </g>
   <g id="line2d_26">
    <path d="M 183.22544 240.1 
L 188.96294 240.1 
" clip-path="url(#pd6023612e0)" style="fill: none; stroke: #000000; stroke-width: 2; stroke-linecap: round"/>
   </g>
   <g id="line2d_27">
    <path d="M 183.22544 227.86 
L 196.25594 227.86 
L 209.28644 227.86 
" clip-path="url(#pd6023612e0)" style="fill: none; stroke: #000000; stroke-width: 2; stroke-linecap: round"/>
   </g>
   <g id="line2d_28">
    <path d="M 209.28644 227.86 
L 209.28644 215.569 
L 209.28644 203.278 
" clip-path="url(#pd6023612e0)" style="fill: none; stroke: #000000; stroke-width: 2; stroke-linecap: round"/>
   </g>
   <g id="line2d_29">
    <path d="M 170.98544 139.12 
L 163.33544 139.12 
L 155.68544 139.12 
" clip-path="url(#pd6023612e0)" style="fill: none; stroke: #000000; stroke-width: 2; stroke-linecap: round"/>
   </g>
   <g id="line2d_30">
    <path d="M 209.28644 114.538 
L 209.28644 126.778 
L 209.28644 139.018 
" clip-path="url(#pd6023612e0)" style="fill: none; stroke: #000000; stroke-width: 2; stroke-linecap: round"/>
   </g>
   <g id="line2d_31">
    <path d="M 209.28644 139.018 
L 209.28644 149.83 
L 209.28644 160.642 
" clip-path="url(#pd6023612e0)" style="fill: none; stroke: #000000; stroke-width: 2; stroke-linecap: round"/>
   </g>
   <g id="line2d_32">
    <path d="M 209.28644 139.018 
L 232.23644 139.018 
L 255.18644 139.018 
" clip-path="url(#pd6023612e0)" style="fill: none; stroke: #000000; stroke-width: 2; stroke-linecap: round"/>
   </g>
   <g id="line2d_33">
    <path d="M 255.18644 139.018 
L 255.18644 146.668 
L 262.83644 149.218 
L 247.53644 154.318 
L 262.83644 159.418 
L 247.53644 164.518 
L 262.83644 169.618 
L 247.53644 174.718 
L 255.18644 177.268 
L 255.18644 184.918 
" clip-path="url(#pd6023612e0)" style="fill: none; stroke: #000000; stroke-width: 2; stroke-linecap: round"/>
   </g>
   <g id="line2d_34">
    <path d="M 255.18644 184.918 
L 255.18644 197.158 
L 247.53644 197.158 
L 262.83644 197.158 
M 249.83144 200.83 
L 260.54144 200.83 
M 253.65644 204.502 
L 256.71644 204.502 
" clip-path="url(#pd6023612e0)" style="fill: none; stroke: #000000; stroke-width: 2; stroke-linecap: round"/>
   </g>
   <g id="line2d_35">
    <path d="M 255.18644 139.018 
L 262.83644 139.018 
L 270.48644 139.018 
" clip-path="url(#pd6023612e0)" style="fill: none; stroke: #000000; stroke-width: 2; stroke-linecap: round"/>
   </g>
   <g id="text_1">
    <g clip-path="url(#pd6023612e0)">
     <!-- $R_1$ -->
     <g transform="translate(145.65044 73.719219)scale(0.125 -0.125)">
      <defs>
       <path id="DejaVuSans-Oblique-52" d="M 1613 4147 
L 1294 2491 
L 2106 2491 
Q 2584 2491 2879 2755 
Q 3175 3019 3175 3444 
Q 3175 3784 2976 3965 
Q 2778 4147 2406 4147 
L 1613 4147 
z
M 2772 2241 
Q 2972 2194 3105 2009 
Q 3238 1825 3413 1275 
L 3809 0 
L 3144 0 
L 2778 1197 
Q 2638 1659 2453 1815 
Q 2269 1972 1888 1972 
L 1191 1972 
L 806 0 
L 172 0 
L 1081 4666 
L 2503 4666 
Q 3150 4666 3495 4373 
Q 3841 4081 3841 3531 
Q 3841 3044 3547 2687 
Q 3253 2331 2772 2241 
z
" transform="scale(0.015625)"/>
       <path id="DejaVuSans-31" d="M 794 531 
L 1825 531 
L 1825 4091 
L 703 3866 
L 703 4441 
L 1819 4666 
L 2450 4666 
L 2450 531 
L 3481 531 
L 3481 0 
L 794 0 
L 794 531 
z
" transform="scale(0.015625)"/>
      </defs>
      <use xlink:href="#DejaVuSans-Oblique-52" transform="translate(0 0.09375)"/>
      <use xlink:href="#DejaVuSans-31" transform="translate(69.482422 -16.3125)scale(0.7)"/>
     </g>
    </g>
   </g>
   <g id="text_2">
    <g clip-path="url(#pd6023612e0)">
     <!-- $V_{DD}$ -->
     <g transform="translate(172.03794 29.420391)scale(0.125 -0.125)">
      <defs>
       <path id="DejaVuSans-Oblique-56" d="M 1319 0 
L 500 4666 
L 1119 4666 
L 1797 653 
L 4063 4666 
L 4750 4666 
L 2053 0 
L 1319 0 
z
" transform="scale(0.015625)"/>
       <path id="DejaVuSans-Oblique-44" d="M 1081 4666 
L 2438 4666 
Q 3519 4666 4070 4208 
Q 4622 3750 4622 2847 
Q 4622 2250 4412 1698 
Q 4203 1147 3834 769 
Q 3463 381 2891 190 
Q 2319 0 1538 0 
L 172 0 
L 1081 4666 
z
M 1613 4147 
L 909 519 
L 1734 519 
Q 2794 519 3375 1128 
Q 3956 1738 3956 2847 
Q 3956 3519 3581 3833 
Q 3206 4147 2406 4147 
L 1613 4147 
z
" transform="scale(0.015625)"/>
      </defs>
      <use xlink:href="#DejaVuSans-Oblique-56" transform="translate(0 0.09375)"/>
      <use xlink:href="#DejaVuSans-Oblique-44" transform="translate(68.408203 -16.3125)scale(0.7)"/>
      <use xlink:href="#DejaVuSans-Oblique-44" transform="translate(122.30957 -16.3125)scale(0.7)"/>
     </g>
    </g>
   </g>
   <g id="text_3">
    <g clip-path="url(#pd6023612e0)">
     <!-- $R_2$ -->
     <g transform="translate(145.65044 208.359219)scale(0.125 -0.125)">
      <defs>
       <path id="DejaVuSans-32" d="M 1228 531 
L 3431 531 
L 3431 0 
L 469 0 
L 469 531 
Q 828 903 1448 1529 
Q 2069 2156 2228 2338 
Q 2531 2678 2651 2914 
Q 2772 3150 2772 3378 
Q 2772 3750 2511 3984 
Q 2250 4219 1831 4219 
Q 1534 4219 1204 4116 
Q 875 4013 500 3803 
L 500 4441 
Q 881 4594 1212 4672 
Q 1544 4750 1819 4750 
Q 2544 4750 2975 4387 
Q 3406 4025 3406 3419 
Q 3406 3131 3298 2873 
Q 3191 2616 2906 2266 
Q 2828 2175 2409 1742 
Q 1991 1309 1228 531 
z
" transform="scale(0.015625)"/>
      </defs>
      <use xlink:href="#DejaVuSans-Oblique-52" transform="translate(0 0.09375)"/>
      <use xlink:href="#DejaVuSans-32" transform="translate(69.482422 -16.3125)scale(0.7)"/>
     </g>
    </g>
   </g>
   <g id="text_4">
    <g clip-path="url(#pd6023612e0)">
     <!-- -$V_{DD}$ -->
     <g transform="translate(169.72544 252.658047)scale(0.125 -0.125)">
      <defs>
       <path id="DejaVuSans-2d" d="M 313 2009 
L 1997 2009 
L 1997 1497 
L 313 1497 
L 313 2009 
z
" transform="scale(0.015625)"/>
      </defs>
      <use xlink:href="#DejaVuSans-2d" transform="translate(0 0.09375)"/>
      <use xlink:href="#DejaVuSans-Oblique-56" transform="translate(36.083984 0.09375)"/>
      <use xlink:href="#DejaVuSans-Oblique-44" transform="translate(104.492188 -16.3125)scale(0.7)"/>
      <use xlink:href="#DejaVuSans-Oblique-44" transform="translate(158.393555 -16.3125)scale(0.7)"/>
     </g>
    </g>
   </g>
   <g id="text_5">
    <g clip-path="url(#pd6023612e0)">
     <!-- $R_L$ -->
     <g transform="translate(230.47644 165.417219)scale(0.125 -0.125)">
      <defs>
       <path id="DejaVuSans-Oblique-4c" d="M 1075 4666 
L 1709 4666 
L 909 525 
L 3181 525 
L 3078 0 
L 172 0 
L 1075 4666 
z
" transform="scale(0.015625)"/>
      </defs>
      <use xlink:href="#DejaVuSans-Oblique-52" transform="translate(0 0.09375)"/>
      <use xlink:href="#DejaVuSans-Oblique-4c" transform="translate(69.482422 -16.3125)scale(0.7)"/>
     </g>
    </g>
   </g>
   <g id="text_6">
    <g clip-path="url(#pd6023612e0)">
     <!-- Voorinstelspanning -->
     <g style="fill: #ff0000" transform="translate(0.854669 173.540459)scale(0.125 -0.125)">
      <defs>
       <path id="DejaVuSans-56" d="M 1831 0 
L 50 4666 
L 709 4666 
L 2188 738 
L 3669 4666 
L 4325 4666 
L 2547 0 
L 1831 0 
z
" transform="scale(0.015625)"/>
       <path id="DejaVuSans-6f" d="M 1959 3097 
Q 1497 3097 1228 2736 
Q 959 2375 959 1747 
Q 959 1119 1226 758 
Q 1494 397 1959 397 
Q 2419 397 2687 759 
Q 2956 1122 2956 1747 
Q 2956 2369 2687 2733 
Q 2419 3097 1959 3097 
z
M 1959 3584 
Q 2709 3584 3137 3096 
Q 3566 2609 3566 1747 
Q 3566 888 3137 398 
Q 2709 -91 1959 -91 
Q 1206 -91 779 398 
Q 353 888 353 1747 
Q 353 2609 779 3096 
Q 1206 3584 1959 3584 
z
" transform="scale(0.015625)"/>
       <path id="DejaVuSans-72" d="M 2631 2963 
Q 2534 3019 2420 3045 
Q 2306 3072 2169 3072 
Q 1681 3072 1420 2755 
Q 1159 2438 1159 1844 
L 1159 0 
L 581 0 
L 581 3500 
L 1159 3500 
L 1159 2956 
Q 1341 3275 1631 3429 
Q 1922 3584 2338 3584 
Q 2397 3584 2469 3576 
Q 2541 3569 2628 3553 
L 2631 2963 
z
" transform="scale(0.015625)"/>
       <path id="DejaVuSans-69" d="M 603 3500 
L 1178 3500 
L 1178 0 
L 603 0 
L 603 3500 
z
M 603 4863 
L 1178 4863 
L 1178 4134 
L 603 4134 
L 603 4863 
z
" transform="scale(0.015625)"/>
       <path id="DejaVuSans-6e" d="M 3513 2113 
L 3513 0 
L 2938 0 
L 2938 2094 
Q 2938 2591 2744 2837 
Q 2550 3084 2163 3084 
Q 1697 3084 1428 2787 
Q 1159 2491 1159 1978 
L 1159 0 
L 581 0 
L 581 3500 
L 1159 3500 
L 1159 2956 
Q 1366 3272 1645 3428 
Q 1925 3584 2291 3584 
Q 2894 3584 3203 3211 
Q 3513 2838 3513 2113 
z
" transform="scale(0.015625)"/>
       <path id="DejaVuSans-73" d="M 2834 3397 
L 2834 2853 
Q 2591 2978 2328 3040 
Q 2066 3103 1784 3103 
Q 1356 3103 1142 2972 
Q 928 2841 928 2578 
Q 928 2378 1081 2264 
Q 1234 2150 1697 2047 
L 1894 2003 
Q 2506 1872 2764 1633 
Q 3022 1394 3022 966 
Q 3022 478 2636 193 
Q 2250 -91 1575 -91 
Q 1294 -91 989 -36 
Q 684 19 347 128 
L 347 722 
Q 666 556 975 473 
Q 1284 391 1588 391 
Q 1994 391 2212 530 
Q 2431 669 2431 922 
Q 2431 1156 2273 1281 
Q 2116 1406 1581 1522 
L 1381 1569 
Q 847 1681 609 1914 
Q 372 2147 372 2553 
Q 372 3047 722 3315 
Q 1072 3584 1716 3584 
Q 2034 3584 2315 3537 
Q 2597 3491 2834 3397 
z
" transform="scale(0.015625)"/>
       <path id="DejaVuSans-74" d="M 1172 4494 
L 1172 3500 
L 2356 3500 
L 2356 3053 
L 1172 3053 
L 1172 1153 
Q 1172 725 1289 603 
Q 1406 481 1766 481 
L 2356 481 
L 2356 0 
L 1766 0 
Q 1100 0 847 248 
Q 594 497 594 1153 
L 594 3053 
L 172 3053 
L 172 3500 
L 594 3500 
L 594 4494 
L 1172 4494 
z
" transform="scale(0.015625)"/>
       <path id="DejaVuSans-65" d="M 3597 1894 
L 3597 1613 
L 953 1613 
Q 991 1019 1311 708 
Q 1631 397 2203 397 
Q 2534 397 2845 478 
Q 3156 559 3463 722 
L 3463 178 
Q 3153 47 2828 -22 
Q 2503 -91 2169 -91 
Q 1331 -91 842 396 
Q 353 884 353 1716 
Q 353 2575 817 3079 
Q 1281 3584 2069 3584 
Q 2775 3584 3186 3129 
Q 3597 2675 3597 1894 
z
M 3022 2063 
Q 3016 2534 2758 2815 
Q 2500 3097 2075 3097 
Q 1594 3097 1305 2825 
Q 1016 2553 972 2059 
L 3022 2063 
z
" transform="scale(0.015625)"/>
       <path id="DejaVuSans-6c" d="M 603 4863 
L 1178 4863 
L 1178 0 
L 603 0 
L 603 4863 
z
" transform="scale(0.015625)"/>
       <path id="DejaVuSans-70" d="M 1159 525 
L 1159 -1331 
L 581 -1331 
L 581 3500 
L 1159 3500 
L 1159 2969 
Q 1341 3281 1617 3432 
Q 1894 3584 2278 3584 
Q 2916 3584 3314 3078 
Q 3713 2572 3713 1747 
Q 3713 922 3314 415 
Q 2916 -91 2278 -91 
Q 1894 -91 1617 61 
Q 1341 213 1159 525 
z
M 3116 1747 
Q 3116 2381 2855 2742 
Q 2594 3103 2138 3103 
Q 1681 3103 1420 2742 
Q 1159 2381 1159 1747 
Q 1159 1113 1420 752 
Q 1681 391 2138 391 
Q 2594 391 2855 752 
Q 3116 1113 3116 1747 
z
" transform="scale(0.015625)"/>
       <path id="DejaVuSans-61" d="M 2194 1759 
Q 1497 1759 1228 1600 
Q 959 1441 959 1056 
Q 959 750 1161 570 
Q 1363 391 1709 391 
Q 2188 391 2477 730 
Q 2766 1069 2766 1631 
L 2766 1759 
L 2194 1759 
z
M 3341 1997 
L 3341 0 
L 2766 0 
L 2766 531 
Q 2569 213 2275 61 
Q 1981 -91 1556 -91 
Q 1019 -91 701 211 
Q 384 513 384 1019 
Q 384 1609 779 1909 
Q 1175 2209 1959 2209 
L 2766 2209 
L 2766 2266 
Q 2766 2663 2505 2880 
Q 2244 3097 1772 3097 
Q 1472 3097 1187 3025 
Q 903 2953 641 2809 
L 641 3341 
Q 956 3463 1253 3523 
Q 1550 3584 1831 3584 
Q 2591 3584 2966 3190 
Q 3341 2797 3341 1997 
z
" transform="scale(0.015625)"/>
       <path id="DejaVuSans-67" d="M 2906 1791 
Q 2906 2416 2648 2759 
Q 2391 3103 1925 3103 
Q 1463 3103 1205 2759 
Q 947 2416 947 1791 
Q 947 1169 1205 825 
Q 1463 481 1925 481 
Q 2391 481 2648 825 
Q 2906 1169 2906 1791 
z
M 3481 434 
Q 3481 -459 3084 -895 
Q 2688 -1331 1869 -1331 
Q 1566 -1331 1297 -1286 
Q 1028 -1241 775 -1147 
L 775 -588 
Q 1028 -725 1275 -790 
Q 1522 -856 1778 -856 
Q 2344 -856 2625 -561 
Q 2906 -266 2906 331 
L 2906 616 
Q 2728 306 2450 153 
Q 2172 0 1784 0 
Q 1141 0 747 490 
Q 353 981 353 1791 
Q 353 2603 747 3093 
Q 1141 3584 1784 3584 
Q 2172 3584 2450 3431 
Q 2728 3278 2906 2969 
L 2906 3500 
L 3481 3500 
L 3481 434 
z
" transform="scale(0.015625)"/>
      </defs>
      <use xlink:href="#DejaVuSans-56"/>
      <use xlink:href="#DejaVuSans-6f" x="60.658203"/>
      <use xlink:href="#DejaVuSans-6f" x="121.839844"/>
      <use xlink:href="#DejaVuSans-72" x="183.021484"/>
      <use xlink:href="#DejaVuSans-69" x="224.134766"/>
      <use xlink:href="#DejaVuSans-6e" x="251.917969"/>
      <use xlink:href="#DejaVuSans-73" x="315.296875"/>
      <use xlink:href="#DejaVuSans-74" x="367.396484"/>
      <use xlink:href="#DejaVuSans-65" x="406.605469"/>
      <use xlink:href="#DejaVuSans-6c" x="468.128906"/>
      <use xlink:href="#DejaVuSans-73" x="495.912109"/>
      <use xlink:href="#DejaVuSans-70" x="548.011719"/>
      <use xlink:href="#DejaVuSans-61" x="611.488281"/>
      <use xlink:href="#DejaVuSans-6e" x="672.767578"/>
      <use xlink:href="#DejaVuSans-6e" x="736.146484"/>
      <use xlink:href="#DejaVuSans-69" x="799.525391"/>
      <use xlink:href="#DejaVuSans-6e" x="827.308594"/>
      <use xlink:href="#DejaVuSans-67" x="890.6875"/>
     </g>
    </g>
   </g>
   <g id="patch_13">
    <path d="M 170.98544 95.515 
C 171.594081 95.515 172.177876 95.273184 172.60825 94.84281 
C 173.038625 94.412436 173.28044 93.828641 173.28044 93.22 
C 173.28044 92.611359 173.038625 92.027564 172.60825 91.59719 
C 172.177876 91.166816 171.594081 90.925 170.98544 90.925 
C 170.376799 90.925 169.793004 91.166816 169.36263 91.59719 
C 168.932256 92.027564 168.69044 92.611359 168.69044 93.22 
C 168.69044 93.828641 168.932256 94.412436 169.36263 94.84281 
C 169.793004 95.273184 170.376799 95.515 170.98544 95.515 
z
" clip-path="url(#pd6023612e0)" style="stroke: #000000; stroke-width: 2; stroke-linejoin: miter"/>
   </g>
   <g id="patch_14">
    <path d="M 170.98544 141.415 
C 171.594081 141.415 172.177876 141.173184 172.60825 140.74281 
C 173.038625 140.312436 173.28044 139.728641 173.28044 139.12 
C 173.28044 138.511359 173.038625 137.927564 172.60825 137.49719 
C 172.177876 137.066816 171.594081 136.825 170.98544 136.825 
C 170.376799 136.825 169.793004 137.066816 169.36263 137.49719 
C 168.932256 137.927564 168.69044 138.511359 168.69044 139.12 
C 168.69044 139.728641 168.932256 140.312436 169.36263 140.74281 
C 169.793004 141.173184 170.376799 141.415 170.98544 141.415 
z
" clip-path="url(#pd6023612e0)" style="stroke: #000000; stroke-width: 2; stroke-linejoin: miter"/>
   </g>
   <g id="patch_15">
    <path d="M 170.98544 184.255 
C 171.594081 184.255 172.177876 184.013184 172.60825 183.58281 
C 173.038625 183.152436 173.28044 182.568641 173.28044 181.96 
C 173.28044 181.351359 173.038625 180.767564 172.60825 180.33719 
C 172.177876 179.906816 171.594081 179.665 170.98544 179.665 
C 170.376799 179.665 169.793004 179.906816 169.36263 180.33719 
C 168.932256 180.767564 168.69044 181.351359 168.69044 181.96 
C 168.69044 182.568641 168.932256 183.152436 169.36263 183.58281 
C 169.793004 184.013184 170.376799 184.255 170.98544 184.255 
z
" clip-path="url(#pd6023612e0)" style="stroke: #000000; stroke-width: 2; stroke-linejoin: miter"/>
   </g>
   <g id="patch_16">
    <path d="M 155.68544 141.415 
C 156.294081 141.415 156.877876 141.173184 157.30825 140.74281 
C 157.738625 140.312436 157.98044 139.728641 157.98044 139.12 
C 157.98044 138.511359 157.738625 137.927564 157.30825 137.49719 
C 156.877876 137.066816 156.294081 136.825 155.68544 136.825 
C 155.076799 136.825 154.493004 137.066816 154.06263 137.49719 
C 153.632256 137.927564 153.39044 138.511359 153.39044 139.12 
C 153.39044 139.728641 153.632256 140.312436 154.06263 140.74281 
C 154.493004 141.173184 155.076799 141.415 155.68544 141.415 
z
" clip-path="url(#pd6023612e0)" style="fill: #ffffff; stroke: #000000; stroke-width: 2; stroke-linejoin: miter"/>
   </g>
   <g id="patch_17">
    <path d="M 209.28644 141.313 
C 209.895081 141.313 210.478876 141.071184 210.90925 140.64081 
C 211.339625 140.210436 211.58144 139.626641 211.58144 139.018 
C 211.58144 138.409359 211.339625 137.825564 210.90925 137.39519 
C 210.478876 136.964816 209.895081 136.723 209.28644 136.723 
C 208.677799 136.723 208.094004 136.964816 207.66363 137.39519 
C 207.233256 137.825564 206.99144 138.409359 206.99144 139.018 
C 206.99144 139.626641 207.233256 140.210436 207.66363 140.64081 
C 208.094004 141.071184 208.677799 141.313 209.28644 141.313 
z
" clip-path="url(#pd6023612e0)" style="stroke: #000000; stroke-width: 2; stroke-linejoin: miter"/>
   </g>
   <g id="patch_18">
    <path d="M 270.48644 141.313 
C 271.095081 141.313 271.678876 141.071184 272.10925 140.64081 
C 272.539625 140.210436 272.78144 139.626641 272.78144 139.018 
C 272.78144 138.409359 272.539625 137.825564 272.10925 137.39519 
C 271.678876 136.964816 271.095081 136.723 270.48644 136.723 
C 269.877799 136.723 269.294004 136.964816 268.86363 137.39519 
C 268.433256 137.825564 268.19144 138.409359 268.19144 139.018 
C 268.19144 139.626641 268.433256 140.210436 268.86363 140.64081 
C 269.294004 141.071184 269.877799 141.313 270.48644 141.313 
z
" clip-path="url(#pd6023612e0)" style="fill: #ffffff; stroke: #000000; stroke-width: 2; stroke-linejoin: miter"/>
   </g>
   <g id="text_7">
    <g clip-path="url(#pd6023612e0)">
     <!-- $v_{out}$ -->
     <g transform="translate(259.42394 131.063391)scale(0.125 -0.125)">
      <defs>
       <path id="DejaVuSans-Oblique-76" d="M 459 3500 
L 1069 3500 
L 1581 525 
L 3256 3500 
L 3866 3500 
L 1875 0 
L 1100 0 
L 459 3500 
z
" transform="scale(0.015625)"/>
       <path id="DejaVuSans-Oblique-6f" d="M 1625 -91 
Q 1009 -91 651 289 
Q 294 669 294 1325 
Q 294 1706 417 2101 
Q 541 2497 738 2766 
Q 1047 3184 1428 3384 
Q 1809 3584 2291 3584 
Q 2888 3584 3255 3212 
Q 3622 2841 3622 2241 
Q 3622 1825 3500 1412 
Q 3378 1000 3181 728 
Q 2875 309 2494 109 
Q 2113 -91 1625 -91 
z
M 891 1344 
Q 891 869 1089 633 
Q 1288 397 1691 397 
Q 2269 397 2648 901 
Q 3028 1406 3028 2181 
Q 3028 2634 2825 2865 
Q 2622 3097 2228 3097 
Q 1903 3097 1650 2945 
Q 1397 2794 1197 2484 
Q 1050 2253 970 1956 
Q 891 1659 891 1344 
z
" transform="scale(0.015625)"/>
       <path id="DejaVuSans-Oblique-75" d="M 428 1388 
L 838 3500 
L 1416 3500 
L 1006 1409 
Q 975 1256 961 1147 
Q 947 1038 947 966 
Q 947 700 1109 554 
Q 1272 409 1569 409 
Q 2031 409 2368 721 
Q 2706 1034 2809 1563 
L 3194 3500 
L 3769 3500 
L 3091 0 
L 2516 0 
L 2631 550 
Q 2388 244 2052 76 
Q 1716 -91 1338 -91 
Q 878 -91 622 161 
Q 366 413 366 863 
Q 366 956 381 1097 
Q 397 1238 428 1388 
z
" transform="scale(0.015625)"/>
       <path id="DejaVuSans-Oblique-74" d="M 2706 3500 
L 2619 3053 
L 1472 3053 
L 1100 1153 
Q 1081 1047 1072 975 
Q 1063 903 1063 863 
Q 1063 663 1183 572 
Q 1303 481 1569 481 
L 2150 481 
L 2053 0 
L 1503 0 
Q 991 0 739 200 
Q 488 400 488 806 
Q 488 878 497 964 
Q 506 1050 525 1153 
L 897 3053 
L 409 3053 
L 500 3500 
L 978 3500 
L 1172 4494 
L 1747 4494 
L 1556 3500 
L 2706 3500 
z
" transform="scale(0.015625)"/>
      </defs>
      <use xlink:href="#DejaVuSans-Oblique-76" transform="translate(0 0.3125)"/>
      <use xlink:href="#DejaVuSans-Oblique-6f" transform="translate(59.179688 -16.09375)scale(0.7)"/>
      <use xlink:href="#DejaVuSans-Oblique-75" transform="translate(102.006836 -16.09375)scale(0.7)"/>
      <use xlink:href="#DejaVuSans-Oblique-74" transform="translate(146.37207 -16.09375)scale(0.7)"/>
     </g>
    </g>
   </g>
  </g>
 </g>
 <defs>
  <clipPath id="pd6023612e0">
   <rect x="7.2" y="7.2" width="291.50984" height="254.66"/>
  </clipPath>
 </defs>
</svg>
