<?xml version="1.0" encoding="utf-8" standalone="no"?>
<!DOCTYPE svg PUBLIC "-//W3C//DTD SVG 1.1//EN"
  "http://www.w3.org/Graphics/SVG/1.1/DTD/svg11.dtd">
<svg xmlns:xlink="http://www.w3.org/1999/xlink" width="190.962pt" height="219.896pt" viewBox="0 0 190.962 219.896" xmlns="http://www.w3.org/2000/svg" version="1.1">
 <metadata>
  <rdf:RDF xmlns:dc="http://purl.org/dc/elements/1.1/" xmlns:cc="http://creativecommons.org/ns#" xmlns:rdf="http://www.w3.org/1999/02/22-rdf-syntax-ns#">
   <cc:Work>
    <dc:type rdf:resource="http://purl.org/dc/dcmitype/StillImage"/>
    <dc:date>2022-03-27T15:20:17.357109</dc:date>
    <dc:format>image/svg+xml</dc:format>
    <dc:creator>
     <cc:Agent>
      <dc:title>Matplotlib v3.5.1, https://matplotlib.org/</dc:title>
     </cc:Agent>
    </dc:creator>
   </cc:Work>
  </rdf:RDF>
 </metadata>
 <defs>
  <style type="text/css">*{stroke-linejoin: round; stroke-linecap: butt}</style>
 </defs>
 <g id="figure_1">
  <g id="patch_1">
   <path d="M 0 219.896 
L 190.962 219.896 
L 190.962 0 
L 0 0 
L 0 219.896 
z
" style="fill: none"/>
  </g>
  <g id="axes_1">
   <g id="patch_2">
    <path d="M 57.6288 96.586 
L 57.77445 96.584844 
L 57.920062 96.581378 
L 58.065602 96.575602 
L 58.211032 96.567518 
L 58.356315 96.557127 
L 58.501414 96.544432 
L 58.646295 96.529437 
L 58.790919 96.512145 
L 58.93525 96.492561 
L 59.079253 96.470689 
L 59.22289 96.446535 
L 59.366126 96.420105 
L 59.508925 96.391406 
L 59.651251 96.360445 
L 59.793067 96.32723 
L 59.934339 96.291769 
L 60.07503 96.254071 
L 60.215105 96.214145 
L 60.354529 96.172003 
L 60.493267 96.127653 
L 60.631284 96.081108 
L 60.768545 96.032378 
L 60.905016 95.981477 
L 61.040661 95.928418 
L 61.175448 95.873212 
L 61.309342 95.815876 
L 61.44231 95.756422 
L 61.574317 95.694866 
L 61.705332 95.631223 
L 61.835319 95.565509 
L 61.964248 95.497742 
L 62.092086 95.427937 
L 62.2188 95.356113 
L 62.344358 95.282288 
L 62.46873 95.206479 
L 62.591883 95.128707 
L 62.713786 95.048991 
L 62.83441 94.967351 
L 62.953722 94.883807 
L 63.071695 94.798381 
L 63.188297 94.711094 
L 63.303499 94.621967 
L 63.417273 94.531025 
L 63.52959 94.438288 
L 63.640422 94.343781 
L 63.749739 94.247528 
L 63.857516 94.149552 
L 63.963725 94.049878 
L 64.068339 93.948532 
L 64.171332 93.845539 
L 64.272678 93.740925 
L 64.372352 93.634716 
L 64.470328 93.526939 
L 64.566581 93.417622 
L 64.661088 93.30679 
L 64.753825 93.194473 
L 64.844767 93.080699 
L 64.933894 92.965497 
L 65.021181 92.848895 
L 65.106607 92.730922 
L 65.190151 92.61161 
L 65.271791 92.490986 
L 65.351507 92.369083 
L 65.429279 92.24593 
L 65.505088 92.121558 
L 65.578913 91.996 
L 65.650737 91.869286 
L 65.720542 91.741448 
L 65.788309 91.612519 
L 65.854023 91.482532 
L 65.917666 91.351517 
L 65.979222 91.21951 
L 66.038676 91.086542 
L 66.096012 90.952648 
L 66.151218 90.817861 
L 66.204277 90.682216 
L 66.255178 90.545745 
L 66.303908 90.408484 
L 66.350453 90.270467 
L 66.394803 90.131729 
L 66.436945 89.992305 
L 66.476871 89.85223 
L 66.514569 89.711539 
L 66.55003 89.570267 
L 66.583245 89.428451 
L 66.614206 89.286125 
L 66.642905 89.143326 
L 66.669335 89.00009 
L 66.693489 88.856453 
L 66.715361 88.71245 
L 66.734945 88.568119 
L 66.752237 88.423495 
L 66.767232 88.278614 
L 66.779927 88.133515 
L 66.790318 87.988232 
L 66.798402 87.842802 
L 66.804178 87.697262 
L 66.807644 87.55165 
L 66.8088 87.406 
L 66.8088 50.38 
L 66.807644 50.23435 
L 66.804178 50.088738 
L 66.798402 49.943198 
L 66.790318 49.797768 
L 66.779927 49.652485 
L 66.767232 49.507386 
L 66.752237 49.362505 
L 66.734945 49.217881 
L 66.715361 49.07355 
L 66.693489 48.929547 
L 66.669335 48.78591 
L 66.642905 48.642674 
L 66.614206 48.499875 
L 66.583245 48.357549 
L 66.55003 48.215733 
L 66.514569 48.074461 
L 66.476871 47.93377 
L 66.436945 47.793695 
L 66.394803 47.654271 
L 66.350453 47.515533 
L 66.303908 47.377516 
L 66.255178 47.240255 
L 66.204277 47.103784 
L 66.151218 46.968139 
L 66.096012 46.833352 
L 66.038676 46.699458 
L 65.979222 46.56649 
L 65.917666 46.434483 
L 65.854023 46.303468 
L 65.788309 46.173481 
L 65.720542 46.044552 
L 65.650737 45.916714 
L 65.578913 45.79 
L 65.505088 45.664442 
L 65.429279 45.54007 
L 65.351507 45.416917 
L 65.271791 45.295014 
L 65.190151 45.17439 
L 65.106607 45.055078 
L 65.021181 44.937105 
L 64.933894 44.820503 
L 64.844767 44.705301 
L 64.753825 44.591527 
L 64.661088 44.47921 
L 64.566581 44.368378 
L 64.470328 44.259061 
L 64.372352 44.151284 
L 64.272678 44.045075 
L 64.171332 43.940461 
L 64.068339 43.837468 
L 63.963725 43.736122 
L 63.857516 43.636448 
L 63.749739 43.538472 
L 63.640422 43.442219 
L 63.52959 43.347712 
L 63.417273 43.254975 
L 63.303499 43.164033 
L 63.188297 43.074906 
L 63.071695 42.987619 
L 62.953722 42.902193 
L 62.83441 42.818649 
L 62.713786 42.737009 
L 62.591883 42.657293 
L 62.46873 42.579521 
L 62.344358 42.503712 
L 62.2188 42.429887 
L 62.092086 42.358063 
L 61.964248 42.288258 
L 61.835319 42.220491 
L 61.705332 42.154777 
L 61.574317 42.091134 
L 61.44231 42.029578 
L 61.309342 41.970124 
L 61.175448 41.912788 
L 61.040661 41.857582 
L 60.905016 41.804523 
L 60.768545 41.753622 
L 60.631284 41.704892 
L 60.493267 41.658347 
L 60.354529 41.613997 
L 60.215105 41.571855 
L 60.07503 41.531929 
L 59.934339 41.494231 
L 59.793067 41.45877 
L 59.651251 41.425555 
L 59.508925 41.394594 
L 59.366126 41.365895 
L 59.22289 41.339465 
L 59.079253 41.315311 
L 58.93525 41.293439 
L 58.790919 41.273855 
L 58.646295 41.256563 
L 58.501414 41.241568 
L 58.356315 41.228873 
L 58.211032 41.218482 
L 58.065602 41.210398 
L 57.920062 41.204622 
L 57.77445 41.201156 
L 57.6288 41.2 
L 46.8678 41.2 
L 46.72215 41.201156 
L 46.576538 41.204622 
L 46.430998 41.210398 
L 46.285568 41.218482 
L 46.140285 41.228873 
L 45.995186 41.241568 
L 45.850305 41.256563 
L 45.705681 41.273855 
L 45.56135 41.293439 
L 45.417347 41.315311 
L 45.27371 41.339465 
L 45.130474 41.365895 
L 44.987675 41.394594 
L 44.845349 41.425555 
L 44.703533 41.45877 
L 44.562261 41.494231 
L 44.42157 41.531929 
L 44.281495 41.571855 
L 44.142071 41.613997 
L 44.003333 41.658347 
L 43.865316 41.704892 
L 43.728055 41.753622 
L 43.591584 41.804523 
L 43.455939 41.857582 
L 43.321152 41.912788 
L 43.187258 41.970124 
L 43.05429 42.029578 
L 42.922283 42.091134 
L 42.791268 42.154777 
L 42.661281 42.220491 
L 42.532352 42.288258 
L 42.404514 42.358063 
L 42.2778 42.429887 
L 42.152242 42.503712 
L 42.02787 42.579521 
L 41.904717 42.657293 
L 41.782814 42.737009 
L 41.66219 42.818649 
L 41.542878 42.902193 
L 41.424905 42.987619 
L 41.308303 43.074906 
L 41.193101 43.164033 
L 41.079327 43.254975 
L 40.96701 43.347712 
L 40.856178 43.442219 
L 40.746861 43.538472 
L 40.639084 43.636448 
L 40.532875 43.736122 
L 40.428261 43.837468 
L 40.325268 43.940461 
L 40.223922 44.045075 
L 40.124248 44.151284 
L 40.026272 44.259061 
L 39.930019 44.368378 
L 39.835512 44.47921 
L 39.742775 44.591527 
L 39.651833 44.705301 
L 39.562706 44.820503 
L 39.475419 44.937105 
L 39.389993 45.055078 
L 39.306449 45.17439 
L 39.224809 45.295014 
L 39.145093 45.416917 
L 39.067321 45.54007 
L 38.991512 45.664442 
L 38.917687 45.79 
L 38.845863 45.916714 
L 38.776058 46.044552 
L 38.708291 46.173481 
L 38.642577 46.303468 
L 38.578934 46.434483 
L 38.517378 46.56649 
L 38.457924 46.699458 
L 38.400588 46.833352 
L 38.345382 46.968139 
L 38.292323 47.103784 
L 38.241422 47.240255 
L 38.192692 47.377516 
L 38.146147 47.515533 
L 38.101797 47.654271 
L 38.059655 47.793695 
L 38.019729 47.93377 
L 37.982031 48.074461 
L 37.94657 48.215733 
L 37.913355 48.357549 
L 37.882394 48.499875 
L 37.853695 48.642674 
L 37.827265 48.78591 
L 37.803111 48.929547 
L 37.781239 49.07355 
L 37.761655 49.217881 
L 37.744363 49.362505 
L 37.729368 49.507386 
L 37.716673 49.652485 
L 37.706282 49.797768 
L 37.698198 49.943198 
L 37.692422 50.088738 
L 37.688956 50.23435 
L 37.6878 50.38 
L 37.6878 87.406 
L 37.688956 87.55165 
L 37.692422 87.697262 
L 37.698198 87.842802 
L 37.706282 87.988232 
L 37.716673 88.133515 
L 37.729368 88.278614 
L 37.744363 88.423495 
L 37.761655 88.568119 
L 37.781239 88.71245 
L 37.803111 88.856453 
L 37.827265 89.00009 
L 37.853695 89.143326 
L 37.882394 89.286125 
L 37.913355 89.428451 
L 37.94657 89.570267 
L 37.982031 89.711539 
L 38.019729 89.85223 
L 38.059655 89.992305 
L 38.101797 90.131729 
L 38.146147 90.270467 
L 38.192692 90.408484 
L 38.241422 90.545745 
L 38.292323 90.682216 
L 38.345382 90.817861 
L 38.400588 90.952648 
L 38.457924 91.086542 
L 38.517378 91.21951 
L 38.578934 91.351517 
L 38.642577 91.482532 
L 38.708291 91.612519 
L 38.776058 91.741448 
L 38.845863 91.869286 
L 38.917687 91.996 
L 38.991512 92.121558 
L 39.067321 92.24593 
L 39.145093 92.369083 
L 39.224809 92.490986 
L 39.306449 92.61161 
L 39.389993 92.730922 
L 39.475419 92.848895 
L 39.562706 92.965497 
L 39.651833 93.080699 
L 39.742775 93.194473 
L 39.835512 93.30679 
L 39.930019 93.417622 
L 40.026272 93.526939 
L 40.124248 93.634716 
L 40.223922 93.740925 
L 40.325268 93.845539 
L 40.428261 93.948532 
L 40.532875 94.049878 
L 40.639084 94.149552 
L 40.746861 94.247528 
L 40.856178 94.343781 
L 40.96701 94.438288 
L 41.079327 94.531025 
L 41.193101 94.621967 
L 41.308303 94.711094 
L 41.424905 94.798381 
L 41.542878 94.883807 
L 41.66219 94.967351 
L 41.782814 95.048991 
L 41.904717 95.128707 
L 42.02787 95.206479 
L 42.152242 95.282288 
L 42.2778 95.356113 
L 42.404514 95.427937 
L 42.532352 95.497742 
L 42.661281 95.565509 
L 42.791268 95.631223 
L 42.922283 95.694866 
L 43.05429 95.756422 
L 43.187258 95.815876 
L 43.321152 95.873212 
L 43.455939 95.928418 
L 43.591584 95.981477 
L 43.728055 96.032378 
L 43.865316 96.081108 
L 44.003333 96.127653 
L 44.142071 96.172003 
L 44.281495 96.214145 
L 44.42157 96.254071 
L 44.562261 96.291769 
L 44.703533 96.32723 
L 44.845349 96.360445 
L 44.987675 96.391406 
L 45.130474 96.420105 
L 45.27371 96.446535 
L 45.417347 96.470689 
L 45.56135 96.492561 
L 45.705681 96.512145 
L 45.850305 96.529437 
L 45.995186 96.544432 
L 46.140285 96.557127 
L 46.285568 96.567518 
L 46.430998 96.575602 
L 46.576538 96.581378 
L 46.72215 96.584844 
L 46.8678 96.586 
L 57.6288 96.586 
z
" clip-path="url(#p6fd803b62a)" style="fill: none; stroke-dasharray: 1.85,0.8; stroke-dashoffset: 0; stroke: #008000; stroke-width: 0.5; stroke-linecap: round"/>
   </g>
   <g id="patch_3">
    <path d="M 57.6288 184.816 
L 57.77445 184.814844 
L 57.920062 184.811378 
L 58.065602 184.805602 
L 58.211032 184.797518 
L 58.356315 184.787127 
L 58.501414 184.774432 
L 58.646295 184.759437 
L 58.790919 184.742145 
L 58.93525 184.722561 
L 59.079253 184.700689 
L 59.22289 184.676535 
L 59.366126 184.650105 
L 59.508925 184.621406 
L 59.651251 184.590445 
L 59.793067 184.55723 
L 59.934339 184.521769 
L 60.07503 184.484071 
L 60.215105 184.444145 
L 60.354529 184.402003 
L 60.493267 184.357653 
L 60.631284 184.311108 
L 60.768545 184.262378 
L 60.905016 184.211477 
L 61.040661 184.158418 
L 61.175448 184.103212 
L 61.309342 184.045876 
L 61.44231 183.986422 
L 61.574317 183.924866 
L 61.705332 183.861223 
L 61.835319 183.795509 
L 61.964248 183.727742 
L 62.092086 183.657937 
L 62.2188 183.586113 
L 62.344358 183.512288 
L 62.46873 183.436479 
L 62.591883 183.358707 
L 62.713786 183.278991 
L 62.83441 183.197351 
L 62.953722 183.113807 
L 63.071695 183.028381 
L 63.188297 182.941094 
L 63.303499 182.851967 
L 63.417273 182.761025 
L 63.52959 182.668288 
L 63.640422 182.573781 
L 63.749739 182.477528 
L 63.857516 182.379552 
L 63.963725 182.279878 
L 64.068339 182.178532 
L 64.171332 182.075539 
L 64.272678 181.970925 
L 64.372352 181.864716 
L 64.470328 181.756939 
L 64.566581 181.647622 
L 64.661088 181.53679 
L 64.753825 181.424473 
L 64.844767 181.310699 
L 64.933894 181.195497 
L 65.021181 181.078895 
L 65.106607 180.960922 
L 65.190151 180.84161 
L 65.271791 180.720986 
L 65.351507 180.599083 
L 65.429279 180.47593 
L 65.505088 180.351558 
L 65.578913 180.226 
L 65.650737 180.099286 
L 65.720542 179.971448 
L 65.788309 179.842519 
L 65.854023 179.712532 
L 65.917666 179.581517 
L 65.979222 179.44951 
L 66.038676 179.316542 
L 66.096012 179.182648 
L 66.151218 179.047861 
L 66.204277 178.912216 
L 66.255178 178.775745 
L 66.303908 178.638484 
L 66.350453 178.500467 
L 66.394803 178.361729 
L 66.436945 178.222305 
L 66.476871 178.08223 
L 66.514569 177.941539 
L 66.55003 177.800267 
L 66.583245 177.658451 
L 66.614206 177.516125 
L 66.642905 177.373326 
L 66.669335 177.23009 
L 66.693489 177.086453 
L 66.715361 176.94245 
L 66.734945 176.798119 
L 66.752237 176.653495 
L 66.767232 176.508614 
L 66.779927 176.363515 
L 66.790318 176.218232 
L 66.798402 176.072802 
L 66.804178 175.927262 
L 66.807644 175.78165 
L 66.8088 175.636 
L 66.8088 138.61 
L 66.807644 138.46435 
L 66.804178 138.318738 
L 66.798402 138.173198 
L 66.790318 138.027768 
L 66.779927 137.882485 
L 66.767232 137.737386 
L 66.752237 137.592505 
L 66.734945 137.447881 
L 66.715361 137.30355 
L 66.693489 137.159547 
L 66.669335 137.01591 
L 66.642905 136.872674 
L 66.614206 136.729875 
L 66.583245 136.587549 
L 66.55003 136.445733 
L 66.514569 136.304461 
L 66.476871 136.16377 
L 66.436945 136.023695 
L 66.394803 135.884271 
L 66.350453 135.745533 
L 66.303908 135.607516 
L 66.255178 135.470255 
L 66.204277 135.333784 
L 66.151218 135.198139 
L 66.096012 135.063352 
L 66.038676 134.929458 
L 65.979222 134.79649 
L 65.917666 134.664483 
L 65.854023 134.533468 
L 65.788309 134.403481 
L 65.720542 134.274552 
L 65.650737 134.146714 
L 65.578913 134.02 
L 65.505088 133.894442 
L 65.429279 133.77007 
L 65.351507 133.646917 
L 65.271791 133.525014 
L 65.190151 133.40439 
L 65.106607 133.285078 
L 65.021181 133.167105 
L 64.933894 133.050503 
L 64.844767 132.935301 
L 64.753825 132.821527 
L 64.661088 132.70921 
L 64.566581 132.598378 
L 64.470328 132.489061 
L 64.372352 132.381284 
L 64.272678 132.275075 
L 64.171332 132.170461 
L 64.068339 132.067468 
L 63.963725 131.966122 
L 63.857516 131.866448 
L 63.749739 131.768472 
L 63.640422 131.672219 
L 63.52959 131.577712 
L 63.417273 131.484975 
L 63.303499 131.394033 
L 63.188297 131.304906 
L 63.071695 131.217619 
L 62.953722 131.132193 
L 62.83441 131.048649 
L 62.713786 130.967009 
L 62.591883 130.887293 
L 62.46873 130.809521 
L 62.344358 130.733712 
L 62.2188 130.659887 
L 62.092086 130.588063 
L 61.964248 130.518258 
L 61.835319 130.450491 
L 61.705332 130.384777 
L 61.574317 130.321134 
L 61.44231 130.259578 
L 61.309342 130.200124 
L 61.175448 130.142788 
L 61.040661 130.087582 
L 60.905016 130.034523 
L 60.768545 129.983622 
L 60.631284 129.934892 
L 60.493267 129.888347 
L 60.354529 129.843997 
L 60.215105 129.801855 
L 60.07503 129.761929 
L 59.934339 129.724231 
L 59.793067 129.68877 
L 59.651251 129.655555 
L 59.508925 129.624594 
L 59.366126 129.595895 
L 59.22289 129.569465 
L 59.079253 129.545311 
L 58.93525 129.523439 
L 58.790919 129.503855 
L 58.646295 129.486563 
L 58.501414 129.471568 
L 58.356315 129.458873 
L 58.211032 129.448482 
L 58.065602 129.440398 
L 57.920062 129.434622 
L 57.77445 129.431156 
L 57.6288 129.43 
L 46.8678 129.43 
L 46.72215 129.431156 
L 46.576538 129.434622 
L 46.430998 129.440398 
L 46.285568 129.448482 
L 46.140285 129.458873 
L 45.995186 129.471568 
L 45.850305 129.486563 
L 45.705681 129.503855 
L 45.56135 129.523439 
L 45.417347 129.545311 
L 45.27371 129.569465 
L 45.130474 129.595895 
L 44.987675 129.624594 
L 44.845349 129.655555 
L 44.703533 129.68877 
L 44.562261 129.724231 
L 44.42157 129.761929 
L 44.281495 129.801855 
L 44.142071 129.843997 
L 44.003333 129.888347 
L 43.865316 129.934892 
L 43.728055 129.983622 
L 43.591584 130.034523 
L 43.455939 130.087582 
L 43.321152 130.142788 
L 43.187258 130.200124 
L 43.05429 130.259578 
L 42.922283 130.321134 
L 42.791268 130.384777 
L 42.661281 130.450491 
L 42.532352 130.518258 
L 42.404514 130.588063 
L 42.2778 130.659887 
L 42.152242 130.733712 
L 42.02787 130.809521 
L 41.904717 130.887293 
L 41.782814 130.967009 
L 41.66219 131.048649 
L 41.542878 131.132193 
L 41.424905 131.217619 
L 41.308303 131.304906 
L 41.193101 131.394033 
L 41.079327 131.484975 
L 40.96701 131.577712 
L 40.856178 131.672219 
L 40.746861 131.768472 
L 40.639084 131.866448 
L 40.532875 131.966122 
L 40.428261 132.067468 
L 40.325268 132.170461 
L 40.223922 132.275075 
L 40.124248 132.381284 
L 40.026272 132.489061 
L 39.930019 132.598378 
L 39.835512 132.70921 
L 39.742775 132.821527 
L 39.651833 132.935301 
L 39.562706 133.050503 
L 39.475419 133.167105 
L 39.389993 133.285078 
L 39.306449 133.40439 
L 39.224809 133.525014 
L 39.145093 133.646917 
L 39.067321 133.77007 
L 38.991512 133.894442 
L 38.917687 134.02 
L 38.845863 134.146714 
L 38.776058 134.274552 
L 38.708291 134.403481 
L 38.642577 134.533468 
L 38.578934 134.664483 
L 38.517378 134.79649 
L 38.457924 134.929458 
L 38.400588 135.063352 
L 38.345382 135.198139 
L 38.292323 135.333784 
L 38.241422 135.470255 
L 38.192692 135.607516 
L 38.146147 135.745533 
L 38.101797 135.884271 
L 38.059655 136.023695 
L 38.019729 136.16377 
L 37.982031 136.304461 
L 37.94657 136.445733 
L 37.913355 136.587549 
L 37.882394 136.729875 
L 37.853695 136.872674 
L 37.827265 137.01591 
L 37.803111 137.159547 
L 37.781239 137.30355 
L 37.761655 137.447881 
L 37.744363 137.592505 
L 37.729368 137.737386 
L 37.716673 137.882485 
L 37.706282 138.027768 
L 37.698198 138.173198 
L 37.692422 138.318738 
L 37.688956 138.46435 
L 37.6878 138.61 
L 37.6878 175.636 
L 37.688956 175.78165 
L 37.692422 175.927262 
L 37.698198 176.072802 
L 37.706282 176.218232 
L 37.716673 176.363515 
L 37.729368 176.508614 
L 37.744363 176.653495 
L 37.761655 176.798119 
L 37.781239 176.94245 
L 37.803111 177.086453 
L 37.827265 177.23009 
L 37.853695 177.373326 
L 37.882394 177.516125 
L 37.913355 177.658451 
L 37.94657 177.800267 
L 37.982031 177.941539 
L 38.019729 178.08223 
L 38.059655 178.222305 
L 38.101797 178.361729 
L 38.146147 178.500467 
L 38.192692 178.638484 
L 38.241422 178.775745 
L 38.292323 178.912216 
L 38.345382 179.047861 
L 38.400588 179.182648 
L 38.457924 179.316542 
L 38.517378 179.44951 
L 38.578934 179.581517 
L 38.642577 179.712532 
L 38.708291 179.842519 
L 38.776058 179.971448 
L 38.845863 180.099286 
L 38.917687 180.226 
L 38.991512 180.351558 
L 39.067321 180.47593 
L 39.145093 180.599083 
L 39.224809 180.720986 
L 39.306449 180.84161 
L 39.389993 180.960922 
L 39.475419 181.078895 
L 39.562706 181.195497 
L 39.651833 181.310699 
L 39.742775 181.424473 
L 39.835512 181.53679 
L 39.930019 181.647622 
L 40.026272 181.756939 
L 40.124248 181.864716 
L 40.223922 181.970925 
L 40.325268 182.075539 
L 40.428261 182.178532 
L 40.532875 182.279878 
L 40.639084 182.379552 
L 40.746861 182.477528 
L 40.856178 182.573781 
L 40.96701 182.668288 
L 41.079327 182.761025 
L 41.193101 182.851967 
L 41.308303 182.941094 
L 41.424905 183.028381 
L 41.542878 183.113807 
L 41.66219 183.197351 
L 41.782814 183.278991 
L 41.904717 183.358707 
L 42.02787 183.436479 
L 42.152242 183.512288 
L 42.2778 183.586113 
L 42.404514 183.657937 
L 42.532352 183.727742 
L 42.661281 183.795509 
L 42.791268 183.861223 
L 42.922283 183.924866 
L 43.05429 183.986422 
L 43.187258 184.045876 
L 43.321152 184.103212 
L 43.455939 184.158418 
L 43.591584 184.211477 
L 43.728055 184.262378 
L 43.865316 184.311108 
L 44.003333 184.357653 
L 44.142071 184.402003 
L 44.281495 184.444145 
L 44.42157 184.484071 
L 44.562261 184.521769 
L 44.703533 184.55723 
L 44.845349 184.590445 
L 44.987675 184.621406 
L 45.130474 184.650105 
L 45.27371 184.676535 
L 45.417347 184.700689 
L 45.56135 184.722561 
L 45.705681 184.742145 
L 45.850305 184.759437 
L 45.995186 184.774432 
L 46.140285 184.787127 
L 46.285568 184.797518 
L 46.430998 184.805602 
L 46.576538 184.811378 
L 46.72215 184.814844 
L 46.8678 184.816 
L 57.6288 184.816 
z
" clip-path="url(#p6fd803b62a)" style="fill: none; stroke-dasharray: 1.85,0.8; stroke-dashoffset: 0; stroke: #008000; stroke-width: 0.5; stroke-linecap: round"/>
   </g>
   <g id="patch_4">
    <path d="M 70.6338 68.893 
C 101.2338 68.893 78.2838 32.173 112.7088 32.173 
" clip-path="url(#p6fd803b62a)" style="fill: none; stroke: #008000; stroke-width: 2; stroke-linejoin: miter; stroke-linecap: round"/>
   </g>
   <g id="patch_5">
    <path d="M 74.4588 71.953 
L 66.8088 68.893 
L 74.4588 65.833 
z
" clip-path="url(#p6fd803b62a)" style="fill: #008000"/>
   </g>
   <g id="patch_6">
    <path d="M 70.6338 157.123 
C 101.2338 157.123 78.2838 193.843 112.7088 193.843 
" clip-path="url(#p6fd803b62a)" style="fill: none; stroke: #008000; stroke-width: 2; stroke-linejoin: miter; stroke-linecap: round"/>
   </g>
   <g id="patch_7">
    <path d="M 74.4588 160.183 
L 66.8088 157.123 
L 74.4588 154.063 
z
" clip-path="url(#p6fd803b62a)" style="fill: #008000"/>
   </g>
   <g id="line2d_1">
    <path d="M 40.7478 68.638 
L 51.9678 68.638 
" clip-path="url(#p6fd803b62a)" style="fill: none; stroke: #000000; stroke-width: 2; stroke-linecap: round"/>
   </g>
   <g id="line2d_2">
    <path d="M 51.9678 57.418 
L 51.9678 79.858 
" clip-path="url(#p6fd803b62a)" style="fill: none; stroke: #000000; stroke-width: 2; stroke-linecap: round"/>
   </g>
   <g id="line2d_3">
    <path d="M 51.9678 63.028 
L 63.7488 52.93 
L 63.7488 47.32 
" clip-path="url(#p6fd803b62a)" style="fill: none; stroke: #000000; stroke-width: 2; stroke-linecap: round"/>
   </g>
   <g id="line2d_4">
    <path d="M 51.9678 74.248 
L 63.7488 84.346 
L 63.7488 89.956 
" clip-path="url(#p6fd803b62a)" style="fill: none; stroke: #000000; stroke-width: 2; stroke-linecap: round"/>
   </g>
   <g id="line2d_5">
    <path d="M 51.9678 74.248 
L 57.940487 79.367446 
" clip-path="url(#p6fd803b62a)" style="fill: none; stroke: #000000; stroke-width: 2; stroke-linecap: round"/>
   </g>
   <g id="patch_8">
    <path d="M 59.931909 77.044121 
L 63.7488 84.346 
L 55.949065 81.690771 
z
" clip-path="url(#p6fd803b62a)"/>
   </g>
   <g id="line2d_6">
    <path d="M 40.7478 68.638 
L 40.7478 91.588 
L 40.7478 114.538 
" clip-path="url(#p6fd803b62a)" style="fill: none; stroke: #000000; stroke-width: 2; stroke-linecap: round"/>
   </g>
   <g id="line2d_7">
    <path d="M 40.7478 114.538 
L 40.7478 135.958 
L 40.7478 157.378 
" clip-path="url(#p6fd803b62a)" style="fill: none; stroke: #000000; stroke-width: 2; stroke-linecap: round"/>
   </g>
   <g id="line2d_8">
    <path d="M 40.7478 157.378 
L 51.9678 157.378 
" clip-path="url(#p6fd803b62a)" style="fill: none; stroke: #000000; stroke-width: 2; stroke-linecap: round"/>
   </g>
   <g id="line2d_9">
    <path d="M 51.9678 146.158 
L 51.9678 168.598 
" clip-path="url(#p6fd803b62a)" style="fill: none; stroke: #000000; stroke-width: 2; stroke-linecap: round"/>
   </g>
   <g id="line2d_10">
    <path d="M 51.9678 151.768 
L 63.7488 141.67 
L 63.7488 136.06 
" clip-path="url(#p6fd803b62a)" style="fill: none; stroke: #000000; stroke-width: 2; stroke-linecap: round"/>
   </g>
   <g id="line2d_11">
    <path d="M 51.9678 162.988 
L 63.7488 173.086 
L 63.7488 178.696 
" clip-path="url(#p6fd803b62a)" style="fill: none; stroke: #000000; stroke-width: 2; stroke-linecap: round"/>
   </g>
   <g id="line2d_12">
    <path d="M 63.7488 141.67 
L 57.776113 146.789446 
" clip-path="url(#p6fd803b62a)" style="fill: none; stroke: #000000; stroke-width: 2; stroke-linecap: round"/>
   </g>
   <g id="patch_9">
    <path d="M 59.767535 149.112771 
L 51.9678 151.768 
L 55.784691 144.466121 
z
" clip-path="url(#p6fd803b62a)"/>
   </g>
   <g id="line2d_13">
    <path d="M 63.7488 47.32 
L 63.7488 35.08 
" clip-path="url(#p6fd803b62a)" style="fill: none; stroke: #000000; stroke-width: 2; stroke-linecap: round"/>
   </g>
   <g id="line2d_14">
    <path d="M 63.7488 35.08 
L 58.0113 35.08 
" clip-path="url(#p6fd803b62a)" style="fill: none; stroke: #000000; stroke-width: 2; stroke-linecap: round"/>
   </g>
   <g id="line2d_15">
    <path d="M 63.7488 35.08 
L 69.4863 35.08 
" clip-path="url(#p6fd803b62a)" style="fill: none; stroke: #000000; stroke-width: 2; stroke-linecap: round"/>
   </g>
   <g id="line2d_16">
    <path d="M 40.7478 114.538 
L 33.0978 114.538 
L 25.4478 114.538 
" clip-path="url(#p6fd803b62a)" style="fill: none; stroke: #000000; stroke-width: 2; stroke-linecap: round"/>
   </g>
   <g id="line2d_17">
    <path d="M 63.7488 89.956 
L 63.7488 102.196 
L 63.7488 114.436 
" clip-path="url(#p6fd803b62a)" style="fill: none; stroke: #000000; stroke-width: 2; stroke-linecap: round"/>
   </g>
   <g id="line2d_18">
    <path d="M 63.7488 114.436 
L 63.7488 125.248 
L 63.7488 136.06 
" clip-path="url(#p6fd803b62a)" style="fill: none; stroke: #000000; stroke-width: 2; stroke-linecap: round"/>
   </g>
   <g id="line2d_19">
    <path d="M 63.7488 178.696 
L 63.7488 190.936 
" clip-path="url(#p6fd803b62a)" style="fill: none; stroke: #000000; stroke-width: 2; stroke-linecap: round"/>
   </g>
   <g id="line2d_20">
    <path d="M 63.7488 190.936 
L 58.0113 190.936 
" clip-path="url(#p6fd803b62a)" style="fill: none; stroke: #000000; stroke-width: 2; stroke-linecap: round"/>
   </g>
   <g id="line2d_21">
    <path d="M 63.7488 190.936 
L 69.4863 190.936 
" clip-path="url(#p6fd803b62a)" style="fill: none; stroke: #000000; stroke-width: 2; stroke-linecap: round"/>
   </g>
   <g id="line2d_22">
    <path d="M 63.7488 114.436 
L 86.6988 114.436 
L 109.6488 114.436 
" clip-path="url(#p6fd803b62a)" style="fill: none; stroke: #000000; stroke-width: 2; stroke-linecap: round"/>
   </g>
   <g id="line2d_23">
    <path d="M 109.6488 114.436 
L 109.6488 122.086 
L 117.2988 124.636 
L 101.9988 129.736 
L 117.2988 134.836 
L 101.9988 139.936 
L 117.2988 145.036 
L 101.9988 150.136 
L 109.6488 152.686 
L 109.6488 160.336 
" clip-path="url(#p6fd803b62a)" style="fill: none; stroke: #000000; stroke-width: 2; stroke-linecap: round"/>
   </g>
   <g id="line2d_24">
    <path d="M 109.6488 160.336 
L 109.6488 172.576 
L 101.9988 172.576 
L 117.2988 172.576 
M 104.2938 176.248 
L 115.0038 176.248 
M 108.1188 179.92 
L 111.1788 179.92 
" clip-path="url(#p6fd803b62a)" style="fill: none; stroke: #000000; stroke-width: 2; stroke-linecap: round"/>
   </g>
   <g id="line2d_25">
    <path d="M 109.6488 114.436 
L 117.2988 114.436 
L 124.9488 114.436 
" clip-path="url(#p6fd803b62a)" style="fill: none; stroke: #000000; stroke-width: 2; stroke-linecap: round"/>
   </g>
   <g id="text_1">
    <g clip-path="url(#p6fd803b62a)">
     <!-- $V_{DD}$ -->
     <g transform="translate(52.5613 29.420391)scale(0.125 -0.125)">
      <defs>
       <path id="DejaVuSans-Oblique-56" d="M 1319 0 
L 500 4666 
L 1119 4666 
L 1797 653 
L 4063 4666 
L 4750 4666 
L 2053 0 
L 1319 0 
z
" transform="scale(0.015625)"/>
       <path id="DejaVuSans-Oblique-44" d="M 1081 4666 
L 2438 4666 
Q 3519 4666 4070 4208 
Q 4622 3750 4622 2847 
Q 4622 2250 4412 1698 
Q 4203 1147 3834 769 
Q 3463 381 2891 190 
Q 2319 0 1538 0 
L 172 0 
L 1081 4666 
z
M 1613 4147 
L 909 519 
L 1734 519 
Q 2794 519 3375 1128 
Q 3956 1738 3956 2847 
Q 3956 3519 3581 3833 
Q 3206 4147 2406 4147 
L 1613 4147 
z
" transform="scale(0.015625)"/>
      </defs>
      <use xlink:href="#DejaVuSans-Oblique-56" transform="translate(0 0.09375)"/>
      <use xlink:href="#DejaVuSans-Oblique-44" transform="translate(68.408203 -16.3125)scale(0.7)"/>
      <use xlink:href="#DejaVuSans-Oblique-44" transform="translate(122.30957 -16.3125)scale(0.7)"/>
     </g>
    </g>
   </g>
   <g id="text_2">
    <g clip-path="url(#p6fd803b62a)">
     <!-- -$V_{DD}$ -->
     <g transform="translate(50.2488 203.494047)scale(0.125 -0.125)">
      <defs>
       <path id="DejaVuSans-2d" d="M 313 2009 
L 1997 2009 
L 1997 1497 
L 313 1497 
L 313 2009 
z
" transform="scale(0.015625)"/>
      </defs>
      <use xlink:href="#DejaVuSans-2d" transform="translate(0 0.09375)"/>
      <use xlink:href="#DejaVuSans-Oblique-56" transform="translate(36.083984 0.09375)"/>
      <use xlink:href="#DejaVuSans-Oblique-44" transform="translate(104.492188 -16.3125)scale(0.7)"/>
      <use xlink:href="#DejaVuSans-Oblique-44" transform="translate(158.393555 -16.3125)scale(0.7)"/>
     </g>
    </g>
   </g>
   <g id="text_3">
    <g clip-path="url(#p6fd803b62a)">
     <!-- $R_L$ -->
     <g transform="translate(84.9388 140.835219)scale(0.125 -0.125)">
      <defs>
       <path id="DejaVuSans-Oblique-52" d="M 1613 4147 
L 1294 2491 
L 2106 2491 
Q 2584 2491 2879 2755 
Q 3175 3019 3175 3444 
Q 3175 3784 2976 3965 
Q 2778 4147 2406 4147 
L 1613 4147 
z
M 2772 2241 
Q 2972 2194 3105 2009 
Q 3238 1825 3413 1275 
L 3809 0 
L 3144 0 
L 2778 1197 
Q 2638 1659 2453 1815 
Q 2269 1972 1888 1972 
L 1191 1972 
L 806 0 
L 172 0 
L 1081 4666 
L 2503 4666 
Q 3150 4666 3495 4373 
Q 3841 4081 3841 3531 
Q 3841 3044 3547 2687 
Q 3253 2331 2772 2241 
z
" transform="scale(0.015625)"/>
       <path id="DejaVuSans-Oblique-4c" d="M 1075 4666 
L 1709 4666 
L 909 525 
L 3181 525 
L 3078 0 
L 172 0 
L 1075 4666 
z
" transform="scale(0.015625)"/>
      </defs>
      <use xlink:href="#DejaVuSans-Oblique-52" transform="translate(0 0.09375)"/>
      <use xlink:href="#DejaVuSans-Oblique-4c" transform="translate(69.482422 -16.3125)scale(0.7)"/>
     </g>
    </g>
   </g>
   <g id="text_4">
    <g clip-path="url(#p6fd803b62a)">
     <!-- Pull-up -->
     <g style="fill: #008000" transform="translate(115.7688 35.622219)scale(0.125 -0.125)">
      <defs>
       <path id="DejaVuSans-50" d="M 1259 4147 
L 1259 2394 
L 2053 2394 
Q 2494 2394 2734 2622 
Q 2975 2850 2975 3272 
Q 2975 3691 2734 3919 
Q 2494 4147 2053 4147 
L 1259 4147 
z
M 628 4666 
L 2053 4666 
Q 2838 4666 3239 4311 
Q 3641 3956 3641 3272 
Q 3641 2581 3239 2228 
Q 2838 1875 2053 1875 
L 1259 1875 
L 1259 0 
L 628 0 
L 628 4666 
z
" transform="scale(0.015625)"/>
       <path id="DejaVuSans-75" d="M 544 1381 
L 544 3500 
L 1119 3500 
L 1119 1403 
Q 1119 906 1312 657 
Q 1506 409 1894 409 
Q 2359 409 2629 706 
Q 2900 1003 2900 1516 
L 2900 3500 
L 3475 3500 
L 3475 0 
L 2900 0 
L 2900 538 
Q 2691 219 2414 64 
Q 2138 -91 1772 -91 
Q 1169 -91 856 284 
Q 544 659 544 1381 
z
M 1991 3584 
L 1991 3584 
z
" transform="scale(0.015625)"/>
       <path id="DejaVuSans-6c" d="M 603 4863 
L 1178 4863 
L 1178 0 
L 603 0 
L 603 4863 
z
" transform="scale(0.015625)"/>
       <path id="DejaVuSans-70" d="M 1159 525 
L 1159 -1331 
L 581 -1331 
L 581 3500 
L 1159 3500 
L 1159 2969 
Q 1341 3281 1617 3432 
Q 1894 3584 2278 3584 
Q 2916 3584 3314 3078 
Q 3713 2572 3713 1747 
Q 3713 922 3314 415 
Q 2916 -91 2278 -91 
Q 1894 -91 1617 61 
Q 1341 213 1159 525 
z
M 3116 1747 
Q 3116 2381 2855 2742 
Q 2594 3103 2138 3103 
Q 1681 3103 1420 2742 
Q 1159 2381 1159 1747 
Q 1159 1113 1420 752 
Q 1681 391 2138 391 
Q 2594 391 2855 752 
Q 3116 1113 3116 1747 
z
" transform="scale(0.015625)"/>
      </defs>
      <use xlink:href="#DejaVuSans-50"/>
      <use xlink:href="#DejaVuSans-75" x="58.552734"/>
      <use xlink:href="#DejaVuSans-6c" x="121.931641"/>
      <use xlink:href="#DejaVuSans-6c" x="149.714844"/>
      <use xlink:href="#DejaVuSans-2d" x="177.498047"/>
      <use xlink:href="#DejaVuSans-75" x="213.582031"/>
      <use xlink:href="#DejaVuSans-70" x="276.960938"/>
     </g>
    </g>
   </g>
   <g id="text_5">
    <g clip-path="url(#p6fd803b62a)">
     <!-- Pull-down -->
     <g style="fill: #008000" transform="translate(115.7688 197.292219)scale(0.125 -0.125)">
      <defs>
       <path id="DejaVuSans-64" d="M 2906 2969 
L 2906 4863 
L 3481 4863 
L 3481 0 
L 2906 0 
L 2906 525 
Q 2725 213 2448 61 
Q 2172 -91 1784 -91 
Q 1150 -91 751 415 
Q 353 922 353 1747 
Q 353 2572 751 3078 
Q 1150 3584 1784 3584 
Q 2172 3584 2448 3432 
Q 2725 3281 2906 2969 
z
M 947 1747 
Q 947 1113 1208 752 
Q 1469 391 1925 391 
Q 2381 391 2643 752 
Q 2906 1113 2906 1747 
Q 2906 2381 2643 2742 
Q 2381 3103 1925 3103 
Q 1469 3103 1208 2742 
Q 947 2381 947 1747 
z
" transform="scale(0.015625)"/>
       <path id="DejaVuSans-6f" d="M 1959 3097 
Q 1497 3097 1228 2736 
Q 959 2375 959 1747 
Q 959 1119 1226 758 
Q 1494 397 1959 397 
Q 2419 397 2687 759 
Q 2956 1122 2956 1747 
Q 2956 2369 2687 2733 
Q 2419 3097 1959 3097 
z
M 1959 3584 
Q 2709 3584 3137 3096 
Q 3566 2609 3566 1747 
Q 3566 888 3137 398 
Q 2709 -91 1959 -91 
Q 1206 -91 779 398 
Q 353 888 353 1747 
Q 353 2609 779 3096 
Q 1206 3584 1959 3584 
z
" transform="scale(0.015625)"/>
       <path id="DejaVuSans-77" d="M 269 3500 
L 844 3500 
L 1563 769 
L 2278 3500 
L 2956 3500 
L 3675 769 
L 4391 3500 
L 4966 3500 
L 4050 0 
L 3372 0 
L 2619 2869 
L 1863 0 
L 1184 0 
L 269 3500 
z
" transform="scale(0.015625)"/>
       <path id="DejaVuSans-6e" d="M 3513 2113 
L 3513 0 
L 2938 0 
L 2938 2094 
Q 2938 2591 2744 2837 
Q 2550 3084 2163 3084 
Q 1697 3084 1428 2787 
Q 1159 2491 1159 1978 
L 1159 0 
L 581 0 
L 581 3500 
L 1159 3500 
L 1159 2956 
Q 1366 3272 1645 3428 
Q 1925 3584 2291 3584 
Q 2894 3584 3203 3211 
Q 3513 2838 3513 2113 
z
" transform="scale(0.015625)"/>
      </defs>
      <use xlink:href="#DejaVuSans-50"/>
      <use xlink:href="#DejaVuSans-75" x="58.552734"/>
      <use xlink:href="#DejaVuSans-6c" x="121.931641"/>
      <use xlink:href="#DejaVuSans-6c" x="149.714844"/>
      <use xlink:href="#DejaVuSans-2d" x="177.498047"/>
      <use xlink:href="#DejaVuSans-64" x="213.582031"/>
      <use xlink:href="#DejaVuSans-6f" x="277.058594"/>
      <use xlink:href="#DejaVuSans-77" x="338.240234"/>
      <use xlink:href="#DejaVuSans-6e" x="420.027344"/>
     </g>
    </g>
   </g>
   <g id="patch_10">
    <path d="M 40.7478 116.833 
C 41.356441 116.833 41.940236 116.591184 42.37061 116.16081 
C 42.800984 115.730436 43.0428 115.146641 43.0428 114.538 
C 43.0428 113.929359 42.800984 113.345564 42.37061 112.91519 
C 41.940236 112.484816 41.356441 112.243 40.7478 112.243 
C 40.139159 112.243 39.555364 112.484816 39.12499 112.91519 
C 38.694616 113.345564 38.4528 113.929359 38.4528 114.538 
C 38.4528 115.146641 38.694616 115.730436 39.12499 116.16081 
C 39.555364 116.591184 40.139159 116.833 40.7478 116.833 
z
" clip-path="url(#p6fd803b62a)" style="stroke: #000000; stroke-width: 2; stroke-linejoin: miter"/>
   </g>
   <g id="patch_11">
    <path d="M 25.4478 116.833 
C 26.056441 116.833 26.640236 116.591184 27.07061 116.16081 
C 27.500984 115.730436 27.7428 115.146641 27.7428 114.538 
C 27.7428 113.929359 27.500984 113.345564 27.07061 112.91519 
C 26.640236 112.484816 26.056441 112.243 25.4478 112.243 
C 24.839159 112.243 24.255364 112.484816 23.82499 112.91519 
C 23.394616 113.345564 23.1528 113.929359 23.1528 114.538 
C 23.1528 115.146641 23.394616 115.730436 23.82499 116.16081 
C 24.255364 116.591184 24.839159 116.833 25.4478 116.833 
z
" clip-path="url(#p6fd803b62a)" style="fill: #ffffff; stroke: #000000; stroke-width: 2; stroke-linejoin: miter"/>
   </g>
   <g id="text_6">
    <g clip-path="url(#p6fd803b62a)">
     <!-- $v_{in}$ -->
     <g transform="translate(17.5728 106.583391)scale(0.125 -0.125)">
      <defs>
       <path id="DejaVuSans-Oblique-76" d="M 459 3500 
L 1069 3500 
L 1581 525 
L 3256 3500 
L 3866 3500 
L 1875 0 
L 1100 0 
L 459 3500 
z
" transform="scale(0.015625)"/>
       <path id="DejaVuSans-Oblique-69" d="M 1172 4863 
L 1747 4863 
L 1606 4134 
L 1031 4134 
L 1172 4863 
z
M 909 3500 
L 1484 3500 
L 800 0 
L 225 0 
L 909 3500 
z
" transform="scale(0.015625)"/>
       <path id="DejaVuSans-Oblique-6e" d="M 3566 2113 
L 3156 0 
L 2578 0 
L 2988 2091 
Q 3016 2238 3031 2350 
Q 3047 2463 3047 2528 
Q 3047 2791 2881 2937 
Q 2716 3084 2419 3084 
Q 1956 3084 1622 2776 
Q 1288 2469 1184 1941 
L 800 0 
L 225 0 
L 903 3500 
L 1478 3500 
L 1363 2950 
Q 1603 3253 1940 3418 
Q 2278 3584 2650 3584 
Q 3113 3584 3367 3334 
Q 3622 3084 3622 2631 
Q 3622 2519 3608 2391 
Q 3594 2263 3566 2113 
z
" transform="scale(0.015625)"/>
      </defs>
      <use xlink:href="#DejaVuSans-Oblique-76" transform="translate(0 0.3125)"/>
      <use xlink:href="#DejaVuSans-Oblique-69" transform="translate(59.179688 -16.09375)scale(0.7)"/>
      <use xlink:href="#DejaVuSans-Oblique-6e" transform="translate(78.62793 -16.09375)scale(0.7)"/>
     </g>
    </g>
   </g>
   <g id="patch_12">
    <path d="M 63.7488 116.731 
C 64.357441 116.731 64.941236 116.489184 65.37161 116.05881 
C 65.801984 115.628436 66.0438 115.044641 66.0438 114.436 
C 66.0438 113.827359 65.801984 113.243564 65.37161 112.81319 
C 64.941236 112.382816 64.357441 112.141 63.7488 112.141 
C 63.140159 112.141 62.556364 112.382816 62.12599 112.81319 
C 61.695616 113.243564 61.4538 113.827359 61.4538 114.436 
C 61.4538 115.044641 61.695616 115.628436 62.12599 116.05881 
C 62.556364 116.489184 63.140159 116.731 63.7488 116.731 
z
" clip-path="url(#p6fd803b62a)" style="stroke: #000000; stroke-width: 2; stroke-linejoin: miter"/>
   </g>
   <g id="patch_13">
    <path d="M 124.9488 116.731 
C 125.557441 116.731 126.141236 116.489184 126.57161 116.05881 
C 127.001984 115.628436 127.2438 115.044641 127.2438 114.436 
C 127.2438 113.827359 127.001984 113.243564 126.57161 112.81319 
C 126.141236 112.382816 125.557441 112.141 124.9488 112.141 
C 124.340159 112.141 123.756364 112.382816 123.32599 112.81319 
C 122.895616 113.243564 122.6538 113.827359 122.6538 114.436 
C 122.6538 115.044641 122.895616 115.628436 123.32599 116.05881 
C 123.756364 116.489184 124.340159 116.731 124.9488 116.731 
z
" clip-path="url(#p6fd803b62a)" style="fill: #ffffff; stroke: #000000; stroke-width: 2; stroke-linejoin: miter"/>
   </g>
   <g id="text_7">
    <g clip-path="url(#p6fd803b62a)">
     <!-- $v_{out}$ -->
     <g transform="translate(113.8863 106.481391)scale(0.125 -0.125)">
      <defs>
       <path id="DejaVuSans-Oblique-6f" d="M 1625 -91 
Q 1009 -91 651 289 
Q 294 669 294 1325 
Q 294 1706 417 2101 
Q 541 2497 738 2766 
Q 1047 3184 1428 3384 
Q 1809 3584 2291 3584 
Q 2888 3584 3255 3212 
Q 3622 2841 3622 2241 
Q 3622 1825 3500 1412 
Q 3378 1000 3181 728 
Q 2875 309 2494 109 
Q 2113 -91 1625 -91 
z
M 891 1344 
Q 891 869 1089 633 
Q 1288 397 1691 397 
Q 2269 397 2648 901 
Q 3028 1406 3028 2181 
Q 3028 2634 2825 2865 
Q 2622 3097 2228 3097 
Q 1903 3097 1650 2945 
Q 1397 2794 1197 2484 
Q 1050 2253 970 1956 
Q 891 1659 891 1344 
z
" transform="scale(0.015625)"/>
       <path id="DejaVuSans-Oblique-75" d="M 428 1388 
L 838 3500 
L 1416 3500 
L 1006 1409 
Q 975 1256 961 1147 
Q 947 1038 947 966 
Q 947 700 1109 554 
Q 1272 409 1569 409 
Q 2031 409 2368 721 
Q 2706 1034 2809 1563 
L 3194 3500 
L 3769 3500 
L 3091 0 
L 2516 0 
L 2631 550 
Q 2388 244 2052 76 
Q 1716 -91 1338 -91 
Q 878 -91 622 161 
Q 366 413 366 863 
Q 366 956 381 1097 
Q 397 1238 428 1388 
z
" transform="scale(0.015625)"/>
       <path id="DejaVuSans-Oblique-74" d="M 2706 3500 
L 2619 3053 
L 1472 3053 
L 1100 1153 
Q 1081 1047 1072 975 
Q 1063 903 1063 863 
Q 1063 663 1183 572 
Q 1303 481 1569 481 
L 2150 481 
L 2053 0 
L 1503 0 
Q 991 0 739 200 
Q 488 400 488 806 
Q 488 878 497 964 
Q 506 1050 525 1153 
L 897 3053 
L 409 3053 
L 500 3500 
L 978 3500 
L 1172 4494 
L 1747 4494 
L 1556 3500 
L 2706 3500 
z
" transform="scale(0.015625)"/>
      </defs>
      <use xlink:href="#DejaVuSans-Oblique-76" transform="translate(0 0.3125)"/>
      <use xlink:href="#DejaVuSans-Oblique-6f" transform="translate(59.179688 -16.09375)scale(0.7)"/>
      <use xlink:href="#DejaVuSans-Oblique-75" transform="translate(102.006836 -16.09375)scale(0.7)"/>
      <use xlink:href="#DejaVuSans-Oblique-74" transform="translate(146.37207 -16.09375)scale(0.7)"/>
     </g>
    </g>
   </g>
  </g>
 </g>
 <defs>
  <clipPath id="p6fd803b62a">
   <rect x="7.2" y="7.2" width="176.562" height="205.496"/>
  </clipPath>
 </defs>
</svg>
