<?xml version="1.0" encoding="utf-8" standalone="no"?>
<!DOCTYPE svg PUBLIC "-//W3C//DTD SVG 1.1//EN"
  "http://www.w3.org/Graphics/SVG/1.1/DTD/svg11.dtd">
<svg xmlns:xlink="http://www.w3.org/1999/xlink" width="454.932pt" height="278.48pt" viewBox="0 0 454.932 278.48" xmlns="http://www.w3.org/2000/svg" version="1.1">
 <metadata>
  <rdf:RDF xmlns:dc="http://purl.org/dc/elements/1.1/" xmlns:cc="http://creativecommons.org/ns#" xmlns:rdf="http://www.w3.org/1999/02/22-rdf-syntax-ns#">
   <cc:Work>
    <dc:type rdf:resource="http://purl.org/dc/dcmitype/StillImage"/>
    <dc:date>2025-10-05T17:30:05.589248</dc:date>
    <dc:format>image/svg+xml</dc:format>
    <dc:creator>
     <cc:Agent>
      <dc:title>Matplotlib v3.10.6, https://matplotlib.org/</dc:title>
     </cc:Agent>
    </dc:creator>
   </cc:Work>
  </rdf:RDF>
 </metadata>
 <defs>
  <style type="text/css">*{stroke-linejoin: round; stroke-linecap: butt}</style>
 </defs>
 <g id="figure_1">
  <g id="patch_1">
   <path d="M 0 278.48 
L 454.932 278.48 
L 454.932 0 
L 0 0 
z
" style="fill: #ffffff"/>
  </g>
  <g id="axes_1">
   <g id="patch_2">
    <path d="M 44.484 223.76 
C 48.064242 223.76 51.498328 222.337555 54.029942 219.805942 
C 56.561555 217.274328 57.984 213.840242 57.984 210.26 
C 57.984 206.679758 56.561555 203.245672 54.029942 200.714058 
C 51.498328 198.182445 48.064242 196.76 44.484 196.76 
C 40.903758 196.76 37.469672 198.182445 34.938058 200.714058 
C 32.406445 203.245672 30.984 206.679758 30.984 210.26 
C 30.984 213.840242 32.406445 217.274328 34.938058 219.805942 
C 37.469672 222.337555 40.903758 223.76 44.484 223.76 
L 44.484 223.76 
z
" clip-path="url(#p390e94fb92)" style="fill: none; stroke: #000000; stroke-width: 2; stroke-linejoin: miter"/>
   </g>
   <g id="line2d_1">
    <path d="M 152.484 169.76 
L 165.684 169.76 
" clip-path="url(#p390e94fb92)" style="fill: none; stroke: #000000; stroke-width: 2; stroke-linecap: round"/>
   </g>
   <g id="line2d_2">
    <path d="M 165.684 156.56 
L 165.684 182.96 
" clip-path="url(#p390e94fb92)" style="fill: none; stroke: #000000; stroke-width: 2; stroke-linecap: round"/>
   </g>
   <g id="line2d_3">
    <path d="M 165.684 163.16 
L 179.544 151.28 
L 179.544 144.68 
" clip-path="url(#p390e94fb92)" style="fill: none; stroke: #000000; stroke-width: 2; stroke-linecap: round"/>
   </g>
   <g id="line2d_4">
    <path d="M 165.684 176.36 
L 179.544 188.24 
L 179.544 194.84 
" clip-path="url(#p390e94fb92)" style="fill: none; stroke: #000000; stroke-width: 2; stroke-linecap: round"/>
   </g>
   <g id="line2d_5">
    <path d="M 165.684 176.36 
L 172.710691 182.382878 
" clip-path="url(#p390e94fb92)" style="fill: none; stroke: #000000; stroke-width: 2; stroke-linecap: round"/>
   </g>
   <g id="patch_3">
    <path d="M 175.05354 179.649554 
L 179.544 188.24 
L 170.367842 185.116201 
z
" clip-path="url(#p390e94fb92)"/>
   </g>
   <g id="line2d_6">
    <path d="M 152.484 169.76 
L 116.484 169.76 
L 113.484 178.76 
L 107.484 160.76 
L 101.484 178.76 
L 95.484 160.76 
L 89.484 178.76 
L 83.484 160.76 
L 80.484 169.76 
L 44.484 169.76 
" clip-path="url(#p390e94fb92)" style="fill: none; stroke: #000000; stroke-width: 2; stroke-linecap: round"/>
   </g>
   <g id="line2d_7">
    <path d="M 44.484 169.76 
L 44.484 196.76 
L 44.484 196.76 
M 44.484 223.76 
L 44.484 223.76 
L 44.484 250.76 
" clip-path="url(#p390e94fb92)" style="fill: none; stroke: #000000; stroke-width: 2; stroke-linecap: round"/>
   </g>
   <g id="line2d_8">
    <path d="M 41.784 203.51 
L 47.184 203.51 
" clip-path="url(#p390e94fb92)" style="fill: none; stroke: #000000; stroke-width: 2; stroke-linecap: round"/>
   </g>
   <g id="line2d_9">
    <path d="M 44.484 214.31 
L 44.484 219.71 
" clip-path="url(#p390e94fb92)" style="fill: none; stroke: #000000; stroke-width: 2; stroke-linecap: round"/>
   </g>
   <g id="line2d_10">
    <path d="M 41.784 217.01 
L 47.184 217.01 
" clip-path="url(#p390e94fb92)" style="fill: none; stroke: #000000; stroke-width: 2; stroke-linecap: round"/>
   </g>
   <g id="line2d_11">
    <path d="M 44.484 250.76 
L 112.014 250.76 
L 179.544 250.76 
" clip-path="url(#p390e94fb92)" style="fill: none; stroke: #000000; stroke-width: 2; stroke-linecap: round"/>
   </g>
   <g id="line2d_12">
    <path d="M 179.544 250.76 
L 179.544 265.16 
L 170.544 265.16 
L 188.544 265.16 
M 173.244 269.48 
L 185.844 269.48 
M 177.744 273.8 
L 181.344 273.8 
" clip-path="url(#p390e94fb92)" style="fill: none; stroke: #000000; stroke-width: 2; stroke-linecap: round"/>
   </g>
   <g id="line2d_13">
    <path d="M 179.544 250.76 
L 179.544 222.8 
L 179.544 194.84 
" clip-path="url(#p390e94fb92)" style="fill: none; stroke: #000000; stroke-width: 2; stroke-linecap: round"/>
   </g>
   <g id="line2d_14">
    <path d="M 179.544 144.68 
L 179.544 108.68 
L 176.579813 108.54593 
L 173.588893 108.13824 
L 170.822083 107.465999 
L 168.511432 106.560462 
L 167.589692 106.035433 
L 166.850729 105.472453 
L 166.310119 104.880233 
L 165.979256 104.268098 
L 165.865116 103.645793 
L 165.970102 103.02328 
L 166.292004 102.410522 
L 166.824035 101.817277 
L 167.554982 101.252894 
L 168.469436 100.726112 
L 170.768309 99.816175 
L 173.52785 99.138658 
L 176.51662 98.72526 
L 179.483957 98.585528 
L 182.180994 98.706058 
L 184.381535 99.051618 
L 185.901024 99.568102 
L 186.362989 99.869463 
L 186.612023 100.187072 
L 186.642878 100.511077 
L 186.454903 100.831491 
L 186.05206 101.138403 
L 184.640085 101.673708 
L 182.525374 102.046971 
L 179.885284 102.201764 
L 176.941236 102.099981 
L 173.940142 101.725037 
L 171.1337 101.083252 
L 168.757281 100.203329 
L 167.794506 99.688598 
L 167.010192 99.133943 
L 166.420869 98.547898 
L 166.038959 97.939658 
L 165.872513 97.318887 
L 165.925038 96.695513 
L 166.195428 96.079518 
L 166.677983 95.480729 
L 167.362532 94.90861 
L 168.234645 94.372065 
L 170.464471 93.437379 
L 173.180447 92.72994 
L 176.154789 92.283954 
L 179.138044 92.111703 
L 181.88001 92.20251 
L 184.150723 92.523635 
L 185.759742 93.023023 
L 186.271431 93.319064 
L 186.57212 93.633668 
L 186.655471 93.957048 
L 186.519725 94.279232 
L 186.167746 94.590269 
L 185.606952 94.880449 
L 183.910352 95.361772 
L 181.572218 95.657711 
L 178.788645 95.718322 
L 175.793087 95.513398 
L 172.836776 95.035002 
L 170.167655 94.298134 
L 168.009578 93.339469 
L 167.180862 92.793629 
L 166.54354 92.214287 
L 166.111045 91.610498 
L 165.892495 90.991831 
L 165.892495 90.368169 
L 166.111045 89.749502 
L 166.54354 89.145713 
L 167.180862 88.566371 
L 168.009578 88.020531 
L 169.01222 87.51654 
L 171.451527 86.662935 
L 174.294202 86.052021 
L 177.301835 85.709913 
L 180.222178 85.640179 
L 182.810309 85.823543 
L 184.849163 86.219504 
L 186.167746 86.769731 
L 186.519725 87.080768 
L 186.655471 87.402952 
L 186.57212 87.726332 
L 186.271431 88.040936 
L 185.759742 88.336977 
L 184.150723 88.836365 
L 181.88001 89.15749 
L 179.138044 89.248297 
L 176.154789 89.076046 
L 173.180447 88.63006 
L 170.464471 87.922621 
L 168.234645 86.987935 
L 167.362532 86.45139 
L 166.677983 85.879271 
L 166.195428 85.280482 
L 165.925038 84.664487 
L 165.872513 84.041113 
L 166.038959 83.420342 
L 166.420869 82.812102 
L 167.010192 82.226057 
L 167.794506 81.671402 
L 168.757281 81.156671 
L 171.1337 80.276748 
L 173.940142 79.634963 
L 176.941236 79.260019 
L 179.885284 79.158236 
L 182.525374 79.313029 
L 184.640085 79.686292 
L 186.05206 80.221597 
L 186.454903 80.528509 
L 186.642878 80.848923 
L 186.612023 81.172928 
L 186.362989 81.490537 
L 185.901024 81.791898 
L 184.381535 82.308382 
L 182.180994 82.653942 
L 179.483957 82.774472 
L 176.51662 82.63474 
L 173.52785 82.221342 
L 170.768309 81.543825 
L 168.469436 80.633888 
L 167.554982 80.107106 
L 166.824035 79.542723 
L 166.292004 78.949478 
L 165.970102 78.33672 
L 165.865116 77.714207 
L 165.979256 77.091902 
L 166.310119 76.479767 
L 166.850729 75.887547 
L 167.589692 75.324567 
L 168.511432 74.799538 
L 170.822083 73.894001 
L 173.588893 73.22176 
L 176.579813 72.81407 
L 179.544 72.68 
L 179.544 36.68 
L 179.544 36.68 
" clip-path="url(#p390e94fb92)" style="fill: none; stroke: #000000; stroke-width: 2; stroke-linecap: round"/>
   </g>
   <g id="line2d_15">
    <path d="M 179.544 36.68 
L 179.544 22.28 
" clip-path="url(#p390e94fb92)" style="fill: none; stroke: #000000; stroke-width: 2; stroke-linecap: round"/>
   </g>
   <g id="line2d_16">
    <path d="M 179.544 22.28 
L 172.794 22.28 
" clip-path="url(#p390e94fb92)" style="fill: none; stroke: #000000; stroke-width: 2; stroke-linecap: round"/>
   </g>
   <g id="line2d_17">
    <path d="M 179.544 22.28 
L 186.294 22.28 
" clip-path="url(#p390e94fb92)" style="fill: none; stroke: #000000; stroke-width: 2; stroke-linecap: round"/>
   </g>
   <g id="line2d_18">
    <path d="M 179.544 144.68 
L 230.304 144.68 
M 230.304 135.68 
L 230.304 153.68 
M 236.784 135.68 
L 236.784 153.68 
M 236.784 144.68 
L 287.544 144.68 
" clip-path="url(#p390e94fb92)" style="fill: none; stroke: #000000; stroke-width: 2; stroke-linecap: round"/>
   </g>
   <g id="line2d_19">
    <path d="M 287.544 144.68 
L 287.544 180.68 
L 290.508187 180.81407 
L 293.499107 181.22176 
L 296.265917 181.894001 
L 298.576568 182.799538 
L 299.498308 183.324567 
L 300.237271 183.887547 
L 300.777881 184.479767 
L 301.108744 185.091902 
L 301.222884 185.714207 
L 301.117898 186.33672 
L 300.795996 186.949478 
L 300.263965 187.542723 
L 299.533018 188.107106 
L 298.618564 188.633888 
L 296.319691 189.543825 
L 293.56015 190.221342 
L 290.57138 190.63474 
L 287.604043 190.774472 
L 284.907006 190.653942 
L 282.706465 190.308382 
L 281.186976 189.791898 
L 280.725011 189.490537 
L 280.475977 189.172928 
L 280.445122 188.848923 
L 280.633097 188.528509 
L 281.03594 188.221597 
L 282.447915 187.686292 
L 284.562626 187.313029 
L 287.202716 187.158236 
L 290.146764 187.260019 
L 293.147858 187.634963 
L 295.9543 188.276748 
L 298.330719 189.156671 
L 299.293494 189.671402 
L 300.077808 190.226057 
L 300.667131 190.812102 
L 301.049041 191.420342 
L 301.215487 192.041113 
L 301.162962 192.664487 
L 300.892572 193.280482 
L 300.410017 193.879271 
L 299.725468 194.45139 
L 298.853355 194.987935 
L 296.623529 195.922621 
L 293.907553 196.63006 
L 290.933211 197.076046 
L 287.949956 197.248297 
L 285.20799 197.15749 
L 282.937277 196.836365 
L 281.328258 196.336977 
L 280.816569 196.040936 
L 280.51588 195.726332 
L 280.432529 195.402952 
L 280.568275 195.080768 
L 280.920254 194.769731 
L 281.481048 194.479551 
L 283.177648 193.998228 
L 285.515782 193.702289 
L 288.299355 193.641678 
L 291.294913 193.846602 
L 294.251224 194.324998 
L 296.920345 195.061866 
L 299.078422 196.020531 
L 299.907138 196.566371 
L 300.54446 197.145713 
L 300.976955 197.749502 
L 301.195505 198.368169 
L 301.195505 198.991831 
L 300.976955 199.610498 
L 300.54446 200.214287 
L 299.907138 200.793629 
L 299.078422 201.339469 
L 298.07578 201.84346 
L 295.636473 202.697065 
L 292.793798 203.307979 
L 289.786165 203.650087 
L 286.865822 203.719821 
L 284.277691 203.536457 
L 282.238837 203.140496 
L 280.920254 202.590269 
L 280.568275 202.279232 
L 280.432529 201.957048 
L 280.51588 201.633668 
L 280.816569 201.319064 
L 281.328258 201.023023 
L 282.937277 200.523635 
L 285.20799 200.20251 
L 287.949956 200.111703 
L 290.933211 200.283954 
L 293.907553 200.72994 
L 296.623529 201.437379 
L 298.853355 202.372065 
L 299.725468 202.90861 
L 300.410017 203.480729 
L 300.892572 204.079518 
L 301.162962 204.695513 
L 301.215487 205.318887 
L 301.049041 205.939658 
L 300.667131 206.547898 
L 300.077808 207.133943 
L 299.293494 207.688598 
L 298.330719 208.203329 
L 295.9543 209.083252 
L 293.147858 209.725037 
L 290.146764 210.099981 
L 287.202716 210.201764 
L 284.562626 210.046971 
L 282.447915 209.673708 
L 281.03594 209.138403 
L 280.633097 208.831491 
L 280.445122 208.511077 
L 280.475977 208.187072 
L 280.725011 207.869463 
L 281.186976 207.568102 
L 282.706465 207.051618 
L 284.907006 206.706058 
L 287.604043 206.585528 
L 290.57138 206.72526 
L 293.56015 207.138658 
L 296.319691 207.816175 
L 298.618564 208.726112 
L 299.533018 209.252894 
L 300.263965 209.817277 
L 300.795996 210.410522 
L 301.117898 211.02328 
L 301.222884 211.645793 
L 301.108744 212.268098 
L 300.777881 212.880233 
L 300.237271 213.472453 
L 299.498308 214.035433 
L 298.576568 214.560462 
L 296.265917 215.465999 
L 293.499107 216.13824 
L 290.508187 216.54593 
L 287.544 216.68 
L 287.544 252.68 
L 287.544 252.68 
" clip-path="url(#p390e94fb92)" style="fill: none; stroke: #000000; stroke-width: 2; stroke-linecap: round"/>
   </g>
   <g id="line2d_20">
    <path d="M 287.544 144.68 
L 314.544 144.68 
L 341.544 144.68 
" clip-path="url(#p390e94fb92)" style="fill: none; stroke: #000000; stroke-width: 2; stroke-linecap: round"/>
   </g>
   <g id="line2d_21">
    <path d="M 341.544 144.68 
L 341.544 195.44 
M 350.544 195.44 
L 332.544 195.44 
M 350.544 201.92 
L 332.544 201.92 
M 341.544 201.92 
L 341.544 252.68 
" clip-path="url(#p390e94fb92)" style="fill: none; stroke: #000000; stroke-width: 2; stroke-linecap: round"/>
   </g>
   <g id="line2d_22">
    <path d="M 341.544 144.68 
L 368.544 144.68 
L 395.544 144.68 
" clip-path="url(#p390e94fb92)" style="fill: none; stroke: #000000; stroke-width: 2; stroke-linecap: round"/>
   </g>
   <g id="line2d_23">
    <path d="M 395.544 144.68 
L 395.544 180.68 
L 404.544 183.68 
L 386.544 189.68 
L 404.544 195.68 
L 386.544 201.68 
L 404.544 207.68 
L 386.544 213.68 
L 395.544 216.68 
L 395.544 252.68 
" clip-path="url(#p390e94fb92)" style="fill: none; stroke: #000000; stroke-width: 2; stroke-linecap: round"/>
   </g>
   <g id="line2d_24">
    <path d="M 395.544 144.68 
L 404.544 144.68 
L 413.544 144.68 
" clip-path="url(#p390e94fb92)" style="fill: none; stroke: #000000; stroke-width: 2; stroke-linecap: round"/>
   </g>
   <g id="line2d_25">
    <path d="M 395.544 252.68 
L 368.544 252.68 
L 341.544 252.68 
" clip-path="url(#p390e94fb92)" style="fill: none; stroke: #000000; stroke-width: 2; stroke-linecap: round"/>
   </g>
   <g id="line2d_26">
    <path d="M 341.544 252.68 
L 314.544 252.68 
L 287.544 252.68 
" clip-path="url(#p390e94fb92)" style="fill: none; stroke: #000000; stroke-width: 2; stroke-linecap: round"/>
   </g>
   <g id="line2d_27">
    <path d="M 287.544 252.68 
L 233.544 252.68 
L 179.544 252.68 
" clip-path="url(#p390e94fb92)" style="fill: none; stroke: #000000; stroke-width: 2; stroke-linecap: round"/>
   </g>
   <g id="text_1">
    <!-- $R_{in}$ -->
    <g transform="translate(88.894 154.248438) scale(0.14 -0.14)">
     <defs>
      <path id="DejaVuSans-Oblique-52" d="M 1613 4147 
L 1294 2491 
L 2106 2491 
Q 2584 2491 2879 2755 
Q 3175 3019 3175 3444 
Q 3175 3784 2976 3965 
Q 2778 4147 2406 4147 
L 1613 4147 
z
M 2772 2241 
Q 2972 2194 3105 2009 
Q 3238 1825 3413 1275 
L 3809 0 
L 3144 0 
L 2778 1197 
Q 2638 1659 2453 1815 
Q 2269 1972 1888 1972 
L 1191 1972 
L 806 0 
L 172 0 
L 1081 4666 
L 2503 4666 
Q 3150 4666 3495 4373 
Q 3841 4081 3841 3531 
Q 3841 3044 3547 2687 
Q 3253 2331 2772 2241 
z
" transform="scale(0.015625)"/>
      <path id="DejaVuSans-Oblique-69" d="M 1172 4863 
L 1747 4863 
L 1606 4134 
L 1031 4134 
L 1172 4863 
z
M 909 3500 
L 1484 3500 
L 800 0 
L 225 0 
L 909 3500 
z
" transform="scale(0.015625)"/>
      <path id="DejaVuSans-Oblique-6e" d="M 3566 2113 
L 3156 0 
L 2578 0 
L 2988 2091 
Q 3016 2238 3031 2350 
Q 3047 2463 3047 2528 
Q 3047 2791 2881 2937 
Q 2716 3084 2419 3084 
Q 1956 3084 1622 2776 
Q 1288 2469 1184 1941 
L 800 0 
L 225 0 
L 903 3500 
L 1478 3500 
L 1363 2950 
Q 1603 3253 1940 3418 
Q 2278 3584 2650 3584 
Q 3113 3584 3367 3334 
Q 3622 3084 3622 2631 
Q 3622 2519 3608 2391 
Q 3594 2263 3566 2113 
z
" transform="scale(0.015625)"/>
     </defs>
     <use xlink:href="#DejaVuSans-Oblique-52" transform="translate(0 0.09375)"/>
     <use xlink:href="#DejaVuSans-Oblique-69" transform="translate(69.482422 -16.3125) scale(0.7)"/>
     <use xlink:href="#DejaVuSans-Oblique-6e" transform="translate(88.930664 -16.3125) scale(0.7)"/>
    </g>
   </g>
   <g id="text_2">
    <!-- $V_{in}$ -->
    <g transform="translate(9.384 214.123125) scale(0.14 -0.14)">
     <defs>
      <path id="DejaVuSans-Oblique-56" d="M 1319 0 
L 500 4666 
L 1119 4666 
L 1797 653 
L 4063 4666 
L 4750 4666 
L 2053 0 
L 1319 0 
z
" transform="scale(0.015625)"/>
     </defs>
     <use xlink:href="#DejaVuSans-Oblique-56" transform="translate(0 0.09375)"/>
     <use xlink:href="#DejaVuSans-Oblique-69" transform="translate(68.408203 -16.3125) scale(0.7)"/>
     <use xlink:href="#DejaVuSans-Oblique-6e" transform="translate(87.856445 -16.3125) scale(0.7)"/>
    </g>
   </g>
   <g id="text_3">
    <!-- $L_2$ -->
    <g transform="translate(147.845116 94.543125) scale(0.14 -0.14)">
     <defs>
      <path id="DejaVuSans-Oblique-4c" d="M 1075 4666 
L 1709 4666 
L 909 525 
L 3181 525 
L 3078 0 
L 172 0 
L 1075 4666 
z
" transform="scale(0.015625)"/>
      <path id="DejaVuSans-32" d="M 1228 531 
L 3431 531 
L 3431 0 
L 469 0 
L 469 531 
Q 828 903 1448 1529 
Q 2069 2156 2228 2338 
Q 2531 2678 2651 2914 
Q 2772 3150 2772 3378 
Q 2772 3750 2511 3984 
Q 2250 4219 1831 4219 
Q 1534 4219 1204 4116 
Q 875 4013 500 3803 
L 500 4441 
Q 881 4594 1212 4672 
Q 1544 4750 1819 4750 
Q 2544 4750 2975 4387 
Q 3406 4025 3406 3419 
Q 3406 3131 3298 2873 
Q 3191 2616 2906 2266 
Q 2828 2175 2409 1742 
Q 1991 1309 1228 531 
z
" transform="scale(0.015625)"/>
     </defs>
     <use xlink:href="#DejaVuSans-Oblique-4c" transform="translate(0 0.09375)"/>
     <use xlink:href="#DejaVuSans-32" transform="translate(55.712891 -16.3125) scale(0.7)"/>
    </g>
   </g>
   <g id="text_4">
    <!-- $V_{dd}$ -->
    <g transform="translate(168.274 15.768438) scale(0.14 -0.14)">
     <defs>
      <path id="DejaVuSans-Oblique-64" d="M 2675 525 
Q 2444 222 2128 65 
Q 1813 -91 1428 -91 
Q 903 -91 598 267 
Q 294 625 294 1247 
Q 294 1766 478 2236 
Q 663 2706 1013 3078 
Q 1244 3325 1534 3454 
Q 1825 3584 2144 3584 
Q 2481 3584 2739 3421 
Q 2997 3259 3138 2956 
L 3513 4863 
L 4091 4863 
L 3144 0 
L 2566 0 
L 2675 525 
z
M 891 1350 
Q 891 897 1095 644 
Q 1300 391 1663 391 
Q 1931 391 2161 520 
Q 2391 650 2566 903 
Q 2750 1166 2856 1509 
Q 2963 1853 2963 2188 
Q 2963 2622 2758 2865 
Q 2553 3109 2194 3109 
Q 1922 3109 1687 2981 
Q 1453 2853 1288 2613 
Q 1106 2353 998 2009 
Q 891 1666 891 1350 
z
" transform="scale(0.015625)"/>
     </defs>
     <use xlink:href="#DejaVuSans-Oblique-56" transform="translate(0 0.09375)"/>
     <use xlink:href="#DejaVuSans-Oblique-64" transform="translate(68.408203 -16.3125) scale(0.7)"/>
     <use xlink:href="#DejaVuSans-Oblique-64" transform="translate(112.841797 -16.3125) scale(0.7)"/>
    </g>
   </g>
   <g id="text_5">
    <!-- $C_2$ -->
    <g transform="translate(225.284 129.168438) scale(0.14 -0.14)">
     <defs>
      <path id="DejaVuSans-Oblique-43" d="M 4447 4306 
L 4319 3641 
Q 4019 3944 3683 4091 
Q 3347 4238 2956 4238 
Q 2422 4238 2017 3981 
Q 1613 3725 1319 3200 
Q 1131 2863 1032 2486 
Q 934 2109 934 1728 
Q 934 1091 1264 756 
Q 1594 422 2222 422 
Q 2656 422 3056 561 
Q 3456 700 3834 978 
L 3688 231 
Q 3316 72 2936 -9 
Q 2556 -91 2175 -91 
Q 1278 -91 773 396 
Q 269 884 269 1753 
Q 269 2309 461 2846 
Q 653 3384 1013 3828 
Q 1394 4300 1883 4525 
Q 2372 4750 3022 4750 
Q 3422 4750 3780 4639 
Q 4138 4528 4447 4306 
z
" transform="scale(0.015625)"/>
     </defs>
     <use xlink:href="#DejaVuSans-Oblique-43" transform="translate(0 0.78125)"/>
     <use xlink:href="#DejaVuSans-32" transform="translate(69.824219 -15.625) scale(0.7)"/>
    </g>
   </g>
   <g id="text_6">
    <!-- $L_1$ -->
    <g transform="translate(262.412529 202.543125) scale(0.14 -0.14)">
     <defs>
      <path id="DejaVuSans-31" d="M 794 531 
L 1825 531 
L 1825 4091 
L 703 3866 
L 703 4441 
L 1819 4666 
L 2450 4666 
L 2450 531 
L 3481 531 
L 3481 0 
L 794 0 
L 794 531 
z
" transform="scale(0.015625)"/>
     </defs>
     <use xlink:href="#DejaVuSans-Oblique-4c" transform="translate(0 0.09375)"/>
     <use xlink:href="#DejaVuSans-31" transform="translate(55.712891 -16.3125) scale(0.7)"/>
    </g>
   </g>
   <g id="text_7">
    <!-- $C_1$ -->
    <g transform="translate(312.424 202.543125) scale(0.14 -0.14)">
     <use xlink:href="#DejaVuSans-Oblique-43" transform="translate(0 0.78125)"/>
     <use xlink:href="#DejaVuSans-31" transform="translate(69.824219 -15.625) scale(0.7)"/>
    </g>
   </g>
   <g id="text_8">
    <!-- $R_L$ -->
    <g transform="translate(367.264 202.543125) scale(0.14 -0.14)">
     <use xlink:href="#DejaVuSans-Oblique-52" transform="translate(0 0.09375)"/>
     <use xlink:href="#DejaVuSans-Oblique-4c" transform="translate(69.482422 -16.3125) scale(0.7)"/>
    </g>
   </g>
   <g id="patch_4">
    <path d="M 179.544 147.38 
C 180.260048 147.38 180.946866 147.095511 181.453188 146.589188 
C 181.959511 146.082866 182.244 145.396048 182.244 144.68 
C 182.244 143.963952 181.959511 143.277134 181.453188 142.770812 
C 180.946866 142.264489 180.260048 141.98 179.544 141.98 
C 178.827952 141.98 178.141134 142.264489 177.634812 142.770812 
C 177.128489 143.277134 176.844 143.963952 176.844 144.68 
C 176.844 145.396048 177.128489 146.082866 177.634812 146.589188 
C 178.141134 147.095511 178.827952 147.38 179.544 147.38 
z
" clip-path="url(#p390e94fb92)" style="stroke: #000000; stroke-width: 2; stroke-linejoin: miter"/>
   </g>
   <g id="patch_5">
    <path d="M 413.544 147.38 
C 414.260048 147.38 414.946866 147.095511 415.453188 146.589188 
C 415.959511 146.082866 416.244 145.396048 416.244 144.68 
C 416.244 143.963952 415.959511 143.277134 415.453188 142.770812 
C 414.946866 142.264489 414.260048 141.98 413.544 141.98 
C 412.827952 141.98 412.141134 142.264489 411.634812 142.770812 
C 411.128489 143.277134 410.844 143.963952 410.844 144.68 
C 410.844 145.396048 411.128489 146.082866 411.634812 146.589188 
C 412.141134 147.095511 412.827952 147.38 413.544 147.38 
z
" clip-path="url(#p390e94fb92)" style="fill: #ffffff; stroke: #000000; stroke-width: 2; stroke-linejoin: miter"/>
   </g>
   <g id="text_9">
    <!-- $v_{out}$ -->
    <g transform="translate(419.844 148.543125) scale(0.14 -0.14)">
     <defs>
      <path id="DejaVuSans-Oblique-76" d="M 459 3500 
L 1069 3500 
L 1581 525 
L 3256 3500 
L 3866 3500 
L 1875 0 
L 1100 0 
L 459 3500 
z
" transform="scale(0.015625)"/>
      <path id="DejaVuSans-Oblique-6f" d="M 1625 -91 
Q 1009 -91 651 289 
Q 294 669 294 1325 
Q 294 1706 417 2101 
Q 541 2497 738 2766 
Q 1047 3184 1428 3384 
Q 1809 3584 2291 3584 
Q 2888 3584 3255 3212 
Q 3622 2841 3622 2241 
Q 3622 1825 3500 1412 
Q 3378 1000 3181 728 
Q 2875 309 2494 109 
Q 2113 -91 1625 -91 
z
M 891 1344 
Q 891 869 1089 633 
Q 1288 397 1691 397 
Q 2269 397 2648 901 
Q 3028 1406 3028 2181 
Q 3028 2634 2825 2865 
Q 2622 3097 2228 3097 
Q 1903 3097 1650 2945 
Q 1397 2794 1197 2484 
Q 1050 2253 970 1956 
Q 891 1659 891 1344 
z
" transform="scale(0.015625)"/>
      <path id="DejaVuSans-Oblique-75" d="M 428 1388 
L 838 3500 
L 1416 3500 
L 1006 1409 
Q 975 1256 961 1147 
Q 947 1038 947 966 
Q 947 700 1109 554 
Q 1272 409 1569 409 
Q 2031 409 2368 721 
Q 2706 1034 2809 1563 
L 3194 3500 
L 3769 3500 
L 3091 0 
L 2516 0 
L 2631 550 
Q 2388 244 2052 76 
Q 1716 -91 1338 -91 
Q 878 -91 622 161 
Q 366 413 366 863 
Q 366 956 381 1097 
Q 397 1238 428 1388 
z
" transform="scale(0.015625)"/>
      <path id="DejaVuSans-Oblique-74" d="M 2706 3500 
L 2619 3053 
L 1472 3053 
L 1100 1153 
Q 1081 1047 1072 975 
Q 1063 903 1063 863 
Q 1063 663 1183 572 
Q 1303 481 1569 481 
L 2150 481 
L 2053 0 
L 1503 0 
Q 991 0 739 200 
Q 488 400 488 806 
Q 488 878 497 964 
Q 506 1050 525 1153 
L 897 3053 
L 409 3053 
L 500 3500 
L 978 3500 
L 1172 4494 
L 1747 4494 
L 1556 3500 
L 2706 3500 
z
" transform="scale(0.015625)"/>
     </defs>
     <use xlink:href="#DejaVuSans-Oblique-76" transform="translate(0 0.3125)"/>
     <use xlink:href="#DejaVuSans-Oblique-6f" transform="translate(59.179688 -16.09375) scale(0.7)"/>
     <use xlink:href="#DejaVuSans-Oblique-75" transform="translate(102.006836 -16.09375) scale(0.7)"/>
     <use xlink:href="#DejaVuSans-Oblique-74" transform="translate(146.37207 -16.09375) scale(0.7)"/>
    </g>
   </g>
   <g id="patch_6">
    <path d="M 341.544 255.38 
C 342.260048 255.38 342.946866 255.095511 343.453188 254.589188 
C 343.959511 254.082866 344.244 253.396048 344.244 252.68 
C 344.244 251.963952 343.959511 251.277134 343.453188 250.770812 
C 342.946866 250.264489 342.260048 249.98 341.544 249.98 
C 340.827952 249.98 340.141134 250.264489 339.634812 250.770812 
C 339.128489 251.277134 338.844 251.963952 338.844 252.68 
C 338.844 253.396048 339.128489 254.082866 339.634812 254.589188 
C 340.141134 255.095511 340.827952 255.38 341.544 255.38 
z
" clip-path="url(#p390e94fb92)" style="stroke: #000000; stroke-width: 2; stroke-linejoin: miter"/>
   </g>
   <g id="patch_7">
    <path d="M 287.544 255.38 
C 288.260048 255.38 288.946866 255.095511 289.453188 254.589188 
C 289.959511 254.082866 290.244 253.396048 290.244 252.68 
C 290.244 251.963952 289.959511 251.277134 289.453188 250.770812 
C 288.946866 250.264489 288.260048 249.98 287.544 249.98 
C 286.827952 249.98 286.141134 250.264489 285.634812 250.770812 
C 285.128489 251.277134 284.844 251.963952 284.844 252.68 
C 284.844 253.396048 285.128489 254.082866 285.634812 254.589188 
C 286.141134 255.095511 286.827952 255.38 287.544 255.38 
z
" clip-path="url(#p390e94fb92)" style="stroke: #000000; stroke-width: 2; stroke-linejoin: miter"/>
   </g>
   <g id="patch_8">
    <path d="M 179.544 255.38 
C 180.260048 255.38 180.946866 255.095511 181.453188 254.589188 
C 181.959511 254.082866 182.244 253.396048 182.244 252.68 
C 182.244 251.963952 181.959511 251.277134 181.453188 250.770812 
C 180.946866 250.264489 180.260048 249.98 179.544 249.98 
C 178.827952 249.98 178.141134 250.264489 177.634812 250.770812 
C 177.128489 251.277134 176.844 251.963952 176.844 252.68 
C 176.844 253.396048 177.128489 254.082866 177.634812 254.589188 
C 178.141134 255.095511 178.827952 255.38 179.544 255.38 
z
" clip-path="url(#p390e94fb92)" style="stroke: #000000; stroke-width: 2; stroke-linejoin: miter"/>
   </g>
  </g>
 </g>
 <defs>
  <clipPath id="p390e94fb92">
   <rect x="0" y="0" width="454.932" height="278.48"/>
  </clipPath>
 </defs>
</svg>