<?xml version="1.0" encoding="utf-8" standalone="no"?>
<!DOCTYPE svg PUBLIC "-//W3C//DTD SVG 1.1//EN"
  "http://www.w3.org/Graphics/SVG/1.1/DTD/svg11.dtd">
<svg xmlns:xlink="http://www.w3.org/1999/xlink" width="437.76pt" height="286.993656pt" viewBox="0 0 437.76 286.993656" xmlns="http://www.w3.org/2000/svg" version="1.1">
 <metadata>
  <rdf:RDF xmlns:dc="http://purl.org/dc/elements/1.1/" xmlns:cc="http://creativecommons.org/ns#" xmlns:rdf="http://www.w3.org/1999/02/22-rdf-syntax-ns#">
   <cc:Work>
    <dc:type rdf:resource="http://purl.org/dc/dcmitype/StillImage"/>
    <dc:date>2023-09-25T21:01:53.254913</dc:date>
    <dc:format>image/svg+xml</dc:format>
    <dc:creator>
     <cc:Agent>
      <dc:title>Matplotlib v3.6.3, https://matplotlib.org/</dc:title>
     </cc:Agent>
    </dc:creator>
   </cc:Work>
  </rdf:RDF>
 </metadata>
 <defs>
  <style type="text/css">*{stroke-linejoin: round; stroke-linecap: butt}</style>
 </defs>
 <g id="figure_1">
  <g id="patch_1">
   <path d="M 0 286.993656 
L 437.76 286.993656 
L 437.76 0 
L 0 0 
z
" style="fill: #ffffff"/>
  </g>
  <g id="axes_1">
   <g id="patch_2">
    <path d="M 36.675 220.777656 
C 40.255242 220.777656 43.689328 219.355211 46.220942 216.823598 
C 48.752555 214.291985 50.175 210.857898 50.175 207.277656 
C 50.175 203.697414 48.752555 200.263328 46.220942 197.731715 
C 43.689328 195.200101 40.255242 193.777656 36.675 193.777656 
C 33.094758 193.777656 29.660672 195.200101 27.129058 197.731715 
C 24.597445 200.263328 23.175 203.697414 23.175 207.277656 
C 23.175 210.857898 24.597445 214.291985 27.129058 216.823598 
C 29.660672 219.355211 33.094758 220.777656 36.675 220.777656 
L 36.675 220.777656 
z
" clip-path="url(#p467e56799f)" style="fill: none; stroke: #000000; stroke-width: 2; stroke-linejoin: miter"/>
   </g>
   <g id="line2d_1">
    <path d="M 144.675 166.777656 
L 157.875 166.777656 
" clip-path="url(#p467e56799f)" style="fill: none; stroke: #000000; stroke-width: 2; stroke-linecap: round"/>
   </g>
   <g id="line2d_2">
    <path d="M 157.875 153.577656 
L 157.875 179.977656 
" clip-path="url(#p467e56799f)" style="fill: none; stroke: #000000; stroke-width: 2; stroke-linecap: round"/>
   </g>
   <g id="line2d_3">
    <path d="M 157.875 160.177656 
L 171.735 148.297656 
L 171.735 141.697656 
" clip-path="url(#p467e56799f)" style="fill: none; stroke: #000000; stroke-width: 2; stroke-linecap: round"/>
   </g>
   <g id="line2d_4">
    <path d="M 157.875 173.377656 
L 171.735 185.257656 
L 171.735 191.857656 
" clip-path="url(#p467e56799f)" style="fill: none; stroke: #000000; stroke-width: 2; stroke-linecap: round"/>
   </g>
   <g id="line2d_5">
    <path d="M 157.875 173.377656 
L 164.901691 179.400534 
" clip-path="url(#p467e56799f)" style="fill: none; stroke: #000000; stroke-width: 2; stroke-linecap: round"/>
   </g>
   <g id="patch_3">
    <path d="M 167.24454 176.66721 
L 171.735 185.257656 
L 162.558842 182.133858 
z
" clip-path="url(#p467e56799f)"/>
   </g>
   <g id="line2d_6">
    <path d="M 144.675 166.777656 
L 108.675 166.777656 
L 105.675 175.777656 
L 99.675 157.777656 
L 93.675 175.777656 
L 87.675 157.777656 
L 81.675 175.777656 
L 75.675 157.777656 
L 72.675 166.777656 
L 36.675 166.777656 
" clip-path="url(#p467e56799f)" style="fill: none; stroke: #000000; stroke-width: 2; stroke-linecap: round"/>
   </g>
   <g id="line2d_7">
    <path d="M 36.675 166.777656 
L 36.675 193.777656 
L 36.675 193.777656 
M 36.675 220.777656 
L 36.675 220.777656 
L 36.675 247.777656 
" clip-path="url(#p467e56799f)" style="fill: none; stroke: #000000; stroke-width: 2; stroke-linecap: round"/>
   </g>
   <g id="line2d_8">
    <path d="M 33.975 200.527656 
L 39.375 200.527656 
" clip-path="url(#p467e56799f)" style="fill: none; stroke: #000000; stroke-width: 2; stroke-linecap: round"/>
   </g>
   <g id="line2d_9">
    <path d="M 36.675 211.327656 
L 36.675 216.727656 
" clip-path="url(#p467e56799f)" style="fill: none; stroke: #000000; stroke-width: 2; stroke-linecap: round"/>
   </g>
   <g id="line2d_10">
    <path d="M 33.975 214.027656 
L 39.375 214.027656 
" clip-path="url(#p467e56799f)" style="fill: none; stroke: #000000; stroke-width: 2; stroke-linecap: round"/>
   </g>
   <g id="line2d_11">
    <path d="M 36.675 247.777656 
L 104.205 247.777656 
L 171.735 247.777656 
" clip-path="url(#p467e56799f)" style="fill: none; stroke: #000000; stroke-width: 2; stroke-linecap: round"/>
   </g>
   <g id="line2d_12">
    <path d="M 171.735 247.777656 
L 171.735 262.177656 
L 162.735 262.177656 
L 180.735 262.177656 
M 165.435 266.497656 
L 178.035 266.497656 
M 169.935 270.817656 
L 173.535 270.817656 
" clip-path="url(#p467e56799f)" style="fill: none; stroke: #000000; stroke-width: 2; stroke-linecap: round"/>
   </g>
   <g id="line2d_13">
    <path d="M 171.735 247.777656 
L 171.735 219.817656 
L 171.735 191.857656 
" clip-path="url(#p467e56799f)" style="fill: none; stroke: #000000; stroke-width: 2; stroke-linecap: round"/>
   </g>
   <g id="line2d_14">
    <path d="M 171.735 141.697656 
L 171.735 105.697656 
L 168.770813 105.563587 
L 165.779893 105.155897 
L 163.013083 104.483655 
L 160.702432 103.578118 
L 159.780692 103.053089 
L 159.041729 102.490109 
L 158.501119 101.897889 
L 158.170256 101.285754 
L 158.056116 100.66345 
L 158.161102 100.040936 
L 158.483004 99.428178 
L 159.015035 98.834934 
L 159.745982 98.270551 
L 160.660436 97.743768 
L 162.959309 96.833831 
L 165.71885 96.156314 
L 168.70762 95.742916 
L 171.674957 95.603184 
L 174.371994 95.723714 
L 176.572535 96.069274 
L 178.092024 96.585759 
L 178.553989 96.88712 
L 178.803023 97.204728 
L 178.833878 97.528733 
L 178.645903 97.849147 
L 178.24306 98.15606 
L 176.831085 98.691364 
L 174.716374 99.064627 
L 172.076284 99.21942 
L 169.132236 99.117638 
L 166.131142 98.742693 
L 163.3247 98.100908 
L 160.948281 97.220986 
L 159.985506 96.706255 
L 159.201192 96.151599 
L 158.611869 95.565554 
L 158.229959 94.957314 
L 158.063513 94.336543 
L 158.116038 93.713169 
L 158.386428 93.097174 
L 158.868983 92.498385 
L 159.553532 91.926267 
L 160.425645 91.389721 
L 162.655471 90.455036 
L 165.371447 89.747596 
L 168.345789 89.30161 
L 171.329044 89.129359 
L 174.07101 89.220166 
L 176.341723 89.541292 
L 177.950742 90.04068 
L 178.462431 90.33672 
L 178.76312 90.651324 
L 178.846471 90.974705 
L 178.710725 91.296888 
L 178.358746 91.607926 
L 177.797952 91.898105 
L 176.101352 92.379428 
L 173.763218 92.675367 
L 170.979645 92.735978 
L 167.984087 92.531054 
L 165.027776 92.052659 
L 162.358655 91.31579 
L 160.200578 90.357126 
L 159.371862 89.811285 
L 158.73454 89.231943 
L 158.302045 88.628154 
L 158.083495 88.009487 
L 158.083495 87.385826 
L 158.302045 86.767159 
L 158.73454 86.163369 
L 159.371862 85.584027 
L 160.200578 85.038187 
L 161.20322 84.534196 
L 163.642527 83.680591 
L 166.485202 83.069678 
L 169.492835 82.727569 
L 172.413178 82.657835 
L 175.001309 82.841199 
L 177.040163 83.237161 
L 178.358746 83.787387 
L 178.710725 84.098425 
L 178.846471 84.420608 
L 178.76312 84.743988 
L 178.462431 85.058593 
L 177.950742 85.354633 
L 176.341723 85.854021 
L 174.07101 86.175146 
L 171.329044 86.265953 
L 168.345789 86.093702 
L 165.371447 85.647717 
L 162.655471 84.940277 
L 160.425645 84.005591 
L 159.553532 83.469046 
L 158.868983 82.896928 
L 158.386428 82.298139 
L 158.116038 81.682144 
L 158.063513 81.058769 
L 158.229959 80.437999 
L 158.611869 79.829759 
L 159.201192 79.243713 
L 159.985506 78.689058 
L 160.948281 78.174327 
L 163.3247 77.294404 
L 166.131142 76.65262 
L 169.132236 76.277675 
L 172.076284 76.175893 
L 174.716374 76.330686 
L 176.831085 76.703949 
L 178.24306 77.239253 
L 178.645903 77.546166 
L 178.833878 77.86658 
L 178.803023 78.190584 
L 178.553989 78.508193 
L 178.092024 78.809554 
L 176.572535 79.326039 
L 174.371994 79.671599 
L 171.674957 79.792129 
L 168.70762 79.652397 
L 165.71885 79.238998 
L 162.959309 78.561481 
L 160.660436 77.651544 
L 159.745982 77.124762 
L 159.015035 76.560379 
L 158.483004 75.967135 
L 158.161102 75.354376 
L 158.056116 74.731863 
L 158.170256 74.109559 
L 158.501119 73.497424 
L 159.041729 72.905203 
L 159.780692 72.342224 
L 160.702432 71.817194 
L 163.013083 70.911657 
L 165.779893 70.239416 
L 168.770813 69.831726 
L 171.735 69.697656 
L 171.735 33.697656 
L 171.735 33.697656 
" clip-path="url(#p467e56799f)" style="fill: none; stroke: #000000; stroke-width: 2; stroke-linecap: round"/>
   </g>
   <g id="line2d_15">
    <path d="M 171.735 33.697656 
L 171.735 19.297656 
" clip-path="url(#p467e56799f)" style="fill: none; stroke: #000000; stroke-width: 2; stroke-linecap: round"/>
   </g>
   <g id="line2d_16">
    <path d="M 171.735 19.297656 
L 164.985 19.297656 
" clip-path="url(#p467e56799f)" style="fill: none; stroke: #000000; stroke-width: 2; stroke-linecap: round"/>
   </g>
   <g id="line2d_17">
    <path d="M 171.735 19.297656 
L 178.485 19.297656 
" clip-path="url(#p467e56799f)" style="fill: none; stroke: #000000; stroke-width: 2; stroke-linecap: round"/>
   </g>
   <g id="line2d_18">
    <path d="M 171.735 141.697656 
L 222.495 141.697656 
M 222.495 132.697656 
L 222.495 150.697656 
M 228.975 132.697656 
L 228.975 150.697656 
M 228.975 141.697656 
L 279.735 141.697656 
" clip-path="url(#p467e56799f)" style="fill: none; stroke: #000000; stroke-width: 2; stroke-linecap: round"/>
   </g>
   <g id="line2d_19">
    <path d="M 279.735 141.697656 
L 279.735 177.697656 
L 282.699187 177.831726 
L 285.690107 178.239416 
L 288.456917 178.911657 
L 290.767568 179.817194 
L 291.689308 180.342224 
L 292.428271 180.905203 
L 292.968881 181.497424 
L 293.299744 182.109559 
L 293.413884 182.731863 
L 293.308898 183.354376 
L 292.986996 183.967135 
L 292.454965 184.560379 
L 291.724018 185.124762 
L 290.809564 185.651544 
L 288.510691 186.561481 
L 285.75115 187.238998 
L 282.76238 187.652397 
L 279.795043 187.792129 
L 277.098006 187.671599 
L 274.897465 187.326039 
L 273.377976 186.809554 
L 272.916011 186.508193 
L 272.666977 186.190584 
L 272.636122 185.86658 
L 272.824097 185.546166 
L 273.22694 185.239253 
L 274.638915 184.703949 
L 276.753626 184.330686 
L 279.393716 184.175893 
L 282.337764 184.277675 
L 285.338858 184.65262 
L 288.1453 185.294404 
L 290.521719 186.174327 
L 291.484494 186.689058 
L 292.268808 187.243713 
L 292.858131 187.829759 
L 293.240041 188.437999 
L 293.406487 189.058769 
L 293.353962 189.682144 
L 293.083572 190.298139 
L 292.601017 190.896928 
L 291.916468 191.469046 
L 291.044355 192.005591 
L 288.814529 192.940277 
L 286.098553 193.647717 
L 283.124211 194.093702 
L 280.140956 194.265953 
L 277.39899 194.175146 
L 275.128277 193.854021 
L 273.519258 193.354633 
L 273.007569 193.058593 
L 272.70688 192.743988 
L 272.623529 192.420608 
L 272.759275 192.098425 
L 273.111254 191.787387 
L 273.672048 191.497208 
L 275.368648 191.015884 
L 277.706782 190.719945 
L 280.490355 190.659334 
L 283.485913 190.864258 
L 286.442224 191.342654 
L 289.111345 192.079522 
L 291.269422 193.038187 
L 292.098138 193.584027 
L 292.73546 194.163369 
L 293.167955 194.767159 
L 293.386505 195.385826 
L 293.386505 196.009487 
L 293.167955 196.628154 
L 292.73546 197.231943 
L 292.098138 197.811285 
L 291.269422 198.357126 
L 290.26678 198.861116 
L 287.827473 199.714722 
L 284.984798 200.325635 
L 281.977165 200.667743 
L 279.056822 200.737478 
L 276.468691 200.554113 
L 274.429837 200.158152 
L 273.111254 199.607926 
L 272.759275 199.296888 
L 272.623529 198.974705 
L 272.70688 198.651324 
L 273.007569 198.33672 
L 273.519258 198.04068 
L 275.128277 197.541292 
L 277.39899 197.220166 
L 280.140956 197.129359 
L 283.124211 197.30161 
L 286.098553 197.747596 
L 288.814529 198.455036 
L 291.044355 199.389721 
L 291.916468 199.926267 
L 292.601017 200.498385 
L 293.083572 201.097174 
L 293.353962 201.713169 
L 293.406487 202.336543 
L 293.240041 202.957314 
L 292.858131 203.565554 
L 292.268808 204.151599 
L 291.484494 204.706255 
L 290.521719 205.220986 
L 288.1453 206.100908 
L 285.338858 206.742693 
L 282.337764 207.117638 
L 279.393716 207.21942 
L 276.753626 207.064627 
L 274.638915 206.691364 
L 273.22694 206.15606 
L 272.824097 205.849147 
L 272.636122 205.528733 
L 272.666977 205.204728 
L 272.916011 204.88712 
L 273.377976 204.585759 
L 274.897465 204.069274 
L 277.098006 203.723714 
L 279.795043 203.603184 
L 282.76238 203.742916 
L 285.75115 204.156314 
L 288.510691 204.833831 
L 290.809564 205.743768 
L 291.724018 206.270551 
L 292.454965 206.834934 
L 292.986996 207.428178 
L 293.308898 208.040936 
L 293.413884 208.66345 
L 293.299744 209.285754 
L 292.968881 209.897889 
L 292.428271 210.490109 
L 291.689308 211.053089 
L 290.767568 211.578118 
L 288.456917 212.483655 
L 285.690107 213.155897 
L 282.699187 213.563587 
L 279.735 213.697656 
L 279.735 249.697656 
L 279.735 249.697656 
" clip-path="url(#p467e56799f)" style="fill: none; stroke: #000000; stroke-width: 2; stroke-linecap: round"/>
   </g>
   <g id="line2d_20">
    <path d="M 279.735 141.697656 
L 306.735 141.697656 
L 333.735 141.697656 
" clip-path="url(#p467e56799f)" style="fill: none; stroke: #000000; stroke-width: 2; stroke-linecap: round"/>
   </g>
   <g id="line2d_21">
    <path d="M 333.735 141.697656 
L 333.735 192.457656 
M 342.735 192.457656 
L 324.735 192.457656 
M 342.735 198.937656 
L 324.735 198.937656 
M 333.735 198.937656 
L 333.735 249.697656 
" clip-path="url(#p467e56799f)" style="fill: none; stroke: #000000; stroke-width: 2; stroke-linecap: round"/>
   </g>
   <g id="line2d_22">
    <path d="M 333.735 141.697656 
L 360.735 141.697656 
L 387.735 141.697656 
" clip-path="url(#p467e56799f)" style="fill: none; stroke: #000000; stroke-width: 2; stroke-linecap: round"/>
   </g>
   <g id="line2d_23">
    <path d="M 387.735 141.697656 
L 387.735 177.697656 
L 396.735 180.697656 
L 378.735 186.697656 
L 396.735 192.697656 
L 378.735 198.697656 
L 396.735 204.697656 
L 378.735 210.697656 
L 387.735 213.697656 
L 387.735 249.697656 
" clip-path="url(#p467e56799f)" style="fill: none; stroke: #000000; stroke-width: 2; stroke-linecap: round"/>
   </g>
   <g id="line2d_24">
    <path d="M 387.735 141.697656 
L 396.735 141.697656 
L 405.735 141.697656 
" clip-path="url(#p467e56799f)" style="fill: none; stroke: #000000; stroke-width: 2; stroke-linecap: round"/>
   </g>
   <g id="line2d_25">
    <path d="M 387.735 249.697656 
L 360.735 249.697656 
L 333.735 249.697656 
" clip-path="url(#p467e56799f)" style="fill: none; stroke: #000000; stroke-width: 2; stroke-linecap: round"/>
   </g>
   <g id="line2d_26">
    <path d="M 333.735 249.697656 
L 306.735 249.697656 
L 279.735 249.697656 
" clip-path="url(#p467e56799f)" style="fill: none; stroke: #000000; stroke-width: 2; stroke-linecap: round"/>
   </g>
   <g id="line2d_27">
    <path d="M 279.735 249.697656 
L 225.735 249.697656 
L 171.735 249.697656 
" clip-path="url(#p467e56799f)" style="fill: none; stroke: #000000; stroke-width: 2; stroke-linecap: round"/>
   </g>
   <g id="text_1">
    <!-- $R_{in}$ -->
    <g transform="translate(82.1125 151.578047) scale(0.125 -0.125)">
     <defs>
      <path id="DejaVuSans-Oblique-52" d="M 1613 4147 
L 1294 2491 
L 2106 2491 
Q 2584 2491 2879 2755 
Q 3175 3019 3175 3444 
Q 3175 3784 2976 3965 
Q 2778 4147 2406 4147 
L 1613 4147 
z
M 2772 2241 
Q 2972 2194 3105 2009 
Q 3238 1825 3413 1275 
L 3809 0 
L 3144 0 
L 2778 1197 
Q 2638 1659 2453 1815 
Q 2269 1972 1888 1972 
L 1191 1972 
L 806 0 
L 172 0 
L 1081 4666 
L 2503 4666 
Q 3150 4666 3495 4373 
Q 3841 4081 3841 3531 
Q 3841 3044 3547 2687 
Q 3253 2331 2772 2241 
z
" transform="scale(0.015625)"/>
      <path id="DejaVuSans-Oblique-69" d="M 1172 4863 
L 1747 4863 
L 1606 4134 
L 1031 4134 
L 1172 4863 
z
M 909 3500 
L 1484 3500 
L 800 0 
L 225 0 
L 909 3500 
z
" transform="scale(0.015625)"/>
      <path id="DejaVuSans-Oblique-6e" d="M 3566 2113 
L 3156 0 
L 2578 0 
L 2988 2091 
Q 3016 2238 3031 2350 
Q 3047 2463 3047 2528 
Q 3047 2791 2881 2937 
Q 2716 3084 2419 3084 
Q 1956 3084 1622 2776 
Q 1288 2469 1184 1941 
L 800 0 
L 225 0 
L 903 3500 
L 1478 3500 
L 1363 2950 
Q 1603 3253 1940 3418 
Q 2278 3584 2650 3584 
Q 3113 3584 3367 3334 
Q 3622 3084 3622 2631 
Q 3622 2519 3608 2391 
Q 3594 2263 3566 2113 
z
" transform="scale(0.015625)"/>
     </defs>
     <use xlink:href="#DejaVuSans-Oblique-52" transform="translate(0 0.09375)"/>
     <use xlink:href="#DejaVuSans-Oblique-69" transform="translate(69.482422 -16.3125) scale(0.7)"/>
     <use xlink:href="#DejaVuSans-Oblique-6e" transform="translate(88.930664 -16.3125) scale(0.7)"/>
    </g>
   </g>
   <g id="text_2">
    <!-- $V_{in}$ -->
    <g transform="translate(3.6 210.726875) scale(0.125 -0.125)">
     <defs>
      <path id="DejaVuSans-Oblique-56" d="M 1319 0 
L 500 4666 
L 1119 4666 
L 1797 653 
L 4063 4666 
L 4750 4666 
L 2053 0 
L 1319 0 
z
" transform="scale(0.015625)"/>
     </defs>
     <use xlink:href="#DejaVuSans-Oblique-56" transform="translate(0 0.09375)"/>
     <use xlink:href="#DejaVuSans-Oblique-69" transform="translate(68.408203 -16.3125) scale(0.7)"/>
     <use xlink:href="#DejaVuSans-Oblique-6e" transform="translate(87.856445 -16.3125) scale(0.7)"/>
    </g>
   </g>
   <g id="text_3">
    <!-- $L_2$ -->
    <g transform="translate(141.581116 91.146875) scale(0.125 -0.125)">
     <defs>
      <path id="DejaVuSans-Oblique-4c" d="M 1075 4666 
L 1709 4666 
L 909 525 
L 3181 525 
L 3078 0 
L 172 0 
L 1075 4666 
z
" transform="scale(0.015625)"/>
      <path id="DejaVuSans-32" d="M 1228 531 
L 3431 531 
L 3431 0 
L 469 0 
L 469 531 
Q 828 903 1448 1529 
Q 2069 2156 2228 2338 
Q 2531 2678 2651 2914 
Q 2772 3150 2772 3378 
Q 2772 3750 2511 3984 
Q 2250 4219 1831 4219 
Q 1534 4219 1204 4116 
Q 875 4013 500 3803 
L 500 4441 
Q 881 4594 1212 4672 
Q 1544 4750 1819 4750 
Q 2544 4750 2975 4387 
Q 3406 4025 3406 3419 
Q 3406 3131 3298 2873 
Q 3191 2616 2906 2266 
Q 2828 2175 2409 1742 
Q 1991 1309 1228 531 
z
" transform="scale(0.015625)"/>
     </defs>
     <use xlink:href="#DejaVuSans-Oblique-4c" transform="translate(0 0.09375)"/>
     <use xlink:href="#DejaVuSans-32" transform="translate(55.712891 -16.3125) scale(0.7)"/>
    </g>
   </g>
   <g id="text_4">
    <!-- $V_{dd}$ -->
    <g transform="translate(161.6725 13.098047) scale(0.125 -0.125)">
     <defs>
      <path id="DejaVuSans-Oblique-64" d="M 2675 525 
Q 2444 222 2128 65 
Q 1813 -91 1428 -91 
Q 903 -91 598 267 
Q 294 625 294 1247 
Q 294 1766 478 2236 
Q 663 2706 1013 3078 
Q 1244 3325 1534 3454 
Q 1825 3584 2144 3584 
Q 2481 3584 2739 3421 
Q 2997 3259 3138 2956 
L 3513 4863 
L 4091 4863 
L 3144 0 
L 2566 0 
L 2675 525 
z
M 891 1350 
Q 891 897 1095 644 
Q 1300 391 1663 391 
Q 1931 391 2161 520 
Q 2391 650 2566 903 
Q 2750 1166 2856 1509 
Q 2963 1853 2963 2188 
Q 2963 2622 2758 2865 
Q 2553 3109 2194 3109 
Q 1922 3109 1687 2981 
Q 1453 2853 1288 2613 
Q 1106 2353 998 2009 
Q 891 1666 891 1350 
z
" transform="scale(0.015625)"/>
     </defs>
     <use xlink:href="#DejaVuSans-Oblique-56" transform="translate(0 0.09375)"/>
     <use xlink:href="#DejaVuSans-Oblique-64" transform="translate(68.408203 -16.3125) scale(0.7)"/>
     <use xlink:href="#DejaVuSans-Oblique-64" transform="translate(112.841797 -16.3125) scale(0.7)"/>
    </g>
   </g>
   <g id="text_5">
    <!-- $C_2$ -->
    <g transform="translate(218.36 126.498047) scale(0.125 -0.125)">
     <defs>
      <path id="DejaVuSans-Oblique-43" d="M 4447 4306 
L 4319 3641 
Q 4019 3944 3683 4091 
Q 3347 4238 2956 4238 
Q 2422 4238 2017 3981 
Q 1613 3725 1319 3200 
Q 1131 2863 1032 2486 
Q 934 2109 934 1728 
Q 934 1091 1264 756 
Q 1594 422 2222 422 
Q 2656 422 3056 561 
Q 3456 700 3834 978 
L 3688 231 
Q 3316 72 2936 -9 
Q 2556 -91 2175 -91 
Q 1278 -91 773 396 
Q 269 884 269 1753 
Q 269 2309 461 2846 
Q 653 3384 1013 3828 
Q 1394 4300 1883 4525 
Q 2372 4750 3022 4750 
Q 3422 4750 3780 4639 
Q 4138 4528 4447 4306 
z
" transform="scale(0.015625)"/>
     </defs>
     <use xlink:href="#DejaVuSans-Oblique-43" transform="translate(0 0.78125)"/>
     <use xlink:href="#DejaVuSans-32" transform="translate(69.824219 -15.625) scale(0.7)"/>
    </g>
   </g>
   <g id="text_6">
    <!-- $L_1$ -->
    <g transform="translate(256.148529 199.146875) scale(0.125 -0.125)">
     <defs>
      <path id="DejaVuSans-31" d="M 794 531 
L 1825 531 
L 1825 4091 
L 703 3866 
L 703 4441 
L 1819 4666 
L 2450 4666 
L 2450 531 
L 3481 531 
L 3481 0 
L 794 0 
L 794 531 
z
" transform="scale(0.015625)"/>
     </defs>
     <use xlink:href="#DejaVuSans-Oblique-4c" transform="translate(0 0.09375)"/>
     <use xlink:href="#DejaVuSans-31" transform="translate(55.712891 -16.3125) scale(0.7)"/>
    </g>
   </g>
   <g id="text_7">
    <!-- $C_1$ -->
    <g transform="translate(306.385 199.146875) scale(0.125 -0.125)">
     <use xlink:href="#DejaVuSans-Oblique-43" transform="translate(0 0.78125)"/>
     <use xlink:href="#DejaVuSans-31" transform="translate(69.824219 -15.625) scale(0.7)"/>
    </g>
   </g>
   <g id="text_8">
    <!-- $R_L$ -->
    <g transform="translate(361.135 199.146875) scale(0.125 -0.125)">
     <use xlink:href="#DejaVuSans-Oblique-52" transform="translate(0 0.09375)"/>
     <use xlink:href="#DejaVuSans-Oblique-4c" transform="translate(69.482422 -16.3125) scale(0.7)"/>
    </g>
   </g>
   <g id="patch_4">
    <path d="M 171.735 144.397656 
C 172.451048 144.397656 173.137866 144.113167 173.644188 143.606845 
C 174.150511 143.100522 174.435 142.413705 174.435 141.697656 
C 174.435 140.981608 174.150511 140.294791 173.644188 139.788468 
C 173.137866 139.282145 172.451048 138.997656 171.735 138.997656 
C 171.018952 138.997656 170.332134 139.282145 169.825812 139.788468 
C 169.319489 140.294791 169.035 140.981608 169.035 141.697656 
C 169.035 142.413705 169.319489 143.100522 169.825812 143.606845 
C 170.332134 144.113167 171.018952 144.397656 171.735 144.397656 
z
" clip-path="url(#p467e56799f)" style="stroke: #000000; stroke-width: 2; stroke-linejoin: miter"/>
   </g>
   <g id="patch_5">
    <path d="M 405.735 144.397656 
C 406.451048 144.397656 407.137866 144.113167 407.644188 143.606845 
C 408.150511 143.100522 408.435 142.413705 408.435 141.697656 
C 408.435 140.981608 408.150511 140.294791 407.644188 139.788468 
C 407.137866 139.282145 406.451048 138.997656 405.735 138.997656 
C 405.018952 138.997656 404.332134 139.282145 403.825812 139.788468 
C 403.319489 140.294791 403.035 140.981608 403.035 141.697656 
C 403.035 142.413705 403.319489 143.100522 403.825812 143.606845 
C 404.332134 144.113167 405.018952 144.397656 405.735 144.397656 
z
" clip-path="url(#p467e56799f)" style="fill: #ffffff; stroke: #000000; stroke-width: 2; stroke-linejoin: miter"/>
   </g>
   <g id="text_9">
    <!-- $v_{out}$ -->
    <g transform="translate(412.035 145.146875) scale(0.125 -0.125)">
     <defs>
      <path id="DejaVuSans-Oblique-76" d="M 459 3500 
L 1069 3500 
L 1581 525 
L 3256 3500 
L 3866 3500 
L 1875 0 
L 1100 0 
L 459 3500 
z
" transform="scale(0.015625)"/>
      <path id="DejaVuSans-Oblique-6f" d="M 1625 -91 
Q 1009 -91 651 289 
Q 294 669 294 1325 
Q 294 1706 417 2101 
Q 541 2497 738 2766 
Q 1047 3184 1428 3384 
Q 1809 3584 2291 3584 
Q 2888 3584 3255 3212 
Q 3622 2841 3622 2241 
Q 3622 1825 3500 1412 
Q 3378 1000 3181 728 
Q 2875 309 2494 109 
Q 2113 -91 1625 -91 
z
M 891 1344 
Q 891 869 1089 633 
Q 1288 397 1691 397 
Q 2269 397 2648 901 
Q 3028 1406 3028 2181 
Q 3028 2634 2825 2865 
Q 2622 3097 2228 3097 
Q 1903 3097 1650 2945 
Q 1397 2794 1197 2484 
Q 1050 2253 970 1956 
Q 891 1659 891 1344 
z
" transform="scale(0.015625)"/>
      <path id="DejaVuSans-Oblique-75" d="M 428 1388 
L 838 3500 
L 1416 3500 
L 1006 1409 
Q 975 1256 961 1147 
Q 947 1038 947 966 
Q 947 700 1109 554 
Q 1272 409 1569 409 
Q 2031 409 2368 721 
Q 2706 1034 2809 1563 
L 3194 3500 
L 3769 3500 
L 3091 0 
L 2516 0 
L 2631 550 
Q 2388 244 2052 76 
Q 1716 -91 1338 -91 
Q 878 -91 622 161 
Q 366 413 366 863 
Q 366 956 381 1097 
Q 397 1238 428 1388 
z
" transform="scale(0.015625)"/>
      <path id="DejaVuSans-Oblique-74" d="M 2706 3500 
L 2619 3053 
L 1472 3053 
L 1100 1153 
Q 1081 1047 1072 975 
Q 1063 903 1063 863 
Q 1063 663 1183 572 
Q 1303 481 1569 481 
L 2150 481 
L 2053 0 
L 1503 0 
Q 991 0 739 200 
Q 488 400 488 806 
Q 488 878 497 964 
Q 506 1050 525 1153 
L 897 3053 
L 409 3053 
L 500 3500 
L 978 3500 
L 1172 4494 
L 1747 4494 
L 1556 3500 
L 2706 3500 
z
" transform="scale(0.015625)"/>
     </defs>
     <use xlink:href="#DejaVuSans-Oblique-76" transform="translate(0 0.3125)"/>
     <use xlink:href="#DejaVuSans-Oblique-6f" transform="translate(59.179688 -16.09375) scale(0.7)"/>
     <use xlink:href="#DejaVuSans-Oblique-75" transform="translate(102.006836 -16.09375) scale(0.7)"/>
     <use xlink:href="#DejaVuSans-Oblique-74" transform="translate(146.37207 -16.09375) scale(0.7)"/>
    </g>
   </g>
   <g id="patch_6">
    <path d="M 333.735 252.397656 
C 334.451048 252.397656 335.137866 252.113167 335.644188 251.606845 
C 336.150511 251.100522 336.435 250.413705 336.435 249.697656 
C 336.435 248.981608 336.150511 248.294791 335.644188 247.788468 
C 335.137866 247.282145 334.451048 246.997656 333.735 246.997656 
C 333.018952 246.997656 332.332134 247.282145 331.825812 247.788468 
C 331.319489 248.294791 331.035 248.981608 331.035 249.697656 
C 331.035 250.413705 331.319489 251.100522 331.825812 251.606845 
C 332.332134 252.113167 333.018952 252.397656 333.735 252.397656 
z
" clip-path="url(#p467e56799f)" style="stroke: #000000; stroke-width: 2; stroke-linejoin: miter"/>
   </g>
   <g id="patch_7">
    <path d="M 279.735 252.397656 
C 280.451048 252.397656 281.137866 252.113167 281.644188 251.606845 
C 282.150511 251.100522 282.435 250.413705 282.435 249.697656 
C 282.435 248.981608 282.150511 248.294791 281.644188 247.788468 
C 281.137866 247.282145 280.451048 246.997656 279.735 246.997656 
C 279.018952 246.997656 278.332134 247.282145 277.825812 247.788468 
C 277.319489 248.294791 277.035 248.981608 277.035 249.697656 
C 277.035 250.413705 277.319489 251.100522 277.825812 251.606845 
C 278.332134 252.113167 279.018952 252.397656 279.735 252.397656 
z
" clip-path="url(#p467e56799f)" style="stroke: #000000; stroke-width: 2; stroke-linejoin: miter"/>
   </g>
   <g id="patch_8">
    <path d="M 171.735 252.397656 
C 172.451048 252.397656 173.137866 252.113167 173.644188 251.606845 
C 174.150511 251.100522 174.435 250.413705 174.435 249.697656 
C 174.435 248.981608 174.150511 248.294791 173.644188 247.788468 
C 173.137866 247.282145 172.451048 246.997656 171.735 246.997656 
C 171.018952 246.997656 170.332134 247.282145 169.825812 247.788468 
C 169.319489 248.294791 169.035 248.981608 169.035 249.697656 
C 169.035 250.413705 169.319489 251.100522 169.825812 251.606845 
C 170.332134 252.113167 171.018952 252.397656 171.735 252.397656 
z
" clip-path="url(#p467e56799f)" style="stroke: #000000; stroke-width: 2; stroke-linejoin: miter"/>
   </g>
  </g>
 </g>
 <defs>
  <clipPath id="p467e56799f">
   <rect x="3.912" y="6.721656" width="423.786" height="276.672"/>
  </clipPath>
 </defs>
</svg>