<?xml version="1.0" encoding="utf-8" standalone="no"?>
<!DOCTYPE svg PUBLIC "-//W3C//DTD SVG 1.1//EN"
  "http://www.w3.org/Graphics/SVG/1.1/DTD/svg11.dtd">
<svg xmlns:xlink="http://www.w3.org/1999/xlink" width="194.76pt" height="69.26pt" viewBox="0 0 194.76 69.26" xmlns="http://www.w3.org/2000/svg" version="1.1">
 <metadata>
  <rdf:RDF xmlns:dc="http://purl.org/dc/elements/1.1/" xmlns:cc="http://creativecommons.org/ns#" xmlns:rdf="http://www.w3.org/1999/02/22-rdf-syntax-ns#">
   <cc:Work>
    <dc:type rdf:resource="http://purl.org/dc/dcmitype/StillImage"/>
    <dc:date>2025-11-29T13:37:31.794345</dc:date>
    <dc:format>image/svg+xml</dc:format>
    <dc:creator>
     <cc:Agent>
      <dc:title>Matplotlib v3.10.8, https://matplotlib.org/</dc:title>
     </cc:Agent>
    </dc:creator>
   </cc:Work>
  </rdf:RDF>
 </metadata>
 <defs>
  <style type="text/css">*{stroke-linejoin: round; stroke-linecap: butt}</style>
 </defs>
 <g id="figure_1">
  <g id="patch_1">
   <path d="M 0 69.26 
L 194.76 69.26 
L 194.76 0 
L 0 0 
z
" style="fill: #ffffff"/>
  </g>
  <g id="axes_1">
   <g id="patch_2">
    <path d="M 34.38 33.08 
C 34.38 31.661757 34.240319 30.257305 33.968949 28.947019 
C 33.69758 27.636733 33.299801 26.446096 32.798377 25.443247 
C 32.296952 24.440398 31.701633 23.644839 31.046491 23.102101 
C 30.391348 22.559363 29.689122 22.28 28.98 22.28 
C 28.270878 22.28 27.568652 22.559363 26.913509 23.102101 
C 26.258367 23.644839 25.663048 24.440398 25.161623 25.443247 
C 24.660199 26.446096 24.26242 27.636733 23.991051 28.947019 
C 23.719681 30.257305 23.58 31.661757 23.58 33.08 
C 23.58 34.498243 23.719681 35.902695 23.991051 37.212981 
C 24.26242 38.523267 24.660199 39.713904 25.161623 40.716753 
C 25.663048 41.719602 26.258367 42.515161 26.913509 43.057899 
C 27.568652 43.600637 28.270878 43.88 28.98 43.88 
C 29.689122 43.88 30.391348 43.600637 31.046491 43.057899 
C 31.701633 42.515161 32.296952 41.719602 32.798377 40.716753 
C 33.299801 39.713904 33.69758 38.523267 33.968949 37.212981 
C 34.240319 35.902695 34.38 34.498243 34.38 33.08 
" clip-path="url(#p3c41ca0062)" style="fill: none; stroke: #000000; stroke-width: 2; stroke-linejoin: miter"/>
   </g>
   <g id="patch_3">
    <path d="M 165.78 43.88 
C 167.21162 43.88 168.586069 42.741369 169.598377 40.716753 
C 170.610685 38.692137 171.18 35.94324 171.18 33.08 
C 171.18 30.21676 170.610685 27.467863 169.598377 25.443247 
C 168.586069 23.418631 167.21162 22.28 165.78 22.28 
" clip-path="url(#p3c41ca0062)" style="fill: none; stroke: #000000; stroke-width: 2; stroke-linejoin: miter"/>
   </g>
   <g id="line2d_1">
    <path d="M 7.38 33.08 
L 28.98 33.08 
M 171.18 33.08 
L 187.38 33.08 
" clip-path="url(#p3c41ca0062)" style="fill: none; stroke: #000000; stroke-width: 2; stroke-linecap: round"/>
   </g>
   <g id="line2d_2">
    <path d="M 28.98 22.28 
L 165.78 22.28 
" clip-path="url(#p3c41ca0062)" style="fill: none; stroke: #000000; stroke-width: 2; stroke-linecap: round"/>
   </g>
   <g id="line2d_3">
    <path d="M 28.98 43.88 
L 165.78 43.88 
" clip-path="url(#p3c41ca0062)" style="fill: none; stroke: #000000; stroke-width: 2; stroke-linecap: round"/>
   </g>
   <g id="line2d_4">
    <path d="M 165.78 43.88 
L 165.78 52.88 
L 165.78 61.88 
" clip-path="url(#p3c41ca0062)" style="fill: none; stroke: #000000; stroke-width: 2; stroke-linecap: round"/>
   </g>
   <g id="line2d_5">
    <path d="M 165.78 61.88 
L 174.78 61.88 
L 183.78 61.88 
" clip-path="url(#p3c41ca0062)" style="fill: none; stroke: #000000; stroke-width: 2; stroke-linecap: round"/>
   </g>
   <g id="line2d_6">
    <path d="M 28.98 43.88 
L 28.98 52.88 
L 28.98 61.88 
" clip-path="url(#p3c41ca0062)" style="fill: none; stroke: #000000; stroke-width: 2; stroke-linecap: round"/>
   </g>
   <g id="line2d_7">
    <path d="M 28.98 61.88 
L 19.98 61.88 
L 10.98 61.88 
" clip-path="url(#p3c41ca0062)" style="fill: none; stroke: #000000; stroke-width: 2; stroke-linecap: round"/>
   </g>
   <g id="text_1">
    <!-- 50Ω -->
    <g transform="translate(83.122969 15.768437) scale(0.14 -0.14)">
     <defs>
      <path id="DejaVuSans-35" d="M 691 4666 
L 3169 4666 
L 3169 4134 
L 1269 4134 
L 1269 2991 
Q 1406 3038 1543 3061 
Q 1681 3084 1819 3084 
Q 2600 3084 3056 2656 
Q 3513 2228 3513 1497 
Q 3513 744 3044 326 
Q 2575 -91 1722 -91 
Q 1428 -91 1123 -41 
Q 819 9 494 109 
L 494 744 
Q 775 591 1075 516 
Q 1375 441 1709 441 
Q 2250 441 2565 725 
Q 2881 1009 2881 1497 
Q 2881 1984 2565 2268 
Q 2250 2553 1709 2553 
Q 1456 2553 1204 2497 
Q 953 2441 691 2322 
L 691 4666 
z
" transform="scale(0.015625)"/>
      <path id="DejaVuSans-30" d="M 2034 4250 
Q 1547 4250 1301 3770 
Q 1056 3291 1056 2328 
Q 1056 1369 1301 889 
Q 1547 409 2034 409 
Q 2525 409 2770 889 
Q 3016 1369 3016 2328 
Q 3016 3291 2770 3770 
Q 2525 4250 2034 4250 
z
M 2034 4750 
Q 2819 4750 3233 4129 
Q 3647 3509 3647 2328 
Q 3647 1150 3233 529 
Q 2819 -91 2034 -91 
Q 1250 -91 836 529 
Q 422 1150 422 2328 
Q 422 3509 836 4129 
Q 1250 4750 2034 4750 
z
" transform="scale(0.015625)"/>
      <path id="DejaVuSans-3a9" d="M 4647 556 
L 4647 0 
L 2772 0 
L 2772 556 
Q 3325 859 3634 1378 
Q 3944 1897 3944 2528 
Q 3944 3278 3531 3731 
Q 3119 4184 2444 4184 
Q 1769 4184 1355 3729 
Q 941 3275 941 2528 
Q 941 1897 1250 1378 
Q 1563 859 2119 556 
L 2119 0 
L 244 0 
L 244 556 
L 1241 556 
Q 747 991 519 1456 
Q 294 1922 294 2497 
Q 294 3491 894 4106 
Q 1491 4722 2444 4722 
Q 3391 4722 3994 4106 
Q 4594 3494 4594 2528 
Q 4594 1922 4372 1459 
Q 4150 997 3647 556 
L 4647 556 
z
" transform="scale(0.015625)"/>
     </defs>
     <use xlink:href="#DejaVuSans-35"/>
     <use xlink:href="#DejaVuSans-30" transform="translate(63.623047 0)"/>
     <use xlink:href="#DejaVuSans-3a9" transform="translate(127.246094 0)"/>
    </g>
   </g>
   <g id="text_2">
    <!-- coax -->
    <g transform="translate(80.815156 58.117812) scale(0.14 -0.14)">
     <defs>
      <path id="DejaVuSans-63" d="M 3122 3366 
L 3122 2828 
Q 2878 2963 2633 3030 
Q 2388 3097 2138 3097 
Q 1578 3097 1268 2742 
Q 959 2388 959 1747 
Q 959 1106 1268 751 
Q 1578 397 2138 397 
Q 2388 397 2633 464 
Q 2878 531 3122 666 
L 3122 134 
Q 2881 22 2623 -34 
Q 2366 -91 2075 -91 
Q 1284 -91 818 406 
Q 353 903 353 1747 
Q 353 2603 823 3093 
Q 1294 3584 2113 3584 
Q 2378 3584 2631 3529 
Q 2884 3475 3122 3366 
z
" transform="scale(0.015625)"/>
      <path id="DejaVuSans-6f" d="M 1959 3097 
Q 1497 3097 1228 2736 
Q 959 2375 959 1747 
Q 959 1119 1226 758 
Q 1494 397 1959 397 
Q 2419 397 2687 759 
Q 2956 1122 2956 1747 
Q 2956 2369 2687 2733 
Q 2419 3097 1959 3097 
z
M 1959 3584 
Q 2709 3584 3137 3096 
Q 3566 2609 3566 1747 
Q 3566 888 3137 398 
Q 2709 -91 1959 -91 
Q 1206 -91 779 398 
Q 353 888 353 1747 
Q 353 2609 779 3096 
Q 1206 3584 1959 3584 
z
" transform="scale(0.015625)"/>
      <path id="DejaVuSans-61" d="M 2194 1759 
Q 1497 1759 1228 1600 
Q 959 1441 959 1056 
Q 959 750 1161 570 
Q 1363 391 1709 391 
Q 2188 391 2477 730 
Q 2766 1069 2766 1631 
L 2766 1759 
L 2194 1759 
z
M 3341 1997 
L 3341 0 
L 2766 0 
L 2766 531 
Q 2569 213 2275 61 
Q 1981 -91 1556 -91 
Q 1019 -91 701 211 
Q 384 513 384 1019 
Q 384 1609 779 1909 
Q 1175 2209 1959 2209 
L 2766 2209 
L 2766 2266 
Q 2766 2663 2505 2880 
Q 2244 3097 1772 3097 
Q 1472 3097 1187 3025 
Q 903 2953 641 2809 
L 641 3341 
Q 956 3463 1253 3523 
Q 1550 3584 1831 3584 
Q 2591 3584 2966 3190 
Q 3341 2797 3341 1997 
z
" transform="scale(0.015625)"/>
      <path id="DejaVuSans-78" d="M 3513 3500 
L 2247 1797 
L 3578 0 
L 2900 0 
L 1881 1375 
L 863 0 
L 184 0 
L 1544 1831 
L 300 3500 
L 978 3500 
L 1906 2253 
L 2834 3500 
L 3513 3500 
z
" transform="scale(0.015625)"/>
     </defs>
     <use xlink:href="#DejaVuSans-63"/>
     <use xlink:href="#DejaVuSans-6f" transform="translate(54.980469 0)"/>
     <use xlink:href="#DejaVuSans-61" transform="translate(116.162109 0)"/>
     <use xlink:href="#DejaVuSans-78" transform="translate(177.441406 0)"/>
    </g>
   </g>
   <g id="patch_4">
    <path d="M 7.38 35.78 
C 8.096048 35.78 8.782866 35.495511 9.289188 34.989188 
C 9.795511 34.482866 10.08 33.796048 10.08 33.08 
C 10.08 32.363952 9.795511 31.677134 9.289188 31.170812 
C 8.782866 30.664489 8.096048 30.38 7.38 30.38 
C 6.663952 30.38 5.977134 30.664489 5.470812 31.170812 
C 4.964489 31.677134 4.68 32.363952 4.68 33.08 
C 4.68 33.796048 4.964489 34.482866 5.470812 34.989188 
C 5.977134 35.495511 6.663952 35.78 7.38 35.78 
z
" clip-path="url(#p3c41ca0062)" style="fill: #ff0000; stroke: #ff0000; stroke-width: 2; stroke-linejoin: miter"/>
   </g>
   <g id="patch_5">
    <path d="M 187.38 35.78 
C 188.096048 35.78 188.782866 35.495511 189.289188 34.989188 
C 189.795511 34.482866 190.08 33.796048 190.08 33.08 
C 190.08 32.363952 189.795511 31.677134 189.289188 31.170812 
C 188.782866 30.664489 188.096048 30.38 187.38 30.38 
C 186.663952 30.38 185.977134 30.664489 185.470812 31.170812 
C 184.964489 31.677134 184.68 32.363952 184.68 33.08 
C 184.68 33.796048 184.964489 34.482866 185.470812 34.989188 
C 185.977134 35.495511 186.663952 35.78 187.38 35.78 
z
" clip-path="url(#p3c41ca0062)" style="fill: #008000; stroke: #008000; stroke-width: 2; stroke-linejoin: miter"/>
   </g>
   <g id="patch_6">
    <path d="M 183.78 64.58 
C 184.496048 64.58 185.182866 64.295511 185.689188 63.789188 
C 186.195511 63.282866 186.48 62.596048 186.48 61.88 
C 186.48 61.163952 186.195511 60.477134 185.689188 59.970812 
C 185.182866 59.464489 184.496048 59.18 183.78 59.18 
C 183.063952 59.18 182.377134 59.464489 181.870812 59.970812 
C 181.364489 60.477134 181.08 61.163952 181.08 61.88 
C 181.08 62.596048 181.364489 63.282866 181.870812 63.789188 
C 182.377134 64.295511 183.063952 64.58 183.78 64.58 
z
" clip-path="url(#p3c41ca0062)" style="fill: #008000; stroke: #008000; stroke-width: 2; stroke-linejoin: miter"/>
   </g>
   <g id="patch_7">
    <path d="M 10.98 64.58 
C 11.696048 64.58 12.382866 64.295511 12.889188 63.789188 
C 13.395511 63.282866 13.68 62.596048 13.68 61.88 
C 13.68 61.163952 13.395511 60.477134 12.889188 59.970812 
C 12.382866 59.464489 11.696048 59.18 10.98 59.18 
C 10.263952 59.18 9.577134 59.464489 9.070812 59.970812 
C 8.564489 60.477134 8.28 61.163952 8.28 61.88 
C 8.28 62.596048 8.564489 63.282866 9.070812 63.789188 
C 9.577134 64.295511 10.263952 64.58 10.98 64.58 
z
" clip-path="url(#p3c41ca0062)" style="fill: #ff0000; stroke: #ff0000; stroke-width: 2; stroke-linejoin: miter"/>
   </g>
  </g>
 </g>
 <defs>
  <clipPath id="p3c41ca0062">
   <rect x="0" y="0" width="194.76" height="69.26"/>
  </clipPath>
 </defs>
</svg>