<?xml version="1.0" encoding="utf-8" standalone="no"?>
<!DOCTYPE svg PUBLIC "-//W3C//DTD SVG 1.1//EN"
  "http://www.w3.org/Graphics/SVG/1.1/DTD/svg11.dtd">
<svg xmlns:xlink="http://www.w3.org/1999/xlink" width="732.145313pt" height="479.63625pt" viewBox="0 0 732.145313 479.63625" xmlns="http://www.w3.org/2000/svg" version="1.1">
 <metadata>
  <rdf:RDF xmlns:dc="http://purl.org/dc/elements/1.1/" xmlns:cc="http://creativecommons.org/ns#" xmlns:rdf="http://www.w3.org/1999/02/22-rdf-syntax-ns#">
   <cc:Work>
    <dc:type rdf:resource="http://purl.org/dc/dcmitype/StillImage"/>
    <dc:date>2022-11-04T22:30:58.512583</dc:date>
    <dc:format>image/svg+xml</dc:format>
    <dc:creator>
     <cc:Agent>
      <dc:title>Matplotlib v3.5.3, https://matplotlib.org/</dc:title>
     </cc:Agent>
    </dc:creator>
   </cc:Work>
  </rdf:RDF>
 </metadata>
 <defs>
  <style type="text/css">*{stroke-linejoin: round; stroke-linecap: butt}</style>
 </defs>
 <g id="figure_1">
  <g id="patch_1">
   <path d="M 0 479.63625 
L 732.145313 479.63625 
L 732.145313 0 
L 0 0 
L 0 479.63625 
z
" style="fill: none"/>
  </g>
  <g id="axes_1">
   <g id="patch_2">
    <path d="M 48.982813 442.08 
L 718.582813 442.08 
L 718.582813 7.2 
L 48.982813 7.2 
z
" style="fill: #ffffff"/>
   </g>
   <g id="matplotlib.axis_1">
    <g id="xtick_1">
     <g id="line2d_1">
      <path d="M 48.982813 442.08 
L 48.982813 7.2 
" clip-path="url(#pf73e99488c)" style="fill: none; stroke: #b0b0b0; stroke-width: 0.8; stroke-linecap: square"/>
     </g>
     <g id="line2d_2">
      <defs>
       <path id="m0488885d26" d="M 0 0 
L 0 3.5 
" style="stroke: #000000; stroke-width: 0.8"/>
      </defs>
      <g>
       <use xlink:href="#m0488885d26" x="48.982813" y="442.08" style="stroke: #000000; stroke-width: 0.8"/>
      </g>
     </g>
     <g id="text_1">
      <!-- 0 -->
      <g transform="translate(45.801563 456.678437)scale(0.1 -0.1)">
       <defs>
        <path id="DejaVuSans-30" d="M 2034 4250 
Q 1547 4250 1301 3770 
Q 1056 3291 1056 2328 
Q 1056 1369 1301 889 
Q 1547 409 2034 409 
Q 2525 409 2770 889 
Q 3016 1369 3016 2328 
Q 3016 3291 2770 3770 
Q 2525 4250 2034 4250 
z
M 2034 4750 
Q 2819 4750 3233 4129 
Q 3647 3509 3647 2328 
Q 3647 1150 3233 529 
Q 2819 -91 2034 -91 
Q 1250 -91 836 529 
Q 422 1150 422 2328 
Q 422 3509 836 4129 
Q 1250 4750 2034 4750 
z
" transform="scale(0.015625)"/>
       </defs>
       <use xlink:href="#DejaVuSans-30"/>
      </g>
     </g>
    </g>
    <g id="xtick_2">
     <g id="line2d_3">
      <path d="M 182.902813 442.08 
L 182.902813 7.2 
" clip-path="url(#pf73e99488c)" style="fill: none; stroke: #b0b0b0; stroke-width: 0.8; stroke-linecap: square"/>
     </g>
     <g id="line2d_4">
      <g>
       <use xlink:href="#m0488885d26" x="182.902813" y="442.08" style="stroke: #000000; stroke-width: 0.8"/>
      </g>
     </g>
     <g id="text_2">
      <!-- 2 -->
      <g transform="translate(179.721563 456.678437)scale(0.1 -0.1)">
       <defs>
        <path id="DejaVuSans-32" d="M 1228 531 
L 3431 531 
L 3431 0 
L 469 0 
L 469 531 
Q 828 903 1448 1529 
Q 2069 2156 2228 2338 
Q 2531 2678 2651 2914 
Q 2772 3150 2772 3378 
Q 2772 3750 2511 3984 
Q 2250 4219 1831 4219 
Q 1534 4219 1204 4116 
Q 875 4013 500 3803 
L 500 4441 
Q 881 4594 1212 4672 
Q 1544 4750 1819 4750 
Q 2544 4750 2975 4387 
Q 3406 4025 3406 3419 
Q 3406 3131 3298 2873 
Q 3191 2616 2906 2266 
Q 2828 2175 2409 1742 
Q 1991 1309 1228 531 
z
" transform="scale(0.015625)"/>
       </defs>
       <use xlink:href="#DejaVuSans-32"/>
      </g>
     </g>
    </g>
    <g id="xtick_3">
     <g id="line2d_5">
      <path d="M 316.822813 442.08 
L 316.822813 7.2 
" clip-path="url(#pf73e99488c)" style="fill: none; stroke: #b0b0b0; stroke-width: 0.8; stroke-linecap: square"/>
     </g>
     <g id="line2d_6">
      <g>
       <use xlink:href="#m0488885d26" x="316.822813" y="442.08" style="stroke: #000000; stroke-width: 0.8"/>
      </g>
     </g>
     <g id="text_3">
      <!-- 4 -->
      <g transform="translate(313.641563 456.678437)scale(0.1 -0.1)">
       <defs>
        <path id="DejaVuSans-34" d="M 2419 4116 
L 825 1625 
L 2419 1625 
L 2419 4116 
z
M 2253 4666 
L 3047 4666 
L 3047 1625 
L 3713 1625 
L 3713 1100 
L 3047 1100 
L 3047 0 
L 2419 0 
L 2419 1100 
L 313 1100 
L 313 1709 
L 2253 4666 
z
" transform="scale(0.015625)"/>
       </defs>
       <use xlink:href="#DejaVuSans-34"/>
      </g>
     </g>
    </g>
    <g id="xtick_4">
     <g id="line2d_7">
      <path d="M 450.742813 442.08 
L 450.742813 7.2 
" clip-path="url(#pf73e99488c)" style="fill: none; stroke: #b0b0b0; stroke-width: 0.8; stroke-linecap: square"/>
     </g>
     <g id="line2d_8">
      <g>
       <use xlink:href="#m0488885d26" x="450.742813" y="442.08" style="stroke: #000000; stroke-width: 0.8"/>
      </g>
     </g>
     <g id="text_4">
      <!-- 6 -->
      <g transform="translate(447.561563 456.678437)scale(0.1 -0.1)">
       <defs>
        <path id="DejaVuSans-36" d="M 2113 2584 
Q 1688 2584 1439 2293 
Q 1191 2003 1191 1497 
Q 1191 994 1439 701 
Q 1688 409 2113 409 
Q 2538 409 2786 701 
Q 3034 994 3034 1497 
Q 3034 2003 2786 2293 
Q 2538 2584 2113 2584 
z
M 3366 4563 
L 3366 3988 
Q 3128 4100 2886 4159 
Q 2644 4219 2406 4219 
Q 1781 4219 1451 3797 
Q 1122 3375 1075 2522 
Q 1259 2794 1537 2939 
Q 1816 3084 2150 3084 
Q 2853 3084 3261 2657 
Q 3669 2231 3669 1497 
Q 3669 778 3244 343 
Q 2819 -91 2113 -91 
Q 1303 -91 875 529 
Q 447 1150 447 2328 
Q 447 3434 972 4092 
Q 1497 4750 2381 4750 
Q 2619 4750 2861 4703 
Q 3103 4656 3366 4563 
z
" transform="scale(0.015625)"/>
       </defs>
       <use xlink:href="#DejaVuSans-36"/>
      </g>
     </g>
    </g>
    <g id="xtick_5">
     <g id="line2d_9">
      <path d="M 584.662813 442.08 
L 584.662813 7.2 
" clip-path="url(#pf73e99488c)" style="fill: none; stroke: #b0b0b0; stroke-width: 0.8; stroke-linecap: square"/>
     </g>
     <g id="line2d_10">
      <g>
       <use xlink:href="#m0488885d26" x="584.662813" y="442.08" style="stroke: #000000; stroke-width: 0.8"/>
      </g>
     </g>
     <g id="text_5">
      <!-- 8 -->
      <g transform="translate(581.481563 456.678437)scale(0.1 -0.1)">
       <defs>
        <path id="DejaVuSans-38" d="M 2034 2216 
Q 1584 2216 1326 1975 
Q 1069 1734 1069 1313 
Q 1069 891 1326 650 
Q 1584 409 2034 409 
Q 2484 409 2743 651 
Q 3003 894 3003 1313 
Q 3003 1734 2745 1975 
Q 2488 2216 2034 2216 
z
M 1403 2484 
Q 997 2584 770 2862 
Q 544 3141 544 3541 
Q 544 4100 942 4425 
Q 1341 4750 2034 4750 
Q 2731 4750 3128 4425 
Q 3525 4100 3525 3541 
Q 3525 3141 3298 2862 
Q 3072 2584 2669 2484 
Q 3125 2378 3379 2068 
Q 3634 1759 3634 1313 
Q 3634 634 3220 271 
Q 2806 -91 2034 -91 
Q 1263 -91 848 271 
Q 434 634 434 1313 
Q 434 1759 690 2068 
Q 947 2378 1403 2484 
z
M 1172 3481 
Q 1172 3119 1398 2916 
Q 1625 2713 2034 2713 
Q 2441 2713 2670 2916 
Q 2900 3119 2900 3481 
Q 2900 3844 2670 4047 
Q 2441 4250 2034 4250 
Q 1625 4250 1398 4047 
Q 1172 3844 1172 3481 
z
" transform="scale(0.015625)"/>
       </defs>
       <use xlink:href="#DejaVuSans-38"/>
      </g>
     </g>
    </g>
    <g id="xtick_6">
     <g id="line2d_11">
      <path d="M 718.582813 442.08 
L 718.582813 7.2 
" clip-path="url(#pf73e99488c)" style="fill: none; stroke: #b0b0b0; stroke-width: 0.8; stroke-linecap: square"/>
     </g>
     <g id="line2d_12">
      <g>
       <use xlink:href="#m0488885d26" x="718.582813" y="442.08" style="stroke: #000000; stroke-width: 0.8"/>
      </g>
     </g>
     <g id="text_6">
      <!-- 10 -->
      <g transform="translate(712.220313 456.678437)scale(0.1 -0.1)">
       <defs>
        <path id="DejaVuSans-31" d="M 794 531 
L 1825 531 
L 1825 4091 
L 703 3866 
L 703 4441 
L 1819 4666 
L 2450 4666 
L 2450 531 
L 3481 531 
L 3481 0 
L 794 0 
L 794 531 
z
" transform="scale(0.015625)"/>
       </defs>
       <use xlink:href="#DejaVuSans-31"/>
       <use xlink:href="#DejaVuSans-30" x="63.623047"/>
      </g>
     </g>
    </g>
    <g id="text_7">
     <!-- tijd [us] -->
     <g transform="translate(364.60625 470.356562)scale(0.1 -0.1)">
      <defs>
       <path id="DejaVuSans-74" d="M 1172 4494 
L 1172 3500 
L 2356 3500 
L 2356 3053 
L 1172 3053 
L 1172 1153 
Q 1172 725 1289 603 
Q 1406 481 1766 481 
L 2356 481 
L 2356 0 
L 1766 0 
Q 1100 0 847 248 
Q 594 497 594 1153 
L 594 3053 
L 172 3053 
L 172 3500 
L 594 3500 
L 594 4494 
L 1172 4494 
z
" transform="scale(0.015625)"/>
       <path id="DejaVuSans-69" d="M 603 3500 
L 1178 3500 
L 1178 0 
L 603 0 
L 603 3500 
z
M 603 4863 
L 1178 4863 
L 1178 4134 
L 603 4134 
L 603 4863 
z
" transform="scale(0.015625)"/>
       <path id="DejaVuSans-6a" d="M 603 3500 
L 1178 3500 
L 1178 -63 
Q 1178 -731 923 -1031 
Q 669 -1331 103 -1331 
L -116 -1331 
L -116 -844 
L 38 -844 
Q 366 -844 484 -692 
Q 603 -541 603 -63 
L 603 3500 
z
M 603 4863 
L 1178 4863 
L 1178 4134 
L 603 4134 
L 603 4863 
z
" transform="scale(0.015625)"/>
       <path id="DejaVuSans-64" d="M 2906 2969 
L 2906 4863 
L 3481 4863 
L 3481 0 
L 2906 0 
L 2906 525 
Q 2725 213 2448 61 
Q 2172 -91 1784 -91 
Q 1150 -91 751 415 
Q 353 922 353 1747 
Q 353 2572 751 3078 
Q 1150 3584 1784 3584 
Q 2172 3584 2448 3432 
Q 2725 3281 2906 2969 
z
M 947 1747 
Q 947 1113 1208 752 
Q 1469 391 1925 391 
Q 2381 391 2643 752 
Q 2906 1113 2906 1747 
Q 2906 2381 2643 2742 
Q 2381 3103 1925 3103 
Q 1469 3103 1208 2742 
Q 947 2381 947 1747 
z
" transform="scale(0.015625)"/>
       <path id="DejaVuSans-20" transform="scale(0.015625)"/>
       <path id="DejaVuSans-5b" d="M 550 4863 
L 1875 4863 
L 1875 4416 
L 1125 4416 
L 1125 -397 
L 1875 -397 
L 1875 -844 
L 550 -844 
L 550 4863 
z
" transform="scale(0.015625)"/>
       <path id="DejaVuSans-75" d="M 544 1381 
L 544 3500 
L 1119 3500 
L 1119 1403 
Q 1119 906 1312 657 
Q 1506 409 1894 409 
Q 2359 409 2629 706 
Q 2900 1003 2900 1516 
L 2900 3500 
L 3475 3500 
L 3475 0 
L 2900 0 
L 2900 538 
Q 2691 219 2414 64 
Q 2138 -91 1772 -91 
Q 1169 -91 856 284 
Q 544 659 544 1381 
z
M 1991 3584 
L 1991 3584 
z
" transform="scale(0.015625)"/>
       <path id="DejaVuSans-73" d="M 2834 3397 
L 2834 2853 
Q 2591 2978 2328 3040 
Q 2066 3103 1784 3103 
Q 1356 3103 1142 2972 
Q 928 2841 928 2578 
Q 928 2378 1081 2264 
Q 1234 2150 1697 2047 
L 1894 2003 
Q 2506 1872 2764 1633 
Q 3022 1394 3022 966 
Q 3022 478 2636 193 
Q 2250 -91 1575 -91 
Q 1294 -91 989 -36 
Q 684 19 347 128 
L 347 722 
Q 666 556 975 473 
Q 1284 391 1588 391 
Q 1994 391 2212 530 
Q 2431 669 2431 922 
Q 2431 1156 2273 1281 
Q 2116 1406 1581 1522 
L 1381 1569 
Q 847 1681 609 1914 
Q 372 2147 372 2553 
Q 372 3047 722 3315 
Q 1072 3584 1716 3584 
Q 2034 3584 2315 3537 
Q 2597 3491 2834 3397 
z
" transform="scale(0.015625)"/>
       <path id="DejaVuSans-5d" d="M 1947 4863 
L 1947 -844 
L 622 -844 
L 622 -397 
L 1369 -397 
L 1369 4416 
L 622 4416 
L 622 4863 
L 1947 4863 
z
" transform="scale(0.015625)"/>
      </defs>
      <use xlink:href="#DejaVuSans-74"/>
      <use xlink:href="#DejaVuSans-69" x="39.208984"/>
      <use xlink:href="#DejaVuSans-6a" x="66.992188"/>
      <use xlink:href="#DejaVuSans-64" x="94.775391"/>
      <use xlink:href="#DejaVuSans-20" x="158.251953"/>
      <use xlink:href="#DejaVuSans-5b" x="190.039062"/>
      <use xlink:href="#DejaVuSans-75" x="229.052734"/>
      <use xlink:href="#DejaVuSans-73" x="292.431641"/>
      <use xlink:href="#DejaVuSans-5d" x="344.53125"/>
     </g>
    </g>
   </g>
   <g id="matplotlib.axis_2">
    <g id="ytick_1">
     <g id="line2d_13">
      <path d="M 48.982813 408.310598 
L 718.582813 408.310598 
" clip-path="url(#pf73e99488c)" style="fill: none; stroke: #b0b0b0; stroke-width: 0.8; stroke-linecap: square"/>
     </g>
     <g id="line2d_14">
      <defs>
       <path id="m6f633e0198" d="M 0 0 
L -3.5 0 
" style="stroke: #000000; stroke-width: 0.8"/>
      </defs>
      <g>
       <use xlink:href="#m6f633e0198" x="48.982813" y="408.310598" style="stroke: #000000; stroke-width: 0.8"/>
      </g>
     </g>
     <g id="text_8">
      <!-- −10 -->
      <g transform="translate(20.878125 412.109817)scale(0.1 -0.1)">
       <defs>
        <path id="DejaVuSans-2212" d="M 678 2272 
L 4684 2272 
L 4684 1741 
L 678 1741 
L 678 2272 
z
" transform="scale(0.015625)"/>
       </defs>
       <use xlink:href="#DejaVuSans-2212"/>
       <use xlink:href="#DejaVuSans-31" x="83.789062"/>
       <use xlink:href="#DejaVuSans-30" x="147.412109"/>
      </g>
     </g>
    </g>
    <g id="ytick_2">
     <g id="line2d_15">
      <path d="M 48.982813 353.050255 
L 718.582813 353.050255 
" clip-path="url(#pf73e99488c)" style="fill: none; stroke: #b0b0b0; stroke-width: 0.8; stroke-linecap: square"/>
     </g>
     <g id="line2d_16">
      <g>
       <use xlink:href="#m6f633e0198" x="48.982813" y="353.050255" style="stroke: #000000; stroke-width: 0.8"/>
      </g>
     </g>
     <g id="text_9">
      <!-- −5 -->
      <g transform="translate(27.240625 356.849474)scale(0.1 -0.1)">
       <defs>
        <path id="DejaVuSans-35" d="M 691 4666 
L 3169 4666 
L 3169 4134 
L 1269 4134 
L 1269 2991 
Q 1406 3038 1543 3061 
Q 1681 3084 1819 3084 
Q 2600 3084 3056 2656 
Q 3513 2228 3513 1497 
Q 3513 744 3044 326 
Q 2575 -91 1722 -91 
Q 1428 -91 1123 -41 
Q 819 9 494 109 
L 494 744 
Q 775 591 1075 516 
Q 1375 441 1709 441 
Q 2250 441 2565 725 
Q 2881 1009 2881 1497 
Q 2881 1984 2565 2268 
Q 2250 2553 1709 2553 
Q 1456 2553 1204 2497 
Q 953 2441 691 2322 
L 691 4666 
z
" transform="scale(0.015625)"/>
       </defs>
       <use xlink:href="#DejaVuSans-2212"/>
       <use xlink:href="#DejaVuSans-35" x="83.789062"/>
      </g>
     </g>
    </g>
    <g id="ytick_3">
     <g id="line2d_17">
      <path d="M 48.982813 297.789913 
L 718.582813 297.789913 
" clip-path="url(#pf73e99488c)" style="fill: none; stroke: #b0b0b0; stroke-width: 0.8; stroke-linecap: square"/>
     </g>
     <g id="line2d_18">
      <g>
       <use xlink:href="#m6f633e0198" x="48.982813" y="297.789913" style="stroke: #000000; stroke-width: 0.8"/>
      </g>
     </g>
     <g id="text_10">
      <!-- 0 -->
      <g transform="translate(35.620312 301.589132)scale(0.1 -0.1)">
       <use xlink:href="#DejaVuSans-30"/>
      </g>
     </g>
    </g>
    <g id="ytick_4">
     <g id="line2d_19">
      <path d="M 48.982813 242.529571 
L 718.582813 242.529571 
" clip-path="url(#pf73e99488c)" style="fill: none; stroke: #b0b0b0; stroke-width: 0.8; stroke-linecap: square"/>
     </g>
     <g id="line2d_20">
      <g>
       <use xlink:href="#m6f633e0198" x="48.982813" y="242.529571" style="stroke: #000000; stroke-width: 0.8"/>
      </g>
     </g>
     <g id="text_11">
      <!-- 5 -->
      <g transform="translate(35.620312 246.328789)scale(0.1 -0.1)">
       <use xlink:href="#DejaVuSans-35"/>
      </g>
     </g>
    </g>
    <g id="ytick_5">
     <g id="line2d_21">
      <path d="M 48.982813 187.269228 
L 718.582813 187.269228 
" clip-path="url(#pf73e99488c)" style="fill: none; stroke: #b0b0b0; stroke-width: 0.8; stroke-linecap: square"/>
     </g>
     <g id="line2d_22">
      <g>
       <use xlink:href="#m6f633e0198" x="48.982813" y="187.269228" style="stroke: #000000; stroke-width: 0.8"/>
      </g>
     </g>
     <g id="text_12">
      <!-- 10 -->
      <g transform="translate(29.257812 191.068447)scale(0.1 -0.1)">
       <use xlink:href="#DejaVuSans-31"/>
       <use xlink:href="#DejaVuSans-30" x="63.623047"/>
      </g>
     </g>
    </g>
    <g id="ytick_6">
     <g id="line2d_23">
      <path d="M 48.982813 132.008886 
L 718.582813 132.008886 
" clip-path="url(#pf73e99488c)" style="fill: none; stroke: #b0b0b0; stroke-width: 0.8; stroke-linecap: square"/>
     </g>
     <g id="line2d_24">
      <g>
       <use xlink:href="#m6f633e0198" x="48.982813" y="132.008886" style="stroke: #000000; stroke-width: 0.8"/>
      </g>
     </g>
     <g id="text_13">
      <!-- 15 -->
      <g transform="translate(29.257812 135.808104)scale(0.1 -0.1)">
       <use xlink:href="#DejaVuSans-31"/>
       <use xlink:href="#DejaVuSans-35" x="63.623047"/>
      </g>
     </g>
    </g>
    <g id="ytick_7">
     <g id="line2d_25">
      <path d="M 48.982813 76.748543 
L 718.582813 76.748543 
" clip-path="url(#pf73e99488c)" style="fill: none; stroke: #b0b0b0; stroke-width: 0.8; stroke-linecap: square"/>
     </g>
     <g id="line2d_26">
      <g>
       <use xlink:href="#m6f633e0198" x="48.982813" y="76.748543" style="stroke: #000000; stroke-width: 0.8"/>
      </g>
     </g>
     <g id="text_14">
      <!-- 20 -->
      <g transform="translate(29.257812 80.547762)scale(0.1 -0.1)">
       <use xlink:href="#DejaVuSans-32"/>
       <use xlink:href="#DejaVuSans-30" x="63.623047"/>
      </g>
     </g>
    </g>
    <g id="ytick_8">
     <g id="line2d_27">
      <path d="M 48.982813 21.488201 
L 718.582813 21.488201 
" clip-path="url(#pf73e99488c)" style="fill: none; stroke: #b0b0b0; stroke-width: 0.8; stroke-linecap: square"/>
     </g>
     <g id="line2d_28">
      <g>
       <use xlink:href="#m6f633e0198" x="48.982813" y="21.488201" style="stroke: #000000; stroke-width: 0.8"/>
      </g>
     </g>
     <g id="text_15">
      <!-- 25 -->
      <g transform="translate(29.257812 25.28742)scale(0.1 -0.1)">
       <use xlink:href="#DejaVuSans-32"/>
       <use xlink:href="#DejaVuSans-35" x="63.623047"/>
      </g>
     </g>
    </g>
    <g id="text_16">
     <!-- Voltage [V] -->
     <g transform="translate(14.798437 252.307187)rotate(-90)scale(0.1 -0.1)">
      <defs>
       <path id="DejaVuSans-56" d="M 1831 0 
L 50 4666 
L 709 4666 
L 2188 738 
L 3669 4666 
L 4325 4666 
L 2547 0 
L 1831 0 
z
" transform="scale(0.015625)"/>
       <path id="DejaVuSans-6f" d="M 1959 3097 
Q 1497 3097 1228 2736 
Q 959 2375 959 1747 
Q 959 1119 1226 758 
Q 1494 397 1959 397 
Q 2419 397 2687 759 
Q 2956 1122 2956 1747 
Q 2956 2369 2687 2733 
Q 2419 3097 1959 3097 
z
M 1959 3584 
Q 2709 3584 3137 3096 
Q 3566 2609 3566 1747 
Q 3566 888 3137 398 
Q 2709 -91 1959 -91 
Q 1206 -91 779 398 
Q 353 888 353 1747 
Q 353 2609 779 3096 
Q 1206 3584 1959 3584 
z
" transform="scale(0.015625)"/>
       <path id="DejaVuSans-6c" d="M 603 4863 
L 1178 4863 
L 1178 0 
L 603 0 
L 603 4863 
z
" transform="scale(0.015625)"/>
       <path id="DejaVuSans-61" d="M 2194 1759 
Q 1497 1759 1228 1600 
Q 959 1441 959 1056 
Q 959 750 1161 570 
Q 1363 391 1709 391 
Q 2188 391 2477 730 
Q 2766 1069 2766 1631 
L 2766 1759 
L 2194 1759 
z
M 3341 1997 
L 3341 0 
L 2766 0 
L 2766 531 
Q 2569 213 2275 61 
Q 1981 -91 1556 -91 
Q 1019 -91 701 211 
Q 384 513 384 1019 
Q 384 1609 779 1909 
Q 1175 2209 1959 2209 
L 2766 2209 
L 2766 2266 
Q 2766 2663 2505 2880 
Q 2244 3097 1772 3097 
Q 1472 3097 1187 3025 
Q 903 2953 641 2809 
L 641 3341 
Q 956 3463 1253 3523 
Q 1550 3584 1831 3584 
Q 2591 3584 2966 3190 
Q 3341 2797 3341 1997 
z
" transform="scale(0.015625)"/>
       <path id="DejaVuSans-67" d="M 2906 1791 
Q 2906 2416 2648 2759 
Q 2391 3103 1925 3103 
Q 1463 3103 1205 2759 
Q 947 2416 947 1791 
Q 947 1169 1205 825 
Q 1463 481 1925 481 
Q 2391 481 2648 825 
Q 2906 1169 2906 1791 
z
M 3481 434 
Q 3481 -459 3084 -895 
Q 2688 -1331 1869 -1331 
Q 1566 -1331 1297 -1286 
Q 1028 -1241 775 -1147 
L 775 -588 
Q 1028 -725 1275 -790 
Q 1522 -856 1778 -856 
Q 2344 -856 2625 -561 
Q 2906 -266 2906 331 
L 2906 616 
Q 2728 306 2450 153 
Q 2172 0 1784 0 
Q 1141 0 747 490 
Q 353 981 353 1791 
Q 353 2603 747 3093 
Q 1141 3584 1784 3584 
Q 2172 3584 2450 3431 
Q 2728 3278 2906 2969 
L 2906 3500 
L 3481 3500 
L 3481 434 
z
" transform="scale(0.015625)"/>
       <path id="DejaVuSans-65" d="M 3597 1894 
L 3597 1613 
L 953 1613 
Q 991 1019 1311 708 
Q 1631 397 2203 397 
Q 2534 397 2845 478 
Q 3156 559 3463 722 
L 3463 178 
Q 3153 47 2828 -22 
Q 2503 -91 2169 -91 
Q 1331 -91 842 396 
Q 353 884 353 1716 
Q 353 2575 817 3079 
Q 1281 3584 2069 3584 
Q 2775 3584 3186 3129 
Q 3597 2675 3597 1894 
z
M 3022 2063 
Q 3016 2534 2758 2815 
Q 2500 3097 2075 3097 
Q 1594 3097 1305 2825 
Q 1016 2553 972 2059 
L 3022 2063 
z
" transform="scale(0.015625)"/>
      </defs>
      <use xlink:href="#DejaVuSans-56"/>
      <use xlink:href="#DejaVuSans-6f" x="60.658203"/>
      <use xlink:href="#DejaVuSans-6c" x="121.839844"/>
      <use xlink:href="#DejaVuSans-74" x="149.623047"/>
      <use xlink:href="#DejaVuSans-61" x="188.832031"/>
      <use xlink:href="#DejaVuSans-67" x="250.111328"/>
      <use xlink:href="#DejaVuSans-65" x="313.587891"/>
      <use xlink:href="#DejaVuSans-20" x="375.111328"/>
      <use xlink:href="#DejaVuSans-5b" x="406.898438"/>
      <use xlink:href="#DejaVuSans-56" x="445.912109"/>
      <use xlink:href="#DejaVuSans-5d" x="514.320312"/>
     </g>
    </g>
   </g>
   <g id="line2d_29">
    <path d="M 48.982813 319.89405 
L 52.106898 304.532853 
L 53.72733 297.671233 
L 55.026354 293.089073 
L 56.111106 290.027059 
L 57.048546 288.008444 
L 57.852066 286.773604 
L 58.535058 286.098 
L 59.137698 285.793462 
L 59.68677 285.756273 
L 60.235842 285.948483 
L 60.811698 286.395096 
L 61.467906 287.205581 
L 62.204466 288.488449 
L 63.061554 290.457783 
L 64.052562 293.332674 
L 65.204274 297.398389 
L 66.58365 303.129621 
L 68.39157 311.672747 
L 74.176914 339.760551 
L 75.569682 345.068405 
L 76.734786 348.683296 
L 77.725794 351.077376 
L 78.56949 352.579943 
L 79.30605 353.468654 
L 79.935474 353.906808 
L 80.497938 354.044332 
L 81.033618 353.951423 
L 81.596082 353.61945 
L 82.212114 352.98313 
L 82.908498 351.927206 
L 83.712018 350.279638 
L 84.636066 347.846466 
L 85.707426 344.363727 
L 86.979666 339.424424 
L 88.559922 332.332925 
L 90.943698 320.468439 
L 94.184562 304.51396 
L 95.804994 297.655173 
L 97.090626 293.11831 
L 98.175378 290.049948 
L 99.112818 288.025358 
L 99.916338 286.785129 
L 100.612722 286.094965 
L 101.215362 285.792321 
L 101.764434 285.756865 
L 102.313506 285.950806 
L 102.889362 286.399217 
L 103.54557 287.211712 
L 104.295522 288.523697 
L 105.15261 290.503239 
L 106.143618 293.388993 
L 107.29533 297.465773 
L 108.688098 303.26724 
L 110.50941 311.892334 
L 116.187618 339.49912 
L 117.593778 344.897409 
L 118.758882 348.546938 
L 119.74989 350.973764 
L 120.606978 352.526231 
L 121.343538 353.434556 
L 121.986354 353.896241 
L 122.548818 354.043447 
L 123.084498 353.959766 
L 123.646962 353.637424 
L 124.262994 353.011504 
L 124.959378 351.967043 
L 125.762898 350.332159 
L 126.686946 347.912629 
L 127.758306 344.444116 
L 129.017154 339.57487 
L 130.584018 332.567312 
L 132.914226 320.993516 
L 136.275618 304.434142 
L 137.882658 297.639121 
L 139.16829 293.105182 
L 140.253042 290.039668 
L 141.190482 288.017759 
L 141.994002 286.779949 
L 142.690386 286.091942 
L 143.293026 285.791192 
L 143.842098 285.757471 
L 144.39117 285.953142 
L 144.967026 286.40335 
L 145.623234 287.217856 
L 146.373186 288.532065 
L 147.230274 290.514019 
L 148.221282 293.40234 
L 149.372994 297.481732 
L 150.765762 303.285724 
L 152.587074 311.912904 
L 158.265282 339.51644 
L 159.671442 344.911816 
L 160.836546 348.558444 
L 161.827554 350.982527 
L 162.684642 352.532464 
L 163.421202 353.438532 
L 164.064018 353.898207 
L 164.626482 354.043639 
L 165.162162 353.958266 
L 165.724626 353.634159 
L 166.340658 353.006332 
L 167.037042 351.95977 
L 167.840562 350.322559 
L 168.76461 347.900527 
L 169.83597 344.429404 
L 171.10821 339.501694 
L 172.675074 332.4842 
L 175.032066 320.767554 
L 178.33989 304.476192 
L 179.960322 297.623077 
L 181.245954 293.092065 
L 182.330706 290.0294 
L 183.268146 288.010173 
L 184.071666 286.774782 
L 184.754658 286.098695 
L 185.357298 285.793724 
L 185.90637 285.756139 
L 186.455442 285.947954 
L 187.031298 286.394158 
L 187.687506 287.204183 
L 188.424066 288.486553 
L 189.281154 290.455336 
L 190.272162 293.329639 
L 191.423874 297.394757 
L 192.80325 303.125415 
L 194.61117 311.668062 
L 200.396514 339.756623 
L 201.789282 345.065142 
L 202.954386 348.680699 
L 203.945394 351.075408 
L 204.802482 352.598278 
L 205.539042 353.480207 
L 206.168466 353.912452 
L 206.73093 354.044652 
L 207.26661 353.94667 
L 207.829074 353.609404 
L 208.445106 352.967369 
L 209.14149 351.905148 
L 209.94501 350.250613 
L 210.869058 347.809953 
L 211.940418 344.319409 
L 213.212658 339.372322 
L 214.792914 332.273792 
L 217.190082 320.336682 
L 220.404162 304.518271 
L 222.024594 297.658837 
L 223.310226 293.121307 
L 224.394978 290.052295 
L 225.332418 288.027093 
L 226.135938 286.786313 
L 226.832322 286.095656 
L 227.434962 285.79258 
L 227.984034 285.756729 
L 228.533106 285.950275 
L 229.108962 286.398275 
L 229.76517 287.210312 
L 230.515122 288.52179 
L 231.37221 290.50078 
L 232.363218 293.385949 
L 233.51493 297.462132 
L 234.907698 303.263023 
L 236.72901 311.887641 
L 242.42061 339.551057 
L 243.82677 344.9406 
L 244.991874 348.581424 
L 245.982882 351.000017 
L 246.83997 352.544892 
L 247.57653 353.446445 
L 248.219346 353.902099 
L 248.78181 354.043982 
L 249.31749 353.955227 
L 249.879954 353.627589 
L 250.495986 352.995951 
L 251.19237 351.945186 
L 251.99589 350.303325 
L 252.919938 347.876291 
L 253.991298 344.399952 
L 255.263538 339.467034 
L 256.843794 332.381311 
L 259.214178 320.588688 
L 262.481826 304.499383 
L 264.102258 297.642783 
L 265.38789 293.108177 
L 266.472642 290.042013 
L 267.410082 288.019492 
L 268.213602 286.78113 
L 268.909986 286.092631 
L 269.512626 285.791449 
L 270.061698 285.757332 
L 270.61077 285.952608 
L 271.186626 286.402406 
L 271.842834 287.216453 
L 272.592786 288.530155 
L 273.449874 290.511558 
L 274.440882 293.399294 
L 275.592594 297.47809 
L 276.985362 303.281505 
L 278.806674 311.90821 
L 284.484882 339.512488 
L 285.891042 344.908529 
L 287.056146 348.555819 
L 288.047154 350.980528 
L 288.904242 352.531043 
L 289.640802 353.437626 
L 290.283618 353.897759 
L 290.846082 354.043596 
L 291.381762 353.958609 
L 291.944226 353.634905 
L 292.560258 353.007514 
L 293.256642 351.96143 
L 294.060162 350.324751 
L 294.98421 347.90329 
L 296.05557 344.432762 
L 297.32781 339.505647 
L 298.894674 332.488687 
L 301.251666 320.772381 
L 304.55949 304.4805 
L 306.179922 297.626737 
L 307.465554 293.095058 
L 308.550306 290.031742 
L 309.487746 288.011903 
L 310.291266 286.77596 
L 310.974258 286.09939 
L 311.576898 285.793987 
L 312.12597 285.756006 
L 312.675042 285.947427 
L 313.250898 286.39322 
L 313.907106 287.202787 
L 314.643666 288.484657 
L 315.500754 290.452889 
L 316.491762 293.326606 
L 317.643474 297.391125 
L 319.02285 303.121209 
L 320.83077 311.663376 
L 326.616114 339.752696 
L 328.008882 345.061879 
L 329.173986 348.678101 
L 330.164994 351.073438 
L 331.022082 352.596887 
L 331.758642 353.479333 
L 332.388066 353.912027 
L 332.95053 354.044632 
L 333.48621 353.947036 
L 334.048674 353.610172 
L 334.664706 352.968572 
L 335.36109 351.906829 
L 336.16461 350.252825 
L 337.088658 347.812733 
L 338.160018 344.322783 
L 339.432258 339.376288 
L 341.012514 332.278291 
L 343.409682 320.34151 
L 346.623762 304.522582 
L 348.244194 297.662502 
L 349.529826 293.124304 
L 350.614578 290.054643 
L 351.552018 288.028829 
L 352.355538 286.787497 
L 353.051922 286.096348 
L 353.654562 285.79284 
L 354.203634 285.756593 
L 354.752706 285.949744 
L 355.328562 286.397335 
L 355.98477 287.208912 
L 356.72133 288.492969 
L 357.578418 290.463616 
L 358.569426 293.339904 
L 359.721138 297.407044 
L 361.100514 303.139642 
L 362.908434 311.683911 
L 368.693778 339.769905 
L 370.086546 345.076175 
L 371.25165 348.689481 
L 372.242658 351.082064 
L 373.086354 352.583274 
L 373.822914 353.470756 
L 374.452338 353.90784 
L 375.014802 354.044399 
L 375.550482 353.95057 
L 376.112946 353.617638 
L 376.728978 352.980283 
L 377.425362 351.923218 
L 378.228882 350.274386 
L 379.15293 347.839857 
L 380.22429 344.355703 
L 381.49653 339.414988 
L 383.076786 332.322213 
L 385.460562 320.456939 
L 388.701426 304.503692 
L 390.321858 297.646446 
L 391.60749 293.111172 
L 392.692242 290.044358 
L 393.629682 288.021225 
L 394.433202 286.782311 
L 395.129586 286.09332 
L 395.732226 285.791706 
L 396.281298 285.757193 
L 396.83037 285.952074 
L 397.406226 286.401462 
L 398.062434 287.21505 
L 398.812386 288.528245 
L 399.669474 290.509097 
L 400.660482 293.396248 
L 401.812194 297.474448 
L 403.204962 303.277287 
L 405.026274 311.903516 
L 410.704482 339.508536 
L 412.110642 344.905242 
L 413.275746 348.553194 
L 414.266754 350.978529 
L 415.123842 352.529621 
L 415.860402 353.436719 
L 416.503218 353.897311 
L 417.065682 354.043553 
L 417.601362 353.958952 
L 418.163826 353.63565 
L 418.779858 353.008694 
L 419.476242 351.963091 
L 420.279762 350.326942 
L 421.20381 347.906052 
L 422.27517 344.43612 
L 423.534018 339.56547 
L 425.100882 332.556631 
L 427.444482 320.913753 
L 430.77909 304.484808 
L 432.399522 297.630398 
L 433.685154 293.09805 
L 434.769906 290.034085 
L 435.707346 288.013634 
L 436.510866 286.777138 
L 437.20725 286.090304 
L 437.80989 285.790585 
L 438.358962 285.757806 
L 438.908034 285.954417 
L 439.497282 286.419057 
L 440.15349 287.241142 
L 440.903442 288.563736 
L 441.76053 290.55478 
L 442.751538 293.452772 
L 443.916642 297.593688 
L 445.30941 303.415287 
L 447.144114 312.12347 
L 452.728578 339.30168 
L 454.14813 344.77977 
L 455.326626 348.490249 
L 456.331026 350.958976 
L 457.188114 352.515703 
L 457.924674 353.427829 
L 458.56749 353.8929 
L 459.129954 354.043095 
L 459.665634 353.962263 
L 460.228098 353.642895 
L 460.84413 353.020188 
L 461.540514 351.979268 
L 462.344034 350.348303 
L 463.268082 347.932991 
L 464.339442 344.468878 
L 465.59829 339.603987 
L 467.165154 332.600401 
L 469.495362 321.029138 
L 472.856754 304.46593 
L 474.463794 297.666167 
L 475.749426 293.127302 
L 476.834178 290.056991 
L 477.771618 288.030566 
L 478.575138 286.788682 
L 479.271522 286.097041 
L 479.874162 285.793101 
L 480.423234 285.756458 
L 480.972306 285.949214 
L 481.548162 286.396395 
L 482.20437 287.207513 
L 482.94093 288.491071 
L 483.798018 290.461167 
L 484.789026 293.336869 
L 485.940738 297.403411 
L 487.320114 303.135436 
L 489.128034 311.679225 
L 494.913378 339.765978 
L 496.306146 345.072914 
L 497.47125 348.686885 
L 498.462258 351.080097 
L 499.305954 352.581876 
L 500.042514 353.469874 
L 500.671938 353.907407 
L 501.234402 354.044371 
L 501.770082 353.950929 
L 502.332546 353.618399 
L 502.948578 352.981479 
L 503.644962 351.924892 
L 504.448482 350.276591 
L 505.37253 347.842632 
L 506.44389 344.359071 
L 507.71613 339.418949 
L 509.296386 332.32671 
L 511.680162 320.461766 
L 514.921026 304.508002 
L 516.541458 297.650109 
L 517.82709 293.114168 
L 518.911842 290.046704 
L 519.849282 288.02296 
L 520.652802 286.783494 
L 521.349186 286.09401 
L 521.951826 285.791963 
L 522.500898 285.757055 
L 523.04997 285.951541 
L 523.625826 286.400519 
L 524.282034 287.213648 
L 525.031986 288.526336 
L 525.889074 290.506638 
L 526.880082 293.393202 
L 528.031794 297.470806 
L 529.424562 303.27307 
L 531.245874 311.898822 
L 536.924082 339.504584 
L 538.330242 344.901955 
L 539.495346 348.550568 
L 540.486354 350.976529 
L 541.343442 352.528199 
L 542.080002 353.435811 
L 542.722818 353.896863 
L 543.285282 354.043509 
L 543.820962 353.959294 
L 544.383426 353.636395 
L 544.999458 353.009874 
L 545.695842 351.96475 
L 546.499362 350.329132 
L 547.42341 347.908813 
L 548.49477 344.439477 
L 549.753618 339.569416 
L 551.320482 332.561115 
L 553.65069 320.986846 
L 557.012082 304.428192 
L 558.619122 297.634059 
L 559.904754 293.101044 
L 560.989506 290.036428 
L 561.926946 288.015365 
L 562.730466 286.778318 
L 563.42685 286.090991 
L 564.02949 285.790839 
L 564.578562 285.757665 
L 565.127634 285.953881 
L 565.716882 286.418102 
L 566.37309 287.239728 
L 567.123042 288.561816 
L 567.98013 290.55231 
L 568.971138 293.449717 
L 570.136242 297.590032 
L 571.52901 303.411058 
L 573.363714 312.118769 
L 578.948178 339.297707 
L 580.36773 344.776464 
L 581.546226 348.487609 
L 582.550626 350.95697 
L 583.407714 352.514274 
L 584.144274 353.426915 
L 584.78709 353.892445 
L 585.362946 354.043696 
L 585.898626 353.95779 
L 586.46109 353.633126 
L 587.077122 353.004698 
L 587.773506 351.957473 
L 588.577026 350.319529 
L 589.501074 347.896708 
L 590.572434 344.424762 
L 591.844674 339.49623 
L 593.411538 332.477996 
L 595.76853 320.760883 
L 599.076354 304.470237 
L 600.683394 297.669832 
L 601.969026 293.130301 
L 603.053778 290.05934 
L 603.991218 288.032304 
L 604.794738 286.789868 
L 605.491122 286.097735 
L 606.093762 285.793362 
L 606.642834 285.756324 
L 607.191906 285.948685 
L 607.767762 286.395455 
L 608.42397 287.206115 
L 609.16053 288.489174 
L 610.017618 290.458719 
L 611.008626 293.333834 
L 612.160338 297.399778 
L 613.539714 303.131229 
L 615.347634 311.674539 
L 621.132978 339.762052 
L 622.525746 345.069652 
L 623.69085 348.684289 
L 624.681858 351.078129 
L 625.525554 352.580478 
L 626.262114 353.468992 
L 626.891538 353.906974 
L 627.454002 354.044343 
L 627.989682 353.951286 
L 628.552146 353.61916 
L 629.168178 352.982674 
L 629.864562 351.926567 
L 630.668082 350.278795 
L 631.59213 347.845406 
L 632.66349 344.36244 
L 633.93573 339.42291 
L 635.515986 332.331206 
L 637.899762 320.466594 
L 641.140626 304.512313 
L 642.761058 297.653772 
L 644.04669 293.117164 
L 645.131442 290.049051 
L 646.068882 288.024694 
L 646.872402 286.784677 
L 647.568786 286.0947 
L 648.171426 285.792222 
L 648.720498 285.756918 
L 649.26957 285.951009 
L 649.845426 286.399577 
L 650.501634 287.212247 
L 651.251586 288.524427 
L 652.108674 290.504178 
L 653.099682 293.390157 
L 654.251394 297.467165 
L 655.644162 303.268852 
L 657.465474 311.894128 
L 663.143682 339.500631 
L 664.549842 344.898666 
L 665.714946 348.547942 
L 666.705954 350.974529 
L 667.563042 352.526775 
L 668.299602 353.434903 
L 668.942418 353.896413 
L 669.504882 354.043464 
L 670.040562 353.959635 
L 670.603026 353.637139 
L 671.219058 353.011053 
L 671.915442 351.966409 
L 672.718962 350.331322 
L 673.64301 347.911574 
L 674.71437 344.442833 
L 675.973218 339.573362 
L 677.540082 332.565598 
L 679.87029 320.991671 
L 683.231682 304.432496 
L 684.838722 297.637721 
L 686.124354 293.104038 
L 687.209106 290.038772 
L 688.146546 288.017097 
L 688.950066 286.779498 
L 689.64645 286.091679 
L 690.24909 285.791095 
L 690.798162 285.757525 
L 691.347234 285.953346 
L 691.92309 286.403712 
L 692.579298 287.218392 
L 693.32925 288.532796 
L 694.186338 290.514959 
L 695.177346 293.403505 
L 696.329058 297.483125 
L 697.721826 303.287336 
L 699.543138 311.914698 
L 705.221346 339.51795 
L 706.627506 344.913072 
L 707.79261 348.559447 
L 708.783618 350.983291 
L 709.640706 352.533007 
L 710.377266 353.438878 
L 711.020082 353.898378 
L 711.582546 354.043655 
L 712.118226 353.958134 
L 712.68069 353.633873 
L 713.296722 353.005881 
L 713.993106 351.959135 
L 714.796626 350.321721 
L 715.720674 347.899471 
L 716.792034 344.42812 
L 718.064274 339.500183 
L 718.582813 337.278268 
L 718.582813 337.278268 
" clip-path="url(#pf73e99488c)" style="fill: none; stroke: #1f77b4; stroke-width: 1.5; stroke-linecap: square"/>
   </g>
   <g id="line2d_30">
    <path d="M 48.982813 176.21716 
L 56.33877 176.328133 
L 56.593218 176.655404 
L 56.887842 177.476973 
L 57.262818 179.277762 
L 57.758322 182.865222 
L 58.454706 189.726364 
L 61.213458 218.916744 
L 61.69557 221.225793 
L 62.016978 221.904647 
L 62.217858 221.957198 
L 62.405346 221.750762 
L 62.686578 221.02718 
L 63.23565 218.821126 
L 64.360578 213.349717 
L 65.739954 205.473999 
L 67.601442 193.441704 
L 72.529698 160.957587 
L 74.002818 153.039297 
L 75.208098 147.699616 
L 76.239282 144.078766 
L 77.123154 141.732891 
L 77.873106 140.318 
L 78.515922 139.536339 
L 79.064994 139.186957 
L 79.560498 139.123539 
L 80.04261 139.289838 
L 80.564898 139.720771 
L 81.154146 140.514096 
L 81.837138 141.829048 
L 82.640658 143.894934 
L 83.578098 146.965227 
L 84.676242 151.371211 
L 86.00205 157.66442 
L 87.74301 167.098676 
L 93.56853 199.583832 
L 94.947906 205.57094 
L 96.099618 209.634636 
L 97.077234 212.325817 
L 97.92093 214.048733 
L 98.670882 215.536067 
L 99.045858 217.02811 
L 99.514578 219.90665 
L 100.157394 225.408686 
L 101.282322 237.3823 
L 102.447426 248.945161 
L 103.063458 253.077824 
L 103.492002 254.673021 
L 103.773234 255.040869 
L 103.94733 254.975951 
L 104.14821 254.612113 
L 104.429442 253.579174 
L 104.844594 251.051142 
L 105.715074 243.964488 
L 107.014098 231.581807 
L 108.70149 213.192351 
L 114.901986 143.432134 
L 116.227794 132.042559 
L 117.33933 124.28453 
L 118.290162 119.104381 
L 119.107074 115.799927 
L 119.790066 113.880445 
L 120.35253 112.8866 
L 120.82125 112.465763 
L 121.209618 112.39736 
L 121.571202 112.56087 
L 121.986354 113.016481 
L 122.481858 113.930104 
L 123.071106 115.529278 
L 123.76749 118.113475 
L 124.584402 122.054938 
L 125.548626 127.874143 
L 126.686946 136.179954 
L 128.093106 148.188375 
L 130.021554 166.764403 
L 134.534658 210.868789 
L 136.034562 223.026828 
L 137.266626 231.297108 
L 138.29781 236.817265 
L 139.181682 240.434453 
L 139.945026 242.687482 
L 140.97621 245.460106 
L 141.431538 247.865066 
L 142.04757 252.46242 
L 143.092146 262.289745 
L 144.270642 272.761513 
L 144.873282 276.317111 
L 145.275042 277.582883 
L 145.52949 277.83513 
L 145.703586 277.73811 
L 145.917858 277.300277 
L 146.212482 276.099506 
L 146.60085 273.445259 
L 147.190098 267.569517 
L 148.40877 252.868905 
L 149.975634 231.115027 
L 152.520114 192.160756 
L 155.319042 150.314706 
L 156.91269 129.718854 
L 158.18493 115.965596 
L 159.269682 106.514184 
L 160.19373 100.295191 
L 160.970466 96.450736 
L 161.626674 94.218952 
L 162.162354 93.09718 
L 162.590898 92.654796 
L 162.925698 92.590182 
L 163.247106 92.758958 
L 163.622082 93.239506 
L 164.07741 94.228917 
L 164.626482 96.003132 
L 165.28269 98.932648 
L 166.059426 103.487831 
L 166.970082 110.227882 
L 168.054834 120.02403 
L 169.36725 134.031154 
L 171.081426 154.910143 
L 176.987298 228.983378 
L 178.33989 242.134206 
L 179.464818 251.045492 
L 180.429042 257.025596 
L 181.245954 260.806414 
L 181.942338 263.061202 
L 183.281538 266.819065 
L 183.817218 269.932698 
L 184.607346 276.035925 
L 186.24117 288.873585 
L 186.790242 291.461442 
L 187.151826 292.280898 
L 187.37949 292.36778 
L 187.566978 292.165432 
L 187.808034 291.516633 
L 188.129442 289.929642 
L 188.544594 286.60712 
L 189.107058 280.048156 
L 190.298946 262.923765 
L 191.919378 236.278359 
L 194.798658 184.437385 
L 197.236002 142.339512 
L 198.789474 119.156464 
L 200.048322 103.486643 
L 201.10629 92.893776 
L 202.016946 85.855899 
L 202.793682 81.461449 
L 203.436498 78.97864 
L 203.958786 77.741418 
L 204.373938 77.258692 
L 204.695346 77.189002 
L 204.98997 77.357145 
L 205.338162 77.840027 
L 205.766706 78.852495 
L 206.288994 80.699762 
L 206.918418 83.797395 
L 207.66837 88.680499 
L 208.552242 95.995513 
L 209.596818 106.609108 
L 210.855666 121.815659 
L 212.462706 144.130602 
L 215.30181 187.336564 
L 217.752546 223.155685 
L 219.306018 242.752616 
L 220.564866 255.971865 
L 221.622834 264.877812 
L 222.520098 270.68839 
L 223.283442 274.299267 
L 223.926258 276.360517 
L 224.47533 277.436692 
L 224.997618 278.45894 
L 225.41277 279.909675 
L 225.94845 282.704459 
L 226.778754 288.407274 
L 227.917074 295.988101 
L 228.104562 296.13707 
L 228.506322 296.04114 
L 229.082178 295.716062 
L 229.416978 295.267116 
L 229.69821 294.474943 
L 230.03301 292.77224 
L 230.448162 289.380376 
L 230.983842 282.935099 
L 232.015026 267.041076 
L 233.622066 238.835259 
L 236.420994 184.982495 
L 238.93869 138.326051 
L 240.505554 113.236884 
L 241.764402 96.407277 
L 242.835762 84.879871 
L 243.746418 77.31482 
L 244.523154 72.578548 
L 245.16597 69.890432 
L 245.688258 68.538963 
L 246.10341 67.999228 
L 246.424818 67.905955 
L 246.70605 68.055691 
L 247.04085 68.513642 
L 247.456002 69.499533 
L 247.964898 71.329373 
L 248.58093 74.436961 
L 249.31749 79.385303 
L 250.18797 86.860427 
L 251.205762 97.632942 
L 252.437826 113.194321 
L 253.991298 135.851747 
L 256.468818 175.780856 
L 259.334706 221.021866 
L 260.928354 242.734773 
L 262.200594 257.206764 
L 263.271954 267.012368 
L 264.18261 273.446931 
L 264.959346 277.470599 
L 265.602162 279.747161 
L 266.12445 280.884213 
L 266.579778 281.394701 
L 267.021714 281.901221 
L 267.369906 282.721678 
L 267.811842 284.39795 
L 268.454658 287.840063 
L 269.927778 296.045866 
L 270.168834 296.060731 
L 270.784866 295.813153 
L 271.186626 295.439588 
L 271.48125 294.832585 
L 271.789266 293.617228 
L 272.177634 291.039713 
L 272.646354 286.260198 
L 273.275778 277.212199 
L 274.62837 253.759138 
L 276.596994 215.452937 
L 280.962786 129.449595 
L 282.489474 104.319913 
L 283.73493 87.292018 
L 284.779506 75.855467 
L 285.67677 68.306978 
L 286.440114 63.630005 
L 287.069538 61.01426 
L 287.578434 59.729278 
L 287.980194 59.24042 
L 288.28821 59.179014 
L 288.569442 59.359386 
L 288.904242 59.866398 
L 289.332786 60.974153 
L 289.855074 63.009037 
L 290.484498 66.434336 
L 291.23445 71.846791 
L 292.118322 79.967448 
L 293.162898 91.762528 
L 294.421746 108.674378 
L 296.028786 133.504474 
L 298.854498 181.366966 
L 301.318626 221.460381 
L 302.872098 243.261326 
L 304.117554 257.817407 
L 305.175522 267.739136 
L 306.072786 274.210907 
L 306.83613 278.230654 
L 307.478946 280.522755 
L 307.987842 281.618391 
L 308.402994 282.044661 
L 309.286866 282.63579 
L 309.635058 283.468364 
L 310.11717 285.28634 
L 310.867122 289.13331 
L 312.085794 295.294192 
L 312.353634 295.820112 
L 312.581298 295.821256 
L 312.969666 295.565424 
L 313.291074 295.082669 
L 313.585698 294.18654 
L 313.93389 292.33661 
L 314.362434 288.736742 
L 314.884722 282.267294 
L 315.67485 269.150479 
L 317.255106 238.982236 
L 319.866546 184.117592 
L 322.585122 128.54479 
L 324.17877 100.376978 
L 325.45101 81.574848 
L 326.52237 68.796361 
L 327.446418 60.260333 
L 328.223154 54.972453 
L 328.879362 51.89124 
L 329.415042 50.33077 
L 329.830194 49.714144 
L 330.13821 49.59062 
L 330.40605 49.713505 
L 330.727458 50.142046 
L 331.129218 51.104969 
L 331.624722 52.936665 
L 332.227362 56.100405 
L 332.937138 61.095659 
L 333.780834 68.718842 
L 334.771842 79.813113 
L 335.96373 95.819983 
L 337.450242 119.005583 
L 339.633138 156.974131 
L 343.115058 217.339265 
L 344.695314 240.768014 
L 345.967554 256.500533 
L 347.038914 267.138929 
L 347.94957 274.10092 
L 348.712914 278.374576 
L 349.35573 280.832651 
L 349.878018 282.050148 
L 350.279778 282.509445 
L 350.614578 282.591624 
L 351.203826 282.639971 
L 351.485058 282.985573 
L 351.846642 283.836553 
L 352.355538 285.696164 
L 353.30637 290.242435 
L 354.150066 293.806167 
L 354.592002 294.858376 
L 354.859842 295.05325 
L 355.060722 294.95376 
L 355.301778 294.545801 
L 355.596402 293.555421 
L 355.971378 291.396083 
L 356.413314 287.418788 
L 356.948994 280.39244 
L 357.752514 266.355697 
L 359.372946 233.90458 
L 362.305794 169.668726 
L 364.702962 119.424618 
L 366.256434 91.302425 
L 367.515282 72.311369 
L 368.57325 59.485225 
L 369.483906 50.972933 
L 370.24725 45.741748 
L 370.890066 42.723702 
L 371.412354 41.217819 
L 371.814114 40.638765 
L 372.12213 40.535371 
L 372.38997 40.684693 
L 372.711378 41.155817 
L 373.113138 42.188399 
L 373.608642 44.130635 
L 374.211282 47.464345 
L 374.93445 52.819684 
L 375.778146 60.829236 
L 376.782546 72.624213 
L 377.987826 89.589909 
L 379.48773 114.066627 
L 381.737586 154.906428 
L 385.04541 214.51303 
L 386.625666 238.966282 
L 387.897906 255.420349 
L 388.969266 266.574919 
L 389.879922 273.900177 
L 390.656658 278.48606 
L 391.299474 281.085744 
L 391.821762 282.388217 
L 392.236914 282.903174 
L 392.558322 282.990716 
L 393.01365 282.818752 
L 393.308274 282.837855 
L 393.576114 283.095664 
L 393.924306 283.796395 
L 394.406418 285.349067 
L 395.276898 289.082005 
L 396.147378 292.443153 
L 396.589314 293.38841 
L 396.870546 293.565511 
L 397.071426 293.447876 
L 397.312482 293.003295 
L 397.620498 291.898377 
L 397.995474 289.644666 
L 398.450802 285.417935 
L 398.999874 277.996923 
L 399.803394 263.513847 
L 401.45061 229.481466 
L 404.785218 154.557569 
L 406.927938 109.40021 
L 408.427842 82.23563 
L 409.646514 63.933159 
L 410.677698 51.544638 
L 411.56157 43.39894 
L 412.311522 38.371041 
L 412.940946 35.522196 
L 413.449842 34.144368 
L 413.83821 33.651019 
L 414.119442 33.594731 
L 414.387282 33.775135 
L 414.70869 34.291112 
L 415.123842 35.436462 
L 415.632738 37.565314 
L 416.24877 41.183721 
L 416.98533 46.948649 
L 417.85581 55.660886 
L 418.873602 68.220389 
L 420.105666 86.368691 
L 421.659138 112.801318 
L 424.123266 159.14879 
L 427.015938 212.480109 
L 428.609586 237.8342 
L 429.881826 254.738944 
L 430.953186 266.199193 
L 431.863842 273.726099 
L 432.640578 278.439544 
L 433.283394 281.113067 
L 433.805682 282.454166 
L 434.220834 282.985995 
L 434.542242 283.075303 
L 434.877042 282.909347 
L 435.345762 282.695403 
L 435.60021 282.828365 
L 435.908226 283.282076 
L 436.323378 284.349395 
L 436.979586 286.759801 
L 438.184866 291.192207 
L 438.61341 291.993933 
L 438.88125 292.116515 
L 439.095522 291.960638 
L 439.34997 291.442339 
L 439.671378 290.206838 
L 440.059746 287.741234 
L 440.528466 283.183734 
L 441.077538 275.489263 
L 441.89445 260.354894 
L 443.581842 224.655736 
L 449.755554 89.863161 
L 451.094754 67.486311 
L 452.20629 52.388848 
L 453.157122 42.287034 
L 453.974034 35.822221 
L 454.657026 32.046588 
L 455.206098 30.106486 
L 455.648034 29.258327 
L 455.969442 29.04098 
L 456.237282 29.115958 
L 456.531906 29.465933 
L 456.906882 30.313477 
L 457.375602 31.998227 
L 457.938066 34.918372 
L 458.621058 39.739632 
L 459.424578 47.11439 
L 460.37541 58.040809 
L 461.500338 73.695665 
L 462.879714 96.200567 
L 464.754594 130.789056 
L 469.54893 220.850742 
L 471.02205 243.535549 
L 472.22733 258.864216 
L 473.245122 269.16232 
L 474.115602 275.8716 
L 474.852162 279.960807 
L 475.468194 282.233409 
L 475.950306 283.274487 
L 476.325282 283.635442 
L 476.619906 283.646388 
L 476.954706 283.408694 
L 477.45021 283.09145 
L 477.704658 283.190304 
L 477.999282 283.574866 
L 478.401042 284.515609 
L 479.030466 286.648329 
L 480.235746 290.754127 
L 480.650898 291.445061 
L 480.905346 291.530481 
L 481.119618 291.361289 
L 481.374066 290.834628 
L 481.695474 289.599729 
L 482.083842 287.15031 
L 482.552562 282.630882 
L 483.101634 274.988602 
L 483.87837 260.583617 
L 485.55237 224.90488 
L 491.806434 87.287529 
L 493.132242 65.081546 
L 494.243778 49.976606 
L 495.19461 39.908054 
L 495.99813 33.588606 
L 496.66773 29.90995 
L 497.216802 27.989031 
L 497.645346 27.179776 
L 497.966754 26.969674 
L 498.234594 27.05354 
L 498.529218 27.416279 
L 498.904194 28.284569 
L 499.372914 30.002277 
L 499.94877 33.054675 
L 500.631762 37.977901 
L 501.435282 45.490147 
L 502.386114 56.601386 
L 503.511042 72.501423 
L 504.890418 95.337334 
L 506.765298 130.407658 
L 511.53285 221.199301 
L 513.00597 244.246504 
L 514.21125 259.844622 
L 515.229042 270.345724 
L 516.099522 277.207937 
L 516.836082 281.410217 
L 517.452114 283.765206 
L 517.947618 284.883851 
L 518.322594 285.269482 
L 518.617218 285.295532 
L 518.925234 285.08069 
L 519.581442 284.557508 
L 519.83589 284.658016 
L 520.130514 285.040412 
L 520.545666 285.998796 
L 521.228658 288.252088 
L 522.259842 291.540918 
L 522.674994 292.209649 
L 522.942834 292.289565 
L 523.157106 292.111228 
L 523.424946 291.541116 
L 523.759746 290.213557 
L 524.161506 287.59669 
L 524.630226 282.9575 
L 525.19269 274.955501 
L 525.99621 259.78128 
L 527.710386 222.775725 
L 533.616258 91.521119 
L 534.96885 68.152084 
L 536.10717 52.103521 
L 537.071394 41.43946 
L 537.888306 34.662007 
L 538.58469 30.584932 
L 539.147154 28.456912 
L 539.58909 27.520625 
L 539.92389 27.242537 
L 540.19173 27.286934 
L 540.472962 27.58764 
L 540.821154 28.318047 
L 541.26309 29.809307 
L 541.812162 32.52527 
L 542.46837 36.989437 
L 543.245106 43.910968 
L 544.155762 54.132628 
L 545.240514 68.968916 
L 546.55293 90.162066 
L 548.267106 121.730438 
L 554.159586 233.478404 
L 555.512178 253.414474 
L 556.650498 267.09409 
L 557.614722 276.171673 
L 558.431634 281.928204 
L 559.128018 285.378143 
L 559.690482 287.166078 
L 560.132418 287.940206 
L 560.48061 288.159196 
L 560.761842 288.08745 
L 561.123426 287.718352 
L 561.61893 287.26388 
L 561.88677 287.3045 
L 562.168002 287.601619 
L 562.55637 288.390596 
L 563.15901 290.211552 
L 564.350898 293.859015 
L 564.739266 294.413502 
L 564.993714 294.460317 
L 565.221378 294.248538 
L 565.489218 293.648727 
L 565.824018 292.288552 
L 566.225778 289.636916 
L 566.70789 284.802323 
L 567.270354 276.699302 
L 568.087266 261.127429 
L 569.828226 223.275295 
L 575.519826 96.110914 
L 576.899202 71.878486 
L 578.050914 55.330367 
L 579.02853 44.281619 
L 579.858834 37.225949 
L 580.555218 33.02651 
L 581.131074 30.762739 
L 581.586402 29.75381 
L 581.934594 29.44806 
L 582.202434 29.486794 
L 582.483666 29.78262 
L 582.831858 30.50853 
L 583.273794 31.996593 
L 583.822866 34.712575 
L 584.479074 39.182674 
L 585.25581 46.119635 
L 586.166466 56.370994 
L 587.251218 71.2587 
L 588.563634 92.536232 
L 590.27781 124.247605 
L 596.210466 237.306954 
L 597.563058 257.293284 
L 598.687986 270.849812 
L 599.65221 279.962207 
L 600.469122 285.739096 
L 601.165506 289.199852 
L 601.72797 290.992228 
L 602.169906 291.76722 
L 602.504706 291.983253 
L 602.785938 291.919597 
L 603.120738 291.579808 
L 603.723378 290.954418 
L 603.991218 290.991322 
L 604.27245 291.282772 
L 604.660818 292.056337 
L 605.27685 293.873854 
L 605.959842 295.760128 
L 606.200898 295.845224 
L 606.656226 295.709358 
L 607.111554 295.365571 
L 607.432962 294.822671 
L 607.75437 293.779008 
L 608.129346 291.724226 
L 608.584674 287.837958 
L 609.106962 281.300045 
L 609.76317 269.988046 
L 611.209506 239.92976 
L 613.78077 181.273582 
L 616.539522 119.934792 
L 618.119778 89.564837 
L 619.392018 69.117835 
L 620.463378 55.237494 
L 621.374034 46.100036 
L 622.15077 40.355644 
L 622.806978 37.020678 
L 623.329266 35.37507 
L 623.744418 34.707856 
L 624.052434 34.579256 
L 624.320274 34.720225 
L 624.62829 35.171452 
L 625.016658 36.177516 
L 625.49877 38.095485 
L 626.088018 41.423994 
L 626.797794 46.821085 
L 627.628098 54.956788 
L 628.605714 66.850929 
L 629.770818 83.892784 
L 631.217154 108.530785 
L 633.26613 147.661893 
L 637.243554 224.088195 
L 638.797026 249.313195 
L 640.055874 266.329239 
L 641.113842 277.799627 
L 642.011106 285.292808 
L 642.77445 289.9604 
L 643.417266 292.636701 
L 643.939554 293.955086 
L 644.341314 294.444898 
L 644.64933 294.512277 
L 644.943954 294.330491 
L 645.38589 293.719956 
L 645.814434 293.286802 
L 646.082274 293.30344 
L 646.363506 293.575572 
L 646.738482 294.290687 
L 647.542002 295.936231 
L 647.916978 295.942536 
L 648.720498 295.722143 
L 649.189218 295.383043 
L 649.510626 294.86114 
L 649.832034 293.851941 
L 650.20701 291.848319 
L 650.648946 288.173034 
L 651.171234 281.798744 
L 651.827442 270.712381 
L 653.273778 241.185173 
L 655.925394 181.894134 
L 658.57701 124.349232 
L 660.157266 94.700037 
L 661.429506 74.76521 
L 662.500866 61.254556 
L 663.411522 52.379847 
L 664.188258 46.818606 
L 664.831074 43.659044 
L 665.353362 42.068273 
L 665.755122 41.442949 
L 666.063138 41.315543 
L 666.330978 41.452192 
L 666.638994 41.892326 
L 667.027362 42.875147 
L 667.509474 44.750106 
L 668.098722 48.005234 
L 668.808498 53.284618 
L 669.638802 61.24418 
L 670.616418 72.882152 
L 671.781522 89.558425 
L 673.227858 113.669574 
L 675.276834 151.966228 
L 679.254258 226.766839 
L 680.80773 251.455573 
L 682.066578 268.109525 
L 683.124546 279.335325 
L 684.02181 286.668141 
L 684.785154 291.235204 
L 685.42797 293.853192 
L 685.950258 295.142161 
L 686.352018 295.62033 
L 686.660034 295.685155 
L 686.954658 295.504758 
L 687.343026 294.956062 
L 687.865314 294.294234 
L 688.133154 294.26536 
L 688.400994 294.478236 
L 688.762578 295.092568 
L 689.284866 295.927191 
L 689.633058 295.984673 
L 690.503538 295.844071 
L 691.11957 295.55211 
L 691.481154 295.13597 
L 691.78917 294.406164 
L 692.137362 292.924401 
L 692.552514 290.067321 
L 693.034626 285.077087 
L 693.610482 276.617865 
L 694.574706 258.357723 
L 696.529938 216.995408 
L 700.89573 123.516284 
L 702.409026 96.466189 
L 703.64109 78.164976 
L 704.685666 65.742105 
L 705.58293 57.560743 
L 706.332882 52.584156 
L 706.962306 49.753247 
L 707.471202 48.373822 
L 707.85957 47.869956 
L 708.154194 47.804125 
L 708.422034 47.980209 
L 708.743442 48.486349 
L 709.158594 49.611735 
L 709.66749 51.705475 
L 710.283522 55.266732 
L 711.020082 60.944215 
L 711.890562 69.529795 
L 712.908354 81.915326 
L 714.127026 99.617201 
L 715.667106 125.466343 
L 718.050882 169.778455 
L 718.582813 179.871708 
L 718.582813 179.871708 
" clip-path="url(#pf73e99488c)" style="fill: none; stroke: #ff7f0e; stroke-width: 1.5; stroke-linecap: square"/>
   </g>
   <g id="line2d_31">
    <path d="M 48.982813 297.789913 
L 56.352162 297.899869 
L 56.60661 298.212137 
L 56.901234 298.979875 
L 57.289602 300.715903 
L 57.798498 304.139248 
L 58.521666 310.719167 
L 61.079538 335.482955 
L 61.588434 337.925293 
L 61.936626 338.706814 
L 62.16429 338.793611 
L 62.351778 338.611287 
L 62.619618 337.982421 
L 63.10173 336.143614 
L 64.186482 331.021657 
L 65.525682 323.56828 
L 67.293426 312.364937 
L 72.87789 276.025958 
L 74.28405 268.802195 
L 75.449154 263.914451 
L 76.440162 260.651892 
L 77.29725 258.545729 
L 78.020418 257.306993 
L 78.649842 256.638399 
L 79.185522 256.371893 
L 79.667634 256.369609 
L 80.149746 256.590766 
L 80.685426 257.095113 
L 81.301458 258.004547 
L 82.011234 259.474982 
L 82.841538 261.740608 
L 83.805762 265.053992 
L 84.957474 269.861598 
L 86.363634 276.756652 
L 88.27869 287.374622 
L 92.952498 313.719369 
L 94.452402 320.684891 
L 95.684466 325.407282 
L 96.729042 328.58286 
L 97.626306 330.647138 
L 98.871762 333.305606 
L 99.300306 335.348143 
L 99.86277 339.222573 
L 100.706466 346.803119 
L 102.460818 362.827009 
L 103.050066 366.218308 
L 103.465218 367.49813 
L 103.733058 367.749773 
L 103.907154 367.651736 
L 104.134818 367.199527 
L 104.442834 365.997517 
L 104.88477 363.220571 
L 105.835602 355.411677 
L 107.16141 342.669323 
L 108.90237 323.617644 
L 114.607362 259.454356 
L 115.986738 247.27194 
L 117.13845 238.960165 
L 118.116066 233.417492 
L 118.94637 229.88446 
L 119.656146 227.755406 
L 120.245394 226.624925 
L 120.727506 226.133259 
L 121.115874 226.020848 
L 121.477458 226.142766 
L 121.879218 226.532546 
L 122.347938 227.321584 
L 122.910402 228.734621 
L 123.580002 231.060212 
L 124.37013 234.662713 
L 125.294178 239.972639 
L 126.392322 247.658089 
L 127.731522 258.716982 
L 129.485874 275.215231 
L 135.110514 329.556903 
L 136.503282 340.17043 
L 137.654994 347.351738 
L 138.646002 352.211158 
L 139.489698 355.310872 
L 140.212866 357.188161 
L 140.855682 358.841538 
L 141.31101 360.852413 
L 141.900258 364.61104 
L 142.824306 372.201882 
L 144.203682 383.300146 
L 144.79293 386.391219 
L 145.19469 387.509192 
L 145.449138 387.717608 
L 145.636626 387.597721 
L 145.86429 387.120217 
L 146.172306 385.865712 
L 146.574066 383.15631 
L 147.163314 377.38024 
L 148.368594 363.040479 
L 149.922066 341.745381 
L 152.386194 304.42818 
L 155.292258 261.279896 
L 156.885906 240.846529 
L 158.158146 227.20137 
L 159.229506 217.928762 
L 160.153554 211.739119 
L 160.93029 207.910988 
L 161.586498 205.687601 
L 162.122178 204.569371 
L 162.550722 204.12788 
L 162.885522 204.062871 
L 163.20693 204.230442 
L 163.581906 204.708657 
L 164.037234 205.694045 
L 164.586306 207.461952 
L 165.242514 210.382332 
L 166.01925 214.925304 
L 166.929906 221.65051 
L 168.014658 231.430567 
L 169.327074 245.424501 
L 171.027858 266.133039 
L 177.06765 341.924209 
L 178.40685 354.873315 
L 179.531778 363.727051 
L 180.496002 369.656618 
L 181.312914 373.39621 
L 181.995906 375.584586 
L 183.29493 379.197204 
L 183.857394 382.2433 
L 184.727874 388.395092 
L 186.093858 397.887583 
L 186.656322 400.341462 
L 187.031298 401.141698 
L 187.258962 401.234488 
L 187.44645 401.064017 
L 187.687506 400.493101 
L 188.008914 399.074514 
L 188.410674 396.184547 
L 188.932962 390.622729 
L 189.937362 376.890837 
L 191.437266 353.302322 
L 193.646946 314.60091 
L 197.075298 254.827683 
L 198.668946 231.014222 
L 199.941186 215.131619 
L 201.012546 204.354615 
L 201.923202 197.264617 
L 202.699938 192.811757 
L 203.356146 190.230917 
L 203.891826 188.938196 
L 204.306978 188.441989 
L 204.628386 188.360736 
L 204.92301 188.517539 
L 205.271202 188.98625 
L 205.699746 189.980371 
L 206.222034 191.804368 
L 206.851458 194.87341 
L 207.60141 199.723007 
L 208.485282 207.001516 
L 209.529858 217.579669 
L 210.775314 232.586704 
L 212.368962 254.686583 
L 215.03397 295.327335 
L 217.672194 334.33799 
L 219.25245 354.532209 
L 220.52469 368.102688 
L 221.59605 377.294146 
L 222.506706 383.32664 
L 223.283442 387.102155 
L 223.93965 389.278041 
L 224.502114 390.432437 
L 225.037794 391.529085 
L 225.47973 393.059578 
L 226.068978 396.009556 
L 227.207298 403.174967 
L 227.903682 406.899649 
L 228.077778 406.975953 
L 228.42597 406.728479 
L 229.042002 406.039754 
L 229.43037 405.282198 
L 229.751778 404.124984 
L 230.126754 401.85003 
L 230.595474 397.473597 
L 231.224898 389.174478 
L 232.537314 368.266766 
L 234.358626 335.429258 
L 239.514546 240.377674 
L 240.94749 219.034731 
L 242.139378 204.419048 
L 243.143778 194.661066 
L 244.000866 188.343902 
L 244.724034 184.52138 
L 245.326674 182.415559 
L 245.808786 181.444694 
L 246.183762 181.129027 
L 246.478386 181.150078 
L 246.786402 181.424019 
L 247.161378 182.102509 
L 247.616706 183.429611 
L 248.17917 185.816312 
L 248.84877 189.701964 
L 249.638898 195.678742 
L 250.576338 204.584806 
L 251.687874 217.419783 
L 253.040466 235.798379 
L 254.834994 263.482909 
L 260.151618 347.486765 
L 261.57117 365.469572 
L 262.749666 377.737891 
L 263.754066 385.999279 
L 264.611154 391.318712 
L 265.334322 394.510748 
L 265.92357 396.214328 
L 266.405682 397.012804 
L 267.19581 398.074021 
L 267.610962 399.274311 
L 268.173426 401.668765 
L 269.392098 408.181132 
L 269.860818 410.030239 
L 270.034914 410.031683 
L 270.463458 409.683917 
L 271.039314 408.960767 
L 271.400898 408.151664 
L 271.735698 406.799638 
L 272.137458 404.128812 
L 272.61957 399.278779 
L 273.248994 390.424938 
L 274.574802 367.879939 
L 276.50325 331.022287 
L 281.029746 243.248332 
L 282.52965 219.120932 
L 283.748322 202.858447 
L 284.779506 191.851087 
L 285.663378 184.617258 
L 286.41333 180.157786 
L 287.042754 177.637657 
L 287.55165 176.426017 
L 287.940018 175.99971 
L 288.234642 175.963564 
L 288.515874 176.15927 
L 288.864066 176.711107 
L 289.29261 177.85565 
L 289.814898 179.933384 
L 290.444322 183.407983 
L 291.194274 188.876818 
L 292.078146 197.062278 
L 293.122722 208.934385 
L 294.38157 225.944302 
L 295.98861 250.916429 
L 298.760754 298.183049 
L 301.291842 339.790325 
L 302.858706 362.037255 
L 304.117554 376.948838 
L 305.188914 387.148137 
L 306.09957 393.825927 
L 306.876306 397.99032 
L 307.519122 400.337394 
L 308.04141 401.501082 
L 308.456562 401.956398 
L 309.300258 402.611411 
L 309.675234 403.463645 
L 310.18413 405.236672 
L 311.108178 409.453237 
L 312.005442 413.150266 
L 312.300066 413.685305 
L 312.487554 413.622016 
L 312.86253 413.185428 
L 313.250898 412.42065 
L 313.585698 411.232036 
L 313.974066 408.923577 
L 314.442786 404.631607 
L 315.00525 397.223287 
L 315.969474 380.8343 
L 317.656866 348.325373 
L 323.830578 225.560355 
L 325.156386 205.410577 
L 326.267922 191.684877 
L 327.218754 182.521217 
L 328.022274 176.758112 
L 328.705266 173.339665 
L 329.254338 171.595642 
L 329.682882 170.860325 
L 330.017682 170.667628 
L 330.285522 170.75381 
L 330.593538 171.115648 
L 330.981906 171.969291 
L 331.464018 173.637598 
L 332.039874 176.495214 
L 332.736258 181.16699 
L 333.55317 188.25789 
L 334.517394 198.691833 
L 335.669106 213.737396 
L 337.075266 235.20454 
L 339.017106 268.579154 
L 343.449858 345.775242 
L 344.963154 367.716676 
L 346.195218 382.537785 
L 347.239794 392.578337 
L 348.123666 399.08849 
L 348.873618 403.107988 
L 349.503042 405.385564 
L 350.011938 406.486697 
L 350.413698 406.889621 
L 350.788674 406.952725 
L 351.190434 407.052604 
L 351.49845 407.40338 
L 351.886818 408.24357 
L 352.43589 410.050666 
L 354.297378 416.66832 
L 354.632178 417.036717 
L 354.84645 416.997697 
L 355.087506 416.679935 
L 355.38213 415.876971 
L 355.743714 414.160613 
L 356.172258 410.935665 
L 356.681154 405.268111 
L 357.32397 395.324633 
L 358.66317 370.12392 
L 360.712146 327.086529 
L 364.662786 243.616492 
L 366.216258 215.84371 
L 367.475106 197.094263 
L 368.533074 184.443481 
L 369.430338 176.168794 
L 370.193682 171.004817 
L 370.836498 168.034706 
L 371.358786 166.562598 
L 371.760546 166.006714 
L 372.05517 165.917278 
L 372.32301 166.068743 
L 372.644418 166.541464 
L 373.046178 167.574784 
L 373.541682 169.51645 
L 374.144322 172.848082 
L 374.86749 178.200367 
L 375.711186 186.207932 
L 376.715586 198.006573 
L 377.907474 214.787883 
L 379.393986 239.061073 
L 381.576882 278.786546 
L 385.085586 342.460032 
L 386.665842 367.00888 
L 387.938082 383.529626 
L 389.009442 394.738941 
L 389.920098 402.113092 
L 390.696834 406.744393 
L 391.353042 409.42877 
L 391.888722 410.773546 
L 392.303874 411.29043 
L 392.638674 411.383282 
L 393.442194 411.398161 
L 393.763602 411.819746 
L 394.192146 412.811189 
L 394.861746 415.023212 
L 396.013458 418.798752 
L 396.442002 419.522168 
L 396.709842 419.633252 
L 396.924114 419.492472 
L 397.178562 419.023439 
L 397.49997 417.903619 
L 397.888338 415.66452 
L 398.357058 411.51442 
L 398.90613 404.467304 
L 399.656082 391.513033 
L 401.222946 360.016398 
L 403.874562 301.427854 
L 406.526178 244.571372 
L 408.106434 215.282675 
L 409.378674 195.595001 
L 410.450034 182.256336 
L 411.36069 173.49891 
L 412.137426 168.015388 
L 412.780242 164.904077 
L 413.30253 163.341617 
L 413.70429 162.731387 
L 414.012306 162.611618 
L 414.280146 162.752139 
L 414.588162 163.193557 
L 414.97653 164.173203 
L 415.472034 166.098758 
L 416.061282 169.352752 
L 416.771058 174.614294 
L 417.601362 182.53084 
L 418.59237 194.263089 
L 419.770866 211.044756 
L 421.230594 235.237756 
L 423.319746 273.997853 
L 427.149858 345.323932 
L 428.716722 370.092636 
L 429.97557 386.68635 
L 431.033538 397.90459 
L 431.944194 405.35612 
L 432.72093 410.005505 
L 433.363746 412.62823 
L 433.886034 413.930645 
L 434.287794 414.425145 
L 434.609202 414.507388 
L 434.970786 414.338141 
L 435.385938 414.208682 
L 435.66717 414.363193 
L 436.00197 414.836369 
L 436.47069 415.941554 
L 437.461698 419.044227 
L 438.117906 420.703515 
L 438.492882 421.163556 
L 438.74733 421.182549 
L 438.974994 420.958004 
L 439.256226 420.319903 
L 439.604418 418.902049 
L 440.01957 416.180006 
L 440.501682 411.437932 
L 441.077538 403.37918 
L 441.921234 387.878294 
L 443.608626 352.542843 
L 449.715378 220.663802 
L 451.054578 198.478697 
L 452.166114 183.506855 
L 453.116946 173.489654 
L 453.920466 167.170056 
L 454.603458 163.402626 
L 455.165922 161.427541 
L 455.607858 160.594954 
L 455.929266 160.387019 
L 456.197106 160.468689 
L 456.49173 160.824889 
L 456.866706 161.678758 
L 457.335426 163.369138 
L 457.911282 166.374453 
L 458.594274 171.223763 
L 459.397794 178.626223 
L 460.348626 189.57982 
L 461.473554 205.262043 
L 462.85293 227.798896 
L 464.714418 262.182013 
L 469.575714 353.676223 
L 471.048834 376.367761 
L 472.254114 391.700709 
L 473.271906 402.00562 
L 474.142386 408.725382 
L 474.878946 412.828148 
L 475.494978 415.116124 
L 475.990482 416.192254 
L 476.365458 416.55286 
L 476.660082 416.565584 
L 477.008274 416.328619 
L 477.476994 416.055138 
L 477.758226 416.144777 
L 478.079634 416.514889 
L 478.52157 417.415362 
L 479.365266 419.77714 
L 480.101826 421.544235 
L 480.490194 421.985881 
L 480.744642 421.991986 
L 480.985698 421.745208 
L 481.26693 421.098671 
L 481.615122 419.685882 
L 482.030274 416.990705 
L 482.525778 412.147613 
L 483.101634 404.10397 
L 483.918546 389.010684 
L 485.605938 353.29126 
L 491.726082 219.679306 
L 493.065282 197.275107 
L 494.176818 182.163502 
L 495.12765 172.059799 
L 495.93117 165.691957 
L 496.614162 161.901786 
L 497.163234 159.955765 
L 497.60517 159.10699 
L 497.926578 158.891688 
L 498.194418 158.970053 
L 498.489042 159.325586 
L 498.864018 160.183084 
L 499.332738 161.884985 
L 499.895202 164.832901 
L 500.578194 169.698853 
L 501.381714 177.14214 
L 502.332546 188.172495 
L 503.457474 203.98256 
L 504.83685 226.724541 
L 506.698338 261.451406 
L 511.59981 354.66923 
L 513.059538 377.35836 
L 514.264818 392.833407 
L 515.28261 403.22661 
L 516.15309 409.997412 
L 516.88965 414.125212 
L 517.505682 416.421215 
L 517.987794 417.47533 
L 518.36277 417.843362 
L 518.657394 417.857281 
L 518.978802 417.622092 
L 519.608226 417.121378 
L 519.889458 417.1916 
L 520.210866 417.533497 
L 520.652802 418.374935 
L 522.474114 422.269297 
L 522.741954 422.288242 
L 522.98301 422.058456 
L 523.264242 421.44564 
L 523.612434 420.094595 
L 524.027586 417.499971 
L 524.509698 412.960463 
L 525.072162 405.385308 
L 525.808722 392.079543 
L 527.415762 358.206128 
L 530.536098 286.528157 
L 532.785954 237.562005 
L 534.312642 208.944613 
L 535.544706 189.758338 
L 536.589282 176.729032 
L 537.486546 168.143732 
L 538.236498 162.91761 
L 538.865922 159.941302 
L 539.374818 158.487773 
L 539.763186 157.95367 
L 540.05781 157.88011 
L 540.32565 158.060536 
L 540.647058 158.586118 
L 541.048818 159.712957 
L 541.557714 161.878604 
L 542.173746 165.577691 
L 542.896914 171.369318 
L 543.754002 180.143834 
L 544.771794 193.02024 
L 545.990466 211.474079 
L 547.517154 238.2388 
L 549.83397 283.320822 
L 553.021266 344.655377 
L 554.614914 371.048715 
L 555.887154 388.676145 
L 556.958514 400.657016 
L 557.882562 408.656516 
L 558.659298 413.605957 
L 559.315506 416.482539 
L 559.851186 417.931215 
L 560.266338 418.495145 
L 560.574354 418.598879 
L 560.855586 418.464896 
L 561.337698 417.908795 
L 561.726066 417.635176 
L 562.007298 417.688372 
L 562.328706 418.00574 
L 562.770642 418.79811 
L 564.471426 422.203397 
L 564.739266 422.239573 
L 564.980322 422.035163 
L 565.261554 421.468168 
L 565.609746 420.198951 
L 566.024898 417.730989 
L 566.50701 413.371644 
L 567.069474 406.0325 
L 567.77925 393.444197 
L 569.31933 361.065198 
L 572.091474 297.25416 
L 574.622562 241.090342 
L 576.189426 211.066102 
L 577.448274 190.946398 
L 578.506242 177.340699 
L 579.416898 168.300269 
L 580.193634 162.656772 
L 580.83645 159.4708 
L 581.358738 157.886342 
L 581.760498 157.282692 
L 582.055122 157.179579 
L 582.322962 157.334239 
L 582.630978 157.80294 
L 583.032738 158.877834 
L 583.528242 160.916045 
L 584.130882 164.431159 
L 584.840658 169.977465 
L 585.684354 178.440217 
L 586.675362 190.758935 
L 587.86725 208.54231 
L 589.34037 234.07977 
L 591.48309 275.556046 
L 595.125714 346.064454 
L 596.70597 372.151557 
L 597.97821 389.672255 
L 599.04957 401.530957 
L 599.960226 409.306515 
L 600.736962 414.165877 
L 601.379778 416.914332 
L 601.902066 418.286208 
L 602.303826 418.813839 
L 602.611842 418.908226 
L 602.893074 418.763499 
L 603.308226 418.244556 
L 603.776946 417.787707 
L 604.07157 417.788406 
L 604.379586 418.036285 
L 604.794738 418.694611 
L 606.053586 420.926986 
L 606.361602 420.64732 
L 606.95085 419.787591 
L 607.379394 418.776029 
L 607.75437 417.259605 
L 608.182914 414.485646 
L 608.678418 409.67453 
L 609.254274 401.706189 
L 610.03101 387.389578 
L 611.731794 351.221837 
L 617.66445 221.356789 
L 619.017042 198.402409 
L 620.14197 182.831983 
L 621.106194 172.364808 
L 621.923106 165.727782 
L 622.606098 161.812047 
L 623.168562 159.726076 
L 623.610498 158.813992 
L 623.945298 158.549096 
L 624.213138 158.600882 
L 624.49437 158.906347 
L 624.855954 159.674366 
L 625.311282 161.235195 
L 625.860354 163.981167 
L 626.529954 168.57004 
L 627.320082 175.657065 
L 628.24413 186.080821 
L 629.342274 201.143498 
L 630.681474 222.78874 
L 632.449218 255.297899 
L 637.993506 359.940131 
L 639.386274 380.765336 
L 640.537986 394.889269 
L 641.528994 404.475449 
L 642.37269 410.616547 
L 643.082466 414.280847 
L 643.671714 416.257281 
L 644.140434 417.133136 
L 644.488626 417.38402 
L 644.769858 417.339118 
L 645.077874 417.046321 
L 645.98853 416.010523 
L 646.269762 416.074644 
L 646.604562 416.412233 
L 647.140242 417.341913 
L 647.434866 417.630958 
L 647.675922 417.530734 
L 648.26517 416.970547 
L 648.961554 416.024491 
L 649.416882 415.033862 
L 649.791858 413.632064 
L 650.20701 411.125114 
L 650.689122 406.736027 
L 651.251586 399.390622 
L 651.974754 386.642552 
L 653.595186 353.149252 
L 659.889426 218.979873 
L 661.201842 197.758204 
L 662.299986 183.348265 
L 663.237426 173.750097 
L 664.040946 167.637554 
L 664.710546 164.088981 
L 665.259618 162.245765 
L 665.688162 161.479041 
L 666.00957 161.290471 
L 666.27741 161.385546 
L 666.572034 161.753604 
L 666.94701 162.618166 
L 667.41573 164.314964 
L 667.991586 167.317611 
L 668.674578 172.148801 
L 669.49149 179.646958 
L 670.442322 190.55539 
L 671.580642 206.344511 
L 672.97341 228.972135 
L 674.875074 263.855257 
L 679.548882 351.00863 
L 681.035394 373.87183 
L 682.254066 389.386131 
L 683.28525 399.848978 
L 684.169122 406.690877 
L 684.905682 410.815611 
L 685.521714 413.134969 
L 686.017218 414.244642 
L 686.405586 414.641987 
L 686.70021 414.667178 
L 686.994834 414.457285 
L 687.423378 413.814463 
L 687.918882 413.18654 
L 688.226898 413.120839 
L 688.521522 413.301516 
L 689.392002 414.020994 
L 689.860722 413.688478 
L 690.65085 412.856139 
L 691.25349 411.912243 
L 691.65525 410.86321 
L 692.043618 409.133354 
L 692.485554 406.020454 
L 692.99445 400.712403 
L 693.59709 391.869785 
L 694.574706 373.455659 
L 696.529938 332.315419 
L 700.882338 239.624406 
L 702.395634 212.702723 
L 703.627698 194.48342 
L 704.672274 182.11277 
L 705.569538 173.963232 
L 706.31949 169.003954 
L 706.948914 166.181113 
L 707.45781 164.803988 
L 707.846178 164.299395 
L 708.140802 164.231611 
L 708.408642 164.404894 
L 708.73005 164.906411 
L 709.145202 166.023848 
L 709.654098 168.104924 
L 710.27013 171.646794 
L 711.00669 177.295739 
L 711.863778 185.694931 
L 712.88157 197.994382 
L 714.100242 215.591594 
L 715.62693 241.076435 
L 717.97053 284.443417 
L 718.582813 296.027087 
L 718.582813 296.027087 
" clip-path="url(#pf73e99488c)" style="fill: none; stroke: #2ca02c; stroke-width: 1.5; stroke-linecap: square"/>
   </g>
   <g id="patch_3">
    <path d="M 48.982813 442.08 
L 48.982813 7.2 
" style="fill: none; stroke: #000000; stroke-width: 0.8; stroke-linejoin: miter; stroke-linecap: square"/>
   </g>
   <g id="patch_4">
    <path d="M 718.582813 442.08 
L 718.582813 7.2 
" style="fill: none; stroke: #000000; stroke-width: 0.8; stroke-linejoin: miter; stroke-linecap: square"/>
   </g>
   <g id="patch_5">
    <path d="M 48.982813 442.08 
L 718.582813 442.08 
" style="fill: none; stroke: #000000; stroke-width: 0.8; stroke-linejoin: miter; stroke-linecap: square"/>
   </g>
   <g id="patch_6">
    <path d="M 48.982813 7.2 
L 718.582813 7.2 
" style="fill: none; stroke: #000000; stroke-width: 0.8; stroke-linejoin: miter; stroke-linecap: square"/>
   </g>
   <g id="legend_1">
    <g id="patch_7">
     <path d="M 593.358813 89.8272 
L 696.958813 89.8272 
Q 698.958813 89.8272 698.958813 87.8272 
L 698.958813 44.792825 
Q 698.958813 42.792825 696.958813 42.792825 
L 593.358813 42.792825 
Q 591.358813 42.792825 591.358813 44.792825 
L 591.358813 87.8272 
Q 591.358813 89.8272 593.358813 89.8272 
z
" style="fill: #ffffff; opacity: 0.8; stroke: #cccccc; stroke-linejoin: miter"/>
    </g>
    <g id="line2d_32">
     <path d="M 595.358813 50.891262 
L 605.358813 50.891262 
L 615.358813 50.891262 
" style="fill: none; stroke: #1f77b4; stroke-width: 1.5; stroke-linecap: square"/>
    </g>
    <g id="text_17">
     <!-- V(1) [V] -->
     <g transform="translate(623.358813 54.391262)scale(0.1 -0.1)">
      <defs>
       <path id="DejaVuSans-28" d="M 1984 4856 
Q 1566 4138 1362 3434 
Q 1159 2731 1159 2009 
Q 1159 1288 1364 580 
Q 1569 -128 1984 -844 
L 1484 -844 
Q 1016 -109 783 600 
Q 550 1309 550 2009 
Q 550 2706 781 3412 
Q 1013 4119 1484 4856 
L 1984 4856 
z
" transform="scale(0.015625)"/>
       <path id="DejaVuSans-29" d="M 513 4856 
L 1013 4856 
Q 1481 4119 1714 3412 
Q 1947 2706 1947 2009 
Q 1947 1309 1714 600 
Q 1481 -109 1013 -844 
L 513 -844 
Q 928 -128 1133 580 
Q 1338 1288 1338 2009 
Q 1338 2731 1133 3434 
Q 928 4138 513 4856 
z
" transform="scale(0.015625)"/>
      </defs>
      <use xlink:href="#DejaVuSans-56"/>
      <use xlink:href="#DejaVuSans-28" x="68.408203"/>
      <use xlink:href="#DejaVuSans-31" x="107.421875"/>
      <use xlink:href="#DejaVuSans-29" x="171.044922"/>
      <use xlink:href="#DejaVuSans-20" x="210.058594"/>
      <use xlink:href="#DejaVuSans-5b" x="241.845703"/>
      <use xlink:href="#DejaVuSans-56" x="280.859375"/>
      <use xlink:href="#DejaVuSans-5d" x="349.267578"/>
     </g>
    </g>
    <g id="line2d_33">
     <path d="M 595.358813 65.569387 
L 605.358813 65.569387 
L 615.358813 65.569387 
" style="fill: none; stroke: #ff7f0e; stroke-width: 1.5; stroke-linecap: square"/>
    </g>
    <g id="text_18">
     <!-- V(2) [V]  ($V_{in}$) -->
     <g transform="translate(623.358813 69.069387)scale(0.1 -0.1)">
      <defs>
       <path id="DejaVuSans-Oblique-56" d="M 1319 0 
L 500 4666 
L 1119 4666 
L 1797 653 
L 4063 4666 
L 4750 4666 
L 2053 0 
L 1319 0 
z
" transform="scale(0.015625)"/>
       <path id="DejaVuSans-Oblique-69" d="M 1172 4863 
L 1747 4863 
L 1606 4134 
L 1031 4134 
L 1172 4863 
z
M 909 3500 
L 1484 3500 
L 800 0 
L 225 0 
L 909 3500 
z
" transform="scale(0.015625)"/>
       <path id="DejaVuSans-Oblique-6e" d="M 3566 2113 
L 3156 0 
L 2578 0 
L 2988 2091 
Q 3016 2238 3031 2350 
Q 3047 2463 3047 2528 
Q 3047 2791 2881 2937 
Q 2716 3084 2419 3084 
Q 1956 3084 1622 2776 
Q 1288 2469 1184 1941 
L 800 0 
L 225 0 
L 903 3500 
L 1478 3500 
L 1363 2950 
Q 1603 3253 1940 3418 
Q 2278 3584 2650 3584 
Q 3113 3584 3367 3334 
Q 3622 3084 3622 2631 
Q 3622 2519 3608 2391 
Q 3594 2263 3566 2113 
z
" transform="scale(0.015625)"/>
      </defs>
      <use xlink:href="#DejaVuSans-56" transform="translate(0 0.015625)"/>
      <use xlink:href="#DejaVuSans-28" transform="translate(68.408203 0.015625)"/>
      <use xlink:href="#DejaVuSans-32" transform="translate(107.421875 0.015625)"/>
      <use xlink:href="#DejaVuSans-29" transform="translate(171.044922 0.015625)"/>
      <use xlink:href="#DejaVuSans-20" transform="translate(210.058594 0.015625)"/>
      <use xlink:href="#DejaVuSans-5b" transform="translate(241.845703 0.015625)"/>
      <use xlink:href="#DejaVuSans-56" transform="translate(280.859375 0.015625)"/>
      <use xlink:href="#DejaVuSans-5d" transform="translate(349.267578 0.015625)"/>
      <use xlink:href="#DejaVuSans-20" transform="translate(388.28125 0.015625)"/>
      <use xlink:href="#DejaVuSans-20" transform="translate(420.068359 0.015625)"/>
      <use xlink:href="#DejaVuSans-28" transform="translate(451.855469 0.015625)"/>
      <use xlink:href="#DejaVuSans-Oblique-56" transform="translate(490.869141 0.015625)"/>
      <use xlink:href="#DejaVuSans-Oblique-69" transform="translate(559.277344 -16.390625)scale(0.7)"/>
      <use xlink:href="#DejaVuSans-Oblique-6e" transform="translate(578.725586 -16.390625)scale(0.7)"/>
      <use xlink:href="#DejaVuSans-29" transform="translate(625.825195 0.015625)"/>
     </g>
    </g>
    <g id="line2d_34">
     <path d="M 595.358813 80.247512 
L 605.358813 80.247512 
L 615.358813 80.247512 
" style="fill: none; stroke: #2ca02c; stroke-width: 1.5; stroke-linecap: square"/>
    </g>
    <g id="text_19">
     <!-- V(3) [V]  ($V_{out}$) -->
     <g transform="translate(623.358813 83.747512)scale(0.1 -0.1)">
      <defs>
       <path id="DejaVuSans-33" d="M 2597 2516 
Q 3050 2419 3304 2112 
Q 3559 1806 3559 1356 
Q 3559 666 3084 287 
Q 2609 -91 1734 -91 
Q 1441 -91 1130 -33 
Q 819 25 488 141 
L 488 750 
Q 750 597 1062 519 
Q 1375 441 1716 441 
Q 2309 441 2620 675 
Q 2931 909 2931 1356 
Q 2931 1769 2642 2001 
Q 2353 2234 1838 2234 
L 1294 2234 
L 1294 2753 
L 1863 2753 
Q 2328 2753 2575 2939 
Q 2822 3125 2822 3475 
Q 2822 3834 2567 4026 
Q 2313 4219 1838 4219 
Q 1578 4219 1281 4162 
Q 984 4106 628 3988 
L 628 4550 
Q 988 4650 1302 4700 
Q 1616 4750 1894 4750 
Q 2613 4750 3031 4423 
Q 3450 4097 3450 3541 
Q 3450 3153 3228 2886 
Q 3006 2619 2597 2516 
z
" transform="scale(0.015625)"/>
       <path id="DejaVuSans-Oblique-6f" d="M 1625 -91 
Q 1009 -91 651 289 
Q 294 669 294 1325 
Q 294 1706 417 2101 
Q 541 2497 738 2766 
Q 1047 3184 1428 3384 
Q 1809 3584 2291 3584 
Q 2888 3584 3255 3212 
Q 3622 2841 3622 2241 
Q 3622 1825 3500 1412 
Q 3378 1000 3181 728 
Q 2875 309 2494 109 
Q 2113 -91 1625 -91 
z
M 891 1344 
Q 891 869 1089 633 
Q 1288 397 1691 397 
Q 2269 397 2648 901 
Q 3028 1406 3028 2181 
Q 3028 2634 2825 2865 
Q 2622 3097 2228 3097 
Q 1903 3097 1650 2945 
Q 1397 2794 1197 2484 
Q 1050 2253 970 1956 
Q 891 1659 891 1344 
z
" transform="scale(0.015625)"/>
       <path id="DejaVuSans-Oblique-75" d="M 428 1388 
L 838 3500 
L 1416 3500 
L 1006 1409 
Q 975 1256 961 1147 
Q 947 1038 947 966 
Q 947 700 1109 554 
Q 1272 409 1569 409 
Q 2031 409 2368 721 
Q 2706 1034 2809 1563 
L 3194 3500 
L 3769 3500 
L 3091 0 
L 2516 0 
L 2631 550 
Q 2388 244 2052 76 
Q 1716 -91 1338 -91 
Q 878 -91 622 161 
Q 366 413 366 863 
Q 366 956 381 1097 
Q 397 1238 428 1388 
z
" transform="scale(0.015625)"/>
       <path id="DejaVuSans-Oblique-74" d="M 2706 3500 
L 2619 3053 
L 1472 3053 
L 1100 1153 
Q 1081 1047 1072 975 
Q 1063 903 1063 863 
Q 1063 663 1183 572 
Q 1303 481 1569 481 
L 2150 481 
L 2053 0 
L 1503 0 
Q 991 0 739 200 
Q 488 400 488 806 
Q 488 878 497 964 
Q 506 1050 525 1153 
L 897 3053 
L 409 3053 
L 500 3500 
L 978 3500 
L 1172 4494 
L 1747 4494 
L 1556 3500 
L 2706 3500 
z
" transform="scale(0.015625)"/>
      </defs>
      <use xlink:href="#DejaVuSans-56" transform="translate(0 0.015625)"/>
      <use xlink:href="#DejaVuSans-28" transform="translate(68.408203 0.015625)"/>
      <use xlink:href="#DejaVuSans-33" transform="translate(107.421875 0.015625)"/>
      <use xlink:href="#DejaVuSans-29" transform="translate(171.044922 0.015625)"/>
      <use xlink:href="#DejaVuSans-20" transform="translate(210.058594 0.015625)"/>
      <use xlink:href="#DejaVuSans-5b" transform="translate(241.845703 0.015625)"/>
      <use xlink:href="#DejaVuSans-56" transform="translate(280.859375 0.015625)"/>
      <use xlink:href="#DejaVuSans-5d" transform="translate(349.267578 0.015625)"/>
      <use xlink:href="#DejaVuSans-20" transform="translate(388.28125 0.015625)"/>
      <use xlink:href="#DejaVuSans-20" transform="translate(420.068359 0.015625)"/>
      <use xlink:href="#DejaVuSans-28" transform="translate(451.855469 0.015625)"/>
      <use xlink:href="#DejaVuSans-Oblique-56" transform="translate(490.869141 0.015625)"/>
      <use xlink:href="#DejaVuSans-Oblique-6f" transform="translate(559.277344 -16.390625)scale(0.7)"/>
      <use xlink:href="#DejaVuSans-Oblique-75" transform="translate(602.104492 -16.390625)scale(0.7)"/>
      <use xlink:href="#DejaVuSans-Oblique-74" transform="translate(646.469727 -16.390625)scale(0.7)"/>
      <use xlink:href="#DejaVuSans-29" transform="translate(676.650391 0.015625)"/>
     </g>
    </g>
   </g>
  </g>
 </g>
 <defs>
  <clipPath id="pf73e99488c">
   <rect x="48.982813" y="7.2" width="669.6" height="434.88"/>
  </clipPath>
 </defs>
</svg>