<?xml version="1.0" encoding="utf-8" standalone="no"?>
<!DOCTYPE svg PUBLIC "-//W3C//DTD SVG 1.1//EN"
  "http://www.w3.org/Graphics/SVG/1.1/DTD/svg11.dtd">
<svg xmlns:xlink="http://www.w3.org/1999/xlink" width="359.532pt" height="332.48pt" viewBox="0 0 359.532 332.48" xmlns="http://www.w3.org/2000/svg" version="1.1">
 <metadata>
  <rdf:RDF xmlns:dc="http://purl.org/dc/elements/1.1/" xmlns:cc="http://creativecommons.org/ns#" xmlns:rdf="http://www.w3.org/1999/02/22-rdf-syntax-ns#">
   <cc:Work>
    <dc:type rdf:resource="http://purl.org/dc/dcmitype/StillImage"/>
    <dc:date>2025-10-05T17:30:05.485752</dc:date>
    <dc:format>image/svg+xml</dc:format>
    <dc:creator>
     <cc:Agent>
      <dc:title>Matplotlib v3.10.6, https://matplotlib.org/</dc:title>
     </cc:Agent>
    </dc:creator>
   </cc:Work>
  </rdf:RDF>
 </metadata>
 <defs>
  <style type="text/css">*{stroke-linejoin: round; stroke-linecap: butt}</style>
 </defs>
 <g id="figure_1">
  <g id="patch_1">
   <path d="M 0 332.48 
L 359.532 332.48 
L 359.532 0 
L 0 0 
z
" style="fill: #ffffff"/>
  </g>
  <g id="axes_1">
   <g id="patch_2">
    <path d="M 39.084 259.76 
C 41.470828 259.76 43.760219 258.811703 45.447961 257.123961 
C 47.135703 255.436219 48.084 253.146828 48.084 250.76 
C 48.084 248.373172 47.135703 246.083781 45.447961 244.396039 
C 43.760219 242.708297 41.470828 241.76 39.084 241.76 
C 36.697172 241.76 34.407781 242.708297 32.720039 244.396039 
C 31.032297 246.083781 30.084 248.373172 30.084 250.76 
C 30.084 253.146828 31.032297 255.436219 32.720039 257.123961 
C 34.407781 258.811703 36.697172 259.76 39.084 259.76 
L 39.084 259.76 
z
" clip-path="url(#p8a942e8663)" style="fill: none; stroke: #000000; stroke-width: 2; stroke-linejoin: miter"/>
   </g>
   <g id="patch_3">
    <path d="M 219.144 72.68 
C 221.052826 72.68 222.885425 71.920913 224.235169 70.571169 
C 225.584913 69.221425 226.344 67.388826 226.344 65.48 
C 226.344 63.571174 225.584913 61.738575 224.235169 60.388831 
C 222.885425 59.039087 221.052826 58.28 219.144 58.28 
" clip-path="url(#p8a942e8663)" style="fill: none; stroke: #000000; stroke-width: 2; stroke-linejoin: miter"/>
   </g>
   <g id="patch_4">
    <path d="M 219.144 87.08 
C 221.052826 87.08 222.885425 86.320913 224.235169 84.971169 
C 225.584913 83.621425 226.344 81.788826 226.344 79.88 
C 226.344 77.971174 225.584913 76.138575 224.235169 74.788831 
C 222.885425 73.439087 221.052826 72.68 219.144 72.68 
" clip-path="url(#p8a942e8663)" style="fill: none; stroke: #000000; stroke-width: 2; stroke-linejoin: miter"/>
   </g>
   <g id="patch_5">
    <path d="M 219.144 101.48 
C 221.052826 101.48 222.885425 100.720913 224.235169 99.371169 
C 225.584913 98.021425 226.344 96.188826 226.344 94.28 
C 226.344 92.371174 225.584913 90.538575 224.235169 89.188831 
C 222.885425 87.839087 221.052826 87.08 219.144 87.08 
" clip-path="url(#p8a942e8663)" style="fill: none; stroke: #000000; stroke-width: 2; stroke-linejoin: miter"/>
   </g>
   <g id="patch_6">
    <path d="M 219.144 115.88 
C 221.052826 115.88 222.885425 115.120913 224.235169 113.771169 
C 225.584913 112.421425 226.344 110.588826 226.344 108.68 
C 226.344 106.771174 225.584913 104.938575 224.235169 103.588831 
C 222.885425 102.239087 221.052826 101.48 219.144 101.48 
" clip-path="url(#p8a942e8663)" style="fill: none; stroke: #000000; stroke-width: 2; stroke-linejoin: miter"/>
   </g>
   <g id="patch_7">
    <path d="M 219.144 130.28 
C 221.052826 130.28 222.885425 129.520913 224.235169 128.171169 
C 225.584913 126.821425 226.344 124.988826 226.344 123.08 
C 226.344 121.171174 225.584913 119.338575 224.235169 117.988831 
C 222.885425 116.639087 221.052826 115.88 219.144 115.88 
" clip-path="url(#p8a942e8663)" style="fill: none; stroke: #000000; stroke-width: 2; stroke-linejoin: miter"/>
   </g>
   <g id="patch_8">
    <path d="M 219.144 144.68 
C 221.052826 144.68 222.885425 143.920913 224.235169 142.571169 
C 225.584913 141.221425 226.344 139.388826 226.344 137.48 
C 226.344 135.571174 225.584913 133.738575 224.235169 132.388831 
C 222.885425 131.039087 221.052826 130.28 219.144 130.28 
" clip-path="url(#p8a942e8663)" style="fill: none; stroke: #000000; stroke-width: 2; stroke-linejoin: miter"/>
   </g>
   <g id="patch_9">
    <path d="M 255.144 72.68 
C 253.235174 72.68 251.402575 73.439087 250.052831 74.788831 
C 248.703087 76.138575 247.944 77.971174 247.944 79.88 
C 247.944 81.788826 248.703087 83.621425 250.052831 84.971169 
C 251.402575 86.320913 253.235174 87.08 255.144 87.08 
" clip-path="url(#p8a942e8663)" style="fill: none; stroke: #000000; stroke-width: 2; stroke-linejoin: miter"/>
   </g>
   <g id="patch_10">
    <path d="M 255.144 87.08 
C 253.235174 87.08 251.402575 87.839087 250.052831 89.188831 
C 248.703087 90.538575 247.944 92.371174 247.944 94.28 
C 247.944 96.188826 248.703087 98.021425 250.052831 99.371169 
C 251.402575 100.720913 253.235174 101.48 255.144 101.48 
" clip-path="url(#p8a942e8663)" style="fill: none; stroke: #000000; stroke-width: 2; stroke-linejoin: miter"/>
   </g>
   <g id="patch_11">
    <path d="M 255.144 101.48 
C 253.235174 101.48 251.402575 102.239087 250.052831 103.588831 
C 248.703087 104.938575 247.944 106.771174 247.944 108.68 
C 247.944 110.588826 248.703087 112.421425 250.052831 113.771169 
C 251.402575 115.120913 253.235174 115.88 255.144 115.88 
" clip-path="url(#p8a942e8663)" style="fill: none; stroke: #000000; stroke-width: 2; stroke-linejoin: miter"/>
   </g>
   <g id="patch_12">
    <path d="M 255.144 115.88 
C 253.235174 115.88 251.402575 116.639087 250.052831 117.988831 
C 248.703087 119.338575 247.944 121.171174 247.944 123.08 
C 247.944 124.988826 248.703087 126.821425 250.052831 128.171169 
C 251.402575 129.520913 253.235174 130.28 255.144 130.28 
" clip-path="url(#p8a942e8663)" style="fill: none; stroke: #000000; stroke-width: 2; stroke-linejoin: miter"/>
   </g>
   <g id="line2d_1">
    <path d="M 147.084 196.76 
L 160.284 196.76 
" clip-path="url(#p8a942e8663)" style="fill: none; stroke: #000000; stroke-width: 2; stroke-linecap: round"/>
   </g>
   <g id="line2d_2">
    <path d="M 160.284 183.56 
L 160.284 209.96 
" clip-path="url(#p8a942e8663)" style="fill: none; stroke: #000000; stroke-width: 2; stroke-linecap: round"/>
   </g>
   <g id="line2d_3">
    <path d="M 160.284 190.16 
L 174.144 178.28 
L 174.144 171.68 
" clip-path="url(#p8a942e8663)" style="fill: none; stroke: #000000; stroke-width: 2; stroke-linecap: round"/>
   </g>
   <g id="line2d_4">
    <path d="M 160.284 203.36 
L 174.144 215.24 
L 174.144 221.84 
" clip-path="url(#p8a942e8663)" style="fill: none; stroke: #000000; stroke-width: 2; stroke-linecap: round"/>
   </g>
   <g id="line2d_5">
    <path d="M 160.284 203.36 
L 167.310691 209.382878 
" clip-path="url(#p8a942e8663)" style="fill: none; stroke: #000000; stroke-width: 2; stroke-linecap: round"/>
   </g>
   <g id="patch_13">
    <path d="M 169.65354 206.649554 
L 174.144 215.24 
L 164.967842 212.116201 
z
" clip-path="url(#p8a942e8663)"/>
   </g>
   <g id="line2d_6">
    <path d="M 147.084 196.76 
L 111.084 196.76 
L 108.084 205.76 
L 102.084 187.76 
L 96.084 205.76 
L 90.084 187.76 
L 84.084 205.76 
L 78.084 187.76 
L 75.084 196.76 
L 39.084 196.76 
" clip-path="url(#p8a942e8663)" style="fill: none; stroke: #000000; stroke-width: 2; stroke-linecap: round"/>
   </g>
   <g id="line2d_7">
    <path d="M 39.084 196.76 
L 39.084 241.76 
L 39.084 241.76 
M 39.084 259.76 
L 39.084 259.76 
L 39.084 304.76 
" clip-path="url(#p8a942e8663)" style="fill: none; stroke: #000000; stroke-width: 2; stroke-linecap: round"/>
   </g>
   <g id="line2d_8">
    <path d="M 37.284 246.26 
L 40.884 246.26 
" clip-path="url(#p8a942e8663)" style="fill: none; stroke: #000000; stroke-width: 2; stroke-linecap: round"/>
   </g>
   <g id="line2d_9">
    <path d="M 39.084 253.46 
L 39.084 257.06 
" clip-path="url(#p8a942e8663)" style="fill: none; stroke: #000000; stroke-width: 2; stroke-linecap: round"/>
   </g>
   <g id="line2d_10">
    <path d="M 37.284 255.26 
L 40.884 255.26 
" clip-path="url(#p8a942e8663)" style="fill: none; stroke: #000000; stroke-width: 2; stroke-linecap: round"/>
   </g>
   <g id="line2d_11">
    <path d="M 39.084 304.76 
L 106.614 304.76 
L 174.144 304.76 
" clip-path="url(#p8a942e8663)" style="fill: none; stroke: #000000; stroke-width: 2; stroke-linecap: round"/>
   </g>
   <g id="line2d_12">
    <path d="M 174.144 304.76 
L 174.144 319.16 
L 165.144 319.16 
L 183.144 319.16 
M 167.844 323.48 
L 180.444 323.48 
M 172.344 327.8 
L 175.944 327.8 
" clip-path="url(#p8a942e8663)" style="fill: none; stroke: #000000; stroke-width: 2; stroke-linecap: round"/>
   </g>
   <g id="line2d_13">
    <path d="M 174.144 304.76 
L 174.144 263.3 
L 174.144 221.84 
" clip-path="url(#p8a942e8663)" style="fill: none; stroke: #000000; stroke-width: 2; stroke-linecap: round"/>
   </g>
   <g id="line2d_14">
    <path d="M 174.144 171.68 
L 174.144 158.18 
L 174.144 144.68 
" clip-path="url(#p8a942e8663)" style="fill: none; stroke: #000000; stroke-width: 2; stroke-linecap: round"/>
   </g>
   <g id="line2d_15">
    <path d="M 174.144 144.68 
L 174.144 93.92 
M 165.144 93.92 
L 183.144 93.92 
M 165.144 87.44 
L 183.144 87.44 
M 174.144 87.44 
L 174.144 36.68 
" clip-path="url(#p8a942e8663)" style="fill: none; stroke: #000000; stroke-width: 2; stroke-linecap: round"/>
   </g>
   <g id="line2d_16">
    <path d="M 174.144 144.68 
L 196.644 144.68 
L 219.144 144.68 
" clip-path="url(#p8a942e8663)" style="fill: none; stroke: #000000; stroke-width: 2; stroke-linecap: round"/>
   </g>
   <g id="line2d_17">
    <path d="M 233.544 58.28 
L 233.544 144.68 
" clip-path="url(#p8a942e8663)" style="fill: none; stroke: #000000; stroke-width: 2; stroke-linecap: round"/>
   </g>
   <g id="line2d_18">
    <path d="M 240.744 58.28 
L 240.744 144.68 
" clip-path="url(#p8a942e8663)" style="fill: none; stroke: #000000; stroke-width: 2; stroke-linecap: round"/>
   </g>
   <g id="line2d_19">
    <path d="M 219.144 58.28 
L 196.644 58.28 
L 174.144 58.28 
" clip-path="url(#p8a942e8663)" style="fill: none; stroke: #000000; stroke-width: 2; stroke-linecap: round"/>
   </g>
   <g id="line2d_20">
    <path d="M 255.144 72.68 
L 286.644 72.68 
L 318.144 72.68 
" clip-path="url(#p8a942e8663)" style="fill: none; stroke: #000000; stroke-width: 2; stroke-linecap: round"/>
   </g>
   <g id="line2d_21">
    <path d="M 255.144 130.28 
L 268.644 130.28 
L 282.144 130.28 
" clip-path="url(#p8a942e8663)" style="fill: none; stroke: #000000; stroke-width: 2; stroke-linecap: round"/>
   </g>
   <g id="line2d_22">
    <path d="M 282.144 130.28 
L 282.144 144.68 
L 273.144 144.68 
L 291.144 144.68 
M 275.844 149 
L 288.444 149 
M 280.344 153.32 
L 283.944 153.32 
" clip-path="url(#p8a942e8663)" style="fill: none; stroke: #000000; stroke-width: 2; stroke-linecap: round"/>
   </g>
   <g id="line2d_23">
    <path d="M 174.144 36.68 
L 174.144 22.28 
" clip-path="url(#p8a942e8663)" style="fill: none; stroke: #000000; stroke-width: 2; stroke-linecap: round"/>
   </g>
   <g id="line2d_24">
    <path d="M 174.144 22.28 
L 167.394 22.28 
" clip-path="url(#p8a942e8663)" style="fill: none; stroke: #000000; stroke-width: 2; stroke-linecap: round"/>
   </g>
   <g id="line2d_25">
    <path d="M 174.144 22.28 
L 180.894 22.28 
" clip-path="url(#p8a942e8663)" style="fill: none; stroke: #000000; stroke-width: 2; stroke-linecap: round"/>
   </g>
   <g id="text_1">
    <!-- $R_{in}$ -->
    <g transform="translate(83.494 181.248437) scale(0.14 -0.14)">
     <defs>
      <path id="DejaVuSans-Oblique-52" d="M 1613 4147 
L 1294 2491 
L 2106 2491 
Q 2584 2491 2879 2755 
Q 3175 3019 3175 3444 
Q 3175 3784 2976 3965 
Q 2778 4147 2406 4147 
L 1613 4147 
z
M 2772 2241 
Q 2972 2194 3105 2009 
Q 3238 1825 3413 1275 
L 3809 0 
L 3144 0 
L 2778 1197 
Q 2638 1659 2453 1815 
Q 2269 1972 1888 1972 
L 1191 1972 
L 806 0 
L 172 0 
L 1081 4666 
L 2503 4666 
Q 3150 4666 3495 4373 
Q 3841 4081 3841 3531 
Q 3841 3044 3547 2687 
Q 3253 2331 2772 2241 
z
" transform="scale(0.015625)"/>
      <path id="DejaVuSans-Oblique-69" d="M 1172 4863 
L 1747 4863 
L 1606 4134 
L 1031 4134 
L 1172 4863 
z
M 909 3500 
L 1484 3500 
L 800 0 
L 225 0 
L 909 3500 
z
" transform="scale(0.015625)"/>
      <path id="DejaVuSans-Oblique-6e" d="M 3566 2113 
L 3156 0 
L 2578 0 
L 2988 2091 
Q 3016 2238 3031 2350 
Q 3047 2463 3047 2528 
Q 3047 2791 2881 2937 
Q 2716 3084 2419 3084 
Q 1956 3084 1622 2776 
Q 1288 2469 1184 1941 
L 800 0 
L 225 0 
L 903 3500 
L 1478 3500 
L 1363 2950 
Q 1603 3253 1940 3418 
Q 2278 3584 2650 3584 
Q 3113 3584 3367 3334 
Q 3622 3084 3622 2631 
Q 3622 2519 3608 2391 
Q 3594 2263 3566 2113 
z
" transform="scale(0.015625)"/>
     </defs>
     <use xlink:href="#DejaVuSans-Oblique-52" transform="translate(0 0.09375)"/>
     <use xlink:href="#DejaVuSans-Oblique-69" transform="translate(69.482422 -16.3125) scale(0.7)"/>
     <use xlink:href="#DejaVuSans-Oblique-6e" transform="translate(88.930664 -16.3125) scale(0.7)"/>
    </g>
   </g>
   <g id="text_2">
    <!-- $V_{in}$ -->
    <g transform="translate(9.384 254.623125) scale(0.14 -0.14)">
     <defs>
      <path id="DejaVuSans-Oblique-56" d="M 1319 0 
L 500 4666 
L 1119 4666 
L 1797 653 
L 4063 4666 
L 4750 4666 
L 2053 0 
L 1319 0 
z
" transform="scale(0.015625)"/>
     </defs>
     <use xlink:href="#DejaVuSans-Oblique-56" transform="translate(0 0.09375)"/>
     <use xlink:href="#DejaVuSans-Oblique-69" transform="translate(68.408203 -16.3125) scale(0.7)"/>
     <use xlink:href="#DejaVuSans-Oblique-6e" transform="translate(87.856445 -16.3125) scale(0.7)"/>
    </g>
   </g>
   <g id="text_3">
    <!-- $C_1$ -->
    <g transform="translate(145.024 94.543125) scale(0.14 -0.14)">
     <defs>
      <path id="DejaVuSans-Oblique-43" d="M 4447 4306 
L 4319 3641 
Q 4019 3944 3683 4091 
Q 3347 4238 2956 4238 
Q 2422 4238 2017 3981 
Q 1613 3725 1319 3200 
Q 1131 2863 1032 2486 
Q 934 2109 934 1728 
Q 934 1091 1264 756 
Q 1594 422 2222 422 
Q 2656 422 3056 561 
Q 3456 700 3834 978 
L 3688 231 
Q 3316 72 2936 -9 
Q 2556 -91 2175 -91 
Q 1278 -91 773 396 
Q 269 884 269 1753 
Q 269 2309 461 2846 
Q 653 3384 1013 3828 
Q 1394 4300 1883 4525 
Q 2372 4750 3022 4750 
Q 3422 4750 3780 4639 
Q 4138 4528 4447 4306 
z
" transform="scale(0.015625)"/>
      <path id="DejaVuSans-31" d="M 794 531 
L 1825 531 
L 1825 4091 
L 703 3866 
L 703 4441 
L 1819 4666 
L 2450 4666 
L 2450 531 
L 3481 531 
L 3481 0 
L 794 0 
L 794 531 
z
" transform="scale(0.015625)"/>
     </defs>
     <use xlink:href="#DejaVuSans-Oblique-43" transform="translate(0 0.78125)"/>
     <use xlink:href="#DejaVuSans-31" transform="translate(69.824219 -15.625) scale(0.7)"/>
    </g>
   </g>
   <g id="text_4">
    <!-- $V_{dd}$ -->
    <g transform="translate(162.874 15.768438) scale(0.14 -0.14)">
     <defs>
      <path id="DejaVuSans-Oblique-64" d="M 2675 525 
Q 2444 222 2128 65 
Q 1813 -91 1428 -91 
Q 903 -91 598 267 
Q 294 625 294 1247 
Q 294 1766 478 2236 
Q 663 2706 1013 3078 
Q 1244 3325 1534 3454 
Q 1825 3584 2144 3584 
Q 2481 3584 2739 3421 
Q 2997 3259 3138 2956 
L 3513 4863 
L 4091 4863 
L 3144 0 
L 2566 0 
L 2675 525 
z
M 891 1350 
Q 891 897 1095 644 
Q 1300 391 1663 391 
Q 1931 391 2161 520 
Q 2391 650 2566 903 
Q 2750 1166 2856 1509 
Q 2963 1853 2963 2188 
Q 2963 2622 2758 2865 
Q 2553 3109 2194 3109 
Q 1922 3109 1687 2981 
Q 1453 2853 1288 2613 
Q 1106 2353 998 2009 
Q 891 1666 891 1350 
z
" transform="scale(0.015625)"/>
     </defs>
     <use xlink:href="#DejaVuSans-Oblique-56" transform="translate(0 0.09375)"/>
     <use xlink:href="#DejaVuSans-Oblique-64" transform="translate(68.408203 -16.3125) scale(0.7)"/>
     <use xlink:href="#DejaVuSans-Oblique-64" transform="translate(112.841797 -16.3125) scale(0.7)"/>
    </g>
   </g>
   <g id="patch_14">
    <path d="M 174.144 147.38 
C 174.860048 147.38 175.546866 147.095511 176.053188 146.589188 
C 176.559511 146.082866 176.844 145.396048 176.844 144.68 
C 176.844 143.963952 176.559511 143.277134 176.053188 142.770812 
C 175.546866 142.264489 174.860048 141.98 174.144 141.98 
C 173.427952 141.98 172.741134 142.264489 172.234812 142.770812 
C 171.728489 143.277134 171.444 143.963952 171.444 144.68 
C 171.444 145.396048 171.728489 146.082866 172.234812 146.589188 
C 172.741134 147.095511 173.427952 147.38 174.144 147.38 
z
" clip-path="url(#p8a942e8663)" style="stroke: #000000; stroke-width: 2; stroke-linejoin: miter"/>
   </g>
   <g id="patch_15">
    <path d="M 174.144 60.98 
C 174.860048 60.98 175.546866 60.695511 176.053188 60.189188 
C 176.559511 59.682866 176.844 58.996048 176.844 58.28 
C 176.844 57.563952 176.559511 56.877134 176.053188 56.370812 
C 175.546866 55.864489 174.860048 55.58 174.144 55.58 
C 173.427952 55.58 172.741134 55.864489 172.234812 56.370812 
C 171.728489 56.877134 171.444 57.563952 171.444 58.28 
C 171.444 58.996048 171.728489 59.682866 172.234812 60.189188 
C 172.741134 60.695511 173.427952 60.98 174.144 60.98 
z
" clip-path="url(#p8a942e8663)" style="stroke: #000000; stroke-width: 2; stroke-linejoin: miter"/>
   </g>
   <g id="patch_16">
    <path d="M 318.144 75.38 
C 318.860048 75.38 319.546866 75.095511 320.053188 74.589188 
C 320.559511 74.082866 320.844 73.396048 320.844 72.68 
C 320.844 71.963952 320.559511 71.277134 320.053188 70.770812 
C 319.546866 70.264489 318.860048 69.98 318.144 69.98 
C 317.427952 69.98 316.741134 70.264489 316.234812 70.770812 
C 315.728489 71.277134 315.444 71.963952 315.444 72.68 
C 315.444 73.396048 315.728489 74.082866 316.234812 74.589188 
C 316.741134 75.095511 317.427952 75.38 318.144 75.38 
z
" clip-path="url(#p8a942e8663)" style="fill: #ffffff; stroke: #000000; stroke-width: 2; stroke-linejoin: miter"/>
   </g>
   <g id="text_5">
    <!-- $v_{out}$ -->
    <g transform="translate(324.444 76.543125) scale(0.14 -0.14)">
     <defs>
      <path id="DejaVuSans-Oblique-76" d="M 459 3500 
L 1069 3500 
L 1581 525 
L 3256 3500 
L 3866 3500 
L 1875 0 
L 1100 0 
L 459 3500 
z
" transform="scale(0.015625)"/>
      <path id="DejaVuSans-Oblique-6f" d="M 1625 -91 
Q 1009 -91 651 289 
Q 294 669 294 1325 
Q 294 1706 417 2101 
Q 541 2497 738 2766 
Q 1047 3184 1428 3384 
Q 1809 3584 2291 3584 
Q 2888 3584 3255 3212 
Q 3622 2841 3622 2241 
Q 3622 1825 3500 1412 
Q 3378 1000 3181 728 
Q 2875 309 2494 109 
Q 2113 -91 1625 -91 
z
M 891 1344 
Q 891 869 1089 633 
Q 1288 397 1691 397 
Q 2269 397 2648 901 
Q 3028 1406 3028 2181 
Q 3028 2634 2825 2865 
Q 2622 3097 2228 3097 
Q 1903 3097 1650 2945 
Q 1397 2794 1197 2484 
Q 1050 2253 970 1956 
Q 891 1659 891 1344 
z
" transform="scale(0.015625)"/>
      <path id="DejaVuSans-Oblique-75" d="M 428 1388 
L 838 3500 
L 1416 3500 
L 1006 1409 
Q 975 1256 961 1147 
Q 947 1038 947 966 
Q 947 700 1109 554 
Q 1272 409 1569 409 
Q 2031 409 2368 721 
Q 2706 1034 2809 1563 
L 3194 3500 
L 3769 3500 
L 3091 0 
L 2516 0 
L 2631 550 
Q 2388 244 2052 76 
Q 1716 -91 1338 -91 
Q 878 -91 622 161 
Q 366 413 366 863 
Q 366 956 381 1097 
Q 397 1238 428 1388 
z
" transform="scale(0.015625)"/>
      <path id="DejaVuSans-Oblique-74" d="M 2706 3500 
L 2619 3053 
L 1472 3053 
L 1100 1153 
Q 1081 1047 1072 975 
Q 1063 903 1063 863 
Q 1063 663 1183 572 
Q 1303 481 1569 481 
L 2150 481 
L 2053 0 
L 1503 0 
Q 991 0 739 200 
Q 488 400 488 806 
Q 488 878 497 964 
Q 506 1050 525 1153 
L 897 3053 
L 409 3053 
L 500 3500 
L 978 3500 
L 1172 4494 
L 1747 4494 
L 1556 3500 
L 2706 3500 
z
" transform="scale(0.015625)"/>
     </defs>
     <use xlink:href="#DejaVuSans-Oblique-76" transform="translate(0 0.3125)"/>
     <use xlink:href="#DejaVuSans-Oblique-6f" transform="translate(59.179688 -16.09375) scale(0.7)"/>
     <use xlink:href="#DejaVuSans-Oblique-75" transform="translate(102.006836 -16.09375) scale(0.7)"/>
     <use xlink:href="#DejaVuSans-Oblique-74" transform="translate(146.37207 -16.09375) scale(0.7)"/>
    </g>
   </g>
  </g>
 </g>
 <defs>
  <clipPath id="p8a942e8663">
   <rect x="0" y="-0" width="359.532" height="332.48"/>
  </clipPath>
 </defs>
</svg>