<?xml version="1.0" encoding="utf-8" standalone="no"?>
<!DOCTYPE svg PUBLIC "-//W3C//DTD SVG 1.1//EN"
  "http://www.w3.org/Graphics/SVG/1.1/DTD/svg11.dtd">
<svg xmlns:xlink="http://www.w3.org/1999/xlink" width="351.36pt" height="289.009656pt" viewBox="0 0 351.36 289.009656" xmlns="http://www.w3.org/2000/svg" version="1.1">
 <metadata>
  <rdf:RDF xmlns:dc="http://purl.org/dc/elements/1.1/" xmlns:cc="http://creativecommons.org/ns#" xmlns:rdf="http://www.w3.org/1999/02/22-rdf-syntax-ns#">
   <cc:Work>
    <dc:type rdf:resource="http://purl.org/dc/dcmitype/StillImage"/>
    <dc:date>2023-09-25T21:00:31.275005</dc:date>
    <dc:format>image/svg+xml</dc:format>
    <dc:creator>
     <cc:Agent>
      <dc:title>Matplotlib v3.6.3, https://matplotlib.org/</dc:title>
     </cc:Agent>
    </dc:creator>
   </cc:Work>
  </rdf:RDF>
 </metadata>
 <defs>
  <style type="text/css">*{stroke-linejoin: round; stroke-linecap: butt}</style>
 </defs>
 <g id="figure_1">
  <g id="patch_1">
   <path d="M 0 289.009656 
L 351.36 289.009656 
L 351.36 0 
L 0 0 
z
" style="fill: #ffffff"/>
  </g>
  <g id="axes_1">
   <g id="patch_2">
    <path d="M 31.275 229.777656 
C 33.661828 229.777656 35.951219 228.829359 37.638961 227.141617 
C 39.326703 225.453875 40.275 223.164484 40.275 220.777656 
C 40.275 218.390828 39.326703 216.101437 37.638961 214.413695 
C 35.951219 212.725953 33.661828 211.777656 31.275 211.777656 
C 28.888172 211.777656 26.598781 212.725953 24.911039 214.413695 
C 23.223297 216.101437 22.275 218.390828 22.275 220.777656 
C 22.275 223.164484 23.223297 225.453875 24.911039 227.141617 
C 26.598781 228.829359 28.888172 229.777656 31.275 229.777656 
L 31.275 229.777656 
z
" clip-path="url(#p6eac9d11e8)" style="fill: none; stroke: #000000; stroke-width: 2; stroke-linejoin: miter"/>
   </g>
   <g id="line2d_1">
    <path d="M 139.275 193.777656 
L 152.475 193.777656 
" clip-path="url(#p6eac9d11e8)" style="fill: none; stroke: #000000; stroke-width: 2; stroke-linecap: round"/>
   </g>
   <g id="line2d_2">
    <path d="M 152.475 180.577656 
L 152.475 206.977656 
" clip-path="url(#p6eac9d11e8)" style="fill: none; stroke: #000000; stroke-width: 2; stroke-linecap: round"/>
   </g>
   <g id="line2d_3">
    <path d="M 152.475 187.177656 
L 166.335 175.297656 
L 166.335 168.697656 
" clip-path="url(#p6eac9d11e8)" style="fill: none; stroke: #000000; stroke-width: 2; stroke-linecap: round"/>
   </g>
   <g id="line2d_4">
    <path d="M 152.475 200.377656 
L 166.335 212.257656 
L 166.335 218.857656 
" clip-path="url(#p6eac9d11e8)" style="fill: none; stroke: #000000; stroke-width: 2; stroke-linecap: round"/>
   </g>
   <g id="line2d_5">
    <path d="M 152.475 200.377656 
L 159.501691 206.400534 
" clip-path="url(#p6eac9d11e8)" style="fill: none; stroke: #000000; stroke-width: 2; stroke-linecap: round"/>
   </g>
   <g id="patch_3">
    <path d="M 161.84454 203.66721 
L 166.335 212.257656 
L 157.158842 209.133858 
z
" clip-path="url(#p6eac9d11e8)"/>
   </g>
   <g id="line2d_6">
    <path d="M 139.275 193.777656 
L 103.275 193.777656 
L 100.275 202.777656 
L 94.275 184.777656 
L 88.275 202.777656 
L 82.275 184.777656 
L 76.275 202.777656 
L 70.275 184.777656 
L 67.275 193.777656 
L 31.275 193.777656 
" clip-path="url(#p6eac9d11e8)" style="fill: none; stroke: #000000; stroke-width: 2; stroke-linecap: round"/>
   </g>
   <g id="line2d_7">
    <path d="M 31.275 193.777656 
L 31.275 211.777656 
L 31.275 211.777656 
M 31.275 229.777656 
L 31.275 229.777656 
L 31.275 247.777656 
" clip-path="url(#p6eac9d11e8)" style="fill: none; stroke: #000000; stroke-width: 2; stroke-linecap: round"/>
   </g>
   <g id="line2d_8">
    <path d="M 29.475 216.277656 
L 33.075 216.277656 
" clip-path="url(#p6eac9d11e8)" style="fill: none; stroke: #000000; stroke-width: 2; stroke-linecap: round"/>
   </g>
   <g id="line2d_9">
    <path d="M 31.275 223.477656 
L 31.275 227.077656 
" clip-path="url(#p6eac9d11e8)" style="fill: none; stroke: #000000; stroke-width: 2; stroke-linecap: round"/>
   </g>
   <g id="line2d_10">
    <path d="M 29.475 225.277656 
L 33.075 225.277656 
" clip-path="url(#p6eac9d11e8)" style="fill: none; stroke: #000000; stroke-width: 2; stroke-linecap: round"/>
   </g>
   <g id="line2d_11">
    <path d="M 31.275 247.777656 
L 98.805 247.777656 
L 166.335 247.777656 
" clip-path="url(#p6eac9d11e8)" style="fill: none; stroke: #000000; stroke-width: 2; stroke-linecap: round"/>
   </g>
   <g id="line2d_12">
    <path d="M 166.335 247.777656 
L 166.335 262.177656 
L 157.335 262.177656 
L 175.335 262.177656 
M 160.035 266.497656 
L 172.635 266.497656 
M 164.535 270.817656 
L 168.135 270.817656 
" clip-path="url(#p6eac9d11e8)" style="fill: none; stroke: #000000; stroke-width: 2; stroke-linecap: round"/>
   </g>
   <g id="line2d_13">
    <path d="M 166.335 247.777656 
L 166.335 233.317656 
L 166.335 218.857656 
" clip-path="url(#p6eac9d11e8)" style="fill: none; stroke: #000000; stroke-width: 2; stroke-linecap: round"/>
   </g>
   <g id="line2d_14">
    <path d="M 166.335 168.697656 
L 166.335 155.197656 
L 166.335 141.697656 
" clip-path="url(#p6eac9d11e8)" style="fill: none; stroke: #000000; stroke-width: 2; stroke-linecap: round"/>
   </g>
   <g id="line2d_15">
    <path d="M 166.335 141.697656 
L 217.095 141.697656 
M 217.095 132.697656 
L 217.095 150.697656 
M 223.575 132.697656 
L 223.575 150.697656 
M 223.575 141.697656 
L 274.335 141.697656 
" clip-path="url(#p6eac9d11e8)" style="fill: none; stroke: #000000; stroke-width: 2; stroke-linecap: round"/>
   </g>
   <g id="line2d_16">
    <path d="M 274.335 141.697656 
L 296.835 141.697656 
L 319.335 141.697656 
" clip-path="url(#p6eac9d11e8)" style="fill: none; stroke: #000000; stroke-width: 2; stroke-linecap: round"/>
   </g>
   <g id="line2d_17">
    <path d="M 274.335 141.697656 
L 274.335 105.697656 
L 265.335 102.697656 
L 283.335 96.697656 
L 265.335 90.697656 
L 283.335 84.697656 
L 265.335 78.697656 
L 283.335 72.697656 
L 274.335 69.697656 
L 274.335 33.697656 
" clip-path="url(#p6eac9d11e8)" style="fill: none; stroke: #000000; stroke-width: 2; stroke-linecap: round"/>
   </g>
   <g id="line2d_18">
    <path d="M 274.335 33.697656 
L 274.335 19.297656 
" clip-path="url(#p6eac9d11e8)" style="fill: none; stroke: #000000; stroke-width: 2; stroke-linecap: round"/>
   </g>
   <g id="line2d_19">
    <path d="M 274.335 19.297656 
L 267.585 19.297656 
" clip-path="url(#p6eac9d11e8)" style="fill: none; stroke: #000000; stroke-width: 2; stroke-linecap: round"/>
   </g>
   <g id="line2d_20">
    <path d="M 274.335 19.297656 
L 281.085 19.297656 
" clip-path="url(#p6eac9d11e8)" style="fill: none; stroke: #000000; stroke-width: 2; stroke-linecap: round"/>
   </g>
   <g id="line2d_21">
    <path d="M 274.335 141.697656 
L 274.335 177.697656 
L 283.335 180.697656 
L 265.335 186.697656 
L 283.335 192.697656 
L 265.335 198.697656 
L 283.335 204.697656 
L 265.335 210.697656 
L 274.335 213.697656 
L 274.335 249.697656 
" clip-path="url(#p6eac9d11e8)" style="fill: none; stroke: #000000; stroke-width: 2; stroke-linecap: round"/>
   </g>
   <g id="line2d_22">
    <path d="M 274.335 249.697656 
L 274.335 264.097656 
L 265.335 264.097656 
L 283.335 264.097656 
M 268.035 268.417656 
L 280.635 268.417656 
M 272.535 272.737656 
L 276.135 272.737656 
" clip-path="url(#p6eac9d11e8)" style="fill: none; stroke: #000000; stroke-width: 2; stroke-linecap: round"/>
   </g>
   <g id="line2d_23">
    <path d="M 166.335 141.697656 
L 166.335 105.697656 
L 163.370813 105.563587 
L 160.379893 105.155897 
L 157.613083 104.483655 
L 155.302432 103.578118 
L 154.380692 103.053089 
L 153.641729 102.490109 
L 153.101119 101.897889 
L 152.770256 101.285754 
L 152.656116 100.66345 
L 152.761102 100.040936 
L 153.083004 99.428178 
L 153.615035 98.834934 
L 154.345982 98.270551 
L 155.260436 97.743768 
L 157.559309 96.833831 
L 160.31885 96.156314 
L 163.30762 95.742916 
L 166.274957 95.603184 
L 168.971994 95.723714 
L 171.172535 96.069274 
L 172.692024 96.585759 
L 173.153989 96.88712 
L 173.403023 97.204728 
L 173.433878 97.528733 
L 173.245903 97.849147 
L 172.84306 98.15606 
L 171.431085 98.691364 
L 169.316374 99.064627 
L 166.676284 99.21942 
L 163.732236 99.117638 
L 160.731142 98.742693 
L 157.9247 98.100908 
L 155.548281 97.220986 
L 154.585506 96.706255 
L 153.801192 96.151599 
L 153.211869 95.565554 
L 152.829959 94.957314 
L 152.663513 94.336543 
L 152.716038 93.713169 
L 152.986428 93.097174 
L 153.468983 92.498385 
L 154.153532 91.926267 
L 155.025645 91.389721 
L 157.255471 90.455036 
L 159.971447 89.747596 
L 162.945789 89.30161 
L 165.929044 89.129359 
L 168.67101 89.220166 
L 170.941723 89.541292 
L 172.550742 90.04068 
L 173.062431 90.33672 
L 173.36312 90.651324 
L 173.446471 90.974705 
L 173.310725 91.296888 
L 172.958746 91.607926 
L 172.397952 91.898105 
L 170.701352 92.379428 
L 168.363218 92.675367 
L 165.579645 92.735978 
L 162.584087 92.531054 
L 159.627776 92.052659 
L 156.958655 91.31579 
L 154.800578 90.357126 
L 153.971862 89.811285 
L 153.33454 89.231943 
L 152.902045 88.628154 
L 152.683495 88.009487 
L 152.683495 87.385826 
L 152.902045 86.767159 
L 153.33454 86.163369 
L 153.971862 85.584027 
L 154.800578 85.038187 
L 155.80322 84.534196 
L 158.242527 83.680591 
L 161.085202 83.069678 
L 164.092835 82.727569 
L 167.013178 82.657835 
L 169.601309 82.841199 
L 171.640163 83.237161 
L 172.958746 83.787387 
L 173.310725 84.098425 
L 173.446471 84.420608 
L 173.36312 84.743988 
L 173.062431 85.058593 
L 172.550742 85.354633 
L 170.941723 85.854021 
L 168.67101 86.175146 
L 165.929044 86.265953 
L 162.945789 86.093702 
L 159.971447 85.647717 
L 157.255471 84.940277 
L 155.025645 84.005591 
L 154.153532 83.469046 
L 153.468983 82.896928 
L 152.986428 82.298139 
L 152.716038 81.682144 
L 152.663513 81.058769 
L 152.829959 80.437999 
L 153.211869 79.829759 
L 153.801192 79.243713 
L 154.585506 78.689058 
L 155.548281 78.174327 
L 157.9247 77.294404 
L 160.731142 76.65262 
L 163.732236 76.277675 
L 166.676284 76.175893 
L 169.316374 76.330686 
L 171.431085 76.703949 
L 172.84306 77.239253 
L 173.245903 77.546166 
L 173.433878 77.86658 
L 173.403023 78.190584 
L 173.153989 78.508193 
L 172.692024 78.809554 
L 171.172535 79.326039 
L 168.971994 79.671599 
L 166.274957 79.792129 
L 163.30762 79.652397 
L 160.31885 79.238998 
L 157.559309 78.561481 
L 155.260436 77.651544 
L 154.345982 77.124762 
L 153.615035 76.560379 
L 153.083004 75.967135 
L 152.761102 75.354376 
L 152.656116 74.731863 
L 152.770256 74.109559 
L 153.101119 73.497424 
L 153.641729 72.905203 
L 154.380692 72.342224 
L 155.302432 71.817194 
L 157.613083 70.911657 
L 160.379893 70.239416 
L 163.370813 69.831726 
L 166.335 69.697656 
L 166.335 33.697656 
L 166.335 33.697656 
" clip-path="url(#p6eac9d11e8)" style="fill: none; stroke: #000000; stroke-width: 2; stroke-linecap: round"/>
   </g>
   <g id="line2d_24">
    <path d="M 166.335 33.697656 
L 166.335 19.297656 
" clip-path="url(#p6eac9d11e8)" style="fill: none; stroke: #000000; stroke-width: 2; stroke-linecap: round"/>
   </g>
   <g id="line2d_25">
    <path d="M 166.335 19.297656 
L 159.585 19.297656 
" clip-path="url(#p6eac9d11e8)" style="fill: none; stroke: #000000; stroke-width: 2; stroke-linecap: round"/>
   </g>
   <g id="line2d_26">
    <path d="M 166.335 19.297656 
L 173.085 19.297656 
" clip-path="url(#p6eac9d11e8)" style="fill: none; stroke: #000000; stroke-width: 2; stroke-linecap: round"/>
   </g>
   <g id="text_1">
    <!-- $R_{in}$ -->
    <g transform="translate(76.7125 178.578047) scale(0.125 -0.125)">
     <defs>
      <path id="DejaVuSans-Oblique-52" d="M 1613 4147 
L 1294 2491 
L 2106 2491 
Q 2584 2491 2879 2755 
Q 3175 3019 3175 3444 
Q 3175 3784 2976 3965 
Q 2778 4147 2406 4147 
L 1613 4147 
z
M 2772 2241 
Q 2972 2194 3105 2009 
Q 3238 1825 3413 1275 
L 3809 0 
L 3144 0 
L 2778 1197 
Q 2638 1659 2453 1815 
Q 2269 1972 1888 1972 
L 1191 1972 
L 806 0 
L 172 0 
L 1081 4666 
L 2503 4666 
Q 3150 4666 3495 4373 
Q 3841 4081 3841 3531 
Q 3841 3044 3547 2687 
Q 3253 2331 2772 2241 
z
" transform="scale(0.015625)"/>
      <path id="DejaVuSans-Oblique-69" d="M 1172 4863 
L 1747 4863 
L 1606 4134 
L 1031 4134 
L 1172 4863 
z
M 909 3500 
L 1484 3500 
L 800 0 
L 225 0 
L 909 3500 
z
" transform="scale(0.015625)"/>
      <path id="DejaVuSans-Oblique-6e" d="M 3566 2113 
L 3156 0 
L 2578 0 
L 2988 2091 
Q 3016 2238 3031 2350 
Q 3047 2463 3047 2528 
Q 3047 2791 2881 2937 
Q 2716 3084 2419 3084 
Q 1956 3084 1622 2776 
Q 1288 2469 1184 1941 
L 800 0 
L 225 0 
L 903 3500 
L 1478 3500 
L 1363 2950 
Q 1603 3253 1940 3418 
Q 2278 3584 2650 3584 
Q 3113 3584 3367 3334 
Q 3622 3084 3622 2631 
Q 3622 2519 3608 2391 
Q 3594 2263 3566 2113 
z
" transform="scale(0.015625)"/>
     </defs>
     <use xlink:href="#DejaVuSans-Oblique-52" transform="translate(0 0.09375)"/>
     <use xlink:href="#DejaVuSans-Oblique-69" transform="translate(69.482422 -16.3125) scale(0.7)"/>
     <use xlink:href="#DejaVuSans-Oblique-6e" transform="translate(88.930664 -16.3125) scale(0.7)"/>
    </g>
   </g>
   <g id="text_2">
    <!-- $V_{in}$ -->
    <g transform="translate(3.6 224.226875) scale(0.125 -0.125)">
     <defs>
      <path id="DejaVuSans-Oblique-56" d="M 1319 0 
L 500 4666 
L 1119 4666 
L 1797 653 
L 4063 4666 
L 4750 4666 
L 2053 0 
L 1319 0 
z
" transform="scale(0.015625)"/>
     </defs>
     <use xlink:href="#DejaVuSans-Oblique-56" transform="translate(0 0.09375)"/>
     <use xlink:href="#DejaVuSans-Oblique-69" transform="translate(68.408203 -16.3125) scale(0.7)"/>
     <use xlink:href="#DejaVuSans-Oblique-6e" transform="translate(87.856445 -16.3125) scale(0.7)"/>
    </g>
   </g>
   <g id="text_3">
    <!-- $C_1$ -->
    <g transform="translate(212.96 126.498047) scale(0.125 -0.125)">
     <defs>
      <path id="DejaVuSans-Oblique-43" d="M 4447 4306 
L 4319 3641 
Q 4019 3944 3683 4091 
Q 3347 4238 2956 4238 
Q 2422 4238 2017 3981 
Q 1613 3725 1319 3200 
Q 1131 2863 1032 2486 
Q 934 2109 934 1728 
Q 934 1091 1264 756 
Q 1594 422 2222 422 
Q 2656 422 3056 561 
Q 3456 700 3834 978 
L 3688 231 
Q 3316 72 2936 -9 
Q 2556 -91 2175 -91 
Q 1278 -91 773 396 
Q 269 884 269 1753 
Q 269 2309 461 2846 
Q 653 3384 1013 3828 
Q 1394 4300 1883 4525 
Q 2372 4750 3022 4750 
Q 3422 4750 3780 4639 
Q 4138 4528 4447 4306 
z
" transform="scale(0.015625)"/>
      <path id="DejaVuSans-31" d="M 794 531 
L 1825 531 
L 1825 4091 
L 703 3866 
L 703 4441 
L 1819 4666 
L 2450 4666 
L 2450 531 
L 3481 531 
L 3481 0 
L 794 0 
L 794 531 
z
" transform="scale(0.015625)"/>
     </defs>
     <use xlink:href="#DejaVuSans-Oblique-43" transform="translate(0 0.78125)"/>
     <use xlink:href="#DejaVuSans-31" transform="translate(69.824219 -15.625) scale(0.7)"/>
    </g>
   </g>
   <g id="text_4">
    <!-- $R_L$ -->
    <g transform="translate(247.735 91.146875) scale(0.125 -0.125)">
     <defs>
      <path id="DejaVuSans-Oblique-4c" d="M 1075 4666 
L 1709 4666 
L 909 525 
L 3181 525 
L 3078 0 
L 172 0 
L 1075 4666 
z
" transform="scale(0.015625)"/>
     </defs>
     <use xlink:href="#DejaVuSans-Oblique-52" transform="translate(0 0.09375)"/>
     <use xlink:href="#DejaVuSans-Oblique-4c" transform="translate(69.482422 -16.3125) scale(0.7)"/>
    </g>
   </g>
   <g id="text_5">
    <!-- $V_{dd}$ -->
    <g transform="translate(264.2725 13.098047) scale(0.125 -0.125)">
     <defs>
      <path id="DejaVuSans-Oblique-64" d="M 2675 525 
Q 2444 222 2128 65 
Q 1813 -91 1428 -91 
Q 903 -91 598 267 
Q 294 625 294 1247 
Q 294 1766 478 2236 
Q 663 2706 1013 3078 
Q 1244 3325 1534 3454 
Q 1825 3584 2144 3584 
Q 2481 3584 2739 3421 
Q 2997 3259 3138 2956 
L 3513 4863 
L 4091 4863 
L 3144 0 
L 2566 0 
L 2675 525 
z
M 891 1350 
Q 891 897 1095 644 
Q 1300 391 1663 391 
Q 1931 391 2161 520 
Q 2391 650 2566 903 
Q 2750 1166 2856 1509 
Q 2963 1853 2963 2188 
Q 2963 2622 2758 2865 
Q 2553 3109 2194 3109 
Q 1922 3109 1687 2981 
Q 1453 2853 1288 2613 
Q 1106 2353 998 2009 
Q 891 1666 891 1350 
z
" transform="scale(0.015625)"/>
     </defs>
     <use xlink:href="#DejaVuSans-Oblique-56" transform="translate(0 0.09375)"/>
     <use xlink:href="#DejaVuSans-Oblique-64" transform="translate(68.408203 -16.3125) scale(0.7)"/>
     <use xlink:href="#DejaVuSans-Oblique-64" transform="translate(112.841797 -16.3125) scale(0.7)"/>
    </g>
   </g>
   <g id="text_6">
    <!-- $R_{L2}$ -->
    <g transform="translate(242.235 199.146875) scale(0.125 -0.125)">
     <defs>
      <path id="DejaVuSans-32" d="M 1228 531 
L 3431 531 
L 3431 0 
L 469 0 
L 469 531 
Q 828 903 1448 1529 
Q 2069 2156 2228 2338 
Q 2531 2678 2651 2914 
Q 2772 3150 2772 3378 
Q 2772 3750 2511 3984 
Q 2250 4219 1831 4219 
Q 1534 4219 1204 4116 
Q 875 4013 500 3803 
L 500 4441 
Q 881 4594 1212 4672 
Q 1544 4750 1819 4750 
Q 2544 4750 2975 4387 
Q 3406 4025 3406 3419 
Q 3406 3131 3298 2873 
Q 3191 2616 2906 2266 
Q 2828 2175 2409 1742 
Q 1991 1309 1228 531 
z
" transform="scale(0.015625)"/>
     </defs>
     <use xlink:href="#DejaVuSans-Oblique-52" transform="translate(0 0.09375)"/>
     <use xlink:href="#DejaVuSans-Oblique-4c" transform="translate(69.482422 -16.3125) scale(0.7)"/>
     <use xlink:href="#DejaVuSans-32" transform="translate(108.481445 -16.3125) scale(0.7)"/>
    </g>
   </g>
   <g id="text_7">
    <!-- $L_1$ -->
    <g transform="translate(136.181116 91.146875) scale(0.125 -0.125)">
     <use xlink:href="#DejaVuSans-Oblique-4c" transform="translate(0 0.09375)"/>
     <use xlink:href="#DejaVuSans-31" transform="translate(55.712891 -16.3125) scale(0.7)"/>
    </g>
   </g>
   <g id="text_8">
    <!-- $V_{dd}$ -->
    <g transform="translate(156.2725 13.098047) scale(0.125 -0.125)">
     <use xlink:href="#DejaVuSans-Oblique-56" transform="translate(0 0.09375)"/>
     <use xlink:href="#DejaVuSans-Oblique-64" transform="translate(68.408203 -16.3125) scale(0.7)"/>
     <use xlink:href="#DejaVuSans-Oblique-64" transform="translate(112.841797 -16.3125) scale(0.7)"/>
    </g>
   </g>
   <g id="patch_4">
    <path d="M 166.335 144.397656 
C 167.051048 144.397656 167.737866 144.113167 168.244188 143.606845 
C 168.750511 143.100522 169.035 142.413705 169.035 141.697656 
C 169.035 140.981608 168.750511 140.294791 168.244188 139.788468 
C 167.737866 139.282145 167.051048 138.997656 166.335 138.997656 
C 165.618952 138.997656 164.932134 139.282145 164.425812 139.788468 
C 163.919489 140.294791 163.635 140.981608 163.635 141.697656 
C 163.635 142.413705 163.919489 143.100522 164.425812 143.606845 
C 164.932134 144.113167 165.618952 144.397656 166.335 144.397656 
z
" clip-path="url(#p6eac9d11e8)" style="stroke: #000000; stroke-width: 2; stroke-linejoin: miter"/>
   </g>
   <g id="patch_5">
    <path d="M 274.335 144.397656 
C 275.051048 144.397656 275.737866 144.113167 276.244188 143.606845 
C 276.750511 143.100522 277.035 142.413705 277.035 141.697656 
C 277.035 140.981608 276.750511 140.294791 276.244188 139.788468 
C 275.737866 139.282145 275.051048 138.997656 274.335 138.997656 
C 273.618952 138.997656 272.932134 139.282145 272.425812 139.788468 
C 271.919489 140.294791 271.635 140.981608 271.635 141.697656 
C 271.635 142.413705 271.919489 143.100522 272.425812 143.606845 
C 272.932134 144.113167 273.618952 144.397656 274.335 144.397656 
z
" clip-path="url(#p6eac9d11e8)" style="stroke: #000000; stroke-width: 2; stroke-linejoin: miter"/>
   </g>
   <g id="patch_6">
    <path d="M 319.335 144.397656 
C 320.051048 144.397656 320.737866 144.113167 321.244188 143.606845 
C 321.750511 143.100522 322.035 142.413705 322.035 141.697656 
C 322.035 140.981608 321.750511 140.294791 321.244188 139.788468 
C 320.737866 139.282145 320.051048 138.997656 319.335 138.997656 
C 318.618952 138.997656 317.932134 139.282145 317.425812 139.788468 
C 316.919489 140.294791 316.635 140.981608 316.635 141.697656 
C 316.635 142.413705 316.919489 143.100522 317.425812 143.606845 
C 317.932134 144.113167 318.618952 144.397656 319.335 144.397656 
z
" clip-path="url(#p6eac9d11e8)" style="fill: #ffffff; stroke: #000000; stroke-width: 2; stroke-linejoin: miter"/>
   </g>
   <g id="text_9">
    <!-- $v_{out}$ -->
    <g transform="translate(325.635 145.146875) scale(0.125 -0.125)">
     <defs>
      <path id="DejaVuSans-Oblique-76" d="M 459 3500 
L 1069 3500 
L 1581 525 
L 3256 3500 
L 3866 3500 
L 1875 0 
L 1100 0 
L 459 3500 
z
" transform="scale(0.015625)"/>
      <path id="DejaVuSans-Oblique-6f" d="M 1625 -91 
Q 1009 -91 651 289 
Q 294 669 294 1325 
Q 294 1706 417 2101 
Q 541 2497 738 2766 
Q 1047 3184 1428 3384 
Q 1809 3584 2291 3584 
Q 2888 3584 3255 3212 
Q 3622 2841 3622 2241 
Q 3622 1825 3500 1412 
Q 3378 1000 3181 728 
Q 2875 309 2494 109 
Q 2113 -91 1625 -91 
z
M 891 1344 
Q 891 869 1089 633 
Q 1288 397 1691 397 
Q 2269 397 2648 901 
Q 3028 1406 3028 2181 
Q 3028 2634 2825 2865 
Q 2622 3097 2228 3097 
Q 1903 3097 1650 2945 
Q 1397 2794 1197 2484 
Q 1050 2253 970 1956 
Q 891 1659 891 1344 
z
" transform="scale(0.015625)"/>
      <path id="DejaVuSans-Oblique-75" d="M 428 1388 
L 838 3500 
L 1416 3500 
L 1006 1409 
Q 975 1256 961 1147 
Q 947 1038 947 966 
Q 947 700 1109 554 
Q 1272 409 1569 409 
Q 2031 409 2368 721 
Q 2706 1034 2809 1563 
L 3194 3500 
L 3769 3500 
L 3091 0 
L 2516 0 
L 2631 550 
Q 2388 244 2052 76 
Q 1716 -91 1338 -91 
Q 878 -91 622 161 
Q 366 413 366 863 
Q 366 956 381 1097 
Q 397 1238 428 1388 
z
" transform="scale(0.015625)"/>
      <path id="DejaVuSans-Oblique-74" d="M 2706 3500 
L 2619 3053 
L 1472 3053 
L 1100 1153 
Q 1081 1047 1072 975 
Q 1063 903 1063 863 
Q 1063 663 1183 572 
Q 1303 481 1569 481 
L 2150 481 
L 2053 0 
L 1503 0 
Q 991 0 739 200 
Q 488 400 488 806 
Q 488 878 497 964 
Q 506 1050 525 1153 
L 897 3053 
L 409 3053 
L 500 3500 
L 978 3500 
L 1172 4494 
L 1747 4494 
L 1556 3500 
L 2706 3500 
z
" transform="scale(0.015625)"/>
     </defs>
     <use xlink:href="#DejaVuSans-Oblique-76" transform="translate(0 0.3125)"/>
     <use xlink:href="#DejaVuSans-Oblique-6f" transform="translate(59.179688 -16.09375) scale(0.7)"/>
     <use xlink:href="#DejaVuSans-Oblique-75" transform="translate(102.006836 -16.09375) scale(0.7)"/>
     <use xlink:href="#DejaVuSans-Oblique-74" transform="translate(146.37207 -16.09375) scale(0.7)"/>
    </g>
   </g>
  </g>
 </g>
 <defs>
  <clipPath id="p6eac9d11e8">
   <rect x="7.287" y="6.625656" width="329.736" height="278.784"/>
  </clipPath>
 </defs>
</svg>