<?xml version="1.0" encoding="utf-8" standalone="no"?>
<!DOCTYPE svg PUBLIC "-//W3C//DTD SVG 1.1//EN"
  "http://www.w3.org/Graphics/SVG/1.1/DTD/svg11.dtd">
<svg xmlns:xlink="http://www.w3.org/1999/xlink" width="477.648pt" height="152.929656pt" viewBox="0 0 477.648 152.929656" xmlns="http://www.w3.org/2000/svg" version="1.1">
 <metadata>
  <rdf:RDF xmlns:dc="http://purl.org/dc/elements/1.1/" xmlns:cc="http://creativecommons.org/ns#" xmlns:rdf="http://www.w3.org/1999/02/22-rdf-syntax-ns#">
   <cc:Work>
    <dc:type rdf:resource="http://purl.org/dc/dcmitype/StillImage"/>
    <dc:date>2023-11-12T23:55:31.524293</dc:date>
    <dc:format>image/svg+xml</dc:format>
    <dc:creator>
     <cc:Agent>
      <dc:title>Matplotlib v3.8.0, https://matplotlib.org/</dc:title>
     </cc:Agent>
    </dc:creator>
   </cc:Work>
  </rdf:RDF>
 </metadata>
 <defs>
  <style type="text/css">*{stroke-linejoin: round; stroke-linecap: butt}</style>
 </defs>
 <g id="figure_1">
  <g id="patch_1">
   <path d="M 0 152.929656 
L 477.648 152.929656 
L 477.648 0 
L 0 0 
z
" style="fill: #ffffff"/>
  </g>
  <g id="axes_1">
   <g id="patch_2">
    <path d="M 42.984 102.097656 
C 47.757656 102.097656 52.336438 100.201063 55.711922 96.825578 
C 59.087406 93.450094 60.984 88.871312 60.984 84.097656 
C 60.984 79.324 59.087406 74.745219 55.711922 71.369734 
C 52.336438 67.99425 47.757656 66.097656 42.984 66.097656 
C 38.210344 66.097656 33.631562 67.99425 30.256078 71.369734 
C 26.880594 74.745219 24.984 79.324 24.984 84.097656 
C 24.984 88.871312 26.880594 93.450094 30.256078 96.825578 
C 33.631562 100.201063 38.210344 102.097656 42.984 102.097656 
L 42.984 102.097656 
z
" clip-path="url(#p62791bb49c)" style="fill: none; stroke: #000000; stroke-width: 2; stroke-linejoin: miter"/>
   </g>
   <g id="patch_3">
    <path d="M 105.984 62.497656 
C 105.984 61.079413 105.844319 59.674961 105.572949 58.364675 
C 105.30158 57.054389 104.903801 55.863752 104.402377 54.860903 
C 103.900952 53.858054 103.305633 53.062495 102.650491 52.519757 
C 101.995348 51.977019 101.293122 51.697656 100.584 51.697656 
C 99.874878 51.697656 99.172652 51.977019 98.517509 52.519757 
C 97.862367 53.062495 97.267048 53.858054 96.765623 54.860903 
C 96.264199 55.863752 95.86642 57.054389 95.595051 58.364675 
C 95.323681 59.674961 95.184 61.079413 95.184 62.497656 
C 95.184 63.915899 95.323681 65.320352 95.595051 66.630637 
C 95.86642 67.940923 96.264199 69.13156 96.765623 70.134409 
C 97.267048 71.137259 97.862367 71.932817 98.517509 72.475555 
C 99.172652 73.018293 99.874878 73.297656 100.584 73.297656 
C 101.293122 73.297656 101.995348 73.018293 102.650491 72.475555 
C 103.305633 71.932817 103.900952 71.137259 104.402377 70.134409 
C 104.903801 69.13156 105.30158 67.940923 105.572949 66.630637 
C 105.844319 65.320352 105.984 63.915899 105.984 62.497656 
" clip-path="url(#p62791bb49c)" style="fill: none; stroke: #000000; stroke-width: 2; stroke-linejoin: miter"/>
   </g>
   <g id="patch_4">
    <path d="M 237.384 73.297656 
C 238.81562 73.297656 240.190069 72.159026 241.202377 70.134409 
C 242.214685 68.109793 242.784 65.360896 242.784 62.497656 
C 242.784 59.634417 242.214685 56.885519 241.202377 54.860903 
C 240.190069 52.836287 238.81562 51.697656 237.384 51.697656 
" clip-path="url(#p62791bb49c)" style="fill: none; stroke: #000000; stroke-width: 2; stroke-linejoin: miter"/>
   </g>
   <g id="patch_5">
    <path d="M 267.984 62.497656 
C 267.984 61.30464 267.509571 60.159266 266.665981 59.315676 
C 265.82239 58.472086 264.677016 57.997656 263.484 57.997656 
C 262.290984 57.997656 261.14561 58.472086 260.302019 59.315676 
C 259.458429 60.159266 258.984 61.30464 258.984 62.497656 
" clip-path="url(#p62791bb49c)" style="fill: none; stroke: #000000; stroke-width: 2; stroke-linejoin: miter"/>
   </g>
   <g id="patch_6">
    <path d="M 276.984 62.497656 
C 276.984 61.30464 276.509571 60.159266 275.665981 59.315676 
C 274.82239 58.472086 273.677016 57.997656 272.484 57.997656 
C 271.290984 57.997656 270.14561 58.472086 269.302019 59.315676 
C 268.458429 60.159266 267.984 61.30464 267.984 62.497656 
" clip-path="url(#p62791bb49c)" style="fill: none; stroke: #000000; stroke-width: 2; stroke-linejoin: miter"/>
   </g>
   <g id="patch_7">
    <path d="M 285.984 62.497656 
C 285.984 61.30464 285.509571 60.159266 284.665981 59.315676 
C 283.82239 58.472086 282.677016 57.997656 281.484 57.997656 
C 280.290984 57.997656 279.14561 58.472086 278.302019 59.315676 
C 277.458429 60.159266 276.984 61.30464 276.984 62.497656 
" clip-path="url(#p62791bb49c)" style="fill: none; stroke: #000000; stroke-width: 2; stroke-linejoin: miter"/>
   </g>
   <g id="patch_8">
    <path d="M 294.984 62.497656 
C 294.984 61.30464 294.509571 60.159266 293.665981 59.315676 
C 292.82239 58.472086 291.677016 57.997656 290.484 57.997656 
C 289.290984 57.997656 288.14561 58.472086 287.302019 59.315676 
C 286.458429 60.159266 285.984 61.30464 285.984 62.497656 
" clip-path="url(#p62791bb49c)" style="fill: none; stroke: #000000; stroke-width: 2; stroke-linejoin: miter"/>
   </g>
   <g id="patch_9">
    <path d="M 321.984 62.497656 
C 321.984 61.079413 321.844319 59.674961 321.572949 58.364675 
C 321.30158 57.054389 320.903801 55.863752 320.402377 54.860903 
C 319.900952 53.858054 319.305633 53.062495 318.650491 52.519757 
C 317.995348 51.977019 317.293122 51.697656 316.584 51.697656 
C 315.874878 51.697656 315.172652 51.977019 314.517509 52.519757 
C 313.862367 53.062495 313.267048 53.858054 312.765623 54.860903 
C 312.264199 55.863752 311.86642 57.054389 311.595051 58.364675 
C 311.323681 59.674961 311.184 61.079413 311.184 62.497656 
C 311.184 63.915899 311.323681 65.320352 311.595051 66.630637 
C 311.86642 67.940923 312.264199 69.13156 312.765623 70.134409 
C 313.267048 71.137259 313.862367 71.932817 314.517509 72.475555 
C 315.172652 73.018293 315.874878 73.297656 316.584 73.297656 
C 317.293122 73.297656 317.995348 73.018293 318.650491 72.475555 
C 319.305633 71.932817 319.900952 71.137259 320.402377 70.134409 
C 320.903801 69.13156 321.30158 67.940923 321.572949 66.630637 
C 321.844319 65.320352 321.984 63.915899 321.984 62.497656 
" clip-path="url(#p62791bb49c)" style="fill: none; stroke: #000000; stroke-width: 2; stroke-linejoin: miter"/>
   </g>
   <g id="patch_10">
    <path d="M 417.384 73.297656 
C 418.81562 73.297656 420.190069 72.159026 421.202377 70.134409 
C 422.214685 68.109793 422.784 65.360896 422.784 62.497656 
C 422.784 59.634417 422.214685 56.885519 421.202377 54.860903 
C 420.190069 52.836287 418.81562 51.697656 417.384 51.697656 
" clip-path="url(#p62791bb49c)" style="fill: none; stroke: #000000; stroke-width: 2; stroke-linejoin: miter"/>
   </g>
   <g id="line2d_1">
    <path d="M 42.984 120.097656 
L 42.984 134.497656 
L 33.984 134.497656 
L 51.984 134.497656 
M 36.684 138.817656 
L 49.284 138.817656 
M 41.184 143.137656 
L 44.784 143.137656 
" clip-path="url(#p62791bb49c)" style="fill: none; stroke: #000000; stroke-width: 2; stroke-linecap: round"/>
   </g>
   <g id="line2d_2">
    <path d="M 42.984 120.097656 
L 42.984 102.097656 
L 42.984 102.097656 
M 42.984 66.097656 
L 42.984 66.097656 
L 42.984 48.097656 
" clip-path="url(#p62791bb49c)" style="fill: none; stroke: #000000; stroke-width: 2; stroke-linecap: round"/>
   </g>
   <g id="line2d_3">
    <path d="M 51.984 84.097656 
L 51.234 82.234159 
L 50.484 80.497656 
L 49.734 79.006487 
L 48.984 77.862273 
L 48.234 77.14299 
L 47.484 76.897656 
L 46.734 77.14299 
L 45.984 77.862273 
L 45.234 79.006487 
L 44.484 80.497656 
L 43.734 82.234159 
L 42.984 84.097656 
L 42.234 85.961153 
L 41.484 87.697656 
L 40.734 89.188825 
L 39.984 90.333039 
L 39.234 91.052322 
L 38.484 91.297656 
L 37.734 91.052322 
L 36.984 90.333039 
L 36.234 89.188825 
L 35.484 87.697656 
L 34.734 85.961153 
L 33.984 84.097656 
" clip-path="url(#p62791bb49c)" style="fill: none; stroke: #000000; stroke-width: 2; stroke-linecap: round"/>
   </g>
   <g id="line2d_4">
    <path d="M 42.984 48.097656 
L 60.984 48.097656 
L 78.984 48.097656 
" clip-path="url(#p62791bb49c)" style="fill: none; stroke: #000000; stroke-width: 2; stroke-linecap: round"/>
   </g>
   <g id="line2d_5">
    <path d="M 78.984 48.097656 
L 78.984 55.297656 
L 78.984 62.497656 
" clip-path="url(#p62791bb49c)" style="fill: none; stroke: #000000; stroke-width: 2; stroke-linecap: round"/>
   </g>
   <g id="line2d_6">
    <path d="M 78.984 62.497656 
L 100.584 62.497656 
M 242.784 62.497656 
L 258.984 62.497656 
" clip-path="url(#p62791bb49c)" style="fill: none; stroke: #000000; stroke-width: 2; stroke-linecap: round"/>
   </g>
   <g id="line2d_7">
    <path d="M 100.584 51.697656 
L 237.384 51.697656 
" clip-path="url(#p62791bb49c)" style="fill: none; stroke: #000000; stroke-width: 2; stroke-linecap: round"/>
   </g>
   <g id="line2d_8">
    <path d="M 100.584 73.297656 
L 237.384 73.297656 
" clip-path="url(#p62791bb49c)" style="fill: none; stroke: #000000; stroke-width: 2; stroke-linecap: round"/>
   </g>
   <g id="line2d_9">
    <path d="M 258.984 62.497656 
M 294.984 62.497656 
" clip-path="url(#p62791bb49c)" style="fill: none; stroke: #000000; stroke-width: 2; stroke-linecap: round"/>
   </g>
   <g id="line2d_10">
    <path d="M 294.984 62.497656 
L 316.584 62.497656 
M 422.784 62.497656 
L 438.984 62.497656 
" clip-path="url(#p62791bb49c)" style="fill: none; stroke: #000000; stroke-width: 2; stroke-linecap: round"/>
   </g>
   <g id="line2d_11">
    <path d="M 316.584 51.697656 
L 417.384 51.697656 
" clip-path="url(#p62791bb49c)" style="fill: none; stroke: #000000; stroke-width: 2; stroke-linecap: round"/>
   </g>
   <g id="line2d_12">
    <path d="M 316.584 73.297656 
L 417.384 73.297656 
" clip-path="url(#p62791bb49c)" style="fill: none; stroke: #000000; stroke-width: 2; stroke-linecap: round"/>
   </g>
   <g id="line2d_13">
    <path d="M 438.984 62.497656 
L 438.984 40.897656 
L 425.304 19.297656 
L 452.664 19.297656 
L 438.984 40.897656 
" clip-path="url(#p62791bb49c)" style="fill: none; stroke: #000000; stroke-width: 2; stroke-linecap: round"/>
   </g>
   <g id="line2d_14">
    <path d="M 237.384 73.297656 
L 237.384 91.297656 
L 237.384 109.297656 
" clip-path="url(#p62791bb49c)" style="fill: none; stroke: #000000; stroke-width: 2; stroke-linecap: round"/>
   </g>
   <g id="line2d_15">
    <path d="M 237.384 109.297656 
L 276.984 109.297656 
L 316.584 109.297656 
" clip-path="url(#p62791bb49c)" style="fill: none; stroke: #000000; stroke-width: 2; stroke-linecap: round"/>
   </g>
   <g id="line2d_16">
    <path d="M 316.584 109.297656 
L 316.584 91.297656 
L 316.584 73.297656 
" clip-path="url(#p62791bb49c)" style="fill: none; stroke: #000000; stroke-width: 2; stroke-linecap: round"/>
   </g>
   <g id="line2d_17">
    <path d="M 42.984 120.097656 
L 71.784 120.097656 
L 100.584 120.097656 
" clip-path="url(#p62791bb49c)" style="fill: none; stroke: #000000; stroke-width: 2; stroke-linecap: round"/>
   </g>
   <g id="line2d_18">
    <path d="M 100.584 120.097656 
L 100.584 96.697656 
L 100.584 73.297656 
" clip-path="url(#p62791bb49c)" style="fill: none; stroke: #000000; stroke-width: 2; stroke-linecap: round"/>
   </g>
   <g id="text_1">
    <!-- $V_{in}$ -->
    <g transform="translate(4.509 87.546875) scale(0.125 -0.125)">
     <defs>
      <path id="DejaVuSans-Oblique-56" d="M 1319 0 
L 500 4666 
L 1119 4666 
L 1797 653 
L 4063 4666 
L 4750 4666 
L 2053 0 
L 1319 0 
z
" transform="scale(0.015625)"/>
      <path id="DejaVuSans-Oblique-69" d="M 1172 4863 
L 1747 4863 
L 1606 4134 
L 1031 4134 
L 1172 4863 
z
M 909 3500 
L 1484 3500 
L 800 0 
L 225 0 
L 909 3500 
z
" transform="scale(0.015625)"/>
      <path id="DejaVuSans-Oblique-6e" d="M 3566 2113 
L 3156 0 
L 2578 0 
L 2988 2091 
Q 3016 2238 3031 2350 
Q 3047 2463 3047 2528 
Q 3047 2791 2881 2937 
Q 2716 3084 2419 3084 
Q 1956 3084 1622 2776 
Q 1288 2469 1184 1941 
L 800 0 
L 225 0 
L 903 3500 
L 1478 3500 
L 1363 2950 
Q 1603 3253 1940 3418 
Q 2278 3584 2650 3584 
Q 3113 3584 3367 3334 
Q 3622 3084 3622 2631 
Q 3622 2519 3608 2391 
Q 3594 2263 3566 2113 
z
" transform="scale(0.015625)"/>
     </defs>
     <use xlink:href="#DejaVuSans-Oblique-56" transform="translate(0 0.09375)"/>
     <use xlink:href="#DejaVuSans-Oblique-69" transform="translate(68.408203 -16.3125) scale(0.7)"/>
     <use xlink:href="#DejaVuSans-Oblique-6e" transform="translate(87.856445 -16.3125) scale(0.7)"/>
    </g>
   </g>
   <g id="text_2">
    <!-- $50\Omega$ -->
    <g transform="translate(156.234 45.498047) scale(0.125 -0.125)">
     <defs>
      <path id="DejaVuSans-35" d="M 691 4666 
L 3169 4666 
L 3169 4134 
L 1269 4134 
L 1269 2991 
Q 1406 3038 1543 3061 
Q 1681 3084 1819 3084 
Q 2600 3084 3056 2656 
Q 3513 2228 3513 1497 
Q 3513 744 3044 326 
Q 2575 -91 1722 -91 
Q 1428 -91 1123 -41 
Q 819 9 494 109 
L 494 744 
Q 775 591 1075 516 
Q 1375 441 1709 441 
Q 2250 441 2565 725 
Q 2881 1009 2881 1497 
Q 2881 1984 2565 2268 
Q 2250 2553 1709 2553 
Q 1456 2553 1204 2497 
Q 953 2441 691 2322 
L 691 4666 
z
" transform="scale(0.015625)"/>
      <path id="DejaVuSans-30" d="M 2034 4250 
Q 1547 4250 1301 3770 
Q 1056 3291 1056 2328 
Q 1056 1369 1301 889 
Q 1547 409 2034 409 
Q 2525 409 2770 889 
Q 3016 1369 3016 2328 
Q 3016 3291 2770 3770 
Q 2525 4250 2034 4250 
z
M 2034 4750 
Q 2819 4750 3233 4129 
Q 3647 3509 3647 2328 
Q 3647 1150 3233 529 
Q 2819 -91 2034 -91 
Q 1250 -91 836 529 
Q 422 1150 422 2328 
Q 422 3509 836 4129 
Q 1250 4750 2034 4750 
z
" transform="scale(0.015625)"/>
      <path id="DejaVuSans-3a9" d="M 4647 556 
L 4647 0 
L 2772 0 
L 2772 556 
Q 3325 859 3634 1378 
Q 3944 1897 3944 2528 
Q 3944 3278 3531 3731 
Q 3119 4184 2444 4184 
Q 1769 4184 1355 3729 
Q 941 3275 941 2528 
Q 941 1897 1250 1378 
Q 1563 859 2119 556 
L 2119 0 
L 244 0 
L 244 556 
L 1241 556 
Q 747 991 519 1456 
Q 294 1922 294 2497 
Q 294 3491 894 4106 
Q 1491 4722 2444 4722 
Q 3391 4722 3994 4106 
Q 4594 3494 4594 2528 
Q 4594 1922 4372 1459 
Q 4150 997 3647 556 
L 4647 556 
z
" transform="scale(0.015625)"/>
     </defs>
     <use xlink:href="#DejaVuSans-35" transform="translate(0 0.78125)"/>
     <use xlink:href="#DejaVuSans-30" transform="translate(63.623047 0.78125)"/>
     <use xlink:href="#DejaVuSans-3a9" transform="translate(127.246094 0.78125)"/>
    </g>
   </g>
   <g id="text_3">
    <!-- 10.7 nH -->
    <g transform="translate(252.420523 51.798069) scale(0.125 -0.125)">
     <defs>
      <path id="DejaVuSans-31" d="M 794 531 
L 1825 531 
L 1825 4091 
L 703 3866 
L 703 4441 
L 1819 4666 
L 2450 4666 
L 2450 531 
L 3481 531 
L 3481 0 
L 794 0 
L 794 531 
z
" transform="scale(0.015625)"/>
      <path id="DejaVuSans-2e" d="M 684 794 
L 1344 794 
L 1344 0 
L 684 0 
L 684 794 
z
" transform="scale(0.015625)"/>
      <path id="DejaVuSans-37" d="M 525 4666 
L 3525 4666 
L 3525 4397 
L 1831 0 
L 1172 0 
L 2766 4134 
L 525 4134 
L 525 4666 
z
" transform="scale(0.015625)"/>
      <path id="DejaVuSans-20" transform="scale(0.015625)"/>
      <path id="DejaVuSans-6e" d="M 3513 2113 
L 3513 0 
L 2938 0 
L 2938 2094 
Q 2938 2591 2744 2837 
Q 2550 3084 2163 3084 
Q 1697 3084 1428 2787 
Q 1159 2491 1159 1978 
L 1159 0 
L 581 0 
L 581 3500 
L 1159 3500 
L 1159 2956 
Q 1366 3272 1645 3428 
Q 1925 3584 2291 3584 
Q 2894 3584 3203 3211 
Q 3513 2838 3513 2113 
z
" transform="scale(0.015625)"/>
      <path id="DejaVuSans-48" d="M 628 4666 
L 1259 4666 
L 1259 2753 
L 3553 2753 
L 3553 4666 
L 4184 4666 
L 4184 0 
L 3553 0 
L 3553 2222 
L 1259 2222 
L 1259 0 
L 628 0 
L 628 4666 
z
" transform="scale(0.015625)"/>
     </defs>
     <use xlink:href="#DejaVuSans-31"/>
     <use xlink:href="#DejaVuSans-30" x="63.623047"/>
     <use xlink:href="#DejaVuSans-2e" x="127.246094"/>
     <use xlink:href="#DejaVuSans-37" x="159.033203"/>
     <use xlink:href="#DejaVuSans-20" x="222.65625"/>
     <use xlink:href="#DejaVuSans-6e" x="254.443359"/>
     <use xlink:href="#DejaVuSans-48" x="317.822266"/>
    </g>
   </g>
   <g id="text_4">
    <!-- $50\Omega$ -->
    <g transform="translate(354.234 45.498047) scale(0.125 -0.125)">
     <use xlink:href="#DejaVuSans-35" transform="translate(0 0.78125)"/>
     <use xlink:href="#DejaVuSans-30" transform="translate(63.623047 0.78125)"/>
     <use xlink:href="#DejaVuSans-3a9" transform="translate(127.246094 0.78125)"/>
    </g>
   </g>
   <g id="text_5">
    <!-- 2.35 cm -->
    <g transform="translate(341.557242 86.395703) scale(0.125 -0.125)">
     <defs>
      <path id="DejaVuSans-32" d="M 1228 531 
L 3431 531 
L 3431 0 
L 469 0 
L 469 531 
Q 828 903 1448 1529 
Q 2069 2156 2228 2338 
Q 2531 2678 2651 2914 
Q 2772 3150 2772 3378 
Q 2772 3750 2511 3984 
Q 2250 4219 1831 4219 
Q 1534 4219 1204 4116 
Q 875 4013 500 3803 
L 500 4441 
Q 881 4594 1212 4672 
Q 1544 4750 1819 4750 
Q 2544 4750 2975 4387 
Q 3406 4025 3406 3419 
Q 3406 3131 3298 2873 
Q 3191 2616 2906 2266 
Q 2828 2175 2409 1742 
Q 1991 1309 1228 531 
z
" transform="scale(0.015625)"/>
      <path id="DejaVuSans-33" d="M 2597 2516 
Q 3050 2419 3304 2112 
Q 3559 1806 3559 1356 
Q 3559 666 3084 287 
Q 2609 -91 1734 -91 
Q 1441 -91 1130 -33 
Q 819 25 488 141 
L 488 750 
Q 750 597 1062 519 
Q 1375 441 1716 441 
Q 2309 441 2620 675 
Q 2931 909 2931 1356 
Q 2931 1769 2642 2001 
Q 2353 2234 1838 2234 
L 1294 2234 
L 1294 2753 
L 1863 2753 
Q 2328 2753 2575 2939 
Q 2822 3125 2822 3475 
Q 2822 3834 2567 4026 
Q 2313 4219 1838 4219 
Q 1578 4219 1281 4162 
Q 984 4106 628 3988 
L 628 4550 
Q 988 4650 1302 4700 
Q 1616 4750 1894 4750 
Q 2613 4750 3031 4423 
Q 3450 4097 3450 3541 
Q 3450 3153 3228 2886 
Q 3006 2619 2597 2516 
z
" transform="scale(0.015625)"/>
      <path id="DejaVuSans-63" d="M 3122 3366 
L 3122 2828 
Q 2878 2963 2633 3030 
Q 2388 3097 2138 3097 
Q 1578 3097 1268 2742 
Q 959 2388 959 1747 
Q 959 1106 1268 751 
Q 1578 397 2138 397 
Q 2388 397 2633 464 
Q 2878 531 3122 666 
L 3122 134 
Q 2881 22 2623 -34 
Q 2366 -91 2075 -91 
Q 1284 -91 818 406 
Q 353 903 353 1747 
Q 353 2603 823 3093 
Q 1294 3584 2113 3584 
Q 2378 3584 2631 3529 
Q 2884 3475 3122 3366 
z
" transform="scale(0.015625)"/>
      <path id="DejaVuSans-6d" d="M 3328 2828 
Q 3544 3216 3844 3400 
Q 4144 3584 4550 3584 
Q 5097 3584 5394 3201 
Q 5691 2819 5691 2113 
L 5691 0 
L 5113 0 
L 5113 2094 
Q 5113 2597 4934 2840 
Q 4756 3084 4391 3084 
Q 3944 3084 3684 2787 
Q 3425 2491 3425 1978 
L 3425 0 
L 2847 0 
L 2847 2094 
Q 2847 2600 2669 2842 
Q 2491 3084 2119 3084 
Q 1678 3084 1418 2786 
Q 1159 2488 1159 1978 
L 1159 0 
L 581 0 
L 581 3500 
L 1159 3500 
L 1159 2956 
Q 1356 3278 1631 3431 
Q 1906 3584 2284 3584 
Q 2666 3584 2933 3390 
Q 3200 3197 3328 2828 
z
" transform="scale(0.015625)"/>
     </defs>
     <use xlink:href="#DejaVuSans-32"/>
     <use xlink:href="#DejaVuSans-2e" x="63.623047"/>
     <use xlink:href="#DejaVuSans-33" x="95.410156"/>
     <use xlink:href="#DejaVuSans-35" x="159.033203"/>
     <use xlink:href="#DejaVuSans-20" x="222.65625"/>
     <use xlink:href="#DejaVuSans-63" x="254.443359"/>
     <use xlink:href="#DejaVuSans-6d" x="309.423828"/>
    </g>
   </g>
   <g id="text_6">
    <!-- $150\Omega$ -->
    <g transform="translate(422.234 13.098047) scale(0.125 -0.125)">
     <use xlink:href="#DejaVuSans-31" transform="translate(0 0.78125)"/>
     <use xlink:href="#DejaVuSans-35" transform="translate(63.623047 0.78125)"/>
     <use xlink:href="#DejaVuSans-30" transform="translate(127.246094 0.78125)"/>
     <use xlink:href="#DejaVuSans-3a9" transform="translate(190.869141 0.78125)"/>
    </g>
   </g>
   <g id="patch_11">
    <path d="M 42.984 122.797656 
C 43.700048 122.797656 44.386866 122.513167 44.893188 122.006845 
C 45.399511 121.500522 45.684 120.813705 45.684 120.097656 
C 45.684 119.381608 45.399511 118.694791 44.893188 118.188468 
C 44.386866 117.682145 43.700048 117.397656 42.984 117.397656 
C 42.267952 117.397656 41.581134 117.682145 41.074812 118.188468 
C 40.568489 118.694791 40.284 119.381608 40.284 120.097656 
C 40.284 120.813705 40.568489 121.500522 41.074812 122.006845 
C 41.581134 122.513167 42.267952 122.797656 42.984 122.797656 
z
" clip-path="url(#p62791bb49c)" style="stroke: #000000; stroke-width: 2; stroke-linejoin: miter"/>
   </g>
   <g id="patch_12">
    <path d="M 438.984 65.197656 
C 439.700048 65.197656 440.386866 64.913167 440.893188 64.406845 
C 441.399511 63.900522 441.684 63.213705 441.684 62.497656 
C 441.684 61.781608 441.399511 61.094791 440.893188 60.588468 
C 440.386866 60.082145 439.700048 59.797656 438.984 59.797656 
C 438.267952 59.797656 437.581134 60.082145 437.074812 60.588468 
C 436.568489 61.094791 436.284 61.781608 436.284 62.497656 
C 436.284 63.213705 436.568489 63.900522 437.074812 64.406845 
C 437.581134 64.913167 438.267952 65.197656 438.984 65.197656 
z
" clip-path="url(#p62791bb49c)" style="fill: #ff0000; stroke: #ff0000; stroke-width: 2; stroke-linejoin: miter"/>
   </g>
  </g>
 </g>
 <defs>
  <clipPath id="p62791bb49c">
   <rect x="3.6" y="13.105656" width="470.448" height="136.224"/>
  </clipPath>
 </defs>
</svg>