<?xml version="1.0" encoding="utf-8" standalone="no"?>
<!DOCTYPE svg PUBLIC "-//W3C//DTD SVG 1.1//EN"
  "http://www.w3.org/Graphics/SVG/1.1/DTD/svg11.dtd">
<svg xmlns:xlink="http://www.w3.org/1999/xlink" width="551.7pt" height="217.08pt" viewBox="0 0 551.7 217.08" xmlns="http://www.w3.org/2000/svg" version="1.1">
 <metadata>
  <rdf:RDF xmlns:dc="http://purl.org/dc/elements/1.1/" xmlns:cc="http://creativecommons.org/ns#" xmlns:rdf="http://www.w3.org/1999/02/22-rdf-syntax-ns#">
   <cc:Work>
    <dc:type rdf:resource="http://purl.org/dc/dcmitype/StillImage"/>
    <dc:date>2023-09-26T23:51:05.216849</dc:date>
    <dc:format>image/svg+xml</dc:format>
    <dc:creator>
     <cc:Agent>
      <dc:title>Matplotlib v3.6.3, https://matplotlib.org/</dc:title>
     </cc:Agent>
    </dc:creator>
   </cc:Work>
  </rdf:RDF>
 </metadata>
 <defs>
  <style type="text/css">*{stroke-linejoin: round; stroke-linecap: butt}</style>
 </defs>
 <g id="figure_1">
  <g id="patch_1">
   <path d="M 0 217.08 
L 551.7 217.08 
L 551.7 0 
L 0 0 
z
" style="fill: #ffffff"/>
  </g>
  <g id="axes_1">
   <g id="patch_2">
    <path d="M 46.35 99.54 
C 51.123656 99.54 55.702438 97.643406 59.077922 94.267922 
C 62.453406 90.892438 64.35 86.313656 64.35 81.54 
C 64.35 76.766344 62.453406 72.187562 59.077922 68.812078 
C 55.702438 65.436594 51.123656 63.54 46.35 63.54 
C 41.576344 63.54 36.997562 65.436594 33.622078 68.812078 
C 30.246594 72.187562 28.35 76.766344 28.35 81.54 
C 28.35 86.313656 30.246594 90.892438 33.622078 94.267922 
C 36.997562 97.643406 41.576344 99.54 46.35 99.54 
L 46.35 99.54 
z
" clip-path="url(#p1fd8089903)" style="fill: none; stroke: #000000; stroke-width: 2; stroke-linejoin: miter"/>
   </g>
   <g id="patch_3">
    <path d="M 109.35 59.94 
C 109.35 58.521757 109.210319 57.117305 108.938949 55.807019 
C 108.66758 54.496733 108.269801 53.306096 107.768377 52.303247 
C 107.266952 51.300398 106.671633 50.504839 106.016491 49.962101 
C 105.361348 49.419363 104.659122 49.14 103.95 49.14 
C 103.240878 49.14 102.538652 49.419363 101.883509 49.962101 
C 101.228367 50.504839 100.633048 51.300398 100.131623 52.303247 
C 99.630199 53.306096 99.23242 54.496733 98.961051 55.807019 
C 98.689681 57.117305 98.55 58.521757 98.55 59.94 
C 98.55 61.358243 98.689681 62.762695 98.961051 64.072981 
C 99.23242 65.383267 99.630199 66.573904 100.131623 67.576753 
C 100.633048 68.579602 101.228367 69.375161 101.883509 69.917899 
C 102.538652 70.460637 103.240878 70.74 103.95 70.74 
C 104.659122 70.74 105.361348 70.460637 106.016491 69.917899 
C 106.671633 69.375161 107.266952 68.579602 107.768377 67.576753 
C 108.269801 66.573904 108.66758 65.383267 108.938949 64.072981 
C 109.210319 62.762695 109.35 61.358243 109.35 59.94 
" clip-path="url(#p1fd8089903)" style="fill: none; stroke: #000000; stroke-width: 2; stroke-linejoin: miter"/>
   </g>
   <g id="patch_4">
    <path d="M 240.75 70.74 
C 242.18162 70.74 243.556069 69.601369 244.568377 67.576753 
C 245.580685 65.552137 246.15 62.80324 246.15 59.94 
C 246.15 57.07676 245.580685 54.327863 244.568377 52.303247 
C 243.556069 50.278631 242.18162 49.14 240.75 49.14 
" clip-path="url(#p1fd8089903)" style="fill: none; stroke: #000000; stroke-width: 2; stroke-linejoin: miter"/>
   </g>
   <g id="patch_5">
    <path d="M 262.35 86.94 
C 263.768243 86.94 265.172695 86.800319 266.482981 86.528949 
C 267.793267 86.25758 268.983904 85.859801 269.986753 85.358377 
C 270.989602 84.856952 271.785161 84.261633 272.327899 83.606491 
C 272.870637 82.951348 273.15 82.249122 273.15 81.54 
C 273.15 80.830878 272.870637 80.128652 272.327899 79.473509 
C 271.785161 78.818367 270.989602 78.223048 269.986753 77.721623 
C 268.983904 77.220199 267.793267 76.82242 266.482981 76.551051 
C 265.172695 76.279681 263.768243 76.14 262.35 76.14 
C 260.931757 76.14 259.527305 76.279681 258.217019 76.551051 
C 256.906733 76.82242 255.716096 77.220199 254.713247 77.721623 
C 253.710398 78.223048 252.914839 78.818367 252.372101 79.473509 
C 251.829363 80.128652 251.55 80.830878 251.55 81.54 
C 251.55 82.249122 251.829363 82.951348 252.372101 83.606491 
C 252.914839 84.261633 253.710398 84.856952 254.713247 85.358377 
C 255.716096 85.859801 256.906733 86.25758 258.217019 86.528949 
C 259.527305 86.800319 260.931757 86.94 262.35 86.94 
" clip-path="url(#p1fd8089903)" style="fill: none; stroke: #000000; stroke-width: 2; stroke-linejoin: miter"/>
   </g>
   <g id="patch_6">
    <path d="M 251.55 182.34 
C 251.55 183.77162 252.688631 185.146069 254.713247 186.158377 
C 256.737863 187.170685 259.48676 187.74 262.35 187.74 
C 265.21324 187.74 267.962137 187.170685 269.986753 186.158377 
C 272.011369 185.146069 273.15 183.77162 273.15 182.34 
" clip-path="url(#p1fd8089903)" style="fill: none; stroke: #000000; stroke-width: 2; stroke-linejoin: miter"/>
   </g>
   <g id="patch_7">
    <path d="M 289.35 59.94 
C 289.35 58.521757 289.210319 57.117305 288.938949 55.807019 
C 288.66758 54.496733 288.269801 53.306096 287.768377 52.303247 
C 287.266952 51.300398 286.671633 50.504839 286.016491 49.962101 
C 285.361348 49.419363 284.659122 49.14 283.95 49.14 
C 283.240878 49.14 282.538652 49.419363 281.883509 49.962101 
C 281.228367 50.504839 280.633048 51.300398 280.131623 52.303247 
C 279.630199 53.306096 279.23242 54.496733 278.961051 55.807019 
C 278.689681 57.117305 278.55 58.521757 278.55 59.94 
C 278.55 61.358243 278.689681 62.762695 278.961051 64.072981 
C 279.23242 65.383267 279.630199 66.573904 280.131623 67.576753 
C 280.633048 68.579602 281.228367 69.375161 281.883509 69.917899 
C 282.538652 70.460637 283.240878 70.74 283.95 70.74 
C 284.659122 70.74 285.361348 70.460637 286.016491 69.917899 
C 286.671633 69.375161 287.266952 68.579602 287.768377 67.576753 
C 288.269801 66.573904 288.66758 65.383267 288.938949 64.072981 
C 289.210319 62.762695 289.35 61.358243 289.35 59.94 
" clip-path="url(#p1fd8089903)" style="fill: none; stroke: #000000; stroke-width: 2; stroke-linejoin: miter"/>
   </g>
   <g id="patch_8">
    <path d="M 384.75 70.74 
C 386.18162 70.74 387.556069 69.601369 388.568377 67.576753 
C 389.580685 65.552137 390.15 62.80324 390.15 59.94 
C 390.15 57.07676 389.580685 54.327863 388.568377 52.303247 
C 387.556069 50.278631 386.18162 49.14 384.75 49.14 
" clip-path="url(#p1fd8089903)" style="fill: none; stroke: #000000; stroke-width: 2; stroke-linejoin: miter"/>
   </g>
   <g id="line2d_1">
    <path d="M 46.35 117.54 
L 46.35 131.94 
L 37.35 131.94 
L 55.35 131.94 
M 40.05 136.26 
L 52.65 136.26 
M 44.55 140.58 
L 48.15 140.58 
" clip-path="url(#p1fd8089903)" style="fill: none; stroke: #000000; stroke-width: 2; stroke-linecap: round"/>
   </g>
   <g id="line2d_2">
    <path d="M 46.35 117.54 
L 46.35 99.54 
L 46.35 99.54 
M 46.35 63.54 
L 46.35 63.54 
L 46.35 45.54 
" clip-path="url(#p1fd8089903)" style="fill: none; stroke: #000000; stroke-width: 2; stroke-linecap: round"/>
   </g>
   <g id="line2d_3">
    <path d="M 55.35 81.54 
L 54.6 79.676503 
L 53.85 77.94 
L 53.1 76.448831 
L 52.35 75.304617 
L 51.6 74.585334 
L 50.85 74.34 
L 50.1 74.585334 
L 49.35 75.304617 
L 48.6 76.448831 
L 47.85 77.94 
L 47.1 79.676503 
L 46.35 81.54 
L 45.6 83.403497 
L 44.85 85.14 
L 44.1 86.631169 
L 43.35 87.775383 
L 42.6 88.494666 
L 41.85 88.74 
L 41.1 88.494666 
L 40.35 87.775383 
L 39.6 86.631169 
L 38.85 85.14 
L 38.1 83.403497 
L 37.35 81.54 
" clip-path="url(#p1fd8089903)" style="fill: none; stroke: #000000; stroke-width: 2; stroke-linecap: round"/>
   </g>
   <g id="line2d_4">
    <path d="M 46.35 45.54 
L 64.35 45.54 
L 82.35 45.54 
" clip-path="url(#p1fd8089903)" style="fill: none; stroke: #000000; stroke-width: 2; stroke-linecap: round"/>
   </g>
   <g id="line2d_5">
    <path d="M 82.35 45.54 
L 82.35 52.74 
L 82.35 59.94 
" clip-path="url(#p1fd8089903)" style="fill: none; stroke: #000000; stroke-width: 2; stroke-linecap: round"/>
   </g>
   <g id="line2d_6">
    <path d="M 82.35 59.94 
L 103.95 59.94 
M 246.15 59.94 
L 262.35 59.94 
" clip-path="url(#p1fd8089903)" style="fill: none; stroke: #000000; stroke-width: 2; stroke-linecap: round"/>
   </g>
   <g id="line2d_7">
    <path d="M 103.95 49.14 
L 240.75 49.14 
" clip-path="url(#p1fd8089903)" style="fill: none; stroke: #000000; stroke-width: 2; stroke-linecap: round"/>
   </g>
   <g id="line2d_8">
    <path d="M 103.95 70.74 
L 240.75 70.74 
" clip-path="url(#p1fd8089903)" style="fill: none; stroke: #000000; stroke-width: 2; stroke-linecap: round"/>
   </g>
   <g id="line2d_9">
    <path d="M 262.35 59.94 
L 262.35 81.54 
M 262.35 187.74 
L 262.35 203.94 
" clip-path="url(#p1fd8089903)" style="fill: none; stroke: #000000; stroke-width: 2; stroke-linecap: round"/>
   </g>
   <g id="line2d_10">
    <path d="M 273.15 81.54 
L 273.15 182.34 
" clip-path="url(#p1fd8089903)" style="fill: none; stroke: #000000; stroke-width: 2; stroke-linecap: round"/>
   </g>
   <g id="line2d_11">
    <path d="M 251.55 81.54 
L 251.55 182.34 
" clip-path="url(#p1fd8089903)" style="fill: none; stroke: #000000; stroke-width: 2; stroke-linecap: round"/>
   </g>
   <g id="line2d_12">
    <path d="M 240.75 70.74 
L 240.75 76.14 
L 240.75 81.54 
" clip-path="url(#p1fd8089903)" style="fill: none; stroke: #000000; stroke-width: 2; stroke-linecap: round"/>
   </g>
   <g id="line2d_13">
    <path d="M 240.75 81.54 
L 246.15 81.54 
L 251.55 81.54 
" clip-path="url(#p1fd8089903)" style="fill: none; stroke: #000000; stroke-width: 2; stroke-linecap: round"/>
   </g>
   <g id="line2d_14">
    <path d="M 262.35 59.94 
L 283.95 59.94 
M 390.15 59.94 
L 406.35 59.94 
" clip-path="url(#p1fd8089903)" style="fill: none; stroke: #000000; stroke-width: 2; stroke-linecap: round"/>
   </g>
   <g id="line2d_15">
    <path d="M 283.95 49.14 
L 384.75 49.14 
" clip-path="url(#p1fd8089903)" style="fill: none; stroke: #000000; stroke-width: 2; stroke-linecap: round"/>
   </g>
   <g id="line2d_16">
    <path d="M 283.95 70.74 
L 384.75 70.74 
" clip-path="url(#p1fd8089903)" style="fill: none; stroke: #000000; stroke-width: 2; stroke-linecap: round"/>
   </g>
   <g id="line2d_17">
    <path d="M 406.35 59.94 
L 424.35 59.94 
L 442.35 59.94 
" clip-path="url(#p1fd8089903)" style="fill: none; stroke: #000000; stroke-width: 2; stroke-linecap: round"/>
   </g>
   <g id="line2d_18">
    <path d="M 442.35 59.94 
L 442.35 95.94 
L 451.35 98.94 
L 433.35 104.94 
L 451.35 110.94 
L 433.35 116.94 
L 451.35 122.94 
L 433.35 128.94 
L 442.35 131.94 
L 442.35 167.94 
" clip-path="url(#p1fd8089903)" style="fill: none; stroke: #000000; stroke-width: 2; stroke-linecap: round"/>
   </g>
   <g id="line2d_19">
    <path d="M 442.35 59.94 
L 478.35 59.94 
L 514.35 59.94 
" clip-path="url(#p1fd8089903)" style="fill: none; stroke: #000000; stroke-width: 2; stroke-linecap: round"/>
   </g>
   <g id="line2d_20">
    <path d="M 514.35 59.94 
L 514.35 110.7 
M 523.35 110.7 
L 505.35 110.7 
M 523.35 117.18 
L 505.35 117.18 
M 514.35 117.18 
L 514.35 167.94 
" clip-path="url(#p1fd8089903)" style="fill: none; stroke: #000000; stroke-width: 2; stroke-linecap: round"/>
   </g>
   <g id="line2d_21">
    <path d="M 514.35 167.94 
L 478.35 167.94 
L 442.35 167.94 
" clip-path="url(#p1fd8089903)" style="fill: none; stroke: #000000; stroke-width: 2; stroke-linecap: round"/>
   </g>
   <g id="line2d_22">
    <path d="M 384.75 70.74 
L 384.75 119.34 
L 384.75 167.94 
" clip-path="url(#p1fd8089903)" style="fill: none; stroke: #000000; stroke-width: 2; stroke-linecap: round"/>
   </g>
   <g id="line2d_23">
    <path d="M 384.75 167.94 
L 413.55 167.94 
L 442.35 167.94 
" clip-path="url(#p1fd8089903)" style="fill: none; stroke: #000000; stroke-width: 2; stroke-linecap: round"/>
   </g>
   <g id="line2d_24">
    <path d="M 240.75 49.14 
L 240.75 31.14 
L 240.75 13.14 
" clip-path="url(#p1fd8089903)" style="fill: none; stroke: #000000; stroke-width: 2; stroke-linecap: round"/>
   </g>
   <g id="line2d_25">
    <path d="M 240.75 13.14 
L 262.35 13.14 
L 283.95 13.14 
" clip-path="url(#p1fd8089903)" style="fill: none; stroke: #000000; stroke-width: 2; stroke-linecap: round"/>
   </g>
   <g id="line2d_26">
    <path d="M 283.95 13.14 
L 283.95 31.14 
L 283.95 49.14 
" clip-path="url(#p1fd8089903)" style="fill: none; stroke: #000000; stroke-width: 2; stroke-linecap: round"/>
   </g>
   <g id="line2d_27">
    <path d="M 46.35 117.54 
L 75.15 117.54 
L 103.95 117.54 
" clip-path="url(#p1fd8089903)" style="fill: none; stroke: #000000; stroke-width: 2; stroke-linecap: round"/>
   </g>
   <g id="line2d_28">
    <path d="M 103.95 117.54 
L 103.95 94.14 
L 103.95 70.74 
" clip-path="url(#p1fd8089903)" style="fill: none; stroke: #000000; stroke-width: 2; stroke-linecap: round"/>
   </g>
   <g id="text_1">
    <!-- $V_{in}$ -->
    <g transform="translate(7.875 84.989219) scale(0.125 -0.125)">
     <defs>
      <path id="DejaVuSans-Oblique-56" d="M 1319 0 
L 500 4666 
L 1119 4666 
L 1797 653 
L 4063 4666 
L 4750 4666 
L 2053 0 
L 1319 0 
z
" transform="scale(0.015625)"/>
      <path id="DejaVuSans-Oblique-69" d="M 1172 4863 
L 1747 4863 
L 1606 4134 
L 1031 4134 
L 1172 4863 
z
M 909 3500 
L 1484 3500 
L 800 0 
L 225 0 
L 909 3500 
z
" transform="scale(0.015625)"/>
      <path id="DejaVuSans-Oblique-6e" d="M 3566 2113 
L 3156 0 
L 2578 0 
L 2988 2091 
Q 3016 2238 3031 2350 
Q 3047 2463 3047 2528 
Q 3047 2791 2881 2937 
Q 2716 3084 2419 3084 
Q 1956 3084 1622 2776 
Q 1288 2469 1184 1941 
L 800 0 
L 225 0 
L 903 3500 
L 1478 3500 
L 1363 2950 
Q 1603 3253 1940 3418 
Q 2278 3584 2650 3584 
Q 3113 3584 3367 3334 
Q 3622 3084 3622 2631 
Q 3622 2519 3608 2391 
Q 3594 2263 3566 2113 
z
" transform="scale(0.015625)"/>
     </defs>
     <use xlink:href="#DejaVuSans-Oblique-56" transform="translate(0 0.09375)"/>
     <use xlink:href="#DejaVuSans-Oblique-69" transform="translate(68.408203 -16.3125) scale(0.7)"/>
     <use xlink:href="#DejaVuSans-Oblique-6e" transform="translate(87.856445 -16.3125) scale(0.7)"/>
    </g>
   </g>
   <g id="text_2">
    <!-- $64\Omega$ -->
    <g transform="translate(159.6 42.940391) scale(0.125 -0.125)">
     <defs>
      <path id="DejaVuSans-36" d="M 2113 2584 
Q 1688 2584 1439 2293 
Q 1191 2003 1191 1497 
Q 1191 994 1439 701 
Q 1688 409 2113 409 
Q 2538 409 2786 701 
Q 3034 994 3034 1497 
Q 3034 2003 2786 2293 
Q 2538 2584 2113 2584 
z
M 3366 4563 
L 3366 3988 
Q 3128 4100 2886 4159 
Q 2644 4219 2406 4219 
Q 1781 4219 1451 3797 
Q 1122 3375 1075 2522 
Q 1259 2794 1537 2939 
Q 1816 3084 2150 3084 
Q 2853 3084 3261 2657 
Q 3669 2231 3669 1497 
Q 3669 778 3244 343 
Q 2819 -91 2113 -91 
Q 1303 -91 875 529 
Q 447 1150 447 2328 
Q 447 3434 972 4092 
Q 1497 4750 2381 4750 
Q 2619 4750 2861 4703 
Q 3103 4656 3366 4563 
z
" transform="scale(0.015625)"/>
      <path id="DejaVuSans-34" d="M 2419 4116 
L 825 1625 
L 2419 1625 
L 2419 4116 
z
M 2253 4666 
L 3047 4666 
L 3047 1625 
L 3713 1625 
L 3713 1100 
L 3047 1100 
L 3047 0 
L 2419 0 
L 2419 1100 
L 313 1100 
L 313 1709 
L 2253 4666 
z
" transform="scale(0.015625)"/>
      <path id="DejaVuSans-3a9" d="M 4647 556 
L 4647 0 
L 2772 0 
L 2772 556 
Q 3325 859 3634 1378 
Q 3944 1897 3944 2528 
Q 3944 3278 3531 3731 
Q 3119 4184 2444 4184 
Q 1769 4184 1355 3729 
Q 941 3275 941 2528 
Q 941 1897 1250 1378 
Q 1563 859 2119 556 
L 2119 0 
L 244 0 
L 244 556 
L 1241 556 
Q 747 991 519 1456 
Q 294 1922 294 2497 
Q 294 3491 894 4106 
Q 1491 4722 2444 4722 
Q 3391 4722 3994 4106 
Q 4594 3494 4594 2528 
Q 4594 1922 4372 1459 
Q 4150 997 3647 556 
L 4647 556 
z
" transform="scale(0.015625)"/>
     </defs>
     <use xlink:href="#DejaVuSans-36" transform="translate(0 0.78125)"/>
     <use xlink:href="#DejaVuSans-34" transform="translate(63.623047 0.78125)"/>
     <use xlink:href="#DejaVuSans-3a9" transform="translate(127.246094 0.78125)"/>
    </g>
   </g>
   <g id="text_3">
    <!-- $64\Omega$ -->
    <g transform="translate(222.45 135.389219) scale(0.125 -0.125)">
     <use xlink:href="#DejaVuSans-36" transform="translate(0 0.78125)"/>
     <use xlink:href="#DejaVuSans-34" transform="translate(63.623047 0.78125)"/>
     <use xlink:href="#DejaVuSans-3a9" transform="translate(127.246094 0.78125)"/>
    </g>
   </g>
   <g id="text_4">
    <!-- 41.0 mm -->
    <g transform="translate(276.75 135.389219) scale(0.125 -0.125)">
     <defs>
      <path id="DejaVuSans-31" d="M 794 531 
L 1825 531 
L 1825 4091 
L 703 3866 
L 703 4441 
L 1819 4666 
L 2450 4666 
L 2450 531 
L 3481 531 
L 3481 0 
L 794 0 
L 794 531 
z
" transform="scale(0.015625)"/>
      <path id="DejaVuSans-2e" d="M 684 794 
L 1344 794 
L 1344 0 
L 684 0 
L 684 794 
z
" transform="scale(0.015625)"/>
      <path id="DejaVuSans-30" d="M 2034 4250 
Q 1547 4250 1301 3770 
Q 1056 3291 1056 2328 
Q 1056 1369 1301 889 
Q 1547 409 2034 409 
Q 2525 409 2770 889 
Q 3016 1369 3016 2328 
Q 3016 3291 2770 3770 
Q 2525 4250 2034 4250 
z
M 2034 4750 
Q 2819 4750 3233 4129 
Q 3647 3509 3647 2328 
Q 3647 1150 3233 529 
Q 2819 -91 2034 -91 
Q 1250 -91 836 529 
Q 422 1150 422 2328 
Q 422 3509 836 4129 
Q 1250 4750 2034 4750 
z
" transform="scale(0.015625)"/>
      <path id="DejaVuSans-20" transform="scale(0.015625)"/>
      <path id="DejaVuSans-6d" d="M 3328 2828 
Q 3544 3216 3844 3400 
Q 4144 3584 4550 3584 
Q 5097 3584 5394 3201 
Q 5691 2819 5691 2113 
L 5691 0 
L 5113 0 
L 5113 2094 
Q 5113 2597 4934 2840 
Q 4756 3084 4391 3084 
Q 3944 3084 3684 2787 
Q 3425 2491 3425 1978 
L 3425 0 
L 2847 0 
L 2847 2094 
Q 2847 2600 2669 2842 
Q 2491 3084 2119 3084 
Q 1678 3084 1418 2786 
Q 1159 2488 1159 1978 
L 1159 0 
L 581 0 
L 581 3500 
L 1159 3500 
L 1159 2956 
Q 1356 3278 1631 3431 
Q 1906 3584 2284 3584 
Q 2666 3584 2933 3390 
Q 3200 3197 3328 2828 
z
" transform="scale(0.015625)"/>
     </defs>
     <use xlink:href="#DejaVuSans-34"/>
     <use xlink:href="#DejaVuSans-31" x="63.623047"/>
     <use xlink:href="#DejaVuSans-2e" x="127.246094"/>
     <use xlink:href="#DejaVuSans-30" x="159.033203"/>
     <use xlink:href="#DejaVuSans-20" x="222.65625"/>
     <use xlink:href="#DejaVuSans-6d" x="254.443359"/>
     <use xlink:href="#DejaVuSans-6d" x="351.855469"/>
    </g>
   </g>
   <g id="text_5">
    <!-- $64\Omega$ -->
    <g transform="translate(321.6 42.940391) scale(0.125 -0.125)">
     <use xlink:href="#DejaVuSans-36" transform="translate(0 0.78125)"/>
     <use xlink:href="#DejaVuSans-34" transform="translate(63.623047 0.78125)"/>
     <use xlink:href="#DejaVuSans-3a9" transform="translate(127.246094 0.78125)"/>
    </g>
   </g>
   <g id="text_6">
    <!-- 41.0 mm -->
    <g transform="translate(306.271875 83.838047) scale(0.125 -0.125)">
     <use xlink:href="#DejaVuSans-34"/>
     <use xlink:href="#DejaVuSans-31" x="63.623047"/>
     <use xlink:href="#DejaVuSans-2e" x="127.246094"/>
     <use xlink:href="#DejaVuSans-30" x="159.033203"/>
     <use xlink:href="#DejaVuSans-20" x="222.65625"/>
     <use xlink:href="#DejaVuSans-6d" x="254.443359"/>
     <use xlink:href="#DejaVuSans-6d" x="351.855469"/>
    </g>
   </g>
   <g id="text_7">
    <!-- 32Ω -->
    <g transform="translate(404.291016 117.389219) scale(0.125 -0.125)">
     <defs>
      <path id="DejaVuSans-33" d="M 2597 2516 
Q 3050 2419 3304 2112 
Q 3559 1806 3559 1356 
Q 3559 666 3084 287 
Q 2609 -91 1734 -91 
Q 1441 -91 1130 -33 
Q 819 25 488 141 
L 488 750 
Q 750 597 1062 519 
Q 1375 441 1716 441 
Q 2309 441 2620 675 
Q 2931 909 2931 1356 
Q 2931 1769 2642 2001 
Q 2353 2234 1838 2234 
L 1294 2234 
L 1294 2753 
L 1863 2753 
Q 2328 2753 2575 2939 
Q 2822 3125 2822 3475 
Q 2822 3834 2567 4026 
Q 2313 4219 1838 4219 
Q 1578 4219 1281 4162 
Q 984 4106 628 3988 
L 628 4550 
Q 988 4650 1302 4700 
Q 1616 4750 1894 4750 
Q 2613 4750 3031 4423 
Q 3450 4097 3450 3541 
Q 3450 3153 3228 2886 
Q 3006 2619 2597 2516 
z
" transform="scale(0.015625)"/>
      <path id="DejaVuSans-32" d="M 1228 531 
L 3431 531 
L 3431 0 
L 469 0 
L 469 531 
Q 828 903 1448 1529 
Q 2069 2156 2228 2338 
Q 2531 2678 2651 2914 
Q 2772 3150 2772 3378 
Q 2772 3750 2511 3984 
Q 2250 4219 1831 4219 
Q 1534 4219 1204 4116 
Q 875 4013 500 3803 
L 500 4441 
Q 881 4594 1212 4672 
Q 1544 4750 1819 4750 
Q 2544 4750 2975 4387 
Q 3406 4025 3406 3419 
Q 3406 3131 3298 2873 
Q 3191 2616 2906 2266 
Q 2828 2175 2409 1742 
Q 1991 1309 1228 531 
z
" transform="scale(0.015625)"/>
     </defs>
     <use xlink:href="#DejaVuSans-33"/>
     <use xlink:href="#DejaVuSans-32" x="63.623047"/>
     <use xlink:href="#DejaVuSans-3a9" x="127.246094"/>
    </g>
   </g>
   <g id="text_8">
    <!-- 5pF -->
    <g transform="translate(478.671875 117.389219) scale(0.125 -0.125)">
     <defs>
      <path id="DejaVuSans-35" d="M 691 4666 
L 3169 4666 
L 3169 4134 
L 1269 4134 
L 1269 2991 
Q 1406 3038 1543 3061 
Q 1681 3084 1819 3084 
Q 2600 3084 3056 2656 
Q 3513 2228 3513 1497 
Q 3513 744 3044 326 
Q 2575 -91 1722 -91 
Q 1428 -91 1123 -41 
Q 819 9 494 109 
L 494 744 
Q 775 591 1075 516 
Q 1375 441 1709 441 
Q 2250 441 2565 725 
Q 2881 1009 2881 1497 
Q 2881 1984 2565 2268 
Q 2250 2553 1709 2553 
Q 1456 2553 1204 2497 
Q 953 2441 691 2322 
L 691 4666 
z
" transform="scale(0.015625)"/>
      <path id="DejaVuSans-70" d="M 1159 525 
L 1159 -1331 
L 581 -1331 
L 581 3500 
L 1159 3500 
L 1159 2969 
Q 1341 3281 1617 3432 
Q 1894 3584 2278 3584 
Q 2916 3584 3314 3078 
Q 3713 2572 3713 1747 
Q 3713 922 3314 415 
Q 2916 -91 2278 -91 
Q 1894 -91 1617 61 
Q 1341 213 1159 525 
z
M 3116 1747 
Q 3116 2381 2855 2742 
Q 2594 3103 2138 3103 
Q 1681 3103 1420 2742 
Q 1159 2381 1159 1747 
Q 1159 1113 1420 752 
Q 1681 391 2138 391 
Q 2594 391 2855 752 
Q 3116 1113 3116 1747 
z
" transform="scale(0.015625)"/>
      <path id="DejaVuSans-46" d="M 628 4666 
L 3309 4666 
L 3309 4134 
L 1259 4134 
L 1259 2759 
L 3109 2759 
L 3109 2228 
L 1259 2228 
L 1259 0 
L 628 0 
L 628 4666 
z
" transform="scale(0.015625)"/>
     </defs>
     <use xlink:href="#DejaVuSans-35"/>
     <use xlink:href="#DejaVuSans-70" x="63.623047"/>
     <use xlink:href="#DejaVuSans-46" x="127.099609"/>
    </g>
   </g>
   <g id="patch_9">
    <path d="M 46.35 120.24 
C 47.066048 120.24 47.752866 119.955511 48.259188 119.449188 
C 48.765511 118.942866 49.05 118.256048 49.05 117.54 
C 49.05 116.823952 48.765511 116.137134 48.259188 115.630812 
C 47.752866 115.124489 47.066048 114.84 46.35 114.84 
C 45.633952 114.84 44.947134 115.124489 44.440812 115.630812 
C 43.934489 116.137134 43.65 116.823952 43.65 117.54 
C 43.65 118.256048 43.934489 118.942866 44.440812 119.449188 
C 44.947134 119.955511 45.633952 120.24 46.35 120.24 
z
" clip-path="url(#p1fd8089903)" style="stroke: #000000; stroke-width: 2; stroke-linejoin: miter"/>
   </g>
   <g id="patch_10">
    <path d="M 262.35 62.64 
C 263.066048 62.64 263.752866 62.355511 264.259188 61.849188 
C 264.765511 61.342866 265.05 60.656048 265.05 59.94 
C 265.05 59.223952 264.765511 58.537134 264.259188 58.030812 
C 263.752866 57.524489 263.066048 57.24 262.35 57.24 
C 261.633952 57.24 260.947134 57.524489 260.440812 58.030812 
C 259.934489 58.537134 259.65 59.223952 259.65 59.94 
C 259.65 60.656048 259.934489 61.342866 260.440812 61.849188 
C 260.947134 62.355511 261.633952 62.64 262.35 62.64 
z
" clip-path="url(#p1fd8089903)" style="fill: #008000; stroke: #008000; stroke-width: 2; stroke-linejoin: miter"/>
   </g>
   <g id="patch_11">
    <path d="M 406.35 62.64 
C 407.066048 62.64 407.752866 62.355511 408.259188 61.849188 
C 408.765511 61.342866 409.05 60.656048 409.05 59.94 
C 409.05 59.223952 408.765511 58.537134 408.259188 58.030812 
C 407.752866 57.524489 407.066048 57.24 406.35 57.24 
C 405.633952 57.24 404.947134 57.524489 404.440812 58.030812 
C 403.934489 58.537134 403.65 59.223952 403.65 59.94 
C 403.65 60.656048 403.934489 61.342866 404.440812 61.849188 
C 404.947134 62.355511 405.633952 62.64 406.35 62.64 
z
" clip-path="url(#p1fd8089903)" style="fill: #ff0000; stroke: #ff0000; stroke-width: 2; stroke-linejoin: miter"/>
   </g>
  </g>
 </g>
 <defs>
  <clipPath id="p1fd8089903">
   <rect x="3.6" y="3.6" width="544.5" height="209.88"/>
  </clipPath>
 </defs>
</svg>