<?xml version="1.0" encoding="utf-8" standalone="no"?>
<!DOCTYPE svg PUBLIC "-//W3C//DTD SVG 1.1//EN"
  "http://www.w3.org/Graphics/SVG/1.1/DTD/svg11.dtd">
<svg xmlns:xlink="http://www.w3.org/1999/xlink" width="261.36pt" height="471.972pt" viewBox="0 0 261.36 471.972" xmlns="http://www.w3.org/2000/svg" version="1.1">
 <metadata>
  <rdf:RDF xmlns:dc="http://purl.org/dc/elements/1.1/" xmlns:cc="http://creativecommons.org/ns#" xmlns:rdf="http://www.w3.org/1999/02/22-rdf-syntax-ns#">
   <cc:Work>
    <dc:type rdf:resource="http://purl.org/dc/dcmitype/StillImage"/>
    <dc:date>2023-09-26T21:43:44.620644</dc:date>
    <dc:format>image/svg+xml</dc:format>
    <dc:creator>
     <cc:Agent>
      <dc:title>Matplotlib v3.6.3, https://matplotlib.org/</dc:title>
     </cc:Agent>
    </dc:creator>
   </cc:Work>
  </rdf:RDF>
 </metadata>
 <defs>
  <style type="text/css">*{stroke-linejoin: round; stroke-linecap: butt}</style>
 </defs>
 <g id="figure_1">
  <g id="patch_1">
   <path d="M 0 471.972 
L 261.36 471.972 
L 261.36 0 
L 0 0 
z
" style="fill: #ffffff"/>
  </g>
  <g id="axes_1">
   <g id="patch_2">
    <path d="M 31.275 379.206 
C 33.661828 379.206 35.951219 378.257703 37.638961 376.569961 
C 39.326703 374.882219 40.275 372.592828 40.275 370.206 
C 40.275 367.819172 39.326703 365.529781 37.638961 363.842039 
C 35.951219 362.154297 33.661828 361.206 31.275 361.206 
C 28.888172 361.206 26.598781 362.154297 24.911039 363.842039 
C 23.223297 365.529781 22.275 367.819172 22.275 370.206 
C 22.275 372.592828 23.223297 374.882219 24.911039 376.569961 
C 26.598781 378.257703 28.888172 379.206 31.275 379.206 
L 31.275 379.206 
z
" clip-path="url(#pc5835cb335)" style="fill: none; stroke: #000000; stroke-width: 2; stroke-linejoin: miter"/>
   </g>
   <g id="line2d_1">
    <path d="M 139.275 316.206 
L 152.475 316.206 
" clip-path="url(#pc5835cb335)" style="fill: none; stroke: #000000; stroke-width: 2; stroke-linecap: round"/>
   </g>
   <g id="line2d_2">
    <path d="M 152.475 303.006 
L 152.475 329.406 
" clip-path="url(#pc5835cb335)" style="fill: none; stroke: #000000; stroke-width: 2; stroke-linecap: round"/>
   </g>
   <g id="line2d_3">
    <path d="M 152.475 309.606 
L 166.335 297.726 
L 166.335 291.126 
" clip-path="url(#pc5835cb335)" style="fill: none; stroke: #000000; stroke-width: 2; stroke-linecap: round"/>
   </g>
   <g id="line2d_4">
    <path d="M 152.475 322.806 
L 166.335 334.686 
L 166.335 341.286 
" clip-path="url(#pc5835cb335)" style="fill: none; stroke: #000000; stroke-width: 2; stroke-linecap: round"/>
   </g>
   <g id="line2d_5">
    <path d="M 152.475 322.806 
L 159.501691 328.828878 
" clip-path="url(#pc5835cb335)" style="fill: none; stroke: #000000; stroke-width: 2; stroke-linecap: round"/>
   </g>
   <g id="patch_3">
    <path d="M 161.84454 326.095554 
L 166.335 334.686 
L 157.158842 331.562201 
z
" clip-path="url(#pc5835cb335)"/>
   </g>
   <g id="line2d_6">
    <path d="M 139.275 316.206 
L 103.275 316.206 
L 100.275 325.206 
L 94.275 307.206 
L 88.275 325.206 
L 82.275 307.206 
L 76.275 325.206 
L 70.275 307.206 
L 67.275 316.206 
L 31.275 316.206 
" clip-path="url(#pc5835cb335)" style="fill: none; stroke: #000000; stroke-width: 2; stroke-linecap: round"/>
   </g>
   <g id="line2d_7">
    <path d="M 31.275 316.206 
L 31.275 361.206 
L 31.275 361.206 
M 31.275 379.206 
L 31.275 379.206 
L 31.275 424.206 
" clip-path="url(#pc5835cb335)" style="fill: none; stroke: #000000; stroke-width: 2; stroke-linecap: round"/>
   </g>
   <g id="line2d_8">
    <path d="M 29.475 365.706 
L 33.075 365.706 
" clip-path="url(#pc5835cb335)" style="fill: none; stroke: #000000; stroke-width: 2; stroke-linecap: round"/>
   </g>
   <g id="line2d_9">
    <path d="M 31.275 372.906 
L 31.275 376.506 
" clip-path="url(#pc5835cb335)" style="fill: none; stroke: #000000; stroke-width: 2; stroke-linecap: round"/>
   </g>
   <g id="line2d_10">
    <path d="M 29.475 374.706 
L 33.075 374.706 
" clip-path="url(#pc5835cb335)" style="fill: none; stroke: #000000; stroke-width: 2; stroke-linecap: round"/>
   </g>
   <g id="line2d_11">
    <path d="M 31.275 424.206 
L 98.805 424.206 
L 166.335 424.206 
" clip-path="url(#pc5835cb335)" style="fill: none; stroke: #000000; stroke-width: 2; stroke-linecap: round"/>
   </g>
   <g id="line2d_12">
    <path d="M 166.335 424.206 
L 166.335 438.606 
L 157.335 438.606 
L 175.335 438.606 
M 160.035 442.926 
L 172.635 442.926 
M 164.535 447.246 
L 168.135 447.246 
" clip-path="url(#pc5835cb335)" style="fill: none; stroke: #000000; stroke-width: 2; stroke-linecap: round"/>
   </g>
   <g id="line2d_13">
    <path d="M 166.335 424.206 
L 166.335 382.746 
L 166.335 341.286 
" clip-path="url(#pc5835cb335)" style="fill: none; stroke: #000000; stroke-width: 2; stroke-linecap: round"/>
   </g>
   <g id="line2d_14">
    <path d="M 166.335 291.126 
L 166.335 277.626 
L 166.335 264.126 
" clip-path="url(#pc5835cb335)" style="fill: none; stroke: #000000; stroke-width: 2; stroke-linecap: round"/>
   </g>
   <g id="line2d_15">
    <path d="M 166.335 264.126 
L 166.335 213.366 
M 157.335 213.366 
L 175.335 213.366 
M 157.335 206.886 
L 175.335 206.886 
M 166.335 206.886 
L 166.335 156.126 
" clip-path="url(#pc5835cb335)" style="fill: none; stroke: #000000; stroke-width: 2; stroke-linecap: round"/>
   </g>
   <g id="line2d_16">
    <path d="M 166.335 264.126 
L 143.835 264.126 
L 121.335 264.126 
" clip-path="url(#pc5835cb335)" style="fill: none; stroke: #000000; stroke-width: 2; stroke-linecap: round"/>
   </g>
   <g id="line2d_17">
    <path d="M 121.335 264.126 
L 121.335 228.126 
L 118.370813 227.99193 
L 115.379893 227.58424 
L 112.613083 226.911999 
L 110.302432 226.006462 
L 109.380692 225.481433 
L 108.641729 224.918453 
L 108.101119 224.326233 
L 107.770256 223.714098 
L 107.656116 223.091793 
L 107.761102 222.46928 
L 108.083004 221.856522 
L 108.615035 221.263277 
L 109.345982 220.698894 
L 110.260436 220.172112 
L 112.559309 219.262175 
L 115.31885 218.584658 
L 118.30762 218.17126 
L 121.274957 218.031528 
L 123.971994 218.152058 
L 126.172535 218.497618 
L 127.692024 219.014102 
L 128.153989 219.315463 
L 128.403023 219.633072 
L 128.433878 219.957077 
L 128.245903 220.277491 
L 127.84306 220.584403 
L 126.431085 221.119708 
L 124.316374 221.492971 
L 121.676284 221.647764 
L 118.732236 221.545981 
L 115.731142 221.171037 
L 112.9247 220.529252 
L 110.548281 219.649329 
L 109.585506 219.134598 
L 108.801192 218.579943 
L 108.211869 217.993898 
L 107.829959 217.385658 
L 107.663513 216.764887 
L 107.716038 216.141513 
L 107.986428 215.525518 
L 108.468983 214.926729 
L 109.153532 214.35461 
L 110.025645 213.818065 
L 112.255471 212.883379 
L 114.971447 212.17594 
L 117.945789 211.729954 
L 120.929044 211.557703 
L 123.67101 211.64851 
L 125.941723 211.969635 
L 127.550742 212.469023 
L 128.062431 212.765064 
L 128.36312 213.079668 
L 128.446471 213.403048 
L 128.310725 213.725232 
L 127.958746 214.036269 
L 127.397952 214.326449 
L 125.701352 214.807772 
L 123.363218 215.103711 
L 120.579645 215.164322 
L 117.584087 214.959398 
L 114.627776 214.481002 
L 111.958655 213.744134 
L 109.800578 212.785469 
L 108.971862 212.239629 
L 108.33454 211.660287 
L 107.902045 211.056498 
L 107.683495 210.437831 
L 107.683495 209.814169 
L 107.902045 209.195502 
L 108.33454 208.591713 
L 108.971862 208.012371 
L 109.800578 207.466531 
L 110.80322 206.96254 
L 113.242527 206.108935 
L 116.085202 205.498021 
L 119.092835 205.155913 
L 122.013178 205.086179 
L 124.601309 205.269543 
L 126.640163 205.665504 
L 127.958746 206.215731 
L 128.310725 206.526768 
L 128.446471 206.848952 
L 128.36312 207.172332 
L 128.062431 207.486936 
L 127.550742 207.782977 
L 125.941723 208.282365 
L 123.67101 208.60349 
L 120.929044 208.694297 
L 117.945789 208.522046 
L 114.971447 208.07606 
L 112.255471 207.368621 
L 110.025645 206.433935 
L 109.153532 205.89739 
L 108.468983 205.325271 
L 107.986428 204.726482 
L 107.716038 204.110487 
L 107.663513 203.487113 
L 107.829959 202.866342 
L 108.211869 202.258102 
L 108.801192 201.672057 
L 109.585506 201.117402 
L 110.548281 200.602671 
L 112.9247 199.722748 
L 115.731142 199.080963 
L 118.732236 198.706019 
L 121.676284 198.604236 
L 124.316374 198.759029 
L 126.431085 199.132292 
L 127.84306 199.667597 
L 128.245903 199.974509 
L 128.433878 200.294923 
L 128.403023 200.618928 
L 128.153989 200.936537 
L 127.692024 201.237898 
L 126.172535 201.754382 
L 123.971994 202.099942 
L 121.274957 202.220472 
L 118.30762 202.08074 
L 115.31885 201.667342 
L 112.559309 200.989825 
L 110.260436 200.079888 
L 109.345982 199.553106 
L 108.615035 198.988723 
L 108.083004 198.395478 
L 107.761102 197.78272 
L 107.656116 197.160207 
L 107.770256 196.537902 
L 108.101119 195.925767 
L 108.641729 195.333547 
L 109.380692 194.770567 
L 110.302432 194.245538 
L 112.613083 193.340001 
L 115.379893 192.66776 
L 118.370813 192.26007 
L 121.335 192.126 
L 121.335 156.126 
L 121.335 156.126 
" clip-path="url(#pc5835cb335)" style="fill: none; stroke: #000000; stroke-width: 2; stroke-linecap: round"/>
   </g>
   <g id="line2d_18">
    <path d="M 166.335 156.126 
L 166.335 105.366 
M 157.335 105.366 
L 175.335 105.366 
M 157.335 98.886 
L 175.335 98.886 
M 166.335 98.886 
L 166.335 48.126 
" clip-path="url(#pc5835cb335)" style="fill: none; stroke: #000000; stroke-width: 2; stroke-linecap: round"/>
   </g>
   <g id="line2d_19">
    <path d="M 166.335 156.126 
L 143.835 156.126 
L 121.335 156.126 
" clip-path="url(#pc5835cb335)" style="fill: none; stroke: #000000; stroke-width: 2; stroke-linecap: round"/>
   </g>
   <g id="line2d_20">
    <path d="M 121.335 156.126 
L 121.335 120.126 
L 118.370813 119.99193 
L 115.379893 119.58424 
L 112.613083 118.911999 
L 110.302432 118.006462 
L 109.380692 117.481433 
L 108.641729 116.918453 
L 108.101119 116.326233 
L 107.770256 115.714098 
L 107.656116 115.091793 
L 107.761102 114.46928 
L 108.083004 113.856522 
L 108.615035 113.263277 
L 109.345982 112.698894 
L 110.260436 112.172112 
L 112.559309 111.262175 
L 115.31885 110.584658 
L 118.30762 110.17126 
L 121.274957 110.031528 
L 123.971994 110.152058 
L 126.172535 110.497618 
L 127.692024 111.014102 
L 128.153989 111.315463 
L 128.403023 111.633072 
L 128.433878 111.957077 
L 128.245903 112.277491 
L 127.84306 112.584403 
L 126.431085 113.119708 
L 124.316374 113.492971 
L 121.676284 113.647764 
L 118.732236 113.545981 
L 115.731142 113.171037 
L 112.9247 112.529252 
L 110.548281 111.649329 
L 109.585506 111.134598 
L 108.801192 110.579943 
L 108.211869 109.993898 
L 107.829959 109.385658 
L 107.663513 108.764887 
L 107.716038 108.141513 
L 107.986428 107.525518 
L 108.468983 106.926729 
L 109.153532 106.35461 
L 110.025645 105.818065 
L 112.255471 104.883379 
L 114.971447 104.17594 
L 117.945789 103.729954 
L 120.929044 103.557703 
L 123.67101 103.64851 
L 125.941723 103.969635 
L 127.550742 104.469023 
L 128.062431 104.765064 
L 128.36312 105.079668 
L 128.446471 105.403048 
L 128.310725 105.725232 
L 127.958746 106.036269 
L 127.397952 106.326449 
L 125.701352 106.807772 
L 123.363218 107.103711 
L 120.579645 107.164322 
L 117.584087 106.959398 
L 114.627776 106.481002 
L 111.958655 105.744134 
L 109.800578 104.785469 
L 108.971862 104.239629 
L 108.33454 103.660287 
L 107.902045 103.056498 
L 107.683495 102.437831 
L 107.683495 101.814169 
L 107.902045 101.195502 
L 108.33454 100.591713 
L 108.971862 100.012371 
L 109.800578 99.466531 
L 110.80322 98.96254 
L 113.242527 98.108935 
L 116.085202 97.498021 
L 119.092835 97.155913 
L 122.013178 97.086179 
L 124.601309 97.269543 
L 126.640163 97.665504 
L 127.958746 98.215731 
L 128.310725 98.526768 
L 128.446471 98.848952 
L 128.36312 99.172332 
L 128.062431 99.486936 
L 127.550742 99.782977 
L 125.941723 100.282365 
L 123.67101 100.60349 
L 120.929044 100.694297 
L 117.945789 100.522046 
L 114.971447 100.07606 
L 112.255471 99.368621 
L 110.025645 98.433935 
L 109.153532 97.89739 
L 108.468983 97.325271 
L 107.986428 96.726482 
L 107.716038 96.110487 
L 107.663513 95.487113 
L 107.829959 94.866342 
L 108.211869 94.258102 
L 108.801192 93.672057 
L 109.585506 93.117402 
L 110.548281 92.602671 
L 112.9247 91.722748 
L 115.731142 91.080963 
L 118.732236 90.706019 
L 121.676284 90.604236 
L 124.316374 90.759029 
L 126.431085 91.132292 
L 127.84306 91.667597 
L 128.245903 91.974509 
L 128.433878 92.294923 
L 128.403023 92.618928 
L 128.153989 92.936537 
L 127.692024 93.237898 
L 126.172535 93.754382 
L 123.971994 94.099942 
L 121.274957 94.220472 
L 118.30762 94.08074 
L 115.31885 93.667342 
L 112.559309 92.989825 
L 110.260436 92.079888 
L 109.345982 91.553106 
L 108.615035 90.988723 
L 108.083004 90.395478 
L 107.761102 89.78272 
L 107.656116 89.160207 
L 107.770256 88.537902 
L 108.101119 87.925767 
L 108.641729 87.333547 
L 109.380692 86.770567 
L 110.302432 86.245538 
L 112.613083 85.340001 
L 115.379893 84.66776 
L 118.370813 84.26007 
L 121.335 84.126 
L 121.335 48.126 
L 121.335 48.126 
" clip-path="url(#pc5835cb335)" style="fill: none; stroke: #000000; stroke-width: 2; stroke-linecap: round"/>
   </g>
   <g id="line2d_21">
    <path d="M 166.335 156.126 
L 188.835 156.126 
L 211.335 156.126 
" clip-path="url(#pc5835cb335)" style="fill: none; stroke: #000000; stroke-width: 2; stroke-linecap: round"/>
   </g>
   <g id="line2d_22">
    <path d="M 211.335 156.126 
L 211.335 120.126 
L 202.335 117.126 
L 220.335 111.126 
L 202.335 105.126 
L 220.335 99.126 
L 202.335 93.126 
L 220.335 87.126 
L 211.335 84.126 
L 211.335 48.126 
" clip-path="url(#pc5835cb335)" style="fill: none; stroke: #000000; stroke-width: 2; stroke-linecap: round"/>
   </g>
   <g id="line2d_23">
    <path d="M 211.335 156.126 
L 220.335 156.126 
L 229.335 156.126 
" clip-path="url(#pc5835cb335)" style="fill: none; stroke: #000000; stroke-width: 2; stroke-linecap: round"/>
   </g>
   <g id="line2d_24">
    <path d="M 211.335 48.126 
L 188.835 48.126 
L 166.335 48.126 
" clip-path="url(#pc5835cb335)" style="fill: none; stroke: #000000; stroke-width: 2; stroke-linecap: round"/>
   </g>
   <g id="line2d_25">
    <path d="M 121.335 48.126 
L 143.835 48.126 
L 166.335 48.126 
" clip-path="url(#pc5835cb335)" style="fill: none; stroke: #000000; stroke-width: 2; stroke-linecap: round"/>
   </g>
   <g id="line2d_26">
    <path d="M 166.335 48.126 
L 166.335 43.626 
L 166.335 39.126 
" clip-path="url(#pc5835cb335)" style="fill: none; stroke: #000000; stroke-width: 2; stroke-linecap: round"/>
   </g>
   <g id="line2d_27">
    <path d="M 166.335 39.126 
L 166.335 24.726 
" clip-path="url(#pc5835cb335)" style="fill: none; stroke: #000000; stroke-width: 2; stroke-linecap: round"/>
   </g>
   <g id="line2d_28">
    <path d="M 166.335 24.726 
L 159.585 24.726 
" clip-path="url(#pc5835cb335)" style="fill: none; stroke: #000000; stroke-width: 2; stroke-linecap: round"/>
   </g>
   <g id="line2d_29">
    <path d="M 166.335 24.726 
L 173.085 24.726 
" clip-path="url(#pc5835cb335)" style="fill: none; stroke: #000000; stroke-width: 2; stroke-linecap: round"/>
   </g>
   <g id="text_1">
    <!-- $R_{in}$ -->
    <g transform="translate(76.7125 301.006391) scale(0.125 -0.125)">
     <defs>
      <path id="DejaVuSans-Oblique-52" d="M 1613 4147 
L 1294 2491 
L 2106 2491 
Q 2584 2491 2879 2755 
Q 3175 3019 3175 3444 
Q 3175 3784 2976 3965 
Q 2778 4147 2406 4147 
L 1613 4147 
z
M 2772 2241 
Q 2972 2194 3105 2009 
Q 3238 1825 3413 1275 
L 3809 0 
L 3144 0 
L 2778 1197 
Q 2638 1659 2453 1815 
Q 2269 1972 1888 1972 
L 1191 1972 
L 806 0 
L 172 0 
L 1081 4666 
L 2503 4666 
Q 3150 4666 3495 4373 
Q 3841 4081 3841 3531 
Q 3841 3044 3547 2687 
Q 3253 2331 2772 2241 
z
" transform="scale(0.015625)"/>
      <path id="DejaVuSans-Oblique-69" d="M 1172 4863 
L 1747 4863 
L 1606 4134 
L 1031 4134 
L 1172 4863 
z
M 909 3500 
L 1484 3500 
L 800 0 
L 225 0 
L 909 3500 
z
" transform="scale(0.015625)"/>
      <path id="DejaVuSans-Oblique-6e" d="M 3566 2113 
L 3156 0 
L 2578 0 
L 2988 2091 
Q 3016 2238 3031 2350 
Q 3047 2463 3047 2528 
Q 3047 2791 2881 2937 
Q 2716 3084 2419 3084 
Q 1956 3084 1622 2776 
Q 1288 2469 1184 1941 
L 800 0 
L 225 0 
L 903 3500 
L 1478 3500 
L 1363 2950 
Q 1603 3253 1940 3418 
Q 2278 3584 2650 3584 
Q 3113 3584 3367 3334 
Q 3622 3084 3622 2631 
Q 3622 2519 3608 2391 
Q 3594 2263 3566 2113 
z
" transform="scale(0.015625)"/>
     </defs>
     <use xlink:href="#DejaVuSans-Oblique-52" transform="translate(0 0.09375)"/>
     <use xlink:href="#DejaVuSans-Oblique-69" transform="translate(69.482422 -16.3125) scale(0.7)"/>
     <use xlink:href="#DejaVuSans-Oblique-6e" transform="translate(88.930664 -16.3125) scale(0.7)"/>
    </g>
   </g>
   <g id="text_2">
    <!-- $V_{in}$ -->
    <g transform="translate(3.6 373.655219) scale(0.125 -0.125)">
     <defs>
      <path id="DejaVuSans-Oblique-56" d="M 1319 0 
L 500 4666 
L 1119 4666 
L 1797 653 
L 4063 4666 
L 4750 4666 
L 2053 0 
L 1319 0 
z
" transform="scale(0.015625)"/>
     </defs>
     <use xlink:href="#DejaVuSans-Oblique-56" transform="translate(0 0.09375)"/>
     <use xlink:href="#DejaVuSans-Oblique-69" transform="translate(68.408203 -16.3125) scale(0.7)"/>
     <use xlink:href="#DejaVuSans-Oblique-6e" transform="translate(87.856445 -16.3125) scale(0.7)"/>
    </g>
   </g>
   <g id="text_3">
    <!-- $C_3$ -->
    <g transform="translate(138.985 213.575219) scale(0.125 -0.125)">
     <defs>
      <path id="DejaVuSans-Oblique-43" d="M 4447 4306 
L 4319 3641 
Q 4019 3944 3683 4091 
Q 3347 4238 2956 4238 
Q 2422 4238 2017 3981 
Q 1613 3725 1319 3200 
Q 1131 2863 1032 2486 
Q 934 2109 934 1728 
Q 934 1091 1264 756 
Q 1594 422 2222 422 
Q 2656 422 3056 561 
Q 3456 700 3834 978 
L 3688 231 
Q 3316 72 2936 -9 
Q 2556 -91 2175 -91 
Q 1278 -91 773 396 
Q 269 884 269 1753 
Q 269 2309 461 2846 
Q 653 3384 1013 3828 
Q 1394 4300 1883 4525 
Q 2372 4750 3022 4750 
Q 3422 4750 3780 4639 
Q 4138 4528 4447 4306 
z
" transform="scale(0.015625)"/>
      <path id="DejaVuSans-33" d="M 2597 2516 
Q 3050 2419 3304 2112 
Q 3559 1806 3559 1356 
Q 3559 666 3084 287 
Q 2609 -91 1734 -91 
Q 1441 -91 1130 -33 
Q 819 25 488 141 
L 488 750 
Q 750 597 1062 519 
Q 1375 441 1716 441 
Q 2309 441 2620 675 
Q 2931 909 2931 1356 
Q 2931 1769 2642 2001 
Q 2353 2234 1838 2234 
L 1294 2234 
L 1294 2753 
L 1863 2753 
Q 2328 2753 2575 2939 
Q 2822 3125 2822 3475 
Q 2822 3834 2567 4026 
Q 2313 4219 1838 4219 
Q 1578 4219 1281 4162 
Q 984 4106 628 3988 
L 628 4550 
Q 988 4650 1302 4700 
Q 1616 4750 1894 4750 
Q 2613 4750 3031 4423 
Q 3450 4097 3450 3541 
Q 3450 3153 3228 2886 
Q 3006 2619 2597 2516 
z
" transform="scale(0.015625)"/>
     </defs>
     <use xlink:href="#DejaVuSans-Oblique-43" transform="translate(0 0.78125)"/>
     <use xlink:href="#DejaVuSans-33" transform="translate(69.824219 -15.625) scale(0.7)"/>
    </g>
   </g>
   <g id="text_4">
    <!-- $L_3$ -->
    <g transform="translate(91.181116 213.575219) scale(0.125 -0.125)">
     <defs>
      <path id="DejaVuSans-Oblique-4c" d="M 1075 4666 
L 1709 4666 
L 909 525 
L 3181 525 
L 3078 0 
L 172 0 
L 1075 4666 
z
" transform="scale(0.015625)"/>
     </defs>
     <use xlink:href="#DejaVuSans-Oblique-4c" transform="translate(0 0.09375)"/>
     <use xlink:href="#DejaVuSans-33" transform="translate(55.712891 -16.3125) scale(0.7)"/>
    </g>
   </g>
   <g id="text_5">
    <!-- $C_1$ -->
    <g transform="translate(138.985 105.575219) scale(0.125 -0.125)">
     <defs>
      <path id="DejaVuSans-31" d="M 794 531 
L 1825 531 
L 1825 4091 
L 703 3866 
L 703 4441 
L 1819 4666 
L 2450 4666 
L 2450 531 
L 3481 531 
L 3481 0 
L 794 0 
L 794 531 
z
" transform="scale(0.015625)"/>
     </defs>
     <use xlink:href="#DejaVuSans-Oblique-43" transform="translate(0 0.78125)"/>
     <use xlink:href="#DejaVuSans-31" transform="translate(69.824219 -15.625) scale(0.7)"/>
    </g>
   </g>
   <g id="text_6">
    <!-- $L_1$ -->
    <g transform="translate(91.181116 105.575219) scale(0.125 -0.125)">
     <use xlink:href="#DejaVuSans-Oblique-4c" transform="translate(0 0.09375)"/>
     <use xlink:href="#DejaVuSans-31" transform="translate(55.712891 -16.3125) scale(0.7)"/>
    </g>
   </g>
   <g id="text_7">
    <!-- $R_L$ -->
    <g transform="translate(184.735 105.575219) scale(0.125 -0.125)">
     <use xlink:href="#DejaVuSans-Oblique-52" transform="translate(0 0.09375)"/>
     <use xlink:href="#DejaVuSans-Oblique-4c" transform="translate(69.482422 -16.3125) scale(0.7)"/>
    </g>
   </g>
   <g id="text_8">
    <!-- $V_{dd}$ -->
    <g transform="translate(156.2725 18.526391) scale(0.125 -0.125)">
     <defs>
      <path id="DejaVuSans-Oblique-64" d="M 2675 525 
Q 2444 222 2128 65 
Q 1813 -91 1428 -91 
Q 903 -91 598 267 
Q 294 625 294 1247 
Q 294 1766 478 2236 
Q 663 2706 1013 3078 
Q 1244 3325 1534 3454 
Q 1825 3584 2144 3584 
Q 2481 3584 2739 3421 
Q 2997 3259 3138 2956 
L 3513 4863 
L 4091 4863 
L 3144 0 
L 2566 0 
L 2675 525 
z
M 891 1350 
Q 891 897 1095 644 
Q 1300 391 1663 391 
Q 1931 391 2161 520 
Q 2391 650 2566 903 
Q 2750 1166 2856 1509 
Q 2963 1853 2963 2188 
Q 2963 2622 2758 2865 
Q 2553 3109 2194 3109 
Q 1922 3109 1687 2981 
Q 1453 2853 1288 2613 
Q 1106 2353 998 2009 
Q 891 1666 891 1350 
z
" transform="scale(0.015625)"/>
     </defs>
     <use xlink:href="#DejaVuSans-Oblique-56" transform="translate(0 0.09375)"/>
     <use xlink:href="#DejaVuSans-Oblique-64" transform="translate(68.408203 -16.3125) scale(0.7)"/>
     <use xlink:href="#DejaVuSans-Oblique-64" transform="translate(112.841797 -16.3125) scale(0.7)"/>
    </g>
   </g>
   <g id="patch_4">
    <path d="M 31.275 318.906 
C 31.991048 318.906 32.677866 318.621511 33.184188 318.115188 
C 33.690511 317.608866 33.975 316.922048 33.975 316.206 
C 33.975 315.489952 33.690511 314.803134 33.184188 314.296812 
C 32.677866 313.790489 31.991048 313.506 31.275 313.506 
C 30.558952 313.506 29.872134 313.790489 29.365812 314.296812 
C 28.859489 314.803134 28.575 315.489952 28.575 316.206 
C 28.575 316.922048 28.859489 317.608866 29.365812 318.115188 
C 29.872134 318.621511 30.558952 318.906 31.275 318.906 
z
" clip-path="url(#pc5835cb335)" style="fill: #ff0000; stroke: #ff0000; stroke-width: 2; stroke-linejoin: miter"/>
   </g>
   <g id="text_9">
    <!-- 1 -->
    <g style="fill: #ff0000" transform="translate(34.121875 336.504047) scale(0.125 -0.125)">
     <use xlink:href="#DejaVuSans-31"/>
    </g>
   </g>
   <g id="patch_5">
    <path d="M 166.335 266.826 
C 167.051048 266.826 167.737866 266.541511 168.244188 266.035188 
C 168.750511 265.528866 169.035 264.842048 169.035 264.126 
C 169.035 263.409952 168.750511 262.723134 168.244188 262.216812 
C 167.737866 261.710489 167.051048 261.426 166.335 261.426 
C 165.618952 261.426 164.932134 261.710489 164.425812 262.216812 
C 163.919489 262.723134 163.635 263.409952 163.635 264.126 
C 163.635 264.842048 163.919489 265.528866 164.425812 266.035188 
C 164.932134 266.541511 165.618952 266.826 166.335 266.826 
z
" clip-path="url(#pc5835cb335)" style="fill: #ff0000; stroke: #ff0000; stroke-width: 2; stroke-linejoin: miter"/>
   </g>
   <g id="text_10">
    <!-- 2 -->
    <g style="fill: #ff0000" transform="translate(169.181875 284.424047) scale(0.125 -0.125)">
     <defs>
      <path id="DejaVuSans-32" d="M 1228 531 
L 3431 531 
L 3431 0 
L 469 0 
L 469 531 
Q 828 903 1448 1529 
Q 2069 2156 2228 2338 
Q 2531 2678 2651 2914 
Q 2772 3150 2772 3378 
Q 2772 3750 2511 3984 
Q 2250 4219 1831 4219 
Q 1534 4219 1204 4116 
Q 875 4013 500 3803 
L 500 4441 
Q 881 4594 1212 4672 
Q 1544 4750 1819 4750 
Q 2544 4750 2975 4387 
Q 3406 4025 3406 3419 
Q 3406 3131 3298 2873 
Q 3191 2616 2906 2266 
Q 2828 2175 2409 1742 
Q 1991 1309 1228 531 
z
" transform="scale(0.015625)"/>
     </defs>
     <use xlink:href="#DejaVuSans-32"/>
    </g>
   </g>
   <g id="patch_6">
    <path d="M 121.335 158.826 
C 122.051048 158.826 122.737866 158.541511 123.244188 158.035188 
C 123.750511 157.528866 124.035 156.842048 124.035 156.126 
C 124.035 155.409952 123.750511 154.723134 123.244188 154.216812 
C 122.737866 153.710489 122.051048 153.426 121.335 153.426 
C 120.618952 153.426 119.932134 153.710489 119.425812 154.216812 
C 118.919489 154.723134 118.635 155.409952 118.635 156.126 
C 118.635 156.842048 118.919489 157.528866 119.425812 158.035188 
C 119.932134 158.541511 120.618952 158.826 121.335 158.826 
z
" clip-path="url(#pc5835cb335)" style="fill: #ff0000; stroke: #ff0000; stroke-width: 2; stroke-linejoin: miter"/>
   </g>
   <g id="text_11">
    <!-- 5 -->
    <g style="fill: #ff0000" transform="translate(124.181875 176.424047) scale(0.125 -0.125)">
     <defs>
      <path id="DejaVuSans-35" d="M 691 4666 
L 3169 4666 
L 3169 4134 
L 1269 4134 
L 1269 2991 
Q 1406 3038 1543 3061 
Q 1681 3084 1819 3084 
Q 2600 3084 3056 2656 
Q 3513 2228 3513 1497 
Q 3513 744 3044 326 
Q 2575 -91 1722 -91 
Q 1428 -91 1123 -41 
Q 819 9 494 109 
L 494 744 
Q 775 591 1075 516 
Q 1375 441 1709 441 
Q 2250 441 2565 725 
Q 2881 1009 2881 1497 
Q 2881 1984 2565 2268 
Q 2250 2553 1709 2553 
Q 1456 2553 1204 2497 
Q 953 2441 691 2322 
L 691 4666 
z
" transform="scale(0.015625)"/>
     </defs>
     <use xlink:href="#DejaVuSans-35"/>
    </g>
   </g>
   <g id="patch_7">
    <path d="M 229.335 158.826 
C 230.051048 158.826 230.737866 158.541511 231.244188 158.035188 
C 231.750511 157.528866 232.035 156.842048 232.035 156.126 
C 232.035 155.409952 231.750511 154.723134 231.244188 154.216812 
C 230.737866 153.710489 230.051048 153.426 229.335 153.426 
C 228.618952 153.426 227.932134 153.710489 227.425812 154.216812 
C 226.919489 154.723134 226.635 155.409952 226.635 156.126 
C 226.635 156.842048 226.919489 157.528866 227.425812 158.035188 
C 227.932134 158.541511 228.618952 158.826 229.335 158.826 
z
" clip-path="url(#pc5835cb335)" style="fill: #ffffff; stroke: #000000; stroke-width: 2; stroke-linejoin: miter"/>
   </g>
   <g id="text_12">
    <!-- $v_{out}$ -->
    <g transform="translate(235.635 159.575219) scale(0.125 -0.125)">
     <defs>
      <path id="DejaVuSans-Oblique-76" d="M 459 3500 
L 1069 3500 
L 1581 525 
L 3256 3500 
L 3866 3500 
L 1875 0 
L 1100 0 
L 459 3500 
z
" transform="scale(0.015625)"/>
      <path id="DejaVuSans-Oblique-6f" d="M 1625 -91 
Q 1009 -91 651 289 
Q 294 669 294 1325 
Q 294 1706 417 2101 
Q 541 2497 738 2766 
Q 1047 3184 1428 3384 
Q 1809 3584 2291 3584 
Q 2888 3584 3255 3212 
Q 3622 2841 3622 2241 
Q 3622 1825 3500 1412 
Q 3378 1000 3181 728 
Q 2875 309 2494 109 
Q 2113 -91 1625 -91 
z
M 891 1344 
Q 891 869 1089 633 
Q 1288 397 1691 397 
Q 2269 397 2648 901 
Q 3028 1406 3028 2181 
Q 3028 2634 2825 2865 
Q 2622 3097 2228 3097 
Q 1903 3097 1650 2945 
Q 1397 2794 1197 2484 
Q 1050 2253 970 1956 
Q 891 1659 891 1344 
z
" transform="scale(0.015625)"/>
      <path id="DejaVuSans-Oblique-75" d="M 428 1388 
L 838 3500 
L 1416 3500 
L 1006 1409 
Q 975 1256 961 1147 
Q 947 1038 947 966 
Q 947 700 1109 554 
Q 1272 409 1569 409 
Q 2031 409 2368 721 
Q 2706 1034 2809 1563 
L 3194 3500 
L 3769 3500 
L 3091 0 
L 2516 0 
L 2631 550 
Q 2388 244 2052 76 
Q 1716 -91 1338 -91 
Q 878 -91 622 161 
Q 366 413 366 863 
Q 366 956 381 1097 
Q 397 1238 428 1388 
z
" transform="scale(0.015625)"/>
      <path id="DejaVuSans-Oblique-74" d="M 2706 3500 
L 2619 3053 
L 1472 3053 
L 1100 1153 
Q 1081 1047 1072 975 
Q 1063 903 1063 863 
Q 1063 663 1183 572 
Q 1303 481 1569 481 
L 2150 481 
L 2053 0 
L 1503 0 
Q 991 0 739 200 
Q 488 400 488 806 
Q 488 878 497 964 
Q 506 1050 525 1153 
L 897 3053 
L 409 3053 
L 500 3500 
L 978 3500 
L 1172 4494 
L 1747 4494 
L 1556 3500 
L 2706 3500 
z
" transform="scale(0.015625)"/>
     </defs>
     <use xlink:href="#DejaVuSans-Oblique-76" transform="translate(0 0.3125)"/>
     <use xlink:href="#DejaVuSans-Oblique-6f" transform="translate(59.179688 -16.09375) scale(0.7)"/>
     <use xlink:href="#DejaVuSans-Oblique-75" transform="translate(102.006836 -16.09375) scale(0.7)"/>
     <use xlink:href="#DejaVuSans-Oblique-74" transform="translate(146.37207 -16.09375) scale(0.7)"/>
    </g>
   </g>
   <g id="patch_8">
    <path d="M 166.335 50.826 
C 167.051048 50.826 167.737866 50.541511 168.244188 50.035188 
C 168.750511 49.528866 169.035 48.842048 169.035 48.126 
C 169.035 47.409952 168.750511 46.723134 168.244188 46.216812 
C 167.737866 45.710489 167.051048 45.426 166.335 45.426 
C 165.618952 45.426 164.932134 45.710489 164.425812 46.216812 
C 163.919489 46.723134 163.635 47.409952 163.635 48.126 
C 163.635 48.842048 163.919489 49.528866 164.425812 50.035188 
C 164.932134 50.541511 165.618952 50.826 166.335 50.826 
z
" clip-path="url(#pc5835cb335)" style="fill: #ff0000; stroke: #ff0000; stroke-width: 2; stroke-linejoin: miter"/>
   </g>
   <g id="text_13">
    <!-- 3 -->
    <g style="fill: #ff0000" transform="translate(169.181875 68.424047) scale(0.125 -0.125)">
     <use xlink:href="#DejaVuSans-33"/>
    </g>
   </g>
  </g>
 </g>
 <defs>
  <clipPath id="pc5835cb335">
   <rect x="11.787" y="3.6" width="230.736" height="464.772"/>
  </clipPath>
 </defs>
</svg>