<?xml version="1.0" encoding="utf-8" standalone="no"?>
<!DOCTYPE svg PUBLIC "-//W3C//DTD SVG 1.1//EN"
  "http://www.w3.org/Graphics/SVG/1.1/DTD/svg11.dtd">
<svg xmlns:xlink="http://www.w3.org/1999/xlink" width="266.76pt" height="151.338884pt" viewBox="0 0 266.76 151.338884" xmlns="http://www.w3.org/2000/svg" version="1.1">
 <metadata>
  <rdf:RDF xmlns:dc="http://purl.org/dc/elements/1.1/" xmlns:cc="http://creativecommons.org/ns#" xmlns:rdf="http://www.w3.org/1999/02/22-rdf-syntax-ns#">
   <cc:Work>
    <dc:type rdf:resource="http://purl.org/dc/dcmitype/StillImage"/>
    <dc:date>2025-11-24T15:40:30.716613</dc:date>
    <dc:format>image/svg+xml</dc:format>
    <dc:creator>
     <cc:Agent>
      <dc:title>Matplotlib v3.10.8, https://matplotlib.org/</dc:title>
     </cc:Agent>
    </dc:creator>
   </cc:Work>
  </rdf:RDF>
 </metadata>
 <defs>
  <style type="text/css">*{stroke-linejoin: round; stroke-linecap: butt}</style>
 </defs>
 <g id="figure_1">
  <g id="patch_1">
   <path d="M 0 151.338884 
L 266.76 151.338884 
L 266.76 0 
L 0 0 
z
" style="fill: #ffffff"/>
  </g>
  <g id="axes_1">
   <g id="line2d_1">
    <path d="M 7.38 35.958884 
L 34.38 35.958884 
L 34.51407 32.994698 
L 34.92176 30.003778 
L 35.594001 27.236968 
L 36.499538 24.926316 
L 37.024567 24.004576 
L 37.587547 23.265613 
L 38.179767 22.725003 
L 38.791902 22.394141 
L 39.414207 22.28 
L 40.03672 22.384987 
L 40.649478 22.706888 
L 41.242723 23.23892 
L 41.807106 23.969866 
L 42.333888 24.884321 
L 43.243825 27.183193 
L 43.921342 29.942734 
L 44.33474 32.931505 
L 44.474472 35.898842 
L 44.353942 38.595879 
L 44.008382 40.79642 
L 43.491898 42.315908 
L 43.190537 42.777873 
L 42.872928 43.026908 
L 42.548923 43.057763 
L 42.228509 42.869788 
L 41.921597 42.466945 
L 41.386292 41.05497 
L 41.013029 38.940259 
L 40.858236 36.300169 
L 40.960019 33.35612 
L 41.334963 30.355026 
L 41.976748 27.548584 
L 42.856671 25.172165 
L 43.371402 24.209391 
L 43.926057 23.425076 
L 44.512102 22.835753 
L 45.120342 22.453843 
L 45.741113 22.287397 
L 46.364487 22.339922 
L 46.980482 22.610312 
L 47.579271 23.092867 
L 48.15139 23.777416 
L 48.687935 24.64953 
L 49.622621 26.879355 
L 50.33006 29.595331 
L 50.776046 32.569673 
L 50.948297 35.552928 
L 50.85749 38.294894 
L 50.536365 40.565607 
L 50.036977 42.174626 
L 49.740936 42.686316 
L 49.426332 42.987005 
L 49.102952 43.070355 
L 48.780768 42.93461 
L 48.469731 42.582631 
L 48.179551 42.021836 
L 47.698228 40.325237 
L 47.402289 37.987103 
L 47.341678 35.203529 
L 47.546602 32.207971 
L 48.024998 29.251661 
L 48.761866 26.582539 
L 49.720531 24.424462 
L 50.266371 23.595746 
L 50.845713 22.958424 
L 51.449502 22.52593 
L 52.068169 22.307379 
L 52.691831 22.307379 
L 53.310498 22.52593 
L 53.914287 22.958424 
L 54.493629 23.595746 
L 55.039469 24.424462 
L 55.54346 25.427105 
L 56.397065 27.866412 
L 57.007979 30.709087 
L 57.350087 33.716719 
L 57.419821 36.637063 
L 57.236457 39.225193 
L 56.840496 41.264048 
L 56.290269 42.582631 
L 55.979232 42.93461 
L 55.657048 43.070355 
L 55.333668 42.987005 
L 55.019064 42.686316 
L 54.723023 42.174626 
L 54.223635 40.565607 
L 53.90251 38.294894 
L 53.811703 35.552928 
L 53.983954 32.569673 
L 54.42994 29.595331 
L 55.137379 26.879355 
L 56.072065 24.64953 
L 56.60861 23.777416 
L 57.180729 23.092867 
L 57.779518 22.610312 
L 58.395513 22.339922 
L 59.018887 22.287397 
L 59.639658 22.453843 
L 60.247898 22.835753 
L 60.833943 23.425076 
L 61.388598 24.209391 
L 61.903329 25.172165 
L 62.783252 27.548584 
L 63.425037 30.355026 
L 63.799981 33.35612 
L 63.901764 36.300169 
L 63.746971 38.940259 
L 63.373708 41.05497 
L 62.838403 42.466945 
L 62.531491 42.869788 
L 62.211077 43.057763 
L 61.887072 43.026908 
L 61.569463 42.777873 
L 61.268102 42.315908 
L 60.751618 40.79642 
L 60.406058 38.595879 
L 60.285528 35.898842 
L 60.42526 32.931505 
L 60.838658 29.942734 
L 61.516175 27.183193 
L 62.426112 24.884321 
L 62.952894 23.969866 
L 63.517277 23.23892 
L 64.110522 22.706888 
L 64.72328 22.384987 
L 65.345793 22.28 
L 65.968098 22.394141 
L 66.580233 22.725003 
L 67.172453 23.265613 
L 67.735433 24.004576 
L 68.260462 24.926316 
L 69.165999 27.236968 
L 69.83824 30.003778 
L 70.24593 32.994698 
L 70.38 35.958884 
L 97.38 35.958884 
L 97.38 35.958884 
" clip-path="url(#pf048dbd2f0)" style="fill: none; stroke: #000000; stroke-width: 2; stroke-linecap: round"/>
   </g>
   <g id="line2d_2">
    <path d="M 97.38 35.958884 
L 115.38 35.958884 
L 118.38 26.958884 
L 124.38 44.958884 
L 130.38 26.958884 
L 136.38 44.958884 
L 142.38 26.958884 
L 148.38 44.958884 
L 151.38 35.958884 
L 169.38 35.958884 
" clip-path="url(#pf048dbd2f0)" style="fill: none; stroke: #000000; stroke-width: 2; stroke-linecap: round"/>
   </g>
   <g id="line2d_3">
    <path d="M 169.38 35.958884 
L 169.38 86.718884 
M 178.38 86.718884 
L 160.38 86.718884 
M 178.38 93.198884 
L 160.38 93.198884 
M 169.38 93.198884 
L 169.38 143.958884 
" clip-path="url(#pf048dbd2f0)" style="fill: none; stroke: #000000; stroke-width: 2; stroke-linecap: round"/>
   </g>
   <g id="line2d_4">
    <path d="M 169.38 35.958884 
L 187.38 35.958884 
L 205.38 35.958884 
" clip-path="url(#pf048dbd2f0)" style="fill: none; stroke: #000000; stroke-width: 2; stroke-linecap: round"/>
   </g>
   <g id="line2d_5">
    <path d="M 205.38 35.958884 
L 205.38 71.958884 
L 214.38 74.958884 
L 196.38 80.958884 
L 214.38 86.958884 
L 196.38 92.958884 
L 214.38 98.958884 
L 196.38 104.958884 
L 205.38 107.958884 
L 205.38 143.958884 
" clip-path="url(#pf048dbd2f0)" style="fill: none; stroke: #000000; stroke-width: 2; stroke-linecap: round"/>
   </g>
   <g id="line2d_6">
    <path d="M 205.38 143.958884 
L 106.38 143.958884 
L 7.38 143.958884 
" clip-path="url(#pf048dbd2f0)" style="fill: none; stroke: #000000; stroke-width: 2; stroke-linecap: round"/>
   </g>
   <g id="line2d_7">
    <path d="M 205.38 143.958884 
L 232.38 143.958884 
L 259.38 143.958884 
" clip-path="url(#pf048dbd2f0)" style="fill: none; stroke: #000000; stroke-width: 2; stroke-linecap: round"/>
   </g>
   <g id="line2d_8">
    <path d="M 205.38 35.958884 
L 232.38 35.958884 
L 259.38 35.958884 
" clip-path="url(#pf048dbd2f0)" style="fill: none; stroke: #000000; stroke-width: 2; stroke-linecap: round"/>
   </g>
   <g id="text_1">
    <!-- $L \Delta z$ -->
    <g transform="translate(39.99 15.768437) scale(0.14 -0.14)">
     <defs>
      <path id="DejaVuSans-Oblique-4c" d="M 1075 4666 
L 1709 4666 
L 909 525 
L 3181 525 
L 3078 0 
L 172 0 
L 1075 4666 
z
" transform="scale(0.015625)"/>
      <path id="DejaVuSans-394" d="M 2188 4044 
L 906 525 
L 3472 525 
L 2188 4044 
z
M 50 0 
L 1831 4666 
L 2547 4666 
L 4325 0 
L 50 0 
z
" transform="scale(0.015625)"/>
      <path id="DejaVuSans-Oblique-7a" d="M 744 3500 
L 3475 3500 
L 3372 2975 
L 738 459 
L 2913 459 
L 2822 0 
L -19 0 
L 84 525 
L 2719 3041 
L 653 3041 
L 744 3500 
z
" transform="scale(0.015625)"/>
     </defs>
     <use xlink:href="#DejaVuSans-Oblique-4c" transform="translate(0 0.09375)"/>
     <use xlink:href="#DejaVuSans-394" transform="translate(55.712891 0.09375)"/>
     <use xlink:href="#DejaVuSans-Oblique-7a" transform="translate(124.121094 0.09375)"/>
    </g>
   </g>
   <g id="text_2">
    <!-- $R \Delta z$ -->
    <g transform="translate(120.01 20.447322) scale(0.14 -0.14)">
     <defs>
      <path id="DejaVuSans-Oblique-52" d="M 1613 4147 
L 1294 2491 
L 2106 2491 
Q 2584 2491 2879 2755 
Q 3175 3019 3175 3444 
Q 3175 3784 2976 3965 
Q 2778 4147 2406 4147 
L 1613 4147 
z
M 2772 2241 
Q 2972 2194 3105 2009 
Q 3238 1825 3413 1275 
L 3809 0 
L 3144 0 
L 2778 1197 
Q 2638 1659 2453 1815 
Q 2269 1972 1888 1972 
L 1191 1972 
L 806 0 
L 172 0 
L 1081 4666 
L 2503 4666 
Q 3150 4666 3495 4373 
Q 3841 4081 3841 3531 
Q 3841 3044 3547 2687 
Q 3253 2331 2772 2241 
z
" transform="scale(0.015625)"/>
     </defs>
     <use xlink:href="#DejaVuSans-Oblique-52" transform="translate(0 0.09375)"/>
     <use xlink:href="#DejaVuSans-394" transform="translate(69.482422 0.09375)"/>
     <use xlink:href="#DejaVuSans-Oblique-7a" transform="translate(137.890625 0.09375)"/>
    </g>
   </g>
   <g id="text_3">
    <!-- $C \Delta z$ -->
    <g transform="translate(130.04 93.822009) scale(0.14 -0.14)">
     <defs>
      <path id="DejaVuSans-Oblique-43" d="M 4447 4306 
L 4319 3641 
Q 4019 3944 3683 4091 
Q 3347 4238 2956 4238 
Q 2422 4238 2017 3981 
Q 1613 3725 1319 3200 
Q 1131 2863 1032 2486 
Q 934 2109 934 1728 
Q 934 1091 1264 756 
Q 1594 422 2222 422 
Q 2656 422 3056 561 
Q 3456 700 3834 978 
L 3688 231 
Q 3316 72 2936 -9 
Q 2556 -91 2175 -91 
Q 1278 -91 773 396 
Q 269 884 269 1753 
Q 269 2309 461 2846 
Q 653 3384 1013 3828 
Q 1394 4300 1883 4525 
Q 2372 4750 3022 4750 
Q 3422 4750 3780 4639 
Q 4138 4528 4447 4306 
z
" transform="scale(0.015625)"/>
     </defs>
     <use xlink:href="#DejaVuSans-Oblique-43" transform="translate(0 0.78125)"/>
     <use xlink:href="#DejaVuSans-394" transform="translate(69.824219 0.78125)"/>
     <use xlink:href="#DejaVuSans-Oblique-7a" transform="translate(138.232422 0.78125)"/>
    </g>
   </g>
   <g id="text_4">
    <!-- $g\Delta z$ -->
    <g transform="translate(217.98 93.793572) scale(0.14 -0.14)">
     <defs>
      <path id="DejaVuSans-Oblique-67" d="M 3816 3500 
L 3219 434 
Q 3047 -456 2561 -893 
Q 2075 -1331 1253 -1331 
Q 950 -1331 690 -1286 
Q 431 -1241 206 -1147 
L 313 -588 
Q 525 -725 762 -790 
Q 1000 -856 1269 -856 
Q 1816 -856 2167 -557 
Q 2519 -259 2631 300 
L 2681 563 
Q 2441 288 2122 144 
Q 1803 0 1434 0 
Q 903 0 598 351 
Q 294 703 294 1319 
Q 294 1803 478 2267 
Q 663 2731 997 3091 
Q 1219 3328 1514 3456 
Q 1809 3584 2131 3584 
Q 2484 3584 2746 3420 
Q 3009 3256 3138 2956 
L 3238 3500 
L 3816 3500 
z
M 2950 2216 
Q 2950 2641 2750 2872 
Q 2550 3103 2181 3103 
Q 1953 3103 1747 3012 
Q 1541 2922 1394 2759 
Q 1156 2491 1023 2127 
Q 891 1763 891 1375 
Q 891 944 1092 712 
Q 1294 481 1672 481 
Q 2219 481 2584 976 
Q 2950 1472 2950 2216 
z
" transform="scale(0.015625)"/>
     </defs>
     <use xlink:href="#DejaVuSans-Oblique-67" transform="translate(0 0.09375)"/>
     <use xlink:href="#DejaVuSans-394" transform="translate(63.476562 0.09375)"/>
     <use xlink:href="#DejaVuSans-Oblique-7a" transform="translate(131.884766 0.09375)"/>
    </g>
   </g>
   <g id="patch_2">
    <path d="M 7.38 38.658884 
C 8.096048 38.658884 8.782866 38.374395 9.289188 37.868073 
C 9.795511 37.36175 10.08 36.674933 10.08 35.958884 
C 10.08 35.242836 9.795511 34.556019 9.289188 34.049696 
C 8.782866 33.543374 8.096048 33.258884 7.38 33.258884 
C 6.663952 33.258884 5.977134 33.543374 5.470812 34.049696 
C 4.964489 34.556019 4.68 35.242836 4.68 35.958884 
C 4.68 36.674933 4.964489 37.36175 5.470812 37.868073 
C 5.977134 38.374395 6.663952 38.658884 7.38 38.658884 
z
" clip-path="url(#pf048dbd2f0)" style="stroke: #000000; stroke-width: 2; stroke-linejoin: miter"/>
   </g>
   <g id="patch_3">
    <path d="M 7.38 146.658884 
C 8.096048 146.658884 8.782866 146.374395 9.289188 145.868073 
C 9.795511 145.36175 10.08 144.674933 10.08 143.958884 
C 10.08 143.242836 9.795511 142.556019 9.289188 142.049696 
C 8.782866 141.543374 8.096048 141.258884 7.38 141.258884 
C 6.663952 141.258884 5.977134 141.543374 5.470812 142.049696 
C 4.964489 142.556019 4.68 143.242836 4.68 143.958884 
C 4.68 144.674933 4.964489 145.36175 5.470812 145.868073 
C 5.977134 146.374395 6.663952 146.658884 7.38 146.658884 
z
" clip-path="url(#pf048dbd2f0)" style="stroke: #000000; stroke-width: 2; stroke-linejoin: miter"/>
   </g>
   <g id="patch_4">
    <path d="M 259.38 146.658884 
C 260.096048 146.658884 260.782866 146.374395 261.289188 145.868073 
C 261.795511 145.36175 262.08 144.674933 262.08 143.958884 
C 262.08 143.242836 261.795511 142.556019 261.289188 142.049696 
C 260.782866 141.543374 260.096048 141.258884 259.38 141.258884 
C 258.663952 141.258884 257.977134 141.543374 257.470812 142.049696 
C 256.964489 142.556019 256.68 143.242836 256.68 143.958884 
C 256.68 144.674933 256.964489 145.36175 257.470812 145.868073 
C 257.977134 146.374395 258.663952 146.658884 259.38 146.658884 
z
" clip-path="url(#pf048dbd2f0)" style="stroke: #000000; stroke-width: 2; stroke-linejoin: miter"/>
   </g>
   <g id="patch_5">
    <path d="M 259.38 38.658884 
C 260.096048 38.658884 260.782866 38.374395 261.289188 37.868073 
C 261.795511 37.36175 262.08 36.674933 262.08 35.958884 
C 262.08 35.242836 261.795511 34.556019 261.289188 34.049696 
C 260.782866 33.543374 260.096048 33.258884 259.38 33.258884 
C 258.663952 33.258884 257.977134 33.543374 257.470812 34.049696 
C 256.964489 34.556019 256.68 35.242836 256.68 35.958884 
C 256.68 36.674933 256.964489 37.36175 257.470812 37.868073 
C 257.977134 38.374395 258.663952 38.658884 259.38 38.658884 
z
" clip-path="url(#pf048dbd2f0)" style="stroke: #000000; stroke-width: 2; stroke-linejoin: miter"/>
   </g>
  </g>
 </g>
 <defs>
  <clipPath id="pf048dbd2f0">
   <rect x="0" y="0" width="266.76" height="151.338884"/>
  </clipPath>
 </defs>
</svg>