<?xml version="1.0" encoding="utf-8" standalone="no"?>
<!DOCTYPE svg PUBLIC "-//W3C//DTD SVG 1.1//EN"
  "http://www.w3.org/Graphics/SVG/1.1/DTD/svg11.dtd">
<svg xmlns:xlink="http://www.w3.org/1999/xlink" width="846.978125pt" height="846.978125pt" viewBox="0 0 846.978125 846.978125" xmlns="http://www.w3.org/2000/svg" version="1.1">
 <metadata>
  <rdf:RDF xmlns:dc="http://purl.org/dc/elements/1.1/" xmlns:cc="http://creativecommons.org/ns#" xmlns:rdf="http://www.w3.org/1999/02/22-rdf-syntax-ns#">
   <cc:Work>
    <dc:type rdf:resource="http://purl.org/dc/dcmitype/StillImage"/>
    <dc:date>2023-01-17T00:23:15.093441</dc:date>
    <dc:format>image/svg+xml</dc:format>
    <dc:creator>
     <cc:Agent>
      <dc:title>Matplotlib v3.5.3, https://matplotlib.org/</dc:title>
     </cc:Agent>
    </dc:creator>
   </cc:Work>
  </rdf:RDF>
 </metadata>
 <defs>
  <style type="text/css">*{stroke-linejoin: round; stroke-linecap: butt}</style>
 </defs>
 <g id="figure_1">
  <g id="patch_1">
   <path d="M 0 846.978125 
L 846.978125 846.978125 
L 846.978125 0 
L 0 0 
L 0 846.978125 
z
" style="fill: none"/>
  </g>
  <g id="axes_1">
   <g id="patch_2">
    <path d="M 24.378125 822.6 
L 839.778125 822.6 
L 839.778125 7.2 
L 24.378125 7.2 
z
" style="fill: #ffffff"/>
   </g>
   <g id="patch_3">
    <path d="M 432.078125 785.536364 
C 530.372038 785.536364 624.653319 746.483778 694.157611 676.979486 
C 763.661903 607.475194 802.714489 513.193913 802.714489 414.9 
C 802.714489 316.606087 763.661903 222.324806 694.157611 152.820514 
C 624.653319 83.316222 530.372038 44.263636 432.078125 44.263636 
C 333.784212 44.263636 239.502931 83.316222 169.998639 152.820514 
C 100.494347 222.324806 61.441761 316.606087 61.441761 414.9 
C 61.441761 513.193913 100.494347 607.475194 169.998639 676.979486 
C 239.502931 746.483778 333.784212 785.536364 432.078125 785.536364 
L 432.078125 785.536364 
z
" clip-path="url(#p380137bee6)" style="fill: none; stroke: #000000; stroke-linejoin: miter"/>
   </g>
   <g id="patch_4">
    <path d="M 473.259943 744.354545 
C 560.63231 744.354545 644.437893 709.641136 706.219486 647.859543 
C 768.001079 586.07795 802.714489 502.272367 802.714489 414.9 
C 802.714489 327.527633 768.001079 243.72205 706.219486 181.940457 
C 644.437893 120.158864 560.63231 85.445455 473.259943 85.445455 
C 385.887576 85.445455 302.081993 120.158864 240.3004 181.940457 
C 178.518807 243.72205 143.805398 327.527633 143.805398 414.9 
C 143.805398 502.272367 178.518807 586.07795 240.3004 647.859543 
C 302.081993 709.641136 385.887576 744.354545 473.259943 744.354545 
L 473.259943 744.354545 
z
" clip-path="url(#p69ae741909)" style="fill: none; stroke: #808080; stroke-linejoin: miter"/>
   </g>
   <g id="patch_5">
    <path d="M 506.205398 711.409091 
C 584.840528 711.409091 660.265553 680.167023 715.868987 624.563589 
C 771.47242 568.960155 802.714489 493.53513 802.714489 414.9 
C 802.714489 336.26487 771.47242 260.839845 715.868987 205.236411 
C 660.265553 149.632977 584.840528 118.390909 506.205398 118.390909 
C 427.570268 118.390909 352.145243 149.632977 296.541809 205.236411 
C 240.938375 260.839845 209.696307 336.26487 209.696307 414.9 
C 209.696307 493.53513 240.938375 568.960155 296.541809 624.563589 
C 352.145243 680.167023 427.570268 711.409091 506.205398 711.409091 
L 506.205398 711.409091 
z
" clip-path="url(#p69ae741909)" style="fill: none; stroke: #808080; stroke-linejoin: miter"/>
   </g>
   <g id="patch_6">
    <path d="M 555.62358 661.990909 
C 621.152855 661.990909 684.007042 635.955852 730.343237 589.619657 
C 776.679432 543.283463 802.714489 480.429275 802.714489 414.9 
C 802.714489 349.370725 776.679432 286.516537 730.343237 240.180343 
C 684.007042 193.844148 621.152855 167.809091 555.62358 167.809091 
C 490.094304 167.809091 427.240117 193.844148 380.903922 240.180343 
C 334.567727 286.516537 308.53267 349.370725 308.53267 414.9 
C 308.53267 480.429275 334.567727 543.283463 380.903922 589.619657 
C 427.240117 635.955852 490.094304 661.990909 555.62358 661.990909 
L 555.62358 661.990909 
z
" clip-path="url(#p69ae741909)" style="fill: none; stroke: #808080; stroke-linejoin: miter"/>
   </g>
   <g id="patch_7">
    <path d="M 617.396307 600.218182 
C 666.543263 600.218182 713.683904 580.691889 748.43605 545.939743 
C 783.188196 511.187597 802.714489 464.046956 802.714489 414.9 
C 802.714489 365.753044 783.188196 318.612403 748.43605 283.860257 
C 713.683904 249.108111 666.543263 229.581818 617.396307 229.581818 
C 568.249351 229.581818 521.10871 249.108111 486.356564 283.860257 
C 451.604418 318.612403 432.078125 365.753044 432.078125 414.9 
C 432.078125 464.046956 451.604418 511.187597 486.356564 545.939743 
C 521.10871 580.691889 568.249351 600.218182 617.396307 600.218182 
L 617.396307 600.218182 
z
" clip-path="url(#p69ae741909)" style="fill: none; stroke: #808080; stroke-linejoin: miter"/>
   </g>
   <g id="patch_8">
    <path d="M 679.169034 538.445455 
C 711.933672 538.445455 743.360765 525.427926 766.528863 502.259829 
C 789.69696 479.091731 802.714489 447.664638 802.714489 414.9 
C 802.714489 382.135362 789.69696 350.708269 766.528863 327.540171 
C 743.360765 304.372074 711.933672 291.354545 679.169034 291.354545 
C 646.404397 291.354545 614.977303 304.372074 591.809205 327.540171 
C 568.641108 350.708269 555.62358 382.135362 555.62358 414.9 
C 555.62358 447.664638 568.641108 479.091731 591.809205 502.259829 
C 614.977303 525.427926 646.404397 538.445455 679.169034 538.445455 
L 679.169034 538.445455 
z
" clip-path="url(#p69ae741909)" style="fill: none; stroke: #808080; stroke-linejoin: miter"/>
   </g>
   <g id="patch_9">
    <path d="M 728.587216 489.027273 
C 748.245998 489.027273 767.102255 481.216756 781.003113 467.315897 
C 794.903972 453.415039 802.714489 434.558783 802.714489 414.9 
C 802.714489 395.241217 794.903972 376.384961 781.003113 362.484103 
C 767.102255 348.583244 748.245998 340.772727 728.587216 340.772727 
C 708.928433 340.772727 690.072177 348.583244 676.171319 362.484103 
C 662.27046 376.384961 654.459943 395.241217 654.459943 414.9 
C 654.459943 434.558783 662.27046 453.415039 676.171319 467.315897 
C 690.072177 481.216756 708.928433 489.027273 728.587216 489.027273 
L 728.587216 489.027273 
z
" clip-path="url(#p69ae741909)" style="fill: none; stroke: #808080; stroke-linejoin: miter"/>
   </g>
   <g id="patch_10">
    <path d="M 761.53267 456.081818 
C 772.454216 456.081818 782.929914 451.742642 790.652613 444.019943 
C 798.375312 436.297244 802.714489 425.821546 802.714489 414.9 
C 802.714489 403.978454 798.375312 393.502756 790.652613 385.780057 
C 782.929914 378.057358 772.454216 373.718182 761.53267 373.718182 
C 750.611125 373.718182 740.135427 378.057358 732.412728 385.780057 
C 724.690028 393.502756 720.350852 403.978454 720.350852 414.9 
C 720.350852 425.821546 724.690028 436.297244 732.412728 444.019943 
C 740.135427 451.742642 750.611125 456.081818 761.53267 456.081818 
L 761.53267 456.081818 
z
" clip-path="url(#p69ae741909)" style="fill: none; stroke: #808080; stroke-linejoin: miter"/>
   </g>
   <g id="patch_11">
    <path d="M 780.91235 436.702139 
C 786.694344 436.702139 792.240302 434.404928 796.32879 430.31644 
C 800.417278 426.227953 802.714489 420.681995 802.714489 414.9 
C 802.714489 409.118005 800.417278 403.572047 796.32879 399.48356 
C 792.240302 395.395072 786.694344 393.097861 780.91235 393.097861 
C 775.130355 393.097861 769.584397 395.395072 765.495909 399.48356 
C 761.407421 403.572047 759.110211 409.118005 759.110211 414.9 
C 759.110211 420.681995 761.407421 426.227953 765.495909 430.31644 
C 769.584397 434.404928 775.130355 436.702139 780.91235 436.702139 
L 780.91235 436.702139 
z
" clip-path="url(#p69ae741909)" style="fill: none; stroke: #808080; stroke-linejoin: miter"/>
   </g>
   <g id="patch_12">
    <path d="M 791.483084 426.131405 
C 794.461687 426.131405 797.318696 424.947993 799.424886 422.841803 
C 801.531077 420.735612 802.714489 417.878603 802.714489 414.9 
C 802.714489 411.921397 801.531077 409.064388 799.424886 406.958197 
C 797.318696 404.852007 794.461687 403.668595 791.483084 403.668595 
C 788.50448 403.668595 785.647472 404.852007 783.541281 406.958197 
C 781.43509 409.064388 780.251679 411.921397 780.251679 414.9 
C 780.251679 417.878603 781.43509 420.735612 783.541281 422.841803 
C 785.647472 424.947993 788.50448 426.131405 791.483084 426.131405 
L 791.483084 426.131405 
z
" clip-path="url(#p69ae741909)" style="fill: none; stroke: #808080; stroke-linejoin: miter"/>
   </g>
   <g id="patch_13">
    <path d="M 802.714489 414.9 
C 1195.890139 414.9 1573.015264 258.689658 1851.032433 -19.32751 
C 2129.049602 -297.344679 2285.259943 -674.469804 2285.259943 -1067.645455 
C 2285.259943 -1460.821105 2129.049602 -1837.94623 1851.032433 -2115.963399 
C 1573.015264 -2393.980567 1195.890139 -2550.190909 802.714489 -2550.190909 
C 409.538838 -2550.190909 32.413713 -2393.980567 -245.603456 -2115.963399 
C -523.620624 -1837.94623 -679.830966 -1460.821105 -679.830966 -1067.645455 
C -679.830966 -674.469804 -523.620624 -297.344679 -245.603456 -19.32751 
C 32.413713 258.689658 409.538838 414.9 802.714489 414.9 
L 802.714489 414.9 
z
" clip-path="url(#p69ae741909)" style="fill: none; stroke: #808080; stroke-linejoin: miter"/>
   </g>
   <g id="patch_14">
    <path d="M 802.714489 414.9 
C 999.302314 414.9 1187.864876 336.794829 1326.873461 197.786245 
C 1465.882045 58.777661 1543.987216 -129.784902 1543.987216 -326.372727 
C 1543.987216 -522.960552 1465.882045 -711.523115 1326.873461 -850.531699 
C 1187.864876 -989.540284 999.302314 -1067.645455 802.714489 -1067.645455 
C 606.126663 -1067.645455 417.564101 -989.540284 278.555516 -850.531699 
C 139.546932 -711.523115 61.441761 -522.960552 61.441761 -326.372727 
C 61.441761 -129.784902 139.546932 58.777661 278.555516 197.786245 
C 417.564101 336.794829 606.126663 414.9 802.714489 414.9 
L 802.714489 414.9 
z
" clip-path="url(#p69ae741909)" style="fill: none; stroke: #808080; stroke-linejoin: miter"/>
   </g>
   <g id="patch_15">
    <path d="M 802.714489 414.9 
C 901.008401 414.9 995.289683 375.847415 1064.793975 306.343122 
C 1134.298267 236.83883 1173.350852 142.557549 1173.350852 44.263636 
C 1173.350852 -54.030276 1134.298267 -148.311558 1064.793975 -217.81585 
C 995.289683 -287.320142 901.008401 -326.372727 802.714489 -326.372727 
C 704.420576 -326.372727 610.139295 -287.320142 540.635003 -217.81585 
C 471.13071 -148.311558 432.078125 -54.030276 432.078125 44.263636 
C 432.078125 142.557549 471.13071 236.83883 540.635003 306.343122 
C 610.139295 375.847415 704.420576 414.9 802.714489 414.9 
L 802.714489 414.9 
z
" clip-path="url(#p69ae741909)" style="fill: none; stroke: #808080; stroke-linejoin: miter"/>
   </g>
   <g id="patch_16">
    <path d="M 802.714489 414.9 
C 851.861445 414.9 899.002086 395.373707 933.754232 360.621561 
C 968.506378 325.869415 988.03267 278.728774 988.03267 229.581818 
C 988.03267 180.434862 968.506378 133.294221 933.754232 98.542075 
C 899.002086 63.789929 851.861445 44.263636 802.714489 44.263636 
C 753.567532 44.263636 706.426892 63.789929 671.674746 98.542075 
C 636.9226 133.294221 617.396307 180.434862 617.396307 229.581818 
C 617.396307 278.728774 636.9226 325.869415 671.674746 360.621561 
C 706.426892 395.373707 753.567532 414.9 802.714489 414.9 
L 802.714489 414.9 
z
" clip-path="url(#p69ae741909)" style="fill: none; stroke: #808080; stroke-linejoin: miter"/>
   </g>
   <g id="patch_17">
    <path d="M 802.714489 414.9 
C 827.287967 414.9 850.858287 405.136854 868.23436 387.760781 
C 885.610433 370.384708 895.37358 346.814387 895.37358 322.240909 
C 895.37358 297.667431 885.610433 274.097111 868.23436 256.721038 
C 850.858287 239.344965 827.287967 229.581818 802.714489 229.581818 
C 778.14101 229.581818 754.57069 239.344965 737.194617 256.721038 
C 719.818544 274.097111 710.055398 297.667431 710.055398 322.240909 
C 710.055398 346.814387 719.818544 370.384708 737.194617 387.760781 
C 754.57069 405.136854 778.14101 414.9 802.714489 414.9 
L 802.714489 414.9 
z
" clip-path="url(#p69ae741909)" style="fill: none; stroke: #808080; stroke-linejoin: miter"/>
   </g>
   <g id="patch_18">
    <path d="M 802.714489 414.9 
C 815.001228 414.9 826.786388 410.018427 835.474424 401.33039 
C 844.162461 392.642354 849.044034 380.857194 849.044034 368.570455 
C 849.044034 356.283715 844.162461 344.498555 835.474424 335.810519 
C 826.786388 327.122482 815.001228 322.240909 802.714489 322.240909 
C 790.42775 322.240909 778.642589 327.122482 769.954553 335.810519 
C 761.266516 344.498555 756.384943 356.283715 756.384943 368.570455 
C 756.384943 380.857194 761.266516 392.642354 769.954553 401.33039 
C 778.642589 410.018427 790.42775 414.9 802.714489 414.9 
L 802.714489 414.9 
z
" clip-path="url(#p69ae741909)" style="fill: none; stroke: #808080; stroke-linejoin: miter"/>
   </g>
   <g id="patch_19">
    <path d="M 802.714489 414.9 
C 808.857858 414.9 814.750438 412.459213 819.094457 408.115195 
C 823.438475 403.771177 825.879261 397.878597 825.879261 391.735227 
C 825.879261 385.591858 823.438475 379.699278 819.094457 375.355259 
C 814.750438 371.011241 808.857858 368.570455 802.714489 368.570455 
C 796.571119 368.570455 790.678539 371.011241 786.334521 375.355259 
C 781.990502 379.699278 779.549716 385.591858 779.549716 391.735227 
C 779.549716 397.878597 781.990502 403.771177 786.334521 408.115195 
C 790.678539 412.459213 796.571119 414.9 802.714489 414.9 
L 802.714489 414.9 
z
" clip-path="url(#p69ae741909)" style="fill: none; stroke: #808080; stroke-linejoin: miter"/>
   </g>
   <g id="patch_20">
    <path d="M 802.714489 414.9 
C 805.786173 414.9 808.732463 413.679607 810.904473 411.507598 
C 813.076482 409.335588 814.296875 406.389298 814.296875 403.317614 
C 814.296875 400.245929 813.076482 397.299639 810.904473 395.12763 
C 808.732463 392.955621 805.786173 391.735227 802.714489 391.735227 
C 799.642804 391.735227 796.696514 392.955621 794.524505 395.12763 
C 792.352496 397.299639 791.132102 400.245929 791.132102 403.317614 
C 791.132102 406.389298 792.352496 409.335588 794.524505 411.507598 
C 796.696514 413.679607 799.642804 414.9 802.714489 414.9 
L 802.714489 414.9 
z
" clip-path="url(#p69ae741909)" style="fill: none; stroke: #808080; stroke-linejoin: miter"/>
   </g>
   <g id="patch_21">
    <path d="M 802.714489 414.9 
C 409.538838 414.9 32.413713 571.110342 -245.603456 849.12751 
C -523.620624 1127.144679 -679.830966 1504.269804 -679.830966 1897.445455 
C -679.830966 2290.621105 -523.620624 2667.74623 -245.603456 2945.763399 
C 32.413713 3223.780567 409.538838 3379.990909 802.714489 3379.990909 
C 1195.890139 3379.990909 1573.015264 3223.780567 1851.032433 2945.763399 
C 2129.049602 2667.74623 2285.259943 2290.621105 2285.259943 1897.445455 
C 2285.259943 1504.269804 2129.049602 1127.144679 1851.032433 849.12751 
C 1573.015264 571.110342 1195.890139 414.9 802.714489 414.9 
L 802.714489 414.9 
z
" clip-path="url(#p69ae741909)" style="fill: none; stroke: #808080; stroke-linejoin: miter"/>
   </g>
   <g id="patch_22">
    <path d="M 802.714489 414.9 
C 606.126663 414.9 417.564101 493.005171 278.555516 632.013755 
C 139.546932 771.022339 61.441761 959.584902 61.441761 1156.172727 
C 61.441761 1352.760552 139.546932 1541.323115 278.555516 1680.331699 
C 417.564101 1819.340284 606.126663 1897.445455 802.714489 1897.445455 
C 999.302314 1897.445455 1187.864876 1819.340284 1326.873461 1680.331699 
C 1465.882045 1541.323115 1543.987216 1352.760552 1543.987216 1156.172727 
C 1543.987216 959.584902 1465.882045 771.022339 1326.873461 632.013755 
C 1187.864876 493.005171 999.302314 414.9 802.714489 414.9 
L 802.714489 414.9 
z
" clip-path="url(#p69ae741909)" style="fill: none; stroke: #808080; stroke-linejoin: miter"/>
   </g>
   <g id="patch_23">
    <path d="M 802.714489 414.9 
C 704.420576 414.9 610.139295 453.952585 540.635003 523.456878 
C 471.13071 592.96117 432.078125 687.242451 432.078125 785.536364 
C 432.078125 883.830276 471.13071 978.111558 540.635003 1047.61585 
C 610.139295 1117.120142 704.420576 1156.172727 802.714489 1156.172727 
C 901.008401 1156.172727 995.289683 1117.120142 1064.793975 1047.61585 
C 1134.298267 978.111558 1173.350852 883.830276 1173.350852 785.536364 
C 1173.350852 687.242451 1134.298267 592.96117 1064.793975 523.456878 
C 995.289683 453.952585 901.008401 414.9 802.714489 414.9 
L 802.714489 414.9 
z
" clip-path="url(#p69ae741909)" style="fill: none; stroke: #808080; stroke-linejoin: miter"/>
   </g>
   <g id="patch_24">
    <path d="M 802.714489 414.9 
C 753.567532 414.9 706.426892 434.426293 671.674746 469.178439 
C 636.9226 503.930585 617.396307 551.071226 617.396307 600.218182 
C 617.396307 649.365138 636.9226 696.505779 671.674746 731.257925 
C 706.426892 766.010071 753.567532 785.536364 802.714489 785.536364 
C 851.861445 785.536364 899.002086 766.010071 933.754232 731.257925 
C 968.506378 696.505779 988.03267 649.365138 988.03267 600.218182 
C 988.03267 551.071226 968.506378 503.930585 933.754232 469.178439 
C 899.002086 434.426293 851.861445 414.9 802.714489 414.9 
L 802.714489 414.9 
z
" clip-path="url(#p69ae741909)" style="fill: none; stroke: #808080; stroke-linejoin: miter"/>
   </g>
   <g id="patch_25">
    <path d="M 802.714489 414.9 
C 778.14101 414.9 754.57069 424.663146 737.194617 442.039219 
C 719.818544 459.415292 710.055398 482.985613 710.055398 507.559091 
C 710.055398 532.132569 719.818544 555.702889 737.194617 573.078962 
C 754.57069 590.455035 778.14101 600.218182 802.714489 600.218182 
C 827.287967 600.218182 850.858287 590.455035 868.23436 573.078962 
C 885.610433 555.702889 895.37358 532.132569 895.37358 507.559091 
C 895.37358 482.985613 885.610433 459.415292 868.23436 442.039219 
C 850.858287 424.663146 827.287967 414.9 802.714489 414.9 
L 802.714489 414.9 
z
" clip-path="url(#p69ae741909)" style="fill: none; stroke: #808080; stroke-linejoin: miter"/>
   </g>
   <g id="patch_26">
    <path d="M 802.714489 414.9 
C 790.42775 414.9 778.642589 419.781573 769.954553 428.46961 
C 761.266516 437.157646 756.384943 448.942806 756.384943 461.229545 
C 756.384943 473.516285 761.266516 485.301445 769.954553 493.989481 
C 778.642589 502.677518 790.42775 507.559091 802.714489 507.559091 
C 815.001228 507.559091 826.786388 502.677518 835.474424 493.989481 
C 844.162461 485.301445 849.044034 473.516285 849.044034 461.229545 
C 849.044034 448.942806 844.162461 437.157646 835.474424 428.46961 
C 826.786388 419.781573 815.001228 414.9 802.714489 414.9 
L 802.714489 414.9 
z
" clip-path="url(#p69ae741909)" style="fill: none; stroke: #808080; stroke-linejoin: miter"/>
   </g>
   <g id="patch_27">
    <path d="M 802.714489 414.9 
C 796.571119 414.9 790.678539 417.340787 786.334521 421.684805 
C 781.990502 426.028823 779.549716 431.921403 779.549716 438.064773 
C 779.549716 444.208142 781.990502 450.100722 786.334521 454.444741 
C 790.678539 458.788759 796.571119 461.229545 802.714489 461.229545 
C 808.857858 461.229545 814.750438 458.788759 819.094457 454.444741 
C 823.438475 450.100722 825.879261 444.208142 825.879261 438.064773 
C 825.879261 431.921403 823.438475 426.028823 819.094457 421.684805 
C 814.750438 417.340787 808.857858 414.9 802.714489 414.9 
L 802.714489 414.9 
z
" clip-path="url(#p69ae741909)" style="fill: none; stroke: #808080; stroke-linejoin: miter"/>
   </g>
   <g id="patch_28">
    <path d="M 802.714489 414.9 
C 799.642804 414.9 796.696514 416.120393 794.524505 418.292402 
C 792.352496 420.464412 791.132102 423.410702 791.132102 426.482386 
C 791.132102 429.554071 792.352496 432.500361 794.524505 434.67237 
C 796.696514 436.844379 799.642804 438.064773 802.714489 438.064773 
C 805.786173 438.064773 808.732463 436.844379 810.904473 434.67237 
C 813.076482 432.500361 814.296875 429.554071 814.296875 426.482386 
C 814.296875 423.410702 813.076482 420.464412 810.904473 418.292402 
C 808.732463 416.120393 805.786173 414.9 802.714489 414.9 
L 802.714489 414.9 
z
" clip-path="url(#p69ae741909)" style="fill: none; stroke: #808080; stroke-linejoin: miter"/>
   </g>
   <g id="patch_29">
    <path d="M 432.078125 785.536364 
C 530.372038 785.536364 624.653319 746.483778 694.157611 676.979486 
C 763.661903 607.475194 802.714489 513.193913 802.714489 414.9 
C 802.714489 316.606087 763.661903 222.324806 694.157611 152.820514 
C 624.653319 83.316222 530.372038 44.263636 432.078125 44.263636 
C 333.784212 44.263636 239.502931 83.316222 169.998639 152.820514 
C 100.494347 222.324806 61.441761 316.606087 61.441761 414.9 
C 61.441761 513.193913 100.494347 607.475194 169.998639 676.979486 
C 239.502931 746.483778 333.784212 785.536364 432.078125 785.536364 
L 432.078125 785.536364 
z
" clip-path="url(#p69ae741909)" style="fill: none; stroke: #000000; stroke-linejoin: miter"/>
   </g>
   <g id="patch_30">
    <path d="M 617.396307 600.218182 
C 666.543263 600.218182 713.683904 580.691889 748.43605 545.939743 
C 783.188196 511.187597 802.714489 464.046956 802.714489 414.9 
C 802.714489 365.753044 783.188196 318.612403 748.43605 283.860257 
C 713.683904 249.108111 666.543263 229.581818 617.396307 229.581818 
C 568.249351 229.581818 521.10871 249.108111 486.356564 283.860257 
C 451.604418 318.612403 432.078125 365.753044 432.078125 414.9 
C 432.078125 464.046956 451.604418 511.187597 486.356564 545.939743 
C 521.10871 580.691889 568.249351 600.218182 617.396307 600.218182 
L 617.396307 600.218182 
z
" clip-path="url(#p69ae741909)" style="fill: none; stroke: #000000; stroke-linejoin: miter"/>
   </g>
   <g id="patch_31">
    <path d="M 802.714489 414.9 
C 901.008401 414.9 995.289683 375.847415 1064.793975 306.343122 
C 1134.298267 236.83883 1173.350852 142.557549 1173.350852 44.263636 
C 1173.350852 -54.030276 1134.298267 -148.311558 1064.793975 -217.81585 
C 995.289683 -287.320142 901.008401 -326.372727 802.714489 -326.372727 
C 704.420576 -326.372727 610.139295 -287.320142 540.635003 -217.81585 
C 471.13071 -148.311558 432.078125 -54.030276 432.078125 44.263636 
C 432.078125 142.557549 471.13071 236.83883 540.635003 306.343122 
C 610.139295 375.847415 704.420576 414.9 802.714489 414.9 
L 802.714489 414.9 
z
" clip-path="url(#p69ae741909)" style="fill: none; stroke: #000000; stroke-linejoin: miter"/>
   </g>
   <g id="patch_32">
    <path d="M 802.714489 414.9 
C 704.420576 414.9 610.139295 453.952585 540.635003 523.456878 
C 471.13071 592.96117 432.078125 687.242451 432.078125 785.536364 
C 432.078125 883.830276 471.13071 978.111558 540.635003 1047.61585 
C 610.139295 1117.120142 704.420576 1156.172727 802.714489 1156.172727 
C 901.008401 1156.172727 995.289683 1117.120142 1064.793975 1047.61585 
C 1134.298267 978.111558 1173.350852 883.830276 1173.350852 785.536364 
C 1173.350852 687.242451 1134.298267 592.96117 1064.793975 523.456878 
C 995.289683 453.952585 901.008401 414.9 802.714489 414.9 
L 802.714489 414.9 
z
" clip-path="url(#p69ae741909)" style="fill: none; stroke: #000000; stroke-linejoin: miter"/>
   </g>
   <g id="matplotlib.axis_1">
    <g id="text_1">
     <!-- Reëel deel -->
     <g transform="translate(405.904688 837.698438)scale(0.1 -0.1)">
      <defs>
       <path id="DejaVuSans-52" d="M 2841 2188 
Q 3044 2119 3236 1894 
Q 3428 1669 3622 1275 
L 4263 0 
L 3584 0 
L 2988 1197 
Q 2756 1666 2539 1819 
Q 2322 1972 1947 1972 
L 1259 1972 
L 1259 0 
L 628 0 
L 628 4666 
L 2053 4666 
Q 2853 4666 3247 4331 
Q 3641 3997 3641 3322 
Q 3641 2881 3436 2590 
Q 3231 2300 2841 2188 
z
M 1259 4147 
L 1259 2491 
L 2053 2491 
Q 2509 2491 2742 2702 
Q 2975 2913 2975 3322 
Q 2975 3731 2742 3939 
Q 2509 4147 2053 4147 
L 1259 4147 
z
" transform="scale(0.015625)"/>
       <path id="DejaVuSans-65" d="M 3597 1894 
L 3597 1613 
L 953 1613 
Q 991 1019 1311 708 
Q 1631 397 2203 397 
Q 2534 397 2845 478 
Q 3156 559 3463 722 
L 3463 178 
Q 3153 47 2828 -22 
Q 2503 -91 2169 -91 
Q 1331 -91 842 396 
Q 353 884 353 1716 
Q 353 2575 817 3079 
Q 1281 3584 2069 3584 
Q 2775 3584 3186 3129 
Q 3597 2675 3597 1894 
z
M 3022 2063 
Q 3016 2534 2758 2815 
Q 2500 3097 2075 3097 
Q 1594 3097 1305 2825 
Q 1016 2553 972 2059 
L 3022 2063 
z
" transform="scale(0.015625)"/>
       <path id="DejaVuSans-eb" d="M 3597 1894 
L 3597 1613 
L 953 1613 
Q 991 1019 1311 708 
Q 1631 397 2203 397 
Q 2534 397 2845 478 
Q 3156 559 3463 722 
L 3463 178 
Q 3153 47 2828 -22 
Q 2503 -91 2169 -91 
Q 1331 -91 842 396 
Q 353 884 353 1716 
Q 353 2575 817 3079 
Q 1281 3584 2069 3584 
Q 2775 3584 3186 3129 
Q 3597 2675 3597 1894 
z
M 3022 2063 
Q 3016 2534 2758 2815 
Q 2500 3097 2075 3097 
Q 1594 3097 1305 2825 
Q 1016 2553 972 2059 
L 3022 2063 
z
M 2328 4850 
L 2963 4850 
L 2963 4219 
L 2328 4219 
L 2328 4850 
z
M 1106 4850 
L 1741 4850 
L 1741 4219 
L 1106 4219 
L 1106 4850 
z
" transform="scale(0.015625)"/>
       <path id="DejaVuSans-6c" d="M 603 4863 
L 1178 4863 
L 1178 0 
L 603 0 
L 603 4863 
z
" transform="scale(0.015625)"/>
       <path id="DejaVuSans-20" transform="scale(0.015625)"/>
       <path id="DejaVuSans-64" d="M 2906 2969 
L 2906 4863 
L 3481 4863 
L 3481 0 
L 2906 0 
L 2906 525 
Q 2725 213 2448 61 
Q 2172 -91 1784 -91 
Q 1150 -91 751 415 
Q 353 922 353 1747 
Q 353 2572 751 3078 
Q 1150 3584 1784 3584 
Q 2172 3584 2448 3432 
Q 2725 3281 2906 2969 
z
M 947 1747 
Q 947 1113 1208 752 
Q 1469 391 1925 391 
Q 2381 391 2643 752 
Q 2906 1113 2906 1747 
Q 2906 2381 2643 2742 
Q 2381 3103 1925 3103 
Q 1469 3103 1208 2742 
Q 947 2381 947 1747 
z
" transform="scale(0.015625)"/>
      </defs>
      <use xlink:href="#DejaVuSans-52"/>
      <use xlink:href="#DejaVuSans-65" x="64.982422"/>
      <use xlink:href="#DejaVuSans-eb" x="126.505859"/>
      <use xlink:href="#DejaVuSans-65" x="188.029297"/>
      <use xlink:href="#DejaVuSans-6c" x="249.552734"/>
      <use xlink:href="#DejaVuSans-20" x="277.335938"/>
      <use xlink:href="#DejaVuSans-64" x="309.123047"/>
      <use xlink:href="#DejaVuSans-65" x="372.599609"/>
      <use xlink:href="#DejaVuSans-65" x="434.123047"/>
      <use xlink:href="#DejaVuSans-6c" x="495.646484"/>
     </g>
    </g>
   </g>
   <g id="matplotlib.axis_2">
    <g id="text_2">
     <!-- Imaginair deel -->
     <g transform="translate(14.798438 450.855469)rotate(-90)scale(0.1 -0.1)">
      <defs>
       <path id="DejaVuSans-49" d="M 628 4666 
L 1259 4666 
L 1259 0 
L 628 0 
L 628 4666 
z
" transform="scale(0.015625)"/>
       <path id="DejaVuSans-6d" d="M 3328 2828 
Q 3544 3216 3844 3400 
Q 4144 3584 4550 3584 
Q 5097 3584 5394 3201 
Q 5691 2819 5691 2113 
L 5691 0 
L 5113 0 
L 5113 2094 
Q 5113 2597 4934 2840 
Q 4756 3084 4391 3084 
Q 3944 3084 3684 2787 
Q 3425 2491 3425 1978 
L 3425 0 
L 2847 0 
L 2847 2094 
Q 2847 2600 2669 2842 
Q 2491 3084 2119 3084 
Q 1678 3084 1418 2786 
Q 1159 2488 1159 1978 
L 1159 0 
L 581 0 
L 581 3500 
L 1159 3500 
L 1159 2956 
Q 1356 3278 1631 3431 
Q 1906 3584 2284 3584 
Q 2666 3584 2933 3390 
Q 3200 3197 3328 2828 
z
" transform="scale(0.015625)"/>
       <path id="DejaVuSans-61" d="M 2194 1759 
Q 1497 1759 1228 1600 
Q 959 1441 959 1056 
Q 959 750 1161 570 
Q 1363 391 1709 391 
Q 2188 391 2477 730 
Q 2766 1069 2766 1631 
L 2766 1759 
L 2194 1759 
z
M 3341 1997 
L 3341 0 
L 2766 0 
L 2766 531 
Q 2569 213 2275 61 
Q 1981 -91 1556 -91 
Q 1019 -91 701 211 
Q 384 513 384 1019 
Q 384 1609 779 1909 
Q 1175 2209 1959 2209 
L 2766 2209 
L 2766 2266 
Q 2766 2663 2505 2880 
Q 2244 3097 1772 3097 
Q 1472 3097 1187 3025 
Q 903 2953 641 2809 
L 641 3341 
Q 956 3463 1253 3523 
Q 1550 3584 1831 3584 
Q 2591 3584 2966 3190 
Q 3341 2797 3341 1997 
z
" transform="scale(0.015625)"/>
       <path id="DejaVuSans-67" d="M 2906 1791 
Q 2906 2416 2648 2759 
Q 2391 3103 1925 3103 
Q 1463 3103 1205 2759 
Q 947 2416 947 1791 
Q 947 1169 1205 825 
Q 1463 481 1925 481 
Q 2391 481 2648 825 
Q 2906 1169 2906 1791 
z
M 3481 434 
Q 3481 -459 3084 -895 
Q 2688 -1331 1869 -1331 
Q 1566 -1331 1297 -1286 
Q 1028 -1241 775 -1147 
L 775 -588 
Q 1028 -725 1275 -790 
Q 1522 -856 1778 -856 
Q 2344 -856 2625 -561 
Q 2906 -266 2906 331 
L 2906 616 
Q 2728 306 2450 153 
Q 2172 0 1784 0 
Q 1141 0 747 490 
Q 353 981 353 1791 
Q 353 2603 747 3093 
Q 1141 3584 1784 3584 
Q 2172 3584 2450 3431 
Q 2728 3278 2906 2969 
L 2906 3500 
L 3481 3500 
L 3481 434 
z
" transform="scale(0.015625)"/>
       <path id="DejaVuSans-69" d="M 603 3500 
L 1178 3500 
L 1178 0 
L 603 0 
L 603 3500 
z
M 603 4863 
L 1178 4863 
L 1178 4134 
L 603 4134 
L 603 4863 
z
" transform="scale(0.015625)"/>
       <path id="DejaVuSans-6e" d="M 3513 2113 
L 3513 0 
L 2938 0 
L 2938 2094 
Q 2938 2591 2744 2837 
Q 2550 3084 2163 3084 
Q 1697 3084 1428 2787 
Q 1159 2491 1159 1978 
L 1159 0 
L 581 0 
L 581 3500 
L 1159 3500 
L 1159 2956 
Q 1366 3272 1645 3428 
Q 1925 3584 2291 3584 
Q 2894 3584 3203 3211 
Q 3513 2838 3513 2113 
z
" transform="scale(0.015625)"/>
       <path id="DejaVuSans-72" d="M 2631 2963 
Q 2534 3019 2420 3045 
Q 2306 3072 2169 3072 
Q 1681 3072 1420 2755 
Q 1159 2438 1159 1844 
L 1159 0 
L 581 0 
L 581 3500 
L 1159 3500 
L 1159 2956 
Q 1341 3275 1631 3429 
Q 1922 3584 2338 3584 
Q 2397 3584 2469 3576 
Q 2541 3569 2628 3553 
L 2631 2963 
z
" transform="scale(0.015625)"/>
      </defs>
      <use xlink:href="#DejaVuSans-49"/>
      <use xlink:href="#DejaVuSans-6d" x="29.492188"/>
      <use xlink:href="#DejaVuSans-61" x="126.904297"/>
      <use xlink:href="#DejaVuSans-67" x="188.183594"/>
      <use xlink:href="#DejaVuSans-69" x="251.660156"/>
      <use xlink:href="#DejaVuSans-6e" x="279.443359"/>
      <use xlink:href="#DejaVuSans-61" x="342.822266"/>
      <use xlink:href="#DejaVuSans-69" x="404.101562"/>
      <use xlink:href="#DejaVuSans-72" x="431.884766"/>
      <use xlink:href="#DejaVuSans-20" x="472.998047"/>
      <use xlink:href="#DejaVuSans-64" x="504.785156"/>
      <use xlink:href="#DejaVuSans-65" x="568.261719"/>
      <use xlink:href="#DejaVuSans-65" x="629.785156"/>
      <use xlink:href="#DejaVuSans-6c" x="691.308594"/>
     </g>
    </g>
   </g>
   <g id="line2d_1">
    <path d="M 24.378125 414.9 
L 839.778125 414.9 
" clip-path="url(#p69ae741909)" style="fill: none; stroke: #000000; stroke-width: 0.1; stroke-linecap: square"/>
   </g>
   <g id="line2d_2">
    <path d="M 802.714489 822.6 
L 802.714489 7.2 
" clip-path="url(#p69ae741909)" style="fill: none; stroke: #000000; stroke-width: 1.5; stroke-linecap: square"/>
   </g>
   <g id="line2d_3"/>
   <g id="line2d_4">
    <path d="M 422.04788 156.585725 
L 426.557614 156.450016 
L 431.069029 156.393033 
L 435.580751 156.414794 
L 440.091406 156.515291 
L 444.599621 156.694496 
L 449.104021 156.952352 
L 453.603235 157.288781 
L 458.095893 157.703682 
L 462.580625 158.196927 
L 467.056065 158.768366 
L 471.520851 159.417825 
L 475.973623 160.145107 
L 480.413023 160.949989 
L 484.837701 161.832227 
L 489.246307 162.791552 
L 493.637499 163.827672 
L 498.009939 164.940271 
L 502.362296 166.12901 
L 506.693244 167.393527 
L 511.001463 168.733437 
L 515.285642 170.148331 
L 519.544475 171.637779 
L 523.776664 173.201328 
L 527.980922 174.8385 
L 532.155966 176.548797 
L 536.300526 178.331698 
L 540.413338 180.18666 
L 544.493151 182.113118 
L 548.538721 184.110486 
L 552.548816 186.178154 
L 556.522214 188.315493 
L 560.457706 190.521851 
L 564.354091 192.796558 
L 568.210185 195.138919 
L 572.024811 197.548222 
L 575.796808 200.023732 
L 579.525027 202.564696 
L 583.208332 205.170339 
L 586.845601 207.839867 
L 590.435727 210.572468 
L 593.977616 213.36731 
L 597.470188 216.22354 
L 600.91238 219.140289 
L 604.303144 222.116668 
L 607.641446 225.151771 
L 610.92627 228.244673 
L 614.156616 231.394432 
" clip-path="url(#p380137bee6)" style="fill: none; stroke: #1f77b4; stroke-width: 1.5; stroke-linecap: square"/>
   </g>
   <g id="line2d_5">
    <path d="M 61.441761 414.9 
L 61.498211 408.431504 
L 61.667543 401.964977 
L 61.949706 395.502391 
L 62.344613 389.045714 
L 62.852145 382.596912 
L 63.472146 376.15795 
L 64.204429 369.73079 
L 65.048769 363.317388 
L 66.00491 356.919699 
L 67.072561 350.539671 
L 68.251395 344.179248 
L 69.541055 337.840367 
L 70.941147 331.524959 
L 72.451245 325.234948 
L 74.070889 318.97225 
L 75.799586 312.738773 
L 77.636808 306.536415 
L 79.581996 300.367065 
L 81.634558 294.232603 
L 83.793869 288.134898 
L 86.059271 282.075806 
L 88.430073 276.057174 
L 90.905553 270.080835 
L 93.484959 264.14861 
L 96.167502 258.262304 
L 98.952368 252.423712 
L 101.838707 246.634612 
L 104.82564 240.896767 
L 107.912257 235.211925 
L 111.097619 229.581818 
L 114.380754 224.008161 
L 117.760662 218.492651 
L 121.236315 213.036969 
L 124.806654 207.642776 
L 128.47059 202.311715 
L 132.227008 197.045411 
L 136.074764 191.845468 
L 140.012685 186.71347 
L 144.039572 181.650979 
L 148.154198 176.659538 
L 152.355311 171.740667 
L 156.641629 166.895865 
L 161.011848 162.126608 
L 165.464637 157.434348 
L 169.998639 152.820514 
L 174.612473 148.286512 
L 179.304733 143.833723 
L 184.07399 139.463504 
L 188.918792 135.177186 
L 193.837663 130.976073 
L 198.829104 126.861447 
L 203.891595 122.83456 
L 209.023593 118.896639 
L 214.223536 115.048883 
L 219.48984 111.292465 
L 224.820901 107.628529 
L 230.215094 104.05819 
L 235.670776 100.582537 
L 241.186286 97.202629 
L 246.759943 93.919494 
L 252.39005 90.734132 
L 258.074892 87.647515 
L 263.812737 84.660582 
L 269.601837 81.774243 
L 275.440429 78.989377 
L 281.326735 76.306834 
L 287.25896 73.727428 
L 293.235299 71.251948 
L 299.253931 68.881146 
L 305.313023 66.615744 
L 311.410728 64.456433 
L 317.54519 62.403871 
L 323.71454 60.458683 
L 329.916898 58.621461 
L 336.150375 56.892764 
L 342.413073 55.27312 
L 348.703084 53.763022 
L 355.018492 52.36293 
L 361.357373 51.07327 
L 367.717796 49.894436 
L 374.097824 48.826785 
L 380.495513 47.870644 
L 386.908915 47.026304 
L 393.336075 46.294021 
L 399.775037 45.67402 
L 406.223839 45.166488 
L 412.680516 44.771581 
L 419.143102 44.489418 
L 425.609629 44.320086 
L 432.078125 44.263636 
L 438.546621 44.320086 
L 445.013148 44.489418 
L 451.475734 44.771581 
L 457.932411 45.166488 
L 464.381213 45.67402 
L 470.820175 46.294021 
L 477.247335 47.026304 
L 483.660737 47.870644 
L 490.058426 48.826785 
L 496.438454 49.894436 
L 502.798877 51.07327 
L 509.137758 52.36293 
L 515.453166 53.763022 
L 521.743177 55.27312 
L 528.005875 56.892764 
L 534.239352 58.621461 
L 540.44171 60.458683 
L 546.61106 62.403871 
L 552.745522 64.456433 
L 558.843227 66.615744 
L 564.902319 68.881146 
L 570.920951 71.251948 
L 576.89729 73.727428 
L 582.829515 76.306834 
L 588.715821 78.989377 
L 594.554413 81.774243 
L 600.343513 84.660582 
L 606.081358 87.647515 
L 611.7662 90.734132 
L 617.396307 93.919494 
L 622.969964 97.202629 
L 628.485474 100.582537 
L 633.941156 104.05819 
L 639.335349 107.628529 
L 644.66641 111.292465 
L 649.932714 115.048883 
L 655.132657 118.896639 
L 660.264655 122.83456 
L 665.327146 126.861447 
L 670.318587 130.976073 
L 675.237458 135.177186 
L 680.08226 139.463504 
L 684.851517 143.833723 
L 689.543777 148.286512 
L 694.157611 152.820514 
L 698.691613 157.434348 
L 703.144402 162.126608 
L 707.514621 166.895865 
L 711.800939 171.740667 
L 716.002052 176.659538 
L 720.116678 181.650979 
L 724.143565 186.71347 
L 728.081486 191.845468 
L 731.929242 197.045411 
L 735.68566 202.311715 
L 739.349596 207.642776 
L 742.919935 213.036969 
L 746.395588 218.492651 
L 749.775496 224.008161 
L 753.058631 229.581818 
L 756.243993 235.211925 
L 759.33061 240.896767 
L 762.317543 246.634612 
L 765.203882 252.423712 
L 767.988748 258.262304 
L 770.671291 264.14861 
L 773.250697 270.080835 
L 775.726177 276.057174 
L 778.096979 282.075806 
L 780.362381 288.134898 
L 782.521692 294.232603 
L 784.574254 300.367065 
L 786.519442 306.536415 
L 788.356664 312.738773 
L 790.085361 318.97225 
L 791.705005 325.234948 
L 793.215103 331.524959 
L 794.615195 337.840367 
L 795.904855 344.179248 
L 797.083689 350.539671 
L 798.15134 356.919699 
L 799.107481 363.317388 
L 799.951821 369.73079 
L 800.684104 376.15795 
L 801.304105 382.596912 
L 801.811637 389.045714 
L 802.206544 395.502391 
L 802.488707 401.964977 
L 802.658039 408.431504 
L 802.714489 414.9 
L 802.658039 421.368496 
L 802.488707 427.835023 
L 802.206544 434.297609 
L 801.811637 440.754286 
L 801.304105 447.203088 
L 800.684104 453.64205 
L 799.951821 460.06921 
L 799.107481 466.482612 
L 798.15134 472.880301 
L 797.083689 479.260329 
L 795.904855 485.620752 
L 794.615195 491.959633 
L 793.215103 498.275041 
L 791.705005 504.565052 
L 790.085361 510.82775 
L 788.356664 517.061227 
L 786.519442 523.263585 
L 784.574254 529.432935 
L 782.521692 535.567397 
L 780.362381 541.665102 
L 778.096979 547.724194 
L 775.726177 553.742826 
L 773.250697 559.719165 
L 770.671291 565.65139 
L 767.988748 571.537696 
L 765.203882 577.376288 
L 762.317543 583.165388 
L 759.33061 588.903233 
L 756.243993 594.588075 
L 753.058631 600.218182 
L 749.775496 605.791839 
L 746.395588 611.307349 
L 742.919935 616.763031 
L 739.349596 622.157224 
L 735.68566 627.488285 
L 731.929242 632.754589 
L 728.081486 637.954532 
L 724.143565 643.08653 
L 720.116678 648.149021 
L 716.002052 653.140462 
L 711.800939 658.059333 
L 707.514621 662.904135 
L 703.144402 667.673392 
L 698.691613 672.365652 
L 694.157611 676.979486 
L 689.543777 681.513488 
L 684.851517 685.966277 
L 680.08226 690.336496 
L 675.237458 694.622814 
L 670.318587 698.823927 
L 665.327146 702.938553 
L 660.264655 706.96544 
L 655.132657 710.903361 
L 649.932714 714.751117 
L 649.932714 714.751117 
" clip-path="url(#p380137bee6)" style="fill: none; stroke: #ff7f0e; stroke-width: 1.5; stroke-linecap: square"/>
   </g>
   <g id="line2d_6">
    <path d="M 614.156616 231.394432 
" clip-path="url(#p380137bee6)" style="fill: none; stroke: #008000; stroke-width: 1.5; stroke-linecap: square"/>
    <defs>
     <path id="m6c9bfb4b7b" d="M 0 5 
C 1.326016 5 2.597899 4.473168 3.535534 3.535534 
C 4.473168 2.597899 5 1.326016 5 0 
C 5 -1.326016 4.473168 -2.597899 3.535534 -3.535534 
C 2.597899 -4.473168 1.326016 -5 0 -5 
C -1.326016 -5 -2.597899 -4.473168 -3.535534 -3.535534 
C -4.473168 -2.597899 -5 -1.326016 -5 0 
C -5 1.326016 -4.473168 2.597899 -3.535534 3.535534 
C -2.597899 4.473168 -1.326016 5 0 5 
z
" style="stroke: #008000"/>
    </defs>
    <g clip-path="url(#p380137bee6)">
     <use xlink:href="#m6c9bfb4b7b" x="614.156616" y="231.394432" style="fill: #008000; stroke: #008000"/>
    </g>
   </g>
   <g id="line2d_7">
    <path d="M 422.04788 156.585725 
" clip-path="url(#p380137bee6)" style="fill: none; stroke: #ff0000; stroke-width: 1.5; stroke-linecap: square"/>
    <defs>
     <path id="mce626f4211" d="M 0 3.75 
C 0.994512 3.75 1.948425 3.354876 2.65165 2.65165 
C 3.354876 1.948425 3.75 0.994512 3.75 0 
C 3.75 -0.994512 3.354876 -1.948425 2.65165 -2.65165 
C 1.948425 -3.354876 0.994512 -3.75 0 -3.75 
C -0.994512 -3.75 -1.948425 -3.354876 -2.65165 -2.65165 
C -3.354876 -1.948425 -3.75 -0.994512 -3.75 0 
C -3.75 0.994512 -3.354876 1.948425 -2.65165 2.65165 
C -1.948425 3.354876 -0.994512 3.75 0 3.75 
z
" style="stroke: #ff0000"/>
    </defs>
    <g clip-path="url(#p380137bee6)">
     <use xlink:href="#mce626f4211" x="422.04788" y="156.585725" style="fill: #ff0000; stroke: #ff0000"/>
    </g>
   </g>
   <g id="line2d_8">
    <path d="M 649.932714 714.751117 
" clip-path="url(#p380137bee6)" style="fill: none; stroke: #008000; stroke-width: 1.5; stroke-linecap: square"/>
    <g clip-path="url(#p380137bee6)">
     <use xlink:href="#m6c9bfb4b7b" x="649.932714" y="714.751117" style="fill: #008000; stroke: #008000"/>
    </g>
   </g>
   <g id="line2d_9">
    <path d="M 61.441761 414.9 
" clip-path="url(#p380137bee6)" style="fill: none; stroke: #0000ff; stroke-width: 1.5; stroke-linecap: square"/>
    <defs>
     <path id="m3e6cab673e" d="M 0 3.75 
C 0.994512 3.75 1.948425 3.354876 2.65165 2.65165 
C 3.354876 1.948425 3.75 0.994512 3.75 0 
C 3.75 -0.994512 3.354876 -1.948425 2.65165 -2.65165 
C 1.948425 -3.354876 0.994512 -3.75 0 -3.75 
C -0.994512 -3.75 -1.948425 -3.354876 -2.65165 -2.65165 
C -3.354876 -1.948425 -3.75 -0.994512 -3.75 0 
C -3.75 0.994512 -3.354876 1.948425 -2.65165 2.65165 
C -1.948425 3.354876 -0.994512 3.75 0 3.75 
z
" style="stroke: #0000ff"/>
    </defs>
    <g clip-path="url(#p380137bee6)">
     <use xlink:href="#m3e6cab673e" x="61.441761" y="414.9" style="fill: #0000ff; stroke: #0000ff"/>
    </g>
   </g>
   <g id="patch_33">
    <path d="M 24.378125 822.6 
L 24.378125 7.2 
" style="fill: none"/>
   </g>
   <g id="patch_34">
    <path d="M 839.778125 822.6 
L 839.778125 7.2 
" style="fill: none"/>
   </g>
   <g id="patch_35">
    <path d="M 24.378125 822.6 
L 839.778125 822.6 
" style="fill: none"/>
   </g>
   <g id="patch_36">
    <path d="M 24.378125 7.2 
L 839.778125 7.2 
" style="fill: none"/>
   </g>
  </g>
 </g>
 <defs>
  <clipPath id="p380137bee6">
   <rect x="24.378125" y="7.2" width="815.4" height="815.4"/>
  </clipPath>
  <clipPath id="p69ae741909">
   <path d="M 432.078125 785.536364 
C 530.372038 785.536364 624.653319 746.483778 694.157611 676.979486 
C 763.661903 607.475194 802.714489 513.193913 802.714489 414.9 
C 802.714489 316.606087 763.661903 222.324806 694.157611 152.820514 
C 624.653319 83.316222 530.372038 44.263636 432.078125 44.263636 
C 333.784212 44.263636 239.502931 83.316222 169.998639 152.820514 
C 100.494347 222.324806 61.441761 316.606087 61.441761 414.9 
C 61.441761 513.193913 100.494347 607.475194 169.998639 676.979486 
C 239.502931 746.483778 333.784212 785.536364 432.078125 785.536364 
z
"/>
  </clipPath>
 </defs>
</svg>