<?xml version="1.0" encoding="utf-8" standalone="no"?>
<!DOCTYPE svg PUBLIC "-//W3C//DTD SVG 1.1//EN"
  "http://www.w3.org/Graphics/SVG/1.1/DTD/svg11.dtd">
<svg xmlns:xlink="http://www.w3.org/1999/xlink" width="261.36pt" height="296.443656pt" viewBox="0 0 261.36 296.443656" xmlns="http://www.w3.org/2000/svg" version="1.1">
 <metadata>
  <rdf:RDF xmlns:dc="http://purl.org/dc/elements/1.1/" xmlns:cc="http://creativecommons.org/ns#" xmlns:rdf="http://www.w3.org/1999/02/22-rdf-syntax-ns#">
   <cc:Work>
    <dc:type rdf:resource="http://purl.org/dc/dcmitype/StillImage"/>
    <dc:date>2023-12-30T15:32:24.566570</dc:date>
    <dc:format>image/svg+xml</dc:format>
    <dc:creator>
     <cc:Agent>
      <dc:title>Matplotlib v3.8.2, https://matplotlib.org/</dc:title>
     </cc:Agent>
    </dc:creator>
   </cc:Work>
  </rdf:RDF>
 </metadata>
 <defs>
  <style type="text/css">*{stroke-linejoin: round; stroke-linecap: butt}</style>
 </defs>
 <g id="figure_1">
  <g id="patch_1">
   <path d="M 0 296.443656 
L 261.36 296.443656 
L 261.36 0 
L 0 0 
z
" style="fill: #ffffff"/>
  </g>
  <g id="axes_1">
   <g id="patch_2">
    <path d="M 31.275 238.777656 
C 33.661828 238.777656 35.951219 237.829359 37.638961 236.141617 
C 39.326703 234.453875 40.275 232.164484 40.275 229.777656 
C 40.275 227.390828 39.326703 225.101437 37.638961 223.413695 
C 35.951219 221.725953 33.661828 220.777656 31.275 220.777656 
C 28.888172 220.777656 26.598781 221.725953 24.911039 223.413695 
C 23.223297 225.101437 22.275 227.390828 22.275 229.777656 
C 22.275 232.164484 23.223297 234.453875 24.911039 236.141617 
C 26.598781 237.829359 28.888172 238.777656 31.275 238.777656 
L 31.275 238.777656 
z
" clip-path="url(#pe3e220b63f)" style="fill: none; stroke: #000000; stroke-width: 2; stroke-linejoin: miter"/>
   </g>
   <g id="line2d_1">
    <path d="M 139.275 202.777656 
L 152.475 202.777656 
" clip-path="url(#pe3e220b63f)" style="fill: none; stroke: #000000; stroke-width: 2; stroke-linecap: round"/>
   </g>
   <g id="line2d_2">
    <path d="M 152.475 189.577656 
L 152.475 215.977656 
" clip-path="url(#pe3e220b63f)" style="fill: none; stroke: #000000; stroke-width: 2; stroke-linecap: round"/>
   </g>
   <g id="line2d_3">
    <path d="M 152.475 196.177656 
L 166.335 184.297656 
L 166.335 177.697656 
" clip-path="url(#pe3e220b63f)" style="fill: none; stroke: #000000; stroke-width: 2; stroke-linecap: round"/>
   </g>
   <g id="line2d_4">
    <path d="M 152.475 209.377656 
L 166.335 221.257656 
L 166.335 227.857656 
" clip-path="url(#pe3e220b63f)" style="fill: none; stroke: #000000; stroke-width: 2; stroke-linecap: round"/>
   </g>
   <g id="line2d_5">
    <path d="M 152.475 209.377656 
L 159.501691 215.400534 
" clip-path="url(#pe3e220b63f)" style="fill: none; stroke: #000000; stroke-width: 2; stroke-linecap: round"/>
   </g>
   <g id="patch_3">
    <path d="M 161.84454 212.66721 
L 166.335 221.257656 
L 157.158842 218.133858 
z
" clip-path="url(#pe3e220b63f)"/>
   </g>
   <g id="line2d_6">
    <path d="M 139.275 202.777656 
L 103.275 202.777656 
L 100.275 211.777656 
L 94.275 193.777656 
L 88.275 211.777656 
L 82.275 193.777656 
L 76.275 211.777656 
L 70.275 193.777656 
L 67.275 202.777656 
L 31.275 202.777656 
" clip-path="url(#pe3e220b63f)" style="fill: none; stroke: #000000; stroke-width: 2; stroke-linecap: round"/>
   </g>
   <g id="line2d_7">
    <path d="M 31.275 202.777656 
L 31.275 220.777656 
L 31.275 220.777656 
M 31.275 238.777656 
L 31.275 238.777656 
L 31.275 256.777656 
" clip-path="url(#pe3e220b63f)" style="fill: none; stroke: #000000; stroke-width: 2; stroke-linecap: round"/>
   </g>
   <g id="line2d_8">
    <path d="M 29.475 225.277656 
L 33.075 225.277656 
" clip-path="url(#pe3e220b63f)" style="fill: none; stroke: #000000; stroke-width: 2; stroke-linecap: round"/>
   </g>
   <g id="line2d_9">
    <path d="M 31.275 232.477656 
L 31.275 236.077656 
" clip-path="url(#pe3e220b63f)" style="fill: none; stroke: #000000; stroke-width: 2; stroke-linecap: round"/>
   </g>
   <g id="line2d_10">
    <path d="M 29.475 234.277656 
L 33.075 234.277656 
" clip-path="url(#pe3e220b63f)" style="fill: none; stroke: #000000; stroke-width: 2; stroke-linecap: round"/>
   </g>
   <g id="line2d_11">
    <path d="M 31.275 256.777656 
L 98.805 256.777656 
L 166.335 256.777656 
" clip-path="url(#pe3e220b63f)" style="fill: none; stroke: #000000; stroke-width: 2; stroke-linecap: round"/>
   </g>
   <g id="line2d_12">
    <path d="M 166.335 256.777656 
L 166.335 271.177656 
L 157.335 271.177656 
L 175.335 271.177656 
M 160.035 275.497656 
L 172.635 275.497656 
M 164.535 279.817656 
L 168.135 279.817656 
" clip-path="url(#pe3e220b63f)" style="fill: none; stroke: #000000; stroke-width: 2; stroke-linecap: round"/>
   </g>
   <g id="line2d_13">
    <path d="M 166.335 256.777656 
L 166.335 242.317656 
L 166.335 227.857656 
" clip-path="url(#pe3e220b63f)" style="fill: none; stroke: #000000; stroke-width: 2; stroke-linecap: round"/>
   </g>
   <g id="line2d_14">
    <path d="M 166.335 177.697656 
L 166.335 164.197656 
L 166.335 150.697656 
" clip-path="url(#pe3e220b63f)" style="fill: none; stroke: #000000; stroke-width: 2; stroke-linecap: round"/>
   </g>
   <g id="line2d_15">
    <path d="M 166.335 150.697656 
L 166.335 99.937656 
M 157.335 99.937656 
L 175.335 99.937656 
M 157.335 93.457656 
L 175.335 93.457656 
M 166.335 93.457656 
L 166.335 42.697656 
" clip-path="url(#pe3e220b63f)" style="fill: none; stroke: #000000; stroke-width: 2; stroke-linecap: round"/>
   </g>
   <g id="line2d_16">
    <path d="M 166.335 150.697656 
L 143.835 150.697656 
L 121.335 150.697656 
" clip-path="url(#pe3e220b63f)" style="fill: none; stroke: #000000; stroke-width: 2; stroke-linecap: round"/>
   </g>
   <g id="line2d_17">
    <path d="M 121.335 150.697656 
L 121.335 114.697656 
L 118.370813 114.563587 
L 115.379893 114.155897 
L 112.613083 113.483655 
L 110.302432 112.578118 
L 109.380692 112.053089 
L 108.641729 111.490109 
L 108.101119 110.897889 
L 107.770256 110.285754 
L 107.656116 109.66345 
L 107.761102 109.040936 
L 108.083004 108.428178 
L 108.615035 107.834934 
L 109.345982 107.270551 
L 110.260436 106.743768 
L 112.559309 105.833831 
L 115.31885 105.156314 
L 118.30762 104.742916 
L 121.274957 104.603184 
L 123.971994 104.723714 
L 126.172535 105.069274 
L 127.692024 105.585759 
L 128.153989 105.88712 
L 128.403023 106.204728 
L 128.433878 106.528733 
L 128.245903 106.849147 
L 127.84306 107.15606 
L 126.431085 107.691364 
L 124.316374 108.064627 
L 121.676284 108.21942 
L 118.732236 108.117638 
L 115.731142 107.742693 
L 112.9247 107.100908 
L 110.548281 106.220986 
L 109.585506 105.706255 
L 108.801192 105.151599 
L 108.211869 104.565554 
L 107.829959 103.957314 
L 107.663513 103.336543 
L 107.716038 102.713169 
L 107.986428 102.097174 
L 108.468983 101.498385 
L 109.153532 100.926267 
L 110.025645 100.389721 
L 112.255471 99.455036 
L 114.971447 98.747596 
L 117.945789 98.30161 
L 120.929044 98.129359 
L 123.67101 98.220166 
L 125.941723 98.541292 
L 127.550742 99.04068 
L 128.062431 99.33672 
L 128.36312 99.651324 
L 128.446471 99.974705 
L 128.310725 100.296888 
L 127.958746 100.607926 
L 127.397952 100.898105 
L 125.701352 101.379428 
L 123.363218 101.675367 
L 120.579645 101.735978 
L 117.584087 101.531054 
L 114.627776 101.052659 
L 111.958655 100.31579 
L 109.800578 99.357126 
L 108.971862 98.811285 
L 108.33454 98.231943 
L 107.902045 97.628154 
L 107.683495 97.009487 
L 107.683495 96.385826 
L 107.902045 95.767159 
L 108.33454 95.163369 
L 108.971862 94.584027 
L 109.800578 94.038187 
L 110.80322 93.534196 
L 113.242527 92.680591 
L 116.085202 92.069678 
L 119.092835 91.727569 
L 122.013178 91.657835 
L 124.601309 91.841199 
L 126.640163 92.237161 
L 127.958746 92.787387 
L 128.310725 93.098425 
L 128.446471 93.420608 
L 128.36312 93.743988 
L 128.062431 94.058593 
L 127.550742 94.354633 
L 125.941723 94.854021 
L 123.67101 95.175146 
L 120.929044 95.265953 
L 117.945789 95.093702 
L 114.971447 94.647717 
L 112.255471 93.940277 
L 110.025645 93.005591 
L 109.153532 92.469046 
L 108.468983 91.896928 
L 107.986428 91.298139 
L 107.716038 90.682144 
L 107.663513 90.058769 
L 107.829959 89.437999 
L 108.211869 88.829759 
L 108.801192 88.243713 
L 109.585506 87.689058 
L 110.548281 87.174327 
L 112.9247 86.294404 
L 115.731142 85.65262 
L 118.732236 85.277675 
L 121.676284 85.175893 
L 124.316374 85.330686 
L 126.431085 85.703949 
L 127.84306 86.239253 
L 128.245903 86.546166 
L 128.433878 86.86658 
L 128.403023 87.190584 
L 128.153989 87.508193 
L 127.692024 87.809554 
L 126.172535 88.326039 
L 123.971994 88.671599 
L 121.274957 88.792129 
L 118.30762 88.652397 
L 115.31885 88.238998 
L 112.559309 87.561481 
L 110.260436 86.651544 
L 109.345982 86.124762 
L 108.615035 85.560379 
L 108.083004 84.967135 
L 107.761102 84.354376 
L 107.656116 83.731863 
L 107.770256 83.109559 
L 108.101119 82.497424 
L 108.641729 81.905203 
L 109.380692 81.342224 
L 110.302432 80.817194 
L 112.613083 79.911657 
L 115.379893 79.239416 
L 118.370813 78.831726 
L 121.335 78.697656 
L 121.335 42.697656 
L 121.335 42.697656 
" clip-path="url(#pe3e220b63f)" style="fill: none; stroke: #000000; stroke-width: 2; stroke-linecap: round"/>
   </g>
   <g id="line2d_18">
    <path d="M 166.335 150.697656 
L 188.835 150.697656 
L 211.335 150.697656 
" clip-path="url(#pe3e220b63f)" style="fill: none; stroke: #000000; stroke-width: 2; stroke-linecap: round"/>
   </g>
   <g id="line2d_19">
    <path d="M 211.335 150.697656 
L 211.335 114.697656 
L 202.335 111.697656 
L 220.335 105.697656 
L 202.335 99.697656 
L 220.335 93.697656 
L 202.335 87.697656 
L 220.335 81.697656 
L 211.335 78.697656 
L 211.335 42.697656 
" clip-path="url(#pe3e220b63f)" style="fill: none; stroke: #000000; stroke-width: 2; stroke-linecap: round"/>
   </g>
   <g id="line2d_20">
    <path d="M 211.335 150.697656 
L 220.335 150.697656 
L 229.335 150.697656 
" clip-path="url(#pe3e220b63f)" style="fill: none; stroke: #000000; stroke-width: 2; stroke-linecap: round"/>
   </g>
   <g id="line2d_21">
    <path d="M 211.335 42.697656 
L 188.835 42.697656 
L 166.335 42.697656 
" clip-path="url(#pe3e220b63f)" style="fill: none; stroke: #000000; stroke-width: 2; stroke-linecap: round"/>
   </g>
   <g id="line2d_22">
    <path d="M 121.335 42.697656 
L 143.835 42.697656 
L 166.335 42.697656 
" clip-path="url(#pe3e220b63f)" style="fill: none; stroke: #000000; stroke-width: 2; stroke-linecap: round"/>
   </g>
   <g id="line2d_23">
    <path d="M 166.335 42.697656 
L 166.335 38.197656 
L 166.335 33.697656 
" clip-path="url(#pe3e220b63f)" style="fill: none; stroke: #000000; stroke-width: 2; stroke-linecap: round"/>
   </g>
   <g id="line2d_24">
    <path d="M 166.335 33.697656 
L 166.335 19.297656 
" clip-path="url(#pe3e220b63f)" style="fill: none; stroke: #000000; stroke-width: 2; stroke-linecap: round"/>
   </g>
   <g id="line2d_25">
    <path d="M 166.335 19.297656 
L 159.585 19.297656 
" clip-path="url(#pe3e220b63f)" style="fill: none; stroke: #000000; stroke-width: 2; stroke-linecap: round"/>
   </g>
   <g id="line2d_26">
    <path d="M 166.335 19.297656 
L 173.085 19.297656 
" clip-path="url(#pe3e220b63f)" style="fill: none; stroke: #000000; stroke-width: 2; stroke-linecap: round"/>
   </g>
   <g id="text_1">
    <!-- $R_{in}$ -->
    <g transform="translate(76.7125 187.578047) scale(0.125 -0.125)">
     <defs>
      <path id="DejaVuSans-Oblique-52" d="M 1613 4147 
L 1294 2491 
L 2106 2491 
Q 2584 2491 2879 2755 
Q 3175 3019 3175 3444 
Q 3175 3784 2976 3965 
Q 2778 4147 2406 4147 
L 1613 4147 
z
M 2772 2241 
Q 2972 2194 3105 2009 
Q 3238 1825 3413 1275 
L 3809 0 
L 3144 0 
L 2778 1197 
Q 2638 1659 2453 1815 
Q 2269 1972 1888 1972 
L 1191 1972 
L 806 0 
L 172 0 
L 1081 4666 
L 2503 4666 
Q 3150 4666 3495 4373 
Q 3841 4081 3841 3531 
Q 3841 3044 3547 2687 
Q 3253 2331 2772 2241 
z
" transform="scale(0.015625)"/>
      <path id="DejaVuSans-Oblique-69" d="M 1172 4863 
L 1747 4863 
L 1606 4134 
L 1031 4134 
L 1172 4863 
z
M 909 3500 
L 1484 3500 
L 800 0 
L 225 0 
L 909 3500 
z
" transform="scale(0.015625)"/>
      <path id="DejaVuSans-Oblique-6e" d="M 3566 2113 
L 3156 0 
L 2578 0 
L 2988 2091 
Q 3016 2238 3031 2350 
Q 3047 2463 3047 2528 
Q 3047 2791 2881 2937 
Q 2716 3084 2419 3084 
Q 1956 3084 1622 2776 
Q 1288 2469 1184 1941 
L 800 0 
L 225 0 
L 903 3500 
L 1478 3500 
L 1363 2950 
Q 1603 3253 1940 3418 
Q 2278 3584 2650 3584 
Q 3113 3584 3367 3334 
Q 3622 3084 3622 2631 
Q 3622 2519 3608 2391 
Q 3594 2263 3566 2113 
z
" transform="scale(0.015625)"/>
     </defs>
     <use xlink:href="#DejaVuSans-Oblique-52" transform="translate(0 0.09375)"/>
     <use xlink:href="#DejaVuSans-Oblique-69" transform="translate(69.482422 -16.3125) scale(0.7)"/>
     <use xlink:href="#DejaVuSans-Oblique-6e" transform="translate(88.930664 -16.3125) scale(0.7)"/>
    </g>
   </g>
   <g id="text_2">
    <!-- $V_{in}$ -->
    <g transform="translate(3.6 233.226875) scale(0.125 -0.125)">
     <defs>
      <path id="DejaVuSans-Oblique-56" d="M 1319 0 
L 500 4666 
L 1119 4666 
L 1797 653 
L 4063 4666 
L 4750 4666 
L 2053 0 
L 1319 0 
z
" transform="scale(0.015625)"/>
     </defs>
     <use xlink:href="#DejaVuSans-Oblique-56" transform="translate(0 0.09375)"/>
     <use xlink:href="#DejaVuSans-Oblique-69" transform="translate(68.408203 -16.3125) scale(0.7)"/>
     <use xlink:href="#DejaVuSans-Oblique-6e" transform="translate(87.856445 -16.3125) scale(0.7)"/>
    </g>
   </g>
   <g id="text_3">
    <!-- $C_1$ -->
    <g transform="translate(138.985 100.146875) scale(0.125 -0.125)">
     <defs>
      <path id="DejaVuSans-Oblique-43" d="M 4447 4306 
L 4319 3641 
Q 4019 3944 3683 4091 
Q 3347 4238 2956 4238 
Q 2422 4238 2017 3981 
Q 1613 3725 1319 3200 
Q 1131 2863 1032 2486 
Q 934 2109 934 1728 
Q 934 1091 1264 756 
Q 1594 422 2222 422 
Q 2656 422 3056 561 
Q 3456 700 3834 978 
L 3688 231 
Q 3316 72 2936 -9 
Q 2556 -91 2175 -91 
Q 1278 -91 773 396 
Q 269 884 269 1753 
Q 269 2309 461 2846 
Q 653 3384 1013 3828 
Q 1394 4300 1883 4525 
Q 2372 4750 3022 4750 
Q 3422 4750 3780 4639 
Q 4138 4528 4447 4306 
z
" transform="scale(0.015625)"/>
      <path id="DejaVuSans-31" d="M 794 531 
L 1825 531 
L 1825 4091 
L 703 3866 
L 703 4441 
L 1819 4666 
L 2450 4666 
L 2450 531 
L 3481 531 
L 3481 0 
L 794 0 
L 794 531 
z
" transform="scale(0.015625)"/>
     </defs>
     <use xlink:href="#DejaVuSans-Oblique-43" transform="translate(0 0.78125)"/>
     <use xlink:href="#DejaVuSans-31" transform="translate(69.824219 -15.625) scale(0.7)"/>
    </g>
   </g>
   <g id="text_4">
    <!-- $L_1$ -->
    <g transform="translate(91.181116 100.146875) scale(0.125 -0.125)">
     <defs>
      <path id="DejaVuSans-Oblique-4c" d="M 1075 4666 
L 1709 4666 
L 909 525 
L 3181 525 
L 3078 0 
L 172 0 
L 1075 4666 
z
" transform="scale(0.015625)"/>
     </defs>
     <use xlink:href="#DejaVuSans-Oblique-4c" transform="translate(0 0.09375)"/>
     <use xlink:href="#DejaVuSans-31" transform="translate(55.712891 -16.3125) scale(0.7)"/>
    </g>
   </g>
   <g id="text_5">
    <!-- $R_L$ -->
    <g transform="translate(184.735 100.146875) scale(0.125 -0.125)">
     <use xlink:href="#DejaVuSans-Oblique-52" transform="translate(0 0.09375)"/>
     <use xlink:href="#DejaVuSans-Oblique-4c" transform="translate(69.482422 -16.3125) scale(0.7)"/>
    </g>
   </g>
   <g id="text_6">
    <!-- $V_{dd}$ -->
    <g transform="translate(156.2725 13.098047) scale(0.125 -0.125)">
     <defs>
      <path id="DejaVuSans-Oblique-64" d="M 2675 525 
Q 2444 222 2128 65 
Q 1813 -91 1428 -91 
Q 903 -91 598 267 
Q 294 625 294 1247 
Q 294 1766 478 2236 
Q 663 2706 1013 3078 
Q 1244 3325 1534 3454 
Q 1825 3584 2144 3584 
Q 2481 3584 2739 3421 
Q 2997 3259 3138 2956 
L 3513 4863 
L 4091 4863 
L 3144 0 
L 2566 0 
L 2675 525 
z
M 891 1350 
Q 891 897 1095 644 
Q 1300 391 1663 391 
Q 1931 391 2161 520 
Q 2391 650 2566 903 
Q 2750 1166 2856 1509 
Q 2963 1853 2963 2188 
Q 2963 2622 2758 2865 
Q 2553 3109 2194 3109 
Q 1922 3109 1687 2981 
Q 1453 2853 1288 2613 
Q 1106 2353 998 2009 
Q 891 1666 891 1350 
z
" transform="scale(0.015625)"/>
     </defs>
     <use xlink:href="#DejaVuSans-Oblique-56" transform="translate(0 0.09375)"/>
     <use xlink:href="#DejaVuSans-Oblique-64" transform="translate(68.408203 -16.3125) scale(0.7)"/>
     <use xlink:href="#DejaVuSans-Oblique-64" transform="translate(112.841797 -16.3125) scale(0.7)"/>
    </g>
   </g>
   <g id="patch_4">
    <path d="M 139.275 205.477656 
C 139.991048 205.477656 140.677866 205.193167 141.184188 204.686845 
C 141.690511 204.180522 141.975 203.493705 141.975 202.777656 
C 141.975 202.061608 141.690511 201.374791 141.184188 200.868468 
C 140.677866 200.362145 139.991048 200.077656 139.275 200.077656 
C 138.558952 200.077656 137.872134 200.362145 137.365812 200.868468 
C 136.859489 201.374791 136.575 202.061608 136.575 202.777656 
C 136.575 203.493705 136.859489 204.180522 137.365812 204.686845 
C 137.872134 205.193167 138.558952 205.477656 139.275 205.477656 
z
" clip-path="url(#pe3e220b63f)" style="fill: #ff0000; stroke: #ff0000; stroke-width: 2; stroke-linejoin: miter"/>
   </g>
   <g id="text_7">
    <!-- 1 -->
    <g style="fill: #ff0000" transform="translate(135.298438 188.226875) scale(0.125 -0.125)">
     <use xlink:href="#DejaVuSans-31"/>
    </g>
   </g>
   <g id="patch_5">
    <path d="M 31.275 205.477656 
C 31.991048 205.477656 32.677866 205.193167 33.184188 204.686845 
C 33.690511 204.180522 33.975 203.493705 33.975 202.777656 
C 33.975 202.061608 33.690511 201.374791 33.184188 200.868468 
C 32.677866 200.362145 31.991048 200.077656 31.275 200.077656 
C 30.558952 200.077656 29.872134 200.362145 29.365812 200.868468 
C 28.859489 201.374791 28.575 202.061608 28.575 202.777656 
C 28.575 203.493705 28.859489 204.180522 29.365812 204.686845 
C 29.872134 205.193167 30.558952 205.477656 31.275 205.477656 
z
" clip-path="url(#pe3e220b63f)" style="fill: #ff0000; stroke: #ff0000; stroke-width: 2; stroke-linejoin: miter"/>
   </g>
   <g id="text_8">
    <!-- 4 -->
    <g style="fill: #ff0000" transform="translate(16.498438 199.026875) scale(0.125 -0.125)">
     <defs>
      <path id="DejaVuSans-34" d="M 2419 4116 
L 825 1625 
L 2419 1625 
L 2419 4116 
z
M 2253 4666 
L 3047 4666 
L 3047 1625 
L 3713 1625 
L 3713 1100 
L 3047 1100 
L 3047 0 
L 2419 0 
L 2419 1100 
L 313 1100 
L 313 1709 
L 2253 4666 
z
" transform="scale(0.015625)"/>
     </defs>
     <use xlink:href="#DejaVuSans-34"/>
    </g>
   </g>
   <g id="patch_6">
    <path d="M 166.335 259.477656 
C 167.051048 259.477656 167.737866 259.193167 168.244188 258.686845 
C 168.750511 258.180522 169.035 257.493705 169.035 256.777656 
C 169.035 256.061608 168.750511 255.374791 168.244188 254.868468 
C 167.737866 254.362145 167.051048 254.077656 166.335 254.077656 
C 165.618952 254.077656 164.932134 254.362145 164.425812 254.868468 
C 163.919489 255.374791 163.635 256.061608 163.635 256.777656 
C 163.635 257.493705 163.919489 258.180522 164.425812 258.686845 
C 164.932134 259.193167 165.618952 259.477656 166.335 259.477656 
z
" clip-path="url(#pe3e220b63f)" style="fill: #ff0000; stroke: #ff0000; stroke-width: 2; stroke-linejoin: miter"/>
   </g>
   <g id="text_9">
    <!-- 0 -->
    <g style="fill: #ff0000" transform="translate(176.758438 253.026875) scale(0.125 -0.125)">
     <defs>
      <path id="DejaVuSans-30" d="M 2034 4250 
Q 1547 4250 1301 3770 
Q 1056 3291 1056 2328 
Q 1056 1369 1301 889 
Q 1547 409 2034 409 
Q 2525 409 2770 889 
Q 3016 1369 3016 2328 
Q 3016 3291 2770 3770 
Q 2525 4250 2034 4250 
z
M 2034 4750 
Q 2819 4750 3233 4129 
Q 3647 3509 3647 2328 
Q 3647 1150 3233 529 
Q 2819 -91 2034 -91 
Q 1250 -91 836 529 
Q 422 1150 422 2328 
Q 422 3509 836 4129 
Q 1250 4750 2034 4750 
z
" transform="scale(0.015625)"/>
     </defs>
     <use xlink:href="#DejaVuSans-30"/>
    </g>
   </g>
   <g id="patch_7">
    <path d="M 166.335 153.397656 
C 167.051048 153.397656 167.737866 153.113167 168.244188 152.606845 
C 168.750511 152.100522 169.035 151.413705 169.035 150.697656 
C 169.035 149.981608 168.750511 149.294791 168.244188 148.788468 
C 167.737866 148.282145 167.051048 147.997656 166.335 147.997656 
C 165.618952 147.997656 164.932134 148.282145 164.425812 148.788468 
C 163.919489 149.294791 163.635 149.981608 163.635 150.697656 
C 163.635 151.413705 163.919489 152.100522 164.425812 152.606845 
C 164.932134 153.113167 165.618952 153.397656 166.335 153.397656 
z
" clip-path="url(#pe3e220b63f)" style="fill: #ff0000; stroke: #ff0000; stroke-width: 2; stroke-linejoin: miter"/>
   </g>
   <g id="text_10">
    <!-- 2 -->
    <g style="fill: #ff0000" transform="translate(176.758438 168.546875) scale(0.125 -0.125)">
     <defs>
      <path id="DejaVuSans-32" d="M 1228 531 
L 3431 531 
L 3431 0 
L 469 0 
L 469 531 
Q 828 903 1448 1529 
Q 2069 2156 2228 2338 
Q 2531 2678 2651 2914 
Q 2772 3150 2772 3378 
Q 2772 3750 2511 3984 
Q 2250 4219 1831 4219 
Q 1534 4219 1204 4116 
Q 875 4013 500 3803 
L 500 4441 
Q 881 4594 1212 4672 
Q 1544 4750 1819 4750 
Q 2544 4750 2975 4387 
Q 3406 4025 3406 3419 
Q 3406 3131 3298 2873 
Q 3191 2616 2906 2266 
Q 2828 2175 2409 1742 
Q 1991 1309 1228 531 
z
" transform="scale(0.015625)"/>
     </defs>
     <use xlink:href="#DejaVuSans-32"/>
    </g>
   </g>
   <g id="patch_8">
    <path d="M 229.335 153.397656 
C 230.051048 153.397656 230.737866 153.113167 231.244188 152.606845 
C 231.750511 152.100522 232.035 151.413705 232.035 150.697656 
C 232.035 149.981608 231.750511 149.294791 231.244188 148.788468 
C 230.737866 148.282145 230.051048 147.997656 229.335 147.997656 
C 228.618952 147.997656 227.932134 148.282145 227.425812 148.788468 
C 226.919489 149.294791 226.635 149.981608 226.635 150.697656 
C 226.635 151.413705 226.919489 152.100522 227.425812 152.606845 
C 227.932134 153.113167 228.618952 153.397656 229.335 153.397656 
z
" clip-path="url(#pe3e220b63f)" style="fill: #ffffff; stroke: #000000; stroke-width: 2; stroke-linejoin: miter"/>
   </g>
   <g id="text_11">
    <!-- $v_{out}$ -->
    <g transform="translate(235.635 154.146875) scale(0.125 -0.125)">
     <defs>
      <path id="DejaVuSans-Oblique-76" d="M 459 3500 
L 1069 3500 
L 1581 525 
L 3256 3500 
L 3866 3500 
L 1875 0 
L 1100 0 
L 459 3500 
z
" transform="scale(0.015625)"/>
      <path id="DejaVuSans-Oblique-6f" d="M 1625 -91 
Q 1009 -91 651 289 
Q 294 669 294 1325 
Q 294 1706 417 2101 
Q 541 2497 738 2766 
Q 1047 3184 1428 3384 
Q 1809 3584 2291 3584 
Q 2888 3584 3255 3212 
Q 3622 2841 3622 2241 
Q 3622 1825 3500 1412 
Q 3378 1000 3181 728 
Q 2875 309 2494 109 
Q 2113 -91 1625 -91 
z
M 891 1344 
Q 891 869 1089 633 
Q 1288 397 1691 397 
Q 2269 397 2648 901 
Q 3028 1406 3028 2181 
Q 3028 2634 2825 2865 
Q 2622 3097 2228 3097 
Q 1903 3097 1650 2945 
Q 1397 2794 1197 2484 
Q 1050 2253 970 1956 
Q 891 1659 891 1344 
z
" transform="scale(0.015625)"/>
      <path id="DejaVuSans-Oblique-75" d="M 428 1388 
L 838 3500 
L 1416 3500 
L 1006 1409 
Q 975 1256 961 1147 
Q 947 1038 947 966 
Q 947 700 1109 554 
Q 1272 409 1569 409 
Q 2031 409 2368 721 
Q 2706 1034 2809 1563 
L 3194 3500 
L 3769 3500 
L 3091 0 
L 2516 0 
L 2631 550 
Q 2388 244 2052 76 
Q 1716 -91 1338 -91 
Q 878 -91 622 161 
Q 366 413 366 863 
Q 366 956 381 1097 
Q 397 1238 428 1388 
z
" transform="scale(0.015625)"/>
      <path id="DejaVuSans-Oblique-74" d="M 2706 3500 
L 2619 3053 
L 1472 3053 
L 1100 1153 
Q 1081 1047 1072 975 
Q 1063 903 1063 863 
Q 1063 663 1183 572 
Q 1303 481 1569 481 
L 2150 481 
L 2053 0 
L 1503 0 
Q 991 0 739 200 
Q 488 400 488 806 
Q 488 878 497 964 
Q 506 1050 525 1153 
L 897 3053 
L 409 3053 
L 500 3500 
L 978 3500 
L 1172 4494 
L 1747 4494 
L 1556 3500 
L 2706 3500 
z
" transform="scale(0.015625)"/>
     </defs>
     <use xlink:href="#DejaVuSans-Oblique-76" transform="translate(0 0.3125)"/>
     <use xlink:href="#DejaVuSans-Oblique-6f" transform="translate(59.179688 -16.09375) scale(0.7)"/>
     <use xlink:href="#DejaVuSans-Oblique-75" transform="translate(102.006836 -16.09375) scale(0.7)"/>
     <use xlink:href="#DejaVuSans-Oblique-74" transform="translate(146.37207 -16.09375) scale(0.7)"/>
    </g>
   </g>
   <g id="patch_9">
    <path d="M 166.335 45.397656 
C 167.051048 45.397656 167.737866 45.113167 168.244188 44.606845 
C 168.750511 44.100522 169.035 43.413705 169.035 42.697656 
C 169.035 41.981608 168.750511 41.294791 168.244188 40.788468 
C 167.737866 40.282145 167.051048 39.997656 166.335 39.997656 
C 165.618952 39.997656 164.932134 40.282145 164.425812 40.788468 
C 163.919489 41.294791 163.635 41.981608 163.635 42.697656 
C 163.635 43.413705 163.919489 44.100522 164.425812 44.606845 
C 164.932134 45.113167 165.618952 45.397656 166.335 45.397656 
z
" clip-path="url(#pe3e220b63f)" style="fill: #ff0000; stroke: #ff0000; stroke-width: 2; stroke-linejoin: miter"/>
   </g>
   <g id="text_12">
    <!-- 3 -->
    <g style="fill: #ff0000" transform="translate(176.758438 60.546875) scale(0.125 -0.125)">
     <defs>
      <path id="DejaVuSans-33" d="M 2597 2516 
Q 3050 2419 3304 2112 
Q 3559 1806 3559 1356 
Q 3559 666 3084 287 
Q 2609 -91 1734 -91 
Q 1441 -91 1130 -33 
Q 819 25 488 141 
L 488 750 
Q 750 597 1062 519 
Q 1375 441 1716 441 
Q 2309 441 2620 675 
Q 2931 909 2931 1356 
Q 2931 1769 2642 2001 
Q 2353 2234 1838 2234 
L 1294 2234 
L 1294 2753 
L 1863 2753 
Q 2328 2753 2575 2939 
Q 2822 3125 2822 3475 
Q 2822 3834 2567 4026 
Q 2313 4219 1838 4219 
Q 1578 4219 1281 4162 
Q 984 4106 628 3988 
L 628 4550 
Q 988 4650 1302 4700 
Q 1616 4750 1894 4750 
Q 2613 4750 3031 4423 
Q 3450 4097 3450 3541 
Q 3450 3153 3228 2886 
Q 3006 2619 2597 2516 
z
" transform="scale(0.015625)"/>
     </defs>
     <use xlink:href="#DejaVuSans-33"/>
    </g>
   </g>
  </g>
 </g>
 <defs>
  <clipPath id="pe3e220b63f">
   <rect x="11.787" y="6.271656" width="230.736" height="286.572"/>
  </clipPath>
 </defs>
</svg>