<?xml version="1.0" encoding="utf-8" standalone="no"?>
<!DOCTYPE svg PUBLIC "-//W3C//DTD SVG 1.1//EN"
  "http://www.w3.org/Graphics/SVG/1.1/DTD/svg11.dtd">
<svg xmlns:xlink="http://www.w3.org/1999/xlink" width="405.9975pt" height="202.692pt" viewBox="0 0 405.9975 202.692" xmlns="http://www.w3.org/2000/svg" version="1.1">
 <metadata>
  <rdf:RDF xmlns:dc="http://purl.org/dc/elements/1.1/" xmlns:cc="http://creativecommons.org/ns#" xmlns:rdf="http://www.w3.org/1999/02/22-rdf-syntax-ns#">
   <cc:Work>
    <dc:type rdf:resource="http://purl.org/dc/dcmitype/StillImage"/>
    <dc:date>2023-09-26T19:16:51.119525</dc:date>
    <dc:format>image/svg+xml</dc:format>
    <dc:creator>
     <cc:Agent>
      <dc:title>Matplotlib v3.6.3, https://matplotlib.org/</dc:title>
     </cc:Agent>
    </dc:creator>
   </cc:Work>
  </rdf:RDF>
 </metadata>
 <defs>
  <style type="text/css">*{stroke-linejoin: round; stroke-linecap: butt}</style>
 </defs>
 <g id="figure_1">
  <g id="patch_1">
   <path d="M 0 202.692 
L 405.9975 202.692 
L 405.9975 0 
L 0 0 
z
" style="fill: #ffffff"/>
  </g>
  <g id="axes_1">
   <g id="patch_2">
    <path d="M 61.875 51.966 
C 63.783826 51.966 65.616425 51.206913 66.966169 49.857169 
C 68.315913 48.507425 69.075 46.674826 69.075 44.766 
C 69.075 42.857174 68.315913 41.024575 66.966169 39.674831 
C 65.616425 38.325087 63.783826 37.566 61.875 37.566 
" clip-path="url(#p22d631b169)" style="fill: none; stroke: #000000; stroke-width: 2; stroke-linejoin: miter"/>
   </g>
   <g id="patch_3">
    <path d="M 61.875 66.366 
C 63.783826 66.366 65.616425 65.606913 66.966169 64.257169 
C 68.315913 62.907425 69.075 61.074826 69.075 59.166 
C 69.075 57.257174 68.315913 55.424575 66.966169 54.074831 
C 65.616425 52.725087 63.783826 51.966 61.875 51.966 
" clip-path="url(#p22d631b169)" style="fill: none; stroke: #000000; stroke-width: 2; stroke-linejoin: miter"/>
   </g>
   <g id="patch_4">
    <path d="M 61.875 80.766 
C 63.783826 80.766 65.616425 80.006913 66.966169 78.657169 
C 68.315913 77.307425 69.075 75.474826 69.075 73.566 
C 69.075 71.657174 68.315913 69.824575 66.966169 68.474831 
C 65.616425 67.125087 63.783826 66.366 61.875 66.366 
" clip-path="url(#p22d631b169)" style="fill: none; stroke: #000000; stroke-width: 2; stroke-linejoin: miter"/>
   </g>
   <g id="patch_5">
    <path d="M 61.875 95.166 
C 63.783826 95.166 65.616425 94.406913 66.966169 93.057169 
C 68.315913 91.707425 69.075 89.874826 69.075 87.966 
C 69.075 86.057174 68.315913 84.224575 66.966169 82.874831 
C 65.616425 81.525087 63.783826 80.766 61.875 80.766 
" clip-path="url(#p22d631b169)" style="fill: none; stroke: #000000; stroke-width: 2; stroke-linejoin: miter"/>
   </g>
   <g id="patch_6">
    <path d="M 61.875 109.566 
C 63.783826 109.566 65.616425 108.806913 66.966169 107.457169 
C 68.315913 106.107425 69.075 104.274826 69.075 102.366 
C 69.075 100.457174 68.315913 98.624575 66.966169 97.274831 
C 65.616425 95.925087 63.783826 95.166 61.875 95.166 
" clip-path="url(#p22d631b169)" style="fill: none; stroke: #000000; stroke-width: 2; stroke-linejoin: miter"/>
   </g>
   <g id="patch_7">
    <path d="M 97.875 51.966 
C 95.966174 51.966 94.133575 52.725087 92.783831 54.074831 
C 91.434087 55.424575 90.675 57.257174 90.675 59.166 
C 90.675 61.074826 91.434087 62.907425 92.783831 64.257169 
C 94.133575 65.606913 95.966174 66.366 97.875 66.366 
" clip-path="url(#p22d631b169)" style="fill: none; stroke: #000000; stroke-width: 2; stroke-linejoin: miter"/>
   </g>
   <g id="patch_8">
    <path d="M 97.875 66.366 
C 95.966174 66.366 94.133575 67.125087 92.783831 68.474831 
C 91.434087 69.824575 90.675 71.657174 90.675 73.566 
C 90.675 75.474826 91.434087 77.307425 92.783831 78.657169 
C 94.133575 80.006913 95.966174 80.766 97.875 80.766 
" clip-path="url(#p22d631b169)" style="fill: none; stroke: #000000; stroke-width: 2; stroke-linejoin: miter"/>
   </g>
   <g id="patch_9">
    <path d="M 97.875 80.766 
C 95.966174 80.766 94.133575 81.525087 92.783831 82.874831 
C 91.434087 84.224575 90.675 86.057174 90.675 87.966 
C 90.675 89.874826 91.434087 91.707425 92.783831 93.057169 
C 94.133575 94.406913 95.966174 95.166 97.875 95.166 
" clip-path="url(#p22d631b169)" style="fill: none; stroke: #000000; stroke-width: 2; stroke-linejoin: miter"/>
   </g>
   <g id="patch_10">
    <path d="M 61.875 123.966 
C 63.783826 123.966 65.616425 123.206913 66.966169 121.857169 
C 68.315913 120.507425 69.075 118.674826 69.075 116.766 
C 69.075 114.857174 68.315913 113.024575 66.966169 111.674831 
C 65.616425 110.325087 63.783826 109.566 61.875 109.566 
" clip-path="url(#p22d631b169)" style="fill: none; stroke: #000000; stroke-width: 2; stroke-linejoin: miter"/>
   </g>
   <g id="patch_11">
    <path d="M 61.875 138.366 
C 63.783826 138.366 65.616425 137.606913 66.966169 136.257169 
C 68.315913 134.907425 69.075 133.074826 69.075 131.166 
C 69.075 129.257174 68.315913 127.424575 66.966169 126.074831 
C 65.616425 124.725087 63.783826 123.966 61.875 123.966 
" clip-path="url(#p22d631b169)" style="fill: none; stroke: #000000; stroke-width: 2; stroke-linejoin: miter"/>
   </g>
   <g id="patch_12">
    <path d="M 61.875 152.766 
C 63.783826 152.766 65.616425 152.006913 66.966169 150.657169 
C 68.315913 149.307425 69.075 147.474826 69.075 145.566 
C 69.075 143.657174 68.315913 141.824575 66.966169 140.474831 
C 65.616425 139.125087 63.783826 138.366 61.875 138.366 
" clip-path="url(#p22d631b169)" style="fill: none; stroke: #000000; stroke-width: 2; stroke-linejoin: miter"/>
   </g>
   <g id="patch_13">
    <path d="M 61.875 167.166 
C 63.783826 167.166 65.616425 166.406913 66.966169 165.057169 
C 68.315913 163.707425 69.075 161.874826 69.075 159.966 
C 69.075 158.057174 68.315913 156.224575 66.966169 154.874831 
C 65.616425 153.525087 63.783826 152.766 61.875 152.766 
" clip-path="url(#p22d631b169)" style="fill: none; stroke: #000000; stroke-width: 2; stroke-linejoin: miter"/>
   </g>
   <g id="patch_14">
    <path d="M 61.875 181.566 
C 63.783826 181.566 65.616425 180.806913 66.966169 179.457169 
C 68.315913 178.107425 69.075 176.274826 69.075 174.366 
C 69.075 172.457174 68.315913 170.624575 66.966169 169.274831 
C 65.616425 167.925087 63.783826 167.166 61.875 167.166 
" clip-path="url(#p22d631b169)" style="fill: none; stroke: #000000; stroke-width: 2; stroke-linejoin: miter"/>
   </g>
   <g id="patch_15">
    <path d="M 97.875 123.966 
C 95.966174 123.966 94.133575 124.725087 92.783831 126.074831 
C 91.434087 127.424575 90.675 129.257174 90.675 131.166 
C 90.675 133.074826 91.434087 134.907425 92.783831 136.257169 
C 94.133575 137.606913 95.966174 138.366 97.875 138.366 
" clip-path="url(#p22d631b169)" style="fill: none; stroke: #000000; stroke-width: 2; stroke-linejoin: miter"/>
   </g>
   <g id="patch_16">
    <path d="M 97.875 138.366 
C 95.966174 138.366 94.133575 139.125087 92.783831 140.474831 
C 91.434087 141.824575 90.675 143.657174 90.675 145.566 
C 90.675 147.474826 91.434087 149.307425 92.783831 150.657169 
C 94.133575 152.006913 95.966174 152.766 97.875 152.766 
" clip-path="url(#p22d631b169)" style="fill: none; stroke: #000000; stroke-width: 2; stroke-linejoin: miter"/>
   </g>
   <g id="patch_17">
    <path d="M 97.875 152.766 
C 95.966174 152.766 94.133575 153.525087 92.783831 154.874831 
C 91.434087 156.224575 90.675 158.057174 90.675 159.966 
C 90.675 161.874826 91.434087 163.707425 92.783831 165.057169 
C 94.133575 166.406913 95.966174 167.166 97.875 167.166 
" clip-path="url(#p22d631b169)" style="fill: none; stroke: #000000; stroke-width: 2; stroke-linejoin: miter"/>
   </g>
   <g id="patch_18">
    <path d="M 133.935 67.326 
L 142.935 54.726 
L 151.935 67.326 
L 133.935 67.326 
z
" clip-path="url(#p22d631b169)" style="fill: none; stroke: #ff0000; stroke-width: 2; stroke-linecap: round"/>
   </g>
   <g id="patch_19">
    <path d="M 133.935 137.466 
L 142.935 124.866 
L 151.935 137.466 
L 133.935 137.466 
z
" clip-path="url(#p22d631b169)" style="fill: none; stroke: #ff0000; stroke-width: 2; stroke-linecap: round"/>
   </g>
   <g id="line2d_1">
    <path d="M 76.275 37.566 
L 76.275 109.566 
" clip-path="url(#p22d631b169)" style="fill: none; stroke: #000000; stroke-width: 2; stroke-linecap: round"/>
   </g>
   <g id="line2d_2">
    <path d="M 83.475 37.566 
L 83.475 109.566 
" clip-path="url(#p22d631b169)" style="fill: none; stroke: #000000; stroke-width: 2; stroke-linecap: round"/>
   </g>
   <g id="line2d_3">
    <path d="M 76.275 109.566 
L 76.275 181.566 
" clip-path="url(#p22d631b169)" style="fill: none; stroke: #000000; stroke-width: 2; stroke-linecap: round"/>
   </g>
   <g id="line2d_4">
    <path d="M 83.475 109.566 
L 83.475 181.566 
" clip-path="url(#p22d631b169)" style="fill: none; stroke: #000000; stroke-width: 2; stroke-linecap: round"/>
   </g>
   <g id="line2d_5">
    <path d="M 97.875 51.966 
L 111.075 51.966 
" clip-path="url(#p22d631b169)" style="fill: none; stroke: #000000; stroke-width: 2; stroke-linecap: round"/>
   </g>
   <g id="line2d_6">
    <path d="M 111.075 38.766 
L 111.075 65.166 
" clip-path="url(#p22d631b169)" style="fill: none; stroke: #000000; stroke-width: 2; stroke-linecap: round"/>
   </g>
   <g id="line2d_7">
    <path d="M 111.075 45.366 
L 124.935 33.486 
L 124.935 26.886 
" clip-path="url(#p22d631b169)" style="fill: none; stroke: #000000; stroke-width: 2; stroke-linecap: round"/>
   </g>
   <g id="line2d_8">
    <path d="M 111.075 58.566 
L 124.935 70.446 
L 124.935 77.046 
" clip-path="url(#p22d631b169)" style="fill: none; stroke: #000000; stroke-width: 2; stroke-linecap: round"/>
   </g>
   <g id="line2d_9">
    <path d="M 111.075 58.566 
L 118.101691 64.588878 
" clip-path="url(#p22d631b169)" style="fill: none; stroke: #000000; stroke-width: 2; stroke-linecap: round"/>
   </g>
   <g id="patch_20">
    <path d="M 120.44454 61.855554 
L 124.935 70.446 
L 115.758842 67.322201 
z
" clip-path="url(#p22d631b169)"/>
   </g>
   <g id="line2d_10">
    <path d="M 97.875 95.166 
L 111.405 95.166 
L 124.935 95.166 
" clip-path="url(#p22d631b169)" style="fill: none; stroke: #000000; stroke-width: 2; stroke-linecap: round"/>
   </g>
   <g id="line2d_11">
    <path d="M 124.935 26.886 
L 124.935 12.486 
" clip-path="url(#p22d631b169)" style="fill: none; stroke: #000000; stroke-width: 2; stroke-linecap: round"/>
   </g>
   <g id="line2d_12">
    <path d="M 124.935 12.486 
L 118.185 12.486 
" clip-path="url(#p22d631b169)" style="fill: none; stroke: #000000; stroke-width: 2; stroke-linecap: round"/>
   </g>
   <g id="line2d_13">
    <path d="M 124.935 12.486 
L 131.685 12.486 
" clip-path="url(#p22d631b169)" style="fill: none; stroke: #000000; stroke-width: 2; stroke-linecap: round"/>
   </g>
   <g id="line2d_14">
    <path d="M 97.875 123.966 
L 111.075 123.966 
" clip-path="url(#p22d631b169)" style="fill: none; stroke: #000000; stroke-width: 2; stroke-linecap: round"/>
   </g>
   <g id="line2d_15">
    <path d="M 111.075 110.766 
L 111.075 137.166 
" clip-path="url(#p22d631b169)" style="fill: none; stroke: #000000; stroke-width: 2; stroke-linecap: round"/>
   </g>
   <g id="line2d_16">
    <path d="M 111.075 117.366 
L 124.935 105.486 
L 124.935 98.886 
" clip-path="url(#p22d631b169)" style="fill: none; stroke: #000000; stroke-width: 2; stroke-linecap: round"/>
   </g>
   <g id="line2d_17">
    <path d="M 111.075 130.566 
L 124.935 142.446 
L 124.935 149.046 
" clip-path="url(#p22d631b169)" style="fill: none; stroke: #000000; stroke-width: 2; stroke-linecap: round"/>
   </g>
   <g id="line2d_18">
    <path d="M 111.075 130.566 
L 118.101691 136.588878 
" clip-path="url(#p22d631b169)" style="fill: none; stroke: #000000; stroke-width: 2; stroke-linecap: round"/>
   </g>
   <g id="patch_21">
    <path d="M 120.44454 133.855554 
L 124.935 142.446 
L 115.758842 139.322201 
z
" clip-path="url(#p22d631b169)"/>
   </g>
   <g id="line2d_19">
    <path d="M 97.875 167.166 
L 111.405 167.166 
L 124.935 167.166 
" clip-path="url(#p22d631b169)" style="fill: none; stroke: #000000; stroke-width: 2; stroke-linecap: round"/>
   </g>
   <g id="line2d_20">
    <path d="M 124.935 77.046 
L 124.935 86.106 
L 124.935 95.166 
" clip-path="url(#p22d631b169)" style="fill: none; stroke: #000000; stroke-width: 2; stroke-linecap: round"/>
   </g>
   <g id="line2d_21">
    <path d="M 124.935 95.166 
L 133.935 95.166 
L 142.935 95.166 
" clip-path="url(#p22d631b169)" style="fill: none; stroke: #000000; stroke-width: 2; stroke-linecap: round"/>
   </g>
   <g id="line2d_22">
    <path d="M 142.935 95.166 
L 178.935 95.166 
L 179.06907 92.201813 
L 179.47676 89.210893 
L 180.149001 86.444083 
L 181.054538 84.133432 
L 181.579567 83.211692 
L 182.142547 82.472729 
L 182.734767 81.932119 
L 183.346902 81.601256 
L 183.969207 81.487116 
L 184.59172 81.592102 
L 185.204478 81.914004 
L 185.797723 82.446035 
L 186.362106 83.176982 
L 186.888888 84.091436 
L 187.798825 86.390309 
L 188.476342 89.14985 
L 188.88974 92.13862 
L 189.029472 95.105957 
L 188.908942 97.802994 
L 188.563382 100.003535 
L 188.046898 101.523024 
L 187.745537 101.984989 
L 187.427928 102.234023 
L 187.103923 102.264878 
L 186.783509 102.076903 
L 186.476597 101.67406 
L 185.941292 100.262085 
L 185.568029 98.147374 
L 185.413236 95.507284 
L 185.515019 92.563236 
L 185.889963 89.562142 
L 186.531748 86.7557 
L 187.411671 84.379281 
L 187.926402 83.416506 
L 188.481057 82.632192 
L 189.067102 82.042869 
L 189.675342 81.660959 
L 190.296113 81.494513 
L 190.919487 81.547038 
L 191.535482 81.817428 
L 192.134271 82.299983 
L 192.70639 82.984532 
L 193.242935 83.856645 
L 194.177621 86.086471 
L 194.88506 88.802447 
L 195.331046 91.776789 
L 195.503297 94.760044 
L 195.41249 97.50201 
L 195.091365 99.772723 
L 194.591977 101.381742 
L 194.295936 101.893431 
L 193.981332 102.19412 
L 193.657952 102.277471 
L 193.335768 102.141725 
L 193.024731 101.789746 
L 192.734551 101.228952 
L 192.253228 99.532352 
L 191.957289 97.194218 
L 191.896678 94.410645 
L 192.101602 91.415087 
L 192.579998 88.458776 
L 193.316866 85.789655 
L 194.275531 83.631578 
L 194.821371 82.802862 
L 195.400713 82.16554 
L 196.004502 81.733045 
L 196.623169 81.514495 
L 197.246831 81.514495 
L 197.865498 81.733045 
L 198.469287 82.16554 
L 199.048629 82.802862 
L 199.594469 83.631578 
L 200.09846 84.63422 
L 200.952065 87.073527 
L 201.562979 89.916202 
L 201.905087 92.923835 
L 201.974821 95.844178 
L 201.791457 98.432309 
L 201.395496 100.471163 
L 200.845269 101.789746 
L 200.534232 102.141725 
L 200.212048 102.277471 
L 199.888668 102.19412 
L 199.574064 101.893431 
L 199.278023 101.381742 
L 198.778635 99.772723 
L 198.45751 97.50201 
L 198.366703 94.760044 
L 198.538954 91.776789 
L 198.98494 88.802447 
L 199.692379 86.086471 
L 200.627065 83.856645 
L 201.16361 82.984532 
L 201.735729 82.299983 
L 202.334518 81.817428 
L 202.950513 81.547038 
L 203.573887 81.494513 
L 204.194658 81.660959 
L 204.802898 82.042869 
L 205.388943 82.632192 
L 205.943598 83.416506 
L 206.458329 84.379281 
L 207.338252 86.7557 
L 207.980037 89.562142 
L 208.354981 92.563236 
L 208.456764 95.507284 
L 208.301971 98.147374 
L 207.928708 100.262085 
L 207.393403 101.67406 
L 207.086491 102.076903 
L 206.766077 102.264878 
L 206.442072 102.234023 
L 206.124463 101.984989 
L 205.823102 101.523024 
L 205.306618 100.003535 
L 204.961058 97.802994 
L 204.840528 95.105957 
L 204.98026 92.13862 
L 205.393658 89.14985 
L 206.071175 86.390309 
L 206.981112 84.091436 
L 207.507894 83.176982 
L 208.072277 82.446035 
L 208.665522 81.914004 
L 209.27828 81.592102 
L 209.900793 81.487116 
L 210.523098 81.601256 
L 211.135233 81.932119 
L 211.727453 82.472729 
L 212.290433 83.211692 
L 212.815462 84.133432 
L 213.720999 86.444083 
L 214.39324 89.210893 
L 214.80093 92.201813 
L 214.935 95.166 
L 250.935 95.166 
L 250.935 95.166 
" clip-path="url(#p22d631b169)" style="fill: none; stroke: #000000; stroke-width: 2; stroke-linecap: round"/>
   </g>
   <g id="line2d_23">
    <path d="M 250.935 95.166 
L 301.695 95.166 
M 301.695 86.166 
L 301.695 104.166 
M 308.175 86.166 
L 308.175 104.166 
M 308.175 95.166 
L 358.935 95.166 
" clip-path="url(#p22d631b169)" style="fill: none; stroke: #000000; stroke-width: 2; stroke-linecap: round"/>
   </g>
   <g id="line2d_24">
    <path d="M 358.935 95.166 
L 358.935 113.166 
L 367.935 116.166 
L 349.935 122.166 
L 367.935 128.166 
L 349.935 134.166 
L 367.935 140.166 
L 349.935 146.166 
L 358.935 149.166 
L 358.935 167.166 
" clip-path="url(#p22d631b169)" style="fill: none; stroke: #000000; stroke-width: 2; stroke-linecap: round"/>
   </g>
   <g id="line2d_25">
    <path d="M 358.935 95.166 
L 367.935 95.166 
L 376.935 95.166 
" clip-path="url(#p22d631b169)" style="fill: none; stroke: #000000; stroke-width: 2; stroke-linecap: round"/>
   </g>
   <g id="line2d_26">
    <path d="M 358.935 167.166 
L 367.935 167.166 
L 376.935 167.166 
" clip-path="url(#p22d631b169)" style="fill: none; stroke: #000000; stroke-width: 2; stroke-linecap: round"/>
   </g>
   <g id="line2d_27">
    <path d="M 358.935 167.166 
L 250.935 167.166 
L 142.935 167.166 
" clip-path="url(#p22d631b169)" style="fill: none; stroke: #000000; stroke-width: 2; stroke-linecap: round"/>
   </g>
   <g id="line2d_28">
    <path d="M 358.935 167.166 
L 241.935 167.166 
L 124.935 167.166 
" clip-path="url(#p22d631b169)" style="fill: none; stroke: #000000; stroke-width: 2; stroke-linecap: round"/>
   </g>
   <g id="line2d_29">
    <path d="M 124.935 167.166 
L 124.935 181.566 
L 115.935 181.566 
L 133.935 181.566 
M 118.635 185.886 
L 131.235 185.886 
M 123.135 190.206 
L 126.735 190.206 
" clip-path="url(#p22d631b169)" style="fill: none; stroke: #000000; stroke-width: 2; stroke-linecap: round"/>
   </g>
   <g id="line2d_30">
    <path d="M 124.935 167.166 
L 124.935 158.106 
L 124.935 149.046 
" clip-path="url(#p22d631b169)" style="fill: none; stroke: #000000; stroke-width: 2; stroke-linecap: round"/>
   </g>
   <g id="line2d_31">
    <path d="M 124.935 98.886 
L 124.935 97.026 
L 124.935 95.166 
" clip-path="url(#p22d631b169)" style="fill: none; stroke: #000000; stroke-width: 2; stroke-linecap: round"/>
   </g>
   <g id="line2d_32">
    <path d="M 61.875 37.566 
L 52.875 37.566 
L 43.875 37.566 
" clip-path="url(#p22d631b169)" style="fill: none; stroke: #000000; stroke-width: 2; stroke-linecap: round"/>
   </g>
   <g id="line2d_33">
    <path d="M 43.875 37.566 
L 43.875 64.566 
L 43.875 91.566 
" clip-path="url(#p22d631b169)" style="fill: none; stroke: #000000; stroke-width: 2; stroke-linecap: round"/>
   </g>
   <g id="line2d_34">
    <path d="M 43.875 91.566 
L 34.875 91.566 
L 25.875 91.566 
" clip-path="url(#p22d631b169)" style="fill: none; stroke: #000000; stroke-width: 2; stroke-linecap: round"/>
   </g>
   <g id="line2d_35">
    <path d="M 61.875 181.566 
L 52.875 181.566 
L 43.875 181.566 
" clip-path="url(#p22d631b169)" style="fill: none; stroke: #000000; stroke-width: 2; stroke-linecap: round"/>
   </g>
   <g id="line2d_36">
    <path d="M 43.875 181.566 
L 43.875 154.566 
L 43.875 127.566 
" clip-path="url(#p22d631b169)" style="fill: none; stroke: #000000; stroke-width: 2; stroke-linecap: round"/>
   </g>
   <g id="line2d_37">
    <path d="M 43.875 127.566 
L 34.875 127.566 
L 25.875 127.566 
" clip-path="url(#p22d631b169)" style="fill: none; stroke: #000000; stroke-width: 2; stroke-linecap: round"/>
   </g>
   <g id="line2d_38">
    <path d="M 142.935 95.166 
L 142.935 67.326 
M 133.935 54.726 
L 151.935 54.726 
M 142.935 54.726 
L 142.935 26.886 
" clip-path="url(#p22d631b169)" style="fill: none; stroke: #ff0000; stroke-width: 2; stroke-linecap: round"/>
   </g>
   <g id="line2d_39">
    <path d="M 142.935 26.886 
L 133.935 26.886 
L 124.935 26.886 
" clip-path="url(#p22d631b169)" style="fill: none; stroke: #ff0000; stroke-width: 2; stroke-linecap: round"/>
   </g>
   <g id="line2d_40">
    <path d="M 142.935 167.166 
L 142.935 137.466 
M 133.935 124.866 
L 151.935 124.866 
M 142.935 124.866 
L 142.935 95.166 
" clip-path="url(#p22d631b169)" style="fill: none; stroke: #ff0000; stroke-width: 2; stroke-linecap: round"/>
   </g>
   <g id="text_1">
    <!-- $L_1$ -->
    <g transform="translate(190.4975 75.287506) scale(0.125 -0.125)">
     <defs>
      <path id="DejaVuSans-Oblique-4c" d="M 1075 4666 
L 1709 4666 
L 909 525 
L 3181 525 
L 3078 0 
L 172 0 
L 1075 4666 
z
" transform="scale(0.015625)"/>
      <path id="DejaVuSans-31" d="M 794 531 
L 1825 531 
L 1825 4091 
L 703 3866 
L 703 4441 
L 1819 4666 
L 2450 4666 
L 2450 531 
L 3481 531 
L 3481 0 
L 794 0 
L 794 531 
z
" transform="scale(0.015625)"/>
     </defs>
     <use xlink:href="#DejaVuSans-Oblique-4c" transform="translate(0 0.09375)"/>
     <use xlink:href="#DejaVuSans-31" transform="translate(55.712891 -16.3125) scale(0.7)"/>
    </g>
   </g>
   <g id="text_2">
    <!-- $C_1$ -->
    <g transform="translate(297.56 79.966391) scale(0.125 -0.125)">
     <defs>
      <path id="DejaVuSans-Oblique-43" d="M 4447 4306 
L 4319 3641 
Q 4019 3944 3683 4091 
Q 3347 4238 2956 4238 
Q 2422 4238 2017 3981 
Q 1613 3725 1319 3200 
Q 1131 2863 1032 2486 
Q 934 2109 934 1728 
Q 934 1091 1264 756 
Q 1594 422 2222 422 
Q 2656 422 3056 561 
Q 3456 700 3834 978 
L 3688 231 
Q 3316 72 2936 -9 
Q 2556 -91 2175 -91 
Q 1278 -91 773 396 
Q 269 884 269 1753 
Q 269 2309 461 2846 
Q 653 3384 1013 3828 
Q 1394 4300 1883 4525 
Q 2372 4750 3022 4750 
Q 3422 4750 3780 4639 
Q 4138 4528 4447 4306 
z
" transform="scale(0.015625)"/>
     </defs>
     <use xlink:href="#DejaVuSans-Oblique-43" transform="translate(0 0.78125)"/>
     <use xlink:href="#DejaVuSans-31" transform="translate(69.824219 -15.625) scale(0.7)"/>
    </g>
   </g>
   <g id="text_3">
    <!-- $R_L$ -->
    <g transform="translate(332.335 134.615219) scale(0.125 -0.125)">
     <defs>
      <path id="DejaVuSans-Oblique-52" d="M 1613 4147 
L 1294 2491 
L 2106 2491 
Q 2584 2491 2879 2755 
Q 3175 3019 3175 3444 
Q 3175 3784 2976 3965 
Q 2778 4147 2406 4147 
L 1613 4147 
z
M 2772 2241 
Q 2972 2194 3105 2009 
Q 3238 1825 3413 1275 
L 3809 0 
L 3144 0 
L 2778 1197 
Q 2638 1659 2453 1815 
Q 2269 1972 1888 1972 
L 1191 1972 
L 806 0 
L 172 0 
L 1081 4666 
L 2503 4666 
Q 3150 4666 3495 4373 
Q 3841 4081 3841 3531 
Q 3841 3044 3547 2687 
Q 3253 2331 2772 2241 
z
" transform="scale(0.015625)"/>
     </defs>
     <use xlink:href="#DejaVuSans-Oblique-52" transform="translate(0 0.09375)"/>
     <use xlink:href="#DejaVuSans-Oblique-4c" transform="translate(69.482422 -16.3125) scale(0.7)"/>
    </g>
   </g>
   <g id="text_4">
    <!-- + -->
    <g transform="translate(386.097695 116.615219) scale(0.125 -0.125)">
     <defs>
      <path id="DejaVuSans-2b" d="M 2944 4013 
L 2944 2272 
L 4684 2272 
L 4684 1741 
L 2944 1741 
L 2944 0 
L 2419 0 
L 2419 1741 
L 678 1741 
L 678 2272 
L 2419 2272 
L 2419 4013 
L 2944 4013 
z
" transform="scale(0.015625)"/>
     </defs>
     <use xlink:href="#DejaVuSans-2b"/>
    </g>
   </g>
   <g id="text_5">
    <!-- $v_{out}$ -->
    <g transform="translate(380.2725 134.615219) scale(0.125 -0.125)">
     <defs>
      <path id="DejaVuSans-Oblique-76" d="M 459 3500 
L 1069 3500 
L 1581 525 
L 3256 3500 
L 3866 3500 
L 1875 0 
L 1100 0 
L 459 3500 
z
" transform="scale(0.015625)"/>
      <path id="DejaVuSans-Oblique-6f" d="M 1625 -91 
Q 1009 -91 651 289 
Q 294 669 294 1325 
Q 294 1706 417 2101 
Q 541 2497 738 2766 
Q 1047 3184 1428 3384 
Q 1809 3584 2291 3584 
Q 2888 3584 3255 3212 
Q 3622 2841 3622 2241 
Q 3622 1825 3500 1412 
Q 3378 1000 3181 728 
Q 2875 309 2494 109 
Q 2113 -91 1625 -91 
z
M 891 1344 
Q 891 869 1089 633 
Q 1288 397 1691 397 
Q 2269 397 2648 901 
Q 3028 1406 3028 2181 
Q 3028 2634 2825 2865 
Q 2622 3097 2228 3097 
Q 1903 3097 1650 2945 
Q 1397 2794 1197 2484 
Q 1050 2253 970 1956 
Q 891 1659 891 1344 
z
" transform="scale(0.015625)"/>
      <path id="DejaVuSans-Oblique-75" d="M 428 1388 
L 838 3500 
L 1416 3500 
L 1006 1409 
Q 975 1256 961 1147 
Q 947 1038 947 966 
Q 947 700 1109 554 
Q 1272 409 1569 409 
Q 2031 409 2368 721 
Q 2706 1034 2809 1563 
L 3194 3500 
L 3769 3500 
L 3091 0 
L 2516 0 
L 2631 550 
Q 2388 244 2052 76 
Q 1716 -91 1338 -91 
Q 878 -91 622 161 
Q 366 413 366 863 
Q 366 956 381 1097 
Q 397 1238 428 1388 
z
" transform="scale(0.015625)"/>
      <path id="DejaVuSans-Oblique-74" d="M 2706 3500 
L 2619 3053 
L 1472 3053 
L 1100 1153 
Q 1081 1047 1072 975 
Q 1063 903 1063 863 
Q 1063 663 1183 572 
Q 1303 481 1569 481 
L 2150 481 
L 2053 0 
L 1503 0 
Q 991 0 739 200 
Q 488 400 488 806 
Q 488 878 497 964 
Q 506 1050 525 1153 
L 897 3053 
L 409 3053 
L 500 3500 
L 978 3500 
L 1172 4494 
L 1747 4494 
L 1556 3500 
L 2706 3500 
z
" transform="scale(0.015625)"/>
     </defs>
     <use xlink:href="#DejaVuSans-Oblique-76" transform="translate(0 0.3125)"/>
     <use xlink:href="#DejaVuSans-Oblique-6f" transform="translate(59.179688 -16.09375) scale(0.7)"/>
     <use xlink:href="#DejaVuSans-Oblique-75" transform="translate(102.006836 -16.09375) scale(0.7)"/>
     <use xlink:href="#DejaVuSans-Oblique-74" transform="translate(146.37207 -16.09375) scale(0.7)"/>
    </g>
   </g>
   <g id="text_6">
    <!-- $-$ -->
    <g transform="translate(386.085 152.615219) scale(0.125 -0.125)">
     <defs>
      <path id="DejaVuSans-2212" d="M 678 2272 
L 4684 2272 
L 4684 1741 
L 678 1741 
L 678 2272 
z
" transform="scale(0.015625)"/>
     </defs>
     <use xlink:href="#DejaVuSans-2212" transform="translate(0 0.5)"/>
    </g>
   </g>
   <g id="text_7">
    <!-- + -->
    <g transform="translate(6.237695 104.015219) scale(0.125 -0.125)">
     <use xlink:href="#DejaVuSans-2b"/>
    </g>
   </g>
   <g id="text_8">
    <!-- $v_{in}$ -->
    <g transform="translate(3.6 113.015219) scale(0.125 -0.125)">
     <defs>
      <path id="DejaVuSans-Oblique-69" d="M 1172 4863 
L 1747 4863 
L 1606 4134 
L 1031 4134 
L 1172 4863 
z
M 909 3500 
L 1484 3500 
L 800 0 
L 225 0 
L 909 3500 
z
" transform="scale(0.015625)"/>
      <path id="DejaVuSans-Oblique-6e" d="M 3566 2113 
L 3156 0 
L 2578 0 
L 2988 2091 
Q 3016 2238 3031 2350 
Q 3047 2463 3047 2528 
Q 3047 2791 2881 2937 
Q 2716 3084 2419 3084 
Q 1956 3084 1622 2776 
Q 1288 2469 1184 1941 
L 800 0 
L 225 0 
L 903 3500 
L 1478 3500 
L 1363 2950 
Q 1603 3253 1940 3418 
Q 2278 3584 2650 3584 
Q 3113 3584 3367 3334 
Q 3622 3084 3622 2631 
Q 3622 2519 3608 2391 
Q 3594 2263 3566 2113 
z
" transform="scale(0.015625)"/>
     </defs>
     <use xlink:href="#DejaVuSans-Oblique-76" transform="translate(0 0.3125)"/>
     <use xlink:href="#DejaVuSans-Oblique-69" transform="translate(59.179688 -16.09375) scale(0.7)"/>
     <use xlink:href="#DejaVuSans-Oblique-6e" transform="translate(78.62793 -16.09375) scale(0.7)"/>
    </g>
   </g>
   <g id="text_9">
    <!-- $-$ -->
    <g transform="translate(6.225 122.015219) scale(0.125 -0.125)">
     <use xlink:href="#DejaVuSans-2212" transform="translate(0 0.5)"/>
    </g>
   </g>
   <g id="patch_22">
    <path d="M 124.935 169.866 
C 125.651048 169.866 126.337866 169.581511 126.844188 169.075188 
C 127.350511 168.568866 127.635 167.882048 127.635 167.166 
C 127.635 166.449952 127.350511 165.763134 126.844188 165.256812 
C 126.337866 164.750489 125.651048 164.466 124.935 164.466 
C 124.218952 164.466 123.532134 164.750489 123.025812 165.256812 
C 122.519489 165.763134 122.235 166.449952 122.235 167.166 
C 122.235 167.882048 122.519489 168.568866 123.025812 169.075188 
C 123.532134 169.581511 124.218952 169.866 124.935 169.866 
z
" clip-path="url(#p22d631b169)" style="stroke: #000000; stroke-width: 2; stroke-linejoin: miter"/>
   </g>
   <g id="patch_23">
    <path d="M 124.935 97.866 
C 125.651048 97.866 126.337866 97.581511 126.844188 97.075188 
C 127.350511 96.568866 127.635 95.882048 127.635 95.166 
C 127.635 94.449952 127.350511 93.763134 126.844188 93.256812 
C 126.337866 92.750489 125.651048 92.466 124.935 92.466 
C 124.218952 92.466 123.532134 92.750489 123.025812 93.256812 
C 122.519489 93.763134 122.235 94.449952 122.235 95.166 
C 122.235 95.882048 122.519489 96.568866 123.025812 97.075188 
C 123.532134 97.581511 124.218952 97.866 124.935 97.866 
z
" clip-path="url(#p22d631b169)" style="stroke: #000000; stroke-width: 2; stroke-linejoin: miter"/>
   </g>
   <g id="patch_24">
    <path d="M 142.935 97.866 
C 143.651048 97.866 144.337866 97.581511 144.844188 97.075188 
C 145.350511 96.568866 145.635 95.882048 145.635 95.166 
C 145.635 94.449952 145.350511 93.763134 144.844188 93.256812 
C 144.337866 92.750489 143.651048 92.466 142.935 92.466 
C 142.218952 92.466 141.532134 92.750489 141.025812 93.256812 
C 140.519489 93.763134 140.235 94.449952 140.235 95.166 
C 140.235 95.882048 140.519489 96.568866 141.025812 97.075188 
C 141.532134 97.581511 142.218952 97.866 142.935 97.866 
z
" clip-path="url(#p22d631b169)" style="stroke: #000000; stroke-width: 2; stroke-linejoin: miter"/>
   </g>
   <g id="patch_25">
    <path d="M 376.935 97.866 
C 377.651048 97.866 378.337866 97.581511 378.844188 97.075188 
C 379.350511 96.568866 379.635 95.882048 379.635 95.166 
C 379.635 94.449952 379.350511 93.763134 378.844188 93.256812 
C 378.337866 92.750489 377.651048 92.466 376.935 92.466 
C 376.218952 92.466 375.532134 92.750489 375.025812 93.256812 
C 374.519489 93.763134 374.235 94.449952 374.235 95.166 
C 374.235 95.882048 374.519489 96.568866 375.025812 97.075188 
C 375.532134 97.581511 376.218952 97.866 376.935 97.866 
z
" clip-path="url(#p22d631b169)" style="fill: #ffffff; stroke: #000000; stroke-width: 2; stroke-linejoin: miter"/>
   </g>
   <g id="patch_26">
    <path d="M 376.935 169.866 
C 377.651048 169.866 378.337866 169.581511 378.844188 169.075188 
C 379.350511 168.568866 379.635 167.882048 379.635 167.166 
C 379.635 166.449952 379.350511 165.763134 378.844188 165.256812 
C 378.337866 164.750489 377.651048 164.466 376.935 164.466 
C 376.218952 164.466 375.532134 164.750489 375.025812 165.256812 
C 374.519489 165.763134 374.235 166.449952 374.235 167.166 
C 374.235 167.882048 374.519489 168.568866 375.025812 169.075188 
C 375.532134 169.581511 376.218952 169.866 376.935 169.866 
z
" clip-path="url(#p22d631b169)" style="fill: #ffffff; stroke: #000000; stroke-width: 2; stroke-linejoin: miter"/>
   </g>
   <g id="patch_27">
    <path d="M 142.935 169.866 
C 143.651048 169.866 144.337866 169.581511 144.844188 169.075188 
C 145.350511 168.568866 145.635 167.882048 145.635 167.166 
C 145.635 166.449952 145.350511 165.763134 144.844188 165.256812 
C 144.337866 164.750489 143.651048 164.466 142.935 164.466 
C 142.218952 164.466 141.532134 164.750489 141.025812 165.256812 
C 140.519489 165.763134 140.235 166.449952 140.235 167.166 
C 140.235 167.882048 140.519489 168.568866 141.025812 169.075188 
C 141.532134 169.581511 142.218952 169.866 142.935 169.866 
z
" clip-path="url(#p22d631b169)" style="stroke: #000000; stroke-width: 2; stroke-linejoin: miter"/>
   </g>
   <g id="patch_28">
    <path d="M 25.875 94.266 
C 26.591048 94.266 27.277866 93.981511 27.784188 93.475188 
C 28.290511 92.968866 28.575 92.282048 28.575 91.566 
C 28.575 90.849952 28.290511 90.163134 27.784188 89.656812 
C 27.277866 89.150489 26.591048 88.866 25.875 88.866 
C 25.158952 88.866 24.472134 89.150489 23.965812 89.656812 
C 23.459489 90.163134 23.175 90.849952 23.175 91.566 
C 23.175 92.282048 23.459489 92.968866 23.965812 93.475188 
C 24.472134 93.981511 25.158952 94.266 25.875 94.266 
z
" clip-path="url(#p22d631b169)" style="fill: #ffffff; stroke: #000000; stroke-width: 2; stroke-linejoin: miter"/>
   </g>
   <g id="patch_29">
    <path d="M 25.875 130.266 
C 26.591048 130.266 27.277866 129.981511 27.784188 129.475188 
C 28.290511 128.968866 28.575 128.282048 28.575 127.566 
C 28.575 126.849952 28.290511 126.163134 27.784188 125.656812 
C 27.277866 125.150489 26.591048 124.866 25.875 124.866 
C 25.158952 124.866 24.472134 125.150489 23.965812 125.656812 
C 23.459489 126.163134 23.175 126.849952 23.175 127.566 
C 23.175 128.282048 23.459489 128.968866 23.965812 129.475188 
C 24.472134 129.981511 25.158952 130.266 25.875 130.266 
z
" clip-path="url(#p22d631b169)" style="fill: #ffffff; stroke: #000000; stroke-width: 2; stroke-linejoin: miter"/>
   </g>
   <g id="patch_30">
    <path d="M 65.475 29.466 
C 66.191048 29.466 66.877866 29.181511 67.384188 28.675188 
C 67.890511 28.168866 68.175 27.482048 68.175 26.766 
C 68.175 26.049952 67.890511 25.363134 67.384188 24.856812 
C 66.877866 24.350489 66.191048 24.066 65.475 24.066 
C 64.758952 24.066 64.072134 24.350489 63.565812 24.856812 
C 63.059489 25.363134 62.775 26.049952 62.775 26.766 
C 62.775 27.482048 63.059489 28.168866 63.565812 28.675188 
C 64.072134 29.181511 64.758952 29.466 65.475 29.466 
z
" clip-path="url(#p22d631b169)" style="stroke: #000000; stroke-width: 2; stroke-linejoin: miter"/>
   </g>
   <g id="patch_31">
    <path d="M 94.275 43.866 
C 94.991048 43.866 95.677866 43.581511 96.184188 43.075188 
C 96.690511 42.568866 96.975 41.882048 96.975 41.166 
C 96.975 40.449952 96.690511 39.763134 96.184188 39.256812 
C 95.677866 38.750489 94.991048 38.466 94.275 38.466 
C 93.558952 38.466 92.872134 38.750489 92.365812 39.256812 
C 91.859489 39.763134 91.575 40.449952 91.575 41.166 
C 91.575 41.882048 91.859489 42.568866 92.365812 43.075188 
C 92.872134 43.581511 93.558952 43.866 94.275 43.866 
z
" clip-path="url(#p22d631b169)" style="stroke: #000000; stroke-width: 2; stroke-linejoin: miter"/>
   </g>
   <g id="patch_32">
    <path d="M 94.275 180.666 
C 94.991048 180.666 95.677866 180.381511 96.184188 179.875188 
C 96.690511 179.368866 96.975 178.682048 96.975 177.966 
C 96.975 177.249952 96.690511 176.563134 96.184188 176.056812 
C 95.677866 175.550489 94.991048 175.266 94.275 175.266 
C 93.558952 175.266 92.872134 175.550489 92.365812 176.056812 
C 91.859489 176.563134 91.575 177.249952 91.575 177.966 
C 91.575 178.682048 91.859489 179.368866 92.365812 179.875188 
C 92.872134 180.381511 93.558952 180.666 94.275 180.666 
z
" clip-path="url(#p22d631b169)" style="stroke: #000000; stroke-width: 2; stroke-linejoin: miter"/>
   </g>
   <g id="patch_33">
    <path d="M 124.935 29.586 
C 125.651048 29.586 126.337866 29.301511 126.844188 28.795188 
C 127.350511 28.288866 127.635 27.602048 127.635 26.886 
C 127.635 26.169952 127.350511 25.483134 126.844188 24.976812 
C 126.337866 24.470489 125.651048 24.186 124.935 24.186 
C 124.218952 24.186 123.532134 24.470489 123.025812 24.976812 
C 122.519489 25.483134 122.235 26.169952 122.235 26.886 
C 122.235 27.602048 122.519489 28.288866 123.025812 28.795188 
C 123.532134 29.301511 124.218952 29.586 124.935 29.586 
z
" clip-path="url(#p22d631b169)" style="stroke: #000000; stroke-width: 2; stroke-linejoin: miter"/>
   </g>
  </g>
 </g>
 <defs>
  <clipPath id="p22d631b169">
   <rect x="5.352" y="3.6" width="392.106" height="195.492"/>
  </clipPath>
 </defs>
</svg>