<?xml version="1.0" encoding="utf-8" standalone="no"?>
<!DOCTYPE svg PUBLIC "-//W3C//DTD SVG 1.1//EN"
  "http://www.w3.org/Graphics/SVG/1.1/DTD/svg11.dtd">
<svg xmlns:xlink="http://www.w3.org/1999/xlink" width="290.463pt" height="124.9pt" viewBox="0 0 290.463 124.9" xmlns="http://www.w3.org/2000/svg" version="1.1">
 <metadata>
  <rdf:RDF xmlns:dc="http://purl.org/dc/elements/1.1/" xmlns:cc="http://creativecommons.org/ns#" xmlns:rdf="http://www.w3.org/1999/02/22-rdf-syntax-ns#">
   <cc:Work>
    <dc:type rdf:resource="http://purl.org/dc/dcmitype/StillImage"/>
    <dc:date>2022-09-20T23:12:09.151277</dc:date>
    <dc:format>image/svg+xml</dc:format>
    <dc:creator>
     <cc:Agent>
      <dc:title>Matplotlib v3.5.3, https://matplotlib.org/</dc:title>
     </cc:Agent>
    </dc:creator>
   </cc:Work>
  </rdf:RDF>
 </metadata>
 <defs>
  <style type="text/css">*{stroke-linejoin: round; stroke-linecap: butt}</style>
 </defs>
 <g id="figure_1">
  <g id="patch_1">
   <path d="M 0 124.9 
L 290.463 124.9 
L 290.463 0 
L 0 0 
z
" style="fill: #ffffff"/>
  </g>
  <g id="axes_1">
   <g id="patch_2">
    <path d="M 88.953 73.84 
C 89.899775 73.84 90.8079 73.463842 91.477371 72.794371 
C 92.146842 72.1249 92.523 71.216775 92.523 70.27 
C 92.523 69.323225 92.146842 68.4151 91.477371 67.745629 
C 90.8079 67.076158 89.899775 66.7 88.953 66.7 
C 88.006225 66.7 87.0981 67.076158 86.428629 67.745629 
C 85.759158 68.4151 85.383 69.323225 85.383 70.27 
C 85.383 71.216775 85.759158 72.1249 86.428629 72.794371 
C 87.0981 73.463842 88.006225 73.84 88.953 73.84 
L 88.953 73.84 
z
" clip-path="url(#pa74b10cf94)" style="fill: none; stroke: #000000; stroke-width: 2; stroke-linejoin: miter"/>
   </g>
   <g id="patch_3">
    <path d="M 192.993 73.84 
C 193.939775 73.84 194.8479 73.463842 195.517371 72.794371 
C 196.186842 72.1249 196.563 71.216775 196.563 70.27 
C 196.563 69.323225 196.186842 68.4151 195.517371 67.745629 
C 194.8479 67.076158 193.939775 66.7 192.993 66.7 
C 192.046225 66.7 191.1381 67.076158 190.468629 67.745629 
C 189.799158 68.4151 189.423 69.323225 189.423 70.27 
C 189.423 71.216775 189.799158 72.1249 190.468629 72.794371 
C 191.1381 73.463842 192.046225 73.84 192.993 73.84 
L 192.993 73.84 
z
" clip-path="url(#pa74b10cf94)" style="fill: none; stroke: #000000; stroke-width: 2; stroke-linejoin: miter"/>
   </g>
   <g id="patch_4">
    <path d="M 55.293 73.84 
C 56.239775 73.84 57.1479 73.463842 57.817371 72.794371 
C 58.486842 72.1249 58.863 71.216775 58.863 70.27 
C 58.863 69.323225 58.486842 68.4151 57.817371 67.745629 
C 57.1479 67.076158 56.239775 66.7 55.293 66.7 
C 54.346225 66.7 53.4381 67.076158 52.768629 67.745629 
C 52.099158 68.4151 51.723 69.323225 51.723 70.27 
C 51.723 71.216775 52.099158 72.1249 52.768629 72.794371 
C 53.4381 73.463842 54.346225 73.84 55.293 73.84 
L 55.293 73.84 
z
" clip-path="url(#pa74b10cf94)" style="fill: none; stroke: #000000; stroke-width: 2; stroke-linejoin: miter"/>
   </g>
   <g id="patch_5">
    <path d="M 226.653 73.84 
C 227.599775 73.84 228.5079 73.463842 229.177371 72.794371 
C 229.846842 72.1249 230.223 71.216775 230.223 70.27 
C 230.223 69.323225 229.846842 68.4151 229.177371 67.745629 
C 228.5079 67.076158 227.599775 66.7 226.653 66.7 
C 225.706225 66.7 224.7981 67.076158 224.128629 67.745629 
C 223.459158 68.4151 223.083 69.323225 223.083 70.27 
C 223.083 71.216775 223.459158 72.1249 224.128629 72.794371 
C 224.7981 73.463842 225.706225 73.84 226.653 73.84 
L 226.653 73.84 
z
" clip-path="url(#pa74b10cf94)" style="fill: none; stroke: #000000; stroke-width: 2; stroke-linejoin: miter"/>
   </g>
   <g id="line2d_1">
    <path d="M 118.023 93.22 
L 118.023 80.47 
L 97.623 80.47 
L 97.623 60.07 
L 118.023 60.07 
L 118.023 47.32 
" clip-path="url(#pa74b10cf94)" style="fill: none; stroke: #000000; stroke-width: 2; stroke-linecap: round"/>
   </g>
   <g id="line2d_2">
    <path d="M 92.523 80.47 
L 92.523 60.07 
" clip-path="url(#pa74b10cf94)" style="fill: none; stroke: #000000; stroke-width: 2; stroke-linecap: round"/>
   </g>
   <g id="line2d_3">
    <path d="M 85.383 70.27 
L 76.203 70.27 
" clip-path="url(#pa74b10cf94)" style="fill: none; stroke: #000000; stroke-width: 2; stroke-linecap: round"/>
   </g>
   <g id="line2d_4">
    <path d="M 118.023 70.27 
L 105.273 70.27 
" clip-path="url(#pa74b10cf94)" style="fill: none; stroke: #000000; stroke-width: 2; stroke-linecap: round"/>
   </g>
   <g id="patch_6">
    <path d="M 105.273 73.33 
L 97.623 70.27 
L 105.273 67.21 
z
" clip-path="url(#pa74b10cf94)"/>
   </g>
   <g id="line2d_5">
    <path d="M 118.023 93.22 
L 97.113 93.22 
L 76.203 93.22 
" clip-path="url(#pa74b10cf94)" style="fill: none; stroke: #000000; stroke-width: 2; stroke-linecap: round"/>
   </g>
   <g id="line2d_6">
    <path d="M 76.203 93.22 
L 76.203 81.745 
L 76.203 70.27 
" clip-path="url(#pa74b10cf94)" style="fill: none; stroke: #000000; stroke-width: 2; stroke-linecap: round"/>
   </g>
   <g id="line2d_7">
    <path d="M 118.023 47.32 
L 129.498 47.32 
L 140.973 47.32 
" clip-path="url(#pa74b10cf94)" style="fill: none; stroke: #000000; stroke-width: 2; stroke-linecap: round"/>
   </g>
   <g id="line2d_8">
    <path d="M 140.973 47.32 
L 140.973 35.08 
" clip-path="url(#pa74b10cf94)" style="fill: none; stroke: #000000; stroke-width: 2; stroke-linecap: round"/>
   </g>
   <g id="line2d_9">
    <path d="M 140.973 35.08 
L 135.2355 35.08 
" clip-path="url(#pa74b10cf94)" style="fill: none; stroke: #000000; stroke-width: 2; stroke-linecap: round"/>
   </g>
   <g id="line2d_10">
    <path d="M 140.973 35.08 
L 146.7105 35.08 
" clip-path="url(#pa74b10cf94)" style="fill: none; stroke: #000000; stroke-width: 2; stroke-linecap: round"/>
   </g>
   <g id="line2d_11">
    <path d="M 140.973 47.32 
L 152.448 47.32 
L 163.923 47.32 
" clip-path="url(#pa74b10cf94)" style="fill: none; stroke: #000000; stroke-width: 2; stroke-linecap: round"/>
   </g>
   <g id="line2d_12">
    <path d="M 163.923 47.32 
L 163.923 60.07 
L 184.323 60.07 
L 184.323 80.47 
L 163.923 80.47 
L 163.923 93.22 
" clip-path="url(#pa74b10cf94)" style="fill: none; stroke: #000000; stroke-width: 2; stroke-linecap: round"/>
   </g>
   <g id="line2d_13">
    <path d="M 189.423 60.07 
L 189.423 80.47 
" clip-path="url(#pa74b10cf94)" style="fill: none; stroke: #000000; stroke-width: 2; stroke-linecap: round"/>
   </g>
   <g id="line2d_14">
    <path d="M 196.563 70.27 
L 205.743 70.27 
" clip-path="url(#pa74b10cf94)" style="fill: none; stroke: #000000; stroke-width: 2; stroke-linecap: round"/>
   </g>
   <g id="line2d_15">
    <path d="M 163.923 70.27 
L 176.673 70.27 
" clip-path="url(#pa74b10cf94)" style="fill: none; stroke: #000000; stroke-width: 2; stroke-linecap: round"/>
   </g>
   <g id="patch_7">
    <path d="M 176.673 67.21 
L 184.323 70.27 
L 176.673 73.33 
z
" clip-path="url(#pa74b10cf94)"/>
   </g>
   <g id="line2d_16">
    <path d="M 163.923 93.22 
L 184.833 93.22 
L 205.743 93.22 
" clip-path="url(#pa74b10cf94)" style="fill: none; stroke: #000000; stroke-width: 2; stroke-linecap: round"/>
   </g>
   <g id="line2d_17">
    <path d="M 205.743 93.22 
L 205.743 81.745 
L 205.743 70.27 
" clip-path="url(#pa74b10cf94)" style="fill: none; stroke: #000000; stroke-width: 2; stroke-linecap: round"/>
   </g>
   <g id="line2d_18">
    <path d="M 118.023 47.32 
L 72.123 47.32 
L 26.223 47.32 
" clip-path="url(#pa74b10cf94)" style="fill: none; stroke: #000000; stroke-width: 2; stroke-linecap: round"/>
   </g>
   <g id="line2d_19">
    <path d="M 26.223 47.32 
L 26.223 60.07 
L 46.623 60.07 
L 46.623 80.47 
L 26.223 80.47 
L 26.223 93.22 
" clip-path="url(#pa74b10cf94)" style="fill: none; stroke: #000000; stroke-width: 2; stroke-linecap: round"/>
   </g>
   <g id="line2d_20">
    <path d="M 51.723 60.07 
L 51.723 80.47 
" clip-path="url(#pa74b10cf94)" style="fill: none; stroke: #000000; stroke-width: 2; stroke-linecap: round"/>
   </g>
   <g id="line2d_21">
    <path d="M 58.863 70.27 
L 68.043 70.27 
" clip-path="url(#pa74b10cf94)" style="fill: none; stroke: #000000; stroke-width: 2; stroke-linecap: round"/>
   </g>
   <g id="line2d_22">
    <path d="M 26.223 70.27 
L 38.973 70.27 
" clip-path="url(#pa74b10cf94)" style="fill: none; stroke: #000000; stroke-width: 2; stroke-linecap: round"/>
   </g>
   <g id="patch_8">
    <path d="M 38.973 67.21 
L 46.623 70.27 
L 38.973 73.33 
z
" clip-path="url(#pa74b10cf94)"/>
   </g>
   <g id="line2d_23">
    <path d="M 68.043 70.27 
L 72.123 70.27 
L 76.203 70.27 
" clip-path="url(#pa74b10cf94)" style="fill: none; stroke: #000000; stroke-width: 2; stroke-linecap: round"/>
   </g>
   <g id="line2d_24">
    <path d="M 255.723 93.22 
L 255.723 80.47 
L 235.323 80.47 
L 235.323 60.07 
L 255.723 60.07 
L 255.723 47.32 
" clip-path="url(#pa74b10cf94)" style="fill: none; stroke: #000000; stroke-width: 2; stroke-linecap: round"/>
   </g>
   <g id="line2d_25">
    <path d="M 230.223 80.47 
L 230.223 60.07 
" clip-path="url(#pa74b10cf94)" style="fill: none; stroke: #000000; stroke-width: 2; stroke-linecap: round"/>
   </g>
   <g id="line2d_26">
    <path d="M 223.083 70.27 
L 213.903 70.27 
" clip-path="url(#pa74b10cf94)" style="fill: none; stroke: #000000; stroke-width: 2; stroke-linecap: round"/>
   </g>
   <g id="line2d_27">
    <path d="M 255.723 70.27 
L 242.973 70.27 
" clip-path="url(#pa74b10cf94)" style="fill: none; stroke: #000000; stroke-width: 2; stroke-linecap: round"/>
   </g>
   <g id="patch_9">
    <path d="M 242.973 73.33 
L 235.323 70.27 
L 242.973 67.21 
z
" clip-path="url(#pa74b10cf94)"/>
   </g>
   <g id="line2d_28">
    <path d="M 213.903 70.27 
L 209.823 70.27 
L 205.743 70.27 
" clip-path="url(#pa74b10cf94)" style="fill: none; stroke: #000000; stroke-width: 2; stroke-linecap: round"/>
   </g>
   <g id="line2d_29">
    <path d="M 255.723 47.32 
" clip-path="url(#pa74b10cf94)" style="fill: none; stroke: #000000; stroke-width: 2; stroke-linecap: round"/>
   </g>
   <g id="line2d_30">
    <path d="M 255.723 47.32 
L 209.823 47.32 
L 163.923 47.32 
" clip-path="url(#pa74b10cf94)" style="fill: none; stroke: #000000; stroke-width: 2; stroke-linecap: round"/>
   </g>
   <g id="line2d_31">
    <path d="M 118.023 70.27 
L 121.848 70.27 
L 125.673 70.27 
" clip-path="url(#pa74b10cf94)" style="fill: none; stroke: #000000; stroke-width: 2; stroke-linecap: round"/>
   </g>
   <g id="line2d_32">
    <path d="M 125.673 70.27 
L 125.673 58.795 
L 125.673 47.32 
" clip-path="url(#pa74b10cf94)" style="fill: none; stroke: #000000; stroke-width: 2; stroke-linecap: round"/>
   </g>
   <g id="line2d_33">
    <path d="M 163.923 70.27 
L 160.098 70.27 
L 156.273 70.27 
" clip-path="url(#pa74b10cf94)" style="fill: none; stroke: #000000; stroke-width: 2; stroke-linecap: round"/>
   </g>
   <g id="line2d_34">
    <path d="M 156.273 70.27 
L 156.273 58.795 
L 156.273 47.32 
" clip-path="url(#pa74b10cf94)" style="fill: none; stroke: #000000; stroke-width: 2; stroke-linecap: round"/>
   </g>
   <g id="line2d_35">
    <path d="M 255.723 70.27 
L 259.548 70.27 
L 263.373 70.27 
" clip-path="url(#pa74b10cf94)" style="fill: none; stroke: #000000; stroke-width: 2; stroke-linecap: round"/>
   </g>
   <g id="line2d_36">
    <path d="M 263.373 70.27 
L 263.373 58.795 
L 263.373 47.32 
" clip-path="url(#pa74b10cf94)" style="fill: none; stroke: #000000; stroke-width: 2; stroke-linecap: round"/>
   </g>
   <g id="line2d_37">
    <path d="M 263.373 47.32 
L 259.548 47.32 
L 255.723 47.32 
" clip-path="url(#pa74b10cf94)" style="fill: none; stroke: #000000; stroke-width: 2; stroke-linecap: round"/>
   </g>
   <g id="line2d_38">
    <path d="M 26.223 70.27 
L 22.398 70.27 
L 18.573 70.27 
" clip-path="url(#pa74b10cf94)" style="fill: none; stroke: #000000; stroke-width: 2; stroke-linecap: round"/>
   </g>
   <g id="line2d_39">
    <path d="M 18.573 70.27 
L 18.573 58.795 
L 18.573 47.32 
" clip-path="url(#pa74b10cf94)" style="fill: none; stroke: #000000; stroke-width: 2; stroke-linecap: round"/>
   </g>
   <g id="line2d_40">
    <path d="M 18.573 47.32 
L 22.398 47.32 
L 26.223 47.32 
" clip-path="url(#pa74b10cf94)" style="fill: none; stroke: #000000; stroke-width: 2; stroke-linecap: round"/>
   </g>
   <g id="text_1">
    <g clip-path="url(#pa74b10cf94)">
     <!-- 1 -->
     <g style="fill: #ff0000" transform="translate(151.379875 29.420391)scale(0.125 -0.125)">
      <defs>
       <path id="DejaVuSans-31" d="M 794 531 
L 1825 531 
L 1825 4091 
L 703 3866 
L 703 4441 
L 1819 4666 
L 2450 4666 
L 2450 531 
L 3481 531 
L 3481 0 
L 794 0 
L 794 531 
z
" transform="scale(0.015625)"/>
      </defs>
      <use xlink:href="#DejaVuSans-31"/>
     </g>
    </g>
   </g>
   <g id="patch_10">
    <path d="M 118.023 95.515 
C 118.631641 95.515 119.215436 95.273184 119.64581 94.84281 
C 120.076184 94.412436 120.318 93.828641 120.318 93.22 
C 120.318 92.611359 120.076184 92.027564 119.64581 91.59719 
C 119.215436 91.166816 118.631641 90.925 118.023 90.925 
C 117.414359 90.925 116.830564 91.166816 116.40019 91.59719 
C 115.969816 92.027564 115.728 92.611359 115.728 93.22 
C 115.728 93.828641 115.969816 94.412436 116.40019 94.84281 
C 116.830564 95.273184 117.414359 95.515 118.023 95.515 
z
" clip-path="url(#pa74b10cf94)" style="fill: #ff0000; stroke: #ff0000; stroke-width: 2; stroke-linejoin: miter"/>
   </g>
   <g id="text_2">
    <g clip-path="url(#pa74b10cf94)">
     <!-- 6 -->
     <g style="fill: #ff0000" transform="translate(122.309875 105.920391)scale(0.125 -0.125)">
      <defs>
       <path id="DejaVuSans-36" d="M 2113 2584 
Q 1688 2584 1439 2293 
Q 1191 2003 1191 1497 
Q 1191 994 1439 701 
Q 1688 409 2113 409 
Q 2538 409 2786 701 
Q 3034 994 3034 1497 
Q 3034 2003 2786 2293 
Q 2538 2584 2113 2584 
z
M 3366 4563 
L 3366 3988 
Q 3128 4100 2886 4159 
Q 2644 4219 2406 4219 
Q 1781 4219 1451 3797 
Q 1122 3375 1075 2522 
Q 1259 2794 1537 2939 
Q 1816 3084 2150 3084 
Q 2853 3084 3261 2657 
Q 3669 2231 3669 1497 
Q 3669 778 3244 343 
Q 2819 -91 2113 -91 
Q 1303 -91 875 529 
Q 447 1150 447 2328 
Q 447 3434 972 4092 
Q 1497 4750 2381 4750 
Q 2619 4750 2861 4703 
Q 3103 4656 3366 4563 
z
" transform="scale(0.015625)"/>
      </defs>
      <use xlink:href="#DejaVuSans-36"/>
     </g>
    </g>
   </g>
   <g id="patch_11">
    <path d="M 76.203 72.565 
C 76.811641 72.565 77.395436 72.323184 77.82581 71.89281 
C 78.256184 71.462436 78.498 70.878641 78.498 70.27 
C 78.498 69.661359 78.256184 69.077564 77.82581 68.64719 
C 77.395436 68.216816 76.811641 67.975 76.203 67.975 
C 75.594359 67.975 75.010564 68.216816 74.58019 68.64719 
C 74.149816 69.077564 73.908 69.661359 73.908 70.27 
C 73.908 70.878641 74.149816 71.462436 74.58019 71.89281 
C 75.010564 72.323184 75.594359 72.565 76.203 72.565 
z
" clip-path="url(#pa74b10cf94)" style="stroke: #000000; stroke-width: 2; stroke-linejoin: miter"/>
   </g>
   <g id="patch_12">
    <path d="M 140.973 49.615 
C 141.581641 49.615 142.165436 49.373184 142.59581 48.94281 
C 143.026184 48.512436 143.268 47.928641 143.268 47.32 
C 143.268 46.711359 143.026184 46.127564 142.59581 45.69719 
C 142.165436 45.266816 141.581641 45.025 140.973 45.025 
C 140.364359 45.025 139.780564 45.266816 139.35019 45.69719 
C 138.919816 46.127564 138.678 46.711359 138.678 47.32 
C 138.678 47.928641 138.919816 48.512436 139.35019 48.94281 
C 139.780564 49.373184 140.364359 49.615 140.973 49.615 
z
" clip-path="url(#pa74b10cf94)" style="fill: #ff0000; stroke: #ff0000; stroke-width: 2; stroke-linejoin: miter"/>
   </g>
   <g id="patch_13">
    <path d="M 163.923 95.515 
C 164.531641 95.515 165.115436 95.273184 165.54581 94.84281 
C 165.976184 94.412436 166.218 93.828641 166.218 93.22 
C 166.218 92.611359 165.976184 92.027564 165.54581 91.59719 
C 165.115436 91.166816 164.531641 90.925 163.923 90.925 
C 163.314359 90.925 162.730564 91.166816 162.30019 91.59719 
C 161.869816 92.027564 161.628 92.611359 161.628 93.22 
C 161.628 93.828641 161.869816 94.412436 162.30019 94.84281 
C 162.730564 95.273184 163.314359 95.515 163.923 95.515 
z
" clip-path="url(#pa74b10cf94)" style="fill: #ff0000; stroke: #ff0000; stroke-width: 2; stroke-linejoin: miter"/>
   </g>
   <g id="text_3">
    <g clip-path="url(#pa74b10cf94)">
     <!-- 4 -->
     <g style="fill: #ff0000" transform="translate(152.909875 105.920391)scale(0.125 -0.125)">
      <defs>
       <path id="DejaVuSans-34" d="M 2419 4116 
L 825 1625 
L 2419 1625 
L 2419 4116 
z
M 2253 4666 
L 3047 4666 
L 3047 1625 
L 3713 1625 
L 3713 1100 
L 3047 1100 
L 3047 0 
L 2419 0 
L 2419 1100 
L 313 1100 
L 313 1709 
L 2253 4666 
z
" transform="scale(0.015625)"/>
      </defs>
      <use xlink:href="#DejaVuSans-34"/>
     </g>
    </g>
   </g>
   <g id="patch_14">
    <path d="M 205.743 72.565 
C 206.351641 72.565 206.935436 72.323184 207.36581 71.89281 
C 207.796184 71.462436 208.038 70.878641 208.038 70.27 
C 208.038 69.661359 207.796184 69.077564 207.36581 68.64719 
C 206.935436 68.216816 206.351641 67.975 205.743 67.975 
C 205.134359 67.975 204.550564 68.216816 204.12019 68.64719 
C 203.689816 69.077564 203.448 69.661359 203.448 70.27 
C 203.448 70.878641 203.689816 71.462436 204.12019 71.89281 
C 204.550564 72.323184 205.134359 72.565 205.743 72.565 
z
" clip-path="url(#pa74b10cf94)" style="stroke: #000000; stroke-width: 2; stroke-linejoin: miter"/>
   </g>
   <g id="patch_15">
    <path d="M 26.223 95.515 
C 26.831641 95.515 27.415436 95.273184 27.84581 94.84281 
C 28.276184 94.412436 28.518 93.828641 28.518 93.22 
C 28.518 92.611359 28.276184 92.027564 27.84581 91.59719 
C 27.415436 91.166816 26.831641 90.925 26.223 90.925 
C 25.614359 90.925 25.030564 91.166816 24.60019 91.59719 
C 24.169816 92.027564 23.928 92.611359 23.928 93.22 
C 23.928 93.828641 24.169816 94.412436 24.60019 94.84281 
C 25.030564 95.273184 25.614359 95.515 26.223 95.515 
z
" clip-path="url(#pa74b10cf94)" style="fill: #ff0000; stroke: #ff0000; stroke-width: 2; stroke-linejoin: miter"/>
   </g>
   <g id="text_4">
    <g clip-path="url(#pa74b10cf94)">
     <!-- 5 -->
     <g style="fill: #ff0000" transform="translate(15.209875 105.920391)scale(0.125 -0.125)">
      <defs>
       <path id="DejaVuSans-35" d="M 691 4666 
L 3169 4666 
L 3169 4134 
L 1269 4134 
L 1269 2991 
Q 1406 3038 1543 3061 
Q 1681 3084 1819 3084 
Q 2600 3084 3056 2656 
Q 3513 2228 3513 1497 
Q 3513 744 3044 326 
Q 2575 -91 1722 -91 
Q 1428 -91 1123 -41 
Q 819 9 494 109 
L 494 744 
Q 775 591 1075 516 
Q 1375 441 1709 441 
Q 2250 441 2565 725 
Q 2881 1009 2881 1497 
Q 2881 1984 2565 2268 
Q 2250 2553 1709 2553 
Q 1456 2553 1204 2497 
Q 953 2441 691 2322 
L 691 4666 
z
" transform="scale(0.015625)"/>
      </defs>
      <use xlink:href="#DejaVuSans-35"/>
     </g>
    </g>
   </g>
   <g id="patch_16">
    <path d="M 255.723 95.515 
C 256.331641 95.515 256.915436 95.273184 257.34581 94.84281 
C 257.776184 94.412436 258.018 93.828641 258.018 93.22 
C 258.018 92.611359 257.776184 92.027564 257.34581 91.59719 
C 256.915436 91.166816 256.331641 90.925 255.723 90.925 
C 255.114359 90.925 254.530564 91.166816 254.10019 91.59719 
C 253.669816 92.027564 253.428 92.611359 253.428 93.22 
C 253.428 93.828641 253.669816 94.412436 254.10019 94.84281 
C 254.530564 95.273184 255.114359 95.515 255.723 95.515 
z
" clip-path="url(#pa74b10cf94)" style="fill: #ff0000; stroke: #ff0000; stroke-width: 2; stroke-linejoin: miter"/>
   </g>
   <g id="text_5">
    <g clip-path="url(#pa74b10cf94)">
     <!-- 3 -->
     <g style="fill: #ff0000" transform="translate(260.009875 105.920391)scale(0.125 -0.125)">
      <defs>
       <path id="DejaVuSans-33" d="M 2597 2516 
Q 3050 2419 3304 2112 
Q 3559 1806 3559 1356 
Q 3559 666 3084 287 
Q 2609 -91 1734 -91 
Q 1441 -91 1130 -33 
Q 819 25 488 141 
L 488 750 
Q 750 597 1062 519 
Q 1375 441 1716 441 
Q 2309 441 2620 675 
Q 2931 909 2931 1356 
Q 2931 1769 2642 2001 
Q 2353 2234 1838 2234 
L 1294 2234 
L 1294 2753 
L 1863 2753 
Q 2328 2753 2575 2939 
Q 2822 3125 2822 3475 
Q 2822 3834 2567 4026 
Q 2313 4219 1838 4219 
Q 1578 4219 1281 4162 
Q 984 4106 628 3988 
L 628 4550 
Q 988 4650 1302 4700 
Q 1616 4750 1894 4750 
Q 2613 4750 3031 4423 
Q 3450 4097 3450 3541 
Q 3450 3153 3228 2886 
Q 3006 2619 2597 2516 
z
" transform="scale(0.015625)"/>
      </defs>
      <use xlink:href="#DejaVuSans-33"/>
     </g>
    </g>
   </g>
  </g>
 </g>
 <defs>
  <clipPath id="pa74b10cf94">
   <rect x="7.2" y="7.2" width="276.063" height="110.5"/>
  </clipPath>
 </defs>
</svg>