<?xml version="1.0" encoding="utf-8" standalone="no"?>
<!DOCTYPE svg PUBLIC "-//W3C//DTD SVG 1.1//EN"
  "http://www.w3.org/Graphics/SVG/1.1/DTD/svg11.dtd">
<svg xmlns:xlink="http://www.w3.org/1999/xlink" width="290.248971pt" height="267.652656pt" viewBox="0 0 290.248971 267.652656" xmlns="http://www.w3.org/2000/svg" version="1.1">
 <metadata>
  <rdf:RDF xmlns:dc="http://purl.org/dc/elements/1.1/" xmlns:cc="http://creativecommons.org/ns#" xmlns:rdf="http://www.w3.org/1999/02/22-rdf-syntax-ns#">
   <cc:Work>
    <dc:type rdf:resource="http://purl.org/dc/dcmitype/StillImage"/>
    <dc:date>2023-09-26T14:56:39.193238</dc:date>
    <dc:format>image/svg+xml</dc:format>
    <dc:creator>
     <cc:Agent>
      <dc:title>Matplotlib v3.6.3, https://matplotlib.org/</dc:title>
     </cc:Agent>
    </dc:creator>
   </cc:Work>
  </rdf:RDF>
 </metadata>
 <defs>
  <style type="text/css">*{stroke-linejoin: round; stroke-linecap: butt}</style>
 </defs>
 <g id="figure_1">
  <g id="patch_1">
   <path d="M 0 267.652656 
L 290.248971 267.652656 
L 290.248971 0 
L 0 0 
z
" style="fill: #ffffff"/>
  </g>
  <g id="axes_1">
   <g id="line2d_1">
    <path d="M 27.186471 33.697656 
L 27.186471 19.297656 
" clip-path="url(#p7bf3dcd384)" style="fill: none; stroke: #000000; stroke-width: 2; stroke-linecap: round"/>
   </g>
   <g id="line2d_2">
    <path d="M 27.186471 19.297656 
L 20.436471 19.297656 
" clip-path="url(#p7bf3dcd384)" style="fill: none; stroke: #000000; stroke-width: 2; stroke-linecap: round"/>
   </g>
   <g id="line2d_3">
    <path d="M 27.186471 19.297656 
L 33.936471 19.297656 
" clip-path="url(#p7bf3dcd384)" style="fill: none; stroke: #000000; stroke-width: 2; stroke-linecap: round"/>
   </g>
   <g id="line2d_4">
    <path d="M 27.186471 33.697656 
L 27.186471 69.697656 
L 30.150657 69.831726 
L 33.141577 70.239416 
L 35.908387 70.911657 
L 38.219039 71.817194 
L 39.140779 72.342224 
L 39.879742 72.905203 
L 40.420352 73.497424 
L 40.751214 74.109559 
L 40.865355 74.731863 
L 40.760368 75.354376 
L 40.438467 75.967135 
L 39.906435 76.560379 
L 39.175489 77.124762 
L 38.261034 77.651544 
L 35.962162 78.561481 
L 33.202621 79.238998 
L 30.21385 79.652397 
L 27.246513 79.792129 
L 24.549476 79.671599 
L 22.348935 79.326039 
L 20.829447 78.809554 
L 20.367482 78.508193 
L 20.118447 78.190584 
L 20.087592 77.86658 
L 20.275567 77.546166 
L 20.67841 77.239253 
L 22.090385 76.703949 
L 24.205096 76.330686 
L 26.845186 76.175893 
L 29.789235 76.277675 
L 32.790329 76.65262 
L 35.596771 77.294404 
L 37.97319 78.174327 
L 38.935964 78.689058 
L 39.720279 79.243713 
L 40.309602 79.829759 
L 40.691511 80.437999 
L 40.857958 81.058769 
L 40.805433 81.682144 
L 40.535043 82.298139 
L 40.052488 82.896928 
L 39.367939 83.469046 
L 38.495825 84.005591 
L 36.266 84.940277 
L 33.550024 85.647717 
L 30.575682 86.093702 
L 27.592427 86.265953 
L 24.850461 86.175146 
L 22.579748 85.854021 
L 20.970729 85.354633 
L 20.459039 85.058593 
L 20.15835 84.743988 
L 20.075 84.420608 
L 20.210745 84.098425 
L 20.562724 83.787387 
L 21.123519 83.497208 
L 22.820118 83.015884 
L 25.158252 82.719945 
L 27.941826 82.659334 
L 30.937384 82.864258 
L 33.893694 83.342654 
L 36.562816 84.079522 
L 38.720893 85.038187 
L 39.549609 85.584027 
L 40.186931 86.163369 
L 40.619425 86.767159 
L 40.837976 87.385826 
L 40.837976 88.009487 
L 40.619425 88.628154 
L 40.186931 89.231943 
L 39.549609 89.811285 
L 38.720893 90.357126 
L 37.71825 90.861116 
L 35.278943 91.714722 
L 32.436268 92.325635 
L 29.428636 92.667743 
L 26.508292 92.737478 
L 23.920162 92.554113 
L 21.881307 92.158152 
L 20.562724 91.607926 
L 20.210745 91.296888 
L 20.075 90.974705 
L 20.15835 90.651324 
L 20.459039 90.33672 
L 20.970729 90.04068 
L 22.579748 89.541292 
L 24.850461 89.220166 
L 27.592427 89.129359 
L 30.575682 89.30161 
L 33.550024 89.747596 
L 36.266 90.455036 
L 38.495825 91.389721 
L 39.367939 91.926267 
L 40.052488 92.498385 
L 40.535043 93.097174 
L 40.805433 93.713169 
L 40.857958 94.336543 
L 40.691511 94.957314 
L 40.309602 95.565554 
L 39.720279 96.151599 
L 38.935964 96.706255 
L 37.97319 97.220986 
L 35.596771 98.100908 
L 32.790329 98.742693 
L 29.789235 99.117638 
L 26.845186 99.21942 
L 24.205096 99.064627 
L 22.090385 98.691364 
L 20.67841 98.15606 
L 20.275567 97.849147 
L 20.087592 97.528733 
L 20.118447 97.204728 
L 20.367482 96.88712 
L 20.829447 96.585759 
L 22.348935 96.069274 
L 24.549476 95.723714 
L 27.246513 95.603184 
L 30.21385 95.742916 
L 33.202621 96.156314 
L 35.962162 96.833831 
L 38.261034 97.743768 
L 39.175489 98.270551 
L 39.906435 98.834934 
L 40.438467 99.428178 
L 40.760368 100.040936 
L 40.865355 100.66345 
L 40.751214 101.285754 
L 40.420352 101.897889 
L 39.879742 102.490109 
L 39.140779 103.053089 
L 38.219039 103.578118 
L 35.908387 104.483655 
L 33.141577 105.155897 
L 30.150657 105.563587 
L 27.186471 105.697656 
L 27.186471 141.697656 
L 27.186471 141.697656 
" clip-path="url(#p7bf3dcd384)" style="fill: none; stroke: #000000; stroke-width: 2; stroke-linecap: round"/>
   </g>
   <g id="line2d_5">
    <path d="M 27.186471 141.697656 
L 77.946471 141.697656 
M 77.946471 132.697656 
L 77.946471 150.697656 
M 84.426471 132.697656 
L 84.426471 150.697656 
M 84.426471 141.697656 
L 135.186471 141.697656 
" clip-path="url(#p7bf3dcd384)" style="fill: none; stroke: #000000; stroke-width: 2; stroke-linecap: round"/>
   </g>
   <g id="line2d_6">
    <path d="M 135.186471 141.697656 
L 171.186471 141.697656 
L 171.32054 138.73347 
L 171.72823 135.742549 
L 172.400472 132.975739 
L 173.306008 130.665088 
L 173.831038 129.743348 
L 174.394017 129.004385 
L 174.986238 128.463775 
L 175.598373 128.132913 
L 176.220677 128.018772 
L 176.843191 128.123759 
L 177.455949 128.44566 
L 178.049193 128.977691 
L 178.613576 129.708638 
L 179.140358 130.623093 
L 180.050295 132.921965 
L 180.727813 135.681506 
L 181.141211 138.670276 
L 181.280943 141.637613 
L 181.160413 144.33465 
L 180.814853 146.535191 
L 180.298368 148.05468 
L 179.997007 148.516645 
L 179.679399 148.76568 
L 179.355394 148.796535 
L 179.03498 148.608559 
L 178.728067 148.205716 
L 178.192763 146.793742 
L 177.8195 144.67903 
L 177.664707 142.038941 
L 177.766489 139.094892 
L 178.141434 136.093798 
L 178.783219 133.287356 
L 179.663141 130.910937 
L 180.177872 129.948163 
L 180.732527 129.163848 
L 181.318573 128.574525 
L 181.926813 128.192615 
L 182.547584 128.026169 
L 183.170958 128.078694 
L 183.786953 128.349084 
L 184.385742 128.831639 
L 184.95786 129.516188 
L 185.494406 130.388302 
L 186.429091 132.618127 
L 187.136531 135.334103 
L 187.582517 138.308445 
L 187.754767 141.2917 
L 187.663961 144.033666 
L 187.342835 146.304379 
L 186.843447 147.913398 
L 186.547407 148.425087 
L 186.232803 148.725776 
L 185.909422 148.809127 
L 185.587239 148.673382 
L 185.276201 148.321403 
L 184.986022 147.760608 
L 184.504698 146.064009 
L 184.20876 143.725874 
L 184.148149 140.942301 
L 184.353073 137.946743 
L 184.831468 134.990432 
L 185.568337 132.321311 
L 186.527001 130.163234 
L 187.072841 129.334518 
L 187.652183 128.697196 
L 188.255973 128.264701 
L 188.87464 128.046151 
L 189.498301 128.046151 
L 190.116968 128.264701 
L 190.720758 128.697196 
L 191.3001 129.334518 
L 191.84594 130.163234 
L 192.34993 131.165876 
L 193.203536 133.605184 
L 193.814449 136.447859 
L 194.156557 139.455491 
L 194.226292 142.375834 
L 194.042927 144.963965 
L 193.646966 147.002819 
L 193.09674 148.321403 
L 192.785702 148.673382 
L 192.463519 148.809127 
L 192.140139 148.725776 
L 191.825534 148.425087 
L 191.529494 147.913398 
L 191.030106 146.304379 
L 190.70898 144.033666 
L 190.618174 141.2917 
L 190.790424 138.308445 
L 191.23641 135.334103 
L 191.94385 132.618127 
L 192.878535 130.388302 
L 193.415081 129.516188 
L 193.987199 128.831639 
L 194.585988 128.349084 
L 195.201983 128.078694 
L 195.825357 128.026169 
L 196.446128 128.192615 
L 197.054368 128.574525 
L 197.640414 129.163848 
L 198.195069 129.948163 
L 198.7098 130.910937 
L 199.589722 133.287356 
L 200.231507 136.093798 
L 200.606452 139.094892 
L 200.708234 142.038941 
L 200.553441 144.67903 
L 200.180178 146.793742 
L 199.644874 148.205716 
L 199.337961 148.608559 
L 199.017547 148.796535 
L 198.693543 148.76568 
L 198.375934 148.516645 
L 198.074573 148.05468 
L 197.558088 146.535191 
L 197.212528 144.33465 
L 197.091998 141.637613 
L 197.23173 138.670276 
L 197.645129 135.681506 
L 198.322646 132.921965 
L 199.232583 130.623093 
L 199.759365 129.708638 
L 200.323748 128.977691 
L 200.916992 128.44566 
L 201.52975 128.123759 
L 202.152264 128.018772 
L 202.774568 128.132913 
L 203.386703 128.463775 
L 203.978924 129.004385 
L 204.541903 129.743348 
L 205.066933 130.665088 
L 205.972469 132.975739 
L 206.644711 135.742549 
L 207.052401 138.73347 
L 207.186471 141.697656 
L 243.186471 141.697656 
L 243.186471 141.697656 
" clip-path="url(#p7bf3dcd384)" style="fill: none; stroke: #000000; stroke-width: 2; stroke-linecap: round"/>
   </g>
   <g id="line2d_7">
    <path d="M 243.186471 141.697656 
L 243.186471 177.697656 
L 252.186471 180.697656 
L 234.186471 186.697656 
L 252.186471 192.697656 
L 234.186471 198.697656 
L 252.186471 204.697656 
L 234.186471 210.697656 
L 243.186471 213.697656 
L 243.186471 249.697656 
" clip-path="url(#p7bf3dcd384)" style="fill: none; stroke: #000000; stroke-width: 2; stroke-linecap: round"/>
   </g>
   <g id="line2d_8">
    <path d="M 243.186471 141.697656 
L 252.186471 141.697656 
L 261.186471 141.697656 
" clip-path="url(#p7bf3dcd384)" style="fill: none; stroke: #000000; stroke-width: 2; stroke-linecap: round"/>
   </g>
   <g id="line2d_9">
    <path d="M 243.186471 249.697656 
L 252.186471 249.697656 
L 261.186471 249.697656 
" clip-path="url(#p7bf3dcd384)" style="fill: none; stroke: #000000; stroke-width: 2; stroke-linecap: round"/>
   </g>
   <g id="line2d_10">
    <path d="M 243.186471 249.697656 
L 135.186471 249.697656 
L 27.186471 249.697656 
" clip-path="url(#p7bf3dcd384)" style="fill: none; stroke: #000000; stroke-width: 2; stroke-linecap: round"/>
   </g>
   <g id="text_1">
    <!-- $V_{dd}$ -->
    <g transform="translate(17.123971 13.098047) scale(0.125 -0.125)">
     <defs>
      <path id="DejaVuSans-Oblique-56" d="M 1319 0 
L 500 4666 
L 1119 4666 
L 1797 653 
L 4063 4666 
L 4750 4666 
L 2053 0 
L 1319 0 
z
" transform="scale(0.015625)"/>
      <path id="DejaVuSans-Oblique-64" d="M 2675 525 
Q 2444 222 2128 65 
Q 1813 -91 1428 -91 
Q 903 -91 598 267 
Q 294 625 294 1247 
Q 294 1766 478 2236 
Q 663 2706 1013 3078 
Q 1244 3325 1534 3454 
Q 1825 3584 2144 3584 
Q 2481 3584 2739 3421 
Q 2997 3259 3138 2956 
L 3513 4863 
L 4091 4863 
L 3144 0 
L 2566 0 
L 2675 525 
z
M 891 1350 
Q 891 897 1095 644 
Q 1300 391 1663 391 
Q 1931 391 2161 520 
Q 2391 650 2566 903 
Q 2750 1166 2856 1509 
Q 2963 1853 2963 2188 
Q 2963 2622 2758 2865 
Q 2553 3109 2194 3109 
Q 1922 3109 1687 2981 
Q 1453 2853 1288 2613 
Q 1106 2353 998 2009 
Q 891 1666 891 1350 
z
" transform="scale(0.015625)"/>
     </defs>
     <use xlink:href="#DejaVuSans-Oblique-56" transform="translate(0 0.09375)"/>
     <use xlink:href="#DejaVuSans-Oblique-64" transform="translate(68.408203 -16.3125) scale(0.7)"/>
     <use xlink:href="#DejaVuSans-Oblique-64" transform="translate(112.841797 -16.3125) scale(0.7)"/>
    </g>
   </g>
   <g id="text_2">
    <!-- $L_1$ -->
    <g transform="translate(3.6 91.146875) scale(0.125 -0.125)">
     <defs>
      <path id="DejaVuSans-Oblique-4c" d="M 1075 4666 
L 1709 4666 
L 909 525 
L 3181 525 
L 3078 0 
L 172 0 
L 1075 4666 
z
" transform="scale(0.015625)"/>
      <path id="DejaVuSans-31" d="M 794 531 
L 1825 531 
L 1825 4091 
L 703 3866 
L 703 4441 
L 1819 4666 
L 2450 4666 
L 2450 531 
L 3481 531 
L 3481 0 
L 794 0 
L 794 531 
z
" transform="scale(0.015625)"/>
     </defs>
     <use xlink:href="#DejaVuSans-Oblique-4c" transform="translate(0 0.09375)"/>
     <use xlink:href="#DejaVuSans-31" transform="translate(55.712891 -16.3125) scale(0.7)"/>
    </g>
   </g>
   <g id="text_3">
    <!-- $C_2$ -->
    <g transform="translate(73.811471 126.498047) scale(0.125 -0.125)">
     <defs>
      <path id="DejaVuSans-Oblique-43" d="M 4447 4306 
L 4319 3641 
Q 4019 3944 3683 4091 
Q 3347 4238 2956 4238 
Q 2422 4238 2017 3981 
Q 1613 3725 1319 3200 
Q 1131 2863 1032 2486 
Q 934 2109 934 1728 
Q 934 1091 1264 756 
Q 1594 422 2222 422 
Q 2656 422 3056 561 
Q 3456 700 3834 978 
L 3688 231 
Q 3316 72 2936 -9 
Q 2556 -91 2175 -91 
Q 1278 -91 773 396 
Q 269 884 269 1753 
Q 269 2309 461 2846 
Q 653 3384 1013 3828 
Q 1394 4300 1883 4525 
Q 2372 4750 3022 4750 
Q 3422 4750 3780 4639 
Q 4138 4528 4447 4306 
z
" transform="scale(0.015625)"/>
      <path id="DejaVuSans-32" d="M 1228 531 
L 3431 531 
L 3431 0 
L 469 0 
L 469 531 
Q 828 903 1448 1529 
Q 2069 2156 2228 2338 
Q 2531 2678 2651 2914 
Q 2772 3150 2772 3378 
Q 2772 3750 2511 3984 
Q 2250 4219 1831 4219 
Q 1534 4219 1204 4116 
Q 875 4013 500 3803 
L 500 4441 
Q 881 4594 1212 4672 
Q 1544 4750 1819 4750 
Q 2544 4750 2975 4387 
Q 3406 4025 3406 3419 
Q 3406 3131 3298 2873 
Q 3191 2616 2906 2266 
Q 2828 2175 2409 1742 
Q 1991 1309 1228 531 
z
" transform="scale(0.015625)"/>
     </defs>
     <use xlink:href="#DejaVuSans-Oblique-43" transform="translate(0 0.78125)"/>
     <use xlink:href="#DejaVuSans-32" transform="translate(69.824219 -15.625) scale(0.7)"/>
    </g>
   </g>
   <g id="text_4">
    <!-- $L_2$ -->
    <g transform="translate(182.748971 121.819162) scale(0.125 -0.125)">
     <use xlink:href="#DejaVuSans-Oblique-4c" transform="translate(0 0.09375)"/>
     <use xlink:href="#DejaVuSans-32" transform="translate(55.712891 -16.3125) scale(0.7)"/>
    </g>
   </g>
   <g id="text_5">
    <!-- $R_L$ -->
    <g transform="translate(216.586471 199.146875) scale(0.125 -0.125)">
     <defs>
      <path id="DejaVuSans-Oblique-52" d="M 1613 4147 
L 1294 2491 
L 2106 2491 
Q 2584 2491 2879 2755 
Q 3175 3019 3175 3444 
Q 3175 3784 2976 3965 
Q 2778 4147 2406 4147 
L 1613 4147 
z
M 2772 2241 
Q 2972 2194 3105 2009 
Q 3238 1825 3413 1275 
L 3809 0 
L 3144 0 
L 2778 1197 
Q 2638 1659 2453 1815 
Q 2269 1972 1888 1972 
L 1191 1972 
L 806 0 
L 172 0 
L 1081 4666 
L 2503 4666 
Q 3150 4666 3495 4373 
Q 3841 4081 3841 3531 
Q 3841 3044 3547 2687 
Q 3253 2331 2772 2241 
z
" transform="scale(0.015625)"/>
     </defs>
     <use xlink:href="#DejaVuSans-Oblique-52" transform="translate(0 0.09375)"/>
     <use xlink:href="#DejaVuSans-Oblique-4c" transform="translate(69.482422 -16.3125) scale(0.7)"/>
    </g>
   </g>
   <g id="text_6">
    <!-- + -->
    <g transform="translate(270.349166 172.146875) scale(0.125 -0.125)">
     <defs>
      <path id="DejaVuSans-2b" d="M 2944 4013 
L 2944 2272 
L 4684 2272 
L 4684 1741 
L 2944 1741 
L 2944 0 
L 2419 0 
L 2419 1741 
L 678 1741 
L 678 2272 
L 2419 2272 
L 2419 4013 
L 2944 4013 
z
" transform="scale(0.015625)"/>
     </defs>
     <use xlink:href="#DejaVuSans-2b"/>
    </g>
   </g>
   <g id="text_7">
    <!-- $v_{out}$ -->
    <g transform="translate(264.523971 199.146875) scale(0.125 -0.125)">
     <defs>
      <path id="DejaVuSans-Oblique-76" d="M 459 3500 
L 1069 3500 
L 1581 525 
L 3256 3500 
L 3866 3500 
L 1875 0 
L 1100 0 
L 459 3500 
z
" transform="scale(0.015625)"/>
      <path id="DejaVuSans-Oblique-6f" d="M 1625 -91 
Q 1009 -91 651 289 
Q 294 669 294 1325 
Q 294 1706 417 2101 
Q 541 2497 738 2766 
Q 1047 3184 1428 3384 
Q 1809 3584 2291 3584 
Q 2888 3584 3255 3212 
Q 3622 2841 3622 2241 
Q 3622 1825 3500 1412 
Q 3378 1000 3181 728 
Q 2875 309 2494 109 
Q 2113 -91 1625 -91 
z
M 891 1344 
Q 891 869 1089 633 
Q 1288 397 1691 397 
Q 2269 397 2648 901 
Q 3028 1406 3028 2181 
Q 3028 2634 2825 2865 
Q 2622 3097 2228 3097 
Q 1903 3097 1650 2945 
Q 1397 2794 1197 2484 
Q 1050 2253 970 1956 
Q 891 1659 891 1344 
z
" transform="scale(0.015625)"/>
      <path id="DejaVuSans-Oblique-75" d="M 428 1388 
L 838 3500 
L 1416 3500 
L 1006 1409 
Q 975 1256 961 1147 
Q 947 1038 947 966 
Q 947 700 1109 554 
Q 1272 409 1569 409 
Q 2031 409 2368 721 
Q 2706 1034 2809 1563 
L 3194 3500 
L 3769 3500 
L 3091 0 
L 2516 0 
L 2631 550 
Q 2388 244 2052 76 
Q 1716 -91 1338 -91 
Q 878 -91 622 161 
Q 366 413 366 863 
Q 366 956 381 1097 
Q 397 1238 428 1388 
z
" transform="scale(0.015625)"/>
      <path id="DejaVuSans-Oblique-74" d="M 2706 3500 
L 2619 3053 
L 1472 3053 
L 1100 1153 
Q 1081 1047 1072 975 
Q 1063 903 1063 863 
Q 1063 663 1183 572 
Q 1303 481 1569 481 
L 2150 481 
L 2053 0 
L 1503 0 
Q 991 0 739 200 
Q 488 400 488 806 
Q 488 878 497 964 
Q 506 1050 525 1153 
L 897 3053 
L 409 3053 
L 500 3500 
L 978 3500 
L 1172 4494 
L 1747 4494 
L 1556 3500 
L 2706 3500 
z
" transform="scale(0.015625)"/>
     </defs>
     <use xlink:href="#DejaVuSans-Oblique-76" transform="translate(0 0.3125)"/>
     <use xlink:href="#DejaVuSans-Oblique-6f" transform="translate(59.179688 -16.09375) scale(0.7)"/>
     <use xlink:href="#DejaVuSans-Oblique-75" transform="translate(102.006836 -16.09375) scale(0.7)"/>
     <use xlink:href="#DejaVuSans-Oblique-74" transform="translate(146.37207 -16.09375) scale(0.7)"/>
    </g>
   </g>
   <g id="text_8">
    <!-- $-$ -->
    <g transform="translate(270.336471 226.146875) scale(0.125 -0.125)">
     <defs>
      <path id="DejaVuSans-2212" d="M 678 2272 
L 4684 2272 
L 4684 1741 
L 678 1741 
L 678 2272 
z
" transform="scale(0.015625)"/>
     </defs>
     <use xlink:href="#DejaVuSans-2212" transform="translate(0 0.5)"/>
    </g>
   </g>
   <g id="patch_2">
    <path d="M 27.186471 144.397656 
C 27.902519 144.397656 28.589336 144.113167 29.095659 143.606845 
C 29.601981 143.100522 29.886471 142.413705 29.886471 141.697656 
C 29.886471 140.981608 29.601981 140.294791 29.095659 139.788468 
C 28.589336 139.282145 27.902519 138.997656 27.186471 138.997656 
C 26.470422 138.997656 25.783605 139.282145 25.277282 139.788468 
C 24.77096 140.294791 24.486471 140.981608 24.486471 141.697656 
C 24.486471 142.413705 24.77096 143.100522 25.277282 143.606845 
C 25.783605 144.113167 26.470422 144.397656 27.186471 144.397656 
z
" clip-path="url(#p7bf3dcd384)" style="stroke: #000000; stroke-width: 2; stroke-linejoin: miter"/>
   </g>
   <g id="patch_3">
    <path d="M 261.186471 144.397656 
C 261.902519 144.397656 262.589336 144.113167 263.095659 143.606845 
C 263.601981 143.100522 263.886471 142.413705 263.886471 141.697656 
C 263.886471 140.981608 263.601981 140.294791 263.095659 139.788468 
C 262.589336 139.282145 261.902519 138.997656 261.186471 138.997656 
C 260.470422 138.997656 259.783605 139.282145 259.277282 139.788468 
C 258.77096 140.294791 258.486471 140.981608 258.486471 141.697656 
C 258.486471 142.413705 258.77096 143.100522 259.277282 143.606845 
C 259.783605 144.113167 260.470422 144.397656 261.186471 144.397656 
z
" clip-path="url(#p7bf3dcd384)" style="fill: #ffffff; stroke: #000000; stroke-width: 2; stroke-linejoin: miter"/>
   </g>
   <g id="patch_4">
    <path d="M 261.186471 252.397656 
C 261.902519 252.397656 262.589336 252.113167 263.095659 251.606845 
C 263.601981 251.100522 263.886471 250.413705 263.886471 249.697656 
C 263.886471 248.981608 263.601981 248.294791 263.095659 247.788468 
C 262.589336 247.282145 261.902519 246.997656 261.186471 246.997656 
C 260.470422 246.997656 259.783605 247.282145 259.277282 247.788468 
C 258.77096 248.294791 258.486471 248.981608 258.486471 249.697656 
C 258.486471 250.413705 258.77096 251.100522 259.277282 251.606845 
C 259.783605 252.113167 260.470422 252.397656 261.186471 252.397656 
z
" clip-path="url(#p7bf3dcd384)" style="fill: #ffffff; stroke: #000000; stroke-width: 2; stroke-linejoin: miter"/>
   </g>
   <g id="patch_5">
    <path d="M 27.186471 252.397656 
C 27.902519 252.397656 28.589336 252.113167 29.095659 251.606845 
C 29.601981 251.100522 29.886471 250.413705 29.886471 249.697656 
C 29.886471 248.981608 29.601981 248.294791 29.095659 247.788468 
C 28.589336 247.282145 27.902519 246.997656 27.186471 246.997656 
C 26.470422 246.997656 25.783605 247.282145 25.277282 247.788468 
C 24.77096 248.294791 24.486471 248.981608 24.486471 249.697656 
C 24.486471 250.413705 24.77096 251.100522 25.277282 251.606845 
C 25.783605 252.113167 26.470422 252.397656 27.186471 252.397656 
z
" clip-path="url(#p7bf3dcd384)" style="stroke: #000000; stroke-width: 2; stroke-linejoin: miter"/>
   </g>
  </g>
 </g>
 <defs>
  <clipPath id="p7bf3dcd384">
   <rect x="7.884426" y="7.642656" width="268.192618" height="256.41"/>
  </clipPath>
 </defs>
</svg>