<?xml version="1.0" encoding="utf-8" standalone="no"?>
<!DOCTYPE svg PUBLIC "-//W3C//DTD SVG 1.1//EN"
  "http://www.w3.org/Graphics/SVG/1.1/DTD/svg11.dtd">
<svg xmlns:xlink="http://www.w3.org/1999/xlink" width="298.8474pt" height="211.6pt" viewBox="0 0 298.8474 211.6" xmlns="http://www.w3.org/2000/svg" version="1.1">
 <metadata>
  <rdf:RDF xmlns:dc="http://purl.org/dc/elements/1.1/" xmlns:cc="http://creativecommons.org/ns#" xmlns:rdf="http://www.w3.org/1999/02/22-rdf-syntax-ns#">
   <cc:Work>
    <dc:type rdf:resource="http://purl.org/dc/dcmitype/StillImage"/>
    <dc:date>2022-10-09T15:19:37.239182</dc:date>
    <dc:format>image/svg+xml</dc:format>
    <dc:creator>
     <cc:Agent>
      <dc:title>Matplotlib v3.5.3, https://matplotlib.org/</dc:title>
     </cc:Agent>
    </dc:creator>
   </cc:Work>
  </rdf:RDF>
 </metadata>
 <defs>
  <style type="text/css">*{stroke-linejoin: round; stroke-linecap: butt}</style>
 </defs>
 <g id="figure_1">
  <g id="patch_1">
   <path d="M 0 211.6 
L 298.8474 211.6 
L 298.8474 0 
L 0 0 
L 0 211.6 
z
" style="fill: none"/>
  </g>
  <g id="axes_1">
   <g id="line2d_1">
    <path d="M 29.283 44.158 
L 40.503 44.158 
" clip-path="url(#p9b27ecb97c)" style="fill: none; stroke: #000000; stroke-width: 2; stroke-linecap: round"/>
   </g>
   <g id="line2d_2">
    <path d="M 40.503 32.938 
L 40.503 55.378 
" clip-path="url(#p9b27ecb97c)" style="fill: none; stroke: #000000; stroke-width: 2; stroke-linecap: round"/>
   </g>
   <g id="line2d_3">
    <path d="M 40.503 38.548 
L 52.284 28.45 
L 52.284 22.84 
" clip-path="url(#p9b27ecb97c)" style="fill: none; stroke: #000000; stroke-width: 2; stroke-linecap: round"/>
   </g>
   <g id="line2d_4">
    <path d="M 40.503 49.768 
L 52.284 59.866 
L 52.284 65.476 
" clip-path="url(#p9b27ecb97c)" style="fill: none; stroke: #000000; stroke-width: 2; stroke-linecap: round"/>
   </g>
   <g id="line2d_5">
    <path d="M 40.503 49.768 
L 46.475687 54.887446 
" clip-path="url(#p9b27ecb97c)" style="fill: none; stroke: #000000; stroke-width: 2; stroke-linecap: round"/>
   </g>
   <g id="patch_2">
    <path d="M 48.467109 52.564121 
L 52.284 59.866 
L 44.484265 57.210771 
z
" clip-path="url(#p9b27ecb97c)"/>
   </g>
   <g id="line2d_6">
    <path d="M 29.283 44.158 
L 29.283 67.108 
L 29.283 90.058 
" clip-path="url(#p9b27ecb97c)" style="fill: none; stroke: #000000; stroke-width: 2; stroke-linecap: round"/>
   </g>
   <g id="line2d_7">
    <path d="M 29.283 90.058 
L 29.283 111.478 
L 29.283 132.898 
" clip-path="url(#p9b27ecb97c)" style="fill: none; stroke: #000000; stroke-width: 2; stroke-linecap: round"/>
   </g>
   <g id="line2d_8">
    <path d="M 29.283 132.898 
L 40.503 132.898 
" clip-path="url(#p9b27ecb97c)" style="fill: none; stroke: #000000; stroke-width: 2; stroke-linecap: round"/>
   </g>
   <g id="line2d_9">
    <path d="M 40.503 121.678 
L 40.503 144.118 
" clip-path="url(#p9b27ecb97c)" style="fill: none; stroke: #000000; stroke-width: 2; stroke-linecap: round"/>
   </g>
   <g id="line2d_10">
    <path d="M 40.503 127.288 
L 52.284 117.19 
L 52.284 111.58 
" clip-path="url(#p9b27ecb97c)" style="fill: none; stroke: #000000; stroke-width: 2; stroke-linecap: round"/>
   </g>
   <g id="line2d_11">
    <path d="M 40.503 138.508 
L 52.284 148.606 
L 52.284 154.216 
" clip-path="url(#p9b27ecb97c)" style="fill: none; stroke: #000000; stroke-width: 2; stroke-linecap: round"/>
   </g>
   <g id="line2d_12">
    <path d="M 52.284 117.19 
L 46.311313 122.309446 
" clip-path="url(#p9b27ecb97c)" style="fill: none; stroke: #000000; stroke-width: 2; stroke-linecap: round"/>
   </g>
   <g id="patch_3">
    <path d="M 48.302735 124.632771 
L 40.503 127.288 
L 44.319891 119.986121 
z
" clip-path="url(#p9b27ecb97c)"/>
   </g>
   <g id="line2d_13">
    <path d="M 52.284 22.84 
L 52.284 10.6 
" clip-path="url(#p9b27ecb97c)" style="fill: none; stroke: #000000; stroke-width: 2; stroke-linecap: round"/>
   </g>
   <g id="line2d_14">
    <path d="M 52.284 10.6 
L 46.5465 10.6 
" clip-path="url(#p9b27ecb97c)" style="fill: none; stroke: #000000; stroke-width: 2; stroke-linecap: round"/>
   </g>
   <g id="line2d_15">
    <path d="M 52.284 10.6 
L 58.0215 10.6 
" clip-path="url(#p9b27ecb97c)" style="fill: none; stroke: #000000; stroke-width: 2; stroke-linecap: round"/>
   </g>
   <g id="line2d_16">
    <path d="M 29.283 90.058 
L 21.633 90.058 
L 13.983 90.058 
" clip-path="url(#p9b27ecb97c)" style="fill: none; stroke: #000000; stroke-width: 2; stroke-linecap: round"/>
   </g>
   <g id="line2d_17">
    <path d="M 52.284 65.476 
L 52.284 77.716 
L 52.284 89.956 
" clip-path="url(#p9b27ecb97c)" style="fill: none; stroke: #000000; stroke-width: 2; stroke-linecap: round"/>
   </g>
   <g id="line2d_18">
    <path d="M 52.284 89.956 
L 82.884 89.956 
L 82.997959 87.436441 
L 83.344496 84.894159 
L 83.915901 82.542371 
L 84.685607 80.578317 
L 85.610415 79.16672 
L 86.113802 78.707201 
L 86.634117 78.425968 
L 87.163076 78.328948 
L 87.692212 78.418187 
L 88.213057 78.691803 
L 88.717314 79.14403 
L 89.19704 79.765334 
L 90.053855 81.459506 
L 90.732997 83.63223 
L 91.198862 86.101284 
L 91.433734 88.659592 
L 91.43927 91.092592 
L 91.23636 93.196233 
L 90.863376 94.794086 
L 90.372956 95.752141 
L 90.102989 95.96382 
L 89.827585 95.990047 
L 89.555233 95.830268 
L 89.294357 95.487851 
L 88.839348 94.287673 
L 88.522075 92.490168 
L 88.390501 90.246092 
L 88.477016 87.743651 
L 88.795719 85.192721 
L 89.341236 82.807245 
L 90.08917 80.787289 
L 90.998148 79.302263 
L 91.496287 78.801338 
L 92.013291 78.476715 
L 92.540946 78.335236 
L 93.070814 78.379882 
L 93.59441 78.609713 
L 94.103381 79.019885 
L 94.589681 79.601752 
L 95.464642 81.22815 
L 96.167267 83.352504 
L 96.659982 85.796649 
L 96.922819 88.355596 
L 96.95509 90.814732 
L 96.775442 92.967812 
L 96.420297 94.634261 
L 95.940796 95.674316 
L 95.673382 95.929902 
L 95.398509 96.00075 
L 95.124653 95.885367 
L 94.860271 95.586184 
L 94.392579 94.465389 
L 94.056012 92.732362 
L 93.900152 90.532451 
L 93.959426 88.050159 
L 94.250218 85.493672 
L 94.769494 83.077398 
L 95.495059 81.003987 
L 96.387415 79.447332 
L 96.879856 78.905609 
L 97.393077 78.537988 
L 97.918944 78.352221 
L 98.449056 78.352221 
L 98.974923 78.537988 
L 99.488144 78.905609 
L 99.980585 79.447332 
L 100.872941 81.003987 
L 101.598506 83.077398 
L 102.117782 85.493672 
L 102.408574 88.050159 
L 102.467848 90.532451 
L 102.311988 92.732362 
L 101.975421 94.465389 
L 101.507729 95.586184 
L 101.243347 95.885367 
L 100.969491 96.00075 
L 100.694618 95.929902 
L 100.427204 95.674316 
L 99.947703 94.634261 
L 99.592558 92.967812 
L 99.41291 90.814732 
L 99.445181 88.355596 
L 99.708018 85.796649 
L 100.200733 83.352504 
L 100.903358 81.22815 
L 101.778319 79.601752 
L 102.264619 79.019885 
L 102.77359 78.609713 
L 103.297186 78.379882 
L 103.827054 78.335236 
L 104.354709 78.476715 
L 104.871713 78.801338 
L 105.369852 79.302263 
L 105.841309 79.968931 
L 106.675877 81.740088 
L 107.326779 83.966266 
L 107.76078 86.460758 
L 107.962834 89.014356 
L 107.937353 91.412894 
L 107.707826 93.455208 
L 107.31486 94.970014 
L 106.812767 95.830268 
L 106.540415 95.990047 
L 106.265011 95.96382 
L 105.995044 95.752141 
L 105.738887 95.35947 
L 105.299875 94.067905 
L 105.006149 92.197445 
L 104.903698 89.904964 
L 105.022471 87.382727 
L 105.373859 84.842272 
L 105.949749 82.496662 
L 106.723195 80.542621 
L 107.650686 79.14403 
L 108.154943 78.691803 
L 108.675788 78.418187 
L 109.204924 78.328948 
L 109.733883 78.425968 
L 110.254198 78.707201 
L 110.757585 79.16672 
L 111.236118 79.794838 
L 112.089687 81.500641 
L 112.764673 83.681547 
L 113.225821 86.154647 
L 113.455809 88.712525 
L 113.484 89.956 
L 144.084 89.956 
L 144.084 89.956 
" clip-path="url(#p9b27ecb97c)" style="fill: none; stroke: #000000; stroke-width: 2; stroke-linecap: round"/>
   </g>
   <g id="line2d_19">
    <path d="M 52.284 89.956 
L 52.284 102.196 
L 52.284 114.436 
" clip-path="url(#p9b27ecb97c)" style="fill: none; stroke: #000000; stroke-width: 2; stroke-linecap: round"/>
   </g>
   <g id="line2d_20">
    <path d="M 144.084 89.956 
L 187.23 89.956 
M 187.23 82.306 
L 187.23 97.606 
M 192.738 82.306 
L 192.738 97.606 
M 192.738 89.956 
L 235.884 89.956 
" clip-path="url(#p9b27ecb97c)" style="fill: none; stroke: #000000; stroke-width: 2; stroke-linecap: round"/>
   </g>
   <g id="line2d_21">
    <path d="M 235.884 89.956 
L 235.884 120.556 
L 243.534 123.106 
L 228.234 128.206 
L 243.534 133.306 
L 228.234 138.406 
L 243.534 143.506 
L 228.234 148.606 
L 235.884 151.156 
L 235.884 181.756 
" clip-path="url(#p9b27ecb97c)" style="fill: none; stroke: #000000; stroke-width: 2; stroke-linecap: round"/>
   </g>
   <g id="line2d_22">
    <path d="M 235.884 89.956 
L 243.534 89.956 
L 251.184 89.956 
" clip-path="url(#p9b27ecb97c)" style="fill: none; stroke: #000000; stroke-width: 2; stroke-linecap: round"/>
   </g>
   <g id="line2d_23">
    <path d="M 235.884 181.756 
L 243.534 181.756 
L 251.184 181.756 
" clip-path="url(#p9b27ecb97c)" style="fill: none; stroke: #000000; stroke-width: 2; stroke-linecap: round"/>
   </g>
   <g id="line2d_24">
    <path d="M 235.884 181.756 
L 144.084 181.756 
L 52.284 181.756 
" clip-path="url(#p9b27ecb97c)" style="fill: none; stroke: #000000; stroke-width: 2; stroke-linecap: round"/>
   </g>
   <g id="line2d_25">
    <path d="M 52.284 181.756 
L 52.284 193.996 
L 44.634 193.996 
L 59.934 193.996 
M 46.929 197.668 
L 57.639 197.668 
M 50.754 201.34 
L 53.814 201.34 
" clip-path="url(#p9b27ecb97c)" style="fill: none; stroke: #000000; stroke-width: 2; stroke-linecap: round"/>
   </g>
   <g id="line2d_26">
    <path d="M 52.284 181.756 
L 52.284 167.986 
L 52.284 154.216 
" clip-path="url(#p9b27ecb97c)" style="fill: none; stroke: #000000; stroke-width: 2; stroke-linecap: round"/>
   </g>
   <g id="text_1">
    <g clip-path="url(#p9b27ecb97c)">
     <!-- $L_1$ -->
     <g transform="translate(91.7465 72.669339)scale(0.125 -0.125)">
      <defs>
       <path id="DejaVuSans-Oblique-4c" d="M 1075 4666 
L 1709 4666 
L 909 525 
L 3181 525 
L 3078 0 
L 172 0 
L 1075 4666 
z
" transform="scale(0.015625)"/>
       <path id="DejaVuSans-31" d="M 794 531 
L 1825 531 
L 1825 4091 
L 703 3866 
L 703 4441 
L 1819 4666 
L 2450 4666 
L 2450 531 
L 3481 531 
L 3481 0 
L 794 0 
L 794 531 
z
" transform="scale(0.015625)"/>
      </defs>
      <use xlink:href="#DejaVuSans-Oblique-4c" transform="translate(0 0.09375)"/>
      <use xlink:href="#DejaVuSans-31" transform="translate(55.712891 -16.3125)scale(0.7)"/>
     </g>
    </g>
   </g>
   <g id="text_2">
    <g clip-path="url(#p9b27ecb97c)">
     <!-- $C_1$ -->
     <g transform="translate(182.609 76.646391)scale(0.125 -0.125)">
      <defs>
       <path id="DejaVuSans-Oblique-43" d="M 4447 4306 
L 4319 3641 
Q 4019 3944 3683 4091 
Q 3347 4238 2956 4238 
Q 2422 4238 2017 3981 
Q 1613 3725 1319 3200 
Q 1131 2863 1032 2486 
Q 934 2109 934 1728 
Q 934 1091 1264 756 
Q 1594 422 2222 422 
Q 2656 422 3056 561 
Q 3456 700 3834 978 
L 3688 231 
Q 3316 72 2936 -9 
Q 2556 -91 2175 -91 
Q 1278 -91 773 396 
Q 269 884 269 1753 
Q 269 2309 461 2846 
Q 653 3384 1013 3828 
Q 1394 4300 1883 4525 
Q 2372 4750 3022 4750 
Q 3422 4750 3780 4639 
Q 4138 4528 4447 4306 
z
" transform="scale(0.015625)"/>
      </defs>
      <use xlink:href="#DejaVuSans-Oblique-43" transform="translate(0 0.78125)"/>
      <use xlink:href="#DejaVuSans-31" transform="translate(69.824219 -15.625)scale(0.7)"/>
     </g>
    </g>
   </g>
   <g id="text_3">
    <g clip-path="url(#p9b27ecb97c)">
     <!-- $R_L$ -->
     <g transform="translate(211.174 139.305219)scale(0.125 -0.125)">
      <defs>
       <path id="DejaVuSans-Oblique-52" d="M 1613 4147 
L 1294 2491 
L 2106 2491 
Q 2584 2491 2879 2755 
Q 3175 3019 3175 3444 
Q 3175 3784 2976 3965 
Q 2778 4147 2406 4147 
L 1613 4147 
z
M 2772 2241 
Q 2972 2194 3105 2009 
Q 3238 1825 3413 1275 
L 3809 0 
L 3144 0 
L 2778 1197 
Q 2638 1659 2453 1815 
Q 2269 1972 1888 1972 
L 1191 1972 
L 806 0 
L 172 0 
L 1081 4666 
L 2503 4666 
Q 3150 4666 3495 4373 
Q 3841 4081 3841 3531 
Q 3841 3044 3547 2687 
Q 3253 2331 2772 2241 
z
" transform="scale(0.015625)"/>
      </defs>
      <use xlink:href="#DejaVuSans-Oblique-52" transform="translate(0 0.09375)"/>
      <use xlink:href="#DejaVuSans-Oblique-4c" transform="translate(69.482422 -16.3125)scale(0.7)"/>
     </g>
    </g>
   </g>
   <g id="text_4">
    <g clip-path="url(#p9b27ecb97c)">
     <!-- - -->
     <g transform="translate(261.169117 116.355219)scale(0.125 -0.125)">
      <defs>
       <path id="DejaVuSans-2d" d="M 313 2009 
L 1997 2009 
L 1997 1497 
L 313 1497 
L 313 2009 
z
" transform="scale(0.015625)"/>
      </defs>
      <use xlink:href="#DejaVuSans-2d"/>
     </g>
    </g>
   </g>
   <g id="text_5">
    <g clip-path="url(#p9b27ecb97c)">
     <!-- $v_{out}$ -->
     <g transform="translate(252.3615 139.305219)scale(0.125 -0.125)">
      <defs>
       <path id="DejaVuSans-Oblique-76" d="M 459 3500 
L 1069 3500 
L 1581 525 
L 3256 3500 
L 3866 3500 
L 1875 0 
L 1100 0 
L 459 3500 
z
" transform="scale(0.015625)"/>
       <path id="DejaVuSans-Oblique-6f" d="M 1625 -91 
Q 1009 -91 651 289 
Q 294 669 294 1325 
Q 294 1706 417 2101 
Q 541 2497 738 2766 
Q 1047 3184 1428 3384 
Q 1809 3584 2291 3584 
Q 2888 3584 3255 3212 
Q 3622 2841 3622 2241 
Q 3622 1825 3500 1412 
Q 3378 1000 3181 728 
Q 2875 309 2494 109 
Q 2113 -91 1625 -91 
z
M 891 1344 
Q 891 869 1089 633 
Q 1288 397 1691 397 
Q 2269 397 2648 901 
Q 3028 1406 3028 2181 
Q 3028 2634 2825 2865 
Q 2622 3097 2228 3097 
Q 1903 3097 1650 2945 
Q 1397 2794 1197 2484 
Q 1050 2253 970 1956 
Q 891 1659 891 1344 
z
" transform="scale(0.015625)"/>
       <path id="DejaVuSans-Oblique-75" d="M 428 1388 
L 838 3500 
L 1416 3500 
L 1006 1409 
Q 975 1256 961 1147 
Q 947 1038 947 966 
Q 947 700 1109 554 
Q 1272 409 1569 409 
Q 2031 409 2368 721 
Q 2706 1034 2809 1563 
L 3194 3500 
L 3769 3500 
L 3091 0 
L 2516 0 
L 2631 550 
Q 2388 244 2052 76 
Q 1716 -91 1338 -91 
Q 878 -91 622 161 
Q 366 413 366 863 
Q 366 956 381 1097 
Q 397 1238 428 1388 
z
" transform="scale(0.015625)"/>
       <path id="DejaVuSans-Oblique-74" d="M 2706 3500 
L 2619 3053 
L 1472 3053 
L 1100 1153 
Q 1081 1047 1072 975 
Q 1063 903 1063 863 
Q 1063 663 1183 572 
Q 1303 481 1569 481 
L 2150 481 
L 2053 0 
L 1503 0 
Q 991 0 739 200 
Q 488 400 488 806 
Q 488 878 497 964 
Q 506 1050 525 1153 
L 897 3053 
L 409 3053 
L 500 3500 
L 978 3500 
L 1172 4494 
L 1747 4494 
L 1556 3500 
L 2706 3500 
z
" transform="scale(0.015625)"/>
      </defs>
      <use xlink:href="#DejaVuSans-Oblique-76" transform="translate(0 0.3125)"/>
      <use xlink:href="#DejaVuSans-Oblique-6f" transform="translate(59.179688 -16.09375)scale(0.7)"/>
      <use xlink:href="#DejaVuSans-Oblique-75" transform="translate(102.006836 -16.09375)scale(0.7)"/>
      <use xlink:href="#DejaVuSans-Oblique-74" transform="translate(146.37207 -16.09375)scale(0.7)"/>
     </g>
    </g>
   </g>
   <g id="text_6">
    <g clip-path="url(#p9b27ecb97c)">
     <!-- $+$ -->
     <g transform="translate(258.174 162.255219)scale(0.125 -0.125)">
      <defs>
       <path id="DejaVuSans-2b" d="M 2944 4013 
L 2944 2272 
L 4684 2272 
L 4684 1741 
L 2944 1741 
L 2944 0 
L 2419 0 
L 2419 1741 
L 678 1741 
L 678 2272 
L 2419 2272 
L 2419 4013 
L 2944 4013 
z
" transform="scale(0.015625)"/>
      </defs>
      <use xlink:href="#DejaVuSans-2b" transform="translate(0 0.296875)"/>
     </g>
    </g>
   </g>
   <g id="patch_4">
    <path d="M 29.283 92.353 
C 29.891641 92.353 30.475436 92.111184 30.90581 91.68081 
C 31.336184 91.250436 31.578 90.666641 31.578 90.058 
C 31.578 89.449359 31.336184 88.865564 30.90581 88.43519 
C 30.475436 88.004816 29.891641 87.763 29.283 87.763 
C 28.674359 87.763 28.090564 88.004816 27.66019 88.43519 
C 27.229816 88.865564 26.988 89.449359 26.988 90.058 
C 26.988 90.666641 27.229816 91.250436 27.66019 91.68081 
C 28.090564 92.111184 28.674359 92.353 29.283 92.353 
z
" clip-path="url(#p9b27ecb97c)" style="fill: #ff0000; stroke: #ff0000; stroke-width: 2; stroke-linejoin: miter"/>
   </g>
   <g id="text_7">
    <g clip-path="url(#p9b27ecb97c)">
     <!-- 1 -->
     <g style="fill: #ff0000" transform="translate(15.209875 78.278391)scale(0.125 -0.125)">
      <use xlink:href="#DejaVuSans-31"/>
     </g>
    </g>
   </g>
   <g id="patch_5">
    <path d="M 52.284 25.135 
C 52.892641 25.135 53.476436 24.893184 53.90681 24.46281 
C 54.337184 24.032436 54.579 23.448641 54.579 22.84 
C 54.579 22.231359 54.337184 21.647564 53.90681 21.21719 
C 53.476436 20.786816 52.892641 20.545 52.284 20.545 
C 51.675359 20.545 51.091564 20.786816 50.66119 21.21719 
C 50.230816 21.647564 49.989 22.231359 49.989 22.84 
C 49.989 23.448641 50.230816 24.032436 50.66119 24.46281 
C 51.091564 24.893184 51.675359 25.135 52.284 25.135 
z
" clip-path="url(#p9b27ecb97c)" style="fill: #ff0000; stroke: #ff0000; stroke-width: 2; stroke-linejoin: miter"/>
   </g>
   <g id="text_8">
    <g clip-path="url(#p9b27ecb97c)">
     <!-- 3 -->
     <g style="fill: #ff0000" transform="translate(62.690875 29.420391)scale(0.125 -0.125)">
      <defs>
       <path id="DejaVuSans-33" d="M 2597 2516 
Q 3050 2419 3304 2112 
Q 3559 1806 3559 1356 
Q 3559 666 3084 287 
Q 2609 -91 1734 -91 
Q 1441 -91 1130 -33 
Q 819 25 488 141 
L 488 750 
Q 750 597 1062 519 
Q 1375 441 1716 441 
Q 2309 441 2620 675 
Q 2931 909 2931 1356 
Q 2931 1769 2642 2001 
Q 2353 2234 1838 2234 
L 1294 2234 
L 1294 2753 
L 1863 2753 
Q 2328 2753 2575 2939 
Q 2822 3125 2822 3475 
Q 2822 3834 2567 4026 
Q 2313 4219 1838 4219 
Q 1578 4219 1281 4162 
Q 984 4106 628 3988 
L 628 4550 
Q 988 4650 1302 4700 
Q 1616 4750 1894 4750 
Q 2613 4750 3031 4423 
Q 3450 4097 3450 3541 
Q 3450 3153 3228 2886 
Q 3006 2619 2597 2516 
z
" transform="scale(0.015625)"/>
      </defs>
      <use xlink:href="#DejaVuSans-33"/>
     </g>
    </g>
   </g>
   <g id="patch_6">
    <path d="M 13.983 92.353 
C 14.591641 92.353 15.175436 92.111184 15.60581 91.68081 
C 16.036184 91.250436 16.278 90.666641 16.278 90.058 
C 16.278 89.449359 16.036184 88.865564 15.60581 88.43519 
C 15.175436 88.004816 14.591641 87.763 13.983 87.763 
C 13.374359 87.763 12.790564 88.004816 12.36019 88.43519 
C 11.929816 88.865564 11.688 89.449359 11.688 90.058 
C 11.688 90.666641 11.929816 91.250436 12.36019 91.68081 
C 12.790564 92.111184 13.374359 92.353 13.983 92.353 
z
" clip-path="url(#p9b27ecb97c)" style="fill: #ffffff; stroke: #000000; stroke-width: 2; stroke-linejoin: miter"/>
   </g>
   <g id="patch_7">
    <path d="M 52.284 92.251 
C 52.892641 92.251 53.476436 92.009184 53.90681 91.57881 
C 54.337184 91.148436 54.579 90.564641 54.579 89.956 
C 54.579 89.347359 54.337184 88.763564 53.90681 88.33319 
C 53.476436 87.902816 52.892641 87.661 52.284 87.661 
C 51.675359 87.661 51.091564 87.902816 50.66119 88.33319 
C 50.230816 88.763564 49.989 89.347359 49.989 89.956 
C 49.989 90.564641 50.230816 91.148436 50.66119 91.57881 
C 51.091564 92.009184 51.675359 92.251 52.284 92.251 
z
" clip-path="url(#p9b27ecb97c)" style="fill: #ff0000; stroke: #ff0000; stroke-width: 2; stroke-linejoin: miter"/>
   </g>
   <g id="text_9">
    <g clip-path="url(#p9b27ecb97c)">
     <!-- 2 -->
     <g style="fill: #ff0000" transform="translate(56.570875 78.176391)scale(0.125 -0.125)">
      <defs>
       <path id="DejaVuSans-32" d="M 1228 531 
L 3431 531 
L 3431 0 
L 469 0 
L 469 531 
Q 828 903 1448 1529 
Q 2069 2156 2228 2338 
Q 2531 2678 2651 2914 
Q 2772 3150 2772 3378 
Q 2772 3750 2511 3984 
Q 2250 4219 1831 4219 
Q 1534 4219 1204 4116 
Q 875 4013 500 3803 
L 500 4441 
Q 881 4594 1212 4672 
Q 1544 4750 1819 4750 
Q 2544 4750 2975 4387 
Q 3406 4025 3406 3419 
Q 3406 3131 3298 2873 
Q 3191 2616 2906 2266 
Q 2828 2175 2409 1742 
Q 1991 1309 1228 531 
z
" transform="scale(0.015625)"/>
      </defs>
      <use xlink:href="#DejaVuSans-32"/>
     </g>
    </g>
   </g>
   <g id="patch_8">
    <path d="M 144.084 92.251 
C 144.692641 92.251 145.276436 92.009184 145.70681 91.57881 
C 146.137184 91.148436 146.379 90.564641 146.379 89.956 
C 146.379 89.347359 146.137184 88.763564 145.70681 88.33319 
C 145.276436 87.902816 144.692641 87.661 144.084 87.661 
C 143.475359 87.661 142.891564 87.902816 142.46119 88.33319 
C 142.030816 88.763564 141.789 89.347359 141.789 89.956 
C 141.789 90.564641 142.030816 91.148436 142.46119 91.57881 
C 142.891564 92.009184 143.475359 92.251 144.084 92.251 
z
" clip-path="url(#p9b27ecb97c)" style="fill: #ff0000; stroke: #ff0000; stroke-width: 2; stroke-linejoin: miter"/>
   </g>
   <g id="text_10">
    <g clip-path="url(#p9b27ecb97c)">
     <!-- 5 -->
     <g style="fill: #ff0000" transform="translate(148.370875 78.176391)scale(0.125 -0.125)">
      <defs>
       <path id="DejaVuSans-35" d="M 691 4666 
L 3169 4666 
L 3169 4134 
L 1269 4134 
L 1269 2991 
Q 1406 3038 1543 3061 
Q 1681 3084 1819 3084 
Q 2600 3084 3056 2656 
Q 3513 2228 3513 1497 
Q 3513 744 3044 326 
Q 2575 -91 1722 -91 
Q 1428 -91 1123 -41 
Q 819 9 494 109 
L 494 744 
Q 775 591 1075 516 
Q 1375 441 1709 441 
Q 2250 441 2565 725 
Q 2881 1009 2881 1497 
Q 2881 1984 2565 2268 
Q 2250 2553 1709 2553 
Q 1456 2553 1204 2497 
Q 953 2441 691 2322 
L 691 4666 
z
" transform="scale(0.015625)"/>
      </defs>
      <use xlink:href="#DejaVuSans-35"/>
     </g>
    </g>
   </g>
   <g id="patch_9">
    <path d="M 235.884 92.251 
C 236.492641 92.251 237.076436 92.009184 237.50681 91.57881 
C 237.937184 91.148436 238.179 90.564641 238.179 89.956 
C 238.179 89.347359 237.937184 88.763564 237.50681 88.33319 
C 237.076436 87.902816 236.492641 87.661 235.884 87.661 
C 235.275359 87.661 234.691564 87.902816 234.26119 88.33319 
C 233.830816 88.763564 233.589 89.347359 233.589 89.956 
C 233.589 90.564641 233.830816 91.148436 234.26119 91.57881 
C 234.691564 92.009184 235.275359 92.251 235.884 92.251 
z
" clip-path="url(#p9b27ecb97c)" style="fill: #ff0000; stroke: #ff0000; stroke-width: 2; stroke-linejoin: miter"/>
   </g>
   <g id="text_11">
    <g clip-path="url(#p9b27ecb97c)">
     <!-- 6 -->
     <g style="fill: #ff0000" transform="translate(240.170875 78.176391)scale(0.125 -0.125)">
      <defs>
       <path id="DejaVuSans-36" d="M 2113 2584 
Q 1688 2584 1439 2293 
Q 1191 2003 1191 1497 
Q 1191 994 1439 701 
Q 1688 409 2113 409 
Q 2538 409 2786 701 
Q 3034 994 3034 1497 
Q 3034 2003 2786 2293 
Q 2538 2584 2113 2584 
z
M 3366 4563 
L 3366 3988 
Q 3128 4100 2886 4159 
Q 2644 4219 2406 4219 
Q 1781 4219 1451 3797 
Q 1122 3375 1075 2522 
Q 1259 2794 1537 2939 
Q 1816 3084 2150 3084 
Q 2853 3084 3261 2657 
Q 3669 2231 3669 1497 
Q 3669 778 3244 343 
Q 2819 -91 2113 -91 
Q 1303 -91 875 529 
Q 447 1150 447 2328 
Q 447 3434 972 4092 
Q 1497 4750 2381 4750 
Q 2619 4750 2861 4703 
Q 3103 4656 3366 4563 
z
" transform="scale(0.015625)"/>
      </defs>
      <use xlink:href="#DejaVuSans-36"/>
     </g>
    </g>
   </g>
   <g id="patch_10">
    <path d="M 251.184 92.251 
C 251.792641 92.251 252.376436 92.009184 252.80681 91.57881 
C 253.237184 91.148436 253.479 90.564641 253.479 89.956 
C 253.479 89.347359 253.237184 88.763564 252.80681 88.33319 
C 252.376436 87.902816 251.792641 87.661 251.184 87.661 
C 250.575359 87.661 249.991564 87.902816 249.56119 88.33319 
C 249.130816 88.763564 248.889 89.347359 248.889 89.956 
C 248.889 90.564641 249.130816 91.148436 249.56119 91.57881 
C 249.991564 92.009184 250.575359 92.251 251.184 92.251 
z
" clip-path="url(#p9b27ecb97c)" style="fill: #ffffff; stroke: #000000; stroke-width: 2; stroke-linejoin: miter"/>
   </g>
   <g id="patch_11">
    <path d="M 251.184 184.051 
C 251.792641 184.051 252.376436 183.809184 252.80681 183.37881 
C 253.237184 182.948436 253.479 182.364641 253.479 181.756 
C 253.479 181.147359 253.237184 180.563564 252.80681 180.13319 
C 252.376436 179.702816 251.792641 179.461 251.184 179.461 
C 250.575359 179.461 249.991564 179.702816 249.56119 180.13319 
C 249.130816 180.563564 248.889 181.147359 248.889 181.756 
C 248.889 182.364641 249.130816 182.948436 249.56119 183.37881 
C 249.991564 183.809184 250.575359 184.051 251.184 184.051 
z
" clip-path="url(#p9b27ecb97c)" style="fill: #ffffff; stroke: #000000; stroke-width: 2; stroke-linejoin: miter"/>
   </g>
   <g id="patch_12">
    <path d="M 52.284 184.051 
C 52.892641 184.051 53.476436 183.809184 53.90681 183.37881 
C 54.337184 182.948436 54.579 182.364641 54.579 181.756 
C 54.579 181.147359 54.337184 180.563564 53.90681 180.13319 
C 53.476436 179.702816 52.892641 179.461 52.284 179.461 
C 51.675359 179.461 51.091564 179.702816 50.66119 180.13319 
C 50.230816 180.563564 49.989 181.147359 49.989 181.756 
C 49.989 182.364641 50.230816 182.948436 50.66119 183.37881 
C 51.091564 183.809184 51.675359 184.051 52.284 184.051 
z
" clip-path="url(#p9b27ecb97c)" style="fill: #ff0000; stroke: #ff0000; stroke-width: 2; stroke-linejoin: miter"/>
   </g>
   <g id="text_12">
    <g clip-path="url(#p9b27ecb97c)">
     <!-- 0 -->
     <g style="fill: #ff0000" transform="translate(56.570875 169.976391)scale(0.125 -0.125)">
      <defs>
       <path id="DejaVuSans-30" d="M 2034 4250 
Q 1547 4250 1301 3770 
Q 1056 3291 1056 2328 
Q 1056 1369 1301 889 
Q 1547 409 2034 409 
Q 2525 409 2770 889 
Q 3016 1369 3016 2328 
Q 3016 3291 2770 3770 
Q 2525 4250 2034 4250 
z
M 2034 4750 
Q 2819 4750 3233 4129 
Q 3647 3509 3647 2328 
Q 3647 1150 3233 529 
Q 2819 -91 2034 -91 
Q 1250 -91 836 529 
Q 422 1150 422 2328 
Q 422 3509 836 4129 
Q 1250 4750 2034 4750 
z
" transform="scale(0.015625)"/>
      </defs>
      <use xlink:href="#DejaVuSans-30"/>
     </g>
    </g>
   </g>
  </g>
 </g>
 <defs>
  <clipPath id="p9b27ecb97c">
   <rect x="7.2" y="7.2" width="284.4474" height="197.2"/>
  </clipPath>
 </defs>
</svg>