<?xml version="1.0" encoding="utf-8" standalone="no"?>
<!DOCTYPE svg PUBLIC "-//W3C//DTD SVG 1.1//EN"
  "http://www.w3.org/Graphics/SVG/1.1/DTD/svg11.dtd">
<svg xmlns:xlink="http://www.w3.org/1999/xlink" width="611.301pt" height="235.1232pt" viewBox="0 0 611.301 235.1232" xmlns="http://www.w3.org/2000/svg" version="1.1">
 <metadata>
  <rdf:RDF xmlns:dc="http://purl.org/dc/elements/1.1/" xmlns:cc="http://creativecommons.org/ns#" xmlns:rdf="http://www.w3.org/1999/02/22-rdf-syntax-ns#">
   <cc:Work>
    <dc:type rdf:resource="http://purl.org/dc/dcmitype/StillImage"/>
    <dc:date>2023-11-12T17:48:29.624434</dc:date>
    <dc:format>image/svg+xml</dc:format>
    <dc:creator>
     <cc:Agent>
      <dc:title>Matplotlib v3.8.0, https://matplotlib.org/</dc:title>
     </cc:Agent>
    </dc:creator>
   </cc:Work>
  </rdf:RDF>
 </metadata>
 <defs>
  <style type="text/css">*{stroke-linejoin: round; stroke-linecap: butt}</style>
 </defs>
 <g id="figure_1">
  <g id="patch_1">
   <path d="M 0 235.1232 
L 611.301 235.1232 
L 611.301 0 
L 0 0 
z
" style="fill: #ffffff"/>
  </g>
  <g id="axes_1">
   <g id="line2d_1">
    <path d="M 32.256 150.1056 
L 43.056 150.1056 
L 53.856 150.1056 
" clip-path="url(#p30fd2862a1)" style="fill: none; stroke: #000000; stroke-width: 2; stroke-linecap: round"/>
   </g>
   <g id="line2d_2">
    <path d="M 53.856 150.1056 
L 82.656 150.1056 
L 85.056 142.9056 
L 89.856 157.3056 
L 94.656 142.9056 
L 99.456 157.3056 
L 104.256 142.9056 
L 109.056 157.3056 
L 111.456 150.1056 
L 140.256 150.1056 
" clip-path="url(#p30fd2862a1)" style="fill: none; stroke: #000000; stroke-width: 2; stroke-linecap: round"/>
   </g>
   <g id="line2d_3">
    <path d="M 140.256 150.1056 
L 145.656 150.1056 
L 151.056 150.1056 
" clip-path="url(#p30fd2862a1)" style="fill: none; stroke: #000000; stroke-width: 2; stroke-linecap: round"/>
   </g>
   <g id="line2d_4">
    <path d="M 151.056 168.1056 
L 151.056 132.1056 
L 213.409829 168.1056 
L 151.056 204.1056 
L 151.056 168.1056 
M 213.409829 168.1056 
" clip-path="url(#p30fd2862a1)" style="fill: none; stroke: #000000; stroke-width: 2; stroke-linecap: round"/>
   </g>
   <g id="line2d_5">
    <path d="M 155.970229 150.1056 
L 161.730229 150.1056 
" clip-path="url(#p30fd2862a1)" style="fill: none; stroke: #000000; stroke-width: 2; stroke-linecap: round"/>
   </g>
   <g id="line2d_6">
    <path d="M 155.970229 186.1056 
L 161.730229 186.1056 
" clip-path="url(#p30fd2862a1)" style="fill: none; stroke: #000000; stroke-width: 2; stroke-linecap: round"/>
   </g>
   <g id="line2d_7">
    <path d="M 158.850229 188.9856 
L 158.850229 183.2256 
" clip-path="url(#p30fd2862a1)" style="fill: none; stroke: #000000; stroke-width: 2; stroke-linecap: round"/>
   </g>
   <g id="line2d_8">
    <path d="M 151.056 186.1056 
L 140.256 186.1056 
L 129.456 186.1056 
" clip-path="url(#p30fd2862a1)" style="fill: none; stroke: #000000; stroke-width: 2; stroke-linecap: round"/>
   </g>
   <g id="line2d_9">
    <path d="M 129.456 186.1056 
L 129.456 194.7456 
L 129.456 203.3856 
" clip-path="url(#p30fd2862a1)" style="fill: none; stroke: #000000; stroke-width: 2; stroke-linecap: round"/>
   </g>
   <g id="line2d_10">
    <path d="M 129.456 203.3856 
L 129.456 214.9056 
L 122.256 214.9056 
L 136.656 214.9056 
M 124.416 218.3616 
L 134.496 218.3616 
M 128.016 221.8176 
L 130.896 221.8176 
" clip-path="url(#p30fd2862a1)" style="fill: none; stroke: #000000; stroke-width: 2; stroke-linecap: round"/>
   </g>
   <g id="line2d_11">
    <path d="M 140.256 150.1056 
L 140.256 128.5056 
L 140.256 106.9056 
" clip-path="url(#p30fd2862a1)" style="fill: none; stroke: #000000; stroke-width: 2; stroke-linecap: round"/>
   </g>
   <g id="line2d_12">
    <path d="M 140.256 106.9056 
L 169.056 106.9056 
L 171.456 99.7056 
L 176.256 114.1056 
L 181.056 99.7056 
L 185.856 114.1056 
L 190.656 99.7056 
L 195.456 114.1056 
L 197.856 106.9056 
L 226.656 106.9056 
" clip-path="url(#p30fd2862a1)" style="fill: none; stroke: #000000; stroke-width: 2; stroke-linecap: round"/>
   </g>
   <g id="line2d_13">
    <path d="M 140.256 106.9056 
L 140.256 85.3056 
L 140.256 63.7056 
" clip-path="url(#p30fd2862a1)" style="fill: none; stroke: #000000; stroke-width: 2; stroke-linecap: round"/>
   </g>
   <g id="line2d_14">
    <path d="M 140.256 63.7056 
L 180.864 63.7056 
M 180.864 56.5056 
L 180.864 70.9056 
M 186.048 56.5056 
L 186.048 70.9056 
M 186.048 63.7056 
L 226.656 63.7056 
" clip-path="url(#p30fd2862a1)" style="fill: none; stroke: #000000; stroke-width: 2; stroke-linecap: round"/>
   </g>
   <g id="line2d_15">
    <path d="M 226.656 63.7056 
L 226.656 106.9056 
L 226.656 150.1056 
" clip-path="url(#p30fd2862a1)" style="fill: none; stroke: #000000; stroke-width: 2; stroke-linecap: round"/>
   </g>
   <g id="line2d_16">
    <path d="M 226.656 150.1056 
L 226.656 159.1056 
L 226.656 168.1056 
" clip-path="url(#p30fd2862a1)" style="fill: none; stroke: #000000; stroke-width: 2; stroke-linecap: round"/>
   </g>
   <g id="line2d_17">
    <path d="M 226.656 168.1056 
L 220.032915 168.1056 
L 213.409829 168.1056 
" clip-path="url(#p30fd2862a1)" style="fill: none; stroke: #000000; stroke-width: 2; stroke-linecap: round"/>
   </g>
   <g id="line2d_18">
    <path d="M 226.656 150.1056 
L 255.456 150.1056 
L 257.856 142.9056 
L 262.656 157.3056 
L 267.456 142.9056 
L 272.256 157.3056 
L 277.056 142.9056 
L 281.856 157.3056 
L 284.256 150.1056 
L 313.056 150.1056 
" clip-path="url(#p30fd2862a1)" style="fill: none; stroke: #000000; stroke-width: 2; stroke-linecap: round"/>
   </g>
   <g id="line2d_19">
    <path d="M 313.056 150.1056 
L 318.456 150.1056 
L 323.856 150.1056 
" clip-path="url(#p30fd2862a1)" style="fill: none; stroke: #000000; stroke-width: 2; stroke-linecap: round"/>
   </g>
   <g id="line2d_20">
    <path d="M 323.856 168.1056 
L 323.856 132.1056 
L 386.209829 168.1056 
L 323.856 204.1056 
L 323.856 168.1056 
M 386.209829 168.1056 
" clip-path="url(#p30fd2862a1)" style="fill: none; stroke: #000000; stroke-width: 2; stroke-linecap: round"/>
   </g>
   <g id="line2d_21">
    <path d="M 328.770229 150.1056 
L 334.530229 150.1056 
" clip-path="url(#p30fd2862a1)" style="fill: none; stroke: #000000; stroke-width: 2; stroke-linecap: round"/>
   </g>
   <g id="line2d_22">
    <path d="M 328.770229 186.1056 
L 334.530229 186.1056 
" clip-path="url(#p30fd2862a1)" style="fill: none; stroke: #000000; stroke-width: 2; stroke-linecap: round"/>
   </g>
   <g id="line2d_23">
    <path d="M 331.650229 188.9856 
L 331.650229 183.2256 
" clip-path="url(#p30fd2862a1)" style="fill: none; stroke: #000000; stroke-width: 2; stroke-linecap: round"/>
   </g>
   <g id="line2d_24">
    <path d="M 323.856 186.1056 
L 313.056 186.1056 
L 302.256 186.1056 
" clip-path="url(#p30fd2862a1)" style="fill: none; stroke: #000000; stroke-width: 2; stroke-linecap: round"/>
   </g>
   <g id="line2d_25">
    <path d="M 302.256 186.1056 
L 302.256 194.7456 
L 302.256 203.3856 
" clip-path="url(#p30fd2862a1)" style="fill: none; stroke: #000000; stroke-width: 2; stroke-linecap: round"/>
   </g>
   <g id="line2d_26">
    <path d="M 302.256 203.3856 
L 302.256 214.9056 
L 295.056 214.9056 
L 309.456 214.9056 
M 297.216 218.3616 
L 307.296 218.3616 
M 300.816 221.8176 
L 303.696 221.8176 
" clip-path="url(#p30fd2862a1)" style="fill: none; stroke: #000000; stroke-width: 2; stroke-linecap: round"/>
   </g>
   <g id="line2d_27">
    <path d="M 313.056 150.1056 
L 313.056 128.5056 
L 313.056 106.9056 
" clip-path="url(#p30fd2862a1)" style="fill: none; stroke: #000000; stroke-width: 2; stroke-linecap: round"/>
   </g>
   <g id="line2d_28">
    <path d="M 313.056 106.9056 
L 353.664 106.9056 
M 353.664 99.7056 
L 353.664 114.1056 
M 358.848 99.7056 
L 358.848 114.1056 
M 358.848 106.9056 
L 399.456 106.9056 
" clip-path="url(#p30fd2862a1)" style="fill: none; stroke: #000000; stroke-width: 2; stroke-linecap: round"/>
   </g>
   <g id="line2d_29">
    <path d="M 399.456 106.9056 
L 399.456 128.5056 
L 399.456 150.1056 
" clip-path="url(#p30fd2862a1)" style="fill: none; stroke: #000000; stroke-width: 2; stroke-linecap: round"/>
   </g>
   <g id="line2d_30">
    <path d="M 399.456 150.1056 
L 399.456 159.1056 
L 399.456 168.1056 
" clip-path="url(#p30fd2862a1)" style="fill: none; stroke: #000000; stroke-width: 2; stroke-linecap: round"/>
   </g>
   <g id="line2d_31">
    <path d="M 399.456 168.1056 
L 392.832915 168.1056 
L 386.209829 168.1056 
" clip-path="url(#p30fd2862a1)" style="fill: none; stroke: #000000; stroke-width: 2; stroke-linecap: round"/>
   </g>
   <g id="line2d_32">
    <path d="M 399.456 150.1056 
L 428.256 150.1056 
L 430.656 142.9056 
L 435.456 157.3056 
L 440.256 142.9056 
L 445.056 157.3056 
L 449.856 142.9056 
L 454.656 157.3056 
L 457.056 150.1056 
L 485.856 150.1056 
" clip-path="url(#p30fd2862a1)" style="fill: none; stroke: #000000; stroke-width: 2; stroke-linecap: round"/>
   </g>
   <g id="line2d_33">
    <path d="M 485.856 150.1056 
L 491.256 150.1056 
L 496.656 150.1056 
" clip-path="url(#p30fd2862a1)" style="fill: none; stroke: #000000; stroke-width: 2; stroke-linecap: round"/>
   </g>
   <g id="line2d_34">
    <path d="M 496.656 168.1056 
L 496.656 132.1056 
L 559.009829 168.1056 
L 496.656 204.1056 
L 496.656 168.1056 
M 559.009829 168.1056 
" clip-path="url(#p30fd2862a1)" style="fill: none; stroke: #000000; stroke-width: 2; stroke-linecap: round"/>
   </g>
   <g id="line2d_35">
    <path d="M 501.570229 150.1056 
L 507.330229 150.1056 
" clip-path="url(#p30fd2862a1)" style="fill: none; stroke: #000000; stroke-width: 2; stroke-linecap: round"/>
   </g>
   <g id="line2d_36">
    <path d="M 501.570229 186.1056 
L 507.330229 186.1056 
" clip-path="url(#p30fd2862a1)" style="fill: none; stroke: #000000; stroke-width: 2; stroke-linecap: round"/>
   </g>
   <g id="line2d_37">
    <path d="M 504.450229 188.9856 
L 504.450229 183.2256 
" clip-path="url(#p30fd2862a1)" style="fill: none; stroke: #000000; stroke-width: 2; stroke-linecap: round"/>
   </g>
   <g id="line2d_38">
    <path d="M 496.656 186.1056 
L 485.856 186.1056 
L 475.056 186.1056 
" clip-path="url(#p30fd2862a1)" style="fill: none; stroke: #000000; stroke-width: 2; stroke-linecap: round"/>
   </g>
   <g id="line2d_39">
    <path d="M 475.056 186.1056 
L 475.056 194.7456 
L 475.056 203.3856 
" clip-path="url(#p30fd2862a1)" style="fill: none; stroke: #000000; stroke-width: 2; stroke-linecap: round"/>
   </g>
   <g id="line2d_40">
    <path d="M 475.056 203.3856 
L 475.056 214.9056 
L 467.856 214.9056 
L 482.256 214.9056 
M 470.016 218.3616 
L 480.096 218.3616 
M 473.616 221.8176 
L 476.496 221.8176 
" clip-path="url(#p30fd2862a1)" style="fill: none; stroke: #000000; stroke-width: 2; stroke-linecap: round"/>
   </g>
   <g id="line2d_41">
    <path d="M 485.856 150.1056 
L 485.856 128.5056 
L 485.856 106.9056 
" clip-path="url(#p30fd2862a1)" style="fill: none; stroke: #000000; stroke-width: 2; stroke-linecap: round"/>
   </g>
   <g id="line2d_42">
    <path d="M 485.856 106.9056 
L 514.656 106.9056 
L 517.056 99.7056 
L 521.856 114.1056 
L 526.656 99.7056 
L 531.456 114.1056 
L 536.256 99.7056 
L 541.056 114.1056 
L 543.456 106.9056 
L 572.256 106.9056 
" clip-path="url(#p30fd2862a1)" style="fill: none; stroke: #000000; stroke-width: 2; stroke-linecap: round"/>
   </g>
   <g id="line2d_43">
    <path d="M 572.256 106.9056 
L 572.256 137.5056 
L 572.256 168.1056 
" clip-path="url(#p30fd2862a1)" style="fill: none; stroke: #000000; stroke-width: 2; stroke-linecap: round"/>
   </g>
   <g id="line2d_44">
    <path d="M 572.256 168.1056 
L 565.632915 168.1056 
L 559.009829 168.1056 
" clip-path="url(#p30fd2862a1)" style="fill: none; stroke: #000000; stroke-width: 2; stroke-linecap: round"/>
   </g>
   <g id="line2d_45">
    <path d="M 572.256 106.9056 
L 572.256 63.7056 
L 572.256 20.5056 
" clip-path="url(#p30fd2862a1)" style="fill: none; stroke: #000000; stroke-width: 2; stroke-linecap: round"/>
   </g>
   <g id="line2d_46">
    <path d="M 572.256 20.5056 
L 442.656 20.5056 
L 313.056 20.5056 
" clip-path="url(#p30fd2862a1)" style="fill: none; stroke: #000000; stroke-width: 2; stroke-linecap: round"/>
   </g>
   <g id="line2d_47">
    <path d="M 313.056 20.5056 
L 284.256 20.5056 
L 281.856 27.7056 
L 277.056 13.3056 
L 272.256 27.7056 
L 267.456 13.3056 
L 262.656 27.7056 
L 257.856 13.3056 
L 255.456 20.5056 
L 226.656 20.5056 
" clip-path="url(#p30fd2862a1)" style="fill: none; stroke: #000000; stroke-width: 2; stroke-linecap: round"/>
   </g>
   <g id="line2d_48">
    <path d="M 226.656 20.5056 
L 183.456 20.5056 
L 140.256 20.5056 
" clip-path="url(#p30fd2862a1)" style="fill: none; stroke: #000000; stroke-width: 2; stroke-linecap: round"/>
   </g>
   <g id="line2d_49">
    <path d="M 140.256 20.5056 
L 140.256 85.3056 
L 140.256 150.1056 
" clip-path="url(#p30fd2862a1)" style="fill: none; stroke: #000000; stroke-width: 2; stroke-linecap: round"/>
   </g>
   <g id="text_1">
    <!-- $R_{11}$ -->
    <g transform="translate(86.931 169.683647) scale(0.125 -0.125)">
     <defs>
      <path id="DejaVuSans-Oblique-52" d="M 1613 4147 
L 1294 2491 
L 2106 2491 
Q 2584 2491 2879 2755 
Q 3175 3019 3175 3444 
Q 3175 3784 2976 3965 
Q 2778 4147 2406 4147 
L 1613 4147 
z
M 2772 2241 
Q 2972 2194 3105 2009 
Q 3238 1825 3413 1275 
L 3809 0 
L 3144 0 
L 2778 1197 
Q 2638 1659 2453 1815 
Q 2269 1972 1888 1972 
L 1191 1972 
L 806 0 
L 172 0 
L 1081 4666 
L 2503 4666 
Q 3150 4666 3495 4373 
Q 3841 4081 3841 3531 
Q 3841 3044 3547 2687 
Q 3253 2331 2772 2241 
z
" transform="scale(0.015625)"/>
      <path id="DejaVuSans-31" d="M 794 531 
L 1825 531 
L 1825 4091 
L 703 3866 
L 703 4441 
L 1819 4666 
L 2450 4666 
L 2450 531 
L 3481 531 
L 3481 0 
L 794 0 
L 794 531 
z
" transform="scale(0.015625)"/>
     </defs>
     <use xlink:href="#DejaVuSans-Oblique-52" transform="translate(0 0.09375)"/>
     <use xlink:href="#DejaVuSans-31" transform="translate(69.482422 -16.3125) scale(0.7)"/>
     <use xlink:href="#DejaVuSans-31" transform="translate(114.018555 -16.3125) scale(0.7)"/>
    </g>
   </g>
   <g id="text_2">
    <!-- $R_{12}$ -->
    <g transform="translate(173.331 94.225991) scale(0.125 -0.125)">
     <defs>
      <path id="DejaVuSans-32" d="M 1228 531 
L 3431 531 
L 3431 0 
L 469 0 
L 469 531 
Q 828 903 1448 1529 
Q 2069 2156 2228 2338 
Q 2531 2678 2651 2914 
Q 2772 3150 2772 3378 
Q 2772 3750 2511 3984 
Q 2250 4219 1831 4219 
Q 1534 4219 1204 4116 
Q 875 4013 500 3803 
L 500 4441 
Q 881 4594 1212 4672 
Q 1544 4750 1819 4750 
Q 2544 4750 2975 4387 
Q 3406 4025 3406 3419 
Q 3406 3131 3298 2873 
Q 3191 2616 2906 2266 
Q 2828 2175 2409 1742 
Q 1991 1309 1228 531 
z
" transform="scale(0.015625)"/>
     </defs>
     <use xlink:href="#DejaVuSans-Oblique-52" transform="translate(0 0.09375)"/>
     <use xlink:href="#DejaVuSans-31" transform="translate(69.482422 -16.3125) scale(0.7)"/>
     <use xlink:href="#DejaVuSans-32" transform="translate(114.018555 -16.3125) scale(0.7)"/>
    </g>
   </g>
   <g id="text_3">
    <!-- $C_1$ -->
    <g transform="translate(176.081 51.025991) scale(0.125 -0.125)">
     <defs>
      <path id="DejaVuSans-Oblique-43" d="M 4447 4306 
L 4319 3641 
Q 4019 3944 3683 4091 
Q 3347 4238 2956 4238 
Q 2422 4238 2017 3981 
Q 1613 3725 1319 3200 
Q 1131 2863 1032 2486 
Q 934 2109 934 1728 
Q 934 1091 1264 756 
Q 1594 422 2222 422 
Q 2656 422 3056 561 
Q 3456 700 3834 978 
L 3688 231 
Q 3316 72 2936 -9 
Q 2556 -91 2175 -91 
Q 1278 -91 773 396 
Q 269 884 269 1753 
Q 269 2309 461 2846 
Q 653 3384 1013 3828 
Q 1394 4300 1883 4525 
Q 2372 4750 3022 4750 
Q 3422 4750 3780 4639 
Q 4138 4528 4447 4306 
z
" transform="scale(0.015625)"/>
     </defs>
     <use xlink:href="#DejaVuSans-Oblique-43" transform="translate(0 0.78125)"/>
     <use xlink:href="#DejaVuSans-31" transform="translate(69.824219 -15.625) scale(0.7)"/>
    </g>
   </g>
   <g id="text_4">
    <!-- $R_2$ -->
    <g transform="translate(262.5435 169.683647) scale(0.125 -0.125)">
     <use xlink:href="#DejaVuSans-Oblique-52" transform="translate(0 0.09375)"/>
     <use xlink:href="#DejaVuSans-32" transform="translate(69.482422 -16.3125) scale(0.7)"/>
    </g>
   </g>
   <g id="text_5">
    <!-- $C_2$ -->
    <g transform="translate(348.881 94.225991) scale(0.125 -0.125)">
     <use xlink:href="#DejaVuSans-Oblique-43" transform="translate(0 0.78125)"/>
     <use xlink:href="#DejaVuSans-32" transform="translate(69.824219 -15.625) scale(0.7)"/>
    </g>
   </g>
   <g id="text_6">
    <!-- $R_3$ -->
    <g transform="translate(435.3435 169.683647) scale(0.125 -0.125)">
     <defs>
      <path id="DejaVuSans-33" d="M 2597 2516 
Q 3050 2419 3304 2112 
Q 3559 1806 3559 1356 
Q 3559 666 3084 287 
Q 2609 -91 1734 -91 
Q 1441 -91 1130 -33 
Q 819 25 488 141 
L 488 750 
Q 750 597 1062 519 
Q 1375 441 1716 441 
Q 2309 441 2620 675 
Q 2931 909 2931 1356 
Q 2931 1769 2642 2001 
Q 2353 2234 1838 2234 
L 1294 2234 
L 1294 2753 
L 1863 2753 
Q 2328 2753 2575 2939 
Q 2822 3125 2822 3475 
Q 2822 3834 2567 4026 
Q 2313 4219 1838 4219 
Q 1578 4219 1281 4162 
Q 984 4106 628 3988 
L 628 4550 
Q 988 4650 1302 4700 
Q 1616 4750 1894 4750 
Q 2613 4750 3031 4423 
Q 3450 4097 3450 3541 
Q 3450 3153 3228 2886 
Q 3006 2619 2597 2516 
z
" transform="scale(0.015625)"/>
     </defs>
     <use xlink:href="#DejaVuSans-Oblique-52" transform="translate(0 0.09375)"/>
     <use xlink:href="#DejaVuSans-33" transform="translate(69.482422 -16.3125) scale(0.7)"/>
    </g>
   </g>
   <g id="text_7">
    <!-- $R_{3}$ -->
    <g transform="translate(521.7435 94.225991) scale(0.125 -0.125)">
     <use xlink:href="#DejaVuSans-Oblique-52" transform="translate(0 0.09375)"/>
     <use xlink:href="#DejaVuSans-33" transform="translate(69.482422 -16.3125) scale(0.7)"/>
    </g>
   </g>
   <g id="text_8">
    <!-- $R_{13}$ -->
    <g transform="translate(259.731 40.083647) scale(0.125 -0.125)">
     <use xlink:href="#DejaVuSans-Oblique-52" transform="translate(0 0.09375)"/>
     <use xlink:href="#DejaVuSans-31" transform="translate(69.482422 -16.3125) scale(0.7)"/>
     <use xlink:href="#DejaVuSans-33" transform="translate(114.018555 -16.3125) scale(0.7)"/>
    </g>
   </g>
   <g id="patch_2">
    <path d="M 32.256 152.2656 
C 32.828839 152.2656 33.378293 152.038009 33.783351 151.632951 
C 34.188409 151.227893 34.416 150.678439 34.416 150.1056 
C 34.416 149.532761 34.188409 148.983307 33.783351 148.578249 
C 33.378293 148.173191 32.828839 147.9456 32.256 147.9456 
C 31.683161 147.9456 31.133707 148.173191 30.728649 148.578249 
C 30.323591 148.983307 30.096 149.532761 30.096 150.1056 
C 30.096 150.678439 30.323591 151.227893 30.728649 151.632951 
C 31.133707 152.038009 31.683161 152.2656 32.256 152.2656 
z
" clip-path="url(#p30fd2862a1)" style="fill: #ffffff; stroke: #000000; stroke-width: 2; stroke-linejoin: miter"/>
   </g>
   <g id="text_9">
    <!-- $V_{in}$ -->
    <g transform="translate(23.8185 142.465991) scale(0.125 -0.125)">
     <defs>
      <path id="DejaVuSans-Oblique-56" d="M 1319 0 
L 500 4666 
L 1119 4666 
L 1797 653 
L 4063 4666 
L 4750 4666 
L 2053 0 
L 1319 0 
z
" transform="scale(0.015625)"/>
      <path id="DejaVuSans-Oblique-69" d="M 1172 4863 
L 1747 4863 
L 1606 4134 
L 1031 4134 
L 1172 4863 
z
M 909 3500 
L 1484 3500 
L 800 0 
L 225 0 
L 909 3500 
z
" transform="scale(0.015625)"/>
      <path id="DejaVuSans-Oblique-6e" d="M 3566 2113 
L 3156 0 
L 2578 0 
L 2988 2091 
Q 3016 2238 3031 2350 
Q 3047 2463 3047 2528 
Q 3047 2791 2881 2937 
Q 2716 3084 2419 3084 
Q 1956 3084 1622 2776 
Q 1288 2469 1184 1941 
L 800 0 
L 225 0 
L 903 3500 
L 1478 3500 
L 1363 2950 
Q 1603 3253 1940 3418 
Q 2278 3584 2650 3584 
Q 3113 3584 3367 3334 
Q 3622 3084 3622 2631 
Q 3622 2519 3608 2391 
Q 3594 2263 3566 2113 
z
" transform="scale(0.015625)"/>
     </defs>
     <use xlink:href="#DejaVuSans-Oblique-56" transform="translate(0 0.09375)"/>
     <use xlink:href="#DejaVuSans-Oblique-69" transform="translate(68.408203 -16.3125) scale(0.7)"/>
     <use xlink:href="#DejaVuSans-Oblique-6e" transform="translate(87.856445 -16.3125) scale(0.7)"/>
    </g>
   </g>
   <g id="patch_3">
    <path d="M 140.256 152.2656 
C 140.828839 152.2656 141.378293 152.038009 141.783351 151.632951 
C 142.188409 151.227893 142.416 150.678439 142.416 150.1056 
C 142.416 149.532761 142.188409 148.983307 141.783351 148.578249 
C 141.378293 148.173191 140.828839 147.9456 140.256 147.9456 
C 139.683161 147.9456 139.133707 148.173191 138.728649 148.578249 
C 138.323591 148.983307 138.096 149.532761 138.096 150.1056 
C 138.096 150.678439 138.323591 151.227893 138.728649 151.632951 
C 139.133707 152.038009 139.683161 152.2656 140.256 152.2656 
z
" clip-path="url(#p30fd2862a1)" style="stroke: #000000; stroke-width: 2; stroke-linejoin: miter"/>
   </g>
   <g id="patch_4">
    <path d="M 140.256 109.0656 
C 140.828839 109.0656 141.378293 108.838009 141.783351 108.432951 
C 142.188409 108.027893 142.416 107.478439 142.416 106.9056 
C 142.416 106.332761 142.188409 105.783307 141.783351 105.378249 
C 141.378293 104.973191 140.828839 104.7456 140.256 104.7456 
C 139.683161 104.7456 139.133707 104.973191 138.728649 105.378249 
C 138.323591 105.783307 138.096 106.332761 138.096 106.9056 
C 138.096 107.478439 138.323591 108.027893 138.728649 108.432951 
C 139.133707 108.838009 139.683161 109.0656 140.256 109.0656 
z
" clip-path="url(#p30fd2862a1)" style="stroke: #000000; stroke-width: 2; stroke-linejoin: miter"/>
   </g>
   <g id="patch_5">
    <path d="M 226.656 109.0656 
C 227.228839 109.0656 227.778293 108.838009 228.183351 108.432951 
C 228.588409 108.027893 228.816 107.478439 228.816 106.9056 
C 228.816 106.332761 228.588409 105.783307 228.183351 105.378249 
C 227.778293 104.973191 227.228839 104.7456 226.656 104.7456 
C 226.083161 104.7456 225.533707 104.973191 225.128649 105.378249 
C 224.723591 105.783307 224.496 106.332761 224.496 106.9056 
C 224.496 107.478439 224.723591 108.027893 225.128649 108.432951 
C 225.533707 108.838009 226.083161 109.0656 226.656 109.0656 
z
" clip-path="url(#p30fd2862a1)" style="stroke: #000000; stroke-width: 2; stroke-linejoin: miter"/>
   </g>
   <g id="patch_6">
    <path d="M 140.256 65.8656 
C 140.828839 65.8656 141.378293 65.638009 141.783351 65.232951 
C 142.188409 64.827893 142.416 64.278439 142.416 63.7056 
C 142.416 63.132761 142.188409 62.583307 141.783351 62.178249 
C 141.378293 61.773191 140.828839 61.5456 140.256 61.5456 
C 139.683161 61.5456 139.133707 61.773191 138.728649 62.178249 
C 138.323591 62.583307 138.096 63.132761 138.096 63.7056 
C 138.096 64.278439 138.323591 64.827893 138.728649 65.232951 
C 139.133707 65.638009 139.683161 65.8656 140.256 65.8656 
z
" clip-path="url(#p30fd2862a1)" style="stroke: #000000; stroke-width: 2; stroke-linejoin: miter"/>
   </g>
   <g id="patch_7">
    <path d="M 226.656 152.2656 
C 227.228839 152.2656 227.778293 152.038009 228.183351 151.632951 
C 228.588409 151.227893 228.816 150.678439 228.816 150.1056 
C 228.816 149.532761 228.588409 148.983307 228.183351 148.578249 
C 227.778293 148.173191 227.228839 147.9456 226.656 147.9456 
C 226.083161 147.9456 225.533707 148.173191 225.128649 148.578249 
C 224.723591 148.983307 224.496 149.532761 224.496 150.1056 
C 224.496 150.678439 224.723591 151.227893 225.128649 151.632951 
C 225.533707 152.038009 226.083161 152.2656 226.656 152.2656 
z
" clip-path="url(#p30fd2862a1)" style="stroke: #000000; stroke-width: 2; stroke-linejoin: miter"/>
   </g>
   <g id="patch_8">
    <path d="M 226.656 170.2656 
C 227.228839 170.2656 227.778293 170.038009 228.183351 169.632951 
C 228.588409 169.227893 228.816 168.678439 228.816 168.1056 
C 228.816 167.532761 228.588409 166.983307 228.183351 166.578249 
C 227.778293 166.173191 227.228839 165.9456 226.656 165.9456 
C 226.083161 165.9456 225.533707 166.173191 225.128649 166.578249 
C 224.723591 166.983307 224.496 167.532761 224.496 168.1056 
C 224.496 168.678439 224.723591 169.227893 225.128649 169.632951 
C 225.533707 170.038009 226.083161 170.2656 226.656 170.2656 
z
" clip-path="url(#p30fd2862a1)" style="stroke: #000000; stroke-width: 2; stroke-linejoin: miter"/>
   </g>
   <g id="text_10">
    <!-- $V_{*}$ -->
    <g transform="translate(231.696 171.554819) scale(0.125 -0.125)">
     <defs>
      <path id="DejaVuSans-2a" d="M 3009 3897 
L 1888 3291 
L 3009 2681 
L 2828 2375 
L 1778 3009 
L 1778 1831 
L 1422 1831 
L 1422 3009 
L 372 2375 
L 191 2681 
L 1313 3291 
L 191 3897 
L 372 4206 
L 1422 3572 
L 1422 4750 
L 1778 4750 
L 1778 3572 
L 2828 4206 
L 3009 3897 
z
" transform="scale(0.015625)"/>
     </defs>
     <use xlink:href="#DejaVuSans-Oblique-56" transform="translate(0 0.09375)"/>
     <use xlink:href="#DejaVuSans-2a" transform="translate(68.408203 -16.3125) scale(0.7)"/>
    </g>
   </g>
   <g id="patch_9">
    <path d="M 313.056 152.2656 
C 313.628839 152.2656 314.178293 152.038009 314.583351 151.632951 
C 314.988409 151.227893 315.216 150.678439 315.216 150.1056 
C 315.216 149.532761 314.988409 148.983307 314.583351 148.578249 
C 314.178293 148.173191 313.628839 147.9456 313.056 147.9456 
C 312.483161 147.9456 311.933707 148.173191 311.528649 148.578249 
C 311.123591 148.983307 310.896 149.532761 310.896 150.1056 
C 310.896 150.678439 311.123591 151.227893 311.528649 151.632951 
C 311.933707 152.038009 312.483161 152.2656 313.056 152.2656 
z
" clip-path="url(#p30fd2862a1)" style="stroke: #000000; stroke-width: 2; stroke-linejoin: miter"/>
   </g>
   <g id="patch_10">
    <path d="M 399.456 152.2656 
C 400.028839 152.2656 400.578293 152.038009 400.983351 151.632951 
C 401.388409 151.227893 401.616 150.678439 401.616 150.1056 
C 401.616 149.532761 401.388409 148.983307 400.983351 148.578249 
C 400.578293 148.173191 400.028839 147.9456 399.456 147.9456 
C 398.883161 147.9456 398.333707 148.173191 397.928649 148.578249 
C 397.523591 148.983307 397.296 149.532761 397.296 150.1056 
C 397.296 150.678439 397.523591 151.227893 397.928649 151.632951 
C 398.333707 152.038009 398.883161 152.2656 399.456 152.2656 
z
" clip-path="url(#p30fd2862a1)" style="stroke: #000000; stroke-width: 2; stroke-linejoin: miter"/>
   </g>
   <g id="patch_11">
    <path d="M 399.456 170.2656 
C 400.028839 170.2656 400.578293 170.038009 400.983351 169.632951 
C 401.388409 169.227893 401.616 168.678439 401.616 168.1056 
C 401.616 167.532761 401.388409 166.983307 400.983351 166.578249 
C 400.578293 166.173191 400.028839 165.9456 399.456 165.9456 
C 398.883161 165.9456 398.333707 166.173191 397.928649 166.578249 
C 397.523591 166.983307 397.296 167.532761 397.296 168.1056 
C 397.296 168.678439 397.523591 169.227893 397.928649 169.632951 
C 398.333707 170.038009 398.883161 170.2656 399.456 170.2656 
z
" clip-path="url(#p30fd2862a1)" style="stroke: #000000; stroke-width: 2; stroke-linejoin: miter"/>
   </g>
   <g id="text_11">
    <!-- $-V_{out*}$ -->
    <g transform="translate(378.706 182.643647) scale(0.125 -0.125)">
     <defs>
      <path id="DejaVuSans-2212" d="M 678 2272 
L 4684 2272 
L 4684 1741 
L 678 1741 
L 678 2272 
z
" transform="scale(0.015625)"/>
      <path id="DejaVuSans-Oblique-6f" d="M 1625 -91 
Q 1009 -91 651 289 
Q 294 669 294 1325 
Q 294 1706 417 2101 
Q 541 2497 738 2766 
Q 1047 3184 1428 3384 
Q 1809 3584 2291 3584 
Q 2888 3584 3255 3212 
Q 3622 2841 3622 2241 
Q 3622 1825 3500 1412 
Q 3378 1000 3181 728 
Q 2875 309 2494 109 
Q 2113 -91 1625 -91 
z
M 891 1344 
Q 891 869 1089 633 
Q 1288 397 1691 397 
Q 2269 397 2648 901 
Q 3028 1406 3028 2181 
Q 3028 2634 2825 2865 
Q 2622 3097 2228 3097 
Q 1903 3097 1650 2945 
Q 1397 2794 1197 2484 
Q 1050 2253 970 1956 
Q 891 1659 891 1344 
z
" transform="scale(0.015625)"/>
      <path id="DejaVuSans-Oblique-75" d="M 428 1388 
L 838 3500 
L 1416 3500 
L 1006 1409 
Q 975 1256 961 1147 
Q 947 1038 947 966 
Q 947 700 1109 554 
Q 1272 409 1569 409 
Q 2031 409 2368 721 
Q 2706 1034 2809 1563 
L 3194 3500 
L 3769 3500 
L 3091 0 
L 2516 0 
L 2631 550 
Q 2388 244 2052 76 
Q 1716 -91 1338 -91 
Q 878 -91 622 161 
Q 366 413 366 863 
Q 366 956 381 1097 
Q 397 1238 428 1388 
z
" transform="scale(0.015625)"/>
      <path id="DejaVuSans-Oblique-74" d="M 2706 3500 
L 2619 3053 
L 1472 3053 
L 1100 1153 
Q 1081 1047 1072 975 
Q 1063 903 1063 863 
Q 1063 663 1183 572 
Q 1303 481 1569 481 
L 2150 481 
L 2053 0 
L 1503 0 
Q 991 0 739 200 
Q 488 400 488 806 
Q 488 878 497 964 
Q 506 1050 525 1153 
L 897 3053 
L 409 3053 
L 500 3500 
L 978 3500 
L 1172 4494 
L 1747 4494 
L 1556 3500 
L 2706 3500 
z
" transform="scale(0.015625)"/>
     </defs>
     <use xlink:href="#DejaVuSans-2212" transform="translate(0 0.09375)"/>
     <use xlink:href="#DejaVuSans-Oblique-56" transform="translate(83.789062 0.09375)"/>
     <use xlink:href="#DejaVuSans-Oblique-6f" transform="translate(152.197266 -16.3125) scale(0.7)"/>
     <use xlink:href="#DejaVuSans-Oblique-75" transform="translate(195.024414 -16.3125) scale(0.7)"/>
     <use xlink:href="#DejaVuSans-Oblique-74" transform="translate(239.389648 -16.3125) scale(0.7)"/>
     <use xlink:href="#DejaVuSans-2a" transform="translate(280.473633 -16.3125) scale(0.7)"/>
    </g>
   </g>
   <g id="patch_12">
    <path d="M 485.856 152.2656 
C 486.428839 152.2656 486.978293 152.038009 487.383351 151.632951 
C 487.788409 151.227893 488.016 150.678439 488.016 150.1056 
C 488.016 149.532761 487.788409 148.983307 487.383351 148.578249 
C 486.978293 148.173191 486.428839 147.9456 485.856 147.9456 
C 485.283161 147.9456 484.733707 148.173191 484.328649 148.578249 
C 483.923591 148.983307 483.696 149.532761 483.696 150.1056 
C 483.696 150.678439 483.923591 151.227893 484.328649 151.632951 
C 484.733707 152.038009 485.283161 152.2656 485.856 152.2656 
z
" clip-path="url(#p30fd2862a1)" style="stroke: #000000; stroke-width: 2; stroke-linejoin: miter"/>
   </g>
   <g id="patch_13">
    <path d="M 572.256 109.0656 
C 572.828839 109.0656 573.378293 108.838009 573.783351 108.432951 
C 574.188409 108.027893 574.416 107.478439 574.416 106.9056 
C 574.416 106.332761 574.188409 105.783307 573.783351 105.378249 
C 573.378293 104.973191 572.828839 104.7456 572.256 104.7456 
C 571.683161 104.7456 571.133707 104.973191 570.728649 105.378249 
C 570.323591 105.783307 570.096 106.332761 570.096 106.9056 
C 570.096 107.478439 570.323591 108.027893 570.728649 108.432951 
C 571.133707 108.838009 571.683161 109.0656 572.256 109.0656 
z
" clip-path="url(#p30fd2862a1)" style="stroke: #000000; stroke-width: 2; stroke-linejoin: miter"/>
   </g>
   <g id="patch_14">
    <path d="M 572.256 170.2656 
C 572.828839 170.2656 573.378293 170.038009 573.783351 169.632951 
C 574.188409 169.227893 574.416 168.678439 574.416 168.1056 
C 574.416 167.532761 574.188409 166.983307 573.783351 166.578249 
C 573.378293 166.173191 572.828839 165.9456 572.256 165.9456 
C 571.683161 165.9456 571.133707 166.173191 570.728649 166.578249 
C 570.323591 166.983307 570.096 167.532761 570.096 168.1056 
C 570.096 168.678439 570.323591 169.227893 570.728649 169.632951 
C 571.133707 170.038009 571.683161 170.2656 572.256 170.2656 
z
" clip-path="url(#p30fd2862a1)" style="stroke: #000000; stroke-width: 2; stroke-linejoin: miter"/>
   </g>
   <g id="text_12">
    <!-- $V_{out*}$ -->
    <g transform="translate(577.296 171.554819) scale(0.125 -0.125)">
     <use xlink:href="#DejaVuSans-Oblique-56" transform="translate(0 0.09375)"/>
     <use xlink:href="#DejaVuSans-Oblique-6f" transform="translate(68.408203 -16.3125) scale(0.7)"/>
     <use xlink:href="#DejaVuSans-Oblique-75" transform="translate(111.235352 -16.3125) scale(0.7)"/>
     <use xlink:href="#DejaVuSans-Oblique-74" transform="translate(155.600586 -16.3125) scale(0.7)"/>
     <use xlink:href="#DejaVuSans-2a" transform="translate(196.68457 -16.3125) scale(0.7)"/>
    </g>
   </g>
  </g>
 </g>
 <defs>
  <clipPath id="p30fd2862a1">
   <rect x="2.88" y="2.88" width="598.752" height="229.3632"/>
  </clipPath>
 </defs>
</svg>