<?xml version="1.0" encoding="utf-8" standalone="no"?>
<!DOCTYPE svg PUBLIC "-//W3C//DTD SVG 1.1//EN"
  "http://www.w3.org/Graphics/SVG/1.1/DTD/svg11.dtd">
<svg xmlns:xlink="http://www.w3.org/1999/xlink" width="734.898438pt" height="697.07625pt" viewBox="0 0 734.898438 697.07625" xmlns="http://www.w3.org/2000/svg" version="1.1">
 <metadata>
  <rdf:RDF xmlns:dc="http://purl.org/dc/elements/1.1/" xmlns:cc="http://creativecommons.org/ns#" xmlns:rdf="http://www.w3.org/1999/02/22-rdf-syntax-ns#">
   <cc:Work>
    <dc:type rdf:resource="http://purl.org/dc/dcmitype/StillImage"/>
    <dc:date>2022-11-04T22:29:14.034728</dc:date>
    <dc:format>image/svg+xml</dc:format>
    <dc:creator>
     <cc:Agent>
      <dc:title>Matplotlib v3.5.3, https://matplotlib.org/</dc:title>
     </cc:Agent>
    </dc:creator>
   </cc:Work>
  </rdf:RDF>
 </metadata>
 <defs>
  <style type="text/css">*{stroke-linejoin: round; stroke-linecap: butt}</style>
 </defs>
 <g id="figure_1">
  <g id="patch_1">
   <path d="M 0 697.07625 
L 734.898438 697.07625 
L 734.898438 0 
L 0 0 
L 0 697.07625 
z
" style="fill: none"/>
  </g>
  <g id="axes_1">
   <g id="patch_2">
    <path d="M 46.965625 322.330435 
L 351.329261 322.330435 
L 351.329261 7.2 
L 46.965625 7.2 
z
" style="fill: #ffffff"/>
   </g>
   <g id="PolyCollection_1">
    <defs>
     <path id="m120088dfc7" d="M 148.42017 -374.745815 
L 148.42017 -709.397604 
L 260.02017 -709.397604 
L 260.02017 -374.745815 
L 260.02017 -374.745815 
L 148.42017 -374.745815 
z
" style="stroke: #008000; stroke-opacity: 0.1"/>
    </defs>
    <g clip-path="url(#p48c78f39c3)">
     <use xlink:href="#m120088dfc7" x="0" y="697.07625" style="fill: #008000; fill-opacity: 0.1; stroke: #008000; stroke-opacity: 0.1"/>
    </g>
   </g>
   <g id="matplotlib.axis_1">
    <g id="xtick_1">
     <g id="line2d_1">
      <path d="M 46.965625 322.330435 
L 46.965625 7.2 
" clip-path="url(#p48c78f39c3)" style="fill: none; stroke: #b0b0b0; stroke-width: 0.8; stroke-linecap: square"/>
     </g>
     <g id="line2d_2">
      <defs>
       <path id="m2b4522fb2a" d="M 0 0 
L 0 3.5 
" style="stroke: #000000; stroke-width: 0.8"/>
      </defs>
      <g>
       <use xlink:href="#m2b4522fb2a" x="46.965625" y="322.330435" style="stroke: #000000; stroke-width: 0.8"/>
      </g>
     </g>
     <g id="text_1">
      <!-- 0.00 -->
      <g transform="translate(35.832813 336.928872)scale(0.1 -0.1)">
       <defs>
        <path id="DejaVuSans-30" d="M 2034 4250 
Q 1547 4250 1301 3770 
Q 1056 3291 1056 2328 
Q 1056 1369 1301 889 
Q 1547 409 2034 409 
Q 2525 409 2770 889 
Q 3016 1369 3016 2328 
Q 3016 3291 2770 3770 
Q 2525 4250 2034 4250 
z
M 2034 4750 
Q 2819 4750 3233 4129 
Q 3647 3509 3647 2328 
Q 3647 1150 3233 529 
Q 2819 -91 2034 -91 
Q 1250 -91 836 529 
Q 422 1150 422 2328 
Q 422 3509 836 4129 
Q 1250 4750 2034 4750 
z
" transform="scale(0.015625)"/>
        <path id="DejaVuSans-2e" d="M 684 794 
L 1344 794 
L 1344 0 
L 684 0 
L 684 794 
z
" transform="scale(0.015625)"/>
       </defs>
       <use xlink:href="#DejaVuSans-30"/>
       <use xlink:href="#DejaVuSans-2e" x="63.623047"/>
       <use xlink:href="#DejaVuSans-30" x="95.410156"/>
       <use xlink:href="#DejaVuSans-30" x="159.033203"/>
      </g>
     </g>
    </g>
    <g id="xtick_2">
     <g id="line2d_3">
      <path d="M 97.692898 322.330435 
L 97.692898 7.2 
" clip-path="url(#p48c78f39c3)" style="fill: none; stroke: #b0b0b0; stroke-width: 0.8; stroke-linecap: square"/>
     </g>
     <g id="line2d_4">
      <g>
       <use xlink:href="#m2b4522fb2a" x="97.692898" y="322.330435" style="stroke: #000000; stroke-width: 0.8"/>
      </g>
     </g>
     <g id="text_2">
      <!-- 0.05 -->
      <g transform="translate(86.560085 336.928872)scale(0.1 -0.1)">
       <defs>
        <path id="DejaVuSans-35" d="M 691 4666 
L 3169 4666 
L 3169 4134 
L 1269 4134 
L 1269 2991 
Q 1406 3038 1543 3061 
Q 1681 3084 1819 3084 
Q 2600 3084 3056 2656 
Q 3513 2228 3513 1497 
Q 3513 744 3044 326 
Q 2575 -91 1722 -91 
Q 1428 -91 1123 -41 
Q 819 9 494 109 
L 494 744 
Q 775 591 1075 516 
Q 1375 441 1709 441 
Q 2250 441 2565 725 
Q 2881 1009 2881 1497 
Q 2881 1984 2565 2268 
Q 2250 2553 1709 2553 
Q 1456 2553 1204 2497 
Q 953 2441 691 2322 
L 691 4666 
z
" transform="scale(0.015625)"/>
       </defs>
       <use xlink:href="#DejaVuSans-30"/>
       <use xlink:href="#DejaVuSans-2e" x="63.623047"/>
       <use xlink:href="#DejaVuSans-30" x="95.410156"/>
       <use xlink:href="#DejaVuSans-35" x="159.033203"/>
      </g>
     </g>
    </g>
    <g id="xtick_3">
     <g id="line2d_5">
      <path d="M 148.42017 322.330435 
L 148.42017 7.2 
" clip-path="url(#p48c78f39c3)" style="fill: none; stroke: #b0b0b0; stroke-width: 0.8; stroke-linecap: square"/>
     </g>
     <g id="line2d_6">
      <g>
       <use xlink:href="#m2b4522fb2a" x="148.42017" y="322.330435" style="stroke: #000000; stroke-width: 0.8"/>
      </g>
     </g>
     <g id="text_3">
      <!-- 0.10 -->
      <g transform="translate(137.287358 336.928872)scale(0.1 -0.1)">
       <defs>
        <path id="DejaVuSans-31" d="M 794 531 
L 1825 531 
L 1825 4091 
L 703 3866 
L 703 4441 
L 1819 4666 
L 2450 4666 
L 2450 531 
L 3481 531 
L 3481 0 
L 794 0 
L 794 531 
z
" transform="scale(0.015625)"/>
       </defs>
       <use xlink:href="#DejaVuSans-30"/>
       <use xlink:href="#DejaVuSans-2e" x="63.623047"/>
       <use xlink:href="#DejaVuSans-31" x="95.410156"/>
       <use xlink:href="#DejaVuSans-30" x="159.033203"/>
      </g>
     </g>
    </g>
    <g id="xtick_4">
     <g id="line2d_7">
      <path d="M 199.147443 322.330435 
L 199.147443 7.2 
" clip-path="url(#p48c78f39c3)" style="fill: none; stroke: #b0b0b0; stroke-width: 0.8; stroke-linecap: square"/>
     </g>
     <g id="line2d_8">
      <g>
       <use xlink:href="#m2b4522fb2a" x="199.147443" y="322.330435" style="stroke: #000000; stroke-width: 0.8"/>
      </g>
     </g>
     <g id="text_4">
      <!-- 0.15 -->
      <g transform="translate(188.014631 336.928872)scale(0.1 -0.1)">
       <use xlink:href="#DejaVuSans-30"/>
       <use xlink:href="#DejaVuSans-2e" x="63.623047"/>
       <use xlink:href="#DejaVuSans-31" x="95.410156"/>
       <use xlink:href="#DejaVuSans-35" x="159.033203"/>
      </g>
     </g>
    </g>
    <g id="xtick_5">
     <g id="line2d_9">
      <path d="M 249.874716 322.330435 
L 249.874716 7.2 
" clip-path="url(#p48c78f39c3)" style="fill: none; stroke: #b0b0b0; stroke-width: 0.8; stroke-linecap: square"/>
     </g>
     <g id="line2d_10">
      <g>
       <use xlink:href="#m2b4522fb2a" x="249.874716" y="322.330435" style="stroke: #000000; stroke-width: 0.8"/>
      </g>
     </g>
     <g id="text_5">
      <!-- 0.20 -->
      <g transform="translate(238.741903 336.928872)scale(0.1 -0.1)">
       <defs>
        <path id="DejaVuSans-32" d="M 1228 531 
L 3431 531 
L 3431 0 
L 469 0 
L 469 531 
Q 828 903 1448 1529 
Q 2069 2156 2228 2338 
Q 2531 2678 2651 2914 
Q 2772 3150 2772 3378 
Q 2772 3750 2511 3984 
Q 2250 4219 1831 4219 
Q 1534 4219 1204 4116 
Q 875 4013 500 3803 
L 500 4441 
Q 881 4594 1212 4672 
Q 1544 4750 1819 4750 
Q 2544 4750 2975 4387 
Q 3406 4025 3406 3419 
Q 3406 3131 3298 2873 
Q 3191 2616 2906 2266 
Q 2828 2175 2409 1742 
Q 1991 1309 1228 531 
z
" transform="scale(0.015625)"/>
       </defs>
       <use xlink:href="#DejaVuSans-30"/>
       <use xlink:href="#DejaVuSans-2e" x="63.623047"/>
       <use xlink:href="#DejaVuSans-32" x="95.410156"/>
       <use xlink:href="#DejaVuSans-30" x="159.033203"/>
      </g>
     </g>
    </g>
    <g id="xtick_6">
     <g id="line2d_11">
      <path d="M 300.601989 322.330435 
L 300.601989 7.2 
" clip-path="url(#p48c78f39c3)" style="fill: none; stroke: #b0b0b0; stroke-width: 0.8; stroke-linecap: square"/>
     </g>
     <g id="line2d_12">
      <g>
       <use xlink:href="#m2b4522fb2a" x="300.601989" y="322.330435" style="stroke: #000000; stroke-width: 0.8"/>
      </g>
     </g>
     <g id="text_6">
      <!-- 0.25 -->
      <g transform="translate(289.469176 336.928872)scale(0.1 -0.1)">
       <use xlink:href="#DejaVuSans-30"/>
       <use xlink:href="#DejaVuSans-2e" x="63.623047"/>
       <use xlink:href="#DejaVuSans-32" x="95.410156"/>
       <use xlink:href="#DejaVuSans-35" x="159.033203"/>
      </g>
     </g>
    </g>
    <g id="xtick_7">
     <g id="line2d_13">
      <path d="M 351.329261 322.330435 
L 351.329261 7.2 
" clip-path="url(#p48c78f39c3)" style="fill: none; stroke: #b0b0b0; stroke-width: 0.8; stroke-linecap: square"/>
     </g>
     <g id="line2d_14">
      <g>
       <use xlink:href="#m2b4522fb2a" x="351.329261" y="322.330435" style="stroke: #000000; stroke-width: 0.8"/>
      </g>
     </g>
     <g id="text_7">
      <!-- 0.30 -->
      <g transform="translate(340.196449 336.928872)scale(0.1 -0.1)">
       <defs>
        <path id="DejaVuSans-33" d="M 2597 2516 
Q 3050 2419 3304 2112 
Q 3559 1806 3559 1356 
Q 3559 666 3084 287 
Q 2609 -91 1734 -91 
Q 1441 -91 1130 -33 
Q 819 25 488 141 
L 488 750 
Q 750 597 1062 519 
Q 1375 441 1716 441 
Q 2309 441 2620 675 
Q 2931 909 2931 1356 
Q 2931 1769 2642 2001 
Q 2353 2234 1838 2234 
L 1294 2234 
L 1294 2753 
L 1863 2753 
Q 2328 2753 2575 2939 
Q 2822 3125 2822 3475 
Q 2822 3834 2567 4026 
Q 2313 4219 1838 4219 
Q 1578 4219 1281 4162 
Q 984 4106 628 3988 
L 628 4550 
Q 988 4650 1302 4700 
Q 1616 4750 1894 4750 
Q 2613 4750 3031 4423 
Q 3450 4097 3450 3541 
Q 3450 3153 3228 2886 
Q 3006 2619 2597 2516 
z
" transform="scale(0.015625)"/>
       </defs>
       <use xlink:href="#DejaVuSans-30"/>
       <use xlink:href="#DejaVuSans-2e" x="63.623047"/>
       <use xlink:href="#DejaVuSans-33" x="95.410156"/>
       <use xlink:href="#DejaVuSans-30" x="159.033203"/>
      </g>
     </g>
    </g>
   </g>
   <g id="matplotlib.axis_2">
    <g id="ytick_1">
     <g id="line2d_15">
      <path d="M 46.965625 322.330435 
L 351.329261 322.330435 
" clip-path="url(#p48c78f39c3)" style="fill: none; stroke: #b0b0b0; stroke-width: 0.8; stroke-linecap: square"/>
     </g>
     <g id="line2d_16">
      <defs>
       <path id="m2e897bc64e" d="M 0 0 
L -3.5 0 
" style="stroke: #000000; stroke-width: 0.8"/>
      </defs>
      <g>
       <use xlink:href="#m2e897bc64e" x="46.965625" y="322.330435" style="stroke: #000000; stroke-width: 0.8"/>
      </g>
     </g>
     <g id="text_8">
      <!-- 0 -->
      <g transform="translate(33.603125 326.129654)scale(0.1 -0.1)">
       <use xlink:href="#DejaVuSans-30"/>
      </g>
     </g>
    </g>
    <g id="ytick_2">
     <g id="line2d_17">
      <path d="M 46.965625 266.555137 
L 351.329261 266.555137 
" clip-path="url(#p48c78f39c3)" style="fill: none; stroke: #b0b0b0; stroke-width: 0.8; stroke-linecap: square"/>
     </g>
     <g id="line2d_18">
      <g>
       <use xlink:href="#m2e897bc64e" x="46.965625" y="266.555137" style="stroke: #000000; stroke-width: 0.8"/>
      </g>
     </g>
     <g id="text_9">
      <!-- 2 -->
      <g transform="translate(33.603125 270.354355)scale(0.1 -0.1)">
       <use xlink:href="#DejaVuSans-32"/>
      </g>
     </g>
    </g>
    <g id="ytick_3">
     <g id="line2d_19">
      <path d="M 46.965625 210.779838 
L 351.329261 210.779838 
" clip-path="url(#p48c78f39c3)" style="fill: none; stroke: #b0b0b0; stroke-width: 0.8; stroke-linecap: square"/>
     </g>
     <g id="line2d_20">
      <g>
       <use xlink:href="#m2e897bc64e" x="46.965625" y="210.779838" style="stroke: #000000; stroke-width: 0.8"/>
      </g>
     </g>
     <g id="text_10">
      <!-- 4 -->
      <g transform="translate(33.603125 214.579057)scale(0.1 -0.1)">
       <defs>
        <path id="DejaVuSans-34" d="M 2419 4116 
L 825 1625 
L 2419 1625 
L 2419 4116 
z
M 2253 4666 
L 3047 4666 
L 3047 1625 
L 3713 1625 
L 3713 1100 
L 3047 1100 
L 3047 0 
L 2419 0 
L 2419 1100 
L 313 1100 
L 313 1709 
L 2253 4666 
z
" transform="scale(0.015625)"/>
       </defs>
       <use xlink:href="#DejaVuSans-34"/>
      </g>
     </g>
    </g>
    <g id="ytick_4">
     <g id="line2d_21">
      <path d="M 46.965625 155.00454 
L 351.329261 155.00454 
" clip-path="url(#p48c78f39c3)" style="fill: none; stroke: #b0b0b0; stroke-width: 0.8; stroke-linecap: square"/>
     </g>
     <g id="line2d_22">
      <g>
       <use xlink:href="#m2e897bc64e" x="46.965625" y="155.00454" style="stroke: #000000; stroke-width: 0.8"/>
      </g>
     </g>
     <g id="text_11">
      <!-- 6 -->
      <g transform="translate(33.603125 158.803759)scale(0.1 -0.1)">
       <defs>
        <path id="DejaVuSans-36" d="M 2113 2584 
Q 1688 2584 1439 2293 
Q 1191 2003 1191 1497 
Q 1191 994 1439 701 
Q 1688 409 2113 409 
Q 2538 409 2786 701 
Q 3034 994 3034 1497 
Q 3034 2003 2786 2293 
Q 2538 2584 2113 2584 
z
M 3366 4563 
L 3366 3988 
Q 3128 4100 2886 4159 
Q 2644 4219 2406 4219 
Q 1781 4219 1451 3797 
Q 1122 3375 1075 2522 
Q 1259 2794 1537 2939 
Q 1816 3084 2150 3084 
Q 2853 3084 3261 2657 
Q 3669 2231 3669 1497 
Q 3669 778 3244 343 
Q 2819 -91 2113 -91 
Q 1303 -91 875 529 
Q 447 1150 447 2328 
Q 447 3434 972 4092 
Q 1497 4750 2381 4750 
Q 2619 4750 2861 4703 
Q 3103 4656 3366 4563 
z
" transform="scale(0.015625)"/>
       </defs>
       <use xlink:href="#DejaVuSans-36"/>
      </g>
     </g>
    </g>
    <g id="ytick_5">
     <g id="line2d_23">
      <path d="M 46.965625 99.229242 
L 351.329261 99.229242 
" clip-path="url(#p48c78f39c3)" style="fill: none; stroke: #b0b0b0; stroke-width: 0.8; stroke-linecap: square"/>
     </g>
     <g id="line2d_24">
      <g>
       <use xlink:href="#m2e897bc64e" x="46.965625" y="99.229242" style="stroke: #000000; stroke-width: 0.8"/>
      </g>
     </g>
     <g id="text_12">
      <!-- 8 -->
      <g transform="translate(33.603125 103.028461)scale(0.1 -0.1)">
       <defs>
        <path id="DejaVuSans-38" d="M 2034 2216 
Q 1584 2216 1326 1975 
Q 1069 1734 1069 1313 
Q 1069 891 1326 650 
Q 1584 409 2034 409 
Q 2484 409 2743 651 
Q 3003 894 3003 1313 
Q 3003 1734 2745 1975 
Q 2488 2216 2034 2216 
z
M 1403 2484 
Q 997 2584 770 2862 
Q 544 3141 544 3541 
Q 544 4100 942 4425 
Q 1341 4750 2034 4750 
Q 2731 4750 3128 4425 
Q 3525 4100 3525 3541 
Q 3525 3141 3298 2862 
Q 3072 2584 2669 2484 
Q 3125 2378 3379 2068 
Q 3634 1759 3634 1313 
Q 3634 634 3220 271 
Q 2806 -91 2034 -91 
Q 1263 -91 848 271 
Q 434 634 434 1313 
Q 434 1759 690 2068 
Q 947 2378 1403 2484 
z
M 1172 3481 
Q 1172 3119 1398 2916 
Q 1625 2713 2034 2713 
Q 2441 2713 2670 2916 
Q 2900 3119 2900 3481 
Q 2900 3844 2670 4047 
Q 2441 4250 2034 4250 
Q 1625 4250 1398 4047 
Q 1172 3844 1172 3481 
z
" transform="scale(0.015625)"/>
       </defs>
       <use xlink:href="#DejaVuSans-38"/>
      </g>
     </g>
    </g>
    <g id="ytick_6">
     <g id="line2d_25">
      <path d="M 46.965625 43.453944 
L 351.329261 43.453944 
" clip-path="url(#p48c78f39c3)" style="fill: none; stroke: #b0b0b0; stroke-width: 0.8; stroke-linecap: square"/>
     </g>
     <g id="line2d_26">
      <g>
       <use xlink:href="#m2e897bc64e" x="46.965625" y="43.453944" style="stroke: #000000; stroke-width: 0.8"/>
      </g>
     </g>
     <g id="text_13">
      <!-- 10 -->
      <g transform="translate(27.240625 47.253163)scale(0.1 -0.1)">
       <use xlink:href="#DejaVuSans-31"/>
       <use xlink:href="#DejaVuSans-30" x="63.623047"/>
      </g>
     </g>
    </g>
    <g id="text_14">
     <!-- Output voltage [V] -->
     <g transform="translate(21.160938 211.315999)rotate(-90)scale(0.1 -0.1)">
      <defs>
       <path id="DejaVuSans-4f" d="M 2522 4238 
Q 1834 4238 1429 3725 
Q 1025 3213 1025 2328 
Q 1025 1447 1429 934 
Q 1834 422 2522 422 
Q 3209 422 3611 934 
Q 4013 1447 4013 2328 
Q 4013 3213 3611 3725 
Q 3209 4238 2522 4238 
z
M 2522 4750 
Q 3503 4750 4090 4092 
Q 4678 3434 4678 2328 
Q 4678 1225 4090 567 
Q 3503 -91 2522 -91 
Q 1538 -91 948 565 
Q 359 1222 359 2328 
Q 359 3434 948 4092 
Q 1538 4750 2522 4750 
z
" transform="scale(0.015625)"/>
       <path id="DejaVuSans-75" d="M 544 1381 
L 544 3500 
L 1119 3500 
L 1119 1403 
Q 1119 906 1312 657 
Q 1506 409 1894 409 
Q 2359 409 2629 706 
Q 2900 1003 2900 1516 
L 2900 3500 
L 3475 3500 
L 3475 0 
L 2900 0 
L 2900 538 
Q 2691 219 2414 64 
Q 2138 -91 1772 -91 
Q 1169 -91 856 284 
Q 544 659 544 1381 
z
M 1991 3584 
L 1991 3584 
z
" transform="scale(0.015625)"/>
       <path id="DejaVuSans-74" d="M 1172 4494 
L 1172 3500 
L 2356 3500 
L 2356 3053 
L 1172 3053 
L 1172 1153 
Q 1172 725 1289 603 
Q 1406 481 1766 481 
L 2356 481 
L 2356 0 
L 1766 0 
Q 1100 0 847 248 
Q 594 497 594 1153 
L 594 3053 
L 172 3053 
L 172 3500 
L 594 3500 
L 594 4494 
L 1172 4494 
z
" transform="scale(0.015625)"/>
       <path id="DejaVuSans-70" d="M 1159 525 
L 1159 -1331 
L 581 -1331 
L 581 3500 
L 1159 3500 
L 1159 2969 
Q 1341 3281 1617 3432 
Q 1894 3584 2278 3584 
Q 2916 3584 3314 3078 
Q 3713 2572 3713 1747 
Q 3713 922 3314 415 
Q 2916 -91 2278 -91 
Q 1894 -91 1617 61 
Q 1341 213 1159 525 
z
M 3116 1747 
Q 3116 2381 2855 2742 
Q 2594 3103 2138 3103 
Q 1681 3103 1420 2742 
Q 1159 2381 1159 1747 
Q 1159 1113 1420 752 
Q 1681 391 2138 391 
Q 2594 391 2855 752 
Q 3116 1113 3116 1747 
z
" transform="scale(0.015625)"/>
       <path id="DejaVuSans-20" transform="scale(0.015625)"/>
       <path id="DejaVuSans-76" d="M 191 3500 
L 800 3500 
L 1894 563 
L 2988 3500 
L 3597 3500 
L 2284 0 
L 1503 0 
L 191 3500 
z
" transform="scale(0.015625)"/>
       <path id="DejaVuSans-6f" d="M 1959 3097 
Q 1497 3097 1228 2736 
Q 959 2375 959 1747 
Q 959 1119 1226 758 
Q 1494 397 1959 397 
Q 2419 397 2687 759 
Q 2956 1122 2956 1747 
Q 2956 2369 2687 2733 
Q 2419 3097 1959 3097 
z
M 1959 3584 
Q 2709 3584 3137 3096 
Q 3566 2609 3566 1747 
Q 3566 888 3137 398 
Q 2709 -91 1959 -91 
Q 1206 -91 779 398 
Q 353 888 353 1747 
Q 353 2609 779 3096 
Q 1206 3584 1959 3584 
z
" transform="scale(0.015625)"/>
       <path id="DejaVuSans-6c" d="M 603 4863 
L 1178 4863 
L 1178 0 
L 603 0 
L 603 4863 
z
" transform="scale(0.015625)"/>
       <path id="DejaVuSans-61" d="M 2194 1759 
Q 1497 1759 1228 1600 
Q 959 1441 959 1056 
Q 959 750 1161 570 
Q 1363 391 1709 391 
Q 2188 391 2477 730 
Q 2766 1069 2766 1631 
L 2766 1759 
L 2194 1759 
z
M 3341 1997 
L 3341 0 
L 2766 0 
L 2766 531 
Q 2569 213 2275 61 
Q 1981 -91 1556 -91 
Q 1019 -91 701 211 
Q 384 513 384 1019 
Q 384 1609 779 1909 
Q 1175 2209 1959 2209 
L 2766 2209 
L 2766 2266 
Q 2766 2663 2505 2880 
Q 2244 3097 1772 3097 
Q 1472 3097 1187 3025 
Q 903 2953 641 2809 
L 641 3341 
Q 956 3463 1253 3523 
Q 1550 3584 1831 3584 
Q 2591 3584 2966 3190 
Q 3341 2797 3341 1997 
z
" transform="scale(0.015625)"/>
       <path id="DejaVuSans-67" d="M 2906 1791 
Q 2906 2416 2648 2759 
Q 2391 3103 1925 3103 
Q 1463 3103 1205 2759 
Q 947 2416 947 1791 
Q 947 1169 1205 825 
Q 1463 481 1925 481 
Q 2391 481 2648 825 
Q 2906 1169 2906 1791 
z
M 3481 434 
Q 3481 -459 3084 -895 
Q 2688 -1331 1869 -1331 
Q 1566 -1331 1297 -1286 
Q 1028 -1241 775 -1147 
L 775 -588 
Q 1028 -725 1275 -790 
Q 1522 -856 1778 -856 
Q 2344 -856 2625 -561 
Q 2906 -266 2906 331 
L 2906 616 
Q 2728 306 2450 153 
Q 2172 0 1784 0 
Q 1141 0 747 490 
Q 353 981 353 1791 
Q 353 2603 747 3093 
Q 1141 3584 1784 3584 
Q 2172 3584 2450 3431 
Q 2728 3278 2906 2969 
L 2906 3500 
L 3481 3500 
L 3481 434 
z
" transform="scale(0.015625)"/>
       <path id="DejaVuSans-65" d="M 3597 1894 
L 3597 1613 
L 953 1613 
Q 991 1019 1311 708 
Q 1631 397 2203 397 
Q 2534 397 2845 478 
Q 3156 559 3463 722 
L 3463 178 
Q 3153 47 2828 -22 
Q 2503 -91 2169 -91 
Q 1331 -91 842 396 
Q 353 884 353 1716 
Q 353 2575 817 3079 
Q 1281 3584 2069 3584 
Q 2775 3584 3186 3129 
Q 3597 2675 3597 1894 
z
M 3022 2063 
Q 3016 2534 2758 2815 
Q 2500 3097 2075 3097 
Q 1594 3097 1305 2825 
Q 1016 2553 972 2059 
L 3022 2063 
z
" transform="scale(0.015625)"/>
       <path id="DejaVuSans-5b" d="M 550 4863 
L 1875 4863 
L 1875 4416 
L 1125 4416 
L 1125 -397 
L 1875 -397 
L 1875 -844 
L 550 -844 
L 550 4863 
z
" transform="scale(0.015625)"/>
       <path id="DejaVuSans-56" d="M 1831 0 
L 50 4666 
L 709 4666 
L 2188 738 
L 3669 4666 
L 4325 4666 
L 2547 0 
L 1831 0 
z
" transform="scale(0.015625)"/>
       <path id="DejaVuSans-5d" d="M 1947 4863 
L 1947 -844 
L 622 -844 
L 622 -397 
L 1369 -397 
L 1369 4416 
L 622 4416 
L 622 4863 
L 1947 4863 
z
" transform="scale(0.015625)"/>
      </defs>
      <use xlink:href="#DejaVuSans-4f"/>
      <use xlink:href="#DejaVuSans-75" x="78.710938"/>
      <use xlink:href="#DejaVuSans-74" x="142.089844"/>
      <use xlink:href="#DejaVuSans-70" x="181.298828"/>
      <use xlink:href="#DejaVuSans-75" x="244.775391"/>
      <use xlink:href="#DejaVuSans-74" x="308.154297"/>
      <use xlink:href="#DejaVuSans-20" x="347.363281"/>
      <use xlink:href="#DejaVuSans-76" x="379.150391"/>
      <use xlink:href="#DejaVuSans-6f" x="438.330078"/>
      <use xlink:href="#DejaVuSans-6c" x="499.511719"/>
      <use xlink:href="#DejaVuSans-74" x="527.294922"/>
      <use xlink:href="#DejaVuSans-61" x="566.503906"/>
      <use xlink:href="#DejaVuSans-67" x="627.783203"/>
      <use xlink:href="#DejaVuSans-65" x="691.259766"/>
      <use xlink:href="#DejaVuSans-20" x="752.783203"/>
      <use xlink:href="#DejaVuSans-5b" x="784.570312"/>
      <use xlink:href="#DejaVuSans-56" x="823.583984"/>
      <use xlink:href="#DejaVuSans-5d" x="891.992188"/>
     </g>
    </g>
   </g>
   <g id="line2d_27">
    <path d="M 46.965625 15.566295 
L 145.433349 15.673843 
L 148.274076 15.94437 
L 150.506076 16.37406 
L 152.738076 17.041451 
L 154.767167 17.87258 
L 156.999167 19.041814 
L 159.231167 20.479098 
L 161.463167 22.180428 
L 163.898076 24.32887 
L 166.332985 26.770152 
L 168.970803 29.728031 
L 171.81153 33.254003 
L 174.855167 37.392055 
L 178.101712 42.17568 
L 181.754076 47.955754 
L 186.015167 55.142701 
L 191.087894 64.170545 
L 198.189712 77.315177 
L 209.146803 97.591305 
L 214.21953 106.50058 
L 218.480621 113.549562 
L 222.132985 119.184348 
L 225.58244 124.094968 
L 228.626076 128.049957 
L 231.466803 131.386712 
L 234.104621 134.151937 
L 236.53953 136.399283 
L 238.97444 138.335857 
L 241.20644 139.823933 
L 243.23553 140.92796 
L 245.264621 141.786306 
L 247.293712 142.391156 
L 249.119894 142.712943 
L 250.946076 142.819215 
L 252.772258 142.706292 
L 254.59844 142.371516 
L 256.424621 141.813577 
L 258.250803 141.03302 
L 260.279894 139.908643 
L 262.308985 138.523628 
L 264.540985 136.72276 
L 267.178803 134.282344 
L 270.628258 130.757983 
L 275.903894 125.022148 
L 282.194076 117.846532 
L 288.890076 109.859547 
L 295.991894 101.038626 
L 303.905349 90.841992 
L 312.63044 79.227738 
L 322.978803 65.068671 
L 337.18244 45.22353 
L 351.386076 25.262467 
L 351.386076 25.262467 
" clip-path="url(#p48c78f39c3)" style="fill: none; stroke: #1f77b4; stroke-width: 1.5; stroke-linecap: square"/>
   </g>
   <g id="line2d_28">
    <path d="M 46.965625 364.161908 
L 69.545349 347.542397 
L 81.516985 339.012449 
L 91.66244 332.05288 
L 100.59044 326.191599 
L 108.909712 320.993522 
L 116.620258 316.434083 
L 123.924985 312.368363 
L 130.823894 308.774591 
L 137.519894 305.531183 
L 144.012985 302.629733 
L 150.303167 300.05909 
L 156.39044 297.805804 
L 162.477712 295.791313 
L 168.362076 294.077781 
L 174.24644 292.599932 
L 179.927894 291.401343 
L 185.609349 290.430858 
L 191.290803 289.691518 
L 196.769349 289.199669 
L 202.247894 288.926343 
L 207.72644 288.872337 
L 213.204985 289.037808 
L 218.68353 289.422275 
L 224.162076 290.024615 
L 229.84353 290.877509 
L 235.524985 291.960148 
L 241.20644 293.269139 
L 247.090803 294.859117 
L 252.975167 296.68215 
L 259.06244 298.806761 
L 265.149712 301.166566 
L 271.439894 303.843086 
L 277.932985 306.848935 
L 284.628985 310.194348 
L 291.527894 313.886746 
L 298.832621 318.049235 
L 306.543167 322.701731 
L 314.86244 327.989137 
L 323.79044 333.932831 
L 333.732985 340.825143 
L 345.501712 349.26742 
L 351.386076 353.570843 
L 351.386076 353.570843 
" clip-path="url(#p48c78f39c3)" style="fill: none; stroke: #ff7f0e; stroke-width: 1.5; stroke-linecap: square"/>
   </g>
   <g id="line2d_29">
    <path d="M 46.965625 302.80908 
L 351.329261 302.80908 
" clip-path="url(#p48c78f39c3)" style="fill: none; stroke-dasharray: 5.55,2.4; stroke-dashoffset: 0; stroke: #008000; stroke-width: 1.5"/>
   </g>
   <g id="patch_3">
    <path d="M 46.965625 322.330435 
L 46.965625 7.2 
" style="fill: none; stroke: #000000; stroke-width: 0.8; stroke-linejoin: miter; stroke-linecap: square"/>
   </g>
   <g id="patch_4">
    <path d="M 351.329261 322.330435 
L 351.329261 7.2 
" style="fill: none; stroke: #000000; stroke-width: 0.8; stroke-linejoin: miter; stroke-linecap: square"/>
   </g>
   <g id="patch_5">
    <path d="M 46.965625 322.330435 
L 351.329261 322.330435 
" style="fill: none; stroke: #000000; stroke-width: 0.8; stroke-linejoin: miter; stroke-linecap: square"/>
   </g>
   <g id="patch_6">
    <path d="M 46.965625 7.2 
L 351.329261 7.2 
" style="fill: none; stroke: #000000; stroke-width: 0.8; stroke-linejoin: miter; stroke-linecap: square"/>
   </g>
   <g id="legend_1">
    <g id="patch_7">
     <path d="M 52.009261 152.16 
L 155.609261 152.16 
Q 157.609261 152.16 157.609261 150.16 
L 157.609261 121.80375 
Q 157.609261 119.80375 155.609261 119.80375 
L 52.009261 119.80375 
Q 50.009261 119.80375 50.009261 121.80375 
L 50.009261 150.16 
Q 50.009261 152.16 52.009261 152.16 
z
" style="fill: #ffffff; opacity: 0.8; stroke: #cccccc; stroke-linejoin: miter"/>
    </g>
    <g id="line2d_30">
     <path d="M 54.009261 127.902187 
L 64.009261 127.902187 
L 74.009261 127.902187 
" style="fill: none; stroke: #1f77b4; stroke-width: 1.5; stroke-linecap: square"/>
    </g>
    <g id="text_15">
     <!-- V(2) [V]  ($V_{out}$) -->
     <g transform="translate(82.009261 131.402187)scale(0.1 -0.1)">
      <defs>
       <path id="DejaVuSans-28" d="M 1984 4856 
Q 1566 4138 1362 3434 
Q 1159 2731 1159 2009 
Q 1159 1288 1364 580 
Q 1569 -128 1984 -844 
L 1484 -844 
Q 1016 -109 783 600 
Q 550 1309 550 2009 
Q 550 2706 781 3412 
Q 1013 4119 1484 4856 
L 1984 4856 
z
" transform="scale(0.015625)"/>
       <path id="DejaVuSans-29" d="M 513 4856 
L 1013 4856 
Q 1481 4119 1714 3412 
Q 1947 2706 1947 2009 
Q 1947 1309 1714 600 
Q 1481 -109 1013 -844 
L 513 -844 
Q 928 -128 1133 580 
Q 1338 1288 1338 2009 
Q 1338 2731 1133 3434 
Q 928 4138 513 4856 
z
" transform="scale(0.015625)"/>
       <path id="DejaVuSans-Oblique-56" d="M 1319 0 
L 500 4666 
L 1119 4666 
L 1797 653 
L 4063 4666 
L 4750 4666 
L 2053 0 
L 1319 0 
z
" transform="scale(0.015625)"/>
       <path id="DejaVuSans-Oblique-6f" d="M 1625 -91 
Q 1009 -91 651 289 
Q 294 669 294 1325 
Q 294 1706 417 2101 
Q 541 2497 738 2766 
Q 1047 3184 1428 3384 
Q 1809 3584 2291 3584 
Q 2888 3584 3255 3212 
Q 3622 2841 3622 2241 
Q 3622 1825 3500 1412 
Q 3378 1000 3181 728 
Q 2875 309 2494 109 
Q 2113 -91 1625 -91 
z
M 891 1344 
Q 891 869 1089 633 
Q 1288 397 1691 397 
Q 2269 397 2648 901 
Q 3028 1406 3028 2181 
Q 3028 2634 2825 2865 
Q 2622 3097 2228 3097 
Q 1903 3097 1650 2945 
Q 1397 2794 1197 2484 
Q 1050 2253 970 1956 
Q 891 1659 891 1344 
z
" transform="scale(0.015625)"/>
       <path id="DejaVuSans-Oblique-75" d="M 428 1388 
L 838 3500 
L 1416 3500 
L 1006 1409 
Q 975 1256 961 1147 
Q 947 1038 947 966 
Q 947 700 1109 554 
Q 1272 409 1569 409 
Q 2031 409 2368 721 
Q 2706 1034 2809 1563 
L 3194 3500 
L 3769 3500 
L 3091 0 
L 2516 0 
L 2631 550 
Q 2388 244 2052 76 
Q 1716 -91 1338 -91 
Q 878 -91 622 161 
Q 366 413 366 863 
Q 366 956 381 1097 
Q 397 1238 428 1388 
z
" transform="scale(0.015625)"/>
       <path id="DejaVuSans-Oblique-74" d="M 2706 3500 
L 2619 3053 
L 1472 3053 
L 1100 1153 
Q 1081 1047 1072 975 
Q 1063 903 1063 863 
Q 1063 663 1183 572 
Q 1303 481 1569 481 
L 2150 481 
L 2053 0 
L 1503 0 
Q 991 0 739 200 
Q 488 400 488 806 
Q 488 878 497 964 
Q 506 1050 525 1153 
L 897 3053 
L 409 3053 
L 500 3500 
L 978 3500 
L 1172 4494 
L 1747 4494 
L 1556 3500 
L 2706 3500 
z
" transform="scale(0.015625)"/>
      </defs>
      <use xlink:href="#DejaVuSans-56" transform="translate(0 0.015625)"/>
      <use xlink:href="#DejaVuSans-28" transform="translate(68.408203 0.015625)"/>
      <use xlink:href="#DejaVuSans-32" transform="translate(107.421875 0.015625)"/>
      <use xlink:href="#DejaVuSans-29" transform="translate(171.044922 0.015625)"/>
      <use xlink:href="#DejaVuSans-20" transform="translate(210.058594 0.015625)"/>
      <use xlink:href="#DejaVuSans-5b" transform="translate(241.845703 0.015625)"/>
      <use xlink:href="#DejaVuSans-56" transform="translate(280.859375 0.015625)"/>
      <use xlink:href="#DejaVuSans-5d" transform="translate(349.267578 0.015625)"/>
      <use xlink:href="#DejaVuSans-20" transform="translate(388.28125 0.015625)"/>
      <use xlink:href="#DejaVuSans-20" transform="translate(420.068359 0.015625)"/>
      <use xlink:href="#DejaVuSans-28" transform="translate(451.855469 0.015625)"/>
      <use xlink:href="#DejaVuSans-Oblique-56" transform="translate(490.869141 0.015625)"/>
      <use xlink:href="#DejaVuSans-Oblique-6f" transform="translate(559.277344 -16.390625)scale(0.7)"/>
      <use xlink:href="#DejaVuSans-Oblique-75" transform="translate(602.104492 -16.390625)scale(0.7)"/>
      <use xlink:href="#DejaVuSans-Oblique-74" transform="translate(646.469727 -16.390625)scale(0.7)"/>
      <use xlink:href="#DejaVuSans-29" transform="translate(676.650391 0.015625)"/>
     </g>
    </g>
    <g id="line2d_31">
     <path d="M 54.009261 142.580312 
L 64.009261 142.580312 
L 74.009261 142.580312 
" style="fill: none; stroke: #ff7f0e; stroke-width: 1.5; stroke-linecap: square"/>
    </g>
    <g id="text_16">
     <!-- V(4) [V]  ($V_{in}$) -->
     <g transform="translate(82.009261 146.080312)scale(0.1 -0.1)">
      <defs>
       <path id="DejaVuSans-Oblique-69" d="M 1172 4863 
L 1747 4863 
L 1606 4134 
L 1031 4134 
L 1172 4863 
z
M 909 3500 
L 1484 3500 
L 800 0 
L 225 0 
L 909 3500 
z
" transform="scale(0.015625)"/>
       <path id="DejaVuSans-Oblique-6e" d="M 3566 2113 
L 3156 0 
L 2578 0 
L 2988 2091 
Q 3016 2238 3031 2350 
Q 3047 2463 3047 2528 
Q 3047 2791 2881 2937 
Q 2716 3084 2419 3084 
Q 1956 3084 1622 2776 
Q 1288 2469 1184 1941 
L 800 0 
L 225 0 
L 903 3500 
L 1478 3500 
L 1363 2950 
Q 1603 3253 1940 3418 
Q 2278 3584 2650 3584 
Q 3113 3584 3367 3334 
Q 3622 3084 3622 2631 
Q 3622 2519 3608 2391 
Q 3594 2263 3566 2113 
z
" transform="scale(0.015625)"/>
      </defs>
      <use xlink:href="#DejaVuSans-56" transform="translate(0 0.015625)"/>
      <use xlink:href="#DejaVuSans-28" transform="translate(68.408203 0.015625)"/>
      <use xlink:href="#DejaVuSans-34" transform="translate(107.421875 0.015625)"/>
      <use xlink:href="#DejaVuSans-29" transform="translate(171.044922 0.015625)"/>
      <use xlink:href="#DejaVuSans-20" transform="translate(210.058594 0.015625)"/>
      <use xlink:href="#DejaVuSans-5b" transform="translate(241.845703 0.015625)"/>
      <use xlink:href="#DejaVuSans-56" transform="translate(280.859375 0.015625)"/>
      <use xlink:href="#DejaVuSans-5d" transform="translate(349.267578 0.015625)"/>
      <use xlink:href="#DejaVuSans-20" transform="translate(388.28125 0.015625)"/>
      <use xlink:href="#DejaVuSans-20" transform="translate(420.068359 0.015625)"/>
      <use xlink:href="#DejaVuSans-28" transform="translate(451.855469 0.015625)"/>
      <use xlink:href="#DejaVuSans-Oblique-56" transform="translate(490.869141 0.015625)"/>
      <use xlink:href="#DejaVuSans-Oblique-69" transform="translate(559.277344 -16.390625)scale(0.7)"/>
      <use xlink:href="#DejaVuSans-Oblique-6e" transform="translate(578.725586 -16.390625)scale(0.7)"/>
      <use xlink:href="#DejaVuSans-29" transform="translate(625.825195 0.015625)"/>
     </g>
    </g>
   </g>
  </g>
  <g id="axes_2">
   <g id="patch_8">
    <path d="M 412.201989 322.330435 
L 716.565625 322.330435 
L 716.565625 7.2 
L 412.201989 7.2 
z
" style="fill: #ffffff"/>
   </g>
   <g id="PolyCollection_2">
    <defs>
     <path id="me144b07682" d="M 509.598352 -374.745815 
L 509.598352 -709.397604 
L 582.645625 -709.397604 
L 582.645625 -374.745815 
L 582.645625 -374.745815 
L 509.598352 -374.745815 
z
" style="stroke: #008000; stroke-opacity: 0.1"/>
    </defs>
    <g clip-path="url(#p38e9dcc576)">
     <use xlink:href="#me144b07682" x="0" y="697.07625" style="fill: #008000; fill-opacity: 0.1; stroke: #008000; stroke-opacity: 0.1"/>
    </g>
   </g>
   <g id="PolyCollection_3">
    <defs>
     <path id="m0bee0a23cf" d="M 582.645625 -374.745815 
L 582.645625 -709.397604 
L 613.081989 -709.397604 
L 613.081989 -374.745815 
L 613.081989 -374.745815 
L 582.645625 -374.745815 
z
" style="stroke: #ff0000; stroke-opacity: 0.1"/>
    </defs>
    <g clip-path="url(#p38e9dcc576)">
     <use xlink:href="#m0bee0a23cf" x="0" y="697.07625" style="fill: #ff0000; fill-opacity: 0.1; stroke: #ff0000; stroke-opacity: 0.1"/>
    </g>
   </g>
   <g id="PolyCollection_4">
    <defs>
     <path id="m68c09aea9f" d="M 613.081989 -374.745815 
L 613.081989 -709.397604 
L 643.518352 -709.397604 
L 643.518352 -374.745815 
L 643.518352 -374.745815 
L 613.081989 -374.745815 
z
" style="stroke: #008000; stroke-opacity: 0.1"/>
    </defs>
    <g clip-path="url(#p38e9dcc576)">
     <use xlink:href="#m68c09aea9f" x="0" y="697.07625" style="fill: #008000; fill-opacity: 0.1; stroke: #008000; stroke-opacity: 0.1"/>
    </g>
   </g>
   <g id="matplotlib.axis_3">
    <g id="xtick_8">
     <g id="line2d_32">
      <path d="M 412.201989 322.330435 
L 412.201989 7.2 
" clip-path="url(#p38e9dcc576)" style="fill: none; stroke: #b0b0b0; stroke-width: 0.8; stroke-linecap: square"/>
     </g>
     <g id="line2d_33">
      <g>
       <use xlink:href="#m2b4522fb2a" x="412.201989" y="322.330435" style="stroke: #000000; stroke-width: 0.8"/>
      </g>
     </g>
     <g id="text_17">
      <!-- 9.45 -->
      <g transform="translate(401.069176 336.928872)scale(0.1 -0.1)">
       <defs>
        <path id="DejaVuSans-39" d="M 703 97 
L 703 672 
Q 941 559 1184 500 
Q 1428 441 1663 441 
Q 2288 441 2617 861 
Q 2947 1281 2994 2138 
Q 2813 1869 2534 1725 
Q 2256 1581 1919 1581 
Q 1219 1581 811 2004 
Q 403 2428 403 3163 
Q 403 3881 828 4315 
Q 1253 4750 1959 4750 
Q 2769 4750 3195 4129 
Q 3622 3509 3622 2328 
Q 3622 1225 3098 567 
Q 2575 -91 1691 -91 
Q 1453 -91 1209 -44 
Q 966 3 703 97 
z
M 1959 2075 
Q 2384 2075 2632 2365 
Q 2881 2656 2881 3163 
Q 2881 3666 2632 3958 
Q 2384 4250 1959 4250 
Q 1534 4250 1286 3958 
Q 1038 3666 1038 3163 
Q 1038 2656 1286 2365 
Q 1534 2075 1959 2075 
z
" transform="scale(0.015625)"/>
       </defs>
       <use xlink:href="#DejaVuSans-39"/>
       <use xlink:href="#DejaVuSans-2e" x="63.623047"/>
       <use xlink:href="#DejaVuSans-34" x="95.410156"/>
       <use xlink:href="#DejaVuSans-35" x="159.033203"/>
      </g>
     </g>
    </g>
    <g id="xtick_9">
     <g id="line2d_34">
      <path d="M 473.074716 322.330435 
L 473.074716 7.2 
" clip-path="url(#p38e9dcc576)" style="fill: none; stroke: #b0b0b0; stroke-width: 0.8; stroke-linecap: square"/>
     </g>
     <g id="line2d_35">
      <g>
       <use xlink:href="#m2b4522fb2a" x="473.074716" y="322.330435" style="stroke: #000000; stroke-width: 0.8"/>
      </g>
     </g>
     <g id="text_18">
      <!-- 9.50 -->
      <g transform="translate(461.941903 336.928872)scale(0.1 -0.1)">
       <use xlink:href="#DejaVuSans-39"/>
       <use xlink:href="#DejaVuSans-2e" x="63.623047"/>
       <use xlink:href="#DejaVuSans-35" x="95.410156"/>
       <use xlink:href="#DejaVuSans-30" x="159.033203"/>
      </g>
     </g>
    </g>
    <g id="xtick_10">
     <g id="line2d_36">
      <path d="M 533.947443 322.330435 
L 533.947443 7.2 
" clip-path="url(#p38e9dcc576)" style="fill: none; stroke: #b0b0b0; stroke-width: 0.8; stroke-linecap: square"/>
     </g>
     <g id="line2d_37">
      <g>
       <use xlink:href="#m2b4522fb2a" x="533.947443" y="322.330435" style="stroke: #000000; stroke-width: 0.8"/>
      </g>
     </g>
     <g id="text_19">
      <!-- 9.55 -->
      <g transform="translate(522.814631 336.928872)scale(0.1 -0.1)">
       <use xlink:href="#DejaVuSans-39"/>
       <use xlink:href="#DejaVuSans-2e" x="63.623047"/>
       <use xlink:href="#DejaVuSans-35" x="95.410156"/>
       <use xlink:href="#DejaVuSans-35" x="159.033203"/>
      </g>
     </g>
    </g>
    <g id="xtick_11">
     <g id="line2d_38">
      <path d="M 594.82017 322.330435 
L 594.82017 7.2 
" clip-path="url(#p38e9dcc576)" style="fill: none; stroke: #b0b0b0; stroke-width: 0.8; stroke-linecap: square"/>
     </g>
     <g id="line2d_39">
      <g>
       <use xlink:href="#m2b4522fb2a" x="594.82017" y="322.330435" style="stroke: #000000; stroke-width: 0.8"/>
      </g>
     </g>
     <g id="text_20">
      <!-- 9.60 -->
      <g transform="translate(583.687358 336.928872)scale(0.1 -0.1)">
       <use xlink:href="#DejaVuSans-39"/>
       <use xlink:href="#DejaVuSans-2e" x="63.623047"/>
       <use xlink:href="#DejaVuSans-36" x="95.410156"/>
       <use xlink:href="#DejaVuSans-30" x="159.033203"/>
      </g>
     </g>
    </g>
    <g id="xtick_12">
     <g id="line2d_40">
      <path d="M 655.692898 322.330435 
L 655.692898 7.2 
" clip-path="url(#p38e9dcc576)" style="fill: none; stroke: #b0b0b0; stroke-width: 0.8; stroke-linecap: square"/>
     </g>
     <g id="line2d_41">
      <g>
       <use xlink:href="#m2b4522fb2a" x="655.692898" y="322.330435" style="stroke: #000000; stroke-width: 0.8"/>
      </g>
     </g>
     <g id="text_21">
      <!-- 9.65 -->
      <g transform="translate(644.560085 336.928872)scale(0.1 -0.1)">
       <use xlink:href="#DejaVuSans-39"/>
       <use xlink:href="#DejaVuSans-2e" x="63.623047"/>
       <use xlink:href="#DejaVuSans-36" x="95.410156"/>
       <use xlink:href="#DejaVuSans-35" x="159.033203"/>
      </g>
     </g>
    </g>
    <g id="xtick_13">
     <g id="line2d_42">
      <path d="M 716.565625 322.330435 
L 716.565625 7.2 
" clip-path="url(#p38e9dcc576)" style="fill: none; stroke: #b0b0b0; stroke-width: 0.8; stroke-linecap: square"/>
     </g>
     <g id="line2d_43">
      <g>
       <use xlink:href="#m2b4522fb2a" x="716.565625" y="322.330435" style="stroke: #000000; stroke-width: 0.8"/>
      </g>
     </g>
     <g id="text_22">
      <!-- 9.70 -->
      <g transform="translate(705.432813 336.928872)scale(0.1 -0.1)">
       <defs>
        <path id="DejaVuSans-37" d="M 525 4666 
L 3525 4666 
L 3525 4397 
L 1831 0 
L 1172 0 
L 2766 4134 
L 525 4134 
L 525 4666 
z
" transform="scale(0.015625)"/>
       </defs>
       <use xlink:href="#DejaVuSans-39"/>
       <use xlink:href="#DejaVuSans-2e" x="63.623047"/>
       <use xlink:href="#DejaVuSans-37" x="95.410156"/>
       <use xlink:href="#DejaVuSans-30" x="159.033203"/>
      </g>
     </g>
    </g>
   </g>
   <g id="matplotlib.axis_4">
    <g id="ytick_7">
     <g id="line2d_44">
      <path d="M 412.201989 322.330435 
L 716.565625 322.330435 
" clip-path="url(#p38e9dcc576)" style="fill: none; stroke: #b0b0b0; stroke-width: 0.8; stroke-linecap: square"/>
     </g>
     <g id="line2d_45">
      <g>
       <use xlink:href="#m2e897bc64e" x="412.201989" y="322.330435" style="stroke: #000000; stroke-width: 0.8"/>
      </g>
     </g>
     <g id="text_23">
      <!-- 0 -->
      <g transform="translate(398.839489 326.129654)scale(0.1 -0.1)">
       <use xlink:href="#DejaVuSans-30"/>
      </g>
     </g>
    </g>
    <g id="ytick_8">
     <g id="line2d_46">
      <path d="M 412.201989 266.555137 
L 716.565625 266.555137 
" clip-path="url(#p38e9dcc576)" style="fill: none; stroke: #b0b0b0; stroke-width: 0.8; stroke-linecap: square"/>
     </g>
     <g id="line2d_47">
      <g>
       <use xlink:href="#m2e897bc64e" x="412.201989" y="266.555137" style="stroke: #000000; stroke-width: 0.8"/>
      </g>
     </g>
     <g id="text_24">
      <!-- 2 -->
      <g transform="translate(398.839489 270.354355)scale(0.1 -0.1)">
       <use xlink:href="#DejaVuSans-32"/>
      </g>
     </g>
    </g>
    <g id="ytick_9">
     <g id="line2d_48">
      <path d="M 412.201989 210.779838 
L 716.565625 210.779838 
" clip-path="url(#p38e9dcc576)" style="fill: none; stroke: #b0b0b0; stroke-width: 0.8; stroke-linecap: square"/>
     </g>
     <g id="line2d_49">
      <g>
       <use xlink:href="#m2e897bc64e" x="412.201989" y="210.779838" style="stroke: #000000; stroke-width: 0.8"/>
      </g>
     </g>
     <g id="text_25">
      <!-- 4 -->
      <g transform="translate(398.839489 214.579057)scale(0.1 -0.1)">
       <use xlink:href="#DejaVuSans-34"/>
      </g>
     </g>
    </g>
    <g id="ytick_10">
     <g id="line2d_50">
      <path d="M 412.201989 155.00454 
L 716.565625 155.00454 
" clip-path="url(#p38e9dcc576)" style="fill: none; stroke: #b0b0b0; stroke-width: 0.8; stroke-linecap: square"/>
     </g>
     <g id="line2d_51">
      <g>
       <use xlink:href="#m2e897bc64e" x="412.201989" y="155.00454" style="stroke: #000000; stroke-width: 0.8"/>
      </g>
     </g>
     <g id="text_26">
      <!-- 6 -->
      <g transform="translate(398.839489 158.803759)scale(0.1 -0.1)">
       <use xlink:href="#DejaVuSans-36"/>
      </g>
     </g>
    </g>
    <g id="ytick_11">
     <g id="line2d_52">
      <path d="M 412.201989 99.229242 
L 716.565625 99.229242 
" clip-path="url(#p38e9dcc576)" style="fill: none; stroke: #b0b0b0; stroke-width: 0.8; stroke-linecap: square"/>
     </g>
     <g id="line2d_53">
      <g>
       <use xlink:href="#m2e897bc64e" x="412.201989" y="99.229242" style="stroke: #000000; stroke-width: 0.8"/>
      </g>
     </g>
     <g id="text_27">
      <!-- 8 -->
      <g transform="translate(398.839489 103.028461)scale(0.1 -0.1)">
       <use xlink:href="#DejaVuSans-38"/>
      </g>
     </g>
    </g>
    <g id="ytick_12">
     <g id="line2d_54">
      <path d="M 412.201989 43.453944 
L 716.565625 43.453944 
" clip-path="url(#p38e9dcc576)" style="fill: none; stroke: #b0b0b0; stroke-width: 0.8; stroke-linecap: square"/>
     </g>
     <g id="line2d_55">
      <g>
       <use xlink:href="#m2e897bc64e" x="412.201989" y="43.453944" style="stroke: #000000; stroke-width: 0.8"/>
      </g>
     </g>
     <g id="text_28">
      <!-- 10 -->
      <g transform="translate(392.476989 47.253163)scale(0.1 -0.1)">
       <use xlink:href="#DejaVuSans-31"/>
       <use xlink:href="#DejaVuSans-30" x="63.623047"/>
      </g>
     </g>
    </g>
    <g id="text_29">
     <!-- Output voltage [V] -->
     <g transform="translate(386.397301 211.315999)rotate(-90)scale(0.1 -0.1)">
      <use xlink:href="#DejaVuSans-4f"/>
      <use xlink:href="#DejaVuSans-75" x="78.710938"/>
      <use xlink:href="#DejaVuSans-74" x="142.089844"/>
      <use xlink:href="#DejaVuSans-70" x="181.298828"/>
      <use xlink:href="#DejaVuSans-75" x="244.775391"/>
      <use xlink:href="#DejaVuSans-74" x="308.154297"/>
      <use xlink:href="#DejaVuSans-20" x="347.363281"/>
      <use xlink:href="#DejaVuSans-76" x="379.150391"/>
      <use xlink:href="#DejaVuSans-6f" x="438.330078"/>
      <use xlink:href="#DejaVuSans-6c" x="499.511719"/>
      <use xlink:href="#DejaVuSans-74" x="527.294922"/>
      <use xlink:href="#DejaVuSans-61" x="566.503906"/>
      <use xlink:href="#DejaVuSans-67" x="627.783203"/>
      <use xlink:href="#DejaVuSans-65" x="691.259766"/>
      <use xlink:href="#DejaVuSans-20" x="752.783203"/>
      <use xlink:href="#DejaVuSans-5b" x="784.570312"/>
      <use xlink:href="#DejaVuSans-56" x="823.583984"/>
      <use xlink:href="#DejaVuSans-5d" x="891.992188"/>
     </g>
    </g>
   </g>
   <g id="line2d_56">
    <path d="M 412.026675 84.237531 
L 419.818384 98.04545 
L 427.123112 110.553176 
L 434.184348 122.202763 
L 440.758602 132.628053 
L 447.089366 142.25814 
L 453.176639 151.118137 
L 459.020421 159.237358 
L 464.620712 166.648446 
L 469.977512 173.386569 
L 475.334312 179.771087 
L 480.447621 185.526595 
L 485.56093 190.943285 
L 490.430748 195.781194 
L 495.300566 200.30954 
L 508.692566 212.484303 
L 512.34493 216.292712 
L 515.997293 220.408823 
L 519.893148 225.131217 
L 524.032493 230.498053 
L 528.658821 236.873807 
L 533.77213 244.307015 
L 540.102893 253.927466 
L 550.329512 269.953422 
L 559.825657 284.689302 
L 565.669439 293.360911 
L 570.539257 300.205441 
L 574.922093 305.98173 
L 578.817948 310.751364 
L 582.226821 314.598349 
L 584.418239 316.800097 
L 585.635693 317.707724 
L 586.609657 318.156202 
L 587.827112 318.443047 
L 589.531548 318.574953 
L 592.69693 318.532596 
L 600.245148 318.142926 
L 606.819402 317.617277 
L 611.202239 317.052403 
L 614.367621 316.418386 
L 616.80253 315.716695 
L 618.993948 314.87098 
L 621.185366 313.788597 
L 623.376784 312.452074 
L 625.568202 310.85336 
L 627.759621 308.988294 
L 630.19453 306.600553 
L 632.629439 303.879255 
L 635.064348 300.825339 
L 637.742748 297.087555 
L 640.421148 292.967328 
L 643.343039 288.069624 
L 646.751912 281.910218 
L 651.134748 273.506852 
L 656.735039 262.274551 
L 662.822312 249.563966 
L 669.396566 235.301398 
L 676.214312 219.972578 
L 683.519039 203.000448 
L 691.554239 183.753514 
L 700.319912 162.16947 
L 710.303039 136.98824 
L 716.633802 120.765619 
L 716.633802 120.765619 
" clip-path="url(#p38e9dcc576)" style="fill: none; stroke: #1f77b4; stroke-width: 1.5; stroke-linecap: square"/>
   </g>
   <g id="line2d_57">
    <path d="M 412.026675 345.690451 
L 425.418675 337.788973 
L 436.862748 331.285824 
L 447.332857 325.58901 
L 457.072493 320.54475 
L 466.081657 316.126503 
L 474.603839 312.188669 
L 482.88253 308.606921 
L 490.91773 305.375925 
L 498.709439 302.487157 
L 506.257657 299.929357 
L 513.562384 297.688974 
L 520.623621 295.75058 
L 527.684857 294.042244 
L 534.502602 292.616504 
L 541.320348 291.415059 
L 548.138093 290.441673 
L 554.955839 289.6994 
L 561.530093 289.204698 
L 568.104348 288.928505 
L 574.678602 288.871626 
L 581.252857 289.034226 
L 587.827112 289.415831 
L 594.401366 290.01533 
L 601.219112 290.865305 
L 608.036857 291.945064 
L 614.854602 293.251222 
L 621.672348 294.779683 
L 628.733584 296.59197 
L 635.794821 298.631483 
L 643.099548 300.973134 
L 650.647766 303.631627 
L 658.439475 306.61972 
L 666.474675 309.947805 
L 674.753366 313.623475 
L 683.275548 317.651062 
L 692.284712 322.156063 
L 701.780857 327.152959 
L 712.007475 332.784995 
L 716.633802 335.407948 
L 716.633802 335.407948 
" clip-path="url(#p38e9dcc576)" style="fill: none; stroke: #ff7f0e; stroke-width: 1.5; stroke-linecap: square"/>
   </g>
   <g id="line2d_58">
    <path d="M 412.201989 302.80908 
L 716.565625 302.80908 
" clip-path="url(#p38e9dcc576)" style="fill: none; stroke-dasharray: 5.55,2.4; stroke-dashoffset: 0; stroke: #008000; stroke-width: 1.5"/>
   </g>
   <g id="patch_9">
    <path d="M 412.201989 322.330435 
L 412.201989 7.2 
" style="fill: none; stroke: #000000; stroke-width: 0.8; stroke-linejoin: miter; stroke-linecap: square"/>
   </g>
   <g id="patch_10">
    <path d="M 716.565625 322.330435 
L 716.565625 7.2 
" style="fill: none; stroke: #000000; stroke-width: 0.8; stroke-linejoin: miter; stroke-linecap: square"/>
   </g>
   <g id="patch_11">
    <path d="M 412.201989 322.330435 
L 716.565625 322.330435 
" style="fill: none; stroke: #000000; stroke-width: 0.8; stroke-linejoin: miter; stroke-linecap: square"/>
   </g>
   <g id="patch_12">
    <path d="M 412.201989 7.2 
L 716.565625 7.2 
" style="fill: none; stroke: #000000; stroke-width: 0.8; stroke-linejoin: miter; stroke-linecap: square"/>
   </g>
   <g id="legend_2">
    <g id="patch_13">
     <path d="M 508.554716 57.62087 
L 612.154716 57.62087 
Q 614.154716 57.62087 614.154716 55.62087 
L 614.154716 27.26462 
Q 614.154716 25.26462 612.154716 25.26462 
L 508.554716 25.26462 
Q 506.554716 25.26462 506.554716 27.26462 
L 506.554716 55.62087 
Q 506.554716 57.62087 508.554716 57.62087 
z
" style="fill: #ffffff; opacity: 0.8; stroke: #cccccc; stroke-linejoin: miter"/>
    </g>
    <g id="line2d_59">
     <path d="M 510.554716 33.363057 
L 520.554716 33.363057 
L 530.554716 33.363057 
" style="fill: none; stroke: #1f77b4; stroke-width: 1.5; stroke-linecap: square"/>
    </g>
    <g id="text_30">
     <!-- V(2) [V]  ($V_{out}$) -->
     <g transform="translate(538.554716 36.863057)scale(0.1 -0.1)">
      <use xlink:href="#DejaVuSans-56" transform="translate(0 0.015625)"/>
      <use xlink:href="#DejaVuSans-28" transform="translate(68.408203 0.015625)"/>
      <use xlink:href="#DejaVuSans-32" transform="translate(107.421875 0.015625)"/>
      <use xlink:href="#DejaVuSans-29" transform="translate(171.044922 0.015625)"/>
      <use xlink:href="#DejaVuSans-20" transform="translate(210.058594 0.015625)"/>
      <use xlink:href="#DejaVuSans-5b" transform="translate(241.845703 0.015625)"/>
      <use xlink:href="#DejaVuSans-56" transform="translate(280.859375 0.015625)"/>
      <use xlink:href="#DejaVuSans-5d" transform="translate(349.267578 0.015625)"/>
      <use xlink:href="#DejaVuSans-20" transform="translate(388.28125 0.015625)"/>
      <use xlink:href="#DejaVuSans-20" transform="translate(420.068359 0.015625)"/>
      <use xlink:href="#DejaVuSans-28" transform="translate(451.855469 0.015625)"/>
      <use xlink:href="#DejaVuSans-Oblique-56" transform="translate(490.869141 0.015625)"/>
      <use xlink:href="#DejaVuSans-Oblique-6f" transform="translate(559.277344 -16.390625)scale(0.7)"/>
      <use xlink:href="#DejaVuSans-Oblique-75" transform="translate(602.104492 -16.390625)scale(0.7)"/>
      <use xlink:href="#DejaVuSans-Oblique-74" transform="translate(646.469727 -16.390625)scale(0.7)"/>
      <use xlink:href="#DejaVuSans-29" transform="translate(676.650391 0.015625)"/>
     </g>
    </g>
    <g id="line2d_60">
     <path d="M 510.554716 48.041182 
L 520.554716 48.041182 
L 530.554716 48.041182 
" style="fill: none; stroke: #ff7f0e; stroke-width: 1.5; stroke-linecap: square"/>
    </g>
    <g id="text_31">
     <!-- V(4) [V]  ($V_{in}$) -->
     <g transform="translate(538.554716 51.541182)scale(0.1 -0.1)">
      <use xlink:href="#DejaVuSans-56" transform="translate(0 0.015625)"/>
      <use xlink:href="#DejaVuSans-28" transform="translate(68.408203 0.015625)"/>
      <use xlink:href="#DejaVuSans-34" transform="translate(107.421875 0.015625)"/>
      <use xlink:href="#DejaVuSans-29" transform="translate(171.044922 0.015625)"/>
      <use xlink:href="#DejaVuSans-20" transform="translate(210.058594 0.015625)"/>
      <use xlink:href="#DejaVuSans-5b" transform="translate(241.845703 0.015625)"/>
      <use xlink:href="#DejaVuSans-56" transform="translate(280.859375 0.015625)"/>
      <use xlink:href="#DejaVuSans-5d" transform="translate(349.267578 0.015625)"/>
      <use xlink:href="#DejaVuSans-20" transform="translate(388.28125 0.015625)"/>
      <use xlink:href="#DejaVuSans-20" transform="translate(420.068359 0.015625)"/>
      <use xlink:href="#DejaVuSans-28" transform="translate(451.855469 0.015625)"/>
      <use xlink:href="#DejaVuSans-Oblique-56" transform="translate(490.869141 0.015625)"/>
      <use xlink:href="#DejaVuSans-Oblique-69" transform="translate(559.277344 -16.390625)scale(0.7)"/>
      <use xlink:href="#DejaVuSans-Oblique-6e" transform="translate(578.725586 -16.390625)scale(0.7)"/>
      <use xlink:href="#DejaVuSans-29" transform="translate(625.825195 0.015625)"/>
     </g>
    </g>
   </g>
  </g>
  <g id="axes_3">
   <g id="patch_14">
    <path d="M 46.965625 659.52 
L 351.329261 659.52 
L 351.329261 344.389565 
L 46.965625 344.389565 
z
" style="fill: #ffffff"/>
   </g>
   <g id="PolyCollection_5">
    <defs>
     <path id="m9ba6cb0369" d="M 148.42017 -51.880361 
L 148.42017 -338.362574 
L 260.02017 -338.362574 
L 260.02017 -51.880361 
L 260.02017 -51.880361 
L 148.42017 -51.880361 
z
" style="stroke: #008000; stroke-opacity: 0.1"/>
    </defs>
    <g clip-path="url(#p6191c0aa5e)">
     <use xlink:href="#m9ba6cb0369" x="0" y="697.07625" style="fill: #008000; fill-opacity: 0.1; stroke: #008000; stroke-opacity: 0.1"/>
    </g>
   </g>
   <g id="matplotlib.axis_5">
    <g id="xtick_14">
     <g id="line2d_61">
      <path d="M 46.965625 659.52 
L 46.965625 344.389565 
" clip-path="url(#p6191c0aa5e)" style="fill: none; stroke: #b0b0b0; stroke-width: 0.8; stroke-linecap: square"/>
     </g>
     <g id="line2d_62">
      <g>
       <use xlink:href="#m2b4522fb2a" x="46.965625" y="659.52" style="stroke: #000000; stroke-width: 0.8"/>
      </g>
     </g>
     <g id="text_32">
      <!-- 0.00 -->
      <g transform="translate(35.832813 674.118438)scale(0.1 -0.1)">
       <use xlink:href="#DejaVuSans-30"/>
       <use xlink:href="#DejaVuSans-2e" x="63.623047"/>
       <use xlink:href="#DejaVuSans-30" x="95.410156"/>
       <use xlink:href="#DejaVuSans-30" x="159.033203"/>
      </g>
     </g>
    </g>
    <g id="xtick_15">
     <g id="line2d_63">
      <path d="M 97.692898 659.52 
L 97.692898 344.389565 
" clip-path="url(#p6191c0aa5e)" style="fill: none; stroke: #b0b0b0; stroke-width: 0.8; stroke-linecap: square"/>
     </g>
     <g id="line2d_64">
      <g>
       <use xlink:href="#m2b4522fb2a" x="97.692898" y="659.52" style="stroke: #000000; stroke-width: 0.8"/>
      </g>
     </g>
     <g id="text_33">
      <!-- 0.05 -->
      <g transform="translate(86.560085 674.118438)scale(0.1 -0.1)">
       <use xlink:href="#DejaVuSans-30"/>
       <use xlink:href="#DejaVuSans-2e" x="63.623047"/>
       <use xlink:href="#DejaVuSans-30" x="95.410156"/>
       <use xlink:href="#DejaVuSans-35" x="159.033203"/>
      </g>
     </g>
    </g>
    <g id="xtick_16">
     <g id="line2d_65">
      <path d="M 148.42017 659.52 
L 148.42017 344.389565 
" clip-path="url(#p6191c0aa5e)" style="fill: none; stroke: #b0b0b0; stroke-width: 0.8; stroke-linecap: square"/>
     </g>
     <g id="line2d_66">
      <g>
       <use xlink:href="#m2b4522fb2a" x="148.42017" y="659.52" style="stroke: #000000; stroke-width: 0.8"/>
      </g>
     </g>
     <g id="text_34">
      <!-- 0.10 -->
      <g transform="translate(137.287358 674.118438)scale(0.1 -0.1)">
       <use xlink:href="#DejaVuSans-30"/>
       <use xlink:href="#DejaVuSans-2e" x="63.623047"/>
       <use xlink:href="#DejaVuSans-31" x="95.410156"/>
       <use xlink:href="#DejaVuSans-30" x="159.033203"/>
      </g>
     </g>
    </g>
    <g id="xtick_17">
     <g id="line2d_67">
      <path d="M 199.147443 659.52 
L 199.147443 344.389565 
" clip-path="url(#p6191c0aa5e)" style="fill: none; stroke: #b0b0b0; stroke-width: 0.8; stroke-linecap: square"/>
     </g>
     <g id="line2d_68">
      <g>
       <use xlink:href="#m2b4522fb2a" x="199.147443" y="659.52" style="stroke: #000000; stroke-width: 0.8"/>
      </g>
     </g>
     <g id="text_35">
      <!-- 0.15 -->
      <g transform="translate(188.014631 674.118438)scale(0.1 -0.1)">
       <use xlink:href="#DejaVuSans-30"/>
       <use xlink:href="#DejaVuSans-2e" x="63.623047"/>
       <use xlink:href="#DejaVuSans-31" x="95.410156"/>
       <use xlink:href="#DejaVuSans-35" x="159.033203"/>
      </g>
     </g>
    </g>
    <g id="xtick_18">
     <g id="line2d_69">
      <path d="M 249.874716 659.52 
L 249.874716 344.389565 
" clip-path="url(#p6191c0aa5e)" style="fill: none; stroke: #b0b0b0; stroke-width: 0.8; stroke-linecap: square"/>
     </g>
     <g id="line2d_70">
      <g>
       <use xlink:href="#m2b4522fb2a" x="249.874716" y="659.52" style="stroke: #000000; stroke-width: 0.8"/>
      </g>
     </g>
     <g id="text_36">
      <!-- 0.20 -->
      <g transform="translate(238.741903 674.118438)scale(0.1 -0.1)">
       <use xlink:href="#DejaVuSans-30"/>
       <use xlink:href="#DejaVuSans-2e" x="63.623047"/>
       <use xlink:href="#DejaVuSans-32" x="95.410156"/>
       <use xlink:href="#DejaVuSans-30" x="159.033203"/>
      </g>
     </g>
    </g>
    <g id="xtick_19">
     <g id="line2d_71">
      <path d="M 300.601989 659.52 
L 300.601989 344.389565 
" clip-path="url(#p6191c0aa5e)" style="fill: none; stroke: #b0b0b0; stroke-width: 0.8; stroke-linecap: square"/>
     </g>
     <g id="line2d_72">
      <g>
       <use xlink:href="#m2b4522fb2a" x="300.601989" y="659.52" style="stroke: #000000; stroke-width: 0.8"/>
      </g>
     </g>
     <g id="text_37">
      <!-- 0.25 -->
      <g transform="translate(289.469176 674.118438)scale(0.1 -0.1)">
       <use xlink:href="#DejaVuSans-30"/>
       <use xlink:href="#DejaVuSans-2e" x="63.623047"/>
       <use xlink:href="#DejaVuSans-32" x="95.410156"/>
       <use xlink:href="#DejaVuSans-35" x="159.033203"/>
      </g>
     </g>
    </g>
    <g id="xtick_20">
     <g id="line2d_73">
      <path d="M 351.329261 659.52 
L 351.329261 344.389565 
" clip-path="url(#p6191c0aa5e)" style="fill: none; stroke: #b0b0b0; stroke-width: 0.8; stroke-linecap: square"/>
     </g>
     <g id="line2d_74">
      <g>
       <use xlink:href="#m2b4522fb2a" x="351.329261" y="659.52" style="stroke: #000000; stroke-width: 0.8"/>
      </g>
     </g>
     <g id="text_38">
      <!-- 0.30 -->
      <g transform="translate(340.196449 674.118438)scale(0.1 -0.1)">
       <use xlink:href="#DejaVuSans-30"/>
       <use xlink:href="#DejaVuSans-2e" x="63.623047"/>
       <use xlink:href="#DejaVuSans-33" x="95.410156"/>
       <use xlink:href="#DejaVuSans-30" x="159.033203"/>
      </g>
     </g>
    </g>
    <g id="text_39">
     <!-- tijd [us] -->
     <g transform="translate(179.970881 687.796562)scale(0.1 -0.1)">
      <defs>
       <path id="DejaVuSans-69" d="M 603 3500 
L 1178 3500 
L 1178 0 
L 603 0 
L 603 3500 
z
M 603 4863 
L 1178 4863 
L 1178 4134 
L 603 4134 
L 603 4863 
z
" transform="scale(0.015625)"/>
       <path id="DejaVuSans-6a" d="M 603 3500 
L 1178 3500 
L 1178 -63 
Q 1178 -731 923 -1031 
Q 669 -1331 103 -1331 
L -116 -1331 
L -116 -844 
L 38 -844 
Q 366 -844 484 -692 
Q 603 -541 603 -63 
L 603 3500 
z
M 603 4863 
L 1178 4863 
L 1178 4134 
L 603 4134 
L 603 4863 
z
" transform="scale(0.015625)"/>
       <path id="DejaVuSans-64" d="M 2906 2969 
L 2906 4863 
L 3481 4863 
L 3481 0 
L 2906 0 
L 2906 525 
Q 2725 213 2448 61 
Q 2172 -91 1784 -91 
Q 1150 -91 751 415 
Q 353 922 353 1747 
Q 353 2572 751 3078 
Q 1150 3584 1784 3584 
Q 2172 3584 2448 3432 
Q 2725 3281 2906 2969 
z
M 947 1747 
Q 947 1113 1208 752 
Q 1469 391 1925 391 
Q 2381 391 2643 752 
Q 2906 1113 2906 1747 
Q 2906 2381 2643 2742 
Q 2381 3103 1925 3103 
Q 1469 3103 1208 2742 
Q 947 2381 947 1747 
z
" transform="scale(0.015625)"/>
       <path id="DejaVuSans-73" d="M 2834 3397 
L 2834 2853 
Q 2591 2978 2328 3040 
Q 2066 3103 1784 3103 
Q 1356 3103 1142 2972 
Q 928 2841 928 2578 
Q 928 2378 1081 2264 
Q 1234 2150 1697 2047 
L 1894 2003 
Q 2506 1872 2764 1633 
Q 3022 1394 3022 966 
Q 3022 478 2636 193 
Q 2250 -91 1575 -91 
Q 1294 -91 989 -36 
Q 684 19 347 128 
L 347 722 
Q 666 556 975 473 
Q 1284 391 1588 391 
Q 1994 391 2212 530 
Q 2431 669 2431 922 
Q 2431 1156 2273 1281 
Q 2116 1406 1581 1522 
L 1381 1569 
Q 847 1681 609 1914 
Q 372 2147 372 2553 
Q 372 3047 722 3315 
Q 1072 3584 1716 3584 
Q 2034 3584 2315 3537 
Q 2597 3491 2834 3397 
z
" transform="scale(0.015625)"/>
      </defs>
      <use xlink:href="#DejaVuSans-74"/>
      <use xlink:href="#DejaVuSans-69" x="39.208984"/>
      <use xlink:href="#DejaVuSans-6a" x="66.992188"/>
      <use xlink:href="#DejaVuSans-64" x="94.775391"/>
      <use xlink:href="#DejaVuSans-20" x="158.251953"/>
      <use xlink:href="#DejaVuSans-5b" x="190.039062"/>
      <use xlink:href="#DejaVuSans-75" x="229.052734"/>
      <use xlink:href="#DejaVuSans-73" x="292.431641"/>
      <use xlink:href="#DejaVuSans-5d" x="344.53125"/>
     </g>
    </g>
   </g>
   <g id="matplotlib.axis_6">
    <g id="ytick_13">
     <g id="line2d_75">
      <path d="M 46.965625 645.195889 
L 351.329261 645.195889 
" clip-path="url(#p6191c0aa5e)" style="fill: none; stroke: #b0b0b0; stroke-width: 0.8; stroke-linecap: square"/>
     </g>
     <g id="line2d_76">
      <g>
       <use xlink:href="#m2e897bc64e" x="46.965625" y="645.195889" style="stroke: #000000; stroke-width: 0.8"/>
      </g>
     </g>
     <g id="text_40">
      <!-- 0 -->
      <g transform="translate(33.603125 648.995108)scale(0.1 -0.1)">
       <use xlink:href="#DejaVuSans-30"/>
      </g>
     </g>
    </g>
    <g id="ytick_14">
     <g id="line2d_77">
      <path d="M 46.965625 581.533175 
L 351.329261 581.533175 
" clip-path="url(#p6191c0aa5e)" style="fill: none; stroke: #b0b0b0; stroke-width: 0.8; stroke-linecap: square"/>
     </g>
     <g id="line2d_78">
      <g>
       <use xlink:href="#m2e897bc64e" x="46.965625" y="581.533175" style="stroke: #000000; stroke-width: 0.8"/>
      </g>
     </g>
     <g id="text_41">
      <!-- 200 -->
      <g transform="translate(20.878125 585.332394)scale(0.1 -0.1)">
       <use xlink:href="#DejaVuSans-32"/>
       <use xlink:href="#DejaVuSans-30" x="63.623047"/>
       <use xlink:href="#DejaVuSans-30" x="127.246094"/>
      </g>
     </g>
    </g>
    <g id="ytick_15">
     <g id="line2d_79">
      <path d="M 46.965625 517.870461 
L 351.329261 517.870461 
" clip-path="url(#p6191c0aa5e)" style="fill: none; stroke: #b0b0b0; stroke-width: 0.8; stroke-linecap: square"/>
     </g>
     <g id="line2d_80">
      <g>
       <use xlink:href="#m2e897bc64e" x="46.965625" y="517.870461" style="stroke: #000000; stroke-width: 0.8"/>
      </g>
     </g>
     <g id="text_42">
      <!-- 400 -->
      <g transform="translate(20.878125 521.66968)scale(0.1 -0.1)">
       <use xlink:href="#DejaVuSans-34"/>
       <use xlink:href="#DejaVuSans-30" x="63.623047"/>
       <use xlink:href="#DejaVuSans-30" x="127.246094"/>
      </g>
     </g>
    </g>
    <g id="ytick_16">
     <g id="line2d_81">
      <path d="M 46.965625 454.207747 
L 351.329261 454.207747 
" clip-path="url(#p6191c0aa5e)" style="fill: none; stroke: #b0b0b0; stroke-width: 0.8; stroke-linecap: square"/>
     </g>
     <g id="line2d_82">
      <g>
       <use xlink:href="#m2e897bc64e" x="46.965625" y="454.207747" style="stroke: #000000; stroke-width: 0.8"/>
      </g>
     </g>
     <g id="text_43">
      <!-- 600 -->
      <g transform="translate(20.878125 458.006966)scale(0.1 -0.1)">
       <use xlink:href="#DejaVuSans-36"/>
       <use xlink:href="#DejaVuSans-30" x="63.623047"/>
       <use xlink:href="#DejaVuSans-30" x="127.246094"/>
      </g>
     </g>
    </g>
    <g id="ytick_17">
     <g id="line2d_83">
      <path d="M 46.965625 390.545033 
L 351.329261 390.545033 
" clip-path="url(#p6191c0aa5e)" style="fill: none; stroke: #b0b0b0; stroke-width: 0.8; stroke-linecap: square"/>
     </g>
     <g id="line2d_84">
      <g>
       <use xlink:href="#m2e897bc64e" x="46.965625" y="390.545033" style="stroke: #000000; stroke-width: 0.8"/>
      </g>
     </g>
     <g id="text_44">
      <!-- 800 -->
      <g transform="translate(20.878125 394.344252)scale(0.1 -0.1)">
       <use xlink:href="#DejaVuSans-38"/>
       <use xlink:href="#DejaVuSans-30" x="63.623047"/>
       <use xlink:href="#DejaVuSans-30" x="127.246094"/>
      </g>
     </g>
    </g>
    <g id="text_45">
     <!-- Transistor  collector current [mA] -->
     <g transform="translate(14.798438 584.30322)rotate(-90)scale(0.1 -0.1)">
      <defs>
       <path id="DejaVuSans-54" d="M -19 4666 
L 3928 4666 
L 3928 4134 
L 2272 4134 
L 2272 0 
L 1638 0 
L 1638 4134 
L -19 4134 
L -19 4666 
z
" transform="scale(0.015625)"/>
       <path id="DejaVuSans-72" d="M 2631 2963 
Q 2534 3019 2420 3045 
Q 2306 3072 2169 3072 
Q 1681 3072 1420 2755 
Q 1159 2438 1159 1844 
L 1159 0 
L 581 0 
L 581 3500 
L 1159 3500 
L 1159 2956 
Q 1341 3275 1631 3429 
Q 1922 3584 2338 3584 
Q 2397 3584 2469 3576 
Q 2541 3569 2628 3553 
L 2631 2963 
z
" transform="scale(0.015625)"/>
       <path id="DejaVuSans-6e" d="M 3513 2113 
L 3513 0 
L 2938 0 
L 2938 2094 
Q 2938 2591 2744 2837 
Q 2550 3084 2163 3084 
Q 1697 3084 1428 2787 
Q 1159 2491 1159 1978 
L 1159 0 
L 581 0 
L 581 3500 
L 1159 3500 
L 1159 2956 
Q 1366 3272 1645 3428 
Q 1925 3584 2291 3584 
Q 2894 3584 3203 3211 
Q 3513 2838 3513 2113 
z
" transform="scale(0.015625)"/>
       <path id="DejaVuSans-63" d="M 3122 3366 
L 3122 2828 
Q 2878 2963 2633 3030 
Q 2388 3097 2138 3097 
Q 1578 3097 1268 2742 
Q 959 2388 959 1747 
Q 959 1106 1268 751 
Q 1578 397 2138 397 
Q 2388 397 2633 464 
Q 2878 531 3122 666 
L 3122 134 
Q 2881 22 2623 -34 
Q 2366 -91 2075 -91 
Q 1284 -91 818 406 
Q 353 903 353 1747 
Q 353 2603 823 3093 
Q 1294 3584 2113 3584 
Q 2378 3584 2631 3529 
Q 2884 3475 3122 3366 
z
" transform="scale(0.015625)"/>
       <path id="DejaVuSans-6d" d="M 3328 2828 
Q 3544 3216 3844 3400 
Q 4144 3584 4550 3584 
Q 5097 3584 5394 3201 
Q 5691 2819 5691 2113 
L 5691 0 
L 5113 0 
L 5113 2094 
Q 5113 2597 4934 2840 
Q 4756 3084 4391 3084 
Q 3944 3084 3684 2787 
Q 3425 2491 3425 1978 
L 3425 0 
L 2847 0 
L 2847 2094 
Q 2847 2600 2669 2842 
Q 2491 3084 2119 3084 
Q 1678 3084 1418 2786 
Q 1159 2488 1159 1978 
L 1159 0 
L 581 0 
L 581 3500 
L 1159 3500 
L 1159 2956 
Q 1356 3278 1631 3431 
Q 1906 3584 2284 3584 
Q 2666 3584 2933 3390 
Q 3200 3197 3328 2828 
z
" transform="scale(0.015625)"/>
       <path id="DejaVuSans-41" d="M 2188 4044 
L 1331 1722 
L 3047 1722 
L 2188 4044 
z
M 1831 4666 
L 2547 4666 
L 4325 0 
L 3669 0 
L 3244 1197 
L 1141 1197 
L 716 0 
L 50 0 
L 1831 4666 
z
" transform="scale(0.015625)"/>
      </defs>
      <use xlink:href="#DejaVuSans-54"/>
      <use xlink:href="#DejaVuSans-72" x="46.333984"/>
      <use xlink:href="#DejaVuSans-61" x="87.447266"/>
      <use xlink:href="#DejaVuSans-6e" x="148.726562"/>
      <use xlink:href="#DejaVuSans-73" x="212.105469"/>
      <use xlink:href="#DejaVuSans-69" x="264.205078"/>
      <use xlink:href="#DejaVuSans-73" x="291.988281"/>
      <use xlink:href="#DejaVuSans-74" x="344.087891"/>
      <use xlink:href="#DejaVuSans-6f" x="383.296875"/>
      <use xlink:href="#DejaVuSans-72" x="444.478516"/>
      <use xlink:href="#DejaVuSans-20" x="485.591797"/>
      <use xlink:href="#DejaVuSans-20" x="517.378906"/>
      <use xlink:href="#DejaVuSans-63" x="549.166016"/>
      <use xlink:href="#DejaVuSans-6f" x="604.146484"/>
      <use xlink:href="#DejaVuSans-6c" x="665.328125"/>
      <use xlink:href="#DejaVuSans-6c" x="693.111328"/>
      <use xlink:href="#DejaVuSans-65" x="720.894531"/>
      <use xlink:href="#DejaVuSans-63" x="782.417969"/>
      <use xlink:href="#DejaVuSans-74" x="837.398438"/>
      <use xlink:href="#DejaVuSans-6f" x="876.607422"/>
      <use xlink:href="#DejaVuSans-72" x="937.789062"/>
      <use xlink:href="#DejaVuSans-20" x="978.902344"/>
      <use xlink:href="#DejaVuSans-63" x="1010.689453"/>
      <use xlink:href="#DejaVuSans-75" x="1065.669922"/>
      <use xlink:href="#DejaVuSans-72" x="1129.048828"/>
      <use xlink:href="#DejaVuSans-72" x="1168.412109"/>
      <use xlink:href="#DejaVuSans-65" x="1207.275391"/>
      <use xlink:href="#DejaVuSans-6e" x="1268.798828"/>
      <use xlink:href="#DejaVuSans-74" x="1332.177734"/>
      <use xlink:href="#DejaVuSans-20" x="1371.386719"/>
      <use xlink:href="#DejaVuSans-5b" x="1403.173828"/>
      <use xlink:href="#DejaVuSans-6d" x="1442.1875"/>
      <use xlink:href="#DejaVuSans-41" x="1539.599609"/>
      <use xlink:href="#DejaVuSans-5d" x="1608.007812"/>
     </g>
    </g>
   </g>
   <g id="line2d_85">
    <path d="M 46.965625 645.195889 
L 138.128621 645.093474 
L 139.954803 644.872101 
L 141.172258 644.517436 
L 142.186803 643.969794 
L 142.99844 643.270402 
L 143.810076 642.247427 
L 144.621712 640.816327 
L 145.433349 638.91121 
L 146.447894 635.818643 
L 147.46244 631.960294 
L 148.679894 626.44947 
L 150.303167 617.95045 
L 152.535167 604.878161 
L 156.18753 581.921516 
L 163.08644 538.552335 
L 166.941712 515.839908 
L 170.391167 496.876163 
L 173.434803 481.344677 
L 176.27553 467.937278 
L 178.913349 456.471858 
L 181.551167 445.985428 
L 183.986076 437.195841 
L 186.218076 429.903506 
L 188.450076 423.353326 
L 190.479167 418.049972 
L 192.508258 413.372698 
L 194.33444 409.702347 
L 196.160621 406.545823 
L 197.783894 404.173357 
L 199.407167 402.210214 
L 200.82753 400.829148 
L 202.247894 399.762968 
L 203.465349 399.100083 
L 204.682803 398.669103 
L 205.900258 398.470167 
L 207.117712 398.503338 
L 208.335167 398.768605 
L 209.552621 399.265884 
L 210.770076 399.995015 
L 212.19044 401.138386 
L 213.610803 402.596506 
L 215.031167 404.368727 
L 216.65444 406.777705 
L 218.277712 409.594455 
L 220.103894 413.248571 
L 221.930076 417.413723 
L 223.959167 422.63691 
L 225.988258 428.481404 
L 228.220258 435.620354 
L 230.452258 443.493468 
L 232.887167 452.905809 
L 235.524985 464.051559 
L 238.162803 476.156769 
L 241.00353 490.225751 
L 244.047167 506.425084 
L 247.496621 526.074915 
L 251.351894 549.418987 
L 257.033349 585.436407 
L 261.09153 610.625838 
L 263.120621 622.034308 
L 264.743894 629.965137 
L 265.961349 634.897351 
L 266.975894 638.192207 
L 267.99044 640.696819 
L 268.802076 642.159859 
L 269.613712 643.209238 
L 270.425349 643.928795 
L 271.439894 644.493672 
L 272.657349 644.860321 
L 274.280621 645.074885 
L 277.121349 645.176907 
L 288.07844 645.195881 
L 351.386076 645.195889 
L 351.386076 645.195889 
" clip-path="url(#p6191c0aa5e)" style="fill: none; stroke: #1f77b4; stroke-width: 1.5; stroke-linecap: square"/>
   </g>
   <g id="patch_15">
    <path d="M 46.965625 659.52 
L 46.965625 344.389565 
" style="fill: none; stroke: #000000; stroke-width: 0.8; stroke-linejoin: miter; stroke-linecap: square"/>
   </g>
   <g id="patch_16">
    <path d="M 351.329261 659.52 
L 351.329261 344.389565 
" style="fill: none; stroke: #000000; stroke-width: 0.8; stroke-linejoin: miter; stroke-linecap: square"/>
   </g>
   <g id="patch_17">
    <path d="M 46.965625 659.52 
L 351.329261 659.52 
" style="fill: none; stroke: #000000; stroke-width: 0.8; stroke-linejoin: miter; stroke-linecap: square"/>
   </g>
   <g id="patch_18">
    <path d="M 46.965625 344.389565 
L 351.329261 344.389565 
" style="fill: none; stroke: #000000; stroke-width: 0.8; stroke-linejoin: miter; stroke-linecap: square"/>
   </g>
  </g>
  <g id="axes_4">
   <g id="patch_19">
    <path d="M 412.201989 659.52 
L 716.565625 659.52 
L 716.565625 344.389565 
L 412.201989 344.389565 
z
" style="fill: #ffffff"/>
   </g>
   <g id="PolyCollection_6">
    <defs>
     <path id="m60e5b7c878" d="M 509.598352 -51.880361 
L 509.598352 -338.362574 
L 582.645625 -338.362574 
L 582.645625 -51.880361 
L 582.645625 -51.880361 
L 509.598352 -51.880361 
z
" style="stroke: #008000; stroke-opacity: 0.1"/>
    </defs>
    <g clip-path="url(#p95dd616d2a)">
     <use xlink:href="#m60e5b7c878" x="0" y="697.07625" style="fill: #008000; fill-opacity: 0.1; stroke: #008000; stroke-opacity: 0.1"/>
    </g>
   </g>
   <g id="PolyCollection_7">
    <defs>
     <path id="m48f51f7786" d="M 582.645625 -51.880361 
L 582.645625 -338.362574 
L 613.081989 -338.362574 
L 613.081989 -51.880361 
L 613.081989 -51.880361 
L 582.645625 -51.880361 
z
" style="stroke: #ff0000; stroke-opacity: 0.1"/>
    </defs>
    <g clip-path="url(#p95dd616d2a)">
     <use xlink:href="#m48f51f7786" x="0" y="697.07625" style="fill: #ff0000; fill-opacity: 0.1; stroke: #ff0000; stroke-opacity: 0.1"/>
    </g>
   </g>
   <g id="PolyCollection_8">
    <defs>
     <path id="mdaf710b7dd" d="M 613.081989 -51.880361 
L 613.081989 -338.362574 
L 643.518352 -338.362574 
L 643.518352 -51.880361 
L 643.518352 -51.880361 
L 613.081989 -51.880361 
z
" style="stroke: #008000; stroke-opacity: 0.1"/>
    </defs>
    <g clip-path="url(#p95dd616d2a)">
     <use xlink:href="#mdaf710b7dd" x="0" y="697.07625" style="fill: #008000; fill-opacity: 0.1; stroke: #008000; stroke-opacity: 0.1"/>
    </g>
   </g>
   <g id="matplotlib.axis_7">
    <g id="xtick_21">
     <g id="line2d_86">
      <path d="M 412.201989 659.52 
L 412.201989 344.389565 
" clip-path="url(#p95dd616d2a)" style="fill: none; stroke: #b0b0b0; stroke-width: 0.8; stroke-linecap: square"/>
     </g>
     <g id="line2d_87">
      <g>
       <use xlink:href="#m2b4522fb2a" x="412.201989" y="659.52" style="stroke: #000000; stroke-width: 0.8"/>
      </g>
     </g>
     <g id="text_46">
      <!-- 9.45 -->
      <g transform="translate(401.069176 674.118438)scale(0.1 -0.1)">
       <use xlink:href="#DejaVuSans-39"/>
       <use xlink:href="#DejaVuSans-2e" x="63.623047"/>
       <use xlink:href="#DejaVuSans-34" x="95.410156"/>
       <use xlink:href="#DejaVuSans-35" x="159.033203"/>
      </g>
     </g>
    </g>
    <g id="xtick_22">
     <g id="line2d_88">
      <path d="M 473.074716 659.52 
L 473.074716 344.389565 
" clip-path="url(#p95dd616d2a)" style="fill: none; stroke: #b0b0b0; stroke-width: 0.8; stroke-linecap: square"/>
     </g>
     <g id="line2d_89">
      <g>
       <use xlink:href="#m2b4522fb2a" x="473.074716" y="659.52" style="stroke: #000000; stroke-width: 0.8"/>
      </g>
     </g>
     <g id="text_47">
      <!-- 9.50 -->
      <g transform="translate(461.941903 674.118438)scale(0.1 -0.1)">
       <use xlink:href="#DejaVuSans-39"/>
       <use xlink:href="#DejaVuSans-2e" x="63.623047"/>
       <use xlink:href="#DejaVuSans-35" x="95.410156"/>
       <use xlink:href="#DejaVuSans-30" x="159.033203"/>
      </g>
     </g>
    </g>
    <g id="xtick_23">
     <g id="line2d_90">
      <path d="M 533.947443 659.52 
L 533.947443 344.389565 
" clip-path="url(#p95dd616d2a)" style="fill: none; stroke: #b0b0b0; stroke-width: 0.8; stroke-linecap: square"/>
     </g>
     <g id="line2d_91">
      <g>
       <use xlink:href="#m2b4522fb2a" x="533.947443" y="659.52" style="stroke: #000000; stroke-width: 0.8"/>
      </g>
     </g>
     <g id="text_48">
      <!-- 9.55 -->
      <g transform="translate(522.814631 674.118438)scale(0.1 -0.1)">
       <use xlink:href="#DejaVuSans-39"/>
       <use xlink:href="#DejaVuSans-2e" x="63.623047"/>
       <use xlink:href="#DejaVuSans-35" x="95.410156"/>
       <use xlink:href="#DejaVuSans-35" x="159.033203"/>
      </g>
     </g>
    </g>
    <g id="xtick_24">
     <g id="line2d_92">
      <path d="M 594.82017 659.52 
L 594.82017 344.389565 
" clip-path="url(#p95dd616d2a)" style="fill: none; stroke: #b0b0b0; stroke-width: 0.8; stroke-linecap: square"/>
     </g>
     <g id="line2d_93">
      <g>
       <use xlink:href="#m2b4522fb2a" x="594.82017" y="659.52" style="stroke: #000000; stroke-width: 0.8"/>
      </g>
     </g>
     <g id="text_49">
      <!-- 9.60 -->
      <g transform="translate(583.687358 674.118438)scale(0.1 -0.1)">
       <use xlink:href="#DejaVuSans-39"/>
       <use xlink:href="#DejaVuSans-2e" x="63.623047"/>
       <use xlink:href="#DejaVuSans-36" x="95.410156"/>
       <use xlink:href="#DejaVuSans-30" x="159.033203"/>
      </g>
     </g>
    </g>
    <g id="xtick_25">
     <g id="line2d_94">
      <path d="M 655.692898 659.52 
L 655.692898 344.389565 
" clip-path="url(#p95dd616d2a)" style="fill: none; stroke: #b0b0b0; stroke-width: 0.8; stroke-linecap: square"/>
     </g>
     <g id="line2d_95">
      <g>
       <use xlink:href="#m2b4522fb2a" x="655.692898" y="659.52" style="stroke: #000000; stroke-width: 0.8"/>
      </g>
     </g>
     <g id="text_50">
      <!-- 9.65 -->
      <g transform="translate(644.560085 674.118438)scale(0.1 -0.1)">
       <use xlink:href="#DejaVuSans-39"/>
       <use xlink:href="#DejaVuSans-2e" x="63.623047"/>
       <use xlink:href="#DejaVuSans-36" x="95.410156"/>
       <use xlink:href="#DejaVuSans-35" x="159.033203"/>
      </g>
     </g>
    </g>
    <g id="xtick_26">
     <g id="line2d_96">
      <path d="M 716.565625 659.52 
L 716.565625 344.389565 
" clip-path="url(#p95dd616d2a)" style="fill: none; stroke: #b0b0b0; stroke-width: 0.8; stroke-linecap: square"/>
     </g>
     <g id="line2d_97">
      <g>
       <use xlink:href="#m2b4522fb2a" x="716.565625" y="659.52" style="stroke: #000000; stroke-width: 0.8"/>
      </g>
     </g>
     <g id="text_51">
      <!-- 9.70 -->
      <g transform="translate(705.432813 674.118438)scale(0.1 -0.1)">
       <use xlink:href="#DejaVuSans-39"/>
       <use xlink:href="#DejaVuSans-2e" x="63.623047"/>
       <use xlink:href="#DejaVuSans-37" x="95.410156"/>
       <use xlink:href="#DejaVuSans-30" x="159.033203"/>
      </g>
     </g>
    </g>
    <g id="text_52">
     <!-- tijd [us] -->
     <g transform="translate(545.207244 687.796562)scale(0.1 -0.1)">
      <use xlink:href="#DejaVuSans-74"/>
      <use xlink:href="#DejaVuSans-69" x="39.208984"/>
      <use xlink:href="#DejaVuSans-6a" x="66.992188"/>
      <use xlink:href="#DejaVuSans-64" x="94.775391"/>
      <use xlink:href="#DejaVuSans-20" x="158.251953"/>
      <use xlink:href="#DejaVuSans-5b" x="190.039062"/>
      <use xlink:href="#DejaVuSans-75" x="229.052734"/>
      <use xlink:href="#DejaVuSans-73" x="292.431641"/>
      <use xlink:href="#DejaVuSans-5d" x="344.53125"/>
     </g>
    </g>
   </g>
   <g id="matplotlib.axis_8">
    <g id="ytick_18">
     <g id="line2d_98">
      <path d="M 412.201989 645.195889 
L 716.565625 645.195889 
" clip-path="url(#p95dd616d2a)" style="fill: none; stroke: #b0b0b0; stroke-width: 0.8; stroke-linecap: square"/>
     </g>
     <g id="line2d_99">
      <g>
       <use xlink:href="#m2e897bc64e" x="412.201989" y="645.195889" style="stroke: #000000; stroke-width: 0.8"/>
      </g>
     </g>
     <g id="text_53">
      <!-- 0 -->
      <g transform="translate(398.839489 648.995108)scale(0.1 -0.1)">
       <use xlink:href="#DejaVuSans-30"/>
      </g>
     </g>
    </g>
    <g id="ytick_19">
     <g id="line2d_100">
      <path d="M 412.201989 581.533175 
L 716.565625 581.533175 
" clip-path="url(#p95dd616d2a)" style="fill: none; stroke: #b0b0b0; stroke-width: 0.8; stroke-linecap: square"/>
     </g>
     <g id="line2d_101">
      <g>
       <use xlink:href="#m2e897bc64e" x="412.201989" y="581.533175" style="stroke: #000000; stroke-width: 0.8"/>
      </g>
     </g>
     <g id="text_54">
      <!-- 200 -->
      <g transform="translate(386.114489 585.332394)scale(0.1 -0.1)">
       <use xlink:href="#DejaVuSans-32"/>
       <use xlink:href="#DejaVuSans-30" x="63.623047"/>
       <use xlink:href="#DejaVuSans-30" x="127.246094"/>
      </g>
     </g>
    </g>
    <g id="ytick_20">
     <g id="line2d_102">
      <path d="M 412.201989 517.870461 
L 716.565625 517.870461 
" clip-path="url(#p95dd616d2a)" style="fill: none; stroke: #b0b0b0; stroke-width: 0.8; stroke-linecap: square"/>
     </g>
     <g id="line2d_103">
      <g>
       <use xlink:href="#m2e897bc64e" x="412.201989" y="517.870461" style="stroke: #000000; stroke-width: 0.8"/>
      </g>
     </g>
     <g id="text_55">
      <!-- 400 -->
      <g transform="translate(386.114489 521.66968)scale(0.1 -0.1)">
       <use xlink:href="#DejaVuSans-34"/>
       <use xlink:href="#DejaVuSans-30" x="63.623047"/>
       <use xlink:href="#DejaVuSans-30" x="127.246094"/>
      </g>
     </g>
    </g>
    <g id="ytick_21">
     <g id="line2d_104">
      <path d="M 412.201989 454.207747 
L 716.565625 454.207747 
" clip-path="url(#p95dd616d2a)" style="fill: none; stroke: #b0b0b0; stroke-width: 0.8; stroke-linecap: square"/>
     </g>
     <g id="line2d_105">
      <g>
       <use xlink:href="#m2e897bc64e" x="412.201989" y="454.207747" style="stroke: #000000; stroke-width: 0.8"/>
      </g>
     </g>
     <g id="text_56">
      <!-- 600 -->
      <g transform="translate(386.114489 458.006966)scale(0.1 -0.1)">
       <use xlink:href="#DejaVuSans-36"/>
       <use xlink:href="#DejaVuSans-30" x="63.623047"/>
       <use xlink:href="#DejaVuSans-30" x="127.246094"/>
      </g>
     </g>
    </g>
    <g id="ytick_22">
     <g id="line2d_106">
      <path d="M 412.201989 390.545033 
L 716.565625 390.545033 
" clip-path="url(#p95dd616d2a)" style="fill: none; stroke: #b0b0b0; stroke-width: 0.8; stroke-linecap: square"/>
     </g>
     <g id="line2d_107">
      <g>
       <use xlink:href="#m2e897bc64e" x="412.201989" y="390.545033" style="stroke: #000000; stroke-width: 0.8"/>
      </g>
     </g>
     <g id="text_57">
      <!-- 800 -->
      <g transform="translate(386.114489 394.344252)scale(0.1 -0.1)">
       <use xlink:href="#DejaVuSans-38"/>
       <use xlink:href="#DejaVuSans-30" x="63.623047"/>
       <use xlink:href="#DejaVuSans-30" x="127.246094"/>
      </g>
     </g>
    </g>
    <g id="text_58">
     <!-- Transistor  collector current [mA] -->
     <g transform="translate(380.034801 584.30322)rotate(-90)scale(0.1 -0.1)">
      <use xlink:href="#DejaVuSans-54"/>
      <use xlink:href="#DejaVuSans-72" x="46.333984"/>
      <use xlink:href="#DejaVuSans-61" x="87.447266"/>
      <use xlink:href="#DejaVuSans-6e" x="148.726562"/>
      <use xlink:href="#DejaVuSans-73" x="212.105469"/>
      <use xlink:href="#DejaVuSans-69" x="264.205078"/>
      <use xlink:href="#DejaVuSans-73" x="291.988281"/>
      <use xlink:href="#DejaVuSans-74" x="344.087891"/>
      <use xlink:href="#DejaVuSans-6f" x="383.296875"/>
      <use xlink:href="#DejaVuSans-72" x="444.478516"/>
      <use xlink:href="#DejaVuSans-20" x="485.591797"/>
      <use xlink:href="#DejaVuSans-20" x="517.378906"/>
      <use xlink:href="#DejaVuSans-63" x="549.166016"/>
      <use xlink:href="#DejaVuSans-6f" x="604.146484"/>
      <use xlink:href="#DejaVuSans-6c" x="665.328125"/>
      <use xlink:href="#DejaVuSans-6c" x="693.111328"/>
      <use xlink:href="#DejaVuSans-65" x="720.894531"/>
      <use xlink:href="#DejaVuSans-63" x="782.417969"/>
      <use xlink:href="#DejaVuSans-74" x="837.398438"/>
      <use xlink:href="#DejaVuSans-6f" x="876.607422"/>
      <use xlink:href="#DejaVuSans-72" x="937.789062"/>
      <use xlink:href="#DejaVuSans-20" x="978.902344"/>
      <use xlink:href="#DejaVuSans-63" x="1010.689453"/>
      <use xlink:href="#DejaVuSans-75" x="1065.669922"/>
      <use xlink:href="#DejaVuSans-72" x="1129.048828"/>
      <use xlink:href="#DejaVuSans-72" x="1168.412109"/>
      <use xlink:href="#DejaVuSans-65" x="1207.275391"/>
      <use xlink:href="#DejaVuSans-6e" x="1268.798828"/>
      <use xlink:href="#DejaVuSans-74" x="1332.177734"/>
      <use xlink:href="#DejaVuSans-20" x="1371.386719"/>
      <use xlink:href="#DejaVuSans-5b" x="1403.173828"/>
      <use xlink:href="#DejaVuSans-6d" x="1442.1875"/>
      <use xlink:href="#DejaVuSans-41" x="1539.599609"/>
      <use xlink:href="#DejaVuSans-5d" x="1608.007812"/>
     </g>
    </g>
   </g>
   <g id="line2d_108">
    <path d="M 412.026675 645.195889 
L 491.161221 645.098079 
L 493.352639 644.886153 
L 494.813584 644.545848 
L 496.031039 644.018948 
L 497.005002 643.343946 
L 497.978966 642.353094 
L 498.95293 640.961113 
L 499.926893 639.099729 
L 500.900857 636.733808 
L 502.118312 633.075998 
L 503.335766 628.713883 
L 505.040202 621.646555 
L 507.231621 611.389639 
L 510.153512 596.531126 
L 524.032493 524.454641 
L 527.928348 506.02169 
L 531.580712 489.849477 
L 534.989584 475.807528 
L 538.154966 463.728557 
L 541.076857 453.430427 
L 543.998748 443.972815 
L 546.677148 436.057424 
L 549.112057 429.497877 
L 551.546966 423.552157 
L 553.738384 418.731229 
L 555.929802 414.416872 
L 558.121221 410.612615 
L 560.069148 407.661736 
L 562.017075 405.118095 
L 563.721512 403.227677 
L 565.425948 401.651076 
L 567.130384 400.388998 
L 568.59133 399.557978 
L 570.052275 398.958716 
L 571.513221 398.591404 
L 572.974166 398.456161 
L 574.435112 398.553032 
L 575.896057 398.882011 
L 577.357002 399.443294 
L 578.817948 400.240072 
L 580.278893 401.306675 
L 581.252857 402.285542 
L 581.98333 403.399668 
L 582.470312 404.578241 
L 582.957293 406.475839 
L 583.444275 409.69201 
L 583.931257 415.159243 
L 584.418239 423.990243 
L 584.905221 436.825845 
L 587.096639 504.202905 
L 587.827112 516.252374 
L 588.314093 521.50907 
L 588.801075 525.125338 
L 589.288057 527.504736 
L 589.775039 528.958915 
L 590.262021 529.72276 
L 590.749002 529.971741 
L 591.235984 529.836698 
L 591.722966 529.415285 
L 592.453439 528.400841 
L 593.427402 526.586867 
L 594.888348 523.346382 
L 603.654021 503.00331 
L 605.601948 499.304666 
L 607.062893 496.947658 
L 608.280348 495.348499 
L 609.254312 494.369456 
L 610.228275 493.714114 
L 610.958748 493.47055 
L 611.689221 493.468957 
L 612.419693 493.735981 
L 613.150166 494.296621 
L 613.880639 495.172039 
L 614.611112 496.37707 
L 615.585075 498.505489 
L 616.559039 501.214134 
L 617.776493 505.336924 
L 619.237439 511.155161 
L 621.185366 519.897761 
L 624.350748 535.320833 
L 628.733584 557.856175 
L 639.934166 616.085931 
L 641.882093 624.802873 
L 643.58653 631.416529 
L 644.803984 635.367163 
L 646.021439 638.560533 
L 646.995402 640.54528 
L 647.969366 642.048373 
L 648.94333 643.131086 
L 649.917293 643.876251 
L 650.891257 644.369863 
L 652.108712 644.746131 
L 653.813148 645.009567 
L 656.491548 645.151485 
L 663.065802 645.194796 
L 716.633802 645.195889 
L 716.633802 645.195889 
" clip-path="url(#p95dd616d2a)" style="fill: none; stroke: #1f77b4; stroke-width: 1.5; stroke-linecap: square"/>
   </g>
   <g id="patch_20">
    <path d="M 412.201989 659.52 
L 412.201989 344.389565 
" style="fill: none; stroke: #000000; stroke-width: 0.8; stroke-linejoin: miter; stroke-linecap: square"/>
   </g>
   <g id="patch_21">
    <path d="M 716.565625 659.52 
L 716.565625 344.389565 
" style="fill: none; stroke: #000000; stroke-width: 0.8; stroke-linejoin: miter; stroke-linecap: square"/>
   </g>
   <g id="patch_22">
    <path d="M 412.201989 659.52 
L 716.565625 659.52 
" style="fill: none; stroke: #000000; stroke-width: 0.8; stroke-linejoin: miter; stroke-linecap: square"/>
   </g>
   <g id="patch_23">
    <path d="M 412.201989 344.389565 
L 716.565625 344.389565 
" style="fill: none; stroke: #000000; stroke-width: 0.8; stroke-linejoin: miter; stroke-linecap: square"/>
   </g>
  </g>
 </g>
 <defs>
  <clipPath id="p48c78f39c3">
   <rect x="46.965625" y="7.2" width="304.363636" height="315.130435"/>
  </clipPath>
  <clipPath id="p38e9dcc576">
   <rect x="412.201989" y="7.2" width="304.363636" height="315.130435"/>
  </clipPath>
  <clipPath id="p6191c0aa5e">
   <rect x="46.965625" y="344.389565" width="304.363636" height="315.130435"/>
  </clipPath>
  <clipPath id="p95dd616d2a">
   <rect x="412.201989" y="344.389565" width="304.363636" height="315.130435"/>
  </clipPath>
 </defs>
</svg>