<?xml version="1.0" encoding="utf-8" standalone="no"?>
<!DOCTYPE svg PUBLIC "-//W3C//DTD SVG 1.1//EN"
  "http://www.w3.org/Graphics/SVG/1.1/DTD/svg11.dtd">
<svg xmlns:xlink="http://www.w3.org/1999/xlink" width="267.6762pt" height="312.682pt" viewBox="0 0 267.6762 312.682" xmlns="http://www.w3.org/2000/svg" version="1.1">
 <metadata>
  <rdf:RDF xmlns:dc="http://purl.org/dc/elements/1.1/" xmlns:cc="http://creativecommons.org/ns#" xmlns:rdf="http://www.w3.org/1999/02/22-rdf-syntax-ns#">
   <cc:Work>
    <dc:type rdf:resource="http://purl.org/dc/dcmitype/StillImage"/>
    <dc:date>2022-11-04T22:29:11.172173</dc:date>
    <dc:format>image/svg+xml</dc:format>
    <dc:creator>
     <cc:Agent>
      <dc:title>Matplotlib v3.5.3, https://matplotlib.org/</dc:title>
     </cc:Agent>
    </dc:creator>
   </cc:Work>
  </rdf:RDF>
 </metadata>
 <defs>
  <style type="text/css">*{stroke-linejoin: round; stroke-linecap: butt}</style>
 </defs>
 <g id="figure_1">
  <g id="patch_1">
   <path d="M 0 312.682 
L 267.6762 312.682 
L 267.6762 0 
L 0 0 
L 0 312.682 
z
" style="fill: none"/>
  </g>
  <g id="axes_1">
   <g id="patch_2">
    <path d="M 45.6234 244.588 
C 47.652204 244.588 49.598186 243.781948 51.032767 242.347367 
C 52.467348 240.912786 53.2734 238.966804 53.2734 236.938 
C 53.2734 234.909196 52.467348 232.963214 51.032767 231.528633 
C 49.598186 230.094052 47.652204 229.288 45.6234 229.288 
C 43.594596 229.288 41.648614 230.094052 40.214033 231.528633 
C 38.779452 232.963214 37.9734 234.909196 37.9734 236.938 
C 37.9734 238.966804 38.779452 240.912786 40.214033 242.347367 
C 41.648614 243.781948 43.594596 244.588 45.6234 244.588 
L 45.6234 244.588 
z
" clip-path="url(#p00ad394ae9)" style="fill: none; stroke: #000000; stroke-width: 2; stroke-linejoin: miter"/>
   </g>
   <g id="line2d_1">
    <path d="M 137.4234 191.038 
L 148.6434 191.038 
" clip-path="url(#p00ad394ae9)" style="fill: none; stroke: #000000; stroke-width: 2; stroke-linecap: round"/>
   </g>
   <g id="line2d_2">
    <path d="M 148.6434 179.818 
L 148.6434 202.258 
" clip-path="url(#p00ad394ae9)" style="fill: none; stroke: #000000; stroke-width: 2; stroke-linecap: round"/>
   </g>
   <g id="line2d_3">
    <path d="M 148.6434 185.428 
L 160.4244 175.33 
L 160.4244 169.72 
" clip-path="url(#p00ad394ae9)" style="fill: none; stroke: #000000; stroke-width: 2; stroke-linecap: round"/>
   </g>
   <g id="line2d_4">
    <path d="M 148.6434 196.648 
L 160.4244 206.746 
L 160.4244 212.356 
" clip-path="url(#p00ad394ae9)" style="fill: none; stroke: #000000; stroke-width: 2; stroke-linecap: round"/>
   </g>
   <g id="line2d_5">
    <path d="M 148.6434 196.648 
L 154.616087 201.767446 
" clip-path="url(#p00ad394ae9)" style="fill: none; stroke: #000000; stroke-width: 2; stroke-linecap: round"/>
   </g>
   <g id="patch_3">
    <path d="M 156.607509 199.444121 
L 160.4244 206.746 
L 152.624665 204.090771 
z
" clip-path="url(#p00ad394ae9)"/>
   </g>
   <g id="line2d_6">
    <path d="M 137.4234 191.038 
L 106.8234 191.038 
L 104.2734 198.688 
L 99.1734 183.388 
L 94.0734 198.688 
L 88.9734 183.388 
L 83.8734 198.688 
L 78.7734 183.388 
L 76.2234 191.038 
L 45.6234 191.038 
" clip-path="url(#p00ad394ae9)" style="fill: none; stroke: #000000; stroke-width: 2; stroke-linecap: round"/>
   </g>
   <g id="line2d_7">
    <path d="M 45.6234 191.038 
L 45.6234 229.288 
L 45.6234 229.288 
M 45.6234 244.588 
L 45.6234 244.588 
L 45.6234 282.838 
" clip-path="url(#p00ad394ae9)" style="fill: none; stroke: #000000; stroke-width: 2; stroke-linecap: round"/>
   </g>
   <g id="line2d_8">
    <path d="M 44.0934 233.113 
L 47.1534 233.113 
" clip-path="url(#p00ad394ae9)" style="fill: none; stroke: #000000; stroke-width: 2; stroke-linecap: round"/>
   </g>
   <g id="line2d_9">
    <path d="M 45.6234 239.233 
L 45.6234 242.293 
" clip-path="url(#p00ad394ae9)" style="fill: none; stroke: #000000; stroke-width: 2; stroke-linecap: round"/>
   </g>
   <g id="line2d_10">
    <path d="M 44.0934 240.763 
L 47.1534 240.763 
" clip-path="url(#p00ad394ae9)" style="fill: none; stroke: #000000; stroke-width: 2; stroke-linecap: round"/>
   </g>
   <g id="line2d_11">
    <path d="M 45.6234 282.838 
L 103.0239 282.838 
L 160.4244 282.838 
" clip-path="url(#p00ad394ae9)" style="fill: none; stroke: #000000; stroke-width: 2; stroke-linecap: round"/>
   </g>
   <g id="line2d_12">
    <path d="M 160.4244 282.838 
L 160.4244 295.078 
L 152.7744 295.078 
L 168.0744 295.078 
M 155.0694 298.75 
L 165.7794 298.75 
M 158.8944 302.422 
L 161.9544 302.422 
" clip-path="url(#p00ad394ae9)" style="fill: none; stroke: #000000; stroke-width: 2; stroke-linecap: round"/>
   </g>
   <g id="line2d_13">
    <path d="M 160.4244 282.838 
L 160.4244 247.597 
L 160.4244 212.356 
" clip-path="url(#p00ad394ae9)" style="fill: none; stroke: #000000; stroke-width: 2; stroke-linecap: round"/>
   </g>
   <g id="line2d_14">
    <path d="M 160.4244 169.72 
L 160.4244 158.245 
L 160.4244 146.77 
" clip-path="url(#p00ad394ae9)" style="fill: none; stroke: #000000; stroke-width: 2; stroke-linecap: round"/>
   </g>
   <g id="line2d_15">
    <path d="M 160.4244 146.77 
L 160.4244 103.624 
M 152.7744 103.624 
L 168.0744 103.624 
M 152.7744 98.116 
L 168.0744 98.116 
M 160.4244 98.116 
L 160.4244 54.97 
" clip-path="url(#p00ad394ae9)" style="fill: none; stroke: #000000; stroke-width: 2; stroke-linecap: round"/>
   </g>
   <g id="line2d_16">
    <path d="M 160.4244 146.77 
L 141.2994 146.77 
L 122.1744 146.77 
" clip-path="url(#p00ad394ae9)" style="fill: none; stroke: #000000; stroke-width: 2; stroke-linecap: round"/>
   </g>
   <g id="line2d_17">
    <path d="M 122.1744 146.77 
L 122.1744 116.17 
L 119.654841 116.056041 
L 117.112559 115.709504 
L 114.760771 115.138099 
L 112.796717 114.368393 
L 111.38512 113.443585 
L 110.925601 112.940198 
L 110.644368 112.419883 
L 110.547348 111.890924 
L 110.636587 111.361788 
L 110.910203 110.840943 
L 111.36243 110.336686 
L 111.983734 109.85696 
L 113.677906 109.000145 
L 115.85063 108.321003 
L 118.319684 107.855138 
L 120.877992 107.620266 
L 123.310992 107.61473 
L 125.414633 107.81764 
L 127.012486 108.190624 
L 127.970541 108.681044 
L 128.18222 108.951011 
L 128.208447 109.226415 
L 128.048668 109.498767 
L 127.706251 109.759643 
L 126.506073 110.214652 
L 124.708568 110.531925 
L 122.464492 110.663499 
L 119.962051 110.576984 
L 117.411121 110.258281 
L 115.025645 109.712764 
L 113.005689 108.96483 
L 111.520663 108.055852 
L 111.019738 107.557713 
L 110.695115 107.040709 
L 110.553636 106.513054 
L 110.598282 105.983186 
L 110.828113 105.45959 
L 111.238285 104.950619 
L 111.820152 104.464319 
L 113.44655 103.589358 
L 115.570904 102.886733 
L 118.015049 102.394018 
L 120.573996 102.131181 
L 123.033132 102.09891 
L 125.186212 102.278558 
L 126.852661 102.633703 
L 127.892716 103.113204 
L 128.148302 103.380618 
L 128.21915 103.655491 
L 128.103767 103.929347 
L 127.804584 104.193729 
L 126.683789 104.661421 
L 124.950762 104.997988 
L 122.750851 105.153848 
L 120.268559 105.094574 
L 117.712072 104.803782 
L 115.295798 104.284506 
L 113.222387 103.558941 
L 111.665732 102.666585 
L 111.124009 102.174144 
L 110.756388 101.660923 
L 110.570621 101.135056 
L 110.570621 100.604944 
L 110.756388 100.079077 
L 111.124009 99.565856 
L 111.665732 99.073415 
L 113.222387 98.181059 
L 115.295798 97.455494 
L 117.712072 96.936218 
L 120.268559 96.645426 
L 122.750851 96.586152 
L 124.950762 96.742012 
L 126.683789 97.078579 
L 127.804584 97.546271 
L 128.103767 97.810653 
L 128.21915 98.084509 
L 128.148302 98.359382 
L 127.892716 98.626796 
L 126.852661 99.106297 
L 125.186212 99.461442 
L 123.033132 99.64109 
L 120.573996 99.608819 
L 118.015049 99.345982 
L 115.570904 98.853267 
L 113.44655 98.150642 
L 111.820152 97.275681 
L 111.238285 96.789381 
L 110.828113 96.28041 
L 110.598282 95.756814 
L 110.553636 95.226946 
L 110.695115 94.699291 
L 111.019738 94.182287 
L 111.520663 93.684148 
L 112.187331 93.212691 
L 113.958488 92.378123 
L 116.184666 91.727221 
L 118.679158 91.29322 
L 121.232756 91.091166 
L 123.631294 91.116647 
L 125.673608 91.346174 
L 127.188414 91.73914 
L 128.048668 92.241233 
L 128.208447 92.513585 
L 128.18222 92.788989 
L 127.970541 93.058956 
L 127.57787 93.315113 
L 126.286305 93.754125 
L 124.415845 94.047851 
L 122.123364 94.150302 
L 119.601127 94.031529 
L 117.060672 93.680141 
L 114.715062 93.104251 
L 112.761021 92.330805 
L 111.36243 91.403314 
L 110.910203 90.899057 
L 110.636587 90.378212 
L 110.547348 89.849076 
L 110.644368 89.320117 
L 110.925601 88.799802 
L 111.38512 88.296415 
L 112.013238 87.817882 
L 113.719041 86.964313 
L 115.899947 86.289327 
L 118.373047 85.828179 
L 120.930925 85.598191 
L 122.1744 85.57 
L 122.1744 54.97 
L 122.1744 54.97 
" clip-path="url(#p00ad394ae9)" style="fill: none; stroke: #000000; stroke-width: 2; stroke-linecap: round"/>
   </g>
   <g id="line2d_18">
    <path d="M 160.4244 146.77 
L 179.5494 146.77 
L 198.6744 146.77 
" clip-path="url(#p00ad394ae9)" style="fill: none; stroke: #000000; stroke-width: 2; stroke-linecap: round"/>
   </g>
   <g id="line2d_19">
    <path d="M 198.6744 146.77 
L 198.6744 116.17 
L 191.0244 113.62 
L 206.3244 108.52 
L 191.0244 103.42 
L 206.3244 98.32 
L 191.0244 93.22 
L 206.3244 88.12 
L 198.6744 85.57 
L 198.6744 54.97 
" clip-path="url(#p00ad394ae9)" style="fill: none; stroke: #000000; stroke-width: 2; stroke-linecap: round"/>
   </g>
   <g id="line2d_20">
    <path d="M 198.6744 146.77 
L 206.3244 146.77 
L 213.9744 146.77 
" clip-path="url(#p00ad394ae9)" style="fill: none; stroke: #000000; stroke-width: 2; stroke-linecap: round"/>
   </g>
   <g id="line2d_21">
    <path d="M 198.6744 54.97 
L 179.5494 54.97 
L 160.4244 54.97 
" clip-path="url(#p00ad394ae9)" style="fill: none; stroke: #000000; stroke-width: 2; stroke-linecap: round"/>
   </g>
   <g id="line2d_22">
    <path d="M 122.1744 54.97 
L 141.2994 54.97 
L 160.4244 54.97 
" clip-path="url(#p00ad394ae9)" style="fill: none; stroke: #000000; stroke-width: 2; stroke-linecap: round"/>
   </g>
   <g id="line2d_23">
    <path d="M 160.4244 54.97 
L 160.4244 51.145 
L 160.4244 47.32 
" clip-path="url(#p00ad394ae9)" style="fill: none; stroke: #000000; stroke-width: 2; stroke-linecap: round"/>
   </g>
   <g id="line2d_24">
    <path d="M 160.4244 47.32 
L 160.4244 35.08 
" clip-path="url(#p00ad394ae9)" style="fill: none; stroke: #000000; stroke-width: 2; stroke-linecap: round"/>
   </g>
   <g id="line2d_25">
    <path d="M 160.4244 35.08 
L 154.6869 35.08 
" clip-path="url(#p00ad394ae9)" style="fill: none; stroke: #000000; stroke-width: 2; stroke-linecap: round"/>
   </g>
   <g id="line2d_26">
    <path d="M 160.4244 35.08 
L 166.1619 35.08 
" clip-path="url(#p00ad394ae9)" style="fill: none; stroke: #000000; stroke-width: 2; stroke-linecap: round"/>
   </g>
   <g id="text_1">
    <g clip-path="url(#p00ad394ae9)">
     <!-- $R_{in}$ -->
     <g transform="translate(82.9609 177.728391)scale(0.125 -0.125)">
      <defs>
       <path id="DejaVuSans-Oblique-52" d="M 1613 4147 
L 1294 2491 
L 2106 2491 
Q 2584 2491 2879 2755 
Q 3175 3019 3175 3444 
Q 3175 3784 2976 3965 
Q 2778 4147 2406 4147 
L 1613 4147 
z
M 2772 2241 
Q 2972 2194 3105 2009 
Q 3238 1825 3413 1275 
L 3809 0 
L 3144 0 
L 2778 1197 
Q 2638 1659 2453 1815 
Q 2269 1972 1888 1972 
L 1191 1972 
L 806 0 
L 172 0 
L 1081 4666 
L 2503 4666 
Q 3150 4666 3495 4373 
Q 3841 4081 3841 3531 
Q 3841 3044 3547 2687 
Q 3253 2331 2772 2241 
z
" transform="scale(0.015625)"/>
       <path id="DejaVuSans-Oblique-69" d="M 1172 4863 
L 1747 4863 
L 1606 4134 
L 1031 4134 
L 1172 4863 
z
M 909 3500 
L 1484 3500 
L 800 0 
L 225 0 
L 909 3500 
z
" transform="scale(0.015625)"/>
       <path id="DejaVuSans-Oblique-6e" d="M 3566 2113 
L 3156 0 
L 2578 0 
L 2988 2091 
Q 3016 2238 3031 2350 
Q 3047 2463 3047 2528 
Q 3047 2791 2881 2937 
Q 2716 3084 2419 3084 
Q 1956 3084 1622 2776 
Q 1288 2469 1184 1941 
L 800 0 
L 225 0 
L 903 3500 
L 1478 3500 
L 1363 2950 
Q 1603 3253 1940 3418 
Q 2278 3584 2650 3584 
Q 3113 3584 3367 3334 
Q 3622 3084 3622 2631 
Q 3622 2519 3608 2391 
Q 3594 2263 3566 2113 
z
" transform="scale(0.015625)"/>
      </defs>
      <use xlink:href="#DejaVuSans-Oblique-52" transform="translate(0 0.09375)"/>
      <use xlink:href="#DejaVuSans-Oblique-69" transform="translate(69.482422 -16.3125)scale(0.7)"/>
      <use xlink:href="#DejaVuSans-Oblique-6e" transform="translate(88.930664 -16.3125)scale(0.7)"/>
     </g>
    </g>
   </g>
   <g id="text_2">
    <g clip-path="url(#p00ad394ae9)">
     <!-- $V_{in}$ -->
     <g transform="translate(19.5684 240.387219)scale(0.125 -0.125)">
      <defs>
       <path id="DejaVuSans-Oblique-56" d="M 1319 0 
L 500 4666 
L 1119 4666 
L 1797 653 
L 4063 4666 
L 4750 4666 
L 2053 0 
L 1319 0 
z
" transform="scale(0.015625)"/>
      </defs>
      <use xlink:href="#DejaVuSans-Oblique-56" transform="translate(0 0.09375)"/>
      <use xlink:href="#DejaVuSans-Oblique-69" transform="translate(68.408203 -16.3125)scale(0.7)"/>
      <use xlink:href="#DejaVuSans-Oblique-6e" transform="translate(87.856445 -16.3125)scale(0.7)"/>
     </g>
    </g>
   </g>
   <g id="text_3">
    <g clip-path="url(#p00ad394ae9)">
     <!-- $C_1$ -->
     <g transform="translate(134.9644 104.319219)scale(0.125 -0.125)">
      <defs>
       <path id="DejaVuSans-Oblique-43" d="M 4447 4306 
L 4319 3641 
Q 4019 3944 3683 4091 
Q 3347 4238 2956 4238 
Q 2422 4238 2017 3981 
Q 1613 3725 1319 3200 
Q 1131 2863 1032 2486 
Q 934 2109 934 1728 
Q 934 1091 1264 756 
Q 1594 422 2222 422 
Q 2656 422 3056 561 
Q 3456 700 3834 978 
L 3688 231 
Q 3316 72 2936 -9 
Q 2556 -91 2175 -91 
Q 1278 -91 773 396 
Q 269 884 269 1753 
Q 269 2309 461 2846 
Q 653 3384 1013 3828 
Q 1394 4300 1883 4525 
Q 2372 4750 3022 4750 
Q 3422 4750 3780 4639 
Q 4138 4528 4447 4306 
z
" transform="scale(0.015625)"/>
       <path id="DejaVuSans-31" d="M 794 531 
L 1825 531 
L 1825 4091 
L 703 3866 
L 703 4441 
L 1819 4666 
L 2450 4666 
L 2450 531 
L 3481 531 
L 3481 0 
L 794 0 
L 794 531 
z
" transform="scale(0.015625)"/>
      </defs>
      <use xlink:href="#DejaVuSans-Oblique-43" transform="translate(0 0.78125)"/>
      <use xlink:href="#DejaVuSans-31" transform="translate(69.824219 -15.625)scale(0.7)"/>
     </g>
    </g>
   </g>
   <g id="text_4">
    <g clip-path="url(#p00ad394ae9)">
     <!-- $L_1$ -->
     <g transform="translate(94.612348 104.319219)scale(0.125 -0.125)">
      <defs>
       <path id="DejaVuSans-Oblique-4c" d="M 1075 4666 
L 1709 4666 
L 909 525 
L 3181 525 
L 3078 0 
L 172 0 
L 1075 4666 
z
" transform="scale(0.015625)"/>
      </defs>
      <use xlink:href="#DejaVuSans-Oblique-4c" transform="translate(0 0.09375)"/>
      <use xlink:href="#DejaVuSans-31" transform="translate(55.712891 -16.3125)scale(0.7)"/>
     </g>
    </g>
   </g>
   <g id="text_5">
    <g clip-path="url(#p00ad394ae9)">
     <!-- $R_L$ -->
     <g transform="translate(173.9644 104.319219)scale(0.125 -0.125)">
      <use xlink:href="#DejaVuSans-Oblique-52" transform="translate(0 0.09375)"/>
      <use xlink:href="#DejaVuSans-Oblique-4c" transform="translate(69.482422 -16.3125)scale(0.7)"/>
     </g>
    </g>
   </g>
   <g id="text_6">
    <g clip-path="url(#p00ad394ae9)">
     <!-- $V_{dd}$ -->
     <g transform="translate(150.3619 29.420391)scale(0.125 -0.125)">
      <defs>
       <path id="DejaVuSans-Oblique-64" d="M 2675 525 
Q 2444 222 2128 65 
Q 1813 -91 1428 -91 
Q 903 -91 598 267 
Q 294 625 294 1247 
Q 294 1766 478 2236 
Q 663 2706 1013 3078 
Q 1244 3325 1534 3454 
Q 1825 3584 2144 3584 
Q 2481 3584 2739 3421 
Q 2997 3259 3138 2956 
L 3513 4863 
L 4091 4863 
L 3144 0 
L 2566 0 
L 2675 525 
z
M 891 1350 
Q 891 897 1095 644 
Q 1300 391 1663 391 
Q 1931 391 2161 520 
Q 2391 650 2566 903 
Q 2750 1166 2856 1509 
Q 2963 1853 2963 2188 
Q 2963 2622 2758 2865 
Q 2553 3109 2194 3109 
Q 1922 3109 1687 2981 
Q 1453 2853 1288 2613 
Q 1106 2353 998 2009 
Q 891 1666 891 1350 
z
" transform="scale(0.015625)"/>
      </defs>
      <use xlink:href="#DejaVuSans-Oblique-56" transform="translate(0 0.09375)"/>
      <use xlink:href="#DejaVuSans-Oblique-64" transform="translate(68.408203 -16.3125)scale(0.7)"/>
      <use xlink:href="#DejaVuSans-Oblique-64" transform="translate(112.841797 -16.3125)scale(0.7)"/>
     </g>
    </g>
   </g>
   <g id="patch_4">
    <path d="M 137.4234 193.333 
C 138.032041 193.333 138.615836 193.091184 139.04621 192.66081 
C 139.476584 192.230436 139.7184 191.646641 139.7184 191.038 
C 139.7184 190.429359 139.476584 189.845564 139.04621 189.41519 
C 138.615836 188.984816 138.032041 188.743 137.4234 188.743 
C 136.814759 188.743 136.230964 188.984816 135.80059 189.41519 
C 135.370216 189.845564 135.1284 190.429359 135.1284 191.038 
C 135.1284 191.646641 135.370216 192.230436 135.80059 192.66081 
C 136.230964 193.091184 136.814759 193.333 137.4234 193.333 
z
" clip-path="url(#p00ad394ae9)" style="fill: #ff0000; stroke: #ff0000; stroke-width: 2; stroke-linejoin: miter"/>
   </g>
   <g id="text_7">
    <g clip-path="url(#p00ad394ae9)">
     <!-- 1 -->
     <g style="fill: #ff0000" transform="translate(129.470275 179.258391)scale(0.125 -0.125)">
      <use xlink:href="#DejaVuSans-31"/>
     </g>
    </g>
   </g>
   <g id="patch_5">
    <path d="M 45.6234 193.333 
C 46.232041 193.333 46.815836 193.091184 47.24621 192.66081 
C 47.676584 192.230436 47.9184 191.646641 47.9184 191.038 
C 47.9184 190.429359 47.676584 189.845564 47.24621 189.41519 
C 46.815836 188.984816 46.232041 188.743 45.6234 188.743 
C 45.014759 188.743 44.430964 188.984816 44.00059 189.41519 
C 43.570216 189.845564 43.3284 190.429359 43.3284 191.038 
C 43.3284 191.646641 43.570216 192.230436 44.00059 192.66081 
C 44.430964 193.091184 45.014759 193.333 45.6234 193.333 
z
" clip-path="url(#p00ad394ae9)" style="fill: #ff0000; stroke: #ff0000; stroke-width: 2; stroke-linejoin: miter"/>
   </g>
   <g id="text_8">
    <g clip-path="url(#p00ad394ae9)">
     <!-- 4 -->
     <g style="fill: #ff0000" transform="translate(34.610275 185.378391)scale(0.125 -0.125)">
      <defs>
       <path id="DejaVuSans-34" d="M 2419 4116 
L 825 1625 
L 2419 1625 
L 2419 4116 
z
M 2253 4666 
L 3047 4666 
L 3047 1625 
L 3713 1625 
L 3713 1100 
L 3047 1100 
L 3047 0 
L 2419 0 
L 2419 1100 
L 313 1100 
L 313 1709 
L 2253 4666 
z
" transform="scale(0.015625)"/>
      </defs>
      <use xlink:href="#DejaVuSans-34"/>
     </g>
    </g>
   </g>
   <g id="patch_6">
    <path d="M 160.4244 285.133 
C 161.033041 285.133 161.616836 284.891184 162.04721 284.46081 
C 162.477584 284.030436 162.7194 283.446641 162.7194 282.838 
C 162.7194 282.229359 162.477584 281.645564 162.04721 281.21519 
C 161.616836 280.784816 161.033041 280.543 160.4244 280.543 
C 159.815759 280.543 159.231964 280.784816 158.80159 281.21519 
C 158.371216 281.645564 158.1294 282.229359 158.1294 282.838 
C 158.1294 283.446641 158.371216 284.030436 158.80159 284.46081 
C 159.231964 284.891184 159.815759 285.133 160.4244 285.133 
z
" clip-path="url(#p00ad394ae9)" style="fill: #ff0000; stroke: #ff0000; stroke-width: 2; stroke-linejoin: miter"/>
   </g>
   <g id="text_9">
    <g clip-path="url(#p00ad394ae9)">
     <!-- 0 -->
     <g style="fill: #ff0000" transform="translate(164.711275 277.178391)scale(0.125 -0.125)">
      <defs>
       <path id="DejaVuSans-30" d="M 2034 4250 
Q 1547 4250 1301 3770 
Q 1056 3291 1056 2328 
Q 1056 1369 1301 889 
Q 1547 409 2034 409 
Q 2525 409 2770 889 
Q 3016 1369 3016 2328 
Q 3016 3291 2770 3770 
Q 2525 4250 2034 4250 
z
M 2034 4750 
Q 2819 4750 3233 4129 
Q 3647 3509 3647 2328 
Q 3647 1150 3233 529 
Q 2819 -91 2034 -91 
Q 1250 -91 836 529 
Q 422 1150 422 2328 
Q 422 3509 836 4129 
Q 1250 4750 2034 4750 
z
" transform="scale(0.015625)"/>
      </defs>
      <use xlink:href="#DejaVuSans-30"/>
     </g>
    </g>
   </g>
   <g id="patch_7">
    <path d="M 160.4244 149.065 
C 161.033041 149.065 161.616836 148.823184 162.04721 148.39281 
C 162.477584 147.962436 162.7194 147.378641 162.7194 146.77 
C 162.7194 146.161359 162.477584 145.577564 162.04721 145.14719 
C 161.616836 144.716816 161.033041 144.475 160.4244 144.475 
C 159.815759 144.475 159.231964 144.716816 158.80159 145.14719 
C 158.371216 145.577564 158.1294 146.161359 158.1294 146.77 
C 158.1294 147.378641 158.371216 147.962436 158.80159 148.39281 
C 159.231964 148.823184 159.815759 149.065 160.4244 149.065 
z
" clip-path="url(#p00ad394ae9)" style="fill: #ff0000; stroke: #ff0000; stroke-width: 2; stroke-linejoin: miter"/>
   </g>
   <g id="text_10">
    <g clip-path="url(#p00ad394ae9)">
     <!-- 2 -->
     <g style="fill: #ff0000" transform="translate(164.711275 165.590391)scale(0.125 -0.125)">
      <defs>
       <path id="DejaVuSans-32" d="M 1228 531 
L 3431 531 
L 3431 0 
L 469 0 
L 469 531 
Q 828 903 1448 1529 
Q 2069 2156 2228 2338 
Q 2531 2678 2651 2914 
Q 2772 3150 2772 3378 
Q 2772 3750 2511 3984 
Q 2250 4219 1831 4219 
Q 1534 4219 1204 4116 
Q 875 4013 500 3803 
L 500 4441 
Q 881 4594 1212 4672 
Q 1544 4750 1819 4750 
Q 2544 4750 2975 4387 
Q 3406 4025 3406 3419 
Q 3406 3131 3298 2873 
Q 3191 2616 2906 2266 
Q 2828 2175 2409 1742 
Q 1991 1309 1228 531 
z
" transform="scale(0.015625)"/>
      </defs>
      <use xlink:href="#DejaVuSans-32"/>
     </g>
    </g>
   </g>
   <g id="patch_8">
    <path d="M 213.9744 149.065 
C 214.583041 149.065 215.166836 148.823184 215.59721 148.39281 
C 216.027584 147.962436 216.2694 147.378641 216.2694 146.77 
C 216.2694 146.161359 216.027584 145.577564 215.59721 145.14719 
C 215.166836 144.716816 214.583041 144.475 213.9744 144.475 
C 213.365759 144.475 212.781964 144.716816 212.35159 145.14719 
C 211.921216 145.577564 211.6794 146.161359 211.6794 146.77 
C 211.6794 147.378641 211.921216 147.962436 212.35159 148.39281 
C 212.781964 148.823184 213.365759 149.065 213.9744 149.065 
z
" clip-path="url(#p00ad394ae9)" style="fill: #ffffff; stroke: #000000; stroke-width: 2; stroke-linejoin: miter"/>
   </g>
   <g id="text_11">
    <g clip-path="url(#p00ad394ae9)">
     <!-- $v_{out}$ -->
     <g transform="translate(219.3294 150.219219)scale(0.125 -0.125)">
      <defs>
       <path id="DejaVuSans-Oblique-76" d="M 459 3500 
L 1069 3500 
L 1581 525 
L 3256 3500 
L 3866 3500 
L 1875 0 
L 1100 0 
L 459 3500 
z
" transform="scale(0.015625)"/>
       <path id="DejaVuSans-Oblique-6f" d="M 1625 -91 
Q 1009 -91 651 289 
Q 294 669 294 1325 
Q 294 1706 417 2101 
Q 541 2497 738 2766 
Q 1047 3184 1428 3384 
Q 1809 3584 2291 3584 
Q 2888 3584 3255 3212 
Q 3622 2841 3622 2241 
Q 3622 1825 3500 1412 
Q 3378 1000 3181 728 
Q 2875 309 2494 109 
Q 2113 -91 1625 -91 
z
M 891 1344 
Q 891 869 1089 633 
Q 1288 397 1691 397 
Q 2269 397 2648 901 
Q 3028 1406 3028 2181 
Q 3028 2634 2825 2865 
Q 2622 3097 2228 3097 
Q 1903 3097 1650 2945 
Q 1397 2794 1197 2484 
Q 1050 2253 970 1956 
Q 891 1659 891 1344 
z
" transform="scale(0.015625)"/>
       <path id="DejaVuSans-Oblique-75" d="M 428 1388 
L 838 3500 
L 1416 3500 
L 1006 1409 
Q 975 1256 961 1147 
Q 947 1038 947 966 
Q 947 700 1109 554 
Q 1272 409 1569 409 
Q 2031 409 2368 721 
Q 2706 1034 2809 1563 
L 3194 3500 
L 3769 3500 
L 3091 0 
L 2516 0 
L 2631 550 
Q 2388 244 2052 76 
Q 1716 -91 1338 -91 
Q 878 -91 622 161 
Q 366 413 366 863 
Q 366 956 381 1097 
Q 397 1238 428 1388 
z
" transform="scale(0.015625)"/>
       <path id="DejaVuSans-Oblique-74" d="M 2706 3500 
L 2619 3053 
L 1472 3053 
L 1100 1153 
Q 1081 1047 1072 975 
Q 1063 903 1063 863 
Q 1063 663 1183 572 
Q 1303 481 1569 481 
L 2150 481 
L 2053 0 
L 1503 0 
Q 991 0 739 200 
Q 488 400 488 806 
Q 488 878 497 964 
Q 506 1050 525 1153 
L 897 3053 
L 409 3053 
L 500 3500 
L 978 3500 
L 1172 4494 
L 1747 4494 
L 1556 3500 
L 2706 3500 
z
" transform="scale(0.015625)"/>
      </defs>
      <use xlink:href="#DejaVuSans-Oblique-76" transform="translate(0 0.3125)"/>
      <use xlink:href="#DejaVuSans-Oblique-6f" transform="translate(59.179688 -16.09375)scale(0.7)"/>
      <use xlink:href="#DejaVuSans-Oblique-75" transform="translate(102.006836 -16.09375)scale(0.7)"/>
      <use xlink:href="#DejaVuSans-Oblique-74" transform="translate(146.37207 -16.09375)scale(0.7)"/>
     </g>
    </g>
   </g>
   <g id="patch_9">
    <path d="M 160.4244 57.265 
C 161.033041 57.265 161.616836 57.023184 162.04721 56.59281 
C 162.477584 56.162436 162.7194 55.578641 162.7194 54.97 
C 162.7194 54.361359 162.477584 53.777564 162.04721 53.34719 
C 161.616836 52.916816 161.033041 52.675 160.4244 52.675 
C 159.815759 52.675 159.231964 52.916816 158.80159 53.34719 
C 158.371216 53.777564 158.1294 54.361359 158.1294 54.97 
C 158.1294 55.578641 158.371216 56.162436 158.80159 56.59281 
C 159.231964 57.023184 159.815759 57.265 160.4244 57.265 
z
" clip-path="url(#p00ad394ae9)" style="fill: #ff0000; stroke: #ff0000; stroke-width: 2; stroke-linejoin: miter"/>
   </g>
   <g id="text_12">
    <g clip-path="url(#p00ad394ae9)">
     <!-- 3 -->
     <g style="fill: #ff0000" transform="translate(167.771275 73.790391)scale(0.125 -0.125)">
      <defs>
       <path id="DejaVuSans-33" d="M 2597 2516 
Q 3050 2419 3304 2112 
Q 3559 1806 3559 1356 
Q 3559 666 3084 287 
Q 2609 -91 1734 -91 
Q 1441 -91 1130 -33 
Q 819 25 488 141 
L 488 750 
Q 750 597 1062 519 
Q 1375 441 1716 441 
Q 2309 441 2620 675 
Q 2931 909 2931 1356 
Q 2931 1769 2642 2001 
Q 2353 2234 1838 2234 
L 1294 2234 
L 1294 2753 
L 1863 2753 
Q 2328 2753 2575 2939 
Q 2822 3125 2822 3475 
Q 2822 3834 2567 4026 
Q 2313 4219 1838 4219 
Q 1578 4219 1281 4162 
Q 984 4106 628 3988 
L 628 4550 
Q 988 4650 1302 4700 
Q 1616 4750 1894 4750 
Q 2613 4750 3031 4423 
Q 3450 4097 3450 3541 
Q 3450 3153 3228 2886 
Q 3006 2619 2597 2516 
z
" transform="scale(0.015625)"/>
      </defs>
      <use xlink:href="#DejaVuSans-33"/>
     </g>
    </g>
   </g>
  </g>
 </g>
 <defs>
  <clipPath id="p00ad394ae9">
   <rect x="7.2" y="7.2" width="253.2762" height="298.282"/>
  </clipPath>
 </defs>
</svg>