<?xml version="1.0" encoding="utf-8" standalone="no"?>
<!DOCTYPE svg PUBLIC "-//W3C//DTD SVG 1.1//EN"
  "http://www.w3.org/Graphics/SVG/1.1/DTD/svg11.dtd">
<svg xmlns:xlink="http://www.w3.org/1999/xlink" width="728.652pt" height="287.48pt" viewBox="0 0 728.652 287.48" xmlns="http://www.w3.org/2000/svg" version="1.1">
 <metadata>
  <rdf:RDF xmlns:dc="http://purl.org/dc/elements/1.1/" xmlns:cc="http://creativecommons.org/ns#" xmlns:rdf="http://www.w3.org/1999/02/22-rdf-syntax-ns#">
   <cc:Work>
    <dc:type rdf:resource="http://purl.org/dc/dcmitype/StillImage"/>
    <dc:date>2025-10-05T21:19:55.047289</dc:date>
    <dc:format>image/svg+xml</dc:format>
    <dc:creator>
     <cc:Agent>
      <dc:title>Matplotlib v3.10.6, https://matplotlib.org/</dc:title>
     </cc:Agent>
    </dc:creator>
   </cc:Work>
  </rdf:RDF>
 </metadata>
 <defs>
  <style type="text/css">*{stroke-linejoin: round; stroke-linecap: butt}</style>
 </defs>
 <g id="figure_1">
  <g id="patch_1">
   <path d="M 0 287.48 
L 728.652 287.48 
L 728.652 0 
L 0 0 
z
" style="fill: #ffffff"/>
  </g>
  <g id="axes_1">
   <g id="patch_2">
    <path d="M 39.084 241.76 
C 41.470828 241.76 43.760219 240.811703 45.447961 239.123961 
C 47.135703 237.436219 48.084 235.146828 48.084 232.76 
C 48.084 230.373172 47.135703 228.083781 45.447961 226.396039 
C 43.760219 224.708297 41.470828 223.76 39.084 223.76 
C 36.697172 223.76 34.407781 224.708297 32.720039 226.396039 
C 31.032297 228.083781 30.084 230.373172 30.084 232.76 
C 30.084 235.146828 31.032297 237.436219 32.720039 239.123961 
C 34.407781 240.811703 36.697172 241.76 39.084 241.76 
L 39.084 241.76 
z
" clip-path="url(#pb6976b3ba7)" style="fill: none; stroke: #000000; stroke-width: 2; stroke-linejoin: miter"/>
   </g>
   <g id="line2d_1">
    <path d="M 147.084 205.76 
L 160.284 205.76 
" clip-path="url(#pb6976b3ba7)" style="fill: none; stroke: #000000; stroke-width: 2; stroke-linecap: round"/>
   </g>
   <g id="line2d_2">
    <path d="M 160.284 192.56 
L 160.284 218.96 
" clip-path="url(#pb6976b3ba7)" style="fill: none; stroke: #000000; stroke-width: 2; stroke-linecap: round"/>
   </g>
   <g id="line2d_3">
    <path d="M 160.284 199.16 
L 174.144 187.28 
L 174.144 180.68 
" clip-path="url(#pb6976b3ba7)" style="fill: none; stroke: #000000; stroke-width: 2; stroke-linecap: round"/>
   </g>
   <g id="line2d_4">
    <path d="M 160.284 212.36 
L 174.144 224.24 
L 174.144 230.84 
" clip-path="url(#pb6976b3ba7)" style="fill: none; stroke: #000000; stroke-width: 2; stroke-linecap: round"/>
   </g>
   <g id="line2d_5">
    <path d="M 160.284 212.36 
L 167.310691 218.382878 
" clip-path="url(#pb6976b3ba7)" style="fill: none; stroke: #000000; stroke-width: 2; stroke-linecap: round"/>
   </g>
   <g id="patch_3">
    <path d="M 169.65354 215.649554 
L 174.144 224.24 
L 164.967842 221.116201 
z
" clip-path="url(#pb6976b3ba7)"/>
   </g>
   <g id="line2d_6">
    <path d="M 147.084 205.76 
L 111.084 205.76 
L 108.084 214.76 
L 102.084 196.76 
L 96.084 214.76 
L 90.084 196.76 
L 84.084 214.76 
L 78.084 196.76 
L 75.084 205.76 
L 39.084 205.76 
" clip-path="url(#pb6976b3ba7)" style="fill: none; stroke: #000000; stroke-width: 2; stroke-linecap: round"/>
   </g>
   <g id="line2d_7">
    <path d="M 39.084 205.76 
L 39.084 223.76 
L 39.084 223.76 
M 39.084 241.76 
L 39.084 241.76 
L 39.084 259.76 
" clip-path="url(#pb6976b3ba7)" style="fill: none; stroke: #000000; stroke-width: 2; stroke-linecap: round"/>
   </g>
   <g id="line2d_8">
    <path d="M 37.284 228.26 
L 40.884 228.26 
" clip-path="url(#pb6976b3ba7)" style="fill: none; stroke: #000000; stroke-width: 2; stroke-linecap: round"/>
   </g>
   <g id="line2d_9">
    <path d="M 39.084 235.46 
L 39.084 239.06 
" clip-path="url(#pb6976b3ba7)" style="fill: none; stroke: #000000; stroke-width: 2; stroke-linecap: round"/>
   </g>
   <g id="line2d_10">
    <path d="M 37.284 237.26 
L 40.884 237.26 
" clip-path="url(#pb6976b3ba7)" style="fill: none; stroke: #000000; stroke-width: 2; stroke-linecap: round"/>
   </g>
   <g id="line2d_11">
    <path d="M 39.084 259.76 
L 106.614 259.76 
L 174.144 259.76 
" clip-path="url(#pb6976b3ba7)" style="fill: none; stroke: #000000; stroke-width: 2; stroke-linecap: round"/>
   </g>
   <g id="line2d_12">
    <path d="M 174.144 259.76 
L 174.144 274.16 
L 165.144 274.16 
L 183.144 274.16 
M 167.844 278.48 
L 180.444 278.48 
M 172.344 282.8 
L 175.944 282.8 
" clip-path="url(#pb6976b3ba7)" style="fill: none; stroke: #000000; stroke-width: 2; stroke-linecap: round"/>
   </g>
   <g id="line2d_13">
    <path d="M 174.144 259.76 
L 174.144 245.3 
L 174.144 230.84 
" clip-path="url(#pb6976b3ba7)" style="fill: none; stroke: #000000; stroke-width: 2; stroke-linecap: round"/>
   </g>
   <g id="line2d_14">
    <path d="M 174.144 180.68 
L 174.144 167.18 
L 174.144 153.68 
" clip-path="url(#pb6976b3ba7)" style="fill: none; stroke: #000000; stroke-width: 2; stroke-linecap: round"/>
   </g>
   <g id="line2d_15">
    <path d="M 174.144 153.68 
L 224.904 153.68 
M 224.904 144.68 
L 224.904 162.68 
M 231.384 144.68 
L 231.384 162.68 
M 231.384 153.68 
L 282.144 153.68 
" clip-path="url(#pb6976b3ba7)" style="fill: none; stroke: #000000; stroke-width: 2; stroke-linecap: round"/>
   </g>
   <g id="line2d_16">
    <path d="M 174.144 153.68 
L 174.144 117.68 
L 171.179813 117.54593 
L 168.188893 117.13824 
L 165.422083 116.465999 
L 163.111432 115.560462 
L 162.189692 115.035433 
L 161.450729 114.472453 
L 160.910119 113.880233 
L 160.579256 113.268098 
L 160.465116 112.645793 
L 160.570102 112.02328 
L 160.892004 111.410522 
L 161.424035 110.817277 
L 162.154982 110.252894 
L 163.069436 109.726112 
L 165.368309 108.816175 
L 168.12785 108.138658 
L 171.11662 107.72526 
L 174.083957 107.585528 
L 176.780994 107.706058 
L 178.981535 108.051618 
L 180.501024 108.568102 
L 180.962989 108.869463 
L 181.212023 109.187072 
L 181.242878 109.511077 
L 181.054903 109.831491 
L 180.65206 110.138403 
L 179.240085 110.673708 
L 177.125374 111.046971 
L 174.485284 111.201764 
L 171.541236 111.099981 
L 168.540142 110.725037 
L 165.7337 110.083252 
L 163.357281 109.203329 
L 162.394506 108.688598 
L 161.610192 108.133943 
L 161.020869 107.547898 
L 160.638959 106.939658 
L 160.472513 106.318887 
L 160.525038 105.695513 
L 160.795428 105.079518 
L 161.277983 104.480729 
L 161.962532 103.90861 
L 162.834645 103.372065 
L 165.064471 102.437379 
L 167.780447 101.72994 
L 170.754789 101.283954 
L 173.738044 101.111703 
L 176.48001 101.20251 
L 178.750723 101.523635 
L 180.359742 102.023023 
L 180.871431 102.319064 
L 181.17212 102.633668 
L 181.255471 102.957048 
L 181.119725 103.279232 
L 180.767746 103.590269 
L 180.206952 103.880449 
L 178.510352 104.361772 
L 176.172218 104.657711 
L 173.388645 104.718322 
L 170.393087 104.513398 
L 167.436776 104.035002 
L 164.767655 103.298134 
L 162.609578 102.339469 
L 161.780862 101.793629 
L 161.14354 101.214287 
L 160.711045 100.610498 
L 160.492495 99.991831 
L 160.492495 99.368169 
L 160.711045 98.749502 
L 161.14354 98.145713 
L 161.780862 97.566371 
L 162.609578 97.020531 
L 163.61222 96.51654 
L 166.051527 95.662935 
L 168.894202 95.052021 
L 171.901835 94.709913 
L 174.822178 94.640179 
L 177.410309 94.823543 
L 179.449163 95.219504 
L 180.767746 95.769731 
L 181.119725 96.080768 
L 181.255471 96.402952 
L 181.17212 96.726332 
L 180.871431 97.040936 
L 180.359742 97.336977 
L 178.750723 97.836365 
L 176.48001 98.15749 
L 173.738044 98.248297 
L 170.754789 98.076046 
L 167.780447 97.63006 
L 165.064471 96.922621 
L 162.834645 95.987935 
L 161.962532 95.45139 
L 161.277983 94.879271 
L 160.795428 94.280482 
L 160.525038 93.664487 
L 160.472513 93.041113 
L 160.638959 92.420342 
L 161.020869 91.812102 
L 161.610192 91.226057 
L 162.394506 90.671402 
L 163.357281 90.156671 
L 165.7337 89.276748 
L 168.540142 88.634963 
L 171.541236 88.260019 
L 174.485284 88.158236 
L 177.125374 88.313029 
L 179.240085 88.686292 
L 180.65206 89.221597 
L 181.054903 89.528509 
L 181.242878 89.848923 
L 181.212023 90.172928 
L 180.962989 90.490537 
L 180.501024 90.791898 
L 178.981535 91.308382 
L 176.780994 91.653942 
L 174.083957 91.774472 
L 171.11662 91.63474 
L 168.12785 91.221342 
L 165.368309 90.543825 
L 163.069436 89.633888 
L 162.154982 89.107106 
L 161.424035 88.542723 
L 160.892004 87.949478 
L 160.570102 87.33672 
L 160.465116 86.714207 
L 160.579256 86.091902 
L 160.910119 85.479767 
L 161.450729 84.887547 
L 162.189692 84.324567 
L 163.111432 83.799538 
L 165.422083 82.894001 
L 168.188893 82.22176 
L 171.179813 81.81407 
L 174.144 81.68 
L 174.144 45.68 
L 174.144 45.68 
" clip-path="url(#pb6976b3ba7)" style="fill: none; stroke: #000000; stroke-width: 2; stroke-linecap: round"/>
   </g>
   <g id="line2d_17">
    <path d="M 174.144 45.68 
L 174.144 41.18 
L 174.144 36.68 
" clip-path="url(#pb6976b3ba7)" style="fill: none; stroke: #000000; stroke-width: 2; stroke-linecap: round"/>
   </g>
   <g id="line2d_18">
    <path d="M 174.144 45.68 
L 174.144 31.28 
" clip-path="url(#pb6976b3ba7)" style="fill: none; stroke: #000000; stroke-width: 2; stroke-linecap: round"/>
   </g>
   <g id="line2d_19">
    <path d="M 174.144 31.28 
L 167.394 31.28 
" clip-path="url(#pb6976b3ba7)" style="fill: none; stroke: #000000; stroke-width: 2; stroke-linecap: round"/>
   </g>
   <g id="line2d_20">
    <path d="M 174.144 31.28 
L 180.894 31.28 
" clip-path="url(#pb6976b3ba7)" style="fill: none; stroke: #000000; stroke-width: 2; stroke-linecap: round"/>
   </g>
   <g id="line2d_21">
    <path d="M 282.144 153.68 
L 282.144 117.68 
L 273.144 114.68 
L 291.144 108.68 
L 273.144 102.68 
L 291.144 96.68 
L 273.144 90.68 
L 291.144 84.68 
L 282.144 81.68 
L 282.144 45.68 
" clip-path="url(#pb6976b3ba7)" style="fill: none; stroke: #000000; stroke-width: 2; stroke-linecap: round"/>
   </g>
   <g id="line2d_22">
    <path d="M 282.144 45.68 
L 282.144 41.18 
L 282.144 36.68 
" clip-path="url(#pb6976b3ba7)" style="fill: none; stroke: #000000; stroke-width: 2; stroke-linecap: round"/>
   </g>
   <g id="line2d_23">
    <path d="M 282.144 36.68 
L 282.144 22.28 
" clip-path="url(#pb6976b3ba7)" style="fill: none; stroke: #000000; stroke-width: 2; stroke-linecap: round"/>
   </g>
   <g id="line2d_24">
    <path d="M 282.144 22.28 
L 275.394 22.28 
" clip-path="url(#pb6976b3ba7)" style="fill: none; stroke: #000000; stroke-width: 2; stroke-linecap: round"/>
   </g>
   <g id="line2d_25">
    <path d="M 282.144 22.28 
L 288.894 22.28 
" clip-path="url(#pb6976b3ba7)" style="fill: none; stroke: #000000; stroke-width: 2; stroke-linecap: round"/>
   </g>
   <g id="line2d_26">
    <path d="M 282.144 153.68 
L 282.144 179.72 
L 282.144 205.76 
" clip-path="url(#pb6976b3ba7)" style="fill: none; stroke: #000000; stroke-width: 2; stroke-linecap: round"/>
   </g>
   <g id="line2d_27">
    <path d="M 282.144 205.76 
L 327.144 205.76 
L 372.144 205.76 
" clip-path="url(#pb6976b3ba7)" style="fill: none; stroke: #000000; stroke-width: 2; stroke-linecap: round"/>
   </g>
   <g id="line2d_28">
    <path d="M 372.144 205.76 
L 385.344 205.76 
" clip-path="url(#pb6976b3ba7)" style="fill: none; stroke: #000000; stroke-width: 2; stroke-linecap: round"/>
   </g>
   <g id="line2d_29">
    <path d="M 385.344 192.56 
L 385.344 218.96 
" clip-path="url(#pb6976b3ba7)" style="fill: none; stroke: #000000; stroke-width: 2; stroke-linecap: round"/>
   </g>
   <g id="line2d_30">
    <path d="M 385.344 199.16 
L 399.204 187.28 
L 399.204 180.68 
" clip-path="url(#pb6976b3ba7)" style="fill: none; stroke: #000000; stroke-width: 2; stroke-linecap: round"/>
   </g>
   <g id="line2d_31">
    <path d="M 385.344 212.36 
L 399.204 224.24 
L 399.204 230.84 
" clip-path="url(#pb6976b3ba7)" style="fill: none; stroke: #000000; stroke-width: 2; stroke-linecap: round"/>
   </g>
   <g id="line2d_32">
    <path d="M 385.344 212.36 
L 392.370691 218.382878 
" clip-path="url(#pb6976b3ba7)" style="fill: none; stroke: #000000; stroke-width: 2; stroke-linecap: round"/>
   </g>
   <g id="patch_4">
    <path d="M 394.71354 215.649554 
L 399.204 224.24 
L 390.027842 221.116201 
z
" clip-path="url(#pb6976b3ba7)"/>
   </g>
   <g id="line2d_33">
    <path d="M 399.204 230.84 
L 399.204 245.3 
L 399.204 259.76 
" clip-path="url(#pb6976b3ba7)" style="fill: none; stroke: #000000; stroke-width: 2; stroke-linecap: round"/>
   </g>
   <g id="line2d_34">
    <path d="M 399.204 259.76 
L 399.204 274.16 
L 390.204 274.16 
L 408.204 274.16 
M 392.904 278.48 
L 405.504 278.48 
M 397.404 282.8 
L 401.004 282.8 
" clip-path="url(#pb6976b3ba7)" style="fill: none; stroke: #000000; stroke-width: 2; stroke-linecap: round"/>
   </g>
   <g id="line2d_35">
    <path d="M 399.204 180.68 
L 399.204 167.18 
L 399.204 153.68 
" clip-path="url(#pb6976b3ba7)" style="fill: none; stroke: #000000; stroke-width: 2; stroke-linecap: round"/>
   </g>
   <g id="line2d_36">
    <path d="M 399.204 153.68 
L 449.964 153.68 
M 449.964 144.68 
L 449.964 162.68 
M 456.444 144.68 
L 456.444 162.68 
M 456.444 153.68 
L 507.204 153.68 
" clip-path="url(#pb6976b3ba7)" style="fill: none; stroke: #000000; stroke-width: 2; stroke-linecap: round"/>
   </g>
   <g id="line2d_37">
    <path d="M 399.204 153.68 
L 399.204 117.68 
L 396.239813 117.54593 
L 393.248893 117.13824 
L 390.482083 116.465999 
L 388.171432 115.560462 
L 387.249692 115.035433 
L 386.510729 114.472453 
L 385.970119 113.880233 
L 385.639256 113.268098 
L 385.525116 112.645793 
L 385.630102 112.02328 
L 385.952004 111.410522 
L 386.484035 110.817277 
L 387.214982 110.252894 
L 388.129436 109.726112 
L 390.428309 108.816175 
L 393.18785 108.138658 
L 396.17662 107.72526 
L 399.143957 107.585528 
L 401.840994 107.706058 
L 404.041535 108.051618 
L 405.561024 108.568102 
L 406.022989 108.869463 
L 406.272023 109.187072 
L 406.302878 109.511077 
L 406.114903 109.831491 
L 405.71206 110.138403 
L 404.300085 110.673708 
L 402.185374 111.046971 
L 399.545284 111.201764 
L 396.601236 111.099981 
L 393.600142 110.725037 
L 390.7937 110.083252 
L 388.417281 109.203329 
L 387.454506 108.688598 
L 386.670192 108.133943 
L 386.080869 107.547898 
L 385.698959 106.939658 
L 385.532513 106.318887 
L 385.585038 105.695513 
L 385.855428 105.079518 
L 386.337983 104.480729 
L 387.022532 103.90861 
L 387.894645 103.372065 
L 390.124471 102.437379 
L 392.840447 101.72994 
L 395.814789 101.283954 
L 398.798044 101.111703 
L 401.54001 101.20251 
L 403.810723 101.523635 
L 405.419742 102.023023 
L 405.931431 102.319064 
L 406.23212 102.633668 
L 406.315471 102.957048 
L 406.179725 103.279232 
L 405.827746 103.590269 
L 405.266952 103.880449 
L 403.570352 104.361772 
L 401.232218 104.657711 
L 398.448645 104.718322 
L 395.453087 104.513398 
L 392.496776 104.035002 
L 389.827655 103.298134 
L 387.669578 102.339469 
L 386.840862 101.793629 
L 386.20354 101.214287 
L 385.771045 100.610498 
L 385.552495 99.991831 
L 385.552495 99.368169 
L 385.771045 98.749502 
L 386.20354 98.145713 
L 386.840862 97.566371 
L 387.669578 97.020531 
L 388.67222 96.51654 
L 391.111527 95.662935 
L 393.954202 95.052021 
L 396.961835 94.709913 
L 399.882178 94.640179 
L 402.470309 94.823543 
L 404.509163 95.219504 
L 405.827746 95.769731 
L 406.179725 96.080768 
L 406.315471 96.402952 
L 406.23212 96.726332 
L 405.931431 97.040936 
L 405.419742 97.336977 
L 403.810723 97.836365 
L 401.54001 98.15749 
L 398.798044 98.248297 
L 395.814789 98.076046 
L 392.840447 97.63006 
L 390.124471 96.922621 
L 387.894645 95.987935 
L 387.022532 95.45139 
L 386.337983 94.879271 
L 385.855428 94.280482 
L 385.585038 93.664487 
L 385.532513 93.041113 
L 385.698959 92.420342 
L 386.080869 91.812102 
L 386.670192 91.226057 
L 387.454506 90.671402 
L 388.417281 90.156671 
L 390.7937 89.276748 
L 393.600142 88.634963 
L 396.601236 88.260019 
L 399.545284 88.158236 
L 402.185374 88.313029 
L 404.300085 88.686292 
L 405.71206 89.221597 
L 406.114903 89.528509 
L 406.302878 89.848923 
L 406.272023 90.172928 
L 406.022989 90.490537 
L 405.561024 90.791898 
L 404.041535 91.308382 
L 401.840994 91.653942 
L 399.143957 91.774472 
L 396.17662 91.63474 
L 393.18785 91.221342 
L 390.428309 90.543825 
L 388.129436 89.633888 
L 387.214982 89.107106 
L 386.484035 88.542723 
L 385.952004 87.949478 
L 385.630102 87.33672 
L 385.525116 86.714207 
L 385.639256 86.091902 
L 385.970119 85.479767 
L 386.510729 84.887547 
L 387.249692 84.324567 
L 388.171432 83.799538 
L 390.482083 82.894001 
L 393.248893 82.22176 
L 396.239813 81.81407 
L 399.204 81.68 
L 399.204 45.68 
L 399.204 45.68 
" clip-path="url(#pb6976b3ba7)" style="fill: none; stroke: #000000; stroke-width: 2; stroke-linecap: round"/>
   </g>
   <g id="line2d_38">
    <path d="M 399.204 45.68 
L 399.204 41.18 
L 399.204 36.68 
" clip-path="url(#pb6976b3ba7)" style="fill: none; stroke: #000000; stroke-width: 2; stroke-linecap: round"/>
   </g>
   <g id="line2d_39">
    <path d="M 399.204 45.68 
L 399.204 31.28 
" clip-path="url(#pb6976b3ba7)" style="fill: none; stroke: #000000; stroke-width: 2; stroke-linecap: round"/>
   </g>
   <g id="line2d_40">
    <path d="M 399.204 31.28 
L 392.454 31.28 
" clip-path="url(#pb6976b3ba7)" style="fill: none; stroke: #000000; stroke-width: 2; stroke-linecap: round"/>
   </g>
   <g id="line2d_41">
    <path d="M 399.204 31.28 
L 405.954 31.28 
" clip-path="url(#pb6976b3ba7)" style="fill: none; stroke: #000000; stroke-width: 2; stroke-linecap: round"/>
   </g>
   <g id="line2d_42">
    <path d="M 507.204 153.68 
L 507.204 117.68 
L 498.204 114.68 
L 516.204 108.68 
L 498.204 102.68 
L 516.204 96.68 
L 498.204 90.68 
L 516.204 84.68 
L 507.204 81.68 
L 507.204 45.68 
" clip-path="url(#pb6976b3ba7)" style="fill: none; stroke: #000000; stroke-width: 2; stroke-linecap: round"/>
   </g>
   <g id="line2d_43">
    <path d="M 507.204 45.68 
L 507.204 41.18 
L 507.204 36.68 
" clip-path="url(#pb6976b3ba7)" style="fill: none; stroke: #000000; stroke-width: 2; stroke-linecap: round"/>
   </g>
   <g id="line2d_44">
    <path d="M 507.204 36.68 
L 507.204 22.28 
" clip-path="url(#pb6976b3ba7)" style="fill: none; stroke: #000000; stroke-width: 2; stroke-linecap: round"/>
   </g>
   <g id="line2d_45">
    <path d="M 507.204 22.28 
L 500.454 22.28 
" clip-path="url(#pb6976b3ba7)" style="fill: none; stroke: #000000; stroke-width: 2; stroke-linecap: round"/>
   </g>
   <g id="line2d_46">
    <path d="M 507.204 22.28 
L 513.954 22.28 
" clip-path="url(#pb6976b3ba7)" style="fill: none; stroke: #000000; stroke-width: 2; stroke-linecap: round"/>
   </g>
   <g id="line2d_47">
    <path d="M 507.204 153.68 
L 507.204 179.72 
L 507.204 205.76 
" clip-path="url(#pb6976b3ba7)" style="fill: none; stroke: #000000; stroke-width: 2; stroke-linecap: round"/>
   </g>
   <g id="line2d_48">
    <path d="M 507.204 205.76 
L 552.204 205.76 
L 597.204 205.76 
" clip-path="url(#pb6976b3ba7)" style="fill: none; stroke: #000000; stroke-width: 2; stroke-linecap: round"/>
   </g>
   <g id="line2d_49">
    <path d="M 597.204 205.76 
L 610.404 205.76 
" clip-path="url(#pb6976b3ba7)" style="fill: none; stroke: #000000; stroke-width: 2; stroke-linecap: round"/>
   </g>
   <g id="line2d_50">
    <path d="M 610.404 192.56 
L 610.404 218.96 
" clip-path="url(#pb6976b3ba7)" style="fill: none; stroke: #000000; stroke-width: 2; stroke-linecap: round"/>
   </g>
   <g id="line2d_51">
    <path d="M 610.404 199.16 
L 624.264 187.28 
L 624.264 180.68 
" clip-path="url(#pb6976b3ba7)" style="fill: none; stroke: #000000; stroke-width: 2; stroke-linecap: round"/>
   </g>
   <g id="line2d_52">
    <path d="M 610.404 212.36 
L 624.264 224.24 
L 624.264 230.84 
" clip-path="url(#pb6976b3ba7)" style="fill: none; stroke: #000000; stroke-width: 2; stroke-linecap: round"/>
   </g>
   <g id="line2d_53">
    <path d="M 610.404 212.36 
L 617.430691 218.382878 
" clip-path="url(#pb6976b3ba7)" style="fill: none; stroke: #000000; stroke-width: 2; stroke-linecap: round"/>
   </g>
   <g id="patch_5">
    <path d="M 619.77354 215.649554 
L 624.264 224.24 
L 615.087842 221.116201 
z
" clip-path="url(#pb6976b3ba7)"/>
   </g>
   <g id="line2d_54">
    <path d="M 624.264 230.84 
L 624.264 245.3 
L 624.264 259.76 
" clip-path="url(#pb6976b3ba7)" style="fill: none; stroke: #000000; stroke-width: 2; stroke-linecap: round"/>
   </g>
   <g id="line2d_55">
    <path d="M 624.264 259.76 
L 624.264 274.16 
L 615.264 274.16 
L 633.264 274.16 
M 617.964 278.48 
L 630.564 278.48 
M 622.464 282.8 
L 626.064 282.8 
" clip-path="url(#pb6976b3ba7)" style="fill: none; stroke: #000000; stroke-width: 2; stroke-linecap: round"/>
   </g>
   <g id="line2d_56">
    <path d="M 624.264 180.68 
L 624.264 167.18 
L 624.264 153.68 
" clip-path="url(#pb6976b3ba7)" style="fill: none; stroke: #000000; stroke-width: 2; stroke-linecap: round"/>
   </g>
   <g id="line2d_57">
    <path d="M 624.264 153.68 
L 624.264 102.92 
M 615.264 102.92 
L 633.264 102.92 
M 615.264 96.44 
L 633.264 96.44 
M 624.264 96.44 
L 624.264 45.68 
" clip-path="url(#pb6976b3ba7)" style="fill: none; stroke: #000000; stroke-width: 2; stroke-linecap: round"/>
   </g>
   <g id="line2d_58">
    <path d="M 624.264 153.68 
L 601.764 153.68 
L 579.264 153.68 
" clip-path="url(#pb6976b3ba7)" style="fill: none; stroke: #000000; stroke-width: 2; stroke-linecap: round"/>
   </g>
   <g id="line2d_59">
    <path d="M 579.264 153.68 
L 579.264 117.68 
L 576.299813 117.54593 
L 573.308893 117.13824 
L 570.542083 116.465999 
L 568.231432 115.560462 
L 567.309692 115.035433 
L 566.570729 114.472453 
L 566.030119 113.880233 
L 565.699256 113.268098 
L 565.585116 112.645793 
L 565.690102 112.02328 
L 566.012004 111.410522 
L 566.544035 110.817277 
L 567.274982 110.252894 
L 568.189436 109.726112 
L 570.488309 108.816175 
L 573.24785 108.138658 
L 576.23662 107.72526 
L 579.203957 107.585528 
L 581.900994 107.706058 
L 584.101535 108.051618 
L 585.621024 108.568102 
L 586.082989 108.869463 
L 586.332023 109.187072 
L 586.362878 109.511077 
L 586.174903 109.831491 
L 585.77206 110.138403 
L 584.360085 110.673708 
L 582.245374 111.046971 
L 579.605284 111.201764 
L 576.661236 111.099981 
L 573.660142 110.725037 
L 570.8537 110.083252 
L 568.477281 109.203329 
L 567.514506 108.688598 
L 566.730192 108.133943 
L 566.140869 107.547898 
L 565.758959 106.939658 
L 565.592513 106.318887 
L 565.645038 105.695513 
L 565.915428 105.079518 
L 566.397983 104.480729 
L 567.082532 103.90861 
L 567.954645 103.372065 
L 570.184471 102.437379 
L 572.900447 101.72994 
L 575.874789 101.283954 
L 578.858044 101.111703 
L 581.60001 101.20251 
L 583.870723 101.523635 
L 585.479742 102.023023 
L 585.991431 102.319064 
L 586.29212 102.633668 
L 586.375471 102.957048 
L 586.239725 103.279232 
L 585.887746 103.590269 
L 585.326952 103.880449 
L 583.630352 104.361772 
L 581.292218 104.657711 
L 578.508645 104.718322 
L 575.513087 104.513398 
L 572.556776 104.035002 
L 569.887655 103.298134 
L 567.729578 102.339469 
L 566.900862 101.793629 
L 566.26354 101.214287 
L 565.831045 100.610498 
L 565.612495 99.991831 
L 565.612495 99.368169 
L 565.831045 98.749502 
L 566.26354 98.145713 
L 566.900862 97.566371 
L 567.729578 97.020531 
L 568.73222 96.51654 
L 571.171527 95.662935 
L 574.014202 95.052021 
L 577.021835 94.709913 
L 579.942178 94.640179 
L 582.530309 94.823543 
L 584.569163 95.219504 
L 585.887746 95.769731 
L 586.239725 96.080768 
L 586.375471 96.402952 
L 586.29212 96.726332 
L 585.991431 97.040936 
L 585.479742 97.336977 
L 583.870723 97.836365 
L 581.60001 98.15749 
L 578.858044 98.248297 
L 575.874789 98.076046 
L 572.900447 97.63006 
L 570.184471 96.922621 
L 567.954645 95.987935 
L 567.082532 95.45139 
L 566.397983 94.879271 
L 565.915428 94.280482 
L 565.645038 93.664487 
L 565.592513 93.041113 
L 565.758959 92.420342 
L 566.140869 91.812102 
L 566.730192 91.226057 
L 567.514506 90.671402 
L 568.477281 90.156671 
L 570.8537 89.276748 
L 573.660142 88.634963 
L 576.661236 88.260019 
L 579.605284 88.158236 
L 582.245374 88.313029 
L 584.360085 88.686292 
L 585.77206 89.221597 
L 586.174903 89.528509 
L 586.362878 89.848923 
L 586.332023 90.172928 
L 586.082989 90.490537 
L 585.621024 90.791898 
L 584.101535 91.308382 
L 581.900994 91.653942 
L 579.203957 91.774472 
L 576.23662 91.63474 
L 573.24785 91.221342 
L 570.488309 90.543825 
L 568.189436 89.633888 
L 567.274982 89.107106 
L 566.544035 88.542723 
L 566.012004 87.949478 
L 565.690102 87.33672 
L 565.585116 86.714207 
L 565.699256 86.091902 
L 566.030119 85.479767 
L 566.570729 84.887547 
L 567.309692 84.324567 
L 568.231432 83.799538 
L 570.542083 82.894001 
L 573.308893 82.22176 
L 576.299813 81.81407 
L 579.264 81.68 
L 579.264 45.68 
L 579.264 45.68 
" clip-path="url(#pb6976b3ba7)" style="fill: none; stroke: #000000; stroke-width: 2; stroke-linecap: round"/>
   </g>
   <g id="line2d_60">
    <path d="M 624.264 153.68 
L 646.764 153.68 
L 669.264 153.68 
" clip-path="url(#pb6976b3ba7)" style="fill: none; stroke: #000000; stroke-width: 2; stroke-linecap: round"/>
   </g>
   <g id="line2d_61">
    <path d="M 669.264 153.68 
L 669.264 117.68 
L 660.264 114.68 
L 678.264 108.68 
L 660.264 102.68 
L 678.264 96.68 
L 660.264 90.68 
L 678.264 84.68 
L 669.264 81.68 
L 669.264 45.68 
" clip-path="url(#pb6976b3ba7)" style="fill: none; stroke: #000000; stroke-width: 2; stroke-linecap: round"/>
   </g>
   <g id="line2d_62">
    <path d="M 669.264 153.68 
L 678.264 153.68 
L 687.264 153.68 
" clip-path="url(#pb6976b3ba7)" style="fill: none; stroke: #000000; stroke-width: 2; stroke-linecap: round"/>
   </g>
   <g id="line2d_63">
    <path d="M 669.264 45.68 
L 646.764 45.68 
L 624.264 45.68 
" clip-path="url(#pb6976b3ba7)" style="fill: none; stroke: #000000; stroke-width: 2; stroke-linecap: round"/>
   </g>
   <g id="line2d_64">
    <path d="M 579.264 45.68 
L 601.764 45.68 
L 624.264 45.68 
" clip-path="url(#pb6976b3ba7)" style="fill: none; stroke: #000000; stroke-width: 2; stroke-linecap: round"/>
   </g>
   <g id="line2d_65">
    <path d="M 624.264 45.68 
L 624.264 41.18 
L 624.264 36.68 
" clip-path="url(#pb6976b3ba7)" style="fill: none; stroke: #000000; stroke-width: 2; stroke-linecap: round"/>
   </g>
   <g id="line2d_66">
    <path d="M 624.264 36.68 
L 624.264 22.28 
" clip-path="url(#pb6976b3ba7)" style="fill: none; stroke: #000000; stroke-width: 2; stroke-linecap: round"/>
   </g>
   <g id="line2d_67">
    <path d="M 624.264 22.28 
L 617.514 22.28 
" clip-path="url(#pb6976b3ba7)" style="fill: none; stroke: #000000; stroke-width: 2; stroke-linecap: round"/>
   </g>
   <g id="line2d_68">
    <path d="M 624.264 22.28 
L 631.014 22.28 
" clip-path="url(#pb6976b3ba7)" style="fill: none; stroke: #000000; stroke-width: 2; stroke-linecap: round"/>
   </g>
   <g id="text_1">
    <!-- $R_{in}$ -->
    <g transform="translate(83.494 190.248438) scale(0.14 -0.14)">
     <defs>
      <path id="DejaVuSans-Oblique-52" d="M 1613 4147 
L 1294 2491 
L 2106 2491 
Q 2584 2491 2879 2755 
Q 3175 3019 3175 3444 
Q 3175 3784 2976 3965 
Q 2778 4147 2406 4147 
L 1613 4147 
z
M 2772 2241 
Q 2972 2194 3105 2009 
Q 3238 1825 3413 1275 
L 3809 0 
L 3144 0 
L 2778 1197 
Q 2638 1659 2453 1815 
Q 2269 1972 1888 1972 
L 1191 1972 
L 806 0 
L 172 0 
L 1081 4666 
L 2503 4666 
Q 3150 4666 3495 4373 
Q 3841 4081 3841 3531 
Q 3841 3044 3547 2687 
Q 3253 2331 2772 2241 
z
" transform="scale(0.015625)"/>
      <path id="DejaVuSans-Oblique-69" d="M 1172 4863 
L 1747 4863 
L 1606 4134 
L 1031 4134 
L 1172 4863 
z
M 909 3500 
L 1484 3500 
L 800 0 
L 225 0 
L 909 3500 
z
" transform="scale(0.015625)"/>
      <path id="DejaVuSans-Oblique-6e" d="M 3566 2113 
L 3156 0 
L 2578 0 
L 2988 2091 
Q 3016 2238 3031 2350 
Q 3047 2463 3047 2528 
Q 3047 2791 2881 2937 
Q 2716 3084 2419 3084 
Q 1956 3084 1622 2776 
Q 1288 2469 1184 1941 
L 800 0 
L 225 0 
L 903 3500 
L 1478 3500 
L 1363 2950 
Q 1603 3253 1940 3418 
Q 2278 3584 2650 3584 
Q 3113 3584 3367 3334 
Q 3622 3084 3622 2631 
Q 3622 2519 3608 2391 
Q 3594 2263 3566 2113 
z
" transform="scale(0.015625)"/>
     </defs>
     <use xlink:href="#DejaVuSans-Oblique-52" transform="translate(0 0.09375)"/>
     <use xlink:href="#DejaVuSans-Oblique-69" transform="translate(69.482422 -16.3125) scale(0.7)"/>
     <use xlink:href="#DejaVuSans-Oblique-6e" transform="translate(88.930664 -16.3125) scale(0.7)"/>
    </g>
   </g>
   <g id="text_2">
    <!-- $V_{in}$ -->
    <g transform="translate(9.384 236.623125) scale(0.14 -0.14)">
     <defs>
      <path id="DejaVuSans-Oblique-56" d="M 1319 0 
L 500 4666 
L 1119 4666 
L 1797 653 
L 4063 4666 
L 4750 4666 
L 2053 0 
L 1319 0 
z
" transform="scale(0.015625)"/>
     </defs>
     <use xlink:href="#DejaVuSans-Oblique-56" transform="translate(0 0.09375)"/>
     <use xlink:href="#DejaVuSans-Oblique-69" transform="translate(68.408203 -16.3125) scale(0.7)"/>
     <use xlink:href="#DejaVuSans-Oblique-6e" transform="translate(87.856445 -16.3125) scale(0.7)"/>
    </g>
   </g>
   <g id="text_3">
    <!-- $C_1$ -->
    <g transform="translate(219.884 138.168438) scale(0.14 -0.14)">
     <defs>
      <path id="DejaVuSans-Oblique-43" d="M 4447 4306 
L 4319 3641 
Q 4019 3944 3683 4091 
Q 3347 4238 2956 4238 
Q 2422 4238 2017 3981 
Q 1613 3725 1319 3200 
Q 1131 2863 1032 2486 
Q 934 2109 934 1728 
Q 934 1091 1264 756 
Q 1594 422 2222 422 
Q 2656 422 3056 561 
Q 3456 700 3834 978 
L 3688 231 
Q 3316 72 2936 -9 
Q 2556 -91 2175 -91 
Q 1278 -91 773 396 
Q 269 884 269 1753 
Q 269 2309 461 2846 
Q 653 3384 1013 3828 
Q 1394 4300 1883 4525 
Q 2372 4750 3022 4750 
Q 3422 4750 3780 4639 
Q 4138 4528 4447 4306 
z
" transform="scale(0.015625)"/>
      <path id="DejaVuSans-31" d="M 794 531 
L 1825 531 
L 1825 4091 
L 703 3866 
L 703 4441 
L 1819 4666 
L 2450 4666 
L 2450 531 
L 3481 531 
L 3481 0 
L 794 0 
L 794 531 
z
" transform="scale(0.015625)"/>
     </defs>
     <use xlink:href="#DejaVuSans-Oblique-43" transform="translate(0 0.78125)"/>
     <use xlink:href="#DejaVuSans-31" transform="translate(69.824219 -15.625) scale(0.7)"/>
    </g>
   </g>
   <g id="text_4">
    <!-- $L_1$ -->
    <g transform="translate(142.445116 103.543125) scale(0.14 -0.14)">
     <defs>
      <path id="DejaVuSans-Oblique-4c" d="M 1075 4666 
L 1709 4666 
L 909 525 
L 3181 525 
L 3078 0 
L 172 0 
L 1075 4666 
z
" transform="scale(0.015625)"/>
     </defs>
     <use xlink:href="#DejaVuSans-Oblique-4c" transform="translate(0 0.09375)"/>
     <use xlink:href="#DejaVuSans-31" transform="translate(55.712891 -16.3125) scale(0.7)"/>
    </g>
   </g>
   <g id="text_5">
    <!-- $V_{dd}$ -->
    <g transform="translate(162.874 24.768438) scale(0.14 -0.14)">
     <defs>
      <path id="DejaVuSans-Oblique-64" d="M 2675 525 
Q 2444 222 2128 65 
Q 1813 -91 1428 -91 
Q 903 -91 598 267 
Q 294 625 294 1247 
Q 294 1766 478 2236 
Q 663 2706 1013 3078 
Q 1244 3325 1534 3454 
Q 1825 3584 2144 3584 
Q 2481 3584 2739 3421 
Q 2997 3259 3138 2956 
L 3513 4863 
L 4091 4863 
L 3144 0 
L 2566 0 
L 2675 525 
z
M 891 1350 
Q 891 897 1095 644 
Q 1300 391 1663 391 
Q 1931 391 2161 520 
Q 2391 650 2566 903 
Q 2750 1166 2856 1509 
Q 2963 1853 2963 2188 
Q 2963 2622 2758 2865 
Q 2553 3109 2194 3109 
Q 1922 3109 1687 2981 
Q 1453 2853 1288 2613 
Q 1106 2353 998 2009 
Q 891 1666 891 1350 
z
" transform="scale(0.015625)"/>
     </defs>
     <use xlink:href="#DejaVuSans-Oblique-56" transform="translate(0 0.09375)"/>
     <use xlink:href="#DejaVuSans-Oblique-64" transform="translate(68.408203 -16.3125) scale(0.7)"/>
     <use xlink:href="#DejaVuSans-Oblique-64" transform="translate(112.841797 -16.3125) scale(0.7)"/>
    </g>
   </g>
   <g id="text_6">
    <!-- $R_{b2}$ -->
    <g transform="translate(246.864 103.543125) scale(0.14 -0.14)">
     <defs>
      <path id="DejaVuSans-Oblique-62" d="M 3169 2138 
Q 3169 2591 2961 2847 
Q 2753 3103 2388 3103 
Q 2122 3103 1889 2973 
Q 1656 2844 1484 2597 
Q 1303 2338 1198 1995 
Q 1094 1653 1094 1313 
Q 1094 881 1298 636 
Q 1503 391 1863 391 
Q 2134 391 2365 517 
Q 2597 644 2772 891 
Q 2950 1147 3059 1487 
Q 3169 1828 3169 2138 
z
M 1381 2969 
Q 1594 3256 1914 3420 
Q 2234 3584 2584 3584 
Q 3122 3584 3439 3221 
Q 3756 2859 3756 2241 
Q 3756 1734 3570 1259 
Q 3384 784 3041 416 
Q 2816 172 2522 40 
Q 2228 -91 1906 -91 
Q 1566 -91 1316 65 
Q 1066 222 909 531 
L 806 0 
L 231 0 
L 1178 4863 
L 1753 4863 
L 1381 2969 
z
" transform="scale(0.015625)"/>
      <path id="DejaVuSans-32" d="M 1228 531 
L 3431 531 
L 3431 0 
L 469 0 
L 469 531 
Q 828 903 1448 1529 
Q 2069 2156 2228 2338 
Q 2531 2678 2651 2914 
Q 2772 3150 2772 3378 
Q 2772 3750 2511 3984 
Q 2250 4219 1831 4219 
Q 1534 4219 1204 4116 
Q 875 4013 500 3803 
L 500 4441 
Q 881 4594 1212 4672 
Q 1544 4750 1819 4750 
Q 2544 4750 2975 4387 
Q 3406 4025 3406 3419 
Q 3406 3131 3298 2873 
Q 3191 2616 2906 2266 
Q 2828 2175 2409 1742 
Q 1991 1309 1228 531 
z
" transform="scale(0.015625)"/>
     </defs>
     <use xlink:href="#DejaVuSans-Oblique-52" transform="translate(0 0.09375)"/>
     <use xlink:href="#DejaVuSans-Oblique-62" transform="translate(69.482422 -16.3125) scale(0.7)"/>
     <use xlink:href="#DejaVuSans-32" transform="translate(113.916016 -16.3125) scale(0.7)"/>
    </g>
   </g>
   <g id="text_7">
    <!-- $V_{dd}$ -->
    <g transform="translate(270.874 15.768438) scale(0.14 -0.14)">
     <use xlink:href="#DejaVuSans-Oblique-56" transform="translate(0 0.09375)"/>
     <use xlink:href="#DejaVuSans-Oblique-64" transform="translate(68.408203 -16.3125) scale(0.7)"/>
     <use xlink:href="#DejaVuSans-Oblique-64" transform="translate(112.841797 -16.3125) scale(0.7)"/>
    </g>
   </g>
   <g id="text_8">
    <!-- $C_2$ -->
    <g transform="translate(444.944 138.168438) scale(0.14 -0.14)">
     <use xlink:href="#DejaVuSans-Oblique-43" transform="translate(0 0.78125)"/>
     <use xlink:href="#DejaVuSans-32" transform="translate(69.824219 -15.625) scale(0.7)"/>
    </g>
   </g>
   <g id="text_9">
    <!-- $L_2$ -->
    <g transform="translate(367.505116 103.543125) scale(0.14 -0.14)">
     <use xlink:href="#DejaVuSans-Oblique-4c" transform="translate(0 0.09375)"/>
     <use xlink:href="#DejaVuSans-32" transform="translate(55.712891 -16.3125) scale(0.7)"/>
    </g>
   </g>
   <g id="text_10">
    <!-- $V_{dd}$ -->
    <g transform="translate(387.934 24.768438) scale(0.14 -0.14)">
     <use xlink:href="#DejaVuSans-Oblique-56" transform="translate(0 0.09375)"/>
     <use xlink:href="#DejaVuSans-Oblique-64" transform="translate(68.408203 -16.3125) scale(0.7)"/>
     <use xlink:href="#DejaVuSans-Oblique-64" transform="translate(112.841797 -16.3125) scale(0.7)"/>
    </g>
   </g>
   <g id="text_11">
    <!-- $R_{b3}$ -->
    <g transform="translate(471.924 103.543125) scale(0.14 -0.14)">
     <defs>
      <path id="DejaVuSans-33" d="M 2597 2516 
Q 3050 2419 3304 2112 
Q 3559 1806 3559 1356 
Q 3559 666 3084 287 
Q 2609 -91 1734 -91 
Q 1441 -91 1130 -33 
Q 819 25 488 141 
L 488 750 
Q 750 597 1062 519 
Q 1375 441 1716 441 
Q 2309 441 2620 675 
Q 2931 909 2931 1356 
Q 2931 1769 2642 2001 
Q 2353 2234 1838 2234 
L 1294 2234 
L 1294 2753 
L 1863 2753 
Q 2328 2753 2575 2939 
Q 2822 3125 2822 3475 
Q 2822 3834 2567 4026 
Q 2313 4219 1838 4219 
Q 1578 4219 1281 4162 
Q 984 4106 628 3988 
L 628 4550 
Q 988 4650 1302 4700 
Q 1616 4750 1894 4750 
Q 2613 4750 3031 4423 
Q 3450 4097 3450 3541 
Q 3450 3153 3228 2886 
Q 3006 2619 2597 2516 
z
" transform="scale(0.015625)"/>
     </defs>
     <use xlink:href="#DejaVuSans-Oblique-52" transform="translate(0 0.09375)"/>
     <use xlink:href="#DejaVuSans-Oblique-62" transform="translate(69.482422 -16.3125) scale(0.7)"/>
     <use xlink:href="#DejaVuSans-33" transform="translate(113.916016 -16.3125) scale(0.7)"/>
    </g>
   </g>
   <g id="text_12">
    <!-- $V_{dd}$ -->
    <g transform="translate(495.934 15.768438) scale(0.14 -0.14)">
     <use xlink:href="#DejaVuSans-Oblique-56" transform="translate(0 0.09375)"/>
     <use xlink:href="#DejaVuSans-Oblique-64" transform="translate(68.408203 -16.3125) scale(0.7)"/>
     <use xlink:href="#DejaVuSans-Oblique-64" transform="translate(112.841797 -16.3125) scale(0.7)"/>
    </g>
   </g>
   <g id="text_13">
    <!-- $C_3$ -->
    <g transform="translate(595.144 103.543125) scale(0.14 -0.14)">
     <use xlink:href="#DejaVuSans-Oblique-43" transform="translate(0 0.78125)"/>
     <use xlink:href="#DejaVuSans-33" transform="translate(69.824219 -15.625) scale(0.7)"/>
    </g>
   </g>
   <g id="text_14">
    <!-- $L_3$ -->
    <g transform="translate(547.565116 103.543125) scale(0.14 -0.14)">
     <use xlink:href="#DejaVuSans-Oblique-4c" transform="translate(0 0.09375)"/>
     <use xlink:href="#DejaVuSans-33" transform="translate(55.712891 -16.3125) scale(0.7)"/>
    </g>
   </g>
   <g id="text_15">
    <!-- $R_L$ -->
    <g transform="translate(640.984 103.543125) scale(0.14 -0.14)">
     <use xlink:href="#DejaVuSans-Oblique-52" transform="translate(0 0.09375)"/>
     <use xlink:href="#DejaVuSans-Oblique-4c" transform="translate(69.482422 -16.3125) scale(0.7)"/>
    </g>
   </g>
   <g id="text_16">
    <!-- $V_{dd}$ -->
    <g transform="translate(612.994 15.768438) scale(0.14 -0.14)">
     <use xlink:href="#DejaVuSans-Oblique-56" transform="translate(0 0.09375)"/>
     <use xlink:href="#DejaVuSans-Oblique-64" transform="translate(68.408203 -16.3125) scale(0.7)"/>
     <use xlink:href="#DejaVuSans-Oblique-64" transform="translate(112.841797 -16.3125) scale(0.7)"/>
    </g>
   </g>
   <g id="patch_6">
    <path d="M 174.144 156.38 
C 174.860048 156.38 175.546866 156.095511 176.053188 155.589188 
C 176.559511 155.082866 176.844 154.396048 176.844 153.68 
C 176.844 152.963952 176.559511 152.277134 176.053188 151.770812 
C 175.546866 151.264489 174.860048 150.98 174.144 150.98 
C 173.427952 150.98 172.741134 151.264489 172.234812 151.770812 
C 171.728489 152.277134 171.444 152.963952 171.444 153.68 
C 171.444 154.396048 171.728489 155.082866 172.234812 155.589188 
C 172.741134 156.095511 173.427952 156.38 174.144 156.38 
z
" clip-path="url(#pb6976b3ba7)" style="stroke: #000000; stroke-width: 2; stroke-linejoin: miter"/>
   </g>
   <g id="patch_7">
    <path d="M 282.144 156.38 
C 282.860048 156.38 283.546866 156.095511 284.053188 155.589188 
C 284.559511 155.082866 284.844 154.396048 284.844 153.68 
C 284.844 152.963952 284.559511 152.277134 284.053188 151.770812 
C 283.546866 151.264489 282.860048 150.98 282.144 150.98 
C 281.427952 150.98 280.741134 151.264489 280.234812 151.770812 
C 279.728489 152.277134 279.444 152.963952 279.444 153.68 
C 279.444 154.396048 279.728489 155.082866 280.234812 155.589188 
C 280.741134 156.095511 281.427952 156.38 282.144 156.38 
z
" clip-path="url(#pb6976b3ba7)" style="stroke: #000000; stroke-width: 2; stroke-linejoin: miter"/>
   </g>
   <g id="patch_8">
    <path d="M 399.204 156.38 
C 399.920048 156.38 400.606866 156.095511 401.113188 155.589188 
C 401.619511 155.082866 401.904 154.396048 401.904 153.68 
C 401.904 152.963952 401.619511 152.277134 401.113188 151.770812 
C 400.606866 151.264489 399.920048 150.98 399.204 150.98 
C 398.487952 150.98 397.801134 151.264489 397.294812 151.770812 
C 396.788489 152.277134 396.504 152.963952 396.504 153.68 
C 396.504 154.396048 396.788489 155.082866 397.294812 155.589188 
C 397.801134 156.095511 398.487952 156.38 399.204 156.38 
z
" clip-path="url(#pb6976b3ba7)" style="stroke: #000000; stroke-width: 2; stroke-linejoin: miter"/>
   </g>
   <g id="patch_9">
    <path d="M 507.204 156.38 
C 507.920048 156.38 508.606866 156.095511 509.113188 155.589188 
C 509.619511 155.082866 509.904 154.396048 509.904 153.68 
C 509.904 152.963952 509.619511 152.277134 509.113188 151.770812 
C 508.606866 151.264489 507.920048 150.98 507.204 150.98 
C 506.487952 150.98 505.801134 151.264489 505.294812 151.770812 
C 504.788489 152.277134 504.504 152.963952 504.504 153.68 
C 504.504 154.396048 504.788489 155.082866 505.294812 155.589188 
C 505.801134 156.095511 506.487952 156.38 507.204 156.38 
z
" clip-path="url(#pb6976b3ba7)" style="stroke: #000000; stroke-width: 2; stroke-linejoin: miter"/>
   </g>
   <g id="patch_10">
    <path d="M 624.264 156.38 
C 624.980048 156.38 625.666866 156.095511 626.173188 155.589188 
C 626.679511 155.082866 626.964 154.396048 626.964 153.68 
C 626.964 152.963952 626.679511 152.277134 626.173188 151.770812 
C 625.666866 151.264489 624.980048 150.98 624.264 150.98 
C 623.547952 150.98 622.861134 151.264489 622.354812 151.770812 
C 621.848489 152.277134 621.564 152.963952 621.564 153.68 
C 621.564 154.396048 621.848489 155.082866 622.354812 155.589188 
C 622.861134 156.095511 623.547952 156.38 624.264 156.38 
z
" clip-path="url(#pb6976b3ba7)" style="stroke: #000000; stroke-width: 2; stroke-linejoin: miter"/>
   </g>
   <g id="patch_11">
    <path d="M 687.264 156.38 
C 687.980048 156.38 688.666866 156.095511 689.173188 155.589188 
C 689.679511 155.082866 689.964 154.396048 689.964 153.68 
C 689.964 152.963952 689.679511 152.277134 689.173188 151.770812 
C 688.666866 151.264489 687.980048 150.98 687.264 150.98 
C 686.547952 150.98 685.861134 151.264489 685.354812 151.770812 
C 684.848489 152.277134 684.564 152.963952 684.564 153.68 
C 684.564 154.396048 684.848489 155.082866 685.354812 155.589188 
C 685.861134 156.095511 686.547952 156.38 687.264 156.38 
z
" clip-path="url(#pb6976b3ba7)" style="fill: #ffffff; stroke: #000000; stroke-width: 2; stroke-linejoin: miter"/>
   </g>
   <g id="text_17">
    <!-- $v_{out}$ -->
    <g transform="translate(693.564 157.543125) scale(0.14 -0.14)">
     <defs>
      <path id="DejaVuSans-Oblique-76" d="M 459 3500 
L 1069 3500 
L 1581 525 
L 3256 3500 
L 3866 3500 
L 1875 0 
L 1100 0 
L 459 3500 
z
" transform="scale(0.015625)"/>
      <path id="DejaVuSans-Oblique-6f" d="M 1625 -91 
Q 1009 -91 651 289 
Q 294 669 294 1325 
Q 294 1706 417 2101 
Q 541 2497 738 2766 
Q 1047 3184 1428 3384 
Q 1809 3584 2291 3584 
Q 2888 3584 3255 3212 
Q 3622 2841 3622 2241 
Q 3622 1825 3500 1412 
Q 3378 1000 3181 728 
Q 2875 309 2494 109 
Q 2113 -91 1625 -91 
z
M 891 1344 
Q 891 869 1089 633 
Q 1288 397 1691 397 
Q 2269 397 2648 901 
Q 3028 1406 3028 2181 
Q 3028 2634 2825 2865 
Q 2622 3097 2228 3097 
Q 1903 3097 1650 2945 
Q 1397 2794 1197 2484 
Q 1050 2253 970 1956 
Q 891 1659 891 1344 
z
" transform="scale(0.015625)"/>
      <path id="DejaVuSans-Oblique-75" d="M 428 1388 
L 838 3500 
L 1416 3500 
L 1006 1409 
Q 975 1256 961 1147 
Q 947 1038 947 966 
Q 947 700 1109 554 
Q 1272 409 1569 409 
Q 2031 409 2368 721 
Q 2706 1034 2809 1563 
L 3194 3500 
L 3769 3500 
L 3091 0 
L 2516 0 
L 2631 550 
Q 2388 244 2052 76 
Q 1716 -91 1338 -91 
Q 878 -91 622 161 
Q 366 413 366 863 
Q 366 956 381 1097 
Q 397 1238 428 1388 
z
" transform="scale(0.015625)"/>
      <path id="DejaVuSans-Oblique-74" d="M 2706 3500 
L 2619 3053 
L 1472 3053 
L 1100 1153 
Q 1081 1047 1072 975 
Q 1063 903 1063 863 
Q 1063 663 1183 572 
Q 1303 481 1569 481 
L 2150 481 
L 2053 0 
L 1503 0 
Q 991 0 739 200 
Q 488 400 488 806 
Q 488 878 497 964 
Q 506 1050 525 1153 
L 897 3053 
L 409 3053 
L 500 3500 
L 978 3500 
L 1172 4494 
L 1747 4494 
L 1556 3500 
L 2706 3500 
z
" transform="scale(0.015625)"/>
     </defs>
     <use xlink:href="#DejaVuSans-Oblique-76" transform="translate(0 0.3125)"/>
     <use xlink:href="#DejaVuSans-Oblique-6f" transform="translate(59.179688 -16.09375) scale(0.7)"/>
     <use xlink:href="#DejaVuSans-Oblique-75" transform="translate(102.006836 -16.09375) scale(0.7)"/>
     <use xlink:href="#DejaVuSans-Oblique-74" transform="translate(146.37207 -16.09375) scale(0.7)"/>
    </g>
   </g>
   <g id="patch_12">
    <path d="M 624.264 48.38 
C 624.980048 48.38 625.666866 48.095511 626.173188 47.589188 
C 626.679511 47.082866 626.964 46.396048 626.964 45.68 
C 626.964 44.963952 626.679511 44.277134 626.173188 43.770812 
C 625.666866 43.264489 624.980048 42.98 624.264 42.98 
C 623.547952 42.98 622.861134 43.264489 622.354812 43.770812 
C 621.848489 44.277134 621.564 44.963952 621.564 45.68 
C 621.564 46.396048 621.848489 47.082866 622.354812 47.589188 
C 622.861134 48.095511 623.547952 48.38 624.264 48.38 
z
" clip-path="url(#pb6976b3ba7)" style="stroke: #000000; stroke-width: 2; stroke-linejoin: miter"/>
   </g>
  </g>
 </g>
 <defs>
  <clipPath id="pb6976b3ba7">
   <rect x="0" y="0" width="728.652" height="287.48"/>
  </clipPath>
 </defs>
</svg>