<?xml version="1.0" encoding="utf-8" standalone="no"?>
<!DOCTYPE svg PUBLIC "-//W3C//DTD SVG 1.1//EN"
  "http://www.w3.org/Graphics/SVG/1.1/DTD/svg11.dtd">
<svg xmlns:xlink="http://www.w3.org/1999/xlink" width="281.3325pt" height="153.495485pt" viewBox="0 0 281.3325 153.495485" xmlns="http://www.w3.org/2000/svg" version="1.1">
 <metadata>
  <rdf:RDF xmlns:dc="http://purl.org/dc/elements/1.1/" xmlns:cc="http://creativecommons.org/ns#" xmlns:rdf="http://www.w3.org/1999/02/22-rdf-syntax-ns#">
   <cc:Work>
    <dc:type rdf:resource="http://purl.org/dc/dcmitype/StillImage"/>
    <dc:date>2023-09-26T14:24:10.524638</dc:date>
    <dc:format>image/svg+xml</dc:format>
    <dc:creator>
     <cc:Agent>
      <dc:title>Matplotlib v3.6.3, https://matplotlib.org/</dc:title>
     </cc:Agent>
    </dc:creator>
   </cc:Work>
  </rdf:RDF>
 </metadata>
 <defs>
  <style type="text/css">*{stroke-linejoin: round; stroke-linecap: butt}</style>
 </defs>
 <g id="figure_1">
  <g id="patch_1">
   <path d="M 0 153.495485 
L 281.3325 153.495485 
L 281.3325 0 
L 0 0 
z
" style="fill: #ffffff"/>
  </g>
  <g id="axes_1">
   <g id="line2d_1">
    <path d="M 18.27 32.976541 
L 69.03 32.976541 
M 69.03 23.976541 
L 69.03 41.976541 
M 75.51 23.976541 
L 75.51 41.976541 
M 75.51 32.976541 
L 126.27 32.976541 
" clip-path="url(#p61264024d7)" style="fill: none; stroke: #000000; stroke-width: 2; stroke-linecap: round"/>
   </g>
   <g id="line2d_2">
    <path d="M 126.27 32.976541 
L 162.27 32.976541 
L 162.40407 30.012354 
L 162.81176 27.021434 
L 163.484001 24.254624 
L 164.389538 21.943972 
L 164.914567 21.022233 
L 165.477547 20.28327 
L 166.069767 19.742659 
L 166.681902 19.411797 
L 167.304207 19.297656 
L 167.92672 19.402643 
L 168.539478 19.724545 
L 169.132723 20.256576 
L 169.697106 20.987522 
L 170.223888 21.901977 
L 171.133825 24.200849 
L 171.811342 26.96039 
L 172.22474 29.949161 
L 172.364472 32.916498 
L 172.243942 35.613535 
L 171.898382 37.814076 
L 171.381898 39.333565 
L 171.080537 39.79553 
L 170.762928 40.044564 
L 170.438923 40.075419 
L 170.118509 39.887444 
L 169.811597 39.484601 
L 169.276292 38.072626 
L 168.903029 35.957915 
L 168.748236 33.317825 
L 168.850019 30.373777 
L 169.224963 27.372683 
L 169.866748 24.56624 
L 170.746671 22.189821 
L 171.261402 21.227047 
L 171.816057 20.442733 
L 172.402102 19.85341 
L 173.010342 19.4715 
L 173.631113 19.305053 
L 174.254487 19.357579 
L 174.870482 19.627968 
L 175.469271 20.110523 
L 176.04139 20.795072 
L 176.577935 21.667186 
L 177.512621 23.897011 
L 178.22006 26.612988 
L 178.666046 29.58733 
L 178.838297 32.570584 
L 178.74749 35.31255 
L 178.426365 37.583263 
L 177.926977 39.192282 
L 177.630936 39.703972 
L 177.316332 40.004661 
L 176.992952 40.088011 
L 176.670768 39.952266 
L 176.359731 39.600287 
L 176.069551 39.039493 
L 175.588228 37.342893 
L 175.292289 35.004759 
L 175.231678 32.221186 
L 175.436602 29.225627 
L 175.914998 26.269317 
L 176.651866 23.600196 
L 177.610531 21.442118 
L 178.156371 20.613402 
L 178.735713 19.97608 
L 179.339502 19.543586 
L 179.958169 19.325035 
L 180.581831 19.325035 
L 181.200498 19.543586 
L 181.804287 19.97608 
L 182.383629 20.613402 
L 182.929469 21.442118 
L 183.43346 22.444761 
L 184.287065 24.884068 
L 184.897979 27.726743 
L 185.240087 30.734375 
L 185.309821 33.654719 
L 185.126457 36.242849 
L 184.730496 38.281704 
L 184.180269 39.600287 
L 183.869232 39.952266 
L 183.547048 40.088011 
L 183.223668 40.004661 
L 182.909064 39.703972 
L 182.613023 39.192282 
L 182.113635 37.583263 
L 181.79251 35.31255 
L 181.701703 32.570584 
L 181.873954 29.58733 
L 182.31994 26.612988 
L 183.027379 23.897011 
L 183.962065 21.667186 
L 184.49861 20.795072 
L 185.070729 20.110523 
L 185.669518 19.627968 
L 186.285513 19.357579 
L 186.908887 19.305053 
L 187.529658 19.4715 
L 188.137898 19.85341 
L 188.723943 20.442733 
L 189.278598 21.227047 
L 189.793329 22.189821 
L 190.673252 24.56624 
L 191.315037 27.372683 
L 191.689981 30.373777 
L 191.791764 33.317825 
L 191.636971 35.957915 
L 191.263708 38.072626 
L 190.728403 39.484601 
L 190.421491 39.887444 
L 190.101077 40.075419 
L 189.777072 40.044564 
L 189.459463 39.79553 
L 189.158102 39.333565 
L 188.641618 37.814076 
L 188.296058 35.613535 
L 188.175528 32.916498 
L 188.31526 29.949161 
L 188.728658 26.96039 
L 189.406175 24.200849 
L 190.316112 21.901977 
L 190.842894 20.987522 
L 191.407277 20.256576 
L 192.000522 19.724545 
L 192.61328 19.402643 
L 193.235793 19.297656 
L 193.858098 19.411797 
L 194.470233 19.742659 
L 195.062453 20.28327 
L 195.625433 21.022233 
L 196.150462 21.943972 
L 197.055999 24.254624 
L 197.72824 27.021434 
L 198.13593 30.012354 
L 198.27 32.976541 
L 234.27 32.976541 
L 234.27 32.976541 
" clip-path="url(#p61264024d7)" style="fill: none; stroke: #000000; stroke-width: 2; stroke-linecap: round"/>
   </g>
   <g id="line2d_3">
    <path d="M 234.27 32.976541 
L 234.27 68.976541 
L 243.27 71.976541 
L 225.27 77.976541 
L 243.27 83.976541 
L 225.27 89.976541 
L 243.27 95.976541 
L 225.27 101.976541 
L 234.27 104.976541 
L 234.27 140.976541 
" clip-path="url(#p61264024d7)" style="fill: none; stroke: #000000; stroke-width: 2; stroke-linecap: round"/>
   </g>
   <g id="line2d_4">
    <path d="M 234.27 32.976541 
L 243.27 32.976541 
L 252.27 32.976541 
" clip-path="url(#p61264024d7)" style="fill: none; stroke: #000000; stroke-width: 2; stroke-linecap: round"/>
   </g>
   <g id="line2d_5">
    <path d="M 234.27 140.976541 
L 243.27 140.976541 
L 252.27 140.976541 
" clip-path="url(#p61264024d7)" style="fill: none; stroke: #000000; stroke-width: 2; stroke-linecap: round"/>
   </g>
   <g id="line2d_6">
    <path d="M 234.27 140.976541 
L 126.27 140.976541 
L 18.27 140.976541 
" clip-path="url(#p61264024d7)" style="fill: none; stroke: #000000; stroke-width: 2; stroke-linecap: round"/>
   </g>
   <g id="text_1">
    <!-- $C_2$ -->
    <g transform="translate(64.895 17.776931) scale(0.125 -0.125)">
     <defs>
      <path id="DejaVuSans-Oblique-43" d="M 4447 4306 
L 4319 3641 
Q 4019 3944 3683 4091 
Q 3347 4238 2956 4238 
Q 2422 4238 2017 3981 
Q 1613 3725 1319 3200 
Q 1131 2863 1032 2486 
Q 934 2109 934 1728 
Q 934 1091 1264 756 
Q 1594 422 2222 422 
Q 2656 422 3056 561 
Q 3456 700 3834 978 
L 3688 231 
Q 3316 72 2936 -9 
Q 2556 -91 2175 -91 
Q 1278 -91 773 396 
Q 269 884 269 1753 
Q 269 2309 461 2846 
Q 653 3384 1013 3828 
Q 1394 4300 1883 4525 
Q 2372 4750 3022 4750 
Q 3422 4750 3780 4639 
Q 4138 4528 4447 4306 
z
" transform="scale(0.015625)"/>
      <path id="DejaVuSans-32" d="M 1228 531 
L 3431 531 
L 3431 0 
L 469 0 
L 469 531 
Q 828 903 1448 1529 
Q 2069 2156 2228 2338 
Q 2531 2678 2651 2914 
Q 2772 3150 2772 3378 
Q 2772 3750 2511 3984 
Q 2250 4219 1831 4219 
Q 1534 4219 1204 4116 
Q 875 4013 500 3803 
L 500 4441 
Q 881 4594 1212 4672 
Q 1544 4750 1819 4750 
Q 2544 4750 2975 4387 
Q 3406 4025 3406 3419 
Q 3406 3131 3298 2873 
Q 3191 2616 2906 2266 
Q 2828 2175 2409 1742 
Q 1991 1309 1228 531 
z
" transform="scale(0.015625)"/>
     </defs>
     <use xlink:href="#DejaVuSans-Oblique-43" transform="translate(0 0.78125)"/>
     <use xlink:href="#DejaVuSans-32" transform="translate(69.824219 -15.625) scale(0.7)"/>
    </g>
   </g>
   <g id="text_2">
    <!-- $L_2$ -->
    <g transform="translate(173.8325 13.098047) scale(0.125 -0.125)">
     <defs>
      <path id="DejaVuSans-Oblique-4c" d="M 1075 4666 
L 1709 4666 
L 909 525 
L 3181 525 
L 3078 0 
L 172 0 
L 1075 4666 
z
" transform="scale(0.015625)"/>
     </defs>
     <use xlink:href="#DejaVuSans-Oblique-4c" transform="translate(0 0.09375)"/>
     <use xlink:href="#DejaVuSans-32" transform="translate(55.712891 -16.3125) scale(0.7)"/>
    </g>
   </g>
   <g id="text_3">
    <!-- $R_L$ -->
    <g transform="translate(207.67 90.425759) scale(0.125 -0.125)">
     <defs>
      <path id="DejaVuSans-Oblique-52" d="M 1613 4147 
L 1294 2491 
L 2106 2491 
Q 2584 2491 2879 2755 
Q 3175 3019 3175 3444 
Q 3175 3784 2976 3965 
Q 2778 4147 2406 4147 
L 1613 4147 
z
M 2772 2241 
Q 2972 2194 3105 2009 
Q 3238 1825 3413 1275 
L 3809 0 
L 3144 0 
L 2778 1197 
Q 2638 1659 2453 1815 
Q 2269 1972 1888 1972 
L 1191 1972 
L 806 0 
L 172 0 
L 1081 4666 
L 2503 4666 
Q 3150 4666 3495 4373 
Q 3841 4081 3841 3531 
Q 3841 3044 3547 2687 
Q 3253 2331 2772 2241 
z
" transform="scale(0.015625)"/>
     </defs>
     <use xlink:href="#DejaVuSans-Oblique-52" transform="translate(0 0.09375)"/>
     <use xlink:href="#DejaVuSans-Oblique-4c" transform="translate(69.482422 -16.3125) scale(0.7)"/>
    </g>
   </g>
   <g id="text_4">
    <!-- + -->
    <g transform="translate(261.432695 63.425759) scale(0.125 -0.125)">
     <defs>
      <path id="DejaVuSans-2b" d="M 2944 4013 
L 2944 2272 
L 4684 2272 
L 4684 1741 
L 2944 1741 
L 2944 0 
L 2419 0 
L 2419 1741 
L 678 1741 
L 678 2272 
L 2419 2272 
L 2419 4013 
L 2944 4013 
z
" transform="scale(0.015625)"/>
     </defs>
     <use xlink:href="#DejaVuSans-2b"/>
    </g>
   </g>
   <g id="text_5">
    <!-- $v_{out}$ -->
    <g transform="translate(255.6075 90.425759) scale(0.125 -0.125)">
     <defs>
      <path id="DejaVuSans-Oblique-76" d="M 459 3500 
L 1069 3500 
L 1581 525 
L 3256 3500 
L 3866 3500 
L 1875 0 
L 1100 0 
L 459 3500 
z
" transform="scale(0.015625)"/>
      <path id="DejaVuSans-Oblique-6f" d="M 1625 -91 
Q 1009 -91 651 289 
Q 294 669 294 1325 
Q 294 1706 417 2101 
Q 541 2497 738 2766 
Q 1047 3184 1428 3384 
Q 1809 3584 2291 3584 
Q 2888 3584 3255 3212 
Q 3622 2841 3622 2241 
Q 3622 1825 3500 1412 
Q 3378 1000 3181 728 
Q 2875 309 2494 109 
Q 2113 -91 1625 -91 
z
M 891 1344 
Q 891 869 1089 633 
Q 1288 397 1691 397 
Q 2269 397 2648 901 
Q 3028 1406 3028 2181 
Q 3028 2634 2825 2865 
Q 2622 3097 2228 3097 
Q 1903 3097 1650 2945 
Q 1397 2794 1197 2484 
Q 1050 2253 970 1956 
Q 891 1659 891 1344 
z
" transform="scale(0.015625)"/>
      <path id="DejaVuSans-Oblique-75" d="M 428 1388 
L 838 3500 
L 1416 3500 
L 1006 1409 
Q 975 1256 961 1147 
Q 947 1038 947 966 
Q 947 700 1109 554 
Q 1272 409 1569 409 
Q 2031 409 2368 721 
Q 2706 1034 2809 1563 
L 3194 3500 
L 3769 3500 
L 3091 0 
L 2516 0 
L 2631 550 
Q 2388 244 2052 76 
Q 1716 -91 1338 -91 
Q 878 -91 622 161 
Q 366 413 366 863 
Q 366 956 381 1097 
Q 397 1238 428 1388 
z
" transform="scale(0.015625)"/>
      <path id="DejaVuSans-Oblique-74" d="M 2706 3500 
L 2619 3053 
L 1472 3053 
L 1100 1153 
Q 1081 1047 1072 975 
Q 1063 903 1063 863 
Q 1063 663 1183 572 
Q 1303 481 1569 481 
L 2150 481 
L 2053 0 
L 1503 0 
Q 991 0 739 200 
Q 488 400 488 806 
Q 488 878 497 964 
Q 506 1050 525 1153 
L 897 3053 
L 409 3053 
L 500 3500 
L 978 3500 
L 1172 4494 
L 1747 4494 
L 1556 3500 
L 2706 3500 
z
" transform="scale(0.015625)"/>
     </defs>
     <use xlink:href="#DejaVuSans-Oblique-76" transform="translate(0 0.3125)"/>
     <use xlink:href="#DejaVuSans-Oblique-6f" transform="translate(59.179688 -16.09375) scale(0.7)"/>
     <use xlink:href="#DejaVuSans-Oblique-75" transform="translate(102.006836 -16.09375) scale(0.7)"/>
     <use xlink:href="#DejaVuSans-Oblique-74" transform="translate(146.37207 -16.09375) scale(0.7)"/>
    </g>
   </g>
   <g id="text_6">
    <!-- $-$ -->
    <g transform="translate(261.42 117.425759) scale(0.125 -0.125)">
     <defs>
      <path id="DejaVuSans-2212" d="M 678 2272 
L 4684 2272 
L 4684 1741 
L 678 1741 
L 678 2272 
z
" transform="scale(0.015625)"/>
     </defs>
     <use xlink:href="#DejaVuSans-2212" transform="translate(0 0.5)"/>
    </g>
   </g>
   <g id="patch_2">
    <path d="M 18.27 35.676541 
C 18.986048 35.676541 19.672866 35.392052 20.179188 34.885729 
C 20.685511 34.379406 20.97 33.692589 20.97 32.976541 
C 20.97 32.260492 20.685511 31.573675 20.179188 31.067352 
C 19.672866 30.56103 18.986048 30.276541 18.27 30.276541 
C 17.553952 30.276541 16.867134 30.56103 16.360812 31.067352 
C 15.854489 31.573675 15.57 32.260492 15.57 32.976541 
C 15.57 33.692589 15.854489 34.379406 16.360812 34.885729 
C 16.867134 35.392052 17.553952 35.676541 18.27 35.676541 
z
" clip-path="url(#p61264024d7)" style="stroke: #000000; stroke-width: 2; stroke-linejoin: miter"/>
   </g>
   <g id="patch_3">
    <path d="M 252.27 35.676541 
C 252.986048 35.676541 253.672866 35.392052 254.179188 34.885729 
C 254.685511 34.379406 254.97 33.692589 254.97 32.976541 
C 254.97 32.260492 254.685511 31.573675 254.179188 31.067352 
C 253.672866 30.56103 252.986048 30.276541 252.27 30.276541 
C 251.553952 30.276541 250.867134 30.56103 250.360812 31.067352 
C 249.854489 31.573675 249.57 32.260492 249.57 32.976541 
C 249.57 33.692589 249.854489 34.379406 250.360812 34.885729 
C 250.867134 35.392052 251.553952 35.676541 252.27 35.676541 
z
" clip-path="url(#p61264024d7)" style="fill: #ffffff; stroke: #000000; stroke-width: 2; stroke-linejoin: miter"/>
   </g>
   <g id="patch_4">
    <path d="M 252.27 143.676541 
C 252.986048 143.676541 253.672866 143.392052 254.179188 142.885729 
C 254.685511 142.379406 254.97 141.692589 254.97 140.976541 
C 254.97 140.260492 254.685511 139.573675 254.179188 139.067352 
C 253.672866 138.56103 252.986048 138.276541 252.27 138.276541 
C 251.553952 138.276541 250.867134 138.56103 250.360812 139.067352 
C 249.854489 139.573675 249.57 140.260492 249.57 140.976541 
C 249.57 141.692589 249.854489 142.379406 250.360812 142.885729 
C 250.867134 143.392052 251.553952 143.676541 252.27 143.676541 
z
" clip-path="url(#p61264024d7)" style="fill: #ffffff; stroke: #000000; stroke-width: 2; stroke-linejoin: miter"/>
   </g>
   <g id="patch_5">
    <path d="M 18.27 143.676541 
C 18.986048 143.676541 19.672866 143.392052 20.179188 142.885729 
C 20.685511 142.379406 20.97 141.692589 20.97 140.976541 
C 20.97 140.260492 20.685511 139.573675 20.179188 139.067352 
C 19.672866 138.56103 18.986048 138.276541 18.27 138.276541 
C 17.553952 138.276541 16.867134 138.56103 16.360812 139.067352 
C 15.854489 139.573675 15.57 140.260492 15.57 140.976541 
C 15.57 141.692589 15.854489 142.379406 16.360812 142.885729 
C 16.867134 143.392052 17.553952 143.676541 18.27 143.676541 
z
" clip-path="url(#p61264024d7)" style="stroke: #000000; stroke-width: 2; stroke-linejoin: miter"/>
   </g>
  </g>
 </g>
 <defs>
  <clipPath id="p61264024d7">
   <rect x="3.6" y="13.078712" width="263.34" height="136.816773"/>
  </clipPath>
 </defs>
</svg>