<?xml version="1.0" encoding="utf-8" standalone="no"?>
<!DOCTYPE svg PUBLIC "-//W3C//DTD SVG 1.1//EN"
  "http://www.w3.org/Graphics/SVG/1.1/DTD/svg11.dtd">
<svg xmlns:xlink="http://www.w3.org/1999/xlink" width="500.388pt" height="135.36pt" viewBox="0 0 500.388 135.36" xmlns="http://www.w3.org/2000/svg" version="1.1">
 <metadata>
  <rdf:RDF xmlns:dc="http://purl.org/dc/elements/1.1/" xmlns:cc="http://creativecommons.org/ns#" xmlns:rdf="http://www.w3.org/1999/02/22-rdf-syntax-ns#">
   <cc:Work>
    <dc:type rdf:resource="http://purl.org/dc/dcmitype/StillImage"/>
    <dc:date>2025-11-19T00:23:21.744696</dc:date>
    <dc:format>image/svg+xml</dc:format>
    <dc:creator>
     <cc:Agent>
      <dc:title>Matplotlib v3.10.8, https://matplotlib.org/</dc:title>
     </cc:Agent>
    </dc:creator>
   </cc:Work>
  </rdf:RDF>
 </metadata>
 <defs>
  <style type="text/css">*{stroke-linejoin: round; stroke-linecap: butt}</style>
 </defs>
 <g id="figure_1">
  <g id="patch_1">
   <path d="M 0 135.36 
L 500.388 135.36 
L 500.388 0 
L 0 0 
z
" style="fill: #ffffff"/>
  </g>
  <g id="axes_1">
   <g id="patch_2">
    <path d="M 314.646 40.68 
L 314.646 4.68 
L 422.646 4.68 
L 422.646 76.68 
L 314.646 76.68 
z
" clip-path="url(#p1f5a60a72a)" style="fill: #add8e6; stroke: #add8e6; stroke-linejoin: miter"/>
   </g>
   <g id="line2d_1">
    <path d="M 26.646 40.68 
L 44.646 40.68 
L 62.646 40.68 
" clip-path="url(#p1f5a60a72a)" style="fill: none; stroke: #000000; stroke-width: 2; stroke-linecap: round"/>
   </g>
   <g id="line2d_2">
    <path d="M 80.646 130.68 
L 170.646 130.68 
L 170.646 22.68 
L 80.646 22.68 
L 80.646 130.68 
" clip-path="url(#p1f5a60a72a)" style="fill: none; stroke: #000000; stroke-width: 2; stroke-linecap: round"/>
   </g>
   <g id="line2d_3">
    <path d="M 80.646 112.68 
L 62.646 112.68 
" clip-path="url(#p1f5a60a72a)" style="fill: none; stroke: #000000; stroke-width: 2; stroke-linecap: round"/>
   </g>
   <g id="line2d_4">
    <path d="M 80.646 40.68 
L 62.646 40.68 
" clip-path="url(#p1f5a60a72a)" style="fill: none; stroke: #000000; stroke-width: 2; stroke-linecap: round"/>
   </g>
   <g id="line2d_5">
    <path d="M 170.646 112.68 
L 188.646 112.68 
" clip-path="url(#p1f5a60a72a)" style="fill: none; stroke: #000000; stroke-width: 2; stroke-linecap: round"/>
   </g>
   <g id="line2d_6">
    <path d="M 170.646 40.68 
L 188.646 40.68 
" clip-path="url(#p1f5a60a72a)" style="fill: none; stroke: #000000; stroke-width: 2; stroke-linecap: round"/>
   </g>
   <g id="line2d_7">
    <path d="M 188.646 112.68 
L 206.646 112.68 
L 224.646 112.68 
" clip-path="url(#p1f5a60a72a)" style="fill: none; stroke: #000000; stroke-width: 2; stroke-linecap: round"/>
   </g>
   <g id="line2d_8">
    <path d="M 188.646 40.68 
L 206.646 40.68 
L 224.646 40.68 
" clip-path="url(#p1f5a60a72a)" style="fill: none; stroke: #000000; stroke-width: 2; stroke-linecap: round"/>
   </g>
   <g id="line2d_9">
    <path d="M 62.646 112.68 
L 44.646 112.68 
L 26.646 112.68 
" clip-path="url(#p1f5a60a72a)" style="fill: none; stroke: #000000; stroke-width: 2; stroke-linecap: round"/>
   </g>
   <g id="line2d_10">
    <path d="M 314.646 40.68 
L 314.646 4.68 
L 422.646 4.68 
L 422.646 76.68 
L 314.646 76.68 
L 314.646 40.68 
" clip-path="url(#p1f5a60a72a)" style="fill: none; stroke: #0000ff; stroke-width: 2; stroke-linecap: round"/>
   </g>
   <g id="text_1">
    <!-- Generic -->
    <g transform="translate(105.978188 70.584375) scale(0.12 -0.12)">
     <defs>
      <path id="DejaVuSans-47" d="M 3809 666 
L 3809 1919 
L 2778 1919 
L 2778 2438 
L 4434 2438 
L 4434 434 
Q 4069 175 3628 42 
Q 3188 -91 2688 -91 
Q 1594 -91 976 548 
Q 359 1188 359 2328 
Q 359 3472 976 4111 
Q 1594 4750 2688 4750 
Q 3144 4750 3555 4637 
Q 3966 4525 4313 4306 
L 4313 3634 
Q 3963 3931 3569 4081 
Q 3175 4231 2741 4231 
Q 1884 4231 1454 3753 
Q 1025 3275 1025 2328 
Q 1025 1384 1454 906 
Q 1884 428 2741 428 
Q 3075 428 3337 486 
Q 3600 544 3809 666 
z
" transform="scale(0.015625)"/>
      <path id="DejaVuSans-65" d="M 3597 1894 
L 3597 1613 
L 953 1613 
Q 991 1019 1311 708 
Q 1631 397 2203 397 
Q 2534 397 2845 478 
Q 3156 559 3463 722 
L 3463 178 
Q 3153 47 2828 -22 
Q 2503 -91 2169 -91 
Q 1331 -91 842 396 
Q 353 884 353 1716 
Q 353 2575 817 3079 
Q 1281 3584 2069 3584 
Q 2775 3584 3186 3129 
Q 3597 2675 3597 1894 
z
M 3022 2063 
Q 3016 2534 2758 2815 
Q 2500 3097 2075 3097 
Q 1594 3097 1305 2825 
Q 1016 2553 972 2059 
L 3022 2063 
z
" transform="scale(0.015625)"/>
      <path id="DejaVuSans-6e" d="M 3513 2113 
L 3513 0 
L 2938 0 
L 2938 2094 
Q 2938 2591 2744 2837 
Q 2550 3084 2163 3084 
Q 1697 3084 1428 2787 
Q 1159 2491 1159 1978 
L 1159 0 
L 581 0 
L 581 3500 
L 1159 3500 
L 1159 2956 
Q 1366 3272 1645 3428 
Q 1925 3584 2291 3584 
Q 2894 3584 3203 3211 
Q 3513 2838 3513 2113 
z
" transform="scale(0.015625)"/>
      <path id="DejaVuSans-72" d="M 2631 2963 
Q 2534 3019 2420 3045 
Q 2306 3072 2169 3072 
Q 1681 3072 1420 2755 
Q 1159 2438 1159 1844 
L 1159 0 
L 581 0 
L 581 3500 
L 1159 3500 
L 1159 2956 
Q 1341 3275 1631 3429 
Q 1922 3584 2338 3584 
Q 2397 3584 2469 3576 
Q 2541 3569 2628 3553 
L 2631 2963 
z
" transform="scale(0.015625)"/>
      <path id="DejaVuSans-69" d="M 603 3500 
L 1178 3500 
L 1178 0 
L 603 0 
L 603 3500 
z
M 603 4863 
L 1178 4863 
L 1178 4134 
L 603 4134 
L 603 4863 
z
" transform="scale(0.015625)"/>
      <path id="DejaVuSans-63" d="M 3122 3366 
L 3122 2828 
Q 2878 2963 2633 3030 
Q 2388 3097 2138 3097 
Q 1578 3097 1268 2742 
Q 959 2388 959 1747 
Q 959 1106 1268 751 
Q 1578 397 2138 397 
Q 2388 397 2633 464 
Q 2878 531 3122 666 
L 3122 134 
Q 2881 22 2623 -34 
Q 2366 -91 2075 -91 
Q 1284 -91 818 406 
Q 353 903 353 1747 
Q 353 2603 823 3093 
Q 1294 3584 2113 3584 
Q 2378 3584 2631 3529 
Q 2884 3475 3122 3366 
z
" transform="scale(0.015625)"/>
     </defs>
     <use xlink:href="#DejaVuSans-47"/>
     <use xlink:href="#DejaVuSans-65" transform="translate(77.490234 0)"/>
     <use xlink:href="#DejaVuSans-6e" transform="translate(139.013672 0)"/>
     <use xlink:href="#DejaVuSans-65" transform="translate(202.392578 0)"/>
     <use xlink:href="#DejaVuSans-72" transform="translate(263.916016 0)"/>
     <use xlink:href="#DejaVuSans-69" transform="translate(305.029297 0)"/>
     <use xlink:href="#DejaVuSans-63" transform="translate(332.8125 0)"/>
    </g>
    <!-- Circuit -->
    <g transform="translate(109.93725 82.198125) scale(0.12 -0.12)">
     <defs>
      <path id="DejaVuSans-43" d="M 4122 4306 
L 4122 3641 
Q 3803 3938 3442 4084 
Q 3081 4231 2675 4231 
Q 1875 4231 1450 3742 
Q 1025 3253 1025 2328 
Q 1025 1406 1450 917 
Q 1875 428 2675 428 
Q 3081 428 3442 575 
Q 3803 722 4122 1019 
L 4122 359 
Q 3791 134 3420 21 
Q 3050 -91 2638 -91 
Q 1578 -91 968 557 
Q 359 1206 359 2328 
Q 359 3453 968 4101 
Q 1578 4750 2638 4750 
Q 3056 4750 3426 4639 
Q 3797 4528 4122 4306 
z
" transform="scale(0.015625)"/>
      <path id="DejaVuSans-75" d="M 544 1381 
L 544 3500 
L 1119 3500 
L 1119 1403 
Q 1119 906 1312 657 
Q 1506 409 1894 409 
Q 2359 409 2629 706 
Q 2900 1003 2900 1516 
L 2900 3500 
L 3475 3500 
L 3475 0 
L 2900 0 
L 2900 538 
Q 2691 219 2414 64 
Q 2138 -91 1772 -91 
Q 1169 -91 856 284 
Q 544 659 544 1381 
z
M 1991 3584 
L 1991 3584 
z
" transform="scale(0.015625)"/>
      <path id="DejaVuSans-74" d="M 1172 4494 
L 1172 3500 
L 2356 3500 
L 2356 3053 
L 1172 3053 
L 1172 1153 
Q 1172 725 1289 603 
Q 1406 481 1766 481 
L 2356 481 
L 2356 0 
L 1766 0 
Q 1100 0 847 248 
Q 594 497 594 1153 
L 594 3053 
L 172 3053 
L 172 3500 
L 594 3500 
L 594 4494 
L 1172 4494 
z
" transform="scale(0.015625)"/>
     </defs>
     <use xlink:href="#DejaVuSans-43"/>
     <use xlink:href="#DejaVuSans-69" transform="translate(69.824219 0)"/>
     <use xlink:href="#DejaVuSans-72" transform="translate(97.607422 0)"/>
     <use xlink:href="#DejaVuSans-63" transform="translate(136.470703 0)"/>
     <use xlink:href="#DejaVuSans-75" transform="translate(191.451172 0)"/>
     <use xlink:href="#DejaVuSans-69" transform="translate(254.830078 0)"/>
     <use xlink:href="#DejaVuSans-74" transform="translate(282.613281 0)"/>
    </g>
   </g>
   <g id="text_2">
    <!-- - -->
    <g style="fill: #ff0000" transform="translate(24.120531 98.543125) scale(0.14 -0.14)">
     <defs>
      <path id="DejaVuSans-2d" d="M 313 2009 
L 1997 2009 
L 1997 1497 
L 313 1497 
L 313 2009 
z
" transform="scale(0.015625)"/>
     </defs>
     <use xlink:href="#DejaVuSans-2d"/>
    </g>
   </g>
   <g id="text_3">
    <!-- $V_{in}(s)$ -->
    <g style="fill: #ff0000" transform="translate(8.026 80.543125) scale(0.14 -0.14)">
     <defs>
      <path id="DejaVuSans-Oblique-56" d="M 1319 0 
L 500 4666 
L 1119 4666 
L 1797 653 
L 4063 4666 
L 4750 4666 
L 2053 0 
L 1319 0 
z
" transform="scale(0.015625)"/>
      <path id="DejaVuSans-Oblique-69" d="M 1172 4863 
L 1747 4863 
L 1606 4134 
L 1031 4134 
L 1172 4863 
z
M 909 3500 
L 1484 3500 
L 800 0 
L 225 0 
L 909 3500 
z
" transform="scale(0.015625)"/>
      <path id="DejaVuSans-Oblique-6e" d="M 3566 2113 
L 3156 0 
L 2578 0 
L 2988 2091 
Q 3016 2238 3031 2350 
Q 3047 2463 3047 2528 
Q 3047 2791 2881 2937 
Q 2716 3084 2419 3084 
Q 1956 3084 1622 2776 
Q 1288 2469 1184 1941 
L 800 0 
L 225 0 
L 903 3500 
L 1478 3500 
L 1363 2950 
Q 1603 3253 1940 3418 
Q 2278 3584 2650 3584 
Q 3113 3584 3367 3334 
Q 3622 3084 3622 2631 
Q 3622 2519 3608 2391 
Q 3594 2263 3566 2113 
z
" transform="scale(0.015625)"/>
      <path id="DejaVuSans-28" d="M 1984 4856 
Q 1566 4138 1362 3434 
Q 1159 2731 1159 2009 
Q 1159 1288 1364 580 
Q 1569 -128 1984 -844 
L 1484 -844 
Q 1016 -109 783 600 
Q 550 1309 550 2009 
Q 550 2706 781 3412 
Q 1013 4119 1484 4856 
L 1984 4856 
z
" transform="scale(0.015625)"/>
      <path id="DejaVuSans-Oblique-73" d="M 3200 3397 
L 3091 2853 
Q 2863 2978 2609 3040 
Q 2356 3103 2088 3103 
Q 1634 3103 1373 2948 
Q 1113 2794 1113 2528 
Q 1113 2219 1719 2053 
Q 1766 2041 1788 2034 
L 1972 1978 
Q 2547 1819 2739 1644 
Q 2931 1469 2931 1166 
Q 2931 609 2489 259 
Q 2047 -91 1331 -91 
Q 1053 -91 747 -37 
Q 441 16 72 128 
L 184 722 
Q 500 559 806 475 
Q 1113 391 1394 391 
Q 1816 391 2080 572 
Q 2344 753 2344 1031 
Q 2344 1331 1650 1516 
L 1591 1531 
L 1394 1581 
Q 956 1697 753 1886 
Q 550 2075 550 2369 
Q 550 2928 970 3256 
Q 1391 3584 2113 3584 
Q 2397 3584 2667 3537 
Q 2938 3491 3200 3397 
z
" transform="scale(0.015625)"/>
      <path id="DejaVuSans-29" d="M 513 4856 
L 1013 4856 
Q 1481 4119 1714 3412 
Q 1947 2706 1947 2009 
Q 1947 1309 1714 600 
Q 1481 -109 1013 -844 
L 513 -844 
Q 928 -128 1133 580 
Q 1338 1288 1338 2009 
Q 1338 2731 1133 3434 
Q 928 4138 513 4856 
z
" transform="scale(0.015625)"/>
     </defs>
     <use xlink:href="#DejaVuSans-Oblique-56" transform="translate(0 0.125)"/>
     <use xlink:href="#DejaVuSans-Oblique-69" transform="translate(68.408203 -16.28125) scale(0.7)"/>
     <use xlink:href="#DejaVuSans-Oblique-6e" transform="translate(87.856445 -16.28125) scale(0.7)"/>
     <use xlink:href="#DejaVuSans-28" transform="translate(134.956055 0.125)"/>
     <use xlink:href="#DejaVuSans-Oblique-73" transform="translate(173.969727 0.125)"/>
     <use xlink:href="#DejaVuSans-29" transform="translate(226.069336 0.125)"/>
    </g>
   </g>
   <g id="text_4">
    <!-- + -->
    <g style="fill: #ff0000" transform="translate(20.780219 62.543125) scale(0.14 -0.14)">
     <defs>
      <path id="DejaVuSans-2b" d="M 2944 4013 
L 2944 2272 
L 4684 2272 
L 4684 1741 
L 2944 1741 
L 2944 0 
L 2419 0 
L 2419 1741 
L 678 1741 
L 678 2272 
L 2419 2272 
L 2419 4013 
L 2944 4013 
z
" transform="scale(0.015625)"/>
     </defs>
     <use xlink:href="#DejaVuSans-2b"/>
    </g>
   </g>
   <g id="text_5">
    <!-- - -->
    <g style="fill: #008000" transform="translate(222.120531 98.543125) scale(0.14 -0.14)">
     <use xlink:href="#DejaVuSans-2d"/>
    </g>
   </g>
   <g id="text_6">
    <!-- $V_{out}(s)$ -->
    <g style="fill: #008000" transform="translate(202.526 80.543125) scale(0.14 -0.14)">
     <defs>
      <path id="DejaVuSans-Oblique-6f" d="M 1625 -91 
Q 1009 -91 651 289 
Q 294 669 294 1325 
Q 294 1706 417 2101 
Q 541 2497 738 2766 
Q 1047 3184 1428 3384 
Q 1809 3584 2291 3584 
Q 2888 3584 3255 3212 
Q 3622 2841 3622 2241 
Q 3622 1825 3500 1412 
Q 3378 1000 3181 728 
Q 2875 309 2494 109 
Q 2113 -91 1625 -91 
z
M 891 1344 
Q 891 869 1089 633 
Q 1288 397 1691 397 
Q 2269 397 2648 901 
Q 3028 1406 3028 2181 
Q 3028 2634 2825 2865 
Q 2622 3097 2228 3097 
Q 1903 3097 1650 2945 
Q 1397 2794 1197 2484 
Q 1050 2253 970 1956 
Q 891 1659 891 1344 
z
" transform="scale(0.015625)"/>
      <path id="DejaVuSans-Oblique-75" d="M 428 1388 
L 838 3500 
L 1416 3500 
L 1006 1409 
Q 975 1256 961 1147 
Q 947 1038 947 966 
Q 947 700 1109 554 
Q 1272 409 1569 409 
Q 2031 409 2368 721 
Q 2706 1034 2809 1563 
L 3194 3500 
L 3769 3500 
L 3091 0 
L 2516 0 
L 2631 550 
Q 2388 244 2052 76 
Q 1716 -91 1338 -91 
Q 878 -91 622 161 
Q 366 413 366 863 
Q 366 956 381 1097 
Q 397 1238 428 1388 
z
" transform="scale(0.015625)"/>
      <path id="DejaVuSans-Oblique-74" d="M 2706 3500 
L 2619 3053 
L 1472 3053 
L 1100 1153 
Q 1081 1047 1072 975 
Q 1063 903 1063 863 
Q 1063 663 1183 572 
Q 1303 481 1569 481 
L 2150 481 
L 2053 0 
L 1503 0 
Q 991 0 739 200 
Q 488 400 488 806 
Q 488 878 497 964 
Q 506 1050 525 1153 
L 897 3053 
L 409 3053 
L 500 3500 
L 978 3500 
L 1172 4494 
L 1747 4494 
L 1556 3500 
L 2706 3500 
z
" transform="scale(0.015625)"/>
     </defs>
     <use xlink:href="#DejaVuSans-Oblique-56" transform="translate(0 0.125)"/>
     <use xlink:href="#DejaVuSans-Oblique-6f" transform="translate(68.408203 -16.28125) scale(0.7)"/>
     <use xlink:href="#DejaVuSans-Oblique-75" transform="translate(111.235352 -16.28125) scale(0.7)"/>
     <use xlink:href="#DejaVuSans-Oblique-74" transform="translate(155.600586 -16.28125) scale(0.7)"/>
     <use xlink:href="#DejaVuSans-28" transform="translate(185.78125 0.125)"/>
     <use xlink:href="#DejaVuSans-Oblique-73" transform="translate(224.794922 0.125)"/>
     <use xlink:href="#DejaVuSans-29" transform="translate(276.894531 0.125)"/>
    </g>
   </g>
   <g id="text_7">
    <!-- + -->
    <g style="fill: #008000" transform="translate(218.780219 62.543125) scale(0.14 -0.14)">
     <use xlink:href="#DejaVuSans-2b"/>
    </g>
   </g>
   <g id="text_8">
    <!-- $T(s)=\frac{\partial V_{out}(s)}{\partial V_{in}(s)}$ -->
    <g style="fill: #0000ff" transform="translate(316.086 45.81) scale(0.18 -0.18)">
     <defs>
      <path id="DejaVuSans-Oblique-54" d="M 378 4666 
L 4325 4666 
L 4225 4134 
L 2559 4134 
L 1759 0 
L 1125 0 
L 1925 4134 
L 275 4134 
L 378 4666 
z
" transform="scale(0.015625)"/>
      <path id="DejaVuSans-3d" d="M 678 2906 
L 4684 2906 
L 4684 2381 
L 678 2381 
L 678 2906 
z
M 678 1631 
L 4684 1631 
L 4684 1100 
L 678 1100 
L 678 1631 
z
" transform="scale(0.015625)"/>
      <path id="DejaVuSans-2202" d="M 1366 -91 
Q 925 -91 638 175 
Q 297 491 297 1063 
Q 297 1656 597 2119 
Q 906 2594 1463 2594 
Q 1828 2594 2116 2366 
Q 2284 2231 2400 2006 
Q 2441 2259 2441 2547 
Q 2441 2969 2341 3213 
Q 2119 3753 1531 3753 
Q 1309 3753 966 3616 
L 966 4141 
Q 1328 4238 1653 4238 
Q 2491 4238 2847 3469 
Q 3013 3106 3013 2566 
Q 3013 2213 2934 1803 
Q 2738 778 2228 291 
Q 1828 -91 1366 -91 
z
M 831 969 
Q 831 656 969 488 
Q 1116 309 1341 309 
Q 1541 309 1700 450 
Q 1925 644 2091 959 
Q 2228 1219 2297 1497 
Q 2019 2169 1538 2169 
Q 1125 2169 944 1625 
Q 831 1288 831 969 
z
" transform="scale(0.015625)"/>
     </defs>
     <use xlink:href="#DejaVuSans-Oblique-54" transform="translate(0 0.909531)"/>
     <use xlink:href="#DejaVuSans-28" transform="translate(61.083984 0.909531)"/>
     <use xlink:href="#DejaVuSans-Oblique-73" transform="translate(100.097656 0.909531)"/>
     <use xlink:href="#DejaVuSans-29" transform="translate(152.197266 0.909531)"/>
     <use xlink:href="#DejaVuSans-3d" transform="translate(210.693359 0.909531)"/>
     <use xlink:href="#DejaVuSans-2202" transform="translate(313.964844 56.8875) scale(0.7)"/>
     <use xlink:href="#DejaVuSans-Oblique-56" transform="translate(350.161133 56.8875) scale(0.7)"/>
     <use xlink:href="#DejaVuSans-Oblique-6f" transform="translate(398.046875 45.403125) scale(0.49)"/>
     <use xlink:href="#DejaVuSans-Oblique-75" transform="translate(428.025879 45.403125) scale(0.49)"/>
     <use xlink:href="#DejaVuSans-Oblique-74" transform="translate(459.081543 45.403125) scale(0.49)"/>
     <use xlink:href="#DejaVuSans-28" transform="translate(480.208008 56.8875) scale(0.7)"/>
     <use xlink:href="#DejaVuSans-Oblique-73" transform="translate(507.517578 56.8875) scale(0.7)"/>
     <use xlink:href="#DejaVuSans-29" transform="translate(543.987305 56.8875) scale(0.7)"/>
     <use xlink:href="#DejaVuSans-2202" transform="translate(331.964844 -39.656094) scale(0.7)"/>
     <use xlink:href="#DejaVuSans-Oblique-56" transform="translate(368.161133 -39.656094) scale(0.7)"/>
     <use xlink:href="#DejaVuSans-Oblique-69" transform="translate(416.046875 -51.140469) scale(0.49)"/>
     <use xlink:href="#DejaVuSans-Oblique-6e" transform="translate(429.660645 -51.140469) scale(0.49)"/>
     <use xlink:href="#DejaVuSans-28" transform="translate(462.630371 -39.656094) scale(0.7)"/>
     <use xlink:href="#DejaVuSans-Oblique-73" transform="translate(489.939941 -39.656094) scale(0.7)"/>
     <use xlink:href="#DejaVuSans-29" transform="translate(526.409668 -39.656094) scale(0.7)"/>
     <path d="M 313.964844 19.706406 
L 313.964844 25.956406 
L 571.296875 25.956406 
L 571.296875 19.706406 
L 313.964844 19.706406 
z
"/>
    </g>
   </g>
   <g id="patch_3">
    <path d="M 26.646 43.38 
C 27.362048 43.38 28.048866 43.095511 28.555188 42.589188 
C 29.061511 42.082866 29.346 41.396048 29.346 40.68 
C 29.346 39.963952 29.061511 39.277134 28.555188 38.770812 
C 28.048866 38.264489 27.362048 37.98 26.646 37.98 
C 25.929952 37.98 25.243134 38.264489 24.736812 38.770812 
C 24.230489 39.277134 23.946 39.963952 23.946 40.68 
C 23.946 41.396048 24.230489 42.082866 24.736812 42.589188 
C 25.243134 43.095511 25.929952 43.38 26.646 43.38 
z
" clip-path="url(#p1f5a60a72a)" style="fill: #ffffff; stroke: #000000; stroke-width: 2; stroke-linejoin: miter"/>
   </g>
   <g id="patch_4">
    <path d="M 62.646 43.38 
C 63.362048 43.38 64.048866 43.095511 64.555188 42.589188 
C 65.061511 42.082866 65.346 41.396048 65.346 40.68 
C 65.346 39.963952 65.061511 39.277134 64.555188 38.770812 
C 64.048866 38.264489 63.362048 37.98 62.646 37.98 
C 61.929952 37.98 61.243134 38.264489 60.736812 38.770812 
C 60.230489 39.277134 59.946 39.963952 59.946 40.68 
C 59.946 41.396048 60.230489 42.082866 60.736812 42.589188 
C 61.243134 43.095511 61.929952 43.38 62.646 43.38 
z
" clip-path="url(#p1f5a60a72a)" style="stroke: #000000; stroke-width: 2; stroke-linejoin: miter"/>
   </g>
   <g id="patch_5">
    <path d="M 224.646 115.38 
C 225.362048 115.38 226.048866 115.095511 226.555188 114.589188 
C 227.061511 114.082866 227.346 113.396048 227.346 112.68 
C 227.346 111.963952 227.061511 111.277134 226.555188 110.770812 
C 226.048866 110.264489 225.362048 109.98 224.646 109.98 
C 223.929952 109.98 223.243134 110.264489 222.736812 110.770812 
C 222.230489 111.277134 221.946 111.963952 221.946 112.68 
C 221.946 113.396048 222.230489 114.082866 222.736812 114.589188 
C 223.243134 115.095511 223.929952 115.38 224.646 115.38 
z
" clip-path="url(#p1f5a60a72a)" style="fill: #ffffff; stroke: #000000; stroke-width: 2; stroke-linejoin: miter"/>
   </g>
   <g id="patch_6">
    <path d="M 224.646 43.38 
C 225.362048 43.38 226.048866 43.095511 226.555188 42.589188 
C 227.061511 42.082866 227.346 41.396048 227.346 40.68 
C 227.346 39.963952 227.061511 39.277134 226.555188 38.770812 
C 226.048866 38.264489 225.362048 37.98 224.646 37.98 
C 223.929952 37.98 223.243134 38.264489 222.736812 38.770812 
C 222.230489 39.277134 221.946 39.963952 221.946 40.68 
C 221.946 41.396048 222.230489 42.082866 222.736812 42.589188 
C 223.243134 43.095511 223.929952 43.38 224.646 43.38 
z
" clip-path="url(#p1f5a60a72a)" style="fill: #ffffff; stroke: #000000; stroke-width: 2; stroke-linejoin: miter"/>
   </g>
   <g id="patch_7">
    <path d="M 26.646 115.38 
C 27.362048 115.38 28.048866 115.095511 28.555188 114.589188 
C 29.061511 114.082866 29.346 113.396048 29.346 112.68 
C 29.346 111.963952 29.061511 111.277134 28.555188 110.770812 
C 28.048866 110.264489 27.362048 109.98 26.646 109.98 
C 25.929952 109.98 25.243134 110.264489 24.736812 110.770812 
C 24.230489 111.277134 23.946 111.963952 23.946 112.68 
C 23.946 113.396048 24.230489 114.082866 24.736812 114.589188 
C 25.243134 115.095511 25.929952 115.38 26.646 115.38 
z
" clip-path="url(#p1f5a60a72a)" style="fill: #ffffff; stroke: #000000; stroke-width: 2; stroke-linejoin: miter"/>
   </g>
  </g>
 </g>
 <defs>
  <clipPath id="p1f5a60a72a">
   <rect x="0" y="0" width="500.388" height="135.36"/>
  </clipPath>
 </defs>
</svg>