<?xml version="1.0" encoding="utf-8" standalone="no"?>
<!DOCTYPE svg PUBLIC "-//W3C//DTD SVG 1.1//EN"
  "http://www.w3.org/Graphics/SVG/1.1/DTD/svg11.dtd">
<svg xmlns:xlink="http://www.w3.org/1999/xlink" width="482.4pt" height="86.4pt" viewBox="0 0 482.4 86.4" xmlns="http://www.w3.org/2000/svg" version="1.1">
 <metadata>
  <rdf:RDF xmlns:dc="http://purl.org/dc/elements/1.1/" xmlns:cc="http://creativecommons.org/ns#" xmlns:rdf="http://www.w3.org/1999/02/22-rdf-syntax-ns#">
   <cc:Work>
    <dc:type rdf:resource="http://purl.org/dc/dcmitype/StillImage"/>
    <dc:date>2023-11-12T22:32:37.070156</dc:date>
    <dc:format>image/svg+xml</dc:format>
    <dc:creator>
     <cc:Agent>
      <dc:title>Matplotlib v3.8.0, https://matplotlib.org/</dc:title>
     </cc:Agent>
    </dc:creator>
   </cc:Work>
  </rdf:RDF>
 </metadata>
 <defs>
  <style type="text/css">*{stroke-linejoin: round; stroke-linecap: butt}</style>
 </defs>
 <g id="figure_1">
  <g id="patch_1">
   <path d="M 0 86.4 
L 482.4 86.4 
L 482.4 -0 
L 0 -0 
z
" style="fill: #ffffff"/>
  </g>
  <g id="axes_1">
   <g id="line2d_1">
    <path d="M 25.2 43.2 
L 52.2 43.2 
L 70.2 43.2 
" clip-path="url(#p1a229144d6)" style="fill: none; stroke: #000000; stroke-width: 2; stroke-linecap: round"/>
   </g>
   <g id="patch_2">
    <path d="M 70.2 40.5 
L 79.2 43.2 
L 70.2 45.9 
z
" clip-path="url(#p1a229144d6)"/>
   </g>
   <g id="line2d_2">
    <path d="M 79.2 43.2 
L 79.2 7.2 
L 151.2 7.2 
L 151.2 79.2 
L 79.2 79.2 
L 79.2 43.2 
" clip-path="url(#p1a229144d6)" style="fill: none; stroke: #000000; stroke-width: 2; stroke-linecap: round"/>
   </g>
   <g id="line2d_3">
    <path d="M 151.2 43.2 
L 178.2 43.2 
L 196.2 43.2 
" clip-path="url(#p1a229144d6)" style="fill: none; stroke: #000000; stroke-width: 2; stroke-linecap: round"/>
   </g>
   <g id="patch_3">
    <path d="M 196.2 40.5 
L 205.2 43.2 
L 196.2 45.9 
z
" clip-path="url(#p1a229144d6)"/>
   </g>
   <g id="line2d_4">
    <path d="M 205.2 43.2 
L 205.2 7.2 
L 277.2 7.2 
L 277.2 79.2 
L 205.2 79.2 
L 205.2 43.2 
" clip-path="url(#p1a229144d6)" style="fill: none; stroke: #000000; stroke-width: 2; stroke-linecap: round"/>
   </g>
   <g id="line2d_5">
    <path d="M 277.2 43.2 
L 304.2 43.2 
L 322.2 43.2 
" clip-path="url(#p1a229144d6)" style="fill: none; stroke: #000000; stroke-width: 2; stroke-linecap: round"/>
   </g>
   <g id="patch_4">
    <path d="M 322.2 40.5 
L 331.2 43.2 
L 322.2 45.9 
z
" clip-path="url(#p1a229144d6)"/>
   </g>
   <g id="line2d_6">
    <path d="M 331.2 43.2 
L 331.2 7.2 
L 403.2 7.2 
L 403.2 79.2 
L 331.2 79.2 
L 331.2 43.2 
" clip-path="url(#p1a229144d6)" style="fill: none; stroke: #000000; stroke-width: 2; stroke-linecap: round"/>
   </g>
   <g id="line2d_7">
    <path d="M 403.2 43.2 
L 430.2 43.2 
L 448.2 43.2 
" clip-path="url(#p1a229144d6)" style="fill: none; stroke: #000000; stroke-width: 2; stroke-linecap: round"/>
   </g>
   <g id="patch_5">
    <path d="M 448.2 40.5 
L 457.2 43.2 
L 448.2 45.9 
z
" clip-path="url(#p1a229144d6)"/>
   </g>
   <g id="text_1">
    <!-- $H_1(s)$ -->
    <g transform="translate(99.3875 46.649219) scale(0.125 -0.125)">
     <defs>
      <path id="DejaVuSans-Oblique-48" d="M 1081 4666 
L 1716 4666 
L 1344 2753 
L 3634 2753 
L 4006 4666 
L 4641 4666 
L 3731 0 
L 3097 0 
L 3531 2222 
L 1241 2222 
L 806 0 
L 172 0 
L 1081 4666 
z
" transform="scale(0.015625)"/>
      <path id="DejaVuSans-31" d="M 794 531 
L 1825 531 
L 1825 4091 
L 703 3866 
L 703 4441 
L 1819 4666 
L 2450 4666 
L 2450 531 
L 3481 531 
L 3481 0 
L 794 0 
L 794 531 
z
" transform="scale(0.015625)"/>
      <path id="DejaVuSans-28" d="M 1984 4856 
Q 1566 4138 1362 3434 
Q 1159 2731 1159 2009 
Q 1159 1288 1364 580 
Q 1569 -128 1984 -844 
L 1484 -844 
Q 1016 -109 783 600 
Q 550 1309 550 2009 
Q 550 2706 781 3412 
Q 1013 4119 1484 4856 
L 1984 4856 
z
" transform="scale(0.015625)"/>
      <path id="DejaVuSans-Oblique-73" d="M 3200 3397 
L 3091 2853 
Q 2863 2978 2609 3040 
Q 2356 3103 2088 3103 
Q 1634 3103 1373 2948 
Q 1113 2794 1113 2528 
Q 1113 2219 1719 2053 
Q 1766 2041 1788 2034 
L 1972 1978 
Q 2547 1819 2739 1644 
Q 2931 1469 2931 1166 
Q 2931 609 2489 259 
Q 2047 -91 1331 -91 
Q 1053 -91 747 -37 
Q 441 16 72 128 
L 184 722 
Q 500 559 806 475 
Q 1113 391 1394 391 
Q 1816 391 2080 572 
Q 2344 753 2344 1031 
Q 2344 1331 1650 1516 
L 1591 1531 
L 1394 1581 
Q 956 1697 753 1886 
Q 550 2075 550 2369 
Q 550 2928 970 3256 
Q 1391 3584 2113 3584 
Q 2397 3584 2667 3537 
Q 2938 3491 3200 3397 
z
" transform="scale(0.015625)"/>
      <path id="DejaVuSans-29" d="M 513 4856 
L 1013 4856 
Q 1481 4119 1714 3412 
Q 1947 2706 1947 2009 
Q 1947 1309 1714 600 
Q 1481 -109 1013 -844 
L 513 -844 
Q 928 -128 1133 580 
Q 1338 1288 1338 2009 
Q 1338 2731 1133 3434 
Q 928 4138 513 4856 
z
" transform="scale(0.015625)"/>
     </defs>
     <use xlink:href="#DejaVuSans-Oblique-48" transform="translate(0 0.125)"/>
     <use xlink:href="#DejaVuSans-31" transform="translate(75.195312 -16.28125) scale(0.7)"/>
     <use xlink:href="#DejaVuSans-28" transform="translate(122.46582 0.125)"/>
     <use xlink:href="#DejaVuSans-Oblique-73" transform="translate(161.479492 0.125)"/>
     <use xlink:href="#DejaVuSans-29" transform="translate(213.579102 0.125)"/>
    </g>
   </g>
   <g id="text_2">
    <!-- $H_2(s)$ -->
    <g transform="translate(225.3875 46.649219) scale(0.125 -0.125)">
     <defs>
      <path id="DejaVuSans-32" d="M 1228 531 
L 3431 531 
L 3431 0 
L 469 0 
L 469 531 
Q 828 903 1448 1529 
Q 2069 2156 2228 2338 
Q 2531 2678 2651 2914 
Q 2772 3150 2772 3378 
Q 2772 3750 2511 3984 
Q 2250 4219 1831 4219 
Q 1534 4219 1204 4116 
Q 875 4013 500 3803 
L 500 4441 
Q 881 4594 1212 4672 
Q 1544 4750 1819 4750 
Q 2544 4750 2975 4387 
Q 3406 4025 3406 3419 
Q 3406 3131 3298 2873 
Q 3191 2616 2906 2266 
Q 2828 2175 2409 1742 
Q 1991 1309 1228 531 
z
" transform="scale(0.015625)"/>
     </defs>
     <use xlink:href="#DejaVuSans-Oblique-48" transform="translate(0 0.125)"/>
     <use xlink:href="#DejaVuSans-32" transform="translate(75.195312 -16.28125) scale(0.7)"/>
     <use xlink:href="#DejaVuSans-28" transform="translate(122.46582 0.125)"/>
     <use xlink:href="#DejaVuSans-Oblique-73" transform="translate(161.479492 0.125)"/>
     <use xlink:href="#DejaVuSans-29" transform="translate(213.579102 0.125)"/>
    </g>
   </g>
   <g id="text_3">
    <!-- $H_3(s)$ -->
    <g transform="translate(351.3875 46.649219) scale(0.125 -0.125)">
     <defs>
      <path id="DejaVuSans-33" d="M 2597 2516 
Q 3050 2419 3304 2112 
Q 3559 1806 3559 1356 
Q 3559 666 3084 287 
Q 2609 -91 1734 -91 
Q 1441 -91 1130 -33 
Q 819 25 488 141 
L 488 750 
Q 750 597 1062 519 
Q 1375 441 1716 441 
Q 2309 441 2620 675 
Q 2931 909 2931 1356 
Q 2931 1769 2642 2001 
Q 2353 2234 1838 2234 
L 1294 2234 
L 1294 2753 
L 1863 2753 
Q 2328 2753 2575 2939 
Q 2822 3125 2822 3475 
Q 2822 3834 2567 4026 
Q 2313 4219 1838 4219 
Q 1578 4219 1281 4162 
Q 984 4106 628 3988 
L 628 4550 
Q 988 4650 1302 4700 
Q 1616 4750 1894 4750 
Q 2613 4750 3031 4423 
Q 3450 4097 3450 3541 
Q 3450 3153 3228 2886 
Q 3006 2619 2597 2516 
z
" transform="scale(0.015625)"/>
     </defs>
     <use xlink:href="#DejaVuSans-Oblique-48" transform="translate(0 0.125)"/>
     <use xlink:href="#DejaVuSans-33" transform="translate(75.195312 -16.28125) scale(0.7)"/>
     <use xlink:href="#DejaVuSans-28" transform="translate(122.46582 0.125)"/>
     <use xlink:href="#DejaVuSans-Oblique-73" transform="translate(161.479492 0.125)"/>
     <use xlink:href="#DejaVuSans-29" transform="translate(213.579102 0.125)"/>
    </g>
   </g>
  </g>
 </g>
 <defs>
  <clipPath id="p1a229144d6">
   <rect x="3.6" y="3.6" width="475.2" height="79.2"/>
  </clipPath>
 </defs>
</svg>