<?xml version="1.0" encoding="utf-8" standalone="no"?>
<!DOCTYPE svg PUBLIC "-//W3C//DTD SVG 1.1//EN"
  "http://www.w3.org/Graphics/SVG/1.1/DTD/svg11.dtd">
<svg xmlns:xlink="http://www.w3.org/1999/xlink" width="318.3345pt" height="168.505pt" viewBox="0 0 318.3345 168.505" xmlns="http://www.w3.org/2000/svg" version="1.1">
 <metadata>
  <rdf:RDF xmlns:dc="http://purl.org/dc/elements/1.1/" xmlns:cc="http://creativecommons.org/ns#" xmlns:rdf="http://www.w3.org/1999/02/22-rdf-syntax-ns#">
   <cc:Work>
    <dc:type rdf:resource="http://purl.org/dc/dcmitype/StillImage"/>
    <dc:date>2022-09-20T00:34:08.803419</dc:date>
    <dc:format>image/svg+xml</dc:format>
    <dc:creator>
     <cc:Agent>
      <dc:title>Matplotlib v3.5.3, https://matplotlib.org/</dc:title>
     </cc:Agent>
    </dc:creator>
   </cc:Work>
  </rdf:RDF>
 </metadata>
 <defs>
  <style type="text/css">*{stroke-linejoin: round; stroke-linecap: butt}</style>
 </defs>
 <g id="figure_1">
  <g id="patch_1">
   <path d="M 0 168.505 
L 318.3345 168.505 
L 318.3345 0 
L 0 0 
z
" style="fill: #ffffff"/>
  </g>
  <g id="axes_1">
   <g id="line2d_1">
    <path d="M 154.743 90.925 
L 154.743 103.675 
L 175.143 103.675 
L 175.143 124.075 
L 154.743 124.075 
L 154.743 136.825 
" clip-path="url(#p6bc390bd13)" style="fill: none; stroke: #000000; stroke-width: 2; stroke-linecap: round"/>
   </g>
   <g id="line2d_2">
    <path d="M 180.243 103.675 
L 180.243 124.075 
" clip-path="url(#p6bc390bd13)" style="fill: none; stroke: #000000; stroke-width: 2; stroke-linecap: round"/>
   </g>
   <g id="line2d_3">
    <path d="M 180.243 113.875 
L 196.563 113.875 
" clip-path="url(#p6bc390bd13)" style="fill: none; stroke: #000000; stroke-width: 2; stroke-linecap: round"/>
   </g>
   <g id="line2d_4">
    <path d="M 154.743 136.825 
L 154.743 149.065 
L 147.093 149.065 
L 162.393 149.065 
M 149.388 152.737 
L 160.098 152.737 
M 153.213 156.409 
L 156.273 156.409 
" clip-path="url(#p6bc390bd13)" style="fill: none; stroke: #000000; stroke-width: 2; stroke-linecap: round"/>
   </g>
   <g id="line2d_5">
    <path d="M 154.743 90.925 
L 154.743 79.45 
L 154.743 67.975 
" clip-path="url(#p6bc390bd13)" style="fill: none; stroke: #000000; stroke-width: 2; stroke-linecap: round"/>
   </g>
   <g id="line2d_6">
    <path d="M 154.743 67.975 
L 143.268 67.975 
L 131.793 67.975 
" clip-path="url(#p6bc390bd13)" style="fill: none; stroke: #000000; stroke-width: 2; stroke-linecap: round"/>
   </g>
   <g id="line2d_7">
    <path d="M 131.793 67.975 
L 131.793 55.225 
L 111.393 55.225 
L 111.393 34.825 
L 131.793 34.825 
L 131.793 22.075 
" clip-path="url(#p6bc390bd13)" style="fill: none; stroke: #000000; stroke-width: 2; stroke-linecap: round"/>
   </g>
   <g id="line2d_8">
    <path d="M 106.293 55.225 
L 106.293 34.825 
" clip-path="url(#p6bc390bd13)" style="fill: none; stroke: #000000; stroke-width: 2; stroke-linecap: round"/>
   </g>
   <g id="line2d_9">
    <path d="M 106.293 45.025 
L 89.973 45.025 
" clip-path="url(#p6bc390bd13)" style="fill: none; stroke: #000000; stroke-width: 2; stroke-linecap: round"/>
   </g>
   <g id="line2d_10">
    <path d="M 131.793 45.025 
L 119.043 45.025 
" clip-path="url(#p6bc390bd13)" style="fill: none; stroke: #000000; stroke-width: 2; stroke-linecap: round"/>
   </g>
   <g id="patch_2">
    <path d="M 119.043 48.085 
L 111.393 45.025 
L 119.043 41.965 
z
" clip-path="url(#p6bc390bd13)"/>
   </g>
   <g id="line2d_11">
    <path d="M 177.693 22.075 
L 177.693 34.825 
L 198.093 34.825 
L 198.093 55.225 
L 177.693 55.225 
L 177.693 67.975 
" clip-path="url(#p6bc390bd13)" style="fill: none; stroke: #000000; stroke-width: 2; stroke-linecap: round"/>
   </g>
   <g id="line2d_12">
    <path d="M 203.193 34.825 
L 203.193 55.225 
" clip-path="url(#p6bc390bd13)" style="fill: none; stroke: #000000; stroke-width: 2; stroke-linecap: round"/>
   </g>
   <g id="line2d_13">
    <path d="M 203.193 45.025 
L 219.513 45.025 
" clip-path="url(#p6bc390bd13)" style="fill: none; stroke: #000000; stroke-width: 2; stroke-linecap: round"/>
   </g>
   <g id="line2d_14">
    <path d="M 177.693 45.025 
L 190.443 45.025 
" clip-path="url(#p6bc390bd13)" style="fill: none; stroke: #000000; stroke-width: 2; stroke-linecap: round"/>
   </g>
   <g id="patch_3">
    <path d="M 190.443 41.965 
L 198.093 45.025 
L 190.443 48.085 
z
" clip-path="url(#p6bc390bd13)"/>
   </g>
   <g id="line2d_15">
    <path d="M 177.693 67.975 
L 166.218 67.975 
L 154.743 67.975 
" clip-path="url(#p6bc390bd13)" style="fill: none; stroke: #000000; stroke-width: 2; stroke-linecap: round"/>
   </g>
   <g id="line2d_16">
    <path d="M 32.343 29.725 
L 32.343 45.025 
L 32.343 60.325 
" clip-path="url(#p6bc390bd13)" style="fill: none; stroke: #000000; stroke-width: 2; stroke-linecap: round"/>
   </g>
   <g id="line2d_17">
    <path d="M 32.343 60.325 
L 32.343 73.075 
L 52.743 73.075 
L 52.743 93.475 
L 32.343 93.475 
L 32.343 106.225 
" clip-path="url(#p6bc390bd13)" style="fill: none; stroke: #000000; stroke-width: 2; stroke-linecap: round"/>
   </g>
   <g id="line2d_18">
    <path d="M 57.843 73.075 
L 57.843 93.475 
" clip-path="url(#p6bc390bd13)" style="fill: none; stroke: #000000; stroke-width: 2; stroke-linecap: round"/>
   </g>
   <g id="line2d_19">
    <path d="M 57.843 83.275 
L 74.163 83.275 
" clip-path="url(#p6bc390bd13)" style="fill: none; stroke: #000000; stroke-width: 2; stroke-linecap: round"/>
   </g>
   <g id="line2d_20">
    <path d="M 32.343 83.275 
L 45.093 83.275 
" clip-path="url(#p6bc390bd13)" style="fill: none; stroke: #000000; stroke-width: 2; stroke-linecap: round"/>
   </g>
   <g id="patch_4">
    <path d="M 45.093 80.215 
L 52.743 83.275 
L 45.093 86.335 
z
" clip-path="url(#p6bc390bd13)"/>
   </g>
   <g id="line2d_21">
    <path d="M 32.343 106.225 
L 32.343 121.525 
L 32.343 136.825 
" clip-path="url(#p6bc390bd13)" style="fill: none; stroke: #000000; stroke-width: 2; stroke-linecap: round"/>
   </g>
   <g id="line2d_22">
    <path d="M 32.343 136.825 
L 93.543 136.825 
L 154.743 136.825 
" clip-path="url(#p6bc390bd13)" style="fill: none; stroke: #000000; stroke-width: 2; stroke-linecap: round"/>
   </g>
   <g id="line2d_23">
    <path d="M 154.743 136.825 
L 212.118 136.825 
L 269.493 136.825 
" clip-path="url(#p6bc390bd13)" style="fill: none; stroke: #000000; stroke-width: 2; stroke-linecap: round"/>
   </g>
   <g id="line2d_24">
    <path d="M 269.493 136.825 
L 269.493 121.525 
L 269.493 106.225 
" clip-path="url(#p6bc390bd13)" style="fill: none; stroke: #000000; stroke-width: 2; stroke-linecap: round"/>
   </g>
   <g id="line2d_25">
    <path d="M 269.493 106.225 
L 269.493 93.475 
L 249.093 93.475 
L 249.093 73.075 
L 269.493 73.075 
L 269.493 60.325 
" clip-path="url(#p6bc390bd13)" style="fill: none; stroke: #000000; stroke-width: 2; stroke-linecap: round"/>
   </g>
   <g id="line2d_26">
    <path d="M 243.993 93.475 
L 243.993 73.075 
" clip-path="url(#p6bc390bd13)" style="fill: none; stroke: #000000; stroke-width: 2; stroke-linecap: round"/>
   </g>
   <g id="line2d_27">
    <path d="M 243.993 83.275 
L 227.673 83.275 
" clip-path="url(#p6bc390bd13)" style="fill: none; stroke: #000000; stroke-width: 2; stroke-linecap: round"/>
   </g>
   <g id="line2d_28">
    <path d="M 269.493 83.275 
L 256.743 83.275 
" clip-path="url(#p6bc390bd13)" style="fill: none; stroke: #000000; stroke-width: 2; stroke-linecap: round"/>
   </g>
   <g id="patch_5">
    <path d="M 256.743 86.335 
L 249.093 83.275 
L 256.743 80.215 
z
" clip-path="url(#p6bc390bd13)"/>
   </g>
   <g id="line2d_29">
    <path d="M 269.493 60.325 
L 269.493 48.85 
L 269.493 37.375 
" clip-path="url(#p6bc390bd13)" style="fill: none; stroke: #000000; stroke-width: 2; stroke-linecap: round"/>
   </g>
   <g id="line2d_30">
    <path d="M 74.163 83.275 
L 74.163 71.8 
L 74.163 60.325 
" clip-path="url(#p6bc390bd13)" style="fill: none; stroke: #000000; stroke-width: 2; stroke-linecap: round"/>
   </g>
   <g id="line2d_31">
    <path d="M 74.163 60.325 
L 53.253 60.325 
L 32.343 60.325 
" clip-path="url(#p6bc390bd13)" style="fill: none; stroke: #000000; stroke-width: 2; stroke-linecap: round"/>
   </g>
   <g id="line2d_32">
    <path d="M 74.163 83.275 
L 150.918 83.275 
L 227.673 83.275 
" clip-path="url(#p6bc390bd13)" style="fill: none; stroke: #000000; stroke-width: 2; stroke-linecap: round"/>
   </g>
   <g id="line2d_33">
    <path d="M 131.793 45.025 
L 135.618 45.025 
L 139.443 45.025 
" clip-path="url(#p6bc390bd13)" style="fill: none; stroke: #000000; stroke-width: 2; stroke-linecap: round"/>
   </g>
   <g id="line2d_34">
    <path d="M 139.443 45.025 
L 139.443 56.5 
L 139.443 67.975 
" clip-path="url(#p6bc390bd13)" style="fill: none; stroke: #000000; stroke-width: 2; stroke-linecap: round"/>
   </g>
   <g id="line2d_35">
    <path d="M 177.693 45.025 
L 173.868 45.025 
L 170.043 45.025 
" clip-path="url(#p6bc390bd13)" style="fill: none; stroke: #000000; stroke-width: 2; stroke-linecap: round"/>
   </g>
   <g id="line2d_36">
    <path d="M 170.043 45.025 
L 170.043 56.5 
L 170.043 67.975 
" clip-path="url(#p6bc390bd13)" style="fill: none; stroke: #000000; stroke-width: 2; stroke-linecap: round"/>
   </g>
   <g id="line2d_37">
    <path d="M 269.493 83.275 
L 273.318 83.275 
L 277.143 83.275 
" clip-path="url(#p6bc390bd13)" style="fill: none; stroke: #000000; stroke-width: 2; stroke-linecap: round"/>
   </g>
   <g id="line2d_38">
    <path d="M 277.143 83.275 
L 277.143 110.05 
L 277.143 136.825 
" clip-path="url(#p6bc390bd13)" style="fill: none; stroke: #000000; stroke-width: 2; stroke-linecap: round"/>
   </g>
   <g id="line2d_39">
    <path d="M 277.143 136.825 
L 273.318 136.825 
L 269.493 136.825 
" clip-path="url(#p6bc390bd13)" style="fill: none; stroke: #000000; stroke-width: 2; stroke-linecap: round"/>
   </g>
   <g id="line2d_40">
    <path d="M 32.343 83.275 
L 28.518 83.275 
L 24.693 83.275 
" clip-path="url(#p6bc390bd13)" style="fill: none; stroke: #000000; stroke-width: 2; stroke-linecap: round"/>
   </g>
   <g id="line2d_41">
    <path d="M 24.693 83.275 
L 24.693 110.05 
L 24.693 136.825 
" clip-path="url(#p6bc390bd13)" style="fill: none; stroke: #000000; stroke-width: 2; stroke-linecap: round"/>
   </g>
   <g id="line2d_42">
    <path d="M 24.693 136.825 
L 28.518 136.825 
L 32.343 136.825 
" clip-path="url(#p6bc390bd13)" style="fill: none; stroke: #000000; stroke-width: 2; stroke-linecap: round"/>
   </g>
   <g id="line2d_43">
    <path d="M 269.493 37.375 
L 280.968 37.375 
L 292.443 37.375 
" clip-path="url(#p6bc390bd13)" style="fill: none; stroke: #000000; stroke-width: 2; stroke-linecap: round"/>
   </g>
   <g id="patch_6">
    <path d="M 154.743 139.12 
C 155.351641 139.12 155.935436 138.878184 156.36581 138.44781 
C 156.796184 138.017436 157.038 137.433641 157.038 136.825 
C 157.038 136.216359 156.796184 135.632564 156.36581 135.20219 
C 155.935436 134.771816 155.351641 134.53 154.743 134.53 
C 154.134359 134.53 153.550564 134.771816 153.12019 135.20219 
C 152.689816 135.632564 152.448 136.216359 152.448 136.825 
C 152.448 137.433641 152.689816 138.017436 153.12019 138.44781 
C 153.550564 138.878184 154.134359 139.12 154.743 139.12 
z
" clip-path="url(#p6bc390bd13)" style="fill: #ff0000; stroke: #ff0000; stroke-width: 2; stroke-linejoin: miter"/>
   </g>
   <g id="text_1">
    <g clip-path="url(#p6bc390bd13)">
     <!-- 0 -->
     <g style="fill: #ff0000" transform="translate(165.149875 149.525391)scale(0.125 -0.125)">
      <defs>
       <path id="DejaVuSans-30" d="M 2034 4250 
Q 1547 4250 1301 3770 
Q 1056 3291 1056 2328 
Q 1056 1369 1301 889 
Q 1547 409 2034 409 
Q 2525 409 2770 889 
Q 3016 1369 3016 2328 
Q 3016 3291 2770 3770 
Q 2525 4250 2034 4250 
z
M 2034 4750 
Q 2819 4750 3233 4129 
Q 3647 3509 3647 2328 
Q 3647 1150 3233 529 
Q 2819 -91 2034 -91 
Q 1250 -91 836 529 
Q 422 1150 422 2328 
Q 422 3509 836 4129 
Q 1250 4750 2034 4750 
z
" transform="scale(0.015625)"/>
      </defs>
      <use xlink:href="#DejaVuSans-30"/>
     </g>
    </g>
   </g>
   <g id="patch_7">
    <path d="M 154.743 70.27 
C 155.351641 70.27 155.935436 70.028184 156.36581 69.59781 
C 156.796184 69.167436 157.038 68.583641 157.038 67.975 
C 157.038 67.366359 156.796184 66.782564 156.36581 66.35219 
C 155.935436 65.921816 155.351641 65.68 154.743 65.68 
C 154.134359 65.68 153.550564 65.921816 153.12019 66.35219 
C 152.689816 66.782564 152.448 67.366359 152.448 67.975 
C 152.448 68.583641 152.689816 69.167436 153.12019 69.59781 
C 153.550564 70.028184 154.134359 70.27 154.743 70.27 
z
" clip-path="url(#p6bc390bd13)" style="fill: #ff0000; stroke: #ff0000; stroke-width: 2; stroke-linejoin: miter"/>
   </g>
   <g id="text_2">
    <g clip-path="url(#p6bc390bd13)">
     <!-- 8 -->
     <g style="fill: #ff0000" transform="translate(149.849875 56.195391)scale(0.125 -0.125)">
      <defs>
       <path id="DejaVuSans-38" d="M 2034 2216 
Q 1584 2216 1326 1975 
Q 1069 1734 1069 1313 
Q 1069 891 1326 650 
Q 1584 409 2034 409 
Q 2484 409 2743 651 
Q 3003 894 3003 1313 
Q 3003 1734 2745 1975 
Q 2488 2216 2034 2216 
z
M 1403 2484 
Q 997 2584 770 2862 
Q 544 3141 544 3541 
Q 544 4100 942 4425 
Q 1341 4750 2034 4750 
Q 2731 4750 3128 4425 
Q 3525 4100 3525 3541 
Q 3525 3141 3298 2862 
Q 3072 2584 2669 2484 
Q 3125 2378 3379 2068 
Q 3634 1759 3634 1313 
Q 3634 634 3220 271 
Q 2806 -91 2034 -91 
Q 1263 -91 848 271 
Q 434 634 434 1313 
Q 434 1759 690 2068 
Q 947 2378 1403 2484 
z
M 1172 3481 
Q 1172 3119 1398 2916 
Q 1625 2713 2034 2713 
Q 2441 2713 2670 2916 
Q 2900 3119 2900 3481 
Q 2900 3844 2670 4047 
Q 2441 4250 2034 4250 
Q 1625 4250 1398 4047 
Q 1172 3844 1172 3481 
z
" transform="scale(0.015625)"/>
      </defs>
      <use xlink:href="#DejaVuSans-38"/>
     </g>
    </g>
   </g>
   <g id="patch_8">
    <path d="M 154.743 70.27 
C 155.351641 70.27 155.935436 70.028184 156.36581 69.59781 
C 156.796184 69.167436 157.038 68.583641 157.038 67.975 
C 157.038 67.366359 156.796184 66.782564 156.36581 66.35219 
C 155.935436 65.921816 155.351641 65.68 154.743 65.68 
C 154.134359 65.68 153.550564 65.921816 153.12019 66.35219 
C 152.689816 66.782564 152.448 67.366359 152.448 67.975 
C 152.448 68.583641 152.689816 69.167436 153.12019 69.59781 
C 153.550564 70.028184 154.134359 70.27 154.743 70.27 
z
" clip-path="url(#p6bc390bd13)" style="fill: #ff0000; stroke: #ff0000; stroke-width: 2; stroke-linejoin: miter"/>
   </g>
   <g id="patch_9">
    <path d="M 131.793 24.37 
C 132.401641 24.37 132.985436 24.128184 133.41581 23.69781 
C 133.846184 23.267436 134.088 22.683641 134.088 22.075 
C 134.088 21.466359 133.846184 20.882564 133.41581 20.45219 
C 132.985436 20.021816 132.401641 19.78 131.793 19.78 
C 131.184359 19.78 130.600564 20.021816 130.17019 20.45219 
C 129.739816 20.882564 129.498 21.466359 129.498 22.075 
C 129.498 22.683641 129.739816 23.267436 130.17019 23.69781 
C 130.600564 24.128184 131.184359 24.37 131.793 24.37 
z
" clip-path="url(#p6bc390bd13)" style="stroke: #000000; stroke-width: 2; stroke-linejoin: miter"/>
   </g>
   <g id="patch_10">
    <path d="M 177.693 24.37 
C 178.301641 24.37 178.885436 24.128184 179.31581 23.69781 
C 179.746184 23.267436 179.988 22.683641 179.988 22.075 
C 179.988 21.466359 179.746184 20.882564 179.31581 20.45219 
C 178.885436 20.021816 178.301641 19.78 177.693 19.78 
C 177.084359 19.78 176.500564 20.021816 176.07019 20.45219 
C 175.639816 20.882564 175.398 21.466359 175.398 22.075 
C 175.398 22.683641 175.639816 23.267436 176.07019 23.69781 
C 176.500564 24.128184 177.084359 24.37 177.693 24.37 
z
" clip-path="url(#p6bc390bd13)" style="stroke: #000000; stroke-width: 2; stroke-linejoin: miter"/>
   </g>
   <g id="patch_11">
    <path d="M 32.343 32.02 
C 32.951641 32.02 33.535436 31.778184 33.96581 31.34781 
C 34.396184 30.917436 34.638 30.333641 34.638 29.725 
C 34.638 29.116359 34.396184 28.532564 33.96581 28.10219 
C 33.535436 27.671816 32.951641 27.43 32.343 27.43 
C 31.734359 27.43 31.150564 27.671816 30.72019 28.10219 
C 30.289816 28.532564 30.048 29.116359 30.048 29.725 
C 30.048 30.333641 30.289816 30.917436 30.72019 31.34781 
C 31.150564 31.778184 31.734359 32.02 32.343 32.02 
z
" clip-path="url(#p6bc390bd13)" style="stroke: #000000; stroke-width: 2; stroke-linejoin: miter"/>
   </g>
   <g id="patch_12">
    <path d="M 32.343 62.62 
C 32.951641 62.62 33.535436 62.378184 33.96581 61.94781 
C 34.396184 61.517436 34.638 60.933641 34.638 60.325 
C 34.638 59.716359 34.396184 59.132564 33.96581 58.70219 
C 33.535436 58.271816 32.951641 58.03 32.343 58.03 
C 31.734359 58.03 31.150564 58.271816 30.72019 58.70219 
C 30.289816 59.132564 30.048 59.716359 30.048 60.325 
C 30.048 60.933641 30.289816 61.517436 30.72019 61.94781 
C 31.150564 62.378184 31.734359 62.62 32.343 62.62 
z
" clip-path="url(#p6bc390bd13)" style="fill: #ff0000; stroke: #ff0000; stroke-width: 2; stroke-linejoin: miter"/>
   </g>
   <g id="text_3">
    <g clip-path="url(#p6bc390bd13)">
     <!-- 5 -->
     <g style="fill: #ff0000" transform="translate(15.209875 51.605391)scale(0.125 -0.125)">
      <defs>
       <path id="DejaVuSans-35" d="M 691 4666 
L 3169 4666 
L 3169 4134 
L 1269 4134 
L 1269 2991 
Q 1406 3038 1543 3061 
Q 1681 3084 1819 3084 
Q 2600 3084 3056 2656 
Q 3513 2228 3513 1497 
Q 3513 744 3044 326 
Q 2575 -91 1722 -91 
Q 1428 -91 1123 -41 
Q 819 9 494 109 
L 494 744 
Q 775 591 1075 516 
Q 1375 441 1709 441 
Q 2250 441 2565 725 
Q 2881 1009 2881 1497 
Q 2881 1984 2565 2268 
Q 2250 2553 1709 2553 
Q 1456 2553 1204 2497 
Q 953 2441 691 2322 
L 691 4666 
z
" transform="scale(0.015625)"/>
      </defs>
      <use xlink:href="#DejaVuSans-35"/>
     </g>
    </g>
   </g>
   <g id="patch_13">
    <path d="M 269.493 39.67 
C 270.101641 39.67 270.685436 39.428184 271.11581 38.99781 
C 271.546184 38.567436 271.788 37.983641 271.788 37.375 
C 271.788 36.766359 271.546184 36.182564 271.11581 35.75219 
C 270.685436 35.321816 270.101641 35.08 269.493 35.08 
C 268.884359 35.08 268.300564 35.321816 267.87019 35.75219 
C 267.439816 36.182564 267.198 36.766359 267.198 37.375 
C 267.198 37.983641 267.439816 38.567436 267.87019 38.99781 
C 268.300564 39.428184 268.884359 39.67 269.493 39.67 
z
" clip-path="url(#p6bc390bd13)" style="stroke: #000000; stroke-width: 2; stroke-linejoin: miter"/>
   </g>
   <g id="patch_14">
    <path d="M 74.163 85.57 
C 74.771641 85.57 75.355436 85.328184 75.78581 84.89781 
C 76.216184 84.467436 76.458 83.883641 76.458 83.275 
C 76.458 82.666359 76.216184 82.082564 75.78581 81.65219 
C 75.355436 81.221816 74.771641 80.98 74.163 80.98 
C 73.554359 80.98 72.970564 81.221816 72.54019 81.65219 
C 72.109816 82.082564 71.868 82.666359 71.868 83.275 
C 71.868 83.883641 72.109816 84.467436 72.54019 84.89781 
C 72.970564 85.328184 73.554359 85.57 74.163 85.57 
z
" clip-path="url(#p6bc390bd13)" style="stroke: #000000; stroke-width: 2; stroke-linejoin: miter"/>
   </g>
   <g id="patch_15">
    <path d="M 292.443 39.67 
C 293.051641 39.67 293.635436 39.428184 294.06581 38.99781 
C 294.496184 38.567436 294.738 37.983641 294.738 37.375 
C 294.738 36.766359 294.496184 36.182564 294.06581 35.75219 
C 293.635436 35.321816 293.051641 35.08 292.443 35.08 
C 291.834359 35.08 291.250564 35.321816 290.82019 35.75219 
C 290.389816 36.182564 290.148 36.766359 290.148 37.375 
C 290.148 37.983641 290.389816 38.567436 290.82019 38.99781 
C 291.250564 39.428184 291.834359 39.67 292.443 39.67 
z
" clip-path="url(#p6bc390bd13)" style="fill: #ffffff; stroke: #ff0000; stroke-width: 2; stroke-linejoin: miter"/>
   </g>
   <g id="text_4">
    <g clip-path="url(#p6bc390bd13)">
     <!-- 3 -->
     <g style="fill: #ff0000" transform="translate(288.466437 29.420391)scale(0.125 -0.125)">
      <defs>
       <path id="DejaVuSans-33" d="M 2597 2516 
Q 3050 2419 3304 2112 
Q 3559 1806 3559 1356 
Q 3559 666 3084 287 
Q 2609 -91 1734 -91 
Q 1441 -91 1130 -33 
Q 819 25 488 141 
L 488 750 
Q 750 597 1062 519 
Q 1375 441 1716 441 
Q 2309 441 2620 675 
Q 2931 909 2931 1356 
Q 2931 1769 2642 2001 
Q 2353 2234 1838 2234 
L 1294 2234 
L 1294 2753 
L 1863 2753 
Q 2328 2753 2575 2939 
Q 2822 3125 2822 3475 
Q 2822 3834 2567 4026 
Q 2313 4219 1838 4219 
Q 1578 4219 1281 4162 
Q 984 4106 628 3988 
L 628 4550 
Q 988 4650 1302 4700 
Q 1616 4750 1894 4750 
Q 2613 4750 3031 4423 
Q 3450 4097 3450 3541 
Q 3450 3153 3228 2886 
Q 3006 2619 2597 2516 
z
" transform="scale(0.015625)"/>
      </defs>
      <use xlink:href="#DejaVuSans-33"/>
     </g>
    </g>
   </g>
   <g id="patch_16">
    <path d="M 196.563 116.17 
C 197.171641 116.17 197.755436 115.928184 198.18581 115.49781 
C 198.616184 115.067436 198.858 114.483641 198.858 113.875 
C 198.858 113.266359 198.616184 112.682564 198.18581 112.25219 
C 197.755436 111.821816 197.171641 111.58 196.563 111.58 
C 195.954359 111.58 195.370564 111.821816 194.94019 112.25219 
C 194.509816 112.682564 194.268 113.266359 194.268 113.875 
C 194.268 114.483641 194.509816 115.067436 194.94019 115.49781 
C 195.370564 115.928184 195.954359 116.17 196.563 116.17 
z
" clip-path="url(#p6bc390bd13)" style="fill: #ffffff; stroke: #ff0000; stroke-width: 2; stroke-linejoin: miter"/>
   </g>
   <g id="text_5">
    <g clip-path="url(#p6bc390bd13)">
     <!-- 9 -->
     <g style="fill: #ff0000" transform="translate(192.586437 105.920391)scale(0.125 -0.125)">
      <defs>
       <path id="DejaVuSans-39" d="M 703 97 
L 703 672 
Q 941 559 1184 500 
Q 1428 441 1663 441 
Q 2288 441 2617 861 
Q 2947 1281 2994 2138 
Q 2813 1869 2534 1725 
Q 2256 1581 1919 1581 
Q 1219 1581 811 2004 
Q 403 2428 403 3163 
Q 403 3881 828 4315 
Q 1253 4750 1959 4750 
Q 2769 4750 3195 4129 
Q 3622 3509 3622 2328 
Q 3622 1225 3098 567 
Q 2575 -91 1691 -91 
Q 1453 -91 1209 -44 
Q 966 3 703 97 
z
M 1959 2075 
Q 2384 2075 2632 2365 
Q 2881 2656 2881 3163 
Q 2881 3666 2632 3958 
Q 2384 4250 1959 4250 
Q 1534 4250 1286 3958 
Q 1038 3666 1038 3163 
Q 1038 2656 1286 2365 
Q 1534 2075 1959 2075 
z
" transform="scale(0.015625)"/>
      </defs>
      <use xlink:href="#DejaVuSans-39"/>
     </g>
    </g>
   </g>
   <g id="patch_17">
    <path d="M 219.513 47.32 
C 220.121641 47.32 220.705436 47.078184 221.13581 46.64781 
C 221.566184 46.217436 221.808 45.633641 221.808 45.025 
C 221.808 44.416359 221.566184 43.832564 221.13581 43.40219 
C 220.705436 42.971816 220.121641 42.73 219.513 42.73 
C 218.904359 42.73 218.320564 42.971816 217.89019 43.40219 
C 217.459816 43.832564 217.218 44.416359 217.218 45.025 
C 217.218 45.633641 217.459816 46.217436 217.89019 46.64781 
C 218.320564 47.078184 218.904359 47.32 219.513 47.32 
z
" clip-path="url(#p6bc390bd13)" style="fill: #ffffff; stroke: #ff0000; stroke-width: 2; stroke-linejoin: miter"/>
   </g>
   <g id="text_6">
    <g clip-path="url(#p6bc390bd13)">
     <!-- 10 -->
     <g style="fill: #ff0000" transform="translate(211.559875 37.070391)scale(0.125 -0.125)">
      <defs>
       <path id="DejaVuSans-31" d="M 794 531 
L 1825 531 
L 1825 4091 
L 703 3866 
L 703 4441 
L 1819 4666 
L 2450 4666 
L 2450 531 
L 3481 531 
L 3481 0 
L 794 0 
L 794 531 
z
" transform="scale(0.015625)"/>
      </defs>
      <use xlink:href="#DejaVuSans-31"/>
      <use xlink:href="#DejaVuSans-30" x="63.623047"/>
     </g>
    </g>
   </g>
   <g id="patch_18">
    <path d="M 89.973 47.32 
C 90.581641 47.32 91.165436 47.078184 91.59581 46.64781 
C 92.026184 46.217436 92.268 45.633641 92.268 45.025 
C 92.268 44.416359 92.026184 43.832564 91.59581 43.40219 
C 91.165436 42.971816 90.581641 42.73 89.973 42.73 
C 89.364359 42.73 88.780564 42.971816 88.35019 43.40219 
C 87.919816 43.832564 87.678 44.416359 87.678 45.025 
C 87.678 45.633641 87.919816 46.217436 88.35019 46.64781 
C 88.780564 47.078184 89.364359 47.32 89.973 47.32 
z
" clip-path="url(#p6bc390bd13)" style="fill: #ffffff; stroke: #ff0000; stroke-width: 2; stroke-linejoin: miter"/>
   </g>
   <g id="text_7">
    <g clip-path="url(#p6bc390bd13)">
     <!-- 11 -->
     <g style="fill: #ff0000" transform="translate(82.019875 37.070391)scale(0.125 -0.125)">
      <use xlink:href="#DejaVuSans-31"/>
      <use xlink:href="#DejaVuSans-31" x="63.623047"/>
     </g>
    </g>
   </g>
  </g>
 </g>
 <defs>
  <clipPath id="p6bc390bd13">
   <rect x="7.2" y="7.2" width="303.9345" height="154.105"/>
  </clipPath>
 </defs>
</svg>