<?xml version="1.0" encoding="utf-8" standalone="no"?>
<!DOCTYPE svg PUBLIC "-//W3C//DTD SVG 1.1//EN"
  "http://www.w3.org/Graphics/SVG/1.1/DTD/svg11.dtd">
<svg xmlns:xlink="http://www.w3.org/1999/xlink" width="503.0925pt" height="289.009656pt" viewBox="0 0 503.0925 289.009656" xmlns="http://www.w3.org/2000/svg" version="1.1">
 <metadata>
  <rdf:RDF xmlns:dc="http://purl.org/dc/elements/1.1/" xmlns:cc="http://creativecommons.org/ns#" xmlns:rdf="http://www.w3.org/1999/02/22-rdf-syntax-ns#">
   <cc:Work>
    <dc:type rdf:resource="http://purl.org/dc/dcmitype/StillImage"/>
    <dc:date>2023-09-26T16:56:38.476799</dc:date>
    <dc:format>image/svg+xml</dc:format>
    <dc:creator>
     <cc:Agent>
      <dc:title>Matplotlib v3.6.3, https://matplotlib.org/</dc:title>
     </cc:Agent>
    </dc:creator>
   </cc:Work>
  </rdf:RDF>
 </metadata>
 <defs>
  <style type="text/css">*{stroke-linejoin: round; stroke-linecap: butt}</style>
 </defs>
 <g id="figure_1">
  <g id="patch_1">
   <path d="M 0 289.009656 
L 503.0925 289.009656 
L 503.0925 0 
L 0 0 
z
" style="fill: #ffffff"/>
  </g>
  <g id="axes_1">
   <g id="line2d_1">
    <path d="M 114.03 33.697656 
L 114.03 19.297656 
" clip-path="url(#p7a1ae19727)" style="fill: none; stroke: #000000; stroke-width: 2; stroke-linecap: round"/>
   </g>
   <g id="line2d_2">
    <path d="M 114.03 19.297656 
L 107.28 19.297656 
" clip-path="url(#p7a1ae19727)" style="fill: none; stroke: #000000; stroke-width: 2; stroke-linecap: round"/>
   </g>
   <g id="line2d_3">
    <path d="M 114.03 19.297656 
L 120.78 19.297656 
" clip-path="url(#p7a1ae19727)" style="fill: none; stroke: #000000; stroke-width: 2; stroke-linecap: round"/>
   </g>
   <g id="line2d_4">
    <path d="M 114.03 33.697656 
L 114.03 69.697656 
L 116.994187 69.831726 
L 119.985107 70.239416 
L 122.751917 70.911657 
L 125.062568 71.817194 
L 125.984308 72.342224 
L 126.723271 72.905203 
L 127.263881 73.497424 
L 127.594744 74.109559 
L 127.708884 74.731863 
L 127.603898 75.354376 
L 127.281996 75.967135 
L 126.749965 76.560379 
L 126.019018 77.124762 
L 125.104564 77.651544 
L 122.805691 78.561481 
L 120.04615 79.238998 
L 117.05738 79.652397 
L 114.090043 79.792129 
L 111.393006 79.671599 
L 109.192465 79.326039 
L 107.672976 78.809554 
L 107.211011 78.508193 
L 106.961977 78.190584 
L 106.931122 77.86658 
L 107.119097 77.546166 
L 107.52194 77.239253 
L 108.933915 76.703949 
L 111.048626 76.330686 
L 113.688716 76.175893 
L 116.632764 76.277675 
L 119.633858 76.65262 
L 122.4403 77.294404 
L 124.816719 78.174327 
L 125.779494 78.689058 
L 126.563808 79.243713 
L 127.153131 79.829759 
L 127.535041 80.437999 
L 127.701487 81.058769 
L 127.648962 81.682144 
L 127.378572 82.298139 
L 126.896017 82.896928 
L 126.211468 83.469046 
L 125.339355 84.005591 
L 123.109529 84.940277 
L 120.393553 85.647717 
L 117.419211 86.093702 
L 114.435956 86.265953 
L 111.69399 86.175146 
L 109.423277 85.854021 
L 107.814258 85.354633 
L 107.302569 85.058593 
L 107.00188 84.743988 
L 106.918529 84.420608 
L 107.054275 84.098425 
L 107.406254 83.787387 
L 107.967048 83.497208 
L 109.663648 83.015884 
L 112.001782 82.719945 
L 114.785355 82.659334 
L 117.780913 82.864258 
L 120.737224 83.342654 
L 123.406345 84.079522 
L 125.564422 85.038187 
L 126.393138 85.584027 
L 127.03046 86.163369 
L 127.462955 86.767159 
L 127.681505 87.385826 
L 127.681505 88.009487 
L 127.462955 88.628154 
L 127.03046 89.231943 
L 126.393138 89.811285 
L 125.564422 90.357126 
L 124.56178 90.861116 
L 122.122473 91.714722 
L 119.279798 92.325635 
L 116.272165 92.667743 
L 113.351822 92.737478 
L 110.763691 92.554113 
L 108.724837 92.158152 
L 107.406254 91.607926 
L 107.054275 91.296888 
L 106.918529 90.974705 
L 107.00188 90.651324 
L 107.302569 90.33672 
L 107.814258 90.04068 
L 109.423277 89.541292 
L 111.69399 89.220166 
L 114.435956 89.129359 
L 117.419211 89.30161 
L 120.393553 89.747596 
L 123.109529 90.455036 
L 125.339355 91.389721 
L 126.211468 91.926267 
L 126.896017 92.498385 
L 127.378572 93.097174 
L 127.648962 93.713169 
L 127.701487 94.336543 
L 127.535041 94.957314 
L 127.153131 95.565554 
L 126.563808 96.151599 
L 125.779494 96.706255 
L 124.816719 97.220986 
L 122.4403 98.100908 
L 119.633858 98.742693 
L 116.632764 99.117638 
L 113.688716 99.21942 
L 111.048626 99.064627 
L 108.933915 98.691364 
L 107.52194 98.15606 
L 107.119097 97.849147 
L 106.931122 97.528733 
L 106.961977 97.204728 
L 107.211011 96.88712 
L 107.672976 96.585759 
L 109.192465 96.069274 
L 111.393006 95.723714 
L 114.090043 95.603184 
L 117.05738 95.742916 
L 120.04615 96.156314 
L 122.805691 96.833831 
L 125.104564 97.743768 
L 126.019018 98.270551 
L 126.749965 98.834934 
L 127.281996 99.428178 
L 127.603898 100.040936 
L 127.708884 100.66345 
L 127.594744 101.285754 
L 127.263881 101.897889 
L 126.723271 102.490109 
L 125.984308 103.053089 
L 125.062568 103.578118 
L 122.751917 104.483655 
L 119.985107 105.155897 
L 116.994187 105.563587 
L 114.03 105.697656 
L 114.03 141.697656 
L 114.03 141.697656 
" clip-path="url(#p7a1ae19727)" style="fill: none; stroke: #000000; stroke-width: 2; stroke-linecap: round"/>
   </g>
   <g id="line2d_5">
    <path d="M 114.03 141.697656 
L 164.79 141.697656 
M 164.79 132.697656 
L 164.79 150.697656 
M 171.27 132.697656 
L 171.27 150.697656 
M 171.27 141.697656 
L 222.03 141.697656 
" clip-path="url(#p7a1ae19727)" style="fill: none; stroke: #000000; stroke-width: 2; stroke-linecap: round"/>
   </g>
   <g id="line2d_6">
    <path d="M 222.03 141.697656 
L 258.03 141.697656 
L 258.16407 138.73347 
L 258.57176 135.742549 
L 259.244001 132.975739 
L 260.149538 130.665088 
L 260.674567 129.743348 
L 261.237547 129.004385 
L 261.829767 128.463775 
L 262.441902 128.132913 
L 263.064207 128.018772 
L 263.68672 128.123759 
L 264.299478 128.44566 
L 264.892723 128.977691 
L 265.457106 129.708638 
L 265.983888 130.623093 
L 266.893825 132.921965 
L 267.571342 135.681506 
L 267.98474 138.670276 
L 268.124472 141.637613 
L 268.003942 144.33465 
L 267.658382 146.535191 
L 267.141898 148.05468 
L 266.840537 148.516645 
L 266.522928 148.76568 
L 266.198923 148.796535 
L 265.878509 148.608559 
L 265.571597 148.205716 
L 265.036292 146.793742 
L 264.663029 144.67903 
L 264.508236 142.038941 
L 264.610019 139.094892 
L 264.984963 136.093798 
L 265.626748 133.287356 
L 266.506671 130.910937 
L 267.021402 129.948163 
L 267.576057 129.163848 
L 268.162102 128.574525 
L 268.770342 128.192615 
L 269.391113 128.026169 
L 270.014487 128.078694 
L 270.630482 128.349084 
L 271.229271 128.831639 
L 271.80139 129.516188 
L 272.337935 130.388302 
L 273.272621 132.618127 
L 273.98006 135.334103 
L 274.426046 138.308445 
L 274.598297 141.2917 
L 274.50749 144.033666 
L 274.186365 146.304379 
L 273.686977 147.913398 
L 273.390936 148.425087 
L 273.076332 148.725776 
L 272.752952 148.809127 
L 272.430768 148.673382 
L 272.119731 148.321403 
L 271.829551 147.760608 
L 271.348228 146.064009 
L 271.052289 143.725874 
L 270.991678 140.942301 
L 271.196602 137.946743 
L 271.674998 134.990432 
L 272.411866 132.321311 
L 273.370531 130.163234 
L 273.916371 129.334518 
L 274.495713 128.697196 
L 275.099502 128.264701 
L 275.718169 128.046151 
L 276.341831 128.046151 
L 276.960498 128.264701 
L 277.564287 128.697196 
L 278.143629 129.334518 
L 278.689469 130.163234 
L 279.19346 131.165876 
L 280.047065 133.605184 
L 280.657979 136.447859 
L 281.000087 139.455491 
L 281.069821 142.375834 
L 280.886457 144.963965 
L 280.490496 147.002819 
L 279.940269 148.321403 
L 279.629232 148.673382 
L 279.307048 148.809127 
L 278.983668 148.725776 
L 278.669064 148.425087 
L 278.373023 147.913398 
L 277.873635 146.304379 
L 277.55251 144.033666 
L 277.461703 141.2917 
L 277.633954 138.308445 
L 278.07994 135.334103 
L 278.787379 132.618127 
L 279.722065 130.388302 
L 280.25861 129.516188 
L 280.830729 128.831639 
L 281.429518 128.349084 
L 282.045513 128.078694 
L 282.668887 128.026169 
L 283.289658 128.192615 
L 283.897898 128.574525 
L 284.483943 129.163848 
L 285.038598 129.948163 
L 285.553329 130.910937 
L 286.433252 133.287356 
L 287.075037 136.093798 
L 287.449981 139.094892 
L 287.551764 142.038941 
L 287.396971 144.67903 
L 287.023708 146.793742 
L 286.488403 148.205716 
L 286.181491 148.608559 
L 285.861077 148.796535 
L 285.537072 148.76568 
L 285.219463 148.516645 
L 284.918102 148.05468 
L 284.401618 146.535191 
L 284.056058 144.33465 
L 283.935528 141.637613 
L 284.07526 138.670276 
L 284.488658 135.681506 
L 285.166175 132.921965 
L 286.076112 130.623093 
L 286.602894 129.708638 
L 287.167277 128.977691 
L 287.760522 128.44566 
L 288.37328 128.123759 
L 288.995793 128.018772 
L 289.618098 128.132913 
L 290.230233 128.463775 
L 290.822453 129.004385 
L 291.385433 129.743348 
L 291.910462 130.665088 
L 292.815999 132.975739 
L 293.48824 135.742549 
L 293.89593 138.73347 
L 294.03 141.697656 
L 330.03 141.697656 
L 330.03 141.697656 
" clip-path="url(#p7a1ae19727)" style="fill: none; stroke: #000000; stroke-width: 2; stroke-linecap: round"/>
   </g>
   <g id="line2d_7">
    <path d="M 330.03 141.697656 
L 330.03 132.697656 
L 330.03 123.697656 
" clip-path="url(#p7a1ae19727)" style="fill: none; stroke: #000000; stroke-width: 2; stroke-linecap: round"/>
   </g>
   <g id="line2d_8">
    <path d="M 330.03 123.697656 
L 380.79 123.697656 
M 380.79 114.697656 
L 380.79 132.697656 
M 387.27 114.697656 
L 387.27 132.697656 
M 387.27 123.697656 
L 438.03 123.697656 
" clip-path="url(#p7a1ae19727)" style="fill: none; stroke: #000000; stroke-width: 2; stroke-linecap: round"/>
   </g>
   <g id="line2d_9">
    <path d="M 438.03 123.697656 
L 438.03 132.697656 
L 438.03 141.697656 
" clip-path="url(#p7a1ae19727)" style="fill: none; stroke: #000000; stroke-width: 2; stroke-linecap: round"/>
   </g>
   <g id="line2d_10">
    <path d="M 330.03 141.697656 
L 330.03 150.697656 
L 330.03 159.697656 
" clip-path="url(#p7a1ae19727)" style="fill: none; stroke: #000000; stroke-width: 2; stroke-linecap: round"/>
   </g>
   <g id="line2d_11">
    <path d="M 330.03 159.697656 
L 366.03 159.697656 
L 366.16407 156.73347 
L 366.57176 153.742549 
L 367.244001 150.975739 
L 368.149538 148.665088 
L 368.674567 147.743348 
L 369.237547 147.004385 
L 369.829767 146.463775 
L 370.441902 146.132913 
L 371.064207 146.018772 
L 371.68672 146.123759 
L 372.299478 146.44566 
L 372.892723 146.977691 
L 373.457106 147.708638 
L 373.983888 148.623093 
L 374.893825 150.921965 
L 375.571342 153.681506 
L 375.98474 156.670276 
L 376.124472 159.637613 
L 376.003942 162.33465 
L 375.658382 164.535191 
L 375.141898 166.05468 
L 374.840537 166.516645 
L 374.522928 166.76568 
L 374.198923 166.796535 
L 373.878509 166.608559 
L 373.571597 166.205716 
L 373.036292 164.793742 
L 372.663029 162.67903 
L 372.508236 160.038941 
L 372.610019 157.094892 
L 372.984963 154.093798 
L 373.626748 151.287356 
L 374.506671 148.910937 
L 375.021402 147.948163 
L 375.576057 147.163848 
L 376.162102 146.574525 
L 376.770342 146.192615 
L 377.391113 146.026169 
L 378.014487 146.078694 
L 378.630482 146.349084 
L 379.229271 146.831639 
L 379.80139 147.516188 
L 380.337935 148.388302 
L 381.272621 150.618127 
L 381.98006 153.334103 
L 382.426046 156.308445 
L 382.598297 159.2917 
L 382.50749 162.033666 
L 382.186365 164.304379 
L 381.686977 165.913398 
L 381.390936 166.425087 
L 381.076332 166.725776 
L 380.752952 166.809127 
L 380.430768 166.673382 
L 380.119731 166.321403 
L 379.829551 165.760608 
L 379.348228 164.064009 
L 379.052289 161.725874 
L 378.991678 158.942301 
L 379.196602 155.946743 
L 379.674998 152.990432 
L 380.411866 150.321311 
L 381.370531 148.163234 
L 381.916371 147.334518 
L 382.495713 146.697196 
L 383.099502 146.264701 
L 383.718169 146.046151 
L 384.341831 146.046151 
L 384.960498 146.264701 
L 385.564287 146.697196 
L 386.143629 147.334518 
L 386.689469 148.163234 
L 387.19346 149.165876 
L 388.047065 151.605184 
L 388.657979 154.447859 
L 389.000087 157.455491 
L 389.069821 160.375834 
L 388.886457 162.963965 
L 388.490496 165.002819 
L 387.940269 166.321403 
L 387.629232 166.673382 
L 387.307048 166.809127 
L 386.983668 166.725776 
L 386.669064 166.425087 
L 386.373023 165.913398 
L 385.873635 164.304379 
L 385.55251 162.033666 
L 385.461703 159.2917 
L 385.633954 156.308445 
L 386.07994 153.334103 
L 386.787379 150.618127 
L 387.722065 148.388302 
L 388.25861 147.516188 
L 388.830729 146.831639 
L 389.429518 146.349084 
L 390.045513 146.078694 
L 390.668887 146.026169 
L 391.289658 146.192615 
L 391.897898 146.574525 
L 392.483943 147.163848 
L 393.038598 147.948163 
L 393.553329 148.910937 
L 394.433252 151.287356 
L 395.075037 154.093798 
L 395.449981 157.094892 
L 395.551764 160.038941 
L 395.396971 162.67903 
L 395.023708 164.793742 
L 394.488403 166.205716 
L 394.181491 166.608559 
L 393.861077 166.796535 
L 393.537072 166.76568 
L 393.219463 166.516645 
L 392.918102 166.05468 
L 392.401618 164.535191 
L 392.056058 162.33465 
L 391.935528 159.637613 
L 392.07526 156.670276 
L 392.488658 153.681506 
L 393.166175 150.921965 
L 394.076112 148.623093 
L 394.602894 147.708638 
L 395.167277 146.977691 
L 395.760522 146.44566 
L 396.37328 146.123759 
L 396.995793 146.018772 
L 397.618098 146.132913 
L 398.230233 146.463775 
L 398.822453 147.004385 
L 399.385433 147.743348 
L 399.910462 148.665088 
L 400.815999 150.975739 
L 401.48824 153.742549 
L 401.89593 156.73347 
L 402.03 159.697656 
L 438.03 159.697656 
L 438.03 159.697656 
" clip-path="url(#p7a1ae19727)" style="fill: none; stroke: #000000; stroke-width: 2; stroke-linecap: round"/>
   </g>
   <g id="line2d_12">
    <path d="M 438.03 159.697656 
L 438.03 150.697656 
L 438.03 141.697656 
" clip-path="url(#p7a1ae19727)" style="fill: none; stroke: #000000; stroke-width: 2; stroke-linecap: round"/>
   </g>
   <g id="line2d_13">
    <path d="M 438.03 141.697656 
L 447.03 141.697656 
L 456.03 141.697656 
" clip-path="url(#p7a1ae19727)" style="fill: none; stroke: #000000; stroke-width: 2; stroke-linecap: round"/>
   </g>
   <g id="line2d_14">
    <path d="M 456.03 141.697656 
L 456.03 177.697656 
L 465.03 180.697656 
L 447.03 186.697656 
L 465.03 192.697656 
L 447.03 198.697656 
L 465.03 204.697656 
L 447.03 210.697656 
L 456.03 213.697656 
L 456.03 249.697656 
" clip-path="url(#p7a1ae19727)" style="fill: none; stroke: #000000; stroke-width: 2; stroke-linecap: round"/>
   </g>
   <g id="line2d_15">
    <path d="M 456.03 141.697656 
L 465.03 141.697656 
L 474.03 141.697656 
" clip-path="url(#p7a1ae19727)" style="fill: none; stroke: #000000; stroke-width: 2; stroke-linecap: round"/>
   </g>
   <g id="line2d_16">
    <path d="M 456.03 249.697656 
L 465.03 249.697656 
L 474.03 249.697656 
" clip-path="url(#p7a1ae19727)" style="fill: none; stroke: #000000; stroke-width: 2; stroke-linecap: round"/>
   </g>
   <g id="line2d_17">
    <path d="M 456.03 249.697656 
L 285.03 249.697656 
L 114.03 249.697656 
" clip-path="url(#p7a1ae19727)" style="fill: none; stroke: #000000; stroke-width: 2; stroke-linecap: round"/>
   </g>
   <g id="line2d_18">
    <path d="M 114.03 141.697656 
L 114.03 192.457656 
M 123.03 192.457656 
L 105.03 192.457656 
M 123.03 198.937656 
L 105.03 198.937656 
M 114.03 198.937656 
L 114.03 249.697656 
" clip-path="url(#p7a1ae19727)" style="fill: none; stroke: #000000; stroke-width: 2; stroke-linecap: round"/>
   </g>
   <g id="line2d_19">
    <path d="M 114.03 249.697656 
L 114.03 264.097656 
L 105.03 264.097656 
L 123.03 264.097656 
M 107.73 268.417656 
L 120.33 268.417656 
M 112.23 272.737656 
L 115.83 272.737656 
" clip-path="url(#p7a1ae19727)" style="fill: none; stroke: #000000; stroke-width: 2; stroke-linecap: round"/>
   </g>
   <g id="line2d_20">
    <path d="M 114.03 249.697656 
L 96.03 249.697656 
L 78.03 249.697656 
" clip-path="url(#p7a1ae19727)" style="fill: none; stroke: #000000; stroke-width: 2; stroke-linecap: round"/>
   </g>
   <g id="line2d_21">
    <path d="M 78.03 249.697656 
L 78.03 240.697656 
L 78.03 231.697656 
" clip-path="url(#p7a1ae19727)" style="fill: none; stroke: #000000; stroke-width: 2; stroke-linecap: round"/>
   </g>
   <g id="line2d_22">
    <path d="M 78.03 231.697656 
L 78.03 216.697656 
L 54.03 216.697656 
L 54.03 192.697656 
L 78.03 192.697656 
L 78.03 177.697656 
" clip-path="url(#p7a1ae19727)" style="fill: none; stroke: #000000; stroke-width: 2; stroke-linecap: round"/>
   </g>
   <g id="line2d_23">
    <path d="M 48.03 216.697656 
L 48.03 192.697656 
" clip-path="url(#p7a1ae19727)" style="fill: none; stroke: #000000; stroke-width: 2; stroke-linecap: round"/>
   </g>
   <g id="line2d_24">
    <path d="M 48.03 204.697656 
L 28.83 204.697656 
" clip-path="url(#p7a1ae19727)" style="fill: none; stroke: #000000; stroke-width: 2; stroke-linecap: round"/>
   </g>
   <g id="line2d_25">
    <path d="M 78.03 177.697656 
L 78.03 159.697656 
L 78.03 141.697656 
" clip-path="url(#p7a1ae19727)" style="fill: none; stroke: #000000; stroke-width: 2; stroke-linecap: round"/>
   </g>
   <g id="line2d_26">
    <path d="M 78.03 141.697656 
L 96.03 141.697656 
L 114.03 141.697656 
" clip-path="url(#p7a1ae19727)" style="fill: none; stroke: #000000; stroke-width: 2; stroke-linecap: round"/>
   </g>
   <g id="text_1">
    <!-- $V_{dd}$ -->
    <g transform="translate(103.9675 13.098047) scale(0.125 -0.125)">
     <defs>
      <path id="DejaVuSans-Oblique-56" d="M 1319 0 
L 500 4666 
L 1119 4666 
L 1797 653 
L 4063 4666 
L 4750 4666 
L 2053 0 
L 1319 0 
z
" transform="scale(0.015625)"/>
      <path id="DejaVuSans-Oblique-64" d="M 2675 525 
Q 2444 222 2128 65 
Q 1813 -91 1428 -91 
Q 903 -91 598 267 
Q 294 625 294 1247 
Q 294 1766 478 2236 
Q 663 2706 1013 3078 
Q 1244 3325 1534 3454 
Q 1825 3584 2144 3584 
Q 2481 3584 2739 3421 
Q 2997 3259 3138 2956 
L 3513 4863 
L 4091 4863 
L 3144 0 
L 2566 0 
L 2675 525 
z
M 891 1350 
Q 891 897 1095 644 
Q 1300 391 1663 391 
Q 1931 391 2161 520 
Q 2391 650 2566 903 
Q 2750 1166 2856 1509 
Q 2963 1853 2963 2188 
Q 2963 2622 2758 2865 
Q 2553 3109 2194 3109 
Q 1922 3109 1687 2981 
Q 1453 2853 1288 2613 
Q 1106 2353 998 2009 
Q 891 1666 891 1350 
z
" transform="scale(0.015625)"/>
     </defs>
     <use xlink:href="#DejaVuSans-Oblique-56" transform="translate(0 0.09375)"/>
     <use xlink:href="#DejaVuSans-Oblique-64" transform="translate(68.408203 -16.3125) scale(0.7)"/>
     <use xlink:href="#DejaVuSans-Oblique-64" transform="translate(112.841797 -16.3125) scale(0.7)"/>
    </g>
   </g>
   <g id="text_2">
    <!-- $L_1$ -->
    <g transform="translate(90.443529 91.146875) scale(0.125 -0.125)">
     <defs>
      <path id="DejaVuSans-Oblique-4c" d="M 1075 4666 
L 1709 4666 
L 909 525 
L 3181 525 
L 3078 0 
L 172 0 
L 1075 4666 
z
" transform="scale(0.015625)"/>
      <path id="DejaVuSans-31" d="M 794 531 
L 1825 531 
L 1825 4091 
L 703 3866 
L 703 4441 
L 1819 4666 
L 2450 4666 
L 2450 531 
L 3481 531 
L 3481 0 
L 794 0 
L 794 531 
z
" transform="scale(0.015625)"/>
     </defs>
     <use xlink:href="#DejaVuSans-Oblique-4c" transform="translate(0 0.09375)"/>
     <use xlink:href="#DejaVuSans-31" transform="translate(55.712891 -16.3125) scale(0.7)"/>
    </g>
   </g>
   <g id="text_3">
    <!-- $C_2$ -->
    <g transform="translate(160.655 126.498047) scale(0.125 -0.125)">
     <defs>
      <path id="DejaVuSans-Oblique-43" d="M 4447 4306 
L 4319 3641 
Q 4019 3944 3683 4091 
Q 3347 4238 2956 4238 
Q 2422 4238 2017 3981 
Q 1613 3725 1319 3200 
Q 1131 2863 1032 2486 
Q 934 2109 934 1728 
Q 934 1091 1264 756 
Q 1594 422 2222 422 
Q 2656 422 3056 561 
Q 3456 700 3834 978 
L 3688 231 
Q 3316 72 2936 -9 
Q 2556 -91 2175 -91 
Q 1278 -91 773 396 
Q 269 884 269 1753 
Q 269 2309 461 2846 
Q 653 3384 1013 3828 
Q 1394 4300 1883 4525 
Q 2372 4750 3022 4750 
Q 3422 4750 3780 4639 
Q 4138 4528 4447 4306 
z
" transform="scale(0.015625)"/>
      <path id="DejaVuSans-32" d="M 1228 531 
L 3431 531 
L 3431 0 
L 469 0 
L 469 531 
Q 828 903 1448 1529 
Q 2069 2156 2228 2338 
Q 2531 2678 2651 2914 
Q 2772 3150 2772 3378 
Q 2772 3750 2511 3984 
Q 2250 4219 1831 4219 
Q 1534 4219 1204 4116 
Q 875 4013 500 3803 
L 500 4441 
Q 881 4594 1212 4672 
Q 1544 4750 1819 4750 
Q 2544 4750 2975 4387 
Q 3406 4025 3406 3419 
Q 3406 3131 3298 2873 
Q 3191 2616 2906 2266 
Q 2828 2175 2409 1742 
Q 1991 1309 1228 531 
z
" transform="scale(0.015625)"/>
     </defs>
     <use xlink:href="#DejaVuSans-Oblique-43" transform="translate(0 0.78125)"/>
     <use xlink:href="#DejaVuSans-32" transform="translate(69.824219 -15.625) scale(0.7)"/>
    </g>
   </g>
   <g id="text_4">
    <!-- $L_2$ -->
    <g transform="translate(269.5925 121.819162) scale(0.125 -0.125)">
     <use xlink:href="#DejaVuSans-Oblique-4c" transform="translate(0 0.09375)"/>
     <use xlink:href="#DejaVuSans-32" transform="translate(55.712891 -16.3125) scale(0.7)"/>
    </g>
   </g>
   <g id="text_5">
    <!-- $C_3$ -->
    <g transform="translate(376.655 108.498047) scale(0.125 -0.125)">
     <defs>
      <path id="DejaVuSans-33" d="M 2597 2516 
Q 3050 2419 3304 2112 
Q 3559 1806 3559 1356 
Q 3559 666 3084 287 
Q 2609 -91 1734 -91 
Q 1441 -91 1130 -33 
Q 819 25 488 141 
L 488 750 
Q 750 597 1062 519 
Q 1375 441 1716 441 
Q 2309 441 2620 675 
Q 2931 909 2931 1356 
Q 2931 1769 2642 2001 
Q 2353 2234 1838 2234 
L 1294 2234 
L 1294 2753 
L 1863 2753 
Q 2328 2753 2575 2939 
Q 2822 3125 2822 3475 
Q 2822 3834 2567 4026 
Q 2313 4219 1838 4219 
Q 1578 4219 1281 4162 
Q 984 4106 628 3988 
L 628 4550 
Q 988 4650 1302 4700 
Q 1616 4750 1894 4750 
Q 2613 4750 3031 4423 
Q 3450 4097 3450 3541 
Q 3450 3153 3228 2886 
Q 3006 2619 2597 2516 
z
" transform="scale(0.015625)"/>
     </defs>
     <use xlink:href="#DejaVuSans-Oblique-43" transform="translate(0 0.78125)"/>
     <use xlink:href="#DejaVuSans-33" transform="translate(69.824219 -15.625) scale(0.7)"/>
    </g>
   </g>
   <g id="text_6">
    <!-- $L_3$ -->
    <g transform="translate(377.5925 179.907174) scale(0.125 -0.125)">
     <use xlink:href="#DejaVuSans-Oblique-4c" transform="translate(0 0.09375)"/>
     <use xlink:href="#DejaVuSans-33" transform="translate(55.712891 -16.3125) scale(0.7)"/>
    </g>
   </g>
   <g id="text_7">
    <!-- $R_L$ -->
    <g transform="translate(429.43 199.146875) scale(0.125 -0.125)">
     <defs>
      <path id="DejaVuSans-Oblique-52" d="M 1613 4147 
L 1294 2491 
L 2106 2491 
Q 2584 2491 2879 2755 
Q 3175 3019 3175 3444 
Q 3175 3784 2976 3965 
Q 2778 4147 2406 4147 
L 1613 4147 
z
M 2772 2241 
Q 2972 2194 3105 2009 
Q 3238 1825 3413 1275 
L 3809 0 
L 3144 0 
L 2778 1197 
Q 2638 1659 2453 1815 
Q 2269 1972 1888 1972 
L 1191 1972 
L 806 0 
L 172 0 
L 1081 4666 
L 2503 4666 
Q 3150 4666 3495 4373 
Q 3841 4081 3841 3531 
Q 3841 3044 3547 2687 
Q 3253 2331 2772 2241 
z
" transform="scale(0.015625)"/>
     </defs>
     <use xlink:href="#DejaVuSans-Oblique-52" transform="translate(0 0.09375)"/>
     <use xlink:href="#DejaVuSans-Oblique-4c" transform="translate(69.482422 -16.3125) scale(0.7)"/>
    </g>
   </g>
   <g id="text_8">
    <!-- + -->
    <g transform="translate(483.192695 172.146875) scale(0.125 -0.125)">
     <defs>
      <path id="DejaVuSans-2b" d="M 2944 4013 
L 2944 2272 
L 4684 2272 
L 4684 1741 
L 2944 1741 
L 2944 0 
L 2419 0 
L 2419 1741 
L 678 1741 
L 678 2272 
L 2419 2272 
L 2419 4013 
L 2944 4013 
z
" transform="scale(0.015625)"/>
     </defs>
     <use xlink:href="#DejaVuSans-2b"/>
    </g>
   </g>
   <g id="text_9">
    <!-- $v_{out}$ -->
    <g transform="translate(477.3675 199.146875) scale(0.125 -0.125)">
     <defs>
      <path id="DejaVuSans-Oblique-76" d="M 459 3500 
L 1069 3500 
L 1581 525 
L 3256 3500 
L 3866 3500 
L 1875 0 
L 1100 0 
L 459 3500 
z
" transform="scale(0.015625)"/>
      <path id="DejaVuSans-Oblique-6f" d="M 1625 -91 
Q 1009 -91 651 289 
Q 294 669 294 1325 
Q 294 1706 417 2101 
Q 541 2497 738 2766 
Q 1047 3184 1428 3384 
Q 1809 3584 2291 3584 
Q 2888 3584 3255 3212 
Q 3622 2841 3622 2241 
Q 3622 1825 3500 1412 
Q 3378 1000 3181 728 
Q 2875 309 2494 109 
Q 2113 -91 1625 -91 
z
M 891 1344 
Q 891 869 1089 633 
Q 1288 397 1691 397 
Q 2269 397 2648 901 
Q 3028 1406 3028 2181 
Q 3028 2634 2825 2865 
Q 2622 3097 2228 3097 
Q 1903 3097 1650 2945 
Q 1397 2794 1197 2484 
Q 1050 2253 970 1956 
Q 891 1659 891 1344 
z
" transform="scale(0.015625)"/>
      <path id="DejaVuSans-Oblique-75" d="M 428 1388 
L 838 3500 
L 1416 3500 
L 1006 1409 
Q 975 1256 961 1147 
Q 947 1038 947 966 
Q 947 700 1109 554 
Q 1272 409 1569 409 
Q 2031 409 2368 721 
Q 2706 1034 2809 1563 
L 3194 3500 
L 3769 3500 
L 3091 0 
L 2516 0 
L 2631 550 
Q 2388 244 2052 76 
Q 1716 -91 1338 -91 
Q 878 -91 622 161 
Q 366 413 366 863 
Q 366 956 381 1097 
Q 397 1238 428 1388 
z
" transform="scale(0.015625)"/>
      <path id="DejaVuSans-Oblique-74" d="M 2706 3500 
L 2619 3053 
L 1472 3053 
L 1100 1153 
Q 1081 1047 1072 975 
Q 1063 903 1063 863 
Q 1063 663 1183 572 
Q 1303 481 1569 481 
L 2150 481 
L 2053 0 
L 1503 0 
Q 991 0 739 200 
Q 488 400 488 806 
Q 488 878 497 964 
Q 506 1050 525 1153 
L 897 3053 
L 409 3053 
L 500 3500 
L 978 3500 
L 1172 4494 
L 1747 4494 
L 1556 3500 
L 2706 3500 
z
" transform="scale(0.015625)"/>
     </defs>
     <use xlink:href="#DejaVuSans-Oblique-76" transform="translate(0 0.3125)"/>
     <use xlink:href="#DejaVuSans-Oblique-6f" transform="translate(59.179688 -16.09375) scale(0.7)"/>
     <use xlink:href="#DejaVuSans-Oblique-75" transform="translate(102.006836 -16.09375) scale(0.7)"/>
     <use xlink:href="#DejaVuSans-Oblique-74" transform="translate(146.37207 -16.09375) scale(0.7)"/>
    </g>
   </g>
   <g id="text_10">
    <!-- $-$ -->
    <g transform="translate(483.18 226.146875) scale(0.125 -0.125)">
     <defs>
      <path id="DejaVuSans-2212" d="M 678 2272 
L 4684 2272 
L 4684 1741 
L 678 1741 
L 678 2272 
z
" transform="scale(0.015625)"/>
     </defs>
     <use xlink:href="#DejaVuSans-2212" transform="translate(0 0.5)"/>
    </g>
   </g>
   <g id="text_11">
    <!-- $C_1$ -->
    <g transform="translate(86.68 199.146875) scale(0.125 -0.125)">
     <use xlink:href="#DejaVuSans-Oblique-43" transform="translate(0 0.78125)"/>
     <use xlink:href="#DejaVuSans-31" transform="translate(69.824219 -15.625) scale(0.7)"/>
    </g>
   </g>
   <g id="text_12">
    <!-- $V_{in}$ -->
    <g transform="translate(8.355 208.146875) scale(0.125 -0.125)">
     <defs>
      <path id="DejaVuSans-Oblique-69" d="M 1172 4863 
L 1747 4863 
L 1606 4134 
L 1031 4134 
L 1172 4863 
z
M 909 3500 
L 1484 3500 
L 800 0 
L 225 0 
L 909 3500 
z
" transform="scale(0.015625)"/>
      <path id="DejaVuSans-Oblique-6e" d="M 3566 2113 
L 3156 0 
L 2578 0 
L 2988 2091 
Q 3016 2238 3031 2350 
Q 3047 2463 3047 2528 
Q 3047 2791 2881 2937 
Q 2716 3084 2419 3084 
Q 1956 3084 1622 2776 
Q 1288 2469 1184 1941 
L 800 0 
L 225 0 
L 903 3500 
L 1478 3500 
L 1363 2950 
Q 1603 3253 1940 3418 
Q 2278 3584 2650 3584 
Q 3113 3584 3367 3334 
Q 3622 3084 3622 2631 
Q 3622 2519 3608 2391 
Q 3594 2263 3566 2113 
z
" transform="scale(0.015625)"/>
     </defs>
     <use xlink:href="#DejaVuSans-Oblique-56" transform="translate(0 0.09375)"/>
     <use xlink:href="#DejaVuSans-Oblique-69" transform="translate(68.408203 -16.3125) scale(0.7)"/>
     <use xlink:href="#DejaVuSans-Oblique-6e" transform="translate(87.856445 -16.3125) scale(0.7)"/>
    </g>
   </g>
   <g id="patch_2">
    <path d="M 114.03 144.397656 
C 114.746048 144.397656 115.432866 144.113167 115.939188 143.606845 
C 116.445511 143.100522 116.73 142.413705 116.73 141.697656 
C 116.73 140.981608 116.445511 140.294791 115.939188 139.788468 
C 115.432866 139.282145 114.746048 138.997656 114.03 138.997656 
C 113.313952 138.997656 112.627134 139.282145 112.120812 139.788468 
C 111.614489 140.294791 111.33 140.981608 111.33 141.697656 
C 111.33 142.413705 111.614489 143.100522 112.120812 143.606845 
C 112.627134 144.113167 113.313952 144.397656 114.03 144.397656 
z
" clip-path="url(#p7a1ae19727)" style="stroke: #000000; stroke-width: 2; stroke-linejoin: miter"/>
   </g>
   <g id="patch_3">
    <path d="M 330.03 144.397656 
C 330.746048 144.397656 331.432866 144.113167 331.939188 143.606845 
C 332.445511 143.100522 332.73 142.413705 332.73 141.697656 
C 332.73 140.981608 332.445511 140.294791 331.939188 139.788468 
C 331.432866 139.282145 330.746048 138.997656 330.03 138.997656 
C 329.313952 138.997656 328.627134 139.282145 328.120812 139.788468 
C 327.614489 140.294791 327.33 140.981608 327.33 141.697656 
C 327.33 142.413705 327.614489 143.100522 328.120812 143.606845 
C 328.627134 144.113167 329.313952 144.397656 330.03 144.397656 
z
" clip-path="url(#p7a1ae19727)" style="stroke: #000000; stroke-width: 2; stroke-linejoin: miter"/>
   </g>
   <g id="patch_4">
    <path d="M 438.03 144.397656 
C 438.746048 144.397656 439.432866 144.113167 439.939188 143.606845 
C 440.445511 143.100522 440.73 142.413705 440.73 141.697656 
C 440.73 140.981608 440.445511 140.294791 439.939188 139.788468 
C 439.432866 139.282145 438.746048 138.997656 438.03 138.997656 
C 437.313952 138.997656 436.627134 139.282145 436.120812 139.788468 
C 435.614489 140.294791 435.33 140.981608 435.33 141.697656 
C 435.33 142.413705 435.614489 143.100522 436.120812 143.606845 
C 436.627134 144.113167 437.313952 144.397656 438.03 144.397656 
z
" clip-path="url(#p7a1ae19727)" style="stroke: #000000; stroke-width: 2; stroke-linejoin: miter"/>
   </g>
   <g id="patch_5">
    <path d="M 456.03 144.397656 
C 456.746048 144.397656 457.432866 144.113167 457.939188 143.606845 
C 458.445511 143.100522 458.73 142.413705 458.73 141.697656 
C 458.73 140.981608 458.445511 140.294791 457.939188 139.788468 
C 457.432866 139.282145 456.746048 138.997656 456.03 138.997656 
C 455.313952 138.997656 454.627134 139.282145 454.120812 139.788468 
C 453.614489 140.294791 453.33 140.981608 453.33 141.697656 
C 453.33 142.413705 453.614489 143.100522 454.120812 143.606845 
C 454.627134 144.113167 455.313952 144.397656 456.03 144.397656 
z
" clip-path="url(#p7a1ae19727)" style="stroke: #000000; stroke-width: 2; stroke-linejoin: miter"/>
   </g>
   <g id="patch_6">
    <path d="M 456.03 252.397656 
C 456.746048 252.397656 457.432866 252.113167 457.939188 251.606845 
C 458.445511 251.100522 458.73 250.413705 458.73 249.697656 
C 458.73 248.981608 458.445511 248.294791 457.939188 247.788468 
C 457.432866 247.282145 456.746048 246.997656 456.03 246.997656 
C 455.313952 246.997656 454.627134 247.282145 454.120812 247.788468 
C 453.614489 248.294791 453.33 248.981608 453.33 249.697656 
C 453.33 250.413705 453.614489 251.100522 454.120812 251.606845 
C 454.627134 252.113167 455.313952 252.397656 456.03 252.397656 
z
" clip-path="url(#p7a1ae19727)" style="stroke: #000000; stroke-width: 2; stroke-linejoin: miter"/>
   </g>
   <g id="patch_7">
    <path d="M 474.03 144.397656 
C 474.746048 144.397656 475.432866 144.113167 475.939188 143.606845 
C 476.445511 143.100522 476.73 142.413705 476.73 141.697656 
C 476.73 140.981608 476.445511 140.294791 475.939188 139.788468 
C 475.432866 139.282145 474.746048 138.997656 474.03 138.997656 
C 473.313952 138.997656 472.627134 139.282145 472.120812 139.788468 
C 471.614489 140.294791 471.33 140.981608 471.33 141.697656 
C 471.33 142.413705 471.614489 143.100522 472.120812 143.606845 
C 472.627134 144.113167 473.313952 144.397656 474.03 144.397656 
z
" clip-path="url(#p7a1ae19727)" style="fill: #ffffff; stroke: #000000; stroke-width: 2; stroke-linejoin: miter"/>
   </g>
   <g id="patch_8">
    <path d="M 474.03 252.397656 
C 474.746048 252.397656 475.432866 252.113167 475.939188 251.606845 
C 476.445511 251.100522 476.73 250.413705 476.73 249.697656 
C 476.73 248.981608 476.445511 248.294791 475.939188 247.788468 
C 475.432866 247.282145 474.746048 246.997656 474.03 246.997656 
C 473.313952 246.997656 472.627134 247.282145 472.120812 247.788468 
C 471.614489 248.294791 471.33 248.981608 471.33 249.697656 
C 471.33 250.413705 471.614489 251.100522 472.120812 251.606845 
C 472.627134 252.113167 473.313952 252.397656 474.03 252.397656 
z
" clip-path="url(#p7a1ae19727)" style="fill: #ffffff; stroke: #000000; stroke-width: 2; stroke-linejoin: miter"/>
   </g>
   <g id="patch_9">
    <path d="M 114.03 252.397656 
C 114.746048 252.397656 115.432866 252.113167 115.939188 251.606845 
C 116.445511 251.100522 116.73 250.413705 116.73 249.697656 
C 116.73 248.981608 116.445511 248.294791 115.939188 247.788468 
C 115.432866 247.282145 114.746048 246.997656 114.03 246.997656 
C 113.313952 246.997656 112.627134 247.282145 112.120812 247.788468 
C 111.614489 248.294791 111.33 248.981608 111.33 249.697656 
C 111.33 250.413705 111.614489 251.100522 112.120812 251.606845 
C 112.627134 252.113167 113.313952 252.397656 114.03 252.397656 
z
" clip-path="url(#p7a1ae19727)" style="stroke: #000000; stroke-width: 2; stroke-linejoin: miter"/>
   </g>
   <g id="patch_10">
    <path d="M 28.83 207.397656 
C 29.546048 207.397656 30.232866 207.113167 30.739188 206.606845 
C 31.245511 206.100522 31.53 205.413705 31.53 204.697656 
C 31.53 203.981608 31.245511 203.294791 30.739188 202.788468 
C 30.232866 202.282145 29.546048 201.997656 28.83 201.997656 
C 28.113952 201.997656 27.427134 202.282145 26.920812 202.788468 
C 26.414489 203.294791 26.13 203.981608 26.13 204.697656 
C 26.13 205.413705 26.414489 206.100522 26.920812 206.606845 
C 27.427134 207.113167 28.113952 207.397656 28.83 207.397656 
z
" clip-path="url(#p7a1ae19727)" style="fill: #ffffff; stroke: #000000; stroke-width: 2; stroke-linejoin: miter"/>
   </g>
  </g>
 </g>
 <defs>
  <clipPath id="p7a1ae19727">
   <rect x="3.6" y="6.625656" width="495.66" height="278.784"/>
  </clipPath>
 </defs>
</svg>