<?xml version="1.0" encoding="utf-8" standalone="no"?>
<!DOCTYPE svg PUBLIC "-//W3C//DTD SVG 1.1//EN"
  "http://www.w3.org/Graphics/SVG/1.1/DTD/svg11.dtd">
<svg xmlns:xlink="http://www.w3.org/1999/xlink" width="274.11pt" height="151.338884pt" viewBox="0 0 274.11 151.338884" xmlns="http://www.w3.org/2000/svg" version="1.1">
 <metadata>
  <rdf:RDF xmlns:dc="http://purl.org/dc/elements/1.1/" xmlns:cc="http://creativecommons.org/ns#" xmlns:rdf="http://www.w3.org/1999/02/22-rdf-syntax-ns#">
   <cc:Work>
    <dc:type rdf:resource="http://purl.org/dc/dcmitype/StillImage"/>
    <dc:date>2025-10-11T21:44:19.248663</dc:date>
    <dc:format>image/svg+xml</dc:format>
    <dc:creator>
     <cc:Agent>
      <dc:title>Matplotlib v3.10.6, https://matplotlib.org/</dc:title>
     </cc:Agent>
    </dc:creator>
   </cc:Work>
  </rdf:RDF>
 </metadata>
 <defs>
  <style type="text/css">*{stroke-linejoin: round; stroke-linecap: butt}</style>
 </defs>
 <g id="figure_1">
  <g id="patch_1">
   <path d="M 0 151.338884 
L 274.11 151.338884 
L 274.11 0 
L 0 0 
z
" style="fill: #ffffff"/>
  </g>
  <g id="axes_1">
   <g id="line2d_1">
    <path d="M 7.38 35.958884 
L 58.14 35.958884 
M 58.14 26.958884 
L 58.14 44.958884 
M 64.62 26.958884 
L 64.62 44.958884 
M 64.62 35.958884 
L 115.38 35.958884 
" clip-path="url(#pe8b6b411cb)" style="fill: none; stroke: #000000; stroke-width: 2; stroke-linecap: round"/>
   </g>
   <g id="line2d_2">
    <path d="M 115.38 35.958884 
L 151.38 35.958884 
L 151.51407 32.994698 
L 151.92176 30.003778 
L 152.594001 27.236968 
L 153.499538 24.926316 
L 154.024567 24.004576 
L 154.587547 23.265613 
L 155.179767 22.725003 
L 155.791902 22.394141 
L 156.414207 22.28 
L 157.03672 22.384987 
L 157.649478 22.706888 
L 158.242723 23.23892 
L 158.807106 23.969866 
L 159.333888 24.884321 
L 160.243825 27.183193 
L 160.921342 29.942734 
L 161.33474 32.931505 
L 161.474472 35.898842 
L 161.353942 38.595879 
L 161.008382 40.79642 
L 160.491898 42.315908 
L 160.190537 42.777873 
L 159.872928 43.026908 
L 159.548923 43.057763 
L 159.228509 42.869788 
L 158.921597 42.466945 
L 158.386292 41.05497 
L 158.013029 38.940259 
L 157.858236 36.300169 
L 157.960019 33.35612 
L 158.334963 30.355026 
L 158.976748 27.548584 
L 159.856671 25.172165 
L 160.371402 24.209391 
L 160.926057 23.425076 
L 161.512102 22.835753 
L 162.120342 22.453843 
L 162.741113 22.287397 
L 163.364487 22.339922 
L 163.980482 22.610312 
L 164.579271 23.092867 
L 165.15139 23.777416 
L 165.687935 24.64953 
L 166.622621 26.879355 
L 167.33006 29.595331 
L 167.776046 32.569673 
L 167.948297 35.552928 
L 167.85749 38.294894 
L 167.536365 40.565607 
L 167.036977 42.174626 
L 166.740936 42.686316 
L 166.426332 42.987005 
L 166.102952 43.070355 
L 165.780768 42.93461 
L 165.469731 42.582631 
L 165.179551 42.021836 
L 164.698228 40.325237 
L 164.402289 37.987103 
L 164.341678 35.203529 
L 164.546602 32.207971 
L 165.024998 29.251661 
L 165.761866 26.582539 
L 166.720531 24.424462 
L 167.266371 23.595746 
L 167.845713 22.958424 
L 168.449502 22.52593 
L 169.068169 22.307379 
L 169.691831 22.307379 
L 170.310498 22.52593 
L 170.914287 22.958424 
L 171.493629 23.595746 
L 172.039469 24.424462 
L 172.54346 25.427105 
L 173.397065 27.866412 
L 174.007979 30.709087 
L 174.350087 33.716719 
L 174.419821 36.637063 
L 174.236457 39.225193 
L 173.840496 41.264048 
L 173.290269 42.582631 
L 172.979232 42.93461 
L 172.657048 43.070355 
L 172.333668 42.987005 
L 172.019064 42.686316 
L 171.723023 42.174626 
L 171.223635 40.565607 
L 170.90251 38.294894 
L 170.811703 35.552928 
L 170.983954 32.569673 
L 171.42994 29.595331 
L 172.137379 26.879355 
L 173.072065 24.64953 
L 173.60861 23.777416 
L 174.180729 23.092867 
L 174.779518 22.610312 
L 175.395513 22.339922 
L 176.018887 22.287397 
L 176.639658 22.453843 
L 177.247898 22.835753 
L 177.833943 23.425076 
L 178.388598 24.209391 
L 178.903329 25.172165 
L 179.783252 27.548584 
L 180.425037 30.355026 
L 180.799981 33.35612 
L 180.901764 36.300169 
L 180.746971 38.940259 
L 180.373708 41.05497 
L 179.838403 42.466945 
L 179.531491 42.869788 
L 179.211077 43.057763 
L 178.887072 43.026908 
L 178.569463 42.777873 
L 178.268102 42.315908 
L 177.751618 40.79642 
L 177.406058 38.595879 
L 177.285528 35.898842 
L 177.42526 32.931505 
L 177.838658 29.942734 
L 178.516175 27.183193 
L 179.426112 24.884321 
L 179.952894 23.969866 
L 180.517277 23.23892 
L 181.110522 22.706888 
L 181.72328 22.384987 
L 182.345793 22.28 
L 182.968098 22.394141 
L 183.580233 22.725003 
L 184.172453 23.265613 
L 184.735433 24.004576 
L 185.260462 24.926316 
L 186.165999 27.236968 
L 186.83824 30.003778 
L 187.24593 32.994698 
L 187.38 35.958884 
L 223.38 35.958884 
L 223.38 35.958884 
" clip-path="url(#pe8b6b411cb)" style="fill: none; stroke: #000000; stroke-width: 2; stroke-linecap: round"/>
   </g>
   <g id="line2d_3">
    <path d="M 223.38 35.958884 
L 223.38 71.958884 
L 232.38 74.958884 
L 214.38 80.958884 
L 232.38 86.958884 
L 214.38 92.958884 
L 232.38 98.958884 
L 214.38 104.958884 
L 223.38 107.958884 
L 223.38 143.958884 
" clip-path="url(#pe8b6b411cb)" style="fill: none; stroke: #000000; stroke-width: 2; stroke-linecap: round"/>
   </g>
   <g id="line2d_4">
    <path d="M 223.38 35.958884 
L 232.38 35.958884 
L 241.38 35.958884 
" clip-path="url(#pe8b6b411cb)" style="fill: none; stroke: #000000; stroke-width: 2; stroke-linecap: round"/>
   </g>
   <g id="line2d_5">
    <path d="M 223.38 143.958884 
L 232.38 143.958884 
L 241.38 143.958884 
" clip-path="url(#pe8b6b411cb)" style="fill: none; stroke: #000000; stroke-width: 2; stroke-linecap: round"/>
   </g>
   <g id="line2d_6">
    <path d="M 223.38 143.958884 
L 115.38 143.958884 
L 7.38 143.958884 
" clip-path="url(#pe8b6b411cb)" style="fill: none; stroke: #000000; stroke-width: 2; stroke-linecap: round"/>
   </g>
   <g id="text_1">
    <!-- $C_2$ -->
    <g transform="translate(53.12 20.447322) scale(0.14 -0.14)">
     <defs>
      <path id="DejaVuSans-Oblique-43" d="M 4447 4306 
L 4319 3641 
Q 4019 3944 3683 4091 
Q 3347 4238 2956 4238 
Q 2422 4238 2017 3981 
Q 1613 3725 1319 3200 
Q 1131 2863 1032 2486 
Q 934 2109 934 1728 
Q 934 1091 1264 756 
Q 1594 422 2222 422 
Q 2656 422 3056 561 
Q 3456 700 3834 978 
L 3688 231 
Q 3316 72 2936 -9 
Q 2556 -91 2175 -91 
Q 1278 -91 773 396 
Q 269 884 269 1753 
Q 269 2309 461 2846 
Q 653 3384 1013 3828 
Q 1394 4300 1883 4525 
Q 2372 4750 3022 4750 
Q 3422 4750 3780 4639 
Q 4138 4528 4447 4306 
z
" transform="scale(0.015625)"/>
      <path id="DejaVuSans-32" d="M 1228 531 
L 3431 531 
L 3431 0 
L 469 0 
L 469 531 
Q 828 903 1448 1529 
Q 2069 2156 2228 2338 
Q 2531 2678 2651 2914 
Q 2772 3150 2772 3378 
Q 2772 3750 2511 3984 
Q 2250 4219 1831 4219 
Q 1534 4219 1204 4116 
Q 875 4013 500 3803 
L 500 4441 
Q 881 4594 1212 4672 
Q 1544 4750 1819 4750 
Q 2544 4750 2975 4387 
Q 3406 4025 3406 3419 
Q 3406 3131 3298 2873 
Q 3191 2616 2906 2266 
Q 2828 2175 2409 1742 
Q 1991 1309 1228 531 
z
" transform="scale(0.015625)"/>
     </defs>
     <use xlink:href="#DejaVuSans-Oblique-43" transform="translate(0 0.78125)"/>
     <use xlink:href="#DejaVuSans-32" transform="translate(69.824219 -15.625) scale(0.7)"/>
    </g>
   </g>
   <g id="text_2">
    <!-- $L_2$ -->
    <g transform="translate(162.17 15.768437) scale(0.14 -0.14)">
     <defs>
      <path id="DejaVuSans-Oblique-4c" d="M 1075 4666 
L 1709 4666 
L 909 525 
L 3181 525 
L 3078 0 
L 172 0 
L 1075 4666 
z
" transform="scale(0.015625)"/>
     </defs>
     <use xlink:href="#DejaVuSans-Oblique-4c" transform="translate(0 0.09375)"/>
     <use xlink:href="#DejaVuSans-32" transform="translate(55.712891 -16.3125) scale(0.7)"/>
    </g>
   </g>
   <g id="text_3">
    <!-- $R_L$ -->
    <g transform="translate(195.1 93.822009) scale(0.14 -0.14)">
     <defs>
      <path id="DejaVuSans-Oblique-52" d="M 1613 4147 
L 1294 2491 
L 2106 2491 
Q 2584 2491 2879 2755 
Q 3175 3019 3175 3444 
Q 3175 3784 2976 3965 
Q 2778 4147 2406 4147 
L 1613 4147 
z
M 2772 2241 
Q 2972 2194 3105 2009 
Q 3238 1825 3413 1275 
L 3809 0 
L 3144 0 
L 2778 1197 
Q 2638 1659 2453 1815 
Q 2269 1972 1888 1972 
L 1191 1972 
L 806 0 
L 172 0 
L 1081 4666 
L 2503 4666 
Q 3150 4666 3495 4373 
Q 3841 4081 3841 3531 
Q 3841 3044 3547 2687 
Q 3253 2331 2772 2241 
z
" transform="scale(0.015625)"/>
     </defs>
     <use xlink:href="#DejaVuSans-Oblique-52" transform="translate(0 0.09375)"/>
     <use xlink:href="#DejaVuSans-Oblique-4c" transform="translate(69.482422 -16.3125) scale(0.7)"/>
    </g>
   </g>
   <g id="text_4">
    <!-- + -->
    <g transform="translate(249.914219 81.222009) scale(0.14 -0.14)">
     <defs>
      <path id="DejaVuSans-2b" d="M 2944 4013 
L 2944 2272 
L 4684 2272 
L 4684 1741 
L 2944 1741 
L 2944 0 
L 2419 0 
L 2419 1741 
L 678 1741 
L 678 2272 
L 2419 2272 
L 2419 4013 
L 2944 4013 
z
" transform="scale(0.015625)"/>
     </defs>
     <use xlink:href="#DejaVuSans-2b"/>
    </g>
   </g>
   <g id="text_5">
    <!-- vout -->
    <g transform="translate(240.173281 108.222009) scale(0.14 -0.14)">
     <defs>
      <path id="DejaVuSans-76" d="M 191 3500 
L 800 3500 
L 1894 563 
L 2988 3500 
L 3597 3500 
L 2284 0 
L 1503 0 
L 191 3500 
z
" transform="scale(0.015625)"/>
      <path id="DejaVuSans-6f" d="M 1959 3097 
Q 1497 3097 1228 2736 
Q 959 2375 959 1747 
Q 959 1119 1226 758 
Q 1494 397 1959 397 
Q 2419 397 2687 759 
Q 2956 1122 2956 1747 
Q 2956 2369 2687 2733 
Q 2419 3097 1959 3097 
z
M 1959 3584 
Q 2709 3584 3137 3096 
Q 3566 2609 3566 1747 
Q 3566 888 3137 398 
Q 2709 -91 1959 -91 
Q 1206 -91 779 398 
Q 353 888 353 1747 
Q 353 2609 779 3096 
Q 1206 3584 1959 3584 
z
" transform="scale(0.015625)"/>
      <path id="DejaVuSans-75" d="M 544 1381 
L 544 3500 
L 1119 3500 
L 1119 1403 
Q 1119 906 1312 657 
Q 1506 409 1894 409 
Q 2359 409 2629 706 
Q 2900 1003 2900 1516 
L 2900 3500 
L 3475 3500 
L 3475 0 
L 2900 0 
L 2900 538 
Q 2691 219 2414 64 
Q 2138 -91 1772 -91 
Q 1169 -91 856 284 
Q 544 659 544 1381 
z
M 1991 3584 
L 1991 3584 
z
" transform="scale(0.015625)"/>
      <path id="DejaVuSans-74" d="M 1172 4494 
L 1172 3500 
L 2356 3500 
L 2356 3053 
L 1172 3053 
L 1172 1153 
Q 1172 725 1289 603 
Q 1406 481 1766 481 
L 2356 481 
L 2356 0 
L 1766 0 
Q 1100 0 847 248 
Q 594 497 594 1153 
L 594 3053 
L 172 3053 
L 172 3500 
L 594 3500 
L 594 4494 
L 1172 4494 
z
" transform="scale(0.015625)"/>
     </defs>
     <use xlink:href="#DejaVuSans-76"/>
     <use xlink:href="#DejaVuSans-6f" transform="translate(59.179688 0)"/>
     <use xlink:href="#DejaVuSans-75" transform="translate(120.361328 0)"/>
     <use xlink:href="#DejaVuSans-74" transform="translate(183.740234 0)"/>
    </g>
   </g>
   <g id="text_6">
    <!-- − -->
    <g transform="translate(249.914219 135.222009) scale(0.14 -0.14)">
     <defs>
      <path id="DejaVuSans-2212" d="M 678 2272 
L 4684 2272 
L 4684 1741 
L 678 1741 
L 678 2272 
z
" transform="scale(0.015625)"/>
     </defs>
     <use xlink:href="#DejaVuSans-2212"/>
    </g>
   </g>
   <g id="patch_2">
    <path d="M 7.38 38.658884 
C 8.096048 38.658884 8.782866 38.374395 9.289188 37.868073 
C 9.795511 37.36175 10.08 36.674933 10.08 35.958884 
C 10.08 35.242836 9.795511 34.556019 9.289188 34.049696 
C 8.782866 33.543374 8.096048 33.258884 7.38 33.258884 
C 6.663952 33.258884 5.977134 33.543374 5.470812 34.049696 
C 4.964489 34.556019 4.68 35.242836 4.68 35.958884 
C 4.68 36.674933 4.964489 37.36175 5.470812 37.868073 
C 5.977134 38.374395 6.663952 38.658884 7.38 38.658884 
z
" clip-path="url(#pe8b6b411cb)" style="fill: #ff0000; stroke: #ff0000; stroke-width: 2; stroke-linejoin: miter"/>
   </g>
   <g id="patch_3">
    <path d="M 241.38 38.658884 
C 242.096048 38.658884 242.782866 38.374395 243.289188 37.868073 
C 243.795511 37.36175 244.08 36.674933 244.08 35.958884 
C 244.08 35.242836 243.795511 34.556019 243.289188 34.049696 
C 242.782866 33.543374 242.096048 33.258884 241.38 33.258884 
C 240.663952 33.258884 239.977134 33.543374 239.470812 34.049696 
C 238.964489 34.556019 238.68 35.242836 238.68 35.958884 
C 238.68 36.674933 238.964489 37.36175 239.470812 37.868073 
C 239.977134 38.374395 240.663952 38.658884 241.38 38.658884 
z
" clip-path="url(#pe8b6b411cb)" style="fill: #ffffff; stroke: #000000; stroke-width: 2; stroke-linejoin: miter"/>
   </g>
   <g id="patch_4">
    <path d="M 241.38 146.658884 
C 242.096048 146.658884 242.782866 146.374395 243.289188 145.868073 
C 243.795511 145.36175 244.08 144.674933 244.08 143.958884 
C 244.08 143.242836 243.795511 142.556019 243.289188 142.049696 
C 242.782866 141.543374 242.096048 141.258884 241.38 141.258884 
C 240.663952 141.258884 239.977134 141.543374 239.470812 142.049696 
C 238.964489 142.556019 238.68 143.242836 238.68 143.958884 
C 238.68 144.674933 238.964489 145.36175 239.470812 145.868073 
C 239.977134 146.374395 240.663952 146.658884 241.38 146.658884 
z
" clip-path="url(#pe8b6b411cb)" style="fill: #ffffff; stroke: #000000; stroke-width: 2; stroke-linejoin: miter"/>
   </g>
   <g id="patch_5">
    <path d="M 7.38 146.658884 
C 8.096048 146.658884 8.782866 146.374395 9.289188 145.868073 
C 9.795511 145.36175 10.08 144.674933 10.08 143.958884 
C 10.08 143.242836 9.795511 142.556019 9.289188 142.049696 
C 8.782866 141.543374 8.096048 141.258884 7.38 141.258884 
C 6.663952 141.258884 5.977134 141.543374 5.470812 142.049696 
C 4.964489 142.556019 4.68 143.242836 4.68 143.958884 
C 4.68 144.674933 4.964489 145.36175 5.470812 145.868073 
C 5.977134 146.374395 6.663952 146.658884 7.38 146.658884 
z
" clip-path="url(#pe8b6b411cb)" style="stroke: #000000; stroke-width: 2; stroke-linejoin: miter"/>
   </g>
  </g>
 </g>
 <defs>
  <clipPath id="pe8b6b411cb">
   <rect x="0" y="0" width="274.11" height="151.338884"/>
  </clipPath>
 </defs>
</svg>