<?xml version="1.0" encoding="utf-8" standalone="no"?>
<!DOCTYPE svg PUBLIC "-//W3C//DTD SVG 1.1//EN"
  "http://www.w3.org/Graphics/SVG/1.1/DTD/svg11.dtd">
<svg xmlns:xlink="http://www.w3.org/1999/xlink" width="200.122884pt" height="258.56pt" viewBox="0 0 200.122884 258.56" xmlns="http://www.w3.org/2000/svg" version="1.1">
 <metadata>
  <rdf:RDF xmlns:dc="http://purl.org/dc/elements/1.1/" xmlns:cc="http://creativecommons.org/ns#" xmlns:rdf="http://www.w3.org/1999/02/22-rdf-syntax-ns#">
   <cc:Work>
    <dc:type rdf:resource="http://purl.org/dc/dcmitype/StillImage"/>
    <dc:date>2025-10-05T17:30:03.536257</dc:date>
    <dc:format>image/svg+xml</dc:format>
    <dc:creator>
     <cc:Agent>
      <dc:title>Matplotlib v3.10.6, https://matplotlib.org/</dc:title>
     </cc:Agent>
    </dc:creator>
   </cc:Work>
  </rdf:RDF>
 </metadata>
 <defs>
  <style type="text/css">*{stroke-linejoin: round; stroke-linecap: butt}</style>
 </defs>
 <g id="figure_1">
  <g id="patch_1">
   <path d="M 0 258.56 
L 200.122884 258.56 
L 200.122884 0 
L 0 0 
z
" style="fill: #ffffff"/>
  </g>
  <g id="axes_1">
   <g id="line2d_1">
    <path d="M 54.178884 205.76 
L 67.378884 205.76 
" clip-path="url(#p0c19509a89)" style="fill: none; stroke: #000000; stroke-width: 2; stroke-linecap: round"/>
   </g>
   <g id="line2d_2">
    <path d="M 67.378884 192.56 
L 67.378884 218.96 
" clip-path="url(#p0c19509a89)" style="fill: none; stroke: #000000; stroke-width: 2; stroke-linecap: round"/>
   </g>
   <g id="line2d_3">
    <path d="M 67.378884 199.16 
L 81.238884 187.28 
L 81.238884 180.68 
" clip-path="url(#p0c19509a89)" style="fill: none; stroke: #000000; stroke-width: 2; stroke-linecap: round"/>
   </g>
   <g id="line2d_4">
    <path d="M 67.378884 212.36 
L 81.238884 224.24 
L 81.238884 230.84 
" clip-path="url(#p0c19509a89)" style="fill: none; stroke: #000000; stroke-width: 2; stroke-linecap: round"/>
   </g>
   <g id="line2d_5">
    <path d="M 67.378884 212.36 
L 74.405575 218.382878 
" clip-path="url(#p0c19509a89)" style="fill: none; stroke: #000000; stroke-width: 2; stroke-linecap: round"/>
   </g>
   <g id="patch_2">
    <path d="M 76.748424 215.649554 
L 81.238884 224.24 
L 72.062726 221.116201 
z
" clip-path="url(#p0c19509a89)"/>
   </g>
   <g id="line2d_6">
    <path d="M 81.238884 230.84 
L 81.238884 245.24 
L 72.238884 245.24 
L 90.238884 245.24 
M 74.938884 249.56 
L 87.538884 249.56 
M 79.438884 253.88 
L 83.038884 253.88 
" clip-path="url(#p0c19509a89)" style="fill: none; stroke: #000000; stroke-width: 2; stroke-linecap: round"/>
   </g>
   <g id="line2d_7">
    <path d="M 81.238884 180.68 
L 81.238884 167.18 
L 81.238884 153.68 
" clip-path="url(#p0c19509a89)" style="fill: none; stroke: #000000; stroke-width: 2; stroke-linecap: round"/>
   </g>
   <g id="line2d_8">
    <path d="M 81.238884 153.68 
L 81.238884 102.92 
M 72.238884 102.92 
L 90.238884 102.92 
M 72.238884 96.44 
L 90.238884 96.44 
M 81.238884 96.44 
L 81.238884 45.68 
" clip-path="url(#p0c19509a89)" style="fill: none; stroke: #000000; stroke-width: 2; stroke-linecap: round"/>
   </g>
   <g id="line2d_9">
    <path d="M 81.238884 153.68 
L 58.738884 153.68 
L 36.238884 153.68 
" clip-path="url(#p0c19509a89)" style="fill: none; stroke: #000000; stroke-width: 2; stroke-linecap: round"/>
   </g>
   <g id="line2d_10">
    <path d="M 36.238884 153.68 
L 36.238884 117.68 
L 33.274698 117.54593 
L 30.283778 117.13824 
L 27.516968 116.465999 
L 25.206316 115.560462 
L 24.284576 115.035433 
L 23.545613 114.472453 
L 23.005003 113.880233 
L 22.674141 113.268098 
L 22.56 112.645793 
L 22.664987 112.02328 
L 22.986888 111.410522 
L 23.51892 110.817277 
L 24.249866 110.252894 
L 25.164321 109.726112 
L 27.463193 108.816175 
L 30.222734 108.138658 
L 33.211505 107.72526 
L 36.178842 107.585528 
L 38.875879 107.706058 
L 41.07642 108.051618 
L 42.595908 108.568102 
L 43.057873 108.869463 
L 43.306908 109.187072 
L 43.337763 109.511077 
L 43.149788 109.831491 
L 42.746945 110.138403 
L 41.33497 110.673708 
L 39.220259 111.046971 
L 36.580169 111.201764 
L 33.63612 111.099981 
L 30.635026 110.725037 
L 27.828584 110.083252 
L 25.452165 109.203329 
L 24.489391 108.688598 
L 23.705076 108.133943 
L 23.115753 107.547898 
L 22.733843 106.939658 
L 22.567397 106.318887 
L 22.619922 105.695513 
L 22.890312 105.079518 
L 23.372867 104.480729 
L 24.057416 103.90861 
L 24.92953 103.372065 
L 27.159355 102.437379 
L 29.875331 101.72994 
L 32.849673 101.283954 
L 35.832928 101.111703 
L 38.574894 101.20251 
L 40.845607 101.523635 
L 42.454626 102.023023 
L 42.966316 102.319064 
L 43.267005 102.633668 
L 43.350355 102.957048 
L 43.21461 103.279232 
L 42.862631 103.590269 
L 42.301836 103.880449 
L 40.605237 104.361772 
L 38.267103 104.657711 
L 35.483529 104.718322 
L 32.487971 104.513398 
L 29.531661 104.035002 
L 26.862539 103.298134 
L 24.704462 102.339469 
L 23.875746 101.793629 
L 23.238424 101.214287 
L 22.80593 100.610498 
L 22.587379 99.991831 
L 22.587379 99.368169 
L 22.80593 98.749502 
L 23.238424 98.145713 
L 23.875746 97.566371 
L 24.704462 97.020531 
L 25.707105 96.51654 
L 28.146412 95.662935 
L 30.989087 95.052021 
L 33.996719 94.709913 
L 36.917063 94.640179 
L 39.505193 94.823543 
L 41.544048 95.219504 
L 42.862631 95.769731 
L 43.21461 96.080768 
L 43.350355 96.402952 
L 43.267005 96.726332 
L 42.966316 97.040936 
L 42.454626 97.336977 
L 40.845607 97.836365 
L 38.574894 98.15749 
L 35.832928 98.248297 
L 32.849673 98.076046 
L 29.875331 97.63006 
L 27.159355 96.922621 
L 24.92953 95.987935 
L 24.057416 95.45139 
L 23.372867 94.879271 
L 22.890312 94.280482 
L 22.619922 93.664487 
L 22.567397 93.041113 
L 22.733843 92.420342 
L 23.115753 91.812102 
L 23.705076 91.226057 
L 24.489391 90.671402 
L 25.452165 90.156671 
L 27.828584 89.276748 
L 30.635026 88.634963 
L 33.63612 88.260019 
L 36.580169 88.158236 
L 39.220259 88.313029 
L 41.33497 88.686292 
L 42.746945 89.221597 
L 43.149788 89.528509 
L 43.337763 89.848923 
L 43.306908 90.172928 
L 43.057873 90.490537 
L 42.595908 90.791898 
L 41.07642 91.308382 
L 38.875879 91.653942 
L 36.178842 91.774472 
L 33.211505 91.63474 
L 30.222734 91.221342 
L 27.463193 90.543825 
L 25.164321 89.633888 
L 24.249866 89.107106 
L 23.51892 88.542723 
L 22.986888 87.949478 
L 22.664987 87.33672 
L 22.56 86.714207 
L 22.674141 86.091902 
L 23.005003 85.479767 
L 23.545613 84.887547 
L 24.284576 84.324567 
L 25.206316 83.799538 
L 27.516968 82.894001 
L 30.283778 82.22176 
L 33.274698 81.81407 
L 36.238884 81.68 
L 36.238884 45.68 
L 36.238884 45.68 
" clip-path="url(#p0c19509a89)" style="fill: none; stroke: #000000; stroke-width: 2; stroke-linecap: round"/>
   </g>
   <g id="line2d_11">
    <path d="M 81.238884 153.68 
L 103.738884 153.68 
L 126.238884 153.68 
" clip-path="url(#p0c19509a89)" style="fill: none; stroke: #000000; stroke-width: 2; stroke-linecap: round"/>
   </g>
   <g id="line2d_12">
    <path d="M 126.238884 153.68 
L 126.238884 117.68 
L 117.238884 114.68 
L 135.238884 108.68 
L 117.238884 102.68 
L 135.238884 96.68 
L 117.238884 90.68 
L 135.238884 84.68 
L 126.238884 81.68 
L 126.238884 45.68 
" clip-path="url(#p0c19509a89)" style="fill: none; stroke: #000000; stroke-width: 2; stroke-linecap: round"/>
   </g>
   <g id="line2d_13">
    <path d="M 126.238884 153.68 
L 135.238884 153.68 
L 144.238884 153.68 
" clip-path="url(#p0c19509a89)" style="fill: none; stroke: #000000; stroke-width: 2; stroke-linecap: round"/>
   </g>
   <g id="line2d_14">
    <path d="M 126.238884 45.68 
L 135.238884 45.68 
L 144.238884 45.68 
" clip-path="url(#p0c19509a89)" style="fill: none; stroke: #000000; stroke-width: 2; stroke-linecap: round"/>
   </g>
   <g id="line2d_15">
    <path d="M 126.238884 45.68 
L 103.738884 45.68 
L 81.238884 45.68 
" clip-path="url(#p0c19509a89)" style="fill: none; stroke: #000000; stroke-width: 2; stroke-linecap: round"/>
   </g>
   <g id="line2d_16">
    <path d="M 36.238884 45.68 
L 58.738884 45.68 
L 81.238884 45.68 
" clip-path="url(#p0c19509a89)" style="fill: none; stroke: #000000; stroke-width: 2; stroke-linecap: round"/>
   </g>
   <g id="line2d_17">
    <path d="M 81.238884 45.68 
L 81.238884 41.18 
L 81.238884 36.68 
" clip-path="url(#p0c19509a89)" style="fill: none; stroke: #000000; stroke-width: 2; stroke-linecap: round"/>
   </g>
   <g id="line2d_18">
    <path d="M 81.238884 36.68 
L 81.238884 22.28 
" clip-path="url(#p0c19509a89)" style="fill: none; stroke: #000000; stroke-width: 2; stroke-linecap: round"/>
   </g>
   <g id="line2d_19">
    <path d="M 81.238884 22.28 
L 74.488884 22.28 
" clip-path="url(#p0c19509a89)" style="fill: none; stroke: #000000; stroke-width: 2; stroke-linecap: round"/>
   </g>
   <g id="line2d_20">
    <path d="M 81.238884 22.28 
L 87.988884 22.28 
" clip-path="url(#p0c19509a89)" style="fill: none; stroke: #000000; stroke-width: 2; stroke-linecap: round"/>
   </g>
   <g id="text_1">
    <!-- $I_{in}$ -->
    <g transform="translate(36.998884 209.923125) scale(0.14 -0.14)">
     <defs>
      <path id="DejaVuSans-Oblique-49" d="M 1081 4666 
L 1716 4666 
L 806 0 
L 172 0 
L 1081 4666 
z
" transform="scale(0.015625)"/>
      <path id="DejaVuSans-Oblique-69" d="M 1172 4863 
L 1747 4863 
L 1606 4134 
L 1031 4134 
L 1172 4863 
z
M 909 3500 
L 1484 3500 
L 800 0 
L 225 0 
L 909 3500 
z
" transform="scale(0.015625)"/>
      <path id="DejaVuSans-Oblique-6e" d="M 3566 2113 
L 3156 0 
L 2578 0 
L 2988 2091 
Q 3016 2238 3031 2350 
Q 3047 2463 3047 2528 
Q 3047 2791 2881 2937 
Q 2716 3084 2419 3084 
Q 1956 3084 1622 2776 
Q 1288 2469 1184 1941 
L 800 0 
L 225 0 
L 903 3500 
L 1478 3500 
L 1363 2950 
Q 1603 3253 1940 3418 
Q 2278 3584 2650 3584 
Q 3113 3584 3367 3334 
Q 3622 3084 3622 2631 
Q 3622 2519 3608 2391 
Q 3594 2263 3566 2113 
z
" transform="scale(0.015625)"/>
     </defs>
     <use xlink:href="#DejaVuSans-Oblique-49" transform="translate(0 0.09375)"/>
     <use xlink:href="#DejaVuSans-Oblique-69" transform="translate(29.492188 -16.3125) scale(0.7)"/>
     <use xlink:href="#DejaVuSans-Oblique-6e" transform="translate(48.94043 -16.3125) scale(0.7)"/>
    </g>
   </g>
   <g id="text_2">
    <!-- $C_1$ -->
    <g transform="translate(52.118884 103.543125) scale(0.14 -0.14)">
     <defs>
      <path id="DejaVuSans-Oblique-43" d="M 4447 4306 
L 4319 3641 
Q 4019 3944 3683 4091 
Q 3347 4238 2956 4238 
Q 2422 4238 2017 3981 
Q 1613 3725 1319 3200 
Q 1131 2863 1032 2486 
Q 934 2109 934 1728 
Q 934 1091 1264 756 
Q 1594 422 2222 422 
Q 2656 422 3056 561 
Q 3456 700 3834 978 
L 3688 231 
Q 3316 72 2936 -9 
Q 2556 -91 2175 -91 
Q 1278 -91 773 396 
Q 269 884 269 1753 
Q 269 2309 461 2846 
Q 653 3384 1013 3828 
Q 1394 4300 1883 4525 
Q 2372 4750 3022 4750 
Q 3422 4750 3780 4639 
Q 4138 4528 4447 4306 
z
" transform="scale(0.015625)"/>
      <path id="DejaVuSans-31" d="M 794 531 
L 1825 531 
L 1825 4091 
L 703 3866 
L 703 4441 
L 1819 4666 
L 2450 4666 
L 2450 531 
L 3481 531 
L 3481 0 
L 794 0 
L 794 531 
z
" transform="scale(0.015625)"/>
     </defs>
     <use xlink:href="#DejaVuSans-Oblique-43" transform="translate(0 0.78125)"/>
     <use xlink:href="#DejaVuSans-31" transform="translate(69.824219 -15.625) scale(0.7)"/>
    </g>
   </g>
   <g id="text_3">
    <!-- $L_1$ -->
    <g transform="translate(4.54 103.543125) scale(0.14 -0.14)">
     <defs>
      <path id="DejaVuSans-Oblique-4c" d="M 1075 4666 
L 1709 4666 
L 909 525 
L 3181 525 
L 3078 0 
L 172 0 
L 1075 4666 
z
" transform="scale(0.015625)"/>
     </defs>
     <use xlink:href="#DejaVuSans-Oblique-4c" transform="translate(0 0.09375)"/>
     <use xlink:href="#DejaVuSans-31" transform="translate(55.712891 -16.3125) scale(0.7)"/>
    </g>
   </g>
   <g id="text_4">
    <!-- $R_L$ -->
    <g transform="translate(97.958884 103.543125) scale(0.14 -0.14)">
     <defs>
      <path id="DejaVuSans-Oblique-52" d="M 1613 4147 
L 1294 2491 
L 2106 2491 
Q 2584 2491 2879 2755 
Q 3175 3019 3175 3444 
Q 3175 3784 2976 3965 
Q 2778 4147 2406 4147 
L 1613 4147 
z
M 2772 2241 
Q 2972 2194 3105 2009 
Q 3238 1825 3413 1275 
L 3809 0 
L 3144 0 
L 2778 1197 
Q 2638 1659 2453 1815 
Q 2269 1972 1888 1972 
L 1191 1972 
L 806 0 
L 172 0 
L 1081 4666 
L 2503 4666 
Q 3150 4666 3495 4373 
Q 3841 4081 3841 3531 
Q 3841 3044 3547 2687 
Q 3253 2331 2772 2241 
z
" transform="scale(0.015625)"/>
     </defs>
     <use xlink:href="#DejaVuSans-Oblique-52" transform="translate(0 0.09375)"/>
     <use xlink:href="#DejaVuSans-Oblique-4c" transform="translate(69.482422 -16.3125) scale(0.7)"/>
    </g>
   </g>
   <g id="text_5">
    <!-- $V_{dd}$ -->
    <g transform="translate(69.968884 15.768438) scale(0.14 -0.14)">
     <defs>
      <path id="DejaVuSans-Oblique-56" d="M 1319 0 
L 500 4666 
L 1119 4666 
L 1797 653 
L 4063 4666 
L 4750 4666 
L 2053 0 
L 1319 0 
z
" transform="scale(0.015625)"/>
      <path id="DejaVuSans-Oblique-64" d="M 2675 525 
Q 2444 222 2128 65 
Q 1813 -91 1428 -91 
Q 903 -91 598 267 
Q 294 625 294 1247 
Q 294 1766 478 2236 
Q 663 2706 1013 3078 
Q 1244 3325 1534 3454 
Q 1825 3584 2144 3584 
Q 2481 3584 2739 3421 
Q 2997 3259 3138 2956 
L 3513 4863 
L 4091 4863 
L 3144 0 
L 2566 0 
L 2675 525 
z
M 891 1350 
Q 891 897 1095 644 
Q 1300 391 1663 391 
Q 1931 391 2161 520 
Q 2391 650 2566 903 
Q 2750 1166 2856 1509 
Q 2963 1853 2963 2188 
Q 2963 2622 2758 2865 
Q 2553 3109 2194 3109 
Q 1922 3109 1687 2981 
Q 1453 2853 1288 2613 
Q 1106 2353 998 2009 
Q 891 1666 891 1350 
z
" transform="scale(0.015625)"/>
     </defs>
     <use xlink:href="#DejaVuSans-Oblique-56" transform="translate(0 0.09375)"/>
     <use xlink:href="#DejaVuSans-Oblique-64" transform="translate(68.408203 -16.3125) scale(0.7)"/>
     <use xlink:href="#DejaVuSans-Oblique-64" transform="translate(112.841797 -16.3125) scale(0.7)"/>
    </g>
   </g>
   <g id="text_6">
    <!-- - -->
    <g transform="translate(177.713416 166.543125) scale(0.14 -0.14)">
     <defs>
      <path id="DejaVuSans-2d" d="M 313 2009 
L 1997 2009 
L 1997 1497 
L 313 1497 
L 313 2009 
z
" transform="scale(0.015625)"/>
     </defs>
     <use xlink:href="#DejaVuSans-2d"/>
    </g>
   </g>
   <g id="text_7">
    <!-- $v_{out}$ -->
    <g transform="translate(167.848884 139.543125) scale(0.14 -0.14)">
     <defs>
      <path id="DejaVuSans-Oblique-76" d="M 459 3500 
L 1069 3500 
L 1581 525 
L 3256 3500 
L 3866 3500 
L 1875 0 
L 1100 0 
L 459 3500 
z
" transform="scale(0.015625)"/>
      <path id="DejaVuSans-Oblique-6f" d="M 1625 -91 
Q 1009 -91 651 289 
Q 294 669 294 1325 
Q 294 1706 417 2101 
Q 541 2497 738 2766 
Q 1047 3184 1428 3384 
Q 1809 3584 2291 3584 
Q 2888 3584 3255 3212 
Q 3622 2841 3622 2241 
Q 3622 1825 3500 1412 
Q 3378 1000 3181 728 
Q 2875 309 2494 109 
Q 2113 -91 1625 -91 
z
M 891 1344 
Q 891 869 1089 633 
Q 1288 397 1691 397 
Q 2269 397 2648 901 
Q 3028 1406 3028 2181 
Q 3028 2634 2825 2865 
Q 2622 3097 2228 3097 
Q 1903 3097 1650 2945 
Q 1397 2794 1197 2484 
Q 1050 2253 970 1956 
Q 891 1659 891 1344 
z
" transform="scale(0.015625)"/>
      <path id="DejaVuSans-Oblique-75" d="M 428 1388 
L 838 3500 
L 1416 3500 
L 1006 1409 
Q 975 1256 961 1147 
Q 947 1038 947 966 
Q 947 700 1109 554 
Q 1272 409 1569 409 
Q 2031 409 2368 721 
Q 2706 1034 2809 1563 
L 3194 3500 
L 3769 3500 
L 3091 0 
L 2516 0 
L 2631 550 
Q 2388 244 2052 76 
Q 1716 -91 1338 -91 
Q 878 -91 622 161 
Q 366 413 366 863 
Q 366 956 381 1097 
Q 397 1238 428 1388 
z
" transform="scale(0.015625)"/>
      <path id="DejaVuSans-Oblique-74" d="M 2706 3500 
L 2619 3053 
L 1472 3053 
L 1100 1153 
Q 1081 1047 1072 975 
Q 1063 903 1063 863 
Q 1063 663 1183 572 
Q 1303 481 1569 481 
L 2150 481 
L 2053 0 
L 1503 0 
Q 991 0 739 200 
Q 488 400 488 806 
Q 488 878 497 964 
Q 506 1050 525 1153 
L 897 3053 
L 409 3053 
L 500 3500 
L 978 3500 
L 1172 4494 
L 1747 4494 
L 1556 3500 
L 2706 3500 
z
" transform="scale(0.015625)"/>
     </defs>
     <use xlink:href="#DejaVuSans-Oblique-76" transform="translate(0 0.3125)"/>
     <use xlink:href="#DejaVuSans-Oblique-6f" transform="translate(59.179688 -16.09375) scale(0.7)"/>
     <use xlink:href="#DejaVuSans-Oblique-75" transform="translate(102.006836 -16.09375) scale(0.7)"/>
     <use xlink:href="#DejaVuSans-Oblique-74" transform="translate(146.37207 -16.09375) scale(0.7)"/>
    </g>
   </g>
   <g id="text_8">
    <!-- $+$ -->
    <g transform="translate(174.358884 112.543125) scale(0.14 -0.14)">
     <defs>
      <path id="DejaVuSans-2b" d="M 2944 4013 
L 2944 2272 
L 4684 2272 
L 4684 1741 
L 2944 1741 
L 2944 0 
L 2419 0 
L 2419 1741 
L 678 1741 
L 678 2272 
L 2419 2272 
L 2419 4013 
L 2944 4013 
z
" transform="scale(0.015625)"/>
     </defs>
     <use xlink:href="#DejaVuSans-2b" transform="translate(0 0.296875)"/>
    </g>
   </g>
   <g id="patch_3">
    <path d="M 54.178884 208.46 
C 54.894933 208.46 55.58175 208.175511 56.088073 207.669188 
C 56.594395 207.162866 56.878884 206.476048 56.878884 205.76 
C 56.878884 205.043952 56.594395 204.357134 56.088073 203.850812 
C 55.58175 203.344489 54.894933 203.06 54.178884 203.06 
C 53.462836 203.06 52.776019 203.344489 52.269696 203.850812 
C 51.763374 204.357134 51.478884 205.043952 51.478884 205.76 
C 51.478884 206.476048 51.763374 207.162866 52.269696 207.669188 
C 52.776019 208.175511 53.462836 208.46 54.178884 208.46 
z
" clip-path="url(#p0c19509a89)" style="fill: #ffffff; stroke: #000000; stroke-width: 2; stroke-linejoin: miter"/>
   </g>
   <g id="patch_4">
    <path d="M 81.238884 156.38 
C 81.954933 156.38 82.64175 156.095511 83.148073 155.589188 
C 83.654395 155.082866 83.938884 154.396048 83.938884 153.68 
C 83.938884 152.963952 83.654395 152.277134 83.148073 151.770812 
C 82.64175 151.264489 81.954933 150.98 81.238884 150.98 
C 80.522836 150.98 79.836019 151.264489 79.329696 151.770812 
C 78.823374 152.277134 78.538884 152.963952 78.538884 153.68 
C 78.538884 154.396048 78.823374 155.082866 79.329696 155.589188 
C 79.836019 156.095511 80.522836 156.38 81.238884 156.38 
z
" clip-path="url(#p0c19509a89)" style="stroke: #000000; stroke-width: 2; stroke-linejoin: miter"/>
   </g>
   <g id="patch_5">
    <path d="M 144.238884 156.38 
C 144.954933 156.38 145.64175 156.095511 146.148073 155.589188 
C 146.654395 155.082866 146.938884 154.396048 146.938884 153.68 
C 146.938884 152.963952 146.654395 152.277134 146.148073 151.770812 
C 145.64175 151.264489 144.954933 150.98 144.238884 150.98 
C 143.522836 150.98 142.836019 151.264489 142.329696 151.770812 
C 141.823374 152.277134 141.538884 152.963952 141.538884 153.68 
C 141.538884 154.396048 141.823374 155.082866 142.329696 155.589188 
C 142.836019 156.095511 143.522836 156.38 144.238884 156.38 
z
" clip-path="url(#p0c19509a89)" style="fill: #ffffff; stroke: #000000; stroke-width: 2; stroke-linejoin: miter"/>
   </g>
   <g id="patch_6">
    <path d="M 144.238884 48.38 
C 144.954933 48.38 145.64175 48.095511 146.148073 47.589188 
C 146.654395 47.082866 146.938884 46.396048 146.938884 45.68 
C 146.938884 44.963952 146.654395 44.277134 146.148073 43.770812 
C 145.64175 43.264489 144.954933 42.98 144.238884 42.98 
C 143.522836 42.98 142.836019 43.264489 142.329696 43.770812 
C 141.823374 44.277134 141.538884 44.963952 141.538884 45.68 
C 141.538884 46.396048 141.823374 47.082866 142.329696 47.589188 
C 142.836019 48.095511 143.522836 48.38 144.238884 48.38 
z
" clip-path="url(#p0c19509a89)" style="fill: #ffffff; stroke: #000000; stroke-width: 2; stroke-linejoin: miter"/>
   </g>
   <g id="patch_7">
    <path d="M 81.238884 48.38 
C 81.954933 48.38 82.64175 48.095511 83.148073 47.589188 
C 83.654395 47.082866 83.938884 46.396048 83.938884 45.68 
C 83.938884 44.963952 83.654395 44.277134 83.148073 43.770812 
C 82.64175 43.264489 81.954933 42.98 81.238884 42.98 
C 80.522836 42.98 79.836019 43.264489 79.329696 43.770812 
C 78.823374 44.277134 78.538884 44.963952 78.538884 45.68 
C 78.538884 46.396048 78.823374 47.082866 79.329696 47.589188 
C 79.836019 48.095511 80.522836 48.38 81.238884 48.38 
z
" clip-path="url(#p0c19509a89)" style="stroke: #000000; stroke-width: 2; stroke-linejoin: miter"/>
   </g>
  </g>
 </g>
 <defs>
  <clipPath id="p0c19509a89">
   <rect x="0" y="0" width="200.122884" height="258.56"/>
  </clipPath>
 </defs>
</svg>