<?xml version="1.0" encoding="utf-8" standalone="no"?>
<!DOCTYPE svg PUBLIC "-//W3C//DTD SVG 1.1//EN"
  "http://www.w3.org/Graphics/SVG/1.1/DTD/svg11.dtd">
<svg xmlns:xlink="http://www.w3.org/1999/xlink" width="261.36pt" height="353.172pt" viewBox="0 0 261.36 353.172" xmlns="http://www.w3.org/2000/svg" version="1.1">
 <metadata>
  <rdf:RDF xmlns:dc="http://purl.org/dc/elements/1.1/" xmlns:cc="http://creativecommons.org/ns#" xmlns:rdf="http://www.w3.org/1999/02/22-rdf-syntax-ns#">
   <cc:Work>
    <dc:type rdf:resource="http://purl.org/dc/dcmitype/StillImage"/>
    <dc:date>2023-12-30T15:25:18.538937</dc:date>
    <dc:format>image/svg+xml</dc:format>
    <dc:creator>
     <cc:Agent>
      <dc:title>Matplotlib v3.8.2, https://matplotlib.org/</dc:title>
     </cc:Agent>
    </dc:creator>
   </cc:Work>
  </rdf:RDF>
 </metadata>
 <defs>
  <style type="text/css">*{stroke-linejoin: round; stroke-linecap: butt}</style>
 </defs>
 <g id="figure_1">
  <g id="patch_1">
   <path d="M 0 353.172 
L 261.36 353.172 
L 261.36 0 
L 0 0 
z
" style="fill: #ffffff"/>
  </g>
  <g id="axes_1">
   <g id="patch_2">
    <path d="M 31.275 265.806 
C 33.661828 265.806 35.951219 264.857703 37.638961 263.169961 
C 39.326703 261.482219 40.275 259.192828 40.275 256.806 
C 40.275 254.419172 39.326703 252.129781 37.638961 250.442039 
C 35.951219 248.754297 33.661828 247.806 31.275 247.806 
C 28.888172 247.806 26.598781 248.754297 24.911039 250.442039 
C 23.223297 252.129781 22.275 254.419172 22.275 256.806 
C 22.275 259.192828 23.223297 261.482219 24.911039 263.169961 
C 26.598781 264.857703 28.888172 265.806 31.275 265.806 
L 31.275 265.806 
z
" clip-path="url(#p63a5c10669)" style="fill: none; stroke: #000000; stroke-width: 2; stroke-linejoin: miter"/>
   </g>
   <g id="line2d_1">
    <path d="M 139.275 202.806 
L 152.475 202.806 
" clip-path="url(#p63a5c10669)" style="fill: none; stroke: #000000; stroke-width: 2; stroke-linecap: round"/>
   </g>
   <g id="line2d_2">
    <path d="M 152.475 189.606 
L 152.475 216.006 
" clip-path="url(#p63a5c10669)" style="fill: none; stroke: #000000; stroke-width: 2; stroke-linecap: round"/>
   </g>
   <g id="line2d_3">
    <path d="M 152.475 196.206 
L 166.335 184.326 
L 166.335 177.726 
" clip-path="url(#p63a5c10669)" style="fill: none; stroke: #000000; stroke-width: 2; stroke-linecap: round"/>
   </g>
   <g id="line2d_4">
    <path d="M 152.475 209.406 
L 166.335 221.286 
L 166.335 227.886 
" clip-path="url(#p63a5c10669)" style="fill: none; stroke: #000000; stroke-width: 2; stroke-linecap: round"/>
   </g>
   <g id="line2d_5">
    <path d="M 152.475 209.406 
L 159.501691 215.428878 
" clip-path="url(#p63a5c10669)" style="fill: none; stroke: #000000; stroke-width: 2; stroke-linecap: round"/>
   </g>
   <g id="patch_3">
    <path d="M 161.84454 212.695554 
L 166.335 221.286 
L 157.158842 218.162201 
z
" clip-path="url(#p63a5c10669)"/>
   </g>
   <g id="line2d_6">
    <path d="M 139.275 202.806 
L 103.275 202.806 
L 100.275 211.806 
L 94.275 193.806 
L 88.275 211.806 
L 82.275 193.806 
L 76.275 211.806 
L 70.275 193.806 
L 67.275 202.806 
L 31.275 202.806 
" clip-path="url(#p63a5c10669)" style="fill: none; stroke: #ff0000; stroke-width: 2; stroke-linecap: round"/>
   </g>
   <g id="line2d_7">
    <path d="M 31.275 202.806 
L 31.275 247.806 
L 31.275 247.806 
M 31.275 265.806 
L 31.275 265.806 
L 31.275 310.806 
" clip-path="url(#p63a5c10669)" style="fill: none; stroke: #000000; stroke-width: 2; stroke-linecap: round"/>
   </g>
   <g id="line2d_8">
    <path d="M 29.475 252.306 
L 33.075 252.306 
" clip-path="url(#p63a5c10669)" style="fill: none; stroke: #000000; stroke-width: 2; stroke-linecap: round"/>
   </g>
   <g id="line2d_9">
    <path d="M 31.275 259.506 
L 31.275 263.106 
" clip-path="url(#p63a5c10669)" style="fill: none; stroke: #000000; stroke-width: 2; stroke-linecap: round"/>
   </g>
   <g id="line2d_10">
    <path d="M 29.475 261.306 
L 33.075 261.306 
" clip-path="url(#p63a5c10669)" style="fill: none; stroke: #000000; stroke-width: 2; stroke-linecap: round"/>
   </g>
   <g id="line2d_11">
    <path d="M 31.275 310.806 
L 98.805 310.806 
L 166.335 310.806 
" clip-path="url(#p63a5c10669)" style="fill: none; stroke: #000000; stroke-width: 2; stroke-linecap: round"/>
   </g>
   <g id="line2d_12">
    <path d="M 166.335 310.806 
L 166.335 325.206 
L 157.335 325.206 
L 175.335 325.206 
M 160.035 329.526 
L 172.635 329.526 
M 164.535 333.846 
L 168.135 333.846 
" clip-path="url(#p63a5c10669)" style="fill: none; stroke: #000000; stroke-width: 2; stroke-linecap: round"/>
   </g>
   <g id="line2d_13">
    <path d="M 166.335 310.806 
L 166.335 269.346 
L 166.335 227.886 
" clip-path="url(#p63a5c10669)" style="fill: none; stroke: #000000; stroke-width: 2; stroke-linecap: round"/>
   </g>
   <g id="line2d_14">
    <path d="M 166.335 177.726 
L 166.335 164.226 
L 166.335 150.726 
" clip-path="url(#p63a5c10669)" style="fill: none; stroke: #000000; stroke-width: 2; stroke-linecap: round"/>
   </g>
   <g id="line2d_15">
    <path d="M 166.335 150.726 
L 166.335 99.966 
M 157.335 99.966 
L 175.335 99.966 
M 157.335 93.486 
L 175.335 93.486 
M 166.335 93.486 
L 166.335 42.726 
" clip-path="url(#p63a5c10669)" style="fill: none; stroke: #000000; stroke-width: 2; stroke-linecap: round"/>
   </g>
   <g id="line2d_16">
    <path d="M 166.335 150.726 
L 143.835 150.726 
L 121.335 150.726 
" clip-path="url(#p63a5c10669)" style="fill: none; stroke: #000000; stroke-width: 2; stroke-linecap: round"/>
   </g>
   <g id="line2d_17">
    <path d="M 121.335 150.726 
L 121.335 114.726 
L 118.370813 114.59193 
L 115.379893 114.18424 
L 112.613083 113.511999 
L 110.302432 112.606462 
L 109.380692 112.081433 
L 108.641729 111.518453 
L 108.101119 110.926233 
L 107.770256 110.314098 
L 107.656116 109.691793 
L 107.761102 109.06928 
L 108.083004 108.456522 
L 108.615035 107.863277 
L 109.345982 107.298894 
L 110.260436 106.772112 
L 112.559309 105.862175 
L 115.31885 105.184658 
L 118.30762 104.77126 
L 121.274957 104.631528 
L 123.971994 104.752058 
L 126.172535 105.097618 
L 127.692024 105.614102 
L 128.153989 105.915463 
L 128.403023 106.233072 
L 128.433878 106.557077 
L 128.245903 106.877491 
L 127.84306 107.184403 
L 126.431085 107.719708 
L 124.316374 108.092971 
L 121.676284 108.247764 
L 118.732236 108.145981 
L 115.731142 107.771037 
L 112.9247 107.129252 
L 110.548281 106.249329 
L 109.585506 105.734598 
L 108.801192 105.179943 
L 108.211869 104.593898 
L 107.829959 103.985658 
L 107.663513 103.364887 
L 107.716038 102.741513 
L 107.986428 102.125518 
L 108.468983 101.526729 
L 109.153532 100.95461 
L 110.025645 100.418065 
L 112.255471 99.483379 
L 114.971447 98.77594 
L 117.945789 98.329954 
L 120.929044 98.157703 
L 123.67101 98.24851 
L 125.941723 98.569635 
L 127.550742 99.069023 
L 128.062431 99.365064 
L 128.36312 99.679668 
L 128.446471 100.003048 
L 128.310725 100.325232 
L 127.958746 100.636269 
L 127.397952 100.926449 
L 125.701352 101.407772 
L 123.363218 101.703711 
L 120.579645 101.764322 
L 117.584087 101.559398 
L 114.627776 101.081002 
L 111.958655 100.344134 
L 109.800578 99.385469 
L 108.971862 98.839629 
L 108.33454 98.260287 
L 107.902045 97.656498 
L 107.683495 97.037831 
L 107.683495 96.414169 
L 107.902045 95.795502 
L 108.33454 95.191713 
L 108.971862 94.612371 
L 109.800578 94.066531 
L 110.80322 93.56254 
L 113.242527 92.708935 
L 116.085202 92.098021 
L 119.092835 91.755913 
L 122.013178 91.686179 
L 124.601309 91.869543 
L 126.640163 92.265504 
L 127.958746 92.815731 
L 128.310725 93.126768 
L 128.446471 93.448952 
L 128.36312 93.772332 
L 128.062431 94.086936 
L 127.550742 94.382977 
L 125.941723 94.882365 
L 123.67101 95.20349 
L 120.929044 95.294297 
L 117.945789 95.122046 
L 114.971447 94.67606 
L 112.255471 93.968621 
L 110.025645 93.033935 
L 109.153532 92.49739 
L 108.468983 91.925271 
L 107.986428 91.326482 
L 107.716038 90.710487 
L 107.663513 90.087113 
L 107.829959 89.466342 
L 108.211869 88.858102 
L 108.801192 88.272057 
L 109.585506 87.717402 
L 110.548281 87.202671 
L 112.9247 86.322748 
L 115.731142 85.680963 
L 118.732236 85.306019 
L 121.676284 85.204236 
L 124.316374 85.359029 
L 126.431085 85.732292 
L 127.84306 86.267597 
L 128.245903 86.574509 
L 128.433878 86.894923 
L 128.403023 87.218928 
L 128.153989 87.536537 
L 127.692024 87.837898 
L 126.172535 88.354382 
L 123.971994 88.699942 
L 121.274957 88.820472 
L 118.30762 88.68074 
L 115.31885 88.267342 
L 112.559309 87.589825 
L 110.260436 86.679888 
L 109.345982 86.153106 
L 108.615035 85.588723 
L 108.083004 84.995478 
L 107.761102 84.38272 
L 107.656116 83.760207 
L 107.770256 83.137902 
L 108.101119 82.525767 
L 108.641729 81.933547 
L 109.380692 81.370567 
L 110.302432 80.845538 
L 112.613083 79.940001 
L 115.379893 79.26776 
L 118.370813 78.86007 
L 121.335 78.726 
L 121.335 42.726 
L 121.335 42.726 
" clip-path="url(#p63a5c10669)" style="fill: none; stroke: #000000; stroke-width: 2; stroke-linecap: round"/>
   </g>
   <g id="line2d_18">
    <path d="M 166.335 150.726 
L 188.835 150.726 
L 211.335 150.726 
" clip-path="url(#p63a5c10669)" style="fill: none; stroke: #000000; stroke-width: 2; stroke-linecap: round"/>
   </g>
   <g id="line2d_19">
    <path d="M 211.335 150.726 
L 211.335 114.726 
L 202.335 111.726 
L 220.335 105.726 
L 202.335 99.726 
L 220.335 93.726 
L 202.335 87.726 
L 220.335 81.726 
L 211.335 78.726 
L 211.335 42.726 
" clip-path="url(#p63a5c10669)" style="fill: none; stroke: #000000; stroke-width: 2; stroke-linecap: round"/>
   </g>
   <g id="line2d_20">
    <path d="M 211.335 150.726 
L 220.335 150.726 
L 229.335 150.726 
" clip-path="url(#p63a5c10669)" style="fill: none; stroke: #000000; stroke-width: 2; stroke-linecap: round"/>
   </g>
   <g id="line2d_21">
    <path d="M 211.335 42.726 
L 188.835 42.726 
L 166.335 42.726 
" clip-path="url(#p63a5c10669)" style="fill: none; stroke: #000000; stroke-width: 2; stroke-linecap: round"/>
   </g>
   <g id="line2d_22">
    <path d="M 121.335 42.726 
L 143.835 42.726 
L 166.335 42.726 
" clip-path="url(#p63a5c10669)" style="fill: none; stroke: #000000; stroke-width: 2; stroke-linecap: round"/>
   </g>
   <g id="line2d_23">
    <path d="M 166.335 42.726 
L 166.335 38.226 
L 166.335 33.726 
" clip-path="url(#p63a5c10669)" style="fill: none; stroke: #000000; stroke-width: 2; stroke-linecap: round"/>
   </g>
   <g id="line2d_24">
    <path d="M 166.335 33.726 
L 166.335 19.326 
" clip-path="url(#p63a5c10669)" style="fill: none; stroke: #000000; stroke-width: 2; stroke-linecap: round"/>
   </g>
   <g id="line2d_25">
    <path d="M 166.335 19.326 
L 159.585 19.326 
" clip-path="url(#p63a5c10669)" style="fill: none; stroke: #000000; stroke-width: 2; stroke-linecap: round"/>
   </g>
   <g id="line2d_26">
    <path d="M 166.335 19.326 
L 173.085 19.326 
" clip-path="url(#p63a5c10669)" style="fill: none; stroke: #000000; stroke-width: 2; stroke-linecap: round"/>
   </g>
   <g id="text_1">
    <!-- $R_{in}$ -->
    <g style="fill: #ff0000" transform="translate(76.7125 187.606391) scale(0.125 -0.125)">
     <defs>
      <path id="DejaVuSans-Oblique-52" d="M 1613 4147 
L 1294 2491 
L 2106 2491 
Q 2584 2491 2879 2755 
Q 3175 3019 3175 3444 
Q 3175 3784 2976 3965 
Q 2778 4147 2406 4147 
L 1613 4147 
z
M 2772 2241 
Q 2972 2194 3105 2009 
Q 3238 1825 3413 1275 
L 3809 0 
L 3144 0 
L 2778 1197 
Q 2638 1659 2453 1815 
Q 2269 1972 1888 1972 
L 1191 1972 
L 806 0 
L 172 0 
L 1081 4666 
L 2503 4666 
Q 3150 4666 3495 4373 
Q 3841 4081 3841 3531 
Q 3841 3044 3547 2687 
Q 3253 2331 2772 2241 
z
" transform="scale(0.015625)"/>
      <path id="DejaVuSans-Oblique-69" d="M 1172 4863 
L 1747 4863 
L 1606 4134 
L 1031 4134 
L 1172 4863 
z
M 909 3500 
L 1484 3500 
L 800 0 
L 225 0 
L 909 3500 
z
" transform="scale(0.015625)"/>
      <path id="DejaVuSans-Oblique-6e" d="M 3566 2113 
L 3156 0 
L 2578 0 
L 2988 2091 
Q 3016 2238 3031 2350 
Q 3047 2463 3047 2528 
Q 3047 2791 2881 2937 
Q 2716 3084 2419 3084 
Q 1956 3084 1622 2776 
Q 1288 2469 1184 1941 
L 800 0 
L 225 0 
L 903 3500 
L 1478 3500 
L 1363 2950 
Q 1603 3253 1940 3418 
Q 2278 3584 2650 3584 
Q 3113 3584 3367 3334 
Q 3622 3084 3622 2631 
Q 3622 2519 3608 2391 
Q 3594 2263 3566 2113 
z
" transform="scale(0.015625)"/>
     </defs>
     <use xlink:href="#DejaVuSans-Oblique-52" transform="translate(0 0.09375)"/>
     <use xlink:href="#DejaVuSans-Oblique-69" transform="translate(69.482422 -16.3125) scale(0.7)"/>
     <use xlink:href="#DejaVuSans-Oblique-6e" transform="translate(88.930664 -16.3125) scale(0.7)"/>
    </g>
   </g>
   <g id="text_2">
    <!-- $V_{in}$ -->
    <g transform="translate(3.6 260.255219) scale(0.125 -0.125)">
     <defs>
      <path id="DejaVuSans-Oblique-56" d="M 1319 0 
L 500 4666 
L 1119 4666 
L 1797 653 
L 4063 4666 
L 4750 4666 
L 2053 0 
L 1319 0 
z
" transform="scale(0.015625)"/>
     </defs>
     <use xlink:href="#DejaVuSans-Oblique-56" transform="translate(0 0.09375)"/>
     <use xlink:href="#DejaVuSans-Oblique-69" transform="translate(68.408203 -16.3125) scale(0.7)"/>
     <use xlink:href="#DejaVuSans-Oblique-6e" transform="translate(87.856445 -16.3125) scale(0.7)"/>
    </g>
   </g>
   <g id="text_3">
    <!-- $C_1$ -->
    <g transform="translate(138.985 100.175219) scale(0.125 -0.125)">
     <defs>
      <path id="DejaVuSans-Oblique-43" d="M 4447 4306 
L 4319 3641 
Q 4019 3944 3683 4091 
Q 3347 4238 2956 4238 
Q 2422 4238 2017 3981 
Q 1613 3725 1319 3200 
Q 1131 2863 1032 2486 
Q 934 2109 934 1728 
Q 934 1091 1264 756 
Q 1594 422 2222 422 
Q 2656 422 3056 561 
Q 3456 700 3834 978 
L 3688 231 
Q 3316 72 2936 -9 
Q 2556 -91 2175 -91 
Q 1278 -91 773 396 
Q 269 884 269 1753 
Q 269 2309 461 2846 
Q 653 3384 1013 3828 
Q 1394 4300 1883 4525 
Q 2372 4750 3022 4750 
Q 3422 4750 3780 4639 
Q 4138 4528 4447 4306 
z
" transform="scale(0.015625)"/>
      <path id="DejaVuSans-31" d="M 794 531 
L 1825 531 
L 1825 4091 
L 703 3866 
L 703 4441 
L 1819 4666 
L 2450 4666 
L 2450 531 
L 3481 531 
L 3481 0 
L 794 0 
L 794 531 
z
" transform="scale(0.015625)"/>
     </defs>
     <use xlink:href="#DejaVuSans-Oblique-43" transform="translate(0 0.78125)"/>
     <use xlink:href="#DejaVuSans-31" transform="translate(69.824219 -15.625) scale(0.7)"/>
    </g>
   </g>
   <g id="text_4">
    <!-- $L_1$ -->
    <g transform="translate(91.181116 100.175219) scale(0.125 -0.125)">
     <defs>
      <path id="DejaVuSans-Oblique-4c" d="M 1075 4666 
L 1709 4666 
L 909 525 
L 3181 525 
L 3078 0 
L 172 0 
L 1075 4666 
z
" transform="scale(0.015625)"/>
     </defs>
     <use xlink:href="#DejaVuSans-Oblique-4c" transform="translate(0 0.09375)"/>
     <use xlink:href="#DejaVuSans-31" transform="translate(55.712891 -16.3125) scale(0.7)"/>
    </g>
   </g>
   <g id="text_5">
    <!-- $R_L$ -->
    <g transform="translate(184.735 100.175219) scale(0.125 -0.125)">
     <use xlink:href="#DejaVuSans-Oblique-52" transform="translate(0 0.09375)"/>
     <use xlink:href="#DejaVuSans-Oblique-4c" transform="translate(69.482422 -16.3125) scale(0.7)"/>
    </g>
   </g>
   <g id="text_6">
    <!-- $V_{dd}$ -->
    <g transform="translate(156.2725 13.126391) scale(0.125 -0.125)">
     <defs>
      <path id="DejaVuSans-Oblique-64" d="M 2675 525 
Q 2444 222 2128 65 
Q 1813 -91 1428 -91 
Q 903 -91 598 267 
Q 294 625 294 1247 
Q 294 1766 478 2236 
Q 663 2706 1013 3078 
Q 1244 3325 1534 3454 
Q 1825 3584 2144 3584 
Q 2481 3584 2739 3421 
Q 2997 3259 3138 2956 
L 3513 4863 
L 4091 4863 
L 3144 0 
L 2566 0 
L 2675 525 
z
M 891 1350 
Q 891 897 1095 644 
Q 1300 391 1663 391 
Q 1931 391 2161 520 
Q 2391 650 2566 903 
Q 2750 1166 2856 1509 
Q 2963 1853 2963 2188 
Q 2963 2622 2758 2865 
Q 2553 3109 2194 3109 
Q 1922 3109 1687 2981 
Q 1453 2853 1288 2613 
Q 1106 2353 998 2009 
Q 891 1666 891 1350 
z
" transform="scale(0.015625)"/>
     </defs>
     <use xlink:href="#DejaVuSans-Oblique-56" transform="translate(0 0.09375)"/>
     <use xlink:href="#DejaVuSans-Oblique-64" transform="translate(68.408203 -16.3125) scale(0.7)"/>
     <use xlink:href="#DejaVuSans-Oblique-64" transform="translate(112.841797 -16.3125) scale(0.7)"/>
    </g>
   </g>
   <g id="patch_4">
    <path d="M 166.335 153.426 
C 167.051048 153.426 167.737866 153.141511 168.244188 152.635188 
C 168.750511 152.128866 169.035 151.442048 169.035 150.726 
C 169.035 150.009952 168.750511 149.323134 168.244188 148.816812 
C 167.737866 148.310489 167.051048 148.026 166.335 148.026 
C 165.618952 148.026 164.932134 148.310489 164.425812 148.816812 
C 163.919489 149.323134 163.635 150.009952 163.635 150.726 
C 163.635 151.442048 163.919489 152.128866 164.425812 152.635188 
C 164.932134 153.141511 165.618952 153.426 166.335 153.426 
z
" clip-path="url(#p63a5c10669)" style="stroke: #000000; stroke-width: 2; stroke-linejoin: miter"/>
   </g>
   <g id="patch_5">
    <path d="M 229.335 153.426 
C 230.051048 153.426 230.737866 153.141511 231.244188 152.635188 
C 231.750511 152.128866 232.035 151.442048 232.035 150.726 
C 232.035 150.009952 231.750511 149.323134 231.244188 148.816812 
C 230.737866 148.310489 230.051048 148.026 229.335 148.026 
C 228.618952 148.026 227.932134 148.310489 227.425812 148.816812 
C 226.919489 149.323134 226.635 150.009952 226.635 150.726 
C 226.635 151.442048 226.919489 152.128866 227.425812 152.635188 
C 227.932134 153.141511 228.618952 153.426 229.335 153.426 
z
" clip-path="url(#p63a5c10669)" style="fill: #ffffff; stroke: #000000; stroke-width: 2; stroke-linejoin: miter"/>
   </g>
   <g id="text_7">
    <!-- $v_{out}$ -->
    <g transform="translate(235.635 154.175219) scale(0.125 -0.125)">
     <defs>
      <path id="DejaVuSans-Oblique-76" d="M 459 3500 
L 1069 3500 
L 1581 525 
L 3256 3500 
L 3866 3500 
L 1875 0 
L 1100 0 
L 459 3500 
z
" transform="scale(0.015625)"/>
      <path id="DejaVuSans-Oblique-6f" d="M 1625 -91 
Q 1009 -91 651 289 
Q 294 669 294 1325 
Q 294 1706 417 2101 
Q 541 2497 738 2766 
Q 1047 3184 1428 3384 
Q 1809 3584 2291 3584 
Q 2888 3584 3255 3212 
Q 3622 2841 3622 2241 
Q 3622 1825 3500 1412 
Q 3378 1000 3181 728 
Q 2875 309 2494 109 
Q 2113 -91 1625 -91 
z
M 891 1344 
Q 891 869 1089 633 
Q 1288 397 1691 397 
Q 2269 397 2648 901 
Q 3028 1406 3028 2181 
Q 3028 2634 2825 2865 
Q 2622 3097 2228 3097 
Q 1903 3097 1650 2945 
Q 1397 2794 1197 2484 
Q 1050 2253 970 1956 
Q 891 1659 891 1344 
z
" transform="scale(0.015625)"/>
      <path id="DejaVuSans-Oblique-75" d="M 428 1388 
L 838 3500 
L 1416 3500 
L 1006 1409 
Q 975 1256 961 1147 
Q 947 1038 947 966 
Q 947 700 1109 554 
Q 1272 409 1569 409 
Q 2031 409 2368 721 
Q 2706 1034 2809 1563 
L 3194 3500 
L 3769 3500 
L 3091 0 
L 2516 0 
L 2631 550 
Q 2388 244 2052 76 
Q 1716 -91 1338 -91 
Q 878 -91 622 161 
Q 366 413 366 863 
Q 366 956 381 1097 
Q 397 1238 428 1388 
z
" transform="scale(0.015625)"/>
      <path id="DejaVuSans-Oblique-74" d="M 2706 3500 
L 2619 3053 
L 1472 3053 
L 1100 1153 
Q 1081 1047 1072 975 
Q 1063 903 1063 863 
Q 1063 663 1183 572 
Q 1303 481 1569 481 
L 2150 481 
L 2053 0 
L 1503 0 
Q 991 0 739 200 
Q 488 400 488 806 
Q 488 878 497 964 
Q 506 1050 525 1153 
L 897 3053 
L 409 3053 
L 500 3500 
L 978 3500 
L 1172 4494 
L 1747 4494 
L 1556 3500 
L 2706 3500 
z
" transform="scale(0.015625)"/>
     </defs>
     <use xlink:href="#DejaVuSans-Oblique-76" transform="translate(0 0.3125)"/>
     <use xlink:href="#DejaVuSans-Oblique-6f" transform="translate(59.179688 -16.09375) scale(0.7)"/>
     <use xlink:href="#DejaVuSans-Oblique-75" transform="translate(102.006836 -16.09375) scale(0.7)"/>
     <use xlink:href="#DejaVuSans-Oblique-74" transform="translate(146.37207 -16.09375) scale(0.7)"/>
    </g>
   </g>
   <g id="patch_6">
    <path d="M 166.335 45.426 
C 167.051048 45.426 167.737866 45.141511 168.244188 44.635188 
C 168.750511 44.128866 169.035 43.442048 169.035 42.726 
C 169.035 42.009952 168.750511 41.323134 168.244188 40.816812 
C 167.737866 40.310489 167.051048 40.026 166.335 40.026 
C 165.618952 40.026 164.932134 40.310489 164.425812 40.816812 
C 163.919489 41.323134 163.635 42.009952 163.635 42.726 
C 163.635 43.442048 163.919489 44.128866 164.425812 44.635188 
C 164.932134 45.141511 165.618952 45.426 166.335 45.426 
z
" clip-path="url(#p63a5c10669)" style="stroke: #000000; stroke-width: 2; stroke-linejoin: miter"/>
   </g>
  </g>
 </g>
 <defs>
  <clipPath id="p63a5c10669">
   <rect x="11.787" y="3.6" width="230.736" height="345.972"/>
  </clipPath>
 </defs>
</svg>