<?xml version="1.0" encoding="utf-8" standalone="no"?>
<!DOCTYPE svg PUBLIC "-//W3C//DTD SVG 1.1//EN"
  "http://www.w3.org/Graphics/SVG/1.1/DTD/svg11.dtd">
<svg xmlns:xlink="http://www.w3.org/1999/xlink" width="562.26pt" height="236.089656pt" viewBox="0 0 562.26 236.089656" xmlns="http://www.w3.org/2000/svg" version="1.1">
 <metadata>
  <rdf:RDF xmlns:dc="http://purl.org/dc/elements/1.1/" xmlns:cc="http://creativecommons.org/ns#" xmlns:rdf="http://www.w3.org/1999/02/22-rdf-syntax-ns#">
   <cc:Work>
    <dc:type rdf:resource="http://purl.org/dc/dcmitype/StillImage"/>
    <dc:date>2023-09-26T15:35:47.484583</dc:date>
    <dc:format>image/svg+xml</dc:format>
    <dc:creator>
     <cc:Agent>
      <dc:title>Matplotlib v3.6.3, https://matplotlib.org/</dc:title>
     </cc:Agent>
    </dc:creator>
   </cc:Work>
  </rdf:RDF>
 </metadata>
 <defs>
  <style type="text/css">*{stroke-linejoin: round; stroke-linecap: butt}</style>
 </defs>
 <g id="figure_1">
  <g id="patch_1">
   <path d="M 0 236.089656 
L 562.26 236.089656 
L 562.26 0 
L 0 0 
z
" style="fill: #ffffff"/>
  </g>
  <g id="axes_1">
   <g id="patch_2">
    <path d="M 332.73 156.097656 
C 334.638826 156.097656 336.471425 155.338569 337.821169 153.988825 
C 339.170913 152.639081 339.93 150.806483 339.93 148.897656 
C 339.93 146.98883 339.170913 145.156231 337.821169 143.806487 
C 336.471425 142.456743 334.638826 141.697656 332.73 141.697656 
" clip-path="url(#pc59ec6f8a3)" style="fill: none; stroke: #000000; stroke-width: 2; stroke-linejoin: miter"/>
   </g>
   <g id="patch_3">
    <path d="M 332.73 170.497656 
C 334.638826 170.497656 336.471425 169.738569 337.821169 168.388825 
C 339.170913 167.039081 339.93 165.206483 339.93 163.297656 
C 339.93 161.38883 339.170913 159.556231 337.821169 158.206487 
C 336.471425 156.856743 334.638826 156.097656 332.73 156.097656 
" clip-path="url(#pc59ec6f8a3)" style="fill: none; stroke: #000000; stroke-width: 2; stroke-linejoin: miter"/>
   </g>
   <g id="patch_4">
    <path d="M 332.73 184.897656 
C 334.638826 184.897656 336.471425 184.138569 337.821169 182.788825 
C 339.170913 181.439081 339.93 179.606483 339.93 177.697656 
C 339.93 175.78883 339.170913 173.956231 337.821169 172.606487 
C 336.471425 171.256743 334.638826 170.497656 332.73 170.497656 
" clip-path="url(#pc59ec6f8a3)" style="fill: none; stroke: #000000; stroke-width: 2; stroke-linejoin: miter"/>
   </g>
   <g id="patch_5">
    <path d="M 332.73 199.297656 
C 334.638826 199.297656 336.471425 198.538569 337.821169 197.188825 
C 339.170913 195.839081 339.93 194.006483 339.93 192.097656 
C 339.93 190.18883 339.170913 188.356231 337.821169 187.006487 
C 336.471425 185.656743 334.638826 184.897656 332.73 184.897656 
" clip-path="url(#pc59ec6f8a3)" style="fill: none; stroke: #000000; stroke-width: 2; stroke-linejoin: miter"/>
   </g>
   <g id="patch_6">
    <path d="M 368.73 141.697656 
C 366.821174 141.697656 364.988575 142.456743 363.638831 143.806487 
C 362.289087 145.156231 361.53 146.98883 361.53 148.897656 
C 361.53 150.806483 362.289087 152.639081 363.638831 153.988825 
C 364.988575 155.338569 366.821174 156.097656 368.73 156.097656 
" clip-path="url(#pc59ec6f8a3)" style="fill: none; stroke: #000000; stroke-width: 2; stroke-linejoin: miter"/>
   </g>
   <g id="patch_7">
    <path d="M 368.73 156.097656 
C 366.821174 156.097656 364.988575 156.856743 363.638831 158.206487 
C 362.289087 159.556231 361.53 161.38883 361.53 163.297656 
C 361.53 165.206483 362.289087 167.039081 363.638831 168.388825 
C 364.988575 169.738569 366.821174 170.497656 368.73 170.497656 
" clip-path="url(#pc59ec6f8a3)" style="fill: none; stroke: #000000; stroke-width: 2; stroke-linejoin: miter"/>
   </g>
   <g id="patch_8">
    <path d="M 368.73 170.497656 
C 366.821174 170.497656 364.988575 171.256743 363.638831 172.606487 
C 362.289087 173.956231 361.53 175.78883 361.53 177.697656 
C 361.53 179.606483 362.289087 181.439081 363.638831 182.788825 
C 364.988575 184.138569 366.821174 184.897656 368.73 184.897656 
" clip-path="url(#pc59ec6f8a3)" style="fill: none; stroke: #000000; stroke-width: 2; stroke-linejoin: miter"/>
   </g>
   <g id="patch_9">
    <path d="M 368.73 184.897656 
C 366.821174 184.897656 364.988575 185.656743 363.638831 187.006487 
C 362.289087 188.356231 361.53 190.18883 361.53 192.097656 
C 361.53 194.006483 362.289087 195.839081 363.638831 197.188825 
C 364.988575 198.538569 366.821174 199.297656 368.73 199.297656 
" clip-path="url(#pc59ec6f8a3)" style="fill: none; stroke: #000000; stroke-width: 2; stroke-linejoin: miter"/>
   </g>
   <g id="patch_10">
    <path d="M 431.73 141.697656 
C 431.73 140.279413 431.590319 138.874961 431.318949 137.564675 
C 431.04758 136.254389 430.649801 135.063752 430.148377 134.060903 
C 429.646952 133.058054 429.051633 132.262495 428.396491 131.719757 
C 427.741348 131.177019 427.039122 130.897656 426.33 130.897656 
C 425.620878 130.897656 424.918652 131.177019 424.263509 131.719757 
C 423.608367 132.262495 423.013048 133.058054 422.511623 134.060903 
C 422.010199 135.063752 421.61242 136.254389 421.341051 137.564675 
C 421.069681 138.874961 420.93 140.279413 420.93 141.697656 
C 420.93 143.115899 421.069681 144.520352 421.341051 145.830637 
C 421.61242 147.140923 422.010199 148.33156 422.511623 149.334409 
C 423.013048 150.337259 423.608367 151.132817 424.263509 151.675555 
C 424.918652 152.218293 425.620878 152.497656 426.33 152.497656 
C 427.039122 152.497656 427.741348 152.218293 428.396491 151.675555 
C 429.051633 151.132817 429.646952 150.337259 430.148377 149.334409 
C 430.649801 148.33156 431.04758 147.140923 431.318949 145.830637 
C 431.590319 144.520352 431.73 143.115899 431.73 141.697656 
" clip-path="url(#pc59ec6f8a3)" style="fill: none; stroke: #000000; stroke-width: 2; stroke-linejoin: miter"/>
   </g>
   <g id="patch_11">
    <path d="M 491.13 152.497656 
C 492.56162 152.497656 493.936069 151.359026 494.948377 149.334409 
C 495.960685 147.309793 496.53 144.560896 496.53 141.697656 
C 496.53 138.834417 495.960685 136.085519 494.948377 134.060903 
C 493.936069 132.036287 492.56162 130.897656 491.13 130.897656 
" clip-path="url(#pc59ec6f8a3)" style="fill: none; stroke: #000000; stroke-width: 2; stroke-linejoin: miter"/>
   </g>
   <g id="line2d_1">
    <path d="M 116.73 33.697656 
L 116.73 19.297656 
" clip-path="url(#pc59ec6f8a3)" style="fill: none; stroke: #000000; stroke-width: 2; stroke-linecap: round"/>
   </g>
   <g id="line2d_2">
    <path d="M 116.73 19.297656 
L 109.98 19.297656 
" clip-path="url(#pc59ec6f8a3)" style="fill: none; stroke: #000000; stroke-width: 2; stroke-linecap: round"/>
   </g>
   <g id="line2d_3">
    <path d="M 116.73 19.297656 
L 123.48 19.297656 
" clip-path="url(#pc59ec6f8a3)" style="fill: none; stroke: #000000; stroke-width: 2; stroke-linecap: round"/>
   </g>
   <g id="line2d_4">
    <path d="M 116.73 33.697656 
L 116.73 69.697656 
L 119.694187 69.831726 
L 122.685107 70.239416 
L 125.451917 70.911657 
L 127.762568 71.817194 
L 128.684308 72.342224 
L 129.423271 72.905203 
L 129.963881 73.497424 
L 130.294744 74.109559 
L 130.408884 74.731863 
L 130.303898 75.354376 
L 129.981996 75.967135 
L 129.449965 76.560379 
L 128.719018 77.124762 
L 127.804564 77.651544 
L 125.505691 78.561481 
L 122.74615 79.238998 
L 119.75738 79.652397 
L 116.790043 79.792129 
L 114.093006 79.671599 
L 111.892465 79.326039 
L 110.372976 78.809554 
L 109.911011 78.508193 
L 109.661977 78.190584 
L 109.631122 77.86658 
L 109.819097 77.546166 
L 110.22194 77.239253 
L 111.633915 76.703949 
L 113.748626 76.330686 
L 116.388716 76.175893 
L 119.332764 76.277675 
L 122.333858 76.65262 
L 125.1403 77.294404 
L 127.516719 78.174327 
L 128.479494 78.689058 
L 129.263808 79.243713 
L 129.853131 79.829759 
L 130.235041 80.437999 
L 130.401487 81.058769 
L 130.348962 81.682144 
L 130.078572 82.298139 
L 129.596017 82.896928 
L 128.911468 83.469046 
L 128.039355 84.005591 
L 125.809529 84.940277 
L 123.093553 85.647717 
L 120.119211 86.093702 
L 117.135956 86.265953 
L 114.39399 86.175146 
L 112.123277 85.854021 
L 110.514258 85.354633 
L 110.002569 85.058593 
L 109.70188 84.743988 
L 109.618529 84.420608 
L 109.754275 84.098425 
L 110.106254 83.787387 
L 110.667048 83.497208 
L 112.363648 83.015884 
L 114.701782 82.719945 
L 117.485355 82.659334 
L 120.480913 82.864258 
L 123.437224 83.342654 
L 126.106345 84.079522 
L 128.264422 85.038187 
L 129.093138 85.584027 
L 129.73046 86.163369 
L 130.162955 86.767159 
L 130.381505 87.385826 
L 130.381505 88.009487 
L 130.162955 88.628154 
L 129.73046 89.231943 
L 129.093138 89.811285 
L 128.264422 90.357126 
L 127.26178 90.861116 
L 124.822473 91.714722 
L 121.979798 92.325635 
L 118.972165 92.667743 
L 116.051822 92.737478 
L 113.463691 92.554113 
L 111.424837 92.158152 
L 110.106254 91.607926 
L 109.754275 91.296888 
L 109.618529 90.974705 
L 109.70188 90.651324 
L 110.002569 90.33672 
L 110.514258 90.04068 
L 112.123277 89.541292 
L 114.39399 89.220166 
L 117.135956 89.129359 
L 120.119211 89.30161 
L 123.093553 89.747596 
L 125.809529 90.455036 
L 128.039355 91.389721 
L 128.911468 91.926267 
L 129.596017 92.498385 
L 130.078572 93.097174 
L 130.348962 93.713169 
L 130.401487 94.336543 
L 130.235041 94.957314 
L 129.853131 95.565554 
L 129.263808 96.151599 
L 128.479494 96.706255 
L 127.516719 97.220986 
L 125.1403 98.100908 
L 122.333858 98.742693 
L 119.332764 99.117638 
L 116.388716 99.21942 
L 113.748626 99.064627 
L 111.633915 98.691364 
L 110.22194 98.15606 
L 109.819097 97.849147 
L 109.631122 97.528733 
L 109.661977 97.204728 
L 109.911011 96.88712 
L 110.372976 96.585759 
L 111.892465 96.069274 
L 114.093006 95.723714 
L 116.790043 95.603184 
L 119.75738 95.742916 
L 122.74615 96.156314 
L 125.505691 96.833831 
L 127.804564 97.743768 
L 128.719018 98.270551 
L 129.449965 98.834934 
L 129.981996 99.428178 
L 130.303898 100.040936 
L 130.408884 100.66345 
L 130.294744 101.285754 
L 129.963881 101.897889 
L 129.423271 102.490109 
L 128.684308 103.053089 
L 127.762568 103.578118 
L 125.451917 104.483655 
L 122.685107 105.155897 
L 119.694187 105.563587 
L 116.73 105.697656 
L 116.73 141.697656 
L 116.73 141.697656 
" clip-path="url(#pc59ec6f8a3)" style="fill: none; stroke: #000000; stroke-width: 2; stroke-linecap: round"/>
   </g>
   <g id="line2d_5">
    <path d="M 116.73 141.697656 
L 167.49 141.697656 
M 167.49 132.697656 
L 167.49 150.697656 
M 173.97 132.697656 
L 173.97 150.697656 
M 173.97 141.697656 
L 224.73 141.697656 
" clip-path="url(#pc59ec6f8a3)" style="fill: none; stroke: #000000; stroke-width: 2; stroke-linecap: round"/>
   </g>
   <g id="line2d_6">
    <path d="M 224.73 141.697656 
L 260.73 141.697656 
L 260.86407 138.73347 
L 261.27176 135.742549 
L 261.944001 132.975739 
L 262.849538 130.665088 
L 263.374567 129.743348 
L 263.937547 129.004385 
L 264.529767 128.463775 
L 265.141902 128.132913 
L 265.764207 128.018772 
L 266.38672 128.123759 
L 266.999478 128.44566 
L 267.592723 128.977691 
L 268.157106 129.708638 
L 268.683888 130.623093 
L 269.593825 132.921965 
L 270.271342 135.681506 
L 270.68474 138.670276 
L 270.824472 141.637613 
L 270.703942 144.33465 
L 270.358382 146.535191 
L 269.841898 148.05468 
L 269.540537 148.516645 
L 269.222928 148.76568 
L 268.898923 148.796535 
L 268.578509 148.608559 
L 268.271597 148.205716 
L 267.736292 146.793742 
L 267.363029 144.67903 
L 267.208236 142.038941 
L 267.310019 139.094892 
L 267.684963 136.093798 
L 268.326748 133.287356 
L 269.206671 130.910937 
L 269.721402 129.948163 
L 270.276057 129.163848 
L 270.862102 128.574525 
L 271.470342 128.192615 
L 272.091113 128.026169 
L 272.714487 128.078694 
L 273.330482 128.349084 
L 273.929271 128.831639 
L 274.50139 129.516188 
L 275.037935 130.388302 
L 275.972621 132.618127 
L 276.68006 135.334103 
L 277.126046 138.308445 
L 277.298297 141.2917 
L 277.20749 144.033666 
L 276.886365 146.304379 
L 276.386977 147.913398 
L 276.090936 148.425087 
L 275.776332 148.725776 
L 275.452952 148.809127 
L 275.130768 148.673382 
L 274.819731 148.321403 
L 274.529551 147.760608 
L 274.048228 146.064009 
L 273.752289 143.725874 
L 273.691678 140.942301 
L 273.896602 137.946743 
L 274.374998 134.990432 
L 275.111866 132.321311 
L 276.070531 130.163234 
L 276.616371 129.334518 
L 277.195713 128.697196 
L 277.799502 128.264701 
L 278.418169 128.046151 
L 279.041831 128.046151 
L 279.660498 128.264701 
L 280.264287 128.697196 
L 280.843629 129.334518 
L 281.389469 130.163234 
L 281.89346 131.165876 
L 282.747065 133.605184 
L 283.357979 136.447859 
L 283.700087 139.455491 
L 283.769821 142.375834 
L 283.586457 144.963965 
L 283.190496 147.002819 
L 282.640269 148.321403 
L 282.329232 148.673382 
L 282.007048 148.809127 
L 281.683668 148.725776 
L 281.369064 148.425087 
L 281.073023 147.913398 
L 280.573635 146.304379 
L 280.25251 144.033666 
L 280.161703 141.2917 
L 280.333954 138.308445 
L 280.77994 135.334103 
L 281.487379 132.618127 
L 282.422065 130.388302 
L 282.95861 129.516188 
L 283.530729 128.831639 
L 284.129518 128.349084 
L 284.745513 128.078694 
L 285.368887 128.026169 
L 285.989658 128.192615 
L 286.597898 128.574525 
L 287.183943 129.163848 
L 287.738598 129.948163 
L 288.253329 130.910937 
L 289.133252 133.287356 
L 289.775037 136.093798 
L 290.149981 139.094892 
L 290.251764 142.038941 
L 290.096971 144.67903 
L 289.723708 146.793742 
L 289.188403 148.205716 
L 288.881491 148.608559 
L 288.561077 148.796535 
L 288.237072 148.76568 
L 287.919463 148.516645 
L 287.618102 148.05468 
L 287.101618 146.535191 
L 286.756058 144.33465 
L 286.635528 141.637613 
L 286.77526 138.670276 
L 287.188658 135.681506 
L 287.866175 132.921965 
L 288.776112 130.623093 
L 289.302894 129.708638 
L 289.867277 128.977691 
L 290.460522 128.44566 
L 291.07328 128.123759 
L 291.695793 128.018772 
L 292.318098 128.132913 
L 292.930233 128.463775 
L 293.522453 129.004385 
L 294.085433 129.743348 
L 294.610462 130.665088 
L 295.515999 132.975739 
L 296.18824 135.742549 
L 296.59593 138.73347 
L 296.73 141.697656 
L 332.73 141.697656 
L 332.73 141.697656 
" clip-path="url(#pc59ec6f8a3)" style="fill: none; stroke: #000000; stroke-width: 2; stroke-linecap: round"/>
   </g>
   <g id="line2d_7">
    <path d="M 347.13 141.697656 
L 347.13 199.297656 
" clip-path="url(#pc59ec6f8a3)" style="fill: none; stroke: #000000; stroke-width: 2; stroke-linecap: round"/>
   </g>
   <g id="line2d_8">
    <path d="M 354.33 141.697656 
L 354.33 199.297656 
" clip-path="url(#pc59ec6f8a3)" style="fill: none; stroke: #000000; stroke-width: 2; stroke-linecap: round"/>
   </g>
   <g id="line2d_9">
    <path d="M 368.73 141.697656 
L 386.73 141.697656 
L 404.73 141.697656 
" clip-path="url(#pc59ec6f8a3)" style="fill: none; stroke: #000000; stroke-width: 2; stroke-linecap: round"/>
   </g>
   <g id="line2d_10">
    <path d="M 404.73 141.697656 
L 426.33 141.697656 
M 496.53 141.697656 
L 512.73 141.697656 
" clip-path="url(#pc59ec6f8a3)" style="fill: none; stroke: #000000; stroke-width: 2; stroke-linecap: round"/>
   </g>
   <g id="line2d_11">
    <path d="M 426.33 130.897656 
L 491.13 130.897656 
" clip-path="url(#pc59ec6f8a3)" style="fill: none; stroke: #000000; stroke-width: 2; stroke-linecap: round"/>
   </g>
   <g id="line2d_12">
    <path d="M 426.33 152.497656 
L 491.13 152.497656 
" clip-path="url(#pc59ec6f8a3)" style="fill: none; stroke: #000000; stroke-width: 2; stroke-linecap: round"/>
   </g>
   <g id="line2d_13">
    <path d="M 512.73 141.697656 
L 521.73 141.697656 
L 530.73 141.697656 
" clip-path="url(#pc59ec6f8a3)" style="fill: none; stroke: #000000; stroke-width: 2; stroke-linecap: round"/>
   </g>
   <g id="line2d_14">
    <path d="M 491.13 152.497656 
L 491.13 175.897656 
L 491.13 199.297656 
" clip-path="url(#pc59ec6f8a3)" style="fill: none; stroke: #000000; stroke-width: 2; stroke-linecap: round"/>
   </g>
   <g id="line2d_15">
    <path d="M 491.13 199.297656 
L 510.93 199.297656 
L 530.73 199.297656 
" clip-path="url(#pc59ec6f8a3)" style="fill: none; stroke: #000000; stroke-width: 2; stroke-linecap: round"/>
   </g>
   <g id="line2d_16">
    <path d="M 426.33 152.497656 
L 426.33 175.897656 
L 426.33 199.297656 
" clip-path="url(#pc59ec6f8a3)" style="fill: none; stroke: #000000; stroke-width: 2; stroke-linecap: round"/>
   </g>
   <g id="line2d_17">
    <path d="M 426.33 199.297656 
L 397.53 199.297656 
L 368.73 199.297656 
" clip-path="url(#pc59ec6f8a3)" style="fill: none; stroke: #000000; stroke-width: 2; stroke-linecap: round"/>
   </g>
   <g id="line2d_18">
    <path d="M 332.73 199.297656 
L 224.73 199.297656 
L 116.73 199.297656 
" clip-path="url(#pc59ec6f8a3)" style="fill: none; stroke: #000000; stroke-width: 2; stroke-linecap: round"/>
   </g>
   <g id="line2d_19">
    <path d="M 116.73 199.297656 
L 116.73 173.737656 
M 107.73 173.737656 
L 125.73 173.737656 
M 107.73 167.257656 
L 125.73 167.257656 
M 116.73 167.257656 
L 116.73 141.697656 
" clip-path="url(#pc59ec6f8a3)" style="fill: none; stroke: #000000; stroke-width: 2; stroke-linecap: round"/>
   </g>
   <g id="line2d_20">
    <path d="M 116.73 199.297656 
L 116.73 213.697656 
L 107.73 213.697656 
L 125.73 213.697656 
M 110.43 218.017656 
L 123.03 218.017656 
M 114.93 222.337656 
L 118.53 222.337656 
" clip-path="url(#pc59ec6f8a3)" style="fill: none; stroke: #000000; stroke-width: 2; stroke-linecap: round"/>
   </g>
   <g id="line2d_21">
    <path d="M 116.73 199.297656 
L 98.73 199.297656 
L 80.73 199.297656 
" clip-path="url(#pc59ec6f8a3)" style="fill: none; stroke: #000000; stroke-width: 2; stroke-linecap: round"/>
   </g>
   <g id="line2d_22">
    <path d="M 80.73 199.297656 
L 80.73 184.297656 
L 56.73 184.297656 
L 56.73 160.297656 
L 80.73 160.297656 
L 80.73 145.297656 
" clip-path="url(#pc59ec6f8a3)" style="fill: none; stroke: #000000; stroke-width: 2; stroke-linecap: round"/>
   </g>
   <g id="line2d_23">
    <path d="M 50.73 184.297656 
L 50.73 160.297656 
" clip-path="url(#pc59ec6f8a3)" style="fill: none; stroke: #000000; stroke-width: 2; stroke-linecap: round"/>
   </g>
   <g id="line2d_24">
    <path d="M 50.73 172.297656 
L 31.53 172.297656 
" clip-path="url(#pc59ec6f8a3)" style="fill: none; stroke: #000000; stroke-width: 2; stroke-linecap: round"/>
   </g>
   <g id="line2d_25">
    <path d="M 80.73 145.297656 
L 80.73 143.497656 
L 80.73 141.697656 
" clip-path="url(#pc59ec6f8a3)" style="fill: none; stroke: #000000; stroke-width: 2; stroke-linecap: round"/>
   </g>
   <g id="line2d_26">
    <path d="M 80.73 141.697656 
L 98.73 141.697656 
L 116.73 141.697656 
" clip-path="url(#pc59ec6f8a3)" style="fill: none; stroke: #000000; stroke-width: 2; stroke-linecap: round"/>
   </g>
   <g id="text_1">
    <!-- $V_{dd}$ -->
    <g transform="translate(106.6675 13.098047) scale(0.125 -0.125)">
     <defs>
      <path id="DejaVuSans-Oblique-56" d="M 1319 0 
L 500 4666 
L 1119 4666 
L 1797 653 
L 4063 4666 
L 4750 4666 
L 2053 0 
L 1319 0 
z
" transform="scale(0.015625)"/>
      <path id="DejaVuSans-Oblique-64" d="M 2675 525 
Q 2444 222 2128 65 
Q 1813 -91 1428 -91 
Q 903 -91 598 267 
Q 294 625 294 1247 
Q 294 1766 478 2236 
Q 663 2706 1013 3078 
Q 1244 3325 1534 3454 
Q 1825 3584 2144 3584 
Q 2481 3584 2739 3421 
Q 2997 3259 3138 2956 
L 3513 4863 
L 4091 4863 
L 3144 0 
L 2566 0 
L 2675 525 
z
M 891 1350 
Q 891 897 1095 644 
Q 1300 391 1663 391 
Q 1931 391 2161 520 
Q 2391 650 2566 903 
Q 2750 1166 2856 1509 
Q 2963 1853 2963 2188 
Q 2963 2622 2758 2865 
Q 2553 3109 2194 3109 
Q 1922 3109 1687 2981 
Q 1453 2853 1288 2613 
Q 1106 2353 998 2009 
Q 891 1666 891 1350 
z
" transform="scale(0.015625)"/>
     </defs>
     <use xlink:href="#DejaVuSans-Oblique-56" transform="translate(0 0.09375)"/>
     <use xlink:href="#DejaVuSans-Oblique-64" transform="translate(68.408203 -16.3125) scale(0.7)"/>
     <use xlink:href="#DejaVuSans-Oblique-64" transform="translate(112.841797 -16.3125) scale(0.7)"/>
    </g>
   </g>
   <g id="text_2">
    <!-- 270.00 uH -->
    <g transform="translate(40.985326 91.146875) scale(0.125 -0.125)">
     <defs>
      <path id="DejaVuSans-32" d="M 1228 531 
L 3431 531 
L 3431 0 
L 469 0 
L 469 531 
Q 828 903 1448 1529 
Q 2069 2156 2228 2338 
Q 2531 2678 2651 2914 
Q 2772 3150 2772 3378 
Q 2772 3750 2511 3984 
Q 2250 4219 1831 4219 
Q 1534 4219 1204 4116 
Q 875 4013 500 3803 
L 500 4441 
Q 881 4594 1212 4672 
Q 1544 4750 1819 4750 
Q 2544 4750 2975 4387 
Q 3406 4025 3406 3419 
Q 3406 3131 3298 2873 
Q 3191 2616 2906 2266 
Q 2828 2175 2409 1742 
Q 1991 1309 1228 531 
z
" transform="scale(0.015625)"/>
      <path id="DejaVuSans-37" d="M 525 4666 
L 3525 4666 
L 3525 4397 
L 1831 0 
L 1172 0 
L 2766 4134 
L 525 4134 
L 525 4666 
z
" transform="scale(0.015625)"/>
      <path id="DejaVuSans-30" d="M 2034 4250 
Q 1547 4250 1301 3770 
Q 1056 3291 1056 2328 
Q 1056 1369 1301 889 
Q 1547 409 2034 409 
Q 2525 409 2770 889 
Q 3016 1369 3016 2328 
Q 3016 3291 2770 3770 
Q 2525 4250 2034 4250 
z
M 2034 4750 
Q 2819 4750 3233 4129 
Q 3647 3509 3647 2328 
Q 3647 1150 3233 529 
Q 2819 -91 2034 -91 
Q 1250 -91 836 529 
Q 422 1150 422 2328 
Q 422 3509 836 4129 
Q 1250 4750 2034 4750 
z
" transform="scale(0.015625)"/>
      <path id="DejaVuSans-2e" d="M 684 794 
L 1344 794 
L 1344 0 
L 684 0 
L 684 794 
z
" transform="scale(0.015625)"/>
      <path id="DejaVuSans-20" transform="scale(0.015625)"/>
      <path id="DejaVuSans-75" d="M 544 1381 
L 544 3500 
L 1119 3500 
L 1119 1403 
Q 1119 906 1312 657 
Q 1506 409 1894 409 
Q 2359 409 2629 706 
Q 2900 1003 2900 1516 
L 2900 3500 
L 3475 3500 
L 3475 0 
L 2900 0 
L 2900 538 
Q 2691 219 2414 64 
Q 2138 -91 1772 -91 
Q 1169 -91 856 284 
Q 544 659 544 1381 
z
M 1991 3584 
L 1991 3584 
z
" transform="scale(0.015625)"/>
      <path id="DejaVuSans-48" d="M 628 4666 
L 1259 4666 
L 1259 2753 
L 3553 2753 
L 3553 4666 
L 4184 4666 
L 4184 0 
L 3553 0 
L 3553 2222 
L 1259 2222 
L 1259 0 
L 628 0 
L 628 4666 
z
" transform="scale(0.015625)"/>
     </defs>
     <use xlink:href="#DejaVuSans-32"/>
     <use xlink:href="#DejaVuSans-37" x="63.623047"/>
     <use xlink:href="#DejaVuSans-30" x="127.246094"/>
     <use xlink:href="#DejaVuSans-2e" x="190.869141"/>
     <use xlink:href="#DejaVuSans-30" x="222.65625"/>
     <use xlink:href="#DejaVuSans-30" x="286.279297"/>
     <use xlink:href="#DejaVuSans-20" x="349.902344"/>
     <use xlink:href="#DejaVuSans-75" x="381.689453"/>
     <use xlink:href="#DejaVuSans-48" x="445.068359"/>
    </g>
   </g>
   <g id="text_3">
    <!-- 222.56 nF -->
    <g transform="translate(139.318867 126.498047) scale(0.125 -0.125)">
     <defs>
      <path id="DejaVuSans-35" d="M 691 4666 
L 3169 4666 
L 3169 4134 
L 1269 4134 
L 1269 2991 
Q 1406 3038 1543 3061 
Q 1681 3084 1819 3084 
Q 2600 3084 3056 2656 
Q 3513 2228 3513 1497 
Q 3513 744 3044 326 
Q 2575 -91 1722 -91 
Q 1428 -91 1123 -41 
Q 819 9 494 109 
L 494 744 
Q 775 591 1075 516 
Q 1375 441 1709 441 
Q 2250 441 2565 725 
Q 2881 1009 2881 1497 
Q 2881 1984 2565 2268 
Q 2250 2553 1709 2553 
Q 1456 2553 1204 2497 
Q 953 2441 691 2322 
L 691 4666 
z
" transform="scale(0.015625)"/>
      <path id="DejaVuSans-36" d="M 2113 2584 
Q 1688 2584 1439 2293 
Q 1191 2003 1191 1497 
Q 1191 994 1439 701 
Q 1688 409 2113 409 
Q 2538 409 2786 701 
Q 3034 994 3034 1497 
Q 3034 2003 2786 2293 
Q 2538 2584 2113 2584 
z
M 3366 4563 
L 3366 3988 
Q 3128 4100 2886 4159 
Q 2644 4219 2406 4219 
Q 1781 4219 1451 3797 
Q 1122 3375 1075 2522 
Q 1259 2794 1537 2939 
Q 1816 3084 2150 3084 
Q 2853 3084 3261 2657 
Q 3669 2231 3669 1497 
Q 3669 778 3244 343 
Q 2819 -91 2113 -91 
Q 1303 -91 875 529 
Q 447 1150 447 2328 
Q 447 3434 972 4092 
Q 1497 4750 2381 4750 
Q 2619 4750 2861 4703 
Q 3103 4656 3366 4563 
z
" transform="scale(0.015625)"/>
      <path id="DejaVuSans-6e" d="M 3513 2113 
L 3513 0 
L 2938 0 
L 2938 2094 
Q 2938 2591 2744 2837 
Q 2550 3084 2163 3084 
Q 1697 3084 1428 2787 
Q 1159 2491 1159 1978 
L 1159 0 
L 581 0 
L 581 3500 
L 1159 3500 
L 1159 2956 
Q 1366 3272 1645 3428 
Q 1925 3584 2291 3584 
Q 2894 3584 3203 3211 
Q 3513 2838 3513 2113 
z
" transform="scale(0.015625)"/>
      <path id="DejaVuSans-46" d="M 628 4666 
L 3309 4666 
L 3309 4134 
L 1259 4134 
L 1259 2759 
L 3109 2759 
L 3109 2228 
L 1259 2228 
L 1259 0 
L 628 0 
L 628 4666 
z
" transform="scale(0.015625)"/>
     </defs>
     <use xlink:href="#DejaVuSans-32"/>
     <use xlink:href="#DejaVuSans-32" x="63.623047"/>
     <use xlink:href="#DejaVuSans-32" x="127.246094"/>
     <use xlink:href="#DejaVuSans-2e" x="190.869141"/>
     <use xlink:href="#DejaVuSans-35" x="222.65625"/>
     <use xlink:href="#DejaVuSans-36" x="286.279297"/>
     <use xlink:href="#DejaVuSans-20" x="349.902344"/>
     <use xlink:href="#DejaVuSans-6e" x="381.689453"/>
     <use xlink:href="#DejaVuSans-46" x="445.068359"/>
    </g>
   </g>
   <g id="text_4">
    <!-- 8.03 uH -->
    <g transform="translate(254.166523 121.819162) scale(0.125 -0.125)">
     <defs>
      <path id="DejaVuSans-38" d="M 2034 2216 
Q 1584 2216 1326 1975 
Q 1069 1734 1069 1313 
Q 1069 891 1326 650 
Q 1584 409 2034 409 
Q 2484 409 2743 651 
Q 3003 894 3003 1313 
Q 3003 1734 2745 1975 
Q 2488 2216 2034 2216 
z
M 1403 2484 
Q 997 2584 770 2862 
Q 544 3141 544 3541 
Q 544 4100 942 4425 
Q 1341 4750 2034 4750 
Q 2731 4750 3128 4425 
Q 3525 4100 3525 3541 
Q 3525 3141 3298 2862 
Q 3072 2584 2669 2484 
Q 3125 2378 3379 2068 
Q 3634 1759 3634 1313 
Q 3634 634 3220 271 
Q 2806 -91 2034 -91 
Q 1263 -91 848 271 
Q 434 634 434 1313 
Q 434 1759 690 2068 
Q 947 2378 1403 2484 
z
M 1172 3481 
Q 1172 3119 1398 2916 
Q 1625 2713 2034 2713 
Q 2441 2713 2670 2916 
Q 2900 3119 2900 3481 
Q 2900 3844 2670 4047 
Q 2441 4250 2034 4250 
Q 1625 4250 1398 4047 
Q 1172 3844 1172 3481 
z
" transform="scale(0.015625)"/>
      <path id="DejaVuSans-33" d="M 2597 2516 
Q 3050 2419 3304 2112 
Q 3559 1806 3559 1356 
Q 3559 666 3084 287 
Q 2609 -91 1734 -91 
Q 1441 -91 1130 -33 
Q 819 25 488 141 
L 488 750 
Q 750 597 1062 519 
Q 1375 441 1716 441 
Q 2309 441 2620 675 
Q 2931 909 2931 1356 
Q 2931 1769 2642 2001 
Q 2353 2234 1838 2234 
L 1294 2234 
L 1294 2753 
L 1863 2753 
Q 2328 2753 2575 2939 
Q 2822 3125 2822 3475 
Q 2822 3834 2567 4026 
Q 2313 4219 1838 4219 
Q 1578 4219 1281 4162 
Q 984 4106 628 3988 
L 628 4550 
Q 988 4650 1302 4700 
Q 1616 4750 1894 4750 
Q 2613 4750 3031 4423 
Q 3450 4097 3450 3541 
Q 3450 3153 3228 2886 
Q 3006 2619 2597 2516 
z
" transform="scale(0.015625)"/>
     </defs>
     <use xlink:href="#DejaVuSans-38"/>
     <use xlink:href="#DejaVuSans-2e" x="63.623047"/>
     <use xlink:href="#DejaVuSans-30" x="95.410156"/>
     <use xlink:href="#DejaVuSans-33" x="159.033203"/>
     <use xlink:href="#DejaVuSans-20" x="222.65625"/>
     <use xlink:href="#DejaVuSans-75" x="254.443359"/>
     <use xlink:href="#DejaVuSans-48" x="317.822266"/>
    </g>
   </g>
   <g id="text_5">
    <!-- 6.00 -->
    <g transform="translate(336.813984 135.498047) scale(0.125 -0.125)">
     <use xlink:href="#DejaVuSans-36"/>
     <use xlink:href="#DejaVuSans-2e" x="63.623047"/>
     <use xlink:href="#DejaVuSans-30" x="95.410156"/>
     <use xlink:href="#DejaVuSans-30" x="159.033203"/>
    </g>
   </g>
   <g id="text_6">
    <!-- 50 Ohm -->
    <g transform="translate(433.821797 124.698047) scale(0.125 -0.125)">
     <defs>
      <path id="DejaVuSans-4f" d="M 2522 4238 
Q 1834 4238 1429 3725 
Q 1025 3213 1025 2328 
Q 1025 1447 1429 934 
Q 1834 422 2522 422 
Q 3209 422 3611 934 
Q 4013 1447 4013 2328 
Q 4013 3213 3611 3725 
Q 3209 4238 2522 4238 
z
M 2522 4750 
Q 3503 4750 4090 4092 
Q 4678 3434 4678 2328 
Q 4678 1225 4090 567 
Q 3503 -91 2522 -91 
Q 1538 -91 948 565 
Q 359 1222 359 2328 
Q 359 3434 948 4092 
Q 1538 4750 2522 4750 
z
" transform="scale(0.015625)"/>
      <path id="DejaVuSans-68" d="M 3513 2113 
L 3513 0 
L 2938 0 
L 2938 2094 
Q 2938 2591 2744 2837 
Q 2550 3084 2163 3084 
Q 1697 3084 1428 2787 
Q 1159 2491 1159 1978 
L 1159 0 
L 581 0 
L 581 4863 
L 1159 4863 
L 1159 2956 
Q 1366 3272 1645 3428 
Q 1925 3584 2291 3584 
Q 2894 3584 3203 3211 
Q 3513 2838 3513 2113 
z
" transform="scale(0.015625)"/>
      <path id="DejaVuSans-6d" d="M 3328 2828 
Q 3544 3216 3844 3400 
Q 4144 3584 4550 3584 
Q 5097 3584 5394 3201 
Q 5691 2819 5691 2113 
L 5691 0 
L 5113 0 
L 5113 2094 
Q 5113 2597 4934 2840 
Q 4756 3084 4391 3084 
Q 3944 3084 3684 2787 
Q 3425 2491 3425 1978 
L 3425 0 
L 2847 0 
L 2847 2094 
Q 2847 2600 2669 2842 
Q 2491 3084 2119 3084 
Q 1678 3084 1418 2786 
Q 1159 2488 1159 1978 
L 1159 0 
L 581 0 
L 581 3500 
L 1159 3500 
L 1159 2956 
Q 1356 3278 1631 3431 
Q 1906 3584 2284 3584 
Q 2666 3584 2933 3390 
Q 3200 3197 3328 2828 
z
" transform="scale(0.015625)"/>
     </defs>
     <use xlink:href="#DejaVuSans-35"/>
     <use xlink:href="#DejaVuSans-30" x="63.623047"/>
     <use xlink:href="#DejaVuSans-20" x="127.246094"/>
     <use xlink:href="#DejaVuSans-4f" x="159.033203"/>
     <use xlink:href="#DejaVuSans-68" x="237.744141"/>
     <use xlink:href="#DejaVuSans-6d" x="301.123047"/>
    </g>
   </g>
   <g id="text_7">
    <!-- + -->
    <g transform="translate(525.492695 159.546875) scale(0.125 -0.125)">
     <defs>
      <path id="DejaVuSans-2b" d="M 2944 4013 
L 2944 2272 
L 4684 2272 
L 4684 1741 
L 2944 1741 
L 2944 0 
L 2419 0 
L 2419 1741 
L 678 1741 
L 678 2272 
L 2419 2272 
L 2419 4013 
L 2944 4013 
z
" transform="scale(0.015625)"/>
     </defs>
     <use xlink:href="#DejaVuSans-2b"/>
    </g>
   </g>
   <g id="text_8">
    <!-- $v_{out}$ -->
    <g transform="translate(519.6675 173.946875) scale(0.125 -0.125)">
     <defs>
      <path id="DejaVuSans-Oblique-76" d="M 459 3500 
L 1069 3500 
L 1581 525 
L 3256 3500 
L 3866 3500 
L 1875 0 
L 1100 0 
L 459 3500 
z
" transform="scale(0.015625)"/>
      <path id="DejaVuSans-Oblique-6f" d="M 1625 -91 
Q 1009 -91 651 289 
Q 294 669 294 1325 
Q 294 1706 417 2101 
Q 541 2497 738 2766 
Q 1047 3184 1428 3384 
Q 1809 3584 2291 3584 
Q 2888 3584 3255 3212 
Q 3622 2841 3622 2241 
Q 3622 1825 3500 1412 
Q 3378 1000 3181 728 
Q 2875 309 2494 109 
Q 2113 -91 1625 -91 
z
M 891 1344 
Q 891 869 1089 633 
Q 1288 397 1691 397 
Q 2269 397 2648 901 
Q 3028 1406 3028 2181 
Q 3028 2634 2825 2865 
Q 2622 3097 2228 3097 
Q 1903 3097 1650 2945 
Q 1397 2794 1197 2484 
Q 1050 2253 970 1956 
Q 891 1659 891 1344 
z
" transform="scale(0.015625)"/>
      <path id="DejaVuSans-Oblique-75" d="M 428 1388 
L 838 3500 
L 1416 3500 
L 1006 1409 
Q 975 1256 961 1147 
Q 947 1038 947 966 
Q 947 700 1109 554 
Q 1272 409 1569 409 
Q 2031 409 2368 721 
Q 2706 1034 2809 1563 
L 3194 3500 
L 3769 3500 
L 3091 0 
L 2516 0 
L 2631 550 
Q 2388 244 2052 76 
Q 1716 -91 1338 -91 
Q 878 -91 622 161 
Q 366 413 366 863 
Q 366 956 381 1097 
Q 397 1238 428 1388 
z
" transform="scale(0.015625)"/>
      <path id="DejaVuSans-Oblique-74" d="M 2706 3500 
L 2619 3053 
L 1472 3053 
L 1100 1153 
Q 1081 1047 1072 975 
Q 1063 903 1063 863 
Q 1063 663 1183 572 
Q 1303 481 1569 481 
L 2150 481 
L 2053 0 
L 1503 0 
Q 991 0 739 200 
Q 488 400 488 806 
Q 488 878 497 964 
Q 506 1050 525 1153 
L 897 3053 
L 409 3053 
L 500 3500 
L 978 3500 
L 1172 4494 
L 1747 4494 
L 1556 3500 
L 2706 3500 
z
" transform="scale(0.015625)"/>
     </defs>
     <use xlink:href="#DejaVuSans-Oblique-76" transform="translate(0 0.3125)"/>
     <use xlink:href="#DejaVuSans-Oblique-6f" transform="translate(59.179688 -16.09375) scale(0.7)"/>
     <use xlink:href="#DejaVuSans-Oblique-75" transform="translate(102.006836 -16.09375) scale(0.7)"/>
     <use xlink:href="#DejaVuSans-Oblique-74" transform="translate(146.37207 -16.09375) scale(0.7)"/>
    </g>
   </g>
   <g id="text_9">
    <!-- $-$ -->
    <g transform="translate(525.48 188.346875) scale(0.125 -0.125)">
     <defs>
      <path id="DejaVuSans-2212" d="M 678 2272 
L 4684 2272 
L 4684 1741 
L 678 1741 
L 678 2272 
z
" transform="scale(0.015625)"/>
     </defs>
     <use xlink:href="#DejaVuSans-2212" transform="translate(0 0.5)"/>
    </g>
   </g>
   <g id="text_10">
    <!-- 176.90 nF -->
    <g transform="translate(129.33 173.946875) scale(0.125 -0.125)">
     <defs>
      <path id="DejaVuSans-31" d="M 794 531 
L 1825 531 
L 1825 4091 
L 703 3866 
L 703 4441 
L 1819 4666 
L 2450 4666 
L 2450 531 
L 3481 531 
L 3481 0 
L 794 0 
L 794 531 
z
" transform="scale(0.015625)"/>
      <path id="DejaVuSans-39" d="M 703 97 
L 703 672 
Q 941 559 1184 500 
Q 1428 441 1663 441 
Q 2288 441 2617 861 
Q 2947 1281 2994 2138 
Q 2813 1869 2534 1725 
Q 2256 1581 1919 1581 
Q 1219 1581 811 2004 
Q 403 2428 403 3163 
Q 403 3881 828 4315 
Q 1253 4750 1959 4750 
Q 2769 4750 3195 4129 
Q 3622 3509 3622 2328 
Q 3622 1225 3098 567 
Q 2575 -91 1691 -91 
Q 1453 -91 1209 -44 
Q 966 3 703 97 
z
M 1959 2075 
Q 2384 2075 2632 2365 
Q 2881 2656 2881 3163 
Q 2881 3666 2632 3958 
Q 2384 4250 1959 4250 
Q 1534 4250 1286 3958 
Q 1038 3666 1038 3163 
Q 1038 2656 1286 2365 
Q 1534 2075 1959 2075 
z
" transform="scale(0.015625)"/>
     </defs>
     <use xlink:href="#DejaVuSans-31"/>
     <use xlink:href="#DejaVuSans-37" x="63.623047"/>
     <use xlink:href="#DejaVuSans-36" x="127.246094"/>
     <use xlink:href="#DejaVuSans-2e" x="190.869141"/>
     <use xlink:href="#DejaVuSans-39" x="222.65625"/>
     <use xlink:href="#DejaVuSans-30" x="286.279297"/>
     <use xlink:href="#DejaVuSans-20" x="349.902344"/>
     <use xlink:href="#DejaVuSans-6e" x="381.689453"/>
     <use xlink:href="#DejaVuSans-46" x="445.068359"/>
    </g>
   </g>
   <g id="text_11">
    <!-- $V_{in}$ -->
    <g transform="translate(11.055 175.746875) scale(0.125 -0.125)">
     <defs>
      <path id="DejaVuSans-Oblique-69" d="M 1172 4863 
L 1747 4863 
L 1606 4134 
L 1031 4134 
L 1172 4863 
z
M 909 3500 
L 1484 3500 
L 800 0 
L 225 0 
L 909 3500 
z
" transform="scale(0.015625)"/>
      <path id="DejaVuSans-Oblique-6e" d="M 3566 2113 
L 3156 0 
L 2578 0 
L 2988 2091 
Q 3016 2238 3031 2350 
Q 3047 2463 3047 2528 
Q 3047 2791 2881 2937 
Q 2716 3084 2419 3084 
Q 1956 3084 1622 2776 
Q 1288 2469 1184 1941 
L 800 0 
L 225 0 
L 903 3500 
L 1478 3500 
L 1363 2950 
Q 1603 3253 1940 3418 
Q 2278 3584 2650 3584 
Q 3113 3584 3367 3334 
Q 3622 3084 3622 2631 
Q 3622 2519 3608 2391 
Q 3594 2263 3566 2113 
z
" transform="scale(0.015625)"/>
     </defs>
     <use xlink:href="#DejaVuSans-Oblique-56" transform="translate(0 0.09375)"/>
     <use xlink:href="#DejaVuSans-Oblique-69" transform="translate(68.408203 -16.3125) scale(0.7)"/>
     <use xlink:href="#DejaVuSans-Oblique-6e" transform="translate(87.856445 -16.3125) scale(0.7)"/>
    </g>
   </g>
   <g id="patch_12">
    <path d="M 116.73 144.397656 
C 117.446048 144.397656 118.132866 144.113167 118.639188 143.606845 
C 119.145511 143.100522 119.43 142.413705 119.43 141.697656 
C 119.43 140.981608 119.145511 140.294791 118.639188 139.788468 
C 118.132866 139.282145 117.446048 138.997656 116.73 138.997656 
C 116.013952 138.997656 115.327134 139.282145 114.820812 139.788468 
C 114.314489 140.294791 114.03 140.981608 114.03 141.697656 
C 114.03 142.413705 114.314489 143.100522 114.820812 143.606845 
C 115.327134 144.113167 116.013952 144.397656 116.73 144.397656 
z
" clip-path="url(#pc59ec6f8a3)" style="stroke: #000000; stroke-width: 2; stroke-linejoin: miter"/>
   </g>
   <g id="patch_13">
    <path d="M 530.73 144.397656 
C 531.446048 144.397656 532.132866 144.113167 532.639188 143.606845 
C 533.145511 143.100522 533.43 142.413705 533.43 141.697656 
C 533.43 140.981608 533.145511 140.294791 532.639188 139.788468 
C 532.132866 139.282145 531.446048 138.997656 530.73 138.997656 
C 530.013952 138.997656 529.327134 139.282145 528.820812 139.788468 
C 528.314489 140.294791 528.03 140.981608 528.03 141.697656 
C 528.03 142.413705 528.314489 143.100522 528.820812 143.606845 
C 529.327134 144.113167 530.013952 144.397656 530.73 144.397656 
z
" clip-path="url(#pc59ec6f8a3)" style="fill: #ffffff; stroke: #000000; stroke-width: 2; stroke-linejoin: miter"/>
   </g>
   <g id="patch_14">
    <path d="M 530.73 201.997656 
C 531.446048 201.997656 532.132866 201.713167 532.639188 201.206845 
C 533.145511 200.700522 533.43 200.013705 533.43 199.297656 
C 533.43 198.581608 533.145511 197.894791 532.639188 197.388468 
C 532.132866 196.882145 531.446048 196.597656 530.73 196.597656 
C 530.013952 196.597656 529.327134 196.882145 528.820812 197.388468 
C 528.314489 197.894791 528.03 198.581608 528.03 199.297656 
C 528.03 200.013705 528.314489 200.700522 528.820812 201.206845 
C 529.327134 201.713167 530.013952 201.997656 530.73 201.997656 
z
" clip-path="url(#pc59ec6f8a3)" style="fill: #ffffff; stroke: #000000; stroke-width: 2; stroke-linejoin: miter"/>
   </g>
   <g id="patch_15">
    <path d="M 31.53 174.997656 
C 32.246048 174.997656 32.932866 174.713167 33.439188 174.206845 
C 33.945511 173.700522 34.23 173.013705 34.23 172.297656 
C 34.23 171.581608 33.945511 170.894791 33.439188 170.388468 
C 32.932866 169.882145 32.246048 169.597656 31.53 169.597656 
C 30.813952 169.597656 30.127134 169.882145 29.620812 170.388468 
C 29.114489 170.894791 28.83 171.581608 28.83 172.297656 
C 28.83 173.013705 29.114489 173.700522 29.620812 174.206845 
C 30.127134 174.713167 30.813952 174.997656 31.53 174.997656 
z
" clip-path="url(#pc59ec6f8a3)" style="fill: #ffffff; stroke: #000000; stroke-width: 2; stroke-linejoin: miter"/>
   </g>
  </g>
 </g>
 <defs>
  <clipPath id="pc59ec6f8a3">
   <rect x="3.6" y="9.145656" width="555.06" height="223.344"/>
  </clipPath>
 </defs>
</svg>