<?xml version="1.0" encoding="utf-8" standalone="no"?>
<!DOCTYPE svg PUBLIC "-//W3C//DTD SVG 1.1//EN"
  "http://www.w3.org/Graphics/SVG/1.1/DTD/svg11.dtd">
<svg xmlns:xlink="http://www.w3.org/1999/xlink" width="267.6762pt" height="404.482pt" viewBox="0 0 267.6762 404.482" xmlns="http://www.w3.org/2000/svg" version="1.1">
 <metadata>
  <rdf:RDF xmlns:dc="http://purl.org/dc/elements/1.1/" xmlns:cc="http://creativecommons.org/ns#" xmlns:rdf="http://www.w3.org/1999/02/22-rdf-syntax-ns#">
   <cc:Work>
    <dc:type rdf:resource="http://purl.org/dc/dcmitype/StillImage"/>
    <dc:date>2022-11-15T00:14:27.095265</dc:date>
    <dc:format>image/svg+xml</dc:format>
    <dc:creator>
     <cc:Agent>
      <dc:title>Matplotlib v3.5.3, https://matplotlib.org/</dc:title>
     </cc:Agent>
    </dc:creator>
   </cc:Work>
  </rdf:RDF>
 </metadata>
 <defs>
  <style type="text/css">*{stroke-linejoin: round; stroke-linecap: butt}</style>
 </defs>
 <g id="figure_1">
  <g id="patch_1">
   <path d="M 0 404.482 
L 267.6762 404.482 
L 267.6762 0 
L 0 0 
z
" style="fill: #ffffff"/>
  </g>
  <g id="axes_1">
   <g id="patch_2">
    <path d="M 45.6234 336.388 
C 47.652204 336.388 49.598186 335.581948 51.032767 334.147367 
C 52.467348 332.712786 53.2734 330.766804 53.2734 328.738 
C 53.2734 326.709196 52.467348 324.763214 51.032767 323.328633 
C 49.598186 321.894052 47.652204 321.088 45.6234 321.088 
C 43.594596 321.088 41.648614 321.894052 40.214033 323.328633 
C 38.779452 324.763214 37.9734 326.709196 37.9734 328.738 
C 37.9734 330.766804 38.779452 332.712786 40.214033 334.147367 
C 41.648614 335.581948 43.594596 336.388 45.6234 336.388 
L 45.6234 336.388 
z
" clip-path="url(#p80b0af6ddf)" style="fill: none; stroke: #000000; stroke-width: 2; stroke-linejoin: miter"/>
   </g>
   <g id="line2d_1">
    <path d="M 137.4234 282.838 
L 148.6434 282.838 
" clip-path="url(#p80b0af6ddf)" style="fill: none; stroke: #000000; stroke-width: 2; stroke-linecap: round"/>
   </g>
   <g id="line2d_2">
    <path d="M 148.6434 271.618 
L 148.6434 294.058 
" clip-path="url(#p80b0af6ddf)" style="fill: none; stroke: #000000; stroke-width: 2; stroke-linecap: round"/>
   </g>
   <g id="line2d_3">
    <path d="M 148.6434 277.228 
L 160.4244 267.13 
L 160.4244 261.52 
" clip-path="url(#p80b0af6ddf)" style="fill: none; stroke: #000000; stroke-width: 2; stroke-linecap: round"/>
   </g>
   <g id="line2d_4">
    <path d="M 148.6434 288.448 
L 160.4244 298.546 
L 160.4244 304.156 
" clip-path="url(#p80b0af6ddf)" style="fill: none; stroke: #000000; stroke-width: 2; stroke-linecap: round"/>
   </g>
   <g id="line2d_5">
    <path d="M 148.6434 288.448 
L 154.616087 293.567446 
" clip-path="url(#p80b0af6ddf)" style="fill: none; stroke: #000000; stroke-width: 2; stroke-linecap: round"/>
   </g>
   <g id="patch_3">
    <path d="M 156.607509 291.244121 
L 160.4244 298.546 
L 152.624665 295.890771 
z
" clip-path="url(#p80b0af6ddf)"/>
   </g>
   <g id="line2d_6">
    <path d="M 137.4234 282.838 
L 106.8234 282.838 
L 104.2734 290.488 
L 99.1734 275.188 
L 94.0734 290.488 
L 88.9734 275.188 
L 83.8734 290.488 
L 78.7734 275.188 
L 76.2234 282.838 
L 45.6234 282.838 
" clip-path="url(#p80b0af6ddf)" style="fill: none; stroke: #000000; stroke-width: 2; stroke-linecap: round"/>
   </g>
   <g id="line2d_7">
    <path d="M 45.6234 282.838 
L 45.6234 321.088 
L 45.6234 321.088 
M 45.6234 336.388 
L 45.6234 336.388 
L 45.6234 374.638 
" clip-path="url(#p80b0af6ddf)" style="fill: none; stroke: #000000; stroke-width: 2; stroke-linecap: round"/>
   </g>
   <g id="line2d_8">
    <path d="M 44.0934 324.913 
L 47.1534 324.913 
" clip-path="url(#p80b0af6ddf)" style="fill: none; stroke: #000000; stroke-width: 2; stroke-linecap: round"/>
   </g>
   <g id="line2d_9">
    <path d="M 45.6234 331.033 
L 45.6234 334.093 
" clip-path="url(#p80b0af6ddf)" style="fill: none; stroke: #000000; stroke-width: 2; stroke-linecap: round"/>
   </g>
   <g id="line2d_10">
    <path d="M 44.0934 332.563 
L 47.1534 332.563 
" clip-path="url(#p80b0af6ddf)" style="fill: none; stroke: #000000; stroke-width: 2; stroke-linecap: round"/>
   </g>
   <g id="line2d_11">
    <path d="M 45.6234 374.638 
L 103.0239 374.638 
L 160.4244 374.638 
" clip-path="url(#p80b0af6ddf)" style="fill: none; stroke: #000000; stroke-width: 2; stroke-linecap: round"/>
   </g>
   <g id="line2d_12">
    <path d="M 160.4244 374.638 
L 160.4244 386.878 
L 152.7744 386.878 
L 168.0744 386.878 
M 155.0694 390.55 
L 165.7794 390.55 
M 158.8944 394.222 
L 161.9544 394.222 
" clip-path="url(#p80b0af6ddf)" style="fill: none; stroke: #000000; stroke-width: 2; stroke-linecap: round"/>
   </g>
   <g id="line2d_13">
    <path d="M 160.4244 374.638 
L 160.4244 339.397 
L 160.4244 304.156 
" clip-path="url(#p80b0af6ddf)" style="fill: none; stroke: #000000; stroke-width: 2; stroke-linecap: round"/>
   </g>
   <g id="line2d_14">
    <path d="M 160.4244 261.52 
L 160.4244 250.045 
L 160.4244 238.57 
" clip-path="url(#p80b0af6ddf)" style="fill: none; stroke: #000000; stroke-width: 2; stroke-linecap: round"/>
   </g>
   <g id="line2d_15">
    <path d="M 160.4244 238.57 
L 160.4244 195.424 
M 152.7744 195.424 
L 168.0744 195.424 
M 152.7744 189.916 
L 168.0744 189.916 
M 160.4244 189.916 
L 160.4244 146.77 
" clip-path="url(#p80b0af6ddf)" style="fill: none; stroke: #000000; stroke-width: 2; stroke-linecap: round"/>
   </g>
   <g id="line2d_16">
    <path d="M 160.4244 238.57 
L 141.2994 238.57 
L 122.1744 238.57 
" clip-path="url(#p80b0af6ddf)" style="fill: none; stroke: #000000; stroke-width: 2; stroke-linecap: round"/>
   </g>
   <g id="line2d_17">
    <path d="M 122.1744 238.57 
L 122.1744 207.97 
L 119.654841 207.856041 
L 117.112559 207.509504 
L 114.760771 206.938099 
L 112.796717 206.168393 
L 111.38512 205.243585 
L 110.925601 204.740198 
L 110.644368 204.219883 
L 110.547348 203.690924 
L 110.636587 203.161788 
L 110.910203 202.640943 
L 111.36243 202.136686 
L 111.983734 201.65696 
L 113.677906 200.800145 
L 115.85063 200.121003 
L 118.319684 199.655138 
L 120.877992 199.420266 
L 123.310992 199.41473 
L 125.414633 199.61764 
L 127.012486 199.990624 
L 127.970541 200.481044 
L 128.18222 200.751011 
L 128.208447 201.026415 
L 128.048668 201.298767 
L 127.706251 201.559643 
L 126.506073 202.014652 
L 124.708568 202.331925 
L 122.464492 202.463499 
L 119.962051 202.376984 
L 117.411121 202.058281 
L 115.025645 201.512764 
L 113.005689 200.76483 
L 111.520663 199.855852 
L 111.019738 199.357713 
L 110.695115 198.840709 
L 110.553636 198.313054 
L 110.598282 197.783186 
L 110.828113 197.25959 
L 111.238285 196.750619 
L 111.820152 196.264319 
L 113.44655 195.389358 
L 115.570904 194.686733 
L 118.015049 194.194018 
L 120.573996 193.931181 
L 123.033132 193.89891 
L 125.186212 194.078558 
L 126.852661 194.433703 
L 127.892716 194.913204 
L 128.148302 195.180618 
L 128.21915 195.455491 
L 128.103767 195.729347 
L 127.804584 195.993729 
L 126.683789 196.461421 
L 124.950762 196.797988 
L 122.750851 196.953848 
L 120.268559 196.894574 
L 117.712072 196.603782 
L 115.295798 196.084506 
L 113.222387 195.358941 
L 111.665732 194.466585 
L 111.124009 193.974144 
L 110.756388 193.460923 
L 110.570621 192.935056 
L 110.570621 192.404944 
L 110.756388 191.879077 
L 111.124009 191.365856 
L 111.665732 190.873415 
L 113.222387 189.981059 
L 115.295798 189.255494 
L 117.712072 188.736218 
L 120.268559 188.445426 
L 122.750851 188.386152 
L 124.950762 188.542012 
L 126.683789 188.878579 
L 127.804584 189.346271 
L 128.103767 189.610653 
L 128.21915 189.884509 
L 128.148302 190.159382 
L 127.892716 190.426796 
L 126.852661 190.906297 
L 125.186212 191.261442 
L 123.033132 191.44109 
L 120.573996 191.408819 
L 118.015049 191.145982 
L 115.570904 190.653267 
L 113.44655 189.950642 
L 111.820152 189.075681 
L 111.238285 188.589381 
L 110.828113 188.08041 
L 110.598282 187.556814 
L 110.553636 187.026946 
L 110.695115 186.499291 
L 111.019738 185.982287 
L 111.520663 185.484148 
L 112.187331 185.012691 
L 113.958488 184.178123 
L 116.184666 183.527221 
L 118.679158 183.09322 
L 121.232756 182.891166 
L 123.631294 182.916647 
L 125.673608 183.146174 
L 127.188414 183.53914 
L 128.048668 184.041233 
L 128.208447 184.313585 
L 128.18222 184.588989 
L 127.970541 184.858956 
L 127.57787 185.115113 
L 126.286305 185.554125 
L 124.415845 185.847851 
L 122.123364 185.950302 
L 119.601127 185.831529 
L 117.060672 185.480141 
L 114.715062 184.904251 
L 112.761021 184.130805 
L 111.36243 183.203314 
L 110.910203 182.699057 
L 110.636587 182.178212 
L 110.547348 181.649076 
L 110.644368 181.120117 
L 110.925601 180.599802 
L 111.38512 180.096415 
L 112.013238 179.617882 
L 113.719041 178.764313 
L 115.899947 178.089327 
L 118.373047 177.628179 
L 120.930925 177.398191 
L 122.1744 177.37 
L 122.1744 146.77 
L 122.1744 146.77 
" clip-path="url(#p80b0af6ddf)" style="fill: none; stroke: #000000; stroke-width: 2; stroke-linecap: round"/>
   </g>
   <g id="line2d_18">
    <path d="M 160.4244 146.77 
L 160.4244 103.624 
M 152.7744 103.624 
L 168.0744 103.624 
M 152.7744 98.116 
L 168.0744 98.116 
M 160.4244 98.116 
L 160.4244 54.97 
" clip-path="url(#p80b0af6ddf)" style="fill: none; stroke: #000000; stroke-width: 2; stroke-linecap: round"/>
   </g>
   <g id="line2d_19">
    <path d="M 160.4244 146.77 
L 141.2994 146.77 
L 122.1744 146.77 
" clip-path="url(#p80b0af6ddf)" style="fill: none; stroke: #000000; stroke-width: 2; stroke-linecap: round"/>
   </g>
   <g id="line2d_20">
    <path d="M 122.1744 146.77 
L 122.1744 116.17 
L 119.654841 116.056041 
L 117.112559 115.709504 
L 114.760771 115.138099 
L 112.796717 114.368393 
L 111.38512 113.443585 
L 110.925601 112.940198 
L 110.644368 112.419883 
L 110.547348 111.890924 
L 110.636587 111.361788 
L 110.910203 110.840943 
L 111.36243 110.336686 
L 111.983734 109.85696 
L 113.677906 109.000145 
L 115.85063 108.321003 
L 118.319684 107.855138 
L 120.877992 107.620266 
L 123.310992 107.61473 
L 125.414633 107.81764 
L 127.012486 108.190624 
L 127.970541 108.681044 
L 128.18222 108.951011 
L 128.208447 109.226415 
L 128.048668 109.498767 
L 127.706251 109.759643 
L 126.506073 110.214652 
L 124.708568 110.531925 
L 122.464492 110.663499 
L 119.962051 110.576984 
L 117.411121 110.258281 
L 115.025645 109.712764 
L 113.005689 108.96483 
L 111.520663 108.055852 
L 111.019738 107.557713 
L 110.695115 107.040709 
L 110.553636 106.513054 
L 110.598282 105.983186 
L 110.828113 105.45959 
L 111.238285 104.950619 
L 111.820152 104.464319 
L 113.44655 103.589358 
L 115.570904 102.886733 
L 118.015049 102.394018 
L 120.573996 102.131181 
L 123.033132 102.09891 
L 125.186212 102.278558 
L 126.852661 102.633703 
L 127.892716 103.113204 
L 128.148302 103.380618 
L 128.21915 103.655491 
L 128.103767 103.929347 
L 127.804584 104.193729 
L 126.683789 104.661421 
L 124.950762 104.997988 
L 122.750851 105.153848 
L 120.268559 105.094574 
L 117.712072 104.803782 
L 115.295798 104.284506 
L 113.222387 103.558941 
L 111.665732 102.666585 
L 111.124009 102.174144 
L 110.756388 101.660923 
L 110.570621 101.135056 
L 110.570621 100.604944 
L 110.756388 100.079077 
L 111.124009 99.565856 
L 111.665732 99.073415 
L 113.222387 98.181059 
L 115.295798 97.455494 
L 117.712072 96.936218 
L 120.268559 96.645426 
L 122.750851 96.586152 
L 124.950762 96.742012 
L 126.683789 97.078579 
L 127.804584 97.546271 
L 128.103767 97.810653 
L 128.21915 98.084509 
L 128.148302 98.359382 
L 127.892716 98.626796 
L 126.852661 99.106297 
L 125.186212 99.461442 
L 123.033132 99.64109 
L 120.573996 99.608819 
L 118.015049 99.345982 
L 115.570904 98.853267 
L 113.44655 98.150642 
L 111.820152 97.275681 
L 111.238285 96.789381 
L 110.828113 96.28041 
L 110.598282 95.756814 
L 110.553636 95.226946 
L 110.695115 94.699291 
L 111.019738 94.182287 
L 111.520663 93.684148 
L 112.187331 93.212691 
L 113.958488 92.378123 
L 116.184666 91.727221 
L 118.679158 91.29322 
L 121.232756 91.091166 
L 123.631294 91.116647 
L 125.673608 91.346174 
L 127.188414 91.73914 
L 128.048668 92.241233 
L 128.208447 92.513585 
L 128.18222 92.788989 
L 127.970541 93.058956 
L 127.57787 93.315113 
L 126.286305 93.754125 
L 124.415845 94.047851 
L 122.123364 94.150302 
L 119.601127 94.031529 
L 117.060672 93.680141 
L 114.715062 93.104251 
L 112.761021 92.330805 
L 111.36243 91.403314 
L 110.910203 90.899057 
L 110.636587 90.378212 
L 110.547348 89.849076 
L 110.644368 89.320117 
L 110.925601 88.799802 
L 111.38512 88.296415 
L 112.013238 87.817882 
L 113.719041 86.964313 
L 115.899947 86.289327 
L 118.373047 85.828179 
L 120.930925 85.598191 
L 122.1744 85.57 
L 122.1744 54.97 
L 122.1744 54.97 
" clip-path="url(#p80b0af6ddf)" style="fill: none; stroke: #000000; stroke-width: 2; stroke-linecap: round"/>
   </g>
   <g id="line2d_21">
    <path d="M 160.4244 146.77 
L 179.5494 146.77 
L 198.6744 146.77 
" clip-path="url(#p80b0af6ddf)" style="fill: none; stroke: #000000; stroke-width: 2; stroke-linecap: round"/>
   </g>
   <g id="line2d_22">
    <path d="M 198.6744 146.77 
L 198.6744 116.17 
L 191.0244 113.62 
L 206.3244 108.52 
L 191.0244 103.42 
L 206.3244 98.32 
L 191.0244 93.22 
L 206.3244 88.12 
L 198.6744 85.57 
L 198.6744 54.97 
" clip-path="url(#p80b0af6ddf)" style="fill: none; stroke: #000000; stroke-width: 2; stroke-linecap: round"/>
   </g>
   <g id="line2d_23">
    <path d="M 198.6744 146.77 
L 206.3244 146.77 
L 213.9744 146.77 
" clip-path="url(#p80b0af6ddf)" style="fill: none; stroke: #000000; stroke-width: 2; stroke-linecap: round"/>
   </g>
   <g id="line2d_24">
    <path d="M 198.6744 54.97 
L 179.5494 54.97 
L 160.4244 54.97 
" clip-path="url(#p80b0af6ddf)" style="fill: none; stroke: #000000; stroke-width: 2; stroke-linecap: round"/>
   </g>
   <g id="line2d_25">
    <path d="M 122.1744 54.97 
L 141.2994 54.97 
L 160.4244 54.97 
" clip-path="url(#p80b0af6ddf)" style="fill: none; stroke: #000000; stroke-width: 2; stroke-linecap: round"/>
   </g>
   <g id="line2d_26">
    <path d="M 160.4244 54.97 
L 160.4244 51.145 
L 160.4244 47.32 
" clip-path="url(#p80b0af6ddf)" style="fill: none; stroke: #000000; stroke-width: 2; stroke-linecap: round"/>
   </g>
   <g id="line2d_27">
    <path d="M 160.4244 47.32 
L 160.4244 35.08 
" clip-path="url(#p80b0af6ddf)" style="fill: none; stroke: #000000; stroke-width: 2; stroke-linecap: round"/>
   </g>
   <g id="line2d_28">
    <path d="M 160.4244 35.08 
L 154.6869 35.08 
" clip-path="url(#p80b0af6ddf)" style="fill: none; stroke: #000000; stroke-width: 2; stroke-linecap: round"/>
   </g>
   <g id="line2d_29">
    <path d="M 160.4244 35.08 
L 166.1619 35.08 
" clip-path="url(#p80b0af6ddf)" style="fill: none; stroke: #000000; stroke-width: 2; stroke-linecap: round"/>
   </g>
   <g id="text_1">
    <g clip-path="url(#p80b0af6ddf)">
     <!-- $R_{in}$ -->
     <g transform="translate(82.9609 269.528391)scale(0.125 -0.125)">
      <defs>
       <path id="DejaVuSans-Oblique-52" d="M 1613 4147 
L 1294 2491 
L 2106 2491 
Q 2584 2491 2879 2755 
Q 3175 3019 3175 3444 
Q 3175 3784 2976 3965 
Q 2778 4147 2406 4147 
L 1613 4147 
z
M 2772 2241 
Q 2972 2194 3105 2009 
Q 3238 1825 3413 1275 
L 3809 0 
L 3144 0 
L 2778 1197 
Q 2638 1659 2453 1815 
Q 2269 1972 1888 1972 
L 1191 1972 
L 806 0 
L 172 0 
L 1081 4666 
L 2503 4666 
Q 3150 4666 3495 4373 
Q 3841 4081 3841 3531 
Q 3841 3044 3547 2687 
Q 3253 2331 2772 2241 
z
" transform="scale(0.015625)"/>
       <path id="DejaVuSans-Oblique-69" d="M 1172 4863 
L 1747 4863 
L 1606 4134 
L 1031 4134 
L 1172 4863 
z
M 909 3500 
L 1484 3500 
L 800 0 
L 225 0 
L 909 3500 
z
" transform="scale(0.015625)"/>
       <path id="DejaVuSans-Oblique-6e" d="M 3566 2113 
L 3156 0 
L 2578 0 
L 2988 2091 
Q 3016 2238 3031 2350 
Q 3047 2463 3047 2528 
Q 3047 2791 2881 2937 
Q 2716 3084 2419 3084 
Q 1956 3084 1622 2776 
Q 1288 2469 1184 1941 
L 800 0 
L 225 0 
L 903 3500 
L 1478 3500 
L 1363 2950 
Q 1603 3253 1940 3418 
Q 2278 3584 2650 3584 
Q 3113 3584 3367 3334 
Q 3622 3084 3622 2631 
Q 3622 2519 3608 2391 
Q 3594 2263 3566 2113 
z
" transform="scale(0.015625)"/>
      </defs>
      <use xlink:href="#DejaVuSans-Oblique-52" transform="translate(0 0.09375)"/>
      <use xlink:href="#DejaVuSans-Oblique-69" transform="translate(69.482422 -16.3125)scale(0.7)"/>
      <use xlink:href="#DejaVuSans-Oblique-6e" transform="translate(88.930664 -16.3125)scale(0.7)"/>
     </g>
    </g>
   </g>
   <g id="text_2">
    <g clip-path="url(#p80b0af6ddf)">
     <!-- $V_{in}$ -->
     <g transform="translate(19.5684 332.187219)scale(0.125 -0.125)">
      <defs>
       <path id="DejaVuSans-Oblique-56" d="M 1319 0 
L 500 4666 
L 1119 4666 
L 1797 653 
L 4063 4666 
L 4750 4666 
L 2053 0 
L 1319 0 
z
" transform="scale(0.015625)"/>
      </defs>
      <use xlink:href="#DejaVuSans-Oblique-56" transform="translate(0 0.09375)"/>
      <use xlink:href="#DejaVuSans-Oblique-69" transform="translate(68.408203 -16.3125)scale(0.7)"/>
      <use xlink:href="#DejaVuSans-Oblique-6e" transform="translate(87.856445 -16.3125)scale(0.7)"/>
     </g>
    </g>
   </g>
   <g id="text_3">
    <g clip-path="url(#p80b0af6ddf)">
     <!-- $C_3$ -->
     <g transform="translate(134.9644 196.119219)scale(0.125 -0.125)">
      <defs>
       <path id="DejaVuSans-Oblique-43" d="M 4447 4306 
L 4319 3641 
Q 4019 3944 3683 4091 
Q 3347 4238 2956 4238 
Q 2422 4238 2017 3981 
Q 1613 3725 1319 3200 
Q 1131 2863 1032 2486 
Q 934 2109 934 1728 
Q 934 1091 1264 756 
Q 1594 422 2222 422 
Q 2656 422 3056 561 
Q 3456 700 3834 978 
L 3688 231 
Q 3316 72 2936 -9 
Q 2556 -91 2175 -91 
Q 1278 -91 773 396 
Q 269 884 269 1753 
Q 269 2309 461 2846 
Q 653 3384 1013 3828 
Q 1394 4300 1883 4525 
Q 2372 4750 3022 4750 
Q 3422 4750 3780 4639 
Q 4138 4528 4447 4306 
z
" transform="scale(0.015625)"/>
       <path id="DejaVuSans-33" d="M 2597 2516 
Q 3050 2419 3304 2112 
Q 3559 1806 3559 1356 
Q 3559 666 3084 287 
Q 2609 -91 1734 -91 
Q 1441 -91 1130 -33 
Q 819 25 488 141 
L 488 750 
Q 750 597 1062 519 
Q 1375 441 1716 441 
Q 2309 441 2620 675 
Q 2931 909 2931 1356 
Q 2931 1769 2642 2001 
Q 2353 2234 1838 2234 
L 1294 2234 
L 1294 2753 
L 1863 2753 
Q 2328 2753 2575 2939 
Q 2822 3125 2822 3475 
Q 2822 3834 2567 4026 
Q 2313 4219 1838 4219 
Q 1578 4219 1281 4162 
Q 984 4106 628 3988 
L 628 4550 
Q 988 4650 1302 4700 
Q 1616 4750 1894 4750 
Q 2613 4750 3031 4423 
Q 3450 4097 3450 3541 
Q 3450 3153 3228 2886 
Q 3006 2619 2597 2516 
z
" transform="scale(0.015625)"/>
      </defs>
      <use xlink:href="#DejaVuSans-Oblique-43" transform="translate(0 0.78125)"/>
      <use xlink:href="#DejaVuSans-33" transform="translate(69.824219 -15.625)scale(0.7)"/>
     </g>
    </g>
   </g>
   <g id="text_4">
    <g clip-path="url(#p80b0af6ddf)">
     <!-- $L_3$ -->
     <g transform="translate(94.612348 196.119219)scale(0.125 -0.125)">
      <defs>
       <path id="DejaVuSans-Oblique-4c" d="M 1075 4666 
L 1709 4666 
L 909 525 
L 3181 525 
L 3078 0 
L 172 0 
L 1075 4666 
z
" transform="scale(0.015625)"/>
      </defs>
      <use xlink:href="#DejaVuSans-Oblique-4c" transform="translate(0 0.09375)"/>
      <use xlink:href="#DejaVuSans-33" transform="translate(55.712891 -16.3125)scale(0.7)"/>
     </g>
    </g>
   </g>
   <g id="text_5">
    <g clip-path="url(#p80b0af6ddf)">
     <!-- $C_1$ -->
     <g transform="translate(134.9644 104.319219)scale(0.125 -0.125)">
      <defs>
       <path id="DejaVuSans-31" d="M 794 531 
L 1825 531 
L 1825 4091 
L 703 3866 
L 703 4441 
L 1819 4666 
L 2450 4666 
L 2450 531 
L 3481 531 
L 3481 0 
L 794 0 
L 794 531 
z
" transform="scale(0.015625)"/>
      </defs>
      <use xlink:href="#DejaVuSans-Oblique-43" transform="translate(0 0.78125)"/>
      <use xlink:href="#DejaVuSans-31" transform="translate(69.824219 -15.625)scale(0.7)"/>
     </g>
    </g>
   </g>
   <g id="text_6">
    <g clip-path="url(#p80b0af6ddf)">
     <!-- $L_1$ -->
     <g transform="translate(94.612348 104.319219)scale(0.125 -0.125)">
      <use xlink:href="#DejaVuSans-Oblique-4c" transform="translate(0 0.09375)"/>
      <use xlink:href="#DejaVuSans-31" transform="translate(55.712891 -16.3125)scale(0.7)"/>
     </g>
    </g>
   </g>
   <g id="text_7">
    <g clip-path="url(#p80b0af6ddf)">
     <!-- $R_L$ -->
     <g transform="translate(173.9644 104.319219)scale(0.125 -0.125)">
      <use xlink:href="#DejaVuSans-Oblique-52" transform="translate(0 0.09375)"/>
      <use xlink:href="#DejaVuSans-Oblique-4c" transform="translate(69.482422 -16.3125)scale(0.7)"/>
     </g>
    </g>
   </g>
   <g id="text_8">
    <g clip-path="url(#p80b0af6ddf)">
     <!-- $V_{dd}$ -->
     <g transform="translate(150.3619 29.420391)scale(0.125 -0.125)">
      <defs>
       <path id="DejaVuSans-Oblique-64" d="M 2675 525 
Q 2444 222 2128 65 
Q 1813 -91 1428 -91 
Q 903 -91 598 267 
Q 294 625 294 1247 
Q 294 1766 478 2236 
Q 663 2706 1013 3078 
Q 1244 3325 1534 3454 
Q 1825 3584 2144 3584 
Q 2481 3584 2739 3421 
Q 2997 3259 3138 2956 
L 3513 4863 
L 4091 4863 
L 3144 0 
L 2566 0 
L 2675 525 
z
M 891 1350 
Q 891 897 1095 644 
Q 1300 391 1663 391 
Q 1931 391 2161 520 
Q 2391 650 2566 903 
Q 2750 1166 2856 1509 
Q 2963 1853 2963 2188 
Q 2963 2622 2758 2865 
Q 2553 3109 2194 3109 
Q 1922 3109 1687 2981 
Q 1453 2853 1288 2613 
Q 1106 2353 998 2009 
Q 891 1666 891 1350 
z
" transform="scale(0.015625)"/>
      </defs>
      <use xlink:href="#DejaVuSans-Oblique-56" transform="translate(0 0.09375)"/>
      <use xlink:href="#DejaVuSans-Oblique-64" transform="translate(68.408203 -16.3125)scale(0.7)"/>
      <use xlink:href="#DejaVuSans-Oblique-64" transform="translate(112.841797 -16.3125)scale(0.7)"/>
     </g>
    </g>
   </g>
   <g id="patch_4">
    <path d="M 45.6234 285.133 
C 46.232041 285.133 46.815836 284.891184 47.24621 284.46081 
C 47.676584 284.030436 47.9184 283.446641 47.9184 282.838 
C 47.9184 282.229359 47.676584 281.645564 47.24621 281.21519 
C 46.815836 280.784816 46.232041 280.543 45.6234 280.543 
C 45.014759 280.543 44.430964 280.784816 44.00059 281.21519 
C 43.570216 281.645564 43.3284 282.229359 43.3284 282.838 
C 43.3284 283.446641 43.570216 284.030436 44.00059 284.46081 
C 44.430964 284.891184 45.014759 285.133 45.6234 285.133 
z
" clip-path="url(#p80b0af6ddf)" style="fill: #ff0000; stroke: #ff0000; stroke-width: 2; stroke-linejoin: miter"/>
   </g>
   <g id="text_9">
    <g clip-path="url(#p80b0af6ddf)">
     <!-- 1 -->
     <g style="fill: #ff0000" transform="translate(52.970275 301.658391)scale(0.125 -0.125)">
      <use xlink:href="#DejaVuSans-31"/>
     </g>
    </g>
   </g>
   <g id="patch_5">
    <path d="M 160.4244 240.865 
C 161.033041 240.865 161.616836 240.623184 162.04721 240.19281 
C 162.477584 239.762436 162.7194 239.178641 162.7194 238.57 
C 162.7194 237.961359 162.477584 237.377564 162.04721 236.94719 
C 161.616836 236.516816 161.033041 236.275 160.4244 236.275 
C 159.815759 236.275 159.231964 236.516816 158.80159 236.94719 
C 158.371216 237.377564 158.1294 237.961359 158.1294 238.57 
C 158.1294 239.178641 158.371216 239.762436 158.80159 240.19281 
C 159.231964 240.623184 159.815759 240.865 160.4244 240.865 
z
" clip-path="url(#p80b0af6ddf)" style="fill: #ff0000; stroke: #ff0000; stroke-width: 2; stroke-linejoin: miter"/>
   </g>
   <g id="text_10">
    <g clip-path="url(#p80b0af6ddf)">
     <!-- 2 -->
     <g style="fill: #ff0000" transform="translate(167.771275 257.390391)scale(0.125 -0.125)">
      <defs>
       <path id="DejaVuSans-32" d="M 1228 531 
L 3431 531 
L 3431 0 
L 469 0 
L 469 531 
Q 828 903 1448 1529 
Q 2069 2156 2228 2338 
Q 2531 2678 2651 2914 
Q 2772 3150 2772 3378 
Q 2772 3750 2511 3984 
Q 2250 4219 1831 4219 
Q 1534 4219 1204 4116 
Q 875 4013 500 3803 
L 500 4441 
Q 881 4594 1212 4672 
Q 1544 4750 1819 4750 
Q 2544 4750 2975 4387 
Q 3406 4025 3406 3419 
Q 3406 3131 3298 2873 
Q 3191 2616 2906 2266 
Q 2828 2175 2409 1742 
Q 1991 1309 1228 531 
z
" transform="scale(0.015625)"/>
      </defs>
      <use xlink:href="#DejaVuSans-32"/>
     </g>
    </g>
   </g>
   <g id="patch_6">
    <path d="M 122.1744 149.065 
C 122.783041 149.065 123.366836 148.823184 123.79721 148.39281 
C 124.227584 147.962436 124.4694 147.378641 124.4694 146.77 
C 124.4694 146.161359 124.227584 145.577564 123.79721 145.14719 
C 123.366836 144.716816 122.783041 144.475 122.1744 144.475 
C 121.565759 144.475 120.981964 144.716816 120.55159 145.14719 
C 120.121216 145.577564 119.8794 146.161359 119.8794 146.77 
C 119.8794 147.378641 120.121216 147.962436 120.55159 148.39281 
C 120.981964 148.823184 121.565759 149.065 122.1744 149.065 
z
" clip-path="url(#p80b0af6ddf)" style="fill: #ff0000; stroke: #ff0000; stroke-width: 2; stroke-linejoin: miter"/>
   </g>
   <g id="text_11">
    <g clip-path="url(#p80b0af6ddf)">
     <!-- 5 -->
     <g style="fill: #ff0000" transform="translate(129.521275 165.590391)scale(0.125 -0.125)">
      <defs>
       <path id="DejaVuSans-35" d="M 691 4666 
L 3169 4666 
L 3169 4134 
L 1269 4134 
L 1269 2991 
Q 1406 3038 1543 3061 
Q 1681 3084 1819 3084 
Q 2600 3084 3056 2656 
Q 3513 2228 3513 1497 
Q 3513 744 3044 326 
Q 2575 -91 1722 -91 
Q 1428 -91 1123 -41 
Q 819 9 494 109 
L 494 744 
Q 775 591 1075 516 
Q 1375 441 1709 441 
Q 2250 441 2565 725 
Q 2881 1009 2881 1497 
Q 2881 1984 2565 2268 
Q 2250 2553 1709 2553 
Q 1456 2553 1204 2497 
Q 953 2441 691 2322 
L 691 4666 
z
" transform="scale(0.015625)"/>
      </defs>
      <use xlink:href="#DejaVuSans-35"/>
     </g>
    </g>
   </g>
   <g id="patch_7">
    <path d="M 213.9744 149.065 
C 214.583041 149.065 215.166836 148.823184 215.59721 148.39281 
C 216.027584 147.962436 216.2694 147.378641 216.2694 146.77 
C 216.2694 146.161359 216.027584 145.577564 215.59721 145.14719 
C 215.166836 144.716816 214.583041 144.475 213.9744 144.475 
C 213.365759 144.475 212.781964 144.716816 212.35159 145.14719 
C 211.921216 145.577564 211.6794 146.161359 211.6794 146.77 
C 211.6794 147.378641 211.921216 147.962436 212.35159 148.39281 
C 212.781964 148.823184 213.365759 149.065 213.9744 149.065 
z
" clip-path="url(#p80b0af6ddf)" style="fill: #ffffff; stroke: #000000; stroke-width: 2; stroke-linejoin: miter"/>
   </g>
   <g id="text_12">
    <g clip-path="url(#p80b0af6ddf)">
     <!-- $v_{out}$ -->
     <g transform="translate(219.3294 150.219219)scale(0.125 -0.125)">
      <defs>
       <path id="DejaVuSans-Oblique-76" d="M 459 3500 
L 1069 3500 
L 1581 525 
L 3256 3500 
L 3866 3500 
L 1875 0 
L 1100 0 
L 459 3500 
z
" transform="scale(0.015625)"/>
       <path id="DejaVuSans-Oblique-6f" d="M 1625 -91 
Q 1009 -91 651 289 
Q 294 669 294 1325 
Q 294 1706 417 2101 
Q 541 2497 738 2766 
Q 1047 3184 1428 3384 
Q 1809 3584 2291 3584 
Q 2888 3584 3255 3212 
Q 3622 2841 3622 2241 
Q 3622 1825 3500 1412 
Q 3378 1000 3181 728 
Q 2875 309 2494 109 
Q 2113 -91 1625 -91 
z
M 891 1344 
Q 891 869 1089 633 
Q 1288 397 1691 397 
Q 2269 397 2648 901 
Q 3028 1406 3028 2181 
Q 3028 2634 2825 2865 
Q 2622 3097 2228 3097 
Q 1903 3097 1650 2945 
Q 1397 2794 1197 2484 
Q 1050 2253 970 1956 
Q 891 1659 891 1344 
z
" transform="scale(0.015625)"/>
       <path id="DejaVuSans-Oblique-75" d="M 428 1388 
L 838 3500 
L 1416 3500 
L 1006 1409 
Q 975 1256 961 1147 
Q 947 1038 947 966 
Q 947 700 1109 554 
Q 1272 409 1569 409 
Q 2031 409 2368 721 
Q 2706 1034 2809 1563 
L 3194 3500 
L 3769 3500 
L 3091 0 
L 2516 0 
L 2631 550 
Q 2388 244 2052 76 
Q 1716 -91 1338 -91 
Q 878 -91 622 161 
Q 366 413 366 863 
Q 366 956 381 1097 
Q 397 1238 428 1388 
z
" transform="scale(0.015625)"/>
       <path id="DejaVuSans-Oblique-74" d="M 2706 3500 
L 2619 3053 
L 1472 3053 
L 1100 1153 
Q 1081 1047 1072 975 
Q 1063 903 1063 863 
Q 1063 663 1183 572 
Q 1303 481 1569 481 
L 2150 481 
L 2053 0 
L 1503 0 
Q 991 0 739 200 
Q 488 400 488 806 
Q 488 878 497 964 
Q 506 1050 525 1153 
L 897 3053 
L 409 3053 
L 500 3500 
L 978 3500 
L 1172 4494 
L 1747 4494 
L 1556 3500 
L 2706 3500 
z
" transform="scale(0.015625)"/>
      </defs>
      <use xlink:href="#DejaVuSans-Oblique-76" transform="translate(0 0.3125)"/>
      <use xlink:href="#DejaVuSans-Oblique-6f" transform="translate(59.179688 -16.09375)scale(0.7)"/>
      <use xlink:href="#DejaVuSans-Oblique-75" transform="translate(102.006836 -16.09375)scale(0.7)"/>
      <use xlink:href="#DejaVuSans-Oblique-74" transform="translate(146.37207 -16.09375)scale(0.7)"/>
     </g>
    </g>
   </g>
   <g id="patch_8">
    <path d="M 160.4244 57.265 
C 161.033041 57.265 161.616836 57.023184 162.04721 56.59281 
C 162.477584 56.162436 162.7194 55.578641 162.7194 54.97 
C 162.7194 54.361359 162.477584 53.777564 162.04721 53.34719 
C 161.616836 52.916816 161.033041 52.675 160.4244 52.675 
C 159.815759 52.675 159.231964 52.916816 158.80159 53.34719 
C 158.371216 53.777564 158.1294 54.361359 158.1294 54.97 
C 158.1294 55.578641 158.371216 56.162436 158.80159 56.59281 
C 159.231964 57.023184 159.815759 57.265 160.4244 57.265 
z
" clip-path="url(#p80b0af6ddf)" style="fill: #ff0000; stroke: #ff0000; stroke-width: 2; stroke-linejoin: miter"/>
   </g>
   <g id="text_13">
    <g clip-path="url(#p80b0af6ddf)">
     <!-- 3 -->
     <g style="fill: #ff0000" transform="translate(167.771275 73.790391)scale(0.125 -0.125)">
      <use xlink:href="#DejaVuSans-33"/>
     </g>
    </g>
   </g>
  </g>
 </g>
 <defs>
  <clipPath id="p80b0af6ddf">
   <rect x="7.2" y="7.2" width="253.2762" height="390.082"/>
  </clipPath>
 </defs>
</svg>