<?xml version="1.0" encoding="utf-8" standalone="no"?>
<!DOCTYPE svg PUBLIC "-//W3C//DTD SVG 1.1//EN"
  "http://www.w3.org/Graphics/SVG/1.1/DTD/svg11.dtd">
<svg xmlns:xlink="http://www.w3.org/1999/xlink" width="401.36pt" height="151.338884pt" viewBox="0 0 401.36 151.338884" xmlns="http://www.w3.org/2000/svg" version="1.1">
 <metadata>
  <rdf:RDF xmlns:dc="http://purl.org/dc/elements/1.1/" xmlns:cc="http://creativecommons.org/ns#" xmlns:rdf="http://www.w3.org/1999/02/22-rdf-syntax-ns#">
   <cc:Work>
    <dc:type rdf:resource="http://purl.org/dc/dcmitype/StillImage"/>
    <dc:date>2025-11-29T22:11:23.082897</dc:date>
    <dc:format>image/svg+xml</dc:format>
    <dc:creator>
     <cc:Agent>
      <dc:title>Matplotlib v3.10.8, https://matplotlib.org/</dc:title>
     </cc:Agent>
    </dc:creator>
   </cc:Work>
  </rdf:RDF>
 </metadata>
 <defs>
  <style type="text/css">*{stroke-linejoin: round; stroke-linecap: butt}</style>
 </defs>
 <g id="figure_1">
  <g id="patch_1">
   <path d="M 0 151.338884 
L 401.36 151.338884 
L 401.36 0 
L 0 0 
z
" style="fill: #ffffff"/>
  </g>
  <g id="axes_1">
   <g id="line2d_1">
    <path d="M 22.68 35.958884 
L 40.68 35.958884 
L 58.68 35.958884 
" clip-path="url(#p4a3c484620)" style="fill: none; stroke: #000000; stroke-width: 2; stroke-linecap: round"/>
   </g>
   <g id="line2d_2">
    <path d="M 58.68 35.958884 
L 85.68 35.958884 
L 85.81407 32.994698 
L 86.22176 30.003778 
L 86.894001 27.236968 
L 87.799538 24.926316 
L 88.324567 24.004576 
L 88.887547 23.265613 
L 89.479767 22.725003 
L 90.091902 22.394141 
L 90.714207 22.28 
L 91.33672 22.384987 
L 91.949478 22.706888 
L 92.542723 23.23892 
L 93.107106 23.969866 
L 93.633888 24.884321 
L 94.543825 27.183193 
L 95.221342 29.942734 
L 95.63474 32.931505 
L 95.774472 35.898842 
L 95.653942 38.595879 
L 95.308382 40.79642 
L 94.791898 42.315908 
L 94.490537 42.777873 
L 94.172928 43.026908 
L 93.848923 43.057763 
L 93.528509 42.869788 
L 93.221597 42.466945 
L 92.686292 41.05497 
L 92.313029 38.940259 
L 92.158236 36.300169 
L 92.260019 33.35612 
L 92.634963 30.355026 
L 93.276748 27.548584 
L 94.156671 25.172165 
L 94.671402 24.209391 
L 95.226057 23.425076 
L 95.812102 22.835753 
L 96.420342 22.453843 
L 97.041113 22.287397 
L 97.664487 22.339922 
L 98.280482 22.610312 
L 98.879271 23.092867 
L 99.45139 23.777416 
L 99.987935 24.64953 
L 100.922621 26.879355 
L 101.63006 29.595331 
L 102.076046 32.569673 
L 102.248297 35.552928 
L 102.15749 38.294894 
L 101.836365 40.565607 
L 101.336977 42.174626 
L 101.040936 42.686316 
L 100.726332 42.987005 
L 100.402952 43.070355 
L 100.080768 42.93461 
L 99.769731 42.582631 
L 99.479551 42.021836 
L 98.998228 40.325237 
L 98.702289 37.987103 
L 98.641678 35.203529 
L 98.846602 32.207971 
L 99.324998 29.251661 
L 100.061866 26.582539 
L 101.020531 24.424462 
L 101.566371 23.595746 
L 102.145713 22.958424 
L 102.749502 22.52593 
L 103.368169 22.307379 
L 103.991831 22.307379 
L 104.610498 22.52593 
L 105.214287 22.958424 
L 105.793629 23.595746 
L 106.339469 24.424462 
L 106.84346 25.427105 
L 107.697065 27.866412 
L 108.307979 30.709087 
L 108.650087 33.716719 
L 108.719821 36.637063 
L 108.536457 39.225193 
L 108.140496 41.264048 
L 107.590269 42.582631 
L 107.279232 42.93461 
L 106.957048 43.070355 
L 106.633668 42.987005 
L 106.319064 42.686316 
L 106.023023 42.174626 
L 105.523635 40.565607 
L 105.20251 38.294894 
L 105.111703 35.552928 
L 105.283954 32.569673 
L 105.72994 29.595331 
L 106.437379 26.879355 
L 107.372065 24.64953 
L 107.90861 23.777416 
L 108.480729 23.092867 
L 109.079518 22.610312 
L 109.695513 22.339922 
L 110.318887 22.287397 
L 110.939658 22.453843 
L 111.547898 22.835753 
L 112.133943 23.425076 
L 112.688598 24.209391 
L 113.203329 25.172165 
L 114.083252 27.548584 
L 114.725037 30.355026 
L 115.099981 33.35612 
L 115.201764 36.300169 
L 115.046971 38.940259 
L 114.673708 41.05497 
L 114.138403 42.466945 
L 113.831491 42.869788 
L 113.511077 43.057763 
L 113.187072 43.026908 
L 112.869463 42.777873 
L 112.568102 42.315908 
L 112.051618 40.79642 
L 111.706058 38.595879 
L 111.585528 35.898842 
L 111.72526 32.931505 
L 112.138658 29.942734 
L 112.816175 27.183193 
L 113.726112 24.884321 
L 114.252894 23.969866 
L 114.817277 23.23892 
L 115.410522 22.706888 
L 116.02328 22.384987 
L 116.645793 22.28 
L 117.268098 22.394141 
L 117.880233 22.725003 
L 118.472453 23.265613 
L 119.035433 24.004576 
L 119.560462 24.926316 
L 120.465999 27.236968 
L 121.13824 30.003778 
L 121.54593 32.994698 
L 121.68 35.958884 
L 148.68 35.958884 
L 148.68 35.958884 
" clip-path="url(#p4a3c484620)" style="fill: none; stroke: #000000; stroke-width: 2; stroke-linecap: round"/>
   </g>
   <g id="line2d_3">
    <path d="M 148.68 35.958884 
L 166.68 35.958884 
L 169.68 26.958884 
L 175.68 44.958884 
L 181.68 26.958884 
L 187.68 44.958884 
L 193.68 26.958884 
L 199.68 44.958884 
L 202.68 35.958884 
L 220.68 35.958884 
" clip-path="url(#p4a3c484620)" style="fill: none; stroke: #000000; stroke-width: 2; stroke-linecap: round"/>
   </g>
   <g id="line2d_4">
    <path d="M 220.68 35.958884 
L 220.68 86.718884 
M 229.68 86.718884 
L 211.68 86.718884 
M 229.68 93.198884 
L 211.68 93.198884 
M 220.68 93.198884 
L 220.68 143.958884 
" clip-path="url(#p4a3c484620)" style="fill: none; stroke: #000000; stroke-width: 2; stroke-linecap: round"/>
   </g>
   <g id="line2d_5">
    <path d="M 220.68 35.958884 
L 238.68 35.958884 
L 256.68 35.958884 
" clip-path="url(#p4a3c484620)" style="fill: none; stroke: #000000; stroke-width: 2; stroke-linecap: round"/>
   </g>
   <g id="line2d_6">
    <path d="M 256.68 35.958884 
L 256.68 71.958884 
L 265.68 74.958884 
L 247.68 80.958884 
L 265.68 86.958884 
L 247.68 92.958884 
L 265.68 98.958884 
L 247.68 104.958884 
L 256.68 107.958884 
L 256.68 143.958884 
" clip-path="url(#p4a3c484620)" style="fill: none; stroke: #000000; stroke-width: 2; stroke-linecap: round"/>
   </g>
   <g id="line2d_7">
    <path d="M 256.68 143.958884 
L 139.68 143.958884 
L 22.68 143.958884 
" clip-path="url(#p4a3c484620)" style="fill: none; stroke: #000000; stroke-width: 2; stroke-linecap: round"/>
   </g>
   <g id="line2d_8">
    <path d="M 256.68 143.958884 
L 310.68 143.958884 
L 364.68 143.958884 
" clip-path="url(#p4a3c484620)" style="fill: none; stroke: #000000; stroke-width: 2; stroke-linecap: round"/>
   </g>
   <g id="line2d_9">
    <path d="M 256.68 35.958884 
L 292.68 35.958884 
L 328.68 35.958884 
" clip-path="url(#p4a3c484620)" style="fill: none; stroke: #000000; stroke-width: 2; stroke-linecap: round"/>
   </g>
   <g id="line2d_10">
    <path d="M 328.68 35.958884 
L 346.68 35.958884 
L 364.68 35.958884 
" clip-path="url(#p4a3c484620)" style="fill: none; stroke: #000000; stroke-width: 2; stroke-linecap: round"/>
   </g>
   <g id="line2d_11">
    <path d="M 4.68 30.558884 
L 65.88 30.558884 
" clip-path="url(#p4a3c484620)" style="fill: none; stroke: #0000ff; stroke-width: 2; stroke-linecap: round"/>
   </g>
   <g id="patch_2">
    <path d="M 65.88 26.958884 
L 76.68 30.558884 
L 65.88 34.158884 
z
" clip-path="url(#p4a3c484620)" style="fill: #0000ff"/>
   </g>
   <g id="line2d_12">
    <path d="M 310.68 30.558884 
L 371.88 30.558884 
" clip-path="url(#p4a3c484620)" style="fill: none; stroke: #0000ff; stroke-width: 2; stroke-linecap: round"/>
   </g>
   <g id="patch_3">
    <path d="M 371.88 26.958884 
L 382.68 30.558884 
L 371.88 34.158884 
z
" clip-path="url(#p4a3c484620)" style="fill: #0000ff"/>
   </g>
   <g id="text_1">
    <!-- $L \Delta z$ -->
    <g transform="translate(91.29 15.768437) scale(0.14 -0.14)">
     <defs>
      <path id="DejaVuSans-Oblique-4c" d="M 1075 4666 
L 1709 4666 
L 909 525 
L 3181 525 
L 3078 0 
L 172 0 
L 1075 4666 
z
" transform="scale(0.015625)"/>
      <path id="DejaVuSans-394" d="M 2188 4044 
L 906 525 
L 3472 525 
L 2188 4044 
z
M 50 0 
L 1831 4666 
L 2547 4666 
L 4325 0 
L 50 0 
z
" transform="scale(0.015625)"/>
      <path id="DejaVuSans-Oblique-7a" d="M 744 3500 
L 3475 3500 
L 3372 2975 
L 738 459 
L 2913 459 
L 2822 0 
L -19 0 
L 84 525 
L 2719 3041 
L 653 3041 
L 744 3500 
z
" transform="scale(0.015625)"/>
     </defs>
     <use xlink:href="#DejaVuSans-Oblique-4c" transform="translate(0 0.09375)"/>
     <use xlink:href="#DejaVuSans-394" transform="translate(55.712891 0.09375)"/>
     <use xlink:href="#DejaVuSans-Oblique-7a" transform="translate(124.121094 0.09375)"/>
    </g>
   </g>
   <g id="text_2">
    <!-- $R \Delta z$ -->
    <g transform="translate(171.31 20.447322) scale(0.14 -0.14)">
     <defs>
      <path id="DejaVuSans-Oblique-52" d="M 1613 4147 
L 1294 2491 
L 2106 2491 
Q 2584 2491 2879 2755 
Q 3175 3019 3175 3444 
Q 3175 3784 2976 3965 
Q 2778 4147 2406 4147 
L 1613 4147 
z
M 2772 2241 
Q 2972 2194 3105 2009 
Q 3238 1825 3413 1275 
L 3809 0 
L 3144 0 
L 2778 1197 
Q 2638 1659 2453 1815 
Q 2269 1972 1888 1972 
L 1191 1972 
L 806 0 
L 172 0 
L 1081 4666 
L 2503 4666 
Q 3150 4666 3495 4373 
Q 3841 4081 3841 3531 
Q 3841 3044 3547 2687 
Q 3253 2331 2772 2241 
z
" transform="scale(0.015625)"/>
     </defs>
     <use xlink:href="#DejaVuSans-Oblique-52" transform="translate(0 0.09375)"/>
     <use xlink:href="#DejaVuSans-394" transform="translate(69.482422 0.09375)"/>
     <use xlink:href="#DejaVuSans-Oblique-7a" transform="translate(137.890625 0.09375)"/>
    </g>
   </g>
   <g id="text_3">
    <!-- $C \Delta z$ -->
    <g transform="translate(181.34 93.822009) scale(0.14 -0.14)">
     <defs>
      <path id="DejaVuSans-Oblique-43" d="M 4447 4306 
L 4319 3641 
Q 4019 3944 3683 4091 
Q 3347 4238 2956 4238 
Q 2422 4238 2017 3981 
Q 1613 3725 1319 3200 
Q 1131 2863 1032 2486 
Q 934 2109 934 1728 
Q 934 1091 1264 756 
Q 1594 422 2222 422 
Q 2656 422 3056 561 
Q 3456 700 3834 978 
L 3688 231 
Q 3316 72 2936 -9 
Q 2556 -91 2175 -91 
Q 1278 -91 773 396 
Q 269 884 269 1753 
Q 269 2309 461 2846 
Q 653 3384 1013 3828 
Q 1394 4300 1883 4525 
Q 2372 4750 3022 4750 
Q 3422 4750 3780 4639 
Q 4138 4528 4447 4306 
z
" transform="scale(0.015625)"/>
     </defs>
     <use xlink:href="#DejaVuSans-Oblique-43" transform="translate(0 0.78125)"/>
     <use xlink:href="#DejaVuSans-394" transform="translate(69.824219 0.78125)"/>
     <use xlink:href="#DejaVuSans-Oblique-7a" transform="translate(138.232422 0.78125)"/>
    </g>
   </g>
   <g id="text_4">
    <!-- $g \Delta z$ -->
    <g transform="translate(269.28 93.793572) scale(0.14 -0.14)">
     <defs>
      <path id="DejaVuSans-Oblique-67" d="M 3816 3500 
L 3219 434 
Q 3047 -456 2561 -893 
Q 2075 -1331 1253 -1331 
Q 950 -1331 690 -1286 
Q 431 -1241 206 -1147 
L 313 -588 
Q 525 -725 762 -790 
Q 1000 -856 1269 -856 
Q 1816 -856 2167 -557 
Q 2519 -259 2631 300 
L 2681 563 
Q 2441 288 2122 144 
Q 1803 0 1434 0 
Q 903 0 598 351 
Q 294 703 294 1319 
Q 294 1803 478 2267 
Q 663 2731 997 3091 
Q 1219 3328 1514 3456 
Q 1809 3584 2131 3584 
Q 2484 3584 2746 3420 
Q 3009 3256 3138 2956 
L 3238 3500 
L 3816 3500 
z
M 2950 2216 
Q 2950 2641 2750 2872 
Q 2550 3103 2181 3103 
Q 1953 3103 1747 3012 
Q 1541 2922 1394 2759 
Q 1156 2491 1023 2127 
Q 891 1763 891 1375 
Q 891 944 1092 712 
Q 1294 481 1672 481 
Q 2219 481 2584 976 
Q 2950 1472 2950 2216 
z
" transform="scale(0.015625)"/>
     </defs>
     <use xlink:href="#DejaVuSans-Oblique-67" transform="translate(0 0.09375)"/>
     <use xlink:href="#DejaVuSans-394" transform="translate(63.476562 0.09375)"/>
     <use xlink:href="#DejaVuSans-Oblique-7a" transform="translate(131.884766 0.09375)"/>
    </g>
   </g>
   <g id="text_5">
    <!-- $i(z,t)$ -->
    <g style="fill: #0000ff" transform="translate(23.25 16.847322) scale(0.14 -0.14)">
     <defs>
      <path id="DejaVuSans-Oblique-69" d="M 1172 4863 
L 1747 4863 
L 1606 4134 
L 1031 4134 
L 1172 4863 
z
M 909 3500 
L 1484 3500 
L 800 0 
L 225 0 
L 909 3500 
z
" transform="scale(0.015625)"/>
      <path id="DejaVuSans-28" d="M 1984 4856 
Q 1566 4138 1362 3434 
Q 1159 2731 1159 2009 
Q 1159 1288 1364 580 
Q 1569 -128 1984 -844 
L 1484 -844 
Q 1016 -109 783 600 
Q 550 1309 550 2009 
Q 550 2706 781 3412 
Q 1013 4119 1484 4856 
L 1984 4856 
z
" transform="scale(0.015625)"/>
      <path id="DejaVuSans-2c" d="M 750 794 
L 1409 794 
L 1409 256 
L 897 -744 
L 494 -744 
L 750 256 
L 750 794 
z
" transform="scale(0.015625)"/>
      <path id="DejaVuSans-Oblique-74" d="M 2706 3500 
L 2619 3053 
L 1472 3053 
L 1100 1153 
Q 1081 1047 1072 975 
Q 1063 903 1063 863 
Q 1063 663 1183 572 
Q 1303 481 1569 481 
L 2150 481 
L 2053 0 
L 1503 0 
Q 991 0 739 200 
Q 488 400 488 806 
Q 488 878 497 964 
Q 506 1050 525 1153 
L 897 3053 
L 409 3053 
L 500 3500 
L 978 3500 
L 1172 4494 
L 1747 4494 
L 1556 3500 
L 2706 3500 
z
" transform="scale(0.015625)"/>
      <path id="DejaVuSans-29" d="M 513 4856 
L 1013 4856 
Q 1481 4119 1714 3412 
Q 1947 2706 1947 2009 
Q 1947 1309 1714 600 
Q 1481 -109 1013 -844 
L 513 -844 
Q 928 -128 1133 580 
Q 1338 1288 1338 2009 
Q 1338 2731 1133 3434 
Q 928 4138 513 4856 
z
" transform="scale(0.015625)"/>
     </defs>
     <use xlink:href="#DejaVuSans-Oblique-69" transform="translate(0 0.015625)"/>
     <use xlink:href="#DejaVuSans-28" transform="translate(27.783203 0.015625)"/>
     <use xlink:href="#DejaVuSans-Oblique-7a" transform="translate(66.796875 0.015625)"/>
     <use xlink:href="#DejaVuSans-2c" transform="translate(119.287109 0.015625)"/>
     <use xlink:href="#DejaVuSans-Oblique-74" transform="translate(170.556641 0.015625)"/>
     <use xlink:href="#DejaVuSans-29" transform="translate(209.765625 0.015625)"/>
    </g>
   </g>
   <g id="text_6">
    <!-- $i(z + \Delta z,t)$ -->
    <g style="fill: #0000ff" transform="translate(312.17 16.847322) scale(0.14 -0.14)">
     <defs>
      <path id="DejaVuSans-2b" d="M 2944 4013 
L 2944 2272 
L 4684 2272 
L 4684 1741 
L 2944 1741 
L 2944 0 
L 2419 0 
L 2419 1741 
L 678 1741 
L 678 2272 
L 2419 2272 
L 2419 4013 
L 2944 4013 
z
" transform="scale(0.015625)"/>
     </defs>
     <use xlink:href="#DejaVuSans-Oblique-69" transform="translate(0 0.015625)"/>
     <use xlink:href="#DejaVuSans-28" transform="translate(27.783203 0.015625)"/>
     <use xlink:href="#DejaVuSans-Oblique-7a" transform="translate(66.796875 0.015625)"/>
     <use xlink:href="#DejaVuSans-2b" transform="translate(138.769531 0.015625)"/>
     <use xlink:href="#DejaVuSans-394" transform="translate(242.041016 0.015625)"/>
     <use xlink:href="#DejaVuSans-Oblique-7a" transform="translate(310.449219 0.015625)"/>
     <use xlink:href="#DejaVuSans-2c" transform="translate(362.939453 0.015625)"/>
     <use xlink:href="#DejaVuSans-Oblique-74" transform="translate(414.208984 0.015625)"/>
     <use xlink:href="#DejaVuSans-29" transform="translate(453.417969 0.015625)"/>
    </g>
   </g>
   <g id="text_7">
    <!-- - -->
    <g style="fill: #ff0000" transform="translate(20.154531 120.822009) scale(0.14 -0.14)">
     <defs>
      <path id="DejaVuSans-2d" d="M 313 2009 
L 1997 2009 
L 1997 1497 
L 313 1497 
L 313 2009 
z
" transform="scale(0.015625)"/>
     </defs>
     <use xlink:href="#DejaVuSans-2d"/>
    </g>
   </g>
   <g id="text_8">
    <!-- $v(z,t)$ -->
    <g style="fill: #ff0000" transform="translate(3.01 93.822009) scale(0.14 -0.14)">
     <defs>
      <path id="DejaVuSans-Oblique-76" d="M 459 3500 
L 1069 3500 
L 1581 525 
L 3256 3500 
L 3866 3500 
L 1875 0 
L 1100 0 
L 459 3500 
z
" transform="scale(0.015625)"/>
     </defs>
     <use xlink:href="#DejaVuSans-Oblique-76" transform="translate(0 0.125)"/>
     <use xlink:href="#DejaVuSans-28" transform="translate(59.179688 0.125)"/>
     <use xlink:href="#DejaVuSans-Oblique-7a" transform="translate(98.193359 0.125)"/>
     <use xlink:href="#DejaVuSans-2c" transform="translate(150.683594 0.125)"/>
     <use xlink:href="#DejaVuSans-Oblique-74" transform="translate(201.953125 0.125)"/>
     <use xlink:href="#DejaVuSans-29" transform="translate(241.162109 0.125)"/>
    </g>
   </g>
   <g id="text_9">
    <!-- + -->
    <g style="fill: #ff0000" transform="translate(16.814219 66.822009) scale(0.14 -0.14)">
     <use xlink:href="#DejaVuSans-2b"/>
    </g>
   </g>
   <g id="text_10">
    <!-- - -->
    <g style="fill: #ff0000" transform="translate(362.154531 120.822009) scale(0.14 -0.14)">
     <use xlink:href="#DejaVuSans-2d"/>
    </g>
   </g>
   <g id="text_11">
    <!-- $v(z + \Delta z,t)$ -->
    <g style="fill: #ff0000" transform="translate(328 93.822009) scale(0.14 -0.14)">
     <use xlink:href="#DejaVuSans-Oblique-76" transform="translate(0 0.125)"/>
     <use xlink:href="#DejaVuSans-28" transform="translate(59.179688 0.125)"/>
     <use xlink:href="#DejaVuSans-Oblique-7a" transform="translate(98.193359 0.125)"/>
     <use xlink:href="#DejaVuSans-2b" transform="translate(170.166016 0.125)"/>
     <use xlink:href="#DejaVuSans-394" transform="translate(273.4375 0.125)"/>
     <use xlink:href="#DejaVuSans-Oblique-7a" transform="translate(341.845703 0.125)"/>
     <use xlink:href="#DejaVuSans-2c" transform="translate(394.335938 0.125)"/>
     <use xlink:href="#DejaVuSans-Oblique-74" transform="translate(445.605469 0.125)"/>
     <use xlink:href="#DejaVuSans-29" transform="translate(484.814453 0.125)"/>
    </g>
   </g>
   <g id="text_12">
    <!-- + -->
    <g style="fill: #ff0000" transform="translate(358.814219 66.822009) scale(0.14 -0.14)">
     <use xlink:href="#DejaVuSans-2b"/>
    </g>
   </g>
   <g id="patch_4">
    <path d="M 22.68 38.658884 
C 23.396048 38.658884 24.082866 38.374395 24.589188 37.868073 
C 25.095511 37.36175 25.38 36.674933 25.38 35.958884 
C 25.38 35.242836 25.095511 34.556019 24.589188 34.049696 
C 24.082866 33.543374 23.396048 33.258884 22.68 33.258884 
C 21.963952 33.258884 21.277134 33.543374 20.770812 34.049696 
C 20.264489 34.556019 19.98 35.242836 19.98 35.958884 
C 19.98 36.674933 20.264489 37.36175 20.770812 37.868073 
C 21.277134 38.374395 21.963952 38.658884 22.68 38.658884 
z
" clip-path="url(#p4a3c484620)" style="stroke: #000000; stroke-width: 2; stroke-linejoin: miter"/>
   </g>
   <g id="patch_5">
    <path d="M 22.68 146.658884 
C 23.396048 146.658884 24.082866 146.374395 24.589188 145.868073 
C 25.095511 145.36175 25.38 144.674933 25.38 143.958884 
C 25.38 143.242836 25.095511 142.556019 24.589188 142.049696 
C 24.082866 141.543374 23.396048 141.258884 22.68 141.258884 
C 21.963952 141.258884 21.277134 141.543374 20.770812 142.049696 
C 20.264489 142.556019 19.98 143.242836 19.98 143.958884 
C 19.98 144.674933 20.264489 145.36175 20.770812 145.868073 
C 21.277134 146.374395 21.963952 146.658884 22.68 146.658884 
z
" clip-path="url(#p4a3c484620)" style="stroke: #000000; stroke-width: 2; stroke-linejoin: miter"/>
   </g>
   <g id="patch_6">
    <path d="M 364.68 146.658884 
C 365.396048 146.658884 366.082866 146.374395 366.589188 145.868073 
C 367.095511 145.36175 367.38 144.674933 367.38 143.958884 
C 367.38 143.242836 367.095511 142.556019 366.589188 142.049696 
C 366.082866 141.543374 365.396048 141.258884 364.68 141.258884 
C 363.963952 141.258884 363.277134 141.543374 362.770812 142.049696 
C 362.264489 142.556019 361.98 143.242836 361.98 143.958884 
C 361.98 144.674933 362.264489 145.36175 362.770812 145.868073 
C 363.277134 146.374395 363.963952 146.658884 364.68 146.658884 
z
" clip-path="url(#p4a3c484620)" style="stroke: #000000; stroke-width: 2; stroke-linejoin: miter"/>
   </g>
   <g id="patch_7">
    <path d="M 364.68 38.658884 
C 365.396048 38.658884 366.082866 38.374395 366.589188 37.868073 
C 367.095511 37.36175 367.38 36.674933 367.38 35.958884 
C 367.38 35.242836 367.095511 34.556019 366.589188 34.049696 
C 366.082866 33.543374 365.396048 33.258884 364.68 33.258884 
C 363.963952 33.258884 363.277134 33.543374 362.770812 34.049696 
C 362.264489 34.556019 361.98 35.242836 361.98 35.958884 
C 361.98 36.674933 362.264489 37.36175 362.770812 37.868073 
C 363.277134 38.374395 363.963952 38.658884 364.68 38.658884 
z
" clip-path="url(#p4a3c484620)" style="stroke: #000000; stroke-width: 2; stroke-linejoin: miter"/>
   </g>
  </g>
 </g>
 <defs>
  <clipPath id="p4a3c484620">
   <rect x="0" y="0" width="401.112" height="151.338884"/>
  </clipPath>
 </defs>
</svg>