<?xml version="1.0" encoding="utf-8" standalone="no"?>
<!DOCTYPE svg PUBLIC "-//W3C//DTD SVG 1.1//EN"
  "http://www.w3.org/Graphics/SVG/1.1/DTD/svg11.dtd">
<svg xmlns:xlink="http://www.w3.org/1999/xlink" width="180.728884pt" height="189.217656pt" viewBox="0 0 180.728884 189.217656" xmlns="http://www.w3.org/2000/svg" version="1.1">
 <metadata>
  <rdf:RDF xmlns:dc="http://purl.org/dc/elements/1.1/" xmlns:cc="http://creativecommons.org/ns#" xmlns:rdf="http://www.w3.org/1999/02/22-rdf-syntax-ns#">
   <cc:Work>
    <dc:type rdf:resource="http://purl.org/dc/dcmitype/StillImage"/>
    <dc:date>2023-09-25T18:00:22.693046</dc:date>
    <dc:format>image/svg+xml</dc:format>
    <dc:creator>
     <cc:Agent>
      <dc:title>Matplotlib v3.6.3, https://matplotlib.org/</dc:title>
     </cc:Agent>
    </dc:creator>
   </cc:Work>
  </rdf:RDF>
 </metadata>
 <defs>
  <style type="text/css">*{stroke-linejoin: round; stroke-linecap: butt}</style>
 </defs>
 <g id="figure_1">
  <g id="patch_1">
   <path d="M 0 189.217656 
L 180.728884 189.217656 
L 180.728884 0 
L 0 0 
z
" style="fill: #ffffff"/>
  </g>
  <g id="axes_1">
   <g id="line2d_1">
    <path d="M 72.878884 177.697656 
L 72.878884 164.197656 
L 72.878884 150.697656 
" clip-path="url(#p7d44a4b331)" style="fill: none; stroke: #000000; stroke-width: 2; stroke-linecap: round"/>
   </g>
   <g id="line2d_2">
    <path d="M 72.878884 150.697656 
L 72.878884 99.937656 
M 63.878884 99.937656 
L 81.878884 99.937656 
M 63.878884 93.457656 
L 81.878884 93.457656 
M 72.878884 93.457656 
L 72.878884 42.697656 
" clip-path="url(#p7d44a4b331)" style="fill: none; stroke: #000000; stroke-width: 2; stroke-linecap: round"/>
   </g>
   <g id="line2d_3">
    <path d="M 72.878884 150.697656 
L 50.378884 150.697656 
L 27.878884 150.697656 
" clip-path="url(#p7d44a4b331)" style="fill: none; stroke: #000000; stroke-width: 2; stroke-linecap: round"/>
   </g>
   <g id="line2d_4">
    <path d="M 27.878884 150.697656 
L 27.878884 114.697656 
L 24.914698 114.563587 
L 21.923778 114.155897 
L 19.156968 113.483655 
L 16.846316 112.578118 
L 15.924576 112.053089 
L 15.185613 111.490109 
L 14.645003 110.897889 
L 14.314141 110.285754 
L 14.2 109.66345 
L 14.304987 109.040936 
L 14.626888 108.428178 
L 15.15892 107.834934 
L 15.889866 107.270551 
L 16.804321 106.743768 
L 19.103193 105.833831 
L 21.862734 105.156314 
L 24.851505 104.742916 
L 27.818842 104.603184 
L 30.515879 104.723714 
L 32.71642 105.069274 
L 34.235908 105.585759 
L 34.697873 105.88712 
L 34.946908 106.204728 
L 34.977763 106.528733 
L 34.789788 106.849147 
L 34.386945 107.15606 
L 32.97497 107.691364 
L 30.860259 108.064627 
L 28.220169 108.21942 
L 25.27612 108.117638 
L 22.275026 107.742693 
L 19.468584 107.100908 
L 17.092165 106.220986 
L 16.129391 105.706255 
L 15.345076 105.151599 
L 14.755753 104.565554 
L 14.373843 103.957314 
L 14.207397 103.336543 
L 14.259922 102.713169 
L 14.530312 102.097174 
L 15.012867 101.498385 
L 15.697416 100.926267 
L 16.56953 100.389721 
L 18.799355 99.455036 
L 21.515331 98.747596 
L 24.489673 98.30161 
L 27.472928 98.129359 
L 30.214894 98.220166 
L 32.485607 98.541292 
L 34.094626 99.04068 
L 34.606316 99.33672 
L 34.907005 99.651324 
L 34.990355 99.974705 
L 34.85461 100.296888 
L 34.502631 100.607926 
L 33.941836 100.898105 
L 32.245237 101.379428 
L 29.907103 101.675367 
L 27.123529 101.735978 
L 24.127971 101.531054 
L 21.171661 101.052659 
L 18.502539 100.31579 
L 16.344462 99.357126 
L 15.515746 98.811285 
L 14.878424 98.231943 
L 14.44593 97.628154 
L 14.227379 97.009487 
L 14.227379 96.385826 
L 14.44593 95.767159 
L 14.878424 95.163369 
L 15.515746 94.584027 
L 16.344462 94.038187 
L 17.347105 93.534196 
L 19.786412 92.680591 
L 22.629087 92.069678 
L 25.636719 91.727569 
L 28.557063 91.657835 
L 31.145193 91.841199 
L 33.184048 92.237161 
L 34.502631 92.787387 
L 34.85461 93.098425 
L 34.990355 93.420608 
L 34.907005 93.743988 
L 34.606316 94.058593 
L 34.094626 94.354633 
L 32.485607 94.854021 
L 30.214894 95.175146 
L 27.472928 95.265953 
L 24.489673 95.093702 
L 21.515331 94.647717 
L 18.799355 93.940277 
L 16.56953 93.005591 
L 15.697416 92.469046 
L 15.012867 91.896928 
L 14.530312 91.298139 
L 14.259922 90.682144 
L 14.207397 90.058769 
L 14.373843 89.437999 
L 14.755753 88.829759 
L 15.345076 88.243713 
L 16.129391 87.689058 
L 17.092165 87.174327 
L 19.468584 86.294404 
L 22.275026 85.65262 
L 25.27612 85.277675 
L 28.220169 85.175893 
L 30.860259 85.330686 
L 32.97497 85.703949 
L 34.386945 86.239253 
L 34.789788 86.546166 
L 34.977763 86.86658 
L 34.946908 87.190584 
L 34.697873 87.508193 
L 34.235908 87.809554 
L 32.71642 88.326039 
L 30.515879 88.671599 
L 27.818842 88.792129 
L 24.851505 88.652397 
L 21.862734 88.238998 
L 19.103193 87.561481 
L 16.804321 86.651544 
L 15.889866 86.124762 
L 15.15892 85.560379 
L 14.626888 84.967135 
L 14.304987 84.354376 
L 14.2 83.731863 
L 14.314141 83.109559 
L 14.645003 82.497424 
L 15.185613 81.905203 
L 15.924576 81.342224 
L 16.846316 80.817194 
L 19.156968 79.911657 
L 21.923778 79.239416 
L 24.914698 78.831726 
L 27.878884 78.697656 
L 27.878884 42.697656 
L 27.878884 42.697656 
" clip-path="url(#p7d44a4b331)" style="fill: none; stroke: #000000; stroke-width: 2; stroke-linecap: round"/>
   </g>
   <g id="line2d_5">
    <path d="M 72.878884 150.697656 
L 95.378884 150.697656 
L 117.878884 150.697656 
" clip-path="url(#p7d44a4b331)" style="fill: none; stroke: #000000; stroke-width: 2; stroke-linecap: round"/>
   </g>
   <g id="line2d_6">
    <path d="M 117.878884 150.697656 
L 117.878884 114.697656 
L 108.878884 111.697656 
L 126.878884 105.697656 
L 108.878884 99.697656 
L 126.878884 93.697656 
L 108.878884 87.697656 
L 126.878884 81.697656 
L 117.878884 78.697656 
L 117.878884 42.697656 
" clip-path="url(#p7d44a4b331)" style="fill: none; stroke: #000000; stroke-width: 2; stroke-linecap: round"/>
   </g>
   <g id="line2d_7">
    <path d="M 117.878884 150.697656 
L 126.878884 150.697656 
L 135.878884 150.697656 
" clip-path="url(#p7d44a4b331)" style="fill: none; stroke: #000000; stroke-width: 2; stroke-linecap: round"/>
   </g>
   <g id="line2d_8">
    <path d="M 117.878884 42.697656 
L 126.878884 42.697656 
L 135.878884 42.697656 
" clip-path="url(#p7d44a4b331)" style="fill: none; stroke: #000000; stroke-width: 2; stroke-linecap: round"/>
   </g>
   <g id="line2d_9">
    <path d="M 117.878884 42.697656 
L 95.378884 42.697656 
L 72.878884 42.697656 
" clip-path="url(#p7d44a4b331)" style="fill: none; stroke: #000000; stroke-width: 2; stroke-linecap: round"/>
   </g>
   <g id="line2d_10">
    <path d="M 27.878884 42.697656 
L 50.378884 42.697656 
L 72.878884 42.697656 
" clip-path="url(#p7d44a4b331)" style="fill: none; stroke: #000000; stroke-width: 2; stroke-linecap: round"/>
   </g>
   <g id="line2d_11">
    <path d="M 72.878884 42.697656 
L 72.878884 38.197656 
L 72.878884 33.697656 
" clip-path="url(#p7d44a4b331)" style="fill: none; stroke: #000000; stroke-width: 2; stroke-linecap: round"/>
   </g>
   <g id="line2d_12">
    <path d="M 72.878884 33.697656 
L 72.878884 19.297656 
" clip-path="url(#p7d44a4b331)" style="fill: none; stroke: #000000; stroke-width: 2; stroke-linecap: round"/>
   </g>
   <g id="line2d_13">
    <path d="M 72.878884 19.297656 
L 66.128884 19.297656 
" clip-path="url(#p7d44a4b331)" style="fill: none; stroke: #000000; stroke-width: 2; stroke-linecap: round"/>
   </g>
   <g id="line2d_14">
    <path d="M 72.878884 19.297656 
L 79.628884 19.297656 
" clip-path="url(#p7d44a4b331)" style="fill: none; stroke: #000000; stroke-width: 2; stroke-linecap: round"/>
   </g>
   <g id="text_1">
    <!-- $C$ -->
    <g transform="translate(51.528884 100.146875) scale(0.125 -0.125)">
     <defs>
      <path id="DejaVuSans-Oblique-43" d="M 4447 4306 
L 4319 3641 
Q 4019 3944 3683 4091 
Q 3347 4238 2956 4238 
Q 2422 4238 2017 3981 
Q 1613 3725 1319 3200 
Q 1131 2863 1032 2486 
Q 934 2109 934 1728 
Q 934 1091 1264 756 
Q 1594 422 2222 422 
Q 2656 422 3056 561 
Q 3456 700 3834 978 
L 3688 231 
Q 3316 72 2936 -9 
Q 2556 -91 2175 -91 
Q 1278 -91 773 396 
Q 269 884 269 1753 
Q 269 2309 461 2846 
Q 653 3384 1013 3828 
Q 1394 4300 1883 4525 
Q 2372 4750 3022 4750 
Q 3422 4750 3780 4639 
Q 4138 4528 4447 4306 
z
" transform="scale(0.015625)"/>
     </defs>
     <use xlink:href="#DejaVuSans-Oblique-43" transform="translate(0 0.78125)"/>
    </g>
   </g>
   <g id="text_2">
    <!-- $L$ -->
    <g transform="translate(3.6 100.146875) scale(0.125 -0.125)">
     <defs>
      <path id="DejaVuSans-Oblique-4c" d="M 1075 4666 
L 1709 4666 
L 909 525 
L 3181 525 
L 3078 0 
L 172 0 
L 1075 4666 
z
" transform="scale(0.015625)"/>
     </defs>
     <use xlink:href="#DejaVuSans-Oblique-4c" transform="translate(0 0.09375)"/>
    </g>
   </g>
   <g id="text_3">
    <!-- $R_L$ -->
    <g transform="translate(91.278884 100.146875) scale(0.125 -0.125)">
     <defs>
      <path id="DejaVuSans-Oblique-52" d="M 1613 4147 
L 1294 2491 
L 2106 2491 
Q 2584 2491 2879 2755 
Q 3175 3019 3175 3444 
Q 3175 3784 2976 3965 
Q 2778 4147 2406 4147 
L 1613 4147 
z
M 2772 2241 
Q 2972 2194 3105 2009 
Q 3238 1825 3413 1275 
L 3809 0 
L 3144 0 
L 2778 1197 
Q 2638 1659 2453 1815 
Q 2269 1972 1888 1972 
L 1191 1972 
L 806 0 
L 172 0 
L 1081 4666 
L 2503 4666 
Q 3150 4666 3495 4373 
Q 3841 4081 3841 3531 
Q 3841 3044 3547 2687 
Q 3253 2331 2772 2241 
z
" transform="scale(0.015625)"/>
     </defs>
     <use xlink:href="#DejaVuSans-Oblique-52" transform="translate(0 0.09375)"/>
     <use xlink:href="#DejaVuSans-Oblique-4c" transform="translate(69.482422 -16.3125) scale(0.7)"/>
    </g>
   </g>
   <g id="text_4">
    <!-- $V_{dd}$ -->
    <g transform="translate(62.816384 13.098047) scale(0.125 -0.125)">
     <defs>
      <path id="DejaVuSans-Oblique-56" d="M 1319 0 
L 500 4666 
L 1119 4666 
L 1797 653 
L 4063 4666 
L 4750 4666 
L 2053 0 
L 1319 0 
z
" transform="scale(0.015625)"/>
      <path id="DejaVuSans-Oblique-64" d="M 2675 525 
Q 2444 222 2128 65 
Q 1813 -91 1428 -91 
Q 903 -91 598 267 
Q 294 625 294 1247 
Q 294 1766 478 2236 
Q 663 2706 1013 3078 
Q 1244 3325 1534 3454 
Q 1825 3584 2144 3584 
Q 2481 3584 2739 3421 
Q 2997 3259 3138 2956 
L 3513 4863 
L 4091 4863 
L 3144 0 
L 2566 0 
L 2675 525 
z
M 891 1350 
Q 891 897 1095 644 
Q 1300 391 1663 391 
Q 1931 391 2161 520 
Q 2391 650 2566 903 
Q 2750 1166 2856 1509 
Q 2963 1853 2963 2188 
Q 2963 2622 2758 2865 
Q 2553 3109 2194 3109 
Q 1922 3109 1687 2981 
Q 1453 2853 1288 2613 
Q 1106 2353 998 2009 
Q 891 1666 891 1350 
z
" transform="scale(0.015625)"/>
     </defs>
     <use xlink:href="#DejaVuSans-Oblique-56" transform="translate(0 0.09375)"/>
     <use xlink:href="#DejaVuSans-Oblique-64" transform="translate(68.408203 -16.3125) scale(0.7)"/>
     <use xlink:href="#DejaVuSans-Oblique-64" transform="translate(112.841797 -16.3125) scale(0.7)"/>
    </g>
   </g>
   <g id="text_5">
    <!-- - -->
    <g transform="translate(169.624002 127.146875) scale(0.125 -0.125)">
     <defs>
      <path id="DejaVuSans-2d" d="M 313 2009 
L 1997 2009 
L 1997 1497 
L 313 1497 
L 313 2009 
z
" transform="scale(0.015625)"/>
     </defs>
     <use xlink:href="#DejaVuSans-2d"/>
    </g>
   </g>
   <g id="text_6">
    <!-- V -->
    <g transform="translate(167.603494 100.146875) scale(0.125 -0.125)">
     <defs>
      <path id="DejaVuSans-56" d="M 1831 0 
L 50 4666 
L 709 4666 
L 2188 738 
L 3669 4666 
L 4325 4666 
L 2547 0 
L 1831 0 
z
" transform="scale(0.015625)"/>
     </defs>
     <use xlink:href="#DejaVuSans-56"/>
    </g>
   </g>
   <g id="text_7">
    <!-- $+$ -->
    <g transform="translate(166.628884 73.146875) scale(0.125 -0.125)">
     <defs>
      <path id="DejaVuSans-2b" d="M 2944 4013 
L 2944 2272 
L 4684 2272 
L 4684 1741 
L 2944 1741 
L 2944 0 
L 2419 0 
L 2419 1741 
L 678 1741 
L 678 2272 
L 2419 2272 
L 2419 4013 
L 2944 4013 
z
" transform="scale(0.015625)"/>
     </defs>
     <use xlink:href="#DejaVuSans-2b" transform="translate(0 0.296875)"/>
    </g>
   </g>
   <g id="patch_2">
    <path d="M 72.878884 153.397656 
C 73.594933 153.397656 74.28175 153.113167 74.788073 152.606845 
C 75.294395 152.100522 75.578884 151.413705 75.578884 150.697656 
C 75.578884 149.981608 75.294395 149.294791 74.788073 148.788468 
C 74.28175 148.282145 73.594933 147.997656 72.878884 147.997656 
C 72.162836 147.997656 71.476019 148.282145 70.969696 148.788468 
C 70.463374 149.294791 70.178884 149.981608 70.178884 150.697656 
C 70.178884 151.413705 70.463374 152.100522 70.969696 152.606845 
C 71.476019 153.113167 72.162836 153.397656 72.878884 153.397656 
z
" clip-path="url(#p7d44a4b331)" style="stroke: #000000; stroke-width: 2; stroke-linejoin: miter"/>
   </g>
   <g id="patch_3">
    <path d="M 135.878884 153.397656 
C 136.594933 153.397656 137.28175 153.113167 137.788073 152.606845 
C 138.294395 152.100522 138.578884 151.413705 138.578884 150.697656 
C 138.578884 149.981608 138.294395 149.294791 137.788073 148.788468 
C 137.28175 148.282145 136.594933 147.997656 135.878884 147.997656 
C 135.162836 147.997656 134.476019 148.282145 133.969696 148.788468 
C 133.463374 149.294791 133.178884 149.981608 133.178884 150.697656 
C 133.178884 151.413705 133.463374 152.100522 133.969696 152.606845 
C 134.476019 153.113167 135.162836 153.397656 135.878884 153.397656 
z
" clip-path="url(#p7d44a4b331)" style="stroke: #000000; stroke-width: 2; stroke-linejoin: miter"/>
   </g>
   <g id="patch_4">
    <path d="M 135.878884 45.397656 
C 136.594933 45.397656 137.28175 45.113167 137.788073 44.606845 
C 138.294395 44.100522 138.578884 43.413705 138.578884 42.697656 
C 138.578884 41.981608 138.294395 41.294791 137.788073 40.788468 
C 137.28175 40.282145 136.594933 39.997656 135.878884 39.997656 
C 135.162836 39.997656 134.476019 40.282145 133.969696 40.788468 
C 133.463374 41.294791 133.178884 41.981608 133.178884 42.697656 
C 133.178884 43.413705 133.463374 44.100522 133.969696 44.606845 
C 134.476019 45.113167 135.162836 45.397656 135.878884 45.397656 
z
" clip-path="url(#p7d44a4b331)" style="stroke: #000000; stroke-width: 2; stroke-linejoin: miter"/>
   </g>
   <g id="patch_5">
    <path d="M 72.878884 45.397656 
C 73.594933 45.397656 74.28175 45.113167 74.788073 44.606845 
C 75.294395 44.100522 75.578884 43.413705 75.578884 42.697656 
C 75.578884 41.981608 75.294395 41.294791 74.788073 40.788468 
C 74.28175 40.282145 73.594933 39.997656 72.878884 39.997656 
C 72.162836 39.997656 71.476019 40.282145 70.969696 40.788468 
C 70.463374 41.294791 70.178884 41.981608 70.178884 42.697656 
C 70.178884 43.413705 70.463374 44.100522 70.969696 44.606845 
C 71.476019 45.113167 72.162836 45.397656 72.878884 45.397656 
z
" clip-path="url(#p7d44a4b331)" style="stroke: #000000; stroke-width: 2; stroke-linejoin: miter"/>
   </g>
  </g>
 </g>
 <defs>
  <clipPath id="p7d44a4b331">
   <rect x="7.981056" y="11.377656" width="136.816773" height="174.24"/>
  </clipPath>
 </defs>
</svg>