<?xml version="1.0" encoding="utf-8" standalone="no"?>
<!DOCTYPE svg PUBLIC "-//W3C//DTD SVG 1.1//EN"
  "http://www.w3.org/Graphics/SVG/1.1/DTD/svg11.dtd">
<svg xmlns:xlink="http://www.w3.org/1999/xlink" width="493.776pt" height="280.4pt" viewBox="0 0 493.776 280.4" xmlns="http://www.w3.org/2000/svg" version="1.1">
 <metadata>
  <rdf:RDF xmlns:dc="http://purl.org/dc/elements/1.1/" xmlns:cc="http://creativecommons.org/ns#" xmlns:rdf="http://www.w3.org/1999/02/22-rdf-syntax-ns#">
   <cc:Work>
    <dc:type rdf:resource="http://purl.org/dc/dcmitype/StillImage"/>
    <dc:date>2025-10-05T21:20:00.160213</dc:date>
    <dc:format>image/svg+xml</dc:format>
    <dc:creator>
     <cc:Agent>
      <dc:title>Matplotlib v3.10.6, https://matplotlib.org/</dc:title>
     </cc:Agent>
    </dc:creator>
   </cc:Work>
  </rdf:RDF>
 </metadata>
 <defs>
  <style type="text/css">*{stroke-linejoin: round; stroke-linecap: butt}</style>
 </defs>
 <g id="figure_1">
  <g id="patch_1">
   <path d="M 0 280.4 
L 493.776 280.4 
L 493.776 0 
L 0 0 
z
" style="fill: #ffffff"/>
  </g>
  <g id="axes_1">
   <g id="patch_2">
    <path d="M 156.624 252.68 
L 156.624 207.68 
L 156.624 207.68 
M 156.624 189.68 
L 156.624 189.68 
L 156.624 189.68 
L 156.624 144.68 
L 156.624 252.68 
" clip-path="url(#pb42410144c)" style="fill: #ff0000; stroke: #ff0000; stroke-linejoin: miter"/>
   </g>
   <g id="patch_3">
    <path d="M 156.624 207.68 
C 159.010828 207.68 161.300219 206.731703 162.987961 205.043961 
C 164.675703 203.356219 165.624 201.066828 165.624 198.68 
C 165.624 196.293172 164.675703 194.003781 162.987961 192.316039 
C 161.300219 190.628297 159.010828 189.68 156.624 189.68 
C 154.237172 189.68 151.947781 190.628297 150.260039 192.316039 
C 148.572297 194.003781 147.624 196.293172 147.624 198.68 
C 147.624 201.066828 148.572297 203.356219 150.260039 205.043961 
C 151.947781 206.731703 154.237172 207.68 156.624 207.68 
z
" clip-path="url(#pb42410144c)" style="fill: #ff0000; stroke: #000000; stroke-width: 2; stroke-linejoin: miter"/>
   </g>
   <g id="patch_4">
    <path d="M 192.624 144.68 
L 192.624 162.68 
L 219.624 144.68 
L 192.624 126.68 
z
" clip-path="url(#pb42410144c)" style="fill: #ff0000; stroke: #ff0000; stroke-linejoin: miter"/>
   </g>
   <g id="patch_5">
    <path d="M 291.624 252.68 
L 291.624 234.68 
L 291.624 234.68 
M 291.624 216.68 
L 291.624 216.68 
L 291.624 216.68 
L 291.624 198.68 
L 291.624 252.68 
" clip-path="url(#pb42410144c)" style="fill: #008000; stroke: #008000; stroke-linejoin: miter"/>
   </g>
   <g id="patch_6">
    <path d="M 291.624 234.68 
C 294.010828 234.68 296.300219 233.731703 297.987961 232.043961 
C 299.675703 230.356219 300.624 228.066828 300.624 225.68 
C 300.624 223.293172 299.675703 221.003781 297.987961 219.316039 
C 296.300219 217.628297 294.010828 216.68 291.624 216.68 
C 289.237172 216.68 286.947781 217.628297 285.260039 219.316039 
C 283.572297 221.003781 282.624 223.293172 282.624 225.68 
C 282.624 228.066828 283.572297 230.356219 285.260039 232.043961 
C 286.947781 233.731703 289.237172 234.68 291.624 234.68 
z
" clip-path="url(#pb42410144c)" style="fill: #008000; stroke: #000000; stroke-width: 2; stroke-linejoin: miter"/>
   </g>
   <g id="patch_7">
    <path d="M 345.624 198.68 
L 345.624 216.68 
L 372.624 198.68 
L 345.624 180.68 
z
" clip-path="url(#pb42410144c)" style="fill: #008000; stroke: #008000; stroke-linejoin: miter"/>
   </g>
   <g id="patch_8">
    <path d="M 212.424 259.88 
L 212.595352 259.878641 
L 212.766662 259.874563 
L 212.937885 259.867767 
L 213.108978 259.858256 
L 213.2799 259.846032 
L 213.450605 259.831097 
L 213.621053 259.813455 
L 213.791198 259.793112 
L 213.961 259.770072 
L 214.130415 259.74434 
L 214.2994 259.715924 
L 214.467913 259.68483 
L 214.635912 259.651066 
L 214.803354 259.614642 
L 214.970197 259.575565 
L 215.136398 259.533846 
L 215.301917 259.489495 
L 215.466712 259.442524 
L 215.63074 259.392944 
L 215.793961 259.340768 
L 215.956334 259.286009 
L 216.117818 259.22868 
L 216.278371 259.168797 
L 216.437955 259.106374 
L 216.596527 259.041426 
L 216.75405 258.973971 
L 216.910482 258.904026 
L 217.065785 258.831607 
L 217.219919 258.756733 
L 217.372846 258.679423 
L 217.524528 258.599696 
L 217.674925 258.517573 
L 217.824 258.433074 
L 217.971716 258.346221 
L 218.118035 258.257035 
L 218.262921 258.165538 
L 218.406337 258.071754 
L 218.548247 257.975707 
L 218.688615 257.87742 
L 218.827406 257.776919 
L 218.964585 257.674228 
L 219.100117 257.569373 
L 219.233969 257.462382 
L 219.366106 257.35328 
L 219.496496 257.242095 
L 219.625105 257.128856 
L 219.751902 257.01359 
L 219.876853 256.896328 
L 219.999929 256.777097 
L 220.121097 256.655929 
L 220.240328 256.532853 
L 220.35759 256.407902 
L 220.472856 256.281105 
L 220.586095 256.152496 
L 220.69728 256.022106 
L 220.806382 255.889969 
L 220.913373 255.756117 
L 221.018228 255.620585 
L 221.120919 255.483406 
L 221.22142 255.344615 
L 221.319707 255.204247 
L 221.415754 255.062337 
L 221.509538 254.918921 
L 221.601035 254.774035 
L 221.690221 254.627716 
L 221.777074 254.48 
L 221.861573 254.330925 
L 221.943696 254.180528 
L 222.023423 254.028846 
L 222.100733 253.875919 
L 222.175607 253.721785 
L 222.248026 253.566482 
L 222.317971 253.41005 
L 222.385426 253.252527 
L 222.450374 253.093955 
L 222.512797 252.934371 
L 222.57268 252.773818 
L 222.630009 252.612334 
L 222.684768 252.449961 
L 222.736944 252.28674 
L 222.786524 252.122712 
L 222.833495 251.957917 
L 222.877846 251.792398 
L 222.919565 251.626197 
L 222.958642 251.459354 
L 222.995066 251.291912 
L 223.02883 251.123913 
L 223.059924 250.9554 
L 223.08834 250.786415 
L 223.114072 250.617 
L 223.137112 250.447198 
L 223.157455 250.277053 
L 223.175097 250.106605 
L 223.190032 249.9359 
L 223.202256 249.764978 
L 223.211767 249.593885 
L 223.218563 249.422662 
L 223.222641 249.251352 
L 223.224 249.08 
L 223.224 130.28 
L 223.222641 130.108648 
L 223.218563 129.937338 
L 223.211767 129.766115 
L 223.202256 129.595022 
L 223.190032 129.4241 
L 223.175097 129.253395 
L 223.157455 129.082947 
L 223.137112 128.912802 
L 223.114072 128.743 
L 223.08834 128.573585 
L 223.059924 128.4046 
L 223.02883 128.236087 
L 222.995066 128.068088 
L 222.958642 127.900646 
L 222.919565 127.733803 
L 222.877846 127.567602 
L 222.833495 127.402083 
L 222.786524 127.237288 
L 222.736944 127.07326 
L 222.684768 126.910039 
L 222.630009 126.747666 
L 222.57268 126.586182 
L 222.512797 126.425629 
L 222.450374 126.266045 
L 222.385426 126.107473 
L 222.317971 125.94995 
L 222.248026 125.793518 
L 222.175607 125.638215 
L 222.100733 125.484081 
L 222.023423 125.331154 
L 221.943696 125.179472 
L 221.861573 125.029075 
L 221.777074 124.88 
L 221.690221 124.732284 
L 221.601035 124.585965 
L 221.509538 124.441079 
L 221.415754 124.297663 
L 221.319707 124.155753 
L 221.22142 124.015385 
L 221.120919 123.876594 
L 221.018228 123.739415 
L 220.913373 123.603883 
L 220.806382 123.470031 
L 220.69728 123.337894 
L 220.586095 123.207504 
L 220.472856 123.078895 
L 220.35759 122.952098 
L 220.240328 122.827147 
L 220.121097 122.704071 
L 219.999929 122.582903 
L 219.876853 122.463672 
L 219.751902 122.34641 
L 219.625105 122.231144 
L 219.496496 122.117905 
L 219.366106 122.00672 
L 219.233969 121.897618 
L 219.100117 121.790627 
L 218.964585 121.685772 
L 218.827406 121.583081 
L 218.688615 121.48258 
L 218.548247 121.384293 
L 218.406337 121.288246 
L 218.262921 121.194462 
L 218.118035 121.102965 
L 217.971716 121.013779 
L 217.824 120.926926 
L 217.674925 120.842427 
L 217.524528 120.760304 
L 217.372846 120.680577 
L 217.219919 120.603267 
L 217.065785 120.528393 
L 216.910482 120.455974 
L 216.75405 120.386029 
L 216.596527 120.318574 
L 216.437955 120.253626 
L 216.278371 120.191203 
L 216.117818 120.13132 
L 215.956334 120.073991 
L 215.793961 120.019232 
L 215.63074 119.967056 
L 215.466712 119.917476 
L 215.301917 119.870505 
L 215.136398 119.826154 
L 214.970197 119.784435 
L 214.803354 119.745358 
L 214.635912 119.708934 
L 214.467913 119.67517 
L 214.2994 119.644076 
L 214.130415 119.61566 
L 213.961 119.589928 
L 213.791198 119.566888 
L 213.621053 119.546545 
L 213.450605 119.528903 
L 213.2799 119.513968 
L 213.108978 119.501744 
L 212.937885 119.492233 
L 212.766662 119.485437 
L 212.595352 119.481359 
L 212.424 119.48 
L 110.352 119.48 
L 110.180648 119.481359 
L 110.009338 119.485437 
L 109.838115 119.492233 
L 109.667022 119.501744 
L 109.4961 119.513968 
L 109.325395 119.528903 
L 109.154947 119.546545 
L 108.984802 119.566888 
L 108.815 119.589928 
L 108.645585 119.61566 
L 108.4766 119.644076 
L 108.308087 119.67517 
L 108.140088 119.708934 
L 107.972646 119.745358 
L 107.805803 119.784435 
L 107.639602 119.826154 
L 107.474083 119.870505 
L 107.309288 119.917476 
L 107.14526 119.967056 
L 106.982039 120.019232 
L 106.819666 120.073991 
L 106.658182 120.13132 
L 106.497629 120.191203 
L 106.338045 120.253626 
L 106.179473 120.318574 
L 106.02195 120.386029 
L 105.865518 120.455974 
L 105.710215 120.528393 
L 105.556081 120.603267 
L 105.403154 120.680577 
L 105.251472 120.760304 
L 105.101075 120.842427 
L 104.952 120.926926 
L 104.804284 121.013779 
L 104.657965 121.102965 
L 104.513079 121.194462 
L 104.369663 121.288246 
L 104.227753 121.384293 
L 104.087385 121.48258 
L 103.948594 121.583081 
L 103.811415 121.685772 
L 103.675883 121.790627 
L 103.542031 121.897618 
L 103.409894 122.00672 
L 103.279504 122.117905 
L 103.150895 122.231144 
L 103.024098 122.34641 
L 102.899147 122.463672 
L 102.776071 122.582903 
L 102.654903 122.704071 
L 102.535672 122.827147 
L 102.41841 122.952098 
L 102.303144 123.078895 
L 102.189905 123.207504 
L 102.07872 123.337894 
L 101.969618 123.470031 
L 101.862627 123.603883 
L 101.757772 123.739415 
L 101.655081 123.876594 
L 101.55458 124.015385 
L 101.456293 124.155753 
L 101.360246 124.297663 
L 101.266462 124.441079 
L 101.174965 124.585965 
L 101.085779 124.732284 
L 100.998926 124.88 
L 100.914427 125.029075 
L 100.832304 125.179472 
L 100.752577 125.331154 
L 100.675267 125.484081 
L 100.600393 125.638215 
L 100.527974 125.793518 
L 100.458029 125.94995 
L 100.390574 126.107473 
L 100.325626 126.266045 
L 100.263203 126.425629 
L 100.20332 126.586182 
L 100.145991 126.747666 
L 100.091232 126.910039 
L 100.039056 127.07326 
L 99.989476 127.237288 
L 99.942505 127.402083 
L 99.898154 127.567602 
L 99.856435 127.733803 
L 99.817358 127.900646 
L 99.780934 128.068088 
L 99.74717 128.236087 
L 99.716076 128.4046 
L 99.68766 128.573585 
L 99.661928 128.743 
L 99.638888 128.912802 
L 99.618545 129.082947 
L 99.600903 129.253395 
L 99.585968 129.4241 
L 99.573744 129.595022 
L 99.564233 129.766115 
L 99.557437 129.937338 
L 99.553359 130.108648 
L 99.552 130.28 
L 99.552 249.08 
L 99.553359 249.251352 
L 99.557437 249.422662 
L 99.564233 249.593885 
L 99.573744 249.764978 
L 99.585968 249.9359 
L 99.600903 250.106605 
L 99.618545 250.277053 
L 99.638888 250.447198 
L 99.661928 250.617 
L 99.68766 250.786415 
L 99.716076 250.9554 
L 99.74717 251.123913 
L 99.780934 251.291912 
L 99.817358 251.459354 
L 99.856435 251.626197 
L 99.898154 251.792398 
L 99.942505 251.957917 
L 99.989476 252.122712 
L 100.039056 252.28674 
L 100.091232 252.449961 
L 100.145991 252.612334 
L 100.20332 252.773818 
L 100.263203 252.934371 
L 100.325626 253.093955 
L 100.390574 253.252527 
L 100.458029 253.41005 
L 100.527974 253.566482 
L 100.600393 253.721785 
L 100.675267 253.875919 
L 100.752577 254.028846 
L 100.832304 254.180528 
L 100.914427 254.330925 
L 100.998926 254.48 
L 101.085779 254.627716 
L 101.174965 254.774035 
L 101.266462 254.918921 
L 101.360246 255.062337 
L 101.456293 255.204247 
L 101.55458 255.344615 
L 101.655081 255.483406 
L 101.757772 255.620585 
L 101.862627 255.756117 
L 101.969618 255.889969 
L 102.07872 256.022106 
L 102.189905 256.152496 
L 102.303144 256.281105 
L 102.41841 256.407902 
L 102.535672 256.532853 
L 102.654903 256.655929 
L 102.776071 256.777097 
L 102.899147 256.896328 
L 103.024098 257.01359 
L 103.150895 257.128856 
L 103.279504 257.242095 
L 103.409894 257.35328 
L 103.542031 257.462382 
L 103.675883 257.569373 
L 103.811415 257.674228 
L 103.948594 257.776919 
L 104.087385 257.87742 
L 104.227753 257.975707 
L 104.369663 258.071754 
L 104.513079 258.165538 
L 104.657965 258.257035 
L 104.804284 258.346221 
L 104.952 258.433074 
L 105.101075 258.517573 
L 105.251472 258.599696 
L 105.403154 258.679423 
L 105.556081 258.756733 
L 105.710215 258.831607 
L 105.865518 258.904026 
L 106.02195 258.973971 
L 106.179473 259.041426 
L 106.338045 259.106374 
L 106.497629 259.168797 
L 106.658182 259.22868 
L 106.819666 259.286009 
L 106.982039 259.340768 
L 107.14526 259.392944 
L 107.309288 259.442524 
L 107.474083 259.489495 
L 107.639602 259.533846 
L 107.805803 259.575565 
L 107.972646 259.614642 
L 108.140088 259.651066 
L 108.308087 259.68483 
L 108.4766 259.715924 
L 108.645585 259.74434 
L 108.815 259.770072 
L 108.984802 259.793112 
L 109.154947 259.813455 
L 109.325395 259.831097 
L 109.4961 259.846032 
L 109.667022 259.858256 
L 109.838115 259.867767 
L 110.009338 259.874563 
L 110.180648 259.878641 
L 110.352 259.88 
L 212.424 259.88 
z
" clip-path="url(#pb42410144c)" style="fill: none; stroke-dasharray: 1.85,0.8; stroke-dashoffset: 0; stroke: #ff0000; stroke-width: 0.5; stroke-linecap: round"/>
   </g>
   <g id="patch_9">
    <path d="M 365.424 259.88 
L 365.595352 259.878641 
L 365.766662 259.874563 
L 365.937885 259.867767 
L 366.108978 259.858256 
L 366.2799 259.846032 
L 366.450605 259.831097 
L 366.621053 259.813455 
L 366.791198 259.793112 
L 366.961 259.770072 
L 367.130415 259.74434 
L 367.2994 259.715924 
L 367.467913 259.68483 
L 367.635912 259.651066 
L 367.803354 259.614642 
L 367.970197 259.575565 
L 368.136398 259.533846 
L 368.301917 259.489495 
L 368.466712 259.442524 
L 368.63074 259.392944 
L 368.793961 259.340768 
L 368.956334 259.286009 
L 369.117818 259.22868 
L 369.278371 259.168797 
L 369.437955 259.106374 
L 369.596527 259.041426 
L 369.75405 258.973971 
L 369.910482 258.904026 
L 370.065785 258.831607 
L 370.219919 258.756733 
L 370.372846 258.679423 
L 370.524528 258.599696 
L 370.674925 258.517573 
L 370.824 258.433074 
L 370.971716 258.346221 
L 371.118035 258.257035 
L 371.262921 258.165538 
L 371.406337 258.071754 
L 371.548247 257.975707 
L 371.688615 257.87742 
L 371.827406 257.776919 
L 371.964585 257.674228 
L 372.100117 257.569373 
L 372.233969 257.462382 
L 372.366106 257.35328 
L 372.496496 257.242095 
L 372.625105 257.128856 
L 372.751902 257.01359 
L 372.876853 256.896328 
L 372.999929 256.777097 
L 373.121097 256.655929 
L 373.240328 256.532853 
L 373.35759 256.407902 
L 373.472856 256.281105 
L 373.586095 256.152496 
L 373.69728 256.022106 
L 373.806382 255.889969 
L 373.913373 255.756117 
L 374.018228 255.620585 
L 374.120919 255.483406 
L 374.22142 255.344615 
L 374.319707 255.204247 
L 374.415754 255.062337 
L 374.509538 254.918921 
L 374.601035 254.774035 
L 374.690221 254.627716 
L 374.777074 254.48 
L 374.861573 254.330925 
L 374.943696 254.180528 
L 375.023423 254.028846 
L 375.100733 253.875919 
L 375.175607 253.721785 
L 375.248026 253.566482 
L 375.317971 253.41005 
L 375.385426 253.252527 
L 375.450374 253.093955 
L 375.512797 252.934371 
L 375.57268 252.773818 
L 375.630009 252.612334 
L 375.684768 252.449961 
L 375.736944 252.28674 
L 375.786524 252.122712 
L 375.833495 251.957917 
L 375.877846 251.792398 
L 375.919565 251.626197 
L 375.958642 251.459354 
L 375.995066 251.291912 
L 376.02883 251.123913 
L 376.059924 250.9554 
L 376.08834 250.786415 
L 376.114072 250.617 
L 376.137112 250.447198 
L 376.157455 250.277053 
L 376.175097 250.106605 
L 376.190032 249.9359 
L 376.202256 249.764978 
L 376.211767 249.593885 
L 376.218563 249.422662 
L 376.222641 249.251352 
L 376.224 249.08 
L 376.224 184.28 
L 376.222641 184.108648 
L 376.218563 183.937338 
L 376.211767 183.766115 
L 376.202256 183.595022 
L 376.190032 183.4241 
L 376.175097 183.253395 
L 376.157455 183.082947 
L 376.137112 182.912802 
L 376.114072 182.743 
L 376.08834 182.573585 
L 376.059924 182.4046 
L 376.02883 182.236087 
L 375.995066 182.068088 
L 375.958642 181.900646 
L 375.919565 181.733803 
L 375.877846 181.567602 
L 375.833495 181.402083 
L 375.786524 181.237288 
L 375.736944 181.07326 
L 375.684768 180.910039 
L 375.630009 180.747666 
L 375.57268 180.586182 
L 375.512797 180.425629 
L 375.450374 180.266045 
L 375.385426 180.107473 
L 375.317971 179.94995 
L 375.248026 179.793518 
L 375.175607 179.638215 
L 375.100733 179.484081 
L 375.023423 179.331154 
L 374.943696 179.179472 
L 374.861573 179.029075 
L 374.777074 178.88 
L 374.690221 178.732284 
L 374.601035 178.585965 
L 374.509538 178.441079 
L 374.415754 178.297663 
L 374.319707 178.155753 
L 374.22142 178.015385 
L 374.120919 177.876594 
L 374.018228 177.739415 
L 373.913373 177.603883 
L 373.806382 177.470031 
L 373.69728 177.337894 
L 373.586095 177.207504 
L 373.472856 177.078895 
L 373.35759 176.952098 
L 373.240328 176.827147 
L 373.121097 176.704071 
L 372.999929 176.582903 
L 372.876853 176.463672 
L 372.751902 176.34641 
L 372.625105 176.231144 
L 372.496496 176.117905 
L 372.366106 176.00672 
L 372.233969 175.897618 
L 372.100117 175.790627 
L 371.964585 175.685772 
L 371.827406 175.583081 
L 371.688615 175.48258 
L 371.548247 175.384293 
L 371.406337 175.288246 
L 371.262921 175.194462 
L 371.118035 175.102965 
L 370.971716 175.013779 
L 370.824 174.926926 
L 370.674925 174.842427 
L 370.524528 174.760304 
L 370.372846 174.680577 
L 370.219919 174.603267 
L 370.065785 174.528393 
L 369.910482 174.455974 
L 369.75405 174.386029 
L 369.596527 174.318574 
L 369.437955 174.253626 
L 369.278371 174.191203 
L 369.117818 174.13132 
L 368.956334 174.073991 
L 368.793961 174.019232 
L 368.63074 173.967056 
L 368.466712 173.917476 
L 368.301917 173.870505 
L 368.136398 173.826154 
L 367.970197 173.784435 
L 367.803354 173.745358 
L 367.635912 173.708934 
L 367.467913 173.67517 
L 367.2994 173.644076 
L 367.130415 173.61566 
L 366.961 173.589928 
L 366.791198 173.566888 
L 366.621053 173.546545 
L 366.450605 173.528903 
L 366.2799 173.513968 
L 366.108978 173.501744 
L 365.937885 173.492233 
L 365.766662 173.485437 
L 365.595352 173.481359 
L 365.424 173.48 
L 243.924 173.48 
L 243.752648 173.481359 
L 243.581338 173.485437 
L 243.410115 173.492233 
L 243.239022 173.501744 
L 243.0681 173.513968 
L 242.897395 173.528903 
L 242.726947 173.546545 
L 242.556802 173.566888 
L 242.387 173.589928 
L 242.217585 173.61566 
L 242.0486 173.644076 
L 241.880087 173.67517 
L 241.712088 173.708934 
L 241.544646 173.745358 
L 241.377803 173.784435 
L 241.211602 173.826154 
L 241.046083 173.870505 
L 240.881288 173.917476 
L 240.71726 173.967056 
L 240.554039 174.019232 
L 240.391666 174.073991 
L 240.230182 174.13132 
L 240.069629 174.191203 
L 239.910045 174.253626 
L 239.751473 174.318574 
L 239.59395 174.386029 
L 239.437518 174.455974 
L 239.282215 174.528393 
L 239.128081 174.603267 
L 238.975154 174.680577 
L 238.823472 174.760304 
L 238.673075 174.842427 
L 238.524 174.926926 
L 238.376284 175.013779 
L 238.229965 175.102965 
L 238.085079 175.194462 
L 237.941663 175.288246 
L 237.799753 175.384293 
L 237.659385 175.48258 
L 237.520594 175.583081 
L 237.383415 175.685772 
L 237.247883 175.790627 
L 237.114031 175.897618 
L 236.981894 176.00672 
L 236.851504 176.117905 
L 236.722895 176.231144 
L 236.596098 176.34641 
L 236.471147 176.463672 
L 236.348071 176.582903 
L 236.226903 176.704071 
L 236.107672 176.827147 
L 235.99041 176.952098 
L 235.875144 177.078895 
L 235.761905 177.207504 
L 235.65072 177.337894 
L 235.541618 177.470031 
L 235.434627 177.603883 
L 235.329772 177.739415 
L 235.227081 177.876594 
L 235.12658 178.015385 
L 235.028293 178.155753 
L 234.932246 178.297663 
L 234.838462 178.441079 
L 234.746965 178.585965 
L 234.657779 178.732284 
L 234.570926 178.88 
L 234.486427 179.029075 
L 234.404304 179.179472 
L 234.324577 179.331154 
L 234.247267 179.484081 
L 234.172393 179.638215 
L 234.099974 179.793518 
L 234.030029 179.94995 
L 233.962574 180.107473 
L 233.897626 180.266045 
L 233.835203 180.425629 
L 233.77532 180.586182 
L 233.717991 180.747666 
L 233.663232 180.910039 
L 233.611056 181.07326 
L 233.561476 181.237288 
L 233.514505 181.402083 
L 233.470154 181.567602 
L 233.428435 181.733803 
L 233.389358 181.900646 
L 233.352934 182.068088 
L 233.31917 182.236087 
L 233.288076 182.4046 
L 233.25966 182.573585 
L 233.233928 182.743 
L 233.210888 182.912802 
L 233.190545 183.082947 
L 233.172903 183.253395 
L 233.157968 183.4241 
L 233.145744 183.595022 
L 233.136233 183.766115 
L 233.129437 183.937338 
L 233.125359 184.108648 
L 233.124 184.28 
L 233.124 249.08 
L 233.125359 249.251352 
L 233.129437 249.422662 
L 233.136233 249.593885 
L 233.145744 249.764978 
L 233.157968 249.9359 
L 233.172903 250.106605 
L 233.190545 250.277053 
L 233.210888 250.447198 
L 233.233928 250.617 
L 233.25966 250.786415 
L 233.288076 250.9554 
L 233.31917 251.123913 
L 233.352934 251.291912 
L 233.389358 251.459354 
L 233.428435 251.626197 
L 233.470154 251.792398 
L 233.514505 251.957917 
L 233.561476 252.122712 
L 233.611056 252.28674 
L 233.663232 252.449961 
L 233.717991 252.612334 
L 233.77532 252.773818 
L 233.835203 252.934371 
L 233.897626 253.093955 
L 233.962574 253.252527 
L 234.030029 253.41005 
L 234.099974 253.566482 
L 234.172393 253.721785 
L 234.247267 253.875919 
L 234.324577 254.028846 
L 234.404304 254.180528 
L 234.486427 254.330925 
L 234.570926 254.48 
L 234.657779 254.627716 
L 234.746965 254.774035 
L 234.838462 254.918921 
L 234.932246 255.062337 
L 235.028293 255.204247 
L 235.12658 255.344615 
L 235.227081 255.483406 
L 235.329772 255.620585 
L 235.434627 255.756117 
L 235.541618 255.889969 
L 235.65072 256.022106 
L 235.761905 256.152496 
L 235.875144 256.281105 
L 235.99041 256.407902 
L 236.107672 256.532853 
L 236.226903 256.655929 
L 236.348071 256.777097 
L 236.471147 256.896328 
L 236.596098 257.01359 
L 236.722895 257.128856 
L 236.851504 257.242095 
L 236.981894 257.35328 
L 237.114031 257.462382 
L 237.247883 257.569373 
L 237.383415 257.674228 
L 237.520594 257.776919 
L 237.659385 257.87742 
L 237.799753 257.975707 
L 237.941663 258.071754 
L 238.085079 258.165538 
L 238.229965 258.257035 
L 238.376284 258.346221 
L 238.524 258.433074 
L 238.673075 258.517573 
L 238.823472 258.599696 
L 238.975154 258.679423 
L 239.128081 258.756733 
L 239.282215 258.831607 
L 239.437518 258.904026 
L 239.59395 258.973971 
L 239.751473 259.041426 
L 239.910045 259.106374 
L 240.069629 259.168797 
L 240.230182 259.22868 
L 240.391666 259.286009 
L 240.554039 259.340768 
L 240.71726 259.392944 
L 240.881288 259.442524 
L 241.046083 259.489495 
L 241.211602 259.533846 
L 241.377803 259.575565 
L 241.544646 259.614642 
L 241.712088 259.651066 
L 241.880087 259.68483 
L 242.0486 259.715924 
L 242.217585 259.74434 
L 242.387 259.770072 
L 242.556802 259.793112 
L 242.726947 259.813455 
L 242.897395 259.831097 
L 243.0681 259.846032 
L 243.239022 259.858256 
L 243.410115 259.867767 
L 243.581338 259.874563 
L 243.752648 259.878641 
L 243.924 259.88 
L 365.424 259.88 
z
" clip-path="url(#pb42410144c)" style="fill: none; stroke-dasharray: 1.85,0.8; stroke-dashoffset: 0; stroke: #008000; stroke-width: 0.5; stroke-linecap: round"/>
   </g>
   <g id="patch_10">
    <path d="M 95.052 189.68 
C 72.552 189.68 90.552 189.68 63.552 189.68 
" clip-path="url(#pb42410144c)" style="fill: none; stroke: #ff0000; stroke-width: 2; stroke-linejoin: miter; stroke-linecap: round"/>
   </g>
   <g id="patch_11">
    <path d="M 90.552 186.08 
L 99.552 189.68 
L 90.552 193.28 
z
" clip-path="url(#pb42410144c)" style="fill: #ff0000"/>
   </g>
   <g id="patch_12">
    <path d="M 380.724 216.68 
C 416.724 216.68 389.724 259.88 430.224 259.88 
" clip-path="url(#pb42410144c)" style="fill: none; stroke: #008000; stroke-width: 2; stroke-linejoin: miter; stroke-linecap: round"/>
   </g>
   <g id="patch_13">
    <path d="M 385.224 220.28 
L 376.224 216.68 
L 385.224 213.08 
z
" clip-path="url(#pb42410144c)" style="fill: #008000"/>
   </g>
   <g id="line2d_1">
    <path d="M 156.624 252.68 
L 156.624 207.68 
L 156.624 207.68 
M 156.624 189.68 
L 156.624 189.68 
L 156.624 144.68 
" clip-path="url(#pb42410144c)" style="fill: none; stroke: #000000; stroke-width: 2; stroke-linecap: round"/>
   </g>
   <g id="line2d_2">
    <path d="M 158.424 203.18 
L 154.824 203.18 
" clip-path="url(#pb42410144c)" style="fill: none; stroke: #000000; stroke-width: 2; stroke-linecap: round"/>
   </g>
   <g id="line2d_3">
    <path d="M 156.624 195.98 
L 156.624 192.38 
" clip-path="url(#pb42410144c)" style="fill: none; stroke: #000000; stroke-width: 2; stroke-linecap: round"/>
   </g>
   <g id="line2d_4">
    <path d="M 158.424 194.18 
L 154.824 194.18 
" clip-path="url(#pb42410144c)" style="fill: none; stroke: #000000; stroke-width: 2; stroke-linecap: round"/>
   </g>
   <g id="line2d_5">
    <path d="M 156.624 144.68 
L 174.624 144.68 
L 192.624 144.68 
" clip-path="url(#pb42410144c)" style="fill: none; stroke: #000000; stroke-width: 2; stroke-linecap: round"/>
   </g>
   <g id="line2d_6">
    <path d="M 192.624 144.68 
L 192.624 162.68 
L 219.624 144.68 
L 192.624 126.68 
L 192.624 144.68 
" clip-path="url(#pb42410144c)" style="fill: none; stroke: #000000; stroke-width: 2; stroke-linecap: round"/>
   </g>
   <g id="line2d_7">
    <path d="M 156.624 252.68 
L 224.124 252.68 
L 291.624 252.68 
" clip-path="url(#pb42410144c)" style="fill: none; stroke: #000000; stroke-width: 2; stroke-linecap: round"/>
   </g>
   <g id="line2d_8">
    <path d="M 291.624 252.68 
L 291.624 234.68 
L 291.624 234.68 
M 291.624 216.68 
L 291.624 216.68 
L 291.624 198.68 
" clip-path="url(#pb42410144c)" style="fill: none; stroke: #000000; stroke-width: 2; stroke-linecap: round"/>
   </g>
   <g id="line2d_9">
    <path d="M 293.424 230.18 
L 289.824 230.18 
" clip-path="url(#pb42410144c)" style="fill: none; stroke: #000000; stroke-width: 2; stroke-linecap: round"/>
   </g>
   <g id="line2d_10">
    <path d="M 291.624 222.98 
L 291.624 219.38 
" clip-path="url(#pb42410144c)" style="fill: none; stroke: #000000; stroke-width: 2; stroke-linecap: round"/>
   </g>
   <g id="line2d_11">
    <path d="M 293.424 221.18 
L 289.824 221.18 
" clip-path="url(#pb42410144c)" style="fill: none; stroke: #000000; stroke-width: 2; stroke-linecap: round"/>
   </g>
   <g id="line2d_12">
    <path d="M 291.624 198.68 
L 318.624 198.68 
L 345.624 198.68 
" clip-path="url(#pb42410144c)" style="fill: none; stroke: #000000; stroke-width: 2; stroke-linecap: round"/>
   </g>
   <g id="line2d_13">
    <path d="M 345.624 198.68 
L 345.624 216.68 
L 372.624 198.68 
L 345.624 180.68 
L 345.624 198.68 
" clip-path="url(#pb42410144c)" style="fill: none; stroke: #000000; stroke-width: 2; stroke-linecap: round"/>
   </g>
   <g id="line2d_14">
    <path d="M 372.624 198.68 
L 390.624 198.68 
L 408.624 198.68 
" clip-path="url(#pb42410144c)" style="fill: none; stroke: #000000; stroke-width: 2; stroke-linecap: round"/>
   </g>
   <g id="line2d_15">
    <path d="M 408.624 198.68 
L 408.624 177.08 
L 394.944 155.48 
L 422.304 155.48 
L 408.624 177.08 
" clip-path="url(#pb42410144c)" style="fill: none; stroke: #000000; stroke-width: 2; stroke-linecap: round"/>
   </g>
   <g id="line2d_16">
    <path d="M 291.624 252.68 
L 325.374 252.68 
L 359.124 252.68 
" clip-path="url(#pb42410144c)" style="fill: none; stroke: #000000; stroke-width: 2; stroke-linecap: round"/>
   </g>
   <g id="line2d_17">
    <path d="M 359.124 252.68 
L 359.124 267.08 
L 350.124 267.08 
L 368.124 267.08 
M 352.824 271.4 
L 365.424 271.4 
M 357.324 275.72 
L 360.924 275.72 
" clip-path="url(#pb42410144c)" style="fill: none; stroke: #000000; stroke-width: 2; stroke-linecap: round"/>
   </g>
   <g id="line2d_18">
    <path d="M 359.124 252.68 
L 359.124 230.18 
L 359.124 207.68 
" clip-path="url(#pb42410144c)" style="fill: none; stroke: #000000; stroke-width: 2; stroke-linecap: round"/>
   </g>
   <g id="line2d_19">
    <path d="M 219.624 144.68 
L 286.134 144.68 
M 286.134 135.68 
L 286.134 153.68 
M 292.614 135.68 
L 292.614 153.68 
M 292.614 144.68 
L 359.124 144.68 
" clip-path="url(#pb42410144c)" style="fill: none; stroke: #000000; stroke-width: 2; stroke-linecap: round"/>
   </g>
   <g id="line2d_20">
    <path d="M 359.124 144.68 
L 359.124 167.18 
L 359.124 189.68 
" clip-path="url(#pb42410144c)" style="fill: none; stroke: #000000; stroke-width: 2; stroke-linecap: round"/>
   </g>
   <g id="line2d_21">
    <path d="M 359.124 144.68 
L 359.124 108.68 
L 356.159813 108.54593 
L 353.168893 108.13824 
L 350.402083 107.465999 
L 348.091432 106.560462 
L 347.169692 106.035433 
L 346.430729 105.472453 
L 345.890119 104.880233 
L 345.559256 104.268098 
L 345.445116 103.645793 
L 345.550102 103.02328 
L 345.872004 102.410522 
L 346.404035 101.817277 
L 347.134982 101.252894 
L 348.049436 100.726112 
L 350.348309 99.816175 
L 353.10785 99.138658 
L 356.09662 98.72526 
L 359.063957 98.585528 
L 361.760994 98.706058 
L 363.961535 99.051618 
L 365.481024 99.568102 
L 365.942989 99.869463 
L 366.192023 100.187072 
L 366.222878 100.511077 
L 366.034903 100.831491 
L 365.63206 101.138403 
L 364.220085 101.673708 
L 362.105374 102.046971 
L 359.465284 102.201764 
L 356.521236 102.099981 
L 353.520142 101.725037 
L 350.7137 101.083252 
L 348.337281 100.203329 
L 347.374506 99.688598 
L 346.590192 99.133943 
L 346.000869 98.547898 
L 345.618959 97.939658 
L 345.452513 97.318887 
L 345.505038 96.695513 
L 345.775428 96.079518 
L 346.257983 95.480729 
L 346.942532 94.90861 
L 347.814645 94.372065 
L 350.044471 93.437379 
L 352.760447 92.72994 
L 355.734789 92.283954 
L 358.718044 92.111703 
L 361.46001 92.20251 
L 363.730723 92.523635 
L 365.339742 93.023023 
L 365.851431 93.319064 
L 366.15212 93.633668 
L 366.235471 93.957048 
L 366.099725 94.279232 
L 365.747746 94.590269 
L 365.186952 94.880449 
L 363.490352 95.361772 
L 361.152218 95.657711 
L 358.368645 95.718322 
L 355.373087 95.513398 
L 352.416776 95.035002 
L 349.747655 94.298134 
L 347.589578 93.339469 
L 346.760862 92.793629 
L 346.12354 92.214287 
L 345.691045 91.610498 
L 345.472495 90.991831 
L 345.472495 90.368169 
L 345.691045 89.749502 
L 346.12354 89.145713 
L 346.760862 88.566371 
L 347.589578 88.020531 
L 348.59222 87.51654 
L 351.031527 86.662935 
L 353.874202 86.052021 
L 356.881835 85.709913 
L 359.802178 85.640179 
L 362.390309 85.823543 
L 364.429163 86.219504 
L 365.747746 86.769731 
L 366.099725 87.080768 
L 366.235471 87.402952 
L 366.15212 87.726332 
L 365.851431 88.040936 
L 365.339742 88.336977 
L 363.730723 88.836365 
L 361.46001 89.15749 
L 358.718044 89.248297 
L 355.734789 89.076046 
L 352.760447 88.63006 
L 350.044471 87.922621 
L 347.814645 86.987935 
L 346.942532 86.45139 
L 346.257983 85.879271 
L 345.775428 85.280482 
L 345.505038 84.664487 
L 345.452513 84.041113 
L 345.618959 83.420342 
L 346.000869 82.812102 
L 346.590192 82.226057 
L 347.374506 81.671402 
L 348.337281 81.156671 
L 350.7137 80.276748 
L 353.520142 79.634963 
L 356.521236 79.260019 
L 359.465284 79.158236 
L 362.105374 79.313029 
L 364.220085 79.686292 
L 365.63206 80.221597 
L 366.034903 80.528509 
L 366.222878 80.848923 
L 366.192023 81.172928 
L 365.942989 81.490537 
L 365.481024 81.791898 
L 363.961535 82.308382 
L 361.760994 82.653942 
L 359.063957 82.774472 
L 356.09662 82.63474 
L 353.10785 82.221342 
L 350.348309 81.543825 
L 348.049436 80.633888 
L 347.134982 80.107106 
L 346.404035 79.542723 
L 345.872004 78.949478 
L 345.550102 78.33672 
L 345.445116 77.714207 
L 345.559256 77.091902 
L 345.890119 76.479767 
L 346.430729 75.887547 
L 347.169692 75.324567 
L 348.091432 74.799538 
L 350.402083 73.894001 
L 353.168893 73.22176 
L 356.159813 72.81407 
L 359.124 72.68 
L 359.124 36.68 
L 359.124 36.68 
" clip-path="url(#pb42410144c)" style="fill: none; stroke: #000000; stroke-width: 2; stroke-linecap: round"/>
   </g>
   <g id="line2d_22">
    <path d="M 359.124 36.68 
L 359.124 22.28 
" clip-path="url(#pb42410144c)" style="fill: none; stroke: #000000; stroke-width: 2; stroke-linecap: round"/>
   </g>
   <g id="line2d_23">
    <path d="M 359.124 22.28 
L 352.374 22.28 
" clip-path="url(#pb42410144c)" style="fill: none; stroke: #000000; stroke-width: 2; stroke-linecap: round"/>
   </g>
   <g id="line2d_24">
    <path d="M 359.124 22.28 
L 365.874 22.28 
" clip-path="url(#pb42410144c)" style="fill: none; stroke: #000000; stroke-width: 2; stroke-linecap: round"/>
   </g>
   <g id="text_1">
    <!-- $V_{in LF}$ -->
    <g transform="translate(115.724 202.543125) scale(0.14 -0.14)">
     <defs>
      <path id="DejaVuSans-Oblique-56" d="M 1319 0 
L 500 4666 
L 1119 4666 
L 1797 653 
L 4063 4666 
L 4750 4666 
L 2053 0 
L 1319 0 
z
" transform="scale(0.015625)"/>
      <path id="DejaVuSans-Oblique-69" d="M 1172 4863 
L 1747 4863 
L 1606 4134 
L 1031 4134 
L 1172 4863 
z
M 909 3500 
L 1484 3500 
L 800 0 
L 225 0 
L 909 3500 
z
" transform="scale(0.015625)"/>
      <path id="DejaVuSans-Oblique-6e" d="M 3566 2113 
L 3156 0 
L 2578 0 
L 2988 2091 
Q 3016 2238 3031 2350 
Q 3047 2463 3047 2528 
Q 3047 2791 2881 2937 
Q 2716 3084 2419 3084 
Q 1956 3084 1622 2776 
Q 1288 2469 1184 1941 
L 800 0 
L 225 0 
L 903 3500 
L 1478 3500 
L 1363 2950 
Q 1603 3253 1940 3418 
Q 2278 3584 2650 3584 
Q 3113 3584 3367 3334 
Q 3622 3084 3622 2631 
Q 3622 2519 3608 2391 
Q 3594 2263 3566 2113 
z
" transform="scale(0.015625)"/>
      <path id="DejaVuSans-Oblique-4c" d="M 1075 4666 
L 1709 4666 
L 909 525 
L 3181 525 
L 3078 0 
L 172 0 
L 1075 4666 
z
" transform="scale(0.015625)"/>
      <path id="DejaVuSans-Oblique-46" d="M 1081 4666 
L 3756 4666 
L 3653 4134 
L 1606 4134 
L 1338 2759 
L 3188 2759 
L 3084 2228 
L 1234 2228 
L 800 0 
L 172 0 
L 1081 4666 
z
" transform="scale(0.015625)"/>
     </defs>
     <use xlink:href="#DejaVuSans-Oblique-56" transform="translate(0 0.09375)"/>
     <use xlink:href="#DejaVuSans-Oblique-69" transform="translate(68.408203 -16.3125) scale(0.7)"/>
     <use xlink:href="#DejaVuSans-Oblique-6e" transform="translate(87.856445 -16.3125) scale(0.7)"/>
     <use xlink:href="#DejaVuSans-Oblique-4c" transform="translate(132.22168 -16.3125) scale(0.7)"/>
     <use xlink:href="#DejaVuSans-Oblique-46" transform="translate(171.220703 -16.3125) scale(0.7)"/>
    </g>
   </g>
   <g id="text_2">
    <!-- $V_{in HF}$ -->
    <g transform="translate(248.904 229.543125) scale(0.14 -0.14)">
     <defs>
      <path id="DejaVuSans-Oblique-48" d="M 1081 4666 
L 1716 4666 
L 1344 2753 
L 3634 2753 
L 4006 4666 
L 4641 4666 
L 3731 0 
L 3097 0 
L 3531 2222 
L 1241 2222 
L 806 0 
L 172 0 
L 1081 4666 
z
" transform="scale(0.015625)"/>
     </defs>
     <use xlink:href="#DejaVuSans-Oblique-56" transform="translate(0 0.09375)"/>
     <use xlink:href="#DejaVuSans-Oblique-69" transform="translate(68.408203 -16.3125) scale(0.7)"/>
     <use xlink:href="#DejaVuSans-Oblique-6e" transform="translate(87.856445 -16.3125) scale(0.7)"/>
     <use xlink:href="#DejaVuSans-Oblique-48" transform="translate(132.22168 -16.3125) scale(0.7)"/>
     <use xlink:href="#DejaVuSans-Oblique-46" transform="translate(184.858398 -16.3125) scale(0.7)"/>
    </g>
   </g>
   <g id="text_3">
    <!-- $C$ -->
    <g transform="translate(284.474 129.168438) scale(0.14 -0.14)">
     <defs>
      <path id="DejaVuSans-Oblique-43" d="M 4447 4306 
L 4319 3641 
Q 4019 3944 3683 4091 
Q 3347 4238 2956 4238 
Q 2422 4238 2017 3981 
Q 1613 3725 1319 3200 
Q 1131 2863 1032 2486 
Q 934 2109 934 1728 
Q 934 1091 1264 756 
Q 1594 422 2222 422 
Q 2656 422 3056 561 
Q 3456 700 3834 978 
L 3688 231 
Q 3316 72 2936 -9 
Q 2556 -91 2175 -91 
Q 1278 -91 773 396 
Q 269 884 269 1753 
Q 269 2309 461 2846 
Q 653 3384 1013 3828 
Q 1394 4300 1883 4525 
Q 2372 4750 3022 4750 
Q 3422 4750 3780 4639 
Q 4138 4528 4447 4306 
z
" transform="scale(0.015625)"/>
     </defs>
     <use xlink:href="#DejaVuSans-Oblique-43" transform="translate(0 0.78125)"/>
    </g>
   </g>
   <g id="text_4">
    <!-- $L$ -->
    <g transform="translate(334.005116 94.543125) scale(0.14 -0.14)">
     <use xlink:href="#DejaVuSans-Oblique-4c" transform="translate(0 0.09375)"/>
    </g>
   </g>
   <g id="text_5">
    <!-- $V_{dd}$ -->
    <g transform="translate(347.854 15.768437) scale(0.14 -0.14)">
     <defs>
      <path id="DejaVuSans-Oblique-64" d="M 2675 525 
Q 2444 222 2128 65 
Q 1813 -91 1428 -91 
Q 903 -91 598 267 
Q 294 625 294 1247 
Q 294 1766 478 2236 
Q 663 2706 1013 3078 
Q 1244 3325 1534 3454 
Q 1825 3584 2144 3584 
Q 2481 3584 2739 3421 
Q 2997 3259 3138 2956 
L 3513 4863 
L 4091 4863 
L 3144 0 
L 2566 0 
L 2675 525 
z
M 891 1350 
Q 891 897 1095 644 
Q 1300 391 1663 391 
Q 1931 391 2161 520 
Q 2391 650 2566 903 
Q 2750 1166 2856 1509 
Q 2963 1853 2963 2188 
Q 2963 2622 2758 2865 
Q 2553 3109 2194 3109 
Q 1922 3109 1687 2981 
Q 1453 2853 1288 2613 
Q 1106 2353 998 2009 
Q 891 1666 891 1350 
z
" transform="scale(0.015625)"/>
     </defs>
     <use xlink:href="#DejaVuSans-Oblique-56" transform="translate(0 0.09375)"/>
     <use xlink:href="#DejaVuSans-Oblique-64" transform="translate(68.408203 -16.3125) scale(0.7)"/>
     <use xlink:href="#DejaVuSans-Oblique-64" transform="translate(112.841797 -16.3125) scale(0.7)"/>
    </g>
   </g>
   <g id="text_6">
    <!-- Klasse B -->
    <g style="fill: #ff0000" transform="translate(1.047 193.543125) scale(0.14 -0.14)">
     <defs>
      <path id="DejaVuSans-4b" d="M 628 4666 
L 1259 4666 
L 1259 2694 
L 3353 4666 
L 4166 4666 
L 1850 2491 
L 4331 0 
L 3500 0 
L 1259 2247 
L 1259 0 
L 628 0 
L 628 4666 
z
" transform="scale(0.015625)"/>
      <path id="DejaVuSans-6c" d="M 603 4863 
L 1178 4863 
L 1178 0 
L 603 0 
L 603 4863 
z
" transform="scale(0.015625)"/>
      <path id="DejaVuSans-61" d="M 2194 1759 
Q 1497 1759 1228 1600 
Q 959 1441 959 1056 
Q 959 750 1161 570 
Q 1363 391 1709 391 
Q 2188 391 2477 730 
Q 2766 1069 2766 1631 
L 2766 1759 
L 2194 1759 
z
M 3341 1997 
L 3341 0 
L 2766 0 
L 2766 531 
Q 2569 213 2275 61 
Q 1981 -91 1556 -91 
Q 1019 -91 701 211 
Q 384 513 384 1019 
Q 384 1609 779 1909 
Q 1175 2209 1959 2209 
L 2766 2209 
L 2766 2266 
Q 2766 2663 2505 2880 
Q 2244 3097 1772 3097 
Q 1472 3097 1187 3025 
Q 903 2953 641 2809 
L 641 3341 
Q 956 3463 1253 3523 
Q 1550 3584 1831 3584 
Q 2591 3584 2966 3190 
Q 3341 2797 3341 1997 
z
" transform="scale(0.015625)"/>
      <path id="DejaVuSans-73" d="M 2834 3397 
L 2834 2853 
Q 2591 2978 2328 3040 
Q 2066 3103 1784 3103 
Q 1356 3103 1142 2972 
Q 928 2841 928 2578 
Q 928 2378 1081 2264 
Q 1234 2150 1697 2047 
L 1894 2003 
Q 2506 1872 2764 1633 
Q 3022 1394 3022 966 
Q 3022 478 2636 193 
Q 2250 -91 1575 -91 
Q 1294 -91 989 -36 
Q 684 19 347 128 
L 347 722 
Q 666 556 975 473 
Q 1284 391 1588 391 
Q 1994 391 2212 530 
Q 2431 669 2431 922 
Q 2431 1156 2273 1281 
Q 2116 1406 1581 1522 
L 1381 1569 
Q 847 1681 609 1914 
Q 372 2147 372 2553 
Q 372 3047 722 3315 
Q 1072 3584 1716 3584 
Q 2034 3584 2315 3537 
Q 2597 3491 2834 3397 
z
" transform="scale(0.015625)"/>
      <path id="DejaVuSans-65" d="M 3597 1894 
L 3597 1613 
L 953 1613 
Q 991 1019 1311 708 
Q 1631 397 2203 397 
Q 2534 397 2845 478 
Q 3156 559 3463 722 
L 3463 178 
Q 3153 47 2828 -22 
Q 2503 -91 2169 -91 
Q 1331 -91 842 396 
Q 353 884 353 1716 
Q 353 2575 817 3079 
Q 1281 3584 2069 3584 
Q 2775 3584 3186 3129 
Q 3597 2675 3597 1894 
z
M 3022 2063 
Q 3016 2534 2758 2815 
Q 2500 3097 2075 3097 
Q 1594 3097 1305 2825 
Q 1016 2553 972 2059 
L 3022 2063 
z
" transform="scale(0.015625)"/>
      <path id="DejaVuSans-20" transform="scale(0.015625)"/>
      <path id="DejaVuSans-42" d="M 1259 2228 
L 1259 519 
L 2272 519 
Q 2781 519 3026 730 
Q 3272 941 3272 1375 
Q 3272 1813 3026 2020 
Q 2781 2228 2272 2228 
L 1259 2228 
z
M 1259 4147 
L 1259 2741 
L 2194 2741 
Q 2656 2741 2882 2914 
Q 3109 3088 3109 3444 
Q 3109 3797 2882 3972 
Q 2656 4147 2194 4147 
L 1259 4147 
z
M 628 4666 
L 2241 4666 
Q 2963 4666 3353 4366 
Q 3744 4066 3744 3513 
Q 3744 3084 3544 2831 
Q 3344 2578 2956 2516 
Q 3422 2416 3680 2098 
Q 3938 1781 3938 1306 
Q 3938 681 3513 340 
Q 3088 0 2303 0 
L 628 0 
L 628 4666 
z
" transform="scale(0.015625)"/>
     </defs>
     <use xlink:href="#DejaVuSans-4b"/>
     <use xlink:href="#DejaVuSans-6c" transform="translate(65.576172 0)"/>
     <use xlink:href="#DejaVuSans-61" transform="translate(93.359375 0)"/>
     <use xlink:href="#DejaVuSans-73" transform="translate(154.638672 0)"/>
     <use xlink:href="#DejaVuSans-73" transform="translate(206.738281 0)"/>
     <use xlink:href="#DejaVuSans-65" transform="translate(258.837891 0)"/>
     <use xlink:href="#DejaVuSans-20" transform="translate(320.361328 0)"/>
     <use xlink:href="#DejaVuSans-42" transform="translate(352.148438 0)"/>
    </g>
   </g>
   <g id="text_7">
    <!-- Klasse C -->
    <g style="fill: #008000" transform="translate(433.824 263.743125) scale(0.14 -0.14)">
     <defs>
      <path id="DejaVuSans-43" d="M 4122 4306 
L 4122 3641 
Q 3803 3938 3442 4084 
Q 3081 4231 2675 4231 
Q 1875 4231 1450 3742 
Q 1025 3253 1025 2328 
Q 1025 1406 1450 917 
Q 1875 428 2675 428 
Q 3081 428 3442 575 
Q 3803 722 4122 1019 
L 4122 359 
Q 3791 134 3420 21 
Q 3050 -91 2638 -91 
Q 1578 -91 968 557 
Q 359 1206 359 2328 
Q 359 3453 968 4101 
Q 1578 4750 2638 4750 
Q 3056 4750 3426 4639 
Q 3797 4528 4122 4306 
z
" transform="scale(0.015625)"/>
     </defs>
     <use xlink:href="#DejaVuSans-4b"/>
     <use xlink:href="#DejaVuSans-6c" transform="translate(65.576172 0)"/>
     <use xlink:href="#DejaVuSans-61" transform="translate(93.359375 0)"/>
     <use xlink:href="#DejaVuSans-73" transform="translate(154.638672 0)"/>
     <use xlink:href="#DejaVuSans-73" transform="translate(206.738281 0)"/>
     <use xlink:href="#DejaVuSans-65" transform="translate(258.837891 0)"/>
     <use xlink:href="#DejaVuSans-20" transform="translate(320.361328 0)"/>
     <use xlink:href="#DejaVuSans-43" transform="translate(352.148438 0)"/>
    </g>
   </g>
   <g id="patch_14">
    <path d="M 291.624 255.38 
C 292.340048 255.38 293.026866 255.095511 293.533188 254.589188 
C 294.039511 254.082866 294.324 253.396048 294.324 252.68 
C 294.324 251.963952 294.039511 251.277134 293.533188 250.770812 
C 293.026866 250.264489 292.340048 249.98 291.624 249.98 
C 290.907952 249.98 290.221134 250.264489 289.714812 250.770812 
C 289.208489 251.277134 288.924 251.963952 288.924 252.68 
C 288.924 253.396048 289.208489 254.082866 289.714812 254.589188 
C 290.221134 255.095511 290.907952 255.38 291.624 255.38 
z
" clip-path="url(#pb42410144c)" style="stroke: #000000; stroke-width: 2; stroke-linejoin: miter"/>
   </g>
  </g>
 </g>
 <defs>
  <clipPath id="pb42410144c">
   <rect x="0" y="0" width="493.776" height="280.4"/>
  </clipPath>
 </defs>
</svg>