<?xml version="1.0" encoding="utf-8" standalone="no"?>
<!DOCTYPE svg PUBLIC "-//W3C//DTD SVG 1.1//EN"
  "http://www.w3.org/Graphics/SVG/1.1/DTD/svg11.dtd">
<svg xmlns:xlink="http://www.w3.org/1999/xlink" width="735.323438pt" height="479.63625pt" viewBox="0 0 735.323438 479.63625" xmlns="http://www.w3.org/2000/svg" version="1.1">
 <metadata>
  <rdf:RDF xmlns:dc="http://purl.org/dc/elements/1.1/" xmlns:cc="http://creativecommons.org/ns#" xmlns:rdf="http://www.w3.org/1999/02/22-rdf-syntax-ns#">
   <cc:Work>
    <dc:type rdf:resource="http://purl.org/dc/dcmitype/StillImage"/>
    <dc:date>2022-11-04T21:52:53.926596</dc:date>
    <dc:format>image/svg+xml</dc:format>
    <dc:creator>
     <cc:Agent>
      <dc:title>Matplotlib v3.5.3, https://matplotlib.org/</dc:title>
     </cc:Agent>
    </dc:creator>
   </cc:Work>
  </rdf:RDF>
 </metadata>
 <defs>
  <style type="text/css">*{stroke-linejoin: round; stroke-linecap: butt}</style>
 </defs>
 <g id="figure_1">
  <g id="patch_1">
   <path d="M 0 479.63625 
L 735.323438 479.63625 
L 735.323438 0 
L 0 0 
L 0 479.63625 
z
" style="fill: none"/>
  </g>
  <g id="axes_1">
   <g id="patch_2">
    <path d="M 52.160938 442.08 
L 721.760938 442.08 
L 721.760938 7.2 
L 52.160938 7.2 
z
" style="fill: #ffffff"/>
   </g>
   <g id="matplotlib.axis_1">
    <g id="xtick_1">
     <g id="line2d_1">
      <path d="M 52.160938 442.08 
L 52.160938 7.2 
" clip-path="url(#pcb30748e32)" style="fill: none; stroke: #b0b0b0; stroke-width: 0.8; stroke-linecap: square"/>
     </g>
     <g id="line2d_2">
      <defs>
       <path id="m57fe2e92a7" d="M 0 0 
L 0 3.5 
" style="stroke: #000000; stroke-width: 0.8"/>
      </defs>
      <g>
       <use xlink:href="#m57fe2e92a7" x="52.160938" y="442.08" style="stroke: #000000; stroke-width: 0.8"/>
      </g>
     </g>
     <g id="text_1">
      <!-- 0 -->
      <g transform="translate(48.979688 456.678437)scale(0.1 -0.1)">
       <defs>
        <path id="DejaVuSans-30" d="M 2034 4250 
Q 1547 4250 1301 3770 
Q 1056 3291 1056 2328 
Q 1056 1369 1301 889 
Q 1547 409 2034 409 
Q 2525 409 2770 889 
Q 3016 1369 3016 2328 
Q 3016 3291 2770 3770 
Q 2525 4250 2034 4250 
z
M 2034 4750 
Q 2819 4750 3233 4129 
Q 3647 3509 3647 2328 
Q 3647 1150 3233 529 
Q 2819 -91 2034 -91 
Q 1250 -91 836 529 
Q 422 1150 422 2328 
Q 422 3509 836 4129 
Q 1250 4750 2034 4750 
z
" transform="scale(0.015625)"/>
       </defs>
       <use xlink:href="#DejaVuSans-30"/>
      </g>
     </g>
    </g>
    <g id="xtick_2">
     <g id="line2d_3">
      <path d="M 186.080938 442.08 
L 186.080938 7.2 
" clip-path="url(#pcb30748e32)" style="fill: none; stroke: #b0b0b0; stroke-width: 0.8; stroke-linecap: square"/>
     </g>
     <g id="line2d_4">
      <g>
       <use xlink:href="#m57fe2e92a7" x="186.080938" y="442.08" style="stroke: #000000; stroke-width: 0.8"/>
      </g>
     </g>
     <g id="text_2">
      <!-- 2 -->
      <g transform="translate(182.899688 456.678437)scale(0.1 -0.1)">
       <defs>
        <path id="DejaVuSans-32" d="M 1228 531 
L 3431 531 
L 3431 0 
L 469 0 
L 469 531 
Q 828 903 1448 1529 
Q 2069 2156 2228 2338 
Q 2531 2678 2651 2914 
Q 2772 3150 2772 3378 
Q 2772 3750 2511 3984 
Q 2250 4219 1831 4219 
Q 1534 4219 1204 4116 
Q 875 4013 500 3803 
L 500 4441 
Q 881 4594 1212 4672 
Q 1544 4750 1819 4750 
Q 2544 4750 2975 4387 
Q 3406 4025 3406 3419 
Q 3406 3131 3298 2873 
Q 3191 2616 2906 2266 
Q 2828 2175 2409 1742 
Q 1991 1309 1228 531 
z
" transform="scale(0.015625)"/>
       </defs>
       <use xlink:href="#DejaVuSans-32"/>
      </g>
     </g>
    </g>
    <g id="xtick_3">
     <g id="line2d_5">
      <path d="M 320.000938 442.08 
L 320.000938 7.2 
" clip-path="url(#pcb30748e32)" style="fill: none; stroke: #b0b0b0; stroke-width: 0.8; stroke-linecap: square"/>
     </g>
     <g id="line2d_6">
      <g>
       <use xlink:href="#m57fe2e92a7" x="320.000938" y="442.08" style="stroke: #000000; stroke-width: 0.8"/>
      </g>
     </g>
     <g id="text_3">
      <!-- 4 -->
      <g transform="translate(316.819688 456.678437)scale(0.1 -0.1)">
       <defs>
        <path id="DejaVuSans-34" d="M 2419 4116 
L 825 1625 
L 2419 1625 
L 2419 4116 
z
M 2253 4666 
L 3047 4666 
L 3047 1625 
L 3713 1625 
L 3713 1100 
L 3047 1100 
L 3047 0 
L 2419 0 
L 2419 1100 
L 313 1100 
L 313 1709 
L 2253 4666 
z
" transform="scale(0.015625)"/>
       </defs>
       <use xlink:href="#DejaVuSans-34"/>
      </g>
     </g>
    </g>
    <g id="xtick_4">
     <g id="line2d_7">
      <path d="M 453.920938 442.08 
L 453.920938 7.2 
" clip-path="url(#pcb30748e32)" style="fill: none; stroke: #b0b0b0; stroke-width: 0.8; stroke-linecap: square"/>
     </g>
     <g id="line2d_8">
      <g>
       <use xlink:href="#m57fe2e92a7" x="453.920938" y="442.08" style="stroke: #000000; stroke-width: 0.8"/>
      </g>
     </g>
     <g id="text_4">
      <!-- 6 -->
      <g transform="translate(450.739688 456.678437)scale(0.1 -0.1)">
       <defs>
        <path id="DejaVuSans-36" d="M 2113 2584 
Q 1688 2584 1439 2293 
Q 1191 2003 1191 1497 
Q 1191 994 1439 701 
Q 1688 409 2113 409 
Q 2538 409 2786 701 
Q 3034 994 3034 1497 
Q 3034 2003 2786 2293 
Q 2538 2584 2113 2584 
z
M 3366 4563 
L 3366 3988 
Q 3128 4100 2886 4159 
Q 2644 4219 2406 4219 
Q 1781 4219 1451 3797 
Q 1122 3375 1075 2522 
Q 1259 2794 1537 2939 
Q 1816 3084 2150 3084 
Q 2853 3084 3261 2657 
Q 3669 2231 3669 1497 
Q 3669 778 3244 343 
Q 2819 -91 2113 -91 
Q 1303 -91 875 529 
Q 447 1150 447 2328 
Q 447 3434 972 4092 
Q 1497 4750 2381 4750 
Q 2619 4750 2861 4703 
Q 3103 4656 3366 4563 
z
" transform="scale(0.015625)"/>
       </defs>
       <use xlink:href="#DejaVuSans-36"/>
      </g>
     </g>
    </g>
    <g id="xtick_5">
     <g id="line2d_9">
      <path d="M 587.840938 442.08 
L 587.840938 7.2 
" clip-path="url(#pcb30748e32)" style="fill: none; stroke: #b0b0b0; stroke-width: 0.8; stroke-linecap: square"/>
     </g>
     <g id="line2d_10">
      <g>
       <use xlink:href="#m57fe2e92a7" x="587.840938" y="442.08" style="stroke: #000000; stroke-width: 0.8"/>
      </g>
     </g>
     <g id="text_5">
      <!-- 8 -->
      <g transform="translate(584.659688 456.678437)scale(0.1 -0.1)">
       <defs>
        <path id="DejaVuSans-38" d="M 2034 2216 
Q 1584 2216 1326 1975 
Q 1069 1734 1069 1313 
Q 1069 891 1326 650 
Q 1584 409 2034 409 
Q 2484 409 2743 651 
Q 3003 894 3003 1313 
Q 3003 1734 2745 1975 
Q 2488 2216 2034 2216 
z
M 1403 2484 
Q 997 2584 770 2862 
Q 544 3141 544 3541 
Q 544 4100 942 4425 
Q 1341 4750 2034 4750 
Q 2731 4750 3128 4425 
Q 3525 4100 3525 3541 
Q 3525 3141 3298 2862 
Q 3072 2584 2669 2484 
Q 3125 2378 3379 2068 
Q 3634 1759 3634 1313 
Q 3634 634 3220 271 
Q 2806 -91 2034 -91 
Q 1263 -91 848 271 
Q 434 634 434 1313 
Q 434 1759 690 2068 
Q 947 2378 1403 2484 
z
M 1172 3481 
Q 1172 3119 1398 2916 
Q 1625 2713 2034 2713 
Q 2441 2713 2670 2916 
Q 2900 3119 2900 3481 
Q 2900 3844 2670 4047 
Q 2441 4250 2034 4250 
Q 1625 4250 1398 4047 
Q 1172 3844 1172 3481 
z
" transform="scale(0.015625)"/>
       </defs>
       <use xlink:href="#DejaVuSans-38"/>
      </g>
     </g>
    </g>
    <g id="xtick_6">
     <g id="line2d_11">
      <path d="M 721.760938 442.08 
L 721.760938 7.2 
" clip-path="url(#pcb30748e32)" style="fill: none; stroke: #b0b0b0; stroke-width: 0.8; stroke-linecap: square"/>
     </g>
     <g id="line2d_12">
      <g>
       <use xlink:href="#m57fe2e92a7" x="721.760938" y="442.08" style="stroke: #000000; stroke-width: 0.8"/>
      </g>
     </g>
     <g id="text_6">
      <!-- 10 -->
      <g transform="translate(715.398438 456.678437)scale(0.1 -0.1)">
       <defs>
        <path id="DejaVuSans-31" d="M 794 531 
L 1825 531 
L 1825 4091 
L 703 3866 
L 703 4441 
L 1819 4666 
L 2450 4666 
L 2450 531 
L 3481 531 
L 3481 0 
L 794 0 
L 794 531 
z
" transform="scale(0.015625)"/>
       </defs>
       <use xlink:href="#DejaVuSans-31"/>
       <use xlink:href="#DejaVuSans-30" x="63.623047"/>
      </g>
     </g>
    </g>
    <g id="text_7">
     <!-- tijd [us] -->
     <g transform="translate(367.784375 470.356562)scale(0.1 -0.1)">
      <defs>
       <path id="DejaVuSans-74" d="M 1172 4494 
L 1172 3500 
L 2356 3500 
L 2356 3053 
L 1172 3053 
L 1172 1153 
Q 1172 725 1289 603 
Q 1406 481 1766 481 
L 2356 481 
L 2356 0 
L 1766 0 
Q 1100 0 847 248 
Q 594 497 594 1153 
L 594 3053 
L 172 3053 
L 172 3500 
L 594 3500 
L 594 4494 
L 1172 4494 
z
" transform="scale(0.015625)"/>
       <path id="DejaVuSans-69" d="M 603 3500 
L 1178 3500 
L 1178 0 
L 603 0 
L 603 3500 
z
M 603 4863 
L 1178 4863 
L 1178 4134 
L 603 4134 
L 603 4863 
z
" transform="scale(0.015625)"/>
       <path id="DejaVuSans-6a" d="M 603 3500 
L 1178 3500 
L 1178 -63 
Q 1178 -731 923 -1031 
Q 669 -1331 103 -1331 
L -116 -1331 
L -116 -844 
L 38 -844 
Q 366 -844 484 -692 
Q 603 -541 603 -63 
L 603 3500 
z
M 603 4863 
L 1178 4863 
L 1178 4134 
L 603 4134 
L 603 4863 
z
" transform="scale(0.015625)"/>
       <path id="DejaVuSans-64" d="M 2906 2969 
L 2906 4863 
L 3481 4863 
L 3481 0 
L 2906 0 
L 2906 525 
Q 2725 213 2448 61 
Q 2172 -91 1784 -91 
Q 1150 -91 751 415 
Q 353 922 353 1747 
Q 353 2572 751 3078 
Q 1150 3584 1784 3584 
Q 2172 3584 2448 3432 
Q 2725 3281 2906 2969 
z
M 947 1747 
Q 947 1113 1208 752 
Q 1469 391 1925 391 
Q 2381 391 2643 752 
Q 2906 1113 2906 1747 
Q 2906 2381 2643 2742 
Q 2381 3103 1925 3103 
Q 1469 3103 1208 2742 
Q 947 2381 947 1747 
z
" transform="scale(0.015625)"/>
       <path id="DejaVuSans-20" transform="scale(0.015625)"/>
       <path id="DejaVuSans-5b" d="M 550 4863 
L 1875 4863 
L 1875 4416 
L 1125 4416 
L 1125 -397 
L 1875 -397 
L 1875 -844 
L 550 -844 
L 550 4863 
z
" transform="scale(0.015625)"/>
       <path id="DejaVuSans-75" d="M 544 1381 
L 544 3500 
L 1119 3500 
L 1119 1403 
Q 1119 906 1312 657 
Q 1506 409 1894 409 
Q 2359 409 2629 706 
Q 2900 1003 2900 1516 
L 2900 3500 
L 3475 3500 
L 3475 0 
L 2900 0 
L 2900 538 
Q 2691 219 2414 64 
Q 2138 -91 1772 -91 
Q 1169 -91 856 284 
Q 544 659 544 1381 
z
M 1991 3584 
L 1991 3584 
z
" transform="scale(0.015625)"/>
       <path id="DejaVuSans-73" d="M 2834 3397 
L 2834 2853 
Q 2591 2978 2328 3040 
Q 2066 3103 1784 3103 
Q 1356 3103 1142 2972 
Q 928 2841 928 2578 
Q 928 2378 1081 2264 
Q 1234 2150 1697 2047 
L 1894 2003 
Q 2506 1872 2764 1633 
Q 3022 1394 3022 966 
Q 3022 478 2636 193 
Q 2250 -91 1575 -91 
Q 1294 -91 989 -36 
Q 684 19 347 128 
L 347 722 
Q 666 556 975 473 
Q 1284 391 1588 391 
Q 1994 391 2212 530 
Q 2431 669 2431 922 
Q 2431 1156 2273 1281 
Q 2116 1406 1581 1522 
L 1381 1569 
Q 847 1681 609 1914 
Q 372 2147 372 2553 
Q 372 3047 722 3315 
Q 1072 3584 1716 3584 
Q 2034 3584 2315 3537 
Q 2597 3491 2834 3397 
z
" transform="scale(0.015625)"/>
       <path id="DejaVuSans-5d" d="M 1947 4863 
L 1947 -844 
L 622 -844 
L 622 -397 
L 1369 -397 
L 1369 4416 
L 622 4416 
L 622 4863 
L 1947 4863 
z
" transform="scale(0.015625)"/>
      </defs>
      <use xlink:href="#DejaVuSans-74"/>
      <use xlink:href="#DejaVuSans-69" x="39.208984"/>
      <use xlink:href="#DejaVuSans-6a" x="66.992188"/>
      <use xlink:href="#DejaVuSans-64" x="94.775391"/>
      <use xlink:href="#DejaVuSans-20" x="158.251953"/>
      <use xlink:href="#DejaVuSans-5b" x="190.039062"/>
      <use xlink:href="#DejaVuSans-75" x="229.052734"/>
      <use xlink:href="#DejaVuSans-73" x="292.431641"/>
      <use xlink:href="#DejaVuSans-5d" x="344.53125"/>
     </g>
    </g>
   </g>
   <g id="matplotlib.axis_2">
    <g id="ytick_1">
     <g id="line2d_13">
      <path d="M 52.160938 429.293768 
L 721.760938 429.293768 
" clip-path="url(#pcb30748e32)" style="fill: none; stroke: #b0b0b0; stroke-width: 0.8; stroke-linecap: square"/>
     </g>
     <g id="line2d_14">
      <defs>
       <path id="mee5a68972a" d="M 0 0 
L -3.5 0 
" style="stroke: #000000; stroke-width: 0.8"/>
      </defs>
      <g>
       <use xlink:href="#mee5a68972a" x="52.160938" y="429.293768" style="stroke: #000000; stroke-width: 0.8"/>
      </g>
     </g>
     <g id="text_8">
      <!-- −2.0 -->
      <g transform="translate(20.878125 433.092987)scale(0.1 -0.1)">
       <defs>
        <path id="DejaVuSans-2212" d="M 678 2272 
L 4684 2272 
L 4684 1741 
L 678 1741 
L 678 2272 
z
" transform="scale(0.015625)"/>
        <path id="DejaVuSans-2e" d="M 684 794 
L 1344 794 
L 1344 0 
L 684 0 
L 684 794 
z
" transform="scale(0.015625)"/>
       </defs>
       <use xlink:href="#DejaVuSans-2212"/>
       <use xlink:href="#DejaVuSans-32" x="83.789062"/>
       <use xlink:href="#DejaVuSans-2e" x="147.412109"/>
       <use xlink:href="#DejaVuSans-30" x="179.199219"/>
      </g>
     </g>
    </g>
    <g id="ytick_2">
     <g id="line2d_15">
      <path d="M 52.160938 378.131042 
L 721.760938 378.131042 
" clip-path="url(#pcb30748e32)" style="fill: none; stroke: #b0b0b0; stroke-width: 0.8; stroke-linecap: square"/>
     </g>
     <g id="line2d_16">
      <g>
       <use xlink:href="#mee5a68972a" x="52.160938" y="378.131042" style="stroke: #000000; stroke-width: 0.8"/>
      </g>
     </g>
     <g id="text_9">
      <!-- −1.5 -->
      <g transform="translate(20.878125 381.930261)scale(0.1 -0.1)">
       <defs>
        <path id="DejaVuSans-35" d="M 691 4666 
L 3169 4666 
L 3169 4134 
L 1269 4134 
L 1269 2991 
Q 1406 3038 1543 3061 
Q 1681 3084 1819 3084 
Q 2600 3084 3056 2656 
Q 3513 2228 3513 1497 
Q 3513 744 3044 326 
Q 2575 -91 1722 -91 
Q 1428 -91 1123 -41 
Q 819 9 494 109 
L 494 744 
Q 775 591 1075 516 
Q 1375 441 1709 441 
Q 2250 441 2565 725 
Q 2881 1009 2881 1497 
Q 2881 1984 2565 2268 
Q 2250 2553 1709 2553 
Q 1456 2553 1204 2497 
Q 953 2441 691 2322 
L 691 4666 
z
" transform="scale(0.015625)"/>
       </defs>
       <use xlink:href="#DejaVuSans-2212"/>
       <use xlink:href="#DejaVuSans-31" x="83.789062"/>
       <use xlink:href="#DejaVuSans-2e" x="147.412109"/>
       <use xlink:href="#DejaVuSans-35" x="179.199219"/>
      </g>
     </g>
    </g>
    <g id="ytick_3">
     <g id="line2d_17">
      <path d="M 52.160938 326.968316 
L 721.760938 326.968316 
" clip-path="url(#pcb30748e32)" style="fill: none; stroke: #b0b0b0; stroke-width: 0.8; stroke-linecap: square"/>
     </g>
     <g id="line2d_18">
      <g>
       <use xlink:href="#mee5a68972a" x="52.160938" y="326.968316" style="stroke: #000000; stroke-width: 0.8"/>
      </g>
     </g>
     <g id="text_10">
      <!-- −1.0 -->
      <g transform="translate(20.878125 330.767535)scale(0.1 -0.1)">
       <use xlink:href="#DejaVuSans-2212"/>
       <use xlink:href="#DejaVuSans-31" x="83.789062"/>
       <use xlink:href="#DejaVuSans-2e" x="147.412109"/>
       <use xlink:href="#DejaVuSans-30" x="179.199219"/>
      </g>
     </g>
    </g>
    <g id="ytick_4">
     <g id="line2d_19">
      <path d="M 52.160938 275.80559 
L 721.760938 275.80559 
" clip-path="url(#pcb30748e32)" style="fill: none; stroke: #b0b0b0; stroke-width: 0.8; stroke-linecap: square"/>
     </g>
     <g id="line2d_20">
      <g>
       <use xlink:href="#mee5a68972a" x="52.160938" y="275.80559" style="stroke: #000000; stroke-width: 0.8"/>
      </g>
     </g>
     <g id="text_11">
      <!-- −0.5 -->
      <g transform="translate(20.878125 279.604809)scale(0.1 -0.1)">
       <use xlink:href="#DejaVuSans-2212"/>
       <use xlink:href="#DejaVuSans-30" x="83.789062"/>
       <use xlink:href="#DejaVuSans-2e" x="147.412109"/>
       <use xlink:href="#DejaVuSans-35" x="179.199219"/>
      </g>
     </g>
    </g>
    <g id="ytick_5">
     <g id="line2d_21">
      <path d="M 52.160938 224.642864 
L 721.760938 224.642864 
" clip-path="url(#pcb30748e32)" style="fill: none; stroke: #b0b0b0; stroke-width: 0.8; stroke-linecap: square"/>
     </g>
     <g id="line2d_22">
      <g>
       <use xlink:href="#mee5a68972a" x="52.160938" y="224.642864" style="stroke: #000000; stroke-width: 0.8"/>
      </g>
     </g>
     <g id="text_12">
      <!-- 0.0 -->
      <g transform="translate(29.257813 228.442083)scale(0.1 -0.1)">
       <use xlink:href="#DejaVuSans-30"/>
       <use xlink:href="#DejaVuSans-2e" x="63.623047"/>
       <use xlink:href="#DejaVuSans-30" x="95.410156"/>
      </g>
     </g>
    </g>
    <g id="ytick_6">
     <g id="line2d_23">
      <path d="M 52.160938 173.480138 
L 721.760938 173.480138 
" clip-path="url(#pcb30748e32)" style="fill: none; stroke: #b0b0b0; stroke-width: 0.8; stroke-linecap: square"/>
     </g>
     <g id="line2d_24">
      <g>
       <use xlink:href="#mee5a68972a" x="52.160938" y="173.480138" style="stroke: #000000; stroke-width: 0.8"/>
      </g>
     </g>
     <g id="text_13">
      <!-- 0.5 -->
      <g transform="translate(29.257813 177.279357)scale(0.1 -0.1)">
       <use xlink:href="#DejaVuSans-30"/>
       <use xlink:href="#DejaVuSans-2e" x="63.623047"/>
       <use xlink:href="#DejaVuSans-35" x="95.410156"/>
      </g>
     </g>
    </g>
    <g id="ytick_7">
     <g id="line2d_25">
      <path d="M 52.160938 122.317412 
L 721.760938 122.317412 
" clip-path="url(#pcb30748e32)" style="fill: none; stroke: #b0b0b0; stroke-width: 0.8; stroke-linecap: square"/>
     </g>
     <g id="line2d_26">
      <g>
       <use xlink:href="#mee5a68972a" x="52.160938" y="122.317412" style="stroke: #000000; stroke-width: 0.8"/>
      </g>
     </g>
     <g id="text_14">
      <!-- 1.0 -->
      <g transform="translate(29.257813 126.116631)scale(0.1 -0.1)">
       <use xlink:href="#DejaVuSans-31"/>
       <use xlink:href="#DejaVuSans-2e" x="63.623047"/>
       <use xlink:href="#DejaVuSans-30" x="95.410156"/>
      </g>
     </g>
    </g>
    <g id="ytick_8">
     <g id="line2d_27">
      <path d="M 52.160938 71.154686 
L 721.760938 71.154686 
" clip-path="url(#pcb30748e32)" style="fill: none; stroke: #b0b0b0; stroke-width: 0.8; stroke-linecap: square"/>
     </g>
     <g id="line2d_28">
      <g>
       <use xlink:href="#mee5a68972a" x="52.160938" y="71.154686" style="stroke: #000000; stroke-width: 0.8"/>
      </g>
     </g>
     <g id="text_15">
      <!-- 1.5 -->
      <g transform="translate(29.257813 74.953905)scale(0.1 -0.1)">
       <use xlink:href="#DejaVuSans-31"/>
       <use xlink:href="#DejaVuSans-2e" x="63.623047"/>
       <use xlink:href="#DejaVuSans-35" x="95.410156"/>
      </g>
     </g>
    </g>
    <g id="ytick_9">
     <g id="line2d_29">
      <path d="M 52.160938 19.99196 
L 721.760938 19.99196 
" clip-path="url(#pcb30748e32)" style="fill: none; stroke: #b0b0b0; stroke-width: 0.8; stroke-linecap: square"/>
     </g>
     <g id="line2d_30">
      <g>
       <use xlink:href="#mee5a68972a" x="52.160938" y="19.99196" style="stroke: #000000; stroke-width: 0.8"/>
      </g>
     </g>
     <g id="text_16">
      <!-- 2.0 -->
      <g transform="translate(29.257813 23.791179)scale(0.1 -0.1)">
       <use xlink:href="#DejaVuSans-32"/>
       <use xlink:href="#DejaVuSans-2e" x="63.623047"/>
       <use xlink:href="#DejaVuSans-30" x="95.410156"/>
      </g>
     </g>
    </g>
    <g id="text_17">
     <!-- stroom [A] -->
     <g transform="translate(14.798438 251.047812)rotate(-90)scale(0.1 -0.1)">
      <defs>
       <path id="DejaVuSans-72" d="M 2631 2963 
Q 2534 3019 2420 3045 
Q 2306 3072 2169 3072 
Q 1681 3072 1420 2755 
Q 1159 2438 1159 1844 
L 1159 0 
L 581 0 
L 581 3500 
L 1159 3500 
L 1159 2956 
Q 1341 3275 1631 3429 
Q 1922 3584 2338 3584 
Q 2397 3584 2469 3576 
Q 2541 3569 2628 3553 
L 2631 2963 
z
" transform="scale(0.015625)"/>
       <path id="DejaVuSans-6f" d="M 1959 3097 
Q 1497 3097 1228 2736 
Q 959 2375 959 1747 
Q 959 1119 1226 758 
Q 1494 397 1959 397 
Q 2419 397 2687 759 
Q 2956 1122 2956 1747 
Q 2956 2369 2687 2733 
Q 2419 3097 1959 3097 
z
M 1959 3584 
Q 2709 3584 3137 3096 
Q 3566 2609 3566 1747 
Q 3566 888 3137 398 
Q 2709 -91 1959 -91 
Q 1206 -91 779 398 
Q 353 888 353 1747 
Q 353 2609 779 3096 
Q 1206 3584 1959 3584 
z
" transform="scale(0.015625)"/>
       <path id="DejaVuSans-6d" d="M 3328 2828 
Q 3544 3216 3844 3400 
Q 4144 3584 4550 3584 
Q 5097 3584 5394 3201 
Q 5691 2819 5691 2113 
L 5691 0 
L 5113 0 
L 5113 2094 
Q 5113 2597 4934 2840 
Q 4756 3084 4391 3084 
Q 3944 3084 3684 2787 
Q 3425 2491 3425 1978 
L 3425 0 
L 2847 0 
L 2847 2094 
Q 2847 2600 2669 2842 
Q 2491 3084 2119 3084 
Q 1678 3084 1418 2786 
Q 1159 2488 1159 1978 
L 1159 0 
L 581 0 
L 581 3500 
L 1159 3500 
L 1159 2956 
Q 1356 3278 1631 3431 
Q 1906 3584 2284 3584 
Q 2666 3584 2933 3390 
Q 3200 3197 3328 2828 
z
" transform="scale(0.015625)"/>
       <path id="DejaVuSans-41" d="M 2188 4044 
L 1331 1722 
L 3047 1722 
L 2188 4044 
z
M 1831 4666 
L 2547 4666 
L 4325 0 
L 3669 0 
L 3244 1197 
L 1141 1197 
L 716 0 
L 50 0 
L 1831 4666 
z
" transform="scale(0.015625)"/>
      </defs>
      <use xlink:href="#DejaVuSans-73"/>
      <use xlink:href="#DejaVuSans-74" x="52.099609"/>
      <use xlink:href="#DejaVuSans-72" x="91.308594"/>
      <use xlink:href="#DejaVuSans-6f" x="130.171875"/>
      <use xlink:href="#DejaVuSans-6f" x="191.353516"/>
      <use xlink:href="#DejaVuSans-6d" x="252.535156"/>
      <use xlink:href="#DejaVuSans-20" x="349.947266"/>
      <use xlink:href="#DejaVuSans-5b" x="381.734375"/>
      <use xlink:href="#DejaVuSans-41" x="420.748047"/>
      <use xlink:href="#DejaVuSans-5d" x="489.15625"/>
     </g>
    </g>
   </g>
   <g id="line2d_31">
    <path d="M 52.160938 224.642864 
L 52.292264 224.548036 
L 52.452968 223.942455 
L 52.694024 221.971542 
L 53.028824 217.15526 
L 53.47076 207.216044 
L 55.046914 167.466663 
L 56.265586 142.326042 
L 57.350338 124.311037 
L 58.314562 111.807388 
L 59.158258 103.557252 
L 59.894818 98.362339 
L 60.524242 95.360162 
L 61.04653 93.839285 
L 61.448289 93.247394 
L 61.756305 93.123238 
L 62.037537 93.25271 
L 62.358945 93.676554 
L 62.774097 94.64486 
L 63.282993 96.450051 
L 63.912417 99.567075 
L 64.675761 104.549629 
L 65.599809 112.139837 
L 66.738129 123.449019 
L 68.211249 140.488703 
L 70.528065 170.273404 
L 73.675186 213.05288 
L 74.291218 224.642864 
L 95.316658 224.642864 
L 95.959474 198.913921 
L 97.379026 146.928974 
L 98.61109 109.496548 
L 99.709234 82.539872 
L 100.673458 63.955392 
L 101.530546 51.409395 
L 102.280498 43.436706 
L 102.923314 38.768399 
L 103.458994 36.352246 
L 103.874146 35.369315 
L 104.16877 35.128233 
L 104.396434 35.194721 
L 104.664274 35.548374 
L 105.012466 36.44122 
L 105.454402 38.253833 
L 106.016866 41.604404 
L 106.699858 47.134946 
L 107.530162 55.809917 
L 108.534562 68.78157 
L 109.79341 88.121428 
L 111.494194 117.999754 
L 115.538578 194.49297 
L 116.047474 209.695629 
L 116.580475 224.642864 
L 137.501458 224.625397 
L 139.470082 146.740882 
L 140.715538 106.984665 
L 141.813682 78.605519 
L 142.791298 58.726738 
L 143.661778 45.281755 
L 144.41173 36.849314 
L 145.054546 31.874392 
L 145.590226 29.263079 
L 146.01877 28.143486 
L 146.326786 27.854146 
L 146.55445 27.909922 
L 146.808898 28.23707 
L 147.143698 29.082275 
L 147.572242 30.827944 
L 148.121314 34.100902 
L 148.790914 39.561914 
L 149.607826 48.207582 
L 150.598834 61.241275 
L 151.830898 80.603469 
L 153.464722 110.081757 
L 157.455538 187.862346 
L 157.93765 201.174539 
L 158.754562 224.642864 
L 179.579122 224.642864 
L 181.30669 155.012925 
L 182.57893 112.776478 
L 183.703858 82.397081 
L 184.708258 60.961297 
L 185.59213 46.539487 
L 186.368866 37.238413 
L 187.038466 31.680725 
L 187.587538 28.765982 
L 188.029474 27.45752 
L 188.350882 27.068488 
L 188.591938 27.079098 
L 188.832994 27.342743 
L 189.154402 28.077892 
L 189.569554 29.654939 
L 190.091842 32.597557 
L 190.734658 37.592786 
L 191.524786 45.627432 
L 192.475618 57.728865 
L 193.654114 75.770042 
L 195.194194 103.056202 
L 197.859202 155.022486 
L 199.868002 196.790241 
L 200.443858 217.55417 
L 200.711698 224.642864 
L 221.630002 224.642864 
L 221.81749 216.710276 
L 223.29061 157.615329 
L 224.576242 114.498258 
L 225.714562 83.435152 
L 226.718962 61.749493 
L 227.602834 47.111495 
L 228.37957 37.626076 
L 229.04917 31.915344 
L 229.611634 28.824082 
L 230.05357 27.449841 
L 230.38837 27.006549 
L 230.629426 26.997686 
L 230.870482 27.242378 
L 231.178498 27.914866 
L 231.580258 29.379376 
L 232.089154 32.146868 
L 232.718578 36.894372 
L 233.481922 44.452151 
L 234.419362 56.116648 
L 235.571074 73.440099 
L 237.057586 99.429496 
L 239.441362 145.632061 
L 241.932274 197.094905 
L 242.50813 218.019078 
L 242.77597 224.642864 
L 263.680882 224.642864 
L 263.828194 218.493969 
L 265.314706 158.632006 
L 266.600338 115.33618 
L 267.738658 84.106721 
L 268.743058 62.272319 
L 269.640322 47.312646 
L 270.417058 37.769794 
L 271.086658 32.011138 
L 271.649122 28.881053 
L 272.10445 27.448982 
L 272.43925 27.004355 
L 272.680306 26.994559 
L 272.921362 27.238343 
L 273.229378 27.909705 
L 273.631138 29.372809 
L 274.140034 32.138626 
L 274.769458 36.884226 
L 275.532802 44.439955 
L 276.470242 56.102329 
L 277.621954 73.423775 
L 279.108466 99.41155 
L 281.492242 145.613622 
L 283.983154 197.078281 
L 284.55901 218.003156 
L 284.82685 224.642864 
L 305.731762 224.642864 
L 305.865682 219.083553 
L 307.352194 159.131422 
L 308.637825 115.748725 
L 309.776145 84.438269 
L 310.780545 62.53134 
L 311.677809 47.507431 
L 312.467937 37.772019 
L 313.137537 32.012919 
L 313.700001 28.882467 
L 314.155329 27.450105 
L 314.490129 27.005269 
L 314.731185 26.995324 
L 314.972241 27.238962 
L 315.280257 27.91014 
L 315.682017 29.373011 
L 316.190913 32.138543 
L 316.820337 36.88381 
L 317.583681 44.439164 
L 318.521121 56.101125 
L 319.672833 73.422141 
L 321.159345 99.409491 
L 323.543121 145.611189 
L 326.034033 197.075829 
L 326.609889 218.000749 
L 326.877729 224.642864 
L 347.782641 224.642864 
L 347.916561 219.084448 
L 349.403073 159.132271 
L 350.688705 115.749509 
L 351.827025 84.438978 
L 352.831425 62.531972 
L 353.728689 47.507989 
L 354.518817 37.772509 
L 355.188417 32.01335 
L 355.750881 28.882847 
L 356.206209 27.450445 
L 356.541009 27.005578 
L 356.782065 26.995612 
L 357.023121 27.239228 
L 357.331137 27.910379 
L 357.732897 29.373215 
L 358.241793 32.138703 
L 358.871217 36.883917 
L 359.634561 44.439209 
L 360.572001 56.101101 
L 361.723713 73.422038 
L 363.210225 99.409303 
L 365.594001 145.610906 
L 368.084913 197.0755 
L 368.660769 218.000417 
L 368.928609 224.642864 
L 389.833521 224.642864 
L 389.967442 219.084567 
L 391.453953 159.132392 
L 392.739585 115.749627 
L 393.877905 84.439091 
L 394.882305 62.532078 
L 395.779569 47.508087 
L 396.569697 37.772599 
L 397.239297 32.013433 
L 397.801761 28.882924 
L 398.257089 27.450516 
L 398.591889 27.005646 
L 398.832945 26.995677 
L 399.074001 27.23929 
L 399.382017 27.910438 
L 399.783777 29.373268 
L 400.292673 32.13875 
L 400.922097 36.883957 
L 401.685441 44.43924 
L 402.622881 56.10112 
L 403.774593 73.422045 
L 405.261105 99.409296 
L 407.644881 145.610879 
L 410.135793 197.075461 
L 410.711649 218.000376 
L 410.979489 224.642864 
L 431.884401 224.642864 
L 432.018321 219.084581 
L 433.504833 159.132408 
L 434.790465 115.749643 
L 435.928785 84.439107 
L 436.933185 62.532094 
L 437.830449 47.508103 
L 438.620577 37.772614 
L 439.290177 32.013447 
L 439.852641 28.882938 
L 440.307969 27.450529 
L 440.642769 27.005659 
L 440.883825 26.995689 
L 441.124881 27.239302 
L 441.432897 27.910449 
L 441.834657 29.373279 
L 442.343553 32.13876 
L 442.972977 36.883966 
L 443.736321 44.439248 
L 444.673761 56.101126 
L 445.825473 73.422049 
L 447.311985 99.409298 
L 449.695761 145.610878 
L 452.186673 197.075457 
L 452.762529 218.000371 
L 453.030369 224.642864 
L 473.935281 224.642864 
L 474.069201 219.084582 
L 475.555713 159.13241 
L 476.841345 115.749645 
L 477.979665 84.439109 
L 478.984065 62.532097 
L 479.881329 47.508105 
L 480.671457 37.772616 
L 481.341057 32.01345 
L 481.903521 28.88294 
L 482.358849 27.450531 
L 482.693649 27.005661 
L 482.934705 26.995691 
L 483.175761 27.239304 
L 483.483777 27.910451 
L 483.885537 29.373281 
L 484.394433 32.138762 
L 485.023857 36.883968 
L 485.787201 44.439249 
L 486.724641 56.101128 
L 487.876353 73.422051 
L 489.362865 99.409298 
L 491.746641 145.610878 
L 494.237553 197.075457 
L 494.813409 218.000371 
L 495.081249 224.642864 
L 515.986161 224.642864 
L 516.120081 219.084582 
L 517.606593 159.13241 
L 518.892225 115.749645 
L 520.030545 84.43911 
L 521.034945 62.532097 
L 521.932209 47.508105 
L 522.722337 37.772617 
L 523.391937 32.01345 
L 523.954401 28.88294 
L 524.409729 27.450532 
L 524.744529 27.005661 
L 524.985585 26.995691 
L 525.226641 27.239304 
L 525.534657 27.910451 
L 525.936417 29.373281 
L 526.445313 32.138762 
L 527.074737 36.883968 
L 527.838081 44.43925 
L 528.775521 56.101128 
L 529.927233 73.422051 
L 531.413745 99.409299 
L 533.797521 145.610878 
L 536.288433 197.075457 
L 536.864289 218.000371 
L 537.13213 224.642864 
L 558.037041 224.642864 
L 558.170961 219.084582 
L 559.657473 159.13241 
L 560.943105 115.749645 
L 562.081425 84.43911 
L 563.085825 62.532097 
L 563.983089 47.508105 
L 564.773217 37.772617 
L 565.442817 32.01345 
L 566.005281 28.88294 
L 566.460609 27.450532 
L 566.795409 27.005661 
L 567.036465 26.995691 
L 567.277521 27.239304 
L 567.585538 27.910451 
L 567.987298 29.373281 
L 568.496194 32.138762 
L 569.125618 36.883968 
L 569.888962 44.43925 
L 570.826402 56.101128 
L 571.978114 73.422051 
L 573.464626 99.409299 
L 575.848402 145.610878 
L 578.339314 197.075457 
L 578.91517 218.000371 
L 579.18301 224.642864 
L 600.087922 224.642864 
L 600.221842 219.084582 
L 601.708354 159.13241 
L 602.993986 115.749645 
L 604.132306 84.43911 
L 605.136706 62.532097 
L 606.03397 47.508105 
L 606.824098 37.772617 
L 607.493698 32.01345 
L 608.056162 28.88294 
L 608.51149 27.450532 
L 608.84629 27.005661 
L 609.087346 26.995691 
L 609.328402 27.239304 
L 609.636418 27.910451 
L 610.038178 29.373281 
L 610.547074 32.138762 
L 611.176498 36.883968 
L 611.939842 44.43925 
L 612.877282 56.101128 
L 614.028994 73.422051 
L 615.515506 99.409299 
L 617.899282 145.610878 
L 620.390194 197.075457 
L 620.96605 218.000371 
L 621.23389 224.642864 
L 642.138802 224.642864 
L 642.272722 219.084582 
L 643.759234 159.13241 
L 645.044866 115.749645 
L 646.183186 84.43911 
L 647.187586 62.532097 
L 648.08485 47.508105 
L 648.874978 37.772617 
L 649.544578 32.01345 
L 650.107042 28.88294 
L 650.56237 27.450532 
L 650.89717 27.005661 
L 651.138226 26.995691 
L 651.379282 27.239304 
L 651.687298 27.910451 
L 652.089058 29.373281 
L 652.597954 32.138762 
L 653.227378 36.883968 
L 653.990722 44.43925 
L 654.928162 56.101128 
L 656.079874 73.422051 
L 657.566386 99.409299 
L 659.950162 145.610878 
L 662.441074 197.075457 
L 663.01693 218.000371 
L 663.28477 224.642864 
L 684.189682 224.642864 
L 684.323602 219.084582 
L 685.810114 159.13241 
L 687.095746 115.749645 
L 688.234066 84.43911 
L 689.238466 62.532097 
L 690.13573 47.508105 
L 690.925858 37.772617 
L 691.595458 32.01345 
L 692.157922 28.88294 
L 692.61325 27.450532 
L 692.94805 27.005661 
L 693.189106 26.995691 
L 693.430162 27.239304 
L 693.738178 27.910451 
L 694.139938 29.373281 
L 694.648834 32.138762 
L 695.278258 36.883968 
L 696.041602 44.43925 
L 696.979042 56.101128 
L 698.130754 73.422051 
L 699.617266 99.409299 
L 702.001042 145.610878 
L 704.491954 197.075457 
L 705.06781 218.000371 
L 705.33565 224.642864 
L 721.760938 224.642864 
L 721.760938 224.642864 
" clip-path="url(#pcb30748e32)" style="fill: none; stroke: #1f77b4; stroke-width: 1.5; stroke-linecap: square"/>
   </g>
   <g id="line2d_32">
    <path d="M 52.160938 224.642864 
L 74.10373 224.692735 
L 74.733154 246.502238 
L 76.152706 294.567474 
L 77.398162 329.575849 
L 78.496306 354.526177 
L 79.473922 371.968875 
L 80.33101 383.5805 
L 81.080962 390.976851 
L 81.723778 395.324516 
L 82.259458 397.5912 
L 82.67461 398.529196 
L 82.982626 398.777748 
L 83.223682 398.713563 
L 83.491522 398.382371 
L 83.839714 397.554135 
L 84.295042 395.817798 
L 84.857506 392.703095 
L 85.540498 387.581408 
L 86.370802 379.567788 
L 87.388594 367.432037 
L 88.660834 349.390386 
L 90.37501 321.635843 
L 94.539922 249.186099 
L 95.048818 234.506978 
L 95.437186 224.642864 
L 116.42245 224.642864 
L 116.462626 225.85543 
L 118.538386 306.426835 
L 119.77045 344.597305 
L 120.855202 371.718608 
L 121.819426 390.627314 
L 122.676514 403.34968 
L 123.426466 411.394565 
L 124.05589 415.99017 
L 124.578178 418.361163 
L 124.99333 419.344872 
L 125.287954 419.574008 
L 125.515618 419.4914 
L 125.783458 419.111305 
L 126.13165 418.172375 
L 126.586978 416.213932 
L 127.149442 412.710117 
L 127.845826 406.829353 
L 128.689522 397.642632 
L 129.707314 383.967555 
L 130.979554 363.685271 
L 132.720514 332.036567 
L 136.617586 255.790018 
L 137.153266 238.743581 
L 137.635378 224.642864 
L 158.54029 224.642864 
L 158.74117 233.133194 
L 160.21429 292.072976 
L 161.499922 335.051345 
L 162.62485 365.669489 
L 163.62925 387.324954 
L 164.513122 401.941167 
L 165.289858 411.411377 
L 165.959458 417.112056 
L 166.521922 420.197091 
L 166.963858 421.567866 
L 167.298658 422.009365 
L 167.539714 422.017379 
L 167.78077 421.772204 
L 168.088786 421.09963 
L 168.490546 419.63589 
L 168.999442 416.870778 
L 169.628866 412.128323 
L 170.39221 404.579641 
L 171.32965 392.930452 
L 172.481362 375.631351 
L 173.967874 349.680781 
L 176.35165 303.551905 
L 178.855954 251.923935 
L 179.43181 231.026954 
L 179.686258 224.642864 
L 200.604562 224.642864 
L 200.966146 240.141559 
L 202.425874 297.583807 
L 203.684722 338.857681 
L 204.796258 368.468801 
L 205.787266 389.319187 
L 206.671138 403.505627 
L 207.434482 412.47281 
L 208.09069 417.817895 
L 208.639762 420.667998 
L 209.068306 421.901044 
L 209.389714 422.273656 
L 209.617378 422.258895 
L 209.858434 421.997255 
L 210.179842 421.264615 
L 210.594994 419.690546 
L 211.117282 416.751283 
L 211.760098 411.759639 
L 212.550226 403.728673 
L 213.501058 391.630756 
L 214.679554 373.592808 
L 216.219634 346.309399 
L 218.884642 294.345019 
L 220.893442 252.576788 
L 221.469298 231.812663 
L 221.75053 224.642864 
L 242.655442 224.642864 
L 242.829538 231.985561 
L 244.302658 291.182687 
L 245.58829 334.391606 
L 246.72661 365.536251 
L 247.73101 387.292629 
L 248.628274 402.182034 
L 249.40501 411.664849 
L 250.07461 417.373065 
L 250.637074 420.462132 
L 251.07901 421.834651 
L 251.41381 422.276666 
L 251.654866 422.284634 
L 251.895922 422.039071 
L 252.203938 421.365516 
L 252.605698 419.899706 
L 253.114594 417.130744 
L 253.744018 412.381744 
L 254.507362 404.822705 
L 255.444802 393.157596 
L 256.596514 375.83492 
L 258.083026 349.849065 
L 260.466802 303.657591 
L 262.957714 252.211343 
L 263.53357 231.29166 
L 263.80141 224.642864 
L 284.706322 224.642864 
L 284.853634 230.805311 
L 286.340146 290.67631 
L 287.625778 333.973662 
L 288.764098 365.200698 
L 289.768498 387.030806 
L 290.665762 401.985482 
L 291.442498 411.523481 
L 292.112098 417.277773 
L 292.674562 420.404189 
L 293.12989 421.833351 
L 293.46469 422.275901 
L 293.705746 422.284245 
L 293.946802 422.039051 
L 294.254818 421.365956 
L 294.656578 419.900725 
L 295.165474 417.132462 
L 295.794898 412.38427 
L 296.558242 404.826121 
L 297.495682 393.161966 
L 298.647394 375.840243 
L 300.133906 349.855259 
L 302.517682 303.66437 
L 305.008594 252.217792 
L 305.58445 231.297914 
L 305.85229 224.642864 
L 326.757201 224.642864 
L 326.904513 230.802947 
L 328.391025 290.674139 
L 329.676657 333.971718 
L 330.814977 365.198989 
L 331.819377 387.029326 
L 332.716641 401.984217 
L 333.493377 411.522405 
L 334.162977 417.276862 
L 334.725441 420.403416 
L 335.180769 421.832688 
L 335.515569 422.275318 
L 335.756625 422.283719 
L 335.997681 422.038582 
L 336.305697 421.365558 
L 336.707457 419.90042 
L 337.216353 417.13227 
L 337.845777 412.384211 
L 338.609121 404.826216 
L 339.546561 393.162233 
L 340.698273 375.840697 
L 342.184785 349.855906 
L 344.568561 303.665215 
L 347.059473 252.2187 
L 347.635329 231.298818 
L 347.903169 224.642864 
L 368.808081 224.642864 
L 368.955393 230.802617 
L 370.441905 290.673815 
L 371.727537 333.97141 
L 372.865857 365.198704 
L 373.870257 387.029064 
L 374.767521 401.98398 
L 375.544257 411.522191 
L 376.213857 417.276669 
L 376.776321 420.403241 
L 377.231649 421.832528 
L 377.566449 422.275169 
L 377.807505 422.283578 
L 378.048561 422.038448 
L 378.356577 421.365435 
L 378.758337 419.90031 
L 379.267233 417.132176 
L 379.896657 412.384138 
L 380.660001 404.826167 
L 381.597441 393.162212 
L 382.749153 375.840707 
L 384.235665 349.855953 
L 386.619441 303.665305 
L 389.110353 252.218816 
L 389.686209 231.298936 
L 389.954049 224.642864 
L 410.858961 224.642864 
L 411.006273 230.802575 
L 412.492785 290.673771 
L 413.778417 333.971366 
L 414.916737 365.19866 
L 415.921137 387.029023 
L 416.818401 401.98394 
L 417.595137 411.522154 
L 418.264737 417.276634 
L 418.827201 420.403208 
L 419.282529 421.832497 
L 419.617329 422.275139 
L 419.858385 422.283549 
L 420.099441 422.038421 
L 420.407457 421.365409 
L 420.809217 419.900285 
L 421.318113 417.132154 
L 421.947537 412.384119 
L 422.710881 404.826151 
L 423.648321 393.1622 
L 424.800033 375.8407 
L 426.286545 349.855952 
L 428.670321 303.665312 
L 431.161233 252.218829 
L 431.737089 231.29895 
L 432.004929 224.642864 
L 452.909841 224.642864 
L 453.057153 230.802571 
L 454.543665 290.673766 
L 455.829297 333.97136 
L 456.967617 365.198654 
L 457.972017 387.029017 
L 458.869281 401.983934 
L 459.646017 411.522148 
L 460.315617 417.276628 
L 460.878081 420.403203 
L 461.333409 421.832492 
L 461.668209 422.275134 
L 461.909265 422.283544 
L 462.150321 422.038416 
L 462.458337 421.365404 
L 462.860097 419.900281 
L 463.368993 417.13215 
L 463.998417 412.384115 
L 464.761761 404.826147 
L 465.699201 393.162197 
L 466.850913 375.840698 
L 468.337425 349.85595 
L 470.721201 303.665312 
L 473.212113 252.21883 
L 473.787969 231.298951 
L 474.055809 224.642864 
L 494.960721 224.642864 
L 495.108033 230.80257 
L 496.594545 290.673765 
L 497.880177 333.971359 
L 499.018497 365.198653 
L 500.022897 387.029016 
L 500.920161 401.983933 
L 501.696897 411.522147 
L 502.366497 417.276627 
L 502.928961 420.403202 
L 503.384289 421.832491 
L 503.719089 422.275134 
L 503.960145 422.283543 
L 504.201201 422.038415 
L 504.509217 421.365403 
L 504.910977 419.90028 
L 505.419873 417.132149 
L 506.049297 412.384114 
L 506.812641 404.826147 
L 507.750081 393.162197 
L 508.901793 375.840698 
L 510.388305 349.85595 
L 512.772081 303.665312 
L 515.262993 252.21883 
L 515.838849 231.298951 
L 516.10669 224.642864 
L 537.011601 224.642864 
L 537.158913 230.80257 
L 538.645425 290.673765 
L 539.931057 333.971359 
L 541.069377 365.198653 
L 542.073777 387.029016 
L 542.971041 401.983933 
L 543.747777 411.522147 
L 544.417377 417.276627 
L 544.979841 420.403202 
L 545.435169 421.832491 
L 545.769969 422.275133 
L 546.011025 422.283543 
L 546.252081 422.038415 
L 546.560097 421.365403 
L 546.961857 419.90028 
L 547.470753 417.132149 
L 548.100177 412.384114 
L 548.863521 404.826147 
L 549.800961 393.162197 
L 550.952673 375.840697 
L 552.439185 349.85595 
L 554.822961 303.665312 
L 557.313873 252.21883 
L 557.889729 231.298951 
L 558.15757 224.642864 
L 579.062482 224.642864 
L 579.209794 230.80257 
L 580.696306 290.673765 
L 581.981938 333.971359 
L 583.120258 365.198653 
L 584.124658 387.029016 
L 585.021922 401.983933 
L 585.798658 411.522147 
L 586.468258 417.276627 
L 587.030722 420.403202 
L 587.48605 421.832491 
L 587.82085 422.275133 
L 588.061906 422.283543 
L 588.302962 422.038415 
L 588.610978 421.365403 
L 589.012738 419.90028 
L 589.521634 417.132149 
L 590.151058 412.384114 
L 590.914402 404.826146 
L 591.851842 393.162197 
L 593.003554 375.840697 
L 594.490066 349.85595 
L 596.873842 303.665312 
L 599.364754 252.21883 
L 599.94061 231.298951 
L 600.20845 224.642864 
L 621.113362 224.642864 
L 621.260674 230.80257 
L 622.747186 290.673765 
L 624.032818 333.971359 
L 625.171138 365.198653 
L 626.175538 387.029016 
L 627.072802 401.983933 
L 627.849538 411.522147 
L 628.519138 417.276627 
L 629.081602 420.403202 
L 629.53693 421.832491 
L 629.87173 422.275133 
L 630.112786 422.283543 
L 630.353842 422.038415 
L 630.661858 421.365403 
L 631.063618 419.90028 
L 631.572514 417.132149 
L 632.201938 412.384114 
L 632.965282 404.826146 
L 633.902722 393.162197 
L 635.054434 375.840697 
L 636.540946 349.85595 
L 638.924722 303.665312 
L 641.415634 252.21883 
L 641.99149 231.298951 
L 642.25933 224.642864 
L 663.164242 224.642864 
L 663.311554 230.80257 
L 664.798066 290.673765 
L 666.083698 333.971359 
L 667.222018 365.198653 
L 668.226418 387.029016 
L 669.123682 401.983933 
L 669.900418 411.522147 
L 670.570018 417.276627 
L 671.132482 420.403202 
L 671.58781 421.832491 
L 671.92261 422.275133 
L 672.163666 422.283543 
L 672.404722 422.038415 
L 672.712738 421.365403 
L 673.114498 419.90028 
L 673.623394 417.132149 
L 674.252818 412.384114 
L 675.016162 404.826146 
L 675.953602 393.162197 
L 677.105314 375.840697 
L 678.591826 349.85595 
L 680.975602 303.665312 
L 683.466514 252.21883 
L 684.04237 231.298951 
L 684.31021 224.642864 
L 705.215122 224.642864 
L 705.362434 230.80257 
L 706.848946 290.673765 
L 708.134578 333.971359 
L 709.272898 365.198653 
L 710.277298 387.029016 
L 711.174562 401.983933 
L 711.951298 411.522147 
L 712.620898 417.276627 
L 713.183362 420.403202 
L 713.63869 421.832491 
L 713.97349 422.275133 
L 714.214546 422.283543 
L 714.455602 422.038415 
L 714.763618 421.365403 
L 715.165378 419.90028 
L 715.674274 417.132149 
L 716.303698 412.384114 
L 717.067042 404.826146 
L 718.004482 393.162197 
L 719.156194 375.840697 
L 720.642706 349.85595 
L 721.760938 328.573265 
L 721.760938 328.573265 
" clip-path="url(#pcb30748e32)" style="fill: none; stroke: #ff7f0e; stroke-width: 1.5; stroke-linecap: square"/>
   </g>
   <g id="patch_3">
    <path d="M 52.160938 442.08 
L 52.160938 7.2 
" style="fill: none; stroke: #000000; stroke-width: 0.8; stroke-linejoin: miter; stroke-linecap: square"/>
   </g>
   <g id="patch_4">
    <path d="M 721.760938 442.08 
L 721.760938 7.2 
" style="fill: none; stroke: #000000; stroke-width: 0.8; stroke-linejoin: miter; stroke-linecap: square"/>
   </g>
   <g id="patch_5">
    <path d="M 52.160938 442.08 
L 721.760938 442.08 
" style="fill: none; stroke: #000000; stroke-width: 0.8; stroke-linejoin: miter; stroke-linecap: square"/>
   </g>
   <g id="patch_6">
    <path d="M 52.160938 7.2 
L 721.760938 7.2 
" style="fill: none; stroke: #000000; stroke-width: 0.8; stroke-linejoin: miter; stroke-linecap: square"/>
   </g>
   <g id="legend_1">
    <g id="patch_7">
     <path d="M 261.736938 102.8736 
L 336.922875 102.8736 
Q 338.922875 102.8736 338.922875 100.8736 
L 338.922875 71.9611 
Q 338.922875 69.9611 336.922875 69.9611 
L 261.736938 69.9611 
Q 259.736938 69.9611 259.736938 71.9611 
L 259.736938 100.8736 
Q 259.736938 102.8736 261.736938 102.8736 
z
" style="fill: #ffffff; opacity: 0.8; stroke: #cccccc; stroke-linejoin: miter"/>
    </g>
    <g id="line2d_33">
     <path d="M 263.736938 78.059537 
L 273.736938 78.059537 
L 283.736938 78.059537 
" style="fill: none; stroke: #1f77b4; stroke-width: 1.5; stroke-linecap: square"/>
    </g>
    <g id="text_18">
     <!-- ic(Q_Q1) -->
     <g transform="translate(291.736938 81.559537)scale(0.1 -0.1)">
      <defs>
       <path id="DejaVuSans-63" d="M 3122 3366 
L 3122 2828 
Q 2878 2963 2633 3030 
Q 2388 3097 2138 3097 
Q 1578 3097 1268 2742 
Q 959 2388 959 1747 
Q 959 1106 1268 751 
Q 1578 397 2138 397 
Q 2388 397 2633 464 
Q 2878 531 3122 666 
L 3122 134 
Q 2881 22 2623 -34 
Q 2366 -91 2075 -91 
Q 1284 -91 818 406 
Q 353 903 353 1747 
Q 353 2603 823 3093 
Q 1294 3584 2113 3584 
Q 2378 3584 2631 3529 
Q 2884 3475 3122 3366 
z
" transform="scale(0.015625)"/>
       <path id="DejaVuSans-28" d="M 1984 4856 
Q 1566 4138 1362 3434 
Q 1159 2731 1159 2009 
Q 1159 1288 1364 580 
Q 1569 -128 1984 -844 
L 1484 -844 
Q 1016 -109 783 600 
Q 550 1309 550 2009 
Q 550 2706 781 3412 
Q 1013 4119 1484 4856 
L 1984 4856 
z
" transform="scale(0.015625)"/>
       <path id="DejaVuSans-51" d="M 2522 4238 
Q 1834 4238 1429 3725 
Q 1025 3213 1025 2328 
Q 1025 1447 1429 934 
Q 1834 422 2522 422 
Q 3209 422 3611 934 
Q 4013 1447 4013 2328 
Q 4013 3213 3611 3725 
Q 3209 4238 2522 4238 
z
M 3406 84 
L 4238 -825 
L 3475 -825 
L 2784 -78 
Q 2681 -84 2626 -87 
Q 2572 -91 2522 -91 
Q 1538 -91 948 567 
Q 359 1225 359 2328 
Q 359 3434 948 4092 
Q 1538 4750 2522 4750 
Q 3503 4750 4090 4092 
Q 4678 3434 4678 2328 
Q 4678 1516 4351 937 
Q 4025 359 3406 84 
z
" transform="scale(0.015625)"/>
       <path id="DejaVuSans-5f" d="M 3263 -1063 
L 3263 -1509 
L -63 -1509 
L -63 -1063 
L 3263 -1063 
z
" transform="scale(0.015625)"/>
       <path id="DejaVuSans-29" d="M 513 4856 
L 1013 4856 
Q 1481 4119 1714 3412 
Q 1947 2706 1947 2009 
Q 1947 1309 1714 600 
Q 1481 -109 1013 -844 
L 513 -844 
Q 928 -128 1133 580 
Q 1338 1288 1338 2009 
Q 1338 2731 1133 3434 
Q 928 4138 513 4856 
z
" transform="scale(0.015625)"/>
      </defs>
      <use xlink:href="#DejaVuSans-69"/>
      <use xlink:href="#DejaVuSans-63" x="27.783203"/>
      <use xlink:href="#DejaVuSans-28" x="82.763672"/>
      <use xlink:href="#DejaVuSans-51" x="121.777344"/>
      <use xlink:href="#DejaVuSans-5f" x="200.488281"/>
      <use xlink:href="#DejaVuSans-51" x="250.488281"/>
      <use xlink:href="#DejaVuSans-31" x="329.199219"/>
      <use xlink:href="#DejaVuSans-29" x="392.822266"/>
     </g>
    </g>
    <g id="line2d_34">
     <path d="M 263.736938 93.015787 
L 273.736938 93.015787 
L 283.736938 93.015787 
" style="fill: none; stroke: #ff7f0e; stroke-width: 1.5; stroke-linecap: square"/>
    </g>
    <g id="text_19">
     <!-- ic(Q_Qp) -->
     <g transform="translate(291.736938 96.515787)scale(0.1 -0.1)">
      <defs>
       <path id="DejaVuSans-70" d="M 1159 525 
L 1159 -1331 
L 581 -1331 
L 581 3500 
L 1159 3500 
L 1159 2969 
Q 1341 3281 1617 3432 
Q 1894 3584 2278 3584 
Q 2916 3584 3314 3078 
Q 3713 2572 3713 1747 
Q 3713 922 3314 415 
Q 2916 -91 2278 -91 
Q 1894 -91 1617 61 
Q 1341 213 1159 525 
z
M 3116 1747 
Q 3116 2381 2855 2742 
Q 2594 3103 2138 3103 
Q 1681 3103 1420 2742 
Q 1159 2381 1159 1747 
Q 1159 1113 1420 752 
Q 1681 391 2138 391 
Q 2594 391 2855 752 
Q 3116 1113 3116 1747 
z
" transform="scale(0.015625)"/>
      </defs>
      <use xlink:href="#DejaVuSans-69"/>
      <use xlink:href="#DejaVuSans-63" x="27.783203"/>
      <use xlink:href="#DejaVuSans-28" x="82.763672"/>
      <use xlink:href="#DejaVuSans-51" x="121.777344"/>
      <use xlink:href="#DejaVuSans-5f" x="200.488281"/>
      <use xlink:href="#DejaVuSans-51" x="250.488281"/>
      <use xlink:href="#DejaVuSans-70" x="329.199219"/>
      <use xlink:href="#DejaVuSans-29" x="392.675781"/>
     </g>
    </g>
   </g>
  </g>
 </g>
 <defs>
  <clipPath id="pcb30748e32">
   <rect x="52.160938" y="7.2" width="669.6" height="434.88"/>
  </clipPath>
 </defs>
</svg>