<?xml version="1.0" encoding="utf-8" standalone="no"?>
<!DOCTYPE svg PUBLIC "-//W3C//DTD SVG 1.1//EN"
  "http://www.w3.org/Graphics/SVG/1.1/DTD/svg11.dtd">
<svg xmlns:xlink="http://www.w3.org/1999/xlink" width="330.0951pt" height="214.524pt" viewBox="0 0 330.0951 214.524" xmlns="http://www.w3.org/2000/svg" version="1.1">
 <metadata>
  <rdf:RDF xmlns:dc="http://purl.org/dc/elements/1.1/" xmlns:cc="http://creativecommons.org/ns#" xmlns:rdf="http://www.w3.org/1999/02/22-rdf-syntax-ns#">
   <cc:Work>
    <dc:type rdf:resource="http://purl.org/dc/dcmitype/StillImage"/>
    <dc:date>2022-11-04T21:52:07.301852</dc:date>
    <dc:format>image/svg+xml</dc:format>
    <dc:creator>
     <cc:Agent>
      <dc:title>Matplotlib v3.5.3, https://matplotlib.org/</dc:title>
     </cc:Agent>
    </dc:creator>
   </cc:Work>
  </rdf:RDF>
 </metadata>
 <defs>
  <style type="text/css">*{stroke-linejoin: round; stroke-linecap: butt}</style>
 </defs>
 <g id="figure_1">
  <g id="patch_1">
   <path d="M 0 214.524 
L 330.0951 214.524 
L 330.0951 0 
L 0 0 
z
" style="fill: #ffffff"/>
  </g>
  <g id="axes_1">
   <g id="patch_2">
    <path d="M 54.4617 49.02 
C 55.408475 49.02 56.3166 48.643842 56.986071 47.974371 
C 57.655542 47.3049 58.0317 46.396775 58.0317 45.45 
C 58.0317 44.503225 57.655542 43.5951 56.986071 42.925629 
C 56.3166 42.256158 55.408475 41.88 54.4617 41.88 
C 53.514925 41.88 52.6068 42.256158 51.937329 42.925629 
C 51.267858 43.5951 50.8917 44.503225 50.8917 45.45 
C 50.8917 46.396775 51.267858 47.3049 51.937329 47.974371 
C 52.6068 48.643842 53.514925 49.02 54.4617 49.02 
L 54.4617 49.02 
z
" clip-path="url(#p8834ed2d8d)" style="fill: none; stroke: #000000; stroke-width: 2; stroke-linejoin: miter"/>
   </g>
   <g id="line2d_1">
    <path d="M 83.5317 68.4 
L 83.5317 55.65 
L 63.1317 55.65 
L 63.1317 35.25 
L 83.5317 35.25 
L 83.5317 22.5 
" clip-path="url(#p8834ed2d8d)" style="fill: none; stroke: #000000; stroke-width: 2; stroke-linecap: round"/>
   </g>
   <g id="line2d_2">
    <path d="M 58.0317 55.65 
L 58.0317 35.25 
" clip-path="url(#p8834ed2d8d)" style="fill: none; stroke: #000000; stroke-width: 2; stroke-linecap: round"/>
   </g>
   <g id="line2d_3">
    <path d="M 50.8917 45.45 
L 41.7117 45.45 
" clip-path="url(#p8834ed2d8d)" style="fill: none; stroke: #000000; stroke-width: 2; stroke-linecap: round"/>
   </g>
   <g id="line2d_4">
    <path d="M 41.7117 45.45 
L 41.7117 68.4 
L 41.7117 91.35 
" clip-path="url(#p8834ed2d8d)" style="fill: none; stroke: #000000; stroke-width: 2; stroke-linecap: round"/>
   </g>
   <g id="line2d_5">
    <path d="M 41.7117 91.35 
L 41.7117 112.77 
L 41.7117 134.19 
" clip-path="url(#p8834ed2d8d)" style="fill: none; stroke: #000000; stroke-width: 2; stroke-linecap: round"/>
   </g>
   <g id="line2d_6">
    <path d="M 83.5317 157.14 
L 83.5317 144.39 
L 63.1317 144.39 
L 63.1317 123.99 
L 83.5317 123.99 
L 83.5317 111.24 
" clip-path="url(#p8834ed2d8d)" style="fill: none; stroke: #000000; stroke-width: 2; stroke-linecap: round"/>
   </g>
   <g id="line2d_7">
    <path d="M 58.0317 144.39 
L 58.0317 123.99 
" clip-path="url(#p8834ed2d8d)" style="fill: none; stroke: #000000; stroke-width: 2; stroke-linecap: round"/>
   </g>
   <g id="line2d_8">
    <path d="M 58.0317 134.19 
L 41.7117 134.19 
" clip-path="url(#p8834ed2d8d)" style="fill: none; stroke: #000000; stroke-width: 2; stroke-linecap: round"/>
   </g>
   <g id="line2d_9">
    <path d="M 83.5317 22.5 
L 83.5317 10.26 
" clip-path="url(#p8834ed2d8d)" style="fill: none; stroke: #000000; stroke-width: 2; stroke-linecap: round"/>
   </g>
   <g id="line2d_10">
    <path d="M 83.5317 10.26 
L 77.7942 10.26 
" clip-path="url(#p8834ed2d8d)" style="fill: none; stroke: #000000; stroke-width: 2; stroke-linecap: round"/>
   </g>
   <g id="line2d_11">
    <path d="M 83.5317 10.26 
L 89.2692 10.26 
" clip-path="url(#p8834ed2d8d)" style="fill: none; stroke: #000000; stroke-width: 2; stroke-linecap: round"/>
   </g>
   <g id="line2d_12">
    <path d="M 41.7117 91.35 
L 34.0617 91.35 
L 26.4117 91.35 
" clip-path="url(#p8834ed2d8d)" style="fill: none; stroke: #000000; stroke-width: 2; stroke-linecap: round"/>
   </g>
   <g id="line2d_13">
    <path d="M 83.5317 68.4 
L 83.5317 80.64 
L 83.5317 92.88 
" clip-path="url(#p8834ed2d8d)" style="fill: none; stroke: #000000; stroke-width: 2; stroke-linecap: round"/>
   </g>
   <g id="line2d_14">
    <path d="M 83.5317 92.88 
L 114.1317 92.88 
L 114.245659 90.360441 
L 114.592196 87.818159 
L 115.163601 85.466371 
L 115.933307 83.502317 
L 116.858115 82.09072 
L 117.361502 81.631201 
L 117.881817 81.349968 
L 118.410776 81.252948 
L 118.939912 81.342187 
L 119.460757 81.615803 
L 119.965014 82.06803 
L 120.44474 82.689334 
L 121.301555 84.383506 
L 121.980697 86.55623 
L 122.446562 89.025284 
L 122.681434 91.583592 
L 122.68697 94.016592 
L 122.48406 96.120233 
L 122.111076 97.718086 
L 121.620656 98.676141 
L 121.350689 98.88782 
L 121.075285 98.914047 
L 120.802933 98.754268 
L 120.542057 98.411851 
L 120.087048 97.211673 
L 119.769775 95.414168 
L 119.638201 93.170092 
L 119.724716 90.667651 
L 120.043419 88.116721 
L 120.588936 85.731245 
L 121.33687 83.711289 
L 122.245848 82.226263 
L 122.743987 81.725338 
L 123.260991 81.400715 
L 123.788646 81.259236 
L 124.318514 81.303882 
L 124.84211 81.533713 
L 125.351081 81.943885 
L 125.837381 82.525752 
L 126.712342 84.15215 
L 127.414967 86.276504 
L 127.907682 88.720649 
L 128.170519 91.279596 
L 128.20279 93.738732 
L 128.023142 95.891812 
L 127.667997 97.558261 
L 127.188496 98.598316 
L 126.921082 98.853902 
L 126.646209 98.92475 
L 126.372353 98.809367 
L 126.107971 98.510184 
L 125.640279 97.389389 
L 125.303712 95.656362 
L 125.147852 93.456451 
L 125.207126 90.974159 
L 125.497918 88.417672 
L 126.017194 86.001398 
L 126.742759 83.927987 
L 127.635115 82.371332 
L 128.127556 81.829609 
L 128.640777 81.461988 
L 129.166644 81.276221 
L 129.696756 81.276221 
L 130.222623 81.461988 
L 130.735844 81.829609 
L 131.228285 82.371332 
L 132.120641 83.927987 
L 132.846206 86.001398 
L 133.365482 88.417672 
L 133.656274 90.974159 
L 133.715548 93.456451 
L 133.559688 95.656362 
L 133.223121 97.389389 
L 132.755429 98.510184 
L 132.491047 98.809367 
L 132.217191 98.92475 
L 131.942318 98.853902 
L 131.674904 98.598316 
L 131.195403 97.558261 
L 130.840258 95.891812 
L 130.66061 93.738732 
L 130.692881 91.279596 
L 130.955718 88.720649 
L 131.448433 86.276504 
L 132.151058 84.15215 
L 133.026019 82.525752 
L 133.512319 81.943885 
L 134.02129 81.533713 
L 134.544886 81.303882 
L 135.074754 81.259236 
L 135.602409 81.400715 
L 136.119413 81.725338 
L 136.617552 82.226263 
L 137.089009 82.892931 
L 137.923577 84.664088 
L 138.574479 86.890266 
L 139.00848 89.384758 
L 139.210534 91.938356 
L 139.185053 94.336894 
L 138.955526 96.379208 
L 138.56256 97.894014 
L 138.060467 98.754268 
L 137.788115 98.914047 
L 137.512711 98.88782 
L 137.242744 98.676141 
L 136.986587 98.28347 
L 136.547575 96.991905 
L 136.253849 95.121445 
L 136.151398 92.828964 
L 136.270171 90.306727 
L 136.621559 87.766272 
L 137.197449 85.420662 
L 137.970895 83.466621 
L 138.898386 82.06803 
L 139.402643 81.615803 
L 139.923488 81.342187 
L 140.452624 81.252948 
L 140.981583 81.349968 
L 141.501898 81.631201 
L 142.005285 82.09072 
L 142.483818 82.718838 
L 143.337387 84.424641 
L 144.012373 86.605547 
L 144.473521 89.078647 
L 144.703509 91.636525 
L 144.7317 92.88 
L 175.3317 92.88 
L 175.3317 92.88 
" clip-path="url(#p8834ed2d8d)" style="fill: none; stroke: #000000; stroke-width: 2; stroke-linecap: round"/>
   </g>
   <g id="line2d_15">
    <path d="M 83.5317 92.88 
L 83.5317 105.12 
L 83.5317 117.36 
" clip-path="url(#p8834ed2d8d)" style="fill: none; stroke: #000000; stroke-width: 2; stroke-linecap: round"/>
   </g>
   <g id="line2d_16">
    <path d="M 175.3317 92.88 
L 218.4777 92.88 
M 218.4777 85.23 
L 218.4777 100.53 
M 223.9857 85.23 
L 223.9857 100.53 
M 223.9857 92.88 
L 267.1317 92.88 
" clip-path="url(#p8834ed2d8d)" style="fill: none; stroke: #000000; stroke-width: 2; stroke-linecap: round"/>
   </g>
   <g id="line2d_17">
    <path d="M 267.1317 92.88 
L 267.1317 123.48 
L 274.7817 126.03 
L 259.4817 131.13 
L 274.7817 136.23 
L 259.4817 141.33 
L 274.7817 146.43 
L 259.4817 151.53 
L 267.1317 154.08 
L 267.1317 184.68 
" clip-path="url(#p8834ed2d8d)" style="fill: none; stroke: #000000; stroke-width: 2; stroke-linecap: round"/>
   </g>
   <g id="line2d_18">
    <path d="M 267.1317 92.88 
L 274.7817 92.88 
L 282.4317 92.88 
" clip-path="url(#p8834ed2d8d)" style="fill: none; stroke: #000000; stroke-width: 2; stroke-linecap: round"/>
   </g>
   <g id="line2d_19">
    <path d="M 267.1317 184.68 
L 274.7817 184.68 
L 282.4317 184.68 
" clip-path="url(#p8834ed2d8d)" style="fill: none; stroke: #000000; stroke-width: 2; stroke-linecap: round"/>
   </g>
   <g id="line2d_20">
    <path d="M 267.1317 184.68 
L 175.3317 184.68 
L 83.5317 184.68 
" clip-path="url(#p8834ed2d8d)" style="fill: none; stroke: #000000; stroke-width: 2; stroke-linecap: round"/>
   </g>
   <g id="line2d_21">
    <path d="M 83.5317 184.68 
L 83.5317 196.92 
L 75.8817 196.92 
L 91.1817 196.92 
M 78.1767 200.592 
L 88.8867 200.592 
M 82.0017 204.264 
L 85.0617 204.264 
" clip-path="url(#p8834ed2d8d)" style="fill: none; stroke: #000000; stroke-width: 2; stroke-linecap: round"/>
   </g>
   <g id="line2d_22">
    <path d="M 83.5317 184.68 
L 83.5317 170.91 
L 83.5317 157.14 
" clip-path="url(#p8834ed2d8d)" style="fill: none; stroke: #000000; stroke-width: 2; stroke-linecap: round"/>
   </g>
   <g id="text_1">
    <g clip-path="url(#p8834ed2d8d)">
     <!-- $L_1$ -->
     <g transform="translate(122.9942 75.593339)scale(0.125 -0.125)">
      <defs>
       <path id="DejaVuSans-Oblique-4c" d="M 1075 4666 
L 1709 4666 
L 909 525 
L 3181 525 
L 3078 0 
L 172 0 
L 1075 4666 
z
" transform="scale(0.015625)"/>
       <path id="DejaVuSans-31" d="M 794 531 
L 1825 531 
L 1825 4091 
L 703 3866 
L 703 4441 
L 1819 4666 
L 2450 4666 
L 2450 531 
L 3481 531 
L 3481 0 
L 794 0 
L 794 531 
z
" transform="scale(0.015625)"/>
      </defs>
      <use xlink:href="#DejaVuSans-Oblique-4c" transform="translate(0 0.09375)"/>
      <use xlink:href="#DejaVuSans-31" transform="translate(55.712891 -16.3125)scale(0.7)"/>
     </g>
    </g>
   </g>
   <g id="text_2">
    <g clip-path="url(#p8834ed2d8d)">
     <!-- $C_1$ -->
     <g transform="translate(213.8567 79.570391)scale(0.125 -0.125)">
      <defs>
       <path id="DejaVuSans-Oblique-43" d="M 4447 4306 
L 4319 3641 
Q 4019 3944 3683 4091 
Q 3347 4238 2956 4238 
Q 2422 4238 2017 3981 
Q 1613 3725 1319 3200 
Q 1131 2863 1032 2486 
Q 934 2109 934 1728 
Q 934 1091 1264 756 
Q 1594 422 2222 422 
Q 2656 422 3056 561 
Q 3456 700 3834 978 
L 3688 231 
Q 3316 72 2936 -9 
Q 2556 -91 2175 -91 
Q 1278 -91 773 396 
Q 269 884 269 1753 
Q 269 2309 461 2846 
Q 653 3384 1013 3828 
Q 1394 4300 1883 4525 
Q 2372 4750 3022 4750 
Q 3422 4750 3780 4639 
Q 4138 4528 4447 4306 
z
" transform="scale(0.015625)"/>
      </defs>
      <use xlink:href="#DejaVuSans-Oblique-43" transform="translate(0 0.78125)"/>
      <use xlink:href="#DejaVuSans-31" transform="translate(69.824219 -15.625)scale(0.7)"/>
     </g>
    </g>
   </g>
   <g id="text_3">
    <g clip-path="url(#p8834ed2d8d)">
     <!-- $R_L$ -->
     <g transform="translate(242.4217 142.229219)scale(0.125 -0.125)">
      <defs>
       <path id="DejaVuSans-Oblique-52" d="M 1613 4147 
L 1294 2491 
L 2106 2491 
Q 2584 2491 2879 2755 
Q 3175 3019 3175 3444 
Q 3175 3784 2976 3965 
Q 2778 4147 2406 4147 
L 1613 4147 
z
M 2772 2241 
Q 2972 2194 3105 2009 
Q 3238 1825 3413 1275 
L 3809 0 
L 3144 0 
L 2778 1197 
Q 2638 1659 2453 1815 
Q 2269 1972 1888 1972 
L 1191 1972 
L 806 0 
L 172 0 
L 1081 4666 
L 2503 4666 
Q 3150 4666 3495 4373 
Q 3841 4081 3841 3531 
Q 3841 3044 3547 2687 
Q 3253 2331 2772 2241 
z
" transform="scale(0.015625)"/>
      </defs>
      <use xlink:href="#DejaVuSans-Oblique-52" transform="translate(0 0.09375)"/>
      <use xlink:href="#DejaVuSans-Oblique-4c" transform="translate(69.482422 -16.3125)scale(0.7)"/>
     </g>
    </g>
   </g>
   <g id="text_4">
    <g clip-path="url(#p8834ed2d8d)">
     <!-- - -->
     <g transform="translate(292.416817 119.279219)scale(0.125 -0.125)">
      <defs>
       <path id="DejaVuSans-2d" d="M 313 2009 
L 1997 2009 
L 1997 1497 
L 313 1497 
L 313 2009 
z
" transform="scale(0.015625)"/>
      </defs>
      <use xlink:href="#DejaVuSans-2d"/>
     </g>
    </g>
   </g>
   <g id="text_5">
    <g clip-path="url(#p8834ed2d8d)">
     <!-- $v_{out}$ -->
     <g transform="translate(283.6092 142.229219)scale(0.125 -0.125)">
      <defs>
       <path id="DejaVuSans-Oblique-76" d="M 459 3500 
L 1069 3500 
L 1581 525 
L 3256 3500 
L 3866 3500 
L 1875 0 
L 1100 0 
L 459 3500 
z
" transform="scale(0.015625)"/>
       <path id="DejaVuSans-Oblique-6f" d="M 1625 -91 
Q 1009 -91 651 289 
Q 294 669 294 1325 
Q 294 1706 417 2101 
Q 541 2497 738 2766 
Q 1047 3184 1428 3384 
Q 1809 3584 2291 3584 
Q 2888 3584 3255 3212 
Q 3622 2841 3622 2241 
Q 3622 1825 3500 1412 
Q 3378 1000 3181 728 
Q 2875 309 2494 109 
Q 2113 -91 1625 -91 
z
M 891 1344 
Q 891 869 1089 633 
Q 1288 397 1691 397 
Q 2269 397 2648 901 
Q 3028 1406 3028 2181 
Q 3028 2634 2825 2865 
Q 2622 3097 2228 3097 
Q 1903 3097 1650 2945 
Q 1397 2794 1197 2484 
Q 1050 2253 970 1956 
Q 891 1659 891 1344 
z
" transform="scale(0.015625)"/>
       <path id="DejaVuSans-Oblique-75" d="M 428 1388 
L 838 3500 
L 1416 3500 
L 1006 1409 
Q 975 1256 961 1147 
Q 947 1038 947 966 
Q 947 700 1109 554 
Q 1272 409 1569 409 
Q 2031 409 2368 721 
Q 2706 1034 2809 1563 
L 3194 3500 
L 3769 3500 
L 3091 0 
L 2516 0 
L 2631 550 
Q 2388 244 2052 76 
Q 1716 -91 1338 -91 
Q 878 -91 622 161 
Q 366 413 366 863 
Q 366 956 381 1097 
Q 397 1238 428 1388 
z
" transform="scale(0.015625)"/>
       <path id="DejaVuSans-Oblique-74" d="M 2706 3500 
L 2619 3053 
L 1472 3053 
L 1100 1153 
Q 1081 1047 1072 975 
Q 1063 903 1063 863 
Q 1063 663 1183 572 
Q 1303 481 1569 481 
L 2150 481 
L 2053 0 
L 1503 0 
Q 991 0 739 200 
Q 488 400 488 806 
Q 488 878 497 964 
Q 506 1050 525 1153 
L 897 3053 
L 409 3053 
L 500 3500 
L 978 3500 
L 1172 4494 
L 1747 4494 
L 1556 3500 
L 2706 3500 
z
" transform="scale(0.015625)"/>
      </defs>
      <use xlink:href="#DejaVuSans-Oblique-76" transform="translate(0 0.3125)"/>
      <use xlink:href="#DejaVuSans-Oblique-6f" transform="translate(59.179688 -16.09375)scale(0.7)"/>
      <use xlink:href="#DejaVuSans-Oblique-75" transform="translate(102.006836 -16.09375)scale(0.7)"/>
      <use xlink:href="#DejaVuSans-Oblique-74" transform="translate(146.37207 -16.09375)scale(0.7)"/>
     </g>
    </g>
   </g>
   <g id="text_6">
    <g clip-path="url(#p8834ed2d8d)">
     <!-- $+$ -->
     <g transform="translate(289.4217 165.179219)scale(0.125 -0.125)">
      <defs>
       <path id="DejaVuSans-2b" d="M 2944 4013 
L 2944 2272 
L 4684 2272 
L 4684 1741 
L 2944 1741 
L 2944 0 
L 2419 0 
L 2419 1741 
L 678 1741 
L 678 2272 
L 2419 2272 
L 2419 4013 
L 2944 4013 
z
" transform="scale(0.015625)"/>
      </defs>
      <use xlink:href="#DejaVuSans-2b" transform="translate(0 0.296875)"/>
     </g>
    </g>
   </g>
   <g id="patch_3">
    <path d="M 41.7117 93.645 
C 42.320341 93.645 42.904136 93.403184 43.33451 92.97281 
C 43.764884 92.542436 44.0067 91.958641 44.0067 91.35 
C 44.0067 90.741359 43.764884 90.157564 43.33451 89.72719 
C 42.904136 89.296816 42.320341 89.055 41.7117 89.055 
C 41.103059 89.055 40.519264 89.296816 40.08889 89.72719 
C 39.658516 90.157564 39.4167 90.741359 39.4167 91.35 
C 39.4167 91.958641 39.658516 92.542436 40.08889 92.97281 
C 40.519264 93.403184 41.103059 93.645 41.7117 93.645 
z
" clip-path="url(#p8834ed2d8d)" style="stroke: #000000; stroke-width: 2; stroke-linejoin: miter"/>
   </g>
   <g id="patch_4">
    <path d="M 26.4117 93.645 
C 27.020341 93.645 27.604136 93.403184 28.03451 92.97281 
C 28.464884 92.542436 28.7067 91.958641 28.7067 91.35 
C 28.7067 90.741359 28.464884 90.157564 28.03451 89.72719 
C 27.604136 89.296816 27.020341 89.055 26.4117 89.055 
C 25.803059 89.055 25.219264 89.296816 24.78889 89.72719 
C 24.358516 90.157564 24.1167 90.741359 24.1167 91.35 
C 24.1167 91.958641 24.358516 92.542436 24.78889 92.97281 
C 25.219264 93.403184 25.803059 93.645 26.4117 93.645 
z
" clip-path="url(#p8834ed2d8d)" style="fill: #ffffff; stroke: #000000; stroke-width: 2; stroke-linejoin: miter"/>
   </g>
   <g id="text_7">
    <g clip-path="url(#p8834ed2d8d)">
     <!-- $V_{in}$ -->
     <g transform="translate(17.9742 83.395391)scale(0.125 -0.125)">
      <defs>
       <path id="DejaVuSans-Oblique-56" d="M 1319 0 
L 500 4666 
L 1119 4666 
L 1797 653 
L 4063 4666 
L 4750 4666 
L 2053 0 
L 1319 0 
z
" transform="scale(0.015625)"/>
       <path id="DejaVuSans-Oblique-69" d="M 1172 4863 
L 1747 4863 
L 1606 4134 
L 1031 4134 
L 1172 4863 
z
M 909 3500 
L 1484 3500 
L 800 0 
L 225 0 
L 909 3500 
z
" transform="scale(0.015625)"/>
       <path id="DejaVuSans-Oblique-6e" d="M 3566 2113 
L 3156 0 
L 2578 0 
L 2988 2091 
Q 3016 2238 3031 2350 
Q 3047 2463 3047 2528 
Q 3047 2791 2881 2937 
Q 2716 3084 2419 3084 
Q 1956 3084 1622 2776 
Q 1288 2469 1184 1941 
L 800 0 
L 225 0 
L 903 3500 
L 1478 3500 
L 1363 2950 
Q 1603 3253 1940 3418 
Q 2278 3584 2650 3584 
Q 3113 3584 3367 3334 
Q 3622 3084 3622 2631 
Q 3622 2519 3608 2391 
Q 3594 2263 3566 2113 
z
" transform="scale(0.015625)"/>
      </defs>
      <use xlink:href="#DejaVuSans-Oblique-56" transform="translate(0 0.09375)"/>
      <use xlink:href="#DejaVuSans-Oblique-69" transform="translate(68.408203 -16.3125)scale(0.7)"/>
      <use xlink:href="#DejaVuSans-Oblique-6e" transform="translate(87.856445 -16.3125)scale(0.7)"/>
     </g>
    </g>
   </g>
   <g id="patch_5">
    <path d="M 83.5317 95.175 
C 84.140341 95.175 84.724136 94.933184 85.15451 94.50281 
C 85.584884 94.072436 85.8267 93.488641 85.8267 92.88 
C 85.8267 92.271359 85.584884 91.687564 85.15451 91.25719 
C 84.724136 90.826816 84.140341 90.585 83.5317 90.585 
C 82.923059 90.585 82.339264 90.826816 81.90889 91.25719 
C 81.478516 91.687564 81.2367 92.271359 81.2367 92.88 
C 81.2367 93.488641 81.478516 94.072436 81.90889 94.50281 
C 82.339264 94.933184 82.923059 95.175 83.5317 95.175 
z
" clip-path="url(#p8834ed2d8d)" style="stroke: #000000; stroke-width: 2; stroke-linejoin: miter"/>
   </g>
   <g id="patch_6">
    <path d="M 282.4317 95.175 
C 283.040341 95.175 283.624136 94.933184 284.05451 94.50281 
C 284.484884 94.072436 284.7267 93.488641 284.7267 92.88 
C 284.7267 92.271359 284.484884 91.687564 284.05451 91.25719 
C 283.624136 90.826816 283.040341 90.585 282.4317 90.585 
C 281.823059 90.585 281.239264 90.826816 280.80889 91.25719 
C 280.378516 91.687564 280.1367 92.271359 280.1367 92.88 
C 280.1367 93.488641 280.378516 94.072436 280.80889 94.50281 
C 281.239264 94.933184 281.823059 95.175 282.4317 95.175 
z
" clip-path="url(#p8834ed2d8d)" style="fill: #ffffff; stroke: #000000; stroke-width: 2; stroke-linejoin: miter"/>
   </g>
   <g id="patch_7">
    <path d="M 282.4317 186.975 
C 283.040341 186.975 283.624136 186.733184 284.05451 186.30281 
C 284.484884 185.872436 284.7267 185.288641 284.7267 184.68 
C 284.7267 184.071359 284.484884 183.487564 284.05451 183.05719 
C 283.624136 182.626816 283.040341 182.385 282.4317 182.385 
C 281.823059 182.385 281.239264 182.626816 280.80889 183.05719 
C 280.378516 183.487564 280.1367 184.071359 280.1367 184.68 
C 280.1367 185.288641 280.378516 185.872436 280.80889 186.30281 
C 281.239264 186.733184 281.823059 186.975 282.4317 186.975 
z
" clip-path="url(#p8834ed2d8d)" style="fill: #ffffff; stroke: #000000; stroke-width: 2; stroke-linejoin: miter"/>
   </g>
   <g id="patch_8">
    <path d="M 83.5317 186.975 
C 84.140341 186.975 84.724136 186.733184 85.15451 186.30281 
C 85.584884 185.872436 85.8267 185.288641 85.8267 184.68 
C 85.8267 184.071359 85.584884 183.487564 85.15451 183.05719 
C 84.724136 182.626816 84.140341 182.385 83.5317 182.385 
C 82.923059 182.385 82.339264 182.626816 81.90889 183.05719 
C 81.478516 183.487564 81.2367 184.071359 81.2367 184.68 
C 81.2367 185.288641 81.478516 185.872436 81.90889 186.30281 
C 82.339264 186.733184 82.923059 186.975 83.5317 186.975 
z
" clip-path="url(#p8834ed2d8d)" style="stroke: #000000; stroke-width: 2; stroke-linejoin: miter"/>
   </g>
  </g>
 </g>
 <defs>
  <clipPath id="p8834ed2d8d">
   <rect x="7.2" y="7.2" width="315.6951" height="200.124"/>
  </clipPath>
 </defs>
</svg>