<?xml version="1.0" encoding="utf-8" standalone="no"?>
<!DOCTYPE svg PUBLIC "-//W3C//DTD SVG 1.1//EN"
  "http://www.w3.org/Graphics/SVG/1.1/DTD/svg11.dtd">
<svg xmlns:xlink="http://www.w3.org/1999/xlink" width="294.0125pt" height="289.009656pt" viewBox="0 0 294.0125 289.009656" xmlns="http://www.w3.org/2000/svg" version="1.1">
 <metadata>
  <rdf:RDF xmlns:dc="http://purl.org/dc/elements/1.1/" xmlns:cc="http://creativecommons.org/ns#" xmlns:rdf="http://www.w3.org/1999/02/22-rdf-syntax-ns#">
   <cc:Work>
    <dc:type rdf:resource="http://purl.org/dc/dcmitype/StillImage"/>
    <dc:date>2023-09-26T14:58:23.917227</dc:date>
    <dc:format>image/svg+xml</dc:format>
    <dc:creator>
     <cc:Agent>
      <dc:title>Matplotlib v3.6.3, https://matplotlib.org/</dc:title>
     </cc:Agent>
    </dc:creator>
   </cc:Work>
  </rdf:RDF>
 </metadata>
 <defs>
  <style type="text/css">*{stroke-linejoin: round; stroke-linecap: butt}</style>
 </defs>
 <g id="figure_1">
  <g id="patch_1">
   <path d="M 0 289.009656 
L 294.0125 289.009656 
L 294.0125 -0 
L 0 -0 
z
" style="fill: #ffffff"/>
  </g>
  <g id="axes_1">
   <g id="line2d_1">
    <path d="M 30.95 33.697656 
L 30.95 19.297656 
" clip-path="url(#pa7effa8c45)" style="fill: none; stroke: #000000; stroke-width: 2; stroke-linecap: round"/>
   </g>
   <g id="line2d_2">
    <path d="M 30.95 19.297656 
L 24.2 19.297656 
" clip-path="url(#pa7effa8c45)" style="fill: none; stroke: #000000; stroke-width: 2; stroke-linecap: round"/>
   </g>
   <g id="line2d_3">
    <path d="M 30.95 19.297656 
L 37.7 19.297656 
" clip-path="url(#pa7effa8c45)" style="fill: none; stroke: #000000; stroke-width: 2; stroke-linecap: round"/>
   </g>
   <g id="line2d_4">
    <path d="M 30.95 33.697656 
L 30.95 69.697656 
L 33.914187 69.831726 
L 36.905107 70.239416 
L 39.671917 70.911657 
L 41.982568 71.817194 
L 42.904308 72.342224 
L 43.643271 72.905203 
L 44.183881 73.497424 
L 44.514744 74.109559 
L 44.628884 74.731863 
L 44.523898 75.354376 
L 44.201996 75.967135 
L 43.669965 76.560379 
L 42.939018 77.124762 
L 42.024564 77.651544 
L 39.725691 78.561481 
L 36.96615 79.238998 
L 33.97738 79.652397 
L 31.010043 79.792129 
L 28.313006 79.671599 
L 26.112465 79.326039 
L 24.592976 78.809554 
L 24.131011 78.508193 
L 23.881977 78.190584 
L 23.851122 77.86658 
L 24.039097 77.546166 
L 24.44194 77.239253 
L 25.853915 76.703949 
L 27.968626 76.330686 
L 30.608716 76.175893 
L 33.552764 76.277675 
L 36.553858 76.65262 
L 39.3603 77.294404 
L 41.736719 78.174327 
L 42.699494 78.689058 
L 43.483808 79.243713 
L 44.073131 79.829759 
L 44.455041 80.437999 
L 44.621487 81.058769 
L 44.568962 81.682144 
L 44.298572 82.298139 
L 43.816017 82.896928 
L 43.131468 83.469046 
L 42.259355 84.005591 
L 40.029529 84.940277 
L 37.313553 85.647717 
L 34.339211 86.093702 
L 31.355956 86.265953 
L 28.61399 86.175146 
L 26.343277 85.854021 
L 24.734258 85.354633 
L 24.222569 85.058593 
L 23.92188 84.743988 
L 23.838529 84.420608 
L 23.974275 84.098425 
L 24.326254 83.787387 
L 24.887048 83.497208 
L 26.583648 83.015884 
L 28.921782 82.719945 
L 31.705355 82.659334 
L 34.700913 82.864258 
L 37.657224 83.342654 
L 40.326345 84.079522 
L 42.484422 85.038187 
L 43.313138 85.584027 
L 43.95046 86.163369 
L 44.382955 86.767159 
L 44.601505 87.385826 
L 44.601505 88.009487 
L 44.382955 88.628154 
L 43.95046 89.231943 
L 43.313138 89.811285 
L 42.484422 90.357126 
L 41.48178 90.861116 
L 39.042473 91.714722 
L 36.199798 92.325635 
L 33.192165 92.667743 
L 30.271822 92.737478 
L 27.683691 92.554113 
L 25.644837 92.158152 
L 24.326254 91.607926 
L 23.974275 91.296888 
L 23.838529 90.974705 
L 23.92188 90.651324 
L 24.222569 90.33672 
L 24.734258 90.04068 
L 26.343277 89.541292 
L 28.61399 89.220166 
L 31.355956 89.129359 
L 34.339211 89.30161 
L 37.313553 89.747596 
L 40.029529 90.455036 
L 42.259355 91.389721 
L 43.131468 91.926267 
L 43.816017 92.498385 
L 44.298572 93.097174 
L 44.568962 93.713169 
L 44.621487 94.336543 
L 44.455041 94.957314 
L 44.073131 95.565554 
L 43.483808 96.151599 
L 42.699494 96.706255 
L 41.736719 97.220986 
L 39.3603 98.100908 
L 36.553858 98.742693 
L 33.552764 99.117638 
L 30.608716 99.21942 
L 27.968626 99.064627 
L 25.853915 98.691364 
L 24.44194 98.15606 
L 24.039097 97.849147 
L 23.851122 97.528733 
L 23.881977 97.204728 
L 24.131011 96.88712 
L 24.592976 96.585759 
L 26.112465 96.069274 
L 28.313006 95.723714 
L 31.010043 95.603184 
L 33.97738 95.742916 
L 36.96615 96.156314 
L 39.725691 96.833831 
L 42.024564 97.743768 
L 42.939018 98.270551 
L 43.669965 98.834934 
L 44.201996 99.428178 
L 44.523898 100.040936 
L 44.628884 100.66345 
L 44.514744 101.285754 
L 44.183881 101.897889 
L 43.643271 102.490109 
L 42.904308 103.053089 
L 41.982568 103.578118 
L 39.671917 104.483655 
L 36.905107 105.155897 
L 33.914187 105.563587 
L 30.95 105.697656 
L 30.95 141.697656 
L 30.95 141.697656 
" clip-path="url(#pa7effa8c45)" style="fill: none; stroke: #000000; stroke-width: 2; stroke-linecap: round"/>
   </g>
   <g id="line2d_5">
    <path d="M 30.95 141.697656 
L 81.71 141.697656 
M 81.71 132.697656 
L 81.71 150.697656 
M 88.19 132.697656 
L 88.19 150.697656 
M 88.19 141.697656 
L 138.95 141.697656 
" clip-path="url(#pa7effa8c45)" style="fill: none; stroke: #000000; stroke-width: 2; stroke-linecap: round"/>
   </g>
   <g id="line2d_6">
    <path d="M 138.95 141.697656 
L 174.95 141.697656 
L 175.08407 138.73347 
L 175.49176 135.742549 
L 176.164001 132.975739 
L 177.069538 130.665088 
L 177.594567 129.743348 
L 178.157547 129.004385 
L 178.749767 128.463775 
L 179.361902 128.132913 
L 179.984207 128.018772 
L 180.60672 128.123759 
L 181.219478 128.44566 
L 181.812723 128.977691 
L 182.377106 129.708638 
L 182.903888 130.623093 
L 183.813825 132.921965 
L 184.491342 135.681506 
L 184.90474 138.670276 
L 185.044472 141.637613 
L 184.923942 144.33465 
L 184.578382 146.535191 
L 184.061898 148.05468 
L 183.760537 148.516645 
L 183.442928 148.76568 
L 183.118923 148.796535 
L 182.798509 148.608559 
L 182.491597 148.205716 
L 181.956292 146.793742 
L 181.583029 144.67903 
L 181.428236 142.038941 
L 181.530019 139.094892 
L 181.904963 136.093798 
L 182.546748 133.287356 
L 183.426671 130.910937 
L 183.941402 129.948163 
L 184.496057 129.163848 
L 185.082102 128.574525 
L 185.690342 128.192615 
L 186.311113 128.026169 
L 186.934487 128.078694 
L 187.550482 128.349084 
L 188.149271 128.831639 
L 188.72139 129.516188 
L 189.257935 130.388302 
L 190.192621 132.618127 
L 190.90006 135.334103 
L 191.346046 138.308445 
L 191.518297 141.2917 
L 191.42749 144.033666 
L 191.106365 146.304379 
L 190.606977 147.913398 
L 190.310936 148.425087 
L 189.996332 148.725776 
L 189.672952 148.809127 
L 189.350768 148.673382 
L 189.039731 148.321403 
L 188.749551 147.760608 
L 188.268228 146.064009 
L 187.972289 143.725874 
L 187.911678 140.942301 
L 188.116602 137.946743 
L 188.594998 134.990432 
L 189.331866 132.321311 
L 190.290531 130.163234 
L 190.836371 129.334518 
L 191.415713 128.697196 
L 192.019502 128.264701 
L 192.638169 128.046151 
L 193.261831 128.046151 
L 193.880498 128.264701 
L 194.484287 128.697196 
L 195.063629 129.334518 
L 195.609469 130.163234 
L 196.11346 131.165876 
L 196.967065 133.605184 
L 197.577979 136.447859 
L 197.920087 139.455491 
L 197.989821 142.375834 
L 197.806457 144.963965 
L 197.410496 147.002819 
L 196.860269 148.321403 
L 196.549232 148.673382 
L 196.227048 148.809127 
L 195.903668 148.725776 
L 195.589064 148.425087 
L 195.293023 147.913398 
L 194.793635 146.304379 
L 194.47251 144.033666 
L 194.381703 141.2917 
L 194.553954 138.308445 
L 194.99994 135.334103 
L 195.707379 132.618127 
L 196.642065 130.388302 
L 197.17861 129.516188 
L 197.750729 128.831639 
L 198.349518 128.349084 
L 198.965513 128.078694 
L 199.588887 128.026169 
L 200.209658 128.192615 
L 200.817898 128.574525 
L 201.403943 129.163848 
L 201.958598 129.948163 
L 202.473329 130.910937 
L 203.353252 133.287356 
L 203.995037 136.093798 
L 204.369981 139.094892 
L 204.471764 142.038941 
L 204.316971 144.67903 
L 203.943708 146.793742 
L 203.408403 148.205716 
L 203.101491 148.608559 
L 202.781077 148.796535 
L 202.457072 148.76568 
L 202.139463 148.516645 
L 201.838102 148.05468 
L 201.321618 146.535191 
L 200.976058 144.33465 
L 200.855528 141.637613 
L 200.99526 138.670276 
L 201.408658 135.681506 
L 202.086175 132.921965 
L 202.996112 130.623093 
L 203.522894 129.708638 
L 204.087277 128.977691 
L 204.680522 128.44566 
L 205.29328 128.123759 
L 205.915793 128.018772 
L 206.538098 128.132913 
L 207.150233 128.463775 
L 207.742453 129.004385 
L 208.305433 129.743348 
L 208.830462 130.665088 
L 209.735999 132.975739 
L 210.40824 135.742549 
L 210.81593 138.73347 
L 210.95 141.697656 
L 246.95 141.697656 
L 246.95 141.697656 
" clip-path="url(#pa7effa8c45)" style="fill: none; stroke: #000000; stroke-width: 2; stroke-linecap: round"/>
   </g>
   <g id="line2d_7">
    <path d="M 246.95 141.697656 
L 246.95 177.697656 
L 255.95 180.697656 
L 237.95 186.697656 
L 255.95 192.697656 
L 237.95 198.697656 
L 255.95 204.697656 
L 237.95 210.697656 
L 246.95 213.697656 
L 246.95 249.697656 
" clip-path="url(#pa7effa8c45)" style="fill: none; stroke: #000000; stroke-width: 2; stroke-linecap: round"/>
   </g>
   <g id="line2d_8">
    <path d="M 246.95 141.697656 
L 255.95 141.697656 
L 264.95 141.697656 
" clip-path="url(#pa7effa8c45)" style="fill: none; stroke: #000000; stroke-width: 2; stroke-linecap: round"/>
   </g>
   <g id="line2d_9">
    <path d="M 246.95 249.697656 
L 255.95 249.697656 
L 264.95 249.697656 
" clip-path="url(#pa7effa8c45)" style="fill: none; stroke: #000000; stroke-width: 2; stroke-linecap: round"/>
   </g>
   <g id="line2d_10">
    <path d="M 246.95 249.697656 
L 138.95 249.697656 
L 30.95 249.697656 
" clip-path="url(#pa7effa8c45)" style="fill: none; stroke: #000000; stroke-width: 2; stroke-linecap: round"/>
   </g>
   <g id="line2d_11">
    <path d="M 30.95 141.697656 
L 30.95 192.457656 
M 39.95 192.457656 
L 21.95 192.457656 
M 39.95 198.937656 
L 21.95 198.937656 
M 30.95 198.937656 
L 30.95 249.697656 
" clip-path="url(#pa7effa8c45)" style="fill: none; stroke: #000000; stroke-width: 2; stroke-linecap: round"/>
   </g>
   <g id="line2d_12">
    <path d="M 30.95 249.697656 
L 30.95 264.097656 
L 21.95 264.097656 
L 39.95 264.097656 
M 24.65 268.417656 
L 37.25 268.417656 
M 29.15 272.737656 
L 32.75 272.737656 
" clip-path="url(#pa7effa8c45)" style="fill: none; stroke: #000000; stroke-width: 2; stroke-linecap: round"/>
   </g>
   <g id="text_1">
    <!-- $V_{dd}$ -->
    <g transform="translate(20.8875 13.098047) scale(0.125 -0.125)">
     <defs>
      <path id="DejaVuSans-Oblique-56" d="M 1319 0 
L 500 4666 
L 1119 4666 
L 1797 653 
L 4063 4666 
L 4750 4666 
L 2053 0 
L 1319 0 
z
" transform="scale(0.015625)"/>
      <path id="DejaVuSans-Oblique-64" d="M 2675 525 
Q 2444 222 2128 65 
Q 1813 -91 1428 -91 
Q 903 -91 598 267 
Q 294 625 294 1247 
Q 294 1766 478 2236 
Q 663 2706 1013 3078 
Q 1244 3325 1534 3454 
Q 1825 3584 2144 3584 
Q 2481 3584 2739 3421 
Q 2997 3259 3138 2956 
L 3513 4863 
L 4091 4863 
L 3144 0 
L 2566 0 
L 2675 525 
z
M 891 1350 
Q 891 897 1095 644 
Q 1300 391 1663 391 
Q 1931 391 2161 520 
Q 2391 650 2566 903 
Q 2750 1166 2856 1509 
Q 2963 1853 2963 2188 
Q 2963 2622 2758 2865 
Q 2553 3109 2194 3109 
Q 1922 3109 1687 2981 
Q 1453 2853 1288 2613 
Q 1106 2353 998 2009 
Q 891 1666 891 1350 
z
" transform="scale(0.015625)"/>
     </defs>
     <use xlink:href="#DejaVuSans-Oblique-56" transform="translate(0 0.09375)"/>
     <use xlink:href="#DejaVuSans-Oblique-64" transform="translate(68.408203 -16.3125) scale(0.7)"/>
     <use xlink:href="#DejaVuSans-Oblique-64" transform="translate(112.841797 -16.3125) scale(0.7)"/>
    </g>
   </g>
   <g id="text_2">
    <!-- $L_1$ -->
    <g transform="translate(7.363529 91.146875) scale(0.125 -0.125)">
     <defs>
      <path id="DejaVuSans-Oblique-4c" d="M 1075 4666 
L 1709 4666 
L 909 525 
L 3181 525 
L 3078 0 
L 172 0 
L 1075 4666 
z
" transform="scale(0.015625)"/>
      <path id="DejaVuSans-31" d="M 794 531 
L 1825 531 
L 1825 4091 
L 703 3866 
L 703 4441 
L 1819 4666 
L 2450 4666 
L 2450 531 
L 3481 531 
L 3481 0 
L 794 0 
L 794 531 
z
" transform="scale(0.015625)"/>
     </defs>
     <use xlink:href="#DejaVuSans-Oblique-4c" transform="translate(0 0.09375)"/>
     <use xlink:href="#DejaVuSans-31" transform="translate(55.712891 -16.3125) scale(0.7)"/>
    </g>
   </g>
   <g id="text_3">
    <!-- $C_2$ -->
    <g transform="translate(77.575 126.498047) scale(0.125 -0.125)">
     <defs>
      <path id="DejaVuSans-Oblique-43" d="M 4447 4306 
L 4319 3641 
Q 4019 3944 3683 4091 
Q 3347 4238 2956 4238 
Q 2422 4238 2017 3981 
Q 1613 3725 1319 3200 
Q 1131 2863 1032 2486 
Q 934 2109 934 1728 
Q 934 1091 1264 756 
Q 1594 422 2222 422 
Q 2656 422 3056 561 
Q 3456 700 3834 978 
L 3688 231 
Q 3316 72 2936 -9 
Q 2556 -91 2175 -91 
Q 1278 -91 773 396 
Q 269 884 269 1753 
Q 269 2309 461 2846 
Q 653 3384 1013 3828 
Q 1394 4300 1883 4525 
Q 2372 4750 3022 4750 
Q 3422 4750 3780 4639 
Q 4138 4528 4447 4306 
z
" transform="scale(0.015625)"/>
      <path id="DejaVuSans-32" d="M 1228 531 
L 3431 531 
L 3431 0 
L 469 0 
L 469 531 
Q 828 903 1448 1529 
Q 2069 2156 2228 2338 
Q 2531 2678 2651 2914 
Q 2772 3150 2772 3378 
Q 2772 3750 2511 3984 
Q 2250 4219 1831 4219 
Q 1534 4219 1204 4116 
Q 875 4013 500 3803 
L 500 4441 
Q 881 4594 1212 4672 
Q 1544 4750 1819 4750 
Q 2544 4750 2975 4387 
Q 3406 4025 3406 3419 
Q 3406 3131 3298 2873 
Q 3191 2616 2906 2266 
Q 2828 2175 2409 1742 
Q 1991 1309 1228 531 
z
" transform="scale(0.015625)"/>
     </defs>
     <use xlink:href="#DejaVuSans-Oblique-43" transform="translate(0 0.78125)"/>
     <use xlink:href="#DejaVuSans-32" transform="translate(69.824219 -15.625) scale(0.7)"/>
    </g>
   </g>
   <g id="text_4">
    <!-- $L_2$ -->
    <g transform="translate(186.5125 121.819162) scale(0.125 -0.125)">
     <use xlink:href="#DejaVuSans-Oblique-4c" transform="translate(0 0.09375)"/>
     <use xlink:href="#DejaVuSans-32" transform="translate(55.712891 -16.3125) scale(0.7)"/>
    </g>
   </g>
   <g id="text_5">
    <!-- $R_L$ -->
    <g transform="translate(220.35 199.146875) scale(0.125 -0.125)">
     <defs>
      <path id="DejaVuSans-Oblique-52" d="M 1613 4147 
L 1294 2491 
L 2106 2491 
Q 2584 2491 2879 2755 
Q 3175 3019 3175 3444 
Q 3175 3784 2976 3965 
Q 2778 4147 2406 4147 
L 1613 4147 
z
M 2772 2241 
Q 2972 2194 3105 2009 
Q 3238 1825 3413 1275 
L 3809 0 
L 3144 0 
L 2778 1197 
Q 2638 1659 2453 1815 
Q 2269 1972 1888 1972 
L 1191 1972 
L 806 0 
L 172 0 
L 1081 4666 
L 2503 4666 
Q 3150 4666 3495 4373 
Q 3841 4081 3841 3531 
Q 3841 3044 3547 2687 
Q 3253 2331 2772 2241 
z
" transform="scale(0.015625)"/>
     </defs>
     <use xlink:href="#DejaVuSans-Oblique-52" transform="translate(0 0.09375)"/>
     <use xlink:href="#DejaVuSans-Oblique-4c" transform="translate(69.482422 -16.3125) scale(0.7)"/>
    </g>
   </g>
   <g id="text_6">
    <!-- + -->
    <g transform="translate(274.112695 172.146875) scale(0.125 -0.125)">
     <defs>
      <path id="DejaVuSans-2b" d="M 2944 4013 
L 2944 2272 
L 4684 2272 
L 4684 1741 
L 2944 1741 
L 2944 0 
L 2419 0 
L 2419 1741 
L 678 1741 
L 678 2272 
L 2419 2272 
L 2419 4013 
L 2944 4013 
z
" transform="scale(0.015625)"/>
     </defs>
     <use xlink:href="#DejaVuSans-2b"/>
    </g>
   </g>
   <g id="text_7">
    <!-- $v_{out}$ -->
    <g transform="translate(268.2875 199.146875) scale(0.125 -0.125)">
     <defs>
      <path id="DejaVuSans-Oblique-76" d="M 459 3500 
L 1069 3500 
L 1581 525 
L 3256 3500 
L 3866 3500 
L 1875 0 
L 1100 0 
L 459 3500 
z
" transform="scale(0.015625)"/>
      <path id="DejaVuSans-Oblique-6f" d="M 1625 -91 
Q 1009 -91 651 289 
Q 294 669 294 1325 
Q 294 1706 417 2101 
Q 541 2497 738 2766 
Q 1047 3184 1428 3384 
Q 1809 3584 2291 3584 
Q 2888 3584 3255 3212 
Q 3622 2841 3622 2241 
Q 3622 1825 3500 1412 
Q 3378 1000 3181 728 
Q 2875 309 2494 109 
Q 2113 -91 1625 -91 
z
M 891 1344 
Q 891 869 1089 633 
Q 1288 397 1691 397 
Q 2269 397 2648 901 
Q 3028 1406 3028 2181 
Q 3028 2634 2825 2865 
Q 2622 3097 2228 3097 
Q 1903 3097 1650 2945 
Q 1397 2794 1197 2484 
Q 1050 2253 970 1956 
Q 891 1659 891 1344 
z
" transform="scale(0.015625)"/>
      <path id="DejaVuSans-Oblique-75" d="M 428 1388 
L 838 3500 
L 1416 3500 
L 1006 1409 
Q 975 1256 961 1147 
Q 947 1038 947 966 
Q 947 700 1109 554 
Q 1272 409 1569 409 
Q 2031 409 2368 721 
Q 2706 1034 2809 1563 
L 3194 3500 
L 3769 3500 
L 3091 0 
L 2516 0 
L 2631 550 
Q 2388 244 2052 76 
Q 1716 -91 1338 -91 
Q 878 -91 622 161 
Q 366 413 366 863 
Q 366 956 381 1097 
Q 397 1238 428 1388 
z
" transform="scale(0.015625)"/>
      <path id="DejaVuSans-Oblique-74" d="M 2706 3500 
L 2619 3053 
L 1472 3053 
L 1100 1153 
Q 1081 1047 1072 975 
Q 1063 903 1063 863 
Q 1063 663 1183 572 
Q 1303 481 1569 481 
L 2150 481 
L 2053 0 
L 1503 0 
Q 991 0 739 200 
Q 488 400 488 806 
Q 488 878 497 964 
Q 506 1050 525 1153 
L 897 3053 
L 409 3053 
L 500 3500 
L 978 3500 
L 1172 4494 
L 1747 4494 
L 1556 3500 
L 2706 3500 
z
" transform="scale(0.015625)"/>
     </defs>
     <use xlink:href="#DejaVuSans-Oblique-76" transform="translate(0 0.3125)"/>
     <use xlink:href="#DejaVuSans-Oblique-6f" transform="translate(59.179688 -16.09375) scale(0.7)"/>
     <use xlink:href="#DejaVuSans-Oblique-75" transform="translate(102.006836 -16.09375) scale(0.7)"/>
     <use xlink:href="#DejaVuSans-Oblique-74" transform="translate(146.37207 -16.09375) scale(0.7)"/>
    </g>
   </g>
   <g id="text_8">
    <!-- $-$ -->
    <g transform="translate(274.1 226.146875) scale(0.125 -0.125)">
     <defs>
      <path id="DejaVuSans-2212" d="M 678 2272 
L 4684 2272 
L 4684 1741 
L 678 1741 
L 678 2272 
z
" transform="scale(0.015625)"/>
     </defs>
     <use xlink:href="#DejaVuSans-2212" transform="translate(0 0.5)"/>
    </g>
   </g>
   <g id="text_9">
    <!-- $C_1$ -->
    <g transform="translate(3.6 199.146875) scale(0.125 -0.125)">
     <use xlink:href="#DejaVuSans-Oblique-43" transform="translate(0 0.78125)"/>
     <use xlink:href="#DejaVuSans-31" transform="translate(69.824219 -15.625) scale(0.7)"/>
    </g>
   </g>
   <g id="patch_2">
    <path d="M 30.95 144.397656 
C 31.666048 144.397656 32.352866 144.113167 32.859188 143.606845 
C 33.365511 143.100522 33.65 142.413705 33.65 141.697656 
C 33.65 140.981608 33.365511 140.294791 32.859188 139.788468 
C 32.352866 139.282145 31.666048 138.997656 30.95 138.997656 
C 30.233952 138.997656 29.547134 139.282145 29.040812 139.788468 
C 28.534489 140.294791 28.25 140.981608 28.25 141.697656 
C 28.25 142.413705 28.534489 143.100522 29.040812 143.606845 
C 29.547134 144.113167 30.233952 144.397656 30.95 144.397656 
z
" clip-path="url(#pa7effa8c45)" style="stroke: #000000; stroke-width: 2; stroke-linejoin: miter"/>
   </g>
   <g id="patch_3">
    <path d="M 264.95 144.397656 
C 265.666048 144.397656 266.352866 144.113167 266.859188 143.606845 
C 267.365511 143.100522 267.65 142.413705 267.65 141.697656 
C 267.65 140.981608 267.365511 140.294791 266.859188 139.788468 
C 266.352866 139.282145 265.666048 138.997656 264.95 138.997656 
C 264.233952 138.997656 263.547134 139.282145 263.040812 139.788468 
C 262.534489 140.294791 262.25 140.981608 262.25 141.697656 
C 262.25 142.413705 262.534489 143.100522 263.040812 143.606845 
C 263.547134 144.113167 264.233952 144.397656 264.95 144.397656 
z
" clip-path="url(#pa7effa8c45)" style="fill: #ffffff; stroke: #000000; stroke-width: 2; stroke-linejoin: miter"/>
   </g>
   <g id="patch_4">
    <path d="M 264.95 252.397656 
C 265.666048 252.397656 266.352866 252.113167 266.859188 251.606845 
C 267.365511 251.100522 267.65 250.413705 267.65 249.697656 
C 267.65 248.981608 267.365511 248.294791 266.859188 247.788468 
C 266.352866 247.282145 265.666048 246.997656 264.95 246.997656 
C 264.233952 246.997656 263.547134 247.282145 263.040812 247.788468 
C 262.534489 248.294791 262.25 248.981608 262.25 249.697656 
C 262.25 250.413705 262.534489 251.100522 263.040812 251.606845 
C 263.547134 252.113167 264.233952 252.397656 264.95 252.397656 
z
" clip-path="url(#pa7effa8c45)" style="fill: #ffffff; stroke: #000000; stroke-width: 2; stroke-linejoin: miter"/>
   </g>
   <g id="patch_5">
    <path d="M 30.95 252.397656 
C 31.666048 252.397656 32.352866 252.113167 32.859188 251.606845 
C 33.365511 251.100522 33.65 250.413705 33.65 249.697656 
C 33.65 248.981608 33.365511 248.294791 32.859188 247.788468 
C 32.352866 247.282145 31.666048 246.997656 30.95 246.997656 
C 30.233952 246.997656 29.547134 247.282145 29.040812 247.788468 
C 28.534489 248.294791 28.25 248.981608 28.25 249.697656 
C 28.25 250.413705 28.534489 251.100522 29.040812 251.606845 
C 29.547134 252.113167 30.233952 252.397656 30.95 252.397656 
z
" clip-path="url(#pa7effa8c45)" style="stroke: #000000; stroke-width: 2; stroke-linejoin: miter"/>
   </g>
  </g>
 </g>
 <defs>
  <clipPath id="pa7effa8c45">
   <rect x="9.665" y="6.625656" width="270.27" height="278.784"/>
  </clipPath>
 </defs>
</svg>