<?xml version="1.0" encoding="utf-8" standalone="no"?>
<!DOCTYPE svg PUBLIC "-//W3C//DTD SVG 1.1//EN"
  "http://www.w3.org/Graphics/SVG/1.1/DTD/svg11.dtd">
<svg xmlns:xlink="http://www.w3.org/1999/xlink" width="531.564pt" height="200.16pt" viewBox="0 0 531.564 200.16" xmlns="http://www.w3.org/2000/svg" version="1.1">
 <metadata>
  <rdf:RDF xmlns:dc="http://purl.org/dc/elements/1.1/" xmlns:cc="http://creativecommons.org/ns#" xmlns:rdf="http://www.w3.org/1999/02/22-rdf-syntax-ns#">
   <cc:Work>
    <dc:type rdf:resource="http://purl.org/dc/dcmitype/StillImage"/>
    <dc:date>2025-12-07T23:28:00.468441</dc:date>
    <dc:format>image/svg+xml</dc:format>
    <dc:creator>
     <cc:Agent>
      <dc:title>Matplotlib v3.10.8, https://matplotlib.org/</dc:title>
     </cc:Agent>
    </dc:creator>
   </cc:Work>
  </rdf:RDF>
 </metadata>
 <defs>
  <style type="text/css">*{stroke-linejoin: round; stroke-linecap: butt}</style>
 </defs>
 <g id="figure_1">
  <g id="patch_1">
   <path d="M 0 200.16 
L 531.564 200.16 
L 531.564 0 
L 0 0 
z
" style="fill: #ffffff"/>
  </g>
  <g id="axes_1">
   <g id="patch_2">
    <path d="M 49.884 91.08 
C 54.657656 91.08 59.236438 89.183406 62.611922 85.807922 
C 65.987406 82.432438 67.884 77.853656 67.884 73.08 
C 67.884 68.306344 65.987406 63.727562 62.611922 60.352078 
C 59.236438 56.976594 54.657656 55.08 49.884 55.08 
C 45.110344 55.08 40.531562 56.976594 37.156078 60.352078 
C 33.780594 63.727562 31.884 68.306344 31.884 73.08 
C 31.884 77.853656 33.780594 82.432438 37.156078 85.807922 
C 40.531562 89.183406 45.110344 91.08 49.884 91.08 
L 49.884 91.08 
z
" clip-path="url(#p74fd8cea9c)" style="fill: none; stroke: #000000; stroke-width: 2; stroke-linejoin: miter"/>
   </g>
   <g id="patch_3">
    <path d="M 112.884 51.48 
C 112.884 50.061757 112.744319 48.657305 112.472949 47.347019 
C 112.20158 46.036733 111.803801 44.846096 111.302377 43.843247 
C 110.800952 42.840398 110.205633 42.044839 109.550491 41.502101 
C 108.895348 40.959363 108.193122 40.68 107.484 40.68 
C 106.774878 40.68 106.072652 40.959363 105.417509 41.502101 
C 104.762367 42.044839 104.167048 42.840398 103.665623 43.843247 
C 103.164199 44.846096 102.76642 46.036733 102.495051 47.347019 
C 102.223681 48.657305 102.084 50.061757 102.084 51.48 
C 102.084 52.898243 102.223681 54.302695 102.495051 55.612981 
C 102.76642 56.923267 103.164199 58.113904 103.665623 59.116753 
C 104.167048 60.119602 104.762367 60.915161 105.417509 61.457899 
C 106.072652 62.000637 106.774878 62.28 107.484 62.28 
C 108.193122 62.28 108.895348 62.000637 109.550491 61.457899 
C 110.205633 60.915161 110.800952 60.119602 111.302377 59.116753 
C 111.803801 58.113904 112.20158 56.923267 112.472949 55.612981 
C 112.744319 54.302695 112.884 52.898243 112.884 51.48 
" clip-path="url(#p74fd8cea9c)" style="fill: none; stroke: #000000; stroke-width: 2; stroke-linejoin: miter"/>
   </g>
   <g id="patch_4">
    <path d="M 244.284 62.28 
C 245.71562 62.28 247.090069 61.141369 248.102377 59.116753 
C 249.114685 57.092137 249.684 54.34324 249.684 51.48 
C 249.684 48.61676 249.114685 45.867863 248.102377 43.843247 
C 247.090069 41.818631 245.71562 40.68 244.284 40.68 
" clip-path="url(#p74fd8cea9c)" style="fill: none; stroke: #000000; stroke-width: 2; stroke-linejoin: miter"/>
   </g>
   <g id="patch_5">
    <path d="M 265.884 78.48 
C 267.302243 78.48 268.706695 78.340319 270.016981 78.068949 
C 271.327267 77.79758 272.517904 77.399801 273.520753 76.898377 
C 274.523602 76.396952 275.319161 75.801633 275.861899 75.146491 
C 276.404637 74.491348 276.684 73.789122 276.684 73.08 
C 276.684 72.370878 276.404637 71.668652 275.861899 71.013509 
C 275.319161 70.358367 274.523602 69.763048 273.520753 69.261623 
C 272.517904 68.760199 271.327267 68.36242 270.016981 68.091051 
C 268.706695 67.819681 267.302243 67.68 265.884 67.68 
C 264.465757 67.68 263.061305 67.819681 261.751019 68.091051 
C 260.440733 68.36242 259.250096 68.760199 258.247247 69.261623 
C 257.244398 69.763048 256.448839 70.358367 255.906101 71.013509 
C 255.363363 71.668652 255.084 72.370878 255.084 73.08 
C 255.084 73.789122 255.363363 74.491348 255.906101 75.146491 
C 256.448839 75.801633 257.244398 76.396952 258.247247 76.898377 
C 259.250096 77.399801 260.440733 77.79758 261.751019 78.068949 
C 263.061305 78.340319 264.465757 78.48 265.884 78.48 
" clip-path="url(#p74fd8cea9c)" style="fill: none; stroke: #000000; stroke-width: 2; stroke-linejoin: miter"/>
   </g>
   <g id="patch_6">
    <path d="M 255.084 173.88 
C 255.084 175.31162 256.222631 176.686069 258.247247 177.698377 
C 260.271863 178.710685 263.02076 179.28 265.884 179.28 
C 268.74724 179.28 271.496137 178.710685 273.520753 177.698377 
C 275.545369 176.686069 276.684 175.31162 276.684 173.88 
" clip-path="url(#p74fd8cea9c)" style="fill: none; stroke: #000000; stroke-width: 2; stroke-linejoin: miter"/>
   </g>
   <g id="patch_7">
    <path d="M 292.884 51.48 
C 292.884 50.061757 292.744319 48.657305 292.472949 47.347019 
C 292.20158 46.036733 291.803801 44.846096 291.302377 43.843247 
C 290.800952 42.840398 290.205633 42.044839 289.550491 41.502101 
C 288.895348 40.959363 288.193122 40.68 287.484 40.68 
C 286.774878 40.68 286.072652 40.959363 285.417509 41.502101 
C 284.762367 42.044839 284.167048 42.840398 283.665623 43.843247 
C 283.164199 44.846096 282.76642 46.036733 282.495051 47.347019 
C 282.223681 48.657305 282.084 50.061757 282.084 51.48 
C 282.084 52.898243 282.223681 54.302695 282.495051 55.612981 
C 282.76642 56.923267 283.164199 58.113904 283.665623 59.116753 
C 284.167048 60.119602 284.762367 60.915161 285.417509 61.457899 
C 286.072652 62.000637 286.774878 62.28 287.484 62.28 
C 288.193122 62.28 288.895348 62.000637 289.550491 61.457899 
C 290.205633 60.915161 290.800952 60.119602 291.302377 59.116753 
C 291.803801 58.113904 292.20158 56.923267 292.472949 55.612981 
C 292.744319 54.302695 292.884 52.898243 292.884 51.48 
" clip-path="url(#p74fd8cea9c)" style="fill: none; stroke: #000000; stroke-width: 2; stroke-linejoin: miter"/>
   </g>
   <g id="patch_8">
    <path d="M 388.284 62.28 
C 389.71562 62.28 391.090069 61.141369 392.102377 59.116753 
C 393.114685 57.092137 393.684 54.34324 393.684 51.48 
C 393.684 48.61676 393.114685 45.867863 392.102377 43.843247 
C 391.090069 41.818631 389.71562 40.68 388.284 40.68 
" clip-path="url(#p74fd8cea9c)" style="fill: none; stroke: #000000; stroke-width: 2; stroke-linejoin: miter"/>
   </g>
   <g id="line2d_1">
    <path d="M 49.884 109.08 
L 49.884 123.48 
L 40.884 123.48 
L 58.884 123.48 
M 43.584 127.8 
L 56.184 127.8 
M 48.084 132.12 
L 51.684 132.12 
" clip-path="url(#p74fd8cea9c)" style="fill: none; stroke: #000000; stroke-width: 2; stroke-linecap: round"/>
   </g>
   <g id="line2d_2">
    <path d="M 49.884 109.08 
L 49.884 91.08 
L 49.884 91.08 
M 49.884 55.08 
L 49.884 55.08 
L 49.884 37.08 
" clip-path="url(#p74fd8cea9c)" style="fill: none; stroke: #000000; stroke-width: 2; stroke-linecap: round"/>
   </g>
   <g id="line2d_3">
    <path d="M 58.884 73.08 
L 58.134 71.216503 
L 57.384 69.48 
L 56.634 67.988831 
L 55.884 66.844617 
L 55.134 66.125334 
L 54.384 65.88 
L 53.634 66.125334 
L 52.884 66.844617 
L 52.134 67.988831 
L 51.384 69.48 
L 50.634 71.216503 
L 49.884 73.08 
L 49.134 74.943497 
L 48.384 76.68 
L 47.634 78.171169 
L 46.884 79.315383 
L 46.134 80.034666 
L 45.384 80.28 
L 44.634 80.034666 
L 43.884 79.315383 
L 43.134 78.171169 
L 42.384 76.68 
L 41.634 74.943497 
L 40.884 73.08 
" clip-path="url(#p74fd8cea9c)" style="fill: none; stroke: #000000; stroke-width: 2; stroke-linecap: round"/>
   </g>
   <g id="line2d_4">
    <path d="M 49.884 37.08 
L 67.884 37.08 
L 85.884 37.08 
" clip-path="url(#p74fd8cea9c)" style="fill: none; stroke: #000000; stroke-width: 2; stroke-linecap: round"/>
   </g>
   <g id="line2d_5">
    <path d="M 85.884 37.08 
L 85.884 44.28 
L 85.884 51.48 
" clip-path="url(#p74fd8cea9c)" style="fill: none; stroke: #000000; stroke-width: 2; stroke-linecap: round"/>
   </g>
   <g id="line2d_6">
    <path d="M 85.884 51.48 
L 107.484 51.48 
M 249.684 51.48 
L 265.884 51.48 
" clip-path="url(#p74fd8cea9c)" style="fill: none; stroke: #000000; stroke-width: 2; stroke-linecap: round"/>
   </g>
   <g id="line2d_7">
    <path d="M 107.484 40.68 
L 244.284 40.68 
" clip-path="url(#p74fd8cea9c)" style="fill: none; stroke: #000000; stroke-width: 2; stroke-linecap: round"/>
   </g>
   <g id="line2d_8">
    <path d="M 107.484 62.28 
L 244.284 62.28 
" clip-path="url(#p74fd8cea9c)" style="fill: none; stroke: #000000; stroke-width: 2; stroke-linecap: round"/>
   </g>
   <g id="line2d_9">
    <path d="M 265.884 51.48 
L 265.884 73.08 
M 265.884 179.28 
L 265.884 195.48 
" clip-path="url(#p74fd8cea9c)" style="fill: none; stroke: #000000; stroke-width: 2; stroke-linecap: round"/>
   </g>
   <g id="line2d_10">
    <path d="M 276.684 73.08 
L 276.684 173.88 
" clip-path="url(#p74fd8cea9c)" style="fill: none; stroke: #000000; stroke-width: 2; stroke-linecap: round"/>
   </g>
   <g id="line2d_11">
    <path d="M 255.084 73.08 
L 255.084 173.88 
" clip-path="url(#p74fd8cea9c)" style="fill: none; stroke: #000000; stroke-width: 2; stroke-linecap: round"/>
   </g>
   <g id="line2d_12">
    <path d="M 244.284 62.28 
L 244.284 67.68 
L 244.284 73.08 
" clip-path="url(#p74fd8cea9c)" style="fill: none; stroke: #000000; stroke-width: 2; stroke-linecap: round"/>
   </g>
   <g id="line2d_13">
    <path d="M 244.284 73.08 
L 249.684 73.08 
L 255.084 73.08 
" clip-path="url(#p74fd8cea9c)" style="fill: none; stroke: #000000; stroke-width: 2; stroke-linecap: round"/>
   </g>
   <g id="line2d_14">
    <path d="M 265.884 51.48 
L 287.484 51.48 
M 393.684 51.48 
L 409.884 51.48 
" clip-path="url(#p74fd8cea9c)" style="fill: none; stroke: #000000; stroke-width: 2; stroke-linecap: round"/>
   </g>
   <g id="line2d_15">
    <path d="M 287.484 40.68 
L 388.284 40.68 
" clip-path="url(#p74fd8cea9c)" style="fill: none; stroke: #000000; stroke-width: 2; stroke-linecap: round"/>
   </g>
   <g id="line2d_16">
    <path d="M 287.484 62.28 
L 388.284 62.28 
" clip-path="url(#p74fd8cea9c)" style="fill: none; stroke: #000000; stroke-width: 2; stroke-linecap: round"/>
   </g>
   <g id="line2d_17">
    <path d="M 409.884 51.48 
L 427.884 51.48 
L 445.884 51.48 
" clip-path="url(#p74fd8cea9c)" style="fill: none; stroke: #000000; stroke-width: 2; stroke-linecap: round"/>
   </g>
   <g id="line2d_18">
    <path d="M 445.884 51.48 
L 445.884 87.48 
L 454.884 90.48 
L 436.884 96.48 
L 454.884 102.48 
L 436.884 108.48 
L 454.884 114.48 
L 436.884 120.48 
L 445.884 123.48 
L 445.884 159.48 
" clip-path="url(#p74fd8cea9c)" style="fill: none; stroke: #000000; stroke-width: 2; stroke-linecap: round"/>
   </g>
   <g id="line2d_19">
    <path d="M 445.884 51.48 
L 481.884 51.48 
L 517.884 51.48 
" clip-path="url(#p74fd8cea9c)" style="fill: none; stroke: #000000; stroke-width: 2; stroke-linecap: round"/>
   </g>
   <g id="line2d_20">
    <path d="M 517.884 51.48 
L 517.884 102.24 
M 526.884 102.24 
L 508.884 102.24 
M 526.884 108.72 
L 508.884 108.72 
M 517.884 108.72 
L 517.884 159.48 
" clip-path="url(#p74fd8cea9c)" style="fill: none; stroke: #000000; stroke-width: 2; stroke-linecap: round"/>
   </g>
   <g id="line2d_21">
    <path d="M 517.884 159.48 
L 481.884 159.48 
L 445.884 159.48 
" clip-path="url(#p74fd8cea9c)" style="fill: none; stroke: #000000; stroke-width: 2; stroke-linecap: round"/>
   </g>
   <g id="line2d_22">
    <path d="M 388.284 62.28 
L 388.284 110.88 
L 388.284 159.48 
" clip-path="url(#p74fd8cea9c)" style="fill: none; stroke: #000000; stroke-width: 2; stroke-linecap: round"/>
   </g>
   <g id="line2d_23">
    <path d="M 388.284 159.48 
L 417.084 159.48 
L 445.884 159.48 
" clip-path="url(#p74fd8cea9c)" style="fill: none; stroke: #000000; stroke-width: 2; stroke-linecap: round"/>
   </g>
   <g id="line2d_24">
    <path d="M 244.284 40.68 
L 244.284 22.68 
L 244.284 4.68 
" clip-path="url(#p74fd8cea9c)" style="fill: none; stroke: #000000; stroke-width: 2; stroke-linecap: round"/>
   </g>
   <g id="line2d_25">
    <path d="M 244.284 4.68 
L 265.884 4.68 
L 287.484 4.68 
" clip-path="url(#p74fd8cea9c)" style="fill: none; stroke: #000000; stroke-width: 2; stroke-linecap: round"/>
   </g>
   <g id="line2d_26">
    <path d="M 287.484 4.68 
L 287.484 22.68 
L 287.484 40.68 
" clip-path="url(#p74fd8cea9c)" style="fill: none; stroke: #000000; stroke-width: 2; stroke-linecap: round"/>
   </g>
   <g id="line2d_27">
    <path d="M 49.884 109.08 
L 78.684 109.08 
L 107.484 109.08 
" clip-path="url(#p74fd8cea9c)" style="fill: none; stroke: #000000; stroke-width: 2; stroke-linecap: round"/>
   </g>
   <g id="line2d_28">
    <path d="M 107.484 109.08 
L 107.484 85.68 
L 107.484 62.28 
" clip-path="url(#p74fd8cea9c)" style="fill: none; stroke: #000000; stroke-width: 2; stroke-linecap: round"/>
   </g>
   <g id="text_1">
    <!-- $V_{in}$ -->
    <g transform="translate(9.384 76.943125) scale(0.14 -0.14)">
     <defs>
      <path id="DejaVuSans-Oblique-56" d="M 1319 0 
L 500 4666 
L 1119 4666 
L 1797 653 
L 4063 4666 
L 4750 4666 
L 2053 0 
L 1319 0 
z
" transform="scale(0.015625)"/>
      <path id="DejaVuSans-Oblique-69" d="M 1172 4863 
L 1747 4863 
L 1606 4134 
L 1031 4134 
L 1172 4863 
z
M 909 3500 
L 1484 3500 
L 800 0 
L 225 0 
L 909 3500 
z
" transform="scale(0.015625)"/>
      <path id="DejaVuSans-Oblique-6e" d="M 3566 2113 
L 3156 0 
L 2578 0 
L 2988 2091 
Q 3016 2238 3031 2350 
Q 3047 2463 3047 2528 
Q 3047 2791 2881 2937 
Q 2716 3084 2419 3084 
Q 1956 3084 1622 2776 
Q 1288 2469 1184 1941 
L 800 0 
L 225 0 
L 903 3500 
L 1478 3500 
L 1363 2950 
Q 1603 3253 1940 3418 
Q 2278 3584 2650 3584 
Q 3113 3584 3367 3334 
Q 3622 3084 3622 2631 
Q 3622 2519 3608 2391 
Q 3594 2263 3566 2113 
z
" transform="scale(0.015625)"/>
     </defs>
     <use xlink:href="#DejaVuSans-Oblique-56" transform="translate(0 0.09375)"/>
     <use xlink:href="#DejaVuSans-Oblique-69" transform="translate(68.408203 -16.3125) scale(0.7)"/>
     <use xlink:href="#DejaVuSans-Oblique-6e" transform="translate(87.856445 -16.3125) scale(0.7)"/>
    </g>
   </g>
   <g id="text_2">
    <!-- $64\Omega$ -->
    <g transform="translate(161.604 34.168438) scale(0.14 -0.14)">
     <defs>
      <path id="DejaVuSans-36" d="M 2113 2584 
Q 1688 2584 1439 2293 
Q 1191 2003 1191 1497 
Q 1191 994 1439 701 
Q 1688 409 2113 409 
Q 2538 409 2786 701 
Q 3034 994 3034 1497 
Q 3034 2003 2786 2293 
Q 2538 2584 2113 2584 
z
M 3366 4563 
L 3366 3988 
Q 3128 4100 2886 4159 
Q 2644 4219 2406 4219 
Q 1781 4219 1451 3797 
Q 1122 3375 1075 2522 
Q 1259 2794 1537 2939 
Q 1816 3084 2150 3084 
Q 2853 3084 3261 2657 
Q 3669 2231 3669 1497 
Q 3669 778 3244 343 
Q 2819 -91 2113 -91 
Q 1303 -91 875 529 
Q 447 1150 447 2328 
Q 447 3434 972 4092 
Q 1497 4750 2381 4750 
Q 2619 4750 2861 4703 
Q 3103 4656 3366 4563 
z
" transform="scale(0.015625)"/>
      <path id="DejaVuSans-34" d="M 2419 4116 
L 825 1625 
L 2419 1625 
L 2419 4116 
z
M 2253 4666 
L 3047 4666 
L 3047 1625 
L 3713 1625 
L 3713 1100 
L 3047 1100 
L 3047 0 
L 2419 0 
L 2419 1100 
L 313 1100 
L 313 1709 
L 2253 4666 
z
" transform="scale(0.015625)"/>
      <path id="DejaVuSans-3a9" d="M 4647 556 
L 4647 0 
L 2772 0 
L 2772 556 
Q 3325 859 3634 1378 
Q 3944 1897 3944 2528 
Q 3944 3278 3531 3731 
Q 3119 4184 2444 4184 
Q 1769 4184 1355 3729 
Q 941 3275 941 2528 
Q 941 1897 1250 1378 
Q 1563 859 2119 556 
L 2119 0 
L 244 0 
L 244 556 
L 1241 556 
Q 747 991 519 1456 
Q 294 1922 294 2497 
Q 294 3491 894 4106 
Q 1491 4722 2444 4722 
Q 3391 4722 3994 4106 
Q 4594 3494 4594 2528 
Q 4594 1922 4372 1459 
Q 4150 997 3647 556 
L 4647 556 
z
" transform="scale(0.015625)"/>
     </defs>
     <use xlink:href="#DejaVuSans-36" transform="translate(0 0.78125)"/>
     <use xlink:href="#DejaVuSans-34" transform="translate(63.623047 0.78125)"/>
     <use xlink:href="#DejaVuSans-3a9" transform="translate(127.246094 0.78125)"/>
    </g>
   </g>
   <g id="text_3">
    <!-- $64\Omega$ -->
    <g transform="translate(222.924 127.343125) scale(0.14 -0.14)">
     <use xlink:href="#DejaVuSans-36" transform="translate(0 0.78125)"/>
     <use xlink:href="#DejaVuSans-34" transform="translate(63.623047 0.78125)"/>
     <use xlink:href="#DejaVuSans-3a9" transform="translate(127.246094 0.78125)"/>
    </g>
   </g>
   <g id="text_4">
    <!-- 41.0 mm -->
    <g transform="translate(280.284 127.343125) scale(0.14 -0.14)">
     <defs>
      <path id="DejaVuSans-31" d="M 794 531 
L 1825 531 
L 1825 4091 
L 703 3866 
L 703 4441 
L 1819 4666 
L 2450 4666 
L 2450 531 
L 3481 531 
L 3481 0 
L 794 0 
L 794 531 
z
" transform="scale(0.015625)"/>
      <path id="DejaVuSans-2e" d="M 684 794 
L 1344 794 
L 1344 0 
L 684 0 
L 684 794 
z
" transform="scale(0.015625)"/>
      <path id="DejaVuSans-30" d="M 2034 4250 
Q 1547 4250 1301 3770 
Q 1056 3291 1056 2328 
Q 1056 1369 1301 889 
Q 1547 409 2034 409 
Q 2525 409 2770 889 
Q 3016 1369 3016 2328 
Q 3016 3291 2770 3770 
Q 2525 4250 2034 4250 
z
M 2034 4750 
Q 2819 4750 3233 4129 
Q 3647 3509 3647 2328 
Q 3647 1150 3233 529 
Q 2819 -91 2034 -91 
Q 1250 -91 836 529 
Q 422 1150 422 2328 
Q 422 3509 836 4129 
Q 1250 4750 2034 4750 
z
" transform="scale(0.015625)"/>
      <path id="DejaVuSans-20" transform="scale(0.015625)"/>
      <path id="DejaVuSans-6d" d="M 3328 2828 
Q 3544 3216 3844 3400 
Q 4144 3584 4550 3584 
Q 5097 3584 5394 3201 
Q 5691 2819 5691 2113 
L 5691 0 
L 5113 0 
L 5113 2094 
Q 5113 2597 4934 2840 
Q 4756 3084 4391 3084 
Q 3944 3084 3684 2787 
Q 3425 2491 3425 1978 
L 3425 0 
L 2847 0 
L 2847 2094 
Q 2847 2600 2669 2842 
Q 2491 3084 2119 3084 
Q 1678 3084 1418 2786 
Q 1159 2488 1159 1978 
L 1159 0 
L 581 0 
L 581 3500 
L 1159 3500 
L 1159 2956 
Q 1356 3278 1631 3431 
Q 1906 3584 2284 3584 
Q 2666 3584 2933 3390 
Q 3200 3197 3328 2828 
z
" transform="scale(0.015625)"/>
     </defs>
     <use xlink:href="#DejaVuSans-34"/>
     <use xlink:href="#DejaVuSans-31" transform="translate(63.623047 0)"/>
     <use xlink:href="#DejaVuSans-2e" transform="translate(127.246094 0)"/>
     <use xlink:href="#DejaVuSans-30" transform="translate(159.033203 0)"/>
     <use xlink:href="#DejaVuSans-20" transform="translate(222.65625 0)"/>
     <use xlink:href="#DejaVuSans-6d" transform="translate(254.443359 0)"/>
     <use xlink:href="#DejaVuSans-6d" transform="translate(351.855469 0)"/>
    </g>
   </g>
   <g id="text_5">
    <!-- $64\Omega$ -->
    <g transform="translate(323.604 34.168438) scale(0.14 -0.14)">
     <use xlink:href="#DejaVuSans-36" transform="translate(0 0.78125)"/>
     <use xlink:href="#DejaVuSans-34" transform="translate(63.623047 0.78125)"/>
     <use xlink:href="#DejaVuSans-3a9" transform="translate(127.246094 0.78125)"/>
    </g>
   </g>
   <g id="text_6">
    <!-- 41.0 mm -->
    <g transform="translate(306.4365 76.517813) scale(0.14 -0.14)">
     <use xlink:href="#DejaVuSans-34"/>
     <use xlink:href="#DejaVuSans-31" transform="translate(63.623047 0)"/>
     <use xlink:href="#DejaVuSans-2e" transform="translate(127.246094 0)"/>
     <use xlink:href="#DejaVuSans-30" transform="translate(159.033203 0)"/>
     <use xlink:href="#DejaVuSans-20" transform="translate(222.65625 0)"/>
     <use xlink:href="#DejaVuSans-6d" transform="translate(254.443359 0)"/>
     <use xlink:href="#DejaVuSans-6d" transform="translate(351.855469 0)"/>
    </g>
   </g>
   <g id="text_7">
    <!-- 32Ω -->
    <g transform="translate(404.769938 109.343125) scale(0.14 -0.14)">
     <defs>
      <path id="DejaVuSans-33" d="M 2597 2516 
Q 3050 2419 3304 2112 
Q 3559 1806 3559 1356 
Q 3559 666 3084 287 
Q 2609 -91 1734 -91 
Q 1441 -91 1130 -33 
Q 819 25 488 141 
L 488 750 
Q 750 597 1062 519 
Q 1375 441 1716 441 
Q 2309 441 2620 675 
Q 2931 909 2931 1356 
Q 2931 1769 2642 2001 
Q 2353 2234 1838 2234 
L 1294 2234 
L 1294 2753 
L 1863 2753 
Q 2328 2753 2575 2939 
Q 2822 3125 2822 3475 
Q 2822 3834 2567 4026 
Q 2313 4219 1838 4219 
Q 1578 4219 1281 4162 
Q 984 4106 628 3988 
L 628 4550 
Q 988 4650 1302 4700 
Q 1616 4750 1894 4750 
Q 2613 4750 3031 4423 
Q 3450 4097 3450 3541 
Q 3450 3153 3228 2886 
Q 3006 2619 2597 2516 
z
" transform="scale(0.015625)"/>
      <path id="DejaVuSans-32" d="M 1228 531 
L 3431 531 
L 3431 0 
L 469 0 
L 469 531 
Q 828 903 1448 1529 
Q 2069 2156 2228 2338 
Q 2531 2678 2651 2914 
Q 2772 3150 2772 3378 
Q 2772 3750 2511 3984 
Q 2250 4219 1831 4219 
Q 1534 4219 1204 4116 
Q 875 4013 500 3803 
L 500 4441 
Q 881 4594 1212 4672 
Q 1544 4750 1819 4750 
Q 2544 4750 2975 4387 
Q 3406 4025 3406 3419 
Q 3406 3131 3298 2873 
Q 3191 2616 2906 2266 
Q 2828 2175 2409 1742 
Q 1991 1309 1228 531 
z
" transform="scale(0.015625)"/>
     </defs>
     <use xlink:href="#DejaVuSans-33"/>
     <use xlink:href="#DejaVuSans-32" transform="translate(63.623047 0)"/>
     <use xlink:href="#DejaVuSans-3a9" transform="translate(127.246094 0)"/>
    </g>
   </g>
   <g id="text_8">
    <!-- 5pF -->
    <g transform="translate(479.4365 109.343125) scale(0.14 -0.14)">
     <defs>
      <path id="DejaVuSans-35" d="M 691 4666 
L 3169 4666 
L 3169 4134 
L 1269 4134 
L 1269 2991 
Q 1406 3038 1543 3061 
Q 1681 3084 1819 3084 
Q 2600 3084 3056 2656 
Q 3513 2228 3513 1497 
Q 3513 744 3044 326 
Q 2575 -91 1722 -91 
Q 1428 -91 1123 -41 
Q 819 9 494 109 
L 494 744 
Q 775 591 1075 516 
Q 1375 441 1709 441 
Q 2250 441 2565 725 
Q 2881 1009 2881 1497 
Q 2881 1984 2565 2268 
Q 2250 2553 1709 2553 
Q 1456 2553 1204 2497 
Q 953 2441 691 2322 
L 691 4666 
z
" transform="scale(0.015625)"/>
      <path id="DejaVuSans-70" d="M 1159 525 
L 1159 -1331 
L 581 -1331 
L 581 3500 
L 1159 3500 
L 1159 2969 
Q 1341 3281 1617 3432 
Q 1894 3584 2278 3584 
Q 2916 3584 3314 3078 
Q 3713 2572 3713 1747 
Q 3713 922 3314 415 
Q 2916 -91 2278 -91 
Q 1894 -91 1617 61 
Q 1341 213 1159 525 
z
M 3116 1747 
Q 3116 2381 2855 2742 
Q 2594 3103 2138 3103 
Q 1681 3103 1420 2742 
Q 1159 2381 1159 1747 
Q 1159 1113 1420 752 
Q 1681 391 2138 391 
Q 2594 391 2855 752 
Q 3116 1113 3116 1747 
z
" transform="scale(0.015625)"/>
      <path id="DejaVuSans-46" d="M 628 4666 
L 3309 4666 
L 3309 4134 
L 1259 4134 
L 1259 2759 
L 3109 2759 
L 3109 2228 
L 1259 2228 
L 1259 0 
L 628 0 
L 628 4666 
z
" transform="scale(0.015625)"/>
     </defs>
     <use xlink:href="#DejaVuSans-35"/>
     <use xlink:href="#DejaVuSans-70" transform="translate(63.623047 0)"/>
     <use xlink:href="#DejaVuSans-46" transform="translate(127.099609 0)"/>
    </g>
   </g>
   <g id="patch_9">
    <path d="M 49.884 111.78 
C 50.600048 111.78 51.286866 111.495511 51.793188 110.989188 
C 52.299511 110.482866 52.584 109.796048 52.584 109.08 
C 52.584 108.363952 52.299511 107.677134 51.793188 107.170812 
C 51.286866 106.664489 50.600048 106.38 49.884 106.38 
C 49.167952 106.38 48.481134 106.664489 47.974812 107.170812 
C 47.468489 107.677134 47.184 108.363952 47.184 109.08 
C 47.184 109.796048 47.468489 110.482866 47.974812 110.989188 
C 48.481134 111.495511 49.167952 111.78 49.884 111.78 
z
" clip-path="url(#p74fd8cea9c)" style="stroke: #000000; stroke-width: 2; stroke-linejoin: miter"/>
   </g>
   <g id="patch_10">
    <path d="M 265.884 54.18 
C 266.600048 54.18 267.286866 53.895511 267.793188 53.389188 
C 268.299511 52.882866 268.584 52.196048 268.584 51.48 
C 268.584 50.763952 268.299511 50.077134 267.793188 49.570812 
C 267.286866 49.064489 266.600048 48.78 265.884 48.78 
C 265.167952 48.78 264.481134 49.064489 263.974812 49.570812 
C 263.468489 50.077134 263.184 50.763952 263.184 51.48 
C 263.184 52.196048 263.468489 52.882866 263.974812 53.389188 
C 264.481134 53.895511 265.167952 54.18 265.884 54.18 
z
" clip-path="url(#p74fd8cea9c)" style="fill: #008000; stroke: #008000; stroke-width: 2; stroke-linejoin: miter"/>
   </g>
   <g id="patch_11">
    <path d="M 409.884 54.18 
C 410.600048 54.18 411.286866 53.895511 411.793188 53.389188 
C 412.299511 52.882866 412.584 52.196048 412.584 51.48 
C 412.584 50.763952 412.299511 50.077134 411.793188 49.570812 
C 411.286866 49.064489 410.600048 48.78 409.884 48.78 
C 409.167952 48.78 408.481134 49.064489 407.974812 49.570812 
C 407.468489 50.077134 407.184 50.763952 407.184 51.48 
C 407.184 52.196048 407.468489 52.882866 407.974812 53.389188 
C 408.481134 53.895511 409.167952 54.18 409.884 54.18 
z
" clip-path="url(#p74fd8cea9c)" style="fill: #ff0000; stroke: #ff0000; stroke-width: 2; stroke-linejoin: miter"/>
   </g>
  </g>
 </g>
 <defs>
  <clipPath id="p74fd8cea9c">
   <rect x="0" y="0" width="531.564" height="200.16"/>
  </clipPath>
 </defs>
</svg>