<?xml version="1.0" encoding="utf-8" standalone="no"?>
<!DOCTYPE svg PUBLIC "-//W3C//DTD SVG 1.1//EN"
  "http://www.w3.org/Graphics/SVG/1.1/DTD/svg11.dtd">
<svg xmlns:xlink="http://www.w3.org/1999/xlink" width="290.867286pt" height="183.169656pt" viewBox="0 0 290.867286 183.169656" xmlns="http://www.w3.org/2000/svg" version="1.1">
 <metadata>
  <rdf:RDF xmlns:dc="http://purl.org/dc/elements/1.1/" xmlns:cc="http://creativecommons.org/ns#" xmlns:rdf="http://www.w3.org/1999/02/22-rdf-syntax-ns#">
   <cc:Work>
    <dc:type rdf:resource="http://purl.org/dc/dcmitype/StillImage"/>
    <dc:date>2023-11-12T17:13:27.022614</dc:date>
    <dc:format>image/svg+xml</dc:format>
    <dc:creator>
     <cc:Agent>
      <dc:title>Matplotlib v3.8.0, https://matplotlib.org/</dc:title>
     </cc:Agent>
    </dc:creator>
   </cc:Work>
  </rdf:RDF>
 </metadata>
 <defs>
  <style type="text/css">*{stroke-linejoin: round; stroke-linecap: butt}</style>
 </defs>
 <g id="figure_1">
  <g id="patch_1">
   <path d="M 0 183.169656 
L 290.867286 183.169656 
L 290.867286 0 
L 0 0 
z
" style="fill: #ffffff"/>
  </g>
  <g id="axes_1">
   <g id="line2d_1">
    <path d="M 152.775 104.797656 
L 152.775 59.797656 
L 230.717286 104.797656 
L 152.775 149.797656 
L 152.775 104.797656 
M 230.717286 104.797656 
" clip-path="url(#p792f8a5611)" style="fill: none; stroke: #000000; stroke-width: 2; stroke-linecap: round"/>
   </g>
   <g id="line2d_2">
    <path d="M 158.917786 82.297656 
L 166.117786 82.297656 
" clip-path="url(#p792f8a5611)" style="fill: none; stroke: #000000; stroke-width: 2; stroke-linecap: round"/>
   </g>
   <g id="line2d_3">
    <path d="M 158.917786 127.297656 
L 166.117786 127.297656 
" clip-path="url(#p792f8a5611)" style="fill: none; stroke: #000000; stroke-width: 2; stroke-linecap: round"/>
   </g>
   <g id="line2d_4">
    <path d="M 162.517786 130.897656 
L 162.517786 123.697656 
" clip-path="url(#p792f8a5611)" style="fill: none; stroke: #000000; stroke-width: 2; stroke-linecap: round"/>
   </g>
   <g id="line2d_5">
    <path d="M 152.775 127.297656 
L 139.275 127.297656 
L 125.775 127.297656 
" clip-path="url(#p792f8a5611)" style="fill: none; stroke: #000000; stroke-width: 2; stroke-linecap: round"/>
   </g>
   <g id="line2d_6">
    <path d="M 125.775 127.297656 
L 125.775 138.097656 
L 125.775 148.897656 
" clip-path="url(#p792f8a5611)" style="fill: none; stroke: #000000; stroke-width: 2; stroke-linecap: round"/>
   </g>
   <g id="line2d_7">
    <path d="M 125.775 148.897656 
L 125.775 163.297656 
L 116.775 163.297656 
L 134.775 163.297656 
M 119.475 167.617656 
L 132.075 167.617656 
M 123.975 171.937656 
L 127.575 171.937656 
" clip-path="url(#p792f8a5611)" style="fill: none; stroke: #000000; stroke-width: 2; stroke-linecap: round"/>
   </g>
   <g id="line2d_8">
    <path d="M 152.775 82.297656 
L 143.775 82.297656 
L 134.775 82.297656 
" clip-path="url(#p792f8a5611)" style="fill: none; stroke: #000000; stroke-width: 2; stroke-linecap: round"/>
   </g>
   <g id="line2d_9">
    <path d="M 134.775 82.297656 
L 98.775 82.297656 
L 98.775 91.297656 
L 62.775 91.297656 
L 62.775 73.297656 
L 98.775 73.297656 
L 98.775 82.297656 
M 62.775 82.297656 
L 26.775 82.297656 
" clip-path="url(#p792f8a5611)" style="fill: none; stroke: #000000; stroke-width: 2; stroke-linecap: round"/>
   </g>
   <g id="line2d_10">
    <path d="M 134.775 82.297656 
L 134.775 55.297656 
L 134.775 28.297656 
" clip-path="url(#p792f8a5611)" style="fill: none; stroke: #000000; stroke-width: 2; stroke-linecap: round"/>
   </g>
   <g id="line2d_11">
    <path d="M 134.775 28.297656 
L 170.775 28.297656 
L 170.775 19.297656 
L 206.775 19.297656 
L 206.775 37.297656 
L 170.775 37.297656 
L 170.775 28.297656 
M 206.775 28.297656 
L 242.775 28.297656 
" clip-path="url(#p792f8a5611)" style="fill: none; stroke: #000000; stroke-width: 2; stroke-linecap: round"/>
   </g>
   <g id="line2d_12">
    <path d="M 242.775 28.297656 
L 242.775 66.547656 
L 242.775 104.797656 
" clip-path="url(#p792f8a5611)" style="fill: none; stroke: #000000; stroke-width: 2; stroke-linecap: round"/>
   </g>
   <g id="line2d_13">
    <path d="M 242.775 104.797656 
L 236.746143 104.797656 
L 230.717286 104.797656 
" clip-path="url(#p792f8a5611)" style="fill: none; stroke: #000000; stroke-width: 2; stroke-linecap: round"/>
   </g>
   <g id="line2d_14">
    <path d="M 230.717286 104.797656 
L 244.217286 104.797656 
L 257.717286 104.797656 
" clip-path="url(#p792f8a5611)" style="fill: none; stroke: #000000; stroke-width: 2; stroke-linecap: round"/>
   </g>
   <g id="text_1">
    <!-- $Z_1$ -->
    <g transform="translate(73.525 67.098047) scale(0.125 -0.125)">
     <defs>
      <path id="DejaVuSans-Oblique-5a" d="M 838 4666 
L 4500 4666 
L 4409 4184 
L 794 531 
L 3769 531 
L 3669 0 
L -141 0 
L -50 481 
L 3566 4134 
L 738 4134 
L 838 4666 
z
" transform="scale(0.015625)"/>
      <path id="DejaVuSans-31" d="M 794 531 
L 1825 531 
L 1825 4091 
L 703 3866 
L 703 4441 
L 1819 4666 
L 2450 4666 
L 2450 531 
L 3481 531 
L 3481 0 
L 794 0 
L 794 531 
z
" transform="scale(0.015625)"/>
     </defs>
     <use xlink:href="#DejaVuSans-Oblique-5a" transform="translate(0 0.09375)"/>
     <use xlink:href="#DejaVuSans-31" transform="translate(68.505859 -16.3125) scale(0.7)"/>
    </g>
   </g>
   <g id="text_2">
    <!-- $Z_2$ -->
    <g transform="translate(181.525 13.098047) scale(0.125 -0.125)">
     <defs>
      <path id="DejaVuSans-32" d="M 1228 531 
L 3431 531 
L 3431 0 
L 469 0 
L 469 531 
Q 828 903 1448 1529 
Q 2069 2156 2228 2338 
Q 2531 2678 2651 2914 
Q 2772 3150 2772 3378 
Q 2772 3750 2511 3984 
Q 2250 4219 1831 4219 
Q 1534 4219 1204 4116 
Q 875 4013 500 3803 
L 500 4441 
Q 881 4594 1212 4672 
Q 1544 4750 1819 4750 
Q 2544 4750 2975 4387 
Q 3406 4025 3406 3419 
Q 3406 3131 3298 2873 
Q 3191 2616 2906 2266 
Q 2828 2175 2409 1742 
Q 1991 1309 1228 531 
z
" transform="scale(0.015625)"/>
     </defs>
     <use xlink:href="#DejaVuSans-Oblique-5a" transform="translate(0 0.09375)"/>
     <use xlink:href="#DejaVuSans-32" transform="translate(68.505859 -16.3125) scale(0.7)"/>
    </g>
   </g>
   <g id="patch_2">
    <path d="M 134.775 84.997656 
C 135.491048 84.997656 136.177866 84.713167 136.684188 84.206845 
C 137.190511 83.700522 137.475 83.013705 137.475 82.297656 
C 137.475 81.581608 137.190511 80.894791 136.684188 80.388468 
C 136.177866 79.882145 135.491048 79.597656 134.775 79.597656 
C 134.058952 79.597656 133.372134 79.882145 132.865812 80.388468 
C 132.359489 80.894791 132.075 81.581608 132.075 82.297656 
C 132.075 83.013705 132.359489 83.700522 132.865812 84.206845 
C 133.372134 84.713167 134.058952 84.997656 134.775 84.997656 
z
" clip-path="url(#p792f8a5611)" style="stroke: #000000; stroke-width: 2; stroke-linejoin: miter"/>
   </g>
   <g id="patch_3">
    <path d="M 26.775 84.997656 
C 27.491048 84.997656 28.177866 84.713167 28.684188 84.206845 
C 29.190511 83.700522 29.475 83.013705 29.475 82.297656 
C 29.475 81.581608 29.190511 80.894791 28.684188 80.388468 
C 28.177866 79.882145 27.491048 79.597656 26.775 79.597656 
C 26.058952 79.597656 25.372134 79.882145 24.865812 80.388468 
C 24.359489 80.894791 24.075 81.581608 24.075 82.297656 
C 24.075 83.013705 24.359489 83.700522 24.865812 84.206845 
C 25.372134 84.713167 26.058952 84.997656 26.775 84.997656 
z
" clip-path="url(#p792f8a5611)" style="fill: #ffffff; stroke: #000000; stroke-width: 2; stroke-linejoin: miter"/>
   </g>
   <g id="text_3">
    <!-- $V_{in}$ -->
    <g transform="translate(3.6 85.746875) scale(0.125 -0.125)">
     <defs>
      <path id="DejaVuSans-Oblique-56" d="M 1319 0 
L 500 4666 
L 1119 4666 
L 1797 653 
L 4063 4666 
L 4750 4666 
L 2053 0 
L 1319 0 
z
" transform="scale(0.015625)"/>
      <path id="DejaVuSans-Oblique-69" d="M 1172 4863 
L 1747 4863 
L 1606 4134 
L 1031 4134 
L 1172 4863 
z
M 909 3500 
L 1484 3500 
L 800 0 
L 225 0 
L 909 3500 
z
" transform="scale(0.015625)"/>
      <path id="DejaVuSans-Oblique-6e" d="M 3566 2113 
L 3156 0 
L 2578 0 
L 2988 2091 
Q 3016 2238 3031 2350 
Q 3047 2463 3047 2528 
Q 3047 2791 2881 2937 
Q 2716 3084 2419 3084 
Q 1956 3084 1622 2776 
Q 1288 2469 1184 1941 
L 800 0 
L 225 0 
L 903 3500 
L 1478 3500 
L 1363 2950 
Q 1603 3253 1940 3418 
Q 2278 3584 2650 3584 
Q 3113 3584 3367 3334 
Q 3622 3084 3622 2631 
Q 3622 2519 3608 2391 
Q 3594 2263 3566 2113 
z
" transform="scale(0.015625)"/>
     </defs>
     <use xlink:href="#DejaVuSans-Oblique-56" transform="translate(0 0.09375)"/>
     <use xlink:href="#DejaVuSans-Oblique-69" transform="translate(68.408203 -16.3125) scale(0.7)"/>
     <use xlink:href="#DejaVuSans-Oblique-6e" transform="translate(87.856445 -16.3125) scale(0.7)"/>
    </g>
   </g>
   <g id="patch_4">
    <path d="M 242.775 107.497656 
C 243.491048 107.497656 244.177866 107.213167 244.684188 106.706845 
C 245.190511 106.200522 245.475 105.513705 245.475 104.797656 
C 245.475 104.081608 245.190511 103.394791 244.684188 102.888468 
C 244.177866 102.382145 243.491048 102.097656 242.775 102.097656 
C 242.058952 102.097656 241.372134 102.382145 240.865812 102.888468 
C 240.359489 103.394791 240.075 104.081608 240.075 104.797656 
C 240.075 105.513705 240.359489 106.200522 240.865812 106.706845 
C 241.372134 107.213167 242.058952 107.497656 242.775 107.497656 
z
" clip-path="url(#p792f8a5611)" style="stroke: #000000; stroke-width: 2; stroke-linejoin: miter"/>
   </g>
   <g id="patch_5">
    <path d="M 257.717286 107.497656 
C 258.433335 107.497656 259.120152 107.213167 259.626475 106.706845 
C 260.132797 106.200522 260.417286 105.513705 260.417286 104.797656 
C 260.417286 104.081608 260.132797 103.394791 259.626475 102.888468 
C 259.120152 102.382145 258.433335 102.097656 257.717286 102.097656 
C 257.001238 102.097656 256.314421 102.382145 255.808098 102.888468 
C 255.301775 103.394791 255.017286 104.081608 255.017286 104.797656 
C 255.017286 105.513705 255.301775 106.200522 255.808098 106.706845 
C 256.314421 107.213167 257.001238 107.497656 257.717286 107.497656 
z
" clip-path="url(#p792f8a5611)" style="fill: #ffffff; stroke: #000000; stroke-width: 2; stroke-linejoin: miter"/>
   </g>
   <g id="text_4">
    <!-- $V_{out}$ -->
    <g transform="translate(264.017286 108.246875) scale(0.125 -0.125)">
     <defs>
      <path id="DejaVuSans-Oblique-6f" d="M 1625 -91 
Q 1009 -91 651 289 
Q 294 669 294 1325 
Q 294 1706 417 2101 
Q 541 2497 738 2766 
Q 1047 3184 1428 3384 
Q 1809 3584 2291 3584 
Q 2888 3584 3255 3212 
Q 3622 2841 3622 2241 
Q 3622 1825 3500 1412 
Q 3378 1000 3181 728 
Q 2875 309 2494 109 
Q 2113 -91 1625 -91 
z
M 891 1344 
Q 891 869 1089 633 
Q 1288 397 1691 397 
Q 2269 397 2648 901 
Q 3028 1406 3028 2181 
Q 3028 2634 2825 2865 
Q 2622 3097 2228 3097 
Q 1903 3097 1650 2945 
Q 1397 2794 1197 2484 
Q 1050 2253 970 1956 
Q 891 1659 891 1344 
z
" transform="scale(0.015625)"/>
      <path id="DejaVuSans-Oblique-75" d="M 428 1388 
L 838 3500 
L 1416 3500 
L 1006 1409 
Q 975 1256 961 1147 
Q 947 1038 947 966 
Q 947 700 1109 554 
Q 1272 409 1569 409 
Q 2031 409 2368 721 
Q 2706 1034 2809 1563 
L 3194 3500 
L 3769 3500 
L 3091 0 
L 2516 0 
L 2631 550 
Q 2388 244 2052 76 
Q 1716 -91 1338 -91 
Q 878 -91 622 161 
Q 366 413 366 863 
Q 366 956 381 1097 
Q 397 1238 428 1388 
z
" transform="scale(0.015625)"/>
      <path id="DejaVuSans-Oblique-74" d="M 2706 3500 
L 2619 3053 
L 1472 3053 
L 1100 1153 
Q 1081 1047 1072 975 
Q 1063 903 1063 863 
Q 1063 663 1183 572 
Q 1303 481 1569 481 
L 2150 481 
L 2053 0 
L 1503 0 
Q 991 0 739 200 
Q 488 400 488 806 
Q 488 878 497 964 
Q 506 1050 525 1153 
L 897 3053 
L 409 3053 
L 500 3500 
L 978 3500 
L 1172 4494 
L 1747 4494 
L 1556 3500 
L 2706 3500 
z
" transform="scale(0.015625)"/>
     </defs>
     <use xlink:href="#DejaVuSans-Oblique-56" transform="translate(0 0.09375)"/>
     <use xlink:href="#DejaVuSans-Oblique-6f" transform="translate(68.408203 -16.3125) scale(0.7)"/>
     <use xlink:href="#DejaVuSans-Oblique-75" transform="translate(111.235352 -16.3125) scale(0.7)"/>
     <use xlink:href="#DejaVuSans-Oblique-74" transform="translate(155.600586 -16.3125) scale(0.7)"/>
    </g>
   </g>
  </g>
 </g>
 <defs>
  <clipPath id="p792f8a5611">
   <rect x="12.257886" y="11.665656" width="259.976515" height="167.904"/>
  </clipPath>
 </defs>
</svg>