<?xml version="1.0" encoding="utf-8" standalone="no"?>
<!DOCTYPE svg PUBLIC "-//W3C//DTD SVG 1.1//EN"
  "http://www.w3.org/Graphics/SVG/1.1/DTD/svg11.dtd">
<svg xmlns:xlink="http://www.w3.org/1999/xlink" width="563.7159pt" height="178.144pt" viewBox="0 0 563.7159 178.144" xmlns="http://www.w3.org/2000/svg" version="1.1">
 <metadata>
  <rdf:RDF xmlns:dc="http://purl.org/dc/elements/1.1/" xmlns:cc="http://creativecommons.org/ns#" xmlns:rdf="http://www.w3.org/1999/02/22-rdf-syntax-ns#">
   <cc:Work>
    <dc:type rdf:resource="http://purl.org/dc/dcmitype/StillImage"/>
    <dc:date>2022-12-06T00:19:04.234628</dc:date>
    <dc:format>image/svg+xml</dc:format>
    <dc:creator>
     <cc:Agent>
      <dc:title>Matplotlib v3.5.3, https://matplotlib.org/</dc:title>
     </cc:Agent>
    </dc:creator>
   </cc:Work>
  </rdf:RDF>
 </metadata>
 <defs>
  <style type="text/css">*{stroke-linejoin: round; stroke-linecap: butt}</style>
 </defs>
 <g id="figure_1">
  <g id="patch_1">
   <path d="M 0 178.144 
L 563.7159 178.144 
L 563.7159 0 
L 0 0 
z
" style="fill: #ffffff"/>
  </g>
  <g id="axes_1">
   <g id="patch_2">
    <path d="M 54.8034 105.46 
C 58.861007 105.46 62.752972 103.847895 65.622134 100.978734 
C 68.491295 98.109572 70.1034 94.217607 70.1034 90.16 
C 70.1034 86.102393 68.491295 82.210428 65.622134 79.341266 
C 62.752972 76.472105 58.861007 74.86 54.8034 74.86 
C 50.745793 74.86 46.853828 76.472105 43.984666 79.341266 
C 41.115505 82.210428 39.5034 86.102393 39.5034 90.16 
C 39.5034 94.217607 41.115505 98.109572 43.984666 100.978734 
C 46.853828 103.847895 50.745793 105.46 54.8034 105.46 
L 54.8034 105.46 
z
" clip-path="url(#p8fdd1321f1)" style="fill: none; stroke: #000000; stroke-width: 2; stroke-linejoin: miter"/>
   </g>
   <g id="patch_3">
    <path d="M 108.3534 71.8 
C 108.3534 70.594493 108.234671 69.400709 108.004007 68.286966 
C 107.773343 67.173223 107.435231 66.161182 107.00902 65.30876 
C 106.582809 64.456338 106.076788 63.780113 105.519917 63.318786 
C 104.963046 62.857459 104.366153 62.62 103.7634 62.62 
C 103.160647 62.62 102.563754 62.857459 102.006883 63.318786 
C 101.450012 63.780113 100.943991 64.456338 100.51778 65.30876 
C 100.091569 66.161182 99.753457 67.173223 99.522793 68.286966 
C 99.292129 69.400709 99.1734 70.594493 99.1734 71.8 
C 99.1734 73.005507 99.292129 74.199291 99.522793 75.313034 
C 99.753457 76.426777 100.091569 77.438818 100.51778 78.29124 
C 100.943991 79.143662 101.450012 79.819887 102.006883 80.281214 
C 102.563754 80.742541 103.160647 80.98 103.7634 80.98 
C 104.366153 80.98 104.963046 80.742541 105.519917 80.281214 
C 106.076788 79.819887 106.582809 79.143662 107.00902 78.29124 
C 107.435231 77.438818 107.773343 76.426777 108.004007 75.313034 
C 108.234671 74.199291 108.3534 73.005507 108.3534 71.8 
" clip-path="url(#p8fdd1321f1)" style="fill: none; stroke: #000000; stroke-width: 2; stroke-linejoin: miter"/>
   </g>
   <g id="patch_4">
    <path d="M 250.6434 80.98 
C 251.860277 80.98 253.028558 80.012164 253.88902 78.29124 
C 254.749482 76.570317 255.2334 74.233754 255.2334 71.8 
C 255.2334 69.366246 254.749482 67.029683 253.88902 65.30876 
C 253.028558 63.587836 251.860277 62.62 250.6434 62.62 
" clip-path="url(#p8fdd1321f1)" style="fill: none; stroke: #000000; stroke-width: 2; stroke-linejoin: miter"/>
   </g>
   <g id="patch_5">
    <path d="M 304.1934 71.8 
C 304.1934 70.594493 304.074671 69.400709 303.844007 68.286966 
C 303.613343 67.173223 303.275231 66.161182 302.84902 65.30876 
C 302.422809 64.456338 301.916788 63.780113 301.359917 63.318786 
C 300.803046 62.857459 300.206153 62.62 299.6034 62.62 
C 299.000647 62.62 298.403754 62.857459 297.846883 63.318786 
C 297.290012 63.780113 296.783991 64.456338 296.35778 65.30876 
C 295.931569 66.161182 295.593457 67.173223 295.362793 68.286966 
C 295.132129 69.400709 295.0134 70.594493 295.0134 71.8 
C 295.0134 73.005507 295.132129 74.199291 295.362793 75.313034 
C 295.593457 76.426777 295.931569 77.438818 296.35778 78.29124 
C 296.783991 79.143662 297.290012 79.819887 297.846883 80.281214 
C 298.403754 80.742541 299.000647 80.98 299.6034 80.98 
C 300.206153 80.98 300.803046 80.742541 301.359917 80.281214 
C 301.916788 79.819887 302.422809 79.143662 302.84902 78.29124 
C 303.275231 77.438818 303.613343 76.426777 303.844007 75.313034 
C 304.074671 74.199291 304.1934 73.005507 304.1934 71.8 
" clip-path="url(#p8fdd1321f1)" style="fill: none; stroke: #000000; stroke-width: 2; stroke-linejoin: miter"/>
   </g>
   <g id="patch_6">
    <path d="M 507.6834 80.98 
C 508.900277 80.98 510.068558 80.012164 510.92902 78.29124 
C 511.789482 76.570317 512.2734 74.233754 512.2734 71.8 
C 512.2734 69.366246 511.789482 67.029683 510.92902 65.30876 
C 510.068558 63.587836 508.900277 62.62 507.6834 62.62 
" clip-path="url(#p8fdd1321f1)" style="fill: none; stroke: #000000; stroke-width: 2; stroke-linejoin: miter"/>
   </g>
   <g id="line2d_1">
    <path d="M 54.8034 120.76 
L 54.8034 133 
L 47.1534 133 
L 62.4534 133 
M 49.4484 136.672 
L 60.1584 136.672 
M 53.2734 140.344 
L 56.3334 140.344 
" clip-path="url(#p8fdd1321f1)" style="fill: none; stroke: #000000; stroke-width: 2; stroke-linecap: round"/>
   </g>
   <g id="line2d_2">
    <path d="M 54.8034 120.76 
L 54.8034 105.46 
L 54.8034 105.46 
M 54.8034 74.86 
L 54.8034 74.86 
L 54.8034 59.56 
" clip-path="url(#p8fdd1321f1)" style="fill: none; stroke: #000000; stroke-width: 2; stroke-linecap: round"/>
   </g>
   <g id="line2d_3">
    <path d="M 62.4534 90.16 
L 61.8159 88.576027 
L 61.1784 87.1 
L 60.5409 85.832506 
L 59.9034 84.859925 
L 59.2659 84.248534 
L 58.6284 84.04 
L 57.9909 84.248534 
L 57.3534 84.859925 
L 56.7159 85.832506 
L 56.0784 87.1 
L 55.4409 88.576027 
L 54.8034 90.16 
L 54.1659 91.743973 
L 53.5284 93.22 
L 52.8909 94.487494 
L 52.2534 95.460075 
L 51.6159 96.071466 
L 50.9784 96.28 
L 50.3409 96.071466 
L 49.7034 95.460075 
L 49.0659 94.487494 
L 48.4284 93.22 
L 47.7909 91.743973 
L 47.1534 90.16 
" clip-path="url(#p8fdd1321f1)" style="fill: none; stroke: #000000; stroke-width: 2; stroke-linecap: round"/>
   </g>
   <g id="line2d_4">
    <path d="M 54.8034 59.56 
L 70.1034 59.56 
L 85.4034 59.56 
" clip-path="url(#p8fdd1321f1)" style="fill: none; stroke: #000000; stroke-width: 2; stroke-linecap: round"/>
   </g>
   <g id="line2d_5">
    <path d="M 85.4034 59.56 
L 85.4034 65.68 
L 85.4034 71.8 
" clip-path="url(#p8fdd1321f1)" style="fill: none; stroke: #000000; stroke-width: 2; stroke-linecap: round"/>
   </g>
   <g id="line2d_6">
    <path d="M 85.4034 71.8 
L 103.7634 71.8 
M 255.2334 71.8 
L 269.0034 71.8 
" clip-path="url(#p8fdd1321f1)" style="fill: none; stroke: #000000; stroke-width: 2; stroke-linecap: round"/>
   </g>
   <g id="line2d_7">
    <path d="M 103.7634 62.62 
L 250.6434 62.62 
" clip-path="url(#p8fdd1321f1)" style="fill: none; stroke: #000000; stroke-width: 2; stroke-linecap: round"/>
   </g>
   <g id="line2d_8">
    <path d="M 103.7634 80.98 
L 250.6434 80.98 
" clip-path="url(#p8fdd1321f1)" style="fill: none; stroke: #000000; stroke-width: 2; stroke-linecap: round"/>
   </g>
   <g id="line2d_9">
    <path d="M 146.6034 50.38 
L 198.6234 50.38 
" clip-path="url(#p8fdd1321f1)" style="fill: none; stroke: #000000; stroke-width: 2; stroke-linecap: round"/>
   </g>
   <g id="patch_7">
    <path d="M 198.6234 47.32 
L 207.8034 50.38 
L 198.6234 53.44 
z
" clip-path="url(#p8fdd1321f1)"/>
   </g>
   <g id="line2d_10">
    <path d="M 269.0034 71.8 
L 269.0034 107.296 
M 276.6534 107.296 
L 261.3534 107.296 
M 276.6534 112.804 
L 261.3534 112.804 
M 269.0034 112.804 
L 269.0034 148.3 
" clip-path="url(#p8fdd1321f1)" style="fill: none; stroke: #000000; stroke-width: 2; stroke-linecap: round"/>
   </g>
   <g id="line2d_11">
    <path d="M 269.0034 148.3 
L 269.0034 160.54 
L 261.3534 160.54 
L 276.6534 160.54 
M 263.6484 164.212 
L 274.3584 164.212 
M 267.4734 167.884 
L 270.5334 167.884 
" clip-path="url(#p8fdd1321f1)" style="fill: none; stroke: #000000; stroke-width: 2; stroke-linecap: round"/>
   </g>
   <g id="line2d_12">
    <path d="M 269.0034 71.8 
L 275.1234 71.8 
L 281.2434 71.8 
" clip-path="url(#p8fdd1321f1)" style="fill: none; stroke: #000000; stroke-width: 2; stroke-linecap: round"/>
   </g>
   <g id="line2d_13">
    <path d="M 281.2434 71.8 
L 299.6034 71.8 
M 512.2734 71.8 
L 526.0434 71.8 
" clip-path="url(#p8fdd1321f1)" style="fill: none; stroke: #000000; stroke-width: 2; stroke-linecap: round"/>
   </g>
   <g id="line2d_14">
    <path d="M 299.6034 62.62 
L 507.6834 62.62 
" clip-path="url(#p8fdd1321f1)" style="fill: none; stroke: #000000; stroke-width: 2; stroke-linecap: round"/>
   </g>
   <g id="line2d_15">
    <path d="M 299.6034 80.98 
L 507.6834 80.98 
" clip-path="url(#p8fdd1321f1)" style="fill: none; stroke: #000000; stroke-width: 2; stroke-linecap: round"/>
   </g>
   <g id="line2d_16">
    <path d="M 373.0434 50.38 
L 425.0634 50.38 
" clip-path="url(#p8fdd1321f1)" style="fill: none; stroke: #ff0000; stroke-width: 2; stroke-linecap: round"/>
   </g>
   <g id="patch_8">
    <path d="M 425.0634 47.32 
L 434.2434 50.38 
L 425.0634 53.44 
z
" clip-path="url(#p8fdd1321f1)" style="fill: #ff0000"/>
   </g>
   <g id="line2d_17">
    <path d="M 526.0434 71.8 
L 526.0434 53.44 
L 514.4154 35.08 
L 537.6714 35.08 
L 526.0434 53.44 
" clip-path="url(#p8fdd1321f1)" style="fill: none; stroke: #000000; stroke-width: 2; stroke-linecap: round"/>
   </g>
   <g id="line2d_18">
    <path d="M 250.6434 62.62 
L 250.6434 47.32 
L 250.6434 32.02 
" clip-path="url(#p8fdd1321f1)" style="fill: none; stroke: #000000; stroke-width: 2; stroke-linecap: round"/>
   </g>
   <g id="line2d_19">
    <path d="M 250.6434 32.02 
L 275.1234 32.02 
L 299.6034 32.02 
" clip-path="url(#p8fdd1321f1)" style="fill: none; stroke: #000000; stroke-width: 2; stroke-linecap: round"/>
   </g>
   <g id="line2d_20">
    <path d="M 299.6034 32.02 
L 299.6034 47.32 
L 299.6034 62.62 
" clip-path="url(#p8fdd1321f1)" style="fill: none; stroke: #000000; stroke-width: 2; stroke-linecap: round"/>
   </g>
   <g id="line2d_21">
    <path d="M 54.8034 120.76 
L 79.2834 120.76 
L 103.7634 120.76 
" clip-path="url(#p8fdd1321f1)" style="fill: none; stroke: #000000; stroke-width: 2; stroke-linecap: round"/>
   </g>
   <g id="line2d_22">
    <path d="M 103.7634 120.76 
L 103.7634 100.87 
L 103.7634 80.98 
" clip-path="url(#p8fdd1321f1)" style="fill: none; stroke: #000000; stroke-width: 2; stroke-linecap: round"/>
   </g>
   <g id="text_1">
    <g clip-path="url(#p8fdd1321f1)">
     <!-- $V_{in}$ -->
     <g transform="translate(19.5684 93.609219)scale(0.125 -0.125)">
      <defs>
       <path id="DejaVuSans-Oblique-56" d="M 1319 0 
L 500 4666 
L 1119 4666 
L 1797 653 
L 4063 4666 
L 4750 4666 
L 2053 0 
L 1319 0 
z
" transform="scale(0.015625)"/>
       <path id="DejaVuSans-Oblique-69" d="M 1172 4863 
L 1747 4863 
L 1606 4134 
L 1031 4134 
L 1172 4863 
z
M 909 3500 
L 1484 3500 
L 800 0 
L 225 0 
L 909 3500 
z
" transform="scale(0.015625)"/>
       <path id="DejaVuSans-Oblique-6e" d="M 3566 2113 
L 3156 0 
L 2578 0 
L 2988 2091 
Q 3016 2238 3031 2350 
Q 3047 2463 3047 2528 
Q 3047 2791 2881 2937 
Q 2716 3084 2419 3084 
Q 1956 3084 1622 2776 
Q 1288 2469 1184 1941 
L 800 0 
L 225 0 
L 903 3500 
L 1478 3500 
L 1363 2950 
Q 1603 3253 1940 3418 
Q 2278 3584 2650 3584 
Q 3113 3584 3367 3334 
Q 3622 3084 3622 2631 
Q 3622 2519 3608 2391 
Q 3594 2263 3566 2113 
z
" transform="scale(0.015625)"/>
      </defs>
      <use xlink:href="#DejaVuSans-Oblique-56" transform="translate(0 0.09375)"/>
      <use xlink:href="#DejaVuSans-Oblique-69" transform="translate(68.408203 -16.3125)scale(0.7)"/>
      <use xlink:href="#DejaVuSans-Oblique-6e" transform="translate(87.856445 -16.3125)scale(0.7)"/>
     </g>
    </g>
   </g>
   <g id="text_2">
    <g clip-path="url(#p8fdd1321f1)">
     <!-- $50\Omega$ -->
     <g transform="translate(164.4534 93.538047)scale(0.125 -0.125)">
      <defs>
       <path id="DejaVuSans-35" d="M 691 4666 
L 3169 4666 
L 3169 4134 
L 1269 4134 
L 1269 2991 
Q 1406 3038 1543 3061 
Q 1681 3084 1819 3084 
Q 2600 3084 3056 2656 
Q 3513 2228 3513 1497 
Q 3513 744 3044 326 
Q 2575 -91 1722 -91 
Q 1428 -91 1123 -41 
Q 819 9 494 109 
L 494 744 
Q 775 591 1075 516 
Q 1375 441 1709 441 
Q 2250 441 2565 725 
Q 2881 1009 2881 1497 
Q 2881 1984 2565 2268 
Q 2250 2553 1709 2553 
Q 1456 2553 1204 2497 
Q 953 2441 691 2322 
L 691 4666 
z
" transform="scale(0.015625)"/>
       <path id="DejaVuSans-30" d="M 2034 4250 
Q 1547 4250 1301 3770 
Q 1056 3291 1056 2328 
Q 1056 1369 1301 889 
Q 1547 409 2034 409 
Q 2525 409 2770 889 
Q 3016 1369 3016 2328 
Q 3016 3291 2770 3770 
Q 2525 4250 2034 4250 
z
M 2034 4750 
Q 2819 4750 3233 4129 
Q 3647 3509 3647 2328 
Q 3647 1150 3233 529 
Q 2819 -91 2034 -91 
Q 1250 -91 836 529 
Q 422 1150 422 2328 
Q 422 3509 836 4129 
Q 1250 4750 2034 4750 
z
" transform="scale(0.015625)"/>
       <path id="DejaVuSans-3a9" d="M 4647 556 
L 4647 0 
L 2772 0 
L 2772 556 
Q 3325 859 3634 1378 
Q 3944 1897 3944 2528 
Q 3944 3278 3531 3731 
Q 3119 4184 2444 4184 
Q 1769 4184 1355 3729 
Q 941 3275 941 2528 
Q 941 1897 1250 1378 
Q 1563 859 2119 556 
L 2119 0 
L 244 0 
L 244 556 
L 1241 556 
Q 747 991 519 1456 
Q 294 1922 294 2497 
Q 294 3491 894 4106 
Q 1491 4722 2444 4722 
Q 3391 4722 3994 4106 
Q 4594 3494 4594 2528 
Q 4594 1922 4372 1459 
Q 4150 997 3647 556 
L 4647 556 
z
" transform="scale(0.015625)"/>
      </defs>
      <use xlink:href="#DejaVuSans-35" transform="translate(0 0.78125)"/>
      <use xlink:href="#DejaVuSans-30" transform="translate(63.623047 0.78125)"/>
      <use xlink:href="#DejaVuSans-3a9" transform="translate(127.246094 0.78125)"/>
     </g>
    </g>
   </g>
   <g id="text_3">
    <g clip-path="url(#p8fdd1321f1)">
     <!-- 5V -->
     <g transform="translate(168.951447 30.723125)scale(0.125 -0.125)">
      <defs>
       <path id="DejaVuSans-56" d="M 1831 0 
L 50 4666 
L 709 4666 
L 2188 738 
L 3669 4666 
L 4325 4666 
L 2547 0 
L 1831 0 
z
" transform="scale(0.015625)"/>
      </defs>
      <use xlink:href="#DejaVuSans-35"/>
      <use xlink:href="#DejaVuSans-56" x="63.623047"/>
     </g>
    </g>
    <g clip-path="url(#p8fdd1321f1)">
     <!-- 100 mA -->
     <g transform="translate(152.924103 44.720391)scale(0.125 -0.125)">
      <defs>
       <path id="DejaVuSans-31" d="M 794 531 
L 1825 531 
L 1825 4091 
L 703 3866 
L 703 4441 
L 1819 4666 
L 2450 4666 
L 2450 531 
L 3481 531 
L 3481 0 
L 794 0 
L 794 531 
z
" transform="scale(0.015625)"/>
       <path id="DejaVuSans-20" transform="scale(0.015625)"/>
       <path id="DejaVuSans-6d" d="M 3328 2828 
Q 3544 3216 3844 3400 
Q 4144 3584 4550 3584 
Q 5097 3584 5394 3201 
Q 5691 2819 5691 2113 
L 5691 0 
L 5113 0 
L 5113 2094 
Q 5113 2597 4934 2840 
Q 4756 3084 4391 3084 
Q 3944 3084 3684 2787 
Q 3425 2491 3425 1978 
L 3425 0 
L 2847 0 
L 2847 2094 
Q 2847 2600 2669 2842 
Q 2491 3084 2119 3084 
Q 1678 3084 1418 2786 
Q 1159 2488 1159 1978 
L 1159 0 
L 581 0 
L 581 3500 
L 1159 3500 
L 1159 2956 
Q 1356 3278 1631 3431 
Q 1906 3584 2284 3584 
Q 2666 3584 2933 3390 
Q 3200 3197 3328 2828 
z
" transform="scale(0.015625)"/>
       <path id="DejaVuSans-41" d="M 2188 4044 
L 1331 1722 
L 3047 1722 
L 2188 4044 
z
M 1831 4666 
L 2547 4666 
L 4325 0 
L 3669 0 
L 3244 1197 
L 1141 1197 
L 716 0 
L 50 0 
L 1831 4666 
z
" transform="scale(0.015625)"/>
      </defs>
      <use xlink:href="#DejaVuSans-31"/>
      <use xlink:href="#DejaVuSans-30" x="63.623047"/>
      <use xlink:href="#DejaVuSans-30" x="127.246094"/>
      <use xlink:href="#DejaVuSans-20" x="190.869141"/>
      <use xlink:href="#DejaVuSans-6d" x="222.65625"/>
      <use xlink:href="#DejaVuSans-41" x="320.068359"/>
     </g>
    </g>
   </g>
   <g id="text_4">
    <g clip-path="url(#p8fdd1321f1)">
     <!-- 2.59pF -->
     <g transform="translate(215.336369 113.499219)scale(0.125 -0.125)">
      <defs>
       <path id="DejaVuSans-32" d="M 1228 531 
L 3431 531 
L 3431 0 
L 469 0 
L 469 531 
Q 828 903 1448 1529 
Q 2069 2156 2228 2338 
Q 2531 2678 2651 2914 
Q 2772 3150 2772 3378 
Q 2772 3750 2511 3984 
Q 2250 4219 1831 4219 
Q 1534 4219 1204 4116 
Q 875 4013 500 3803 
L 500 4441 
Q 881 4594 1212 4672 
Q 1544 4750 1819 4750 
Q 2544 4750 2975 4387 
Q 3406 4025 3406 3419 
Q 3406 3131 3298 2873 
Q 3191 2616 2906 2266 
Q 2828 2175 2409 1742 
Q 1991 1309 1228 531 
z
" transform="scale(0.015625)"/>
       <path id="DejaVuSans-2e" d="M 684 794 
L 1344 794 
L 1344 0 
L 684 0 
L 684 794 
z
" transform="scale(0.015625)"/>
       <path id="DejaVuSans-39" d="M 703 97 
L 703 672 
Q 941 559 1184 500 
Q 1428 441 1663 441 
Q 2288 441 2617 861 
Q 2947 1281 2994 2138 
Q 2813 1869 2534 1725 
Q 2256 1581 1919 1581 
Q 1219 1581 811 2004 
Q 403 2428 403 3163 
Q 403 3881 828 4315 
Q 1253 4750 1959 4750 
Q 2769 4750 3195 4129 
Q 3622 3509 3622 2328 
Q 3622 1225 3098 567 
Q 2575 -91 1691 -91 
Q 1453 -91 1209 -44 
Q 966 3 703 97 
z
M 1959 2075 
Q 2384 2075 2632 2365 
Q 2881 2656 2881 3163 
Q 2881 3666 2632 3958 
Q 2384 4250 1959 4250 
Q 1534 4250 1286 3958 
Q 1038 3666 1038 3163 
Q 1038 2656 1286 2365 
Q 1534 2075 1959 2075 
z
" transform="scale(0.015625)"/>
       <path id="DejaVuSans-70" d="M 1159 525 
L 1159 -1331 
L 581 -1331 
L 581 3500 
L 1159 3500 
L 1159 2969 
Q 1341 3281 1617 3432 
Q 1894 3584 2278 3584 
Q 2916 3584 3314 3078 
Q 3713 2572 3713 1747 
Q 3713 922 3314 415 
Q 2916 -91 2278 -91 
Q 1894 -91 1617 61 
Q 1341 213 1159 525 
z
M 3116 1747 
Q 3116 2381 2855 2742 
Q 2594 3103 2138 3103 
Q 1681 3103 1420 2742 
Q 1159 2381 1159 1747 
Q 1159 1113 1420 752 
Q 1681 391 2138 391 
Q 2594 391 2855 752 
Q 3116 1113 3116 1747 
z
" transform="scale(0.015625)"/>
       <path id="DejaVuSans-46" d="M 628 4666 
L 3309 4666 
L 3309 4134 
L 1259 4134 
L 1259 2759 
L 3109 2759 
L 3109 2228 
L 1259 2228 
L 1259 0 
L 628 0 
L 628 4666 
z
" transform="scale(0.015625)"/>
      </defs>
      <use xlink:href="#DejaVuSans-32"/>
      <use xlink:href="#DejaVuSans-2e" x="63.623047"/>
      <use xlink:href="#DejaVuSans-35" x="95.410156"/>
      <use xlink:href="#DejaVuSans-39" x="159.033203"/>
      <use xlink:href="#DejaVuSans-70" x="222.65625"/>
      <use xlink:href="#DejaVuSans-46" x="286.132812"/>
     </g>
    </g>
   </g>
   <g id="text_5">
    <g clip-path="url(#p8fdd1321f1)">
     <!-- 4.24 cm, $50\Omega$ -->
     <g transform="translate(361.8309 93.538047)scale(0.125 -0.125)">
      <defs>
       <path id="DejaVuSans-34" d="M 2419 4116 
L 825 1625 
L 2419 1625 
L 2419 4116 
z
M 2253 4666 
L 3047 4666 
L 3047 1625 
L 3713 1625 
L 3713 1100 
L 3047 1100 
L 3047 0 
L 2419 0 
L 2419 1100 
L 313 1100 
L 313 1709 
L 2253 4666 
z
" transform="scale(0.015625)"/>
       <path id="DejaVuSans-63" d="M 3122 3366 
L 3122 2828 
Q 2878 2963 2633 3030 
Q 2388 3097 2138 3097 
Q 1578 3097 1268 2742 
Q 959 2388 959 1747 
Q 959 1106 1268 751 
Q 1578 397 2138 397 
Q 2388 397 2633 464 
Q 2878 531 3122 666 
L 3122 134 
Q 2881 22 2623 -34 
Q 2366 -91 2075 -91 
Q 1284 -91 818 406 
Q 353 903 353 1747 
Q 353 2603 823 3093 
Q 1294 3584 2113 3584 
Q 2378 3584 2631 3529 
Q 2884 3475 3122 3366 
z
" transform="scale(0.015625)"/>
       <path id="DejaVuSans-2c" d="M 750 794 
L 1409 794 
L 1409 256 
L 897 -744 
L 494 -744 
L 750 256 
L 750 794 
z
" transform="scale(0.015625)"/>
      </defs>
      <use xlink:href="#DejaVuSans-34" transform="translate(0 0.78125)"/>
      <use xlink:href="#DejaVuSans-2e" transform="translate(63.623047 0.78125)"/>
      <use xlink:href="#DejaVuSans-32" transform="translate(89.910156 0.78125)"/>
      <use xlink:href="#DejaVuSans-34" transform="translate(153.533203 0.78125)"/>
      <use xlink:href="#DejaVuSans-20" transform="translate(217.15625 0.78125)"/>
      <use xlink:href="#DejaVuSans-63" transform="translate(248.943359 0.78125)"/>
      <use xlink:href="#DejaVuSans-6d" transform="translate(303.923828 0.78125)"/>
      <use xlink:href="#DejaVuSans-2c" transform="translate(401.335938 0.78125)"/>
      <use xlink:href="#DejaVuSans-20" transform="translate(433.123047 0.78125)"/>
      <use xlink:href="#DejaVuSans-35" transform="translate(464.910156 0.78125)"/>
      <use xlink:href="#DejaVuSans-30" transform="translate(528.533203 0.78125)"/>
      <use xlink:href="#DejaVuSans-3a9" transform="translate(592.15625 0.78125)"/>
     </g>
    </g>
   </g>
   <g id="text_6">
    <g clip-path="url(#p8fdd1321f1)">
     <!-- 8V -->
     <g style="fill: #ff0000" transform="translate(395.391447 30.723125)scale(0.125 -0.125)">
      <defs>
       <path id="DejaVuSans-38" d="M 2034 2216 
Q 1584 2216 1326 1975 
Q 1069 1734 1069 1313 
Q 1069 891 1326 650 
Q 1584 409 2034 409 
Q 2484 409 2743 651 
Q 3003 894 3003 1313 
Q 3003 1734 2745 1975 
Q 2488 2216 2034 2216 
z
M 1403 2484 
Q 997 2584 770 2862 
Q 544 3141 544 3541 
Q 544 4100 942 4425 
Q 1341 4750 2034 4750 
Q 2731 4750 3128 4425 
Q 3525 4100 3525 3541 
Q 3525 3141 3298 2862 
Q 3072 2584 2669 2484 
Q 3125 2378 3379 2068 
Q 3634 1759 3634 1313 
Q 3634 634 3220 271 
Q 2806 -91 2034 -91 
Q 1263 -91 848 271 
Q 434 634 434 1313 
Q 434 1759 690 2068 
Q 947 2378 1403 2484 
z
M 1172 3481 
Q 1172 3119 1398 2916 
Q 1625 2713 2034 2713 
Q 2441 2713 2670 2916 
Q 2900 3119 2900 3481 
Q 2900 3844 2670 4047 
Q 2441 4250 2034 4250 
Q 1625 4250 1398 4047 
Q 1172 3844 1172 3481 
z
" transform="scale(0.015625)"/>
      </defs>
      <use xlink:href="#DejaVuSans-38"/>
      <use xlink:href="#DejaVuSans-56" x="63.623047"/>
     </g>
    </g>
    <g clip-path="url(#p8fdd1321f1)">
     <!-- 62.5 mA -->
     <g style="fill: #ff0000" transform="translate(377.377775 44.720391)scale(0.125 -0.125)">
      <defs>
       <path id="DejaVuSans-36" d="M 2113 2584 
Q 1688 2584 1439 2293 
Q 1191 2003 1191 1497 
Q 1191 994 1439 701 
Q 1688 409 2113 409 
Q 2538 409 2786 701 
Q 3034 994 3034 1497 
Q 3034 2003 2786 2293 
Q 2538 2584 2113 2584 
z
M 3366 4563 
L 3366 3988 
Q 3128 4100 2886 4159 
Q 2644 4219 2406 4219 
Q 1781 4219 1451 3797 
Q 1122 3375 1075 2522 
Q 1259 2794 1537 2939 
Q 1816 3084 2150 3084 
Q 2853 3084 3261 2657 
Q 3669 2231 3669 1497 
Q 3669 778 3244 343 
Q 2819 -91 2113 -91 
Q 1303 -91 875 529 
Q 447 1150 447 2328 
Q 447 3434 972 4092 
Q 1497 4750 2381 4750 
Q 2619 4750 2861 4703 
Q 3103 4656 3366 4563 
z
" transform="scale(0.015625)"/>
      </defs>
      <use xlink:href="#DejaVuSans-36"/>
      <use xlink:href="#DejaVuSans-32" x="63.623047"/>
      <use xlink:href="#DejaVuSans-2e" x="127.246094"/>
      <use xlink:href="#DejaVuSans-35" x="159.033203"/>
      <use xlink:href="#DejaVuSans-20" x="222.65625"/>
      <use xlink:href="#DejaVuSans-6d" x="254.443359"/>
      <use xlink:href="#DejaVuSans-41" x="351.855469"/>
     </g>
    </g>
   </g>
   <g id="text_7">
    <g clip-path="url(#p8fdd1321f1)">
     <!-- $128\Omega$ -->
     <g transform="translate(509.2934 29.420391)scale(0.125 -0.125)">
      <use xlink:href="#DejaVuSans-31" transform="translate(0 0.78125)"/>
      <use xlink:href="#DejaVuSans-32" transform="translate(63.623047 0.78125)"/>
      <use xlink:href="#DejaVuSans-38" transform="translate(127.246094 0.78125)"/>
      <use xlink:href="#DejaVuSans-3a9" transform="translate(190.869141 0.78125)"/>
     </g>
    </g>
   </g>
   <g id="patch_9">
    <path d="M 54.8034 123.055 
C 55.412041 123.055 55.995836 122.813184 56.42621 122.38281 
C 56.856584 121.952436 57.0984 121.368641 57.0984 120.76 
C 57.0984 120.151359 56.856584 119.567564 56.42621 119.13719 
C 55.995836 118.706816 55.412041 118.465 54.8034 118.465 
C 54.194759 118.465 53.610964 118.706816 53.18059 119.13719 
C 52.750216 119.567564 52.5084 120.151359 52.5084 120.76 
C 52.5084 121.368641 52.750216 121.952436 53.18059 122.38281 
C 53.610964 122.813184 54.194759 123.055 54.8034 123.055 
z
" clip-path="url(#p8fdd1321f1)" style="stroke: #000000; stroke-width: 2; stroke-linejoin: miter"/>
   </g>
   <g id="patch_10">
    <path d="M 269.0034 74.095 
C 269.612041 74.095 270.195836 73.853184 270.62621 73.42281 
C 271.056584 72.992436 271.2984 72.408641 271.2984 71.8 
C 271.2984 71.191359 271.056584 70.607564 270.62621 70.17719 
C 270.195836 69.746816 269.612041 69.505 269.0034 69.505 
C 268.394759 69.505 267.810964 69.746816 267.38059 70.17719 
C 266.950216 70.607564 266.7084 71.191359 266.7084 71.8 
C 266.7084 72.408641 266.950216 72.992436 267.38059 73.42281 
C 267.810964 73.853184 268.394759 74.095 269.0034 74.095 
z
" clip-path="url(#p8fdd1321f1)" style="stroke: #000000; stroke-width: 2; stroke-linejoin: miter"/>
   </g>
   <g id="patch_11">
    <path d="M 281.2434 74.095 
C 281.852041 74.095 282.435836 73.853184 282.86621 73.42281 
C 283.296584 72.992436 283.5384 72.408641 283.5384 71.8 
C 283.5384 71.191359 283.296584 70.607564 282.86621 70.17719 
C 282.435836 69.746816 281.852041 69.505 281.2434 69.505 
C 280.634759 69.505 280.050964 69.746816 279.62059 70.17719 
C 279.190216 70.607564 278.9484 71.191359 278.9484 71.8 
C 278.9484 72.408641 279.190216 72.992436 279.62059 73.42281 
C 280.050964 73.853184 280.634759 74.095 281.2434 74.095 
z
" clip-path="url(#p8fdd1321f1)" style="fill: #008000; stroke: #008000; stroke-width: 2; stroke-linejoin: miter"/>
   </g>
   <g id="patch_12">
    <path d="M 526.0434 74.095 
C 526.652041 74.095 527.235836 73.853184 527.66621 73.42281 
C 528.096584 72.992436 528.3384 72.408641 528.3384 71.8 
C 528.3384 71.191359 528.096584 70.607564 527.66621 70.17719 
C 527.235836 69.746816 526.652041 69.505 526.0434 69.505 
C 525.434759 69.505 524.850964 69.746816 524.42059 70.17719 
C 523.990216 70.607564 523.7484 71.191359 523.7484 71.8 
C 523.7484 72.408641 523.990216 72.992436 524.42059 73.42281 
C 524.850964 73.853184 525.434759 74.095 526.0434 74.095 
z
" clip-path="url(#p8fdd1321f1)" style="fill: #ff0000; stroke: #ff0000; stroke-width: 2; stroke-linejoin: miter"/>
   </g>
  </g>
 </g>
 <defs>
  <clipPath id="p8fdd1321f1">
   <rect x="7.2" y="7.2" width="549.3159" height="163.744"/>
  </clipPath>
 </defs>
</svg>