<?xml version="1.0" encoding="utf-8" standalone="no"?>
<!DOCTYPE svg PUBLIC "-//W3C//DTD SVG 1.1//EN"
  "http://www.w3.org/Graphics/SVG/1.1/DTD/svg11.dtd">
<svg xmlns:xlink="http://www.w3.org/1999/xlink" width="599.286pt" height="315.343656pt" viewBox="0 0 599.286 315.343656" xmlns="http://www.w3.org/2000/svg" version="1.1">
 <metadata>
  <rdf:RDF xmlns:dc="http://purl.org/dc/elements/1.1/" xmlns:cc="http://creativecommons.org/ns#" xmlns:rdf="http://www.w3.org/1999/02/22-rdf-syntax-ns#">
   <cc:Work>
    <dc:type rdf:resource="http://purl.org/dc/dcmitype/StillImage"/>
    <dc:date>2023-09-26T21:48:18.043535</dc:date>
    <dc:format>image/svg+xml</dc:format>
    <dc:creator>
     <cc:Agent>
      <dc:title>Matplotlib v3.6.3, https://matplotlib.org/</dc:title>
     </cc:Agent>
    </dc:creator>
   </cc:Work>
  </rdf:RDF>
 </metadata>
 <defs>
  <style type="text/css">*{stroke-linejoin: round; stroke-linecap: butt}</style>
 </defs>
 <g id="figure_1">
  <g id="patch_1">
   <path d="M 0 315.343656 
L 599.286 315.343656 
L 599.286 0 
L 0 0 
z
" style="fill: #ffffff"/>
  </g>
  <g id="axes_1">
   <g id="patch_2">
    <path d="M 44.013 234.277656 
C 47.593242 234.277656 51.027328 232.855211 53.558942 230.323598 
C 56.090555 227.791985 57.513 224.357898 57.513 220.777656 
C 57.513 217.197414 56.090555 213.763328 53.558942 211.231715 
C 51.027328 208.700101 47.593242 207.277656 44.013 207.277656 
C 40.432758 207.277656 36.998672 208.700101 34.467058 211.231715 
C 31.935445 213.763328 30.513 217.197414 30.513 220.777656 
C 30.513 224.357898 31.935445 227.791985 34.467058 230.323598 
C 36.998672 232.855211 40.432758 234.277656 44.013 234.277656 
L 44.013 234.277656 
z
" clip-path="url(#p28a5820233)" style="fill: none; stroke: #000000; stroke-width: 2; stroke-linejoin: miter"/>
   </g>
   <g id="line2d_1">
    <path d="M 152.013 166.777656 
L 165.213 166.777656 
" clip-path="url(#p28a5820233)" style="fill: none; stroke: #000000; stroke-width: 2; stroke-linecap: round"/>
   </g>
   <g id="line2d_2">
    <path d="M 165.213 153.577656 
L 165.213 179.977656 
" clip-path="url(#p28a5820233)" style="fill: none; stroke: #000000; stroke-width: 2; stroke-linecap: round"/>
   </g>
   <g id="line2d_3">
    <path d="M 165.213 160.177656 
L 179.073 148.297656 
L 179.073 141.697656 
" clip-path="url(#p28a5820233)" style="fill: none; stroke: #000000; stroke-width: 2; stroke-linecap: round"/>
   </g>
   <g id="line2d_4">
    <path d="M 165.213 173.377656 
L 179.073 185.257656 
L 179.073 191.857656 
" clip-path="url(#p28a5820233)" style="fill: none; stroke: #000000; stroke-width: 2; stroke-linecap: round"/>
   </g>
   <g id="line2d_5">
    <path d="M 165.213 173.377656 
L 172.239691 179.400534 
" clip-path="url(#p28a5820233)" style="fill: none; stroke: #000000; stroke-width: 2; stroke-linecap: round"/>
   </g>
   <g id="patch_3">
    <path d="M 174.58254 176.66721 
L 179.073 185.257656 
L 169.896842 182.133858 
z
" clip-path="url(#p28a5820233)"/>
   </g>
   <g id="line2d_6">
    <path d="M 152.013 166.777656 
L 116.013 166.777656 
L 113.013 175.777656 
L 107.013 157.777656 
L 101.013 175.777656 
L 95.013 157.777656 
L 89.013 175.777656 
L 83.013 157.777656 
L 80.013 166.777656 
L 44.013 166.777656 
" clip-path="url(#p28a5820233)" style="fill: none; stroke: #000000; stroke-width: 2; stroke-linecap: round"/>
   </g>
   <g id="line2d_7">
    <path d="M 44.013 166.777656 
L 44.013 207.277656 
L 44.013 207.277656 
M 44.013 234.277656 
L 44.013 234.277656 
L 44.013 274.777656 
" clip-path="url(#p28a5820233)" style="fill: none; stroke: #000000; stroke-width: 2; stroke-linecap: round"/>
   </g>
   <g id="line2d_8">
    <path d="M 41.313 214.027656 
L 46.713 214.027656 
" clip-path="url(#p28a5820233)" style="fill: none; stroke: #000000; stroke-width: 2; stroke-linecap: round"/>
   </g>
   <g id="line2d_9">
    <path d="M 44.013 224.827656 
L 44.013 230.227656 
" clip-path="url(#p28a5820233)" style="fill: none; stroke: #000000; stroke-width: 2; stroke-linecap: round"/>
   </g>
   <g id="line2d_10">
    <path d="M 41.313 227.527656 
L 46.713 227.527656 
" clip-path="url(#p28a5820233)" style="fill: none; stroke: #000000; stroke-width: 2; stroke-linecap: round"/>
   </g>
   <g id="line2d_11">
    <path d="M 44.013 274.777656 
L 111.543 274.777656 
L 179.073 274.777656 
" clip-path="url(#p28a5820233)" style="fill: none; stroke: #000000; stroke-width: 2; stroke-linecap: round"/>
   </g>
   <g id="line2d_12">
    <path d="M 179.073 274.777656 
L 179.073 289.177656 
L 170.073 289.177656 
L 188.073 289.177656 
M 172.773 293.497656 
L 185.373 293.497656 
M 177.273 297.817656 
L 180.873 297.817656 
" clip-path="url(#p28a5820233)" style="fill: none; stroke: #000000; stroke-width: 2; stroke-linecap: round"/>
   </g>
   <g id="line2d_13">
    <path d="M 179.073 274.777656 
L 179.073 233.317656 
L 179.073 191.857656 
" clip-path="url(#p28a5820233)" style="fill: none; stroke: #000000; stroke-width: 2; stroke-linecap: round"/>
   </g>
   <g id="line2d_14">
    <path d="M 179.073 141.697656 
L 179.073 105.697656 
L 176.108813 105.563587 
L 173.117893 105.155897 
L 170.351083 104.483655 
L 168.040432 103.578118 
L 167.118692 103.053089 
L 166.379729 102.490109 
L 165.839119 101.897889 
L 165.508256 101.285754 
L 165.394116 100.66345 
L 165.499102 100.040936 
L 165.821004 99.428178 
L 166.353035 98.834934 
L 167.083982 98.270551 
L 167.998436 97.743768 
L 170.297309 96.833831 
L 173.05685 96.156314 
L 176.04562 95.742916 
L 179.012957 95.603184 
L 181.709994 95.723714 
L 183.910535 96.069274 
L 185.430024 96.585759 
L 185.891989 96.88712 
L 186.141023 97.204728 
L 186.171878 97.528733 
L 185.983903 97.849147 
L 185.58106 98.15606 
L 184.169085 98.691364 
L 182.054374 99.064627 
L 179.414284 99.21942 
L 176.470236 99.117638 
L 173.469142 98.742693 
L 170.6627 98.100908 
L 168.286281 97.220986 
L 167.323506 96.706255 
L 166.539192 96.151599 
L 165.949869 95.565554 
L 165.567959 94.957314 
L 165.401513 94.336543 
L 165.454038 93.713169 
L 165.724428 93.097174 
L 166.206983 92.498385 
L 166.891532 91.926267 
L 167.763645 91.389721 
L 169.993471 90.455036 
L 172.709447 89.747596 
L 175.683789 89.30161 
L 178.667044 89.129359 
L 181.40901 89.220166 
L 183.679723 89.541292 
L 185.288742 90.04068 
L 185.800431 90.33672 
L 186.10112 90.651324 
L 186.184471 90.974705 
L 186.048725 91.296888 
L 185.696746 91.607926 
L 185.135952 91.898105 
L 183.439352 92.379428 
L 181.101218 92.675367 
L 178.317645 92.735978 
L 175.322087 92.531054 
L 172.365776 92.052659 
L 169.696655 91.31579 
L 167.538578 90.357126 
L 166.709862 89.811285 
L 166.07254 89.231943 
L 165.640045 88.628154 
L 165.421495 88.009487 
L 165.421495 87.385826 
L 165.640045 86.767159 
L 166.07254 86.163369 
L 166.709862 85.584027 
L 167.538578 85.038187 
L 168.54122 84.534196 
L 170.980527 83.680591 
L 173.823202 83.069678 
L 176.830835 82.727569 
L 179.751178 82.657835 
L 182.339309 82.841199 
L 184.378163 83.237161 
L 185.696746 83.787387 
L 186.048725 84.098425 
L 186.184471 84.420608 
L 186.10112 84.743988 
L 185.800431 85.058593 
L 185.288742 85.354633 
L 183.679723 85.854021 
L 181.40901 86.175146 
L 178.667044 86.265953 
L 175.683789 86.093702 
L 172.709447 85.647717 
L 169.993471 84.940277 
L 167.763645 84.005591 
L 166.891532 83.469046 
L 166.206983 82.896928 
L 165.724428 82.298139 
L 165.454038 81.682144 
L 165.401513 81.058769 
L 165.567959 80.437999 
L 165.949869 79.829759 
L 166.539192 79.243713 
L 167.323506 78.689058 
L 168.286281 78.174327 
L 170.6627 77.294404 
L 173.469142 76.65262 
L 176.470236 76.277675 
L 179.414284 76.175893 
L 182.054374 76.330686 
L 184.169085 76.703949 
L 185.58106 77.239253 
L 185.983903 77.546166 
L 186.171878 77.86658 
L 186.141023 78.190584 
L 185.891989 78.508193 
L 185.430024 78.809554 
L 183.910535 79.326039 
L 181.709994 79.671599 
L 179.012957 79.792129 
L 176.04562 79.652397 
L 173.05685 79.238998 
L 170.297309 78.561481 
L 167.998436 77.651544 
L 167.083982 77.124762 
L 166.353035 76.560379 
L 165.821004 75.967135 
L 165.499102 75.354376 
L 165.394116 74.731863 
L 165.508256 74.109559 
L 165.839119 73.497424 
L 166.379729 72.905203 
L 167.118692 72.342224 
L 168.040432 71.817194 
L 170.351083 70.911657 
L 173.117893 70.239416 
L 176.108813 69.831726 
L 179.073 69.697656 
L 179.073 33.697656 
L 179.073 33.697656 
" clip-path="url(#p28a5820233)" style="fill: none; stroke: #000000; stroke-width: 2; stroke-linecap: round"/>
   </g>
   <g id="line2d_15">
    <path d="M 179.073 33.697656 
L 179.073 19.297656 
" clip-path="url(#p28a5820233)" style="fill: none; stroke: #000000; stroke-width: 2; stroke-linecap: round"/>
   </g>
   <g id="line2d_16">
    <path d="M 179.073 19.297656 
L 172.323 19.297656 
" clip-path="url(#p28a5820233)" style="fill: none; stroke: #000000; stroke-width: 2; stroke-linecap: round"/>
   </g>
   <g id="line2d_17">
    <path d="M 179.073 19.297656 
L 185.823 19.297656 
" clip-path="url(#p28a5820233)" style="fill: none; stroke: #000000; stroke-width: 2; stroke-linecap: round"/>
   </g>
   <g id="line2d_18">
    <path d="M 179.073 141.697656 
L 229.833 141.697656 
M 229.833 132.697656 
L 229.833 150.697656 
M 236.313 132.697656 
L 236.313 150.697656 
M 236.313 141.697656 
L 287.073 141.697656 
" clip-path="url(#p28a5820233)" style="fill: none; stroke: #000000; stroke-width: 2; stroke-linecap: round"/>
   </g>
   <g id="line2d_19">
    <path d="M 287.073 141.697656 
L 337.833 141.697656 
M 337.833 132.697656 
L 337.833 150.697656 
M 344.313 132.697656 
L 344.313 150.697656 
M 344.313 141.697656 
L 395.073 141.697656 
" clip-path="url(#p28a5820233)" style="fill: none; stroke: #000000; stroke-width: 2; stroke-linecap: round"/>
   </g>
   <g id="line2d_20">
    <path d="M 287.073 141.697656 
L 287.073 169.597656 
L 287.073 197.497656 
" clip-path="url(#p28a5820233)" style="fill: none; stroke: #000000; stroke-width: 2; stroke-linecap: round"/>
   </g>
   <g id="line2d_21">
    <path d="M 287.073 197.497656 
L 323.073 197.497656 
L 323.20707 194.53347 
L 323.61476 191.542549 
L 324.287001 188.775739 
L 325.192538 186.465088 
L 325.717567 185.543348 
L 326.280547 184.804385 
L 326.872767 184.263775 
L 327.484902 183.932913 
L 328.107207 183.818772 
L 328.72972 183.923759 
L 329.342478 184.24566 
L 329.935723 184.777691 
L 330.500106 185.508638 
L 331.026888 186.423093 
L 331.936825 188.721965 
L 332.614342 191.481506 
L 333.02774 194.470276 
L 333.167472 197.437613 
L 333.046942 200.13465 
L 332.701382 202.335191 
L 332.184898 203.85468 
L 331.883537 204.316645 
L 331.565928 204.56568 
L 331.241923 204.596535 
L 330.921509 204.408559 
L 330.614597 204.005716 
L 330.079292 202.593742 
L 329.706029 200.47903 
L 329.551236 197.838941 
L 329.653019 194.894892 
L 330.027963 191.893798 
L 330.669748 189.087356 
L 331.549671 186.710937 
L 332.064402 185.748163 
L 332.619057 184.963848 
L 333.205102 184.374525 
L 333.813342 183.992615 
L 334.434113 183.826169 
L 335.057487 183.878694 
L 335.673482 184.149084 
L 336.272271 184.631639 
L 336.84439 185.316188 
L 337.380935 186.188302 
L 338.315621 188.418127 
L 339.02306 191.134103 
L 339.469046 194.108445 
L 339.641297 197.0917 
L 339.55049 199.833666 
L 339.229365 202.104379 
L 338.729977 203.713398 
L 338.433936 204.225087 
L 338.119332 204.525776 
L 337.795952 204.609127 
L 337.473768 204.473382 
L 337.162731 204.121403 
L 336.872551 203.560608 
L 336.391228 201.864009 
L 336.095289 199.525874 
L 336.034678 196.742301 
L 336.239602 193.746743 
L 336.717998 190.790432 
L 337.454866 188.121311 
L 338.413531 185.963234 
L 338.959371 185.134518 
L 339.538713 184.497196 
L 340.142502 184.064701 
L 340.761169 183.846151 
L 341.384831 183.846151 
L 342.003498 184.064701 
L 342.607287 184.497196 
L 343.186629 185.134518 
L 343.732469 185.963234 
L 344.23646 186.965876 
L 345.090065 189.405184 
L 345.700979 192.247859 
L 346.043087 195.255491 
L 346.112821 198.175834 
L 345.929457 200.763965 
L 345.533496 202.802819 
L 344.983269 204.121403 
L 344.672232 204.473382 
L 344.350048 204.609127 
L 344.026668 204.525776 
L 343.712064 204.225087 
L 343.416023 203.713398 
L 342.916635 202.104379 
L 342.59551 199.833666 
L 342.504703 197.0917 
L 342.676954 194.108445 
L 343.12294 191.134103 
L 343.830379 188.418127 
L 344.765065 186.188302 
L 345.30161 185.316188 
L 345.873729 184.631639 
L 346.472518 184.149084 
L 347.088513 183.878694 
L 347.711887 183.826169 
L 348.332658 183.992615 
L 348.940898 184.374525 
L 349.526943 184.963848 
L 350.081598 185.748163 
L 350.596329 186.710937 
L 351.476252 189.087356 
L 352.118037 191.893798 
L 352.492981 194.894892 
L 352.594764 197.838941 
L 352.439971 200.47903 
L 352.066708 202.593742 
L 351.531403 204.005716 
L 351.224491 204.408559 
L 350.904077 204.596535 
L 350.580072 204.56568 
L 350.262463 204.316645 
L 349.961102 203.85468 
L 349.444618 202.335191 
L 349.099058 200.13465 
L 348.978528 197.437613 
L 349.11826 194.470276 
L 349.531658 191.481506 
L 350.209175 188.721965 
L 351.119112 186.423093 
L 351.645894 185.508638 
L 352.210277 184.777691 
L 352.803522 184.24566 
L 353.41628 183.923759 
L 354.038793 183.818772 
L 354.661098 183.932913 
L 355.273233 184.263775 
L 355.865453 184.804385 
L 356.428433 185.543348 
L 356.953462 186.465088 
L 357.858999 188.775739 
L 358.53124 191.542549 
L 358.93893 194.53347 
L 359.073 197.497656 
L 395.073 197.497656 
L 395.073 197.497656 
" clip-path="url(#p28a5820233)" style="fill: none; stroke: #000000; stroke-width: 2; stroke-linecap: round"/>
   </g>
   <g id="line2d_22">
    <path d="M 395.073 197.497656 
L 395.073 169.597656 
L 395.073 141.697656 
" clip-path="url(#p28a5820233)" style="fill: none; stroke: #000000; stroke-width: 2; stroke-linecap: round"/>
   </g>
   <g id="line2d_23">
    <path d="M 395.073 141.697656 
L 417.573 141.697656 
L 440.073 141.697656 
" clip-path="url(#p28a5820233)" style="fill: none; stroke: #000000; stroke-width: 2; stroke-linecap: round"/>
   </g>
   <g id="line2d_24">
    <path d="M 440.073 141.697656 
L 440.073 177.697656 
L 443.037187 177.831726 
L 446.028107 178.239416 
L 448.794917 178.911657 
L 451.105568 179.817194 
L 452.027308 180.342224 
L 452.766271 180.905203 
L 453.306881 181.497424 
L 453.637744 182.109559 
L 453.751884 182.731863 
L 453.646898 183.354376 
L 453.324996 183.967135 
L 452.792965 184.560379 
L 452.062018 185.124762 
L 451.147564 185.651544 
L 448.848691 186.561481 
L 446.08915 187.238998 
L 443.10038 187.652397 
L 440.133043 187.792129 
L 437.436006 187.671599 
L 435.235465 187.326039 
L 433.715976 186.809554 
L 433.254011 186.508193 
L 433.004977 186.190584 
L 432.974122 185.86658 
L 433.162097 185.546166 
L 433.56494 185.239253 
L 434.976915 184.703949 
L 437.091626 184.330686 
L 439.731716 184.175893 
L 442.675764 184.277675 
L 445.676858 184.65262 
L 448.4833 185.294404 
L 450.859719 186.174327 
L 451.822494 186.689058 
L 452.606808 187.243713 
L 453.196131 187.829759 
L 453.578041 188.437999 
L 453.744487 189.058769 
L 453.691962 189.682144 
L 453.421572 190.298139 
L 452.939017 190.896928 
L 452.254468 191.469046 
L 451.382355 192.005591 
L 449.152529 192.940277 
L 446.436553 193.647717 
L 443.462211 194.093702 
L 440.478956 194.265953 
L 437.73699 194.175146 
L 435.466277 193.854021 
L 433.857258 193.354633 
L 433.345569 193.058593 
L 433.04488 192.743988 
L 432.961529 192.420608 
L 433.097275 192.098425 
L 433.449254 191.787387 
L 434.010048 191.497208 
L 435.706648 191.015884 
L 438.044782 190.719945 
L 440.828355 190.659334 
L 443.823913 190.864258 
L 446.780224 191.342654 
L 449.449345 192.079522 
L 451.607422 193.038187 
L 452.436138 193.584027 
L 453.07346 194.163369 
L 453.505955 194.767159 
L 453.724505 195.385826 
L 453.724505 196.009487 
L 453.505955 196.628154 
L 453.07346 197.231943 
L 452.436138 197.811285 
L 451.607422 198.357126 
L 450.60478 198.861116 
L 448.165473 199.714722 
L 445.322798 200.325635 
L 442.315165 200.667743 
L 439.394822 200.737478 
L 436.806691 200.554113 
L 434.767837 200.158152 
L 433.449254 199.607926 
L 433.097275 199.296888 
L 432.961529 198.974705 
L 433.04488 198.651324 
L 433.345569 198.33672 
L 433.857258 198.04068 
L 435.466277 197.541292 
L 437.73699 197.220166 
L 440.478956 197.129359 
L 443.462211 197.30161 
L 446.436553 197.747596 
L 449.152529 198.455036 
L 451.382355 199.389721 
L 452.254468 199.926267 
L 452.939017 200.498385 
L 453.421572 201.097174 
L 453.691962 201.713169 
L 453.744487 202.336543 
L 453.578041 202.957314 
L 453.196131 203.565554 
L 452.606808 204.151599 
L 451.822494 204.706255 
L 450.859719 205.220986 
L 448.4833 206.100908 
L 445.676858 206.742693 
L 442.675764 207.117638 
L 439.731716 207.21942 
L 437.091626 207.064627 
L 434.976915 206.691364 
L 433.56494 206.15606 
L 433.162097 205.849147 
L 432.974122 205.528733 
L 433.004977 205.204728 
L 433.254011 204.88712 
L 433.715976 204.585759 
L 435.235465 204.069274 
L 437.436006 203.723714 
L 440.133043 203.603184 
L 443.10038 203.742916 
L 446.08915 204.156314 
L 448.848691 204.833831 
L 451.147564 205.743768 
L 452.062018 206.270551 
L 452.792965 206.834934 
L 453.324996 207.428178 
L 453.646898 208.040936 
L 453.751884 208.66345 
L 453.637744 209.285754 
L 453.306881 209.897889 
L 452.766271 210.490109 
L 452.027308 211.053089 
L 451.105568 211.578118 
L 448.794917 212.483655 
L 446.028107 213.155897 
L 443.037187 213.563587 
L 440.073 213.697656 
L 440.073 249.697656 
L 440.073 249.697656 
" clip-path="url(#p28a5820233)" style="fill: none; stroke: #000000; stroke-width: 2; stroke-linecap: round"/>
   </g>
   <g id="line2d_25">
    <path d="M 440.073 141.697656 
L 467.073 141.697656 
L 494.073 141.697656 
" clip-path="url(#p28a5820233)" style="fill: none; stroke: #000000; stroke-width: 2; stroke-linecap: round"/>
   </g>
   <g id="line2d_26">
    <path d="M 494.073 141.697656 
L 494.073 192.457656 
M 503.073 192.457656 
L 485.073 192.457656 
M 503.073 198.937656 
L 485.073 198.937656 
M 494.073 198.937656 
L 494.073 249.697656 
" clip-path="url(#p28a5820233)" style="fill: none; stroke: #000000; stroke-width: 2; stroke-linecap: round"/>
   </g>
   <g id="line2d_27">
    <path d="M 494.073 141.697656 
L 521.073 141.697656 
L 548.073 141.697656 
" clip-path="url(#p28a5820233)" style="fill: none; stroke: #000000; stroke-width: 2; stroke-linecap: round"/>
   </g>
   <g id="line2d_28">
    <path d="M 548.073 141.697656 
L 548.073 177.697656 
L 557.073 180.697656 
L 539.073 186.697656 
L 557.073 192.697656 
L 539.073 198.697656 
L 557.073 204.697656 
L 539.073 210.697656 
L 548.073 213.697656 
L 548.073 249.697656 
" clip-path="url(#p28a5820233)" style="fill: none; stroke: #000000; stroke-width: 2; stroke-linecap: round"/>
   </g>
   <g id="line2d_29">
    <path d="M 548.073 141.697656 
L 557.073 141.697656 
L 566.073 141.697656 
" clip-path="url(#p28a5820233)" style="fill: none; stroke: #000000; stroke-width: 2; stroke-linecap: round"/>
   </g>
   <g id="line2d_30">
    <path d="M 548.073 249.697656 
L 521.073 249.697656 
L 494.073 249.697656 
" clip-path="url(#p28a5820233)" style="fill: none; stroke: #000000; stroke-width: 2; stroke-linecap: round"/>
   </g>
   <g id="line2d_31">
    <path d="M 494.073 249.697656 
L 467.073 249.697656 
L 440.073 249.697656 
" clip-path="url(#p28a5820233)" style="fill: none; stroke: #000000; stroke-width: 2; stroke-linecap: round"/>
   </g>
   <g id="line2d_32">
    <path d="M 440.073 249.697656 
L 309.573 249.697656 
L 179.073 249.697656 
" clip-path="url(#p28a5820233)" style="fill: none; stroke: #000000; stroke-width: 2; stroke-linecap: round"/>
   </g>
   <g id="text_1">
    <!-- $R_{in}$ -->
    <g transform="translate(89.4505 151.578047) scale(0.125 -0.125)">
     <defs>
      <path id="DejaVuSans-Oblique-52" d="M 1613 4147 
L 1294 2491 
L 2106 2491 
Q 2584 2491 2879 2755 
Q 3175 3019 3175 3444 
Q 3175 3784 2976 3965 
Q 2778 4147 2406 4147 
L 1613 4147 
z
M 2772 2241 
Q 2972 2194 3105 2009 
Q 3238 1825 3413 1275 
L 3809 0 
L 3144 0 
L 2778 1197 
Q 2638 1659 2453 1815 
Q 2269 1972 1888 1972 
L 1191 1972 
L 806 0 
L 172 0 
L 1081 4666 
L 2503 4666 
Q 3150 4666 3495 4373 
Q 3841 4081 3841 3531 
Q 3841 3044 3547 2687 
Q 3253 2331 2772 2241 
z
" transform="scale(0.015625)"/>
      <path id="DejaVuSans-Oblique-69" d="M 1172 4863 
L 1747 4863 
L 1606 4134 
L 1031 4134 
L 1172 4863 
z
M 909 3500 
L 1484 3500 
L 800 0 
L 225 0 
L 909 3500 
z
" transform="scale(0.015625)"/>
      <path id="DejaVuSans-Oblique-6e" d="M 3566 2113 
L 3156 0 
L 2578 0 
L 2988 2091 
Q 3016 2238 3031 2350 
Q 3047 2463 3047 2528 
Q 3047 2791 2881 2937 
Q 2716 3084 2419 3084 
Q 1956 3084 1622 2776 
Q 1288 2469 1184 1941 
L 800 0 
L 225 0 
L 903 3500 
L 1478 3500 
L 1363 2950 
Q 1603 3253 1940 3418 
Q 2278 3584 2650 3584 
Q 3113 3584 3367 3334 
Q 3622 3084 3622 2631 
Q 3622 2519 3608 2391 
Q 3594 2263 3566 2113 
z
" transform="scale(0.015625)"/>
     </defs>
     <use xlink:href="#DejaVuSans-Oblique-52" transform="translate(0 0.09375)"/>
     <use xlink:href="#DejaVuSans-Oblique-69" transform="translate(69.482422 -16.3125) scale(0.7)"/>
     <use xlink:href="#DejaVuSans-Oblique-6e" transform="translate(88.930664 -16.3125) scale(0.7)"/>
    </g>
   </g>
   <g id="text_2">
    <!-- $V_{in}$ -->
    <g transform="translate(10.938 224.226875) scale(0.125 -0.125)">
     <defs>
      <path id="DejaVuSans-Oblique-56" d="M 1319 0 
L 500 4666 
L 1119 4666 
L 1797 653 
L 4063 4666 
L 4750 4666 
L 2053 0 
L 1319 0 
z
" transform="scale(0.015625)"/>
     </defs>
     <use xlink:href="#DejaVuSans-Oblique-56" transform="translate(0 0.09375)"/>
     <use xlink:href="#DejaVuSans-Oblique-69" transform="translate(68.408203 -16.3125) scale(0.7)"/>
     <use xlink:href="#DejaVuSans-Oblique-6e" transform="translate(87.856445 -16.3125) scale(0.7)"/>
    </g>
   </g>
   <g id="text_3">
    <!-- $L_2$ -->
    <g transform="translate(148.919116 91.146875) scale(0.125 -0.125)">
     <defs>
      <path id="DejaVuSans-Oblique-4c" d="M 1075 4666 
L 1709 4666 
L 909 525 
L 3181 525 
L 3078 0 
L 172 0 
L 1075 4666 
z
" transform="scale(0.015625)"/>
      <path id="DejaVuSans-32" d="M 1228 531 
L 3431 531 
L 3431 0 
L 469 0 
L 469 531 
Q 828 903 1448 1529 
Q 2069 2156 2228 2338 
Q 2531 2678 2651 2914 
Q 2772 3150 2772 3378 
Q 2772 3750 2511 3984 
Q 2250 4219 1831 4219 
Q 1534 4219 1204 4116 
Q 875 4013 500 3803 
L 500 4441 
Q 881 4594 1212 4672 
Q 1544 4750 1819 4750 
Q 2544 4750 2975 4387 
Q 3406 4025 3406 3419 
Q 3406 3131 3298 2873 
Q 3191 2616 2906 2266 
Q 2828 2175 2409 1742 
Q 1991 1309 1228 531 
z
" transform="scale(0.015625)"/>
     </defs>
     <use xlink:href="#DejaVuSans-Oblique-4c" transform="translate(0 0.09375)"/>
     <use xlink:href="#DejaVuSans-32" transform="translate(55.712891 -16.3125) scale(0.7)"/>
    </g>
   </g>
   <g id="text_4">
    <!-- $V_{dd}$ -->
    <g transform="translate(169.0105 13.098047) scale(0.125 -0.125)">
     <defs>
      <path id="DejaVuSans-Oblique-64" d="M 2675 525 
Q 2444 222 2128 65 
Q 1813 -91 1428 -91 
Q 903 -91 598 267 
Q 294 625 294 1247 
Q 294 1766 478 2236 
Q 663 2706 1013 3078 
Q 1244 3325 1534 3454 
Q 1825 3584 2144 3584 
Q 2481 3584 2739 3421 
Q 2997 3259 3138 2956 
L 3513 4863 
L 4091 4863 
L 3144 0 
L 2566 0 
L 2675 525 
z
M 891 1350 
Q 891 897 1095 644 
Q 1300 391 1663 391 
Q 1931 391 2161 520 
Q 2391 650 2566 903 
Q 2750 1166 2856 1509 
Q 2963 1853 2963 2188 
Q 2963 2622 2758 2865 
Q 2553 3109 2194 3109 
Q 1922 3109 1687 2981 
Q 1453 2853 1288 2613 
Q 1106 2353 998 2009 
Q 891 1666 891 1350 
z
" transform="scale(0.015625)"/>
     </defs>
     <use xlink:href="#DejaVuSans-Oblique-56" transform="translate(0 0.09375)"/>
     <use xlink:href="#DejaVuSans-Oblique-64" transform="translate(68.408203 -16.3125) scale(0.7)"/>
     <use xlink:href="#DejaVuSans-Oblique-64" transform="translate(112.841797 -16.3125) scale(0.7)"/>
    </g>
   </g>
   <g id="text_5">
    <!-- $C_2$ -->
    <g transform="translate(225.698 126.498047) scale(0.125 -0.125)">
     <defs>
      <path id="DejaVuSans-Oblique-43" d="M 4447 4306 
L 4319 3641 
Q 4019 3944 3683 4091 
Q 3347 4238 2956 4238 
Q 2422 4238 2017 3981 
Q 1613 3725 1319 3200 
Q 1131 2863 1032 2486 
Q 934 2109 934 1728 
Q 934 1091 1264 756 
Q 1594 422 2222 422 
Q 2656 422 3056 561 
Q 3456 700 3834 978 
L 3688 231 
Q 3316 72 2936 -9 
Q 2556 -91 2175 -91 
Q 1278 -91 773 396 
Q 269 884 269 1753 
Q 269 2309 461 2846 
Q 653 3384 1013 3828 
Q 1394 4300 1883 4525 
Q 2372 4750 3022 4750 
Q 3422 4750 3780 4639 
Q 4138 4528 4447 4306 
z
" transform="scale(0.015625)"/>
     </defs>
     <use xlink:href="#DejaVuSans-Oblique-43" transform="translate(0 0.78125)"/>
     <use xlink:href="#DejaVuSans-32" transform="translate(69.824219 -15.625) scale(0.7)"/>
    </g>
   </g>
   <g id="text_6">
    <!-- $C_3$ -->
    <g transform="translate(333.698 126.498047) scale(0.125 -0.125)">
     <defs>
      <path id="DejaVuSans-33" d="M 2597 2516 
Q 3050 2419 3304 2112 
Q 3559 1806 3559 1356 
Q 3559 666 3084 287 
Q 2609 -91 1734 -91 
Q 1441 -91 1130 -33 
Q 819 25 488 141 
L 488 750 
Q 750 597 1062 519 
Q 1375 441 1716 441 
Q 2309 441 2620 675 
Q 2931 909 2931 1356 
Q 2931 1769 2642 2001 
Q 2353 2234 1838 2234 
L 1294 2234 
L 1294 2753 
L 1863 2753 
Q 2328 2753 2575 2939 
Q 2822 3125 2822 3475 
Q 2822 3834 2567 4026 
Q 2313 4219 1838 4219 
Q 1578 4219 1281 4162 
Q 984 4106 628 3988 
L 628 4550 
Q 988 4650 1302 4700 
Q 1616 4750 1894 4750 
Q 2613 4750 3031 4423 
Q 3450 4097 3450 3541 
Q 3450 3153 3228 2886 
Q 3006 2619 2597 2516 
z
" transform="scale(0.015625)"/>
     </defs>
     <use xlink:href="#DejaVuSans-Oblique-43" transform="translate(0 0.78125)"/>
     <use xlink:href="#DejaVuSans-33" transform="translate(69.824219 -15.625) scale(0.7)"/>
    </g>
   </g>
   <g id="text_7">
    <!-- $L_3$ -->
    <g transform="translate(334.6355 177.619162) scale(0.125 -0.125)">
     <use xlink:href="#DejaVuSans-Oblique-4c" transform="translate(0 0.09375)"/>
     <use xlink:href="#DejaVuSans-33" transform="translate(55.712891 -16.3125) scale(0.7)"/>
    </g>
   </g>
   <g id="text_8">
    <!-- $L_1$ -->
    <g transform="translate(416.486529 199.146875) scale(0.125 -0.125)">
     <defs>
      <path id="DejaVuSans-31" d="M 794 531 
L 1825 531 
L 1825 4091 
L 703 3866 
L 703 4441 
L 1819 4666 
L 2450 4666 
L 2450 531 
L 3481 531 
L 3481 0 
L 794 0 
L 794 531 
z
" transform="scale(0.015625)"/>
     </defs>
     <use xlink:href="#DejaVuSans-Oblique-4c" transform="translate(0 0.09375)"/>
     <use xlink:href="#DejaVuSans-31" transform="translate(55.712891 -16.3125) scale(0.7)"/>
    </g>
   </g>
   <g id="text_9">
    <!-- $C_1$ -->
    <g transform="translate(466.723 199.146875) scale(0.125 -0.125)">
     <use xlink:href="#DejaVuSans-Oblique-43" transform="translate(0 0.78125)"/>
     <use xlink:href="#DejaVuSans-31" transform="translate(69.824219 -15.625) scale(0.7)"/>
    </g>
   </g>
   <g id="text_10">
    <!-- $R_L$ -->
    <g transform="translate(521.473 199.146875) scale(0.125 -0.125)">
     <use xlink:href="#DejaVuSans-Oblique-52" transform="translate(0 0.09375)"/>
     <use xlink:href="#DejaVuSans-Oblique-4c" transform="translate(69.482422 -16.3125) scale(0.7)"/>
    </g>
   </g>
   <g id="patch_4">
    <path d="M 44.013 169.477656 
C 44.729048 169.477656 45.415866 169.193167 45.922188 168.686845 
C 46.428511 168.180522 46.713 167.493705 46.713 166.777656 
C 46.713 166.061608 46.428511 165.374791 45.922188 164.868468 
C 45.415866 164.362145 44.729048 164.077656 44.013 164.077656 
C 43.296952 164.077656 42.610134 164.362145 42.103812 164.868468 
C 41.597489 165.374791 41.313 166.061608 41.313 166.777656 
C 41.313 167.493705 41.597489 168.180522 42.103812 168.686845 
C 42.610134 169.193167 43.296952 169.477656 44.013 169.477656 
z
" clip-path="url(#p28a5820233)" style="fill: #ff0000; stroke: #ff0000; stroke-width: 2; stroke-linejoin: miter"/>
   </g>
   <g id="text_11">
    <!-- 1 -->
    <g style="fill: #ff0000" transform="translate(54.059875 201.475703) scale(0.125 -0.125)">
     <use xlink:href="#DejaVuSans-31"/>
    </g>
   </g>
   <g id="patch_5">
    <path d="M 179.073 144.397656 
C 179.789048 144.397656 180.475866 144.113167 180.982188 143.606845 
C 181.488511 143.100522 181.773 142.413705 181.773 141.697656 
C 181.773 140.981608 181.488511 140.294791 180.982188 139.788468 
C 180.475866 139.282145 179.789048 138.997656 179.073 138.997656 
C 178.356952 138.997656 177.670134 139.282145 177.163812 139.788468 
C 176.657489 140.294791 176.373 140.981608 176.373 141.697656 
C 176.373 142.413705 176.657489 143.100522 177.163812 143.606845 
C 177.670134 144.113167 178.356952 144.397656 179.073 144.397656 
z
" clip-path="url(#p28a5820233)" style="fill: #ff0000; stroke: #ff0000; stroke-width: 2; stroke-linejoin: miter"/>
   </g>
   <g id="text_12">
    <!-- 2 -->
    <g style="fill: #ff0000" transform="translate(189.119875 176.395703) scale(0.125 -0.125)">
     <use xlink:href="#DejaVuSans-32"/>
    </g>
   </g>
   <g id="patch_6">
    <path d="M 287.073 144.397656 
C 287.789048 144.397656 288.475866 144.113167 288.982188 143.606845 
C 289.488511 143.100522 289.773 142.413705 289.773 141.697656 
C 289.773 140.981608 289.488511 140.294791 288.982188 139.788468 
C 288.475866 139.282145 287.789048 138.997656 287.073 138.997656 
C 286.356952 138.997656 285.670134 139.282145 285.163812 139.788468 
C 284.657489 140.294791 284.373 140.981608 284.373 141.697656 
C 284.373 142.413705 284.657489 143.100522 285.163812 143.606845 
C 285.670134 144.113167 286.356952 144.397656 287.073 144.397656 
z
" clip-path="url(#p28a5820233)" style="fill: #ff0000; stroke: #ff0000; stroke-width: 2; stroke-linejoin: miter"/>
   </g>
   <g id="text_13">
    <!-- 5 -->
    <g style="fill: #ff0000" transform="translate(297.119875 176.395703) scale(0.125 -0.125)">
     <defs>
      <path id="DejaVuSans-35" d="M 691 4666 
L 3169 4666 
L 3169 4134 
L 1269 4134 
L 1269 2991 
Q 1406 3038 1543 3061 
Q 1681 3084 1819 3084 
Q 2600 3084 3056 2656 
Q 3513 2228 3513 1497 
Q 3513 744 3044 326 
Q 2575 -91 1722 -91 
Q 1428 -91 1123 -41 
Q 819 9 494 109 
L 494 744 
Q 775 591 1075 516 
Q 1375 441 1709 441 
Q 2250 441 2565 725 
Q 2881 1009 2881 1497 
Q 2881 1984 2565 2268 
Q 2250 2553 1709 2553 
Q 1456 2553 1204 2497 
Q 953 2441 691 2322 
L 691 4666 
z
" transform="scale(0.015625)"/>
     </defs>
     <use xlink:href="#DejaVuSans-35"/>
    </g>
   </g>
   <g id="patch_7">
    <path d="M 395.073 144.397656 
C 395.789048 144.397656 396.475866 144.113167 396.982188 143.606845 
C 397.488511 143.100522 397.773 142.413705 397.773 141.697656 
C 397.773 140.981608 397.488511 140.294791 396.982188 139.788468 
C 396.475866 139.282145 395.789048 138.997656 395.073 138.997656 
C 394.356952 138.997656 393.670134 139.282145 393.163812 139.788468 
C 392.657489 140.294791 392.373 140.981608 392.373 141.697656 
C 392.373 142.413705 392.657489 143.100522 393.163812 143.606845 
C 393.670134 144.113167 394.356952 144.397656 395.073 144.397656 
z
" clip-path="url(#p28a5820233)" style="fill: #ff0000; stroke: #ff0000; stroke-width: 2; stroke-linejoin: miter"/>
   </g>
   <g id="text_14">
    <!-- 3 -->
    <g style="fill: #ff0000" transform="translate(405.119875 176.395703) scale(0.125 -0.125)">
     <use xlink:href="#DejaVuSans-33"/>
    </g>
   </g>
   <g id="patch_8">
    <path d="M 566.073 144.397656 
C 566.789048 144.397656 567.475866 144.113167 567.982188 143.606845 
C 568.488511 143.100522 568.773 142.413705 568.773 141.697656 
C 568.773 140.981608 568.488511 140.294791 567.982188 139.788468 
C 567.475866 139.282145 566.789048 138.997656 566.073 138.997656 
C 565.356952 138.997656 564.670134 139.282145 564.163812 139.788468 
C 563.657489 140.294791 563.373 140.981608 563.373 141.697656 
C 563.373 142.413705 563.657489 143.100522 564.163812 143.606845 
C 564.670134 144.113167 565.356952 144.397656 566.073 144.397656 
z
" clip-path="url(#p28a5820233)" style="fill: #ffffff; stroke: #000000; stroke-width: 2; stroke-linejoin: miter"/>
   </g>
   <g id="text_15">
    <!-- $v_{out}$ -->
    <g transform="translate(572.373 145.146875) scale(0.125 -0.125)">
     <defs>
      <path id="DejaVuSans-Oblique-76" d="M 459 3500 
L 1069 3500 
L 1581 525 
L 3256 3500 
L 3866 3500 
L 1875 0 
L 1100 0 
L 459 3500 
z
" transform="scale(0.015625)"/>
      <path id="DejaVuSans-Oblique-6f" d="M 1625 -91 
Q 1009 -91 651 289 
Q 294 669 294 1325 
Q 294 1706 417 2101 
Q 541 2497 738 2766 
Q 1047 3184 1428 3384 
Q 1809 3584 2291 3584 
Q 2888 3584 3255 3212 
Q 3622 2841 3622 2241 
Q 3622 1825 3500 1412 
Q 3378 1000 3181 728 
Q 2875 309 2494 109 
Q 2113 -91 1625 -91 
z
M 891 1344 
Q 891 869 1089 633 
Q 1288 397 1691 397 
Q 2269 397 2648 901 
Q 3028 1406 3028 2181 
Q 3028 2634 2825 2865 
Q 2622 3097 2228 3097 
Q 1903 3097 1650 2945 
Q 1397 2794 1197 2484 
Q 1050 2253 970 1956 
Q 891 1659 891 1344 
z
" transform="scale(0.015625)"/>
      <path id="DejaVuSans-Oblique-75" d="M 428 1388 
L 838 3500 
L 1416 3500 
L 1006 1409 
Q 975 1256 961 1147 
Q 947 1038 947 966 
Q 947 700 1109 554 
Q 1272 409 1569 409 
Q 2031 409 2368 721 
Q 2706 1034 2809 1563 
L 3194 3500 
L 3769 3500 
L 3091 0 
L 2516 0 
L 2631 550 
Q 2388 244 2052 76 
Q 1716 -91 1338 -91 
Q 878 -91 622 161 
Q 366 413 366 863 
Q 366 956 381 1097 
Q 397 1238 428 1388 
z
" transform="scale(0.015625)"/>
      <path id="DejaVuSans-Oblique-74" d="M 2706 3500 
L 2619 3053 
L 1472 3053 
L 1100 1153 
Q 1081 1047 1072 975 
Q 1063 903 1063 863 
Q 1063 663 1183 572 
Q 1303 481 1569 481 
L 2150 481 
L 2053 0 
L 1503 0 
Q 991 0 739 200 
Q 488 400 488 806 
Q 488 878 497 964 
Q 506 1050 525 1153 
L 897 3053 
L 409 3053 
L 500 3500 
L 978 3500 
L 1172 4494 
L 1747 4494 
L 1556 3500 
L 2706 3500 
z
" transform="scale(0.015625)"/>
     </defs>
     <use xlink:href="#DejaVuSans-Oblique-76" transform="translate(0 0.3125)"/>
     <use xlink:href="#DejaVuSans-Oblique-6f" transform="translate(59.179688 -16.09375) scale(0.7)"/>
     <use xlink:href="#DejaVuSans-Oblique-75" transform="translate(102.006836 -16.09375) scale(0.7)"/>
     <use xlink:href="#DejaVuSans-Oblique-74" transform="translate(146.37207 -16.09375) scale(0.7)"/>
    </g>
   </g>
   <g id="patch_9">
    <path d="M 494.073 252.397656 
C 494.789048 252.397656 495.475866 252.113167 495.982188 251.606845 
C 496.488511 251.100522 496.773 250.413705 496.773 249.697656 
C 496.773 248.981608 496.488511 248.294791 495.982188 247.788468 
C 495.475866 247.282145 494.789048 246.997656 494.073 246.997656 
C 493.356952 246.997656 492.670134 247.282145 492.163812 247.788468 
C 491.657489 248.294791 491.373 248.981608 491.373 249.697656 
C 491.373 250.413705 491.657489 251.100522 492.163812 251.606845 
C 492.670134 252.113167 493.356952 252.397656 494.073 252.397656 
z
" clip-path="url(#p28a5820233)" style="stroke: #000000; stroke-width: 2; stroke-linejoin: miter"/>
   </g>
   <g id="patch_10">
    <path d="M 440.073 252.397656 
C 440.789048 252.397656 441.475866 252.113167 441.982188 251.606845 
C 442.488511 251.100522 442.773 250.413705 442.773 249.697656 
C 442.773 248.981608 442.488511 248.294791 441.982188 247.788468 
C 441.475866 247.282145 440.789048 246.997656 440.073 246.997656 
C 439.356952 246.997656 438.670134 247.282145 438.163812 247.788468 
C 437.657489 248.294791 437.373 248.981608 437.373 249.697656 
C 437.373 250.413705 437.657489 251.100522 438.163812 251.606845 
C 438.670134 252.113167 439.356952 252.397656 440.073 252.397656 
z
" clip-path="url(#p28a5820233)" style="stroke: #000000; stroke-width: 2; stroke-linejoin: miter"/>
   </g>
   <g id="patch_11">
    <path d="M 179.073 252.397656 
C 179.789048 252.397656 180.475866 252.113167 180.982188 251.606845 
C 181.488511 251.100522 181.773 250.413705 181.773 249.697656 
C 181.773 248.981608 181.488511 248.294791 180.982188 247.788468 
C 180.475866 247.282145 179.789048 246.997656 179.073 246.997656 
C 178.356952 246.997656 177.670134 247.282145 177.163812 247.788468 
C 176.657489 248.294791 176.373 248.981608 176.373 249.697656 
C 176.373 250.413705 176.657489 251.100522 177.163812 251.606845 
C 177.670134 252.113167 178.356952 252.397656 179.073 252.397656 
z
" clip-path="url(#p28a5820233)" style="stroke: #000000; stroke-width: 2; stroke-linejoin: miter"/>
   </g>
  </g>
 </g>
 <defs>
  <clipPath id="p28a5820233">
   <rect x="3.6" y="5.371656" width="592.086" height="306.372"/>
  </clipPath>
 </defs>
</svg>