<?xml version="1.0" encoding="utf-8" standalone="no"?>
<!DOCTYPE svg PUBLIC "-//W3C//DTD SVG 1.1//EN"
  "http://www.w3.org/Graphics/SVG/1.1/DTD/svg11.dtd">
<svg xmlns:xlink="http://www.w3.org/1999/xlink" width="290.34pt" height="153.495485pt" viewBox="0 0 290.34 153.495485" xmlns="http://www.w3.org/2000/svg" version="1.1">
 <metadata>
  <rdf:RDF xmlns:dc="http://purl.org/dc/elements/1.1/" xmlns:cc="http://creativecommons.org/ns#" xmlns:rdf="http://www.w3.org/1999/02/22-rdf-syntax-ns#">
   <cc:Work>
    <dc:type rdf:resource="http://purl.org/dc/dcmitype/StillImage"/>
    <dc:date>2023-09-26T21:52:35.292644</dc:date>
    <dc:format>image/svg+xml</dc:format>
    <dc:creator>
     <cc:Agent>
      <dc:title>Matplotlib v3.6.3, https://matplotlib.org/</dc:title>
     </cc:Agent>
    </dc:creator>
   </cc:Work>
  </rdf:RDF>
 </metadata>
 <defs>
  <style type="text/css">*{stroke-linejoin: round; stroke-linecap: butt}</style>
 </defs>
 <g id="figure_1">
  <g id="patch_1">
   <path d="M 0 153.495485 
L 290.34 153.495485 
L 290.34 0 
L 0 0 
z
" style="fill: #ffffff"/>
  </g>
  <g id="axes_1">
   <g id="line2d_1">
    <path d="M 19.17 32.976541 
L 46.17 32.976541 
L 46.30407 30.012354 
L 46.71176 27.021434 
L 47.384001 24.254624 
L 48.289538 21.943972 
L 48.814567 21.022233 
L 49.377547 20.28327 
L 49.969767 19.742659 
L 50.581902 19.411797 
L 51.204207 19.297656 
L 51.82672 19.402643 
L 52.439478 19.724545 
L 53.032723 20.256576 
L 53.597106 20.987522 
L 54.123888 21.901977 
L 55.033825 24.200849 
L 55.711342 26.96039 
L 56.12474 29.949161 
L 56.264472 32.916498 
L 56.143942 35.613535 
L 55.798382 37.814076 
L 55.281898 39.333565 
L 54.980537 39.79553 
L 54.662928 40.044564 
L 54.338923 40.075419 
L 54.018509 39.887444 
L 53.711597 39.484601 
L 53.176292 38.072626 
L 52.803029 35.957915 
L 52.648236 33.317825 
L 52.750019 30.373777 
L 53.124963 27.372683 
L 53.766748 24.56624 
L 54.646671 22.189821 
L 55.161402 21.227047 
L 55.716057 20.442733 
L 56.302102 19.85341 
L 56.910342 19.4715 
L 57.531113 19.305053 
L 58.154487 19.357579 
L 58.770482 19.627968 
L 59.369271 20.110523 
L 59.94139 20.795072 
L 60.477935 21.667186 
L 61.412621 23.897011 
L 62.12006 26.612988 
L 62.566046 29.58733 
L 62.738297 32.570584 
L 62.64749 35.31255 
L 62.326365 37.583263 
L 61.826977 39.192282 
L 61.530936 39.703972 
L 61.216332 40.004661 
L 60.892952 40.088011 
L 60.570768 39.952266 
L 60.259731 39.600287 
L 59.969551 39.039493 
L 59.488228 37.342893 
L 59.192289 35.004759 
L 59.131678 32.221186 
L 59.336602 29.225627 
L 59.814998 26.269317 
L 60.551866 23.600196 
L 61.510531 21.442118 
L 62.056371 20.613402 
L 62.635713 19.97608 
L 63.239502 19.543586 
L 63.858169 19.325035 
L 64.481831 19.325035 
L 65.100498 19.543586 
L 65.704287 19.97608 
L 66.283629 20.613402 
L 66.829469 21.442118 
L 67.33346 22.444761 
L 68.187065 24.884068 
L 68.797979 27.726743 
L 69.140087 30.734375 
L 69.209821 33.654719 
L 69.026457 36.242849 
L 68.630496 38.281704 
L 68.080269 39.600287 
L 67.769232 39.952266 
L 67.447048 40.088011 
L 67.123668 40.004661 
L 66.809064 39.703972 
L 66.513023 39.192282 
L 66.013635 37.583263 
L 65.69251 35.31255 
L 65.601703 32.570584 
L 65.773954 29.58733 
L 66.21994 26.612988 
L 66.927379 23.897011 
L 67.862065 21.667186 
L 68.39861 20.795072 
L 68.970729 20.110523 
L 69.569518 19.627968 
L 70.185513 19.357579 
L 70.808887 19.305053 
L 71.429658 19.4715 
L 72.037898 19.85341 
L 72.623943 20.442733 
L 73.178598 21.227047 
L 73.693329 22.189821 
L 74.573252 24.56624 
L 75.215037 27.372683 
L 75.589981 30.373777 
L 75.691764 33.317825 
L 75.536971 35.957915 
L 75.163708 38.072626 
L 74.628403 39.484601 
L 74.321491 39.887444 
L 74.001077 40.075419 
L 73.677072 40.044564 
L 73.359463 39.79553 
L 73.058102 39.333565 
L 72.541618 37.814076 
L 72.196058 35.613535 
L 72.075528 32.916498 
L 72.21526 29.949161 
L 72.628658 26.96039 
L 73.306175 24.200849 
L 74.216112 21.901977 
L 74.742894 20.987522 
L 75.307277 20.256576 
L 75.900522 19.724545 
L 76.51328 19.402643 
L 77.135793 19.297656 
L 77.758098 19.411797 
L 78.370233 19.742659 
L 78.962453 20.28327 
L 79.525433 21.022233 
L 80.050462 21.943972 
L 80.955999 24.254624 
L 81.62824 27.021434 
L 82.03593 30.012354 
L 82.17 32.976541 
L 109.17 32.976541 
L 109.17 32.976541 
" clip-path="url(#pdd68caca06)" style="fill: none; stroke: #000000; stroke-width: 2; stroke-linecap: round"/>
   </g>
   <g id="line2d_2">
    <path d="M 109.17 32.976541 
L 127.17 32.976541 
L 130.17 23.976541 
L 136.17 41.976541 
L 142.17 23.976541 
L 148.17 41.976541 
L 154.17 23.976541 
L 160.17 41.976541 
L 163.17 32.976541 
L 181.17 32.976541 
" clip-path="url(#pdd68caca06)" style="fill: none; stroke: #000000; stroke-width: 2; stroke-linecap: round"/>
   </g>
   <g id="line2d_3">
    <path d="M 181.17 32.976541 
L 181.17 83.736541 
M 190.17 83.736541 
L 172.17 83.736541 
M 190.17 90.216541 
L 172.17 90.216541 
M 181.17 90.216541 
L 181.17 140.976541 
" clip-path="url(#pdd68caca06)" style="fill: none; stroke: #000000; stroke-width: 2; stroke-linecap: round"/>
   </g>
   <g id="line2d_4">
    <path d="M 181.17 32.976541 
L 199.17 32.976541 
L 217.17 32.976541 
" clip-path="url(#pdd68caca06)" style="fill: none; stroke: #000000; stroke-width: 2; stroke-linecap: round"/>
   </g>
   <g id="line2d_5">
    <path d="M 217.17 32.976541 
L 217.17 68.976541 
L 226.17 71.976541 
L 208.17 77.976541 
L 226.17 83.976541 
L 208.17 89.976541 
L 226.17 95.976541 
L 208.17 101.976541 
L 217.17 104.976541 
L 217.17 140.976541 
" clip-path="url(#pdd68caca06)" style="fill: none; stroke: #000000; stroke-width: 2; stroke-linecap: round"/>
   </g>
   <g id="line2d_6">
    <path d="M 217.17 140.976541 
L 118.17 140.976541 
L 19.17 140.976541 
" clip-path="url(#pdd68caca06)" style="fill: none; stroke: #000000; stroke-width: 2; stroke-linecap: round"/>
   </g>
   <g id="line2d_7">
    <path d="M 217.17 140.976541 
L 244.17 140.976541 
L 271.17 140.976541 
" clip-path="url(#pdd68caca06)" style="fill: none; stroke: #000000; stroke-width: 2; stroke-linecap: round"/>
   </g>
   <g id="line2d_8">
    <path d="M 217.17 32.976541 
L 244.17 32.976541 
L 271.17 32.976541 
" clip-path="url(#pdd68caca06)" style="fill: none; stroke: #000000; stroke-width: 2; stroke-linecap: round"/>
   </g>
   <g id="text_1">
    <!-- L -->
    <g transform="translate(60.687578 13.098047) scale(0.125 -0.125)">
     <defs>
      <path id="DejaVuSans-4c" d="M 628 4666 
L 1259 4666 
L 1259 531 
L 3531 531 
L 3531 0 
L 628 0 
L 628 4666 
z
" transform="scale(0.015625)"/>
     </defs>
     <use xlink:href="#DejaVuSans-4c"/>
    </g>
   </g>
   <g id="text_2">
    <!-- R -->
    <g transform="translate(140.827227 17.776931) scale(0.125 -0.125)">
     <defs>
      <path id="DejaVuSans-52" d="M 2841 2188 
Q 3044 2119 3236 1894 
Q 3428 1669 3622 1275 
L 4263 0 
L 3584 0 
L 2988 1197 
Q 2756 1666 2539 1819 
Q 2322 1972 1947 1972 
L 1259 1972 
L 1259 0 
L 628 0 
L 628 4666 
L 2053 4666 
Q 2853 4666 3247 4331 
Q 3641 3997 3641 3322 
Q 3641 2881 3436 2590 
Q 3231 2300 2841 2188 
z
M 1259 4147 
L 1259 2491 
L 2053 2491 
Q 2509 2491 2742 2702 
Q 2975 2913 2975 3322 
Q 2975 3731 2742 3939 
Q 2509 4147 2053 4147 
L 1259 4147 
z
" transform="scale(0.015625)"/>
     </defs>
     <use xlink:href="#DejaVuSans-52"/>
    </g>
   </g>
   <g id="text_3">
    <!-- C -->
    <g transform="translate(159.841484 90.425759) scale(0.125 -0.125)">
     <defs>
      <path id="DejaVuSans-43" d="M 4122 4306 
L 4122 3641 
Q 3803 3938 3442 4084 
Q 3081 4231 2675 4231 
Q 1875 4231 1450 3742 
Q 1025 3253 1025 2328 
Q 1025 1406 1450 917 
Q 1875 428 2675 428 
Q 3081 428 3442 575 
Q 3803 722 4122 1019 
L 4122 359 
Q 3791 134 3420 21 
Q 3050 -91 2638 -91 
Q 1578 -91 968 557 
Q 359 1206 359 2328 
Q 359 3453 968 4101 
Q 1578 4750 2638 4750 
Q 3056 4750 3426 4639 
Q 3797 4528 4122 4306 
z
" transform="scale(0.015625)"/>
     </defs>
     <use xlink:href="#DejaVuSans-43"/>
    </g>
   </g>
   <g id="text_4">
    <!-- g -->
    <g transform="translate(196.634453 90.425759) scale(0.125 -0.125)">
     <defs>
      <path id="DejaVuSans-67" d="M 2906 1791 
Q 2906 2416 2648 2759 
Q 2391 3103 1925 3103 
Q 1463 3103 1205 2759 
Q 947 2416 947 1791 
Q 947 1169 1205 825 
Q 1463 481 1925 481 
Q 2391 481 2648 825 
Q 2906 1169 2906 1791 
z
M 3481 434 
Q 3481 -459 3084 -895 
Q 2688 -1331 1869 -1331 
Q 1566 -1331 1297 -1286 
Q 1028 -1241 775 -1147 
L 775 -588 
Q 1028 -725 1275 -790 
Q 1522 -856 1778 -856 
Q 2344 -856 2625 -561 
Q 2906 -266 2906 331 
L 2906 616 
Q 2728 306 2450 153 
Q 2172 0 1784 0 
Q 1141 0 747 490 
Q 353 981 353 1791 
Q 353 2603 747 3093 
Q 1141 3584 1784 3584 
Q 2172 3584 2450 3431 
Q 2728 3278 2906 2969 
L 2906 3500 
L 3481 3500 
L 3481 434 
z
" transform="scale(0.015625)"/>
     </defs>
     <use xlink:href="#DejaVuSans-67"/>
    </g>
   </g>
   <g id="patch_2">
    <path d="M 19.17 35.676541 
C 19.886048 35.676541 20.572866 35.392052 21.079188 34.885729 
C 21.585511 34.379406 21.87 33.692589 21.87 32.976541 
C 21.87 32.260492 21.585511 31.573675 21.079188 31.067352 
C 20.572866 30.56103 19.886048 30.276541 19.17 30.276541 
C 18.453952 30.276541 17.767134 30.56103 17.260812 31.067352 
C 16.754489 31.573675 16.47 32.260492 16.47 32.976541 
C 16.47 33.692589 16.754489 34.379406 17.260812 34.885729 
C 17.767134 35.392052 18.453952 35.676541 19.17 35.676541 
z
" clip-path="url(#pdd68caca06)" style="stroke: #000000; stroke-width: 2; stroke-linejoin: miter"/>
   </g>
   <g id="patch_3">
    <path d="M 19.17 143.676541 
C 19.886048 143.676541 20.572866 143.392052 21.079188 142.885729 
C 21.585511 142.379406 21.87 141.692589 21.87 140.976541 
C 21.87 140.260492 21.585511 139.573675 21.079188 139.067352 
C 20.572866 138.56103 19.886048 138.276541 19.17 138.276541 
C 18.453952 138.276541 17.767134 138.56103 17.260812 139.067352 
C 16.754489 139.573675 16.47 140.260492 16.47 140.976541 
C 16.47 141.692589 16.754489 142.379406 17.260812 142.885729 
C 17.767134 143.392052 18.453952 143.676541 19.17 143.676541 
z
" clip-path="url(#pdd68caca06)" style="stroke: #000000; stroke-width: 2; stroke-linejoin: miter"/>
   </g>
   <g id="patch_4">
    <path d="M 271.17 143.676541 
C 271.886048 143.676541 272.572866 143.392052 273.079188 142.885729 
C 273.585511 142.379406 273.87 141.692589 273.87 140.976541 
C 273.87 140.260492 273.585511 139.573675 273.079188 139.067352 
C 272.572866 138.56103 271.886048 138.276541 271.17 138.276541 
C 270.453952 138.276541 269.767134 138.56103 269.260812 139.067352 
C 268.754489 139.573675 268.47 140.260492 268.47 140.976541 
C 268.47 141.692589 268.754489 142.379406 269.260812 142.885729 
C 269.767134 143.392052 270.453952 143.676541 271.17 143.676541 
z
" clip-path="url(#pdd68caca06)" style="stroke: #000000; stroke-width: 2; stroke-linejoin: miter"/>
   </g>
   <g id="patch_5">
    <path d="M 271.17 35.676541 
C 271.886048 35.676541 272.572866 35.392052 273.079188 34.885729 
C 273.585511 34.379406 273.87 33.692589 273.87 32.976541 
C 273.87 32.260492 273.585511 31.573675 273.079188 31.067352 
C 272.572866 30.56103 271.886048 30.276541 271.17 30.276541 
C 270.453952 30.276541 269.767134 30.56103 269.260812 31.067352 
C 268.754489 31.573675 268.47 32.260492 268.47 32.976541 
C 268.47 33.692589 268.754489 34.379406 269.260812 34.885729 
C 269.767134 35.392052 270.453952 35.676541 271.17 35.676541 
z
" clip-path="url(#pdd68caca06)" style="stroke: #000000; stroke-width: 2; stroke-linejoin: miter"/>
   </g>
  </g>
 </g>
 <defs>
  <clipPath id="pdd68caca06">
   <rect x="3.6" y="13.078712" width="283.14" height="136.816773"/>
  </clipPath>
 </defs>
</svg>