<?xml version="1.0" encoding="utf-8" standalone="no"?>
<!DOCTYPE svg PUBLIC "-//W3C//DTD SVG 1.1//EN"
  "http://www.w3.org/Graphics/SVG/1.1/DTD/svg11.dtd">
<svg xmlns:xlink="http://www.w3.org/1999/xlink" width="341.1162pt" height="305.032pt" viewBox="0 0 341.1162 305.032" xmlns="http://www.w3.org/2000/svg" version="1.1">
 <metadata>
  <rdf:RDF xmlns:dc="http://purl.org/dc/elements/1.1/" xmlns:cc="http://creativecommons.org/ns#" xmlns:rdf="http://www.w3.org/1999/02/22-rdf-syntax-ns#">
   <cc:Work>
    <dc:type rdf:resource="http://purl.org/dc/dcmitype/StillImage"/>
    <dc:date>2022-11-04T22:30:55.044945</dc:date>
    <dc:format>image/svg+xml</dc:format>
    <dc:creator>
     <cc:Agent>
      <dc:title>Matplotlib v3.5.3, https://matplotlib.org/</dc:title>
     </cc:Agent>
    </dc:creator>
   </cc:Work>
  </rdf:RDF>
 </metadata>
 <defs>
  <style type="text/css">*{stroke-linejoin: round; stroke-linecap: butt}</style>
 </defs>
 <g id="figure_1">
  <g id="patch_1">
   <path d="M 0 305.032 
L 341.1162 305.032 
L 341.1162 0 
L 0 0 
L 0 305.032 
z
" style="fill: none"/>
  </g>
  <g id="axes_1">
   <g id="patch_2">
    <path d="M 50.2134 240.763 
C 53.256606 240.763 56.175579 239.553922 58.32745 237.40205 
C 60.479322 235.250179 61.6884 232.331206 61.6884 229.288 
C 61.6884 226.244794 60.479322 223.325821 58.32745 221.17395 
C 56.175579 219.022078 53.256606 217.813 50.2134 217.813 
C 47.170194 217.813 44.251221 219.022078 42.09935 221.17395 
C 39.947478 223.325821 38.7384 226.244794 38.7384 229.288 
C 38.7384 232.331206 39.947478 235.250179 42.09935 237.40205 
C 44.251221 239.553922 47.170194 240.763 50.2134 240.763 
L 50.2134 240.763 
z
" clip-path="url(#pa19e8552bf)" style="fill: none; stroke: #000000; stroke-width: 2; stroke-linejoin: miter"/>
   </g>
   <g id="patch_3">
    <path d="M 203.2644 77.92 
C 204.886902 77.92 206.444611 77.274776 207.591894 76.127494 
C 208.739176 74.980211 209.3844 73.422502 209.3844 71.8 
C 209.3844 70.177498 208.739176 68.619789 207.591894 67.472506 
C 206.444611 66.325224 204.886902 65.68 203.2644 65.68 
" clip-path="url(#pa19e8552bf)" style="fill: none; stroke: #000000; stroke-width: 2; stroke-linejoin: miter"/>
   </g>
   <g id="patch_4">
    <path d="M 203.2644 90.16 
C 204.886902 90.16 206.444611 89.514776 207.591894 88.367494 
C 208.739176 87.220211 209.3844 85.662502 209.3844 84.04 
C 209.3844 82.417498 208.739176 80.859789 207.591894 79.712506 
C 206.444611 78.565224 204.886902 77.92 203.2644 77.92 
" clip-path="url(#pa19e8552bf)" style="fill: none; stroke: #000000; stroke-width: 2; stroke-linejoin: miter"/>
   </g>
   <g id="patch_5">
    <path d="M 203.2644 102.4 
C 204.886902 102.4 206.444611 101.754776 207.591894 100.607494 
C 208.739176 99.460211 209.3844 97.902502 209.3844 96.28 
C 209.3844 94.657498 208.739176 93.099789 207.591894 91.952506 
C 206.444611 90.805224 204.886902 90.16 203.2644 90.16 
" clip-path="url(#pa19e8552bf)" style="fill: none; stroke: #000000; stroke-width: 2; stroke-linejoin: miter"/>
   </g>
   <g id="patch_6">
    <path d="M 203.2644 114.64 
C 204.886902 114.64 206.444611 113.994776 207.591894 112.847494 
C 208.739176 111.700211 209.3844 110.142502 209.3844 108.52 
C 209.3844 106.897498 208.739176 105.339789 207.591894 104.192506 
C 206.444611 103.045224 204.886902 102.4 203.2644 102.4 
" clip-path="url(#pa19e8552bf)" style="fill: none; stroke: #000000; stroke-width: 2; stroke-linejoin: miter"/>
   </g>
   <g id="patch_7">
    <path d="M 203.2644 126.88 
C 204.886902 126.88 206.444611 126.234776 207.591894 125.087494 
C 208.739176 123.940211 209.3844 122.382502 209.3844 120.76 
C 209.3844 119.137498 208.739176 117.579789 207.591894 116.432506 
C 206.444611 115.285224 204.886902 114.64 203.2644 114.64 
" clip-path="url(#pa19e8552bf)" style="fill: none; stroke: #000000; stroke-width: 2; stroke-linejoin: miter"/>
   </g>
   <g id="patch_8">
    <path d="M 203.2644 139.12 
C 204.886902 139.12 206.444611 138.474776 207.591894 137.327494 
C 208.739176 136.180211 209.3844 134.622502 209.3844 133 
C 209.3844 131.377498 208.739176 129.819789 207.591894 128.672506 
C 206.444611 127.525224 204.886902 126.88 203.2644 126.88 
" clip-path="url(#pa19e8552bf)" style="fill: none; stroke: #000000; stroke-width: 2; stroke-linejoin: miter"/>
   </g>
   <g id="patch_9">
    <path d="M 233.8644 77.92 
C 232.241898 77.92 230.684189 78.565224 229.536906 79.712506 
C 228.389624 80.859789 227.7444 82.417498 227.7444 84.04 
C 227.7444 85.662502 228.389624 87.220211 229.536906 88.367494 
C 230.684189 89.514776 232.241898 90.16 233.8644 90.16 
" clip-path="url(#pa19e8552bf)" style="fill: none; stroke: #000000; stroke-width: 2; stroke-linejoin: miter"/>
   </g>
   <g id="patch_10">
    <path d="M 233.8644 90.16 
C 232.241898 90.16 230.684189 90.805224 229.536906 91.952506 
C 228.389624 93.099789 227.7444 94.657498 227.7444 96.28 
C 227.7444 97.902502 228.389624 99.460211 229.536906 100.607494 
C 230.684189 101.754776 232.241898 102.4 233.8644 102.4 
" clip-path="url(#pa19e8552bf)" style="fill: none; stroke: #000000; stroke-width: 2; stroke-linejoin: miter"/>
   </g>
   <g id="patch_11">
    <path d="M 233.8644 102.4 
C 232.241898 102.4 230.684189 103.045224 229.536906 104.192506 
C 228.389624 105.339789 227.7444 106.897498 227.7444 108.52 
C 227.7444 110.142502 228.389624 111.700211 229.536906 112.847494 
C 230.684189 113.994776 232.241898 114.64 233.8644 114.64 
" clip-path="url(#pa19e8552bf)" style="fill: none; stroke: #000000; stroke-width: 2; stroke-linejoin: miter"/>
   </g>
   <g id="patch_12">
    <path d="M 233.8644 114.64 
C 232.241898 114.64 230.684189 115.285224 229.536906 116.432506 
C 228.389624 117.579789 227.7444 119.137498 227.7444 120.76 
C 227.7444 122.382502 228.389624 123.940211 229.536906 125.087494 
C 230.684189 126.234776 232.241898 126.88 233.8644 126.88 
" clip-path="url(#pa19e8552bf)" style="fill: none; stroke: #000000; stroke-width: 2; stroke-linejoin: miter"/>
   </g>
   <g id="line2d_1">
    <path d="M 142.0134 183.388 
L 153.2334 183.388 
" clip-path="url(#pa19e8552bf)" style="fill: none; stroke: #000000; stroke-width: 2; stroke-linecap: round"/>
   </g>
   <g id="line2d_2">
    <path d="M 153.2334 172.168 
L 153.2334 194.608 
" clip-path="url(#pa19e8552bf)" style="fill: none; stroke: #000000; stroke-width: 2; stroke-linecap: round"/>
   </g>
   <g id="line2d_3">
    <path d="M 153.2334 177.778 
L 165.0144 167.68 
L 165.0144 162.07 
" clip-path="url(#pa19e8552bf)" style="fill: none; stroke: #000000; stroke-width: 2; stroke-linecap: round"/>
   </g>
   <g id="line2d_4">
    <path d="M 153.2334 188.998 
L 165.0144 199.096 
L 165.0144 204.706 
" clip-path="url(#pa19e8552bf)" style="fill: none; stroke: #000000; stroke-width: 2; stroke-linecap: round"/>
   </g>
   <g id="line2d_5">
    <path d="M 153.2334 188.998 
L 159.206087 194.117446 
" clip-path="url(#pa19e8552bf)" style="fill: none; stroke: #000000; stroke-width: 2; stroke-linecap: round"/>
   </g>
   <g id="patch_13">
    <path d="M 161.197509 191.794121 
L 165.0144 199.096 
L 157.214665 196.440771 
z
" clip-path="url(#pa19e8552bf)"/>
   </g>
   <g id="line2d_6">
    <path d="M 142.0134 183.388 
L 98.8674 183.388 
M 98.8674 191.038 
L 98.8674 175.738 
M 93.3594 191.038 
L 93.3594 175.738 
M 93.3594 183.388 
L 50.2134 183.388 
" clip-path="url(#pa19e8552bf)" style="fill: none; stroke: #000000; stroke-width: 2; stroke-linecap: round"/>
   </g>
   <g id="line2d_7">
    <path d="M 142.0134 183.388 
L 142.0134 217.813 
L 143.903069 217.898469 
L 145.809781 218.158372 
L 147.573622 218.586926 
L 149.046662 219.164205 
L 150.10536 219.857811 
L 150.660924 220.625588 
L 150.733689 221.022307 
L 150.66676 221.419159 
L 150.461547 221.809793 
L 149.656399 222.54778 
L 148.385771 223.190391 
L 146.756228 223.699748 
L 144.904437 224.049147 
L 142.985706 224.225301 
L 141.160956 224.229453 
L 139.583225 224.07727 
L 138.384835 223.797532 
L 137.666295 223.429717 
L 137.507535 223.227242 
L 137.487865 223.020689 
L 137.607699 222.816425 
L 138.252889 222.439855 
L 139.388994 222.14513 
L 140.92073 221.972985 
L 142.719633 221.953874 
L 144.634831 222.105415 
L 146.505701 222.430916 
L 148.175334 222.919092 
L 149.503702 223.545019 
L 150.379396 224.272215 
L 150.622864 224.659968 
L 150.728973 225.05571 
L 150.695488 225.453111 
L 150.523115 225.845808 
L 149.779086 226.592261 
L 148.559288 227.248482 
L 146.966022 227.77545 
L 145.132913 228.144987 
L 143.213703 228.342115 
L 141.369351 228.366317 
L 139.754541 228.231581 
L 138.504704 227.965223 
L 137.724663 227.605597 
L 137.479838 227.198882 
L 137.566375 226.99349 
L 138.148268 226.610214 
L 139.22985 226.30337 
L 140.720411 226.114709 
L 142.494939 226.07607 
L 144.404607 226.206709 
L 146.289255 226.511686 
L 147.99082 226.98144 
L 149.366594 227.592588 
L 150.301193 228.309892 
L 150.576909 228.694808 
L 150.716235 229.089208 
L 150.716235 229.486792 
L 150.576909 229.881192 
L 150.301193 230.266108 
L 149.366594 230.983412 
L 147.99082 231.59456 
L 146.289255 232.064314 
L 144.404607 232.369291 
L 142.494939 232.49993 
L 140.720411 232.461291 
L 139.22985 232.27263 
L 138.148268 231.965786 
L 137.566375 231.58251 
L 137.479838 231.377118 
L 137.532973 231.170963 
L 138.050865 230.781677 
L 139.076614 230.463318 
L 140.524194 230.2586 
L 142.272197 230.200711 
L 144.174022 230.310521 
L 146.070165 230.594836 
L 147.8016 231.045829 
L 149.223114 231.641691 
L 150.215486 232.348465 
L 150.523115 232.730192 
L 150.695488 233.122889 
L 150.728973 233.52029 
L 150.622864 233.916032 
L 150.379396 234.303785 
L 149.503702 235.030981 
L 148.175334 235.656908 
L 146.505701 236.145084 
L 144.634831 236.470585 
L 142.719633 236.622126 
L 140.92073 236.603015 
L 139.388994 236.43087 
L 138.252889 236.136145 
L 137.607699 235.759575 
L 137.487865 235.555311 
L 137.507535 235.348758 
L 137.666295 235.146283 
L 138.384835 234.778468 
L 139.583225 234.49873 
L 141.160956 234.346547 
L 142.985706 234.350699 
L 144.904437 234.526853 
L 146.756228 234.876252 
L 148.385771 235.385609 
L 149.656399 236.02822 
L 150.461547 236.766207 
L 150.66676 237.156841 
L 150.733689 237.553693 
L 150.660924 237.950412 
L 150.449999 238.340648 
L 149.634271 239.077088 
L 148.354919 239.717265 
L 146.71924 240.223505 
L 144.864415 240.569365 
L 142.946006 240.741857 
L 142.0134 240.763 
L 142.0134 275.188 
L 142.0134 275.188 
" clip-path="url(#pa19e8552bf)" style="fill: none; stroke: #000000; stroke-width: 2; stroke-linecap: round"/>
   </g>
   <g id="line2d_8">
    <path d="M 50.2134 183.388 
L 50.2134 217.813 
L 50.2134 217.813 
M 50.2134 240.763 
L 50.2134 240.763 
L 50.2134 275.188 
" clip-path="url(#pa19e8552bf)" style="fill: none; stroke: #000000; stroke-width: 2; stroke-linecap: round"/>
   </g>
   <g id="line2d_9">
    <path d="M 47.9184 223.5505 
L 52.5084 223.5505 
" clip-path="url(#pa19e8552bf)" style="fill: none; stroke: #000000; stroke-width: 2; stroke-linecap: round"/>
   </g>
   <g id="line2d_10">
    <path d="M 50.2134 232.7305 
L 50.2134 237.3205 
" clip-path="url(#pa19e8552bf)" style="fill: none; stroke: #000000; stroke-width: 2; stroke-linecap: round"/>
   </g>
   <g id="line2d_11">
    <path d="M 47.9184 235.0255 
L 52.5084 235.0255 
" clip-path="url(#pa19e8552bf)" style="fill: none; stroke: #000000; stroke-width: 2; stroke-linecap: round"/>
   </g>
   <g id="line2d_12">
    <path d="M 50.2134 275.188 
L 107.6139 275.188 
L 165.0144 275.188 
" clip-path="url(#pa19e8552bf)" style="fill: none; stroke: #000000; stroke-width: 2; stroke-linecap: round"/>
   </g>
   <g id="line2d_13">
    <path d="M 165.0144 275.188 
L 165.0144 287.428 
L 157.3644 287.428 
L 172.6644 287.428 
M 159.6594 291.1 
L 170.3694 291.1 
M 163.4844 294.772 
L 166.5444 294.772 
" clip-path="url(#pa19e8552bf)" style="fill: none; stroke: #000000; stroke-width: 2; stroke-linecap: round"/>
   </g>
   <g id="line2d_14">
    <path d="M 165.0144 275.188 
L 165.0144 239.947 
L 165.0144 204.706 
" clip-path="url(#pa19e8552bf)" style="fill: none; stroke: #000000; stroke-width: 2; stroke-linecap: round"/>
   </g>
   <g id="line2d_15">
    <path d="M 165.0144 162.07 
L 165.0144 150.595 
L 165.0144 139.12 
" clip-path="url(#pa19e8552bf)" style="fill: none; stroke: #000000; stroke-width: 2; stroke-linecap: round"/>
   </g>
   <g id="line2d_16">
    <path d="M 165.0144 139.12 
L 165.0144 95.974 
M 157.3644 95.974 
L 172.6644 95.974 
M 157.3644 90.466 
L 172.6644 90.466 
M 165.0144 90.466 
L 165.0144 47.32 
" clip-path="url(#pa19e8552bf)" style="fill: none; stroke: #000000; stroke-width: 2; stroke-linecap: round"/>
   </g>
   <g id="line2d_17">
    <path d="M 165.0144 139.12 
L 184.1394 139.12 
L 203.2644 139.12 
" clip-path="url(#pa19e8552bf)" style="fill: none; stroke: #000000; stroke-width: 2; stroke-linecap: round"/>
   </g>
   <g id="line2d_18">
    <path d="M 215.5044 65.68 
L 215.5044 139.12 
" clip-path="url(#pa19e8552bf)" style="fill: none; stroke: #000000; stroke-width: 2; stroke-linecap: round"/>
   </g>
   <g id="line2d_19">
    <path d="M 221.6244 65.68 
L 221.6244 139.12 
" clip-path="url(#pa19e8552bf)" style="fill: none; stroke: #000000; stroke-width: 2; stroke-linecap: round"/>
   </g>
   <g id="line2d_20">
    <path d="M 203.2644 65.68 
L 184.1394 65.68 
L 165.0144 65.68 
" clip-path="url(#pa19e8552bf)" style="fill: none; stroke: #000000; stroke-width: 2; stroke-linecap: round"/>
   </g>
   <g id="line2d_21">
    <path d="M 233.8644 77.92 
L 260.6394 77.92 
L 287.4144 77.92 
" clip-path="url(#pa19e8552bf)" style="fill: none; stroke: #000000; stroke-width: 2; stroke-linecap: round"/>
   </g>
   <g id="line2d_22">
    <path d="M 233.8644 126.88 
L 245.3394 126.88 
L 256.8144 126.88 
" clip-path="url(#pa19e8552bf)" style="fill: none; stroke: #000000; stroke-width: 2; stroke-linecap: round"/>
   </g>
   <g id="line2d_23">
    <path d="M 256.8144 126.88 
L 256.8144 139.12 
L 249.1644 139.12 
L 264.4644 139.12 
M 251.4594 142.792 
L 262.1694 142.792 
M 255.2844 146.464 
L 258.3444 146.464 
" clip-path="url(#pa19e8552bf)" style="fill: none; stroke: #000000; stroke-width: 2; stroke-linecap: round"/>
   </g>
   <g id="line2d_24">
    <path d="M 165.0144 47.32 
L 165.0144 35.08 
" clip-path="url(#pa19e8552bf)" style="fill: none; stroke: #000000; stroke-width: 2; stroke-linecap: round"/>
   </g>
   <g id="line2d_25">
    <path d="M 165.0144 35.08 
L 159.2769 35.08 
" clip-path="url(#pa19e8552bf)" style="fill: none; stroke: #000000; stroke-width: 2; stroke-linecap: round"/>
   </g>
   <g id="line2d_26">
    <path d="M 165.0144 35.08 
L 170.7519 35.08 
" clip-path="url(#pa19e8552bf)" style="fill: none; stroke: #000000; stroke-width: 2; stroke-linecap: round"/>
   </g>
   <g id="text_1">
    <g clip-path="url(#pa19e8552bf)">
     <!-- $C_{in}$ -->
     <g transform="translate(87.5509 170.078391)scale(0.125 -0.125)">
      <defs>
       <path id="DejaVuSans-Oblique-43" d="M 4447 4306 
L 4319 3641 
Q 4019 3944 3683 4091 
Q 3347 4238 2956 4238 
Q 2422 4238 2017 3981 
Q 1613 3725 1319 3200 
Q 1131 2863 1032 2486 
Q 934 2109 934 1728 
Q 934 1091 1264 756 
Q 1594 422 2222 422 
Q 2656 422 3056 561 
Q 3456 700 3834 978 
L 3688 231 
Q 3316 72 2936 -9 
Q 2556 -91 2175 -91 
Q 1278 -91 773 396 
Q 269 884 269 1753 
Q 269 2309 461 2846 
Q 653 3384 1013 3828 
Q 1394 4300 1883 4525 
Q 2372 4750 3022 4750 
Q 3422 4750 3780 4639 
Q 4138 4528 4447 4306 
z
" transform="scale(0.015625)"/>
       <path id="DejaVuSans-Oblique-69" d="M 1172 4863 
L 1747 4863 
L 1606 4134 
L 1031 4134 
L 1172 4863 
z
M 909 3500 
L 1484 3500 
L 800 0 
L 225 0 
L 909 3500 
z
" transform="scale(0.015625)"/>
       <path id="DejaVuSans-Oblique-6e" d="M 3566 2113 
L 3156 0 
L 2578 0 
L 2988 2091 
Q 3016 2238 3031 2350 
Q 3047 2463 3047 2528 
Q 3047 2791 2881 2937 
Q 2716 3084 2419 3084 
Q 1956 3084 1622 2776 
Q 1288 2469 1184 1941 
L 800 0 
L 225 0 
L 903 3500 
L 1478 3500 
L 1363 2950 
Q 1603 3253 1940 3418 
Q 2278 3584 2650 3584 
Q 3113 3584 3367 3334 
Q 3622 3084 3622 2631 
Q 3622 2519 3608 2391 
Q 3594 2263 3566 2113 
z
" transform="scale(0.015625)"/>
      </defs>
      <use xlink:href="#DejaVuSans-Oblique-43" transform="translate(0 0.78125)"/>
      <use xlink:href="#DejaVuSans-Oblique-69" transform="translate(69.824219 -15.625)scale(0.7)"/>
      <use xlink:href="#DejaVuSans-Oblique-6e" transform="translate(89.272461 -15.625)scale(0.7)"/>
     </g>
    </g>
   </g>
   <g id="text_2">
    <g clip-path="url(#pa19e8552bf)">
     <!-- $L_{in}$ -->
     <g transform="translate(119.809838 232.737219)scale(0.125 -0.125)">
      <defs>
       <path id="DejaVuSans-Oblique-4c" d="M 1075 4666 
L 1709 4666 
L 909 525 
L 3181 525 
L 3078 0 
L 172 0 
L 1075 4666 
z
" transform="scale(0.015625)"/>
      </defs>
      <use xlink:href="#DejaVuSans-Oblique-4c" transform="translate(0 0.09375)"/>
      <use xlink:href="#DejaVuSans-Oblique-69" transform="translate(55.712891 -16.3125)scale(0.7)"/>
      <use xlink:href="#DejaVuSans-Oblique-6e" transform="translate(75.161133 -16.3125)scale(0.7)"/>
     </g>
    </g>
   </g>
   <g id="text_3">
    <g clip-path="url(#pa19e8552bf)">
     <!-- $V_{in}$ -->
     <g transform="translate(19.5684 232.737219)scale(0.125 -0.125)">
      <defs>
       <path id="DejaVuSans-Oblique-56" d="M 1319 0 
L 500 4666 
L 1119 4666 
L 1797 653 
L 4063 4666 
L 4750 4666 
L 2053 0 
L 1319 0 
z
" transform="scale(0.015625)"/>
      </defs>
      <use xlink:href="#DejaVuSans-Oblique-56" transform="translate(0 0.09375)"/>
      <use xlink:href="#DejaVuSans-Oblique-69" transform="translate(68.408203 -16.3125)scale(0.7)"/>
      <use xlink:href="#DejaVuSans-Oblique-6e" transform="translate(87.856445 -16.3125)scale(0.7)"/>
     </g>
    </g>
   </g>
   <g id="text_4">
    <g clip-path="url(#pa19e8552bf)">
     <!-- $C_1$ -->
     <g transform="translate(139.5544 96.669219)scale(0.125 -0.125)">
      <defs>
       <path id="DejaVuSans-31" d="M 794 531 
L 1825 531 
L 1825 4091 
L 703 3866 
L 703 4441 
L 1819 4666 
L 2450 4666 
L 2450 531 
L 3481 531 
L 3481 0 
L 794 0 
L 794 531 
z
" transform="scale(0.015625)"/>
      </defs>
      <use xlink:href="#DejaVuSans-Oblique-43" transform="translate(0 0.78125)"/>
      <use xlink:href="#DejaVuSans-31" transform="translate(69.824219 -15.625)scale(0.7)"/>
     </g>
    </g>
   </g>
   <g id="text_5">
    <g clip-path="url(#pa19e8552bf)">
     <!-- $V_{dd}$ -->
     <g transform="translate(154.9519 29.420391)scale(0.125 -0.125)">
      <defs>
       <path id="DejaVuSans-Oblique-64" d="M 2675 525 
Q 2444 222 2128 65 
Q 1813 -91 1428 -91 
Q 903 -91 598 267 
Q 294 625 294 1247 
Q 294 1766 478 2236 
Q 663 2706 1013 3078 
Q 1244 3325 1534 3454 
Q 1825 3584 2144 3584 
Q 2481 3584 2739 3421 
Q 2997 3259 3138 2956 
L 3513 4863 
L 4091 4863 
L 3144 0 
L 2566 0 
L 2675 525 
z
M 891 1350 
Q 891 897 1095 644 
Q 1300 391 1663 391 
Q 1931 391 2161 520 
Q 2391 650 2566 903 
Q 2750 1166 2856 1509 
Q 2963 1853 2963 2188 
Q 2963 2622 2758 2865 
Q 2553 3109 2194 3109 
Q 1922 3109 1687 2981 
Q 1453 2853 1288 2613 
Q 1106 2353 998 2009 
Q 891 1666 891 1350 
z
" transform="scale(0.015625)"/>
      </defs>
      <use xlink:href="#DejaVuSans-Oblique-56" transform="translate(0 0.09375)"/>
      <use xlink:href="#DejaVuSans-Oblique-64" transform="translate(68.408203 -16.3125)scale(0.7)"/>
      <use xlink:href="#DejaVuSans-Oblique-64" transform="translate(112.841797 -16.3125)scale(0.7)"/>
     </g>
    </g>
   </g>
   <g id="patch_14">
    <path d="M 165.0144 141.415 
C 165.623041 141.415 166.206836 141.173184 166.63721 140.74281 
C 167.067584 140.312436 167.3094 139.728641 167.3094 139.12 
C 167.3094 138.511359 167.067584 137.927564 166.63721 137.49719 
C 166.206836 137.066816 165.623041 136.825 165.0144 136.825 
C 164.405759 136.825 163.821964 137.066816 163.39159 137.49719 
C 162.961216 137.927564 162.7194 138.511359 162.7194 139.12 
C 162.7194 139.728641 162.961216 140.312436 163.39159 140.74281 
C 163.821964 141.173184 164.405759 141.415 165.0144 141.415 
z
" clip-path="url(#pa19e8552bf)" style="stroke: #000000; stroke-width: 2; stroke-linejoin: miter"/>
   </g>
   <g id="patch_15">
    <path d="M 165.0144 67.975 
C 165.623041 67.975 166.206836 67.733184 166.63721 67.30281 
C 167.067584 66.872436 167.3094 66.288641 167.3094 65.68 
C 167.3094 65.071359 167.067584 64.487564 166.63721 64.05719 
C 166.206836 63.626816 165.623041 63.385 165.0144 63.385 
C 164.405759 63.385 163.821964 63.626816 163.39159 64.05719 
C 162.961216 64.487564 162.7194 65.071359 162.7194 65.68 
C 162.7194 66.288641 162.961216 66.872436 163.39159 67.30281 
C 163.821964 67.733184 164.405759 67.975 165.0144 67.975 
z
" clip-path="url(#pa19e8552bf)" style="stroke: #000000; stroke-width: 2; stroke-linejoin: miter"/>
   </g>
   <g id="patch_16">
    <path d="M 287.4144 80.215 
C 288.023041 80.215 288.606836 79.973184 289.03721 79.54281 
C 289.467584 79.112436 289.7094 78.528641 289.7094 77.92 
C 289.7094 77.311359 289.467584 76.727564 289.03721 76.29719 
C 288.606836 75.866816 288.023041 75.625 287.4144 75.625 
C 286.805759 75.625 286.221964 75.866816 285.79159 76.29719 
C 285.361216 76.727564 285.1194 77.311359 285.1194 77.92 
C 285.1194 78.528641 285.361216 79.112436 285.79159 79.54281 
C 286.221964 79.973184 286.805759 80.215 287.4144 80.215 
z
" clip-path="url(#pa19e8552bf)" style="fill: #ffffff; stroke: #000000; stroke-width: 2; stroke-linejoin: miter"/>
   </g>
   <g id="text_6">
    <g clip-path="url(#pa19e8552bf)">
     <!-- $v_{out}$ -->
     <g transform="translate(292.7694 81.369219)scale(0.125 -0.125)">
      <defs>
       <path id="DejaVuSans-Oblique-76" d="M 459 3500 
L 1069 3500 
L 1581 525 
L 3256 3500 
L 3866 3500 
L 1875 0 
L 1100 0 
L 459 3500 
z
" transform="scale(0.015625)"/>
       <path id="DejaVuSans-Oblique-6f" d="M 1625 -91 
Q 1009 -91 651 289 
Q 294 669 294 1325 
Q 294 1706 417 2101 
Q 541 2497 738 2766 
Q 1047 3184 1428 3384 
Q 1809 3584 2291 3584 
Q 2888 3584 3255 3212 
Q 3622 2841 3622 2241 
Q 3622 1825 3500 1412 
Q 3378 1000 3181 728 
Q 2875 309 2494 109 
Q 2113 -91 1625 -91 
z
M 891 1344 
Q 891 869 1089 633 
Q 1288 397 1691 397 
Q 2269 397 2648 901 
Q 3028 1406 3028 2181 
Q 3028 2634 2825 2865 
Q 2622 3097 2228 3097 
Q 1903 3097 1650 2945 
Q 1397 2794 1197 2484 
Q 1050 2253 970 1956 
Q 891 1659 891 1344 
z
" transform="scale(0.015625)"/>
       <path id="DejaVuSans-Oblique-75" d="M 428 1388 
L 838 3500 
L 1416 3500 
L 1006 1409 
Q 975 1256 961 1147 
Q 947 1038 947 966 
Q 947 700 1109 554 
Q 1272 409 1569 409 
Q 2031 409 2368 721 
Q 2706 1034 2809 1563 
L 3194 3500 
L 3769 3500 
L 3091 0 
L 2516 0 
L 2631 550 
Q 2388 244 2052 76 
Q 1716 -91 1338 -91 
Q 878 -91 622 161 
Q 366 413 366 863 
Q 366 956 381 1097 
Q 397 1238 428 1388 
z
" transform="scale(0.015625)"/>
       <path id="DejaVuSans-Oblique-74" d="M 2706 3500 
L 2619 3053 
L 1472 3053 
L 1100 1153 
Q 1081 1047 1072 975 
Q 1063 903 1063 863 
Q 1063 663 1183 572 
Q 1303 481 1569 481 
L 2150 481 
L 2053 0 
L 1503 0 
Q 991 0 739 200 
Q 488 400 488 806 
Q 488 878 497 964 
Q 506 1050 525 1153 
L 897 3053 
L 409 3053 
L 500 3500 
L 978 3500 
L 1172 4494 
L 1747 4494 
L 1556 3500 
L 2706 3500 
z
" transform="scale(0.015625)"/>
      </defs>
      <use xlink:href="#DejaVuSans-Oblique-76" transform="translate(0 0.3125)"/>
      <use xlink:href="#DejaVuSans-Oblique-6f" transform="translate(59.179688 -16.09375)scale(0.7)"/>
      <use xlink:href="#DejaVuSans-Oblique-75" transform="translate(102.006836 -16.09375)scale(0.7)"/>
      <use xlink:href="#DejaVuSans-Oblique-74" transform="translate(146.37207 -16.09375)scale(0.7)"/>
     </g>
    </g>
   </g>
  </g>
 </g>
 <defs>
  <clipPath id="pa19e8552bf">
   <rect x="7.2" y="7.2" width="326.7162" height="290.632"/>
  </clipPath>
 </defs>
</svg>