<?xml version="1.0" encoding="utf-8" standalone="no"?>
<!DOCTYPE svg PUBLIC "-//W3C//DTD SVG 1.1//EN"
  "http://www.w3.org/Graphics/SVG/1.1/DTD/svg11.dtd">
<svg xmlns:xlink="http://www.w3.org/1999/xlink" width="320.117286pt" height="239.869656pt" viewBox="0 0 320.117286 239.869656" xmlns="http://www.w3.org/2000/svg" version="1.1">
 <metadata>
  <rdf:RDF xmlns:dc="http://purl.org/dc/elements/1.1/" xmlns:cc="http://creativecommons.org/ns#" xmlns:rdf="http://www.w3.org/1999/02/22-rdf-syntax-ns#">
   <cc:Work>
    <dc:type rdf:resource="http://purl.org/dc/dcmitype/StillImage"/>
    <dc:date>2023-11-12T23:45:25.203662</dc:date>
    <dc:format>image/svg+xml</dc:format>
    <dc:creator>
     <cc:Agent>
      <dc:title>Matplotlib v3.8.0, https://matplotlib.org/</dc:title>
     </cc:Agent>
    </dc:creator>
   </cc:Work>
  </rdf:RDF>
 </metadata>
 <defs>
  <style type="text/css">*{stroke-linejoin: round; stroke-linecap: butt}</style>
 </defs>
 <g id="figure_1">
  <g id="patch_1">
   <path d="M 0 239.869656 
L 320.117286 239.869656 
L 320.117286 0 
L 0 0 
z
" style="fill: #ffffff"/>
  </g>
  <g id="axes_1">
   <g id="line2d_1">
    <path d="M 176.4 158.797656 
L 176.4 113.797656 
L 254.342286 158.797656 
L 176.4 203.797656 
L 176.4 158.797656 
M 254.342286 158.797656 
" clip-path="url(#pac7cbb729b)" style="fill: none; stroke: #000000; stroke-width: 2; stroke-linecap: round"/>
   </g>
   <g id="line2d_2">
    <path d="M 182.542786 136.297656 
L 189.742786 136.297656 
" clip-path="url(#pac7cbb729b)" style="fill: none; stroke: #000000; stroke-width: 2; stroke-linecap: round"/>
   </g>
   <g id="line2d_3">
    <path d="M 182.542786 181.297656 
L 189.742786 181.297656 
" clip-path="url(#pac7cbb729b)" style="fill: none; stroke: #000000; stroke-width: 2; stroke-linecap: round"/>
   </g>
   <g id="line2d_4">
    <path d="M 186.142786 184.897656 
L 186.142786 177.697656 
" clip-path="url(#pac7cbb729b)" style="fill: none; stroke: #000000; stroke-width: 2; stroke-linecap: round"/>
   </g>
   <g id="line2d_5">
    <path d="M 176.4 181.297656 
L 162.9 181.297656 
L 149.4 181.297656 
" clip-path="url(#pac7cbb729b)" style="fill: none; stroke: #000000; stroke-width: 2; stroke-linecap: round"/>
   </g>
   <g id="line2d_6">
    <path d="M 149.4 181.297656 
L 149.4 192.097656 
L 149.4 202.897656 
" clip-path="url(#pac7cbb729b)" style="fill: none; stroke: #000000; stroke-width: 2; stroke-linecap: round"/>
   </g>
   <g id="line2d_7">
    <path d="M 149.4 202.897656 
L 149.4 217.297656 
L 140.4 217.297656 
L 158.4 217.297656 
M 143.1 221.617656 
L 155.7 221.617656 
M 147.6 225.937656 
L 151.2 225.937656 
" clip-path="url(#pac7cbb729b)" style="fill: none; stroke: #000000; stroke-width: 2; stroke-linecap: round"/>
   </g>
   <g id="line2d_8">
    <path d="M 176.4 136.297656 
L 167.4 136.297656 
L 158.4 136.297656 
" clip-path="url(#pac7cbb729b)" style="fill: none; stroke: #000000; stroke-width: 2; stroke-linecap: round"/>
   </g>
   <g id="line2d_9">
    <path d="M 158.4 136.297656 
L 122.4 136.297656 
L 119.4 145.297656 
L 113.4 127.297656 
L 107.4 145.297656 
L 101.4 127.297656 
L 95.4 145.297656 
L 89.4 127.297656 
L 86.4 136.297656 
L 50.4 136.297656 
" clip-path="url(#pac7cbb729b)" style="fill: none; stroke: #000000; stroke-width: 2; stroke-linecap: round"/>
   </g>
   <g id="line2d_10">
    <path d="M 50.4 136.297656 
L 41.4 136.297656 
L 32.4 136.297656 
" clip-path="url(#pac7cbb729b)" style="fill: none; stroke: #000000; stroke-width: 2; stroke-linecap: round"/>
   </g>
   <g id="line2d_11">
    <path d="M 158.4 136.297656 
L 158.4 109.297656 
L 158.4 82.297656 
" clip-path="url(#pac7cbb729b)" style="fill: none; stroke: #000000; stroke-width: 2; stroke-linecap: round"/>
   </g>
   <g id="line2d_12">
    <path d="M 158.4 82.297656 
L 194.4 82.297656 
L 197.4 73.297656 
L 203.4 91.297656 
L 209.4 73.297656 
L 215.4 91.297656 
L 221.4 73.297656 
L 227.4 91.297656 
L 230.4 82.297656 
L 266.4 82.297656 
" clip-path="url(#pac7cbb729b)" style="fill: none; stroke: #000000; stroke-width: 2; stroke-linecap: round"/>
   </g>
   <g id="line2d_13">
    <path d="M 158.4 82.297656 
L 158.4 55.297656 
L 158.4 28.297656 
" clip-path="url(#pac7cbb729b)" style="fill: none; stroke: #000000; stroke-width: 2; stroke-linecap: round"/>
   </g>
   <g id="line2d_14">
    <path d="M 158.4 28.297656 
L 209.16 28.297656 
M 209.16 19.297656 
L 209.16 37.297656 
M 215.64 19.297656 
L 215.64 37.297656 
M 215.64 28.297656 
L 266.4 28.297656 
" clip-path="url(#pac7cbb729b)" style="fill: none; stroke: #000000; stroke-width: 2; stroke-linecap: round"/>
   </g>
   <g id="line2d_15">
    <path d="M 266.4 28.297656 
L 266.4 93.547656 
L 266.4 158.797656 
" clip-path="url(#pac7cbb729b)" style="fill: none; stroke: #000000; stroke-width: 2; stroke-linecap: round"/>
   </g>
   <g id="line2d_16">
    <path d="M 266.4 158.797656 
L 260.371143 158.797656 
L 254.342286 158.797656 
" clip-path="url(#pac7cbb729b)" style="fill: none; stroke: #000000; stroke-width: 2; stroke-linecap: round"/>
   </g>
   <g id="line2d_17">
    <path d="M 254.342286 158.797656 
L 267.842286 158.797656 
L 281.342286 158.797656 
" clip-path="url(#pac7cbb729b)" style="fill: none; stroke: #000000; stroke-width: 2; stroke-linecap: round"/>
   </g>
   <g id="text_1">
    <!-- 19.89k$\Omega$ -->
    <g transform="translate(78.275 158.395703) scale(0.125 -0.125)">
     <defs>
      <path id="DejaVuSans-31" d="M 794 531 
L 1825 531 
L 1825 4091 
L 703 3866 
L 703 4441 
L 1819 4666 
L 2450 4666 
L 2450 531 
L 3481 531 
L 3481 0 
L 794 0 
L 794 531 
z
" transform="scale(0.015625)"/>
      <path id="DejaVuSans-39" d="M 703 97 
L 703 672 
Q 941 559 1184 500 
Q 1428 441 1663 441 
Q 2288 441 2617 861 
Q 2947 1281 2994 2138 
Q 2813 1869 2534 1725 
Q 2256 1581 1919 1581 
Q 1219 1581 811 2004 
Q 403 2428 403 3163 
Q 403 3881 828 4315 
Q 1253 4750 1959 4750 
Q 2769 4750 3195 4129 
Q 3622 3509 3622 2328 
Q 3622 1225 3098 567 
Q 2575 -91 1691 -91 
Q 1453 -91 1209 -44 
Q 966 3 703 97 
z
M 1959 2075 
Q 2384 2075 2632 2365 
Q 2881 2656 2881 3163 
Q 2881 3666 2632 3958 
Q 2384 4250 1959 4250 
Q 1534 4250 1286 3958 
Q 1038 3666 1038 3163 
Q 1038 2656 1286 2365 
Q 1534 2075 1959 2075 
z
" transform="scale(0.015625)"/>
      <path id="DejaVuSans-2e" d="M 684 794 
L 1344 794 
L 1344 0 
L 684 0 
L 684 794 
z
" transform="scale(0.015625)"/>
      <path id="DejaVuSans-38" d="M 2034 2216 
Q 1584 2216 1326 1975 
Q 1069 1734 1069 1313 
Q 1069 891 1326 650 
Q 1584 409 2034 409 
Q 2484 409 2743 651 
Q 3003 894 3003 1313 
Q 3003 1734 2745 1975 
Q 2488 2216 2034 2216 
z
M 1403 2484 
Q 997 2584 770 2862 
Q 544 3141 544 3541 
Q 544 4100 942 4425 
Q 1341 4750 2034 4750 
Q 2731 4750 3128 4425 
Q 3525 4100 3525 3541 
Q 3525 3141 3298 2862 
Q 3072 2584 2669 2484 
Q 3125 2378 3379 2068 
Q 3634 1759 3634 1313 
Q 3634 634 3220 271 
Q 2806 -91 2034 -91 
Q 1263 -91 848 271 
Q 434 634 434 1313 
Q 434 1759 690 2068 
Q 947 2378 1403 2484 
z
M 1172 3481 
Q 1172 3119 1398 2916 
Q 1625 2713 2034 2713 
Q 2441 2713 2670 2916 
Q 2900 3119 2900 3481 
Q 2900 3844 2670 4047 
Q 2441 4250 2034 4250 
Q 1625 4250 1398 4047 
Q 1172 3844 1172 3481 
z
" transform="scale(0.015625)"/>
      <path id="DejaVuSans-6b" d="M 581 4863 
L 1159 4863 
L 1159 1991 
L 2875 3500 
L 3609 3500 
L 1753 1863 
L 3688 0 
L 2938 0 
L 1159 1709 
L 1159 0 
L 581 0 
L 581 4863 
z
" transform="scale(0.015625)"/>
      <path id="DejaVuSans-3a9" d="M 4647 556 
L 4647 0 
L 2772 0 
L 2772 556 
Q 3325 859 3634 1378 
Q 3944 1897 3944 2528 
Q 3944 3278 3531 3731 
Q 3119 4184 2444 4184 
Q 1769 4184 1355 3729 
Q 941 3275 941 2528 
Q 941 1897 1250 1378 
Q 1563 859 2119 556 
L 2119 0 
L 244 0 
L 244 556 
L 1241 556 
Q 747 991 519 1456 
Q 294 1922 294 2497 
Q 294 3491 894 4106 
Q 1491 4722 2444 4722 
Q 3391 4722 3994 4106 
Q 4594 3494 4594 2528 
Q 4594 1922 4372 1459 
Q 4150 997 3647 556 
L 4647 556 
z
" transform="scale(0.015625)"/>
     </defs>
     <use xlink:href="#DejaVuSans-31" transform="translate(0 0.015625)"/>
     <use xlink:href="#DejaVuSans-39" transform="translate(63.623047 0.015625)"/>
     <use xlink:href="#DejaVuSans-2e" transform="translate(127.246094 0.015625)"/>
     <use xlink:href="#DejaVuSans-38" transform="translate(156.408203 0.015625)"/>
     <use xlink:href="#DejaVuSans-39" transform="translate(220.03125 0.015625)"/>
     <use xlink:href="#DejaVuSans-6b" transform="translate(283.654297 0.015625)"/>
     <use xlink:href="#DejaVuSans-3a9" transform="translate(341.564453 0.015625)"/>
    </g>
   </g>
   <g id="text_2">
    <!-- 9.95k$\Omega$ -->
    <g transform="translate(190.0875 67.098047) scale(0.125 -0.125)">
     <defs>
      <path id="DejaVuSans-35" d="M 691 4666 
L 3169 4666 
L 3169 4134 
L 1269 4134 
L 1269 2991 
Q 1406 3038 1543 3061 
Q 1681 3084 1819 3084 
Q 2600 3084 3056 2656 
Q 3513 2228 3513 1497 
Q 3513 744 3044 326 
Q 2575 -91 1722 -91 
Q 1428 -91 1123 -41 
Q 819 9 494 109 
L 494 744 
Q 775 591 1075 516 
Q 1375 441 1709 441 
Q 2250 441 2565 725 
Q 2881 1009 2881 1497 
Q 2881 1984 2565 2268 
Q 2250 2553 1709 2553 
Q 1456 2553 1204 2497 
Q 953 2441 691 2322 
L 691 4666 
z
" transform="scale(0.015625)"/>
     </defs>
     <use xlink:href="#DejaVuSans-39" transform="translate(0 0.015625)"/>
     <use xlink:href="#DejaVuSans-2e" transform="translate(63.623047 0.015625)"/>
     <use xlink:href="#DejaVuSans-39" transform="translate(95.410156 0.015625)"/>
     <use xlink:href="#DejaVuSans-35" transform="translate(159.033203 0.015625)"/>
     <use xlink:href="#DejaVuSans-6b" transform="translate(222.65625 0.015625)"/>
     <use xlink:href="#DejaVuSans-3a9" transform="translate(280.566406 0.015625)"/>
    </g>
   </g>
   <g id="text_3">
    <!-- 16.00pF -->
    <g transform="translate(186.944922 13.098047) scale(0.125 -0.125)">
     <defs>
      <path id="DejaVuSans-36" d="M 2113 2584 
Q 1688 2584 1439 2293 
Q 1191 2003 1191 1497 
Q 1191 994 1439 701 
Q 1688 409 2113 409 
Q 2538 409 2786 701 
Q 3034 994 3034 1497 
Q 3034 2003 2786 2293 
Q 2538 2584 2113 2584 
z
M 3366 4563 
L 3366 3988 
Q 3128 4100 2886 4159 
Q 2644 4219 2406 4219 
Q 1781 4219 1451 3797 
Q 1122 3375 1075 2522 
Q 1259 2794 1537 2939 
Q 1816 3084 2150 3084 
Q 2853 3084 3261 2657 
Q 3669 2231 3669 1497 
Q 3669 778 3244 343 
Q 2819 -91 2113 -91 
Q 1303 -91 875 529 
Q 447 1150 447 2328 
Q 447 3434 972 4092 
Q 1497 4750 2381 4750 
Q 2619 4750 2861 4703 
Q 3103 4656 3366 4563 
z
" transform="scale(0.015625)"/>
      <path id="DejaVuSans-30" d="M 2034 4250 
Q 1547 4250 1301 3770 
Q 1056 3291 1056 2328 
Q 1056 1369 1301 889 
Q 1547 409 2034 409 
Q 2525 409 2770 889 
Q 3016 1369 3016 2328 
Q 3016 3291 2770 3770 
Q 2525 4250 2034 4250 
z
M 2034 4750 
Q 2819 4750 3233 4129 
Q 3647 3509 3647 2328 
Q 3647 1150 3233 529 
Q 2819 -91 2034 -91 
Q 1250 -91 836 529 
Q 422 1150 422 2328 
Q 422 3509 836 4129 
Q 1250 4750 2034 4750 
z
" transform="scale(0.015625)"/>
      <path id="DejaVuSans-70" d="M 1159 525 
L 1159 -1331 
L 581 -1331 
L 581 3500 
L 1159 3500 
L 1159 2969 
Q 1341 3281 1617 3432 
Q 1894 3584 2278 3584 
Q 2916 3584 3314 3078 
Q 3713 2572 3713 1747 
Q 3713 922 3314 415 
Q 2916 -91 2278 -91 
Q 1894 -91 1617 61 
Q 1341 213 1159 525 
z
M 3116 1747 
Q 3116 2381 2855 2742 
Q 2594 3103 2138 3103 
Q 1681 3103 1420 2742 
Q 1159 2381 1159 1747 
Q 1159 1113 1420 752 
Q 1681 391 2138 391 
Q 2594 391 2855 752 
Q 3116 1113 3116 1747 
z
" transform="scale(0.015625)"/>
      <path id="DejaVuSans-46" d="M 628 4666 
L 3309 4666 
L 3309 4134 
L 1259 4134 
L 1259 2759 
L 3109 2759 
L 3109 2228 
L 1259 2228 
L 1259 0 
L 628 0 
L 628 4666 
z
" transform="scale(0.015625)"/>
     </defs>
     <use xlink:href="#DejaVuSans-31"/>
     <use xlink:href="#DejaVuSans-36" x="63.623047"/>
     <use xlink:href="#DejaVuSans-2e" x="127.246094"/>
     <use xlink:href="#DejaVuSans-30" x="159.033203"/>
     <use xlink:href="#DejaVuSans-30" x="222.65625"/>
     <use xlink:href="#DejaVuSans-70" x="286.279297"/>
     <use xlink:href="#DejaVuSans-46" x="349.755859"/>
    </g>
   </g>
   <g id="patch_2">
    <path d="M 158.4 138.997656 
C 159.116048 138.997656 159.802866 138.713167 160.309188 138.206845 
C 160.815511 137.700522 161.1 137.013705 161.1 136.297656 
C 161.1 135.581608 160.815511 134.894791 160.309188 134.388468 
C 159.802866 133.882145 159.116048 133.597656 158.4 133.597656 
C 157.683952 133.597656 156.997134 133.882145 156.490812 134.388468 
C 155.984489 134.894791 155.7 135.581608 155.7 136.297656 
C 155.7 137.013705 155.984489 137.700522 156.490812 138.206845 
C 156.997134 138.713167 157.683952 138.997656 158.4 138.997656 
z
" clip-path="url(#pac7cbb729b)" style="stroke: #000000; stroke-width: 2; stroke-linejoin: miter"/>
   </g>
   <g id="patch_3">
    <path d="M 32.4 138.997656 
C 33.116048 138.997656 33.802866 138.713167 34.309188 138.206845 
C 34.815511 137.700522 35.1 137.013705 35.1 136.297656 
C 35.1 135.581608 34.815511 134.894791 34.309188 134.388468 
C 33.802866 133.882145 33.116048 133.597656 32.4 133.597656 
C 31.683952 133.597656 30.997134 133.882145 30.490812 134.388468 
C 29.984489 134.894791 29.7 135.581608 29.7 136.297656 
C 29.7 137.013705 29.984489 137.700522 30.490812 138.206845 
C 30.997134 138.713167 31.683952 138.997656 32.4 138.997656 
z
" clip-path="url(#pac7cbb729b)" style="fill: #ffffff; stroke: #000000; stroke-width: 2; stroke-linejoin: miter"/>
   </g>
   <g id="text_4">
    <!-- $V_{2in}$ -->
    <g transform="translate(3.6 139.746875) scale(0.125 -0.125)">
     <defs>
      <path id="DejaVuSans-Oblique-56" d="M 1319 0 
L 500 4666 
L 1119 4666 
L 1797 653 
L 4063 4666 
L 4750 4666 
L 2053 0 
L 1319 0 
z
" transform="scale(0.015625)"/>
      <path id="DejaVuSans-32" d="M 1228 531 
L 3431 531 
L 3431 0 
L 469 0 
L 469 531 
Q 828 903 1448 1529 
Q 2069 2156 2228 2338 
Q 2531 2678 2651 2914 
Q 2772 3150 2772 3378 
Q 2772 3750 2511 3984 
Q 2250 4219 1831 4219 
Q 1534 4219 1204 4116 
Q 875 4013 500 3803 
L 500 4441 
Q 881 4594 1212 4672 
Q 1544 4750 1819 4750 
Q 2544 4750 2975 4387 
Q 3406 4025 3406 3419 
Q 3406 3131 3298 2873 
Q 3191 2616 2906 2266 
Q 2828 2175 2409 1742 
Q 1991 1309 1228 531 
z
" transform="scale(0.015625)"/>
      <path id="DejaVuSans-Oblique-69" d="M 1172 4863 
L 1747 4863 
L 1606 4134 
L 1031 4134 
L 1172 4863 
z
M 909 3500 
L 1484 3500 
L 800 0 
L 225 0 
L 909 3500 
z
" transform="scale(0.015625)"/>
      <path id="DejaVuSans-Oblique-6e" d="M 3566 2113 
L 3156 0 
L 2578 0 
L 2988 2091 
Q 3016 2238 3031 2350 
Q 3047 2463 3047 2528 
Q 3047 2791 2881 2937 
Q 2716 3084 2419 3084 
Q 1956 3084 1622 2776 
Q 1288 2469 1184 1941 
L 800 0 
L 225 0 
L 903 3500 
L 1478 3500 
L 1363 2950 
Q 1603 3253 1940 3418 
Q 2278 3584 2650 3584 
Q 3113 3584 3367 3334 
Q 3622 3084 3622 2631 
Q 3622 2519 3608 2391 
Q 3594 2263 3566 2113 
z
" transform="scale(0.015625)"/>
     </defs>
     <use xlink:href="#DejaVuSans-Oblique-56" transform="translate(0 0.09375)"/>
     <use xlink:href="#DejaVuSans-32" transform="translate(68.408203 -16.3125) scale(0.7)"/>
     <use xlink:href="#DejaVuSans-Oblique-69" transform="translate(112.944336 -16.3125) scale(0.7)"/>
     <use xlink:href="#DejaVuSans-Oblique-6e" transform="translate(132.392578 -16.3125) scale(0.7)"/>
    </g>
   </g>
   <g id="patch_4">
    <path d="M 158.4 84.997656 
C 159.116048 84.997656 159.802866 84.713167 160.309188 84.206845 
C 160.815511 83.700522 161.1 83.013705 161.1 82.297656 
C 161.1 81.581608 160.815511 80.894791 160.309188 80.388468 
C 159.802866 79.882145 159.116048 79.597656 158.4 79.597656 
C 157.683952 79.597656 156.997134 79.882145 156.490812 80.388468 
C 155.984489 80.894791 155.7 81.581608 155.7 82.297656 
C 155.7 83.013705 155.984489 83.700522 156.490812 84.206845 
C 156.997134 84.713167 157.683952 84.997656 158.4 84.997656 
z
" clip-path="url(#pac7cbb729b)" style="stroke: #000000; stroke-width: 2; stroke-linejoin: miter"/>
   </g>
   <g id="patch_5">
    <path d="M 266.4 84.997656 
C 267.116048 84.997656 267.802866 84.713167 268.309188 84.206845 
C 268.815511 83.700522 269.1 83.013705 269.1 82.297656 
C 269.1 81.581608 268.815511 80.894791 268.309188 80.388468 
C 267.802866 79.882145 267.116048 79.597656 266.4 79.597656 
C 265.683952 79.597656 264.997134 79.882145 264.490812 80.388468 
C 263.984489 80.894791 263.7 81.581608 263.7 82.297656 
C 263.7 83.013705 263.984489 83.700522 264.490812 84.206845 
C 264.997134 84.713167 265.683952 84.997656 266.4 84.997656 
z
" clip-path="url(#pac7cbb729b)" style="stroke: #000000; stroke-width: 2; stroke-linejoin: miter"/>
   </g>
   <g id="patch_6">
    <path d="M 266.4 161.497656 
C 267.116048 161.497656 267.802866 161.213167 268.309188 160.706845 
C 268.815511 160.200522 269.1 159.513705 269.1 158.797656 
C 269.1 158.081608 268.815511 157.394791 268.309188 156.888468 
C 267.802866 156.382145 267.116048 156.097656 266.4 156.097656 
C 265.683952 156.097656 264.997134 156.382145 264.490812 156.888468 
C 263.984489 157.394791 263.7 158.081608 263.7 158.797656 
C 263.7 159.513705 263.984489 160.200522 264.490812 160.706845 
C 264.997134 161.213167 265.683952 161.497656 266.4 161.497656 
z
" clip-path="url(#pac7cbb729b)" style="stroke: #000000; stroke-width: 2; stroke-linejoin: miter"/>
   </g>
   <g id="patch_7">
    <path d="M 281.342286 161.497656 
C 282.058335 161.497656 282.745152 161.213167 283.251475 160.706845 
C 283.757797 160.200522 284.042286 159.513705 284.042286 158.797656 
C 284.042286 158.081608 283.757797 157.394791 283.251475 156.888468 
C 282.745152 156.382145 282.058335 156.097656 281.342286 156.097656 
C 280.626238 156.097656 279.939421 156.382145 279.433098 156.888468 
C 278.926775 157.394791 278.642286 158.081608 278.642286 158.797656 
C 278.642286 159.513705 278.926775 160.200522 279.433098 160.706845 
C 279.939421 161.213167 280.626238 161.497656 281.342286 161.497656 
z
" clip-path="url(#pac7cbb729b)" style="fill: #ffffff; stroke: #000000; stroke-width: 2; stroke-linejoin: miter"/>
   </g>
   <g id="text_5">
    <!-- $V_{2out}$ -->
    <g transform="translate(287.642286 162.246875) scale(0.125 -0.125)">
     <defs>
      <path id="DejaVuSans-Oblique-6f" d="M 1625 -91 
Q 1009 -91 651 289 
Q 294 669 294 1325 
Q 294 1706 417 2101 
Q 541 2497 738 2766 
Q 1047 3184 1428 3384 
Q 1809 3584 2291 3584 
Q 2888 3584 3255 3212 
Q 3622 2841 3622 2241 
Q 3622 1825 3500 1412 
Q 3378 1000 3181 728 
Q 2875 309 2494 109 
Q 2113 -91 1625 -91 
z
M 891 1344 
Q 891 869 1089 633 
Q 1288 397 1691 397 
Q 2269 397 2648 901 
Q 3028 1406 3028 2181 
Q 3028 2634 2825 2865 
Q 2622 3097 2228 3097 
Q 1903 3097 1650 2945 
Q 1397 2794 1197 2484 
Q 1050 2253 970 1956 
Q 891 1659 891 1344 
z
" transform="scale(0.015625)"/>
      <path id="DejaVuSans-Oblique-75" d="M 428 1388 
L 838 3500 
L 1416 3500 
L 1006 1409 
Q 975 1256 961 1147 
Q 947 1038 947 966 
Q 947 700 1109 554 
Q 1272 409 1569 409 
Q 2031 409 2368 721 
Q 2706 1034 2809 1563 
L 3194 3500 
L 3769 3500 
L 3091 0 
L 2516 0 
L 2631 550 
Q 2388 244 2052 76 
Q 1716 -91 1338 -91 
Q 878 -91 622 161 
Q 366 413 366 863 
Q 366 956 381 1097 
Q 397 1238 428 1388 
z
" transform="scale(0.015625)"/>
      <path id="DejaVuSans-Oblique-74" d="M 2706 3500 
L 2619 3053 
L 1472 3053 
L 1100 1153 
Q 1081 1047 1072 975 
Q 1063 903 1063 863 
Q 1063 663 1183 572 
Q 1303 481 1569 481 
L 2150 481 
L 2053 0 
L 1503 0 
Q 991 0 739 200 
Q 488 400 488 806 
Q 488 878 497 964 
Q 506 1050 525 1153 
L 897 3053 
L 409 3053 
L 500 3500 
L 978 3500 
L 1172 4494 
L 1747 4494 
L 1556 3500 
L 2706 3500 
z
" transform="scale(0.015625)"/>
     </defs>
     <use xlink:href="#DejaVuSans-Oblique-56" transform="translate(0 0.09375)"/>
     <use xlink:href="#DejaVuSans-32" transform="translate(68.408203 -16.3125) scale(0.7)"/>
     <use xlink:href="#DejaVuSans-Oblique-6f" transform="translate(112.944336 -16.3125) scale(0.7)"/>
     <use xlink:href="#DejaVuSans-Oblique-75" transform="translate(155.771484 -16.3125) scale(0.7)"/>
     <use xlink:href="#DejaVuSans-Oblique-74" transform="translate(200.136719 -16.3125) scale(0.7)"/>
    </g>
   </g>
  </g>
 </g>
 <defs>
  <clipPath id="pac7cbb729b">
   <rect x="16.982886" y="8.965656" width="279.776515" height="227.304"/>
  </clipPath>
 </defs>
</svg>