<?xml version="1.0" encoding="utf-8" standalone="no"?>
<!DOCTYPE svg PUBLIC "-//W3C//DTD SVG 1.1//EN"
  "http://www.w3.org/Graphics/SVG/1.1/DTD/svg11.dtd">
<svg xmlns:xlink="http://www.w3.org/1999/xlink" width="336.5262pt" height="305.032pt" viewBox="0 0 336.5262 305.032" xmlns="http://www.w3.org/2000/svg" version="1.1">
 <metadata>
  <rdf:RDF xmlns:dc="http://purl.org/dc/elements/1.1/" xmlns:cc="http://creativecommons.org/ns#" xmlns:rdf="http://www.w3.org/1999/02/22-rdf-syntax-ns#">
   <cc:Work>
    <dc:type rdf:resource="http://purl.org/dc/dcmitype/StillImage"/>
    <dc:date>2022-11-04T22:30:53.063359</dc:date>
    <dc:format>image/svg+xml</dc:format>
    <dc:creator>
     <cc:Agent>
      <dc:title>Matplotlib v3.5.3, https://matplotlib.org/</dc:title>
     </cc:Agent>
    </dc:creator>
   </cc:Work>
  </rdf:RDF>
 </metadata>
 <defs>
  <style type="text/css">*{stroke-linejoin: round; stroke-linecap: butt}</style>
 </defs>
 <g id="figure_1">
  <g id="patch_1">
   <path d="M 0 305.032 
L 336.5262 305.032 
L 336.5262 0 
L 0 0 
L 0 305.032 
z
" style="fill: none"/>
  </g>
  <g id="axes_1">
   <g id="patch_2">
    <path d="M 45.6234 236.938 
C 47.652204 236.938 49.598186 236.131948 51.032767 234.697367 
C 52.467348 233.262786 53.2734 231.316804 53.2734 229.288 
C 53.2734 227.259196 52.467348 225.313214 51.032767 223.878633 
C 49.598186 222.444052 47.652204 221.638 45.6234 221.638 
C 43.594596 221.638 41.648614 222.444052 40.214033 223.878633 
C 38.779452 225.313214 37.9734 227.259196 37.9734 229.288 
C 37.9734 231.316804 38.779452 233.262786 40.214033 234.697367 
C 41.648614 236.131948 43.594596 236.938 45.6234 236.938 
L 45.6234 236.938 
z
" clip-path="url(#p1daf2620d5)" style="fill: none; stroke: #000000; stroke-width: 2; stroke-linejoin: miter"/>
   </g>
   <g id="patch_3">
    <path d="M 198.6744 77.92 
C 200.296902 77.92 201.854611 77.274776 203.001894 76.127494 
C 204.149176 74.980211 204.7944 73.422502 204.7944 71.8 
C 204.7944 70.177498 204.149176 68.619789 203.001894 67.472506 
C 201.854611 66.325224 200.296902 65.68 198.6744 65.68 
" clip-path="url(#p1daf2620d5)" style="fill: none; stroke: #000000; stroke-width: 2; stroke-linejoin: miter"/>
   </g>
   <g id="patch_4">
    <path d="M 198.6744 90.16 
C 200.296902 90.16 201.854611 89.514776 203.001894 88.367494 
C 204.149176 87.220211 204.7944 85.662502 204.7944 84.04 
C 204.7944 82.417498 204.149176 80.859789 203.001894 79.712506 
C 201.854611 78.565224 200.296902 77.92 198.6744 77.92 
" clip-path="url(#p1daf2620d5)" style="fill: none; stroke: #000000; stroke-width: 2; stroke-linejoin: miter"/>
   </g>
   <g id="patch_5">
    <path d="M 198.6744 102.4 
C 200.296902 102.4 201.854611 101.754776 203.001894 100.607494 
C 204.149176 99.460211 204.7944 97.902502 204.7944 96.28 
C 204.7944 94.657498 204.149176 93.099789 203.001894 91.952506 
C 201.854611 90.805224 200.296902 90.16 198.6744 90.16 
" clip-path="url(#p1daf2620d5)" style="fill: none; stroke: #000000; stroke-width: 2; stroke-linejoin: miter"/>
   </g>
   <g id="patch_6">
    <path d="M 198.6744 114.64 
C 200.296902 114.64 201.854611 113.994776 203.001894 112.847494 
C 204.149176 111.700211 204.7944 110.142502 204.7944 108.52 
C 204.7944 106.897498 204.149176 105.339789 203.001894 104.192506 
C 201.854611 103.045224 200.296902 102.4 198.6744 102.4 
" clip-path="url(#p1daf2620d5)" style="fill: none; stroke: #000000; stroke-width: 2; stroke-linejoin: miter"/>
   </g>
   <g id="patch_7">
    <path d="M 198.6744 126.88 
C 200.296902 126.88 201.854611 126.234776 203.001894 125.087494 
C 204.149176 123.940211 204.7944 122.382502 204.7944 120.76 
C 204.7944 119.137498 204.149176 117.579789 203.001894 116.432506 
C 201.854611 115.285224 200.296902 114.64 198.6744 114.64 
" clip-path="url(#p1daf2620d5)" style="fill: none; stroke: #000000; stroke-width: 2; stroke-linejoin: miter"/>
   </g>
   <g id="patch_8">
    <path d="M 198.6744 139.12 
C 200.296902 139.12 201.854611 138.474776 203.001894 137.327494 
C 204.149176 136.180211 204.7944 134.622502 204.7944 133 
C 204.7944 131.377498 204.149176 129.819789 203.001894 128.672506 
C 201.854611 127.525224 200.296902 126.88 198.6744 126.88 
" clip-path="url(#p1daf2620d5)" style="fill: none; stroke: #000000; stroke-width: 2; stroke-linejoin: miter"/>
   </g>
   <g id="patch_9">
    <path d="M 229.2744 77.92 
C 227.651898 77.92 226.094189 78.565224 224.946906 79.712506 
C 223.799624 80.859789 223.1544 82.417498 223.1544 84.04 
C 223.1544 85.662502 223.799624 87.220211 224.946906 88.367494 
C 226.094189 89.514776 227.651898 90.16 229.2744 90.16 
" clip-path="url(#p1daf2620d5)" style="fill: none; stroke: #000000; stroke-width: 2; stroke-linejoin: miter"/>
   </g>
   <g id="patch_10">
    <path d="M 229.2744 90.16 
C 227.651898 90.16 226.094189 90.805224 224.946906 91.952506 
C 223.799624 93.099789 223.1544 94.657498 223.1544 96.28 
C 223.1544 97.902502 223.799624 99.460211 224.946906 100.607494 
C 226.094189 101.754776 227.651898 102.4 229.2744 102.4 
" clip-path="url(#p1daf2620d5)" style="fill: none; stroke: #000000; stroke-width: 2; stroke-linejoin: miter"/>
   </g>
   <g id="patch_11">
    <path d="M 229.2744 102.4 
C 227.651898 102.4 226.094189 103.045224 224.946906 104.192506 
C 223.799624 105.339789 223.1544 106.897498 223.1544 108.52 
C 223.1544 110.142502 223.799624 111.700211 224.946906 112.847494 
C 226.094189 113.994776 227.651898 114.64 229.2744 114.64 
" clip-path="url(#p1daf2620d5)" style="fill: none; stroke: #000000; stroke-width: 2; stroke-linejoin: miter"/>
   </g>
   <g id="patch_12">
    <path d="M 229.2744 114.64 
C 227.651898 114.64 226.094189 115.285224 224.946906 116.432506 
C 223.799624 117.579789 223.1544 119.137498 223.1544 120.76 
C 223.1544 122.382502 223.799624 123.940211 224.946906 125.087494 
C 226.094189 126.234776 227.651898 126.88 229.2744 126.88 
" clip-path="url(#p1daf2620d5)" style="fill: none; stroke: #000000; stroke-width: 2; stroke-linejoin: miter"/>
   </g>
   <g id="line2d_1">
    <path d="M 137.4234 183.388 
L 148.6434 183.388 
" clip-path="url(#p1daf2620d5)" style="fill: none; stroke: #000000; stroke-width: 2; stroke-linecap: round"/>
   </g>
   <g id="line2d_2">
    <path d="M 148.6434 172.168 
L 148.6434 194.608 
" clip-path="url(#p1daf2620d5)" style="fill: none; stroke: #000000; stroke-width: 2; stroke-linecap: round"/>
   </g>
   <g id="line2d_3">
    <path d="M 148.6434 177.778 
L 160.4244 167.68 
L 160.4244 162.07 
" clip-path="url(#p1daf2620d5)" style="fill: none; stroke: #000000; stroke-width: 2; stroke-linecap: round"/>
   </g>
   <g id="line2d_4">
    <path d="M 148.6434 188.998 
L 160.4244 199.096 
L 160.4244 204.706 
" clip-path="url(#p1daf2620d5)" style="fill: none; stroke: #000000; stroke-width: 2; stroke-linecap: round"/>
   </g>
   <g id="line2d_5">
    <path d="M 148.6434 188.998 
L 154.616087 194.117446 
" clip-path="url(#p1daf2620d5)" style="fill: none; stroke: #000000; stroke-width: 2; stroke-linecap: round"/>
   </g>
   <g id="patch_13">
    <path d="M 156.607509 191.794121 
L 160.4244 199.096 
L 152.624665 196.440771 
z
" clip-path="url(#p1daf2620d5)"/>
   </g>
   <g id="line2d_6">
    <path d="M 137.4234 183.388 
L 106.8234 183.388 
L 104.2734 191.038 
L 99.1734 175.738 
L 94.0734 191.038 
L 88.9734 175.738 
L 83.8734 191.038 
L 78.7734 175.738 
L 76.2234 183.388 
L 45.6234 183.388 
" clip-path="url(#p1daf2620d5)" style="fill: none; stroke: #000000; stroke-width: 2; stroke-linecap: round"/>
   </g>
   <g id="line2d_7">
    <path d="M 45.6234 183.388 
L 45.6234 221.638 
L 45.6234 221.638 
M 45.6234 236.938 
L 45.6234 236.938 
L 45.6234 275.188 
" clip-path="url(#p1daf2620d5)" style="fill: none; stroke: #000000; stroke-width: 2; stroke-linecap: round"/>
   </g>
   <g id="line2d_8">
    <path d="M 44.0934 225.463 
L 47.1534 225.463 
" clip-path="url(#p1daf2620d5)" style="fill: none; stroke: #000000; stroke-width: 2; stroke-linecap: round"/>
   </g>
   <g id="line2d_9">
    <path d="M 45.6234 231.583 
L 45.6234 234.643 
" clip-path="url(#p1daf2620d5)" style="fill: none; stroke: #000000; stroke-width: 2; stroke-linecap: round"/>
   </g>
   <g id="line2d_10">
    <path d="M 44.0934 233.113 
L 47.1534 233.113 
" clip-path="url(#p1daf2620d5)" style="fill: none; stroke: #000000; stroke-width: 2; stroke-linecap: round"/>
   </g>
   <g id="line2d_11">
    <path d="M 45.6234 275.188 
L 103.0239 275.188 
L 160.4244 275.188 
" clip-path="url(#p1daf2620d5)" style="fill: none; stroke: #000000; stroke-width: 2; stroke-linecap: round"/>
   </g>
   <g id="line2d_12">
    <path d="M 160.4244 275.188 
L 160.4244 287.428 
L 152.7744 287.428 
L 168.0744 287.428 
M 155.0694 291.1 
L 165.7794 291.1 
M 158.8944 294.772 
L 161.9544 294.772 
" clip-path="url(#p1daf2620d5)" style="fill: none; stroke: #000000; stroke-width: 2; stroke-linecap: round"/>
   </g>
   <g id="line2d_13">
    <path d="M 160.4244 275.188 
L 160.4244 239.947 
L 160.4244 204.706 
" clip-path="url(#p1daf2620d5)" style="fill: none; stroke: #000000; stroke-width: 2; stroke-linecap: round"/>
   </g>
   <g id="line2d_14">
    <path d="M 160.4244 162.07 
L 160.4244 150.595 
L 160.4244 139.12 
" clip-path="url(#p1daf2620d5)" style="fill: none; stroke: #000000; stroke-width: 2; stroke-linecap: round"/>
   </g>
   <g id="line2d_15">
    <path d="M 160.4244 139.12 
L 160.4244 95.974 
M 152.7744 95.974 
L 168.0744 95.974 
M 152.7744 90.466 
L 168.0744 90.466 
M 160.4244 90.466 
L 160.4244 47.32 
" clip-path="url(#p1daf2620d5)" style="fill: none; stroke: #000000; stroke-width: 2; stroke-linecap: round"/>
   </g>
   <g id="line2d_16">
    <path d="M 160.4244 139.12 
L 179.5494 139.12 
L 198.6744 139.12 
" clip-path="url(#p1daf2620d5)" style="fill: none; stroke: #000000; stroke-width: 2; stroke-linecap: round"/>
   </g>
   <g id="line2d_17">
    <path d="M 210.9144 65.68 
L 210.9144 139.12 
" clip-path="url(#p1daf2620d5)" style="fill: none; stroke: #000000; stroke-width: 2; stroke-linecap: round"/>
   </g>
   <g id="line2d_18">
    <path d="M 217.0344 65.68 
L 217.0344 139.12 
" clip-path="url(#p1daf2620d5)" style="fill: none; stroke: #000000; stroke-width: 2; stroke-linecap: round"/>
   </g>
   <g id="line2d_19">
    <path d="M 198.6744 65.68 
L 179.5494 65.68 
L 160.4244 65.68 
" clip-path="url(#p1daf2620d5)" style="fill: none; stroke: #000000; stroke-width: 2; stroke-linecap: round"/>
   </g>
   <g id="line2d_20">
    <path d="M 229.2744 77.92 
L 256.0494 77.92 
L 282.8244 77.92 
" clip-path="url(#p1daf2620d5)" style="fill: none; stroke: #000000; stroke-width: 2; stroke-linecap: round"/>
   </g>
   <g id="line2d_21">
    <path d="M 229.2744 126.88 
L 240.7494 126.88 
L 252.2244 126.88 
" clip-path="url(#p1daf2620d5)" style="fill: none; stroke: #000000; stroke-width: 2; stroke-linecap: round"/>
   </g>
   <g id="line2d_22">
    <path d="M 252.2244 126.88 
L 252.2244 139.12 
L 244.5744 139.12 
L 259.8744 139.12 
M 246.8694 142.792 
L 257.5794 142.792 
M 250.6944 146.464 
L 253.7544 146.464 
" clip-path="url(#p1daf2620d5)" style="fill: none; stroke: #000000; stroke-width: 2; stroke-linecap: round"/>
   </g>
   <g id="line2d_23">
    <path d="M 160.4244 47.32 
L 160.4244 35.08 
" clip-path="url(#p1daf2620d5)" style="fill: none; stroke: #000000; stroke-width: 2; stroke-linecap: round"/>
   </g>
   <g id="line2d_24">
    <path d="M 160.4244 35.08 
L 154.6869 35.08 
" clip-path="url(#p1daf2620d5)" style="fill: none; stroke: #000000; stroke-width: 2; stroke-linecap: round"/>
   </g>
   <g id="line2d_25">
    <path d="M 160.4244 35.08 
L 166.1619 35.08 
" clip-path="url(#p1daf2620d5)" style="fill: none; stroke: #000000; stroke-width: 2; stroke-linecap: round"/>
   </g>
   <g id="text_1">
    <g clip-path="url(#p1daf2620d5)">
     <!-- $R_{in}$ -->
     <g transform="translate(82.9609 170.078391)scale(0.125 -0.125)">
      <defs>
       <path id="DejaVuSans-Oblique-52" d="M 1613 4147 
L 1294 2491 
L 2106 2491 
Q 2584 2491 2879 2755 
Q 3175 3019 3175 3444 
Q 3175 3784 2976 3965 
Q 2778 4147 2406 4147 
L 1613 4147 
z
M 2772 2241 
Q 2972 2194 3105 2009 
Q 3238 1825 3413 1275 
L 3809 0 
L 3144 0 
L 2778 1197 
Q 2638 1659 2453 1815 
Q 2269 1972 1888 1972 
L 1191 1972 
L 806 0 
L 172 0 
L 1081 4666 
L 2503 4666 
Q 3150 4666 3495 4373 
Q 3841 4081 3841 3531 
Q 3841 3044 3547 2687 
Q 3253 2331 2772 2241 
z
" transform="scale(0.015625)"/>
       <path id="DejaVuSans-Oblique-69" d="M 1172 4863 
L 1747 4863 
L 1606 4134 
L 1031 4134 
L 1172 4863 
z
M 909 3500 
L 1484 3500 
L 800 0 
L 225 0 
L 909 3500 
z
" transform="scale(0.015625)"/>
       <path id="DejaVuSans-Oblique-6e" d="M 3566 2113 
L 3156 0 
L 2578 0 
L 2988 2091 
Q 3016 2238 3031 2350 
Q 3047 2463 3047 2528 
Q 3047 2791 2881 2937 
Q 2716 3084 2419 3084 
Q 1956 3084 1622 2776 
Q 1288 2469 1184 1941 
L 800 0 
L 225 0 
L 903 3500 
L 1478 3500 
L 1363 2950 
Q 1603 3253 1940 3418 
Q 2278 3584 2650 3584 
Q 3113 3584 3367 3334 
Q 3622 3084 3622 2631 
Q 3622 2519 3608 2391 
Q 3594 2263 3566 2113 
z
" transform="scale(0.015625)"/>
      </defs>
      <use xlink:href="#DejaVuSans-Oblique-52" transform="translate(0 0.09375)"/>
      <use xlink:href="#DejaVuSans-Oblique-69" transform="translate(69.482422 -16.3125)scale(0.7)"/>
      <use xlink:href="#DejaVuSans-Oblique-6e" transform="translate(88.930664 -16.3125)scale(0.7)"/>
     </g>
    </g>
   </g>
   <g id="text_2">
    <g clip-path="url(#p1daf2620d5)">
     <!-- $V_{in}$ -->
     <g transform="translate(19.5684 232.737219)scale(0.125 -0.125)">
      <defs>
       <path id="DejaVuSans-Oblique-56" d="M 1319 0 
L 500 4666 
L 1119 4666 
L 1797 653 
L 4063 4666 
L 4750 4666 
L 2053 0 
L 1319 0 
z
" transform="scale(0.015625)"/>
      </defs>
      <use xlink:href="#DejaVuSans-Oblique-56" transform="translate(0 0.09375)"/>
      <use xlink:href="#DejaVuSans-Oblique-69" transform="translate(68.408203 -16.3125)scale(0.7)"/>
      <use xlink:href="#DejaVuSans-Oblique-6e" transform="translate(87.856445 -16.3125)scale(0.7)"/>
     </g>
    </g>
   </g>
   <g id="text_3">
    <g clip-path="url(#p1daf2620d5)">
     <!-- $C_1$ -->
     <g transform="translate(134.9644 96.669219)scale(0.125 -0.125)">
      <defs>
       <path id="DejaVuSans-Oblique-43" d="M 4447 4306 
L 4319 3641 
Q 4019 3944 3683 4091 
Q 3347 4238 2956 4238 
Q 2422 4238 2017 3981 
Q 1613 3725 1319 3200 
Q 1131 2863 1032 2486 
Q 934 2109 934 1728 
Q 934 1091 1264 756 
Q 1594 422 2222 422 
Q 2656 422 3056 561 
Q 3456 700 3834 978 
L 3688 231 
Q 3316 72 2936 -9 
Q 2556 -91 2175 -91 
Q 1278 -91 773 396 
Q 269 884 269 1753 
Q 269 2309 461 2846 
Q 653 3384 1013 3828 
Q 1394 4300 1883 4525 
Q 2372 4750 3022 4750 
Q 3422 4750 3780 4639 
Q 4138 4528 4447 4306 
z
" transform="scale(0.015625)"/>
       <path id="DejaVuSans-31" d="M 794 531 
L 1825 531 
L 1825 4091 
L 703 3866 
L 703 4441 
L 1819 4666 
L 2450 4666 
L 2450 531 
L 3481 531 
L 3481 0 
L 794 0 
L 794 531 
z
" transform="scale(0.015625)"/>
      </defs>
      <use xlink:href="#DejaVuSans-Oblique-43" transform="translate(0 0.78125)"/>
      <use xlink:href="#DejaVuSans-31" transform="translate(69.824219 -15.625)scale(0.7)"/>
     </g>
    </g>
   </g>
   <g id="text_4">
    <g clip-path="url(#p1daf2620d5)">
     <!-- $V_{dd}$ -->
     <g transform="translate(150.3619 29.420391)scale(0.125 -0.125)">
      <defs>
       <path id="DejaVuSans-Oblique-64" d="M 2675 525 
Q 2444 222 2128 65 
Q 1813 -91 1428 -91 
Q 903 -91 598 267 
Q 294 625 294 1247 
Q 294 1766 478 2236 
Q 663 2706 1013 3078 
Q 1244 3325 1534 3454 
Q 1825 3584 2144 3584 
Q 2481 3584 2739 3421 
Q 2997 3259 3138 2956 
L 3513 4863 
L 4091 4863 
L 3144 0 
L 2566 0 
L 2675 525 
z
M 891 1350 
Q 891 897 1095 644 
Q 1300 391 1663 391 
Q 1931 391 2161 520 
Q 2391 650 2566 903 
Q 2750 1166 2856 1509 
Q 2963 1853 2963 2188 
Q 2963 2622 2758 2865 
Q 2553 3109 2194 3109 
Q 1922 3109 1687 2981 
Q 1453 2853 1288 2613 
Q 1106 2353 998 2009 
Q 891 1666 891 1350 
z
" transform="scale(0.015625)"/>
      </defs>
      <use xlink:href="#DejaVuSans-Oblique-56" transform="translate(0 0.09375)"/>
      <use xlink:href="#DejaVuSans-Oblique-64" transform="translate(68.408203 -16.3125)scale(0.7)"/>
      <use xlink:href="#DejaVuSans-Oblique-64" transform="translate(112.841797 -16.3125)scale(0.7)"/>
     </g>
    </g>
   </g>
   <g id="patch_14">
    <path d="M 160.4244 141.415 
C 161.033041 141.415 161.616836 141.173184 162.04721 140.74281 
C 162.477584 140.312436 162.7194 139.728641 162.7194 139.12 
C 162.7194 138.511359 162.477584 137.927564 162.04721 137.49719 
C 161.616836 137.066816 161.033041 136.825 160.4244 136.825 
C 159.815759 136.825 159.231964 137.066816 158.80159 137.49719 
C 158.371216 137.927564 158.1294 138.511359 158.1294 139.12 
C 158.1294 139.728641 158.371216 140.312436 158.80159 140.74281 
C 159.231964 141.173184 159.815759 141.415 160.4244 141.415 
z
" clip-path="url(#p1daf2620d5)" style="stroke: #000000; stroke-width: 2; stroke-linejoin: miter"/>
   </g>
   <g id="patch_15">
    <path d="M 160.4244 67.975 
C 161.033041 67.975 161.616836 67.733184 162.04721 67.30281 
C 162.477584 66.872436 162.7194 66.288641 162.7194 65.68 
C 162.7194 65.071359 162.477584 64.487564 162.04721 64.05719 
C 161.616836 63.626816 161.033041 63.385 160.4244 63.385 
C 159.815759 63.385 159.231964 63.626816 158.80159 64.05719 
C 158.371216 64.487564 158.1294 65.071359 158.1294 65.68 
C 158.1294 66.288641 158.371216 66.872436 158.80159 67.30281 
C 159.231964 67.733184 159.815759 67.975 160.4244 67.975 
z
" clip-path="url(#p1daf2620d5)" style="stroke: #000000; stroke-width: 2; stroke-linejoin: miter"/>
   </g>
   <g id="patch_16">
    <path d="M 282.8244 80.215 
C 283.433041 80.215 284.016836 79.973184 284.44721 79.54281 
C 284.877584 79.112436 285.1194 78.528641 285.1194 77.92 
C 285.1194 77.311359 284.877584 76.727564 284.44721 76.29719 
C 284.016836 75.866816 283.433041 75.625 282.8244 75.625 
C 282.215759 75.625 281.631964 75.866816 281.20159 76.29719 
C 280.771216 76.727564 280.5294 77.311359 280.5294 77.92 
C 280.5294 78.528641 280.771216 79.112436 281.20159 79.54281 
C 281.631964 79.973184 282.215759 80.215 282.8244 80.215 
z
" clip-path="url(#p1daf2620d5)" style="fill: #ffffff; stroke: #000000; stroke-width: 2; stroke-linejoin: miter"/>
   </g>
   <g id="text_5">
    <g clip-path="url(#p1daf2620d5)">
     <!-- $v_{out}$ -->
     <g transform="translate(288.1794 81.369219)scale(0.125 -0.125)">
      <defs>
       <path id="DejaVuSans-Oblique-76" d="M 459 3500 
L 1069 3500 
L 1581 525 
L 3256 3500 
L 3866 3500 
L 1875 0 
L 1100 0 
L 459 3500 
z
" transform="scale(0.015625)"/>
       <path id="DejaVuSans-Oblique-6f" d="M 1625 -91 
Q 1009 -91 651 289 
Q 294 669 294 1325 
Q 294 1706 417 2101 
Q 541 2497 738 2766 
Q 1047 3184 1428 3384 
Q 1809 3584 2291 3584 
Q 2888 3584 3255 3212 
Q 3622 2841 3622 2241 
Q 3622 1825 3500 1412 
Q 3378 1000 3181 728 
Q 2875 309 2494 109 
Q 2113 -91 1625 -91 
z
M 891 1344 
Q 891 869 1089 633 
Q 1288 397 1691 397 
Q 2269 397 2648 901 
Q 3028 1406 3028 2181 
Q 3028 2634 2825 2865 
Q 2622 3097 2228 3097 
Q 1903 3097 1650 2945 
Q 1397 2794 1197 2484 
Q 1050 2253 970 1956 
Q 891 1659 891 1344 
z
" transform="scale(0.015625)"/>
       <path id="DejaVuSans-Oblique-75" d="M 428 1388 
L 838 3500 
L 1416 3500 
L 1006 1409 
Q 975 1256 961 1147 
Q 947 1038 947 966 
Q 947 700 1109 554 
Q 1272 409 1569 409 
Q 2031 409 2368 721 
Q 2706 1034 2809 1563 
L 3194 3500 
L 3769 3500 
L 3091 0 
L 2516 0 
L 2631 550 
Q 2388 244 2052 76 
Q 1716 -91 1338 -91 
Q 878 -91 622 161 
Q 366 413 366 863 
Q 366 956 381 1097 
Q 397 1238 428 1388 
z
" transform="scale(0.015625)"/>
       <path id="DejaVuSans-Oblique-74" d="M 2706 3500 
L 2619 3053 
L 1472 3053 
L 1100 1153 
Q 1081 1047 1072 975 
Q 1063 903 1063 863 
Q 1063 663 1183 572 
Q 1303 481 1569 481 
L 2150 481 
L 2053 0 
L 1503 0 
Q 991 0 739 200 
Q 488 400 488 806 
Q 488 878 497 964 
Q 506 1050 525 1153 
L 897 3053 
L 409 3053 
L 500 3500 
L 978 3500 
L 1172 4494 
L 1747 4494 
L 1556 3500 
L 2706 3500 
z
" transform="scale(0.015625)"/>
      </defs>
      <use xlink:href="#DejaVuSans-Oblique-76" transform="translate(0 0.3125)"/>
      <use xlink:href="#DejaVuSans-Oblique-6f" transform="translate(59.179688 -16.09375)scale(0.7)"/>
      <use xlink:href="#DejaVuSans-Oblique-75" transform="translate(102.006836 -16.09375)scale(0.7)"/>
      <use xlink:href="#DejaVuSans-Oblique-74" transform="translate(146.37207 -16.09375)scale(0.7)"/>
     </g>
    </g>
   </g>
  </g>
 </g>
 <defs>
  <clipPath id="p1daf2620d5">
   <rect x="7.2" y="7.2" width="322.1262" height="290.632"/>
  </clipPath>
 </defs>
</svg>