<?xml version="1.0" encoding="utf-8" standalone="no"?>
<!DOCTYPE svg PUBLIC "-//W3C//DTD SVG 1.1//EN"
  "http://www.w3.org/Graphics/SVG/1.1/DTD/svg11.dtd">
<svg xmlns:xlink="http://www.w3.org/1999/xlink" width="337.3422pt" height="195.687052pt" viewBox="0 0 337.3422 195.687052" xmlns="http://www.w3.org/2000/svg" version="1.1">
 <metadata>
  <rdf:RDF xmlns:dc="http://purl.org/dc/elements/1.1/" xmlns:cc="http://creativecommons.org/ns#" xmlns:rdf="http://www.w3.org/1999/02/22-rdf-syntax-ns#">
   <cc:Work>
    <dc:type rdf:resource="http://purl.org/dc/dcmitype/StillImage"/>
    <dc:date>2022-11-04T21:54:10.022443</dc:date>
    <dc:format>image/svg+xml</dc:format>
    <dc:creator>
     <cc:Agent>
      <dc:title>Matplotlib v3.5.3, https://matplotlib.org/</dc:title>
     </cc:Agent>
    </dc:creator>
   </cc:Work>
  </rdf:RDF>
 </metadata>
 <defs>
  <style type="text/css">*{stroke-linejoin: round; stroke-linecap: butt}</style>
 </defs>
 <g id="figure_1">
  <g id="patch_1">
   <path d="M 0 195.687052 
L 337.3422 195.687052 
L 337.3422 0 
L 0 0 
L 0 195.687052 
z
" style="fill: none"/>
  </g>
  <g id="axes_1">
   <g id="patch_2">
    <path d="M 81.1806 107.907052 
C 81.1806 106.284549 80.535376 104.726841 79.388094 103.579558 
C 78.240811 102.432276 76.683102 101.787052 75.0606 101.787052 
C 73.438098 101.787052 71.880389 102.432276 70.733106 103.579558 
C 69.585824 104.726841 68.9406 106.284549 68.9406 107.907052 
" clip-path="url(#p165698b6dd)" style="fill: none; stroke: #000000; stroke-width: 2; stroke-linejoin: miter"/>
   </g>
   <g id="patch_3">
    <path d="M 93.4206 107.907052 
C 93.4206 106.284549 92.775376 104.726841 91.628094 103.579558 
C 90.480811 102.432276 88.923102 101.787052 87.3006 101.787052 
C 85.678098 101.787052 84.120389 102.432276 82.973106 103.579558 
C 81.825824 104.726841 81.1806 106.284549 81.1806 107.907052 
" clip-path="url(#p165698b6dd)" style="fill: none; stroke: #000000; stroke-width: 2; stroke-linejoin: miter"/>
   </g>
   <g id="patch_4">
    <path d="M 105.6606 107.907052 
C 105.6606 106.284549 105.015376 104.726841 103.868094 103.579558 
C 102.720811 102.432276 101.163102 101.787052 99.5406 101.787052 
C 97.918098 101.787052 96.360389 102.432276 95.213106 103.579558 
C 94.065824 104.726841 93.4206 106.284549 93.4206 107.907052 
" clip-path="url(#p165698b6dd)" style="fill: none; stroke: #000000; stroke-width: 2; stroke-linejoin: miter"/>
   </g>
   <g id="patch_5">
    <path d="M 117.9006 107.907052 
C 117.9006 106.284549 117.255376 104.726841 116.108094 103.579558 
C 114.960811 102.432276 113.403102 101.787052 111.7806 101.787052 
C 110.158098 101.787052 108.600389 102.432276 107.453106 103.579558 
C 106.305824 104.726841 105.6606 106.284549 105.6606 107.907052 
" clip-path="url(#p165698b6dd)" style="fill: none; stroke: #000000; stroke-width: 2; stroke-linejoin: miter"/>
   </g>
   <g id="patch_6">
    <path d="M 130.1406 107.907052 
C 130.1406 106.284549 129.495376 104.726841 128.348094 103.579558 
C 127.200811 102.432276 125.643102 101.787052 124.0206 101.787052 
C 122.398098 101.787052 120.840389 102.432276 119.693106 103.579558 
C 118.545824 104.726841 117.9006 106.284549 117.9006 107.907052 
" clip-path="url(#p165698b6dd)" style="fill: none; stroke: #000000; stroke-width: 2; stroke-linejoin: miter"/>
   </g>
   <g id="patch_7">
    <path d="M 142.3806 107.907052 
C 142.3806 106.284549 141.735376 104.726841 140.588094 103.579558 
C 139.440811 102.432276 137.883102 101.787052 136.2606 101.787052 
C 134.638098 101.787052 133.080389 102.432276 131.933106 103.579558 
C 130.785824 104.726841 130.1406 106.284549 130.1406 107.907052 
" clip-path="url(#p165698b6dd)" style="fill: none; stroke: #000000; stroke-width: 2; stroke-linejoin: miter"/>
   </g>
   <g id="patch_8">
    <path d="M 154.6206 107.907052 
C 154.6206 106.284549 153.975376 104.726841 152.828094 103.579558 
C 151.680811 102.432276 150.123102 101.787052 148.5006 101.787052 
C 146.878098 101.787052 145.320389 102.432276 144.173106 103.579558 
C 143.025824 104.726841 142.3806 106.284549 142.3806 107.907052 
" clip-path="url(#p165698b6dd)" style="fill: none; stroke: #000000; stroke-width: 2; stroke-linejoin: miter"/>
   </g>
   <g id="patch_9">
    <path d="M 166.8606 107.907052 
C 166.8606 106.284549 166.215376 104.726841 165.068094 103.579558 
C 163.920811 102.432276 162.363102 101.787052 160.7406 101.787052 
C 159.118098 101.787052 157.560389 102.432276 156.413106 103.579558 
C 155.265824 104.726841 154.6206 106.284549 154.6206 107.907052 
" clip-path="url(#p165698b6dd)" style="fill: none; stroke: #000000; stroke-width: 2; stroke-linejoin: miter"/>
   </g>
   <g id="patch_10">
    <path d="M 179.1006 107.907052 
C 179.1006 106.284549 178.455376 104.726841 177.308094 103.579558 
C 176.160811 102.432276 174.603102 101.787052 172.9806 101.787052 
C 171.358098 101.787052 169.800389 102.432276 168.653106 103.579558 
C 167.505824 104.726841 166.8606 106.284549 166.8606 107.907052 
" clip-path="url(#p165698b6dd)" style="fill: none; stroke: #000000; stroke-width: 2; stroke-linejoin: miter"/>
   </g>
   <g id="patch_11">
    <path d="M 191.3406 107.907052 
C 191.3406 106.284549 190.695376 104.726841 189.548094 103.579558 
C 188.400811 102.432276 186.843102 101.787052 185.2206 101.787052 
C 183.598098 101.787052 182.040389 102.432276 180.893106 103.579558 
C 179.745824 104.726841 179.1006 106.284549 179.1006 107.907052 
" clip-path="url(#p165698b6dd)" style="fill: none; stroke: #000000; stroke-width: 2; stroke-linejoin: miter"/>
   </g>
   <g id="patch_12">
    <path d="M 203.5806 107.907052 
C 203.5806 106.284549 202.935376 104.726841 201.788094 103.579558 
C 200.640811 102.432276 199.083102 101.787052 197.4606 101.787052 
C 195.838098 101.787052 194.280389 102.432276 193.133106 103.579558 
C 191.985824 104.726841 191.3406 106.284549 191.3406 107.907052 
" clip-path="url(#p165698b6dd)" style="fill: none; stroke: #000000; stroke-width: 2; stroke-linejoin: miter"/>
   </g>
   <g id="patch_13">
    <path d="M 215.8206 107.907052 
C 215.8206 106.284549 215.175376 104.726841 214.028094 103.579558 
C 212.880811 102.432276 211.323102 101.787052 209.7006 101.787052 
C 208.078098 101.787052 206.520389 102.432276 205.373106 103.579558 
C 204.225824 104.726841 203.5806 106.284549 203.5806 107.907052 
" clip-path="url(#p165698b6dd)" style="fill: none; stroke: #000000; stroke-width: 2; stroke-linejoin: miter"/>
   </g>
   <g id="patch_14">
    <path d="M 228.0606 107.907052 
C 228.0606 106.284549 227.415376 104.726841 226.268094 103.579558 
C 225.120811 102.432276 223.563102 101.787052 221.9406 101.787052 
C 220.318098 101.787052 218.760389 102.432276 217.613106 103.579558 
C 216.465824 104.726841 215.8206 106.284549 215.8206 107.907052 
" clip-path="url(#p165698b6dd)" style="fill: none; stroke: #000000; stroke-width: 2; stroke-linejoin: miter"/>
   </g>
   <g id="patch_15">
    <path d="M 240.3006 107.907052 
C 240.3006 106.284549 239.655376 104.726841 238.508094 103.579558 
C 237.360811 102.432276 235.803102 101.787052 234.1806 101.787052 
C 232.558098 101.787052 231.000389 102.432276 229.853106 103.579558 
C 228.705824 104.726841 228.0606 106.284549 228.0606 107.907052 
" clip-path="url(#p165698b6dd)" style="fill: none; stroke: #000000; stroke-width: 2; stroke-linejoin: miter"/>
   </g>
   <g id="patch_16">
    <path d="M 252.5406 107.907052 
C 252.5406 106.284549 251.895376 104.726841 250.748094 103.579558 
C 249.600811 102.432276 248.043102 101.787052 246.4206 101.787052 
C 244.798098 101.787052 243.240389 102.432276 242.093106 103.579558 
C 240.945824 104.726841 240.3006 106.284549 240.3006 107.907052 
" clip-path="url(#p165698b6dd)" style="fill: none; stroke: #000000; stroke-width: 2; stroke-linejoin: miter"/>
   </g>
   <g id="patch_17">
    <path d="M 264.7806 107.907052 
C 264.7806 106.284549 264.135376 104.726841 262.988094 103.579558 
C 261.840811 102.432276 260.283102 101.787052 258.6606 101.787052 
C 257.038098 101.787052 255.480389 102.432276 254.333106 103.579558 
C 253.185824 104.726841 252.5406 106.284549 252.5406 107.907052 
" clip-path="url(#p165698b6dd)" style="fill: none; stroke: #000000; stroke-width: 2; stroke-linejoin: miter"/>
   </g>
   <g id="patch_18">
    <path d="M 68.9406 77.307052 
C 68.9406 78.929554 69.585824 80.487263 70.733106 81.634545 
C 71.880389 82.781828 73.438098 83.427052 75.0606 83.427052 
C 76.683102 83.427052 78.240811 82.781828 79.388094 81.634545 
C 80.535376 80.487263 81.1806 78.929554 81.1806 77.307052 
" clip-path="url(#p165698b6dd)" style="fill: none; stroke: #000000; stroke-width: 2; stroke-linejoin: miter"/>
   </g>
   <g id="patch_19">
    <path d="M 81.1806 77.307052 
C 81.1806 78.929554 81.825824 80.487263 82.973106 81.634545 
C 84.120389 82.781828 85.678098 83.427052 87.3006 83.427052 
C 88.923102 83.427052 90.480811 82.781828 91.628094 81.634545 
C 92.775376 80.487263 93.4206 78.929554 93.4206 77.307052 
" clip-path="url(#p165698b6dd)" style="fill: none; stroke: #000000; stroke-width: 2; stroke-linejoin: miter"/>
   </g>
   <g id="patch_20">
    <path d="M 93.4206 77.307052 
C 93.4206 78.929554 94.065824 80.487263 95.213106 81.634545 
C 96.360389 82.781828 97.918098 83.427052 99.5406 83.427052 
C 101.163102 83.427052 102.720811 82.781828 103.868094 81.634545 
C 105.015376 80.487263 105.6606 78.929554 105.6606 77.307052 
" clip-path="url(#p165698b6dd)" style="fill: none; stroke: #000000; stroke-width: 2; stroke-linejoin: miter"/>
   </g>
   <g id="patch_21">
    <path d="M 105.6606 77.307052 
C 105.6606 78.929554 106.305824 80.487263 107.453106 81.634545 
C 108.600389 82.781828 110.158098 83.427052 111.7806 83.427052 
C 113.403102 83.427052 114.960811 82.781828 116.108094 81.634545 
C 117.255376 80.487263 117.9006 78.929554 117.9006 77.307052 
" clip-path="url(#p165698b6dd)" style="fill: none; stroke: #000000; stroke-width: 2; stroke-linejoin: miter"/>
   </g>
   <g id="patch_22">
    <path d="M 117.9006 77.307052 
C 117.9006 78.929554 118.545824 80.487263 119.693106 81.634545 
C 120.840389 82.781828 122.398098 83.427052 124.0206 83.427052 
C 125.643102 83.427052 127.200811 82.781828 128.348094 81.634545 
C 129.495376 80.487263 130.1406 78.929554 130.1406 77.307052 
" clip-path="url(#p165698b6dd)" style="fill: none; stroke: #000000; stroke-width: 2; stroke-linejoin: miter"/>
   </g>
   <g id="patch_23">
    <path d="M 130.1406 77.307052 
C 130.1406 78.929554 130.785824 80.487263 131.933106 81.634545 
C 133.080389 82.781828 134.638098 83.427052 136.2606 83.427052 
C 137.883102 83.427052 139.440811 82.781828 140.588094 81.634545 
C 141.735376 80.487263 142.3806 78.929554 142.3806 77.307052 
" clip-path="url(#p165698b6dd)" style="fill: none; stroke: #000000; stroke-width: 2; stroke-linejoin: miter"/>
   </g>
   <g id="patch_24">
    <path d="M 142.3806 77.307052 
C 142.3806 78.929554 143.025824 80.487263 144.173106 81.634545 
C 145.320389 82.781828 146.878098 83.427052 148.5006 83.427052 
C 150.123102 83.427052 151.680811 82.781828 152.828094 81.634545 
C 153.975376 80.487263 154.6206 78.929554 154.6206 77.307052 
" clip-path="url(#p165698b6dd)" style="fill: none; stroke: #000000; stroke-width: 2; stroke-linejoin: miter"/>
   </g>
   <g id="patch_25">
    <path d="M 154.6206 77.307052 
C 154.6206 78.929554 155.265824 80.487263 156.413106 81.634545 
C 157.560389 82.781828 159.118098 83.427052 160.7406 83.427052 
C 162.363102 83.427052 163.920811 82.781828 165.068094 81.634545 
C 166.215376 80.487263 166.8606 78.929554 166.8606 77.307052 
" clip-path="url(#p165698b6dd)" style="fill: none; stroke: #000000; stroke-width: 2; stroke-linejoin: miter"/>
   </g>
   <g id="patch_26">
    <path d="M 166.8606 77.307052 
C 166.8606 78.929554 167.505824 80.487263 168.653106 81.634545 
C 169.800389 82.781828 171.358098 83.427052 172.9806 83.427052 
C 174.603102 83.427052 176.160811 82.781828 177.308094 81.634545 
C 178.455376 80.487263 179.1006 78.929554 179.1006 77.307052 
" clip-path="url(#p165698b6dd)" style="fill: none; stroke: #000000; stroke-width: 2; stroke-linejoin: miter"/>
   </g>
   <g id="patch_27">
    <path d="M 179.1006 77.307052 
C 179.1006 78.929554 179.745824 80.487263 180.893106 81.634545 
C 182.040389 82.781828 183.598098 83.427052 185.2206 83.427052 
C 186.843102 83.427052 188.400811 82.781828 189.548094 81.634545 
C 190.695376 80.487263 191.3406 78.929554 191.3406 77.307052 
" clip-path="url(#p165698b6dd)" style="fill: none; stroke: #000000; stroke-width: 2; stroke-linejoin: miter"/>
   </g>
   <g id="patch_28">
    <path d="M 191.3406 77.307052 
C 191.3406 78.929554 191.985824 80.487263 193.133106 81.634545 
C 194.280389 82.781828 195.838098 83.427052 197.4606 83.427052 
C 199.083102 83.427052 200.640811 82.781828 201.788094 81.634545 
C 202.935376 80.487263 203.5806 78.929554 203.5806 77.307052 
" clip-path="url(#p165698b6dd)" style="fill: none; stroke: #000000; stroke-width: 2; stroke-linejoin: miter"/>
   </g>
   <g id="patch_29">
    <path d="M 203.5806 77.307052 
C 203.5806 78.929554 204.225824 80.487263 205.373106 81.634545 
C 206.520389 82.781828 208.078098 83.427052 209.7006 83.427052 
C 211.323102 83.427052 212.880811 82.781828 214.028094 81.634545 
C 215.175376 80.487263 215.8206 78.929554 215.8206 77.307052 
" clip-path="url(#p165698b6dd)" style="fill: none; stroke: #000000; stroke-width: 2; stroke-linejoin: miter"/>
   </g>
   <g id="patch_30">
    <path d="M 215.8206 77.307052 
C 215.8206 78.929554 216.465824 80.487263 217.613106 81.634545 
C 218.760389 82.781828 220.318098 83.427052 221.9406 83.427052 
C 223.563102 83.427052 225.120811 82.781828 226.268094 81.634545 
C 227.415376 80.487263 228.0606 78.929554 228.0606 77.307052 
" clip-path="url(#p165698b6dd)" style="fill: none; stroke: #000000; stroke-width: 2; stroke-linejoin: miter"/>
   </g>
   <g id="patch_31">
    <path d="M 228.0606 77.307052 
C 228.0606 78.929554 228.705824 80.487263 229.853106 81.634545 
C 231.000389 82.781828 232.558098 83.427052 234.1806 83.427052 
C 235.803102 83.427052 237.360811 82.781828 238.508094 81.634545 
C 239.655376 80.487263 240.3006 78.929554 240.3006 77.307052 
" clip-path="url(#p165698b6dd)" style="fill: none; stroke: #000000; stroke-width: 2; stroke-linejoin: miter"/>
   </g>
   <g id="patch_32">
    <path d="M 240.3006 77.307052 
C 240.3006 78.929554 240.945824 80.487263 242.093106 81.634545 
C 243.240389 82.781828 244.798098 83.427052 246.4206 83.427052 
C 248.043102 83.427052 249.600811 82.781828 250.748094 81.634545 
C 251.895376 80.487263 252.5406 78.929554 252.5406 77.307052 
" clip-path="url(#p165698b6dd)" style="fill: none; stroke: #000000; stroke-width: 2; stroke-linejoin: miter"/>
   </g>
   <g id="patch_33">
    <path d="M 252.5406 77.307052 
C 252.5406 78.929554 253.185824 80.487263 254.333106 81.634545 
C 255.480389 82.781828 257.038098 83.427052 258.6606 83.427052 
C 260.283102 83.427052 261.840811 82.781828 262.988094 81.634545 
C 264.135376 80.487263 264.7806 78.929554 264.7806 77.307052 
" clip-path="url(#p165698b6dd)" style="fill: none; stroke: #000000; stroke-width: 2; stroke-linejoin: miter"/>
   </g>
   <g id="line2d_1">
    <path d="M 68.9406 95.667052 
L 264.7806 95.667052 
" clip-path="url(#p165698b6dd)" style="fill: none; stroke: #000000; stroke-width: 2; stroke-linecap: round"/>
   </g>
   <g id="line2d_2">
    <path d="M 68.9406 89.547052 
L 264.7806 89.547052 
" clip-path="url(#p165698b6dd)" style="fill: none; stroke: #000000; stroke-width: 2; stroke-linecap: round"/>
   </g>
   <g id="line2d_3">
    <path d="M 68.9406 77.307052 
L 68.9406 62.007052 
L 68.9406 46.707052 
" clip-path="url(#p165698b6dd)" style="fill: none; stroke: #000000; stroke-width: 2; stroke-linecap: round"/>
   </g>
   <g id="line2d_4">
    <path d="M 68.9406 46.707052 
L 84.2406 46.707052 
L 84.354559 44.187493 
L 84.701096 41.645211 
L 85.272501 39.293422 
L 86.042207 37.329369 
L 86.967015 35.917771 
L 87.470402 35.458253 
L 87.990717 35.17702 
L 88.519676 35.08 
L 89.048812 35.169239 
L 89.569657 35.442855 
L 90.073914 35.895082 
L 90.55364 36.516386 
L 91.410455 38.210557 
L 92.089597 40.383282 
L 92.555462 42.852336 
L 92.790334 45.410644 
L 92.79587 47.843644 
L 92.59296 49.947285 
L 92.219976 51.545138 
L 91.729556 52.503192 
L 91.459589 52.714872 
L 91.184185 52.741098 
L 90.911833 52.581319 
L 90.650957 52.238903 
L 90.195948 51.038724 
L 89.878675 49.24122 
L 89.747101 46.997143 
L 89.833616 44.494702 
L 90.152319 41.943772 
L 90.697836 39.558296 
L 91.44577 37.53834 
L 92.354748 36.053315 
L 92.852887 35.55239 
L 93.369891 35.227767 
L 93.897546 35.086287 
L 94.427414 35.130934 
L 94.95101 35.360765 
L 95.459981 35.770937 
L 95.946281 36.352804 
L 96.821242 37.979202 
L 97.523867 40.103556 
L 98.016582 42.547701 
L 98.279419 45.106648 
L 98.31169 47.565784 
L 98.132042 49.718864 
L 97.776897 51.385313 
L 97.297396 52.425368 
L 97.029982 52.680954 
L 96.755109 52.751802 
L 96.481253 52.636418 
L 96.216871 52.337236 
L 95.749179 51.21644 
L 95.412612 49.483414 
L 95.256752 47.283503 
L 95.316026 44.801211 
L 95.606818 42.244724 
L 96.126094 39.82845 
L 96.851659 37.755039 
L 97.744015 36.198384 
L 98.236456 35.65666 
L 98.749677 35.28904 
L 99.275544 35.103272 
L 99.805656 35.103272 
L 100.331523 35.28904 
L 100.844744 35.65666 
L 101.337185 36.198384 
L 102.229541 37.755039 
L 102.955106 39.82845 
L 103.474382 42.244724 
L 103.765174 44.801211 
L 103.824448 47.283503 
L 103.668588 49.483414 
L 103.332021 51.21644 
L 102.864329 52.337236 
L 102.599947 52.636418 
L 102.326091 52.751802 
L 102.051218 52.680954 
L 101.783804 52.425368 
L 101.304303 51.385313 
L 100.949158 49.718864 
L 100.76951 47.565784 
L 100.801781 45.106648 
L 101.064618 42.547701 
L 101.557333 40.103556 
L 102.259958 37.979202 
L 103.134919 36.352804 
L 103.621219 35.770937 
L 104.13019 35.360765 
L 104.653786 35.130934 
L 105.183654 35.086287 
L 105.711309 35.227767 
L 106.228313 35.55239 
L 106.726452 36.053315 
L 107.197909 36.719982 
L 108.032477 38.491139 
L 108.683379 40.717317 
L 109.11738 43.21181 
L 109.319434 45.765408 
L 109.293953 48.163945 
L 109.064426 50.20626 
L 108.67146 51.721066 
L 108.169367 52.581319 
L 107.897015 52.741098 
L 107.621611 52.714872 
L 107.351644 52.503192 
L 107.095487 52.110522 
L 106.656475 50.818957 
L 106.362749 48.948497 
L 106.260298 46.656015 
L 106.379071 44.133779 
L 106.730459 41.593324 
L 107.306349 39.247714 
L 108.079795 37.293673 
L 109.007286 35.895082 
L 109.511543 35.442855 
L 110.032388 35.169239 
L 110.561524 35.08 
L 111.090483 35.17702 
L 111.610798 35.458253 
L 112.114185 35.917771 
L 112.592718 36.54589 
L 113.446287 38.251693 
L 114.121273 40.432599 
L 114.582421 42.905699 
L 114.812409 45.463577 
L 114.8406 46.707052 
L 130.1406 46.707052 
L 130.1406 46.707052 
" clip-path="url(#p165698b6dd)" style="fill: none; stroke: #000000; stroke-width: 2; stroke-linecap: round"/>
   </g>
   <g id="line2d_5">
    <path d="M 130.1406 46.707052 
L 157.9866 46.707052 
M 157.9866 39.057052 
L 157.9866 54.357052 
M 163.4946 39.057052 
L 163.4946 54.357052 
M 163.4946 46.707052 
L 191.3406 46.707052 
" clip-path="url(#p165698b6dd)" style="fill: none; stroke: #000000; stroke-width: 2; stroke-linecap: round"/>
   </g>
   <g id="line2d_6">
    <path d="M 191.3406 46.707052 
L 212.7606 46.707052 
L 215.3106 39.057052 
L 220.4106 54.357052 
L 225.5106 39.057052 
L 230.6106 54.357052 
L 235.7106 39.057052 
L 240.8106 54.357052 
L 243.3606 46.707052 
L 264.7806 46.707052 
" clip-path="url(#p165698b6dd)" style="fill: none; stroke: #000000; stroke-width: 2; stroke-linecap: round"/>
   </g>
   <g id="line2d_7">
    <path d="M 264.7806 46.707052 
L 264.7806 62.007052 
L 264.7806 77.307052 
" clip-path="url(#p165698b6dd)" style="fill: none; stroke: #000000; stroke-width: 2; stroke-linecap: round"/>
   </g>
   <g id="line2d_8">
    <path d="M 166.8606 107.907052 
L 166.8606 115.557052 
L 166.8606 123.207052 
" clip-path="url(#p165698b6dd)" style="fill: none; stroke: #000000; stroke-width: 2; stroke-linecap: round"/>
   </g>
   <g id="line2d_9">
    <path d="M 68.9406 107.907052 
L 68.9406 115.557052 
L 68.9406 123.207052 
" clip-path="url(#p165698b6dd)" style="fill: none; stroke: #000000; stroke-width: 2; stroke-linecap: round"/>
   </g>
   <g id="line2d_10">
    <path d="M 45.9396 144.525052 
L 57.1596 144.525052 
" clip-path="url(#p165698b6dd)" style="fill: none; stroke: #000000; stroke-width: 2; stroke-linecap: round"/>
   </g>
   <g id="line2d_11">
    <path d="M 57.1596 133.305052 
L 57.1596 155.745052 
" clip-path="url(#p165698b6dd)" style="fill: none; stroke: #000000; stroke-width: 2; stroke-linecap: round"/>
   </g>
   <g id="line2d_12">
    <path d="M 57.1596 138.915052 
L 68.9406 128.817052 
L 68.9406 123.207052 
" clip-path="url(#p165698b6dd)" style="fill: none; stroke: #000000; stroke-width: 2; stroke-linecap: round"/>
   </g>
   <g id="line2d_13">
    <path d="M 57.1596 150.135052 
L 68.9406 160.233052 
L 68.9406 165.843052 
" clip-path="url(#p165698b6dd)" style="fill: none; stroke: #000000; stroke-width: 2; stroke-linecap: round"/>
   </g>
   <g id="line2d_14">
    <path d="M 57.1596 150.135052 
L 63.132287 155.254498 
" clip-path="url(#p165698b6dd)" style="fill: none; stroke: #000000; stroke-width: 2; stroke-linecap: round"/>
   </g>
   <g id="patch_34">
    <path d="M 65.123709 152.931173 
L 68.9406 160.233052 
L 61.140865 157.577823 
z
" clip-path="url(#p165698b6dd)"/>
   </g>
   <g id="line2d_15">
    <path d="M 264.7806 107.907052 
L 264.7806 115.557052 
L 264.7806 123.207052 
" clip-path="url(#p165698b6dd)" style="fill: none; stroke: #000000; stroke-width: 2; stroke-linecap: round"/>
   </g>
   <g id="line2d_16">
    <path d="M 287.7816 144.525052 
L 276.5616 144.525052 
" clip-path="url(#p165698b6dd)" style="fill: none; stroke: #000000; stroke-width: 2; stroke-linecap: round"/>
   </g>
   <g id="line2d_17">
    <path d="M 276.5616 133.305052 
L 276.5616 155.745052 
" clip-path="url(#p165698b6dd)" style="fill: none; stroke: #000000; stroke-width: 2; stroke-linecap: round"/>
   </g>
   <g id="line2d_18">
    <path d="M 276.5616 138.915052 
L 264.7806 128.817052 
L 264.7806 123.207052 
" clip-path="url(#p165698b6dd)" style="fill: none; stroke: #000000; stroke-width: 2; stroke-linecap: round"/>
   </g>
   <g id="line2d_19">
    <path d="M 276.5616 150.135052 
L 264.7806 160.233052 
L 264.7806 165.843052 
" clip-path="url(#p165698b6dd)" style="fill: none; stroke: #000000; stroke-width: 2; stroke-linecap: round"/>
   </g>
   <g id="line2d_20">
    <path d="M 276.5616 150.135052 
L 270.588913 155.254498 
" clip-path="url(#p165698b6dd)" style="fill: none; stroke: #000000; stroke-width: 2; stroke-linecap: round"/>
   </g>
   <g id="patch_35">
    <path d="M 272.580335 157.577823 
L 264.7806 160.233052 
L 268.597491 152.931173 
z
" clip-path="url(#p165698b6dd)"/>
   </g>
   <g id="line2d_21">
    <path d="M 264.7806 165.843052 
L 215.8206 165.843052 
L 166.8606 165.843052 
" clip-path="url(#p165698b6dd)" style="fill: none; stroke: #000000; stroke-width: 2; stroke-linecap: round"/>
   </g>
   <g id="line2d_22">
    <path d="M 166.8606 165.843052 
L 166.8606 178.083052 
L 159.2106 178.083052 
L 174.5106 178.083052 
M 161.5056 181.755052 
L 172.2156 181.755052 
M 165.3306 185.427052 
L 168.3906 185.427052 
" clip-path="url(#p165698b6dd)" style="fill: none; stroke: #000000; stroke-width: 2; stroke-linecap: round"/>
   </g>
   <g id="line2d_23">
    <path d="M 166.8606 165.843052 
L 117.9006 165.843052 
L 68.9406 165.843052 
" clip-path="url(#p165698b6dd)" style="fill: none; stroke: #000000; stroke-width: 2; stroke-linecap: round"/>
   </g>
   <g id="text_1">
    <g clip-path="url(#p165698b6dd)">
     <!-- $L_1$ -->
     <g transform="translate(93.1031 29.420391)scale(0.125 -0.125)">
      <defs>
       <path id="DejaVuSans-Oblique-4c" d="M 1075 4666 
L 1709 4666 
L 909 525 
L 3181 525 
L 3078 0 
L 172 0 
L 1075 4666 
z
" transform="scale(0.015625)"/>
       <path id="DejaVuSans-31" d="M 794 531 
L 1825 531 
L 1825 4091 
L 703 3866 
L 703 4441 
L 1819 4666 
L 2450 4666 
L 2450 531 
L 3481 531 
L 3481 0 
L 794 0 
L 794 531 
z
" transform="scale(0.015625)"/>
      </defs>
      <use xlink:href="#DejaVuSans-Oblique-4c" transform="translate(0 0.09375)"/>
      <use xlink:href="#DejaVuSans-31" transform="translate(55.712891 -16.3125)scale(0.7)"/>
     </g>
    </g>
   </g>
   <g id="text_2">
    <g clip-path="url(#p165698b6dd)">
     <!-- $C_1$ -->
     <g transform="translate(153.3656 33.397442)scale(0.125 -0.125)">
      <defs>
       <path id="DejaVuSans-Oblique-43" d="M 4447 4306 
L 4319 3641 
Q 4019 3944 3683 4091 
Q 3347 4238 2956 4238 
Q 2422 4238 2017 3981 
Q 1613 3725 1319 3200 
Q 1131 2863 1032 2486 
Q 934 2109 934 1728 
Q 934 1091 1264 756 
Q 1594 422 2222 422 
Q 2656 422 3056 561 
Q 3456 700 3834 978 
L 3688 231 
Q 3316 72 2936 -9 
Q 2556 -91 2175 -91 
Q 1278 -91 773 396 
Q 269 884 269 1753 
Q 269 2309 461 2846 
Q 653 3384 1013 3828 
Q 1394 4300 1883 4525 
Q 2372 4750 3022 4750 
Q 3422 4750 3780 4639 
Q 4138 4528 4447 4306 
z
" transform="scale(0.015625)"/>
      </defs>
      <use xlink:href="#DejaVuSans-Oblique-43" transform="translate(0 0.78125)"/>
      <use xlink:href="#DejaVuSans-31" transform="translate(69.824219 -15.625)scale(0.7)"/>
     </g>
    </g>
   </g>
   <g id="text_3">
    <g clip-path="url(#p165698b6dd)">
     <!-- $R_L$ -->
     <g transform="translate(221.0606 33.397442)scale(0.125 -0.125)">
      <defs>
       <path id="DejaVuSans-Oblique-52" d="M 1613 4147 
L 1294 2491 
L 2106 2491 
Q 2584 2491 2879 2755 
Q 3175 3019 3175 3444 
Q 3175 3784 2976 3965 
Q 2778 4147 2406 4147 
L 1613 4147 
z
M 2772 2241 
Q 2972 2194 3105 2009 
Q 3238 1825 3413 1275 
L 3809 0 
L 3144 0 
L 2778 1197 
Q 2638 1659 2453 1815 
Q 2269 1972 1888 1972 
L 1191 1972 
L 806 0 
L 172 0 
L 1081 4666 
L 2503 4666 
Q 3150 4666 3495 4373 
Q 3841 4081 3841 3531 
Q 3841 3044 3547 2687 
Q 3253 2331 2772 2241 
z
" transform="scale(0.015625)"/>
      </defs>
      <use xlink:href="#DejaVuSans-Oblique-52" transform="translate(0 0.09375)"/>
      <use xlink:href="#DejaVuSans-Oblique-4c" transform="translate(69.482422 -16.3125)scale(0.7)"/>
     </g>
    </g>
   </g>
   <g id="patch_36">
    <path d="M 166.8606 125.502052 
C 167.469241 125.502052 168.053036 125.260236 168.48341 124.829862 
C 168.913784 124.399488 169.1556 123.815693 169.1556 123.207052 
C 169.1556 122.598411 168.913784 122.014616 168.48341 121.584242 
C 168.053036 121.153867 167.469241 120.912052 166.8606 120.912052 
C 166.251959 120.912052 165.668164 121.153867 165.23779 121.584242 
C 164.807416 122.014616 164.5656 122.598411 164.5656 123.207052 
C 164.5656 123.815693 164.807416 124.399488 165.23779 124.829862 
C 165.668164 125.260236 166.251959 125.502052 166.8606 125.502052 
z
" clip-path="url(#p165698b6dd)" style="stroke: #000000; stroke-width: 2; stroke-linejoin: miter"/>
   </g>
   <g id="text_4">
    <g clip-path="url(#p165698b6dd)">
     <!-- $V_{DD}$ -->
     <g transform="translate(139.1306 126.656271)scale(0.125 -0.125)">
      <defs>
       <path id="DejaVuSans-Oblique-56" d="M 1319 0 
L 500 4666 
L 1119 4666 
L 1797 653 
L 4063 4666 
L 4750 4666 
L 2053 0 
L 1319 0 
z
" transform="scale(0.015625)"/>
       <path id="DejaVuSans-Oblique-44" d="M 1081 4666 
L 2438 4666 
Q 3519 4666 4070 4208 
Q 4622 3750 4622 2847 
Q 4622 2250 4412 1698 
Q 4203 1147 3834 769 
Q 3463 381 2891 190 
Q 2319 0 1538 0 
L 172 0 
L 1081 4666 
z
M 1613 4147 
L 909 519 
L 1734 519 
Q 2794 519 3375 1128 
Q 3956 1738 3956 2847 
Q 3956 3519 3581 3833 
Q 3206 4147 2406 4147 
L 1613 4147 
z
" transform="scale(0.015625)"/>
      </defs>
      <use xlink:href="#DejaVuSans-Oblique-56" transform="translate(0 0.09375)"/>
      <use xlink:href="#DejaVuSans-Oblique-44" transform="translate(68.408203 -16.3125)scale(0.7)"/>
      <use xlink:href="#DejaVuSans-Oblique-44" transform="translate(122.30957 -16.3125)scale(0.7)"/>
     </g>
    </g>
   </g>
   <g id="patch_37">
    <path d="M 166.8606 168.138052 
C 167.469241 168.138052 168.053036 167.896236 168.48341 167.465862 
C 168.913784 167.035488 169.1556 166.451693 169.1556 165.843052 
C 169.1556 165.234411 168.913784 164.650616 168.48341 164.220242 
C 168.053036 163.789867 167.469241 163.548052 166.8606 163.548052 
C 166.251959 163.548052 165.668164 163.789867 165.23779 164.220242 
C 164.807416 164.650616 164.5656 165.234411 164.5656 165.843052 
C 164.5656 166.451693 164.807416 167.035488 165.23779 167.465862 
C 165.668164 167.896236 166.251959 168.138052 166.8606 168.138052 
z
" clip-path="url(#p165698b6dd)" style="stroke: #000000; stroke-width: 2; stroke-linejoin: miter"/>
   </g>
   <g id="patch_38">
    <path d="M 45.9396 146.820052 
C 46.548241 146.820052 47.132036 146.578236 47.56241 146.147862 
C 47.992784 145.717488 48.2346 145.133693 48.2346 144.525052 
C 48.2346 143.916411 47.992784 143.332616 47.56241 142.902242 
C 47.132036 142.471867 46.548241 142.230052 45.9396 142.230052 
C 45.330959 142.230052 44.747164 142.471867 44.31679 142.902242 
C 43.886416 143.332616 43.6446 143.916411 43.6446 144.525052 
C 43.6446 145.133693 43.886416 145.717488 44.31679 146.147862 
C 44.747164 146.578236 45.330959 146.820052 45.9396 146.820052 
z
" clip-path="url(#p165698b6dd)" style="fill: #ffffff; stroke: #000000; stroke-width: 2; stroke-linejoin: miter"/>
   </g>
   <g id="text_5">
    <g clip-path="url(#p165698b6dd)">
     <!-- Vin+ -->
     <g transform="translate(10.445928 147.974271)scale(0.125 -0.125)">
      <defs>
       <path id="DejaVuSans-56" d="M 1831 0 
L 50 4666 
L 709 4666 
L 2188 738 
L 3669 4666 
L 4325 4666 
L 2547 0 
L 1831 0 
z
" transform="scale(0.015625)"/>
       <path id="DejaVuSans-69" d="M 603 3500 
L 1178 3500 
L 1178 0 
L 603 0 
L 603 3500 
z
M 603 4863 
L 1178 4863 
L 1178 4134 
L 603 4134 
L 603 4863 
z
" transform="scale(0.015625)"/>
       <path id="DejaVuSans-6e" d="M 3513 2113 
L 3513 0 
L 2938 0 
L 2938 2094 
Q 2938 2591 2744 2837 
Q 2550 3084 2163 3084 
Q 1697 3084 1428 2787 
Q 1159 2491 1159 1978 
L 1159 0 
L 581 0 
L 581 3500 
L 1159 3500 
L 1159 2956 
Q 1366 3272 1645 3428 
Q 1925 3584 2291 3584 
Q 2894 3584 3203 3211 
Q 3513 2838 3513 2113 
z
" transform="scale(0.015625)"/>
       <path id="DejaVuSans-2b" d="M 2944 4013 
L 2944 2272 
L 4684 2272 
L 4684 1741 
L 2944 1741 
L 2944 0 
L 2419 0 
L 2419 1741 
L 678 1741 
L 678 2272 
L 2419 2272 
L 2419 4013 
L 2944 4013 
z
" transform="scale(0.015625)"/>
      </defs>
      <use xlink:href="#DejaVuSans-56"/>
      <use xlink:href="#DejaVuSans-69" x="66.158203"/>
      <use xlink:href="#DejaVuSans-6e" x="93.941406"/>
      <use xlink:href="#DejaVuSans-2b" x="157.320312"/>
     </g>
    </g>
   </g>
   <g id="patch_39">
    <path d="M 287.7816 146.820052 
C 288.390241 146.820052 288.974036 146.578236 289.40441 146.147862 
C 289.834784 145.717488 290.0766 145.133693 290.0766 144.525052 
C 290.0766 143.916411 289.834784 143.332616 289.40441 142.902242 
C 288.974036 142.471867 288.390241 142.230052 287.7816 142.230052 
C 287.172959 142.230052 286.589164 142.471867 286.15879 142.902242 
C 285.728416 143.332616 285.4866 143.916411 285.4866 144.525052 
C 285.4866 145.133693 285.728416 145.717488 286.15879 146.147862 
C 286.589164 146.578236 287.172959 146.820052 287.7816 146.820052 
z
" clip-path="url(#p165698b6dd)" style="fill: #ffffff; stroke: #000000; stroke-width: 2; stroke-linejoin: miter"/>
   </g>
   <g id="text_6">
    <g clip-path="url(#p165698b6dd)">
     <!-- Vin- -->
     <g transform="translate(293.1366 147.974271)scale(0.125 -0.125)">
      <defs>
       <path id="DejaVuSans-2d" d="M 313 2009 
L 1997 2009 
L 1997 1497 
L 313 1497 
L 313 2009 
z
" transform="scale(0.015625)"/>
      </defs>
      <use xlink:href="#DejaVuSans-56"/>
      <use xlink:href="#DejaVuSans-69" x="66.158203"/>
      <use xlink:href="#DejaVuSans-6e" x="93.941406"/>
      <use xlink:href="#DejaVuSans-2d" x="157.320312"/>
     </g>
    </g>
   </g>
  </g>
 </g>
 <defs>
  <clipPath id="p165698b6dd">
   <rect x="7.2" y="7.2" width="322.9422" height="181.287052"/>
  </clipPath>
 </defs>
</svg>