<?xml version="1.0" encoding="utf-8" standalone="no"?>
<!DOCTYPE svg PUBLIC "-//W3C//DTD SVG 1.1//EN"
  "http://www.w3.org/Graphics/SVG/1.1/DTD/svg11.dtd">
<svg xmlns:xlink="http://www.w3.org/1999/xlink" width="324pt" height="109.297656pt" viewBox="0 0 324 109.297656" xmlns="http://www.w3.org/2000/svg" version="1.1">
 <metadata>
  <rdf:RDF xmlns:dc="http://purl.org/dc/elements/1.1/" xmlns:cc="http://creativecommons.org/ns#" xmlns:rdf="http://www.w3.org/1999/02/22-rdf-syntax-ns#">
   <cc:Work>
    <dc:type rdf:resource="http://purl.org/dc/dcmitype/StillImage"/>
    <dc:date>2023-09-25T22:13:24.252171</dc:date>
    <dc:format>image/svg+xml</dc:format>
    <dc:creator>
     <cc:Agent>
      <dc:title>Matplotlib v3.6.3, https://matplotlib.org/</dc:title>
     </cc:Agent>
    </dc:creator>
   </cc:Work>
  </rdf:RDF>
 </metadata>
 <defs>
  <style type="text/css">*{stroke-linejoin: round; stroke-linecap: butt}</style>
 </defs>
 <g id="figure_1">
  <g id="patch_1">
   <path d="M 0 109.297656 
L 324 109.297656 
L 324 0 
L 0 0 
z
" style="fill: #ffffff"/>
  </g>
  <g id="axes_1">
   <g id="patch_2">
    <path d="M 100.8 52.8 
C 101.913853 52.8 102.982235 52.357462 103.769848 51.569848 
C 104.557462 50.782235 105 49.713853 105 48.6 
C 105 47.486147 104.557462 46.417765 103.769848 45.630152 
C 102.982235 44.842538 101.913853 44.4 100.8 44.4 
C 99.686147 44.4 98.617765 44.842538 97.830152 45.630152 
C 97.042538 46.417765 96.6 47.486147 96.6 48.6 
C 96.6 49.713853 97.042538 50.782235 97.830152 51.569848 
C 98.617765 52.357462 99.686147 52.8 100.8 52.8 
L 100.8 52.8 
z
" clip-path="url(#p45b253c074)" style="fill: none; stroke: #000000; stroke-width: 2; stroke-linejoin: miter"/>
   </g>
   <g id="patch_3">
    <path d="M 223.2 52.8 
C 224.313853 52.8 225.382235 52.357462 226.169848 51.569848 
C 226.957462 50.782235 227.4 49.713853 227.4 48.6 
C 227.4 47.486147 226.957462 46.417765 226.169848 45.630152 
C 225.382235 44.842538 224.313853 44.4 223.2 44.4 
C 222.086147 44.4 221.017765 44.842538 220.230152 45.630152 
C 219.442538 46.417765 219 47.486147 219 48.6 
C 219 49.713853 219.442538 50.782235 220.230152 51.569848 
C 221.017765 52.357462 222.086147 52.8 223.2 52.8 
L 223.2 52.8 
z
" clip-path="url(#p45b253c074)" style="fill: none; stroke: #000000; stroke-width: 2; stroke-linejoin: miter"/>
   </g>
   <g id="patch_4">
    <path d="M 61.2 52.8 
C 62.313853 52.8 63.382235 52.357462 64.169848 51.569848 
C 64.957462 50.782235 65.4 49.713853 65.4 48.6 
C 65.4 47.486147 64.957462 46.417765 64.169848 45.630152 
C 63.382235 44.842538 62.313853 44.4 61.2 44.4 
C 60.086147 44.4 59.017765 44.842538 58.230152 45.630152 
C 57.442538 46.417765 57 47.486147 57 48.6 
C 57 49.713853 57.442538 50.782235 58.230152 51.569848 
C 59.017765 52.357462 60.086147 52.8 61.2 52.8 
L 61.2 52.8 
z
" clip-path="url(#p45b253c074)" style="fill: none; stroke: #000000; stroke-width: 2; stroke-linejoin: miter"/>
   </g>
   <g id="patch_5">
    <path d="M 262.8 52.8 
C 263.913853 52.8 264.982235 52.357462 265.769848 51.569848 
C 266.557462 50.782235 267 49.713853 267 48.6 
C 267 47.486147 266.557462 46.417765 265.769848 45.630152 
C 264.982235 44.842538 263.913853 44.4 262.8 44.4 
C 261.686147 44.4 260.617765 44.842538 259.830152 45.630152 
C 259.042538 46.417765 258.6 47.486147 258.6 48.6 
C 258.6 49.713853 259.042538 50.782235 259.830152 51.569848 
C 260.617765 52.357462 261.686147 52.8 262.8 52.8 
L 262.8 52.8 
z
" clip-path="url(#p45b253c074)" style="fill: none; stroke: #000000; stroke-width: 2; stroke-linejoin: miter"/>
   </g>
   <g id="line2d_1">
    <path d="M 135 75.6 
L 135 60.6 
L 111 60.6 
L 111 36.6 
L 135 36.6 
L 135 21.6 
" clip-path="url(#p45b253c074)" style="fill: none; stroke: #000000; stroke-width: 2; stroke-linecap: round"/>
   </g>
   <g id="line2d_2">
    <path d="M 105 60.6 
L 105 36.6 
" clip-path="url(#p45b253c074)" style="fill: none; stroke: #000000; stroke-width: 2; stroke-linecap: round"/>
   </g>
   <g id="line2d_3">
    <path d="M 96.6 48.6 
L 85.8 48.6 
" clip-path="url(#p45b253c074)" style="fill: none; stroke: #000000; stroke-width: 2; stroke-linecap: round"/>
   </g>
   <g id="line2d_4">
    <path d="M 135 48.6 
L 120 48.6 
" clip-path="url(#p45b253c074)" style="fill: none; stroke: #000000; stroke-width: 2; stroke-linecap: round"/>
   </g>
   <g id="patch_6">
    <path d="M 120 52.2 
L 111 48.6 
L 120 45 
z
" clip-path="url(#p45b253c074)"/>
   </g>
   <g id="line2d_5">
    <path d="M 135 75.6 
L 110.4 75.6 
L 85.8 75.6 
" clip-path="url(#p45b253c074)" style="fill: none; stroke: #000000; stroke-width: 2; stroke-linecap: round"/>
   </g>
   <g id="line2d_6">
    <path d="M 85.8 75.6 
L 85.8 62.1 
L 85.8 48.6 
" clip-path="url(#p45b253c074)" style="fill: none; stroke: #000000; stroke-width: 2; stroke-linecap: round"/>
   </g>
   <g id="line2d_7">
    <path d="M 135 21.6 
L 148.5 21.6 
L 162 21.6 
" clip-path="url(#p45b253c074)" style="fill: none; stroke: #000000; stroke-width: 2; stroke-linecap: round"/>
   </g>
   <g id="line2d_8">
    <path d="M 162 21.6 
L 162 7.2 
" clip-path="url(#p45b253c074)" style="fill: none; stroke: #000000; stroke-width: 2; stroke-linecap: round"/>
   </g>
   <g id="line2d_9">
    <path d="M 162 7.2 
L 155.25 7.2 
" clip-path="url(#p45b253c074)" style="fill: none; stroke: #000000; stroke-width: 2; stroke-linecap: round"/>
   </g>
   <g id="line2d_10">
    <path d="M 162 7.2 
L 168.75 7.2 
" clip-path="url(#p45b253c074)" style="fill: none; stroke: #000000; stroke-width: 2; stroke-linecap: round"/>
   </g>
   <g id="line2d_11">
    <path d="M 162 21.6 
L 162 7.2 
" clip-path="url(#p45b253c074)" style="fill: none; stroke: #000000; stroke-width: 2; stroke-linecap: round"/>
   </g>
   <g id="line2d_12">
    <path d="M 162 7.2 
L 155.25 7.2 
" clip-path="url(#p45b253c074)" style="fill: none; stroke: #000000; stroke-width: 2; stroke-linecap: round"/>
   </g>
   <g id="line2d_13">
    <path d="M 162 7.2 
L 168.75 7.2 
" clip-path="url(#p45b253c074)" style="fill: none; stroke: #000000; stroke-width: 2; stroke-linecap: round"/>
   </g>
   <g id="line2d_14">
    <path d="M 162 21.6 
L 175.5 21.6 
L 189 21.6 
" clip-path="url(#p45b253c074)" style="fill: none; stroke: #000000; stroke-width: 2; stroke-linecap: round"/>
   </g>
   <g id="line2d_15">
    <path d="M 189 21.6 
L 189 36.6 
L 213 36.6 
L 213 60.6 
L 189 60.6 
L 189 75.6 
" clip-path="url(#p45b253c074)" style="fill: none; stroke: #000000; stroke-width: 2; stroke-linecap: round"/>
   </g>
   <g id="line2d_16">
    <path d="M 219 36.6 
L 219 60.6 
" clip-path="url(#p45b253c074)" style="fill: none; stroke: #000000; stroke-width: 2; stroke-linecap: round"/>
   </g>
   <g id="line2d_17">
    <path d="M 227.4 48.6 
L 238.2 48.6 
" clip-path="url(#p45b253c074)" style="fill: none; stroke: #000000; stroke-width: 2; stroke-linecap: round"/>
   </g>
   <g id="line2d_18">
    <path d="M 189 48.6 
L 204 48.6 
" clip-path="url(#p45b253c074)" style="fill: none; stroke: #000000; stroke-width: 2; stroke-linecap: round"/>
   </g>
   <g id="patch_7">
    <path d="M 204 45 
L 213 48.6 
L 204 52.2 
z
" clip-path="url(#p45b253c074)"/>
   </g>
   <g id="line2d_19">
    <path d="M 189 75.6 
L 213.6 75.6 
L 238.2 75.6 
" clip-path="url(#p45b253c074)" style="fill: none; stroke: #000000; stroke-width: 2; stroke-linecap: round"/>
   </g>
   <g id="line2d_20">
    <path d="M 238.2 75.6 
L 238.2 62.1 
L 238.2 48.6 
" clip-path="url(#p45b253c074)" style="fill: none; stroke: #000000; stroke-width: 2; stroke-linecap: round"/>
   </g>
   <g id="line2d_21">
    <path d="M 135 21.6 
L 81 21.6 
L 27 21.6 
" clip-path="url(#p45b253c074)" style="fill: none; stroke: #000000; stroke-width: 2; stroke-linecap: round"/>
   </g>
   <g id="line2d_22">
    <path d="M 27 21.6 
L 27 36.6 
L 51 36.6 
L 51 60.6 
L 27 60.6 
L 27 75.6 
" clip-path="url(#p45b253c074)" style="fill: none; stroke: #000000; stroke-width: 2; stroke-linecap: round"/>
   </g>
   <g id="line2d_23">
    <path d="M 57 36.6 
L 57 60.6 
" clip-path="url(#p45b253c074)" style="fill: none; stroke: #000000; stroke-width: 2; stroke-linecap: round"/>
   </g>
   <g id="line2d_24">
    <path d="M 65.4 48.6 
L 76.2 48.6 
" clip-path="url(#p45b253c074)" style="fill: none; stroke: #000000; stroke-width: 2; stroke-linecap: round"/>
   </g>
   <g id="line2d_25">
    <path d="M 27 48.6 
L 42 48.6 
" clip-path="url(#p45b253c074)" style="fill: none; stroke: #000000; stroke-width: 2; stroke-linecap: round"/>
   </g>
   <g id="patch_8">
    <path d="M 42 45 
L 51 48.6 
L 42 52.2 
z
" clip-path="url(#p45b253c074)"/>
   </g>
   <g id="line2d_26">
    <path d="M 76.2 48.6 
L 81 48.6 
L 85.8 48.6 
" clip-path="url(#p45b253c074)" style="fill: none; stroke: #000000; stroke-width: 2; stroke-linecap: round"/>
   </g>
   <g id="line2d_27">
    <path d="M 297 75.6 
L 297 60.6 
L 273 60.6 
L 273 36.6 
L 297 36.6 
L 297 21.6 
" clip-path="url(#p45b253c074)" style="fill: none; stroke: #000000; stroke-width: 2; stroke-linecap: round"/>
   </g>
   <g id="line2d_28">
    <path d="M 267 60.6 
L 267 36.6 
" clip-path="url(#p45b253c074)" style="fill: none; stroke: #000000; stroke-width: 2; stroke-linecap: round"/>
   </g>
   <g id="line2d_29">
    <path d="M 258.6 48.6 
L 247.8 48.6 
" clip-path="url(#p45b253c074)" style="fill: none; stroke: #000000; stroke-width: 2; stroke-linecap: round"/>
   </g>
   <g id="line2d_30">
    <path d="M 297 48.6 
L 282 48.6 
" clip-path="url(#p45b253c074)" style="fill: none; stroke: #000000; stroke-width: 2; stroke-linecap: round"/>
   </g>
   <g id="patch_9">
    <path d="M 282 52.2 
L 273 48.6 
L 282 45 
z
" clip-path="url(#p45b253c074)"/>
   </g>
   <g id="line2d_31">
    <path d="M 247.8 48.6 
L 243 48.6 
L 238.2 48.6 
" clip-path="url(#p45b253c074)" style="fill: none; stroke: #000000; stroke-width: 2; stroke-linecap: round"/>
   </g>
   <g id="line2d_32">
    <path d="M 297 21.6 
" clip-path="url(#p45b253c074)" style="fill: none; stroke: #000000; stroke-width: 2; stroke-linecap: round"/>
   </g>
   <g id="line2d_33">
    <path d="M 297 21.6 
L 243 21.6 
L 189 21.6 
" clip-path="url(#p45b253c074)" style="fill: none; stroke: #000000; stroke-width: 2; stroke-linecap: round"/>
   </g>
   <g id="line2d_34">
    <path d="M 135 48.6 
L 139.5 48.6 
L 144 48.6 
" clip-path="url(#p45b253c074)" style="fill: none; stroke: #000000; stroke-width: 2; stroke-linecap: round"/>
   </g>
   <g id="line2d_35">
    <path d="M 144 48.6 
L 144 35.1 
L 144 21.6 
" clip-path="url(#p45b253c074)" style="fill: none; stroke: #000000; stroke-width: 2; stroke-linecap: round"/>
   </g>
   <g id="line2d_36">
    <path d="M 189 48.6 
L 184.5 48.6 
L 180 48.6 
" clip-path="url(#p45b253c074)" style="fill: none; stroke: #000000; stroke-width: 2; stroke-linecap: round"/>
   </g>
   <g id="line2d_37">
    <path d="M 180 48.6 
L 180 35.1 
L 180 21.6 
" clip-path="url(#p45b253c074)" style="fill: none; stroke: #000000; stroke-width: 2; stroke-linecap: round"/>
   </g>
   <g id="line2d_38">
    <path d="M 297 48.6 
L 301.5 48.6 
L 306 48.6 
" clip-path="url(#p45b253c074)" style="fill: none; stroke: #000000; stroke-width: 2; stroke-linecap: round"/>
   </g>
   <g id="line2d_39">
    <path d="M 306 48.6 
L 306 35.1 
L 306 21.6 
" clip-path="url(#p45b253c074)" style="fill: none; stroke: #000000; stroke-width: 2; stroke-linecap: round"/>
   </g>
   <g id="line2d_40">
    <path d="M 306 21.6 
L 301.5 21.6 
L 297 21.6 
" clip-path="url(#p45b253c074)" style="fill: none; stroke: #000000; stroke-width: 2; stroke-linecap: round"/>
   </g>
   <g id="line2d_41">
    <path d="M 27 48.6 
L 22.5 48.6 
L 18 48.6 
" clip-path="url(#p45b253c074)" style="fill: none; stroke: #000000; stroke-width: 2; stroke-linecap: round"/>
   </g>
   <g id="line2d_42">
    <path d="M 18 48.6 
L 18 35.1 
L 18 21.6 
" clip-path="url(#p45b253c074)" style="fill: none; stroke: #000000; stroke-width: 2; stroke-linecap: round"/>
   </g>
   <g id="line2d_43">
    <path d="M 18 21.6 
L 22.5 21.6 
L 27 21.6 
" clip-path="url(#p45b253c074)" style="fill: none; stroke: #000000; stroke-width: 2; stroke-linecap: round"/>
   </g>
   <g id="text_1">
    <!-- 1 -->
    <g style="fill: #ff0000" transform="translate(179.623437 13.098047) scale(0.125 -0.125)">
     <defs>
      <path id="DejaVuSans-31" d="M 794 531 
L 1825 531 
L 1825 4091 
L 703 3866 
L 703 4441 
L 1819 4666 
L 2450 4666 
L 2450 531 
L 3481 531 
L 3481 0 
L 794 0 
L 794 531 
z
" transform="scale(0.015625)"/>
     </defs>
     <use xlink:href="#DejaVuSans-31"/>
    </g>
   </g>
   <g id="text_2">
    <!-- 1 -->
    <g style="fill: #ff0000" transform="translate(179.623437 13.098047) scale(0.125 -0.125)">
     <use xlink:href="#DejaVuSans-31"/>
    </g>
   </g>
   <g id="patch_10">
    <path d="M 135 78.3 
C 135.716048 78.3 136.402866 78.015511 136.909188 77.509188 
C 137.415511 77.002866 137.7 76.316048 137.7 75.6 
C 137.7 74.883952 137.415511 74.197134 136.909188 73.690812 
C 136.402866 73.184489 135.716048 72.9 135 72.9 
C 134.283952 72.9 133.597134 73.184489 133.090812 73.690812 
C 132.584489 74.197134 132.3 74.883952 132.3 75.6 
C 132.3 76.316048 132.584489 77.002866 133.090812 77.509188 
C 133.597134 78.015511 134.283952 78.3 135 78.3 
z
" clip-path="url(#p45b253c074)" style="fill: #ff0000; stroke: #ff0000; stroke-width: 2; stroke-linejoin: miter"/>
   </g>
   <g id="text_3">
    <!-- 6 -->
    <g style="fill: #ff0000" transform="translate(134.246875 103.098047) scale(0.125 -0.125)">
     <defs>
      <path id="DejaVuSans-36" d="M 2113 2584 
Q 1688 2584 1439 2293 
Q 1191 2003 1191 1497 
Q 1191 994 1439 701 
Q 1688 409 2113 409 
Q 2538 409 2786 701 
Q 3034 994 3034 1497 
Q 3034 2003 2786 2293 
Q 2538 2584 2113 2584 
z
M 3366 4563 
L 3366 3988 
Q 3128 4100 2886 4159 
Q 2644 4219 2406 4219 
Q 1781 4219 1451 3797 
Q 1122 3375 1075 2522 
Q 1259 2794 1537 2939 
Q 1816 3084 2150 3084 
Q 2853 3084 3261 2657 
Q 3669 2231 3669 1497 
Q 3669 778 3244 343 
Q 2819 -91 2113 -91 
Q 1303 -91 875 529 
Q 447 1150 447 2328 
Q 447 3434 972 4092 
Q 1497 4750 2381 4750 
Q 2619 4750 2861 4703 
Q 3103 4656 3366 4563 
z
" transform="scale(0.015625)"/>
     </defs>
     <use xlink:href="#DejaVuSans-36"/>
    </g>
   </g>
   <g id="patch_11">
    <path d="M 85.8 51.3 
C 86.516048 51.3 87.202866 51.015511 87.709188 50.509188 
C 88.215511 50.002866 88.5 49.316048 88.5 48.6 
C 88.5 47.883952 88.215511 47.197134 87.709188 46.690812 
C 87.202866 46.184489 86.516048 45.9 85.8 45.9 
C 85.083952 45.9 84.397134 46.184489 83.890812 46.690812 
C 83.384489 47.197134 83.1 47.883952 83.1 48.6 
C 83.1 49.316048 83.384489 50.002866 83.890812 50.509188 
C 84.397134 51.015511 85.083952 51.3 85.8 51.3 
z
" clip-path="url(#p45b253c074)" style="stroke: #000000; stroke-width: 2; stroke-linejoin: miter"/>
   </g>
   <g id="patch_12">
    <path d="M 162 24.3 
C 162.716048 24.3 163.402866 24.015511 163.909188 23.509188 
C 164.415511 23.002866 164.7 22.316048 164.7 21.6 
C 164.7 20.883952 164.415511 20.197134 163.909188 19.690812 
C 163.402866 19.184489 162.716048 18.9 162 18.9 
C 161.283952 18.9 160.597134 19.184489 160.090812 19.690812 
C 159.584489 20.197134 159.3 20.883952 159.3 21.6 
C 159.3 22.316048 159.584489 23.002866 160.090812 23.509188 
C 160.597134 24.015511 161.283952 24.3 162 24.3 
z
" clip-path="url(#p45b253c074)" style="fill: #ff0000; stroke: #ff0000; stroke-width: 2; stroke-linejoin: miter"/>
   </g>
   <g id="patch_13">
    <path d="M 189 78.3 
C 189.716048 78.3 190.402866 78.015511 190.909188 77.509188 
C 191.415511 77.002866 191.7 76.316048 191.7 75.6 
C 191.7 74.883952 191.415511 74.197134 190.909188 73.690812 
C 190.402866 73.184489 189.716048 72.9 189 72.9 
C 188.283952 72.9 187.597134 73.184489 187.090812 73.690812 
C 186.584489 74.197134 186.3 74.883952 186.3 75.6 
C 186.3 76.316048 186.584489 77.002866 187.090812 77.509188 
C 187.597134 78.015511 188.283952 78.3 189 78.3 
z
" clip-path="url(#p45b253c074)" style="fill: #ff0000; stroke: #ff0000; stroke-width: 2; stroke-linejoin: miter"/>
   </g>
   <g id="text_4">
    <!-- 4 -->
    <g style="fill: #ff0000" transform="translate(177.446875 103.098047) scale(0.125 -0.125)">
     <defs>
      <path id="DejaVuSans-34" d="M 2419 4116 
L 825 1625 
L 2419 1625 
L 2419 4116 
z
M 2253 4666 
L 3047 4666 
L 3047 1625 
L 3713 1625 
L 3713 1100 
L 3047 1100 
L 3047 0 
L 2419 0 
L 2419 1100 
L 313 1100 
L 313 1709 
L 2253 4666 
z
" transform="scale(0.015625)"/>
     </defs>
     <use xlink:href="#DejaVuSans-34"/>
    </g>
   </g>
   <g id="patch_14">
    <path d="M 238.2 51.3 
C 238.916048 51.3 239.602866 51.015511 240.109188 50.509188 
C 240.615511 50.002866 240.9 49.316048 240.9 48.6 
C 240.9 47.883952 240.615511 47.197134 240.109188 46.690812 
C 239.602866 46.184489 238.916048 45.9 238.2 45.9 
C 237.483952 45.9 236.797134 46.184489 236.290812 46.690812 
C 235.784489 47.197134 235.5 47.883952 235.5 48.6 
C 235.5 49.316048 235.784489 50.002866 236.290812 50.509188 
C 236.797134 51.015511 237.483952 51.3 238.2 51.3 
z
" clip-path="url(#p45b253c074)" style="stroke: #000000; stroke-width: 2; stroke-linejoin: miter"/>
   </g>
   <g id="patch_15">
    <path d="M 27 78.3 
C 27.716048 78.3 28.402866 78.015511 28.909188 77.509188 
C 29.415511 77.002866 29.7 76.316048 29.7 75.6 
C 29.7 74.883952 29.415511 74.197134 28.909188 73.690812 
C 28.402866 73.184489 27.716048 72.9 27 72.9 
C 26.283952 72.9 25.597134 73.184489 25.090812 73.690812 
C 24.584489 74.197134 24.3 74.883952 24.3 75.6 
C 24.3 76.316048 24.584489 77.002866 25.090812 77.509188 
C 25.597134 78.015511 26.283952 78.3 27 78.3 
z
" clip-path="url(#p45b253c074)" style="fill: #ff0000; stroke: #ff0000; stroke-width: 2; stroke-linejoin: miter"/>
   </g>
   <g id="text_5">
    <!-- 5 -->
    <g style="fill: #ff0000" transform="translate(15.446875 103.098047) scale(0.125 -0.125)">
     <defs>
      <path id="DejaVuSans-35" d="M 691 4666 
L 3169 4666 
L 3169 4134 
L 1269 4134 
L 1269 2991 
Q 1406 3038 1543 3061 
Q 1681 3084 1819 3084 
Q 2600 3084 3056 2656 
Q 3513 2228 3513 1497 
Q 3513 744 3044 326 
Q 2575 -91 1722 -91 
Q 1428 -91 1123 -41 
Q 819 9 494 109 
L 494 744 
Q 775 591 1075 516 
Q 1375 441 1709 441 
Q 2250 441 2565 725 
Q 2881 1009 2881 1497 
Q 2881 1984 2565 2268 
Q 2250 2553 1709 2553 
Q 1456 2553 1204 2497 
Q 953 2441 691 2322 
L 691 4666 
z
" transform="scale(0.015625)"/>
     </defs>
     <use xlink:href="#DejaVuSans-35"/>
    </g>
   </g>
   <g id="patch_16">
    <path d="M 297 78.3 
C 297.716048 78.3 298.402866 78.015511 298.909188 77.509188 
C 299.415511 77.002866 299.7 76.316048 299.7 75.6 
C 299.7 74.883952 299.415511 74.197134 298.909188 73.690812 
C 298.402866 73.184489 297.716048 72.9 297 72.9 
C 296.283952 72.9 295.597134 73.184489 295.090812 73.690812 
C 294.584489 74.197134 294.3 74.883952 294.3 75.6 
C 294.3 76.316048 294.584489 77.002866 295.090812 77.509188 
C 295.597134 78.015511 296.283952 78.3 297 78.3 
z
" clip-path="url(#p45b253c074)" style="fill: #ff0000; stroke: #ff0000; stroke-width: 2; stroke-linejoin: miter"/>
   </g>
   <g id="text_6">
    <!-- 3 -->
    <g style="fill: #ff0000" transform="translate(303.446875 103.098047) scale(0.125 -0.125)">
     <defs>
      <path id="DejaVuSans-33" d="M 2597 2516 
Q 3050 2419 3304 2112 
Q 3559 1806 3559 1356 
Q 3559 666 3084 287 
Q 2609 -91 1734 -91 
Q 1441 -91 1130 -33 
Q 819 25 488 141 
L 488 750 
Q 750 597 1062 519 
Q 1375 441 1716 441 
Q 2309 441 2620 675 
Q 2931 909 2931 1356 
Q 2931 1769 2642 2001 
Q 2353 2234 1838 2234 
L 1294 2234 
L 1294 2753 
L 1863 2753 
Q 2328 2753 2575 2939 
Q 2822 3125 2822 3475 
Q 2822 3834 2567 4026 
Q 2313 4219 1838 4219 
Q 1578 4219 1281 4162 
Q 984 4106 628 3988 
L 628 4550 
Q 988 4650 1302 4700 
Q 1616 4750 1894 4750 
Q 2613 4750 3031 4423 
Q 3450 4097 3450 3541 
Q 3450 3153 3228 2886 
Q 3006 2619 2597 2516 
z
" transform="scale(0.015625)"/>
     </defs>
     <use xlink:href="#DejaVuSans-33"/>
    </g>
   </g>
  </g>
 </g>
 <defs>
  <clipPath id="p45b253c074">
   <rect x="3.6" y="3.645" width="316.8" height="78.21"/>
  </clipPath>
 </defs>
</svg>