<?xml version="1.0" encoding="utf-8" standalone="no"?>
<!DOCTYPE svg PUBLIC "-//W3C//DTD SVG 1.1//EN"
  "http://www.w3.org/Graphics/SVG/1.1/DTD/svg11.dtd">
<svg xmlns:xlink="http://www.w3.org/1999/xlink" width="888.3504pt" height="399.76pt" viewBox="0 0 888.3504 399.76" xmlns="http://www.w3.org/2000/svg" version="1.1">
 <metadata>
  <rdf:RDF xmlns:dc="http://purl.org/dc/elements/1.1/" xmlns:cc="http://creativecommons.org/ns#" xmlns:rdf="http://www.w3.org/1999/02/22-rdf-syntax-ns#">
   <cc:Work>
    <dc:type rdf:resource="http://purl.org/dc/dcmitype/StillImage"/>
    <dc:date>2025-11-19T19:54:40.490653</dc:date>
    <dc:format>image/svg+xml</dc:format>
    <dc:creator>
     <cc:Agent>
      <dc:title>Matplotlib v3.10.8, https://matplotlib.org/</dc:title>
     </cc:Agent>
    </dc:creator>
   </cc:Work>
  </rdf:RDF>
 </metadata>
 <defs>
  <style type="text/css">*{stroke-linejoin: round; stroke-linecap: butt}</style>
 </defs>
 <g id="figure_1">
  <g id="patch_1">
   <path d="M 0 399.76 
L 888.3504 399.76 
L 888.3504 0 
L 0 0 
z
" style="fill: #ffffff"/>
  </g>
  <g id="axes_1">
   <g id="line2d_1">
    <path d="M 13.1856 318.544 
L 27.5856 318.544 
L 41.9856 318.544 
" clip-path="url(#pbecae0df7d)" style="fill: none; stroke: #000000; stroke-width: 2; stroke-linecap: round"/>
   </g>
   <g id="line2d_2">
    <path d="M 41.9856 318.544 
L 53.9856 318.544 
L 53.9856 299.344 
L 73.1856 299.344 
L 73.1856 318.544 
L 85.1856 318.544 
" clip-path="url(#pbecae0df7d)" style="fill: none; stroke: #000000; stroke-width: 2; stroke-linecap: round"/>
   </g>
   <g id="line2d_3">
    <path d="M 53.9856 294.544 
L 73.1856 294.544 
" clip-path="url(#pbecae0df7d)" style="fill: none; stroke: #000000; stroke-width: 2; stroke-linecap: round"/>
   </g>
   <g id="line2d_4">
    <path d="M 63.5856 294.544 
L 63.5856 279.184 
" clip-path="url(#pbecae0df7d)" style="fill: none; stroke: #000000; stroke-width: 2; stroke-linecap: round"/>
   </g>
   <g id="line2d_5">
    <path d="M 85.1856 361.744 
L 85.1856 349.744 
L 65.9856 349.744 
L 65.9856 330.544 
L 85.1856 330.544 
L 85.1856 318.544 
" clip-path="url(#pbecae0df7d)" style="fill: none; stroke: #000000; stroke-width: 2; stroke-linecap: round"/>
   </g>
   <g id="line2d_6">
    <path d="M 61.1856 349.744 
L 61.1856 330.544 
" clip-path="url(#pbecae0df7d)" style="fill: none; stroke: #000000; stroke-width: 2; stroke-linecap: round"/>
   </g>
   <g id="line2d_7">
    <path d="M 45.8256 340.144 
L 61.1856 340.144 
" clip-path="url(#pbecae0df7d)" style="fill: none; stroke: #000000; stroke-width: 2; stroke-linecap: round"/>
   </g>
   <g id="line2d_8">
    <path d="M 85.1856 361.744 
L 85.1856 373.264 
L 77.9856 373.264 
L 92.3856 373.264 
M 80.1456 376.72 
L 90.2256 376.72 
M 83.7456 380.176 
L 86.6256 380.176 
" clip-path="url(#pbecae0df7d)" style="fill: none; stroke: #000000; stroke-width: 2; stroke-linecap: round"/>
   </g>
   <g id="line2d_9">
    <path d="M 85.1856 318.544 
L 125.7936 318.544 
M 125.7936 311.344 
L 125.7936 325.744 
M 130.9776 311.344 
L 130.9776 325.744 
M 130.9776 318.544 
L 171.5856 318.544 
" clip-path="url(#pbecae0df7d)" style="fill: none; stroke: #000000; stroke-width: 2; stroke-linecap: round"/>
   </g>
   <g id="line2d_10">
    <path d="M 171.5856 361.744 
L 171.5856 349.744 
L 152.3856 349.744 
L 152.3856 330.544 
L 171.5856 330.544 
L 171.5856 318.544 
" clip-path="url(#pbecae0df7d)" style="fill: none; stroke: #000000; stroke-width: 2; stroke-linecap: round"/>
   </g>
   <g id="line2d_11">
    <path d="M 147.5856 349.744 
L 147.5856 330.544 
" clip-path="url(#pbecae0df7d)" style="fill: none; stroke: #000000; stroke-width: 2; stroke-linecap: round"/>
   </g>
   <g id="line2d_12">
    <path d="M 132.2256 340.144 
L 147.5856 340.144 
" clip-path="url(#pbecae0df7d)" style="fill: none; stroke: #000000; stroke-width: 2; stroke-linecap: round"/>
   </g>
   <g id="line2d_13">
    <path d="M 171.5856 361.744 
L 171.5856 373.264 
L 164.3856 373.264 
L 178.7856 373.264 
M 166.5456 376.72 
L 176.6256 376.72 
M 170.1456 380.176 
L 173.0256 380.176 
" clip-path="url(#pbecae0df7d)" style="fill: none; stroke: #000000; stroke-width: 2; stroke-linecap: round"/>
   </g>
   <g id="line2d_14">
    <path d="M 171.5856 318.544 
L 183.5856 318.544 
L 183.5856 299.344 
L 202.7856 299.344 
L 202.7856 318.544 
L 214.7856 318.544 
" clip-path="url(#pbecae0df7d)" style="fill: none; stroke: #000000; stroke-width: 2; stroke-linecap: round"/>
   </g>
   <g id="line2d_15">
    <path d="M 183.5856 294.544 
L 202.7856 294.544 
" clip-path="url(#pbecae0df7d)" style="fill: none; stroke: #000000; stroke-width: 2; stroke-linecap: round"/>
   </g>
   <g id="line2d_16">
    <path d="M 193.1856 294.544 
L 193.1856 279.184 
" clip-path="url(#pbecae0df7d)" style="fill: none; stroke: #000000; stroke-width: 2; stroke-linecap: round"/>
   </g>
   <g id="line2d_17">
    <path d="M 214.7856 318.544 
L 229.1856 318.544 
L 243.5856 318.544 
" clip-path="url(#pbecae0df7d)" style="fill: none; stroke: #000000; stroke-width: 2; stroke-linecap: round"/>
   </g>
   <g id="line2d_18">
    <path d="M 243.5856 318.544 
L 250.7856 318.544 
L 257.9856 318.544 
" clip-path="url(#pbecae0df7d)" style="fill: none; stroke: #000000; stroke-width: 2; stroke-linecap: round"/>
   </g>
   <g id="line2d_19">
    <path d="M 257.9856 336.544 
L 257.9856 300.544 
L 320.339429 336.544 
L 257.9856 372.544 
L 257.9856 336.544 
M 320.339429 336.544 
" clip-path="url(#pbecae0df7d)" style="fill: none; stroke: #000000; stroke-width: 2; stroke-linecap: round"/>
   </g>
   <g id="line2d_20">
    <path d="M 262.899829 318.544 
L 268.659829 318.544 
" clip-path="url(#pbecae0df7d)" style="fill: none; stroke: #000000; stroke-width: 2; stroke-linecap: round"/>
   </g>
   <g id="line2d_21">
    <path d="M 262.899829 354.544 
L 268.659829 354.544 
" clip-path="url(#pbecae0df7d)" style="fill: none; stroke: #000000; stroke-width: 2; stroke-linecap: round"/>
   </g>
   <g id="line2d_22">
    <path d="M 265.779829 357.424 
L 265.779829 351.664 
" clip-path="url(#pbecae0df7d)" style="fill: none; stroke: #000000; stroke-width: 2; stroke-linecap: round"/>
   </g>
   <g id="line2d_23">
    <path d="M 257.9856 354.544 
L 243.5856 354.544 
L 229.1856 354.544 
" clip-path="url(#pbecae0df7d)" style="fill: none; stroke: #000000; stroke-width: 2; stroke-linecap: round"/>
   </g>
   <g id="line2d_24">
    <path d="M 229.1856 354.544 
L 229.1856 366.064 
L 229.1856 377.584 
" clip-path="url(#pbecae0df7d)" style="fill: none; stroke: #000000; stroke-width: 2; stroke-linecap: round"/>
   </g>
   <g id="line2d_25">
    <path d="M 229.1856 377.584 
L 229.1856 389.104 
L 221.9856 389.104 
L 236.3856 389.104 
M 224.1456 392.56 
L 234.2256 392.56 
M 227.7456 396.016 
L 230.6256 396.016 
" clip-path="url(#pbecae0df7d)" style="fill: none; stroke: #000000; stroke-width: 2; stroke-linecap: round"/>
   </g>
   <g id="line2d_26">
    <path d="M 243.5856 318.544 
L 243.5856 289.744 
L 243.5856 260.944 
" clip-path="url(#pbecae0df7d)" style="fill: none; stroke: #000000; stroke-width: 2; stroke-linecap: round"/>
   </g>
   <g id="line2d_27">
    <path d="M 243.5856 260.944 
L 257.9856 260.944 
L 272.3856 260.944 
" clip-path="url(#pbecae0df7d)" style="fill: none; stroke: #000000; stroke-width: 2; stroke-linecap: round"/>
   </g>
   <g id="line2d_28">
    <path d="M 272.3856 260.944 
L 284.3856 260.944 
L 284.3856 241.744 
L 303.5856 241.744 
L 303.5856 260.944 
L 315.5856 260.944 
" clip-path="url(#pbecae0df7d)" style="fill: none; stroke: #000000; stroke-width: 2; stroke-linecap: round"/>
   </g>
   <g id="line2d_29">
    <path d="M 284.3856 236.944 
L 303.5856 236.944 
" clip-path="url(#pbecae0df7d)" style="fill: none; stroke: #000000; stroke-width: 2; stroke-linecap: round"/>
   </g>
   <g id="line2d_30">
    <path d="M 293.9856 236.944 
L 293.9856 221.584 
" clip-path="url(#pbecae0df7d)" style="fill: none; stroke: #000000; stroke-width: 2; stroke-linecap: round"/>
   </g>
   <g id="line2d_31">
    <path d="M 315.5856 304.144 
L 315.5856 292.144 
L 296.3856 292.144 
L 296.3856 272.944 
L 315.5856 272.944 
L 315.5856 260.944 
" clip-path="url(#pbecae0df7d)" style="fill: none; stroke: #000000; stroke-width: 2; stroke-linecap: round"/>
   </g>
   <g id="line2d_32">
    <path d="M 291.5856 292.144 
L 291.5856 272.944 
" clip-path="url(#pbecae0df7d)" style="fill: none; stroke: #000000; stroke-width: 2; stroke-linecap: round"/>
   </g>
   <g id="line2d_33">
    <path d="M 276.2256 282.544 
L 291.5856 282.544 
" clip-path="url(#pbecae0df7d)" style="fill: none; stroke: #000000; stroke-width: 2; stroke-linecap: round"/>
   </g>
   <g id="line2d_34">
    <path d="M 315.5856 304.144 
L 315.5856 315.664 
L 308.3856 315.664 
L 322.7856 315.664 
M 310.5456 319.12 
L 320.6256 319.12 
M 314.1456 322.576 
L 317.0256 322.576 
" clip-path="url(#pbecae0df7d)" style="fill: none; stroke: #000000; stroke-width: 2; stroke-linecap: round"/>
   </g>
   <g id="line2d_35">
    <path d="M 315.5856 260.944 
L 356.1936 260.944 
M 356.1936 253.744 
L 356.1936 268.144 
M 361.3776 253.744 
L 361.3776 268.144 
M 361.3776 260.944 
L 401.9856 260.944 
" clip-path="url(#pbecae0df7d)" style="fill: none; stroke: #000000; stroke-width: 2; stroke-linecap: round"/>
   </g>
   <g id="line2d_36">
    <path d="M 401.9856 304.144 
L 401.9856 292.144 
L 382.7856 292.144 
L 382.7856 272.944 
L 401.9856 272.944 
L 401.9856 260.944 
" clip-path="url(#pbecae0df7d)" style="fill: none; stroke: #000000; stroke-width: 2; stroke-linecap: round"/>
   </g>
   <g id="line2d_37">
    <path d="M 377.9856 292.144 
L 377.9856 272.944 
" clip-path="url(#pbecae0df7d)" style="fill: none; stroke: #000000; stroke-width: 2; stroke-linecap: round"/>
   </g>
   <g id="line2d_38">
    <path d="M 362.6256 282.544 
L 377.9856 282.544 
" clip-path="url(#pbecae0df7d)" style="fill: none; stroke: #000000; stroke-width: 2; stroke-linecap: round"/>
   </g>
   <g id="line2d_39">
    <path d="M 401.9856 304.144 
L 401.9856 315.664 
L 394.7856 315.664 
L 409.1856 315.664 
M 396.9456 319.12 
L 407.0256 319.12 
M 400.5456 322.576 
L 403.4256 322.576 
" clip-path="url(#pbecae0df7d)" style="fill: none; stroke: #000000; stroke-width: 2; stroke-linecap: round"/>
   </g>
   <g id="line2d_40">
    <path d="M 401.9856 260.944 
L 413.9856 260.944 
L 413.9856 241.744 
L 433.1856 241.744 
L 433.1856 260.944 
L 445.1856 260.944 
" clip-path="url(#pbecae0df7d)" style="fill: none; stroke: #000000; stroke-width: 2; stroke-linecap: round"/>
   </g>
   <g id="line2d_41">
    <path d="M 413.9856 236.944 
L 433.1856 236.944 
" clip-path="url(#pbecae0df7d)" style="fill: none; stroke: #000000; stroke-width: 2; stroke-linecap: round"/>
   </g>
   <g id="line2d_42">
    <path d="M 423.5856 236.944 
L 423.5856 221.584 
" clip-path="url(#pbecae0df7d)" style="fill: none; stroke: #000000; stroke-width: 2; stroke-linecap: round"/>
   </g>
   <g id="line2d_43">
    <path d="M 445.1856 260.944 
L 459.5856 260.944 
L 473.9856 260.944 
" clip-path="url(#pbecae0df7d)" style="fill: none; stroke: #000000; stroke-width: 2; stroke-linecap: round"/>
   </g>
   <g id="line2d_44">
    <path d="M 243.5856 260.944 
L 243.5856 217.744 
L 243.5856 174.544 
" clip-path="url(#pbecae0df7d)" style="fill: none; stroke: #000000; stroke-width: 2; stroke-linecap: round"/>
   </g>
   <g id="line2d_45">
    <path d="M 243.5856 174.544 
L 356.1936 174.544 
M 356.1936 167.344 
L 356.1936 181.744 
M 361.3776 167.344 
L 361.3776 181.744 
M 361.3776 174.544 
L 473.9856 174.544 
" clip-path="url(#pbecae0df7d)" style="fill: none; stroke: #000000; stroke-width: 2; stroke-linecap: round"/>
   </g>
   <g id="line2d_46">
    <path d="M 473.9856 174.544 
L 473.9856 246.544 
L 473.9856 318.544 
" clip-path="url(#pbecae0df7d)" style="fill: none; stroke: #000000; stroke-width: 2; stroke-linecap: round"/>
   </g>
   <g id="line2d_47">
    <path d="M 473.9856 318.544 
L 473.9856 327.544 
L 473.9856 336.544 
" clip-path="url(#pbecae0df7d)" style="fill: none; stroke: #000000; stroke-width: 2; stroke-linecap: round"/>
   </g>
   <g id="line2d_48">
    <path d="M 473.9856 336.544 
L 397.162515 336.544 
L 320.339429 336.544 
" clip-path="url(#pbecae0df7d)" style="fill: none; stroke: #000000; stroke-width: 2; stroke-linecap: round"/>
   </g>
   <g id="line2d_49">
    <path d="M 473.9856 318.544 
L 502.7856 318.544 
L 531.5856 318.544 
" clip-path="url(#pbecae0df7d)" style="fill: none; stroke: #000000; stroke-width: 2; stroke-linecap: round"/>
   </g>
   <g id="line2d_50">
    <path d="M 531.5856 318.544 
L 543.5856 318.544 
L 543.5856 299.344 
L 562.7856 299.344 
L 562.7856 318.544 
L 574.7856 318.544 
" clip-path="url(#pbecae0df7d)" style="fill: none; stroke: #000000; stroke-width: 2; stroke-linecap: round"/>
   </g>
   <g id="line2d_51">
    <path d="M 543.5856 294.544 
L 562.7856 294.544 
" clip-path="url(#pbecae0df7d)" style="fill: none; stroke: #000000; stroke-width: 2; stroke-linecap: round"/>
   </g>
   <g id="line2d_52">
    <path d="M 553.1856 294.544 
L 553.1856 279.184 
" clip-path="url(#pbecae0df7d)" style="fill: none; stroke: #000000; stroke-width: 2; stroke-linecap: round"/>
   </g>
   <g id="line2d_53">
    <path d="M 574.7856 361.744 
L 574.7856 349.744 
L 555.5856 349.744 
L 555.5856 330.544 
L 574.7856 330.544 
L 574.7856 318.544 
" clip-path="url(#pbecae0df7d)" style="fill: none; stroke: #000000; stroke-width: 2; stroke-linecap: round"/>
   </g>
   <g id="line2d_54">
    <path d="M 550.7856 349.744 
L 550.7856 330.544 
" clip-path="url(#pbecae0df7d)" style="fill: none; stroke: #000000; stroke-width: 2; stroke-linecap: round"/>
   </g>
   <g id="line2d_55">
    <path d="M 535.4256 340.144 
L 550.7856 340.144 
" clip-path="url(#pbecae0df7d)" style="fill: none; stroke: #000000; stroke-width: 2; stroke-linecap: round"/>
   </g>
   <g id="line2d_56">
    <path d="M 574.7856 361.744 
L 574.7856 373.264 
L 567.5856 373.264 
L 581.9856 373.264 
M 569.7456 376.72 
L 579.8256 376.72 
M 573.3456 380.176 
L 576.2256 380.176 
" clip-path="url(#pbecae0df7d)" style="fill: none; stroke: #000000; stroke-width: 2; stroke-linecap: round"/>
   </g>
   <g id="line2d_57">
    <path d="M 574.7856 318.544 
L 615.3936 318.544 
M 615.3936 311.344 
L 615.3936 325.744 
M 620.5776 311.344 
L 620.5776 325.744 
M 620.5776 318.544 
L 661.1856 318.544 
" clip-path="url(#pbecae0df7d)" style="fill: none; stroke: #000000; stroke-width: 2; stroke-linecap: round"/>
   </g>
   <g id="line2d_58">
    <path d="M 661.1856 361.744 
L 661.1856 349.744 
L 641.9856 349.744 
L 641.9856 330.544 
L 661.1856 330.544 
L 661.1856 318.544 
" clip-path="url(#pbecae0df7d)" style="fill: none; stroke: #000000; stroke-width: 2; stroke-linecap: round"/>
   </g>
   <g id="line2d_59">
    <path d="M 637.1856 349.744 
L 637.1856 330.544 
" clip-path="url(#pbecae0df7d)" style="fill: none; stroke: #000000; stroke-width: 2; stroke-linecap: round"/>
   </g>
   <g id="line2d_60">
    <path d="M 621.8256 340.144 
L 637.1856 340.144 
" clip-path="url(#pbecae0df7d)" style="fill: none; stroke: #000000; stroke-width: 2; stroke-linecap: round"/>
   </g>
   <g id="line2d_61">
    <path d="M 661.1856 361.744 
L 661.1856 373.264 
L 653.9856 373.264 
L 668.3856 373.264 
M 656.1456 376.72 
L 666.2256 376.72 
M 659.7456 380.176 
L 662.6256 380.176 
" clip-path="url(#pbecae0df7d)" style="fill: none; stroke: #000000; stroke-width: 2; stroke-linecap: round"/>
   </g>
   <g id="line2d_62">
    <path d="M 661.1856 318.544 
L 673.1856 318.544 
L 673.1856 299.344 
L 692.3856 299.344 
L 692.3856 318.544 
L 704.3856 318.544 
" clip-path="url(#pbecae0df7d)" style="fill: none; stroke: #000000; stroke-width: 2; stroke-linecap: round"/>
   </g>
   <g id="line2d_63">
    <path d="M 673.1856 294.544 
L 692.3856 294.544 
" clip-path="url(#pbecae0df7d)" style="fill: none; stroke: #000000; stroke-width: 2; stroke-linecap: round"/>
   </g>
   <g id="line2d_64">
    <path d="M 682.7856 294.544 
L 682.7856 279.184 
" clip-path="url(#pbecae0df7d)" style="fill: none; stroke: #000000; stroke-width: 2; stroke-linecap: round"/>
   </g>
   <g id="line2d_65">
    <path d="M 704.3856 318.544 
L 718.7856 318.544 
L 733.1856 318.544 
" clip-path="url(#pbecae0df7d)" style="fill: none; stroke: #000000; stroke-width: 2; stroke-linecap: round"/>
   </g>
   <g id="line2d_66">
    <path d="M 733.1856 318.544 
L 740.3856 318.544 
L 747.5856 318.544 
" clip-path="url(#pbecae0df7d)" style="fill: none; stroke: #000000; stroke-width: 2; stroke-linecap: round"/>
   </g>
   <g id="line2d_67">
    <path d="M 747.5856 336.544 
L 747.5856 300.544 
L 809.939429 336.544 
L 747.5856 372.544 
L 747.5856 336.544 
M 809.939429 336.544 
" clip-path="url(#pbecae0df7d)" style="fill: none; stroke: #000000; stroke-width: 2; stroke-linecap: round"/>
   </g>
   <g id="line2d_68">
    <path d="M 752.499829 318.544 
L 758.259829 318.544 
" clip-path="url(#pbecae0df7d)" style="fill: none; stroke: #000000; stroke-width: 2; stroke-linecap: round"/>
   </g>
   <g id="line2d_69">
    <path d="M 752.499829 354.544 
L 758.259829 354.544 
" clip-path="url(#pbecae0df7d)" style="fill: none; stroke: #000000; stroke-width: 2; stroke-linecap: round"/>
   </g>
   <g id="line2d_70">
    <path d="M 755.379829 357.424 
L 755.379829 351.664 
" clip-path="url(#pbecae0df7d)" style="fill: none; stroke: #000000; stroke-width: 2; stroke-linecap: round"/>
   </g>
   <g id="line2d_71">
    <path d="M 747.5856 354.544 
L 733.1856 354.544 
L 718.7856 354.544 
" clip-path="url(#pbecae0df7d)" style="fill: none; stroke: #000000; stroke-width: 2; stroke-linecap: round"/>
   </g>
   <g id="line2d_72">
    <path d="M 718.7856 354.544 
L 718.7856 366.064 
L 718.7856 377.584 
" clip-path="url(#pbecae0df7d)" style="fill: none; stroke: #000000; stroke-width: 2; stroke-linecap: round"/>
   </g>
   <g id="line2d_73">
    <path d="M 718.7856 377.584 
L 718.7856 389.104 
L 711.5856 389.104 
L 725.9856 389.104 
M 713.7456 392.56 
L 723.8256 392.56 
M 717.3456 396.016 
L 720.2256 396.016 
" clip-path="url(#pbecae0df7d)" style="fill: none; stroke: #000000; stroke-width: 2; stroke-linecap: round"/>
   </g>
   <g id="line2d_74">
    <path d="M 733.1856 318.544 
L 733.1856 289.744 
L 733.1856 260.944 
" clip-path="url(#pbecae0df7d)" style="fill: none; stroke: #000000; stroke-width: 2; stroke-linecap: round"/>
   </g>
   <g id="line2d_75">
    <path d="M 733.1856 260.944 
L 788.1936 260.944 
M 788.1936 253.744 
L 788.1936 268.144 
M 793.3776 253.744 
L 793.3776 268.144 
M 793.3776 260.944 
L 848.3856 260.944 
" clip-path="url(#pbecae0df7d)" style="fill: none; stroke: #000000; stroke-width: 2; stroke-linecap: round"/>
   </g>
   <g id="line2d_76">
    <path d="M 848.3856 260.944 
L 848.3856 298.744 
L 848.3856 336.544 
" clip-path="url(#pbecae0df7d)" style="fill: none; stroke: #000000; stroke-width: 2; stroke-linecap: round"/>
   </g>
   <g id="line2d_77">
    <path d="M 848.3856 336.544 
L 829.162515 336.544 
L 809.939429 336.544 
" clip-path="url(#pbecae0df7d)" style="fill: none; stroke: #000000; stroke-width: 2; stroke-linecap: round"/>
   </g>
   <g id="line2d_78">
    <path d="M 243.5856 174.544 
L 243.5856 116.944 
L 243.5856 59.344 
" clip-path="url(#pbecae0df7d)" style="fill: none; stroke: #000000; stroke-width: 2; stroke-linecap: round"/>
   </g>
   <g id="line2d_79">
    <path d="M 243.5856 59.344 
L 301.1856 59.344 
L 358.7856 59.344 
" clip-path="url(#pbecae0df7d)" style="fill: none; stroke: #000000; stroke-width: 2; stroke-linecap: round"/>
   </g>
   <g id="line2d_80">
    <path d="M 358.7856 59.344 
L 373.1856 59.344 
L 387.5856 59.344 
" clip-path="url(#pbecae0df7d)" style="fill: none; stroke: #000000; stroke-width: 2; stroke-linecap: round"/>
   </g>
   <g id="line2d_81">
    <path d="M 387.5856 59.344 
L 399.5856 59.344 
L 399.5856 40.144 
L 418.7856 40.144 
L 418.7856 59.344 
L 430.7856 59.344 
" clip-path="url(#pbecae0df7d)" style="fill: none; stroke: #000000; stroke-width: 2; stroke-linecap: round"/>
   </g>
   <g id="line2d_82">
    <path d="M 399.5856 35.344 
L 418.7856 35.344 
" clip-path="url(#pbecae0df7d)" style="fill: none; stroke: #000000; stroke-width: 2; stroke-linecap: round"/>
   </g>
   <g id="line2d_83">
    <path d="M 409.1856 35.344 
L 409.1856 19.984 
" clip-path="url(#pbecae0df7d)" style="fill: none; stroke: #000000; stroke-width: 2; stroke-linecap: round"/>
   </g>
   <g id="line2d_84">
    <path d="M 430.7856 102.544 
L 430.7856 90.544 
L 411.5856 90.544 
L 411.5856 71.344 
L 430.7856 71.344 
L 430.7856 59.344 
" clip-path="url(#pbecae0df7d)" style="fill: none; stroke: #000000; stroke-width: 2; stroke-linecap: round"/>
   </g>
   <g id="line2d_85">
    <path d="M 406.7856 90.544 
L 406.7856 71.344 
" clip-path="url(#pbecae0df7d)" style="fill: none; stroke: #000000; stroke-width: 2; stroke-linecap: round"/>
   </g>
   <g id="line2d_86">
    <path d="M 391.4256 80.944 
L 406.7856 80.944 
" clip-path="url(#pbecae0df7d)" style="fill: none; stroke: #000000; stroke-width: 2; stroke-linecap: round"/>
   </g>
   <g id="line2d_87">
    <path d="M 430.7856 102.544 
L 430.7856 114.064 
L 423.5856 114.064 
L 437.9856 114.064 
M 425.7456 117.52 
L 435.8256 117.52 
M 429.3456 120.976 
L 432.2256 120.976 
" clip-path="url(#pbecae0df7d)" style="fill: none; stroke: #000000; stroke-width: 2; stroke-linecap: round"/>
   </g>
   <g id="line2d_88">
    <path d="M 430.7856 59.344 
L 471.3936 59.344 
M 471.3936 52.144 
L 471.3936 66.544 
M 476.5776 52.144 
L 476.5776 66.544 
M 476.5776 59.344 
L 517.1856 59.344 
" clip-path="url(#pbecae0df7d)" style="fill: none; stroke: #000000; stroke-width: 2; stroke-linecap: round"/>
   </g>
   <g id="line2d_89">
    <path d="M 517.1856 102.544 
L 517.1856 90.544 
L 497.9856 90.544 
L 497.9856 71.344 
L 517.1856 71.344 
L 517.1856 59.344 
" clip-path="url(#pbecae0df7d)" style="fill: none; stroke: #000000; stroke-width: 2; stroke-linecap: round"/>
   </g>
   <g id="line2d_90">
    <path d="M 493.1856 90.544 
L 493.1856 71.344 
" clip-path="url(#pbecae0df7d)" style="fill: none; stroke: #000000; stroke-width: 2; stroke-linecap: round"/>
   </g>
   <g id="line2d_91">
    <path d="M 477.8256 80.944 
L 493.1856 80.944 
" clip-path="url(#pbecae0df7d)" style="fill: none; stroke: #000000; stroke-width: 2; stroke-linecap: round"/>
   </g>
   <g id="line2d_92">
    <path d="M 517.1856 102.544 
L 517.1856 114.064 
L 509.9856 114.064 
L 524.3856 114.064 
M 512.1456 117.52 
L 522.2256 117.52 
M 515.7456 120.976 
L 518.6256 120.976 
" clip-path="url(#pbecae0df7d)" style="fill: none; stroke: #000000; stroke-width: 2; stroke-linecap: round"/>
   </g>
   <g id="line2d_93">
    <path d="M 517.1856 59.344 
L 529.1856 59.344 
L 529.1856 40.144 
L 548.3856 40.144 
L 548.3856 59.344 
L 560.3856 59.344 
" clip-path="url(#pbecae0df7d)" style="fill: none; stroke: #000000; stroke-width: 2; stroke-linecap: round"/>
   </g>
   <g id="line2d_94">
    <path d="M 529.1856 35.344 
L 548.3856 35.344 
" clip-path="url(#pbecae0df7d)" style="fill: none; stroke: #000000; stroke-width: 2; stroke-linecap: round"/>
   </g>
   <g id="line2d_95">
    <path d="M 538.7856 35.344 
L 538.7856 19.984 
" clip-path="url(#pbecae0df7d)" style="fill: none; stroke: #000000; stroke-width: 2; stroke-linecap: round"/>
   </g>
   <g id="line2d_96">
    <path d="M 560.3856 59.344 
L 574.7856 59.344 
L 589.1856 59.344 
" clip-path="url(#pbecae0df7d)" style="fill: none; stroke: #000000; stroke-width: 2; stroke-linecap: round"/>
   </g>
   <g id="line2d_97">
    <path d="M 589.1856 59.344 
L 718.7856 59.344 
L 848.3856 59.344 
" clip-path="url(#pbecae0df7d)" style="fill: none; stroke: #000000; stroke-width: 2; stroke-linecap: round"/>
   </g>
   <g id="line2d_98">
    <path d="M 848.3856 59.344 
L 848.3856 160.144 
L 848.3856 260.944 
" clip-path="url(#pbecae0df7d)" style="fill: none; stroke: #000000; stroke-width: 2; stroke-linecap: round"/>
   </g>
   <g id="text_1">
    <!-- $C_{11}$ -->
    <g transform="translate(117.0456 305.552438) scale(0.14 -0.14)">
     <defs>
      <path id="DejaVuSans-Oblique-43" d="M 4447 4306 
L 4319 3641 
Q 4019 3944 3683 4091 
Q 3347 4238 2956 4238 
Q 2422 4238 2017 3981 
Q 1613 3725 1319 3200 
Q 1131 2863 1032 2486 
Q 934 2109 934 1728 
Q 934 1091 1264 756 
Q 1594 422 2222 422 
Q 2656 422 3056 561 
Q 3456 700 3834 978 
L 3688 231 
Q 3316 72 2936 -9 
Q 2556 -91 2175 -91 
Q 1278 -91 773 396 
Q 269 884 269 1753 
Q 269 2309 461 2846 
Q 653 3384 1013 3828 
Q 1394 4300 1883 4525 
Q 2372 4750 3022 4750 
Q 3422 4750 3780 4639 
Q 4138 4528 4447 4306 
z
" transform="scale(0.015625)"/>
      <path id="DejaVuSans-31" d="M 794 531 
L 1825 531 
L 1825 4091 
L 703 3866 
L 703 4441 
L 1819 4666 
L 2450 4666 
L 2450 531 
L 3481 531 
L 3481 0 
L 794 0 
L 794 531 
z
" transform="scale(0.015625)"/>
     </defs>
     <use xlink:href="#DejaVuSans-Oblique-43" transform="translate(0 0.78125)"/>
     <use xlink:href="#DejaVuSans-31" transform="translate(69.824219 -15.625) scale(0.7)"/>
     <use xlink:href="#DejaVuSans-31" transform="translate(114.360352 -15.625) scale(0.7)"/>
    </g>
   </g>
   <g id="text_2">
    <!-- $C_{12}$ -->
    <g transform="translate(347.4456 247.952438) scale(0.14 -0.14)">
     <defs>
      <path id="DejaVuSans-32" d="M 1228 531 
L 3431 531 
L 3431 0 
L 469 0 
L 469 531 
Q 828 903 1448 1529 
Q 2069 2156 2228 2338 
Q 2531 2678 2651 2914 
Q 2772 3150 2772 3378 
Q 2772 3750 2511 3984 
Q 2250 4219 1831 4219 
Q 1534 4219 1204 4116 
Q 875 4013 500 3803 
L 500 4441 
Q 881 4594 1212 4672 
Q 1544 4750 1819 4750 
Q 2544 4750 2975 4387 
Q 3406 4025 3406 3419 
Q 3406 3131 3298 2873 
Q 3191 2616 2906 2266 
Q 2828 2175 2409 1742 
Q 1991 1309 1228 531 
z
" transform="scale(0.015625)"/>
     </defs>
     <use xlink:href="#DejaVuSans-Oblique-43" transform="translate(0 0.78125)"/>
     <use xlink:href="#DejaVuSans-31" transform="translate(69.824219 -15.625) scale(0.7)"/>
     <use xlink:href="#DejaVuSans-32" transform="translate(114.360352 -15.625) scale(0.7)"/>
    </g>
   </g>
   <g id="text_3">
    <!-- $C_{1}$ -->
    <g transform="translate(350.5256 161.552438) scale(0.14 -0.14)">
     <use xlink:href="#DejaVuSans-Oblique-43" transform="translate(0 0.78125)"/>
     <use xlink:href="#DejaVuSans-31" transform="translate(69.824219 -15.625) scale(0.7)"/>
    </g>
   </g>
   <g id="text_4">
    <!-- $C_{21}$ -->
    <g transform="translate(606.6456 305.552438) scale(0.14 -0.14)">
     <use xlink:href="#DejaVuSans-Oblique-43" transform="translate(0 0.78125)"/>
     <use xlink:href="#DejaVuSans-32" transform="translate(69.824219 -15.625) scale(0.7)"/>
     <use xlink:href="#DejaVuSans-31" transform="translate(114.360352 -15.625) scale(0.7)"/>
    </g>
   </g>
   <g id="text_5">
    <!-- $C_{2}$ -->
    <g transform="translate(782.5256 247.952438) scale(0.14 -0.14)">
     <use xlink:href="#DejaVuSans-Oblique-43" transform="translate(0 0.78125)"/>
     <use xlink:href="#DejaVuSans-32" transform="translate(69.824219 -15.625) scale(0.7)"/>
    </g>
   </g>
   <g id="text_6">
    <!-- $C_{13}$ -->
    <g transform="translate(462.6456 46.352438) scale(0.14 -0.14)">
     <defs>
      <path id="DejaVuSans-33" d="M 2597 2516 
Q 3050 2419 3304 2112 
Q 3559 1806 3559 1356 
Q 3559 666 3084 287 
Q 2609 -91 1734 -91 
Q 1441 -91 1130 -33 
Q 819 25 488 141 
L 488 750 
Q 750 597 1062 519 
Q 1375 441 1716 441 
Q 2309 441 2620 675 
Q 2931 909 2931 1356 
Q 2931 1769 2642 2001 
Q 2353 2234 1838 2234 
L 1294 2234 
L 1294 2753 
L 1863 2753 
Q 2328 2753 2575 2939 
Q 2822 3125 2822 3475 
Q 2822 3834 2567 4026 
Q 2313 4219 1838 4219 
Q 1578 4219 1281 4162 
Q 984 4106 628 3988 
L 628 4550 
Q 988 4650 1302 4700 
Q 1616 4750 1894 4750 
Q 2613 4750 3031 4423 
Q 3450 4097 3450 3541 
Q 3450 3153 3228 2886 
Q 3006 2619 2597 2516 
z
" transform="scale(0.015625)"/>
     </defs>
     <use xlink:href="#DejaVuSans-Oblique-43" transform="translate(0 0.78125)"/>
     <use xlink:href="#DejaVuSans-31" transform="translate(69.824219 -15.625) scale(0.7)"/>
     <use xlink:href="#DejaVuSans-33" transform="translate(114.360352 -15.625) scale(0.7)"/>
    </g>
   </g>
   <g id="patch_2">
    <path d="M 13.1856 320.704 
C 13.758439 320.704 14.307893 320.476409 14.712951 320.071351 
C 15.118009 319.666293 15.3456 319.116839 15.3456 318.544 
C 15.3456 317.971161 15.118009 317.421707 14.712951 317.016649 
C 14.307893 316.611591 13.758439 316.384 13.1856 316.384 
C 12.612761 316.384 12.063307 316.611591 11.658249 317.016649 
C 11.253191 317.421707 11.0256 317.971161 11.0256 318.544 
C 11.0256 319.116839 11.253191 319.666293 11.658249 320.071351 
C 12.063307 320.476409 12.612761 320.704 13.1856 320.704 
z
" clip-path="url(#pbecae0df7d)" style="fill: #ffffff; stroke: #000000; stroke-width: 2; stroke-linejoin: miter"/>
   </g>
   <g id="text_7">
    <!-- $V_{in}$ -->
    <g transform="translate(3.7356 310.592438) scale(0.14 -0.14)">
     <defs>
      <path id="DejaVuSans-Oblique-56" d="M 1319 0 
L 500 4666 
L 1119 4666 
L 1797 653 
L 4063 4666 
L 4750 4666 
L 2053 0 
L 1319 0 
z
" transform="scale(0.015625)"/>
      <path id="DejaVuSans-Oblique-69" d="M 1172 4863 
L 1747 4863 
L 1606 4134 
L 1031 4134 
L 1172 4863 
z
M 909 3500 
L 1484 3500 
L 800 0 
L 225 0 
L 909 3500 
z
" transform="scale(0.015625)"/>
      <path id="DejaVuSans-Oblique-6e" d="M 3566 2113 
L 3156 0 
L 2578 0 
L 2988 2091 
Q 3016 2238 3031 2350 
Q 3047 2463 3047 2528 
Q 3047 2791 2881 2937 
Q 2716 3084 2419 3084 
Q 1956 3084 1622 2776 
Q 1288 2469 1184 1941 
L 800 0 
L 225 0 
L 903 3500 
L 1478 3500 
L 1363 2950 
Q 1603 3253 1940 3418 
Q 2278 3584 2650 3584 
Q 3113 3584 3367 3334 
Q 3622 3084 3622 2631 
Q 3622 2519 3608 2391 
Q 3594 2263 3566 2113 
z
" transform="scale(0.015625)"/>
     </defs>
     <use xlink:href="#DejaVuSans-Oblique-56" transform="translate(0 0.09375)"/>
     <use xlink:href="#DejaVuSans-Oblique-69" transform="translate(68.408203 -16.3125) scale(0.7)"/>
     <use xlink:href="#DejaVuSans-Oblique-6e" transform="translate(87.856445 -16.3125) scale(0.7)"/>
    </g>
   </g>
   <g id="patch_3">
    <path d="M 85.1856 320.704 
C 85.758439 320.704 86.307893 320.476409 86.712951 320.071351 
C 87.118009 319.666293 87.3456 319.116839 87.3456 318.544 
C 87.3456 317.971161 87.118009 317.421707 86.712951 317.016649 
C 86.307893 316.611591 85.758439 316.384 85.1856 316.384 
C 84.612761 316.384 84.063307 316.611591 83.658249 317.016649 
C 83.253191 317.421707 83.0256 317.971161 83.0256 318.544 
C 83.0256 319.116839 83.253191 319.666293 83.658249 320.071351 
C 84.063307 320.476409 84.612761 320.704 85.1856 320.704 
z
" clip-path="url(#pbecae0df7d)" style="stroke: #000000; stroke-width: 2; stroke-linejoin: miter"/>
   </g>
   <g id="patch_4">
    <path d="M 63.5856 281.344 
C 64.158439 281.344 64.707893 281.116409 65.112951 280.711351 
C 65.518009 280.306293 65.7456 279.756839 65.7456 279.184 
C 65.7456 278.611161 65.518009 278.061707 65.112951 277.656649 
C 64.707893 277.251591 64.158439 277.024 63.5856 277.024 
C 63.012761 277.024 62.463307 277.251591 62.058249 277.656649 
C 61.653191 278.061707 61.4256 278.611161 61.4256 279.184 
C 61.4256 279.756839 61.653191 280.306293 62.058249 280.711351 
C 62.463307 281.116409 63.012761 281.344 63.5856 281.344 
z
" clip-path="url(#pbecae0df7d)" style="fill: #ffffff; stroke: #008000; stroke-width: 2; stroke-linejoin: miter"/>
   </g>
   <g id="text_8">
    <!-- $\phi_1$ -->
    <g style="fill: #008000" transform="translate(55.6056 271.204) scale(0.14 -0.14)">
     <defs>
      <path id="DejaVuSans-Oblique-3d5" d="M 2991 4863 
L 2738 3572 
Q 3363 3572 3684 3094 
Q 4016 2606 3850 1747 
Q 3681 888 3159 400 
Q 2653 -78 2028 -78 
L 1784 -1331 
L 1213 -1331 
L 1456 -78 
Q 834 -78 509 400 
Q 178 888 347 1747 
Q 513 2606 1034 3094 
Q 1544 3572 2166 3572 
L 2419 4863 
L 2991 4863 
z
M 2128 434 
Q 2481 434 2784 756 
Q 3116 1116 3244 1747 
Q 3369 2372 3169 2738 
Q 2991 3059 2638 3059 
L 2128 434 
z
M 1556 434 
L 2066 3059 
Q 1716 3059 1413 2738 
Q 1072 2372 953 1747 
Q 834 1116 1028 756 
Q 1203 434 1556 434 
z
" transform="scale(0.015625)"/>
     </defs>
     <use xlink:href="#DejaVuSans-Oblique-3d5" transform="translate(0 0.015625)"/>
     <use xlink:href="#DejaVuSans-31" transform="translate(65.966797 -16.390625) scale(0.7)"/>
    </g>
   </g>
   <g id="patch_5">
    <path d="M 45.8256 342.304 
C 46.398439 342.304 46.947893 342.076409 47.352951 341.671351 
C 47.758009 341.266293 47.9856 340.716839 47.9856 340.144 
C 47.9856 339.571161 47.758009 339.021707 47.352951 338.616649 
C 46.947893 338.211591 46.398439 337.984 45.8256 337.984 
C 45.252761 337.984 44.703307 338.211591 44.298249 338.616649 
C 43.893191 339.021707 43.6656 339.571161 43.6656 340.144 
C 43.6656 340.716839 43.893191 341.266293 44.298249 341.671351 
C 44.703307 342.076409 45.252761 342.304 45.8256 342.304 
z
" clip-path="url(#pbecae0df7d)" style="fill: #ffffff; stroke: #ff0000; stroke-width: 2; stroke-linejoin: miter"/>
   </g>
   <g id="text_9">
    <!-- $\phi_2$ -->
    <g style="fill: #ff0000" transform="translate(24.8256 343.994) scale(0.14 -0.14)">
     <use xlink:href="#DejaVuSans-Oblique-3d5" transform="translate(0 0.015625)"/>
     <use xlink:href="#DejaVuSans-32" transform="translate(65.966797 -16.390625) scale(0.7)"/>
    </g>
   </g>
   <g id="patch_6">
    <path d="M 171.5856 320.704 
C 172.158439 320.704 172.707893 320.476409 173.112951 320.071351 
C 173.518009 319.666293 173.7456 319.116839 173.7456 318.544 
C 173.7456 317.971161 173.518009 317.421707 173.112951 317.016649 
C 172.707893 316.611591 172.158439 316.384 171.5856 316.384 
C 171.012761 316.384 170.463307 316.611591 170.058249 317.016649 
C 169.653191 317.421707 169.4256 317.971161 169.4256 318.544 
C 169.4256 319.116839 169.653191 319.666293 170.058249 320.071351 
C 170.463307 320.476409 171.012761 320.704 171.5856 320.704 
z
" clip-path="url(#pbecae0df7d)" style="stroke: #000000; stroke-width: 2; stroke-linejoin: miter"/>
   </g>
   <g id="patch_7">
    <path d="M 193.1856 281.344 
C 193.758439 281.344 194.307893 281.116409 194.712951 280.711351 
C 195.118009 280.306293 195.3456 279.756839 195.3456 279.184 
C 195.3456 278.611161 195.118009 278.061707 194.712951 277.656649 
C 194.307893 277.251591 193.758439 277.024 193.1856 277.024 
C 192.612761 277.024 192.063307 277.251591 191.658249 277.656649 
C 191.253191 278.061707 191.0256 278.611161 191.0256 279.184 
C 191.0256 279.756839 191.253191 280.306293 191.658249 280.711351 
C 192.063307 281.116409 192.612761 281.344 193.1856 281.344 
z
" clip-path="url(#pbecae0df7d)" style="fill: #ffffff; stroke: #008000; stroke-width: 2; stroke-linejoin: miter"/>
   </g>
   <g id="text_10">
    <!-- $\phi_1$ -->
    <g style="fill: #008000" transform="translate(185.2056 271.204) scale(0.14 -0.14)">
     <use xlink:href="#DejaVuSans-Oblique-3d5" transform="translate(0 0.015625)"/>
     <use xlink:href="#DejaVuSans-31" transform="translate(65.966797 -16.390625) scale(0.7)"/>
    </g>
   </g>
   <g id="patch_8">
    <path d="M 132.2256 342.304 
C 132.798439 342.304 133.347893 342.076409 133.752951 341.671351 
C 134.158009 341.266293 134.3856 340.716839 134.3856 340.144 
C 134.3856 339.571161 134.158009 339.021707 133.752951 338.616649 
C 133.347893 338.211591 132.798439 337.984 132.2256 337.984 
C 131.652761 337.984 131.103307 338.211591 130.698249 338.616649 
C 130.293191 339.021707 130.0656 339.571161 130.0656 340.144 
C 130.0656 340.716839 130.293191 341.266293 130.698249 341.671351 
C 131.103307 342.076409 131.652761 342.304 132.2256 342.304 
z
" clip-path="url(#pbecae0df7d)" style="fill: #ffffff; stroke: #ff0000; stroke-width: 2; stroke-linejoin: miter"/>
   </g>
   <g id="text_11">
    <!-- $\phi_2$ -->
    <g style="fill: #ff0000" transform="translate(111.2256 343.994) scale(0.14 -0.14)">
     <use xlink:href="#DejaVuSans-Oblique-3d5" transform="translate(0 0.015625)"/>
     <use xlink:href="#DejaVuSans-32" transform="translate(65.966797 -16.390625) scale(0.7)"/>
    </g>
   </g>
   <g id="patch_9">
    <path d="M 243.5856 320.704 
C 244.158439 320.704 244.707893 320.476409 245.112951 320.071351 
C 245.518009 319.666293 245.7456 319.116839 245.7456 318.544 
C 245.7456 317.971161 245.518009 317.421707 245.112951 317.016649 
C 244.707893 316.611591 244.158439 316.384 243.5856 316.384 
C 243.012761 316.384 242.463307 316.611591 242.058249 317.016649 
C 241.653191 317.421707 241.4256 317.971161 241.4256 318.544 
C 241.4256 319.116839 241.653191 319.666293 242.058249 320.071351 
C 242.463307 320.476409 243.012761 320.704 243.5856 320.704 
z
" clip-path="url(#pbecae0df7d)" style="stroke: #000000; stroke-width: 2; stroke-linejoin: miter"/>
   </g>
   <g id="patch_10">
    <path d="M 243.5856 263.104 
C 244.158439 263.104 244.707893 262.876409 245.112951 262.471351 
C 245.518009 262.066293 245.7456 261.516839 245.7456 260.944 
C 245.7456 260.371161 245.518009 259.821707 245.112951 259.416649 
C 244.707893 259.011591 244.158439 258.784 243.5856 258.784 
C 243.012761 258.784 242.463307 259.011591 242.058249 259.416649 
C 241.653191 259.821707 241.4256 260.371161 241.4256 260.944 
C 241.4256 261.516839 241.653191 262.066293 242.058249 262.471351 
C 242.463307 262.876409 243.012761 263.104 243.5856 263.104 
z
" clip-path="url(#pbecae0df7d)" style="stroke: #000000; stroke-width: 2; stroke-linejoin: miter"/>
   </g>
   <g id="patch_11">
    <path d="M 315.5856 263.104 
C 316.158439 263.104 316.707893 262.876409 317.112951 262.471351 
C 317.518009 262.066293 317.7456 261.516839 317.7456 260.944 
C 317.7456 260.371161 317.518009 259.821707 317.112951 259.416649 
C 316.707893 259.011591 316.158439 258.784 315.5856 258.784 
C 315.012761 258.784 314.463307 259.011591 314.058249 259.416649 
C 313.653191 259.821707 313.4256 260.371161 313.4256 260.944 
C 313.4256 261.516839 313.653191 262.066293 314.058249 262.471351 
C 314.463307 262.876409 315.012761 263.104 315.5856 263.104 
z
" clip-path="url(#pbecae0df7d)" style="stroke: #000000; stroke-width: 2; stroke-linejoin: miter"/>
   </g>
   <g id="patch_12">
    <path d="M 293.9856 223.744 
C 294.558439 223.744 295.107893 223.516409 295.512951 223.111351 
C 295.918009 222.706293 296.1456 222.156839 296.1456 221.584 
C 296.1456 221.011161 295.918009 220.461707 295.512951 220.056649 
C 295.107893 219.651591 294.558439 219.424 293.9856 219.424 
C 293.412761 219.424 292.863307 219.651591 292.458249 220.056649 
C 292.053191 220.461707 291.8256 221.011161 291.8256 221.584 
C 291.8256 222.156839 292.053191 222.706293 292.458249 223.111351 
C 292.863307 223.516409 293.412761 223.744 293.9856 223.744 
z
" clip-path="url(#pbecae0df7d)" style="fill: #ffffff; stroke: #008000; stroke-width: 2; stroke-linejoin: miter"/>
   </g>
   <g id="text_12">
    <!-- $\phi_1$ -->
    <g style="fill: #008000" transform="translate(286.0056 213.604) scale(0.14 -0.14)">
     <use xlink:href="#DejaVuSans-Oblique-3d5" transform="translate(0 0.015625)"/>
     <use xlink:href="#DejaVuSans-31" transform="translate(65.966797 -16.390625) scale(0.7)"/>
    </g>
   </g>
   <g id="patch_13">
    <path d="M 276.2256 284.704 
C 276.798439 284.704 277.347893 284.476409 277.752951 284.071351 
C 278.158009 283.666293 278.3856 283.116839 278.3856 282.544 
C 278.3856 281.971161 278.158009 281.421707 277.752951 281.016649 
C 277.347893 280.611591 276.798439 280.384 276.2256 280.384 
C 275.652761 280.384 275.103307 280.611591 274.698249 281.016649 
C 274.293191 281.421707 274.0656 281.971161 274.0656 282.544 
C 274.0656 283.116839 274.293191 283.666293 274.698249 284.071351 
C 275.103307 284.476409 275.652761 284.704 276.2256 284.704 
z
" clip-path="url(#pbecae0df7d)" style="fill: #ffffff; stroke: #ff0000; stroke-width: 2; stroke-linejoin: miter"/>
   </g>
   <g id="text_13">
    <!-- $\phi_2$ -->
    <g style="fill: #ff0000" transform="translate(255.2256 286.394) scale(0.14 -0.14)">
     <use xlink:href="#DejaVuSans-Oblique-3d5" transform="translate(0 0.015625)"/>
     <use xlink:href="#DejaVuSans-32" transform="translate(65.966797 -16.390625) scale(0.7)"/>
    </g>
   </g>
   <g id="patch_14">
    <path d="M 401.9856 263.104 
C 402.558439 263.104 403.107893 262.876409 403.512951 262.471351 
C 403.918009 262.066293 404.1456 261.516839 404.1456 260.944 
C 404.1456 260.371161 403.918009 259.821707 403.512951 259.416649 
C 403.107893 259.011591 402.558439 258.784 401.9856 258.784 
C 401.412761 258.784 400.863307 259.011591 400.458249 259.416649 
C 400.053191 259.821707 399.8256 260.371161 399.8256 260.944 
C 399.8256 261.516839 400.053191 262.066293 400.458249 262.471351 
C 400.863307 262.876409 401.412761 263.104 401.9856 263.104 
z
" clip-path="url(#pbecae0df7d)" style="stroke: #000000; stroke-width: 2; stroke-linejoin: miter"/>
   </g>
   <g id="patch_15">
    <path d="M 423.5856 223.744 
C 424.158439 223.744 424.707893 223.516409 425.112951 223.111351 
C 425.518009 222.706293 425.7456 222.156839 425.7456 221.584 
C 425.7456 221.011161 425.518009 220.461707 425.112951 220.056649 
C 424.707893 219.651591 424.158439 219.424 423.5856 219.424 
C 423.012761 219.424 422.463307 219.651591 422.058249 220.056649 
C 421.653191 220.461707 421.4256 221.011161 421.4256 221.584 
C 421.4256 222.156839 421.653191 222.706293 422.058249 223.111351 
C 422.463307 223.516409 423.012761 223.744 423.5856 223.744 
z
" clip-path="url(#pbecae0df7d)" style="fill: #ffffff; stroke: #008000; stroke-width: 2; stroke-linejoin: miter"/>
   </g>
   <g id="text_14">
    <!-- $\phi_1$ -->
    <g style="fill: #008000" transform="translate(415.6056 213.604) scale(0.14 -0.14)">
     <use xlink:href="#DejaVuSans-Oblique-3d5" transform="translate(0 0.015625)"/>
     <use xlink:href="#DejaVuSans-31" transform="translate(65.966797 -16.390625) scale(0.7)"/>
    </g>
   </g>
   <g id="patch_16">
    <path d="M 362.6256 284.704 
C 363.198439 284.704 363.747893 284.476409 364.152951 284.071351 
C 364.558009 283.666293 364.7856 283.116839 364.7856 282.544 
C 364.7856 281.971161 364.558009 281.421707 364.152951 281.016649 
C 363.747893 280.611591 363.198439 280.384 362.6256 280.384 
C 362.052761 280.384 361.503307 280.611591 361.098249 281.016649 
C 360.693191 281.421707 360.4656 281.971161 360.4656 282.544 
C 360.4656 283.116839 360.693191 283.666293 361.098249 284.071351 
C 361.503307 284.476409 362.052761 284.704 362.6256 284.704 
z
" clip-path="url(#pbecae0df7d)" style="fill: #ffffff; stroke: #ff0000; stroke-width: 2; stroke-linejoin: miter"/>
   </g>
   <g id="text_15">
    <!-- $\phi_2$ -->
    <g style="fill: #ff0000" transform="translate(341.6256 286.394) scale(0.14 -0.14)">
     <use xlink:href="#DejaVuSans-Oblique-3d5" transform="translate(0 0.015625)"/>
     <use xlink:href="#DejaVuSans-32" transform="translate(65.966797 -16.390625) scale(0.7)"/>
    </g>
   </g>
   <g id="patch_17">
    <path d="M 473.9856 263.104 
C 474.558439 263.104 475.107893 262.876409 475.512951 262.471351 
C 475.918009 262.066293 476.1456 261.516839 476.1456 260.944 
C 476.1456 260.371161 475.918009 259.821707 475.512951 259.416649 
C 475.107893 259.011591 474.558439 258.784 473.9856 258.784 
C 473.412761 258.784 472.863307 259.011591 472.458249 259.416649 
C 472.053191 259.821707 471.8256 260.371161 471.8256 260.944 
C 471.8256 261.516839 472.053191 262.066293 472.458249 262.471351 
C 472.863307 262.876409 473.412761 263.104 473.9856 263.104 
z
" clip-path="url(#pbecae0df7d)" style="stroke: #000000; stroke-width: 2; stroke-linejoin: miter"/>
   </g>
   <g id="patch_18">
    <path d="M 243.5856 176.704 
C 244.158439 176.704 244.707893 176.476409 245.112951 176.071351 
C 245.518009 175.666293 245.7456 175.116839 245.7456 174.544 
C 245.7456 173.971161 245.518009 173.421707 245.112951 173.016649 
C 244.707893 172.611591 244.158439 172.384 243.5856 172.384 
C 243.012761 172.384 242.463307 172.611591 242.058249 173.016649 
C 241.653191 173.421707 241.4256 173.971161 241.4256 174.544 
C 241.4256 175.116839 241.653191 175.666293 242.058249 176.071351 
C 242.463307 176.476409 243.012761 176.704 243.5856 176.704 
z
" clip-path="url(#pbecae0df7d)" style="stroke: #000000; stroke-width: 2; stroke-linejoin: miter"/>
   </g>
   <g id="patch_19">
    <path d="M 473.9856 320.704 
C 474.558439 320.704 475.107893 320.476409 475.512951 320.071351 
C 475.918009 319.666293 476.1456 319.116839 476.1456 318.544 
C 476.1456 317.971161 475.918009 317.421707 475.512951 317.016649 
C 475.107893 316.611591 474.558439 316.384 473.9856 316.384 
C 473.412761 316.384 472.863307 316.611591 472.458249 317.016649 
C 472.053191 317.421707 471.8256 317.971161 471.8256 318.544 
C 471.8256 319.116839 472.053191 319.666293 472.458249 320.071351 
C 472.863307 320.476409 473.412761 320.704 473.9856 320.704 
z
" clip-path="url(#pbecae0df7d)" style="stroke: #000000; stroke-width: 2; stroke-linejoin: miter"/>
   </g>
   <g id="patch_20">
    <path d="M 473.9856 338.704 
C 474.558439 338.704 475.107893 338.476409 475.512951 338.071351 
C 475.918009 337.666293 476.1456 337.116839 476.1456 336.544 
C 476.1456 335.971161 475.918009 335.421707 475.512951 335.016649 
C 475.107893 334.611591 474.558439 334.384 473.9856 334.384 
C 473.412761 334.384 472.863307 334.611591 472.458249 335.016649 
C 472.053191 335.421707 471.8256 335.971161 471.8256 336.544 
C 471.8256 337.116839 472.053191 337.666293 472.458249 338.071351 
C 472.863307 338.476409 473.412761 338.704 473.9856 338.704 
z
" clip-path="url(#pbecae0df7d)" style="stroke: #000000; stroke-width: 2; stroke-linejoin: miter"/>
   </g>
   <g id="text_16">
    <!-- $V_{∗}$ -->
    <g transform="translate(464.8856 352.221813) scale(0.14 -0.14)">
     <defs>
      <path id="DejaVuSans-2217" d="M 2153 2006 
L 816 2778 
L 1081 3238 
L 2419 2466 
L 2419 4013 
L 2944 4013 
L 2944 2466 
L 4281 3238 
L 4547 2778 
L 3209 2006 
L 4547 1234 
L 4281 775 
L 2944 1547 
L 2944 0 
L 2419 0 
L 2419 1547 
L 1081 775 
L 816 1234 
L 2153 2006 
z
" transform="scale(0.015625)"/>
     </defs>
     <use xlink:href="#DejaVuSans-Oblique-56" transform="translate(0 0.09375)"/>
     <use xlink:href="#DejaVuSans-2217" transform="translate(68.408203 -16.3125) scale(0.7)"/>
    </g>
   </g>
   <g id="patch_21">
    <path d="M 574.7856 320.704 
C 575.358439 320.704 575.907893 320.476409 576.312951 320.071351 
C 576.718009 319.666293 576.9456 319.116839 576.9456 318.544 
C 576.9456 317.971161 576.718009 317.421707 576.312951 317.016649 
C 575.907893 316.611591 575.358439 316.384 574.7856 316.384 
C 574.212761 316.384 573.663307 316.611591 573.258249 317.016649 
C 572.853191 317.421707 572.6256 317.971161 572.6256 318.544 
C 572.6256 319.116839 572.853191 319.666293 573.258249 320.071351 
C 573.663307 320.476409 574.212761 320.704 574.7856 320.704 
z
" clip-path="url(#pbecae0df7d)" style="stroke: #000000; stroke-width: 2; stroke-linejoin: miter"/>
   </g>
   <g id="patch_22">
    <path d="M 553.1856 281.344 
C 553.758439 281.344 554.307893 281.116409 554.712951 280.711351 
C 555.118009 280.306293 555.3456 279.756839 555.3456 279.184 
C 555.3456 278.611161 555.118009 278.061707 554.712951 277.656649 
C 554.307893 277.251591 553.758439 277.024 553.1856 277.024 
C 552.612761 277.024 552.063307 277.251591 551.658249 277.656649 
C 551.253191 278.061707 551.0256 278.611161 551.0256 279.184 
C 551.0256 279.756839 551.253191 280.306293 551.658249 280.711351 
C 552.063307 281.116409 552.612761 281.344 553.1856 281.344 
z
" clip-path="url(#pbecae0df7d)" style="fill: #ffffff; stroke: #008000; stroke-width: 2; stroke-linejoin: miter"/>
   </g>
   <g id="text_17">
    <!-- $\phi_1$ -->
    <g style="fill: #008000" transform="translate(545.2056 271.204) scale(0.14 -0.14)">
     <use xlink:href="#DejaVuSans-Oblique-3d5" transform="translate(0 0.015625)"/>
     <use xlink:href="#DejaVuSans-31" transform="translate(65.966797 -16.390625) scale(0.7)"/>
    </g>
   </g>
   <g id="patch_23">
    <path d="M 535.4256 342.304 
C 535.998439 342.304 536.547893 342.076409 536.952951 341.671351 
C 537.358009 341.266293 537.5856 340.716839 537.5856 340.144 
C 537.5856 339.571161 537.358009 339.021707 536.952951 338.616649 
C 536.547893 338.211591 535.998439 337.984 535.4256 337.984 
C 534.852761 337.984 534.303307 338.211591 533.898249 338.616649 
C 533.493191 339.021707 533.2656 339.571161 533.2656 340.144 
C 533.2656 340.716839 533.493191 341.266293 533.898249 341.671351 
C 534.303307 342.076409 534.852761 342.304 535.4256 342.304 
z
" clip-path="url(#pbecae0df7d)" style="fill: #ffffff; stroke: #ff0000; stroke-width: 2; stroke-linejoin: miter"/>
   </g>
   <g id="text_18">
    <!-- $\phi_2$ -->
    <g style="fill: #ff0000" transform="translate(514.4256 343.994) scale(0.14 -0.14)">
     <use xlink:href="#DejaVuSans-Oblique-3d5" transform="translate(0 0.015625)"/>
     <use xlink:href="#DejaVuSans-32" transform="translate(65.966797 -16.390625) scale(0.7)"/>
    </g>
   </g>
   <g id="patch_24">
    <path d="M 661.1856 320.704 
C 661.758439 320.704 662.307893 320.476409 662.712951 320.071351 
C 663.118009 319.666293 663.3456 319.116839 663.3456 318.544 
C 663.3456 317.971161 663.118009 317.421707 662.712951 317.016649 
C 662.307893 316.611591 661.758439 316.384 661.1856 316.384 
C 660.612761 316.384 660.063307 316.611591 659.658249 317.016649 
C 659.253191 317.421707 659.0256 317.971161 659.0256 318.544 
C 659.0256 319.116839 659.253191 319.666293 659.658249 320.071351 
C 660.063307 320.476409 660.612761 320.704 661.1856 320.704 
z
" clip-path="url(#pbecae0df7d)" style="stroke: #000000; stroke-width: 2; stroke-linejoin: miter"/>
   </g>
   <g id="patch_25">
    <path d="M 682.7856 281.344 
C 683.358439 281.344 683.907893 281.116409 684.312951 280.711351 
C 684.718009 280.306293 684.9456 279.756839 684.9456 279.184 
C 684.9456 278.611161 684.718009 278.061707 684.312951 277.656649 
C 683.907893 277.251591 683.358439 277.024 682.7856 277.024 
C 682.212761 277.024 681.663307 277.251591 681.258249 277.656649 
C 680.853191 278.061707 680.6256 278.611161 680.6256 279.184 
C 680.6256 279.756839 680.853191 280.306293 681.258249 280.711351 
C 681.663307 281.116409 682.212761 281.344 682.7856 281.344 
z
" clip-path="url(#pbecae0df7d)" style="fill: #ffffff; stroke: #ff0000; stroke-width: 2; stroke-linejoin: miter"/>
   </g>
   <g id="text_19">
    <!-- $\phi_2$ -->
    <g style="fill: #ff0000" transform="translate(674.8056 271.204) scale(0.14 -0.14)">
     <use xlink:href="#DejaVuSans-Oblique-3d5" transform="translate(0 0.015625)"/>
     <use xlink:href="#DejaVuSans-32" transform="translate(65.966797 -16.390625) scale(0.7)"/>
    </g>
   </g>
   <g id="patch_26">
    <path d="M 621.8256 342.304 
C 622.398439 342.304 622.947893 342.076409 623.352951 341.671351 
C 623.758009 341.266293 623.9856 340.716839 623.9856 340.144 
C 623.9856 339.571161 623.758009 339.021707 623.352951 338.616649 
C 622.947893 338.211591 622.398439 337.984 621.8256 337.984 
C 621.252761 337.984 620.703307 338.211591 620.298249 338.616649 
C 619.893191 339.021707 619.6656 339.571161 619.6656 340.144 
C 619.6656 340.716839 619.893191 341.266293 620.298249 341.671351 
C 620.703307 342.076409 621.252761 342.304 621.8256 342.304 
z
" clip-path="url(#pbecae0df7d)" style="fill: #ffffff; stroke: #008000; stroke-width: 2; stroke-linejoin: miter"/>
   </g>
   <g id="text_20">
    <!-- $\phi_1$ -->
    <g style="fill: #008000" transform="translate(600.8256 343.994) scale(0.14 -0.14)">
     <use xlink:href="#DejaVuSans-Oblique-3d5" transform="translate(0 0.015625)"/>
     <use xlink:href="#DejaVuSans-31" transform="translate(65.966797 -16.390625) scale(0.7)"/>
    </g>
   </g>
   <g id="patch_27">
    <path d="M 733.1856 320.704 
C 733.758439 320.704 734.307893 320.476409 734.712951 320.071351 
C 735.118009 319.666293 735.3456 319.116839 735.3456 318.544 
C 735.3456 317.971161 735.118009 317.421707 734.712951 317.016649 
C 734.307893 316.611591 733.758439 316.384 733.1856 316.384 
C 732.612761 316.384 732.063307 316.611591 731.658249 317.016649 
C 731.253191 317.421707 731.0256 317.971161 731.0256 318.544 
C 731.0256 319.116839 731.253191 319.666293 731.658249 320.071351 
C 732.063307 320.476409 732.612761 320.704 733.1856 320.704 
z
" clip-path="url(#pbecae0df7d)" style="stroke: #000000; stroke-width: 2; stroke-linejoin: miter"/>
   </g>
   <g id="patch_28">
    <path d="M 848.3856 263.104 
C 848.958439 263.104 849.507893 262.876409 849.912951 262.471351 
C 850.318009 262.066293 850.5456 261.516839 850.5456 260.944 
C 850.5456 260.371161 850.318009 259.821707 849.912951 259.416649 
C 849.507893 259.011591 848.958439 258.784 848.3856 258.784 
C 847.812761 258.784 847.263307 259.011591 846.858249 259.416649 
C 846.453191 259.821707 846.2256 260.371161 846.2256 260.944 
C 846.2256 261.516839 846.453191 262.066293 846.858249 262.471351 
C 847.263307 262.876409 847.812761 263.104 848.3856 263.104 
z
" clip-path="url(#pbecae0df7d)" style="stroke: #000000; stroke-width: 2; stroke-linejoin: miter"/>
   </g>
   <g id="patch_29">
    <path d="M 848.3856 338.704 
C 848.958439 338.704 849.507893 338.476409 849.912951 338.071351 
C 850.318009 337.666293 850.5456 337.116839 850.5456 336.544 
C 850.5456 335.971161 850.318009 335.421707 849.912951 335.016649 
C 849.507893 334.611591 848.958439 334.384 848.3856 334.384 
C 847.812761 334.384 847.263307 334.611591 846.858249 335.016649 
C 846.453191 335.421707 846.2256 335.971161 846.2256 336.544 
C 846.2256 337.116839 846.453191 337.666293 846.858249 338.071351 
C 847.263307 338.476409 847.812761 338.704 848.3856 338.704 
z
" clip-path="url(#pbecae0df7d)" style="stroke: #000000; stroke-width: 2; stroke-linejoin: miter"/>
   </g>
   <g id="text_21">
    <!-- $V_{out∗}$ -->
    <g transform="translate(853.4256 340.407125) scale(0.14 -0.14)">
     <defs>
      <path id="DejaVuSans-Oblique-6f" d="M 1625 -91 
Q 1009 -91 651 289 
Q 294 669 294 1325 
Q 294 1706 417 2101 
Q 541 2497 738 2766 
Q 1047 3184 1428 3384 
Q 1809 3584 2291 3584 
Q 2888 3584 3255 3212 
Q 3622 2841 3622 2241 
Q 3622 1825 3500 1412 
Q 3378 1000 3181 728 
Q 2875 309 2494 109 
Q 2113 -91 1625 -91 
z
M 891 1344 
Q 891 869 1089 633 
Q 1288 397 1691 397 
Q 2269 397 2648 901 
Q 3028 1406 3028 2181 
Q 3028 2634 2825 2865 
Q 2622 3097 2228 3097 
Q 1903 3097 1650 2945 
Q 1397 2794 1197 2484 
Q 1050 2253 970 1956 
Q 891 1659 891 1344 
z
" transform="scale(0.015625)"/>
      <path id="DejaVuSans-Oblique-75" d="M 428 1388 
L 838 3500 
L 1416 3500 
L 1006 1409 
Q 975 1256 961 1147 
Q 947 1038 947 966 
Q 947 700 1109 554 
Q 1272 409 1569 409 
Q 2031 409 2368 721 
Q 2706 1034 2809 1563 
L 3194 3500 
L 3769 3500 
L 3091 0 
L 2516 0 
L 2631 550 
Q 2388 244 2052 76 
Q 1716 -91 1338 -91 
Q 878 -91 622 161 
Q 366 413 366 863 
Q 366 956 381 1097 
Q 397 1238 428 1388 
z
" transform="scale(0.015625)"/>
      <path id="DejaVuSans-Oblique-74" d="M 2706 3500 
L 2619 3053 
L 1472 3053 
L 1100 1153 
Q 1081 1047 1072 975 
Q 1063 903 1063 863 
Q 1063 663 1183 572 
Q 1303 481 1569 481 
L 2150 481 
L 2053 0 
L 1503 0 
Q 991 0 739 200 
Q 488 400 488 806 
Q 488 878 497 964 
Q 506 1050 525 1153 
L 897 3053 
L 409 3053 
L 500 3500 
L 978 3500 
L 1172 4494 
L 1747 4494 
L 1556 3500 
L 2706 3500 
z
" transform="scale(0.015625)"/>
     </defs>
     <use xlink:href="#DejaVuSans-Oblique-56" transform="translate(0 0.09375)"/>
     <use xlink:href="#DejaVuSans-Oblique-6f" transform="translate(68.408203 -16.3125) scale(0.7)"/>
     <use xlink:href="#DejaVuSans-Oblique-75" transform="translate(111.235352 -16.3125) scale(0.7)"/>
     <use xlink:href="#DejaVuSans-Oblique-74" transform="translate(155.600586 -16.3125) scale(0.7)"/>
     <use xlink:href="#DejaVuSans-2217" transform="translate(183.046875 -16.3125) scale(0.7)"/>
    </g>
   </g>
   <g id="patch_30">
    <path d="M 430.7856 61.504 
C 431.358439 61.504 431.907893 61.276409 432.312951 60.871351 
C 432.718009 60.466293 432.9456 59.916839 432.9456 59.344 
C 432.9456 58.771161 432.718009 58.221707 432.312951 57.816649 
C 431.907893 57.411591 431.358439 57.184 430.7856 57.184 
C 430.212761 57.184 429.663307 57.411591 429.258249 57.816649 
C 428.853191 58.221707 428.6256 58.771161 428.6256 59.344 
C 428.6256 59.916839 428.853191 60.466293 429.258249 60.871351 
C 429.663307 61.276409 430.212761 61.504 430.7856 61.504 
z
" clip-path="url(#pbecae0df7d)" style="stroke: #000000; stroke-width: 2; stroke-linejoin: miter"/>
   </g>
   <g id="patch_31">
    <path d="M 409.1856 22.144 
C 409.758439 22.144 410.307893 21.916409 410.712951 21.511351 
C 411.118009 21.106293 411.3456 20.556839 411.3456 19.984 
C 411.3456 19.411161 411.118009 18.861707 410.712951 18.456649 
C 410.307893 18.051591 409.758439 17.824 409.1856 17.824 
C 408.612761 17.824 408.063307 18.051591 407.658249 18.456649 
C 407.253191 18.861707 407.0256 19.411161 407.0256 19.984 
C 407.0256 20.556839 407.253191 21.106293 407.658249 21.511351 
C 408.063307 21.916409 408.612761 22.144 409.1856 22.144 
z
" clip-path="url(#pbecae0df7d)" style="fill: #ffffff; stroke: #008000; stroke-width: 2; stroke-linejoin: miter"/>
   </g>
   <g id="text_22">
    <!-- $\phi_1$ -->
    <g style="fill: #008000" transform="translate(401.2056 12.004) scale(0.14 -0.14)">
     <use xlink:href="#DejaVuSans-Oblique-3d5" transform="translate(0 0.015625)"/>
     <use xlink:href="#DejaVuSans-31" transform="translate(65.966797 -16.390625) scale(0.7)"/>
    </g>
   </g>
   <g id="patch_32">
    <path d="M 391.4256 83.104 
C 391.998439 83.104 392.547893 82.876409 392.952951 82.471351 
C 393.358009 82.066293 393.5856 81.516839 393.5856 80.944 
C 393.5856 80.371161 393.358009 79.821707 392.952951 79.416649 
C 392.547893 79.011591 391.998439 78.784 391.4256 78.784 
C 390.852761 78.784 390.303307 79.011591 389.898249 79.416649 
C 389.493191 79.821707 389.2656 80.371161 389.2656 80.944 
C 389.2656 81.516839 389.493191 82.066293 389.898249 82.471351 
C 390.303307 82.876409 390.852761 83.104 391.4256 83.104 
z
" clip-path="url(#pbecae0df7d)" style="fill: #ffffff; stroke: #ff0000; stroke-width: 2; stroke-linejoin: miter"/>
   </g>
   <g id="text_23">
    <!-- $\phi_2$ -->
    <g style="fill: #ff0000" transform="translate(370.4256 84.794) scale(0.14 -0.14)">
     <use xlink:href="#DejaVuSans-Oblique-3d5" transform="translate(0 0.015625)"/>
     <use xlink:href="#DejaVuSans-32" transform="translate(65.966797 -16.390625) scale(0.7)"/>
    </g>
   </g>
   <g id="patch_33">
    <path d="M 517.1856 61.504 
C 517.758439 61.504 518.307893 61.276409 518.712951 60.871351 
C 519.118009 60.466293 519.3456 59.916839 519.3456 59.344 
C 519.3456 58.771161 519.118009 58.221707 518.712951 57.816649 
C 518.307893 57.411591 517.758439 57.184 517.1856 57.184 
C 516.612761 57.184 516.063307 57.411591 515.658249 57.816649 
C 515.253191 58.221707 515.0256 58.771161 515.0256 59.344 
C 515.0256 59.916839 515.253191 60.466293 515.658249 60.871351 
C 516.063307 61.276409 516.612761 61.504 517.1856 61.504 
z
" clip-path="url(#pbecae0df7d)" style="stroke: #000000; stroke-width: 2; stroke-linejoin: miter"/>
   </g>
   <g id="patch_34">
    <path d="M 538.7856 22.144 
C 539.358439 22.144 539.907893 21.916409 540.312951 21.511351 
C 540.718009 21.106293 540.9456 20.556839 540.9456 19.984 
C 540.9456 19.411161 540.718009 18.861707 540.312951 18.456649 
C 539.907893 18.051591 539.358439 17.824 538.7856 17.824 
C 538.212761 17.824 537.663307 18.051591 537.258249 18.456649 
C 536.853191 18.861707 536.6256 19.411161 536.6256 19.984 
C 536.6256 20.556839 536.853191 21.106293 537.258249 21.511351 
C 537.663307 21.916409 538.212761 22.144 538.7856 22.144 
z
" clip-path="url(#pbecae0df7d)" style="fill: #ffffff; stroke: #008000; stroke-width: 2; stroke-linejoin: miter"/>
   </g>
   <g id="text_24">
    <!-- $\phi_1$ -->
    <g style="fill: #008000" transform="translate(530.8056 12.004) scale(0.14 -0.14)">
     <use xlink:href="#DejaVuSans-Oblique-3d5" transform="translate(0 0.015625)"/>
     <use xlink:href="#DejaVuSans-31" transform="translate(65.966797 -16.390625) scale(0.7)"/>
    </g>
   </g>
   <g id="patch_35">
    <path d="M 477.8256 83.104 
C 478.398439 83.104 478.947893 82.876409 479.352951 82.471351 
C 479.758009 82.066293 479.9856 81.516839 479.9856 80.944 
C 479.9856 80.371161 479.758009 79.821707 479.352951 79.416649 
C 478.947893 79.011591 478.398439 78.784 477.8256 78.784 
C 477.252761 78.784 476.703307 79.011591 476.298249 79.416649 
C 475.893191 79.821707 475.6656 80.371161 475.6656 80.944 
C 475.6656 81.516839 475.893191 82.066293 476.298249 82.471351 
C 476.703307 82.876409 477.252761 83.104 477.8256 83.104 
z
" clip-path="url(#pbecae0df7d)" style="fill: #ffffff; stroke: #ff0000; stroke-width: 2; stroke-linejoin: miter"/>
   </g>
   <g id="text_25">
    <!-- $\phi_2$ -->
    <g style="fill: #ff0000" transform="translate(456.8256 84.794) scale(0.14 -0.14)">
     <use xlink:href="#DejaVuSans-Oblique-3d5" transform="translate(0 0.015625)"/>
     <use xlink:href="#DejaVuSans-32" transform="translate(65.966797 -16.390625) scale(0.7)"/>
    </g>
   </g>
  </g>
 </g>
 <defs>
  <clipPath id="pbecae0df7d">
   <rect x="0" y="0" width="888.3504" height="399.76"/>
  </clipPath>
 </defs>
</svg>