<?xml version="1.0" encoding="utf-8" standalone="no"?>
<!DOCTYPE svg PUBLIC "-//W3C//DTD SVG 1.1//EN"
  "http://www.w3.org/Graphics/SVG/1.1/DTD/svg11.dtd">
<svg xmlns:xlink="http://www.w3.org/1999/xlink" width="310.6845pt" height="239.65pt" viewBox="0 0 310.6845 239.65" xmlns="http://www.w3.org/2000/svg" version="1.1">
 <metadata>
  <rdf:RDF xmlns:dc="http://purl.org/dc/elements/1.1/" xmlns:cc="http://creativecommons.org/ns#" xmlns:rdf="http://www.w3.org/1999/02/22-rdf-syntax-ns#">
   <cc:Work>
    <dc:type rdf:resource="http://purl.org/dc/dcmitype/StillImage"/>
    <dc:date>2022-09-18T20:48:27.208579</dc:date>
    <dc:format>image/svg+xml</dc:format>
    <dc:creator>
     <cc:Agent>
      <dc:title>Matplotlib v3.5.3, https://matplotlib.org/</dc:title>
     </cc:Agent>
    </dc:creator>
   </cc:Work>
  </rdf:RDF>
 </metadata>
 <defs>
  <style type="text/css">*{stroke-linejoin: round; stroke-linecap: butt}</style>
 </defs>
 <g id="figure_1">
  <g id="patch_1">
   <path d="M 0 239.65 
L 310.6845 239.65 
L 310.6845 0 
L 0 0 
z
" style="fill: #ffffff"/>
  </g>
  <g id="axes_1">
   <g id="patch_2">
    <path d="M 95.073 73.84 
C 96.019775 73.84 96.9279 73.463842 97.597371 72.794371 
C 98.266842 72.1249 98.643 71.216775 98.643 70.27 
C 98.643 69.323225 98.266842 68.4151 97.597371 67.745629 
C 96.9279 67.076158 96.019775 66.7 95.073 66.7 
C 94.126225 66.7 93.2181 67.076158 92.548629 67.745629 
C 91.879158 68.4151 91.503 69.323225 91.503 70.27 
C 91.503 71.216775 91.879158 72.1249 92.548629 72.794371 
C 93.2181 73.463842 94.126225 73.84 95.073 73.84 
L 95.073 73.84 
z
" clip-path="url(#p4bcccba96a)" style="fill: none; stroke: #000000; stroke-width: 2; stroke-linejoin: miter"/>
   </g>
   <g id="patch_3">
    <path d="M 199.113 73.84 
C 200.059775 73.84 200.9679 73.463842 201.637371 72.794371 
C 202.306842 72.1249 202.683 71.216775 202.683 70.27 
C 202.683 69.323225 202.306842 68.4151 201.637371 67.745629 
C 200.9679 67.076158 200.059775 66.7 199.113 66.7 
C 198.166225 66.7 197.2581 67.076158 196.588629 67.745629 
C 195.919158 68.4151 195.543 69.323225 195.543 70.27 
C 195.543 71.216775 195.919158 72.1249 196.588629 72.794371 
C 197.2581 73.463842 198.166225 73.84 199.113 73.84 
L 199.113 73.84 
z
" clip-path="url(#p4bcccba96a)" style="fill: none; stroke: #000000; stroke-width: 2; stroke-linejoin: miter"/>
   </g>
   <g id="patch_4">
    <path d="M 61.413 73.84 
C 62.359775 73.84 63.2679 73.463842 63.937371 72.794371 
C 64.606842 72.1249 64.983 71.216775 64.983 70.27 
C 64.983 69.323225 64.606842 68.4151 63.937371 67.745629 
C 63.2679 67.076158 62.359775 66.7 61.413 66.7 
C 60.466225 66.7 59.5581 67.076158 58.888629 67.745629 
C 58.219158 68.4151 57.843 69.323225 57.843 70.27 
C 57.843 71.216775 58.219158 72.1249 58.888629 72.794371 
C 59.5581 73.463842 60.466225 73.84 61.413 73.84 
L 61.413 73.84 
z
" clip-path="url(#p4bcccba96a)" style="fill: none; stroke: #000000; stroke-width: 2; stroke-linejoin: miter"/>
   </g>
   <g id="patch_5">
    <path d="M 232.773 73.84 
C 233.719775 73.84 234.6279 73.463842 235.297371 72.794371 
C 235.966842 72.1249 236.343 71.216775 236.343 70.27 
C 236.343 69.323225 235.966842 68.4151 235.297371 67.745629 
C 234.6279 67.076158 233.719775 66.7 232.773 66.7 
C 231.826225 66.7 230.9181 67.076158 230.248629 67.745629 
C 229.579158 68.4151 229.203 69.323225 229.203 70.27 
C 229.203 71.216775 229.579158 72.1249 230.248629 72.794371 
C 230.9181 73.463842 231.826225 73.84 232.773 73.84 
L 232.773 73.84 
z
" clip-path="url(#p4bcccba96a)" style="fill: none; stroke: #000000; stroke-width: 2; stroke-linejoin: miter"/>
   </g>
   <g id="line2d_1">
    <path d="M 147.093 162.07 
L 147.093 174.82 
L 167.493 174.82 
L 167.493 195.22 
L 147.093 195.22 
L 147.093 207.97 
" clip-path="url(#p4bcccba96a)" style="fill: none; stroke: #000000; stroke-width: 2; stroke-linecap: round"/>
   </g>
   <g id="line2d_2">
    <path d="M 172.593 174.82 
L 172.593 195.22 
" clip-path="url(#p4bcccba96a)" style="fill: none; stroke: #000000; stroke-width: 2; stroke-linecap: round"/>
   </g>
   <g id="line2d_3">
    <path d="M 172.593 185.02 
L 188.913 185.02 
" clip-path="url(#p4bcccba96a)" style="fill: none; stroke: #000000; stroke-width: 2; stroke-linecap: round"/>
   </g>
   <g id="line2d_4">
    <path d="M 147.093 207.97 
L 147.093 220.21 
L 139.443 220.21 
L 154.743 220.21 
M 141.738 223.882 
L 152.448 223.882 
M 145.563 227.554 
L 148.623 227.554 
" clip-path="url(#p4bcccba96a)" style="fill: none; stroke: #000000; stroke-width: 2; stroke-linecap: round"/>
   </g>
   <g id="line2d_5">
    <path d="M 147.093 162.07 
L 147.093 150.595 
L 147.093 139.12 
" clip-path="url(#p4bcccba96a)" style="fill: none; stroke: #000000; stroke-width: 2; stroke-linecap: round"/>
   </g>
   <g id="line2d_6">
    <path d="M 147.093 139.12 
L 135.618 139.12 
L 124.143 139.12 
" clip-path="url(#p4bcccba96a)" style="fill: none; stroke: #000000; stroke-width: 2; stroke-linecap: round"/>
   </g>
   <g id="line2d_7">
    <path d="M 124.143 139.12 
L 124.143 126.37 
L 103.743 126.37 
L 103.743 105.97 
L 124.143 105.97 
L 124.143 93.22 
" clip-path="url(#p4bcccba96a)" style="fill: none; stroke: #000000; stroke-width: 2; stroke-linecap: round"/>
   </g>
   <g id="line2d_8">
    <path d="M 98.643 126.37 
L 98.643 105.97 
" clip-path="url(#p4bcccba96a)" style="fill: none; stroke: #000000; stroke-width: 2; stroke-linecap: round"/>
   </g>
   <g id="line2d_9">
    <path d="M 98.643 116.17 
L 82.323 116.17 
" clip-path="url(#p4bcccba96a)" style="fill: none; stroke: #000000; stroke-width: 2; stroke-linecap: round"/>
   </g>
   <g id="line2d_10">
    <path d="M 124.143 116.17 
L 111.393 116.17 
" clip-path="url(#p4bcccba96a)" style="fill: none; stroke: #000000; stroke-width: 2; stroke-linecap: round"/>
   </g>
   <g id="patch_6">
    <path d="M 111.393 119.23 
L 103.743 116.17 
L 111.393 113.11 
z
" clip-path="url(#p4bcccba96a)"/>
   </g>
   <g id="line2d_11">
    <path d="M 124.143 93.22 
L 124.143 80.47 
L 103.743 80.47 
L 103.743 60.07 
L 124.143 60.07 
L 124.143 47.32 
" clip-path="url(#p4bcccba96a)" style="fill: none; stroke: #000000; stroke-width: 2; stroke-linecap: round"/>
   </g>
   <g id="line2d_12">
    <path d="M 98.643 80.47 
L 98.643 60.07 
" clip-path="url(#p4bcccba96a)" style="fill: none; stroke: #000000; stroke-width: 2; stroke-linecap: round"/>
   </g>
   <g id="line2d_13">
    <path d="M 91.503 70.27 
L 82.323 70.27 
" clip-path="url(#p4bcccba96a)" style="fill: none; stroke: #000000; stroke-width: 2; stroke-linecap: round"/>
   </g>
   <g id="line2d_14">
    <path d="M 124.143 70.27 
L 111.393 70.27 
" clip-path="url(#p4bcccba96a)" style="fill: none; stroke: #000000; stroke-width: 2; stroke-linecap: round"/>
   </g>
   <g id="patch_7">
    <path d="M 111.393 73.33 
L 103.743 70.27 
L 111.393 67.21 
z
" clip-path="url(#p4bcccba96a)"/>
   </g>
   <g id="line2d_15">
    <path d="M 124.143 93.22 
L 103.233 93.22 
L 82.323 93.22 
" clip-path="url(#p4bcccba96a)" style="fill: none; stroke: #000000; stroke-width: 2; stroke-linecap: round"/>
   </g>
   <g id="line2d_16">
    <path d="M 82.323 93.22 
L 82.323 81.745 
L 82.323 70.27 
" clip-path="url(#p4bcccba96a)" style="fill: none; stroke: #000000; stroke-width: 2; stroke-linecap: round"/>
   </g>
   <g id="line2d_17">
    <path d="M 124.143 47.32 
L 135.618 47.32 
L 147.093 47.32 
" clip-path="url(#p4bcccba96a)" style="fill: none; stroke: #000000; stroke-width: 2; stroke-linecap: round"/>
   </g>
   <g id="line2d_18">
    <path d="M 147.093 47.32 
L 147.093 35.08 
" clip-path="url(#p4bcccba96a)" style="fill: none; stroke: #000000; stroke-width: 2; stroke-linecap: round"/>
   </g>
   <g id="line2d_19">
    <path d="M 147.093 35.08 
L 141.3555 35.08 
" clip-path="url(#p4bcccba96a)" style="fill: none; stroke: #000000; stroke-width: 2; stroke-linecap: round"/>
   </g>
   <g id="line2d_20">
    <path d="M 147.093 35.08 
L 152.8305 35.08 
" clip-path="url(#p4bcccba96a)" style="fill: none; stroke: #000000; stroke-width: 2; stroke-linecap: round"/>
   </g>
   <g id="line2d_21">
    <path d="M 147.093 47.32 
L 158.568 47.32 
L 170.043 47.32 
" clip-path="url(#p4bcccba96a)" style="fill: none; stroke: #000000; stroke-width: 2; stroke-linecap: round"/>
   </g>
   <g id="line2d_22">
    <path d="M 170.043 47.32 
L 170.043 60.07 
L 190.443 60.07 
L 190.443 80.47 
L 170.043 80.47 
L 170.043 93.22 
" clip-path="url(#p4bcccba96a)" style="fill: none; stroke: #000000; stroke-width: 2; stroke-linecap: round"/>
   </g>
   <g id="line2d_23">
    <path d="M 195.543 60.07 
L 195.543 80.47 
" clip-path="url(#p4bcccba96a)" style="fill: none; stroke: #000000; stroke-width: 2; stroke-linecap: round"/>
   </g>
   <g id="line2d_24">
    <path d="M 202.683 70.27 
L 211.863 70.27 
" clip-path="url(#p4bcccba96a)" style="fill: none; stroke: #000000; stroke-width: 2; stroke-linecap: round"/>
   </g>
   <g id="line2d_25">
    <path d="M 170.043 70.27 
L 182.793 70.27 
" clip-path="url(#p4bcccba96a)" style="fill: none; stroke: #000000; stroke-width: 2; stroke-linecap: round"/>
   </g>
   <g id="patch_8">
    <path d="M 182.793 67.21 
L 190.443 70.27 
L 182.793 73.33 
z
" clip-path="url(#p4bcccba96a)"/>
   </g>
   <g id="line2d_26">
    <path d="M 170.043 93.22 
L 190.953 93.22 
L 211.863 93.22 
" clip-path="url(#p4bcccba96a)" style="fill: none; stroke: #000000; stroke-width: 2; stroke-linecap: round"/>
   </g>
   <g id="line2d_27">
    <path d="M 211.863 93.22 
L 211.863 81.745 
L 211.863 70.27 
" clip-path="url(#p4bcccba96a)" style="fill: none; stroke: #000000; stroke-width: 2; stroke-linecap: round"/>
   </g>
   <g id="line2d_28">
    <path d="M 170.043 93.22 
L 170.043 105.97 
L 190.443 105.97 
L 190.443 126.37 
L 170.043 126.37 
L 170.043 139.12 
" clip-path="url(#p4bcccba96a)" style="fill: none; stroke: #000000; stroke-width: 2; stroke-linecap: round"/>
   </g>
   <g id="line2d_29">
    <path d="M 195.543 105.97 
L 195.543 126.37 
" clip-path="url(#p4bcccba96a)" style="fill: none; stroke: #000000; stroke-width: 2; stroke-linecap: round"/>
   </g>
   <g id="line2d_30">
    <path d="M 195.543 116.17 
L 211.863 116.17 
" clip-path="url(#p4bcccba96a)" style="fill: none; stroke: #000000; stroke-width: 2; stroke-linecap: round"/>
   </g>
   <g id="line2d_31">
    <path d="M 170.043 116.17 
L 182.793 116.17 
" clip-path="url(#p4bcccba96a)" style="fill: none; stroke: #000000; stroke-width: 2; stroke-linecap: round"/>
   </g>
   <g id="patch_9">
    <path d="M 182.793 113.11 
L 190.443 116.17 
L 182.793 119.23 
z
" clip-path="url(#p4bcccba96a)"/>
   </g>
   <g id="line2d_32">
    <path d="M 170.043 139.12 
L 158.568 139.12 
L 147.093 139.12 
" clip-path="url(#p4bcccba96a)" style="fill: none; stroke: #000000; stroke-width: 2; stroke-linecap: round"/>
   </g>
   <g id="line2d_33">
    <path d="M 124.143 47.32 
L 78.243 47.32 
L 32.343 47.32 
" clip-path="url(#p4bcccba96a)" style="fill: none; stroke: #000000; stroke-width: 2; stroke-linecap: round"/>
   </g>
   <g id="line2d_34">
    <path d="M 32.343 47.32 
L 32.343 60.07 
L 52.743 60.07 
L 52.743 80.47 
L 32.343 80.47 
L 32.343 93.22 
" clip-path="url(#p4bcccba96a)" style="fill: none; stroke: #000000; stroke-width: 2; stroke-linecap: round"/>
   </g>
   <g id="line2d_35">
    <path d="M 57.843 60.07 
L 57.843 80.47 
" clip-path="url(#p4bcccba96a)" style="fill: none; stroke: #000000; stroke-width: 2; stroke-linecap: round"/>
   </g>
   <g id="line2d_36">
    <path d="M 64.983 70.27 
L 74.163 70.27 
" clip-path="url(#p4bcccba96a)" style="fill: none; stroke: #000000; stroke-width: 2; stroke-linecap: round"/>
   </g>
   <g id="line2d_37">
    <path d="M 32.343 70.27 
L 45.093 70.27 
" clip-path="url(#p4bcccba96a)" style="fill: none; stroke: #000000; stroke-width: 2; stroke-linecap: round"/>
   </g>
   <g id="patch_10">
    <path d="M 45.093 67.21 
L 52.743 70.27 
L 45.093 73.33 
z
" clip-path="url(#p4bcccba96a)"/>
   </g>
   <g id="line2d_38">
    <path d="M 74.163 70.27 
L 78.243 70.27 
L 82.323 70.27 
" clip-path="url(#p4bcccba96a)" style="fill: none; stroke: #000000; stroke-width: 2; stroke-linecap: round"/>
   </g>
   <g id="line2d_39">
    <path d="M 32.343 93.22 
L 32.343 115.405 
L 32.343 137.59 
" clip-path="url(#p4bcccba96a)" style="fill: none; stroke: #000000; stroke-width: 2; stroke-linecap: round"/>
   </g>
   <g id="line2d_40">
    <path d="M 32.343 137.59 
L 32.343 150.34 
L 52.743 150.34 
L 52.743 170.74 
L 32.343 170.74 
L 32.343 183.49 
" clip-path="url(#p4bcccba96a)" style="fill: none; stroke: #000000; stroke-width: 2; stroke-linecap: round"/>
   </g>
   <g id="line2d_41">
    <path d="M 57.843 150.34 
L 57.843 170.74 
" clip-path="url(#p4bcccba96a)" style="fill: none; stroke: #000000; stroke-width: 2; stroke-linecap: round"/>
   </g>
   <g id="line2d_42">
    <path d="M 57.843 160.54 
L 74.163 160.54 
" clip-path="url(#p4bcccba96a)" style="fill: none; stroke: #000000; stroke-width: 2; stroke-linecap: round"/>
   </g>
   <g id="line2d_43">
    <path d="M 32.343 160.54 
L 45.093 160.54 
" clip-path="url(#p4bcccba96a)" style="fill: none; stroke: #000000; stroke-width: 2; stroke-linecap: round"/>
   </g>
   <g id="patch_11">
    <path d="M 45.093 157.48 
L 52.743 160.54 
L 45.093 163.6 
z
" clip-path="url(#p4bcccba96a)"/>
   </g>
   <g id="line2d_44">
    <path d="M 32.343 183.49 
L 32.343 195.73 
L 32.343 207.97 
" clip-path="url(#p4bcccba96a)" style="fill: none; stroke: #000000; stroke-width: 2; stroke-linecap: round"/>
   </g>
   <g id="line2d_45">
    <path d="M 32.343 207.97 
L 89.718 207.97 
L 147.093 207.97 
" clip-path="url(#p4bcccba96a)" style="fill: none; stroke: #000000; stroke-width: 2; stroke-linecap: round"/>
   </g>
   <g id="line2d_46">
    <path d="M 147.093 207.97 
L 204.468 207.97 
L 261.843 207.97 
" clip-path="url(#p4bcccba96a)" style="fill: none; stroke: #000000; stroke-width: 2; stroke-linecap: round"/>
   </g>
   <g id="line2d_47">
    <path d="M 261.843 207.97 
L 261.843 195.73 
L 261.843 183.49 
" clip-path="url(#p4bcccba96a)" style="fill: none; stroke: #000000; stroke-width: 2; stroke-linecap: round"/>
   </g>
   <g id="line2d_48">
    <path d="M 261.843 183.49 
L 261.843 170.74 
L 241.443 170.74 
L 241.443 150.34 
L 261.843 150.34 
L 261.843 137.59 
" clip-path="url(#p4bcccba96a)" style="fill: none; stroke: #000000; stroke-width: 2; stroke-linecap: round"/>
   </g>
   <g id="line2d_49">
    <path d="M 236.343 170.74 
L 236.343 150.34 
" clip-path="url(#p4bcccba96a)" style="fill: none; stroke: #000000; stroke-width: 2; stroke-linecap: round"/>
   </g>
   <g id="line2d_50">
    <path d="M 236.343 160.54 
L 220.023 160.54 
" clip-path="url(#p4bcccba96a)" style="fill: none; stroke: #000000; stroke-width: 2; stroke-linecap: round"/>
   </g>
   <g id="line2d_51">
    <path d="M 261.843 160.54 
L 249.093 160.54 
" clip-path="url(#p4bcccba96a)" style="fill: none; stroke: #000000; stroke-width: 2; stroke-linecap: round"/>
   </g>
   <g id="patch_12">
    <path d="M 249.093 163.6 
L 241.443 160.54 
L 249.093 157.48 
z
" clip-path="url(#p4bcccba96a)"/>
   </g>
   <g id="line2d_52">
    <path d="M 261.843 137.59 
L 261.843 126.115 
L 261.843 114.64 
" clip-path="url(#p4bcccba96a)" style="fill: none; stroke: #000000; stroke-width: 2; stroke-linecap: round"/>
   </g>
   <g id="line2d_53">
    <path d="M 261.843 114.64 
L 261.843 103.93 
L 261.843 93.22 
" clip-path="url(#p4bcccba96a)" style="fill: none; stroke: #000000; stroke-width: 2; stroke-linecap: round"/>
   </g>
   <g id="line2d_54">
    <path d="M 261.843 93.22 
L 261.843 80.47 
L 241.443 80.47 
L 241.443 60.07 
L 261.843 60.07 
L 261.843 47.32 
" clip-path="url(#p4bcccba96a)" style="fill: none; stroke: #000000; stroke-width: 2; stroke-linecap: round"/>
   </g>
   <g id="line2d_55">
    <path d="M 236.343 80.47 
L 236.343 60.07 
" clip-path="url(#p4bcccba96a)" style="fill: none; stroke: #000000; stroke-width: 2; stroke-linecap: round"/>
   </g>
   <g id="line2d_56">
    <path d="M 229.203 70.27 
L 220.023 70.27 
" clip-path="url(#p4bcccba96a)" style="fill: none; stroke: #000000; stroke-width: 2; stroke-linecap: round"/>
   </g>
   <g id="line2d_57">
    <path d="M 261.843 70.27 
L 249.093 70.27 
" clip-path="url(#p4bcccba96a)" style="fill: none; stroke: #000000; stroke-width: 2; stroke-linecap: round"/>
   </g>
   <g id="patch_13">
    <path d="M 249.093 73.33 
L 241.443 70.27 
L 249.093 67.21 
z
" clip-path="url(#p4bcccba96a)"/>
   </g>
   <g id="line2d_58">
    <path d="M 220.023 70.27 
L 215.943 70.27 
L 211.863 70.27 
" clip-path="url(#p4bcccba96a)" style="fill: none; stroke: #000000; stroke-width: 2; stroke-linecap: round"/>
   </g>
   <g id="line2d_59">
    <path d="M 261.843 47.32 
L 261.843 47.32 
L 261.843 47.32 
" clip-path="url(#p4bcccba96a)" style="fill: none; stroke: #000000; stroke-width: 2; stroke-linecap: round"/>
   </g>
   <g id="line2d_60">
    <path d="M 261.843 47.32 
L 215.943 47.32 
L 170.043 47.32 
" clip-path="url(#p4bcccba96a)" style="fill: none; stroke: #000000; stroke-width: 2; stroke-linecap: round"/>
   </g>
   <g id="line2d_61">
    <path d="M 74.163 160.54 
L 74.163 149.065 
L 74.163 137.59 
" clip-path="url(#p4bcccba96a)" style="fill: none; stroke: #000000; stroke-width: 2; stroke-linecap: round"/>
   </g>
   <g id="line2d_62">
    <path d="M 74.163 137.59 
L 53.253 137.59 
L 32.343 137.59 
" clip-path="url(#p4bcccba96a)" style="fill: none; stroke: #000000; stroke-width: 2; stroke-linecap: round"/>
   </g>
   <g id="line2d_63">
    <path d="M 74.163 160.54 
L 147.093 160.54 
L 220.023 160.54 
" clip-path="url(#p4bcccba96a)" style="fill: none; stroke: #000000; stroke-width: 2; stroke-linecap: round"/>
   </g>
   <g id="line2d_64">
    <path d="M 124.143 116.17 
L 127.968 116.17 
L 131.793 116.17 
" clip-path="url(#p4bcccba96a)" style="fill: none; stroke: #000000; stroke-width: 2; stroke-linecap: round"/>
   </g>
   <g id="line2d_65">
    <path d="M 131.793 116.17 
L 131.793 127.645 
L 131.793 139.12 
" clip-path="url(#p4bcccba96a)" style="fill: none; stroke: #000000; stroke-width: 2; stroke-linecap: round"/>
   </g>
   <g id="line2d_66">
    <path d="M 170.043 116.17 
L 166.218 116.17 
L 162.393 116.17 
" clip-path="url(#p4bcccba96a)" style="fill: none; stroke: #000000; stroke-width: 2; stroke-linecap: round"/>
   </g>
   <g id="line2d_67">
    <path d="M 162.393 116.17 
L 162.393 127.645 
L 162.393 139.12 
" clip-path="url(#p4bcccba96a)" style="fill: none; stroke: #000000; stroke-width: 2; stroke-linecap: round"/>
   </g>
   <g id="line2d_68">
    <path d="M 124.143 70.27 
L 127.968 70.27 
L 131.793 70.27 
" clip-path="url(#p4bcccba96a)" style="fill: none; stroke: #000000; stroke-width: 2; stroke-linecap: round"/>
   </g>
   <g id="line2d_69">
    <path d="M 131.793 70.27 
L 131.793 58.795 
L 131.793 47.32 
" clip-path="url(#p4bcccba96a)" style="fill: none; stroke: #000000; stroke-width: 2; stroke-linecap: round"/>
   </g>
   <g id="line2d_70">
    <path d="M 170.043 70.27 
L 166.218 70.27 
L 162.393 70.27 
" clip-path="url(#p4bcccba96a)" style="fill: none; stroke: #000000; stroke-width: 2; stroke-linecap: round"/>
   </g>
   <g id="line2d_71">
    <path d="M 162.393 70.27 
L 162.393 58.795 
L 162.393 47.32 
" clip-path="url(#p4bcccba96a)" style="fill: none; stroke: #000000; stroke-width: 2; stroke-linecap: round"/>
   </g>
   <g id="line2d_72">
    <path d="M 261.843 160.54 
L 265.668 160.54 
L 269.493 160.54 
" clip-path="url(#p4bcccba96a)" style="fill: none; stroke: #000000; stroke-width: 2; stroke-linecap: round"/>
   </g>
   <g id="line2d_73">
    <path d="M 269.493 160.54 
L 269.493 184.255 
L 269.493 207.97 
" clip-path="url(#p4bcccba96a)" style="fill: none; stroke: #000000; stroke-width: 2; stroke-linecap: round"/>
   </g>
   <g id="line2d_74">
    <path d="M 269.493 207.97 
L 265.668 207.97 
L 261.843 207.97 
" clip-path="url(#p4bcccba96a)" style="fill: none; stroke: #000000; stroke-width: 2; stroke-linecap: round"/>
   </g>
   <g id="line2d_75">
    <path d="M 32.343 160.54 
L 28.518 160.54 
L 24.693 160.54 
" clip-path="url(#p4bcccba96a)" style="fill: none; stroke: #000000; stroke-width: 2; stroke-linecap: round"/>
   </g>
   <g id="line2d_76">
    <path d="M 24.693 160.54 
L 24.693 184.255 
L 24.693 207.97 
" clip-path="url(#p4bcccba96a)" style="fill: none; stroke: #000000; stroke-width: 2; stroke-linecap: round"/>
   </g>
   <g id="line2d_77">
    <path d="M 24.693 207.97 
L 28.518 207.97 
L 32.343 207.97 
" clip-path="url(#p4bcccba96a)" style="fill: none; stroke: #000000; stroke-width: 2; stroke-linecap: round"/>
   </g>
   <g id="line2d_78">
    <path d="M 261.843 70.27 
L 265.668 70.27 
L 269.493 70.27 
" clip-path="url(#p4bcccba96a)" style="fill: none; stroke: #000000; stroke-width: 2; stroke-linecap: round"/>
   </g>
   <g id="line2d_79">
    <path d="M 269.493 70.27 
L 269.493 58.795 
L 269.493 47.32 
" clip-path="url(#p4bcccba96a)" style="fill: none; stroke: #000000; stroke-width: 2; stroke-linecap: round"/>
   </g>
   <g id="line2d_80">
    <path d="M 269.493 47.32 
L 265.668 47.32 
L 261.843 47.32 
" clip-path="url(#p4bcccba96a)" style="fill: none; stroke: #000000; stroke-width: 2; stroke-linecap: round"/>
   </g>
   <g id="line2d_81">
    <path d="M 32.343 70.27 
L 28.518 70.27 
L 24.693 70.27 
" clip-path="url(#p4bcccba96a)" style="fill: none; stroke: #000000; stroke-width: 2; stroke-linecap: round"/>
   </g>
   <g id="line2d_82">
    <path d="M 24.693 70.27 
L 24.693 58.795 
L 24.693 47.32 
" clip-path="url(#p4bcccba96a)" style="fill: none; stroke: #000000; stroke-width: 2; stroke-linecap: round"/>
   </g>
   <g id="line2d_83">
    <path d="M 24.693 47.32 
L 28.518 47.32 
L 32.343 47.32 
" clip-path="url(#p4bcccba96a)" style="fill: none; stroke: #000000; stroke-width: 2; stroke-linecap: round"/>
   </g>
   <g id="line2d_84">
    <path d="M 261.843 114.64 
L 273.318 114.64 
L 284.793 114.64 
" clip-path="url(#p4bcccba96a)" style="fill: none; stroke: #000000; stroke-width: 2; stroke-linecap: round"/>
   </g>
   <g id="text_1">
    <g clip-path="url(#p4bcccba96a)">
     <!-- 1 -->
     <g style="fill: #ff0000" transform="translate(157.499875 29.420391)scale(0.125 -0.125)">
      <defs>
       <path id="DejaVuSans-31" d="M 794 531 
L 1825 531 
L 1825 4091 
L 703 3866 
L 703 4441 
L 1819 4666 
L 2450 4666 
L 2450 531 
L 3481 531 
L 3481 0 
L 794 0 
L 794 531 
z
" transform="scale(0.015625)"/>
      </defs>
      <use xlink:href="#DejaVuSans-31"/>
     </g>
    </g>
   </g>
   <g id="patch_14">
    <path d="M 147.093 210.265 
C 147.701641 210.265 148.285436 210.023184 148.71581 209.59281 
C 149.146184 209.162436 149.388 208.578641 149.388 207.97 
C 149.388 207.361359 149.146184 206.777564 148.71581 206.34719 
C 148.285436 205.916816 147.701641 205.675 147.093 205.675 
C 146.484359 205.675 145.900564 205.916816 145.47019 206.34719 
C 145.039816 206.777564 144.798 207.361359 144.798 207.97 
C 144.798 208.578641 145.039816 209.162436 145.47019 209.59281 
C 145.900564 210.023184 146.484359 210.265 147.093 210.265 
z
" clip-path="url(#p4bcccba96a)" style="fill: #ff0000; stroke: #ff0000; stroke-width: 2; stroke-linejoin: miter"/>
   </g>
   <g id="text_2">
    <g clip-path="url(#p4bcccba96a)">
     <!-- 0 -->
     <g style="fill: #ff0000" transform="translate(157.499875 220.670391)scale(0.125 -0.125)">
      <defs>
       <path id="DejaVuSans-30" d="M 2034 4250 
Q 1547 4250 1301 3770 
Q 1056 3291 1056 2328 
Q 1056 1369 1301 889 
Q 1547 409 2034 409 
Q 2525 409 2770 889 
Q 3016 1369 3016 2328 
Q 3016 3291 2770 3770 
Q 2525 4250 2034 4250 
z
M 2034 4750 
Q 2819 4750 3233 4129 
Q 3647 3509 3647 2328 
Q 3647 1150 3233 529 
Q 2819 -91 2034 -91 
Q 1250 -91 836 529 
Q 422 1150 422 2328 
Q 422 3509 836 4129 
Q 1250 4750 2034 4750 
z
" transform="scale(0.015625)"/>
      </defs>
      <use xlink:href="#DejaVuSans-30"/>
     </g>
    </g>
   </g>
   <g id="patch_15">
    <path d="M 147.093 141.415 
C 147.701641 141.415 148.285436 141.173184 148.71581 140.74281 
C 149.146184 140.312436 149.388 139.728641 149.388 139.12 
C 149.388 138.511359 149.146184 137.927564 148.71581 137.49719 
C 148.285436 137.066816 147.701641 136.825 147.093 136.825 
C 146.484359 136.825 145.900564 137.066816 145.47019 137.49719 
C 145.039816 137.927564 144.798 138.511359 144.798 139.12 
C 144.798 139.728641 145.039816 140.312436 145.47019 140.74281 
C 145.900564 141.173184 146.484359 141.415 147.093 141.415 
z
" clip-path="url(#p4bcccba96a)" style="fill: #ff0000; stroke: #ff0000; stroke-width: 2; stroke-linejoin: miter"/>
   </g>
   <g id="text_3">
    <g clip-path="url(#p4bcccba96a)">
     <!-- 8 -->
     <g style="fill: #ff0000" transform="translate(142.199875 127.340391)scale(0.125 -0.125)">
      <defs>
       <path id="DejaVuSans-38" d="M 2034 2216 
Q 1584 2216 1326 1975 
Q 1069 1734 1069 1313 
Q 1069 891 1326 650 
Q 1584 409 2034 409 
Q 2484 409 2743 651 
Q 3003 894 3003 1313 
Q 3003 1734 2745 1975 
Q 2488 2216 2034 2216 
z
M 1403 2484 
Q 997 2584 770 2862 
Q 544 3141 544 3541 
Q 544 4100 942 4425 
Q 1341 4750 2034 4750 
Q 2731 4750 3128 4425 
Q 3525 4100 3525 3541 
Q 3525 3141 3298 2862 
Q 3072 2584 2669 2484 
Q 3125 2378 3379 2068 
Q 3634 1759 3634 1313 
Q 3634 634 3220 271 
Q 2806 -91 2034 -91 
Q 1263 -91 848 271 
Q 434 634 434 1313 
Q 434 1759 690 2068 
Q 947 2378 1403 2484 
z
M 1172 3481 
Q 1172 3119 1398 2916 
Q 1625 2713 2034 2713 
Q 2441 2713 2670 2916 
Q 2900 3119 2900 3481 
Q 2900 3844 2670 4047 
Q 2441 4250 2034 4250 
Q 1625 4250 1398 4047 
Q 1172 3844 1172 3481 
z
" transform="scale(0.015625)"/>
      </defs>
      <use xlink:href="#DejaVuSans-38"/>
     </g>
    </g>
   </g>
   <g id="patch_16">
    <path d="M 147.093 141.415 
C 147.701641 141.415 148.285436 141.173184 148.71581 140.74281 
C 149.146184 140.312436 149.388 139.728641 149.388 139.12 
C 149.388 138.511359 149.146184 137.927564 148.71581 137.49719 
C 148.285436 137.066816 147.701641 136.825 147.093 136.825 
C 146.484359 136.825 145.900564 137.066816 145.47019 137.49719 
C 145.039816 137.927564 144.798 138.511359 144.798 139.12 
C 144.798 139.728641 145.039816 140.312436 145.47019 140.74281 
C 145.900564 141.173184 146.484359 141.415 147.093 141.415 
z
" clip-path="url(#p4bcccba96a)" style="fill: #ff0000; stroke: #ff0000; stroke-width: 2; stroke-linejoin: miter"/>
   </g>
   <g id="patch_17">
    <path d="M 124.143 95.515 
C 124.751641 95.515 125.335436 95.273184 125.76581 94.84281 
C 126.196184 94.412436 126.438 93.828641 126.438 93.22 
C 126.438 92.611359 126.196184 92.027564 125.76581 91.59719 
C 125.335436 91.166816 124.751641 90.925 124.143 90.925 
C 123.534359 90.925 122.950564 91.166816 122.52019 91.59719 
C 122.089816 92.027564 121.848 92.611359 121.848 93.22 
C 121.848 93.828641 122.089816 94.412436 122.52019 94.84281 
C 122.950564 95.273184 123.534359 95.515 124.143 95.515 
z
" clip-path="url(#p4bcccba96a)" style="stroke: #000000; stroke-width: 2; stroke-linejoin: miter"/>
   </g>
   <g id="patch_18">
    <path d="M 82.323 72.565 
C 82.931641 72.565 83.515436 72.323184 83.94581 71.89281 
C 84.376184 71.462436 84.618 70.878641 84.618 70.27 
C 84.618 69.661359 84.376184 69.077564 83.94581 68.64719 
C 83.515436 68.216816 82.931641 67.975 82.323 67.975 
C 81.714359 67.975 81.130564 68.216816 80.70019 68.64719 
C 80.269816 69.077564 80.028 69.661359 80.028 70.27 
C 80.028 70.878641 80.269816 71.462436 80.70019 71.89281 
C 81.130564 72.323184 81.714359 72.565 82.323 72.565 
z
" clip-path="url(#p4bcccba96a)" style="fill: #ff0000; stroke: #ff0000; stroke-width: 2; stroke-linejoin: miter"/>
   </g>
   <g id="text_4">
    <g clip-path="url(#p4bcccba96a)">
     <!-- 6 -->
     <g style="fill: #ff0000" transform="translate(78.346438 62.315391)scale(0.125 -0.125)">
      <defs>
       <path id="DejaVuSans-36" d="M 2113 2584 
Q 1688 2584 1439 2293 
Q 1191 2003 1191 1497 
Q 1191 994 1439 701 
Q 1688 409 2113 409 
Q 2538 409 2786 701 
Q 3034 994 3034 1497 
Q 3034 2003 2786 2293 
Q 2538 2584 2113 2584 
z
M 3366 4563 
L 3366 3988 
Q 3128 4100 2886 4159 
Q 2644 4219 2406 4219 
Q 1781 4219 1451 3797 
Q 1122 3375 1075 2522 
Q 1259 2794 1537 2939 
Q 1816 3084 2150 3084 
Q 2853 3084 3261 2657 
Q 3669 2231 3669 1497 
Q 3669 778 3244 343 
Q 2819 -91 2113 -91 
Q 1303 -91 875 529 
Q 447 1150 447 2328 
Q 447 3434 972 4092 
Q 1497 4750 2381 4750 
Q 2619 4750 2861 4703 
Q 3103 4656 3366 4563 
z
" transform="scale(0.015625)"/>
      </defs>
      <use xlink:href="#DejaVuSans-36"/>
     </g>
    </g>
   </g>
   <g id="patch_19">
    <path d="M 147.093 49.615 
C 147.701641 49.615 148.285436 49.373184 148.71581 48.94281 
C 149.146184 48.512436 149.388 47.928641 149.388 47.32 
C 149.388 46.711359 149.146184 46.127564 148.71581 45.69719 
C 148.285436 45.266816 147.701641 45.025 147.093 45.025 
C 146.484359 45.025 145.900564 45.266816 145.47019 45.69719 
C 145.039816 46.127564 144.798 46.711359 144.798 47.32 
C 144.798 47.928641 145.039816 48.512436 145.47019 48.94281 
C 145.900564 49.373184 146.484359 49.615 147.093 49.615 
z
" clip-path="url(#p4bcccba96a)" style="fill: #ff0000; stroke: #ff0000; stroke-width: 2; stroke-linejoin: miter"/>
   </g>
   <g id="patch_20">
    <path d="M 170.043 95.515 
C 170.651641 95.515 171.235436 95.273184 171.66581 94.84281 
C 172.096184 94.412436 172.338 93.828641 172.338 93.22 
C 172.338 92.611359 172.096184 92.027564 171.66581 91.59719 
C 171.235436 91.166816 170.651641 90.925 170.043 90.925 
C 169.434359 90.925 168.850564 91.166816 168.42019 91.59719 
C 167.989816 92.027564 167.748 92.611359 167.748 93.22 
C 167.748 93.828641 167.989816 94.412436 168.42019 94.84281 
C 168.850564 95.273184 169.434359 95.515 170.043 95.515 
z
" clip-path="url(#p4bcccba96a)" style="stroke: #000000; stroke-width: 2; stroke-linejoin: miter"/>
   </g>
   <g id="patch_21">
    <path d="M 211.863 72.565 
C 212.471641 72.565 213.055436 72.323184 213.48581 71.89281 
C 213.916184 71.462436 214.158 70.878641 214.158 70.27 
C 214.158 69.661359 213.916184 69.077564 213.48581 68.64719 
C 213.055436 68.216816 212.471641 67.975 211.863 67.975 
C 211.254359 67.975 210.670564 68.216816 210.24019 68.64719 
C 209.809816 69.077564 209.568 69.661359 209.568 70.27 
C 209.568 70.878641 209.809816 71.462436 210.24019 71.89281 
C 210.670564 72.323184 211.254359 72.565 211.863 72.565 
z
" clip-path="url(#p4bcccba96a)" style="fill: #ff0000; stroke: #ff0000; stroke-width: 2; stroke-linejoin: miter"/>
   </g>
   <g id="text_5">
    <g clip-path="url(#p4bcccba96a)">
     <!-- 4 -->
     <g style="fill: #ff0000" transform="translate(207.886438 62.315391)scale(0.125 -0.125)">
      <defs>
       <path id="DejaVuSans-34" d="M 2419 4116 
L 825 1625 
L 2419 1625 
L 2419 4116 
z
M 2253 4666 
L 3047 4666 
L 3047 1625 
L 3713 1625 
L 3713 1100 
L 3047 1100 
L 3047 0 
L 2419 0 
L 2419 1100 
L 313 1100 
L 313 1709 
L 2253 4666 
z
" transform="scale(0.015625)"/>
      </defs>
      <use xlink:href="#DejaVuSans-34"/>
     </g>
    </g>
   </g>
   <g id="patch_22">
    <path d="M 32.343 139.885 
C 32.951641 139.885 33.535436 139.643184 33.96581 139.21281 
C 34.396184 138.782436 34.638 138.198641 34.638 137.59 
C 34.638 136.981359 34.396184 136.397564 33.96581 135.96719 
C 33.535436 135.536816 32.951641 135.295 32.343 135.295 
C 31.734359 135.295 31.150564 135.536816 30.72019 135.96719 
C 30.289816 136.397564 30.048 136.981359 30.048 137.59 
C 30.048 138.198641 30.289816 138.782436 30.72019 139.21281 
C 31.150564 139.643184 31.734359 139.885 32.343 139.885 
z
" clip-path="url(#p4bcccba96a)" style="fill: #ff0000; stroke: #ff0000; stroke-width: 2; stroke-linejoin: miter"/>
   </g>
   <g id="text_6">
    <g clip-path="url(#p4bcccba96a)">
     <!-- 5 -->
     <g style="fill: #ff0000" transform="translate(15.209875 128.870391)scale(0.125 -0.125)">
      <defs>
       <path id="DejaVuSans-35" d="M 691 4666 
L 3169 4666 
L 3169 4134 
L 1269 4134 
L 1269 2991 
Q 1406 3038 1543 3061 
Q 1681 3084 1819 3084 
Q 2600 3084 3056 2656 
Q 3513 2228 3513 1497 
Q 3513 744 3044 326 
Q 2575 -91 1722 -91 
Q 1428 -91 1123 -41 
Q 819 9 494 109 
L 494 744 
Q 775 591 1075 516 
Q 1375 441 1709 441 
Q 2250 441 2565 725 
Q 2881 1009 2881 1497 
Q 2881 1984 2565 2268 
Q 2250 2553 1709 2553 
Q 1456 2553 1204 2497 
Q 953 2441 691 2322 
L 691 4666 
z
" transform="scale(0.015625)"/>
      </defs>
      <use xlink:href="#DejaVuSans-35"/>
     </g>
    </g>
   </g>
   <g id="patch_23">
    <path d="M 261.843 116.935 
C 262.451641 116.935 263.035436 116.693184 263.46581 116.26281 
C 263.896184 115.832436 264.138 115.248641 264.138 114.64 
C 264.138 114.031359 263.896184 113.447564 263.46581 113.01719 
C 263.035436 112.586816 262.451641 112.345 261.843 112.345 
C 261.234359 112.345 260.650564 112.586816 260.22019 113.01719 
C 259.789816 113.447564 259.548 114.031359 259.548 114.64 
C 259.548 115.248641 259.789816 115.832436 260.22019 116.26281 
C 260.650564 116.693184 261.234359 116.935 261.843 116.935 
z
" clip-path="url(#p4bcccba96a)" style="stroke: #000000; stroke-width: 2; stroke-linejoin: miter"/>
   </g>
   <g id="patch_24">
    <path d="M 74.163 162.835 
C 74.771641 162.835 75.355436 162.593184 75.78581 162.16281 
C 76.216184 161.732436 76.458 161.148641 76.458 160.54 
C 76.458 159.931359 76.216184 159.347564 75.78581 158.91719 
C 75.355436 158.486816 74.771641 158.245 74.163 158.245 
C 73.554359 158.245 72.970564 158.486816 72.54019 158.91719 
C 72.109816 159.347564 71.868 159.931359 71.868 160.54 
C 71.868 161.148641 72.109816 161.732436 72.54019 162.16281 
C 72.970564 162.593184 73.554359 162.835 74.163 162.835 
z
" clip-path="url(#p4bcccba96a)" style="stroke: #000000; stroke-width: 2; stroke-linejoin: miter"/>
   </g>
   <g id="patch_25">
    <path d="M 284.793 116.935 
C 285.401641 116.935 285.985436 116.693184 286.41581 116.26281 
C 286.846184 115.832436 287.088 115.248641 287.088 114.64 
C 287.088 114.031359 286.846184 113.447564 286.41581 113.01719 
C 285.985436 112.586816 285.401641 112.345 284.793 112.345 
C 284.184359 112.345 283.600564 112.586816 283.17019 113.01719 
C 282.739816 113.447564 282.498 114.031359 282.498 114.64 
C 282.498 115.248641 282.739816 115.832436 283.17019 116.26281 
C 283.600564 116.693184 284.184359 116.935 284.793 116.935 
z
" clip-path="url(#p4bcccba96a)" style="fill: #ffffff; stroke: #ff0000; stroke-width: 2; stroke-linejoin: miter"/>
   </g>
   <g id="text_7">
    <g clip-path="url(#p4bcccba96a)">
     <!-- 3 -->
     <g style="fill: #ff0000" transform="translate(280.816438 106.685391)scale(0.125 -0.125)">
      <defs>
       <path id="DejaVuSans-33" d="M 2597 2516 
Q 3050 2419 3304 2112 
Q 3559 1806 3559 1356 
Q 3559 666 3084 287 
Q 2609 -91 1734 -91 
Q 1441 -91 1130 -33 
Q 819 25 488 141 
L 488 750 
Q 750 597 1062 519 
Q 1375 441 1716 441 
Q 2309 441 2620 675 
Q 2931 909 2931 1356 
Q 2931 1769 2642 2001 
Q 2353 2234 1838 2234 
L 1294 2234 
L 1294 2753 
L 1863 2753 
Q 2328 2753 2575 2939 
Q 2822 3125 2822 3475 
Q 2822 3834 2567 4026 
Q 2313 4219 1838 4219 
Q 1578 4219 1281 4162 
Q 984 4106 628 3988 
L 628 4550 
Q 988 4650 1302 4700 
Q 1616 4750 1894 4750 
Q 2613 4750 3031 4423 
Q 3450 4097 3450 3541 
Q 3450 3153 3228 2886 
Q 3006 2619 2597 2516 
z
" transform="scale(0.015625)"/>
      </defs>
      <use xlink:href="#DejaVuSans-33"/>
     </g>
    </g>
   </g>
   <g id="patch_26">
    <path d="M 188.913 187.315 
C 189.521641 187.315 190.105436 187.073184 190.53581 186.64281 
C 190.966184 186.212436 191.208 185.628641 191.208 185.02 
C 191.208 184.411359 190.966184 183.827564 190.53581 183.39719 
C 190.105436 182.966816 189.521641 182.725 188.913 182.725 
C 188.304359 182.725 187.720564 182.966816 187.29019 183.39719 
C 186.859816 183.827564 186.618 184.411359 186.618 185.02 
C 186.618 185.628641 186.859816 186.212436 187.29019 186.64281 
C 187.720564 187.073184 188.304359 187.315 188.913 187.315 
z
" clip-path="url(#p4bcccba96a)" style="fill: #ffffff; stroke: #ff0000; stroke-width: 2; stroke-linejoin: miter"/>
   </g>
   <g id="text_8">
    <g clip-path="url(#p4bcccba96a)">
     <!-- 9 -->
     <g style="fill: #ff0000" transform="translate(184.936438 177.065391)scale(0.125 -0.125)">
      <defs>
       <path id="DejaVuSans-39" d="M 703 97 
L 703 672 
Q 941 559 1184 500 
Q 1428 441 1663 441 
Q 2288 441 2617 861 
Q 2947 1281 2994 2138 
Q 2813 1869 2534 1725 
Q 2256 1581 1919 1581 
Q 1219 1581 811 2004 
Q 403 2428 403 3163 
Q 403 3881 828 4315 
Q 1253 4750 1959 4750 
Q 2769 4750 3195 4129 
Q 3622 3509 3622 2328 
Q 3622 1225 3098 567 
Q 2575 -91 1691 -91 
Q 1453 -91 1209 -44 
Q 966 3 703 97 
z
M 1959 2075 
Q 2384 2075 2632 2365 
Q 2881 2656 2881 3163 
Q 2881 3666 2632 3958 
Q 2384 4250 1959 4250 
Q 1534 4250 1286 3958 
Q 1038 3666 1038 3163 
Q 1038 2656 1286 2365 
Q 1534 2075 1959 2075 
z
" transform="scale(0.015625)"/>
      </defs>
      <use xlink:href="#DejaVuSans-39"/>
     </g>
    </g>
   </g>
   <g id="patch_27">
    <path d="M 211.863 118.465 
C 212.471641 118.465 213.055436 118.223184 213.48581 117.79281 
C 213.916184 117.362436 214.158 116.778641 214.158 116.17 
C 214.158 115.561359 213.916184 114.977564 213.48581 114.54719 
C 213.055436 114.116816 212.471641 113.875 211.863 113.875 
C 211.254359 113.875 210.670564 114.116816 210.24019 114.54719 
C 209.809816 114.977564 209.568 115.561359 209.568 116.17 
C 209.568 116.778641 209.809816 117.362436 210.24019 117.79281 
C 210.670564 118.223184 211.254359 118.465 211.863 118.465 
z
" clip-path="url(#p4bcccba96a)" style="fill: #ffffff; stroke: #ff0000; stroke-width: 2; stroke-linejoin: miter"/>
   </g>
   <g id="text_9">
    <g clip-path="url(#p4bcccba96a)">
     <!-- 10 -->
     <g style="fill: #ff0000" transform="translate(203.909875 108.215391)scale(0.125 -0.125)">
      <use xlink:href="#DejaVuSans-31"/>
      <use xlink:href="#DejaVuSans-30" x="63.623047"/>
     </g>
    </g>
   </g>
   <g id="patch_28">
    <path d="M 82.323 118.465 
C 82.931641 118.465 83.515436 118.223184 83.94581 117.79281 
C 84.376184 117.362436 84.618 116.778641 84.618 116.17 
C 84.618 115.561359 84.376184 114.977564 83.94581 114.54719 
C 83.515436 114.116816 82.931641 113.875 82.323 113.875 
C 81.714359 113.875 81.130564 114.116816 80.70019 114.54719 
C 80.269816 114.977564 80.028 115.561359 80.028 116.17 
C 80.028 116.778641 80.269816 117.362436 80.70019 117.79281 
C 81.130564 118.223184 81.714359 118.465 82.323 118.465 
z
" clip-path="url(#p4bcccba96a)" style="fill: #ffffff; stroke: #ff0000; stroke-width: 2; stroke-linejoin: miter"/>
   </g>
   <g id="text_10">
    <g clip-path="url(#p4bcccba96a)">
     <!-- 11 -->
     <g style="fill: #ff0000" transform="translate(74.369875 108.215391)scale(0.125 -0.125)">
      <use xlink:href="#DejaVuSans-31"/>
      <use xlink:href="#DejaVuSans-31" x="63.623047"/>
     </g>
    </g>
   </g>
  </g>
 </g>
 <defs>
  <clipPath id="p4bcccba96a">
   <rect x="7.2" y="7.2" width="296.2845" height="225.25"/>
  </clipPath>
 </defs>
</svg>