<?xml version="1.0" encoding="utf-8" standalone="no"?>
<!DOCTYPE svg PUBLIC "-//W3C//DTD SVG 1.1//EN"
  "http://www.w3.org/Graphics/SVG/1.1/DTD/svg11.dtd">
<!-- Created with matplotlib (https://matplotlib.org/) -->
<svg height="139.333375pt" version="1.1" viewBox="0 0 444.1 139.333375" width="444.1pt" xmlns="http://www.w3.org/2000/svg" xmlns:xlink="http://www.w3.org/1999/xlink">
 <metadata>
  <rdf:RDF xmlns:cc="http://creativecommons.org/ns#" xmlns:dc="http://purl.org/dc/elements/1.1/" xmlns:rdf="http://www.w3.org/1999/02/22-rdf-syntax-ns#">
   <cc:Work>
    <dc:type rdf:resource="http://purl.org/dc/dcmitype/StillImage"/>
    <dc:date>2020-12-05T01:11:45.364222</dc:date>
    <dc:format>image/svg+xml</dc:format>
    <dc:creator>
     <cc:Agent>
      <dc:title>Matplotlib v3.3.3, https://matplotlib.org/</dc:title>
     </cc:Agent>
    </dc:creator>
   </cc:Work>
  </rdf:RDF>
 </metadata>
 <defs>
  <style type="text/css">*{stroke-linecap:butt;stroke-linejoin:round;}</style>
 </defs>
 <g id="figure_1">
  <g id="patch_1">
   <path d="M 0 139.333375 
L 444.1 139.333375 
L 444.1 0 
L 0 0 
z
" style="fill:none;"/>
  </g>
  <g id="axes_1">
   <g id="patch_2">
    <path clip-path="url(#p815e76c454)" d="M 45.54 94.189375 
C 49.83629 94.189375 53.957194 92.57727 56.99513 89.708109 
C 60.033066 86.838947 61.74 82.946982 61.74 78.889375 
C 61.74 74.831768 60.033066 70.939803 56.99513 68.070641 
C 53.957194 65.20148 49.83629 63.589375 45.54 63.589375 
C 41.24371 63.589375 37.122806 65.20148 34.08487 68.070641 
C 31.046934 70.939803 29.34 74.831768 29.34 78.889375 
C 29.34 82.946982 31.046934 86.838947 34.08487 89.708109 
C 37.122806 92.57727 41.24371 94.189375 45.54 94.189375 
z
" style="fill:none;stroke:#000000;stroke-linejoin:miter;stroke-width:2;"/>
   </g>
   <g id="patch_3">
    <path clip-path="url(#p815e76c454)" d="M 102.24 60.529375 
C 102.24 59.323868 102.114287 58.130084 101.870055 57.016341 
C 101.625822 55.902598 101.267821 54.890557 100.816539 54.038135 
C 100.365257 53.185713 99.82947 52.509488 99.239841 52.048161 
C 98.650213 51.586834 98.018209 51.349375 97.38 51.349375 
C 96.741791 51.349375 96.109787 51.586834 95.520159 52.048161 
C 94.93053 52.509488 94.394743 53.185713 93.943461 54.038135 
C 93.492179 54.890557 93.134178 55.902598 92.889945 57.016341 
C 92.645713 58.130084 92.52 59.323868 92.52 60.529375 
C 92.52 61.734882 92.645713 62.928666 92.889945 64.042409 
C 93.134178 65.156152 93.492179 66.168193 93.943461 67.020615 
C 94.394743 67.873037 94.93053 68.549262 95.520159 69.010589 
C 96.109787 69.471916 96.741791 69.709375 97.38 69.709375 
C 98.018209 69.709375 98.650213 69.471916 99.239841 69.010589 
C 99.82947 68.549262 100.365257 67.873037 100.816539 67.020615 
C 101.267821 66.168193 101.625822 65.156152 101.870055 64.042409 
C 102.114287 62.928666 102.24 61.734882 102.24 60.529375 
" style="fill:none;stroke:#000000;stroke-linejoin:miter;stroke-width:2;"/>
   </g>
   <g id="patch_4">
    <path clip-path="url(#p815e76c454)" d="M 220.5 69.709375 
C 221.788458 69.709375 223.025462 68.741539 223.936539 67.020615 
C 224.847616 65.299692 225.36 62.963129 225.36 60.529375 
C 225.36 58.095621 224.847616 55.759058 223.936539 54.038135 
C 223.025462 52.317211 221.788458 51.349375 220.5 51.349375 
" style="fill:none;stroke:#000000;stroke-linejoin:miter;stroke-width:2;"/>
   </g>
   <g id="patch_5">
    <path clip-path="url(#p815e76c454)" d="M 312.84 60.529375 
C 312.84 59.323868 312.714287 58.130084 312.470055 57.016341 
C 312.225822 55.902598 311.867821 54.890557 311.416539 54.038135 
C 310.965257 53.185713 310.42947 52.509488 309.839841 52.048161 
C 309.250213 51.586834 308.618209 51.349375 307.98 51.349375 
C 307.341791 51.349375 306.709787 51.586834 306.120159 52.048161 
C 305.53053 52.509488 304.994743 53.185713 304.543461 54.038135 
C 304.092179 54.890557 303.734178 55.902598 303.489945 57.016341 
C 303.245713 58.130084 303.12 59.323868 303.12 60.529375 
C 303.12 61.734882 303.245713 62.928666 303.489945 64.042409 
C 303.734178 65.156152 304.092179 66.168193 304.543461 67.020615 
C 304.994743 67.873037 305.53053 68.549262 306.120159 69.010589 
C 306.709787 69.471916 307.341791 69.709375 307.98 69.709375 
C 308.618209 69.709375 309.250213 69.471916 309.839841 69.010589 
C 310.42947 68.549262 310.965257 67.873037 311.416539 67.020615 
C 311.867821 66.168193 312.225822 65.156152 312.470055 64.042409 
C 312.714287 62.928666 312.84 61.734882 312.84 60.529375 
" style="fill:none;stroke:#000000;stroke-linejoin:miter;stroke-width:2;"/>
   </g>
   <g id="patch_6">
    <path clip-path="url(#p815e76c454)" d="M 398.7 69.709375 
C 399.988458 69.709375 401.225462 68.741539 402.136539 67.020615 
C 403.047616 65.299692 403.56 62.963129 403.56 60.529375 
C 403.56 58.095621 403.047616 55.759058 402.136539 54.038135 
C 401.225462 52.317211 399.988458 51.349375 398.7 51.349375 
" style="fill:none;stroke:#000000;stroke-linejoin:miter;stroke-width:2;"/>
   </g>
   <g id="line2d_1">
    <path clip-path="url(#p815e76c454)" d="M 45.54 109.489375 
L 45.54 121.729375 
L 37.44 121.729375 
L 53.64 121.729375 
M 39.87 125.401375 
L 51.21 125.401375 
M 43.92 129.073375 
L 47.16 129.073375 
" style="fill:none;stroke:#000000;stroke-linecap:round;stroke-width:2;"/>
   </g>
   <g id="line2d_2">
    <path clip-path="url(#p815e76c454)" d="M 45.54 109.489375 
L 45.54 94.189375 
L 45.54 94.189375 
M 45.54 63.589375 
L 45.54 63.589375 
L 45.54 48.289375 
" style="fill:none;stroke:#000000;stroke-linecap:round;stroke-width:2;"/>
   </g>
   <g id="line2d_3">
    <path clip-path="url(#p815e76c454)" d="M 53.64 78.889375 
L 52.965 77.305402 
L 52.29 75.829375 
L 51.615 74.561881 
L 50.94 73.5893 
L 50.265 72.977909 
L 49.59 72.769375 
L 48.915 72.977909 
L 48.24 73.5893 
L 47.565 74.561881 
L 46.89 75.829375 
L 46.215 77.305402 
L 45.54 78.889375 
L 44.865 80.473348 
L 44.19 81.949375 
L 43.515 83.216869 
L 42.84 84.18945 
L 42.165 84.800841 
L 41.49 85.009375 
L 40.815 84.800841 
L 40.14 84.18945 
L 39.465 83.216869 
L 38.79 81.949375 
L 38.115 80.473348 
L 37.44 78.889375 
" style="fill:none;stroke:#000000;stroke-linecap:round;stroke-width:2;"/>
   </g>
   <g id="line2d_4">
    <path clip-path="url(#p815e76c454)" d="M 45.54 48.289375 
L 61.74 48.289375 
L 77.94 48.289375 
" style="fill:none;stroke:#000000;stroke-linecap:round;stroke-width:2;"/>
   </g>
   <g id="line2d_5">
    <path clip-path="url(#p815e76c454)" d="M 77.94 48.289375 
L 77.94 54.409375 
L 77.94 60.529375 
" style="fill:none;stroke:#000000;stroke-linecap:round;stroke-width:2;"/>
   </g>
   <g id="line2d_6">
    <path clip-path="url(#p815e76c454)" d="M 77.94 60.529375 
L 97.38 60.529375 
M 225.36 60.529375 
L 239.94 60.529375 
" style="fill:none;stroke:#000000;stroke-linecap:round;stroke-width:2;"/>
   </g>
   <g id="line2d_7">
    <path clip-path="url(#p815e76c454)" d="M 97.38 51.349375 
L 220.5 51.349375 
" style="fill:none;stroke:#000000;stroke-linecap:round;stroke-width:2;"/>
   </g>
   <g id="line2d_8">
    <path clip-path="url(#p815e76c454)" d="M 97.38 69.709375 
L 220.5 69.709375 
" style="fill:none;stroke:#000000;stroke-linecap:round;stroke-width:2;"/>
   </g>
   <g id="line2d_9">
    <path clip-path="url(#p815e76c454)" d="M 239.94 60.529375 
L 261.324 60.529375 
M 261.324 52.879375 
L 261.324 68.179375 
M 267.156 52.879375 
L 267.156 68.179375 
M 267.156 60.529375 
L 288.54 60.529375 
" style="fill:none;stroke:#000000;stroke-linecap:round;stroke-width:2;"/>
   </g>
   <g id="line2d_10">
    <path clip-path="url(#p815e76c454)" d="M 288.54 60.529375 
L 307.98 60.529375 
M 403.56 60.529375 
L 418.14 60.529375 
" style="fill:none;stroke:#000000;stroke-linecap:round;stroke-width:2;"/>
   </g>
   <g id="line2d_11">
    <path clip-path="url(#p815e76c454)" d="M 307.98 51.349375 
L 398.7 51.349375 
" style="fill:none;stroke:#000000;stroke-linecap:round;stroke-width:2;"/>
   </g>
   <g id="line2d_12">
    <path clip-path="url(#p815e76c454)" d="M 307.98 69.709375 
L 398.7 69.709375 
" style="fill:none;stroke:#000000;stroke-linecap:round;stroke-width:2;"/>
   </g>
   <g id="line2d_13">
    <path clip-path="url(#p815e76c454)" d="M 418.14 60.529375 
L 418.14 42.169375 
L 405.828 23.809375 
L 430.452 23.809375 
L 418.14 42.169375 
" style="fill:none;stroke:#000000;stroke-linecap:round;stroke-width:2;"/>
   </g>
   <g id="line2d_14">
    <path clip-path="url(#p815e76c454)" d="M 220.5 69.709375 
L 220.5 85.009375 
L 220.5 100.309375 
" style="fill:none;stroke:#000000;stroke-linecap:round;stroke-width:2;"/>
   </g>
   <g id="line2d_15">
    <path clip-path="url(#p815e76c454)" d="M 220.5 100.309375 
L 264.24 100.309375 
L 307.98 100.309375 
" style="fill:none;stroke:#000000;stroke-linecap:round;stroke-width:2;"/>
   </g>
   <g id="line2d_16">
    <path clip-path="url(#p815e76c454)" d="M 307.98 100.309375 
L 307.98 85.009375 
L 307.98 69.709375 
" style="fill:none;stroke:#000000;stroke-linecap:round;stroke-width:2;"/>
   </g>
   <g id="line2d_17">
    <path clip-path="url(#p815e76c454)" d="M 45.54 109.489375 
L 71.46 109.489375 
L 97.38 109.489375 
" style="fill:none;stroke:#000000;stroke-linecap:round;stroke-width:2;"/>
   </g>
   <g id="line2d_18">
    <path clip-path="url(#p815e76c454)" d="M 97.38 109.489375 
L 97.38 89.599375 
L 97.38 69.709375 
" style="fill:none;stroke:#000000;stroke-linecap:round;stroke-width:2;"/>
   </g>
   <g id="text_1">
    <!-- $V_{in}$ -->
    <g transform="translate(7.2 82.7525)scale(0.14 -0.14)">
     <defs>
      <path d="M 20.609375 0 
L 7.8125 72.90625 
L 17.484375 72.90625 
L 28.078125 10.203125 
L 63.484375 72.90625 
L 74.21875 72.90625 
L 32.078125 0 
z
" id="DejaVuSans-Oblique-86"/>
      <path d="M 18.3125 75.984375 
L 27.296875 75.984375 
L 25.09375 64.59375 
L 16.109375 64.59375 
z
M 14.203125 54.6875 
L 23.1875 54.6875 
L 12.5 0 
L 3.515625 0 
z
" id="DejaVuSans-Oblique-105"/>
      <path d="M 55.71875 33.015625 
L 49.3125 0 
L 40.28125 0 
L 46.6875 32.671875 
Q 47.125 34.96875 47.359375 36.71875 
Q 47.609375 38.484375 47.609375 39.5 
Q 47.609375 43.609375 45.015625 45.890625 
Q 42.4375 48.1875 37.796875 48.1875 
Q 30.5625 48.1875 25.34375 43.375 
Q 20.125 38.578125 18.5 30.328125 
L 12.5 0 
L 3.515625 0 
L 14.109375 54.6875 
L 23.09375 54.6875 
L 21.296875 46.09375 
Q 25.046875 50.828125 30.3125 53.40625 
Q 35.59375 56 41.40625 56 
Q 48.640625 56 52.609375 52.09375 
Q 56.59375 48.1875 56.59375 41.109375 
Q 56.59375 39.359375 56.375 37.359375 
Q 56.15625 35.359375 55.71875 33.015625 
z
" id="DejaVuSans-Oblique-110"/>
     </defs>
     <use transform="translate(0 0.09375)" xlink:href="#DejaVuSans-Oblique-86"/>
     <use transform="translate(68.408203 -16.3125)scale(0.7)" xlink:href="#DejaVuSans-Oblique-105"/>
     <use transform="translate(87.856445 -16.3125)scale(0.7)" xlink:href="#DejaVuSans-Oblique-110"/>
    </g>
   </g>
   <g id="text_2">
    <!-- $50\Omega$ -->
    <g transform="translate(144.66 45.377813)scale(0.14 -0.14)">
     <defs>
      <path d="M 10.796875 72.90625 
L 49.515625 72.90625 
L 49.515625 64.59375 
L 19.828125 64.59375 
L 19.828125 46.734375 
Q 21.96875 47.46875 24.109375 47.828125 
Q 26.265625 48.1875 28.421875 48.1875 
Q 40.625 48.1875 47.75 41.5 
Q 54.890625 34.8125 54.890625 23.390625 
Q 54.890625 11.625 47.5625 5.09375 
Q 40.234375 -1.421875 26.90625 -1.421875 
Q 22.3125 -1.421875 17.546875 -0.640625 
Q 12.796875 0.140625 7.71875 1.703125 
L 7.71875 11.625 
Q 12.109375 9.234375 16.796875 8.0625 
Q 21.484375 6.890625 26.703125 6.890625 
Q 35.15625 6.890625 40.078125 11.328125 
Q 45.015625 15.765625 45.015625 23.390625 
Q 45.015625 31 40.078125 35.4375 
Q 35.15625 39.890625 26.703125 39.890625 
Q 22.75 39.890625 18.8125 39.015625 
Q 14.890625 38.140625 10.796875 36.28125 
z
" id="DejaVuSans-53"/>
      <path d="M 31.78125 66.40625 
Q 24.171875 66.40625 20.328125 58.90625 
Q 16.5 51.421875 16.5 36.375 
Q 16.5 21.390625 20.328125 13.890625 
Q 24.171875 6.390625 31.78125 6.390625 
Q 39.453125 6.390625 43.28125 13.890625 
Q 47.125 21.390625 47.125 36.375 
Q 47.125 51.421875 43.28125 58.90625 
Q 39.453125 66.40625 31.78125 66.40625 
z
M 31.78125 74.21875 
Q 44.046875 74.21875 50.515625 64.515625 
Q 56.984375 54.828125 56.984375 36.375 
Q 56.984375 17.96875 50.515625 8.265625 
Q 44.046875 -1.421875 31.78125 -1.421875 
Q 19.53125 -1.421875 13.0625 8.265625 
Q 6.59375 17.96875 6.59375 36.375 
Q 6.59375 54.828125 13.0625 64.515625 
Q 19.53125 74.21875 31.78125 74.21875 
z
" id="DejaVuSans-48"/>
      <path d="M 72.609375 8.6875 
L 72.609375 0 
L 43.3125 0 
L 43.3125 8.6875 
Q 51.953125 13.421875 56.78125 21.53125 
Q 61.625 29.640625 61.625 39.5 
Q 61.625 51.21875 55.171875 58.296875 
Q 48.734375 65.375 38.1875 65.375 
Q 27.640625 65.375 21.171875 58.265625 
Q 14.703125 51.171875 14.703125 39.5 
Q 14.703125 29.640625 19.53125 21.53125 
Q 24.421875 13.421875 33.109375 8.6875 
L 33.109375 0 
L 3.8125 0 
L 3.8125 8.6875 
L 19.390625 8.6875 
Q 11.671875 15.484375 8.109375 22.75 
Q 4.59375 30.03125 4.59375 39.015625 
Q 4.59375 54.546875 13.96875 64.15625 
Q 23.296875 73.78125 38.1875 73.78125 
Q 52.984375 73.78125 62.40625 64.15625 
Q 71.78125 54.59375 71.78125 39.5 
Q 71.78125 30.03125 68.3125 22.796875 
Q 64.84375 15.578125 56.984375 8.6875 
z
" id="DejaVuSans-937"/>
     </defs>
     <use transform="translate(0 0.78125)" xlink:href="#DejaVuSans-53"/>
     <use transform="translate(63.623047 0.78125)" xlink:href="#DejaVuSans-48"/>
     <use transform="translate(127.246094 0.78125)" xlink:href="#DejaVuSans-937"/>
    </g>
   </g>
   <g id="text_3">
    <!-- 6.54pF -->
    <g transform="translate(240.184063 46.907813)scale(0.14 -0.14)">
     <defs>
      <path d="M 33.015625 40.375 
Q 26.375 40.375 22.484375 35.828125 
Q 18.609375 31.296875 18.609375 23.390625 
Q 18.609375 15.53125 22.484375 10.953125 
Q 26.375 6.390625 33.015625 6.390625 
Q 39.65625 6.390625 43.53125 10.953125 
Q 47.40625 15.53125 47.40625 23.390625 
Q 47.40625 31.296875 43.53125 35.828125 
Q 39.65625 40.375 33.015625 40.375 
z
M 52.59375 71.296875 
L 52.59375 62.3125 
Q 48.875 64.0625 45.09375 64.984375 
Q 41.3125 65.921875 37.59375 65.921875 
Q 27.828125 65.921875 22.671875 59.328125 
Q 17.53125 52.734375 16.796875 39.40625 
Q 19.671875 43.65625 24.015625 45.921875 
Q 28.375 48.1875 33.59375 48.1875 
Q 44.578125 48.1875 50.953125 41.515625 
Q 57.328125 34.859375 57.328125 23.390625 
Q 57.328125 12.15625 50.6875 5.359375 
Q 44.046875 -1.421875 33.015625 -1.421875 
Q 20.359375 -1.421875 13.671875 8.265625 
Q 6.984375 17.96875 6.984375 36.375 
Q 6.984375 53.65625 15.1875 63.9375 
Q 23.390625 74.21875 37.203125 74.21875 
Q 40.921875 74.21875 44.703125 73.484375 
Q 48.484375 72.75 52.59375 71.296875 
z
" id="DejaVuSans-54"/>
      <path d="M 10.6875 12.40625 
L 21 12.40625 
L 21 0 
L 10.6875 0 
z
" id="DejaVuSans-46"/>
      <path d="M 37.796875 64.3125 
L 12.890625 25.390625 
L 37.796875 25.390625 
z
M 35.203125 72.90625 
L 47.609375 72.90625 
L 47.609375 25.390625 
L 58.015625 25.390625 
L 58.015625 17.1875 
L 47.609375 17.1875 
L 47.609375 0 
L 37.796875 0 
L 37.796875 17.1875 
L 4.890625 17.1875 
L 4.890625 26.703125 
z
" id="DejaVuSans-52"/>
      <path d="M 18.109375 8.203125 
L 18.109375 -20.796875 
L 9.078125 -20.796875 
L 9.078125 54.6875 
L 18.109375 54.6875 
L 18.109375 46.390625 
Q 20.953125 51.265625 25.265625 53.625 
Q 29.59375 56 35.59375 56 
Q 45.5625 56 51.78125 48.09375 
Q 58.015625 40.1875 58.015625 27.296875 
Q 58.015625 14.40625 51.78125 6.484375 
Q 45.5625 -1.421875 35.59375 -1.421875 
Q 29.59375 -1.421875 25.265625 0.953125 
Q 20.953125 3.328125 18.109375 8.203125 
z
M 48.6875 27.296875 
Q 48.6875 37.203125 44.609375 42.84375 
Q 40.53125 48.484375 33.40625 48.484375 
Q 26.265625 48.484375 22.1875 42.84375 
Q 18.109375 37.203125 18.109375 27.296875 
Q 18.109375 17.390625 22.1875 11.75 
Q 26.265625 6.109375 33.40625 6.109375 
Q 40.53125 6.109375 44.609375 11.75 
Q 48.6875 17.390625 48.6875 27.296875 
z
" id="DejaVuSans-112"/>
      <path d="M 9.8125 72.90625 
L 51.703125 72.90625 
L 51.703125 64.59375 
L 19.671875 64.59375 
L 19.671875 43.109375 
L 48.578125 43.109375 
L 48.578125 34.8125 
L 19.671875 34.8125 
L 19.671875 0 
L 9.8125 0 
z
" id="DejaVuSans-70"/>
     </defs>
     <use xlink:href="#DejaVuSans-54"/>
     <use x="63.623047" xlink:href="#DejaVuSans-46"/>
     <use x="95.410156" xlink:href="#DejaVuSans-53"/>
     <use x="159.033203" xlink:href="#DejaVuSans-52"/>
     <use x="222.65625" xlink:href="#DejaVuSans-112"/>
     <use x="286.132812" xlink:href="#DejaVuSans-70"/>
    </g>
   </g>
   <g id="text_4">
    <!-- $50\Omega$ -->
    <g transform="translate(339.06 45.377813)scale(0.14 -0.14)">
     <use transform="translate(0 0.78125)" xlink:href="#DejaVuSans-53"/>
     <use transform="translate(63.623047 0.78125)" xlink:href="#DejaVuSans-48"/>
     <use transform="translate(127.246094 0.78125)" xlink:href="#DejaVuSans-937"/>
    </g>
   </g>
   <g id="text_5">
    <!-- 10.1 cm -->
    <g transform="translate(324.862031 83.407188)scale(0.14 -0.14)">
     <defs>
      <path d="M 12.40625 8.296875 
L 28.515625 8.296875 
L 28.515625 63.921875 
L 10.984375 60.40625 
L 10.984375 69.390625 
L 28.421875 72.90625 
L 38.28125 72.90625 
L 38.28125 8.296875 
L 54.390625 8.296875 
L 54.390625 0 
L 12.40625 0 
z
" id="DejaVuSans-49"/>
      <path id="DejaVuSans-32"/>
      <path d="M 48.78125 52.59375 
L 48.78125 44.1875 
Q 44.96875 46.296875 41.140625 47.34375 
Q 37.3125 48.390625 33.40625 48.390625 
Q 24.65625 48.390625 19.8125 42.84375 
Q 14.984375 37.3125 14.984375 27.296875 
Q 14.984375 17.28125 19.8125 11.734375 
Q 24.65625 6.203125 33.40625 6.203125 
Q 37.3125 6.203125 41.140625 7.25 
Q 44.96875 8.296875 48.78125 10.40625 
L 48.78125 2.09375 
Q 45.015625 0.34375 40.984375 -0.53125 
Q 36.96875 -1.421875 32.421875 -1.421875 
Q 20.0625 -1.421875 12.78125 6.34375 
Q 5.515625 14.109375 5.515625 27.296875 
Q 5.515625 40.671875 12.859375 48.328125 
Q 20.21875 56 33.015625 56 
Q 37.15625 56 41.109375 55.140625 
Q 45.0625 54.296875 48.78125 52.59375 
z
" id="DejaVuSans-99"/>
      <path d="M 52 44.1875 
Q 55.375 50.25 60.0625 53.125 
Q 64.75 56 71.09375 56 
Q 79.640625 56 84.28125 50.015625 
Q 88.921875 44.046875 88.921875 33.015625 
L 88.921875 0 
L 79.890625 0 
L 79.890625 32.71875 
Q 79.890625 40.578125 77.09375 44.375 
Q 74.3125 48.1875 68.609375 48.1875 
Q 61.625 48.1875 57.5625 43.546875 
Q 53.515625 38.921875 53.515625 30.90625 
L 53.515625 0 
L 44.484375 0 
L 44.484375 32.71875 
Q 44.484375 40.625 41.703125 44.40625 
Q 38.921875 48.1875 33.109375 48.1875 
Q 26.21875 48.1875 22.15625 43.53125 
Q 18.109375 38.875 18.109375 30.90625 
L 18.109375 0 
L 9.078125 0 
L 9.078125 54.6875 
L 18.109375 54.6875 
L 18.109375 46.1875 
Q 21.1875 51.21875 25.484375 53.609375 
Q 29.78125 56 35.6875 56 
Q 41.65625 56 45.828125 52.96875 
Q 50 49.953125 52 44.1875 
z
" id="DejaVuSans-109"/>
     </defs>
     <use xlink:href="#DejaVuSans-49"/>
     <use x="63.623047" xlink:href="#DejaVuSans-48"/>
     <use x="127.246094" xlink:href="#DejaVuSans-46"/>
     <use x="159.033203" xlink:href="#DejaVuSans-49"/>
     <use x="222.65625" xlink:href="#DejaVuSans-32"/>
     <use x="254.443359" xlink:href="#DejaVuSans-99"/>
     <use x="309.423828" xlink:href="#DejaVuSans-109"/>
    </g>
   </g>
   <g id="text_6">
    <!-- $150\Omega$ -->
    <g transform="translate(399.38 17.837813)scale(0.14 -0.14)">
     <use transform="translate(0 0.78125)" xlink:href="#DejaVuSans-49"/>
     <use transform="translate(63.623047 0.78125)" xlink:href="#DejaVuSans-53"/>
     <use transform="translate(127.246094 0.78125)" xlink:href="#DejaVuSans-48"/>
     <use transform="translate(190.869141 0.78125)" xlink:href="#DejaVuSans-937"/>
    </g>
   </g>
   <g id="patch_7">
    <path clip-path="url(#p815e76c454)" d="M 45.54 111.784375 
C 46.184444 111.784375 46.802579 111.542559 47.258269 111.112185 
C 47.71396 110.681811 47.97 110.098016 47.97 109.489375 
C 47.97 108.880734 47.71396 108.296939 47.258269 107.866565 
C 46.802579 107.436191 46.184444 107.194375 45.54 107.194375 
C 44.895556 107.194375 44.277421 107.436191 43.821731 107.866565 
C 43.36604 108.296939 43.11 108.880734 43.11 109.489375 
C 43.11 110.098016 43.36604 110.681811 43.821731 111.112185 
C 44.277421 111.542559 44.895556 111.784375 45.54 111.784375 
z
" style="stroke:#000000;stroke-linejoin:miter;stroke-width:2;"/>
   </g>
   <g id="patch_8">
    <path clip-path="url(#p815e76c454)" d="M 239.94 62.824375 
C 240.584444 62.824375 241.202579 62.582559 241.658269 62.152185 
C 242.11396 61.721811 242.37 61.138016 242.37 60.529375 
C 242.37 59.920734 242.11396 59.336939 241.658269 58.906565 
C 241.202579 58.476191 240.584444 58.234375 239.94 58.234375 
C 239.295556 58.234375 238.677421 58.476191 238.221731 58.906565 
C 237.76604 59.336939 237.51 59.920734 237.51 60.529375 
C 237.51 61.138016 237.76604 61.721811 238.221731 62.152185 
C 238.677421 62.582559 239.295556 62.824375 239.94 62.824375 
z
" style="stroke:#000000;stroke-linejoin:miter;stroke-width:2;"/>
   </g>
   <g id="patch_9">
    <path clip-path="url(#p815e76c454)" d="M 288.54 62.824375 
C 289.184444 62.824375 289.802579 62.582559 290.258269 62.152185 
C 290.71396 61.721811 290.97 61.138016 290.97 60.529375 
C 290.97 59.920734 290.71396 59.336939 290.258269 58.906565 
C 289.802579 58.476191 289.184444 58.234375 288.54 58.234375 
C 287.895556 58.234375 287.277421 58.476191 286.821731 58.906565 
C 286.36604 59.336939 286.11 59.920734 286.11 60.529375 
C 286.11 61.138016 286.36604 61.721811 286.821731 62.152185 
C 287.277421 62.582559 287.895556 62.824375 288.54 62.824375 
z
" style="fill:#008000;stroke:#008000;stroke-linejoin:miter;stroke-width:2;"/>
   </g>
   <g id="patch_10">
    <path clip-path="url(#p815e76c454)" d="M 418.14 62.824375 
C 418.784444 62.824375 419.402579 62.582559 419.858269 62.152185 
C 420.31396 61.721811 420.57 61.138016 420.57 60.529375 
C 420.57 59.920734 420.31396 59.336939 419.858269 58.906565 
C 419.402579 58.476191 418.784444 58.234375 418.14 58.234375 
C 417.495556 58.234375 416.877421 58.476191 416.421731 58.906565 
C 415.96604 59.336939 415.71 59.920734 415.71 60.529375 
C 415.71 61.138016 415.96604 61.721811 416.421731 62.152185 
C 416.877421 62.582559 417.495556 62.824375 418.14 62.824375 
z
" style="fill:#ff0000;stroke:#ff0000;stroke-linejoin:miter;stroke-width:2;"/>
   </g>
  </g>
 </g>
 <defs>
  <clipPath id="p815e76c454">
   <rect height="111.384" width="407.592" x="26.1" y="20.749375"/>
  </clipPath>
 </defs>
</svg>