<?xml version="1.0" encoding="utf-8" standalone="no"?>
<!DOCTYPE svg PUBLIC "-//W3C//DTD SVG 1.1//EN"
  "http://www.w3.org/Graphics/SVG/1.1/DTD/svg11.dtd">
<svg xmlns:xlink="http://www.w3.org/1999/xlink" width="183.322884pt" height="185.36pt" viewBox="0 0 183.322884 185.36" xmlns="http://www.w3.org/2000/svg" version="1.1">
 <metadata>
  <rdf:RDF xmlns:dc="http://purl.org/dc/elements/1.1/" xmlns:cc="http://creativecommons.org/ns#" xmlns:rdf="http://www.w3.org/1999/02/22-rdf-syntax-ns#">
   <cc:Work>
    <dc:type rdf:resource="http://purl.org/dc/dcmitype/StillImage"/>
    <dc:date>2025-10-05T17:30:03.582228</dc:date>
    <dc:format>image/svg+xml</dc:format>
    <dc:creator>
     <cc:Agent>
      <dc:title>Matplotlib v3.10.6, https://matplotlib.org/</dc:title>
     </cc:Agent>
    </dc:creator>
   </cc:Work>
  </rdf:RDF>
 </metadata>
 <defs>
  <style type="text/css">*{stroke-linejoin: round; stroke-linecap: butt}</style>
 </defs>
 <g id="figure_1">
  <g id="patch_1">
   <path d="M 0 185.36 
L 183.322884 185.36 
L 183.322884 0 
L 0 0 
z
" style="fill: #ffffff"/>
  </g>
  <g id="axes_1">
   <g id="line2d_1">
    <path d="M 74.938884 180.68 
L 74.938884 167.18 
L 74.938884 153.68 
" clip-path="url(#pb01d79f725)" style="fill: none; stroke: #000000; stroke-width: 2; stroke-linecap: round"/>
   </g>
   <g id="line2d_2">
    <path d="M 74.938884 153.68 
L 74.938884 102.92 
M 65.938884 102.92 
L 83.938884 102.92 
M 65.938884 96.44 
L 83.938884 96.44 
M 74.938884 96.44 
L 74.938884 45.68 
" clip-path="url(#pb01d79f725)" style="fill: none; stroke: #000000; stroke-width: 2; stroke-linecap: round"/>
   </g>
   <g id="line2d_3">
    <path d="M 74.938884 153.68 
L 52.438884 153.68 
L 29.938884 153.68 
" clip-path="url(#pb01d79f725)" style="fill: none; stroke: #000000; stroke-width: 2; stroke-linecap: round"/>
   </g>
   <g id="line2d_4">
    <path d="M 29.938884 153.68 
L 29.938884 117.68 
L 26.974698 117.54593 
L 23.983778 117.13824 
L 21.216968 116.465999 
L 18.906316 115.560462 
L 17.984576 115.035433 
L 17.245613 114.472453 
L 16.705003 113.880233 
L 16.374141 113.268098 
L 16.26 112.645793 
L 16.364987 112.02328 
L 16.686888 111.410522 
L 17.21892 110.817277 
L 17.949866 110.252894 
L 18.864321 109.726112 
L 21.163193 108.816175 
L 23.922734 108.138658 
L 26.911505 107.72526 
L 29.878842 107.585528 
L 32.575879 107.706058 
L 34.77642 108.051618 
L 36.295908 108.568102 
L 36.757873 108.869463 
L 37.006908 109.187072 
L 37.037763 109.511077 
L 36.849788 109.831491 
L 36.446945 110.138403 
L 35.03497 110.673708 
L 32.920259 111.046971 
L 30.280169 111.201764 
L 27.33612 111.099981 
L 24.335026 110.725037 
L 21.528584 110.083252 
L 19.152165 109.203329 
L 18.189391 108.688598 
L 17.405076 108.133943 
L 16.815753 107.547898 
L 16.433843 106.939658 
L 16.267397 106.318887 
L 16.319922 105.695513 
L 16.590312 105.079518 
L 17.072867 104.480729 
L 17.757416 103.90861 
L 18.62953 103.372065 
L 20.859355 102.437379 
L 23.575331 101.72994 
L 26.549673 101.283954 
L 29.532928 101.111703 
L 32.274894 101.20251 
L 34.545607 101.523635 
L 36.154626 102.023023 
L 36.666316 102.319064 
L 36.967005 102.633668 
L 37.050355 102.957048 
L 36.91461 103.279232 
L 36.562631 103.590269 
L 36.001836 103.880449 
L 34.305237 104.361772 
L 31.967103 104.657711 
L 29.183529 104.718322 
L 26.187971 104.513398 
L 23.231661 104.035002 
L 20.562539 103.298134 
L 18.404462 102.339469 
L 17.575746 101.793629 
L 16.938424 101.214287 
L 16.50593 100.610498 
L 16.287379 99.991831 
L 16.287379 99.368169 
L 16.50593 98.749502 
L 16.938424 98.145713 
L 17.575746 97.566371 
L 18.404462 97.020531 
L 19.407105 96.51654 
L 21.846412 95.662935 
L 24.689087 95.052021 
L 27.696719 94.709913 
L 30.617063 94.640179 
L 33.205193 94.823543 
L 35.244048 95.219504 
L 36.562631 95.769731 
L 36.91461 96.080768 
L 37.050355 96.402952 
L 36.967005 96.726332 
L 36.666316 97.040936 
L 36.154626 97.336977 
L 34.545607 97.836365 
L 32.274894 98.15749 
L 29.532928 98.248297 
L 26.549673 98.076046 
L 23.575331 97.63006 
L 20.859355 96.922621 
L 18.62953 95.987935 
L 17.757416 95.45139 
L 17.072867 94.879271 
L 16.590312 94.280482 
L 16.319922 93.664487 
L 16.267397 93.041113 
L 16.433843 92.420342 
L 16.815753 91.812102 
L 17.405076 91.226057 
L 18.189391 90.671402 
L 19.152165 90.156671 
L 21.528584 89.276748 
L 24.335026 88.634963 
L 27.33612 88.260019 
L 30.280169 88.158236 
L 32.920259 88.313029 
L 35.03497 88.686292 
L 36.446945 89.221597 
L 36.849788 89.528509 
L 37.037763 89.848923 
L 37.006908 90.172928 
L 36.757873 90.490537 
L 36.295908 90.791898 
L 34.77642 91.308382 
L 32.575879 91.653942 
L 29.878842 91.774472 
L 26.911505 91.63474 
L 23.922734 91.221342 
L 21.163193 90.543825 
L 18.864321 89.633888 
L 17.949866 89.107106 
L 17.21892 88.542723 
L 16.686888 87.949478 
L 16.364987 87.33672 
L 16.26 86.714207 
L 16.374141 86.091902 
L 16.705003 85.479767 
L 17.245613 84.887547 
L 17.984576 84.324567 
L 18.906316 83.799538 
L 21.216968 82.894001 
L 23.983778 82.22176 
L 26.974698 81.81407 
L 29.938884 81.68 
L 29.938884 45.68 
L 29.938884 45.68 
" clip-path="url(#pb01d79f725)" style="fill: none; stroke: #000000; stroke-width: 2; stroke-linecap: round"/>
   </g>
   <g id="line2d_5">
    <path d="M 74.938884 153.68 
L 97.438884 153.68 
L 119.938884 153.68 
" clip-path="url(#pb01d79f725)" style="fill: none; stroke: #000000; stroke-width: 2; stroke-linecap: round"/>
   </g>
   <g id="line2d_6">
    <path d="M 119.938884 153.68 
L 119.938884 117.68 
L 110.938884 114.68 
L 128.938884 108.68 
L 110.938884 102.68 
L 128.938884 96.68 
L 110.938884 90.68 
L 128.938884 84.68 
L 119.938884 81.68 
L 119.938884 45.68 
" clip-path="url(#pb01d79f725)" style="fill: none; stroke: #000000; stroke-width: 2; stroke-linecap: round"/>
   </g>
   <g id="line2d_7">
    <path d="M 119.938884 153.68 
L 128.938884 153.68 
L 137.938884 153.68 
" clip-path="url(#pb01d79f725)" style="fill: none; stroke: #000000; stroke-width: 2; stroke-linecap: round"/>
   </g>
   <g id="line2d_8">
    <path d="M 119.938884 45.68 
L 128.938884 45.68 
L 137.938884 45.68 
" clip-path="url(#pb01d79f725)" style="fill: none; stroke: #000000; stroke-width: 2; stroke-linecap: round"/>
   </g>
   <g id="line2d_9">
    <path d="M 119.938884 45.68 
L 97.438884 45.68 
L 74.938884 45.68 
" clip-path="url(#pb01d79f725)" style="fill: none; stroke: #000000; stroke-width: 2; stroke-linecap: round"/>
   </g>
   <g id="line2d_10">
    <path d="M 29.938884 45.68 
L 52.438884 45.68 
L 74.938884 45.68 
" clip-path="url(#pb01d79f725)" style="fill: none; stroke: #000000; stroke-width: 2; stroke-linecap: round"/>
   </g>
   <g id="line2d_11">
    <path d="M 74.938884 45.68 
L 74.938884 41.18 
L 74.938884 36.68 
" clip-path="url(#pb01d79f725)" style="fill: none; stroke: #000000; stroke-width: 2; stroke-linecap: round"/>
   </g>
   <g id="line2d_12">
    <path d="M 74.938884 36.68 
L 74.938884 22.28 
" clip-path="url(#pb01d79f725)" style="fill: none; stroke: #000000; stroke-width: 2; stroke-linecap: round"/>
   </g>
   <g id="line2d_13">
    <path d="M 74.938884 22.28 
L 68.188884 22.28 
" clip-path="url(#pb01d79f725)" style="fill: none; stroke: #000000; stroke-width: 2; stroke-linecap: round"/>
   </g>
   <g id="line2d_14">
    <path d="M 74.938884 22.28 
L 81.688884 22.28 
" clip-path="url(#pb01d79f725)" style="fill: none; stroke: #000000; stroke-width: 2; stroke-linecap: round"/>
   </g>
   <g id="text_1">
    <!-- $C$ -->
    <g transform="translate(52.538884 103.543125) scale(0.14 -0.14)">
     <defs>
      <path id="DejaVuSans-Oblique-43" d="M 4447 4306 
L 4319 3641 
Q 4019 3944 3683 4091 
Q 3347 4238 2956 4238 
Q 2422 4238 2017 3981 
Q 1613 3725 1319 3200 
Q 1131 2863 1032 2486 
Q 934 2109 934 1728 
Q 934 1091 1264 756 
Q 1594 422 2222 422 
Q 2656 422 3056 561 
Q 3456 700 3834 978 
L 3688 231 
Q 3316 72 2936 -9 
Q 2556 -91 2175 -91 
Q 1278 -91 773 396 
Q 269 884 269 1753 
Q 269 2309 461 2846 
Q 653 3384 1013 3828 
Q 1394 4300 1883 4525 
Q 2372 4750 3022 4750 
Q 3422 4750 3780 4639 
Q 4138 4528 4447 4306 
z
" transform="scale(0.015625)"/>
     </defs>
     <use xlink:href="#DejaVuSans-Oblique-43" transform="translate(0 0.78125)"/>
    </g>
   </g>
   <g id="text_2">
    <!-- $L$ -->
    <g transform="translate(4.82 103.543125) scale(0.14 -0.14)">
     <defs>
      <path id="DejaVuSans-Oblique-4c" d="M 1075 4666 
L 1709 4666 
L 909 525 
L 3181 525 
L 3078 0 
L 172 0 
L 1075 4666 
z
" transform="scale(0.015625)"/>
     </defs>
     <use xlink:href="#DejaVuSans-Oblique-4c" transform="translate(0 0.09375)"/>
    </g>
   </g>
   <g id="text_3">
    <!-- $R_L$ -->
    <g transform="translate(91.658884 103.543125) scale(0.14 -0.14)">
     <defs>
      <path id="DejaVuSans-Oblique-52" d="M 1613 4147 
L 1294 2491 
L 2106 2491 
Q 2584 2491 2879 2755 
Q 3175 3019 3175 3444 
Q 3175 3784 2976 3965 
Q 2778 4147 2406 4147 
L 1613 4147 
z
M 2772 2241 
Q 2972 2194 3105 2009 
Q 3238 1825 3413 1275 
L 3809 0 
L 3144 0 
L 2778 1197 
Q 2638 1659 2453 1815 
Q 2269 1972 1888 1972 
L 1191 1972 
L 806 0 
L 172 0 
L 1081 4666 
L 2503 4666 
Q 3150 4666 3495 4373 
Q 3841 4081 3841 3531 
Q 3841 3044 3547 2687 
Q 3253 2331 2772 2241 
z
" transform="scale(0.015625)"/>
     </defs>
     <use xlink:href="#DejaVuSans-Oblique-52" transform="translate(0 0.09375)"/>
     <use xlink:href="#DejaVuSans-Oblique-4c" transform="translate(69.482422 -16.3125) scale(0.7)"/>
    </g>
   </g>
   <g id="text_4">
    <!-- $V_{dd}$ -->
    <g transform="translate(63.668884 15.768438) scale(0.14 -0.14)">
     <defs>
      <path id="DejaVuSans-Oblique-56" d="M 1319 0 
L 500 4666 
L 1119 4666 
L 1797 653 
L 4063 4666 
L 4750 4666 
L 2053 0 
L 1319 0 
z
" transform="scale(0.015625)"/>
      <path id="DejaVuSans-Oblique-64" d="M 2675 525 
Q 2444 222 2128 65 
Q 1813 -91 1428 -91 
Q 903 -91 598 267 
Q 294 625 294 1247 
Q 294 1766 478 2236 
Q 663 2706 1013 3078 
Q 1244 3325 1534 3454 
Q 1825 3584 2144 3584 
Q 2481 3584 2739 3421 
Q 2997 3259 3138 2956 
L 3513 4863 
L 4091 4863 
L 3144 0 
L 2566 0 
L 2675 525 
z
M 891 1350 
Q 891 897 1095 644 
Q 1300 391 1663 391 
Q 1931 391 2161 520 
Q 2391 650 2566 903 
Q 2750 1166 2856 1509 
Q 2963 1853 2963 2188 
Q 2963 2622 2758 2865 
Q 2553 3109 2194 3109 
Q 1922 3109 1687 2981 
Q 1453 2853 1288 2613 
Q 1106 2353 998 2009 
Q 891 1666 891 1350 
z
" transform="scale(0.015625)"/>
     </defs>
     <use xlink:href="#DejaVuSans-Oblique-56" transform="translate(0 0.09375)"/>
     <use xlink:href="#DejaVuSans-Oblique-64" transform="translate(68.408203 -16.3125) scale(0.7)"/>
     <use xlink:href="#DejaVuSans-Oblique-64" transform="translate(112.841797 -16.3125) scale(0.7)"/>
    </g>
   </g>
   <g id="text_5">
    <!-- - -->
    <g transform="translate(171.413416 166.543125) scale(0.14 -0.14)">
     <defs>
      <path id="DejaVuSans-2d" d="M 313 2009 
L 1997 2009 
L 1997 1497 
L 313 1497 
L 313 2009 
z
" transform="scale(0.015625)"/>
     </defs>
     <use xlink:href="#DejaVuSans-2d"/>
    </g>
   </g>
   <g id="text_6">
    <!-- V -->
    <g transform="translate(169.150447 139.543125) scale(0.14 -0.14)">
     <defs>
      <path id="DejaVuSans-56" d="M 1831 0 
L 50 4666 
L 709 4666 
L 2188 738 
L 3669 4666 
L 4325 4666 
L 2547 0 
L 1831 0 
z
" transform="scale(0.015625)"/>
     </defs>
     <use xlink:href="#DejaVuSans-56"/>
    </g>
   </g>
   <g id="text_7">
    <!-- $+$ -->
    <g transform="translate(168.058884 112.543125) scale(0.14 -0.14)">
     <defs>
      <path id="DejaVuSans-2b" d="M 2944 4013 
L 2944 2272 
L 4684 2272 
L 4684 1741 
L 2944 1741 
L 2944 0 
L 2419 0 
L 2419 1741 
L 678 1741 
L 678 2272 
L 2419 2272 
L 2419 4013 
L 2944 4013 
z
" transform="scale(0.015625)"/>
     </defs>
     <use xlink:href="#DejaVuSans-2b" transform="translate(0 0.296875)"/>
    </g>
   </g>
   <g id="patch_2">
    <path d="M 74.938884 156.38 
C 75.654933 156.38 76.34175 156.095511 76.848073 155.589188 
C 77.354395 155.082866 77.638884 154.396048 77.638884 153.68 
C 77.638884 152.963952 77.354395 152.277134 76.848073 151.770812 
C 76.34175 151.264489 75.654933 150.98 74.938884 150.98 
C 74.222836 150.98 73.536019 151.264489 73.029696 151.770812 
C 72.523374 152.277134 72.238884 152.963952 72.238884 153.68 
C 72.238884 154.396048 72.523374 155.082866 73.029696 155.589188 
C 73.536019 156.095511 74.222836 156.38 74.938884 156.38 
z
" clip-path="url(#pb01d79f725)" style="stroke: #000000; stroke-width: 2; stroke-linejoin: miter"/>
   </g>
   <g id="patch_3">
    <path d="M 137.938884 156.38 
C 138.654933 156.38 139.34175 156.095511 139.848073 155.589188 
C 140.354395 155.082866 140.638884 154.396048 140.638884 153.68 
C 140.638884 152.963952 140.354395 152.277134 139.848073 151.770812 
C 139.34175 151.264489 138.654933 150.98 137.938884 150.98 
C 137.222836 150.98 136.536019 151.264489 136.029696 151.770812 
C 135.523374 152.277134 135.238884 152.963952 135.238884 153.68 
C 135.238884 154.396048 135.523374 155.082866 136.029696 155.589188 
C 136.536019 156.095511 137.222836 156.38 137.938884 156.38 
z
" clip-path="url(#pb01d79f725)" style="fill: #ffffff; stroke: #000000; stroke-width: 2; stroke-linejoin: miter"/>
   </g>
   <g id="patch_4">
    <path d="M 137.938884 48.38 
C 138.654933 48.38 139.34175 48.095511 139.848073 47.589188 
C 140.354395 47.082866 140.638884 46.396048 140.638884 45.68 
C 140.638884 44.963952 140.354395 44.277134 139.848073 43.770812 
C 139.34175 43.264489 138.654933 42.98 137.938884 42.98 
C 137.222836 42.98 136.536019 43.264489 136.029696 43.770812 
C 135.523374 44.277134 135.238884 44.963952 135.238884 45.68 
C 135.238884 46.396048 135.523374 47.082866 136.029696 47.589188 
C 136.536019 48.095511 137.222836 48.38 137.938884 48.38 
z
" clip-path="url(#pb01d79f725)" style="fill: #ffffff; stroke: #000000; stroke-width: 2; stroke-linejoin: miter"/>
   </g>
   <g id="patch_5">
    <path d="M 74.938884 48.38 
C 75.654933 48.38 76.34175 48.095511 76.848073 47.589188 
C 77.354395 47.082866 77.638884 46.396048 77.638884 45.68 
C 77.638884 44.963952 77.354395 44.277134 76.848073 43.770812 
C 76.34175 43.264489 75.654933 42.98 74.938884 42.98 
C 74.222836 42.98 73.536019 43.264489 73.029696 43.770812 
C 72.523374 44.277134 72.238884 44.963952 72.238884 45.68 
C 72.238884 46.396048 72.523374 47.082866 73.029696 47.589188 
C 73.536019 48.095511 74.222836 48.38 74.938884 48.38 
z
" clip-path="url(#pb01d79f725)" style="stroke: #000000; stroke-width: 2; stroke-linejoin: miter"/>
   </g>
  </g>
 </g>
 <defs>
  <clipPath id="pb01d79f725">
   <rect x="0" y="0" width="183.322884" height="185.36"/>
  </clipPath>
 </defs>
</svg>