<?xml version="1.0" encoding="utf-8" standalone="no"?>
<!DOCTYPE svg PUBLIC "-//W3C//DTD SVG 1.1//EN"
  "http://www.w3.org/Graphics/SVG/1.1/DTD/svg11.dtd">
<svg xmlns:xlink="http://www.w3.org/1999/xlink" width="366.24pt" height="155.9pt" viewBox="0 0 366.24 155.9" xmlns="http://www.w3.org/2000/svg" version="1.1">
 <metadata>
  <rdf:RDF xmlns:dc="http://purl.org/dc/elements/1.1/" xmlns:cc="http://creativecommons.org/ns#" xmlns:rdf="http://www.w3.org/1999/02/22-rdf-syntax-ns#">
   <cc:Work>
    <dc:type rdf:resource="http://purl.org/dc/dcmitype/StillImage"/>
    <dc:date>2025-11-19T20:14:49.778247</dc:date>
    <dc:format>image/svg+xml</dc:format>
    <dc:creator>
     <cc:Agent>
      <dc:title>Matplotlib v3.10.8, https://matplotlib.org/</dc:title>
     </cc:Agent>
    </dc:creator>
   </cc:Work>
  </rdf:RDF>
 </metadata>
 <defs>
  <style type="text/css">*{stroke-linejoin: round; stroke-linecap: butt}</style>
 </defs>
 <g id="figure_1">
  <g id="patch_1">
   <path d="M 0 155.9 
L 366.24 155.9 
L 366.24 0 
L 0 0 
z
" style="fill: #ffffff"/>
  </g>
  <g id="axes_1">
   <g id="line2d_1">
    <path d="M 34.584 74.18 
L 52.584 74.18 
L 70.584 74.18 
" clip-path="url(#p4a43714955)" style="fill: none; stroke: #000000; stroke-width: 2; stroke-linecap: round"/>
   </g>
   <g id="line2d_2">
    <path d="M 70.584 74.18 
L 85.584 74.18 
L 85.584 50.18 
L 109.584 50.18 
L 109.584 74.18 
L 124.584 74.18 
" clip-path="url(#p4a43714955)" style="fill: none; stroke: #000000; stroke-width: 2; stroke-linecap: round"/>
   </g>
   <g id="line2d_3">
    <path d="M 85.584 44.18 
L 109.584 44.18 
" clip-path="url(#p4a43714955)" style="fill: none; stroke: #000000; stroke-width: 2; stroke-linecap: round"/>
   </g>
   <g id="line2d_4">
    <path d="M 97.584 44.18 
L 97.584 24.98 
" clip-path="url(#p4a43714955)" style="fill: none; stroke: #000000; stroke-width: 2; stroke-linecap: round"/>
   </g>
   <g id="line2d_5">
    <path d="M 124.584 128.18 
L 124.584 113.18 
L 100.584 113.18 
L 100.584 89.18 
L 124.584 89.18 
L 124.584 74.18 
" clip-path="url(#p4a43714955)" style="fill: none; stroke: #000000; stroke-width: 2; stroke-linecap: round"/>
   </g>
   <g id="line2d_6">
    <path d="M 94.584 113.18 
L 94.584 89.18 
" clip-path="url(#p4a43714955)" style="fill: none; stroke: #000000; stroke-width: 2; stroke-linecap: round"/>
   </g>
   <g id="line2d_7">
    <path d="M 75.384 101.18 
L 94.584 101.18 
" clip-path="url(#p4a43714955)" style="fill: none; stroke: #000000; stroke-width: 2; stroke-linecap: round"/>
   </g>
   <g id="line2d_8">
    <path d="M 124.584 128.18 
L 124.584 142.58 
L 115.584 142.58 
L 133.584 142.58 
M 118.284 146.9 
L 130.884 146.9 
M 122.784 151.22 
L 126.384 151.22 
" clip-path="url(#p4a43714955)" style="fill: none; stroke: #000000; stroke-width: 2; stroke-linecap: round"/>
   </g>
   <g id="line2d_9">
    <path d="M 124.584 74.18 
L 175.344 74.18 
M 175.344 65.18 
L 175.344 83.18 
M 181.824 65.18 
L 181.824 83.18 
M 181.824 74.18 
L 232.584 74.18 
" clip-path="url(#p4a43714955)" style="fill: none; stroke: #000000; stroke-width: 2; stroke-linecap: round"/>
   </g>
   <g id="line2d_10">
    <path d="M 232.584 128.18 
L 232.584 113.18 
L 208.584 113.18 
L 208.584 89.18 
L 232.584 89.18 
L 232.584 74.18 
" clip-path="url(#p4a43714955)" style="fill: none; stroke: #000000; stroke-width: 2; stroke-linecap: round"/>
   </g>
   <g id="line2d_11">
    <path d="M 202.584 113.18 
L 202.584 89.18 
" clip-path="url(#p4a43714955)" style="fill: none; stroke: #000000; stroke-width: 2; stroke-linecap: round"/>
   </g>
   <g id="line2d_12">
    <path d="M 183.384 101.18 
L 202.584 101.18 
" clip-path="url(#p4a43714955)" style="fill: none; stroke: #000000; stroke-width: 2; stroke-linecap: round"/>
   </g>
   <g id="line2d_13">
    <path d="M 232.584 128.18 
L 232.584 142.58 
L 223.584 142.58 
L 241.584 142.58 
M 226.284 146.9 
L 238.884 146.9 
M 230.784 151.22 
L 234.384 151.22 
" clip-path="url(#p4a43714955)" style="fill: none; stroke: #000000; stroke-width: 2; stroke-linecap: round"/>
   </g>
   <g id="line2d_14">
    <path d="M 232.584 74.18 
L 247.584 74.18 
L 247.584 50.18 
L 271.584 50.18 
L 271.584 74.18 
L 286.584 74.18 
" clip-path="url(#p4a43714955)" style="fill: none; stroke: #000000; stroke-width: 2; stroke-linecap: round"/>
   </g>
   <g id="line2d_15">
    <path d="M 247.584 44.18 
L 271.584 44.18 
" clip-path="url(#p4a43714955)" style="fill: none; stroke: #000000; stroke-width: 2; stroke-linecap: round"/>
   </g>
   <g id="line2d_16">
    <path d="M 259.584 44.18 
L 259.584 24.98 
" clip-path="url(#p4a43714955)" style="fill: none; stroke: #000000; stroke-width: 2; stroke-linecap: round"/>
   </g>
   <g id="line2d_17">
    <path d="M 286.584 74.18 
L 304.584 74.18 
L 322.584 74.18 
" clip-path="url(#p4a43714955)" style="fill: none; stroke: #000000; stroke-width: 2; stroke-linecap: round"/>
   </g>
   <g id="text_1">
    <!-- $C$ -->
    <g transform="translate(173.684 58.668437) scale(0.14 -0.14)">
     <defs>
      <path id="DejaVuSans-Oblique-43" d="M 4447 4306 
L 4319 3641 
Q 4019 3944 3683 4091 
Q 3347 4238 2956 4238 
Q 2422 4238 2017 3981 
Q 1613 3725 1319 3200 
Q 1131 2863 1032 2486 
Q 934 2109 934 1728 
Q 934 1091 1264 756 
Q 1594 422 2222 422 
Q 2656 422 3056 561 
Q 3456 700 3834 978 
L 3688 231 
Q 3316 72 2936 -9 
Q 2556 -91 2175 -91 
Q 1278 -91 773 396 
Q 269 884 269 1753 
Q 269 2309 461 2846 
Q 653 3384 1013 3828 
Q 1394 4300 1883 4525 
Q 2372 4750 3022 4750 
Q 3422 4750 3780 4639 
Q 4138 4528 4447 4306 
z
" transform="scale(0.015625)"/>
     </defs>
     <use xlink:href="#DejaVuSans-Oblique-43" transform="translate(0 0.78125)"/>
    </g>
   </g>
   <g id="patch_2">
    <path d="M 34.584 76.88 
C 35.300048 76.88 35.986866 76.595511 36.493188 76.089188 
C 36.999511 75.582866 37.284 74.896048 37.284 74.18 
C 37.284 73.463952 36.999511 72.777134 36.493188 72.270812 
C 35.986866 71.764489 35.300048 71.48 34.584 71.48 
C 33.867952 71.48 33.181134 71.764489 32.674812 72.270812 
C 32.168489 72.777134 31.884 73.463952 31.884 74.18 
C 31.884 74.896048 32.168489 75.582866 32.674812 76.089188 
C 33.181134 76.595511 33.867952 76.88 34.584 76.88 
z
" clip-path="url(#p4a43714955)" style="stroke: #000000; stroke-width: 2; stroke-linejoin: miter"/>
   </g>
   <g id="text_2">
    <!-- $V_{in}$ -->
    <g transform="translate(9.384 78.043125) scale(0.14 -0.14)">
     <defs>
      <path id="DejaVuSans-Oblique-56" d="M 1319 0 
L 500 4666 
L 1119 4666 
L 1797 653 
L 4063 4666 
L 4750 4666 
L 2053 0 
L 1319 0 
z
" transform="scale(0.015625)"/>
      <path id="DejaVuSans-Oblique-69" d="M 1172 4863 
L 1747 4863 
L 1606 4134 
L 1031 4134 
L 1172 4863 
z
M 909 3500 
L 1484 3500 
L 800 0 
L 225 0 
L 909 3500 
z
" transform="scale(0.015625)"/>
      <path id="DejaVuSans-Oblique-6e" d="M 3566 2113 
L 3156 0 
L 2578 0 
L 2988 2091 
Q 3016 2238 3031 2350 
Q 3047 2463 3047 2528 
Q 3047 2791 2881 2937 
Q 2716 3084 2419 3084 
Q 1956 3084 1622 2776 
Q 1288 2469 1184 1941 
L 800 0 
L 225 0 
L 903 3500 
L 1478 3500 
L 1363 2950 
Q 1603 3253 1940 3418 
Q 2278 3584 2650 3584 
Q 3113 3584 3367 3334 
Q 3622 3084 3622 2631 
Q 3622 2519 3608 2391 
Q 3594 2263 3566 2113 
z
" transform="scale(0.015625)"/>
     </defs>
     <use xlink:href="#DejaVuSans-Oblique-56" transform="translate(0 0.09375)"/>
     <use xlink:href="#DejaVuSans-Oblique-69" transform="translate(68.408203 -16.3125) scale(0.7)"/>
     <use xlink:href="#DejaVuSans-Oblique-6e" transform="translate(87.856445 -16.3125) scale(0.7)"/>
    </g>
   </g>
   <g id="patch_3">
    <path d="M 124.584 76.88 
C 125.300048 76.88 125.986866 76.595511 126.493188 76.089188 
C 126.999511 75.582866 127.284 74.896048 127.284 74.18 
C 127.284 73.463952 126.999511 72.777134 126.493188 72.270812 
C 125.986866 71.764489 125.300048 71.48 124.584 71.48 
C 123.867952 71.48 123.181134 71.764489 122.674812 72.270812 
C 122.168489 72.777134 121.884 73.463952 121.884 74.18 
C 121.884 74.896048 122.168489 75.582866 122.674812 76.089188 
C 123.181134 76.595511 123.867952 76.88 124.584 76.88 
z
" clip-path="url(#p4a43714955)" style="stroke: #000000; stroke-width: 2; stroke-linejoin: miter"/>
   </g>
   <g id="patch_4">
    <path d="M 97.584 27.68 
C 98.300048 27.68 98.986866 27.395511 99.493188 26.889188 
C 99.999511 26.382866 100.284 25.696048 100.284 24.98 
C 100.284 24.263952 99.999511 23.577134 99.493188 23.070812 
C 98.986866 22.564489 98.300048 22.28 97.584 22.28 
C 96.867952 22.28 96.181134 22.564489 95.674812 23.070812 
C 95.168489 23.577134 94.884 24.263952 94.884 24.98 
C 94.884 25.696048 95.168489 26.382866 95.674812 26.889188 
C 96.181134 27.395511 96.867952 27.68 97.584 27.68 
z
" clip-path="url(#p4a43714955)" style="fill: #ffffff; stroke: #008000; stroke-width: 2; stroke-linejoin: miter"/>
   </g>
   <g id="text_3">
    <!-- $\phi_1$ -->
    <g style="fill: #008000" transform="translate(89.604 15.74) scale(0.14 -0.14)">
     <defs>
      <path id="DejaVuSans-Oblique-3d5" d="M 2991 4863 
L 2738 3572 
Q 3363 3572 3684 3094 
Q 4016 2606 3850 1747 
Q 3681 888 3159 400 
Q 2653 -78 2028 -78 
L 1784 -1331 
L 1213 -1331 
L 1456 -78 
Q 834 -78 509 400 
Q 178 888 347 1747 
Q 513 2606 1034 3094 
Q 1544 3572 2166 3572 
L 2419 4863 
L 2991 4863 
z
M 2128 434 
Q 2481 434 2784 756 
Q 3116 1116 3244 1747 
Q 3369 2372 3169 2738 
Q 2991 3059 2638 3059 
L 2128 434 
z
M 1556 434 
L 2066 3059 
Q 1716 3059 1413 2738 
Q 1072 2372 953 1747 
Q 834 1116 1028 756 
Q 1203 434 1556 434 
z
" transform="scale(0.015625)"/>
      <path id="DejaVuSans-31" d="M 794 531 
L 1825 531 
L 1825 4091 
L 703 3866 
L 703 4441 
L 1819 4666 
L 2450 4666 
L 2450 531 
L 3481 531 
L 3481 0 
L 794 0 
L 794 531 
z
" transform="scale(0.015625)"/>
     </defs>
     <use xlink:href="#DejaVuSans-Oblique-3d5" transform="translate(0 0.015625)"/>
     <use xlink:href="#DejaVuSans-31" transform="translate(65.966797 -16.390625) scale(0.7)"/>
    </g>
   </g>
   <g id="patch_5">
    <path d="M 75.384 103.88 
C 76.100048 103.88 76.786866 103.595511 77.293188 103.089188 
C 77.799511 102.582866 78.084 101.896048 78.084 101.18 
C 78.084 100.463952 77.799511 99.777134 77.293188 99.270812 
C 76.786866 98.764489 76.100048 98.48 75.384 98.48 
C 74.667952 98.48 73.981134 98.764489 73.474812 99.270812 
C 72.968489 99.777134 72.684 100.463952 72.684 101.18 
C 72.684 101.896048 72.968489 102.582866 73.474812 103.089188 
C 73.981134 103.595511 74.667952 103.88 75.384 103.88 
z
" clip-path="url(#p4a43714955)" style="fill: #ffffff; stroke: #ff0000; stroke-width: 2; stroke-linejoin: miter"/>
   </g>
   <g id="text_4">
    <!-- $\phi_2$ -->
    <g style="fill: #ff0000" transform="translate(53.124 105.03) scale(0.14 -0.14)">
     <defs>
      <path id="DejaVuSans-32" d="M 1228 531 
L 3431 531 
L 3431 0 
L 469 0 
L 469 531 
Q 828 903 1448 1529 
Q 2069 2156 2228 2338 
Q 2531 2678 2651 2914 
Q 2772 3150 2772 3378 
Q 2772 3750 2511 3984 
Q 2250 4219 1831 4219 
Q 1534 4219 1204 4116 
Q 875 4013 500 3803 
L 500 4441 
Q 881 4594 1212 4672 
Q 1544 4750 1819 4750 
Q 2544 4750 2975 4387 
Q 3406 4025 3406 3419 
Q 3406 3131 3298 2873 
Q 3191 2616 2906 2266 
Q 2828 2175 2409 1742 
Q 1991 1309 1228 531 
z
" transform="scale(0.015625)"/>
     </defs>
     <use xlink:href="#DejaVuSans-Oblique-3d5" transform="translate(0 0.015625)"/>
     <use xlink:href="#DejaVuSans-32" transform="translate(65.966797 -16.390625) scale(0.7)"/>
    </g>
   </g>
   <g id="patch_6">
    <path d="M 232.584 76.88 
C 233.300048 76.88 233.986866 76.595511 234.493188 76.089188 
C 234.999511 75.582866 235.284 74.896048 235.284 74.18 
C 235.284 73.463952 234.999511 72.777134 234.493188 72.270812 
C 233.986866 71.764489 233.300048 71.48 232.584 71.48 
C 231.867952 71.48 231.181134 71.764489 230.674812 72.270812 
C 230.168489 72.777134 229.884 73.463952 229.884 74.18 
C 229.884 74.896048 230.168489 75.582866 230.674812 76.089188 
C 231.181134 76.595511 231.867952 76.88 232.584 76.88 
z
" clip-path="url(#p4a43714955)" style="stroke: #000000; stroke-width: 2; stroke-linejoin: miter"/>
   </g>
   <g id="patch_7">
    <path d="M 259.584 27.68 
C 260.300048 27.68 260.986866 27.395511 261.493188 26.889188 
C 261.999511 26.382866 262.284 25.696048 262.284 24.98 
C 262.284 24.263952 261.999511 23.577134 261.493188 23.070812 
C 260.986866 22.564489 260.300048 22.28 259.584 22.28 
C 258.867952 22.28 258.181134 22.564489 257.674812 23.070812 
C 257.168489 23.577134 256.884 24.263952 256.884 24.98 
C 256.884 25.696048 257.168489 26.382866 257.674812 26.889188 
C 258.181134 27.395511 258.867952 27.68 259.584 27.68 
z
" clip-path="url(#p4a43714955)" style="fill: #ffffff; stroke: #008000; stroke-width: 2; stroke-linejoin: miter"/>
   </g>
   <g id="text_5">
    <!-- $\phi_1$ -->
    <g style="fill: #008000" transform="translate(251.604 15.74) scale(0.14 -0.14)">
     <use xlink:href="#DejaVuSans-Oblique-3d5" transform="translate(0 0.015625)"/>
     <use xlink:href="#DejaVuSans-31" transform="translate(65.966797 -16.390625) scale(0.7)"/>
    </g>
   </g>
   <g id="patch_8">
    <path d="M 183.384 103.88 
C 184.100048 103.88 184.786866 103.595511 185.293188 103.089188 
C 185.799511 102.582866 186.084 101.896048 186.084 101.18 
C 186.084 100.463952 185.799511 99.777134 185.293188 99.270812 
C 184.786866 98.764489 184.100048 98.48 183.384 98.48 
C 182.667952 98.48 181.981134 98.764489 181.474812 99.270812 
C 180.968489 99.777134 180.684 100.463952 180.684 101.18 
C 180.684 101.896048 180.968489 102.582866 181.474812 103.089188 
C 181.981134 103.595511 182.667952 103.88 183.384 103.88 
z
" clip-path="url(#p4a43714955)" style="fill: #ffffff; stroke: #ff0000; stroke-width: 2; stroke-linejoin: miter"/>
   </g>
   <g id="text_6">
    <!-- $\phi_2$ -->
    <g style="fill: #ff0000" transform="translate(161.124 105.03) scale(0.14 -0.14)">
     <use xlink:href="#DejaVuSans-Oblique-3d5" transform="translate(0 0.015625)"/>
     <use xlink:href="#DejaVuSans-32" transform="translate(65.966797 -16.390625) scale(0.7)"/>
    </g>
   </g>
   <g id="patch_9">
    <path d="M 322.584 76.88 
C 323.300048 76.88 323.986866 76.595511 324.493188 76.089188 
C 324.999511 75.582866 325.284 74.896048 325.284 74.18 
C 325.284 73.463952 324.999511 72.777134 324.493188 72.270812 
C 323.986866 71.764489 323.300048 71.48 322.584 71.48 
C 321.867952 71.48 321.181134 71.764489 320.674812 72.270812 
C 320.168489 72.777134 319.884 73.463952 319.884 74.18 
C 319.884 74.896048 320.168489 75.582866 320.674812 76.089188 
C 321.181134 76.595511 321.867952 76.88 322.584 76.88 
z
" clip-path="url(#p4a43714955)" style="stroke: #000000; stroke-width: 2; stroke-linejoin: miter"/>
   </g>
   <g id="text_7">
    <!-- $V_{out}$ -->
    <g transform="translate(328.884 78.043125) scale(0.14 -0.14)">
     <defs>
      <path id="DejaVuSans-Oblique-6f" d="M 1625 -91 
Q 1009 -91 651 289 
Q 294 669 294 1325 
Q 294 1706 417 2101 
Q 541 2497 738 2766 
Q 1047 3184 1428 3384 
Q 1809 3584 2291 3584 
Q 2888 3584 3255 3212 
Q 3622 2841 3622 2241 
Q 3622 1825 3500 1412 
Q 3378 1000 3181 728 
Q 2875 309 2494 109 
Q 2113 -91 1625 -91 
z
M 891 1344 
Q 891 869 1089 633 
Q 1288 397 1691 397 
Q 2269 397 2648 901 
Q 3028 1406 3028 2181 
Q 3028 2634 2825 2865 
Q 2622 3097 2228 3097 
Q 1903 3097 1650 2945 
Q 1397 2794 1197 2484 
Q 1050 2253 970 1956 
Q 891 1659 891 1344 
z
" transform="scale(0.015625)"/>
      <path id="DejaVuSans-Oblique-75" d="M 428 1388 
L 838 3500 
L 1416 3500 
L 1006 1409 
Q 975 1256 961 1147 
Q 947 1038 947 966 
Q 947 700 1109 554 
Q 1272 409 1569 409 
Q 2031 409 2368 721 
Q 2706 1034 2809 1563 
L 3194 3500 
L 3769 3500 
L 3091 0 
L 2516 0 
L 2631 550 
Q 2388 244 2052 76 
Q 1716 -91 1338 -91 
Q 878 -91 622 161 
Q 366 413 366 863 
Q 366 956 381 1097 
Q 397 1238 428 1388 
z
" transform="scale(0.015625)"/>
      <path id="DejaVuSans-Oblique-74" d="M 2706 3500 
L 2619 3053 
L 1472 3053 
L 1100 1153 
Q 1081 1047 1072 975 
Q 1063 903 1063 863 
Q 1063 663 1183 572 
Q 1303 481 1569 481 
L 2150 481 
L 2053 0 
L 1503 0 
Q 991 0 739 200 
Q 488 400 488 806 
Q 488 878 497 964 
Q 506 1050 525 1153 
L 897 3053 
L 409 3053 
L 500 3500 
L 978 3500 
L 1172 4494 
L 1747 4494 
L 1556 3500 
L 2706 3500 
z
" transform="scale(0.015625)"/>
     </defs>
     <use xlink:href="#DejaVuSans-Oblique-56" transform="translate(0 0.09375)"/>
     <use xlink:href="#DejaVuSans-Oblique-6f" transform="translate(68.408203 -16.3125) scale(0.7)"/>
     <use xlink:href="#DejaVuSans-Oblique-75" transform="translate(111.235352 -16.3125) scale(0.7)"/>
     <use xlink:href="#DejaVuSans-Oblique-74" transform="translate(155.600586 -16.3125) scale(0.7)"/>
    </g>
   </g>
  </g>
 </g>
 <defs>
  <clipPath id="p4a43714955">
   <rect x="0" y="0" width="366.24" height="155.9"/>
  </clipPath>
 </defs>
</svg>