<?xml version="1.0" encoding="utf-8" standalone="no"?>
<!DOCTYPE svg PUBLIC "-//W3C//DTD SVG 1.1//EN"
  "http://www.w3.org/Graphics/SVG/1.1/DTD/svg11.dtd">
<svg xmlns:xlink="http://www.w3.org/1999/xlink" width="732.145313pt" height="479.63625pt" viewBox="0 0 732.145313 479.63625" xmlns="http://www.w3.org/2000/svg" version="1.1">
 <metadata>
  <rdf:RDF xmlns:dc="http://purl.org/dc/elements/1.1/" xmlns:cc="http://creativecommons.org/ns#" xmlns:rdf="http://www.w3.org/1999/02/22-rdf-syntax-ns#">
   <cc:Work>
    <dc:type rdf:resource="http://purl.org/dc/dcmitype/StillImage"/>
    <dc:date>2022-11-04T21:52:30.216581</dc:date>
    <dc:format>image/svg+xml</dc:format>
    <dc:creator>
     <cc:Agent>
      <dc:title>Matplotlib v3.5.3, https://matplotlib.org/</dc:title>
     </cc:Agent>
    </dc:creator>
   </cc:Work>
  </rdf:RDF>
 </metadata>
 <defs>
  <style type="text/css">*{stroke-linejoin: round; stroke-linecap: butt}</style>
 </defs>
 <g id="figure_1">
  <g id="patch_1">
   <path d="M 0 479.63625 
L 732.145313 479.63625 
L 732.145313 0 
L 0 0 
L 0 479.63625 
z
" style="fill: none"/>
  </g>
  <g id="axes_1">
   <g id="patch_2">
    <path d="M 48.982813 442.08 
L 718.582813 442.08 
L 718.582813 7.2 
L 48.982813 7.2 
z
" style="fill: #ffffff"/>
   </g>
   <g id="matplotlib.axis_1">
    <g id="xtick_1">
     <g id="line2d_1">
      <path d="M 48.982813 442.08 
L 48.982813 7.2 
" clip-path="url(#pd030afa83b)" style="fill: none; stroke: #b0b0b0; stroke-width: 0.8; stroke-linecap: square"/>
     </g>
     <g id="line2d_2">
      <defs>
       <path id="m29bac1fd3b" d="M 0 0 
L 0 3.5 
" style="stroke: #000000; stroke-width: 0.8"/>
      </defs>
      <g>
       <use xlink:href="#m29bac1fd3b" x="48.982813" y="442.08" style="stroke: #000000; stroke-width: 0.8"/>
      </g>
     </g>
     <g id="text_1">
      <!-- 0 -->
      <g transform="translate(45.801563 456.678437)scale(0.1 -0.1)">
       <defs>
        <path id="DejaVuSans-30" d="M 2034 4250 
Q 1547 4250 1301 3770 
Q 1056 3291 1056 2328 
Q 1056 1369 1301 889 
Q 1547 409 2034 409 
Q 2525 409 2770 889 
Q 3016 1369 3016 2328 
Q 3016 3291 2770 3770 
Q 2525 4250 2034 4250 
z
M 2034 4750 
Q 2819 4750 3233 4129 
Q 3647 3509 3647 2328 
Q 3647 1150 3233 529 
Q 2819 -91 2034 -91 
Q 1250 -91 836 529 
Q 422 1150 422 2328 
Q 422 3509 836 4129 
Q 1250 4750 2034 4750 
z
" transform="scale(0.015625)"/>
       </defs>
       <use xlink:href="#DejaVuSans-30"/>
      </g>
     </g>
    </g>
    <g id="xtick_2">
     <g id="line2d_3">
      <path d="M 182.902813 442.08 
L 182.902813 7.2 
" clip-path="url(#pd030afa83b)" style="fill: none; stroke: #b0b0b0; stroke-width: 0.8; stroke-linecap: square"/>
     </g>
     <g id="line2d_4">
      <g>
       <use xlink:href="#m29bac1fd3b" x="182.902813" y="442.08" style="stroke: #000000; stroke-width: 0.8"/>
      </g>
     </g>
     <g id="text_2">
      <!-- 2 -->
      <g transform="translate(179.721563 456.678437)scale(0.1 -0.1)">
       <defs>
        <path id="DejaVuSans-32" d="M 1228 531 
L 3431 531 
L 3431 0 
L 469 0 
L 469 531 
Q 828 903 1448 1529 
Q 2069 2156 2228 2338 
Q 2531 2678 2651 2914 
Q 2772 3150 2772 3378 
Q 2772 3750 2511 3984 
Q 2250 4219 1831 4219 
Q 1534 4219 1204 4116 
Q 875 4013 500 3803 
L 500 4441 
Q 881 4594 1212 4672 
Q 1544 4750 1819 4750 
Q 2544 4750 2975 4387 
Q 3406 4025 3406 3419 
Q 3406 3131 3298 2873 
Q 3191 2616 2906 2266 
Q 2828 2175 2409 1742 
Q 1991 1309 1228 531 
z
" transform="scale(0.015625)"/>
       </defs>
       <use xlink:href="#DejaVuSans-32"/>
      </g>
     </g>
    </g>
    <g id="xtick_3">
     <g id="line2d_5">
      <path d="M 316.822813 442.08 
L 316.822813 7.2 
" clip-path="url(#pd030afa83b)" style="fill: none; stroke: #b0b0b0; stroke-width: 0.8; stroke-linecap: square"/>
     </g>
     <g id="line2d_6">
      <g>
       <use xlink:href="#m29bac1fd3b" x="316.822813" y="442.08" style="stroke: #000000; stroke-width: 0.8"/>
      </g>
     </g>
     <g id="text_3">
      <!-- 4 -->
      <g transform="translate(313.641563 456.678437)scale(0.1 -0.1)">
       <defs>
        <path id="DejaVuSans-34" d="M 2419 4116 
L 825 1625 
L 2419 1625 
L 2419 4116 
z
M 2253 4666 
L 3047 4666 
L 3047 1625 
L 3713 1625 
L 3713 1100 
L 3047 1100 
L 3047 0 
L 2419 0 
L 2419 1100 
L 313 1100 
L 313 1709 
L 2253 4666 
z
" transform="scale(0.015625)"/>
       </defs>
       <use xlink:href="#DejaVuSans-34"/>
      </g>
     </g>
    </g>
    <g id="xtick_4">
     <g id="line2d_7">
      <path d="M 450.742813 442.08 
L 450.742813 7.2 
" clip-path="url(#pd030afa83b)" style="fill: none; stroke: #b0b0b0; stroke-width: 0.8; stroke-linecap: square"/>
     </g>
     <g id="line2d_8">
      <g>
       <use xlink:href="#m29bac1fd3b" x="450.742813" y="442.08" style="stroke: #000000; stroke-width: 0.8"/>
      </g>
     </g>
     <g id="text_4">
      <!-- 6 -->
      <g transform="translate(447.561563 456.678437)scale(0.1 -0.1)">
       <defs>
        <path id="DejaVuSans-36" d="M 2113 2584 
Q 1688 2584 1439 2293 
Q 1191 2003 1191 1497 
Q 1191 994 1439 701 
Q 1688 409 2113 409 
Q 2538 409 2786 701 
Q 3034 994 3034 1497 
Q 3034 2003 2786 2293 
Q 2538 2584 2113 2584 
z
M 3366 4563 
L 3366 3988 
Q 3128 4100 2886 4159 
Q 2644 4219 2406 4219 
Q 1781 4219 1451 3797 
Q 1122 3375 1075 2522 
Q 1259 2794 1537 2939 
Q 1816 3084 2150 3084 
Q 2853 3084 3261 2657 
Q 3669 2231 3669 1497 
Q 3669 778 3244 343 
Q 2819 -91 2113 -91 
Q 1303 -91 875 529 
Q 447 1150 447 2328 
Q 447 3434 972 4092 
Q 1497 4750 2381 4750 
Q 2619 4750 2861 4703 
Q 3103 4656 3366 4563 
z
" transform="scale(0.015625)"/>
       </defs>
       <use xlink:href="#DejaVuSans-36"/>
      </g>
     </g>
    </g>
    <g id="xtick_5">
     <g id="line2d_9">
      <path d="M 584.662813 442.08 
L 584.662813 7.2 
" clip-path="url(#pd030afa83b)" style="fill: none; stroke: #b0b0b0; stroke-width: 0.8; stroke-linecap: square"/>
     </g>
     <g id="line2d_10">
      <g>
       <use xlink:href="#m29bac1fd3b" x="584.662813" y="442.08" style="stroke: #000000; stroke-width: 0.8"/>
      </g>
     </g>
     <g id="text_5">
      <!-- 8 -->
      <g transform="translate(581.481563 456.678437)scale(0.1 -0.1)">
       <defs>
        <path id="DejaVuSans-38" d="M 2034 2216 
Q 1584 2216 1326 1975 
Q 1069 1734 1069 1313 
Q 1069 891 1326 650 
Q 1584 409 2034 409 
Q 2484 409 2743 651 
Q 3003 894 3003 1313 
Q 3003 1734 2745 1975 
Q 2488 2216 2034 2216 
z
M 1403 2484 
Q 997 2584 770 2862 
Q 544 3141 544 3541 
Q 544 4100 942 4425 
Q 1341 4750 2034 4750 
Q 2731 4750 3128 4425 
Q 3525 4100 3525 3541 
Q 3525 3141 3298 2862 
Q 3072 2584 2669 2484 
Q 3125 2378 3379 2068 
Q 3634 1759 3634 1313 
Q 3634 634 3220 271 
Q 2806 -91 2034 -91 
Q 1263 -91 848 271 
Q 434 634 434 1313 
Q 434 1759 690 2068 
Q 947 2378 1403 2484 
z
M 1172 3481 
Q 1172 3119 1398 2916 
Q 1625 2713 2034 2713 
Q 2441 2713 2670 2916 
Q 2900 3119 2900 3481 
Q 2900 3844 2670 4047 
Q 2441 4250 2034 4250 
Q 1625 4250 1398 4047 
Q 1172 3844 1172 3481 
z
" transform="scale(0.015625)"/>
       </defs>
       <use xlink:href="#DejaVuSans-38"/>
      </g>
     </g>
    </g>
    <g id="xtick_6">
     <g id="line2d_11">
      <path d="M 718.582813 442.08 
L 718.582813 7.2 
" clip-path="url(#pd030afa83b)" style="fill: none; stroke: #b0b0b0; stroke-width: 0.8; stroke-linecap: square"/>
     </g>
     <g id="line2d_12">
      <g>
       <use xlink:href="#m29bac1fd3b" x="718.582813" y="442.08" style="stroke: #000000; stroke-width: 0.8"/>
      </g>
     </g>
     <g id="text_6">
      <!-- 10 -->
      <g transform="translate(712.220313 456.678437)scale(0.1 -0.1)">
       <defs>
        <path id="DejaVuSans-31" d="M 794 531 
L 1825 531 
L 1825 4091 
L 703 3866 
L 703 4441 
L 1819 4666 
L 2450 4666 
L 2450 531 
L 3481 531 
L 3481 0 
L 794 0 
L 794 531 
z
" transform="scale(0.015625)"/>
       </defs>
       <use xlink:href="#DejaVuSans-31"/>
       <use xlink:href="#DejaVuSans-30" x="63.623047"/>
      </g>
     </g>
    </g>
    <g id="text_7">
     <!-- tijd [us] -->
     <g transform="translate(364.60625 470.356562)scale(0.1 -0.1)">
      <defs>
       <path id="DejaVuSans-74" d="M 1172 4494 
L 1172 3500 
L 2356 3500 
L 2356 3053 
L 1172 3053 
L 1172 1153 
Q 1172 725 1289 603 
Q 1406 481 1766 481 
L 2356 481 
L 2356 0 
L 1766 0 
Q 1100 0 847 248 
Q 594 497 594 1153 
L 594 3053 
L 172 3053 
L 172 3500 
L 594 3500 
L 594 4494 
L 1172 4494 
z
" transform="scale(0.015625)"/>
       <path id="DejaVuSans-69" d="M 603 3500 
L 1178 3500 
L 1178 0 
L 603 0 
L 603 3500 
z
M 603 4863 
L 1178 4863 
L 1178 4134 
L 603 4134 
L 603 4863 
z
" transform="scale(0.015625)"/>
       <path id="DejaVuSans-6a" d="M 603 3500 
L 1178 3500 
L 1178 -63 
Q 1178 -731 923 -1031 
Q 669 -1331 103 -1331 
L -116 -1331 
L -116 -844 
L 38 -844 
Q 366 -844 484 -692 
Q 603 -541 603 -63 
L 603 3500 
z
M 603 4863 
L 1178 4863 
L 1178 4134 
L 603 4134 
L 603 4863 
z
" transform="scale(0.015625)"/>
       <path id="DejaVuSans-64" d="M 2906 2969 
L 2906 4863 
L 3481 4863 
L 3481 0 
L 2906 0 
L 2906 525 
Q 2725 213 2448 61 
Q 2172 -91 1784 -91 
Q 1150 -91 751 415 
Q 353 922 353 1747 
Q 353 2572 751 3078 
Q 1150 3584 1784 3584 
Q 2172 3584 2448 3432 
Q 2725 3281 2906 2969 
z
M 947 1747 
Q 947 1113 1208 752 
Q 1469 391 1925 391 
Q 2381 391 2643 752 
Q 2906 1113 2906 1747 
Q 2906 2381 2643 2742 
Q 2381 3103 1925 3103 
Q 1469 3103 1208 2742 
Q 947 2381 947 1747 
z
" transform="scale(0.015625)"/>
       <path id="DejaVuSans-20" transform="scale(0.015625)"/>
       <path id="DejaVuSans-5b" d="M 550 4863 
L 1875 4863 
L 1875 4416 
L 1125 4416 
L 1125 -397 
L 1875 -397 
L 1875 -844 
L 550 -844 
L 550 4863 
z
" transform="scale(0.015625)"/>
       <path id="DejaVuSans-75" d="M 544 1381 
L 544 3500 
L 1119 3500 
L 1119 1403 
Q 1119 906 1312 657 
Q 1506 409 1894 409 
Q 2359 409 2629 706 
Q 2900 1003 2900 1516 
L 2900 3500 
L 3475 3500 
L 3475 0 
L 2900 0 
L 2900 538 
Q 2691 219 2414 64 
Q 2138 -91 1772 -91 
Q 1169 -91 856 284 
Q 544 659 544 1381 
z
M 1991 3584 
L 1991 3584 
z
" transform="scale(0.015625)"/>
       <path id="DejaVuSans-73" d="M 2834 3397 
L 2834 2853 
Q 2591 2978 2328 3040 
Q 2066 3103 1784 3103 
Q 1356 3103 1142 2972 
Q 928 2841 928 2578 
Q 928 2378 1081 2264 
Q 1234 2150 1697 2047 
L 1894 2003 
Q 2506 1872 2764 1633 
Q 3022 1394 3022 966 
Q 3022 478 2636 193 
Q 2250 -91 1575 -91 
Q 1294 -91 989 -36 
Q 684 19 347 128 
L 347 722 
Q 666 556 975 473 
Q 1284 391 1588 391 
Q 1994 391 2212 530 
Q 2431 669 2431 922 
Q 2431 1156 2273 1281 
Q 2116 1406 1581 1522 
L 1381 1569 
Q 847 1681 609 1914 
Q 372 2147 372 2553 
Q 372 3047 722 3315 
Q 1072 3584 1716 3584 
Q 2034 3584 2315 3537 
Q 2597 3491 2834 3397 
z
" transform="scale(0.015625)"/>
       <path id="DejaVuSans-5d" d="M 1947 4863 
L 1947 -844 
L 622 -844 
L 622 -397 
L 1369 -397 
L 1369 4416 
L 622 4416 
L 622 4863 
L 1947 4863 
z
" transform="scale(0.015625)"/>
      </defs>
      <use xlink:href="#DejaVuSans-74"/>
      <use xlink:href="#DejaVuSans-69" x="39.208984"/>
      <use xlink:href="#DejaVuSans-6a" x="66.992188"/>
      <use xlink:href="#DejaVuSans-64" x="94.775391"/>
      <use xlink:href="#DejaVuSans-20" x="158.251953"/>
      <use xlink:href="#DejaVuSans-5b" x="190.039062"/>
      <use xlink:href="#DejaVuSans-75" x="229.052734"/>
      <use xlink:href="#DejaVuSans-73" x="292.431641"/>
      <use xlink:href="#DejaVuSans-5d" x="344.53125"/>
     </g>
    </g>
   </g>
   <g id="matplotlib.axis_2">
    <g id="ytick_1">
     <g id="line2d_13">
      <path d="M 48.982813 403.511657 
L 718.582813 403.511657 
" clip-path="url(#pd030afa83b)" style="fill: none; stroke: #b0b0b0; stroke-width: 0.8; stroke-linecap: square"/>
     </g>
     <g id="line2d_14">
      <defs>
       <path id="maf85115144" d="M 0 0 
L -3.5 0 
" style="stroke: #000000; stroke-width: 0.8"/>
      </defs>
      <g>
       <use xlink:href="#maf85115144" x="48.982813" y="403.511657" style="stroke: #000000; stroke-width: 0.8"/>
      </g>
     </g>
     <g id="text_8">
      <!-- −10 -->
      <g transform="translate(20.878125 407.310875)scale(0.1 -0.1)">
       <defs>
        <path id="DejaVuSans-2212" d="M 678 2272 
L 4684 2272 
L 4684 1741 
L 678 1741 
L 678 2272 
z
" transform="scale(0.015625)"/>
       </defs>
       <use xlink:href="#DejaVuSans-2212"/>
       <use xlink:href="#DejaVuSans-31" x="83.789062"/>
       <use xlink:href="#DejaVuSans-30" x="147.412109"/>
      </g>
     </g>
    </g>
    <g id="ytick_2">
     <g id="line2d_15">
      <path d="M 48.982813 314.149688 
L 718.582813 314.149688 
" clip-path="url(#pd030afa83b)" style="fill: none; stroke: #b0b0b0; stroke-width: 0.8; stroke-linecap: square"/>
     </g>
     <g id="line2d_16">
      <g>
       <use xlink:href="#maf85115144" x="48.982813" y="314.149688" style="stroke: #000000; stroke-width: 0.8"/>
      </g>
     </g>
     <g id="text_9">
      <!-- 0 -->
      <g transform="translate(35.620312 317.948907)scale(0.1 -0.1)">
       <use xlink:href="#DejaVuSans-30"/>
      </g>
     </g>
    </g>
    <g id="ytick_3">
     <g id="line2d_17">
      <path d="M 48.982813 224.78772 
L 718.582813 224.78772 
" clip-path="url(#pd030afa83b)" style="fill: none; stroke: #b0b0b0; stroke-width: 0.8; stroke-linecap: square"/>
     </g>
     <g id="line2d_18">
      <g>
       <use xlink:href="#maf85115144" x="48.982813" y="224.78772" style="stroke: #000000; stroke-width: 0.8"/>
      </g>
     </g>
     <g id="text_10">
      <!-- 10 -->
      <g transform="translate(29.257812 228.586939)scale(0.1 -0.1)">
       <use xlink:href="#DejaVuSans-31"/>
       <use xlink:href="#DejaVuSans-30" x="63.623047"/>
      </g>
     </g>
    </g>
    <g id="ytick_4">
     <g id="line2d_19">
      <path d="M 48.982813 135.425752 
L 718.582813 135.425752 
" clip-path="url(#pd030afa83b)" style="fill: none; stroke: #b0b0b0; stroke-width: 0.8; stroke-linecap: square"/>
     </g>
     <g id="line2d_20">
      <g>
       <use xlink:href="#maf85115144" x="48.982813" y="135.425752" style="stroke: #000000; stroke-width: 0.8"/>
      </g>
     </g>
     <g id="text_11">
      <!-- 20 -->
      <g transform="translate(29.257812 139.224971)scale(0.1 -0.1)">
       <use xlink:href="#DejaVuSans-32"/>
       <use xlink:href="#DejaVuSans-30" x="63.623047"/>
      </g>
     </g>
    </g>
    <g id="ytick_5">
     <g id="line2d_21">
      <path d="M 48.982813 46.063784 
L 718.582813 46.063784 
" clip-path="url(#pd030afa83b)" style="fill: none; stroke: #b0b0b0; stroke-width: 0.8; stroke-linecap: square"/>
     </g>
     <g id="line2d_22">
      <g>
       <use xlink:href="#maf85115144" x="48.982813" y="46.063784" style="stroke: #000000; stroke-width: 0.8"/>
      </g>
     </g>
     <g id="text_12">
      <!-- 30 -->
      <g transform="translate(29.257812 49.863003)scale(0.1 -0.1)">
       <defs>
        <path id="DejaVuSans-33" d="M 2597 2516 
Q 3050 2419 3304 2112 
Q 3559 1806 3559 1356 
Q 3559 666 3084 287 
Q 2609 -91 1734 -91 
Q 1441 -91 1130 -33 
Q 819 25 488 141 
L 488 750 
Q 750 597 1062 519 
Q 1375 441 1716 441 
Q 2309 441 2620 675 
Q 2931 909 2931 1356 
Q 2931 1769 2642 2001 
Q 2353 2234 1838 2234 
L 1294 2234 
L 1294 2753 
L 1863 2753 
Q 2328 2753 2575 2939 
Q 2822 3125 2822 3475 
Q 2822 3834 2567 4026 
Q 2313 4219 1838 4219 
Q 1578 4219 1281 4162 
Q 984 4106 628 3988 
L 628 4550 
Q 988 4650 1302 4700 
Q 1616 4750 1894 4750 
Q 2613 4750 3031 4423 
Q 3450 4097 3450 3541 
Q 3450 3153 3228 2886 
Q 3006 2619 2597 2516 
z
" transform="scale(0.015625)"/>
       </defs>
       <use xlink:href="#DejaVuSans-33"/>
       <use xlink:href="#DejaVuSans-30" x="63.623047"/>
      </g>
     </g>
    </g>
    <g id="text_13">
     <!-- Voltage [V] -->
     <g transform="translate(14.798437 252.307187)rotate(-90)scale(0.1 -0.1)">
      <defs>
       <path id="DejaVuSans-56" d="M 1831 0 
L 50 4666 
L 709 4666 
L 2188 738 
L 3669 4666 
L 4325 4666 
L 2547 0 
L 1831 0 
z
" transform="scale(0.015625)"/>
       <path id="DejaVuSans-6f" d="M 1959 3097 
Q 1497 3097 1228 2736 
Q 959 2375 959 1747 
Q 959 1119 1226 758 
Q 1494 397 1959 397 
Q 2419 397 2687 759 
Q 2956 1122 2956 1747 
Q 2956 2369 2687 2733 
Q 2419 3097 1959 3097 
z
M 1959 3584 
Q 2709 3584 3137 3096 
Q 3566 2609 3566 1747 
Q 3566 888 3137 398 
Q 2709 -91 1959 -91 
Q 1206 -91 779 398 
Q 353 888 353 1747 
Q 353 2609 779 3096 
Q 1206 3584 1959 3584 
z
" transform="scale(0.015625)"/>
       <path id="DejaVuSans-6c" d="M 603 4863 
L 1178 4863 
L 1178 0 
L 603 0 
L 603 4863 
z
" transform="scale(0.015625)"/>
       <path id="DejaVuSans-61" d="M 2194 1759 
Q 1497 1759 1228 1600 
Q 959 1441 959 1056 
Q 959 750 1161 570 
Q 1363 391 1709 391 
Q 2188 391 2477 730 
Q 2766 1069 2766 1631 
L 2766 1759 
L 2194 1759 
z
M 3341 1997 
L 3341 0 
L 2766 0 
L 2766 531 
Q 2569 213 2275 61 
Q 1981 -91 1556 -91 
Q 1019 -91 701 211 
Q 384 513 384 1019 
Q 384 1609 779 1909 
Q 1175 2209 1959 2209 
L 2766 2209 
L 2766 2266 
Q 2766 2663 2505 2880 
Q 2244 3097 1772 3097 
Q 1472 3097 1187 3025 
Q 903 2953 641 2809 
L 641 3341 
Q 956 3463 1253 3523 
Q 1550 3584 1831 3584 
Q 2591 3584 2966 3190 
Q 3341 2797 3341 1997 
z
" transform="scale(0.015625)"/>
       <path id="DejaVuSans-67" d="M 2906 1791 
Q 2906 2416 2648 2759 
Q 2391 3103 1925 3103 
Q 1463 3103 1205 2759 
Q 947 2416 947 1791 
Q 947 1169 1205 825 
Q 1463 481 1925 481 
Q 2391 481 2648 825 
Q 2906 1169 2906 1791 
z
M 3481 434 
Q 3481 -459 3084 -895 
Q 2688 -1331 1869 -1331 
Q 1566 -1331 1297 -1286 
Q 1028 -1241 775 -1147 
L 775 -588 
Q 1028 -725 1275 -790 
Q 1522 -856 1778 -856 
Q 2344 -856 2625 -561 
Q 2906 -266 2906 331 
L 2906 616 
Q 2728 306 2450 153 
Q 2172 0 1784 0 
Q 1141 0 747 490 
Q 353 981 353 1791 
Q 353 2603 747 3093 
Q 1141 3584 1784 3584 
Q 2172 3584 2450 3431 
Q 2728 3278 2906 2969 
L 2906 3500 
L 3481 3500 
L 3481 434 
z
" transform="scale(0.015625)"/>
       <path id="DejaVuSans-65" d="M 3597 1894 
L 3597 1613 
L 953 1613 
Q 991 1019 1311 708 
Q 1631 397 2203 397 
Q 2534 397 2845 478 
Q 3156 559 3463 722 
L 3463 178 
Q 3153 47 2828 -22 
Q 2503 -91 2169 -91 
Q 1331 -91 842 396 
Q 353 884 353 1716 
Q 353 2575 817 3079 
Q 1281 3584 2069 3584 
Q 2775 3584 3186 3129 
Q 3597 2675 3597 1894 
z
M 3022 2063 
Q 3016 2534 2758 2815 
Q 2500 3097 2075 3097 
Q 1594 3097 1305 2825 
Q 1016 2553 972 2059 
L 3022 2063 
z
" transform="scale(0.015625)"/>
      </defs>
      <use xlink:href="#DejaVuSans-56"/>
      <use xlink:href="#DejaVuSans-6f" x="60.658203"/>
      <use xlink:href="#DejaVuSans-6c" x="121.839844"/>
      <use xlink:href="#DejaVuSans-74" x="149.623047"/>
      <use xlink:href="#DejaVuSans-61" x="188.832031"/>
      <use xlink:href="#DejaVuSans-67" x="250.111328"/>
      <use xlink:href="#DejaVuSans-65" x="313.587891"/>
      <use xlink:href="#DejaVuSans-20" x="375.111328"/>
      <use xlink:href="#DejaVuSans-5b" x="406.898438"/>
      <use xlink:href="#DejaVuSans-56" x="445.912109"/>
      <use xlink:href="#DejaVuSans-5d" x="514.320312"/>
     </g>
    </g>
   </g>
   <g id="line2d_23">
    <path d="M 48.982813 314.102926 
L 49.008359 314.098379 
L 49.047179 310.732578 
L 50.265851 149.829325 
L 50.322012 142.3549 
L 50.422452 142.388393 
L 51.440244 142.585646 
L 53.690101 142.76108 
L 58.0425 142.856978 
L 64.13586 142.766738 
L 68.983764 142.497928 
L 70.008253 142.379105 
L 71.347453 307.048614 
L 71.35147 307.046053 
L 71.903221 306.82718 
L 73.148677 306.61226 
L 75.746725 306.418498 
L 80.018773 306.334167 
L 85.469317 306.452798 
L 90.236869 306.759623 
L 91.033693 306.853116 
L 92.372893 142.192754 
L 92.37691 142.196963 
L 92.754565 142.427116 
L 93.598261 142.632403 
L 95.473141 142.822856 
L 99.196117 142.954381 
L 104.767189 142.922221 
L 110.338261 142.68096 
L 112.059133 142.522788 
L 113.398333 307.253423 
L 113.40235 307.246747 
L 113.686261 306.987741 
L 114.315685 306.764922 
L 115.708453 306.547075 
L 118.520773 306.35685 
L 122.899957 306.29269 
L 128.323717 306.439544 
L 132.810037 306.760772 
L 133.084573 306.793586 
L 134.423773 142.017082 
L 134.42779 142.026308 
L 134.671525 142.307958 
L 135.193813 142.522551 
L 136.372309 142.723638 
L 138.916789 142.900513 
L 143.470069 142.978496 
L 149.402725 142.856564 
L 153.915829 142.567965 
L 154.110013 142.5463 
L 155.362165 308.43585 
L 155.45323 307.36484 
L 155.683573 307.056988 
L 156.179077 306.827817 
L 157.277221 306.608828 
L 159.594037 306.402424 
L 163.531285 306.2875 
L 168.687205 306.364328 
L 173.856517 306.65275 
L 175.135453 306.783089 
L 176.400997 139.901941 
L 176.47867 141.960247 
L 176.695621 142.27066 
L 177.164341 142.492981 
L 178.208917 142.695596 
L 180.498949 142.879184 
L 184.757605 142.979039 
L 190.596517 142.889862 
L 195.551557 142.613054 
L 196.160893 142.550285 
L 197.426437 310.132364 
L 197.50411 307.39756 
L 197.721061 307.076009 
L 198.176389 306.848146 
L 199.194181 306.629187 
L 201.377077 306.418809 
L 205.167013 306.290704 
L 210.229189 306.346965 
L 215.532421 306.620557 
L 217.186333 306.781376 
L 218.451877 139.061346 
L 218.52955 141.944939 
L 218.746501 142.266813 
L 219.201829 142.487369 
L 220.219621 142.689772 
L 222.456085 142.8743 
L 226.647781 142.978423 
L 232.459909 142.89628 
L 237.495301 142.623396 
L 238.211773 142.550939 
L 239.477317 310.245699 
L 239.55499 307.404269 
L 239.771941 307.077709 
L 240.227269 306.848821 
L 241.245061 306.629473 
L 243.414565 306.419759 
L 247.204501 306.290837 
L 252.266677 306.346458 
L 257.569909 306.619307 
L 259.237213 306.781095 
L 260.502757 139.036675 
L 260.58043 141.942089 
L 260.797381 142.266111 
L 261.252709 142.487096 
L 262.270501 142.689659 
L 264.506965 142.874258 
L 268.698661 142.978423 
L 274.510789 142.896312 
L 279.546181 142.623478 
L 280.262653 142.551043 
L 281.528197 310.260309 
L 281.60587 307.405423 
L 281.822821 307.078001 
L 282.278149 306.848939 
L 283.295941 306.629526 
L 285.465445 306.419782 
L 289.255381 306.290842 
L 294.317557 306.346449 
L 299.620789 306.61928 
L 301.288093 306.781052 
L 302.553637 139.032903 
L 302.63131 141.941631 
L 302.848261 142.265997 
L 303.303589 142.487051 
L 304.321381 142.689639 
L 306.557844 142.87425 
L 310.74954 142.978421 
L 316.561668 142.896316 
L 321.59706 142.62349 
L 322.313533 142.551058 
L 323.579076 310.262454 
L 323.65675 307.405599 
L 323.8737 307.078046 
L 324.329028 306.848958 
L 325.34682 306.629535 
L 327.516324 306.419787 
L 331.30626 306.290844 
L 336.368436 306.346448 
L 341.671668 306.619277 
L 343.338973 306.781046 
L 344.604516 139.032359 
L 344.68219 141.941564 
L 344.89914 142.265981 
L 345.354468 142.487044 
L 346.37226 142.689636 
L 348.608724 142.874248 
L 352.80042 142.97842 
L 358.612548 142.896316 
L 363.64794 142.623491 
L 364.364413 142.55106 
L 365.629956 310.26275 
L 365.70763 307.405624 
L 365.92458 307.078052 
L 366.379908 306.848961 
L 367.3977 306.629537 
L 369.567204 306.419787 
L 373.35714 306.290844 
L 378.419316 306.346448 
L 383.722548 306.619276 
L 385.389853 306.781045 
L 386.655396 139.032287 
L 386.73307 141.941555 
L 386.95002 142.265978 
L 387.405348 142.487044 
L 388.42314 142.689636 
L 390.659604 142.874248 
L 394.8513 142.97842 
L 400.663428 142.896316 
L 405.69882 142.623492 
L 406.415293 142.55106 
L 407.680836 310.262787 
L 407.75851 307.405627 
L 407.97546 307.078053 
L 408.430788 306.848961 
L 409.44858 306.629537 
L 411.618084 306.419788 
L 415.40802 306.290844 
L 420.470196 306.346448 
L 425.773428 306.619276 
L 427.440733 306.781045 
L 428.706276 139.032278 
L 428.78395 141.941554 
L 429.0009 142.265978 
L 429.456228 142.487043 
L 430.47402 142.689636 
L 432.710484 142.874248 
L 436.90218 142.97842 
L 442.714308 142.896316 
L 447.7497 142.623492 
L 448.466173 142.55106 
L 449.731716 310.262791 
L 449.80939 307.405627 
L 450.02634 307.078053 
L 450.481668 306.848961 
L 451.49946 306.629537 
L 453.668964 306.419788 
L 457.4589 306.290844 
L 462.521076 306.346448 
L 467.824308 306.619276 
L 469.491613 306.781045 
L 470.757156 139.032278 
L 470.83483 141.941554 
L 471.05178 142.265978 
L 471.507108 142.487043 
L 472.5249 142.689636 
L 474.761364 142.874248 
L 478.95306 142.97842 
L 484.765188 142.896316 
L 489.80058 142.623492 
L 490.517053 142.55106 
L 491.782596 310.262791 
L 491.86027 307.405627 
L 492.07722 307.078053 
L 492.532548 306.848961 
L 493.55034 306.629537 
L 495.719844 306.419788 
L 499.50978 306.290844 
L 504.571956 306.346448 
L 509.875188 306.619276 
L 511.542493 306.781045 
L 512.808036 139.032278 
L 512.88571 141.941554 
L 513.10266 142.265978 
L 513.557988 142.487043 
L 514.57578 142.689636 
L 516.812244 142.874248 
L 521.00394 142.97842 
L 526.816068 142.896316 
L 531.85146 142.623492 
L 532.567933 142.55106 
L 533.833476 310.262791 
L 533.91115 307.405627 
L 534.1281 307.078053 
L 534.583428 306.848961 
L 535.60122 306.629537 
L 537.770724 306.419788 
L 541.56066 306.290844 
L 546.622836 306.346448 
L 551.926068 306.619276 
L 553.593373 306.781045 
L 554.858916 139.032278 
L 554.93659 141.941554 
L 555.15354 142.265978 
L 555.608868 142.487043 
L 556.62666 142.689636 
L 558.863124 142.874248 
L 563.05482 142.97842 
L 568.866949 142.896316 
L 573.902341 142.623492 
L 574.618813 142.55106 
L 575.884357 310.262791 
L 575.96203 307.405627 
L 576.178981 307.078053 
L 576.634309 306.848961 
L 577.652101 306.629537 
L 579.821605 306.419788 
L 583.611541 306.290844 
L 588.673717 306.346448 
L 593.976949 306.619276 
L 595.644253 306.781045 
L 596.909797 139.032278 
L 596.98747 141.941554 
L 597.204421 142.265978 
L 597.659749 142.487043 
L 598.677541 142.689636 
L 600.914005 142.874248 
L 605.105701 142.97842 
L 610.917829 142.896316 
L 615.953221 142.623492 
L 616.669693 142.55106 
L 617.935237 310.262791 
L 618.01291 307.405627 
L 618.229861 307.078053 
L 618.685189 306.848961 
L 619.702981 306.629537 
L 621.872485 306.419788 
L 625.662421 306.290844 
L 630.724597 306.346448 
L 636.027829 306.619276 
L 637.695133 306.781045 
L 638.960677 139.032278 
L 639.03835 141.941554 
L 639.255301 142.265978 
L 639.710629 142.487043 
L 640.728421 142.689636 
L 642.964885 142.874248 
L 647.156581 142.97842 
L 652.968709 142.896316 
L 658.004101 142.623492 
L 658.720573 142.55106 
L 659.986117 310.262791 
L 660.06379 307.405627 
L 660.280741 307.078053 
L 660.736069 306.848961 
L 661.753861 306.629537 
L 663.923365 306.419788 
L 667.713301 306.290844 
L 672.775477 306.346448 
L 678.078709 306.619276 
L 679.746013 306.781045 
L 681.011557 139.032278 
L 681.08923 141.941554 
L 681.306181 142.265978 
L 681.761509 142.487043 
L 682.779301 142.689636 
L 685.015765 142.874248 
L 689.207461 142.97842 
L 695.019589 142.896316 
L 700.054981 142.623492 
L 700.771453 142.55106 
L 702.036997 310.262791 
L 702.11467 307.405627 
L 702.331621 307.078053 
L 702.786949 306.848961 
L 703.804741 306.629537 
L 705.974245 306.419788 
L 709.764181 306.290844 
L 714.826357 306.346448 
L 718.582813 306.513265 
L 718.582813 306.513265 
" clip-path="url(#pd030afa83b)" style="fill: none; stroke: #1f77b4; stroke-width: 1.5; stroke-linecap: square"/>
   </g>
   <g id="line2d_24">
    <path d="M 48.982813 314.102926 
L 49.154315 314.000668 
L 49.341803 313.500205 
L 49.609643 312.026309 
L 49.957835 308.72089 
L 50.409061 302.042365 
L 51.882181 275.114122 
L 54.198997 228.081336 
L 57.466645 162.482187 
L 59.194212 132.304773 
L 60.613764 111.187241 
L 61.85922 95.820444 
L 62.957364 84.884915 
L 63.93498 77.255163 
L 64.792068 72.189855 
L 65.54202 68.976106 
L 66.184836 67.098961 
L 66.733908 66.114282 
L 67.175844 65.720712 
L 67.55082 65.655978 
L 67.912404 65.819618 
L 68.327556 66.271142 
L 68.836452 67.19176 
L 69.452484 68.814923 
L 70.108693 71.169942 
L 70.403317 73.266478 
L 70.791685 77.868154 
L 71.340757 87.565505 
L 72.679957 118.668222 
L 74.595013 168.838199 
L 79.148293 289.770122 
L 80.795509 326.730838 
L 82.174885 352.945485 
L 83.380165 371.853522 
L 84.451525 385.357785 
L 85.402357 394.699181 
L 86.246053 400.924145 
L 86.969221 404.75108 
L 87.598645 406.984413 
L 88.107541 408.06974 
L 88.522693 408.495083 
L 88.857493 408.546946 
L 89.178901 408.359806 
L 89.553877 407.857761 
L 90.022597 406.81787 
L 90.598453 404.946876 
L 91.174309 402.347177 
L 91.495717 399.528607 
L 91.910869 393.683974 
L 92.473333 382.120808 
L 93.812533 348.443003 
L 95.700805 294.765432 
L 100.401397 159.05637 
L 102.035221 119.406482 
L 103.401205 91.351733 
L 104.606485 70.940543 
L 105.664453 56.557764 
L 106.615285 46.490551 
L 107.445589 39.893012 
L 108.168757 35.773907 
L 108.784789 33.422066 
L 109.293685 32.253792 
L 109.695445 31.809143 
L 110.016853 31.747078 
L 110.324869 31.925202 
L 110.686453 32.421734 
L 111.141781 33.47154 
L 111.704245 35.387972 
L 112.226533 37.910583 
L 112.561333 41.068632 
L 112.989877 47.508894 
L 113.579125 60.320646 
L 114.918325 94.967082 
L 116.806597 150.184599 
L 121.507189 289.769917 
L 123.141013 330.548475 
L 124.506997 359.400969 
L 125.712277 380.392253 
L 126.770245 395.18381 
L 127.721077 405.537357 
L 128.551381 412.322867 
L 129.274549 416.559717 
L 129.890581 418.979208 
L 130.399477 420.181529 
L 130.801237 420.639598 
L 131.122645 420.704129 
L 131.430661 420.521679 
L 131.792245 420.011979 
L 132.247573 418.933643 
L 132.810037 416.964535 
L 133.278757 414.591115 
L 133.613557 411.304667 
L 134.042101 404.681979 
L 134.644741 391.312625 
L 135.983941 356.342548 
L 137.872213 300.604378 
L 142.572805 159.684855 
L 144.206629 118.512636 
L 145.572613 89.380823 
L 146.777893 68.186128 
L 147.835861 53.251383 
L 148.786693 42.797974 
L 149.616997 35.947507 
L 150.340165 31.670668 
L 150.956197 29.228954 
L 151.465093 28.016229 
L 151.866853 27.554866 
L 152.188261 27.490732 
L 152.482885 27.663037 
L 152.844469 28.167294 
L 153.286405 29.205347 
L 153.835477 31.108685 
L 154.304197 33.466921 
L 154.638997 36.746838 
L 155.067541 43.366434 
L 155.670181 56.773714 
L 157.009381 91.792136 
L 158.884261 147.246532 
L 163.638421 290.166189 
L 165.258853 331.063191 
L 166.624837 360.246262 
L 167.830117 381.470164 
L 168.888085 396.418982 
L 169.825525 406.748793 
L 170.655829 413.63097 
L 171.378997 417.930522 
L 171.995029 420.388064 
L 172.503925 421.611489 
L 172.905685 422.079823 
L 173.227093 422.148622 
L 173.521717 421.979897 
L 173.869909 421.50334 
L 174.311845 420.482098 
L 174.860917 418.596761 
L 175.329637 416.251402 
L 175.664437 412.979317 
L 176.092981 406.368127 
L 176.682229 393.277611 
L 178.008037 358.686622 
L 179.869525 303.696256 
L 184.730821 157.554025 
L 186.351253 116.838677 
L 187.717237 87.848152 
L 188.909125 67.023948 
L 189.967093 52.207769 
L 190.904533 41.999071 
L 191.734837 35.224989 
L 192.458005 31.01896 
L 193.074037 28.639881 
L 193.569541 27.501448 
L 193.971301 27.067959 
L 194.279317 27.023064 
L 194.587333 27.220238 
L 194.948917 27.750996 
L 195.404245 28.861372 
L 195.966709 30.878032 
L 196.381861 33.091951 
L 196.730053 36.663404 
L 197.171989 43.792755 
L 197.828197 58.790445 
L 199.194181 94.966621 
L 201.149413 153.315395 
L 205.528597 285.452722 
L 207.189205 328.004896 
L 208.581973 358.25691 
L 209.787253 379.889868 
L 210.858613 395.374893 
L 211.809445 406.117188 
L 212.653141 413.304104 
L 213.389701 417.816294 
L 214.019125 420.411402 
L 214.541413 421.713986 
L 214.956565 422.218494 
L 215.277973 422.29674 
L 215.572597 422.13614 
L 215.920789 421.668524 
L 216.362725 420.657591 
L 216.911797 418.783448 
L 217.380517 416.446235 
L 217.715317 413.179175 
L 218.143861 406.573439 
L 218.733109 393.487382 
L 220.058917 358.902543 
L 221.907013 304.318532 
L 226.795093 157.331247 
L 228.402133 116.943509 
L 229.768117 87.923471 
L 230.960005 67.073863 
L 232.017973 52.236023 
L 232.955413 42.009204 
L 233.785717 35.220131 
L 234.508885 31.001981 
L 235.124917 28.613328 
L 235.620421 27.467729 
L 236.022181 27.028791 
L 236.330197 26.979945 
L 236.624821 27.160014 
L 236.986405 27.67483 
L 237.428341 28.727243 
L 237.977413 30.65047 
L 238.419349 32.925156 
L 238.767541 36.425928 
L 239.196085 43.20618 
L 239.812117 57.085213 
L 241.164709 92.627689 
L 243.066373 149.097217 
L 247.686613 288.324829 
L 249.320437 329.846973 
L 250.699813 359.53634 
L 251.905093 380.935259 
L 252.976453 396.205315 
L 253.927285 406.756277 
L 254.757589 413.68167 
L 255.480757 418.015719 
L 256.096789 420.500174 
L 256.605685 421.744039 
L 257.007445 422.227333 
L 257.328853 422.307338 
L 257.623477 422.148286 
L 257.971669 421.682416 
L 258.413605 420.673568 
L 258.962677 418.801803 
L 259.431397 416.466431 
L 259.766197 413.200579 
L 260.194741 406.596252 
L 260.783989 393.511919 
L 262.109797 358.929929 
L 263.957893 304.347715 
L 268.845973 157.355115 
L 270.453013 116.963453 
L 271.818997 87.939644 
L 273.010885 67.08658 
L 274.068853 52.245644 
L 275.006293 42.016124 
L 275.836597 35.224731 
L 276.559765 31.00464 
L 277.175797 28.614407 
L 277.671301 27.467591 
L 278.073061 27.027706 
L 278.381077 26.97816 
L 278.675701 27.15758 
L 279.037285 27.671631 
L 279.479221 28.723154 
L 280.028293 30.645349 
L 280.470229 32.919266 
L 280.818421 36.419472 
L 281.246965 43.199078 
L 281.862997 57.077339 
L 283.202197 92.242974 
L 285.090469 148.260375 
L 289.764277 289.044537 
L 291.398101 330.464828 
L 292.777477 360.052152 
L 293.982757 381.354677 
L 295.040725 396.368823 
L 295.991557 406.881118 
L 296.821861 413.773347 
L 297.545029 418.079343 
L 298.161061 420.540724 
L 298.669957 421.766211 
L 299.071717 422.23549 
L 299.393125 422.304622 
L 299.687749 422.135882 
L 300.035941 421.658924 
L 300.477877 420.636594 
L 301.026949 418.749047 
L 301.482277 416.467878 
L 301.817077 413.202261 
L 302.245621 406.598218 
L 302.834869 393.514225 
L 304.160677 358.93291 
L 306.008772 304.351331 
L 310.896852 157.358823 
L 312.503892 116.966794 
L 313.869876 87.94257 
L 315.061764 67.089088 
L 316.119732 52.247754 
L 317.057172 42.017869 
L 317.887476 35.22615 
L 318.610644 31.005777 
L 319.226676 28.615307 
L 319.72218 27.468305 
L 320.12394 27.028272 
L 320.431956 26.978614 
L 320.72658 27.15793 
L 321.088164 27.671856 
L 321.5301 28.72323 
L 322.079172 30.645249 
L 322.521108 32.91903 
L 322.8693 36.419133 
L 323.297844 43.19862 
L 323.913876 57.07673 
L 325.253076 92.242064 
L 327.141348 148.259156 
L 331.815156 289.043121 
L 333.44898 330.463504 
L 334.828356 360.050954 
L 336.033636 381.353615 
L 337.091604 396.367897 
L 338.042436 406.880322 
L 338.87274 413.772669 
L 339.595908 418.078768 
L 340.21194 420.540238 
L 340.720836 421.765798 
L 341.122596 422.235133 
L 341.444004 422.30431 
L 341.738628 422.135611 
L 342.08682 421.6587 
L 342.528756 420.636428 
L 343.077828 418.748952 
L 343.533156 416.467839 
L 343.867956 413.202262 
L 344.2965 406.598268 
L 344.885748 393.514336 
L 346.211556 358.93315 
L 348.059652 304.351712 
L 352.961124 156.998179 
L 354.568164 116.657689 
L 355.934148 87.684977 
L 357.126036 66.879884 
L 358.184004 52.082686 
L 359.121444 41.89187 
L 359.951748 35.13411 
L 360.674916 30.942443 
L 361.290948 28.575571 
L 361.786452 27.446865 
L 362.17482 27.028458 
L 362.482836 26.978784 
L 362.77746 27.158084 
L 363.139044 27.671991 
L 363.58098 28.723343 
L 364.130052 30.645334 
L 364.571988 32.919093 
L 364.92018 36.419181 
L 365.348724 43.198647 
L 365.964756 57.076732 
L 367.303956 92.242012 
L 369.192228 148.259042 
L 373.866036 289.042931 
L 375.49986 330.463312 
L 376.879236 360.050769 
L 378.084516 381.353442 
L 379.142484 396.367738 
L 380.093316 406.880177 
L 380.92362 413.772538 
L 381.646788 418.07865 
L 382.26282 420.540131 
L 382.771716 421.765701 
L 383.173476 422.235044 
L 383.494884 422.304227 
L 383.789508 422.135533 
L 384.1377 421.658629 
L 384.579636 420.636366 
L 385.128708 418.7489 
L 385.584036 416.467796 
L 385.918836 413.202225 
L 386.34738 406.598239 
L 386.936628 393.514316 
L 388.262436 358.933153 
L 390.110532 304.351741 
L 395.012004 156.998247 
L 396.619044 116.65776 
L 397.985028 87.685047 
L 399.176916 66.879952 
L 400.234884 52.082749 
L 401.172324 41.891929 
L 402.002628 35.134165 
L 402.725796 30.942493 
L 403.341828 28.575617 
L 403.837332 27.446908 
L 404.2257 27.028498 
L 404.533716 26.978822 
L 404.82834 27.15812 
L 405.189924 27.672025 
L 405.63186 28.723373 
L 406.180932 30.64536 
L 406.622868 32.919117 
L 406.97106 36.419202 
L 407.399604 43.198665 
L 408.015636 57.076746 
L 409.354836 92.242017 
L 411.243108 148.259036 
L 415.916916 289.042908 
L 417.55074 330.463286 
L 418.930116 360.050743 
L 420.135396 381.353416 
L 421.193364 396.367713 
L 422.144196 406.880153 
L 422.9745 413.772516 
L 423.697668 418.078629 
L 424.3137 420.540111 
L 424.822596 421.765682 
L 425.224356 422.235026 
L 425.545764 422.30421 
L 425.840388 422.135517 
L 426.18858 421.658614 
L 426.630516 420.636352 
L 427.179588 418.748887 
L 427.634916 416.467784 
L 427.969716 413.202214 
L 428.39826 406.598229 
L 428.987508 393.514308 
L 430.313316 358.933148 
L 432.161412 304.35174 
L 437.062884 156.998254 
L 438.669924 116.657769 
L 440.035908 87.685056 
L 441.227796 66.879961 
L 442.285764 52.082759 
L 443.223204 41.891938 
L 444.053508 35.134173 
L 444.776676 30.942502 
L 445.392708 28.575625 
L 445.888212 27.446916 
L 446.27658 27.028505 
L 446.584596 26.978829 
L 446.87922 27.158127 
L 447.240804 27.672031 
L 447.68274 28.723379 
L 448.231812 30.645366 
L 448.673748 32.919122 
L 449.02194 36.419206 
L 449.450484 43.19867 
L 450.066516 57.07675 
L 451.405716 92.24202 
L 453.293988 148.259037 
L 457.967796 289.042906 
L 459.60162 330.463283 
L 460.980996 360.05074 
L 462.186276 381.353413 
L 463.244244 396.367709 
L 464.195076 406.88015 
L 465.02538 413.772512 
L 465.748548 418.078626 
L 466.36458 420.540108 
L 466.873476 421.765679 
L 467.275236 422.235023 
L 467.596644 422.304207 
L 467.891268 422.135514 
L 468.23946 421.658611 
L 468.681396 420.636349 
L 469.230468 418.748885 
L 469.685796 416.467782 
L 470.020596 413.202212 
L 470.44914 406.598227 
L 471.038388 393.514307 
L 472.364196 358.933147 
L 474.212292 304.35174 
L 479.113764 156.998255 
L 480.720804 116.65777 
L 482.086788 87.685058 
L 483.278676 66.879962 
L 484.336644 52.08276 
L 485.274084 41.89194 
L 486.104388 35.134175 
L 486.827556 30.942503 
L 487.443588 28.575626 
L 487.939092 27.446917 
L 488.32746 27.028506 
L 488.635476 26.97883 
L 488.9301 27.158128 
L 489.291684 27.672032 
L 489.73362 28.72338 
L 490.282692 30.645367 
L 490.724628 32.919123 
L 491.07282 36.419207 
L 491.501364 43.198671 
L 492.117396 57.07675 
L 493.456596 92.242021 
L 495.344868 148.259037 
L 500.018676 289.042906 
L 501.6525 330.463283 
L 503.031876 360.050739 
L 504.237156 381.353412 
L 505.295124 396.367709 
L 506.245956 406.880149 
L 507.07626 413.772512 
L 507.799428 418.078625 
L 508.41546 420.540107 
L 508.924356 421.765679 
L 509.326116 422.235023 
L 509.647524 422.304207 
L 509.942148 422.135514 
L 510.29034 421.65861 
L 510.732276 420.636349 
L 511.281348 418.748884 
L 511.736676 416.467782 
L 512.071476 413.202212 
L 512.50002 406.598227 
L 513.089268 393.514306 
L 514.415076 358.933146 
L 516.263172 304.351739 
L 521.164644 156.998255 
L 522.771684 116.65777 
L 524.137668 87.685058 
L 525.329556 66.879963 
L 526.387524 52.08276 
L 527.324964 41.89194 
L 528.155268 35.134175 
L 528.878436 30.942503 
L 529.494468 28.575626 
L 529.989972 27.446917 
L 530.37834 27.028507 
L 530.686356 26.97883 
L 530.98098 27.158128 
L 531.342564 27.672033 
L 531.7845 28.723381 
L 532.333572 30.645367 
L 532.775508 32.919123 
L 533.1237 36.419208 
L 533.552244 43.198671 
L 534.168276 57.076751 
L 535.507476 92.242021 
L 537.395748 148.259037 
L 542.069556 289.042906 
L 543.70338 330.463283 
L 545.082756 360.050739 
L 546.288036 381.353412 
L 547.346004 396.367709 
L 548.296836 406.880149 
L 549.12714 413.772512 
L 549.850308 418.078625 
L 550.46634 420.540107 
L 550.975236 421.765679 
L 551.376996 422.235023 
L 551.698404 422.304207 
L 551.993028 422.135514 
L 552.34122 421.65861 
L 552.783156 420.636349 
L 553.332228 418.748884 
L 553.787556 416.467781 
L 554.122356 413.202212 
L 554.5509 406.598227 
L 555.140148 393.514306 
L 556.465956 358.933146 
L 558.314052 304.351739 
L 563.215524 156.998255 
L 564.822565 116.65777 
L 566.188549 87.685058 
L 567.380437 66.879963 
L 568.438405 52.08276 
L 569.375845 41.89194 
L 570.206149 35.134175 
L 570.929317 30.942503 
L 571.545349 28.575626 
L 572.040853 27.446917 
L 572.429221 27.028507 
L 572.737237 26.97883 
L 573.031861 27.158129 
L 573.393445 27.672033 
L 573.835381 28.723381 
L 574.384453 30.645367 
L 574.826389 32.919123 
L 575.174581 36.419208 
L 575.603125 43.198671 
L 576.219157 57.076751 
L 577.558357 92.242021 
L 579.446629 148.259038 
L 584.120437 289.042906 
L 585.754261 330.463283 
L 587.133637 360.050739 
L 588.338917 381.353412 
L 589.396885 396.367709 
L 590.347717 406.880149 
L 591.178021 413.772512 
L 591.901189 418.078625 
L 592.517221 420.540107 
L 593.026117 421.765679 
L 593.427877 422.235023 
L 593.749285 422.304207 
L 594.043909 422.135514 
L 594.392101 421.65861 
L 594.834037 420.636349 
L 595.383109 418.748884 
L 595.838437 416.467781 
L 596.173237 413.202212 
L 596.601781 406.598227 
L 597.191029 393.514306 
L 598.516837 358.933146 
L 600.364933 304.351739 
L 605.266405 156.998255 
L 606.873445 116.65777 
L 608.239429 87.685058 
L 609.431317 66.879963 
L 610.489285 52.08276 
L 611.426725 41.89194 
L 612.257029 35.134175 
L 612.980197 30.942503 
L 613.596229 28.575626 
L 614.091733 27.446917 
L 614.480101 27.028507 
L 614.788117 26.97883 
L 615.082741 27.158129 
L 615.444325 27.672033 
L 615.886261 28.723381 
L 616.435333 30.645367 
L 616.877269 32.919123 
L 617.225461 36.419208 
L 617.654005 43.198671 
L 618.270037 57.076751 
L 619.609237 92.242021 
L 621.497509 148.259038 
L 626.171317 289.042906 
L 627.805141 330.463283 
L 629.184517 360.050739 
L 630.389797 381.353412 
L 631.447765 396.367709 
L 632.398597 406.880149 
L 633.228901 413.772512 
L 633.952069 418.078625 
L 634.568101 420.540107 
L 635.076997 421.765679 
L 635.478757 422.235023 
L 635.800165 422.304207 
L 636.094789 422.135514 
L 636.442981 421.65861 
L 636.884917 420.636349 
L 637.433989 418.748884 
L 637.889317 416.467781 
L 638.224117 413.202212 
L 638.652661 406.598227 
L 639.241909 393.514306 
L 640.567717 358.933146 
L 642.415813 304.351739 
L 647.317285 156.998255 
L 648.924325 116.65777 
L 650.290309 87.685058 
L 651.482197 66.879963 
L 652.540165 52.08276 
L 653.477605 41.89194 
L 654.307909 35.134175 
L 655.031077 30.942503 
L 655.647109 28.575626 
L 656.142613 27.446917 
L 656.530981 27.028507 
L 656.838997 26.97883 
L 657.133621 27.158129 
L 657.495205 27.672033 
L 657.937141 28.723381 
L 658.486213 30.645367 
L 658.928149 32.919123 
L 659.276341 36.419208 
L 659.704885 43.198671 
L 660.320917 57.076751 
L 661.660117 92.242021 
L 663.548389 148.259038 
L 668.222197 289.042906 
L 669.856021 330.463283 
L 671.235397 360.050739 
L 672.440677 381.353412 
L 673.498645 396.367709 
L 674.449477 406.880149 
L 675.279781 413.772512 
L 676.002949 418.078625 
L 676.618981 420.540107 
L 677.127877 421.765679 
L 677.529637 422.235023 
L 677.851045 422.304207 
L 678.145669 422.135514 
L 678.493861 421.65861 
L 678.935797 420.636349 
L 679.484869 418.748884 
L 679.940197 416.467781 
L 680.274997 413.202212 
L 680.703541 406.598227 
L 681.292789 393.514306 
L 682.618597 358.933146 
L 684.466693 304.351739 
L 689.368165 156.998255 
L 690.975205 116.65777 
L 692.341189 87.685058 
L 693.533077 66.879963 
L 694.591045 52.08276 
L 695.528485 41.89194 
L 696.358789 35.134175 
L 697.081957 30.942503 
L 697.697989 28.575626 
L 698.193493 27.446917 
L 698.581861 27.028507 
L 698.889877 26.97883 
L 699.184501 27.158129 
L 699.546085 27.672033 
L 699.988021 28.723381 
L 700.537093 30.645367 
L 700.979029 32.919123 
L 701.327221 36.419208 
L 701.755765 43.198671 
L 702.371797 57.076751 
L 703.710997 92.242021 
L 705.599269 148.259038 
L 710.273077 289.042906 
L 711.906901 330.463283 
L 713.286277 360.050739 
L 714.491557 381.353412 
L 715.549525 396.367709 
L 716.500357 406.880149 
L 717.330661 413.772512 
L 718.053829 418.078625 
L 718.582813 420.258103 
L 718.582813 420.258103 
" clip-path="url(#pd030afa83b)" style="fill: none; stroke: #ff7f0e; stroke-width: 1.5; stroke-linecap: square"/>
   </g>
   <g id="line2d_25">
    <path d="M 48.982813 314.149688 
L 49.154315 314.048571 
L 49.341803 313.562598 
L 49.623035 312.078778 
L 49.998011 308.72357 
L 50.529589 301.634345 
L 51.922357 283.555473 
L 53.141029 270.499475 
L 54.212389 261.269566 
L 55.163221 254.868057 
L 56.006917 250.586445 
L 56.743477 247.899472 
L 57.386293 246.329825 
L 57.921972 245.553995 
L 58.363908 245.264753 
L 58.752276 245.263032 
L 59.140644 245.489039 
L 59.595972 246.032457 
L 60.145044 247.067656 
L 60.801252 248.813961 
L 61.59138 251.58715 
L 62.555604 255.84235 
L 63.7341 262.115793 
L 65.27418 271.614076 
L 67.939188 289.721177 
L 70.497061 308.07669 
L 71.019349 315.661827 
L 71.809477 330.433244 
L 73.202245 354.413949 
L 74.420917 371.745129 
L 75.492277 384.007076 
L 76.443109 392.519768 
L 77.286805 398.220998 
L 78.023365 401.805992 
L 78.652789 403.873043 
L 79.175077 404.91555 
L 79.603621 405.331449 
L 79.951813 405.38746 
L 80.286613 405.210593 
L 80.674981 404.731608 
L 81.157093 403.744764 
L 81.746341 401.980976 
L 82.456117 399.102602 
L 83.313205 394.64076 
L 84.357781 387.952342 
L 85.670197 378.009111 
L 87.491509 362.341973 
L 91.455541 325.804209 
L 91.977829 317.349296 
L 93.383989 288.526977 
L 94.723189 264.638226 
L 95.901685 247.392202 
L 96.946261 235.190968 
L 97.870309 226.836271 
L 98.687221 221.333591 
L 99.396997 217.951171 
L 99.999637 216.066658 
L 100.495141 215.17218 
L 100.883509 214.869874 
L 101.204917 214.876175 
L 101.539717 215.122139 
L 101.941477 215.728812 
L 102.436981 216.924944 
L 103.039621 219.0081 
L 103.776181 222.417507 
L 104.660053 227.627523 
L 105.744805 235.436303 
L 107.124181 247.109251 
L 109.106197 265.991558 
L 112.561333 301.161244 
L 113.123797 311.325444 
L 115.628101 361.691938 
L 116.819989 380.254393 
L 117.877957 393.491304 
L 118.828789 402.752594 
L 119.659093 408.818578 
L 120.382261 412.602536 
L 120.998293 414.759726 
L 121.507189 415.827938 
L 121.908949 416.230982 
L 122.243749 416.279745 
L 122.565157 416.088517 
L 122.940133 415.580282 
L 123.408853 414.530389 
L 123.984709 412.643391 
L 124.681093 409.545485 
L 125.524789 404.714112 
L 126.555973 397.427498 
L 127.841605 386.64588 
L 129.595957 369.888103 
L 133.452853 330.284922 
L 133.988533 321.276112 
L 134.979541 299.568118 
L 136.399093 271.37741 
L 137.631157 251.099091 
L 138.729301 236.513729 
L 139.693525 226.474003 
L 140.550613 219.710842 
L 141.300565 215.426641 
L 141.943381 212.931133 
L 142.479061 211.652274 
L 142.907605 211.134705 
L 143.242405 211.03267 
L 143.550421 211.165899 
L 143.912005 211.591375 
L 144.353941 212.491332 
L 144.903013 214.162835 
L 145.572613 216.97544 
L 146.389525 221.452443 
L 147.380533 228.227211 
L 148.599205 238.202074 
L 150.219637 253.456891 
L 154.197061 293.966386 
L 154.665781 300.297243 
L 155.255029 311.603031 
L 157.237045 353.28491 
L 158.495893 374.712995 
L 159.607429 390.050973 
L 160.598437 400.820023 
L 161.468917 408.024035 
L 162.232261 412.638596 
L 162.888469 415.370783 
L 163.437541 416.80983 
L 163.879477 417.42735 
L 164.227669 417.585553 
L 164.535685 417.491672 
L 164.883877 417.129315 
L 165.312421 416.32345 
L 165.834709 414.829495 
L 166.477525 412.267707 
L 167.254261 408.199443 
L 168.205093 401.944108 
L 169.370197 392.693764 
L 170.883493 378.757375 
L 173.401189 353.140379 
L 175.677829 328.444608 
L 176.253685 317.494867 
L 178.409797 272.407186 
L 179.655253 251.627017 
L 180.753397 236.821297 
L 181.731013 226.474873 
L 182.588101 219.591314 
L 183.338053 215.210597 
L 183.980869 212.639431 
L 184.516549 211.302752 
L 184.945093 210.74245 
L 185.293285 210.609356 
L 185.601301 210.725036 
L 185.949493 211.111529 
L 186.378037 211.946308 
L 186.913717 213.520493 
L 187.569925 216.200462 
L 188.360053 220.428076 
L 189.324277 226.885623 
L 190.516165 236.490719 
L 192.069637 250.965922 
L 194.855173 279.467112 
L 196.676485 299.343986 
L 197.252341 310.143529 
L 199.582549 358.529781 
L 200.801221 378.442396 
L 201.885973 392.736688 
L 202.850197 402.680068 
L 203.707285 409.349505 
L 204.443845 413.485396 
L 205.073269 415.886794 
L 205.595557 417.114295 
L 206.024101 417.621395 
L 206.358901 417.714238 
L 206.666917 417.571819 
L 207.028501 417.134718 
L 207.470437 416.219424 
L 208.019509 414.527314 
L 208.689109 411.687581 
L 209.506021 407.175103 
L 210.497029 400.354814 
L 211.729093 390.2034 
L 213.362917 374.723611 
L 217.326949 334.111979 
L 217.809061 327.25334 
L 218.411701 315.200931 
L 219.965173 281.889846 
L 221.264197 258.58412 
L 222.415909 241.71203 
L 223.433701 229.873183 
L 224.330965 221.836614 
L 225.121093 216.594039 
L 225.804085 213.409579 
L 226.379941 211.66318 
L 226.848661 210.853278 
L 227.223637 210.587085 
L 227.545045 210.620472 
L 227.879845 210.904103 
L 228.281605 211.568176 
L 228.777109 212.852485 
L 229.393141 215.123925 
L 230.143093 218.817755 
L 231.040357 224.428723 
L 232.138501 232.786743 
L 233.544661 245.32657 
L 235.620421 266.089905 
L 238.727365 299.290221 
L 239.303221 310.093394 
L 241.633429 358.495958 
L 242.852101 378.417231 
L 243.936853 392.719141 
L 244.901077 402.669069 
L 245.758165 409.344055 
L 246.494725 413.484457 
L 247.124149 415.889491 
L 247.646437 417.11984 
L 248.074981 417.629155 
L 248.409781 417.723649 
L 248.717797 417.582685 
L 249.079381 417.147212 
L 249.521317 416.233788 
L 250.070389 414.543815 
L 250.739989 411.706402 
L 251.556901 407.196323 
L 252.547909 400.378308 
L 253.766581 390.347372 
L 255.387013 375.016637 
L 259.337653 334.589009 
L 259.806373 328.162845 
L 260.395621 316.742118 
L 262.310677 276.237171 
L 263.582917 254.348109 
L 264.694453 238.821943 
L 265.685461 227.886539 
L 266.569333 220.443754 
L 267.346069 215.66848 
L 268.002277 212.883985 
L 268.551349 211.403698 
L 269.006677 210.742504 
L 269.354869 210.571756 
L 269.662885 210.655176 
L 270.011077 211.00644 
L 270.439621 211.799738 
L 270.961909 213.280019 
L 271.604725 215.827479 
L 272.381461 219.88212 
L 273.318901 226.029467 
L 274.484005 235.255959 
L 275.983909 249.050599 
L 278.434645 273.98936 
L 280.805029 299.706212 
L 281.394277 310.966013 
L 283.470037 354.578678 
L 284.715493 375.608837 
L 285.827029 390.803158 
L 286.804645 401.313548 
L 287.675125 408.431337 
L 288.438469 412.970147 
L 289.094677 415.637875 
L 289.643749 417.023893 
L 290.085685 417.599554 
L 290.433877 417.725401 
L 290.741893 417.603417 
L 291.103477 417.189507 
L 291.545413 416.301332 
L 292.094485 414.640949 
L 292.764085 411.836822 
L 293.567605 407.444956 
L 294.545221 400.782936 
L 295.750501 390.940849 
L 297.344149 375.950845 
L 300.571621 342.860521 
L 301.763509 329.645475 
L 302.325973 319.37154 
L 305.044548 263.955048 
L 306.223044 245.692953 
L 307.281012 232.571227 
L 308.218452 223.560295 
L 309.035364 217.690163 
L 309.74514 214.052015 
L 310.34778 211.996104 
L 310.843284 210.991538 
L 311.245044 210.61563 
L 311.566452 210.588631 
L 311.88786 210.797546 
L 312.276228 211.354458 
L 312.744948 212.452334 
L 313.334196 214.457197 
L 314.043972 217.727741 
L 314.90106 222.796325 
L 315.945636 230.39316 
L 317.258052 241.685852 
L 319.079364 259.47839 
L 322.73538 297.855215 
L 323.284452 307.53805 
L 326.498532 371.436559 
L 327.636852 387.799235 
L 328.641252 399.238042 
L 329.538516 407.074207 
L 330.328644 412.143994 
L 330.998244 415.135723 
L 331.5741 416.78378 
L 332.029428 417.502911 
L 332.391012 417.719085 
L 332.699028 417.663073 
L 333.033828 417.359157 
L 333.44898 416.642847 
L 333.957876 415.274977 
L 334.5873 412.882031 
L 335.350644 409.025749 
L 336.274692 403.11889 
L 337.39962 394.394742 
L 338.845956 381.310454 
L 341.069028 358.888248 
L 343.881348 328.599061 
L 344.470596 317.34194 
L 346.546356 273.736173 
L 347.791812 252.70581 
L 348.903348 237.509505 
L 349.880964 226.996363 
L 350.751444 219.875598 
L 351.514788 215.333948 
L 352.170996 212.663714 
L 352.720068 211.275615 
L 353.162004 210.69832 
L 353.510196 210.571227 
L 353.818212 210.692147 
L 354.166404 211.084474 
L 354.60834 211.95879 
L 355.14402 213.555819 
L 355.800228 216.262 
L 356.603748 220.599255 
L 357.567972 227.105839 
L 358.75986 236.759866 
L 360.326724 251.411313 
L 363.219396 281.048514 
L 364.880004 299.280037 
L 365.45586 310.083595 
L 367.786068 358.48821 
L 369.00474 378.410719 
L 370.089492 392.713793 
L 371.053716 402.664777 
L 371.910804 409.340701 
L 372.647364 413.481896 
L 373.276788 415.887591 
L 373.799076 417.118474 
L 374.22762 417.628214 
L 374.56242 417.723031 
L 374.870436 417.582359 
L 375.23202 417.147219 
L 375.673956 416.234186 
L 376.223028 414.544675 
L 376.892628 411.707789 
L 377.70954 407.198292 
L 378.700548 400.38089 
L 379.91922 390.350561 
L 381.539652 375.020382 
L 385.490292 334.592986 
L 385.959012 328.166757 
L 386.54826 316.745922 
L 388.463316 276.240472 
L 389.735556 254.350994 
L 390.847092 238.82442 
L 391.8381 227.888632 
L 392.721972 220.445494 
L 393.498708 215.669907 
L 394.154916 212.88515 
L 394.71738 211.377964 
L 395.159316 210.743277 
L 395.507508 210.572397 
L 395.815524 210.655702 
L 396.163716 211.006838 
L 396.59226 211.799983 
L 397.114548 213.280084 
L 397.757364 215.827333 
L 398.5341 219.881737 
L 399.47154 226.028827 
L 400.636644 235.255044 
L 402.136548 249.04941 
L 404.587284 273.987916 
L 406.957668 299.704734 
L 407.546916 310.964557 
L 409.622676 354.577375 
L 410.868132 375.607663 
L 411.979668 390.802121 
L 412.957284 401.312643 
L 413.827764 408.430556 
L 414.591108 412.969477 
L 415.247316 415.637302 
L 415.796388 417.0234 
L 416.238324 417.599126 
L 416.586516 417.725023 
L 416.894532 417.603083 
L 417.256116 417.189224 
L 417.698052 416.30111 
L 418.247124 414.640802 
L 418.916724 411.836761 
L 419.720244 407.444994 
L 420.69786 400.783083 
L 421.90314 390.941114 
L 423.496788 375.951235 
L 426.72426 342.86105 
L 427.916148 329.646018 
L 428.478612 319.372083 
L 431.197188 263.955542 
L 432.375684 245.693407 
L 433.433652 232.571636 
L 434.371092 223.560662 
L 435.188004 217.690488 
L 435.89778 214.052303 
L 436.50042 211.99636 
L 436.995924 210.991767 
L 437.397684 210.615838 
L 437.719092 210.588821 
L 438.0405 210.797719 
L 438.428868 211.35461 
L 438.897588 212.452462 
L 439.486836 214.457294 
L 440.196612 217.727803 
L 441.0537 222.796345 
L 442.098276 230.393135 
L 443.410692 241.685776 
L 445.232004 259.478256 
L 448.88802 297.85502 
L 449.437092 307.537853 
L 452.651172 371.436371 
L 453.789492 387.79906 
L 454.793892 399.23788 
L 455.691156 407.074059 
L 456.481284 412.14386 
L 457.150884 415.135601 
L 457.72674 416.783669 
L 458.182068 417.502809 
L 458.543652 417.71899 
L 458.851668 417.662984 
L 459.186468 417.359075 
L 459.60162 416.642773 
L 460.110516 415.274912 
L 460.73994 412.881979 
L 461.503284 409.025712 
L 462.427332 403.11887 
L 463.55226 394.394741 
L 464.998596 381.310475 
L 467.221668 358.888295 
L 470.033988 328.599129 
L 470.623236 317.34201 
L 472.698996 273.736246 
L 473.944452 252.705881 
L 475.055988 237.509573 
L 476.033604 226.996427 
L 476.904084 219.875657 
L 477.667428 215.334003 
L 478.323636 212.663766 
L 478.872708 211.275663 
L 479.314644 210.698365 
L 479.662836 210.57127 
L 479.970852 210.692187 
L 480.319044 211.084511 
L 480.76098 211.958825 
L 481.29666 213.55585 
L 481.952868 216.262026 
L 482.756388 220.599274 
L 483.720612 227.105852 
L 484.9125 236.759871 
L 486.479364 251.411309 
L 489.372036 281.048496 
L 491.032644 299.280014 
L 491.6085 310.083571 
L 493.938708 358.488184 
L 495.15738 378.410692 
L 496.242132 392.713766 
L 497.206356 402.664752 
L 498.063444 409.340677 
L 498.800004 413.481873 
L 499.429428 415.887569 
L 499.951716 417.118454 
L 500.38026 417.628195 
L 500.71506 417.723013 
L 501.023076 417.582341 
L 501.38466 417.147202 
L 501.826596 416.234171 
L 502.375668 414.544662 
L 503.045268 411.707777 
L 503.86218 407.198282 
L 504.853188 400.380882 
L 506.07186 390.350557 
L 507.692292 375.020381 
L 511.642932 334.592993 
L 512.111652 328.166764 
L 512.7009 316.74593 
L 514.615956 276.240481 
L 515.888196 254.351004 
L 516.999732 238.82443 
L 517.99074 227.888642 
L 518.874612 220.445503 
L 519.651348 215.669916 
L 520.307556 212.885159 
L 520.87002 211.377972 
L 521.311956 210.743285 
L 521.660148 210.572405 
L 521.968164 210.655709 
L 522.316356 211.006845 
L 522.7449 211.79999 
L 523.267188 213.28009 
L 523.910004 215.827339 
L 524.68674 219.881742 
L 525.62418 226.028831 
L 526.789284 235.255047 
L 528.289188 249.049412 
L 530.739924 273.987915 
L 533.110308 299.704732 
L 533.699556 310.964554 
L 535.775316 354.577372 
L 537.020772 375.60766 
L 538.132308 390.802118 
L 539.109924 401.31264 
L 539.980404 408.430553 
L 540.743748 412.969474 
L 541.399956 415.637298 
L 541.949028 417.023397 
L 542.390964 417.599123 
L 542.739156 417.72502 
L 543.047172 417.60308 
L 543.408756 417.189222 
L 543.850692 416.301107 
L 544.399764 414.640799 
L 545.069364 411.836759 
L 545.872884 407.444991 
L 546.8505 400.783081 
L 548.05578 390.941113 
L 549.649428 375.951234 
L 552.8769 342.861051 
L 554.068788 329.646019 
L 554.631252 319.372084 
L 557.349828 263.955543 
L 558.528324 245.693409 
L 559.586292 232.571638 
L 560.523732 223.560663 
L 561.340644 217.690489 
L 562.05042 214.052304 
L 562.65306 211.996362 
L 563.148564 210.991768 
L 563.550324 210.615839 
L 563.871732 210.588822 
L 564.19314 210.797721 
L 564.581509 211.354611 
L 565.050229 212.452463 
L 565.639477 214.457295 
L 566.349253 217.727804 
L 567.206341 222.796346 
L 568.250917 230.393136 
L 569.563333 241.685776 
L 571.384645 259.478257 
L 575.040661 297.85502 
L 575.589733 307.537853 
L 578.803813 371.436371 
L 579.942133 387.799059 
L 580.946533 399.23788 
L 581.843797 407.074058 
L 582.633925 412.143859 
L 583.303525 415.135601 
L 583.879381 416.783668 
L 584.334709 417.502809 
L 584.696293 417.718989 
L 585.004309 417.662983 
L 585.339109 417.359074 
L 585.754261 416.642772 
L 586.263157 415.274912 
L 586.892581 412.881979 
L 587.655925 409.025711 
L 588.579973 403.118869 
L 589.704901 394.39474 
L 591.151237 381.310475 
L 593.374309 358.888295 
L 596.186629 328.599129 
L 596.775877 317.34201 
L 598.851637 273.736246 
L 600.097093 252.705881 
L 601.208629 237.509574 
L 602.186245 226.996427 
L 603.056725 219.875657 
L 603.820069 215.334003 
L 604.476277 212.663766 
L 605.025349 211.275663 
L 605.467285 210.698365 
L 605.815477 210.57127 
L 606.123493 210.692187 
L 606.471685 211.084511 
L 606.913621 211.958825 
L 607.449301 213.55585 
L 608.105509 216.262026 
L 608.909029 220.599275 
L 609.873253 227.105852 
L 611.065141 236.759871 
L 612.632005 251.411309 
L 615.524677 281.048496 
L 617.185285 299.280014 
L 617.761141 310.083571 
L 620.091349 358.488184 
L 621.310021 378.410692 
L 622.394773 392.713766 
L 623.358997 402.664752 
L 624.216085 409.340677 
L 624.952645 413.481873 
L 625.582069 415.887569 
L 626.104357 417.118454 
L 626.532901 417.628195 
L 626.867701 417.723013 
L 627.175717 417.582341 
L 627.537301 417.147202 
L 627.979237 416.23417 
L 628.528309 414.544661 
L 629.197909 411.707777 
L 630.014821 407.198282 
L 631.005829 400.380882 
L 632.224501 390.350557 
L 633.844933 375.020381 
L 637.795573 334.592993 
L 638.264293 328.166764 
L 638.853541 316.74593 
L 640.768597 276.240481 
L 642.040837 254.351004 
L 643.152373 238.82443 
L 644.143381 227.888642 
L 645.027253 220.445503 
L 645.803989 215.669916 
L 646.460197 212.885159 
L 647.022661 211.377972 
L 647.464597 210.743285 
L 647.812789 210.572405 
L 648.120805 210.655709 
L 648.468997 211.006845 
L 648.897541 211.79999 
L 649.419829 213.28009 
L 650.062645 215.827339 
L 650.839381 219.881742 
L 651.776821 226.028831 
L 652.941925 235.255047 
L 654.441829 249.049412 
L 656.892565 273.987915 
L 659.262949 299.704732 
L 659.852197 310.964554 
L 661.927957 354.577372 
L 663.173413 375.60766 
L 664.284949 390.802118 
L 665.262565 401.31264 
L 666.133045 408.430553 
L 666.896389 412.969474 
L 667.552597 415.637298 
L 668.101669 417.023397 
L 668.543605 417.599123 
L 668.891797 417.72502 
L 669.199813 417.60308 
L 669.561397 417.189222 
L 670.003333 416.301107 
L 670.552405 414.640799 
L 671.222005 411.836759 
L 672.025525 407.444991 
L 673.003141 400.783081 
L 674.208421 390.941113 
L 675.802069 375.951234 
L 679.029541 342.861051 
L 680.221429 329.646019 
L 680.783893 319.372084 
L 683.502469 263.955543 
L 684.680965 245.693409 
L 685.738933 232.571638 
L 686.676373 223.560663 
L 687.493285 217.690489 
L 688.203061 214.052304 
L 688.805701 211.996362 
L 689.301205 210.991768 
L 689.702965 210.615839 
L 690.024373 210.588822 
L 690.345781 210.797721 
L 690.734149 211.354611 
L 691.202869 212.452463 
L 691.792117 214.457295 
L 692.501893 217.727804 
L 693.358981 222.796346 
L 694.403557 230.393136 
L 695.715973 241.685776 
L 697.537285 259.478257 
L 701.193301 297.85502 
L 701.742373 307.537853 
L 704.956453 371.436371 
L 706.094773 387.799059 
L 707.099173 399.23788 
L 707.996437 407.074058 
L 708.786565 412.143859 
L 709.456165 415.135601 
L 710.032021 416.783668 
L 710.487349 417.502809 
L 710.848933 417.718989 
L 711.156949 417.662983 
L 711.491749 417.359074 
L 711.906901 416.642772 
L 712.415797 415.274912 
L 713.045221 412.881979 
L 713.808565 409.025711 
L 714.732613 403.118869 
L 715.857541 394.39474 
L 717.303877 381.310475 
L 718.582813 368.607841 
L 718.582813 368.607841 
" clip-path="url(#pd030afa83b)" style="fill: none; stroke: #2ca02c; stroke-width: 1.5; stroke-linecap: square"/>
   </g>
   <g id="line2d_26">
    <path d="M 48.982813 314.149688 
L 50.322012 135.433672 
L 50.422452 135.434868 
L 62.970756 135.472368 
L 70.008253 135.43452 
L 71.347453 314.137449 
L 71.447893 314.134208 
L 79.081333 314.000146 
L 88.549477 314.086 
L 91.033693 314.122784 
L 92.372893 135.429728 
L 92.473333 135.431527 
L 102.852133 135.505239 
L 112.059133 135.441645 
L 113.398333 314.144516 
L 113.498773 314.140803 
L 120.757237 313.984869 
L 129.127237 314.050056 
L 133.084573 314.115856 
L 134.423773 135.427619 
L 134.524213 135.429509 
L 144.715525 135.509189 
L 154.110013 135.443237 
L 155.449213 314.146629 
L 155.549653 314.142848 
L 162.781333 313.983267 
L 171.044197 314.04567 
L 175.135453 314.114484 
L 176.474653 135.427136 
L 176.575093 135.429038 
L 186.753013 135.509634 
L 196.160893 135.443521 
L 197.500093 314.147051 
L 197.600533 314.143261 
L 204.832213 313.983123 
L 213.081685 314.045138 
L 217.186333 314.114256 
L 218.525533 135.427042 
L 218.625973 135.428946 
L 228.790501 135.509712 
L 238.211773 135.443568 
L 239.550973 314.14713 
L 239.651413 314.143339 
L 246.883093 313.983121 
L 255.119173 314.044878 
L 259.237213 314.114218 
L 260.576413 135.427025 
L 260.676853 135.42893 
L 270.841381 135.509716 
L 280.262653 135.443576 
L 281.601853 314.147144 
L 281.702293 314.143353 
L 288.933973 313.983124 
L 297.170053 314.044873 
L 301.288093 314.114213 
L 302.627293 135.427023 
L 302.727733 135.428927 
L 312.89226 135.509716 
L 322.313533 135.443577 
L 323.652733 314.147146 
L 323.753172 314.143355 
L 330.984852 313.983125 
L 339.220932 314.044872 
L 343.338973 314.114212 
L 344.678173 135.427022 
L 344.778612 135.428927 
L 354.94314 135.509716 
L 364.364413 135.443577 
L 365.703613 314.147146 
L 365.804052 314.143355 
L 373.035732 313.983125 
L 381.271812 314.044872 
L 385.389853 314.114212 
L 386.729053 135.427022 
L 386.829492 135.428927 
L 396.99402 135.509716 
L 406.415293 135.443577 
L 407.754493 314.147146 
L 407.854932 314.143355 
L 415.086612 313.983125 
L 423.322692 314.044872 
L 427.440733 314.114212 
L 428.779933 135.427022 
L 428.880372 135.428927 
L 439.0449 135.509716 
L 448.466173 135.443577 
L 449.805373 314.147146 
L 449.905812 314.143355 
L 457.137492 313.983125 
L 465.373572 314.044872 
L 469.491613 314.114212 
L 470.830813 135.427022 
L 470.931252 135.428927 
L 481.09578 135.509716 
L 490.517053 135.443577 
L 491.856253 314.147146 
L 491.956692 314.143355 
L 499.188372 313.983125 
L 507.424452 314.044872 
L 511.542493 314.114212 
L 512.881693 135.427022 
L 512.982132 135.428927 
L 523.14666 135.509716 
L 532.567933 135.443577 
L 533.907133 314.147146 
L 534.007572 314.143355 
L 541.239252 313.983125 
L 549.475332 314.044872 
L 553.593373 314.114212 
L 554.932573 135.427022 
L 555.033012 135.428927 
L 565.197541 135.509716 
L 574.618813 135.443577 
L 575.958012 314.147146 
L 576.058453 314.143355 
L 583.290133 313.983125 
L 591.526213 314.044872 
L 595.644253 314.114212 
L 596.983452 135.427022 
L 597.083893 135.428927 
L 607.248421 135.509716 
L 616.669693 135.443577 
L 618.008893 314.147146 
L 618.109333 314.143355 
L 625.341013 313.983125 
L 633.577093 314.044872 
L 637.695133 314.114212 
L 639.034333 135.427022 
L 639.134773 135.428927 
L 649.299301 135.509716 
L 658.720573 135.443577 
L 660.059773 314.147146 
L 660.160213 314.143355 
L 667.391893 313.983125 
L 675.627973 314.044872 
L 679.746013 314.114212 
L 681.085213 135.427022 
L 681.185653 135.428927 
L 691.350181 135.509716 
L 700.771453 135.443577 
L 702.110653 314.147146 
L 702.211093 314.143355 
L 709.442773 313.983125 
L 717.678853 314.044872 
L 718.582813 314.059824 
L 718.582813 314.059824 
" clip-path="url(#pd030afa83b)" style="fill: none; stroke: #d62728; stroke-width: 1.5; stroke-linecap: square"/>
   </g>
   <g id="patch_3">
    <path d="M 48.982813 442.08 
L 48.982813 7.2 
" style="fill: none; stroke: #000000; stroke-width: 0.8; stroke-linejoin: miter; stroke-linecap: square"/>
   </g>
   <g id="patch_4">
    <path d="M 718.582813 442.08 
L 718.582813 7.2 
" style="fill: none; stroke: #000000; stroke-width: 0.8; stroke-linejoin: miter; stroke-linecap: square"/>
   </g>
   <g id="patch_5">
    <path d="M 48.982813 442.08 
L 718.582813 442.08 
" style="fill: none; stroke: #000000; stroke-width: 0.8; stroke-linejoin: miter; stroke-linecap: square"/>
   </g>
   <g id="patch_6">
    <path d="M 48.982813 7.2 
L 718.582813 7.2 
" style="fill: none; stroke: #000000; stroke-width: 0.8; stroke-linejoin: miter; stroke-linecap: square"/>
   </g>
   <g id="legend_1">
    <g id="patch_7">
     <path d="M 258.558812 102.8736 
L 362.158813 102.8736 
Q 364.158813 102.8736 364.158813 100.8736 
L 364.158813 43.1611 
Q 364.158813 41.1611 362.158813 41.1611 
L 258.558812 41.1611 
Q 256.558812 41.1611 256.558812 43.1611 
L 256.558812 100.8736 
Q 256.558812 102.8736 258.558812 102.8736 
z
" style="fill: #ffffff; opacity: 0.8; stroke: #cccccc; stroke-linejoin: miter"/>
    </g>
    <g id="line2d_27">
     <path d="M 260.558812 49.259537 
L 270.558812 49.259537 
L 280.558812 49.259537 
" style="fill: none; stroke: #1f77b4; stroke-width: 1.5; stroke-linecap: square"/>
    </g>
    <g id="text_14">
     <!-- V(2) [V] -->
     <g transform="translate(288.558812 52.759537)scale(0.1 -0.1)">
      <defs>
       <path id="DejaVuSans-28" d="M 1984 4856 
Q 1566 4138 1362 3434 
Q 1159 2731 1159 2009 
Q 1159 1288 1364 580 
Q 1569 -128 1984 -844 
L 1484 -844 
Q 1016 -109 783 600 
Q 550 1309 550 2009 
Q 550 2706 781 3412 
Q 1013 4119 1484 4856 
L 1984 4856 
z
" transform="scale(0.015625)"/>
       <path id="DejaVuSans-29" d="M 513 4856 
L 1013 4856 
Q 1481 4119 1714 3412 
Q 1947 2706 1947 2009 
Q 1947 1309 1714 600 
Q 1481 -109 1013 -844 
L 513 -844 
Q 928 -128 1133 580 
Q 1338 1288 1338 2009 
Q 1338 2731 1133 3434 
Q 928 4138 513 4856 
z
" transform="scale(0.015625)"/>
      </defs>
      <use xlink:href="#DejaVuSans-56"/>
      <use xlink:href="#DejaVuSans-28" x="68.408203"/>
      <use xlink:href="#DejaVuSans-32" x="107.421875"/>
      <use xlink:href="#DejaVuSans-29" x="171.044922"/>
      <use xlink:href="#DejaVuSans-20" x="210.058594"/>
      <use xlink:href="#DejaVuSans-5b" x="241.845703"/>
      <use xlink:href="#DejaVuSans-56" x="280.859375"/>
      <use xlink:href="#DejaVuSans-5d" x="349.267578"/>
     </g>
    </g>
    <g id="line2d_28">
     <path d="M 260.558812 63.937662 
L 270.558812 63.937662 
L 280.558812 63.937662 
" style="fill: none; stroke: #ff7f0e; stroke-width: 1.5; stroke-linecap: square"/>
    </g>
    <g id="text_15">
     <!-- V(5) [V] -->
     <g transform="translate(288.558812 67.437662)scale(0.1 -0.1)">
      <defs>
       <path id="DejaVuSans-35" d="M 691 4666 
L 3169 4666 
L 3169 4134 
L 1269 4134 
L 1269 2991 
Q 1406 3038 1543 3061 
Q 1681 3084 1819 3084 
Q 2600 3084 3056 2656 
Q 3513 2228 3513 1497 
Q 3513 744 3044 326 
Q 2575 -91 1722 -91 
Q 1428 -91 1123 -41 
Q 819 9 494 109 
L 494 744 
Q 775 591 1075 516 
Q 1375 441 1709 441 
Q 2250 441 2565 725 
Q 2881 1009 2881 1497 
Q 2881 1984 2565 2268 
Q 2250 2553 1709 2553 
Q 1456 2553 1204 2497 
Q 953 2441 691 2322 
L 691 4666 
z
" transform="scale(0.015625)"/>
      </defs>
      <use xlink:href="#DejaVuSans-56"/>
      <use xlink:href="#DejaVuSans-28" x="68.408203"/>
      <use xlink:href="#DejaVuSans-35" x="107.421875"/>
      <use xlink:href="#DejaVuSans-29" x="171.044922"/>
      <use xlink:href="#DejaVuSans-20" x="210.058594"/>
      <use xlink:href="#DejaVuSans-5b" x="241.845703"/>
      <use xlink:href="#DejaVuSans-56" x="280.859375"/>
      <use xlink:href="#DejaVuSans-5d" x="349.267578"/>
     </g>
    </g>
    <g id="line2d_29">
     <path d="M 260.558812 78.615787 
L 270.558812 78.615787 
L 280.558812 78.615787 
" style="fill: none; stroke: #2ca02c; stroke-width: 1.5; stroke-linecap: square"/>
    </g>
    <g id="text_16">
     <!-- V(6) [V]  ($V_{out}$) -->
     <g transform="translate(288.558812 82.115787)scale(0.1 -0.1)">
      <defs>
       <path id="DejaVuSans-Oblique-56" d="M 1319 0 
L 500 4666 
L 1119 4666 
L 1797 653 
L 4063 4666 
L 4750 4666 
L 2053 0 
L 1319 0 
z
" transform="scale(0.015625)"/>
       <path id="DejaVuSans-Oblique-6f" d="M 1625 -91 
Q 1009 -91 651 289 
Q 294 669 294 1325 
Q 294 1706 417 2101 
Q 541 2497 738 2766 
Q 1047 3184 1428 3384 
Q 1809 3584 2291 3584 
Q 2888 3584 3255 3212 
Q 3622 2841 3622 2241 
Q 3622 1825 3500 1412 
Q 3378 1000 3181 728 
Q 2875 309 2494 109 
Q 2113 -91 1625 -91 
z
M 891 1344 
Q 891 869 1089 633 
Q 1288 397 1691 397 
Q 2269 397 2648 901 
Q 3028 1406 3028 2181 
Q 3028 2634 2825 2865 
Q 2622 3097 2228 3097 
Q 1903 3097 1650 2945 
Q 1397 2794 1197 2484 
Q 1050 2253 970 1956 
Q 891 1659 891 1344 
z
" transform="scale(0.015625)"/>
       <path id="DejaVuSans-Oblique-75" d="M 428 1388 
L 838 3500 
L 1416 3500 
L 1006 1409 
Q 975 1256 961 1147 
Q 947 1038 947 966 
Q 947 700 1109 554 
Q 1272 409 1569 409 
Q 2031 409 2368 721 
Q 2706 1034 2809 1563 
L 3194 3500 
L 3769 3500 
L 3091 0 
L 2516 0 
L 2631 550 
Q 2388 244 2052 76 
Q 1716 -91 1338 -91 
Q 878 -91 622 161 
Q 366 413 366 863 
Q 366 956 381 1097 
Q 397 1238 428 1388 
z
" transform="scale(0.015625)"/>
       <path id="DejaVuSans-Oblique-74" d="M 2706 3500 
L 2619 3053 
L 1472 3053 
L 1100 1153 
Q 1081 1047 1072 975 
Q 1063 903 1063 863 
Q 1063 663 1183 572 
Q 1303 481 1569 481 
L 2150 481 
L 2053 0 
L 1503 0 
Q 991 0 739 200 
Q 488 400 488 806 
Q 488 878 497 964 
Q 506 1050 525 1153 
L 897 3053 
L 409 3053 
L 500 3500 
L 978 3500 
L 1172 4494 
L 1747 4494 
L 1556 3500 
L 2706 3500 
z
" transform="scale(0.015625)"/>
      </defs>
      <use xlink:href="#DejaVuSans-56" transform="translate(0 0.015625)"/>
      <use xlink:href="#DejaVuSans-28" transform="translate(68.408203 0.015625)"/>
      <use xlink:href="#DejaVuSans-36" transform="translate(107.421875 0.015625)"/>
      <use xlink:href="#DejaVuSans-29" transform="translate(171.044922 0.015625)"/>
      <use xlink:href="#DejaVuSans-20" transform="translate(210.058594 0.015625)"/>
      <use xlink:href="#DejaVuSans-5b" transform="translate(241.845703 0.015625)"/>
      <use xlink:href="#DejaVuSans-56" transform="translate(280.859375 0.015625)"/>
      <use xlink:href="#DejaVuSans-5d" transform="translate(349.267578 0.015625)"/>
      <use xlink:href="#DejaVuSans-20" transform="translate(388.28125 0.015625)"/>
      <use xlink:href="#DejaVuSans-20" transform="translate(420.068359 0.015625)"/>
      <use xlink:href="#DejaVuSans-28" transform="translate(451.855469 0.015625)"/>
      <use xlink:href="#DejaVuSans-Oblique-56" transform="translate(490.869141 0.015625)"/>
      <use xlink:href="#DejaVuSans-Oblique-6f" transform="translate(559.277344 -16.390625)scale(0.7)"/>
      <use xlink:href="#DejaVuSans-Oblique-75" transform="translate(602.104492 -16.390625)scale(0.7)"/>
      <use xlink:href="#DejaVuSans-Oblique-74" transform="translate(646.469727 -16.390625)scale(0.7)"/>
      <use xlink:href="#DejaVuSans-29" transform="translate(676.650391 0.015625)"/>
     </g>
    </g>
    <g id="line2d_30">
     <path d="M 260.558812 93.293912 
L 270.558812 93.293912 
L 280.558812 93.293912 
" style="fill: none; stroke: #d62728; stroke-width: 1.5; stroke-linecap: square"/>
    </g>
    <g id="text_17">
     <!-- V(1) [V]  ($V_{in}$) -->
     <g transform="translate(288.558812 96.793912)scale(0.1 -0.1)">
      <defs>
       <path id="DejaVuSans-Oblique-69" d="M 1172 4863 
L 1747 4863 
L 1606 4134 
L 1031 4134 
L 1172 4863 
z
M 909 3500 
L 1484 3500 
L 800 0 
L 225 0 
L 909 3500 
z
" transform="scale(0.015625)"/>
       <path id="DejaVuSans-Oblique-6e" d="M 3566 2113 
L 3156 0 
L 2578 0 
L 2988 2091 
Q 3016 2238 3031 2350 
Q 3047 2463 3047 2528 
Q 3047 2791 2881 2937 
Q 2716 3084 2419 3084 
Q 1956 3084 1622 2776 
Q 1288 2469 1184 1941 
L 800 0 
L 225 0 
L 903 3500 
L 1478 3500 
L 1363 2950 
Q 1603 3253 1940 3418 
Q 2278 3584 2650 3584 
Q 3113 3584 3367 3334 
Q 3622 3084 3622 2631 
Q 3622 2519 3608 2391 
Q 3594 2263 3566 2113 
z
" transform="scale(0.015625)"/>
      </defs>
      <use xlink:href="#DejaVuSans-56" transform="translate(0 0.015625)"/>
      <use xlink:href="#DejaVuSans-28" transform="translate(68.408203 0.015625)"/>
      <use xlink:href="#DejaVuSans-31" transform="translate(107.421875 0.015625)"/>
      <use xlink:href="#DejaVuSans-29" transform="translate(171.044922 0.015625)"/>
      <use xlink:href="#DejaVuSans-20" transform="translate(210.058594 0.015625)"/>
      <use xlink:href="#DejaVuSans-5b" transform="translate(241.845703 0.015625)"/>
      <use xlink:href="#DejaVuSans-56" transform="translate(280.859375 0.015625)"/>
      <use xlink:href="#DejaVuSans-5d" transform="translate(349.267578 0.015625)"/>
      <use xlink:href="#DejaVuSans-20" transform="translate(388.28125 0.015625)"/>
      <use xlink:href="#DejaVuSans-20" transform="translate(420.068359 0.015625)"/>
      <use xlink:href="#DejaVuSans-28" transform="translate(451.855469 0.015625)"/>
      <use xlink:href="#DejaVuSans-Oblique-56" transform="translate(490.869141 0.015625)"/>
      <use xlink:href="#DejaVuSans-Oblique-69" transform="translate(559.277344 -16.390625)scale(0.7)"/>
      <use xlink:href="#DejaVuSans-Oblique-6e" transform="translate(578.725586 -16.390625)scale(0.7)"/>
      <use xlink:href="#DejaVuSans-29" transform="translate(625.825195 0.015625)"/>
     </g>
    </g>
   </g>
  </g>
 </g>
 <defs>
  <clipPath id="pd030afa83b">
   <rect x="48.982813" y="7.2" width="669.6" height="434.88"/>
  </clipPath>
 </defs>
</svg>