<?xml version="1.0" encoding="utf-8" standalone="no"?>
<!DOCTYPE svg PUBLIC "-//W3C//DTD SVG 1.1//EN"
  "http://www.w3.org/Graphics/SVG/1.1/DTD/svg11.dtd">
<svg xmlns:xlink="http://www.w3.org/1999/xlink" width="296.401471pt" height="260.06pt" viewBox="0 0 296.401471 260.06" xmlns="http://www.w3.org/2000/svg" version="1.1">
 <metadata>
  <rdf:RDF xmlns:dc="http://purl.org/dc/elements/1.1/" xmlns:cc="http://creativecommons.org/ns#" xmlns:rdf="http://www.w3.org/1999/02/22-rdf-syntax-ns#">
   <cc:Work>
    <dc:type rdf:resource="http://purl.org/dc/dcmitype/StillImage"/>
    <dc:date>2025-10-11T22:02:44.432194</dc:date>
    <dc:format>image/svg+xml</dc:format>
    <dc:creator>
     <cc:Agent>
      <dc:title>Matplotlib v3.10.6, https://matplotlib.org/</dc:title>
     </cc:Agent>
    </dc:creator>
   </cc:Work>
  </rdf:RDF>
 </metadata>
 <defs>
  <style type="text/css">*{stroke-linejoin: round; stroke-linecap: butt}</style>
 </defs>
 <g id="figure_1">
  <g id="patch_1">
   <path d="M 0 260.06 
L 296.401471 260.06 
L 296.401471 0 
L 0 0 
z
" style="fill: #ffffff"/>
  </g>
  <g id="axes_1">
   <g id="line2d_1">
    <path d="M 29.671471 36.68 
L 29.671471 22.28 
" clip-path="url(#pd089afa4e2)" style="fill: none; stroke: #000000; stroke-width: 2; stroke-linecap: round"/>
   </g>
   <g id="line2d_2">
    <path d="M 29.671471 22.28 
L 22.921471 22.28 
" clip-path="url(#pd089afa4e2)" style="fill: none; stroke: #000000; stroke-width: 2; stroke-linecap: round"/>
   </g>
   <g id="line2d_3">
    <path d="M 29.671471 22.28 
L 36.421471 22.28 
" clip-path="url(#pd089afa4e2)" style="fill: none; stroke: #000000; stroke-width: 2; stroke-linecap: round"/>
   </g>
   <g id="line2d_4">
    <path d="M 29.671471 36.68 
L 29.671471 72.68 
L 32.635657 72.81407 
L 35.626577 73.22176 
L 38.393387 73.894001 
L 40.704039 74.799538 
L 41.625779 75.324567 
L 42.364742 75.887547 
L 42.905352 76.479767 
L 43.236214 77.091902 
L 43.350355 77.714207 
L 43.245368 78.33672 
L 42.923467 78.949478 
L 42.391435 79.542723 
L 41.660489 80.107106 
L 40.746034 80.633888 
L 38.447162 81.543825 
L 35.687621 82.221342 
L 32.69885 82.63474 
L 29.731513 82.774472 
L 27.034476 82.653942 
L 24.833935 82.308382 
L 23.314447 81.791898 
L 22.852482 81.490537 
L 22.603447 81.172928 
L 22.572592 80.848923 
L 22.760567 80.528509 
L 23.16341 80.221597 
L 24.575385 79.686292 
L 26.690096 79.313029 
L 29.330186 79.158236 
L 32.274235 79.260019 
L 35.275329 79.634963 
L 38.081771 80.276748 
L 40.45819 81.156671 
L 41.420964 81.671402 
L 42.205279 82.226057 
L 42.794602 82.812102 
L 43.176511 83.420342 
L 43.342958 84.041113 
L 43.290433 84.664487 
L 43.020043 85.280482 
L 42.537488 85.879271 
L 41.852939 86.45139 
L 40.980825 86.987935 
L 38.751 87.922621 
L 36.035024 88.63006 
L 33.060682 89.076046 
L 30.077427 89.248297 
L 27.335461 89.15749 
L 25.064748 88.836365 
L 23.455729 88.336977 
L 22.944039 88.040936 
L 22.64335 87.726332 
L 22.56 87.402952 
L 22.695745 87.080768 
L 23.047724 86.769731 
L 23.608519 86.479551 
L 25.305118 85.998228 
L 27.643252 85.702289 
L 30.426826 85.641678 
L 33.422384 85.846602 
L 36.378694 86.324998 
L 39.047816 87.061866 
L 41.205893 88.020531 
L 42.034609 88.566371 
L 42.671931 89.145713 
L 43.104425 89.749502 
L 43.322976 90.368169 
L 43.322976 90.991831 
L 43.104425 91.610498 
L 42.671931 92.214287 
L 42.034609 92.793629 
L 41.205893 93.339469 
L 40.20325 93.84346 
L 37.763943 94.697065 
L 34.921268 95.307979 
L 31.913636 95.650087 
L 28.993292 95.719821 
L 26.405162 95.536457 
L 24.366307 95.140496 
L 23.047724 94.590269 
L 22.695745 94.279232 
L 22.56 93.957048 
L 22.64335 93.633668 
L 22.944039 93.319064 
L 23.455729 93.023023 
L 25.064748 92.523635 
L 27.335461 92.20251 
L 30.077427 92.111703 
L 33.060682 92.283954 
L 36.035024 92.72994 
L 38.751 93.437379 
L 40.980825 94.372065 
L 41.852939 94.90861 
L 42.537488 95.480729 
L 43.020043 96.079518 
L 43.290433 96.695513 
L 43.342958 97.318887 
L 43.176511 97.939658 
L 42.794602 98.547898 
L 42.205279 99.133943 
L 41.420964 99.688598 
L 40.45819 100.203329 
L 38.081771 101.083252 
L 35.275329 101.725037 
L 32.274235 102.099981 
L 29.330186 102.201764 
L 26.690096 102.046971 
L 24.575385 101.673708 
L 23.16341 101.138403 
L 22.760567 100.831491 
L 22.572592 100.511077 
L 22.603447 100.187072 
L 22.852482 99.869463 
L 23.314447 99.568102 
L 24.833935 99.051618 
L 27.034476 98.706058 
L 29.731513 98.585528 
L 32.69885 98.72526 
L 35.687621 99.138658 
L 38.447162 99.816175 
L 40.746034 100.726112 
L 41.660489 101.252894 
L 42.391435 101.817277 
L 42.923467 102.410522 
L 43.245368 103.02328 
L 43.350355 103.645793 
L 43.236214 104.268098 
L 42.905352 104.880233 
L 42.364742 105.472453 
L 41.625779 106.035433 
L 40.704039 106.560462 
L 38.393387 107.465999 
L 35.626577 108.13824 
L 32.635657 108.54593 
L 29.671471 108.68 
L 29.671471 144.68 
L 29.671471 144.68 
" clip-path="url(#pd089afa4e2)" style="fill: none; stroke: #000000; stroke-width: 2; stroke-linecap: round"/>
   </g>
   <g id="line2d_5">
    <path d="M 29.671471 144.68 
L 80.431471 144.68 
M 80.431471 135.68 
L 80.431471 153.68 
M 86.911471 135.68 
L 86.911471 153.68 
M 86.911471 144.68 
L 137.671471 144.68 
" clip-path="url(#pd089afa4e2)" style="fill: none; stroke: #000000; stroke-width: 2; stroke-linecap: round"/>
   </g>
   <g id="line2d_6">
    <path d="M 137.671471 144.68 
L 173.671471 144.68 
L 173.80554 141.715813 
L 174.21323 138.724893 
L 174.885472 135.958083 
L 175.791008 133.647432 
L 176.316038 132.725692 
L 176.879017 131.986729 
L 177.471238 131.446119 
L 178.083373 131.115256 
L 178.705677 131.001116 
L 179.328191 131.106102 
L 179.940949 131.428004 
L 180.534193 131.960035 
L 181.098576 132.690982 
L 181.625358 133.605436 
L 182.535295 135.904309 
L 183.212813 138.66385 
L 183.626211 141.65262 
L 183.765943 144.619957 
L 183.645413 147.316994 
L 183.299853 149.517535 
L 182.783368 151.037024 
L 182.482007 151.498989 
L 182.164399 151.748023 
L 181.840394 151.778878 
L 181.51998 151.590903 
L 181.213067 151.18806 
L 180.677763 149.776085 
L 180.3045 147.661374 
L 180.149707 145.021284 
L 180.251489 142.077236 
L 180.626434 139.076142 
L 181.268219 136.2697 
L 182.148141 133.893281 
L 182.662872 132.930506 
L 183.217527 132.146192 
L 183.803573 131.556869 
L 184.411813 131.174959 
L 185.032584 131.008513 
L 185.655958 131.061038 
L 186.271953 131.331428 
L 186.870742 131.813983 
L 187.44286 132.498532 
L 187.979406 133.370645 
L 188.914091 135.600471 
L 189.621531 138.316447 
L 190.067517 141.290789 
L 190.239767 144.274044 
L 190.148961 147.01601 
L 189.827835 149.286723 
L 189.328447 150.895742 
L 189.032407 151.407431 
L 188.717803 151.70812 
L 188.394422 151.791471 
L 188.072239 151.655725 
L 187.761201 151.303746 
L 187.471022 150.742952 
L 186.989698 149.046352 
L 186.69376 146.708218 
L 186.633149 143.924645 
L 186.838073 140.929087 
L 187.316468 137.972776 
L 188.053337 135.303655 
L 189.012001 133.145578 
L 189.557841 132.316862 
L 190.137183 131.67954 
L 190.740973 131.247045 
L 191.35964 131.028495 
L 191.983301 131.028495 
L 192.601968 131.247045 
L 193.205758 131.67954 
L 193.7851 132.316862 
L 194.33094 133.145578 
L 194.83493 134.14822 
L 195.688536 136.587527 
L 196.299449 139.430202 
L 196.641557 142.437835 
L 196.711292 145.358178 
L 196.527927 147.946309 
L 196.131966 149.985163 
L 195.58174 151.303746 
L 195.270702 151.655725 
L 194.948519 151.791471 
L 194.625139 151.70812 
L 194.310534 151.407431 
L 194.014494 150.895742 
L 193.515106 149.286723 
L 193.19398 147.01601 
L 193.103174 144.274044 
L 193.275424 141.290789 
L 193.72141 138.316447 
L 194.42885 135.600471 
L 195.363535 133.370645 
L 195.900081 132.498532 
L 196.472199 131.813983 
L 197.070988 131.331428 
L 197.686983 131.061038 
L 198.310357 131.008513 
L 198.931128 131.174959 
L 199.539368 131.556869 
L 200.125414 132.146192 
L 200.680069 132.930506 
L 201.1948 133.893281 
L 202.074722 136.2697 
L 202.716507 139.076142 
L 203.091452 142.077236 
L 203.193234 145.021284 
L 203.038441 147.661374 
L 202.665178 149.776085 
L 202.129874 151.18806 
L 201.822961 151.590903 
L 201.502547 151.778878 
L 201.178543 151.748023 
L 200.860934 151.498989 
L 200.559573 151.037024 
L 200.043088 149.517535 
L 199.697528 147.316994 
L 199.576998 144.619957 
L 199.71673 141.65262 
L 200.130129 138.66385 
L 200.807646 135.904309 
L 201.717583 133.605436 
L 202.244365 132.690982 
L 202.808748 131.960035 
L 203.401992 131.428004 
L 204.01475 131.106102 
L 204.637264 131.001116 
L 205.259568 131.115256 
L 205.871703 131.446119 
L 206.463924 131.986729 
L 207.026903 132.725692 
L 207.551933 133.647432 
L 208.457469 135.958083 
L 209.129711 138.724893 
L 209.537401 141.715813 
L 209.671471 144.68 
L 245.671471 144.68 
L 245.671471 144.68 
" clip-path="url(#pd089afa4e2)" style="fill: none; stroke: #000000; stroke-width: 2; stroke-linecap: round"/>
   </g>
   <g id="line2d_7">
    <path d="M 245.671471 144.68 
L 245.671471 180.68 
L 254.671471 183.68 
L 236.671471 189.68 
L 254.671471 195.68 
L 236.671471 201.68 
L 254.671471 207.68 
L 236.671471 213.68 
L 245.671471 216.68 
L 245.671471 252.68 
" clip-path="url(#pd089afa4e2)" style="fill: none; stroke: #000000; stroke-width: 2; stroke-linecap: round"/>
   </g>
   <g id="line2d_8">
    <path d="M 245.671471 144.68 
L 254.671471 144.68 
L 263.671471 144.68 
" clip-path="url(#pd089afa4e2)" style="fill: none; stroke: #000000; stroke-width: 2; stroke-linecap: round"/>
   </g>
   <g id="line2d_9">
    <path d="M 245.671471 252.68 
L 254.671471 252.68 
L 263.671471 252.68 
" clip-path="url(#pd089afa4e2)" style="fill: none; stroke: #000000; stroke-width: 2; stroke-linecap: round"/>
   </g>
   <g id="line2d_10">
    <path d="M 245.671471 252.68 
L 137.671471 252.68 
L 29.671471 252.68 
" clip-path="url(#pd089afa4e2)" style="fill: none; stroke: #000000; stroke-width: 2; stroke-linecap: round"/>
   </g>
   <g id="text_1">
    <!-- Vdd -->
    <g transform="translate(15.995221 15.768438) scale(0.14 -0.14)">
     <defs>
      <path id="DejaVuSans-56" d="M 1831 0 
L 50 4666 
L 709 4666 
L 2188 738 
L 3669 4666 
L 4325 4666 
L 2547 0 
L 1831 0 
z
" transform="scale(0.015625)"/>
      <path id="DejaVuSans-64" d="M 2906 2969 
L 2906 4863 
L 3481 4863 
L 3481 0 
L 2906 0 
L 2906 525 
Q 2725 213 2448 61 
Q 2172 -91 1784 -91 
Q 1150 -91 751 415 
Q 353 922 353 1747 
Q 353 2572 751 3078 
Q 1150 3584 1784 3584 
Q 2172 3584 2448 3432 
Q 2725 3281 2906 2969 
z
M 947 1747 
Q 947 1113 1208 752 
Q 1469 391 1925 391 
Q 2381 391 2643 752 
Q 2906 1113 2906 1747 
Q 2906 2381 2643 2742 
Q 2381 3103 1925 3103 
Q 1469 3103 1208 2742 
Q 947 2381 947 1747 
z
" transform="scale(0.015625)"/>
     </defs>
     <use xlink:href="#DejaVuSans-56"/>
     <use xlink:href="#DejaVuSans-64" transform="translate(68.408203 0)"/>
     <use xlink:href="#DejaVuSans-64" transform="translate(131.884766 0)"/>
    </g>
   </g>
   <g id="text_2">
    <!-- $L_1$ -->
    <g transform="translate(4.54 94.543125) scale(0.14 -0.14)">
     <defs>
      <path id="DejaVuSans-Oblique-4c" d="M 1075 4666 
L 1709 4666 
L 909 525 
L 3181 525 
L 3078 0 
L 172 0 
L 1075 4666 
z
" transform="scale(0.015625)"/>
      <path id="DejaVuSans-31" d="M 794 531 
L 1825 531 
L 1825 4091 
L 703 3866 
L 703 4441 
L 1819 4666 
L 2450 4666 
L 2450 531 
L 3481 531 
L 3481 0 
L 794 0 
L 794 531 
z
" transform="scale(0.015625)"/>
     </defs>
     <use xlink:href="#DejaVuSans-Oblique-4c" transform="translate(0 0.09375)"/>
     <use xlink:href="#DejaVuSans-31" transform="translate(55.712891 -16.3125) scale(0.7)"/>
    </g>
   </g>
   <g id="text_3">
    <!-- $C_2$ -->
    <g transform="translate(75.411471 129.168438) scale(0.14 -0.14)">
     <defs>
      <path id="DejaVuSans-Oblique-43" d="M 4447 4306 
L 4319 3641 
Q 4019 3944 3683 4091 
Q 3347 4238 2956 4238 
Q 2422 4238 2017 3981 
Q 1613 3725 1319 3200 
Q 1131 2863 1032 2486 
Q 934 2109 934 1728 
Q 934 1091 1264 756 
Q 1594 422 2222 422 
Q 2656 422 3056 561 
Q 3456 700 3834 978 
L 3688 231 
Q 3316 72 2936 -9 
Q 2556 -91 2175 -91 
Q 1278 -91 773 396 
Q 269 884 269 1753 
Q 269 2309 461 2846 
Q 653 3384 1013 3828 
Q 1394 4300 1883 4525 
Q 2372 4750 3022 4750 
Q 3422 4750 3780 4639 
Q 4138 4528 4447 4306 
z
" transform="scale(0.015625)"/>
      <path id="DejaVuSans-32" d="M 1228 531 
L 3431 531 
L 3431 0 
L 469 0 
L 469 531 
Q 828 903 1448 1529 
Q 2069 2156 2228 2338 
Q 2531 2678 2651 2914 
Q 2772 3150 2772 3378 
Q 2772 3750 2511 3984 
Q 2250 4219 1831 4219 
Q 1534 4219 1204 4116 
Q 875 4013 500 3803 
L 500 4441 
Q 881 4594 1212 4672 
Q 1544 4750 1819 4750 
Q 2544 4750 2975 4387 
Q 3406 4025 3406 3419 
Q 3406 3131 3298 2873 
Q 3191 2616 2906 2266 
Q 2828 2175 2409 1742 
Q 1991 1309 1228 531 
z
" transform="scale(0.015625)"/>
     </defs>
     <use xlink:href="#DejaVuSans-Oblique-43" transform="translate(0 0.78125)"/>
     <use xlink:href="#DejaVuSans-32" transform="translate(69.824219 -15.625) scale(0.7)"/>
    </g>
   </g>
   <g id="text_4">
    <!-- $L_2$ -->
    <g transform="translate(184.461471 124.489553) scale(0.14 -0.14)">
     <use xlink:href="#DejaVuSans-Oblique-4c" transform="translate(0 0.09375)"/>
     <use xlink:href="#DejaVuSans-32" transform="translate(55.712891 -16.3125) scale(0.7)"/>
    </g>
   </g>
   <g id="text_5">
    <!-- $R_L$ -->
    <g transform="translate(217.391471 202.543125) scale(0.14 -0.14)">
     <defs>
      <path id="DejaVuSans-Oblique-52" d="M 1613 4147 
L 1294 2491 
L 2106 2491 
Q 2584 2491 2879 2755 
Q 3175 3019 3175 3444 
Q 3175 3784 2976 3965 
Q 2778 4147 2406 4147 
L 1613 4147 
z
M 2772 2241 
Q 2972 2194 3105 2009 
Q 3238 1825 3413 1275 
L 3809 0 
L 3144 0 
L 2778 1197 
Q 2638 1659 2453 1815 
Q 2269 1972 1888 1972 
L 1191 1972 
L 806 0 
L 172 0 
L 1081 4666 
L 2503 4666 
Q 3150 4666 3495 4373 
Q 3841 4081 3841 3531 
Q 3841 3044 3547 2687 
Q 3253 2331 2772 2241 
z
" transform="scale(0.015625)"/>
     </defs>
     <use xlink:href="#DejaVuSans-Oblique-52" transform="translate(0 0.09375)"/>
     <use xlink:href="#DejaVuSans-Oblique-4c" transform="translate(69.482422 -16.3125) scale(0.7)"/>
    </g>
   </g>
   <g id="text_6">
    <!-- + -->
    <g transform="translate(272.205689 189.943125) scale(0.14 -0.14)">
     <defs>
      <path id="DejaVuSans-2b" d="M 2944 4013 
L 2944 2272 
L 4684 2272 
L 4684 1741 
L 2944 1741 
L 2944 0 
L 2419 0 
L 2419 1741 
L 678 1741 
L 678 2272 
L 2419 2272 
L 2419 4013 
L 2944 4013 
z
" transform="scale(0.015625)"/>
     </defs>
     <use xlink:href="#DejaVuSans-2b"/>
    </g>
   </g>
   <g id="text_7">
    <!-- vout -->
    <g transform="translate(262.464752 216.943125) scale(0.14 -0.14)">
     <defs>
      <path id="DejaVuSans-76" d="M 191 3500 
L 800 3500 
L 1894 563 
L 2988 3500 
L 3597 3500 
L 2284 0 
L 1503 0 
L 191 3500 
z
" transform="scale(0.015625)"/>
      <path id="DejaVuSans-6f" d="M 1959 3097 
Q 1497 3097 1228 2736 
Q 959 2375 959 1747 
Q 959 1119 1226 758 
Q 1494 397 1959 397 
Q 2419 397 2687 759 
Q 2956 1122 2956 1747 
Q 2956 2369 2687 2733 
Q 2419 3097 1959 3097 
z
M 1959 3584 
Q 2709 3584 3137 3096 
Q 3566 2609 3566 1747 
Q 3566 888 3137 398 
Q 2709 -91 1959 -91 
Q 1206 -91 779 398 
Q 353 888 353 1747 
Q 353 2609 779 3096 
Q 1206 3584 1959 3584 
z
" transform="scale(0.015625)"/>
      <path id="DejaVuSans-75" d="M 544 1381 
L 544 3500 
L 1119 3500 
L 1119 1403 
Q 1119 906 1312 657 
Q 1506 409 1894 409 
Q 2359 409 2629 706 
Q 2900 1003 2900 1516 
L 2900 3500 
L 3475 3500 
L 3475 0 
L 2900 0 
L 2900 538 
Q 2691 219 2414 64 
Q 2138 -91 1772 -91 
Q 1169 -91 856 284 
Q 544 659 544 1381 
z
M 1991 3584 
L 1991 3584 
z
" transform="scale(0.015625)"/>
      <path id="DejaVuSans-74" d="M 1172 4494 
L 1172 3500 
L 2356 3500 
L 2356 3053 
L 1172 3053 
L 1172 1153 
Q 1172 725 1289 603 
Q 1406 481 1766 481 
L 2356 481 
L 2356 0 
L 1766 0 
Q 1100 0 847 248 
Q 594 497 594 1153 
L 594 3053 
L 172 3053 
L 172 3500 
L 594 3500 
L 594 4494 
L 1172 4494 
z
" transform="scale(0.015625)"/>
     </defs>
     <use xlink:href="#DejaVuSans-76"/>
     <use xlink:href="#DejaVuSans-6f" transform="translate(59.179688 0)"/>
     <use xlink:href="#DejaVuSans-75" transform="translate(120.361328 0)"/>
     <use xlink:href="#DejaVuSans-74" transform="translate(183.740234 0)"/>
    </g>
   </g>
   <g id="text_8">
    <!-- − -->
    <g transform="translate(272.205689 243.943125) scale(0.14 -0.14)">
     <defs>
      <path id="DejaVuSans-2212" d="M 678 2272 
L 4684 2272 
L 4684 1741 
L 678 1741 
L 678 2272 
z
" transform="scale(0.015625)"/>
     </defs>
     <use xlink:href="#DejaVuSans-2212"/>
    </g>
   </g>
   <g id="patch_2">
    <path d="M 29.671471 147.38 
C 30.387519 147.38 31.074336 147.095511 31.580659 146.589188 
C 32.086981 146.082866 32.371471 145.396048 32.371471 144.68 
C 32.371471 143.963952 32.086981 143.277134 31.580659 142.770812 
C 31.074336 142.264489 30.387519 141.98 29.671471 141.98 
C 28.955422 141.98 28.268605 142.264489 27.762282 142.770812 
C 27.25596 143.277134 26.971471 143.963952 26.971471 144.68 
C 26.971471 145.396048 27.25596 146.082866 27.762282 146.589188 
C 28.268605 147.095511 28.955422 147.38 29.671471 147.38 
z
" clip-path="url(#pd089afa4e2)" style="fill: #ff0000; stroke: #ff0000; stroke-width: 2; stroke-linejoin: miter"/>
   </g>
   <g id="patch_3">
    <path d="M 263.671471 147.38 
C 264.387519 147.38 265.074336 147.095511 265.580659 146.589188 
C 266.086981 146.082866 266.371471 145.396048 266.371471 144.68 
C 266.371471 143.963952 266.086981 143.277134 265.580659 142.770812 
C 265.074336 142.264489 264.387519 141.98 263.671471 141.98 
C 262.955422 141.98 262.268605 142.264489 261.762282 142.770812 
C 261.25596 143.277134 260.971471 143.963952 260.971471 144.68 
C 260.971471 145.396048 261.25596 146.082866 261.762282 146.589188 
C 262.268605 147.095511 262.955422 147.38 263.671471 147.38 
z
" clip-path="url(#pd089afa4e2)" style="fill: #ffffff; stroke: #000000; stroke-width: 2; stroke-linejoin: miter"/>
   </g>
   <g id="patch_4">
    <path d="M 263.671471 255.38 
C 264.387519 255.38 265.074336 255.095511 265.580659 254.589188 
C 266.086981 254.082866 266.371471 253.396048 266.371471 252.68 
C 266.371471 251.963952 266.086981 251.277134 265.580659 250.770812 
C 265.074336 250.264489 264.387519 249.98 263.671471 249.98 
C 262.955422 249.98 262.268605 250.264489 261.762282 250.770812 
C 261.25596 251.277134 260.971471 251.963952 260.971471 252.68 
C 260.971471 253.396048 261.25596 254.082866 261.762282 254.589188 
C 262.268605 255.095511 262.955422 255.38 263.671471 255.38 
z
" clip-path="url(#pd089afa4e2)" style="fill: #ffffff; stroke: #000000; stroke-width: 2; stroke-linejoin: miter"/>
   </g>
   <g id="patch_5">
    <path d="M 29.671471 255.38 
C 30.387519 255.38 31.074336 255.095511 31.580659 254.589188 
C 32.086981 254.082866 32.371471 253.396048 32.371471 252.68 
C 32.371471 251.963952 32.086981 251.277134 31.580659 250.770812 
C 31.074336 250.264489 30.387519 249.98 29.671471 249.98 
C 28.955422 249.98 28.268605 250.264489 27.762282 250.770812 
C 27.25596 251.277134 26.971471 251.963952 26.971471 252.68 
C 26.971471 253.396048 27.25596 254.082866 27.762282 254.589188 
C 28.268605 255.095511 28.955422 255.38 29.671471 255.38 
z
" clip-path="url(#pd089afa4e2)" style="stroke: #000000; stroke-width: 2; stroke-linejoin: miter"/>
   </g>
  </g>
 </g>
 <defs>
  <clipPath id="pd089afa4e2">
   <rect x="0" y="0" width="296.401471" height="260.06"/>
  </clipPath>
 </defs>
</svg>