<?xml version="1.0" encoding="utf-8" standalone="no"?>
<!DOCTYPE svg PUBLIC "-//W3C//DTD SVG 1.1//EN"
  "http://www.w3.org/Graphics/SVG/1.1/DTD/svg11.dtd">
<svg xmlns:xlink="http://www.w3.org/1999/xlink" width="364.932pt" height="332.48pt" viewBox="0 0 364.932 332.48" xmlns="http://www.w3.org/2000/svg" version="1.1">
 <metadata>
  <rdf:RDF xmlns:dc="http://purl.org/dc/elements/1.1/" xmlns:cc="http://creativecommons.org/ns#" xmlns:rdf="http://www.w3.org/1999/02/22-rdf-syntax-ns#">
   <cc:Work>
    <dc:type rdf:resource="http://purl.org/dc/dcmitype/StillImage"/>
    <dc:date>2025-10-05T17:30:05.537442</dc:date>
    <dc:format>image/svg+xml</dc:format>
    <dc:creator>
     <cc:Agent>
      <dc:title>Matplotlib v3.10.6, https://matplotlib.org/</dc:title>
     </cc:Agent>
    </dc:creator>
   </cc:Work>
  </rdf:RDF>
 </metadata>
 <defs>
  <style type="text/css">*{stroke-linejoin: round; stroke-linecap: butt}</style>
 </defs>
 <g id="figure_1">
  <g id="patch_1">
   <path d="M 0 332.48 
L 364.932 332.48 
L 364.932 0 
L 0 0 
z
" style="fill: #ffffff"/>
  </g>
  <g id="axes_1">
   <g id="patch_2">
    <path d="M 44.484 264.26 
C 48.064242 264.26 51.498328 262.837555 54.029942 260.305942 
C 56.561555 257.774328 57.984 254.340242 57.984 250.76 
C 57.984 247.179758 56.561555 243.745672 54.029942 241.214058 
C 51.498328 238.682445 48.064242 237.26 44.484 237.26 
C 40.903758 237.26 37.469672 238.682445 34.938058 241.214058 
C 32.406445 243.745672 30.984 247.179758 30.984 250.76 
C 30.984 254.340242 32.406445 257.774328 34.938058 260.305942 
C 37.469672 262.837555 40.903758 264.26 44.484 264.26 
L 44.484 264.26 
z
" clip-path="url(#p187a2f7e26)" style="fill: none; stroke: #000000; stroke-width: 2; stroke-linejoin: miter"/>
   </g>
   <g id="patch_3">
    <path d="M 224.544 72.68 
C 226.452826 72.68 228.285425 71.920913 229.635169 70.571169 
C 230.984913 69.221425 231.744 67.388826 231.744 65.48 
C 231.744 63.571174 230.984913 61.738575 229.635169 60.388831 
C 228.285425 59.039087 226.452826 58.28 224.544 58.28 
" clip-path="url(#p187a2f7e26)" style="fill: none; stroke: #000000; stroke-width: 2; stroke-linejoin: miter"/>
   </g>
   <g id="patch_4">
    <path d="M 224.544 87.08 
C 226.452826 87.08 228.285425 86.320913 229.635169 84.971169 
C 230.984913 83.621425 231.744 81.788826 231.744 79.88 
C 231.744 77.971174 230.984913 76.138575 229.635169 74.788831 
C 228.285425 73.439087 226.452826 72.68 224.544 72.68 
" clip-path="url(#p187a2f7e26)" style="fill: none; stroke: #000000; stroke-width: 2; stroke-linejoin: miter"/>
   </g>
   <g id="patch_5">
    <path d="M 224.544 101.48 
C 226.452826 101.48 228.285425 100.720913 229.635169 99.371169 
C 230.984913 98.021425 231.744 96.188826 231.744 94.28 
C 231.744 92.371174 230.984913 90.538575 229.635169 89.188831 
C 228.285425 87.839087 226.452826 87.08 224.544 87.08 
" clip-path="url(#p187a2f7e26)" style="fill: none; stroke: #000000; stroke-width: 2; stroke-linejoin: miter"/>
   </g>
   <g id="patch_6">
    <path d="M 224.544 115.88 
C 226.452826 115.88 228.285425 115.120913 229.635169 113.771169 
C 230.984913 112.421425 231.744 110.588826 231.744 108.68 
C 231.744 106.771174 230.984913 104.938575 229.635169 103.588831 
C 228.285425 102.239087 226.452826 101.48 224.544 101.48 
" clip-path="url(#p187a2f7e26)" style="fill: none; stroke: #000000; stroke-width: 2; stroke-linejoin: miter"/>
   </g>
   <g id="patch_7">
    <path d="M 224.544 130.28 
C 226.452826 130.28 228.285425 129.520913 229.635169 128.171169 
C 230.984913 126.821425 231.744 124.988826 231.744 123.08 
C 231.744 121.171174 230.984913 119.338575 229.635169 117.988831 
C 228.285425 116.639087 226.452826 115.88 224.544 115.88 
" clip-path="url(#p187a2f7e26)" style="fill: none; stroke: #000000; stroke-width: 2; stroke-linejoin: miter"/>
   </g>
   <g id="patch_8">
    <path d="M 224.544 144.68 
C 226.452826 144.68 228.285425 143.920913 229.635169 142.571169 
C 230.984913 141.221425 231.744 139.388826 231.744 137.48 
C 231.744 135.571174 230.984913 133.738575 229.635169 132.388831 
C 228.285425 131.039087 226.452826 130.28 224.544 130.28 
" clip-path="url(#p187a2f7e26)" style="fill: none; stroke: #000000; stroke-width: 2; stroke-linejoin: miter"/>
   </g>
   <g id="patch_9">
    <path d="M 260.544 72.68 
C 258.635174 72.68 256.802575 73.439087 255.452831 74.788831 
C 254.103087 76.138575 253.344 77.971174 253.344 79.88 
C 253.344 81.788826 254.103087 83.621425 255.452831 84.971169 
C 256.802575 86.320913 258.635174 87.08 260.544 87.08 
" clip-path="url(#p187a2f7e26)" style="fill: none; stroke: #000000; stroke-width: 2; stroke-linejoin: miter"/>
   </g>
   <g id="patch_10">
    <path d="M 260.544 87.08 
C 258.635174 87.08 256.802575 87.839087 255.452831 89.188831 
C 254.103087 90.538575 253.344 92.371174 253.344 94.28 
C 253.344 96.188826 254.103087 98.021425 255.452831 99.371169 
C 256.802575 100.720913 258.635174 101.48 260.544 101.48 
" clip-path="url(#p187a2f7e26)" style="fill: none; stroke: #000000; stroke-width: 2; stroke-linejoin: miter"/>
   </g>
   <g id="patch_11">
    <path d="M 260.544 101.48 
C 258.635174 101.48 256.802575 102.239087 255.452831 103.588831 
C 254.103087 104.938575 253.344 106.771174 253.344 108.68 
C 253.344 110.588826 254.103087 112.421425 255.452831 113.771169 
C 256.802575 115.120913 258.635174 115.88 260.544 115.88 
" clip-path="url(#p187a2f7e26)" style="fill: none; stroke: #000000; stroke-width: 2; stroke-linejoin: miter"/>
   </g>
   <g id="patch_12">
    <path d="M 260.544 115.88 
C 258.635174 115.88 256.802575 116.639087 255.452831 117.988831 
C 254.103087 119.338575 253.344 121.171174 253.344 123.08 
C 253.344 124.988826 254.103087 126.821425 255.452831 128.171169 
C 256.802575 129.520913 258.635174 130.28 260.544 130.28 
" clip-path="url(#p187a2f7e26)" style="fill: none; stroke: #000000; stroke-width: 2; stroke-linejoin: miter"/>
   </g>
   <g id="line2d_1">
    <path d="M 152.484 196.76 
L 165.684 196.76 
" clip-path="url(#p187a2f7e26)" style="fill: none; stroke: #000000; stroke-width: 2; stroke-linecap: round"/>
   </g>
   <g id="line2d_2">
    <path d="M 165.684 183.56 
L 165.684 209.96 
" clip-path="url(#p187a2f7e26)" style="fill: none; stroke: #000000; stroke-width: 2; stroke-linecap: round"/>
   </g>
   <g id="line2d_3">
    <path d="M 165.684 190.16 
L 179.544 178.28 
L 179.544 171.68 
" clip-path="url(#p187a2f7e26)" style="fill: none; stroke: #000000; stroke-width: 2; stroke-linecap: round"/>
   </g>
   <g id="line2d_4">
    <path d="M 165.684 203.36 
L 179.544 215.24 
L 179.544 221.84 
" clip-path="url(#p187a2f7e26)" style="fill: none; stroke: #000000; stroke-width: 2; stroke-linecap: round"/>
   </g>
   <g id="line2d_5">
    <path d="M 165.684 203.36 
L 172.710691 209.382878 
" clip-path="url(#p187a2f7e26)" style="fill: none; stroke: #000000; stroke-width: 2; stroke-linecap: round"/>
   </g>
   <g id="patch_13">
    <path d="M 175.05354 206.649554 
L 179.544 215.24 
L 170.367842 212.116201 
z
" clip-path="url(#p187a2f7e26)"/>
   </g>
   <g id="line2d_6">
    <path d="M 152.484 196.76 
L 101.724 196.76 
M 101.724 205.76 
L 101.724 187.76 
M 95.244 205.76 
L 95.244 187.76 
M 95.244 196.76 
L 44.484 196.76 
" clip-path="url(#p187a2f7e26)" style="fill: none; stroke: #000000; stroke-width: 2; stroke-linecap: round"/>
   </g>
   <g id="line2d_7">
    <path d="M 152.484 196.76 
L 152.484 237.26 
L 154.70714 237.360552 
L 156.95033 237.66632 
L 159.025438 238.170501 
L 160.758426 238.849653 
L 162.003953 239.66566 
L 162.409411 240.109825 
L 162.657558 240.568927 
L 162.743163 241.035655 
L 162.664423 241.50254 
L 162.422997 241.962109 
L 162.023974 242.407042 
L 160.789923 243.225416 
L 159.065768 243.907869 
L 156.996113 244.416006 
L 154.754535 244.726055 
L 152.529032 244.830854 
L 150.506254 244.740457 
L 148.855849 244.481287 
L 147.716232 244.093923 
L 147.182982 243.629696 
L 147.159841 243.386693 
L 147.300823 243.146382 
L 148.05987 242.703358 
L 149.396463 242.356624 
L 151.198506 242.1541 
L 153.314862 242.131617 
L 155.568037 242.3099 
L 157.76906 242.692842 
L 159.733334 243.267167 
L 161.29612 244.003551 
L 162.326348 244.859077 
L 162.612781 245.315257 
L 162.737616 245.780835 
L 162.698222 246.248366 
L 162.495429 246.710362 
L 162.133513 247.159453 
L 160.966016 247.990951 
L 159.293647 248.691965 
L 157.256665 249.222545 
L 155.025908 249.557035 
L 152.788467 249.686223 
L 150.731993 249.618118 
L 149.028958 249.377274 
L 147.822194 249.002732 
L 147.21291 248.544749 
L 147.150397 248.302214 
L 147.252206 248.060576 
L 147.51619 247.827298 
L 148.505128 247.414628 
L 150.034269 247.117657 
L 151.975366 246.980134 
L 154.165624 247.032435 
L 156.421348 247.289016 
L 158.553354 247.747201 
L 160.382835 248.387405 
L 161.756354 249.174778 
L 162.234345 249.609285 
L 162.558716 250.062127 
L 162.722629 250.526127 
L 162.722629 250.993873 
L 162.558716 251.457873 
L 162.234345 251.910715 
L 161.756354 252.345222 
L 160.382835 253.132595 
L 158.553354 253.772799 
L 156.421348 254.230984 
L 154.165624 254.487565 
L 151.975366 254.539866 
L 150.034269 254.402343 
L 148.505128 254.105372 
L 147.51619 253.692702 
L 147.252206 253.459424 
L 147.150397 253.217786 
L 147.21291 252.975251 
L 147.438427 252.739298 
L 148.356122 252.316209 
L 149.826518 252.002846 
L 151.726295 251.844333 
L 153.896121 251.872806 
L 156.154016 252.104722 
L 158.310614 252.53947 
L 160.185044 253.159433 
L 161.620101 253.931458 
L 162.133513 254.360547 
L 162.495429 254.809638 
L 162.698222 255.271634 
L 162.737616 255.739165 
L 162.612781 256.204743 
L 162.326348 256.660923 
L 161.884356 257.100457 
L 160.57404 257.902497 
L 158.791725 258.562439 
L 156.686894 259.043778 
L 154.436073 259.324986 
L 152.228037 259.401323 
L 150.247969 259.285228 
L 148.661936 259.005281 
L 147.602955 258.603803 
L 147.159841 258.133307 
L 147.182982 257.890304 
L 147.369758 257.652098 
L 148.215101 257.219374 
L 149.62497 256.890271 
L 151.481124 256.711232 
L 153.62789 256.716117 
L 155.88522 256.923357 
L 158.063797 257.334415 
L 159.980907 257.933658 
L 161.475764 258.689671 
L 162.422997 259.557891 
L 162.664423 260.01746 
L 162.743163 260.484345 
L 162.657558 260.951073 
L 162.409411 261.410175 
L 162.003953 261.85434 
L 160.758426 262.670347 
L 159.025438 263.349499 
L 156.95033 263.85368 
L 154.70714 264.159448 
L 152.484 264.26 
L 152.484 304.76 
L 152.484 304.76 
" clip-path="url(#p187a2f7e26)" style="fill: none; stroke: #000000; stroke-width: 2; stroke-linecap: round"/>
   </g>
   <g id="line2d_8">
    <path d="M 44.484 196.76 
L 44.484 237.26 
L 44.484 237.26 
M 44.484 264.26 
L 44.484 264.26 
L 44.484 304.76 
" clip-path="url(#p187a2f7e26)" style="fill: none; stroke: #000000; stroke-width: 2; stroke-linecap: round"/>
   </g>
   <g id="line2d_9">
    <path d="M 41.784 244.01 
L 47.184 244.01 
" clip-path="url(#p187a2f7e26)" style="fill: none; stroke: #000000; stroke-width: 2; stroke-linecap: round"/>
   </g>
   <g id="line2d_10">
    <path d="M 44.484 254.81 
L 44.484 260.21 
" clip-path="url(#p187a2f7e26)" style="fill: none; stroke: #000000; stroke-width: 2; stroke-linecap: round"/>
   </g>
   <g id="line2d_11">
    <path d="M 41.784 257.51 
L 47.184 257.51 
" clip-path="url(#p187a2f7e26)" style="fill: none; stroke: #000000; stroke-width: 2; stroke-linecap: round"/>
   </g>
   <g id="line2d_12">
    <path d="M 44.484 304.76 
L 112.014 304.76 
L 179.544 304.76 
" clip-path="url(#p187a2f7e26)" style="fill: none; stroke: #000000; stroke-width: 2; stroke-linecap: round"/>
   </g>
   <g id="line2d_13">
    <path d="M 179.544 304.76 
L 179.544 319.16 
L 170.544 319.16 
L 188.544 319.16 
M 173.244 323.48 
L 185.844 323.48 
M 177.744 327.8 
L 181.344 327.8 
" clip-path="url(#p187a2f7e26)" style="fill: none; stroke: #000000; stroke-width: 2; stroke-linecap: round"/>
   </g>
   <g id="line2d_14">
    <path d="M 179.544 304.76 
L 179.544 263.3 
L 179.544 221.84 
" clip-path="url(#p187a2f7e26)" style="fill: none; stroke: #000000; stroke-width: 2; stroke-linecap: round"/>
   </g>
   <g id="line2d_15">
    <path d="M 179.544 171.68 
L 179.544 158.18 
L 179.544 144.68 
" clip-path="url(#p187a2f7e26)" style="fill: none; stroke: #000000; stroke-width: 2; stroke-linecap: round"/>
   </g>
   <g id="line2d_16">
    <path d="M 179.544 144.68 
L 179.544 93.92 
M 170.544 93.92 
L 188.544 93.92 
M 170.544 87.44 
L 188.544 87.44 
M 179.544 87.44 
L 179.544 36.68 
" clip-path="url(#p187a2f7e26)" style="fill: none; stroke: #000000; stroke-width: 2; stroke-linecap: round"/>
   </g>
   <g id="line2d_17">
    <path d="M 179.544 144.68 
L 202.044 144.68 
L 224.544 144.68 
" clip-path="url(#p187a2f7e26)" style="fill: none; stroke: #000000; stroke-width: 2; stroke-linecap: round"/>
   </g>
   <g id="line2d_18">
    <path d="M 238.944 58.28 
L 238.944 144.68 
" clip-path="url(#p187a2f7e26)" style="fill: none; stroke: #000000; stroke-width: 2; stroke-linecap: round"/>
   </g>
   <g id="line2d_19">
    <path d="M 246.144 58.28 
L 246.144 144.68 
" clip-path="url(#p187a2f7e26)" style="fill: none; stroke: #000000; stroke-width: 2; stroke-linecap: round"/>
   </g>
   <g id="line2d_20">
    <path d="M 224.544 58.28 
L 202.044 58.28 
L 179.544 58.28 
" clip-path="url(#p187a2f7e26)" style="fill: none; stroke: #000000; stroke-width: 2; stroke-linecap: round"/>
   </g>
   <g id="line2d_21">
    <path d="M 260.544 72.68 
L 292.044 72.68 
L 323.544 72.68 
" clip-path="url(#p187a2f7e26)" style="fill: none; stroke: #000000; stroke-width: 2; stroke-linecap: round"/>
   </g>
   <g id="line2d_22">
    <path d="M 260.544 130.28 
L 274.044 130.28 
L 287.544 130.28 
" clip-path="url(#p187a2f7e26)" style="fill: none; stroke: #000000; stroke-width: 2; stroke-linecap: round"/>
   </g>
   <g id="line2d_23">
    <path d="M 287.544 130.28 
L 287.544 144.68 
L 278.544 144.68 
L 296.544 144.68 
M 281.244 149 
L 293.844 149 
M 285.744 153.32 
L 289.344 153.32 
" clip-path="url(#p187a2f7e26)" style="fill: none; stroke: #000000; stroke-width: 2; stroke-linecap: round"/>
   </g>
   <g id="line2d_24">
    <path d="M 179.544 36.68 
L 179.544 22.28 
" clip-path="url(#p187a2f7e26)" style="fill: none; stroke: #000000; stroke-width: 2; stroke-linecap: round"/>
   </g>
   <g id="line2d_25">
    <path d="M 179.544 22.28 
L 172.794 22.28 
" clip-path="url(#p187a2f7e26)" style="fill: none; stroke: #000000; stroke-width: 2; stroke-linecap: round"/>
   </g>
   <g id="line2d_26">
    <path d="M 179.544 22.28 
L 186.294 22.28 
" clip-path="url(#p187a2f7e26)" style="fill: none; stroke: #000000; stroke-width: 2; stroke-linecap: round"/>
   </g>
   <g id="text_1">
    <!-- $C_{in}$ -->
    <g transform="translate(88.894 181.248437) scale(0.14 -0.14)">
     <defs>
      <path id="DejaVuSans-Oblique-43" d="M 4447 4306 
L 4319 3641 
Q 4019 3944 3683 4091 
Q 3347 4238 2956 4238 
Q 2422 4238 2017 3981 
Q 1613 3725 1319 3200 
Q 1131 2863 1032 2486 
Q 934 2109 934 1728 
Q 934 1091 1264 756 
Q 1594 422 2222 422 
Q 2656 422 3056 561 
Q 3456 700 3834 978 
L 3688 231 
Q 3316 72 2936 -9 
Q 2556 -91 2175 -91 
Q 1278 -91 773 396 
Q 269 884 269 1753 
Q 269 2309 461 2846 
Q 653 3384 1013 3828 
Q 1394 4300 1883 4525 
Q 2372 4750 3022 4750 
Q 3422 4750 3780 4639 
Q 4138 4528 4447 4306 
z
" transform="scale(0.015625)"/>
      <path id="DejaVuSans-Oblique-69" d="M 1172 4863 
L 1747 4863 
L 1606 4134 
L 1031 4134 
L 1172 4863 
z
M 909 3500 
L 1484 3500 
L 800 0 
L 225 0 
L 909 3500 
z
" transform="scale(0.015625)"/>
      <path id="DejaVuSans-Oblique-6e" d="M 3566 2113 
L 3156 0 
L 2578 0 
L 2988 2091 
Q 3016 2238 3031 2350 
Q 3047 2463 3047 2528 
Q 3047 2791 2881 2937 
Q 2716 3084 2419 3084 
Q 1956 3084 1622 2776 
Q 1288 2469 1184 1941 
L 800 0 
L 225 0 
L 903 3500 
L 1478 3500 
L 1363 2950 
Q 1603 3253 1940 3418 
Q 2278 3584 2650 3584 
Q 3113 3584 3367 3334 
Q 3622 3084 3622 2631 
Q 3622 2519 3608 2391 
Q 3594 2263 3566 2113 
z
" transform="scale(0.015625)"/>
     </defs>
     <use xlink:href="#DejaVuSans-Oblique-43" transform="translate(0 0.78125)"/>
     <use xlink:href="#DejaVuSans-Oblique-69" transform="translate(69.824219 -15.625) scale(0.7)"/>
     <use xlink:href="#DejaVuSans-Oblique-6e" transform="translate(89.272461 -15.625) scale(0.7)"/>
    </g>
   </g>
   <g id="text_2">
    <!-- $L_{in}$ -->
    <g transform="translate(127.230397 254.623125) scale(0.14 -0.14)">
     <defs>
      <path id="DejaVuSans-Oblique-4c" d="M 1075 4666 
L 1709 4666 
L 909 525 
L 3181 525 
L 3078 0 
L 172 0 
L 1075 4666 
z
" transform="scale(0.015625)"/>
     </defs>
     <use xlink:href="#DejaVuSans-Oblique-4c" transform="translate(0 0.09375)"/>
     <use xlink:href="#DejaVuSans-Oblique-69" transform="translate(55.712891 -16.3125) scale(0.7)"/>
     <use xlink:href="#DejaVuSans-Oblique-6e" transform="translate(75.161133 -16.3125) scale(0.7)"/>
    </g>
   </g>
   <g id="text_3">
    <!-- $V_{in}$ -->
    <g transform="translate(9.384 254.623125) scale(0.14 -0.14)">
     <defs>
      <path id="DejaVuSans-Oblique-56" d="M 1319 0 
L 500 4666 
L 1119 4666 
L 1797 653 
L 4063 4666 
L 4750 4666 
L 2053 0 
L 1319 0 
z
" transform="scale(0.015625)"/>
     </defs>
     <use xlink:href="#DejaVuSans-Oblique-56" transform="translate(0 0.09375)"/>
     <use xlink:href="#DejaVuSans-Oblique-69" transform="translate(68.408203 -16.3125) scale(0.7)"/>
     <use xlink:href="#DejaVuSans-Oblique-6e" transform="translate(87.856445 -16.3125) scale(0.7)"/>
    </g>
   </g>
   <g id="text_4">
    <!-- $C_1$ -->
    <g transform="translate(150.424 94.543125) scale(0.14 -0.14)">
     <defs>
      <path id="DejaVuSans-31" d="M 794 531 
L 1825 531 
L 1825 4091 
L 703 3866 
L 703 4441 
L 1819 4666 
L 2450 4666 
L 2450 531 
L 3481 531 
L 3481 0 
L 794 0 
L 794 531 
z
" transform="scale(0.015625)"/>
     </defs>
     <use xlink:href="#DejaVuSans-Oblique-43" transform="translate(0 0.78125)"/>
     <use xlink:href="#DejaVuSans-31" transform="translate(69.824219 -15.625) scale(0.7)"/>
    </g>
   </g>
   <g id="text_5">
    <!-- $V_{dd}$ -->
    <g transform="translate(168.274 15.768438) scale(0.14 -0.14)">
     <defs>
      <path id="DejaVuSans-Oblique-64" d="M 2675 525 
Q 2444 222 2128 65 
Q 1813 -91 1428 -91 
Q 903 -91 598 267 
Q 294 625 294 1247 
Q 294 1766 478 2236 
Q 663 2706 1013 3078 
Q 1244 3325 1534 3454 
Q 1825 3584 2144 3584 
Q 2481 3584 2739 3421 
Q 2997 3259 3138 2956 
L 3513 4863 
L 4091 4863 
L 3144 0 
L 2566 0 
L 2675 525 
z
M 891 1350 
Q 891 897 1095 644 
Q 1300 391 1663 391 
Q 1931 391 2161 520 
Q 2391 650 2566 903 
Q 2750 1166 2856 1509 
Q 2963 1853 2963 2188 
Q 2963 2622 2758 2865 
Q 2553 3109 2194 3109 
Q 1922 3109 1687 2981 
Q 1453 2853 1288 2613 
Q 1106 2353 998 2009 
Q 891 1666 891 1350 
z
" transform="scale(0.015625)"/>
     </defs>
     <use xlink:href="#DejaVuSans-Oblique-56" transform="translate(0 0.09375)"/>
     <use xlink:href="#DejaVuSans-Oblique-64" transform="translate(68.408203 -16.3125) scale(0.7)"/>
     <use xlink:href="#DejaVuSans-Oblique-64" transform="translate(112.841797 -16.3125) scale(0.7)"/>
    </g>
   </g>
   <g id="patch_14">
    <path d="M 179.544 147.38 
C 180.260048 147.38 180.946866 147.095511 181.453188 146.589188 
C 181.959511 146.082866 182.244 145.396048 182.244 144.68 
C 182.244 143.963952 181.959511 143.277134 181.453188 142.770812 
C 180.946866 142.264489 180.260048 141.98 179.544 141.98 
C 178.827952 141.98 178.141134 142.264489 177.634812 142.770812 
C 177.128489 143.277134 176.844 143.963952 176.844 144.68 
C 176.844 145.396048 177.128489 146.082866 177.634812 146.589188 
C 178.141134 147.095511 178.827952 147.38 179.544 147.38 
z
" clip-path="url(#p187a2f7e26)" style="stroke: #000000; stroke-width: 2; stroke-linejoin: miter"/>
   </g>
   <g id="patch_15">
    <path d="M 179.544 60.98 
C 180.260048 60.98 180.946866 60.695511 181.453188 60.189188 
C 181.959511 59.682866 182.244 58.996048 182.244 58.28 
C 182.244 57.563952 181.959511 56.877134 181.453188 56.370812 
C 180.946866 55.864489 180.260048 55.58 179.544 55.58 
C 178.827952 55.58 178.141134 55.864489 177.634812 56.370812 
C 177.128489 56.877134 176.844 57.563952 176.844 58.28 
C 176.844 58.996048 177.128489 59.682866 177.634812 60.189188 
C 178.141134 60.695511 178.827952 60.98 179.544 60.98 
z
" clip-path="url(#p187a2f7e26)" style="stroke: #000000; stroke-width: 2; stroke-linejoin: miter"/>
   </g>
   <g id="patch_16">
    <path d="M 323.544 75.38 
C 324.260048 75.38 324.946866 75.095511 325.453188 74.589188 
C 325.959511 74.082866 326.244 73.396048 326.244 72.68 
C 326.244 71.963952 325.959511 71.277134 325.453188 70.770812 
C 324.946866 70.264489 324.260048 69.98 323.544 69.98 
C 322.827952 69.98 322.141134 70.264489 321.634812 70.770812 
C 321.128489 71.277134 320.844 71.963952 320.844 72.68 
C 320.844 73.396048 321.128489 74.082866 321.634812 74.589188 
C 322.141134 75.095511 322.827952 75.38 323.544 75.38 
z
" clip-path="url(#p187a2f7e26)" style="fill: #ffffff; stroke: #000000; stroke-width: 2; stroke-linejoin: miter"/>
   </g>
   <g id="text_6">
    <!-- $v_{out}$ -->
    <g transform="translate(329.844 76.543125) scale(0.14 -0.14)">
     <defs>
      <path id="DejaVuSans-Oblique-76" d="M 459 3500 
L 1069 3500 
L 1581 525 
L 3256 3500 
L 3866 3500 
L 1875 0 
L 1100 0 
L 459 3500 
z
" transform="scale(0.015625)"/>
      <path id="DejaVuSans-Oblique-6f" d="M 1625 -91 
Q 1009 -91 651 289 
Q 294 669 294 1325 
Q 294 1706 417 2101 
Q 541 2497 738 2766 
Q 1047 3184 1428 3384 
Q 1809 3584 2291 3584 
Q 2888 3584 3255 3212 
Q 3622 2841 3622 2241 
Q 3622 1825 3500 1412 
Q 3378 1000 3181 728 
Q 2875 309 2494 109 
Q 2113 -91 1625 -91 
z
M 891 1344 
Q 891 869 1089 633 
Q 1288 397 1691 397 
Q 2269 397 2648 901 
Q 3028 1406 3028 2181 
Q 3028 2634 2825 2865 
Q 2622 3097 2228 3097 
Q 1903 3097 1650 2945 
Q 1397 2794 1197 2484 
Q 1050 2253 970 1956 
Q 891 1659 891 1344 
z
" transform="scale(0.015625)"/>
      <path id="DejaVuSans-Oblique-75" d="M 428 1388 
L 838 3500 
L 1416 3500 
L 1006 1409 
Q 975 1256 961 1147 
Q 947 1038 947 966 
Q 947 700 1109 554 
Q 1272 409 1569 409 
Q 2031 409 2368 721 
Q 2706 1034 2809 1563 
L 3194 3500 
L 3769 3500 
L 3091 0 
L 2516 0 
L 2631 550 
Q 2388 244 2052 76 
Q 1716 -91 1338 -91 
Q 878 -91 622 161 
Q 366 413 366 863 
Q 366 956 381 1097 
Q 397 1238 428 1388 
z
" transform="scale(0.015625)"/>
      <path id="DejaVuSans-Oblique-74" d="M 2706 3500 
L 2619 3053 
L 1472 3053 
L 1100 1153 
Q 1081 1047 1072 975 
Q 1063 903 1063 863 
Q 1063 663 1183 572 
Q 1303 481 1569 481 
L 2150 481 
L 2053 0 
L 1503 0 
Q 991 0 739 200 
Q 488 400 488 806 
Q 488 878 497 964 
Q 506 1050 525 1153 
L 897 3053 
L 409 3053 
L 500 3500 
L 978 3500 
L 1172 4494 
L 1747 4494 
L 1556 3500 
L 2706 3500 
z
" transform="scale(0.015625)"/>
     </defs>
     <use xlink:href="#DejaVuSans-Oblique-76" transform="translate(0 0.3125)"/>
     <use xlink:href="#DejaVuSans-Oblique-6f" transform="translate(59.179688 -16.09375) scale(0.7)"/>
     <use xlink:href="#DejaVuSans-Oblique-75" transform="translate(102.006836 -16.09375) scale(0.7)"/>
     <use xlink:href="#DejaVuSans-Oblique-74" transform="translate(146.37207 -16.09375) scale(0.7)"/>
    </g>
   </g>
  </g>
 </g>
 <defs>
  <clipPath id="p187a2f7e26">
   <rect x="0" y="-0" width="364.932" height="332.48"/>
  </clipPath>
 </defs>
</svg>