<?xml version="1.0" encoding="utf-8" standalone="no"?>
<!DOCTYPE svg PUBLIC "-//W3C//DTD SVG 1.1//EN"
  "http://www.w3.org/Graphics/SVG/1.1/DTD/svg11.dtd">
<svg xmlns:xlink="http://www.w3.org/1999/xlink" width="497.448pt" height="152.929656pt" viewBox="0 0 497.448 152.929656" xmlns="http://www.w3.org/2000/svg" version="1.1">
 <metadata>
  <rdf:RDF xmlns:dc="http://purl.org/dc/elements/1.1/" xmlns:cc="http://creativecommons.org/ns#" xmlns:rdf="http://www.w3.org/1999/02/22-rdf-syntax-ns#">
   <cc:Work>
    <dc:type rdf:resource="http://purl.org/dc/dcmitype/StillImage"/>
    <dc:date>2023-10-14T00:38:44.334832</dc:date>
    <dc:format>image/svg+xml</dc:format>
    <dc:creator>
     <cc:Agent>
      <dc:title>Matplotlib v3.8.0, https://matplotlib.org/</dc:title>
     </cc:Agent>
    </dc:creator>
   </cc:Work>
  </rdf:RDF>
 </metadata>
 <defs>
  <style type="text/css">*{stroke-linejoin: round; stroke-linecap: butt}</style>
 </defs>
 <g id="figure_1">
  <g id="patch_1">
   <path d="M 0 152.929656 
L 497.448 152.929656 
L 497.448 0 
L 0 0 
z
" style="fill: #ffffff"/>
  </g>
  <g id="axes_1">
   <g id="patch_2">
    <path d="M 43.884 102.097656 
C 48.657656 102.097656 53.236438 100.201063 56.611922 96.825578 
C 59.987406 93.450094 61.884 88.871312 61.884 84.097656 
C 61.884 79.324 59.987406 74.745219 56.611922 71.369734 
C 53.236438 67.99425 48.657656 66.097656 43.884 66.097656 
C 39.110344 66.097656 34.531562 67.99425 31.156078 71.369734 
C 27.780594 74.745219 25.884 79.324 25.884 84.097656 
C 25.884 88.871312 27.780594 93.450094 31.156078 96.825578 
C 34.531562 100.201063 39.110344 102.097656 43.884 102.097656 
L 43.884 102.097656 
z
" clip-path="url(#p9663e6c8fb)" style="fill: none; stroke: #000000; stroke-width: 2; stroke-linejoin: miter"/>
   </g>
   <g id="patch_3">
    <path d="M 106.884 62.497656 
C 106.884 61.079413 106.744319 59.674961 106.472949 58.364675 
C 106.20158 57.054389 105.803801 55.863752 105.302377 54.860903 
C 104.800952 53.858054 104.205633 53.062495 103.550491 52.519757 
C 102.895348 51.977019 102.193122 51.697656 101.484 51.697656 
C 100.774878 51.697656 100.072652 51.977019 99.417509 52.519757 
C 98.762367 53.062495 98.167048 53.858054 97.665623 54.860903 
C 97.164199 55.863752 96.76642 57.054389 96.495051 58.364675 
C 96.223681 59.674961 96.084 61.079413 96.084 62.497656 
C 96.084 63.915899 96.223681 65.320352 96.495051 66.630637 
C 96.76642 67.940923 97.164199 69.13156 97.665623 70.134409 
C 98.167048 71.137259 98.762367 71.932817 99.417509 72.475555 
C 100.072652 73.018293 100.774878 73.297656 101.484 73.297656 
C 102.193122 73.297656 102.895348 73.018293 103.550491 72.475555 
C 104.205633 71.932817 104.800952 71.137259 105.302377 70.134409 
C 105.803801 69.13156 106.20158 67.940923 106.472949 66.630637 
C 106.744319 65.320352 106.884 63.915899 106.884 62.497656 
" clip-path="url(#p9663e6c8fb)" style="fill: none; stroke: #000000; stroke-width: 2; stroke-linejoin: miter"/>
   </g>
   <g id="patch_4">
    <path d="M 238.284 73.297656 
C 239.71562 73.297656 241.090069 72.159026 242.102377 70.134409 
C 243.114685 68.109793 243.684 65.360896 243.684 62.497656 
C 243.684 59.634417 243.114685 56.885519 242.102377 54.860903 
C 241.090069 52.836287 239.71562 51.697656 238.284 51.697656 
" clip-path="url(#p9663e6c8fb)" style="fill: none; stroke: #000000; stroke-width: 2; stroke-linejoin: miter"/>
   </g>
   <g id="patch_5">
    <path d="M 340.884 62.497656 
C 340.884 61.079413 340.744319 59.674961 340.472949 58.364675 
C 340.20158 57.054389 339.803801 55.863752 339.302377 54.860903 
C 338.800952 53.858054 338.205633 53.062495 337.550491 52.519757 
C 336.895348 51.977019 336.193122 51.697656 335.484 51.697656 
C 334.774878 51.697656 334.072652 51.977019 333.417509 52.519757 
C 332.762367 53.062495 332.167048 53.858054 331.665623 54.860903 
C 331.164199 55.863752 330.76642 57.054389 330.495051 58.364675 
C 330.223681 59.674961 330.084 61.079413 330.084 62.497656 
C 330.084 63.915899 330.223681 65.320352 330.495051 66.630637 
C 330.76642 67.940923 331.164199 69.13156 331.665623 70.134409 
C 332.167048 71.137259 332.762367 71.932817 333.417509 72.475555 
C 334.072652 73.018293 334.774878 73.297656 335.484 73.297656 
C 336.193122 73.297656 336.895348 73.018293 337.550491 72.475555 
C 338.205633 71.932817 338.800952 71.137259 339.302377 70.134409 
C 339.803801 69.13156 340.20158 67.940923 340.472949 66.630637 
C 340.744319 65.320352 340.884 63.915899 340.884 62.497656 
" clip-path="url(#p9663e6c8fb)" style="fill: none; stroke: #000000; stroke-width: 2; stroke-linejoin: miter"/>
   </g>
   <g id="patch_6">
    <path d="M 436.284 73.297656 
C 437.71562 73.297656 439.090069 72.159026 440.102377 70.134409 
C 441.114685 68.109793 441.684 65.360896 441.684 62.497656 
C 441.684 59.634417 441.114685 56.885519 440.102377 54.860903 
C 439.090069 52.836287 437.71562 51.697656 436.284 51.697656 
" clip-path="url(#p9663e6c8fb)" style="fill: none; stroke: #000000; stroke-width: 2; stroke-linejoin: miter"/>
   </g>
   <g id="line2d_1">
    <path d="M 43.884 120.097656 
L 43.884 134.497656 
L 34.884 134.497656 
L 52.884 134.497656 
M 37.584 138.817656 
L 50.184 138.817656 
M 42.084 143.137656 
L 45.684 143.137656 
" clip-path="url(#p9663e6c8fb)" style="fill: none; stroke: #000000; stroke-width: 2; stroke-linecap: round"/>
   </g>
   <g id="line2d_2">
    <path d="M 43.884 120.097656 
L 43.884 102.097656 
L 43.884 102.097656 
M 43.884 66.097656 
L 43.884 66.097656 
L 43.884 48.097656 
" clip-path="url(#p9663e6c8fb)" style="fill: none; stroke: #000000; stroke-width: 2; stroke-linecap: round"/>
   </g>
   <g id="line2d_3">
    <path d="M 52.884 84.097656 
L 52.134 82.234159 
L 51.384 80.497656 
L 50.634 79.006487 
L 49.884 77.862273 
L 49.134 77.14299 
L 48.384 76.897656 
L 47.634 77.14299 
L 46.884 77.862273 
L 46.134 79.006487 
L 45.384 80.497656 
L 44.634 82.234159 
L 43.884 84.097656 
L 43.134 85.961153 
L 42.384 87.697656 
L 41.634 89.188825 
L 40.884 90.333039 
L 40.134 91.052322 
L 39.384 91.297656 
L 38.634 91.052322 
L 37.884 90.333039 
L 37.134 89.188825 
L 36.384 87.697656 
L 35.634 85.961153 
L 34.884 84.097656 
" clip-path="url(#p9663e6c8fb)" style="fill: none; stroke: #000000; stroke-width: 2; stroke-linecap: round"/>
   </g>
   <g id="line2d_4">
    <path d="M 43.884 48.097656 
L 61.884 48.097656 
L 79.884 48.097656 
" clip-path="url(#p9663e6c8fb)" style="fill: none; stroke: #000000; stroke-width: 2; stroke-linecap: round"/>
   </g>
   <g id="line2d_5">
    <path d="M 79.884 48.097656 
L 79.884 55.297656 
L 79.884 62.497656 
" clip-path="url(#p9663e6c8fb)" style="fill: none; stroke: #000000; stroke-width: 2; stroke-linecap: round"/>
   </g>
   <g id="line2d_6">
    <path d="M 79.884 62.497656 
L 101.484 62.497656 
M 243.684 62.497656 
L 259.884 62.497656 
" clip-path="url(#p9663e6c8fb)" style="fill: none; stroke: #000000; stroke-width: 2; stroke-linecap: round"/>
   </g>
   <g id="line2d_7">
    <path d="M 101.484 51.697656 
L 238.284 51.697656 
" clip-path="url(#p9663e6c8fb)" style="fill: none; stroke: #000000; stroke-width: 2; stroke-linecap: round"/>
   </g>
   <g id="line2d_8">
    <path d="M 101.484 73.297656 
L 238.284 73.297656 
" clip-path="url(#p9663e6c8fb)" style="fill: none; stroke: #000000; stroke-width: 2; stroke-linecap: round"/>
   </g>
   <g id="line2d_9">
    <path d="M 259.884 62.497656 
L 283.644 62.497656 
M 283.644 53.497656 
L 283.644 71.497656 
M 290.124 53.497656 
L 290.124 71.497656 
M 290.124 62.497656 
L 313.884 62.497656 
" clip-path="url(#p9663e6c8fb)" style="fill: none; stroke: #000000; stroke-width: 2; stroke-linecap: round"/>
   </g>
   <g id="line2d_10">
    <path d="M 313.884 62.497656 
L 335.484 62.497656 
M 441.684 62.497656 
L 457.884 62.497656 
" clip-path="url(#p9663e6c8fb)" style="fill: none; stroke: #000000; stroke-width: 2; stroke-linecap: round"/>
   </g>
   <g id="line2d_11">
    <path d="M 335.484 51.697656 
L 436.284 51.697656 
" clip-path="url(#p9663e6c8fb)" style="fill: none; stroke: #000000; stroke-width: 2; stroke-linecap: round"/>
   </g>
   <g id="line2d_12">
    <path d="M 335.484 73.297656 
L 436.284 73.297656 
" clip-path="url(#p9663e6c8fb)" style="fill: none; stroke: #000000; stroke-width: 2; stroke-linecap: round"/>
   </g>
   <g id="line2d_13">
    <path d="M 457.884 62.497656 
L 457.884 40.897656 
L 444.204 19.297656 
L 471.564 19.297656 
L 457.884 40.897656 
" clip-path="url(#p9663e6c8fb)" style="fill: none; stroke: #000000; stroke-width: 2; stroke-linecap: round"/>
   </g>
   <g id="line2d_14">
    <path d="M 238.284 73.297656 
L 238.284 91.297656 
L 238.284 109.297656 
" clip-path="url(#p9663e6c8fb)" style="fill: none; stroke: #000000; stroke-width: 2; stroke-linecap: round"/>
   </g>
   <g id="line2d_15">
    <path d="M 238.284 109.297656 
L 286.884 109.297656 
L 335.484 109.297656 
" clip-path="url(#p9663e6c8fb)" style="fill: none; stroke: #000000; stroke-width: 2; stroke-linecap: round"/>
   </g>
   <g id="line2d_16">
    <path d="M 335.484 109.297656 
L 335.484 91.297656 
L 335.484 73.297656 
" clip-path="url(#p9663e6c8fb)" style="fill: none; stroke: #000000; stroke-width: 2; stroke-linecap: round"/>
   </g>
   <g id="line2d_17">
    <path d="M 43.884 120.097656 
L 72.684 120.097656 
L 101.484 120.097656 
" clip-path="url(#p9663e6c8fb)" style="fill: none; stroke: #000000; stroke-width: 2; stroke-linecap: round"/>
   </g>
   <g id="line2d_18">
    <path d="M 101.484 120.097656 
L 101.484 96.697656 
L 101.484 73.297656 
" clip-path="url(#p9663e6c8fb)" style="fill: none; stroke: #000000; stroke-width: 2; stroke-linecap: round"/>
   </g>
   <g id="text_1">
    <!-- $V_{in}$ -->
    <g transform="translate(5.409 87.546875) scale(0.125 -0.125)">
     <defs>
      <path id="DejaVuSans-Oblique-56" d="M 1319 0 
L 500 4666 
L 1119 4666 
L 1797 653 
L 4063 4666 
L 4750 4666 
L 2053 0 
L 1319 0 
z
" transform="scale(0.015625)"/>
      <path id="DejaVuSans-Oblique-69" d="M 1172 4863 
L 1747 4863 
L 1606 4134 
L 1031 4134 
L 1172 4863 
z
M 909 3500 
L 1484 3500 
L 800 0 
L 225 0 
L 909 3500 
z
" transform="scale(0.015625)"/>
      <path id="DejaVuSans-Oblique-6e" d="M 3566 2113 
L 3156 0 
L 2578 0 
L 2988 2091 
Q 3016 2238 3031 2350 
Q 3047 2463 3047 2528 
Q 3047 2791 2881 2937 
Q 2716 3084 2419 3084 
Q 1956 3084 1622 2776 
Q 1288 2469 1184 1941 
L 800 0 
L 225 0 
L 903 3500 
L 1478 3500 
L 1363 2950 
Q 1603 3253 1940 3418 
Q 2278 3584 2650 3584 
Q 3113 3584 3367 3334 
Q 3622 3084 3622 2631 
Q 3622 2519 3608 2391 
Q 3594 2263 3566 2113 
z
" transform="scale(0.015625)"/>
     </defs>
     <use xlink:href="#DejaVuSans-Oblique-56" transform="translate(0 0.09375)"/>
     <use xlink:href="#DejaVuSans-Oblique-69" transform="translate(68.408203 -16.3125) scale(0.7)"/>
     <use xlink:href="#DejaVuSans-Oblique-6e" transform="translate(87.856445 -16.3125) scale(0.7)"/>
    </g>
   </g>
   <g id="text_2">
    <!-- $50\Omega$ -->
    <g transform="translate(157.134 45.498047) scale(0.125 -0.125)">
     <defs>
      <path id="DejaVuSans-35" d="M 691 4666 
L 3169 4666 
L 3169 4134 
L 1269 4134 
L 1269 2991 
Q 1406 3038 1543 3061 
Q 1681 3084 1819 3084 
Q 2600 3084 3056 2656 
Q 3513 2228 3513 1497 
Q 3513 744 3044 326 
Q 2575 -91 1722 -91 
Q 1428 -91 1123 -41 
Q 819 9 494 109 
L 494 744 
Q 775 591 1075 516 
Q 1375 441 1709 441 
Q 2250 441 2565 725 
Q 2881 1009 2881 1497 
Q 2881 1984 2565 2268 
Q 2250 2553 1709 2553 
Q 1456 2553 1204 2497 
Q 953 2441 691 2322 
L 691 4666 
z
" transform="scale(0.015625)"/>
      <path id="DejaVuSans-30" d="M 2034 4250 
Q 1547 4250 1301 3770 
Q 1056 3291 1056 2328 
Q 1056 1369 1301 889 
Q 1547 409 2034 409 
Q 2525 409 2770 889 
Q 3016 1369 3016 2328 
Q 3016 3291 2770 3770 
Q 2525 4250 2034 4250 
z
M 2034 4750 
Q 2819 4750 3233 4129 
Q 3647 3509 3647 2328 
Q 3647 1150 3233 529 
Q 2819 -91 2034 -91 
Q 1250 -91 836 529 
Q 422 1150 422 2328 
Q 422 3509 836 4129 
Q 1250 4750 2034 4750 
z
" transform="scale(0.015625)"/>
      <path id="DejaVuSans-3a9" d="M 4647 556 
L 4647 0 
L 2772 0 
L 2772 556 
Q 3325 859 3634 1378 
Q 3944 1897 3944 2528 
Q 3944 3278 3531 3731 
Q 3119 4184 2444 4184 
Q 1769 4184 1355 3729 
Q 941 3275 941 2528 
Q 941 1897 1250 1378 
Q 1563 859 2119 556 
L 2119 0 
L 244 0 
L 244 556 
L 1241 556 
Q 747 991 519 1456 
Q 294 1922 294 2497 
Q 294 3491 894 4106 
Q 1491 4722 2444 4722 
Q 3391 4722 3994 4106 
Q 4594 3494 4594 2528 
Q 4594 1922 4372 1459 
Q 4150 997 3647 556 
L 4647 556 
z
" transform="scale(0.015625)"/>
     </defs>
     <use xlink:href="#DejaVuSans-35" transform="translate(0 0.78125)"/>
     <use xlink:href="#DejaVuSans-30" transform="translate(63.623047 0.78125)"/>
     <use xlink:href="#DejaVuSans-3a9" transform="translate(127.246094 0.78125)"/>
    </g>
   </g>
   <g id="text_3">
    <!-- 22.4pF -->
    <g transform="translate(265.405484 47.298047) scale(0.125 -0.125)">
     <defs>
      <path id="DejaVuSans-32" d="M 1228 531 
L 3431 531 
L 3431 0 
L 469 0 
L 469 531 
Q 828 903 1448 1529 
Q 2069 2156 2228 2338 
Q 2531 2678 2651 2914 
Q 2772 3150 2772 3378 
Q 2772 3750 2511 3984 
Q 2250 4219 1831 4219 
Q 1534 4219 1204 4116 
Q 875 4013 500 3803 
L 500 4441 
Q 881 4594 1212 4672 
Q 1544 4750 1819 4750 
Q 2544 4750 2975 4387 
Q 3406 4025 3406 3419 
Q 3406 3131 3298 2873 
Q 3191 2616 2906 2266 
Q 2828 2175 2409 1742 
Q 1991 1309 1228 531 
z
" transform="scale(0.015625)"/>
      <path id="DejaVuSans-2e" d="M 684 794 
L 1344 794 
L 1344 0 
L 684 0 
L 684 794 
z
" transform="scale(0.015625)"/>
      <path id="DejaVuSans-34" d="M 2419 4116 
L 825 1625 
L 2419 1625 
L 2419 4116 
z
M 2253 4666 
L 3047 4666 
L 3047 1625 
L 3713 1625 
L 3713 1100 
L 3047 1100 
L 3047 0 
L 2419 0 
L 2419 1100 
L 313 1100 
L 313 1709 
L 2253 4666 
z
" transform="scale(0.015625)"/>
      <path id="DejaVuSans-70" d="M 1159 525 
L 1159 -1331 
L 581 -1331 
L 581 3500 
L 1159 3500 
L 1159 2969 
Q 1341 3281 1617 3432 
Q 1894 3584 2278 3584 
Q 2916 3584 3314 3078 
Q 3713 2572 3713 1747 
Q 3713 922 3314 415 
Q 2916 -91 2278 -91 
Q 1894 -91 1617 61 
Q 1341 213 1159 525 
z
M 3116 1747 
Q 3116 2381 2855 2742 
Q 2594 3103 2138 3103 
Q 1681 3103 1420 2742 
Q 1159 2381 1159 1747 
Q 1159 1113 1420 752 
Q 1681 391 2138 391 
Q 2594 391 2855 752 
Q 3116 1113 3116 1747 
z
" transform="scale(0.015625)"/>
      <path id="DejaVuSans-46" d="M 628 4666 
L 3309 4666 
L 3309 4134 
L 1259 4134 
L 1259 2759 
L 3109 2759 
L 3109 2228 
L 1259 2228 
L 1259 0 
L 628 0 
L 628 4666 
z
" transform="scale(0.015625)"/>
     </defs>
     <use xlink:href="#DejaVuSans-32"/>
     <use xlink:href="#DejaVuSans-32" x="63.623047"/>
     <use xlink:href="#DejaVuSans-2e" x="127.246094"/>
     <use xlink:href="#DejaVuSans-34" x="159.033203"/>
     <use xlink:href="#DejaVuSans-70" x="222.65625"/>
     <use xlink:href="#DejaVuSans-46" x="286.132812"/>
    </g>
   </g>
   <g id="text_4">
    <!-- $50\Omega$ -->
    <g transform="translate(373.134 45.498047) scale(0.125 -0.125)">
     <use xlink:href="#DejaVuSans-35" transform="translate(0 0.78125)"/>
     <use xlink:href="#DejaVuSans-30" transform="translate(63.623047 0.78125)"/>
     <use xlink:href="#DejaVuSans-3a9" transform="translate(127.246094 0.78125)"/>
    </g>
   </g>
   <g id="text_5">
    <!-- 19.65 cm -->
    <g transform="translate(356.48068 86.395703) scale(0.125 -0.125)">
     <defs>
      <path id="DejaVuSans-31" d="M 794 531 
L 1825 531 
L 1825 4091 
L 703 3866 
L 703 4441 
L 1819 4666 
L 2450 4666 
L 2450 531 
L 3481 531 
L 3481 0 
L 794 0 
L 794 531 
z
" transform="scale(0.015625)"/>
      <path id="DejaVuSans-39" d="M 703 97 
L 703 672 
Q 941 559 1184 500 
Q 1428 441 1663 441 
Q 2288 441 2617 861 
Q 2947 1281 2994 2138 
Q 2813 1869 2534 1725 
Q 2256 1581 1919 1581 
Q 1219 1581 811 2004 
Q 403 2428 403 3163 
Q 403 3881 828 4315 
Q 1253 4750 1959 4750 
Q 2769 4750 3195 4129 
Q 3622 3509 3622 2328 
Q 3622 1225 3098 567 
Q 2575 -91 1691 -91 
Q 1453 -91 1209 -44 
Q 966 3 703 97 
z
M 1959 2075 
Q 2384 2075 2632 2365 
Q 2881 2656 2881 3163 
Q 2881 3666 2632 3958 
Q 2384 4250 1959 4250 
Q 1534 4250 1286 3958 
Q 1038 3666 1038 3163 
Q 1038 2656 1286 2365 
Q 1534 2075 1959 2075 
z
" transform="scale(0.015625)"/>
      <path id="DejaVuSans-36" d="M 2113 2584 
Q 1688 2584 1439 2293 
Q 1191 2003 1191 1497 
Q 1191 994 1439 701 
Q 1688 409 2113 409 
Q 2538 409 2786 701 
Q 3034 994 3034 1497 
Q 3034 2003 2786 2293 
Q 2538 2584 2113 2584 
z
M 3366 4563 
L 3366 3988 
Q 3128 4100 2886 4159 
Q 2644 4219 2406 4219 
Q 1781 4219 1451 3797 
Q 1122 3375 1075 2522 
Q 1259 2794 1537 2939 
Q 1816 3084 2150 3084 
Q 2853 3084 3261 2657 
Q 3669 2231 3669 1497 
Q 3669 778 3244 343 
Q 2819 -91 2113 -91 
Q 1303 -91 875 529 
Q 447 1150 447 2328 
Q 447 3434 972 4092 
Q 1497 4750 2381 4750 
Q 2619 4750 2861 4703 
Q 3103 4656 3366 4563 
z
" transform="scale(0.015625)"/>
      <path id="DejaVuSans-20" transform="scale(0.015625)"/>
      <path id="DejaVuSans-63" d="M 3122 3366 
L 3122 2828 
Q 2878 2963 2633 3030 
Q 2388 3097 2138 3097 
Q 1578 3097 1268 2742 
Q 959 2388 959 1747 
Q 959 1106 1268 751 
Q 1578 397 2138 397 
Q 2388 397 2633 464 
Q 2878 531 3122 666 
L 3122 134 
Q 2881 22 2623 -34 
Q 2366 -91 2075 -91 
Q 1284 -91 818 406 
Q 353 903 353 1747 
Q 353 2603 823 3093 
Q 1294 3584 2113 3584 
Q 2378 3584 2631 3529 
Q 2884 3475 3122 3366 
z
" transform="scale(0.015625)"/>
      <path id="DejaVuSans-6d" d="M 3328 2828 
Q 3544 3216 3844 3400 
Q 4144 3584 4550 3584 
Q 5097 3584 5394 3201 
Q 5691 2819 5691 2113 
L 5691 0 
L 5113 0 
L 5113 2094 
Q 5113 2597 4934 2840 
Q 4756 3084 4391 3084 
Q 3944 3084 3684 2787 
Q 3425 2491 3425 1978 
L 3425 0 
L 2847 0 
L 2847 2094 
Q 2847 2600 2669 2842 
Q 2491 3084 2119 3084 
Q 1678 3084 1418 2786 
Q 1159 2488 1159 1978 
L 1159 0 
L 581 0 
L 581 3500 
L 1159 3500 
L 1159 2956 
Q 1356 3278 1631 3431 
Q 1906 3584 2284 3584 
Q 2666 3584 2933 3390 
Q 3200 3197 3328 2828 
z
" transform="scale(0.015625)"/>
     </defs>
     <use xlink:href="#DejaVuSans-31"/>
     <use xlink:href="#DejaVuSans-39" x="63.623047"/>
     <use xlink:href="#DejaVuSans-2e" x="127.246094"/>
     <use xlink:href="#DejaVuSans-36" x="159.033203"/>
     <use xlink:href="#DejaVuSans-35" x="222.65625"/>
     <use xlink:href="#DejaVuSans-20" x="286.279297"/>
     <use xlink:href="#DejaVuSans-63" x="318.066406"/>
     <use xlink:href="#DejaVuSans-6d" x="373.046875"/>
    </g>
   </g>
   <g id="text_6">
    <!-- $80\Omega$ -->
    <g transform="translate(445.134 13.098047) scale(0.125 -0.125)">
     <defs>
      <path id="DejaVuSans-38" d="M 2034 2216 
Q 1584 2216 1326 1975 
Q 1069 1734 1069 1313 
Q 1069 891 1326 650 
Q 1584 409 2034 409 
Q 2484 409 2743 651 
Q 3003 894 3003 1313 
Q 3003 1734 2745 1975 
Q 2488 2216 2034 2216 
z
M 1403 2484 
Q 997 2584 770 2862 
Q 544 3141 544 3541 
Q 544 4100 942 4425 
Q 1341 4750 2034 4750 
Q 2731 4750 3128 4425 
Q 3525 4100 3525 3541 
Q 3525 3141 3298 2862 
Q 3072 2584 2669 2484 
Q 3125 2378 3379 2068 
Q 3634 1759 3634 1313 
Q 3634 634 3220 271 
Q 2806 -91 2034 -91 
Q 1263 -91 848 271 
Q 434 634 434 1313 
Q 434 1759 690 2068 
Q 947 2378 1403 2484 
z
M 1172 3481 
Q 1172 3119 1398 2916 
Q 1625 2713 2034 2713 
Q 2441 2713 2670 2916 
Q 2900 3119 2900 3481 
Q 2900 3844 2670 4047 
Q 2441 4250 2034 4250 
Q 1625 4250 1398 4047 
Q 1172 3844 1172 3481 
z
" transform="scale(0.015625)"/>
     </defs>
     <use xlink:href="#DejaVuSans-38" transform="translate(0 0.78125)"/>
     <use xlink:href="#DejaVuSans-30" transform="translate(63.623047 0.78125)"/>
     <use xlink:href="#DejaVuSans-3a9" transform="translate(127.246094 0.78125)"/>
    </g>
   </g>
   <g id="patch_7">
    <path d="M 43.884 122.797656 
C 44.600048 122.797656 45.286866 122.513167 45.793188 122.006845 
C 46.299511 121.500522 46.584 120.813705 46.584 120.097656 
C 46.584 119.381608 46.299511 118.694791 45.793188 118.188468 
C 45.286866 117.682145 44.600048 117.397656 43.884 117.397656 
C 43.167952 117.397656 42.481134 117.682145 41.974812 118.188468 
C 41.468489 118.694791 41.184 119.381608 41.184 120.097656 
C 41.184 120.813705 41.468489 121.500522 41.974812 122.006845 
C 42.481134 122.513167 43.167952 122.797656 43.884 122.797656 
z
" clip-path="url(#p9663e6c8fb)" style="stroke: #000000; stroke-width: 2; stroke-linejoin: miter"/>
   </g>
   <g id="patch_8">
    <path d="M 259.884 65.197656 
C 260.600048 65.197656 261.286866 64.913167 261.793188 64.406845 
C 262.299511 63.900522 262.584 63.213705 262.584 62.497656 
C 262.584 61.781608 262.299511 61.094791 261.793188 60.588468 
C 261.286866 60.082145 260.600048 59.797656 259.884 59.797656 
C 259.167952 59.797656 258.481134 60.082145 257.974812 60.588468 
C 257.468489 61.094791 257.184 61.781608 257.184 62.497656 
C 257.184 63.213705 257.468489 63.900522 257.974812 64.406845 
C 258.481134 64.913167 259.167952 65.197656 259.884 65.197656 
z
" clip-path="url(#p9663e6c8fb)" style="stroke: #000000; stroke-width: 2; stroke-linejoin: miter"/>
   </g>
   <g id="patch_9">
    <path d="M 313.884 65.197656 
C 314.600048 65.197656 315.286866 64.913167 315.793188 64.406845 
C 316.299511 63.900522 316.584 63.213705 316.584 62.497656 
C 316.584 61.781608 316.299511 61.094791 315.793188 60.588468 
C 315.286866 60.082145 314.600048 59.797656 313.884 59.797656 
C 313.167952 59.797656 312.481134 60.082145 311.974812 60.588468 
C 311.468489 61.094791 311.184 61.781608 311.184 62.497656 
C 311.184 63.213705 311.468489 63.900522 311.974812 64.406845 
C 312.481134 64.913167 313.167952 65.197656 313.884 65.197656 
z
" clip-path="url(#p9663e6c8fb)" style="fill: #008000; stroke: #008000; stroke-width: 2; stroke-linejoin: miter"/>
   </g>
   <g id="patch_10">
    <path d="M 457.884 65.197656 
C 458.600048 65.197656 459.286866 64.913167 459.793188 64.406845 
C 460.299511 63.900522 460.584 63.213705 460.584 62.497656 
C 460.584 61.781608 460.299511 61.094791 459.793188 60.588468 
C 459.286866 60.082145 458.600048 59.797656 457.884 59.797656 
C 457.167952 59.797656 456.481134 60.082145 455.974812 60.588468 
C 455.468489 61.094791 455.184 61.781608 455.184 62.497656 
C 455.184 63.213705 455.468489 63.900522 455.974812 64.406845 
C 456.481134 64.913167 457.167952 65.197656 457.884 65.197656 
z
" clip-path="url(#p9663e6c8fb)" style="fill: #ff0000; stroke: #ff0000; stroke-width: 2; stroke-linejoin: miter"/>
   </g>
  </g>
 </g>
 <defs>
  <clipPath id="p9663e6c8fb">
   <rect x="3.6" y="13.105656" width="490.248" height="136.224"/>
  </clipPath>
 </defs>
</svg>