<?xml version="1.0" encoding="utf-8" standalone="no"?>
<!DOCTYPE svg PUBLIC "-//W3C//DTD SVG 1.1//EN"
  "http://www.w3.org/Graphics/SVG/1.1/DTD/svg11.dtd">
<svg xmlns:xlink="http://www.w3.org/1999/xlink" width="733.068pt" height="296.443656pt" viewBox="0 0 733.068 296.443656" xmlns="http://www.w3.org/2000/svg" version="1.1">
 <metadata>
  <rdf:RDF xmlns:dc="http://purl.org/dc/elements/1.1/" xmlns:cc="http://creativecommons.org/ns#" xmlns:rdf="http://www.w3.org/1999/02/22-rdf-syntax-ns#">
   <cc:Work>
    <dc:type rdf:resource="http://purl.org/dc/dcmitype/StillImage"/>
    <dc:date>2023-09-25T21:13:10.955221</dc:date>
    <dc:format>image/svg+xml</dc:format>
    <dc:creator>
     <cc:Agent>
      <dc:title>Matplotlib v3.6.3, https://matplotlib.org/</dc:title>
     </cc:Agent>
    </dc:creator>
   </cc:Work>
  </rdf:RDF>
 </metadata>
 <defs>
  <style type="text/css">*{stroke-linejoin: round; stroke-linecap: butt}</style>
 </defs>
 <g id="figure_1">
  <g id="patch_1">
   <path d="M 0 296.443656 
L 733.068 296.443656 
L 733.068 0 
L 0 0 
z
" style="fill: #ffffff"/>
  </g>
  <g id="axes_1">
   <g id="patch_2">
    <path d="M 45.594 238.777656 
C 47.980828 238.777656 50.270219 237.829359 51.957961 236.141617 
C 53.645703 234.453875 54.594 232.164484 54.594 229.777656 
C 54.594 227.390828 53.645703 225.101437 51.957961 223.413695 
C 50.270219 221.725953 47.980828 220.777656 45.594 220.777656 
C 43.207172 220.777656 40.917781 221.725953 39.230039 223.413695 
C 37.542297 225.101437 36.594 227.390828 36.594 229.777656 
C 36.594 232.164484 37.542297 234.453875 39.230039 236.141617 
C 40.917781 237.829359 43.207172 238.777656 45.594 238.777656 
L 45.594 238.777656 
z
" clip-path="url(#p4fb4cc1cd8)" style="fill: none; stroke: #000000; stroke-width: 2; stroke-linejoin: miter"/>
   </g>
   <g id="line2d_1">
    <path d="M 153.594 202.777656 
L 166.794 202.777656 
" clip-path="url(#p4fb4cc1cd8)" style="fill: none; stroke: #000000; stroke-width: 2; stroke-linecap: round"/>
   </g>
   <g id="line2d_2">
    <path d="M 166.794 189.577656 
L 166.794 215.977656 
" clip-path="url(#p4fb4cc1cd8)" style="fill: none; stroke: #000000; stroke-width: 2; stroke-linecap: round"/>
   </g>
   <g id="line2d_3">
    <path d="M 166.794 196.177656 
L 180.654 184.297656 
L 180.654 177.697656 
" clip-path="url(#p4fb4cc1cd8)" style="fill: none; stroke: #000000; stroke-width: 2; stroke-linecap: round"/>
   </g>
   <g id="line2d_4">
    <path d="M 166.794 209.377656 
L 180.654 221.257656 
L 180.654 227.857656 
" clip-path="url(#p4fb4cc1cd8)" style="fill: none; stroke: #000000; stroke-width: 2; stroke-linecap: round"/>
   </g>
   <g id="line2d_5">
    <path d="M 166.794 209.377656 
L 173.820691 215.400534 
" clip-path="url(#p4fb4cc1cd8)" style="fill: none; stroke: #000000; stroke-width: 2; stroke-linecap: round"/>
   </g>
   <g id="patch_3">
    <path d="M 176.16354 212.66721 
L 180.654 221.257656 
L 171.477842 218.133858 
z
" clip-path="url(#p4fb4cc1cd8)"/>
   </g>
   <g id="line2d_6">
    <path d="M 153.594 202.777656 
L 117.594 202.777656 
L 114.594 211.777656 
L 108.594 193.777656 
L 102.594 211.777656 
L 96.594 193.777656 
L 90.594 211.777656 
L 84.594 193.777656 
L 81.594 202.777656 
L 45.594 202.777656 
" clip-path="url(#p4fb4cc1cd8)" style="fill: none; stroke: #000000; stroke-width: 2; stroke-linecap: round"/>
   </g>
   <g id="line2d_7">
    <path d="M 45.594 202.777656 
L 45.594 220.777656 
L 45.594 220.777656 
M 45.594 238.777656 
L 45.594 238.777656 
L 45.594 256.777656 
" clip-path="url(#p4fb4cc1cd8)" style="fill: none; stroke: #000000; stroke-width: 2; stroke-linecap: round"/>
   </g>
   <g id="line2d_8">
    <path d="M 43.794 225.277656 
L 47.394 225.277656 
" clip-path="url(#p4fb4cc1cd8)" style="fill: none; stroke: #000000; stroke-width: 2; stroke-linecap: round"/>
   </g>
   <g id="line2d_9">
    <path d="M 45.594 232.477656 
L 45.594 236.077656 
" clip-path="url(#p4fb4cc1cd8)" style="fill: none; stroke: #000000; stroke-width: 2; stroke-linecap: round"/>
   </g>
   <g id="line2d_10">
    <path d="M 43.794 234.277656 
L 47.394 234.277656 
" clip-path="url(#p4fb4cc1cd8)" style="fill: none; stroke: #000000; stroke-width: 2; stroke-linecap: round"/>
   </g>
   <g id="line2d_11">
    <path d="M 45.594 256.777656 
L 113.124 256.777656 
L 180.654 256.777656 
" clip-path="url(#p4fb4cc1cd8)" style="fill: none; stroke: #000000; stroke-width: 2; stroke-linecap: round"/>
   </g>
   <g id="line2d_12">
    <path d="M 180.654 256.777656 
L 180.654 271.177656 
L 171.654 271.177656 
L 189.654 271.177656 
M 174.354 275.497656 
L 186.954 275.497656 
M 178.854 279.817656 
L 182.454 279.817656 
" clip-path="url(#p4fb4cc1cd8)" style="fill: none; stroke: #000000; stroke-width: 2; stroke-linecap: round"/>
   </g>
   <g id="line2d_13">
    <path d="M 180.654 256.777656 
L 180.654 242.317656 
L 180.654 227.857656 
" clip-path="url(#p4fb4cc1cd8)" style="fill: none; stroke: #000000; stroke-width: 2; stroke-linecap: round"/>
   </g>
   <g id="line2d_14">
    <path d="M 180.654 177.697656 
L 180.654 164.197656 
L 180.654 150.697656 
" clip-path="url(#p4fb4cc1cd8)" style="fill: none; stroke: #000000; stroke-width: 2; stroke-linecap: round"/>
   </g>
   <g id="line2d_15">
    <path d="M 180.654 150.697656 
L 231.414 150.697656 
M 231.414 141.697656 
L 231.414 159.697656 
M 237.894 141.697656 
L 237.894 159.697656 
M 237.894 150.697656 
L 288.654 150.697656 
" clip-path="url(#p4fb4cc1cd8)" style="fill: none; stroke: #000000; stroke-width: 2; stroke-linecap: round"/>
   </g>
   <g id="line2d_16">
    <path d="M 180.654 150.697656 
L 180.654 114.697656 
L 177.689813 114.563587 
L 174.698893 114.155897 
L 171.932083 113.483655 
L 169.621432 112.578118 
L 168.699692 112.053089 
L 167.960729 111.490109 
L 167.420119 110.897889 
L 167.089256 110.285754 
L 166.975116 109.66345 
L 167.080102 109.040936 
L 167.402004 108.428178 
L 167.934035 107.834934 
L 168.664982 107.270551 
L 169.579436 106.743768 
L 171.878309 105.833831 
L 174.63785 105.156314 
L 177.62662 104.742916 
L 180.593957 104.603184 
L 183.290994 104.723714 
L 185.491535 105.069274 
L 187.011024 105.585759 
L 187.472989 105.88712 
L 187.722023 106.204728 
L 187.752878 106.528733 
L 187.564903 106.849147 
L 187.16206 107.15606 
L 185.750085 107.691364 
L 183.635374 108.064627 
L 180.995284 108.21942 
L 178.051236 108.117638 
L 175.050142 107.742693 
L 172.2437 107.100908 
L 169.867281 106.220986 
L 168.904506 105.706255 
L 168.120192 105.151599 
L 167.530869 104.565554 
L 167.148959 103.957314 
L 166.982513 103.336543 
L 167.035038 102.713169 
L 167.305428 102.097174 
L 167.787983 101.498385 
L 168.472532 100.926267 
L 169.344645 100.389721 
L 171.574471 99.455036 
L 174.290447 98.747596 
L 177.264789 98.30161 
L 180.248044 98.129359 
L 182.99001 98.220166 
L 185.260723 98.541292 
L 186.869742 99.04068 
L 187.381431 99.33672 
L 187.68212 99.651324 
L 187.765471 99.974705 
L 187.629725 100.296888 
L 187.277746 100.607926 
L 186.716952 100.898105 
L 185.020352 101.379428 
L 182.682218 101.675367 
L 179.898645 101.735978 
L 176.903087 101.531054 
L 173.946776 101.052659 
L 171.277655 100.31579 
L 169.119578 99.357126 
L 168.290862 98.811285 
L 167.65354 98.231943 
L 167.221045 97.628154 
L 167.002495 97.009487 
L 167.002495 96.385826 
L 167.221045 95.767159 
L 167.65354 95.163369 
L 168.290862 94.584027 
L 169.119578 94.038187 
L 170.12222 93.534196 
L 172.561527 92.680591 
L 175.404202 92.069678 
L 178.411835 91.727569 
L 181.332178 91.657835 
L 183.920309 91.841199 
L 185.959163 92.237161 
L 187.277746 92.787387 
L 187.629725 93.098425 
L 187.765471 93.420608 
L 187.68212 93.743988 
L 187.381431 94.058593 
L 186.869742 94.354633 
L 185.260723 94.854021 
L 182.99001 95.175146 
L 180.248044 95.265953 
L 177.264789 95.093702 
L 174.290447 94.647717 
L 171.574471 93.940277 
L 169.344645 93.005591 
L 168.472532 92.469046 
L 167.787983 91.896928 
L 167.305428 91.298139 
L 167.035038 90.682144 
L 166.982513 90.058769 
L 167.148959 89.437999 
L 167.530869 88.829759 
L 168.120192 88.243713 
L 168.904506 87.689058 
L 169.867281 87.174327 
L 172.2437 86.294404 
L 175.050142 85.65262 
L 178.051236 85.277675 
L 180.995284 85.175893 
L 183.635374 85.330686 
L 185.750085 85.703949 
L 187.16206 86.239253 
L 187.564903 86.546166 
L 187.752878 86.86658 
L 187.722023 87.190584 
L 187.472989 87.508193 
L 187.011024 87.809554 
L 185.491535 88.326039 
L 183.290994 88.671599 
L 180.593957 88.792129 
L 177.62662 88.652397 
L 174.63785 88.238998 
L 171.878309 87.561481 
L 169.579436 86.651544 
L 168.664982 86.124762 
L 167.934035 85.560379 
L 167.402004 84.967135 
L 167.080102 84.354376 
L 166.975116 83.731863 
L 167.089256 83.109559 
L 167.420119 82.497424 
L 167.960729 81.905203 
L 168.699692 81.342224 
L 169.621432 80.817194 
L 171.932083 79.911657 
L 174.698893 79.239416 
L 177.689813 78.831726 
L 180.654 78.697656 
L 180.654 42.697656 
L 180.654 42.697656 
" clip-path="url(#p4fb4cc1cd8)" style="fill: none; stroke: #000000; stroke-width: 2; stroke-linecap: round"/>
   </g>
   <g id="line2d_17">
    <path d="M 180.654 42.697656 
L 180.654 38.197656 
L 180.654 33.697656 
" clip-path="url(#p4fb4cc1cd8)" style="fill: none; stroke: #000000; stroke-width: 2; stroke-linecap: round"/>
   </g>
   <g id="line2d_18">
    <path d="M 180.654 42.697656 
L 180.654 28.297656 
" clip-path="url(#p4fb4cc1cd8)" style="fill: none; stroke: #000000; stroke-width: 2; stroke-linecap: round"/>
   </g>
   <g id="line2d_19">
    <path d="M 180.654 28.297656 
L 173.904 28.297656 
" clip-path="url(#p4fb4cc1cd8)" style="fill: none; stroke: #000000; stroke-width: 2; stroke-linecap: round"/>
   </g>
   <g id="line2d_20">
    <path d="M 180.654 28.297656 
L 187.404 28.297656 
" clip-path="url(#p4fb4cc1cd8)" style="fill: none; stroke: #000000; stroke-width: 2; stroke-linecap: round"/>
   </g>
   <g id="line2d_21">
    <path d="M 288.654 150.697656 
L 288.654 114.697656 
L 279.654 111.697656 
L 297.654 105.697656 
L 279.654 99.697656 
L 297.654 93.697656 
L 279.654 87.697656 
L 297.654 81.697656 
L 288.654 78.697656 
L 288.654 42.697656 
" clip-path="url(#p4fb4cc1cd8)" style="fill: none; stroke: #000000; stroke-width: 2; stroke-linecap: round"/>
   </g>
   <g id="line2d_22">
    <path d="M 288.654 42.697656 
L 288.654 38.197656 
L 288.654 33.697656 
" clip-path="url(#p4fb4cc1cd8)" style="fill: none; stroke: #000000; stroke-width: 2; stroke-linecap: round"/>
   </g>
   <g id="line2d_23">
    <path d="M 288.654 33.697656 
L 288.654 19.297656 
" clip-path="url(#p4fb4cc1cd8)" style="fill: none; stroke: #000000; stroke-width: 2; stroke-linecap: round"/>
   </g>
   <g id="line2d_24">
    <path d="M 288.654 19.297656 
L 281.904 19.297656 
" clip-path="url(#p4fb4cc1cd8)" style="fill: none; stroke: #000000; stroke-width: 2; stroke-linecap: round"/>
   </g>
   <g id="line2d_25">
    <path d="M 288.654 19.297656 
L 295.404 19.297656 
" clip-path="url(#p4fb4cc1cd8)" style="fill: none; stroke: #000000; stroke-width: 2; stroke-linecap: round"/>
   </g>
   <g id="line2d_26">
    <path d="M 288.654 150.697656 
L 288.654 176.737656 
L 288.654 202.777656 
" clip-path="url(#p4fb4cc1cd8)" style="fill: none; stroke: #000000; stroke-width: 2; stroke-linecap: round"/>
   </g>
   <g id="line2d_27">
    <path d="M 288.654 202.777656 
L 333.654 202.777656 
L 378.654 202.777656 
" clip-path="url(#p4fb4cc1cd8)" style="fill: none; stroke: #000000; stroke-width: 2; stroke-linecap: round"/>
   </g>
   <g id="line2d_28">
    <path d="M 378.654 202.777656 
L 391.854 202.777656 
" clip-path="url(#p4fb4cc1cd8)" style="fill: none; stroke: #000000; stroke-width: 2; stroke-linecap: round"/>
   </g>
   <g id="line2d_29">
    <path d="M 391.854 189.577656 
L 391.854 215.977656 
" clip-path="url(#p4fb4cc1cd8)" style="fill: none; stroke: #000000; stroke-width: 2; stroke-linecap: round"/>
   </g>
   <g id="line2d_30">
    <path d="M 391.854 196.177656 
L 405.714 184.297656 
L 405.714 177.697656 
" clip-path="url(#p4fb4cc1cd8)" style="fill: none; stroke: #000000; stroke-width: 2; stroke-linecap: round"/>
   </g>
   <g id="line2d_31">
    <path d="M 391.854 209.377656 
L 405.714 221.257656 
L 405.714 227.857656 
" clip-path="url(#p4fb4cc1cd8)" style="fill: none; stroke: #000000; stroke-width: 2; stroke-linecap: round"/>
   </g>
   <g id="line2d_32">
    <path d="M 391.854 209.377656 
L 398.880691 215.400534 
" clip-path="url(#p4fb4cc1cd8)" style="fill: none; stroke: #000000; stroke-width: 2; stroke-linecap: round"/>
   </g>
   <g id="patch_4">
    <path d="M 401.22354 212.66721 
L 405.714 221.257656 
L 396.537842 218.133858 
z
" clip-path="url(#p4fb4cc1cd8)"/>
   </g>
   <g id="line2d_33">
    <path d="M 405.714 227.857656 
L 405.714 242.317656 
L 405.714 256.777656 
" clip-path="url(#p4fb4cc1cd8)" style="fill: none; stroke: #000000; stroke-width: 2; stroke-linecap: round"/>
   </g>
   <g id="line2d_34">
    <path d="M 405.714 256.777656 
L 405.714 271.177656 
L 396.714 271.177656 
L 414.714 271.177656 
M 399.414 275.497656 
L 412.014 275.497656 
M 403.914 279.817656 
L 407.514 279.817656 
" clip-path="url(#p4fb4cc1cd8)" style="fill: none; stroke: #000000; stroke-width: 2; stroke-linecap: round"/>
   </g>
   <g id="line2d_35">
    <path d="M 405.714 177.697656 
L 405.714 164.197656 
L 405.714 150.697656 
" clip-path="url(#p4fb4cc1cd8)" style="fill: none; stroke: #000000; stroke-width: 2; stroke-linecap: round"/>
   </g>
   <g id="line2d_36">
    <path d="M 405.714 150.697656 
L 456.474 150.697656 
M 456.474 141.697656 
L 456.474 159.697656 
M 462.954 141.697656 
L 462.954 159.697656 
M 462.954 150.697656 
L 513.714 150.697656 
" clip-path="url(#p4fb4cc1cd8)" style="fill: none; stroke: #000000; stroke-width: 2; stroke-linecap: round"/>
   </g>
   <g id="line2d_37">
    <path d="M 405.714 150.697656 
L 405.714 114.697656 
L 402.749813 114.563587 
L 399.758893 114.155897 
L 396.992083 113.483655 
L 394.681432 112.578118 
L 393.759692 112.053089 
L 393.020729 111.490109 
L 392.480119 110.897889 
L 392.149256 110.285754 
L 392.035116 109.66345 
L 392.140102 109.040936 
L 392.462004 108.428178 
L 392.994035 107.834934 
L 393.724982 107.270551 
L 394.639436 106.743768 
L 396.938309 105.833831 
L 399.69785 105.156314 
L 402.68662 104.742916 
L 405.653957 104.603184 
L 408.350994 104.723714 
L 410.551535 105.069274 
L 412.071024 105.585759 
L 412.532989 105.88712 
L 412.782023 106.204728 
L 412.812878 106.528733 
L 412.624903 106.849147 
L 412.22206 107.15606 
L 410.810085 107.691364 
L 408.695374 108.064627 
L 406.055284 108.21942 
L 403.111236 108.117638 
L 400.110142 107.742693 
L 397.3037 107.100908 
L 394.927281 106.220986 
L 393.964506 105.706255 
L 393.180192 105.151599 
L 392.590869 104.565554 
L 392.208959 103.957314 
L 392.042513 103.336543 
L 392.095038 102.713169 
L 392.365428 102.097174 
L 392.847983 101.498385 
L 393.532532 100.926267 
L 394.404645 100.389721 
L 396.634471 99.455036 
L 399.350447 98.747596 
L 402.324789 98.30161 
L 405.308044 98.129359 
L 408.05001 98.220166 
L 410.320723 98.541292 
L 411.929742 99.04068 
L 412.441431 99.33672 
L 412.74212 99.651324 
L 412.825471 99.974705 
L 412.689725 100.296888 
L 412.337746 100.607926 
L 411.776952 100.898105 
L 410.080352 101.379428 
L 407.742218 101.675367 
L 404.958645 101.735978 
L 401.963087 101.531054 
L 399.006776 101.052659 
L 396.337655 100.31579 
L 394.179578 99.357126 
L 393.350862 98.811285 
L 392.71354 98.231943 
L 392.281045 97.628154 
L 392.062495 97.009487 
L 392.062495 96.385826 
L 392.281045 95.767159 
L 392.71354 95.163369 
L 393.350862 94.584027 
L 394.179578 94.038187 
L 395.18222 93.534196 
L 397.621527 92.680591 
L 400.464202 92.069678 
L 403.471835 91.727569 
L 406.392178 91.657835 
L 408.980309 91.841199 
L 411.019163 92.237161 
L 412.337746 92.787387 
L 412.689725 93.098425 
L 412.825471 93.420608 
L 412.74212 93.743988 
L 412.441431 94.058593 
L 411.929742 94.354633 
L 410.320723 94.854021 
L 408.05001 95.175146 
L 405.308044 95.265953 
L 402.324789 95.093702 
L 399.350447 94.647717 
L 396.634471 93.940277 
L 394.404645 93.005591 
L 393.532532 92.469046 
L 392.847983 91.896928 
L 392.365428 91.298139 
L 392.095038 90.682144 
L 392.042513 90.058769 
L 392.208959 89.437999 
L 392.590869 88.829759 
L 393.180192 88.243713 
L 393.964506 87.689058 
L 394.927281 87.174327 
L 397.3037 86.294404 
L 400.110142 85.65262 
L 403.111236 85.277675 
L 406.055284 85.175893 
L 408.695374 85.330686 
L 410.810085 85.703949 
L 412.22206 86.239253 
L 412.624903 86.546166 
L 412.812878 86.86658 
L 412.782023 87.190584 
L 412.532989 87.508193 
L 412.071024 87.809554 
L 410.551535 88.326039 
L 408.350994 88.671599 
L 405.653957 88.792129 
L 402.68662 88.652397 
L 399.69785 88.238998 
L 396.938309 87.561481 
L 394.639436 86.651544 
L 393.724982 86.124762 
L 392.994035 85.560379 
L 392.462004 84.967135 
L 392.140102 84.354376 
L 392.035116 83.731863 
L 392.149256 83.109559 
L 392.480119 82.497424 
L 393.020729 81.905203 
L 393.759692 81.342224 
L 394.681432 80.817194 
L 396.992083 79.911657 
L 399.758893 79.239416 
L 402.749813 78.831726 
L 405.714 78.697656 
L 405.714 42.697656 
L 405.714 42.697656 
" clip-path="url(#p4fb4cc1cd8)" style="fill: none; stroke: #000000; stroke-width: 2; stroke-linecap: round"/>
   </g>
   <g id="line2d_38">
    <path d="M 405.714 42.697656 
L 405.714 38.197656 
L 405.714 33.697656 
" clip-path="url(#p4fb4cc1cd8)" style="fill: none; stroke: #000000; stroke-width: 2; stroke-linecap: round"/>
   </g>
   <g id="line2d_39">
    <path d="M 405.714 42.697656 
L 405.714 28.297656 
" clip-path="url(#p4fb4cc1cd8)" style="fill: none; stroke: #000000; stroke-width: 2; stroke-linecap: round"/>
   </g>
   <g id="line2d_40">
    <path d="M 405.714 28.297656 
L 398.964 28.297656 
" clip-path="url(#p4fb4cc1cd8)" style="fill: none; stroke: #000000; stroke-width: 2; stroke-linecap: round"/>
   </g>
   <g id="line2d_41">
    <path d="M 405.714 28.297656 
L 412.464 28.297656 
" clip-path="url(#p4fb4cc1cd8)" style="fill: none; stroke: #000000; stroke-width: 2; stroke-linecap: round"/>
   </g>
   <g id="line2d_42">
    <path d="M 513.714 150.697656 
L 513.714 114.697656 
L 504.714 111.697656 
L 522.714 105.697656 
L 504.714 99.697656 
L 522.714 93.697656 
L 504.714 87.697656 
L 522.714 81.697656 
L 513.714 78.697656 
L 513.714 42.697656 
" clip-path="url(#p4fb4cc1cd8)" style="fill: none; stroke: #000000; stroke-width: 2; stroke-linecap: round"/>
   </g>
   <g id="line2d_43">
    <path d="M 513.714 42.697656 
L 513.714 38.197656 
L 513.714 33.697656 
" clip-path="url(#p4fb4cc1cd8)" style="fill: none; stroke: #000000; stroke-width: 2; stroke-linecap: round"/>
   </g>
   <g id="line2d_44">
    <path d="M 513.714 33.697656 
L 513.714 19.297656 
" clip-path="url(#p4fb4cc1cd8)" style="fill: none; stroke: #000000; stroke-width: 2; stroke-linecap: round"/>
   </g>
   <g id="line2d_45">
    <path d="M 513.714 19.297656 
L 506.964 19.297656 
" clip-path="url(#p4fb4cc1cd8)" style="fill: none; stroke: #000000; stroke-width: 2; stroke-linecap: round"/>
   </g>
   <g id="line2d_46">
    <path d="M 513.714 19.297656 
L 520.464 19.297656 
" clip-path="url(#p4fb4cc1cd8)" style="fill: none; stroke: #000000; stroke-width: 2; stroke-linecap: round"/>
   </g>
   <g id="line2d_47">
    <path d="M 513.714 150.697656 
L 513.714 176.737656 
L 513.714 202.777656 
" clip-path="url(#p4fb4cc1cd8)" style="fill: none; stroke: #000000; stroke-width: 2; stroke-linecap: round"/>
   </g>
   <g id="line2d_48">
    <path d="M 513.714 202.777656 
L 558.714 202.777656 
L 603.714 202.777656 
" clip-path="url(#p4fb4cc1cd8)" style="fill: none; stroke: #000000; stroke-width: 2; stroke-linecap: round"/>
   </g>
   <g id="line2d_49">
    <path d="M 603.714 202.777656 
L 616.914 202.777656 
" clip-path="url(#p4fb4cc1cd8)" style="fill: none; stroke: #000000; stroke-width: 2; stroke-linecap: round"/>
   </g>
   <g id="line2d_50">
    <path d="M 616.914 189.577656 
L 616.914 215.977656 
" clip-path="url(#p4fb4cc1cd8)" style="fill: none; stroke: #000000; stroke-width: 2; stroke-linecap: round"/>
   </g>
   <g id="line2d_51">
    <path d="M 616.914 196.177656 
L 630.774 184.297656 
L 630.774 177.697656 
" clip-path="url(#p4fb4cc1cd8)" style="fill: none; stroke: #000000; stroke-width: 2; stroke-linecap: round"/>
   </g>
   <g id="line2d_52">
    <path d="M 616.914 209.377656 
L 630.774 221.257656 
L 630.774 227.857656 
" clip-path="url(#p4fb4cc1cd8)" style="fill: none; stroke: #000000; stroke-width: 2; stroke-linecap: round"/>
   </g>
   <g id="line2d_53">
    <path d="M 616.914 209.377656 
L 623.940691 215.400534 
" clip-path="url(#p4fb4cc1cd8)" style="fill: none; stroke: #000000; stroke-width: 2; stroke-linecap: round"/>
   </g>
   <g id="patch_5">
    <path d="M 626.28354 212.66721 
L 630.774 221.257656 
L 621.597842 218.133858 
z
" clip-path="url(#p4fb4cc1cd8)"/>
   </g>
   <g id="line2d_54">
    <path d="M 630.774 227.857656 
L 630.774 242.317656 
L 630.774 256.777656 
" clip-path="url(#p4fb4cc1cd8)" style="fill: none; stroke: #000000; stroke-width: 2; stroke-linecap: round"/>
   </g>
   <g id="line2d_55">
    <path d="M 630.774 256.777656 
L 630.774 271.177656 
L 621.774 271.177656 
L 639.774 271.177656 
M 624.474 275.497656 
L 637.074 275.497656 
M 628.974 279.817656 
L 632.574 279.817656 
" clip-path="url(#p4fb4cc1cd8)" style="fill: none; stroke: #000000; stroke-width: 2; stroke-linecap: round"/>
   </g>
   <g id="line2d_56">
    <path d="M 630.774 177.697656 
L 630.774 164.197656 
L 630.774 150.697656 
" clip-path="url(#p4fb4cc1cd8)" style="fill: none; stroke: #000000; stroke-width: 2; stroke-linecap: round"/>
   </g>
   <g id="line2d_57">
    <path d="M 630.774 150.697656 
L 630.774 99.937656 
M 621.774 99.937656 
L 639.774 99.937656 
M 621.774 93.457656 
L 639.774 93.457656 
M 630.774 93.457656 
L 630.774 42.697656 
" clip-path="url(#p4fb4cc1cd8)" style="fill: none; stroke: #000000; stroke-width: 2; stroke-linecap: round"/>
   </g>
   <g id="line2d_58">
    <path d="M 630.774 150.697656 
L 608.274 150.697656 
L 585.774 150.697656 
" clip-path="url(#p4fb4cc1cd8)" style="fill: none; stroke: #000000; stroke-width: 2; stroke-linecap: round"/>
   </g>
   <g id="line2d_59">
    <path d="M 585.774 150.697656 
L 585.774 114.697656 
L 582.809813 114.563587 
L 579.818893 114.155897 
L 577.052083 113.483655 
L 574.741432 112.578118 
L 573.819692 112.053089 
L 573.080729 111.490109 
L 572.540119 110.897889 
L 572.209256 110.285754 
L 572.095116 109.66345 
L 572.200102 109.040936 
L 572.522004 108.428178 
L 573.054035 107.834934 
L 573.784982 107.270551 
L 574.699436 106.743768 
L 576.998309 105.833831 
L 579.75785 105.156314 
L 582.74662 104.742916 
L 585.713957 104.603184 
L 588.410994 104.723714 
L 590.611535 105.069274 
L 592.131024 105.585759 
L 592.592989 105.88712 
L 592.842023 106.204728 
L 592.872878 106.528733 
L 592.684903 106.849147 
L 592.28206 107.15606 
L 590.870085 107.691364 
L 588.755374 108.064627 
L 586.115284 108.21942 
L 583.171236 108.117638 
L 580.170142 107.742693 
L 577.3637 107.100908 
L 574.987281 106.220986 
L 574.024506 105.706255 
L 573.240192 105.151599 
L 572.650869 104.565554 
L 572.268959 103.957314 
L 572.102513 103.336543 
L 572.155038 102.713169 
L 572.425428 102.097174 
L 572.907983 101.498385 
L 573.592532 100.926267 
L 574.464645 100.389721 
L 576.694471 99.455036 
L 579.410447 98.747596 
L 582.384789 98.30161 
L 585.368044 98.129359 
L 588.11001 98.220166 
L 590.380723 98.541292 
L 591.989742 99.04068 
L 592.501431 99.33672 
L 592.80212 99.651324 
L 592.885471 99.974705 
L 592.749725 100.296888 
L 592.397746 100.607926 
L 591.836952 100.898105 
L 590.140352 101.379428 
L 587.802218 101.675367 
L 585.018645 101.735978 
L 582.023087 101.531054 
L 579.066776 101.052659 
L 576.397655 100.31579 
L 574.239578 99.357126 
L 573.410862 98.811285 
L 572.77354 98.231943 
L 572.341045 97.628154 
L 572.122495 97.009487 
L 572.122495 96.385826 
L 572.341045 95.767159 
L 572.77354 95.163369 
L 573.410862 94.584027 
L 574.239578 94.038187 
L 575.24222 93.534196 
L 577.681527 92.680591 
L 580.524202 92.069678 
L 583.531835 91.727569 
L 586.452178 91.657835 
L 589.040309 91.841199 
L 591.079163 92.237161 
L 592.397746 92.787387 
L 592.749725 93.098425 
L 592.885471 93.420608 
L 592.80212 93.743988 
L 592.501431 94.058593 
L 591.989742 94.354633 
L 590.380723 94.854021 
L 588.11001 95.175146 
L 585.368044 95.265953 
L 582.384789 95.093702 
L 579.410447 94.647717 
L 576.694471 93.940277 
L 574.464645 93.005591 
L 573.592532 92.469046 
L 572.907983 91.896928 
L 572.425428 91.298139 
L 572.155038 90.682144 
L 572.102513 90.058769 
L 572.268959 89.437999 
L 572.650869 88.829759 
L 573.240192 88.243713 
L 574.024506 87.689058 
L 574.987281 87.174327 
L 577.3637 86.294404 
L 580.170142 85.65262 
L 583.171236 85.277675 
L 586.115284 85.175893 
L 588.755374 85.330686 
L 590.870085 85.703949 
L 592.28206 86.239253 
L 592.684903 86.546166 
L 592.872878 86.86658 
L 592.842023 87.190584 
L 592.592989 87.508193 
L 592.131024 87.809554 
L 590.611535 88.326039 
L 588.410994 88.671599 
L 585.713957 88.792129 
L 582.74662 88.652397 
L 579.75785 88.238998 
L 576.998309 87.561481 
L 574.699436 86.651544 
L 573.784982 86.124762 
L 573.054035 85.560379 
L 572.522004 84.967135 
L 572.200102 84.354376 
L 572.095116 83.731863 
L 572.209256 83.109559 
L 572.540119 82.497424 
L 573.080729 81.905203 
L 573.819692 81.342224 
L 574.741432 80.817194 
L 577.052083 79.911657 
L 579.818893 79.239416 
L 582.809813 78.831726 
L 585.774 78.697656 
L 585.774 42.697656 
L 585.774 42.697656 
" clip-path="url(#p4fb4cc1cd8)" style="fill: none; stroke: #000000; stroke-width: 2; stroke-linecap: round"/>
   </g>
   <g id="line2d_60">
    <path d="M 630.774 150.697656 
L 653.274 150.697656 
L 675.774 150.697656 
" clip-path="url(#p4fb4cc1cd8)" style="fill: none; stroke: #000000; stroke-width: 2; stroke-linecap: round"/>
   </g>
   <g id="line2d_61">
    <path d="M 675.774 150.697656 
L 675.774 114.697656 
L 666.774 111.697656 
L 684.774 105.697656 
L 666.774 99.697656 
L 684.774 93.697656 
L 666.774 87.697656 
L 684.774 81.697656 
L 675.774 78.697656 
L 675.774 42.697656 
" clip-path="url(#p4fb4cc1cd8)" style="fill: none; stroke: #000000; stroke-width: 2; stroke-linecap: round"/>
   </g>
   <g id="line2d_62">
    <path d="M 675.774 150.697656 
L 684.774 150.697656 
L 693.774 150.697656 
" clip-path="url(#p4fb4cc1cd8)" style="fill: none; stroke: #000000; stroke-width: 2; stroke-linecap: round"/>
   </g>
   <g id="line2d_63">
    <path d="M 675.774 42.697656 
L 653.274 42.697656 
L 630.774 42.697656 
" clip-path="url(#p4fb4cc1cd8)" style="fill: none; stroke: #000000; stroke-width: 2; stroke-linecap: round"/>
   </g>
   <g id="line2d_64">
    <path d="M 585.774 42.697656 
L 608.274 42.697656 
L 630.774 42.697656 
" clip-path="url(#p4fb4cc1cd8)" style="fill: none; stroke: #000000; stroke-width: 2; stroke-linecap: round"/>
   </g>
   <g id="line2d_65">
    <path d="M 630.774 42.697656 
L 630.774 38.197656 
L 630.774 33.697656 
" clip-path="url(#p4fb4cc1cd8)" style="fill: none; stroke: #000000; stroke-width: 2; stroke-linecap: round"/>
   </g>
   <g id="line2d_66">
    <path d="M 630.774 33.697656 
L 630.774 19.297656 
" clip-path="url(#p4fb4cc1cd8)" style="fill: none; stroke: #000000; stroke-width: 2; stroke-linecap: round"/>
   </g>
   <g id="line2d_67">
    <path d="M 630.774 19.297656 
L 624.024 19.297656 
" clip-path="url(#p4fb4cc1cd8)" style="fill: none; stroke: #000000; stroke-width: 2; stroke-linecap: round"/>
   </g>
   <g id="line2d_68">
    <path d="M 630.774 19.297656 
L 637.524 19.297656 
" clip-path="url(#p4fb4cc1cd8)" style="fill: none; stroke: #000000; stroke-width: 2; stroke-linecap: round"/>
   </g>
   <g id="text_1">
    <!-- $R_{in}$ -->
    <g transform="translate(91.0315 187.578047) scale(0.125 -0.125)">
     <defs>
      <path id="DejaVuSans-Oblique-52" d="M 1613 4147 
L 1294 2491 
L 2106 2491 
Q 2584 2491 2879 2755 
Q 3175 3019 3175 3444 
Q 3175 3784 2976 3965 
Q 2778 4147 2406 4147 
L 1613 4147 
z
M 2772 2241 
Q 2972 2194 3105 2009 
Q 3238 1825 3413 1275 
L 3809 0 
L 3144 0 
L 2778 1197 
Q 2638 1659 2453 1815 
Q 2269 1972 1888 1972 
L 1191 1972 
L 806 0 
L 172 0 
L 1081 4666 
L 2503 4666 
Q 3150 4666 3495 4373 
Q 3841 4081 3841 3531 
Q 3841 3044 3547 2687 
Q 3253 2331 2772 2241 
z
" transform="scale(0.015625)"/>
      <path id="DejaVuSans-Oblique-69" d="M 1172 4863 
L 1747 4863 
L 1606 4134 
L 1031 4134 
L 1172 4863 
z
M 909 3500 
L 1484 3500 
L 800 0 
L 225 0 
L 909 3500 
z
" transform="scale(0.015625)"/>
      <path id="DejaVuSans-Oblique-6e" d="M 3566 2113 
L 3156 0 
L 2578 0 
L 2988 2091 
Q 3016 2238 3031 2350 
Q 3047 2463 3047 2528 
Q 3047 2791 2881 2937 
Q 2716 3084 2419 3084 
Q 1956 3084 1622 2776 
Q 1288 2469 1184 1941 
L 800 0 
L 225 0 
L 903 3500 
L 1478 3500 
L 1363 2950 
Q 1603 3253 1940 3418 
Q 2278 3584 2650 3584 
Q 3113 3584 3367 3334 
Q 3622 3084 3622 2631 
Q 3622 2519 3608 2391 
Q 3594 2263 3566 2113 
z
" transform="scale(0.015625)"/>
     </defs>
     <use xlink:href="#DejaVuSans-Oblique-52" transform="translate(0 0.09375)"/>
     <use xlink:href="#DejaVuSans-Oblique-69" transform="translate(69.482422 -16.3125) scale(0.7)"/>
     <use xlink:href="#DejaVuSans-Oblique-6e" transform="translate(88.930664 -16.3125) scale(0.7)"/>
    </g>
   </g>
   <g id="text_2">
    <!-- $V_{in}$ -->
    <g transform="translate(17.919 233.226875) scale(0.125 -0.125)">
     <defs>
      <path id="DejaVuSans-Oblique-56" d="M 1319 0 
L 500 4666 
L 1119 4666 
L 1797 653 
L 4063 4666 
L 4750 4666 
L 2053 0 
L 1319 0 
z
" transform="scale(0.015625)"/>
     </defs>
     <use xlink:href="#DejaVuSans-Oblique-56" transform="translate(0 0.09375)"/>
     <use xlink:href="#DejaVuSans-Oblique-69" transform="translate(68.408203 -16.3125) scale(0.7)"/>
     <use xlink:href="#DejaVuSans-Oblique-6e" transform="translate(87.856445 -16.3125) scale(0.7)"/>
    </g>
   </g>
   <g id="text_3">
    <!-- $C_1$ -->
    <g transform="translate(227.279 135.498047) scale(0.125 -0.125)">
     <defs>
      <path id="DejaVuSans-Oblique-43" d="M 4447 4306 
L 4319 3641 
Q 4019 3944 3683 4091 
Q 3347 4238 2956 4238 
Q 2422 4238 2017 3981 
Q 1613 3725 1319 3200 
Q 1131 2863 1032 2486 
Q 934 2109 934 1728 
Q 934 1091 1264 756 
Q 1594 422 2222 422 
Q 2656 422 3056 561 
Q 3456 700 3834 978 
L 3688 231 
Q 3316 72 2936 -9 
Q 2556 -91 2175 -91 
Q 1278 -91 773 396 
Q 269 884 269 1753 
Q 269 2309 461 2846 
Q 653 3384 1013 3828 
Q 1394 4300 1883 4525 
Q 2372 4750 3022 4750 
Q 3422 4750 3780 4639 
Q 4138 4528 4447 4306 
z
" transform="scale(0.015625)"/>
      <path id="DejaVuSans-31" d="M 794 531 
L 1825 531 
L 1825 4091 
L 703 3866 
L 703 4441 
L 1819 4666 
L 2450 4666 
L 2450 531 
L 3481 531 
L 3481 0 
L 794 0 
L 794 531 
z
" transform="scale(0.015625)"/>
     </defs>
     <use xlink:href="#DejaVuSans-Oblique-43" transform="translate(0 0.78125)"/>
     <use xlink:href="#DejaVuSans-31" transform="translate(69.824219 -15.625) scale(0.7)"/>
    </g>
   </g>
   <g id="text_4">
    <!-- $L_1$ -->
    <g transform="translate(150.500116 100.146875) scale(0.125 -0.125)">
     <defs>
      <path id="DejaVuSans-Oblique-4c" d="M 1075 4666 
L 1709 4666 
L 909 525 
L 3181 525 
L 3078 0 
L 172 0 
L 1075 4666 
z
" transform="scale(0.015625)"/>
     </defs>
     <use xlink:href="#DejaVuSans-Oblique-4c" transform="translate(0 0.09375)"/>
     <use xlink:href="#DejaVuSans-31" transform="translate(55.712891 -16.3125) scale(0.7)"/>
    </g>
   </g>
   <g id="text_5">
    <!-- $V_{dd}$ -->
    <g transform="translate(170.5915 22.098047) scale(0.125 -0.125)">
     <defs>
      <path id="DejaVuSans-Oblique-64" d="M 2675 525 
Q 2444 222 2128 65 
Q 1813 -91 1428 -91 
Q 903 -91 598 267 
Q 294 625 294 1247 
Q 294 1766 478 2236 
Q 663 2706 1013 3078 
Q 1244 3325 1534 3454 
Q 1825 3584 2144 3584 
Q 2481 3584 2739 3421 
Q 2997 3259 3138 2956 
L 3513 4863 
L 4091 4863 
L 3144 0 
L 2566 0 
L 2675 525 
z
M 891 1350 
Q 891 897 1095 644 
Q 1300 391 1663 391 
Q 1931 391 2161 520 
Q 2391 650 2566 903 
Q 2750 1166 2856 1509 
Q 2963 1853 2963 2188 
Q 2963 2622 2758 2865 
Q 2553 3109 2194 3109 
Q 1922 3109 1687 2981 
Q 1453 2853 1288 2613 
Q 1106 2353 998 2009 
Q 891 1666 891 1350 
z
" transform="scale(0.015625)"/>
     </defs>
     <use xlink:href="#DejaVuSans-Oblique-56" transform="translate(0 0.09375)"/>
     <use xlink:href="#DejaVuSans-Oblique-64" transform="translate(68.408203 -16.3125) scale(0.7)"/>
     <use xlink:href="#DejaVuSans-Oblique-64" transform="translate(112.841797 -16.3125) scale(0.7)"/>
    </g>
   </g>
   <g id="text_6">
    <!-- $R_{b2}$ -->
    <g transform="translate(255.804 100.146875) scale(0.125 -0.125)">
     <defs>
      <path id="DejaVuSans-Oblique-62" d="M 3169 2138 
Q 3169 2591 2961 2847 
Q 2753 3103 2388 3103 
Q 2122 3103 1889 2973 
Q 1656 2844 1484 2597 
Q 1303 2338 1198 1995 
Q 1094 1653 1094 1313 
Q 1094 881 1298 636 
Q 1503 391 1863 391 
Q 2134 391 2365 517 
Q 2597 644 2772 891 
Q 2950 1147 3059 1487 
Q 3169 1828 3169 2138 
z
M 1381 2969 
Q 1594 3256 1914 3420 
Q 2234 3584 2584 3584 
Q 3122 3584 3439 3221 
Q 3756 2859 3756 2241 
Q 3756 1734 3570 1259 
Q 3384 784 3041 416 
Q 2816 172 2522 40 
Q 2228 -91 1906 -91 
Q 1566 -91 1316 65 
Q 1066 222 909 531 
L 806 0 
L 231 0 
L 1178 4863 
L 1753 4863 
L 1381 2969 
z
" transform="scale(0.015625)"/>
      <path id="DejaVuSans-32" d="M 1228 531 
L 3431 531 
L 3431 0 
L 469 0 
L 469 531 
Q 828 903 1448 1529 
Q 2069 2156 2228 2338 
Q 2531 2678 2651 2914 
Q 2772 3150 2772 3378 
Q 2772 3750 2511 3984 
Q 2250 4219 1831 4219 
Q 1534 4219 1204 4116 
Q 875 4013 500 3803 
L 500 4441 
Q 881 4594 1212 4672 
Q 1544 4750 1819 4750 
Q 2544 4750 2975 4387 
Q 3406 4025 3406 3419 
Q 3406 3131 3298 2873 
Q 3191 2616 2906 2266 
Q 2828 2175 2409 1742 
Q 1991 1309 1228 531 
z
" transform="scale(0.015625)"/>
     </defs>
     <use xlink:href="#DejaVuSans-Oblique-52" transform="translate(0 0.09375)"/>
     <use xlink:href="#DejaVuSans-Oblique-62" transform="translate(69.482422 -16.3125) scale(0.7)"/>
     <use xlink:href="#DejaVuSans-32" transform="translate(113.916016 -16.3125) scale(0.7)"/>
    </g>
   </g>
   <g id="text_7">
    <!-- $V_{dd}$ -->
    <g transform="translate(278.5915 13.098047) scale(0.125 -0.125)">
     <use xlink:href="#DejaVuSans-Oblique-56" transform="translate(0 0.09375)"/>
     <use xlink:href="#DejaVuSans-Oblique-64" transform="translate(68.408203 -16.3125) scale(0.7)"/>
     <use xlink:href="#DejaVuSans-Oblique-64" transform="translate(112.841797 -16.3125) scale(0.7)"/>
    </g>
   </g>
   <g id="text_8">
    <!-- $C_2$ -->
    <g transform="translate(452.339 135.498047) scale(0.125 -0.125)">
     <use xlink:href="#DejaVuSans-Oblique-43" transform="translate(0 0.78125)"/>
     <use xlink:href="#DejaVuSans-32" transform="translate(69.824219 -15.625) scale(0.7)"/>
    </g>
   </g>
   <g id="text_9">
    <!-- $L_2$ -->
    <g transform="translate(375.560116 100.146875) scale(0.125 -0.125)">
     <use xlink:href="#DejaVuSans-Oblique-4c" transform="translate(0 0.09375)"/>
     <use xlink:href="#DejaVuSans-32" transform="translate(55.712891 -16.3125) scale(0.7)"/>
    </g>
   </g>
   <g id="text_10">
    <!-- $V_{dd}$ -->
    <g transform="translate(395.6515 22.098047) scale(0.125 -0.125)">
     <use xlink:href="#DejaVuSans-Oblique-56" transform="translate(0 0.09375)"/>
     <use xlink:href="#DejaVuSans-Oblique-64" transform="translate(68.408203 -16.3125) scale(0.7)"/>
     <use xlink:href="#DejaVuSans-Oblique-64" transform="translate(112.841797 -16.3125) scale(0.7)"/>
    </g>
   </g>
   <g id="text_11">
    <!-- $R_{b3}$ -->
    <g transform="translate(480.864 100.146875) scale(0.125 -0.125)">
     <defs>
      <path id="DejaVuSans-33" d="M 2597 2516 
Q 3050 2419 3304 2112 
Q 3559 1806 3559 1356 
Q 3559 666 3084 287 
Q 2609 -91 1734 -91 
Q 1441 -91 1130 -33 
Q 819 25 488 141 
L 488 750 
Q 750 597 1062 519 
Q 1375 441 1716 441 
Q 2309 441 2620 675 
Q 2931 909 2931 1356 
Q 2931 1769 2642 2001 
Q 2353 2234 1838 2234 
L 1294 2234 
L 1294 2753 
L 1863 2753 
Q 2328 2753 2575 2939 
Q 2822 3125 2822 3475 
Q 2822 3834 2567 4026 
Q 2313 4219 1838 4219 
Q 1578 4219 1281 4162 
Q 984 4106 628 3988 
L 628 4550 
Q 988 4650 1302 4700 
Q 1616 4750 1894 4750 
Q 2613 4750 3031 4423 
Q 3450 4097 3450 3541 
Q 3450 3153 3228 2886 
Q 3006 2619 2597 2516 
z
" transform="scale(0.015625)"/>
     </defs>
     <use xlink:href="#DejaVuSans-Oblique-52" transform="translate(0 0.09375)"/>
     <use xlink:href="#DejaVuSans-Oblique-62" transform="translate(69.482422 -16.3125) scale(0.7)"/>
     <use xlink:href="#DejaVuSans-33" transform="translate(113.916016 -16.3125) scale(0.7)"/>
    </g>
   </g>
   <g id="text_12">
    <!-- $V_{dd}$ -->
    <g transform="translate(503.6515 13.098047) scale(0.125 -0.125)">
     <use xlink:href="#DejaVuSans-Oblique-56" transform="translate(0 0.09375)"/>
     <use xlink:href="#DejaVuSans-Oblique-64" transform="translate(68.408203 -16.3125) scale(0.7)"/>
     <use xlink:href="#DejaVuSans-Oblique-64" transform="translate(112.841797 -16.3125) scale(0.7)"/>
    </g>
   </g>
   <g id="text_13">
    <!-- $C_3$ -->
    <g transform="translate(603.424 100.146875) scale(0.125 -0.125)">
     <use xlink:href="#DejaVuSans-Oblique-43" transform="translate(0 0.78125)"/>
     <use xlink:href="#DejaVuSans-33" transform="translate(69.824219 -15.625) scale(0.7)"/>
    </g>
   </g>
   <g id="text_14">
    <!-- $L_3$ -->
    <g transform="translate(555.620116 100.146875) scale(0.125 -0.125)">
     <use xlink:href="#DejaVuSans-Oblique-4c" transform="translate(0 0.09375)"/>
     <use xlink:href="#DejaVuSans-33" transform="translate(55.712891 -16.3125) scale(0.7)"/>
    </g>
   </g>
   <g id="text_15">
    <!-- $R_L$ -->
    <g transform="translate(649.174 100.146875) scale(0.125 -0.125)">
     <use xlink:href="#DejaVuSans-Oblique-52" transform="translate(0 0.09375)"/>
     <use xlink:href="#DejaVuSans-Oblique-4c" transform="translate(69.482422 -16.3125) scale(0.7)"/>
    </g>
   </g>
   <g id="text_16">
    <!-- $V_{dd}$ -->
    <g transform="translate(620.7115 13.098047) scale(0.125 -0.125)">
     <use xlink:href="#DejaVuSans-Oblique-56" transform="translate(0 0.09375)"/>
     <use xlink:href="#DejaVuSans-Oblique-64" transform="translate(68.408203 -16.3125) scale(0.7)"/>
     <use xlink:href="#DejaVuSans-Oblique-64" transform="translate(112.841797 -16.3125) scale(0.7)"/>
    </g>
   </g>
   <g id="patch_6">
    <path d="M 180.654 153.397656 
C 181.370048 153.397656 182.056866 153.113167 182.563188 152.606845 
C 183.069511 152.100522 183.354 151.413705 183.354 150.697656 
C 183.354 149.981608 183.069511 149.294791 182.563188 148.788468 
C 182.056866 148.282145 181.370048 147.997656 180.654 147.997656 
C 179.937952 147.997656 179.251134 148.282145 178.744812 148.788468 
C 178.238489 149.294791 177.954 149.981608 177.954 150.697656 
C 177.954 151.413705 178.238489 152.100522 178.744812 152.606845 
C 179.251134 153.113167 179.937952 153.397656 180.654 153.397656 
z
" clip-path="url(#p4fb4cc1cd8)" style="stroke: #000000; stroke-width: 2; stroke-linejoin: miter"/>
   </g>
   <g id="patch_7">
    <path d="M 288.654 153.397656 
C 289.370048 153.397656 290.056866 153.113167 290.563188 152.606845 
C 291.069511 152.100522 291.354 151.413705 291.354 150.697656 
C 291.354 149.981608 291.069511 149.294791 290.563188 148.788468 
C 290.056866 148.282145 289.370048 147.997656 288.654 147.997656 
C 287.937952 147.997656 287.251134 148.282145 286.744812 148.788468 
C 286.238489 149.294791 285.954 149.981608 285.954 150.697656 
C 285.954 151.413705 286.238489 152.100522 286.744812 152.606845 
C 287.251134 153.113167 287.937952 153.397656 288.654 153.397656 
z
" clip-path="url(#p4fb4cc1cd8)" style="stroke: #000000; stroke-width: 2; stroke-linejoin: miter"/>
   </g>
   <g id="patch_8">
    <path d="M 405.714 153.397656 
C 406.430048 153.397656 407.116866 153.113167 407.623188 152.606845 
C 408.129511 152.100522 408.414 151.413705 408.414 150.697656 
C 408.414 149.981608 408.129511 149.294791 407.623188 148.788468 
C 407.116866 148.282145 406.430048 147.997656 405.714 147.997656 
C 404.997952 147.997656 404.311134 148.282145 403.804812 148.788468 
C 403.298489 149.294791 403.014 149.981608 403.014 150.697656 
C 403.014 151.413705 403.298489 152.100522 403.804812 152.606845 
C 404.311134 153.113167 404.997952 153.397656 405.714 153.397656 
z
" clip-path="url(#p4fb4cc1cd8)" style="stroke: #000000; stroke-width: 2; stroke-linejoin: miter"/>
   </g>
   <g id="patch_9">
    <path d="M 513.714 153.397656 
C 514.430048 153.397656 515.116866 153.113167 515.623188 152.606845 
C 516.129511 152.100522 516.414 151.413705 516.414 150.697656 
C 516.414 149.981608 516.129511 149.294791 515.623188 148.788468 
C 515.116866 148.282145 514.430048 147.997656 513.714 147.997656 
C 512.997952 147.997656 512.311134 148.282145 511.804812 148.788468 
C 511.298489 149.294791 511.014 149.981608 511.014 150.697656 
C 511.014 151.413705 511.298489 152.100522 511.804812 152.606845 
C 512.311134 153.113167 512.997952 153.397656 513.714 153.397656 
z
" clip-path="url(#p4fb4cc1cd8)" style="stroke: #000000; stroke-width: 2; stroke-linejoin: miter"/>
   </g>
   <g id="patch_10">
    <path d="M 630.774 153.397656 
C 631.490048 153.397656 632.176866 153.113167 632.683188 152.606845 
C 633.189511 152.100522 633.474 151.413705 633.474 150.697656 
C 633.474 149.981608 633.189511 149.294791 632.683188 148.788468 
C 632.176866 148.282145 631.490048 147.997656 630.774 147.997656 
C 630.057952 147.997656 629.371134 148.282145 628.864812 148.788468 
C 628.358489 149.294791 628.074 149.981608 628.074 150.697656 
C 628.074 151.413705 628.358489 152.100522 628.864812 152.606845 
C 629.371134 153.113167 630.057952 153.397656 630.774 153.397656 
z
" clip-path="url(#p4fb4cc1cd8)" style="stroke: #000000; stroke-width: 2; stroke-linejoin: miter"/>
   </g>
   <g id="patch_11">
    <path d="M 693.774 153.397656 
C 694.490048 153.397656 695.176866 153.113167 695.683188 152.606845 
C 696.189511 152.100522 696.474 151.413705 696.474 150.697656 
C 696.474 149.981608 696.189511 149.294791 695.683188 148.788468 
C 695.176866 148.282145 694.490048 147.997656 693.774 147.997656 
C 693.057952 147.997656 692.371134 148.282145 691.864812 148.788468 
C 691.358489 149.294791 691.074 149.981608 691.074 150.697656 
C 691.074 151.413705 691.358489 152.100522 691.864812 152.606845 
C 692.371134 153.113167 693.057952 153.397656 693.774 153.397656 
z
" clip-path="url(#p4fb4cc1cd8)" style="fill: #ffffff; stroke: #000000; stroke-width: 2; stroke-linejoin: miter"/>
   </g>
   <g id="text_17">
    <!-- $v_{out}$ -->
    <g transform="translate(700.074 154.146875) scale(0.125 -0.125)">
     <defs>
      <path id="DejaVuSans-Oblique-76" d="M 459 3500 
L 1069 3500 
L 1581 525 
L 3256 3500 
L 3866 3500 
L 1875 0 
L 1100 0 
L 459 3500 
z
" transform="scale(0.015625)"/>
      <path id="DejaVuSans-Oblique-6f" d="M 1625 -91 
Q 1009 -91 651 289 
Q 294 669 294 1325 
Q 294 1706 417 2101 
Q 541 2497 738 2766 
Q 1047 3184 1428 3384 
Q 1809 3584 2291 3584 
Q 2888 3584 3255 3212 
Q 3622 2841 3622 2241 
Q 3622 1825 3500 1412 
Q 3378 1000 3181 728 
Q 2875 309 2494 109 
Q 2113 -91 1625 -91 
z
M 891 1344 
Q 891 869 1089 633 
Q 1288 397 1691 397 
Q 2269 397 2648 901 
Q 3028 1406 3028 2181 
Q 3028 2634 2825 2865 
Q 2622 3097 2228 3097 
Q 1903 3097 1650 2945 
Q 1397 2794 1197 2484 
Q 1050 2253 970 1956 
Q 891 1659 891 1344 
z
" transform="scale(0.015625)"/>
      <path id="DejaVuSans-Oblique-75" d="M 428 1388 
L 838 3500 
L 1416 3500 
L 1006 1409 
Q 975 1256 961 1147 
Q 947 1038 947 966 
Q 947 700 1109 554 
Q 1272 409 1569 409 
Q 2031 409 2368 721 
Q 2706 1034 2809 1563 
L 3194 3500 
L 3769 3500 
L 3091 0 
L 2516 0 
L 2631 550 
Q 2388 244 2052 76 
Q 1716 -91 1338 -91 
Q 878 -91 622 161 
Q 366 413 366 863 
Q 366 956 381 1097 
Q 397 1238 428 1388 
z
" transform="scale(0.015625)"/>
      <path id="DejaVuSans-Oblique-74" d="M 2706 3500 
L 2619 3053 
L 1472 3053 
L 1100 1153 
Q 1081 1047 1072 975 
Q 1063 903 1063 863 
Q 1063 663 1183 572 
Q 1303 481 1569 481 
L 2150 481 
L 2053 0 
L 1503 0 
Q 991 0 739 200 
Q 488 400 488 806 
Q 488 878 497 964 
Q 506 1050 525 1153 
L 897 3053 
L 409 3053 
L 500 3500 
L 978 3500 
L 1172 4494 
L 1747 4494 
L 1556 3500 
L 2706 3500 
z
" transform="scale(0.015625)"/>
     </defs>
     <use xlink:href="#DejaVuSans-Oblique-76" transform="translate(0 0.3125)"/>
     <use xlink:href="#DejaVuSans-Oblique-6f" transform="translate(59.179688 -16.09375) scale(0.7)"/>
     <use xlink:href="#DejaVuSans-Oblique-75" transform="translate(102.006836 -16.09375) scale(0.7)"/>
     <use xlink:href="#DejaVuSans-Oblique-74" transform="translate(146.37207 -16.09375) scale(0.7)"/>
    </g>
   </g>
   <g id="patch_12">
    <path d="M 630.774 45.397656 
C 631.490048 45.397656 632.176866 45.113167 632.683188 44.606845 
C 633.189511 44.100522 633.474 43.413705 633.474 42.697656 
C 633.474 41.981608 633.189511 41.294791 632.683188 40.788468 
C 632.176866 40.282145 631.490048 39.997656 630.774 39.997656 
C 630.057952 39.997656 629.371134 40.282145 628.864812 40.788468 
C 628.358489 41.294791 628.074 41.981608 628.074 42.697656 
C 628.074 43.413705 628.358489 44.100522 628.864812 44.606845 
C 629.371134 45.113167 630.057952 45.397656 630.774 45.397656 
z
" clip-path="url(#p4fb4cc1cd8)" style="stroke: #000000; stroke-width: 2; stroke-linejoin: miter"/>
   </g>
  </g>
 </g>
 <defs>
  <clipPath id="p4fb4cc1cd8">
   <rect x="3.6" y="6.271656" width="725.868" height="286.572"/>
  </clipPath>
 </defs>
</svg>