<?xml version="1.0" encoding="utf-8" standalone="no"?>
<!DOCTYPE svg PUBLIC "-//W3C//DTD SVG 1.1//EN"
  "http://www.w3.org/Graphics/SVG/1.1/DTD/svg11.dtd">
<svg xmlns:xlink="http://www.w3.org/1999/xlink" width="383.7522pt" height="171.582pt" viewBox="0 0 383.7522 171.582" xmlns="http://www.w3.org/2000/svg" version="1.1">
 <metadata>
  <rdf:RDF xmlns:dc="http://purl.org/dc/elements/1.1/" xmlns:cc="http://creativecommons.org/ns#" xmlns:rdf="http://www.w3.org/1999/02/22-rdf-syntax-ns#">
   <cc:Work>
    <dc:type rdf:resource="http://purl.org/dc/dcmitype/StillImage"/>
    <dc:date>2022-11-04T21:55:40.701070</dc:date>
    <dc:format>image/svg+xml</dc:format>
    <dc:creator>
     <cc:Agent>
      <dc:title>Matplotlib v3.5.3, https://matplotlib.org/</dc:title>
     </cc:Agent>
    </dc:creator>
   </cc:Work>
  </rdf:RDF>
 </metadata>
 <defs>
  <style type="text/css">*{stroke-linejoin: round; stroke-linecap: butt}</style>
 </defs>
 <g id="figure_1">
  <g id="patch_1">
   <path d="M 0 171.582 
L 383.7522 171.582 
L 383.7522 0 
L 0 0 
L 0 171.582 
z
" style="fill: none"/>
  </g>
  <g id="axes_1">
   <g id="patch_2">
    <path d="M 68.2878 43.818 
C 69.910302 43.818 71.468011 43.172776 72.615294 42.025494 
C 73.762576 40.878211 74.4078 39.320502 74.4078 37.698 
C 74.4078 36.075498 73.762576 34.517789 72.615294 33.370506 
C 71.468011 32.223224 69.910302 31.578 68.2878 31.578 
" clip-path="url(#pf0f01fdbcd)" style="fill: none; stroke: #000000; stroke-width: 2; stroke-linejoin: miter"/>
   </g>
   <g id="patch_3">
    <path d="M 68.2878 56.058 
C 69.910302 56.058 71.468011 55.412776 72.615294 54.265494 
C 73.762576 53.118211 74.4078 51.560502 74.4078 49.938 
C 74.4078 48.315498 73.762576 46.757789 72.615294 45.610506 
C 71.468011 44.463224 69.910302 43.818 68.2878 43.818 
" clip-path="url(#pf0f01fdbcd)" style="fill: none; stroke: #000000; stroke-width: 2; stroke-linejoin: miter"/>
   </g>
   <g id="patch_4">
    <path d="M 68.2878 68.298 
C 69.910302 68.298 71.468011 67.652776 72.615294 66.505494 
C 73.762576 65.358211 74.4078 63.800502 74.4078 62.178 
C 74.4078 60.555498 73.762576 58.997789 72.615294 57.850506 
C 71.468011 56.703224 69.910302 56.058 68.2878 56.058 
" clip-path="url(#pf0f01fdbcd)" style="fill: none; stroke: #000000; stroke-width: 2; stroke-linejoin: miter"/>
   </g>
   <g id="patch_5">
    <path d="M 68.2878 80.538 
C 69.910302 80.538 71.468011 79.892776 72.615294 78.745494 
C 73.762576 77.598211 74.4078 76.040502 74.4078 74.418 
C 74.4078 72.795498 73.762576 71.237789 72.615294 70.090506 
C 71.468011 68.943224 69.910302 68.298 68.2878 68.298 
" clip-path="url(#pf0f01fdbcd)" style="fill: none; stroke: #000000; stroke-width: 2; stroke-linejoin: miter"/>
   </g>
   <g id="patch_6">
    <path d="M 68.2878 92.778 
C 69.910302 92.778 71.468011 92.132776 72.615294 90.985494 
C 73.762576 89.838211 74.4078 88.280502 74.4078 86.658 
C 74.4078 85.035498 73.762576 83.477789 72.615294 82.330506 
C 71.468011 81.183224 69.910302 80.538 68.2878 80.538 
" clip-path="url(#pf0f01fdbcd)" style="fill: none; stroke: #000000; stroke-width: 2; stroke-linejoin: miter"/>
   </g>
   <g id="patch_7">
    <path d="M 98.8878 43.818 
C 97.265298 43.818 95.707589 44.463224 94.560306 45.610506 
C 93.413024 46.757789 92.7678 48.315498 92.7678 49.938 
C 92.7678 51.560502 93.413024 53.118211 94.560306 54.265494 
C 95.707589 55.412776 97.265298 56.058 98.8878 56.058 
" clip-path="url(#pf0f01fdbcd)" style="fill: none; stroke: #000000; stroke-width: 2; stroke-linejoin: miter"/>
   </g>
   <g id="patch_8">
    <path d="M 98.8878 56.058 
C 97.265298 56.058 95.707589 56.703224 94.560306 57.850506 
C 93.413024 58.997789 92.7678 60.555498 92.7678 62.178 
C 92.7678 63.800502 93.413024 65.358211 94.560306 66.505494 
C 95.707589 67.652776 97.265298 68.298 98.8878 68.298 
" clip-path="url(#pf0f01fdbcd)" style="fill: none; stroke: #000000; stroke-width: 2; stroke-linejoin: miter"/>
   </g>
   <g id="patch_9">
    <path d="M 98.8878 68.298 
C 97.265298 68.298 95.707589 68.943224 94.560306 70.090506 
C 93.413024 71.237789 92.7678 72.795498 92.7678 74.418 
C 92.7678 76.040502 93.413024 77.598211 94.560306 78.745494 
C 95.707589 79.892776 97.265298 80.538 98.8878 80.538 
" clip-path="url(#pf0f01fdbcd)" style="fill: none; stroke: #000000; stroke-width: 2; stroke-linejoin: miter"/>
   </g>
   <g id="patch_10">
    <path d="M 68.2878 105.018 
C 69.910302 105.018 71.468011 104.372776 72.615294 103.225494 
C 73.762576 102.078211 74.4078 100.520502 74.4078 98.898 
C 74.4078 97.275498 73.762576 95.717789 72.615294 94.570506 
C 71.468011 93.423224 69.910302 92.778 68.2878 92.778 
" clip-path="url(#pf0f01fdbcd)" style="fill: none; stroke: #000000; stroke-width: 2; stroke-linejoin: miter"/>
   </g>
   <g id="patch_11">
    <path d="M 68.2878 117.258 
C 69.910302 117.258 71.468011 116.612776 72.615294 115.465494 
C 73.762576 114.318211 74.4078 112.760502 74.4078 111.138 
C 74.4078 109.515498 73.762576 107.957789 72.615294 106.810506 
C 71.468011 105.663224 69.910302 105.018 68.2878 105.018 
" clip-path="url(#pf0f01fdbcd)" style="fill: none; stroke: #000000; stroke-width: 2; stroke-linejoin: miter"/>
   </g>
   <g id="patch_12">
    <path d="M 68.2878 129.498 
C 69.910302 129.498 71.468011 128.852776 72.615294 127.705494 
C 73.762576 126.558211 74.4078 125.000502 74.4078 123.378 
C 74.4078 121.755498 73.762576 120.197789 72.615294 119.050506 
C 71.468011 117.903224 69.910302 117.258 68.2878 117.258 
" clip-path="url(#pf0f01fdbcd)" style="fill: none; stroke: #000000; stroke-width: 2; stroke-linejoin: miter"/>
   </g>
   <g id="patch_13">
    <path d="M 68.2878 141.738 
C 69.910302 141.738 71.468011 141.092776 72.615294 139.945494 
C 73.762576 138.798211 74.4078 137.240502 74.4078 135.618 
C 74.4078 133.995498 73.762576 132.437789 72.615294 131.290506 
C 71.468011 130.143224 69.910302 129.498 68.2878 129.498 
" clip-path="url(#pf0f01fdbcd)" style="fill: none; stroke: #000000; stroke-width: 2; stroke-linejoin: miter"/>
   </g>
   <g id="patch_14">
    <path d="M 68.2878 153.978 
C 69.910302 153.978 71.468011 153.332776 72.615294 152.185494 
C 73.762576 151.038211 74.4078 149.480502 74.4078 147.858 
C 74.4078 146.235498 73.762576 144.677789 72.615294 143.530506 
C 71.468011 142.383224 69.910302 141.738 68.2878 141.738 
" clip-path="url(#pf0f01fdbcd)" style="fill: none; stroke: #000000; stroke-width: 2; stroke-linejoin: miter"/>
   </g>
   <g id="patch_15">
    <path d="M 98.8878 105.018 
C 97.265298 105.018 95.707589 105.663224 94.560306 106.810506 
C 93.413024 107.957789 92.7678 109.515498 92.7678 111.138 
C 92.7678 112.760502 93.413024 114.318211 94.560306 115.465494 
C 95.707589 116.612776 97.265298 117.258 98.8878 117.258 
" clip-path="url(#pf0f01fdbcd)" style="fill: none; stroke: #000000; stroke-width: 2; stroke-linejoin: miter"/>
   </g>
   <g id="patch_16">
    <path d="M 98.8878 117.258 
C 97.265298 117.258 95.707589 117.903224 94.560306 119.050506 
C 93.413024 120.197789 92.7678 121.755498 92.7678 123.378 
C 92.7678 125.000502 93.413024 126.558211 94.560306 127.705494 
C 95.707589 128.852776 97.265298 129.498 98.8878 129.498 
" clip-path="url(#pf0f01fdbcd)" style="fill: none; stroke: #000000; stroke-width: 2; stroke-linejoin: miter"/>
   </g>
   <g id="patch_17">
    <path d="M 98.8878 129.498 
C 97.265298 129.498 95.707589 130.143224 94.560306 131.290506 
C 93.413024 132.437789 92.7678 133.995498 92.7678 135.618 
C 92.7678 137.240502 93.413024 138.798211 94.560306 139.945494 
C 95.707589 141.092776 97.265298 141.738 98.8878 141.738 
" clip-path="url(#pf0f01fdbcd)" style="fill: none; stroke: #000000; stroke-width: 2; stroke-linejoin: miter"/>
   </g>
   <g id="patch_18">
    <path d="M 129.5388 56.874 
L 137.1888 46.164 
L 144.8388 56.874 
L 129.5388 56.874 
z
" clip-path="url(#pf0f01fdbcd)" style="fill: none; stroke: #ff0000; stroke-width: 2; stroke-linecap: round"/>
   </g>
   <g id="patch_19">
    <path d="M 129.5388 116.493 
L 137.1888 105.783 
L 144.8388 116.493 
L 129.5388 116.493 
z
" clip-path="url(#pf0f01fdbcd)" style="fill: none; stroke: #ff0000; stroke-width: 2; stroke-linecap: round"/>
   </g>
   <g id="line2d_1">
    <path d="M 80.5278 31.578 
L 80.5278 92.778 
" clip-path="url(#pf0f01fdbcd)" style="fill: none; stroke: #000000; stroke-width: 2; stroke-linecap: round"/>
   </g>
   <g id="line2d_2">
    <path d="M 86.6478 31.578 
L 86.6478 92.778 
" clip-path="url(#pf0f01fdbcd)" style="fill: none; stroke: #000000; stroke-width: 2; stroke-linecap: round"/>
   </g>
   <g id="line2d_3">
    <path d="M 80.5278 92.778 
L 80.5278 153.978 
" clip-path="url(#pf0f01fdbcd)" style="fill: none; stroke: #000000; stroke-width: 2; stroke-linecap: round"/>
   </g>
   <g id="line2d_4">
    <path d="M 86.6478 92.778 
L 86.6478 153.978 
" clip-path="url(#pf0f01fdbcd)" style="fill: none; stroke: #000000; stroke-width: 2; stroke-linecap: round"/>
   </g>
   <g id="line2d_5">
    <path d="M 98.8878 43.818 
L 110.1078 43.818 
" clip-path="url(#pf0f01fdbcd)" style="fill: none; stroke: #000000; stroke-width: 2; stroke-linecap: round"/>
   </g>
   <g id="line2d_6">
    <path d="M 110.1078 32.598 
L 110.1078 55.038 
" clip-path="url(#pf0f01fdbcd)" style="fill: none; stroke: #000000; stroke-width: 2; stroke-linecap: round"/>
   </g>
   <g id="line2d_7">
    <path d="M 110.1078 38.208 
L 121.8888 28.11 
L 121.8888 22.5 
" clip-path="url(#pf0f01fdbcd)" style="fill: none; stroke: #000000; stroke-width: 2; stroke-linecap: round"/>
   </g>
   <g id="line2d_8">
    <path d="M 110.1078 49.428 
L 121.8888 59.526 
L 121.8888 65.136 
" clip-path="url(#pf0f01fdbcd)" style="fill: none; stroke: #000000; stroke-width: 2; stroke-linecap: round"/>
   </g>
   <g id="line2d_9">
    <path d="M 110.1078 49.428 
L 116.080487 54.547446 
" clip-path="url(#pf0f01fdbcd)" style="fill: none; stroke: #000000; stroke-width: 2; stroke-linecap: round"/>
   </g>
   <g id="patch_20">
    <path d="M 118.071909 52.224121 
L 121.8888 59.526 
L 114.089065 56.870771 
z
" clip-path="url(#pf0f01fdbcd)"/>
   </g>
   <g id="line2d_10">
    <path d="M 98.8878 80.538 
L 110.3883 80.538 
L 121.8888 80.538 
" clip-path="url(#pf0f01fdbcd)" style="fill: none; stroke: #000000; stroke-width: 2; stroke-linecap: round"/>
   </g>
   <g id="line2d_11">
    <path d="M 121.8888 22.5 
L 121.8888 10.26 
" clip-path="url(#pf0f01fdbcd)" style="fill: none; stroke: #000000; stroke-width: 2; stroke-linecap: round"/>
   </g>
   <g id="line2d_12">
    <path d="M 121.8888 10.26 
L 116.1513 10.26 
" clip-path="url(#pf0f01fdbcd)" style="fill: none; stroke: #000000; stroke-width: 2; stroke-linecap: round"/>
   </g>
   <g id="line2d_13">
    <path d="M 121.8888 10.26 
L 127.6263 10.26 
" clip-path="url(#pf0f01fdbcd)" style="fill: none; stroke: #000000; stroke-width: 2; stroke-linecap: round"/>
   </g>
   <g id="line2d_14">
    <path d="M 98.8878 105.018 
L 110.1078 105.018 
" clip-path="url(#pf0f01fdbcd)" style="fill: none; stroke: #000000; stroke-width: 2; stroke-linecap: round"/>
   </g>
   <g id="line2d_15">
    <path d="M 110.1078 93.798 
L 110.1078 116.238 
" clip-path="url(#pf0f01fdbcd)" style="fill: none; stroke: #000000; stroke-width: 2; stroke-linecap: round"/>
   </g>
   <g id="line2d_16">
    <path d="M 110.1078 99.408 
L 121.8888 89.31 
L 121.8888 83.7 
" clip-path="url(#pf0f01fdbcd)" style="fill: none; stroke: #000000; stroke-width: 2; stroke-linecap: round"/>
   </g>
   <g id="line2d_17">
    <path d="M 110.1078 110.628 
L 121.8888 120.726 
L 121.8888 126.336 
" clip-path="url(#pf0f01fdbcd)" style="fill: none; stroke: #000000; stroke-width: 2; stroke-linecap: round"/>
   </g>
   <g id="line2d_18">
    <path d="M 110.1078 110.628 
L 116.080487 115.747446 
" clip-path="url(#pf0f01fdbcd)" style="fill: none; stroke: #000000; stroke-width: 2; stroke-linecap: round"/>
   </g>
   <g id="patch_21">
    <path d="M 118.071909 113.424121 
L 121.8888 120.726 
L 114.089065 118.070771 
z
" clip-path="url(#pf0f01fdbcd)"/>
   </g>
   <g id="line2d_19">
    <path d="M 98.8878 141.738 
L 110.3883 141.738 
L 121.8888 141.738 
" clip-path="url(#pf0f01fdbcd)" style="fill: none; stroke: #000000; stroke-width: 2; stroke-linecap: round"/>
   </g>
   <g id="line2d_20">
    <path d="M 121.8888 65.136 
L 121.8888 72.837 
L 121.8888 80.538 
" clip-path="url(#pf0f01fdbcd)" style="fill: none; stroke: #000000; stroke-width: 2; stroke-linecap: round"/>
   </g>
   <g id="line2d_21">
    <path d="M 121.8888 80.538 
L 129.5388 80.538 
L 137.1888 80.538 
" clip-path="url(#pf0f01fdbcd)" style="fill: none; stroke: #000000; stroke-width: 2; stroke-linecap: round"/>
   </g>
   <g id="line2d_22">
    <path d="M 137.1888 80.538 
L 167.7888 80.538 
L 167.902759 78.018441 
L 168.249296 75.476159 
L 168.820701 73.124371 
L 169.590407 71.160317 
L 170.515215 69.74872 
L 171.018602 69.289201 
L 171.538917 69.007968 
L 172.067876 68.910948 
L 172.597012 69.000187 
L 173.117857 69.273803 
L 173.622114 69.72603 
L 174.10184 70.347334 
L 174.958655 72.041506 
L 175.637797 74.21423 
L 176.103662 76.683284 
L 176.338534 79.241592 
L 176.34407 81.674592 
L 176.14116 83.778233 
L 175.768176 85.376086 
L 175.277756 86.334141 
L 175.007789 86.54582 
L 174.732385 86.572047 
L 174.460033 86.412268 
L 174.199157 86.069851 
L 173.744148 84.869673 
L 173.426875 83.072168 
L 173.295301 80.828092 
L 173.381816 78.325651 
L 173.700519 75.774721 
L 174.246036 73.389245 
L 174.99397 71.369289 
L 175.902948 69.884263 
L 176.401087 69.383338 
L 176.918091 69.058715 
L 177.445746 68.917236 
L 177.975614 68.961882 
L 178.49921 69.191713 
L 179.008181 69.601885 
L 179.494481 70.183752 
L 180.369442 71.81015 
L 181.072067 73.934504 
L 181.564782 76.378649 
L 181.827619 78.937596 
L 181.85989 81.396732 
L 181.680242 83.549812 
L 181.325097 85.216261 
L 180.845596 86.256316 
L 180.578182 86.511902 
L 180.303309 86.58275 
L 180.029453 86.467367 
L 179.765071 86.168184 
L 179.297379 85.047389 
L 178.960812 83.314362 
L 178.804952 81.114451 
L 178.864226 78.632159 
L 179.155018 76.075672 
L 179.674294 73.659398 
L 180.399859 71.585987 
L 181.292215 70.029332 
L 181.784656 69.487609 
L 182.297877 69.119988 
L 182.823744 68.934221 
L 183.353856 68.934221 
L 183.879723 69.119988 
L 184.392944 69.487609 
L 184.885385 70.029332 
L 185.777741 71.585987 
L 186.503306 73.659398 
L 187.022582 76.075672 
L 187.313374 78.632159 
L 187.372648 81.114451 
L 187.216788 83.314362 
L 186.880221 85.047389 
L 186.412529 86.168184 
L 186.148147 86.467367 
L 185.874291 86.58275 
L 185.599418 86.511902 
L 185.332004 86.256316 
L 184.852503 85.216261 
L 184.497358 83.549812 
L 184.31771 81.396732 
L 184.349981 78.937596 
L 184.612818 76.378649 
L 185.105533 73.934504 
L 185.808158 71.81015 
L 186.683119 70.183752 
L 187.169419 69.601885 
L 187.67839 69.191713 
L 188.201986 68.961882 
L 188.731854 68.917236 
L 189.259509 69.058715 
L 189.776513 69.383338 
L 190.274652 69.884263 
L 190.746109 70.550931 
L 191.580677 72.322088 
L 192.231579 74.548266 
L 192.66558 77.042758 
L 192.867634 79.596356 
L 192.842153 81.994894 
L 192.612626 84.037208 
L 192.21966 85.552014 
L 191.717567 86.412268 
L 191.445215 86.572047 
L 191.169811 86.54582 
L 190.899844 86.334141 
L 190.643687 85.94147 
L 190.204675 84.649905 
L 189.910949 82.779445 
L 189.808498 80.486964 
L 189.927271 77.964727 
L 190.278659 75.424272 
L 190.854549 73.078662 
L 191.627995 71.124621 
L 192.555486 69.72603 
L 193.059743 69.273803 
L 193.580588 69.000187 
L 194.109724 68.910948 
L 194.638683 69.007968 
L 195.158998 69.289201 
L 195.662385 69.74872 
L 196.140918 70.376838 
L 196.994487 72.082641 
L 197.669473 74.263547 
L 198.130621 76.736647 
L 198.360609 79.294525 
L 198.3888 80.538 
L 228.9888 80.538 
L 228.9888 80.538 
" clip-path="url(#pf0f01fdbcd)" style="fill: none; stroke: #000000; stroke-width: 2; stroke-linecap: round"/>
   </g>
   <g id="line2d_23">
    <path d="M 228.9888 80.538 
L 272.1348 80.538 
M 272.1348 72.888 
L 272.1348 88.188 
M 277.6428 72.888 
L 277.6428 88.188 
M 277.6428 80.538 
L 320.7888 80.538 
" clip-path="url(#pf0f01fdbcd)" style="fill: none; stroke: #000000; stroke-width: 2; stroke-linecap: round"/>
   </g>
   <g id="line2d_24">
    <path d="M 320.7888 80.538 
L 320.7888 95.838 
L 328.4388 98.388 
L 313.1388 103.488 
L 328.4388 108.588 
L 313.1388 113.688 
L 328.4388 118.788 
L 313.1388 123.888 
L 320.7888 126.438 
L 320.7888 141.738 
" clip-path="url(#pf0f01fdbcd)" style="fill: none; stroke: #000000; stroke-width: 2; stroke-linecap: round"/>
   </g>
   <g id="line2d_25">
    <path d="M 320.7888 80.538 
L 328.4388 80.538 
L 336.0888 80.538 
" clip-path="url(#pf0f01fdbcd)" style="fill: none; stroke: #000000; stroke-width: 2; stroke-linecap: round"/>
   </g>
   <g id="line2d_26">
    <path d="M 320.7888 141.738 
L 328.4388 141.738 
L 336.0888 141.738 
" clip-path="url(#pf0f01fdbcd)" style="fill: none; stroke: #000000; stroke-width: 2; stroke-linecap: round"/>
   </g>
   <g id="line2d_27">
    <path d="M 320.7888 141.738 
L 228.9888 141.738 
L 137.1888 141.738 
" clip-path="url(#pf0f01fdbcd)" style="fill: none; stroke: #000000; stroke-width: 2; stroke-linecap: round"/>
   </g>
   <g id="line2d_28">
    <path d="M 320.7888 141.738 
L 221.3388 141.738 
L 121.8888 141.738 
" clip-path="url(#pf0f01fdbcd)" style="fill: none; stroke: #000000; stroke-width: 2; stroke-linecap: round"/>
   </g>
   <g id="line2d_29">
    <path d="M 121.8888 141.738 
L 121.8888 153.978 
L 114.2388 153.978 
L 129.5388 153.978 
M 116.5338 157.65 
L 127.2438 157.65 
M 120.3588 161.322 
L 123.4188 161.322 
" clip-path="url(#pf0f01fdbcd)" style="fill: none; stroke: #000000; stroke-width: 2; stroke-linecap: round"/>
   </g>
   <g id="line2d_30">
    <path d="M 121.8888 141.738 
L 121.8888 134.037 
L 121.8888 126.336 
" clip-path="url(#pf0f01fdbcd)" style="fill: none; stroke: #000000; stroke-width: 2; stroke-linecap: round"/>
   </g>
   <g id="line2d_31">
    <path d="M 121.8888 83.7 
L 121.8888 82.119 
L 121.8888 80.538 
" clip-path="url(#pf0f01fdbcd)" style="fill: none; stroke: #000000; stroke-width: 2; stroke-linecap: round"/>
   </g>
   <g id="line2d_32">
    <path d="M 68.2878 31.578 
L 60.6378 31.578 
L 52.9878 31.578 
" clip-path="url(#pf0f01fdbcd)" style="fill: none; stroke: #000000; stroke-width: 2; stroke-linecap: round"/>
   </g>
   <g id="line2d_33">
    <path d="M 52.9878 31.578 
L 52.9878 54.528 
L 52.9878 77.478 
" clip-path="url(#pf0f01fdbcd)" style="fill: none; stroke: #000000; stroke-width: 2; stroke-linecap: round"/>
   </g>
   <g id="line2d_34">
    <path d="M 52.9878 77.478 
L 45.3378 77.478 
L 37.6878 77.478 
" clip-path="url(#pf0f01fdbcd)" style="fill: none; stroke: #000000; stroke-width: 2; stroke-linecap: round"/>
   </g>
   <g id="line2d_35">
    <path d="M 68.2878 153.978 
L 60.6378 153.978 
L 52.9878 153.978 
" clip-path="url(#pf0f01fdbcd)" style="fill: none; stroke: #000000; stroke-width: 2; stroke-linecap: round"/>
   </g>
   <g id="line2d_36">
    <path d="M 52.9878 153.978 
L 52.9878 131.028 
L 52.9878 108.078 
" clip-path="url(#pf0f01fdbcd)" style="fill: none; stroke: #000000; stroke-width: 2; stroke-linecap: round"/>
   </g>
   <g id="line2d_37">
    <path d="M 52.9878 108.078 
L 45.3378 108.078 
L 37.6878 108.078 
" clip-path="url(#pf0f01fdbcd)" style="fill: none; stroke: #000000; stroke-width: 2; stroke-linecap: round"/>
   </g>
   <g id="line2d_38">
    <path d="M 137.1888 80.538 
L 137.1888 56.874 
M 129.5388 46.164 
L 144.8388 46.164 
M 137.1888 46.164 
L 137.1888 22.5 
" clip-path="url(#pf0f01fdbcd)" style="fill: none; stroke: #ff0000; stroke-width: 2; stroke-linecap: round"/>
   </g>
   <g id="line2d_39">
    <path d="M 137.1888 22.5 
L 129.5388 22.5 
L 121.8888 22.5 
" clip-path="url(#pf0f01fdbcd)" style="fill: none; stroke: #ff0000; stroke-width: 2; stroke-linecap: round"/>
   </g>
   <g id="line2d_40">
    <path d="M 137.1888 141.738 
L 137.1888 116.493 
M 129.5388 105.783 
L 144.8388 105.783 
M 137.1888 105.783 
L 137.1888 80.538 
" clip-path="url(#pf0f01fdbcd)" style="fill: none; stroke: #ff0000; stroke-width: 2; stroke-linecap: round"/>
   </g>
   <g id="text_1">
    <g clip-path="url(#pf0f01fdbcd)">
     <!-- $L_1$ -->
     <g transform="translate(176.6513 63.251339)scale(0.125 -0.125)">
      <defs>
       <path id="DejaVuSans-Oblique-4c" d="M 1075 4666 
L 1709 4666 
L 909 525 
L 3181 525 
L 3078 0 
L 172 0 
L 1075 4666 
z
" transform="scale(0.015625)"/>
       <path id="DejaVuSans-31" d="M 794 531 
L 1825 531 
L 1825 4091 
L 703 3866 
L 703 4441 
L 1819 4666 
L 2450 4666 
L 2450 531 
L 3481 531 
L 3481 0 
L 794 0 
L 794 531 
z
" transform="scale(0.015625)"/>
      </defs>
      <use xlink:href="#DejaVuSans-Oblique-4c" transform="translate(0 0.09375)"/>
      <use xlink:href="#DejaVuSans-31" transform="translate(55.712891 -16.3125)scale(0.7)"/>
     </g>
    </g>
   </g>
   <g id="text_2">
    <g clip-path="url(#pf0f01fdbcd)">
     <!-- $C_1$ -->
     <g transform="translate(267.5138 67.228391)scale(0.125 -0.125)">
      <defs>
       <path id="DejaVuSans-Oblique-43" d="M 4447 4306 
L 4319 3641 
Q 4019 3944 3683 4091 
Q 3347 4238 2956 4238 
Q 2422 4238 2017 3981 
Q 1613 3725 1319 3200 
Q 1131 2863 1032 2486 
Q 934 2109 934 1728 
Q 934 1091 1264 756 
Q 1594 422 2222 422 
Q 2656 422 3056 561 
Q 3456 700 3834 978 
L 3688 231 
Q 3316 72 2936 -9 
Q 2556 -91 2175 -91 
Q 1278 -91 773 396 
Q 269 884 269 1753 
Q 269 2309 461 2846 
Q 653 3384 1013 3828 
Q 1394 4300 1883 4525 
Q 2372 4750 3022 4750 
Q 3422 4750 3780 4639 
Q 4138 4528 4447 4306 
z
" transform="scale(0.015625)"/>
      </defs>
      <use xlink:href="#DejaVuSans-Oblique-43" transform="translate(0 0.78125)"/>
      <use xlink:href="#DejaVuSans-31" transform="translate(69.824219 -15.625)scale(0.7)"/>
     </g>
    </g>
   </g>
   <g id="text_3">
    <g clip-path="url(#pf0f01fdbcd)">
     <!-- $R_L$ -->
     <g transform="translate(296.0788 114.587219)scale(0.125 -0.125)">
      <defs>
       <path id="DejaVuSans-Oblique-52" d="M 1613 4147 
L 1294 2491 
L 2106 2491 
Q 2584 2491 2879 2755 
Q 3175 3019 3175 3444 
Q 3175 3784 2976 3965 
Q 2778 4147 2406 4147 
L 1613 4147 
z
M 2772 2241 
Q 2972 2194 3105 2009 
Q 3238 1825 3413 1275 
L 3809 0 
L 3144 0 
L 2778 1197 
Q 2638 1659 2453 1815 
Q 2269 1972 1888 1972 
L 1191 1972 
L 806 0 
L 172 0 
L 1081 4666 
L 2503 4666 
Q 3150 4666 3495 4373 
Q 3841 4081 3841 3531 
Q 3841 3044 3547 2687 
Q 3253 2331 2772 2241 
z
" transform="scale(0.015625)"/>
      </defs>
      <use xlink:href="#DejaVuSans-Oblique-52" transform="translate(0 0.09375)"/>
      <use xlink:href="#DejaVuSans-Oblique-4c" transform="translate(69.482422 -16.3125)scale(0.7)"/>
     </g>
    </g>
   </g>
   <g id="text_4">
    <g clip-path="url(#pf0f01fdbcd)">
     <!-- + -->
     <g transform="translate(343.091495 99.287219)scale(0.125 -0.125)">
      <defs>
       <path id="DejaVuSans-2b" d="M 2944 4013 
L 2944 2272 
L 4684 2272 
L 4684 1741 
L 2944 1741 
L 2944 0 
L 2419 0 
L 2419 1741 
L 678 1741 
L 678 2272 
L 2419 2272 
L 2419 4013 
L 2944 4013 
z
" transform="scale(0.015625)"/>
      </defs>
      <use xlink:href="#DejaVuSans-2b"/>
     </g>
    </g>
   </g>
   <g id="text_5">
    <g clip-path="url(#pf0f01fdbcd)">
     <!-- $v_{out}$ -->
     <g transform="translate(337.2663 114.587219)scale(0.125 -0.125)">
      <defs>
       <path id="DejaVuSans-Oblique-76" d="M 459 3500 
L 1069 3500 
L 1581 525 
L 3256 3500 
L 3866 3500 
L 1875 0 
L 1100 0 
L 459 3500 
z
" transform="scale(0.015625)"/>
       <path id="DejaVuSans-Oblique-6f" d="M 1625 -91 
Q 1009 -91 651 289 
Q 294 669 294 1325 
Q 294 1706 417 2101 
Q 541 2497 738 2766 
Q 1047 3184 1428 3384 
Q 1809 3584 2291 3584 
Q 2888 3584 3255 3212 
Q 3622 2841 3622 2241 
Q 3622 1825 3500 1412 
Q 3378 1000 3181 728 
Q 2875 309 2494 109 
Q 2113 -91 1625 -91 
z
M 891 1344 
Q 891 869 1089 633 
Q 1288 397 1691 397 
Q 2269 397 2648 901 
Q 3028 1406 3028 2181 
Q 3028 2634 2825 2865 
Q 2622 3097 2228 3097 
Q 1903 3097 1650 2945 
Q 1397 2794 1197 2484 
Q 1050 2253 970 1956 
Q 891 1659 891 1344 
z
" transform="scale(0.015625)"/>
       <path id="DejaVuSans-Oblique-75" d="M 428 1388 
L 838 3500 
L 1416 3500 
L 1006 1409 
Q 975 1256 961 1147 
Q 947 1038 947 966 
Q 947 700 1109 554 
Q 1272 409 1569 409 
Q 2031 409 2368 721 
Q 2706 1034 2809 1563 
L 3194 3500 
L 3769 3500 
L 3091 0 
L 2516 0 
L 2631 550 
Q 2388 244 2052 76 
Q 1716 -91 1338 -91 
Q 878 -91 622 161 
Q 366 413 366 863 
Q 366 956 381 1097 
Q 397 1238 428 1388 
z
" transform="scale(0.015625)"/>
       <path id="DejaVuSans-Oblique-74" d="M 2706 3500 
L 2619 3053 
L 1472 3053 
L 1100 1153 
Q 1081 1047 1072 975 
Q 1063 903 1063 863 
Q 1063 663 1183 572 
Q 1303 481 1569 481 
L 2150 481 
L 2053 0 
L 1503 0 
Q 991 0 739 200 
Q 488 400 488 806 
Q 488 878 497 964 
Q 506 1050 525 1153 
L 897 3053 
L 409 3053 
L 500 3500 
L 978 3500 
L 1172 4494 
L 1747 4494 
L 1556 3500 
L 2706 3500 
z
" transform="scale(0.015625)"/>
      </defs>
      <use xlink:href="#DejaVuSans-Oblique-76" transform="translate(0 0.3125)"/>
      <use xlink:href="#DejaVuSans-Oblique-6f" transform="translate(59.179688 -16.09375)scale(0.7)"/>
      <use xlink:href="#DejaVuSans-Oblique-75" transform="translate(102.006836 -16.09375)scale(0.7)"/>
      <use xlink:href="#DejaVuSans-Oblique-74" transform="translate(146.37207 -16.09375)scale(0.7)"/>
     </g>
    </g>
   </g>
   <g id="text_6">
    <g clip-path="url(#pf0f01fdbcd)">
     <!-- $-$ -->
     <g transform="translate(343.0788 129.887219)scale(0.125 -0.125)">
      <defs>
       <path id="DejaVuSans-2212" d="M 678 2272 
L 4684 2272 
L 4684 1741 
L 678 1741 
L 678 2272 
z
" transform="scale(0.015625)"/>
      </defs>
      <use xlink:href="#DejaVuSans-2212" transform="translate(0 0.5)"/>
     </g>
    </g>
   </g>
   <g id="text_7">
    <g clip-path="url(#pf0f01fdbcd)">
     <!-- + -->
     <g transform="translate(20.210495 88.577219)scale(0.125 -0.125)">
      <use xlink:href="#DejaVuSans-2b"/>
     </g>
    </g>
   </g>
   <g id="text_8">
    <g clip-path="url(#pf0f01fdbcd)">
     <!-- $v_{in}$ -->
     <g transform="translate(17.5728 96.227219)scale(0.125 -0.125)">
      <defs>
       <path id="DejaVuSans-Oblique-69" d="M 1172 4863 
L 1747 4863 
L 1606 4134 
L 1031 4134 
L 1172 4863 
z
M 909 3500 
L 1484 3500 
L 800 0 
L 225 0 
L 909 3500 
z
" transform="scale(0.015625)"/>
       <path id="DejaVuSans-Oblique-6e" d="M 3566 2113 
L 3156 0 
L 2578 0 
L 2988 2091 
Q 3016 2238 3031 2350 
Q 3047 2463 3047 2528 
Q 3047 2791 2881 2937 
Q 2716 3084 2419 3084 
Q 1956 3084 1622 2776 
Q 1288 2469 1184 1941 
L 800 0 
L 225 0 
L 903 3500 
L 1478 3500 
L 1363 2950 
Q 1603 3253 1940 3418 
Q 2278 3584 2650 3584 
Q 3113 3584 3367 3334 
Q 3622 3084 3622 2631 
Q 3622 2519 3608 2391 
Q 3594 2263 3566 2113 
z
" transform="scale(0.015625)"/>
      </defs>
      <use xlink:href="#DejaVuSans-Oblique-76" transform="translate(0 0.3125)"/>
      <use xlink:href="#DejaVuSans-Oblique-69" transform="translate(59.179688 -16.09375)scale(0.7)"/>
      <use xlink:href="#DejaVuSans-Oblique-6e" transform="translate(78.62793 -16.09375)scale(0.7)"/>
     </g>
    </g>
   </g>
   <g id="text_9">
    <g clip-path="url(#pf0f01fdbcd)">
     <!-- $-$ -->
     <g transform="translate(20.1978 103.877219)scale(0.125 -0.125)">
      <use xlink:href="#DejaVuSans-2212" transform="translate(0 0.5)"/>
     </g>
    </g>
   </g>
   <g id="patch_22">
    <path d="M 121.8888 144.033 
C 122.497441 144.033 123.081236 143.791184 123.51161 143.36081 
C 123.941984 142.930436 124.1838 142.346641 124.1838 141.738 
C 124.1838 141.129359 123.941984 140.545564 123.51161 140.11519 
C 123.081236 139.684816 122.497441 139.443 121.8888 139.443 
C 121.280159 139.443 120.696364 139.684816 120.26599 140.11519 
C 119.835616 140.545564 119.5938 141.129359 119.5938 141.738 
C 119.5938 142.346641 119.835616 142.930436 120.26599 143.36081 
C 120.696364 143.791184 121.280159 144.033 121.8888 144.033 
z
" clip-path="url(#pf0f01fdbcd)" style="stroke: #000000; stroke-width: 2; stroke-linejoin: miter"/>
   </g>
   <g id="patch_23">
    <path d="M 121.8888 82.833 
C 122.497441 82.833 123.081236 82.591184 123.51161 82.16081 
C 123.941984 81.730436 124.1838 81.146641 124.1838 80.538 
C 124.1838 79.929359 123.941984 79.345564 123.51161 78.91519 
C 123.081236 78.484816 122.497441 78.243 121.8888 78.243 
C 121.280159 78.243 120.696364 78.484816 120.26599 78.91519 
C 119.835616 79.345564 119.5938 79.929359 119.5938 80.538 
C 119.5938 81.146641 119.835616 81.730436 120.26599 82.16081 
C 120.696364 82.591184 121.280159 82.833 121.8888 82.833 
z
" clip-path="url(#pf0f01fdbcd)" style="stroke: #000000; stroke-width: 2; stroke-linejoin: miter"/>
   </g>
   <g id="patch_24">
    <path d="M 137.1888 82.833 
C 137.797441 82.833 138.381236 82.591184 138.81161 82.16081 
C 139.241984 81.730436 139.4838 81.146641 139.4838 80.538 
C 139.4838 79.929359 139.241984 79.345564 138.81161 78.91519 
C 138.381236 78.484816 137.797441 78.243 137.1888 78.243 
C 136.580159 78.243 135.996364 78.484816 135.56599 78.91519 
C 135.135616 79.345564 134.8938 79.929359 134.8938 80.538 
C 134.8938 81.146641 135.135616 81.730436 135.56599 82.16081 
C 135.996364 82.591184 136.580159 82.833 137.1888 82.833 
z
" clip-path="url(#pf0f01fdbcd)" style="stroke: #000000; stroke-width: 2; stroke-linejoin: miter"/>
   </g>
   <g id="patch_25">
    <path d="M 336.0888 82.833 
C 336.697441 82.833 337.281236 82.591184 337.71161 82.16081 
C 338.141984 81.730436 338.3838 81.146641 338.3838 80.538 
C 338.3838 79.929359 338.141984 79.345564 337.71161 78.91519 
C 337.281236 78.484816 336.697441 78.243 336.0888 78.243 
C 335.480159 78.243 334.896364 78.484816 334.46599 78.91519 
C 334.035616 79.345564 333.7938 79.929359 333.7938 80.538 
C 333.7938 81.146641 334.035616 81.730436 334.46599 82.16081 
C 334.896364 82.591184 335.480159 82.833 336.0888 82.833 
z
" clip-path="url(#pf0f01fdbcd)" style="fill: #ffffff; stroke: #000000; stroke-width: 2; stroke-linejoin: miter"/>
   </g>
   <g id="patch_26">
    <path d="M 336.0888 144.033 
C 336.697441 144.033 337.281236 143.791184 337.71161 143.36081 
C 338.141984 142.930436 338.3838 142.346641 338.3838 141.738 
C 338.3838 141.129359 338.141984 140.545564 337.71161 140.11519 
C 337.281236 139.684816 336.697441 139.443 336.0888 139.443 
C 335.480159 139.443 334.896364 139.684816 334.46599 140.11519 
C 334.035616 140.545564 333.7938 141.129359 333.7938 141.738 
C 333.7938 142.346641 334.035616 142.930436 334.46599 143.36081 
C 334.896364 143.791184 335.480159 144.033 336.0888 144.033 
z
" clip-path="url(#pf0f01fdbcd)" style="fill: #ffffff; stroke: #000000; stroke-width: 2; stroke-linejoin: miter"/>
   </g>
   <g id="patch_27">
    <path d="M 137.1888 144.033 
C 137.797441 144.033 138.381236 143.791184 138.81161 143.36081 
C 139.241984 142.930436 139.4838 142.346641 139.4838 141.738 
C 139.4838 141.129359 139.241984 140.545564 138.81161 140.11519 
C 138.381236 139.684816 137.797441 139.443 137.1888 139.443 
C 136.580159 139.443 135.996364 139.684816 135.56599 140.11519 
C 135.135616 140.545564 134.8938 141.129359 134.8938 141.738 
C 134.8938 142.346641 135.135616 142.930436 135.56599 143.36081 
C 135.996364 143.791184 136.580159 144.033 137.1888 144.033 
z
" clip-path="url(#pf0f01fdbcd)" style="stroke: #000000; stroke-width: 2; stroke-linejoin: miter"/>
   </g>
   <g id="patch_28">
    <path d="M 37.6878 79.773 
C 38.296441 79.773 38.880236 79.531184 39.31061 79.10081 
C 39.740984 78.670436 39.9828 78.086641 39.9828 77.478 
C 39.9828 76.869359 39.740984 76.285564 39.31061 75.85519 
C 38.880236 75.424816 38.296441 75.183 37.6878 75.183 
C 37.079159 75.183 36.495364 75.424816 36.06499 75.85519 
C 35.634616 76.285564 35.3928 76.869359 35.3928 77.478 
C 35.3928 78.086641 35.634616 78.670436 36.06499 79.10081 
C 36.495364 79.531184 37.079159 79.773 37.6878 79.773 
z
" clip-path="url(#pf0f01fdbcd)" style="fill: #ffffff; stroke: #000000; stroke-width: 2; stroke-linejoin: miter"/>
   </g>
   <g id="patch_29">
    <path d="M 37.6878 110.373 
C 38.296441 110.373 38.880236 110.131184 39.31061 109.70081 
C 39.740984 109.270436 39.9828 108.686641 39.9828 108.078 
C 39.9828 107.469359 39.740984 106.885564 39.31061 106.45519 
C 38.880236 106.024816 38.296441 105.783 37.6878 105.783 
C 37.079159 105.783 36.495364 106.024816 36.06499 106.45519 
C 35.634616 106.885564 35.3928 107.469359 35.3928 108.078 
C 35.3928 108.686641 35.634616 109.270436 36.06499 109.70081 
C 36.495364 110.131184 37.079159 110.373 37.6878 110.373 
z
" clip-path="url(#pf0f01fdbcd)" style="fill: #ffffff; stroke: #000000; stroke-width: 2; stroke-linejoin: miter"/>
   </g>
   <g id="patch_30">
    <path d="M 71.3478 24.693 
C 71.956441 24.693 72.540236 24.451184 72.97061 24.02081 
C 73.400984 23.590436 73.6428 23.006641 73.6428 22.398 
C 73.6428 21.789359 73.400984 21.205564 72.97061 20.77519 
C 72.540236 20.344816 71.956441 20.103 71.3478 20.103 
C 70.739159 20.103 70.155364 20.344816 69.72499 20.77519 
C 69.294616 21.205564 69.0528 21.789359 69.0528 22.398 
C 69.0528 23.006641 69.294616 23.590436 69.72499 24.02081 
C 70.155364 24.451184 70.739159 24.693 71.3478 24.693 
z
" clip-path="url(#pf0f01fdbcd)" style="stroke: #000000; stroke-width: 2; stroke-linejoin: miter"/>
   </g>
   <g id="patch_31">
    <path d="M 95.8278 36.933 
C 96.436441 36.933 97.020236 36.691184 97.45061 36.26081 
C 97.880984 35.830436 98.1228 35.246641 98.1228 34.638 
C 98.1228 34.029359 97.880984 33.445564 97.45061 33.01519 
C 97.020236 32.584816 96.436441 32.343 95.8278 32.343 
C 95.219159 32.343 94.635364 32.584816 94.20499 33.01519 
C 93.774616 33.445564 93.5328 34.029359 93.5328 34.638 
C 93.5328 35.246641 93.774616 35.830436 94.20499 36.26081 
C 94.635364 36.691184 95.219159 36.933 95.8278 36.933 
z
" clip-path="url(#pf0f01fdbcd)" style="stroke: #000000; stroke-width: 2; stroke-linejoin: miter"/>
   </g>
   <g id="patch_32">
    <path d="M 95.8278 153.213 
C 96.436441 153.213 97.020236 152.971184 97.45061 152.54081 
C 97.880984 152.110436 98.1228 151.526641 98.1228 150.918 
C 98.1228 150.309359 97.880984 149.725564 97.45061 149.29519 
C 97.020236 148.864816 96.436441 148.623 95.8278 148.623 
C 95.219159 148.623 94.635364 148.864816 94.20499 149.29519 
C 93.774616 149.725564 93.5328 150.309359 93.5328 150.918 
C 93.5328 151.526641 93.774616 152.110436 94.20499 152.54081 
C 94.635364 152.971184 95.219159 153.213 95.8278 153.213 
z
" clip-path="url(#pf0f01fdbcd)" style="stroke: #000000; stroke-width: 2; stroke-linejoin: miter"/>
   </g>
   <g id="patch_33">
    <path d="M 121.8888 24.795 
C 122.497441 24.795 123.081236 24.553184 123.51161 24.12281 
C 123.941984 23.692436 124.1838 23.108641 124.1838 22.5 
C 124.1838 21.891359 123.941984 21.307564 123.51161 20.87719 
C 123.081236 20.446816 122.497441 20.205 121.8888 20.205 
C 121.280159 20.205 120.696364 20.446816 120.26599 20.87719 
C 119.835616 21.307564 119.5938 21.891359 119.5938 22.5 
C 119.5938 23.108641 119.835616 23.692436 120.26599 24.12281 
C 120.696364 24.553184 121.280159 24.795 121.8888 24.795 
z
" clip-path="url(#pf0f01fdbcd)" style="stroke: #000000; stroke-width: 2; stroke-linejoin: miter"/>
   </g>
  </g>
 </g>
 <defs>
  <clipPath id="pf0f01fdbcd">
   <rect x="7.2" y="7.2" width="369.3522" height="157.182"/>
  </clipPath>
 </defs>
</svg>