<?xml version="1.0" encoding="utf-8" standalone="no"?>
<!DOCTYPE svg PUBLIC "-//W3C//DTD SVG 1.1//EN"
  "http://www.w3.org/Graphics/SVG/1.1/DTD/svg11.dtd">
<svg xmlns:xlink="http://www.w3.org/1999/xlink" width="201.06pt" height="168.8pt" viewBox="0 0 201.06 168.8" xmlns="http://www.w3.org/2000/svg" version="1.1">
 <metadata>
  <rdf:RDF xmlns:dc="http://purl.org/dc/elements/1.1/" xmlns:cc="http://creativecommons.org/ns#" xmlns:rdf="http://www.w3.org/1999/02/22-rdf-syntax-ns#">
   <cc:Work>
    <dc:type rdf:resource="http://purl.org/dc/dcmitype/StillImage"/>
    <dc:date>2025-11-29T16:56:31.807803</dc:date>
    <dc:format>image/svg+xml</dc:format>
    <dc:creator>
     <cc:Agent>
      <dc:title>Matplotlib v3.10.8, https://matplotlib.org/</dc:title>
     </cc:Agent>
    </dc:creator>
   </cc:Work>
  </rdf:RDF>
 </metadata>
 <defs>
  <style type="text/css">*{stroke-linejoin: round; stroke-linecap: butt}</style>
 </defs>
 <g id="figure_1">
  <g id="patch_1">
   <path d="M 0 168.8 
L 201.06 168.8 
L 201.06 0 
L 0 0 
z
" style="fill: #ffffff"/>
  </g>
  <g id="axes_1">
   <g id="patch_2">
    <path d="M 34.38 33.08 
C 34.38 31.661757 34.240319 30.257305 33.968949 28.947019 
C 33.69758 27.636733 33.299801 26.446096 32.798377 25.443247 
C 32.296952 24.440398 31.701633 23.644839 31.046491 23.102101 
C 30.391348 22.559363 29.689122 22.28 28.98 22.28 
C 28.270878 22.28 27.568652 22.559363 26.913509 23.102101 
C 26.258367 23.644839 25.663048 24.440398 25.161623 25.443247 
C 24.660199 26.446096 24.26242 27.636733 23.991051 28.947019 
C 23.719681 30.257305 23.58 31.661757 23.58 33.08 
C 23.58 34.498243 23.719681 35.902695 23.991051 37.212981 
C 24.26242 38.523267 24.660199 39.713904 25.161623 40.716753 
C 25.663048 41.719602 26.258367 42.515161 26.913509 43.057899 
C 27.568652 43.600637 28.270878 43.88 28.98 43.88 
C 29.689122 43.88 30.391348 43.600637 31.046491 43.057899 
C 31.701633 42.515161 32.296952 41.719602 32.798377 40.716753 
C 33.299801 39.713904 33.69758 38.523267 33.968949 37.212981 
C 34.240319 35.902695 34.38 34.498243 34.38 33.08 
" clip-path="url(#p969e12652b)" style="fill: none; stroke: #000000; stroke-width: 2; stroke-linejoin: miter"/>
   </g>
   <g id="patch_3">
    <path d="M 165.78 43.88 
C 167.21162 43.88 168.586069 42.741369 169.598377 40.716753 
C 170.610685 38.692137 171.18 35.94324 171.18 33.08 
C 171.18 30.21676 170.610685 27.467863 169.598377 25.443247 
C 168.586069 23.418631 167.21162 22.28 165.78 22.28 
" clip-path="url(#p969e12652b)" style="fill: none; stroke: #000000; stroke-width: 2; stroke-linejoin: miter"/>
   </g>
   <g id="line2d_1">
    <path d="M 7.38 33.08 
L 28.98 33.08 
M 171.18 33.08 
L 187.38 33.08 
" clip-path="url(#p969e12652b)" style="fill: none; stroke: #000000; stroke-width: 2; stroke-linecap: round"/>
   </g>
   <g id="line2d_2">
    <path d="M 28.98 22.28 
L 165.78 22.28 
" clip-path="url(#p969e12652b)" style="fill: none; stroke: #000000; stroke-width: 2; stroke-linecap: round"/>
   </g>
   <g id="line2d_3">
    <path d="M 28.98 43.88 
L 165.78 43.88 
" clip-path="url(#p969e12652b)" style="fill: none; stroke: #000000; stroke-width: 2; stroke-linecap: round"/>
   </g>
   <g id="line2d_4">
    <path d="M 187.38 33.08 
L 187.38 69.08 
L 196.38 69.08 
L 196.38 105.08 
L 178.38 105.08 
L 178.38 69.08 
L 187.38 69.08 
M 187.38 105.08 
L 187.38 141.08 
" clip-path="url(#p969e12652b)" style="fill: none; stroke: #000000; stroke-width: 2; stroke-linecap: round"/>
   </g>
   <g id="line2d_5">
    <path d="M 187.38 141.08 
L 187.38 155.48 
L 178.38 155.48 
L 196.38 155.48 
M 181.08 159.8 
L 193.68 159.8 
M 185.58 164.12 
L 189.18 164.12 
" clip-path="url(#p969e12652b)" style="fill: none; stroke: #000000; stroke-width: 2; stroke-linecap: round"/>
   </g>
   <g id="line2d_6">
    <path d="M 28.98 43.88 
L 28.98 52.88 
L 28.98 61.88 
" clip-path="url(#p969e12652b)" style="fill: none; stroke: #000000; stroke-width: 2; stroke-linecap: round"/>
   </g>
   <g id="line2d_7">
    <path d="M 28.98 61.88 
L 18.18 61.88 
L 7.38 61.88 
" clip-path="url(#p969e12652b)" style="fill: none; stroke: #000000; stroke-width: 2; stroke-linecap: round"/>
   </g>
   <g id="text_1">
    <!-- $Z_1$ -->
    <g transform="translate(89.26 15.768438) scale(0.14 -0.14)">
     <defs>
      <path id="DejaVuSans-Oblique-5a" d="M 838 4666 
L 4500 4666 
L 4409 4184 
L 794 531 
L 3769 531 
L 3669 0 
L -141 0 
L -50 481 
L 3566 4134 
L 738 4134 
L 838 4666 
z
" transform="scale(0.015625)"/>
      <path id="DejaVuSans-31" d="M 794 531 
L 1825 531 
L 1825 4091 
L 703 3866 
L 703 4441 
L 1819 4666 
L 2450 4666 
L 2450 531 
L 3481 531 
L 3481 0 
L 794 0 
L 794 531 
z
" transform="scale(0.015625)"/>
     </defs>
     <use xlink:href="#DejaVuSans-Oblique-5a" transform="translate(0 0.09375)"/>
     <use xlink:href="#DejaVuSans-31" transform="translate(68.505859 -16.3125) scale(0.7)"/>
    </g>
   </g>
   <g id="text_2">
    <!-- $Z_L$ -->
    <g transform="translate(159.24 90.943125) scale(0.14 -0.14)">
     <defs>
      <path id="DejaVuSans-Oblique-4c" d="M 1075 4666 
L 1709 4666 
L 909 525 
L 3181 525 
L 3078 0 
L 172 0 
L 1075 4666 
z
" transform="scale(0.015625)"/>
     </defs>
     <use xlink:href="#DejaVuSans-Oblique-5a" transform="translate(0 0.09375)"/>
     <use xlink:href="#DejaVuSans-Oblique-4c" transform="translate(68.505859 -16.3125) scale(0.7)"/>
    </g>
   </g>
   <g id="patch_4">
    <path d="M 7.38 35.78 
C 8.096048 35.78 8.782866 35.495511 9.289188 34.989188 
C 9.795511 34.482866 10.08 33.796048 10.08 33.08 
C 10.08 32.363952 9.795511 31.677134 9.289188 31.170812 
C 8.782866 30.664489 8.096048 30.38 7.38 30.38 
C 6.663952 30.38 5.977134 30.664489 5.470812 31.170812 
C 4.964489 31.677134 4.68 32.363952 4.68 33.08 
C 4.68 33.796048 4.964489 34.482866 5.470812 34.989188 
C 5.977134 35.495511 6.663952 35.78 7.38 35.78 
z
" clip-path="url(#p969e12652b)" style="fill: #ff0000; stroke: #ff0000; stroke-width: 2; stroke-linejoin: miter"/>
   </g>
   <g id="patch_5">
    <path d="M 187.38 35.78 
C 188.096048 35.78 188.782866 35.495511 189.289188 34.989188 
C 189.795511 34.482866 190.08 33.796048 190.08 33.08 
C 190.08 32.363952 189.795511 31.677134 189.289188 31.170812 
C 188.782866 30.664489 188.096048 30.38 187.38 30.38 
C 186.663952 30.38 185.977134 30.664489 185.470812 31.170812 
C 184.964489 31.677134 184.68 32.363952 184.68 33.08 
C 184.68 33.796048 184.964489 34.482866 185.470812 34.989188 
C 185.977134 35.495511 186.663952 35.78 187.38 35.78 
z
" clip-path="url(#p969e12652b)" style="stroke: #000000; stroke-width: 2; stroke-linejoin: miter"/>
   </g>
   <g id="patch_6">
    <path d="M 7.38 64.58 
C 8.096048 64.58 8.782866 64.295511 9.289188 63.789188 
C 9.795511 63.282866 10.08 62.596048 10.08 61.88 
C 10.08 61.163952 9.795511 60.477134 9.289188 59.970812 
C 8.782866 59.464489 8.096048 59.18 7.38 59.18 
C 6.663952 59.18 5.977134 59.464489 5.470812 59.970812 
C 4.964489 60.477134 4.68 61.163952 4.68 61.88 
C 4.68 62.596048 4.964489 63.282866 5.470812 63.789188 
C 5.977134 64.295511 6.663952 64.58 7.38 64.58 
z
" clip-path="url(#p969e12652b)" style="fill: #ff0000; stroke: #ff0000; stroke-width: 2; stroke-linejoin: miter"/>
   </g>
  </g>
 </g>
 <defs>
  <clipPath id="p969e12652b">
   <rect x="0" y="0" width="201.06" height="168.8"/>
  </clipPath>
 </defs>
</svg>