<?xml version="1.0" encoding="utf-8" standalone="no"?>
<!DOCTYPE svg PUBLIC "-//W3C//DTD SVG 1.1//EN"
  "http://www.w3.org/Graphics/SVG/1.1/DTD/svg11.dtd">
<svg xmlns:xlink="http://www.w3.org/1999/xlink" width="489.486pt" height="296.443656pt" viewBox="0 0 489.486 296.443656" xmlns="http://www.w3.org/2000/svg" version="1.1">
 <metadata>
  <rdf:RDF xmlns:dc="http://purl.org/dc/elements/1.1/" xmlns:cc="http://creativecommons.org/ns#" xmlns:rdf="http://www.w3.org/1999/02/22-rdf-syntax-ns#">
   <cc:Work>
    <dc:type rdf:resource="http://purl.org/dc/dcmitype/StillImage"/>
    <dc:date>2023-09-25T21:10:47.436117</dc:date>
    <dc:format>image/svg+xml</dc:format>
    <dc:creator>
     <cc:Agent>
      <dc:title>Matplotlib v3.6.3, https://matplotlib.org/</dc:title>
     </cc:Agent>
    </dc:creator>
   </cc:Work>
  </rdf:RDF>
 </metadata>
 <defs>
  <style type="text/css">*{stroke-linejoin: round; stroke-linecap: butt}</style>
 </defs>
 <g id="figure_1">
  <g id="patch_1">
   <path d="M 0 296.443656 
L 489.486 296.443656 
L 489.486 0 
L 0 0 
z
" style="fill: #ffffff"/>
  </g>
  <g id="axes_1">
   <g id="patch_2">
    <path d="M 34.341 238.777656 
C 36.727828 238.777656 39.017219 237.829359 40.704961 236.141617 
C 42.392703 234.453875 43.341 232.164484 43.341 229.777656 
C 43.341 227.390828 42.392703 225.101437 40.704961 223.413695 
C 39.017219 221.725953 36.727828 220.777656 34.341 220.777656 
C 31.954172 220.777656 29.664781 221.725953 27.977039 223.413695 
C 26.289297 225.101437 25.341 227.390828 25.341 229.777656 
C 25.341 232.164484 26.289297 234.453875 27.977039 236.141617 
C 29.664781 237.829359 31.954172 238.777656 34.341 238.777656 
L 34.341 238.777656 
z
" clip-path="url(#pd8b78c9739)" style="fill: none; stroke: #000000; stroke-width: 2; stroke-linejoin: miter"/>
   </g>
   <g id="line2d_1">
    <path d="M 142.341 202.777656 
L 155.541 202.777656 
" clip-path="url(#pd8b78c9739)" style="fill: none; stroke: #000000; stroke-width: 2; stroke-linecap: round"/>
   </g>
   <g id="line2d_2">
    <path d="M 155.541 189.577656 
L 155.541 215.977656 
" clip-path="url(#pd8b78c9739)" style="fill: none; stroke: #000000; stroke-width: 2; stroke-linecap: round"/>
   </g>
   <g id="line2d_3">
    <path d="M 155.541 196.177656 
L 169.401 184.297656 
L 169.401 177.697656 
" clip-path="url(#pd8b78c9739)" style="fill: none; stroke: #000000; stroke-width: 2; stroke-linecap: round"/>
   </g>
   <g id="line2d_4">
    <path d="M 155.541 209.377656 
L 169.401 221.257656 
L 169.401 227.857656 
" clip-path="url(#pd8b78c9739)" style="fill: none; stroke: #000000; stroke-width: 2; stroke-linecap: round"/>
   </g>
   <g id="line2d_5">
    <path d="M 155.541 209.377656 
L 162.567691 215.400534 
" clip-path="url(#pd8b78c9739)" style="fill: none; stroke: #000000; stroke-width: 2; stroke-linecap: round"/>
   </g>
   <g id="patch_3">
    <path d="M 164.91054 212.66721 
L 169.401 221.257656 
L 160.224842 218.133858 
z
" clip-path="url(#pd8b78c9739)"/>
   </g>
   <g id="line2d_6">
    <path d="M 142.341 202.777656 
L 106.341 202.777656 
L 103.341 211.777656 
L 97.341 193.777656 
L 91.341 211.777656 
L 85.341 193.777656 
L 79.341 211.777656 
L 73.341 193.777656 
L 70.341 202.777656 
L 34.341 202.777656 
" clip-path="url(#pd8b78c9739)" style="fill: none; stroke: #000000; stroke-width: 2; stroke-linecap: round"/>
   </g>
   <g id="line2d_7">
    <path d="M 34.341 202.777656 
L 34.341 220.777656 
L 34.341 220.777656 
M 34.341 238.777656 
L 34.341 238.777656 
L 34.341 256.777656 
" clip-path="url(#pd8b78c9739)" style="fill: none; stroke: #000000; stroke-width: 2; stroke-linecap: round"/>
   </g>
   <g id="line2d_8">
    <path d="M 32.541 225.277656 
L 36.141 225.277656 
" clip-path="url(#pd8b78c9739)" style="fill: none; stroke: #000000; stroke-width: 2; stroke-linecap: round"/>
   </g>
   <g id="line2d_9">
    <path d="M 34.341 232.477656 
L 34.341 236.077656 
" clip-path="url(#pd8b78c9739)" style="fill: none; stroke: #000000; stroke-width: 2; stroke-linecap: round"/>
   </g>
   <g id="line2d_10">
    <path d="M 32.541 234.277656 
L 36.141 234.277656 
" clip-path="url(#pd8b78c9739)" style="fill: none; stroke: #000000; stroke-width: 2; stroke-linecap: round"/>
   </g>
   <g id="line2d_11">
    <path d="M 34.341 256.777656 
L 101.871 256.777656 
L 169.401 256.777656 
" clip-path="url(#pd8b78c9739)" style="fill: none; stroke: #000000; stroke-width: 2; stroke-linecap: round"/>
   </g>
   <g id="line2d_12">
    <path d="M 169.401 256.777656 
L 169.401 271.177656 
L 160.401 271.177656 
L 178.401 271.177656 
M 163.101 275.497656 
L 175.701 275.497656 
M 167.601 279.817656 
L 171.201 279.817656 
" clip-path="url(#pd8b78c9739)" style="fill: none; stroke: #000000; stroke-width: 2; stroke-linecap: round"/>
   </g>
   <g id="line2d_13">
    <path d="M 169.401 256.777656 
L 169.401 242.317656 
L 169.401 227.857656 
" clip-path="url(#pd8b78c9739)" style="fill: none; stroke: #000000; stroke-width: 2; stroke-linecap: round"/>
   </g>
   <g id="line2d_14">
    <path d="M 169.401 177.697656 
L 169.401 164.197656 
L 169.401 150.697656 
" clip-path="url(#pd8b78c9739)" style="fill: none; stroke: #000000; stroke-width: 2; stroke-linecap: round"/>
   </g>
   <g id="line2d_15">
    <path d="M 169.401 150.697656 
L 220.161 150.697656 
M 220.161 141.697656 
L 220.161 159.697656 
M 226.641 141.697656 
L 226.641 159.697656 
M 226.641 150.697656 
L 277.401 150.697656 
" clip-path="url(#pd8b78c9739)" style="fill: none; stroke: #000000; stroke-width: 2; stroke-linecap: round"/>
   </g>
   <g id="line2d_16">
    <path d="M 169.401 150.697656 
L 169.401 114.697656 
L 166.436813 114.563587 
L 163.445893 114.155897 
L 160.679083 113.483655 
L 158.368432 112.578118 
L 157.446692 112.053089 
L 156.707729 111.490109 
L 156.167119 110.897889 
L 155.836256 110.285754 
L 155.722116 109.66345 
L 155.827102 109.040936 
L 156.149004 108.428178 
L 156.681035 107.834934 
L 157.411982 107.270551 
L 158.326436 106.743768 
L 160.625309 105.833831 
L 163.38485 105.156314 
L 166.37362 104.742916 
L 169.340957 104.603184 
L 172.037994 104.723714 
L 174.238535 105.069274 
L 175.758024 105.585759 
L 176.219989 105.88712 
L 176.469023 106.204728 
L 176.499878 106.528733 
L 176.311903 106.849147 
L 175.90906 107.15606 
L 174.497085 107.691364 
L 172.382374 108.064627 
L 169.742284 108.21942 
L 166.798236 108.117638 
L 163.797142 107.742693 
L 160.9907 107.100908 
L 158.614281 106.220986 
L 157.651506 105.706255 
L 156.867192 105.151599 
L 156.277869 104.565554 
L 155.895959 103.957314 
L 155.729513 103.336543 
L 155.782038 102.713169 
L 156.052428 102.097174 
L 156.534983 101.498385 
L 157.219532 100.926267 
L 158.091645 100.389721 
L 160.321471 99.455036 
L 163.037447 98.747596 
L 166.011789 98.30161 
L 168.995044 98.129359 
L 171.73701 98.220166 
L 174.007723 98.541292 
L 175.616742 99.04068 
L 176.128431 99.33672 
L 176.42912 99.651324 
L 176.512471 99.974705 
L 176.376725 100.296888 
L 176.024746 100.607926 
L 175.463952 100.898105 
L 173.767352 101.379428 
L 171.429218 101.675367 
L 168.645645 101.735978 
L 165.650087 101.531054 
L 162.693776 101.052659 
L 160.024655 100.31579 
L 157.866578 99.357126 
L 157.037862 98.811285 
L 156.40054 98.231943 
L 155.968045 97.628154 
L 155.749495 97.009487 
L 155.749495 96.385826 
L 155.968045 95.767159 
L 156.40054 95.163369 
L 157.037862 94.584027 
L 157.866578 94.038187 
L 158.86922 93.534196 
L 161.308527 92.680591 
L 164.151202 92.069678 
L 167.158835 91.727569 
L 170.079178 91.657835 
L 172.667309 91.841199 
L 174.706163 92.237161 
L 176.024746 92.787387 
L 176.376725 93.098425 
L 176.512471 93.420608 
L 176.42912 93.743988 
L 176.128431 94.058593 
L 175.616742 94.354633 
L 174.007723 94.854021 
L 171.73701 95.175146 
L 168.995044 95.265953 
L 166.011789 95.093702 
L 163.037447 94.647717 
L 160.321471 93.940277 
L 158.091645 93.005591 
L 157.219532 92.469046 
L 156.534983 91.896928 
L 156.052428 91.298139 
L 155.782038 90.682144 
L 155.729513 90.058769 
L 155.895959 89.437999 
L 156.277869 88.829759 
L 156.867192 88.243713 
L 157.651506 87.689058 
L 158.614281 87.174327 
L 160.9907 86.294404 
L 163.797142 85.65262 
L 166.798236 85.277675 
L 169.742284 85.175893 
L 172.382374 85.330686 
L 174.497085 85.703949 
L 175.90906 86.239253 
L 176.311903 86.546166 
L 176.499878 86.86658 
L 176.469023 87.190584 
L 176.219989 87.508193 
L 175.758024 87.809554 
L 174.238535 88.326039 
L 172.037994 88.671599 
L 169.340957 88.792129 
L 166.37362 88.652397 
L 163.38485 88.238998 
L 160.625309 87.561481 
L 158.326436 86.651544 
L 157.411982 86.124762 
L 156.681035 85.560379 
L 156.149004 84.967135 
L 155.827102 84.354376 
L 155.722116 83.731863 
L 155.836256 83.109559 
L 156.167119 82.497424 
L 156.707729 81.905203 
L 157.446692 81.342224 
L 158.368432 80.817194 
L 160.679083 79.911657 
L 163.445893 79.239416 
L 166.436813 78.831726 
L 169.401 78.697656 
L 169.401 42.697656 
L 169.401 42.697656 
" clip-path="url(#pd8b78c9739)" style="fill: none; stroke: #000000; stroke-width: 2; stroke-linecap: round"/>
   </g>
   <g id="line2d_17">
    <path d="M 169.401 42.697656 
L 169.401 38.197656 
L 169.401 33.697656 
" clip-path="url(#pd8b78c9739)" style="fill: none; stroke: #000000; stroke-width: 2; stroke-linecap: round"/>
   </g>
   <g id="line2d_18">
    <path d="M 169.401 42.697656 
L 169.401 28.297656 
" clip-path="url(#pd8b78c9739)" style="fill: none; stroke: #000000; stroke-width: 2; stroke-linecap: round"/>
   </g>
   <g id="line2d_19">
    <path d="M 169.401 28.297656 
L 162.651 28.297656 
" clip-path="url(#pd8b78c9739)" style="fill: none; stroke: #000000; stroke-width: 2; stroke-linecap: round"/>
   </g>
   <g id="line2d_20">
    <path d="M 169.401 28.297656 
L 176.151 28.297656 
" clip-path="url(#pd8b78c9739)" style="fill: none; stroke: #000000; stroke-width: 2; stroke-linecap: round"/>
   </g>
   <g id="line2d_21">
    <path d="M 277.401 150.697656 
L 277.401 114.697656 
L 268.401 111.697656 
L 286.401 105.697656 
L 268.401 99.697656 
L 286.401 93.697656 
L 268.401 87.697656 
L 286.401 81.697656 
L 277.401 78.697656 
L 277.401 42.697656 
" clip-path="url(#pd8b78c9739)" style="fill: none; stroke: #000000; stroke-width: 2; stroke-linecap: round"/>
   </g>
   <g id="line2d_22">
    <path d="M 277.401 42.697656 
L 277.401 38.197656 
L 277.401 33.697656 
" clip-path="url(#pd8b78c9739)" style="fill: none; stroke: #000000; stroke-width: 2; stroke-linecap: round"/>
   </g>
   <g id="line2d_23">
    <path d="M 277.401 33.697656 
L 277.401 19.297656 
" clip-path="url(#pd8b78c9739)" style="fill: none; stroke: #000000; stroke-width: 2; stroke-linecap: round"/>
   </g>
   <g id="line2d_24">
    <path d="M 277.401 19.297656 
L 270.651 19.297656 
" clip-path="url(#pd8b78c9739)" style="fill: none; stroke: #000000; stroke-width: 2; stroke-linecap: round"/>
   </g>
   <g id="line2d_25">
    <path d="M 277.401 19.297656 
L 284.151 19.297656 
" clip-path="url(#pd8b78c9739)" style="fill: none; stroke: #000000; stroke-width: 2; stroke-linecap: round"/>
   </g>
   <g id="line2d_26">
    <path d="M 277.401 150.697656 
L 277.401 176.737656 
L 277.401 202.777656 
" clip-path="url(#pd8b78c9739)" style="fill: none; stroke: #000000; stroke-width: 2; stroke-linecap: round"/>
   </g>
   <g id="line2d_27">
    <path d="M 277.401 202.777656 
L 322.401 202.777656 
L 367.401 202.777656 
" clip-path="url(#pd8b78c9739)" style="fill: none; stroke: #000000; stroke-width: 2; stroke-linecap: round"/>
   </g>
   <g id="line2d_28">
    <path d="M 367.401 202.777656 
L 380.601 202.777656 
" clip-path="url(#pd8b78c9739)" style="fill: none; stroke: #000000; stroke-width: 2; stroke-linecap: round"/>
   </g>
   <g id="line2d_29">
    <path d="M 380.601 189.577656 
L 380.601 215.977656 
" clip-path="url(#pd8b78c9739)" style="fill: none; stroke: #000000; stroke-width: 2; stroke-linecap: round"/>
   </g>
   <g id="line2d_30">
    <path d="M 380.601 196.177656 
L 394.461 184.297656 
L 394.461 177.697656 
" clip-path="url(#pd8b78c9739)" style="fill: none; stroke: #000000; stroke-width: 2; stroke-linecap: round"/>
   </g>
   <g id="line2d_31">
    <path d="M 380.601 209.377656 
L 394.461 221.257656 
L 394.461 227.857656 
" clip-path="url(#pd8b78c9739)" style="fill: none; stroke: #000000; stroke-width: 2; stroke-linecap: round"/>
   </g>
   <g id="line2d_32">
    <path d="M 380.601 209.377656 
L 387.627691 215.400534 
" clip-path="url(#pd8b78c9739)" style="fill: none; stroke: #000000; stroke-width: 2; stroke-linecap: round"/>
   </g>
   <g id="patch_4">
    <path d="M 389.97054 212.66721 
L 394.461 221.257656 
L 385.284842 218.133858 
z
" clip-path="url(#pd8b78c9739)"/>
   </g>
   <g id="line2d_33">
    <path d="M 394.461 227.857656 
L 394.461 242.317656 
L 394.461 256.777656 
" clip-path="url(#pd8b78c9739)" style="fill: none; stroke: #000000; stroke-width: 2; stroke-linecap: round"/>
   </g>
   <g id="line2d_34">
    <path d="M 394.461 256.777656 
L 394.461 271.177656 
L 385.461 271.177656 
L 403.461 271.177656 
M 388.161 275.497656 
L 400.761 275.497656 
M 392.661 279.817656 
L 396.261 279.817656 
" clip-path="url(#pd8b78c9739)" style="fill: none; stroke: #000000; stroke-width: 2; stroke-linecap: round"/>
   </g>
   <g id="line2d_35">
    <path d="M 394.461 177.697656 
L 394.461 164.197656 
L 394.461 150.697656 
" clip-path="url(#pd8b78c9739)" style="fill: none; stroke: #000000; stroke-width: 2; stroke-linecap: round"/>
   </g>
   <g id="line2d_36">
    <path d="M 394.461 150.697656 
L 394.461 99.937656 
M 385.461 99.937656 
L 403.461 99.937656 
M 385.461 93.457656 
L 403.461 93.457656 
M 394.461 93.457656 
L 394.461 42.697656 
" clip-path="url(#pd8b78c9739)" style="fill: none; stroke: #000000; stroke-width: 2; stroke-linecap: round"/>
   </g>
   <g id="line2d_37">
    <path d="M 394.461 150.697656 
L 371.961 150.697656 
L 349.461 150.697656 
" clip-path="url(#pd8b78c9739)" style="fill: none; stroke: #000000; stroke-width: 2; stroke-linecap: round"/>
   </g>
   <g id="line2d_38">
    <path d="M 349.461 150.697656 
L 349.461 114.697656 
L 346.496813 114.563587 
L 343.505893 114.155897 
L 340.739083 113.483655 
L 338.428432 112.578118 
L 337.506692 112.053089 
L 336.767729 111.490109 
L 336.227119 110.897889 
L 335.896256 110.285754 
L 335.782116 109.66345 
L 335.887102 109.040936 
L 336.209004 108.428178 
L 336.741035 107.834934 
L 337.471982 107.270551 
L 338.386436 106.743768 
L 340.685309 105.833831 
L 343.44485 105.156314 
L 346.43362 104.742916 
L 349.400957 104.603184 
L 352.097994 104.723714 
L 354.298535 105.069274 
L 355.818024 105.585759 
L 356.279989 105.88712 
L 356.529023 106.204728 
L 356.559878 106.528733 
L 356.371903 106.849147 
L 355.96906 107.15606 
L 354.557085 107.691364 
L 352.442374 108.064627 
L 349.802284 108.21942 
L 346.858236 108.117638 
L 343.857142 107.742693 
L 341.0507 107.100908 
L 338.674281 106.220986 
L 337.711506 105.706255 
L 336.927192 105.151599 
L 336.337869 104.565554 
L 335.955959 103.957314 
L 335.789513 103.336543 
L 335.842038 102.713169 
L 336.112428 102.097174 
L 336.594983 101.498385 
L 337.279532 100.926267 
L 338.151645 100.389721 
L 340.381471 99.455036 
L 343.097447 98.747596 
L 346.071789 98.30161 
L 349.055044 98.129359 
L 351.79701 98.220166 
L 354.067723 98.541292 
L 355.676742 99.04068 
L 356.188431 99.33672 
L 356.48912 99.651324 
L 356.572471 99.974705 
L 356.436725 100.296888 
L 356.084746 100.607926 
L 355.523952 100.898105 
L 353.827352 101.379428 
L 351.489218 101.675367 
L 348.705645 101.735978 
L 345.710087 101.531054 
L 342.753776 101.052659 
L 340.084655 100.31579 
L 337.926578 99.357126 
L 337.097862 98.811285 
L 336.46054 98.231943 
L 336.028045 97.628154 
L 335.809495 97.009487 
L 335.809495 96.385826 
L 336.028045 95.767159 
L 336.46054 95.163369 
L 337.097862 94.584027 
L 337.926578 94.038187 
L 338.92922 93.534196 
L 341.368527 92.680591 
L 344.211202 92.069678 
L 347.218835 91.727569 
L 350.139178 91.657835 
L 352.727309 91.841199 
L 354.766163 92.237161 
L 356.084746 92.787387 
L 356.436725 93.098425 
L 356.572471 93.420608 
L 356.48912 93.743988 
L 356.188431 94.058593 
L 355.676742 94.354633 
L 354.067723 94.854021 
L 351.79701 95.175146 
L 349.055044 95.265953 
L 346.071789 95.093702 
L 343.097447 94.647717 
L 340.381471 93.940277 
L 338.151645 93.005591 
L 337.279532 92.469046 
L 336.594983 91.896928 
L 336.112428 91.298139 
L 335.842038 90.682144 
L 335.789513 90.058769 
L 335.955959 89.437999 
L 336.337869 88.829759 
L 336.927192 88.243713 
L 337.711506 87.689058 
L 338.674281 87.174327 
L 341.0507 86.294404 
L 343.857142 85.65262 
L 346.858236 85.277675 
L 349.802284 85.175893 
L 352.442374 85.330686 
L 354.557085 85.703949 
L 355.96906 86.239253 
L 356.371903 86.546166 
L 356.559878 86.86658 
L 356.529023 87.190584 
L 356.279989 87.508193 
L 355.818024 87.809554 
L 354.298535 88.326039 
L 352.097994 88.671599 
L 349.400957 88.792129 
L 346.43362 88.652397 
L 343.44485 88.238998 
L 340.685309 87.561481 
L 338.386436 86.651544 
L 337.471982 86.124762 
L 336.741035 85.560379 
L 336.209004 84.967135 
L 335.887102 84.354376 
L 335.782116 83.731863 
L 335.896256 83.109559 
L 336.227119 82.497424 
L 336.767729 81.905203 
L 337.506692 81.342224 
L 338.428432 80.817194 
L 340.739083 79.911657 
L 343.505893 79.239416 
L 346.496813 78.831726 
L 349.461 78.697656 
L 349.461 42.697656 
L 349.461 42.697656 
" clip-path="url(#pd8b78c9739)" style="fill: none; stroke: #000000; stroke-width: 2; stroke-linecap: round"/>
   </g>
   <g id="line2d_39">
    <path d="M 394.461 150.697656 
L 416.961 150.697656 
L 439.461 150.697656 
" clip-path="url(#pd8b78c9739)" style="fill: none; stroke: #000000; stroke-width: 2; stroke-linecap: round"/>
   </g>
   <g id="line2d_40">
    <path d="M 439.461 150.697656 
L 439.461 114.697656 
L 430.461 111.697656 
L 448.461 105.697656 
L 430.461 99.697656 
L 448.461 93.697656 
L 430.461 87.697656 
L 448.461 81.697656 
L 439.461 78.697656 
L 439.461 42.697656 
" clip-path="url(#pd8b78c9739)" style="fill: none; stroke: #000000; stroke-width: 2; stroke-linecap: round"/>
   </g>
   <g id="line2d_41">
    <path d="M 439.461 150.697656 
L 448.461 150.697656 
L 457.461 150.697656 
" clip-path="url(#pd8b78c9739)" style="fill: none; stroke: #000000; stroke-width: 2; stroke-linecap: round"/>
   </g>
   <g id="line2d_42">
    <path d="M 439.461 42.697656 
L 416.961 42.697656 
L 394.461 42.697656 
" clip-path="url(#pd8b78c9739)" style="fill: none; stroke: #000000; stroke-width: 2; stroke-linecap: round"/>
   </g>
   <g id="line2d_43">
    <path d="M 349.461 42.697656 
L 371.961 42.697656 
L 394.461 42.697656 
" clip-path="url(#pd8b78c9739)" style="fill: none; stroke: #000000; stroke-width: 2; stroke-linecap: round"/>
   </g>
   <g id="line2d_44">
    <path d="M 394.461 42.697656 
L 394.461 38.197656 
L 394.461 33.697656 
" clip-path="url(#pd8b78c9739)" style="fill: none; stroke: #000000; stroke-width: 2; stroke-linecap: round"/>
   </g>
   <g id="line2d_45">
    <path d="M 394.461 33.697656 
L 394.461 19.297656 
" clip-path="url(#pd8b78c9739)" style="fill: none; stroke: #000000; stroke-width: 2; stroke-linecap: round"/>
   </g>
   <g id="line2d_46">
    <path d="M 394.461 19.297656 
L 387.711 19.297656 
" clip-path="url(#pd8b78c9739)" style="fill: none; stroke: #000000; stroke-width: 2; stroke-linecap: round"/>
   </g>
   <g id="line2d_47">
    <path d="M 394.461 19.297656 
L 401.211 19.297656 
" clip-path="url(#pd8b78c9739)" style="fill: none; stroke: #000000; stroke-width: 2; stroke-linecap: round"/>
   </g>
   <g id="text_1">
    <!-- $R_{in}$ -->
    <g transform="translate(79.7785 187.578047) scale(0.125 -0.125)">
     <defs>
      <path id="DejaVuSans-Oblique-52" d="M 1613 4147 
L 1294 2491 
L 2106 2491 
Q 2584 2491 2879 2755 
Q 3175 3019 3175 3444 
Q 3175 3784 2976 3965 
Q 2778 4147 2406 4147 
L 1613 4147 
z
M 2772 2241 
Q 2972 2194 3105 2009 
Q 3238 1825 3413 1275 
L 3809 0 
L 3144 0 
L 2778 1197 
Q 2638 1659 2453 1815 
Q 2269 1972 1888 1972 
L 1191 1972 
L 806 0 
L 172 0 
L 1081 4666 
L 2503 4666 
Q 3150 4666 3495 4373 
Q 3841 4081 3841 3531 
Q 3841 3044 3547 2687 
Q 3253 2331 2772 2241 
z
" transform="scale(0.015625)"/>
      <path id="DejaVuSans-Oblique-69" d="M 1172 4863 
L 1747 4863 
L 1606 4134 
L 1031 4134 
L 1172 4863 
z
M 909 3500 
L 1484 3500 
L 800 0 
L 225 0 
L 909 3500 
z
" transform="scale(0.015625)"/>
      <path id="DejaVuSans-Oblique-6e" d="M 3566 2113 
L 3156 0 
L 2578 0 
L 2988 2091 
Q 3016 2238 3031 2350 
Q 3047 2463 3047 2528 
Q 3047 2791 2881 2937 
Q 2716 3084 2419 3084 
Q 1956 3084 1622 2776 
Q 1288 2469 1184 1941 
L 800 0 
L 225 0 
L 903 3500 
L 1478 3500 
L 1363 2950 
Q 1603 3253 1940 3418 
Q 2278 3584 2650 3584 
Q 3113 3584 3367 3334 
Q 3622 3084 3622 2631 
Q 3622 2519 3608 2391 
Q 3594 2263 3566 2113 
z
" transform="scale(0.015625)"/>
     </defs>
     <use xlink:href="#DejaVuSans-Oblique-52" transform="translate(0 0.09375)"/>
     <use xlink:href="#DejaVuSans-Oblique-69" transform="translate(69.482422 -16.3125) scale(0.7)"/>
     <use xlink:href="#DejaVuSans-Oblique-6e" transform="translate(88.930664 -16.3125) scale(0.7)"/>
    </g>
   </g>
   <g id="text_2">
    <!-- $V_{in}$ -->
    <g transform="translate(6.666 233.226875) scale(0.125 -0.125)">
     <defs>
      <path id="DejaVuSans-Oblique-56" d="M 1319 0 
L 500 4666 
L 1119 4666 
L 1797 653 
L 4063 4666 
L 4750 4666 
L 2053 0 
L 1319 0 
z
" transform="scale(0.015625)"/>
     </defs>
     <use xlink:href="#DejaVuSans-Oblique-56" transform="translate(0 0.09375)"/>
     <use xlink:href="#DejaVuSans-Oblique-69" transform="translate(68.408203 -16.3125) scale(0.7)"/>
     <use xlink:href="#DejaVuSans-Oblique-6e" transform="translate(87.856445 -16.3125) scale(0.7)"/>
    </g>
   </g>
   <g id="text_3">
    <!-- $C_1$ -->
    <g transform="translate(216.026 135.498047) scale(0.125 -0.125)">
     <defs>
      <path id="DejaVuSans-Oblique-43" d="M 4447 4306 
L 4319 3641 
Q 4019 3944 3683 4091 
Q 3347 4238 2956 4238 
Q 2422 4238 2017 3981 
Q 1613 3725 1319 3200 
Q 1131 2863 1032 2486 
Q 934 2109 934 1728 
Q 934 1091 1264 756 
Q 1594 422 2222 422 
Q 2656 422 3056 561 
Q 3456 700 3834 978 
L 3688 231 
Q 3316 72 2936 -9 
Q 2556 -91 2175 -91 
Q 1278 -91 773 396 
Q 269 884 269 1753 
Q 269 2309 461 2846 
Q 653 3384 1013 3828 
Q 1394 4300 1883 4525 
Q 2372 4750 3022 4750 
Q 3422 4750 3780 4639 
Q 4138 4528 4447 4306 
z
" transform="scale(0.015625)"/>
      <path id="DejaVuSans-31" d="M 794 531 
L 1825 531 
L 1825 4091 
L 703 3866 
L 703 4441 
L 1819 4666 
L 2450 4666 
L 2450 531 
L 3481 531 
L 3481 0 
L 794 0 
L 794 531 
z
" transform="scale(0.015625)"/>
     </defs>
     <use xlink:href="#DejaVuSans-Oblique-43" transform="translate(0 0.78125)"/>
     <use xlink:href="#DejaVuSans-31" transform="translate(69.824219 -15.625) scale(0.7)"/>
    </g>
   </g>
   <g id="text_4">
    <!-- $L_1$ -->
    <g transform="translate(139.247116 100.146875) scale(0.125 -0.125)">
     <defs>
      <path id="DejaVuSans-Oblique-4c" d="M 1075 4666 
L 1709 4666 
L 909 525 
L 3181 525 
L 3078 0 
L 172 0 
L 1075 4666 
z
" transform="scale(0.015625)"/>
     </defs>
     <use xlink:href="#DejaVuSans-Oblique-4c" transform="translate(0 0.09375)"/>
     <use xlink:href="#DejaVuSans-31" transform="translate(55.712891 -16.3125) scale(0.7)"/>
    </g>
   </g>
   <g id="text_5">
    <!-- $V_{dd}$ -->
    <g transform="translate(159.3385 22.098047) scale(0.125 -0.125)">
     <defs>
      <path id="DejaVuSans-Oblique-64" d="M 2675 525 
Q 2444 222 2128 65 
Q 1813 -91 1428 -91 
Q 903 -91 598 267 
Q 294 625 294 1247 
Q 294 1766 478 2236 
Q 663 2706 1013 3078 
Q 1244 3325 1534 3454 
Q 1825 3584 2144 3584 
Q 2481 3584 2739 3421 
Q 2997 3259 3138 2956 
L 3513 4863 
L 4091 4863 
L 3144 0 
L 2566 0 
L 2675 525 
z
M 891 1350 
Q 891 897 1095 644 
Q 1300 391 1663 391 
Q 1931 391 2161 520 
Q 2391 650 2566 903 
Q 2750 1166 2856 1509 
Q 2963 1853 2963 2188 
Q 2963 2622 2758 2865 
Q 2553 3109 2194 3109 
Q 1922 3109 1687 2981 
Q 1453 2853 1288 2613 
Q 1106 2353 998 2009 
Q 891 1666 891 1350 
z
" transform="scale(0.015625)"/>
     </defs>
     <use xlink:href="#DejaVuSans-Oblique-56" transform="translate(0 0.09375)"/>
     <use xlink:href="#DejaVuSans-Oblique-64" transform="translate(68.408203 -16.3125) scale(0.7)"/>
     <use xlink:href="#DejaVuSans-Oblique-64" transform="translate(112.841797 -16.3125) scale(0.7)"/>
    </g>
   </g>
   <g id="text_6">
    <!-- $R_b$ -->
    <g transform="translate(250.176 100.146875) scale(0.125 -0.125)">
     <defs>
      <path id="DejaVuSans-Oblique-62" d="M 3169 2138 
Q 3169 2591 2961 2847 
Q 2753 3103 2388 3103 
Q 2122 3103 1889 2973 
Q 1656 2844 1484 2597 
Q 1303 2338 1198 1995 
Q 1094 1653 1094 1313 
Q 1094 881 1298 636 
Q 1503 391 1863 391 
Q 2134 391 2365 517 
Q 2597 644 2772 891 
Q 2950 1147 3059 1487 
Q 3169 1828 3169 2138 
z
M 1381 2969 
Q 1594 3256 1914 3420 
Q 2234 3584 2584 3584 
Q 3122 3584 3439 3221 
Q 3756 2859 3756 2241 
Q 3756 1734 3570 1259 
Q 3384 784 3041 416 
Q 2816 172 2522 40 
Q 2228 -91 1906 -91 
Q 1566 -91 1316 65 
Q 1066 222 909 531 
L 806 0 
L 231 0 
L 1178 4863 
L 1753 4863 
L 1381 2969 
z
" transform="scale(0.015625)"/>
     </defs>
     <use xlink:href="#DejaVuSans-Oblique-52" transform="translate(0 0.09375)"/>
     <use xlink:href="#DejaVuSans-Oblique-62" transform="translate(69.482422 -16.3125) scale(0.7)"/>
    </g>
   </g>
   <g id="text_7">
    <!-- $V_{dd}$ -->
    <g transform="translate(267.3385 13.098047) scale(0.125 -0.125)">
     <use xlink:href="#DejaVuSans-Oblique-56" transform="translate(0 0.09375)"/>
     <use xlink:href="#DejaVuSans-Oblique-64" transform="translate(68.408203 -16.3125) scale(0.7)"/>
     <use xlink:href="#DejaVuSans-Oblique-64" transform="translate(112.841797 -16.3125) scale(0.7)"/>
    </g>
   </g>
   <g id="text_8">
    <!-- $C_2$ -->
    <g transform="translate(367.111 100.146875) scale(0.125 -0.125)">
     <defs>
      <path id="DejaVuSans-32" d="M 1228 531 
L 3431 531 
L 3431 0 
L 469 0 
L 469 531 
Q 828 903 1448 1529 
Q 2069 2156 2228 2338 
Q 2531 2678 2651 2914 
Q 2772 3150 2772 3378 
Q 2772 3750 2511 3984 
Q 2250 4219 1831 4219 
Q 1534 4219 1204 4116 
Q 875 4013 500 3803 
L 500 4441 
Q 881 4594 1212 4672 
Q 1544 4750 1819 4750 
Q 2544 4750 2975 4387 
Q 3406 4025 3406 3419 
Q 3406 3131 3298 2873 
Q 3191 2616 2906 2266 
Q 2828 2175 2409 1742 
Q 1991 1309 1228 531 
z
" transform="scale(0.015625)"/>
     </defs>
     <use xlink:href="#DejaVuSans-Oblique-43" transform="translate(0 0.78125)"/>
     <use xlink:href="#DejaVuSans-32" transform="translate(69.824219 -15.625) scale(0.7)"/>
    </g>
   </g>
   <g id="text_9">
    <!-- $L_2$ -->
    <g transform="translate(319.307116 100.146875) scale(0.125 -0.125)">
     <use xlink:href="#DejaVuSans-Oblique-4c" transform="translate(0 0.09375)"/>
     <use xlink:href="#DejaVuSans-32" transform="translate(55.712891 -16.3125) scale(0.7)"/>
    </g>
   </g>
   <g id="text_10">
    <!-- $R_L$ -->
    <g transform="translate(412.861 100.146875) scale(0.125 -0.125)">
     <use xlink:href="#DejaVuSans-Oblique-52" transform="translate(0 0.09375)"/>
     <use xlink:href="#DejaVuSans-Oblique-4c" transform="translate(69.482422 -16.3125) scale(0.7)"/>
    </g>
   </g>
   <g id="text_11">
    <!-- $V_{dd}$ -->
    <g transform="translate(384.3985 13.098047) scale(0.125 -0.125)">
     <use xlink:href="#DejaVuSans-Oblique-56" transform="translate(0 0.09375)"/>
     <use xlink:href="#DejaVuSans-Oblique-64" transform="translate(68.408203 -16.3125) scale(0.7)"/>
     <use xlink:href="#DejaVuSans-Oblique-64" transform="translate(112.841797 -16.3125) scale(0.7)"/>
    </g>
   </g>
   <g id="patch_5">
    <path d="M 169.401 153.397656 
C 170.117048 153.397656 170.803866 153.113167 171.310188 152.606845 
C 171.816511 152.100522 172.101 151.413705 172.101 150.697656 
C 172.101 149.981608 171.816511 149.294791 171.310188 148.788468 
C 170.803866 148.282145 170.117048 147.997656 169.401 147.997656 
C 168.684952 147.997656 167.998134 148.282145 167.491812 148.788468 
C 166.985489 149.294791 166.701 149.981608 166.701 150.697656 
C 166.701 151.413705 166.985489 152.100522 167.491812 152.606845 
C 167.998134 153.113167 168.684952 153.397656 169.401 153.397656 
z
" clip-path="url(#pd8b78c9739)" style="stroke: #000000; stroke-width: 2; stroke-linejoin: miter"/>
   </g>
   <g id="patch_6">
    <path d="M 277.401 153.397656 
C 278.117048 153.397656 278.803866 153.113167 279.310188 152.606845 
C 279.816511 152.100522 280.101 151.413705 280.101 150.697656 
C 280.101 149.981608 279.816511 149.294791 279.310188 148.788468 
C 278.803866 148.282145 278.117048 147.997656 277.401 147.997656 
C 276.684952 147.997656 275.998134 148.282145 275.491812 148.788468 
C 274.985489 149.294791 274.701 149.981608 274.701 150.697656 
C 274.701 151.413705 274.985489 152.100522 275.491812 152.606845 
C 275.998134 153.113167 276.684952 153.397656 277.401 153.397656 
z
" clip-path="url(#pd8b78c9739)" style="stroke: #000000; stroke-width: 2; stroke-linejoin: miter"/>
   </g>
   <g id="patch_7">
    <path d="M 394.461 153.397656 
C 395.177048 153.397656 395.863866 153.113167 396.370188 152.606845 
C 396.876511 152.100522 397.161 151.413705 397.161 150.697656 
C 397.161 149.981608 396.876511 149.294791 396.370188 148.788468 
C 395.863866 148.282145 395.177048 147.997656 394.461 147.997656 
C 393.744952 147.997656 393.058134 148.282145 392.551812 148.788468 
C 392.045489 149.294791 391.761 149.981608 391.761 150.697656 
C 391.761 151.413705 392.045489 152.100522 392.551812 152.606845 
C 393.058134 153.113167 393.744952 153.397656 394.461 153.397656 
z
" clip-path="url(#pd8b78c9739)" style="stroke: #000000; stroke-width: 2; stroke-linejoin: miter"/>
   </g>
   <g id="patch_8">
    <path d="M 457.461 153.397656 
C 458.177048 153.397656 458.863866 153.113167 459.370188 152.606845 
C 459.876511 152.100522 460.161 151.413705 460.161 150.697656 
C 460.161 149.981608 459.876511 149.294791 459.370188 148.788468 
C 458.863866 148.282145 458.177048 147.997656 457.461 147.997656 
C 456.744952 147.997656 456.058134 148.282145 455.551812 148.788468 
C 455.045489 149.294791 454.761 149.981608 454.761 150.697656 
C 454.761 151.413705 455.045489 152.100522 455.551812 152.606845 
C 456.058134 153.113167 456.744952 153.397656 457.461 153.397656 
z
" clip-path="url(#pd8b78c9739)" style="fill: #ffffff; stroke: #000000; stroke-width: 2; stroke-linejoin: miter"/>
   </g>
   <g id="text_12">
    <!-- $v_{out}$ -->
    <g transform="translate(463.761 154.146875) scale(0.125 -0.125)">
     <defs>
      <path id="DejaVuSans-Oblique-76" d="M 459 3500 
L 1069 3500 
L 1581 525 
L 3256 3500 
L 3866 3500 
L 1875 0 
L 1100 0 
L 459 3500 
z
" transform="scale(0.015625)"/>
      <path id="DejaVuSans-Oblique-6f" d="M 1625 -91 
Q 1009 -91 651 289 
Q 294 669 294 1325 
Q 294 1706 417 2101 
Q 541 2497 738 2766 
Q 1047 3184 1428 3384 
Q 1809 3584 2291 3584 
Q 2888 3584 3255 3212 
Q 3622 2841 3622 2241 
Q 3622 1825 3500 1412 
Q 3378 1000 3181 728 
Q 2875 309 2494 109 
Q 2113 -91 1625 -91 
z
M 891 1344 
Q 891 869 1089 633 
Q 1288 397 1691 397 
Q 2269 397 2648 901 
Q 3028 1406 3028 2181 
Q 3028 2634 2825 2865 
Q 2622 3097 2228 3097 
Q 1903 3097 1650 2945 
Q 1397 2794 1197 2484 
Q 1050 2253 970 1956 
Q 891 1659 891 1344 
z
" transform="scale(0.015625)"/>
      <path id="DejaVuSans-Oblique-75" d="M 428 1388 
L 838 3500 
L 1416 3500 
L 1006 1409 
Q 975 1256 961 1147 
Q 947 1038 947 966 
Q 947 700 1109 554 
Q 1272 409 1569 409 
Q 2031 409 2368 721 
Q 2706 1034 2809 1563 
L 3194 3500 
L 3769 3500 
L 3091 0 
L 2516 0 
L 2631 550 
Q 2388 244 2052 76 
Q 1716 -91 1338 -91 
Q 878 -91 622 161 
Q 366 413 366 863 
Q 366 956 381 1097 
Q 397 1238 428 1388 
z
" transform="scale(0.015625)"/>
      <path id="DejaVuSans-Oblique-74" d="M 2706 3500 
L 2619 3053 
L 1472 3053 
L 1100 1153 
Q 1081 1047 1072 975 
Q 1063 903 1063 863 
Q 1063 663 1183 572 
Q 1303 481 1569 481 
L 2150 481 
L 2053 0 
L 1503 0 
Q 991 0 739 200 
Q 488 400 488 806 
Q 488 878 497 964 
Q 506 1050 525 1153 
L 897 3053 
L 409 3053 
L 500 3500 
L 978 3500 
L 1172 4494 
L 1747 4494 
L 1556 3500 
L 2706 3500 
z
" transform="scale(0.015625)"/>
     </defs>
     <use xlink:href="#DejaVuSans-Oblique-76" transform="translate(0 0.3125)"/>
     <use xlink:href="#DejaVuSans-Oblique-6f" transform="translate(59.179688 -16.09375) scale(0.7)"/>
     <use xlink:href="#DejaVuSans-Oblique-75" transform="translate(102.006836 -16.09375) scale(0.7)"/>
     <use xlink:href="#DejaVuSans-Oblique-74" transform="translate(146.37207 -16.09375) scale(0.7)"/>
    </g>
   </g>
   <g id="patch_9">
    <path d="M 394.461 45.397656 
C 395.177048 45.397656 395.863866 45.113167 396.370188 44.606845 
C 396.876511 44.100522 397.161 43.413705 397.161 42.697656 
C 397.161 41.981608 396.876511 41.294791 396.370188 40.788468 
C 395.863866 40.282145 395.177048 39.997656 394.461 39.997656 
C 393.744952 39.997656 393.058134 40.282145 392.551812 40.788468 
C 392.045489 41.294791 391.761 41.981608 391.761 42.697656 
C 391.761 43.413705 392.045489 44.100522 392.551812 44.606845 
C 393.058134 45.113167 393.744952 45.397656 394.461 45.397656 
z
" clip-path="url(#pd8b78c9739)" style="stroke: #000000; stroke-width: 2; stroke-linejoin: miter"/>
   </g>
  </g>
 </g>
 <defs>
  <clipPath id="pd8b78c9739">
   <rect x="3.6" y="6.271656" width="478.302" height="286.572"/>
  </clipPath>
 </defs>
</svg>