<?xml version="1.0" encoding="utf-8" standalone="no"?>
<!DOCTYPE svg PUBLIC "-//W3C//DTD SVG 1.1//EN"
  "http://www.w3.org/Graphics/SVG/1.1/DTD/svg11.dtd">
<svg xmlns:xlink="http://www.w3.org/1999/xlink" width="357.528pt" height="168.8pt" viewBox="0 0 357.528 168.8" xmlns="http://www.w3.org/2000/svg" version="1.1">
 <metadata>
  <rdf:RDF xmlns:dc="http://purl.org/dc/elements/1.1/" xmlns:cc="http://creativecommons.org/ns#" xmlns:rdf="http://www.w3.org/1999/02/22-rdf-syntax-ns#">
   <cc:Work>
    <dc:type rdf:resource="http://purl.org/dc/dcmitype/StillImage"/>
    <dc:date>2025-11-29T20:07:03.118185</dc:date>
    <dc:format>image/svg+xml</dc:format>
    <dc:creator>
     <cc:Agent>
      <dc:title>Matplotlib v3.10.8, https://matplotlib.org/</dc:title>
     </cc:Agent>
    </dc:creator>
   </cc:Work>
  </rdf:RDF>
 </metadata>
 <defs>
  <style type="text/css">*{stroke-linejoin: round; stroke-linecap: butt}</style>
 </defs>
 <g id="figure_1">
  <g id="patch_1">
   <path d="M 0 168.8 
L 357.528 168.8 
L 357.528 0 
L 0 0 
z
" style="fill: #ffffff"/>
  </g>
  <g id="axes_1">
   <g id="patch_2">
    <path d="M 55.848 105.08 
C 60.621656 105.08 65.200438 103.183406 68.575922 99.807922 
C 71.951406 96.432438 73.848 91.853656 73.848 87.08 
C 73.848 82.306344 71.951406 77.727562 68.575922 74.352078 
C 65.200438 70.976594 60.621656 69.08 55.848 69.08 
C 51.074344 69.08 46.495562 70.976594 43.120078 74.352078 
C 39.744594 77.727562 37.848 82.306344 37.848 87.08 
C 37.848 91.853656 39.744594 96.432438 43.120078 99.807922 
C 46.495562 103.183406 51.074344 105.08 55.848 105.08 
L 55.848 105.08 
z
" clip-path="url(#pe1068230d8)" style="fill: none; stroke: #000000; stroke-width: 2; stroke-linejoin: miter"/>
   </g>
   <g id="patch_3">
    <path d="M 190.848 33.08 
C 190.848 31.661757 190.708319 30.257305 190.436949 28.947019 
C 190.16558 27.636733 189.767801 26.446096 189.266377 25.443247 
C 188.764952 24.440398 188.169633 23.644839 187.514491 23.102101 
C 186.859348 22.559363 186.157122 22.28 185.448 22.28 
C 184.738878 22.28 184.036652 22.559363 183.381509 23.102101 
C 182.726367 23.644839 182.131048 24.440398 181.629623 25.443247 
C 181.128199 26.446096 180.73042 27.636733 180.459051 28.947019 
C 180.187681 30.257305 180.048 31.661757 180.048 33.08 
C 180.048 34.498243 180.187681 35.902695 180.459051 37.212981 
C 180.73042 38.523267 181.128199 39.713904 181.629623 40.716753 
C 182.131048 41.719602 182.726367 42.515161 183.381509 43.057899 
C 184.036652 43.600637 184.738878 43.88 185.448 43.88 
C 186.157122 43.88 186.859348 43.600637 187.514491 43.057899 
C 188.169633 42.515161 188.764952 41.719602 189.266377 40.716753 
C 189.767801 39.713904 190.16558 38.523267 190.436949 37.212981 
C 190.708319 35.902695 190.848 34.498243 190.848 33.08 
" clip-path="url(#pe1068230d8)" style="fill: none; stroke: #000000; stroke-width: 2; stroke-linejoin: miter"/>
   </g>
   <g id="patch_4">
    <path d="M 322.248 43.88 
C 323.67962 43.88 325.054069 42.741369 326.066377 40.716753 
C 327.078685 38.692137 327.648 35.94324 327.648 33.08 
C 327.648 30.21676 327.078685 27.467863 326.066377 25.443247 
C 325.054069 23.418631 323.67962 22.28 322.248 22.28 
" clip-path="url(#pe1068230d8)" style="fill: none; stroke: #000000; stroke-width: 2; stroke-linejoin: miter"/>
   </g>
   <g id="line2d_1">
    <path d="M 55.848 141.08 
L 55.848 155.48 
L 46.848 155.48 
L 64.848 155.48 
M 49.548 159.8 
L 62.148 159.8 
M 54.048 164.12 
L 57.648 164.12 
" clip-path="url(#pe1068230d8)" style="fill: none; stroke: #000000; stroke-width: 2; stroke-linecap: round"/>
   </g>
   <g id="line2d_2">
    <path d="M 55.848 141.08 
L 55.848 105.08 
L 55.848 105.08 
M 55.848 69.08 
L 55.848 69.08 
L 55.848 33.08 
" clip-path="url(#pe1068230d8)" style="fill: none; stroke: #000000; stroke-width: 2; stroke-linecap: round"/>
   </g>
   <g id="line2d_3">
    <path d="M 46.848 87.08 
L 46.848 79.88 
L 55.848 79.88 
L 55.848 94.28 
L 64.848 94.28 
L 64.848 87.08 
" clip-path="url(#pe1068230d8)" style="fill: none; stroke: #000000; stroke-width: 2; stroke-linecap: round"/>
   </g>
   <g id="line2d_4">
    <path d="M 55.848 33.08 
L 91.848 33.08 
L 91.848 24.08 
L 127.848 24.08 
L 127.848 42.08 
L 91.848 42.08 
L 91.848 33.08 
M 127.848 33.08 
L 163.848 33.08 
" clip-path="url(#pe1068230d8)" style="fill: none; stroke: #000000; stroke-width: 2; stroke-linecap: round"/>
   </g>
   <g id="line2d_5">
    <path d="M 163.848 33.08 
L 185.448 33.08 
M 327.648 33.08 
L 343.848 33.08 
" clip-path="url(#pe1068230d8)" style="fill: none; stroke: #000000; stroke-width: 2; stroke-linecap: round"/>
   </g>
   <g id="line2d_6">
    <path d="M 185.448 22.28 
L 322.248 22.28 
" clip-path="url(#pe1068230d8)" style="fill: none; stroke: #000000; stroke-width: 2; stroke-linecap: round"/>
   </g>
   <g id="line2d_7">
    <path d="M 185.448 43.88 
L 322.248 43.88 
" clip-path="url(#pe1068230d8)" style="fill: none; stroke: #000000; stroke-width: 2; stroke-linecap: round"/>
   </g>
   <g id="line2d_8">
    <path d="M 343.848 33.08 
L 343.848 69.08 
L 352.848 69.08 
L 352.848 105.08 
L 334.848 105.08 
L 334.848 69.08 
L 343.848 69.08 
M 343.848 105.08 
L 343.848 141.08 
" clip-path="url(#pe1068230d8)" style="fill: none; stroke: #000000; stroke-width: 2; stroke-linecap: round"/>
   </g>
   <g id="line2d_9">
    <path d="M 343.848 141.08 
L 343.848 155.48 
L 334.848 155.48 
L 352.848 155.48 
M 337.548 159.8 
L 350.148 159.8 
M 342.048 164.12 
L 345.648 164.12 
" clip-path="url(#pe1068230d8)" style="fill: none; stroke: #000000; stroke-width: 2; stroke-linecap: round"/>
   </g>
   <g id="text_1">
    <!-- 3.3V -->
    <g transform="translate(2.40675 90.943125) scale(0.14 -0.14)">
     <defs>
      <path id="DejaVuSans-33" d="M 2597 2516 
Q 3050 2419 3304 2112 
Q 3559 1806 3559 1356 
Q 3559 666 3084 287 
Q 2609 -91 1734 -91 
Q 1441 -91 1130 -33 
Q 819 25 488 141 
L 488 750 
Q 750 597 1062 519 
Q 1375 441 1716 441 
Q 2309 441 2620 675 
Q 2931 909 2931 1356 
Q 2931 1769 2642 2001 
Q 2353 2234 1838 2234 
L 1294 2234 
L 1294 2753 
L 1863 2753 
Q 2328 2753 2575 2939 
Q 2822 3125 2822 3475 
Q 2822 3834 2567 4026 
Q 2313 4219 1838 4219 
Q 1578 4219 1281 4162 
Q 984 4106 628 3988 
L 628 4550 
Q 988 4650 1302 4700 
Q 1616 4750 1894 4750 
Q 2613 4750 3031 4423 
Q 3450 4097 3450 3541 
Q 3450 3153 3228 2886 
Q 3006 2619 2597 2516 
z
" transform="scale(0.015625)"/>
      <path id="DejaVuSans-2e" d="M 684 794 
L 1344 794 
L 1344 0 
L 684 0 
L 684 794 
z
" transform="scale(0.015625)"/>
      <path id="DejaVuSans-56" d="M 1831 0 
L 50 4666 
L 709 4666 
L 2188 738 
L 3669 4666 
L 4325 4666 
L 2547 0 
L 1831 0 
z
" transform="scale(0.015625)"/>
     </defs>
     <use xlink:href="#DejaVuSans-33"/>
     <use xlink:href="#DejaVuSans-2e" transform="translate(63.623047 0)"/>
     <use xlink:href="#DejaVuSans-33" transform="translate(95.410156 0)"/>
     <use xlink:href="#DejaVuSans-56" transform="translate(159.033203 0)"/>
    </g>
   </g>
   <g id="text_2">
    <!-- $Z_s= 10 \Omega$ -->
    <g transform="translate(79.398 17.568437) scale(0.14 -0.14)">
     <defs>
      <path id="DejaVuSans-Oblique-5a" d="M 838 4666 
L 4500 4666 
L 4409 4184 
L 794 531 
L 3769 531 
L 3669 0 
L -141 0 
L -50 481 
L 3566 4134 
L 738 4134 
L 838 4666 
z
" transform="scale(0.015625)"/>
      <path id="DejaVuSans-Oblique-73" d="M 3200 3397 
L 3091 2853 
Q 2863 2978 2609 3040 
Q 2356 3103 2088 3103 
Q 1634 3103 1373 2948 
Q 1113 2794 1113 2528 
Q 1113 2219 1719 2053 
Q 1766 2041 1788 2034 
L 1972 1978 
Q 2547 1819 2739 1644 
Q 2931 1469 2931 1166 
Q 2931 609 2489 259 
Q 2047 -91 1331 -91 
Q 1053 -91 747 -37 
Q 441 16 72 128 
L 184 722 
Q 500 559 806 475 
Q 1113 391 1394 391 
Q 1816 391 2080 572 
Q 2344 753 2344 1031 
Q 2344 1331 1650 1516 
L 1591 1531 
L 1394 1581 
Q 956 1697 753 1886 
Q 550 2075 550 2369 
Q 550 2928 970 3256 
Q 1391 3584 2113 3584 
Q 2397 3584 2667 3537 
Q 2938 3491 3200 3397 
z
" transform="scale(0.015625)"/>
      <path id="DejaVuSans-3d" d="M 678 2906 
L 4684 2906 
L 4684 2381 
L 678 2381 
L 678 2906 
z
M 678 1631 
L 4684 1631 
L 4684 1100 
L 678 1100 
L 678 1631 
z
" transform="scale(0.015625)"/>
      <path id="DejaVuSans-31" d="M 794 531 
L 1825 531 
L 1825 4091 
L 703 3866 
L 703 4441 
L 1819 4666 
L 2450 4666 
L 2450 531 
L 3481 531 
L 3481 0 
L 794 0 
L 794 531 
z
" transform="scale(0.015625)"/>
      <path id="DejaVuSans-30" d="M 2034 4250 
Q 1547 4250 1301 3770 
Q 1056 3291 1056 2328 
Q 1056 1369 1301 889 
Q 1547 409 2034 409 
Q 2525 409 2770 889 
Q 3016 1369 3016 2328 
Q 3016 3291 2770 3770 
Q 2525 4250 2034 4250 
z
M 2034 4750 
Q 2819 4750 3233 4129 
Q 3647 3509 3647 2328 
Q 3647 1150 3233 529 
Q 2819 -91 2034 -91 
Q 1250 -91 836 529 
Q 422 1150 422 2328 
Q 422 3509 836 4129 
Q 1250 4750 2034 4750 
z
" transform="scale(0.015625)"/>
      <path id="DejaVuSans-3a9" d="M 4647 556 
L 4647 0 
L 2772 0 
L 2772 556 
Q 3325 859 3634 1378 
Q 3944 1897 3944 2528 
Q 3944 3278 3531 3731 
Q 3119 4184 2444 4184 
Q 1769 4184 1355 3729 
Q 941 3275 941 2528 
Q 941 1897 1250 1378 
Q 1563 859 2119 556 
L 2119 0 
L 244 0 
L 244 556 
L 1241 556 
Q 747 991 519 1456 
Q 294 1922 294 2497 
Q 294 3491 894 4106 
Q 1491 4722 2444 4722 
Q 3391 4722 3994 4106 
Q 4594 3494 4594 2528 
Q 4594 1922 4372 1459 
Q 4150 997 3647 556 
L 4647 556 
z
" transform="scale(0.015625)"/>
     </defs>
     <use xlink:href="#DejaVuSans-Oblique-5a" transform="translate(0 0.78125)"/>
     <use xlink:href="#DejaVuSans-Oblique-73" transform="translate(68.505859 -15.625) scale(0.7)"/>
     <use xlink:href="#DejaVuSans-3d" transform="translate(127.192383 0.78125)"/>
     <use xlink:href="#DejaVuSans-31" transform="translate(230.463867 0.78125)"/>
     <use xlink:href="#DejaVuSans-30" transform="translate(294.086914 0.78125)"/>
     <use xlink:href="#DejaVuSans-3a9" transform="translate(357.709961 0.78125)"/>
    </g>
   </g>
   <g id="text_3">
    <!-- $Z_o=50 \Omega$ -->
    <g transform="translate(222.978 15.768437) scale(0.14 -0.14)">
     <defs>
      <path id="DejaVuSans-Oblique-6f" d="M 1625 -91 
Q 1009 -91 651 289 
Q 294 669 294 1325 
Q 294 1706 417 2101 
Q 541 2497 738 2766 
Q 1047 3184 1428 3384 
Q 1809 3584 2291 3584 
Q 2888 3584 3255 3212 
Q 3622 2841 3622 2241 
Q 3622 1825 3500 1412 
Q 3378 1000 3181 728 
Q 2875 309 2494 109 
Q 2113 -91 1625 -91 
z
M 891 1344 
Q 891 869 1089 633 
Q 1288 397 1691 397 
Q 2269 397 2648 901 
Q 3028 1406 3028 2181 
Q 3028 2634 2825 2865 
Q 2622 3097 2228 3097 
Q 1903 3097 1650 2945 
Q 1397 2794 1197 2484 
Q 1050 2253 970 1956 
Q 891 1659 891 1344 
z
" transform="scale(0.015625)"/>
      <path id="DejaVuSans-35" d="M 691 4666 
L 3169 4666 
L 3169 4134 
L 1269 4134 
L 1269 2991 
Q 1406 3038 1543 3061 
Q 1681 3084 1819 3084 
Q 2600 3084 3056 2656 
Q 3513 2228 3513 1497 
Q 3513 744 3044 326 
Q 2575 -91 1722 -91 
Q 1428 -91 1123 -41 
Q 819 9 494 109 
L 494 744 
Q 775 591 1075 516 
Q 1375 441 1709 441 
Q 2250 441 2565 725 
Q 2881 1009 2881 1497 
Q 2881 1984 2565 2268 
Q 2250 2553 1709 2553 
Q 1456 2553 1204 2497 
Q 953 2441 691 2322 
L 691 4666 
z
" transform="scale(0.015625)"/>
     </defs>
     <use xlink:href="#DejaVuSans-Oblique-5a" transform="translate(0 0.78125)"/>
     <use xlink:href="#DejaVuSans-Oblique-6f" transform="translate(68.505859 -15.625) scale(0.7)"/>
     <use xlink:href="#DejaVuSans-3d" transform="translate(133.549805 0.78125)"/>
     <use xlink:href="#DejaVuSans-35" transform="translate(236.821289 0.78125)"/>
     <use xlink:href="#DejaVuSans-30" transform="translate(300.444336 0.78125)"/>
     <use xlink:href="#DejaVuSans-3a9" transform="translate(364.067383 0.78125)"/>
    </g>
   </g>
   <g id="text_4">
    <!-- $Z_L= 25 \Omega$ -->
    <g transform="translate(270.068 90.943125) scale(0.14 -0.14)">
     <defs>
      <path id="DejaVuSans-Oblique-4c" d="M 1075 4666 
L 1709 4666 
L 909 525 
L 3181 525 
L 3078 0 
L 172 0 
L 1075 4666 
z
" transform="scale(0.015625)"/>
      <path id="DejaVuSans-32" d="M 1228 531 
L 3431 531 
L 3431 0 
L 469 0 
L 469 531 
Q 828 903 1448 1529 
Q 2069 2156 2228 2338 
Q 2531 2678 2651 2914 
Q 2772 3150 2772 3378 
Q 2772 3750 2511 3984 
Q 2250 4219 1831 4219 
Q 1534 4219 1204 4116 
Q 875 4013 500 3803 
L 500 4441 
Q 881 4594 1212 4672 
Q 1544 4750 1819 4750 
Q 2544 4750 2975 4387 
Q 3406 4025 3406 3419 
Q 3406 3131 3298 2873 
Q 3191 2616 2906 2266 
Q 2828 2175 2409 1742 
Q 1991 1309 1228 531 
z
" transform="scale(0.015625)"/>
     </defs>
     <use xlink:href="#DejaVuSans-Oblique-5a" transform="translate(0 0.78125)"/>
     <use xlink:href="#DejaVuSans-Oblique-4c" transform="translate(68.505859 -15.625) scale(0.7)"/>
     <use xlink:href="#DejaVuSans-3d" transform="translate(129.72168 0.78125)"/>
     <use xlink:href="#DejaVuSans-32" transform="translate(232.993164 0.78125)"/>
     <use xlink:href="#DejaVuSans-35" transform="translate(296.616211 0.78125)"/>
     <use xlink:href="#DejaVuSans-3a9" transform="translate(360.239258 0.78125)"/>
    </g>
   </g>
   <g id="patch_5">
    <path d="M 55.848 35.78 
C 56.564048 35.78 57.250866 35.495511 57.757188 34.989188 
C 58.263511 34.482866 58.548 33.796048 58.548 33.08 
C 58.548 32.363952 58.263511 31.677134 57.757188 31.170812 
C 57.250866 30.664489 56.564048 30.38 55.848 30.38 
C 55.131952 30.38 54.445134 30.664489 53.938812 31.170812 
C 53.432489 31.677134 53.148 32.363952 53.148 33.08 
C 53.148 33.796048 53.432489 34.482866 53.938812 34.989188 
C 54.445134 35.495511 55.131952 35.78 55.848 35.78 
z
" clip-path="url(#pe1068230d8)" style="stroke: #000000; stroke-width: 2; stroke-linejoin: miter"/>
   </g>
   <g id="patch_6">
    <path d="M 163.848 35.78 
C 164.564048 35.78 165.250866 35.495511 165.757188 34.989188 
C 166.263511 34.482866 166.548 33.796048 166.548 33.08 
C 166.548 32.363952 166.263511 31.677134 165.757188 31.170812 
C 165.250866 30.664489 164.564048 30.38 163.848 30.38 
C 163.131952 30.38 162.445134 30.664489 161.938812 31.170812 
C 161.432489 31.677134 161.148 32.363952 161.148 33.08 
C 161.148 33.796048 161.432489 34.482866 161.938812 34.989188 
C 162.445134 35.495511 163.131952 35.78 163.848 35.78 
z
" clip-path="url(#pe1068230d8)" style="stroke: #000000; stroke-width: 2; stroke-linejoin: miter"/>
   </g>
   <g id="patch_7">
    <path d="M 343.848 35.78 
C 344.564048 35.78 345.250866 35.495511 345.757188 34.989188 
C 346.263511 34.482866 346.548 33.796048 346.548 33.08 
C 346.548 32.363952 346.263511 31.677134 345.757188 31.170812 
C 345.250866 30.664489 344.564048 30.38 343.848 30.38 
C 343.131952 30.38 342.445134 30.664489 341.938812 31.170812 
C 341.432489 31.677134 341.148 32.363952 341.148 33.08 
C 341.148 33.796048 341.432489 34.482866 341.938812 34.989188 
C 342.445134 35.495511 343.131952 35.78 343.848 35.78 
z
" clip-path="url(#pe1068230d8)" style="stroke: #000000; stroke-width: 2; stroke-linejoin: miter"/>
   </g>
  </g>
 </g>
 <defs>
  <clipPath id="pe1068230d8">
   <rect x="0" y="0" width="357.528" height="168.8"/>
  </clipPath>
 </defs>
</svg>