<?xml version="1.0" encoding="utf-8" standalone="no"?>
<!DOCTYPE svg PUBLIC "-//W3C//DTD SVG 1.1//EN"
  "http://www.w3.org/Graphics/SVG/1.1/DTD/svg11.dtd">
<svg xmlns:xlink="http://www.w3.org/1999/xlink" width="347.5455pt" height="254.04pt" viewBox="0 0 347.5455 254.04" xmlns="http://www.w3.org/2000/svg" version="1.1">
 <metadata>
  <rdf:RDF xmlns:dc="http://purl.org/dc/elements/1.1/" xmlns:cc="http://creativecommons.org/ns#" xmlns:rdf="http://www.w3.org/1999/02/22-rdf-syntax-ns#">
   <cc:Work>
    <dc:type rdf:resource="http://purl.org/dc/dcmitype/StillImage"/>
    <dc:date>2023-09-26T19:09:38.381801</dc:date>
    <dc:format>image/svg+xml</dc:format>
    <dc:creator>
     <cc:Agent>
      <dc:title>Matplotlib v3.6.3, https://matplotlib.org/</dc:title>
     </cc:Agent>
    </dc:creator>
   </cc:Work>
  </rdf:RDF>
 </metadata>
 <defs>
  <style type="text/css">*{stroke-linejoin: round; stroke-linecap: butt}</style>
 </defs>
 <g id="figure_1">
  <g id="patch_1">
   <path d="M 0 254.04 
L 347.5455 254.04 
L 347.5455 0 
L 0 0 
z
" style="fill: #ffffff"/>
  </g>
  <g id="axes_1">
   <g id="patch_2">
    <path d="M 75.483 75 
L 84.483 62.4 
L 93.483 75 
L 75.483 75 
z
" clip-path="url(#pb3f1ea9141)" style="fill: none; stroke: #ff0000; stroke-width: 2; stroke-linecap: round"/>
   </g>
   <g id="patch_3">
    <path d="M 75.483 152.28 
L 84.483 139.68 
L 93.483 152.28 
L 75.483 152.28 
z
" clip-path="url(#pb3f1ea9141)" style="fill: none; stroke: #ff0000; stroke-width: 2; stroke-linecap: round"/>
   </g>
   <g id="line2d_1">
    <path d="M 39.423 54.3 
L 52.623 54.3 
" clip-path="url(#pb3f1ea9141)" style="fill: none; stroke: #000000; stroke-width: 2; stroke-linecap: round"/>
   </g>
   <g id="line2d_2">
    <path d="M 52.623 41.1 
L 52.623 67.5 
" clip-path="url(#pb3f1ea9141)" style="fill: none; stroke: #000000; stroke-width: 2; stroke-linecap: round"/>
   </g>
   <g id="line2d_3">
    <path d="M 52.623 47.7 
L 66.483 35.82 
L 66.483 29.22 
" clip-path="url(#pb3f1ea9141)" style="fill: none; stroke: #000000; stroke-width: 2; stroke-linecap: round"/>
   </g>
   <g id="line2d_4">
    <path d="M 52.623 60.9 
L 66.483 72.78 
L 66.483 79.38 
" clip-path="url(#pb3f1ea9141)" style="fill: none; stroke: #000000; stroke-width: 2; stroke-linecap: round"/>
   </g>
   <g id="line2d_5">
    <path d="M 52.623 60.9 
L 59.649691 66.922878 
" clip-path="url(#pb3f1ea9141)" style="fill: none; stroke: #000000; stroke-width: 2; stroke-linecap: round"/>
   </g>
   <g id="patch_4">
    <path d="M 61.99254 64.189554 
L 66.483 72.78 
L 57.306842 69.656201 
z
" clip-path="url(#pb3f1ea9141)"/>
   </g>
   <g id="line2d_6">
    <path d="M 39.423 54.3 
L 39.423 81.3 
L 39.423 108.3 
" clip-path="url(#pb3f1ea9141)" style="fill: none; stroke: #000000; stroke-width: 2; stroke-linecap: round"/>
   </g>
   <g id="line2d_7">
    <path d="M 39.423 108.3 
L 39.423 133.5 
L 39.423 158.7 
" clip-path="url(#pb3f1ea9141)" style="fill: none; stroke: #000000; stroke-width: 2; stroke-linecap: round"/>
   </g>
   <g id="line2d_8">
    <path d="M 39.423 158.7 
L 52.623 158.7 
" clip-path="url(#pb3f1ea9141)" style="fill: none; stroke: #000000; stroke-width: 2; stroke-linecap: round"/>
   </g>
   <g id="line2d_9">
    <path d="M 52.623 145.5 
L 52.623 171.9 
" clip-path="url(#pb3f1ea9141)" style="fill: none; stroke: #000000; stroke-width: 2; stroke-linecap: round"/>
   </g>
   <g id="line2d_10">
    <path d="M 52.623 152.1 
L 66.483 140.22 
L 66.483 133.62 
" clip-path="url(#pb3f1ea9141)" style="fill: none; stroke: #000000; stroke-width: 2; stroke-linecap: round"/>
   </g>
   <g id="line2d_11">
    <path d="M 52.623 165.3 
L 66.483 177.18 
L 66.483 183.78 
" clip-path="url(#pb3f1ea9141)" style="fill: none; stroke: #000000; stroke-width: 2; stroke-linecap: round"/>
   </g>
   <g id="line2d_12">
    <path d="M 66.483 140.22 
L 59.456309 146.242878 
" clip-path="url(#pb3f1ea9141)" style="fill: none; stroke: #000000; stroke-width: 2; stroke-linecap: round"/>
   </g>
   <g id="patch_5">
    <path d="M 61.799158 148.976201 
L 52.623 152.1 
L 57.11346 143.509554 
z
" clip-path="url(#pb3f1ea9141)"/>
   </g>
   <g id="line2d_13">
    <path d="M 66.483 29.22 
L 66.483 14.82 
" clip-path="url(#pb3f1ea9141)" style="fill: none; stroke: #000000; stroke-width: 2; stroke-linecap: round"/>
   </g>
   <g id="line2d_14">
    <path d="M 66.483 14.82 
L 59.733 14.82 
" clip-path="url(#pb3f1ea9141)" style="fill: none; stroke: #000000; stroke-width: 2; stroke-linecap: round"/>
   </g>
   <g id="line2d_15">
    <path d="M 66.483 14.82 
L 73.233 14.82 
" clip-path="url(#pb3f1ea9141)" style="fill: none; stroke: #000000; stroke-width: 2; stroke-linecap: round"/>
   </g>
   <g id="line2d_16">
    <path d="M 39.423 108.3 
L 30.423 108.3 
L 21.423 108.3 
" clip-path="url(#pb3f1ea9141)" style="fill: none; stroke: #000000; stroke-width: 2; stroke-linecap: round"/>
   </g>
   <g id="line2d_17">
    <path d="M 66.483 79.38 
L 66.483 93.78 
L 66.483 108.18 
" clip-path="url(#pb3f1ea9141)" style="fill: none; stroke: #000000; stroke-width: 2; stroke-linecap: round"/>
   </g>
   <g id="line2d_18">
    <path d="M 66.483 108.18 
L 66.483 120.9 
L 66.483 133.62 
" clip-path="url(#pb3f1ea9141)" style="fill: none; stroke: #000000; stroke-width: 2; stroke-linecap: round"/>
   </g>
   <g id="line2d_19">
    <path d="M 66.483 108.18 
L 75.483 108.18 
L 84.483 108.18 
" clip-path="url(#pb3f1ea9141)" style="fill: none; stroke: #000000; stroke-width: 2; stroke-linecap: round"/>
   </g>
   <g id="line2d_20">
    <path d="M 84.483 108.18 
L 120.483 108.18 
L 120.61707 105.215813 
L 121.02476 102.224893 
L 121.697001 99.458083 
L 122.602538 97.147432 
L 123.127567 96.225692 
L 123.690547 95.486729 
L 124.282767 94.946119 
L 124.894902 94.615256 
L 125.517207 94.501116 
L 126.13972 94.606102 
L 126.752478 94.928004 
L 127.345723 95.460035 
L 127.910106 96.190982 
L 128.436888 97.105436 
L 129.346825 99.404309 
L 130.024342 102.16385 
L 130.43774 105.15262 
L 130.577472 108.119957 
L 130.456942 110.816994 
L 130.111382 113.017535 
L 129.594898 114.537024 
L 129.293537 114.998989 
L 128.975928 115.248023 
L 128.651923 115.278878 
L 128.331509 115.090903 
L 128.024597 114.68806 
L 127.489292 113.276085 
L 127.116029 111.161374 
L 126.961236 108.521284 
L 127.063019 105.577236 
L 127.437963 102.576142 
L 128.079748 99.7697 
L 128.959671 97.393281 
L 129.474402 96.430506 
L 130.029057 95.646192 
L 130.615102 95.056869 
L 131.223342 94.674959 
L 131.844113 94.508513 
L 132.467487 94.561038 
L 133.083482 94.831428 
L 133.682271 95.313983 
L 134.25439 95.998532 
L 134.790935 96.870645 
L 135.725621 99.100471 
L 136.43306 101.816447 
L 136.879046 104.790789 
L 137.051297 107.774044 
L 136.96049 110.51601 
L 136.639365 112.786723 
L 136.139977 114.395742 
L 135.843936 114.907431 
L 135.529332 115.20812 
L 135.205952 115.291471 
L 134.883768 115.155725 
L 134.572731 114.803746 
L 134.282551 114.242952 
L 133.801228 112.546352 
L 133.505289 110.208218 
L 133.444678 107.424645 
L 133.649602 104.429087 
L 134.127998 101.472776 
L 134.864866 98.803655 
L 135.823531 96.645578 
L 136.369371 95.816862 
L 136.948713 95.17954 
L 137.552502 94.747045 
L 138.171169 94.528495 
L 138.794831 94.528495 
L 139.413498 94.747045 
L 140.017287 95.17954 
L 140.596629 95.816862 
L 141.142469 96.645578 
L 141.64646 97.64822 
L 142.500065 100.087527 
L 143.110979 102.930202 
L 143.453087 105.937835 
L 143.522821 108.858178 
L 143.339457 111.446309 
L 142.943496 113.485163 
L 142.393269 114.803746 
L 142.082232 115.155725 
L 141.760048 115.291471 
L 141.436668 115.20812 
L 141.122064 114.907431 
L 140.826023 114.395742 
L 140.326635 112.786723 
L 140.00551 110.51601 
L 139.914703 107.774044 
L 140.086954 104.790789 
L 140.53294 101.816447 
L 141.240379 99.100471 
L 142.175065 96.870645 
L 142.71161 95.998532 
L 143.283729 95.313983 
L 143.882518 94.831428 
L 144.498513 94.561038 
L 145.121887 94.508513 
L 145.742658 94.674959 
L 146.350898 95.056869 
L 146.936943 95.646192 
L 147.491598 96.430506 
L 148.006329 97.393281 
L 148.886252 99.7697 
L 149.528037 102.576142 
L 149.902981 105.577236 
L 150.004764 108.521284 
L 149.849971 111.161374 
L 149.476708 113.276085 
L 148.941403 114.68806 
L 148.634491 115.090903 
L 148.314077 115.278878 
L 147.990072 115.248023 
L 147.672463 114.998989 
L 147.371102 114.537024 
L 146.854618 113.017535 
L 146.509058 110.816994 
L 146.388528 108.119957 
L 146.52826 105.15262 
L 146.941658 102.16385 
L 147.619175 99.404309 
L 148.529112 97.105436 
L 149.055894 96.190982 
L 149.620277 95.460035 
L 150.213522 94.928004 
L 150.82628 94.606102 
L 151.448793 94.501116 
L 152.071098 94.615256 
L 152.683233 94.946119 
L 153.275453 95.486729 
L 153.838433 96.225692 
L 154.363462 97.147432 
L 155.268999 99.458083 
L 155.94124 102.224893 
L 156.34893 105.215813 
L 156.483 108.18 
L 192.483 108.18 
L 192.483 108.18 
" clip-path="url(#pb3f1ea9141)" style="fill: none; stroke: #000000; stroke-width: 2; stroke-linecap: round"/>
   </g>
   <g id="line2d_21">
    <path d="M 192.483 108.18 
L 243.243 108.18 
M 243.243 99.18 
L 243.243 117.18 
M 249.723 99.18 
L 249.723 117.18 
M 249.723 108.18 
L 300.483 108.18 
" clip-path="url(#pb3f1ea9141)" style="fill: none; stroke: #000000; stroke-width: 2; stroke-linecap: round"/>
   </g>
   <g id="line2d_22">
    <path d="M 300.483 108.18 
L 300.483 144.18 
L 309.483 147.18 
L 291.483 153.18 
L 309.483 159.18 
L 291.483 165.18 
L 309.483 171.18 
L 291.483 177.18 
L 300.483 180.18 
L 300.483 216.18 
" clip-path="url(#pb3f1ea9141)" style="fill: none; stroke: #000000; stroke-width: 2; stroke-linecap: round"/>
   </g>
   <g id="line2d_23">
    <path d="M 300.483 108.18 
L 309.483 108.18 
L 318.483 108.18 
" clip-path="url(#pb3f1ea9141)" style="fill: none; stroke: #000000; stroke-width: 2; stroke-linecap: round"/>
   </g>
   <g id="line2d_24">
    <path d="M 300.483 216.18 
L 309.483 216.18 
L 318.483 216.18 
" clip-path="url(#pb3f1ea9141)" style="fill: none; stroke: #000000; stroke-width: 2; stroke-linecap: round"/>
   </g>
   <g id="line2d_25">
    <path d="M 300.483 216.18 
L 183.483 216.18 
L 66.483 216.18 
" clip-path="url(#pb3f1ea9141)" style="fill: none; stroke: #000000; stroke-width: 2; stroke-linecap: round"/>
   </g>
   <g id="line2d_26">
    <path d="M 66.483 216.18 
L 66.483 230.58 
L 57.483 230.58 
L 75.483 230.58 
M 60.183 234.9 
L 72.783 234.9 
M 64.683 239.22 
L 68.283 239.22 
" clip-path="url(#pb3f1ea9141)" style="fill: none; stroke: #000000; stroke-width: 2; stroke-linecap: round"/>
   </g>
   <g id="line2d_27">
    <path d="M 66.483 216.18 
L 66.483 199.98 
L 66.483 183.78 
" clip-path="url(#pb3f1ea9141)" style="fill: none; stroke: #000000; stroke-width: 2; stroke-linecap: round"/>
   </g>
   <g id="line2d_28">
    <path d="M 84.483 108.18 
L 84.483 75 
M 75.483 62.4 
L 93.483 62.4 
M 84.483 62.4 
L 84.483 29.22 
" clip-path="url(#pb3f1ea9141)" style="fill: none; stroke: #ff0000; stroke-width: 2; stroke-linecap: round"/>
   </g>
   <g id="line2d_29">
    <path d="M 84.483 29.22 
L 75.483 29.22 
L 66.483 29.22 
" clip-path="url(#pb3f1ea9141)" style="fill: none; stroke: #ff0000; stroke-width: 2; stroke-linecap: round"/>
   </g>
   <g id="line2d_30">
    <path d="M 66.483 183.78 
L 75.483 183.78 
L 84.483 183.78 
" clip-path="url(#pb3f1ea9141)" style="fill: none; stroke: #ff0000; stroke-width: 2; stroke-linecap: round"/>
   </g>
   <g id="line2d_31">
    <path d="M 84.483 183.78 
L 84.483 152.28 
M 75.483 139.68 
L 93.483 139.68 
M 84.483 139.68 
L 84.483 108.18 
" clip-path="url(#pb3f1ea9141)" style="fill: none; stroke: #ff0000; stroke-width: 2; stroke-linecap: round"/>
   </g>
   <g id="text_1">
    <!-- $L_1$ -->
    <g transform="translate(132.0455 88.301506) scale(0.125 -0.125)">
     <defs>
      <path id="DejaVuSans-Oblique-4c" d="M 1075 4666 
L 1709 4666 
L 909 525 
L 3181 525 
L 3078 0 
L 172 0 
L 1075 4666 
z
" transform="scale(0.015625)"/>
      <path id="DejaVuSans-31" d="M 794 531 
L 1825 531 
L 1825 4091 
L 703 3866 
L 703 4441 
L 1819 4666 
L 2450 4666 
L 2450 531 
L 3481 531 
L 3481 0 
L 794 0 
L 794 531 
z
" transform="scale(0.015625)"/>
     </defs>
     <use xlink:href="#DejaVuSans-Oblique-4c" transform="translate(0 0.09375)"/>
     <use xlink:href="#DejaVuSans-31" transform="translate(55.712891 -16.3125) scale(0.7)"/>
    </g>
   </g>
   <g id="text_2">
    <!-- $C_1$ -->
    <g transform="translate(239.108 92.980391) scale(0.125 -0.125)">
     <defs>
      <path id="DejaVuSans-Oblique-43" d="M 4447 4306 
L 4319 3641 
Q 4019 3944 3683 4091 
Q 3347 4238 2956 4238 
Q 2422 4238 2017 3981 
Q 1613 3725 1319 3200 
Q 1131 2863 1032 2486 
Q 934 2109 934 1728 
Q 934 1091 1264 756 
Q 1594 422 2222 422 
Q 2656 422 3056 561 
Q 3456 700 3834 978 
L 3688 231 
Q 3316 72 2936 -9 
Q 2556 -91 2175 -91 
Q 1278 -91 773 396 
Q 269 884 269 1753 
Q 269 2309 461 2846 
Q 653 3384 1013 3828 
Q 1394 4300 1883 4525 
Q 2372 4750 3022 4750 
Q 3422 4750 3780 4639 
Q 4138 4528 4447 4306 
z
" transform="scale(0.015625)"/>
     </defs>
     <use xlink:href="#DejaVuSans-Oblique-43" transform="translate(0 0.78125)"/>
     <use xlink:href="#DejaVuSans-31" transform="translate(69.824219 -15.625) scale(0.7)"/>
    </g>
   </g>
   <g id="text_3">
    <!-- $R_L$ -->
    <g transform="translate(273.883 165.629219) scale(0.125 -0.125)">
     <defs>
      <path id="DejaVuSans-Oblique-52" d="M 1613 4147 
L 1294 2491 
L 2106 2491 
Q 2584 2491 2879 2755 
Q 3175 3019 3175 3444 
Q 3175 3784 2976 3965 
Q 2778 4147 2406 4147 
L 1613 4147 
z
M 2772 2241 
Q 2972 2194 3105 2009 
Q 3238 1825 3413 1275 
L 3809 0 
L 3144 0 
L 2778 1197 
Q 2638 1659 2453 1815 
Q 2269 1972 1888 1972 
L 1191 1972 
L 806 0 
L 172 0 
L 1081 4666 
L 2503 4666 
Q 3150 4666 3495 4373 
Q 3841 4081 3841 3531 
Q 3841 3044 3547 2687 
Q 3253 2331 2772 2241 
z
" transform="scale(0.015625)"/>
     </defs>
     <use xlink:href="#DejaVuSans-Oblique-52" transform="translate(0 0.09375)"/>
     <use xlink:href="#DejaVuSans-Oblique-4c" transform="translate(69.482422 -16.3125) scale(0.7)"/>
    </g>
   </g>
   <g id="text_4">
    <!-- - -->
    <g transform="translate(330.628117 138.629219) scale(0.125 -0.125)">
     <defs>
      <path id="DejaVuSans-2d" d="M 313 2009 
L 1997 2009 
L 1997 1497 
L 313 1497 
L 313 2009 
z
" transform="scale(0.015625)"/>
     </defs>
     <use xlink:href="#DejaVuSans-2d"/>
    </g>
   </g>
   <g id="text_5">
    <!-- $v_{out}$ -->
    <g transform="translate(321.8205 165.629219) scale(0.125 -0.125)">
     <defs>
      <path id="DejaVuSans-Oblique-76" d="M 459 3500 
L 1069 3500 
L 1581 525 
L 3256 3500 
L 3866 3500 
L 1875 0 
L 1100 0 
L 459 3500 
z
" transform="scale(0.015625)"/>
      <path id="DejaVuSans-Oblique-6f" d="M 1625 -91 
Q 1009 -91 651 289 
Q 294 669 294 1325 
Q 294 1706 417 2101 
Q 541 2497 738 2766 
Q 1047 3184 1428 3384 
Q 1809 3584 2291 3584 
Q 2888 3584 3255 3212 
Q 3622 2841 3622 2241 
Q 3622 1825 3500 1412 
Q 3378 1000 3181 728 
Q 2875 309 2494 109 
Q 2113 -91 1625 -91 
z
M 891 1344 
Q 891 869 1089 633 
Q 1288 397 1691 397 
Q 2269 397 2648 901 
Q 3028 1406 3028 2181 
Q 3028 2634 2825 2865 
Q 2622 3097 2228 3097 
Q 1903 3097 1650 2945 
Q 1397 2794 1197 2484 
Q 1050 2253 970 1956 
Q 891 1659 891 1344 
z
" transform="scale(0.015625)"/>
      <path id="DejaVuSans-Oblique-75" d="M 428 1388 
L 838 3500 
L 1416 3500 
L 1006 1409 
Q 975 1256 961 1147 
Q 947 1038 947 966 
Q 947 700 1109 554 
Q 1272 409 1569 409 
Q 2031 409 2368 721 
Q 2706 1034 2809 1563 
L 3194 3500 
L 3769 3500 
L 3091 0 
L 2516 0 
L 2631 550 
Q 2388 244 2052 76 
Q 1716 -91 1338 -91 
Q 878 -91 622 161 
Q 366 413 366 863 
Q 366 956 381 1097 
Q 397 1238 428 1388 
z
" transform="scale(0.015625)"/>
      <path id="DejaVuSans-Oblique-74" d="M 2706 3500 
L 2619 3053 
L 1472 3053 
L 1100 1153 
Q 1081 1047 1072 975 
Q 1063 903 1063 863 
Q 1063 663 1183 572 
Q 1303 481 1569 481 
L 2150 481 
L 2053 0 
L 1503 0 
Q 991 0 739 200 
Q 488 400 488 806 
Q 488 878 497 964 
Q 506 1050 525 1153 
L 897 3053 
L 409 3053 
L 500 3500 
L 978 3500 
L 1172 4494 
L 1747 4494 
L 1556 3500 
L 2706 3500 
z
" transform="scale(0.015625)"/>
     </defs>
     <use xlink:href="#DejaVuSans-Oblique-76" transform="translate(0 0.3125)"/>
     <use xlink:href="#DejaVuSans-Oblique-6f" transform="translate(59.179688 -16.09375) scale(0.7)"/>
     <use xlink:href="#DejaVuSans-Oblique-75" transform="translate(102.006836 -16.09375) scale(0.7)"/>
     <use xlink:href="#DejaVuSans-Oblique-74" transform="translate(146.37207 -16.09375) scale(0.7)"/>
    </g>
   </g>
   <g id="text_6">
    <!-- $+$ -->
    <g transform="translate(327.633 192.629219) scale(0.125 -0.125)">
     <defs>
      <path id="DejaVuSans-2b" d="M 2944 4013 
L 2944 2272 
L 4684 2272 
L 4684 1741 
L 2944 1741 
L 2944 0 
L 2419 0 
L 2419 1741 
L 678 1741 
L 678 2272 
L 2419 2272 
L 2419 4013 
L 2944 4013 
z
" transform="scale(0.015625)"/>
     </defs>
     <use xlink:href="#DejaVuSans-2b" transform="translate(0 0.296875)"/>
    </g>
   </g>
   <g id="patch_6">
    <path d="M 39.423 111 
C 40.139048 111 40.825866 110.715511 41.332188 110.209188 
C 41.838511 109.702866 42.123 109.016048 42.123 108.3 
C 42.123 107.583952 41.838511 106.897134 41.332188 106.390812 
C 40.825866 105.884489 40.139048 105.6 39.423 105.6 
C 38.706952 105.6 38.020134 105.884489 37.513812 106.390812 
C 37.007489 106.897134 36.723 107.583952 36.723 108.3 
C 36.723 109.016048 37.007489 109.702866 37.513812 110.209188 
C 38.020134 110.715511 38.706952 111 39.423 111 
z
" clip-path="url(#pb3f1ea9141)" style="stroke: #000000; stroke-width: 2; stroke-linejoin: miter"/>
   </g>
   <g id="patch_7">
    <path d="M 21.423 111 
C 22.139048 111 22.825866 110.715511 23.332188 110.209188 
C 23.838511 109.702866 24.123 109.016048 24.123 108.3 
C 24.123 107.583952 23.838511 106.897134 23.332188 106.390812 
C 22.825866 105.884489 22.139048 105.6 21.423 105.6 
C 20.706952 105.6 20.020134 105.884489 19.513812 106.390812 
C 19.007489 106.897134 18.723 107.583952 18.723 108.3 
C 18.723 109.016048 19.007489 109.702866 19.513812 110.209188 
C 20.020134 110.715511 20.706952 111 21.423 111 
z
" clip-path="url(#pb3f1ea9141)" style="fill: #ffffff; stroke: #000000; stroke-width: 2; stroke-linejoin: miter"/>
   </g>
   <g id="patch_8">
    <path d="M 66.483 110.88 
C 67.199048 110.88 67.885866 110.595511 68.392188 110.089188 
C 68.898511 109.582866 69.183 108.896048 69.183 108.18 
C 69.183 107.463952 68.898511 106.777134 68.392188 106.270812 
C 67.885866 105.764489 67.199048 105.48 66.483 105.48 
C 65.766952 105.48 65.080134 105.764489 64.573812 106.270812 
C 64.067489 106.777134 63.783 107.463952 63.783 108.18 
C 63.783 108.896048 64.067489 109.582866 64.573812 110.089188 
C 65.080134 110.595511 65.766952 110.88 66.483 110.88 
z
" clip-path="url(#pb3f1ea9141)" style="stroke: #000000; stroke-width: 2; stroke-linejoin: miter"/>
   </g>
   <g id="patch_9">
    <path d="M 84.483 110.88 
C 85.199048 110.88 85.885866 110.595511 86.392188 110.089188 
C 86.898511 109.582866 87.183 108.896048 87.183 108.18 
C 87.183 107.463952 86.898511 106.777134 86.392188 106.270812 
C 85.885866 105.764489 85.199048 105.48 84.483 105.48 
C 83.766952 105.48 83.080134 105.764489 82.573812 106.270812 
C 82.067489 106.777134 81.783 107.463952 81.783 108.18 
C 81.783 108.896048 82.067489 109.582866 82.573812 110.089188 
C 83.080134 110.595511 83.766952 110.88 84.483 110.88 
z
" clip-path="url(#pb3f1ea9141)" style="stroke: #000000; stroke-width: 2; stroke-linejoin: miter"/>
   </g>
   <g id="patch_10">
    <path d="M 318.483 110.88 
C 319.199048 110.88 319.885866 110.595511 320.392188 110.089188 
C 320.898511 109.582866 321.183 108.896048 321.183 108.18 
C 321.183 107.463952 320.898511 106.777134 320.392188 106.270812 
C 319.885866 105.764489 319.199048 105.48 318.483 105.48 
C 317.766952 105.48 317.080134 105.764489 316.573812 106.270812 
C 316.067489 106.777134 315.783 107.463952 315.783 108.18 
C 315.783 108.896048 316.067489 109.582866 316.573812 110.089188 
C 317.080134 110.595511 317.766952 110.88 318.483 110.88 
z
" clip-path="url(#pb3f1ea9141)" style="fill: #ffffff; stroke: #000000; stroke-width: 2; stroke-linejoin: miter"/>
   </g>
   <g id="patch_11">
    <path d="M 318.483 218.88 
C 319.199048 218.88 319.885866 218.595511 320.392188 218.089188 
C 320.898511 217.582866 321.183 216.896048 321.183 216.18 
C 321.183 215.463952 320.898511 214.777134 320.392188 214.270812 
C 319.885866 213.764489 319.199048 213.48 318.483 213.48 
C 317.766952 213.48 317.080134 213.764489 316.573812 214.270812 
C 316.067489 214.777134 315.783 215.463952 315.783 216.18 
C 315.783 216.896048 316.067489 217.582866 316.573812 218.089188 
C 317.080134 218.595511 317.766952 218.88 318.483 218.88 
z
" clip-path="url(#pb3f1ea9141)" style="fill: #ffffff; stroke: #000000; stroke-width: 2; stroke-linejoin: miter"/>
   </g>
   <g id="patch_12">
    <path d="M 66.483 218.88 
C 67.199048 218.88 67.885866 218.595511 68.392188 218.089188 
C 68.898511 217.582866 69.183 216.896048 69.183 216.18 
C 69.183 215.463952 68.898511 214.777134 68.392188 214.270812 
C 67.885866 213.764489 67.199048 213.48 66.483 213.48 
C 65.766952 213.48 65.080134 213.764489 64.573812 214.270812 
C 64.067489 214.777134 63.783 215.463952 63.783 216.18 
C 63.783 216.896048 64.067489 217.582866 64.573812 218.089188 
C 65.080134 218.595511 65.766952 218.88 66.483 218.88 
z
" clip-path="url(#pb3f1ea9141)" style="stroke: #000000; stroke-width: 2; stroke-linejoin: miter"/>
   </g>
   <g id="patch_13">
    <path d="M 66.483 31.92 
C 67.199048 31.92 67.885866 31.635511 68.392188 31.129188 
C 68.898511 30.622866 69.183 29.936048 69.183 29.22 
C 69.183 28.503952 68.898511 27.817134 68.392188 27.310812 
C 67.885866 26.804489 67.199048 26.52 66.483 26.52 
C 65.766952 26.52 65.080134 26.804489 64.573812 27.310812 
C 64.067489 27.817134 63.783 28.503952 63.783 29.22 
C 63.783 29.936048 64.067489 30.622866 64.573812 31.129188 
C 65.080134 31.635511 65.766952 31.92 66.483 31.92 
z
" clip-path="url(#pb3f1ea9141)" style="stroke: #000000; stroke-width: 2; stroke-linejoin: miter"/>
   </g>
   <g id="patch_14">
    <path d="M 66.483 186.48 
C 67.199048 186.48 67.885866 186.195511 68.392188 185.689188 
C 68.898511 185.182866 69.183 184.496048 69.183 183.78 
C 69.183 183.063952 68.898511 182.377134 68.392188 181.870812 
C 67.885866 181.364489 67.199048 181.08 66.483 181.08 
C 65.766952 181.08 65.080134 181.364489 64.573812 181.870812 
C 64.067489 182.377134 63.783 183.063952 63.783 183.78 
C 63.783 184.496048 64.067489 185.182866 64.573812 185.689188 
C 65.080134 186.195511 65.766952 186.48 66.483 186.48 
z
" clip-path="url(#pb3f1ea9141)" style="stroke: #000000; stroke-width: 2; stroke-linejoin: miter"/>
   </g>
  </g>
 </g>
 <defs>
  <clipPath id="pb3f1ea9141">
   <rect x="3.6" y="3.6" width="332.706" height="246.84"/>
  </clipPath>
 </defs>
</svg>