<?xml version="1.0" encoding="utf-8" standalone="no"?>
<!DOCTYPE svg PUBLIC "-//W3C//DTD SVG 1.1//EN"
  "http://www.w3.org/Graphics/SVG/1.1/DTD/svg11.dtd">
<svg xmlns:xlink="http://www.w3.org/1999/xlink" width="723.765625pt" height="479.658125pt" viewBox="0 0 723.765625 479.658125" xmlns="http://www.w3.org/2000/svg" version="1.1">
 <metadata>
  <rdf:RDF xmlns:dc="http://purl.org/dc/elements/1.1/" xmlns:cc="http://creativecommons.org/ns#" xmlns:rdf="http://www.w3.org/1999/02/22-rdf-syntax-ns#">
   <cc:Work>
    <dc:type rdf:resource="http://purl.org/dc/dcmitype/StillImage"/>
    <dc:date>2022-12-11T20:47:54.110150</dc:date>
    <dc:format>image/svg+xml</dc:format>
    <dc:creator>
     <cc:Agent>
      <dc:title>Matplotlib v3.5.3, https://matplotlib.org/</dc:title>
     </cc:Agent>
    </dc:creator>
   </cc:Work>
  </rdf:RDF>
 </metadata>
 <defs>
  <style type="text/css">*{stroke-linejoin: round; stroke-linecap: butt}</style>
 </defs>
 <g id="figure_1">
  <g id="patch_1">
   <path d="M 0 479.658125 
L 723.765625 479.658125 
L 723.765625 0 
L 0 0 
L 0 479.658125 
z
" style="fill: none"/>
  </g>
  <g id="axes_1">
   <g id="patch_2">
    <path d="M 46.965625 217.286957 
L 338.09606 217.286957 
L 338.09606 7.2 
L 46.965625 7.2 
z
" style="fill: #ffffff"/>
   </g>
   <g id="matplotlib.axis_1">
    <g id="xtick_1">
     <g id="line2d_1">
      <defs>
       <path id="m9cabde70da" d="M 0 0 
L 0 3.5 
" style="stroke: #000000; stroke-width: 0.8"/>
      </defs>
      <g>
       <use xlink:href="#m9cabde70da" x="60.198827" y="217.286957" style="stroke: #000000; stroke-width: 0.8"/>
      </g>
     </g>
    </g>
    <g id="xtick_2">
     <g id="line2d_2">
      <g>
       <use xlink:href="#m9cabde70da" x="96.95772" y="217.286957" style="stroke: #000000; stroke-width: 0.8"/>
      </g>
     </g>
    </g>
    <g id="xtick_3">
     <g id="line2d_3">
      <g>
       <use xlink:href="#m9cabde70da" x="133.716613" y="217.286957" style="stroke: #000000; stroke-width: 0.8"/>
      </g>
     </g>
    </g>
    <g id="xtick_4">
     <g id="line2d_4">
      <g>
       <use xlink:href="#m9cabde70da" x="170.475506" y="217.286957" style="stroke: #000000; stroke-width: 0.8"/>
      </g>
     </g>
    </g>
    <g id="xtick_5">
     <g id="line2d_5">
      <g>
       <use xlink:href="#m9cabde70da" x="207.2344" y="217.286957" style="stroke: #000000; stroke-width: 0.8"/>
      </g>
     </g>
    </g>
    <g id="xtick_6">
     <g id="line2d_6">
      <g>
       <use xlink:href="#m9cabde70da" x="243.993293" y="217.286957" style="stroke: #000000; stroke-width: 0.8"/>
      </g>
     </g>
    </g>
    <g id="xtick_7">
     <g id="line2d_7">
      <g>
       <use xlink:href="#m9cabde70da" x="280.752186" y="217.286957" style="stroke: #000000; stroke-width: 0.8"/>
      </g>
     </g>
    </g>
    <g id="xtick_8">
     <g id="line2d_8">
      <g>
       <use xlink:href="#m9cabde70da" x="317.51108" y="217.286957" style="stroke: #000000; stroke-width: 0.8"/>
      </g>
     </g>
    </g>
   </g>
   <g id="matplotlib.axis_2">
    <g id="ytick_1">
     <g id="line2d_9">
      <defs>
       <path id="mc7c8f8d92e" d="M 0 0 
L -3.5 0 
" style="stroke: #000000; stroke-width: 0.8"/>
      </defs>
      <g>
       <use xlink:href="#mc7c8f8d92e" x="46.965625" y="217.286957" style="stroke: #000000; stroke-width: 0.8"/>
      </g>
     </g>
     <g id="text_1">
      <!-- 0 -->
      <g transform="translate(33.603125 221.086175)scale(0.1 -0.1)">
       <defs>
        <path id="DejaVuSans-30" d="M 2034 4250 
Q 1547 4250 1301 3770 
Q 1056 3291 1056 2328 
Q 1056 1369 1301 889 
Q 1547 409 2034 409 
Q 2525 409 2770 889 
Q 3016 1369 3016 2328 
Q 3016 3291 2770 3770 
Q 2525 4250 2034 4250 
z
M 2034 4750 
Q 2819 4750 3233 4129 
Q 3647 3509 3647 2328 
Q 3647 1150 3233 529 
Q 2819 -91 2034 -91 
Q 1250 -91 836 529 
Q 422 1150 422 2328 
Q 422 3509 836 4129 
Q 1250 4750 2034 4750 
z
" transform="scale(0.015625)"/>
       </defs>
       <use xlink:href="#DejaVuSans-30"/>
      </g>
     </g>
    </g>
    <g id="ytick_2">
     <g id="line2d_10">
      <g>
       <use xlink:href="#mc7c8f8d92e" x="46.965625" y="192.276601" style="stroke: #000000; stroke-width: 0.8"/>
      </g>
     </g>
     <g id="text_2">
      <!-- 20 -->
      <g transform="translate(27.240625 196.07582)scale(0.1 -0.1)">
       <defs>
        <path id="DejaVuSans-32" d="M 1228 531 
L 3431 531 
L 3431 0 
L 469 0 
L 469 531 
Q 828 903 1448 1529 
Q 2069 2156 2228 2338 
Q 2531 2678 2651 2914 
Q 2772 3150 2772 3378 
Q 2772 3750 2511 3984 
Q 2250 4219 1831 4219 
Q 1534 4219 1204 4116 
Q 875 4013 500 3803 
L 500 4441 
Q 881 4594 1212 4672 
Q 1544 4750 1819 4750 
Q 2544 4750 2975 4387 
Q 3406 4025 3406 3419 
Q 3406 3131 3298 2873 
Q 3191 2616 2906 2266 
Q 2828 2175 2409 1742 
Q 1991 1309 1228 531 
z
" transform="scale(0.015625)"/>
       </defs>
       <use xlink:href="#DejaVuSans-32"/>
       <use xlink:href="#DejaVuSans-30" x="63.623047"/>
      </g>
     </g>
    </g>
    <g id="ytick_3">
     <g id="line2d_11">
      <g>
       <use xlink:href="#mc7c8f8d92e" x="46.965625" y="167.266246" style="stroke: #000000; stroke-width: 0.8"/>
      </g>
     </g>
     <g id="text_3">
      <!-- 40 -->
      <g transform="translate(27.240625 171.065465)scale(0.1 -0.1)">
       <defs>
        <path id="DejaVuSans-34" d="M 2419 4116 
L 825 1625 
L 2419 1625 
L 2419 4116 
z
M 2253 4666 
L 3047 4666 
L 3047 1625 
L 3713 1625 
L 3713 1100 
L 3047 1100 
L 3047 0 
L 2419 0 
L 2419 1100 
L 313 1100 
L 313 1709 
L 2253 4666 
z
" transform="scale(0.015625)"/>
       </defs>
       <use xlink:href="#DejaVuSans-34"/>
       <use xlink:href="#DejaVuSans-30" x="63.623047"/>
      </g>
     </g>
    </g>
    <g id="ytick_4">
     <g id="line2d_12">
      <g>
       <use xlink:href="#mc7c8f8d92e" x="46.965625" y="142.255891" style="stroke: #000000; stroke-width: 0.8"/>
      </g>
     </g>
     <g id="text_4">
      <!-- 60 -->
      <g transform="translate(27.240625 146.05511)scale(0.1 -0.1)">
       <defs>
        <path id="DejaVuSans-36" d="M 2113 2584 
Q 1688 2584 1439 2293 
Q 1191 2003 1191 1497 
Q 1191 994 1439 701 
Q 1688 409 2113 409 
Q 2538 409 2786 701 
Q 3034 994 3034 1497 
Q 3034 2003 2786 2293 
Q 2538 2584 2113 2584 
z
M 3366 4563 
L 3366 3988 
Q 3128 4100 2886 4159 
Q 2644 4219 2406 4219 
Q 1781 4219 1451 3797 
Q 1122 3375 1075 2522 
Q 1259 2794 1537 2939 
Q 1816 3084 2150 3084 
Q 2853 3084 3261 2657 
Q 3669 2231 3669 1497 
Q 3669 778 3244 343 
Q 2819 -91 2113 -91 
Q 1303 -91 875 529 
Q 447 1150 447 2328 
Q 447 3434 972 4092 
Q 1497 4750 2381 4750 
Q 2619 4750 2861 4703 
Q 3103 4656 3366 4563 
z
" transform="scale(0.015625)"/>
       </defs>
       <use xlink:href="#DejaVuSans-36"/>
       <use xlink:href="#DejaVuSans-30" x="63.623047"/>
      </g>
     </g>
    </g>
    <g id="ytick_5">
     <g id="line2d_13">
      <g>
       <use xlink:href="#mc7c8f8d92e" x="46.965625" y="117.245536" style="stroke: #000000; stroke-width: 0.8"/>
      </g>
     </g>
     <g id="text_5">
      <!-- 80 -->
      <g transform="translate(27.240625 121.044755)scale(0.1 -0.1)">
       <defs>
        <path id="DejaVuSans-38" d="M 2034 2216 
Q 1584 2216 1326 1975 
Q 1069 1734 1069 1313 
Q 1069 891 1326 650 
Q 1584 409 2034 409 
Q 2484 409 2743 651 
Q 3003 894 3003 1313 
Q 3003 1734 2745 1975 
Q 2488 2216 2034 2216 
z
M 1403 2484 
Q 997 2584 770 2862 
Q 544 3141 544 3541 
Q 544 4100 942 4425 
Q 1341 4750 2034 4750 
Q 2731 4750 3128 4425 
Q 3525 4100 3525 3541 
Q 3525 3141 3298 2862 
Q 3072 2584 2669 2484 
Q 3125 2378 3379 2068 
Q 3634 1759 3634 1313 
Q 3634 634 3220 271 
Q 2806 -91 2034 -91 
Q 1263 -91 848 271 
Q 434 634 434 1313 
Q 434 1759 690 2068 
Q 947 2378 1403 2484 
z
M 1172 3481 
Q 1172 3119 1398 2916 
Q 1625 2713 2034 2713 
Q 2441 2713 2670 2916 
Q 2900 3119 2900 3481 
Q 2900 3844 2670 4047 
Q 2441 4250 2034 4250 
Q 1625 4250 1398 4047 
Q 1172 3844 1172 3481 
z
" transform="scale(0.015625)"/>
       </defs>
       <use xlink:href="#DejaVuSans-38"/>
       <use xlink:href="#DejaVuSans-30" x="63.623047"/>
      </g>
     </g>
    </g>
    <g id="ytick_6">
     <g id="line2d_14">
      <g>
       <use xlink:href="#mc7c8f8d92e" x="46.965625" y="92.235181" style="stroke: #000000; stroke-width: 0.8"/>
      </g>
     </g>
     <g id="text_6">
      <!-- 100 -->
      <g transform="translate(20.878125 96.0344)scale(0.1 -0.1)">
       <defs>
        <path id="DejaVuSans-31" d="M 794 531 
L 1825 531 
L 1825 4091 
L 703 3866 
L 703 4441 
L 1819 4666 
L 2450 4666 
L 2450 531 
L 3481 531 
L 3481 0 
L 794 0 
L 794 531 
z
" transform="scale(0.015625)"/>
       </defs>
       <use xlink:href="#DejaVuSans-31"/>
       <use xlink:href="#DejaVuSans-30" x="63.623047"/>
       <use xlink:href="#DejaVuSans-30" x="127.246094"/>
      </g>
     </g>
    </g>
    <g id="ytick_7">
     <g id="line2d_15">
      <g>
       <use xlink:href="#mc7c8f8d92e" x="46.965625" y="67.224826" style="stroke: #000000; stroke-width: 0.8"/>
      </g>
     </g>
     <g id="text_7">
      <!-- 120 -->
      <g transform="translate(20.878125 71.024045)scale(0.1 -0.1)">
       <use xlink:href="#DejaVuSans-31"/>
       <use xlink:href="#DejaVuSans-32" x="63.623047"/>
       <use xlink:href="#DejaVuSans-30" x="127.246094"/>
      </g>
     </g>
    </g>
    <g id="ytick_8">
     <g id="line2d_16">
      <g>
       <use xlink:href="#mc7c8f8d92e" x="46.965625" y="42.214471" style="stroke: #000000; stroke-width: 0.8"/>
      </g>
     </g>
     <g id="text_8">
      <!-- 140 -->
      <g transform="translate(20.878125 46.01369)scale(0.1 -0.1)">
       <use xlink:href="#DejaVuSans-31"/>
       <use xlink:href="#DejaVuSans-34" x="63.623047"/>
       <use xlink:href="#DejaVuSans-30" x="127.246094"/>
      </g>
     </g>
    </g>
    <g id="ytick_9">
     <g id="line2d_17">
      <g>
       <use xlink:href="#mc7c8f8d92e" x="46.965625" y="17.204116" style="stroke: #000000; stroke-width: 0.8"/>
      </g>
     </g>
     <g id="text_9">
      <!-- 160 -->
      <g transform="translate(20.878125 21.003334)scale(0.1 -0.1)">
       <use xlink:href="#DejaVuSans-31"/>
       <use xlink:href="#DejaVuSans-36" x="63.623047"/>
       <use xlink:href="#DejaVuSans-30" x="127.246094"/>
      </g>
     </g>
    </g>
    <g id="text_10">
     <!-- Uitgangsspanning (V) -->
     <g transform="translate(14.798438 166.261447)rotate(-90)scale(0.1 -0.1)">
      <defs>
       <path id="DejaVuSans-55" d="M 556 4666 
L 1191 4666 
L 1191 1831 
Q 1191 1081 1462 751 
Q 1734 422 2344 422 
Q 2950 422 3222 751 
Q 3494 1081 3494 1831 
L 3494 4666 
L 4128 4666 
L 4128 1753 
Q 4128 841 3676 375 
Q 3225 -91 2344 -91 
Q 1459 -91 1007 375 
Q 556 841 556 1753 
L 556 4666 
z
" transform="scale(0.015625)"/>
       <path id="DejaVuSans-69" d="M 603 3500 
L 1178 3500 
L 1178 0 
L 603 0 
L 603 3500 
z
M 603 4863 
L 1178 4863 
L 1178 4134 
L 603 4134 
L 603 4863 
z
" transform="scale(0.015625)"/>
       <path id="DejaVuSans-74" d="M 1172 4494 
L 1172 3500 
L 2356 3500 
L 2356 3053 
L 1172 3053 
L 1172 1153 
Q 1172 725 1289 603 
Q 1406 481 1766 481 
L 2356 481 
L 2356 0 
L 1766 0 
Q 1100 0 847 248 
Q 594 497 594 1153 
L 594 3053 
L 172 3053 
L 172 3500 
L 594 3500 
L 594 4494 
L 1172 4494 
z
" transform="scale(0.015625)"/>
       <path id="DejaVuSans-67" d="M 2906 1791 
Q 2906 2416 2648 2759 
Q 2391 3103 1925 3103 
Q 1463 3103 1205 2759 
Q 947 2416 947 1791 
Q 947 1169 1205 825 
Q 1463 481 1925 481 
Q 2391 481 2648 825 
Q 2906 1169 2906 1791 
z
M 3481 434 
Q 3481 -459 3084 -895 
Q 2688 -1331 1869 -1331 
Q 1566 -1331 1297 -1286 
Q 1028 -1241 775 -1147 
L 775 -588 
Q 1028 -725 1275 -790 
Q 1522 -856 1778 -856 
Q 2344 -856 2625 -561 
Q 2906 -266 2906 331 
L 2906 616 
Q 2728 306 2450 153 
Q 2172 0 1784 0 
Q 1141 0 747 490 
Q 353 981 353 1791 
Q 353 2603 747 3093 
Q 1141 3584 1784 3584 
Q 2172 3584 2450 3431 
Q 2728 3278 2906 2969 
L 2906 3500 
L 3481 3500 
L 3481 434 
z
" transform="scale(0.015625)"/>
       <path id="DejaVuSans-61" d="M 2194 1759 
Q 1497 1759 1228 1600 
Q 959 1441 959 1056 
Q 959 750 1161 570 
Q 1363 391 1709 391 
Q 2188 391 2477 730 
Q 2766 1069 2766 1631 
L 2766 1759 
L 2194 1759 
z
M 3341 1997 
L 3341 0 
L 2766 0 
L 2766 531 
Q 2569 213 2275 61 
Q 1981 -91 1556 -91 
Q 1019 -91 701 211 
Q 384 513 384 1019 
Q 384 1609 779 1909 
Q 1175 2209 1959 2209 
L 2766 2209 
L 2766 2266 
Q 2766 2663 2505 2880 
Q 2244 3097 1772 3097 
Q 1472 3097 1187 3025 
Q 903 2953 641 2809 
L 641 3341 
Q 956 3463 1253 3523 
Q 1550 3584 1831 3584 
Q 2591 3584 2966 3190 
Q 3341 2797 3341 1997 
z
" transform="scale(0.015625)"/>
       <path id="DejaVuSans-6e" d="M 3513 2113 
L 3513 0 
L 2938 0 
L 2938 2094 
Q 2938 2591 2744 2837 
Q 2550 3084 2163 3084 
Q 1697 3084 1428 2787 
Q 1159 2491 1159 1978 
L 1159 0 
L 581 0 
L 581 3500 
L 1159 3500 
L 1159 2956 
Q 1366 3272 1645 3428 
Q 1925 3584 2291 3584 
Q 2894 3584 3203 3211 
Q 3513 2838 3513 2113 
z
" transform="scale(0.015625)"/>
       <path id="DejaVuSans-73" d="M 2834 3397 
L 2834 2853 
Q 2591 2978 2328 3040 
Q 2066 3103 1784 3103 
Q 1356 3103 1142 2972 
Q 928 2841 928 2578 
Q 928 2378 1081 2264 
Q 1234 2150 1697 2047 
L 1894 2003 
Q 2506 1872 2764 1633 
Q 3022 1394 3022 966 
Q 3022 478 2636 193 
Q 2250 -91 1575 -91 
Q 1294 -91 989 -36 
Q 684 19 347 128 
L 347 722 
Q 666 556 975 473 
Q 1284 391 1588 391 
Q 1994 391 2212 530 
Q 2431 669 2431 922 
Q 2431 1156 2273 1281 
Q 2116 1406 1581 1522 
L 1381 1569 
Q 847 1681 609 1914 
Q 372 2147 372 2553 
Q 372 3047 722 3315 
Q 1072 3584 1716 3584 
Q 2034 3584 2315 3537 
Q 2597 3491 2834 3397 
z
" transform="scale(0.015625)"/>
       <path id="DejaVuSans-70" d="M 1159 525 
L 1159 -1331 
L 581 -1331 
L 581 3500 
L 1159 3500 
L 1159 2969 
Q 1341 3281 1617 3432 
Q 1894 3584 2278 3584 
Q 2916 3584 3314 3078 
Q 3713 2572 3713 1747 
Q 3713 922 3314 415 
Q 2916 -91 2278 -91 
Q 1894 -91 1617 61 
Q 1341 213 1159 525 
z
M 3116 1747 
Q 3116 2381 2855 2742 
Q 2594 3103 2138 3103 
Q 1681 3103 1420 2742 
Q 1159 2381 1159 1747 
Q 1159 1113 1420 752 
Q 1681 391 2138 391 
Q 2594 391 2855 752 
Q 3116 1113 3116 1747 
z
" transform="scale(0.015625)"/>
       <path id="DejaVuSans-20" transform="scale(0.015625)"/>
       <path id="DejaVuSans-28" d="M 1984 4856 
Q 1566 4138 1362 3434 
Q 1159 2731 1159 2009 
Q 1159 1288 1364 580 
Q 1569 -128 1984 -844 
L 1484 -844 
Q 1016 -109 783 600 
Q 550 1309 550 2009 
Q 550 2706 781 3412 
Q 1013 4119 1484 4856 
L 1984 4856 
z
" transform="scale(0.015625)"/>
       <path id="DejaVuSans-56" d="M 1831 0 
L 50 4666 
L 709 4666 
L 2188 738 
L 3669 4666 
L 4325 4666 
L 2547 0 
L 1831 0 
z
" transform="scale(0.015625)"/>
       <path id="DejaVuSans-29" d="M 513 4856 
L 1013 4856 
Q 1481 4119 1714 3412 
Q 1947 2706 1947 2009 
Q 1947 1309 1714 600 
Q 1481 -109 1013 -844 
L 513 -844 
Q 928 -128 1133 580 
Q 1338 1288 1338 2009 
Q 1338 2731 1133 3434 
Q 928 4138 513 4856 
z
" transform="scale(0.015625)"/>
      </defs>
      <use xlink:href="#DejaVuSans-55"/>
      <use xlink:href="#DejaVuSans-69" x="73.193359"/>
      <use xlink:href="#DejaVuSans-74" x="100.976562"/>
      <use xlink:href="#DejaVuSans-67" x="140.185547"/>
      <use xlink:href="#DejaVuSans-61" x="203.662109"/>
      <use xlink:href="#DejaVuSans-6e" x="264.941406"/>
      <use xlink:href="#DejaVuSans-67" x="328.320312"/>
      <use xlink:href="#DejaVuSans-73" x="391.796875"/>
      <use xlink:href="#DejaVuSans-73" x="443.896484"/>
      <use xlink:href="#DejaVuSans-70" x="495.996094"/>
      <use xlink:href="#DejaVuSans-61" x="559.472656"/>
      <use xlink:href="#DejaVuSans-6e" x="620.751953"/>
      <use xlink:href="#DejaVuSans-6e" x="684.130859"/>
      <use xlink:href="#DejaVuSans-69" x="747.509766"/>
      <use xlink:href="#DejaVuSans-6e" x="775.292969"/>
      <use xlink:href="#DejaVuSans-67" x="838.671875"/>
      <use xlink:href="#DejaVuSans-20" x="902.148438"/>
      <use xlink:href="#DejaVuSans-28" x="933.935547"/>
      <use xlink:href="#DejaVuSans-56" x="972.949219"/>
      <use xlink:href="#DejaVuSans-29" x="1041.357422"/>
     </g>
    </g>
   </g>
   <g id="line2d_18">
    <path d="M 60.198827 117.245536 
L 64.972326 149.156391 
L 67.62427 165.647197 
L 69.745826 177.733368 
L 71.867381 188.562415 
L 73.458548 195.722706 
L 75.049714 201.964863 
L 76.640881 207.215857 
L 77.701658 210.135037 
L 78.762436 212.570955 
L 79.823214 214.510938 
L 80.883991 215.944895 
L 81.944769 216.865364 
L 82.475158 217.131439 
L 83.005547 217.267556 
L 83.535936 217.273539 
L 84.066324 217.14938 
L 84.596713 216.89524 
L 85.657491 215.998509 
L 86.718269 214.588012 
L 87.779046 212.671087 
L 88.839824 210.257706 
L 89.900602 207.360425 
L 91.491768 202.140835 
L 93.082935 195.928022 
L 94.674101 188.794674 
L 96.795657 177.997275 
L 98.917212 165.937266 
L 101.569156 149.470632 
L 105.281878 124.787538 
L 111.646544 82.246574 
L 114.298488 66.002455 
L 116.420044 54.180492 
L 118.541599 43.669216 
L 120.132766 36.778469 
L 121.723932 30.829136 
L 123.315099 25.89082 
L 124.375876 23.189325 
L 125.436654 20.977162 
L 126.497432 19.265839 
L 127.558209 18.064259 
L 128.618987 17.378673 
L 129.149376 17.230599 
L 129.679765 17.21265 
L 130.210154 17.324849 
L 130.740542 17.567051 
L 131.80132 18.440034 
L 132.862098 19.827057 
L 133.922875 21.720903 
L 134.983653 24.11172 
L 136.044431 26.98707 
L 137.635597 32.175199 
L 139.226764 38.358598 
L 140.81793 45.464925 
L 142.939486 56.230559 
L 145.061041 68.264273 
L 147.712985 84.706552 
L 151.425707 109.372773 
L 157.790373 151.933523 
L 160.442318 168.203413 
L 162.563873 180.052705 
L 164.685428 190.59667 
L 166.276595 197.515046 
L 167.867761 203.494319 
L 169.458928 208.464536 
L 170.519705 211.188204 
L 171.580483 213.423132 
L 172.641261 215.157691 
L 173.702039 216.382859 
L 174.762816 217.092261 
L 175.293205 217.25229 
L 175.823594 217.282206 
L 176.353983 217.181967 
L 176.884372 216.951706 
L 177.945149 216.10248 
L 179.005927 214.738947 
L 180.066705 212.868201 
L 181.127482 210.499974 
L 182.18826 207.646587 
L 183.779427 202.489975 
L 185.370593 196.336058 
L 186.96176 189.25683 
L 189.083315 178.52308 
L 191.20487 166.515793 
L 193.856814 150.098049 
L 197.569536 125.448974 
L 203.934202 82.868906 
L 206.586147 66.573424 
L 208.707702 54.696933 
L 210.829257 44.120395 
L 212.420424 37.174466 
L 214.01159 31.165318 
L 215.602757 26.163255 
L 216.663535 23.417444 
L 217.724312 21.159777 
L 218.78509 19.402 
L 219.845868 18.153258 
L 220.906645 17.420048 
L 221.437034 17.248064 
L 221.967423 17.206184 
L 222.497812 17.29446 
L 223.028201 17.512778 
L 224.088978 18.338237 
L 225.149756 19.678265 
L 226.210534 21.525891 
L 227.271311 23.871502 
L 228.332089 26.702895 
L 229.923256 31.827932 
L 231.514422 37.9523 
L 233.105589 45.00435 
L 235.227144 55.706098 
L 237.348699 67.686826 
L 240.000644 84.079854 
L 243.713366 108.711514 
L 250.078032 151.310432 
L 252.729976 167.631326 
L 254.851531 179.534886 
L 256.973087 190.14388 
L 258.564253 197.117286 
L 260.15542 203.156241 
L 261.746586 208.190096 
L 262.807364 210.958021 
L 263.868141 213.238403 
L 264.928919 215.019378 
L 265.989697 216.29168 
L 267.050475 217.048691 
L 267.580863 217.232626 
L 268.111252 217.286472 
L 268.641641 217.210158 
L 269.17203 217.003785 
L 270.232808 216.202103 
L 271.293585 214.885594 
L 272.354363 213.061109 
L 273.415141 210.73814 
L 274.475918 207.928772 
L 276.067085 202.835367 
L 277.658251 196.740614 
L 279.249418 189.715819 
L 281.370973 179.046191 
L 283.492529 167.092154 
L 286.144473 150.724021 
L 289.857195 126.110049 
L 296.221861 83.49275 
L 298.873805 67.146622 
L 300.99536 55.216124 
L 303.116916 44.57479 
L 304.708082 37.573985 
L 306.299249 31.505288 
L 307.890415 26.439697 
L 308.951193 23.649689 
L 310.011971 21.346618 
L 311.072748 19.542465 
L 312.133526 18.246616 
L 313.194304 17.465813 
L 313.724693 17.269928 
L 314.255081 17.204118 
L 314.78547 17.268467 
L 315.315859 17.462892 
L 316.376637 18.24079 
L 317.437414 19.533765 
L 318.498192 21.335088 
L 319.55897 23.63539 
L 320.619747 26.422703 
L 322.210914 31.484421 
L 323.802081 37.54949 
L 324.862858 42.115705 
L 324.862858 42.115705 
" clip-path="url(#pfb7f6e0226)" style="fill: none; stroke: #1f77b4; stroke-width: 1.5; stroke-linecap: square"/>
   </g>
   <g id="line2d_19">
    <path d="M 60.198827 117.245536 
L 324.862858 117.245536 
L 324.862858 117.245536 
" clip-path="url(#pfb7f6e0226)" style="fill: none; stroke: #ff7f0e; stroke-width: 1.5; stroke-linecap: square"/>
   </g>
   <g id="patch_3">
    <path d="M 46.965625 217.286957 
L 46.965625 7.2 
" style="fill: none; stroke: #000000; stroke-width: 0.8; stroke-linejoin: miter; stroke-linecap: square"/>
   </g>
   <g id="patch_4">
    <path d="M 338.09606 217.286957 
L 338.09606 7.2 
" style="fill: none; stroke: #000000; stroke-width: 0.8; stroke-linejoin: miter; stroke-linecap: square"/>
   </g>
   <g id="patch_5">
    <path d="M 46.965625 217.286957 
L 338.09606 217.286957 
" style="fill: none; stroke: #000000; stroke-width: 0.8; stroke-linejoin: miter; stroke-linecap: square"/>
   </g>
   <g id="patch_6">
    <path d="M 46.965625 7.2 
L 338.09606 7.2 
" style="fill: none; stroke: #000000; stroke-width: 0.8; stroke-linejoin: miter; stroke-linecap: square"/>
   </g>
  </g>
  <g id="axes_2">
   <g id="patch_7">
    <path d="M 425.43519 217.286957 
L 716.565625 217.286957 
L 716.565625 7.2 
L 425.43519 7.2 
z
" style="fill: #ffffff"/>
   </g>
   <g id="matplotlib.axis_3">
    <g id="xtick_9">
     <g id="line2d_20">
      <g>
       <use xlink:href="#m9cabde70da" x="438.668392" y="217.286957" style="stroke: #000000; stroke-width: 0.8"/>
      </g>
     </g>
    </g>
    <g id="xtick_10">
     <g id="line2d_21">
      <g>
       <use xlink:href="#m9cabde70da" x="475.427285" y="217.286957" style="stroke: #000000; stroke-width: 0.8"/>
      </g>
     </g>
    </g>
    <g id="xtick_11">
     <g id="line2d_22">
      <g>
       <use xlink:href="#m9cabde70da" x="512.186178" y="217.286957" style="stroke: #000000; stroke-width: 0.8"/>
      </g>
     </g>
    </g>
    <g id="xtick_12">
     <g id="line2d_23">
      <g>
       <use xlink:href="#m9cabde70da" x="548.945072" y="217.286957" style="stroke: #000000; stroke-width: 0.8"/>
      </g>
     </g>
    </g>
    <g id="xtick_13">
     <g id="line2d_24">
      <g>
       <use xlink:href="#m9cabde70da" x="585.703965" y="217.286957" style="stroke: #000000; stroke-width: 0.8"/>
      </g>
     </g>
    </g>
    <g id="xtick_14">
     <g id="line2d_25">
      <g>
       <use xlink:href="#m9cabde70da" x="622.462858" y="217.286957" style="stroke: #000000; stroke-width: 0.8"/>
      </g>
     </g>
    </g>
    <g id="xtick_15">
     <g id="line2d_26">
      <g>
       <use xlink:href="#m9cabde70da" x="659.221751" y="217.286957" style="stroke: #000000; stroke-width: 0.8"/>
      </g>
     </g>
    </g>
    <g id="xtick_16">
     <g id="line2d_27">
      <g>
       <use xlink:href="#m9cabde70da" x="695.980645" y="217.286957" style="stroke: #000000; stroke-width: 0.8"/>
      </g>
     </g>
    </g>
   </g>
   <g id="matplotlib.axis_4">
    <g id="ytick_10">
     <g id="line2d_28">
      <g>
       <use xlink:href="#mc7c8f8d92e" x="425.43519" y="217.286957" style="stroke: #000000; stroke-width: 0.8"/>
      </g>
     </g>
     <g id="text_11">
      <!-- 0.0 -->
      <g transform="translate(402.532065 221.086175)scale(0.1 -0.1)">
       <defs>
        <path id="DejaVuSans-2e" d="M 684 794 
L 1344 794 
L 1344 0 
L 684 0 
L 684 794 
z
" transform="scale(0.015625)"/>
       </defs>
       <use xlink:href="#DejaVuSans-30"/>
       <use xlink:href="#DejaVuSans-2e" x="63.623047"/>
       <use xlink:href="#DejaVuSans-30" x="95.410156"/>
      </g>
     </g>
    </g>
    <g id="ytick_11">
     <g id="line2d_29">
      <g>
       <use xlink:href="#mc7c8f8d92e" x="425.43519" y="192.276604" style="stroke: #000000; stroke-width: 0.8"/>
      </g>
     </g>
     <g id="text_12">
      <!-- 2.5 -->
      <g transform="translate(402.532065 196.075822)scale(0.1 -0.1)">
       <defs>
        <path id="DejaVuSans-35" d="M 691 4666 
L 3169 4666 
L 3169 4134 
L 1269 4134 
L 1269 2991 
Q 1406 3038 1543 3061 
Q 1681 3084 1819 3084 
Q 2600 3084 3056 2656 
Q 3513 2228 3513 1497 
Q 3513 744 3044 326 
Q 2575 -91 1722 -91 
Q 1428 -91 1123 -41 
Q 819 9 494 109 
L 494 744 
Q 775 591 1075 516 
Q 1375 441 1709 441 
Q 2250 441 2565 725 
Q 2881 1009 2881 1497 
Q 2881 1984 2565 2268 
Q 2250 2553 1709 2553 
Q 1456 2553 1204 2497 
Q 953 2441 691 2322 
L 691 4666 
z
" transform="scale(0.015625)"/>
       </defs>
       <use xlink:href="#DejaVuSans-32"/>
       <use xlink:href="#DejaVuSans-2e" x="63.623047"/>
       <use xlink:href="#DejaVuSans-35" x="95.410156"/>
      </g>
     </g>
    </g>
    <g id="ytick_12">
     <g id="line2d_30">
      <g>
       <use xlink:href="#mc7c8f8d92e" x="425.43519" y="167.266251" style="stroke: #000000; stroke-width: 0.8"/>
      </g>
     </g>
     <g id="text_13">
      <!-- 5.0 -->
      <g transform="translate(402.532065 171.065469)scale(0.1 -0.1)">
       <use xlink:href="#DejaVuSans-35"/>
       <use xlink:href="#DejaVuSans-2e" x="63.623047"/>
       <use xlink:href="#DejaVuSans-30" x="95.410156"/>
      </g>
     </g>
    </g>
    <g id="ytick_13">
     <g id="line2d_31">
      <g>
       <use xlink:href="#mc7c8f8d92e" x="425.43519" y="142.255898" style="stroke: #000000; stroke-width: 0.8"/>
      </g>
     </g>
     <g id="text_14">
      <!-- 7.5 -->
      <g transform="translate(402.532065 146.055116)scale(0.1 -0.1)">
       <defs>
        <path id="DejaVuSans-37" d="M 525 4666 
L 3525 4666 
L 3525 4397 
L 1831 0 
L 1172 0 
L 2766 4134 
L 525 4134 
L 525 4666 
z
" transform="scale(0.015625)"/>
       </defs>
       <use xlink:href="#DejaVuSans-37"/>
       <use xlink:href="#DejaVuSans-2e" x="63.623047"/>
       <use xlink:href="#DejaVuSans-35" x="95.410156"/>
      </g>
     </g>
    </g>
    <g id="ytick_14">
     <g id="line2d_32">
      <g>
       <use xlink:href="#mc7c8f8d92e" x="425.43519" y="117.245545" style="stroke: #000000; stroke-width: 0.8"/>
      </g>
     </g>
     <g id="text_15">
      <!-- 10.0 -->
      <g transform="translate(396.169565 121.044763)scale(0.1 -0.1)">
       <use xlink:href="#DejaVuSans-31"/>
       <use xlink:href="#DejaVuSans-30" x="63.623047"/>
       <use xlink:href="#DejaVuSans-2e" x="127.246094"/>
       <use xlink:href="#DejaVuSans-30" x="159.033203"/>
      </g>
     </g>
    </g>
    <g id="ytick_15">
     <g id="line2d_33">
      <g>
       <use xlink:href="#mc7c8f8d92e" x="425.43519" y="92.235192" style="stroke: #000000; stroke-width: 0.8"/>
      </g>
     </g>
     <g id="text_16">
      <!-- 12.5 -->
      <g transform="translate(396.169565 96.03441)scale(0.1 -0.1)">
       <use xlink:href="#DejaVuSans-31"/>
       <use xlink:href="#DejaVuSans-32" x="63.623047"/>
       <use xlink:href="#DejaVuSans-2e" x="127.246094"/>
       <use xlink:href="#DejaVuSans-35" x="159.033203"/>
      </g>
     </g>
    </g>
    <g id="ytick_16">
     <g id="line2d_34">
      <g>
       <use xlink:href="#mc7c8f8d92e" x="425.43519" y="67.224839" style="stroke: #000000; stroke-width: 0.8"/>
      </g>
     </g>
     <g id="text_17">
      <!-- 15.0 -->
      <g transform="translate(396.169565 71.024057)scale(0.1 -0.1)">
       <use xlink:href="#DejaVuSans-31"/>
       <use xlink:href="#DejaVuSans-35" x="63.623047"/>
       <use xlink:href="#DejaVuSans-2e" x="127.246094"/>
       <use xlink:href="#DejaVuSans-30" x="159.033203"/>
      </g>
     </g>
    </g>
    <g id="ytick_17">
     <g id="line2d_35">
      <g>
       <use xlink:href="#mc7c8f8d92e" x="425.43519" y="42.214486" style="stroke: #000000; stroke-width: 0.8"/>
      </g>
     </g>
     <g id="text_18">
      <!-- 17.5 -->
      <g transform="translate(396.169565 46.013704)scale(0.1 -0.1)">
       <use xlink:href="#DejaVuSans-31"/>
       <use xlink:href="#DejaVuSans-37" x="63.623047"/>
       <use xlink:href="#DejaVuSans-2e" x="127.246094"/>
       <use xlink:href="#DejaVuSans-35" x="159.033203"/>
      </g>
     </g>
    </g>
    <g id="ytick_18">
     <g id="line2d_36">
      <g>
       <use xlink:href="#mc7c8f8d92e" x="425.43519" y="17.204133" style="stroke: #000000; stroke-width: 0.8"/>
      </g>
     </g>
     <g id="text_19">
      <!-- 20.0 -->
      <g transform="translate(396.169565 21.003351)scale(0.1 -0.1)">
       <use xlink:href="#DejaVuSans-32"/>
       <use xlink:href="#DejaVuSans-30" x="63.623047"/>
       <use xlink:href="#DejaVuSans-2e" x="127.246094"/>
       <use xlink:href="#DejaVuSans-30" x="159.033203"/>
      </g>
     </g>
    </g>
    <g id="text_20">
     <!-- Uitgangspower (W) -->
     <g transform="translate(390.089878 160.327072)rotate(-90)scale(0.1 -0.1)">
      <defs>
       <path id="DejaVuSans-6f" d="M 1959 3097 
Q 1497 3097 1228 2736 
Q 959 2375 959 1747 
Q 959 1119 1226 758 
Q 1494 397 1959 397 
Q 2419 397 2687 759 
Q 2956 1122 2956 1747 
Q 2956 2369 2687 2733 
Q 2419 3097 1959 3097 
z
M 1959 3584 
Q 2709 3584 3137 3096 
Q 3566 2609 3566 1747 
Q 3566 888 3137 398 
Q 2709 -91 1959 -91 
Q 1206 -91 779 398 
Q 353 888 353 1747 
Q 353 2609 779 3096 
Q 1206 3584 1959 3584 
z
" transform="scale(0.015625)"/>
       <path id="DejaVuSans-77" d="M 269 3500 
L 844 3500 
L 1563 769 
L 2278 3500 
L 2956 3500 
L 3675 769 
L 4391 3500 
L 4966 3500 
L 4050 0 
L 3372 0 
L 2619 2869 
L 1863 0 
L 1184 0 
L 269 3500 
z
" transform="scale(0.015625)"/>
       <path id="DejaVuSans-65" d="M 3597 1894 
L 3597 1613 
L 953 1613 
Q 991 1019 1311 708 
Q 1631 397 2203 397 
Q 2534 397 2845 478 
Q 3156 559 3463 722 
L 3463 178 
Q 3153 47 2828 -22 
Q 2503 -91 2169 -91 
Q 1331 -91 842 396 
Q 353 884 353 1716 
Q 353 2575 817 3079 
Q 1281 3584 2069 3584 
Q 2775 3584 3186 3129 
Q 3597 2675 3597 1894 
z
M 3022 2063 
Q 3016 2534 2758 2815 
Q 2500 3097 2075 3097 
Q 1594 3097 1305 2825 
Q 1016 2553 972 2059 
L 3022 2063 
z
" transform="scale(0.015625)"/>
       <path id="DejaVuSans-72" d="M 2631 2963 
Q 2534 3019 2420 3045 
Q 2306 3072 2169 3072 
Q 1681 3072 1420 2755 
Q 1159 2438 1159 1844 
L 1159 0 
L 581 0 
L 581 3500 
L 1159 3500 
L 1159 2956 
Q 1341 3275 1631 3429 
Q 1922 3584 2338 3584 
Q 2397 3584 2469 3576 
Q 2541 3569 2628 3553 
L 2631 2963 
z
" transform="scale(0.015625)"/>
       <path id="DejaVuSans-57" d="M 213 4666 
L 850 4666 
L 1831 722 
L 2809 4666 
L 3519 4666 
L 4500 722 
L 5478 4666 
L 6119 4666 
L 4947 0 
L 4153 0 
L 3169 4050 
L 2175 0 
L 1381 0 
L 213 4666 
z
" transform="scale(0.015625)"/>
      </defs>
      <use xlink:href="#DejaVuSans-55"/>
      <use xlink:href="#DejaVuSans-69" x="73.193359"/>
      <use xlink:href="#DejaVuSans-74" x="100.976562"/>
      <use xlink:href="#DejaVuSans-67" x="140.185547"/>
      <use xlink:href="#DejaVuSans-61" x="203.662109"/>
      <use xlink:href="#DejaVuSans-6e" x="264.941406"/>
      <use xlink:href="#DejaVuSans-67" x="328.320312"/>
      <use xlink:href="#DejaVuSans-73" x="391.796875"/>
      <use xlink:href="#DejaVuSans-70" x="443.896484"/>
      <use xlink:href="#DejaVuSans-6f" x="507.373047"/>
      <use xlink:href="#DejaVuSans-77" x="568.554688"/>
      <use xlink:href="#DejaVuSans-65" x="650.341797"/>
      <use xlink:href="#DejaVuSans-72" x="711.865234"/>
      <use xlink:href="#DejaVuSans-20" x="752.978516"/>
      <use xlink:href="#DejaVuSans-28" x="784.765625"/>
      <use xlink:href="#DejaVuSans-57" x="823.779297"/>
      <use xlink:href="#DejaVuSans-29" x="922.65625"/>
     </g>
    </g>
   </g>
   <g id="line2d_37">
    <path d="M 438.668392 217.286957 
L 439.198781 217.026722 
L 439.729169 216.247371 
L 440.259558 214.95296 
L 440.789947 213.150221 
L 441.850725 208.059875 
L 442.911503 201.082125 
L 443.97228 192.361992 
L 445.033058 182.080706 
L 446.624224 164.206826 
L 448.74578 137.126082 
L 454.049668 67.416495 
L 455.640835 49.949976 
L 456.701612 40.005449 
L 457.76239 31.666211 
L 458.823168 25.105576 
L 459.883945 20.459895 
L 460.414334 18.886951 
L 460.944723 17.825721 
L 461.475112 17.281726 
L 462.005501 17.257798 
L 462.53589 17.75406 
L 463.066278 18.76793 
L 463.596667 20.294135 
L 464.127056 22.324733 
L 465.187834 27.854284 
L 466.248612 35.241662 
L 467.309389 44.333335 
L 468.900556 60.74433 
L 470.491722 79.791706 
L 473.143666 114.943772 
L 476.326 157.109727 
L 477.917166 175.883979 
L 479.508333 191.922126 
L 480.56911 200.718254 
L 481.629888 207.779561 
L 482.690666 212.95929 
L 483.221054 214.808328 
L 483.751443 216.149792 
L 484.281832 216.976702 
L 484.812221 217.284756 
L 485.34261 217.072353 
L 485.872999 216.340596 
L 486.403387 215.093293 
L 486.933776 213.336934 
L 487.464165 211.080654 
L 488.524943 205.117831 
L 489.585721 197.32875 
L 490.646498 187.875291 
L 492.237665 171.012646 
L 493.828831 151.641194 
L 497.011164 109.062296 
L 499.663109 74.397726 
L 501.254275 55.984018 
L 502.845442 40.428811 
L 503.906219 32.011716 
L 504.966997 25.366045 
L 506.027775 20.629913 
L 506.558163 19.010298 
L 507.088552 17.901755 
L 507.618941 17.310052 
L 508.14933 17.238268 
L 508.679719 17.686775 
L 509.210108 18.653242 
L 509.740496 20.132638 
L 510.270885 22.117269 
L 511.331663 27.558357 
L 512.392441 34.863423 
L 513.453218 43.880644 
L 515.044385 60.198032 
L 516.635551 79.177293 
L 519.287496 114.280509 
L 522.469829 156.500312 
L 524.060995 175.345124 
L 525.652162 191.478974 
L 526.712939 200.350711 
L 527.773717 207.495265 
L 528.834495 212.76415 
L 529.364884 214.659406 
L 529.895272 216.047862 
L 530.425661 216.922295 
L 530.95605 217.278156 
L 531.486439 217.113593 
L 532.016828 216.429462 
L 532.547217 215.229323 
L 533.077605 213.519419 
L 533.607994 211.308647 
L 534.668772 205.433048 
L 535.72955 197.724639 
L 536.790327 188.343626 
L 538.381494 171.570982 
L 539.97266 152.26348 
L 542.624605 116.934054 
L 545.806938 74.998222 
L 547.398104 56.509906 
L 548.989271 40.855552 
L 550.050048 32.360971 
L 551.110826 25.630555 
L 552.171604 20.804181 
L 552.701993 19.137965 
L 553.232381 17.982158 
L 553.76277 17.342773 
L 554.293159 17.223136 
L 554.823548 17.62387 
L 555.353937 18.542889 
L 555.884326 19.975414 
L 556.414714 21.91399 
L 557.475492 27.266375 
L 558.53627 34.488807 
L 559.597048 43.43118 
L 561.188214 59.654244 
L 562.779381 78.564554 
L 565.431325 113.617376 
L 568.613658 155.88917 
L 570.204824 174.803714 
L 571.795991 191.032558 
L 572.856769 199.979513 
L 573.917546 207.206999 
L 574.978324 212.564807 
L 575.508713 214.506198 
L 576.039102 215.941586 
L 576.56949 216.863504 
L 577.099879 217.267155 
L 577.630268 217.15044 
L 578.160657 216.513965 
L 578.691046 215.361043 
L 579.221435 213.69767 
L 579.751823 211.532502 
L 580.812601 205.744385 
L 581.873379 198.116989 
L 582.934157 188.808833 
L 584.525323 172.126929 
L 586.11649 152.884225 
L 588.768434 117.597548 
L 591.950767 75.600576 
L 593.541933 57.038465 
L 595.1331 41.285654 
L 596.193878 32.71396 
L 597.254655 25.899094 
L 598.315433 20.982691 
L 598.845822 19.269949 
L 599.376211 18.066928 
L 599.906599 17.379889 
L 600.436988 17.212404 
L 600.967377 17.565346 
L 601.497766 18.436879 
L 602.028155 19.822468 
L 602.558544 21.714904 
L 603.619321 26.978351 
L 604.680099 34.117831 
L 605.740877 42.984962 
L 607.332043 59.112989 
L 608.92321 77.953517 
L 611.575154 112.954402 
L 614.757487 155.276328 
L 616.348654 174.259771 
L 617.93982 190.582896 
L 619.000598 199.604675 
L 620.061375 206.914776 
L 621.122153 212.361272 
L 621.652542 214.348712 
L 622.182931 215.830969 
L 622.71332 216.800331 
L 623.243708 217.251755 
L 623.774097 217.182893 
L 624.304486 216.594102 
L 624.834875 215.488447 
L 625.365264 213.871679 
L 625.895653 211.752209 
L 626.95643 206.05183 
L 628.017208 198.505781 
L 629.077986 189.270893 
L 630.669152 172.680461 
L 632.260319 153.503403 
L 634.912263 118.261026 
L 638.094596 76.204762 
L 639.685763 57.569673 
L 641.276929 41.719096 
L 642.337707 33.070667 
L 643.398484 26.171652 
L 644.459262 21.165435 
L 644.989651 19.406241 
L 645.52004 18.15606 
L 646.050429 17.421397 
L 646.580817 17.206072 
L 647.111206 17.511207 
L 647.641595 18.335214 
L 648.171984 19.673807 
L 648.702373 21.52002 
L 649.76315 26.694298 
L 650.823928 33.750512 
L 651.884706 42.542011 
L 652.945484 52.886081 
L 654.53665 70.835248 
L 656.658205 97.975945 
L 661.431705 161.252295 
L 663.022872 179.519037 
L 664.614038 194.88006 
L 665.674816 203.145862 
L 666.735593 209.626389 
L 667.796371 214.186955 
L 668.32676 215.716016 
L 668.857149 216.732779 
L 669.387538 217.231956 
L 669.917926 217.21095 
L 670.448315 216.669869 
L 670.978704 215.61153 
L 671.509093 214.041437 
L 672.039482 211.96776 
L 673.100259 206.355369 
L 674.161037 198.890999 
L 675.221815 189.729784 
L 676.812981 173.231556 
L 678.404148 154.120986 
L 681.056092 118.924459 
L 684.238425 76.810753 
L 685.829592 58.103505 
L 687.420758 42.155861 
L 688.481536 33.431076 
L 689.542314 26.448216 
L 690.603091 21.352405 
L 691.13348 19.546837 
L 691.663869 18.249551 
L 692.194258 17.467296 
L 692.724647 17.204141 
L 693.255035 17.461455 
L 693.785424 18.237901 
L 694.315813 19.529437 
L 694.846202 21.329346 
L 695.90698 26.414228 
L 696.967757 33.386865 
L 698.028535 42.102346 
L 699.089313 52.379535 
L 700.680479 70.248495 
L 702.802035 97.325304 
L 703.332423 104.443876 
L 703.332423 104.443876 
" clip-path="url(#p03caa759d5)" style="fill: none; stroke: #1f77b4; stroke-width: 1.5; stroke-linecap: square"/>
   </g>
   <g id="line2d_38">
    <path d="M 438.668392 117.245545 
L 703.332423 117.245545 
L 703.332423 117.245545 
" clip-path="url(#p03caa759d5)" style="fill: none; stroke: #ff7f0e; stroke-width: 1.5; stroke-linecap: square"/>
   </g>
   <g id="patch_8">
    <path d="M 425.43519 217.286957 
L 425.43519 7.2 
" style="fill: none; stroke: #000000; stroke-width: 0.8; stroke-linejoin: miter; stroke-linecap: square"/>
   </g>
   <g id="patch_9">
    <path d="M 716.565625 217.286957 
L 716.565625 7.2 
" style="fill: none; stroke: #000000; stroke-width: 0.8; stroke-linejoin: miter; stroke-linecap: square"/>
   </g>
   <g id="patch_10">
    <path d="M 425.43519 217.286957 
L 716.565625 217.286957 
" style="fill: none; stroke: #000000; stroke-width: 0.8; stroke-linejoin: miter; stroke-linecap: square"/>
   </g>
   <g id="patch_11">
    <path d="M 425.43519 7.2 
L 716.565625 7.2 
" style="fill: none; stroke: #000000; stroke-width: 0.8; stroke-linejoin: miter; stroke-linecap: square"/>
   </g>
  </g>
  <g id="axes_3">
   <g id="patch_12">
    <path d="M 46.965625 442.08 
L 338.09606 442.08 
L 338.09606 231.993043 
L 46.965625 231.993043 
z
" style="fill: #ffffff"/>
   </g>
   <g id="matplotlib.axis_5">
    <g id="xtick_17">
     <g id="line2d_39">
      <g>
       <use xlink:href="#m9cabde70da" x="60.198827" y="442.08" style="stroke: #000000; stroke-width: 0.8"/>
      </g>
     </g>
     <g id="text_21">
      <!-- 0.0 -->
      <g transform="translate(52.247264 456.678437)scale(0.1 -0.1)">
       <use xlink:href="#DejaVuSans-30"/>
       <use xlink:href="#DejaVuSans-2e" x="63.623047"/>
       <use xlink:href="#DejaVuSans-30" x="95.410156"/>
      </g>
     </g>
    </g>
    <g id="xtick_18">
     <g id="line2d_40">
      <g>
       <use xlink:href="#m9cabde70da" x="96.95772" y="442.08" style="stroke: #000000; stroke-width: 0.8"/>
      </g>
     </g>
     <g id="text_22">
      <!-- 2.5 -->
      <g transform="translate(89.006157 456.678437)scale(0.1 -0.1)">
       <use xlink:href="#DejaVuSans-32"/>
       <use xlink:href="#DejaVuSans-2e" x="63.623047"/>
       <use xlink:href="#DejaVuSans-35" x="95.410156"/>
      </g>
     </g>
    </g>
    <g id="xtick_19">
     <g id="line2d_41">
      <g>
       <use xlink:href="#m9cabde70da" x="133.716613" y="442.08" style="stroke: #000000; stroke-width: 0.8"/>
      </g>
     </g>
     <g id="text_23">
      <!-- 5.0 -->
      <g transform="translate(125.765051 456.678437)scale(0.1 -0.1)">
       <use xlink:href="#DejaVuSans-35"/>
       <use xlink:href="#DejaVuSans-2e" x="63.623047"/>
       <use xlink:href="#DejaVuSans-30" x="95.410156"/>
      </g>
     </g>
    </g>
    <g id="xtick_20">
     <g id="line2d_42">
      <g>
       <use xlink:href="#m9cabde70da" x="170.475506" y="442.08" style="stroke: #000000; stroke-width: 0.8"/>
      </g>
     </g>
     <g id="text_24">
      <!-- 7.5 -->
      <g transform="translate(162.523944 456.678437)scale(0.1 -0.1)">
       <use xlink:href="#DejaVuSans-37"/>
       <use xlink:href="#DejaVuSans-2e" x="63.623047"/>
       <use xlink:href="#DejaVuSans-35" x="95.410156"/>
      </g>
     </g>
    </g>
    <g id="xtick_21">
     <g id="line2d_43">
      <g>
       <use xlink:href="#m9cabde70da" x="207.2344" y="442.08" style="stroke: #000000; stroke-width: 0.8"/>
      </g>
     </g>
     <g id="text_25">
      <!-- 10.0 -->
      <g transform="translate(196.101587 456.678437)scale(0.1 -0.1)">
       <use xlink:href="#DejaVuSans-31"/>
       <use xlink:href="#DejaVuSans-30" x="63.623047"/>
       <use xlink:href="#DejaVuSans-2e" x="127.246094"/>
       <use xlink:href="#DejaVuSans-30" x="159.033203"/>
      </g>
     </g>
    </g>
    <g id="xtick_22">
     <g id="line2d_44">
      <g>
       <use xlink:href="#m9cabde70da" x="243.993293" y="442.08" style="stroke: #000000; stroke-width: 0.8"/>
      </g>
     </g>
     <g id="text_26">
      <!-- 12.5 -->
      <g transform="translate(232.86048 456.678437)scale(0.1 -0.1)">
       <use xlink:href="#DejaVuSans-31"/>
       <use xlink:href="#DejaVuSans-32" x="63.623047"/>
       <use xlink:href="#DejaVuSans-2e" x="127.246094"/>
       <use xlink:href="#DejaVuSans-35" x="159.033203"/>
      </g>
     </g>
    </g>
    <g id="xtick_23">
     <g id="line2d_45">
      <g>
       <use xlink:href="#m9cabde70da" x="280.752186" y="442.08" style="stroke: #000000; stroke-width: 0.8"/>
      </g>
     </g>
     <g id="text_27">
      <!-- 15.0 -->
      <g transform="translate(269.619374 456.678437)scale(0.1 -0.1)">
       <use xlink:href="#DejaVuSans-31"/>
       <use xlink:href="#DejaVuSans-35" x="63.623047"/>
       <use xlink:href="#DejaVuSans-2e" x="127.246094"/>
       <use xlink:href="#DejaVuSans-30" x="159.033203"/>
      </g>
     </g>
    </g>
    <g id="xtick_24">
     <g id="line2d_46">
      <g>
       <use xlink:href="#m9cabde70da" x="317.51108" y="442.08" style="stroke: #000000; stroke-width: 0.8"/>
      </g>
     </g>
     <g id="text_28">
      <!-- 17.5 -->
      <g transform="translate(306.378267 456.678437)scale(0.1 -0.1)">
       <use xlink:href="#DejaVuSans-31"/>
       <use xlink:href="#DejaVuSans-37" x="63.623047"/>
       <use xlink:href="#DejaVuSans-2e" x="127.246094"/>
       <use xlink:href="#DejaVuSans-35" x="159.033203"/>
      </g>
     </g>
    </g>
    <g id="text_29">
     <!-- Tijd*$\omega$  -->
     <g transform="translate(175.230842 470.358125)scale(0.1 -0.1)">
      <defs>
       <path id="DejaVuSans-54" d="M -19 4666 
L 3928 4666 
L 3928 4134 
L 2272 4134 
L 2272 0 
L 1638 0 
L 1638 4134 
L -19 4134 
L -19 4666 
z
" transform="scale(0.015625)"/>
       <path id="DejaVuSans-6a" d="M 603 3500 
L 1178 3500 
L 1178 -63 
Q 1178 -731 923 -1031 
Q 669 -1331 103 -1331 
L -116 -1331 
L -116 -844 
L 38 -844 
Q 366 -844 484 -692 
Q 603 -541 603 -63 
L 603 3500 
z
M 603 4863 
L 1178 4863 
L 1178 4134 
L 603 4134 
L 603 4863 
z
" transform="scale(0.015625)"/>
       <path id="DejaVuSans-64" d="M 2906 2969 
L 2906 4863 
L 3481 4863 
L 3481 0 
L 2906 0 
L 2906 525 
Q 2725 213 2448 61 
Q 2172 -91 1784 -91 
Q 1150 -91 751 415 
Q 353 922 353 1747 
Q 353 2572 751 3078 
Q 1150 3584 1784 3584 
Q 2172 3584 2448 3432 
Q 2725 3281 2906 2969 
z
M 947 1747 
Q 947 1113 1208 752 
Q 1469 391 1925 391 
Q 2381 391 2643 752 
Q 2906 1113 2906 1747 
Q 2906 2381 2643 2742 
Q 2381 3103 1925 3103 
Q 1469 3103 1208 2742 
Q 947 2381 947 1747 
z
" transform="scale(0.015625)"/>
       <path id="DejaVuSans-2a" d="M 3009 3897 
L 1888 3291 
L 3009 2681 
L 2828 2375 
L 1778 3009 
L 1778 1831 
L 1422 1831 
L 1422 3009 
L 372 2375 
L 191 2681 
L 1313 3291 
L 191 3897 
L 372 4206 
L 1422 3572 
L 1422 4750 
L 1778 4750 
L 1778 3572 
L 2828 4206 
L 3009 3897 
z
" transform="scale(0.015625)"/>
       <path id="DejaVuSans-Oblique-3c9" d="M 1369 -91 
Q 72 -91 434 1766 
Q 575 2500 1256 3500 
L 1875 3500 
Q 1231 2500 1088 1750 
Q 819 397 1519 397 
Q 2166 397 2478 2078 
L 3009 2078 
Q 2669 388 3316 397 
Q 4013 403 4275 1750 
Q 4419 2500 4169 3500 
L 4788 3500 
Q 5075 2500 4934 1766 
Q 4578 -94 3278 -91 
Q 2428 -88 2503 844 
Q 2194 -91 1369 -91 
z
" transform="scale(0.015625)"/>
      </defs>
      <use xlink:href="#DejaVuSans-54" transform="translate(0 0.015625)"/>
      <use xlink:href="#DejaVuSans-69" transform="translate(61.083984 0.015625)"/>
      <use xlink:href="#DejaVuSans-6a" transform="translate(88.867188 0.015625)"/>
      <use xlink:href="#DejaVuSans-64" transform="translate(116.650391 0.015625)"/>
      <use xlink:href="#DejaVuSans-2a" transform="translate(180.126953 0.015625)"/>
      <use xlink:href="#DejaVuSans-Oblique-3c9" transform="translate(230.126953 0.015625)"/>
      <use xlink:href="#DejaVuSans-20" transform="translate(313.867188 0.015625)"/>
     </g>
    </g>
   </g>
   <g id="matplotlib.axis_6">
    <g id="ytick_19">
     <g id="line2d_47">
      <g>
       <use xlink:href="#mc7c8f8d92e" x="46.965625" y="442.08" style="stroke: #000000; stroke-width: 0.8"/>
      </g>
     </g>
     <g id="text_30">
      <!-- 0.0 -->
      <g transform="translate(24.0625 445.879219)scale(0.1 -0.1)">
       <use xlink:href="#DejaVuSans-30"/>
       <use xlink:href="#DejaVuSans-2e" x="63.623047"/>
       <use xlink:href="#DejaVuSans-30" x="95.410156"/>
      </g>
     </g>
    </g>
    <g id="ytick_20">
     <g id="line2d_48">
      <g>
       <use xlink:href="#mc7c8f8d92e" x="46.965625" y="400.062609" style="stroke: #000000; stroke-width: 0.8"/>
      </g>
     </g>
     <g id="text_31">
      <!-- 0.2 -->
      <g transform="translate(24.0625 403.861827)scale(0.1 -0.1)">
       <use xlink:href="#DejaVuSans-30"/>
       <use xlink:href="#DejaVuSans-2e" x="63.623047"/>
       <use xlink:href="#DejaVuSans-32" x="95.410156"/>
      </g>
     </g>
    </g>
    <g id="ytick_21">
     <g id="line2d_49">
      <g>
       <use xlink:href="#mc7c8f8d92e" x="46.965625" y="358.045217" style="stroke: #000000; stroke-width: 0.8"/>
      </g>
     </g>
     <g id="text_32">
      <!-- 0.4 -->
      <g transform="translate(24.0625 361.844436)scale(0.1 -0.1)">
       <use xlink:href="#DejaVuSans-30"/>
       <use xlink:href="#DejaVuSans-2e" x="63.623047"/>
       <use xlink:href="#DejaVuSans-34" x="95.410156"/>
      </g>
     </g>
    </g>
    <g id="ytick_22">
     <g id="line2d_50">
      <g>
       <use xlink:href="#mc7c8f8d92e" x="46.965625" y="316.027826" style="stroke: #000000; stroke-width: 0.8"/>
      </g>
     </g>
     <g id="text_33">
      <!-- 0.6 -->
      <g transform="translate(24.0625 319.827045)scale(0.1 -0.1)">
       <use xlink:href="#DejaVuSans-30"/>
       <use xlink:href="#DejaVuSans-2e" x="63.623047"/>
       <use xlink:href="#DejaVuSans-36" x="95.410156"/>
      </g>
     </g>
    </g>
    <g id="ytick_23">
     <g id="line2d_51">
      <g>
       <use xlink:href="#mc7c8f8d92e" x="46.965625" y="274.010435" style="stroke: #000000; stroke-width: 0.8"/>
      </g>
     </g>
     <g id="text_34">
      <!-- 0.8 -->
      <g transform="translate(24.0625 277.809654)scale(0.1 -0.1)">
       <use xlink:href="#DejaVuSans-30"/>
       <use xlink:href="#DejaVuSans-2e" x="63.623047"/>
       <use xlink:href="#DejaVuSans-38" x="95.410156"/>
      </g>
     </g>
    </g>
    <g id="ytick_24">
     <g id="line2d_52">
      <g>
       <use xlink:href="#mc7c8f8d92e" x="46.965625" y="231.993043" style="stroke: #000000; stroke-width: 0.8"/>
      </g>
     </g>
     <g id="text_35">
      <!-- 1.0 -->
      <g transform="translate(24.0625 235.792262)scale(0.1 -0.1)">
       <use xlink:href="#DejaVuSans-31"/>
       <use xlink:href="#DejaVuSans-2e" x="63.623047"/>
       <use xlink:href="#DejaVuSans-30" x="95.410156"/>
      </g>
     </g>
    </g>
    <g id="text_36">
     <!-- Transistor collector current (A) -->
     <g transform="translate(17.982813 412.925584)rotate(-90)scale(0.1 -0.1)">
      <defs>
       <path id="DejaVuSans-63" d="M 3122 3366 
L 3122 2828 
Q 2878 2963 2633 3030 
Q 2388 3097 2138 3097 
Q 1578 3097 1268 2742 
Q 959 2388 959 1747 
Q 959 1106 1268 751 
Q 1578 397 2138 397 
Q 2388 397 2633 464 
Q 2878 531 3122 666 
L 3122 134 
Q 2881 22 2623 -34 
Q 2366 -91 2075 -91 
Q 1284 -91 818 406 
Q 353 903 353 1747 
Q 353 2603 823 3093 
Q 1294 3584 2113 3584 
Q 2378 3584 2631 3529 
Q 2884 3475 3122 3366 
z
" transform="scale(0.015625)"/>
       <path id="DejaVuSans-6c" d="M 603 4863 
L 1178 4863 
L 1178 0 
L 603 0 
L 603 4863 
z
" transform="scale(0.015625)"/>
       <path id="DejaVuSans-75" d="M 544 1381 
L 544 3500 
L 1119 3500 
L 1119 1403 
Q 1119 906 1312 657 
Q 1506 409 1894 409 
Q 2359 409 2629 706 
Q 2900 1003 2900 1516 
L 2900 3500 
L 3475 3500 
L 3475 0 
L 2900 0 
L 2900 538 
Q 2691 219 2414 64 
Q 2138 -91 1772 -91 
Q 1169 -91 856 284 
Q 544 659 544 1381 
z
M 1991 3584 
L 1991 3584 
z
" transform="scale(0.015625)"/>
       <path id="DejaVuSans-41" d="M 2188 4044 
L 1331 1722 
L 3047 1722 
L 2188 4044 
z
M 1831 4666 
L 2547 4666 
L 4325 0 
L 3669 0 
L 3244 1197 
L 1141 1197 
L 716 0 
L 50 0 
L 1831 4666 
z
" transform="scale(0.015625)"/>
      </defs>
      <use xlink:href="#DejaVuSans-54"/>
      <use xlink:href="#DejaVuSans-72" x="46.333984"/>
      <use xlink:href="#DejaVuSans-61" x="87.447266"/>
      <use xlink:href="#DejaVuSans-6e" x="148.726562"/>
      <use xlink:href="#DejaVuSans-73" x="212.105469"/>
      <use xlink:href="#DejaVuSans-69" x="264.205078"/>
      <use xlink:href="#DejaVuSans-73" x="291.988281"/>
      <use xlink:href="#DejaVuSans-74" x="344.087891"/>
      <use xlink:href="#DejaVuSans-6f" x="383.296875"/>
      <use xlink:href="#DejaVuSans-72" x="444.478516"/>
      <use xlink:href="#DejaVuSans-20" x="485.591797"/>
      <use xlink:href="#DejaVuSans-63" x="517.378906"/>
      <use xlink:href="#DejaVuSans-6f" x="572.359375"/>
      <use xlink:href="#DejaVuSans-6c" x="633.541016"/>
      <use xlink:href="#DejaVuSans-6c" x="661.324219"/>
      <use xlink:href="#DejaVuSans-65" x="689.107422"/>
      <use xlink:href="#DejaVuSans-63" x="750.630859"/>
      <use xlink:href="#DejaVuSans-74" x="805.611328"/>
      <use xlink:href="#DejaVuSans-6f" x="844.820312"/>
      <use xlink:href="#DejaVuSans-72" x="906.001953"/>
      <use xlink:href="#DejaVuSans-20" x="947.115234"/>
      <use xlink:href="#DejaVuSans-63" x="978.902344"/>
      <use xlink:href="#DejaVuSans-75" x="1033.882812"/>
      <use xlink:href="#DejaVuSans-72" x="1097.261719"/>
      <use xlink:href="#DejaVuSans-72" x="1136.625"/>
      <use xlink:href="#DejaVuSans-65" x="1175.488281"/>
      <use xlink:href="#DejaVuSans-6e" x="1237.011719"/>
      <use xlink:href="#DejaVuSans-74" x="1300.390625"/>
      <use xlink:href="#DejaVuSans-20" x="1339.599609"/>
      <use xlink:href="#DejaVuSans-28" x="1371.386719"/>
      <use xlink:href="#DejaVuSans-41" x="1410.400391"/>
      <use xlink:href="#DejaVuSans-29" x="1478.808594"/>
     </g>
    </g>
   </g>
   <g id="line2d_53">
    <path d="M 60.198827 442.08 
L 67.62427 442.08 
L 68.154659 435.750554 
L 70.276215 386.213644 
L 72.39777 342.204068 
L 73.988936 313.379292 
L 75.580103 288.518119 
L 77.171269 267.911409 
L 78.232047 256.658386 
L 79.292825 247.463011 
L 80.353603 240.373126 
L 81.41438 235.425615 
L 81.944769 233.763734 
L 82.475158 232.646219 
L 83.005547 232.074525 
L 83.535936 232.049396 
L 84.066324 232.570864 
L 84.596713 233.638252 
L 85.127102 235.25017 
L 85.657491 237.404521 
L 86.718269 243.328609 
L 87.779046 251.379695 
L 88.839824 261.515893 
L 89.900602 273.68447 
L 90.961379 287.822117 
L 92.552546 312.556993 
L 94.143712 341.265093 
L 95.734879 373.61055 
L 97.856434 421.73629 
L 98.386823 434.557443 
L 98.917212 442.08 
L 159.911929 442.08 
L 160.442318 438.143902 
L 162.563873 388.37688 
L 164.685428 344.092233 
L 166.276595 315.035057 
L 167.867761 289.922112 
L 169.458928 269.047205 
L 170.519705 257.6078 
L 171.580483 248.221106 
L 172.641261 240.935956 
L 173.702039 235.790253 
L 174.232427 234.028498 
L 174.762816 232.810766 
L 175.293205 232.138641 
L 175.823594 232.012998 
L 176.353983 232.433999 
L 176.884372 233.401097 
L 177.41476 234.913035 
L 177.945149 236.967844 
L 179.005927 242.694681 
L 180.066705 250.551814 
L 181.127482 260.498367 
L 182.18826 272.482592 
L 183.249038 286.44214 
L 184.840204 310.923609 
L 186.431371 339.39741 
L 188.022537 371.530419 
L 190.144093 419.411142 
L 190.674481 432.178413 
L 191.20487 442.08 
L 252.199587 442.08 
L 252.729976 440.546664 
L 254.851531 390.551719 
L 256.973087 345.993949 
L 258.564253 316.705651 
L 260.15542 291.342039 
L 261.746586 270.199853 
L 262.807364 258.57457 
L 263.868141 248.996968 
L 264.928919 241.516874 
L 265.989697 236.173204 
L 266.520086 234.311655 
L 267.050475 232.993759 
L 267.580863 232.221233 
L 268.111252 231.99508 
L 268.641641 232.315596 
L 269.17203 233.182363 
L 269.702419 234.594253 
L 270.232808 236.54943 
L 270.763196 239.045349 
L 271.823974 245.645728 
L 272.884752 254.36105 
L 273.945529 265.145973 
L 275.006307 277.944389 
L 276.597474 300.768879 
L 278.18864 327.704506 
L 279.779807 358.436139 
L 281.901362 404.689244 
L 283.492529 442.08 
L 324.862858 442.08 
L 324.862858 442.08 
" clip-path="url(#pef885363d6)" style="fill: none; stroke: #1f77b4; stroke-width: 1.5; stroke-linecap: square"/>
   </g>
   <g id="patch_13">
    <path d="M 46.965625 442.08 
L 46.965625 231.993043 
" style="fill: none; stroke: #000000; stroke-width: 0.8; stroke-linejoin: miter; stroke-linecap: square"/>
   </g>
   <g id="patch_14">
    <path d="M 338.09606 442.08 
L 338.09606 231.993043 
" style="fill: none; stroke: #000000; stroke-width: 0.8; stroke-linejoin: miter; stroke-linecap: square"/>
   </g>
   <g id="patch_15">
    <path d="M 46.965625 442.08 
L 338.09606 442.08 
" style="fill: none; stroke: #000000; stroke-width: 0.8; stroke-linejoin: miter; stroke-linecap: square"/>
   </g>
   <g id="patch_16">
    <path d="M 46.965625 231.993043 
L 338.09606 231.993043 
" style="fill: none; stroke: #000000; stroke-width: 0.8; stroke-linejoin: miter; stroke-linecap: square"/>
   </g>
  </g>
  <g id="axes_4">
   <g id="patch_17">
    <path d="M 425.43519 442.08 
L 716.565625 442.08 
L 716.565625 231.993043 
L 425.43519 231.993043 
z
" style="fill: #ffffff"/>
   </g>
   <g id="matplotlib.axis_7">
    <g id="xtick_25">
     <g id="line2d_54">
      <g>
       <use xlink:href="#m9cabde70da" x="438.668392" y="442.08" style="stroke: #000000; stroke-width: 0.8"/>
      </g>
     </g>
     <g id="text_37">
      <!-- 0.0 -->
      <g transform="translate(430.716829 456.678437)scale(0.1 -0.1)">
       <use xlink:href="#DejaVuSans-30"/>
       <use xlink:href="#DejaVuSans-2e" x="63.623047"/>
       <use xlink:href="#DejaVuSans-30" x="95.410156"/>
      </g>
     </g>
    </g>
    <g id="xtick_26">
     <g id="line2d_55">
      <g>
       <use xlink:href="#m9cabde70da" x="475.427285" y="442.08" style="stroke: #000000; stroke-width: 0.8"/>
      </g>
     </g>
     <g id="text_38">
      <!-- 2.5 -->
      <g transform="translate(467.475723 456.678437)scale(0.1 -0.1)">
       <use xlink:href="#DejaVuSans-32"/>
       <use xlink:href="#DejaVuSans-2e" x="63.623047"/>
       <use xlink:href="#DejaVuSans-35" x="95.410156"/>
      </g>
     </g>
    </g>
    <g id="xtick_27">
     <g id="line2d_56">
      <g>
       <use xlink:href="#m9cabde70da" x="512.186178" y="442.08" style="stroke: #000000; stroke-width: 0.8"/>
      </g>
     </g>
     <g id="text_39">
      <!-- 5.0 -->
      <g transform="translate(504.234616 456.678437)scale(0.1 -0.1)">
       <use xlink:href="#DejaVuSans-35"/>
       <use xlink:href="#DejaVuSans-2e" x="63.623047"/>
       <use xlink:href="#DejaVuSans-30" x="95.410156"/>
      </g>
     </g>
    </g>
    <g id="xtick_28">
     <g id="line2d_57">
      <g>
       <use xlink:href="#m9cabde70da" x="548.945072" y="442.08" style="stroke: #000000; stroke-width: 0.8"/>
      </g>
     </g>
     <g id="text_40">
      <!-- 7.5 -->
      <g transform="translate(540.993509 456.678437)scale(0.1 -0.1)">
       <use xlink:href="#DejaVuSans-37"/>
       <use xlink:href="#DejaVuSans-2e" x="63.623047"/>
       <use xlink:href="#DejaVuSans-35" x="95.410156"/>
      </g>
     </g>
    </g>
    <g id="xtick_29">
     <g id="line2d_58">
      <g>
       <use xlink:href="#m9cabde70da" x="585.703965" y="442.08" style="stroke: #000000; stroke-width: 0.8"/>
      </g>
     </g>
     <g id="text_41">
      <!-- 10.0 -->
      <g transform="translate(574.571152 456.678437)scale(0.1 -0.1)">
       <use xlink:href="#DejaVuSans-31"/>
       <use xlink:href="#DejaVuSans-30" x="63.623047"/>
       <use xlink:href="#DejaVuSans-2e" x="127.246094"/>
       <use xlink:href="#DejaVuSans-30" x="159.033203"/>
      </g>
     </g>
    </g>
    <g id="xtick_30">
     <g id="line2d_59">
      <g>
       <use xlink:href="#m9cabde70da" x="622.462858" y="442.08" style="stroke: #000000; stroke-width: 0.8"/>
      </g>
     </g>
     <g id="text_42">
      <!-- 12.5 -->
      <g transform="translate(611.330046 456.678437)scale(0.1 -0.1)">
       <use xlink:href="#DejaVuSans-31"/>
       <use xlink:href="#DejaVuSans-32" x="63.623047"/>
       <use xlink:href="#DejaVuSans-2e" x="127.246094"/>
       <use xlink:href="#DejaVuSans-35" x="159.033203"/>
      </g>
     </g>
    </g>
    <g id="xtick_31">
     <g id="line2d_60">
      <g>
       <use xlink:href="#m9cabde70da" x="659.221751" y="442.08" style="stroke: #000000; stroke-width: 0.8"/>
      </g>
     </g>
     <g id="text_43">
      <!-- 15.0 -->
      <g transform="translate(648.088939 456.678437)scale(0.1 -0.1)">
       <use xlink:href="#DejaVuSans-31"/>
       <use xlink:href="#DejaVuSans-35" x="63.623047"/>
       <use xlink:href="#DejaVuSans-2e" x="127.246094"/>
       <use xlink:href="#DejaVuSans-30" x="159.033203"/>
      </g>
     </g>
    </g>
    <g id="xtick_32">
     <g id="line2d_61">
      <g>
       <use xlink:href="#m9cabde70da" x="695.980645" y="442.08" style="stroke: #000000; stroke-width: 0.8"/>
      </g>
     </g>
     <g id="text_44">
      <!-- 17.5 -->
      <g transform="translate(684.847832 456.678437)scale(0.1 -0.1)">
       <use xlink:href="#DejaVuSans-31"/>
       <use xlink:href="#DejaVuSans-37" x="63.623047"/>
       <use xlink:href="#DejaVuSans-2e" x="127.246094"/>
       <use xlink:href="#DejaVuSans-35" x="159.033203"/>
      </g>
     </g>
    </g>
    <g id="text_45">
     <!-- Tijd*$\omega$  -->
     <g transform="translate(553.700408 470.358125)scale(0.1 -0.1)">
      <use xlink:href="#DejaVuSans-54" transform="translate(0 0.015625)"/>
      <use xlink:href="#DejaVuSans-69" transform="translate(61.083984 0.015625)"/>
      <use xlink:href="#DejaVuSans-6a" transform="translate(88.867188 0.015625)"/>
      <use xlink:href="#DejaVuSans-64" transform="translate(116.650391 0.015625)"/>
      <use xlink:href="#DejaVuSans-2a" transform="translate(180.126953 0.015625)"/>
      <use xlink:href="#DejaVuSans-Oblique-3c9" transform="translate(230.126953 0.015625)"/>
      <use xlink:href="#DejaVuSans-20" transform="translate(313.867188 0.015625)"/>
     </g>
    </g>
   </g>
   <g id="matplotlib.axis_8">
    <g id="ytick_25">
     <g id="line2d_62">
      <g>
       <use xlink:href="#mc7c8f8d92e" x="425.43519" y="442.08" style="stroke: #000000; stroke-width: 0.8"/>
      </g>
     </g>
     <g id="text_46">
      <!-- 0 -->
      <g transform="translate(412.07269 445.879219)scale(0.1 -0.1)">
       <use xlink:href="#DejaVuSans-30"/>
      </g>
     </g>
    </g>
    <g id="ytick_26">
     <g id="line2d_63">
      <g>
       <use xlink:href="#mc7c8f8d92e" x="425.43519" y="417.069406" style="stroke: #000000; stroke-width: 0.8"/>
      </g>
     </g>
     <g id="text_47">
      <!-- 10 -->
      <g transform="translate(405.71019 420.868624)scale(0.1 -0.1)">
       <use xlink:href="#DejaVuSans-31"/>
       <use xlink:href="#DejaVuSans-30" x="63.623047"/>
      </g>
     </g>
    </g>
    <g id="ytick_27">
     <g id="line2d_64">
      <g>
       <use xlink:href="#mc7c8f8d92e" x="425.43519" y="392.058811" style="stroke: #000000; stroke-width: 0.8"/>
      </g>
     </g>
     <g id="text_48">
      <!-- 20 -->
      <g transform="translate(405.71019 395.85803)scale(0.1 -0.1)">
       <use xlink:href="#DejaVuSans-32"/>
       <use xlink:href="#DejaVuSans-30" x="63.623047"/>
      </g>
     </g>
    </g>
    <g id="ytick_28">
     <g id="line2d_65">
      <g>
       <use xlink:href="#mc7c8f8d92e" x="425.43519" y="367.048217" style="stroke: #000000; stroke-width: 0.8"/>
      </g>
     </g>
     <g id="text_49">
      <!-- 30 -->
      <g transform="translate(405.71019 370.847435)scale(0.1 -0.1)">
       <defs>
        <path id="DejaVuSans-33" d="M 2597 2516 
Q 3050 2419 3304 2112 
Q 3559 1806 3559 1356 
Q 3559 666 3084 287 
Q 2609 -91 1734 -91 
Q 1441 -91 1130 -33 
Q 819 25 488 141 
L 488 750 
Q 750 597 1062 519 
Q 1375 441 1716 441 
Q 2309 441 2620 675 
Q 2931 909 2931 1356 
Q 2931 1769 2642 2001 
Q 2353 2234 1838 2234 
L 1294 2234 
L 1294 2753 
L 1863 2753 
Q 2328 2753 2575 2939 
Q 2822 3125 2822 3475 
Q 2822 3834 2567 4026 
Q 2313 4219 1838 4219 
Q 1578 4219 1281 4162 
Q 984 4106 628 3988 
L 628 4550 
Q 988 4650 1302 4700 
Q 1616 4750 1894 4750 
Q 2613 4750 3031 4423 
Q 3450 4097 3450 3541 
Q 3450 3153 3228 2886 
Q 3006 2619 2597 2516 
z
" transform="scale(0.015625)"/>
       </defs>
       <use xlink:href="#DejaVuSans-33"/>
       <use xlink:href="#DejaVuSans-30" x="63.623047"/>
      </g>
     </g>
    </g>
    <g id="ytick_29">
     <g id="line2d_66">
      <g>
       <use xlink:href="#mc7c8f8d92e" x="425.43519" y="342.037622" style="stroke: #000000; stroke-width: 0.8"/>
      </g>
     </g>
     <g id="text_50">
      <!-- 40 -->
      <g transform="translate(405.71019 345.836841)scale(0.1 -0.1)">
       <use xlink:href="#DejaVuSans-34"/>
       <use xlink:href="#DejaVuSans-30" x="63.623047"/>
      </g>
     </g>
    </g>
    <g id="ytick_30">
     <g id="line2d_67">
      <g>
       <use xlink:href="#mc7c8f8d92e" x="425.43519" y="317.027028" style="stroke: #000000; stroke-width: 0.8"/>
      </g>
     </g>
     <g id="text_51">
      <!-- 50 -->
      <g transform="translate(405.71019 320.826247)scale(0.1 -0.1)">
       <use xlink:href="#DejaVuSans-35"/>
       <use xlink:href="#DejaVuSans-30" x="63.623047"/>
      </g>
     </g>
    </g>
    <g id="ytick_31">
     <g id="line2d_68">
      <g>
       <use xlink:href="#mc7c8f8d92e" x="425.43519" y="292.016433" style="stroke: #000000; stroke-width: 0.8"/>
      </g>
     </g>
     <g id="text_52">
      <!-- 60 -->
      <g transform="translate(405.71019 295.815652)scale(0.1 -0.1)">
       <use xlink:href="#DejaVuSans-36"/>
       <use xlink:href="#DejaVuSans-30" x="63.623047"/>
      </g>
     </g>
    </g>
    <g id="ytick_32">
     <g id="line2d_69">
      <g>
       <use xlink:href="#mc7c8f8d92e" x="425.43519" y="267.005839" style="stroke: #000000; stroke-width: 0.8"/>
      </g>
     </g>
     <g id="text_53">
      <!-- 70 -->
      <g transform="translate(405.71019 270.805058)scale(0.1 -0.1)">
       <use xlink:href="#DejaVuSans-37"/>
       <use xlink:href="#DejaVuSans-30" x="63.623047"/>
      </g>
     </g>
    </g>
    <g id="ytick_33">
     <g id="line2d_70">
      <g>
       <use xlink:href="#mc7c8f8d92e" x="425.43519" y="241.995245" style="stroke: #000000; stroke-width: 0.8"/>
      </g>
     </g>
     <g id="text_54">
      <!-- 80 -->
      <g transform="translate(405.71019 245.794463)scale(0.1 -0.1)">
       <use xlink:href="#DejaVuSans-38"/>
       <use xlink:href="#DejaVuSans-30" x="63.623047"/>
      </g>
     </g>
    </g>
    <g id="text_55">
     <!-- DC power (W) -->
     <g transform="translate(399.630503 371.856053)rotate(-90)scale(0.1 -0.1)">
      <defs>
       <path id="DejaVuSans-44" d="M 1259 4147 
L 1259 519 
L 2022 519 
Q 2988 519 3436 956 
Q 3884 1394 3884 2338 
Q 3884 3275 3436 3711 
Q 2988 4147 2022 4147 
L 1259 4147 
z
M 628 4666 
L 1925 4666 
Q 3281 4666 3915 4102 
Q 4550 3538 4550 2338 
Q 4550 1131 3912 565 
Q 3275 0 1925 0 
L 628 0 
L 628 4666 
z
" transform="scale(0.015625)"/>
       <path id="DejaVuSans-43" d="M 4122 4306 
L 4122 3641 
Q 3803 3938 3442 4084 
Q 3081 4231 2675 4231 
Q 1875 4231 1450 3742 
Q 1025 3253 1025 2328 
Q 1025 1406 1450 917 
Q 1875 428 2675 428 
Q 3081 428 3442 575 
Q 3803 722 4122 1019 
L 4122 359 
Q 3791 134 3420 21 
Q 3050 -91 2638 -91 
Q 1578 -91 968 557 
Q 359 1206 359 2328 
Q 359 3453 968 4101 
Q 1578 4750 2638 4750 
Q 3056 4750 3426 4639 
Q 3797 4528 4122 4306 
z
" transform="scale(0.015625)"/>
      </defs>
      <use xlink:href="#DejaVuSans-44"/>
      <use xlink:href="#DejaVuSans-43" x="77.001953"/>
      <use xlink:href="#DejaVuSans-20" x="146.826172"/>
      <use xlink:href="#DejaVuSans-70" x="178.613281"/>
      <use xlink:href="#DejaVuSans-6f" x="242.089844"/>
      <use xlink:href="#DejaVuSans-77" x="303.271484"/>
      <use xlink:href="#DejaVuSans-65" x="385.058594"/>
      <use xlink:href="#DejaVuSans-72" x="446.582031"/>
      <use xlink:href="#DejaVuSans-20" x="487.695312"/>
      <use xlink:href="#DejaVuSans-28" x="519.482422"/>
      <use xlink:href="#DejaVuSans-57" x="558.496094"/>
      <use xlink:href="#DejaVuSans-29" x="657.373047"/>
     </g>
    </g>
   </g>
   <g id="line2d_71">
    <path d="M 438.668392 442.08 
L 446.093836 442.08 
L 446.624224 436.051898 
L 448.74578 388.873431 
L 450.867335 346.959143 
L 452.458502 319.506709 
L 454.049668 295.829172 
L 455.640835 276.203544 
L 456.701612 265.486274 
L 457.76239 256.72869 
L 458.823168 249.976353 
L 459.883945 245.264392 
L 460.414334 243.681632 
L 460.944723 242.617322 
L 461.475112 242.072847 
L 462.005501 242.048914 
L 462.53589 242.545555 
L 463.066278 243.562125 
L 463.596667 245.0973 
L 464.127056 247.149083 
L 465.187834 252.791126 
L 466.248612 260.458901 
L 467.309389 270.112517 
L 468.370167 281.70175 
L 469.430945 295.166306 
L 471.022111 318.72356 
L 472.613278 346.064872 
L 474.204444 376.870367 
L 476.326 422.70485 
L 476.856388 434.915591 
L 477.386777 442.08 
L 538.381494 442.08 
L 538.911883 438.331299 
L 541.033438 390.933676 
L 543.154993 348.757413 
L 544.74616 321.083643 
L 546.337327 297.166321 
L 547.928493 277.285264 
L 548.989271 266.390487 
L 550.050048 257.450692 
L 551.110826 250.512387 
L 552.171604 245.611669 
L 552.701993 243.933791 
L 553.232381 242.774036 
L 553.76277 242.13391 
L 554.293159 242.014249 
L 554.823548 242.415206 
L 555.353937 243.336261 
L 555.884326 244.776216 
L 556.414714 246.733196 
L 557.475492 252.187379 
L 558.53627 259.670436 
L 559.597048 269.143435 
L 560.657825 280.557093 
L 561.718603 293.85203 
L 563.309769 317.16794 
L 564.900936 344.286109 
L 566.492102 374.889272 
L 568.613658 420.490402 
L 569.144047 432.649826 
L 569.674436 442.08 
L 630.669152 442.08 
L 631.199541 440.619666 
L 633.321096 393.004971 
L 635.442652 350.568588 
L 637.033818 322.6747 
L 638.624985 298.518646 
L 640.216151 278.383035 
L 641.276929 267.311229 
L 642.337707 258.189615 
L 643.398484 251.065647 
L 644.459262 245.976389 
L 644.989651 244.203467 
L 645.52004 242.948316 
L 646.050429 242.21257 
L 646.580817 241.997184 
L 647.111206 242.30244 
L 647.641595 243.12794 
L 648.171984 244.472611 
L 648.702373 246.334702 
L 649.232762 248.711791 
L 650.293539 254.997927 
L 651.354317 263.298314 
L 652.415095 273.569769 
L 653.475872 285.758855 
L 655.067039 307.496675 
L 656.658205 333.149902 
L 658.249372 362.418408 
L 660.370927 406.469411 
L 661.962094 442.08 
L 703.332423 442.08 
L 703.332423 442.08 
" clip-path="url(#pf1ae35fc2f)" style="fill: none; stroke: #1f77b4; stroke-width: 1.5; stroke-linecap: square"/>
   </g>
   <g id="line2d_72">
    <path d="M 438.668392 398.462411 
L 703.332423 398.462411 
L 703.332423 398.462411 
" clip-path="url(#pf1ae35fc2f)" style="fill: none; stroke: #ff7f0e; stroke-width: 1.5; stroke-linecap: square"/>
   </g>
   <g id="patch_18">
    <path d="M 425.43519 442.08 
L 425.43519 231.993043 
" style="fill: none; stroke: #000000; stroke-width: 0.8; stroke-linejoin: miter; stroke-linecap: square"/>
   </g>
   <g id="patch_19">
    <path d="M 716.565625 442.08 
L 716.565625 231.993043 
" style="fill: none; stroke: #000000; stroke-width: 0.8; stroke-linejoin: miter; stroke-linecap: square"/>
   </g>
   <g id="patch_20">
    <path d="M 425.43519 442.08 
L 716.565625 442.08 
" style="fill: none; stroke: #000000; stroke-width: 0.8; stroke-linejoin: miter; stroke-linecap: square"/>
   </g>
   <g id="patch_21">
    <path d="M 425.43519 231.993043 
L 716.565625 231.993043 
" style="fill: none; stroke: #000000; stroke-width: 0.8; stroke-linejoin: miter; stroke-linecap: square"/>
   </g>
  </g>
 </g>
 <defs>
  <clipPath id="pfb7f6e0226">
   <rect x="46.965625" y="7.2" width="291.130435" height="210.086957"/>
  </clipPath>
  <clipPath id="p03caa759d5">
   <rect x="425.43519" y="7.2" width="291.130435" height="210.086957"/>
  </clipPath>
  <clipPath id="pef885363d6">
   <rect x="46.965625" y="231.993043" width="291.130435" height="210.086957"/>
  </clipPath>
  <clipPath id="pf1ae35fc2f">
   <rect x="425.43519" y="231.993043" width="291.130435" height="210.086957"/>
  </clipPath>
 </defs>
</svg>