<?xml version="1.0" encoding="utf-8" standalone="no"?>
<!DOCTYPE svg PUBLIC "-//W3C//DTD SVG 1.1//EN"
  "http://www.w3.org/Graphics/SVG/1.1/DTD/svg11.dtd">
<svg xmlns:xlink="http://www.w3.org/1999/xlink" width="723.765625pt" height="479.658125pt" viewBox="0 0 723.765625 479.658125" xmlns="http://www.w3.org/2000/svg" version="1.1">
 <metadata>
  <rdf:RDF xmlns:dc="http://purl.org/dc/elements/1.1/" xmlns:cc="http://creativecommons.org/ns#" xmlns:rdf="http://www.w3.org/1999/02/22-rdf-syntax-ns#">
   <cc:Work>
    <dc:type rdf:resource="http://purl.org/dc/dcmitype/StillImage"/>
    <dc:date>2022-11-04T22:29:16.440789</dc:date>
    <dc:format>image/svg+xml</dc:format>
    <dc:creator>
     <cc:Agent>
      <dc:title>Matplotlib v3.5.3, https://matplotlib.org/</dc:title>
     </cc:Agent>
    </dc:creator>
   </cc:Work>
  </rdf:RDF>
 </metadata>
 <defs>
  <style type="text/css">*{stroke-linejoin: round; stroke-linecap: butt}</style>
 </defs>
 <g id="figure_1">
  <g id="patch_1">
   <path d="M 0 479.658125 
L 723.765625 479.658125 
L 723.765625 0 
L 0 0 
L 0 479.658125 
z
" style="fill: none"/>
  </g>
  <g id="axes_1">
   <g id="patch_2">
    <path d="M 46.965625 217.286957 
L 351.329261 217.286957 
L 351.329261 7.2 
L 46.965625 7.2 
z
" style="fill: #ffffff"/>
   </g>
   <g id="matplotlib.axis_1">
    <g id="xtick_1">
     <g id="line2d_1">
      <defs>
       <path id="mc425057277" d="M 0 0 
L 0 3.5 
" style="stroke: #000000; stroke-width: 0.8"/>
      </defs>
      <g>
       <use xlink:href="#mc425057277" x="60.800336" y="217.286957" style="stroke: #000000; stroke-width: 0.8"/>
      </g>
     </g>
    </g>
    <g id="xtick_2">
     <g id="line2d_2">
      <g>
       <use xlink:href="#mc425057277" x="99.230088" y="217.286957" style="stroke: #000000; stroke-width: 0.8"/>
      </g>
     </g>
    </g>
    <g id="xtick_3">
     <g id="line2d_3">
      <g>
       <use xlink:href="#mc425057277" x="137.65984" y="217.286957" style="stroke: #000000; stroke-width: 0.8"/>
      </g>
     </g>
    </g>
    <g id="xtick_4">
     <g id="line2d_4">
      <g>
       <use xlink:href="#mc425057277" x="176.089592" y="217.286957" style="stroke: #000000; stroke-width: 0.8"/>
      </g>
     </g>
    </g>
    <g id="xtick_5">
     <g id="line2d_5">
      <g>
       <use xlink:href="#mc425057277" x="214.519344" y="217.286957" style="stroke: #000000; stroke-width: 0.8"/>
      </g>
     </g>
    </g>
    <g id="xtick_6">
     <g id="line2d_6">
      <g>
       <use xlink:href="#mc425057277" x="252.949096" y="217.286957" style="stroke: #000000; stroke-width: 0.8"/>
      </g>
     </g>
    </g>
    <g id="xtick_7">
     <g id="line2d_7">
      <g>
       <use xlink:href="#mc425057277" x="291.378848" y="217.286957" style="stroke: #000000; stroke-width: 0.8"/>
      </g>
     </g>
    </g>
    <g id="xtick_8">
     <g id="line2d_8">
      <g>
       <use xlink:href="#mc425057277" x="329.8086" y="217.286957" style="stroke: #000000; stroke-width: 0.8"/>
      </g>
     </g>
    </g>
   </g>
   <g id="matplotlib.axis_2">
    <g id="ytick_1">
     <g id="line2d_9">
      <defs>
       <path id="mba3e093514" d="M 0 0 
L -3.5 0 
" style="stroke: #000000; stroke-width: 0.8"/>
      </defs>
      <g>
       <use xlink:href="#mba3e093514" x="46.965625" y="217.286957" style="stroke: #000000; stroke-width: 0.8"/>
      </g>
     </g>
     <g id="text_1">
      <!-- 0 -->
      <g transform="translate(33.603125 221.086175)scale(0.1 -0.1)">
       <defs>
        <path id="DejaVuSans-30" d="M 2034 4250 
Q 1547 4250 1301 3770 
Q 1056 3291 1056 2328 
Q 1056 1369 1301 889 
Q 1547 409 2034 409 
Q 2525 409 2770 889 
Q 3016 1369 3016 2328 
Q 3016 3291 2770 3770 
Q 2525 4250 2034 4250 
z
M 2034 4750 
Q 2819 4750 3233 4129 
Q 3647 3509 3647 2328 
Q 3647 1150 3233 529 
Q 2819 -91 2034 -91 
Q 1250 -91 836 529 
Q 422 1150 422 2328 
Q 422 3509 836 4129 
Q 1250 4750 2034 4750 
z
" transform="scale(0.015625)"/>
       </defs>
       <use xlink:href="#DejaVuSans-30"/>
      </g>
     </g>
    </g>
    <g id="ytick_2">
     <g id="line2d_10">
      <g>
       <use xlink:href="#mba3e093514" x="46.965625" y="192.276601" style="stroke: #000000; stroke-width: 0.8"/>
      </g>
     </g>
     <g id="text_2">
      <!-- 20 -->
      <g transform="translate(27.240625 196.07582)scale(0.1 -0.1)">
       <defs>
        <path id="DejaVuSans-32" d="M 1228 531 
L 3431 531 
L 3431 0 
L 469 0 
L 469 531 
Q 828 903 1448 1529 
Q 2069 2156 2228 2338 
Q 2531 2678 2651 2914 
Q 2772 3150 2772 3378 
Q 2772 3750 2511 3984 
Q 2250 4219 1831 4219 
Q 1534 4219 1204 4116 
Q 875 4013 500 3803 
L 500 4441 
Q 881 4594 1212 4672 
Q 1544 4750 1819 4750 
Q 2544 4750 2975 4387 
Q 3406 4025 3406 3419 
Q 3406 3131 3298 2873 
Q 3191 2616 2906 2266 
Q 2828 2175 2409 1742 
Q 1991 1309 1228 531 
z
" transform="scale(0.015625)"/>
       </defs>
       <use xlink:href="#DejaVuSans-32"/>
       <use xlink:href="#DejaVuSans-30" x="63.623047"/>
      </g>
     </g>
    </g>
    <g id="ytick_3">
     <g id="line2d_11">
      <g>
       <use xlink:href="#mba3e093514" x="46.965625" y="167.266246" style="stroke: #000000; stroke-width: 0.8"/>
      </g>
     </g>
     <g id="text_3">
      <!-- 40 -->
      <g transform="translate(27.240625 171.065465)scale(0.1 -0.1)">
       <defs>
        <path id="DejaVuSans-34" d="M 2419 4116 
L 825 1625 
L 2419 1625 
L 2419 4116 
z
M 2253 4666 
L 3047 4666 
L 3047 1625 
L 3713 1625 
L 3713 1100 
L 3047 1100 
L 3047 0 
L 2419 0 
L 2419 1100 
L 313 1100 
L 313 1709 
L 2253 4666 
z
" transform="scale(0.015625)"/>
       </defs>
       <use xlink:href="#DejaVuSans-34"/>
       <use xlink:href="#DejaVuSans-30" x="63.623047"/>
      </g>
     </g>
    </g>
    <g id="ytick_4">
     <g id="line2d_12">
      <g>
       <use xlink:href="#mba3e093514" x="46.965625" y="142.255891" style="stroke: #000000; stroke-width: 0.8"/>
      </g>
     </g>
     <g id="text_4">
      <!-- 60 -->
      <g transform="translate(27.240625 146.05511)scale(0.1 -0.1)">
       <defs>
        <path id="DejaVuSans-36" d="M 2113 2584 
Q 1688 2584 1439 2293 
Q 1191 2003 1191 1497 
Q 1191 994 1439 701 
Q 1688 409 2113 409 
Q 2538 409 2786 701 
Q 3034 994 3034 1497 
Q 3034 2003 2786 2293 
Q 2538 2584 2113 2584 
z
M 3366 4563 
L 3366 3988 
Q 3128 4100 2886 4159 
Q 2644 4219 2406 4219 
Q 1781 4219 1451 3797 
Q 1122 3375 1075 2522 
Q 1259 2794 1537 2939 
Q 1816 3084 2150 3084 
Q 2853 3084 3261 2657 
Q 3669 2231 3669 1497 
Q 3669 778 3244 343 
Q 2819 -91 2113 -91 
Q 1303 -91 875 529 
Q 447 1150 447 2328 
Q 447 3434 972 4092 
Q 1497 4750 2381 4750 
Q 2619 4750 2861 4703 
Q 3103 4656 3366 4563 
z
" transform="scale(0.015625)"/>
       </defs>
       <use xlink:href="#DejaVuSans-36"/>
       <use xlink:href="#DejaVuSans-30" x="63.623047"/>
      </g>
     </g>
    </g>
    <g id="ytick_5">
     <g id="line2d_13">
      <g>
       <use xlink:href="#mba3e093514" x="46.965625" y="117.245536" style="stroke: #000000; stroke-width: 0.8"/>
      </g>
     </g>
     <g id="text_5">
      <!-- 80 -->
      <g transform="translate(27.240625 121.044755)scale(0.1 -0.1)">
       <defs>
        <path id="DejaVuSans-38" d="M 2034 2216 
Q 1584 2216 1326 1975 
Q 1069 1734 1069 1313 
Q 1069 891 1326 650 
Q 1584 409 2034 409 
Q 2484 409 2743 651 
Q 3003 894 3003 1313 
Q 3003 1734 2745 1975 
Q 2488 2216 2034 2216 
z
M 1403 2484 
Q 997 2584 770 2862 
Q 544 3141 544 3541 
Q 544 4100 942 4425 
Q 1341 4750 2034 4750 
Q 2731 4750 3128 4425 
Q 3525 4100 3525 3541 
Q 3525 3141 3298 2862 
Q 3072 2584 2669 2484 
Q 3125 2378 3379 2068 
Q 3634 1759 3634 1313 
Q 3634 634 3220 271 
Q 2806 -91 2034 -91 
Q 1263 -91 848 271 
Q 434 634 434 1313 
Q 434 1759 690 2068 
Q 947 2378 1403 2484 
z
M 1172 3481 
Q 1172 3119 1398 2916 
Q 1625 2713 2034 2713 
Q 2441 2713 2670 2916 
Q 2900 3119 2900 3481 
Q 2900 3844 2670 4047 
Q 2441 4250 2034 4250 
Q 1625 4250 1398 4047 
Q 1172 3844 1172 3481 
z
" transform="scale(0.015625)"/>
       </defs>
       <use xlink:href="#DejaVuSans-38"/>
       <use xlink:href="#DejaVuSans-30" x="63.623047"/>
      </g>
     </g>
    </g>
    <g id="ytick_6">
     <g id="line2d_14">
      <g>
       <use xlink:href="#mba3e093514" x="46.965625" y="92.235181" style="stroke: #000000; stroke-width: 0.8"/>
      </g>
     </g>
     <g id="text_6">
      <!-- 100 -->
      <g transform="translate(20.878125 96.0344)scale(0.1 -0.1)">
       <defs>
        <path id="DejaVuSans-31" d="M 794 531 
L 1825 531 
L 1825 4091 
L 703 3866 
L 703 4441 
L 1819 4666 
L 2450 4666 
L 2450 531 
L 3481 531 
L 3481 0 
L 794 0 
L 794 531 
z
" transform="scale(0.015625)"/>
       </defs>
       <use xlink:href="#DejaVuSans-31"/>
       <use xlink:href="#DejaVuSans-30" x="63.623047"/>
       <use xlink:href="#DejaVuSans-30" x="127.246094"/>
      </g>
     </g>
    </g>
    <g id="ytick_7">
     <g id="line2d_15">
      <g>
       <use xlink:href="#mba3e093514" x="46.965625" y="67.224826" style="stroke: #000000; stroke-width: 0.8"/>
      </g>
     </g>
     <g id="text_7">
      <!-- 120 -->
      <g transform="translate(20.878125 71.024045)scale(0.1 -0.1)">
       <use xlink:href="#DejaVuSans-31"/>
       <use xlink:href="#DejaVuSans-32" x="63.623047"/>
       <use xlink:href="#DejaVuSans-30" x="127.246094"/>
      </g>
     </g>
    </g>
    <g id="ytick_8">
     <g id="line2d_16">
      <g>
       <use xlink:href="#mba3e093514" x="46.965625" y="42.214471" style="stroke: #000000; stroke-width: 0.8"/>
      </g>
     </g>
     <g id="text_8">
      <!-- 140 -->
      <g transform="translate(20.878125 46.01369)scale(0.1 -0.1)">
       <use xlink:href="#DejaVuSans-31"/>
       <use xlink:href="#DejaVuSans-34" x="63.623047"/>
       <use xlink:href="#DejaVuSans-30" x="127.246094"/>
      </g>
     </g>
    </g>
    <g id="ytick_9">
     <g id="line2d_17">
      <g>
       <use xlink:href="#mba3e093514" x="46.965625" y="17.204116" style="stroke: #000000; stroke-width: 0.8"/>
      </g>
     </g>
     <g id="text_9">
      <!-- 160 -->
      <g transform="translate(20.878125 21.003334)scale(0.1 -0.1)">
       <use xlink:href="#DejaVuSans-31"/>
       <use xlink:href="#DejaVuSans-36" x="63.623047"/>
       <use xlink:href="#DejaVuSans-30" x="127.246094"/>
      </g>
     </g>
    </g>
    <g id="text_10">
     <!-- Uitgangsspanning (V) -->
     <g transform="translate(14.798438 166.261447)rotate(-90)scale(0.1 -0.1)">
      <defs>
       <path id="DejaVuSans-55" d="M 556 4666 
L 1191 4666 
L 1191 1831 
Q 1191 1081 1462 751 
Q 1734 422 2344 422 
Q 2950 422 3222 751 
Q 3494 1081 3494 1831 
L 3494 4666 
L 4128 4666 
L 4128 1753 
Q 4128 841 3676 375 
Q 3225 -91 2344 -91 
Q 1459 -91 1007 375 
Q 556 841 556 1753 
L 556 4666 
z
" transform="scale(0.015625)"/>
       <path id="DejaVuSans-69" d="M 603 3500 
L 1178 3500 
L 1178 0 
L 603 0 
L 603 3500 
z
M 603 4863 
L 1178 4863 
L 1178 4134 
L 603 4134 
L 603 4863 
z
" transform="scale(0.015625)"/>
       <path id="DejaVuSans-74" d="M 1172 4494 
L 1172 3500 
L 2356 3500 
L 2356 3053 
L 1172 3053 
L 1172 1153 
Q 1172 725 1289 603 
Q 1406 481 1766 481 
L 2356 481 
L 2356 0 
L 1766 0 
Q 1100 0 847 248 
Q 594 497 594 1153 
L 594 3053 
L 172 3053 
L 172 3500 
L 594 3500 
L 594 4494 
L 1172 4494 
z
" transform="scale(0.015625)"/>
       <path id="DejaVuSans-67" d="M 2906 1791 
Q 2906 2416 2648 2759 
Q 2391 3103 1925 3103 
Q 1463 3103 1205 2759 
Q 947 2416 947 1791 
Q 947 1169 1205 825 
Q 1463 481 1925 481 
Q 2391 481 2648 825 
Q 2906 1169 2906 1791 
z
M 3481 434 
Q 3481 -459 3084 -895 
Q 2688 -1331 1869 -1331 
Q 1566 -1331 1297 -1286 
Q 1028 -1241 775 -1147 
L 775 -588 
Q 1028 -725 1275 -790 
Q 1522 -856 1778 -856 
Q 2344 -856 2625 -561 
Q 2906 -266 2906 331 
L 2906 616 
Q 2728 306 2450 153 
Q 2172 0 1784 0 
Q 1141 0 747 490 
Q 353 981 353 1791 
Q 353 2603 747 3093 
Q 1141 3584 1784 3584 
Q 2172 3584 2450 3431 
Q 2728 3278 2906 2969 
L 2906 3500 
L 3481 3500 
L 3481 434 
z
" transform="scale(0.015625)"/>
       <path id="DejaVuSans-61" d="M 2194 1759 
Q 1497 1759 1228 1600 
Q 959 1441 959 1056 
Q 959 750 1161 570 
Q 1363 391 1709 391 
Q 2188 391 2477 730 
Q 2766 1069 2766 1631 
L 2766 1759 
L 2194 1759 
z
M 3341 1997 
L 3341 0 
L 2766 0 
L 2766 531 
Q 2569 213 2275 61 
Q 1981 -91 1556 -91 
Q 1019 -91 701 211 
Q 384 513 384 1019 
Q 384 1609 779 1909 
Q 1175 2209 1959 2209 
L 2766 2209 
L 2766 2266 
Q 2766 2663 2505 2880 
Q 2244 3097 1772 3097 
Q 1472 3097 1187 3025 
Q 903 2953 641 2809 
L 641 3341 
Q 956 3463 1253 3523 
Q 1550 3584 1831 3584 
Q 2591 3584 2966 3190 
Q 3341 2797 3341 1997 
z
" transform="scale(0.015625)"/>
       <path id="DejaVuSans-6e" d="M 3513 2113 
L 3513 0 
L 2938 0 
L 2938 2094 
Q 2938 2591 2744 2837 
Q 2550 3084 2163 3084 
Q 1697 3084 1428 2787 
Q 1159 2491 1159 1978 
L 1159 0 
L 581 0 
L 581 3500 
L 1159 3500 
L 1159 2956 
Q 1366 3272 1645 3428 
Q 1925 3584 2291 3584 
Q 2894 3584 3203 3211 
Q 3513 2838 3513 2113 
z
" transform="scale(0.015625)"/>
       <path id="DejaVuSans-73" d="M 2834 3397 
L 2834 2853 
Q 2591 2978 2328 3040 
Q 2066 3103 1784 3103 
Q 1356 3103 1142 2972 
Q 928 2841 928 2578 
Q 928 2378 1081 2264 
Q 1234 2150 1697 2047 
L 1894 2003 
Q 2506 1872 2764 1633 
Q 3022 1394 3022 966 
Q 3022 478 2636 193 
Q 2250 -91 1575 -91 
Q 1294 -91 989 -36 
Q 684 19 347 128 
L 347 722 
Q 666 556 975 473 
Q 1284 391 1588 391 
Q 1994 391 2212 530 
Q 2431 669 2431 922 
Q 2431 1156 2273 1281 
Q 2116 1406 1581 1522 
L 1381 1569 
Q 847 1681 609 1914 
Q 372 2147 372 2553 
Q 372 3047 722 3315 
Q 1072 3584 1716 3584 
Q 2034 3584 2315 3537 
Q 2597 3491 2834 3397 
z
" transform="scale(0.015625)"/>
       <path id="DejaVuSans-70" d="M 1159 525 
L 1159 -1331 
L 581 -1331 
L 581 3500 
L 1159 3500 
L 1159 2969 
Q 1341 3281 1617 3432 
Q 1894 3584 2278 3584 
Q 2916 3584 3314 3078 
Q 3713 2572 3713 1747 
Q 3713 922 3314 415 
Q 2916 -91 2278 -91 
Q 1894 -91 1617 61 
Q 1341 213 1159 525 
z
M 3116 1747 
Q 3116 2381 2855 2742 
Q 2594 3103 2138 3103 
Q 1681 3103 1420 2742 
Q 1159 2381 1159 1747 
Q 1159 1113 1420 752 
Q 1681 391 2138 391 
Q 2594 391 2855 752 
Q 3116 1113 3116 1747 
z
" transform="scale(0.015625)"/>
       <path id="DejaVuSans-20" transform="scale(0.015625)"/>
       <path id="DejaVuSans-28" d="M 1984 4856 
Q 1566 4138 1362 3434 
Q 1159 2731 1159 2009 
Q 1159 1288 1364 580 
Q 1569 -128 1984 -844 
L 1484 -844 
Q 1016 -109 783 600 
Q 550 1309 550 2009 
Q 550 2706 781 3412 
Q 1013 4119 1484 4856 
L 1984 4856 
z
" transform="scale(0.015625)"/>
       <path id="DejaVuSans-56" d="M 1831 0 
L 50 4666 
L 709 4666 
L 2188 738 
L 3669 4666 
L 4325 4666 
L 2547 0 
L 1831 0 
z
" transform="scale(0.015625)"/>
       <path id="DejaVuSans-29" d="M 513 4856 
L 1013 4856 
Q 1481 4119 1714 3412 
Q 1947 2706 1947 2009 
Q 1947 1309 1714 600 
Q 1481 -109 1013 -844 
L 513 -844 
Q 928 -128 1133 580 
Q 1338 1288 1338 2009 
Q 1338 2731 1133 3434 
Q 928 4138 513 4856 
z
" transform="scale(0.015625)"/>
      </defs>
      <use xlink:href="#DejaVuSans-55"/>
      <use xlink:href="#DejaVuSans-69" x="73.193359"/>
      <use xlink:href="#DejaVuSans-74" x="100.976562"/>
      <use xlink:href="#DejaVuSans-67" x="140.185547"/>
      <use xlink:href="#DejaVuSans-61" x="203.662109"/>
      <use xlink:href="#DejaVuSans-6e" x="264.941406"/>
      <use xlink:href="#DejaVuSans-67" x="328.320312"/>
      <use xlink:href="#DejaVuSans-73" x="391.796875"/>
      <use xlink:href="#DejaVuSans-73" x="443.896484"/>
      <use xlink:href="#DejaVuSans-70" x="495.996094"/>
      <use xlink:href="#DejaVuSans-61" x="559.472656"/>
      <use xlink:href="#DejaVuSans-6e" x="620.751953"/>
      <use xlink:href="#DejaVuSans-6e" x="684.130859"/>
      <use xlink:href="#DejaVuSans-69" x="747.509766"/>
      <use xlink:href="#DejaVuSans-6e" x="775.292969"/>
      <use xlink:href="#DejaVuSans-67" x="838.671875"/>
      <use xlink:href="#DejaVuSans-20" x="902.148438"/>
      <use xlink:href="#DejaVuSans-28" x="933.935547"/>
      <use xlink:href="#DejaVuSans-56" x="972.949219"/>
      <use xlink:href="#DejaVuSans-29" x="1041.357422"/>
     </g>
    </g>
   </g>
   <g id="line2d_18">
    <path d="M 60.800336 117.245536 
L 65.790813 149.156391 
L 68.5633 165.647197 
L 70.781289 177.733368 
L 72.999279 188.562415 
L 74.662771 195.722706 
L 76.326264 201.964863 
L 77.989756 207.215857 
L 79.098751 210.135037 
L 80.207746 212.570955 
L 81.31674 214.510938 
L 82.425735 215.944895 
L 83.53473 216.865364 
L 84.089228 217.131439 
L 84.643725 217.267556 
L 85.198222 217.273539 
L 85.75272 217.14938 
L 86.307217 216.89524 
L 87.416212 215.998509 
L 88.525207 214.588012 
L 89.634202 212.671087 
L 90.743197 210.257706 
L 91.852192 207.360425 
L 93.515684 202.140835 
L 95.179176 195.928022 
L 96.842668 188.794674 
L 99.060658 177.997275 
L 101.278648 165.937266 
L 104.051135 149.470632 
L 107.932617 124.787538 
L 114.586586 82.246574 
L 117.359073 66.002455 
L 119.577063 54.180492 
L 121.795052 43.669216 
L 123.458545 36.778469 
L 125.122037 30.829136 
L 126.785529 25.89082 
L 127.894524 23.189325 
L 129.003519 20.977162 
L 130.112514 19.265839 
L 131.221509 18.064259 
L 132.330504 17.378673 
L 132.885001 17.230599 
L 133.439498 17.21265 
L 133.993996 17.324849 
L 134.548493 17.567051 
L 135.657488 18.440034 
L 136.766483 19.827057 
L 137.875478 21.720903 
L 138.984473 24.11172 
L 140.093467 26.98707 
L 141.202462 30.331993 
L 142.865955 36.191115 
L 144.529447 42.998522 
L 146.192939 50.674573 
L 148.410929 62.103978 
L 150.628919 74.679396 
L 153.401406 91.610256 
L 158.391882 123.794771 
L 162.827862 151.933523 
L 165.600349 168.203413 
L 167.818339 180.052705 
L 170.036328 190.59667 
L 171.699821 197.515046 
L 173.363313 203.494319 
L 175.026805 208.464536 
L 176.1358 211.188204 
L 177.244795 213.423132 
L 178.35379 215.157691 
L 179.462785 216.382859 
L 180.571779 217.092261 
L 181.126277 217.25229 
L 181.680774 217.282206 
L 182.235272 217.181967 
L 182.789769 216.951706 
L 183.898764 216.10248 
L 185.007759 214.738947 
L 186.116754 212.868201 
L 187.225749 210.499974 
L 188.334743 207.646587 
L 189.443738 204.322884 
L 191.107231 198.493962 
L 192.770723 191.714485 
L 194.434215 184.063768 
L 196.652205 172.663594 
L 198.870194 160.111662 
L 201.642682 143.201346 
L 206.633158 111.027372 
L 211.069138 82.868906 
L 213.841625 66.573424 
L 216.059615 54.696933 
L 218.277604 44.120395 
L 219.941097 37.174466 
L 221.604589 31.165318 
L 223.268081 26.163255 
L 224.377076 23.417444 
L 225.486071 21.159777 
L 226.595066 19.402 
L 227.704061 18.153258 
L 228.813055 17.420048 
L 229.367553 17.248064 
L 229.92205 17.206184 
L 230.476548 17.29446 
L 231.031045 17.512778 
L 232.14004 18.338237 
L 233.249035 19.678265 
L 234.35803 21.525891 
L 235.467024 23.871502 
L 236.576019 26.702895 
L 237.685014 30.00534 
L 239.348506 35.803998 
L 241.011999 42.555471 
L 242.675491 50.180771 
L 244.893481 61.551587 
L 247.11147 74.079897 
L 249.883958 90.969483 
L 254.874434 123.132561 
L 259.310414 151.310432 
L 262.082901 167.631326 
L 264.300891 179.534886 
L 266.51888 190.14388 
L 268.182373 197.117286 
L 269.845865 203.156241 
L 271.509357 208.190096 
L 272.618352 210.958021 
L 273.727347 213.238403 
L 274.836342 215.019378 
L 275.945336 216.29168 
L 277.054331 217.048691 
L 277.608829 217.232626 
L 278.163326 217.286472 
L 278.717824 217.210158 
L 279.272321 217.003785 
L 280.381316 216.202103 
L 281.490311 214.885594 
L 282.599306 213.061109 
L 283.7083 210.73814 
L 284.817295 207.928772 
L 285.92629 204.64762 
L 287.589782 198.87929 
L 289.253275 192.155896 
L 290.916767 184.556098 
L 293.134757 173.214763 
L 295.352746 160.710215 
L 298.125233 143.841545 
L 303.11571 111.689716 
L 307.55169 83.49275 
L 310.324177 67.146622 
L 312.542167 55.216124 
L 314.760156 44.57479 
L 316.423648 37.573985 
L 318.087141 31.505288 
L 319.750633 26.439697 
L 320.859628 23.649689 
L 321.968623 21.346618 
L 323.077618 19.542465 
L 324.186612 18.246616 
L 325.295607 17.465813 
L 325.850105 17.269928 
L 326.404602 17.204118 
L 326.9591 17.268467 
L 327.513597 17.462892 
L 328.068094 17.787141 
L 329.177089 18.823251 
L 330.286084 20.371407 
L 331.395079 22.423555 
L 332.504074 24.969018 
L 333.613069 27.994554 
L 335.276561 33.397897 
L 336.940053 39.782206 
L 337.494551 42.115705 
L 337.494551 42.115705 
" clip-path="url(#pb12f0743af)" style="fill: none; stroke: #1f77b4; stroke-width: 1.5; stroke-linecap: square"/>
   </g>
   <g id="line2d_19">
    <path d="M 60.800336 117.245536 
L 337.494551 117.245536 
L 337.494551 117.245536 
" clip-path="url(#pb12f0743af)" style="fill: none; stroke: #ff7f0e; stroke-width: 1.5; stroke-linecap: square"/>
   </g>
   <g id="patch_3">
    <path d="M 46.965625 217.286957 
L 46.965625 7.2 
" style="fill: none; stroke: #000000; stroke-width: 0.8; stroke-linejoin: miter; stroke-linecap: square"/>
   </g>
   <g id="patch_4">
    <path d="M 351.329261 217.286957 
L 351.329261 7.2 
" style="fill: none; stroke: #000000; stroke-width: 0.8; stroke-linejoin: miter; stroke-linecap: square"/>
   </g>
   <g id="patch_5">
    <path d="M 46.965625 217.286957 
L 351.329261 217.286957 
" style="fill: none; stroke: #000000; stroke-width: 0.8; stroke-linejoin: miter; stroke-linecap: square"/>
   </g>
   <g id="patch_6">
    <path d="M 46.965625 7.2 
L 351.329261 7.2 
" style="fill: none; stroke: #000000; stroke-width: 0.8; stroke-linejoin: miter; stroke-linecap: square"/>
   </g>
  </g>
  <g id="axes_2">
   <g id="patch_7">
    <path d="M 412.201989 217.286957 
L 716.565625 217.286957 
L 716.565625 7.2 
L 412.201989 7.2 
z
" style="fill: #ffffff"/>
   </g>
   <g id="matplotlib.axis_3">
    <g id="xtick_9">
     <g id="line2d_20">
      <g>
       <use xlink:href="#mc425057277" x="426.036699" y="217.286957" style="stroke: #000000; stroke-width: 0.8"/>
      </g>
     </g>
    </g>
    <g id="xtick_10">
     <g id="line2d_21">
      <g>
       <use xlink:href="#mc425057277" x="464.466451" y="217.286957" style="stroke: #000000; stroke-width: 0.8"/>
      </g>
     </g>
    </g>
    <g id="xtick_11">
     <g id="line2d_22">
      <g>
       <use xlink:href="#mc425057277" x="502.896204" y="217.286957" style="stroke: #000000; stroke-width: 0.8"/>
      </g>
     </g>
    </g>
    <g id="xtick_12">
     <g id="line2d_23">
      <g>
       <use xlink:href="#mc425057277" x="541.325956" y="217.286957" style="stroke: #000000; stroke-width: 0.8"/>
      </g>
     </g>
    </g>
    <g id="xtick_13">
     <g id="line2d_24">
      <g>
       <use xlink:href="#mc425057277" x="579.755708" y="217.286957" style="stroke: #000000; stroke-width: 0.8"/>
      </g>
     </g>
    </g>
    <g id="xtick_14">
     <g id="line2d_25">
      <g>
       <use xlink:href="#mc425057277" x="618.18546" y="217.286957" style="stroke: #000000; stroke-width: 0.8"/>
      </g>
     </g>
    </g>
    <g id="xtick_15">
     <g id="line2d_26">
      <g>
       <use xlink:href="#mc425057277" x="656.615212" y="217.286957" style="stroke: #000000; stroke-width: 0.8"/>
      </g>
     </g>
    </g>
    <g id="xtick_16">
     <g id="line2d_27">
      <g>
       <use xlink:href="#mc425057277" x="695.044964" y="217.286957" style="stroke: #000000; stroke-width: 0.8"/>
      </g>
     </g>
    </g>
   </g>
   <g id="matplotlib.axis_4">
    <g id="ytick_10">
     <g id="line2d_28">
      <g>
       <use xlink:href="#mba3e093514" x="412.201989" y="217.286957" style="stroke: #000000; stroke-width: 0.8"/>
      </g>
     </g>
     <g id="text_11">
      <!-- 0.0 -->
      <g transform="translate(389.298864 221.086175)scale(0.1 -0.1)">
       <defs>
        <path id="DejaVuSans-2e" d="M 684 794 
L 1344 794 
L 1344 0 
L 684 0 
L 684 794 
z
" transform="scale(0.015625)"/>
       </defs>
       <use xlink:href="#DejaVuSans-30"/>
       <use xlink:href="#DejaVuSans-2e" x="63.623047"/>
       <use xlink:href="#DejaVuSans-30" x="95.410156"/>
      </g>
     </g>
    </g>
    <g id="ytick_11">
     <g id="line2d_29">
      <g>
       <use xlink:href="#mba3e093514" x="412.201989" y="192.276604" style="stroke: #000000; stroke-width: 0.8"/>
      </g>
     </g>
     <g id="text_12">
      <!-- 2.5 -->
      <g transform="translate(389.298864 196.075822)scale(0.1 -0.1)">
       <defs>
        <path id="DejaVuSans-35" d="M 691 4666 
L 3169 4666 
L 3169 4134 
L 1269 4134 
L 1269 2991 
Q 1406 3038 1543 3061 
Q 1681 3084 1819 3084 
Q 2600 3084 3056 2656 
Q 3513 2228 3513 1497 
Q 3513 744 3044 326 
Q 2575 -91 1722 -91 
Q 1428 -91 1123 -41 
Q 819 9 494 109 
L 494 744 
Q 775 591 1075 516 
Q 1375 441 1709 441 
Q 2250 441 2565 725 
Q 2881 1009 2881 1497 
Q 2881 1984 2565 2268 
Q 2250 2553 1709 2553 
Q 1456 2553 1204 2497 
Q 953 2441 691 2322 
L 691 4666 
z
" transform="scale(0.015625)"/>
       </defs>
       <use xlink:href="#DejaVuSans-32"/>
       <use xlink:href="#DejaVuSans-2e" x="63.623047"/>
       <use xlink:href="#DejaVuSans-35" x="95.410156"/>
      </g>
     </g>
    </g>
    <g id="ytick_12">
     <g id="line2d_30">
      <g>
       <use xlink:href="#mba3e093514" x="412.201989" y="167.266251" style="stroke: #000000; stroke-width: 0.8"/>
      </g>
     </g>
     <g id="text_13">
      <!-- 5.0 -->
      <g transform="translate(389.298864 171.065469)scale(0.1 -0.1)">
       <use xlink:href="#DejaVuSans-35"/>
       <use xlink:href="#DejaVuSans-2e" x="63.623047"/>
       <use xlink:href="#DejaVuSans-30" x="95.410156"/>
      </g>
     </g>
    </g>
    <g id="ytick_13">
     <g id="line2d_31">
      <g>
       <use xlink:href="#mba3e093514" x="412.201989" y="142.255898" style="stroke: #000000; stroke-width: 0.8"/>
      </g>
     </g>
     <g id="text_14">
      <!-- 7.5 -->
      <g transform="translate(389.298864 146.055116)scale(0.1 -0.1)">
       <defs>
        <path id="DejaVuSans-37" d="M 525 4666 
L 3525 4666 
L 3525 4397 
L 1831 0 
L 1172 0 
L 2766 4134 
L 525 4134 
L 525 4666 
z
" transform="scale(0.015625)"/>
       </defs>
       <use xlink:href="#DejaVuSans-37"/>
       <use xlink:href="#DejaVuSans-2e" x="63.623047"/>
       <use xlink:href="#DejaVuSans-35" x="95.410156"/>
      </g>
     </g>
    </g>
    <g id="ytick_14">
     <g id="line2d_32">
      <g>
       <use xlink:href="#mba3e093514" x="412.201989" y="117.245545" style="stroke: #000000; stroke-width: 0.8"/>
      </g>
     </g>
     <g id="text_15">
      <!-- 10.0 -->
      <g transform="translate(382.936364 121.044763)scale(0.1 -0.1)">
       <use xlink:href="#DejaVuSans-31"/>
       <use xlink:href="#DejaVuSans-30" x="63.623047"/>
       <use xlink:href="#DejaVuSans-2e" x="127.246094"/>
       <use xlink:href="#DejaVuSans-30" x="159.033203"/>
      </g>
     </g>
    </g>
    <g id="ytick_15">
     <g id="line2d_33">
      <g>
       <use xlink:href="#mba3e093514" x="412.201989" y="92.235192" style="stroke: #000000; stroke-width: 0.8"/>
      </g>
     </g>
     <g id="text_16">
      <!-- 12.5 -->
      <g transform="translate(382.936364 96.03441)scale(0.1 -0.1)">
       <use xlink:href="#DejaVuSans-31"/>
       <use xlink:href="#DejaVuSans-32" x="63.623047"/>
       <use xlink:href="#DejaVuSans-2e" x="127.246094"/>
       <use xlink:href="#DejaVuSans-35" x="159.033203"/>
      </g>
     </g>
    </g>
    <g id="ytick_16">
     <g id="line2d_34">
      <g>
       <use xlink:href="#mba3e093514" x="412.201989" y="67.224839" style="stroke: #000000; stroke-width: 0.8"/>
      </g>
     </g>
     <g id="text_17">
      <!-- 15.0 -->
      <g transform="translate(382.936364 71.024057)scale(0.1 -0.1)">
       <use xlink:href="#DejaVuSans-31"/>
       <use xlink:href="#DejaVuSans-35" x="63.623047"/>
       <use xlink:href="#DejaVuSans-2e" x="127.246094"/>
       <use xlink:href="#DejaVuSans-30" x="159.033203"/>
      </g>
     </g>
    </g>
    <g id="ytick_17">
     <g id="line2d_35">
      <g>
       <use xlink:href="#mba3e093514" x="412.201989" y="42.214486" style="stroke: #000000; stroke-width: 0.8"/>
      </g>
     </g>
     <g id="text_18">
      <!-- 17.5 -->
      <g transform="translate(382.936364 46.013704)scale(0.1 -0.1)">
       <use xlink:href="#DejaVuSans-31"/>
       <use xlink:href="#DejaVuSans-37" x="63.623047"/>
       <use xlink:href="#DejaVuSans-2e" x="127.246094"/>
       <use xlink:href="#DejaVuSans-35" x="159.033203"/>
      </g>
     </g>
    </g>
    <g id="ytick_18">
     <g id="line2d_36">
      <g>
       <use xlink:href="#mba3e093514" x="412.201989" y="17.204133" style="stroke: #000000; stroke-width: 0.8"/>
      </g>
     </g>
     <g id="text_19">
      <!-- 20.0 -->
      <g transform="translate(382.936364 21.003351)scale(0.1 -0.1)">
       <use xlink:href="#DejaVuSans-32"/>
       <use xlink:href="#DejaVuSans-30" x="63.623047"/>
       <use xlink:href="#DejaVuSans-2e" x="127.246094"/>
       <use xlink:href="#DejaVuSans-30" x="159.033203"/>
      </g>
     </g>
    </g>
    <g id="text_20">
     <!-- Uitgangspower (W) -->
     <g transform="translate(376.856676 160.327072)rotate(-90)scale(0.1 -0.1)">
      <defs>
       <path id="DejaVuSans-6f" d="M 1959 3097 
Q 1497 3097 1228 2736 
Q 959 2375 959 1747 
Q 959 1119 1226 758 
Q 1494 397 1959 397 
Q 2419 397 2687 759 
Q 2956 1122 2956 1747 
Q 2956 2369 2687 2733 
Q 2419 3097 1959 3097 
z
M 1959 3584 
Q 2709 3584 3137 3096 
Q 3566 2609 3566 1747 
Q 3566 888 3137 398 
Q 2709 -91 1959 -91 
Q 1206 -91 779 398 
Q 353 888 353 1747 
Q 353 2609 779 3096 
Q 1206 3584 1959 3584 
z
" transform="scale(0.015625)"/>
       <path id="DejaVuSans-77" d="M 269 3500 
L 844 3500 
L 1563 769 
L 2278 3500 
L 2956 3500 
L 3675 769 
L 4391 3500 
L 4966 3500 
L 4050 0 
L 3372 0 
L 2619 2869 
L 1863 0 
L 1184 0 
L 269 3500 
z
" transform="scale(0.015625)"/>
       <path id="DejaVuSans-65" d="M 3597 1894 
L 3597 1613 
L 953 1613 
Q 991 1019 1311 708 
Q 1631 397 2203 397 
Q 2534 397 2845 478 
Q 3156 559 3463 722 
L 3463 178 
Q 3153 47 2828 -22 
Q 2503 -91 2169 -91 
Q 1331 -91 842 396 
Q 353 884 353 1716 
Q 353 2575 817 3079 
Q 1281 3584 2069 3584 
Q 2775 3584 3186 3129 
Q 3597 2675 3597 1894 
z
M 3022 2063 
Q 3016 2534 2758 2815 
Q 2500 3097 2075 3097 
Q 1594 3097 1305 2825 
Q 1016 2553 972 2059 
L 3022 2063 
z
" transform="scale(0.015625)"/>
       <path id="DejaVuSans-72" d="M 2631 2963 
Q 2534 3019 2420 3045 
Q 2306 3072 2169 3072 
Q 1681 3072 1420 2755 
Q 1159 2438 1159 1844 
L 1159 0 
L 581 0 
L 581 3500 
L 1159 3500 
L 1159 2956 
Q 1341 3275 1631 3429 
Q 1922 3584 2338 3584 
Q 2397 3584 2469 3576 
Q 2541 3569 2628 3553 
L 2631 2963 
z
" transform="scale(0.015625)"/>
       <path id="DejaVuSans-57" d="M 213 4666 
L 850 4666 
L 1831 722 
L 2809 4666 
L 3519 4666 
L 4500 722 
L 5478 4666 
L 6119 4666 
L 4947 0 
L 4153 0 
L 3169 4050 
L 2175 0 
L 1381 0 
L 213 4666 
z
" transform="scale(0.015625)"/>
      </defs>
      <use xlink:href="#DejaVuSans-55"/>
      <use xlink:href="#DejaVuSans-69" x="73.193359"/>
      <use xlink:href="#DejaVuSans-74" x="100.976562"/>
      <use xlink:href="#DejaVuSans-67" x="140.185547"/>
      <use xlink:href="#DejaVuSans-61" x="203.662109"/>
      <use xlink:href="#DejaVuSans-6e" x="264.941406"/>
      <use xlink:href="#DejaVuSans-67" x="328.320312"/>
      <use xlink:href="#DejaVuSans-73" x="391.796875"/>
      <use xlink:href="#DejaVuSans-70" x="443.896484"/>
      <use xlink:href="#DejaVuSans-6f" x="507.373047"/>
      <use xlink:href="#DejaVuSans-77" x="568.554688"/>
      <use xlink:href="#DejaVuSans-65" x="650.341797"/>
      <use xlink:href="#DejaVuSans-72" x="711.865234"/>
      <use xlink:href="#DejaVuSans-20" x="752.978516"/>
      <use xlink:href="#DejaVuSans-28" x="784.765625"/>
      <use xlink:href="#DejaVuSans-57" x="823.779297"/>
      <use xlink:href="#DejaVuSans-29" x="922.65625"/>
     </g>
    </g>
   </g>
   <g id="line2d_37">
    <path d="M 426.036699 217.286957 
L 426.591197 217.026722 
L 427.145694 216.247371 
L 427.700192 214.95296 
L 428.254689 213.150221 
L 428.809187 210.848535 
L 429.918181 204.79875 
L 431.027176 196.929338 
L 432.136171 187.40385 
L 433.799663 170.451944 
L 435.463156 151.017396 
L 438.79014 108.401209 
L 441.562627 73.799115 
L 443.22612 55.460825 
L 444.889612 40.005449 
L 445.998607 31.666211 
L 447.107602 25.105576 
L 448.216596 20.459895 
L 448.771094 18.886951 
L 449.325591 17.825721 
L 449.880089 17.281726 
L 450.434586 17.257798 
L 450.989083 17.75406 
L 451.543581 18.76793 
L 452.098078 20.294135 
L 452.652576 22.324733 
L 453.761571 27.854284 
L 454.870565 35.241662 
L 455.97956 44.333335 
L 457.643053 60.74433 
L 459.306545 79.791706 
L 462.079032 114.943772 
L 465.406017 157.109727 
L 467.069509 175.883979 
L 468.733001 191.922126 
L 469.841996 200.718254 
L 470.950991 207.779561 
L 472.059986 212.95929 
L 472.614483 214.808328 
L 473.16898 216.149792 
L 473.723478 216.976702 
L 474.277975 217.284756 
L 474.832473 217.072353 
L 475.38697 216.340596 
L 475.941468 215.093293 
L 476.495965 213.336934 
L 477.050462 211.080654 
L 478.159457 205.117831 
L 479.268452 197.32875 
L 480.377447 187.875291 
L 482.040939 171.012646 
L 483.704432 151.641194 
L 486.476919 116.270574 
L 489.803903 74.397726 
L 491.467395 55.984018 
L 493.130888 40.428811 
L 494.239883 32.011716 
L 495.348877 25.366045 
L 496.457872 20.629913 
L 497.01237 19.010298 
L 497.566867 17.901755 
L 498.121365 17.310052 
L 498.675862 17.238268 
L 499.230359 17.686775 
L 499.784857 18.653242 
L 500.339354 20.132638 
L 500.893852 22.117269 
L 502.002847 27.558357 
L 503.111841 34.863423 
L 504.220836 43.880644 
L 505.329831 54.422615 
L 506.993323 72.607652 
L 509.211313 99.932841 
L 514.20179 163.031029 
L 515.865282 181.064437 
L 516.974277 191.478974 
L 518.083272 200.350711 
L 519.192267 207.495265 
L 520.301262 212.76415 
L 520.855759 214.659406 
L 521.410256 216.047862 
L 521.964754 216.922295 
L 522.519251 217.278156 
L 523.073749 217.113593 
L 523.628246 216.429462 
L 524.182744 215.229323 
L 524.737241 213.519419 
L 525.291738 211.308647 
L 526.400733 205.433048 
L 527.509728 197.724639 
L 528.618723 188.343626 
L 530.282215 171.570982 
L 531.945707 152.26348 
L 534.718195 116.934054 
L 538.045179 74.998222 
L 539.708671 56.509906 
L 541.372164 40.855552 
L 542.481159 32.360971 
L 543.590153 25.630555 
L 544.699148 20.804181 
L 545.253646 19.137965 
L 545.808143 17.982158 
L 546.362641 17.342773 
L 546.917138 17.223136 
L 547.471635 17.62387 
L 548.026133 18.542889 
L 548.58063 19.975414 
L 549.135128 21.91399 
L 550.244122 27.266375 
L 551.353117 34.488807 
L 552.462112 43.43118 
L 553.571107 53.907644 
L 555.234599 72.014853 
L 557.452589 99.279743 
L 562.443066 162.440097 
L 564.106558 180.552081 
L 565.215553 191.032558 
L 566.324548 199.979513 
L 567.433543 207.206999 
L 568.542538 212.564807 
L 569.097035 214.506198 
L 569.651532 215.941586 
L 570.20603 216.863504 
L 570.760527 217.267155 
L 571.315025 217.15044 
L 571.869522 216.513965 
L 572.424019 215.361043 
L 572.978517 213.69767 
L 573.533014 211.532502 
L 574.642009 205.744385 
L 575.751004 198.116989 
L 576.859999 188.808833 
L 578.523491 172.126929 
L 580.186983 152.884225 
L 582.959471 117.597548 
L 586.286455 75.600576 
L 587.949947 57.038465 
L 589.61344 41.285654 
L 590.722434 32.71396 
L 591.831429 25.899094 
L 592.940424 20.982691 
L 593.494922 19.269949 
L 594.049419 18.066928 
L 594.603916 17.379889 
L 595.158414 17.212404 
L 595.712911 17.565346 
L 596.267409 18.436879 
L 596.821906 19.822468 
L 597.376404 21.714904 
L 598.485398 26.978351 
L 599.594393 34.117831 
L 600.703388 42.984962 
L 601.812383 53.395458 
L 603.475875 71.424043 
L 605.693865 98.627435 
L 610.684342 161.847177 
L 612.347834 180.03694 
L 614.011326 195.296818 
L 615.120321 203.484055 
L 616.229316 209.878989 
L 617.338311 214.348712 
L 617.892808 215.830969 
L 618.447306 216.800331 
L 619.001803 217.251755 
L 619.556301 217.182893 
L 620.110798 216.594102 
L 620.665295 215.488447 
L 621.219793 213.871679 
L 621.77429 211.752209 
L 622.883285 206.05183 
L 623.99228 198.505781 
L 625.101275 189.270893 
L 626.764767 172.680461 
L 628.428259 153.503403 
L 631.200746 118.261026 
L 634.527731 76.204762 
L 636.191223 57.569673 
L 637.854716 41.719096 
L 638.96371 33.070667 
L 640.072705 26.171652 
L 641.1817 21.165435 
L 641.736198 19.406241 
L 642.290695 18.15606 
L 642.845192 17.421397 
L 643.39969 17.206072 
L 643.954187 17.511207 
L 644.508685 18.335214 
L 645.063182 19.673807 
L 645.61768 21.52002 
L 646.172177 23.864249 
L 647.281172 29.995444 
L 648.390167 37.939966 
L 649.499161 47.532704 
L 651.162654 64.567741 
L 652.826146 84.060756 
L 656.153131 126.710247 
L 658.925618 161.252295 
L 660.58911 179.519037 
L 662.252602 194.88006 
L 663.361597 203.145862 
L 664.470592 209.626389 
L 665.579587 214.186955 
L 666.134084 215.716016 
L 666.688582 216.732779 
L 667.243079 217.231956 
L 667.797577 217.21095 
L 668.352074 216.669869 
L 668.906571 215.61153 
L 669.461069 214.041437 
L 670.015566 211.96776 
L 671.124561 206.355369 
L 672.233556 198.890999 
L 673.342551 189.729784 
L 675.006043 173.231556 
L 676.669535 154.120986 
L 679.442022 118.924459 
L 682.769007 76.810753 
L 684.432499 58.103505 
L 686.095992 42.155861 
L 687.204986 33.431076 
L 688.313981 26.448216 
L 689.422976 21.352405 
L 689.977473 19.546837 
L 690.531971 18.249551 
L 691.086468 17.467296 
L 691.640966 17.204141 
L 692.195463 17.461455 
L 692.749961 18.237901 
L 693.304458 19.529437 
L 693.858955 21.329346 
L 694.413453 23.628263 
L 695.522448 29.672746 
L 696.631443 37.537263 
L 697.740437 47.058365 
L 699.40393 64.004841 
L 701.067422 83.435561 
L 702.730914 104.443876 
L 702.730914 104.443876 
" clip-path="url(#p7991ac1b4e)" style="fill: none; stroke: #1f77b4; stroke-width: 1.5; stroke-linecap: square"/>
   </g>
   <g id="line2d_38">
    <path d="M 426.036699 117.245545 
L 702.730914 117.245545 
L 702.730914 117.245545 
" clip-path="url(#p7991ac1b4e)" style="fill: none; stroke: #ff7f0e; stroke-width: 1.5; stroke-linecap: square"/>
   </g>
   <g id="patch_8">
    <path d="M 412.201989 217.286957 
L 412.201989 7.2 
" style="fill: none; stroke: #000000; stroke-width: 0.8; stroke-linejoin: miter; stroke-linecap: square"/>
   </g>
   <g id="patch_9">
    <path d="M 716.565625 217.286957 
L 716.565625 7.2 
" style="fill: none; stroke: #000000; stroke-width: 0.8; stroke-linejoin: miter; stroke-linecap: square"/>
   </g>
   <g id="patch_10">
    <path d="M 412.201989 217.286957 
L 716.565625 217.286957 
" style="fill: none; stroke: #000000; stroke-width: 0.8; stroke-linejoin: miter; stroke-linecap: square"/>
   </g>
   <g id="patch_11">
    <path d="M 412.201989 7.2 
L 716.565625 7.2 
" style="fill: none; stroke: #000000; stroke-width: 0.8; stroke-linejoin: miter; stroke-linecap: square"/>
   </g>
  </g>
  <g id="axes_3">
   <g id="patch_12">
    <path d="M 46.965625 442.08 
L 351.329261 442.08 
L 351.329261 231.993043 
L 46.965625 231.993043 
z
" style="fill: #ffffff"/>
   </g>
   <g id="matplotlib.axis_5">
    <g id="xtick_17">
     <g id="line2d_39">
      <g>
       <use xlink:href="#mc425057277" x="60.800336" y="442.08" style="stroke: #000000; stroke-width: 0.8"/>
      </g>
     </g>
     <g id="text_21">
      <!-- 0.0 -->
      <g transform="translate(52.848773 456.678437)scale(0.1 -0.1)">
       <use xlink:href="#DejaVuSans-30"/>
       <use xlink:href="#DejaVuSans-2e" x="63.623047"/>
       <use xlink:href="#DejaVuSans-30" x="95.410156"/>
      </g>
     </g>
    </g>
    <g id="xtick_18">
     <g id="line2d_40">
      <g>
       <use xlink:href="#mc425057277" x="99.230088" y="442.08" style="stroke: #000000; stroke-width: 0.8"/>
      </g>
     </g>
     <g id="text_22">
      <!-- 2.5 -->
      <g transform="translate(91.278525 456.678437)scale(0.1 -0.1)">
       <use xlink:href="#DejaVuSans-32"/>
       <use xlink:href="#DejaVuSans-2e" x="63.623047"/>
       <use xlink:href="#DejaVuSans-35" x="95.410156"/>
      </g>
     </g>
    </g>
    <g id="xtick_19">
     <g id="line2d_41">
      <g>
       <use xlink:href="#mc425057277" x="137.65984" y="442.08" style="stroke: #000000; stroke-width: 0.8"/>
      </g>
     </g>
     <g id="text_23">
      <!-- 5.0 -->
      <g transform="translate(129.708277 456.678437)scale(0.1 -0.1)">
       <use xlink:href="#DejaVuSans-35"/>
       <use xlink:href="#DejaVuSans-2e" x="63.623047"/>
       <use xlink:href="#DejaVuSans-30" x="95.410156"/>
      </g>
     </g>
    </g>
    <g id="xtick_20">
     <g id="line2d_42">
      <g>
       <use xlink:href="#mc425057277" x="176.089592" y="442.08" style="stroke: #000000; stroke-width: 0.8"/>
      </g>
     </g>
     <g id="text_24">
      <!-- 7.5 -->
      <g transform="translate(168.138029 456.678437)scale(0.1 -0.1)">
       <use xlink:href="#DejaVuSans-37"/>
       <use xlink:href="#DejaVuSans-2e" x="63.623047"/>
       <use xlink:href="#DejaVuSans-35" x="95.410156"/>
      </g>
     </g>
    </g>
    <g id="xtick_21">
     <g id="line2d_43">
      <g>
       <use xlink:href="#mc425057277" x="214.519344" y="442.08" style="stroke: #000000; stroke-width: 0.8"/>
      </g>
     </g>
     <g id="text_25">
      <!-- 10.0 -->
      <g transform="translate(203.386532 456.678437)scale(0.1 -0.1)">
       <use xlink:href="#DejaVuSans-31"/>
       <use xlink:href="#DejaVuSans-30" x="63.623047"/>
       <use xlink:href="#DejaVuSans-2e" x="127.246094"/>
       <use xlink:href="#DejaVuSans-30" x="159.033203"/>
      </g>
     </g>
    </g>
    <g id="xtick_22">
     <g id="line2d_44">
      <g>
       <use xlink:href="#mc425057277" x="252.949096" y="442.08" style="stroke: #000000; stroke-width: 0.8"/>
      </g>
     </g>
     <g id="text_26">
      <!-- 12.5 -->
      <g transform="translate(241.816284 456.678437)scale(0.1 -0.1)">
       <use xlink:href="#DejaVuSans-31"/>
       <use xlink:href="#DejaVuSans-32" x="63.623047"/>
       <use xlink:href="#DejaVuSans-2e" x="127.246094"/>
       <use xlink:href="#DejaVuSans-35" x="159.033203"/>
      </g>
     </g>
    </g>
    <g id="xtick_23">
     <g id="line2d_45">
      <g>
       <use xlink:href="#mc425057277" x="291.378848" y="442.08" style="stroke: #000000; stroke-width: 0.8"/>
      </g>
     </g>
     <g id="text_27">
      <!-- 15.0 -->
      <g transform="translate(280.246036 456.678437)scale(0.1 -0.1)">
       <use xlink:href="#DejaVuSans-31"/>
       <use xlink:href="#DejaVuSans-35" x="63.623047"/>
       <use xlink:href="#DejaVuSans-2e" x="127.246094"/>
       <use xlink:href="#DejaVuSans-30" x="159.033203"/>
      </g>
     </g>
    </g>
    <g id="xtick_24">
     <g id="line2d_46">
      <g>
       <use xlink:href="#mc425057277" x="329.8086" y="442.08" style="stroke: #000000; stroke-width: 0.8"/>
      </g>
     </g>
     <g id="text_28">
      <!-- 17.5 -->
      <g transform="translate(318.675788 456.678437)scale(0.1 -0.1)">
       <use xlink:href="#DejaVuSans-31"/>
       <use xlink:href="#DejaVuSans-37" x="63.623047"/>
       <use xlink:href="#DejaVuSans-2e" x="127.246094"/>
       <use xlink:href="#DejaVuSans-35" x="159.033203"/>
      </g>
     </g>
    </g>
    <g id="text_29">
     <!-- Tijd*$\omega$  -->
     <g transform="translate(181.847443 470.358125)scale(0.1 -0.1)">
      <defs>
       <path id="DejaVuSans-54" d="M -19 4666 
L 3928 4666 
L 3928 4134 
L 2272 4134 
L 2272 0 
L 1638 0 
L 1638 4134 
L -19 4134 
L -19 4666 
z
" transform="scale(0.015625)"/>
       <path id="DejaVuSans-6a" d="M 603 3500 
L 1178 3500 
L 1178 -63 
Q 1178 -731 923 -1031 
Q 669 -1331 103 -1331 
L -116 -1331 
L -116 -844 
L 38 -844 
Q 366 -844 484 -692 
Q 603 -541 603 -63 
L 603 3500 
z
M 603 4863 
L 1178 4863 
L 1178 4134 
L 603 4134 
L 603 4863 
z
" transform="scale(0.015625)"/>
       <path id="DejaVuSans-64" d="M 2906 2969 
L 2906 4863 
L 3481 4863 
L 3481 0 
L 2906 0 
L 2906 525 
Q 2725 213 2448 61 
Q 2172 -91 1784 -91 
Q 1150 -91 751 415 
Q 353 922 353 1747 
Q 353 2572 751 3078 
Q 1150 3584 1784 3584 
Q 2172 3584 2448 3432 
Q 2725 3281 2906 2969 
z
M 947 1747 
Q 947 1113 1208 752 
Q 1469 391 1925 391 
Q 2381 391 2643 752 
Q 2906 1113 2906 1747 
Q 2906 2381 2643 2742 
Q 2381 3103 1925 3103 
Q 1469 3103 1208 2742 
Q 947 2381 947 1747 
z
" transform="scale(0.015625)"/>
       <path id="DejaVuSans-2a" d="M 3009 3897 
L 1888 3291 
L 3009 2681 
L 2828 2375 
L 1778 3009 
L 1778 1831 
L 1422 1831 
L 1422 3009 
L 372 2375 
L 191 2681 
L 1313 3291 
L 191 3897 
L 372 4206 
L 1422 3572 
L 1422 4750 
L 1778 4750 
L 1778 3572 
L 2828 4206 
L 3009 3897 
z
" transform="scale(0.015625)"/>
       <path id="DejaVuSans-Oblique-3c9" d="M 1369 -91 
Q 72 -91 434 1766 
Q 575 2500 1256 3500 
L 1875 3500 
Q 1231 2500 1088 1750 
Q 819 397 1519 397 
Q 2166 397 2478 2078 
L 3009 2078 
Q 2669 388 3316 397 
Q 4013 403 4275 1750 
Q 4419 2500 4169 3500 
L 4788 3500 
Q 5075 2500 4934 1766 
Q 4578 -94 3278 -91 
Q 2428 -88 2503 844 
Q 2194 -91 1369 -91 
z
" transform="scale(0.015625)"/>
      </defs>
      <use xlink:href="#DejaVuSans-54" transform="translate(0 0.015625)"/>
      <use xlink:href="#DejaVuSans-69" transform="translate(61.083984 0.015625)"/>
      <use xlink:href="#DejaVuSans-6a" transform="translate(88.867188 0.015625)"/>
      <use xlink:href="#DejaVuSans-64" transform="translate(116.650391 0.015625)"/>
      <use xlink:href="#DejaVuSans-2a" transform="translate(180.126953 0.015625)"/>
      <use xlink:href="#DejaVuSans-Oblique-3c9" transform="translate(230.126953 0.015625)"/>
      <use xlink:href="#DejaVuSans-20" transform="translate(313.867188 0.015625)"/>
     </g>
    </g>
   </g>
   <g id="matplotlib.axis_6">
    <g id="ytick_19">
     <g id="line2d_47">
      <g>
       <use xlink:href="#mba3e093514" x="46.965625" y="442.08" style="stroke: #000000; stroke-width: 0.8"/>
      </g>
     </g>
     <g id="text_30">
      <!-- 0.0 -->
      <g transform="translate(24.0625 445.879219)scale(0.1 -0.1)">
       <use xlink:href="#DejaVuSans-30"/>
       <use xlink:href="#DejaVuSans-2e" x="63.623047"/>
       <use xlink:href="#DejaVuSans-30" x="95.410156"/>
      </g>
     </g>
    </g>
    <g id="ytick_20">
     <g id="line2d_48">
      <g>
       <use xlink:href="#mba3e093514" x="46.965625" y="400.062609" style="stroke: #000000; stroke-width: 0.8"/>
      </g>
     </g>
     <g id="text_31">
      <!-- 0.2 -->
      <g transform="translate(24.0625 403.861827)scale(0.1 -0.1)">
       <use xlink:href="#DejaVuSans-30"/>
       <use xlink:href="#DejaVuSans-2e" x="63.623047"/>
       <use xlink:href="#DejaVuSans-32" x="95.410156"/>
      </g>
     </g>
    </g>
    <g id="ytick_21">
     <g id="line2d_49">
      <g>
       <use xlink:href="#mba3e093514" x="46.965625" y="358.045217" style="stroke: #000000; stroke-width: 0.8"/>
      </g>
     </g>
     <g id="text_32">
      <!-- 0.4 -->
      <g transform="translate(24.0625 361.844436)scale(0.1 -0.1)">
       <use xlink:href="#DejaVuSans-30"/>
       <use xlink:href="#DejaVuSans-2e" x="63.623047"/>
       <use xlink:href="#DejaVuSans-34" x="95.410156"/>
      </g>
     </g>
    </g>
    <g id="ytick_22">
     <g id="line2d_50">
      <g>
       <use xlink:href="#mba3e093514" x="46.965625" y="316.027826" style="stroke: #000000; stroke-width: 0.8"/>
      </g>
     </g>
     <g id="text_33">
      <!-- 0.6 -->
      <g transform="translate(24.0625 319.827045)scale(0.1 -0.1)">
       <use xlink:href="#DejaVuSans-30"/>
       <use xlink:href="#DejaVuSans-2e" x="63.623047"/>
       <use xlink:href="#DejaVuSans-36" x="95.410156"/>
      </g>
     </g>
    </g>
    <g id="ytick_23">
     <g id="line2d_51">
      <g>
       <use xlink:href="#mba3e093514" x="46.965625" y="274.010435" style="stroke: #000000; stroke-width: 0.8"/>
      </g>
     </g>
     <g id="text_34">
      <!-- 0.8 -->
      <g transform="translate(24.0625 277.809654)scale(0.1 -0.1)">
       <use xlink:href="#DejaVuSans-30"/>
       <use xlink:href="#DejaVuSans-2e" x="63.623047"/>
       <use xlink:href="#DejaVuSans-38" x="95.410156"/>
      </g>
     </g>
    </g>
    <g id="ytick_24">
     <g id="line2d_52">
      <g>
       <use xlink:href="#mba3e093514" x="46.965625" y="231.993043" style="stroke: #000000; stroke-width: 0.8"/>
      </g>
     </g>
     <g id="text_35">
      <!-- 1.0 -->
      <g transform="translate(24.0625 235.792262)scale(0.1 -0.1)">
       <use xlink:href="#DejaVuSans-31"/>
       <use xlink:href="#DejaVuSans-2e" x="63.623047"/>
       <use xlink:href="#DejaVuSans-30" x="95.410156"/>
      </g>
     </g>
    </g>
    <g id="text_36">
     <!-- Transistor collector current (A) -->
     <g transform="translate(17.982813 412.925584)rotate(-90)scale(0.1 -0.1)">
      <defs>
       <path id="DejaVuSans-63" d="M 3122 3366 
L 3122 2828 
Q 2878 2963 2633 3030 
Q 2388 3097 2138 3097 
Q 1578 3097 1268 2742 
Q 959 2388 959 1747 
Q 959 1106 1268 751 
Q 1578 397 2138 397 
Q 2388 397 2633 464 
Q 2878 531 3122 666 
L 3122 134 
Q 2881 22 2623 -34 
Q 2366 -91 2075 -91 
Q 1284 -91 818 406 
Q 353 903 353 1747 
Q 353 2603 823 3093 
Q 1294 3584 2113 3584 
Q 2378 3584 2631 3529 
Q 2884 3475 3122 3366 
z
" transform="scale(0.015625)"/>
       <path id="DejaVuSans-6c" d="M 603 4863 
L 1178 4863 
L 1178 0 
L 603 0 
L 603 4863 
z
" transform="scale(0.015625)"/>
       <path id="DejaVuSans-75" d="M 544 1381 
L 544 3500 
L 1119 3500 
L 1119 1403 
Q 1119 906 1312 657 
Q 1506 409 1894 409 
Q 2359 409 2629 706 
Q 2900 1003 2900 1516 
L 2900 3500 
L 3475 3500 
L 3475 0 
L 2900 0 
L 2900 538 
Q 2691 219 2414 64 
Q 2138 -91 1772 -91 
Q 1169 -91 856 284 
Q 544 659 544 1381 
z
M 1991 3584 
L 1991 3584 
z
" transform="scale(0.015625)"/>
       <path id="DejaVuSans-41" d="M 2188 4044 
L 1331 1722 
L 3047 1722 
L 2188 4044 
z
M 1831 4666 
L 2547 4666 
L 4325 0 
L 3669 0 
L 3244 1197 
L 1141 1197 
L 716 0 
L 50 0 
L 1831 4666 
z
" transform="scale(0.015625)"/>
      </defs>
      <use xlink:href="#DejaVuSans-54"/>
      <use xlink:href="#DejaVuSans-72" x="46.333984"/>
      <use xlink:href="#DejaVuSans-61" x="87.447266"/>
      <use xlink:href="#DejaVuSans-6e" x="148.726562"/>
      <use xlink:href="#DejaVuSans-73" x="212.105469"/>
      <use xlink:href="#DejaVuSans-69" x="264.205078"/>
      <use xlink:href="#DejaVuSans-73" x="291.988281"/>
      <use xlink:href="#DejaVuSans-74" x="344.087891"/>
      <use xlink:href="#DejaVuSans-6f" x="383.296875"/>
      <use xlink:href="#DejaVuSans-72" x="444.478516"/>
      <use xlink:href="#DejaVuSans-20" x="485.591797"/>
      <use xlink:href="#DejaVuSans-63" x="517.378906"/>
      <use xlink:href="#DejaVuSans-6f" x="572.359375"/>
      <use xlink:href="#DejaVuSans-6c" x="633.541016"/>
      <use xlink:href="#DejaVuSans-6c" x="661.324219"/>
      <use xlink:href="#DejaVuSans-65" x="689.107422"/>
      <use xlink:href="#DejaVuSans-63" x="750.630859"/>
      <use xlink:href="#DejaVuSans-74" x="805.611328"/>
      <use xlink:href="#DejaVuSans-6f" x="844.820312"/>
      <use xlink:href="#DejaVuSans-72" x="906.001953"/>
      <use xlink:href="#DejaVuSans-20" x="947.115234"/>
      <use xlink:href="#DejaVuSans-63" x="978.902344"/>
      <use xlink:href="#DejaVuSans-75" x="1033.882812"/>
      <use xlink:href="#DejaVuSans-72" x="1097.261719"/>
      <use xlink:href="#DejaVuSans-72" x="1136.625"/>
      <use xlink:href="#DejaVuSans-65" x="1175.488281"/>
      <use xlink:href="#DejaVuSans-6e" x="1237.011719"/>
      <use xlink:href="#DejaVuSans-74" x="1300.390625"/>
      <use xlink:href="#DejaVuSans-20" x="1339.599609"/>
      <use xlink:href="#DejaVuSans-28" x="1371.386719"/>
      <use xlink:href="#DejaVuSans-41" x="1410.400391"/>
      <use xlink:href="#DejaVuSans-29" x="1478.808594"/>
     </g>
    </g>
   </g>
   <g id="line2d_53">
    <path d="M 60.800336 442.08 
L 68.5633 442.08 
L 69.117797 435.750554 
L 71.335787 386.213644 
L 73.553777 342.204068 
L 75.217269 313.379292 
L 76.880761 288.518119 
L 78.544253 267.911409 
L 79.653248 256.658386 
L 80.762243 247.463011 
L 81.871238 240.373126 
L 82.980233 235.425615 
L 83.53473 233.763734 
L 84.089228 232.646219 
L 84.643725 232.074525 
L 85.198222 232.049396 
L 85.75272 232.570864 
L 86.307217 233.638252 
L 86.861715 235.25017 
L 87.416212 237.404521 
L 88.525207 243.328609 
L 89.634202 251.379695 
L 90.743197 261.515893 
L 91.852192 273.68447 
L 92.961186 287.822117 
L 94.624679 312.556993 
L 96.288171 341.265093 
L 97.951663 373.61055 
L 100.169653 421.73629 
L 100.72415 434.557443 
L 101.278648 442.08 
L 165.045852 442.08 
L 165.600349 438.143902 
L 167.818339 388.37688 
L 170.036328 344.092233 
L 171.699821 315.035057 
L 173.363313 289.922112 
L 175.026805 269.047205 
L 176.1358 257.6078 
L 177.244795 248.221106 
L 178.35379 240.935956 
L 179.462785 235.790253 
L 180.017282 234.028498 
L 180.571779 232.810766 
L 181.126277 232.138641 
L 181.680774 232.012998 
L 182.235272 232.433999 
L 182.789769 233.401097 
L 183.344267 234.913035 
L 183.898764 236.967844 
L 184.453261 239.562851 
L 185.562256 246.359258 
L 186.671251 255.266895 
L 187.780246 266.239422 
L 188.889241 279.219753 
L 190.552733 302.304387 
L 192.216225 329.482193 
L 193.879718 360.435209 
L 196.097707 406.946699 
L 197.7612 442.08 
L 261.528403 442.08 
L 262.082901 440.546664 
L 264.300891 390.551719 
L 266.51888 345.993949 
L 268.182373 316.705651 
L 269.845865 291.342039 
L 271.509357 270.199853 
L 272.618352 258.57457 
L 273.727347 248.996968 
L 274.836342 241.516874 
L 275.945336 236.173204 
L 276.499834 234.311655 
L 277.054331 232.993759 
L 277.608829 232.221233 
L 278.163326 231.99508 
L 278.717824 232.315596 
L 279.272321 233.182363 
L 279.826818 234.594253 
L 280.381316 236.54943 
L 280.935813 239.045349 
L 282.044808 245.645728 
L 283.153803 254.36105 
L 284.262798 265.145973 
L 285.371793 277.944389 
L 287.035285 300.768879 
L 288.698777 327.704506 
L 290.36227 358.436139 
L 292.580259 404.689244 
L 294.243752 442.08 
L 337.494551 442.08 
L 337.494551 442.08 
" clip-path="url(#p101906abbd)" style="fill: none; stroke: #1f77b4; stroke-width: 1.5; stroke-linecap: square"/>
   </g>
   <g id="patch_13">
    <path d="M 46.965625 442.08 
L 46.965625 231.993043 
" style="fill: none; stroke: #000000; stroke-width: 0.8; stroke-linejoin: miter; stroke-linecap: square"/>
   </g>
   <g id="patch_14">
    <path d="M 351.329261 442.08 
L 351.329261 231.993043 
" style="fill: none; stroke: #000000; stroke-width: 0.8; stroke-linejoin: miter; stroke-linecap: square"/>
   </g>
   <g id="patch_15">
    <path d="M 46.965625 442.08 
L 351.329261 442.08 
" style="fill: none; stroke: #000000; stroke-width: 0.8; stroke-linejoin: miter; stroke-linecap: square"/>
   </g>
   <g id="patch_16">
    <path d="M 46.965625 231.993043 
L 351.329261 231.993043 
" style="fill: none; stroke: #000000; stroke-width: 0.8; stroke-linejoin: miter; stroke-linecap: square"/>
   </g>
  </g>
  <g id="axes_4">
   <g id="patch_17">
    <path d="M 412.201989 442.08 
L 716.565625 442.08 
L 716.565625 231.993043 
L 412.201989 231.993043 
z
" style="fill: #ffffff"/>
   </g>
   <g id="matplotlib.axis_7">
    <g id="xtick_25">
     <g id="line2d_54">
      <g>
       <use xlink:href="#mc425057277" x="426.036699" y="442.08" style="stroke: #000000; stroke-width: 0.8"/>
      </g>
     </g>
     <g id="text_37">
      <!-- 0.0 -->
      <g transform="translate(418.085137 456.678437)scale(0.1 -0.1)">
       <use xlink:href="#DejaVuSans-30"/>
       <use xlink:href="#DejaVuSans-2e" x="63.623047"/>
       <use xlink:href="#DejaVuSans-30" x="95.410156"/>
      </g>
     </g>
    </g>
    <g id="xtick_26">
     <g id="line2d_55">
      <g>
       <use xlink:href="#mc425057277" x="464.466451" y="442.08" style="stroke: #000000; stroke-width: 0.8"/>
      </g>
     </g>
     <g id="text_38">
      <!-- 2.5 -->
      <g transform="translate(456.514889 456.678437)scale(0.1 -0.1)">
       <use xlink:href="#DejaVuSans-32"/>
       <use xlink:href="#DejaVuSans-2e" x="63.623047"/>
       <use xlink:href="#DejaVuSans-35" x="95.410156"/>
      </g>
     </g>
    </g>
    <g id="xtick_27">
     <g id="line2d_56">
      <g>
       <use xlink:href="#mc425057277" x="502.896204" y="442.08" style="stroke: #000000; stroke-width: 0.8"/>
      </g>
     </g>
     <g id="text_39">
      <!-- 5.0 -->
      <g transform="translate(494.944641 456.678437)scale(0.1 -0.1)">
       <use xlink:href="#DejaVuSans-35"/>
       <use xlink:href="#DejaVuSans-2e" x="63.623047"/>
       <use xlink:href="#DejaVuSans-30" x="95.410156"/>
      </g>
     </g>
    </g>
    <g id="xtick_28">
     <g id="line2d_57">
      <g>
       <use xlink:href="#mc425057277" x="541.325956" y="442.08" style="stroke: #000000; stroke-width: 0.8"/>
      </g>
     </g>
     <g id="text_40">
      <!-- 7.5 -->
      <g transform="translate(533.374393 456.678437)scale(0.1 -0.1)">
       <use xlink:href="#DejaVuSans-37"/>
       <use xlink:href="#DejaVuSans-2e" x="63.623047"/>
       <use xlink:href="#DejaVuSans-35" x="95.410156"/>
      </g>
     </g>
    </g>
    <g id="xtick_29">
     <g id="line2d_58">
      <g>
       <use xlink:href="#mc425057277" x="579.755708" y="442.08" style="stroke: #000000; stroke-width: 0.8"/>
      </g>
     </g>
     <g id="text_41">
      <!-- 10.0 -->
      <g transform="translate(568.622895 456.678437)scale(0.1 -0.1)">
       <use xlink:href="#DejaVuSans-31"/>
       <use xlink:href="#DejaVuSans-30" x="63.623047"/>
       <use xlink:href="#DejaVuSans-2e" x="127.246094"/>
       <use xlink:href="#DejaVuSans-30" x="159.033203"/>
      </g>
     </g>
    </g>
    <g id="xtick_30">
     <g id="line2d_59">
      <g>
       <use xlink:href="#mc425057277" x="618.18546" y="442.08" style="stroke: #000000; stroke-width: 0.8"/>
      </g>
     </g>
     <g id="text_42">
      <!-- 12.5 -->
      <g transform="translate(607.052647 456.678437)scale(0.1 -0.1)">
       <use xlink:href="#DejaVuSans-31"/>
       <use xlink:href="#DejaVuSans-32" x="63.623047"/>
       <use xlink:href="#DejaVuSans-2e" x="127.246094"/>
       <use xlink:href="#DejaVuSans-35" x="159.033203"/>
      </g>
     </g>
    </g>
    <g id="xtick_31">
     <g id="line2d_60">
      <g>
       <use xlink:href="#mc425057277" x="656.615212" y="442.08" style="stroke: #000000; stroke-width: 0.8"/>
      </g>
     </g>
     <g id="text_43">
      <!-- 15.0 -->
      <g transform="translate(645.482399 456.678437)scale(0.1 -0.1)">
       <use xlink:href="#DejaVuSans-31"/>
       <use xlink:href="#DejaVuSans-35" x="63.623047"/>
       <use xlink:href="#DejaVuSans-2e" x="127.246094"/>
       <use xlink:href="#DejaVuSans-30" x="159.033203"/>
      </g>
     </g>
    </g>
    <g id="xtick_32">
     <g id="line2d_61">
      <g>
       <use xlink:href="#mc425057277" x="695.044964" y="442.08" style="stroke: #000000; stroke-width: 0.8"/>
      </g>
     </g>
     <g id="text_44">
      <!-- 17.5 -->
      <g transform="translate(683.912151 456.678437)scale(0.1 -0.1)">
       <use xlink:href="#DejaVuSans-31"/>
       <use xlink:href="#DejaVuSans-37" x="63.623047"/>
       <use xlink:href="#DejaVuSans-2e" x="127.246094"/>
       <use xlink:href="#DejaVuSans-35" x="159.033203"/>
      </g>
     </g>
    </g>
    <g id="text_45">
     <!-- Tijd*$\omega$  -->
     <g transform="translate(547.083807 470.358125)scale(0.1 -0.1)">
      <use xlink:href="#DejaVuSans-54" transform="translate(0 0.015625)"/>
      <use xlink:href="#DejaVuSans-69" transform="translate(61.083984 0.015625)"/>
      <use xlink:href="#DejaVuSans-6a" transform="translate(88.867188 0.015625)"/>
      <use xlink:href="#DejaVuSans-64" transform="translate(116.650391 0.015625)"/>
      <use xlink:href="#DejaVuSans-2a" transform="translate(180.126953 0.015625)"/>
      <use xlink:href="#DejaVuSans-Oblique-3c9" transform="translate(230.126953 0.015625)"/>
      <use xlink:href="#DejaVuSans-20" transform="translate(313.867188 0.015625)"/>
     </g>
    </g>
   </g>
   <g id="matplotlib.axis_8">
    <g id="ytick_25">
     <g id="line2d_62">
      <g>
       <use xlink:href="#mba3e093514" x="412.201989" y="442.08" style="stroke: #000000; stroke-width: 0.8"/>
      </g>
     </g>
     <g id="text_46">
      <!-- 0 -->
      <g transform="translate(398.839489 445.879219)scale(0.1 -0.1)">
       <use xlink:href="#DejaVuSans-30"/>
      </g>
     </g>
    </g>
    <g id="ytick_26">
     <g id="line2d_63">
      <g>
       <use xlink:href="#mba3e093514" x="412.201989" y="402.062505" style="stroke: #000000; stroke-width: 0.8"/>
      </g>
     </g>
     <g id="text_47">
      <!-- 2 -->
      <g transform="translate(398.839489 405.861723)scale(0.1 -0.1)">
       <use xlink:href="#DejaVuSans-32"/>
      </g>
     </g>
    </g>
    <g id="ytick_27">
     <g id="line2d_64">
      <g>
       <use xlink:href="#mba3e093514" x="412.201989" y="362.045009" style="stroke: #000000; stroke-width: 0.8"/>
      </g>
     </g>
     <g id="text_48">
      <!-- 4 -->
      <g transform="translate(398.839489 365.844228)scale(0.1 -0.1)">
       <use xlink:href="#DejaVuSans-34"/>
      </g>
     </g>
    </g>
    <g id="ytick_28">
     <g id="line2d_65">
      <g>
       <use xlink:href="#mba3e093514" x="412.201989" y="322.027514" style="stroke: #000000; stroke-width: 0.8"/>
      </g>
     </g>
     <g id="text_49">
      <!-- 6 -->
      <g transform="translate(398.839489 325.826733)scale(0.1 -0.1)">
       <use xlink:href="#DejaVuSans-36"/>
      </g>
     </g>
    </g>
    <g id="ytick_29">
     <g id="line2d_66">
      <g>
       <use xlink:href="#mba3e093514" x="412.201989" y="282.010019" style="stroke: #000000; stroke-width: 0.8"/>
      </g>
     </g>
     <g id="text_50">
      <!-- 8 -->
      <g transform="translate(398.839489 285.809238)scale(0.1 -0.1)">
       <use xlink:href="#DejaVuSans-38"/>
      </g>
     </g>
    </g>
    <g id="ytick_30">
     <g id="line2d_67">
      <g>
       <use xlink:href="#mba3e093514" x="412.201989" y="241.992524" style="stroke: #000000; stroke-width: 0.8"/>
      </g>
     </g>
     <g id="text_51">
      <!-- 10 -->
      <g transform="translate(392.476989 245.791742)scale(0.1 -0.1)">
       <use xlink:href="#DejaVuSans-31"/>
       <use xlink:href="#DejaVuSans-30" x="63.623047"/>
      </g>
     </g>
    </g>
    <g id="text_52">
     <!-- Transistor power loss(W) -->
     <g transform="translate(386.397301 398.450584)rotate(-90)scale(0.1 -0.1)">
      <use xlink:href="#DejaVuSans-54"/>
      <use xlink:href="#DejaVuSans-72" x="46.333984"/>
      <use xlink:href="#DejaVuSans-61" x="87.447266"/>
      <use xlink:href="#DejaVuSans-6e" x="148.726562"/>
      <use xlink:href="#DejaVuSans-73" x="212.105469"/>
      <use xlink:href="#DejaVuSans-69" x="264.205078"/>
      <use xlink:href="#DejaVuSans-73" x="291.988281"/>
      <use xlink:href="#DejaVuSans-74" x="344.087891"/>
      <use xlink:href="#DejaVuSans-6f" x="383.296875"/>
      <use xlink:href="#DejaVuSans-72" x="444.478516"/>
      <use xlink:href="#DejaVuSans-20" x="485.591797"/>
      <use xlink:href="#DejaVuSans-70" x="517.378906"/>
      <use xlink:href="#DejaVuSans-6f" x="580.855469"/>
      <use xlink:href="#DejaVuSans-77" x="642.037109"/>
      <use xlink:href="#DejaVuSans-65" x="723.824219"/>
      <use xlink:href="#DejaVuSans-72" x="785.347656"/>
      <use xlink:href="#DejaVuSans-20" x="826.460938"/>
      <use xlink:href="#DejaVuSans-6c" x="858.248047"/>
      <use xlink:href="#DejaVuSans-6f" x="886.03125"/>
      <use xlink:href="#DejaVuSans-73" x="947.212891"/>
      <use xlink:href="#DejaVuSans-73" x="999.3125"/>
      <use xlink:href="#DejaVuSans-28" x="1051.412109"/>
      <use xlink:href="#DejaVuSans-57" x="1090.425781"/>
      <use xlink:href="#DejaVuSans-29" x="1189.302734"/>
     </g>
    </g>
   </g>
   <g id="line2d_68">
    <path d="M 426.036699 442.08 
L 433.799663 442.08 
L 434.354161 418.693725 
L 435.463156 339.465854 
L 436.017653 309.647871 
L 436.57215 285.846395 
L 437.126648 267.654443 
L 437.681145 254.651275 
L 438.235643 246.405256 
L 438.79014 242.476752 
L 439.344638 242.421043 
L 439.899135 245.791242 
L 440.453632 252.141202 
L 441.00813 261.028398 
L 442.117125 284.679432 
L 443.780617 328.639501 
L 445.998607 387.485125 
L 447.107602 411.428571 
L 448.216596 429.21689 
L 448.771094 435.391212 
L 449.325591 439.599392 
L 449.880089 441.769708 
L 450.434586 441.865377 
L 450.989083 439.884781 
L 451.543581 435.861475 
L 452.098078 429.863986 
L 452.652576 421.99539 
L 453.761571 401.225954 
L 454.870565 375.039707 
L 458.752047 273.117344 
L 459.861042 252.858977 
L 460.41554 246.257376 
L 460.970037 242.594661 
L 461.524535 242.316766 
L 462.079032 245.870628 
L 462.633529 253.701291 
L 463.188027 266.248977 
L 463.742524 283.946178 
L 464.297022 307.214756 
L 464.851519 336.463076 
L 466.515011 442.08 
L 530.282215 442.08 
L 530.836713 427.365931 
L 531.945707 345.634184 
L 533.054702 289.789399 
L 533.6092 270.597282 
L 534.163697 256.672208 
L 534.718195 247.58433 
L 535.272692 242.895265 
L 535.827189 242.16101 
L 536.381687 244.934857 
L 536.936184 250.770308 
L 537.490682 259.223956 
L 538.599677 282.244687 
L 540.263169 325.815499 
L 542.481159 385.032829 
L 543.590153 409.461208 
L 544.699148 427.875568 
L 545.253646 434.400835 
L 545.808143 438.976919 
L 546.362641 441.525714 
L 546.917138 442.00399 
L 547.471635 440.403657 
L 548.026133 436.751812 
L 548.58063 431.110577 
L 549.135128 423.576718 
L 550.244122 403.387648 
L 551.353117 377.62396 
L 553.571107 317.558638 
L 555.234599 275.359639 
L 556.343594 254.357474 
L 556.898092 247.263801 
L 557.452589 243.027364 
L 558.007086 242.093596 
L 558.561584 244.909469 
L 559.116081 251.920591 
L 559.670579 263.568291 
L 560.225076 280.286701 
L 560.779574 302.499853 
L 561.334071 330.618806 
L 562.443066 406.136625 
L 562.997563 442.08 
L 626.764767 442.08 
L 627.319265 436.281218 
L 628.428259 352.021507 
L 629.537254 293.924635 
L 630.091752 273.7182 
L 630.646249 258.856681 
L 631.200746 248.912117 
L 631.755244 243.447475 
L 632.309741 242.019565 
L 632.864239 244.18196 
L 633.418736 249.487904 
L 633.973234 257.493208 
L 635.082228 279.85502 
L 636.745721 322.997428 
L 638.96371 382.544639 
L 640.072705 407.442665 
L 641.1817 426.472067 
L 641.736198 433.344474 
L 642.290695 438.28582 
L 642.845192 441.211631 
L 643.39969 442.072241 
L 643.954187 440.853087 
L 644.508685 437.574805 
L 645.063182 432.293097 
L 645.61768 425.098398 
L 646.726674 405.501885 
L 647.835669 380.177137 
L 649.499161 335.711021 
L 651.162654 290.946854 
L 652.271649 265.844281 
L 652.826146 255.937629 
L 653.380643 248.366802 
L 653.935141 243.571708 
L 654.489638 241.997184 
L 655.044136 244.090138 
L 655.598633 250.296646 
L 656.153131 261.059044 
L 656.707628 276.813005 
L 657.262125 297.984634 
L 657.816623 324.987589 
L 658.925618 398.062942 
L 659.480115 442.08 
L 702.730914 442.08 
L 702.730914 442.08 
" clip-path="url(#pdebf2b8477)" style="fill: none; stroke: #1f77b4; stroke-width: 1.5; stroke-linecap: square"/>
   </g>
   <g id="line2d_69">
    <path d="M 426.036699 293.222021 
L 702.730914 293.222021 
L 702.730914 293.222021 
" clip-path="url(#pdebf2b8477)" style="fill: none; stroke: #ff7f0e; stroke-width: 1.5; stroke-linecap: square"/>
   </g>
   <g id="patch_18">
    <path d="M 412.201989 442.08 
L 412.201989 231.993043 
" style="fill: none; stroke: #000000; stroke-width: 0.8; stroke-linejoin: miter; stroke-linecap: square"/>
   </g>
   <g id="patch_19">
    <path d="M 716.565625 442.08 
L 716.565625 231.993043 
" style="fill: none; stroke: #000000; stroke-width: 0.8; stroke-linejoin: miter; stroke-linecap: square"/>
   </g>
   <g id="patch_20">
    <path d="M 412.201989 442.08 
L 716.565625 442.08 
" style="fill: none; stroke: #000000; stroke-width: 0.8; stroke-linejoin: miter; stroke-linecap: square"/>
   </g>
   <g id="patch_21">
    <path d="M 412.201989 231.993043 
L 716.565625 231.993043 
" style="fill: none; stroke: #000000; stroke-width: 0.8; stroke-linejoin: miter; stroke-linecap: square"/>
   </g>
  </g>
 </g>
 <defs>
  <clipPath id="pb12f0743af">
   <rect x="46.965625" y="7.2" width="304.363636" height="210.086957"/>
  </clipPath>
  <clipPath id="p7991ac1b4e">
   <rect x="412.201989" y="7.2" width="304.363636" height="210.086957"/>
  </clipPath>
  <clipPath id="p101906abbd">
   <rect x="46.965625" y="231.993043" width="304.363636" height="210.086957"/>
  </clipPath>
  <clipPath id="pdebf2b8477">
   <rect x="412.201989" y="231.993043" width="304.363636" height="210.086957"/>
  </clipPath>
 </defs>
</svg>