<?xml version="1.0" encoding="utf-8" standalone="no"?>
<!DOCTYPE svg PUBLIC "-//W3C//DTD SVG 1.1//EN"
  "http://www.w3.org/Graphics/SVG/1.1/DTD/svg11.dtd">
<svg xmlns:xlink="http://www.w3.org/1999/xlink" width="342.36pt" height="343.693656pt" viewBox="0 0 342.36 343.693656" xmlns="http://www.w3.org/2000/svg" version="1.1">
 <metadata>
  <rdf:RDF xmlns:dc="http://purl.org/dc/elements/1.1/" xmlns:cc="http://creativecommons.org/ns#" xmlns:rdf="http://www.w3.org/1999/02/22-rdf-syntax-ns#">
   <cc:Work>
    <dc:type rdf:resource="http://purl.org/dc/dcmitype/StillImage"/>
    <dc:date>2023-09-25T20:47:41.138314</dc:date>
    <dc:format>image/svg+xml</dc:format>
    <dc:creator>
     <cc:Agent>
      <dc:title>Matplotlib v3.6.3, https://matplotlib.org/</dc:title>
     </cc:Agent>
    </dc:creator>
   </cc:Work>
  </rdf:RDF>
 </metadata>
 <defs>
  <style type="text/css">*{stroke-linejoin: round; stroke-linecap: butt}</style>
 </defs>
 <g id="figure_1">
  <g id="patch_1">
   <path d="M 0 343.693656 
L 342.36 343.693656 
L 342.36 0 
L 0 0 
z
" style="fill: #ffffff"/>
  </g>
  <g id="axes_1">
   <g id="patch_2">
    <path d="M 31.275 256.777656 
C 33.661828 256.777656 35.951219 255.829359 37.638961 254.141617 
C 39.326703 252.453875 40.275 250.164484 40.275 247.777656 
C 40.275 245.390828 39.326703 243.101437 37.638961 241.413695 
C 35.951219 239.725953 33.661828 238.777656 31.275 238.777656 
C 28.888172 238.777656 26.598781 239.725953 24.911039 241.413695 
C 23.223297 243.101437 22.275 245.390828 22.275 247.777656 
C 22.275 250.164484 23.223297 252.453875 24.911039 254.141617 
C 26.598781 255.829359 28.888172 256.777656 31.275 256.777656 
L 31.275 256.777656 
z
" clip-path="url(#p7e84bb2820)" style="fill: none; stroke: #000000; stroke-width: 2; stroke-linejoin: miter"/>
   </g>
   <g id="patch_3">
    <path d="M 211.335 69.697656 
C 213.243826 69.697656 215.076425 68.938569 216.426169 67.588825 
C 217.775913 66.239081 218.535 64.406483 218.535 62.497656 
C 218.535 60.58883 217.775913 58.756231 216.426169 57.406487 
C 215.076425 56.056743 213.243826 55.297656 211.335 55.297656 
" clip-path="url(#p7e84bb2820)" style="fill: none; stroke: #000000; stroke-width: 2; stroke-linejoin: miter"/>
   </g>
   <g id="patch_4">
    <path d="M 211.335 84.097656 
C 213.243826 84.097656 215.076425 83.338569 216.426169 81.988825 
C 217.775913 80.639081 218.535 78.806483 218.535 76.897656 
C 218.535 74.98883 217.775913 73.156231 216.426169 71.806487 
C 215.076425 70.456743 213.243826 69.697656 211.335 69.697656 
" clip-path="url(#p7e84bb2820)" style="fill: none; stroke: #000000; stroke-width: 2; stroke-linejoin: miter"/>
   </g>
   <g id="patch_5">
    <path d="M 211.335 98.497656 
C 213.243826 98.497656 215.076425 97.738569 216.426169 96.388825 
C 217.775913 95.039081 218.535 93.206483 218.535 91.297656 
C 218.535 89.38883 217.775913 87.556231 216.426169 86.206487 
C 215.076425 84.856743 213.243826 84.097656 211.335 84.097656 
" clip-path="url(#p7e84bb2820)" style="fill: none; stroke: #000000; stroke-width: 2; stroke-linejoin: miter"/>
   </g>
   <g id="patch_6">
    <path d="M 211.335 112.897656 
C 213.243826 112.897656 215.076425 112.138569 216.426169 110.788825 
C 217.775913 109.439081 218.535 107.606483 218.535 105.697656 
C 218.535 103.78883 217.775913 101.956231 216.426169 100.606487 
C 215.076425 99.256743 213.243826 98.497656 211.335 98.497656 
" clip-path="url(#p7e84bb2820)" style="fill: none; stroke: #000000; stroke-width: 2; stroke-linejoin: miter"/>
   </g>
   <g id="patch_7">
    <path d="M 211.335 127.297656 
C 213.243826 127.297656 215.076425 126.538569 216.426169 125.188825 
C 217.775913 123.839081 218.535 122.006483 218.535 120.097656 
C 218.535 118.18883 217.775913 116.356231 216.426169 115.006487 
C 215.076425 113.656743 213.243826 112.897656 211.335 112.897656 
" clip-path="url(#p7e84bb2820)" style="fill: none; stroke: #000000; stroke-width: 2; stroke-linejoin: miter"/>
   </g>
   <g id="patch_8">
    <path d="M 211.335 141.697656 
C 213.243826 141.697656 215.076425 140.938569 216.426169 139.588825 
C 217.775913 138.239081 218.535 136.406483 218.535 134.497656 
C 218.535 132.58883 217.775913 130.756231 216.426169 129.406487 
C 215.076425 128.056743 213.243826 127.297656 211.335 127.297656 
" clip-path="url(#p7e84bb2820)" style="fill: none; stroke: #000000; stroke-width: 2; stroke-linejoin: miter"/>
   </g>
   <g id="patch_9">
    <path d="M 247.335 69.697656 
C 245.426174 69.697656 243.593575 70.456743 242.243831 71.806487 
C 240.894087 73.156231 240.135 74.98883 240.135 76.897656 
C 240.135 78.806483 240.894087 80.639081 242.243831 81.988825 
C 243.593575 83.338569 245.426174 84.097656 247.335 84.097656 
" clip-path="url(#p7e84bb2820)" style="fill: none; stroke: #000000; stroke-width: 2; stroke-linejoin: miter"/>
   </g>
   <g id="patch_10">
    <path d="M 247.335 84.097656 
C 245.426174 84.097656 243.593575 84.856743 242.243831 86.206487 
C 240.894087 87.556231 240.135 89.38883 240.135 91.297656 
C 240.135 93.206483 240.894087 95.039081 242.243831 96.388825 
C 243.593575 97.738569 245.426174 98.497656 247.335 98.497656 
" clip-path="url(#p7e84bb2820)" style="fill: none; stroke: #000000; stroke-width: 2; stroke-linejoin: miter"/>
   </g>
   <g id="patch_11">
    <path d="M 247.335 98.497656 
C 245.426174 98.497656 243.593575 99.256743 242.243831 100.606487 
C 240.894087 101.956231 240.135 103.78883 240.135 105.697656 
C 240.135 107.606483 240.894087 109.439081 242.243831 110.788825 
C 243.593575 112.138569 245.426174 112.897656 247.335 112.897656 
" clip-path="url(#p7e84bb2820)" style="fill: none; stroke: #000000; stroke-width: 2; stroke-linejoin: miter"/>
   </g>
   <g id="patch_12">
    <path d="M 247.335 112.897656 
C 245.426174 112.897656 243.593575 113.656743 242.243831 115.006487 
C 240.894087 116.356231 240.135 118.18883 240.135 120.097656 
C 240.135 122.006483 240.894087 123.839081 242.243831 125.188825 
C 243.593575 126.538569 245.426174 127.297656 247.335 127.297656 
" clip-path="url(#p7e84bb2820)" style="fill: none; stroke: #000000; stroke-width: 2; stroke-linejoin: miter"/>
   </g>
   <g id="line2d_1">
    <path d="M 139.275 193.777656 
L 152.475 193.777656 
" clip-path="url(#p7e84bb2820)" style="fill: none; stroke: #000000; stroke-width: 2; stroke-linecap: round"/>
   </g>
   <g id="line2d_2">
    <path d="M 152.475 180.577656 
L 152.475 206.977656 
" clip-path="url(#p7e84bb2820)" style="fill: none; stroke: #000000; stroke-width: 2; stroke-linecap: round"/>
   </g>
   <g id="line2d_3">
    <path d="M 152.475 187.177656 
L 166.335 175.297656 
L 166.335 168.697656 
" clip-path="url(#p7e84bb2820)" style="fill: none; stroke: #000000; stroke-width: 2; stroke-linecap: round"/>
   </g>
   <g id="line2d_4">
    <path d="M 152.475 200.377656 
L 166.335 212.257656 
L 166.335 218.857656 
" clip-path="url(#p7e84bb2820)" style="fill: none; stroke: #000000; stroke-width: 2; stroke-linecap: round"/>
   </g>
   <g id="line2d_5">
    <path d="M 152.475 200.377656 
L 159.501691 206.400534 
" clip-path="url(#p7e84bb2820)" style="fill: none; stroke: #000000; stroke-width: 2; stroke-linecap: round"/>
   </g>
   <g id="patch_13">
    <path d="M 161.84454 203.66721 
L 166.335 212.257656 
L 157.158842 209.133858 
z
" clip-path="url(#p7e84bb2820)"/>
   </g>
   <g id="line2d_6">
    <path d="M 139.275 193.777656 
L 103.275 193.777656 
L 100.275 202.777656 
L 94.275 184.777656 
L 88.275 202.777656 
L 82.275 184.777656 
L 76.275 202.777656 
L 70.275 184.777656 
L 67.275 193.777656 
L 31.275 193.777656 
" clip-path="url(#p7e84bb2820)" style="fill: none; stroke: #000000; stroke-width: 2; stroke-linecap: round"/>
   </g>
   <g id="line2d_7">
    <path d="M 31.275 193.777656 
L 31.275 238.777656 
L 31.275 238.777656 
M 31.275 256.777656 
L 31.275 256.777656 
L 31.275 301.777656 
" clip-path="url(#p7e84bb2820)" style="fill: none; stroke: #000000; stroke-width: 2; stroke-linecap: round"/>
   </g>
   <g id="line2d_8">
    <path d="M 29.475 243.277656 
L 33.075 243.277656 
" clip-path="url(#p7e84bb2820)" style="fill: none; stroke: #000000; stroke-width: 2; stroke-linecap: round"/>
   </g>
   <g id="line2d_9">
    <path d="M 31.275 250.477656 
L 31.275 254.077656 
" clip-path="url(#p7e84bb2820)" style="fill: none; stroke: #000000; stroke-width: 2; stroke-linecap: round"/>
   </g>
   <g id="line2d_10">
    <path d="M 29.475 252.277656 
L 33.075 252.277656 
" clip-path="url(#p7e84bb2820)" style="fill: none; stroke: #000000; stroke-width: 2; stroke-linecap: round"/>
   </g>
   <g id="line2d_11">
    <path d="M 31.275 301.777656 
L 98.805 301.777656 
L 166.335 301.777656 
" clip-path="url(#p7e84bb2820)" style="fill: none; stroke: #000000; stroke-width: 2; stroke-linecap: round"/>
   </g>
   <g id="line2d_12">
    <path d="M 166.335 301.777656 
L 166.335 316.177656 
L 157.335 316.177656 
L 175.335 316.177656 
M 160.035 320.497656 
L 172.635 320.497656 
M 164.535 324.817656 
L 168.135 324.817656 
" clip-path="url(#p7e84bb2820)" style="fill: none; stroke: #000000; stroke-width: 2; stroke-linecap: round"/>
   </g>
   <g id="line2d_13">
    <path d="M 166.335 301.777656 
L 166.335 260.317656 
L 166.335 218.857656 
" clip-path="url(#p7e84bb2820)" style="fill: none; stroke: #000000; stroke-width: 2; stroke-linecap: round"/>
   </g>
   <g id="line2d_14">
    <path d="M 166.335 168.697656 
L 166.335 155.197656 
L 166.335 141.697656 
" clip-path="url(#p7e84bb2820)" style="fill: none; stroke: #000000; stroke-width: 2; stroke-linecap: round"/>
   </g>
   <g id="line2d_15">
    <path d="M 166.335 141.697656 
L 166.335 90.937656 
M 157.335 90.937656 
L 175.335 90.937656 
M 157.335 84.457656 
L 175.335 84.457656 
M 166.335 84.457656 
L 166.335 33.697656 
" clip-path="url(#p7e84bb2820)" style="fill: none; stroke: #000000; stroke-width: 2; stroke-linecap: round"/>
   </g>
   <g id="line2d_16">
    <path d="M 166.335 141.697656 
L 188.835 141.697656 
L 211.335 141.697656 
" clip-path="url(#p7e84bb2820)" style="fill: none; stroke: #000000; stroke-width: 2; stroke-linecap: round"/>
   </g>
   <g id="line2d_17">
    <path d="M 225.735 55.297656 
L 225.735 141.697656 
" clip-path="url(#p7e84bb2820)" style="fill: none; stroke: #000000; stroke-width: 2; stroke-linecap: round"/>
   </g>
   <g id="line2d_18">
    <path d="M 232.935 55.297656 
L 232.935 141.697656 
" clip-path="url(#p7e84bb2820)" style="fill: none; stroke: #000000; stroke-width: 2; stroke-linecap: round"/>
   </g>
   <g id="line2d_19">
    <path d="M 211.335 55.297656 
L 188.835 55.297656 
L 166.335 55.297656 
" clip-path="url(#p7e84bb2820)" style="fill: none; stroke: #000000; stroke-width: 2; stroke-linecap: round"/>
   </g>
   <g id="line2d_20">
    <path d="M 247.335 69.697656 
L 278.835 69.697656 
L 310.335 69.697656 
" clip-path="url(#p7e84bb2820)" style="fill: none; stroke: #000000; stroke-width: 2; stroke-linecap: round"/>
   </g>
   <g id="line2d_21">
    <path d="M 247.335 127.297656 
L 260.835 127.297656 
L 274.335 127.297656 
" clip-path="url(#p7e84bb2820)" style="fill: none; stroke: #000000; stroke-width: 2; stroke-linecap: round"/>
   </g>
   <g id="line2d_22">
    <path d="M 274.335 127.297656 
L 274.335 141.697656 
L 265.335 141.697656 
L 283.335 141.697656 
M 268.035 146.017656 
L 280.635 146.017656 
M 272.535 150.337656 
L 276.135 150.337656 
" clip-path="url(#p7e84bb2820)" style="fill: none; stroke: #000000; stroke-width: 2; stroke-linecap: round"/>
   </g>
   <g id="line2d_23">
    <path d="M 166.335 33.697656 
L 166.335 19.297656 
" clip-path="url(#p7e84bb2820)" style="fill: none; stroke: #000000; stroke-width: 2; stroke-linecap: round"/>
   </g>
   <g id="line2d_24">
    <path d="M 166.335 19.297656 
L 159.585 19.297656 
" clip-path="url(#p7e84bb2820)" style="fill: none; stroke: #000000; stroke-width: 2; stroke-linecap: round"/>
   </g>
   <g id="line2d_25">
    <path d="M 166.335 19.297656 
L 173.085 19.297656 
" clip-path="url(#p7e84bb2820)" style="fill: none; stroke: #000000; stroke-width: 2; stroke-linecap: round"/>
   </g>
   <g id="text_1">
    <!-- $R_{in}$ -->
    <g transform="translate(76.7125 178.578047) scale(0.125 -0.125)">
     <defs>
      <path id="DejaVuSans-Oblique-52" d="M 1613 4147 
L 1294 2491 
L 2106 2491 
Q 2584 2491 2879 2755 
Q 3175 3019 3175 3444 
Q 3175 3784 2976 3965 
Q 2778 4147 2406 4147 
L 1613 4147 
z
M 2772 2241 
Q 2972 2194 3105 2009 
Q 3238 1825 3413 1275 
L 3809 0 
L 3144 0 
L 2778 1197 
Q 2638 1659 2453 1815 
Q 2269 1972 1888 1972 
L 1191 1972 
L 806 0 
L 172 0 
L 1081 4666 
L 2503 4666 
Q 3150 4666 3495 4373 
Q 3841 4081 3841 3531 
Q 3841 3044 3547 2687 
Q 3253 2331 2772 2241 
z
" transform="scale(0.015625)"/>
      <path id="DejaVuSans-Oblique-69" d="M 1172 4863 
L 1747 4863 
L 1606 4134 
L 1031 4134 
L 1172 4863 
z
M 909 3500 
L 1484 3500 
L 800 0 
L 225 0 
L 909 3500 
z
" transform="scale(0.015625)"/>
      <path id="DejaVuSans-Oblique-6e" d="M 3566 2113 
L 3156 0 
L 2578 0 
L 2988 2091 
Q 3016 2238 3031 2350 
Q 3047 2463 3047 2528 
Q 3047 2791 2881 2937 
Q 2716 3084 2419 3084 
Q 1956 3084 1622 2776 
Q 1288 2469 1184 1941 
L 800 0 
L 225 0 
L 903 3500 
L 1478 3500 
L 1363 2950 
Q 1603 3253 1940 3418 
Q 2278 3584 2650 3584 
Q 3113 3584 3367 3334 
Q 3622 3084 3622 2631 
Q 3622 2519 3608 2391 
Q 3594 2263 3566 2113 
z
" transform="scale(0.015625)"/>
     </defs>
     <use xlink:href="#DejaVuSans-Oblique-52" transform="translate(0 0.09375)"/>
     <use xlink:href="#DejaVuSans-Oblique-69" transform="translate(69.482422 -16.3125) scale(0.7)"/>
     <use xlink:href="#DejaVuSans-Oblique-6e" transform="translate(88.930664 -16.3125) scale(0.7)"/>
    </g>
   </g>
   <g id="text_2">
    <!-- $V_{in}$ -->
    <g transform="translate(3.6 251.226875) scale(0.125 -0.125)">
     <defs>
      <path id="DejaVuSans-Oblique-56" d="M 1319 0 
L 500 4666 
L 1119 4666 
L 1797 653 
L 4063 4666 
L 4750 4666 
L 2053 0 
L 1319 0 
z
" transform="scale(0.015625)"/>
     </defs>
     <use xlink:href="#DejaVuSans-Oblique-56" transform="translate(0 0.09375)"/>
     <use xlink:href="#DejaVuSans-Oblique-69" transform="translate(68.408203 -16.3125) scale(0.7)"/>
     <use xlink:href="#DejaVuSans-Oblique-6e" transform="translate(87.856445 -16.3125) scale(0.7)"/>
    </g>
   </g>
   <g id="text_3">
    <!-- $C_1$ -->
    <g transform="translate(138.985 91.146875) scale(0.125 -0.125)">
     <defs>
      <path id="DejaVuSans-Oblique-43" d="M 4447 4306 
L 4319 3641 
Q 4019 3944 3683 4091 
Q 3347 4238 2956 4238 
Q 2422 4238 2017 3981 
Q 1613 3725 1319 3200 
Q 1131 2863 1032 2486 
Q 934 2109 934 1728 
Q 934 1091 1264 756 
Q 1594 422 2222 422 
Q 2656 422 3056 561 
Q 3456 700 3834 978 
L 3688 231 
Q 3316 72 2936 -9 
Q 2556 -91 2175 -91 
Q 1278 -91 773 396 
Q 269 884 269 1753 
Q 269 2309 461 2846 
Q 653 3384 1013 3828 
Q 1394 4300 1883 4525 
Q 2372 4750 3022 4750 
Q 3422 4750 3780 4639 
Q 4138 4528 4447 4306 
z
" transform="scale(0.015625)"/>
      <path id="DejaVuSans-31" d="M 794 531 
L 1825 531 
L 1825 4091 
L 703 3866 
L 703 4441 
L 1819 4666 
L 2450 4666 
L 2450 531 
L 3481 531 
L 3481 0 
L 794 0 
L 794 531 
z
" transform="scale(0.015625)"/>
     </defs>
     <use xlink:href="#DejaVuSans-Oblique-43" transform="translate(0 0.78125)"/>
     <use xlink:href="#DejaVuSans-31" transform="translate(69.824219 -15.625) scale(0.7)"/>
    </g>
   </g>
   <g id="text_4">
    <!-- $V_{dd}$ -->
    <g transform="translate(156.2725 13.098047) scale(0.125 -0.125)">
     <defs>
      <path id="DejaVuSans-Oblique-64" d="M 2675 525 
Q 2444 222 2128 65 
Q 1813 -91 1428 -91 
Q 903 -91 598 267 
Q 294 625 294 1247 
Q 294 1766 478 2236 
Q 663 2706 1013 3078 
Q 1244 3325 1534 3454 
Q 1825 3584 2144 3584 
Q 2481 3584 2739 3421 
Q 2997 3259 3138 2956 
L 3513 4863 
L 4091 4863 
L 3144 0 
L 2566 0 
L 2675 525 
z
M 891 1350 
Q 891 897 1095 644 
Q 1300 391 1663 391 
Q 1931 391 2161 520 
Q 2391 650 2566 903 
Q 2750 1166 2856 1509 
Q 2963 1853 2963 2188 
Q 2963 2622 2758 2865 
Q 2553 3109 2194 3109 
Q 1922 3109 1687 2981 
Q 1453 2853 1288 2613 
Q 1106 2353 998 2009 
Q 891 1666 891 1350 
z
" transform="scale(0.015625)"/>
     </defs>
     <use xlink:href="#DejaVuSans-Oblique-56" transform="translate(0 0.09375)"/>
     <use xlink:href="#DejaVuSans-Oblique-64" transform="translate(68.408203 -16.3125) scale(0.7)"/>
     <use xlink:href="#DejaVuSans-Oblique-64" transform="translate(112.841797 -16.3125) scale(0.7)"/>
    </g>
   </g>
   <g id="patch_14">
    <path d="M 166.335 144.397656 
C 167.051048 144.397656 167.737866 144.113167 168.244188 143.606845 
C 168.750511 143.100522 169.035 142.413705 169.035 141.697656 
C 169.035 140.981608 168.750511 140.294791 168.244188 139.788468 
C 167.737866 139.282145 167.051048 138.997656 166.335 138.997656 
C 165.618952 138.997656 164.932134 139.282145 164.425812 139.788468 
C 163.919489 140.294791 163.635 140.981608 163.635 141.697656 
C 163.635 142.413705 163.919489 143.100522 164.425812 143.606845 
C 164.932134 144.113167 165.618952 144.397656 166.335 144.397656 
z
" clip-path="url(#p7e84bb2820)" style="stroke: #000000; stroke-width: 2; stroke-linejoin: miter"/>
   </g>
   <g id="patch_15">
    <path d="M 166.335 57.997656 
C 167.051048 57.997656 167.737866 57.713167 168.244188 57.206845 
C 168.750511 56.700522 169.035 56.013705 169.035 55.297656 
C 169.035 54.581608 168.750511 53.894791 168.244188 53.388468 
C 167.737866 52.882145 167.051048 52.597656 166.335 52.597656 
C 165.618952 52.597656 164.932134 52.882145 164.425812 53.388468 
C 163.919489 53.894791 163.635 54.581608 163.635 55.297656 
C 163.635 56.013705 163.919489 56.700522 164.425812 57.206845 
C 164.932134 57.713167 165.618952 57.997656 166.335 57.997656 
z
" clip-path="url(#p7e84bb2820)" style="stroke: #000000; stroke-width: 2; stroke-linejoin: miter"/>
   </g>
   <g id="patch_16">
    <path d="M 310.335 72.397656 
C 311.051048 72.397656 311.737866 72.113167 312.244188 71.606845 
C 312.750511 71.100522 313.035 70.413705 313.035 69.697656 
C 313.035 68.981608 312.750511 68.294791 312.244188 67.788468 
C 311.737866 67.282145 311.051048 66.997656 310.335 66.997656 
C 309.618952 66.997656 308.932134 67.282145 308.425812 67.788468 
C 307.919489 68.294791 307.635 68.981608 307.635 69.697656 
C 307.635 70.413705 307.919489 71.100522 308.425812 71.606845 
C 308.932134 72.113167 309.618952 72.397656 310.335 72.397656 
z
" clip-path="url(#p7e84bb2820)" style="fill: #ffffff; stroke: #000000; stroke-width: 2; stroke-linejoin: miter"/>
   </g>
   <g id="text_5">
    <!-- $v_{out}$ -->
    <g transform="translate(316.635 73.146875) scale(0.125 -0.125)">
     <defs>
      <path id="DejaVuSans-Oblique-76" d="M 459 3500 
L 1069 3500 
L 1581 525 
L 3256 3500 
L 3866 3500 
L 1875 0 
L 1100 0 
L 459 3500 
z
" transform="scale(0.015625)"/>
      <path id="DejaVuSans-Oblique-6f" d="M 1625 -91 
Q 1009 -91 651 289 
Q 294 669 294 1325 
Q 294 1706 417 2101 
Q 541 2497 738 2766 
Q 1047 3184 1428 3384 
Q 1809 3584 2291 3584 
Q 2888 3584 3255 3212 
Q 3622 2841 3622 2241 
Q 3622 1825 3500 1412 
Q 3378 1000 3181 728 
Q 2875 309 2494 109 
Q 2113 -91 1625 -91 
z
M 891 1344 
Q 891 869 1089 633 
Q 1288 397 1691 397 
Q 2269 397 2648 901 
Q 3028 1406 3028 2181 
Q 3028 2634 2825 2865 
Q 2622 3097 2228 3097 
Q 1903 3097 1650 2945 
Q 1397 2794 1197 2484 
Q 1050 2253 970 1956 
Q 891 1659 891 1344 
z
" transform="scale(0.015625)"/>
      <path id="DejaVuSans-Oblique-75" d="M 428 1388 
L 838 3500 
L 1416 3500 
L 1006 1409 
Q 975 1256 961 1147 
Q 947 1038 947 966 
Q 947 700 1109 554 
Q 1272 409 1569 409 
Q 2031 409 2368 721 
Q 2706 1034 2809 1563 
L 3194 3500 
L 3769 3500 
L 3091 0 
L 2516 0 
L 2631 550 
Q 2388 244 2052 76 
Q 1716 -91 1338 -91 
Q 878 -91 622 161 
Q 366 413 366 863 
Q 366 956 381 1097 
Q 397 1238 428 1388 
z
" transform="scale(0.015625)"/>
      <path id="DejaVuSans-Oblique-74" d="M 2706 3500 
L 2619 3053 
L 1472 3053 
L 1100 1153 
Q 1081 1047 1072 975 
Q 1063 903 1063 863 
Q 1063 663 1183 572 
Q 1303 481 1569 481 
L 2150 481 
L 2053 0 
L 1503 0 
Q 991 0 739 200 
Q 488 400 488 806 
Q 488 878 497 964 
Q 506 1050 525 1153 
L 897 3053 
L 409 3053 
L 500 3500 
L 978 3500 
L 1172 4494 
L 1747 4494 
L 1556 3500 
L 2706 3500 
z
" transform="scale(0.015625)"/>
     </defs>
     <use xlink:href="#DejaVuSans-Oblique-76" transform="translate(0 0.3125)"/>
     <use xlink:href="#DejaVuSans-Oblique-6f" transform="translate(59.179688 -16.09375) scale(0.7)"/>
     <use xlink:href="#DejaVuSans-Oblique-75" transform="translate(102.006836 -16.09375) scale(0.7)"/>
     <use xlink:href="#DejaVuSans-Oblique-74" transform="translate(146.37207 -16.09375) scale(0.7)"/>
    </g>
   </g>
  </g>
 </g>
 <defs>
  <clipPath id="p7e84bb2820">
   <rect x="7.737" y="4.021656" width="319.836" height="336.072"/>
  </clipPath>
 </defs>
</svg>