<?xml version="1.0" encoding="utf-8" standalone="no"?>
<!DOCTYPE svg PUBLIC "-//W3C//DTD SVG 1.1//EN"
  "http://www.w3.org/Graphics/SVG/1.1/DTD/svg11.dtd">
<svg xmlns:xlink="http://www.w3.org/1999/xlink" width="328.6455pt" height="254.04pt" viewBox="0 0 328.6455 254.04" xmlns="http://www.w3.org/2000/svg" version="1.1">
 <metadata>
  <rdf:RDF xmlns:dc="http://purl.org/dc/elements/1.1/" xmlns:cc="http://creativecommons.org/ns#" xmlns:rdf="http://www.w3.org/1999/02/22-rdf-syntax-ns#">
   <cc:Work>
    <dc:type rdf:resource="http://purl.org/dc/dcmitype/StillImage"/>
    <dc:date>2023-09-26T19:07:20.006360</dc:date>
    <dc:format>image/svg+xml</dc:format>
    <dc:creator>
     <cc:Agent>
      <dc:title>Matplotlib v3.6.3, https://matplotlib.org/</dc:title>
     </cc:Agent>
    </dc:creator>
   </cc:Work>
  </rdf:RDF>
 </metadata>
 <defs>
  <style type="text/css">*{stroke-linejoin: round; stroke-linecap: butt}</style>
 </defs>
 <g id="figure_1">
  <g id="patch_1">
   <path d="M 0 254.04 
L 328.6455 254.04 
L 328.6455 0 
L 0 0 
z
" style="fill: #ffffff"/>
  </g>
  <g id="axes_1">
   <g id="line2d_1">
    <path d="M 38.523 54.3 
L 51.723 54.3 
" clip-path="url(#pd781ad8601)" style="fill: none; stroke: #000000; stroke-width: 2; stroke-linecap: round"/>
   </g>
   <g id="line2d_2">
    <path d="M 51.723 41.1 
L 51.723 67.5 
" clip-path="url(#pd781ad8601)" style="fill: none; stroke: #000000; stroke-width: 2; stroke-linecap: round"/>
   </g>
   <g id="line2d_3">
    <path d="M 51.723 47.7 
L 65.583 35.82 
L 65.583 29.22 
" clip-path="url(#pd781ad8601)" style="fill: none; stroke: #000000; stroke-width: 2; stroke-linecap: round"/>
   </g>
   <g id="line2d_4">
    <path d="M 51.723 60.9 
L 65.583 72.78 
L 65.583 79.38 
" clip-path="url(#pd781ad8601)" style="fill: none; stroke: #000000; stroke-width: 2; stroke-linecap: round"/>
   </g>
   <g id="line2d_5">
    <path d="M 51.723 60.9 
L 58.749691 66.922878 
" clip-path="url(#pd781ad8601)" style="fill: none; stroke: #000000; stroke-width: 2; stroke-linecap: round"/>
   </g>
   <g id="patch_2">
    <path d="M 61.09254 64.189554 
L 65.583 72.78 
L 56.406842 69.656201 
z
" clip-path="url(#pd781ad8601)"/>
   </g>
   <g id="line2d_6">
    <path d="M 38.523 54.3 
L 38.523 81.3 
L 38.523 108.3 
" clip-path="url(#pd781ad8601)" style="fill: none; stroke: #000000; stroke-width: 2; stroke-linecap: round"/>
   </g>
   <g id="line2d_7">
    <path d="M 38.523 108.3 
L 38.523 133.5 
L 38.523 158.7 
" clip-path="url(#pd781ad8601)" style="fill: none; stroke: #000000; stroke-width: 2; stroke-linecap: round"/>
   </g>
   <g id="line2d_8">
    <path d="M 38.523 158.7 
L 51.723 158.7 
" clip-path="url(#pd781ad8601)" style="fill: none; stroke: #000000; stroke-width: 2; stroke-linecap: round"/>
   </g>
   <g id="line2d_9">
    <path d="M 51.723 145.5 
L 51.723 171.9 
" clip-path="url(#pd781ad8601)" style="fill: none; stroke: #000000; stroke-width: 2; stroke-linecap: round"/>
   </g>
   <g id="line2d_10">
    <path d="M 51.723 152.1 
L 65.583 140.22 
L 65.583 133.62 
" clip-path="url(#pd781ad8601)" style="fill: none; stroke: #000000; stroke-width: 2; stroke-linecap: round"/>
   </g>
   <g id="line2d_11">
    <path d="M 51.723 165.3 
L 65.583 177.18 
L 65.583 183.78 
" clip-path="url(#pd781ad8601)" style="fill: none; stroke: #000000; stroke-width: 2; stroke-linecap: round"/>
   </g>
   <g id="line2d_12">
    <path d="M 65.583 140.22 
L 58.556309 146.242878 
" clip-path="url(#pd781ad8601)" style="fill: none; stroke: #000000; stroke-width: 2; stroke-linecap: round"/>
   </g>
   <g id="patch_3">
    <path d="M 60.899158 148.976201 
L 51.723 152.1 
L 56.21346 143.509554 
z
" clip-path="url(#pd781ad8601)"/>
   </g>
   <g id="line2d_13">
    <path d="M 65.583 29.22 
L 65.583 14.82 
" clip-path="url(#pd781ad8601)" style="fill: none; stroke: #000000; stroke-width: 2; stroke-linecap: round"/>
   </g>
   <g id="line2d_14">
    <path d="M 65.583 14.82 
L 58.833 14.82 
" clip-path="url(#pd781ad8601)" style="fill: none; stroke: #000000; stroke-width: 2; stroke-linecap: round"/>
   </g>
   <g id="line2d_15">
    <path d="M 65.583 14.82 
L 72.333 14.82 
" clip-path="url(#pd781ad8601)" style="fill: none; stroke: #000000; stroke-width: 2; stroke-linecap: round"/>
   </g>
   <g id="line2d_16">
    <path d="M 38.523 108.3 
L 29.523 108.3 
L 20.523 108.3 
" clip-path="url(#pd781ad8601)" style="fill: none; stroke: #000000; stroke-width: 2; stroke-linecap: round"/>
   </g>
   <g id="line2d_17">
    <path d="M 65.583 79.38 
L 65.583 93.78 
L 65.583 108.18 
" clip-path="url(#pd781ad8601)" style="fill: none; stroke: #000000; stroke-width: 2; stroke-linecap: round"/>
   </g>
   <g id="line2d_18">
    <path d="M 65.583 108.18 
L 101.583 108.18 
L 101.71707 105.215813 
L 102.12476 102.224893 
L 102.797001 99.458083 
L 103.702538 97.147432 
L 104.227567 96.225692 
L 104.790547 95.486729 
L 105.382767 94.946119 
L 105.994902 94.615256 
L 106.617207 94.501116 
L 107.23972 94.606102 
L 107.852478 94.928004 
L 108.445723 95.460035 
L 109.010106 96.190982 
L 109.536888 97.105436 
L 110.446825 99.404309 
L 111.124342 102.16385 
L 111.53774 105.15262 
L 111.677472 108.119957 
L 111.556942 110.816994 
L 111.211382 113.017535 
L 110.694898 114.537024 
L 110.393537 114.998989 
L 110.075928 115.248023 
L 109.751923 115.278878 
L 109.431509 115.090903 
L 109.124597 114.68806 
L 108.589292 113.276085 
L 108.216029 111.161374 
L 108.061236 108.521284 
L 108.163019 105.577236 
L 108.537963 102.576142 
L 109.179748 99.7697 
L 110.059671 97.393281 
L 110.574402 96.430506 
L 111.129057 95.646192 
L 111.715102 95.056869 
L 112.323342 94.674959 
L 112.944113 94.508513 
L 113.567487 94.561038 
L 114.183482 94.831428 
L 114.782271 95.313983 
L 115.35439 95.998532 
L 115.890935 96.870645 
L 116.825621 99.100471 
L 117.53306 101.816447 
L 117.979046 104.790789 
L 118.151297 107.774044 
L 118.06049 110.51601 
L 117.739365 112.786723 
L 117.239977 114.395742 
L 116.943936 114.907431 
L 116.629332 115.20812 
L 116.305952 115.291471 
L 115.983768 115.155725 
L 115.672731 114.803746 
L 115.382551 114.242952 
L 114.901228 112.546352 
L 114.605289 110.208218 
L 114.544678 107.424645 
L 114.749602 104.429087 
L 115.227998 101.472776 
L 115.964866 98.803655 
L 116.923531 96.645578 
L 117.469371 95.816862 
L 118.048713 95.17954 
L 118.652502 94.747045 
L 119.271169 94.528495 
L 119.894831 94.528495 
L 120.513498 94.747045 
L 121.117287 95.17954 
L 121.696629 95.816862 
L 122.242469 96.645578 
L 122.74646 97.64822 
L 123.600065 100.087527 
L 124.210979 102.930202 
L 124.553087 105.937835 
L 124.622821 108.858178 
L 124.439457 111.446309 
L 124.043496 113.485163 
L 123.493269 114.803746 
L 123.182232 115.155725 
L 122.860048 115.291471 
L 122.536668 115.20812 
L 122.222064 114.907431 
L 121.926023 114.395742 
L 121.426635 112.786723 
L 121.10551 110.51601 
L 121.014703 107.774044 
L 121.186954 104.790789 
L 121.63294 101.816447 
L 122.340379 99.100471 
L 123.275065 96.870645 
L 123.81161 95.998532 
L 124.383729 95.313983 
L 124.982518 94.831428 
L 125.598513 94.561038 
L 126.221887 94.508513 
L 126.842658 94.674959 
L 127.450898 95.056869 
L 128.036943 95.646192 
L 128.591598 96.430506 
L 129.106329 97.393281 
L 129.986252 99.7697 
L 130.628037 102.576142 
L 131.002981 105.577236 
L 131.104764 108.521284 
L 130.949971 111.161374 
L 130.576708 113.276085 
L 130.041403 114.68806 
L 129.734491 115.090903 
L 129.414077 115.278878 
L 129.090072 115.248023 
L 128.772463 114.998989 
L 128.471102 114.537024 
L 127.954618 113.017535 
L 127.609058 110.816994 
L 127.488528 108.119957 
L 127.62826 105.15262 
L 128.041658 102.16385 
L 128.719175 99.404309 
L 129.629112 97.105436 
L 130.155894 96.190982 
L 130.720277 95.460035 
L 131.313522 94.928004 
L 131.92628 94.606102 
L 132.548793 94.501116 
L 133.171098 94.615256 
L 133.783233 94.946119 
L 134.375453 95.486729 
L 134.938433 96.225692 
L 135.463462 97.147432 
L 136.368999 99.458083 
L 137.04124 102.224893 
L 137.44893 105.215813 
L 137.583 108.18 
L 173.583 108.18 
L 173.583 108.18 
" clip-path="url(#pd781ad8601)" style="fill: none; stroke: #000000; stroke-width: 2; stroke-linecap: round"/>
   </g>
   <g id="line2d_19">
    <path d="M 65.583 108.18 
L 65.583 122.58 
L 65.583 136.98 
" clip-path="url(#pd781ad8601)" style="fill: none; stroke: #000000; stroke-width: 2; stroke-linecap: round"/>
   </g>
   <g id="line2d_20">
    <path d="M 173.583 108.18 
L 224.343 108.18 
M 224.343 99.18 
L 224.343 117.18 
M 230.823 99.18 
L 230.823 117.18 
M 230.823 108.18 
L 281.583 108.18 
" clip-path="url(#pd781ad8601)" style="fill: none; stroke: #000000; stroke-width: 2; stroke-linecap: round"/>
   </g>
   <g id="line2d_21">
    <path d="M 281.583 108.18 
L 281.583 144.18 
L 290.583 147.18 
L 272.583 153.18 
L 290.583 159.18 
L 272.583 165.18 
L 290.583 171.18 
L 272.583 177.18 
L 281.583 180.18 
L 281.583 216.18 
" clip-path="url(#pd781ad8601)" style="fill: none; stroke: #000000; stroke-width: 2; stroke-linecap: round"/>
   </g>
   <g id="line2d_22">
    <path d="M 281.583 108.18 
L 290.583 108.18 
L 299.583 108.18 
" clip-path="url(#pd781ad8601)" style="fill: none; stroke: #000000; stroke-width: 2; stroke-linecap: round"/>
   </g>
   <g id="line2d_23">
    <path d="M 281.583 216.18 
L 290.583 216.18 
L 299.583 216.18 
" clip-path="url(#pd781ad8601)" style="fill: none; stroke: #000000; stroke-width: 2; stroke-linecap: round"/>
   </g>
   <g id="line2d_24">
    <path d="M 281.583 216.18 
L 173.583 216.18 
L 65.583 216.18 
" clip-path="url(#pd781ad8601)" style="fill: none; stroke: #000000; stroke-width: 2; stroke-linecap: round"/>
   </g>
   <g id="line2d_25">
    <path d="M 65.583 216.18 
L 65.583 230.58 
L 56.583 230.58 
L 74.583 230.58 
M 59.283 234.9 
L 71.883 234.9 
M 63.783 239.22 
L 67.383 239.22 
" clip-path="url(#pd781ad8601)" style="fill: none; stroke: #000000; stroke-width: 2; stroke-linecap: round"/>
   </g>
   <g id="line2d_26">
    <path d="M 65.583 216.18 
L 65.583 199.98 
L 65.583 183.78 
" clip-path="url(#pd781ad8601)" style="fill: none; stroke: #000000; stroke-width: 2; stroke-linecap: round"/>
   </g>
   <g id="text_1">
    <!-- $L_1$ -->
    <g transform="translate(113.1455 88.301506) scale(0.125 -0.125)">
     <defs>
      <path id="DejaVuSans-Oblique-4c" d="M 1075 4666 
L 1709 4666 
L 909 525 
L 3181 525 
L 3078 0 
L 172 0 
L 1075 4666 
z
" transform="scale(0.015625)"/>
      <path id="DejaVuSans-31" d="M 794 531 
L 1825 531 
L 1825 4091 
L 703 3866 
L 703 4441 
L 1819 4666 
L 2450 4666 
L 2450 531 
L 3481 531 
L 3481 0 
L 794 0 
L 794 531 
z
" transform="scale(0.015625)"/>
     </defs>
     <use xlink:href="#DejaVuSans-Oblique-4c" transform="translate(0 0.09375)"/>
     <use xlink:href="#DejaVuSans-31" transform="translate(55.712891 -16.3125) scale(0.7)"/>
    </g>
   </g>
   <g id="text_2">
    <!-- $C_1$ -->
    <g transform="translate(220.208 92.980391) scale(0.125 -0.125)">
     <defs>
      <path id="DejaVuSans-Oblique-43" d="M 4447 4306 
L 4319 3641 
Q 4019 3944 3683 4091 
Q 3347 4238 2956 4238 
Q 2422 4238 2017 3981 
Q 1613 3725 1319 3200 
Q 1131 2863 1032 2486 
Q 934 2109 934 1728 
Q 934 1091 1264 756 
Q 1594 422 2222 422 
Q 2656 422 3056 561 
Q 3456 700 3834 978 
L 3688 231 
Q 3316 72 2936 -9 
Q 2556 -91 2175 -91 
Q 1278 -91 773 396 
Q 269 884 269 1753 
Q 269 2309 461 2846 
Q 653 3384 1013 3828 
Q 1394 4300 1883 4525 
Q 2372 4750 3022 4750 
Q 3422 4750 3780 4639 
Q 4138 4528 4447 4306 
z
" transform="scale(0.015625)"/>
     </defs>
     <use xlink:href="#DejaVuSans-Oblique-43" transform="translate(0 0.78125)"/>
     <use xlink:href="#DejaVuSans-31" transform="translate(69.824219 -15.625) scale(0.7)"/>
    </g>
   </g>
   <g id="text_3">
    <!-- $R_L$ -->
    <g transform="translate(254.983 165.629219) scale(0.125 -0.125)">
     <defs>
      <path id="DejaVuSans-Oblique-52" d="M 1613 4147 
L 1294 2491 
L 2106 2491 
Q 2584 2491 2879 2755 
Q 3175 3019 3175 3444 
Q 3175 3784 2976 3965 
Q 2778 4147 2406 4147 
L 1613 4147 
z
M 2772 2241 
Q 2972 2194 3105 2009 
Q 3238 1825 3413 1275 
L 3809 0 
L 3144 0 
L 2778 1197 
Q 2638 1659 2453 1815 
Q 2269 1972 1888 1972 
L 1191 1972 
L 806 0 
L 172 0 
L 1081 4666 
L 2503 4666 
Q 3150 4666 3495 4373 
Q 3841 4081 3841 3531 
Q 3841 3044 3547 2687 
Q 3253 2331 2772 2241 
z
" transform="scale(0.015625)"/>
     </defs>
     <use xlink:href="#DejaVuSans-Oblique-52" transform="translate(0 0.09375)"/>
     <use xlink:href="#DejaVuSans-Oblique-4c" transform="translate(69.482422 -16.3125) scale(0.7)"/>
    </g>
   </g>
   <g id="text_4">
    <!-- - -->
    <g transform="translate(311.728117 138.629219) scale(0.125 -0.125)">
     <defs>
      <path id="DejaVuSans-2d" d="M 313 2009 
L 1997 2009 
L 1997 1497 
L 313 1497 
L 313 2009 
z
" transform="scale(0.015625)"/>
     </defs>
     <use xlink:href="#DejaVuSans-2d"/>
    </g>
   </g>
   <g id="text_5">
    <!-- $v_{out}$ -->
    <g transform="translate(302.9205 165.629219) scale(0.125 -0.125)">
     <defs>
      <path id="DejaVuSans-Oblique-76" d="M 459 3500 
L 1069 3500 
L 1581 525 
L 3256 3500 
L 3866 3500 
L 1875 0 
L 1100 0 
L 459 3500 
z
" transform="scale(0.015625)"/>
      <path id="DejaVuSans-Oblique-6f" d="M 1625 -91 
Q 1009 -91 651 289 
Q 294 669 294 1325 
Q 294 1706 417 2101 
Q 541 2497 738 2766 
Q 1047 3184 1428 3384 
Q 1809 3584 2291 3584 
Q 2888 3584 3255 3212 
Q 3622 2841 3622 2241 
Q 3622 1825 3500 1412 
Q 3378 1000 3181 728 
Q 2875 309 2494 109 
Q 2113 -91 1625 -91 
z
M 891 1344 
Q 891 869 1089 633 
Q 1288 397 1691 397 
Q 2269 397 2648 901 
Q 3028 1406 3028 2181 
Q 3028 2634 2825 2865 
Q 2622 3097 2228 3097 
Q 1903 3097 1650 2945 
Q 1397 2794 1197 2484 
Q 1050 2253 970 1956 
Q 891 1659 891 1344 
z
" transform="scale(0.015625)"/>
      <path id="DejaVuSans-Oblique-75" d="M 428 1388 
L 838 3500 
L 1416 3500 
L 1006 1409 
Q 975 1256 961 1147 
Q 947 1038 947 966 
Q 947 700 1109 554 
Q 1272 409 1569 409 
Q 2031 409 2368 721 
Q 2706 1034 2809 1563 
L 3194 3500 
L 3769 3500 
L 3091 0 
L 2516 0 
L 2631 550 
Q 2388 244 2052 76 
Q 1716 -91 1338 -91 
Q 878 -91 622 161 
Q 366 413 366 863 
Q 366 956 381 1097 
Q 397 1238 428 1388 
z
" transform="scale(0.015625)"/>
      <path id="DejaVuSans-Oblique-74" d="M 2706 3500 
L 2619 3053 
L 1472 3053 
L 1100 1153 
Q 1081 1047 1072 975 
Q 1063 903 1063 863 
Q 1063 663 1183 572 
Q 1303 481 1569 481 
L 2150 481 
L 2053 0 
L 1503 0 
Q 991 0 739 200 
Q 488 400 488 806 
Q 488 878 497 964 
Q 506 1050 525 1153 
L 897 3053 
L 409 3053 
L 500 3500 
L 978 3500 
L 1172 4494 
L 1747 4494 
L 1556 3500 
L 2706 3500 
z
" transform="scale(0.015625)"/>
     </defs>
     <use xlink:href="#DejaVuSans-Oblique-76" transform="translate(0 0.3125)"/>
     <use xlink:href="#DejaVuSans-Oblique-6f" transform="translate(59.179688 -16.09375) scale(0.7)"/>
     <use xlink:href="#DejaVuSans-Oblique-75" transform="translate(102.006836 -16.09375) scale(0.7)"/>
     <use xlink:href="#DejaVuSans-Oblique-74" transform="translate(146.37207 -16.09375) scale(0.7)"/>
    </g>
   </g>
   <g id="text_6">
    <!-- $+$ -->
    <g transform="translate(308.733 192.629219) scale(0.125 -0.125)">
     <defs>
      <path id="DejaVuSans-2b" d="M 2944 4013 
L 2944 2272 
L 4684 2272 
L 4684 1741 
L 2944 1741 
L 2944 0 
L 2419 0 
L 2419 1741 
L 678 1741 
L 678 2272 
L 2419 2272 
L 2419 4013 
L 2944 4013 
z
" transform="scale(0.015625)"/>
     </defs>
     <use xlink:href="#DejaVuSans-2b" transform="translate(0 0.296875)"/>
    </g>
   </g>
   <g id="patch_4">
    <path d="M 38.523 111 
C 39.239048 111 39.925866 110.715511 40.432188 110.209188 
C 40.938511 109.702866 41.223 109.016048 41.223 108.3 
C 41.223 107.583952 40.938511 106.897134 40.432188 106.390812 
C 39.925866 105.884489 39.239048 105.6 38.523 105.6 
C 37.806952 105.6 37.120134 105.884489 36.613812 106.390812 
C 36.107489 106.897134 35.823 107.583952 35.823 108.3 
C 35.823 109.016048 36.107489 109.702866 36.613812 110.209188 
C 37.120134 110.715511 37.806952 111 38.523 111 
z
" clip-path="url(#pd781ad8601)" style="fill: #ff0000; stroke: #ff0000; stroke-width: 2; stroke-linejoin: miter"/>
   </g>
   <g id="text_7">
    <!-- 1 -->
    <g style="fill: #ff0000" transform="translate(23.369875 103.398047) scale(0.125 -0.125)">
     <use xlink:href="#DejaVuSans-31"/>
    </g>
   </g>
   <g id="patch_5">
    <path d="M 65.583 31.92 
C 66.299048 31.92 66.985866 31.635511 67.492188 31.129188 
C 67.998511 30.622866 68.283 29.936048 68.283 29.22 
C 68.283 28.503952 67.998511 27.817134 67.492188 27.310812 
C 66.985866 26.804489 66.299048 26.52 65.583 26.52 
C 64.866952 26.52 64.180134 26.804489 63.673812 27.310812 
C 63.167489 27.817134 62.883 28.503952 62.883 29.22 
C 62.883 29.936048 63.167489 30.622866 63.673812 31.129188 
C 64.180134 31.635511 64.866952 31.92 65.583 31.92 
z
" clip-path="url(#pd781ad8601)" style="fill: #ff0000; stroke: #ff0000; stroke-width: 2; stroke-linejoin: miter"/>
   </g>
   <g id="text_8">
    <!-- 3 -->
    <g style="fill: #ff0000" transform="translate(75.629875 31.518047) scale(0.125 -0.125)">
     <defs>
      <path id="DejaVuSans-33" d="M 2597 2516 
Q 3050 2419 3304 2112 
Q 3559 1806 3559 1356 
Q 3559 666 3084 287 
Q 2609 -91 1734 -91 
Q 1441 -91 1130 -33 
Q 819 25 488 141 
L 488 750 
Q 750 597 1062 519 
Q 1375 441 1716 441 
Q 2309 441 2620 675 
Q 2931 909 2931 1356 
Q 2931 1769 2642 2001 
Q 2353 2234 1838 2234 
L 1294 2234 
L 1294 2753 
L 1863 2753 
Q 2328 2753 2575 2939 
Q 2822 3125 2822 3475 
Q 2822 3834 2567 4026 
Q 2313 4219 1838 4219 
Q 1578 4219 1281 4162 
Q 984 4106 628 3988 
L 628 4550 
Q 988 4650 1302 4700 
Q 1616 4750 1894 4750 
Q 2613 4750 3031 4423 
Q 3450 4097 3450 3541 
Q 3450 3153 3228 2886 
Q 3006 2619 2597 2516 
z
" transform="scale(0.015625)"/>
     </defs>
     <use xlink:href="#DejaVuSans-33"/>
    </g>
   </g>
   <g id="patch_6">
    <path d="M 20.523 111 
C 21.239048 111 21.925866 110.715511 22.432188 110.209188 
C 22.938511 109.702866 23.223 109.016048 23.223 108.3 
C 23.223 107.583952 22.938511 106.897134 22.432188 106.390812 
C 21.925866 105.884489 21.239048 105.6 20.523 105.6 
C 19.806952 105.6 19.120134 105.884489 18.613812 106.390812 
C 18.107489 106.897134 17.823 107.583952 17.823 108.3 
C 17.823 109.016048 18.107489 109.702866 18.613812 110.209188 
C 19.120134 110.715511 19.806952 111 20.523 111 
z
" clip-path="url(#pd781ad8601)" style="fill: #ffffff; stroke: #000000; stroke-width: 2; stroke-linejoin: miter"/>
   </g>
   <g id="patch_7">
    <path d="M 65.583 110.88 
C 66.299048 110.88 66.985866 110.595511 67.492188 110.089188 
C 67.998511 109.582866 68.283 108.896048 68.283 108.18 
C 68.283 107.463952 67.998511 106.777134 67.492188 106.270812 
C 66.985866 105.764489 66.299048 105.48 65.583 105.48 
C 64.866952 105.48 64.180134 105.764489 63.673812 106.270812 
C 63.167489 106.777134 62.883 107.463952 62.883 108.18 
C 62.883 108.896048 63.167489 109.582866 63.673812 110.089188 
C 64.180134 110.595511 64.866952 110.88 65.583 110.88 
z
" clip-path="url(#pd781ad8601)" style="fill: #ff0000; stroke: #ff0000; stroke-width: 2; stroke-linejoin: miter"/>
   </g>
   <g id="text_9">
    <!-- 2 -->
    <g style="fill: #ff0000" transform="translate(72.029875 103.278047) scale(0.125 -0.125)">
     <defs>
      <path id="DejaVuSans-32" d="M 1228 531 
L 3431 531 
L 3431 0 
L 469 0 
L 469 531 
Q 828 903 1448 1529 
Q 2069 2156 2228 2338 
Q 2531 2678 2651 2914 
Q 2772 3150 2772 3378 
Q 2772 3750 2511 3984 
Q 2250 4219 1831 4219 
Q 1534 4219 1204 4116 
Q 875 4013 500 3803 
L 500 4441 
Q 881 4594 1212 4672 
Q 1544 4750 1819 4750 
Q 2544 4750 2975 4387 
Q 3406 4025 3406 3419 
Q 3406 3131 3298 2873 
Q 3191 2616 2906 2266 
Q 2828 2175 2409 1742 
Q 1991 1309 1228 531 
z
" transform="scale(0.015625)"/>
     </defs>
     <use xlink:href="#DejaVuSans-32"/>
    </g>
   </g>
   <g id="patch_8">
    <path d="M 173.583 110.88 
C 174.299048 110.88 174.985866 110.595511 175.492188 110.089188 
C 175.998511 109.582866 176.283 108.896048 176.283 108.18 
C 176.283 107.463952 175.998511 106.777134 175.492188 106.270812 
C 174.985866 105.764489 174.299048 105.48 173.583 105.48 
C 172.866952 105.48 172.180134 105.764489 171.673812 106.270812 
C 171.167489 106.777134 170.883 107.463952 170.883 108.18 
C 170.883 108.896048 171.167489 109.582866 171.673812 110.089188 
C 172.180134 110.595511 172.866952 110.88 173.583 110.88 
z
" clip-path="url(#pd781ad8601)" style="fill: #ff0000; stroke: #ff0000; stroke-width: 2; stroke-linejoin: miter"/>
   </g>
   <g id="text_10">
    <!-- 5 -->
    <g style="fill: #ff0000" transform="translate(172.829875 103.278047) scale(0.125 -0.125)">
     <defs>
      <path id="DejaVuSans-35" d="M 691 4666 
L 3169 4666 
L 3169 4134 
L 1269 4134 
L 1269 2991 
Q 1406 3038 1543 3061 
Q 1681 3084 1819 3084 
Q 2600 3084 3056 2656 
Q 3513 2228 3513 1497 
Q 3513 744 3044 326 
Q 2575 -91 1722 -91 
Q 1428 -91 1123 -41 
Q 819 9 494 109 
L 494 744 
Q 775 591 1075 516 
Q 1375 441 1709 441 
Q 2250 441 2565 725 
Q 2881 1009 2881 1497 
Q 2881 1984 2565 2268 
Q 2250 2553 1709 2553 
Q 1456 2553 1204 2497 
Q 953 2441 691 2322 
L 691 4666 
z
" transform="scale(0.015625)"/>
     </defs>
     <use xlink:href="#DejaVuSans-35"/>
    </g>
   </g>
   <g id="patch_9">
    <path d="M 281.583 110.88 
C 282.299048 110.88 282.985866 110.595511 283.492188 110.089188 
C 283.998511 109.582866 284.283 108.896048 284.283 108.18 
C 284.283 107.463952 283.998511 106.777134 283.492188 106.270812 
C 282.985866 105.764489 282.299048 105.48 281.583 105.48 
C 280.866952 105.48 280.180134 105.764489 279.673812 106.270812 
C 279.167489 106.777134 278.883 107.463952 278.883 108.18 
C 278.883 108.896048 279.167489 109.582866 279.673812 110.089188 
C 280.180134 110.595511 280.866952 110.88 281.583 110.88 
z
" clip-path="url(#pd781ad8601)" style="fill: #ff0000; stroke: #ff0000; stroke-width: 2; stroke-linejoin: miter"/>
   </g>
   <g id="text_11">
    <!-- 6 -->
    <g style="fill: #ff0000" transform="translate(280.829875 103.278047) scale(0.125 -0.125)">
     <defs>
      <path id="DejaVuSans-36" d="M 2113 2584 
Q 1688 2584 1439 2293 
Q 1191 2003 1191 1497 
Q 1191 994 1439 701 
Q 1688 409 2113 409 
Q 2538 409 2786 701 
Q 3034 994 3034 1497 
Q 3034 2003 2786 2293 
Q 2538 2584 2113 2584 
z
M 3366 4563 
L 3366 3988 
Q 3128 4100 2886 4159 
Q 2644 4219 2406 4219 
Q 1781 4219 1451 3797 
Q 1122 3375 1075 2522 
Q 1259 2794 1537 2939 
Q 1816 3084 2150 3084 
Q 2853 3084 3261 2657 
Q 3669 2231 3669 1497 
Q 3669 778 3244 343 
Q 2819 -91 2113 -91 
Q 1303 -91 875 529 
Q 447 1150 447 2328 
Q 447 3434 972 4092 
Q 1497 4750 2381 4750 
Q 2619 4750 2861 4703 
Q 3103 4656 3366 4563 
z
" transform="scale(0.015625)"/>
     </defs>
     <use xlink:href="#DejaVuSans-36"/>
    </g>
   </g>
   <g id="patch_10">
    <path d="M 299.583 110.88 
C 300.299048 110.88 300.985866 110.595511 301.492188 110.089188 
C 301.998511 109.582866 302.283 108.896048 302.283 108.18 
C 302.283 107.463952 301.998511 106.777134 301.492188 106.270812 
C 300.985866 105.764489 300.299048 105.48 299.583 105.48 
C 298.866952 105.48 298.180134 105.764489 297.673812 106.270812 
C 297.167489 106.777134 296.883 107.463952 296.883 108.18 
C 296.883 108.896048 297.167489 109.582866 297.673812 110.089188 
C 298.180134 110.595511 298.866952 110.88 299.583 110.88 
z
" clip-path="url(#pd781ad8601)" style="fill: #ffffff; stroke: #000000; stroke-width: 2; stroke-linejoin: miter"/>
   </g>
   <g id="patch_11">
    <path d="M 299.583 218.88 
C 300.299048 218.88 300.985866 218.595511 301.492188 218.089188 
C 301.998511 217.582866 302.283 216.896048 302.283 216.18 
C 302.283 215.463952 301.998511 214.777134 301.492188 214.270812 
C 300.985866 213.764489 300.299048 213.48 299.583 213.48 
C 298.866952 213.48 298.180134 213.764489 297.673812 214.270812 
C 297.167489 214.777134 296.883 215.463952 296.883 216.18 
C 296.883 216.896048 297.167489 217.582866 297.673812 218.089188 
C 298.180134 218.595511 298.866952 218.88 299.583 218.88 
z
" clip-path="url(#pd781ad8601)" style="fill: #ffffff; stroke: #000000; stroke-width: 2; stroke-linejoin: miter"/>
   </g>
   <g id="patch_12">
    <path d="M 65.583 218.88 
C 66.299048 218.88 66.985866 218.595511 67.492188 218.089188 
C 67.998511 217.582866 68.283 216.896048 68.283 216.18 
C 68.283 215.463952 67.998511 214.777134 67.492188 214.270812 
C 66.985866 213.764489 66.299048 213.48 65.583 213.48 
C 64.866952 213.48 64.180134 213.764489 63.673812 214.270812 
C 63.167489 214.777134 62.883 215.463952 62.883 216.18 
C 62.883 216.896048 63.167489 217.582866 63.673812 218.089188 
C 64.180134 218.595511 64.866952 218.88 65.583 218.88 
z
" clip-path="url(#pd781ad8601)" style="fill: #ff0000; stroke: #ff0000; stroke-width: 2; stroke-linejoin: miter"/>
   </g>
   <g id="text_12">
    <!-- 0 -->
    <g style="fill: #ff0000" transform="translate(72.029875 211.278047) scale(0.125 -0.125)">
     <defs>
      <path id="DejaVuSans-30" d="M 2034 4250 
Q 1547 4250 1301 3770 
Q 1056 3291 1056 2328 
Q 1056 1369 1301 889 
Q 1547 409 2034 409 
Q 2525 409 2770 889 
Q 3016 1369 3016 2328 
Q 3016 3291 2770 3770 
Q 2525 4250 2034 4250 
z
M 2034 4750 
Q 2819 4750 3233 4129 
Q 3647 3509 3647 2328 
Q 3647 1150 3233 529 
Q 2819 -91 2034 -91 
Q 1250 -91 836 529 
Q 422 1150 422 2328 
Q 422 3509 836 4129 
Q 1250 4750 2034 4750 
z
" transform="scale(0.015625)"/>
     </defs>
     <use xlink:href="#DejaVuSans-30"/>
    </g>
   </g>
  </g>
 </g>
 <defs>
  <clipPath id="pd781ad8601">
   <rect x="3.6" y="3.6" width="312.906" height="246.84"/>
  </clipPath>
 </defs>
</svg>