<?xml version="1.0" encoding="utf-8" standalone="no"?>
<!DOCTYPE svg PUBLIC "-//W3C//DTD SVG 1.1//EN"
  "http://www.w3.org/Graphics/SVG/1.1/DTD/svg11.dtd">
<svg xmlns:xlink="http://www.w3.org/1999/xlink" width="456.7536pt" height="260.764pt" viewBox="0 0 456.7536 260.764" xmlns="http://www.w3.org/2000/svg" version="1.1">
 <metadata>
  <rdf:RDF xmlns:dc="http://purl.org/dc/elements/1.1/" xmlns:cc="http://creativecommons.org/ns#" xmlns:rdf="http://www.w3.org/1999/02/22-rdf-syntax-ns#">
   <cc:Work>
    <dc:type rdf:resource="http://purl.org/dc/dcmitype/StillImage"/>
    <dc:date>2022-09-28T19:29:35.313268</dc:date>
    <dc:format>image/svg+xml</dc:format>
    <dc:creator>
     <cc:Agent>
      <dc:title>Matplotlib v3.5.3, https://matplotlib.org/</dc:title>
     </cc:Agent>
    </dc:creator>
   </cc:Work>
  </rdf:RDF>
 </metadata>
 <defs>
  <style type="text/css">*{stroke-linejoin: round; stroke-linecap: butt}</style>
 </defs>
 <g id="figure_1">
  <g id="patch_1">
   <path d="M 0 260.764 
L 456.7536 260.764 
L 456.7536 0 
L 0 0 
z
" style="fill: #ffffff"/>
  </g>
  <g id="axes_1">
   <g id="patch_2">
    <path d="M 151.6524 230.92 
L 151.6524 192.67 
L 151.6524 192.67 
M 151.6524 177.37 
L 151.6524 177.37 
L 151.6524 177.37 
L 151.6524 139.12 
L 151.6524 230.92 
" clip-path="url(#p973cd10e66)" style="fill: #ff0000; stroke: #ff0000; stroke-linejoin: miter"/>
   </g>
   <g id="patch_3">
    <path d="M 151.6524 192.67 
C 153.681204 192.67 155.627186 191.863948 157.061767 190.429367 
C 158.496348 188.994786 159.3024 187.048804 159.3024 185.02 
C 159.3024 182.991196 158.496348 181.045214 157.061767 179.610633 
C 155.627186 178.176052 153.681204 177.37 151.6524 177.37 
C 149.623596 177.37 147.677614 178.176052 146.243033 179.610633 
C 144.808452 181.045214 144.0024 182.991196 144.0024 185.02 
C 144.0024 187.048804 144.808452 188.994786 146.243033 190.429367 
C 147.677614 191.863948 149.623596 192.67 151.6524 192.67 
z
" clip-path="url(#p973cd10e66)" style="fill: #ff0000; stroke: #000000; stroke-width: 2; stroke-linejoin: miter"/>
   </g>
   <g id="patch_4">
    <path d="M 182.2524 139.12 
L 182.2524 154.42 
L 205.2024 139.12 
L 182.2524 123.82 
z
" clip-path="url(#p973cd10e66)" style="fill: #ff0000; stroke: #ff0000; stroke-linejoin: miter"/>
   </g>
   <g id="patch_5">
    <path d="M 266.4024 230.92 
L 266.4024 215.62 
L 266.4024 215.62 
M 266.4024 200.32 
L 266.4024 200.32 
L 266.4024 200.32 
L 266.4024 185.02 
L 266.4024 230.92 
" clip-path="url(#p973cd10e66)" style="fill: #008000; stroke: #008000; stroke-linejoin: miter"/>
   </g>
   <g id="patch_6">
    <path d="M 266.4024 215.62 
C 268.431204 215.62 270.377186 214.813948 271.811767 213.379367 
C 273.246348 211.944786 274.0524 209.998804 274.0524 207.97 
C 274.0524 205.941196 273.246348 203.995214 271.811767 202.560633 
C 270.377186 201.126052 268.431204 200.32 266.4024 200.32 
C 264.373596 200.32 262.427614 201.126052 260.993033 202.560633 
C 259.558452 203.995214 258.7524 205.941196 258.7524 207.97 
C 258.7524 209.998804 259.558452 211.944786 260.993033 213.379367 
C 262.427614 214.813948 264.373596 215.62 266.4024 215.62 
z
" clip-path="url(#p973cd10e66)" style="fill: #008000; stroke: #000000; stroke-width: 2; stroke-linejoin: miter"/>
   </g>
   <g id="patch_7">
    <path d="M 312.3024 185.02 
L 312.3024 200.32 
L 335.2524 185.02 
L 312.3024 169.72 
z
" clip-path="url(#p973cd10e66)" style="fill: #008000; stroke: #008000; stroke-linejoin: miter"/>
   </g>
   <g id="patch_8">
    <path d="M 199.0824 237.04 
L 199.22805 237.038844 
L 199.373662 237.035378 
L 199.519202 237.029602 
L 199.664632 237.021518 
L 199.809915 237.011127 
L 199.955014 236.998432 
L 200.099895 236.983437 
L 200.244519 236.966145 
L 200.38885 236.946561 
L 200.532853 236.924689 
L 200.67649 236.900535 
L 200.819726 236.874105 
L 200.962525 236.845406 
L 201.104851 236.814445 
L 201.246667 236.78123 
L 201.387939 236.745769 
L 201.52863 236.708071 
L 201.668705 236.668145 
L 201.808129 236.626003 
L 201.946867 236.581653 
L 202.084884 236.535108 
L 202.222145 236.486378 
L 202.358616 236.435477 
L 202.494261 236.382418 
L 202.629048 236.327212 
L 202.762942 236.269876 
L 202.89591 236.210422 
L 203.027917 236.148866 
L 203.158932 236.085223 
L 203.288919 236.019509 
L 203.417848 235.951742 
L 203.545686 235.881937 
L 203.6724 235.810113 
L 203.797958 235.736288 
L 203.92233 235.660479 
L 204.045483 235.582707 
L 204.167386 235.502991 
L 204.28801 235.421351 
L 204.407322 235.337807 
L 204.525295 235.252381 
L 204.641897 235.165094 
L 204.757099 235.075967 
L 204.870873 234.985025 
L 204.98319 234.892288 
L 205.094022 234.797781 
L 205.203339 234.701528 
L 205.311116 234.603552 
L 205.417325 234.503878 
L 205.521939 234.402532 
L 205.624932 234.299539 
L 205.726278 234.194925 
L 205.825952 234.088716 
L 205.923928 233.980939 
L 206.020181 233.871622 
L 206.114688 233.76079 
L 206.207425 233.648473 
L 206.298367 233.534699 
L 206.387494 233.419497 
L 206.474781 233.302895 
L 206.560207 233.184922 
L 206.643751 233.06561 
L 206.725391 232.944986 
L 206.805107 232.823083 
L 206.882879 232.69993 
L 206.958688 232.575558 
L 207.032513 232.45 
L 207.104337 232.323286 
L 207.174142 232.195448 
L 207.241909 232.066519 
L 207.307623 231.936532 
L 207.371266 231.805517 
L 207.432822 231.67351 
L 207.492276 231.540542 
L 207.549612 231.406648 
L 207.604818 231.271861 
L 207.657877 231.136216 
L 207.708778 230.999745 
L 207.757508 230.862484 
L 207.804053 230.724467 
L 207.848403 230.585729 
L 207.890545 230.446305 
L 207.930471 230.30623 
L 207.968169 230.165539 
L 208.00363 230.024267 
L 208.036845 229.882451 
L 208.067806 229.740125 
L 208.096505 229.597326 
L 208.122935 229.45409 
L 208.147089 229.310453 
L 208.168961 229.16645 
L 208.188545 229.022119 
L 208.205837 228.877495 
L 208.220832 228.732614 
L 208.233527 228.587515 
L 208.243918 228.442232 
L 208.252002 228.296802 
L 208.257778 228.151262 
L 208.261244 228.00565 
L 208.2624 227.86 
L 208.2624 126.88 
L 208.261244 126.73435 
L 208.257778 126.588738 
L 208.252002 126.443198 
L 208.243918 126.297768 
L 208.233527 126.152485 
L 208.220832 126.007386 
L 208.205837 125.862505 
L 208.188545 125.717881 
L 208.168961 125.57355 
L 208.147089 125.429547 
L 208.122935 125.28591 
L 208.096505 125.142674 
L 208.067806 124.999875 
L 208.036845 124.857549 
L 208.00363 124.715733 
L 207.968169 124.574461 
L 207.930471 124.43377 
L 207.890545 124.293695 
L 207.848403 124.154271 
L 207.804053 124.015533 
L 207.757508 123.877516 
L 207.708778 123.740255 
L 207.657877 123.603784 
L 207.604818 123.468139 
L 207.549612 123.333352 
L 207.492276 123.199458 
L 207.432822 123.06649 
L 207.371266 122.934483 
L 207.307623 122.803468 
L 207.241909 122.673481 
L 207.174142 122.544552 
L 207.104337 122.416714 
L 207.032513 122.29 
L 206.958688 122.164442 
L 206.882879 122.04007 
L 206.805107 121.916917 
L 206.725391 121.795014 
L 206.643751 121.67439 
L 206.560207 121.555078 
L 206.474781 121.437105 
L 206.387494 121.320503 
L 206.298367 121.205301 
L 206.207425 121.091527 
L 206.114688 120.97921 
L 206.020181 120.868378 
L 205.923928 120.759061 
L 205.825952 120.651284 
L 205.726278 120.545075 
L 205.624932 120.440461 
L 205.521939 120.337468 
L 205.417325 120.236122 
L 205.311116 120.136448 
L 205.203339 120.038472 
L 205.094022 119.942219 
L 204.98319 119.847712 
L 204.870873 119.754975 
L 204.757099 119.664033 
L 204.641897 119.574906 
L 204.525295 119.487619 
L 204.407322 119.402193 
L 204.28801 119.318649 
L 204.167386 119.237009 
L 204.045483 119.157293 
L 203.92233 119.079521 
L 203.797958 119.003712 
L 203.6724 118.929887 
L 203.545686 118.858063 
L 203.417848 118.788258 
L 203.288919 118.720491 
L 203.158932 118.654777 
L 203.027917 118.591134 
L 202.89591 118.529578 
L 202.762942 118.470124 
L 202.629048 118.412788 
L 202.494261 118.357582 
L 202.358616 118.304523 
L 202.222145 118.253622 
L 202.084884 118.204892 
L 201.946867 118.158347 
L 201.808129 118.113997 
L 201.668705 118.071855 
L 201.52863 118.031929 
L 201.387939 117.994231 
L 201.246667 117.95877 
L 201.104851 117.925555 
L 200.962525 117.894594 
L 200.819726 117.865895 
L 200.67649 117.839465 
L 200.532853 117.815311 
L 200.38885 117.793439 
L 200.244519 117.773855 
L 200.099895 117.756563 
L 199.955014 117.741568 
L 199.809915 117.728873 
L 199.664632 117.718482 
L 199.519202 117.710398 
L 199.373662 117.704622 
L 199.22805 117.701156 
L 199.0824 117.7 
L 106.2012 117.7 
L 106.05555 117.701156 
L 105.909938 117.704622 
L 105.764398 117.710398 
L 105.618968 117.718482 
L 105.473685 117.728873 
L 105.328586 117.741568 
L 105.183705 117.756563 
L 105.039081 117.773855 
L 104.89475 117.793439 
L 104.750747 117.815311 
L 104.60711 117.839465 
L 104.463874 117.865895 
L 104.321075 117.894594 
L 104.178749 117.925555 
L 104.036933 117.95877 
L 103.895661 117.994231 
L 103.75497 118.031929 
L 103.614895 118.071855 
L 103.475471 118.113997 
L 103.336733 118.158347 
L 103.198716 118.204892 
L 103.061455 118.253622 
L 102.924984 118.304523 
L 102.789339 118.357582 
L 102.654552 118.412788 
L 102.520658 118.470124 
L 102.38769 118.529578 
L 102.255683 118.591134 
L 102.124668 118.654777 
L 101.994681 118.720491 
L 101.865752 118.788258 
L 101.737914 118.858063 
L 101.6112 118.929887 
L 101.485642 119.003712 
L 101.36127 119.079521 
L 101.238117 119.157293 
L 101.116214 119.237009 
L 100.99559 119.318649 
L 100.876278 119.402193 
L 100.758305 119.487619 
L 100.641703 119.574906 
L 100.526501 119.664033 
L 100.412727 119.754975 
L 100.30041 119.847712 
L 100.189578 119.942219 
L 100.080261 120.038472 
L 99.972484 120.136448 
L 99.866275 120.236122 
L 99.761661 120.337468 
L 99.658668 120.440461 
L 99.557322 120.545075 
L 99.457648 120.651284 
L 99.359672 120.759061 
L 99.263419 120.868378 
L 99.168912 120.97921 
L 99.076175 121.091527 
L 98.985233 121.205301 
L 98.896106 121.320503 
L 98.808819 121.437105 
L 98.723393 121.555078 
L 98.639849 121.67439 
L 98.558209 121.795014 
L 98.478493 121.916917 
L 98.400721 122.04007 
L 98.324912 122.164442 
L 98.251087 122.29 
L 98.179263 122.416714 
L 98.109458 122.544552 
L 98.041691 122.673481 
L 97.975977 122.803468 
L 97.912334 122.934483 
L 97.850778 123.06649 
L 97.791324 123.199458 
L 97.733988 123.333352 
L 97.678782 123.468139 
L 97.625723 123.603784 
L 97.574822 123.740255 
L 97.526092 123.877516 
L 97.479547 124.015533 
L 97.435197 124.154271 
L 97.393055 124.293695 
L 97.353129 124.43377 
L 97.315431 124.574461 
L 97.27997 124.715733 
L 97.246755 124.857549 
L 97.215794 124.999875 
L 97.187095 125.142674 
L 97.160665 125.28591 
L 97.136511 125.429547 
L 97.114639 125.57355 
L 97.095055 125.717881 
L 97.077763 125.862505 
L 97.062768 126.007386 
L 97.050073 126.152485 
L 97.039682 126.297768 
L 97.031598 126.443198 
L 97.025822 126.588738 
L 97.022356 126.73435 
L 97.0212 126.88 
L 97.0212 227.86 
L 97.022356 228.00565 
L 97.025822 228.151262 
L 97.031598 228.296802 
L 97.039682 228.442232 
L 97.050073 228.587515 
L 97.062768 228.732614 
L 97.077763 228.877495 
L 97.095055 229.022119 
L 97.114639 229.16645 
L 97.136511 229.310453 
L 97.160665 229.45409 
L 97.187095 229.597326 
L 97.215794 229.740125 
L 97.246755 229.882451 
L 97.27997 230.024267 
L 97.315431 230.165539 
L 97.353129 230.30623 
L 97.393055 230.446305 
L 97.435197 230.585729 
L 97.479547 230.724467 
L 97.526092 230.862484 
L 97.574822 230.999745 
L 97.625723 231.136216 
L 97.678782 231.271861 
L 97.733988 231.406648 
L 97.791324 231.540542 
L 97.850778 231.67351 
L 97.912334 231.805517 
L 97.975977 231.936532 
L 98.041691 232.066519 
L 98.109458 232.195448 
L 98.179263 232.323286 
L 98.251087 232.45 
L 98.324912 232.575558 
L 98.400721 232.69993 
L 98.478493 232.823083 
L 98.558209 232.944986 
L 98.639849 233.06561 
L 98.723393 233.184922 
L 98.808819 233.302895 
L 98.896106 233.419497 
L 98.985233 233.534699 
L 99.076175 233.648473 
L 99.168912 233.76079 
L 99.263419 233.871622 
L 99.359672 233.980939 
L 99.457648 234.088716 
L 99.557322 234.194925 
L 99.658668 234.299539 
L 99.761661 234.402532 
L 99.866275 234.503878 
L 99.972484 234.603552 
L 100.080261 234.701528 
L 100.189578 234.797781 
L 100.30041 234.892288 
L 100.412727 234.985025 
L 100.526501 235.075967 
L 100.641703 235.165094 
L 100.758305 235.252381 
L 100.876278 235.337807 
L 100.99559 235.421351 
L 101.116214 235.502991 
L 101.238117 235.582707 
L 101.36127 235.660479 
L 101.485642 235.736288 
L 101.6112 235.810113 
L 101.737914 235.881937 
L 101.865752 235.951742 
L 101.994681 236.019509 
L 102.124668 236.085223 
L 102.255683 236.148866 
L 102.38769 236.210422 
L 102.520658 236.269876 
L 102.654552 236.327212 
L 102.789339 236.382418 
L 102.924984 236.435477 
L 103.061455 236.486378 
L 103.198716 236.535108 
L 103.336733 236.581653 
L 103.475471 236.626003 
L 103.614895 236.668145 
L 103.75497 236.708071 
L 103.895661 236.745769 
L 104.036933 236.78123 
L 104.178749 236.814445 
L 104.321075 236.845406 
L 104.463874 236.874105 
L 104.60711 236.900535 
L 104.750747 236.924689 
L 104.89475 236.946561 
L 105.039081 236.966145 
L 105.183705 236.983437 
L 105.328586 236.998432 
L 105.473685 237.011127 
L 105.618968 237.021518 
L 105.764398 237.029602 
L 105.909938 237.035378 
L 106.05555 237.038844 
L 106.2012 237.04 
L 199.0824 237.04 
z
" clip-path="url(#p973cd10e66)" style="fill: none; stroke-dasharray: 1.85,0.8; stroke-dashoffset: 0; stroke: #ff0000; stroke-width: 0.5; stroke-linecap: round"/>
   </g>
   <g id="patch_9">
    <path d="M 329.1324 237.04 
L 329.27805 237.038844 
L 329.423662 237.035378 
L 329.569202 237.029602 
L 329.714632 237.021518 
L 329.859915 237.011127 
L 330.005014 236.998432 
L 330.149895 236.983437 
L 330.294519 236.966145 
L 330.43885 236.946561 
L 330.582853 236.924689 
L 330.72649 236.900535 
L 330.869726 236.874105 
L 331.012525 236.845406 
L 331.154851 236.814445 
L 331.296667 236.78123 
L 331.437939 236.745769 
L 331.57863 236.708071 
L 331.718705 236.668145 
L 331.858129 236.626003 
L 331.996867 236.581653 
L 332.134884 236.535108 
L 332.272145 236.486378 
L 332.408616 236.435477 
L 332.544261 236.382418 
L 332.679048 236.327212 
L 332.812942 236.269876 
L 332.94591 236.210422 
L 333.077917 236.148866 
L 333.208932 236.085223 
L 333.338919 236.019509 
L 333.467848 235.951742 
L 333.595686 235.881937 
L 333.7224 235.810113 
L 333.847958 235.736288 
L 333.97233 235.660479 
L 334.095483 235.582707 
L 334.217386 235.502991 
L 334.33801 235.421351 
L 334.457322 235.337807 
L 334.575295 235.252381 
L 334.691897 235.165094 
L 334.807099 235.075967 
L 334.920873 234.985025 
L 335.03319 234.892288 
L 335.144022 234.797781 
L 335.253339 234.701528 
L 335.361116 234.603552 
L 335.467325 234.503878 
L 335.571939 234.402532 
L 335.674932 234.299539 
L 335.776278 234.194925 
L 335.875952 234.088716 
L 335.973928 233.980939 
L 336.070181 233.871622 
L 336.164688 233.76079 
L 336.257425 233.648473 
L 336.348367 233.534699 
L 336.437494 233.419497 
L 336.524781 233.302895 
L 336.610207 233.184922 
L 336.693751 233.06561 
L 336.775391 232.944986 
L 336.855107 232.823083 
L 336.932879 232.69993 
L 337.008688 232.575558 
L 337.082513 232.45 
L 337.154337 232.323286 
L 337.224142 232.195448 
L 337.291909 232.066519 
L 337.357623 231.936532 
L 337.421266 231.805517 
L 337.482822 231.67351 
L 337.542276 231.540542 
L 337.599612 231.406648 
L 337.654818 231.271861 
L 337.707877 231.136216 
L 337.758778 230.999745 
L 337.807508 230.862484 
L 337.854053 230.724467 
L 337.898403 230.585729 
L 337.940545 230.446305 
L 337.980471 230.30623 
L 338.018169 230.165539 
L 338.05363 230.024267 
L 338.086845 229.882451 
L 338.117806 229.740125 
L 338.146505 229.597326 
L 338.172935 229.45409 
L 338.197089 229.310453 
L 338.218961 229.16645 
L 338.238545 229.022119 
L 338.255837 228.877495 
L 338.270832 228.732614 
L 338.283527 228.587515 
L 338.293918 228.442232 
L 338.302002 228.296802 
L 338.307778 228.151262 
L 338.311244 228.00565 
L 338.3124 227.86 
L 338.3124 172.78 
L 338.311244 172.63435 
L 338.307778 172.488738 
L 338.302002 172.343198 
L 338.293918 172.197768 
L 338.283527 172.052485 
L 338.270832 171.907386 
L 338.255837 171.762505 
L 338.238545 171.617881 
L 338.218961 171.47355 
L 338.197089 171.329547 
L 338.172935 171.18591 
L 338.146505 171.042674 
L 338.117806 170.899875 
L 338.086845 170.757549 
L 338.05363 170.615733 
L 338.018169 170.474461 
L 337.980471 170.33377 
L 337.940545 170.193695 
L 337.898403 170.054271 
L 337.854053 169.915533 
L 337.807508 169.777516 
L 337.758778 169.640255 
L 337.707877 169.503784 
L 337.654818 169.368139 
L 337.599612 169.233352 
L 337.542276 169.099458 
L 337.482822 168.96649 
L 337.421266 168.834483 
L 337.357623 168.703468 
L 337.291909 168.573481 
L 337.224142 168.444552 
L 337.154337 168.316714 
L 337.082513 168.19 
L 337.008688 168.064442 
L 336.932879 167.94007 
L 336.855107 167.816917 
L 336.775391 167.695014 
L 336.693751 167.57439 
L 336.610207 167.455078 
L 336.524781 167.337105 
L 336.437494 167.220503 
L 336.348367 167.105301 
L 336.257425 166.991527 
L 336.164688 166.87921 
L 336.070181 166.768378 
L 335.973928 166.659061 
L 335.875952 166.551284 
L 335.776278 166.445075 
L 335.674932 166.340461 
L 335.571939 166.237468 
L 335.467325 166.136122 
L 335.361116 166.036448 
L 335.253339 165.938472 
L 335.144022 165.842219 
L 335.03319 165.747712 
L 334.920873 165.654975 
L 334.807099 165.564033 
L 334.691897 165.474906 
L 334.575295 165.387619 
L 334.457322 165.302193 
L 334.33801 165.218649 
L 334.217386 165.137009 
L 334.095483 165.057293 
L 333.97233 164.979521 
L 333.847958 164.903712 
L 333.7224 164.829887 
L 333.595686 164.758063 
L 333.467848 164.688258 
L 333.338919 164.620491 
L 333.208932 164.554777 
L 333.077917 164.491134 
L 332.94591 164.429578 
L 332.812942 164.370124 
L 332.679048 164.312788 
L 332.544261 164.257582 
L 332.408616 164.204523 
L 332.272145 164.153622 
L 332.134884 164.104892 
L 331.996867 164.058347 
L 331.858129 164.013997 
L 331.718705 163.971855 
L 331.57863 163.931929 
L 331.437939 163.894231 
L 331.296667 163.85877 
L 331.154851 163.825555 
L 331.012525 163.794594 
L 330.869726 163.765895 
L 330.72649 163.739465 
L 330.582853 163.715311 
L 330.43885 163.693439 
L 330.294519 163.673855 
L 330.149895 163.656563 
L 330.005014 163.641568 
L 329.859915 163.628873 
L 329.714632 163.618482 
L 329.569202 163.610398 
L 329.423662 163.604622 
L 329.27805 163.601156 
L 329.1324 163.6 
L 219.7374 163.6 
L 219.59175 163.601156 
L 219.446138 163.604622 
L 219.300598 163.610398 
L 219.155168 163.618482 
L 219.009885 163.628873 
L 218.864786 163.641568 
L 218.719905 163.656563 
L 218.575281 163.673855 
L 218.43095 163.693439 
L 218.286947 163.715311 
L 218.14331 163.739465 
L 218.000074 163.765895 
L 217.857275 163.794594 
L 217.714949 163.825555 
L 217.573133 163.85877 
L 217.431861 163.894231 
L 217.29117 163.931929 
L 217.151095 163.971855 
L 217.011671 164.013997 
L 216.872933 164.058347 
L 216.734916 164.104892 
L 216.597655 164.153622 
L 216.461184 164.204523 
L 216.325539 164.257582 
L 216.190752 164.312788 
L 216.056858 164.370124 
L 215.92389 164.429578 
L 215.791883 164.491134 
L 215.660868 164.554777 
L 215.530881 164.620491 
L 215.401952 164.688258 
L 215.274114 164.758063 
L 215.1474 164.829887 
L 215.021842 164.903712 
L 214.89747 164.979521 
L 214.774317 165.057293 
L 214.652414 165.137009 
L 214.53179 165.218649 
L 214.412478 165.302193 
L 214.294505 165.387619 
L 214.177903 165.474906 
L 214.062701 165.564033 
L 213.948927 165.654975 
L 213.83661 165.747712 
L 213.725778 165.842219 
L 213.616461 165.938472 
L 213.508684 166.036448 
L 213.402475 166.136122 
L 213.297861 166.237468 
L 213.194868 166.340461 
L 213.093522 166.445075 
L 212.993848 166.551284 
L 212.895872 166.659061 
L 212.799619 166.768378 
L 212.705112 166.87921 
L 212.612375 166.991527 
L 212.521433 167.105301 
L 212.432306 167.220503 
L 212.345019 167.337105 
L 212.259593 167.455078 
L 212.176049 167.57439 
L 212.094409 167.695014 
L 212.014693 167.816917 
L 211.936921 167.94007 
L 211.861112 168.064442 
L 211.787287 168.19 
L 211.715463 168.316714 
L 211.645658 168.444552 
L 211.577891 168.573481 
L 211.512177 168.703468 
L 211.448534 168.834483 
L 211.386978 168.96649 
L 211.327524 169.099458 
L 211.270188 169.233352 
L 211.214982 169.368139 
L 211.161923 169.503784 
L 211.111022 169.640255 
L 211.062292 169.777516 
L 211.015747 169.915533 
L 210.971397 170.054271 
L 210.929255 170.193695 
L 210.889329 170.33377 
L 210.851631 170.474461 
L 210.81617 170.615733 
L 210.782955 170.757549 
L 210.751994 170.899875 
L 210.723295 171.042674 
L 210.696865 171.18591 
L 210.672711 171.329547 
L 210.650839 171.47355 
L 210.631255 171.617881 
L 210.613963 171.762505 
L 210.598968 171.907386 
L 210.586273 172.052485 
L 210.575882 172.197768 
L 210.567798 172.343198 
L 210.562022 172.488738 
L 210.558556 172.63435 
L 210.5574 172.78 
L 210.5574 227.86 
L 210.558556 228.00565 
L 210.562022 228.151262 
L 210.567798 228.296802 
L 210.575882 228.442232 
L 210.586273 228.587515 
L 210.598968 228.732614 
L 210.613963 228.877495 
L 210.631255 229.022119 
L 210.650839 229.16645 
L 210.672711 229.310453 
L 210.696865 229.45409 
L 210.723295 229.597326 
L 210.751994 229.740125 
L 210.782955 229.882451 
L 210.81617 230.024267 
L 210.851631 230.165539 
L 210.889329 230.30623 
L 210.929255 230.446305 
L 210.971397 230.585729 
L 211.015747 230.724467 
L 211.062292 230.862484 
L 211.111022 230.999745 
L 211.161923 231.136216 
L 211.214982 231.271861 
L 211.270188 231.406648 
L 211.327524 231.540542 
L 211.386978 231.67351 
L 211.448534 231.805517 
L 211.512177 231.936532 
L 211.577891 232.066519 
L 211.645658 232.195448 
L 211.715463 232.323286 
L 211.787287 232.45 
L 211.861112 232.575558 
L 211.936921 232.69993 
L 212.014693 232.823083 
L 212.094409 232.944986 
L 212.176049 233.06561 
L 212.259593 233.184922 
L 212.345019 233.302895 
L 212.432306 233.419497 
L 212.521433 233.534699 
L 212.612375 233.648473 
L 212.705112 233.76079 
L 212.799619 233.871622 
L 212.895872 233.980939 
L 212.993848 234.088716 
L 213.093522 234.194925 
L 213.194868 234.299539 
L 213.297861 234.402532 
L 213.402475 234.503878 
L 213.508684 234.603552 
L 213.616461 234.701528 
L 213.725778 234.797781 
L 213.83661 234.892288 
L 213.948927 234.985025 
L 214.062701 235.075967 
L 214.177903 235.165094 
L 214.294505 235.252381 
L 214.412478 235.337807 
L 214.53179 235.421351 
L 214.652414 235.502991 
L 214.774317 235.582707 
L 214.89747 235.660479 
L 215.021842 235.736288 
L 215.1474 235.810113 
L 215.274114 235.881937 
L 215.401952 235.951742 
L 215.530881 236.019509 
L 215.660868 236.085223 
L 215.791883 236.148866 
L 215.92389 236.210422 
L 216.056858 236.269876 
L 216.190752 236.327212 
L 216.325539 236.382418 
L 216.461184 236.435477 
L 216.597655 236.486378 
L 216.734916 236.535108 
L 216.872933 236.581653 
L 217.011671 236.626003 
L 217.151095 236.668145 
L 217.29117 236.708071 
L 217.431861 236.745769 
L 217.573133 236.78123 
L 217.714949 236.814445 
L 217.857275 236.845406 
L 218.000074 236.874105 
L 218.14331 236.900535 
L 218.286947 236.924689 
L 218.43095 236.946561 
L 218.575281 236.966145 
L 218.719905 236.983437 
L 218.864786 236.998432 
L 219.009885 237.011127 
L 219.155168 237.021518 
L 219.300598 237.029602 
L 219.446138 237.035378 
L 219.59175 237.038844 
L 219.7374 237.04 
L 329.1324 237.04 
z
" clip-path="url(#p973cd10e66)" style="fill: none; stroke-dasharray: 1.85,0.8; stroke-dashoffset: 0; stroke: #008000; stroke-width: 0.5; stroke-linecap: round"/>
   </g>
   <g id="patch_10">
    <path d="M 93.1962 177.37 
C 74.0712 177.37 89.3712 177.37 66.4212 177.37 
" clip-path="url(#p973cd10e66)" style="fill: none; stroke: #ff0000; stroke-width: 2; stroke-linejoin: miter; stroke-linecap: round"/>
   </g>
   <g id="patch_11">
    <path d="M 89.3712 174.31 
L 97.0212 177.37 
L 89.3712 180.43 
z
" clip-path="url(#p973cd10e66)" style="fill: #ff0000"/>
   </g>
   <g id="patch_12">
    <path d="M 342.1374 200.32 
C 372.7374 200.32 349.7874 237.04 384.2124 237.04 
" clip-path="url(#p973cd10e66)" style="fill: none; stroke: #008000; stroke-width: 2; stroke-linejoin: miter; stroke-linecap: round"/>
   </g>
   <g id="patch_13">
    <path d="M 345.9624 203.38 
L 338.3124 200.32 
L 345.9624 197.26 
z
" clip-path="url(#p973cd10e66)" style="fill: #008000"/>
   </g>
   <g id="line2d_1">
    <path d="M 151.6524 230.92 
L 151.6524 192.67 
L 151.6524 192.67 
M 151.6524 177.37 
L 151.6524 177.37 
L 151.6524 139.12 
" clip-path="url(#p973cd10e66)" style="fill: none; stroke: #000000; stroke-width: 2; stroke-linecap: round"/>
   </g>
   <g id="line2d_2">
    <path d="M 153.1824 188.845 
L 150.1224 188.845 
" clip-path="url(#p973cd10e66)" style="fill: none; stroke: #000000; stroke-width: 2; stroke-linecap: round"/>
   </g>
   <g id="line2d_3">
    <path d="M 151.6524 182.725 
L 151.6524 179.665 
" clip-path="url(#p973cd10e66)" style="fill: none; stroke: #000000; stroke-width: 2; stroke-linecap: round"/>
   </g>
   <g id="line2d_4">
    <path d="M 153.1824 181.195 
L 150.1224 181.195 
" clip-path="url(#p973cd10e66)" style="fill: none; stroke: #000000; stroke-width: 2; stroke-linecap: round"/>
   </g>
   <g id="line2d_5">
    <path d="M 151.6524 139.12 
L 166.9524 139.12 
L 182.2524 139.12 
" clip-path="url(#p973cd10e66)" style="fill: none; stroke: #000000; stroke-width: 2; stroke-linecap: round"/>
   </g>
   <g id="line2d_6">
    <path d="M 182.2524 139.12 
L 182.2524 154.42 
L 205.2024 139.12 
L 182.2524 123.82 
L 182.2524 139.12 
" clip-path="url(#p973cd10e66)" style="fill: none; stroke: #000000; stroke-width: 2; stroke-linecap: round"/>
   </g>
   <g id="line2d_7">
    <path d="M 151.6524 230.92 
L 209.0274 230.92 
L 266.4024 230.92 
" clip-path="url(#p973cd10e66)" style="fill: none; stroke: #000000; stroke-width: 2; stroke-linecap: round"/>
   </g>
   <g id="line2d_8">
    <path d="M 266.4024 230.92 
L 266.4024 215.62 
L 266.4024 215.62 
M 266.4024 200.32 
L 266.4024 200.32 
L 266.4024 185.02 
" clip-path="url(#p973cd10e66)" style="fill: none; stroke: #000000; stroke-width: 2; stroke-linecap: round"/>
   </g>
   <g id="line2d_9">
    <path d="M 267.9324 211.795 
L 264.8724 211.795 
" clip-path="url(#p973cd10e66)" style="fill: none; stroke: #000000; stroke-width: 2; stroke-linecap: round"/>
   </g>
   <g id="line2d_10">
    <path d="M 266.4024 205.675 
L 266.4024 202.615 
" clip-path="url(#p973cd10e66)" style="fill: none; stroke: #000000; stroke-width: 2; stroke-linecap: round"/>
   </g>
   <g id="line2d_11">
    <path d="M 267.9324 204.145 
L 264.8724 204.145 
" clip-path="url(#p973cd10e66)" style="fill: none; stroke: #000000; stroke-width: 2; stroke-linecap: round"/>
   </g>
   <g id="line2d_12">
    <path d="M 266.4024 185.02 
L 289.3524 185.02 
L 312.3024 185.02 
" clip-path="url(#p973cd10e66)" style="fill: none; stroke: #000000; stroke-width: 2; stroke-linecap: round"/>
   </g>
   <g id="line2d_13">
    <path d="M 312.3024 185.02 
L 312.3024 200.32 
L 335.2524 185.02 
L 312.3024 169.72 
L 312.3024 185.02 
" clip-path="url(#p973cd10e66)" style="fill: none; stroke: #000000; stroke-width: 2; stroke-linecap: round"/>
   </g>
   <g id="line2d_14">
    <path d="M 335.2524 185.02 
L 350.5524 185.02 
L 365.8524 185.02 
" clip-path="url(#p973cd10e66)" style="fill: none; stroke: #000000; stroke-width: 2; stroke-linecap: round"/>
   </g>
   <g id="line2d_15">
    <path d="M 365.8524 185.02 
L 365.8524 166.66 
L 354.2244 148.3 
L 377.4804 148.3 
L 365.8524 166.66 
" clip-path="url(#p973cd10e66)" style="fill: none; stroke: #000000; stroke-width: 2; stroke-linecap: round"/>
   </g>
   <g id="line2d_16">
    <path d="M 266.4024 230.92 
L 295.0899 230.92 
L 323.7774 230.92 
" clip-path="url(#p973cd10e66)" style="fill: none; stroke: #000000; stroke-width: 2; stroke-linecap: round"/>
   </g>
   <g id="line2d_17">
    <path d="M 323.7774 230.92 
L 323.7774 243.16 
L 316.1274 243.16 
L 331.4274 243.16 
M 318.4224 246.832 
L 329.1324 246.832 
M 322.2474 250.504 
L 325.3074 250.504 
" clip-path="url(#p973cd10e66)" style="fill: none; stroke: #000000; stroke-width: 2; stroke-linecap: round"/>
   </g>
   <g id="line2d_18">
    <path d="M 323.7774 230.92 
L 323.7774 211.795 
L 323.7774 192.67 
" clip-path="url(#p973cd10e66)" style="fill: none; stroke: #000000; stroke-width: 2; stroke-linecap: round"/>
   </g>
   <g id="line2d_19">
    <path d="M 205.2024 139.12 
L 261.7359 139.12 
M 261.7359 131.47 
L 261.7359 146.77 
M 267.2439 131.47 
L 267.2439 146.77 
M 267.2439 139.12 
L 323.7774 139.12 
" clip-path="url(#p973cd10e66)" style="fill: none; stroke: #000000; stroke-width: 2; stroke-linecap: round"/>
   </g>
   <g id="line2d_20">
    <path d="M 323.7774 139.12 
L 323.7774 158.245 
L 323.7774 177.37 
" clip-path="url(#p973cd10e66)" style="fill: none; stroke: #000000; stroke-width: 2; stroke-linecap: round"/>
   </g>
   <g id="line2d_21">
    <path d="M 323.7774 139.12 
L 323.7774 108.52 
L 321.257841 108.406041 
L 318.715559 108.059504 
L 316.363771 107.488099 
L 314.399717 106.718393 
L 312.98812 105.793585 
L 312.528601 105.290198 
L 312.247368 104.769883 
L 312.150348 104.240924 
L 312.239587 103.711788 
L 312.513203 103.190943 
L 312.96543 102.686686 
L 313.586734 102.20696 
L 315.280906 101.350145 
L 317.45363 100.671003 
L 319.922684 100.205138 
L 322.480992 99.970266 
L 324.913992 99.96473 
L 327.017633 100.16764 
L 328.615486 100.540624 
L 329.573541 101.031044 
L 329.78522 101.301011 
L 329.811447 101.576415 
L 329.651668 101.848767 
L 329.309251 102.109643 
L 328.109073 102.564652 
L 326.311568 102.881925 
L 324.067492 103.013499 
L 321.565051 102.926984 
L 319.014121 102.608281 
L 316.628645 102.062764 
L 314.608689 101.31483 
L 313.123663 100.405852 
L 312.622738 99.907713 
L 312.298115 99.390709 
L 312.156636 98.863054 
L 312.201282 98.333186 
L 312.431113 97.80959 
L 312.841285 97.300619 
L 313.423152 96.814319 
L 315.04955 95.939358 
L 317.173904 95.236733 
L 319.618049 94.744018 
L 322.176996 94.481181 
L 324.636132 94.44891 
L 326.789212 94.628558 
L 328.455661 94.983703 
L 329.495716 95.463204 
L 329.751302 95.730618 
L 329.82215 96.005491 
L 329.706767 96.279347 
L 329.407584 96.543729 
L 328.286789 97.011421 
L 326.553762 97.347988 
L 324.353851 97.503848 
L 321.871559 97.444574 
L 319.315072 97.153782 
L 316.898798 96.634506 
L 314.825387 95.908941 
L 313.268732 95.016585 
L 312.727009 94.524144 
L 312.359388 94.010923 
L 312.173621 93.485056 
L 312.173621 92.954944 
L 312.359388 92.429077 
L 312.727009 91.915856 
L 313.268732 91.423415 
L 314.825387 90.531059 
L 316.898798 89.805494 
L 319.315072 89.286218 
L 321.871559 88.995426 
L 324.353851 88.936152 
L 326.553762 89.092012 
L 328.286789 89.428579 
L 329.407584 89.896271 
L 329.706767 90.160653 
L 329.82215 90.434509 
L 329.751302 90.709382 
L 329.495716 90.976796 
L 328.455661 91.456297 
L 326.789212 91.811442 
L 324.636132 91.99109 
L 322.176996 91.958819 
L 319.618049 91.695982 
L 317.173904 91.203267 
L 315.04955 90.500642 
L 313.423152 89.625681 
L 312.841285 89.139381 
L 312.431113 88.63041 
L 312.201282 88.106814 
L 312.156636 87.576946 
L 312.298115 87.049291 
L 312.622738 86.532287 
L 313.123663 86.034148 
L 313.790331 85.562691 
L 315.561488 84.728123 
L 317.787666 84.077221 
L 320.282158 83.64322 
L 322.835756 83.441166 
L 325.234294 83.466647 
L 327.276608 83.696174 
L 328.791414 84.08914 
L 329.651668 84.591233 
L 329.811447 84.863585 
L 329.78522 85.138989 
L 329.573541 85.408956 
L 329.18087 85.665113 
L 327.889305 86.104125 
L 326.018845 86.397851 
L 323.726364 86.500302 
L 321.204127 86.381529 
L 318.663672 86.030141 
L 316.318062 85.454251 
L 314.364021 84.680805 
L 312.96543 83.753314 
L 312.513203 83.249057 
L 312.239587 82.728212 
L 312.150348 82.199076 
L 312.247368 81.670117 
L 312.528601 81.149802 
L 312.98812 80.646415 
L 313.616238 80.167882 
L 315.322041 79.314313 
L 317.502947 78.639327 
L 319.976047 78.178179 
L 322.533925 77.948191 
L 323.7774 77.92 
L 323.7774 47.32 
L 323.7774 47.32 
" clip-path="url(#p973cd10e66)" style="fill: none; stroke: #000000; stroke-width: 2; stroke-linecap: round"/>
   </g>
   <g id="line2d_22">
    <path d="M 323.7774 47.32 
L 323.7774 35.08 
" clip-path="url(#p973cd10e66)" style="fill: none; stroke: #000000; stroke-width: 2; stroke-linecap: round"/>
   </g>
   <g id="line2d_23">
    <path d="M 323.7774 35.08 
L 318.0399 35.08 
" clip-path="url(#p973cd10e66)" style="fill: none; stroke: #000000; stroke-width: 2; stroke-linecap: round"/>
   </g>
   <g id="line2d_24">
    <path d="M 323.7774 35.08 
L 329.5149 35.08 
" clip-path="url(#p973cd10e66)" style="fill: none; stroke: #000000; stroke-width: 2; stroke-linecap: round"/>
   </g>
   <g id="text_1">
    <g clip-path="url(#p973cd10e66)">
     <!-- $V_{in LF}$ -->
     <g transform="translate(115.5974 188.469219)scale(0.125 -0.125)">
      <defs>
       <path id="DejaVuSans-Oblique-56" d="M 1319 0 
L 500 4666 
L 1119 4666 
L 1797 653 
L 4063 4666 
L 4750 4666 
L 2053 0 
L 1319 0 
z
" transform="scale(0.015625)"/>
       <path id="DejaVuSans-Oblique-69" d="M 1172 4863 
L 1747 4863 
L 1606 4134 
L 1031 4134 
L 1172 4863 
z
M 909 3500 
L 1484 3500 
L 800 0 
L 225 0 
L 909 3500 
z
" transform="scale(0.015625)"/>
       <path id="DejaVuSans-Oblique-6e" d="M 3566 2113 
L 3156 0 
L 2578 0 
L 2988 2091 
Q 3016 2238 3031 2350 
Q 3047 2463 3047 2528 
Q 3047 2791 2881 2937 
Q 2716 3084 2419 3084 
Q 1956 3084 1622 2776 
Q 1288 2469 1184 1941 
L 800 0 
L 225 0 
L 903 3500 
L 1478 3500 
L 1363 2950 
Q 1603 3253 1940 3418 
Q 2278 3584 2650 3584 
Q 3113 3584 3367 3334 
Q 3622 3084 3622 2631 
Q 3622 2519 3608 2391 
Q 3594 2263 3566 2113 
z
" transform="scale(0.015625)"/>
       <path id="DejaVuSans-Oblique-4c" d="M 1075 4666 
L 1709 4666 
L 909 525 
L 3181 525 
L 3078 0 
L 172 0 
L 1075 4666 
z
" transform="scale(0.015625)"/>
       <path id="DejaVuSans-Oblique-46" d="M 1081 4666 
L 3756 4666 
L 3653 4134 
L 1606 4134 
L 1338 2759 
L 3188 2759 
L 3084 2228 
L 1234 2228 
L 800 0 
L 172 0 
L 1081 4666 
z
" transform="scale(0.015625)"/>
      </defs>
      <use xlink:href="#DejaVuSans-Oblique-56" transform="translate(0 0.09375)"/>
      <use xlink:href="#DejaVuSans-Oblique-69" transform="translate(68.408203 -16.3125)scale(0.7)"/>
      <use xlink:href="#DejaVuSans-Oblique-6e" transform="translate(87.856445 -16.3125)scale(0.7)"/>
      <use xlink:href="#DejaVuSans-Oblique-4c" transform="translate(132.22168 -16.3125)scale(0.7)"/>
      <use xlink:href="#DejaVuSans-Oblique-46" transform="translate(171.220703 -16.3125)scale(0.7)"/>
     </g>
    </g>
   </g>
   <g id="text_2">
    <g clip-path="url(#p973cd10e66)">
     <!-- $V_{in HF}$ -->
     <g transform="translate(228.7224 211.419219)scale(0.125 -0.125)">
      <defs>
       <path id="DejaVuSans-Oblique-48" d="M 1081 4666 
L 1716 4666 
L 1344 2753 
L 3634 2753 
L 4006 4666 
L 4641 4666 
L 3731 0 
L 3097 0 
L 3531 2222 
L 1241 2222 
L 806 0 
L 172 0 
L 1081 4666 
z
" transform="scale(0.015625)"/>
      </defs>
      <use xlink:href="#DejaVuSans-Oblique-56" transform="translate(0 0.09375)"/>
      <use xlink:href="#DejaVuSans-Oblique-69" transform="translate(68.408203 -16.3125)scale(0.7)"/>
      <use xlink:href="#DejaVuSans-Oblique-6e" transform="translate(87.856445 -16.3125)scale(0.7)"/>
      <use xlink:href="#DejaVuSans-Oblique-48" transform="translate(132.22168 -16.3125)scale(0.7)"/>
      <use xlink:href="#DejaVuSans-Oblique-46" transform="translate(184.858398 -16.3125)scale(0.7)"/>
     </g>
    </g>
   </g>
   <g id="text_3">
    <g clip-path="url(#p973cd10e66)">
     <!-- $C$ -->
     <g transform="translate(260.1149 125.810391)scale(0.125 -0.125)">
      <defs>
       <path id="DejaVuSans-Oblique-43" d="M 4447 4306 
L 4319 3641 
Q 4019 3944 3683 4091 
Q 3347 4238 2956 4238 
Q 2422 4238 2017 3981 
Q 1613 3725 1319 3200 
Q 1131 2863 1032 2486 
Q 934 2109 934 1728 
Q 934 1091 1264 756 
Q 1594 422 2222 422 
Q 2656 422 3056 561 
Q 3456 700 3834 978 
L 3688 231 
Q 3316 72 2936 -9 
Q 2556 -91 2175 -91 
Q 1278 -91 773 396 
Q 269 884 269 1753 
Q 269 2309 461 2846 
Q 653 3384 1013 3828 
Q 1394 4300 1883 4525 
Q 2372 4750 3022 4750 
Q 3422 4750 3780 4639 
Q 4138 4528 4447 4306 
z
" transform="scale(0.015625)"/>
      </defs>
      <use xlink:href="#DejaVuSans-Oblique-43" transform="translate(0 0.78125)"/>
     </g>
    </g>
   </g>
   <g id="text_4">
    <g clip-path="url(#p973cd10e66)">
     <!-- $L$ -->
     <g transform="translate(302.090348 96.669219)scale(0.125 -0.125)">
      <use xlink:href="#DejaVuSans-Oblique-4c" transform="translate(0 0.09375)"/>
     </g>
    </g>
   </g>
   <g id="text_5">
    <g clip-path="url(#p973cd10e66)">
     <!-- $V_{dd}$ -->
     <g transform="translate(313.7149 29.420391)scale(0.125 -0.125)">
      <defs>
       <path id="DejaVuSans-Oblique-64" d="M 2675 525 
Q 2444 222 2128 65 
Q 1813 -91 1428 -91 
Q 903 -91 598 267 
Q 294 625 294 1247 
Q 294 1766 478 2236 
Q 663 2706 1013 3078 
Q 1244 3325 1534 3454 
Q 1825 3584 2144 3584 
Q 2481 3584 2739 3421 
Q 2997 3259 3138 2956 
L 3513 4863 
L 4091 4863 
L 3144 0 
L 2566 0 
L 2675 525 
z
M 891 1350 
Q 891 897 1095 644 
Q 1300 391 1663 391 
Q 1931 391 2161 520 
Q 2391 650 2566 903 
Q 2750 1166 2856 1509 
Q 2963 1853 2963 2188 
Q 2963 2622 2758 2865 
Q 2553 3109 2194 3109 
Q 1922 3109 1687 2981 
Q 1453 2853 1288 2613 
Q 1106 2353 998 2009 
Q 891 1666 891 1350 
z
" transform="scale(0.015625)"/>
      </defs>
      <use xlink:href="#DejaVuSans-Oblique-56" transform="translate(0 0.09375)"/>
      <use xlink:href="#DejaVuSans-Oblique-64" transform="translate(68.408203 -16.3125)scale(0.7)"/>
      <use xlink:href="#DejaVuSans-Oblique-64" transform="translate(112.841797 -16.3125)scale(0.7)"/>
     </g>
    </g>
   </g>
   <g id="text_6">
    <g clip-path="url(#p973cd10e66)">
     <!-- Klasse B -->
     <g style="fill: #ff0000" transform="translate(10.76745 180.819219)scale(0.125 -0.125)">
      <defs>
       <path id="DejaVuSans-4b" d="M 628 4666 
L 1259 4666 
L 1259 2694 
L 3353 4666 
L 4166 4666 
L 1850 2491 
L 4331 0 
L 3500 0 
L 1259 2247 
L 1259 0 
L 628 0 
L 628 4666 
z
" transform="scale(0.015625)"/>
       <path id="DejaVuSans-6c" d="M 603 4863 
L 1178 4863 
L 1178 0 
L 603 0 
L 603 4863 
z
" transform="scale(0.015625)"/>
       <path id="DejaVuSans-61" d="M 2194 1759 
Q 1497 1759 1228 1600 
Q 959 1441 959 1056 
Q 959 750 1161 570 
Q 1363 391 1709 391 
Q 2188 391 2477 730 
Q 2766 1069 2766 1631 
L 2766 1759 
L 2194 1759 
z
M 3341 1997 
L 3341 0 
L 2766 0 
L 2766 531 
Q 2569 213 2275 61 
Q 1981 -91 1556 -91 
Q 1019 -91 701 211 
Q 384 513 384 1019 
Q 384 1609 779 1909 
Q 1175 2209 1959 2209 
L 2766 2209 
L 2766 2266 
Q 2766 2663 2505 2880 
Q 2244 3097 1772 3097 
Q 1472 3097 1187 3025 
Q 903 2953 641 2809 
L 641 3341 
Q 956 3463 1253 3523 
Q 1550 3584 1831 3584 
Q 2591 3584 2966 3190 
Q 3341 2797 3341 1997 
z
" transform="scale(0.015625)"/>
       <path id="DejaVuSans-73" d="M 2834 3397 
L 2834 2853 
Q 2591 2978 2328 3040 
Q 2066 3103 1784 3103 
Q 1356 3103 1142 2972 
Q 928 2841 928 2578 
Q 928 2378 1081 2264 
Q 1234 2150 1697 2047 
L 1894 2003 
Q 2506 1872 2764 1633 
Q 3022 1394 3022 966 
Q 3022 478 2636 193 
Q 2250 -91 1575 -91 
Q 1294 -91 989 -36 
Q 684 19 347 128 
L 347 722 
Q 666 556 975 473 
Q 1284 391 1588 391 
Q 1994 391 2212 530 
Q 2431 669 2431 922 
Q 2431 1156 2273 1281 
Q 2116 1406 1581 1522 
L 1381 1569 
Q 847 1681 609 1914 
Q 372 2147 372 2553 
Q 372 3047 722 3315 
Q 1072 3584 1716 3584 
Q 2034 3584 2315 3537 
Q 2597 3491 2834 3397 
z
" transform="scale(0.015625)"/>
       <path id="DejaVuSans-65" d="M 3597 1894 
L 3597 1613 
L 953 1613 
Q 991 1019 1311 708 
Q 1631 397 2203 397 
Q 2534 397 2845 478 
Q 3156 559 3463 722 
L 3463 178 
Q 3153 47 2828 -22 
Q 2503 -91 2169 -91 
Q 1331 -91 842 396 
Q 353 884 353 1716 
Q 353 2575 817 3079 
Q 1281 3584 2069 3584 
Q 2775 3584 3186 3129 
Q 3597 2675 3597 1894 
z
M 3022 2063 
Q 3016 2534 2758 2815 
Q 2500 3097 2075 3097 
Q 1594 3097 1305 2825 
Q 1016 2553 972 2059 
L 3022 2063 
z
" transform="scale(0.015625)"/>
       <path id="DejaVuSans-20" transform="scale(0.015625)"/>
       <path id="DejaVuSans-42" d="M 1259 2228 
L 1259 519 
L 2272 519 
Q 2781 519 3026 730 
Q 3272 941 3272 1375 
Q 3272 1813 3026 2020 
Q 2781 2228 2272 2228 
L 1259 2228 
z
M 1259 4147 
L 1259 2741 
L 2194 2741 
Q 2656 2741 2882 2914 
Q 3109 3088 3109 3444 
Q 3109 3797 2882 3972 
Q 2656 4147 2194 4147 
L 1259 4147 
z
M 628 4666 
L 2241 4666 
Q 2963 4666 3353 4366 
Q 3744 4066 3744 3513 
Q 3744 3084 3544 2831 
Q 3344 2578 2956 2516 
Q 3422 2416 3680 2098 
Q 3938 1781 3938 1306 
Q 3938 681 3513 340 
Q 3088 0 2303 0 
L 628 0 
L 628 4666 
z
" transform="scale(0.015625)"/>
      </defs>
      <use xlink:href="#DejaVuSans-4b"/>
      <use xlink:href="#DejaVuSans-6c" x="65.576172"/>
      <use xlink:href="#DejaVuSans-61" x="93.359375"/>
      <use xlink:href="#DejaVuSans-73" x="154.638672"/>
      <use xlink:href="#DejaVuSans-73" x="206.738281"/>
      <use xlink:href="#DejaVuSans-65" x="258.837891"/>
      <use xlink:href="#DejaVuSans-20" x="320.361328"/>
      <use xlink:href="#DejaVuSans-42" x="352.148438"/>
     </g>
    </g>
   </g>
   <g id="text_7">
    <g clip-path="url(#p973cd10e66)">
     <!-- Klasse C -->
     <g style="fill: #008000" transform="translate(387.2724 240.489219)scale(0.125 -0.125)">
      <defs>
       <path id="DejaVuSans-43" d="M 4122 4306 
L 4122 3641 
Q 3803 3938 3442 4084 
Q 3081 4231 2675 4231 
Q 1875 4231 1450 3742 
Q 1025 3253 1025 2328 
Q 1025 1406 1450 917 
Q 1875 428 2675 428 
Q 3081 428 3442 575 
Q 3803 722 4122 1019 
L 4122 359 
Q 3791 134 3420 21 
Q 3050 -91 2638 -91 
Q 1578 -91 968 557 
Q 359 1206 359 2328 
Q 359 3453 968 4101 
Q 1578 4750 2638 4750 
Q 3056 4750 3426 4639 
Q 3797 4528 4122 4306 
z
" transform="scale(0.015625)"/>
      </defs>
      <use xlink:href="#DejaVuSans-4b"/>
      <use xlink:href="#DejaVuSans-6c" x="65.576172"/>
      <use xlink:href="#DejaVuSans-61" x="93.359375"/>
      <use xlink:href="#DejaVuSans-73" x="154.638672"/>
      <use xlink:href="#DejaVuSans-73" x="206.738281"/>
      <use xlink:href="#DejaVuSans-65" x="258.837891"/>
      <use xlink:href="#DejaVuSans-20" x="320.361328"/>
      <use xlink:href="#DejaVuSans-43" x="352.148438"/>
     </g>
    </g>
   </g>
   <g id="patch_14">
    <path d="M 266.4024 233.215 
C 267.011041 233.215 267.594836 232.973184 268.02521 232.54281 
C 268.455584 232.112436 268.6974 231.528641 268.6974 230.92 
C 268.6974 230.311359 268.455584 229.727564 268.02521 229.29719 
C 267.594836 228.866816 267.011041 228.625 266.4024 228.625 
C 265.793759 228.625 265.209964 228.866816 264.77959 229.29719 
C 264.349216 229.727564 264.1074 230.311359 264.1074 230.92 
C 264.1074 231.528641 264.349216 232.112436 264.77959 232.54281 
C 265.209964 232.973184 265.793759 233.215 266.4024 233.215 
z
" clip-path="url(#p973cd10e66)" style="stroke: #000000; stroke-width: 2; stroke-linejoin: miter"/>
   </g>
  </g>
 </g>
 <defs>
  <clipPath id="p973cd10e66">
   <rect x="7.2" y="7.2" width="442.3536" height="246.364"/>
  </clipPath>
 </defs>
</svg>