<?xml version="1.0" encoding="utf-8" standalone="no"?>
<!DOCTYPE svg PUBLIC "-//W3C//DTD SVG 1.1//EN"
  "http://www.w3.org/Graphics/SVG/1.1/DTD/svg11.dtd">
<svg xmlns:xlink="http://www.w3.org/1999/xlink" width="297.4194pt" height="211.26pt" viewBox="0 0 297.4194 211.26" xmlns="http://www.w3.org/2000/svg" version="1.1">
 <metadata>
  <rdf:RDF xmlns:dc="http://purl.org/dc/elements/1.1/" xmlns:cc="http://creativecommons.org/ns#" xmlns:rdf="http://www.w3.org/1999/02/22-rdf-syntax-ns#">
   <cc:Work>
    <dc:type rdf:resource="http://purl.org/dc/dcmitype/StillImage"/>
    <dc:date>2022-10-07T20:27:57.584790</dc:date>
    <dc:format>image/svg+xml</dc:format>
    <dc:creator>
     <cc:Agent>
      <dc:title>Matplotlib v3.5.3, https://matplotlib.org/</dc:title>
     </cc:Agent>
    </dc:creator>
   </cc:Work>
  </rdf:RDF>
 </metadata>
 <defs>
  <style type="text/css">*{stroke-linejoin: round; stroke-linecap: butt}</style>
 </defs>
 <g id="figure_1">
  <g id="patch_1">
   <path d="M 0 211.26 
L 297.4194 211.26 
L 297.4194 0 
L 0 0 
z
" style="fill: #ffffff"/>
  </g>
  <g id="axes_1">
   <g id="line2d_1">
    <path d="M 27.855 43.818 
L 39.075 43.818 
" clip-path="url(#pf6c58e6c9a)" style="fill: none; stroke: #000000; stroke-width: 2; stroke-linecap: round"/>
   </g>
   <g id="line2d_2">
    <path d="M 39.075 32.598 
L 39.075 55.038 
" clip-path="url(#pf6c58e6c9a)" style="fill: none; stroke: #000000; stroke-width: 2; stroke-linecap: round"/>
   </g>
   <g id="line2d_3">
    <path d="M 39.075 38.208 
L 50.856 28.11 
L 50.856 22.5 
" clip-path="url(#pf6c58e6c9a)" style="fill: none; stroke: #000000; stroke-width: 2; stroke-linecap: round"/>
   </g>
   <g id="line2d_4">
    <path d="M 39.075 49.428 
L 50.856 59.526 
L 50.856 65.136 
" clip-path="url(#pf6c58e6c9a)" style="fill: none; stroke: #000000; stroke-width: 2; stroke-linecap: round"/>
   </g>
   <g id="line2d_5">
    <path d="M 39.075 49.428 
L 45.047687 54.547446 
" clip-path="url(#pf6c58e6c9a)" style="fill: none; stroke: #000000; stroke-width: 2; stroke-linecap: round"/>
   </g>
   <g id="patch_2">
    <path d="M 47.039109 52.224121 
L 50.856 59.526 
L 43.056265 56.870771 
z
" clip-path="url(#pf6c58e6c9a)"/>
   </g>
   <g id="line2d_6">
    <path d="M 27.855 43.818 
L 27.855 66.768 
L 27.855 89.718 
" clip-path="url(#pf6c58e6c9a)" style="fill: none; stroke: #000000; stroke-width: 2; stroke-linecap: round"/>
   </g>
   <g id="line2d_7">
    <path d="M 27.855 89.718 
L 27.855 111.138 
L 27.855 132.558 
" clip-path="url(#pf6c58e6c9a)" style="fill: none; stroke: #000000; stroke-width: 2; stroke-linecap: round"/>
   </g>
   <g id="line2d_8">
    <path d="M 27.855 132.558 
L 39.075 132.558 
" clip-path="url(#pf6c58e6c9a)" style="fill: none; stroke: #000000; stroke-width: 2; stroke-linecap: round"/>
   </g>
   <g id="line2d_9">
    <path d="M 39.075 121.338 
L 39.075 143.778 
" clip-path="url(#pf6c58e6c9a)" style="fill: none; stroke: #000000; stroke-width: 2; stroke-linecap: round"/>
   </g>
   <g id="line2d_10">
    <path d="M 39.075 126.948 
L 50.856 116.85 
L 50.856 111.24 
" clip-path="url(#pf6c58e6c9a)" style="fill: none; stroke: #000000; stroke-width: 2; stroke-linecap: round"/>
   </g>
   <g id="line2d_11">
    <path d="M 39.075 138.168 
L 50.856 148.266 
L 50.856 153.876 
" clip-path="url(#pf6c58e6c9a)" style="fill: none; stroke: #000000; stroke-width: 2; stroke-linecap: round"/>
   </g>
   <g id="line2d_12">
    <path d="M 50.856 116.85 
L 44.883313 121.969446 
" clip-path="url(#pf6c58e6c9a)" style="fill: none; stroke: #000000; stroke-width: 2; stroke-linecap: round"/>
   </g>
   <g id="patch_3">
    <path d="M 46.874735 124.292771 
L 39.075 126.948 
L 42.891891 119.646121 
z
" clip-path="url(#pf6c58e6c9a)"/>
   </g>
   <g id="line2d_13">
    <path d="M 50.856 22.5 
L 50.856 10.26 
" clip-path="url(#pf6c58e6c9a)" style="fill: none; stroke: #000000; stroke-width: 2; stroke-linecap: round"/>
   </g>
   <g id="line2d_14">
    <path d="M 50.856 10.26 
L 45.1185 10.26 
" clip-path="url(#pf6c58e6c9a)" style="fill: none; stroke: #000000; stroke-width: 2; stroke-linecap: round"/>
   </g>
   <g id="line2d_15">
    <path d="M 50.856 10.26 
L 56.5935 10.26 
" clip-path="url(#pf6c58e6c9a)" style="fill: none; stroke: #000000; stroke-width: 2; stroke-linecap: round"/>
   </g>
   <g id="line2d_16">
    <path d="M 27.855 89.718 
L 20.205 89.718 
L 12.555 89.718 
" clip-path="url(#pf6c58e6c9a)" style="fill: none; stroke: #000000; stroke-width: 2; stroke-linecap: round"/>
   </g>
   <g id="line2d_17">
    <path d="M 50.856 65.136 
L 50.856 77.376 
L 50.856 89.616 
" clip-path="url(#pf6c58e6c9a)" style="fill: none; stroke: #000000; stroke-width: 2; stroke-linecap: round"/>
   </g>
   <g id="line2d_18">
    <path d="M 50.856 89.616 
L 81.456 89.616 
L 81.569959 87.096441 
L 81.916496 84.554159 
L 82.487901 82.202371 
L 83.257607 80.238317 
L 84.182415 78.82672 
L 84.685802 78.367201 
L 85.206117 78.085968 
L 85.735076 77.988948 
L 86.264212 78.078187 
L 86.785057 78.351803 
L 87.289314 78.80403 
L 87.76904 79.425334 
L 88.625855 81.119506 
L 89.304997 83.29223 
L 89.770862 85.761284 
L 90.005734 88.319592 
L 90.01127 90.752592 
L 89.80836 92.856233 
L 89.435376 94.454086 
L 88.944956 95.412141 
L 88.674989 95.62382 
L 88.399585 95.650047 
L 88.127233 95.490268 
L 87.866357 95.147851 
L 87.411348 93.947673 
L 87.094075 92.150168 
L 86.962501 89.906092 
L 87.049016 87.403651 
L 87.367719 84.852721 
L 87.913236 82.467245 
L 88.66117 80.447289 
L 89.570148 78.962263 
L 90.068287 78.461338 
L 90.585291 78.136715 
L 91.112946 77.995236 
L 91.642814 78.039882 
L 92.16641 78.269713 
L 92.675381 78.679885 
L 93.161681 79.261752 
L 94.036642 80.88815 
L 94.739267 83.012504 
L 95.231982 85.456649 
L 95.494819 88.015596 
L 95.52709 90.474732 
L 95.347442 92.627812 
L 94.992297 94.294261 
L 94.512796 95.334316 
L 94.245382 95.589902 
L 93.970509 95.66075 
L 93.696653 95.545367 
L 93.432271 95.246184 
L 92.964579 94.125389 
L 92.628012 92.392362 
L 92.472152 90.192451 
L 92.531426 87.710159 
L 92.822218 85.153672 
L 93.341494 82.737398 
L 94.067059 80.663987 
L 94.959415 79.107332 
L 95.451856 78.565609 
L 95.965077 78.197988 
L 96.490944 78.012221 
L 97.021056 78.012221 
L 97.546923 78.197988 
L 98.060144 78.565609 
L 98.552585 79.107332 
L 99.444941 80.663987 
L 100.170506 82.737398 
L 100.689782 85.153672 
L 100.980574 87.710159 
L 101.039848 90.192451 
L 100.883988 92.392362 
L 100.547421 94.125389 
L 100.079729 95.246184 
L 99.815347 95.545367 
L 99.541491 95.66075 
L 99.266618 95.589902 
L 98.999204 95.334316 
L 98.519703 94.294261 
L 98.164558 92.627812 
L 97.98491 90.474732 
L 98.017181 88.015596 
L 98.280018 85.456649 
L 98.772733 83.012504 
L 99.475358 80.88815 
L 100.350319 79.261752 
L 100.836619 78.679885 
L 101.34559 78.269713 
L 101.869186 78.039882 
L 102.399054 77.995236 
L 102.926709 78.136715 
L 103.443713 78.461338 
L 103.941852 78.962263 
L 104.413309 79.628931 
L 105.247877 81.400088 
L 105.898779 83.626266 
L 106.33278 86.120758 
L 106.534834 88.674356 
L 106.509353 91.072894 
L 106.279826 93.115208 
L 105.88686 94.630014 
L 105.384767 95.490268 
L 105.112415 95.650047 
L 104.837011 95.62382 
L 104.567044 95.412141 
L 104.310887 95.01947 
L 103.871875 93.727905 
L 103.578149 91.857445 
L 103.475698 89.564964 
L 103.594471 87.042727 
L 103.945859 84.502272 
L 104.521749 82.156662 
L 105.295195 80.202621 
L 106.222686 78.80403 
L 106.726943 78.351803 
L 107.247788 78.078187 
L 107.776924 77.988948 
L 108.305883 78.085968 
L 108.826198 78.367201 
L 109.329585 78.82672 
L 109.808118 79.454838 
L 110.661687 81.160641 
L 111.336673 83.341547 
L 111.797821 85.814647 
L 112.027809 88.372525 
L 112.056 89.616 
L 142.656 89.616 
L 142.656 89.616 
" clip-path="url(#pf6c58e6c9a)" style="fill: none; stroke: #000000; stroke-width: 2; stroke-linecap: round"/>
   </g>
   <g id="line2d_19">
    <path d="M 50.856 89.616 
L 50.856 101.856 
L 50.856 114.096 
" clip-path="url(#pf6c58e6c9a)" style="fill: none; stroke: #000000; stroke-width: 2; stroke-linecap: round"/>
   </g>
   <g id="line2d_20">
    <path d="M 142.656 89.616 
L 185.802 89.616 
M 185.802 81.966 
L 185.802 97.266 
M 191.31 81.966 
L 191.31 97.266 
M 191.31 89.616 
L 234.456 89.616 
" clip-path="url(#pf6c58e6c9a)" style="fill: none; stroke: #000000; stroke-width: 2; stroke-linecap: round"/>
   </g>
   <g id="line2d_21">
    <path d="M 234.456 89.616 
L 234.456 120.216 
L 242.106 122.766 
L 226.806 127.866 
L 242.106 132.966 
L 226.806 138.066 
L 242.106 143.166 
L 226.806 148.266 
L 234.456 150.816 
L 234.456 181.416 
" clip-path="url(#pf6c58e6c9a)" style="fill: none; stroke: #000000; stroke-width: 2; stroke-linecap: round"/>
   </g>
   <g id="line2d_22">
    <path d="M 234.456 89.616 
L 242.106 89.616 
L 249.756 89.616 
" clip-path="url(#pf6c58e6c9a)" style="fill: none; stroke: #000000; stroke-width: 2; stroke-linecap: round"/>
   </g>
   <g id="line2d_23">
    <path d="M 234.456 181.416 
L 242.106 181.416 
L 249.756 181.416 
" clip-path="url(#pf6c58e6c9a)" style="fill: none; stroke: #000000; stroke-width: 2; stroke-linecap: round"/>
   </g>
   <g id="line2d_24">
    <path d="M 234.456 181.416 
L 142.656 181.416 
L 50.856 181.416 
" clip-path="url(#pf6c58e6c9a)" style="fill: none; stroke: #000000; stroke-width: 2; stroke-linecap: round"/>
   </g>
   <g id="line2d_25">
    <path d="M 50.856 181.416 
L 50.856 193.656 
L 43.206 193.656 
L 58.506 193.656 
M 45.501 197.328 
L 56.211 197.328 
M 49.326 201 
L 52.386 201 
" clip-path="url(#pf6c58e6c9a)" style="fill: none; stroke: #000000; stroke-width: 2; stroke-linecap: round"/>
   </g>
   <g id="line2d_26">
    <path d="M 50.856 181.416 
L 50.856 167.646 
L 50.856 153.876 
" clip-path="url(#pf6c58e6c9a)" style="fill: none; stroke: #000000; stroke-width: 2; stroke-linecap: round"/>
   </g>
   <g id="text_1">
    <g clip-path="url(#pf6c58e6c9a)">
     <!-- $L_1$ -->
     <g transform="translate(90.3185 72.329339)scale(0.125 -0.125)">
      <defs>
       <path id="DejaVuSans-Oblique-4c" d="M 1075 4666 
L 1709 4666 
L 909 525 
L 3181 525 
L 3078 0 
L 172 0 
L 1075 4666 
z
" transform="scale(0.015625)"/>
       <path id="DejaVuSans-31" d="M 794 531 
L 1825 531 
L 1825 4091 
L 703 3866 
L 703 4441 
L 1819 4666 
L 2450 4666 
L 2450 531 
L 3481 531 
L 3481 0 
L 794 0 
L 794 531 
z
" transform="scale(0.015625)"/>
      </defs>
      <use xlink:href="#DejaVuSans-Oblique-4c" transform="translate(0 0.09375)"/>
      <use xlink:href="#DejaVuSans-31" transform="translate(55.712891 -16.3125)scale(0.7)"/>
     </g>
    </g>
   </g>
   <g id="text_2">
    <g clip-path="url(#pf6c58e6c9a)">
     <!-- $C_1$ -->
     <g transform="translate(181.181 76.306391)scale(0.125 -0.125)">
      <defs>
       <path id="DejaVuSans-Oblique-43" d="M 4447 4306 
L 4319 3641 
Q 4019 3944 3683 4091 
Q 3347 4238 2956 4238 
Q 2422 4238 2017 3981 
Q 1613 3725 1319 3200 
Q 1131 2863 1032 2486 
Q 934 2109 934 1728 
Q 934 1091 1264 756 
Q 1594 422 2222 422 
Q 2656 422 3056 561 
Q 3456 700 3834 978 
L 3688 231 
Q 3316 72 2936 -9 
Q 2556 -91 2175 -91 
Q 1278 -91 773 396 
Q 269 884 269 1753 
Q 269 2309 461 2846 
Q 653 3384 1013 3828 
Q 1394 4300 1883 4525 
Q 2372 4750 3022 4750 
Q 3422 4750 3780 4639 
Q 4138 4528 4447 4306 
z
" transform="scale(0.015625)"/>
      </defs>
      <use xlink:href="#DejaVuSans-Oblique-43" transform="translate(0 0.78125)"/>
      <use xlink:href="#DejaVuSans-31" transform="translate(69.824219 -15.625)scale(0.7)"/>
     </g>
    </g>
   </g>
   <g id="text_3">
    <g clip-path="url(#pf6c58e6c9a)">
     <!-- $R_L$ -->
     <g transform="translate(209.746 138.965219)scale(0.125 -0.125)">
      <defs>
       <path id="DejaVuSans-Oblique-52" d="M 1613 4147 
L 1294 2491 
L 2106 2491 
Q 2584 2491 2879 2755 
Q 3175 3019 3175 3444 
Q 3175 3784 2976 3965 
Q 2778 4147 2406 4147 
L 1613 4147 
z
M 2772 2241 
Q 2972 2194 3105 2009 
Q 3238 1825 3413 1275 
L 3809 0 
L 3144 0 
L 2778 1197 
Q 2638 1659 2453 1815 
Q 2269 1972 1888 1972 
L 1191 1972 
L 806 0 
L 172 0 
L 1081 4666 
L 2503 4666 
Q 3150 4666 3495 4373 
Q 3841 4081 3841 3531 
Q 3841 3044 3547 2687 
Q 3253 2331 2772 2241 
z
" transform="scale(0.015625)"/>
      </defs>
      <use xlink:href="#DejaVuSans-Oblique-52" transform="translate(0 0.09375)"/>
      <use xlink:href="#DejaVuSans-Oblique-4c" transform="translate(69.482422 -16.3125)scale(0.7)"/>
     </g>
    </g>
   </g>
   <g id="text_4">
    <g clip-path="url(#pf6c58e6c9a)">
     <!-- - -->
     <g transform="translate(259.741117 116.015219)scale(0.125 -0.125)">
      <defs>
       <path id="DejaVuSans-2d" d="M 313 2009 
L 1997 2009 
L 1997 1497 
L 313 1497 
L 313 2009 
z
" transform="scale(0.015625)"/>
      </defs>
      <use xlink:href="#DejaVuSans-2d"/>
     </g>
    </g>
   </g>
   <g id="text_5">
    <g clip-path="url(#pf6c58e6c9a)">
     <!-- $v_{out}$ -->
     <g transform="translate(250.9335 138.965219)scale(0.125 -0.125)">
      <defs>
       <path id="DejaVuSans-Oblique-76" d="M 459 3500 
L 1069 3500 
L 1581 525 
L 3256 3500 
L 3866 3500 
L 1875 0 
L 1100 0 
L 459 3500 
z
" transform="scale(0.015625)"/>
       <path id="DejaVuSans-Oblique-6f" d="M 1625 -91 
Q 1009 -91 651 289 
Q 294 669 294 1325 
Q 294 1706 417 2101 
Q 541 2497 738 2766 
Q 1047 3184 1428 3384 
Q 1809 3584 2291 3584 
Q 2888 3584 3255 3212 
Q 3622 2841 3622 2241 
Q 3622 1825 3500 1412 
Q 3378 1000 3181 728 
Q 2875 309 2494 109 
Q 2113 -91 1625 -91 
z
M 891 1344 
Q 891 869 1089 633 
Q 1288 397 1691 397 
Q 2269 397 2648 901 
Q 3028 1406 3028 2181 
Q 3028 2634 2825 2865 
Q 2622 3097 2228 3097 
Q 1903 3097 1650 2945 
Q 1397 2794 1197 2484 
Q 1050 2253 970 1956 
Q 891 1659 891 1344 
z
" transform="scale(0.015625)"/>
       <path id="DejaVuSans-Oblique-75" d="M 428 1388 
L 838 3500 
L 1416 3500 
L 1006 1409 
Q 975 1256 961 1147 
Q 947 1038 947 966 
Q 947 700 1109 554 
Q 1272 409 1569 409 
Q 2031 409 2368 721 
Q 2706 1034 2809 1563 
L 3194 3500 
L 3769 3500 
L 3091 0 
L 2516 0 
L 2631 550 
Q 2388 244 2052 76 
Q 1716 -91 1338 -91 
Q 878 -91 622 161 
Q 366 413 366 863 
Q 366 956 381 1097 
Q 397 1238 428 1388 
z
" transform="scale(0.015625)"/>
       <path id="DejaVuSans-Oblique-74" d="M 2706 3500 
L 2619 3053 
L 1472 3053 
L 1100 1153 
Q 1081 1047 1072 975 
Q 1063 903 1063 863 
Q 1063 663 1183 572 
Q 1303 481 1569 481 
L 2150 481 
L 2053 0 
L 1503 0 
Q 991 0 739 200 
Q 488 400 488 806 
Q 488 878 497 964 
Q 506 1050 525 1153 
L 897 3053 
L 409 3053 
L 500 3500 
L 978 3500 
L 1172 4494 
L 1747 4494 
L 1556 3500 
L 2706 3500 
z
" transform="scale(0.015625)"/>
      </defs>
      <use xlink:href="#DejaVuSans-Oblique-76" transform="translate(0 0.3125)"/>
      <use xlink:href="#DejaVuSans-Oblique-6f" transform="translate(59.179688 -16.09375)scale(0.7)"/>
      <use xlink:href="#DejaVuSans-Oblique-75" transform="translate(102.006836 -16.09375)scale(0.7)"/>
      <use xlink:href="#DejaVuSans-Oblique-74" transform="translate(146.37207 -16.09375)scale(0.7)"/>
     </g>
    </g>
   </g>
   <g id="text_6">
    <g clip-path="url(#pf6c58e6c9a)">
     <!-- $+$ -->
     <g transform="translate(256.746 161.915219)scale(0.125 -0.125)">
      <defs>
       <path id="DejaVuSans-2b" d="M 2944 4013 
L 2944 2272 
L 4684 2272 
L 4684 1741 
L 2944 1741 
L 2944 0 
L 2419 0 
L 2419 1741 
L 678 1741 
L 678 2272 
L 2419 2272 
L 2419 4013 
L 2944 4013 
z
" transform="scale(0.015625)"/>
      </defs>
      <use xlink:href="#DejaVuSans-2b" transform="translate(0 0.296875)"/>
     </g>
    </g>
   </g>
   <g id="patch_4">
    <path d="M 27.855 92.013 
C 28.463641 92.013 29.047436 91.771184 29.47781 91.34081 
C 29.908184 90.910436 30.15 90.326641 30.15 89.718 
C 30.15 89.109359 29.908184 88.525564 29.47781 88.09519 
C 29.047436 87.664816 28.463641 87.423 27.855 87.423 
C 27.246359 87.423 26.662564 87.664816 26.23219 88.09519 
C 25.801816 88.525564 25.56 89.109359 25.56 89.718 
C 25.56 90.326641 25.801816 90.910436 26.23219 91.34081 
C 26.662564 91.771184 27.246359 92.013 27.855 92.013 
z
" clip-path="url(#pf6c58e6c9a)" style="stroke: #000000; stroke-width: 2; stroke-linejoin: miter"/>
   </g>
   <g id="patch_5">
    <path d="M 12.555 92.013 
C 13.163641 92.013 13.747436 91.771184 14.17781 91.34081 
C 14.608184 90.910436 14.85 90.326641 14.85 89.718 
C 14.85 89.109359 14.608184 88.525564 14.17781 88.09519 
C 13.747436 87.664816 13.163641 87.423 12.555 87.423 
C 11.946359 87.423 11.362564 87.664816 10.93219 88.09519 
C 10.501816 88.525564 10.26 89.109359 10.26 89.718 
C 10.26 90.326641 10.501816 90.910436 10.93219 91.34081 
C 11.362564 91.771184 11.946359 92.013 12.555 92.013 
z
" clip-path="url(#pf6c58e6c9a)" style="fill: #ffffff; stroke: #000000; stroke-width: 2; stroke-linejoin: miter"/>
   </g>
   <g id="patch_6">
    <path d="M 50.856 91.911 
C 51.464641 91.911 52.048436 91.669184 52.47881 91.23881 
C 52.909184 90.808436 53.151 90.224641 53.151 89.616 
C 53.151 89.007359 52.909184 88.423564 52.47881 87.99319 
C 52.048436 87.562816 51.464641 87.321 50.856 87.321 
C 50.247359 87.321 49.663564 87.562816 49.23319 87.99319 
C 48.802816 88.423564 48.561 89.007359 48.561 89.616 
C 48.561 90.224641 48.802816 90.808436 49.23319 91.23881 
C 49.663564 91.669184 50.247359 91.911 50.856 91.911 
z
" clip-path="url(#pf6c58e6c9a)" style="stroke: #000000; stroke-width: 2; stroke-linejoin: miter"/>
   </g>
   <g id="patch_7">
    <path d="M 249.756 91.911 
C 250.364641 91.911 250.948436 91.669184 251.37881 91.23881 
C 251.809184 90.808436 252.051 90.224641 252.051 89.616 
C 252.051 89.007359 251.809184 88.423564 251.37881 87.99319 
C 250.948436 87.562816 250.364641 87.321 249.756 87.321 
C 249.147359 87.321 248.563564 87.562816 248.13319 87.99319 
C 247.702816 88.423564 247.461 89.007359 247.461 89.616 
C 247.461 90.224641 247.702816 90.808436 248.13319 91.23881 
C 248.563564 91.669184 249.147359 91.911 249.756 91.911 
z
" clip-path="url(#pf6c58e6c9a)" style="fill: #ffffff; stroke: #000000; stroke-width: 2; stroke-linejoin: miter"/>
   </g>
   <g id="patch_8">
    <path d="M 249.756 183.711 
C 250.364641 183.711 250.948436 183.469184 251.37881 183.03881 
C 251.809184 182.608436 252.051 182.024641 252.051 181.416 
C 252.051 180.807359 251.809184 180.223564 251.37881 179.79319 
C 250.948436 179.362816 250.364641 179.121 249.756 179.121 
C 249.147359 179.121 248.563564 179.362816 248.13319 179.79319 
C 247.702816 180.223564 247.461 180.807359 247.461 181.416 
C 247.461 182.024641 247.702816 182.608436 248.13319 183.03881 
C 248.563564 183.469184 249.147359 183.711 249.756 183.711 
z
" clip-path="url(#pf6c58e6c9a)" style="fill: #ffffff; stroke: #000000; stroke-width: 2; stroke-linejoin: miter"/>
   </g>
   <g id="patch_9">
    <path d="M 50.856 183.711 
C 51.464641 183.711 52.048436 183.469184 52.47881 183.03881 
C 52.909184 182.608436 53.151 182.024641 53.151 181.416 
C 53.151 180.807359 52.909184 180.223564 52.47881 179.79319 
C 52.048436 179.362816 51.464641 179.121 50.856 179.121 
C 50.247359 179.121 49.663564 179.362816 49.23319 179.79319 
C 48.802816 180.223564 48.561 180.807359 48.561 181.416 
C 48.561 182.024641 48.802816 182.608436 49.23319 183.03881 
C 49.663564 183.469184 50.247359 183.711 50.856 183.711 
z
" clip-path="url(#pf6c58e6c9a)" style="stroke: #000000; stroke-width: 2; stroke-linejoin: miter"/>
   </g>
  </g>
 </g>
 <defs>
  <clipPath id="pf6c58e6c9a">
   <rect x="7.2" y="7.2" width="283.0194" height="196.86"/>
  </clipPath>
 </defs>
</svg>