<?xml version="1.0" encoding="utf-8" standalone="no"?>
<!DOCTYPE svg PUBLIC "-//W3C//DTD SVG 1.1//EN"
  "http://www.w3.org/Graphics/SVG/1.1/DTD/svg11.dtd">
<svg xmlns:xlink="http://www.w3.org/1999/xlink" width="441.58125pt" height="425.298125pt" viewBox="0 0 441.58125 425.298125" xmlns="http://www.w3.org/2000/svg" version="1.1">
 <metadata>
  <rdf:RDF xmlns:dc="http://purl.org/dc/elements/1.1/" xmlns:cc="http://creativecommons.org/ns#" xmlns:rdf="http://www.w3.org/1999/02/22-rdf-syntax-ns#">
   <cc:Work>
    <dc:type rdf:resource="http://purl.org/dc/dcmitype/StillImage"/>
    <dc:date>2022-12-11T20:51:16.972976</dc:date>
    <dc:format>image/svg+xml</dc:format>
    <dc:creator>
     <cc:Agent>
      <dc:title>Matplotlib v3.5.3, https://matplotlib.org/</dc:title>
     </cc:Agent>
    </dc:creator>
   </cc:Work>
  </rdf:RDF>
 </metadata>
 <defs>
  <style type="text/css">*{stroke-linejoin: round; stroke-linecap: butt}</style>
 </defs>
 <g id="figure_1">
  <g id="patch_1">
   <path d="M 0 425.298125 
L 441.58125 425.298125 
L 441.58125 0 
L 0 0 
L 0 425.298125 
z
" style="fill: none"/>
  </g>
  <g id="axes_1">
   <g id="patch_2">
    <path d="M 43.78125 191.026087 
L 434.38125 191.026087 
L 434.38125 7.2 
L 43.78125 7.2 
z
" style="fill: #ffffff"/>
   </g>
   <g id="matplotlib.axis_1">
    <g id="xtick_1">
     <g id="line2d_1">
      <defs>
       <path id="mf2f317f881" d="M 0 0 
L 0 3.5 
" style="stroke: #000000; stroke-width: 0.8"/>
      </defs>
      <g>
       <use xlink:href="#mf2f317f881" x="61.535795" y="191.026087" style="stroke: #000000; stroke-width: 0.8"/>
      </g>
     </g>
    </g>
    <g id="xtick_2">
     <g id="line2d_2">
      <g>
       <use xlink:href="#mf2f317f881" x="110.853977" y="191.026087" style="stroke: #000000; stroke-width: 0.8"/>
      </g>
     </g>
    </g>
    <g id="xtick_3">
     <g id="line2d_3">
      <g>
       <use xlink:href="#mf2f317f881" x="160.172159" y="191.026087" style="stroke: #000000; stroke-width: 0.8"/>
      </g>
     </g>
    </g>
    <g id="xtick_4">
     <g id="line2d_4">
      <g>
       <use xlink:href="#mf2f317f881" x="209.490341" y="191.026087" style="stroke: #000000; stroke-width: 0.8"/>
      </g>
     </g>
    </g>
    <g id="xtick_5">
     <g id="line2d_5">
      <g>
       <use xlink:href="#mf2f317f881" x="258.808523" y="191.026087" style="stroke: #000000; stroke-width: 0.8"/>
      </g>
     </g>
    </g>
    <g id="xtick_6">
     <g id="line2d_6">
      <g>
       <use xlink:href="#mf2f317f881" x="308.126705" y="191.026087" style="stroke: #000000; stroke-width: 0.8"/>
      </g>
     </g>
    </g>
    <g id="xtick_7">
     <g id="line2d_7">
      <g>
       <use xlink:href="#mf2f317f881" x="357.444886" y="191.026087" style="stroke: #000000; stroke-width: 0.8"/>
      </g>
     </g>
    </g>
    <g id="xtick_8">
     <g id="line2d_8">
      <g>
       <use xlink:href="#mf2f317f881" x="406.763068" y="191.026087" style="stroke: #000000; stroke-width: 0.8"/>
      </g>
     </g>
    </g>
   </g>
   <g id="matplotlib.axis_2">
    <g id="ytick_1">
     <g id="line2d_9">
      <defs>
       <path id="m52566c7d44" d="M 0 0 
L -3.5 0 
" style="stroke: #000000; stroke-width: 0.8"/>
      </defs>
      <g>
       <use xlink:href="#m52566c7d44" x="43.78125" y="191.026087" style="stroke: #000000; stroke-width: 0.8"/>
      </g>
     </g>
     <g id="text_1">
      <!-- 0 -->
      <g transform="translate(30.41875 194.825306)scale(0.1 -0.1)">
       <defs>
        <path id="DejaVuSans-30" d="M 2034 4250 
Q 1547 4250 1301 3770 
Q 1056 3291 1056 2328 
Q 1056 1369 1301 889 
Q 1547 409 2034 409 
Q 2525 409 2770 889 
Q 3016 1369 3016 2328 
Q 3016 3291 2770 3770 
Q 2525 4250 2034 4250 
z
M 2034 4750 
Q 2819 4750 3233 4129 
Q 3647 3509 3647 2328 
Q 3647 1150 3233 529 
Q 2819 -91 2034 -91 
Q 1250 -91 836 529 
Q 422 1150 422 2328 
Q 422 3509 836 4129 
Q 1250 4750 2034 4750 
z
" transform="scale(0.015625)"/>
       </defs>
       <use xlink:href="#DejaVuSans-30"/>
      </g>
     </g>
    </g>
    <g id="ytick_2">
     <g id="line2d_10">
      <g>
       <use xlink:href="#m52566c7d44" x="43.78125" y="153.866847" style="stroke: #000000; stroke-width: 0.8"/>
      </g>
     </g>
     <g id="text_2">
      <!-- 20 -->
      <g transform="translate(24.05625 157.666066)scale(0.1 -0.1)">
       <defs>
        <path id="DejaVuSans-32" d="M 1228 531 
L 3431 531 
L 3431 0 
L 469 0 
L 469 531 
Q 828 903 1448 1529 
Q 2069 2156 2228 2338 
Q 2531 2678 2651 2914 
Q 2772 3150 2772 3378 
Q 2772 3750 2511 3984 
Q 2250 4219 1831 4219 
Q 1534 4219 1204 4116 
Q 875 4013 500 3803 
L 500 4441 
Q 881 4594 1212 4672 
Q 1544 4750 1819 4750 
Q 2544 4750 2975 4387 
Q 3406 4025 3406 3419 
Q 3406 3131 3298 2873 
Q 3191 2616 2906 2266 
Q 2828 2175 2409 1742 
Q 1991 1309 1228 531 
z
" transform="scale(0.015625)"/>
       </defs>
       <use xlink:href="#DejaVuSans-32"/>
       <use xlink:href="#DejaVuSans-30" x="63.623047"/>
      </g>
     </g>
    </g>
    <g id="ytick_3">
     <g id="line2d_11">
      <g>
       <use xlink:href="#m52566c7d44" x="43.78125" y="116.707607" style="stroke: #000000; stroke-width: 0.8"/>
      </g>
     </g>
     <g id="text_3">
      <!-- 40 -->
      <g transform="translate(24.05625 120.506826)scale(0.1 -0.1)">
       <defs>
        <path id="DejaVuSans-34" d="M 2419 4116 
L 825 1625 
L 2419 1625 
L 2419 4116 
z
M 2253 4666 
L 3047 4666 
L 3047 1625 
L 3713 1625 
L 3713 1100 
L 3047 1100 
L 3047 0 
L 2419 0 
L 2419 1100 
L 313 1100 
L 313 1709 
L 2253 4666 
z
" transform="scale(0.015625)"/>
       </defs>
       <use xlink:href="#DejaVuSans-34"/>
       <use xlink:href="#DejaVuSans-30" x="63.623047"/>
      </g>
     </g>
    </g>
    <g id="ytick_4">
     <g id="line2d_12">
      <g>
       <use xlink:href="#m52566c7d44" x="43.78125" y="79.548367" style="stroke: #000000; stroke-width: 0.8"/>
      </g>
     </g>
     <g id="text_4">
      <!-- 60 -->
      <g transform="translate(24.05625 83.347586)scale(0.1 -0.1)">
       <defs>
        <path id="DejaVuSans-36" d="M 2113 2584 
Q 1688 2584 1439 2293 
Q 1191 2003 1191 1497 
Q 1191 994 1439 701 
Q 1688 409 2113 409 
Q 2538 409 2786 701 
Q 3034 994 3034 1497 
Q 3034 2003 2786 2293 
Q 2538 2584 2113 2584 
z
M 3366 4563 
L 3366 3988 
Q 3128 4100 2886 4159 
Q 2644 4219 2406 4219 
Q 1781 4219 1451 3797 
Q 1122 3375 1075 2522 
Q 1259 2794 1537 2939 
Q 1816 3084 2150 3084 
Q 2853 3084 3261 2657 
Q 3669 2231 3669 1497 
Q 3669 778 3244 343 
Q 2819 -91 2113 -91 
Q 1303 -91 875 529 
Q 447 1150 447 2328 
Q 447 3434 972 4092 
Q 1497 4750 2381 4750 
Q 2619 4750 2861 4703 
Q 3103 4656 3366 4563 
z
" transform="scale(0.015625)"/>
       </defs>
       <use xlink:href="#DejaVuSans-36"/>
       <use xlink:href="#DejaVuSans-30" x="63.623047"/>
      </g>
     </g>
    </g>
    <g id="ytick_5">
     <g id="line2d_13">
      <g>
       <use xlink:href="#m52566c7d44" x="43.78125" y="42.389128" style="stroke: #000000; stroke-width: 0.8"/>
      </g>
     </g>
     <g id="text_5">
      <!-- 80 -->
      <g transform="translate(24.05625 46.188346)scale(0.1 -0.1)">
       <defs>
        <path id="DejaVuSans-38" d="M 2034 2216 
Q 1584 2216 1326 1975 
Q 1069 1734 1069 1313 
Q 1069 891 1326 650 
Q 1584 409 2034 409 
Q 2484 409 2743 651 
Q 3003 894 3003 1313 
Q 3003 1734 2745 1975 
Q 2488 2216 2034 2216 
z
M 1403 2484 
Q 997 2584 770 2862 
Q 544 3141 544 3541 
Q 544 4100 942 4425 
Q 1341 4750 2034 4750 
Q 2731 4750 3128 4425 
Q 3525 4100 3525 3541 
Q 3525 3141 3298 2862 
Q 3072 2584 2669 2484 
Q 3125 2378 3379 2068 
Q 3634 1759 3634 1313 
Q 3634 634 3220 271 
Q 2806 -91 2034 -91 
Q 1263 -91 848 271 
Q 434 634 434 1313 
Q 434 1759 690 2068 
Q 947 2378 1403 2484 
z
M 1172 3481 
Q 1172 3119 1398 2916 
Q 1625 2713 2034 2713 
Q 2441 2713 2670 2916 
Q 2900 3119 2900 3481 
Q 2900 3844 2670 4047 
Q 2441 4250 2034 4250 
Q 1625 4250 1398 4047 
Q 1172 3844 1172 3481 
z
" transform="scale(0.015625)"/>
       </defs>
       <use xlink:href="#DejaVuSans-38"/>
       <use xlink:href="#DejaVuSans-30" x="63.623047"/>
      </g>
     </g>
    </g>
    <g id="text_6">
     <!-- Uitgangsspanning (V) -->
     <g transform="translate(17.976563 153.131012)rotate(-90)scale(0.1 -0.1)">
      <defs>
       <path id="DejaVuSans-55" d="M 556 4666 
L 1191 4666 
L 1191 1831 
Q 1191 1081 1462 751 
Q 1734 422 2344 422 
Q 2950 422 3222 751 
Q 3494 1081 3494 1831 
L 3494 4666 
L 4128 4666 
L 4128 1753 
Q 4128 841 3676 375 
Q 3225 -91 2344 -91 
Q 1459 -91 1007 375 
Q 556 841 556 1753 
L 556 4666 
z
" transform="scale(0.015625)"/>
       <path id="DejaVuSans-69" d="M 603 3500 
L 1178 3500 
L 1178 0 
L 603 0 
L 603 3500 
z
M 603 4863 
L 1178 4863 
L 1178 4134 
L 603 4134 
L 603 4863 
z
" transform="scale(0.015625)"/>
       <path id="DejaVuSans-74" d="M 1172 4494 
L 1172 3500 
L 2356 3500 
L 2356 3053 
L 1172 3053 
L 1172 1153 
Q 1172 725 1289 603 
Q 1406 481 1766 481 
L 2356 481 
L 2356 0 
L 1766 0 
Q 1100 0 847 248 
Q 594 497 594 1153 
L 594 3053 
L 172 3053 
L 172 3500 
L 594 3500 
L 594 4494 
L 1172 4494 
z
" transform="scale(0.015625)"/>
       <path id="DejaVuSans-67" d="M 2906 1791 
Q 2906 2416 2648 2759 
Q 2391 3103 1925 3103 
Q 1463 3103 1205 2759 
Q 947 2416 947 1791 
Q 947 1169 1205 825 
Q 1463 481 1925 481 
Q 2391 481 2648 825 
Q 2906 1169 2906 1791 
z
M 3481 434 
Q 3481 -459 3084 -895 
Q 2688 -1331 1869 -1331 
Q 1566 -1331 1297 -1286 
Q 1028 -1241 775 -1147 
L 775 -588 
Q 1028 -725 1275 -790 
Q 1522 -856 1778 -856 
Q 2344 -856 2625 -561 
Q 2906 -266 2906 331 
L 2906 616 
Q 2728 306 2450 153 
Q 2172 0 1784 0 
Q 1141 0 747 490 
Q 353 981 353 1791 
Q 353 2603 747 3093 
Q 1141 3584 1784 3584 
Q 2172 3584 2450 3431 
Q 2728 3278 2906 2969 
L 2906 3500 
L 3481 3500 
L 3481 434 
z
" transform="scale(0.015625)"/>
       <path id="DejaVuSans-61" d="M 2194 1759 
Q 1497 1759 1228 1600 
Q 959 1441 959 1056 
Q 959 750 1161 570 
Q 1363 391 1709 391 
Q 2188 391 2477 730 
Q 2766 1069 2766 1631 
L 2766 1759 
L 2194 1759 
z
M 3341 1997 
L 3341 0 
L 2766 0 
L 2766 531 
Q 2569 213 2275 61 
Q 1981 -91 1556 -91 
Q 1019 -91 701 211 
Q 384 513 384 1019 
Q 384 1609 779 1909 
Q 1175 2209 1959 2209 
L 2766 2209 
L 2766 2266 
Q 2766 2663 2505 2880 
Q 2244 3097 1772 3097 
Q 1472 3097 1187 3025 
Q 903 2953 641 2809 
L 641 3341 
Q 956 3463 1253 3523 
Q 1550 3584 1831 3584 
Q 2591 3584 2966 3190 
Q 3341 2797 3341 1997 
z
" transform="scale(0.015625)"/>
       <path id="DejaVuSans-6e" d="M 3513 2113 
L 3513 0 
L 2938 0 
L 2938 2094 
Q 2938 2591 2744 2837 
Q 2550 3084 2163 3084 
Q 1697 3084 1428 2787 
Q 1159 2491 1159 1978 
L 1159 0 
L 581 0 
L 581 3500 
L 1159 3500 
L 1159 2956 
Q 1366 3272 1645 3428 
Q 1925 3584 2291 3584 
Q 2894 3584 3203 3211 
Q 3513 2838 3513 2113 
z
" transform="scale(0.015625)"/>
       <path id="DejaVuSans-73" d="M 2834 3397 
L 2834 2853 
Q 2591 2978 2328 3040 
Q 2066 3103 1784 3103 
Q 1356 3103 1142 2972 
Q 928 2841 928 2578 
Q 928 2378 1081 2264 
Q 1234 2150 1697 2047 
L 1894 2003 
Q 2506 1872 2764 1633 
Q 3022 1394 3022 966 
Q 3022 478 2636 193 
Q 2250 -91 1575 -91 
Q 1294 -91 989 -36 
Q 684 19 347 128 
L 347 722 
Q 666 556 975 473 
Q 1284 391 1588 391 
Q 1994 391 2212 530 
Q 2431 669 2431 922 
Q 2431 1156 2273 1281 
Q 2116 1406 1581 1522 
L 1381 1569 
Q 847 1681 609 1914 
Q 372 2147 372 2553 
Q 372 3047 722 3315 
Q 1072 3584 1716 3584 
Q 2034 3584 2315 3537 
Q 2597 3491 2834 3397 
z
" transform="scale(0.015625)"/>
       <path id="DejaVuSans-70" d="M 1159 525 
L 1159 -1331 
L 581 -1331 
L 581 3500 
L 1159 3500 
L 1159 2969 
Q 1341 3281 1617 3432 
Q 1894 3584 2278 3584 
Q 2916 3584 3314 3078 
Q 3713 2572 3713 1747 
Q 3713 922 3314 415 
Q 2916 -91 2278 -91 
Q 1894 -91 1617 61 
Q 1341 213 1159 525 
z
M 3116 1747 
Q 3116 2381 2855 2742 
Q 2594 3103 2138 3103 
Q 1681 3103 1420 2742 
Q 1159 2381 1159 1747 
Q 1159 1113 1420 752 
Q 1681 391 2138 391 
Q 2594 391 2855 752 
Q 3116 1113 3116 1747 
z
" transform="scale(0.015625)"/>
       <path id="DejaVuSans-20" transform="scale(0.015625)"/>
       <path id="DejaVuSans-28" d="M 1984 4856 
Q 1566 4138 1362 3434 
Q 1159 2731 1159 2009 
Q 1159 1288 1364 580 
Q 1569 -128 1984 -844 
L 1484 -844 
Q 1016 -109 783 600 
Q 550 1309 550 2009 
Q 550 2706 781 3412 
Q 1013 4119 1484 4856 
L 1984 4856 
z
" transform="scale(0.015625)"/>
       <path id="DejaVuSans-56" d="M 1831 0 
L 50 4666 
L 709 4666 
L 2188 738 
L 3669 4666 
L 4325 4666 
L 2547 0 
L 1831 0 
z
" transform="scale(0.015625)"/>
       <path id="DejaVuSans-29" d="M 513 4856 
L 1013 4856 
Q 1481 4119 1714 3412 
Q 1947 2706 1947 2009 
Q 1947 1309 1714 600 
Q 1481 -109 1013 -844 
L 513 -844 
Q 928 -128 1133 580 
Q 1338 1288 1338 2009 
Q 1338 2731 1133 3434 
Q 928 4138 513 4856 
z
" transform="scale(0.015625)"/>
      </defs>
      <use xlink:href="#DejaVuSans-55"/>
      <use xlink:href="#DejaVuSans-69" x="73.193359"/>
      <use xlink:href="#DejaVuSans-74" x="100.976562"/>
      <use xlink:href="#DejaVuSans-67" x="140.185547"/>
      <use xlink:href="#DejaVuSans-61" x="203.662109"/>
      <use xlink:href="#DejaVuSans-6e" x="264.941406"/>
      <use xlink:href="#DejaVuSans-67" x="328.320312"/>
      <use xlink:href="#DejaVuSans-73" x="391.796875"/>
      <use xlink:href="#DejaVuSans-73" x="443.896484"/>
      <use xlink:href="#DejaVuSans-70" x="495.996094"/>
      <use xlink:href="#DejaVuSans-61" x="559.472656"/>
      <use xlink:href="#DejaVuSans-6e" x="620.751953"/>
      <use xlink:href="#DejaVuSans-6e" x="684.130859"/>
      <use xlink:href="#DejaVuSans-69" x="747.509766"/>
      <use xlink:href="#DejaVuSans-6e" x="775.292969"/>
      <use xlink:href="#DejaVuSans-67" x="838.671875"/>
      <use xlink:href="#DejaVuSans-20" x="902.148438"/>
      <use xlink:href="#DejaVuSans-28" x="933.935547"/>
      <use xlink:href="#DejaVuSans-56" x="972.949219"/>
      <use xlink:href="#DejaVuSans-29" x="1041.357422"/>
     </g>
    </g>
   </g>
   <g id="line2d_14">
    <path d="M 61.535795 42.389128 
L 67.940241 52.593223 
L 71.498266 57.866468 
L 74.344686 61.731248 
L 77.191106 65.194039 
L 79.325921 67.483677 
L 81.460736 69.479724 
L 83.595551 71.158828 
L 85.730366 72.501345 
L 87.865181 73.491567 
L 89.288392 73.950102 
L 90.711602 74.244439 
L 92.134812 74.373048 
L 93.558022 74.335259 
L 94.981232 74.131269 
L 96.404442 73.762139 
L 97.827652 73.229789 
L 99.962467 72.131516 
L 102.097282 70.685276 
L 104.232097 68.907988 
L 106.366912 66.820447 
L 108.501727 64.447074 
L 111.348147 60.886385 
L 114.194568 56.941266 
L 117.752593 51.594795 
L 122.733828 43.648837 
L 129.849878 32.285629 
L 133.407903 27.004712 
L 136.254323 23.131609 
L 139.100744 19.658736 
L 141.235559 17.360508 
L 143.370374 15.355099 
L 145.505189 13.665972 
L 147.640004 12.312887 
L 149.774819 11.311676 
L 151.198029 10.845645 
L 152.621239 10.54372 
L 154.044449 10.407472 
L 155.467659 10.437611 
L 156.890869 10.633978 
L 158.314079 10.995553 
L 159.737289 11.520454 
L 161.872104 12.60784 
L 164.00692 14.043649 
L 166.141735 15.811082 
L 168.27655 17.889461 
L 170.411365 20.254471 
L 173.257785 23.805421 
L 176.104205 27.742599 
L 179.66223 33.081916 
L 184.643465 41.023426 
L 191.759516 52.391918 
L 195.317541 57.680449 
L 198.163961 61.561833 
L 201.010381 65.044749 
L 203.145196 67.351542 
L 205.280011 69.36629 
L 207.414826 71.065423 
L 209.549641 72.429061 
L 211.684456 73.44125 
L 213.107666 73.914772 
L 214.530877 74.224281 
L 215.954087 74.368166 
L 217.377297 74.345679 
L 218.800507 74.156936 
L 220.223717 73.802921 
L 221.646927 73.285473 
L 223.781742 72.208986 
L 225.916557 70.783625 
L 228.051372 69.026067 
L 230.186187 66.956872 
L 232.321002 64.600251 
L 235.167422 61.059079 
L 238.013842 57.129887 
L 241.571868 51.797781 
L 246.553103 43.860808 
L 253.669153 32.487155 
L 257.227178 27.191069 
L 260.073598 23.301446 
L 262.920018 19.808525 
L 265.054834 17.493193 
L 267.189649 15.469127 
L 269.324464 13.760008 
L 271.459279 12.385832 
L 273.594094 11.362676 
L 275.017304 10.881668 
L 276.440514 10.564578 
L 277.863724 10.413057 
L 279.286934 10.427893 
L 280.710144 10.609009 
L 282.133354 10.955462 
L 283.556564 11.465449 
L 285.691379 12.531026 
L 287.826194 13.945923 
L 289.96101 15.693589 
L 292.095825 17.753575 
L 294.23064 20.101782 
L 297.07706 23.633137 
L 299.92348 27.554301 
L 303.481505 32.879135 
L 308.46274 40.811486 
L 315.578791 52.190173 
L 319.136816 57.493757 
L 321.983236 61.391575 
L 324.829656 64.894463 
L 326.964471 67.218309 
L 329.099286 69.25167 
L 331.234101 70.970756 
L 333.368916 72.355455 
L 335.503731 73.389567 
L 336.926941 73.878056 
L 338.350151 74.202723 
L 339.773361 74.361878 
L 341.196572 74.354694 
L 342.619782 74.181207 
L 344.042992 73.842321 
L 345.466202 73.339798 
L 347.601017 72.285144 
L 349.735832 70.880726 
L 351.870647 69.142973 
L 354.005462 67.092217 
L 356.140277 64.752451 
L 358.986697 61.230951 
L 361.833117 57.317859 
L 365.391143 52.000354 
L 370.372378 44.072714 
L 378.200033 31.59604 
L 381.758058 26.369058 
L 384.604478 22.554058 
L 387.450898 19.151291 
L 389.585713 16.912652 
L 391.720529 14.972072 
L 393.855344 13.352255 
L 395.990159 12.07215 
L 398.124974 11.146735 
L 399.548184 10.732363 
L 400.971394 10.482686 
L 402.394604 10.399005 
L 403.817814 10.481753 
L 405.241024 10.7305 
L 406.664234 11.143953 
L 408.087444 11.71996 
L 410.222259 12.881977 
L 412.357074 14.38921 
L 414.491889 16.224024 
L 416.626705 18.364953 
L 416.626705 18.364953 
" clip-path="url(#p87341423cd)" style="fill: none; stroke: #1f77b4; stroke-width: 1.5; stroke-linecap: square"/>
   </g>
   <g id="line2d_15">
    <path d="M 61.535795 42.389128 
L 416.626705 42.389128 
L 416.626705 42.389128 
" clip-path="url(#p87341423cd)" style="fill: none; stroke: #ff7f0e; stroke-width: 1.5; stroke-linecap: square"/>
   </g>
   <g id="patch_3">
    <path d="M 43.78125 191.026087 
L 43.78125 7.2 
" style="fill: none; stroke: #000000; stroke-width: 0.8; stroke-linejoin: miter; stroke-linecap: square"/>
   </g>
   <g id="patch_4">
    <path d="M 434.38125 191.026087 
L 434.38125 7.2 
" style="fill: none; stroke: #000000; stroke-width: 0.8; stroke-linejoin: miter; stroke-linecap: square"/>
   </g>
   <g id="patch_5">
    <path d="M 43.78125 191.026087 
L 434.38125 191.026087 
" style="fill: none; stroke: #000000; stroke-width: 0.8; stroke-linejoin: miter; stroke-linecap: square"/>
   </g>
   <g id="patch_6">
    <path d="M 43.78125 7.2 
L 434.38125 7.2 
" style="fill: none; stroke: #000000; stroke-width: 0.8; stroke-linejoin: miter; stroke-linecap: square"/>
   </g>
   <g id="legend_1">
    <g id="patch_7">
     <path d="M 50.78125 186.026087 
L 101.38125 186.026087 
Q 103.38125 186.026087 103.38125 184.026087 
L 103.38125 155.669837 
Q 103.38125 153.669837 101.38125 153.669837 
L 50.78125 153.669837 
Q 48.78125 153.669837 48.78125 155.669837 
L 48.78125 184.026087 
Q 48.78125 186.026087 50.78125 186.026087 
z
" style="fill: #ffffff; opacity: 0.8; stroke: #cccccc; stroke-linejoin: miter"/>
    </g>
    <g id="line2d_16">
     <path d="M 52.78125 161.768274 
L 62.78125 161.768274 
L 72.78125 161.768274 
" style="fill: none; stroke: #1f77b4; stroke-width: 1.5; stroke-linecap: square"/>
    </g>
    <g id="text_7">
     <!-- $V_{out}$ -->
     <g transform="translate(80.78125 165.268274)scale(0.1 -0.1)">
      <defs>
       <path id="DejaVuSans-Oblique-56" d="M 1319 0 
L 500 4666 
L 1119 4666 
L 1797 653 
L 4063 4666 
L 4750 4666 
L 2053 0 
L 1319 0 
z
" transform="scale(0.015625)"/>
       <path id="DejaVuSans-Oblique-6f" d="M 1625 -91 
Q 1009 -91 651 289 
Q 294 669 294 1325 
Q 294 1706 417 2101 
Q 541 2497 738 2766 
Q 1047 3184 1428 3384 
Q 1809 3584 2291 3584 
Q 2888 3584 3255 3212 
Q 3622 2841 3622 2241 
Q 3622 1825 3500 1412 
Q 3378 1000 3181 728 
Q 2875 309 2494 109 
Q 2113 -91 1625 -91 
z
M 891 1344 
Q 891 869 1089 633 
Q 1288 397 1691 397 
Q 2269 397 2648 901 
Q 3028 1406 3028 2181 
Q 3028 2634 2825 2865 
Q 2622 3097 2228 3097 
Q 1903 3097 1650 2945 
Q 1397 2794 1197 2484 
Q 1050 2253 970 1956 
Q 891 1659 891 1344 
z
" transform="scale(0.015625)"/>
       <path id="DejaVuSans-Oblique-75" d="M 428 1388 
L 838 3500 
L 1416 3500 
L 1006 1409 
Q 975 1256 961 1147 
Q 947 1038 947 966 
Q 947 700 1109 554 
Q 1272 409 1569 409 
Q 2031 409 2368 721 
Q 2706 1034 2809 1563 
L 3194 3500 
L 3769 3500 
L 3091 0 
L 2516 0 
L 2631 550 
Q 2388 244 2052 76 
Q 1716 -91 1338 -91 
Q 878 -91 622 161 
Q 366 413 366 863 
Q 366 956 381 1097 
Q 397 1238 428 1388 
z
" transform="scale(0.015625)"/>
       <path id="DejaVuSans-Oblique-74" d="M 2706 3500 
L 2619 3053 
L 1472 3053 
L 1100 1153 
Q 1081 1047 1072 975 
Q 1063 903 1063 863 
Q 1063 663 1183 572 
Q 1303 481 1569 481 
L 2150 481 
L 2053 0 
L 1503 0 
Q 991 0 739 200 
Q 488 400 488 806 
Q 488 878 497 964 
Q 506 1050 525 1153 
L 897 3053 
L 409 3053 
L 500 3500 
L 978 3500 
L 1172 4494 
L 1747 4494 
L 1556 3500 
L 2706 3500 
z
" transform="scale(0.015625)"/>
      </defs>
      <use xlink:href="#DejaVuSans-Oblique-56" transform="translate(0 0.09375)"/>
      <use xlink:href="#DejaVuSans-Oblique-6f" transform="translate(68.408203 -16.3125)scale(0.7)"/>
      <use xlink:href="#DejaVuSans-Oblique-75" transform="translate(111.235352 -16.3125)scale(0.7)"/>
      <use xlink:href="#DejaVuSans-Oblique-74" transform="translate(155.600586 -16.3125)scale(0.7)"/>
     </g>
    </g>
    <g id="line2d_17">
     <path d="M 52.78125 176.446399 
L 62.78125 176.446399 
L 72.78125 176.446399 
" style="fill: none; stroke: #ff7f0e; stroke-width: 1.5; stroke-linecap: square"/>
    </g>
    <g id="text_8">
     <!-- $V_{dd}$ -->
     <g transform="translate(80.78125 179.946399)scale(0.1 -0.1)">
      <defs>
       <path id="DejaVuSans-Oblique-64" d="M 2675 525 
Q 2444 222 2128 65 
Q 1813 -91 1428 -91 
Q 903 -91 598 267 
Q 294 625 294 1247 
Q 294 1766 478 2236 
Q 663 2706 1013 3078 
Q 1244 3325 1534 3454 
Q 1825 3584 2144 3584 
Q 2481 3584 2739 3421 
Q 2997 3259 3138 2956 
L 3513 4863 
L 4091 4863 
L 3144 0 
L 2566 0 
L 2675 525 
z
M 891 1350 
Q 891 897 1095 644 
Q 1300 391 1663 391 
Q 1931 391 2161 520 
Q 2391 650 2566 903 
Q 2750 1166 2856 1509 
Q 2963 1853 2963 2188 
Q 2963 2622 2758 2865 
Q 2553 3109 2194 3109 
Q 1922 3109 1687 2981 
Q 1453 2853 1288 2613 
Q 1106 2353 998 2009 
Q 891 1666 891 1350 
z
" transform="scale(0.015625)"/>
      </defs>
      <use xlink:href="#DejaVuSans-Oblique-56" transform="translate(0 0.09375)"/>
      <use xlink:href="#DejaVuSans-Oblique-64" transform="translate(68.408203 -16.3125)scale(0.7)"/>
      <use xlink:href="#DejaVuSans-Oblique-64" transform="translate(112.841797 -16.3125)scale(0.7)"/>
     </g>
    </g>
   </g>
  </g>
  <g id="axes_2">
   <g id="patch_8">
    <path d="M 43.78125 387.72 
L 434.38125 387.72 
L 434.38125 203.893913 
L 43.78125 203.893913 
z
" style="fill: #ffffff"/>
   </g>
   <g id="matplotlib.axis_3">
    <g id="xtick_9">
     <g id="line2d_18">
      <g>
       <use xlink:href="#mf2f317f881" x="61.535795" y="387.72" style="stroke: #000000; stroke-width: 0.8"/>
      </g>
     </g>
     <g id="text_9">
      <!-- 0.0 -->
      <g transform="translate(53.584233 402.318437)scale(0.1 -0.1)">
       <defs>
        <path id="DejaVuSans-2e" d="M 684 794 
L 1344 794 
L 1344 0 
L 684 0 
L 684 794 
z
" transform="scale(0.015625)"/>
       </defs>
       <use xlink:href="#DejaVuSans-30"/>
       <use xlink:href="#DejaVuSans-2e" x="63.623047"/>
       <use xlink:href="#DejaVuSans-30" x="95.410156"/>
      </g>
     </g>
    </g>
    <g id="xtick_10">
     <g id="line2d_19">
      <g>
       <use xlink:href="#mf2f317f881" x="110.853977" y="387.72" style="stroke: #000000; stroke-width: 0.8"/>
      </g>
     </g>
     <g id="text_10">
      <!-- 2.5 -->
      <g transform="translate(102.902415 402.318437)scale(0.1 -0.1)">
       <defs>
        <path id="DejaVuSans-35" d="M 691 4666 
L 3169 4666 
L 3169 4134 
L 1269 4134 
L 1269 2991 
Q 1406 3038 1543 3061 
Q 1681 3084 1819 3084 
Q 2600 3084 3056 2656 
Q 3513 2228 3513 1497 
Q 3513 744 3044 326 
Q 2575 -91 1722 -91 
Q 1428 -91 1123 -41 
Q 819 9 494 109 
L 494 744 
Q 775 591 1075 516 
Q 1375 441 1709 441 
Q 2250 441 2565 725 
Q 2881 1009 2881 1497 
Q 2881 1984 2565 2268 
Q 2250 2553 1709 2553 
Q 1456 2553 1204 2497 
Q 953 2441 691 2322 
L 691 4666 
z
" transform="scale(0.015625)"/>
       </defs>
       <use xlink:href="#DejaVuSans-32"/>
       <use xlink:href="#DejaVuSans-2e" x="63.623047"/>
       <use xlink:href="#DejaVuSans-35" x="95.410156"/>
      </g>
     </g>
    </g>
    <g id="xtick_11">
     <g id="line2d_20">
      <g>
       <use xlink:href="#mf2f317f881" x="160.172159" y="387.72" style="stroke: #000000; stroke-width: 0.8"/>
      </g>
     </g>
     <g id="text_11">
      <!-- 5.0 -->
      <g transform="translate(152.220597 402.318437)scale(0.1 -0.1)">
       <use xlink:href="#DejaVuSans-35"/>
       <use xlink:href="#DejaVuSans-2e" x="63.623047"/>
       <use xlink:href="#DejaVuSans-30" x="95.410156"/>
      </g>
     </g>
    </g>
    <g id="xtick_12">
     <g id="line2d_21">
      <g>
       <use xlink:href="#mf2f317f881" x="209.490341" y="387.72" style="stroke: #000000; stroke-width: 0.8"/>
      </g>
     </g>
     <g id="text_12">
      <!-- 7.5 -->
      <g transform="translate(201.538778 402.318437)scale(0.1 -0.1)">
       <defs>
        <path id="DejaVuSans-37" d="M 525 4666 
L 3525 4666 
L 3525 4397 
L 1831 0 
L 1172 0 
L 2766 4134 
L 525 4134 
L 525 4666 
z
" transform="scale(0.015625)"/>
       </defs>
       <use xlink:href="#DejaVuSans-37"/>
       <use xlink:href="#DejaVuSans-2e" x="63.623047"/>
       <use xlink:href="#DejaVuSans-35" x="95.410156"/>
      </g>
     </g>
    </g>
    <g id="xtick_13">
     <g id="line2d_22">
      <g>
       <use xlink:href="#mf2f317f881" x="258.808523" y="387.72" style="stroke: #000000; stroke-width: 0.8"/>
      </g>
     </g>
     <g id="text_13">
      <!-- 10.0 -->
      <g transform="translate(247.67571 402.318437)scale(0.1 -0.1)">
       <defs>
        <path id="DejaVuSans-31" d="M 794 531 
L 1825 531 
L 1825 4091 
L 703 3866 
L 703 4441 
L 1819 4666 
L 2450 4666 
L 2450 531 
L 3481 531 
L 3481 0 
L 794 0 
L 794 531 
z
" transform="scale(0.015625)"/>
       </defs>
       <use xlink:href="#DejaVuSans-31"/>
       <use xlink:href="#DejaVuSans-30" x="63.623047"/>
       <use xlink:href="#DejaVuSans-2e" x="127.246094"/>
       <use xlink:href="#DejaVuSans-30" x="159.033203"/>
      </g>
     </g>
    </g>
    <g id="xtick_14">
     <g id="line2d_23">
      <g>
       <use xlink:href="#mf2f317f881" x="308.126705" y="387.72" style="stroke: #000000; stroke-width: 0.8"/>
      </g>
     </g>
     <g id="text_14">
      <!-- 12.5 -->
      <g transform="translate(296.993892 402.318437)scale(0.1 -0.1)">
       <use xlink:href="#DejaVuSans-31"/>
       <use xlink:href="#DejaVuSans-32" x="63.623047"/>
       <use xlink:href="#DejaVuSans-2e" x="127.246094"/>
       <use xlink:href="#DejaVuSans-35" x="159.033203"/>
      </g>
     </g>
    </g>
    <g id="xtick_15">
     <g id="line2d_24">
      <g>
       <use xlink:href="#mf2f317f881" x="357.444886" y="387.72" style="stroke: #000000; stroke-width: 0.8"/>
      </g>
     </g>
     <g id="text_15">
      <!-- 15.0 -->
      <g transform="translate(346.312074 402.318437)scale(0.1 -0.1)">
       <use xlink:href="#DejaVuSans-31"/>
       <use xlink:href="#DejaVuSans-35" x="63.623047"/>
       <use xlink:href="#DejaVuSans-2e" x="127.246094"/>
       <use xlink:href="#DejaVuSans-30" x="159.033203"/>
      </g>
     </g>
    </g>
    <g id="xtick_16">
     <g id="line2d_25">
      <g>
       <use xlink:href="#mf2f317f881" x="406.763068" y="387.72" style="stroke: #000000; stroke-width: 0.8"/>
      </g>
     </g>
     <g id="text_16">
      <!-- 17.5 -->
      <g transform="translate(395.630256 402.318437)scale(0.1 -0.1)">
       <use xlink:href="#DejaVuSans-31"/>
       <use xlink:href="#DejaVuSans-37" x="63.623047"/>
       <use xlink:href="#DejaVuSans-2e" x="127.246094"/>
       <use xlink:href="#DejaVuSans-35" x="159.033203"/>
      </g>
     </g>
    </g>
    <g id="text_17">
     <!-- Tijd*$\omega$  -->
     <g transform="translate(221.78125 415.998125)scale(0.1 -0.1)">
      <defs>
       <path id="DejaVuSans-54" d="M -19 4666 
L 3928 4666 
L 3928 4134 
L 2272 4134 
L 2272 0 
L 1638 0 
L 1638 4134 
L -19 4134 
L -19 4666 
z
" transform="scale(0.015625)"/>
       <path id="DejaVuSans-6a" d="M 603 3500 
L 1178 3500 
L 1178 -63 
Q 1178 -731 923 -1031 
Q 669 -1331 103 -1331 
L -116 -1331 
L -116 -844 
L 38 -844 
Q 366 -844 484 -692 
Q 603 -541 603 -63 
L 603 3500 
z
M 603 4863 
L 1178 4863 
L 1178 4134 
L 603 4134 
L 603 4863 
z
" transform="scale(0.015625)"/>
       <path id="DejaVuSans-64" d="M 2906 2969 
L 2906 4863 
L 3481 4863 
L 3481 0 
L 2906 0 
L 2906 525 
Q 2725 213 2448 61 
Q 2172 -91 1784 -91 
Q 1150 -91 751 415 
Q 353 922 353 1747 
Q 353 2572 751 3078 
Q 1150 3584 1784 3584 
Q 2172 3584 2448 3432 
Q 2725 3281 2906 2969 
z
M 947 1747 
Q 947 1113 1208 752 
Q 1469 391 1925 391 
Q 2381 391 2643 752 
Q 2906 1113 2906 1747 
Q 2906 2381 2643 2742 
Q 2381 3103 1925 3103 
Q 1469 3103 1208 2742 
Q 947 2381 947 1747 
z
" transform="scale(0.015625)"/>
       <path id="DejaVuSans-2a" d="M 3009 3897 
L 1888 3291 
L 3009 2681 
L 2828 2375 
L 1778 3009 
L 1778 1831 
L 1422 1831 
L 1422 3009 
L 372 2375 
L 191 2681 
L 1313 3291 
L 191 3897 
L 372 4206 
L 1422 3572 
L 1422 4750 
L 1778 4750 
L 1778 3572 
L 2828 4206 
L 3009 3897 
z
" transform="scale(0.015625)"/>
       <path id="DejaVuSans-Oblique-3c9" d="M 1369 -91 
Q 72 -91 434 1766 
Q 575 2500 1256 3500 
L 1875 3500 
Q 1231 2500 1088 1750 
Q 819 397 1519 397 
Q 2166 397 2478 2078 
L 3009 2078 
Q 2669 388 3316 397 
Q 4013 403 4275 1750 
Q 4419 2500 4169 3500 
L 4788 3500 
Q 5075 2500 4934 1766 
Q 4578 -94 3278 -91 
Q 2428 -88 2503 844 
Q 2194 -91 1369 -91 
z
" transform="scale(0.015625)"/>
      </defs>
      <use xlink:href="#DejaVuSans-54" transform="translate(0 0.015625)"/>
      <use xlink:href="#DejaVuSans-69" transform="translate(61.083984 0.015625)"/>
      <use xlink:href="#DejaVuSans-6a" transform="translate(88.867188 0.015625)"/>
      <use xlink:href="#DejaVuSans-64" transform="translate(116.650391 0.015625)"/>
      <use xlink:href="#DejaVuSans-2a" transform="translate(180.126953 0.015625)"/>
      <use xlink:href="#DejaVuSans-Oblique-3c9" transform="translate(230.126953 0.015625)"/>
      <use xlink:href="#DejaVuSans-20" transform="translate(313.867188 0.015625)"/>
     </g>
    </g>
   </g>
   <g id="matplotlib.axis_4">
    <g id="ytick_6">
     <g id="line2d_26">
      <g>
       <use xlink:href="#m52566c7d44" x="43.78125" y="387.72" style="stroke: #000000; stroke-width: 0.8"/>
      </g>
     </g>
     <g id="text_18">
      <!-- 0.0 -->
      <g transform="translate(20.878125 391.519219)scale(0.1 -0.1)">
       <use xlink:href="#DejaVuSans-30"/>
       <use xlink:href="#DejaVuSans-2e" x="63.623047"/>
       <use xlink:href="#DejaVuSans-30" x="95.410156"/>
      </g>
     </g>
    </g>
    <g id="ytick_7">
     <g id="line2d_27">
      <g>
       <use xlink:href="#m52566c7d44" x="43.78125" y="350.954783" style="stroke: #000000; stroke-width: 0.8"/>
      </g>
     </g>
     <g id="text_19">
      <!-- 0.2 -->
      <g transform="translate(20.878125 354.754001)scale(0.1 -0.1)">
       <use xlink:href="#DejaVuSans-30"/>
       <use xlink:href="#DejaVuSans-2e" x="63.623047"/>
       <use xlink:href="#DejaVuSans-32" x="95.410156"/>
      </g>
     </g>
    </g>
    <g id="ytick_8">
     <g id="line2d_28">
      <g>
       <use xlink:href="#m52566c7d44" x="43.78125" y="314.189565" style="stroke: #000000; stroke-width: 0.8"/>
      </g>
     </g>
     <g id="text_20">
      <!-- 0.4 -->
      <g transform="translate(20.878125 317.988784)scale(0.1 -0.1)">
       <use xlink:href="#DejaVuSans-30"/>
       <use xlink:href="#DejaVuSans-2e" x="63.623047"/>
       <use xlink:href="#DejaVuSans-34" x="95.410156"/>
      </g>
     </g>
    </g>
    <g id="ytick_9">
     <g id="line2d_29">
      <g>
       <use xlink:href="#m52566c7d44" x="43.78125" y="277.424348" style="stroke: #000000; stroke-width: 0.8"/>
      </g>
     </g>
     <g id="text_21">
      <!-- 0.6 -->
      <g transform="translate(20.878125 281.223567)scale(0.1 -0.1)">
       <use xlink:href="#DejaVuSans-30"/>
       <use xlink:href="#DejaVuSans-2e" x="63.623047"/>
       <use xlink:href="#DejaVuSans-36" x="95.410156"/>
      </g>
     </g>
    </g>
    <g id="ytick_10">
     <g id="line2d_30">
      <g>
       <use xlink:href="#m52566c7d44" x="43.78125" y="240.65913" style="stroke: #000000; stroke-width: 0.8"/>
      </g>
     </g>
     <g id="text_22">
      <!-- 0.8 -->
      <g transform="translate(20.878125 244.458349)scale(0.1 -0.1)">
       <use xlink:href="#DejaVuSans-30"/>
       <use xlink:href="#DejaVuSans-2e" x="63.623047"/>
       <use xlink:href="#DejaVuSans-38" x="95.410156"/>
      </g>
     </g>
    </g>
    <g id="ytick_11">
     <g id="line2d_31">
      <g>
       <use xlink:href="#m52566c7d44" x="43.78125" y="203.893913" style="stroke: #000000; stroke-width: 0.8"/>
      </g>
     </g>
     <g id="text_23">
      <!-- 1.0 -->
      <g transform="translate(20.878125 207.693132)scale(0.1 -0.1)">
       <use xlink:href="#DejaVuSans-31"/>
       <use xlink:href="#DejaVuSans-2e" x="63.623047"/>
       <use xlink:href="#DejaVuSans-30" x="95.410156"/>
      </g>
     </g>
    </g>
    <g id="text_24">
     <!-- Transistor current (A) -->
     <g transform="translate(14.798438 348.619457)rotate(-90)scale(0.1 -0.1)">
      <defs>
       <path id="DejaVuSans-72" d="M 2631 2963 
Q 2534 3019 2420 3045 
Q 2306 3072 2169 3072 
Q 1681 3072 1420 2755 
Q 1159 2438 1159 1844 
L 1159 0 
L 581 0 
L 581 3500 
L 1159 3500 
L 1159 2956 
Q 1341 3275 1631 3429 
Q 1922 3584 2338 3584 
Q 2397 3584 2469 3576 
Q 2541 3569 2628 3553 
L 2631 2963 
z
" transform="scale(0.015625)"/>
       <path id="DejaVuSans-6f" d="M 1959 3097 
Q 1497 3097 1228 2736 
Q 959 2375 959 1747 
Q 959 1119 1226 758 
Q 1494 397 1959 397 
Q 2419 397 2687 759 
Q 2956 1122 2956 1747 
Q 2956 2369 2687 2733 
Q 2419 3097 1959 3097 
z
M 1959 3584 
Q 2709 3584 3137 3096 
Q 3566 2609 3566 1747 
Q 3566 888 3137 398 
Q 2709 -91 1959 -91 
Q 1206 -91 779 398 
Q 353 888 353 1747 
Q 353 2609 779 3096 
Q 1206 3584 1959 3584 
z
" transform="scale(0.015625)"/>
       <path id="DejaVuSans-63" d="M 3122 3366 
L 3122 2828 
Q 2878 2963 2633 3030 
Q 2388 3097 2138 3097 
Q 1578 3097 1268 2742 
Q 959 2388 959 1747 
Q 959 1106 1268 751 
Q 1578 397 2138 397 
Q 2388 397 2633 464 
Q 2878 531 3122 666 
L 3122 134 
Q 2881 22 2623 -34 
Q 2366 -91 2075 -91 
Q 1284 -91 818 406 
Q 353 903 353 1747 
Q 353 2603 823 3093 
Q 1294 3584 2113 3584 
Q 2378 3584 2631 3529 
Q 2884 3475 3122 3366 
z
" transform="scale(0.015625)"/>
       <path id="DejaVuSans-75" d="M 544 1381 
L 544 3500 
L 1119 3500 
L 1119 1403 
Q 1119 906 1312 657 
Q 1506 409 1894 409 
Q 2359 409 2629 706 
Q 2900 1003 2900 1516 
L 2900 3500 
L 3475 3500 
L 3475 0 
L 2900 0 
L 2900 538 
Q 2691 219 2414 64 
Q 2138 -91 1772 -91 
Q 1169 -91 856 284 
Q 544 659 544 1381 
z
M 1991 3584 
L 1991 3584 
z
" transform="scale(0.015625)"/>
       <path id="DejaVuSans-65" d="M 3597 1894 
L 3597 1613 
L 953 1613 
Q 991 1019 1311 708 
Q 1631 397 2203 397 
Q 2534 397 2845 478 
Q 3156 559 3463 722 
L 3463 178 
Q 3153 47 2828 -22 
Q 2503 -91 2169 -91 
Q 1331 -91 842 396 
Q 353 884 353 1716 
Q 353 2575 817 3079 
Q 1281 3584 2069 3584 
Q 2775 3584 3186 3129 
Q 3597 2675 3597 1894 
z
M 3022 2063 
Q 3016 2534 2758 2815 
Q 2500 3097 2075 3097 
Q 1594 3097 1305 2825 
Q 1016 2553 972 2059 
L 3022 2063 
z
" transform="scale(0.015625)"/>
       <path id="DejaVuSans-41" d="M 2188 4044 
L 1331 1722 
L 3047 1722 
L 2188 4044 
z
M 1831 4666 
L 2547 4666 
L 4325 0 
L 3669 0 
L 3244 1197 
L 1141 1197 
L 716 0 
L 50 0 
L 1831 4666 
z
" transform="scale(0.015625)"/>
      </defs>
      <use xlink:href="#DejaVuSans-54"/>
      <use xlink:href="#DejaVuSans-72" x="46.333984"/>
      <use xlink:href="#DejaVuSans-61" x="87.447266"/>
      <use xlink:href="#DejaVuSans-6e" x="148.726562"/>
      <use xlink:href="#DejaVuSans-73" x="212.105469"/>
      <use xlink:href="#DejaVuSans-69" x="264.205078"/>
      <use xlink:href="#DejaVuSans-73" x="291.988281"/>
      <use xlink:href="#DejaVuSans-74" x="344.087891"/>
      <use xlink:href="#DejaVuSans-6f" x="383.296875"/>
      <use xlink:href="#DejaVuSans-72" x="444.478516"/>
      <use xlink:href="#DejaVuSans-20" x="485.591797"/>
      <use xlink:href="#DejaVuSans-63" x="517.378906"/>
      <use xlink:href="#DejaVuSans-75" x="572.359375"/>
      <use xlink:href="#DejaVuSans-72" x="635.738281"/>
      <use xlink:href="#DejaVuSans-72" x="675.101562"/>
      <use xlink:href="#DejaVuSans-65" x="713.964844"/>
      <use xlink:href="#DejaVuSans-6e" x="775.488281"/>
      <use xlink:href="#DejaVuSans-74" x="838.867188"/>
      <use xlink:href="#DejaVuSans-20" x="878.076172"/>
      <use xlink:href="#DejaVuSans-28" x="909.863281"/>
      <use xlink:href="#DejaVuSans-41" x="948.876953"/>
      <use xlink:href="#DejaVuSans-29" x="1017.285156"/>
     </g>
    </g>
   </g>
   <g id="line2d_32">
    <path d="M 81.138562 426.298125 
L 82.172341 388.479061 
L 83.595551 342.02191 
L 85.018761 301.984531 
L 86.441971 268.575221 
L 87.865181 241.967793 
L 88.576787 231.259446 
L 89.288392 222.300673 
L 89.999997 215.103129 
L 90.711602 209.67618 
L 91.423207 206.026886 
L 92.134812 204.159994 
L 92.846417 204.077934 
L 93.558022 205.780813 
L 94.269627 209.266415 
L 94.981232 214.530204 
L 95.692837 221.565333 
L 96.404442 230.362649 
L 97.116047 240.910705 
L 98.539257 267.201885 
L 99.962467 300.302091 
L 101.385677 340.039119 
L 102.808887 386.206235 
L 103.908072 426.298125 
M 205.087666 426.298125 
L 205.991616 393.063863 
L 207.414826 346.028177 
L 208.838036 305.391421 
L 210.261246 271.365008 
L 211.684456 244.125964 
L 212.396061 233.097391 
L 213.107666 223.816001 
L 213.819271 216.293868 
L 214.530877 210.54078 
L 215.242482 206.564223 
L 215.954087 204.369369 
L 216.665692 203.959074 
L 217.377297 205.333873 
L 218.088902 208.491976 
L 218.800507 213.429274 
L 219.512112 220.139345 
L 220.223717 228.613457 
L 220.935322 238.840586 
L 222.358532 264.498404 
L 223.781742 296.979314 
L 225.204952 336.114333 
L 226.628162 381.699858 
L 227.859175 426.298125 
M 329.0355 426.298125 
L 329.810891 397.700697 
L 331.234101 350.088545 
L 332.657311 308.854199 
L 334.080521 274.212181 
L 335.503731 246.342719 
L 336.926941 225.390805 
L 337.638546 217.544414 
L 338.350151 211.465441 
L 339.061756 207.161795 
L 339.773361 204.639075 
L 340.484967 203.900564 
L 341.196572 204.947222 
L 341.908177 207.777687 
L 342.619782 212.388278 
L 343.331387 218.772994 
L 344.042992 226.923531 
L 344.754597 236.829282 
L 346.177807 261.85261 
L 347.601017 293.712796 
L 349.024227 332.244084 
L 350.447437 377.246014 
L 351.811677 426.298125 
L 351.811677 426.298125 
" clip-path="url(#pa9dd09f467)" style="fill: none; stroke: #1f77b4; stroke-width: 1.5; stroke-linecap: square"/>
   </g>
   <g id="patch_9">
    <path d="M 43.78125 387.72 
L 43.78125 203.893913 
" style="fill: none; stroke: #000000; stroke-width: 0.8; stroke-linejoin: miter; stroke-linecap: square"/>
   </g>
   <g id="patch_10">
    <path d="M 434.38125 387.72 
L 434.38125 203.893913 
" style="fill: none; stroke: #000000; stroke-width: 0.8; stroke-linejoin: miter; stroke-linecap: square"/>
   </g>
   <g id="patch_11">
    <path d="M 43.78125 387.72 
L 434.38125 387.72 
" style="fill: none; stroke: #000000; stroke-width: 0.8; stroke-linejoin: miter; stroke-linecap: square"/>
   </g>
   <g id="patch_12">
    <path d="M 43.78125 203.893913 
L 434.38125 203.893913 
" style="fill: none; stroke: #000000; stroke-width: 0.8; stroke-linejoin: miter; stroke-linecap: square"/>
   </g>
   <g id="legend_2">
    <g id="patch_13">
     <path d="M 50.78125 382.72 
L 166.4875 382.72 
Q 168.4875 382.72 168.4875 380.72 
L 168.4875 367.041875 
Q 168.4875 365.041875 166.4875 365.041875 
L 50.78125 365.041875 
Q 48.78125 365.041875 48.78125 367.041875 
L 48.78125 380.72 
Q 48.78125 382.72 50.78125 382.72 
z
" style="fill: #ffffff; opacity: 0.8; stroke: #cccccc; stroke-linejoin: miter"/>
    </g>
    <g id="line2d_33">
     <path d="M 52.78125 373.140312 
L 62.78125 373.140312 
L 72.78125 373.140312 
" style="fill: none; stroke: #1f77b4; stroke-width: 1.5; stroke-linecap: square"/>
    </g>
    <g id="text_25">
     <!-- Collector current -->
     <g transform="translate(80.78125 376.640312)scale(0.1 -0.1)">
      <defs>
       <path id="DejaVuSans-43" d="M 4122 4306 
L 4122 3641 
Q 3803 3938 3442 4084 
Q 3081 4231 2675 4231 
Q 1875 4231 1450 3742 
Q 1025 3253 1025 2328 
Q 1025 1406 1450 917 
Q 1875 428 2675 428 
Q 3081 428 3442 575 
Q 3803 722 4122 1019 
L 4122 359 
Q 3791 134 3420 21 
Q 3050 -91 2638 -91 
Q 1578 -91 968 557 
Q 359 1206 359 2328 
Q 359 3453 968 4101 
Q 1578 4750 2638 4750 
Q 3056 4750 3426 4639 
Q 3797 4528 4122 4306 
z
" transform="scale(0.015625)"/>
       <path id="DejaVuSans-6c" d="M 603 4863 
L 1178 4863 
L 1178 0 
L 603 0 
L 603 4863 
z
" transform="scale(0.015625)"/>
      </defs>
      <use xlink:href="#DejaVuSans-43"/>
      <use xlink:href="#DejaVuSans-6f" x="69.824219"/>
      <use xlink:href="#DejaVuSans-6c" x="131.005859"/>
      <use xlink:href="#DejaVuSans-6c" x="158.789062"/>
      <use xlink:href="#DejaVuSans-65" x="186.572266"/>
      <use xlink:href="#DejaVuSans-63" x="248.095703"/>
      <use xlink:href="#DejaVuSans-74" x="303.076172"/>
      <use xlink:href="#DejaVuSans-6f" x="342.285156"/>
      <use xlink:href="#DejaVuSans-72" x="403.466797"/>
      <use xlink:href="#DejaVuSans-20" x="444.580078"/>
      <use xlink:href="#DejaVuSans-63" x="476.367188"/>
      <use xlink:href="#DejaVuSans-75" x="531.347656"/>
      <use xlink:href="#DejaVuSans-72" x="594.726562"/>
      <use xlink:href="#DejaVuSans-72" x="634.089844"/>
      <use xlink:href="#DejaVuSans-65" x="672.953125"/>
      <use xlink:href="#DejaVuSans-6e" x="734.476562"/>
      <use xlink:href="#DejaVuSans-74" x="797.855469"/>
     </g>
    </g>
   </g>
  </g>
  <g id="text_26">
   <!-- $P_{ac}=$1.85W -->
   <g transform="translate(283.18125 97.92)scale(0.1 -0.1)">
    <defs>
     <path id="DejaVuSans-Oblique-50" d="M 1081 4666 
L 2541 4666 
Q 3178 4666 3512 4369 
Q 3847 4072 3847 3500 
Q 3847 2731 3353 2303 
Q 2859 1875 1966 1875 
L 1172 1875 
L 806 0 
L 172 0 
L 1081 4666 
z
M 1613 4147 
L 1275 2394 
L 2069 2394 
Q 2606 2394 2893 2669 
Q 3181 2944 3181 3456 
Q 3181 3784 2986 3965 
Q 2791 4147 2438 4147 
L 1613 4147 
z
" transform="scale(0.015625)"/>
     <path id="DejaVuSans-Oblique-61" d="M 3438 1997 
L 3047 0 
L 2472 0 
L 2578 531 
Q 2325 219 2001 64 
Q 1678 -91 1281 -91 
Q 834 -91 548 182 
Q 263 456 263 884 
Q 263 1497 752 1853 
Q 1241 2209 2100 2209 
L 2900 2209 
L 2931 2363 
Q 2938 2388 2941 2417 
Q 2944 2447 2944 2509 
Q 2944 2788 2717 2942 
Q 2491 3097 2081 3097 
Q 1800 3097 1504 3025 
Q 1209 2953 897 2809 
L 997 3341 
Q 1322 3463 1633 3523 
Q 1944 3584 2234 3584 
Q 2853 3584 3176 3315 
Q 3500 3047 3500 2534 
Q 3500 2431 3484 2292 
Q 3469 2153 3438 1997 
z
M 2816 1759 
L 2241 1759 
Q 1534 1759 1195 1570 
Q 856 1381 856 984 
Q 856 709 1029 553 
Q 1203 397 1509 397 
Q 1978 397 2328 733 
Q 2678 1069 2791 1631 
L 2816 1759 
z
" transform="scale(0.015625)"/>
     <path id="DejaVuSans-Oblique-63" d="M 3431 3366 
L 3316 2797 
Q 3109 2947 2876 3022 
Q 2644 3097 2394 3097 
Q 2119 3097 1870 3000 
Q 1622 2903 1453 2725 
Q 1184 2453 1037 2087 
Q 891 1722 891 1331 
Q 891 859 1127 628 
Q 1363 397 1844 397 
Q 2081 397 2348 469 
Q 2616 541 2906 684 
L 2797 116 
Q 2547 13 2283 -39 
Q 2019 -91 1741 -91 
Q 1044 -91 669 257 
Q 294 606 294 1253 
Q 294 1797 489 2255 
Q 684 2713 1069 3078 
Q 1331 3328 1684 3456 
Q 2038 3584 2456 3584 
Q 2700 3584 2940 3529 
Q 3181 3475 3431 3366 
z
" transform="scale(0.015625)"/>
     <path id="DejaVuSans-3d" d="M 678 2906 
L 4684 2906 
L 4684 2381 
L 678 2381 
L 678 2906 
z
M 678 1631 
L 4684 1631 
L 4684 1100 
L 678 1100 
L 678 1631 
z
" transform="scale(0.015625)"/>
     <path id="DejaVuSans-57" d="M 213 4666 
L 850 4666 
L 1831 722 
L 2809 4666 
L 3519 4666 
L 4500 722 
L 5478 4666 
L 6119 4666 
L 4947 0 
L 4153 0 
L 3169 4050 
L 2175 0 
L 1381 0 
L 213 4666 
z
" transform="scale(0.015625)"/>
    </defs>
    <use xlink:href="#DejaVuSans-Oblique-50" transform="translate(0 0.78125)"/>
    <use xlink:href="#DejaVuSans-Oblique-61" transform="translate(60.302734 -15.625)scale(0.7)"/>
    <use xlink:href="#DejaVuSans-Oblique-63" transform="translate(103.198242 -15.625)scale(0.7)"/>
    <use xlink:href="#DejaVuSans-3d" transform="translate(163.901367 0.78125)"/>
    <use xlink:href="#DejaVuSans-31" transform="translate(267.172852 0.78125)"/>
    <use xlink:href="#DejaVuSans-2e" transform="translate(330.795898 0.78125)"/>
    <use xlink:href="#DejaVuSans-38" transform="translate(359.958008 0.78125)"/>
    <use xlink:href="#DejaVuSans-35" transform="translate(423.581055 0.78125)"/>
    <use xlink:href="#DejaVuSans-57" transform="translate(487.204102 0.78125)"/>
   </g>
  </g>
  <g id="text_27">
   <!-- $P_{dc}=$8.85W -->
   <g transform="translate(283.18125 123.12)scale(0.1 -0.1)">
    <use xlink:href="#DejaVuSans-Oblique-50" transform="translate(0 0.78125)"/>
    <use xlink:href="#DejaVuSans-Oblique-64" transform="translate(60.302734 -15.625)scale(0.7)"/>
    <use xlink:href="#DejaVuSans-Oblique-63" transform="translate(104.736328 -15.625)scale(0.7)"/>
    <use xlink:href="#DejaVuSans-3d" transform="translate(165.439453 0.78125)"/>
    <use xlink:href="#DejaVuSans-38" transform="translate(268.710938 0.78125)"/>
    <use xlink:href="#DejaVuSans-2e" transform="translate(332.333984 0.78125)"/>
    <use xlink:href="#DejaVuSans-38" transform="translate(361.496094 0.78125)"/>
    <use xlink:href="#DejaVuSans-35" transform="translate(425.119141 0.78125)"/>
    <use xlink:href="#DejaVuSans-57" transform="translate(488.742188 0.78125)"/>
   </g>
  </g>
  <g id="text_28">
   <!-- $\eta$  =21% -->
   <g transform="translate(283.18125 148.32)scale(0.1 -0.1)">
    <defs>
     <path id="DejaVuSans-Oblique-3b7" d="M 3703 2113 
L 3034 -1331 
L 2459 -1331 
L 3125 2094 
Q 3222 2591 3075 2838 
Q 2931 3084 2544 3084 
Q 2078 3084 1750 2788 
Q 1425 2491 1325 1978 
L 941 0 
L 363 0 
L 1044 3500 
L 1622 3500 
L 1516 2956 
Q 1781 3272 2094 3428 
Q 2403 3584 2769 3584 
Q 3372 3584 3609 3213 
Q 3844 2838 3703 2113 
z
" transform="scale(0.015625)"/>
     <path id="DejaVuSans-25" d="M 4653 2053 
Q 4381 2053 4226 1822 
Q 4072 1591 4072 1178 
Q 4072 772 4226 539 
Q 4381 306 4653 306 
Q 4919 306 5073 539 
Q 5228 772 5228 1178 
Q 5228 1588 5073 1820 
Q 4919 2053 4653 2053 
z
M 4653 2450 
Q 5147 2450 5437 2106 
Q 5728 1763 5728 1178 
Q 5728 594 5436 251 
Q 5144 -91 4653 -91 
Q 4153 -91 3862 251 
Q 3572 594 3572 1178 
Q 3572 1766 3864 2108 
Q 4156 2450 4653 2450 
z
M 1428 4353 
Q 1159 4353 1004 4120 
Q 850 3888 850 3481 
Q 850 3069 1003 2837 
Q 1156 2606 1428 2606 
Q 1700 2606 1854 2837 
Q 2009 3069 2009 3481 
Q 2009 3884 1853 4118 
Q 1697 4353 1428 4353 
z
M 4250 4750 
L 4750 4750 
L 1831 -91 
L 1331 -91 
L 4250 4750 
z
M 1428 4750 
Q 1922 4750 2215 4408 
Q 2509 4066 2509 3481 
Q 2509 2891 2217 2550 
Q 1925 2209 1428 2209 
Q 931 2209 642 2551 
Q 353 2894 353 3481 
Q 353 4063 643 4406 
Q 934 4750 1428 4750 
z
" transform="scale(0.015625)"/>
    </defs>
    <use xlink:href="#DejaVuSans-Oblique-3b7" transform="translate(0 0.78125)"/>
    <use xlink:href="#DejaVuSans-20" transform="translate(63.378906 0.78125)"/>
    <use xlink:href="#DejaVuSans-20" transform="translate(95.166016 0.78125)"/>
    <use xlink:href="#DejaVuSans-3d" transform="translate(126.953125 0.78125)"/>
    <use xlink:href="#DejaVuSans-32" transform="translate(210.742188 0.78125)"/>
    <use xlink:href="#DejaVuSans-31" transform="translate(274.365234 0.78125)"/>
    <use xlink:href="#DejaVuSans-25" transform="translate(337.988281 0.78125)"/>
   </g>
  </g>
 </g>
 <defs>
  <clipPath id="p87341423cd">
   <rect x="43.78125" y="7.2" width="390.6" height="183.826087"/>
  </clipPath>
  <clipPath id="pa9dd09f467">
   <rect x="43.78125" y="203.893913" width="390.6" height="183.826087"/>
  </clipPath>
 </defs>
</svg>