<?xml version="1.0" encoding="utf-8" standalone="no"?>
<!DOCTYPE svg PUBLIC "-//W3C//DTD SVG 1.1//EN"
  "http://www.w3.org/Graphics/SVG/1.1/DTD/svg11.dtd">
<!-- Created with matplotlib (https://matplotlib.org/) -->
<svg height="249.797pt" version="1.1" viewBox="0 0 416.724 249.797" width="416.724pt" xmlns="http://www.w3.org/2000/svg" xmlns:xlink="http://www.w3.org/1999/xlink">
 <metadata>
  <rdf:RDF xmlns:cc="http://creativecommons.org/ns#" xmlns:dc="http://purl.org/dc/elements/1.1/" xmlns:rdf="http://www.w3.org/1999/02/22-rdf-syntax-ns#">
   <cc:Work>
    <dc:type rdf:resource="http://purl.org/dc/dcmitype/StillImage"/>
    <dc:date>2020-09-19T15:49:51.674312</dc:date>
    <dc:format>image/svg+xml</dc:format>
    <dc:creator>
     <cc:Agent>
      <dc:title>Matplotlib v3.3.2, https://matplotlib.org/</dc:title>
     </cc:Agent>
    </dc:creator>
   </cc:Work>
  </rdf:RDF>
 </metadata>
 <defs>
  <style type="text/css">*{stroke-linecap:butt;stroke-linejoin:round;}</style>
 </defs>
 <g id="figure_1">
  <g id="patch_1">
   <path d="M 0 249.797 
L 416.724 249.797 
L 416.724 0 
L 0 0 
z
" style="fill:none;"/>
  </g>
  <g id="axes_1">
   <g id="patch_2">
    <path clip-path="url(#pc9bcfdc161)" d="M 164.934 166.811 
L 157.905453 165.151482 
L 160.003474 162.839773 
L 152.449457 156.724617 
L 152.470543 156.701383 
L 160.02456 162.81654 
L 162.122581 160.504832 
z
" style="stroke:#000000;stroke-linejoin:miter;stroke-width:2;"/>
   </g>
   <g id="patch_3">
    <path clip-path="url(#pc9bcfdc161)" d="M 43.38 197.003 
C 46.602218 197.003 49.692895 195.793922 51.971347 193.64205 
C 54.249799 191.490179 55.53 188.571206 55.53 185.528 
C 55.53 182.484794 54.249799 179.565821 51.971347 177.41395 
C 49.692895 175.262078 46.602218 174.053 43.38 174.053 
C 40.157782 174.053 37.067105 175.262078 34.788653 177.41395 
C 32.510201 179.565821 31.23 182.484794 31.23 185.528 
C 31.23 188.571206 32.510201 191.490179 34.788653 193.64205 
C 37.067105 195.793922 40.157782 197.003 43.38 197.003 
z
" style="fill:none;stroke:#000000;stroke-linejoin:miter;stroke-width:2;"/>
   </g>
   <g id="line2d_1">
    <path clip-path="url(#pc9bcfdc161)" d="M 140.58 151.103 
L 152.46 151.103 
" style="fill:none;stroke:#000000;stroke-linecap:round;stroke-width:2;"/>
   </g>
   <g id="line2d_2">
    <path clip-path="url(#pc9bcfdc161)" d="M 152.46 139.883 
L 152.46 162.323 
" style="fill:none;stroke:#000000;stroke-linecap:round;stroke-width:2;"/>
   </g>
   <g id="line2d_3">
    <path clip-path="url(#pc9bcfdc161)" d="M 152.46 145.493 
L 164.934 135.395 
L 164.934 129.785 
" style="fill:none;stroke:#000000;stroke-linecap:round;stroke-width:2;"/>
   </g>
   <g id="line2d_4">
    <path clip-path="url(#pc9bcfdc161)" d="M 152.46 156.713 
L 164.934 166.811 
L 164.934 172.421 
" style="fill:none;stroke:#000000;stroke-linecap:round;stroke-width:2;"/>
   </g>
   <g id="line2d_5">
    <path clip-path="url(#pc9bcfdc161)" d="M 140.58 151.103 
L 108.18 151.103 
L 105.48 158.753 
L 100.08 143.453 
L 94.68 158.753 
L 89.28 143.453 
L 83.88 158.753 
L 78.48 143.453 
L 75.78 151.103 
L 43.38 151.103 
" style="fill:none;stroke:#000000;stroke-linecap:round;stroke-width:2;"/>
   </g>
   <g id="line2d_6">
    <path clip-path="url(#pc9bcfdc161)" d="M 43.38 151.103 
L 43.38 174.053 
L 43.38 174.053 
M 43.38 197.003 
L 43.38 197.003 
L 43.38 219.953 
" style="fill:none;stroke:#000000;stroke-linecap:round;stroke-width:2;"/>
   </g>
   <g id="line2d_7">
    <path clip-path="url(#pc9bcfdc161)" d="M 40.95 179.7905 
L 45.81 179.7905 
" style="fill:none;stroke:#000000;stroke-linecap:round;stroke-width:2;"/>
   </g>
   <g id="line2d_8">
    <path clip-path="url(#pc9bcfdc161)" d="M 43.38 188.9705 
L 43.38 193.5605 
" style="fill:none;stroke:#000000;stroke-linecap:round;stroke-width:2;"/>
   </g>
   <g id="line2d_9">
    <path clip-path="url(#pc9bcfdc161)" d="M 40.95 191.2655 
L 45.81 191.2655 
" style="fill:none;stroke:#000000;stroke-linecap:round;stroke-width:2;"/>
   </g>
   <g id="line2d_10">
    <path clip-path="url(#pc9bcfdc161)" d="M 43.38 219.953 
L 104.157 219.953 
L 164.934 219.953 
" style="fill:none;stroke:#000000;stroke-linecap:round;stroke-width:2;"/>
   </g>
   <g id="line2d_11">
    <path clip-path="url(#pc9bcfdc161)" d="M 164.934 219.953 
L 164.934 232.193 
L 156.834 232.193 
L 173.034 232.193 
M 159.264 235.865 
L 170.604 235.865 
M 163.314 239.537 
L 166.554 239.537 
" style="fill:none;stroke:#000000;stroke-linecap:round;stroke-width:2;"/>
   </g>
   <g id="line2d_12">
    <path clip-path="url(#pc9bcfdc161)" d="M 164.934 219.953 
L 164.934 196.187 
L 164.934 172.421 
" style="fill:none;stroke:#000000;stroke-linecap:round;stroke-width:2;"/>
   </g>
   <g id="line2d_13">
    <path clip-path="url(#pc9bcfdc161)" d="M 164.934 129.785 
L 164.934 99.185 
L 162.266232 99.071041 
L 159.574404 98.724504 
L 157.084275 98.153099 
L 155.004688 97.383393 
L 153.510056 96.458585 
L 153.023507 95.955198 
L 152.725731 95.434883 
L 152.623004 94.905924 
L 152.717492 94.376788 
L 153.007204 93.855943 
L 153.486032 93.351686 
L 154.143883 92.87196 
L 155.937712 92.015145 
L 158.238243 91.336003 
L 160.852536 90.870138 
L 163.561332 90.635266 
L 166.137451 90.62973 
L 168.364835 90.83264 
L 170.056679 91.205624 
L 171.07109 91.696044 
L 171.295221 91.966011 
L 171.32299 92.241415 
L 171.153813 92.513767 
L 170.791254 92.774643 
L 169.520477 93.229652 
L 167.617237 93.546925 
L 165.241156 93.678499 
L 162.591512 93.591984 
L 159.890528 93.273281 
L 157.36473 92.727764 
L 155.225953 91.97983 
L 153.653573 91.070852 
L 153.123182 90.572713 
L 152.779463 90.055709 
L 152.629661 89.528054 
L 152.676934 88.998186 
L 152.920285 88.47459 
L 153.354584 87.965619 
L 153.970678 87.479319 
L 155.692747 86.604358 
L 157.942064 85.901733 
L 160.529981 85.409018 
L 163.239455 85.146181 
L 165.843246 85.11391 
L 168.122978 85.293558 
L 169.887453 85.648703 
L 170.988688 86.128204 
L 171.259308 86.395618 
L 171.334323 86.670491 
L 171.212153 86.944347 
L 170.895372 87.208729 
L 169.708647 87.676421 
L 167.873678 88.012988 
L 165.54436 88.168848 
L 162.916051 88.109574 
L 160.209182 87.818782 
L 157.650775 87.299506 
L 155.455398 86.573941 
L 153.807175 85.681585 
L 153.233586 85.189144 
L 152.844341 84.675923 
L 152.647645 84.150056 
L 152.647645 83.619944 
L 152.844341 83.094077 
L 153.233586 82.580856 
L 153.807175 82.088415 
L 154.55302 81.624451 
L 156.495289 80.809586 
L 158.897498 80.183248 
L 161.558178 79.776612 
L 164.25418 79.602426 
L 166.759396 79.653946 
L 168.863717 79.905494 
L 170.390657 80.314619 
L 171.212153 80.825653 
L 171.334323 81.099509 
L 171.259308 81.374382 
L 170.988688 81.641796 
L 169.887453 82.121297 
L 168.122978 82.476442 
L 165.843246 82.65609 
L 163.239455 82.623819 
L 160.529981 82.360982 
L 157.942064 81.868267 
L 155.692747 81.165642 
L 153.970678 80.290681 
L 153.354584 79.804381 
L 152.920285 79.29541 
L 152.676934 78.771814 
L 152.629661 78.241946 
L 152.779463 77.714291 
L 153.123182 77.197287 
L 153.653573 76.699148 
L 154.359456 76.227691 
L 156.234799 75.393123 
L 158.591928 74.742221 
L 161.233156 74.30822 
L 163.936966 74.106166 
L 166.476593 74.131647 
L 168.639044 74.361174 
L 170.242956 74.75414 
L 171.153813 75.256233 
L 171.32299 75.528585 
L 171.295221 75.803989 
L 171.07109 76.073956 
L 170.655322 76.330113 
L 169.287782 76.769125 
L 167.307295 77.062851 
L 164.879961 77.165302 
L 162.209358 77.046529 
L 159.519465 76.695141 
L 157.035878 76.119251 
L 154.966893 75.345805 
L 153.486032 74.418314 
L 153.007204 73.914057 
L 152.717492 73.393212 
L 152.623004 72.864076 
L 152.725731 72.335117 
L 153.023507 71.814802 
L 153.510056 71.311415 
L 154.175123 70.832882 
L 155.981267 69.979313 
L 158.290462 69.304327 
L 160.909038 68.843179 
L 163.617379 68.613191 
L 164.934 68.585 
L 164.934 37.985 
L 164.934 37.985 
" style="fill:none;stroke:#000000;stroke-linecap:round;stroke-width:2;"/>
   </g>
   <g id="line2d_14">
    <path clip-path="url(#pc9bcfdc161)" d="M 164.934 37.985 
L 164.934 25.745 
" style="fill:none;stroke:#000000;stroke-linecap:round;stroke-width:2;"/>
   </g>
   <g id="line2d_15">
    <path clip-path="url(#pc9bcfdc161)" d="M 164.934 25.745 
L 158.859 25.745 
" style="fill:none;stroke:#000000;stroke-linecap:round;stroke-width:2;"/>
   </g>
   <g id="line2d_16">
    <path clip-path="url(#pc9bcfdc161)" d="M 164.934 25.745 
L 171.009 25.745 
" style="fill:none;stroke:#000000;stroke-linecap:round;stroke-width:2;"/>
   </g>
   <g id="line2d_17">
    <path clip-path="url(#pc9bcfdc161)" d="M 164.934 129.785 
L 210.618 129.785 
M 210.618 122.135 
L 210.618 137.435 
M 216.45 122.135 
L 216.45 137.435 
M 216.45 129.785 
L 262.134 129.785 
" style="fill:none;stroke:#000000;stroke-linecap:round;stroke-width:2;"/>
   </g>
   <g id="line2d_18">
    <path clip-path="url(#pc9bcfdc161)" d="M 262.134 129.785 
L 262.134 160.385 
L 264.801768 160.498959 
L 267.493596 160.845496 
L 269.983725 161.416901 
L 272.063312 162.186607 
L 273.557944 163.111415 
L 274.044493 163.614802 
L 274.342269 164.135117 
L 274.444996 164.664076 
L 274.350508 165.193212 
L 274.060796 165.714057 
L 273.581968 166.218314 
L 272.924117 166.69804 
L 271.130288 167.554855 
L 268.829757 168.233997 
L 266.215464 168.699862 
L 263.506668 168.934734 
L 260.930549 168.94027 
L 258.703165 168.73736 
L 257.011321 168.364376 
L 255.99691 167.873956 
L 255.772779 167.603989 
L 255.74501 167.328585 
L 255.914187 167.056233 
L 256.276746 166.795357 
L 257.547523 166.340348 
L 259.450763 166.023075 
L 261.826844 165.891501 
L 264.476488 165.978016 
L 267.177472 166.296719 
L 269.70327 166.842236 
L 271.842047 167.59017 
L 273.414427 168.499148 
L 273.944818 168.997287 
L 274.288537 169.514291 
L 274.438339 170.041946 
L 274.391066 170.571814 
L 274.147715 171.09541 
L 273.713416 171.604381 
L 273.097322 172.090681 
L 271.375253 172.965642 
L 269.125936 173.668267 
L 266.538019 174.160982 
L 263.828545 174.423819 
L 261.224754 174.45609 
L 258.945022 174.276442 
L 257.180547 173.921297 
L 256.079312 173.441796 
L 255.808692 173.174382 
L 255.733677 172.899509 
L 255.855847 172.625653 
L 256.172628 172.361271 
L 257.359353 171.893579 
L 259.194322 171.557012 
L 261.52364 171.401152 
L 264.151949 171.460426 
L 266.858818 171.751218 
L 269.417225 172.270494 
L 271.612602 172.996059 
L 273.260825 173.888415 
L 273.834414 174.380856 
L 274.223659 174.894077 
L 274.420355 175.419944 
L 274.420355 175.950056 
L 274.223659 176.475923 
L 273.834414 176.989144 
L 273.260825 177.481585 
L 272.51498 177.945549 
L 270.572711 178.760414 
L 268.170502 179.386752 
L 265.509822 179.793388 
L 262.81382 179.967574 
L 260.308604 179.916054 
L 258.204283 179.664506 
L 256.677343 179.255381 
L 255.855847 178.744347 
L 255.733677 178.470491 
L 255.808692 178.195618 
L 256.079312 177.928204 
L 257.180547 177.448703 
L 258.945022 177.093558 
L 261.224754 176.91391 
L 263.828545 176.946181 
L 266.538019 177.209018 
L 269.125936 177.701733 
L 271.375253 178.404358 
L 273.097322 179.279319 
L 273.713416 179.765619 
L 274.147715 180.27459 
L 274.391066 180.798186 
L 274.438339 181.328054 
L 274.288537 181.855709 
L 273.944818 182.372713 
L 273.414427 182.870852 
L 272.708544 183.342309 
L 270.833201 184.176877 
L 268.476072 184.827779 
L 265.834844 185.26178 
L 263.131034 185.463834 
L 260.591407 185.438353 
L 258.428956 185.208826 
L 256.825044 184.81586 
L 255.914187 184.313767 
L 255.74501 184.041415 
L 255.772779 183.766011 
L 255.99691 183.496044 
L 256.412678 183.239887 
L 257.780218 182.800875 
L 259.760705 182.507149 
L 262.188039 182.404698 
L 264.858642 182.523471 
L 267.548535 182.874859 
L 270.032122 183.450749 
L 272.101107 184.224195 
L 273.581968 185.151686 
L 274.060796 185.655943 
L 274.350508 186.176788 
L 274.444996 186.705924 
L 274.342269 187.234883 
L 274.044493 187.755198 
L 273.557944 188.258585 
L 272.892877 188.737118 
L 271.086733 189.590687 
L 268.777538 190.265673 
L 266.158962 190.726821 
L 263.450621 190.956809 
L 262.134 190.985 
L 262.134 221.585 
L 262.134 221.585 
" style="fill:none;stroke:#000000;stroke-linecap:round;stroke-width:2;"/>
   </g>
   <g id="line2d_19">
    <path clip-path="url(#pc9bcfdc161)" d="M 262.134 129.785 
L 286.434 129.785 
L 310.734 129.785 
" style="fill:none;stroke:#000000;stroke-linecap:round;stroke-width:2;"/>
   </g>
   <g id="line2d_20">
    <path clip-path="url(#pc9bcfdc161)" d="M 310.734 129.785 
L 310.734 172.931 
M 318.834 172.931 
L 302.634 172.931 
M 318.834 178.439 
L 302.634 178.439 
M 310.734 178.439 
L 310.734 221.585 
" style="fill:none;stroke:#000000;stroke-linecap:round;stroke-width:2;"/>
   </g>
   <g id="line2d_21">
    <path clip-path="url(#pc9bcfdc161)" d="M 310.734 129.785 
L 335.034 129.785 
L 359.334 129.785 
" style="fill:none;stroke:#000000;stroke-linecap:round;stroke-width:2;"/>
   </g>
   <g id="line2d_22">
    <path clip-path="url(#pc9bcfdc161)" d="M 359.334 129.785 
L 359.334 160.385 
L 367.434 162.935 
L 351.234 168.035 
L 367.434 173.135 
L 351.234 178.235 
L 367.434 183.335 
L 351.234 188.435 
L 359.334 190.985 
L 359.334 221.585 
" style="fill:none;stroke:#000000;stroke-linecap:round;stroke-width:2;"/>
   </g>
   <g id="line2d_23">
    <path clip-path="url(#pc9bcfdc161)" d="M 359.334 129.785 
L 367.434 129.785 
L 375.534 129.785 
" style="fill:none;stroke:#000000;stroke-linecap:round;stroke-width:2;"/>
   </g>
   <g id="line2d_24">
    <path clip-path="url(#pc9bcfdc161)" d="M 359.334 221.585 
L 335.034 221.585 
L 310.734 221.585 
" style="fill:none;stroke:#000000;stroke-linecap:round;stroke-width:2;"/>
   </g>
   <g id="line2d_25">
    <path clip-path="url(#pc9bcfdc161)" d="M 310.734 221.585 
L 286.434 221.585 
L 262.134 221.585 
" style="fill:none;stroke:#000000;stroke-linecap:round;stroke-width:2;"/>
   </g>
   <g id="line2d_26">
    <path clip-path="url(#pc9bcfdc161)" d="M 262.134 221.585 
L 213.534 221.585 
L 164.934 221.585 
" style="fill:none;stroke:#000000;stroke-linecap:round;stroke-width:2;"/>
   </g>
   <g id="text_1">
    <!-- $R_{in}$ -->
    <g transform="translate(81.02 137.0655)scale(0.16 -0.16)">
     <defs>
      <path d="M 25.203125 64.796875 
L 20.21875 38.921875 
L 32.90625 38.921875 
Q 40.375 38.921875 44.984375 43.046875 
Q 49.609375 47.171875 49.609375 53.8125 
Q 49.609375 59.125 46.5 61.953125 
Q 43.40625 64.796875 37.59375 64.796875 
z
M 43.3125 35.015625 
Q 46.4375 34.28125 48.515625 31.390625 
Q 50.59375 28.515625 53.328125 19.921875 
L 59.515625 0 
L 49.125 0 
L 43.40625 18.703125 
Q 41.21875 25.921875 38.328125 28.359375 
Q 35.453125 30.8125 29.5 30.8125 
L 18.609375 30.8125 
L 12.59375 0 
L 2.6875 0 
L 16.890625 72.90625 
L 39.109375 72.90625 
Q 49.21875 72.90625 54.609375 68.328125 
Q 60.015625 63.765625 60.015625 55.171875 
Q 60.015625 47.5625 55.421875 41.984375 
Q 50.828125 36.421875 43.3125 35.015625 
z
" id="DejaVuSans-Oblique-82"/>
      <path d="M 18.3125 75.984375 
L 27.296875 75.984375 
L 25.09375 64.59375 
L 16.109375 64.59375 
z
M 14.203125 54.6875 
L 23.1875 54.6875 
L 12.5 0 
L 3.515625 0 
z
" id="DejaVuSans-Oblique-105"/>
      <path d="M 55.71875 33.015625 
L 49.3125 0 
L 40.28125 0 
L 46.6875 32.671875 
Q 47.125 34.96875 47.359375 36.71875 
Q 47.609375 38.484375 47.609375 39.5 
Q 47.609375 43.609375 45.015625 45.890625 
Q 42.4375 48.1875 37.796875 48.1875 
Q 30.5625 48.1875 25.34375 43.375 
Q 20.125 38.578125 18.5 30.328125 
L 12.5 0 
L 3.515625 0 
L 14.109375 54.6875 
L 23.09375 54.6875 
L 21.296875 46.09375 
Q 25.046875 50.828125 30.3125 53.40625 
Q 35.59375 56 41.40625 56 
Q 48.640625 56 52.609375 52.09375 
Q 56.59375 48.1875 56.59375 41.109375 
Q 56.59375 39.359375 56.375 37.359375 
Q 56.15625 35.359375 55.71875 33.015625 
z
" id="DejaVuSans-Oblique-110"/>
     </defs>
     <use transform="translate(0 0.09375)" xlink:href="#DejaVuSans-Oblique-82"/>
     <use transform="translate(69.482422 -16.3125)scale(0.7)" xlink:href="#DejaVuSans-Oblique-105"/>
     <use transform="translate(88.930664 -16.3125)scale(0.7)" xlink:href="#DejaVuSans-Oblique-110"/>
    </g>
   </g>
   <g id="text_2">
    <!-- $V_{in}$ -->
    <g transform="translate(7.2 189.943)scale(0.16 -0.16)">
     <defs>
      <path d="M 20.609375 0 
L 7.8125 72.90625 
L 17.484375 72.90625 
L 28.078125 10.203125 
L 63.484375 72.90625 
L 74.21875 72.90625 
L 32.078125 0 
z
" id="DejaVuSans-Oblique-86"/>
     </defs>
     <use transform="translate(0 0.09375)" xlink:href="#DejaVuSans-Oblique-86"/>
     <use transform="translate(68.408203 -16.3125)scale(0.7)" xlink:href="#DejaVuSans-Oblique-105"/>
     <use transform="translate(87.856445 -16.3125)scale(0.7)" xlink:href="#DejaVuSans-Oblique-110"/>
    </g>
   </g>
   <g id="text_3">
    <!-- $L_2$ -->
    <g transform="translate(132.903004 88.3)scale(0.16 -0.16)">
     <defs>
      <path d="M 16.796875 72.90625 
L 26.703125 72.90625 
L 14.203125 8.203125 
L 49.703125 8.203125 
L 48.09375 0 
L 2.6875 0 
z
" id="DejaVuSans-Oblique-76"/>
      <path d="M 19.1875 8.296875 
L 53.609375 8.296875 
L 53.609375 0 
L 7.328125 0 
L 7.328125 8.296875 
Q 12.9375 14.109375 22.625 23.890625 
Q 32.328125 33.6875 34.8125 36.53125 
Q 39.546875 41.84375 41.421875 45.53125 
Q 43.3125 49.21875 43.3125 52.78125 
Q 43.3125 58.59375 39.234375 62.25 
Q 35.15625 65.921875 28.609375 65.921875 
Q 23.96875 65.921875 18.8125 64.3125 
Q 13.671875 62.703125 7.8125 59.421875 
L 7.8125 69.390625 
Q 13.765625 71.78125 18.9375 73 
Q 24.125 74.21875 28.421875 74.21875 
Q 39.75 74.21875 46.484375 68.546875 
Q 53.21875 62.890625 53.21875 53.421875 
Q 53.21875 48.921875 51.53125 44.890625 
Q 49.859375 40.875 45.40625 35.40625 
Q 44.1875 33.984375 37.640625 27.21875 
Q 31.109375 20.453125 19.1875 8.296875 
z
" id="DejaVuSans-50"/>
     </defs>
     <use transform="translate(0 0.09375)" xlink:href="#DejaVuSans-Oblique-76"/>
     <use transform="translate(55.712891 -16.3125)scale(0.7)" xlink:href="#DejaVuSans-50"/>
    </g>
   </g>
   <g id="text_4">
    <!-- $V_{dd}$ -->
    <g transform="translate(152.054 19.3575)scale(0.16 -0.16)">
     <defs>
      <path d="M 41.796875 8.203125 
Q 38.1875 3.46875 33.25 1.015625 
Q 28.328125 -1.421875 22.3125 -1.421875 
Q 14.109375 -1.421875 9.34375 4.171875 
Q 4.59375 9.765625 4.59375 19.484375 
Q 4.59375 27.59375 7.46875 34.9375 
Q 10.359375 42.28125 15.828125 48.09375 
Q 19.4375 51.953125 23.96875 53.96875 
Q 28.515625 56 33.5 56 
Q 38.765625 56 42.796875 53.453125 
Q 46.828125 50.921875 49.03125 46.1875 
L 54.890625 75.984375 
L 63.921875 75.984375 
L 49.125 0 
L 40.09375 0 
z
M 13.921875 21.09375 
Q 13.921875 14.015625 17.109375 10.0625 
Q 20.3125 6.109375 25.984375 6.109375 
Q 30.171875 6.109375 33.765625 8.125 
Q 37.359375 10.15625 40.09375 14.109375 
Q 42.96875 18.21875 44.625 23.578125 
Q 46.296875 28.953125 46.296875 34.1875 
Q 46.296875 40.96875 43.09375 44.765625 
Q 39.890625 48.578125 34.28125 48.578125 
Q 30.03125 48.578125 26.359375 46.578125 
Q 22.703125 44.578125 20.125 40.828125 
Q 17.28125 36.765625 15.59375 31.390625 
Q 13.921875 26.03125 13.921875 21.09375 
z
" id="DejaVuSans-Oblique-100"/>
     </defs>
     <use transform="translate(0 0.09375)" xlink:href="#DejaVuSans-Oblique-86"/>
     <use transform="translate(68.408203 -16.3125)scale(0.7)" xlink:href="#DejaVuSans-Oblique-100"/>
     <use transform="translate(112.841797 -16.3125)scale(0.7)" xlink:href="#DejaVuSans-Oblique-100"/>
    </g>
   </g>
   <g id="text_5">
    <!-- $C_2$ -->
    <g transform="translate(204.094 115.7475)scale(0.16 -0.16)">
     <defs>
      <path d="M 69.484375 67.28125 
L 67.484375 56.890625 
Q 62.796875 61.625 57.546875 63.921875 
Q 52.296875 66.21875 46.1875 66.21875 
Q 37.84375 66.21875 31.515625 62.203125 
Q 25.203125 58.203125 20.609375 50 
Q 17.671875 44.734375 16.125 38.84375 
Q 14.59375 32.953125 14.59375 27 
Q 14.59375 17.046875 19.75 11.8125 
Q 24.90625 6.59375 34.71875 6.59375 
Q 41.5 6.59375 47.75 8.765625 
Q 54 10.9375 59.90625 15.28125 
L 57.625 3.609375 
Q 51.8125 1.125 45.875 -0.140625 
Q 39.9375 -1.421875 33.984375 -1.421875 
Q 19.96875 -1.421875 12.078125 6.1875 
Q 4.203125 13.8125 4.203125 27.390625 
Q 4.203125 36.078125 7.203125 44.46875 
Q 10.203125 52.875 15.828125 59.8125 
Q 21.78125 67.1875 29.421875 70.703125 
Q 37.0625 74.21875 47.21875 74.21875 
Q 53.46875 74.21875 59.0625 72.484375 
Q 64.65625 70.75 69.484375 67.28125 
z
" id="DejaVuSans-Oblique-67"/>
     </defs>
     <use transform="translate(0 0.78125)" xlink:href="#DejaVuSans-Oblique-67"/>
     <use transform="translate(69.824219 -15.625)scale(0.7)" xlink:href="#DejaVuSans-50"/>
    </g>
   </g>
   <g id="text_6">
    <!-- $L_1$ -->
    <g transform="translate(236.013677 180.1)scale(0.16 -0.16)">
     <defs>
      <path d="M 12.40625 8.296875 
L 28.515625 8.296875 
L 28.515625 63.921875 
L 10.984375 60.40625 
L 10.984375 69.390625 
L 28.421875 72.90625 
L 38.28125 72.90625 
L 38.28125 8.296875 
L 54.390625 8.296875 
L 54.390625 0 
L 12.40625 0 
z
" id="DejaVuSans-49"/>
     </defs>
     <use transform="translate(0 0.09375)" xlink:href="#DejaVuSans-Oblique-76"/>
     <use transform="translate(55.712891 -16.3125)scale(0.7)" xlink:href="#DejaVuSans-49"/>
    </g>
   </g>
   <g id="text_7">
    <!-- $C_1$ -->
    <g transform="translate(280.514 180.1)scale(0.16 -0.16)">
     <use transform="translate(0 0.78125)" xlink:href="#DejaVuSans-Oblique-67"/>
     <use transform="translate(69.824219 -15.625)scale(0.7)" xlink:href="#DejaVuSans-49"/>
    </g>
   </g>
   <g id="text_8">
    <!-- $R_L$ -->
    <g transform="translate(330.074 180.1)scale(0.16 -0.16)">
     <use transform="translate(0 0.09375)" xlink:href="#DejaVuSans-Oblique-82"/>
     <use transform="translate(69.482422 -16.3125)scale(0.7)" xlink:href="#DejaVuSans-Oblique-76"/>
    </g>
   </g>
   <g id="patch_4">
    <path clip-path="url(#pc9bcfdc161)" d="M 164.934 132.08 
C 165.578444 132.08 166.196579 131.838184 166.652269 131.40781 
C 167.10796 130.977436 167.364 130.393641 167.364 129.785 
C 167.364 129.176359 167.10796 128.592564 166.652269 128.16219 
C 166.196579 127.731816 165.578444 127.49 164.934 127.49 
C 164.289556 127.49 163.671421 127.731816 163.215731 128.16219 
C 162.76004 128.592564 162.504 129.176359 162.504 129.785 
C 162.504 130.393641 162.76004 130.977436 163.215731 131.40781 
C 163.671421 131.838184 164.289556 132.08 164.934 132.08 
z
" style="stroke:#000000;stroke-linejoin:miter;stroke-width:2;"/>
   </g>
   <g id="patch_5">
    <path clip-path="url(#pc9bcfdc161)" d="M 375.534 132.08 
C 376.178444 132.08 376.796579 131.838184 377.252269 131.40781 
C 377.70796 130.977436 377.964 130.393641 377.964 129.785 
C 377.964 129.176359 377.70796 128.592564 377.252269 128.16219 
C 376.796579 127.731816 376.178444 127.49 375.534 127.49 
C 374.889556 127.49 374.271421 127.731816 373.815731 128.16219 
C 373.36004 128.592564 373.104 129.176359 373.104 129.785 
C 373.104 130.393641 373.36004 130.977436 373.815731 131.40781 
C 374.271421 131.838184 374.889556 132.08 375.534 132.08 
z
" style="fill:#ffffff;stroke:#000000;stroke-linejoin:miter;stroke-width:2;"/>
   </g>
   <g id="patch_6">
    <path clip-path="url(#pc9bcfdc161)" d="M 310.734 223.88 
C 311.378444 223.88 311.996579 223.638184 312.452269 223.20781 
C 312.90796 222.777436 313.164 222.193641 313.164 221.585 
C 313.164 220.976359 312.90796 220.392564 312.452269 219.96219 
C 311.996579 219.531816 311.378444 219.29 310.734 219.29 
C 310.089556 219.29 309.471421 219.531816 309.015731 219.96219 
C 308.56004 220.392564 308.304 220.976359 308.304 221.585 
C 308.304 222.193641 308.56004 222.777436 309.015731 223.20781 
C 309.471421 223.638184 310.089556 223.88 310.734 223.88 
z
" style="stroke:#000000;stroke-linejoin:miter;stroke-width:2;"/>
   </g>
   <g id="patch_7">
    <path clip-path="url(#pc9bcfdc161)" d="M 262.134 223.88 
C 262.778444 223.88 263.396579 223.638184 263.852269 223.20781 
C 264.30796 222.777436 264.564 222.193641 264.564 221.585 
C 264.564 220.976359 264.30796 220.392564 263.852269 219.96219 
C 263.396579 219.531816 262.778444 219.29 262.134 219.29 
C 261.489556 219.29 260.871421 219.531816 260.415731 219.96219 
C 259.96004 220.392564 259.704 220.976359 259.704 221.585 
C 259.704 222.193641 259.96004 222.777436 260.415731 223.20781 
C 260.871421 223.638184 261.489556 223.88 262.134 223.88 
z
" style="stroke:#000000;stroke-linejoin:miter;stroke-width:2;"/>
   </g>
   <g id="patch_8">
    <path clip-path="url(#pc9bcfdc161)" d="M 164.934 223.88 
C 165.578444 223.88 166.196579 223.638184 166.652269 223.20781 
C 167.10796 222.777436 167.364 222.193641 167.364 221.585 
C 167.364 220.976359 167.10796 220.392564 166.652269 219.96219 
C 166.196579 219.531816 165.578444 219.29 164.934 219.29 
C 164.289556 219.29 163.671421 219.531816 163.215731 219.96219 
C 162.76004 220.392564 162.504 220.976359 162.504 221.585 
C 162.504 222.193641 162.76004 222.777436 163.215731 223.20781 
C 163.671421 223.638184 164.289556 223.88 164.934 223.88 
z
" style="stroke:#000000;stroke-linejoin:miter;stroke-width:2;"/>
   </g>
   <g id="text_9">
    <!-- $v_{out}$ -->
    <g transform="translate(381.204 134.2)scale(0.16 -0.16)">
     <defs>
      <path d="M 7.171875 54.6875 
L 16.703125 54.6875 
L 24.703125 8.203125 
L 50.875 54.6875 
L 60.40625 54.6875 
L 29.296875 0 
L 17.1875 0 
z
" id="DejaVuSans-Oblique-118"/>
      <path d="M 25.390625 -1.421875 
Q 15.765625 -1.421875 10.171875 4.515625 
Q 4.59375 10.453125 4.59375 20.703125 
Q 4.59375 26.65625 6.515625 32.828125 
Q 8.453125 39.015625 11.53125 43.21875 
Q 16.359375 49.75 22.3125 52.875 
Q 28.265625 56 35.796875 56 
Q 45.125 56 50.859375 50.1875 
Q 56.59375 44.390625 56.59375 35.015625 
Q 56.59375 28.515625 54.6875 22.0625 
Q 52.78125 15.625 49.703125 11.375 
Q 44.921875 4.828125 38.96875 1.703125 
Q 33.015625 -1.421875 25.390625 -1.421875 
z
M 13.921875 21 
Q 13.921875 13.578125 17.015625 9.890625 
Q 20.125 6.203125 26.421875 6.203125 
Q 35.453125 6.203125 41.375 14.078125 
Q 47.3125 21.96875 47.3125 34.078125 
Q 47.3125 41.15625 44.140625 44.765625 
Q 40.96875 48.390625 34.8125 48.390625 
Q 29.734375 48.390625 25.78125 46.015625 
Q 21.828125 43.65625 18.703125 38.8125 
Q 16.40625 35.203125 15.15625 30.5625 
Q 13.921875 25.921875 13.921875 21 
z
" id="DejaVuSans-Oblique-111"/>
      <path d="M 6.6875 21.6875 
L 13.09375 54.6875 
L 22.125 54.6875 
L 15.71875 22.015625 
Q 15.234375 19.625 15.015625 17.921875 
Q 14.796875 16.21875 14.796875 15.09375 
Q 14.796875 10.9375 17.328125 8.65625 
Q 19.875 6.390625 24.515625 6.390625 
Q 31.734375 6.390625 37 11.265625 
Q 42.28125 16.15625 43.890625 24.421875 
L 49.90625 54.6875 
L 58.890625 54.6875 
L 48.296875 0 
L 39.3125 0 
L 41.109375 8.59375 
Q 37.3125 3.8125 32.0625 1.1875 
Q 26.8125 -1.421875 20.90625 -1.421875 
Q 13.71875 -1.421875 9.71875 2.515625 
Q 5.71875 6.453125 5.71875 13.484375 
Q 5.71875 14.9375 5.953125 17.140625 
Q 6.203125 19.34375 6.6875 21.6875 
z
" id="DejaVuSans-Oblique-117"/>
      <path d="M 42.28125 54.6875 
L 40.921875 47.703125 
L 23 47.703125 
L 17.1875 18.015625 
Q 16.890625 16.359375 16.75 15.234375 
Q 16.609375 14.109375 16.609375 13.484375 
Q 16.609375 10.359375 18.484375 8.9375 
Q 20.359375 7.515625 24.515625 7.515625 
L 33.59375 7.515625 
L 32.078125 0 
L 23.484375 0 
Q 15.484375 0 11.546875 3.125 
Q 7.625 6.25 7.625 12.59375 
Q 7.625 13.71875 7.765625 15.0625 
Q 7.90625 16.40625 8.203125 18.015625 
L 14.015625 47.703125 
L 6.390625 47.703125 
L 7.8125 54.6875 
L 15.28125 54.6875 
L 18.3125 70.21875 
L 27.296875 70.21875 
L 24.3125 54.6875 
z
" id="DejaVuSans-Oblique-116"/>
     </defs>
     <use transform="translate(0 0.3125)" xlink:href="#DejaVuSans-Oblique-118"/>
     <use transform="translate(59.179688 -16.09375)scale(0.7)" xlink:href="#DejaVuSans-Oblique-111"/>
     <use transform="translate(102.006836 -16.09375)scale(0.7)" xlink:href="#DejaVuSans-Oblique-117"/>
     <use transform="translate(146.37207 -16.09375)scale(0.7)" xlink:href="#DejaVuSans-Oblique-116"/>
    </g>
   </g>
  </g>
 </g>
 <defs>
  <clipPath id="pc9bcfdc161">
   <rect height="219.912" width="357.264" x="23.94" y="22.685"/>
  </clipPath>
 </defs>
</svg>