<?xml version="1.0" encoding="utf-8" standalone="no"?>
<!DOCTYPE svg PUBLIC "-//W3C//DTD SVG 1.1//EN"
  "http://www.w3.org/Graphics/SVG/1.1/DTD/svg11.dtd">
<svg xmlns:xlink="http://www.w3.org/1999/xlink" width="410.7159pt" height="178.144pt" viewBox="0 0 410.7159 178.144" xmlns="http://www.w3.org/2000/svg" version="1.1">
 <metadata>
  <rdf:RDF xmlns:dc="http://purl.org/dc/elements/1.1/" xmlns:cc="http://creativecommons.org/ns#" xmlns:rdf="http://www.w3.org/1999/02/22-rdf-syntax-ns#">
   <cc:Work>
    <dc:type rdf:resource="http://purl.org/dc/dcmitype/StillImage"/>
    <dc:date>2022-12-06T00:21:09.126809</dc:date>
    <dc:format>image/svg+xml</dc:format>
    <dc:creator>
     <cc:Agent>
      <dc:title>Matplotlib v3.5.3, https://matplotlib.org/</dc:title>
     </cc:Agent>
    </dc:creator>
   </cc:Work>
  </rdf:RDF>
 </metadata>
 <defs>
  <style type="text/css">*{stroke-linejoin: round; stroke-linecap: butt}</style>
 </defs>
 <g id="figure_1">
  <g id="patch_1">
   <path d="M 0 178.144 
L 410.7159 178.144 
L 410.7159 0 
L 0 0 
z
" style="fill: #ffffff"/>
  </g>
  <g id="axes_1">
   <g id="patch_2">
    <path d="M 54.8034 105.46 
C 58.861007 105.46 62.752972 103.847895 65.622134 100.978734 
C 68.491295 98.109572 70.1034 94.217607 70.1034 90.16 
C 70.1034 86.102393 68.491295 82.210428 65.622134 79.341266 
C 62.752972 76.472105 58.861007 74.86 54.8034 74.86 
C 50.745793 74.86 46.853828 76.472105 43.984666 79.341266 
C 41.115505 82.210428 39.5034 86.102393 39.5034 90.16 
C 39.5034 94.217607 41.115505 98.109572 43.984666 100.978734 
C 46.853828 103.847895 50.745793 105.46 54.8034 105.46 
L 54.8034 105.46 
z
" clip-path="url(#p2b1cf95861)" style="fill: none; stroke: #000000; stroke-width: 2; stroke-linejoin: miter"/>
   </g>
   <g id="patch_3">
    <path d="M 108.3534 71.8 
C 108.3534 70.594493 108.234671 69.400709 108.004007 68.286966 
C 107.773343 67.173223 107.435231 66.161182 107.00902 65.30876 
C 106.582809 64.456338 106.076788 63.780113 105.519917 63.318786 
C 104.963046 62.857459 104.366153 62.62 103.7634 62.62 
C 103.160647 62.62 102.563754 62.857459 102.006883 63.318786 
C 101.450012 63.780113 100.943991 64.456338 100.51778 65.30876 
C 100.091569 66.161182 99.753457 67.173223 99.522793 68.286966 
C 99.292129 69.400709 99.1734 70.594493 99.1734 71.8 
C 99.1734 73.005507 99.292129 74.199291 99.522793 75.313034 
C 99.753457 76.426777 100.091569 77.438818 100.51778 78.29124 
C 100.943991 79.143662 101.450012 79.819887 102.006883 80.281214 
C 102.563754 80.742541 103.160647 80.98 103.7634 80.98 
C 104.366153 80.98 104.963046 80.742541 105.519917 80.281214 
C 106.076788 79.819887 106.582809 79.143662 107.00902 78.29124 
C 107.435231 77.438818 107.773343 76.426777 108.004007 75.313034 
C 108.234671 74.199291 108.3534 73.005507 108.3534 71.8 
" clip-path="url(#p2b1cf95861)" style="fill: none; stroke: #000000; stroke-width: 2; stroke-linejoin: miter"/>
   </g>
   <g id="patch_4">
    <path d="M 220.0434 80.98 
C 221.260277 80.98 222.428558 80.012164 223.28902 78.29124 
C 224.149482 76.570317 224.6334 74.233754 224.6334 71.8 
C 224.6334 69.366246 224.149482 67.029683 223.28902 65.30876 
C 222.428558 63.587836 221.260277 62.62 220.0434 62.62 
" clip-path="url(#p2b1cf95861)" style="fill: none; stroke: #000000; stroke-width: 2; stroke-linejoin: miter"/>
   </g>
   <g id="patch_5">
    <path d="M 273.5934 71.8 
C 273.5934 70.594493 273.474671 69.400709 273.244007 68.286966 
C 273.013343 67.173223 272.675231 66.161182 272.24902 65.30876 
C 271.822809 64.456338 271.316788 63.780113 270.759917 63.318786 
C 270.203046 62.857459 269.606153 62.62 269.0034 62.62 
C 268.400647 62.62 267.803754 62.857459 267.246883 63.318786 
C 266.690012 63.780113 266.183991 64.456338 265.75778 65.30876 
C 265.331569 66.161182 264.993457 67.173223 264.762793 68.286966 
C 264.532129 69.400709 264.4134 70.594493 264.4134 71.8 
C 264.4134 73.005507 264.532129 74.199291 264.762793 75.313034 
C 264.993457 76.426777 265.331569 77.438818 265.75778 78.29124 
C 266.183991 79.143662 266.690012 79.819887 267.246883 80.281214 
C 267.803754 80.742541 268.400647 80.98 269.0034 80.98 
C 269.606153 80.98 270.203046 80.742541 270.759917 80.281214 
C 271.316788 79.819887 271.822809 79.143662 272.24902 78.29124 
C 272.675231 77.438818 273.013343 76.426777 273.244007 75.313034 
C 273.474671 74.199291 273.5934 73.005507 273.5934 71.8 
" clip-path="url(#p2b1cf95861)" style="fill: none; stroke: #000000; stroke-width: 2; stroke-linejoin: miter"/>
   </g>
   <g id="patch_6">
    <path d="M 354.6834 80.98 
C 355.900277 80.98 357.068558 80.012164 357.92902 78.29124 
C 358.789482 76.570317 359.2734 74.233754 359.2734 71.8 
C 359.2734 69.366246 358.789482 67.029683 357.92902 65.30876 
C 357.068558 63.587836 355.900277 62.62 354.6834 62.62 
" clip-path="url(#p2b1cf95861)" style="fill: none; stroke: #000000; stroke-width: 2; stroke-linejoin: miter"/>
   </g>
   <g id="line2d_1">
    <path d="M 54.8034 120.76 
L 54.8034 133 
L 47.1534 133 
L 62.4534 133 
M 49.4484 136.672 
L 60.1584 136.672 
M 53.2734 140.344 
L 56.3334 140.344 
" clip-path="url(#p2b1cf95861)" style="fill: none; stroke: #000000; stroke-width: 2; stroke-linecap: round"/>
   </g>
   <g id="line2d_2">
    <path d="M 54.8034 120.76 
L 54.8034 105.46 
L 54.8034 105.46 
M 54.8034 74.86 
L 54.8034 74.86 
L 54.8034 59.56 
" clip-path="url(#p2b1cf95861)" style="fill: none; stroke: #000000; stroke-width: 2; stroke-linecap: round"/>
   </g>
   <g id="line2d_3">
    <path d="M 62.4534 90.16 
L 61.8159 88.576027 
L 61.1784 87.1 
L 60.5409 85.832506 
L 59.9034 84.859925 
L 59.2659 84.248534 
L 58.6284 84.04 
L 57.9909 84.248534 
L 57.3534 84.859925 
L 56.7159 85.832506 
L 56.0784 87.1 
L 55.4409 88.576027 
L 54.8034 90.16 
L 54.1659 91.743973 
L 53.5284 93.22 
L 52.8909 94.487494 
L 52.2534 95.460075 
L 51.6159 96.071466 
L 50.9784 96.28 
L 50.3409 96.071466 
L 49.7034 95.460075 
L 49.0659 94.487494 
L 48.4284 93.22 
L 47.7909 91.743973 
L 47.1534 90.16 
" clip-path="url(#p2b1cf95861)" style="fill: none; stroke: #000000; stroke-width: 2; stroke-linecap: round"/>
   </g>
   <g id="line2d_4">
    <path d="M 54.8034 59.56 
L 70.1034 59.56 
L 85.4034 59.56 
" clip-path="url(#p2b1cf95861)" style="fill: none; stroke: #000000; stroke-width: 2; stroke-linecap: round"/>
   </g>
   <g id="line2d_5">
    <path d="M 85.4034 59.56 
L 85.4034 65.68 
L 85.4034 71.8 
" clip-path="url(#p2b1cf95861)" style="fill: none; stroke: #000000; stroke-width: 2; stroke-linecap: round"/>
   </g>
   <g id="line2d_6">
    <path d="M 85.4034 71.8 
L 103.7634 71.8 
M 224.6334 71.8 
L 238.4034 71.8 
" clip-path="url(#p2b1cf95861)" style="fill: none; stroke: #000000; stroke-width: 2; stroke-linecap: round"/>
   </g>
   <g id="line2d_7">
    <path d="M 103.7634 62.62 
L 220.0434 62.62 
" clip-path="url(#p2b1cf95861)" style="fill: none; stroke: #000000; stroke-width: 2; stroke-linecap: round"/>
   </g>
   <g id="line2d_8">
    <path d="M 103.7634 80.98 
L 220.0434 80.98 
" clip-path="url(#p2b1cf95861)" style="fill: none; stroke: #000000; stroke-width: 2; stroke-linecap: round"/>
   </g>
   <g id="line2d_9">
    <path d="M 238.4034 71.8 
L 238.4034 107.296 
M 246.0534 107.296 
L 230.7534 107.296 
M 246.0534 112.804 
L 230.7534 112.804 
M 238.4034 112.804 
L 238.4034 148.3 
" clip-path="url(#p2b1cf95861)" style="fill: none; stroke: #000000; stroke-width: 2; stroke-linecap: round"/>
   </g>
   <g id="line2d_10">
    <path d="M 238.4034 148.3 
L 238.4034 160.54 
L 230.7534 160.54 
L 246.0534 160.54 
M 233.0484 164.212 
L 243.7584 164.212 
M 236.8734 167.884 
L 239.9334 167.884 
" clip-path="url(#p2b1cf95861)" style="fill: none; stroke: #000000; stroke-width: 2; stroke-linecap: round"/>
   </g>
   <g id="line2d_11">
    <path d="M 238.4034 71.8 
L 244.5234 71.8 
L 250.6434 71.8 
" clip-path="url(#p2b1cf95861)" style="fill: none; stroke: #000000; stroke-width: 2; stroke-linecap: round"/>
   </g>
   <g id="line2d_12">
    <path d="M 250.6434 71.8 
L 269.0034 71.8 
M 359.2734 71.8 
L 373.0434 71.8 
" clip-path="url(#p2b1cf95861)" style="fill: none; stroke: #000000; stroke-width: 2; stroke-linecap: round"/>
   </g>
   <g id="line2d_13">
    <path d="M 269.0034 62.62 
L 354.6834 62.62 
" clip-path="url(#p2b1cf95861)" style="fill: none; stroke: #000000; stroke-width: 2; stroke-linecap: round"/>
   </g>
   <g id="line2d_14">
    <path d="M 269.0034 80.98 
L 354.6834 80.98 
" clip-path="url(#p2b1cf95861)" style="fill: none; stroke: #000000; stroke-width: 2; stroke-linecap: round"/>
   </g>
   <g id="line2d_15">
    <path d="M 373.0434 71.8 
L 373.0434 53.44 
L 361.4154 35.08 
L 384.6714 35.08 
L 373.0434 53.44 
" clip-path="url(#p2b1cf95861)" style="fill: none; stroke: #000000; stroke-width: 2; stroke-linecap: round"/>
   </g>
   <g id="line2d_16">
    <path d="M 220.0434 62.62 
L 220.0434 47.32 
L 220.0434 32.02 
" clip-path="url(#p2b1cf95861)" style="fill: none; stroke: #000000; stroke-width: 2; stroke-linecap: round"/>
   </g>
   <g id="line2d_17">
    <path d="M 220.0434 32.02 
L 244.5234 32.02 
L 269.0034 32.02 
" clip-path="url(#p2b1cf95861)" style="fill: none; stroke: #000000; stroke-width: 2; stroke-linecap: round"/>
   </g>
   <g id="line2d_18">
    <path d="M 269.0034 32.02 
L 269.0034 47.32 
L 269.0034 62.62 
" clip-path="url(#p2b1cf95861)" style="fill: none; stroke: #000000; stroke-width: 2; stroke-linecap: round"/>
   </g>
   <g id="line2d_19">
    <path d="M 54.8034 120.76 
L 79.2834 120.76 
L 103.7634 120.76 
" clip-path="url(#p2b1cf95861)" style="fill: none; stroke: #000000; stroke-width: 2; stroke-linecap: round"/>
   </g>
   <g id="line2d_20">
    <path d="M 103.7634 120.76 
L 103.7634 100.87 
L 103.7634 80.98 
" clip-path="url(#p2b1cf95861)" style="fill: none; stroke: #000000; stroke-width: 2; stroke-linecap: round"/>
   </g>
   <g id="text_1">
    <g clip-path="url(#p2b1cf95861)">
     <!-- $V_{in}$ -->
     <g transform="translate(19.5684 93.609219)scale(0.125 -0.125)">
      <defs>
       <path id="DejaVuSans-Oblique-56" d="M 1319 0 
L 500 4666 
L 1119 4666 
L 1797 653 
L 4063 4666 
L 4750 4666 
L 2053 0 
L 1319 0 
z
" transform="scale(0.015625)"/>
       <path id="DejaVuSans-Oblique-69" d="M 1172 4863 
L 1747 4863 
L 1606 4134 
L 1031 4134 
L 1172 4863 
z
M 909 3500 
L 1484 3500 
L 800 0 
L 225 0 
L 909 3500 
z
" transform="scale(0.015625)"/>
       <path id="DejaVuSans-Oblique-6e" d="M 3566 2113 
L 3156 0 
L 2578 0 
L 2988 2091 
Q 3016 2238 3031 2350 
Q 3047 2463 3047 2528 
Q 3047 2791 2881 2937 
Q 2716 3084 2419 3084 
Q 1956 3084 1622 2776 
Q 1288 2469 1184 1941 
L 800 0 
L 225 0 
L 903 3500 
L 1478 3500 
L 1363 2950 
Q 1603 3253 1940 3418 
Q 2278 3584 2650 3584 
Q 3113 3584 3367 3334 
Q 3622 3084 3622 2631 
Q 3622 2519 3608 2391 
Q 3594 2263 3566 2113 
z
" transform="scale(0.015625)"/>
      </defs>
      <use xlink:href="#DejaVuSans-Oblique-56" transform="translate(0 0.09375)"/>
      <use xlink:href="#DejaVuSans-Oblique-69" transform="translate(68.408203 -16.3125)scale(0.7)"/>
      <use xlink:href="#DejaVuSans-Oblique-6e" transform="translate(87.856445 -16.3125)scale(0.7)"/>
     </g>
    </g>
   </g>
   <g id="text_2">
    <g clip-path="url(#p2b1cf95861)">
     <!-- $50\Omega$ -->
     <g transform="translate(149.1534 56.960391)scale(0.125 -0.125)">
      <defs>
       <path id="DejaVuSans-35" d="M 691 4666 
L 3169 4666 
L 3169 4134 
L 1269 4134 
L 1269 2991 
Q 1406 3038 1543 3061 
Q 1681 3084 1819 3084 
Q 2600 3084 3056 2656 
Q 3513 2228 3513 1497 
Q 3513 744 3044 326 
Q 2575 -91 1722 -91 
Q 1428 -91 1123 -41 
Q 819 9 494 109 
L 494 744 
Q 775 591 1075 516 
Q 1375 441 1709 441 
Q 2250 441 2565 725 
Q 2881 1009 2881 1497 
Q 2881 1984 2565 2268 
Q 2250 2553 1709 2553 
Q 1456 2553 1204 2497 
Q 953 2441 691 2322 
L 691 4666 
z
" transform="scale(0.015625)"/>
       <path id="DejaVuSans-30" d="M 2034 4250 
Q 1547 4250 1301 3770 
Q 1056 3291 1056 2328 
Q 1056 1369 1301 889 
Q 1547 409 2034 409 
Q 2525 409 2770 889 
Q 3016 1369 3016 2328 
Q 3016 3291 2770 3770 
Q 2525 4250 2034 4250 
z
M 2034 4750 
Q 2819 4750 3233 4129 
Q 3647 3509 3647 2328 
Q 3647 1150 3233 529 
Q 2819 -91 2034 -91 
Q 1250 -91 836 529 
Q 422 1150 422 2328 
Q 422 3509 836 4129 
Q 1250 4750 2034 4750 
z
" transform="scale(0.015625)"/>
       <path id="DejaVuSans-3a9" d="M 4647 556 
L 4647 0 
L 2772 0 
L 2772 556 
Q 3325 859 3634 1378 
Q 3944 1897 3944 2528 
Q 3944 3278 3531 3731 
Q 3119 4184 2444 4184 
Q 1769 4184 1355 3729 
Q 941 3275 941 2528 
Q 941 1897 1250 1378 
Q 1563 859 2119 556 
L 2119 0 
L 244 0 
L 244 556 
L 1241 556 
Q 747 991 519 1456 
Q 294 1922 294 2497 
Q 294 3491 894 4106 
Q 1491 4722 2444 4722 
Q 3391 4722 3994 4106 
Q 4594 3494 4594 2528 
Q 4594 1922 4372 1459 
Q 4150 997 3647 556 
L 4647 556 
z
" transform="scale(0.015625)"/>
      </defs>
      <use xlink:href="#DejaVuSans-35" transform="translate(0 0.78125)"/>
      <use xlink:href="#DejaVuSans-30" transform="translate(63.623047 0.78125)"/>
      <use xlink:href="#DejaVuSans-3a9" transform="translate(127.246094 0.78125)"/>
     </g>
    </g>
   </g>
   <g id="text_3">
    <g clip-path="url(#p2b1cf95861)">
     <!-- 2.59pF -->
     <g transform="translate(184.736369 113.499219)scale(0.125 -0.125)">
      <defs>
       <path id="DejaVuSans-32" d="M 1228 531 
L 3431 531 
L 3431 0 
L 469 0 
L 469 531 
Q 828 903 1448 1529 
Q 2069 2156 2228 2338 
Q 2531 2678 2651 2914 
Q 2772 3150 2772 3378 
Q 2772 3750 2511 3984 
Q 2250 4219 1831 4219 
Q 1534 4219 1204 4116 
Q 875 4013 500 3803 
L 500 4441 
Q 881 4594 1212 4672 
Q 1544 4750 1819 4750 
Q 2544 4750 2975 4387 
Q 3406 4025 3406 3419 
Q 3406 3131 3298 2873 
Q 3191 2616 2906 2266 
Q 2828 2175 2409 1742 
Q 1991 1309 1228 531 
z
" transform="scale(0.015625)"/>
       <path id="DejaVuSans-2e" d="M 684 794 
L 1344 794 
L 1344 0 
L 684 0 
L 684 794 
z
" transform="scale(0.015625)"/>
       <path id="DejaVuSans-39" d="M 703 97 
L 703 672 
Q 941 559 1184 500 
Q 1428 441 1663 441 
Q 2288 441 2617 861 
Q 2947 1281 2994 2138 
Q 2813 1869 2534 1725 
Q 2256 1581 1919 1581 
Q 1219 1581 811 2004 
Q 403 2428 403 3163 
Q 403 3881 828 4315 
Q 1253 4750 1959 4750 
Q 2769 4750 3195 4129 
Q 3622 3509 3622 2328 
Q 3622 1225 3098 567 
Q 2575 -91 1691 -91 
Q 1453 -91 1209 -44 
Q 966 3 703 97 
z
M 1959 2075 
Q 2384 2075 2632 2365 
Q 2881 2656 2881 3163 
Q 2881 3666 2632 3958 
Q 2384 4250 1959 4250 
Q 1534 4250 1286 3958 
Q 1038 3666 1038 3163 
Q 1038 2656 1286 2365 
Q 1534 2075 1959 2075 
z
" transform="scale(0.015625)"/>
       <path id="DejaVuSans-70" d="M 1159 525 
L 1159 -1331 
L 581 -1331 
L 581 3500 
L 1159 3500 
L 1159 2969 
Q 1341 3281 1617 3432 
Q 1894 3584 2278 3584 
Q 2916 3584 3314 3078 
Q 3713 2572 3713 1747 
Q 3713 922 3314 415 
Q 2916 -91 2278 -91 
Q 1894 -91 1617 61 
Q 1341 213 1159 525 
z
M 3116 1747 
Q 3116 2381 2855 2742 
Q 2594 3103 2138 3103 
Q 1681 3103 1420 2742 
Q 1159 2381 1159 1747 
Q 1159 1113 1420 752 
Q 1681 391 2138 391 
Q 2594 391 2855 752 
Q 3116 1113 3116 1747 
z
" transform="scale(0.015625)"/>
       <path id="DejaVuSans-46" d="M 628 4666 
L 3309 4666 
L 3309 4134 
L 1259 4134 
L 1259 2759 
L 3109 2759 
L 3109 2228 
L 1259 2228 
L 1259 0 
L 628 0 
L 628 4666 
z
" transform="scale(0.015625)"/>
      </defs>
      <use xlink:href="#DejaVuSans-32"/>
      <use xlink:href="#DejaVuSans-2e" x="63.623047"/>
      <use xlink:href="#DejaVuSans-35" x="95.410156"/>
      <use xlink:href="#DejaVuSans-39" x="159.033203"/>
      <use xlink:href="#DejaVuSans-70" x="222.65625"/>
      <use xlink:href="#DejaVuSans-46" x="286.132812"/>
     </g>
    </g>
   </g>
   <g id="text_4">
    <g clip-path="url(#p2b1cf95861)">
     <!-- $50\Omega$ -->
     <g transform="translate(299.0934 56.960391)scale(0.125 -0.125)">
      <use xlink:href="#DejaVuSans-35" transform="translate(0 0.78125)"/>
      <use xlink:href="#DejaVuSans-30" transform="translate(63.623047 0.78125)"/>
      <use xlink:href="#DejaVuSans-3a9" transform="translate(127.246094 0.78125)"/>
     </g>
    </g>
   </g>
   <g id="text_5">
    <g clip-path="url(#p2b1cf95861)">
     <!-- 4.24 cm -->
     <g transform="translate(286.416642 93.538047)scale(0.125 -0.125)">
      <defs>
       <path id="DejaVuSans-34" d="M 2419 4116 
L 825 1625 
L 2419 1625 
L 2419 4116 
z
M 2253 4666 
L 3047 4666 
L 3047 1625 
L 3713 1625 
L 3713 1100 
L 3047 1100 
L 3047 0 
L 2419 0 
L 2419 1100 
L 313 1100 
L 313 1709 
L 2253 4666 
z
" transform="scale(0.015625)"/>
       <path id="DejaVuSans-20" transform="scale(0.015625)"/>
       <path id="DejaVuSans-63" d="M 3122 3366 
L 3122 2828 
Q 2878 2963 2633 3030 
Q 2388 3097 2138 3097 
Q 1578 3097 1268 2742 
Q 959 2388 959 1747 
Q 959 1106 1268 751 
Q 1578 397 2138 397 
Q 2388 397 2633 464 
Q 2878 531 3122 666 
L 3122 134 
Q 2881 22 2623 -34 
Q 2366 -91 2075 -91 
Q 1284 -91 818 406 
Q 353 903 353 1747 
Q 353 2603 823 3093 
Q 1294 3584 2113 3584 
Q 2378 3584 2631 3529 
Q 2884 3475 3122 3366 
z
" transform="scale(0.015625)"/>
       <path id="DejaVuSans-6d" d="M 3328 2828 
Q 3544 3216 3844 3400 
Q 4144 3584 4550 3584 
Q 5097 3584 5394 3201 
Q 5691 2819 5691 2113 
L 5691 0 
L 5113 0 
L 5113 2094 
Q 5113 2597 4934 2840 
Q 4756 3084 4391 3084 
Q 3944 3084 3684 2787 
Q 3425 2491 3425 1978 
L 3425 0 
L 2847 0 
L 2847 2094 
Q 2847 2600 2669 2842 
Q 2491 3084 2119 3084 
Q 1678 3084 1418 2786 
Q 1159 2488 1159 1978 
L 1159 0 
L 581 0 
L 581 3500 
L 1159 3500 
L 1159 2956 
Q 1356 3278 1631 3431 
Q 1906 3584 2284 3584 
Q 2666 3584 2933 3390 
Q 3200 3197 3328 2828 
z
" transform="scale(0.015625)"/>
      </defs>
      <use xlink:href="#DejaVuSans-34"/>
      <use xlink:href="#DejaVuSans-2e" x="63.623047"/>
      <use xlink:href="#DejaVuSans-32" x="95.410156"/>
      <use xlink:href="#DejaVuSans-34" x="159.033203"/>
      <use xlink:href="#DejaVuSans-20" x="222.65625"/>
      <use xlink:href="#DejaVuSans-63" x="254.443359"/>
      <use xlink:href="#DejaVuSans-6d" x="309.423828"/>
     </g>
    </g>
   </g>
   <g id="text_6">
    <g clip-path="url(#p2b1cf95861)">
     <!-- $128\Omega$ -->
     <g transform="translate(356.2934 29.420391)scale(0.125 -0.125)">
      <defs>
       <path id="DejaVuSans-31" d="M 794 531 
L 1825 531 
L 1825 4091 
L 703 3866 
L 703 4441 
L 1819 4666 
L 2450 4666 
L 2450 531 
L 3481 531 
L 3481 0 
L 794 0 
L 794 531 
z
" transform="scale(0.015625)"/>
       <path id="DejaVuSans-38" d="M 2034 2216 
Q 1584 2216 1326 1975 
Q 1069 1734 1069 1313 
Q 1069 891 1326 650 
Q 1584 409 2034 409 
Q 2484 409 2743 651 
Q 3003 894 3003 1313 
Q 3003 1734 2745 1975 
Q 2488 2216 2034 2216 
z
M 1403 2484 
Q 997 2584 770 2862 
Q 544 3141 544 3541 
Q 544 4100 942 4425 
Q 1341 4750 2034 4750 
Q 2731 4750 3128 4425 
Q 3525 4100 3525 3541 
Q 3525 3141 3298 2862 
Q 3072 2584 2669 2484 
Q 3125 2378 3379 2068 
Q 3634 1759 3634 1313 
Q 3634 634 3220 271 
Q 2806 -91 2034 -91 
Q 1263 -91 848 271 
Q 434 634 434 1313 
Q 434 1759 690 2068 
Q 947 2378 1403 2484 
z
M 1172 3481 
Q 1172 3119 1398 2916 
Q 1625 2713 2034 2713 
Q 2441 2713 2670 2916 
Q 2900 3119 2900 3481 
Q 2900 3844 2670 4047 
Q 2441 4250 2034 4250 
Q 1625 4250 1398 4047 
Q 1172 3844 1172 3481 
z
" transform="scale(0.015625)"/>
      </defs>
      <use xlink:href="#DejaVuSans-31" transform="translate(0 0.78125)"/>
      <use xlink:href="#DejaVuSans-32" transform="translate(63.623047 0.78125)"/>
      <use xlink:href="#DejaVuSans-38" transform="translate(127.246094 0.78125)"/>
      <use xlink:href="#DejaVuSans-3a9" transform="translate(190.869141 0.78125)"/>
     </g>
    </g>
   </g>
   <g id="patch_7">
    <path d="M 54.8034 123.055 
C 55.412041 123.055 55.995836 122.813184 56.42621 122.38281 
C 56.856584 121.952436 57.0984 121.368641 57.0984 120.76 
C 57.0984 120.151359 56.856584 119.567564 56.42621 119.13719 
C 55.995836 118.706816 55.412041 118.465 54.8034 118.465 
C 54.194759 118.465 53.610964 118.706816 53.18059 119.13719 
C 52.750216 119.567564 52.5084 120.151359 52.5084 120.76 
C 52.5084 121.368641 52.750216 121.952436 53.18059 122.38281 
C 53.610964 122.813184 54.194759 123.055 54.8034 123.055 
z
" clip-path="url(#p2b1cf95861)" style="stroke: #000000; stroke-width: 2; stroke-linejoin: miter"/>
   </g>
   <g id="patch_8">
    <path d="M 238.4034 74.095 
C 239.012041 74.095 239.595836 73.853184 240.02621 73.42281 
C 240.456584 72.992436 240.6984 72.408641 240.6984 71.8 
C 240.6984 71.191359 240.456584 70.607564 240.02621 70.17719 
C 239.595836 69.746816 239.012041 69.505 238.4034 69.505 
C 237.794759 69.505 237.210964 69.746816 236.78059 70.17719 
C 236.350216 70.607564 236.1084 71.191359 236.1084 71.8 
C 236.1084 72.408641 236.350216 72.992436 236.78059 73.42281 
C 237.210964 73.853184 237.794759 74.095 238.4034 74.095 
z
" clip-path="url(#p2b1cf95861)" style="stroke: #000000; stroke-width: 2; stroke-linejoin: miter"/>
   </g>
   <g id="patch_9">
    <path d="M 250.6434 74.095 
C 251.252041 74.095 251.835836 73.853184 252.26621 73.42281 
C 252.696584 72.992436 252.9384 72.408641 252.9384 71.8 
C 252.9384 71.191359 252.696584 70.607564 252.26621 70.17719 
C 251.835836 69.746816 251.252041 69.505 250.6434 69.505 
C 250.034759 69.505 249.450964 69.746816 249.02059 70.17719 
C 248.590216 70.607564 248.3484 71.191359 248.3484 71.8 
C 248.3484 72.408641 248.590216 72.992436 249.02059 73.42281 
C 249.450964 73.853184 250.034759 74.095 250.6434 74.095 
z
" clip-path="url(#p2b1cf95861)" style="fill: #008000; stroke: #008000; stroke-width: 2; stroke-linejoin: miter"/>
   </g>
   <g id="patch_10">
    <path d="M 373.0434 74.095 
C 373.652041 74.095 374.235836 73.853184 374.66621 73.42281 
C 375.096584 72.992436 375.3384 72.408641 375.3384 71.8 
C 375.3384 71.191359 375.096584 70.607564 374.66621 70.17719 
C 374.235836 69.746816 373.652041 69.505 373.0434 69.505 
C 372.434759 69.505 371.850964 69.746816 371.42059 70.17719 
C 370.990216 70.607564 370.7484 71.191359 370.7484 71.8 
C 370.7484 72.408641 370.990216 72.992436 371.42059 73.42281 
C 371.850964 73.853184 372.434759 74.095 373.0434 74.095 
z
" clip-path="url(#p2b1cf95861)" style="fill: #ff0000; stroke: #ff0000; stroke-width: 2; stroke-linejoin: miter"/>
   </g>
  </g>
 </g>
 <defs>
  <clipPath id="p2b1cf95861">
   <rect x="7.2" y="7.2" width="396.3159" height="163.744"/>
  </clipPath>
 </defs>
</svg>