<?xml version="1.0" encoding="utf-8" standalone="no"?>
<!DOCTYPE svg PUBLIC "-//W3C//DTD SVG 1.1//EN"
  "http://www.w3.org/Graphics/SVG/1.1/DTD/svg11.dtd">
<svg xmlns:xlink="http://www.w3.org/1999/xlink" width="612.288pt" height="187.129656pt" viewBox="0 0 612.288 187.129656" xmlns="http://www.w3.org/2000/svg" version="1.1">
 <metadata>
  <rdf:RDF xmlns:dc="http://purl.org/dc/elements/1.1/" xmlns:cc="http://creativecommons.org/ns#" xmlns:rdf="http://www.w3.org/1999/02/22-rdf-syntax-ns#">
   <cc:Work>
    <dc:type rdf:resource="http://purl.org/dc/dcmitype/StillImage"/>
    <dc:date>2023-10-14T00:30:52.521708</dc:date>
    <dc:format>image/svg+xml</dc:format>
    <dc:creator>
     <cc:Agent>
      <dc:title>Matplotlib v3.8.0, https://matplotlib.org/</dc:title>
     </cc:Agent>
    </dc:creator>
   </cc:Work>
  </rdf:RDF>
 </metadata>
 <defs>
  <style type="text/css">*{stroke-linejoin: round; stroke-linecap: butt}</style>
 </defs>
 <g id="figure_1">
  <g id="patch_1">
   <path d="M 0 187.129656 
L 612.288 187.129656 
L 612.288 0 
L 0 0 
z
" style="fill: #ffffff"/>
  </g>
  <g id="axes_1">
   <g id="patch_2">
    <path d="M 49.104 102.097656 
C 53.877656 102.097656 58.456438 100.201063 61.831922 96.825578 
C 65.207406 93.450094 67.104 88.871312 67.104 84.097656 
C 67.104 79.324 65.207406 74.745219 61.831922 71.369734 
C 58.456438 67.99425 53.877656 66.097656 49.104 66.097656 
C 44.330344 66.097656 39.751562 67.99425 36.376078 71.369734 
C 33.000594 74.745219 31.104 79.324 31.104 84.097656 
C 31.104 88.871312 33.000594 93.450094 36.376078 96.825578 
C 39.751562 100.201063 44.330344 102.097656 49.104 102.097656 
L 49.104 102.097656 
z
" clip-path="url(#pa5bab5a9f8)" style="fill: none; stroke: #000000; stroke-width: 2; stroke-linejoin: miter"/>
   </g>
   <g id="patch_3">
    <path d="M 112.104 62.497656 
C 112.104 61.079413 111.964319 59.674961 111.692949 58.364675 
C 111.42158 57.054389 111.023801 55.863752 110.522377 54.860903 
C 110.020952 53.858054 109.425633 53.062495 108.770491 52.519757 
C 108.115348 51.977019 107.413122 51.697656 106.704 51.697656 
C 105.994878 51.697656 105.292652 51.977019 104.637509 52.519757 
C 103.982367 53.062495 103.387048 53.858054 102.885623 54.860903 
C 102.384199 55.863752 101.98642 57.054389 101.715051 58.364675 
C 101.443681 59.674961 101.304 61.079413 101.304 62.497656 
C 101.304 63.915899 101.443681 65.320352 101.715051 66.630637 
C 101.98642 67.940923 102.384199 69.13156 102.885623 70.134409 
C 103.387048 71.137259 103.982367 71.932817 104.637509 72.475555 
C 105.292652 73.018293 105.994878 73.297656 106.704 73.297656 
C 107.413122 73.297656 108.115348 73.018293 108.770491 72.475555 
C 109.425633 71.932817 110.020952 71.137259 110.522377 70.134409 
C 111.023801 69.13156 111.42158 67.940923 111.692949 66.630637 
C 111.964319 65.320352 112.104 63.915899 112.104 62.497656 
" clip-path="url(#pa5bab5a9f8)" style="fill: none; stroke: #000000; stroke-width: 2; stroke-linejoin: miter"/>
   </g>
   <g id="patch_4">
    <path d="M 243.504 73.297656 
C 244.93562 73.297656 246.310069 72.159026 247.322377 70.134409 
C 248.334685 68.109793 248.904 65.360896 248.904 62.497656 
C 248.904 59.634417 248.334685 56.885519 247.322377 54.860903 
C 246.310069 52.836287 244.93562 51.697656 243.504 51.697656 
" clip-path="url(#pa5bab5a9f8)" style="fill: none; stroke: #000000; stroke-width: 2; stroke-linejoin: miter"/>
   </g>
   <g id="patch_5">
    <path d="M 306.504 62.497656 
C 306.504 61.079413 306.364319 59.674961 306.092949 58.364675 
C 305.82158 57.054389 305.423801 55.863752 304.922377 54.860903 
C 304.420952 53.858054 303.825633 53.062495 303.170491 52.519757 
C 302.515348 51.977019 301.813122 51.697656 301.104 51.697656 
C 300.394878 51.697656 299.692652 51.977019 299.037509 52.519757 
C 298.382367 53.062495 297.787048 53.858054 297.285623 54.860903 
C 296.784199 55.863752 296.38642 57.054389 296.115051 58.364675 
C 295.843681 59.674961 295.704 61.079413 295.704 62.497656 
C 295.704 63.915899 295.843681 65.320352 296.115051 66.630637 
C 296.38642 67.940923 296.784199 69.13156 297.285623 70.134409 
C 297.787048 71.137259 298.382367 71.932817 299.037509 72.475555 
C 299.692652 73.018293 300.394878 73.297656 301.104 73.297656 
C 301.813122 73.297656 302.515348 73.018293 303.170491 72.475555 
C 303.825633 71.932817 304.420952 71.137259 304.922377 70.134409 
C 305.423801 69.13156 305.82158 67.940923 306.092949 66.630637 
C 306.364319 65.320352 306.504 63.915899 306.504 62.497656 
" clip-path="url(#pa5bab5a9f8)" style="fill: none; stroke: #000000; stroke-width: 2; stroke-linejoin: miter"/>
   </g>
   <g id="patch_6">
    <path d="M 545.904 73.297656 
C 547.33562 73.297656 548.710069 72.159026 549.722377 70.134409 
C 550.734685 68.109793 551.304 65.360896 551.304 62.497656 
C 551.304 59.634417 550.734685 56.885519 549.722377 54.860903 
C 548.710069 52.836287 547.33562 51.697656 545.904 51.697656 
" clip-path="url(#pa5bab5a9f8)" style="fill: none; stroke: #000000; stroke-width: 2; stroke-linejoin: miter"/>
   </g>
   <g id="line2d_1">
    <path d="M 49.104 120.097656 
L 49.104 134.497656 
L 40.104 134.497656 
L 58.104 134.497656 
M 42.804 138.817656 
L 55.404 138.817656 
M 47.304 143.137656 
L 50.904 143.137656 
" clip-path="url(#pa5bab5a9f8)" style="fill: none; stroke: #000000; stroke-width: 2; stroke-linecap: round"/>
   </g>
   <g id="line2d_2">
    <path d="M 49.104 120.097656 
L 49.104 102.097656 
L 49.104 102.097656 
M 49.104 66.097656 
L 49.104 66.097656 
L 49.104 48.097656 
" clip-path="url(#pa5bab5a9f8)" style="fill: none; stroke: #000000; stroke-width: 2; stroke-linecap: round"/>
   </g>
   <g id="line2d_3">
    <path d="M 58.104 84.097656 
L 57.354 82.234159 
L 56.604 80.497656 
L 55.854 79.006487 
L 55.104 77.862273 
L 54.354 77.14299 
L 53.604 76.897656 
L 52.854 77.14299 
L 52.104 77.862273 
L 51.354 79.006487 
L 50.604 80.497656 
L 49.854 82.234159 
L 49.104 84.097656 
L 48.354 85.961153 
L 47.604 87.697656 
L 46.854 89.188825 
L 46.104 90.333039 
L 45.354 91.052322 
L 44.604 91.297656 
L 43.854 91.052322 
L 43.104 90.333039 
L 42.354 89.188825 
L 41.604 87.697656 
L 40.854 85.961153 
L 40.104 84.097656 
" clip-path="url(#pa5bab5a9f8)" style="fill: none; stroke: #000000; stroke-width: 2; stroke-linecap: round"/>
   </g>
   <g id="line2d_4">
    <path d="M 49.104 48.097656 
L 67.104 48.097656 
L 85.104 48.097656 
" clip-path="url(#pa5bab5a9f8)" style="fill: none; stroke: #000000; stroke-width: 2; stroke-linecap: round"/>
   </g>
   <g id="line2d_5">
    <path d="M 85.104 48.097656 
L 85.104 55.297656 
L 85.104 62.497656 
" clip-path="url(#pa5bab5a9f8)" style="fill: none; stroke: #000000; stroke-width: 2; stroke-linecap: round"/>
   </g>
   <g id="line2d_6">
    <path d="M 85.104 62.497656 
L 106.704 62.497656 
M 248.904 62.497656 
L 265.104 62.497656 
" clip-path="url(#pa5bab5a9f8)" style="fill: none; stroke: #000000; stroke-width: 2; stroke-linecap: round"/>
   </g>
   <g id="line2d_7">
    <path d="M 106.704 51.697656 
L 243.504 51.697656 
" clip-path="url(#pa5bab5a9f8)" style="fill: none; stroke: #000000; stroke-width: 2; stroke-linecap: round"/>
   </g>
   <g id="line2d_8">
    <path d="M 106.704 73.297656 
L 243.504 73.297656 
" clip-path="url(#pa5bab5a9f8)" style="fill: none; stroke: #000000; stroke-width: 2; stroke-linecap: round"/>
   </g>
   <g id="line2d_9">
    <path d="M 139.104 37.297656 
L 200.304 37.297656 
" clip-path="url(#pa5bab5a9f8)" style="fill: none; stroke: #000000; stroke-width: 2; stroke-linecap: round"/>
   </g>
   <g id="patch_7">
    <path d="M 200.304 33.697656 
L 211.104 37.297656 
L 200.304 40.897656 
z
" clip-path="url(#pa5bab5a9f8)"/>
   </g>
   <g id="line2d_10">
    <path d="M 265.104 62.497656 
L 265.104 104.257656 
M 274.104 104.257656 
L 256.104 104.257656 
M 274.104 110.737656 
L 256.104 110.737656 
M 265.104 110.737656 
L 265.104 152.497656 
" clip-path="url(#pa5bab5a9f8)" style="fill: none; stroke: #000000; stroke-width: 2; stroke-linecap: round"/>
   </g>
   <g id="line2d_11">
    <path d="M 265.104 152.497656 
L 265.104 166.897656 
L 256.104 166.897656 
L 274.104 166.897656 
M 258.804 171.217656 
L 271.404 171.217656 
M 263.304 175.537656 
L 266.904 175.537656 
" clip-path="url(#pa5bab5a9f8)" style="fill: none; stroke: #000000; stroke-width: 2; stroke-linecap: round"/>
   </g>
   <g id="line2d_12">
    <path d="M 265.104 62.497656 
L 272.304 62.497656 
L 279.504 62.497656 
" clip-path="url(#pa5bab5a9f8)" style="fill: none; stroke: #000000; stroke-width: 2; stroke-linecap: round"/>
   </g>
   <g id="line2d_13">
    <path d="M 279.504 62.497656 
L 301.104 62.497656 
M 551.304 62.497656 
L 567.504 62.497656 
" clip-path="url(#pa5bab5a9f8)" style="fill: none; stroke: #000000; stroke-width: 2; stroke-linecap: round"/>
   </g>
   <g id="line2d_14">
    <path d="M 301.104 51.697656 
L 545.904 51.697656 
" clip-path="url(#pa5bab5a9f8)" style="fill: none; stroke: #000000; stroke-width: 2; stroke-linecap: round"/>
   </g>
   <g id="line2d_15">
    <path d="M 301.104 73.297656 
L 545.904 73.297656 
" clip-path="url(#pa5bab5a9f8)" style="fill: none; stroke: #000000; stroke-width: 2; stroke-linecap: round"/>
   </g>
   <g id="line2d_16">
    <path d="M 387.504 37.297656 
L 448.704 37.297656 
" clip-path="url(#pa5bab5a9f8)" style="fill: none; stroke: #ff0000; stroke-width: 2; stroke-linecap: round"/>
   </g>
   <g id="patch_8">
    <path d="M 448.704 33.697656 
L 459.504 37.297656 
L 448.704 40.897656 
z
" clip-path="url(#pa5bab5a9f8)" style="fill: #ff0000"/>
   </g>
   <g id="line2d_17">
    <path d="M 567.504 62.497656 
L 567.504 40.897656 
L 553.824 19.297656 
L 581.184 19.297656 
L 567.504 40.897656 
" clip-path="url(#pa5bab5a9f8)" style="fill: none; stroke: #000000; stroke-width: 2; stroke-linecap: round"/>
   </g>
   <g id="line2d_18">
    <path d="M 243.504 51.697656 
L 243.504 33.697656 
L 243.504 15.697656 
" clip-path="url(#pa5bab5a9f8)" style="fill: none; stroke: #000000; stroke-width: 2; stroke-linecap: round"/>
   </g>
   <g id="line2d_19">
    <path d="M 243.504 15.697656 
L 272.304 15.697656 
L 301.104 15.697656 
" clip-path="url(#pa5bab5a9f8)" style="fill: none; stroke: #000000; stroke-width: 2; stroke-linecap: round"/>
   </g>
   <g id="line2d_20">
    <path d="M 301.104 15.697656 
L 301.104 33.697656 
L 301.104 51.697656 
" clip-path="url(#pa5bab5a9f8)" style="fill: none; stroke: #000000; stroke-width: 2; stroke-linecap: round"/>
   </g>
   <g id="line2d_21">
    <path d="M 49.104 120.097656 
L 77.904 120.097656 
L 106.704 120.097656 
" clip-path="url(#pa5bab5a9f8)" style="fill: none; stroke: #000000; stroke-width: 2; stroke-linecap: round"/>
   </g>
   <g id="line2d_22">
    <path d="M 106.704 120.097656 
L 106.704 96.697656 
L 106.704 73.297656 
" clip-path="url(#pa5bab5a9f8)" style="fill: none; stroke: #000000; stroke-width: 2; stroke-linecap: round"/>
   </g>
   <g id="text_1">
    <!-- $V_{in}$ -->
    <g transform="translate(10.629 87.546875) scale(0.125 -0.125)">
     <defs>
      <path id="DejaVuSans-Oblique-56" d="M 1319 0 
L 500 4666 
L 1119 4666 
L 1797 653 
L 4063 4666 
L 4750 4666 
L 2053 0 
L 1319 0 
z
" transform="scale(0.015625)"/>
      <path id="DejaVuSans-Oblique-69" d="M 1172 4863 
L 1747 4863 
L 1606 4134 
L 1031 4134 
L 1172 4863 
z
M 909 3500 
L 1484 3500 
L 800 0 
L 225 0 
L 909 3500 
z
" transform="scale(0.015625)"/>
      <path id="DejaVuSans-Oblique-6e" d="M 3566 2113 
L 3156 0 
L 2578 0 
L 2988 2091 
Q 3016 2238 3031 2350 
Q 3047 2463 3047 2528 
Q 3047 2791 2881 2937 
Q 2716 3084 2419 3084 
Q 1956 3084 1622 2776 
Q 1288 2469 1184 1941 
L 800 0 
L 225 0 
L 903 3500 
L 1478 3500 
L 1363 2950 
Q 1603 3253 1940 3418 
Q 2278 3584 2650 3584 
Q 3113 3584 3367 3334 
Q 3622 3084 3622 2631 
Q 3622 2519 3608 2391 
Q 3594 2263 3566 2113 
z
" transform="scale(0.015625)"/>
     </defs>
     <use xlink:href="#DejaVuSans-Oblique-56" transform="translate(0 0.09375)"/>
     <use xlink:href="#DejaVuSans-Oblique-69" transform="translate(68.408203 -16.3125) scale(0.7)"/>
     <use xlink:href="#DejaVuSans-Oblique-6e" transform="translate(87.856445 -16.3125) scale(0.7)"/>
    </g>
   </g>
   <g id="text_2">
    <!-- $50\Omega$ -->
    <g transform="translate(162.354 45.498047) scale(0.125 -0.125)">
     <defs>
      <path id="DejaVuSans-35" d="M 691 4666 
L 3169 4666 
L 3169 4134 
L 1269 4134 
L 1269 2991 
Q 1406 3038 1543 3061 
Q 1681 3084 1819 3084 
Q 2600 3084 3056 2656 
Q 3513 2228 3513 1497 
Q 3513 744 3044 326 
Q 2575 -91 1722 -91 
Q 1428 -91 1123 -41 
Q 819 9 494 109 
L 494 744 
Q 775 591 1075 516 
Q 1375 441 1709 441 
Q 2250 441 2565 725 
Q 2881 1009 2881 1497 
Q 2881 1984 2565 2268 
Q 2250 2553 1709 2553 
Q 1456 2553 1204 2497 
Q 953 2441 691 2322 
L 691 4666 
z
" transform="scale(0.015625)"/>
      <path id="DejaVuSans-30" d="M 2034 4250 
Q 1547 4250 1301 3770 
Q 1056 3291 1056 2328 
Q 1056 1369 1301 889 
Q 1547 409 2034 409 
Q 2525 409 2770 889 
Q 3016 1369 3016 2328 
Q 3016 3291 2770 3770 
Q 2525 4250 2034 4250 
z
M 2034 4750 
Q 2819 4750 3233 4129 
Q 3647 3509 3647 2328 
Q 3647 1150 3233 529 
Q 2819 -91 2034 -91 
Q 1250 -91 836 529 
Q 422 1150 422 2328 
Q 422 3509 836 4129 
Q 1250 4750 2034 4750 
z
" transform="scale(0.015625)"/>
      <path id="DejaVuSans-3a9" d="M 4647 556 
L 4647 0 
L 2772 0 
L 2772 556 
Q 3325 859 3634 1378 
Q 3944 1897 3944 2528 
Q 3944 3278 3531 3731 
Q 3119 4184 2444 4184 
Q 1769 4184 1355 3729 
Q 941 3275 941 2528 
Q 941 1897 1250 1378 
Q 1563 859 2119 556 
L 2119 0 
L 244 0 
L 244 556 
L 1241 556 
Q 747 991 519 1456 
Q 294 1922 294 2497 
Q 294 3491 894 4106 
Q 1491 4722 2444 4722 
Q 3391 4722 3994 4106 
Q 4594 3494 4594 2528 
Q 4594 1922 4372 1459 
Q 4150 997 3647 556 
L 4647 556 
z
" transform="scale(0.015625)"/>
     </defs>
     <use xlink:href="#DejaVuSans-35" transform="translate(0 0.78125)"/>
     <use xlink:href="#DejaVuSans-30" transform="translate(63.623047 0.78125)"/>
     <use xlink:href="#DejaVuSans-3a9" transform="translate(127.246094 0.78125)"/>
    </g>
   </g>
   <g id="text_3">
    <!-- 5V -->
    <g transform="translate(166.852047 17.100781) scale(0.125 -0.125)">
     <defs>
      <path id="DejaVuSans-56" d="M 1831 0 
L 50 4666 
L 709 4666 
L 2188 738 
L 3669 4666 
L 4325 4666 
L 2547 0 
L 1831 0 
z
" transform="scale(0.015625)"/>
     </defs>
     <use xlink:href="#DejaVuSans-35"/>
     <use xlink:href="#DejaVuSans-56" x="63.623047"/>
    </g>
    <!-- 100 mA -->
    <g transform="translate(150.824703 31.098047) scale(0.125 -0.125)">
     <defs>
      <path id="DejaVuSans-31" d="M 794 531 
L 1825 531 
L 1825 4091 
L 703 3866 
L 703 4441 
L 1819 4666 
L 2450 4666 
L 2450 531 
L 3481 531 
L 3481 0 
L 794 0 
L 794 531 
z
" transform="scale(0.015625)"/>
      <path id="DejaVuSans-20" transform="scale(0.015625)"/>
      <path id="DejaVuSans-6d" d="M 3328 2828 
Q 3544 3216 3844 3400 
Q 4144 3584 4550 3584 
Q 5097 3584 5394 3201 
Q 5691 2819 5691 2113 
L 5691 0 
L 5113 0 
L 5113 2094 
Q 5113 2597 4934 2840 
Q 4756 3084 4391 3084 
Q 3944 3084 3684 2787 
Q 3425 2491 3425 1978 
L 3425 0 
L 2847 0 
L 2847 2094 
Q 2847 2600 2669 2842 
Q 2491 3084 2119 3084 
Q 1678 3084 1418 2786 
Q 1159 2488 1159 1978 
L 1159 0 
L 581 0 
L 581 3500 
L 1159 3500 
L 1159 2956 
Q 1356 3278 1631 3431 
Q 1906 3584 2284 3584 
Q 2666 3584 2933 3390 
Q 3200 3197 3328 2828 
z
" transform="scale(0.015625)"/>
      <path id="DejaVuSans-41" d="M 2188 4044 
L 1331 1722 
L 3047 1722 
L 2188 4044 
z
M 1831 4666 
L 2547 4666 
L 4325 0 
L 3669 0 
L 3244 1197 
L 1141 1197 
L 716 0 
L 50 0 
L 1831 4666 
z
" transform="scale(0.015625)"/>
     </defs>
     <use xlink:href="#DejaVuSans-31"/>
     <use xlink:href="#DejaVuSans-30" x="63.623047"/>
     <use xlink:href="#DejaVuSans-30" x="127.246094"/>
     <use xlink:href="#DejaVuSans-20" x="190.869141"/>
     <use xlink:href="#DejaVuSans-6d" x="222.65625"/>
     <use xlink:href="#DejaVuSans-41" x="320.068359"/>
    </g>
   </g>
   <g id="text_4">
    <!-- 2.59pF -->
    <g transform="translate(209.546969 110.946875) scale(0.125 -0.125)">
     <defs>
      <path id="DejaVuSans-32" d="M 1228 531 
L 3431 531 
L 3431 0 
L 469 0 
L 469 531 
Q 828 903 1448 1529 
Q 2069 2156 2228 2338 
Q 2531 2678 2651 2914 
Q 2772 3150 2772 3378 
Q 2772 3750 2511 3984 
Q 2250 4219 1831 4219 
Q 1534 4219 1204 4116 
Q 875 4013 500 3803 
L 500 4441 
Q 881 4594 1212 4672 
Q 1544 4750 1819 4750 
Q 2544 4750 2975 4387 
Q 3406 4025 3406 3419 
Q 3406 3131 3298 2873 
Q 3191 2616 2906 2266 
Q 2828 2175 2409 1742 
Q 1991 1309 1228 531 
z
" transform="scale(0.015625)"/>
      <path id="DejaVuSans-2e" d="M 684 794 
L 1344 794 
L 1344 0 
L 684 0 
L 684 794 
z
" transform="scale(0.015625)"/>
      <path id="DejaVuSans-39" d="M 703 97 
L 703 672 
Q 941 559 1184 500 
Q 1428 441 1663 441 
Q 2288 441 2617 861 
Q 2947 1281 2994 2138 
Q 2813 1869 2534 1725 
Q 2256 1581 1919 1581 
Q 1219 1581 811 2004 
Q 403 2428 403 3163 
Q 403 3881 828 4315 
Q 1253 4750 1959 4750 
Q 2769 4750 3195 4129 
Q 3622 3509 3622 2328 
Q 3622 1225 3098 567 
Q 2575 -91 1691 -91 
Q 1453 -91 1209 -44 
Q 966 3 703 97 
z
M 1959 2075 
Q 2384 2075 2632 2365 
Q 2881 2656 2881 3163 
Q 2881 3666 2632 3958 
Q 2384 4250 1959 4250 
Q 1534 4250 1286 3958 
Q 1038 3666 1038 3163 
Q 1038 2656 1286 2365 
Q 1534 2075 1959 2075 
z
" transform="scale(0.015625)"/>
      <path id="DejaVuSans-70" d="M 1159 525 
L 1159 -1331 
L 581 -1331 
L 581 3500 
L 1159 3500 
L 1159 2969 
Q 1341 3281 1617 3432 
Q 1894 3584 2278 3584 
Q 2916 3584 3314 3078 
Q 3713 2572 3713 1747 
Q 3713 922 3314 415 
Q 2916 -91 2278 -91 
Q 1894 -91 1617 61 
Q 1341 213 1159 525 
z
M 3116 1747 
Q 3116 2381 2855 2742 
Q 2594 3103 2138 3103 
Q 1681 3103 1420 2742 
Q 1159 2381 1159 1747 
Q 1159 1113 1420 752 
Q 1681 391 2138 391 
Q 2594 391 2855 752 
Q 3116 1113 3116 1747 
z
" transform="scale(0.015625)"/>
      <path id="DejaVuSans-46" d="M 628 4666 
L 3309 4666 
L 3309 4134 
L 1259 4134 
L 1259 2759 
L 3109 2759 
L 3109 2228 
L 1259 2228 
L 1259 0 
L 628 0 
L 628 4666 
z
" transform="scale(0.015625)"/>
     </defs>
     <use xlink:href="#DejaVuSans-32"/>
     <use xlink:href="#DejaVuSans-2e" x="63.623047"/>
     <use xlink:href="#DejaVuSans-35" x="95.410156"/>
     <use xlink:href="#DejaVuSans-39" x="159.033203"/>
     <use xlink:href="#DejaVuSans-70" x="222.65625"/>
     <use xlink:href="#DejaVuSans-46" x="286.132812"/>
    </g>
   </g>
   <g id="text_5">
    <!-- 4.24 cm, $50\Omega$ -->
    <g transform="translate(381.6915 86.395703) scale(0.125 -0.125)">
     <defs>
      <path id="DejaVuSans-34" d="M 2419 4116 
L 825 1625 
L 2419 1625 
L 2419 4116 
z
M 2253 4666 
L 3047 4666 
L 3047 1625 
L 3713 1625 
L 3713 1100 
L 3047 1100 
L 3047 0 
L 2419 0 
L 2419 1100 
L 313 1100 
L 313 1709 
L 2253 4666 
z
" transform="scale(0.015625)"/>
      <path id="DejaVuSans-63" d="M 3122 3366 
L 3122 2828 
Q 2878 2963 2633 3030 
Q 2388 3097 2138 3097 
Q 1578 3097 1268 2742 
Q 959 2388 959 1747 
Q 959 1106 1268 751 
Q 1578 397 2138 397 
Q 2388 397 2633 464 
Q 2878 531 3122 666 
L 3122 134 
Q 2881 22 2623 -34 
Q 2366 -91 2075 -91 
Q 1284 -91 818 406 
Q 353 903 353 1747 
Q 353 2603 823 3093 
Q 1294 3584 2113 3584 
Q 2378 3584 2631 3529 
Q 2884 3475 3122 3366 
z
" transform="scale(0.015625)"/>
      <path id="DejaVuSans-2c" d="M 750 794 
L 1409 794 
L 1409 256 
L 897 -744 
L 494 -744 
L 750 256 
L 750 794 
z
" transform="scale(0.015625)"/>
     </defs>
     <use xlink:href="#DejaVuSans-34" transform="translate(0 0.78125)"/>
     <use xlink:href="#DejaVuSans-2e" transform="translate(63.623047 0.78125)"/>
     <use xlink:href="#DejaVuSans-32" transform="translate(89.910156 0.78125)"/>
     <use xlink:href="#DejaVuSans-34" transform="translate(153.533203 0.78125)"/>
     <use xlink:href="#DejaVuSans-20" transform="translate(217.15625 0.78125)"/>
     <use xlink:href="#DejaVuSans-63" transform="translate(248.943359 0.78125)"/>
     <use xlink:href="#DejaVuSans-6d" transform="translate(303.923828 0.78125)"/>
     <use xlink:href="#DejaVuSans-2c" transform="translate(401.335938 0.78125)"/>
     <use xlink:href="#DejaVuSans-20" transform="translate(433.123047 0.78125)"/>
     <use xlink:href="#DejaVuSans-35" transform="translate(464.910156 0.78125)"/>
     <use xlink:href="#DejaVuSans-30" transform="translate(528.533203 0.78125)"/>
     <use xlink:href="#DejaVuSans-3a9" transform="translate(592.15625 0.78125)"/>
    </g>
   </g>
   <g id="text_6">
    <!-- 8V -->
    <g style="fill: #ff0000" transform="translate(415.252047 17.100781) scale(0.125 -0.125)">
     <defs>
      <path id="DejaVuSans-38" d="M 2034 2216 
Q 1584 2216 1326 1975 
Q 1069 1734 1069 1313 
Q 1069 891 1326 650 
Q 1584 409 2034 409 
Q 2484 409 2743 651 
Q 3003 894 3003 1313 
Q 3003 1734 2745 1975 
Q 2488 2216 2034 2216 
z
M 1403 2484 
Q 997 2584 770 2862 
Q 544 3141 544 3541 
Q 544 4100 942 4425 
Q 1341 4750 2034 4750 
Q 2731 4750 3128 4425 
Q 3525 4100 3525 3541 
Q 3525 3141 3298 2862 
Q 3072 2584 2669 2484 
Q 3125 2378 3379 2068 
Q 3634 1759 3634 1313 
Q 3634 634 3220 271 
Q 2806 -91 2034 -91 
Q 1263 -91 848 271 
Q 434 634 434 1313 
Q 434 1759 690 2068 
Q 947 2378 1403 2484 
z
M 1172 3481 
Q 1172 3119 1398 2916 
Q 1625 2713 2034 2713 
Q 2441 2713 2670 2916 
Q 2900 3119 2900 3481 
Q 2900 3844 2670 4047 
Q 2441 4250 2034 4250 
Q 1625 4250 1398 4047 
Q 1172 3844 1172 3481 
z
" transform="scale(0.015625)"/>
     </defs>
     <use xlink:href="#DejaVuSans-38"/>
     <use xlink:href="#DejaVuSans-56" x="63.623047"/>
    </g>
    <!-- 62.5 mA -->
    <g style="fill: #ff0000" transform="translate(397.238375 31.098047) scale(0.125 -0.125)">
     <defs>
      <path id="DejaVuSans-36" d="M 2113 2584 
Q 1688 2584 1439 2293 
Q 1191 2003 1191 1497 
Q 1191 994 1439 701 
Q 1688 409 2113 409 
Q 2538 409 2786 701 
Q 3034 994 3034 1497 
Q 3034 2003 2786 2293 
Q 2538 2584 2113 2584 
z
M 3366 4563 
L 3366 3988 
Q 3128 4100 2886 4159 
Q 2644 4219 2406 4219 
Q 1781 4219 1451 3797 
Q 1122 3375 1075 2522 
Q 1259 2794 1537 2939 
Q 1816 3084 2150 3084 
Q 2853 3084 3261 2657 
Q 3669 2231 3669 1497 
Q 3669 778 3244 343 
Q 2819 -91 2113 -91 
Q 1303 -91 875 529 
Q 447 1150 447 2328 
Q 447 3434 972 4092 
Q 1497 4750 2381 4750 
Q 2619 4750 2861 4703 
Q 3103 4656 3366 4563 
z
" transform="scale(0.015625)"/>
     </defs>
     <use xlink:href="#DejaVuSans-36"/>
     <use xlink:href="#DejaVuSans-32" x="63.623047"/>
     <use xlink:href="#DejaVuSans-2e" x="127.246094"/>
     <use xlink:href="#DejaVuSans-35" x="159.033203"/>
     <use xlink:href="#DejaVuSans-20" x="222.65625"/>
     <use xlink:href="#DejaVuSans-6d" x="254.443359"/>
     <use xlink:href="#DejaVuSans-41" x="351.855469"/>
    </g>
   </g>
   <g id="text_7">
    <!-- $128\Omega$ -->
    <g transform="translate(550.754 13.098047) scale(0.125 -0.125)">
     <use xlink:href="#DejaVuSans-31" transform="translate(0 0.78125)"/>
     <use xlink:href="#DejaVuSans-32" transform="translate(63.623047 0.78125)"/>
     <use xlink:href="#DejaVuSans-38" transform="translate(127.246094 0.78125)"/>
     <use xlink:href="#DejaVuSans-3a9" transform="translate(190.869141 0.78125)"/>
    </g>
   </g>
   <g id="patch_9">
    <path d="M 49.104 122.797656 
C 49.820048 122.797656 50.506866 122.513167 51.013188 122.006845 
C 51.519511 121.500522 51.804 120.813705 51.804 120.097656 
C 51.804 119.381608 51.519511 118.694791 51.013188 118.188468 
C 50.506866 117.682145 49.820048 117.397656 49.104 117.397656 
C 48.387952 117.397656 47.701134 117.682145 47.194812 118.188468 
C 46.688489 118.694791 46.404 119.381608 46.404 120.097656 
C 46.404 120.813705 46.688489 121.500522 47.194812 122.006845 
C 47.701134 122.513167 48.387952 122.797656 49.104 122.797656 
z
" clip-path="url(#pa5bab5a9f8)" style="stroke: #000000; stroke-width: 2; stroke-linejoin: miter"/>
   </g>
   <g id="patch_10">
    <path d="M 265.104 65.197656 
C 265.820048 65.197656 266.506866 64.913167 267.013188 64.406845 
C 267.519511 63.900522 267.804 63.213705 267.804 62.497656 
C 267.804 61.781608 267.519511 61.094791 267.013188 60.588468 
C 266.506866 60.082145 265.820048 59.797656 265.104 59.797656 
C 264.387952 59.797656 263.701134 60.082145 263.194812 60.588468 
C 262.688489 61.094791 262.404 61.781608 262.404 62.497656 
C 262.404 63.213705 262.688489 63.900522 263.194812 64.406845 
C 263.701134 64.913167 264.387952 65.197656 265.104 65.197656 
z
" clip-path="url(#pa5bab5a9f8)" style="stroke: #000000; stroke-width: 2; stroke-linejoin: miter"/>
   </g>
   <g id="patch_11">
    <path d="M 279.504 65.197656 
C 280.220048 65.197656 280.906866 64.913167 281.413188 64.406845 
C 281.919511 63.900522 282.204 63.213705 282.204 62.497656 
C 282.204 61.781608 281.919511 61.094791 281.413188 60.588468 
C 280.906866 60.082145 280.220048 59.797656 279.504 59.797656 
C 278.787952 59.797656 278.101134 60.082145 277.594812 60.588468 
C 277.088489 61.094791 276.804 61.781608 276.804 62.497656 
C 276.804 63.213705 277.088489 63.900522 277.594812 64.406845 
C 278.101134 64.913167 278.787952 65.197656 279.504 65.197656 
z
" clip-path="url(#pa5bab5a9f8)" style="fill: #008000; stroke: #008000; stroke-width: 2; stroke-linejoin: miter"/>
   </g>
   <g id="patch_12">
    <path d="M 567.504 65.197656 
C 568.220048 65.197656 568.906866 64.913167 569.413188 64.406845 
C 569.919511 63.900522 570.204 63.213705 570.204 62.497656 
C 570.204 61.781608 569.919511 61.094791 569.413188 60.588468 
C 568.906866 60.082145 568.220048 59.797656 567.504 59.797656 
C 566.787952 59.797656 566.101134 60.082145 565.594812 60.588468 
C 565.088489 61.094791 564.804 61.781608 564.804 62.497656 
C 564.804 63.213705 565.088489 63.900522 565.594812 64.406845 
C 566.101134 64.913167 566.787952 65.197656 567.504 65.197656 
z
" clip-path="url(#pa5bab5a9f8)" style="fill: #ff0000; stroke: #ff0000; stroke-width: 2; stroke-linejoin: miter"/>
   </g>
  </g>
 </g>
 <defs>
  <clipPath id="pa5bab5a9f8">
   <rect x="3.6" y="7.705656" width="605.088" height="175.824"/>
  </clipPath>
 </defs>
</svg>