<?xml version="1.0" encoding="utf-8" standalone="no"?>
<!DOCTYPE svg PUBLIC "-//W3C//DTD SVG 1.1//EN"
  "http://www.w3.org/Graphics/SVG/1.1/DTD/svg11.dtd">
<svg xmlns:xlink="http://www.w3.org/1999/xlink" width="309.028943pt" height="220.984pt" viewBox="0 0 309.028943 220.984" xmlns="http://www.w3.org/2000/svg" version="1.1">
 <metadata>
  <rdf:RDF xmlns:dc="http://purl.org/dc/elements/1.1/" xmlns:cc="http://creativecommons.org/ns#" xmlns:rdf="http://www.w3.org/1999/02/22-rdf-syntax-ns#">
   <cc:Work>
    <dc:type rdf:resource="http://purl.org/dc/dcmitype/StillImage"/>
    <dc:date>2022-11-04T22:15:59.167108</dc:date>
    <dc:format>image/svg+xml</dc:format>
    <dc:creator>
     <cc:Agent>
      <dc:title>Matplotlib v3.5.3, https://matplotlib.org/</dc:title>
     </cc:Agent>
    </dc:creator>
   </cc:Work>
  </rdf:RDF>
 </metadata>
 <defs>
  <style type="text/css">*{stroke-linejoin: round; stroke-linecap: butt}</style>
 </defs>
 <g id="figure_1">
  <g id="patch_1">
   <path d="M 0 220.984 
L 309.028943 220.984 
L 309.028943 0 
L 0 0 
z
" style="fill: #ffffff"/>
  </g>
  <g id="axes_1">
   <g id="line2d_1">
    <path d="M 164.1984 153.655 
L 164.1984 115.405 
L 230.449343 153.655 
L 164.1984 191.905 
L 164.1984 153.655 
M 230.449343 153.655 
" clip-path="url(#p152b1caacf)" style="fill: none; stroke: #000000; stroke-width: 2; stroke-linecap: round"/>
   </g>
   <g id="line2d_2">
    <path d="M 169.419768 134.53 
L 175.539768 134.53 
" clip-path="url(#p152b1caacf)" style="fill: none; stroke: #000000; stroke-width: 2; stroke-linecap: round"/>
   </g>
   <g id="line2d_3">
    <path d="M 169.419768 172.78 
L 175.539768 172.78 
" clip-path="url(#p152b1caacf)" style="fill: none; stroke: #000000; stroke-width: 2; stroke-linecap: round"/>
   </g>
   <g id="line2d_4">
    <path d="M 172.479768 175.84 
L 172.479768 169.72 
" clip-path="url(#p152b1caacf)" style="fill: none; stroke: #000000; stroke-width: 2; stroke-linecap: round"/>
   </g>
   <g id="line2d_5">
    <path d="M 164.1984 172.78 
L 152.7234 172.78 
L 141.2484 172.78 
" clip-path="url(#p152b1caacf)" style="fill: none; stroke: #000000; stroke-width: 2; stroke-linecap: round"/>
   </g>
   <g id="line2d_6">
    <path d="M 141.2484 172.78 
L 141.2484 181.96 
L 141.2484 191.14 
" clip-path="url(#p152b1caacf)" style="fill: none; stroke: #000000; stroke-width: 2; stroke-linecap: round"/>
   </g>
   <g id="line2d_7">
    <path d="M 141.2484 191.14 
L 141.2484 203.38 
L 133.5984 203.38 
L 148.8984 203.38 
M 135.8934 207.052 
L 146.6034 207.052 
M 139.7184 210.724 
L 142.7784 210.724 
" clip-path="url(#p152b1caacf)" style="fill: none; stroke: #000000; stroke-width: 2; stroke-linecap: round"/>
   </g>
   <g id="line2d_8">
    <path d="M 164.1984 134.53 
L 156.5484 134.53 
L 148.8984 134.53 
" clip-path="url(#p152b1caacf)" style="fill: none; stroke: #000000; stroke-width: 2; stroke-linecap: round"/>
   </g>
   <g id="line2d_9">
    <path d="M 148.8984 134.53 
L 118.2984 134.53 
L 115.7484 142.18 
L 110.6484 126.88 
L 105.5484 142.18 
L 100.4484 126.88 
L 95.3484 142.18 
L 90.2484 126.88 
L 87.6984 134.53 
L 57.0984 134.53 
" clip-path="url(#p152b1caacf)" style="fill: none; stroke: #000000; stroke-width: 2; stroke-linecap: round"/>
   </g>
   <g id="line2d_10">
    <path d="M 57.0984 134.53 
L 49.4484 134.53 
L 41.7984 134.53 
" clip-path="url(#p152b1caacf)" style="fill: none; stroke: #000000; stroke-width: 2; stroke-linecap: round"/>
   </g>
   <g id="line2d_11">
    <path d="M 148.8984 134.53 
L 148.8984 111.58 
L 148.8984 88.63 
" clip-path="url(#p152b1caacf)" style="fill: none; stroke: #000000; stroke-width: 2; stroke-linecap: round"/>
   </g>
   <g id="line2d_12">
    <path d="M 148.8984 88.63 
L 179.4984 88.63 
L 182.0484 80.98 
L 187.1484 96.28 
L 192.2484 80.98 
L 197.3484 96.28 
L 202.4484 80.98 
L 207.5484 96.28 
L 210.0984 88.63 
L 240.6984 88.63 
" clip-path="url(#p152b1caacf)" style="fill: none; stroke: #000000; stroke-width: 2; stroke-linecap: round"/>
   </g>
   <g id="line2d_13">
    <path d="M 148.8984 88.63 
L 148.8984 65.68 
L 148.8984 42.73 
" clip-path="url(#p152b1caacf)" style="fill: none; stroke: #000000; stroke-width: 2; stroke-linecap: round"/>
   </g>
   <g id="line2d_14">
    <path d="M 148.8984 42.73 
L 192.0444 42.73 
M 192.0444 35.08 
L 192.0444 50.38 
M 197.5524 35.08 
L 197.5524 50.38 
M 197.5524 42.73 
L 240.6984 42.73 
" clip-path="url(#p152b1caacf)" style="fill: none; stroke: #000000; stroke-width: 2; stroke-linecap: round"/>
   </g>
   <g id="line2d_15">
    <path d="M 240.6984 42.73 
L 240.6984 98.1925 
L 240.6984 153.655 
" clip-path="url(#p152b1caacf)" style="fill: none; stroke: #000000; stroke-width: 2; stroke-linecap: round"/>
   </g>
   <g id="line2d_16">
    <path d="M 240.6984 153.655 
L 235.573872 153.655 
L 230.449343 153.655 
" clip-path="url(#p152b1caacf)" style="fill: none; stroke: #000000; stroke-width: 2; stroke-linecap: round"/>
   </g>
   <g id="line2d_17">
    <path d="M 230.449343 153.655 
L 241.924343 153.655 
L 253.399343 153.655 
" clip-path="url(#p152b1caacf)" style="fill: none; stroke: #000000; stroke-width: 2; stroke-linecap: round"/>
   </g>
   <g id="text_1">
    <g clip-path="url(#p152b1caacf)">
     <!-- $R_1$ -->
     <g transform="translate(95.6859 154.738047)scale(0.125 -0.125)">
      <defs>
       <path id="DejaVuSans-Oblique-52" d="M 1613 4147 
L 1294 2491 
L 2106 2491 
Q 2584 2491 2879 2755 
Q 3175 3019 3175 3444 
Q 3175 3784 2976 3965 
Q 2778 4147 2406 4147 
L 1613 4147 
z
M 2772 2241 
Q 2972 2194 3105 2009 
Q 3238 1825 3413 1275 
L 3809 0 
L 3144 0 
L 2778 1197 
Q 2638 1659 2453 1815 
Q 2269 1972 1888 1972 
L 1191 1972 
L 806 0 
L 172 0 
L 1081 4666 
L 2503 4666 
Q 3150 4666 3495 4373 
Q 3841 4081 3841 3531 
Q 3841 3044 3547 2687 
Q 3253 2331 2772 2241 
z
" transform="scale(0.015625)"/>
       <path id="DejaVuSans-31" d="M 794 531 
L 1825 531 
L 1825 4091 
L 703 3866 
L 703 4441 
L 1819 4666 
L 2450 4666 
L 2450 531 
L 3481 531 
L 3481 0 
L 794 0 
L 794 531 
z
" transform="scale(0.015625)"/>
      </defs>
      <use xlink:href="#DejaVuSans-Oblique-52" transform="translate(0 0.09375)"/>
      <use xlink:href="#DejaVuSans-31" transform="translate(69.482422 -16.3125)scale(0.7)"/>
     </g>
    </g>
   </g>
   <g id="text_2">
    <g clip-path="url(#p152b1caacf)">
     <!-- $R_2$ -->
     <g transform="translate(187.4859 75.320391)scale(0.125 -0.125)">
      <defs>
       <path id="DejaVuSans-32" d="M 1228 531 
L 3431 531 
L 3431 0 
L 469 0 
L 469 531 
Q 828 903 1448 1529 
Q 2069 2156 2228 2338 
Q 2531 2678 2651 2914 
Q 2772 3150 2772 3378 
Q 2772 3750 2511 3984 
Q 2250 4219 1831 4219 
Q 1534 4219 1204 4116 
Q 875 4013 500 3803 
L 500 4441 
Q 881 4594 1212 4672 
Q 1544 4750 1819 4750 
Q 2544 4750 2975 4387 
Q 3406 4025 3406 3419 
Q 3406 3131 3298 2873 
Q 3191 2616 2906 2266 
Q 2828 2175 2409 1742 
Q 1991 1309 1228 531 
z
" transform="scale(0.015625)"/>
      </defs>
      <use xlink:href="#DejaVuSans-Oblique-52" transform="translate(0 0.09375)"/>
      <use xlink:href="#DejaVuSans-32" transform="translate(69.482422 -16.3125)scale(0.7)"/>
     </g>
    </g>
   </g>
   <g id="text_3">
    <g clip-path="url(#p152b1caacf)">
     <!-- $C_2$ -->
     <g transform="translate(187.4234 29.420391)scale(0.125 -0.125)">
      <defs>
       <path id="DejaVuSans-Oblique-43" d="M 4447 4306 
L 4319 3641 
Q 4019 3944 3683 4091 
Q 3347 4238 2956 4238 
Q 2422 4238 2017 3981 
Q 1613 3725 1319 3200 
Q 1131 2863 1032 2486 
Q 934 2109 934 1728 
Q 934 1091 1264 756 
Q 1594 422 2222 422 
Q 2656 422 3056 561 
Q 3456 700 3834 978 
L 3688 231 
Q 3316 72 2936 -9 
Q 2556 -91 2175 -91 
Q 1278 -91 773 396 
Q 269 884 269 1753 
Q 269 2309 461 2846 
Q 653 3384 1013 3828 
Q 1394 4300 1883 4525 
Q 2372 4750 3022 4750 
Q 3422 4750 3780 4639 
Q 4138 4528 4447 4306 
z
" transform="scale(0.015625)"/>
      </defs>
      <use xlink:href="#DejaVuSans-Oblique-43" transform="translate(0 0.78125)"/>
      <use xlink:href="#DejaVuSans-32" transform="translate(69.824219 -15.625)scale(0.7)"/>
     </g>
    </g>
   </g>
   <g id="patch_2">
    <path d="M 148.8984 136.825 
C 149.507041 136.825 150.090836 136.583184 150.52121 136.15281 
C 150.951584 135.722436 151.1934 135.138641 151.1934 134.53 
C 151.1934 133.921359 150.951584 133.337564 150.52121 132.90719 
C 150.090836 132.476816 149.507041 132.235 148.8984 132.235 
C 148.289759 132.235 147.705964 132.476816 147.27559 132.90719 
C 146.845216 133.337564 146.6034 133.921359 146.6034 134.53 
C 146.6034 135.138641 146.845216 135.722436 147.27559 136.15281 
C 147.705964 136.583184 148.289759 136.825 148.8984 136.825 
z
" clip-path="url(#p152b1caacf)" style="stroke: #000000; stroke-width: 2; stroke-linejoin: miter"/>
   </g>
   <g id="patch_3">
    <path d="M 41.7984 136.825 
C 42.407041 136.825 42.990836 136.583184 43.42121 136.15281 
C 43.851584 135.722436 44.0934 135.138641 44.0934 134.53 
C 44.0934 133.921359 43.851584 133.337564 43.42121 132.90719 
C 42.990836 132.476816 42.407041 132.235 41.7984 132.235 
C 41.189759 132.235 40.605964 132.476816 40.17559 132.90719 
C 39.745216 133.337564 39.5034 133.921359 39.5034 134.53 
C 39.5034 135.138641 39.745216 135.722436 40.17559 136.15281 
C 40.605964 136.583184 41.189759 136.825 41.7984 136.825 
z
" clip-path="url(#p152b1caacf)" style="fill: #ffffff; stroke: #000000; stroke-width: 2; stroke-linejoin: miter"/>
   </g>
   <g id="text_4">
    <g clip-path="url(#p152b1caacf)">
     <!-- $V_{in}$ -->
     <g transform="translate(19.5684 137.979219)scale(0.125 -0.125)">
      <defs>
       <path id="DejaVuSans-Oblique-56" d="M 1319 0 
L 500 4666 
L 1119 4666 
L 1797 653 
L 4063 4666 
L 4750 4666 
L 2053 0 
L 1319 0 
z
" transform="scale(0.015625)"/>
       <path id="DejaVuSans-Oblique-69" d="M 1172 4863 
L 1747 4863 
L 1606 4134 
L 1031 4134 
L 1172 4863 
z
M 909 3500 
L 1484 3500 
L 800 0 
L 225 0 
L 909 3500 
z
" transform="scale(0.015625)"/>
       <path id="DejaVuSans-Oblique-6e" d="M 3566 2113 
L 3156 0 
L 2578 0 
L 2988 2091 
Q 3016 2238 3031 2350 
Q 3047 2463 3047 2528 
Q 3047 2791 2881 2937 
Q 2716 3084 2419 3084 
Q 1956 3084 1622 2776 
Q 1288 2469 1184 1941 
L 800 0 
L 225 0 
L 903 3500 
L 1478 3500 
L 1363 2950 
Q 1603 3253 1940 3418 
Q 2278 3584 2650 3584 
Q 3113 3584 3367 3334 
Q 3622 3084 3622 2631 
Q 3622 2519 3608 2391 
Q 3594 2263 3566 2113 
z
" transform="scale(0.015625)"/>
      </defs>
      <use xlink:href="#DejaVuSans-Oblique-56" transform="translate(0 0.09375)"/>
      <use xlink:href="#DejaVuSans-Oblique-69" transform="translate(68.408203 -16.3125)scale(0.7)"/>
      <use xlink:href="#DejaVuSans-Oblique-6e" transform="translate(87.856445 -16.3125)scale(0.7)"/>
     </g>
    </g>
   </g>
   <g id="patch_4">
    <path d="M 148.8984 90.925 
C 149.507041 90.925 150.090836 90.683184 150.52121 90.25281 
C 150.951584 89.822436 151.1934 89.238641 151.1934 88.63 
C 151.1934 88.021359 150.951584 87.437564 150.52121 87.00719 
C 150.090836 86.576816 149.507041 86.335 148.8984 86.335 
C 148.289759 86.335 147.705964 86.576816 147.27559 87.00719 
C 146.845216 87.437564 146.6034 88.021359 146.6034 88.63 
C 146.6034 89.238641 146.845216 89.822436 147.27559 90.25281 
C 147.705964 90.683184 148.289759 90.925 148.8984 90.925 
z
" clip-path="url(#p152b1caacf)" style="stroke: #000000; stroke-width: 2; stroke-linejoin: miter"/>
   </g>
   <g id="patch_5">
    <path d="M 240.6984 90.925 
C 241.307041 90.925 241.890836 90.683184 242.32121 90.25281 
C 242.751584 89.822436 242.9934 89.238641 242.9934 88.63 
C 242.9934 88.021359 242.751584 87.437564 242.32121 87.00719 
C 241.890836 86.576816 241.307041 86.335 240.6984 86.335 
C 240.089759 86.335 239.505964 86.576816 239.07559 87.00719 
C 238.645216 87.437564 238.4034 88.021359 238.4034 88.63 
C 238.4034 89.238641 238.645216 89.822436 239.07559 90.25281 
C 239.505964 90.683184 240.089759 90.925 240.6984 90.925 
z
" clip-path="url(#p152b1caacf)" style="stroke: #000000; stroke-width: 2; stroke-linejoin: miter"/>
   </g>
   <g id="patch_6">
    <path d="M 240.6984 155.95 
C 241.307041 155.95 241.890836 155.708184 242.32121 155.27781 
C 242.751584 154.847436 242.9934 154.263641 242.9934 153.655 
C 242.9934 153.046359 242.751584 152.462564 242.32121 152.03219 
C 241.890836 151.601816 241.307041 151.36 240.6984 151.36 
C 240.089759 151.36 239.505964 151.601816 239.07559 152.03219 
C 238.645216 152.462564 238.4034 153.046359 238.4034 153.655 
C 238.4034 154.263641 238.645216 154.847436 239.07559 155.27781 
C 239.505964 155.708184 240.089759 155.95 240.6984 155.95 
z
" clip-path="url(#p152b1caacf)" style="stroke: #000000; stroke-width: 2; stroke-linejoin: miter"/>
   </g>
   <g id="patch_7">
    <path d="M 253.399343 155.95 
C 254.007985 155.95 254.591779 155.708184 255.022153 155.27781 
C 255.452528 154.847436 255.694343 154.263641 255.694343 153.655 
C 255.694343 153.046359 255.452528 152.462564 255.022153 152.03219 
C 254.591779 151.601816 254.007985 151.36 253.399343 151.36 
C 252.790702 151.36 252.206908 151.601816 251.776533 152.03219 
C 251.346159 152.462564 251.104343 153.046359 251.104343 153.655 
C 251.104343 154.263641 251.346159 154.847436 251.776533 155.27781 
C 252.206908 155.708184 252.790702 155.95 253.399343 155.95 
z
" clip-path="url(#p152b1caacf)" style="fill: #ffffff; stroke: #000000; stroke-width: 2; stroke-linejoin: miter"/>
   </g>
   <g id="text_5">
    <g clip-path="url(#p152b1caacf)">
     <!-- $V_{out}$ -->
     <g transform="translate(258.754343 157.104219)scale(0.125 -0.125)">
      <defs>
       <path id="DejaVuSans-Oblique-6f" d="M 1625 -91 
Q 1009 -91 651 289 
Q 294 669 294 1325 
Q 294 1706 417 2101 
Q 541 2497 738 2766 
Q 1047 3184 1428 3384 
Q 1809 3584 2291 3584 
Q 2888 3584 3255 3212 
Q 3622 2841 3622 2241 
Q 3622 1825 3500 1412 
Q 3378 1000 3181 728 
Q 2875 309 2494 109 
Q 2113 -91 1625 -91 
z
M 891 1344 
Q 891 869 1089 633 
Q 1288 397 1691 397 
Q 2269 397 2648 901 
Q 3028 1406 3028 2181 
Q 3028 2634 2825 2865 
Q 2622 3097 2228 3097 
Q 1903 3097 1650 2945 
Q 1397 2794 1197 2484 
Q 1050 2253 970 1956 
Q 891 1659 891 1344 
z
" transform="scale(0.015625)"/>
       <path id="DejaVuSans-Oblique-75" d="M 428 1388 
L 838 3500 
L 1416 3500 
L 1006 1409 
Q 975 1256 961 1147 
Q 947 1038 947 966 
Q 947 700 1109 554 
Q 1272 409 1569 409 
Q 2031 409 2368 721 
Q 2706 1034 2809 1563 
L 3194 3500 
L 3769 3500 
L 3091 0 
L 2516 0 
L 2631 550 
Q 2388 244 2052 76 
Q 1716 -91 1338 -91 
Q 878 -91 622 161 
Q 366 413 366 863 
Q 366 956 381 1097 
Q 397 1238 428 1388 
z
" transform="scale(0.015625)"/>
       <path id="DejaVuSans-Oblique-74" d="M 2706 3500 
L 2619 3053 
L 1472 3053 
L 1100 1153 
Q 1081 1047 1072 975 
Q 1063 903 1063 863 
Q 1063 663 1183 572 
Q 1303 481 1569 481 
L 2150 481 
L 2053 0 
L 1503 0 
Q 991 0 739 200 
Q 488 400 488 806 
Q 488 878 497 964 
Q 506 1050 525 1153 
L 897 3053 
L 409 3053 
L 500 3500 
L 978 3500 
L 1172 4494 
L 1747 4494 
L 1556 3500 
L 2706 3500 
z
" transform="scale(0.015625)"/>
      </defs>
      <use xlink:href="#DejaVuSans-Oblique-56" transform="translate(0 0.09375)"/>
      <use xlink:href="#DejaVuSans-Oblique-6f" transform="translate(68.408203 -16.3125)scale(0.7)"/>
      <use xlink:href="#DejaVuSans-Oblique-75" transform="translate(111.235352 -16.3125)scale(0.7)"/>
      <use xlink:href="#DejaVuSans-Oblique-74" transform="translate(155.600586 -16.3125)scale(0.7)"/>
     </g>
    </g>
   </g>
  </g>
 </g>
 <defs>
  <clipPath id="p152b1caacf">
   <rect x="7.2" y="7.2" width="294.628943" height="206.584"/>
  </clipPath>
 </defs>
</svg>