<?xml version="1.0" encoding="utf-8" standalone="no"?>
<!DOCTYPE svg PUBLIC "-//W3C//DTD SVG 1.1//EN"
  "http://www.w3.org/Graphics/SVG/1.1/DTD/svg11.dtd">
<svg xmlns:xlink="http://www.w3.org/1999/xlink" width="278.532pt" height="449.48pt" viewBox="0 0 278.532 449.48" xmlns="http://www.w3.org/2000/svg" version="1.1">
 <metadata>
  <rdf:RDF xmlns:dc="http://purl.org/dc/elements/1.1/" xmlns:cc="http://creativecommons.org/ns#" xmlns:rdf="http://www.w3.org/1999/02/22-rdf-syntax-ns#">
   <cc:Work>
    <dc:type rdf:resource="http://purl.org/dc/dcmitype/StillImage"/>
    <dc:date>2025-09-29T23:19:15.061707</dc:date>
    <dc:format>image/svg+xml</dc:format>
    <dc:creator>
     <cc:Agent>
      <dc:title>Matplotlib v3.10.1, https://matplotlib.org/</dc:title>
     </cc:Agent>
    </dc:creator>
   </cc:Work>
  </rdf:RDF>
 </metadata>
 <defs>
  <style type="text/css">*{stroke-linejoin: round; stroke-linecap: butt}</style>
 </defs>
 <g id="figure_1">
  <g id="patch_1">
   <path d="M 0 449.48 
L 278.532 449.48 
L 278.532 0 
L 0 0 
z
" style="fill: #ffffff"/>
  </g>
  <g id="axes_1">
   <g id="patch_2">
    <path d="M 39.084 376.76 
C 41.470828 376.76 43.760219 375.811703 45.447961 374.123961 
C 47.135703 372.436219 48.084 370.146828 48.084 367.76 
C 48.084 365.373172 47.135703 363.083781 45.447961 361.396039 
C 43.760219 359.708297 41.470828 358.76 39.084 358.76 
C 36.697172 358.76 34.407781 359.708297 32.720039 361.396039 
C 31.032297 363.083781 30.084 365.373172 30.084 367.76 
C 30.084 370.146828 31.032297 372.436219 32.720039 374.123961 
C 34.407781 375.811703 36.697172 376.76 39.084 376.76 
L 39.084 376.76 
z
" clip-path="url(#pa837faedfc)" style="fill: none; stroke: #000000; stroke-width: 2; stroke-linejoin: miter"/>
   </g>
   <g id="line2d_1">
    <path d="M 147.084 313.76 
L 160.284 313.76 
" clip-path="url(#pa837faedfc)" style="fill: none; stroke: #000000; stroke-width: 2; stroke-linecap: round"/>
   </g>
   <g id="line2d_2">
    <path d="M 160.284 300.56 
L 160.284 326.96 
" clip-path="url(#pa837faedfc)" style="fill: none; stroke: #000000; stroke-width: 2; stroke-linecap: round"/>
   </g>
   <g id="line2d_3">
    <path d="M 160.284 307.16 
L 174.144 295.28 
L 174.144 288.68 
" clip-path="url(#pa837faedfc)" style="fill: none; stroke: #000000; stroke-width: 2; stroke-linecap: round"/>
   </g>
   <g id="line2d_4">
    <path d="M 160.284 320.36 
L 174.144 332.24 
L 174.144 338.84 
" clip-path="url(#pa837faedfc)" style="fill: none; stroke: #000000; stroke-width: 2; stroke-linecap: round"/>
   </g>
   <g id="line2d_5">
    <path d="M 160.284 320.36 
L 167.310691 326.382878 
" clip-path="url(#pa837faedfc)" style="fill: none; stroke: #000000; stroke-width: 2; stroke-linecap: round"/>
   </g>
   <g id="patch_3">
    <path d="M 169.65354 323.649554 
L 174.144 332.24 
L 164.967842 329.116201 
z
" clip-path="url(#pa837faedfc)"/>
   </g>
   <g id="line2d_6">
    <path d="M 147.084 313.76 
L 111.084 313.76 
L 108.084 322.76 
L 102.084 304.76 
L 96.084 322.76 
L 90.084 304.76 
L 84.084 322.76 
L 78.084 304.76 
L 75.084 313.76 
L 39.084 313.76 
" clip-path="url(#pa837faedfc)" style="fill: none; stroke: #000000; stroke-width: 2; stroke-linecap: round"/>
   </g>
   <g id="line2d_7">
    <path d="M 39.084 313.76 
L 39.084 358.76 
L 39.084 358.76 
M 39.084 376.76 
L 39.084 376.76 
L 39.084 421.76 
" clip-path="url(#pa837faedfc)" style="fill: none; stroke: #000000; stroke-width: 2; stroke-linecap: round"/>
   </g>
   <g id="line2d_8">
    <path d="M 37.284 363.26 
L 40.884 363.26 
" clip-path="url(#pa837faedfc)" style="fill: none; stroke: #000000; stroke-width: 2; stroke-linecap: round"/>
   </g>
   <g id="line2d_9">
    <path d="M 39.084 370.46 
L 39.084 374.06 
" clip-path="url(#pa837faedfc)" style="fill: none; stroke: #000000; stroke-width: 2; stroke-linecap: round"/>
   </g>
   <g id="line2d_10">
    <path d="M 37.284 372.26 
L 40.884 372.26 
" clip-path="url(#pa837faedfc)" style="fill: none; stroke: #000000; stroke-width: 2; stroke-linecap: round"/>
   </g>
   <g id="line2d_11">
    <path d="M 39.084 421.76 
L 106.614 421.76 
L 174.144 421.76 
" clip-path="url(#pa837faedfc)" style="fill: none; stroke: #000000; stroke-width: 2; stroke-linecap: round"/>
   </g>
   <g id="line2d_12">
    <path d="M 174.144 421.76 
L 174.144 436.16 
L 165.144 436.16 
L 183.144 436.16 
M 167.844 440.48 
L 180.444 440.48 
M 172.344 444.8 
L 175.944 444.8 
" clip-path="url(#pa837faedfc)" style="fill: none; stroke: #000000; stroke-width: 2; stroke-linecap: round"/>
   </g>
   <g id="line2d_13">
    <path d="M 174.144 421.76 
L 174.144 380.3 
L 174.144 338.84 
" clip-path="url(#pa837faedfc)" style="fill: none; stroke: #000000; stroke-width: 2; stroke-linecap: round"/>
   </g>
   <g id="line2d_14">
    <path d="M 174.144 288.68 
L 174.144 275.18 
L 174.144 261.68 
" clip-path="url(#pa837faedfc)" style="fill: none; stroke: #000000; stroke-width: 2; stroke-linecap: round"/>
   </g>
   <g id="line2d_15">
    <path d="M 174.144 261.68 
L 174.144 210.92 
M 165.144 210.92 
L 183.144 210.92 
M 165.144 204.44 
L 183.144 204.44 
M 174.144 204.44 
L 174.144 153.68 
" clip-path="url(#pa837faedfc)" style="fill: none; stroke: #000000; stroke-width: 2; stroke-linecap: round"/>
   </g>
   <g id="line2d_16">
    <path d="M 174.144 261.68 
L 151.644 261.68 
L 129.144 261.68 
" clip-path="url(#pa837faedfc)" style="fill: none; stroke: #000000; stroke-width: 2; stroke-linecap: round"/>
   </g>
   <g id="line2d_17">
    <path d="M 129.144 261.68 
L 129.144 225.68 
L 126.179813 225.54593 
L 123.188893 225.13824 
L 120.422083 224.465999 
L 118.111432 223.560462 
L 117.189692 223.035433 
L 116.450729 222.472453 
L 115.910119 221.880233 
L 115.579256 221.268098 
L 115.465116 220.645793 
L 115.570102 220.02328 
L 115.892004 219.410522 
L 116.424035 218.817277 
L 117.154982 218.252894 
L 118.069436 217.726112 
L 120.368309 216.816175 
L 123.12785 216.138658 
L 126.11662 215.72526 
L 129.083957 215.585528 
L 131.780994 215.706058 
L 133.981535 216.051618 
L 135.501024 216.568102 
L 135.962989 216.869463 
L 136.212023 217.187072 
L 136.242878 217.511077 
L 136.054903 217.831491 
L 135.65206 218.138403 
L 134.240085 218.673708 
L 132.125374 219.046971 
L 129.485284 219.201764 
L 126.541236 219.099981 
L 123.540142 218.725037 
L 120.7337 218.083252 
L 118.357281 217.203329 
L 117.394506 216.688598 
L 116.610192 216.133943 
L 116.020869 215.547898 
L 115.638959 214.939658 
L 115.472513 214.318887 
L 115.525038 213.695513 
L 115.795428 213.079518 
L 116.277983 212.480729 
L 116.962532 211.90861 
L 117.834645 211.372065 
L 120.064471 210.437379 
L 122.780447 209.72994 
L 125.754789 209.283954 
L 128.738044 209.111703 
L 131.48001 209.20251 
L 133.750723 209.523635 
L 135.359742 210.023023 
L 135.871431 210.319064 
L 136.17212 210.633668 
L 136.255471 210.957048 
L 136.119725 211.279232 
L 135.767746 211.590269 
L 135.206952 211.880449 
L 133.510352 212.361772 
L 131.172218 212.657711 
L 128.388645 212.718322 
L 125.393087 212.513398 
L 122.436776 212.035002 
L 119.767655 211.298134 
L 117.609578 210.339469 
L 116.780862 209.793629 
L 116.14354 209.214287 
L 115.711045 208.610498 
L 115.492495 207.991831 
L 115.492495 207.368169 
L 115.711045 206.749502 
L 116.14354 206.145713 
L 116.780862 205.566371 
L 117.609578 205.020531 
L 118.61222 204.51654 
L 121.051527 203.662935 
L 123.894202 203.052021 
L 126.901835 202.709913 
L 129.822178 202.640179 
L 132.410309 202.823543 
L 134.449163 203.219504 
L 135.767746 203.769731 
L 136.119725 204.080768 
L 136.255471 204.402952 
L 136.17212 204.726332 
L 135.871431 205.040936 
L 135.359742 205.336977 
L 133.750723 205.836365 
L 131.48001 206.15749 
L 128.738044 206.248297 
L 125.754789 206.076046 
L 122.780447 205.63006 
L 120.064471 204.922621 
L 117.834645 203.987935 
L 116.962532 203.45139 
L 116.277983 202.879271 
L 115.795428 202.280482 
L 115.525038 201.664487 
L 115.472513 201.041113 
L 115.638959 200.420342 
L 116.020869 199.812102 
L 116.610192 199.226057 
L 117.394506 198.671402 
L 118.357281 198.156671 
L 120.7337 197.276748 
L 123.540142 196.634963 
L 126.541236 196.260019 
L 129.485284 196.158236 
L 132.125374 196.313029 
L 134.240085 196.686292 
L 135.65206 197.221597 
L 136.054903 197.528509 
L 136.242878 197.848923 
L 136.212023 198.172928 
L 135.962989 198.490537 
L 135.501024 198.791898 
L 133.981535 199.308382 
L 131.780994 199.653942 
L 129.083957 199.774472 
L 126.11662 199.63474 
L 123.12785 199.221342 
L 120.368309 198.543825 
L 118.069436 197.633888 
L 117.154982 197.107106 
L 116.424035 196.542723 
L 115.892004 195.949478 
L 115.570102 195.33672 
L 115.465116 194.714207 
L 115.579256 194.091902 
L 115.910119 193.479767 
L 116.450729 192.887547 
L 117.189692 192.324567 
L 118.111432 191.799538 
L 120.422083 190.894001 
L 123.188893 190.22176 
L 126.179813 189.81407 
L 129.144 189.68 
L 129.144 153.68 
L 129.144 153.68 
" clip-path="url(#pa837faedfc)" style="fill: none; stroke: #000000; stroke-width: 2; stroke-linecap: round"/>
   </g>
   <g id="line2d_18">
    <path d="M 174.144 153.68 
L 174.144 102.92 
M 165.144 102.92 
L 183.144 102.92 
M 165.144 96.44 
L 183.144 96.44 
M 174.144 96.44 
L 174.144 45.68 
" clip-path="url(#pa837faedfc)" style="fill: none; stroke: #000000; stroke-width: 2; stroke-linecap: round"/>
   </g>
   <g id="line2d_19">
    <path d="M 174.144 153.68 
L 151.644 153.68 
L 129.144 153.68 
" clip-path="url(#pa837faedfc)" style="fill: none; stroke: #000000; stroke-width: 2; stroke-linecap: round"/>
   </g>
   <g id="line2d_20">
    <path d="M 129.144 153.68 
L 129.144 117.68 
L 126.179813 117.54593 
L 123.188893 117.13824 
L 120.422083 116.465999 
L 118.111432 115.560462 
L 117.189692 115.035433 
L 116.450729 114.472453 
L 115.910119 113.880233 
L 115.579256 113.268098 
L 115.465116 112.645793 
L 115.570102 112.02328 
L 115.892004 111.410522 
L 116.424035 110.817277 
L 117.154982 110.252894 
L 118.069436 109.726112 
L 120.368309 108.816175 
L 123.12785 108.138658 
L 126.11662 107.72526 
L 129.083957 107.585528 
L 131.780994 107.706058 
L 133.981535 108.051618 
L 135.501024 108.568102 
L 135.962989 108.869463 
L 136.212023 109.187072 
L 136.242878 109.511077 
L 136.054903 109.831491 
L 135.65206 110.138403 
L 134.240085 110.673708 
L 132.125374 111.046971 
L 129.485284 111.201764 
L 126.541236 111.099981 
L 123.540142 110.725037 
L 120.7337 110.083252 
L 118.357281 109.203329 
L 117.394506 108.688598 
L 116.610192 108.133943 
L 116.020869 107.547898 
L 115.638959 106.939658 
L 115.472513 106.318887 
L 115.525038 105.695513 
L 115.795428 105.079518 
L 116.277983 104.480729 
L 116.962532 103.90861 
L 117.834645 103.372065 
L 120.064471 102.437379 
L 122.780447 101.72994 
L 125.754789 101.283954 
L 128.738044 101.111703 
L 131.48001 101.20251 
L 133.750723 101.523635 
L 135.359742 102.023023 
L 135.871431 102.319064 
L 136.17212 102.633668 
L 136.255471 102.957048 
L 136.119725 103.279232 
L 135.767746 103.590269 
L 135.206952 103.880449 
L 133.510352 104.361772 
L 131.172218 104.657711 
L 128.388645 104.718322 
L 125.393087 104.513398 
L 122.436776 104.035002 
L 119.767655 103.298134 
L 117.609578 102.339469 
L 116.780862 101.793629 
L 116.14354 101.214287 
L 115.711045 100.610498 
L 115.492495 99.991831 
L 115.492495 99.368169 
L 115.711045 98.749502 
L 116.14354 98.145713 
L 116.780862 97.566371 
L 117.609578 97.020531 
L 118.61222 96.51654 
L 121.051527 95.662935 
L 123.894202 95.052021 
L 126.901835 94.709913 
L 129.822178 94.640179 
L 132.410309 94.823543 
L 134.449163 95.219504 
L 135.767746 95.769731 
L 136.119725 96.080768 
L 136.255471 96.402952 
L 136.17212 96.726332 
L 135.871431 97.040936 
L 135.359742 97.336977 
L 133.750723 97.836365 
L 131.48001 98.15749 
L 128.738044 98.248297 
L 125.754789 98.076046 
L 122.780447 97.63006 
L 120.064471 96.922621 
L 117.834645 95.987935 
L 116.962532 95.45139 
L 116.277983 94.879271 
L 115.795428 94.280482 
L 115.525038 93.664487 
L 115.472513 93.041113 
L 115.638959 92.420342 
L 116.020869 91.812102 
L 116.610192 91.226057 
L 117.394506 90.671402 
L 118.357281 90.156671 
L 120.7337 89.276748 
L 123.540142 88.634963 
L 126.541236 88.260019 
L 129.485284 88.158236 
L 132.125374 88.313029 
L 134.240085 88.686292 
L 135.65206 89.221597 
L 136.054903 89.528509 
L 136.242878 89.848923 
L 136.212023 90.172928 
L 135.962989 90.490537 
L 135.501024 90.791898 
L 133.981535 91.308382 
L 131.780994 91.653942 
L 129.083957 91.774472 
L 126.11662 91.63474 
L 123.12785 91.221342 
L 120.368309 90.543825 
L 118.069436 89.633888 
L 117.154982 89.107106 
L 116.424035 88.542723 
L 115.892004 87.949478 
L 115.570102 87.33672 
L 115.465116 86.714207 
L 115.579256 86.091902 
L 115.910119 85.479767 
L 116.450729 84.887547 
L 117.189692 84.324567 
L 118.111432 83.799538 
L 120.422083 82.894001 
L 123.188893 82.22176 
L 126.179813 81.81407 
L 129.144 81.68 
L 129.144 45.68 
L 129.144 45.68 
" clip-path="url(#pa837faedfc)" style="fill: none; stroke: #000000; stroke-width: 2; stroke-linecap: round"/>
   </g>
   <g id="line2d_21">
    <path d="M 174.144 153.68 
L 196.644 153.68 
L 219.144 153.68 
" clip-path="url(#pa837faedfc)" style="fill: none; stroke: #000000; stroke-width: 2; stroke-linecap: round"/>
   </g>
   <g id="line2d_22">
    <path d="M 219.144 153.68 
L 219.144 117.68 
L 210.144 114.68 
L 228.144 108.68 
L 210.144 102.68 
L 228.144 96.68 
L 210.144 90.68 
L 228.144 84.68 
L 219.144 81.68 
L 219.144 45.68 
" clip-path="url(#pa837faedfc)" style="fill: none; stroke: #000000; stroke-width: 2; stroke-linecap: round"/>
   </g>
   <g id="line2d_23">
    <path d="M 219.144 153.68 
L 228.144 153.68 
L 237.144 153.68 
" clip-path="url(#pa837faedfc)" style="fill: none; stroke: #000000; stroke-width: 2; stroke-linecap: round"/>
   </g>
   <g id="line2d_24">
    <path d="M 219.144 45.68 
L 196.644 45.68 
L 174.144 45.68 
" clip-path="url(#pa837faedfc)" style="fill: none; stroke: #000000; stroke-width: 2; stroke-linecap: round"/>
   </g>
   <g id="line2d_25">
    <path d="M 129.144 45.68 
L 151.644 45.68 
L 174.144 45.68 
" clip-path="url(#pa837faedfc)" style="fill: none; stroke: #000000; stroke-width: 2; stroke-linecap: round"/>
   </g>
   <g id="line2d_26">
    <path d="M 174.144 45.68 
L 174.144 41.18 
L 174.144 36.68 
" clip-path="url(#pa837faedfc)" style="fill: none; stroke: #000000; stroke-width: 2; stroke-linecap: round"/>
   </g>
   <g id="line2d_27">
    <path d="M 174.144 36.68 
L 174.144 22.28 
" clip-path="url(#pa837faedfc)" style="fill: none; stroke: #000000; stroke-width: 2; stroke-linecap: round"/>
   </g>
   <g id="line2d_28">
    <path d="M 174.144 22.28 
L 167.394 22.28 
" clip-path="url(#pa837faedfc)" style="fill: none; stroke: #000000; stroke-width: 2; stroke-linecap: round"/>
   </g>
   <g id="line2d_29">
    <path d="M 174.144 22.28 
L 180.894 22.28 
" clip-path="url(#pa837faedfc)" style="fill: none; stroke: #000000; stroke-width: 2; stroke-linecap: round"/>
   </g>
   <g id="text_1">
    <!-- $R_{in}$ -->
    <g transform="translate(83.494 298.248438) scale(0.14 -0.14)">
     <defs>
      <path id="DejaVuSans-Oblique-52" d="M 1613 4147 
L 1294 2491 
L 2106 2491 
Q 2584 2491 2879 2755 
Q 3175 3019 3175 3444 
Q 3175 3784 2976 3965 
Q 2778 4147 2406 4147 
L 1613 4147 
z
M 2772 2241 
Q 2972 2194 3105 2009 
Q 3238 1825 3413 1275 
L 3809 0 
L 3144 0 
L 2778 1197 
Q 2638 1659 2453 1815 
Q 2269 1972 1888 1972 
L 1191 1972 
L 806 0 
L 172 0 
L 1081 4666 
L 2503 4666 
Q 3150 4666 3495 4373 
Q 3841 4081 3841 3531 
Q 3841 3044 3547 2687 
Q 3253 2331 2772 2241 
z
" transform="scale(0.015625)"/>
      <path id="DejaVuSans-Oblique-69" d="M 1172 4863 
L 1747 4863 
L 1606 4134 
L 1031 4134 
L 1172 4863 
z
M 909 3500 
L 1484 3500 
L 800 0 
L 225 0 
L 909 3500 
z
" transform="scale(0.015625)"/>
      <path id="DejaVuSans-Oblique-6e" d="M 3566 2113 
L 3156 0 
L 2578 0 
L 2988 2091 
Q 3016 2238 3031 2350 
Q 3047 2463 3047 2528 
Q 3047 2791 2881 2937 
Q 2716 3084 2419 3084 
Q 1956 3084 1622 2776 
Q 1288 2469 1184 1941 
L 800 0 
L 225 0 
L 903 3500 
L 1478 3500 
L 1363 2950 
Q 1603 3253 1940 3418 
Q 2278 3584 2650 3584 
Q 3113 3584 3367 3334 
Q 3622 3084 3622 2631 
Q 3622 2519 3608 2391 
Q 3594 2263 3566 2113 
z
" transform="scale(0.015625)"/>
     </defs>
     <use xlink:href="#DejaVuSans-Oblique-52" transform="translate(0 0.09375)"/>
     <use xlink:href="#DejaVuSans-Oblique-69" transform="translate(69.482422 -16.3125) scale(0.7)"/>
     <use xlink:href="#DejaVuSans-Oblique-6e" transform="translate(88.930664 -16.3125) scale(0.7)"/>
    </g>
   </g>
   <g id="text_2">
    <!-- $V_{in}$ -->
    <g transform="translate(9.384 371.623125) scale(0.14 -0.14)">
     <defs>
      <path id="DejaVuSans-Oblique-56" d="M 1319 0 
L 500 4666 
L 1119 4666 
L 1797 653 
L 4063 4666 
L 4750 4666 
L 2053 0 
L 1319 0 
z
" transform="scale(0.015625)"/>
     </defs>
     <use xlink:href="#DejaVuSans-Oblique-56" transform="translate(0 0.09375)"/>
     <use xlink:href="#DejaVuSans-Oblique-69" transform="translate(68.408203 -16.3125) scale(0.7)"/>
     <use xlink:href="#DejaVuSans-Oblique-6e" transform="translate(87.856445 -16.3125) scale(0.7)"/>
    </g>
   </g>
   <g id="text_3">
    <!-- $C_3$ -->
    <g transform="translate(145.024 211.543125) scale(0.14 -0.14)">
     <defs>
      <path id="DejaVuSans-Oblique-43" d="M 4447 4306 
L 4319 3641 
Q 4019 3944 3683 4091 
Q 3347 4238 2956 4238 
Q 2422 4238 2017 3981 
Q 1613 3725 1319 3200 
Q 1131 2863 1032 2486 
Q 934 2109 934 1728 
Q 934 1091 1264 756 
Q 1594 422 2222 422 
Q 2656 422 3056 561 
Q 3456 700 3834 978 
L 3688 231 
Q 3316 72 2936 -9 
Q 2556 -91 2175 -91 
Q 1278 -91 773 396 
Q 269 884 269 1753 
Q 269 2309 461 2846 
Q 653 3384 1013 3828 
Q 1394 4300 1883 4525 
Q 2372 4750 3022 4750 
Q 3422 4750 3780 4639 
Q 4138 4528 4447 4306 
z
" transform="scale(0.015625)"/>
      <path id="DejaVuSans-33" d="M 2597 2516 
Q 3050 2419 3304 2112 
Q 3559 1806 3559 1356 
Q 3559 666 3084 287 
Q 2609 -91 1734 -91 
Q 1441 -91 1130 -33 
Q 819 25 488 141 
L 488 750 
Q 750 597 1062 519 
Q 1375 441 1716 441 
Q 2309 441 2620 675 
Q 2931 909 2931 1356 
Q 2931 1769 2642 2001 
Q 2353 2234 1838 2234 
L 1294 2234 
L 1294 2753 
L 1863 2753 
Q 2328 2753 2575 2939 
Q 2822 3125 2822 3475 
Q 2822 3834 2567 4026 
Q 2313 4219 1838 4219 
Q 1578 4219 1281 4162 
Q 984 4106 628 3988 
L 628 4550 
Q 988 4650 1302 4700 
Q 1616 4750 1894 4750 
Q 2613 4750 3031 4423 
Q 3450 4097 3450 3541 
Q 3450 3153 3228 2886 
Q 3006 2619 2597 2516 
z
" transform="scale(0.015625)"/>
     </defs>
     <use xlink:href="#DejaVuSans-Oblique-43" transform="translate(0 0.78125)"/>
     <use xlink:href="#DejaVuSans-33" transform="translate(69.824219 -15.625) scale(0.7)"/>
    </g>
   </g>
   <g id="text_4">
    <!-- $L_3$ -->
    <g transform="translate(97.445116 211.543125) scale(0.14 -0.14)">
     <defs>
      <path id="DejaVuSans-Oblique-4c" d="M 1075 4666 
L 1709 4666 
L 909 525 
L 3181 525 
L 3078 0 
L 172 0 
L 1075 4666 
z
" transform="scale(0.015625)"/>
     </defs>
     <use xlink:href="#DejaVuSans-Oblique-4c" transform="translate(0 0.09375)"/>
     <use xlink:href="#DejaVuSans-33" transform="translate(55.712891 -16.3125) scale(0.7)"/>
    </g>
   </g>
   <g id="text_5">
    <!-- $C_1$ -->
    <g transform="translate(145.024 103.543125) scale(0.14 -0.14)">
     <defs>
      <path id="DejaVuSans-31" d="M 794 531 
L 1825 531 
L 1825 4091 
L 703 3866 
L 703 4441 
L 1819 4666 
L 2450 4666 
L 2450 531 
L 3481 531 
L 3481 0 
L 794 0 
L 794 531 
z
" transform="scale(0.015625)"/>
     </defs>
     <use xlink:href="#DejaVuSans-Oblique-43" transform="translate(0 0.78125)"/>
     <use xlink:href="#DejaVuSans-31" transform="translate(69.824219 -15.625) scale(0.7)"/>
    </g>
   </g>
   <g id="text_6">
    <!-- $L_1$ -->
    <g transform="translate(97.445116 103.543125) scale(0.14 -0.14)">
     <use xlink:href="#DejaVuSans-Oblique-4c" transform="translate(0 0.09375)"/>
     <use xlink:href="#DejaVuSans-31" transform="translate(55.712891 -16.3125) scale(0.7)"/>
    </g>
   </g>
   <g id="text_7">
    <!-- $R_L$ -->
    <g transform="translate(190.864 103.543125) scale(0.14 -0.14)">
     <use xlink:href="#DejaVuSans-Oblique-52" transform="translate(0 0.09375)"/>
     <use xlink:href="#DejaVuSans-Oblique-4c" transform="translate(69.482422 -16.3125) scale(0.7)"/>
    </g>
   </g>
   <g id="text_8">
    <!-- $V_{dd}$ -->
    <g transform="translate(162.874 15.768438) scale(0.14 -0.14)">
     <defs>
      <path id="DejaVuSans-Oblique-64" d="M 2675 525 
Q 2444 222 2128 65 
Q 1813 -91 1428 -91 
Q 903 -91 598 267 
Q 294 625 294 1247 
Q 294 1766 478 2236 
Q 663 2706 1013 3078 
Q 1244 3325 1534 3454 
Q 1825 3584 2144 3584 
Q 2481 3584 2739 3421 
Q 2997 3259 3138 2956 
L 3513 4863 
L 4091 4863 
L 3144 0 
L 2566 0 
L 2675 525 
z
M 891 1350 
Q 891 897 1095 644 
Q 1300 391 1663 391 
Q 1931 391 2161 520 
Q 2391 650 2566 903 
Q 2750 1166 2856 1509 
Q 2963 1853 2963 2188 
Q 2963 2622 2758 2865 
Q 2553 3109 2194 3109 
Q 1922 3109 1687 2981 
Q 1453 2853 1288 2613 
Q 1106 2353 998 2009 
Q 891 1666 891 1350 
z
" transform="scale(0.015625)"/>
     </defs>
     <use xlink:href="#DejaVuSans-Oblique-56" transform="translate(0 0.09375)"/>
     <use xlink:href="#DejaVuSans-Oblique-64" transform="translate(68.408203 -16.3125) scale(0.7)"/>
     <use xlink:href="#DejaVuSans-Oblique-64" transform="translate(112.841797 -16.3125) scale(0.7)"/>
    </g>
   </g>
   <g id="patch_4">
    <path d="M 39.084 316.46 
C 39.800048 316.46 40.486866 316.175511 40.993188 315.669188 
C 41.499511 315.162866 41.784 314.476048 41.784 313.76 
C 41.784 313.043952 41.499511 312.357134 40.993188 311.850812 
C 40.486866 311.344489 39.800048 311.06 39.084 311.06 
C 38.367952 311.06 37.681134 311.344489 37.174812 311.850812 
C 36.668489 312.357134 36.384 313.043952 36.384 313.76 
C 36.384 314.476048 36.668489 315.162866 37.174812 315.669188 
C 37.681134 316.175511 38.367952 316.46 39.084 316.46 
z
" clip-path="url(#pa837faedfc)" style="fill: #ff0000; stroke: #ff0000; stroke-width: 2; stroke-linejoin: miter"/>
   </g>
   <g id="text_9">
    <!-- 1 -->
    <g style="fill: #ff0000" transform="translate(45.43025 328.423125) scale(0.14 -0.14)">
     <use xlink:href="#DejaVuSans-31"/>
    </g>
   </g>
   <g id="patch_5">
    <path d="M 174.144 264.38 
C 174.860048 264.38 175.546866 264.095511 176.053188 263.589188 
C 176.559511 263.082866 176.844 262.396048 176.844 261.68 
C 176.844 260.963952 176.559511 260.277134 176.053188 259.770812 
C 175.546866 259.264489 174.860048 258.98 174.144 258.98 
C 173.427952 258.98 172.741134 259.264489 172.234812 259.770812 
C 171.728489 260.277134 171.444 260.963952 171.444 261.68 
C 171.444 262.396048 171.728489 263.082866 172.234812 263.589188 
C 172.741134 264.095511 173.427952 264.38 174.144 264.38 
z
" clip-path="url(#pa837faedfc)" style="fill: #ff0000; stroke: #ff0000; stroke-width: 2; stroke-linejoin: miter"/>
   </g>
   <g id="text_10">
    <!-- 2 -->
    <g style="fill: #ff0000" transform="translate(180.49025 276.343125) scale(0.14 -0.14)">
     <defs>
      <path id="DejaVuSans-32" d="M 1228 531 
L 3431 531 
L 3431 0 
L 469 0 
L 469 531 
Q 828 903 1448 1529 
Q 2069 2156 2228 2338 
Q 2531 2678 2651 2914 
Q 2772 3150 2772 3378 
Q 2772 3750 2511 3984 
Q 2250 4219 1831 4219 
Q 1534 4219 1204 4116 
Q 875 4013 500 3803 
L 500 4441 
Q 881 4594 1212 4672 
Q 1544 4750 1819 4750 
Q 2544 4750 2975 4387 
Q 3406 4025 3406 3419 
Q 3406 3131 3298 2873 
Q 3191 2616 2906 2266 
Q 2828 2175 2409 1742 
Q 1991 1309 1228 531 
z
" transform="scale(0.015625)"/>
     </defs>
     <use xlink:href="#DejaVuSans-32"/>
    </g>
   </g>
   <g id="patch_6">
    <path d="M 129.144 156.38 
C 129.860048 156.38 130.546866 156.095511 131.053188 155.589188 
C 131.559511 155.082866 131.844 154.396048 131.844 153.68 
C 131.844 152.963952 131.559511 152.277134 131.053188 151.770812 
C 130.546866 151.264489 129.860048 150.98 129.144 150.98 
C 128.427952 150.98 127.741134 151.264489 127.234812 151.770812 
C 126.728489 152.277134 126.444 152.963952 126.444 153.68 
C 126.444 154.396048 126.728489 155.082866 127.234812 155.589188 
C 127.741134 156.095511 128.427952 156.38 129.144 156.38 
z
" clip-path="url(#pa837faedfc)" style="fill: #ff0000; stroke: #ff0000; stroke-width: 2; stroke-linejoin: miter"/>
   </g>
   <g id="text_11">
    <!-- 5 -->
    <g style="fill: #ff0000" transform="translate(135.49025 168.343125) scale(0.14 -0.14)">
     <defs>
      <path id="DejaVuSans-35" d="M 691 4666 
L 3169 4666 
L 3169 4134 
L 1269 4134 
L 1269 2991 
Q 1406 3038 1543 3061 
Q 1681 3084 1819 3084 
Q 2600 3084 3056 2656 
Q 3513 2228 3513 1497 
Q 3513 744 3044 326 
Q 2575 -91 1722 -91 
Q 1428 -91 1123 -41 
Q 819 9 494 109 
L 494 744 
Q 775 591 1075 516 
Q 1375 441 1709 441 
Q 2250 441 2565 725 
Q 2881 1009 2881 1497 
Q 2881 1984 2565 2268 
Q 2250 2553 1709 2553 
Q 1456 2553 1204 2497 
Q 953 2441 691 2322 
L 691 4666 
z
" transform="scale(0.015625)"/>
     </defs>
     <use xlink:href="#DejaVuSans-35"/>
    </g>
   </g>
   <g id="patch_7">
    <path d="M 237.144 156.38 
C 237.860048 156.38 238.546866 156.095511 239.053188 155.589188 
C 239.559511 155.082866 239.844 154.396048 239.844 153.68 
C 239.844 152.963952 239.559511 152.277134 239.053188 151.770812 
C 238.546866 151.264489 237.860048 150.98 237.144 150.98 
C 236.427952 150.98 235.741134 151.264489 235.234812 151.770812 
C 234.728489 152.277134 234.444 152.963952 234.444 153.68 
C 234.444 154.396048 234.728489 155.082866 235.234812 155.589188 
C 235.741134 156.095511 236.427952 156.38 237.144 156.38 
z
" clip-path="url(#pa837faedfc)" style="fill: #ffffff; stroke: #000000; stroke-width: 2; stroke-linejoin: miter"/>
   </g>
   <g id="text_12">
    <!-- $v_{out}$ -->
    <g transform="translate(243.444 157.543125) scale(0.14 -0.14)">
     <defs>
      <path id="DejaVuSans-Oblique-76" d="M 459 3500 
L 1069 3500 
L 1581 525 
L 3256 3500 
L 3866 3500 
L 1875 0 
L 1100 0 
L 459 3500 
z
" transform="scale(0.015625)"/>
      <path id="DejaVuSans-Oblique-6f" d="M 1625 -91 
Q 1009 -91 651 289 
Q 294 669 294 1325 
Q 294 1706 417 2101 
Q 541 2497 738 2766 
Q 1047 3184 1428 3384 
Q 1809 3584 2291 3584 
Q 2888 3584 3255 3212 
Q 3622 2841 3622 2241 
Q 3622 1825 3500 1412 
Q 3378 1000 3181 728 
Q 2875 309 2494 109 
Q 2113 -91 1625 -91 
z
M 891 1344 
Q 891 869 1089 633 
Q 1288 397 1691 397 
Q 2269 397 2648 901 
Q 3028 1406 3028 2181 
Q 3028 2634 2825 2865 
Q 2622 3097 2228 3097 
Q 1903 3097 1650 2945 
Q 1397 2794 1197 2484 
Q 1050 2253 970 1956 
Q 891 1659 891 1344 
z
" transform="scale(0.015625)"/>
      <path id="DejaVuSans-Oblique-75" d="M 428 1388 
L 838 3500 
L 1416 3500 
L 1006 1409 
Q 975 1256 961 1147 
Q 947 1038 947 966 
Q 947 700 1109 554 
Q 1272 409 1569 409 
Q 2031 409 2368 721 
Q 2706 1034 2809 1563 
L 3194 3500 
L 3769 3500 
L 3091 0 
L 2516 0 
L 2631 550 
Q 2388 244 2052 76 
Q 1716 -91 1338 -91 
Q 878 -91 622 161 
Q 366 413 366 863 
Q 366 956 381 1097 
Q 397 1238 428 1388 
z
" transform="scale(0.015625)"/>
      <path id="DejaVuSans-Oblique-74" d="M 2706 3500 
L 2619 3053 
L 1472 3053 
L 1100 1153 
Q 1081 1047 1072 975 
Q 1063 903 1063 863 
Q 1063 663 1183 572 
Q 1303 481 1569 481 
L 2150 481 
L 2053 0 
L 1503 0 
Q 991 0 739 200 
Q 488 400 488 806 
Q 488 878 497 964 
Q 506 1050 525 1153 
L 897 3053 
L 409 3053 
L 500 3500 
L 978 3500 
L 1172 4494 
L 1747 4494 
L 1556 3500 
L 2706 3500 
z
" transform="scale(0.015625)"/>
     </defs>
     <use xlink:href="#DejaVuSans-Oblique-76" transform="translate(0 0.3125)"/>
     <use xlink:href="#DejaVuSans-Oblique-6f" transform="translate(59.179688 -16.09375) scale(0.7)"/>
     <use xlink:href="#DejaVuSans-Oblique-75" transform="translate(102.006836 -16.09375) scale(0.7)"/>
     <use xlink:href="#DejaVuSans-Oblique-74" transform="translate(146.37207 -16.09375) scale(0.7)"/>
    </g>
   </g>
   <g id="patch_8">
    <path d="M 174.144 48.38 
C 174.860048 48.38 175.546866 48.095511 176.053188 47.589188 
C 176.559511 47.082866 176.844 46.396048 176.844 45.68 
C 176.844 44.963952 176.559511 44.277134 176.053188 43.770812 
C 175.546866 43.264489 174.860048 42.98 174.144 42.98 
C 173.427952 42.98 172.741134 43.264489 172.234812 43.770812 
C 171.728489 44.277134 171.444 44.963952 171.444 45.68 
C 171.444 46.396048 171.728489 47.082866 172.234812 47.589188 
C 172.741134 48.095511 173.427952 48.38 174.144 48.38 
z
" clip-path="url(#pa837faedfc)" style="fill: #ff0000; stroke: #ff0000; stroke-width: 2; stroke-linejoin: miter"/>
   </g>
   <g id="text_13">
    <!-- 3 -->
    <g style="fill: #ff0000" transform="translate(180.49025 60.343125) scale(0.14 -0.14)">
     <use xlink:href="#DejaVuSans-33"/>
    </g>
   </g>
  </g>
 </g>
 <defs>
  <clipPath id="pa837faedfc">
   <rect x="0" y="-0" width="278.532" height="449.48"/>
  </clipPath>
 </defs>
</svg>