<?xml version="1.0" encoding="utf-8" standalone="no"?>
<!DOCTYPE svg PUBLIC "-//W3C//DTD SVG 1.1//EN"
  "http://www.w3.org/Graphics/SVG/1.1/DTD/svg11.dtd">
<svg xmlns:xlink="http://www.w3.org/1999/xlink" width="733.734375pt" height="479.63625pt" viewBox="0 0 733.734375 479.63625" xmlns="http://www.w3.org/2000/svg" version="1.1">
 <metadata>
  <rdf:RDF xmlns:dc="http://purl.org/dc/elements/1.1/" xmlns:cc="http://creativecommons.org/ns#" xmlns:rdf="http://www.w3.org/1999/02/22-rdf-syntax-ns#">
   <cc:Work>
    <dc:type rdf:resource="http://purl.org/dc/dcmitype/StillImage"/>
    <dc:date>2022-11-04T21:53:47.214491</dc:date>
    <dc:format>image/svg+xml</dc:format>
    <dc:creator>
     <cc:Agent>
      <dc:title>Matplotlib v3.5.3, https://matplotlib.org/</dc:title>
     </cc:Agent>
    </dc:creator>
   </cc:Work>
  </rdf:RDF>
 </metadata>
 <defs>
  <style type="text/css">*{stroke-linejoin: round; stroke-linecap: butt}</style>
 </defs>
 <g id="figure_1">
  <g id="patch_1">
   <path d="M 0 479.63625 
L 733.734375 479.63625 
L 733.734375 0 
L 0 0 
L 0 479.63625 
z
" style="fill: none"/>
  </g>
  <g id="axes_1">
   <g id="patch_2">
    <path d="M 48.982813 442.08 
L 718.582813 442.08 
L 718.582813 7.2 
L 48.982813 7.2 
z
" style="fill: #ffffff"/>
   </g>
   <g id="matplotlib.axis_1">
    <g id="xtick_1">
     <g id="line2d_1">
      <path d="M 48.982812 442.08 
L 48.982812 7.2 
" clip-path="url(#p02e356091b)" style="fill: none; stroke: #b0b0b0; stroke-width: 0.8; stroke-linecap: square"/>
     </g>
     <g id="line2d_2">
      <defs>
       <path id="mafdc668072" d="M 0 0 
L 0 3.5 
" style="stroke: #000000; stroke-width: 0.8"/>
      </defs>
      <g>
       <use xlink:href="#mafdc668072" x="48.982812" y="442.08" style="stroke: #000000; stroke-width: 0.8"/>
      </g>
     </g>
     <g id="text_1">
      <!-- 2.1 -->
      <g transform="translate(41.03125 456.678437)scale(0.1 -0.1)">
       <defs>
        <path id="DejaVuSans-32" d="M 1228 531 
L 3431 531 
L 3431 0 
L 469 0 
L 469 531 
Q 828 903 1448 1529 
Q 2069 2156 2228 2338 
Q 2531 2678 2651 2914 
Q 2772 3150 2772 3378 
Q 2772 3750 2511 3984 
Q 2250 4219 1831 4219 
Q 1534 4219 1204 4116 
Q 875 4013 500 3803 
L 500 4441 
Q 881 4594 1212 4672 
Q 1544 4750 1819 4750 
Q 2544 4750 2975 4387 
Q 3406 4025 3406 3419 
Q 3406 3131 3298 2873 
Q 3191 2616 2906 2266 
Q 2828 2175 2409 1742 
Q 1991 1309 1228 531 
z
" transform="scale(0.015625)"/>
        <path id="DejaVuSans-2e" d="M 684 794 
L 1344 794 
L 1344 0 
L 684 0 
L 684 794 
z
" transform="scale(0.015625)"/>
        <path id="DejaVuSans-31" d="M 794 531 
L 1825 531 
L 1825 4091 
L 703 3866 
L 703 4441 
L 1819 4666 
L 2450 4666 
L 2450 531 
L 3481 531 
L 3481 0 
L 794 0 
L 794 531 
z
" transform="scale(0.015625)"/>
       </defs>
       <use xlink:href="#DejaVuSans-32"/>
       <use xlink:href="#DejaVuSans-2e" x="63.623047"/>
       <use xlink:href="#DejaVuSans-31" x="95.410156"/>
      </g>
     </g>
    </g>
    <g id="xtick_2">
     <g id="line2d_3">
      <path d="M 160.582813 442.08 
L 160.582813 7.2 
" clip-path="url(#p02e356091b)" style="fill: none; stroke: #b0b0b0; stroke-width: 0.8; stroke-linecap: square"/>
     </g>
     <g id="line2d_4">
      <g>
       <use xlink:href="#mafdc668072" x="160.582813" y="442.08" style="stroke: #000000; stroke-width: 0.8"/>
      </g>
     </g>
     <g id="text_2">
      <!-- 2.2 -->
      <g transform="translate(152.63125 456.678437)scale(0.1 -0.1)">
       <use xlink:href="#DejaVuSans-32"/>
       <use xlink:href="#DejaVuSans-2e" x="63.623047"/>
       <use xlink:href="#DejaVuSans-32" x="95.410156"/>
      </g>
     </g>
    </g>
    <g id="xtick_3">
     <g id="line2d_5">
      <path d="M 272.182812 442.08 
L 272.182812 7.2 
" clip-path="url(#p02e356091b)" style="fill: none; stroke: #b0b0b0; stroke-width: 0.8; stroke-linecap: square"/>
     </g>
     <g id="line2d_6">
      <g>
       <use xlink:href="#mafdc668072" x="272.182812" y="442.08" style="stroke: #000000; stroke-width: 0.8"/>
      </g>
     </g>
     <g id="text_3">
      <!-- 2.3 -->
      <g transform="translate(264.23125 456.678437)scale(0.1 -0.1)">
       <defs>
        <path id="DejaVuSans-33" d="M 2597 2516 
Q 3050 2419 3304 2112 
Q 3559 1806 3559 1356 
Q 3559 666 3084 287 
Q 2609 -91 1734 -91 
Q 1441 -91 1130 -33 
Q 819 25 488 141 
L 488 750 
Q 750 597 1062 519 
Q 1375 441 1716 441 
Q 2309 441 2620 675 
Q 2931 909 2931 1356 
Q 2931 1769 2642 2001 
Q 2353 2234 1838 2234 
L 1294 2234 
L 1294 2753 
L 1863 2753 
Q 2328 2753 2575 2939 
Q 2822 3125 2822 3475 
Q 2822 3834 2567 4026 
Q 2313 4219 1838 4219 
Q 1578 4219 1281 4162 
Q 984 4106 628 3988 
L 628 4550 
Q 988 4650 1302 4700 
Q 1616 4750 1894 4750 
Q 2613 4750 3031 4423 
Q 3450 4097 3450 3541 
Q 3450 3153 3228 2886 
Q 3006 2619 2597 2516 
z
" transform="scale(0.015625)"/>
       </defs>
       <use xlink:href="#DejaVuSans-32"/>
       <use xlink:href="#DejaVuSans-2e" x="63.623047"/>
       <use xlink:href="#DejaVuSans-33" x="95.410156"/>
      </g>
     </g>
    </g>
    <g id="xtick_4">
     <g id="line2d_7">
      <path d="M 383.782813 442.08 
L 383.782813 7.2 
" clip-path="url(#p02e356091b)" style="fill: none; stroke: #b0b0b0; stroke-width: 0.8; stroke-linecap: square"/>
     </g>
     <g id="line2d_8">
      <g>
       <use xlink:href="#mafdc668072" x="383.782813" y="442.08" style="stroke: #000000; stroke-width: 0.8"/>
      </g>
     </g>
     <g id="text_4">
      <!-- 2.4 -->
      <g transform="translate(375.83125 456.678437)scale(0.1 -0.1)">
       <defs>
        <path id="DejaVuSans-34" d="M 2419 4116 
L 825 1625 
L 2419 1625 
L 2419 4116 
z
M 2253 4666 
L 3047 4666 
L 3047 1625 
L 3713 1625 
L 3713 1100 
L 3047 1100 
L 3047 0 
L 2419 0 
L 2419 1100 
L 313 1100 
L 313 1709 
L 2253 4666 
z
" transform="scale(0.015625)"/>
       </defs>
       <use xlink:href="#DejaVuSans-32"/>
       <use xlink:href="#DejaVuSans-2e" x="63.623047"/>
       <use xlink:href="#DejaVuSans-34" x="95.410156"/>
      </g>
     </g>
    </g>
    <g id="xtick_5">
     <g id="line2d_9">
      <path d="M 495.382812 442.08 
L 495.382812 7.2 
" clip-path="url(#p02e356091b)" style="fill: none; stroke: #b0b0b0; stroke-width: 0.8; stroke-linecap: square"/>
     </g>
     <g id="line2d_10">
      <g>
       <use xlink:href="#mafdc668072" x="495.382812" y="442.08" style="stroke: #000000; stroke-width: 0.8"/>
      </g>
     </g>
     <g id="text_5">
      <!-- 2.5 -->
      <g transform="translate(487.43125 456.678437)scale(0.1 -0.1)">
       <defs>
        <path id="DejaVuSans-35" d="M 691 4666 
L 3169 4666 
L 3169 4134 
L 1269 4134 
L 1269 2991 
Q 1406 3038 1543 3061 
Q 1681 3084 1819 3084 
Q 2600 3084 3056 2656 
Q 3513 2228 3513 1497 
Q 3513 744 3044 326 
Q 2575 -91 1722 -91 
Q 1428 -91 1123 -41 
Q 819 9 494 109 
L 494 744 
Q 775 591 1075 516 
Q 1375 441 1709 441 
Q 2250 441 2565 725 
Q 2881 1009 2881 1497 
Q 2881 1984 2565 2268 
Q 2250 2553 1709 2553 
Q 1456 2553 1204 2497 
Q 953 2441 691 2322 
L 691 4666 
z
" transform="scale(0.015625)"/>
       </defs>
       <use xlink:href="#DejaVuSans-32"/>
       <use xlink:href="#DejaVuSans-2e" x="63.623047"/>
       <use xlink:href="#DejaVuSans-35" x="95.410156"/>
      </g>
     </g>
    </g>
    <g id="xtick_6">
     <g id="line2d_11">
      <path d="M 606.982812 442.08 
L 606.982812 7.2 
" clip-path="url(#p02e356091b)" style="fill: none; stroke: #b0b0b0; stroke-width: 0.8; stroke-linecap: square"/>
     </g>
     <g id="line2d_12">
      <g>
       <use xlink:href="#mafdc668072" x="606.982812" y="442.08" style="stroke: #000000; stroke-width: 0.8"/>
      </g>
     </g>
     <g id="text_6">
      <!-- 2.6 -->
      <g transform="translate(599.03125 456.678437)scale(0.1 -0.1)">
       <defs>
        <path id="DejaVuSans-36" d="M 2113 2584 
Q 1688 2584 1439 2293 
Q 1191 2003 1191 1497 
Q 1191 994 1439 701 
Q 1688 409 2113 409 
Q 2538 409 2786 701 
Q 3034 994 3034 1497 
Q 3034 2003 2786 2293 
Q 2538 2584 2113 2584 
z
M 3366 4563 
L 3366 3988 
Q 3128 4100 2886 4159 
Q 2644 4219 2406 4219 
Q 1781 4219 1451 3797 
Q 1122 3375 1075 2522 
Q 1259 2794 1537 2939 
Q 1816 3084 2150 3084 
Q 2853 3084 3261 2657 
Q 3669 2231 3669 1497 
Q 3669 778 3244 343 
Q 2819 -91 2113 -91 
Q 1303 -91 875 529 
Q 447 1150 447 2328 
Q 447 3434 972 4092 
Q 1497 4750 2381 4750 
Q 2619 4750 2861 4703 
Q 3103 4656 3366 4563 
z
" transform="scale(0.015625)"/>
       </defs>
       <use xlink:href="#DejaVuSans-32"/>
       <use xlink:href="#DejaVuSans-2e" x="63.623047"/>
       <use xlink:href="#DejaVuSans-36" x="95.410156"/>
      </g>
     </g>
    </g>
    <g id="xtick_7">
     <g id="line2d_13">
      <path d="M 718.582813 442.08 
L 718.582813 7.2 
" clip-path="url(#p02e356091b)" style="fill: none; stroke: #b0b0b0; stroke-width: 0.8; stroke-linecap: square"/>
     </g>
     <g id="line2d_14">
      <g>
       <use xlink:href="#mafdc668072" x="718.582813" y="442.08" style="stroke: #000000; stroke-width: 0.8"/>
      </g>
     </g>
     <g id="text_7">
      <!-- 2.7 -->
      <g transform="translate(710.63125 456.678437)scale(0.1 -0.1)">
       <defs>
        <path id="DejaVuSans-37" d="M 525 4666 
L 3525 4666 
L 3525 4397 
L 1831 0 
L 1172 0 
L 2766 4134 
L 525 4134 
L 525 4666 
z
" transform="scale(0.015625)"/>
       </defs>
       <use xlink:href="#DejaVuSans-32"/>
       <use xlink:href="#DejaVuSans-2e" x="63.623047"/>
       <use xlink:href="#DejaVuSans-37" x="95.410156"/>
      </g>
     </g>
    </g>
    <g id="text_8">
     <!-- tijd [us] -->
     <g transform="translate(364.60625 470.356562)scale(0.1 -0.1)">
      <defs>
       <path id="DejaVuSans-74" d="M 1172 4494 
L 1172 3500 
L 2356 3500 
L 2356 3053 
L 1172 3053 
L 1172 1153 
Q 1172 725 1289 603 
Q 1406 481 1766 481 
L 2356 481 
L 2356 0 
L 1766 0 
Q 1100 0 847 248 
Q 594 497 594 1153 
L 594 3053 
L 172 3053 
L 172 3500 
L 594 3500 
L 594 4494 
L 1172 4494 
z
" transform="scale(0.015625)"/>
       <path id="DejaVuSans-69" d="M 603 3500 
L 1178 3500 
L 1178 0 
L 603 0 
L 603 3500 
z
M 603 4863 
L 1178 4863 
L 1178 4134 
L 603 4134 
L 603 4863 
z
" transform="scale(0.015625)"/>
       <path id="DejaVuSans-6a" d="M 603 3500 
L 1178 3500 
L 1178 -63 
Q 1178 -731 923 -1031 
Q 669 -1331 103 -1331 
L -116 -1331 
L -116 -844 
L 38 -844 
Q 366 -844 484 -692 
Q 603 -541 603 -63 
L 603 3500 
z
M 603 4863 
L 1178 4863 
L 1178 4134 
L 603 4134 
L 603 4863 
z
" transform="scale(0.015625)"/>
       <path id="DejaVuSans-64" d="M 2906 2969 
L 2906 4863 
L 3481 4863 
L 3481 0 
L 2906 0 
L 2906 525 
Q 2725 213 2448 61 
Q 2172 -91 1784 -91 
Q 1150 -91 751 415 
Q 353 922 353 1747 
Q 353 2572 751 3078 
Q 1150 3584 1784 3584 
Q 2172 3584 2448 3432 
Q 2725 3281 2906 2969 
z
M 947 1747 
Q 947 1113 1208 752 
Q 1469 391 1925 391 
Q 2381 391 2643 752 
Q 2906 1113 2906 1747 
Q 2906 2381 2643 2742 
Q 2381 3103 1925 3103 
Q 1469 3103 1208 2742 
Q 947 2381 947 1747 
z
" transform="scale(0.015625)"/>
       <path id="DejaVuSans-20" transform="scale(0.015625)"/>
       <path id="DejaVuSans-5b" d="M 550 4863 
L 1875 4863 
L 1875 4416 
L 1125 4416 
L 1125 -397 
L 1875 -397 
L 1875 -844 
L 550 -844 
L 550 4863 
z
" transform="scale(0.015625)"/>
       <path id="DejaVuSans-75" d="M 544 1381 
L 544 3500 
L 1119 3500 
L 1119 1403 
Q 1119 906 1312 657 
Q 1506 409 1894 409 
Q 2359 409 2629 706 
Q 2900 1003 2900 1516 
L 2900 3500 
L 3475 3500 
L 3475 0 
L 2900 0 
L 2900 538 
Q 2691 219 2414 64 
Q 2138 -91 1772 -91 
Q 1169 -91 856 284 
Q 544 659 544 1381 
z
M 1991 3584 
L 1991 3584 
z
" transform="scale(0.015625)"/>
       <path id="DejaVuSans-73" d="M 2834 3397 
L 2834 2853 
Q 2591 2978 2328 3040 
Q 2066 3103 1784 3103 
Q 1356 3103 1142 2972 
Q 928 2841 928 2578 
Q 928 2378 1081 2264 
Q 1234 2150 1697 2047 
L 1894 2003 
Q 2506 1872 2764 1633 
Q 3022 1394 3022 966 
Q 3022 478 2636 193 
Q 2250 -91 1575 -91 
Q 1294 -91 989 -36 
Q 684 19 347 128 
L 347 722 
Q 666 556 975 473 
Q 1284 391 1588 391 
Q 1994 391 2212 530 
Q 2431 669 2431 922 
Q 2431 1156 2273 1281 
Q 2116 1406 1581 1522 
L 1381 1569 
Q 847 1681 609 1914 
Q 372 2147 372 2553 
Q 372 3047 722 3315 
Q 1072 3584 1716 3584 
Q 2034 3584 2315 3537 
Q 2597 3491 2834 3397 
z
" transform="scale(0.015625)"/>
       <path id="DejaVuSans-5d" d="M 1947 4863 
L 1947 -844 
L 622 -844 
L 622 -397 
L 1369 -397 
L 1369 4416 
L 622 4416 
L 622 4863 
L 1947 4863 
z
" transform="scale(0.015625)"/>
      </defs>
      <use xlink:href="#DejaVuSans-74"/>
      <use xlink:href="#DejaVuSans-69" x="39.208984"/>
      <use xlink:href="#DejaVuSans-6a" x="66.992188"/>
      <use xlink:href="#DejaVuSans-64" x="94.775391"/>
      <use xlink:href="#DejaVuSans-20" x="158.251953"/>
      <use xlink:href="#DejaVuSans-5b" x="190.039062"/>
      <use xlink:href="#DejaVuSans-75" x="229.052734"/>
      <use xlink:href="#DejaVuSans-73" x="292.431641"/>
      <use xlink:href="#DejaVuSans-5d" x="344.53125"/>
     </g>
    </g>
   </g>
   <g id="matplotlib.axis_2">
    <g id="ytick_1">
     <g id="line2d_15">
      <path d="M 48.982813 406.645243 
L 718.582813 406.645243 
" clip-path="url(#p02e356091b)" style="fill: none; stroke: #b0b0b0; stroke-width: 0.8; stroke-linecap: square"/>
     </g>
     <g id="line2d_16">
      <defs>
       <path id="m3b0eccaf68" d="M 0 0 
L -3.5 0 
" style="stroke: #000000; stroke-width: 0.8"/>
      </defs>
      <g>
       <use xlink:href="#m3b0eccaf68" x="48.982813" y="406.645243" style="stroke: #000000; stroke-width: 0.8"/>
      </g>
     </g>
     <g id="text_9">
      <!-- −10 -->
      <g transform="translate(20.878125 410.444462)scale(0.1 -0.1)">
       <defs>
        <path id="DejaVuSans-2212" d="M 678 2272 
L 4684 2272 
L 4684 1741 
L 678 1741 
L 678 2272 
z
" transform="scale(0.015625)"/>
        <path id="DejaVuSans-30" d="M 2034 4250 
Q 1547 4250 1301 3770 
Q 1056 3291 1056 2328 
Q 1056 1369 1301 889 
Q 1547 409 2034 409 
Q 2525 409 2770 889 
Q 3016 1369 3016 2328 
Q 3016 3291 2770 3770 
Q 2525 4250 2034 4250 
z
M 2034 4750 
Q 2819 4750 3233 4129 
Q 3647 3509 3647 2328 
Q 3647 1150 3233 529 
Q 2819 -91 2034 -91 
Q 1250 -91 836 529 
Q 422 1150 422 2328 
Q 422 3509 836 4129 
Q 1250 4750 2034 4750 
z
" transform="scale(0.015625)"/>
       </defs>
       <use xlink:href="#DejaVuSans-2212"/>
       <use xlink:href="#DejaVuSans-31" x="83.789062"/>
       <use xlink:href="#DejaVuSans-30" x="147.412109"/>
      </g>
     </g>
    </g>
    <g id="ytick_2">
     <g id="line2d_17">
      <path d="M 48.982813 315.704713 
L 718.582813 315.704713 
" clip-path="url(#p02e356091b)" style="fill: none; stroke: #b0b0b0; stroke-width: 0.8; stroke-linecap: square"/>
     </g>
     <g id="line2d_18">
      <g>
       <use xlink:href="#m3b0eccaf68" x="48.982813" y="315.704713" style="stroke: #000000; stroke-width: 0.8"/>
      </g>
     </g>
     <g id="text_10">
      <!-- 0 -->
      <g transform="translate(35.620312 319.503931)scale(0.1 -0.1)">
       <use xlink:href="#DejaVuSans-30"/>
      </g>
     </g>
    </g>
    <g id="ytick_3">
     <g id="line2d_19">
      <path d="M 48.982813 224.764182 
L 718.582813 224.764182 
" clip-path="url(#p02e356091b)" style="fill: none; stroke: #b0b0b0; stroke-width: 0.8; stroke-linecap: square"/>
     </g>
     <g id="line2d_20">
      <g>
       <use xlink:href="#m3b0eccaf68" x="48.982813" y="224.764182" style="stroke: #000000; stroke-width: 0.8"/>
      </g>
     </g>
     <g id="text_11">
      <!-- 10 -->
      <g transform="translate(29.257812 228.563401)scale(0.1 -0.1)">
       <use xlink:href="#DejaVuSans-31"/>
       <use xlink:href="#DejaVuSans-30" x="63.623047"/>
      </g>
     </g>
    </g>
    <g id="ytick_4">
     <g id="line2d_21">
      <path d="M 48.982813 133.823652 
L 718.582813 133.823652 
" clip-path="url(#p02e356091b)" style="fill: none; stroke: #b0b0b0; stroke-width: 0.8; stroke-linecap: square"/>
     </g>
     <g id="line2d_22">
      <g>
       <use xlink:href="#m3b0eccaf68" x="48.982813" y="133.823652" style="stroke: #000000; stroke-width: 0.8"/>
      </g>
     </g>
     <g id="text_12">
      <!-- 20 -->
      <g transform="translate(29.257812 137.622871)scale(0.1 -0.1)">
       <use xlink:href="#DejaVuSans-32"/>
       <use xlink:href="#DejaVuSans-30" x="63.623047"/>
      </g>
     </g>
    </g>
    <g id="ytick_5">
     <g id="line2d_23">
      <path d="M 48.982813 42.883121 
L 718.582813 42.883121 
" clip-path="url(#p02e356091b)" style="fill: none; stroke: #b0b0b0; stroke-width: 0.8; stroke-linecap: square"/>
     </g>
     <g id="line2d_24">
      <g>
       <use xlink:href="#m3b0eccaf68" x="48.982813" y="42.883121" style="stroke: #000000; stroke-width: 0.8"/>
      </g>
     </g>
     <g id="text_13">
      <!-- 30 -->
      <g transform="translate(29.257812 46.68234)scale(0.1 -0.1)">
       <use xlink:href="#DejaVuSans-33"/>
       <use xlink:href="#DejaVuSans-30" x="63.623047"/>
      </g>
     </g>
    </g>
    <g id="text_14">
     <!-- Voltage [V] -->
     <g transform="translate(14.798437 252.307187)rotate(-90)scale(0.1 -0.1)">
      <defs>
       <path id="DejaVuSans-56" d="M 1831 0 
L 50 4666 
L 709 4666 
L 2188 738 
L 3669 4666 
L 4325 4666 
L 2547 0 
L 1831 0 
z
" transform="scale(0.015625)"/>
       <path id="DejaVuSans-6f" d="M 1959 3097 
Q 1497 3097 1228 2736 
Q 959 2375 959 1747 
Q 959 1119 1226 758 
Q 1494 397 1959 397 
Q 2419 397 2687 759 
Q 2956 1122 2956 1747 
Q 2956 2369 2687 2733 
Q 2419 3097 1959 3097 
z
M 1959 3584 
Q 2709 3584 3137 3096 
Q 3566 2609 3566 1747 
Q 3566 888 3137 398 
Q 2709 -91 1959 -91 
Q 1206 -91 779 398 
Q 353 888 353 1747 
Q 353 2609 779 3096 
Q 1206 3584 1959 3584 
z
" transform="scale(0.015625)"/>
       <path id="DejaVuSans-6c" d="M 603 4863 
L 1178 4863 
L 1178 0 
L 603 0 
L 603 4863 
z
" transform="scale(0.015625)"/>
       <path id="DejaVuSans-61" d="M 2194 1759 
Q 1497 1759 1228 1600 
Q 959 1441 959 1056 
Q 959 750 1161 570 
Q 1363 391 1709 391 
Q 2188 391 2477 730 
Q 2766 1069 2766 1631 
L 2766 1759 
L 2194 1759 
z
M 3341 1997 
L 3341 0 
L 2766 0 
L 2766 531 
Q 2569 213 2275 61 
Q 1981 -91 1556 -91 
Q 1019 -91 701 211 
Q 384 513 384 1019 
Q 384 1609 779 1909 
Q 1175 2209 1959 2209 
L 2766 2209 
L 2766 2266 
Q 2766 2663 2505 2880 
Q 2244 3097 1772 3097 
Q 1472 3097 1187 3025 
Q 903 2953 641 2809 
L 641 3341 
Q 956 3463 1253 3523 
Q 1550 3584 1831 3584 
Q 2591 3584 2966 3190 
Q 3341 2797 3341 1997 
z
" transform="scale(0.015625)"/>
       <path id="DejaVuSans-67" d="M 2906 1791 
Q 2906 2416 2648 2759 
Q 2391 3103 1925 3103 
Q 1463 3103 1205 2759 
Q 947 2416 947 1791 
Q 947 1169 1205 825 
Q 1463 481 1925 481 
Q 2391 481 2648 825 
Q 2906 1169 2906 1791 
z
M 3481 434 
Q 3481 -459 3084 -895 
Q 2688 -1331 1869 -1331 
Q 1566 -1331 1297 -1286 
Q 1028 -1241 775 -1147 
L 775 -588 
Q 1028 -725 1275 -790 
Q 1522 -856 1778 -856 
Q 2344 -856 2625 -561 
Q 2906 -266 2906 331 
L 2906 616 
Q 2728 306 2450 153 
Q 2172 0 1784 0 
Q 1141 0 747 490 
Q 353 981 353 1791 
Q 353 2603 747 3093 
Q 1141 3584 1784 3584 
Q 2172 3584 2450 3431 
Q 2728 3278 2906 2969 
L 2906 3500 
L 3481 3500 
L 3481 434 
z
" transform="scale(0.015625)"/>
       <path id="DejaVuSans-65" d="M 3597 1894 
L 3597 1613 
L 953 1613 
Q 991 1019 1311 708 
Q 1631 397 2203 397 
Q 2534 397 2845 478 
Q 3156 559 3463 722 
L 3463 178 
Q 3153 47 2828 -22 
Q 2503 -91 2169 -91 
Q 1331 -91 842 396 
Q 353 884 353 1716 
Q 353 2575 817 3079 
Q 1281 3584 2069 3584 
Q 2775 3584 3186 3129 
Q 3597 2675 3597 1894 
z
M 3022 2063 
Q 3016 2534 2758 2815 
Q 2500 3097 2075 3097 
Q 1594 3097 1305 2825 
Q 1016 2553 972 2059 
L 3022 2063 
z
" transform="scale(0.015625)"/>
      </defs>
      <use xlink:href="#DejaVuSans-56"/>
      <use xlink:href="#DejaVuSans-6f" x="60.658203"/>
      <use xlink:href="#DejaVuSans-6c" x="121.839844"/>
      <use xlink:href="#DejaVuSans-74" x="149.623047"/>
      <use xlink:href="#DejaVuSans-61" x="188.832031"/>
      <use xlink:href="#DejaVuSans-67" x="250.111328"/>
      <use xlink:href="#DejaVuSans-65" x="313.587891"/>
      <use xlink:href="#DejaVuSans-20" x="375.111328"/>
      <use xlink:href="#DejaVuSans-5b" x="406.898438"/>
      <use xlink:href="#DejaVuSans-56" x="445.912109"/>
      <use xlink:href="#DejaVuSans-5d" x="514.320312"/>
     </g>
    </g>
   </g>
   <g id="line2d_25">
    <path d="M 48.855458 141.205882 
L 48.982812 141.205326 
L 59.808013 229.341049 
L 71.191213 321.579185 
L 71.459053 321.646493 
L 77.217613 321.365368 
L 79.003213 321.079865 
L 79.449613 320.878084 
L 79.672813 320.650749 
L 79.896013 320.014477 
L 80.119213 318.269763 
L 80.74152 308.786604 
L 80.924927 308.954665 
L 81.127667 308.745431 
L 81.350867 308.836062 
L 81.574067 308.69908 
L 81.797267 308.758029 
L 82.020467 308.658543 
L 82.243667 308.700692 
L 82.690067 308.654129 
L 83.359667 308.564008 
L 84.029267 308.555411 
L 84.922067 308.506738 
L 86.038067 308.440737 
L 87.600467 308.400937 
L 89.609267 308.33409 
L 92.957267 308.268893 
L 96.751667 308.200112 
L 103.670867 308.115445 
L 112.152467 308.035117 
L 124.428467 307.948153 
L 155.453267 307.813914 
L 187.370867 307.741569 
L 333.790067 307.872897 
L 383.782813 308.063244 
L 393.492013 229.017385 
L 405.991213 127.905068 
L 406.259053 127.879671 
L 412.464013 128.202901 
L 413.803213 128.434581 
L 414.249613 128.621224 
L 414.472813 128.819908 
L 414.696013 129.330141 
L 414.919213 130.80055 
L 415.142413 134.056066 
L 415.365613 139.681905 
L 415.526683 140.504356 
L 415.700552 140.318724 
L 415.918347 140.546377 
L 416.141547 140.453113 
L 416.364747 140.595183 
L 416.587947 140.531152 
L 416.811147 140.642114 
L 417.034347 140.593944 
L 417.480747 140.637123 
L 418.150347 140.732313 
L 418.819947 140.743295 
L 419.935947 140.81771 
L 421.498347 140.859509 
L 423.060747 140.919103 
L 425.515947 140.969768 
L 428.640747 141.030301 
L 432.881547 141.09741 
L 440.693547 141.179052 
L 450.291147 141.255013 
L 472.387947 141.363985 
L 497.609547 141.438125 
L 689.115147 141.314634 
L 718.593343 141.289601 
L 718.593343 141.289601 
" clip-path="url(#p02e356091b)" style="fill: none; stroke: #1f77b4; stroke-width: 1.5; stroke-linecap: square"/>
   </g>
   <g id="line2d_26">
    <path d="M 48.855458 27.238403 
L 50.880013 27.475312 
L 52.888813 27.925671 
L 54.897613 28.593653 
L 56.906413 29.481954 
L 58.915213 30.593166 
L 61.147213 32.09231 
L 63.379213 33.872984 
L 65.611213 35.938286 
L 67.843213 38.291141 
L 70.298413 41.214669 
L 73.646413 45.636797 
L 78.780013 52.758529 
L 90.725267 69.941938 
L 96.974867 79.520841 
L 103.670867 90.210518 
L 110.813267 102.041064 
L 118.625267 115.413024 
L 127.553267 131.145398 
L 138.266867 150.494945 
L 153.667667 178.825352 
L 177.996467 223.570964 
L 189.379667 244.014943 
L 198.977267 260.81449 
L 207.682067 275.615018 
L 215.717267 288.846927 
L 223.306067 300.918567 
L 230.448467 311.867957 
L 237.367667 322.0662 
L 243.840467 331.220838 
L 250.090067 339.689274 
L 256.116467 347.4972 
L 262.142867 354.942281 
L 267.946067 361.759578 
L 273.526067 367.981864 
L 279.106067 373.872149 
L 284.462867 379.210153 
L 289.819667 384.234622 
L 294.953267 388.753239 
L 300.086867 392.980145 
L 305.220467 396.9145 
L 310.130867 400.403855 
L 315.041267 403.625704 
L 319.951667 406.580901 
L 324.862067 409.270788 
L 329.549267 411.592576 
L 334.236467 413.676245 
L 338.923667 415.52413 
L 343.610867 417.138921 
L 348.298067 418.523648 
L 352.985267 419.681669 
L 357.672467 420.616656 
L 362.359667 421.332579 
L 367.270067 421.852276 
L 372.180467 422.141436 
L 377.090867 422.205581 
L 382.001267 422.050526 
L 385.456813 421.751576 
L 387.465613 421.327213 
L 389.474413 420.685549 
L 391.483213 419.82388 
L 393.492013 418.739601 
L 395.724013 417.270725 
L 397.956013 415.520665 
L 400.188013 413.486307 
L 402.420013 411.164711 
L 404.875213 408.275908 
L 408.000013 404.181019 
L 413.133613 397.10388 
L 424.623147 380.649241 
L 430.649547 371.48328 
L 437.122347 361.231904 
L 444.264747 349.48738 
L 452.076747 336.195184 
L 460.781547 320.932541 
L 471.048747 302.466859 
L 484.887147 277.085048 
L 514.795947 222.110939 
L 525.955947 202.150602 
L 535.553547 185.43846 
L 544.035147 171.102954 
L 552.070347 157.956504 
L 559.435947 146.319535 
L 566.578347 135.446759 
L 573.274347 125.647098 
L 579.747147 116.556474 
L 585.996747 108.152296 
L 592.023147 100.408361 
L 598.049547 93.02902 
L 603.852747 86.276463 
L 609.432747 80.117559 
L 615.012747 74.291582 
L 620.369547 69.016021 
L 625.726347 64.054529 
L 630.859947 59.596628 
L 635.993547 55.43066 
L 641.127147 51.557338 
L 646.037547 48.12634 
L 650.947947 44.962715 
L 655.858347 42.065509 
L 660.768747 39.43328 
L 665.455947 37.16613 
L 670.143147 35.136628 
L 674.830347 33.34236 
L 679.517547 31.780561 
L 684.204747 30.448127 
L 688.891947 29.341632 
L 693.579147 28.457338 
L 698.266347 27.791209 
L 703.176747 27.32265 
L 708.087147 27.083509 
L 712.997547 27.068202 
L 717.907947 27.270856 
L 718.593343 27.316138 
L 718.593343 27.316138 
" clip-path="url(#p02e356091b)" style="fill: none; stroke: #ff7f0e; stroke-width: 1.5; stroke-linecap: square"/>
   </g>
   <g id="line2d_27">
    <path d="M 48.855458 279.297641 
L 51.326413 280.93013 
L 53.781613 282.810298 
L 56.460013 285.150123 
L 59.138413 287.785689 
L 62.040013 290.967889 
L 64.941613 294.482855 
L 68.066413 298.631562 
L 71.369773 303.41529 
L 78.556813 314.003773 
L 82.243667 319.145802 
L 89.162867 328.293309 
L 95.858867 336.775643 
L 102.331667 344.615843 
L 108.581267 351.838269 
L 114.607667 358.469543 
L 120.634067 364.765262 
L 126.437267 370.503983 
L 132.017267 375.717288 
L 137.597267 380.627915 
L 142.954067 385.054513 
L 148.310867 389.197359 
L 153.667667 393.055165 
L 158.801267 396.484183 
L 163.934867 399.650884 
L 169.068467 402.555843 
L 174.202067 405.200162 
L 179.335667 407.585453 
L 184.246067 409.626597 
L 189.156467 411.434928 
L 194.066867 413.013085 
L 198.977267 414.364074 
L 203.887667 415.49126 
L 208.798067 416.398344 
L 213.931667 417.115694 
L 219.065267 417.601838 
L 224.198867 417.86208 
L 229.332467 417.90205 
L 234.689267 417.715335 
L 240.046067 417.30232 
L 245.402867 416.670391 
L 250.982867 415.787622 
L 256.786067 414.636049 
L 262.589267 413.256685 
L 268.615667 411.594639 
L 274.865267 409.636874 
L 281.338067 407.372558 
L 288.034067 404.793375 
L 295.176467 401.796542 
L 302.542067 398.462867 
L 310.354067 394.683681 
L 318.835667 390.329391 
L 327.986867 385.378828 
L 338.254067 379.567195 
L 350.306867 372.479248 
L 366.154067 362.881053 
L 385.903213 350.674998 
L 388.358413 348.819113 
L 391.036813 346.505313 
L 393.715213 343.895284 
L 396.616813 340.740189 
L 399.518413 337.251741 
L 402.643213 333.130924 
L 405.768013 328.642161 
L 413.580013 317.14169 
L 417.257547 312.034408 
L 424.176747 302.900781 
L 430.872747 294.431655 
L 437.345547 286.604192 
L 443.595147 279.394024 
L 449.621547 272.774513 
L 455.424747 266.717153 
L 461.227947 260.97727 
L 466.807947 255.762568 
L 472.387947 250.850291 
L 477.744747 246.421887 
L 483.101547 242.277035 
L 488.458347 238.41704 
L 493.591947 234.985768 
L 498.725547 231.816674 
L 503.859147 228.909199 
L 508.992747 226.262255 
L 514.126347 223.874243 
L 519.036747 221.830421 
L 523.947147 220.019351 
L 528.857547 218.438404 
L 533.767947 217.084586 
L 538.678347 215.954544 
L 543.588747 215.044588 
L 548.722347 214.324227 
L 553.855947 213.835079 
L 558.989547 213.571849 
L 564.123147 213.528919 
L 569.479947 213.712583 
L 574.836747 214.122601 
L 580.193547 214.751595 
L 585.773547 215.631383 
L 591.576747 216.779951 
L 597.379947 218.156416 
L 603.406347 219.815576 
L 609.655947 221.770493 
L 616.128747 224.032024 
L 622.824747 226.608514 
L 629.967147 229.602696 
L 637.332747 232.933886 
L 645.144747 236.710721 
L 653.626347 241.062799 
L 662.777547 246.01138 
L 673.044747 251.821289 
L 685.097547 258.907885 
L 700.944747 268.505375 
L 718.593343 279.328819 
L 718.593343 279.328819 
" clip-path="url(#p02e356091b)" style="fill: none; stroke: #2ca02c; stroke-width: 1.5; stroke-linecap: square"/>
   </g>
   <g id="line2d_28">
    <path d="M 48.855458 133.85384 
L 48.982812 133.853776 
L 71.369773 315.704785 
L 140.722067 315.593386 
L 207.682067 315.538919 
L 305.443667 315.57044 
L 383.782813 315.644696 
L 406.259053 133.823598 
L 718.582813 133.853814 
L 718.593343 133.939412 
L 718.593343 133.939412 
" clip-path="url(#p02e356091b)" style="fill: none; stroke: #d62728; stroke-width: 1.5; stroke-linecap: square"/>
   </g>
   <g id="patch_3">
    <path d="M 48.982813 442.08 
L 48.982813 7.2 
" style="fill: none; stroke: #000000; stroke-width: 0.8; stroke-linejoin: miter; stroke-linecap: square"/>
   </g>
   <g id="patch_4">
    <path d="M 718.582813 442.08 
L 718.582813 7.2 
" style="fill: none; stroke: #000000; stroke-width: 0.8; stroke-linejoin: miter; stroke-linecap: square"/>
   </g>
   <g id="patch_5">
    <path d="M 48.982812 442.08 
L 718.582813 442.08 
" style="fill: none; stroke: #000000; stroke-width: 0.8; stroke-linejoin: miter; stroke-linecap: square"/>
   </g>
   <g id="patch_6">
    <path d="M 48.982812 7.2 
L 718.582813 7.2 
" style="fill: none; stroke: #000000; stroke-width: 0.8; stroke-linejoin: miter; stroke-linecap: square"/>
   </g>
   <g id="legend_1">
    <g id="patch_7">
     <path d="M 258.558812 102.8736 
L 362.158813 102.8736 
Q 364.158813 102.8736 364.158813 100.8736 
L 364.158813 43.1611 
Q 364.158813 41.1611 362.158813 41.1611 
L 258.558812 41.1611 
Q 256.558812 41.1611 256.558812 43.1611 
L 256.558812 100.8736 
Q 256.558812 102.8736 258.558812 102.8736 
z
" style="fill: #ffffff; opacity: 0.8; stroke: #cccccc; stroke-linejoin: miter"/>
    </g>
    <g id="line2d_29">
     <path d="M 260.558812 49.259537 
L 270.558812 49.259537 
L 280.558812 49.259537 
" style="fill: none; stroke: #1f77b4; stroke-width: 1.5; stroke-linecap: square"/>
    </g>
    <g id="text_15">
     <!-- V(2) [V] -->
     <g transform="translate(288.558812 52.759537)scale(0.1 -0.1)">
      <defs>
       <path id="DejaVuSans-28" d="M 1984 4856 
Q 1566 4138 1362 3434 
Q 1159 2731 1159 2009 
Q 1159 1288 1364 580 
Q 1569 -128 1984 -844 
L 1484 -844 
Q 1016 -109 783 600 
Q 550 1309 550 2009 
Q 550 2706 781 3412 
Q 1013 4119 1484 4856 
L 1984 4856 
z
" transform="scale(0.015625)"/>
       <path id="DejaVuSans-29" d="M 513 4856 
L 1013 4856 
Q 1481 4119 1714 3412 
Q 1947 2706 1947 2009 
Q 1947 1309 1714 600 
Q 1481 -109 1013 -844 
L 513 -844 
Q 928 -128 1133 580 
Q 1338 1288 1338 2009 
Q 1338 2731 1133 3434 
Q 928 4138 513 4856 
z
" transform="scale(0.015625)"/>
      </defs>
      <use xlink:href="#DejaVuSans-56"/>
      <use xlink:href="#DejaVuSans-28" x="68.408203"/>
      <use xlink:href="#DejaVuSans-32" x="107.421875"/>
      <use xlink:href="#DejaVuSans-29" x="171.044922"/>
      <use xlink:href="#DejaVuSans-20" x="210.058594"/>
      <use xlink:href="#DejaVuSans-5b" x="241.845703"/>
      <use xlink:href="#DejaVuSans-56" x="280.859375"/>
      <use xlink:href="#DejaVuSans-5d" x="349.267578"/>
     </g>
    </g>
    <g id="line2d_30">
     <path d="M 260.558812 63.937662 
L 270.558812 63.937662 
L 280.558812 63.937662 
" style="fill: none; stroke: #ff7f0e; stroke-width: 1.5; stroke-linecap: square"/>
    </g>
    <g id="text_16">
     <!-- V(5) [V] -->
     <g transform="translate(288.558812 67.437662)scale(0.1 -0.1)">
      <use xlink:href="#DejaVuSans-56"/>
      <use xlink:href="#DejaVuSans-28" x="68.408203"/>
      <use xlink:href="#DejaVuSans-35" x="107.421875"/>
      <use xlink:href="#DejaVuSans-29" x="171.044922"/>
      <use xlink:href="#DejaVuSans-20" x="210.058594"/>
      <use xlink:href="#DejaVuSans-5b" x="241.845703"/>
      <use xlink:href="#DejaVuSans-56" x="280.859375"/>
      <use xlink:href="#DejaVuSans-5d" x="349.267578"/>
     </g>
    </g>
    <g id="line2d_31">
     <path d="M 260.558812 78.615787 
L 270.558812 78.615787 
L 280.558812 78.615787 
" style="fill: none; stroke: #2ca02c; stroke-width: 1.5; stroke-linecap: square"/>
    </g>
    <g id="text_17">
     <!-- V(6) [V]  ($V_{out}$) -->
     <g transform="translate(288.558812 82.115787)scale(0.1 -0.1)">
      <defs>
       <path id="DejaVuSans-Oblique-56" d="M 1319 0 
L 500 4666 
L 1119 4666 
L 1797 653 
L 4063 4666 
L 4750 4666 
L 2053 0 
L 1319 0 
z
" transform="scale(0.015625)"/>
       <path id="DejaVuSans-Oblique-6f" d="M 1625 -91 
Q 1009 -91 651 289 
Q 294 669 294 1325 
Q 294 1706 417 2101 
Q 541 2497 738 2766 
Q 1047 3184 1428 3384 
Q 1809 3584 2291 3584 
Q 2888 3584 3255 3212 
Q 3622 2841 3622 2241 
Q 3622 1825 3500 1412 
Q 3378 1000 3181 728 
Q 2875 309 2494 109 
Q 2113 -91 1625 -91 
z
M 891 1344 
Q 891 869 1089 633 
Q 1288 397 1691 397 
Q 2269 397 2648 901 
Q 3028 1406 3028 2181 
Q 3028 2634 2825 2865 
Q 2622 3097 2228 3097 
Q 1903 3097 1650 2945 
Q 1397 2794 1197 2484 
Q 1050 2253 970 1956 
Q 891 1659 891 1344 
z
" transform="scale(0.015625)"/>
       <path id="DejaVuSans-Oblique-75" d="M 428 1388 
L 838 3500 
L 1416 3500 
L 1006 1409 
Q 975 1256 961 1147 
Q 947 1038 947 966 
Q 947 700 1109 554 
Q 1272 409 1569 409 
Q 2031 409 2368 721 
Q 2706 1034 2809 1563 
L 3194 3500 
L 3769 3500 
L 3091 0 
L 2516 0 
L 2631 550 
Q 2388 244 2052 76 
Q 1716 -91 1338 -91 
Q 878 -91 622 161 
Q 366 413 366 863 
Q 366 956 381 1097 
Q 397 1238 428 1388 
z
" transform="scale(0.015625)"/>
       <path id="DejaVuSans-Oblique-74" d="M 2706 3500 
L 2619 3053 
L 1472 3053 
L 1100 1153 
Q 1081 1047 1072 975 
Q 1063 903 1063 863 
Q 1063 663 1183 572 
Q 1303 481 1569 481 
L 2150 481 
L 2053 0 
L 1503 0 
Q 991 0 739 200 
Q 488 400 488 806 
Q 488 878 497 964 
Q 506 1050 525 1153 
L 897 3053 
L 409 3053 
L 500 3500 
L 978 3500 
L 1172 4494 
L 1747 4494 
L 1556 3500 
L 2706 3500 
z
" transform="scale(0.015625)"/>
      </defs>
      <use xlink:href="#DejaVuSans-56" transform="translate(0 0.015625)"/>
      <use xlink:href="#DejaVuSans-28" transform="translate(68.408203 0.015625)"/>
      <use xlink:href="#DejaVuSans-36" transform="translate(107.421875 0.015625)"/>
      <use xlink:href="#DejaVuSans-29" transform="translate(171.044922 0.015625)"/>
      <use xlink:href="#DejaVuSans-20" transform="translate(210.058594 0.015625)"/>
      <use xlink:href="#DejaVuSans-5b" transform="translate(241.845703 0.015625)"/>
      <use xlink:href="#DejaVuSans-56" transform="translate(280.859375 0.015625)"/>
      <use xlink:href="#DejaVuSans-5d" transform="translate(349.267578 0.015625)"/>
      <use xlink:href="#DejaVuSans-20" transform="translate(388.28125 0.015625)"/>
      <use xlink:href="#DejaVuSans-20" transform="translate(420.068359 0.015625)"/>
      <use xlink:href="#DejaVuSans-28" transform="translate(451.855469 0.015625)"/>
      <use xlink:href="#DejaVuSans-Oblique-56" transform="translate(490.869141 0.015625)"/>
      <use xlink:href="#DejaVuSans-Oblique-6f" transform="translate(559.277344 -16.390625)scale(0.7)"/>
      <use xlink:href="#DejaVuSans-Oblique-75" transform="translate(602.104492 -16.390625)scale(0.7)"/>
      <use xlink:href="#DejaVuSans-Oblique-74" transform="translate(646.469727 -16.390625)scale(0.7)"/>
      <use xlink:href="#DejaVuSans-29" transform="translate(676.650391 0.015625)"/>
     </g>
    </g>
    <g id="line2d_32">
     <path d="M 260.558812 93.293912 
L 270.558812 93.293912 
L 280.558812 93.293912 
" style="fill: none; stroke: #d62728; stroke-width: 1.5; stroke-linecap: square"/>
    </g>
    <g id="text_18">
     <!-- V(1) [V]  ($V_{in}$) -->
     <g transform="translate(288.558812 96.793912)scale(0.1 -0.1)">
      <defs>
       <path id="DejaVuSans-Oblique-69" d="M 1172 4863 
L 1747 4863 
L 1606 4134 
L 1031 4134 
L 1172 4863 
z
M 909 3500 
L 1484 3500 
L 800 0 
L 225 0 
L 909 3500 
z
" transform="scale(0.015625)"/>
       <path id="DejaVuSans-Oblique-6e" d="M 3566 2113 
L 3156 0 
L 2578 0 
L 2988 2091 
Q 3016 2238 3031 2350 
Q 3047 2463 3047 2528 
Q 3047 2791 2881 2937 
Q 2716 3084 2419 3084 
Q 1956 3084 1622 2776 
Q 1288 2469 1184 1941 
L 800 0 
L 225 0 
L 903 3500 
L 1478 3500 
L 1363 2950 
Q 1603 3253 1940 3418 
Q 2278 3584 2650 3584 
Q 3113 3584 3367 3334 
Q 3622 3084 3622 2631 
Q 3622 2519 3608 2391 
Q 3594 2263 3566 2113 
z
" transform="scale(0.015625)"/>
      </defs>
      <use xlink:href="#DejaVuSans-56" transform="translate(0 0.015625)"/>
      <use xlink:href="#DejaVuSans-28" transform="translate(68.408203 0.015625)"/>
      <use xlink:href="#DejaVuSans-31" transform="translate(107.421875 0.015625)"/>
      <use xlink:href="#DejaVuSans-29" transform="translate(171.044922 0.015625)"/>
      <use xlink:href="#DejaVuSans-20" transform="translate(210.058594 0.015625)"/>
      <use xlink:href="#DejaVuSans-5b" transform="translate(241.845703 0.015625)"/>
      <use xlink:href="#DejaVuSans-56" transform="translate(280.859375 0.015625)"/>
      <use xlink:href="#DejaVuSans-5d" transform="translate(349.267578 0.015625)"/>
      <use xlink:href="#DejaVuSans-20" transform="translate(388.28125 0.015625)"/>
      <use xlink:href="#DejaVuSans-20" transform="translate(420.068359 0.015625)"/>
      <use xlink:href="#DejaVuSans-28" transform="translate(451.855469 0.015625)"/>
      <use xlink:href="#DejaVuSans-Oblique-56" transform="translate(490.869141 0.015625)"/>
      <use xlink:href="#DejaVuSans-Oblique-69" transform="translate(559.277344 -16.390625)scale(0.7)"/>
      <use xlink:href="#DejaVuSans-Oblique-6e" transform="translate(578.725586 -16.390625)scale(0.7)"/>
      <use xlink:href="#DejaVuSans-29" transform="translate(625.825195 0.015625)"/>
     </g>
    </g>
   </g>
  </g>
 </g>
 <defs>
  <clipPath id="p02e356091b">
   <rect x="48.982813" y="7.2" width="669.6" height="434.88"/>
  </clipPath>
 </defs>
</svg>