<?xml version="1.0" encoding="utf-8" standalone="no"?>
<!DOCTYPE svg PUBLIC "-//W3C//DTD SVG 1.1//EN"
  "http://www.w3.org/Graphics/SVG/1.1/DTD/svg11.dtd">
<svg xmlns:xlink="http://www.w3.org/1999/xlink" width="347.76pt" height="343.693656pt" viewBox="0 0 347.76 343.693656" xmlns="http://www.w3.org/2000/svg" version="1.1">
 <metadata>
  <rdf:RDF xmlns:dc="http://purl.org/dc/elements/1.1/" xmlns:cc="http://creativecommons.org/ns#" xmlns:rdf="http://www.w3.org/1999/02/22-rdf-syntax-ns#">
   <cc:Work>
    <dc:type rdf:resource="http://purl.org/dc/dcmitype/StillImage"/>
    <dc:date>2023-09-25T20:52:01.653877</dc:date>
    <dc:format>image/svg+xml</dc:format>
    <dc:creator>
     <cc:Agent>
      <dc:title>Matplotlib v3.6.3, https://matplotlib.org/</dc:title>
     </cc:Agent>
    </dc:creator>
   </cc:Work>
  </rdf:RDF>
 </metadata>
 <defs>
  <style type="text/css">*{stroke-linejoin: round; stroke-linecap: butt}</style>
 </defs>
 <g id="figure_1">
  <g id="patch_1">
   <path d="M 0 343.693656 
L 347.76 343.693656 
L 347.76 0 
L 0 0 
z
" style="fill: #ffffff"/>
  </g>
  <g id="axes_1">
   <g id="patch_2">
    <path d="M 36.675 261.277656 
C 40.255242 261.277656 43.689328 259.855211 46.220942 257.323598 
C 48.752555 254.791985 50.175 251.357898 50.175 247.777656 
C 50.175 244.197414 48.752555 240.763328 46.220942 238.231715 
C 43.689328 235.700101 40.255242 234.277656 36.675 234.277656 
C 33.094758 234.277656 29.660672 235.700101 27.129058 238.231715 
C 24.597445 240.763328 23.175 244.197414 23.175 247.777656 
C 23.175 251.357898 24.597445 254.791985 27.129058 257.323598 
C 29.660672 259.855211 33.094758 261.277656 36.675 261.277656 
L 36.675 261.277656 
z
" clip-path="url(#pe2c0e6a6f9)" style="fill: none; stroke: #000000; stroke-width: 2; stroke-linejoin: miter"/>
   </g>
   <g id="patch_3">
    <path d="M 216.735 69.697656 
C 218.643826 69.697656 220.476425 68.938569 221.826169 67.588825 
C 223.175913 66.239081 223.935 64.406483 223.935 62.497656 
C 223.935 60.58883 223.175913 58.756231 221.826169 57.406487 
C 220.476425 56.056743 218.643826 55.297656 216.735 55.297656 
" clip-path="url(#pe2c0e6a6f9)" style="fill: none; stroke: #000000; stroke-width: 2; stroke-linejoin: miter"/>
   </g>
   <g id="patch_4">
    <path d="M 216.735 84.097656 
C 218.643826 84.097656 220.476425 83.338569 221.826169 81.988825 
C 223.175913 80.639081 223.935 78.806483 223.935 76.897656 
C 223.935 74.98883 223.175913 73.156231 221.826169 71.806487 
C 220.476425 70.456743 218.643826 69.697656 216.735 69.697656 
" clip-path="url(#pe2c0e6a6f9)" style="fill: none; stroke: #000000; stroke-width: 2; stroke-linejoin: miter"/>
   </g>
   <g id="patch_5">
    <path d="M 216.735 98.497656 
C 218.643826 98.497656 220.476425 97.738569 221.826169 96.388825 
C 223.175913 95.039081 223.935 93.206483 223.935 91.297656 
C 223.935 89.38883 223.175913 87.556231 221.826169 86.206487 
C 220.476425 84.856743 218.643826 84.097656 216.735 84.097656 
" clip-path="url(#pe2c0e6a6f9)" style="fill: none; stroke: #000000; stroke-width: 2; stroke-linejoin: miter"/>
   </g>
   <g id="patch_6">
    <path d="M 216.735 112.897656 
C 218.643826 112.897656 220.476425 112.138569 221.826169 110.788825 
C 223.175913 109.439081 223.935 107.606483 223.935 105.697656 
C 223.935 103.78883 223.175913 101.956231 221.826169 100.606487 
C 220.476425 99.256743 218.643826 98.497656 216.735 98.497656 
" clip-path="url(#pe2c0e6a6f9)" style="fill: none; stroke: #000000; stroke-width: 2; stroke-linejoin: miter"/>
   </g>
   <g id="patch_7">
    <path d="M 216.735 127.297656 
C 218.643826 127.297656 220.476425 126.538569 221.826169 125.188825 
C 223.175913 123.839081 223.935 122.006483 223.935 120.097656 
C 223.935 118.18883 223.175913 116.356231 221.826169 115.006487 
C 220.476425 113.656743 218.643826 112.897656 216.735 112.897656 
" clip-path="url(#pe2c0e6a6f9)" style="fill: none; stroke: #000000; stroke-width: 2; stroke-linejoin: miter"/>
   </g>
   <g id="patch_8">
    <path d="M 216.735 141.697656 
C 218.643826 141.697656 220.476425 140.938569 221.826169 139.588825 
C 223.175913 138.239081 223.935 136.406483 223.935 134.497656 
C 223.935 132.58883 223.175913 130.756231 221.826169 129.406487 
C 220.476425 128.056743 218.643826 127.297656 216.735 127.297656 
" clip-path="url(#pe2c0e6a6f9)" style="fill: none; stroke: #000000; stroke-width: 2; stroke-linejoin: miter"/>
   </g>
   <g id="patch_9">
    <path d="M 252.735 69.697656 
C 250.826174 69.697656 248.993575 70.456743 247.643831 71.806487 
C 246.294087 73.156231 245.535 74.98883 245.535 76.897656 
C 245.535 78.806483 246.294087 80.639081 247.643831 81.988825 
C 248.993575 83.338569 250.826174 84.097656 252.735 84.097656 
" clip-path="url(#pe2c0e6a6f9)" style="fill: none; stroke: #000000; stroke-width: 2; stroke-linejoin: miter"/>
   </g>
   <g id="patch_10">
    <path d="M 252.735 84.097656 
C 250.826174 84.097656 248.993575 84.856743 247.643831 86.206487 
C 246.294087 87.556231 245.535 89.38883 245.535 91.297656 
C 245.535 93.206483 246.294087 95.039081 247.643831 96.388825 
C 248.993575 97.738569 250.826174 98.497656 252.735 98.497656 
" clip-path="url(#pe2c0e6a6f9)" style="fill: none; stroke: #000000; stroke-width: 2; stroke-linejoin: miter"/>
   </g>
   <g id="patch_11">
    <path d="M 252.735 98.497656 
C 250.826174 98.497656 248.993575 99.256743 247.643831 100.606487 
C 246.294087 101.956231 245.535 103.78883 245.535 105.697656 
C 245.535 107.606483 246.294087 109.439081 247.643831 110.788825 
C 248.993575 112.138569 250.826174 112.897656 252.735 112.897656 
" clip-path="url(#pe2c0e6a6f9)" style="fill: none; stroke: #000000; stroke-width: 2; stroke-linejoin: miter"/>
   </g>
   <g id="patch_12">
    <path d="M 252.735 112.897656 
C 250.826174 112.897656 248.993575 113.656743 247.643831 115.006487 
C 246.294087 116.356231 245.535 118.18883 245.535 120.097656 
C 245.535 122.006483 246.294087 123.839081 247.643831 125.188825 
C 248.993575 126.538569 250.826174 127.297656 252.735 127.297656 
" clip-path="url(#pe2c0e6a6f9)" style="fill: none; stroke: #000000; stroke-width: 2; stroke-linejoin: miter"/>
   </g>
   <g id="line2d_1">
    <path d="M 144.675 193.777656 
L 157.875 193.777656 
" clip-path="url(#pe2c0e6a6f9)" style="fill: none; stroke: #000000; stroke-width: 2; stroke-linecap: round"/>
   </g>
   <g id="line2d_2">
    <path d="M 157.875 180.577656 
L 157.875 206.977656 
" clip-path="url(#pe2c0e6a6f9)" style="fill: none; stroke: #000000; stroke-width: 2; stroke-linecap: round"/>
   </g>
   <g id="line2d_3">
    <path d="M 157.875 187.177656 
L 171.735 175.297656 
L 171.735 168.697656 
" clip-path="url(#pe2c0e6a6f9)" style="fill: none; stroke: #000000; stroke-width: 2; stroke-linecap: round"/>
   </g>
   <g id="line2d_4">
    <path d="M 157.875 200.377656 
L 171.735 212.257656 
L 171.735 218.857656 
" clip-path="url(#pe2c0e6a6f9)" style="fill: none; stroke: #000000; stroke-width: 2; stroke-linecap: round"/>
   </g>
   <g id="line2d_5">
    <path d="M 157.875 200.377656 
L 164.901691 206.400534 
" clip-path="url(#pe2c0e6a6f9)" style="fill: none; stroke: #000000; stroke-width: 2; stroke-linecap: round"/>
   </g>
   <g id="patch_13">
    <path d="M 167.24454 203.66721 
L 171.735 212.257656 
L 162.558842 209.133858 
z
" clip-path="url(#pe2c0e6a6f9)"/>
   </g>
   <g id="line2d_6">
    <path d="M 144.675 193.777656 
L 93.915 193.777656 
M 93.915 202.777656 
L 93.915 184.777656 
M 87.435 202.777656 
L 87.435 184.777656 
M 87.435 193.777656 
L 36.675 193.777656 
" clip-path="url(#pe2c0e6a6f9)" style="fill: none; stroke: #000000; stroke-width: 2; stroke-linecap: round"/>
   </g>
   <g id="line2d_7">
    <path d="M 144.675 193.777656 
L 144.675 234.277656 
L 146.89814 234.378208 
L 149.14133 234.683976 
L 151.216438 235.188157 
L 152.949426 235.86731 
L 154.194953 236.683316 
L 154.600411 237.127482 
L 154.848558 237.586583 
L 154.934163 238.053311 
L 154.855423 238.520196 
L 154.613997 238.979765 
L 154.214974 239.424698 
L 152.980923 240.243072 
L 151.256768 240.925525 
L 149.187113 241.433663 
L 146.945535 241.743712 
L 144.720032 241.848511 
L 142.697254 241.758113 
L 141.046849 241.498943 
L 139.907232 241.111579 
L 139.373982 240.647352 
L 139.350841 240.404349 
L 139.491823 240.164038 
L 140.25087 239.721015 
L 141.587463 239.37428 
L 143.389506 239.171757 
L 145.505862 239.149273 
L 147.759037 239.327557 
L 149.96006 239.710498 
L 151.924334 240.284824 
L 153.48712 241.021207 
L 154.517348 241.876733 
L 154.803781 242.332913 
L 154.928616 242.798491 
L 154.889222 243.266022 
L 154.686429 243.728018 
L 154.324513 244.17711 
L 153.157016 245.008608 
L 151.484647 245.709622 
L 149.447665 246.240202 
L 147.216908 246.574691 
L 144.979467 246.703879 
L 142.922993 246.635774 
L 141.219958 246.39493 
L 140.013194 246.020389 
L 139.40391 245.562405 
L 139.341397 245.31987 
L 139.443206 245.078233 
L 139.70719 244.844954 
L 140.696128 244.432285 
L 142.225269 244.135314 
L 144.166366 243.99779 
L 146.356624 244.050091 
L 148.612348 244.306672 
L 150.744354 244.764857 
L 152.573835 245.405061 
L 153.947354 246.192434 
L 154.425345 246.626941 
L 154.749716 247.079783 
L 154.913629 247.543783 
L 154.913629 248.011529 
L 154.749716 248.475529 
L 154.425345 248.928372 
L 153.947354 249.362878 
L 152.573835 250.150251 
L 150.744354 250.790455 
L 148.612348 251.24864 
L 146.356624 251.505221 
L 144.166366 251.557522 
L 142.225269 251.419999 
L 140.696128 251.123028 
L 139.70719 250.710358 
L 139.443206 250.47708 
L 139.341397 250.235443 
L 139.40391 249.992907 
L 139.629427 249.756954 
L 140.547122 249.333865 
L 142.017518 249.020502 
L 143.917295 248.861989 
L 146.087121 248.890463 
L 148.345016 249.122378 
L 150.501614 249.557126 
L 152.376044 250.177089 
L 153.811101 250.949114 
L 154.324513 251.378203 
L 154.686429 251.827294 
L 154.889222 252.289291 
L 154.928616 252.756821 
L 154.803781 253.2224 
L 154.517348 253.67858 
L 154.075356 254.118114 
L 152.76504 254.920153 
L 150.982725 255.580095 
L 148.877894 256.061434 
L 146.627073 256.342642 
L 144.419037 256.418979 
L 142.438969 256.302884 
L 140.852936 256.022937 
L 139.793955 255.621459 
L 139.350841 255.150964 
L 139.373982 254.90796 
L 139.560758 254.669754 
L 140.406101 254.23703 
L 141.81597 253.907927 
L 143.672124 253.728889 
L 145.81889 253.733773 
L 148.07622 253.941013 
L 150.254797 254.352071 
L 152.171907 254.951314 
L 153.666764 255.707327 
L 154.613997 256.575547 
L 154.855423 257.035116 
L 154.934163 257.502001 
L 154.848558 257.968729 
L 154.600411 258.427831 
L 154.194953 258.871996 
L 152.949426 259.688003 
L 151.216438 260.367155 
L 149.14133 260.871336 
L 146.89814 261.177104 
L 144.675 261.277656 
L 144.675 301.777656 
L 144.675 301.777656 
" clip-path="url(#pe2c0e6a6f9)" style="fill: none; stroke: #000000; stroke-width: 2; stroke-linecap: round"/>
   </g>
   <g id="line2d_8">
    <path d="M 36.675 193.777656 
L 36.675 234.277656 
L 36.675 234.277656 
M 36.675 261.277656 
L 36.675 261.277656 
L 36.675 301.777656 
" clip-path="url(#pe2c0e6a6f9)" style="fill: none; stroke: #000000; stroke-width: 2; stroke-linecap: round"/>
   </g>
   <g id="line2d_9">
    <path d="M 33.975 241.027656 
L 39.375 241.027656 
" clip-path="url(#pe2c0e6a6f9)" style="fill: none; stroke: #000000; stroke-width: 2; stroke-linecap: round"/>
   </g>
   <g id="line2d_10">
    <path d="M 36.675 251.827656 
L 36.675 257.227656 
" clip-path="url(#pe2c0e6a6f9)" style="fill: none; stroke: #000000; stroke-width: 2; stroke-linecap: round"/>
   </g>
   <g id="line2d_11">
    <path d="M 33.975 254.527656 
L 39.375 254.527656 
" clip-path="url(#pe2c0e6a6f9)" style="fill: none; stroke: #000000; stroke-width: 2; stroke-linecap: round"/>
   </g>
   <g id="line2d_12">
    <path d="M 36.675 301.777656 
L 104.205 301.777656 
L 171.735 301.777656 
" clip-path="url(#pe2c0e6a6f9)" style="fill: none; stroke: #000000; stroke-width: 2; stroke-linecap: round"/>
   </g>
   <g id="line2d_13">
    <path d="M 171.735 301.777656 
L 171.735 316.177656 
L 162.735 316.177656 
L 180.735 316.177656 
M 165.435 320.497656 
L 178.035 320.497656 
M 169.935 324.817656 
L 173.535 324.817656 
" clip-path="url(#pe2c0e6a6f9)" style="fill: none; stroke: #000000; stroke-width: 2; stroke-linecap: round"/>
   </g>
   <g id="line2d_14">
    <path d="M 171.735 301.777656 
L 171.735 260.317656 
L 171.735 218.857656 
" clip-path="url(#pe2c0e6a6f9)" style="fill: none; stroke: #000000; stroke-width: 2; stroke-linecap: round"/>
   </g>
   <g id="line2d_15">
    <path d="M 171.735 168.697656 
L 171.735 155.197656 
L 171.735 141.697656 
" clip-path="url(#pe2c0e6a6f9)" style="fill: none; stroke: #000000; stroke-width: 2; stroke-linecap: round"/>
   </g>
   <g id="line2d_16">
    <path d="M 171.735 141.697656 
L 171.735 90.937656 
M 162.735 90.937656 
L 180.735 90.937656 
M 162.735 84.457656 
L 180.735 84.457656 
M 171.735 84.457656 
L 171.735 33.697656 
" clip-path="url(#pe2c0e6a6f9)" style="fill: none; stroke: #000000; stroke-width: 2; stroke-linecap: round"/>
   </g>
   <g id="line2d_17">
    <path d="M 171.735 141.697656 
L 194.235 141.697656 
L 216.735 141.697656 
" clip-path="url(#pe2c0e6a6f9)" style="fill: none; stroke: #000000; stroke-width: 2; stroke-linecap: round"/>
   </g>
   <g id="line2d_18">
    <path d="M 231.135 55.297656 
L 231.135 141.697656 
" clip-path="url(#pe2c0e6a6f9)" style="fill: none; stroke: #000000; stroke-width: 2; stroke-linecap: round"/>
   </g>
   <g id="line2d_19">
    <path d="M 238.335 55.297656 
L 238.335 141.697656 
" clip-path="url(#pe2c0e6a6f9)" style="fill: none; stroke: #000000; stroke-width: 2; stroke-linecap: round"/>
   </g>
   <g id="line2d_20">
    <path d="M 216.735 55.297656 
L 194.235 55.297656 
L 171.735 55.297656 
" clip-path="url(#pe2c0e6a6f9)" style="fill: none; stroke: #000000; stroke-width: 2; stroke-linecap: round"/>
   </g>
   <g id="line2d_21">
    <path d="M 252.735 69.697656 
L 284.235 69.697656 
L 315.735 69.697656 
" clip-path="url(#pe2c0e6a6f9)" style="fill: none; stroke: #000000; stroke-width: 2; stroke-linecap: round"/>
   </g>
   <g id="line2d_22">
    <path d="M 252.735 127.297656 
L 266.235 127.297656 
L 279.735 127.297656 
" clip-path="url(#pe2c0e6a6f9)" style="fill: none; stroke: #000000; stroke-width: 2; stroke-linecap: round"/>
   </g>
   <g id="line2d_23">
    <path d="M 279.735 127.297656 
L 279.735 141.697656 
L 270.735 141.697656 
L 288.735 141.697656 
M 273.435 146.017656 
L 286.035 146.017656 
M 277.935 150.337656 
L 281.535 150.337656 
" clip-path="url(#pe2c0e6a6f9)" style="fill: none; stroke: #000000; stroke-width: 2; stroke-linecap: round"/>
   </g>
   <g id="line2d_24">
    <path d="M 171.735 33.697656 
L 171.735 19.297656 
" clip-path="url(#pe2c0e6a6f9)" style="fill: none; stroke: #000000; stroke-width: 2; stroke-linecap: round"/>
   </g>
   <g id="line2d_25">
    <path d="M 171.735 19.297656 
L 164.985 19.297656 
" clip-path="url(#pe2c0e6a6f9)" style="fill: none; stroke: #000000; stroke-width: 2; stroke-linecap: round"/>
   </g>
   <g id="line2d_26">
    <path d="M 171.735 19.297656 
L 178.485 19.297656 
" clip-path="url(#pe2c0e6a6f9)" style="fill: none; stroke: #000000; stroke-width: 2; stroke-linecap: round"/>
   </g>
   <g id="text_1">
    <!-- $C_{in}$ -->
    <g transform="translate(82.1125 178.578047) scale(0.125 -0.125)">
     <defs>
      <path id="DejaVuSans-Oblique-43" d="M 4447 4306 
L 4319 3641 
Q 4019 3944 3683 4091 
Q 3347 4238 2956 4238 
Q 2422 4238 2017 3981 
Q 1613 3725 1319 3200 
Q 1131 2863 1032 2486 
Q 934 2109 934 1728 
Q 934 1091 1264 756 
Q 1594 422 2222 422 
Q 2656 422 3056 561 
Q 3456 700 3834 978 
L 3688 231 
Q 3316 72 2936 -9 
Q 2556 -91 2175 -91 
Q 1278 -91 773 396 
Q 269 884 269 1753 
Q 269 2309 461 2846 
Q 653 3384 1013 3828 
Q 1394 4300 1883 4525 
Q 2372 4750 3022 4750 
Q 3422 4750 3780 4639 
Q 4138 4528 4447 4306 
z
" transform="scale(0.015625)"/>
      <path id="DejaVuSans-Oblique-69" d="M 1172 4863 
L 1747 4863 
L 1606 4134 
L 1031 4134 
L 1172 4863 
z
M 909 3500 
L 1484 3500 
L 800 0 
L 225 0 
L 909 3500 
z
" transform="scale(0.015625)"/>
      <path id="DejaVuSans-Oblique-6e" d="M 3566 2113 
L 3156 0 
L 2578 0 
L 2988 2091 
Q 3016 2238 3031 2350 
Q 3047 2463 3047 2528 
Q 3047 2791 2881 2937 
Q 2716 3084 2419 3084 
Q 1956 3084 1622 2776 
Q 1288 2469 1184 1941 
L 800 0 
L 225 0 
L 903 3500 
L 1478 3500 
L 1363 2950 
Q 1603 3253 1940 3418 
Q 2278 3584 2650 3584 
Q 3113 3584 3367 3334 
Q 3622 3084 3622 2631 
Q 3622 2519 3608 2391 
Q 3594 2263 3566 2113 
z
" transform="scale(0.015625)"/>
     </defs>
     <use xlink:href="#DejaVuSans-Oblique-43" transform="translate(0 0.78125)"/>
     <use xlink:href="#DejaVuSans-Oblique-69" transform="translate(69.824219 -15.625) scale(0.7)"/>
     <use xlink:href="#DejaVuSans-Oblique-6e" transform="translate(89.272461 -15.625) scale(0.7)"/>
    </g>
   </g>
   <g id="text_2">
    <!-- $L_{in}$ -->
    <g transform="translate(121.266397 251.226875) scale(0.125 -0.125)">
     <defs>
      <path id="DejaVuSans-Oblique-4c" d="M 1075 4666 
L 1709 4666 
L 909 525 
L 3181 525 
L 3078 0 
L 172 0 
L 1075 4666 
z
" transform="scale(0.015625)"/>
     </defs>
     <use xlink:href="#DejaVuSans-Oblique-4c" transform="translate(0 0.09375)"/>
     <use xlink:href="#DejaVuSans-Oblique-69" transform="translate(55.712891 -16.3125) scale(0.7)"/>
     <use xlink:href="#DejaVuSans-Oblique-6e" transform="translate(75.161133 -16.3125) scale(0.7)"/>
    </g>
   </g>
   <g id="text_3">
    <!-- $V_{in}$ -->
    <g transform="translate(3.6 251.226875) scale(0.125 -0.125)">
     <defs>
      <path id="DejaVuSans-Oblique-56" d="M 1319 0 
L 500 4666 
L 1119 4666 
L 1797 653 
L 4063 4666 
L 4750 4666 
L 2053 0 
L 1319 0 
z
" transform="scale(0.015625)"/>
     </defs>
     <use xlink:href="#DejaVuSans-Oblique-56" transform="translate(0 0.09375)"/>
     <use xlink:href="#DejaVuSans-Oblique-69" transform="translate(68.408203 -16.3125) scale(0.7)"/>
     <use xlink:href="#DejaVuSans-Oblique-6e" transform="translate(87.856445 -16.3125) scale(0.7)"/>
    </g>
   </g>
   <g id="text_4">
    <!-- $C_1$ -->
    <g transform="translate(144.385 91.146875) scale(0.125 -0.125)">
     <defs>
      <path id="DejaVuSans-31" d="M 794 531 
L 1825 531 
L 1825 4091 
L 703 3866 
L 703 4441 
L 1819 4666 
L 2450 4666 
L 2450 531 
L 3481 531 
L 3481 0 
L 794 0 
L 794 531 
z
" transform="scale(0.015625)"/>
     </defs>
     <use xlink:href="#DejaVuSans-Oblique-43" transform="translate(0 0.78125)"/>
     <use xlink:href="#DejaVuSans-31" transform="translate(69.824219 -15.625) scale(0.7)"/>
    </g>
   </g>
   <g id="text_5">
    <!-- $V_{dd}$ -->
    <g transform="translate(161.6725 13.098047) scale(0.125 -0.125)">
     <defs>
      <path id="DejaVuSans-Oblique-64" d="M 2675 525 
Q 2444 222 2128 65 
Q 1813 -91 1428 -91 
Q 903 -91 598 267 
Q 294 625 294 1247 
Q 294 1766 478 2236 
Q 663 2706 1013 3078 
Q 1244 3325 1534 3454 
Q 1825 3584 2144 3584 
Q 2481 3584 2739 3421 
Q 2997 3259 3138 2956 
L 3513 4863 
L 4091 4863 
L 3144 0 
L 2566 0 
L 2675 525 
z
M 891 1350 
Q 891 897 1095 644 
Q 1300 391 1663 391 
Q 1931 391 2161 520 
Q 2391 650 2566 903 
Q 2750 1166 2856 1509 
Q 2963 1853 2963 2188 
Q 2963 2622 2758 2865 
Q 2553 3109 2194 3109 
Q 1922 3109 1687 2981 
Q 1453 2853 1288 2613 
Q 1106 2353 998 2009 
Q 891 1666 891 1350 
z
" transform="scale(0.015625)"/>
     </defs>
     <use xlink:href="#DejaVuSans-Oblique-56" transform="translate(0 0.09375)"/>
     <use xlink:href="#DejaVuSans-Oblique-64" transform="translate(68.408203 -16.3125) scale(0.7)"/>
     <use xlink:href="#DejaVuSans-Oblique-64" transform="translate(112.841797 -16.3125) scale(0.7)"/>
    </g>
   </g>
   <g id="patch_14">
    <path d="M 171.735 144.397656 
C 172.451048 144.397656 173.137866 144.113167 173.644188 143.606845 
C 174.150511 143.100522 174.435 142.413705 174.435 141.697656 
C 174.435 140.981608 174.150511 140.294791 173.644188 139.788468 
C 173.137866 139.282145 172.451048 138.997656 171.735 138.997656 
C 171.018952 138.997656 170.332134 139.282145 169.825812 139.788468 
C 169.319489 140.294791 169.035 140.981608 169.035 141.697656 
C 169.035 142.413705 169.319489 143.100522 169.825812 143.606845 
C 170.332134 144.113167 171.018952 144.397656 171.735 144.397656 
z
" clip-path="url(#pe2c0e6a6f9)" style="stroke: #000000; stroke-width: 2; stroke-linejoin: miter"/>
   </g>
   <g id="patch_15">
    <path d="M 171.735 57.997656 
C 172.451048 57.997656 173.137866 57.713167 173.644188 57.206845 
C 174.150511 56.700522 174.435 56.013705 174.435 55.297656 
C 174.435 54.581608 174.150511 53.894791 173.644188 53.388468 
C 173.137866 52.882145 172.451048 52.597656 171.735 52.597656 
C 171.018952 52.597656 170.332134 52.882145 169.825812 53.388468 
C 169.319489 53.894791 169.035 54.581608 169.035 55.297656 
C 169.035 56.013705 169.319489 56.700522 169.825812 57.206845 
C 170.332134 57.713167 171.018952 57.997656 171.735 57.997656 
z
" clip-path="url(#pe2c0e6a6f9)" style="stroke: #000000; stroke-width: 2; stroke-linejoin: miter"/>
   </g>
   <g id="patch_16">
    <path d="M 315.735 72.397656 
C 316.451048 72.397656 317.137866 72.113167 317.644188 71.606845 
C 318.150511 71.100522 318.435 70.413705 318.435 69.697656 
C 318.435 68.981608 318.150511 68.294791 317.644188 67.788468 
C 317.137866 67.282145 316.451048 66.997656 315.735 66.997656 
C 315.018952 66.997656 314.332134 67.282145 313.825812 67.788468 
C 313.319489 68.294791 313.035 68.981608 313.035 69.697656 
C 313.035 70.413705 313.319489 71.100522 313.825812 71.606845 
C 314.332134 72.113167 315.018952 72.397656 315.735 72.397656 
z
" clip-path="url(#pe2c0e6a6f9)" style="fill: #ffffff; stroke: #000000; stroke-width: 2; stroke-linejoin: miter"/>
   </g>
   <g id="text_6">
    <!-- $v_{out}$ -->
    <g transform="translate(322.035 73.146875) scale(0.125 -0.125)">
     <defs>
      <path id="DejaVuSans-Oblique-76" d="M 459 3500 
L 1069 3500 
L 1581 525 
L 3256 3500 
L 3866 3500 
L 1875 0 
L 1100 0 
L 459 3500 
z
" transform="scale(0.015625)"/>
      <path id="DejaVuSans-Oblique-6f" d="M 1625 -91 
Q 1009 -91 651 289 
Q 294 669 294 1325 
Q 294 1706 417 2101 
Q 541 2497 738 2766 
Q 1047 3184 1428 3384 
Q 1809 3584 2291 3584 
Q 2888 3584 3255 3212 
Q 3622 2841 3622 2241 
Q 3622 1825 3500 1412 
Q 3378 1000 3181 728 
Q 2875 309 2494 109 
Q 2113 -91 1625 -91 
z
M 891 1344 
Q 891 869 1089 633 
Q 1288 397 1691 397 
Q 2269 397 2648 901 
Q 3028 1406 3028 2181 
Q 3028 2634 2825 2865 
Q 2622 3097 2228 3097 
Q 1903 3097 1650 2945 
Q 1397 2794 1197 2484 
Q 1050 2253 970 1956 
Q 891 1659 891 1344 
z
" transform="scale(0.015625)"/>
      <path id="DejaVuSans-Oblique-75" d="M 428 1388 
L 838 3500 
L 1416 3500 
L 1006 1409 
Q 975 1256 961 1147 
Q 947 1038 947 966 
Q 947 700 1109 554 
Q 1272 409 1569 409 
Q 2031 409 2368 721 
Q 2706 1034 2809 1563 
L 3194 3500 
L 3769 3500 
L 3091 0 
L 2516 0 
L 2631 550 
Q 2388 244 2052 76 
Q 1716 -91 1338 -91 
Q 878 -91 622 161 
Q 366 413 366 863 
Q 366 956 381 1097 
Q 397 1238 428 1388 
z
" transform="scale(0.015625)"/>
      <path id="DejaVuSans-Oblique-74" d="M 2706 3500 
L 2619 3053 
L 1472 3053 
L 1100 1153 
Q 1081 1047 1072 975 
Q 1063 903 1063 863 
Q 1063 663 1183 572 
Q 1303 481 1569 481 
L 2150 481 
L 2053 0 
L 1503 0 
Q 991 0 739 200 
Q 488 400 488 806 
Q 488 878 497 964 
Q 506 1050 525 1153 
L 897 3053 
L 409 3053 
L 500 3500 
L 978 3500 
L 1172 4494 
L 1747 4494 
L 1556 3500 
L 2706 3500 
z
" transform="scale(0.015625)"/>
     </defs>
     <use xlink:href="#DejaVuSans-Oblique-76" transform="translate(0 0.3125)"/>
     <use xlink:href="#DejaVuSans-Oblique-6f" transform="translate(59.179688 -16.09375) scale(0.7)"/>
     <use xlink:href="#DejaVuSans-Oblique-75" transform="translate(102.006836 -16.09375) scale(0.7)"/>
     <use xlink:href="#DejaVuSans-Oblique-74" transform="translate(146.37207 -16.09375) scale(0.7)"/>
    </g>
   </g>
  </g>
 </g>
 <defs>
  <clipPath id="pe2c0e6a6f9">
   <rect x="8.412" y="4.021656" width="324.786" height="336.072"/>
  </clipPath>
 </defs>
</svg>