<?xml version="1.0" encoding="utf-8" standalone="no"?>
<!DOCTYPE svg PUBLIC "-//W3C//DTD SVG 1.1//EN"
  "http://www.w3.org/Graphics/SVG/1.1/DTD/svg11.dtd">
<svg xmlns:xlink="http://www.w3.org/1999/xlink" width="410.76pt" height="94.46pt" viewBox="0 0 410.76 94.46" xmlns="http://www.w3.org/2000/svg" version="1.1">
 <metadata>
  <rdf:RDF xmlns:dc="http://purl.org/dc/elements/1.1/" xmlns:cc="http://creativecommons.org/ns#" xmlns:rdf="http://www.w3.org/1999/02/22-rdf-syntax-ns#">
   <cc:Work>
    <dc:type rdf:resource="http://purl.org/dc/dcmitype/StillImage"/>
    <dc:date>2026-01-17T19:54:17.507192</dc:date>
    <dc:format>image/svg+xml</dc:format>
    <dc:creator>
     <cc:Agent>
      <dc:title>Matplotlib v3.10.8, https://matplotlib.org/</dc:title>
     </cc:Agent>
    </dc:creator>
   </cc:Work>
  </rdf:RDF>
 </metadata>
 <defs>
  <style type="text/css">*{stroke-linejoin: round; stroke-linecap: butt}</style>
 </defs>
 <g id="figure_1">
  <g id="patch_1">
   <path d="M 0 94.46 
L 410.76 94.46 
L 410.76 0 
L 0 0 
z
" style="fill: #ffffff"/>
  </g>
  <g id="axes_1">
   <g id="patch_2">
    <path d="M 34.38 47.48 
C 34.38 46.061757 34.240319 44.657305 33.968949 43.347019 
C 33.69758 42.036733 33.299801 40.846096 32.798377 39.843247 
C 32.296952 38.840398 31.701633 38.044839 31.046491 37.502101 
C 30.391348 36.959363 29.689122 36.68 28.98 36.68 
C 28.270878 36.68 27.568652 36.959363 26.913509 37.502101 
C 26.258367 38.044839 25.663048 38.840398 25.161623 39.843247 
C 24.660199 40.846096 24.26242 42.036733 23.991051 43.347019 
C 23.719681 44.657305 23.58 46.061757 23.58 47.48 
C 23.58 48.898243 23.719681 50.302695 23.991051 51.612981 
C 24.26242 52.923267 24.660199 54.113904 25.161623 55.116753 
C 25.663048 56.119602 26.258367 56.915161 26.913509 57.457899 
C 27.568652 58.000637 28.270878 58.28 28.98 58.28 
C 29.689122 58.28 30.391348 58.000637 31.046491 57.457899 
C 31.701633 56.915161 32.296952 56.119602 32.798377 55.116753 
C 33.299801 54.113904 33.69758 52.923267 33.968949 51.612981 
C 34.240319 50.302695 34.38 48.898243 34.38 47.48 
" clip-path="url(#pea9f52570e)" style="fill: none; stroke: #000000; stroke-width: 2; stroke-linejoin: miter"/>
   </g>
   <g id="patch_3">
    <path d="M 165.78 58.28 
C 167.21162 58.28 168.586069 57.141369 169.598377 55.116753 
C 170.610685 53.092137 171.18 50.34324 171.18 47.48 
C 171.18 44.61676 170.610685 41.867863 169.598377 39.843247 
C 168.586069 37.818631 167.21162 36.68 165.78 36.68 
" clip-path="url(#pea9f52570e)" style="fill: none; stroke: #000000; stroke-width: 2; stroke-linejoin: miter"/>
   </g>
   <g id="patch_4">
    <path d="M 241.38 47.48 
C 241.38 44.643514 241.100637 41.834609 240.557899 39.214038 
C 240.015161 36.593466 239.219602 34.212192 238.216753 32.206494 
C 237.213904 30.200795 236.023267 28.609678 234.712981 27.524202 
C 233.402695 26.438726 231.998243 25.88 230.58 25.88 
C 229.161757 25.88 227.757305 26.438726 226.447019 27.524202 
C 225.136733 28.609678 223.946096 30.200795 222.943247 32.206494 
C 221.940398 34.212192 221.144839 36.593466 220.602101 39.214038 
C 220.059363 41.834609 219.78 44.643514 219.78 47.48 
C 219.78 50.316486 220.059363 53.125391 220.602101 55.745962 
C 221.144839 58.366534 221.940398 60.747808 222.943247 62.753506 
C 223.946096 64.759205 225.136733 66.350322 226.447019 67.435798 
C 227.757305 68.521274 229.161757 69.08 230.58 69.08 
C 231.998243 69.08 233.402695 68.521274 234.712981 67.435798 
C 236.023267 66.350322 237.213904 64.759205 238.216753 62.753506 
C 239.219602 60.747808 240.015161 58.366534 240.557899 55.745962 
C 241.100637 53.125391 241.38 50.316486 241.38 47.48 
" clip-path="url(#pea9f52570e)" style="fill: none; stroke: #000000; stroke-width: 2; stroke-linejoin: miter"/>
   </g>
   <g id="patch_5">
    <path d="M 360.18 69.08 
C 363.04324 69.08 365.792137 66.802739 367.816753 62.753506 
C 369.841369 58.704274 370.98 53.206479 370.98 47.48 
C 370.98 41.753521 369.841369 36.255726 367.816753 32.206494 
C 365.792137 28.157261 363.04324 25.88 360.18 25.88 
" clip-path="url(#pea9f52570e)" style="fill: none; stroke: #000000; stroke-width: 2; stroke-linejoin: miter"/>
   </g>
   <g id="line2d_1">
    <path d="M 7.38 47.48 
L 28.98 47.48 
M 171.18 47.48 
L 187.38 47.48 
" clip-path="url(#pea9f52570e)" style="fill: none; stroke: #000000; stroke-width: 2; stroke-linecap: round"/>
   </g>
   <g id="line2d_2">
    <path d="M 28.98 36.68 
L 165.78 36.68 
" clip-path="url(#pea9f52570e)" style="fill: none; stroke: #000000; stroke-width: 2; stroke-linecap: round"/>
   </g>
   <g id="line2d_3">
    <path d="M 28.98 58.28 
L 165.78 58.28 
" clip-path="url(#pea9f52570e)" style="fill: none; stroke: #000000; stroke-width: 2; stroke-linecap: round"/>
   </g>
   <g id="line2d_4">
    <path d="M 187.38 47.48 
L 230.58 47.48 
M 370.98 47.48 
L 403.38 47.48 
" clip-path="url(#pea9f52570e)" style="fill: none; stroke: #000000; stroke-width: 2; stroke-linecap: round"/>
   </g>
   <g id="line2d_5">
    <path d="M 230.58 25.88 
L 360.18 25.88 
" clip-path="url(#pea9f52570e)" style="fill: none; stroke: #000000; stroke-width: 2; stroke-linecap: round"/>
   </g>
   <g id="line2d_6">
    <path d="M 230.58 69.08 
L 360.18 69.08 
" clip-path="url(#pea9f52570e)" style="fill: none; stroke: #000000; stroke-width: 2; stroke-linecap: round"/>
   </g>
   <g id="line2d_7">
    <path d="M 360.18 69.08 
L 360.18 78.08 
L 360.18 87.08 
" clip-path="url(#pea9f52570e)" style="fill: none; stroke: #000000; stroke-width: 2; stroke-linecap: round"/>
   </g>
   <g id="line2d_8">
    <path d="M 360.18 87.08 
L 381.78 87.08 
L 403.38 87.08 
" clip-path="url(#pea9f52570e)" style="fill: none; stroke: #000000; stroke-width: 2; stroke-linecap: round"/>
   </g>
   <g id="line2d_9">
    <path d="M 28.98 58.28 
L 28.98 67.28 
L 28.98 76.28 
" clip-path="url(#pea9f52570e)" style="fill: none; stroke: #000000; stroke-width: 2; stroke-linecap: round"/>
   </g>
   <g id="line2d_10">
    <path d="M 28.98 76.28 
L 18.18 76.28 
L 7.38 76.28 
" clip-path="url(#pea9f52570e)" style="fill: none; stroke: #000000; stroke-width: 2; stroke-linecap: round"/>
   </g>
   <g id="line2d_11">
    <path d="M 230.58 69.08 
L 230.58 78.08 
L 230.58 87.08 
" clip-path="url(#pea9f52570e)" style="fill: none; stroke: #000000; stroke-width: 2; stroke-linecap: round"/>
   </g>
   <g id="line2d_12">
    <path d="M 230.58 87.08 
L 198.18 87.08 
L 165.78 87.08 
" clip-path="url(#pea9f52570e)" style="fill: none; stroke: #000000; stroke-width: 2; stroke-linecap: round"/>
   </g>
   <g id="line2d_13">
    <path d="M 165.78 87.08 
L 165.78 72.68 
L 165.78 58.28 
" clip-path="url(#pea9f52570e)" style="fill: none; stroke: #000000; stroke-width: 2; stroke-linecap: round"/>
   </g>
   <g id="text_1">
    <!-- $Z_1$ -->
    <g transform="translate(89.26 30.168438) scale(0.14 -0.14)">
     <defs>
      <path id="DejaVuSans-Oblique-5a" d="M 838 4666 
L 4500 4666 
L 4409 4184 
L 794 531 
L 3769 531 
L 3669 0 
L -141 0 
L -50 481 
L 3566 4134 
L 738 4134 
L 838 4666 
z
" transform="scale(0.015625)"/>
      <path id="DejaVuSans-31" d="M 794 531 
L 1825 531 
L 1825 4091 
L 703 3866 
L 703 4441 
L 1819 4666 
L 2450 4666 
L 2450 531 
L 3481 531 
L 3481 0 
L 794 0 
L 794 531 
z
" transform="scale(0.015625)"/>
     </defs>
     <use xlink:href="#DejaVuSans-Oblique-5a" transform="translate(0 0.09375)"/>
     <use xlink:href="#DejaVuSans-31" transform="translate(68.505859 -16.3125) scale(0.7)"/>
    </g>
   </g>
   <g id="text_2">
    <!-- $Z_2$ -->
    <g transform="translate(287.26 15.768438) scale(0.14 -0.14)">
     <defs>
      <path id="DejaVuSans-32" d="M 1228 531 
L 3431 531 
L 3431 0 
L 469 0 
L 469 531 
Q 828 903 1448 1529 
Q 2069 2156 2228 2338 
Q 2531 2678 2651 2914 
Q 2772 3150 2772 3378 
Q 2772 3750 2511 3984 
Q 2250 4219 1831 4219 
Q 1534 4219 1204 4116 
Q 875 4013 500 3803 
L 500 4441 
Q 881 4594 1212 4672 
Q 1544 4750 1819 4750 
Q 2544 4750 2975 4387 
Q 3406 4025 3406 3419 
Q 3406 3131 3298 2873 
Q 3191 2616 2906 2266 
Q 2828 2175 2409 1742 
Q 1991 1309 1228 531 
z
" transform="scale(0.015625)"/>
     </defs>
     <use xlink:href="#DejaVuSans-Oblique-5a" transform="translate(0 0.09375)"/>
     <use xlink:href="#DejaVuSans-32" transform="translate(68.505859 -16.3125) scale(0.7)"/>
    </g>
   </g>
   <g id="patch_6">
    <path d="M 7.38 50.18 
C 8.096048 50.18 8.782866 49.895511 9.289188 49.389188 
C 9.795511 48.882866 10.08 48.196048 10.08 47.48 
C 10.08 46.763952 9.795511 46.077134 9.289188 45.570812 
C 8.782866 45.064489 8.096048 44.78 7.38 44.78 
C 6.663952 44.78 5.977134 45.064489 5.470812 45.570812 
C 4.964489 46.077134 4.68 46.763952 4.68 47.48 
C 4.68 48.196048 4.964489 48.882866 5.470812 49.389188 
C 5.977134 49.895511 6.663952 50.18 7.38 50.18 
z
" clip-path="url(#pea9f52570e)" style="fill: #ff0000; stroke: #ff0000; stroke-width: 2; stroke-linejoin: miter"/>
   </g>
   <g id="patch_7">
    <path d="M 187.38 50.18 
C 188.096048 50.18 188.782866 49.895511 189.289188 49.389188 
C 189.795511 48.882866 190.08 48.196048 190.08 47.48 
C 190.08 46.763952 189.795511 46.077134 189.289188 45.570812 
C 188.782866 45.064489 188.096048 44.78 187.38 44.78 
C 186.663952 44.78 185.977134 45.064489 185.470812 45.570812 
C 184.964489 46.077134 184.68 46.763952 184.68 47.48 
C 184.68 48.196048 184.964489 48.882866 185.470812 49.389188 
C 185.977134 49.895511 186.663952 50.18 187.38 50.18 
z
" clip-path="url(#pea9f52570e)" style="stroke: #000000; stroke-width: 2; stroke-linejoin: miter"/>
   </g>
   <g id="patch_8">
    <path d="M 403.38 50.18 
C 404.096048 50.18 404.782866 49.895511 405.289188 49.389188 
C 405.795511 48.882866 406.08 48.196048 406.08 47.48 
C 406.08 46.763952 405.795511 46.077134 405.289188 45.570812 
C 404.782866 45.064489 404.096048 44.78 403.38 44.78 
C 402.663952 44.78 401.977134 45.064489 401.470812 45.570812 
C 400.964489 46.077134 400.68 46.763952 400.68 47.48 
C 400.68 48.196048 400.964489 48.882866 401.470812 49.389188 
C 401.977134 49.895511 402.663952 50.18 403.38 50.18 
z
" clip-path="url(#pea9f52570e)" style="fill: #008000; stroke: #008000; stroke-width: 2; stroke-linejoin: miter"/>
   </g>
   <g id="patch_9">
    <path d="M 403.38 89.78 
C 404.096048 89.78 404.782866 89.495511 405.289188 88.989188 
C 405.795511 88.482866 406.08 87.796048 406.08 87.08 
C 406.08 86.363952 405.795511 85.677134 405.289188 85.170812 
C 404.782866 84.664489 404.096048 84.38 403.38 84.38 
C 402.663952 84.38 401.977134 84.664489 401.470812 85.170812 
C 400.964489 85.677134 400.68 86.363952 400.68 87.08 
C 400.68 87.796048 400.964489 88.482866 401.470812 88.989188 
C 401.977134 89.495511 402.663952 89.78 403.38 89.78 
z
" clip-path="url(#pea9f52570e)" style="fill: #008000; stroke: #008000; stroke-width: 2; stroke-linejoin: miter"/>
   </g>
   <g id="patch_10">
    <path d="M 7.38 78.98 
C 8.096048 78.98 8.782866 78.695511 9.289188 78.189188 
C 9.795511 77.682866 10.08 76.996048 10.08 76.28 
C 10.08 75.563952 9.795511 74.877134 9.289188 74.370812 
C 8.782866 73.864489 8.096048 73.58 7.38 73.58 
C 6.663952 73.58 5.977134 73.864489 5.470812 74.370812 
C 4.964489 74.877134 4.68 75.563952 4.68 76.28 
C 4.68 76.996048 4.964489 77.682866 5.470812 78.189188 
C 5.977134 78.695511 6.663952 78.98 7.38 78.98 
z
" clip-path="url(#pea9f52570e)" style="fill: #ff0000; stroke: #ff0000; stroke-width: 2; stroke-linejoin: miter"/>
   </g>
  </g>
 </g>
 <defs>
  <clipPath id="pea9f52570e">
   <rect x="0" y="0" width="410.76" height="94.46"/>
  </clipPath>
 </defs>
</svg>