<?xml version="1.0" encoding="utf-8" standalone="no"?>
<!DOCTYPE svg PUBLIC "-//W3C//DTD SVG 1.1//EN"
  "http://www.w3.org/Graphics/SVG/1.1/DTD/svg11.dtd">
<svg xmlns:xlink="http://www.w3.org/1999/xlink" width="506.928125pt" height="483.457344pt" viewBox="0 0 506.928125 483.457344" xmlns="http://www.w3.org/2000/svg" version="1.1">
 <metadata>
  <rdf:RDF xmlns:dc="http://purl.org/dc/elements/1.1/" xmlns:cc="http://creativecommons.org/ns#" xmlns:rdf="http://www.w3.org/1999/02/22-rdf-syntax-ns#">
   <cc:Work>
    <dc:type rdf:resource="http://purl.org/dc/dcmitype/StillImage"/>
    <dc:date>2022-11-04T22:28:32.434636</dc:date>
    <dc:format>image/svg+xml</dc:format>
    <dc:creator>
     <cc:Agent>
      <dc:title>Matplotlib v3.5.3, https://matplotlib.org/</dc:title>
     </cc:Agent>
    </dc:creator>
   </cc:Work>
  </rdf:RDF>
 </metadata>
 <defs>
  <style type="text/css">*{stroke-linejoin: round; stroke-linecap: butt}</style>
 </defs>
 <g id="figure_1">
  <g id="patch_1">
   <path d="M 0 483.457344 
L 506.928125 483.457344 
L 506.928125 0 
L 0 0 
L 0 483.457344 
z
" style="fill: none"/>
  </g>
  <g id="axes_1">
   <g id="patch_2">
    <path d="M 46.965625 445.879219 
L 493.365625 445.879219 
L 493.365625 10.999219 
L 46.965625 10.999219 
z
" style="fill: #ffffff"/>
   </g>
   <g id="PolyCollection_1">
    <defs>
     <path id="m1e7096e77e" d="M 101.535565 -175.904698 
L 101.535565 -181.80181 
L 102.430154 -172.996571 
L 103.324743 -165.125498 
L 104.219332 -158.250824 
L 105.113922 -152.42658 
L 106.008511 -147.698168 
L 106.9031 -144.10201 
L 107.797689 -141.66527 
L 108.692278 -140.405645 
L 109.586867 -140.331242 
L 110.481457 -141.44053 
L 111.376046 -143.722369 
L 112.270635 -147.156115 
L 113.165224 -151.711809 
L 114.059813 -157.350436 
L 114.954403 -164.024255 
L 115.848992 -171.677206 
L 115.848992 -163.450826 
L 115.848992 -163.450826 
L 114.954403 -155.365511 
L 114.059813 -148.342518 
L 113.165224 -142.438924 
L 112.270635 -137.702707 
L 111.376046 -134.172358 
L 110.481457 -131.876569 
L 109.586867 -130.833998 
L 108.692278 -131.053116 
L 107.797689 -132.532145 
L 106.9031 -135.259062 
L 106.008511 -139.211708 
L 105.113922 -144.357958 
L 104.219332 -150.65599 
L 103.324743 -158.054618 
L 102.430154 -166.493716 
L 101.535565 -175.904698 
z
" style="stroke: #ff0000"/>
    </defs>
    <g clip-path="url(#p0ac9a35285)">
     <use xlink:href="#m1e7096e77e" x="0" y="483.457344" style="fill: #ff0000; stroke: #ff0000"/>
    </g>
   </g>
   <g id="matplotlib.axis_1">
    <g id="xtick_1">
     <g id="line2d_1">
      <defs>
       <path id="m83322b3dbd" d="M 0 0 
L 0 3.5 
" style="stroke: #000000; stroke-width: 0.8"/>
      </defs>
      <g>
       <use xlink:href="#m83322b3dbd" x="46.965625" y="445.879219" style="stroke: #000000; stroke-width: 0.8"/>
      </g>
     </g>
     <g id="text_1">
      <!-- 0 -->
      <g transform="translate(43.784375 460.477656)scale(0.1 -0.1)">
       <defs>
        <path id="DejaVuSans-30" d="M 2034 4250 
Q 1547 4250 1301 3770 
Q 1056 3291 1056 2328 
Q 1056 1369 1301 889 
Q 1547 409 2034 409 
Q 2525 409 2770 889 
Q 3016 1369 3016 2328 
Q 3016 3291 2770 3770 
Q 2525 4250 2034 4250 
z
M 2034 4750 
Q 2819 4750 3233 4129 
Q 3647 3509 3647 2328 
Q 3647 1150 3233 529 
Q 2819 -91 2034 -91 
Q 1250 -91 836 529 
Q 422 1150 422 2328 
Q 422 3509 836 4129 
Q 1250 4750 2034 4750 
z
" transform="scale(0.015625)"/>
       </defs>
       <use xlink:href="#DejaVuSans-30"/>
      </g>
     </g>
    </g>
    <g id="xtick_2">
     <g id="line2d_2">
      <g>
       <use xlink:href="#m83322b3dbd" x="96.565625" y="445.879219" style="stroke: #000000; stroke-width: 0.8"/>
      </g>
     </g>
     <g id="text_2">
      <!-- 5 -->
      <g transform="translate(93.384375 460.477656)scale(0.1 -0.1)">
       <defs>
        <path id="DejaVuSans-35" d="M 691 4666 
L 3169 4666 
L 3169 4134 
L 1269 4134 
L 1269 2991 
Q 1406 3038 1543 3061 
Q 1681 3084 1819 3084 
Q 2600 3084 3056 2656 
Q 3513 2228 3513 1497 
Q 3513 744 3044 326 
Q 2575 -91 1722 -91 
Q 1428 -91 1123 -41 
Q 819 9 494 109 
L 494 744 
Q 775 591 1075 516 
Q 1375 441 1709 441 
Q 2250 441 2565 725 
Q 2881 1009 2881 1497 
Q 2881 1984 2565 2268 
Q 2250 2553 1709 2553 
Q 1456 2553 1204 2497 
Q 953 2441 691 2322 
L 691 4666 
z
" transform="scale(0.015625)"/>
       </defs>
       <use xlink:href="#DejaVuSans-35"/>
      </g>
     </g>
    </g>
    <g id="xtick_3">
     <g id="line2d_3">
      <g>
       <use xlink:href="#m83322b3dbd" x="146.165625" y="445.879219" style="stroke: #000000; stroke-width: 0.8"/>
      </g>
     </g>
     <g id="text_3">
      <!-- 10 -->
      <g transform="translate(139.803125 460.477656)scale(0.1 -0.1)">
       <defs>
        <path id="DejaVuSans-31" d="M 794 531 
L 1825 531 
L 1825 4091 
L 703 3866 
L 703 4441 
L 1819 4666 
L 2450 4666 
L 2450 531 
L 3481 531 
L 3481 0 
L 794 0 
L 794 531 
z
" transform="scale(0.015625)"/>
       </defs>
       <use xlink:href="#DejaVuSans-31"/>
       <use xlink:href="#DejaVuSans-30" x="63.623047"/>
      </g>
     </g>
    </g>
    <g id="xtick_4">
     <g id="line2d_4">
      <g>
       <use xlink:href="#m83322b3dbd" x="195.765625" y="445.879219" style="stroke: #000000; stroke-width: 0.8"/>
      </g>
     </g>
     <g id="text_4">
      <!-- 15 -->
      <g transform="translate(189.403125 460.477656)scale(0.1 -0.1)">
       <use xlink:href="#DejaVuSans-31"/>
       <use xlink:href="#DejaVuSans-35" x="63.623047"/>
      </g>
     </g>
    </g>
    <g id="xtick_5">
     <g id="line2d_5">
      <g>
       <use xlink:href="#m83322b3dbd" x="245.365625" y="445.879219" style="stroke: #000000; stroke-width: 0.8"/>
      </g>
     </g>
     <g id="text_5">
      <!-- 20 -->
      <g transform="translate(239.003125 460.477656)scale(0.1 -0.1)">
       <defs>
        <path id="DejaVuSans-32" d="M 1228 531 
L 3431 531 
L 3431 0 
L 469 0 
L 469 531 
Q 828 903 1448 1529 
Q 2069 2156 2228 2338 
Q 2531 2678 2651 2914 
Q 2772 3150 2772 3378 
Q 2772 3750 2511 3984 
Q 2250 4219 1831 4219 
Q 1534 4219 1204 4116 
Q 875 4013 500 3803 
L 500 4441 
Q 881 4594 1212 4672 
Q 1544 4750 1819 4750 
Q 2544 4750 2975 4387 
Q 3406 4025 3406 3419 
Q 3406 3131 3298 2873 
Q 3191 2616 2906 2266 
Q 2828 2175 2409 1742 
Q 1991 1309 1228 531 
z
" transform="scale(0.015625)"/>
       </defs>
       <use xlink:href="#DejaVuSans-32"/>
       <use xlink:href="#DejaVuSans-30" x="63.623047"/>
      </g>
     </g>
    </g>
    <g id="xtick_6">
     <g id="line2d_6">
      <g>
       <use xlink:href="#m83322b3dbd" x="294.965625" y="445.879219" style="stroke: #000000; stroke-width: 0.8"/>
      </g>
     </g>
     <g id="text_6">
      <!-- 25 -->
      <g transform="translate(288.603125 460.477656)scale(0.1 -0.1)">
       <use xlink:href="#DejaVuSans-32"/>
       <use xlink:href="#DejaVuSans-35" x="63.623047"/>
      </g>
     </g>
    </g>
    <g id="xtick_7">
     <g id="line2d_7">
      <g>
       <use xlink:href="#m83322b3dbd" x="344.565625" y="445.879219" style="stroke: #000000; stroke-width: 0.8"/>
      </g>
     </g>
     <g id="text_7">
      <!-- 30 -->
      <g transform="translate(338.203125 460.477656)scale(0.1 -0.1)">
       <defs>
        <path id="DejaVuSans-33" d="M 2597 2516 
Q 3050 2419 3304 2112 
Q 3559 1806 3559 1356 
Q 3559 666 3084 287 
Q 2609 -91 1734 -91 
Q 1441 -91 1130 -33 
Q 819 25 488 141 
L 488 750 
Q 750 597 1062 519 
Q 1375 441 1716 441 
Q 2309 441 2620 675 
Q 2931 909 2931 1356 
Q 2931 1769 2642 2001 
Q 2353 2234 1838 2234 
L 1294 2234 
L 1294 2753 
L 1863 2753 
Q 2328 2753 2575 2939 
Q 2822 3125 2822 3475 
Q 2822 3834 2567 4026 
Q 2313 4219 1838 4219 
Q 1578 4219 1281 4162 
Q 984 4106 628 3988 
L 628 4550 
Q 988 4650 1302 4700 
Q 1616 4750 1894 4750 
Q 2613 4750 3031 4423 
Q 3450 4097 3450 3541 
Q 3450 3153 3228 2886 
Q 3006 2619 2597 2516 
z
" transform="scale(0.015625)"/>
       </defs>
       <use xlink:href="#DejaVuSans-33"/>
       <use xlink:href="#DejaVuSans-30" x="63.623047"/>
      </g>
     </g>
    </g>
    <g id="xtick_8">
     <g id="line2d_8">
      <g>
       <use xlink:href="#m83322b3dbd" x="394.165625" y="445.879219" style="stroke: #000000; stroke-width: 0.8"/>
      </g>
     </g>
     <g id="text_8">
      <!-- 35 -->
      <g transform="translate(387.803125 460.477656)scale(0.1 -0.1)">
       <use xlink:href="#DejaVuSans-33"/>
       <use xlink:href="#DejaVuSans-35" x="63.623047"/>
      </g>
     </g>
    </g>
    <g id="xtick_9">
     <g id="line2d_9">
      <g>
       <use xlink:href="#m83322b3dbd" x="443.765625" y="445.879219" style="stroke: #000000; stroke-width: 0.8"/>
      </g>
     </g>
     <g id="text_9">
      <!-- 40 -->
      <g transform="translate(437.403125 460.477656)scale(0.1 -0.1)">
       <defs>
        <path id="DejaVuSans-34" d="M 2419 4116 
L 825 1625 
L 2419 1625 
L 2419 4116 
z
M 2253 4666 
L 3047 4666 
L 3047 1625 
L 3713 1625 
L 3713 1100 
L 3047 1100 
L 3047 0 
L 2419 0 
L 2419 1100 
L 313 1100 
L 313 1709 
L 2253 4666 
z
" transform="scale(0.015625)"/>
       </defs>
       <use xlink:href="#DejaVuSans-34"/>
       <use xlink:href="#DejaVuSans-30" x="63.623047"/>
      </g>
     </g>
    </g>
    <g id="xtick_10">
     <g id="line2d_10">
      <g>
       <use xlink:href="#m83322b3dbd" x="493.365625" y="445.879219" style="stroke: #000000; stroke-width: 0.8"/>
      </g>
     </g>
     <g id="text_10">
      <!-- 45 -->
      <g transform="translate(487.003125 460.477656)scale(0.1 -0.1)">
       <use xlink:href="#DejaVuSans-34"/>
       <use xlink:href="#DejaVuSans-35" x="63.623047"/>
      </g>
     </g>
    </g>
    <g id="text_11">
     <!-- Tijd*$\omega$  -->
     <g transform="translate(252.865625 474.157344)scale(0.1 -0.1)">
      <defs>
       <path id="DejaVuSans-54" d="M -19 4666 
L 3928 4666 
L 3928 4134 
L 2272 4134 
L 2272 0 
L 1638 0 
L 1638 4134 
L -19 4134 
L -19 4666 
z
" transform="scale(0.015625)"/>
       <path id="DejaVuSans-69" d="M 603 3500 
L 1178 3500 
L 1178 0 
L 603 0 
L 603 3500 
z
M 603 4863 
L 1178 4863 
L 1178 4134 
L 603 4134 
L 603 4863 
z
" transform="scale(0.015625)"/>
       <path id="DejaVuSans-6a" d="M 603 3500 
L 1178 3500 
L 1178 -63 
Q 1178 -731 923 -1031 
Q 669 -1331 103 -1331 
L -116 -1331 
L -116 -844 
L 38 -844 
Q 366 -844 484 -692 
Q 603 -541 603 -63 
L 603 3500 
z
M 603 4863 
L 1178 4863 
L 1178 4134 
L 603 4134 
L 603 4863 
z
" transform="scale(0.015625)"/>
       <path id="DejaVuSans-64" d="M 2906 2969 
L 2906 4863 
L 3481 4863 
L 3481 0 
L 2906 0 
L 2906 525 
Q 2725 213 2448 61 
Q 2172 -91 1784 -91 
Q 1150 -91 751 415 
Q 353 922 353 1747 
Q 353 2572 751 3078 
Q 1150 3584 1784 3584 
Q 2172 3584 2448 3432 
Q 2725 3281 2906 2969 
z
M 947 1747 
Q 947 1113 1208 752 
Q 1469 391 1925 391 
Q 2381 391 2643 752 
Q 2906 1113 2906 1747 
Q 2906 2381 2643 2742 
Q 2381 3103 1925 3103 
Q 1469 3103 1208 2742 
Q 947 2381 947 1747 
z
" transform="scale(0.015625)"/>
       <path id="DejaVuSans-2a" d="M 3009 3897 
L 1888 3291 
L 3009 2681 
L 2828 2375 
L 1778 3009 
L 1778 1831 
L 1422 1831 
L 1422 3009 
L 372 2375 
L 191 2681 
L 1313 3291 
L 191 3897 
L 372 4206 
L 1422 3572 
L 1422 4750 
L 1778 4750 
L 1778 3572 
L 2828 4206 
L 3009 3897 
z
" transform="scale(0.015625)"/>
       <path id="DejaVuSans-Oblique-3c9" d="M 1369 -91 
Q 72 -91 434 1766 
Q 575 2500 1256 3500 
L 1875 3500 
Q 1231 2500 1088 1750 
Q 819 397 1519 397 
Q 2166 397 2478 2078 
L 3009 2078 
Q 2669 388 3316 397 
Q 4013 403 4275 1750 
Q 4419 2500 4169 3500 
L 4788 3500 
Q 5075 2500 4934 1766 
Q 4578 -94 3278 -91 
Q 2428 -88 2503 844 
Q 2194 -91 1369 -91 
z
" transform="scale(0.015625)"/>
       <path id="DejaVuSans-20" transform="scale(0.015625)"/>
      </defs>
      <use xlink:href="#DejaVuSans-54" transform="translate(0 0.015625)"/>
      <use xlink:href="#DejaVuSans-69" transform="translate(61.083984 0.015625)"/>
      <use xlink:href="#DejaVuSans-6a" transform="translate(88.867188 0.015625)"/>
      <use xlink:href="#DejaVuSans-64" transform="translate(116.650391 0.015625)"/>
      <use xlink:href="#DejaVuSans-2a" transform="translate(180.126953 0.015625)"/>
      <use xlink:href="#DejaVuSans-Oblique-3c9" transform="translate(230.126953 0.015625)"/>
      <use xlink:href="#DejaVuSans-20" transform="translate(313.867188 0.015625)"/>
     </g>
    </g>
   </g>
   <g id="matplotlib.axis_2">
    <g id="ytick_1">
     <g id="line2d_11">
      <defs>
       <path id="med5d1de51a" d="M 0 0 
L -3.5 0 
" style="stroke: #000000; stroke-width: 0.8"/>
      </defs>
      <g>
       <use xlink:href="#med5d1de51a" x="46.965625" y="445.879219" style="stroke: #000000; stroke-width: 0.8"/>
      </g>
     </g>
     <g id="text_12">
      <!-- 0 -->
      <g transform="translate(33.603125 449.678437)scale(0.1 -0.1)">
       <use xlink:href="#DejaVuSans-30"/>
      </g>
     </g>
    </g>
    <g id="ytick_2">
     <g id="line2d_12">
      <g>
       <use xlink:href="#med5d1de51a" x="46.965625" y="383.753504" style="stroke: #000000; stroke-width: 0.8"/>
      </g>
     </g>
     <g id="text_13">
      <!-- 20 -->
      <g transform="translate(27.240625 387.552723)scale(0.1 -0.1)">
       <use xlink:href="#DejaVuSans-32"/>
       <use xlink:href="#DejaVuSans-30" x="63.623047"/>
      </g>
     </g>
    </g>
    <g id="ytick_3">
     <g id="line2d_13">
      <g>
       <use xlink:href="#med5d1de51a" x="46.965625" y="321.62779" style="stroke: #000000; stroke-width: 0.8"/>
      </g>
     </g>
     <g id="text_14">
      <!-- 40 -->
      <g transform="translate(27.240625 325.427009)scale(0.1 -0.1)">
       <use xlink:href="#DejaVuSans-34"/>
       <use xlink:href="#DejaVuSans-30" x="63.623047"/>
      </g>
     </g>
    </g>
    <g id="ytick_4">
     <g id="line2d_14">
      <g>
       <use xlink:href="#med5d1de51a" x="46.965625" y="259.502076" style="stroke: #000000; stroke-width: 0.8"/>
      </g>
     </g>
     <g id="text_15">
      <!-- 60 -->
      <g transform="translate(27.240625 263.301295)scale(0.1 -0.1)">
       <defs>
        <path id="DejaVuSans-36" d="M 2113 2584 
Q 1688 2584 1439 2293 
Q 1191 2003 1191 1497 
Q 1191 994 1439 701 
Q 1688 409 2113 409 
Q 2538 409 2786 701 
Q 3034 994 3034 1497 
Q 3034 2003 2786 2293 
Q 2538 2584 2113 2584 
z
M 3366 4563 
L 3366 3988 
Q 3128 4100 2886 4159 
Q 2644 4219 2406 4219 
Q 1781 4219 1451 3797 
Q 1122 3375 1075 2522 
Q 1259 2794 1537 2939 
Q 1816 3084 2150 3084 
Q 2853 3084 3261 2657 
Q 3669 2231 3669 1497 
Q 3669 778 3244 343 
Q 2819 -91 2113 -91 
Q 1303 -91 875 529 
Q 447 1150 447 2328 
Q 447 3434 972 4092 
Q 1497 4750 2381 4750 
Q 2619 4750 2861 4703 
Q 3103 4656 3366 4563 
z
" transform="scale(0.015625)"/>
       </defs>
       <use xlink:href="#DejaVuSans-36"/>
       <use xlink:href="#DejaVuSans-30" x="63.623047"/>
      </g>
     </g>
    </g>
    <g id="ytick_5">
     <g id="line2d_15">
      <g>
       <use xlink:href="#med5d1de51a" x="46.965625" y="197.376362" style="stroke: #000000; stroke-width: 0.8"/>
      </g>
     </g>
     <g id="text_16">
      <!-- 80 -->
      <g transform="translate(27.240625 201.17558)scale(0.1 -0.1)">
       <defs>
        <path id="DejaVuSans-38" d="M 2034 2216 
Q 1584 2216 1326 1975 
Q 1069 1734 1069 1313 
Q 1069 891 1326 650 
Q 1584 409 2034 409 
Q 2484 409 2743 651 
Q 3003 894 3003 1313 
Q 3003 1734 2745 1975 
Q 2488 2216 2034 2216 
z
M 1403 2484 
Q 997 2584 770 2862 
Q 544 3141 544 3541 
Q 544 4100 942 4425 
Q 1341 4750 2034 4750 
Q 2731 4750 3128 4425 
Q 3525 4100 3525 3541 
Q 3525 3141 3298 2862 
Q 3072 2584 2669 2484 
Q 3125 2378 3379 2068 
Q 3634 1759 3634 1313 
Q 3634 634 3220 271 
Q 2806 -91 2034 -91 
Q 1263 -91 848 271 
Q 434 634 434 1313 
Q 434 1759 690 2068 
Q 947 2378 1403 2484 
z
M 1172 3481 
Q 1172 3119 1398 2916 
Q 1625 2713 2034 2713 
Q 2441 2713 2670 2916 
Q 2900 3119 2900 3481 
Q 2900 3844 2670 4047 
Q 2441 4250 2034 4250 
Q 1625 4250 1398 4047 
Q 1172 3844 1172 3481 
z
" transform="scale(0.015625)"/>
       </defs>
       <use xlink:href="#DejaVuSans-38"/>
       <use xlink:href="#DejaVuSans-30" x="63.623047"/>
      </g>
     </g>
    </g>
    <g id="ytick_6">
     <g id="line2d_16">
      <g>
       <use xlink:href="#med5d1de51a" x="46.965625" y="135.250647" style="stroke: #000000; stroke-width: 0.8"/>
      </g>
     </g>
     <g id="text_17">
      <!-- 100 -->
      <g transform="translate(20.878125 139.049866)scale(0.1 -0.1)">
       <use xlink:href="#DejaVuSans-31"/>
       <use xlink:href="#DejaVuSans-30" x="63.623047"/>
       <use xlink:href="#DejaVuSans-30" x="127.246094"/>
      </g>
     </g>
    </g>
    <g id="ytick_7">
     <g id="line2d_17">
      <g>
       <use xlink:href="#med5d1de51a" x="46.965625" y="73.124933" style="stroke: #000000; stroke-width: 0.8"/>
      </g>
     </g>
     <g id="text_18">
      <!-- 120 -->
      <g transform="translate(20.878125 76.924152)scale(0.1 -0.1)">
       <use xlink:href="#DejaVuSans-31"/>
       <use xlink:href="#DejaVuSans-32" x="63.623047"/>
       <use xlink:href="#DejaVuSans-30" x="127.246094"/>
      </g>
     </g>
    </g>
    <g id="ytick_8">
     <g id="line2d_18">
      <g>
       <use xlink:href="#med5d1de51a" x="46.965625" y="10.999219" style="stroke: #000000; stroke-width: 0.8"/>
      </g>
     </g>
     <g id="text_19">
      <!-- 140 -->
      <g transform="translate(20.878125 14.798437)scale(0.1 -0.1)">
       <use xlink:href="#DejaVuSans-31"/>
       <use xlink:href="#DejaVuSans-34" x="63.623047"/>
       <use xlink:href="#DejaVuSans-30" x="127.246094"/>
      </g>
     </g>
    </g>
    <g id="text_20">
     <!-- Voltage (V) -->
     <g transform="translate(14.798437 256.106406)rotate(-90)scale(0.1 -0.1)">
      <defs>
       <path id="DejaVuSans-56" d="M 1831 0 
L 50 4666 
L 709 4666 
L 2188 738 
L 3669 4666 
L 4325 4666 
L 2547 0 
L 1831 0 
z
" transform="scale(0.015625)"/>
       <path id="DejaVuSans-6f" d="M 1959 3097 
Q 1497 3097 1228 2736 
Q 959 2375 959 1747 
Q 959 1119 1226 758 
Q 1494 397 1959 397 
Q 2419 397 2687 759 
Q 2956 1122 2956 1747 
Q 2956 2369 2687 2733 
Q 2419 3097 1959 3097 
z
M 1959 3584 
Q 2709 3584 3137 3096 
Q 3566 2609 3566 1747 
Q 3566 888 3137 398 
Q 2709 -91 1959 -91 
Q 1206 -91 779 398 
Q 353 888 353 1747 
Q 353 2609 779 3096 
Q 1206 3584 1959 3584 
z
" transform="scale(0.015625)"/>
       <path id="DejaVuSans-6c" d="M 603 4863 
L 1178 4863 
L 1178 0 
L 603 0 
L 603 4863 
z
" transform="scale(0.015625)"/>
       <path id="DejaVuSans-74" d="M 1172 4494 
L 1172 3500 
L 2356 3500 
L 2356 3053 
L 1172 3053 
L 1172 1153 
Q 1172 725 1289 603 
Q 1406 481 1766 481 
L 2356 481 
L 2356 0 
L 1766 0 
Q 1100 0 847 248 
Q 594 497 594 1153 
L 594 3053 
L 172 3053 
L 172 3500 
L 594 3500 
L 594 4494 
L 1172 4494 
z
" transform="scale(0.015625)"/>
       <path id="DejaVuSans-61" d="M 2194 1759 
Q 1497 1759 1228 1600 
Q 959 1441 959 1056 
Q 959 750 1161 570 
Q 1363 391 1709 391 
Q 2188 391 2477 730 
Q 2766 1069 2766 1631 
L 2766 1759 
L 2194 1759 
z
M 3341 1997 
L 3341 0 
L 2766 0 
L 2766 531 
Q 2569 213 2275 61 
Q 1981 -91 1556 -91 
Q 1019 -91 701 211 
Q 384 513 384 1019 
Q 384 1609 779 1909 
Q 1175 2209 1959 2209 
L 2766 2209 
L 2766 2266 
Q 2766 2663 2505 2880 
Q 2244 3097 1772 3097 
Q 1472 3097 1187 3025 
Q 903 2953 641 2809 
L 641 3341 
Q 956 3463 1253 3523 
Q 1550 3584 1831 3584 
Q 2591 3584 2966 3190 
Q 3341 2797 3341 1997 
z
" transform="scale(0.015625)"/>
       <path id="DejaVuSans-67" d="M 2906 1791 
Q 2906 2416 2648 2759 
Q 2391 3103 1925 3103 
Q 1463 3103 1205 2759 
Q 947 2416 947 1791 
Q 947 1169 1205 825 
Q 1463 481 1925 481 
Q 2391 481 2648 825 
Q 2906 1169 2906 1791 
z
M 3481 434 
Q 3481 -459 3084 -895 
Q 2688 -1331 1869 -1331 
Q 1566 -1331 1297 -1286 
Q 1028 -1241 775 -1147 
L 775 -588 
Q 1028 -725 1275 -790 
Q 1522 -856 1778 -856 
Q 2344 -856 2625 -561 
Q 2906 -266 2906 331 
L 2906 616 
Q 2728 306 2450 153 
Q 2172 0 1784 0 
Q 1141 0 747 490 
Q 353 981 353 1791 
Q 353 2603 747 3093 
Q 1141 3584 1784 3584 
Q 2172 3584 2450 3431 
Q 2728 3278 2906 2969 
L 2906 3500 
L 3481 3500 
L 3481 434 
z
" transform="scale(0.015625)"/>
       <path id="DejaVuSans-65" d="M 3597 1894 
L 3597 1613 
L 953 1613 
Q 991 1019 1311 708 
Q 1631 397 2203 397 
Q 2534 397 2845 478 
Q 3156 559 3463 722 
L 3463 178 
Q 3153 47 2828 -22 
Q 2503 -91 2169 -91 
Q 1331 -91 842 396 
Q 353 884 353 1716 
Q 353 2575 817 3079 
Q 1281 3584 2069 3584 
Q 2775 3584 3186 3129 
Q 3597 2675 3597 1894 
z
M 3022 2063 
Q 3016 2534 2758 2815 
Q 2500 3097 2075 3097 
Q 1594 3097 1305 2825 
Q 1016 2553 972 2059 
L 3022 2063 
z
" transform="scale(0.015625)"/>
       <path id="DejaVuSans-28" d="M 1984 4856 
Q 1566 4138 1362 3434 
Q 1159 2731 1159 2009 
Q 1159 1288 1364 580 
Q 1569 -128 1984 -844 
L 1484 -844 
Q 1016 -109 783 600 
Q 550 1309 550 2009 
Q 550 2706 781 3412 
Q 1013 4119 1484 4856 
L 1984 4856 
z
" transform="scale(0.015625)"/>
       <path id="DejaVuSans-29" d="M 513 4856 
L 1013 4856 
Q 1481 4119 1714 3412 
Q 1947 2706 1947 2009 
Q 1947 1309 1714 600 
Q 1481 -109 1013 -844 
L 513 -844 
Q 928 -128 1133 580 
Q 1338 1288 1338 2009 
Q 1338 2731 1133 3434 
Q 928 4138 513 4856 
z
" transform="scale(0.015625)"/>
      </defs>
      <use xlink:href="#DejaVuSans-56"/>
      <use xlink:href="#DejaVuSans-6f" x="60.658203"/>
      <use xlink:href="#DejaVuSans-6c" x="121.839844"/>
      <use xlink:href="#DejaVuSans-74" x="149.623047"/>
      <use xlink:href="#DejaVuSans-61" x="188.832031"/>
      <use xlink:href="#DejaVuSans-67" x="250.111328"/>
      <use xlink:href="#DejaVuSans-65" x="313.587891"/>
      <use xlink:href="#DejaVuSans-20" x="375.111328"/>
      <use xlink:href="#DejaVuSans-28" x="406.898438"/>
      <use xlink:href="#DejaVuSans-56" x="445.912109"/>
      <use xlink:href="#DejaVuSans-29" x="514.320312"/>
     </g>
    </g>
   </g>
   <g id="line2d_19">
    <path d="M 46.965625 352.690647 
L 47.860214 351.920098 
L 48.754803 349.895968 
L 49.649393 346.636955 
L 50.543982 342.171747 
L 51.438571 336.538778 
L 52.33316 329.785895 
L 53.227749 321.969952 
L 55.016928 303.418411 
L 56.806106 281.499317 
L 58.595284 256.934684 
L 61.279052 216.904755 
L 65.751998 149.003706 
L 67.541176 123.996176 
L 69.330354 101.455234 
L 71.119533 82.102022 
L 72.908711 66.55185 
L 73.8033 60.361356 
L 74.69789 55.294643 
L 75.592479 51.390831 
L 76.487068 48.679526 
L 77.381657 47.180596 
L 78.276246 46.904027 
L 79.170835 47.849863 
L 80.065425 50.008221 
L 80.960014 53.359389 
L 81.854603 57.874005 
L 82.749192 63.51331 
L 83.643781 70.229485 
L 85.43296 86.658343 
L 87.222138 106.613836 
L 89.011316 129.436972 
L 91.695084 167.390258 
L 97.957208 258.595438 
L 99.746387 281.529496 
L 101.535565 301.655534 
L 103.324743 318.331846 
L 104.219332 325.20652 
L 105.113922 331.030764 
L 106.008511 335.759176 
L 106.9031 339.355333 
L 107.797689 341.792074 
L 108.692278 343.051699 
L 109.586867 343.126102 
L 110.481457 342.016814 
L 111.376046 339.734975 
L 112.270635 336.301229 
L 113.165224 331.745534 
L 114.059813 326.106908 
L 114.954403 319.433089 
L 116.743581 303.211964 
L 118.532759 283.621581 
L 120.321938 261.308541 
L 123.005705 224.353834 
L 128.37324 147.988779 
L 130.162419 124.832489 
L 131.951597 104.109033 
L 133.740775 86.480818 
L 134.635364 79.006874 
L 135.529954 72.507615 
L 136.424543 67.034061 
L 137.319132 62.628812 
L 138.213721 59.325715 
L 139.10831 57.149606 
L 140.0029 56.116127 
L 140.897489 56.23161 
L 141.792078 57.493048 
L 142.686667 59.888131 
L 143.581256 63.395368 
L 144.475845 67.984274 
L 145.370435 73.615636 
L 146.265024 80.241847 
L 148.054202 96.248882 
L 149.843381 115.473465 
L 151.632559 137.28139 
L 154.316326 173.255175 
L 159.683861 247.139442 
L 161.47304 269.413244 
L 163.262218 289.273809 
L 165.051397 306.086607 
L 165.945986 313.178931 
L 166.840575 319.318102 
L 167.735164 324.455986 
L 168.629753 328.552665 
L 169.524342 331.576748 
L 170.418932 333.505611 
L 171.313521 334.325564 
L 172.20811 334.031947 
L 173.102699 332.629151 
L 173.997288 330.130566 
L 174.891878 326.558456 
L 175.786467 321.943763 
L 176.681056 316.325839 
L 177.575645 309.752113 
L 179.364823 293.964883 
L 181.154002 275.106316 
L 182.94318 253.798237 
L 185.626948 218.787647 
L 190.994483 147.319241 
L 192.783661 125.900119 
L 194.572839 106.873 
L 196.362018 90.845496 
L 197.256607 84.119782 
L 198.151196 78.325885 
L 199.045785 73.509174 
L 199.940374 69.707004 
L 200.834964 66.948421 
L 201.729553 65.253945 
L 202.624142 64.63542 
L 203.518731 65.095928 
L 204.41332 66.629787 
L 205.30791 69.222606 
L 206.202499 72.851421 
L 207.097088 77.4849 
L 207.991677 83.083604 
L 208.886266 89.600331 
L 210.675445 105.162648 
L 212.464623 123.655425 
L 214.253801 144.469193 
L 216.937569 178.534363 
L 222.305104 247.650702 
L 224.094282 268.242255 
L 225.883461 286.464553 
L 227.672639 301.735965 
L 228.567228 308.109592 
L 229.461817 313.572528 
L 230.356407 318.082051 
L 231.250996 321.603261 
L 232.145585 324.109344 
L 233.040174 325.58178 
L 233.934763 326.010473 
L 234.829352 325.393824 
L 235.723942 323.738723 
L 236.618531 321.060483 
L 237.51312 317.382695 
L 238.407709 312.737026 
L 239.302298 307.162945 
L 240.196888 300.70739 
L 241.986066 285.374519 
L 243.775244 267.246888 
L 245.564423 246.921654 
L 248.24819 213.784104 
L 252.721136 157.535944 
L 254.510314 136.806901 
L 256.299493 118.114141 
L 258.088671 102.055729 
L 259.877849 89.142259 
L 260.772439 83.996459 
L 261.667028 79.78063 
L 262.561617 76.527332 
L 263.456206 74.261247 
L 264.350795 72.998999 
L 265.245385 72.749029 
L 266.139974 73.511542 
L 267.034563 75.278522 
L 267.929152 78.03381 
L 268.823741 81.753252 
L 269.71833 86.404906 
L 270.61292 91.949318 
L 272.402098 105.523104 
L 274.191276 122.022838 
L 275.980455 140.903612 
L 278.664222 172.317265 
L 284.926346 247.872272 
L 286.715525 266.887288 
L 288.504703 283.582609 
L 290.293882 297.425879 
L 291.188471 303.137014 
L 292.08306 307.979031 
L 292.977649 311.914176 
L 293.872238 314.91213 
L 294.766827 316.950234 
L 295.661417 318.01367 
L 296.556006 318.095557 
L 297.450595 317.196999 
L 298.345184 315.32706 
L 299.239773 312.502675 
L 300.134362 308.7485 
L 301.028952 304.096694 
L 301.923541 298.586652 
L 303.712719 285.183527 
L 305.501898 268.984881 
L 307.291076 250.525398 
L 309.974843 219.937329 
L 315.342379 156.67959 
L 317.131557 137.48378 
L 318.920735 120.29681 
L 320.709914 105.668078 
L 321.604503 99.461965 
L 322.499092 94.062147 
L 323.393681 89.51102 
L 324.28827 85.844011 
L 325.182859 83.089306 
L 326.077449 81.26763 
L 326.972038 80.392095 
L 327.866627 80.468105 
L 328.761216 81.493329 
L 329.655805 83.45773 
L 330.550395 86.343665 
L 331.444984 90.126038 
L 332.339573 94.772518 
L 333.234162 100.243817 
L 335.02334 113.470967 
L 336.812519 129.367908 
L 338.601697 147.410177 
L 341.285465 177.187216 
L 346.653 238.391663 
L 348.442178 256.856549 
L 350.231356 273.328582 
L 352.020535 287.281463 
L 352.915124 293.171175 
L 353.809713 298.272374 
L 354.704302 302.545058 
L 355.598892 305.956023 
L 356.493481 308.479123 
L 357.38807 310.095469 
L 358.282659 310.79357 
L 359.177248 310.569412 
L 360.071837 309.426476 
L 360.966427 307.3757 
L 361.861016 304.435372 
L 362.755605 300.630973 
L 363.650194 295.994953 
L 364.544783 290.566457 
L 366.333962 277.520061 
L 368.12314 261.925053 
L 369.912318 244.29568 
L 372.596086 215.315053 
L 377.963621 156.110221 
L 379.752799 138.353247 
L 381.541978 122.571774 
L 383.331156 109.269799 
L 384.225745 103.684054 
L 385.120334 98.8692 
L 386.014924 94.862948 
L 386.909513 91.696372 
L 387.804102 89.393674 
L 388.698691 87.971996 
L 389.59328 87.441295 
L 390.487869 87.804276 
L 391.382459 89.056379 
L 392.277048 91.185836 
L 393.171637 94.173773 
L 394.066226 97.99438 
L 394.960815 102.615132 
L 395.855405 107.997062 
L 397.644583 120.858427 
L 399.433761 136.151644 
L 401.22294 153.372661 
L 403.906707 181.571536 
L 409.274242 238.829496 
L 411.063421 255.900995 
L 412.852599 271.015605 
L 414.641777 283.69086 
L 415.536366 288.984668 
L 416.430956 293.525034 
L 417.325545 297.276446 
L 418.220134 300.209862 
L 419.114723 302.302934 
L 420.009312 303.540182 
L 420.903902 303.9131 
L 421.798491 303.420216 
L 422.69308 302.067095 
L 423.587669 299.866273 
L 424.482258 296.83715 
L 425.376847 293.005818 
L 426.271437 288.404832 
L 427.166026 283.072943 
L 428.955204 270.400406 
L 430.744383 255.408491 
L 432.533561 238.59109 
L 435.217328 211.159285 
L 439.690274 164.564359 
L 441.479453 147.381875 
L 443.268631 131.880417 
L 445.057809 118.555971 
L 446.846988 107.832234 
L 447.741577 103.5549 
L 448.636166 100.047149 
L 449.530755 97.336077 
L 450.425344 95.442266 
L 451.319934 94.37962 
L 452.214523 94.155272 
L 453.109112 94.769532 
L 454.003701 96.215901 
L 454.89829 98.481135 
L 455.79288 101.545363 
L 456.687469 105.382263 
L 457.582058 109.959285 
L 459.371236 121.174059 
L 461.160415 134.816393 
L 462.949593 150.435715 
L 465.63336 176.436462 
L 471.895485 239.026537 
L 473.684663 254.792137 
L 475.473841 268.641462 
L 477.26302 280.13288 
L 478.157609 284.877345 
L 479.052198 288.902711 
L 479.946787 292.177585 
L 480.841377 294.676728 
L 481.735966 296.381242 
L 482.630555 297.278718 
L 483.525144 297.363323 
L 484.419733 296.635833 
L 485.314322 295.10362 
L 486.208912 292.780576 
L 487.103501 289.686992 
L 487.99809 285.849375 
L 488.892679 281.300231 
L 490.681857 270.225653 
L 492.471036 256.831604 
L 493.365625 249.400449 
L 493.365625 249.400449 
" clip-path="url(#p0ac9a35285)" style="fill: none; stroke: #1f77b4; stroke-width: 1.5; stroke-linecap: square"/>
   </g>
   <g id="line2d_20">
    <path d="M 46.965625 197.376362 
L 493.365625 197.376362 
L 493.365625 197.376362 
" clip-path="url(#p0ac9a35285)" style="fill: none; stroke: #ff7f0e; stroke-width: 1.5; stroke-linecap: square"/>
   </g>
   <g id="line2d_21">
    <path d="M 46.965625 352.690647 
L 47.860214 352.059529 
L 48.754803 350.171302 
L 49.649393 347.041313 
L 50.543982 342.694998 
L 51.438571 337.167681 
L 52.33316 330.504281 
L 53.227749 322.758953 
L 55.016928 304.282575 
L 56.806106 282.337956 
L 58.595284 257.637022 
L 61.279052 217.18857 
L 66.646587 135.01518 
L 68.435765 110.510215 
L 70.224944 88.823352 
L 72.014122 70.658156 
L 72.908711 63.085357 
L 73.8033 56.603939 
L 74.69789 51.266577 
L 75.592479 47.116648 
L 76.487068 44.187877 
L 77.381657 42.504067 
L 78.276246 42.078902 
L 79.170835 42.915838 
L 80.065425 45.008072 
L 80.960014 48.338602 
L 81.854603 52.88036 
L 82.749192 58.596435 
L 83.643781 65.440373 
L 84.53837 73.356552 
L 86.327549 92.140108 
L 88.116727 114.337728 
L 89.905906 139.22928 
L 92.589673 179.833763 
L 97.062619 248.836405 
L 98.851797 274.288929 
L 100.640976 297.246263 
L 102.430154 316.963628 
L 104.219332 332.801354 
L 105.113922 339.099386 
L 106.008511 344.245636 
L 106.9031 348.198281 
L 107.797689 350.925199 
L 108.692278 352.404227 
L 109.586867 352.623346 
L 110.481457 351.580774 
L 111.376046 349.284985 
L 112.270635 345.754637 
L 113.165224 341.01842 
L 114.059813 335.114826 
L 114.954403 328.091833 
L 116.743581 310.924588 
L 118.532759 290.073622 
L 120.321938 266.215381 
L 123.005705 226.503067 
L 129.267829 130.855126 
L 131.057008 106.757984 
L 132.846186 85.600674 
L 134.635364 68.06958 
L 135.529954 60.846724 
L 136.424543 54.733444 
L 137.319132 49.77942 
L 138.213721 46.024915 
L 139.10831 43.500442 
L 140.0029 42.226515 
L 140.897489 42.21349 
L 141.792078 43.461472 
L 142.686667 45.960318 
L 143.581256 49.68972 
L 144.475845 54.61937 
L 145.370435 60.709204 
L 146.265024 67.90973 
L 148.054202 85.400234 
L 149.843381 106.523457 
L 151.632559 130.59412 
L 154.316326 170.498391 
L 159.683861 253.127655 
L 161.47304 278.227455 
L 163.262218 300.704292 
L 165.051397 319.828974 
L 165.945986 327.935544 
L 166.840575 334.981061 
L 167.735164 340.908266 
L 168.629753 345.66899 
L 169.524342 349.224541 
L 170.418932 351.546023 
L 171.313521 352.614571 
L 172.20811 352.4215 
L 173.102699 350.968379 
L 173.997288 348.267018 
L 174.891878 344.33937 
L 175.786467 339.217355 
L 176.681056 332.942601 
L 177.575645 325.566101 
L 179.364823 307.756128 
L 181.154002 286.365225 
L 182.94318 262.087355 
L 185.626948 221.999774 
L 190.994483 139.497332 
L 192.783661 114.582071 
L 194.572839 92.352814 
L 196.362018 73.53072 
L 197.256607 65.593067 
L 198.151196 58.726415 
L 199.045785 52.986569 
L 199.940374 48.420178 
L 200.834964 45.064351 
L 201.729553 42.946362 
L 202.624142 42.083424 
L 203.518731 42.48255 
L 204.41332 44.140496 
L 205.30791 47.043788 
L 206.202499 51.16883 
L 207.097088 56.4821 
L 207.991677 62.940415 
L 208.886266 70.49129 
L 210.675445 88.616873 
L 212.464623 110.27082 
L 214.253801 134.750638 
L 216.937569 175.012842 
L 222.305104 257.370587 
L 224.094282 282.095911 
L 225.883461 304.072772 
L 227.672639 322.588198 
L 228.567228 330.355214 
L 229.461817 337.041514 
L 230.356407 342.592756 
L 231.250996 346.963826 
L 232.145585 350.119201 
L 233.040174 352.033237 
L 233.934763 352.690379 
L 234.829352 352.085285 
L 235.723942 350.222874 
L 236.618531 347.118281 
L 237.51312 342.796737 
L 238.407709 337.293364 
L 239.302298 330.652887 
L 240.196888 322.929274 
L 241.986066 304.492008 
L 243.775244 282.579707 
L 245.564423 257.903247 
L 248.24819 217.475142 
L 253.615725 135.279939 
L 255.404904 110.74991 
L 257.194082 89.030208 
L 258.98326 70.825461 
L 259.877849 63.230764 
L 260.772439 56.726266 
L 261.667028 51.36483 
L 262.561617 47.190028 
L 263.456206 44.235788 
L 264.350795 42.52612 
L 265.245385 42.074918 
L 266.139974 42.885848 
L 267.034563 44.952321 
L 267.929152 48.257543 
L 268.823741 52.774651 
L 269.71833 58.466935 
L 270.61292 65.288135 
L 271.507509 73.182814 
L 273.296687 91.927767 
L 275.085865 114.093674 
L 276.875044 138.961429 
L 279.558811 179.546675 
L 284.031757 248.563671 
L 285.820936 274.037749 
L 287.610114 297.024785 
L 289.399292 316.779037 
L 291.188471 332.659639 
L 292.08306 338.980925 
L 292.977649 344.151394 
L 293.872238 348.129023 
L 294.766827 350.881488 
L 295.661417 352.386418 
L 296.556006 352.631583 
L 297.450595 351.614991 
L 298.345184 349.344904 
L 299.239773 345.83977 
L 300.134362 341.128076 
L 301.028952 335.248114 
L 301.923541 328.24767 
L 303.712719 311.121549 
L 305.501898 290.305318 
L 307.291076 266.474295 
L 309.974843 226.786856 
L 316.236968 131.116362 
L 318.026146 106.992824 
L 319.815324 85.8015 
L 321.604503 68.229877 
L 322.499092 60.984718 
L 323.393681 54.848011 
L 324.28827 49.869631 
L 325.182859 46.090036 
L 326.077449 43.539944 
L 326.972038 42.240078 
L 327.866627 42.201002 
L 328.761216 43.423035 
L 329.655805 45.896245 
L 330.550395 49.600531 
L 331.444984 54.50579 
L 332.339573 60.572156 
L 333.234162 67.750329 
L 335.02334 85.200182 
L 336.812519 106.289244 
L 338.601697 130.333346 
L 341.285465 170.213831 
L 347.547589 265.696839 
L 349.336767 289.609269 
L 351.125946 310.529487 
L 352.915124 327.778803 
L 353.809713 334.84682 
L 354.704302 340.797616 
L 355.598892 345.582829 
L 356.493481 349.163571 
L 357.38807 351.510739 
L 358.282659 352.605259 
L 359.177248 352.438236 
L 360.071837 351.011027 
L 360.966427 348.335231 
L 361.861016 344.432595 
L 362.755605 339.334834 
L 363.650194 333.083378 
L 364.544783 325.729033 
L 366.333962 307.959228 
L 368.12314 286.601904 
L 369.912318 262.349934 
L 372.596086 222.285044 
L 377.963621 139.765584 
L 379.752799 114.826699 
L 381.541978 92.565882 
L 383.331156 73.705317 
L 384.225745 65.746218 
L 385.120334 58.856875 
L 386.014924 53.093279 
L 386.909513 48.502269 
L 387.804102 45.121157 
L 388.698691 42.977422 
L 389.59328 42.088484 
L 390.487869 42.461569 
L 391.382459 44.093645 
L 392.277048 46.971448 
L 393.171637 51.071589 
L 394.066226 56.360748 
L 394.960815 62.795938 
L 395.855405 70.324862 
L 397.644583 88.410769 
L 399.433761 110.031727 
L 401.22294 134.486311 
L 403.906707 174.726926 
L 409.274242 257.103945 
L 411.063421 281.853573 
L 412.852599 303.862599 
L 414.641777 322.417009 
L 415.536366 330.205687 
L 416.430956 336.914863 
L 417.325545 342.490011 
L 418.220134 346.885822 
L 419.114723 350.066572 
L 420.009312 352.00641 
L 420.903902 352.689572 
L 421.798491 352.110505 
L 422.69308 350.273916 
L 423.587669 347.194731 
L 424.482258 342.897973 
L 425.376847 337.418563 
L 426.271437 330.801032 
L 427.166026 323.09916 
L 428.955204 304.70107 
L 430.744383 282.821163 
L 432.533561 258.169263 
L 435.217328 217.761644 
L 440.584863 135.544913 
L 442.374042 110.989905 
L 444.16322 89.237439 
L 445.952399 70.993204 
L 446.846988 63.376635 
L 447.741577 56.84908 
L 448.636166 51.463588 
L 449.530755 47.263928 
L 450.425344 44.284229 
L 451.319934 42.548709 
L 452.214523 42.07147 
L 453.109112 42.856393 
L 454.003701 44.897098 
L 454.89829 48.176999 
L 455.79288 52.669442 
L 456.687469 58.337916 
L 457.582058 65.136354 
L 458.476647 73.009505 
L 460.265825 91.715791 
L 462.055004 113.849907 
L 463.844182 138.69378 
L 466.52795 179.25965 
L 471.000896 248.29076 
L 472.790074 273.786303 
L 474.579252 296.802962 
L 476.368431 316.594032 
L 478.157609 332.517455 
L 479.052198 338.861975 
L 479.946787 344.056643 
L 480.841377 348.059243 
L 481.735966 350.837245 
L 482.630555 352.368072 
L 483.525144 352.639283 
L 484.419733 351.648674 
L 485.314322 349.404297 
L 486.208912 345.92439 
L 487.103501 341.237235 
L 487.99809 335.380925 
L 488.892679 328.403053 
L 490.681857 311.318116 
L 492.471036 290.536692 
L 493.365625 278.966371 
L 493.365625 278.966371 
" clip-path="url(#p0ac9a35285)" style="fill: none; stroke-dasharray: 5.55,2.4; stroke-dashoffset: 0; stroke: #008000; stroke-width: 1.5"/>
   </g>
   <g id="patch_3">
    <path d="M 46.965625 445.879219 
L 46.965625 10.999219 
" style="fill: none; stroke: #000000; stroke-width: 0.8; stroke-linejoin: miter; stroke-linecap: square"/>
   </g>
   <g id="patch_4">
    <path d="M 493.365625 445.879219 
L 493.365625 10.999219 
" style="fill: none; stroke: #000000; stroke-width: 0.8; stroke-linejoin: miter; stroke-linecap: square"/>
   </g>
   <g id="patch_5">
    <path d="M 46.965625 445.879219 
L 493.365625 445.879219 
" style="fill: none; stroke: #000000; stroke-width: 0.8; stroke-linejoin: miter; stroke-linecap: square"/>
   </g>
   <g id="patch_6">
    <path d="M 46.965625 10.999219 
L 493.365625 10.999219 
" style="fill: none; stroke: #000000; stroke-width: 0.8; stroke-linejoin: miter; stroke-linecap: square"/>
   </g>
  </g>
 </g>
 <defs>
  <clipPath id="p0ac9a35285">
   <rect x="46.965625" y="10.999219" width="446.4" height="434.88"/>
  </clipPath>
 </defs>
</svg>