<?xml version="1.0" encoding="utf-8" standalone="no"?>
<!DOCTYPE svg PUBLIC "-//W3C//DTD SVG 1.1//EN"
  "http://www.w3.org/Graphics/SVG/1.1/DTD/svg11.dtd">
<svg xmlns:xlink="http://www.w3.org/1999/xlink" width="324.36pt" height="168.8pt" viewBox="0 0 324.36 168.8" xmlns="http://www.w3.org/2000/svg" version="1.1">
 <metadata>
  <rdf:RDF xmlns:dc="http://purl.org/dc/elements/1.1/" xmlns:cc="http://creativecommons.org/ns#" xmlns:rdf="http://www.w3.org/1999/02/22-rdf-syntax-ns#">
   <cc:Work>
    <dc:type rdf:resource="http://purl.org/dc/dcmitype/StillImage"/>
    <dc:date>2025-11-29T17:34:43.229977</dc:date>
    <dc:format>image/svg+xml</dc:format>
    <dc:creator>
     <cc:Agent>
      <dc:title>Matplotlib v3.10.8, https://matplotlib.org/</dc:title>
     </cc:Agent>
    </dc:creator>
   </cc:Work>
  </rdf:RDF>
 </metadata>
 <defs>
  <style type="text/css">*{stroke-linejoin: round; stroke-linecap: butt}</style>
 </defs>
 <g id="figure_1">
  <g id="patch_1">
   <path d="M 0 168.8 
L 324.36 168.8 
L 324.36 0 
L 0 0 
z
" style="fill: #ffffff"/>
  </g>
  <g id="axes_1">
   <g id="patch_2">
    <path d="M 22.68 105.08 
C 27.453656 105.08 32.032438 103.183406 35.407922 99.807922 
C 38.783406 96.432438 40.68 91.853656 40.68 87.08 
C 40.68 82.306344 38.783406 77.727562 35.407922 74.352078 
C 32.032438 70.976594 27.453656 69.08 22.68 69.08 
C 17.906344 69.08 13.327562 70.976594 9.952078 74.352078 
C 6.576594 77.727562 4.68 82.306344 4.68 87.08 
C 4.68 91.853656 6.576594 96.432438 9.952078 99.807922 
C 13.327562 103.183406 17.906344 105.08 22.68 105.08 
L 22.68 105.08 
z
" clip-path="url(#p6be0f9c4bd)" style="fill: none; stroke: #000000; stroke-width: 2; stroke-linejoin: miter"/>
   </g>
   <g id="patch_3">
    <path d="M 157.68 33.08 
C 157.68 31.661757 157.540319 30.257305 157.268949 28.947019 
C 156.99758 27.636733 156.599801 26.446096 156.098377 25.443247 
C 155.596952 24.440398 155.001633 23.644839 154.346491 23.102101 
C 153.691348 22.559363 152.989122 22.28 152.28 22.28 
C 151.570878 22.28 150.868652 22.559363 150.213509 23.102101 
C 149.558367 23.644839 148.963048 24.440398 148.461623 25.443247 
C 147.960199 26.446096 147.56242 27.636733 147.291051 28.947019 
C 147.019681 30.257305 146.88 31.661757 146.88 33.08 
C 146.88 34.498243 147.019681 35.902695 147.291051 37.212981 
C 147.56242 38.523267 147.960199 39.713904 148.461623 40.716753 
C 148.963048 41.719602 149.558367 42.515161 150.213509 43.057899 
C 150.868652 43.600637 151.570878 43.88 152.28 43.88 
C 152.989122 43.88 153.691348 43.600637 154.346491 43.057899 
C 155.001633 42.515161 155.596952 41.719602 156.098377 40.716753 
C 156.599801 39.713904 156.99758 38.523267 157.268949 37.212981 
C 157.540319 35.902695 157.68 34.498243 157.68 33.08 
" clip-path="url(#p6be0f9c4bd)" style="fill: none; stroke: #000000; stroke-width: 2; stroke-linejoin: miter"/>
   </g>
   <g id="patch_4">
    <path d="M 289.08 43.88 
C 290.51162 43.88 291.886069 42.741369 292.898377 40.716753 
C 293.910685 38.692137 294.48 35.94324 294.48 33.08 
C 294.48 30.21676 293.910685 27.467863 292.898377 25.443247 
C 291.886069 23.418631 290.51162 22.28 289.08 22.28 
" clip-path="url(#p6be0f9c4bd)" style="fill: none; stroke: #000000; stroke-width: 2; stroke-linejoin: miter"/>
   </g>
   <g id="line2d_1">
    <path d="M 22.68 141.08 
L 22.68 155.48 
L 13.68 155.48 
L 31.68 155.48 
M 16.38 159.8 
L 28.98 159.8 
M 20.88 164.12 
L 24.48 164.12 
" clip-path="url(#p6be0f9c4bd)" style="fill: none; stroke: #000000; stroke-width: 2; stroke-linecap: round"/>
   </g>
   <g id="line2d_2">
    <path d="M 22.68 141.08 
L 22.68 105.08 
L 22.68 105.08 
M 22.68 69.08 
L 22.68 69.08 
L 22.68 33.08 
" clip-path="url(#p6be0f9c4bd)" style="fill: none; stroke: #000000; stroke-width: 2; stroke-linecap: round"/>
   </g>
   <g id="line2d_3">
    <path d="M 13.68 87.08 
L 13.68 79.88 
L 22.68 79.88 
L 22.68 94.28 
L 31.68 94.28 
L 31.68 87.08 
" clip-path="url(#p6be0f9c4bd)" style="fill: none; stroke: #000000; stroke-width: 2; stroke-linecap: round"/>
   </g>
   <g id="line2d_4">
    <path d="M 22.68 33.08 
L 58.68 33.08 
L 58.68 24.08 
L 94.68 24.08 
L 94.68 42.08 
L 58.68 42.08 
L 58.68 33.08 
M 94.68 33.08 
L 130.68 33.08 
" clip-path="url(#p6be0f9c4bd)" style="fill: none; stroke: #000000; stroke-width: 2; stroke-linecap: round"/>
   </g>
   <g id="line2d_5">
    <path d="M 130.68 33.08 
L 152.28 33.08 
M 294.48 33.08 
L 310.68 33.08 
" clip-path="url(#p6be0f9c4bd)" style="fill: none; stroke: #000000; stroke-width: 2; stroke-linecap: round"/>
   </g>
   <g id="line2d_6">
    <path d="M 152.28 22.28 
L 289.08 22.28 
" clip-path="url(#p6be0f9c4bd)" style="fill: none; stroke: #000000; stroke-width: 2; stroke-linecap: round"/>
   </g>
   <g id="line2d_7">
    <path d="M 152.28 43.88 
L 289.08 43.88 
" clip-path="url(#p6be0f9c4bd)" style="fill: none; stroke: #000000; stroke-width: 2; stroke-linecap: round"/>
   </g>
   <g id="line2d_8">
    <path d="M 310.68 33.08 
L 310.68 69.08 
L 319.68 69.08 
L 319.68 105.08 
L 301.68 105.08 
L 301.68 69.08 
L 310.68 69.08 
M 310.68 105.08 
L 310.68 141.08 
" clip-path="url(#p6be0f9c4bd)" style="fill: none; stroke: #000000; stroke-width: 2; stroke-linecap: round"/>
   </g>
   <g id="line2d_9">
    <path d="M 310.68 141.08 
L 310.68 155.48 
L 301.68 155.48 
L 319.68 155.48 
M 304.38 159.8 
L 316.98 159.8 
M 308.88 164.12 
L 312.48 164.12 
" clip-path="url(#p6be0f9c4bd)" style="fill: none; stroke: #000000; stroke-width: 2; stroke-linecap: round"/>
   </g>
   <g id="text_1">
    <!-- $Z_s= 30 \Omega$ -->
    <g transform="translate(46.23 17.568437) scale(0.14 -0.14)">
     <defs>
      <path id="DejaVuSans-Oblique-5a" d="M 838 4666 
L 4500 4666 
L 4409 4184 
L 794 531 
L 3769 531 
L 3669 0 
L -141 0 
L -50 481 
L 3566 4134 
L 738 4134 
L 838 4666 
z
" transform="scale(0.015625)"/>
      <path id="DejaVuSans-Oblique-73" d="M 3200 3397 
L 3091 2853 
Q 2863 2978 2609 3040 
Q 2356 3103 2088 3103 
Q 1634 3103 1373 2948 
Q 1113 2794 1113 2528 
Q 1113 2219 1719 2053 
Q 1766 2041 1788 2034 
L 1972 1978 
Q 2547 1819 2739 1644 
Q 2931 1469 2931 1166 
Q 2931 609 2489 259 
Q 2047 -91 1331 -91 
Q 1053 -91 747 -37 
Q 441 16 72 128 
L 184 722 
Q 500 559 806 475 
Q 1113 391 1394 391 
Q 1816 391 2080 572 
Q 2344 753 2344 1031 
Q 2344 1331 1650 1516 
L 1591 1531 
L 1394 1581 
Q 956 1697 753 1886 
Q 550 2075 550 2369 
Q 550 2928 970 3256 
Q 1391 3584 2113 3584 
Q 2397 3584 2667 3537 
Q 2938 3491 3200 3397 
z
" transform="scale(0.015625)"/>
      <path id="DejaVuSans-3d" d="M 678 2906 
L 4684 2906 
L 4684 2381 
L 678 2381 
L 678 2906 
z
M 678 1631 
L 4684 1631 
L 4684 1100 
L 678 1100 
L 678 1631 
z
" transform="scale(0.015625)"/>
      <path id="DejaVuSans-33" d="M 2597 2516 
Q 3050 2419 3304 2112 
Q 3559 1806 3559 1356 
Q 3559 666 3084 287 
Q 2609 -91 1734 -91 
Q 1441 -91 1130 -33 
Q 819 25 488 141 
L 488 750 
Q 750 597 1062 519 
Q 1375 441 1716 441 
Q 2309 441 2620 675 
Q 2931 909 2931 1356 
Q 2931 1769 2642 2001 
Q 2353 2234 1838 2234 
L 1294 2234 
L 1294 2753 
L 1863 2753 
Q 2328 2753 2575 2939 
Q 2822 3125 2822 3475 
Q 2822 3834 2567 4026 
Q 2313 4219 1838 4219 
Q 1578 4219 1281 4162 
Q 984 4106 628 3988 
L 628 4550 
Q 988 4650 1302 4700 
Q 1616 4750 1894 4750 
Q 2613 4750 3031 4423 
Q 3450 4097 3450 3541 
Q 3450 3153 3228 2886 
Q 3006 2619 2597 2516 
z
" transform="scale(0.015625)"/>
      <path id="DejaVuSans-30" d="M 2034 4250 
Q 1547 4250 1301 3770 
Q 1056 3291 1056 2328 
Q 1056 1369 1301 889 
Q 1547 409 2034 409 
Q 2525 409 2770 889 
Q 3016 1369 3016 2328 
Q 3016 3291 2770 3770 
Q 2525 4250 2034 4250 
z
M 2034 4750 
Q 2819 4750 3233 4129 
Q 3647 3509 3647 2328 
Q 3647 1150 3233 529 
Q 2819 -91 2034 -91 
Q 1250 -91 836 529 
Q 422 1150 422 2328 
Q 422 3509 836 4129 
Q 1250 4750 2034 4750 
z
" transform="scale(0.015625)"/>
      <path id="DejaVuSans-3a9" d="M 4647 556 
L 4647 0 
L 2772 0 
L 2772 556 
Q 3325 859 3634 1378 
Q 3944 1897 3944 2528 
Q 3944 3278 3531 3731 
Q 3119 4184 2444 4184 
Q 1769 4184 1355 3729 
Q 941 3275 941 2528 
Q 941 1897 1250 1378 
Q 1563 859 2119 556 
L 2119 0 
L 244 0 
L 244 556 
L 1241 556 
Q 747 991 519 1456 
Q 294 1922 294 2497 
Q 294 3491 894 4106 
Q 1491 4722 2444 4722 
Q 3391 4722 3994 4106 
Q 4594 3494 4594 2528 
Q 4594 1922 4372 1459 
Q 4150 997 3647 556 
L 4647 556 
z
" transform="scale(0.015625)"/>
     </defs>
     <use xlink:href="#DejaVuSans-Oblique-5a" transform="translate(0 0.78125)"/>
     <use xlink:href="#DejaVuSans-Oblique-73" transform="translate(68.505859 -15.625) scale(0.7)"/>
     <use xlink:href="#DejaVuSans-3d" transform="translate(127.192383 0.78125)"/>
     <use xlink:href="#DejaVuSans-33" transform="translate(230.463867 0.78125)"/>
     <use xlink:href="#DejaVuSans-30" transform="translate(294.086914 0.78125)"/>
     <use xlink:href="#DejaVuSans-3a9" transform="translate(357.709961 0.78125)"/>
    </g>
   </g>
   <g id="text_2">
    <!-- $Z_o=50 \Omega$ -->
    <g transform="translate(189.81 15.768437) scale(0.14 -0.14)">
     <defs>
      <path id="DejaVuSans-Oblique-6f" d="M 1625 -91 
Q 1009 -91 651 289 
Q 294 669 294 1325 
Q 294 1706 417 2101 
Q 541 2497 738 2766 
Q 1047 3184 1428 3384 
Q 1809 3584 2291 3584 
Q 2888 3584 3255 3212 
Q 3622 2841 3622 2241 
Q 3622 1825 3500 1412 
Q 3378 1000 3181 728 
Q 2875 309 2494 109 
Q 2113 -91 1625 -91 
z
M 891 1344 
Q 891 869 1089 633 
Q 1288 397 1691 397 
Q 2269 397 2648 901 
Q 3028 1406 3028 2181 
Q 3028 2634 2825 2865 
Q 2622 3097 2228 3097 
Q 1903 3097 1650 2945 
Q 1397 2794 1197 2484 
Q 1050 2253 970 1956 
Q 891 1659 891 1344 
z
" transform="scale(0.015625)"/>
      <path id="DejaVuSans-35" d="M 691 4666 
L 3169 4666 
L 3169 4134 
L 1269 4134 
L 1269 2991 
Q 1406 3038 1543 3061 
Q 1681 3084 1819 3084 
Q 2600 3084 3056 2656 
Q 3513 2228 3513 1497 
Q 3513 744 3044 326 
Q 2575 -91 1722 -91 
Q 1428 -91 1123 -41 
Q 819 9 494 109 
L 494 744 
Q 775 591 1075 516 
Q 1375 441 1709 441 
Q 2250 441 2565 725 
Q 2881 1009 2881 1497 
Q 2881 1984 2565 2268 
Q 2250 2553 1709 2553 
Q 1456 2553 1204 2497 
Q 953 2441 691 2322 
L 691 4666 
z
" transform="scale(0.015625)"/>
     </defs>
     <use xlink:href="#DejaVuSans-Oblique-5a" transform="translate(0 0.78125)"/>
     <use xlink:href="#DejaVuSans-Oblique-6f" transform="translate(68.505859 -15.625) scale(0.7)"/>
     <use xlink:href="#DejaVuSans-3d" transform="translate(133.549805 0.78125)"/>
     <use xlink:href="#DejaVuSans-35" transform="translate(236.821289 0.78125)"/>
     <use xlink:href="#DejaVuSans-30" transform="translate(300.444336 0.78125)"/>
     <use xlink:href="#DejaVuSans-3a9" transform="translate(364.067383 0.78125)"/>
    </g>
   </g>
   <g id="text_3">
    <!-- $Z_L= 120 \Omega$ -->
    <g transform="translate(227.94 90.943125) scale(0.14 -0.14)">
     <defs>
      <path id="DejaVuSans-Oblique-4c" d="M 1075 4666 
L 1709 4666 
L 909 525 
L 3181 525 
L 3078 0 
L 172 0 
L 1075 4666 
z
" transform="scale(0.015625)"/>
      <path id="DejaVuSans-31" d="M 794 531 
L 1825 531 
L 1825 4091 
L 703 3866 
L 703 4441 
L 1819 4666 
L 2450 4666 
L 2450 531 
L 3481 531 
L 3481 0 
L 794 0 
L 794 531 
z
" transform="scale(0.015625)"/>
      <path id="DejaVuSans-32" d="M 1228 531 
L 3431 531 
L 3431 0 
L 469 0 
L 469 531 
Q 828 903 1448 1529 
Q 2069 2156 2228 2338 
Q 2531 2678 2651 2914 
Q 2772 3150 2772 3378 
Q 2772 3750 2511 3984 
Q 2250 4219 1831 4219 
Q 1534 4219 1204 4116 
Q 875 4013 500 3803 
L 500 4441 
Q 881 4594 1212 4672 
Q 1544 4750 1819 4750 
Q 2544 4750 2975 4387 
Q 3406 4025 3406 3419 
Q 3406 3131 3298 2873 
Q 3191 2616 2906 2266 
Q 2828 2175 2409 1742 
Q 1991 1309 1228 531 
z
" transform="scale(0.015625)"/>
     </defs>
     <use xlink:href="#DejaVuSans-Oblique-5a" transform="translate(0 0.78125)"/>
     <use xlink:href="#DejaVuSans-Oblique-4c" transform="translate(68.505859 -15.625) scale(0.7)"/>
     <use xlink:href="#DejaVuSans-3d" transform="translate(129.72168 0.78125)"/>
     <use xlink:href="#DejaVuSans-31" transform="translate(232.993164 0.78125)"/>
     <use xlink:href="#DejaVuSans-32" transform="translate(296.616211 0.78125)"/>
     <use xlink:href="#DejaVuSans-30" transform="translate(360.239258 0.78125)"/>
     <use xlink:href="#DejaVuSans-3a9" transform="translate(423.862305 0.78125)"/>
    </g>
   </g>
   <g id="patch_5">
    <path d="M 22.68 35.78 
C 23.396048 35.78 24.082866 35.495511 24.589188 34.989188 
C 25.095511 34.482866 25.38 33.796048 25.38 33.08 
C 25.38 32.363952 25.095511 31.677134 24.589188 31.170812 
C 24.082866 30.664489 23.396048 30.38 22.68 30.38 
C 21.963952 30.38 21.277134 30.664489 20.770812 31.170812 
C 20.264489 31.677134 19.98 32.363952 19.98 33.08 
C 19.98 33.796048 20.264489 34.482866 20.770812 34.989188 
C 21.277134 35.495511 21.963952 35.78 22.68 35.78 
z
" clip-path="url(#p6be0f9c4bd)" style="stroke: #000000; stroke-width: 2; stroke-linejoin: miter"/>
   </g>
   <g id="patch_6">
    <path d="M 130.68 35.78 
C 131.396048 35.78 132.082866 35.495511 132.589188 34.989188 
C 133.095511 34.482866 133.38 33.796048 133.38 33.08 
C 133.38 32.363952 133.095511 31.677134 132.589188 31.170812 
C 132.082866 30.664489 131.396048 30.38 130.68 30.38 
C 129.963952 30.38 129.277134 30.664489 128.770812 31.170812 
C 128.264489 31.677134 127.98 32.363952 127.98 33.08 
C 127.98 33.796048 128.264489 34.482866 128.770812 34.989188 
C 129.277134 35.495511 129.963952 35.78 130.68 35.78 
z
" clip-path="url(#p6be0f9c4bd)" style="stroke: #000000; stroke-width: 2; stroke-linejoin: miter"/>
   </g>
   <g id="patch_7">
    <path d="M 310.68 35.78 
C 311.396048 35.78 312.082866 35.495511 312.589188 34.989188 
C 313.095511 34.482866 313.38 33.796048 313.38 33.08 
C 313.38 32.363952 313.095511 31.677134 312.589188 31.170812 
C 312.082866 30.664489 311.396048 30.38 310.68 30.38 
C 309.963952 30.38 309.277134 30.664489 308.770812 31.170812 
C 308.264489 31.677134 307.98 32.363952 307.98 33.08 
C 307.98 33.796048 308.264489 34.482866 308.770812 34.989188 
C 309.277134 35.495511 309.963952 35.78 310.68 35.78 
z
" clip-path="url(#p6be0f9c4bd)" style="stroke: #000000; stroke-width: 2; stroke-linejoin: miter"/>
   </g>
  </g>
 </g>
 <defs>
  <clipPath id="p6be0f9c4bd">
   <rect x="0" y="0" width="324.36" height="168.8"/>
  </clipPath>
 </defs>
</svg>