<?xml version="1.0" encoding="utf-8" standalone="no"?>
<!DOCTYPE svg PUBLIC "-//W3C//DTD SVG 1.1//EN"
  "http://www.w3.org/Graphics/SVG/1.1/DTD/svg11.dtd">
<svg xmlns:xlink="http://www.w3.org/1999/xlink" width="686.7504pt" height="264.96pt" viewBox="0 0 686.7504 264.96" xmlns="http://www.w3.org/2000/svg" version="1.1">
 <metadata>
  <rdf:RDF xmlns:dc="http://purl.org/dc/elements/1.1/" xmlns:cc="http://creativecommons.org/ns#" xmlns:rdf="http://www.w3.org/1999/02/22-rdf-syntax-ns#">
   <cc:Work>
    <dc:type rdf:resource="http://purl.org/dc/dcmitype/StillImage"/>
    <dc:date>2025-11-19T01:44:12.853381</dc:date>
    <dc:format>image/svg+xml</dc:format>
    <dc:creator>
     <cc:Agent>
      <dc:title>Matplotlib v3.10.8, https://matplotlib.org/</dc:title>
     </cc:Agent>
    </dc:creator>
   </cc:Work>
  </rdf:RDF>
 </metadata>
 <defs>
  <style type="text/css">*{stroke-linejoin: round; stroke-linecap: butt}</style>
 </defs>
 <g id="figure_1">
  <g id="patch_1">
   <path d="M 0 264.96 
L 686.7504 264.96 
L 686.7504 0 
L 0 0 
z
" style="fill: #ffffff"/>
  </g>
  <g id="axes_1">
   <g id="line2d_1">
    <path d="M 13.1856 183.744 
L 27.5856 183.744 
L 41.9856 183.744 
" clip-path="url(#pe1ce2a6efd)" style="fill: none; stroke: #000000; stroke-width: 2; stroke-linecap: round"/>
   </g>
   <g id="line2d_2">
    <path d="M 41.9856 183.744 
L 70.7856 183.744 
L 73.1856 176.544 
L 77.9856 190.944 
L 82.7856 176.544 
L 87.5856 190.944 
L 92.3856 176.544 
L 97.1856 190.944 
L 99.5856 183.744 
L 128.3856 183.744 
" clip-path="url(#pe1ce2a6efd)" style="fill: none; stroke: #000000; stroke-width: 2; stroke-linecap: round"/>
   </g>
   <g id="line2d_3">
    <path d="M 128.3856 183.744 
L 135.5856 183.744 
L 142.7856 183.744 
" clip-path="url(#pe1ce2a6efd)" style="fill: none; stroke: #000000; stroke-width: 2; stroke-linecap: round"/>
   </g>
   <g id="line2d_4">
    <path d="M 142.7856 201.744 
L 142.7856 165.744 
L 205.139429 201.744 
L 142.7856 237.744 
L 142.7856 201.744 
M 205.139429 201.744 
" clip-path="url(#pe1ce2a6efd)" style="fill: none; stroke: #000000; stroke-width: 2; stroke-linecap: round"/>
   </g>
   <g id="line2d_5">
    <path d="M 147.699829 183.744 
L 153.459829 183.744 
" clip-path="url(#pe1ce2a6efd)" style="fill: none; stroke: #000000; stroke-width: 2; stroke-linecap: round"/>
   </g>
   <g id="line2d_6">
    <path d="M 147.699829 219.744 
L 153.459829 219.744 
" clip-path="url(#pe1ce2a6efd)" style="fill: none; stroke: #000000; stroke-width: 2; stroke-linecap: round"/>
   </g>
   <g id="line2d_7">
    <path d="M 150.579829 222.624 
L 150.579829 216.864 
" clip-path="url(#pe1ce2a6efd)" style="fill: none; stroke: #000000; stroke-width: 2; stroke-linecap: round"/>
   </g>
   <g id="line2d_8">
    <path d="M 142.7856 219.744 
L 128.3856 219.744 
L 113.9856 219.744 
" clip-path="url(#pe1ce2a6efd)" style="fill: none; stroke: #000000; stroke-width: 2; stroke-linecap: round"/>
   </g>
   <g id="line2d_9">
    <path d="M 113.9856 219.744 
L 113.9856 231.264 
L 113.9856 242.784 
" clip-path="url(#pe1ce2a6efd)" style="fill: none; stroke: #000000; stroke-width: 2; stroke-linecap: round"/>
   </g>
   <g id="line2d_10">
    <path d="M 113.9856 242.784 
L 113.9856 254.304 
L 106.7856 254.304 
L 121.1856 254.304 
M 108.9456 257.76 
L 119.0256 257.76 
M 112.5456 261.216 
L 115.4256 261.216 
" clip-path="url(#pe1ce2a6efd)" style="fill: none; stroke: #000000; stroke-width: 2; stroke-linecap: round"/>
   </g>
   <g id="line2d_11">
    <path d="M 128.3856 183.744 
L 128.3856 154.944 
L 128.3856 126.144 
" clip-path="url(#pe1ce2a6efd)" style="fill: none; stroke: #000000; stroke-width: 2; stroke-linecap: round"/>
   </g>
   <g id="line2d_12">
    <path d="M 128.3856 126.144 
L 171.5856 126.144 
L 173.9856 118.944 
L 178.7856 133.344 
L 183.5856 118.944 
L 188.3856 133.344 
L 193.1856 118.944 
L 197.9856 133.344 
L 200.3856 126.144 
L 243.5856 126.144 
" clip-path="url(#pe1ce2a6efd)" style="fill: none; stroke: #000000; stroke-width: 2; stroke-linecap: round"/>
   </g>
   <g id="line2d_13">
    <path d="M 128.3856 126.144 
L 128.3856 97.344 
L 128.3856 68.544 
" clip-path="url(#pe1ce2a6efd)" style="fill: none; stroke: #000000; stroke-width: 2; stroke-linecap: round"/>
   </g>
   <g id="line2d_14">
    <path d="M 128.3856 68.544 
L 183.3936 68.544 
M 183.3936 61.344 
L 183.3936 75.744 
M 188.5776 61.344 
L 188.5776 75.744 
M 188.5776 68.544 
L 243.5856 68.544 
" clip-path="url(#pe1ce2a6efd)" style="fill: none; stroke: #000000; stroke-width: 2; stroke-linecap: round"/>
   </g>
   <g id="line2d_15">
    <path d="M 243.5856 68.544 
L 243.5856 126.144 
L 243.5856 183.744 
" clip-path="url(#pe1ce2a6efd)" style="fill: none; stroke: #000000; stroke-width: 2; stroke-linecap: round"/>
   </g>
   <g id="line2d_16">
    <path d="M 243.5856 183.744 
L 243.5856 192.744 
L 243.5856 201.744 
" clip-path="url(#pe1ce2a6efd)" style="fill: none; stroke: #000000; stroke-width: 2; stroke-linecap: round"/>
   </g>
   <g id="line2d_17">
    <path d="M 243.5856 201.744 
L 224.362515 201.744 
L 205.139429 201.744 
" clip-path="url(#pe1ce2a6efd)" style="fill: none; stroke: #000000; stroke-width: 2; stroke-linecap: round"/>
   </g>
   <g id="line2d_18">
    <path d="M 243.5856 183.744 
L 272.3856 183.744 
L 274.7856 176.544 
L 279.5856 190.944 
L 284.3856 176.544 
L 289.1856 190.944 
L 293.9856 176.544 
L 298.7856 190.944 
L 301.1856 183.744 
L 329.9856 183.744 
" clip-path="url(#pe1ce2a6efd)" style="fill: none; stroke: #000000; stroke-width: 2; stroke-linecap: round"/>
   </g>
   <g id="line2d_19">
    <path d="M 329.9856 183.744 
L 337.1856 183.744 
L 344.3856 183.744 
" clip-path="url(#pe1ce2a6efd)" style="fill: none; stroke: #000000; stroke-width: 2; stroke-linecap: round"/>
   </g>
   <g id="line2d_20">
    <path d="M 344.3856 201.744 
L 344.3856 165.744 
L 406.739429 201.744 
L 344.3856 237.744 
L 344.3856 201.744 
M 406.739429 201.744 
" clip-path="url(#pe1ce2a6efd)" style="fill: none; stroke: #000000; stroke-width: 2; stroke-linecap: round"/>
   </g>
   <g id="line2d_21">
    <path d="M 349.299829 183.744 
L 355.059829 183.744 
" clip-path="url(#pe1ce2a6efd)" style="fill: none; stroke: #000000; stroke-width: 2; stroke-linecap: round"/>
   </g>
   <g id="line2d_22">
    <path d="M 349.299829 219.744 
L 355.059829 219.744 
" clip-path="url(#pe1ce2a6efd)" style="fill: none; stroke: #000000; stroke-width: 2; stroke-linecap: round"/>
   </g>
   <g id="line2d_23">
    <path d="M 352.179829 222.624 
L 352.179829 216.864 
" clip-path="url(#pe1ce2a6efd)" style="fill: none; stroke: #000000; stroke-width: 2; stroke-linecap: round"/>
   </g>
   <g id="line2d_24">
    <path d="M 344.3856 219.744 
L 329.9856 219.744 
L 315.5856 219.744 
" clip-path="url(#pe1ce2a6efd)" style="fill: none; stroke: #000000; stroke-width: 2; stroke-linecap: round"/>
   </g>
   <g id="line2d_25">
    <path d="M 315.5856 219.744 
L 315.5856 231.264 
L 315.5856 242.784 
" clip-path="url(#pe1ce2a6efd)" style="fill: none; stroke: #000000; stroke-width: 2; stroke-linecap: round"/>
   </g>
   <g id="line2d_26">
    <path d="M 315.5856 242.784 
L 315.5856 254.304 
L 308.3856 254.304 
L 322.7856 254.304 
M 310.5456 257.76 
L 320.6256 257.76 
M 314.1456 261.216 
L 317.0256 261.216 
" clip-path="url(#pe1ce2a6efd)" style="fill: none; stroke: #000000; stroke-width: 2; stroke-linecap: round"/>
   </g>
   <g id="line2d_27">
    <path d="M 329.9856 183.744 
L 329.9856 154.944 
L 329.9856 126.144 
" clip-path="url(#pe1ce2a6efd)" style="fill: none; stroke: #000000; stroke-width: 2; stroke-linecap: round"/>
   </g>
   <g id="line2d_28">
    <path d="M 329.9856 126.144 
L 384.9936 126.144 
M 384.9936 118.944 
L 384.9936 133.344 
M 390.1776 118.944 
L 390.1776 133.344 
M 390.1776 126.144 
L 445.1856 126.144 
" clip-path="url(#pe1ce2a6efd)" style="fill: none; stroke: #000000; stroke-width: 2; stroke-linecap: round"/>
   </g>
   <g id="line2d_29">
    <path d="M 445.1856 126.144 
L 445.1856 154.944 
L 445.1856 183.744 
" clip-path="url(#pe1ce2a6efd)" style="fill: none; stroke: #000000; stroke-width: 2; stroke-linecap: round"/>
   </g>
   <g id="line2d_30">
    <path d="M 445.1856 183.744 
L 445.1856 192.744 
L 445.1856 201.744 
" clip-path="url(#pe1ce2a6efd)" style="fill: none; stroke: #000000; stroke-width: 2; stroke-linecap: round"/>
   </g>
   <g id="line2d_31">
    <path d="M 445.1856 201.744 
L 425.962515 201.744 
L 406.739429 201.744 
" clip-path="url(#pe1ce2a6efd)" style="fill: none; stroke: #000000; stroke-width: 2; stroke-linecap: round"/>
   </g>
   <g id="line2d_32">
    <path d="M 445.1856 183.744 
L 473.9856 183.744 
L 476.3856 176.544 
L 481.1856 190.944 
L 485.9856 176.544 
L 490.7856 190.944 
L 495.5856 176.544 
L 500.3856 190.944 
L 502.7856 183.744 
L 531.5856 183.744 
" clip-path="url(#pe1ce2a6efd)" style="fill: none; stroke: #000000; stroke-width: 2; stroke-linecap: round"/>
   </g>
   <g id="line2d_33">
    <path d="M 531.5856 183.744 
L 538.7856 183.744 
L 545.9856 183.744 
" clip-path="url(#pe1ce2a6efd)" style="fill: none; stroke: #000000; stroke-width: 2; stroke-linecap: round"/>
   </g>
   <g id="line2d_34">
    <path d="M 545.9856 201.744 
L 545.9856 165.744 
L 608.339429 201.744 
L 545.9856 237.744 
L 545.9856 201.744 
M 608.339429 201.744 
" clip-path="url(#pe1ce2a6efd)" style="fill: none; stroke: #000000; stroke-width: 2; stroke-linecap: round"/>
   </g>
   <g id="line2d_35">
    <path d="M 550.899829 183.744 
L 556.659829 183.744 
" clip-path="url(#pe1ce2a6efd)" style="fill: none; stroke: #000000; stroke-width: 2; stroke-linecap: round"/>
   </g>
   <g id="line2d_36">
    <path d="M 550.899829 219.744 
L 556.659829 219.744 
" clip-path="url(#pe1ce2a6efd)" style="fill: none; stroke: #000000; stroke-width: 2; stroke-linecap: round"/>
   </g>
   <g id="line2d_37">
    <path d="M 553.779829 222.624 
L 553.779829 216.864 
" clip-path="url(#pe1ce2a6efd)" style="fill: none; stroke: #000000; stroke-width: 2; stroke-linecap: round"/>
   </g>
   <g id="line2d_38">
    <path d="M 545.9856 219.744 
L 531.5856 219.744 
L 517.1856 219.744 
" clip-path="url(#pe1ce2a6efd)" style="fill: none; stroke: #000000; stroke-width: 2; stroke-linecap: round"/>
   </g>
   <g id="line2d_39">
    <path d="M 517.1856 219.744 
L 517.1856 231.264 
L 517.1856 242.784 
" clip-path="url(#pe1ce2a6efd)" style="fill: none; stroke: #000000; stroke-width: 2; stroke-linecap: round"/>
   </g>
   <g id="line2d_40">
    <path d="M 517.1856 242.784 
L 517.1856 254.304 
L 509.9856 254.304 
L 524.3856 254.304 
M 512.1456 257.76 
L 522.2256 257.76 
M 515.7456 261.216 
L 518.6256 261.216 
" clip-path="url(#pe1ce2a6efd)" style="fill: none; stroke: #000000; stroke-width: 2; stroke-linecap: round"/>
   </g>
   <g id="line2d_41">
    <path d="M 531.5856 183.744 
L 531.5856 154.944 
L 531.5856 126.144 
" clip-path="url(#pe1ce2a6efd)" style="fill: none; stroke: #000000; stroke-width: 2; stroke-linecap: round"/>
   </g>
   <g id="line2d_42">
    <path d="M 531.5856 126.144 
L 574.7856 126.144 
L 577.1856 118.944 
L 581.9856 133.344 
L 586.7856 118.944 
L 591.5856 133.344 
L 596.3856 118.944 
L 601.1856 133.344 
L 603.5856 126.144 
L 646.7856 126.144 
" clip-path="url(#pe1ce2a6efd)" style="fill: none; stroke: #000000; stroke-width: 2; stroke-linecap: round"/>
   </g>
   <g id="line2d_43">
    <path d="M 646.7856 126.144 
L 646.7856 163.944 
L 646.7856 201.744 
" clip-path="url(#pe1ce2a6efd)" style="fill: none; stroke: #000000; stroke-width: 2; stroke-linecap: round"/>
   </g>
   <g id="line2d_44">
    <path d="M 646.7856 201.744 
L 627.562515 201.744 
L 608.339429 201.744 
" clip-path="url(#pe1ce2a6efd)" style="fill: none; stroke: #000000; stroke-width: 2; stroke-linecap: round"/>
   </g>
   <g id="line2d_45">
    <path d="M 646.7856 126.144 
L 646.7856 68.544 
L 646.7856 10.944 
" clip-path="url(#pe1ce2a6efd)" style="fill: none; stroke: #000000; stroke-width: 2; stroke-linecap: round"/>
   </g>
   <g id="line2d_46">
    <path d="M 646.7856 10.944 
L 473.9856 10.944 
L 301.1856 10.944 
" clip-path="url(#pe1ce2a6efd)" style="fill: none; stroke: #000000; stroke-width: 2; stroke-linecap: round"/>
   </g>
   <g id="line2d_47">
    <path d="M 301.1856 10.944 
L 272.3856 10.944 
L 269.9856 18.144 
L 265.1856 3.744 
L 260.3856 18.144 
L 255.5856 3.744 
L 250.7856 18.144 
L 245.9856 3.744 
L 243.5856 10.944 
L 214.7856 10.944 
" clip-path="url(#pe1ce2a6efd)" style="fill: none; stroke: #000000; stroke-width: 2; stroke-linecap: round"/>
   </g>
   <g id="line2d_48">
    <path d="M 214.7856 10.944 
L 171.5856 10.944 
L 128.3856 10.944 
" clip-path="url(#pe1ce2a6efd)" style="fill: none; stroke: #000000; stroke-width: 2; stroke-linecap: round"/>
   </g>
   <g id="line2d_49">
    <path d="M 128.3856 10.944 
L 128.3856 97.344 
L 128.3856 183.744 
" clip-path="url(#pe1ce2a6efd)" style="fill: none; stroke: #000000; stroke-width: 2; stroke-linecap: round"/>
   </g>
   <g id="text_1">
    <!-- $R_{11}$ -->
    <g transform="translate(73.8456 204.461813) scale(0.14 -0.14)">
     <defs>
      <path id="DejaVuSans-Oblique-52" d="M 1613 4147 
L 1294 2491 
L 2106 2491 
Q 2584 2491 2879 2755 
Q 3175 3019 3175 3444 
Q 3175 3784 2976 3965 
Q 2778 4147 2406 4147 
L 1613 4147 
z
M 2772 2241 
Q 2972 2194 3105 2009 
Q 3238 1825 3413 1275 
L 3809 0 
L 3144 0 
L 2778 1197 
Q 2638 1659 2453 1815 
Q 2269 1972 1888 1972 
L 1191 1972 
L 806 0 
L 172 0 
L 1081 4666 
L 2503 4666 
Q 3150 4666 3495 4373 
Q 3841 4081 3841 3531 
Q 3841 3044 3547 2687 
Q 3253 2331 2772 2241 
z
" transform="scale(0.015625)"/>
      <path id="DejaVuSans-31" d="M 794 531 
L 1825 531 
L 1825 4091 
L 703 3866 
L 703 4441 
L 1819 4666 
L 2450 4666 
L 2450 531 
L 3481 531 
L 3481 0 
L 794 0 
L 794 531 
z
" transform="scale(0.015625)"/>
     </defs>
     <use xlink:href="#DejaVuSans-Oblique-52" transform="translate(0 0.09375)"/>
     <use xlink:href="#DejaVuSans-31" transform="translate(69.482422 -16.3125) scale(0.7)"/>
     <use xlink:href="#DejaVuSans-31" transform="translate(114.018555 -16.3125) scale(0.7)"/>
    </g>
   </g>
   <g id="text_2">
    <!-- $R_{12}$ -->
    <g transform="translate(174.6456 113.152438) scale(0.14 -0.14)">
     <defs>
      <path id="DejaVuSans-32" d="M 1228 531 
L 3431 531 
L 3431 0 
L 469 0 
L 469 531 
Q 828 903 1448 1529 
Q 2069 2156 2228 2338 
Q 2531 2678 2651 2914 
Q 2772 3150 2772 3378 
Q 2772 3750 2511 3984 
Q 2250 4219 1831 4219 
Q 1534 4219 1204 4116 
Q 875 4013 500 3803 
L 500 4441 
Q 881 4594 1212 4672 
Q 1544 4750 1819 4750 
Q 2544 4750 2975 4387 
Q 3406 4025 3406 3419 
Q 3406 3131 3298 2873 
Q 3191 2616 2906 2266 
Q 2828 2175 2409 1742 
Q 1991 1309 1228 531 
z
" transform="scale(0.015625)"/>
     </defs>
     <use xlink:href="#DejaVuSans-Oblique-52" transform="translate(0 0.09375)"/>
     <use xlink:href="#DejaVuSans-31" transform="translate(69.482422 -16.3125) scale(0.7)"/>
     <use xlink:href="#DejaVuSans-32" transform="translate(114.018555 -16.3125) scale(0.7)"/>
    </g>
   </g>
   <g id="text_3">
    <!-- $C_{1}$ -->
    <g transform="translate(177.7256 55.552438) scale(0.14 -0.14)">
     <defs>
      <path id="DejaVuSans-Oblique-43" d="M 4447 4306 
L 4319 3641 
Q 4019 3944 3683 4091 
Q 3347 4238 2956 4238 
Q 2422 4238 2017 3981 
Q 1613 3725 1319 3200 
Q 1131 2863 1032 2486 
Q 934 2109 934 1728 
Q 934 1091 1264 756 
Q 1594 422 2222 422 
Q 2656 422 3056 561 
Q 3456 700 3834 978 
L 3688 231 
Q 3316 72 2936 -9 
Q 2556 -91 2175 -91 
Q 1278 -91 773 396 
Q 269 884 269 1753 
Q 269 2309 461 2846 
Q 653 3384 1013 3828 
Q 1394 4300 1883 4525 
Q 2372 4750 3022 4750 
Q 3422 4750 3780 4639 
Q 4138 4528 4447 4306 
z
" transform="scale(0.015625)"/>
     </defs>
     <use xlink:href="#DejaVuSans-Oblique-43" transform="translate(0 0.78125)"/>
     <use xlink:href="#DejaVuSans-31" transform="translate(69.824219 -15.625) scale(0.7)"/>
    </g>
   </g>
   <g id="text_4">
    <!-- $R_{2}$ -->
    <g transform="translate(278.5956 204.461813) scale(0.14 -0.14)">
     <use xlink:href="#DejaVuSans-Oblique-52" transform="translate(0 0.09375)"/>
     <use xlink:href="#DejaVuSans-32" transform="translate(69.482422 -16.3125) scale(0.7)"/>
    </g>
   </g>
   <g id="text_5">
    <!-- $C_{2}$ -->
    <g transform="translate(379.3256 113.152438) scale(0.14 -0.14)">
     <use xlink:href="#DejaVuSans-Oblique-43" transform="translate(0 0.78125)"/>
     <use xlink:href="#DejaVuSans-32" transform="translate(69.824219 -15.625) scale(0.7)"/>
    </g>
   </g>
   <g id="text_6">
    <!-- $R_{3}$ -->
    <g transform="translate(480.1956 204.461813) scale(0.14 -0.14)">
     <defs>
      <path id="DejaVuSans-33" d="M 2597 2516 
Q 3050 2419 3304 2112 
Q 3559 1806 3559 1356 
Q 3559 666 3084 287 
Q 2609 -91 1734 -91 
Q 1441 -91 1130 -33 
Q 819 25 488 141 
L 488 750 
Q 750 597 1062 519 
Q 1375 441 1716 441 
Q 2309 441 2620 675 
Q 2931 909 2931 1356 
Q 2931 1769 2642 2001 
Q 2353 2234 1838 2234 
L 1294 2234 
L 1294 2753 
L 1863 2753 
Q 2328 2753 2575 2939 
Q 2822 3125 2822 3475 
Q 2822 3834 2567 4026 
Q 2313 4219 1838 4219 
Q 1578 4219 1281 4162 
Q 984 4106 628 3988 
L 628 4550 
Q 988 4650 1302 4700 
Q 1616 4750 1894 4750 
Q 2613 4750 3031 4423 
Q 3450 4097 3450 3541 
Q 3450 3153 3228 2886 
Q 3006 2619 2597 2516 
z
" transform="scale(0.015625)"/>
     </defs>
     <use xlink:href="#DejaVuSans-Oblique-52" transform="translate(0 0.09375)"/>
     <use xlink:href="#DejaVuSans-33" transform="translate(69.482422 -16.3125) scale(0.7)"/>
    </g>
   </g>
   <g id="text_7">
    <!-- $R_{3}$ -->
    <g transform="translate(580.9956 113.152438) scale(0.14 -0.14)">
     <use xlink:href="#DejaVuSans-Oblique-52" transform="translate(0 0.09375)"/>
     <use xlink:href="#DejaVuSans-33" transform="translate(69.482422 -16.3125) scale(0.7)"/>
    </g>
   </g>
   <g id="text_8">
    <!-- $R_{13}$ -->
    <g transform="translate(246.6456 31.661812) scale(0.14 -0.14)">
     <use xlink:href="#DejaVuSans-Oblique-52" transform="translate(0 0.09375)"/>
     <use xlink:href="#DejaVuSans-31" transform="translate(69.482422 -16.3125) scale(0.7)"/>
     <use xlink:href="#DejaVuSans-33" transform="translate(114.018555 -16.3125) scale(0.7)"/>
    </g>
   </g>
   <g id="patch_2">
    <path d="M 13.1856 185.904 
C 13.758439 185.904 14.307893 185.676409 14.712951 185.271351 
C 15.118009 184.866293 15.3456 184.316839 15.3456 183.744 
C 15.3456 183.171161 15.118009 182.621707 14.712951 182.216649 
C 14.307893 181.811591 13.758439 181.584 13.1856 181.584 
C 12.612761 181.584 12.063307 181.811591 11.658249 182.216649 
C 11.253191 182.621707 11.0256 183.171161 11.0256 183.744 
C 11.0256 184.316839 11.253191 184.866293 11.658249 185.271351 
C 12.063307 185.676409 12.612761 185.904 13.1856 185.904 
z
" clip-path="url(#pe1ce2a6efd)" style="fill: #ffffff; stroke: #000000; stroke-width: 2; stroke-linejoin: miter"/>
   </g>
   <g id="text_9">
    <!-- $V_{in}$ -->
    <g transform="translate(3.7356 175.792438) scale(0.14 -0.14)">
     <defs>
      <path id="DejaVuSans-Oblique-56" d="M 1319 0 
L 500 4666 
L 1119 4666 
L 1797 653 
L 4063 4666 
L 4750 4666 
L 2053 0 
L 1319 0 
z
" transform="scale(0.015625)"/>
      <path id="DejaVuSans-Oblique-69" d="M 1172 4863 
L 1747 4863 
L 1606 4134 
L 1031 4134 
L 1172 4863 
z
M 909 3500 
L 1484 3500 
L 800 0 
L 225 0 
L 909 3500 
z
" transform="scale(0.015625)"/>
      <path id="DejaVuSans-Oblique-6e" d="M 3566 2113 
L 3156 0 
L 2578 0 
L 2988 2091 
Q 3016 2238 3031 2350 
Q 3047 2463 3047 2528 
Q 3047 2791 2881 2937 
Q 2716 3084 2419 3084 
Q 1956 3084 1622 2776 
Q 1288 2469 1184 1941 
L 800 0 
L 225 0 
L 903 3500 
L 1478 3500 
L 1363 2950 
Q 1603 3253 1940 3418 
Q 2278 3584 2650 3584 
Q 3113 3584 3367 3334 
Q 3622 3084 3622 2631 
Q 3622 2519 3608 2391 
Q 3594 2263 3566 2113 
z
" transform="scale(0.015625)"/>
     </defs>
     <use xlink:href="#DejaVuSans-Oblique-56" transform="translate(0 0.09375)"/>
     <use xlink:href="#DejaVuSans-Oblique-69" transform="translate(68.408203 -16.3125) scale(0.7)"/>
     <use xlink:href="#DejaVuSans-Oblique-6e" transform="translate(87.856445 -16.3125) scale(0.7)"/>
    </g>
   </g>
   <g id="patch_3">
    <path d="M 128.3856 185.904 
C 128.958439 185.904 129.507893 185.676409 129.912951 185.271351 
C 130.318009 184.866293 130.5456 184.316839 130.5456 183.744 
C 130.5456 183.171161 130.318009 182.621707 129.912951 182.216649 
C 129.507893 181.811591 128.958439 181.584 128.3856 181.584 
C 127.812761 181.584 127.263307 181.811591 126.858249 182.216649 
C 126.453191 182.621707 126.2256 183.171161 126.2256 183.744 
C 126.2256 184.316839 126.453191 184.866293 126.858249 185.271351 
C 127.263307 185.676409 127.812761 185.904 128.3856 185.904 
z
" clip-path="url(#pe1ce2a6efd)" style="stroke: #000000; stroke-width: 2; stroke-linejoin: miter"/>
   </g>
   <g id="patch_4">
    <path d="M 128.3856 128.304 
C 128.958439 128.304 129.507893 128.076409 129.912951 127.671351 
C 130.318009 127.266293 130.5456 126.716839 130.5456 126.144 
C 130.5456 125.571161 130.318009 125.021707 129.912951 124.616649 
C 129.507893 124.211591 128.958439 123.984 128.3856 123.984 
C 127.812761 123.984 127.263307 124.211591 126.858249 124.616649 
C 126.453191 125.021707 126.2256 125.571161 126.2256 126.144 
C 126.2256 126.716839 126.453191 127.266293 126.858249 127.671351 
C 127.263307 128.076409 127.812761 128.304 128.3856 128.304 
z
" clip-path="url(#pe1ce2a6efd)" style="stroke: #000000; stroke-width: 2; stroke-linejoin: miter"/>
   </g>
   <g id="patch_5">
    <path d="M 243.5856 128.304 
C 244.158439 128.304 244.707893 128.076409 245.112951 127.671351 
C 245.518009 127.266293 245.7456 126.716839 245.7456 126.144 
C 245.7456 125.571161 245.518009 125.021707 245.112951 124.616649 
C 244.707893 124.211591 244.158439 123.984 243.5856 123.984 
C 243.012761 123.984 242.463307 124.211591 242.058249 124.616649 
C 241.653191 125.021707 241.4256 125.571161 241.4256 126.144 
C 241.4256 126.716839 241.653191 127.266293 242.058249 127.671351 
C 242.463307 128.076409 243.012761 128.304 243.5856 128.304 
z
" clip-path="url(#pe1ce2a6efd)" style="stroke: #000000; stroke-width: 2; stroke-linejoin: miter"/>
   </g>
   <g id="patch_6">
    <path d="M 128.3856 70.704 
C 128.958439 70.704 129.507893 70.476409 129.912951 70.071351 
C 130.318009 69.666293 130.5456 69.116839 130.5456 68.544 
C 130.5456 67.971161 130.318009 67.421707 129.912951 67.016649 
C 129.507893 66.611591 128.958439 66.384 128.3856 66.384 
C 127.812761 66.384 127.263307 66.611591 126.858249 67.016649 
C 126.453191 67.421707 126.2256 67.971161 126.2256 68.544 
C 126.2256 69.116839 126.453191 69.666293 126.858249 70.071351 
C 127.263307 70.476409 127.812761 70.704 128.3856 70.704 
z
" clip-path="url(#pe1ce2a6efd)" style="stroke: #000000; stroke-width: 2; stroke-linejoin: miter"/>
   </g>
   <g id="patch_7">
    <path d="M 243.5856 185.904 
C 244.158439 185.904 244.707893 185.676409 245.112951 185.271351 
C 245.518009 184.866293 245.7456 184.316839 245.7456 183.744 
C 245.7456 183.171161 245.518009 182.621707 245.112951 182.216649 
C 244.707893 181.811591 244.158439 181.584 243.5856 181.584 
C 243.012761 181.584 242.463307 181.811591 242.058249 182.216649 
C 241.653191 182.621707 241.4256 183.171161 241.4256 183.744 
C 241.4256 184.316839 241.653191 184.866293 242.058249 185.271351 
C 242.463307 185.676409 243.012761 185.904 243.5856 185.904 
z
" clip-path="url(#pe1ce2a6efd)" style="stroke: #000000; stroke-width: 2; stroke-linejoin: miter"/>
   </g>
   <g id="patch_8">
    <path d="M 243.5856 203.904 
C 244.158439 203.904 244.707893 203.676409 245.112951 203.271351 
C 245.518009 202.866293 245.7456 202.316839 245.7456 201.744 
C 245.7456 201.171161 245.518009 200.621707 245.112951 200.216649 
C 244.707893 199.811591 244.158439 199.584 243.5856 199.584 
C 243.012761 199.584 242.463307 199.811591 242.058249 200.216649 
C 241.653191 200.621707 241.4256 201.171161 241.4256 201.744 
C 241.4256 202.316839 241.653191 202.866293 242.058249 203.271351 
C 242.463307 203.676409 243.012761 203.904 243.5856 203.904 
z
" clip-path="url(#pe1ce2a6efd)" style="stroke: #000000; stroke-width: 2; stroke-linejoin: miter"/>
   </g>
   <g id="text_10">
    <!-- $V_{∗}$ -->
    <g transform="translate(248.6256 205.607125) scale(0.14 -0.14)">
     <defs>
      <path id="DejaVuSans-2217" d="M 2153 2006 
L 816 2778 
L 1081 3238 
L 2419 2466 
L 2419 4013 
L 2944 4013 
L 2944 2466 
L 4281 3238 
L 4547 2778 
L 3209 2006 
L 4547 1234 
L 4281 775 
L 2944 1547 
L 2944 0 
L 2419 0 
L 2419 1547 
L 1081 775 
L 816 1234 
L 2153 2006 
z
" transform="scale(0.015625)"/>
     </defs>
     <use xlink:href="#DejaVuSans-Oblique-56" transform="translate(0 0.09375)"/>
     <use xlink:href="#DejaVuSans-2217" transform="translate(68.408203 -16.3125) scale(0.7)"/>
    </g>
   </g>
   <g id="patch_9">
    <path d="M 329.9856 185.904 
C 330.558439 185.904 331.107893 185.676409 331.512951 185.271351 
C 331.918009 184.866293 332.1456 184.316839 332.1456 183.744 
C 332.1456 183.171161 331.918009 182.621707 331.512951 182.216649 
C 331.107893 181.811591 330.558439 181.584 329.9856 181.584 
C 329.412761 181.584 328.863307 181.811591 328.458249 182.216649 
C 328.053191 182.621707 327.8256 183.171161 327.8256 183.744 
C 327.8256 184.316839 328.053191 184.866293 328.458249 185.271351 
C 328.863307 185.676409 329.412761 185.904 329.9856 185.904 
z
" clip-path="url(#pe1ce2a6efd)" style="stroke: #000000; stroke-width: 2; stroke-linejoin: miter"/>
   </g>
   <g id="patch_10">
    <path d="M 445.1856 185.904 
C 445.758439 185.904 446.307893 185.676409 446.712951 185.271351 
C 447.118009 184.866293 447.3456 184.316839 447.3456 183.744 
C 447.3456 183.171161 447.118009 182.621707 446.712951 182.216649 
C 446.307893 181.811591 445.758439 181.584 445.1856 181.584 
C 444.612761 181.584 444.063307 181.811591 443.658249 182.216649 
C 443.253191 182.621707 443.0256 183.171161 443.0256 183.744 
C 443.0256 184.316839 443.253191 184.866293 443.658249 185.271351 
C 444.063307 185.676409 444.612761 185.904 445.1856 185.904 
z
" clip-path="url(#pe1ce2a6efd)" style="stroke: #000000; stroke-width: 2; stroke-linejoin: miter"/>
   </g>
   <g id="patch_11">
    <path d="M 445.1856 203.904 
C 445.758439 203.904 446.307893 203.676409 446.712951 203.271351 
C 447.118009 202.866293 447.3456 202.316839 447.3456 201.744 
C 447.3456 201.171161 447.118009 200.621707 446.712951 200.216649 
C 446.307893 199.811591 445.758439 199.584 445.1856 199.584 
C 444.612761 199.584 444.063307 199.811591 443.658249 200.216649 
C 443.253191 200.621707 443.0256 201.171161 443.0256 201.744 
C 443.0256 202.316839 443.253191 202.866293 443.658249 203.271351 
C 444.063307 203.676409 444.612761 203.904 445.1856 203.904 
z
" clip-path="url(#pe1ce2a6efd)" style="stroke: #000000; stroke-width: 2; stroke-linejoin: miter"/>
   </g>
   <g id="text_11">
    <!-- $−V_{out∗}$ -->
    <g transform="translate(422.1556 217.421813) scale(0.14 -0.14)">
     <defs>
      <path id="DejaVuSans-2212" d="M 678 2272 
L 4684 2272 
L 4684 1741 
L 678 1741 
L 678 2272 
z
" transform="scale(0.015625)"/>
      <path id="DejaVuSans-Oblique-6f" d="M 1625 -91 
Q 1009 -91 651 289 
Q 294 669 294 1325 
Q 294 1706 417 2101 
Q 541 2497 738 2766 
Q 1047 3184 1428 3384 
Q 1809 3584 2291 3584 
Q 2888 3584 3255 3212 
Q 3622 2841 3622 2241 
Q 3622 1825 3500 1412 
Q 3378 1000 3181 728 
Q 2875 309 2494 109 
Q 2113 -91 1625 -91 
z
M 891 1344 
Q 891 869 1089 633 
Q 1288 397 1691 397 
Q 2269 397 2648 901 
Q 3028 1406 3028 2181 
Q 3028 2634 2825 2865 
Q 2622 3097 2228 3097 
Q 1903 3097 1650 2945 
Q 1397 2794 1197 2484 
Q 1050 2253 970 1956 
Q 891 1659 891 1344 
z
" transform="scale(0.015625)"/>
      <path id="DejaVuSans-Oblique-75" d="M 428 1388 
L 838 3500 
L 1416 3500 
L 1006 1409 
Q 975 1256 961 1147 
Q 947 1038 947 966 
Q 947 700 1109 554 
Q 1272 409 1569 409 
Q 2031 409 2368 721 
Q 2706 1034 2809 1563 
L 3194 3500 
L 3769 3500 
L 3091 0 
L 2516 0 
L 2631 550 
Q 2388 244 2052 76 
Q 1716 -91 1338 -91 
Q 878 -91 622 161 
Q 366 413 366 863 
Q 366 956 381 1097 
Q 397 1238 428 1388 
z
" transform="scale(0.015625)"/>
      <path id="DejaVuSans-Oblique-74" d="M 2706 3500 
L 2619 3053 
L 1472 3053 
L 1100 1153 
Q 1081 1047 1072 975 
Q 1063 903 1063 863 
Q 1063 663 1183 572 
Q 1303 481 1569 481 
L 2150 481 
L 2053 0 
L 1503 0 
Q 991 0 739 200 
Q 488 400 488 806 
Q 488 878 497 964 
Q 506 1050 525 1153 
L 897 3053 
L 409 3053 
L 500 3500 
L 978 3500 
L 1172 4494 
L 1747 4494 
L 1556 3500 
L 2706 3500 
z
" transform="scale(0.015625)"/>
     </defs>
     <use xlink:href="#DejaVuSans-2212" transform="translate(0 0.09375)"/>
     <use xlink:href="#DejaVuSans-Oblique-56" transform="translate(83.789062 0.09375)"/>
     <use xlink:href="#DejaVuSans-Oblique-6f" transform="translate(152.197266 -16.3125) scale(0.7)"/>
     <use xlink:href="#DejaVuSans-Oblique-75" transform="translate(195.024414 -16.3125) scale(0.7)"/>
     <use xlink:href="#DejaVuSans-Oblique-74" transform="translate(239.389648 -16.3125) scale(0.7)"/>
     <use xlink:href="#DejaVuSans-2217" transform="translate(266.835938 -16.3125) scale(0.7)"/>
    </g>
   </g>
   <g id="patch_12">
    <path d="M 531.5856 185.904 
C 532.158439 185.904 532.707893 185.676409 533.112951 185.271351 
C 533.518009 184.866293 533.7456 184.316839 533.7456 183.744 
C 533.7456 183.171161 533.518009 182.621707 533.112951 182.216649 
C 532.707893 181.811591 532.158439 181.584 531.5856 181.584 
C 531.012761 181.584 530.463307 181.811591 530.058249 182.216649 
C 529.653191 182.621707 529.4256 183.171161 529.4256 183.744 
C 529.4256 184.316839 529.653191 184.866293 530.058249 185.271351 
C 530.463307 185.676409 531.012761 185.904 531.5856 185.904 
z
" clip-path="url(#pe1ce2a6efd)" style="stroke: #000000; stroke-width: 2; stroke-linejoin: miter"/>
   </g>
   <g id="patch_13">
    <path d="M 646.7856 128.304 
C 647.358439 128.304 647.907893 128.076409 648.312951 127.671351 
C 648.718009 127.266293 648.9456 126.716839 648.9456 126.144 
C 648.9456 125.571161 648.718009 125.021707 648.312951 124.616649 
C 647.907893 124.211591 647.358439 123.984 646.7856 123.984 
C 646.212761 123.984 645.663307 124.211591 645.258249 124.616649 
C 644.853191 125.021707 644.6256 125.571161 644.6256 126.144 
C 644.6256 126.716839 644.853191 127.266293 645.258249 127.671351 
C 645.663307 128.076409 646.212761 128.304 646.7856 128.304 
z
" clip-path="url(#pe1ce2a6efd)" style="stroke: #000000; stroke-width: 2; stroke-linejoin: miter"/>
   </g>
   <g id="patch_14">
    <path d="M 646.7856 203.904 
C 647.358439 203.904 647.907893 203.676409 648.312951 203.271351 
C 648.718009 202.866293 648.9456 202.316839 648.9456 201.744 
C 648.9456 201.171161 648.718009 200.621707 648.312951 200.216649 
C 647.907893 199.811591 647.358439 199.584 646.7856 199.584 
C 646.212761 199.584 645.663307 199.811591 645.258249 200.216649 
C 644.853191 200.621707 644.6256 201.171161 644.6256 201.744 
C 644.6256 202.316839 644.853191 202.866293 645.258249 203.271351 
C 645.663307 203.676409 646.212761 203.904 646.7856 203.904 
z
" clip-path="url(#pe1ce2a6efd)" style="stroke: #000000; stroke-width: 2; stroke-linejoin: miter"/>
   </g>
   <g id="text_12">
    <!-- $V_{out∗}$ -->
    <g transform="translate(651.8256 205.607125) scale(0.14 -0.14)">
     <use xlink:href="#DejaVuSans-Oblique-56" transform="translate(0 0.09375)"/>
     <use xlink:href="#DejaVuSans-Oblique-6f" transform="translate(68.408203 -16.3125) scale(0.7)"/>
     <use xlink:href="#DejaVuSans-Oblique-75" transform="translate(111.235352 -16.3125) scale(0.7)"/>
     <use xlink:href="#DejaVuSans-Oblique-74" transform="translate(155.600586 -16.3125) scale(0.7)"/>
     <use xlink:href="#DejaVuSans-2217" transform="translate(183.046875 -16.3125) scale(0.7)"/>
    </g>
   </g>
  </g>
 </g>
 <defs>
  <clipPath id="pe1ce2a6efd">
   <rect x="0" y="0" width="686.7504" height="264.96"/>
  </clipPath>
 </defs>
</svg>