<?xml version="1.0" encoding="utf-8" standalone="no"?>
<!DOCTYPE svg PUBLIC "-//W3C//DTD SVG 1.1//EN"
  "http://www.w3.org/Graphics/SVG/1.1/DTD/svg11.dtd">
<svg xmlns:xlink="http://www.w3.org/1999/xlink" width="417.6162pt" height="282.082pt" viewBox="0 0 417.6162 282.082" xmlns="http://www.w3.org/2000/svg" version="1.1">
 <metadata>
  <rdf:RDF xmlns:dc="http://purl.org/dc/elements/1.1/" xmlns:cc="http://creativecommons.org/ns#" xmlns:rdf="http://www.w3.org/1999/02/22-rdf-syntax-ns#">
   <cc:Work>
    <dc:type rdf:resource="http://purl.org/dc/dcmitype/StillImage"/>
    <dc:date>2022-11-04T22:30:55.822249</dc:date>
    <dc:format>image/svg+xml</dc:format>
    <dc:creator>
     <cc:Agent>
      <dc:title>Matplotlib v3.5.3, https://matplotlib.org/</dc:title>
     </cc:Agent>
    </dc:creator>
   </cc:Work>
  </rdf:RDF>
 </metadata>
 <defs>
  <style type="text/css">*{stroke-linejoin: round; stroke-linecap: butt}</style>
 </defs>
 <g id="figure_1">
  <g id="patch_1">
   <path d="M 0 282.082 
L 417.6162 282.082 
L 417.6162 0 
L 0 0 
L 0 282.082 
z
" style="fill: none"/>
  </g>
  <g id="axes_1">
   <g id="patch_2">
    <path d="M 50.2134 217.813 
C 53.256606 217.813 56.175579 216.603922 58.32745 214.45205 
C 60.479322 212.300179 61.6884 209.381206 61.6884 206.338 
C 61.6884 203.294794 60.479322 200.375821 58.32745 198.22395 
C 56.175579 196.072078 53.256606 194.863 50.2134 194.863 
C 47.170194 194.863 44.251221 196.072078 42.09935 198.22395 
C 39.947478 200.375821 38.7384 203.294794 38.7384 206.338 
C 38.7384 209.381206 39.947478 212.300179 42.09935 214.45205 
C 44.251221 216.603922 47.170194 217.813 50.2134 217.813 
L 50.2134 217.813 
z
" clip-path="url(#p1abc3606a6)" style="fill: none; stroke: #000000; stroke-width: 2; stroke-linejoin: miter"/>
   </g>
   <g id="line2d_1">
    <path d="M 142.0134 160.438 
L 153.2334 160.438 
" clip-path="url(#p1abc3606a6)" style="fill: none; stroke: #000000; stroke-width: 2; stroke-linecap: round"/>
   </g>
   <g id="line2d_2">
    <path d="M 153.2334 149.218 
L 153.2334 171.658 
" clip-path="url(#p1abc3606a6)" style="fill: none; stroke: #000000; stroke-width: 2; stroke-linecap: round"/>
   </g>
   <g id="line2d_3">
    <path d="M 153.2334 154.828 
L 165.0144 144.73 
L 165.0144 139.12 
" clip-path="url(#p1abc3606a6)" style="fill: none; stroke: #000000; stroke-width: 2; stroke-linecap: round"/>
   </g>
   <g id="line2d_4">
    <path d="M 153.2334 166.048 
L 165.0144 176.146 
L 165.0144 181.756 
" clip-path="url(#p1abc3606a6)" style="fill: none; stroke: #000000; stroke-width: 2; stroke-linecap: round"/>
   </g>
   <g id="line2d_5">
    <path d="M 153.2334 166.048 
L 159.206087 171.167446 
" clip-path="url(#p1abc3606a6)" style="fill: none; stroke: #000000; stroke-width: 2; stroke-linecap: round"/>
   </g>
   <g id="patch_3">
    <path d="M 161.197509 168.844121 
L 165.0144 176.146 
L 157.214665 173.490771 
z
" clip-path="url(#p1abc3606a6)"/>
   </g>
   <g id="line2d_6">
    <path d="M 142.0134 160.438 
L 111.4134 160.438 
L 108.8634 168.088 
L 103.7634 152.788 
L 98.6634 168.088 
L 93.5634 152.788 
L 88.4634 168.088 
L 83.3634 152.788 
L 80.8134 160.438 
L 50.2134 160.438 
" clip-path="url(#p1abc3606a6)" style="fill: none; stroke: #000000; stroke-width: 2; stroke-linecap: round"/>
   </g>
   <g id="line2d_7">
    <path d="M 50.2134 160.438 
L 50.2134 194.863 
L 50.2134 194.863 
M 50.2134 217.813 
L 50.2134 217.813 
L 50.2134 252.238 
" clip-path="url(#p1abc3606a6)" style="fill: none; stroke: #000000; stroke-width: 2; stroke-linecap: round"/>
   </g>
   <g id="line2d_8">
    <path d="M 47.9184 200.6005 
L 52.5084 200.6005 
" clip-path="url(#p1abc3606a6)" style="fill: none; stroke: #000000; stroke-width: 2; stroke-linecap: round"/>
   </g>
   <g id="line2d_9">
    <path d="M 50.2134 209.7805 
L 50.2134 214.3705 
" clip-path="url(#p1abc3606a6)" style="fill: none; stroke: #000000; stroke-width: 2; stroke-linecap: round"/>
   </g>
   <g id="line2d_10">
    <path d="M 47.9184 212.0755 
L 52.5084 212.0755 
" clip-path="url(#p1abc3606a6)" style="fill: none; stroke: #000000; stroke-width: 2; stroke-linecap: round"/>
   </g>
   <g id="line2d_11">
    <path d="M 50.2134 252.238 
L 107.6139 252.238 
L 165.0144 252.238 
" clip-path="url(#p1abc3606a6)" style="fill: none; stroke: #000000; stroke-width: 2; stroke-linecap: round"/>
   </g>
   <g id="line2d_12">
    <path d="M 165.0144 252.238 
L 165.0144 264.478 
L 157.3644 264.478 
L 172.6644 264.478 
M 159.6594 268.15 
L 170.3694 268.15 
M 163.4844 271.822 
L 166.5444 271.822 
" clip-path="url(#p1abc3606a6)" style="fill: none; stroke: #000000; stroke-width: 2; stroke-linecap: round"/>
   </g>
   <g id="line2d_13">
    <path d="M 165.0144 252.238 
L 165.0144 216.997 
L 165.0144 181.756 
" clip-path="url(#p1abc3606a6)" style="fill: none; stroke: #000000; stroke-width: 2; stroke-linecap: round"/>
   </g>
   <g id="line2d_14">
    <path d="M 165.0144 139.12 
L 165.0144 108.52 
L 162.494841 108.406041 
L 159.952559 108.059504 
L 157.600771 107.488099 
L 155.636717 106.718393 
L 154.22512 105.793585 
L 153.765601 105.290198 
L 153.484368 104.769883 
L 153.387348 104.240924 
L 153.476587 103.711788 
L 153.750203 103.190943 
L 154.20243 102.686686 
L 154.823734 102.20696 
L 156.517906 101.350145 
L 158.69063 100.671003 
L 161.159684 100.205138 
L 163.717992 99.970266 
L 166.150992 99.96473 
L 168.254633 100.16764 
L 169.852486 100.540624 
L 170.810541 101.031044 
L 171.02222 101.301011 
L 171.048447 101.576415 
L 170.888668 101.848767 
L 170.546251 102.109643 
L 169.346073 102.564652 
L 167.548568 102.881925 
L 165.304492 103.013499 
L 162.802051 102.926984 
L 160.251121 102.608281 
L 157.865645 102.062764 
L 155.845689 101.31483 
L 154.360663 100.405852 
L 153.859738 99.907713 
L 153.535115 99.390709 
L 153.393636 98.863054 
L 153.438282 98.333186 
L 153.668113 97.80959 
L 154.078285 97.300619 
L 154.660152 96.814319 
L 156.28655 95.939358 
L 158.410904 95.236733 
L 160.855049 94.744018 
L 163.413996 94.481181 
L 165.873132 94.44891 
L 168.026212 94.628558 
L 169.692661 94.983703 
L 170.732716 95.463204 
L 170.988302 95.730618 
L 171.05915 96.005491 
L 170.943767 96.279347 
L 170.644584 96.543729 
L 169.523789 97.011421 
L 167.790762 97.347988 
L 165.590851 97.503848 
L 163.108559 97.444574 
L 160.552072 97.153782 
L 158.135798 96.634506 
L 156.062387 95.908941 
L 154.505732 95.016585 
L 153.964009 94.524144 
L 153.596388 94.010923 
L 153.410621 93.485056 
L 153.410621 92.954944 
L 153.596388 92.429077 
L 153.964009 91.915856 
L 154.505732 91.423415 
L 156.062387 90.531059 
L 158.135798 89.805494 
L 160.552072 89.286218 
L 163.108559 88.995426 
L 165.590851 88.936152 
L 167.790762 89.092012 
L 169.523789 89.428579 
L 170.644584 89.896271 
L 170.943767 90.160653 
L 171.05915 90.434509 
L 170.988302 90.709382 
L 170.732716 90.976796 
L 169.692661 91.456297 
L 168.026212 91.811442 
L 165.873132 91.99109 
L 163.413996 91.958819 
L 160.855049 91.695982 
L 158.410904 91.203267 
L 156.28655 90.500642 
L 154.660152 89.625681 
L 154.078285 89.139381 
L 153.668113 88.63041 
L 153.438282 88.106814 
L 153.393636 87.576946 
L 153.535115 87.049291 
L 153.859738 86.532287 
L 154.360663 86.034148 
L 155.027331 85.562691 
L 156.798488 84.728123 
L 159.024666 84.077221 
L 161.519158 83.64322 
L 164.072756 83.441166 
L 166.471294 83.466647 
L 168.513608 83.696174 
L 170.028414 84.08914 
L 170.888668 84.591233 
L 171.048447 84.863585 
L 171.02222 85.138989 
L 170.810541 85.408956 
L 170.41787 85.665113 
L 169.126305 86.104125 
L 167.255845 86.397851 
L 164.963364 86.500302 
L 162.441127 86.381529 
L 159.900672 86.030141 
L 157.555062 85.454251 
L 155.601021 84.680805 
L 154.20243 83.753314 
L 153.750203 83.249057 
L 153.476587 82.728212 
L 153.387348 82.199076 
L 153.484368 81.670117 
L 153.765601 81.149802 
L 154.22512 80.646415 
L 154.853238 80.167882 
L 156.559041 79.314313 
L 158.739947 78.639327 
L 161.213047 78.178179 
L 163.770925 77.948191 
L 165.0144 77.92 
L 165.0144 47.32 
L 165.0144 47.32 
" clip-path="url(#p1abc3606a6)" style="fill: none; stroke: #000000; stroke-width: 2; stroke-linecap: round"/>
   </g>
   <g id="line2d_15">
    <path d="M 165.0144 47.32 
L 165.0144 35.08 
" clip-path="url(#p1abc3606a6)" style="fill: none; stroke: #000000; stroke-width: 2; stroke-linecap: round"/>
   </g>
   <g id="line2d_16">
    <path d="M 165.0144 35.08 
L 159.2769 35.08 
" clip-path="url(#p1abc3606a6)" style="fill: none; stroke: #000000; stroke-width: 2; stroke-linecap: round"/>
   </g>
   <g id="line2d_17">
    <path d="M 165.0144 35.08 
L 170.7519 35.08 
" clip-path="url(#p1abc3606a6)" style="fill: none; stroke: #000000; stroke-width: 2; stroke-linecap: round"/>
   </g>
   <g id="line2d_18">
    <path d="M 165.0144 139.12 
L 208.1604 139.12 
M 208.1604 131.47 
L 208.1604 146.77 
M 213.6684 131.47 
L 213.6684 146.77 
M 213.6684 139.12 
L 256.8144 139.12 
" clip-path="url(#p1abc3606a6)" style="fill: none; stroke: #000000; stroke-width: 2; stroke-linecap: round"/>
   </g>
   <g id="line2d_19">
    <path d="M 256.8144 139.12 
L 256.8144 169.72 
L 259.333959 169.833959 
L 261.876241 170.180496 
L 264.228029 170.751901 
L 266.192083 171.521607 
L 267.60368 172.446415 
L 268.063199 172.949802 
L 268.344432 173.470117 
L 268.441452 173.999076 
L 268.352213 174.528212 
L 268.078597 175.049057 
L 267.62637 175.553314 
L 267.005066 176.03304 
L 265.310894 176.889855 
L 263.13817 177.568997 
L 260.669116 178.034862 
L 258.110808 178.269734 
L 255.677808 178.27527 
L 253.574167 178.07236 
L 251.976314 177.699376 
L 251.018259 177.208956 
L 250.80658 176.938989 
L 250.780353 176.663585 
L 250.940132 176.391233 
L 251.282549 176.130357 
L 252.482727 175.675348 
L 254.280232 175.358075 
L 256.524308 175.226501 
L 259.026749 175.313016 
L 261.577679 175.631719 
L 263.963155 176.177236 
L 265.983111 176.92517 
L 267.468137 177.834148 
L 267.969062 178.332287 
L 268.293685 178.849291 
L 268.435164 179.376946 
L 268.390518 179.906814 
L 268.160687 180.43041 
L 267.750515 180.939381 
L 267.168648 181.425681 
L 265.54225 182.300642 
L 263.417896 183.003267 
L 260.973751 183.495982 
L 258.414804 183.758819 
L 255.955668 183.79109 
L 253.802588 183.611442 
L 252.136139 183.256297 
L 251.096084 182.776796 
L 250.840498 182.509382 
L 250.76965 182.234509 
L 250.885033 181.960653 
L 251.184216 181.696271 
L 252.305011 181.228579 
L 254.038038 180.892012 
L 256.237949 180.736152 
L 258.720241 180.795426 
L 261.276728 181.086218 
L 263.693002 181.605494 
L 265.766413 182.331059 
L 267.323068 183.223415 
L 267.864791 183.715856 
L 268.232412 184.229077 
L 268.418179 184.754944 
L 268.418179 185.285056 
L 268.232412 185.810923 
L 267.864791 186.324144 
L 267.323068 186.816585 
L 265.766413 187.708941 
L 263.693002 188.434506 
L 261.276728 188.953782 
L 258.720241 189.244574 
L 256.237949 189.303848 
L 254.038038 189.147988 
L 252.305011 188.811421 
L 251.184216 188.343729 
L 250.885033 188.079347 
L 250.76965 187.805491 
L 250.840498 187.530618 
L 251.096084 187.263204 
L 252.136139 186.783703 
L 253.802588 186.428558 
L 255.955668 186.24891 
L 258.414804 186.281181 
L 260.973751 186.544018 
L 263.417896 187.036733 
L 265.54225 187.739358 
L 267.168648 188.614319 
L 267.750515 189.100619 
L 268.160687 189.60959 
L 268.390518 190.133186 
L 268.435164 190.663054 
L 268.293685 191.190709 
L 267.969062 191.707713 
L 267.468137 192.205852 
L 266.801469 192.677309 
L 265.030312 193.511877 
L 262.804134 194.162779 
L 260.309642 194.59678 
L 257.756044 194.798834 
L 255.357506 194.773353 
L 253.315192 194.543826 
L 251.800386 194.15086 
L 250.940132 193.648767 
L 250.780353 193.376415 
L 250.80658 193.101011 
L 251.018259 192.831044 
L 251.41093 192.574887 
L 252.702495 192.135875 
L 254.572955 191.842149 
L 256.865436 191.739698 
L 259.387673 191.858471 
L 261.928128 192.209859 
L 264.273738 192.785749 
L 266.227779 193.559195 
L 267.62637 194.486686 
L 268.078597 194.990943 
L 268.352213 195.511788 
L 268.441452 196.040924 
L 268.344432 196.569883 
L 268.063199 197.090198 
L 267.60368 197.593585 
L 266.975562 198.072118 
L 265.269759 198.925687 
L 263.088853 199.600673 
L 260.615753 200.061821 
L 258.057875 200.291809 
L 256.8144 200.32 
L 256.8144 230.92 
L 256.8144 230.92 
" clip-path="url(#p1abc3606a6)" style="fill: none; stroke: #000000; stroke-width: 2; stroke-linecap: round"/>
   </g>
   <g id="line2d_20">
    <path d="M 256.8144 139.12 
L 279.7644 139.12 
L 302.7144 139.12 
" clip-path="url(#p1abc3606a6)" style="fill: none; stroke: #000000; stroke-width: 2; stroke-linecap: round"/>
   </g>
   <g id="line2d_21">
    <path d="M 302.7144 139.12 
L 302.7144 182.266 
M 310.3644 182.266 
L 295.0644 182.266 
M 310.3644 187.774 
L 295.0644 187.774 
M 302.7144 187.774 
L 302.7144 230.92 
" clip-path="url(#p1abc3606a6)" style="fill: none; stroke: #000000; stroke-width: 2; stroke-linecap: round"/>
   </g>
   <g id="line2d_22">
    <path d="M 302.7144 139.12 
L 325.6644 139.12 
L 348.6144 139.12 
" clip-path="url(#p1abc3606a6)" style="fill: none; stroke: #000000; stroke-width: 2; stroke-linecap: round"/>
   </g>
   <g id="line2d_23">
    <path d="M 348.6144 139.12 
L 348.6144 169.72 
L 356.2644 172.27 
L 340.9644 177.37 
L 356.2644 182.47 
L 340.9644 187.57 
L 356.2644 192.67 
L 340.9644 197.77 
L 348.6144 200.32 
L 348.6144 230.92 
" clip-path="url(#p1abc3606a6)" style="fill: none; stroke: #000000; stroke-width: 2; stroke-linecap: round"/>
   </g>
   <g id="line2d_24">
    <path d="M 348.6144 139.12 
L 356.2644 139.12 
L 363.9144 139.12 
" clip-path="url(#p1abc3606a6)" style="fill: none; stroke: #000000; stroke-width: 2; stroke-linecap: round"/>
   </g>
   <g id="line2d_25">
    <path d="M 348.6144 230.92 
L 325.6644 230.92 
L 302.7144 230.92 
" clip-path="url(#p1abc3606a6)" style="fill: none; stroke: #000000; stroke-width: 2; stroke-linecap: round"/>
   </g>
   <g id="line2d_26">
    <path d="M 302.7144 230.92 
L 279.7644 230.92 
L 256.8144 230.92 
" clip-path="url(#p1abc3606a6)" style="fill: none; stroke: #000000; stroke-width: 2; stroke-linecap: round"/>
   </g>
   <g id="line2d_27">
    <path d="M 256.8144 230.92 
L 210.9144 230.92 
L 165.0144 230.92 
" clip-path="url(#p1abc3606a6)" style="fill: none; stroke: #000000; stroke-width: 2; stroke-linecap: round"/>
   </g>
   <g id="text_1">
    <g clip-path="url(#p1abc3606a6)">
     <!-- $R_{in}$ -->
     <g transform="translate(87.5509 147.128391)scale(0.125 -0.125)">
      <defs>
       <path id="DejaVuSans-Oblique-52" d="M 1613 4147 
L 1294 2491 
L 2106 2491 
Q 2584 2491 2879 2755 
Q 3175 3019 3175 3444 
Q 3175 3784 2976 3965 
Q 2778 4147 2406 4147 
L 1613 4147 
z
M 2772 2241 
Q 2972 2194 3105 2009 
Q 3238 1825 3413 1275 
L 3809 0 
L 3144 0 
L 2778 1197 
Q 2638 1659 2453 1815 
Q 2269 1972 1888 1972 
L 1191 1972 
L 806 0 
L 172 0 
L 1081 4666 
L 2503 4666 
Q 3150 4666 3495 4373 
Q 3841 4081 3841 3531 
Q 3841 3044 3547 2687 
Q 3253 2331 2772 2241 
z
" transform="scale(0.015625)"/>
       <path id="DejaVuSans-Oblique-69" d="M 1172 4863 
L 1747 4863 
L 1606 4134 
L 1031 4134 
L 1172 4863 
z
M 909 3500 
L 1484 3500 
L 800 0 
L 225 0 
L 909 3500 
z
" transform="scale(0.015625)"/>
       <path id="DejaVuSans-Oblique-6e" d="M 3566 2113 
L 3156 0 
L 2578 0 
L 2988 2091 
Q 3016 2238 3031 2350 
Q 3047 2463 3047 2528 
Q 3047 2791 2881 2937 
Q 2716 3084 2419 3084 
Q 1956 3084 1622 2776 
Q 1288 2469 1184 1941 
L 800 0 
L 225 0 
L 903 3500 
L 1478 3500 
L 1363 2950 
Q 1603 3253 1940 3418 
Q 2278 3584 2650 3584 
Q 3113 3584 3367 3334 
Q 3622 3084 3622 2631 
Q 3622 2519 3608 2391 
Q 3594 2263 3566 2113 
z
" transform="scale(0.015625)"/>
      </defs>
      <use xlink:href="#DejaVuSans-Oblique-52" transform="translate(0 0.09375)"/>
      <use xlink:href="#DejaVuSans-Oblique-69" transform="translate(69.482422 -16.3125)scale(0.7)"/>
      <use xlink:href="#DejaVuSans-Oblique-6e" transform="translate(88.930664 -16.3125)scale(0.7)"/>
     </g>
    </g>
   </g>
   <g id="text_2">
    <g clip-path="url(#p1abc3606a6)">
     <!-- $V_{in}$ -->
     <g transform="translate(19.5684 209.787219)scale(0.125 -0.125)">
      <defs>
       <path id="DejaVuSans-Oblique-56" d="M 1319 0 
L 500 4666 
L 1119 4666 
L 1797 653 
L 4063 4666 
L 4750 4666 
L 2053 0 
L 1319 0 
z
" transform="scale(0.015625)"/>
      </defs>
      <use xlink:href="#DejaVuSans-Oblique-56" transform="translate(0 0.09375)"/>
      <use xlink:href="#DejaVuSans-Oblique-69" transform="translate(68.408203 -16.3125)scale(0.7)"/>
      <use xlink:href="#DejaVuSans-Oblique-6e" transform="translate(87.856445 -16.3125)scale(0.7)"/>
     </g>
    </g>
   </g>
   <g id="text_3">
    <g clip-path="url(#p1abc3606a6)">
     <!-- $L_2$ -->
     <g transform="translate(137.452348 96.669219)scale(0.125 -0.125)">
      <defs>
       <path id="DejaVuSans-Oblique-4c" d="M 1075 4666 
L 1709 4666 
L 909 525 
L 3181 525 
L 3078 0 
L 172 0 
L 1075 4666 
z
" transform="scale(0.015625)"/>
       <path id="DejaVuSans-32" d="M 1228 531 
L 3431 531 
L 3431 0 
L 469 0 
L 469 531 
Q 828 903 1448 1529 
Q 2069 2156 2228 2338 
Q 2531 2678 2651 2914 
Q 2772 3150 2772 3378 
Q 2772 3750 2511 3984 
Q 2250 4219 1831 4219 
Q 1534 4219 1204 4116 
Q 875 4013 500 3803 
L 500 4441 
Q 881 4594 1212 4672 
Q 1544 4750 1819 4750 
Q 2544 4750 2975 4387 
Q 3406 4025 3406 3419 
Q 3406 3131 3298 2873 
Q 3191 2616 2906 2266 
Q 2828 2175 2409 1742 
Q 1991 1309 1228 531 
z
" transform="scale(0.015625)"/>
      </defs>
      <use xlink:href="#DejaVuSans-Oblique-4c" transform="translate(0 0.09375)"/>
      <use xlink:href="#DejaVuSans-32" transform="translate(55.712891 -16.3125)scale(0.7)"/>
     </g>
    </g>
   </g>
   <g id="text_4">
    <g clip-path="url(#p1abc3606a6)">
     <!-- $V_{dd}$ -->
     <g transform="translate(154.9519 29.420391)scale(0.125 -0.125)">
      <defs>
       <path id="DejaVuSans-Oblique-64" d="M 2675 525 
Q 2444 222 2128 65 
Q 1813 -91 1428 -91 
Q 903 -91 598 267 
Q 294 625 294 1247 
Q 294 1766 478 2236 
Q 663 2706 1013 3078 
Q 1244 3325 1534 3454 
Q 1825 3584 2144 3584 
Q 2481 3584 2739 3421 
Q 2997 3259 3138 2956 
L 3513 4863 
L 4091 4863 
L 3144 0 
L 2566 0 
L 2675 525 
z
M 891 1350 
Q 891 897 1095 644 
Q 1300 391 1663 391 
Q 1931 391 2161 520 
Q 2391 650 2566 903 
Q 2750 1166 2856 1509 
Q 2963 1853 2963 2188 
Q 2963 2622 2758 2865 
Q 2553 3109 2194 3109 
Q 1922 3109 1687 2981 
Q 1453 2853 1288 2613 
Q 1106 2353 998 2009 
Q 891 1666 891 1350 
z
" transform="scale(0.015625)"/>
      </defs>
      <use xlink:href="#DejaVuSans-Oblique-56" transform="translate(0 0.09375)"/>
      <use xlink:href="#DejaVuSans-Oblique-64" transform="translate(68.408203 -16.3125)scale(0.7)"/>
      <use xlink:href="#DejaVuSans-Oblique-64" transform="translate(112.841797 -16.3125)scale(0.7)"/>
     </g>
    </g>
   </g>
   <g id="text_5">
    <g clip-path="url(#p1abc3606a6)">
     <!-- $C_2$ -->
     <g transform="translate(203.5394 125.810391)scale(0.125 -0.125)">
      <defs>
       <path id="DejaVuSans-Oblique-43" d="M 4447 4306 
L 4319 3641 
Q 4019 3944 3683 4091 
Q 3347 4238 2956 4238 
Q 2422 4238 2017 3981 
Q 1613 3725 1319 3200 
Q 1131 2863 1032 2486 
Q 934 2109 934 1728 
Q 934 1091 1264 756 
Q 1594 422 2222 422 
Q 2656 422 3056 561 
Q 3456 700 3834 978 
L 3688 231 
Q 3316 72 2936 -9 
Q 2556 -91 2175 -91 
Q 1278 -91 773 396 
Q 269 884 269 1753 
Q 269 2309 461 2846 
Q 653 3384 1013 3828 
Q 1394 4300 1883 4525 
Q 2372 4750 3022 4750 
Q 3422 4750 3780 4639 
Q 4138 4528 4447 4306 
z
" transform="scale(0.015625)"/>
      </defs>
      <use xlink:href="#DejaVuSans-Oblique-43" transform="translate(0 0.78125)"/>
      <use xlink:href="#DejaVuSans-32" transform="translate(69.824219 -15.625)scale(0.7)"/>
     </g>
    </g>
   </g>
   <g id="text_6">
    <g clip-path="url(#p1abc3606a6)">
     <!-- $L_1$ -->
     <g transform="translate(234.83465 188.469219)scale(0.125 -0.125)">
      <defs>
       <path id="DejaVuSans-31" d="M 794 531 
L 1825 531 
L 1825 4091 
L 703 3866 
L 703 4441 
L 1819 4666 
L 2450 4666 
L 2450 531 
L 3481 531 
L 3481 0 
L 794 0 
L 794 531 
z
" transform="scale(0.015625)"/>
      </defs>
      <use xlink:href="#DejaVuSans-Oblique-4c" transform="translate(0 0.09375)"/>
      <use xlink:href="#DejaVuSans-31" transform="translate(55.712891 -16.3125)scale(0.7)"/>
     </g>
    </g>
   </g>
   <g id="text_7">
    <g clip-path="url(#p1abc3606a6)">
     <!-- $C_1$ -->
     <g transform="translate(277.2544 188.469219)scale(0.125 -0.125)">
      <use xlink:href="#DejaVuSans-Oblique-43" transform="translate(0 0.78125)"/>
      <use xlink:href="#DejaVuSans-31" transform="translate(69.824219 -15.625)scale(0.7)"/>
     </g>
    </g>
   </g>
   <g id="text_8">
    <g clip-path="url(#p1abc3606a6)">
     <!-- $R_L$ -->
     <g transform="translate(323.9044 188.469219)scale(0.125 -0.125)">
      <use xlink:href="#DejaVuSans-Oblique-52" transform="translate(0 0.09375)"/>
      <use xlink:href="#DejaVuSans-Oblique-4c" transform="translate(69.482422 -16.3125)scale(0.7)"/>
     </g>
    </g>
   </g>
   <g id="patch_4">
    <path d="M 165.0144 141.415 
C 165.623041 141.415 166.206836 141.173184 166.63721 140.74281 
C 167.067584 140.312436 167.3094 139.728641 167.3094 139.12 
C 167.3094 138.511359 167.067584 137.927564 166.63721 137.49719 
C 166.206836 137.066816 165.623041 136.825 165.0144 136.825 
C 164.405759 136.825 163.821964 137.066816 163.39159 137.49719 
C 162.961216 137.927564 162.7194 138.511359 162.7194 139.12 
C 162.7194 139.728641 162.961216 140.312436 163.39159 140.74281 
C 163.821964 141.173184 164.405759 141.415 165.0144 141.415 
z
" clip-path="url(#p1abc3606a6)" style="stroke: #000000; stroke-width: 2; stroke-linejoin: miter"/>
   </g>
   <g id="patch_5">
    <path d="M 363.9144 141.415 
C 364.523041 141.415 365.106836 141.173184 365.53721 140.74281 
C 365.967584 140.312436 366.2094 139.728641 366.2094 139.12 
C 366.2094 138.511359 365.967584 137.927564 365.53721 137.49719 
C 365.106836 137.066816 364.523041 136.825 363.9144 136.825 
C 363.305759 136.825 362.721964 137.066816 362.29159 137.49719 
C 361.861216 137.927564 361.6194 138.511359 361.6194 139.12 
C 361.6194 139.728641 361.861216 140.312436 362.29159 140.74281 
C 362.721964 141.173184 363.305759 141.415 363.9144 141.415 
z
" clip-path="url(#p1abc3606a6)" style="fill: #ffffff; stroke: #000000; stroke-width: 2; stroke-linejoin: miter"/>
   </g>
   <g id="text_9">
    <g clip-path="url(#p1abc3606a6)">
     <!-- $v_{out}$ -->
     <g transform="translate(369.2694 142.569219)scale(0.125 -0.125)">
      <defs>
       <path id="DejaVuSans-Oblique-76" d="M 459 3500 
L 1069 3500 
L 1581 525 
L 3256 3500 
L 3866 3500 
L 1875 0 
L 1100 0 
L 459 3500 
z
" transform="scale(0.015625)"/>
       <path id="DejaVuSans-Oblique-6f" d="M 1625 -91 
Q 1009 -91 651 289 
Q 294 669 294 1325 
Q 294 1706 417 2101 
Q 541 2497 738 2766 
Q 1047 3184 1428 3384 
Q 1809 3584 2291 3584 
Q 2888 3584 3255 3212 
Q 3622 2841 3622 2241 
Q 3622 1825 3500 1412 
Q 3378 1000 3181 728 
Q 2875 309 2494 109 
Q 2113 -91 1625 -91 
z
M 891 1344 
Q 891 869 1089 633 
Q 1288 397 1691 397 
Q 2269 397 2648 901 
Q 3028 1406 3028 2181 
Q 3028 2634 2825 2865 
Q 2622 3097 2228 3097 
Q 1903 3097 1650 2945 
Q 1397 2794 1197 2484 
Q 1050 2253 970 1956 
Q 891 1659 891 1344 
z
" transform="scale(0.015625)"/>
       <path id="DejaVuSans-Oblique-75" d="M 428 1388 
L 838 3500 
L 1416 3500 
L 1006 1409 
Q 975 1256 961 1147 
Q 947 1038 947 966 
Q 947 700 1109 554 
Q 1272 409 1569 409 
Q 2031 409 2368 721 
Q 2706 1034 2809 1563 
L 3194 3500 
L 3769 3500 
L 3091 0 
L 2516 0 
L 2631 550 
Q 2388 244 2052 76 
Q 1716 -91 1338 -91 
Q 878 -91 622 161 
Q 366 413 366 863 
Q 366 956 381 1097 
Q 397 1238 428 1388 
z
" transform="scale(0.015625)"/>
       <path id="DejaVuSans-Oblique-74" d="M 2706 3500 
L 2619 3053 
L 1472 3053 
L 1100 1153 
Q 1081 1047 1072 975 
Q 1063 903 1063 863 
Q 1063 663 1183 572 
Q 1303 481 1569 481 
L 2150 481 
L 2053 0 
L 1503 0 
Q 991 0 739 200 
Q 488 400 488 806 
Q 488 878 497 964 
Q 506 1050 525 1153 
L 897 3053 
L 409 3053 
L 500 3500 
L 978 3500 
L 1172 4494 
L 1747 4494 
L 1556 3500 
L 2706 3500 
z
" transform="scale(0.015625)"/>
      </defs>
      <use xlink:href="#DejaVuSans-Oblique-76" transform="translate(0 0.3125)"/>
      <use xlink:href="#DejaVuSans-Oblique-6f" transform="translate(59.179688 -16.09375)scale(0.7)"/>
      <use xlink:href="#DejaVuSans-Oblique-75" transform="translate(102.006836 -16.09375)scale(0.7)"/>
      <use xlink:href="#DejaVuSans-Oblique-74" transform="translate(146.37207 -16.09375)scale(0.7)"/>
     </g>
    </g>
   </g>
   <g id="patch_6">
    <path d="M 302.7144 233.215 
C 303.323041 233.215 303.906836 232.973184 304.33721 232.54281 
C 304.767584 232.112436 305.0094 231.528641 305.0094 230.92 
C 305.0094 230.311359 304.767584 229.727564 304.33721 229.29719 
C 303.906836 228.866816 303.323041 228.625 302.7144 228.625 
C 302.105759 228.625 301.521964 228.866816 301.09159 229.29719 
C 300.661216 229.727564 300.4194 230.311359 300.4194 230.92 
C 300.4194 231.528641 300.661216 232.112436 301.09159 232.54281 
C 301.521964 232.973184 302.105759 233.215 302.7144 233.215 
z
" clip-path="url(#p1abc3606a6)" style="stroke: #000000; stroke-width: 2; stroke-linejoin: miter"/>
   </g>
   <g id="patch_7">
    <path d="M 256.8144 233.215 
C 257.423041 233.215 258.006836 232.973184 258.43721 232.54281 
C 258.867584 232.112436 259.1094 231.528641 259.1094 230.92 
C 259.1094 230.311359 258.867584 229.727564 258.43721 229.29719 
C 258.006836 228.866816 257.423041 228.625 256.8144 228.625 
C 256.205759 228.625 255.621964 228.866816 255.19159 229.29719 
C 254.761216 229.727564 254.5194 230.311359 254.5194 230.92 
C 254.5194 231.528641 254.761216 232.112436 255.19159 232.54281 
C 255.621964 232.973184 256.205759 233.215 256.8144 233.215 
z
" clip-path="url(#p1abc3606a6)" style="stroke: #000000; stroke-width: 2; stroke-linejoin: miter"/>
   </g>
   <g id="patch_8">
    <path d="M 165.0144 233.215 
C 165.623041 233.215 166.206836 232.973184 166.63721 232.54281 
C 167.067584 232.112436 167.3094 231.528641 167.3094 230.92 
C 167.3094 230.311359 167.067584 229.727564 166.63721 229.29719 
C 166.206836 228.866816 165.623041 228.625 165.0144 228.625 
C 164.405759 228.625 163.821964 228.866816 163.39159 229.29719 
C 162.961216 229.727564 162.7194 230.311359 162.7194 230.92 
C 162.7194 231.528641 162.961216 232.112436 163.39159 232.54281 
C 163.821964 232.973184 164.405759 233.215 165.0144 233.215 
z
" clip-path="url(#p1abc3606a6)" style="stroke: #000000; stroke-width: 2; stroke-linejoin: miter"/>
   </g>
  </g>
 </g>
 <defs>
  <clipPath id="p1abc3606a6">
   <rect x="7.2" y="7.2" width="403.2162" height="267.682"/>
  </clipPath>
 </defs>
</svg>