<?xml version="1.0" encoding="utf-8" standalone="no"?>
<!DOCTYPE svg PUBLIC "-//W3C//DTD SVG 1.1//EN"
  "http://www.w3.org/Graphics/SVG/1.1/DTD/svg11.dtd">
<svg xmlns:xlink="http://www.w3.org/1999/xlink" width="468.36pt" height="176pt" viewBox="0 0 468.36 176" xmlns="http://www.w3.org/2000/svg" version="1.1">
 <metadata>
  <rdf:RDF xmlns:dc="http://purl.org/dc/elements/1.1/" xmlns:cc="http://creativecommons.org/ns#" xmlns:rdf="http://www.w3.org/1999/02/22-rdf-syntax-ns#">
   <cc:Work>
    <dc:type rdf:resource="http://purl.org/dc/dcmitype/StillImage"/>
    <dc:date>2026-01-17T20:06:16.961029</dc:date>
    <dc:format>image/svg+xml</dc:format>
    <dc:creator>
     <cc:Agent>
      <dc:title>Matplotlib v3.10.8, https://matplotlib.org/</dc:title>
     </cc:Agent>
    </dc:creator>
   </cc:Work>
  </rdf:RDF>
 </metadata>
 <defs>
  <style type="text/css">*{stroke-linejoin: round; stroke-linecap: butt}</style>
 </defs>
 <g id="figure_1">
  <g id="patch_1">
   <path d="M 0 176 
L 468.36 176 
L 468.36 0 
L 0 0 
z
" style="fill: #ffffff"/>
  </g>
  <g id="axes_1">
   <g id="patch_2">
    <path d="M 22.68 112.28 
C 27.453656 112.28 32.032438 110.383406 35.407922 107.007922 
C 38.783406 103.632438 40.68 99.053656 40.68 94.28 
C 40.68 89.506344 38.783406 84.927562 35.407922 81.552078 
C 32.032438 78.176594 27.453656 76.28 22.68 76.28 
C 17.906344 76.28 13.327562 78.176594 9.952078 81.552078 
C 6.576594 84.927562 4.68 89.506344 4.68 94.28 
C 4.68 99.053656 6.576594 103.632438 9.952078 107.007922 
C 13.327562 110.383406 17.906344 112.28 22.68 112.28 
L 22.68 112.28 
z
" clip-path="url(#pfbb8ce5f6d)" style="fill: none; stroke: #000000; stroke-width: 2; stroke-linejoin: miter"/>
   </g>
   <g id="patch_3">
    <path d="M 157.68 40.28 
C 157.68 38.861757 157.540319 37.457305 157.268949 36.147019 
C 156.99758 34.836733 156.599801 33.646096 156.098377 32.643247 
C 155.596952 31.640398 155.001633 30.844839 154.346491 30.302101 
C 153.691348 29.759363 152.989122 29.48 152.28 29.48 
C 151.570878 29.48 150.868652 29.759363 150.213509 30.302101 
C 149.558367 30.844839 148.963048 31.640398 148.461623 32.643247 
C 147.960199 33.646096 147.56242 34.836733 147.291051 36.147019 
C 147.019681 37.457305 146.88 38.861757 146.88 40.28 
C 146.88 41.698243 147.019681 43.102695 147.291051 44.412981 
C 147.56242 45.723267 147.960199 46.913904 148.461623 47.916753 
C 148.963048 48.919602 149.558367 49.715161 150.213509 50.257899 
C 150.868652 50.800637 151.570878 51.08 152.28 51.08 
C 152.989122 51.08 153.691348 50.800637 154.346491 50.257899 
C 155.001633 49.715161 155.596952 48.919602 156.098377 47.916753 
C 156.599801 46.913904 156.99758 45.723267 157.268949 44.412981 
C 157.540319 43.102695 157.68 41.698243 157.68 40.28 
" clip-path="url(#pfbb8ce5f6d)" style="fill: none; stroke: #000000; stroke-width: 2; stroke-linejoin: miter"/>
   </g>
   <g id="patch_4">
    <path d="M 217.08 51.08 
C 218.51162 51.08 219.886069 49.941369 220.898377 47.916753 
C 221.910685 45.892137 222.48 43.14324 222.48 40.28 
C 222.48 37.41676 221.910685 34.667863 220.898377 32.643247 
C 219.886069 30.618631 218.51162 29.48 217.08 29.48 
" clip-path="url(#pfbb8ce5f6d)" style="fill: none; stroke: #000000; stroke-width: 2; stroke-linejoin: miter"/>
   </g>
   <g id="patch_5">
    <path d="M 279.18 40.28 
C 279.18 38.152635 278.970478 36.045957 278.563424 34.080528 
C 278.156371 32.1151 277.559702 30.329144 276.807565 28.82487 
C 276.055428 27.320596 275.16245 26.127259 274.179736 25.313152 
C 273.197022 24.499044 272.143682 24.08 271.08 24.08 
C 270.016318 24.08 268.962978 24.499044 267.980264 25.313152 
C 266.99755 26.127259 266.104572 27.320596 265.352435 28.82487 
C 264.600298 30.329144 264.003629 32.1151 263.596576 34.080528 
C 263.189522 36.045957 262.98 38.152635 262.98 40.28 
C 262.98 42.407365 263.189522 44.514043 263.596576 46.479472 
C 264.003629 48.4449 264.600298 50.230856 265.352435 51.73513 
C 266.104572 53.239404 266.99755 54.432741 267.980264 55.246848 
C 268.962978 56.060956 270.016318 56.48 271.08 56.48 
C 272.143682 56.48 273.197022 56.060956 274.179736 55.246848 
C 275.16245 54.432741 276.055428 53.239404 276.807565 51.73513 
C 277.559702 50.230856 278.156371 48.4449 278.563424 46.479472 
C 278.970478 44.514043 279.18 42.407365 279.18 40.28 
" clip-path="url(#pfbb8ce5f6d)" style="fill: none; stroke: #000000; stroke-width: 2; stroke-linejoin: miter"/>
   </g>
   <g id="patch_6">
    <path d="M 314.28 56.48 
C 316.42743 56.48 318.489103 54.772054 320.007565 51.73513 
C 321.526027 48.698206 322.38 44.574859 322.38 40.28 
C 322.38 35.985141 321.526027 31.861794 320.007565 28.82487 
C 318.489103 25.787946 316.42743 24.08 314.28 24.08 
" clip-path="url(#pfbb8ce5f6d)" style="fill: none; stroke: #000000; stroke-width: 2; stroke-linejoin: miter"/>
   </g>
   <g id="patch_7">
    <path d="M 373.68 40.28 
C 373.68 38.861757 373.540319 37.457305 373.268949 36.147019 
C 372.99758 34.836733 372.599801 33.646096 372.098377 32.643247 
C 371.596952 31.640398 371.001633 30.844839 370.346491 30.302101 
C 369.691348 29.759363 368.989122 29.48 368.28 29.48 
C 367.570878 29.48 366.868652 29.759363 366.213509 30.302101 
C 365.558367 30.844839 364.963048 31.640398 364.461623 32.643247 
C 363.960199 33.646096 363.56242 34.836733 363.291051 36.147019 
C 363.019681 37.457305 362.88 38.861757 362.88 40.28 
C 362.88 41.698243 363.019681 43.102695 363.291051 44.412981 
C 363.56242 45.723267 363.960199 46.913904 364.461623 47.916753 
C 364.963048 48.919602 365.558367 49.715161 366.213509 50.257899 
C 366.868652 50.800637 367.570878 51.08 368.28 51.08 
C 368.989122 51.08 369.691348 50.800637 370.346491 50.257899 
C 371.001633 49.715161 371.596952 48.919602 372.098377 47.916753 
C 372.599801 46.913904 372.99758 45.723267 373.268949 44.412981 
C 373.540319 43.102695 373.68 41.698243 373.68 40.28 
" clip-path="url(#pfbb8ce5f6d)" style="fill: none; stroke: #000000; stroke-width: 2; stroke-linejoin: miter"/>
   </g>
   <g id="patch_8">
    <path d="M 433.08 51.08 
C 434.51162 51.08 435.886069 49.941369 436.898377 47.916753 
C 437.910685 45.892137 438.48 43.14324 438.48 40.28 
C 438.48 37.41676 437.910685 34.667863 436.898377 32.643247 
C 435.886069 30.618631 434.51162 29.48 433.08 29.48 
" clip-path="url(#pfbb8ce5f6d)" style="fill: none; stroke: #000000; stroke-width: 2; stroke-linejoin: miter"/>
   </g>
   <g id="line2d_1">
    <path d="M 22.68 148.28 
L 22.68 162.68 
L 13.68 162.68 
L 31.68 162.68 
M 16.38 167 
L 28.98 167 
M 20.88 171.32 
L 24.48 171.32 
" clip-path="url(#pfbb8ce5f6d)" style="fill: none; stroke: #000000; stroke-width: 2; stroke-linecap: round"/>
   </g>
   <g id="line2d_2">
    <path d="M 22.68 148.28 
L 22.68 112.28 
L 22.68 112.28 
M 22.68 76.28 
L 22.68 76.28 
L 22.68 40.28 
" clip-path="url(#pfbb8ce5f6d)" style="fill: none; stroke: #000000; stroke-width: 2; stroke-linecap: round"/>
   </g>
   <g id="line2d_3">
    <path d="M 13.68 94.28 
L 13.68 87.08 
L 22.68 87.08 
L 22.68 101.48 
L 31.68 101.48 
L 31.68 94.28 
" clip-path="url(#pfbb8ce5f6d)" style="fill: none; stroke: #000000; stroke-width: 2; stroke-linecap: round"/>
   </g>
   <g id="line2d_4">
    <path d="M 22.68 40.28 
L 58.68 40.28 
L 58.68 31.28 
L 94.68 31.28 
L 94.68 49.28 
L 58.68 49.28 
L 58.68 40.28 
M 94.68 40.28 
L 130.68 40.28 
" clip-path="url(#pfbb8ce5f6d)" style="fill: none; stroke: #000000; stroke-width: 2; stroke-linecap: round"/>
   </g>
   <g id="line2d_5">
    <path d="M 130.68 40.28 
L 152.28 40.28 
M 222.48 40.28 
L 238.68 40.28 
" clip-path="url(#pfbb8ce5f6d)" style="fill: none; stroke: #000000; stroke-width: 2; stroke-linecap: round"/>
   </g>
   <g id="line2d_6">
    <path d="M 152.28 29.48 
L 217.08 29.48 
" clip-path="url(#pfbb8ce5f6d)" style="fill: none; stroke: #000000; stroke-width: 2; stroke-linecap: round"/>
   </g>
   <g id="line2d_7">
    <path d="M 152.28 51.08 
L 217.08 51.08 
" clip-path="url(#pfbb8ce5f6d)" style="fill: none; stroke: #000000; stroke-width: 2; stroke-linecap: round"/>
   </g>
   <g id="line2d_8">
    <path d="M 238.68 40.28 
L 271.08 40.28 
M 322.38 40.28 
L 346.68 40.28 
" clip-path="url(#pfbb8ce5f6d)" style="fill: none; stroke: #000000; stroke-width: 2; stroke-linecap: round"/>
   </g>
   <g id="line2d_9">
    <path d="M 271.08 24.08 
L 314.28 24.08 
" clip-path="url(#pfbb8ce5f6d)" style="fill: none; stroke: #000000; stroke-width: 2; stroke-linecap: round"/>
   </g>
   <g id="line2d_10">
    <path d="M 271.08 56.48 
L 314.28 56.48 
" clip-path="url(#pfbb8ce5f6d)" style="fill: none; stroke: #000000; stroke-width: 2; stroke-linecap: round"/>
   </g>
   <g id="line2d_11">
    <path d="M 346.68 40.28 
L 368.28 40.28 
M 438.48 40.28 
L 454.68 40.28 
" clip-path="url(#pfbb8ce5f6d)" style="fill: none; stroke: #000000; stroke-width: 2; stroke-linecap: round"/>
   </g>
   <g id="line2d_12">
    <path d="M 368.28 29.48 
L 433.08 29.48 
" clip-path="url(#pfbb8ce5f6d)" style="fill: none; stroke: #000000; stroke-width: 2; stroke-linecap: round"/>
   </g>
   <g id="line2d_13">
    <path d="M 368.28 51.08 
L 433.08 51.08 
" clip-path="url(#pfbb8ce5f6d)" style="fill: none; stroke: #000000; stroke-width: 2; stroke-linecap: round"/>
   </g>
   <g id="line2d_14">
    <path d="M 454.68 40.28 
L 454.68 76.28 
L 463.68 76.28 
L 463.68 112.28 
L 445.68 112.28 
L 445.68 76.28 
L 454.68 76.28 
M 454.68 112.28 
L 454.68 148.28 
" clip-path="url(#pfbb8ce5f6d)" style="fill: none; stroke: #000000; stroke-width: 2; stroke-linecap: round"/>
   </g>
   <g id="line2d_15">
    <path d="M 454.68 148.28 
L 454.68 162.68 
L 445.68 162.68 
L 463.68 162.68 
M 448.38 167 
L 460.98 167 
M 452.88 171.32 
L 456.48 171.32 
" clip-path="url(#pfbb8ce5f6d)" style="fill: none; stroke: #000000; stroke-width: 2; stroke-linecap: round"/>
   </g>
   <g id="line2d_16">
    <path d="M 271.08 56.48 
L 271.08 65.48 
L 271.08 74.48 
" clip-path="url(#pfbb8ce5f6d)" style="fill: none; stroke: #000000; stroke-width: 2; stroke-linecap: round"/>
   </g>
   <g id="line2d_17">
    <path d="M 271.08 74.48 
L 244.08 74.48 
L 217.08 74.48 
" clip-path="url(#pfbb8ce5f6d)" style="fill: none; stroke: #000000; stroke-width: 2; stroke-linecap: round"/>
   </g>
   <g id="line2d_18">
    <path d="M 217.08 74.48 
L 217.08 62.78 
L 217.08 51.08 
" clip-path="url(#pfbb8ce5f6d)" style="fill: none; stroke: #000000; stroke-width: 2; stroke-linecap: round"/>
   </g>
   <g id="line2d_19">
    <path d="M 368.28 51.08 
L 368.28 63.68 
L 368.28 76.28 
" clip-path="url(#pfbb8ce5f6d)" style="fill: none; stroke: #000000; stroke-width: 2; stroke-linecap: round"/>
   </g>
   <g id="line2d_20">
    <path d="M 368.28 76.28 
L 341.28 76.28 
L 314.28 76.28 
" clip-path="url(#pfbb8ce5f6d)" style="fill: none; stroke: #000000; stroke-width: 2; stroke-linecap: round"/>
   </g>
   <g id="line2d_21">
    <path d="M 314.28 76.28 
L 314.28 66.38 
L 314.28 56.48 
" clip-path="url(#pfbb8ce5f6d)" style="fill: none; stroke: #000000; stroke-width: 2; stroke-linecap: round"/>
   </g>
   <g id="text_1">
    <!-- $Z_s= 50 \Omega$ -->
    <g transform="translate(46.23 24.768437) scale(0.14 -0.14)">
     <defs>
      <path id="DejaVuSans-Oblique-5a" d="M 838 4666 
L 4500 4666 
L 4409 4184 
L 794 531 
L 3769 531 
L 3669 0 
L -141 0 
L -50 481 
L 3566 4134 
L 738 4134 
L 838 4666 
z
" transform="scale(0.015625)"/>
      <path id="DejaVuSans-Oblique-73" d="M 3200 3397 
L 3091 2853 
Q 2863 2978 2609 3040 
Q 2356 3103 2088 3103 
Q 1634 3103 1373 2948 
Q 1113 2794 1113 2528 
Q 1113 2219 1719 2053 
Q 1766 2041 1788 2034 
L 1972 1978 
Q 2547 1819 2739 1644 
Q 2931 1469 2931 1166 
Q 2931 609 2489 259 
Q 2047 -91 1331 -91 
Q 1053 -91 747 -37 
Q 441 16 72 128 
L 184 722 
Q 500 559 806 475 
Q 1113 391 1394 391 
Q 1816 391 2080 572 
Q 2344 753 2344 1031 
Q 2344 1331 1650 1516 
L 1591 1531 
L 1394 1581 
Q 956 1697 753 1886 
Q 550 2075 550 2369 
Q 550 2928 970 3256 
Q 1391 3584 2113 3584 
Q 2397 3584 2667 3537 
Q 2938 3491 3200 3397 
z
" transform="scale(0.015625)"/>
      <path id="DejaVuSans-3d" d="M 678 2906 
L 4684 2906 
L 4684 2381 
L 678 2381 
L 678 2906 
z
M 678 1631 
L 4684 1631 
L 4684 1100 
L 678 1100 
L 678 1631 
z
" transform="scale(0.015625)"/>
      <path id="DejaVuSans-35" d="M 691 4666 
L 3169 4666 
L 3169 4134 
L 1269 4134 
L 1269 2991 
Q 1406 3038 1543 3061 
Q 1681 3084 1819 3084 
Q 2600 3084 3056 2656 
Q 3513 2228 3513 1497 
Q 3513 744 3044 326 
Q 2575 -91 1722 -91 
Q 1428 -91 1123 -41 
Q 819 9 494 109 
L 494 744 
Q 775 591 1075 516 
Q 1375 441 1709 441 
Q 2250 441 2565 725 
Q 2881 1009 2881 1497 
Q 2881 1984 2565 2268 
Q 2250 2553 1709 2553 
Q 1456 2553 1204 2497 
Q 953 2441 691 2322 
L 691 4666 
z
" transform="scale(0.015625)"/>
      <path id="DejaVuSans-30" d="M 2034 4250 
Q 1547 4250 1301 3770 
Q 1056 3291 1056 2328 
Q 1056 1369 1301 889 
Q 1547 409 2034 409 
Q 2525 409 2770 889 
Q 3016 1369 3016 2328 
Q 3016 3291 2770 3770 
Q 2525 4250 2034 4250 
z
M 2034 4750 
Q 2819 4750 3233 4129 
Q 3647 3509 3647 2328 
Q 3647 1150 3233 529 
Q 2819 -91 2034 -91 
Q 1250 -91 836 529 
Q 422 1150 422 2328 
Q 422 3509 836 4129 
Q 1250 4750 2034 4750 
z
" transform="scale(0.015625)"/>
      <path id="DejaVuSans-3a9" d="M 4647 556 
L 4647 0 
L 2772 0 
L 2772 556 
Q 3325 859 3634 1378 
Q 3944 1897 3944 2528 
Q 3944 3278 3531 3731 
Q 3119 4184 2444 4184 
Q 1769 4184 1355 3729 
Q 941 3275 941 2528 
Q 941 1897 1250 1378 
Q 1563 859 2119 556 
L 2119 0 
L 244 0 
L 244 556 
L 1241 556 
Q 747 991 519 1456 
Q 294 1922 294 2497 
Q 294 3491 894 4106 
Q 1491 4722 2444 4722 
Q 3391 4722 3994 4106 
Q 4594 3494 4594 2528 
Q 4594 1922 4372 1459 
Q 4150 997 3647 556 
L 4647 556 
z
" transform="scale(0.015625)"/>
     </defs>
     <use xlink:href="#DejaVuSans-Oblique-5a" transform="translate(0 0.78125)"/>
     <use xlink:href="#DejaVuSans-Oblique-73" transform="translate(68.505859 -15.625) scale(0.7)"/>
     <use xlink:href="#DejaVuSans-3d" transform="translate(127.192383 0.78125)"/>
     <use xlink:href="#DejaVuSans-35" transform="translate(230.463867 0.78125)"/>
     <use xlink:href="#DejaVuSans-30" transform="translate(294.086914 0.78125)"/>
     <use xlink:href="#DejaVuSans-3a9" transform="translate(357.709961 0.78125)"/>
    </g>
   </g>
   <g id="text_2">
    <!-- $Z_o=50 \Omega$ -->
    <g transform="translate(153.81 22.968437) scale(0.14 -0.14)">
     <defs>
      <path id="DejaVuSans-Oblique-6f" d="M 1625 -91 
Q 1009 -91 651 289 
Q 294 669 294 1325 
Q 294 1706 417 2101 
Q 541 2497 738 2766 
Q 1047 3184 1428 3384 
Q 1809 3584 2291 3584 
Q 2888 3584 3255 3212 
Q 3622 2841 3622 2241 
Q 3622 1825 3500 1412 
Q 3378 1000 3181 728 
Q 2875 309 2494 109 
Q 2113 -91 1625 -91 
z
M 891 1344 
Q 891 869 1089 633 
Q 1288 397 1691 397 
Q 2269 397 2648 901 
Q 3028 1406 3028 2181 
Q 3028 2634 2825 2865 
Q 2622 3097 2228 3097 
Q 1903 3097 1650 2945 
Q 1397 2794 1197 2484 
Q 1050 2253 970 1956 
Q 891 1659 891 1344 
z
" transform="scale(0.015625)"/>
     </defs>
     <use xlink:href="#DejaVuSans-Oblique-5a" transform="translate(0 0.78125)"/>
     <use xlink:href="#DejaVuSans-Oblique-6f" transform="translate(68.505859 -15.625) scale(0.7)"/>
     <use xlink:href="#DejaVuSans-3d" transform="translate(133.549805 0.78125)"/>
     <use xlink:href="#DejaVuSans-35" transform="translate(236.821289 0.78125)"/>
     <use xlink:href="#DejaVuSans-30" transform="translate(300.444336 0.78125)"/>
     <use xlink:href="#DejaVuSans-3a9" transform="translate(364.067383 0.78125)"/>
    </g>
   </g>
   <g id="text_3">
    <!-- $Z_o=32 \Omega$ -->
    <g transform="translate(261.81 15.768437) scale(0.14 -0.14)">
     <defs>
      <path id="DejaVuSans-33" d="M 2597 2516 
Q 3050 2419 3304 2112 
Q 3559 1806 3559 1356 
Q 3559 666 3084 287 
Q 2609 -91 1734 -91 
Q 1441 -91 1130 -33 
Q 819 25 488 141 
L 488 750 
Q 750 597 1062 519 
Q 1375 441 1716 441 
Q 2309 441 2620 675 
Q 2931 909 2931 1356 
Q 2931 1769 2642 2001 
Q 2353 2234 1838 2234 
L 1294 2234 
L 1294 2753 
L 1863 2753 
Q 2328 2753 2575 2939 
Q 2822 3125 2822 3475 
Q 2822 3834 2567 4026 
Q 2313 4219 1838 4219 
Q 1578 4219 1281 4162 
Q 984 4106 628 3988 
L 628 4550 
Q 988 4650 1302 4700 
Q 1616 4750 1894 4750 
Q 2613 4750 3031 4423 
Q 3450 4097 3450 3541 
Q 3450 3153 3228 2886 
Q 3006 2619 2597 2516 
z
" transform="scale(0.015625)"/>
      <path id="DejaVuSans-32" d="M 1228 531 
L 3431 531 
L 3431 0 
L 469 0 
L 469 531 
Q 828 903 1448 1529 
Q 2069 2156 2228 2338 
Q 2531 2678 2651 2914 
Q 2772 3150 2772 3378 
Q 2772 3750 2511 3984 
Q 2250 4219 1831 4219 
Q 1534 4219 1204 4116 
Q 875 4013 500 3803 
L 500 4441 
Q 881 4594 1212 4672 
Q 1544 4750 1819 4750 
Q 2544 4750 2975 4387 
Q 3406 4025 3406 3419 
Q 3406 3131 3298 2873 
Q 3191 2616 2906 2266 
Q 2828 2175 2409 1742 
Q 1991 1309 1228 531 
z
" transform="scale(0.015625)"/>
     </defs>
     <use xlink:href="#DejaVuSans-Oblique-5a" transform="translate(0 0.78125)"/>
     <use xlink:href="#DejaVuSans-Oblique-6f" transform="translate(68.505859 -15.625) scale(0.7)"/>
     <use xlink:href="#DejaVuSans-3d" transform="translate(133.549805 0.78125)"/>
     <use xlink:href="#DejaVuSans-33" transform="translate(236.821289 0.78125)"/>
     <use xlink:href="#DejaVuSans-32" transform="translate(300.444336 0.78125)"/>
     <use xlink:href="#DejaVuSans-3a9" transform="translate(364.067383 0.78125)"/>
    </g>
   </g>
   <g id="text_4">
    <!-- $Z_o=50 \Omega$ -->
    <g transform="translate(369.81 22.968437) scale(0.14 -0.14)">
     <use xlink:href="#DejaVuSans-Oblique-5a" transform="translate(0 0.78125)"/>
     <use xlink:href="#DejaVuSans-Oblique-6f" transform="translate(68.505859 -15.625) scale(0.7)"/>
     <use xlink:href="#DejaVuSans-3d" transform="translate(133.549805 0.78125)"/>
     <use xlink:href="#DejaVuSans-35" transform="translate(236.821289 0.78125)"/>
     <use xlink:href="#DejaVuSans-30" transform="translate(300.444336 0.78125)"/>
     <use xlink:href="#DejaVuSans-3a9" transform="translate(364.067383 0.78125)"/>
    </g>
   </g>
   <g id="text_5">
    <!-- $Z_L= 50 \Omega$ -->
    <g transform="translate(380.9 98.143125) scale(0.14 -0.14)">
     <defs>
      <path id="DejaVuSans-Oblique-4c" d="M 1075 4666 
L 1709 4666 
L 909 525 
L 3181 525 
L 3078 0 
L 172 0 
L 1075 4666 
z
" transform="scale(0.015625)"/>
     </defs>
     <use xlink:href="#DejaVuSans-Oblique-5a" transform="translate(0 0.78125)"/>
     <use xlink:href="#DejaVuSans-Oblique-4c" transform="translate(68.505859 -15.625) scale(0.7)"/>
     <use xlink:href="#DejaVuSans-3d" transform="translate(129.72168 0.78125)"/>
     <use xlink:href="#DejaVuSans-35" transform="translate(232.993164 0.78125)"/>
     <use xlink:href="#DejaVuSans-30" transform="translate(296.616211 0.78125)"/>
     <use xlink:href="#DejaVuSans-3a9" transform="translate(360.239258 0.78125)"/>
    </g>
   </g>
   <g id="patch_9">
    <path d="M 22.68 42.98 
C 23.396048 42.98 24.082866 42.695511 24.589188 42.189188 
C 25.095511 41.682866 25.38 40.996048 25.38 40.28 
C 25.38 39.563952 25.095511 38.877134 24.589188 38.370812 
C 24.082866 37.864489 23.396048 37.58 22.68 37.58 
C 21.963952 37.58 21.277134 37.864489 20.770812 38.370812 
C 20.264489 38.877134 19.98 39.563952 19.98 40.28 
C 19.98 40.996048 20.264489 41.682866 20.770812 42.189188 
C 21.277134 42.695511 21.963952 42.98 22.68 42.98 
z
" clip-path="url(#pfbb8ce5f6d)" style="stroke: #000000; stroke-width: 2; stroke-linejoin: miter"/>
   </g>
   <g id="patch_10">
    <path d="M 130.68 42.98 
C 131.396048 42.98 132.082866 42.695511 132.589188 42.189188 
C 133.095511 41.682866 133.38 40.996048 133.38 40.28 
C 133.38 39.563952 133.095511 38.877134 132.589188 38.370812 
C 132.082866 37.864489 131.396048 37.58 130.68 37.58 
C 129.963952 37.58 129.277134 37.864489 128.770812 38.370812 
C 128.264489 38.877134 127.98 39.563952 127.98 40.28 
C 127.98 40.996048 128.264489 41.682866 128.770812 42.189188 
C 129.277134 42.695511 129.963952 42.98 130.68 42.98 
z
" clip-path="url(#pfbb8ce5f6d)" style="stroke: #000000; stroke-width: 2; stroke-linejoin: miter"/>
   </g>
   <g id="patch_11">
    <path d="M 238.68 42.98 
C 239.396048 42.98 240.082866 42.695511 240.589188 42.189188 
C 241.095511 41.682866 241.38 40.996048 241.38 40.28 
C 241.38 39.563952 241.095511 38.877134 240.589188 38.370812 
C 240.082866 37.864489 239.396048 37.58 238.68 37.58 
C 237.963952 37.58 237.277134 37.864489 236.770812 38.370812 
C 236.264489 38.877134 235.98 39.563952 235.98 40.28 
C 235.98 40.996048 236.264489 41.682866 236.770812 42.189188 
C 237.277134 42.695511 237.963952 42.98 238.68 42.98 
z
" clip-path="url(#pfbb8ce5f6d)" style="stroke: #000000; stroke-width: 2; stroke-linejoin: miter"/>
   </g>
   <g id="text_6">
    <!-- 1 -->
    <g transform="translate(234.22625 31.068437) scale(0.14 -0.14)">
     <defs>
      <path id="DejaVuSans-31" d="M 794 531 
L 1825 531 
L 1825 4091 
L 703 3866 
L 703 4441 
L 1819 4666 
L 2450 4666 
L 2450 531 
L 3481 531 
L 3481 0 
L 794 0 
L 794 531 
z
" transform="scale(0.015625)"/>
     </defs>
     <use xlink:href="#DejaVuSans-31"/>
    </g>
   </g>
   <g id="patch_12">
    <path d="M 346.68 42.98 
C 347.396048 42.98 348.082866 42.695511 348.589188 42.189188 
C 349.095511 41.682866 349.38 40.996048 349.38 40.28 
C 349.38 39.563952 349.095511 38.877134 348.589188 38.370812 
C 348.082866 37.864489 347.396048 37.58 346.68 37.58 
C 345.963952 37.58 345.277134 37.864489 344.770812 38.370812 
C 344.264489 38.877134 343.98 39.563952 343.98 40.28 
C 343.98 40.996048 344.264489 41.682866 344.770812 42.189188 
C 345.277134 42.695511 345.963952 42.98 346.68 42.98 
z
" clip-path="url(#pfbb8ce5f6d)" style="stroke: #000000; stroke-width: 2; stroke-linejoin: miter"/>
   </g>
   <g id="text_7">
    <!-- 2 -->
    <g transform="translate(342.22625 31.068437) scale(0.14 -0.14)">
     <use xlink:href="#DejaVuSans-32"/>
    </g>
   </g>
   <g id="patch_13">
    <path d="M 454.68 42.98 
C 455.396048 42.98 456.082866 42.695511 456.589188 42.189188 
C 457.095511 41.682866 457.38 40.996048 457.38 40.28 
C 457.38 39.563952 457.095511 38.877134 456.589188 38.370812 
C 456.082866 37.864489 455.396048 37.58 454.68 37.58 
C 453.963952 37.58 453.277134 37.864489 452.770812 38.370812 
C 452.264489 38.877134 451.98 39.563952 451.98 40.28 
C 451.98 40.996048 452.264489 41.682866 452.770812 42.189188 
C 453.277134 42.695511 453.963952 42.98 454.68 42.98 
z
" clip-path="url(#pfbb8ce5f6d)" style="stroke: #000000; stroke-width: 2; stroke-linejoin: miter"/>
   </g>
  </g>
 </g>
 <defs>
  <clipPath id="pfbb8ce5f6d">
   <rect x="0" y="-0" width="468.36" height="176"/>
  </clipPath>
 </defs>
</svg>