<?xml version="1.0" encoding="utf-8" standalone="no"?>
<!DOCTYPE svg PUBLIC "-//W3C//DTD SVG 1.1//EN"
  "http://www.w3.org/Graphics/SVG/1.1/DTD/svg11.dtd">
<svg xmlns:xlink="http://www.w3.org/1999/xlink" width="428.424pt" height="216.86pt" viewBox="0 0 428.424 216.86" xmlns="http://www.w3.org/2000/svg" version="1.1">
 <metadata>
  <rdf:RDF xmlns:dc="http://purl.org/dc/elements/1.1/" xmlns:cc="http://creativecommons.org/ns#" xmlns:rdf="http://www.w3.org/1999/02/22-rdf-syntax-ns#">
   <cc:Work>
    <dc:type rdf:resource="http://purl.org/dc/dcmitype/StillImage"/>
    <dc:date>2025-12-07T21:59:13.137271</dc:date>
    <dc:format>image/svg+xml</dc:format>
    <dc:creator>
     <cc:Agent>
      <dc:title>Matplotlib v3.10.8, https://matplotlib.org/</dc:title>
     </cc:Agent>
    </dc:creator>
   </cc:Work>
  </rdf:RDF>
 </metadata>
 <defs>
  <style type="text/css">*{stroke-linejoin: round; stroke-linecap: butt}</style>
 </defs>
 <g id="figure_1">
  <g id="patch_1">
   <path d="M 0 216.86 
L 428.424 216.86 
L 428.424 0 
L 0 0 
z
" style="fill: #ffffff"/>
  </g>
  <g id="axes_1">
   <g id="patch_2">
    <path d="M 49.884 105.08 
C 54.657656 105.08 59.236438 103.183406 62.611922 99.807922 
C 65.987406 96.432438 67.884 91.853656 67.884 87.08 
C 67.884 82.306344 65.987406 77.727562 62.611922 74.352078 
C 59.236438 70.976594 54.657656 69.08 49.884 69.08 
C 45.110344 69.08 40.531562 70.976594 37.156078 74.352078 
C 33.780594 77.727562 31.884 82.306344 31.884 87.08 
C 31.884 91.853656 33.780594 96.432438 37.156078 99.807922 
C 40.531562 103.183406 45.110344 105.08 49.884 105.08 
L 49.884 105.08 
z
" clip-path="url(#pa673022d74)" style="fill: none; stroke: #000000; stroke-width: 2; stroke-linejoin: miter"/>
   </g>
   <g id="patch_3">
    <path d="M 112.884 65.48 
C 112.884 64.061757 112.744319 62.657305 112.472949 61.347019 
C 112.20158 60.036733 111.803801 58.846096 111.302377 57.843247 
C 110.800952 56.840398 110.205633 56.044839 109.550491 55.502101 
C 108.895348 54.959363 108.193122 54.68 107.484 54.68 
C 106.774878 54.68 106.072652 54.959363 105.417509 55.502101 
C 104.762367 56.044839 104.167048 56.840398 103.665623 57.843247 
C 103.164199 58.846096 102.76642 60.036733 102.495051 61.347019 
C 102.223681 62.657305 102.084 64.061757 102.084 65.48 
C 102.084 66.898243 102.223681 68.302695 102.495051 69.612981 
C 102.76642 70.923267 103.164199 72.113904 103.665623 73.116753 
C 104.167048 74.119602 104.762367 74.915161 105.417509 75.457899 
C 106.072652 76.000637 106.774878 76.28 107.484 76.28 
C 108.193122 76.28 108.895348 76.000637 109.550491 75.457899 
C 110.205633 74.915161 110.800952 74.119602 111.302377 73.116753 
C 111.803801 72.113904 112.20158 70.923267 112.472949 69.612981 
C 112.744319 68.302695 112.884 66.898243 112.884 65.48 
" clip-path="url(#pa673022d74)" style="fill: none; stroke: #000000; stroke-width: 2; stroke-linejoin: miter"/>
   </g>
   <g id="patch_4">
    <path d="M 244.284 76.28 
C 245.71562 76.28 247.090069 75.141369 248.102377 73.116753 
C 249.114685 71.092137 249.684 68.34324 249.684 65.48 
C 249.684 62.61676 249.114685 59.867863 248.102377 57.843247 
C 247.090069 55.818631 245.71562 54.68 244.284 54.68 
" clip-path="url(#pa673022d74)" style="fill: none; stroke: #000000; stroke-width: 2; stroke-linejoin: miter"/>
   </g>
   <g id="patch_5">
    <path d="M 265.884 92.48 
C 267.302243 92.48 268.706695 92.340319 270.016981 92.068949 
C 271.327267 91.79758 272.517904 91.399801 273.520753 90.898377 
C 274.523602 90.396952 275.319161 89.801633 275.861899 89.146491 
C 276.404637 88.491348 276.684 87.789122 276.684 87.08 
C 276.684 86.370878 276.404637 85.668652 275.861899 85.013509 
C 275.319161 84.358367 274.523602 83.763048 273.520753 83.261623 
C 272.517904 82.760199 271.327267 82.36242 270.016981 82.091051 
C 268.706695 81.819681 267.302243 81.68 265.884 81.68 
C 264.465757 81.68 263.061305 81.819681 261.751019 82.091051 
C 260.440733 82.36242 259.250096 82.760199 258.247247 83.261623 
C 257.244398 83.763048 256.448839 84.358367 255.906101 85.013509 
C 255.363363 85.668652 255.084 86.370878 255.084 87.08 
C 255.084 87.789122 255.363363 88.491348 255.906101 89.146491 
C 256.448839 89.801633 257.244398 90.396952 258.247247 90.898377 
C 259.250096 91.399801 260.440733 91.79758 261.751019 92.068949 
C 263.061305 92.340319 264.465757 92.48 265.884 92.48 
" clip-path="url(#pa673022d74)" style="fill: none; stroke: #000000; stroke-width: 2; stroke-linejoin: miter"/>
   </g>
   <g id="patch_6">
    <path d="M 255.084 187.88 
C 255.084 189.31162 256.222631 190.686069 258.247247 191.698377 
C 260.271863 192.710685 263.02076 193.28 265.884 193.28 
C 268.74724 193.28 271.496137 192.710685 273.520753 191.698377 
C 275.545369 190.686069 276.684 189.31162 276.684 187.88 
" clip-path="url(#pa673022d74)" style="fill: none; stroke: #000000; stroke-width: 2; stroke-linejoin: miter"/>
   </g>
   <g id="patch_7">
    <path d="M 292.884 65.48 
C 292.884 64.061757 292.744319 62.657305 292.472949 61.347019 
C 292.20158 60.036733 291.803801 58.846096 291.302377 57.843247 
C 290.800952 56.840398 290.205633 56.044839 289.550491 55.502101 
C 288.895348 54.959363 288.193122 54.68 287.484 54.68 
C 286.774878 54.68 286.072652 54.959363 285.417509 55.502101 
C 284.762367 56.044839 284.167048 56.840398 283.665623 57.843247 
C 283.164199 58.846096 282.76642 60.036733 282.495051 61.347019 
C 282.223681 62.657305 282.084 64.061757 282.084 65.48 
C 282.084 66.898243 282.223681 68.302695 282.495051 69.612981 
C 282.76642 70.923267 283.164199 72.113904 283.665623 73.116753 
C 284.167048 74.119602 284.762367 74.915161 285.417509 75.457899 
C 286.072652 76.000637 286.774878 76.28 287.484 76.28 
C 288.193122 76.28 288.895348 76.000637 289.550491 75.457899 
C 290.205633 74.915161 290.800952 74.119602 291.302377 73.116753 
C 291.803801 72.113904 292.20158 70.923267 292.472949 69.612981 
C 292.744319 68.302695 292.884 66.898243 292.884 65.48 
" clip-path="url(#pa673022d74)" style="fill: none; stroke: #000000; stroke-width: 2; stroke-linejoin: miter"/>
   </g>
   <g id="patch_8">
    <path d="M 388.284 76.28 
C 389.71562 76.28 391.090069 75.141369 392.102377 73.116753 
C 393.114685 71.092137 393.684 68.34324 393.684 65.48 
C 393.684 62.61676 393.114685 59.867863 392.102377 57.843247 
C 391.090069 55.818631 389.71562 54.68 388.284 54.68 
" clip-path="url(#pa673022d74)" style="fill: none; stroke: #000000; stroke-width: 2; stroke-linejoin: miter"/>
   </g>
   <g id="line2d_1">
    <path d="M 49.884 123.08 
L 49.884 137.48 
L 40.884 137.48 
L 58.884 137.48 
M 43.584 141.8 
L 56.184 141.8 
M 48.084 146.12 
L 51.684 146.12 
" clip-path="url(#pa673022d74)" style="fill: none; stroke: #000000; stroke-width: 2; stroke-linecap: round"/>
   </g>
   <g id="line2d_2">
    <path d="M 49.884 123.08 
L 49.884 105.08 
L 49.884 105.08 
M 49.884 69.08 
L 49.884 69.08 
L 49.884 51.08 
" clip-path="url(#pa673022d74)" style="fill: none; stroke: #000000; stroke-width: 2; stroke-linecap: round"/>
   </g>
   <g id="line2d_3">
    <path d="M 58.884 87.08 
L 58.134 85.216503 
L 57.384 83.48 
L 56.634 81.988831 
L 55.884 80.844617 
L 55.134 80.125334 
L 54.384 79.88 
L 53.634 80.125334 
L 52.884 80.844617 
L 52.134 81.988831 
L 51.384 83.48 
L 50.634 85.216503 
L 49.884 87.08 
L 49.134 88.943497 
L 48.384 90.68 
L 47.634 92.171169 
L 46.884 93.315383 
L 46.134 94.034666 
L 45.384 94.28 
L 44.634 94.034666 
L 43.884 93.315383 
L 43.134 92.171169 
L 42.384 90.68 
L 41.634 88.943497 
L 40.884 87.08 
" clip-path="url(#pa673022d74)" style="fill: none; stroke: #000000; stroke-width: 2; stroke-linecap: round"/>
   </g>
   <g id="line2d_4">
    <path d="M 49.884 51.08 
L 67.884 51.08 
L 85.884 51.08 
" clip-path="url(#pa673022d74)" style="fill: none; stroke: #000000; stroke-width: 2; stroke-linecap: round"/>
   </g>
   <g id="line2d_5">
    <path d="M 85.884 51.08 
L 85.884 58.28 
L 85.884 65.48 
" clip-path="url(#pa673022d74)" style="fill: none; stroke: #000000; stroke-width: 2; stroke-linecap: round"/>
   </g>
   <g id="line2d_6">
    <path d="M 85.884 65.48 
L 107.484 65.48 
M 249.684 65.48 
L 265.884 65.48 
" clip-path="url(#pa673022d74)" style="fill: none; stroke: #000000; stroke-width: 2; stroke-linecap: round"/>
   </g>
   <g id="line2d_7">
    <path d="M 107.484 54.68 
L 244.284 54.68 
" clip-path="url(#pa673022d74)" style="fill: none; stroke: #000000; stroke-width: 2; stroke-linecap: round"/>
   </g>
   <g id="line2d_8">
    <path d="M 107.484 76.28 
L 244.284 76.28 
" clip-path="url(#pa673022d74)" style="fill: none; stroke: #000000; stroke-width: 2; stroke-linecap: round"/>
   </g>
   <g id="line2d_9">
    <path d="M 265.884 65.48 
L 265.884 87.08 
M 265.884 193.28 
L 265.884 209.48 
" clip-path="url(#pa673022d74)" style="fill: none; stroke: #000000; stroke-width: 2; stroke-linecap: round"/>
   </g>
   <g id="line2d_10">
    <path d="M 276.684 87.08 
L 276.684 187.88 
" clip-path="url(#pa673022d74)" style="fill: none; stroke: #000000; stroke-width: 2; stroke-linecap: round"/>
   </g>
   <g id="line2d_11">
    <path d="M 255.084 87.08 
L 255.084 187.88 
" clip-path="url(#pa673022d74)" style="fill: none; stroke: #000000; stroke-width: 2; stroke-linecap: round"/>
   </g>
   <g id="line2d_12">
    <path d="M 244.284 76.28 
L 244.284 81.68 
L 244.284 87.08 
" clip-path="url(#pa673022d74)" style="fill: none; stroke: #000000; stroke-width: 2; stroke-linecap: round"/>
   </g>
   <g id="line2d_13">
    <path d="M 244.284 87.08 
L 249.684 87.08 
L 255.084 87.08 
" clip-path="url(#pa673022d74)" style="fill: none; stroke: #000000; stroke-width: 2; stroke-linecap: round"/>
   </g>
   <g id="line2d_14">
    <path d="M 265.884 65.48 
L 287.484 65.48 
M 393.684 65.48 
L 409.884 65.48 
" clip-path="url(#pa673022d74)" style="fill: none; stroke: #000000; stroke-width: 2; stroke-linecap: round"/>
   </g>
   <g id="line2d_15">
    <path d="M 287.484 54.68 
L 388.284 54.68 
" clip-path="url(#pa673022d74)" style="fill: none; stroke: #000000; stroke-width: 2; stroke-linecap: round"/>
   </g>
   <g id="line2d_16">
    <path d="M 287.484 76.28 
L 388.284 76.28 
" clip-path="url(#pa673022d74)" style="fill: none; stroke: #000000; stroke-width: 2; stroke-linecap: round"/>
   </g>
   <g id="line2d_17">
    <path d="M 409.884 65.48 
L 409.884 43.88 
L 396.204 22.28 
L 423.564 22.28 
L 409.884 43.88 
" clip-path="url(#pa673022d74)" style="fill: none; stroke: #000000; stroke-width: 2; stroke-linecap: round"/>
   </g>
   <g id="line2d_18">
    <path d="M 244.284 54.68 
L 244.284 36.68 
L 244.284 18.68 
" clip-path="url(#pa673022d74)" style="fill: none; stroke: #000000; stroke-width: 2; stroke-linecap: round"/>
   </g>
   <g id="line2d_19">
    <path d="M 244.284 18.68 
L 265.884 18.68 
L 287.484 18.68 
" clip-path="url(#pa673022d74)" style="fill: none; stroke: #000000; stroke-width: 2; stroke-linecap: round"/>
   </g>
   <g id="line2d_20">
    <path d="M 287.484 18.68 
L 287.484 36.68 
L 287.484 54.68 
" clip-path="url(#pa673022d74)" style="fill: none; stroke: #000000; stroke-width: 2; stroke-linecap: round"/>
   </g>
   <g id="line2d_21">
    <path d="M 49.884 123.08 
L 78.684 123.08 
L 107.484 123.08 
" clip-path="url(#pa673022d74)" style="fill: none; stroke: #000000; stroke-width: 2; stroke-linecap: round"/>
   </g>
   <g id="line2d_22">
    <path d="M 107.484 123.08 
L 107.484 99.68 
L 107.484 76.28 
" clip-path="url(#pa673022d74)" style="fill: none; stroke: #000000; stroke-width: 2; stroke-linecap: round"/>
   </g>
   <g id="text_1">
    <!-- $V_{in}$ -->
    <g transform="translate(9.384 90.943125) scale(0.14 -0.14)">
     <defs>
      <path id="DejaVuSans-Oblique-56" d="M 1319 0 
L 500 4666 
L 1119 4666 
L 1797 653 
L 4063 4666 
L 4750 4666 
L 2053 0 
L 1319 0 
z
" transform="scale(0.015625)"/>
      <path id="DejaVuSans-Oblique-69" d="M 1172 4863 
L 1747 4863 
L 1606 4134 
L 1031 4134 
L 1172 4863 
z
M 909 3500 
L 1484 3500 
L 800 0 
L 225 0 
L 909 3500 
z
" transform="scale(0.015625)"/>
      <path id="DejaVuSans-Oblique-6e" d="M 3566 2113 
L 3156 0 
L 2578 0 
L 2988 2091 
Q 3016 2238 3031 2350 
Q 3047 2463 3047 2528 
Q 3047 2791 2881 2937 
Q 2716 3084 2419 3084 
Q 1956 3084 1622 2776 
Q 1288 2469 1184 1941 
L 800 0 
L 225 0 
L 903 3500 
L 1478 3500 
L 1363 2950 
Q 1603 3253 1940 3418 
Q 2278 3584 2650 3584 
Q 3113 3584 3367 3334 
Q 3622 3084 3622 2631 
Q 3622 2519 3608 2391 
Q 3594 2263 3566 2113 
z
" transform="scale(0.015625)"/>
     </defs>
     <use xlink:href="#DejaVuSans-Oblique-56" transform="translate(0 0.09375)"/>
     <use xlink:href="#DejaVuSans-Oblique-69" transform="translate(68.408203 -16.3125) scale(0.7)"/>
     <use xlink:href="#DejaVuSans-Oblique-6e" transform="translate(87.856445 -16.3125) scale(0.7)"/>
    </g>
   </g>
   <g id="text_2">
    <!-- $50\Omega$ -->
    <g transform="translate(161.604 48.168438) scale(0.14 -0.14)">
     <defs>
      <path id="DejaVuSans-35" d="M 691 4666 
L 3169 4666 
L 3169 4134 
L 1269 4134 
L 1269 2991 
Q 1406 3038 1543 3061 
Q 1681 3084 1819 3084 
Q 2600 3084 3056 2656 
Q 3513 2228 3513 1497 
Q 3513 744 3044 326 
Q 2575 -91 1722 -91 
Q 1428 -91 1123 -41 
Q 819 9 494 109 
L 494 744 
Q 775 591 1075 516 
Q 1375 441 1709 441 
Q 2250 441 2565 725 
Q 2881 1009 2881 1497 
Q 2881 1984 2565 2268 
Q 2250 2553 1709 2553 
Q 1456 2553 1204 2497 
Q 953 2441 691 2322 
L 691 4666 
z
" transform="scale(0.015625)"/>
      <path id="DejaVuSans-30" d="M 2034 4250 
Q 1547 4250 1301 3770 
Q 1056 3291 1056 2328 
Q 1056 1369 1301 889 
Q 1547 409 2034 409 
Q 2525 409 2770 889 
Q 3016 1369 3016 2328 
Q 3016 3291 2770 3770 
Q 2525 4250 2034 4250 
z
M 2034 4750 
Q 2819 4750 3233 4129 
Q 3647 3509 3647 2328 
Q 3647 1150 3233 529 
Q 2819 -91 2034 -91 
Q 1250 -91 836 529 
Q 422 1150 422 2328 
Q 422 3509 836 4129 
Q 1250 4750 2034 4750 
z
" transform="scale(0.015625)"/>
      <path id="DejaVuSans-3a9" d="M 4647 556 
L 4647 0 
L 2772 0 
L 2772 556 
Q 3325 859 3634 1378 
Q 3944 1897 3944 2528 
Q 3944 3278 3531 3731 
Q 3119 4184 2444 4184 
Q 1769 4184 1355 3729 
Q 941 3275 941 2528 
Q 941 1897 1250 1378 
Q 1563 859 2119 556 
L 2119 0 
L 244 0 
L 244 556 
L 1241 556 
Q 747 991 519 1456 
Q 294 1922 294 2497 
Q 294 3491 894 4106 
Q 1491 4722 2444 4722 
Q 3391 4722 3994 4106 
Q 4594 3494 4594 2528 
Q 4594 1922 4372 1459 
Q 4150 997 3647 556 
L 4647 556 
z
" transform="scale(0.015625)"/>
     </defs>
     <use xlink:href="#DejaVuSans-35" transform="translate(0 0.78125)"/>
     <use xlink:href="#DejaVuSans-30" transform="translate(63.623047 0.78125)"/>
     <use xlink:href="#DejaVuSans-3a9" transform="translate(127.246094 0.78125)"/>
    </g>
   </g>
   <g id="text_3">
    <!-- $50\Omega$ -->
    <g transform="translate(222.924 141.343125) scale(0.14 -0.14)">
     <use xlink:href="#DejaVuSans-35" transform="translate(0 0.78125)"/>
     <use xlink:href="#DejaVuSans-30" transform="translate(63.623047 0.78125)"/>
     <use xlink:href="#DejaVuSans-3a9" transform="translate(127.246094 0.78125)"/>
    </g>
   </g>
   <g id="text_4">
    <!-- 3.54 cm -->
    <g transform="translate(280.284 141.343125) scale(0.14 -0.14)">
     <defs>
      <path id="DejaVuSans-33" d="M 2597 2516 
Q 3050 2419 3304 2112 
Q 3559 1806 3559 1356 
Q 3559 666 3084 287 
Q 2609 -91 1734 -91 
Q 1441 -91 1130 -33 
Q 819 25 488 141 
L 488 750 
Q 750 597 1062 519 
Q 1375 441 1716 441 
Q 2309 441 2620 675 
Q 2931 909 2931 1356 
Q 2931 1769 2642 2001 
Q 2353 2234 1838 2234 
L 1294 2234 
L 1294 2753 
L 1863 2753 
Q 2328 2753 2575 2939 
Q 2822 3125 2822 3475 
Q 2822 3834 2567 4026 
Q 2313 4219 1838 4219 
Q 1578 4219 1281 4162 
Q 984 4106 628 3988 
L 628 4550 
Q 988 4650 1302 4700 
Q 1616 4750 1894 4750 
Q 2613 4750 3031 4423 
Q 3450 4097 3450 3541 
Q 3450 3153 3228 2886 
Q 3006 2619 2597 2516 
z
" transform="scale(0.015625)"/>
      <path id="DejaVuSans-2e" d="M 684 794 
L 1344 794 
L 1344 0 
L 684 0 
L 684 794 
z
" transform="scale(0.015625)"/>
      <path id="DejaVuSans-34" d="M 2419 4116 
L 825 1625 
L 2419 1625 
L 2419 4116 
z
M 2253 4666 
L 3047 4666 
L 3047 1625 
L 3713 1625 
L 3713 1100 
L 3047 1100 
L 3047 0 
L 2419 0 
L 2419 1100 
L 313 1100 
L 313 1709 
L 2253 4666 
z
" transform="scale(0.015625)"/>
      <path id="DejaVuSans-20" transform="scale(0.015625)"/>
      <path id="DejaVuSans-63" d="M 3122 3366 
L 3122 2828 
Q 2878 2963 2633 3030 
Q 2388 3097 2138 3097 
Q 1578 3097 1268 2742 
Q 959 2388 959 1747 
Q 959 1106 1268 751 
Q 1578 397 2138 397 
Q 2388 397 2633 464 
Q 2878 531 3122 666 
L 3122 134 
Q 2881 22 2623 -34 
Q 2366 -91 2075 -91 
Q 1284 -91 818 406 
Q 353 903 353 1747 
Q 353 2603 823 3093 
Q 1294 3584 2113 3584 
Q 2378 3584 2631 3529 
Q 2884 3475 3122 3366 
z
" transform="scale(0.015625)"/>
      <path id="DejaVuSans-6d" d="M 3328 2828 
Q 3544 3216 3844 3400 
Q 4144 3584 4550 3584 
Q 5097 3584 5394 3201 
Q 5691 2819 5691 2113 
L 5691 0 
L 5113 0 
L 5113 2094 
Q 5113 2597 4934 2840 
Q 4756 3084 4391 3084 
Q 3944 3084 3684 2787 
Q 3425 2491 3425 1978 
L 3425 0 
L 2847 0 
L 2847 2094 
Q 2847 2600 2669 2842 
Q 2491 3084 2119 3084 
Q 1678 3084 1418 2786 
Q 1159 2488 1159 1978 
L 1159 0 
L 581 0 
L 581 3500 
L 1159 3500 
L 1159 2956 
Q 1356 3278 1631 3431 
Q 1906 3584 2284 3584 
Q 2666 3584 2933 3390 
Q 3200 3197 3328 2828 
z
" transform="scale(0.015625)"/>
     </defs>
     <use xlink:href="#DejaVuSans-33"/>
     <use xlink:href="#DejaVuSans-2e" transform="translate(63.623047 0)"/>
     <use xlink:href="#DejaVuSans-35" transform="translate(95.410156 0)"/>
     <use xlink:href="#DejaVuSans-34" transform="translate(159.033203 0)"/>
     <use xlink:href="#DejaVuSans-20" transform="translate(222.65625 0)"/>
     <use xlink:href="#DejaVuSans-63" transform="translate(254.443359 0)"/>
     <use xlink:href="#DejaVuSans-6d" transform="translate(309.423828 0)"/>
    </g>
   </g>
   <g id="text_5">
    <!-- $50\Omega$ -->
    <g transform="translate(323.604 48.168438) scale(0.14 -0.14)">
     <use xlink:href="#DejaVuSans-35" transform="translate(0 0.78125)"/>
     <use xlink:href="#DejaVuSans-30" transform="translate(63.623047 0.78125)"/>
     <use xlink:href="#DejaVuSans-3a9" transform="translate(127.246094 0.78125)"/>
    </g>
   </g>
   <g id="text_6">
    <!-- 17.8 cm -->
    <g transform="translate(309.406031 90.517812) scale(0.14 -0.14)">
     <defs>
      <path id="DejaVuSans-31" d="M 794 531 
L 1825 531 
L 1825 4091 
L 703 3866 
L 703 4441 
L 1819 4666 
L 2450 4666 
L 2450 531 
L 3481 531 
L 3481 0 
L 794 0 
L 794 531 
z
" transform="scale(0.015625)"/>
      <path id="DejaVuSans-37" d="M 525 4666 
L 3525 4666 
L 3525 4397 
L 1831 0 
L 1172 0 
L 2766 4134 
L 525 4134 
L 525 4666 
z
" transform="scale(0.015625)"/>
      <path id="DejaVuSans-38" d="M 2034 2216 
Q 1584 2216 1326 1975 
Q 1069 1734 1069 1313 
Q 1069 891 1326 650 
Q 1584 409 2034 409 
Q 2484 409 2743 651 
Q 3003 894 3003 1313 
Q 3003 1734 2745 1975 
Q 2488 2216 2034 2216 
z
M 1403 2484 
Q 997 2584 770 2862 
Q 544 3141 544 3541 
Q 544 4100 942 4425 
Q 1341 4750 2034 4750 
Q 2731 4750 3128 4425 
Q 3525 4100 3525 3541 
Q 3525 3141 3298 2862 
Q 3072 2584 2669 2484 
Q 3125 2378 3379 2068 
Q 3634 1759 3634 1313 
Q 3634 634 3220 271 
Q 2806 -91 2034 -91 
Q 1263 -91 848 271 
Q 434 634 434 1313 
Q 434 1759 690 2068 
Q 947 2378 1403 2484 
z
M 1172 3481 
Q 1172 3119 1398 2916 
Q 1625 2713 2034 2713 
Q 2441 2713 2670 2916 
Q 2900 3119 2900 3481 
Q 2900 3844 2670 4047 
Q 2441 4250 2034 4250 
Q 1625 4250 1398 4047 
Q 1172 3844 1172 3481 
z
" transform="scale(0.015625)"/>
     </defs>
     <use xlink:href="#DejaVuSans-31"/>
     <use xlink:href="#DejaVuSans-37" transform="translate(63.623047 0)"/>
     <use xlink:href="#DejaVuSans-2e" transform="translate(127.246094 0)"/>
     <use xlink:href="#DejaVuSans-38" transform="translate(159.033203 0)"/>
     <use xlink:href="#DejaVuSans-20" transform="translate(222.65625 0)"/>
     <use xlink:href="#DejaVuSans-63" transform="translate(254.443359 0)"/>
     <use xlink:href="#DejaVuSans-6d" transform="translate(309.423828 0)"/>
    </g>
   </g>
   <g id="text_7">
    <!-- $80\Omega$ -->
    <g transform="translate(395.604 15.768438) scale(0.14 -0.14)">
     <use xlink:href="#DejaVuSans-38" transform="translate(0 0.78125)"/>
     <use xlink:href="#DejaVuSans-30" transform="translate(63.623047 0.78125)"/>
     <use xlink:href="#DejaVuSans-3a9" transform="translate(127.246094 0.78125)"/>
    </g>
   </g>
   <g id="patch_9">
    <path d="M 49.884 125.78 
C 50.600048 125.78 51.286866 125.495511 51.793188 124.989188 
C 52.299511 124.482866 52.584 123.796048 52.584 123.08 
C 52.584 122.363952 52.299511 121.677134 51.793188 121.170812 
C 51.286866 120.664489 50.600048 120.38 49.884 120.38 
C 49.167952 120.38 48.481134 120.664489 47.974812 121.170812 
C 47.468489 121.677134 47.184 122.363952 47.184 123.08 
C 47.184 123.796048 47.468489 124.482866 47.974812 124.989188 
C 48.481134 125.495511 49.167952 125.78 49.884 125.78 
z
" clip-path="url(#pa673022d74)" style="stroke: #000000; stroke-width: 2; stroke-linejoin: miter"/>
   </g>
   <g id="patch_10">
    <path d="M 265.884 68.18 
C 266.600048 68.18 267.286866 67.895511 267.793188 67.389188 
C 268.299511 66.882866 268.584 66.196048 268.584 65.48 
C 268.584 64.763952 268.299511 64.077134 267.793188 63.570812 
C 267.286866 63.064489 266.600048 62.78 265.884 62.78 
C 265.167952 62.78 264.481134 63.064489 263.974812 63.570812 
C 263.468489 64.077134 263.184 64.763952 263.184 65.48 
C 263.184 66.196048 263.468489 66.882866 263.974812 67.389188 
C 264.481134 67.895511 265.167952 68.18 265.884 68.18 
z
" clip-path="url(#pa673022d74)" style="fill: #008000; stroke: #008000; stroke-width: 2; stroke-linejoin: miter"/>
   </g>
   <g id="patch_11">
    <path d="M 265.884 212.18 
C 266.600048 212.18 267.286866 211.895511 267.793188 211.389188 
C 268.299511 210.882866 268.584 210.196048 268.584 209.48 
C 268.584 208.763952 268.299511 208.077134 267.793188 207.570812 
C 267.286866 207.064489 266.600048 206.78 265.884 206.78 
C 265.167952 206.78 264.481134 207.064489 263.974812 207.570812 
C 263.468489 208.077134 263.184 208.763952 263.184 209.48 
C 263.184 210.196048 263.468489 210.882866 263.974812 211.389188 
C 264.481134 211.895511 265.167952 212.18 265.884 212.18 
z
" clip-path="url(#pa673022d74)" style="fill: #0000ff; stroke: #0000ff; stroke-width: 2; stroke-linejoin: miter"/>
   </g>
   <g id="patch_12">
    <path d="M 409.884 68.18 
C 410.600048 68.18 411.286866 67.895511 411.793188 67.389188 
C 412.299511 66.882866 412.584 66.196048 412.584 65.48 
C 412.584 64.763952 412.299511 64.077134 411.793188 63.570812 
C 411.286866 63.064489 410.600048 62.78 409.884 62.78 
C 409.167952 62.78 408.481134 63.064489 407.974812 63.570812 
C 407.468489 64.077134 407.184 64.763952 407.184 65.48 
C 407.184 66.196048 407.468489 66.882866 407.974812 67.389188 
C 408.481134 67.895511 409.167952 68.18 409.884 68.18 
z
" clip-path="url(#pa673022d74)" style="fill: #ff0000; stroke: #ff0000; stroke-width: 2; stroke-linejoin: miter"/>
   </g>
  </g>
 </g>
 <defs>
  <clipPath id="pa673022d74">
   <rect x="0" y="0" width="428.424" height="216.86"/>
  </clipPath>
 </defs>
</svg>