<?xml version="1.0" encoding="utf-8" standalone="no"?>
<!DOCTYPE svg PUBLIC "-//W3C//DTD SVG 1.1//EN"
  "http://www.w3.org/Graphics/SVG/1.1/DTD/svg11.dtd">
<svg xmlns:xlink="http://www.w3.org/1999/xlink" width="736.9125pt" height="479.63625pt" viewBox="0 0 736.9125 479.63625" xmlns="http://www.w3.org/2000/svg" version="1.1">
 <metadata>
  <rdf:RDF xmlns:dc="http://purl.org/dc/elements/1.1/" xmlns:cc="http://creativecommons.org/ns#" xmlns:rdf="http://www.w3.org/1999/02/22-rdf-syntax-ns#">
   <cc:Work>
    <dc:type rdf:resource="http://purl.org/dc/dcmitype/StillImage"/>
    <dc:date>2022-11-15T00:04:24.784616</dc:date>
    <dc:format>image/svg+xml</dc:format>
    <dc:creator>
     <cc:Agent>
      <dc:title>Matplotlib v3.5.3, https://matplotlib.org/</dc:title>
     </cc:Agent>
    </dc:creator>
   </cc:Work>
  </rdf:RDF>
 </metadata>
 <defs>
  <style type="text/css">*{stroke-linejoin: round; stroke-linecap: butt}</style>
 </defs>
 <g id="figure_1">
  <g id="patch_1">
   <path d="M 0 479.63625 
L 736.9125 479.63625 
L 736.9125 0 
L 0 0 
L 0 479.63625 
z
" style="fill: none"/>
  </g>
  <g id="axes_1">
   <g id="patch_2">
    <path d="M 52.160938 442.08 
L 721.760938 442.08 
L 721.760938 7.2 
L 52.160938 7.2 
z
" style="fill: #ffffff"/>
   </g>
   <g id="matplotlib.axis_1">
    <g id="xtick_1">
     <g id="line2d_1">
      <path d="M 52.160937 442.08 
L 52.160937 7.2 
" clip-path="url(#pbbd516f7b6)" style="fill: none; stroke: #b0b0b0; stroke-width: 0.8; stroke-linecap: square"/>
     </g>
     <g id="line2d_2">
      <defs>
       <path id="m8ae6fe9af5" d="M 0 0 
L 0 3.5 
" style="stroke: #000000; stroke-width: 0.8"/>
      </defs>
      <g>
       <use xlink:href="#m8ae6fe9af5" x="52.160937" y="442.08" style="stroke: #000000; stroke-width: 0.8"/>
      </g>
     </g>
     <g id="text_1">
      <!-- 2.1 -->
      <g transform="translate(44.209375 456.678437)scale(0.1 -0.1)">
       <defs>
        <path id="DejaVuSans-32" d="M 1228 531 
L 3431 531 
L 3431 0 
L 469 0 
L 469 531 
Q 828 903 1448 1529 
Q 2069 2156 2228 2338 
Q 2531 2678 2651 2914 
Q 2772 3150 2772 3378 
Q 2772 3750 2511 3984 
Q 2250 4219 1831 4219 
Q 1534 4219 1204 4116 
Q 875 4013 500 3803 
L 500 4441 
Q 881 4594 1212 4672 
Q 1544 4750 1819 4750 
Q 2544 4750 2975 4387 
Q 3406 4025 3406 3419 
Q 3406 3131 3298 2873 
Q 3191 2616 2906 2266 
Q 2828 2175 2409 1742 
Q 1991 1309 1228 531 
z
" transform="scale(0.015625)"/>
        <path id="DejaVuSans-2e" d="M 684 794 
L 1344 794 
L 1344 0 
L 684 0 
L 684 794 
z
" transform="scale(0.015625)"/>
        <path id="DejaVuSans-31" d="M 794 531 
L 1825 531 
L 1825 4091 
L 703 3866 
L 703 4441 
L 1819 4666 
L 2450 4666 
L 2450 531 
L 3481 531 
L 3481 0 
L 794 0 
L 794 531 
z
" transform="scale(0.015625)"/>
       </defs>
       <use xlink:href="#DejaVuSans-32"/>
       <use xlink:href="#DejaVuSans-2e" x="63.623047"/>
       <use xlink:href="#DejaVuSans-31" x="95.410156"/>
      </g>
     </g>
    </g>
    <g id="xtick_2">
     <g id="line2d_3">
      <path d="M 163.760938 442.08 
L 163.760938 7.2 
" clip-path="url(#pbbd516f7b6)" style="fill: none; stroke: #b0b0b0; stroke-width: 0.8; stroke-linecap: square"/>
     </g>
     <g id="line2d_4">
      <g>
       <use xlink:href="#m8ae6fe9af5" x="163.760938" y="442.08" style="stroke: #000000; stroke-width: 0.8"/>
      </g>
     </g>
     <g id="text_2">
      <!-- 2.2 -->
      <g transform="translate(155.809375 456.678437)scale(0.1 -0.1)">
       <use xlink:href="#DejaVuSans-32"/>
       <use xlink:href="#DejaVuSans-2e" x="63.623047"/>
       <use xlink:href="#DejaVuSans-32" x="95.410156"/>
      </g>
     </g>
    </g>
    <g id="xtick_3">
     <g id="line2d_5">
      <path d="M 275.360937 442.08 
L 275.360937 7.2 
" clip-path="url(#pbbd516f7b6)" style="fill: none; stroke: #b0b0b0; stroke-width: 0.8; stroke-linecap: square"/>
     </g>
     <g id="line2d_6">
      <g>
       <use xlink:href="#m8ae6fe9af5" x="275.360937" y="442.08" style="stroke: #000000; stroke-width: 0.8"/>
      </g>
     </g>
     <g id="text_3">
      <!-- 2.3 -->
      <g transform="translate(267.409375 456.678437)scale(0.1 -0.1)">
       <defs>
        <path id="DejaVuSans-33" d="M 2597 2516 
Q 3050 2419 3304 2112 
Q 3559 1806 3559 1356 
Q 3559 666 3084 287 
Q 2609 -91 1734 -91 
Q 1441 -91 1130 -33 
Q 819 25 488 141 
L 488 750 
Q 750 597 1062 519 
Q 1375 441 1716 441 
Q 2309 441 2620 675 
Q 2931 909 2931 1356 
Q 2931 1769 2642 2001 
Q 2353 2234 1838 2234 
L 1294 2234 
L 1294 2753 
L 1863 2753 
Q 2328 2753 2575 2939 
Q 2822 3125 2822 3475 
Q 2822 3834 2567 4026 
Q 2313 4219 1838 4219 
Q 1578 4219 1281 4162 
Q 984 4106 628 3988 
L 628 4550 
Q 988 4650 1302 4700 
Q 1616 4750 1894 4750 
Q 2613 4750 3031 4423 
Q 3450 4097 3450 3541 
Q 3450 3153 3228 2886 
Q 3006 2619 2597 2516 
z
" transform="scale(0.015625)"/>
       </defs>
       <use xlink:href="#DejaVuSans-32"/>
       <use xlink:href="#DejaVuSans-2e" x="63.623047"/>
       <use xlink:href="#DejaVuSans-33" x="95.410156"/>
      </g>
     </g>
    </g>
    <g id="xtick_4">
     <g id="line2d_7">
      <path d="M 386.960938 442.08 
L 386.960938 7.2 
" clip-path="url(#pbbd516f7b6)" style="fill: none; stroke: #b0b0b0; stroke-width: 0.8; stroke-linecap: square"/>
     </g>
     <g id="line2d_8">
      <g>
       <use xlink:href="#m8ae6fe9af5" x="386.960938" y="442.08" style="stroke: #000000; stroke-width: 0.8"/>
      </g>
     </g>
     <g id="text_4">
      <!-- 2.4 -->
      <g transform="translate(379.009375 456.678437)scale(0.1 -0.1)">
       <defs>
        <path id="DejaVuSans-34" d="M 2419 4116 
L 825 1625 
L 2419 1625 
L 2419 4116 
z
M 2253 4666 
L 3047 4666 
L 3047 1625 
L 3713 1625 
L 3713 1100 
L 3047 1100 
L 3047 0 
L 2419 0 
L 2419 1100 
L 313 1100 
L 313 1709 
L 2253 4666 
z
" transform="scale(0.015625)"/>
       </defs>
       <use xlink:href="#DejaVuSans-32"/>
       <use xlink:href="#DejaVuSans-2e" x="63.623047"/>
       <use xlink:href="#DejaVuSans-34" x="95.410156"/>
      </g>
     </g>
    </g>
    <g id="xtick_5">
     <g id="line2d_9">
      <path d="M 498.560937 442.08 
L 498.560937 7.2 
" clip-path="url(#pbbd516f7b6)" style="fill: none; stroke: #b0b0b0; stroke-width: 0.8; stroke-linecap: square"/>
     </g>
     <g id="line2d_10">
      <g>
       <use xlink:href="#m8ae6fe9af5" x="498.560937" y="442.08" style="stroke: #000000; stroke-width: 0.8"/>
      </g>
     </g>
     <g id="text_5">
      <!-- 2.5 -->
      <g transform="translate(490.609375 456.678437)scale(0.1 -0.1)">
       <defs>
        <path id="DejaVuSans-35" d="M 691 4666 
L 3169 4666 
L 3169 4134 
L 1269 4134 
L 1269 2991 
Q 1406 3038 1543 3061 
Q 1681 3084 1819 3084 
Q 2600 3084 3056 2656 
Q 3513 2228 3513 1497 
Q 3513 744 3044 326 
Q 2575 -91 1722 -91 
Q 1428 -91 1123 -41 
Q 819 9 494 109 
L 494 744 
Q 775 591 1075 516 
Q 1375 441 1709 441 
Q 2250 441 2565 725 
Q 2881 1009 2881 1497 
Q 2881 1984 2565 2268 
Q 2250 2553 1709 2553 
Q 1456 2553 1204 2497 
Q 953 2441 691 2322 
L 691 4666 
z
" transform="scale(0.015625)"/>
       </defs>
       <use xlink:href="#DejaVuSans-32"/>
       <use xlink:href="#DejaVuSans-2e" x="63.623047"/>
       <use xlink:href="#DejaVuSans-35" x="95.410156"/>
      </g>
     </g>
    </g>
    <g id="xtick_6">
     <g id="line2d_11">
      <path d="M 610.160937 442.08 
L 610.160937 7.2 
" clip-path="url(#pbbd516f7b6)" style="fill: none; stroke: #b0b0b0; stroke-width: 0.8; stroke-linecap: square"/>
     </g>
     <g id="line2d_12">
      <g>
       <use xlink:href="#m8ae6fe9af5" x="610.160937" y="442.08" style="stroke: #000000; stroke-width: 0.8"/>
      </g>
     </g>
     <g id="text_6">
      <!-- 2.6 -->
      <g transform="translate(602.209375 456.678437)scale(0.1 -0.1)">
       <defs>
        <path id="DejaVuSans-36" d="M 2113 2584 
Q 1688 2584 1439 2293 
Q 1191 2003 1191 1497 
Q 1191 994 1439 701 
Q 1688 409 2113 409 
Q 2538 409 2786 701 
Q 3034 994 3034 1497 
Q 3034 2003 2786 2293 
Q 2538 2584 2113 2584 
z
M 3366 4563 
L 3366 3988 
Q 3128 4100 2886 4159 
Q 2644 4219 2406 4219 
Q 1781 4219 1451 3797 
Q 1122 3375 1075 2522 
Q 1259 2794 1537 2939 
Q 1816 3084 2150 3084 
Q 2853 3084 3261 2657 
Q 3669 2231 3669 1497 
Q 3669 778 3244 343 
Q 2819 -91 2113 -91 
Q 1303 -91 875 529 
Q 447 1150 447 2328 
Q 447 3434 972 4092 
Q 1497 4750 2381 4750 
Q 2619 4750 2861 4703 
Q 3103 4656 3366 4563 
z
" transform="scale(0.015625)"/>
       </defs>
       <use xlink:href="#DejaVuSans-32"/>
       <use xlink:href="#DejaVuSans-2e" x="63.623047"/>
       <use xlink:href="#DejaVuSans-36" x="95.410156"/>
      </g>
     </g>
    </g>
    <g id="xtick_7">
     <g id="line2d_13">
      <path d="M 721.760938 442.08 
L 721.760938 7.2 
" clip-path="url(#pbbd516f7b6)" style="fill: none; stroke: #b0b0b0; stroke-width: 0.8; stroke-linecap: square"/>
     </g>
     <g id="line2d_14">
      <g>
       <use xlink:href="#m8ae6fe9af5" x="721.760938" y="442.08" style="stroke: #000000; stroke-width: 0.8"/>
      </g>
     </g>
     <g id="text_7">
      <!-- 2.7 -->
      <g transform="translate(713.809375 456.678437)scale(0.1 -0.1)">
       <defs>
        <path id="DejaVuSans-37" d="M 525 4666 
L 3525 4666 
L 3525 4397 
L 1831 0 
L 1172 0 
L 2766 4134 
L 525 4134 
L 525 4666 
z
" transform="scale(0.015625)"/>
       </defs>
       <use xlink:href="#DejaVuSans-32"/>
       <use xlink:href="#DejaVuSans-2e" x="63.623047"/>
       <use xlink:href="#DejaVuSans-37" x="95.410156"/>
      </g>
     </g>
    </g>
    <g id="text_8">
     <!-- tijd [us] -->
     <g transform="translate(367.784375 470.356562)scale(0.1 -0.1)">
      <defs>
       <path id="DejaVuSans-74" d="M 1172 4494 
L 1172 3500 
L 2356 3500 
L 2356 3053 
L 1172 3053 
L 1172 1153 
Q 1172 725 1289 603 
Q 1406 481 1766 481 
L 2356 481 
L 2356 0 
L 1766 0 
Q 1100 0 847 248 
Q 594 497 594 1153 
L 594 3053 
L 172 3053 
L 172 3500 
L 594 3500 
L 594 4494 
L 1172 4494 
z
" transform="scale(0.015625)"/>
       <path id="DejaVuSans-69" d="M 603 3500 
L 1178 3500 
L 1178 0 
L 603 0 
L 603 3500 
z
M 603 4863 
L 1178 4863 
L 1178 4134 
L 603 4134 
L 603 4863 
z
" transform="scale(0.015625)"/>
       <path id="DejaVuSans-6a" d="M 603 3500 
L 1178 3500 
L 1178 -63 
Q 1178 -731 923 -1031 
Q 669 -1331 103 -1331 
L -116 -1331 
L -116 -844 
L 38 -844 
Q 366 -844 484 -692 
Q 603 -541 603 -63 
L 603 3500 
z
M 603 4863 
L 1178 4863 
L 1178 4134 
L 603 4134 
L 603 4863 
z
" transform="scale(0.015625)"/>
       <path id="DejaVuSans-64" d="M 2906 2969 
L 2906 4863 
L 3481 4863 
L 3481 0 
L 2906 0 
L 2906 525 
Q 2725 213 2448 61 
Q 2172 -91 1784 -91 
Q 1150 -91 751 415 
Q 353 922 353 1747 
Q 353 2572 751 3078 
Q 1150 3584 1784 3584 
Q 2172 3584 2448 3432 
Q 2725 3281 2906 2969 
z
M 947 1747 
Q 947 1113 1208 752 
Q 1469 391 1925 391 
Q 2381 391 2643 752 
Q 2906 1113 2906 1747 
Q 2906 2381 2643 2742 
Q 2381 3103 1925 3103 
Q 1469 3103 1208 2742 
Q 947 2381 947 1747 
z
" transform="scale(0.015625)"/>
       <path id="DejaVuSans-20" transform="scale(0.015625)"/>
       <path id="DejaVuSans-5b" d="M 550 4863 
L 1875 4863 
L 1875 4416 
L 1125 4416 
L 1125 -397 
L 1875 -397 
L 1875 -844 
L 550 -844 
L 550 4863 
z
" transform="scale(0.015625)"/>
       <path id="DejaVuSans-75" d="M 544 1381 
L 544 3500 
L 1119 3500 
L 1119 1403 
Q 1119 906 1312 657 
Q 1506 409 1894 409 
Q 2359 409 2629 706 
Q 2900 1003 2900 1516 
L 2900 3500 
L 3475 3500 
L 3475 0 
L 2900 0 
L 2900 538 
Q 2691 219 2414 64 
Q 2138 -91 1772 -91 
Q 1169 -91 856 284 
Q 544 659 544 1381 
z
M 1991 3584 
L 1991 3584 
z
" transform="scale(0.015625)"/>
       <path id="DejaVuSans-73" d="M 2834 3397 
L 2834 2853 
Q 2591 2978 2328 3040 
Q 2066 3103 1784 3103 
Q 1356 3103 1142 2972 
Q 928 2841 928 2578 
Q 928 2378 1081 2264 
Q 1234 2150 1697 2047 
L 1894 2003 
Q 2506 1872 2764 1633 
Q 3022 1394 3022 966 
Q 3022 478 2636 193 
Q 2250 -91 1575 -91 
Q 1294 -91 989 -36 
Q 684 19 347 128 
L 347 722 
Q 666 556 975 473 
Q 1284 391 1588 391 
Q 1994 391 2212 530 
Q 2431 669 2431 922 
Q 2431 1156 2273 1281 
Q 2116 1406 1581 1522 
L 1381 1569 
Q 847 1681 609 1914 
Q 372 2147 372 2553 
Q 372 3047 722 3315 
Q 1072 3584 1716 3584 
Q 2034 3584 2315 3537 
Q 2597 3491 2834 3397 
z
" transform="scale(0.015625)"/>
       <path id="DejaVuSans-5d" d="M 1947 4863 
L 1947 -844 
L 622 -844 
L 622 -397 
L 1369 -397 
L 1369 4416 
L 622 4416 
L 622 4863 
L 1947 4863 
z
" transform="scale(0.015625)"/>
      </defs>
      <use xlink:href="#DejaVuSans-74"/>
      <use xlink:href="#DejaVuSans-69" x="39.208984"/>
      <use xlink:href="#DejaVuSans-6a" x="66.992188"/>
      <use xlink:href="#DejaVuSans-64" x="94.775391"/>
      <use xlink:href="#DejaVuSans-20" x="158.251953"/>
      <use xlink:href="#DejaVuSans-5b" x="190.039062"/>
      <use xlink:href="#DejaVuSans-75" x="229.052734"/>
      <use xlink:href="#DejaVuSans-73" x="292.431641"/>
      <use xlink:href="#DejaVuSans-5d" x="344.53125"/>
     </g>
    </g>
   </g>
   <g id="matplotlib.axis_2">
    <g id="ytick_1">
     <g id="line2d_15">
      <path d="M 52.160938 435.48634 
L 721.760938 435.48634 
" clip-path="url(#pbbd516f7b6)" style="fill: none; stroke: #b0b0b0; stroke-width: 0.8; stroke-linecap: square"/>
     </g>
     <g id="line2d_16">
      <defs>
       <path id="m66f7fc8620" d="M 0 0 
L -3.5 0 
" style="stroke: #000000; stroke-width: 0.8"/>
      </defs>
      <g>
       <use xlink:href="#m66f7fc8620" x="52.160938" y="435.48634" style="stroke: #000000; stroke-width: 0.8"/>
      </g>
     </g>
     <g id="text_9">
      <!-- −2.0 -->
      <g transform="translate(20.878125 439.285559)scale(0.1 -0.1)">
       <defs>
        <path id="DejaVuSans-2212" d="M 678 2272 
L 4684 2272 
L 4684 1741 
L 678 1741 
L 678 2272 
z
" transform="scale(0.015625)"/>
        <path id="DejaVuSans-30" d="M 2034 4250 
Q 1547 4250 1301 3770 
Q 1056 3291 1056 2328 
Q 1056 1369 1301 889 
Q 1547 409 2034 409 
Q 2525 409 2770 889 
Q 3016 1369 3016 2328 
Q 3016 3291 2770 3770 
Q 2525 4250 2034 4250 
z
M 2034 4750 
Q 2819 4750 3233 4129 
Q 3647 3509 3647 2328 
Q 3647 1150 3233 529 
Q 2819 -91 2034 -91 
Q 1250 -91 836 529 
Q 422 1150 422 2328 
Q 422 3509 836 4129 
Q 1250 4750 2034 4750 
z
" transform="scale(0.015625)"/>
       </defs>
       <use xlink:href="#DejaVuSans-2212"/>
       <use xlink:href="#DejaVuSans-32" x="83.789062"/>
       <use xlink:href="#DejaVuSans-2e" x="147.412109"/>
       <use xlink:href="#DejaVuSans-30" x="179.199219"/>
      </g>
     </g>
    </g>
    <g id="ytick_2">
     <g id="line2d_17">
      <path d="M 52.160938 382.765137 
L 721.760938 382.765137 
" clip-path="url(#pbbd516f7b6)" style="fill: none; stroke: #b0b0b0; stroke-width: 0.8; stroke-linecap: square"/>
     </g>
     <g id="line2d_18">
      <g>
       <use xlink:href="#m66f7fc8620" x="52.160938" y="382.765137" style="stroke: #000000; stroke-width: 0.8"/>
      </g>
     </g>
     <g id="text_10">
      <!-- −1.5 -->
      <g transform="translate(20.878125 386.564356)scale(0.1 -0.1)">
       <use xlink:href="#DejaVuSans-2212"/>
       <use xlink:href="#DejaVuSans-31" x="83.789062"/>
       <use xlink:href="#DejaVuSans-2e" x="147.412109"/>
       <use xlink:href="#DejaVuSans-35" x="179.199219"/>
      </g>
     </g>
    </g>
    <g id="ytick_3">
     <g id="line2d_19">
      <path d="M 52.160938 330.043934 
L 721.760938 330.043934 
" clip-path="url(#pbbd516f7b6)" style="fill: none; stroke: #b0b0b0; stroke-width: 0.8; stroke-linecap: square"/>
     </g>
     <g id="line2d_20">
      <g>
       <use xlink:href="#m66f7fc8620" x="52.160938" y="330.043934" style="stroke: #000000; stroke-width: 0.8"/>
      </g>
     </g>
     <g id="text_11">
      <!-- −1.0 -->
      <g transform="translate(20.878125 333.843153)scale(0.1 -0.1)">
       <use xlink:href="#DejaVuSans-2212"/>
       <use xlink:href="#DejaVuSans-31" x="83.789062"/>
       <use xlink:href="#DejaVuSans-2e" x="147.412109"/>
       <use xlink:href="#DejaVuSans-30" x="179.199219"/>
      </g>
     </g>
    </g>
    <g id="ytick_4">
     <g id="line2d_21">
      <path d="M 52.160938 277.322731 
L 721.760938 277.322731 
" clip-path="url(#pbbd516f7b6)" style="fill: none; stroke: #b0b0b0; stroke-width: 0.8; stroke-linecap: square"/>
     </g>
     <g id="line2d_22">
      <g>
       <use xlink:href="#m66f7fc8620" x="52.160938" y="277.322731" style="stroke: #000000; stroke-width: 0.8"/>
      </g>
     </g>
     <g id="text_12">
      <!-- −0.5 -->
      <g transform="translate(20.878125 281.12195)scale(0.1 -0.1)">
       <use xlink:href="#DejaVuSans-2212"/>
       <use xlink:href="#DejaVuSans-30" x="83.789062"/>
       <use xlink:href="#DejaVuSans-2e" x="147.412109"/>
       <use xlink:href="#DejaVuSans-35" x="179.199219"/>
      </g>
     </g>
    </g>
    <g id="ytick_5">
     <g id="line2d_23">
      <path d="M 52.160938 224.601528 
L 721.760938 224.601528 
" clip-path="url(#pbbd516f7b6)" style="fill: none; stroke: #b0b0b0; stroke-width: 0.8; stroke-linecap: square"/>
     </g>
     <g id="line2d_24">
      <g>
       <use xlink:href="#m66f7fc8620" x="52.160938" y="224.601528" style="stroke: #000000; stroke-width: 0.8"/>
      </g>
     </g>
     <g id="text_13">
      <!-- 0.0 -->
      <g transform="translate(29.257813 228.400747)scale(0.1 -0.1)">
       <use xlink:href="#DejaVuSans-30"/>
       <use xlink:href="#DejaVuSans-2e" x="63.623047"/>
       <use xlink:href="#DejaVuSans-30" x="95.410156"/>
      </g>
     </g>
    </g>
    <g id="ytick_6">
     <g id="line2d_25">
      <path d="M 52.160938 171.880325 
L 721.760938 171.880325 
" clip-path="url(#pbbd516f7b6)" style="fill: none; stroke: #b0b0b0; stroke-width: 0.8; stroke-linecap: square"/>
     </g>
     <g id="line2d_26">
      <g>
       <use xlink:href="#m66f7fc8620" x="52.160938" y="171.880325" style="stroke: #000000; stroke-width: 0.8"/>
      </g>
     </g>
     <g id="text_14">
      <!-- 0.5 -->
      <g transform="translate(29.257813 175.679544)scale(0.1 -0.1)">
       <use xlink:href="#DejaVuSans-30"/>
       <use xlink:href="#DejaVuSans-2e" x="63.623047"/>
       <use xlink:href="#DejaVuSans-35" x="95.410156"/>
      </g>
     </g>
    </g>
    <g id="ytick_7">
     <g id="line2d_27">
      <path d="M 52.160938 119.159122 
L 721.760938 119.159122 
" clip-path="url(#pbbd516f7b6)" style="fill: none; stroke: #b0b0b0; stroke-width: 0.8; stroke-linecap: square"/>
     </g>
     <g id="line2d_28">
      <g>
       <use xlink:href="#m66f7fc8620" x="52.160938" y="119.159122" style="stroke: #000000; stroke-width: 0.8"/>
      </g>
     </g>
     <g id="text_15">
      <!-- 1.0 -->
      <g transform="translate(29.257813 122.958341)scale(0.1 -0.1)">
       <use xlink:href="#DejaVuSans-31"/>
       <use xlink:href="#DejaVuSans-2e" x="63.623047"/>
       <use xlink:href="#DejaVuSans-30" x="95.410156"/>
      </g>
     </g>
    </g>
    <g id="ytick_8">
     <g id="line2d_29">
      <path d="M 52.160938 66.437919 
L 721.760938 66.437919 
" clip-path="url(#pbbd516f7b6)" style="fill: none; stroke: #b0b0b0; stroke-width: 0.8; stroke-linecap: square"/>
     </g>
     <g id="line2d_30">
      <g>
       <use xlink:href="#m66f7fc8620" x="52.160938" y="66.437919" style="stroke: #000000; stroke-width: 0.8"/>
      </g>
     </g>
     <g id="text_16">
      <!-- 1.5 -->
      <g transform="translate(29.257813 70.237138)scale(0.1 -0.1)">
       <use xlink:href="#DejaVuSans-31"/>
       <use xlink:href="#DejaVuSans-2e" x="63.623047"/>
       <use xlink:href="#DejaVuSans-35" x="95.410156"/>
      </g>
     </g>
    </g>
    <g id="ytick_9">
     <g id="line2d_31">
      <path d="M 52.160938 13.716716 
L 721.760938 13.716716 
" clip-path="url(#pbbd516f7b6)" style="fill: none; stroke: #b0b0b0; stroke-width: 0.8; stroke-linecap: square"/>
     </g>
     <g id="line2d_32">
      <g>
       <use xlink:href="#m66f7fc8620" x="52.160938" y="13.716716" style="stroke: #000000; stroke-width: 0.8"/>
      </g>
     </g>
     <g id="text_17">
      <!-- 2.0 -->
      <g transform="translate(29.257813 17.515935)scale(0.1 -0.1)">
       <use xlink:href="#DejaVuSans-32"/>
       <use xlink:href="#DejaVuSans-2e" x="63.623047"/>
       <use xlink:href="#DejaVuSans-30" x="95.410156"/>
      </g>
     </g>
    </g>
    <g id="text_18">
     <!-- stroom [A] -->
     <g transform="translate(14.798438 251.047812)rotate(-90)scale(0.1 -0.1)">
      <defs>
       <path id="DejaVuSans-72" d="M 2631 2963 
Q 2534 3019 2420 3045 
Q 2306 3072 2169 3072 
Q 1681 3072 1420 2755 
Q 1159 2438 1159 1844 
L 1159 0 
L 581 0 
L 581 3500 
L 1159 3500 
L 1159 2956 
Q 1341 3275 1631 3429 
Q 1922 3584 2338 3584 
Q 2397 3584 2469 3576 
Q 2541 3569 2628 3553 
L 2631 2963 
z
" transform="scale(0.015625)"/>
       <path id="DejaVuSans-6f" d="M 1959 3097 
Q 1497 3097 1228 2736 
Q 959 2375 959 1747 
Q 959 1119 1226 758 
Q 1494 397 1959 397 
Q 2419 397 2687 759 
Q 2956 1122 2956 1747 
Q 2956 2369 2687 2733 
Q 2419 3097 1959 3097 
z
M 1959 3584 
Q 2709 3584 3137 3096 
Q 3566 2609 3566 1747 
Q 3566 888 3137 398 
Q 2709 -91 1959 -91 
Q 1206 -91 779 398 
Q 353 888 353 1747 
Q 353 2609 779 3096 
Q 1206 3584 1959 3584 
z
" transform="scale(0.015625)"/>
       <path id="DejaVuSans-6d" d="M 3328 2828 
Q 3544 3216 3844 3400 
Q 4144 3584 4550 3584 
Q 5097 3584 5394 3201 
Q 5691 2819 5691 2113 
L 5691 0 
L 5113 0 
L 5113 2094 
Q 5113 2597 4934 2840 
Q 4756 3084 4391 3084 
Q 3944 3084 3684 2787 
Q 3425 2491 3425 1978 
L 3425 0 
L 2847 0 
L 2847 2094 
Q 2847 2600 2669 2842 
Q 2491 3084 2119 3084 
Q 1678 3084 1418 2786 
Q 1159 2488 1159 1978 
L 1159 0 
L 581 0 
L 581 3500 
L 1159 3500 
L 1159 2956 
Q 1356 3278 1631 3431 
Q 1906 3584 2284 3584 
Q 2666 3584 2933 3390 
Q 3200 3197 3328 2828 
z
" transform="scale(0.015625)"/>
       <path id="DejaVuSans-41" d="M 2188 4044 
L 1331 1722 
L 3047 1722 
L 2188 4044 
z
M 1831 4666 
L 2547 4666 
L 4325 0 
L 3669 0 
L 3244 1197 
L 1141 1197 
L 716 0 
L 50 0 
L 1831 4666 
z
" transform="scale(0.015625)"/>
      </defs>
      <use xlink:href="#DejaVuSans-73"/>
      <use xlink:href="#DejaVuSans-74" x="52.099609"/>
      <use xlink:href="#DejaVuSans-72" x="91.308594"/>
      <use xlink:href="#DejaVuSans-6f" x="130.171875"/>
      <use xlink:href="#DejaVuSans-6f" x="191.353516"/>
      <use xlink:href="#DejaVuSans-6d" x="252.535156"/>
      <use xlink:href="#DejaVuSans-20" x="349.947266"/>
      <use xlink:href="#DejaVuSans-5b" x="381.734375"/>
      <use xlink:href="#DejaVuSans-41" x="420.748047"/>
      <use xlink:href="#DejaVuSans-5d" x="489.15625"/>
     </g>
    </g>
   </g>
   <g id="line2d_33">
    <path d="M 52.033583 154.271967 
L 52.160937 154.372611 
L 52.227897 154.593993 
L 53.834938 156.618428 
L 55.843738 159.448129 
L 58.298938 163.361182 
L 60.530938 167.3393 
L 62.762938 171.714466 
L 65.218138 176.977962 
L 67.896538 183.258026 
L 70.798138 190.70023 
L 73.253338 197.59501 
L 74.146138 200.440782 
L 74.480937 224.483183 
L 74.547898 224.429356 
L 76.378138 224.472059 
L 82.181338 224.591291 
L 83.743738 224.601528 
L 83.919645 224.295951 
L 84.103052 224.601528 
L 84.305792 224.352259 
L 84.528992 224.601528 
L 84.752192 224.381738 
L 84.975392 224.601528 
L 85.198592 224.402261 
L 85.421792 224.601528 
L 85.644992 224.417736 
L 85.868192 224.601528 
L 86.091392 224.429843 
L 86.314592 224.601528 
L 86.537792 224.439899 
L 86.760992 224.601528 
L 86.984192 224.448322 
L 87.207392 224.601528 
L 87.430592 224.455526 
L 87.653792 224.601528 
L 87.876992 224.461788 
L 88.100192 224.601528 
L 88.323392 224.467304 
L 88.546592 224.601528 
L 88.769792 224.472215 
L 88.992992 224.601528 
L 89.216192 224.476629 
L 89.439392 224.601528 
L 89.662592 224.480627 
L 89.885792 224.601528 
L 90.108992 224.484272 
L 90.332192 224.601528 
L 90.555392 224.487615 
L 90.778592 224.601528 
L 91.001792 224.490697 
L 91.224992 224.601528 
L 91.448192 224.493551 
L 91.671392 224.601528 
L 91.894592 224.496078 
L 92.117792 224.601528 
L 92.340992 224.49853 
L 92.564192 224.601528 
L 92.787392 224.500834 
L 93.010592 224.601528 
L 93.233792 224.503003 
L 93.456992 224.601528 
L 93.680192 224.505048 
L 93.903392 224.601528 
L 94.126592 224.506982 
L 94.349792 224.601528 
L 94.572992 224.508814 
L 94.796192 224.601528 
L 95.019392 224.510553 
L 95.242592 224.601528 
L 95.465792 224.512208 
L 95.688992 224.601528 
L 95.912192 224.513784 
L 96.135392 224.601528 
L 96.358592 224.51529 
L 96.581792 224.601528 
L 96.804992 224.516729 
L 97.028192 224.601528 
L 97.251392 224.518107 
L 97.474592 224.601528 
L 97.697792 224.519428 
L 97.920992 224.601528 
L 98.144192 224.520696 
L 98.367392 224.601528 
L 98.590592 224.521915 
L 98.813792 224.601528 
L 99.036992 224.523089 
L 99.260192 224.601528 
L 99.483392 224.524219 
L 99.706592 224.601528 
L 99.929792 224.525309 
L 100.152992 224.601528 
L 100.376192 224.526361 
L 100.599392 224.601528 
L 100.822592 224.527378 
L 101.045792 224.601528 
L 101.268992 224.528361 
L 101.492192 224.601528 
L 101.715392 224.529313 
L 101.938592 224.601528 
L 102.161792 224.530235 
L 102.384992 224.601528 
L 102.608192 224.531129 
L 102.831392 224.601528 
L 103.054592 224.531996 
L 103.277792 224.601528 
L 103.500992 224.532837 
L 103.724192 224.601528 
L 103.947392 224.533655 
L 104.170592 224.601528 
L 104.393792 224.53445 
L 104.616992 224.601528 
L 104.840192 224.535223 
L 105.063392 224.601528 
L 105.286592 224.535975 
L 105.509792 224.601528 
L 105.732992 224.536708 
L 105.956192 224.601528 
L 106.179392 224.537422 
L 106.402592 224.601528 
L 106.625792 224.538118 
L 106.848992 224.601528 
L 107.072192 224.538797 
L 107.295392 224.601528 
L 107.518592 224.539459 
L 107.741792 224.601528 
L 107.964992 224.540106 
L 108.188192 224.601528 
L 108.411392 224.540737 
L 108.634592 224.601528 
L 108.857792 224.541354 
L 109.080992 224.601528 
L 109.304192 224.541957 
L 109.527392 224.601528 
L 109.750592 224.542547 
L 109.973792 224.601528 
L 110.196992 224.543124 
L 110.420192 224.601528 
L 110.643392 224.543688 
L 110.866592 224.601528 
L 111.312992 224.601528 
L 111.982592 224.545313 
L 112.652192 224.601528 
L 113.321792 224.546841 
L 113.991392 224.601528 
L 114.660992 224.548284 
L 115.330592 224.601528 
L 116.000192 224.549649 
L 116.669792 224.601528 
L 117.339392 224.550943 
L 118.008992 224.601528 
L 118.678592 224.552173 
L 119.348192 224.601528 
L 120.017792 224.553345 
L 120.687392 224.601528 
L 121.356992 224.554462 
L 122.026592 224.601528 
L 122.696192 224.55553 
L 123.365792 224.601528 
L 124.035392 224.556551 
L 124.704992 224.601528 
L 125.374592 224.557531 
L 126.044192 224.601528 
L 126.713792 224.558471 
L 127.383392 224.601528 
L 128.052992 224.559374 
L 128.722592 224.601528 
L 129.392192 224.560243 
L 130.061792 224.601528 
L 130.731392 224.561081 
L 131.400992 224.601528 
L 132.070592 224.561888 
L 132.740192 224.601528 
L 133.409792 224.562667 
L 134.079392 224.601528 
L 134.748992 224.56342 
L 135.418592 224.601528 
L 136.088192 224.564148 
L 136.757792 224.601528 
L 137.427392 224.564853 
L 138.096992 224.601528 
L 138.766592 224.565535 
L 139.436192 224.601528 
L 140.105792 224.566197 
L 140.775392 224.601528 
L 141.444992 224.566838 
L 142.114592 224.601528 
L 142.784192 224.567461 
L 143.453792 224.601528 
L 144.123392 224.568066 
L 144.792992 224.601528 
L 145.462592 224.568654 
L 146.132192 224.601528 
L 146.801792 224.569226 
L 147.471392 224.601528 
L 148.140992 224.569783 
L 148.810592 224.601528 
L 149.480192 224.570324 
L 150.149792 224.601528 
L 150.819392 224.570852 
L 151.488992 224.601528 
L 152.158592 224.571366 
L 152.828192 224.601528 
L 153.497792 224.571867 
L 154.167392 224.601528 
L 154.836992 224.572356 
L 155.506592 224.601528 
L 156.176192 224.572834 
L 156.845792 224.601528 
L 157.515392 224.5733 
L 158.184992 224.601528 
L 159.077792 224.601528 
L 160.193792 224.574199 
L 161.309792 224.601528 
L 162.425792 224.574918 
L 163.541792 224.601528 
L 164.657792 224.575611 
L 165.773792 224.601528 
L 166.889792 224.576279 
L 168.005792 224.601528 
L 169.121792 224.576924 
L 170.237792 224.601528 
L 171.353792 224.577547 
L 172.469792 224.601528 
L 173.585792 224.578149 
L 174.701792 224.601528 
L 175.817792 224.578732 
L 176.933792 224.601528 
L 178.049792 224.579296 
L 179.165792 224.601528 
L 180.281792 224.579843 
L 181.397792 224.601528 
L 182.513792 224.580372 
L 183.629792 224.601528 
L 184.745792 224.580886 
L 185.861792 224.601528 
L 186.977792 224.581385 
L 188.093792 224.601528 
L 189.209792 224.58187 
L 190.325792 224.601528 
L 191.441792 224.58234 
L 192.557792 224.601528 
L 193.673792 224.582798 
L 194.789792 224.601528 
L 196.352192 224.58333 
L 197.914592 224.601528 
L 199.476992 224.583929 
L 201.039392 224.601528 
L 202.601792 224.584506 
L 204.164192 224.601528 
L 205.726592 224.585063 
L 207.288992 224.601528 
L 208.851392 224.585599 
L 210.413792 224.601528 
L 211.976192 224.586117 
L 213.538592 224.601528 
L 215.100992 224.586618 
L 216.663392 224.601528 
L 218.225792 224.587101 
L 219.788192 224.601528 
L 221.350592 224.587569 
L 222.912992 224.601528 
L 224.921792 224.588084 
L 226.930592 224.601528 
L 228.939392 224.588642 
L 230.948192 224.601528 
L 232.956992 224.589178 
L 234.965792 224.601528 
L 236.974592 224.589692 
L 238.983392 224.601528 
L 240.992192 224.590186 
L 243.000992 224.601528 
L 245.456192 224.590714 
L 247.911392 224.601528 
L 250.366592 224.591268 
L 252.821792 224.601528 
L 255.276992 224.591798 
L 257.732192 224.601528 
L 260.187392 224.592305 
L 263.088992 224.601528 
L 265.990592 224.592876 
L 268.892192 224.601528 
L 271.793792 224.593418 
L 274.695392 224.601528 
L 278.043392 224.593972 
L 281.391392 224.601528 
L 284.739392 224.594534 
L 288.087392 224.601528 
L 291.881792 224.5951 
L 295.676192 224.601528 
L 299.916992 224.595698 
L 304.157792 224.601528 
L 308.844992 224.596319 
L 313.532192 224.601528 
L 318.665792 224.596953 
L 324.245792 224.601528 
L 330.272192 224.597643 
L 336.744992 224.601528 
L 343.664192 224.598366 
L 351.476192 224.601528 
L 360.627392 224.599184 
L 371.117792 224.601528 
L 384.286592 224.600161 
L 402.473338 224.601528 
L 417.650938 224.601528 
L 417.874138 224.328701 
L 418.543738 222.900185 
L 418.704808 221.748505 
L 418.878677 221.844023 
L 419.096472 220.778615 
L 419.319672 220.644907 
L 419.542872 219.638058 
L 419.766072 219.450056 
L 419.989272 218.49304 
L 420.212472 218.264305 
L 420.435672 217.344769 
L 420.658872 217.087903 
L 420.882072 216.195938 
L 421.105272 215.91911 
L 421.328472 215.045039 
L 421.551672 214.755124 
L 421.774872 213.897688 
L 421.998072 213.594593 
L 422.221272 212.752373 
L 422.444472 212.438145 
L 422.667672 211.60948 
L 422.890872 211.285365 
L 423.114072 210.468997 
L 423.337272 210.136245 
L 423.560472 209.331056 
L 423.783672 208.990671 
L 424.006872 208.195733 
L 424.230072 207.848581 
L 424.453272 207.063101 
L 424.676472 206.70992 
L 424.899672 205.933216 
L 425.122872 205.574646 
L 425.346072 204.806129 
L 425.569272 204.442725 
L 426.015672 203.314132 
L 426.685272 201.442061 
L 426.908472 201.066846 
L 427.578072 199.213996 
L 427.801272 198.832675 
L 428.470872 196.997888 
L 428.694072 196.611553 
L 429.363672 194.793906 
L 429.586872 194.403449 
L 430.256472 192.602193 
L 430.479672 192.208359 
L 431.149272 190.422876 
L 431.372472 190.026292 
L 432.042072 188.256072 
L 432.265272 187.857271 
L 432.934872 186.101884 
L 433.158072 185.70133 
L 433.827672 183.960413 
L 434.050872 183.558506 
L 434.720472 181.831751 
L 434.943672 181.428843 
L 435.613272 179.715985 
L 435.836472 179.312389 
L 436.506072 177.613202 
L 436.729272 177.209195 
L 437.398872 175.52348 
L 437.622072 175.119311 
L 438.291672 173.446898 
L 438.961272 172.00956 
L 439.630872 170.356828 
L 440.300472 168.930062 
L 440.970072 167.296739 
L 441.639672 165.881005 
L 442.309272 164.266866 
L 442.978872 162.862574 
L 443.648472 161.267435 
L 444.318072 159.874956 
L 444.987672 158.298665 
L 445.657272 156.918334 
L 446.326872 155.360766 
L 446.996472 153.992891 
L 447.666072 152.453942 
L 448.335672 151.098803 
L 449.005272 149.578389 
L 449.674872 148.236247 
L 450.344472 146.734298 
L 451.014072 145.405392 
L 451.683672 143.921851 
L 452.353272 142.606404 
L 453.022872 141.141225 
L 453.692472 139.839446 
L 454.362072 138.392593 
L 455.031672 137.104675 
L 455.701272 135.676117 
L 456.370872 134.402243 
L 457.040472 132.991957 
L 457.710072 131.732297 
L 458.379672 130.340265 
L 459.049272 129.09498 
L 459.718872 127.721189 
L 460.388472 126.49043 
L 461.281272 124.772333 
L 462.174072 123.068894 
L 463.290072 120.897493 
L 463.959672 119.706143 
L 465.075672 117.573771 
L 465.745272 116.402459 
L 466.861272 114.309182 
L 467.530872 113.158109 
L 468.646872 111.10399 
L 469.316472 109.973341 
L 470.432472 107.958441 
L 471.102072 106.848388 
L 472.218072 104.872764 
L 472.887672 103.783465 
L 474.003672 101.847171 
L 474.673272 100.778772 
L 475.789272 98.881855 
L 476.905272 97.10788 
L 478.021272 95.260243 
L 479.137272 93.531701 
L 480.253272 91.733398 
L 481.369272 90.050513 
L 482.485272 88.301586 
L 483.601272 86.664556 
L 484.717272 84.965033 
L 485.833272 83.374029 
L 486.949272 81.723924 
L 488.065272 80.179093 
L 489.181272 78.578404 
L 490.297272 77.079866 
L 491.413272 75.52858 
L 492.529272 74.076431 
L 493.645272 72.574518 
L 494.761272 71.168831 
L 495.877272 69.716244 
L 496.993272 68.357071 
L 498.109272 66.953749 
L 499.225272 65.641117 
L 500.341272 64.286984 
L 501.457272 63.0209 
L 502.573272 61.715863 
L 503.689272 60.496312 
L 504.805272 59.240264 
L 505.921272 58.06721 
L 507.037272 56.860026 
L 508.153272 55.733413 
L 509.269272 54.574956 
L 510.385272 53.494708 
L 511.501272 52.384822 
L 513.063672 50.933428 
L 514.179672 49.8816 
L 515.742072 48.508219 
L 516.858072 47.514179 
L 518.420472 46.218515 
L 519.759672 45.12428 
L 521.098872 44.063677 
L 522.438072 43.036616 
L 523.777272 42.043002 
L 525.339672 40.906078 
L 526.902072 39.854083 
L 528.464472 38.808723 
L 530.473272 37.573058 
L 532.035672 36.631415 
L 534.044472 35.525241 
L 535.606872 34.686248 
L 538.062072 33.497238 
L 539.624472 32.772349 
L 542.526072 31.582068 
L 544.088472 30.982125 
L 552.346872 28.594812 
L 554.355672 28.177661 
L 561.498072 27.273988 
L 567.747672 27.162484 
L 573.550872 27.60772 
L 578.684472 28.430299 
L 582.032472 29.171843 
L 586.496472 30.413724 
L 590.737272 31.850162 
L 595.201272 33.623608 
L 600.111672 35.873978 
L 605.691672 38.800527 
L 609.039672 40.729606 
L 615.958872 45.13548 
L 619.083672 47.294463 
L 621.985272 49.383296 
L 631.582872 56.9132 
L 634.261272 59.164782 
L 636.939672 61.478664 
L 639.394872 63.642206 
L 654.572472 78.095342 
L 657.920472 81.507724 
L 660.375672 84.029422 
L 663.277272 87.083867 
L 665.509272 89.453512 
L 667.518072 91.592893 
L 670.419672 94.754204 
L 672.428472 96.939177 
L 674.883672 99.668265 
L 676.892472 101.889991 
L 679.347672 104.662772 
L 681.356472 106.916827 
L 683.811672 109.727897 
L 685.820472 112.009908 
L 688.275672 114.853932 
L 690.284472 117.159584 
L 692.293272 119.511524 
L 694.302072 121.834817 
L 696.310872 124.203813 
L 698.319672 126.541353 
L 700.328472 128.92402 
L 702.337272 131.272465 
L 704.346072 133.665472 
L 706.354872 136.021537 
L 708.363672 138.42161 
L 709.926072 140.252753 
L 711.934872 142.656407 
L 713.497272 144.488536 
L 715.506072 146.893278 
L 717.068472 148.724481 
L 719.077272 151.127861 
L 720.639672 152.956262 
L 721.771468 154.420068 
L 721.771468 154.420068 
" clip-path="url(#pbbd516f7b6)" style="fill: none; stroke: #1f77b4; stroke-width: 1.5; stroke-linecap: square"/>
   </g>
   <g id="line2d_34">
    <path d="M 52.033583 224.601528 
L 83.074138 224.662217 
L 83.743738 224.98076 
L 83.919645 224.601528 
L 84.103052 224.880624 
L 84.305792 224.601528 
L 84.528992 224.839059 
L 84.752192 224.601528 
L 84.975392 224.813683 
L 85.198592 224.601528 
L 85.421792 224.795336 
L 85.644992 224.601528 
L 85.868192 224.781336 
L 86.091392 224.601528 
L 86.314592 224.769962 
L 86.537792 224.601528 
L 86.760992 224.760563 
L 86.984192 224.601528 
L 87.207392 224.752613 
L 87.430592 224.601528 
L 87.653792 224.745762 
L 87.876992 224.601528 
L 88.100192 224.739771 
L 88.323392 224.601528 
L 88.546592 224.734469 
L 88.769792 224.601528 
L 88.992992 224.72973 
L 89.216192 224.601528 
L 89.439392 224.725457 
L 89.662592 224.601528 
L 89.885792 224.721577 
L 90.108992 224.601528 
L 90.332192 224.71803 
L 90.555392 224.601528 
L 90.778592 224.71477 
L 91.001792 224.601528 
L 91.224992 224.71176 
L 91.448192 224.601528 
L 91.671392 224.709073 
L 91.894592 224.601528 
L 92.117792 224.706504 
L 92.340992 224.601528 
L 92.564192 224.704092 
L 92.787392 224.601528 
L 93.010592 224.701826 
L 93.233792 224.601528 
L 93.456992 224.699693 
L 93.680192 224.601528 
L 93.903392 224.69768 
L 94.126592 224.601528 
L 94.349792 224.695774 
L 94.572992 224.601528 
L 94.796192 224.693968 
L 95.019392 224.601528 
L 95.242592 224.692251 
L 95.465792 224.601528 
L 95.688992 224.690617 
L 95.912192 224.601528 
L 96.135392 224.689059 
L 96.358592 224.601528 
L 96.581792 224.687571 
L 96.804992 224.601528 
L 97.028192 224.686148 
L 97.251392 224.601528 
L 97.474592 224.684784 
L 97.697792 224.601528 
L 97.920992 224.683476 
L 98.144192 224.601528 
L 98.367392 224.682219 
L 98.590592 224.601528 
L 98.813792 224.681011 
L 99.036992 224.601528 
L 99.260192 224.679848 
L 99.483392 224.601528 
L 99.706592 224.678727 
L 99.929792 224.601528 
L 100.152992 224.677645 
L 100.376192 224.601528 
L 100.599392 224.676601 
L 100.822592 224.601528 
L 101.045792 224.675592 
L 101.268992 224.601528 
L 101.492192 224.674615 
L 101.715392 224.601528 
L 101.938592 224.67367 
L 102.161792 224.601528 
L 102.384992 224.672754 
L 102.608192 224.601528 
L 102.831392 224.671866 
L 103.054592 224.601528 
L 103.277792 224.671004 
L 103.500992 224.601528 
L 103.724192 224.670167 
L 103.947392 224.601528 
L 104.170592 224.669354 
L 104.393792 224.601528 
L 104.616992 224.668563 
L 104.840192 224.601528 
L 105.063392 224.667794 
L 105.286592 224.601528 
L 105.509792 224.667045 
L 105.732992 224.601528 
L 105.956192 224.666316 
L 106.179392 224.601528 
L 106.402592 224.665606 
L 106.625792 224.601528 
L 106.848992 224.664913 
L 107.072192 224.601528 
L 107.295392 224.664237 
L 107.518592 224.601528 
L 107.741792 224.663577 
L 107.964992 224.601528 
L 108.188192 224.662933 
L 108.411392 224.601528 
L 108.634592 224.662304 
L 108.857792 224.601528 
L 109.080992 224.66169 
L 109.304192 224.601528 
L 109.527392 224.661089 
L 109.750592 224.601528 
L 109.973792 224.660501 
L 110.196992 224.601528 
L 110.420192 224.659926 
L 110.643392 224.601528 
L 110.866592 224.659363 
L 111.089792 224.601528 
L 111.536192 224.601528 
L 112.205792 224.657744 
L 112.875392 224.601528 
L 113.544992 224.656219 
L 114.214592 224.601528 
L 114.884192 224.65478 
L 115.553792 224.601528 
L 116.223392 224.653418 
L 116.892992 224.601528 
L 117.562592 224.652126 
L 118.232192 224.601528 
L 118.901792 224.650898 
L 119.571392 224.601528 
L 120.240992 224.649729 
L 120.910592 224.601528 
L 121.580192 224.648613 
L 122.249792 224.601528 
L 122.919392 224.647546 
L 123.588992 224.601528 
L 124.258592 224.646526 
L 124.928192 224.601528 
L 125.597792 224.645547 
L 126.267392 224.601528 
L 126.936992 224.644608 
L 127.606592 224.601528 
L 128.276192 224.643705 
L 128.945792 224.601528 
L 129.615392 224.642836 
L 130.284992 224.601528 
L 130.954592 224.641999 
L 131.624192 224.601528 
L 132.293792 224.641192 
L 132.963392 224.601528 
L 133.632992 224.640412 
L 134.302592 224.601528 
L 134.972192 224.63966 
L 135.641792 224.601528 
L 136.311392 224.638931 
L 136.980992 224.601528 
L 137.650592 224.638227 
L 138.320192 224.601528 
L 138.989792 224.637544 
L 139.659392 224.601528 
L 140.328992 224.636882 
L 140.998592 224.601528 
L 141.668192 224.63624 
L 142.337792 224.601528 
L 143.007392 224.635617 
L 143.676992 224.601528 
L 144.346592 224.635011 
L 145.016192 224.601528 
L 145.685792 224.634423 
L 146.355392 224.601528 
L 147.024992 224.633851 
L 147.694592 224.601528 
L 148.364192 224.633294 
L 149.033792 224.601528 
L 149.703392 224.632751 
L 150.372992 224.601528 
L 151.042592 224.632223 
L 151.712192 224.601528 
L 152.381792 224.631708 
L 153.051392 224.601528 
L 153.720992 224.631206 
L 154.390592 224.601528 
L 155.060192 224.630717 
L 155.729792 224.601528 
L 156.399392 224.630239 
L 157.068992 224.601528 
L 157.738592 224.629772 
L 158.408192 224.601528 
L 159.300992 224.601528 
L 160.416992 224.628871 
L 161.532992 224.601528 
L 162.648992 224.628151 
L 163.764992 224.601528 
L 164.880992 224.627457 
L 165.996992 224.601528 
L 167.112992 224.626788 
L 168.228992 224.601528 
L 169.344992 224.626142 
L 170.460992 224.601528 
L 171.576992 224.625517 
L 172.692992 224.601528 
L 173.808992 224.624914 
L 174.924992 224.601528 
L 176.040992 224.62433 
L 177.156992 224.601528 
L 178.272992 224.623764 
L 179.388992 224.601528 
L 180.504992 224.623216 
L 181.620992 224.601528 
L 182.736992 224.622685 
L 183.852992 224.601528 
L 184.968992 224.62217 
L 186.084992 224.601528 
L 187.200992 224.621669 
L 188.316992 224.601528 
L 189.432992 224.621184 
L 190.548992 224.601528 
L 191.664992 224.620712 
L 192.780992 224.601528 
L 193.896992 224.620253 
L 195.012992 224.601528 
L 196.575392 224.619719 
L 198.137792 224.601528 
L 199.700192 224.619117 
L 201.262592 224.601528 
L 202.824992 224.618538 
L 204.387392 224.601528 
L 205.949792 224.61798 
L 207.512192 224.601528 
L 209.074592 224.617441 
L 210.636992 224.601528 
L 212.199392 224.616921 
L 213.761792 224.601528 
L 215.324192 224.616419 
L 216.886592 224.601528 
L 218.448992 224.615933 
L 220.011392 224.601528 
L 221.573792 224.615464 
L 223.359392 224.615202 
L 225.368192 224.601528 
L 227.376992 224.614632 
L 229.385792 224.601528 
L 231.394592 224.614084 
L 233.403392 224.601528 
L 235.412192 224.613558 
L 237.420992 224.601528 
L 239.429792 224.613052 
L 241.438592 224.601528 
L 243.447392 224.612566 
L 245.902592 224.601528 
L 248.357792 224.611996 
L 250.812992 224.601528 
L 253.268192 224.611452 
L 255.723392 224.601528 
L 258.178592 224.610932 
L 260.633792 224.601528 
L 263.535392 224.61039 
L 266.436992 224.601528 
L 269.338592 224.609831 
L 272.240192 224.601528 
L 275.141792 224.6093 
L 278.489792 224.601528 
L 281.837792 224.608719 
L 285.185792 224.601528 
L 288.980192 224.608134 
L 292.774592 224.601528 
L 296.568992 224.607548 
L 300.809792 224.601528 
L 305.050592 224.606935 
L 309.737792 224.601528 
L 314.424992 224.606304 
L 319.558592 224.601528 
L 325.138592 224.605635 
L 331.164992 224.601528 
L 337.637792 224.604921 
L 345.003392 224.601528 
L 353.261792 224.604115 
L 362.859392 224.601528 
L 374.688992 224.603146 
L 386.960938 224.601528 
L 387.027898 224.721043 
L 390.420538 224.73101 
L 398.678938 224.770603 
L 407.830138 225.034502 
L 408.722938 225.233797 
L 408.946138 225.429115 
L 409.280937 248.729072 
L 409.303258 248.630157 
L 410.508538 245.130167 
L 417.650938 224.915361 
L 417.874138 224.601528 
L 721.771468 224.601528 
L 721.771468 224.601528 
" clip-path="url(#pbbd516f7b6)" style="fill: none; stroke: #ff7f0e; stroke-width: 1.5; stroke-linecap: square"/>
   </g>
   <g id="line2d_35">
    <path d="M 52.033583 224.601528 
L 52.495738 224.601528 
L 82.850938 224.601528 
L 83.297338 225.491036 
L 83.743738 226.472872 
L 83.919645 227.621139 
L 84.103052 227.518941 
L 84.305792 228.580034 
L 84.528992 228.678899 
L 84.752192 229.721112 
L 84.975392 229.873249 
L 85.198592 230.867982 
L 85.421792 231.057428 
L 85.644992 232.016782 
L 85.868192 232.234157 
L 86.091392 233.16586 
L 86.314592 233.405177 
L 86.537792 234.313914 
L 86.760992 234.571154 
L 86.984192 235.460537 
L 87.207392 235.73262 
L 87.430592 236.605318 
L 87.653792 236.889925 
L 87.876992 237.747979 
L 88.100192 238.043309 
L 88.323392 238.888324 
L 88.546592 239.192939 
L 88.769792 240.026208 
L 88.992992 240.338941 
L 89.216192 241.161521 
L 89.439392 241.481403 
L 89.662592 242.294175 
L 89.885792 242.620397 
L 90.108992 243.424103 
L 90.332192 243.755973 
L 90.555392 244.551245 
L 90.778592 244.888173 
L 91.001792 245.675556 
L 91.224992 246.017027 
L 91.448192 246.796994 
L 91.671392 247.142452 
L 91.894592 247.915649 
L 92.117792 248.264646 
L 92.340992 249.031264 
L 92.564192 249.383565 
L 92.787392 250.143903 
L 93.010592 250.499209 
L 93.233792 251.253548 
L 93.456992 251.611587 
L 93.903392 252.720702 
L 94.572992 254.56431 
L 94.796192 254.929155 
L 95.465792 256.756158 
L 95.688992 257.124574 
L 96.358592 258.935595 
L 96.581792 259.306947 
L 97.251392 261.102506 
L 97.474592 261.476253 
L 98.144192 263.256783 
L 98.367392 263.632459 
L 99.036992 265.398329 
L 99.260192 265.775527 
L 99.929792 267.527051 
L 100.152992 267.905412 
L 100.822592 269.642861 
L 101.045792 270.022068 
L 101.715392 271.745674 
L 101.938592 272.125445 
L 102.608192 273.83541 
L 102.831392 274.215491 
L 103.500992 275.91199 
L 103.724192 276.292153 
L 104.393792 277.97534 
L 104.616992 278.355377 
L 105.286592 280.025385 
L 105.509792 280.405108 
L 106.179392 282.062054 
L 106.402592 282.44129 
L 107.072192 284.085279 
L 107.295392 284.46387 
L 107.964992 286.094992 
L 108.188192 286.472791 
L 108.857792 288.091127 
L 109.080992 288.467999 
L 109.750592 290.07362 
L 109.973792 290.44944 
L 110.643392 292.042408 
L 110.866592 292.417059 
L 111.536192 293.99743 
L 111.759392 294.370804 
L 112.428992 295.938625 
L 112.652192 296.31062 
L 113.321792 297.865937 
L 113.544992 298.236457 
L 114.214592 299.779306 
L 114.884192 301.098887 
L 115.553792 302.623098 
L 116.223392 303.929578 
L 116.892992 305.435214 
L 117.562592 306.728363 
L 118.232192 308.215475 
L 118.901792 309.495081 
L 119.571392 310.963712 
L 120.240992 312.229575 
L 120.910592 313.67976 
L 121.580192 314.931695 
L 122.249792 316.363462 
L 122.919392 317.601291 
L 123.588992 319.014664 
L 124.258592 320.238224 
L 124.928192 321.633221 
L 125.597792 322.842356 
L 126.267392 324.218992 
L 126.936992 325.413556 
L 127.606592 326.771841 
L 128.276192 327.951696 
L 128.945792 329.29164 
L 129.615392 330.456657 
L 130.284992 331.778266 
L 130.954592 332.928321 
L 131.624192 334.231602 
L 132.293792 335.366578 
L 132.963392 336.651534 
L 133.632992 337.771323 
L 134.302592 339.037958 
L 134.972192 340.142455 
L 135.641792 341.390771 
L 136.311392 342.47988 
L 136.980992 343.70988 
L 137.650592 344.783508 
L 138.320192 345.995194 
L 138.989792 347.053255 
L 139.659392 348.24663 
L 140.328992 349.289041 
L 140.998592 350.464108 
L 141.668192 351.490793 
L 142.337792 352.647555 
L 143.007392 353.658443 
L 143.676992 354.796904 
L 144.346592 355.791926 
L 145.016192 356.912092 
L 145.685792 357.891186 
L 146.355392 358.993063 
L 147.024992 359.956169 
L 147.694592 361.039763 
L 148.364192 361.986827 
L 149.033792 363.052147 
L 149.703392 363.983119 
L 150.372992 365.030173 
L 151.042592 365.945006 
L 151.712192 366.973806 
L 152.381792 367.872457 
L 153.051392 368.883014 
L 153.720992 369.765444 
L 154.390592 370.757771 
L 155.060192 371.623945 
L 155.729792 372.598058 
L 156.399392 373.447943 
L 157.068992 374.403858 
L 157.738592 375.237427 
L 158.408192 376.175162 
L 159.077792 376.992388 
L 159.747392 377.911962 
L 160.416992 378.712825 
L 161.086592 379.61426 
L 161.756192 380.398741 
L 162.425792 381.282059 
L 163.095392 382.050143 
L 163.764992 382.915369 
L 164.434592 383.667044 
L 165.104192 384.514204 
L 165.773792 385.249461 
L 166.443392 386.078583 
L 167.112992 386.797416 
L 167.782592 387.60853 
L 168.452192 388.310935 
L 169.121792 389.104073 
L 169.791392 389.790052 
L 170.460992 390.565247 
L 171.130592 391.234801 
L 171.800192 391.992088 
L 172.469792 392.645223 
L 173.139392 393.384639 
L 173.808992 394.021365 
L 174.478592 394.742948 
L 175.148192 395.363276 
L 175.817792 396.067067 
L 176.487392 396.67101 
L 177.156992 397.357051 
L 177.826592 397.944626 
L 178.496192 398.612962 
L 179.165792 399.184189 
L 179.835392 399.834865 
L 180.504992 400.389765 
L 181.174592 401.022829 
L 181.844192 401.561427 
L 182.513792 402.176929 
L 183.183392 402.699252 
L 183.852992 403.297243 
L 184.522592 403.80332 
L 185.192192 404.383853 
L 185.861792 404.873717 
L 186.531392 405.436847 
L 187.200992 405.910531 
L 187.870592 406.456315 
L 188.540192 406.913856 
L 189.209792 407.442353 
L 189.879392 407.88379 
L 190.548992 408.39506 
L 191.218592 408.820435 
L 191.888192 409.314539 
L 192.557792 409.723895 
L 193.227392 410.200897 
L 193.896992 410.594281 
L 194.566592 411.054247 
L 195.236192 411.431706 
L 195.905792 411.874702 
L 196.575392 412.236287 
L 197.244992 412.662383 
L 197.914592 413.008146 
L 198.584192 413.417413 
L 199.253792 413.747408 
L 199.923392 414.139918 
L 200.592992 414.454202 
L 201.262592 414.830028 
L 201.932192 415.128661 
L 202.601792 415.487879 
L 203.271392 415.77092 
L 203.940992 416.113608 
L 204.610592 416.38112 
L 205.280192 416.707356 
L 205.949792 416.959404 
L 206.619392 417.269268 
L 207.288992 417.505919 
L 207.958592 417.799494 
L 208.628192 418.020816 
L 209.297792 418.298185 
L 209.967392 418.504249 
L 210.636992 418.765497 
L 211.306592 418.956375 
L 211.976192 419.201588 
L 212.645792 419.377354 
L 213.315392 419.606621 
L 213.984992 419.767352 
L 214.654592 419.980762 
L 215.324192 420.126534 
L 215.993792 420.324179 
L 216.663392 420.455072 
L 217.332992 420.637044 
L 218.448992 420.845755 
L 219.118592 421.006975 
L 220.234592 421.182687 
L 220.904192 421.323327 
L 222.020192 421.4663 
L 222.689792 421.586533 
L 223.805792 421.697033 
L 224.698592 421.792708 
L 225.591392 421.875333 
L 226.484192 421.944964 
L 227.376992 422.00166 
L 228.269792 422.045478 
L 229.385792 422.107885 
L 230.501792 422.099076 
L 231.617792 422.121179 
L 232.733792 422.073502 
L 233.849792 422.05579 
L 234.965792 421.969713 
L 236.081792 421.912687 
L 237.197792 421.788689 
L 238.313792 421.692856 
L 239.429792 421.531426 
L 240.545792 421.397305 
L 241.661792 421.198941 
L 242.777792 421.027057 
L 243.893792 420.792265 
L 245.009792 420.583153 
L 246.125792 420.312449 
L 247.241792 420.066652 
L 248.804192 419.64163 
L 249.920192 419.352536 
L 251.482592 418.8689 
L 252.598592 418.537315 
L 254.160992 417.996164 
L 255.276992 417.622906 
L 256.839392 417.025359 
L 257.955392 416.611255 
L 259.517792 415.958446 
L 260.633792 415.504337 
L 262.196192 414.797416 
L 263.535392 414.182237 
L 264.874592 413.544285 
L 266.436992 412.788757 
L 268.445792 411.733702 
L 270.008192 410.908987 
L 272.016992 409.767904 
L 273.579392 408.876185 
L 276.034592 407.377029 
L 277.596992 406.412571 
L 280.052192 404.803135 
L 281.614592 403.768764 
L 284.516192 401.737397 
L 286.524992 400.30333 
L 289.426592 398.126385 
L 291.435392 396.592945 
L 294.783392 393.91725 
L 296.792192 392.281756 
L 300.586592 389.059475 
L 303.041792 386.927457 
L 308.175392 382.27616 
L 310.630592 379.994662 
L 326.924192 363.729734 
L 330.272192 360.19991 
L 349.913792 338.423666 
L 384.732992 297.515043 
L 388.411738 292.950951 
L 390.643738 289.826889 
L 393.098938 285.915687 
L 395.330938 281.939409 
L 397.562938 277.566013 
L 400.018138 272.304543 
L 402.696538 266.026297 
L 405.598138 258.585405 
L 408.053338 251.688175 
L 408.946138 248.774816 
L 409.303258 224.601528 
L 418.543738 224.601528 
L 418.704808 224.893037 
L 418.878677 224.601528 
L 419.096472 224.833357 
L 419.319672 224.601528 
L 419.542872 224.803568 
L 419.766072 224.601528 
L 419.989272 224.781413 
L 420.212472 224.601528 
L 420.435672 224.765635 
L 420.658872 224.601528 
L 420.882072 224.753488 
L 421.105272 224.601528 
L 421.328472 224.746515 
L 421.551672 224.601528 
L 421.774872 224.73905 
L 421.998072 224.601528 
L 422.221272 224.732605 
L 422.444472 224.601528 
L 422.667672 224.726787 
L 422.890872 224.601528 
L 423.114072 224.721613 
L 423.337272 224.601528 
L 423.560472 224.716954 
L 423.783672 224.601528 
L 424.006872 224.71274 
L 424.230072 224.601528 
L 424.453272 224.708903 
L 424.676472 224.601528 
L 424.899672 224.705393 
L 425.122872 224.601528 
L 425.346072 224.702165 
L 425.569272 224.601528 
L 425.792472 224.699183 
L 426.015672 224.601528 
L 426.238872 224.696418 
L 426.462072 224.601528 
L 426.685272 224.693844 
L 426.908472 224.601528 
L 427.131672 224.69144 
L 427.354872 224.601528 
L 427.578072 224.689188 
L 427.801272 224.601528 
L 428.024472 224.687072 
L 428.247672 224.601528 
L 428.470872 224.685079 
L 428.694072 224.601528 
L 428.917272 224.683196 
L 429.140472 224.601528 
L 429.363672 224.681415 
L 429.586872 224.601528 
L 429.810072 224.679725 
L 430.033272 224.601528 
L 430.256472 224.678119 
L 430.479672 224.601528 
L 430.702872 224.676591 
L 430.926072 224.601528 
L 431.149272 224.675133 
L 431.372472 224.601528 
L 431.595672 224.67374 
L 431.818872 224.601528 
L 432.042072 224.672408 
L 432.265272 224.601528 
L 432.488472 224.671132 
L 432.711672 224.601528 
L 432.934872 224.669908 
L 433.158072 224.601528 
L 433.381272 224.668732 
L 433.604472 224.601528 
L 433.827672 224.667602 
L 434.050872 224.601528 
L 434.274072 224.666514 
L 434.497272 224.601528 
L 434.720472 224.665466 
L 434.943672 224.601528 
L 435.166872 224.664454 
L 435.390072 224.601528 
L 435.613272 224.663478 
L 435.836472 224.601528 
L 436.059672 224.662534 
L 436.282872 224.601528 
L 436.506072 224.661621 
L 436.729272 224.601528 
L 436.952472 224.660738 
L 437.175672 224.601528 
L 437.398872 224.659882 
L 437.622072 224.601528 
L 437.845272 224.659052 
L 438.291672 224.658247 
L 438.961272 224.601528 
L 439.630872 224.655969 
L 440.300472 224.601528 
L 440.970072 224.653872 
L 441.639672 224.601528 
L 442.309272 224.651933 
L 442.978872 224.601528 
L 443.648472 224.650132 
L 444.318072 224.601528 
L 444.987672 224.648452 
L 445.657272 224.601528 
L 446.326872 224.64688 
L 446.996472 224.601528 
L 447.666072 224.645403 
L 448.335672 224.601528 
L 449.005272 224.644013 
L 449.674872 224.601528 
L 450.344472 224.6427 
L 451.014072 224.601528 
L 451.683672 224.641456 
L 452.353272 224.601528 
L 453.022872 224.640277 
L 453.692472 224.601528 
L 454.362072 224.639155 
L 455.031672 224.601528 
L 455.701272 224.638086 
L 456.370872 224.601528 
L 457.040472 224.637066 
L 457.710072 224.601528 
L 458.379672 224.63609 
L 459.049272 224.601528 
L 459.718872 224.635156 
L 460.388472 224.601528 
L 461.058072 224.63426 
L 461.727672 224.601528 
L 462.397272 224.633399 
L 463.066872 224.601528 
L 463.736472 224.632572 
L 464.406072 224.601528 
L 465.075672 224.631775 
L 465.745272 224.601528 
L 466.414872 224.631007 
L 467.084472 224.601528 
L 467.754072 224.630266 
L 468.423672 224.601528 
L 469.093272 224.62955 
L 469.986072 224.629086 
L 471.102072 224.601528 
L 472.218072 224.62797 
L 473.334072 224.601528 
L 474.450072 224.626911 
L 475.566072 224.601528 
L 476.682072 224.625904 
L 477.798072 224.601528 
L 478.914072 224.624944 
L 480.030072 224.601528 
L 481.146072 224.624028 
L 482.262072 224.601528 
L 483.378072 224.623152 
L 484.494072 224.601528 
L 485.610072 224.622313 
L 486.726072 224.601528 
L 487.842072 224.621508 
L 488.958072 224.601528 
L 490.074072 224.620735 
L 491.190072 224.601528 
L 492.306072 224.619991 
L 493.868472 224.601528 
L 495.430872 224.618996 
L 496.993272 224.601528 
L 498.555672 224.618049 
L 500.118072 224.601528 
L 501.680472 224.617147 
L 503.242872 224.601528 
L 504.805272 224.616286 
L 506.367672 224.601528 
L 507.930072 224.615462 
L 509.715672 224.615006 
L 511.724472 224.601528 
L 513.733272 224.614021 
L 515.742072 224.601528 
L 517.750872 224.613085 
L 519.759672 224.601528 
L 522.214872 224.612098 
L 524.670072 224.601528 
L 527.125272 224.611069 
L 529.580472 224.601528 
L 532.482072 224.61001 
L 535.383672 224.601528 
L 538.731672 224.608847 
L 542.079672 224.601528 
L 545.874072 224.607604 
L 550.114872 224.601528 
L 554.802072 224.606163 
L 560.158872 224.605351 
L 566.631672 224.601528 
L 575.336472 224.603235 
L 590.067672 224.601528 
L 721.771468 224.601528 
L 721.771468 224.601528 
" clip-path="url(#pbbd516f7b6)" style="fill: none; stroke: #2ca02c; stroke-width: 1.5; stroke-linecap: square"/>
   </g>
   <g id="line2d_36">
    <path d="M 52.033583 224.576517 
L 52.160937 224.601528 
L 52.227897 224.484767 
L 56.290138 224.474078 
L 73.253338 224.145007 
L 73.922938 223.984385 
L 74.146138 223.849731 
L 74.480937 200.777115 
L 74.547898 201.025099 
L 82.850938 224.40251 
L 83.074138 224.601528 
L 417.874138 224.555131 
L 418.320538 224.333837 
L 418.543738 224.165955 
L 418.704808 224.601528 
L 418.878677 224.340175 
L 419.096472 224.601528 
L 419.319672 224.381504 
L 419.542872 224.601528 
L 419.766072 224.407595 
L 419.989272 224.601528 
L 420.212472 224.427744 
L 420.435672 224.601528 
L 420.658872 224.441632 
L 420.882072 224.601528 
L 421.105272 224.450996 
L 421.328472 224.601528 
L 421.551672 224.458641 
L 421.774872 224.601528 
L 421.998072 224.465885 
L 422.221272 224.601528 
L 422.444472 224.472097 
L 422.667672 224.601528 
L 422.890872 224.477692 
L 423.114072 224.601528 
L 423.337272 224.482683 
L 423.560472 224.601528 
L 423.783672 224.487189 
L 424.006872 224.601528 
L 424.230072 224.491274 
L 424.453272 224.601528 
L 424.676472 224.495002 
L 424.899672 224.601528 
L 425.122872 224.49842 
L 425.346072 224.601528 
L 425.569272 224.501569 
L 425.792472 224.601528 
L 426.015672 224.504482 
L 426.238872 224.601528 
L 426.462072 224.507188 
L 426.685272 224.601528 
L 426.908472 224.50971 
L 427.131672 224.601528 
L 427.354872 224.512068 
L 427.578072 224.601528 
L 427.801272 224.51428 
L 428.024472 224.601528 
L 428.247672 224.51636 
L 428.470872 224.601528 
L 428.694072 224.518322 
L 428.917272 224.601528 
L 429.140472 224.520176 
L 429.363672 224.601528 
L 429.586872 224.521932 
L 429.810072 224.601528 
L 430.033272 224.523599 
L 430.256472 224.601528 
L 430.479672 224.525184 
L 430.702872 224.601528 
L 430.926072 224.526694 
L 431.149272 224.601528 
L 431.372472 224.528135 
L 431.595672 224.601528 
L 431.818872 224.529512 
L 432.042072 224.601528 
L 432.265272 224.53083 
L 432.488472 224.601528 
L 432.711672 224.532093 
L 432.934872 224.601528 
L 433.158072 224.533305 
L 433.381272 224.601528 
L 433.604472 224.53447 
L 433.827672 224.601528 
L 434.050872 224.53559 
L 434.274072 224.601528 
L 434.497272 224.536669 
L 434.720472 224.601528 
L 434.943672 224.537709 
L 435.166872 224.601528 
L 435.390072 224.538713 
L 435.613272 224.601528 
L 435.836472 224.539682 
L 436.059672 224.601528 
L 436.282872 224.540619 
L 436.506072 224.601528 
L 436.729272 224.541525 
L 436.952472 224.601528 
L 437.175672 224.542403 
L 437.398872 224.601528 
L 437.622072 224.543253 
L 437.845272 224.601528 
L 438.068472 224.544078 
L 438.514872 224.544878 
L 439.184472 224.601528 
L 439.854072 224.547144 
L 440.523672 224.601528 
L 441.193272 224.54923 
L 441.862872 224.601528 
L 442.532472 224.551161 
L 443.202072 224.601528 
L 443.871672 224.552955 
L 444.541272 224.601528 
L 445.210872 224.554628 
L 445.880472 224.601528 
L 446.550072 224.556196 
L 447.219672 224.601528 
L 447.889272 224.557668 
L 448.558872 224.601528 
L 449.228472 224.559055 
L 449.898072 224.601528 
L 450.567672 224.560365 
L 451.237272 224.601528 
L 451.906872 224.561605 
L 452.576472 224.601528 
L 453.246072 224.562783 
L 453.915672 224.601528 
L 454.585272 224.563903 
L 455.254872 224.601528 
L 455.924472 224.56497 
L 456.594072 224.601528 
L 457.263672 224.565989 
L 457.933272 224.601528 
L 458.602872 224.566964 
L 459.272472 224.601528 
L 459.942072 224.567897 
L 460.611672 224.601528 
L 461.281272 224.568792 
L 461.950872 224.601528 
L 462.620472 224.569652 
L 463.290072 224.601528 
L 463.959672 224.570479 
L 464.629272 224.601528 
L 465.298872 224.571275 
L 465.968472 224.601528 
L 466.638072 224.572043 
L 467.307672 224.601528 
L 467.977272 224.572784 
L 468.646872 224.601528 
L 469.316472 224.573499 
L 470.209272 224.573963 
L 471.325272 224.601528 
L 472.441272 224.57508 
L 473.557272 224.601528 
L 474.673272 224.576139 
L 475.789272 224.601528 
L 476.905272 224.577147 
L 478.021272 224.601528 
L 479.137272 224.578107 
L 480.253272 224.601528 
L 481.369272 224.579023 
L 482.485272 224.601528 
L 483.601272 224.5799 
L 484.717272 224.601528 
L 485.833272 224.580739 
L 486.949272 224.601528 
L 488.065272 224.581545 
L 489.181272 224.601528 
L 490.297272 224.582319 
L 491.413272 224.601528 
L 492.529272 224.583063 
L 494.091672 224.601528 
L 495.654072 224.58406 
L 497.216472 224.601528 
L 498.778872 224.585008 
L 500.341272 224.601528 
L 501.903672 224.585912 
L 503.466072 224.601528 
L 505.028472 224.586774 
L 506.590872 224.601528 
L 508.153272 224.5876 
L 509.938872 224.588056 
L 511.947672 224.601528 
L 513.956472 224.589043 
L 515.965272 224.601528 
L 517.974072 224.589981 
L 519.982872 224.601528 
L 522.438072 224.59097 
L 524.893272 224.601528 
L 527.348472 224.592 
L 529.803672 224.601528 
L 532.705272 224.593062 
L 535.606872 224.601528 
L 538.954872 224.594228 
L 542.302872 224.601528 
L 546.097272 224.595474 
L 550.338072 224.601528 
L 555.025272 224.59692 
L 560.605272 224.601528 
L 567.078072 224.598703 
L 575.782872 224.601528 
L 590.960472 224.601295 
L 688.945272 224.601528 
L 691.846872 224.592273 
L 694.302072 224.601528 
L 696.757272 224.591934 
L 699.212472 224.601528 
L 701.667672 224.591603 
L 704.122872 224.601528 
L 706.578072 224.591278 
L 709.033272 224.601528 
L 711.488472 224.59096 
L 713.943672 224.601528 
L 716.398872 224.590648 
L 718.854072 224.601528 
L 721.309272 224.590342 
L 721.760938 224.601528 
L 721.771468 224.488667 
L 721.771468 224.488667 
" clip-path="url(#pbbd516f7b6)" style="fill: none; stroke: #d62728; stroke-width: 1.5; stroke-linecap: square"/>
   </g>
   <g id="patch_3">
    <path d="M 52.160938 442.08 
L 52.160938 7.2 
" style="fill: none; stroke: #000000; stroke-width: 0.8; stroke-linejoin: miter; stroke-linecap: square"/>
   </g>
   <g id="patch_4">
    <path d="M 721.760938 442.08 
L 721.760938 7.2 
" style="fill: none; stroke: #000000; stroke-width: 0.8; stroke-linejoin: miter; stroke-linecap: square"/>
   </g>
   <g id="patch_5">
    <path d="M 52.160937 442.08 
L 721.760938 442.08 
" style="fill: none; stroke: #000000; stroke-width: 0.8; stroke-linejoin: miter; stroke-linecap: square"/>
   </g>
   <g id="patch_6">
    <path d="M 52.160937 7.2 
L 721.760938 7.2 
" style="fill: none; stroke: #000000; stroke-width: 0.8; stroke-linejoin: miter; stroke-linecap: square"/>
   </g>
   <g id="legend_1">
    <g id="patch_7">
     <path d="M 261.736938 102.8736 
L 336.922875 102.8736 
Q 338.922875 102.8736 338.922875 100.8736 
L 338.922875 42.60485 
Q 338.922875 40.60485 336.922875 40.60485 
L 261.736938 40.60485 
Q 259.736938 40.60485 259.736938 42.60485 
L 259.736938 100.8736 
Q 259.736938 102.8736 261.736938 102.8736 
z
" style="fill: #ffffff; opacity: 0.8; stroke: #cccccc; stroke-linejoin: miter"/>
    </g>
    <g id="line2d_37">
     <path d="M 263.736938 48.703287 
L 273.736938 48.703287 
L 283.736938 48.703287 
" style="fill: none; stroke: #1f77b4; stroke-width: 1.5; stroke-linecap: square"/>
    </g>
    <g id="text_19">
     <!-- ic(Q_Q1) -->
     <g transform="translate(291.736938 52.203287)scale(0.1 -0.1)">
      <defs>
       <path id="DejaVuSans-63" d="M 3122 3366 
L 3122 2828 
Q 2878 2963 2633 3030 
Q 2388 3097 2138 3097 
Q 1578 3097 1268 2742 
Q 959 2388 959 1747 
Q 959 1106 1268 751 
Q 1578 397 2138 397 
Q 2388 397 2633 464 
Q 2878 531 3122 666 
L 3122 134 
Q 2881 22 2623 -34 
Q 2366 -91 2075 -91 
Q 1284 -91 818 406 
Q 353 903 353 1747 
Q 353 2603 823 3093 
Q 1294 3584 2113 3584 
Q 2378 3584 2631 3529 
Q 2884 3475 3122 3366 
z
" transform="scale(0.015625)"/>
       <path id="DejaVuSans-28" d="M 1984 4856 
Q 1566 4138 1362 3434 
Q 1159 2731 1159 2009 
Q 1159 1288 1364 580 
Q 1569 -128 1984 -844 
L 1484 -844 
Q 1016 -109 783 600 
Q 550 1309 550 2009 
Q 550 2706 781 3412 
Q 1013 4119 1484 4856 
L 1984 4856 
z
" transform="scale(0.015625)"/>
       <path id="DejaVuSans-51" d="M 2522 4238 
Q 1834 4238 1429 3725 
Q 1025 3213 1025 2328 
Q 1025 1447 1429 934 
Q 1834 422 2522 422 
Q 3209 422 3611 934 
Q 4013 1447 4013 2328 
Q 4013 3213 3611 3725 
Q 3209 4238 2522 4238 
z
M 3406 84 
L 4238 -825 
L 3475 -825 
L 2784 -78 
Q 2681 -84 2626 -87 
Q 2572 -91 2522 -91 
Q 1538 -91 948 567 
Q 359 1225 359 2328 
Q 359 3434 948 4092 
Q 1538 4750 2522 4750 
Q 3503 4750 4090 4092 
Q 4678 3434 4678 2328 
Q 4678 1516 4351 937 
Q 4025 359 3406 84 
z
" transform="scale(0.015625)"/>
       <path id="DejaVuSans-5f" d="M 3263 -1063 
L 3263 -1509 
L -63 -1509 
L -63 -1063 
L 3263 -1063 
z
" transform="scale(0.015625)"/>
       <path id="DejaVuSans-29" d="M 513 4856 
L 1013 4856 
Q 1481 4119 1714 3412 
Q 1947 2706 1947 2009 
Q 1947 1309 1714 600 
Q 1481 -109 1013 -844 
L 513 -844 
Q 928 -128 1133 580 
Q 1338 1288 1338 2009 
Q 1338 2731 1133 3434 
Q 928 4138 513 4856 
z
" transform="scale(0.015625)"/>
      </defs>
      <use xlink:href="#DejaVuSans-69"/>
      <use xlink:href="#DejaVuSans-63" x="27.783203"/>
      <use xlink:href="#DejaVuSans-28" x="82.763672"/>
      <use xlink:href="#DejaVuSans-51" x="121.777344"/>
      <use xlink:href="#DejaVuSans-5f" x="200.488281"/>
      <use xlink:href="#DejaVuSans-51" x="250.488281"/>
      <use xlink:href="#DejaVuSans-31" x="329.199219"/>
      <use xlink:href="#DejaVuSans-29" x="392.822266"/>
     </g>
    </g>
    <g id="line2d_38">
     <path d="M 263.736938 63.659537 
L 273.736938 63.659537 
L 283.736938 63.659537 
" style="fill: none; stroke: #ff7f0e; stroke-width: 1.5; stroke-linecap: square"/>
    </g>
    <g id="text_20">
     <!-- i(D1) -->
     <g transform="translate(291.736938 67.159537)scale(0.1 -0.1)">
      <defs>
       <path id="DejaVuSans-44" d="M 1259 4147 
L 1259 519 
L 2022 519 
Q 2988 519 3436 956 
Q 3884 1394 3884 2338 
Q 3884 3275 3436 3711 
Q 2988 4147 2022 4147 
L 1259 4147 
z
M 628 4666 
L 1925 4666 
Q 3281 4666 3915 4102 
Q 4550 3538 4550 2338 
Q 4550 1131 3912 565 
Q 3275 0 1925 0 
L 628 0 
L 628 4666 
z
" transform="scale(0.015625)"/>
      </defs>
      <use xlink:href="#DejaVuSans-69"/>
      <use xlink:href="#DejaVuSans-28" x="27.783203"/>
      <use xlink:href="#DejaVuSans-44" x="66.796875"/>
      <use xlink:href="#DejaVuSans-31" x="143.798828"/>
      <use xlink:href="#DejaVuSans-29" x="207.421875"/>
     </g>
    </g>
    <g id="line2d_39">
     <path d="M 263.736938 78.337662 
L 273.736938 78.337662 
L 283.736938 78.337662 
" style="fill: none; stroke: #2ca02c; stroke-width: 1.5; stroke-linecap: square"/>
    </g>
    <g id="text_21">
     <!-- ic(Q_Qp) -->
     <g transform="translate(291.736938 81.837662)scale(0.1 -0.1)">
      <defs>
       <path id="DejaVuSans-70" d="M 1159 525 
L 1159 -1331 
L 581 -1331 
L 581 3500 
L 1159 3500 
L 1159 2969 
Q 1341 3281 1617 3432 
Q 1894 3584 2278 3584 
Q 2916 3584 3314 3078 
Q 3713 2572 3713 1747 
Q 3713 922 3314 415 
Q 2916 -91 2278 -91 
Q 1894 -91 1617 61 
Q 1341 213 1159 525 
z
M 3116 1747 
Q 3116 2381 2855 2742 
Q 2594 3103 2138 3103 
Q 1681 3103 1420 2742 
Q 1159 2381 1159 1747 
Q 1159 1113 1420 752 
Q 1681 391 2138 391 
Q 2594 391 2855 752 
Q 3116 1113 3116 1747 
z
" transform="scale(0.015625)"/>
      </defs>
      <use xlink:href="#DejaVuSans-69"/>
      <use xlink:href="#DejaVuSans-63" x="27.783203"/>
      <use xlink:href="#DejaVuSans-28" x="82.763672"/>
      <use xlink:href="#DejaVuSans-51" x="121.777344"/>
      <use xlink:href="#DejaVuSans-5f" x="200.488281"/>
      <use xlink:href="#DejaVuSans-51" x="250.488281"/>
      <use xlink:href="#DejaVuSans-70" x="329.199219"/>
      <use xlink:href="#DejaVuSans-29" x="392.675781"/>
     </g>
    </g>
    <g id="line2d_40">
     <path d="M 263.736938 93.293912 
L 273.736938 93.293912 
L 283.736938 93.293912 
" style="fill: none; stroke: #d62728; stroke-width: 1.5; stroke-linecap: square"/>
    </g>
    <g id="text_22">
     <!-- i(D2) -->
     <g transform="translate(291.736938 96.793912)scale(0.1 -0.1)">
      <use xlink:href="#DejaVuSans-69"/>
      <use xlink:href="#DejaVuSans-28" x="27.783203"/>
      <use xlink:href="#DejaVuSans-44" x="66.796875"/>
      <use xlink:href="#DejaVuSans-32" x="143.798828"/>
      <use xlink:href="#DejaVuSans-29" x="207.421875"/>
     </g>
    </g>
   </g>
  </g>
 </g>
 <defs>
  <clipPath id="pbbd516f7b6">
   <rect x="52.160938" y="7.2" width="669.6" height="434.88"/>
  </clipPath>
 </defs>
</svg>