<?xml version="1.0" encoding="utf-8" standalone="no"?>
<!DOCTYPE svg PUBLIC "-//W3C//DTD SVG 1.1//EN"
  "http://www.w3.org/Graphics/SVG/1.1/DTD/svg11.dtd">
<svg xmlns:xlink="http://www.w3.org/1999/xlink" width="351.8925pt" height="258.264pt" viewBox="0 0 351.8925 258.264" xmlns="http://www.w3.org/2000/svg" version="1.1">
 <metadata>
  <rdf:RDF xmlns:dc="http://purl.org/dc/elements/1.1/" xmlns:cc="http://creativecommons.org/ns#" xmlns:rdf="http://www.w3.org/1999/02/22-rdf-syntax-ns#">
   <cc:Work>
    <dc:type rdf:resource="http://purl.org/dc/dcmitype/StillImage"/>
    <dc:date>2023-09-26T19:01:41.543193</dc:date>
    <dc:format>image/svg+xml</dc:format>
    <dc:creator>
     <cc:Agent>
      <dc:title>Matplotlib v3.6.3, https://matplotlib.org/</dc:title>
     </cc:Agent>
    </dc:creator>
   </cc:Work>
  </rdf:RDF>
 </metadata>
 <defs>
  <style type="text/css">*{stroke-linejoin: round; stroke-linecap: butt}</style>
 </defs>
 <g id="figure_1">
  <g id="patch_1">
   <path d="M 0 258.264 
L 351.8925 258.264 
L 351.8925 0 
L 0 0 
z
" style="fill: #ffffff"/>
  </g>
  <g id="axes_1">
   <g id="patch_2">
    <path d="M 54.63 60.612 
C 55.743853 60.612 56.812235 60.169462 57.599848 59.381848 
C 58.387462 58.594235 58.83 57.525853 58.83 56.412 
C 58.83 55.298147 58.387462 54.229765 57.599848 53.442152 
C 56.812235 52.654538 55.743853 52.212 54.63 52.212 
C 53.516147 52.212 52.447765 52.654538 51.660152 53.442152 
C 50.872538 54.229765 50.43 55.298147 50.43 56.412 
C 50.43 57.525853 50.872538 58.594235 51.660152 59.381848 
C 52.447765 60.169462 53.516147 60.612 54.63 60.612 
L 54.63 60.612 
z
" clip-path="url(#p3f9dbd1052)" style="fill: none; stroke: #000000; stroke-width: 2; stroke-linejoin: miter"/>
   </g>
   <g id="line2d_1">
    <path d="M 88.83 83.412 
L 88.83 68.412 
L 64.83 68.412 
L 64.83 44.412 
L 88.83 44.412 
L 88.83 29.412 
" clip-path="url(#p3f9dbd1052)" style="fill: none; stroke: #000000; stroke-width: 2; stroke-linecap: round"/>
   </g>
   <g id="line2d_2">
    <path d="M 58.83 68.412 
L 58.83 44.412 
" clip-path="url(#p3f9dbd1052)" style="fill: none; stroke: #000000; stroke-width: 2; stroke-linecap: round"/>
   </g>
   <g id="line2d_3">
    <path d="M 50.43 56.412 
L 39.63 56.412 
" clip-path="url(#p3f9dbd1052)" style="fill: none; stroke: #000000; stroke-width: 2; stroke-linecap: round"/>
   </g>
   <g id="line2d_4">
    <path d="M 39.63 56.412 
L 39.63 83.412 
L 39.63 110.412 
" clip-path="url(#p3f9dbd1052)" style="fill: none; stroke: #000000; stroke-width: 2; stroke-linecap: round"/>
   </g>
   <g id="line2d_5">
    <path d="M 39.63 110.412 
L 39.63 135.612 
L 39.63 160.812 
" clip-path="url(#p3f9dbd1052)" style="fill: none; stroke: #000000; stroke-width: 2; stroke-linecap: round"/>
   </g>
   <g id="line2d_6">
    <path d="M 88.83 187.812 
L 88.83 172.812 
L 64.83 172.812 
L 64.83 148.812 
L 88.83 148.812 
L 88.83 133.812 
" clip-path="url(#p3f9dbd1052)" style="fill: none; stroke: #000000; stroke-width: 2; stroke-linecap: round"/>
   </g>
   <g id="line2d_7">
    <path d="M 58.83 172.812 
L 58.83 148.812 
" clip-path="url(#p3f9dbd1052)" style="fill: none; stroke: #000000; stroke-width: 2; stroke-linecap: round"/>
   </g>
   <g id="line2d_8">
    <path d="M 58.83 160.812 
L 39.63 160.812 
" clip-path="url(#p3f9dbd1052)" style="fill: none; stroke: #000000; stroke-width: 2; stroke-linecap: round"/>
   </g>
   <g id="line2d_9">
    <path d="M 88.83 29.412 
L 88.83 15.012 
" clip-path="url(#p3f9dbd1052)" style="fill: none; stroke: #000000; stroke-width: 2; stroke-linecap: round"/>
   </g>
   <g id="line2d_10">
    <path d="M 88.83 15.012 
L 82.08 15.012 
" clip-path="url(#p3f9dbd1052)" style="fill: none; stroke: #000000; stroke-width: 2; stroke-linecap: round"/>
   </g>
   <g id="line2d_11">
    <path d="M 88.83 15.012 
L 95.58 15.012 
" clip-path="url(#p3f9dbd1052)" style="fill: none; stroke: #000000; stroke-width: 2; stroke-linecap: round"/>
   </g>
   <g id="line2d_12">
    <path d="M 39.63 110.412 
L 30.63 110.412 
L 21.63 110.412 
" clip-path="url(#p3f9dbd1052)" style="fill: none; stroke: #000000; stroke-width: 2; stroke-linecap: round"/>
   </g>
   <g id="line2d_13">
    <path d="M 88.83 83.412 
L 88.83 97.812 
L 88.83 112.212 
" clip-path="url(#p3f9dbd1052)" style="fill: none; stroke: #000000; stroke-width: 2; stroke-linecap: round"/>
   </g>
   <g id="line2d_14">
    <path d="M 88.83 112.212 
L 124.83 112.212 
L 124.96407 109.247813 
L 125.37176 106.256893 
L 126.044001 103.490083 
L 126.949538 101.179432 
L 127.474567 100.257692 
L 128.037547 99.518729 
L 128.629767 98.978119 
L 129.241902 98.647256 
L 129.864207 98.533116 
L 130.48672 98.638102 
L 131.099478 98.960004 
L 131.692723 99.492035 
L 132.257106 100.222982 
L 132.783888 101.137436 
L 133.693825 103.436309 
L 134.371342 106.19585 
L 134.78474 109.18462 
L 134.924472 112.151957 
L 134.803942 114.848994 
L 134.458382 117.049535 
L 133.941898 118.569024 
L 133.640537 119.030989 
L 133.322928 119.280023 
L 132.998923 119.310878 
L 132.678509 119.122903 
L 132.371597 118.72006 
L 131.836292 117.308085 
L 131.463029 115.193374 
L 131.308236 112.553284 
L 131.410019 109.609236 
L 131.784963 106.608142 
L 132.426748 103.8017 
L 133.306671 101.425281 
L 133.821402 100.462506 
L 134.376057 99.678192 
L 134.962102 99.088869 
L 135.570342 98.706959 
L 136.191113 98.540513 
L 136.814487 98.593038 
L 137.430482 98.863428 
L 138.029271 99.345983 
L 138.60139 100.030532 
L 139.137935 100.902645 
L 140.072621 103.132471 
L 140.78006 105.848447 
L 141.226046 108.822789 
L 141.398297 111.806044 
L 141.30749 114.54801 
L 140.986365 116.818723 
L 140.486977 118.427742 
L 140.190936 118.939431 
L 139.876332 119.24012 
L 139.552952 119.323471 
L 139.230768 119.187725 
L 138.919731 118.835746 
L 138.629551 118.274952 
L 138.148228 116.578352 
L 137.852289 114.240218 
L 137.791678 111.456645 
L 137.996602 108.461087 
L 138.474998 105.504776 
L 139.211866 102.835655 
L 140.170531 100.677578 
L 140.716371 99.848862 
L 141.295713 99.21154 
L 141.899502 98.779045 
L 142.518169 98.560495 
L 143.141831 98.560495 
L 143.760498 98.779045 
L 144.364287 99.21154 
L 144.943629 99.848862 
L 145.489469 100.677578 
L 145.99346 101.68022 
L 146.847065 104.119527 
L 147.457979 106.962202 
L 147.800087 109.969835 
L 147.869821 112.890178 
L 147.686457 115.478309 
L 147.290496 117.517163 
L 146.740269 118.835746 
L 146.429232 119.187725 
L 146.107048 119.323471 
L 145.783668 119.24012 
L 145.469064 118.939431 
L 145.173023 118.427742 
L 144.673635 116.818723 
L 144.35251 114.54801 
L 144.261703 111.806044 
L 144.433954 108.822789 
L 144.87994 105.848447 
L 145.587379 103.132471 
L 146.522065 100.902645 
L 147.05861 100.030532 
L 147.630729 99.345983 
L 148.229518 98.863428 
L 148.845513 98.593038 
L 149.468887 98.540513 
L 150.089658 98.706959 
L 150.697898 99.088869 
L 151.283943 99.678192 
L 151.838598 100.462506 
L 152.353329 101.425281 
L 153.233252 103.8017 
L 153.875037 106.608142 
L 154.249981 109.609236 
L 154.351764 112.553284 
L 154.196971 115.193374 
L 153.823708 117.308085 
L 153.288403 118.72006 
L 152.981491 119.122903 
L 152.661077 119.310878 
L 152.337072 119.280023 
L 152.019463 119.030989 
L 151.718102 118.569024 
L 151.201618 117.049535 
L 150.856058 114.848994 
L 150.735528 112.151957 
L 150.87526 109.18462 
L 151.288658 106.19585 
L 151.966175 103.436309 
L 152.876112 101.137436 
L 153.402894 100.222982 
L 153.967277 99.492035 
L 154.560522 98.960004 
L 155.17328 98.638102 
L 155.795793 98.533116 
L 156.418098 98.647256 
L 157.030233 98.978119 
L 157.622453 99.518729 
L 158.185433 100.257692 
L 158.710462 101.179432 
L 159.615999 103.490083 
L 160.28824 106.256893 
L 160.69593 109.247813 
L 160.83 112.212 
L 196.83 112.212 
L 196.83 112.212 
" clip-path="url(#p3f9dbd1052)" style="fill: none; stroke: #000000; stroke-width: 2; stroke-linecap: round"/>
   </g>
   <g id="line2d_15">
    <path d="M 88.83 112.212 
L 88.83 126.612 
L 88.83 141.012 
" clip-path="url(#p3f9dbd1052)" style="fill: none; stroke: #000000; stroke-width: 2; stroke-linecap: round"/>
   </g>
   <g id="line2d_16">
    <path d="M 196.83 112.212 
L 247.59 112.212 
M 247.59 103.212 
L 247.59 121.212 
M 254.07 103.212 
L 254.07 121.212 
M 254.07 112.212 
L 304.83 112.212 
" clip-path="url(#p3f9dbd1052)" style="fill: none; stroke: #000000; stroke-width: 2; stroke-linecap: round"/>
   </g>
   <g id="line2d_17">
    <path d="M 304.83 112.212 
L 304.83 148.212 
L 313.83 151.212 
L 295.83 157.212 
L 313.83 163.212 
L 295.83 169.212 
L 313.83 175.212 
L 295.83 181.212 
L 304.83 184.212 
L 304.83 220.212 
" clip-path="url(#p3f9dbd1052)" style="fill: none; stroke: #000000; stroke-width: 2; stroke-linecap: round"/>
   </g>
   <g id="line2d_18">
    <path d="M 304.83 112.212 
L 313.83 112.212 
L 322.83 112.212 
" clip-path="url(#p3f9dbd1052)" style="fill: none; stroke: #000000; stroke-width: 2; stroke-linecap: round"/>
   </g>
   <g id="line2d_19">
    <path d="M 304.83 220.212 
L 313.83 220.212 
L 322.83 220.212 
" clip-path="url(#p3f9dbd1052)" style="fill: none; stroke: #000000; stroke-width: 2; stroke-linecap: round"/>
   </g>
   <g id="line2d_20">
    <path d="M 304.83 220.212 
L 196.83 220.212 
L 88.83 220.212 
" clip-path="url(#p3f9dbd1052)" style="fill: none; stroke: #000000; stroke-width: 2; stroke-linecap: round"/>
   </g>
   <g id="line2d_21">
    <path d="M 88.83 220.212 
L 88.83 234.612 
L 79.83 234.612 
L 97.83 234.612 
M 82.53 238.932 
L 95.13 238.932 
M 87.03 243.252 
L 90.63 243.252 
" clip-path="url(#p3f9dbd1052)" style="fill: none; stroke: #000000; stroke-width: 2; stroke-linecap: round"/>
   </g>
   <g id="line2d_22">
    <path d="M 88.83 220.212 
L 88.83 204.012 
L 88.83 187.812 
" clip-path="url(#p3f9dbd1052)" style="fill: none; stroke: #000000; stroke-width: 2; stroke-linecap: round"/>
   </g>
   <g id="text_1">
    <!-- $L_1$ -->
    <g transform="translate(136.3925 92.333506) scale(0.125 -0.125)">
     <defs>
      <path id="DejaVuSans-Oblique-4c" d="M 1075 4666 
L 1709 4666 
L 909 525 
L 3181 525 
L 3078 0 
L 172 0 
L 1075 4666 
z
" transform="scale(0.015625)"/>
      <path id="DejaVuSans-31" d="M 794 531 
L 1825 531 
L 1825 4091 
L 703 3866 
L 703 4441 
L 1819 4666 
L 2450 4666 
L 2450 531 
L 3481 531 
L 3481 0 
L 794 0 
L 794 531 
z
" transform="scale(0.015625)"/>
     </defs>
     <use xlink:href="#DejaVuSans-Oblique-4c" transform="translate(0 0.09375)"/>
     <use xlink:href="#DejaVuSans-31" transform="translate(55.712891 -16.3125) scale(0.7)"/>
    </g>
   </g>
   <g id="text_2">
    <!-- $C_1$ -->
    <g transform="translate(243.455 97.012391) scale(0.125 -0.125)">
     <defs>
      <path id="DejaVuSans-Oblique-43" d="M 4447 4306 
L 4319 3641 
Q 4019 3944 3683 4091 
Q 3347 4238 2956 4238 
Q 2422 4238 2017 3981 
Q 1613 3725 1319 3200 
Q 1131 2863 1032 2486 
Q 934 2109 934 1728 
Q 934 1091 1264 756 
Q 1594 422 2222 422 
Q 2656 422 3056 561 
Q 3456 700 3834 978 
L 3688 231 
Q 3316 72 2936 -9 
Q 2556 -91 2175 -91 
Q 1278 -91 773 396 
Q 269 884 269 1753 
Q 269 2309 461 2846 
Q 653 3384 1013 3828 
Q 1394 4300 1883 4525 
Q 2372 4750 3022 4750 
Q 3422 4750 3780 4639 
Q 4138 4528 4447 4306 
z
" transform="scale(0.015625)"/>
     </defs>
     <use xlink:href="#DejaVuSans-Oblique-43" transform="translate(0 0.78125)"/>
     <use xlink:href="#DejaVuSans-31" transform="translate(69.824219 -15.625) scale(0.7)"/>
    </g>
   </g>
   <g id="text_3">
    <!-- $R_L$ -->
    <g transform="translate(278.23 169.661219) scale(0.125 -0.125)">
     <defs>
      <path id="DejaVuSans-Oblique-52" d="M 1613 4147 
L 1294 2491 
L 2106 2491 
Q 2584 2491 2879 2755 
Q 3175 3019 3175 3444 
Q 3175 3784 2976 3965 
Q 2778 4147 2406 4147 
L 1613 4147 
z
M 2772 2241 
Q 2972 2194 3105 2009 
Q 3238 1825 3413 1275 
L 3809 0 
L 3144 0 
L 2778 1197 
Q 2638 1659 2453 1815 
Q 2269 1972 1888 1972 
L 1191 1972 
L 806 0 
L 172 0 
L 1081 4666 
L 2503 4666 
Q 3150 4666 3495 4373 
Q 3841 4081 3841 3531 
Q 3841 3044 3547 2687 
Q 3253 2331 2772 2241 
z
" transform="scale(0.015625)"/>
     </defs>
     <use xlink:href="#DejaVuSans-Oblique-52" transform="translate(0 0.09375)"/>
     <use xlink:href="#DejaVuSans-Oblique-4c" transform="translate(69.482422 -16.3125) scale(0.7)"/>
    </g>
   </g>
   <g id="text_4">
    <!-- - -->
    <g transform="translate(334.975117 142.661219) scale(0.125 -0.125)">
     <defs>
      <path id="DejaVuSans-2d" d="M 313 2009 
L 1997 2009 
L 1997 1497 
L 313 1497 
L 313 2009 
z
" transform="scale(0.015625)"/>
     </defs>
     <use xlink:href="#DejaVuSans-2d"/>
    </g>
   </g>
   <g id="text_5">
    <!-- $v_{out}$ -->
    <g transform="translate(326.1675 169.661219) scale(0.125 -0.125)">
     <defs>
      <path id="DejaVuSans-Oblique-76" d="M 459 3500 
L 1069 3500 
L 1581 525 
L 3256 3500 
L 3866 3500 
L 1875 0 
L 1100 0 
L 459 3500 
z
" transform="scale(0.015625)"/>
      <path id="DejaVuSans-Oblique-6f" d="M 1625 -91 
Q 1009 -91 651 289 
Q 294 669 294 1325 
Q 294 1706 417 2101 
Q 541 2497 738 2766 
Q 1047 3184 1428 3384 
Q 1809 3584 2291 3584 
Q 2888 3584 3255 3212 
Q 3622 2841 3622 2241 
Q 3622 1825 3500 1412 
Q 3378 1000 3181 728 
Q 2875 309 2494 109 
Q 2113 -91 1625 -91 
z
M 891 1344 
Q 891 869 1089 633 
Q 1288 397 1691 397 
Q 2269 397 2648 901 
Q 3028 1406 3028 2181 
Q 3028 2634 2825 2865 
Q 2622 3097 2228 3097 
Q 1903 3097 1650 2945 
Q 1397 2794 1197 2484 
Q 1050 2253 970 1956 
Q 891 1659 891 1344 
z
" transform="scale(0.015625)"/>
      <path id="DejaVuSans-Oblique-75" d="M 428 1388 
L 838 3500 
L 1416 3500 
L 1006 1409 
Q 975 1256 961 1147 
Q 947 1038 947 966 
Q 947 700 1109 554 
Q 1272 409 1569 409 
Q 2031 409 2368 721 
Q 2706 1034 2809 1563 
L 3194 3500 
L 3769 3500 
L 3091 0 
L 2516 0 
L 2631 550 
Q 2388 244 2052 76 
Q 1716 -91 1338 -91 
Q 878 -91 622 161 
Q 366 413 366 863 
Q 366 956 381 1097 
Q 397 1238 428 1388 
z
" transform="scale(0.015625)"/>
      <path id="DejaVuSans-Oblique-74" d="M 2706 3500 
L 2619 3053 
L 1472 3053 
L 1100 1153 
Q 1081 1047 1072 975 
Q 1063 903 1063 863 
Q 1063 663 1183 572 
Q 1303 481 1569 481 
L 2150 481 
L 2053 0 
L 1503 0 
Q 991 0 739 200 
Q 488 400 488 806 
Q 488 878 497 964 
Q 506 1050 525 1153 
L 897 3053 
L 409 3053 
L 500 3500 
L 978 3500 
L 1172 4494 
L 1747 4494 
L 1556 3500 
L 2706 3500 
z
" transform="scale(0.015625)"/>
     </defs>
     <use xlink:href="#DejaVuSans-Oblique-76" transform="translate(0 0.3125)"/>
     <use xlink:href="#DejaVuSans-Oblique-6f" transform="translate(59.179688 -16.09375) scale(0.7)"/>
     <use xlink:href="#DejaVuSans-Oblique-75" transform="translate(102.006836 -16.09375) scale(0.7)"/>
     <use xlink:href="#DejaVuSans-Oblique-74" transform="translate(146.37207 -16.09375) scale(0.7)"/>
    </g>
   </g>
   <g id="text_6">
    <!-- $+$ -->
    <g transform="translate(331.98 196.661219) scale(0.125 -0.125)">
     <defs>
      <path id="DejaVuSans-2b" d="M 2944 4013 
L 2944 2272 
L 4684 2272 
L 4684 1741 
L 2944 1741 
L 2944 0 
L 2419 0 
L 2419 1741 
L 678 1741 
L 678 2272 
L 2419 2272 
L 2419 4013 
L 2944 4013 
z
" transform="scale(0.015625)"/>
     </defs>
     <use xlink:href="#DejaVuSans-2b" transform="translate(0 0.296875)"/>
    </g>
   </g>
   <g id="patch_3">
    <path d="M 39.63 113.112 
C 40.346048 113.112 41.032866 112.827511 41.539188 112.321188 
C 42.045511 111.814866 42.33 111.128048 42.33 110.412 
C 42.33 109.695952 42.045511 109.009134 41.539188 108.502812 
C 41.032866 107.996489 40.346048 107.712 39.63 107.712 
C 38.913952 107.712 38.227134 107.996489 37.720812 108.502812 
C 37.214489 109.009134 36.93 109.695952 36.93 110.412 
C 36.93 111.128048 37.214489 111.814866 37.720812 112.321188 
C 38.227134 112.827511 38.913952 113.112 39.63 113.112 
z
" clip-path="url(#p3f9dbd1052)" style="stroke: #000000; stroke-width: 2; stroke-linejoin: miter"/>
   </g>
   <g id="patch_4">
    <path d="M 21.63 113.112 
C 22.346048 113.112 23.032866 112.827511 23.539188 112.321188 
C 24.045511 111.814866 24.33 111.128048 24.33 110.412 
C 24.33 109.695952 24.045511 109.009134 23.539188 108.502812 
C 23.032866 107.996489 22.346048 107.712 21.63 107.712 
C 20.913952 107.712 20.227134 107.996489 19.720812 108.502812 
C 19.214489 109.009134 18.93 109.695952 18.93 110.412 
C 18.93 111.128048 19.214489 111.814866 19.720812 112.321188 
C 20.227134 112.827511 20.913952 113.112 21.63 113.112 
z
" clip-path="url(#p3f9dbd1052)" style="fill: #ffffff; stroke: #000000; stroke-width: 2; stroke-linejoin: miter"/>
   </g>
   <g id="text_7">
    <!-- $V_{in}$ -->
    <g transform="translate(13.1925 101.512391) scale(0.125 -0.125)">
     <defs>
      <path id="DejaVuSans-Oblique-56" d="M 1319 0 
L 500 4666 
L 1119 4666 
L 1797 653 
L 4063 4666 
L 4750 4666 
L 2053 0 
L 1319 0 
z
" transform="scale(0.015625)"/>
      <path id="DejaVuSans-Oblique-69" d="M 1172 4863 
L 1747 4863 
L 1606 4134 
L 1031 4134 
L 1172 4863 
z
M 909 3500 
L 1484 3500 
L 800 0 
L 225 0 
L 909 3500 
z
" transform="scale(0.015625)"/>
      <path id="DejaVuSans-Oblique-6e" d="M 3566 2113 
L 3156 0 
L 2578 0 
L 2988 2091 
Q 3016 2238 3031 2350 
Q 3047 2463 3047 2528 
Q 3047 2791 2881 2937 
Q 2716 3084 2419 3084 
Q 1956 3084 1622 2776 
Q 1288 2469 1184 1941 
L 800 0 
L 225 0 
L 903 3500 
L 1478 3500 
L 1363 2950 
Q 1603 3253 1940 3418 
Q 2278 3584 2650 3584 
Q 3113 3584 3367 3334 
Q 3622 3084 3622 2631 
Q 3622 2519 3608 2391 
Q 3594 2263 3566 2113 
z
" transform="scale(0.015625)"/>
     </defs>
     <use xlink:href="#DejaVuSans-Oblique-56" transform="translate(0 0.09375)"/>
     <use xlink:href="#DejaVuSans-Oblique-69" transform="translate(68.408203 -16.3125) scale(0.7)"/>
     <use xlink:href="#DejaVuSans-Oblique-6e" transform="translate(87.856445 -16.3125) scale(0.7)"/>
    </g>
   </g>
   <g id="patch_5">
    <path d="M 88.83 114.912 
C 89.546048 114.912 90.232866 114.627511 90.739188 114.121188 
C 91.245511 113.614866 91.53 112.928048 91.53 112.212 
C 91.53 111.495952 91.245511 110.809134 90.739188 110.302812 
C 90.232866 109.796489 89.546048 109.512 88.83 109.512 
C 88.113952 109.512 87.427134 109.796489 86.920812 110.302812 
C 86.414489 110.809134 86.13 111.495952 86.13 112.212 
C 86.13 112.928048 86.414489 113.614866 86.920812 114.121188 
C 87.427134 114.627511 88.113952 114.912 88.83 114.912 
z
" clip-path="url(#p3f9dbd1052)" style="stroke: #000000; stroke-width: 2; stroke-linejoin: miter"/>
   </g>
   <g id="patch_6">
    <path d="M 322.83 114.912 
C 323.546048 114.912 324.232866 114.627511 324.739188 114.121188 
C 325.245511 113.614866 325.53 112.928048 325.53 112.212 
C 325.53 111.495952 325.245511 110.809134 324.739188 110.302812 
C 324.232866 109.796489 323.546048 109.512 322.83 109.512 
C 322.113952 109.512 321.427134 109.796489 320.920812 110.302812 
C 320.414489 110.809134 320.13 111.495952 320.13 112.212 
C 320.13 112.928048 320.414489 113.614866 320.920812 114.121188 
C 321.427134 114.627511 322.113952 114.912 322.83 114.912 
z
" clip-path="url(#p3f9dbd1052)" style="fill: #ffffff; stroke: #000000; stroke-width: 2; stroke-linejoin: miter"/>
   </g>
   <g id="patch_7">
    <path d="M 322.83 222.912 
C 323.546048 222.912 324.232866 222.627511 324.739188 222.121188 
C 325.245511 221.614866 325.53 220.928048 325.53 220.212 
C 325.53 219.495952 325.245511 218.809134 324.739188 218.302812 
C 324.232866 217.796489 323.546048 217.512 322.83 217.512 
C 322.113952 217.512 321.427134 217.796489 320.920812 218.302812 
C 320.414489 218.809134 320.13 219.495952 320.13 220.212 
C 320.13 220.928048 320.414489 221.614866 320.920812 222.121188 
C 321.427134 222.627511 322.113952 222.912 322.83 222.912 
z
" clip-path="url(#p3f9dbd1052)" style="fill: #ffffff; stroke: #000000; stroke-width: 2; stroke-linejoin: miter"/>
   </g>
   <g id="patch_8">
    <path d="M 88.83 222.912 
C 89.546048 222.912 90.232866 222.627511 90.739188 222.121188 
C 91.245511 221.614866 91.53 220.928048 91.53 220.212 
C 91.53 219.495952 91.245511 218.809134 90.739188 218.302812 
C 90.232866 217.796489 89.546048 217.512 88.83 217.512 
C 88.113952 217.512 87.427134 217.796489 86.920812 218.302812 
C 86.414489 218.809134 86.13 219.495952 86.13 220.212 
C 86.13 220.928048 86.414489 221.614866 86.920812 222.121188 
C 87.427134 222.627511 88.113952 222.912 88.83 222.912 
z
" clip-path="url(#p3f9dbd1052)" style="stroke: #000000; stroke-width: 2; stroke-linejoin: miter"/>
   </g>
  </g>
 </g>
 <defs>
  <clipPath id="p3f9dbd1052">
   <rect x="3.6" y="3.6" width="337.26" height="251.064"/>
  </clipPath>
 </defs>
</svg>