<?xml version="1.0" encoding="utf-8" standalone="no"?>
<!DOCTYPE svg PUBLIC "-//W3C//DTD SVG 1.1//EN"
  "http://www.w3.org/Graphics/SVG/1.1/DTD/svg11.dtd">
<svg xmlns:xlink="http://www.w3.org/1999/xlink" width="356.67pt" height="184.014pt" viewBox="0 0 356.67 184.014" xmlns="http://www.w3.org/2000/svg" version="1.1">
 <metadata>
  <rdf:RDF xmlns:dc="http://purl.org/dc/elements/1.1/" xmlns:cc="http://creativecommons.org/ns#" xmlns:rdf="http://www.w3.org/1999/02/22-rdf-syntax-ns#">
   <cc:Work>
    <dc:type rdf:resource="http://purl.org/dc/dcmitype/StillImage"/>
    <dc:date>2023-09-25T22:00:58.448196</dc:date>
    <dc:format>image/svg+xml</dc:format>
    <dc:creator>
     <cc:Agent>
      <dc:title>Matplotlib v3.6.3, https://matplotlib.org/</dc:title>
     </cc:Agent>
    </dc:creator>
   </cc:Work>
  </rdf:RDF>
 </metadata>
 <defs>
  <style type="text/css">*{stroke-linejoin: round; stroke-linecap: butt}</style>
 </defs>
 <g id="figure_1">
  <g id="patch_1">
   <path d="M 0 184.014 
L 356.67 184.014 
L 356.67 0 
L 0 0 
z
" style="fill: #ffffff"/>
  </g>
  <g id="axes_1">
   <g id="line2d_1">
    <path d="M 172.485 95.337 
L 172.485 110.337 
L 196.485 110.337 
L 196.485 134.337 
L 172.485 134.337 
L 172.485 149.337 
" clip-path="url(#p38c0113077)" style="fill: none; stroke: #000000; stroke-width: 2; stroke-linecap: round"/>
   </g>
   <g id="line2d_2">
    <path d="M 202.485 110.337 
L 202.485 134.337 
" clip-path="url(#p38c0113077)" style="fill: none; stroke: #000000; stroke-width: 2; stroke-linecap: round"/>
   </g>
   <g id="line2d_3">
    <path d="M 202.485 122.337 
L 221.685 122.337 
" clip-path="url(#p38c0113077)" style="fill: none; stroke: #000000; stroke-width: 2; stroke-linecap: round"/>
   </g>
   <g id="line2d_4">
    <path d="M 172.485 149.337 
L 172.485 163.737 
L 163.485 163.737 
L 181.485 163.737 
M 166.185 168.057 
L 178.785 168.057 
M 170.685 172.377 
L 174.285 172.377 
" clip-path="url(#p38c0113077)" style="fill: none; stroke: #000000; stroke-width: 2; stroke-linecap: round"/>
   </g>
   <g id="line2d_5">
    <path d="M 172.485 95.337 
L 172.485 81.837 
L 172.485 68.337 
" clip-path="url(#p38c0113077)" style="fill: none; stroke: #000000; stroke-width: 2; stroke-linecap: round"/>
   </g>
   <g id="line2d_6">
    <path d="M 172.485 68.337 
L 158.985 68.337 
L 145.485 68.337 
" clip-path="url(#p38c0113077)" style="fill: none; stroke: #000000; stroke-width: 2; stroke-linecap: round"/>
   </g>
   <g id="line2d_7">
    <path d="M 145.485 68.337 
L 145.485 53.337 
L 121.485 53.337 
L 121.485 29.337 
L 145.485 29.337 
L 145.485 14.337 
" clip-path="url(#p38c0113077)" style="fill: none; stroke: #000000; stroke-width: 2; stroke-linecap: round"/>
   </g>
   <g id="line2d_8">
    <path d="M 115.485 53.337 
L 115.485 29.337 
" clip-path="url(#p38c0113077)" style="fill: none; stroke: #000000; stroke-width: 2; stroke-linecap: round"/>
   </g>
   <g id="line2d_9">
    <path d="M 115.485 41.337 
L 96.285 41.337 
" clip-path="url(#p38c0113077)" style="fill: none; stroke: #000000; stroke-width: 2; stroke-linecap: round"/>
   </g>
   <g id="line2d_10">
    <path d="M 145.485 41.337 
L 130.485 41.337 
" clip-path="url(#p38c0113077)" style="fill: none; stroke: #000000; stroke-width: 2; stroke-linecap: round"/>
   </g>
   <g id="patch_2">
    <path d="M 130.485 44.937 
L 121.485 41.337 
L 130.485 37.737 
z
" clip-path="url(#p38c0113077)"/>
   </g>
   <g id="line2d_11">
    <path d="M 199.485 14.337 
L 199.485 29.337 
L 223.485 29.337 
L 223.485 53.337 
L 199.485 53.337 
L 199.485 68.337 
" clip-path="url(#p38c0113077)" style="fill: none; stroke: #000000; stroke-width: 2; stroke-linecap: round"/>
   </g>
   <g id="line2d_12">
    <path d="M 229.485 29.337 
L 229.485 53.337 
" clip-path="url(#p38c0113077)" style="fill: none; stroke: #000000; stroke-width: 2; stroke-linecap: round"/>
   </g>
   <g id="line2d_13">
    <path d="M 229.485 41.337 
L 248.685 41.337 
" clip-path="url(#p38c0113077)" style="fill: none; stroke: #000000; stroke-width: 2; stroke-linecap: round"/>
   </g>
   <g id="line2d_14">
    <path d="M 199.485 41.337 
L 214.485 41.337 
" clip-path="url(#p38c0113077)" style="fill: none; stroke: #000000; stroke-width: 2; stroke-linecap: round"/>
   </g>
   <g id="patch_3">
    <path d="M 214.485 37.737 
L 223.485 41.337 
L 214.485 44.937 
z
" clip-path="url(#p38c0113077)"/>
   </g>
   <g id="line2d_15">
    <path d="M 199.485 68.337 
L 185.985 68.337 
L 172.485 68.337 
" clip-path="url(#p38c0113077)" style="fill: none; stroke: #000000; stroke-width: 2; stroke-linecap: round"/>
   </g>
   <g id="line2d_16">
    <path d="M 28.485 23.337 
L 28.485 41.337 
L 28.485 59.337 
" clip-path="url(#p38c0113077)" style="fill: none; stroke: #000000; stroke-width: 2; stroke-linecap: round"/>
   </g>
   <g id="line2d_17">
    <path d="M 28.485 59.337 
L 28.485 74.337 
L 52.485 74.337 
L 52.485 98.337 
L 28.485 98.337 
L 28.485 113.337 
" clip-path="url(#p38c0113077)" style="fill: none; stroke: #000000; stroke-width: 2; stroke-linecap: round"/>
   </g>
   <g id="line2d_18">
    <path d="M 58.485 74.337 
L 58.485 98.337 
" clip-path="url(#p38c0113077)" style="fill: none; stroke: #000000; stroke-width: 2; stroke-linecap: round"/>
   </g>
   <g id="line2d_19">
    <path d="M 58.485 86.337 
L 77.685 86.337 
" clip-path="url(#p38c0113077)" style="fill: none; stroke: #000000; stroke-width: 2; stroke-linecap: round"/>
   </g>
   <g id="line2d_20">
    <path d="M 28.485 86.337 
L 43.485 86.337 
" clip-path="url(#p38c0113077)" style="fill: none; stroke: #000000; stroke-width: 2; stroke-linecap: round"/>
   </g>
   <g id="patch_4">
    <path d="M 43.485 82.737 
L 52.485 86.337 
L 43.485 89.937 
z
" clip-path="url(#p38c0113077)"/>
   </g>
   <g id="line2d_21">
    <path d="M 28.485 113.337 
L 28.485 131.337 
L 28.485 149.337 
" clip-path="url(#p38c0113077)" style="fill: none; stroke: #000000; stroke-width: 2; stroke-linecap: round"/>
   </g>
   <g id="line2d_22">
    <path d="M 28.485 149.337 
L 100.485 149.337 
L 172.485 149.337 
" clip-path="url(#p38c0113077)" style="fill: none; stroke: #000000; stroke-width: 2; stroke-linecap: round"/>
   </g>
   <g id="line2d_23">
    <path d="M 172.485 149.337 
L 239.985 149.337 
L 307.485 149.337 
" clip-path="url(#p38c0113077)" style="fill: none; stroke: #000000; stroke-width: 2; stroke-linecap: round"/>
   </g>
   <g id="line2d_24">
    <path d="M 307.485 149.337 
L 307.485 131.337 
L 307.485 113.337 
" clip-path="url(#p38c0113077)" style="fill: none; stroke: #000000; stroke-width: 2; stroke-linecap: round"/>
   </g>
   <g id="line2d_25">
    <path d="M 307.485 113.337 
L 307.485 98.337 
L 283.485 98.337 
L 283.485 74.337 
L 307.485 74.337 
L 307.485 59.337 
" clip-path="url(#p38c0113077)" style="fill: none; stroke: #000000; stroke-width: 2; stroke-linecap: round"/>
   </g>
   <g id="line2d_26">
    <path d="M 277.485 98.337 
L 277.485 74.337 
" clip-path="url(#p38c0113077)" style="fill: none; stroke: #000000; stroke-width: 2; stroke-linecap: round"/>
   </g>
   <g id="line2d_27">
    <path d="M 277.485 86.337 
L 258.285 86.337 
" clip-path="url(#p38c0113077)" style="fill: none; stroke: #000000; stroke-width: 2; stroke-linecap: round"/>
   </g>
   <g id="line2d_28">
    <path d="M 307.485 86.337 
L 292.485 86.337 
" clip-path="url(#p38c0113077)" style="fill: none; stroke: #000000; stroke-width: 2; stroke-linecap: round"/>
   </g>
   <g id="patch_5">
    <path d="M 292.485 89.937 
L 283.485 86.337 
L 292.485 82.737 
z
" clip-path="url(#p38c0113077)"/>
   </g>
   <g id="line2d_29">
    <path d="M 307.485 59.337 
L 307.485 45.837 
L 307.485 32.337 
" clip-path="url(#p38c0113077)" style="fill: none; stroke: #000000; stroke-width: 2; stroke-linecap: round"/>
   </g>
   <g id="line2d_30">
    <path d="M 77.685 86.337 
L 77.685 72.837 
L 77.685 59.337 
" clip-path="url(#p38c0113077)" style="fill: none; stroke: #000000; stroke-width: 2; stroke-linecap: round"/>
   </g>
   <g id="line2d_31">
    <path d="M 77.685 59.337 
L 53.085 59.337 
L 28.485 59.337 
" clip-path="url(#p38c0113077)" style="fill: none; stroke: #000000; stroke-width: 2; stroke-linecap: round"/>
   </g>
   <g id="line2d_32">
    <path d="M 77.685 86.337 
L 167.985 86.337 
L 258.285 86.337 
" clip-path="url(#p38c0113077)" style="fill: none; stroke: #000000; stroke-width: 2; stroke-linecap: round"/>
   </g>
   <g id="line2d_33">
    <path d="M 145.485 41.337 
L 149.985 41.337 
L 154.485 41.337 
" clip-path="url(#p38c0113077)" style="fill: none; stroke: #000000; stroke-width: 2; stroke-linecap: round"/>
   </g>
   <g id="line2d_34">
    <path d="M 154.485 41.337 
L 154.485 54.837 
L 154.485 68.337 
" clip-path="url(#p38c0113077)" style="fill: none; stroke: #000000; stroke-width: 2; stroke-linecap: round"/>
   </g>
   <g id="line2d_35">
    <path d="M 199.485 41.337 
L 194.985 41.337 
L 190.485 41.337 
" clip-path="url(#p38c0113077)" style="fill: none; stroke: #000000; stroke-width: 2; stroke-linecap: round"/>
   </g>
   <g id="line2d_36">
    <path d="M 190.485 41.337 
L 190.485 54.837 
L 190.485 68.337 
" clip-path="url(#p38c0113077)" style="fill: none; stroke: #000000; stroke-width: 2; stroke-linecap: round"/>
   </g>
   <g id="line2d_37">
    <path d="M 307.485 86.337 
L 311.985 86.337 
L 316.485 86.337 
" clip-path="url(#p38c0113077)" style="fill: none; stroke: #000000; stroke-width: 2; stroke-linecap: round"/>
   </g>
   <g id="line2d_38">
    <path d="M 316.485 86.337 
L 316.485 117.837 
L 316.485 149.337 
" clip-path="url(#p38c0113077)" style="fill: none; stroke: #000000; stroke-width: 2; stroke-linecap: round"/>
   </g>
   <g id="line2d_39">
    <path d="M 316.485 149.337 
L 311.985 149.337 
L 307.485 149.337 
" clip-path="url(#p38c0113077)" style="fill: none; stroke: #000000; stroke-width: 2; stroke-linecap: round"/>
   </g>
   <g id="line2d_40">
    <path d="M 28.485 86.337 
L 23.985 86.337 
L 19.485 86.337 
" clip-path="url(#p38c0113077)" style="fill: none; stroke: #000000; stroke-width: 2; stroke-linecap: round"/>
   </g>
   <g id="line2d_41">
    <path d="M 19.485 86.337 
L 19.485 117.837 
L 19.485 149.337 
" clip-path="url(#p38c0113077)" style="fill: none; stroke: #000000; stroke-width: 2; stroke-linecap: round"/>
   </g>
   <g id="line2d_42">
    <path d="M 19.485 149.337 
L 23.985 149.337 
L 28.485 149.337 
" clip-path="url(#p38c0113077)" style="fill: none; stroke: #000000; stroke-width: 2; stroke-linecap: round"/>
   </g>
   <g id="line2d_43">
    <path d="M 307.485 32.337 
L 320.985 32.337 
L 334.485 32.337 
" clip-path="url(#p38c0113077)" style="fill: none; stroke: #000000; stroke-width: 2; stroke-linecap: round"/>
   </g>
   <g id="patch_6">
    <path d="M 172.485 152.037 
C 173.201048 152.037 173.887866 151.752511 174.394188 151.246188 
C 174.900511 150.739866 175.185 150.053048 175.185 149.337 
C 175.185 148.620952 174.900511 147.934134 174.394188 147.427812 
C 173.887866 146.921489 173.201048 146.637 172.485 146.637 
C 171.768952 146.637 171.082134 146.921489 170.575812 147.427812 
C 170.069489 147.934134 169.785 148.620952 169.785 149.337 
C 169.785 150.053048 170.069489 150.739866 170.575812 151.246188 
C 171.082134 151.752511 171.768952 152.037 172.485 152.037 
z
" clip-path="url(#p38c0113077)" style="fill: #ff0000; stroke: #ff0000; stroke-width: 2; stroke-linejoin: miter"/>
   </g>
   <g id="text_1">
    <!-- 0 -->
    <g style="fill: #ff0000" transform="translate(178.931875 162.435047) scale(0.125 -0.125)">
     <defs>
      <path id="DejaVuSans-30" d="M 2034 4250 
Q 1547 4250 1301 3770 
Q 1056 3291 1056 2328 
Q 1056 1369 1301 889 
Q 1547 409 2034 409 
Q 2525 409 2770 889 
Q 3016 1369 3016 2328 
Q 3016 3291 2770 3770 
Q 2525 4250 2034 4250 
z
M 2034 4750 
Q 2819 4750 3233 4129 
Q 3647 3509 3647 2328 
Q 3647 1150 3233 529 
Q 2819 -91 2034 -91 
Q 1250 -91 836 529 
Q 422 1150 422 2328 
Q 422 3509 836 4129 
Q 1250 4750 2034 4750 
z
" transform="scale(0.015625)"/>
     </defs>
     <use xlink:href="#DejaVuSans-30"/>
    </g>
   </g>
   <g id="patch_7">
    <path d="M 172.485 152.037 
C 173.201048 152.037 173.887866 151.752511 174.394188 151.246188 
C 174.900511 150.739866 175.185 150.053048 175.185 149.337 
C 175.185 148.620952 174.900511 147.934134 174.394188 147.427812 
C 173.887866 146.921489 173.201048 146.637 172.485 146.637 
C 171.768952 146.637 171.082134 146.921489 170.575812 147.427812 
C 170.069489 147.934134 169.785 148.620952 169.785 149.337 
C 169.785 150.053048 170.069489 150.739866 170.575812 151.246188 
C 171.082134 151.752511 171.768952 152.037 172.485 152.037 
z
" clip-path="url(#p38c0113077)" style="fill: #ff0000; stroke: #ff0000; stroke-width: 2; stroke-linejoin: miter"/>
   </g>
   <g id="text_2">
    <!-- 0 -->
    <g style="fill: #ff0000" transform="translate(178.931875 162.435047) scale(0.125 -0.125)">
     <use xlink:href="#DejaVuSans-30"/>
    </g>
   </g>
   <g id="patch_8">
    <path d="M 172.485 71.037 
C 173.201048 71.037 173.887866 70.752511 174.394188 70.246188 
C 174.900511 69.739866 175.185 69.053048 175.185 68.337 
C 175.185 67.620952 174.900511 66.934134 174.394188 66.427812 
C 173.887866 65.921489 173.201048 65.637 172.485 65.637 
C 171.768952 65.637 171.082134 65.921489 170.575812 66.427812 
C 170.069489 66.934134 169.785 67.620952 169.785 68.337 
C 169.785 69.053048 170.069489 69.739866 170.575812 70.246188 
C 171.082134 70.752511 171.768952 71.037 172.485 71.037 
z
" clip-path="url(#p38c0113077)" style="fill: #ff0000; stroke: #ff0000; stroke-width: 2; stroke-linejoin: miter"/>
   </g>
   <g id="text_3">
    <!-- 8 -->
    <g style="fill: #ff0000" transform="translate(168.131875 59.835047) scale(0.125 -0.125)">
     <defs>
      <path id="DejaVuSans-38" d="M 2034 2216 
Q 1584 2216 1326 1975 
Q 1069 1734 1069 1313 
Q 1069 891 1326 650 
Q 1584 409 2034 409 
Q 2484 409 2743 651 
Q 3003 894 3003 1313 
Q 3003 1734 2745 1975 
Q 2488 2216 2034 2216 
z
M 1403 2484 
Q 997 2584 770 2862 
Q 544 3141 544 3541 
Q 544 4100 942 4425 
Q 1341 4750 2034 4750 
Q 2731 4750 3128 4425 
Q 3525 4100 3525 3541 
Q 3525 3141 3298 2862 
Q 3072 2584 2669 2484 
Q 3125 2378 3379 2068 
Q 3634 1759 3634 1313 
Q 3634 634 3220 271 
Q 2806 -91 2034 -91 
Q 1263 -91 848 271 
Q 434 634 434 1313 
Q 434 1759 690 2068 
Q 947 2378 1403 2484 
z
M 1172 3481 
Q 1172 3119 1398 2916 
Q 1625 2713 2034 2713 
Q 2441 2713 2670 2916 
Q 2900 3119 2900 3481 
Q 2900 3844 2670 4047 
Q 2441 4250 2034 4250 
Q 1625 4250 1398 4047 
Q 1172 3844 1172 3481 
z
" transform="scale(0.015625)"/>
     </defs>
     <use xlink:href="#DejaVuSans-38"/>
    </g>
   </g>
   <g id="patch_9">
    <path d="M 172.485 71.037 
C 173.201048 71.037 173.887866 70.752511 174.394188 70.246188 
C 174.900511 69.739866 175.185 69.053048 175.185 68.337 
C 175.185 67.620952 174.900511 66.934134 174.394188 66.427812 
C 173.887866 65.921489 173.201048 65.637 172.485 65.637 
C 171.768952 65.637 171.082134 65.921489 170.575812 66.427812 
C 170.069489 66.934134 169.785 67.620952 169.785 68.337 
C 169.785 69.053048 170.069489 69.739866 170.575812 70.246188 
C 171.082134 70.752511 171.768952 71.037 172.485 71.037 
z
" clip-path="url(#p38c0113077)" style="fill: #ff0000; stroke: #ff0000; stroke-width: 2; stroke-linejoin: miter"/>
   </g>
   <g id="text_4">
    <!-- 8 -->
    <g style="fill: #ff0000" transform="translate(168.131875 59.835047) scale(0.125 -0.125)">
     <use xlink:href="#DejaVuSans-38"/>
    </g>
   </g>
   <g id="patch_10">
    <path d="M 172.485 71.037 
C 173.201048 71.037 173.887866 70.752511 174.394188 70.246188 
C 174.900511 69.739866 175.185 69.053048 175.185 68.337 
C 175.185 67.620952 174.900511 66.934134 174.394188 66.427812 
C 173.887866 65.921489 173.201048 65.637 172.485 65.637 
C 171.768952 65.637 171.082134 65.921489 170.575812 66.427812 
C 170.069489 66.934134 169.785 67.620952 169.785 68.337 
C 169.785 69.053048 170.069489 69.739866 170.575812 70.246188 
C 171.082134 70.752511 171.768952 71.037 172.485 71.037 
z
" clip-path="url(#p38c0113077)" style="fill: #ff0000; stroke: #ff0000; stroke-width: 2; stroke-linejoin: miter"/>
   </g>
   <g id="patch_11">
    <path d="M 145.485 17.037 
C 146.201048 17.037 146.887866 16.752511 147.394188 16.246188 
C 147.900511 15.739866 148.185 15.053048 148.185 14.337 
C 148.185 13.620952 147.900511 12.934134 147.394188 12.427812 
C 146.887866 11.921489 146.201048 11.637 145.485 11.637 
C 144.768952 11.637 144.082134 11.921489 143.575812 12.427812 
C 143.069489 12.934134 142.785 13.620952 142.785 14.337 
C 142.785 15.053048 143.069489 15.739866 143.575812 16.246188 
C 144.082134 16.752511 144.768952 17.037 145.485 17.037 
z
" clip-path="url(#p38c0113077)" style="stroke: #000000; stroke-width: 2; stroke-linejoin: miter"/>
   </g>
   <g id="patch_12">
    <path d="M 199.485 17.037 
C 200.201048 17.037 200.887866 16.752511 201.394188 16.246188 
C 201.900511 15.739866 202.185 15.053048 202.185 14.337 
C 202.185 13.620952 201.900511 12.934134 201.394188 12.427812 
C 200.887866 11.921489 200.201048 11.637 199.485 11.637 
C 198.768952 11.637 198.082134 11.921489 197.575812 12.427812 
C 197.069489 12.934134 196.785 13.620952 196.785 14.337 
C 196.785 15.053048 197.069489 15.739866 197.575812 16.246188 
C 198.082134 16.752511 198.768952 17.037 199.485 17.037 
z
" clip-path="url(#p38c0113077)" style="stroke: #000000; stroke-width: 2; stroke-linejoin: miter"/>
   </g>
   <g id="patch_13">
    <path d="M 28.485 26.037 
C 29.201048 26.037 29.887866 25.752511 30.394188 25.246188 
C 30.900511 24.739866 31.185 24.053048 31.185 23.337 
C 31.185 22.620952 30.900511 21.934134 30.394188 21.427812 
C 29.887866 20.921489 29.201048 20.637 28.485 20.637 
C 27.768952 20.637 27.082134 20.921489 26.575812 21.427812 
C 26.069489 21.934134 25.785 22.620952 25.785 23.337 
C 25.785 24.053048 26.069489 24.739866 26.575812 25.246188 
C 27.082134 25.752511 27.768952 26.037 28.485 26.037 
z
" clip-path="url(#p38c0113077)" style="stroke: #000000; stroke-width: 2; stroke-linejoin: miter"/>
   </g>
   <g id="patch_14">
    <path d="M 28.485 62.037 
C 29.201048 62.037 29.887866 61.752511 30.394188 61.246188 
C 30.900511 60.739866 31.185 60.053048 31.185 59.337 
C 31.185 58.620952 30.900511 57.934134 30.394188 57.427812 
C 29.887866 56.921489 29.201048 56.637 28.485 56.637 
C 27.768952 56.637 27.082134 56.921489 26.575812 57.427812 
C 26.069489 57.934134 25.785 58.620952 25.785 59.337 
C 25.785 60.053048 26.069489 60.739866 26.575812 61.246188 
C 27.082134 61.752511 27.768952 62.037 28.485 62.037 
z
" clip-path="url(#p38c0113077)" style="fill: #ff0000; stroke: #ff0000; stroke-width: 2; stroke-linejoin: miter"/>
   </g>
   <g id="text_5">
    <!-- 5 -->
    <g style="fill: #ff0000" transform="translate(9.731875 61.635047) scale(0.125 -0.125)">
     <defs>
      <path id="DejaVuSans-35" d="M 691 4666 
L 3169 4666 
L 3169 4134 
L 1269 4134 
L 1269 2991 
Q 1406 3038 1543 3061 
Q 1681 3084 1819 3084 
Q 2600 3084 3056 2656 
Q 3513 2228 3513 1497 
Q 3513 744 3044 326 
Q 2575 -91 1722 -91 
Q 1428 -91 1123 -41 
Q 819 9 494 109 
L 494 744 
Q 775 591 1075 516 
Q 1375 441 1709 441 
Q 2250 441 2565 725 
Q 2881 1009 2881 1497 
Q 2881 1984 2565 2268 
Q 2250 2553 1709 2553 
Q 1456 2553 1204 2497 
Q 953 2441 691 2322 
L 691 4666 
z
" transform="scale(0.015625)"/>
     </defs>
     <use xlink:href="#DejaVuSans-35"/>
    </g>
   </g>
   <g id="patch_15">
    <path d="M 28.485 62.037 
C 29.201048 62.037 29.887866 61.752511 30.394188 61.246188 
C 30.900511 60.739866 31.185 60.053048 31.185 59.337 
C 31.185 58.620952 30.900511 57.934134 30.394188 57.427812 
C 29.887866 56.921489 29.201048 56.637 28.485 56.637 
C 27.768952 56.637 27.082134 56.921489 26.575812 57.427812 
C 26.069489 57.934134 25.785 58.620952 25.785 59.337 
C 25.785 60.053048 26.069489 60.739866 26.575812 61.246188 
C 27.082134 61.752511 27.768952 62.037 28.485 62.037 
z
" clip-path="url(#p38c0113077)" style="fill: #ff0000; stroke: #ff0000; stroke-width: 2; stroke-linejoin: miter"/>
   </g>
   <g id="text_6">
    <!-- 5 -->
    <g style="fill: #ff0000" transform="translate(9.731875 61.635047) scale(0.125 -0.125)">
     <use xlink:href="#DejaVuSans-35"/>
    </g>
   </g>
   <g id="patch_16">
    <path d="M 307.485 35.037 
C 308.201048 35.037 308.887866 34.752511 309.394188 34.246188 
C 309.900511 33.739866 310.185 33.053048 310.185 32.337 
C 310.185 31.620952 309.900511 30.934134 309.394188 30.427812 
C 308.887866 29.921489 308.201048 29.637 307.485 29.637 
C 306.768952 29.637 306.082134 29.921489 305.575812 30.427812 
C 305.069489 30.934134 304.785 31.620952 304.785 32.337 
C 304.785 33.053048 305.069489 33.739866 305.575812 34.246188 
C 306.082134 34.752511 306.768952 35.037 307.485 35.037 
z
" clip-path="url(#p38c0113077)" style="stroke: #000000; stroke-width: 2; stroke-linejoin: miter"/>
   </g>
   <g id="patch_17">
    <path d="M 77.685 89.037 
C 78.401048 89.037 79.087866 88.752511 79.594188 88.246188 
C 80.100511 87.739866 80.385 87.053048 80.385 86.337 
C 80.385 85.620952 80.100511 84.934134 79.594188 84.427812 
C 79.087866 83.921489 78.401048 83.637 77.685 83.637 
C 76.968952 83.637 76.282134 83.921489 75.775812 84.427812 
C 75.269489 84.934134 74.985 85.620952 74.985 86.337 
C 74.985 87.053048 75.269489 87.739866 75.775812 88.246188 
C 76.282134 88.752511 76.968952 89.037 77.685 89.037 
z
" clip-path="url(#p38c0113077)" style="stroke: #000000; stroke-width: 2; stroke-linejoin: miter"/>
   </g>
   <g id="patch_18">
    <path d="M 334.485 35.037 
C 335.201048 35.037 335.887866 34.752511 336.394188 34.246188 
C 336.900511 33.739866 337.185 33.053048 337.185 32.337 
C 337.185 31.620952 336.900511 30.934134 336.394188 30.427812 
C 335.887866 29.921489 335.201048 29.637 334.485 29.637 
C 333.768952 29.637 333.082134 29.921489 332.575812 30.427812 
C 332.069489 30.934134 331.785 31.620952 331.785 32.337 
C 331.785 33.053048 332.069489 33.739866 332.575812 34.246188 
C 333.082134 34.752511 333.768952 35.037 334.485 35.037 
z
" clip-path="url(#p38c0113077)" style="fill: #ffffff; stroke: #ff0000; stroke-width: 2; stroke-linejoin: miter"/>
   </g>
   <g id="text_7">
    <!-- 3 -->
    <g style="fill: #ff0000" transform="translate(330.508438 23.437391) scale(0.125 -0.125)">
     <defs>
      <path id="DejaVuSans-33" d="M 2597 2516 
Q 3050 2419 3304 2112 
Q 3559 1806 3559 1356 
Q 3559 666 3084 287 
Q 2609 -91 1734 -91 
Q 1441 -91 1130 -33 
Q 819 25 488 141 
L 488 750 
Q 750 597 1062 519 
Q 1375 441 1716 441 
Q 2309 441 2620 675 
Q 2931 909 2931 1356 
Q 2931 1769 2642 2001 
Q 2353 2234 1838 2234 
L 1294 2234 
L 1294 2753 
L 1863 2753 
Q 2328 2753 2575 2939 
Q 2822 3125 2822 3475 
Q 2822 3834 2567 4026 
Q 2313 4219 1838 4219 
Q 1578 4219 1281 4162 
Q 984 4106 628 3988 
L 628 4550 
Q 988 4650 1302 4700 
Q 1616 4750 1894 4750 
Q 2613 4750 3031 4423 
Q 3450 4097 3450 3541 
Q 3450 3153 3228 2886 
Q 3006 2619 2597 2516 
z
" transform="scale(0.015625)"/>
     </defs>
     <use xlink:href="#DejaVuSans-33"/>
    </g>
   </g>
   <g id="patch_19">
    <path d="M 221.685 125.037 
C 222.401048 125.037 223.087866 124.752511 223.594188 124.246188 
C 224.100511 123.739866 224.385 123.053048 224.385 122.337 
C 224.385 121.620952 224.100511 120.934134 223.594188 120.427812 
C 223.087866 119.921489 222.401048 119.637 221.685 119.637 
C 220.968952 119.637 220.282134 119.921489 219.775812 120.427812 
C 219.269489 120.934134 218.985 121.620952 218.985 122.337 
C 218.985 123.053048 219.269489 123.739866 219.775812 124.246188 
C 220.282134 124.752511 220.968952 125.037 221.685 125.037 
z
" clip-path="url(#p38c0113077)" style="fill: #ffffff; stroke: #ff0000; stroke-width: 2; stroke-linejoin: miter"/>
   </g>
   <g id="text_8">
    <!-- 9 -->
    <g style="fill: #ff0000" transform="translate(217.708438 113.437391) scale(0.125 -0.125)">
     <defs>
      <path id="DejaVuSans-39" d="M 703 97 
L 703 672 
Q 941 559 1184 500 
Q 1428 441 1663 441 
Q 2288 441 2617 861 
Q 2947 1281 2994 2138 
Q 2813 1869 2534 1725 
Q 2256 1581 1919 1581 
Q 1219 1581 811 2004 
Q 403 2428 403 3163 
Q 403 3881 828 4315 
Q 1253 4750 1959 4750 
Q 2769 4750 3195 4129 
Q 3622 3509 3622 2328 
Q 3622 1225 3098 567 
Q 2575 -91 1691 -91 
Q 1453 -91 1209 -44 
Q 966 3 703 97 
z
M 1959 2075 
Q 2384 2075 2632 2365 
Q 2881 2656 2881 3163 
Q 2881 3666 2632 3958 
Q 2384 4250 1959 4250 
Q 1534 4250 1286 3958 
Q 1038 3666 1038 3163 
Q 1038 2656 1286 2365 
Q 1534 2075 1959 2075 
z
" transform="scale(0.015625)"/>
     </defs>
     <use xlink:href="#DejaVuSans-39"/>
    </g>
   </g>
   <g id="patch_20">
    <path d="M 248.685 44.037 
C 249.401048 44.037 250.087866 43.752511 250.594188 43.246188 
C 251.100511 42.739866 251.385 42.053048 251.385 41.337 
C 251.385 40.620952 251.100511 39.934134 250.594188 39.427812 
C 250.087866 38.921489 249.401048 38.637 248.685 38.637 
C 247.968952 38.637 247.282134 38.921489 246.775812 39.427812 
C 246.269489 39.934134 245.985 40.620952 245.985 41.337 
C 245.985 42.053048 246.269489 42.739866 246.775812 43.246188 
C 247.282134 43.752511 247.968952 44.037 248.685 44.037 
z
" clip-path="url(#p38c0113077)" style="fill: #ffffff; stroke: #ff0000; stroke-width: 2; stroke-linejoin: miter"/>
   </g>
   <g id="text_9">
    <!-- 10 -->
    <g style="fill: #ff0000" transform="translate(240.731875 32.437391) scale(0.125 -0.125)">
     <defs>
      <path id="DejaVuSans-31" d="M 794 531 
L 1825 531 
L 1825 4091 
L 703 3866 
L 703 4441 
L 1819 4666 
L 2450 4666 
L 2450 531 
L 3481 531 
L 3481 0 
L 794 0 
L 794 531 
z
" transform="scale(0.015625)"/>
     </defs>
     <use xlink:href="#DejaVuSans-31"/>
     <use xlink:href="#DejaVuSans-30" x="63.623047"/>
    </g>
   </g>
   <g id="patch_21">
    <path d="M 96.285 44.037 
C 97.001048 44.037 97.687866 43.752511 98.194188 43.246188 
C 98.700511 42.739866 98.985 42.053048 98.985 41.337 
C 98.985 40.620952 98.700511 39.934134 98.194188 39.427812 
C 97.687866 38.921489 97.001048 38.637 96.285 38.637 
C 95.568952 38.637 94.882134 38.921489 94.375812 39.427812 
C 93.869489 39.934134 93.585 40.620952 93.585 41.337 
C 93.585 42.053048 93.869489 42.739866 94.375812 43.246188 
C 94.882134 43.752511 95.568952 44.037 96.285 44.037 
z
" clip-path="url(#p38c0113077)" style="fill: #ffffff; stroke: #ff0000; stroke-width: 2; stroke-linejoin: miter"/>
   </g>
   <g id="text_10">
    <!-- 11 -->
    <g style="fill: #ff0000" transform="translate(88.331875 32.437391) scale(0.125 -0.125)">
     <use xlink:href="#DejaVuSans-31"/>
     <use xlink:href="#DejaVuSans-31" x="63.623047"/>
    </g>
   </g>
  </g>
 </g>
 <defs>
  <clipPath id="p38c0113077">
   <rect x="3.6" y="3.6" width="349.47" height="176.814"/>
  </clipPath>
 </defs>
</svg>