<?xml version="1.0" encoding="utf-8" standalone="no"?>
<!DOCTYPE svg PUBLIC "-//W3C//DTD SVG 1.1//EN"
  "http://www.w3.org/Graphics/SVG/1.1/DTD/svg11.dtd">
<svg xmlns:xlink="http://www.w3.org/1999/xlink" width="730.128125pt" height="479.63625pt" viewBox="0 0 730.128125 479.63625" xmlns="http://www.w3.org/2000/svg" version="1.1">
 <metadata>
  <rdf:RDF xmlns:dc="http://purl.org/dc/elements/1.1/" xmlns:cc="http://creativecommons.org/ns#" xmlns:rdf="http://www.w3.org/1999/02/22-rdf-syntax-ns#">
   <cc:Work>
    <dc:type rdf:resource="http://purl.org/dc/dcmitype/StillImage"/>
    <dc:date>2022-11-04T22:29:13.022871</dc:date>
    <dc:format>image/svg+xml</dc:format>
    <dc:creator>
     <cc:Agent>
      <dc:title>Matplotlib v3.5.3, https://matplotlib.org/</dc:title>
     </cc:Agent>
    </dc:creator>
   </cc:Work>
  </rdf:RDF>
 </metadata>
 <defs>
  <style type="text/css">*{stroke-linejoin: round; stroke-linecap: butt}</style>
 </defs>
 <g id="figure_1">
  <g id="patch_1">
   <path d="M 0 479.63625 
L 730.128125 479.63625 
L 730.128125 0 
L 0 0 
L 0 479.63625 
z
" style="fill: none"/>
  </g>
  <g id="axes_1">
   <g id="patch_2">
    <path d="M 46.965625 442.08 
L 716.565625 442.08 
L 716.565625 7.2 
L 46.965625 7.2 
z
" style="fill: #ffffff"/>
   </g>
   <g id="matplotlib.axis_1">
    <g id="xtick_1">
     <g id="line2d_1">
      <path d="M 46.965625 442.08 
L 46.965625 7.2 
" clip-path="url(#p0e5b54ca02)" style="fill: none; stroke: #b0b0b0; stroke-width: 0.8; stroke-linecap: square"/>
     </g>
     <g id="line2d_2">
      <defs>
       <path id="mf56c567635" d="M 0 0 
L 0 3.5 
" style="stroke: #000000; stroke-width: 0.8"/>
      </defs>
      <g>
       <use xlink:href="#mf56c567635" x="46.965625" y="442.08" style="stroke: #000000; stroke-width: 0.8"/>
      </g>
     </g>
     <g id="text_1">
      <!-- 0 -->
      <g transform="translate(43.784375 456.678437)scale(0.1 -0.1)">
       <defs>
        <path id="DejaVuSans-30" d="M 2034 4250 
Q 1547 4250 1301 3770 
Q 1056 3291 1056 2328 
Q 1056 1369 1301 889 
Q 1547 409 2034 409 
Q 2525 409 2770 889 
Q 3016 1369 3016 2328 
Q 3016 3291 2770 3770 
Q 2525 4250 2034 4250 
z
M 2034 4750 
Q 2819 4750 3233 4129 
Q 3647 3509 3647 2328 
Q 3647 1150 3233 529 
Q 2819 -91 2034 -91 
Q 1250 -91 836 529 
Q 422 1150 422 2328 
Q 422 3509 836 4129 
Q 1250 4750 2034 4750 
z
" transform="scale(0.015625)"/>
       </defs>
       <use xlink:href="#DejaVuSans-30"/>
      </g>
     </g>
    </g>
    <g id="xtick_2">
     <g id="line2d_3">
      <path d="M 180.885625 442.08 
L 180.885625 7.2 
" clip-path="url(#p0e5b54ca02)" style="fill: none; stroke: #b0b0b0; stroke-width: 0.8; stroke-linecap: square"/>
     </g>
     <g id="line2d_4">
      <g>
       <use xlink:href="#mf56c567635" x="180.885625" y="442.08" style="stroke: #000000; stroke-width: 0.8"/>
      </g>
     </g>
     <g id="text_2">
      <!-- 2 -->
      <g transform="translate(177.704375 456.678437)scale(0.1 -0.1)">
       <defs>
        <path id="DejaVuSans-32" d="M 1228 531 
L 3431 531 
L 3431 0 
L 469 0 
L 469 531 
Q 828 903 1448 1529 
Q 2069 2156 2228 2338 
Q 2531 2678 2651 2914 
Q 2772 3150 2772 3378 
Q 2772 3750 2511 3984 
Q 2250 4219 1831 4219 
Q 1534 4219 1204 4116 
Q 875 4013 500 3803 
L 500 4441 
Q 881 4594 1212 4672 
Q 1544 4750 1819 4750 
Q 2544 4750 2975 4387 
Q 3406 4025 3406 3419 
Q 3406 3131 3298 2873 
Q 3191 2616 2906 2266 
Q 2828 2175 2409 1742 
Q 1991 1309 1228 531 
z
" transform="scale(0.015625)"/>
       </defs>
       <use xlink:href="#DejaVuSans-32"/>
      </g>
     </g>
    </g>
    <g id="xtick_3">
     <g id="line2d_5">
      <path d="M 314.805625 442.08 
L 314.805625 7.2 
" clip-path="url(#p0e5b54ca02)" style="fill: none; stroke: #b0b0b0; stroke-width: 0.8; stroke-linecap: square"/>
     </g>
     <g id="line2d_6">
      <g>
       <use xlink:href="#mf56c567635" x="314.805625" y="442.08" style="stroke: #000000; stroke-width: 0.8"/>
      </g>
     </g>
     <g id="text_3">
      <!-- 4 -->
      <g transform="translate(311.624375 456.678437)scale(0.1 -0.1)">
       <defs>
        <path id="DejaVuSans-34" d="M 2419 4116 
L 825 1625 
L 2419 1625 
L 2419 4116 
z
M 2253 4666 
L 3047 4666 
L 3047 1625 
L 3713 1625 
L 3713 1100 
L 3047 1100 
L 3047 0 
L 2419 0 
L 2419 1100 
L 313 1100 
L 313 1709 
L 2253 4666 
z
" transform="scale(0.015625)"/>
       </defs>
       <use xlink:href="#DejaVuSans-34"/>
      </g>
     </g>
    </g>
    <g id="xtick_4">
     <g id="line2d_7">
      <path d="M 448.725625 442.08 
L 448.725625 7.2 
" clip-path="url(#p0e5b54ca02)" style="fill: none; stroke: #b0b0b0; stroke-width: 0.8; stroke-linecap: square"/>
     </g>
     <g id="line2d_8">
      <g>
       <use xlink:href="#mf56c567635" x="448.725625" y="442.08" style="stroke: #000000; stroke-width: 0.8"/>
      </g>
     </g>
     <g id="text_4">
      <!-- 6 -->
      <g transform="translate(445.544375 456.678437)scale(0.1 -0.1)">
       <defs>
        <path id="DejaVuSans-36" d="M 2113 2584 
Q 1688 2584 1439 2293 
Q 1191 2003 1191 1497 
Q 1191 994 1439 701 
Q 1688 409 2113 409 
Q 2538 409 2786 701 
Q 3034 994 3034 1497 
Q 3034 2003 2786 2293 
Q 2538 2584 2113 2584 
z
M 3366 4563 
L 3366 3988 
Q 3128 4100 2886 4159 
Q 2644 4219 2406 4219 
Q 1781 4219 1451 3797 
Q 1122 3375 1075 2522 
Q 1259 2794 1537 2939 
Q 1816 3084 2150 3084 
Q 2853 3084 3261 2657 
Q 3669 2231 3669 1497 
Q 3669 778 3244 343 
Q 2819 -91 2113 -91 
Q 1303 -91 875 529 
Q 447 1150 447 2328 
Q 447 3434 972 4092 
Q 1497 4750 2381 4750 
Q 2619 4750 2861 4703 
Q 3103 4656 3366 4563 
z
" transform="scale(0.015625)"/>
       </defs>
       <use xlink:href="#DejaVuSans-36"/>
      </g>
     </g>
    </g>
    <g id="xtick_5">
     <g id="line2d_9">
      <path d="M 582.645625 442.08 
L 582.645625 7.2 
" clip-path="url(#p0e5b54ca02)" style="fill: none; stroke: #b0b0b0; stroke-width: 0.8; stroke-linecap: square"/>
     </g>
     <g id="line2d_10">
      <g>
       <use xlink:href="#mf56c567635" x="582.645625" y="442.08" style="stroke: #000000; stroke-width: 0.8"/>
      </g>
     </g>
     <g id="text_5">
      <!-- 8 -->
      <g transform="translate(579.464375 456.678437)scale(0.1 -0.1)">
       <defs>
        <path id="DejaVuSans-38" d="M 2034 2216 
Q 1584 2216 1326 1975 
Q 1069 1734 1069 1313 
Q 1069 891 1326 650 
Q 1584 409 2034 409 
Q 2484 409 2743 651 
Q 3003 894 3003 1313 
Q 3003 1734 2745 1975 
Q 2488 2216 2034 2216 
z
M 1403 2484 
Q 997 2584 770 2862 
Q 544 3141 544 3541 
Q 544 4100 942 4425 
Q 1341 4750 2034 4750 
Q 2731 4750 3128 4425 
Q 3525 4100 3525 3541 
Q 3525 3141 3298 2862 
Q 3072 2584 2669 2484 
Q 3125 2378 3379 2068 
Q 3634 1759 3634 1313 
Q 3634 634 3220 271 
Q 2806 -91 2034 -91 
Q 1263 -91 848 271 
Q 434 634 434 1313 
Q 434 1759 690 2068 
Q 947 2378 1403 2484 
z
M 1172 3481 
Q 1172 3119 1398 2916 
Q 1625 2713 2034 2713 
Q 2441 2713 2670 2916 
Q 2900 3119 2900 3481 
Q 2900 3844 2670 4047 
Q 2441 4250 2034 4250 
Q 1625 4250 1398 4047 
Q 1172 3844 1172 3481 
z
" transform="scale(0.015625)"/>
       </defs>
       <use xlink:href="#DejaVuSans-38"/>
      </g>
     </g>
    </g>
    <g id="xtick_6">
     <g id="line2d_11">
      <path d="M 716.565625 442.08 
L 716.565625 7.2 
" clip-path="url(#p0e5b54ca02)" style="fill: none; stroke: #b0b0b0; stroke-width: 0.8; stroke-linecap: square"/>
     </g>
     <g id="line2d_12">
      <g>
       <use xlink:href="#mf56c567635" x="716.565625" y="442.08" style="stroke: #000000; stroke-width: 0.8"/>
      </g>
     </g>
     <g id="text_6">
      <!-- 10 -->
      <g transform="translate(710.203125 456.678437)scale(0.1 -0.1)">
       <defs>
        <path id="DejaVuSans-31" d="M 794 531 
L 1825 531 
L 1825 4091 
L 703 3866 
L 703 4441 
L 1819 4666 
L 2450 4666 
L 2450 531 
L 3481 531 
L 3481 0 
L 794 0 
L 794 531 
z
" transform="scale(0.015625)"/>
       </defs>
       <use xlink:href="#DejaVuSans-31"/>
       <use xlink:href="#DejaVuSans-30" x="63.623047"/>
      </g>
     </g>
    </g>
    <g id="text_7">
     <!-- tijd [us] -->
     <g transform="translate(362.589063 470.356562)scale(0.1 -0.1)">
      <defs>
       <path id="DejaVuSans-74" d="M 1172 4494 
L 1172 3500 
L 2356 3500 
L 2356 3053 
L 1172 3053 
L 1172 1153 
Q 1172 725 1289 603 
Q 1406 481 1766 481 
L 2356 481 
L 2356 0 
L 1766 0 
Q 1100 0 847 248 
Q 594 497 594 1153 
L 594 3053 
L 172 3053 
L 172 3500 
L 594 3500 
L 594 4494 
L 1172 4494 
z
" transform="scale(0.015625)"/>
       <path id="DejaVuSans-69" d="M 603 3500 
L 1178 3500 
L 1178 0 
L 603 0 
L 603 3500 
z
M 603 4863 
L 1178 4863 
L 1178 4134 
L 603 4134 
L 603 4863 
z
" transform="scale(0.015625)"/>
       <path id="DejaVuSans-6a" d="M 603 3500 
L 1178 3500 
L 1178 -63 
Q 1178 -731 923 -1031 
Q 669 -1331 103 -1331 
L -116 -1331 
L -116 -844 
L 38 -844 
Q 366 -844 484 -692 
Q 603 -541 603 -63 
L 603 3500 
z
M 603 4863 
L 1178 4863 
L 1178 4134 
L 603 4134 
L 603 4863 
z
" transform="scale(0.015625)"/>
       <path id="DejaVuSans-64" d="M 2906 2969 
L 2906 4863 
L 3481 4863 
L 3481 0 
L 2906 0 
L 2906 525 
Q 2725 213 2448 61 
Q 2172 -91 1784 -91 
Q 1150 -91 751 415 
Q 353 922 353 1747 
Q 353 2572 751 3078 
Q 1150 3584 1784 3584 
Q 2172 3584 2448 3432 
Q 2725 3281 2906 2969 
z
M 947 1747 
Q 947 1113 1208 752 
Q 1469 391 1925 391 
Q 2381 391 2643 752 
Q 2906 1113 2906 1747 
Q 2906 2381 2643 2742 
Q 2381 3103 1925 3103 
Q 1469 3103 1208 2742 
Q 947 2381 947 1747 
z
" transform="scale(0.015625)"/>
       <path id="DejaVuSans-20" transform="scale(0.015625)"/>
       <path id="DejaVuSans-5b" d="M 550 4863 
L 1875 4863 
L 1875 4416 
L 1125 4416 
L 1125 -397 
L 1875 -397 
L 1875 -844 
L 550 -844 
L 550 4863 
z
" transform="scale(0.015625)"/>
       <path id="DejaVuSans-75" d="M 544 1381 
L 544 3500 
L 1119 3500 
L 1119 1403 
Q 1119 906 1312 657 
Q 1506 409 1894 409 
Q 2359 409 2629 706 
Q 2900 1003 2900 1516 
L 2900 3500 
L 3475 3500 
L 3475 0 
L 2900 0 
L 2900 538 
Q 2691 219 2414 64 
Q 2138 -91 1772 -91 
Q 1169 -91 856 284 
Q 544 659 544 1381 
z
M 1991 3584 
L 1991 3584 
z
" transform="scale(0.015625)"/>
       <path id="DejaVuSans-73" d="M 2834 3397 
L 2834 2853 
Q 2591 2978 2328 3040 
Q 2066 3103 1784 3103 
Q 1356 3103 1142 2972 
Q 928 2841 928 2578 
Q 928 2378 1081 2264 
Q 1234 2150 1697 2047 
L 1894 2003 
Q 2506 1872 2764 1633 
Q 3022 1394 3022 966 
Q 3022 478 2636 193 
Q 2250 -91 1575 -91 
Q 1294 -91 989 -36 
Q 684 19 347 128 
L 347 722 
Q 666 556 975 473 
Q 1284 391 1588 391 
Q 1994 391 2212 530 
Q 2431 669 2431 922 
Q 2431 1156 2273 1281 
Q 2116 1406 1581 1522 
L 1381 1569 
Q 847 1681 609 1914 
Q 372 2147 372 2553 
Q 372 3047 722 3315 
Q 1072 3584 1716 3584 
Q 2034 3584 2315 3537 
Q 2597 3491 2834 3397 
z
" transform="scale(0.015625)"/>
       <path id="DejaVuSans-5d" d="M 1947 4863 
L 1947 -844 
L 622 -844 
L 622 -397 
L 1369 -397 
L 1369 4416 
L 622 4416 
L 622 4863 
L 1947 4863 
z
" transform="scale(0.015625)"/>
      </defs>
      <use xlink:href="#DejaVuSans-74"/>
      <use xlink:href="#DejaVuSans-69" x="39.208984"/>
      <use xlink:href="#DejaVuSans-6a" x="66.992188"/>
      <use xlink:href="#DejaVuSans-64" x="94.775391"/>
      <use xlink:href="#DejaVuSans-20" x="158.251953"/>
      <use xlink:href="#DejaVuSans-5b" x="190.039062"/>
      <use xlink:href="#DejaVuSans-75" x="229.052734"/>
      <use xlink:href="#DejaVuSans-73" x="292.431641"/>
      <use xlink:href="#DejaVuSans-5d" x="344.53125"/>
     </g>
    </g>
   </g>
   <g id="matplotlib.axis_2">
    <g id="ytick_1">
     <g id="line2d_13">
      <path d="M 46.965625 422.312727 
L 716.565625 422.312727 
" clip-path="url(#p0e5b54ca02)" style="fill: none; stroke: #b0b0b0; stroke-width: 0.8; stroke-linecap: square"/>
     </g>
     <g id="line2d_14">
      <defs>
       <path id="m48eff5e51e" d="M 0 0 
L -3.5 0 
" style="stroke: #000000; stroke-width: 0.8"/>
      </defs>
      <g>
       <use xlink:href="#m48eff5e51e" x="46.965625" y="422.312727" style="stroke: #000000; stroke-width: 0.8"/>
      </g>
     </g>
     <g id="text_8">
      <!-- 0 -->
      <g transform="translate(33.603125 426.111946)scale(0.1 -0.1)">
       <use xlink:href="#DejaVuSans-30"/>
      </g>
     </g>
    </g>
    <g id="ytick_2">
     <g id="line2d_15">
      <path d="M 46.965625 371.310231 
L 716.565625 371.310231 
" clip-path="url(#p0e5b54ca02)" style="fill: none; stroke: #b0b0b0; stroke-width: 0.8; stroke-linecap: square"/>
     </g>
     <g id="line2d_16">
      <g>
       <use xlink:href="#m48eff5e51e" x="46.965625" y="371.310231" style="stroke: #000000; stroke-width: 0.8"/>
      </g>
     </g>
     <g id="text_9">
      <!-- 100 -->
      <g transform="translate(20.878125 375.10945)scale(0.1 -0.1)">
       <use xlink:href="#DejaVuSans-31"/>
       <use xlink:href="#DejaVuSans-30" x="63.623047"/>
       <use xlink:href="#DejaVuSans-30" x="127.246094"/>
      </g>
     </g>
    </g>
    <g id="ytick_3">
     <g id="line2d_17">
      <path d="M 46.965625 320.307735 
L 716.565625 320.307735 
" clip-path="url(#p0e5b54ca02)" style="fill: none; stroke: #b0b0b0; stroke-width: 0.8; stroke-linecap: square"/>
     </g>
     <g id="line2d_18">
      <g>
       <use xlink:href="#m48eff5e51e" x="46.965625" y="320.307735" style="stroke: #000000; stroke-width: 0.8"/>
      </g>
     </g>
     <g id="text_10">
      <!-- 200 -->
      <g transform="translate(20.878125 324.106954)scale(0.1 -0.1)">
       <use xlink:href="#DejaVuSans-32"/>
       <use xlink:href="#DejaVuSans-30" x="63.623047"/>
       <use xlink:href="#DejaVuSans-30" x="127.246094"/>
      </g>
     </g>
    </g>
    <g id="ytick_4">
     <g id="line2d_19">
      <path d="M 46.965625 269.305239 
L 716.565625 269.305239 
" clip-path="url(#p0e5b54ca02)" style="fill: none; stroke: #b0b0b0; stroke-width: 0.8; stroke-linecap: square"/>
     </g>
     <g id="line2d_20">
      <g>
       <use xlink:href="#m48eff5e51e" x="46.965625" y="269.305239" style="stroke: #000000; stroke-width: 0.8"/>
      </g>
     </g>
     <g id="text_11">
      <!-- 300 -->
      <g transform="translate(20.878125 273.104458)scale(0.1 -0.1)">
       <defs>
        <path id="DejaVuSans-33" d="M 2597 2516 
Q 3050 2419 3304 2112 
Q 3559 1806 3559 1356 
Q 3559 666 3084 287 
Q 2609 -91 1734 -91 
Q 1441 -91 1130 -33 
Q 819 25 488 141 
L 488 750 
Q 750 597 1062 519 
Q 1375 441 1716 441 
Q 2309 441 2620 675 
Q 2931 909 2931 1356 
Q 2931 1769 2642 2001 
Q 2353 2234 1838 2234 
L 1294 2234 
L 1294 2753 
L 1863 2753 
Q 2328 2753 2575 2939 
Q 2822 3125 2822 3475 
Q 2822 3834 2567 4026 
Q 2313 4219 1838 4219 
Q 1578 4219 1281 4162 
Q 984 4106 628 3988 
L 628 4550 
Q 988 4650 1302 4700 
Q 1616 4750 1894 4750 
Q 2613 4750 3031 4423 
Q 3450 4097 3450 3541 
Q 3450 3153 3228 2886 
Q 3006 2619 2597 2516 
z
" transform="scale(0.015625)"/>
       </defs>
       <use xlink:href="#DejaVuSans-33"/>
       <use xlink:href="#DejaVuSans-30" x="63.623047"/>
       <use xlink:href="#DejaVuSans-30" x="127.246094"/>
      </g>
     </g>
    </g>
    <g id="ytick_5">
     <g id="line2d_21">
      <path d="M 46.965625 218.302743 
L 716.565625 218.302743 
" clip-path="url(#p0e5b54ca02)" style="fill: none; stroke: #b0b0b0; stroke-width: 0.8; stroke-linecap: square"/>
     </g>
     <g id="line2d_22">
      <g>
       <use xlink:href="#m48eff5e51e" x="46.965625" y="218.302743" style="stroke: #000000; stroke-width: 0.8"/>
      </g>
     </g>
     <g id="text_12">
      <!-- 400 -->
      <g transform="translate(20.878125 222.101962)scale(0.1 -0.1)">
       <use xlink:href="#DejaVuSans-34"/>
       <use xlink:href="#DejaVuSans-30" x="63.623047"/>
       <use xlink:href="#DejaVuSans-30" x="127.246094"/>
      </g>
     </g>
    </g>
    <g id="ytick_6">
     <g id="line2d_23">
      <path d="M 46.965625 167.300247 
L 716.565625 167.300247 
" clip-path="url(#p0e5b54ca02)" style="fill: none; stroke: #b0b0b0; stroke-width: 0.8; stroke-linecap: square"/>
     </g>
     <g id="line2d_24">
      <g>
       <use xlink:href="#m48eff5e51e" x="46.965625" y="167.300247" style="stroke: #000000; stroke-width: 0.8"/>
      </g>
     </g>
     <g id="text_13">
      <!-- 500 -->
      <g transform="translate(20.878125 171.099466)scale(0.1 -0.1)">
       <defs>
        <path id="DejaVuSans-35" d="M 691 4666 
L 3169 4666 
L 3169 4134 
L 1269 4134 
L 1269 2991 
Q 1406 3038 1543 3061 
Q 1681 3084 1819 3084 
Q 2600 3084 3056 2656 
Q 3513 2228 3513 1497 
Q 3513 744 3044 326 
Q 2575 -91 1722 -91 
Q 1428 -91 1123 -41 
Q 819 9 494 109 
L 494 744 
Q 775 591 1075 516 
Q 1375 441 1709 441 
Q 2250 441 2565 725 
Q 2881 1009 2881 1497 
Q 2881 1984 2565 2268 
Q 2250 2553 1709 2553 
Q 1456 2553 1204 2497 
Q 953 2441 691 2322 
L 691 4666 
z
" transform="scale(0.015625)"/>
       </defs>
       <use xlink:href="#DejaVuSans-35"/>
       <use xlink:href="#DejaVuSans-30" x="63.623047"/>
       <use xlink:href="#DejaVuSans-30" x="127.246094"/>
      </g>
     </g>
    </g>
    <g id="ytick_7">
     <g id="line2d_25">
      <path d="M 46.965625 116.297751 
L 716.565625 116.297751 
" clip-path="url(#p0e5b54ca02)" style="fill: none; stroke: #b0b0b0; stroke-width: 0.8; stroke-linecap: square"/>
     </g>
     <g id="line2d_26">
      <g>
       <use xlink:href="#m48eff5e51e" x="46.965625" y="116.297751" style="stroke: #000000; stroke-width: 0.8"/>
      </g>
     </g>
     <g id="text_14">
      <!-- 600 -->
      <g transform="translate(20.878125 120.09697)scale(0.1 -0.1)">
       <use xlink:href="#DejaVuSans-36"/>
       <use xlink:href="#DejaVuSans-30" x="63.623047"/>
       <use xlink:href="#DejaVuSans-30" x="127.246094"/>
      </g>
     </g>
    </g>
    <g id="ytick_8">
     <g id="line2d_27">
      <path d="M 46.965625 65.295255 
L 716.565625 65.295255 
" clip-path="url(#p0e5b54ca02)" style="fill: none; stroke: #b0b0b0; stroke-width: 0.8; stroke-linecap: square"/>
     </g>
     <g id="line2d_28">
      <g>
       <use xlink:href="#m48eff5e51e" x="46.965625" y="65.295255" style="stroke: #000000; stroke-width: 0.8"/>
      </g>
     </g>
     <g id="text_15">
      <!-- 700 -->
      <g transform="translate(20.878125 69.094474)scale(0.1 -0.1)">
       <defs>
        <path id="DejaVuSans-37" d="M 525 4666 
L 3525 4666 
L 3525 4397 
L 1831 0 
L 1172 0 
L 2766 4134 
L 525 4134 
L 525 4666 
z
" transform="scale(0.015625)"/>
       </defs>
       <use xlink:href="#DejaVuSans-37"/>
       <use xlink:href="#DejaVuSans-30" x="63.623047"/>
       <use xlink:href="#DejaVuSans-30" x="127.246094"/>
      </g>
     </g>
    </g>
    <g id="ytick_9">
     <g id="line2d_29">
      <path d="M 46.965625 14.292759 
L 716.565625 14.292759 
" clip-path="url(#p0e5b54ca02)" style="fill: none; stroke: #b0b0b0; stroke-width: 0.8; stroke-linecap: square"/>
     </g>
     <g id="line2d_30">
      <g>
       <use xlink:href="#m48eff5e51e" x="46.965625" y="14.292759" style="stroke: #000000; stroke-width: 0.8"/>
      </g>
     </g>
     <g id="text_16">
      <!-- 800 -->
      <g transform="translate(20.878125 18.091978)scale(0.1 -0.1)">
       <use xlink:href="#DejaVuSans-38"/>
       <use xlink:href="#DejaVuSans-30" x="63.623047"/>
       <use xlink:href="#DejaVuSans-30" x="127.246094"/>
      </g>
     </g>
    </g>
    <g id="text_17">
     <!-- Transistor  collector current [mA] -->
     <g transform="translate(14.798438 306.988437)rotate(-90)scale(0.1 -0.1)">
      <defs>
       <path id="DejaVuSans-54" d="M -19 4666 
L 3928 4666 
L 3928 4134 
L 2272 4134 
L 2272 0 
L 1638 0 
L 1638 4134 
L -19 4134 
L -19 4666 
z
" transform="scale(0.015625)"/>
       <path id="DejaVuSans-72" d="M 2631 2963 
Q 2534 3019 2420 3045 
Q 2306 3072 2169 3072 
Q 1681 3072 1420 2755 
Q 1159 2438 1159 1844 
L 1159 0 
L 581 0 
L 581 3500 
L 1159 3500 
L 1159 2956 
Q 1341 3275 1631 3429 
Q 1922 3584 2338 3584 
Q 2397 3584 2469 3576 
Q 2541 3569 2628 3553 
L 2631 2963 
z
" transform="scale(0.015625)"/>
       <path id="DejaVuSans-61" d="M 2194 1759 
Q 1497 1759 1228 1600 
Q 959 1441 959 1056 
Q 959 750 1161 570 
Q 1363 391 1709 391 
Q 2188 391 2477 730 
Q 2766 1069 2766 1631 
L 2766 1759 
L 2194 1759 
z
M 3341 1997 
L 3341 0 
L 2766 0 
L 2766 531 
Q 2569 213 2275 61 
Q 1981 -91 1556 -91 
Q 1019 -91 701 211 
Q 384 513 384 1019 
Q 384 1609 779 1909 
Q 1175 2209 1959 2209 
L 2766 2209 
L 2766 2266 
Q 2766 2663 2505 2880 
Q 2244 3097 1772 3097 
Q 1472 3097 1187 3025 
Q 903 2953 641 2809 
L 641 3341 
Q 956 3463 1253 3523 
Q 1550 3584 1831 3584 
Q 2591 3584 2966 3190 
Q 3341 2797 3341 1997 
z
" transform="scale(0.015625)"/>
       <path id="DejaVuSans-6e" d="M 3513 2113 
L 3513 0 
L 2938 0 
L 2938 2094 
Q 2938 2591 2744 2837 
Q 2550 3084 2163 3084 
Q 1697 3084 1428 2787 
Q 1159 2491 1159 1978 
L 1159 0 
L 581 0 
L 581 3500 
L 1159 3500 
L 1159 2956 
Q 1366 3272 1645 3428 
Q 1925 3584 2291 3584 
Q 2894 3584 3203 3211 
Q 3513 2838 3513 2113 
z
" transform="scale(0.015625)"/>
       <path id="DejaVuSans-6f" d="M 1959 3097 
Q 1497 3097 1228 2736 
Q 959 2375 959 1747 
Q 959 1119 1226 758 
Q 1494 397 1959 397 
Q 2419 397 2687 759 
Q 2956 1122 2956 1747 
Q 2956 2369 2687 2733 
Q 2419 3097 1959 3097 
z
M 1959 3584 
Q 2709 3584 3137 3096 
Q 3566 2609 3566 1747 
Q 3566 888 3137 398 
Q 2709 -91 1959 -91 
Q 1206 -91 779 398 
Q 353 888 353 1747 
Q 353 2609 779 3096 
Q 1206 3584 1959 3584 
z
" transform="scale(0.015625)"/>
       <path id="DejaVuSans-63" d="M 3122 3366 
L 3122 2828 
Q 2878 2963 2633 3030 
Q 2388 3097 2138 3097 
Q 1578 3097 1268 2742 
Q 959 2388 959 1747 
Q 959 1106 1268 751 
Q 1578 397 2138 397 
Q 2388 397 2633 464 
Q 2878 531 3122 666 
L 3122 134 
Q 2881 22 2623 -34 
Q 2366 -91 2075 -91 
Q 1284 -91 818 406 
Q 353 903 353 1747 
Q 353 2603 823 3093 
Q 1294 3584 2113 3584 
Q 2378 3584 2631 3529 
Q 2884 3475 3122 3366 
z
" transform="scale(0.015625)"/>
       <path id="DejaVuSans-6c" d="M 603 4863 
L 1178 4863 
L 1178 0 
L 603 0 
L 603 4863 
z
" transform="scale(0.015625)"/>
       <path id="DejaVuSans-65" d="M 3597 1894 
L 3597 1613 
L 953 1613 
Q 991 1019 1311 708 
Q 1631 397 2203 397 
Q 2534 397 2845 478 
Q 3156 559 3463 722 
L 3463 178 
Q 3153 47 2828 -22 
Q 2503 -91 2169 -91 
Q 1331 -91 842 396 
Q 353 884 353 1716 
Q 353 2575 817 3079 
Q 1281 3584 2069 3584 
Q 2775 3584 3186 3129 
Q 3597 2675 3597 1894 
z
M 3022 2063 
Q 3016 2534 2758 2815 
Q 2500 3097 2075 3097 
Q 1594 3097 1305 2825 
Q 1016 2553 972 2059 
L 3022 2063 
z
" transform="scale(0.015625)"/>
       <path id="DejaVuSans-6d" d="M 3328 2828 
Q 3544 3216 3844 3400 
Q 4144 3584 4550 3584 
Q 5097 3584 5394 3201 
Q 5691 2819 5691 2113 
L 5691 0 
L 5113 0 
L 5113 2094 
Q 5113 2597 4934 2840 
Q 4756 3084 4391 3084 
Q 3944 3084 3684 2787 
Q 3425 2491 3425 1978 
L 3425 0 
L 2847 0 
L 2847 2094 
Q 2847 2600 2669 2842 
Q 2491 3084 2119 3084 
Q 1678 3084 1418 2786 
Q 1159 2488 1159 1978 
L 1159 0 
L 581 0 
L 581 3500 
L 1159 3500 
L 1159 2956 
Q 1356 3278 1631 3431 
Q 1906 3584 2284 3584 
Q 2666 3584 2933 3390 
Q 3200 3197 3328 2828 
z
" transform="scale(0.015625)"/>
       <path id="DejaVuSans-41" d="M 2188 4044 
L 1331 1722 
L 3047 1722 
L 2188 4044 
z
M 1831 4666 
L 2547 4666 
L 4325 0 
L 3669 0 
L 3244 1197 
L 1141 1197 
L 716 0 
L 50 0 
L 1831 4666 
z
" transform="scale(0.015625)"/>
      </defs>
      <use xlink:href="#DejaVuSans-54"/>
      <use xlink:href="#DejaVuSans-72" x="46.333984"/>
      <use xlink:href="#DejaVuSans-61" x="87.447266"/>
      <use xlink:href="#DejaVuSans-6e" x="148.726562"/>
      <use xlink:href="#DejaVuSans-73" x="212.105469"/>
      <use xlink:href="#DejaVuSans-69" x="264.205078"/>
      <use xlink:href="#DejaVuSans-73" x="291.988281"/>
      <use xlink:href="#DejaVuSans-74" x="344.087891"/>
      <use xlink:href="#DejaVuSans-6f" x="383.296875"/>
      <use xlink:href="#DejaVuSans-72" x="444.478516"/>
      <use xlink:href="#DejaVuSans-20" x="485.591797"/>
      <use xlink:href="#DejaVuSans-20" x="517.378906"/>
      <use xlink:href="#DejaVuSans-63" x="549.166016"/>
      <use xlink:href="#DejaVuSans-6f" x="604.146484"/>
      <use xlink:href="#DejaVuSans-6c" x="665.328125"/>
      <use xlink:href="#DejaVuSans-6c" x="693.111328"/>
      <use xlink:href="#DejaVuSans-65" x="720.894531"/>
      <use xlink:href="#DejaVuSans-63" x="782.417969"/>
      <use xlink:href="#DejaVuSans-74" x="837.398438"/>
      <use xlink:href="#DejaVuSans-6f" x="876.607422"/>
      <use xlink:href="#DejaVuSans-72" x="937.789062"/>
      <use xlink:href="#DejaVuSans-20" x="978.902344"/>
      <use xlink:href="#DejaVuSans-63" x="1010.689453"/>
      <use xlink:href="#DejaVuSans-75" x="1065.669922"/>
      <use xlink:href="#DejaVuSans-72" x="1129.048828"/>
      <use xlink:href="#DejaVuSans-72" x="1168.412109"/>
      <use xlink:href="#DejaVuSans-65" x="1207.275391"/>
      <use xlink:href="#DejaVuSans-6e" x="1268.798828"/>
      <use xlink:href="#DejaVuSans-74" x="1332.177734"/>
      <use xlink:href="#DejaVuSans-20" x="1371.386719"/>
      <use xlink:href="#DejaVuSans-5b" x="1403.173828"/>
      <use xlink:href="#DejaVuSans-6d" x="1442.1875"/>
      <use xlink:href="#DejaVuSans-41" x="1539.599609"/>
      <use xlink:href="#DejaVuSans-5d" x="1608.007812"/>
     </g>
    </g>
   </g>
   <g id="line2d_31">
    <path d="M 46.965625 422.312727 
L 52.942207 422.201858 
L 53.076127 421.909521 
L 53.210047 420.930973 
L 53.357359 417.588488 
L 53.531455 407.287827 
L 53.826079 373.147119 
L 55.888447 99.473011 
L 56.491087 55.244623 
L 56.959807 34.87252 
L 57.294607 28.000278 
L 57.482095 26.967373 
L 57.495487 26.971066 
L 57.575839 27.210165 
L 57.723151 28.614098 
L 57.964207 33.602499 
L 58.299007 46.045193 
L 58.727551 71.212516 
L 59.263231 116.85718 
L 59.932831 194.629985 
L 60.883663 334.829458 
L 61.486303 411.090922 
L 61.727359 420.504509 
L 61.941631 422.061756 
L 62.155903 422.282312 
L 62.651407 422.312561 
L 94.939519 422.260535 
L 95.100223 422.060959 
L 95.234143 421.427651 
L 95.368063 419.45402 
L 95.528767 412.826935 
L 95.756431 391.783857 
L 96.292111 314.05444 
L 97.430431 154.54444 
L 98.140207 84.321478 
L 98.702671 47.95029 
L 99.144607 31.874444 
L 99.439231 27.370248 
L 99.559759 26.967413 
L 99.599935 27.019085 
L 99.707071 27.611382 
L 99.894559 30.237503 
L 100.175791 37.959582 
L 100.550767 55.263353 
L 101.032879 89.067563 
L 101.622127 147.328682 
L 102.372079 245.591058 
L 103.644319 415.951816 
L 103.871983 421.352748 
L 104.072863 422.169138 
L 104.300527 422.297935 
L 105.197791 422.312726 
L 137.084143 422.207264 
L 137.218063 421.928501 
L 137.351983 420.992208 
L 137.485903 418.221519 
L 137.659999 408.782507 
L 137.941231 377.535244 
L 140.164303 88.350636 
L 140.740159 49.750081 
L 141.182095 32.767377 
L 141.490111 27.539218 
L 141.637423 26.968444 
L 141.664207 26.998961 
L 141.757951 27.431168 
L 141.932047 29.57598 
L 142.199887 36.274832 
L 142.561471 51.810663 
L 143.030191 82.874469 
L 143.606047 137.318274 
L 144.329215 228.816222 
L 145.762159 417.748818 
L 145.976431 421.589681 
L 146.177311 422.206624 
L 146.431759 422.304544 
L 147.945055 422.312727 
L 179.161807 422.202882 
L 179.295727 421.913115 
L 179.429647 420.942546 
L 179.576959 417.622757 
L 179.751055 407.366671 
L 180.045679 373.279014 
L 182.108047 99.558035 
L 182.710687 55.298338 
L 183.179407 34.901066 
L 183.514207 28.010629 
L 183.701695 26.967504 
L 183.715087 26.970466 
L 183.795439 27.205184 
L 183.942751 28.601089 
L 184.170415 33.212518 
L 184.491823 44.772386 
L 184.920367 69.274068 
L 185.456047 114.118878 
L 186.112255 189.242955 
L 187.022911 322.267257 
L 187.705903 411.025104 
L 187.946959 420.489573 
L 188.161231 422.059465 
L 188.375503 422.28202 
L 188.871007 422.31256 
L 221.159119 422.261025 
L 221.319823 422.063237 
L 221.453743 421.435273 
L 221.587663 419.476368 
L 221.748367 412.885375 
L 221.976031 391.896415 
L 222.498319 316.279109 
L 223.650031 154.655232 
L 224.359807 84.397414 
L 224.922271 47.996644 
L 225.364207 31.896955 
L 225.658831 27.376724 
L 225.779359 26.967317 
L 225.819535 27.016798 
L 225.926671 27.603254 
L 226.114159 30.219168 
L 226.395391 37.927513 
L 226.676623 51.539793 
L 226.783759 68.416251 
L 226.931071 146.688359 
L 227.131951 205.770929 
L 227.198911 207.555543 
L 227.252479 206.71109 
L 227.439967 197.998344 
L 227.841727 181.656302 
L 227.895295 181.286591 
L 227.948863 181.638579 
L 228.055999 184.888932 
L 228.243487 199.513695 
L 228.672031 257.301778 
L 229.837135 414.573727 
L 230.064799 421.079763 
L 230.265679 422.124758 
L 230.479951 422.290259 
L 231.109375 422.3127 
L 263.290351 422.221132 
L 263.437663 421.931931 
L 263.571583 421.003304 
L 263.705503 418.25193 
L 263.879599 408.856472 
L 264.160831 377.663781 
L 266.397295 87.323499 
L 266.973151 49.120076 
L 267.415087 32.45051 
L 267.723103 27.442665 
L 267.857023 26.968122 
L 267.883807 26.997179 
L 267.977551 27.424287 
L 268.151647 29.562519 
L 268.339135 34.478064 
L 268.432879 44.828417 
L 268.526623 99.06271 
L 268.767679 235.669101 
L 268.834639 238.53314 
L 268.888207 237.743504 
L 269.062303 228.139491 
L 269.839039 182.171895 
L 269.959567 180.396698 
L 269.999743 180.558518 
L 270.093487 182.741836 
L 270.254191 193.101148 
L 270.575599 232.579179 
L 271.981759 417.715308 
L 272.196031 421.583337 
L 272.396911 422.205633 
L 272.651359 422.304464 
L 274.151263 422.312727 
L 305.381407 422.203898 
L 305.515327 421.916677 
L 305.649247 420.954029 
L 305.796559 417.656821 
L 305.970655 407.445268 
L 306.265279 373.410816 
L 308.341039 98.444079 
L 308.943679 54.596187 
L 309.412399 34.529885 
L 309.747199 27.87867 
L 309.921295 26.967686 
L 309.948079 26.982481 
L 310.041823 27.359681 
L 310.202527 29.185154 
L 310.403407 34.169335 
L 310.497151 43.935796 
L 310.590895 95.95422 
L 310.845343 236.168559 
L 310.912303 238.174341 
L 310.965871 237.030167 
L 311.166751 225.200063 
L 311.889919 182.165274 
L 312.037231 179.866797 
L 312.064015 179.985172 
L 312.144367 181.565487 
L 312.291679 189.837666 
L 312.572911 221.958562 
L 314.126383 419.722451 
L 314.340655 421.937799 
L 314.541535 422.259716 
L 314.889727 422.311252 
L 322.603519 422.312727 
L 347.445679 422.213341 
L 347.592991 421.900835 
L 347.726911 420.903037 
L 347.874223 417.506025 
L 348.048319 407.099009 
L 348.342943 372.832546 
L 350.391919 100.476288 
L 350.994559 55.879728 
L 351.463279 35.211585 
L 351.811471 27.975828 
L 351.998959 26.967273 
L 352.012351 26.972705 
L 352.092703 27.222248 
L 352.240015 28.645962 
L 352.440895 32.846877 
L 352.548031 40.292195 
L 352.628383 69.505593 
L 352.963183 237.889636 
L 352.976575 237.975019 
L 353.003359 237.717917 
L 353.110495 233.215372 
L 354.101503 179.56268 
L 354.128287 179.632657 
L 354.208639 181.04915 
L 354.355951 188.983707 
L 354.623791 218.881088 
L 356.217439 420.079402 
L 356.431711 421.995379 
L 356.645983 422.273811 
L 357.074527 422.312279 
L 381.796159 422.312727 
L 389.523343 422.209206 
L 389.657263 421.935332 
L 389.791183 421.014313 
L 389.925103 418.28215 
L 390.099199 408.930184 
L 390.380431 377.792211 
L 392.616895 87.401334 
L 393.192751 49.16769 
L 393.634687 32.4743 
L 393.942703 27.449696 
L 394.076623 26.967851 
L 394.103407 26.995448 
L 394.197151 27.41745 
L 394.371247 29.547383 
L 394.558735 34.691735 
L 394.639087 43.877754 
L 394.732831 96.225376 
L 394.973887 234.766058 
L 395.054239 237.84211 
L 395.107807 236.675763 
L 395.308687 224.81585 
L 396.031855 181.725773 
L 396.179167 179.387169 
L 396.205951 179.495896 
L 396.286303 181.042733 
L 396.433615 189.24125 
L 396.714847 221.250085 
L 398.268319 419.609684 
L 398.482591 421.919262 
L 398.683471 422.256957 
L 399.018271 422.310934 
L 405.392863 422.312727 
L 431.601007 422.204904 
L 431.734927 421.920209 
L 431.868847 420.965422 
L 432.016159 417.690682 
L 432.190255 407.523616 
L 432.484879 373.542524 
L 434.560639 98.528521 
L 435.163279 54.649291 
L 435.631999 34.557807 
L 435.966799 27.888394 
L 436.140895 26.967919 
L 436.167679 26.981254 
L 436.248031 27.269198 
L 436.408735 28.961711 
L 436.609615 33.66567 
L 436.703359 42.164617 
L 436.783711 77.700924 
L 437.078335 236.904894 
L 437.118511 237.783266 
L 437.172079 236.881061 
L 437.346175 227.147415 
L 438.122911 181.102746 
L 438.243439 179.291013 
L 438.283615 179.436419 
L 438.377359 181.572202 
L 438.538063 191.826784 
L 438.859471 231.126102 
L 440.279023 417.827836 
L 440.493295 421.604582 
L 440.694175 422.208947 
L 440.948623 422.304732 
L 442.488703 422.312727 
L 473.665279 422.214262 
L 473.812591 421.904503 
L 473.946511 420.914827 
L 474.093823 417.540784 
L 474.267919 407.178441 
L 474.562543 372.96466 
L 476.624911 99.355569 
L 477.227551 55.170461 
L 477.696271 34.833149 
L 478.031071 27.986056 
L 478.218559 26.96728 
L 478.231951 26.971982 
L 478.312303 27.217144 
L 478.459615 28.632898 
L 478.660495 32.845252 
L 478.754239 38.741657 
L 478.834591 62.906327 
L 479.196175 237.74347 
L 479.209567 237.648156 
L 479.303311 234.295207 
L 479.745247 204.373909 
L 480.213967 180.588686 
L 480.321103 179.228634 
L 480.361279 179.422912 
L 480.455023 181.689402 
L 480.615727 192.182635 
L 480.937135 231.712015 
L 482.356687 417.970237 
L 482.570959 421.631234 
L 482.771839 422.213092 
L 483.026287 422.305067 
L 484.633327 422.312727 
L 515.742943 422.210164 
L 515.876863 421.938703 
L 516.010783 421.025236 
L 516.144703 418.312182 
L 516.318799 409.003643 
L 516.600031 377.920534 
L 518.849887 86.381948 
L 519.425743 48.545764 
L 519.867679 32.165636 
L 520.175695 27.361383 
L 520.296223 26.967632 
L 520.336399 27.022333 
L 520.443535 27.622747 
L 520.631023 30.277068 
L 520.791727 35.495942 
L 520.872079 47.654543 
L 520.965823 110.510177 
L 521.193487 234.761028 
L 521.260447 237.705601 
L 521.314015 236.943799 
L 521.474719 228.258708 
L 522.291631 180.452572 
L 522.398767 179.196019 
L 522.438943 179.437645 
L 522.532687 181.830373 
L 522.706783 193.812427 
L 523.068367 239.963821 
L 524.394175 416.601047 
L 524.621839 421.473287 
L 524.822719 422.188334 
L 525.063775 422.30163 
L 526.215487 422.312727 
L 557.820607 422.205901 
L 557.954527 421.923711 
L 558.088447 420.976727 
L 558.235759 417.72434 
L 558.409855 407.601717 
L 558.704479 373.674139 
L 560.780239 98.613011 
L 561.382879 54.702444 
L 561.851599 34.585781 
L 562.186399 27.89817 
L 562.373887 26.968975 
L 562.387279 26.980078 
L 562.467631 27.263641 
L 562.628335 28.947416 
L 562.829215 33.645664 
L 562.922959 42.191553 
L 563.003311 77.922506 
L 563.297935 236.845753 
L 563.338111 237.708107 
L 563.391679 236.792681 
L 563.565775 227.044082 
L 564.342511 180.994645 
L 564.463039 179.181014 
L 564.503215 179.32551 
L 564.596959 181.458504 
L 564.757663 191.70623 
L 565.079071 230.991231 
L 566.512015 418.24377 
L 566.726287 421.681694 
L 566.927167 422.220902 
L 567.195007 422.306606 
L 569.163631 422.312727 
L 599.884879 422.215174 
L 600.032191 421.90814 
L 600.166111 420.926526 
L 600.313423 417.575336 
L 600.487519 407.257626 
L 600.782143 373.096682 
L 602.844511 99.440526 
L 603.447151 55.224106 
L 603.915871 34.861623 
L 604.250671 27.996336 
L 604.438159 26.967338 
L 604.451551 26.97131 
L 604.531903 27.212091 
L 604.679215 28.619814 
L 604.880095 32.819819 
L 604.973839 38.694491 
L 605.054191 62.765232 
L 605.415775 237.700184 
L 605.429167 237.606702 
L 605.522911 234.260881 
L 605.964847 204.339681 
L 606.433567 180.535952 
L 606.540703 179.165509 
L 606.580879 179.35496 
L 606.674623 181.608337 
L 606.835327 192.076648 
L 607.156735 231.577456 
L 608.576287 417.938077 
L 608.790559 421.625237 
L 608.991439 422.212161 
L 609.245887 422.304992 
L 610.839535 422.312727 
L 641.962543 422.211114 
L 642.109855 421.891968 
L 642.243775 420.87458 
L 642.391087 417.42239 
L 642.565183 406.908792 
L 642.859807 372.517453 
L 644.895391 101.486171 
L 645.498031 56.521789 
L 645.980143 35.142354 
L 646.328335 27.951671 
L 646.515823 26.967464 
L 646.529215 26.974637 
L 646.609567 27.234618 
L 646.756879 28.677617 
L 646.957759 32.959584 
L 647.051503 39.234803 
L 647.131855 65.251467 
L 647.493439 237.680989 
L 647.560399 235.964072 
L 647.814847 219.873607 
L 648.457663 181.917111 
L 648.618367 179.159183 
L 648.645151 179.267111 
L 648.725503 180.810779 
L 648.872815 189.000118 
L 649.154047 220.985631 
L 650.707519 419.566689 
L 650.921791 421.912151 
L 651.122671 422.255896 
L 651.457471 422.310897 
L 657.711535 422.312727 
L 684.040207 422.206889 
L 684.174127 421.927182 
L 684.308047 420.987944 
L 684.441967 418.209845 
L 684.616063 408.75417 
L 684.897295 377.486086 
L 687.120367 88.320655 
L 687.696223 49.731641 
L 688.138159 32.75804 
L 688.446175 27.536285 
L 688.593487 26.968582 
L 688.620271 26.999658 
L 688.714015 27.433839 
L 688.888111 29.587032 
L 689.075599 34.889382 
L 689.155951 44.971427 
L 689.249695 100.86509 
L 689.490751 235.063709 
L 689.557711 237.692287 
L 689.611279 236.800692 
L 689.785375 227.076658 
L 690.562111 180.994794 
L 690.696031 179.160006 
L 690.722815 179.297624 
L 690.816559 181.408381 
L 690.977263 191.614775 
L 691.298671 230.857344 
L 692.731615 418.213308 
L 692.945887 421.676122 
L 693.146767 422.220042 
L 693.414607 422.306546 
L 695.369839 422.312727 
L 716.565625 422.312727 
L 716.565625 422.312727 
" clip-path="url(#p0e5b54ca02)" style="fill: none; stroke: #1f77b4; stroke-width: 1.5; stroke-linecap: square"/>
   </g>
   <g id="patch_3">
    <path d="M 46.965625 442.08 
L 46.965625 7.2 
" style="fill: none; stroke: #000000; stroke-width: 0.8; stroke-linejoin: miter; stroke-linecap: square"/>
   </g>
   <g id="patch_4">
    <path d="M 716.565625 442.08 
L 716.565625 7.2 
" style="fill: none; stroke: #000000; stroke-width: 0.8; stroke-linejoin: miter; stroke-linecap: square"/>
   </g>
   <g id="patch_5">
    <path d="M 46.965625 442.08 
L 716.565625 442.08 
" style="fill: none; stroke: #000000; stroke-width: 0.8; stroke-linejoin: miter; stroke-linecap: square"/>
   </g>
   <g id="patch_6">
    <path d="M 46.965625 7.2 
L 716.565625 7.2 
" style="fill: none; stroke: #000000; stroke-width: 0.8; stroke-linejoin: miter; stroke-linecap: square"/>
   </g>
  </g>
 </g>
 <defs>
  <clipPath id="p0e5b54ca02">
   <rect x="46.965625" y="7.2" width="669.6" height="434.88"/>
  </clipPath>
 </defs>
</svg>