<?xml version="1.0" encoding="utf-8" standalone="no"?>
<!DOCTYPE svg PUBLIC "-//W3C//DTD SVG 1.1//EN"
  "http://www.w3.org/Graphics/SVG/1.1/DTD/svg11.dtd">
<svg xmlns:xlink="http://www.w3.org/1999/xlink" width="385.368pt" height="280.4pt" viewBox="0 0 385.368 280.4" xmlns="http://www.w3.org/2000/svg" version="1.1">
 <metadata>
  <rdf:RDF xmlns:dc="http://purl.org/dc/elements/1.1/" xmlns:cc="http://creativecommons.org/ns#" xmlns:rdf="http://www.w3.org/1999/02/22-rdf-syntax-ns#">
   <cc:Work>
    <dc:type rdf:resource="http://purl.org/dc/dcmitype/StillImage"/>
    <dc:date>2025-10-11T22:07:44.739080</dc:date>
    <dc:format>image/svg+xml</dc:format>
    <dc:creator>
     <cc:Agent>
      <dc:title>Matplotlib v3.10.6, https://matplotlib.org/</dc:title>
     </cc:Agent>
    </dc:creator>
   </cc:Work>
  </rdf:RDF>
 </metadata>
 <defs>
  <style type="text/css">*{stroke-linejoin: round; stroke-linecap: butt}</style>
 </defs>
 <g id="figure_1">
  <g id="patch_1">
   <path d="M 0 280.4 
L 385.368 280.4 
L 385.368 0 
L 0 0 
z
" style="fill: #ffffff"/>
  </g>
  <g id="axes_1">
   <g id="line2d_1">
    <path d="M 117.084 36.68 
L 117.084 22.28 
" clip-path="url(#p529f4749e1)" style="fill: none; stroke: #000000; stroke-width: 2; stroke-linecap: round"/>
   </g>
   <g id="line2d_2">
    <path d="M 117.084 22.28 
L 110.334 22.28 
" clip-path="url(#p529f4749e1)" style="fill: none; stroke: #000000; stroke-width: 2; stroke-linecap: round"/>
   </g>
   <g id="line2d_3">
    <path d="M 117.084 22.28 
L 123.834 22.28 
" clip-path="url(#p529f4749e1)" style="fill: none; stroke: #000000; stroke-width: 2; stroke-linecap: round"/>
   </g>
   <g id="line2d_4">
    <path d="M 117.084 36.68 
L 117.084 72.68 
L 120.048187 72.81407 
L 123.039107 73.22176 
L 125.805917 73.894001 
L 128.116568 74.799538 
L 129.038308 75.324567 
L 129.777271 75.887547 
L 130.317881 76.479767 
L 130.648744 77.091902 
L 130.762884 77.714207 
L 130.657898 78.33672 
L 130.335996 78.949478 
L 129.803965 79.542723 
L 129.073018 80.107106 
L 128.158564 80.633888 
L 125.859691 81.543825 
L 123.10015 82.221342 
L 120.11138 82.63474 
L 117.144043 82.774472 
L 114.447006 82.653942 
L 112.246465 82.308382 
L 110.726976 81.791898 
L 110.265011 81.490537 
L 110.015977 81.172928 
L 109.985122 80.848923 
L 110.173097 80.528509 
L 110.57594 80.221597 
L 111.987915 79.686292 
L 114.102626 79.313029 
L 116.742716 79.158236 
L 119.686764 79.260019 
L 122.687858 79.634963 
L 125.4943 80.276748 
L 127.870719 81.156671 
L 128.833494 81.671402 
L 129.617808 82.226057 
L 130.207131 82.812102 
L 130.589041 83.420342 
L 130.755487 84.041113 
L 130.702962 84.664487 
L 130.432572 85.280482 
L 129.950017 85.879271 
L 129.265468 86.45139 
L 128.393355 86.987935 
L 126.163529 87.922621 
L 123.447553 88.63006 
L 120.473211 89.076046 
L 117.489956 89.248297 
L 114.74799 89.15749 
L 112.477277 88.836365 
L 110.868258 88.336977 
L 110.356569 88.040936 
L 110.05588 87.726332 
L 109.972529 87.402952 
L 110.108275 87.080768 
L 110.460254 86.769731 
L 111.021048 86.479551 
L 112.717648 85.998228 
L 115.055782 85.702289 
L 117.839355 85.641678 
L 120.834913 85.846602 
L 123.791224 86.324998 
L 126.460345 87.061866 
L 128.618422 88.020531 
L 129.447138 88.566371 
L 130.08446 89.145713 
L 130.516955 89.749502 
L 130.735505 90.368169 
L 130.735505 90.991831 
L 130.516955 91.610498 
L 130.08446 92.214287 
L 129.447138 92.793629 
L 128.618422 93.339469 
L 127.61578 93.84346 
L 125.176473 94.697065 
L 122.333798 95.307979 
L 119.326165 95.650087 
L 116.405822 95.719821 
L 113.817691 95.536457 
L 111.778837 95.140496 
L 110.460254 94.590269 
L 110.108275 94.279232 
L 109.972529 93.957048 
L 110.05588 93.633668 
L 110.356569 93.319064 
L 110.868258 93.023023 
L 112.477277 92.523635 
L 114.74799 92.20251 
L 117.489956 92.111703 
L 120.473211 92.283954 
L 123.447553 92.72994 
L 126.163529 93.437379 
L 128.393355 94.372065 
L 129.265468 94.90861 
L 129.950017 95.480729 
L 130.432572 96.079518 
L 130.702962 96.695513 
L 130.755487 97.318887 
L 130.589041 97.939658 
L 130.207131 98.547898 
L 129.617808 99.133943 
L 128.833494 99.688598 
L 127.870719 100.203329 
L 125.4943 101.083252 
L 122.687858 101.725037 
L 119.686764 102.099981 
L 116.742716 102.201764 
L 114.102626 102.046971 
L 111.987915 101.673708 
L 110.57594 101.138403 
L 110.173097 100.831491 
L 109.985122 100.511077 
L 110.015977 100.187072 
L 110.265011 99.869463 
L 110.726976 99.568102 
L 112.246465 99.051618 
L 114.447006 98.706058 
L 117.144043 98.585528 
L 120.11138 98.72526 
L 123.10015 99.138658 
L 125.859691 99.816175 
L 128.158564 100.726112 
L 129.073018 101.252894 
L 129.803965 101.817277 
L 130.335996 102.410522 
L 130.657898 103.02328 
L 130.762884 103.645793 
L 130.648744 104.268098 
L 130.317881 104.880233 
L 129.777271 105.472453 
L 129.038308 106.035433 
L 128.116568 106.560462 
L 125.805917 107.465999 
L 123.039107 108.13824 
L 120.048187 108.54593 
L 117.084 108.68 
L 117.084 144.68 
L 117.084 144.68 
" clip-path="url(#p529f4749e1)" style="fill: none; stroke: #000000; stroke-width: 2; stroke-linecap: round"/>
   </g>
   <g id="line2d_5">
    <path d="M 117.084 144.68 
L 167.844 144.68 
M 167.844 135.68 
L 167.844 153.68 
M 174.324 135.68 
L 174.324 153.68 
M 174.324 144.68 
L 225.084 144.68 
" clip-path="url(#p529f4749e1)" style="fill: none; stroke: #000000; stroke-width: 2; stroke-linecap: round"/>
   </g>
   <g id="line2d_6">
    <path d="M 225.084 144.68 
L 261.084 144.68 
L 261.21807 141.715813 
L 261.62576 138.724893 
L 262.298001 135.958083 
L 263.203538 133.647432 
L 263.728567 132.725692 
L 264.291547 131.986729 
L 264.883767 131.446119 
L 265.495902 131.115256 
L 266.118207 131.001116 
L 266.74072 131.106102 
L 267.353478 131.428004 
L 267.946723 131.960035 
L 268.511106 132.690982 
L 269.037888 133.605436 
L 269.947825 135.904309 
L 270.625342 138.66385 
L 271.03874 141.65262 
L 271.178472 144.619957 
L 271.057942 147.316994 
L 270.712382 149.517535 
L 270.195898 151.037024 
L 269.894537 151.498989 
L 269.576928 151.748023 
L 269.252923 151.778878 
L 268.932509 151.590903 
L 268.625597 151.18806 
L 268.090292 149.776085 
L 267.717029 147.661374 
L 267.562236 145.021284 
L 267.664019 142.077236 
L 268.038963 139.076142 
L 268.680748 136.2697 
L 269.560671 133.893281 
L 270.075402 132.930506 
L 270.630057 132.146192 
L 271.216102 131.556869 
L 271.824342 131.174959 
L 272.445113 131.008513 
L 273.068487 131.061038 
L 273.684482 131.331428 
L 274.283271 131.813983 
L 274.85539 132.498532 
L 275.391935 133.370645 
L 276.326621 135.600471 
L 277.03406 138.316447 
L 277.480046 141.290789 
L 277.652297 144.274044 
L 277.56149 147.01601 
L 277.240365 149.286723 
L 276.740977 150.895742 
L 276.444936 151.407431 
L 276.130332 151.70812 
L 275.806952 151.791471 
L 275.484768 151.655725 
L 275.173731 151.303746 
L 274.883551 150.742952 
L 274.402228 149.046352 
L 274.106289 146.708218 
L 274.045678 143.924645 
L 274.250602 140.929087 
L 274.728998 137.972776 
L 275.465866 135.303655 
L 276.424531 133.145578 
L 276.970371 132.316862 
L 277.549713 131.67954 
L 278.153502 131.247045 
L 278.772169 131.028495 
L 279.395831 131.028495 
L 280.014498 131.247045 
L 280.618287 131.67954 
L 281.197629 132.316862 
L 281.743469 133.145578 
L 282.24746 134.14822 
L 283.101065 136.587527 
L 283.711979 139.430202 
L 284.054087 142.437835 
L 284.123821 145.358178 
L 283.940457 147.946309 
L 283.544496 149.985163 
L 282.994269 151.303746 
L 282.683232 151.655725 
L 282.361048 151.791471 
L 282.037668 151.70812 
L 281.723064 151.407431 
L 281.427023 150.895742 
L 280.927635 149.286723 
L 280.60651 147.01601 
L 280.515703 144.274044 
L 280.687954 141.290789 
L 281.13394 138.316447 
L 281.841379 135.600471 
L 282.776065 133.370645 
L 283.31261 132.498532 
L 283.884729 131.813983 
L 284.483518 131.331428 
L 285.099513 131.061038 
L 285.722887 131.008513 
L 286.343658 131.174959 
L 286.951898 131.556869 
L 287.537943 132.146192 
L 288.092598 132.930506 
L 288.607329 133.893281 
L 289.487252 136.2697 
L 290.129037 139.076142 
L 290.503981 142.077236 
L 290.605764 145.021284 
L 290.450971 147.661374 
L 290.077708 149.776085 
L 289.542403 151.18806 
L 289.235491 151.590903 
L 288.915077 151.778878 
L 288.591072 151.748023 
L 288.273463 151.498989 
L 287.972102 151.037024 
L 287.455618 149.517535 
L 287.110058 147.316994 
L 286.989528 144.619957 
L 287.12926 141.65262 
L 287.542658 138.66385 
L 288.220175 135.904309 
L 289.130112 133.605436 
L 289.656894 132.690982 
L 290.221277 131.960035 
L 290.814522 131.428004 
L 291.42728 131.106102 
L 292.049793 131.001116 
L 292.672098 131.115256 
L 293.284233 131.446119 
L 293.876453 131.986729 
L 294.439433 132.725692 
L 294.964462 133.647432 
L 295.869999 135.958083 
L 296.54224 138.724893 
L 296.94993 141.715813 
L 297.084 144.68 
L 333.084 144.68 
L 333.084 144.68 
" clip-path="url(#p529f4749e1)" style="fill: none; stroke: #000000; stroke-width: 2; stroke-linecap: round"/>
   </g>
   <g id="line2d_7">
    <path d="M 333.084 144.68 
L 333.084 180.68 
L 342.084 183.68 
L 324.084 189.68 
L 342.084 195.68 
L 324.084 201.68 
L 342.084 207.68 
L 324.084 213.68 
L 333.084 216.68 
L 333.084 252.68 
" clip-path="url(#p529f4749e1)" style="fill: none; stroke: #000000; stroke-width: 2; stroke-linecap: round"/>
   </g>
   <g id="line2d_8">
    <path d="M 333.084 144.68 
L 342.084 144.68 
L 351.084 144.68 
" clip-path="url(#p529f4749e1)" style="fill: none; stroke: #000000; stroke-width: 2; stroke-linecap: round"/>
   </g>
   <g id="line2d_9">
    <path d="M 333.084 252.68 
L 342.084 252.68 
L 351.084 252.68 
" clip-path="url(#p529f4749e1)" style="fill: none; stroke: #000000; stroke-width: 2; stroke-linecap: round"/>
   </g>
   <g id="line2d_10">
    <path d="M 333.084 252.68 
L 225.084 252.68 
L 117.084 252.68 
" clip-path="url(#p529f4749e1)" style="fill: none; stroke: #000000; stroke-width: 2; stroke-linecap: round"/>
   </g>
   <g id="line2d_11">
    <path d="M 117.084 144.68 
L 117.084 195.44 
M 126.084 195.44 
L 108.084 195.44 
M 126.084 201.92 
L 108.084 201.92 
M 117.084 201.92 
L 117.084 252.68 
" clip-path="url(#p529f4749e1)" style="fill: none; stroke: #000000; stroke-width: 2; stroke-linecap: round"/>
   </g>
   <g id="line2d_12">
    <path d="M 117.084 252.68 
L 117.084 267.08 
L 108.084 267.08 
L 126.084 267.08 
M 110.784 271.4 
L 123.384 271.4 
M 115.284 275.72 
L 118.884 275.72 
" clip-path="url(#p529f4749e1)" style="fill: none; stroke: #000000; stroke-width: 2; stroke-linecap: round"/>
   </g>
   <g id="line2d_13">
    <path d="M 117.084 252.68 
L 99.084 252.68 
L 81.084 252.68 
" clip-path="url(#p529f4749e1)" style="fill: none; stroke: #000000; stroke-width: 2; stroke-linecap: round"/>
   </g>
   <g id="line2d_14">
    <path d="M 81.084 252.68 
L 81.084 243.68 
L 81.084 234.68 
" clip-path="url(#p529f4749e1)" style="fill: none; stroke: #000000; stroke-width: 2; stroke-linecap: round"/>
   </g>
   <g id="line2d_15">
    <path d="M 81.084 234.68 
L 81.084 219.68 
L 57.084 219.68 
L 57.084 195.68 
L 81.084 195.68 
L 81.084 180.68 
" clip-path="url(#p529f4749e1)" style="fill: none; stroke: #000000; stroke-width: 2; stroke-linecap: round"/>
   </g>
   <g id="line2d_16">
    <path d="M 51.084 219.68 
L 51.084 195.68 
" clip-path="url(#p529f4749e1)" style="fill: none; stroke: #000000; stroke-width: 2; stroke-linecap: round"/>
   </g>
   <g id="line2d_17">
    <path d="M 51.084 207.68 
L 31.884 207.68 
" clip-path="url(#p529f4749e1)" style="fill: none; stroke: #000000; stroke-width: 2; stroke-linecap: round"/>
   </g>
   <g id="line2d_18">
    <path d="M 81.084 180.68 
L 81.084 162.68 
L 81.084 144.68 
" clip-path="url(#p529f4749e1)" style="fill: none; stroke: #000000; stroke-width: 2; stroke-linecap: round"/>
   </g>
   <g id="line2d_19">
    <path d="M 81.084 144.68 
L 99.084 144.68 
L 117.084 144.68 
" clip-path="url(#p529f4749e1)" style="fill: none; stroke: #000000; stroke-width: 2; stroke-linecap: round"/>
   </g>
   <g id="text_1">
    <!-- $V_{dd}$ -->
    <g transform="translate(105.814 15.768438) scale(0.14 -0.14)">
     <defs>
      <path id="DejaVuSans-Oblique-56" d="M 1319 0 
L 500 4666 
L 1119 4666 
L 1797 653 
L 4063 4666 
L 4750 4666 
L 2053 0 
L 1319 0 
z
" transform="scale(0.015625)"/>
      <path id="DejaVuSans-Oblique-64" d="M 2675 525 
Q 2444 222 2128 65 
Q 1813 -91 1428 -91 
Q 903 -91 598 267 
Q 294 625 294 1247 
Q 294 1766 478 2236 
Q 663 2706 1013 3078 
Q 1244 3325 1534 3454 
Q 1825 3584 2144 3584 
Q 2481 3584 2739 3421 
Q 2997 3259 3138 2956 
L 3513 4863 
L 4091 4863 
L 3144 0 
L 2566 0 
L 2675 525 
z
M 891 1350 
Q 891 897 1095 644 
Q 1300 391 1663 391 
Q 1931 391 2161 520 
Q 2391 650 2566 903 
Q 2750 1166 2856 1509 
Q 2963 1853 2963 2188 
Q 2963 2622 2758 2865 
Q 2553 3109 2194 3109 
Q 1922 3109 1687 2981 
Q 1453 2853 1288 2613 
Q 1106 2353 998 2009 
Q 891 1666 891 1350 
z
" transform="scale(0.015625)"/>
     </defs>
     <use xlink:href="#DejaVuSans-Oblique-56" transform="translate(0 0.09375)"/>
     <use xlink:href="#DejaVuSans-Oblique-64" transform="translate(68.408203 -16.3125) scale(0.7)"/>
     <use xlink:href="#DejaVuSans-Oblique-64" transform="translate(112.841797 -16.3125) scale(0.7)"/>
    </g>
   </g>
   <g id="text_2">
    <!-- $L_1$ -->
    <g transform="translate(91.952529 94.543125) scale(0.14 -0.14)">
     <defs>
      <path id="DejaVuSans-Oblique-4c" d="M 1075 4666 
L 1709 4666 
L 909 525 
L 3181 525 
L 3078 0 
L 172 0 
L 1075 4666 
z
" transform="scale(0.015625)"/>
      <path id="DejaVuSans-31" d="M 794 531 
L 1825 531 
L 1825 4091 
L 703 3866 
L 703 4441 
L 1819 4666 
L 2450 4666 
L 2450 531 
L 3481 531 
L 3481 0 
L 794 0 
L 794 531 
z
" transform="scale(0.015625)"/>
     </defs>
     <use xlink:href="#DejaVuSans-Oblique-4c" transform="translate(0 0.09375)"/>
     <use xlink:href="#DejaVuSans-31" transform="translate(55.712891 -16.3125) scale(0.7)"/>
    </g>
   </g>
   <g id="text_3">
    <!-- $C_2$ -->
    <g transform="translate(162.824 129.168438) scale(0.14 -0.14)">
     <defs>
      <path id="DejaVuSans-Oblique-43" d="M 4447 4306 
L 4319 3641 
Q 4019 3944 3683 4091 
Q 3347 4238 2956 4238 
Q 2422 4238 2017 3981 
Q 1613 3725 1319 3200 
Q 1131 2863 1032 2486 
Q 934 2109 934 1728 
Q 934 1091 1264 756 
Q 1594 422 2222 422 
Q 2656 422 3056 561 
Q 3456 700 3834 978 
L 3688 231 
Q 3316 72 2936 -9 
Q 2556 -91 2175 -91 
Q 1278 -91 773 396 
Q 269 884 269 1753 
Q 269 2309 461 2846 
Q 653 3384 1013 3828 
Q 1394 4300 1883 4525 
Q 2372 4750 3022 4750 
Q 3422 4750 3780 4639 
Q 4138 4528 4447 4306 
z
" transform="scale(0.015625)"/>
      <path id="DejaVuSans-32" d="M 1228 531 
L 3431 531 
L 3431 0 
L 469 0 
L 469 531 
Q 828 903 1448 1529 
Q 2069 2156 2228 2338 
Q 2531 2678 2651 2914 
Q 2772 3150 2772 3378 
Q 2772 3750 2511 3984 
Q 2250 4219 1831 4219 
Q 1534 4219 1204 4116 
Q 875 4013 500 3803 
L 500 4441 
Q 881 4594 1212 4672 
Q 1544 4750 1819 4750 
Q 2544 4750 2975 4387 
Q 3406 4025 3406 3419 
Q 3406 3131 3298 2873 
Q 3191 2616 2906 2266 
Q 2828 2175 2409 1742 
Q 1991 1309 1228 531 
z
" transform="scale(0.015625)"/>
     </defs>
     <use xlink:href="#DejaVuSans-Oblique-43" transform="translate(0 0.78125)"/>
     <use xlink:href="#DejaVuSans-32" transform="translate(69.824219 -15.625) scale(0.7)"/>
    </g>
   </g>
   <g id="text_4">
    <!-- $L_2$ -->
    <g transform="translate(271.874 124.489553) scale(0.14 -0.14)">
     <use xlink:href="#DejaVuSans-Oblique-4c" transform="translate(0 0.09375)"/>
     <use xlink:href="#DejaVuSans-32" transform="translate(55.712891 -16.3125) scale(0.7)"/>
    </g>
   </g>
   <g id="text_5">
    <!-- $R_L$ -->
    <g transform="translate(304.804 202.543125) scale(0.14 -0.14)">
     <defs>
      <path id="DejaVuSans-Oblique-52" d="M 1613 4147 
L 1294 2491 
L 2106 2491 
Q 2584 2491 2879 2755 
Q 3175 3019 3175 3444 
Q 3175 3784 2976 3965 
Q 2778 4147 2406 4147 
L 1613 4147 
z
M 2772 2241 
Q 2972 2194 3105 2009 
Q 3238 1825 3413 1275 
L 3809 0 
L 3144 0 
L 2778 1197 
Q 2638 1659 2453 1815 
Q 2269 1972 1888 1972 
L 1191 1972 
L 806 0 
L 172 0 
L 1081 4666 
L 2503 4666 
Q 3150 4666 3495 4373 
Q 3841 4081 3841 3531 
Q 3841 3044 3547 2687 
Q 3253 2331 2772 2241 
z
" transform="scale(0.015625)"/>
     </defs>
     <use xlink:href="#DejaVuSans-Oblique-52" transform="translate(0 0.09375)"/>
     <use xlink:href="#DejaVuSans-Oblique-4c" transform="translate(69.482422 -16.3125) scale(0.7)"/>
    </g>
   </g>
   <g id="text_6">
    <!-- + -->
    <g transform="translate(359.618219 189.943125) scale(0.14 -0.14)">
     <defs>
      <path id="DejaVuSans-2b" d="M 2944 4013 
L 2944 2272 
L 4684 2272 
L 4684 1741 
L 2944 1741 
L 2944 0 
L 2419 0 
L 2419 1741 
L 678 1741 
L 678 2272 
L 2419 2272 
L 2419 4013 
L 2944 4013 
z
" transform="scale(0.015625)"/>
     </defs>
     <use xlink:href="#DejaVuSans-2b"/>
    </g>
   </g>
   <g id="text_7">
    <!-- $v_{out}$ -->
    <g transform="translate(353.094 216.943125) scale(0.14 -0.14)">
     <defs>
      <path id="DejaVuSans-Oblique-76" d="M 459 3500 
L 1069 3500 
L 1581 525 
L 3256 3500 
L 3866 3500 
L 1875 0 
L 1100 0 
L 459 3500 
z
" transform="scale(0.015625)"/>
      <path id="DejaVuSans-Oblique-6f" d="M 1625 -91 
Q 1009 -91 651 289 
Q 294 669 294 1325 
Q 294 1706 417 2101 
Q 541 2497 738 2766 
Q 1047 3184 1428 3384 
Q 1809 3584 2291 3584 
Q 2888 3584 3255 3212 
Q 3622 2841 3622 2241 
Q 3622 1825 3500 1412 
Q 3378 1000 3181 728 
Q 2875 309 2494 109 
Q 2113 -91 1625 -91 
z
M 891 1344 
Q 891 869 1089 633 
Q 1288 397 1691 397 
Q 2269 397 2648 901 
Q 3028 1406 3028 2181 
Q 3028 2634 2825 2865 
Q 2622 3097 2228 3097 
Q 1903 3097 1650 2945 
Q 1397 2794 1197 2484 
Q 1050 2253 970 1956 
Q 891 1659 891 1344 
z
" transform="scale(0.015625)"/>
      <path id="DejaVuSans-Oblique-75" d="M 428 1388 
L 838 3500 
L 1416 3500 
L 1006 1409 
Q 975 1256 961 1147 
Q 947 1038 947 966 
Q 947 700 1109 554 
Q 1272 409 1569 409 
Q 2031 409 2368 721 
Q 2706 1034 2809 1563 
L 3194 3500 
L 3769 3500 
L 3091 0 
L 2516 0 
L 2631 550 
Q 2388 244 2052 76 
Q 1716 -91 1338 -91 
Q 878 -91 622 161 
Q 366 413 366 863 
Q 366 956 381 1097 
Q 397 1238 428 1388 
z
" transform="scale(0.015625)"/>
      <path id="DejaVuSans-Oblique-74" d="M 2706 3500 
L 2619 3053 
L 1472 3053 
L 1100 1153 
Q 1081 1047 1072 975 
Q 1063 903 1063 863 
Q 1063 663 1183 572 
Q 1303 481 1569 481 
L 2150 481 
L 2053 0 
L 1503 0 
Q 991 0 739 200 
Q 488 400 488 806 
Q 488 878 497 964 
Q 506 1050 525 1153 
L 897 3053 
L 409 3053 
L 500 3500 
L 978 3500 
L 1172 4494 
L 1747 4494 
L 1556 3500 
L 2706 3500 
z
" transform="scale(0.015625)"/>
     </defs>
     <use xlink:href="#DejaVuSans-Oblique-76" transform="translate(0 0.3125)"/>
     <use xlink:href="#DejaVuSans-Oblique-6f" transform="translate(59.179688 -16.09375) scale(0.7)"/>
     <use xlink:href="#DejaVuSans-Oblique-75" transform="translate(102.006836 -16.09375) scale(0.7)"/>
     <use xlink:href="#DejaVuSans-Oblique-74" transform="translate(146.37207 -16.09375) scale(0.7)"/>
    </g>
   </g>
   <g id="text_8">
    <!-- − -->
    <g transform="translate(359.618219 243.943125) scale(0.14 -0.14)">
     <defs>
      <path id="DejaVuSans-2212" d="M 678 2272 
L 4684 2272 
L 4684 1741 
L 678 1741 
L 678 2272 
z
" transform="scale(0.015625)"/>
     </defs>
     <use xlink:href="#DejaVuSans-2212"/>
    </g>
   </g>
   <g id="text_9">
    <!-- $C_1$ -->
    <g transform="translate(87.964 202.543125) scale(0.14 -0.14)">
     <use xlink:href="#DejaVuSans-Oblique-43" transform="translate(0 0.78125)"/>
     <use xlink:href="#DejaVuSans-31" transform="translate(69.824219 -15.625) scale(0.7)"/>
    </g>
   </g>
   <g id="text_10">
    <!-- $V_{in}$ -->
    <g transform="translate(9.384 211.543125) scale(0.14 -0.14)">
     <defs>
      <path id="DejaVuSans-Oblique-69" d="M 1172 4863 
L 1747 4863 
L 1606 4134 
L 1031 4134 
L 1172 4863 
z
M 909 3500 
L 1484 3500 
L 800 0 
L 225 0 
L 909 3500 
z
" transform="scale(0.015625)"/>
      <path id="DejaVuSans-Oblique-6e" d="M 3566 2113 
L 3156 0 
L 2578 0 
L 2988 2091 
Q 3016 2238 3031 2350 
Q 3047 2463 3047 2528 
Q 3047 2791 2881 2937 
Q 2716 3084 2419 3084 
Q 1956 3084 1622 2776 
Q 1288 2469 1184 1941 
L 800 0 
L 225 0 
L 903 3500 
L 1478 3500 
L 1363 2950 
Q 1603 3253 1940 3418 
Q 2278 3584 2650 3584 
Q 3113 3584 3367 3334 
Q 3622 3084 3622 2631 
Q 3622 2519 3608 2391 
Q 3594 2263 3566 2113 
z
" transform="scale(0.015625)"/>
     </defs>
     <use xlink:href="#DejaVuSans-Oblique-56" transform="translate(0 0.09375)"/>
     <use xlink:href="#DejaVuSans-Oblique-69" transform="translate(68.408203 -16.3125) scale(0.7)"/>
     <use xlink:href="#DejaVuSans-Oblique-6e" transform="translate(87.856445 -16.3125) scale(0.7)"/>
    </g>
   </g>
   <g id="patch_2">
    <path d="M 117.084 147.38 
C 117.800048 147.38 118.486866 147.095511 118.993188 146.589188 
C 119.499511 146.082866 119.784 145.396048 119.784 144.68 
C 119.784 143.963952 119.499511 143.277134 118.993188 142.770812 
C 118.486866 142.264489 117.800048 141.98 117.084 141.98 
C 116.367952 141.98 115.681134 142.264489 115.174812 142.770812 
C 114.668489 143.277134 114.384 143.963952 114.384 144.68 
C 114.384 145.396048 114.668489 146.082866 115.174812 146.589188 
C 115.681134 147.095511 116.367952 147.38 117.084 147.38 
z
" clip-path="url(#p529f4749e1)" style="fill: #ff0000; stroke: #ff0000; stroke-width: 2; stroke-linejoin: miter"/>
   </g>
   <g id="patch_3">
    <path d="M 351.084 147.38 
C 351.800048 147.38 352.486866 147.095511 352.993188 146.589188 
C 353.499511 146.082866 353.784 145.396048 353.784 144.68 
C 353.784 143.963952 353.499511 143.277134 352.993188 142.770812 
C 352.486866 142.264489 351.800048 141.98 351.084 141.98 
C 350.367952 141.98 349.681134 142.264489 349.174812 142.770812 
C 348.668489 143.277134 348.384 143.963952 348.384 144.68 
C 348.384 145.396048 348.668489 146.082866 349.174812 146.589188 
C 349.681134 147.095511 350.367952 147.38 351.084 147.38 
z
" clip-path="url(#p529f4749e1)" style="fill: #ffffff; stroke: #000000; stroke-width: 2; stroke-linejoin: miter"/>
   </g>
   <g id="patch_4">
    <path d="M 351.084 255.38 
C 351.800048 255.38 352.486866 255.095511 352.993188 254.589188 
C 353.499511 254.082866 353.784 253.396048 353.784 252.68 
C 353.784 251.963952 353.499511 251.277134 352.993188 250.770812 
C 352.486866 250.264489 351.800048 249.98 351.084 249.98 
C 350.367952 249.98 349.681134 250.264489 349.174812 250.770812 
C 348.668489 251.277134 348.384 251.963952 348.384 252.68 
C 348.384 253.396048 348.668489 254.082866 349.174812 254.589188 
C 349.681134 255.095511 350.367952 255.38 351.084 255.38 
z
" clip-path="url(#p529f4749e1)" style="fill: #ffffff; stroke: #000000; stroke-width: 2; stroke-linejoin: miter"/>
   </g>
   <g id="patch_5">
    <path d="M 117.084 255.38 
C 117.800048 255.38 118.486866 255.095511 118.993188 254.589188 
C 119.499511 254.082866 119.784 253.396048 119.784 252.68 
C 119.784 251.963952 119.499511 251.277134 118.993188 250.770812 
C 118.486866 250.264489 117.800048 249.98 117.084 249.98 
C 116.367952 249.98 115.681134 250.264489 115.174812 250.770812 
C 114.668489 251.277134 114.384 251.963952 114.384 252.68 
C 114.384 253.396048 114.668489 254.082866 115.174812 254.589188 
C 115.681134 255.095511 116.367952 255.38 117.084 255.38 
z
" clip-path="url(#p529f4749e1)" style="stroke: #000000; stroke-width: 2; stroke-linejoin: miter"/>
   </g>
   <g id="patch_6">
    <path d="M 31.884 210.38 
C 32.600048 210.38 33.286866 210.095511 33.793188 209.589188 
C 34.299511 209.082866 34.584 208.396048 34.584 207.68 
C 34.584 206.963952 34.299511 206.277134 33.793188 205.770812 
C 33.286866 205.264489 32.600048 204.98 31.884 204.98 
C 31.167952 204.98 30.481134 205.264489 29.974812 205.770812 
C 29.468489 206.277134 29.184 206.963952 29.184 207.68 
C 29.184 208.396048 29.468489 209.082866 29.974812 209.589188 
C 30.481134 210.095511 31.167952 210.38 31.884 210.38 
z
" clip-path="url(#p529f4749e1)" style="fill: #ffffff; stroke: #000000; stroke-width: 2; stroke-linejoin: miter"/>
   </g>
  </g>
 </g>
 <defs>
  <clipPath id="p529f4749e1">
   <rect x="0" y="0" width="385.368" height="280.4"/>
  </clipPath>
 </defs>
</svg>