<?xml version="1.0" encoding="utf-8" standalone="no"?>
<!DOCTYPE svg PUBLIC "-//W3C//DTD SVG 1.1//EN"
  "http://www.w3.org/Graphics/SVG/1.1/DTD/svg11.dtd">
<!-- Created with matplotlib (https://matplotlib.org/) -->
<svg height="444.789pt" version="1.1" viewBox="0 0 887.37 444.789" width="887.37pt" xmlns="http://www.w3.org/2000/svg" xmlns:xlink="http://www.w3.org/1999/xlink">
 <metadata>
  <rdf:RDF xmlns:cc="http://creativecommons.org/ns#" xmlns:dc="http://purl.org/dc/elements/1.1/" xmlns:rdf="http://www.w3.org/1999/02/22-rdf-syntax-ns#">
   <cc:Work>
    <dc:type rdf:resource="http://purl.org/dc/dcmitype/StillImage"/>
    <dc:date>2020-10-19T15:31:04.350935</dc:date>
    <dc:format>image/svg+xml</dc:format>
    <dc:creator>
     <cc:Agent>
      <dc:title>Matplotlib v3.3.2, https://matplotlib.org/</dc:title>
     </cc:Agent>
    </dc:creator>
   </cc:Work>
  </rdf:RDF>
 </metadata>
 <defs>
  <style type="text/css">*{stroke-linecap:butt;stroke-linejoin:round;}</style>
 </defs>
 <g id="figure_1">
  <g id="patch_1">
   <path d="M 0 444.789 
L 887.37 444.789 
L 887.37 0 
L 0 0 
z
" style="fill:none;"/>
  </g>
  <g id="axes_1">
   <g id="line2d_1">
    <path clip-path="url(#p5f3e99a38c)" d="M 16.65 155.61 
L 28.8 155.61 
L 40.95 155.61 
" style="fill:none;stroke:#000000;stroke-linecap:round;stroke-width:2;"/>
   </g>
   <g id="line2d_2">
    <path clip-path="url(#p5f3e99a38c)" d="M 40.95 155.61 
L 73.35 155.61 
L 76.05 147.96 
L 81.45 163.26 
L 86.85 147.96 
L 92.25 163.26 
L 97.65 147.96 
L 103.05 163.26 
L 105.75 155.61 
L 138.15 155.61 
" style="fill:none;stroke:#000000;stroke-linecap:round;stroke-width:2;"/>
   </g>
   <g id="line2d_3">
    <path clip-path="url(#p5f3e99a38c)" d="M 138.15 155.61 
L 144.225 155.61 
L 150.3 155.61 
" style="fill:none;stroke:#000000;stroke-linecap:round;stroke-width:2;"/>
   </g>
   <g id="line2d_4">
    <path clip-path="url(#p5f3e99a38c)" d="M 150.3 174.735 
L 150.3 136.485 
L 220.448058 174.735 
L 150.3 212.985 
L 150.3 174.735 
M 220.448058 174.735 
" style="fill:none;stroke:#000000;stroke-linecap:round;stroke-width:2;"/>
   </g>
   <g id="line2d_5">
    <path clip-path="url(#p5f3e99a38c)" d="M 155.828507 155.61 
L 162.308507 155.61 
" style="fill:none;stroke:#000000;stroke-linecap:round;stroke-width:2;"/>
   </g>
   <g id="line2d_6">
    <path clip-path="url(#p5f3e99a38c)" d="M 155.828507 193.86 
L 162.308507 193.86 
" style="fill:none;stroke:#000000;stroke-linecap:round;stroke-width:2;"/>
   </g>
   <g id="line2d_7">
    <path clip-path="url(#p5f3e99a38c)" d="M 159.068507 196.92 
L 159.068507 190.8 
" style="fill:none;stroke:#000000;stroke-linecap:round;stroke-width:2;"/>
   </g>
   <g id="line2d_8">
    <path clip-path="url(#p5f3e99a38c)" d="M 150.3 193.86 
L 138.15 193.86 
L 126 193.86 
" style="fill:none;stroke:#000000;stroke-linecap:round;stroke-width:2;"/>
   </g>
   <g id="line2d_9">
    <path clip-path="url(#p5f3e99a38c)" d="M 126 193.86 
L 126 203.04 
L 126 212.22 
" style="fill:none;stroke:#000000;stroke-linecap:round;stroke-width:2;"/>
   </g>
   <g id="line2d_10">
    <path clip-path="url(#p5f3e99a38c)" d="M 126 212.22 
L 126 224.46 
L 117.9 224.46 
L 134.1 224.46 
M 120.33 228.132 
L 131.67 228.132 
M 124.38 231.804 
L 127.62 231.804 
" style="fill:none;stroke:#000000;stroke-linecap:round;stroke-width:2;"/>
   </g>
   <g id="line2d_11">
    <path clip-path="url(#p5f3e99a38c)" d="M 138.15 155.61 
L 138.15 132.66 
L 138.15 109.71 
" style="fill:none;stroke:#000000;stroke-linecap:round;stroke-width:2;"/>
   </g>
   <g id="line2d_12">
    <path clip-path="url(#p5f3e99a38c)" d="M 138.15 109.71 
L 170.55 109.71 
L 173.25 102.06 
L 178.65 117.36 
L 184.05 102.06 
L 189.45 117.36 
L 194.85 102.06 
L 200.25 117.36 
L 202.95 109.71 
L 235.35 109.71 
" style="fill:none;stroke:#000000;stroke-linecap:round;stroke-width:2;"/>
   </g>
   <g id="line2d_13">
    <path clip-path="url(#p5f3e99a38c)" d="M 138.15 109.71 
L 138.15 86.76 
L 138.15 63.81 
" style="fill:none;stroke:#000000;stroke-linecap:round;stroke-width:2;"/>
   </g>
   <g id="line2d_14">
    <path clip-path="url(#p5f3e99a38c)" d="M 138.15 63.81 
L 183.834 63.81 
M 183.834 56.16 
L 183.834 71.46 
M 189.666 56.16 
L 189.666 71.46 
M 189.666 63.81 
L 235.35 63.81 
" style="fill:none;stroke:#000000;stroke-linecap:round;stroke-width:2;"/>
   </g>
   <g id="line2d_15">
    <path clip-path="url(#p5f3e99a38c)" d="M 235.35 63.81 
L 235.35 109.71 
L 235.35 155.61 
" style="fill:none;stroke:#000000;stroke-linecap:round;stroke-width:2;"/>
   </g>
   <g id="line2d_16">
    <path clip-path="url(#p5f3e99a38c)" d="M 235.35 155.61 
L 235.35 165.1725 
L 235.35 174.735 
" style="fill:none;stroke:#000000;stroke-linecap:round;stroke-width:2;"/>
   </g>
   <g id="line2d_17">
    <path clip-path="url(#p5f3e99a38c)" d="M 235.35 174.735 
L 227.899029 174.735 
L 220.448058 174.735 
" style="fill:none;stroke:#000000;stroke-linecap:round;stroke-width:2;"/>
   </g>
   <g id="line2d_18">
    <path clip-path="url(#p5f3e99a38c)" d="M 235.35 155.61 
L 267.75 155.61 
L 270.45 147.96 
L 275.85 163.26 
L 281.25 147.96 
L 286.65 163.26 
L 292.05 147.96 
L 297.45 163.26 
L 300.15 155.61 
L 332.55 155.61 
" style="fill:none;stroke:#000000;stroke-linecap:round;stroke-width:2;"/>
   </g>
   <g id="line2d_19">
    <path clip-path="url(#p5f3e99a38c)" d="M 332.55 155.61 
L 338.625 155.61 
L 344.7 155.61 
" style="fill:none;stroke:#000000;stroke-linecap:round;stroke-width:2;"/>
   </g>
   <g id="line2d_20">
    <path clip-path="url(#p5f3e99a38c)" d="M 344.7 174.735 
L 344.7 136.485 
L 414.848058 174.735 
L 344.7 212.985 
L 344.7 174.735 
M 414.848058 174.735 
" style="fill:none;stroke:#000000;stroke-linecap:round;stroke-width:2;"/>
   </g>
   <g id="line2d_21">
    <path clip-path="url(#p5f3e99a38c)" d="M 350.228507 155.61 
L 356.708507 155.61 
" style="fill:none;stroke:#000000;stroke-linecap:round;stroke-width:2;"/>
   </g>
   <g id="line2d_22">
    <path clip-path="url(#p5f3e99a38c)" d="M 350.228507 193.86 
L 356.708507 193.86 
" style="fill:none;stroke:#000000;stroke-linecap:round;stroke-width:2;"/>
   </g>
   <g id="line2d_23">
    <path clip-path="url(#p5f3e99a38c)" d="M 353.468507 196.92 
L 353.468507 190.8 
" style="fill:none;stroke:#000000;stroke-linecap:round;stroke-width:2;"/>
   </g>
   <g id="line2d_24">
    <path clip-path="url(#p5f3e99a38c)" d="M 344.7 193.86 
L 332.55 193.86 
L 320.4 193.86 
" style="fill:none;stroke:#000000;stroke-linecap:round;stroke-width:2;"/>
   </g>
   <g id="line2d_25">
    <path clip-path="url(#p5f3e99a38c)" d="M 320.4 193.86 
L 320.4 203.04 
L 320.4 212.22 
" style="fill:none;stroke:#000000;stroke-linecap:round;stroke-width:2;"/>
   </g>
   <g id="line2d_26">
    <path clip-path="url(#p5f3e99a38c)" d="M 320.4 212.22 
L 320.4 224.46 
L 312.3 224.46 
L 328.5 224.46 
M 314.73 228.132 
L 326.07 228.132 
M 318.78 231.804 
L 322.02 231.804 
" style="fill:none;stroke:#000000;stroke-linecap:round;stroke-width:2;"/>
   </g>
   <g id="line2d_27">
    <path clip-path="url(#p5f3e99a38c)" d="M 332.55 155.61 
L 332.55 132.66 
L 332.55 109.71 
" style="fill:none;stroke:#000000;stroke-linecap:round;stroke-width:2;"/>
   </g>
   <g id="line2d_28">
    <path clip-path="url(#p5f3e99a38c)" d="M 332.55 109.71 
L 378.234 109.71 
M 378.234 102.06 
L 378.234 117.36 
M 384.066 102.06 
L 384.066 117.36 
M 384.066 109.71 
L 429.75 109.71 
" style="fill:none;stroke:#000000;stroke-linecap:round;stroke-width:2;"/>
   </g>
   <g id="line2d_29">
    <path clip-path="url(#p5f3e99a38c)" d="M 429.75 109.71 
L 429.75 132.66 
L 429.75 155.61 
" style="fill:none;stroke:#000000;stroke-linecap:round;stroke-width:2;"/>
   </g>
   <g id="line2d_30">
    <path clip-path="url(#p5f3e99a38c)" d="M 429.75 155.61 
L 429.75 165.1725 
L 429.75 174.735 
" style="fill:none;stroke:#000000;stroke-linecap:round;stroke-width:2;"/>
   </g>
   <g id="line2d_31">
    <path clip-path="url(#p5f3e99a38c)" d="M 429.75 174.735 
L 422.299029 174.735 
L 414.848058 174.735 
" style="fill:none;stroke:#000000;stroke-linecap:round;stroke-width:2;"/>
   </g>
   <g id="line2d_32">
    <path clip-path="url(#p5f3e99a38c)" d="M 429.75 155.61 
L 462.15 155.61 
L 464.85 147.96 
L 470.25 163.26 
L 475.65 147.96 
L 481.05 163.26 
L 486.45 147.96 
L 491.85 163.26 
L 494.55 155.61 
L 526.95 155.61 
" style="fill:none;stroke:#000000;stroke-linecap:round;stroke-width:2;"/>
   </g>
   <g id="line2d_33">
    <path clip-path="url(#p5f3e99a38c)" d="M 526.95 155.61 
L 533.025 155.61 
L 539.1 155.61 
" style="fill:none;stroke:#000000;stroke-linecap:round;stroke-width:2;"/>
   </g>
   <g id="line2d_34">
    <path clip-path="url(#p5f3e99a38c)" d="M 539.1 174.735 
L 539.1 136.485 
L 609.248058 174.735 
L 539.1 212.985 
L 539.1 174.735 
M 609.248058 174.735 
" style="fill:none;stroke:#000000;stroke-linecap:round;stroke-width:2;"/>
   </g>
   <g id="line2d_35">
    <path clip-path="url(#p5f3e99a38c)" d="M 544.628507 155.61 
L 551.108507 155.61 
" style="fill:none;stroke:#000000;stroke-linecap:round;stroke-width:2;"/>
   </g>
   <g id="line2d_36">
    <path clip-path="url(#p5f3e99a38c)" d="M 544.628507 193.86 
L 551.108507 193.86 
" style="fill:none;stroke:#000000;stroke-linecap:round;stroke-width:2;"/>
   </g>
   <g id="line2d_37">
    <path clip-path="url(#p5f3e99a38c)" d="M 547.868507 196.92 
L 547.868507 190.8 
" style="fill:none;stroke:#000000;stroke-linecap:round;stroke-width:2;"/>
   </g>
   <g id="line2d_38">
    <path clip-path="url(#p5f3e99a38c)" d="M 539.1 193.86 
L 526.95 193.86 
L 514.8 193.86 
" style="fill:none;stroke:#000000;stroke-linecap:round;stroke-width:2;"/>
   </g>
   <g id="line2d_39">
    <path clip-path="url(#p5f3e99a38c)" d="M 514.8 193.86 
L 514.8 203.04 
L 514.8 212.22 
" style="fill:none;stroke:#000000;stroke-linecap:round;stroke-width:2;"/>
   </g>
   <g id="line2d_40">
    <path clip-path="url(#p5f3e99a38c)" d="M 514.8 212.22 
L 514.8 224.46 
L 506.7 224.46 
L 522.9 224.46 
M 509.13 228.132 
L 520.47 228.132 
M 513.18 231.804 
L 516.42 231.804 
" style="fill:none;stroke:#000000;stroke-linecap:round;stroke-width:2;"/>
   </g>
   <g id="line2d_41">
    <path clip-path="url(#p5f3e99a38c)" d="M 526.95 155.61 
L 526.95 132.66 
L 526.95 109.71 
" style="fill:none;stroke:#000000;stroke-linecap:round;stroke-width:2;"/>
   </g>
   <g id="line2d_42">
    <path clip-path="url(#p5f3e99a38c)" d="M 526.95 109.71 
L 559.35 109.71 
L 562.05 102.06 
L 567.45 117.36 
L 572.85 102.06 
L 578.25 117.36 
L 583.65 102.06 
L 589.05 117.36 
L 591.75 109.71 
L 624.15 109.71 
" style="fill:none;stroke:#000000;stroke-linecap:round;stroke-width:2;"/>
   </g>
   <g id="line2d_43">
    <path clip-path="url(#p5f3e99a38c)" d="M 624.15 109.71 
L 624.15 142.2225 
L 624.15 174.735 
" style="fill:none;stroke:#000000;stroke-linecap:round;stroke-width:2;"/>
   </g>
   <g id="line2d_44">
    <path clip-path="url(#p5f3e99a38c)" d="M 624.15 174.735 
L 616.699029 174.735 
L 609.248058 174.735 
" style="fill:none;stroke:#000000;stroke-linecap:round;stroke-width:2;"/>
   </g>
   <g id="line2d_45">
    <path clip-path="url(#p5f3e99a38c)" d="M 624.15 109.71 
L 624.15 63.81 
L 624.15 17.91 
" style="fill:none;stroke:#000000;stroke-linecap:round;stroke-width:2;"/>
   </g>
   <g id="line2d_46">
    <path clip-path="url(#p5f3e99a38c)" d="M 624.15 17.91 
L 478.35 17.91 
L 332.55 17.91 
" style="fill:none;stroke:#000000;stroke-linecap:round;stroke-width:2;"/>
   </g>
   <g id="line2d_47">
    <path clip-path="url(#p5f3e99a38c)" d="M 332.55 17.91 
L 300.15 17.91 
L 297.45 25.56 
L 292.05 10.26 
L 286.65 25.56 
L 281.25 10.26 
L 275.85 25.56 
L 270.45 10.26 
L 267.75 17.91 
L 235.35 17.91 
" style="fill:none;stroke:#000000;stroke-linecap:round;stroke-width:2;"/>
   </g>
   <g id="line2d_48">
    <path clip-path="url(#p5f3e99a38c)" d="M 235.35 17.91 
L 186.75 17.91 
L 138.15 17.91 
" style="fill:none;stroke:#000000;stroke-linecap:round;stroke-width:2;"/>
   </g>
   <g id="line2d_49">
    <path clip-path="url(#p5f3e99a38c)" d="M 138.15 17.91 
L 138.15 86.76 
L 138.15 155.61 
" style="fill:none;stroke:#000000;stroke-linecap:round;stroke-width:2;"/>
   </g>
   <g id="line2d_50">
    <path clip-path="url(#p5f3e99a38c)" d="M 624.15 174.735 
L 624.15 220.635 
L 624.15 266.535 
" style="fill:none;stroke:#000000;stroke-linecap:round;stroke-width:2;"/>
   </g>
   <g id="line2d_51">
    <path clip-path="url(#p5f3e99a38c)" d="M 624.15 266.535 
L 656.55 266.535 
L 659.25 258.885 
L 664.65 274.185 
L 670.05 258.885 
L 675.45 274.185 
L 680.85 258.885 
L 686.25 274.185 
L 688.95 266.535 
L 721.35 266.535 
" style="fill:none;stroke:#000000;stroke-linecap:round;stroke-width:2;"/>
   </g>
   <g id="line2d_52">
    <path clip-path="url(#p5f3e99a38c)" d="M 721.35 266.535 
L 721.35 289.485 
L 721.35 312.435 
" style="fill:none;stroke:#000000;stroke-linecap:round;stroke-width:2;"/>
   </g>
   <g id="line2d_53">
    <path clip-path="url(#p5f3e99a38c)" d="M 721.35 312.435 
L 688.95 312.435 
L 686.25 320.085 
L 680.85 304.785 
L 675.45 320.085 
L 670.05 304.785 
L 664.65 320.085 
L 659.25 304.785 
L 656.55 312.435 
L 624.15 312.435 
" style="fill:none;stroke:#000000;stroke-linecap:round;stroke-width:2;"/>
   </g>
   <g id="line2d_54">
    <path clip-path="url(#p5f3e99a38c)" d="M 624.15 312.435 
L 429.75 312.435 
L 235.35 312.435 
" style="fill:none;stroke:#000000;stroke-linecap:round;stroke-width:2;"/>
   </g>
   <g id="line2d_55">
    <path clip-path="url(#p5f3e99a38c)" d="M 235.35 312.435 
L 235.35 234.0225 
L 235.35 155.61 
" style="fill:none;stroke:#000000;stroke-linecap:round;stroke-width:2;"/>
   </g>
   <g id="line2d_56">
    <path clip-path="url(#p5f3e99a38c)" d="M 721.35 312.435 
L 721.35 335.385 
L 721.35 358.335 
" style="fill:none;stroke:#000000;stroke-linecap:round;stroke-width:2;"/>
   </g>
   <g id="line2d_57">
    <path clip-path="url(#p5f3e99a38c)" d="M 721.35 358.335 
L 688.95 358.335 
L 686.25 365.985 
L 680.85 350.685 
L 675.45 365.985 
L 670.05 350.685 
L 664.65 365.985 
L 659.25 350.685 
L 656.55 358.335 
L 624.15 358.335 
" style="fill:none;stroke:#000000;stroke-linecap:round;stroke-width:2;"/>
   </g>
   <g id="line2d_58">
    <path clip-path="url(#p5f3e99a38c)" d="M 624.15 358.335 
L 332.55 358.335 
L 40.95 358.335 
" style="fill:none;stroke:#000000;stroke-linecap:round;stroke-width:2;"/>
   </g>
   <g id="line2d_59">
    <path clip-path="url(#p5f3e99a38c)" d="M 40.95 358.335 
L 40.95 256.9725 
L 40.95 155.61 
" style="fill:none;stroke:#000000;stroke-linecap:round;stroke-width:2;"/>
   </g>
   <g id="line2d_60">
    <path clip-path="url(#p5f3e99a38c)" d="M 721.35 358.335 
L 727.425 358.335 
L 733.5 358.335 
" style="fill:none;stroke:#000000;stroke-linecap:round;stroke-width:2;"/>
   </g>
   <g id="line2d_61">
    <path clip-path="url(#p5f3e99a38c)" d="M 733.5 377.46 
L 733.5 339.21 
L 803.648058 377.46 
L 733.5 415.71 
L 733.5 377.46 
M 803.648058 377.46 
" style="fill:none;stroke:#000000;stroke-linecap:round;stroke-width:2;"/>
   </g>
   <g id="line2d_62">
    <path clip-path="url(#p5f3e99a38c)" d="M 739.028507 358.335 
L 745.508507 358.335 
" style="fill:none;stroke:#000000;stroke-linecap:round;stroke-width:2;"/>
   </g>
   <g id="line2d_63">
    <path clip-path="url(#p5f3e99a38c)" d="M 739.028507 396.585 
L 745.508507 396.585 
" style="fill:none;stroke:#000000;stroke-linecap:round;stroke-width:2;"/>
   </g>
   <g id="line2d_64">
    <path clip-path="url(#p5f3e99a38c)" d="M 742.268507 399.645 
L 742.268507 393.525 
" style="fill:none;stroke:#000000;stroke-linecap:round;stroke-width:2;"/>
   </g>
   <g id="line2d_65">
    <path clip-path="url(#p5f3e99a38c)" d="M 733.5 396.585 
L 721.35 396.585 
L 709.2 396.585 
" style="fill:none;stroke:#000000;stroke-linecap:round;stroke-width:2;"/>
   </g>
   <g id="line2d_66">
    <path clip-path="url(#p5f3e99a38c)" d="M 709.2 396.585 
L 709.2 405.765 
L 709.2 414.945 
" style="fill:none;stroke:#000000;stroke-linecap:round;stroke-width:2;"/>
   </g>
   <g id="line2d_67">
    <path clip-path="url(#p5f3e99a38c)" d="M 709.2 414.945 
L 709.2 427.185 
L 701.1 427.185 
L 717.3 427.185 
M 703.53 430.857 
L 714.87 430.857 
M 707.58 434.529 
L 710.82 434.529 
" style="fill:none;stroke:#000000;stroke-linecap:round;stroke-width:2;"/>
   </g>
   <g id="line2d_68">
    <path clip-path="url(#p5f3e99a38c)" d="M 721.35 266.535 
L 753.75 266.535 
L 756.45 258.885 
L 761.85 274.185 
L 767.25 258.885 
L 772.65 274.185 
L 778.05 258.885 
L 783.45 274.185 
L 786.15 266.535 
L 818.55 266.535 
" style="fill:none;stroke:#000000;stroke-linecap:round;stroke-width:2;"/>
   </g>
   <g id="line2d_69">
    <path clip-path="url(#p5f3e99a38c)" d="M 818.55 266.535 
L 818.55 321.9975 
L 818.55 377.46 
" style="fill:none;stroke:#000000;stroke-linecap:round;stroke-width:2;"/>
   </g>
   <g id="line2d_70">
    <path clip-path="url(#p5f3e99a38c)" d="M 818.55 377.46 
L 811.099029 377.46 
L 803.648058 377.46 
" style="fill:none;stroke:#000000;stroke-linecap:round;stroke-width:2;"/>
   </g>
   <g id="line2d_71">
    <path clip-path="url(#p5f3e99a38c)" d="M 818.55 377.46 
L 842.85 377.46 
L 867.15 377.46 
" style="fill:none;stroke:#000000;stroke-linecap:round;stroke-width:2;"/>
   </g>
   <g id="text_1">
    <!-- $R_{11}$ -->
    <g transform="translate(78.21 176.957812)scale(0.14 -0.14)">
     <defs>
      <path d="M 25.203125 64.796875 
L 20.21875 38.921875 
L 32.90625 38.921875 
Q 40.375 38.921875 44.984375 43.046875 
Q 49.609375 47.171875 49.609375 53.8125 
Q 49.609375 59.125 46.5 61.953125 
Q 43.40625 64.796875 37.59375 64.796875 
z
M 43.3125 35.015625 
Q 46.4375 34.28125 48.515625 31.390625 
Q 50.59375 28.515625 53.328125 19.921875 
L 59.515625 0 
L 49.125 0 
L 43.40625 18.703125 
Q 41.21875 25.921875 38.328125 28.359375 
Q 35.453125 30.8125 29.5 30.8125 
L 18.609375 30.8125 
L 12.59375 0 
L 2.6875 0 
L 16.890625 72.90625 
L 39.109375 72.90625 
Q 49.21875 72.90625 54.609375 68.328125 
Q 60.015625 63.765625 60.015625 55.171875 
Q 60.015625 47.5625 55.421875 41.984375 
Q 50.828125 36.421875 43.3125 35.015625 
z
" id="DejaVuSans-Oblique-82"/>
      <path d="M 12.40625 8.296875 
L 28.515625 8.296875 
L 28.515625 63.921875 
L 10.984375 60.40625 
L 10.984375 69.390625 
L 28.421875 72.90625 
L 38.28125 72.90625 
L 38.28125 8.296875 
L 54.390625 8.296875 
L 54.390625 0 
L 12.40625 0 
z
" id="DejaVuSans-49"/>
     </defs>
     <use transform="translate(0 0.09375)" xlink:href="#DejaVuSans-Oblique-82"/>
     <use transform="translate(69.482422 -16.3125)scale(0.7)" xlink:href="#DejaVuSans-49"/>
     <use transform="translate(114.018555 -16.3125)scale(0.7)" xlink:href="#DejaVuSans-49"/>
    </g>
   </g>
   <g id="text_2">
    <!-- $R_{12}$ -->
    <g transform="translate(175.41 96.088437)scale(0.14 -0.14)">
     <defs>
      <path d="M 19.1875 8.296875 
L 53.609375 8.296875 
L 53.609375 0 
L 7.328125 0 
L 7.328125 8.296875 
Q 12.9375 14.109375 22.625 23.890625 
Q 32.328125 33.6875 34.8125 36.53125 
Q 39.546875 41.84375 41.421875 45.53125 
Q 43.3125 49.21875 43.3125 52.78125 
Q 43.3125 58.59375 39.234375 62.25 
Q 35.15625 65.921875 28.609375 65.921875 
Q 23.96875 65.921875 18.8125 64.3125 
Q 13.671875 62.703125 7.8125 59.421875 
L 7.8125 69.390625 
Q 13.765625 71.78125 18.9375 73 
Q 24.125 74.21875 28.421875 74.21875 
Q 39.75 74.21875 46.484375 68.546875 
Q 53.21875 62.890625 53.21875 53.421875 
Q 53.21875 48.921875 51.53125 44.890625 
Q 49.859375 40.875 45.40625 35.40625 
Q 44.1875 33.984375 37.640625 27.21875 
Q 31.109375 20.453125 19.1875 8.296875 
z
" id="DejaVuSans-50"/>
     </defs>
     <use transform="translate(0 0.09375)" xlink:href="#DejaVuSans-Oblique-82"/>
     <use transform="translate(69.482422 -16.3125)scale(0.7)" xlink:href="#DejaVuSans-49"/>
     <use transform="translate(114.018555 -16.3125)scale(0.7)" xlink:href="#DejaVuSans-50"/>
    </g>
   </g>
   <g id="text_3">
    <!-- $C_1$ -->
    <g transform="translate(178.49 50.188437)scale(0.14 -0.14)">
     <defs>
      <path d="M 69.484375 67.28125 
L 67.484375 56.890625 
Q 62.796875 61.625 57.546875 63.921875 
Q 52.296875 66.21875 46.1875 66.21875 
Q 37.84375 66.21875 31.515625 62.203125 
Q 25.203125 58.203125 20.609375 50 
Q 17.671875 44.734375 16.125 38.84375 
Q 14.59375 32.953125 14.59375 27 
Q 14.59375 17.046875 19.75 11.8125 
Q 24.90625 6.59375 34.71875 6.59375 
Q 41.5 6.59375 47.75 8.765625 
Q 54 10.9375 59.90625 15.28125 
L 57.625 3.609375 
Q 51.8125 1.125 45.875 -0.140625 
Q 39.9375 -1.421875 33.984375 -1.421875 
Q 19.96875 -1.421875 12.078125 6.1875 
Q 4.203125 13.8125 4.203125 27.390625 
Q 4.203125 36.078125 7.203125 44.46875 
Q 10.203125 52.875 15.828125 59.8125 
Q 21.78125 67.1875 29.421875 70.703125 
Q 37.0625 74.21875 47.21875 74.21875 
Q 53.46875 74.21875 59.0625 72.484375 
Q 64.65625 70.75 69.484375 67.28125 
z
" id="DejaVuSans-Oblique-67"/>
     </defs>
     <use transform="translate(0 0.78125)" xlink:href="#DejaVuSans-Oblique-67"/>
     <use transform="translate(69.824219 -15.625)scale(0.7)" xlink:href="#DejaVuSans-49"/>
    </g>
   </g>
   <g id="text_4">
    <!-- $R_2$ -->
    <g transform="translate(275.76 176.957812)scale(0.14 -0.14)">
     <use transform="translate(0 0.09375)" xlink:href="#DejaVuSans-Oblique-82"/>
     <use transform="translate(69.482422 -16.3125)scale(0.7)" xlink:href="#DejaVuSans-50"/>
    </g>
   </g>
   <g id="text_5">
    <!-- $C_2$ -->
    <g transform="translate(372.89 96.088437)scale(0.14 -0.14)">
     <use transform="translate(0 0.78125)" xlink:href="#DejaVuSans-Oblique-67"/>
     <use transform="translate(69.824219 -15.625)scale(0.7)" xlink:href="#DejaVuSans-50"/>
    </g>
   </g>
   <g id="text_6">
    <!-- $R_3$ -->
    <g transform="translate(470.16 176.957812)scale(0.14 -0.14)">
     <defs>
      <path d="M 40.578125 39.3125 
Q 47.65625 37.796875 51.625 33 
Q 55.609375 28.21875 55.609375 21.1875 
Q 55.609375 10.40625 48.1875 4.484375 
Q 40.765625 -1.421875 27.09375 -1.421875 
Q 22.515625 -1.421875 17.65625 -0.515625 
Q 12.796875 0.390625 7.625 2.203125 
L 7.625 11.71875 
Q 11.71875 9.328125 16.59375 8.109375 
Q 21.484375 6.890625 26.8125 6.890625 
Q 36.078125 6.890625 40.9375 10.546875 
Q 45.796875 14.203125 45.796875 21.1875 
Q 45.796875 27.640625 41.28125 31.265625 
Q 36.765625 34.90625 28.71875 34.90625 
L 20.21875 34.90625 
L 20.21875 43.015625 
L 29.109375 43.015625 
Q 36.375 43.015625 40.234375 45.921875 
Q 44.09375 48.828125 44.09375 54.296875 
Q 44.09375 59.90625 40.109375 62.90625 
Q 36.140625 65.921875 28.71875 65.921875 
Q 24.65625 65.921875 20.015625 65.03125 
Q 15.375 64.15625 9.8125 62.3125 
L 9.8125 71.09375 
Q 15.4375 72.65625 20.34375 73.4375 
Q 25.25 74.21875 29.59375 74.21875 
Q 40.828125 74.21875 47.359375 69.109375 
Q 53.90625 64.015625 53.90625 55.328125 
Q 53.90625 49.265625 50.4375 45.09375 
Q 46.96875 40.921875 40.578125 39.3125 
z
" id="DejaVuSans-51"/>
     </defs>
     <use transform="translate(0 0.09375)" xlink:href="#DejaVuSans-Oblique-82"/>
     <use transform="translate(69.482422 -16.3125)scale(0.7)" xlink:href="#DejaVuSans-51"/>
    </g>
   </g>
   <g id="text_7">
    <!-- $R_{3}$ -->
    <g transform="translate(567.36 96.088437)scale(0.14 -0.14)">
     <use transform="translate(0 0.09375)" xlink:href="#DejaVuSans-Oblique-82"/>
     <use transform="translate(69.482422 -16.3125)scale(0.7)" xlink:href="#DejaVuSans-51"/>
    </g>
   </g>
   <g id="text_8">
    <!-- $R_{13}$ -->
    <g transform="translate(272.61 39.257812)scale(0.14 -0.14)">
     <use transform="translate(0 0.09375)" xlink:href="#DejaVuSans-Oblique-82"/>
     <use transform="translate(69.482422 -16.3125)scale(0.7)" xlink:href="#DejaVuSans-49"/>
     <use transform="translate(114.018555 -16.3125)scale(0.7)" xlink:href="#DejaVuSans-51"/>
    </g>
   </g>
   <g id="text_9">
    <!-- $R_{43}$ -->
    <g transform="translate(661.41 252.913437)scale(0.14 -0.14)">
     <defs>
      <path d="M 37.796875 64.3125 
L 12.890625 25.390625 
L 37.796875 25.390625 
z
M 35.203125 72.90625 
L 47.609375 72.90625 
L 47.609375 25.390625 
L 58.015625 25.390625 
L 58.015625 17.1875 
L 47.609375 17.1875 
L 47.609375 0 
L 37.796875 0 
L 37.796875 17.1875 
L 4.890625 17.1875 
L 4.890625 26.703125 
z
" id="DejaVuSans-52"/>
     </defs>
     <use transform="translate(0 0.09375)" xlink:href="#DejaVuSans-Oblique-82"/>
     <use transform="translate(69.482422 -16.3125)scale(0.7)" xlink:href="#DejaVuSans-52"/>
     <use transform="translate(114.018555 -16.3125)scale(0.7)" xlink:href="#DejaVuSans-51"/>
    </g>
   </g>
   <g id="text_10">
    <!-- $R_{42}$ -->
    <g transform="translate(661.41 298.813437)scale(0.14 -0.14)">
     <use transform="translate(0 0.09375)" xlink:href="#DejaVuSans-Oblique-82"/>
     <use transform="translate(69.482422 -16.3125)scale(0.7)" xlink:href="#DejaVuSans-52"/>
     <use transform="translate(114.018555 -16.3125)scale(0.7)" xlink:href="#DejaVuSans-50"/>
    </g>
   </g>
   <g id="text_11">
    <!-- $R_{41}$ -->
    <g transform="translate(661.41 344.713437)scale(0.14 -0.14)">
     <use transform="translate(0 0.09375)" xlink:href="#DejaVuSans-Oblique-82"/>
     <use transform="translate(69.482422 -16.3125)scale(0.7)" xlink:href="#DejaVuSans-52"/>
     <use transform="translate(114.018555 -16.3125)scale(0.7)" xlink:href="#DejaVuSans-49"/>
    </g>
   </g>
   <g id="text_12">
    <!-- $R_{40}$ -->
    <g transform="translate(758.61 252.913437)scale(0.14 -0.14)">
     <defs>
      <path d="M 31.78125 66.40625 
Q 24.171875 66.40625 20.328125 58.90625 
Q 16.5 51.421875 16.5 36.375 
Q 16.5 21.390625 20.328125 13.890625 
Q 24.171875 6.390625 31.78125 6.390625 
Q 39.453125 6.390625 43.28125 13.890625 
Q 47.125 21.390625 47.125 36.375 
Q 47.125 51.421875 43.28125 58.90625 
Q 39.453125 66.40625 31.78125 66.40625 
z
M 31.78125 74.21875 
Q 44.046875 74.21875 50.515625 64.515625 
Q 56.984375 54.828125 56.984375 36.375 
Q 56.984375 17.96875 50.515625 8.265625 
Q 44.046875 -1.421875 31.78125 -1.421875 
Q 19.53125 -1.421875 13.0625 8.265625 
Q 6.59375 17.96875 6.59375 36.375 
Q 6.59375 54.828125 13.0625 64.515625 
Q 19.53125 74.21875 31.78125 74.21875 
z
" id="DejaVuSans-48"/>
     </defs>
     <use transform="translate(0 0.09375)" xlink:href="#DejaVuSans-Oblique-82"/>
     <use transform="translate(69.482422 -16.3125)scale(0.7)" xlink:href="#DejaVuSans-52"/>
     <use transform="translate(114.018555 -16.3125)scale(0.7)" xlink:href="#DejaVuSans-48"/>
    </g>
   </g>
   <g id="patch_2">
    <path clip-path="url(#p5f3e99a38c)" d="M 16.65 157.905 
C 17.294444 157.905 17.912579 157.663184 18.368269 157.23281 
C 18.82396 156.802436 19.08 156.218641 19.08 155.61 
C 19.08 155.001359 18.82396 154.417564 18.368269 153.98719 
C 17.912579 153.556816 17.294444 153.315 16.65 153.315 
C 16.005556 153.315 15.387421 153.556816 14.931731 153.98719 
C 14.47604 154.417564 14.22 155.001359 14.22 155.61 
C 14.22 156.218641 14.47604 156.802436 14.931731 157.23281 
C 15.387421 157.663184 16.005556 157.905 16.65 157.905 
z
" style="fill:#ffffff;stroke:#000000;stroke-linejoin:miter;stroke-width:2;"/>
   </g>
   <g id="patch_3">
    <path clip-path="url(#p5f3e99a38c)" d="M 138.15 157.905 
C 138.794444 157.905 139.412579 157.663184 139.868269 157.23281 
C 140.32396 156.802436 140.58 156.218641 140.58 155.61 
C 140.58 155.001359 140.32396 154.417564 139.868269 153.98719 
C 139.412579 153.556816 138.794444 153.315 138.15 153.315 
C 137.505556 153.315 136.887421 153.556816 136.431731 153.98719 
C 135.97604 154.417564 135.72 155.001359 135.72 155.61 
C 135.72 156.218641 135.97604 156.802436 136.431731 157.23281 
C 136.887421 157.663184 137.505556 157.905 138.15 157.905 
z
" style="stroke:#000000;stroke-linejoin:miter;stroke-width:2;"/>
   </g>
   <g id="patch_4">
    <path clip-path="url(#p5f3e99a38c)" d="M 138.15 112.005 
C 138.794444 112.005 139.412579 111.763184 139.868269 111.33281 
C 140.32396 110.902436 140.58 110.318641 140.58 109.71 
C 140.58 109.101359 140.32396 108.517564 139.868269 108.08719 
C 139.412579 107.656816 138.794444 107.415 138.15 107.415 
C 137.505556 107.415 136.887421 107.656816 136.431731 108.08719 
C 135.97604 108.517564 135.72 109.101359 135.72 109.71 
C 135.72 110.318641 135.97604 110.902436 136.431731 111.33281 
C 136.887421 111.763184 137.505556 112.005 138.15 112.005 
z
" style="stroke:#000000;stroke-linejoin:miter;stroke-width:2;"/>
   </g>
   <g id="patch_5">
    <path clip-path="url(#p5f3e99a38c)" d="M 235.35 112.005 
C 235.994444 112.005 236.612579 111.763184 237.068269 111.33281 
C 237.52396 110.902436 237.78 110.318641 237.78 109.71 
C 237.78 109.101359 237.52396 108.517564 237.068269 108.08719 
C 236.612579 107.656816 235.994444 107.415 235.35 107.415 
C 234.705556 107.415 234.087421 107.656816 233.631731 108.08719 
C 233.17604 108.517564 232.92 109.101359 232.92 109.71 
C 232.92 110.318641 233.17604 110.902436 233.631731 111.33281 
C 234.087421 111.763184 234.705556 112.005 235.35 112.005 
z
" style="stroke:#000000;stroke-linejoin:miter;stroke-width:2;"/>
   </g>
   <g id="patch_6">
    <path clip-path="url(#p5f3e99a38c)" d="M 138.15 66.105 
C 138.794444 66.105 139.412579 65.863184 139.868269 65.43281 
C 140.32396 65.002436 140.58 64.418641 140.58 63.81 
C 140.58 63.201359 140.32396 62.617564 139.868269 62.18719 
C 139.412579 61.756816 138.794444 61.515 138.15 61.515 
C 137.505556 61.515 136.887421 61.756816 136.431731 62.18719 
C 135.97604 62.617564 135.72 63.201359 135.72 63.81 
C 135.72 64.418641 135.97604 65.002436 136.431731 65.43281 
C 136.887421 65.863184 137.505556 66.105 138.15 66.105 
z
" style="stroke:#000000;stroke-linejoin:miter;stroke-width:2;"/>
   </g>
   <g id="patch_7">
    <path clip-path="url(#p5f3e99a38c)" d="M 235.35 157.905 
C 235.994444 157.905 236.612579 157.663184 237.068269 157.23281 
C 237.52396 156.802436 237.78 156.218641 237.78 155.61 
C 237.78 155.001359 237.52396 154.417564 237.068269 153.98719 
C 236.612579 153.556816 235.994444 153.315 235.35 153.315 
C 234.705556 153.315 234.087421 153.556816 233.631731 153.98719 
C 233.17604 154.417564 232.92 155.001359 232.92 155.61 
C 232.92 156.218641 233.17604 156.802436 233.631731 157.23281 
C 234.087421 157.663184 234.705556 157.905 235.35 157.905 
z
" style="stroke:#000000;stroke-linejoin:miter;stroke-width:2;"/>
   </g>
   <g id="patch_8">
    <path clip-path="url(#p5f3e99a38c)" d="M 235.35 177.03 
C 235.994444 177.03 236.612579 176.788184 237.068269 176.35781 
C 237.52396 175.927436 237.78 175.343641 237.78 174.735 
C 237.78 174.126359 237.52396 173.542564 237.068269 173.11219 
C 236.612579 172.681816 235.994444 172.44 235.35 172.44 
C 234.705556 172.44 234.087421 172.681816 233.631731 173.11219 
C 233.17604 173.542564 232.92 174.126359 232.92 174.735 
C 232.92 175.343641 233.17604 175.927436 233.631731 176.35781 
C 234.087421 176.788184 234.705556 177.03 235.35 177.03 
z
" style="stroke:#000000;stroke-linejoin:miter;stroke-width:2;"/>
   </g>
   <g id="patch_9">
    <path clip-path="url(#p5f3e99a38c)" d="M 332.55 157.905 
C 333.194444 157.905 333.812579 157.663184 334.268269 157.23281 
C 334.72396 156.802436 334.98 156.218641 334.98 155.61 
C 334.98 155.001359 334.72396 154.417564 334.268269 153.98719 
C 333.812579 153.556816 333.194444 153.315 332.55 153.315 
C 331.905556 153.315 331.287421 153.556816 330.831731 153.98719 
C 330.37604 154.417564 330.12 155.001359 330.12 155.61 
C 330.12 156.218641 330.37604 156.802436 330.831731 157.23281 
C 331.287421 157.663184 331.905556 157.905 332.55 157.905 
z
" style="stroke:#000000;stroke-linejoin:miter;stroke-width:2;"/>
   </g>
   <g id="patch_10">
    <path clip-path="url(#p5f3e99a38c)" d="M 429.75 157.905 
C 430.394444 157.905 431.012579 157.663184 431.468269 157.23281 
C 431.92396 156.802436 432.18 156.218641 432.18 155.61 
C 432.18 155.001359 431.92396 154.417564 431.468269 153.98719 
C 431.012579 153.556816 430.394444 153.315 429.75 153.315 
C 429.105556 153.315 428.487421 153.556816 428.031731 153.98719 
C 427.57604 154.417564 427.32 155.001359 427.32 155.61 
C 427.32 156.218641 427.57604 156.802436 428.031731 157.23281 
C 428.487421 157.663184 429.105556 157.905 429.75 157.905 
z
" style="stroke:#000000;stroke-linejoin:miter;stroke-width:2;"/>
   </g>
   <g id="patch_11">
    <path clip-path="url(#p5f3e99a38c)" d="M 429.75 177.03 
C 430.394444 177.03 431.012579 176.788184 431.468269 176.35781 
C 431.92396 175.927436 432.18 175.343641 432.18 174.735 
C 432.18 174.126359 431.92396 173.542564 431.468269 173.11219 
C 431.012579 172.681816 430.394444 172.44 429.75 172.44 
C 429.105556 172.44 428.487421 172.681816 428.031731 173.11219 
C 427.57604 173.542564 427.32 174.126359 427.32 174.735 
C 427.32 175.343641 427.57604 175.927436 428.031731 176.35781 
C 428.487421 176.788184 429.105556 177.03 429.75 177.03 
z
" style="stroke:#000000;stroke-linejoin:miter;stroke-width:2;"/>
   </g>
   <g id="patch_12">
    <path clip-path="url(#p5f3e99a38c)" d="M 526.95 157.905 
C 527.594444 157.905 528.212579 157.663184 528.668269 157.23281 
C 529.12396 156.802436 529.38 156.218641 529.38 155.61 
C 529.38 155.001359 529.12396 154.417564 528.668269 153.98719 
C 528.212579 153.556816 527.594444 153.315 526.95 153.315 
C 526.305556 153.315 525.687421 153.556816 525.231731 153.98719 
C 524.77604 154.417564 524.52 155.001359 524.52 155.61 
C 524.52 156.218641 524.77604 156.802436 525.231731 157.23281 
C 525.687421 157.663184 526.305556 157.905 526.95 157.905 
z
" style="stroke:#000000;stroke-linejoin:miter;stroke-width:2;"/>
   </g>
   <g id="patch_13">
    <path clip-path="url(#p5f3e99a38c)" d="M 624.15 112.005 
C 624.794444 112.005 625.412579 111.763184 625.868269 111.33281 
C 626.32396 110.902436 626.58 110.318641 626.58 109.71 
C 626.58 109.101359 626.32396 108.517564 625.868269 108.08719 
C 625.412579 107.656816 624.794444 107.415 624.15 107.415 
C 623.505556 107.415 622.887421 107.656816 622.431731 108.08719 
C 621.97604 108.517564 621.72 109.101359 621.72 109.71 
C 621.72 110.318641 621.97604 110.902436 622.431731 111.33281 
C 622.887421 111.763184 623.505556 112.005 624.15 112.005 
z
" style="stroke:#000000;stroke-linejoin:miter;stroke-width:2;"/>
   </g>
   <g id="patch_14">
    <path clip-path="url(#p5f3e99a38c)" d="M 624.15 177.03 
C 624.794444 177.03 625.412579 176.788184 625.868269 176.35781 
C 626.32396 175.927436 626.58 175.343641 626.58 174.735 
C 626.58 174.126359 626.32396 173.542564 625.868269 173.11219 
C 625.412579 172.681816 624.794444 172.44 624.15 172.44 
C 623.505556 172.44 622.887421 172.681816 622.431731 173.11219 
C 621.97604 173.542564 621.72 174.126359 621.72 174.735 
C 621.72 175.343641 621.97604 175.927436 622.431731 176.35781 
C 622.887421 176.788184 623.505556 177.03 624.15 177.03 
z
" style="stroke:#000000;stroke-linejoin:miter;stroke-width:2;"/>
   </g>
   <g id="patch_15">
    <path clip-path="url(#p5f3e99a38c)" d="M 721.35 268.83 
C 721.994444 268.83 722.612579 268.588184 723.068269 268.15781 
C 723.52396 267.727436 723.78 267.143641 723.78 266.535 
C 723.78 265.926359 723.52396 265.342564 723.068269 264.91219 
C 722.612579 264.481816 721.994444 264.24 721.35 264.24 
C 720.705556 264.24 720.087421 264.481816 719.631731 264.91219 
C 719.17604 265.342564 718.92 265.926359 718.92 266.535 
C 718.92 267.143641 719.17604 267.727436 719.631731 268.15781 
C 720.087421 268.588184 720.705556 268.83 721.35 268.83 
z
" style="stroke:#000000;stroke-linejoin:miter;stroke-width:2;"/>
   </g>
   <g id="patch_16">
    <path clip-path="url(#p5f3e99a38c)" d="M 721.35 314.73 
C 721.994444 314.73 722.612579 314.488184 723.068269 314.05781 
C 723.52396 313.627436 723.78 313.043641 723.78 312.435 
C 723.78 311.826359 723.52396 311.242564 723.068269 310.81219 
C 722.612579 310.381816 721.994444 310.14 721.35 310.14 
C 720.705556 310.14 720.087421 310.381816 719.631731 310.81219 
C 719.17604 311.242564 718.92 311.826359 718.92 312.435 
C 718.92 313.043641 719.17604 313.627436 719.631731 314.05781 
C 720.087421 314.488184 720.705556 314.73 721.35 314.73 
z
" style="stroke:#000000;stroke-linejoin:miter;stroke-width:2;"/>
   </g>
   <g id="patch_17">
    <path clip-path="url(#p5f3e99a38c)" d="M 721.35 360.63 
C 721.994444 360.63 722.612579 360.388184 723.068269 359.95781 
C 723.52396 359.527436 723.78 358.943641 723.78 358.335 
C 723.78 357.726359 723.52396 357.142564 723.068269 356.71219 
C 722.612579 356.281816 721.994444 356.04 721.35 356.04 
C 720.705556 356.04 720.087421 356.281816 719.631731 356.71219 
C 719.17604 357.142564 718.92 357.726359 718.92 358.335 
C 718.92 358.943641 719.17604 359.527436 719.631731 359.95781 
C 720.087421 360.388184 720.705556 360.63 721.35 360.63 
z
" style="stroke:#000000;stroke-linejoin:miter;stroke-width:2;"/>
   </g>
   <g id="patch_18">
    <path clip-path="url(#p5f3e99a38c)" d="M 40.95 157.905 
C 41.594444 157.905 42.212579 157.663184 42.668269 157.23281 
C 43.12396 156.802436 43.38 156.218641 43.38 155.61 
C 43.38 155.001359 43.12396 154.417564 42.668269 153.98719 
C 42.212579 153.556816 41.594444 153.315 40.95 153.315 
C 40.305556 153.315 39.687421 153.556816 39.231731 153.98719 
C 38.77604 154.417564 38.52 155.001359 38.52 155.61 
C 38.52 156.218641 38.77604 156.802436 39.231731 157.23281 
C 39.687421 157.663184 40.305556 157.905 40.95 157.905 
z
" style="stroke:#000000;stroke-linejoin:miter;stroke-width:2;"/>
   </g>
   <g id="patch_19">
    <path clip-path="url(#p5f3e99a38c)" d="M 818.55 379.755 
C 819.194444 379.755 819.812579 379.513184 820.268269 379.08281 
C 820.72396 378.652436 820.98 378.068641 820.98 377.46 
C 820.98 376.851359 820.72396 376.267564 820.268269 375.83719 
C 819.812579 375.406816 819.194444 375.165 818.55 375.165 
C 817.905556 375.165 817.287421 375.406816 816.831731 375.83719 
C 816.37604 376.267564 816.12 376.851359 816.12 377.46 
C 816.12 378.068641 816.37604 378.652436 816.831731 379.08281 
C 817.287421 379.513184 817.905556 379.755 818.55 379.755 
z
" style="stroke:#000000;stroke-linejoin:miter;stroke-width:2;"/>
   </g>
   <g id="patch_20">
    <path clip-path="url(#p5f3e99a38c)" d="M 867.15 379.755 
C 867.794444 379.755 868.412579 379.513184 868.868269 379.08281 
C 869.32396 378.652436 869.58 378.068641 869.58 377.46 
C 869.58 376.851359 869.32396 376.267564 868.868269 375.83719 
C 868.412579 375.406816 867.794444 375.165 867.15 375.165 
C 866.505556 375.165 865.887421 375.406816 865.431731 375.83719 
C 864.97604 376.267564 864.72 376.851359 864.72 377.46 
C 864.72 378.068641 864.97604 378.652436 865.431731 379.08281 
C 865.887421 379.513184 866.505556 379.755 867.15 379.755 
z
" style="fill:#ffffff;stroke:#000000;stroke-linejoin:miter;stroke-width:2;"/>
   </g>
   <g id="text_13">
    <!-- $V_{in}$ -->
    <g transform="translate(7.2 147.343437)scale(0.14 -0.14)">
     <defs>
      <path d="M 20.609375 0 
L 7.8125 72.90625 
L 17.484375 72.90625 
L 28.078125 10.203125 
L 63.484375 72.90625 
L 74.21875 72.90625 
L 32.078125 0 
z
" id="DejaVuSans-Oblique-86"/>
      <path d="M 18.3125 75.984375 
L 27.296875 75.984375 
L 25.09375 64.59375 
L 16.109375 64.59375 
z
M 14.203125 54.6875 
L 23.1875 54.6875 
L 12.5 0 
L 3.515625 0 
z
" id="DejaVuSans-Oblique-105"/>
      <path d="M 55.71875 33.015625 
L 49.3125 0 
L 40.28125 0 
L 46.6875 32.671875 
Q 47.125 34.96875 47.359375 36.71875 
Q 47.609375 38.484375 47.609375 39.5 
Q 47.609375 43.609375 45.015625 45.890625 
Q 42.4375 48.1875 37.796875 48.1875 
Q 30.5625 48.1875 25.34375 43.375 
Q 20.125 38.578125 18.5 30.328125 
L 12.5 0 
L 3.515625 0 
L 14.109375 54.6875 
L 23.09375 54.6875 
L 21.296875 46.09375 
Q 25.046875 50.828125 30.3125 53.40625 
Q 35.59375 56 41.40625 56 
Q 48.640625 56 52.609375 52.09375 
Q 56.59375 48.1875 56.59375 41.109375 
Q 56.59375 39.359375 56.375 37.359375 
Q 56.15625 35.359375 55.71875 33.015625 
z
" id="DejaVuSans-Oblique-110"/>
     </defs>
     <use transform="translate(0 0.09375)" xlink:href="#DejaVuSans-Oblique-86"/>
     <use transform="translate(68.408203 -16.3125)scale(0.7)" xlink:href="#DejaVuSans-Oblique-105"/>
     <use transform="translate(87.856445 -16.3125)scale(0.7)" xlink:href="#DejaVuSans-Oblique-110"/>
    </g>
   </g>
   <g id="text_14">
    <!-- $V_{*}$ -->
    <g transform="translate(241.02 178.598125)scale(0.14 -0.14)">
     <defs>
      <path d="M 47.015625 60.890625 
L 29.5 51.421875 
L 47.015625 41.890625 
L 44.1875 37.109375 
L 27.78125 47.015625 
L 27.78125 28.609375 
L 22.21875 28.609375 
L 22.21875 47.015625 
L 5.8125 37.109375 
L 2.984375 41.890625 
L 20.515625 51.421875 
L 2.984375 60.890625 
L 5.8125 65.71875 
L 22.21875 55.8125 
L 22.21875 74.21875 
L 27.78125 74.21875 
L 27.78125 55.8125 
L 44.1875 65.71875 
z
" id="DejaVuSans-42"/>
     </defs>
     <use transform="translate(0 0.09375)" xlink:href="#DejaVuSans-Oblique-86"/>
     <use transform="translate(68.408203 -16.3125)scale(0.7)" xlink:href="#DejaVuSans-42"/>
    </g>
   </g>
   <g id="text_15">
    <!-- $-V_{out*}$ -->
    <g transform="translate(406.51 190.727812)scale(0.14 -0.14)">
     <defs>
      <path d="M 10.59375 35.5 
L 73.1875 35.5 
L 73.1875 27.203125 
L 10.59375 27.203125 
z
" id="DejaVuSans-8722"/>
      <path d="M 25.390625 -1.421875 
Q 15.765625 -1.421875 10.171875 4.515625 
Q 4.59375 10.453125 4.59375 20.703125 
Q 4.59375 26.65625 6.515625 32.828125 
Q 8.453125 39.015625 11.53125 43.21875 
Q 16.359375 49.75 22.3125 52.875 
Q 28.265625 56 35.796875 56 
Q 45.125 56 50.859375 50.1875 
Q 56.59375 44.390625 56.59375 35.015625 
Q 56.59375 28.515625 54.6875 22.0625 
Q 52.78125 15.625 49.703125 11.375 
Q 44.921875 4.828125 38.96875 1.703125 
Q 33.015625 -1.421875 25.390625 -1.421875 
z
M 13.921875 21 
Q 13.921875 13.578125 17.015625 9.890625 
Q 20.125 6.203125 26.421875 6.203125 
Q 35.453125 6.203125 41.375 14.078125 
Q 47.3125 21.96875 47.3125 34.078125 
Q 47.3125 41.15625 44.140625 44.765625 
Q 40.96875 48.390625 34.8125 48.390625 
Q 29.734375 48.390625 25.78125 46.015625 
Q 21.828125 43.65625 18.703125 38.8125 
Q 16.40625 35.203125 15.15625 30.5625 
Q 13.921875 25.921875 13.921875 21 
z
" id="DejaVuSans-Oblique-111"/>
      <path d="M 6.6875 21.6875 
L 13.09375 54.6875 
L 22.125 54.6875 
L 15.71875 22.015625 
Q 15.234375 19.625 15.015625 17.921875 
Q 14.796875 16.21875 14.796875 15.09375 
Q 14.796875 10.9375 17.328125 8.65625 
Q 19.875 6.390625 24.515625 6.390625 
Q 31.734375 6.390625 37 11.265625 
Q 42.28125 16.15625 43.890625 24.421875 
L 49.90625 54.6875 
L 58.890625 54.6875 
L 48.296875 0 
L 39.3125 0 
L 41.109375 8.59375 
Q 37.3125 3.8125 32.0625 1.1875 
Q 26.8125 -1.421875 20.90625 -1.421875 
Q 13.71875 -1.421875 9.71875 2.515625 
Q 5.71875 6.453125 5.71875 13.484375 
Q 5.71875 14.9375 5.953125 17.140625 
Q 6.203125 19.34375 6.6875 21.6875 
z
" id="DejaVuSans-Oblique-117"/>
      <path d="M 42.28125 54.6875 
L 40.921875 47.703125 
L 23 47.703125 
L 17.1875 18.015625 
Q 16.890625 16.359375 16.75 15.234375 
Q 16.609375 14.109375 16.609375 13.484375 
Q 16.609375 10.359375 18.484375 8.9375 
Q 20.359375 7.515625 24.515625 7.515625 
L 33.59375 7.515625 
L 32.078125 0 
L 23.484375 0 
Q 15.484375 0 11.546875 3.125 
Q 7.625 6.25 7.625 12.59375 
Q 7.625 13.71875 7.765625 15.0625 
Q 7.90625 16.40625 8.203125 18.015625 
L 14.015625 47.703125 
L 6.390625 47.703125 
L 7.8125 54.6875 
L 15.28125 54.6875 
L 18.3125 70.21875 
L 27.296875 70.21875 
L 24.3125 54.6875 
z
" id="DejaVuSans-Oblique-116"/>
     </defs>
     <use transform="translate(0 0.09375)" xlink:href="#DejaVuSans-8722"/>
     <use transform="translate(83.789062 0.09375)" xlink:href="#DejaVuSans-Oblique-86"/>
     <use transform="translate(152.197266 -16.3125)scale(0.7)" xlink:href="#DejaVuSans-Oblique-111"/>
     <use transform="translate(195.024414 -16.3125)scale(0.7)" xlink:href="#DejaVuSans-Oblique-117"/>
     <use transform="translate(239.389648 -16.3125)scale(0.7)" xlink:href="#DejaVuSans-Oblique-116"/>
     <use transform="translate(280.473633 -16.3125)scale(0.7)" xlink:href="#DejaVuSans-42"/>
    </g>
   </g>
   <g id="text_16">
    <!-- $V_{out*}$ -->
    <g transform="translate(629.82 178.598125)scale(0.14 -0.14)">
     <use transform="translate(0 0.09375)" xlink:href="#DejaVuSans-Oblique-86"/>
     <use transform="translate(68.408203 -16.3125)scale(0.7)" xlink:href="#DejaVuSans-Oblique-111"/>
     <use transform="translate(111.235352 -16.3125)scale(0.7)" xlink:href="#DejaVuSans-Oblique-117"/>
     <use transform="translate(155.600586 -16.3125)scale(0.7)" xlink:href="#DejaVuSans-Oblique-116"/>
     <use transform="translate(196.68457 -16.3125)scale(0.7)" xlink:href="#DejaVuSans-42"/>
    </g>
   </g>
   <g id="text_17">
    <!-- $V_{out}$ -->
    <g transform="translate(854.13 393.452812)scale(0.14 -0.14)">
     <use transform="translate(0 0.09375)" xlink:href="#DejaVuSans-Oblique-86"/>
     <use transform="translate(68.408203 -16.3125)scale(0.7)" xlink:href="#DejaVuSans-Oblique-111"/>
     <use transform="translate(111.235352 -16.3125)scale(0.7)" xlink:href="#DejaVuSans-Oblique-117"/>
     <use transform="translate(155.600586 -16.3125)scale(0.7)" xlink:href="#DejaVuSans-Oblique-116"/>
    </g>
   </g>
  </g>
 </g>
 <defs>
  <clipPath id="p5f3e99a38c">
   <rect height="430.389" width="861.84" x="10.98" y="7.2"/>
  </clipPath>
 </defs>
</svg>