<?xml version="1.0" encoding="utf-8" standalone="no"?>
<!DOCTYPE svg PUBLIC "-//W3C//DTD SVG 1.1//EN"
  "http://www.w3.org/Graphics/SVG/1.1/DTD/svg11.dtd">
<svg xmlns:xlink="http://www.w3.org/1999/xlink" width="192.416384pt" height="266.077656pt" viewBox="0 0 192.416384 266.077656" xmlns="http://www.w3.org/2000/svg" version="1.1">
 <metadata>
  <rdf:RDF xmlns:dc="http://purl.org/dc/elements/1.1/" xmlns:cc="http://creativecommons.org/ns#" xmlns:rdf="http://www.w3.org/1999/02/22-rdf-syntax-ns#">
   <cc:Work>
    <dc:type rdf:resource="http://purl.org/dc/dcmitype/StillImage"/>
    <dc:date>2023-09-25T17:50:12.776482</dc:date>
    <dc:format>image/svg+xml</dc:format>
    <dc:creator>
     <cc:Agent>
      <dc:title>Matplotlib v3.6.3, https://matplotlib.org/</dc:title>
     </cc:Agent>
    </dc:creator>
   </cc:Work>
  </rdf:RDF>
 </metadata>
 <defs>
  <style type="text/css">*{stroke-linejoin: round; stroke-linecap: butt}</style>
 </defs>
 <g id="figure_1">
  <g id="patch_1">
   <path d="M 0 266.077656 
L 192.416384 266.077656 
L 192.416384 -0 
L 0 -0 
z
" style="fill: #ffffff"/>
  </g>
  <g id="axes_1">
   <g id="line2d_1">
    <path d="M 51.693884 202.777656 
L 64.893884 202.777656 
" clip-path="url(#pf7811ac4f7)" style="fill: none; stroke: #000000; stroke-width: 2; stroke-linecap: round"/>
   </g>
   <g id="line2d_2">
    <path d="M 64.893884 189.577656 
L 64.893884 215.977656 
" clip-path="url(#pf7811ac4f7)" style="fill: none; stroke: #000000; stroke-width: 2; stroke-linecap: round"/>
   </g>
   <g id="line2d_3">
    <path d="M 64.893884 196.177656 
L 78.753884 184.297656 
L 78.753884 177.697656 
" clip-path="url(#pf7811ac4f7)" style="fill: none; stroke: #000000; stroke-width: 2; stroke-linecap: round"/>
   </g>
   <g id="line2d_4">
    <path d="M 64.893884 209.377656 
L 78.753884 221.257656 
L 78.753884 227.857656 
" clip-path="url(#pf7811ac4f7)" style="fill: none; stroke: #000000; stroke-width: 2; stroke-linecap: round"/>
   </g>
   <g id="line2d_5">
    <path d="M 64.893884 209.377656 
L 71.920575 215.400534 
" clip-path="url(#pf7811ac4f7)" style="fill: none; stroke: #000000; stroke-width: 2; stroke-linecap: round"/>
   </g>
   <g id="patch_2">
    <path d="M 74.263424 212.66721 
L 78.753884 221.257656 
L 69.577726 218.133858 
z
" clip-path="url(#pf7811ac4f7)"/>
   </g>
   <g id="line2d_6">
    <path d="M 78.753884 227.857656 
L 78.753884 242.257656 
L 69.753884 242.257656 
L 87.753884 242.257656 
M 72.453884 246.577656 
L 85.053884 246.577656 
M 76.953884 250.897656 
L 80.553884 250.897656 
" clip-path="url(#pf7811ac4f7)" style="fill: none; stroke: #000000; stroke-width: 2; stroke-linecap: round"/>
   </g>
   <g id="line2d_7">
    <path d="M 78.753884 177.697656 
L 78.753884 164.197656 
L 78.753884 150.697656 
" clip-path="url(#pf7811ac4f7)" style="fill: none; stroke: #000000; stroke-width: 2; stroke-linecap: round"/>
   </g>
   <g id="line2d_8">
    <path d="M 78.753884 150.697656 
L 78.753884 99.937656 
M 69.753884 99.937656 
L 87.753884 99.937656 
M 69.753884 93.457656 
L 87.753884 93.457656 
M 78.753884 93.457656 
L 78.753884 42.697656 
" clip-path="url(#pf7811ac4f7)" style="fill: none; stroke: #000000; stroke-width: 2; stroke-linecap: round"/>
   </g>
   <g id="line2d_9">
    <path d="M 78.753884 150.697656 
L 56.253884 150.697656 
L 33.753884 150.697656 
" clip-path="url(#pf7811ac4f7)" style="fill: none; stroke: #000000; stroke-width: 2; stroke-linecap: round"/>
   </g>
   <g id="line2d_10">
    <path d="M 33.753884 150.697656 
L 33.753884 114.697656 
L 30.789698 114.563587 
L 27.798778 114.155897 
L 25.031968 113.483655 
L 22.721316 112.578118 
L 21.799576 112.053089 
L 21.060613 111.490109 
L 20.520003 110.897889 
L 20.189141 110.285754 
L 20.075 109.66345 
L 20.179987 109.040936 
L 20.501888 108.428178 
L 21.03392 107.834934 
L 21.764866 107.270551 
L 22.679321 106.743768 
L 24.978193 105.833831 
L 27.737734 105.156314 
L 30.726505 104.742916 
L 33.693842 104.603184 
L 36.390879 104.723714 
L 38.59142 105.069274 
L 40.110908 105.585759 
L 40.572873 105.88712 
L 40.821908 106.204728 
L 40.852763 106.528733 
L 40.664788 106.849147 
L 40.261945 107.15606 
L 38.84997 107.691364 
L 36.735259 108.064627 
L 34.095169 108.21942 
L 31.15112 108.117638 
L 28.150026 107.742693 
L 25.343584 107.100908 
L 22.967165 106.220986 
L 22.004391 105.706255 
L 21.220076 105.151599 
L 20.630753 104.565554 
L 20.248843 103.957314 
L 20.082397 103.336543 
L 20.134922 102.713169 
L 20.405312 102.097174 
L 20.887867 101.498385 
L 21.572416 100.926267 
L 22.44453 100.389721 
L 24.674355 99.455036 
L 27.390331 98.747596 
L 30.364673 98.30161 
L 33.347928 98.129359 
L 36.089894 98.220166 
L 38.360607 98.541292 
L 39.969626 99.04068 
L 40.481316 99.33672 
L 40.782005 99.651324 
L 40.865355 99.974705 
L 40.72961 100.296888 
L 40.377631 100.607926 
L 39.816836 100.898105 
L 38.120237 101.379428 
L 35.782103 101.675367 
L 32.998529 101.735978 
L 30.002971 101.531054 
L 27.046661 101.052659 
L 24.377539 100.31579 
L 22.219462 99.357126 
L 21.390746 98.811285 
L 20.753424 98.231943 
L 20.32093 97.628154 
L 20.102379 97.009487 
L 20.102379 96.385826 
L 20.32093 95.767159 
L 20.753424 95.163369 
L 21.390746 94.584027 
L 22.219462 94.038187 
L 23.222105 93.534196 
L 25.661412 92.680591 
L 28.504087 92.069678 
L 31.511719 91.727569 
L 34.432063 91.657835 
L 37.020193 91.841199 
L 39.059048 92.237161 
L 40.377631 92.787387 
L 40.72961 93.098425 
L 40.865355 93.420608 
L 40.782005 93.743988 
L 40.481316 94.058593 
L 39.969626 94.354633 
L 38.360607 94.854021 
L 36.089894 95.175146 
L 33.347928 95.265953 
L 30.364673 95.093702 
L 27.390331 94.647717 
L 24.674355 93.940277 
L 22.44453 93.005591 
L 21.572416 92.469046 
L 20.887867 91.896928 
L 20.405312 91.298139 
L 20.134922 90.682144 
L 20.082397 90.058769 
L 20.248843 89.437999 
L 20.630753 88.829759 
L 21.220076 88.243713 
L 22.004391 87.689058 
L 22.967165 87.174327 
L 25.343584 86.294404 
L 28.150026 85.65262 
L 31.15112 85.277675 
L 34.095169 85.175893 
L 36.735259 85.330686 
L 38.84997 85.703949 
L 40.261945 86.239253 
L 40.664788 86.546166 
L 40.852763 86.86658 
L 40.821908 87.190584 
L 40.572873 87.508193 
L 40.110908 87.809554 
L 38.59142 88.326039 
L 36.390879 88.671599 
L 33.693842 88.792129 
L 30.726505 88.652397 
L 27.737734 88.238998 
L 24.978193 87.561481 
L 22.679321 86.651544 
L 21.764866 86.124762 
L 21.03392 85.560379 
L 20.501888 84.967135 
L 20.179987 84.354376 
L 20.075 83.731863 
L 20.189141 83.109559 
L 20.520003 82.497424 
L 21.060613 81.905203 
L 21.799576 81.342224 
L 22.721316 80.817194 
L 25.031968 79.911657 
L 27.798778 79.239416 
L 30.789698 78.831726 
L 33.753884 78.697656 
L 33.753884 42.697656 
L 33.753884 42.697656 
" clip-path="url(#pf7811ac4f7)" style="fill: none; stroke: #000000; stroke-width: 2; stroke-linecap: round"/>
   </g>
   <g id="line2d_11">
    <path d="M 78.753884 150.697656 
L 101.253884 150.697656 
L 123.753884 150.697656 
" clip-path="url(#pf7811ac4f7)" style="fill: none; stroke: #000000; stroke-width: 2; stroke-linecap: round"/>
   </g>
   <g id="line2d_12">
    <path d="M 123.753884 150.697656 
L 123.753884 114.697656 
L 114.753884 111.697656 
L 132.753884 105.697656 
L 114.753884 99.697656 
L 132.753884 93.697656 
L 114.753884 87.697656 
L 132.753884 81.697656 
L 123.753884 78.697656 
L 123.753884 42.697656 
" clip-path="url(#pf7811ac4f7)" style="fill: none; stroke: #000000; stroke-width: 2; stroke-linecap: round"/>
   </g>
   <g id="line2d_13">
    <path d="M 123.753884 150.697656 
L 132.753884 150.697656 
L 141.753884 150.697656 
" clip-path="url(#pf7811ac4f7)" style="fill: none; stroke: #000000; stroke-width: 2; stroke-linecap: round"/>
   </g>
   <g id="line2d_14">
    <path d="M 123.753884 42.697656 
L 132.753884 42.697656 
L 141.753884 42.697656 
" clip-path="url(#pf7811ac4f7)" style="fill: none; stroke: #000000; stroke-width: 2; stroke-linecap: round"/>
   </g>
   <g id="line2d_15">
    <path d="M 123.753884 42.697656 
L 101.253884 42.697656 
L 78.753884 42.697656 
" clip-path="url(#pf7811ac4f7)" style="fill: none; stroke: #000000; stroke-width: 2; stroke-linecap: round"/>
   </g>
   <g id="line2d_16">
    <path d="M 33.753884 42.697656 
L 56.253884 42.697656 
L 78.753884 42.697656 
" clip-path="url(#pf7811ac4f7)" style="fill: none; stroke: #000000; stroke-width: 2; stroke-linecap: round"/>
   </g>
   <g id="line2d_17">
    <path d="M 78.753884 42.697656 
L 78.753884 38.197656 
L 78.753884 33.697656 
" clip-path="url(#pf7811ac4f7)" style="fill: none; stroke: #000000; stroke-width: 2; stroke-linecap: round"/>
   </g>
   <g id="line2d_18">
    <path d="M 78.753884 33.697656 
L 78.753884 19.297656 
" clip-path="url(#pf7811ac4f7)" style="fill: none; stroke: #000000; stroke-width: 2; stroke-linecap: round"/>
   </g>
   <g id="line2d_19">
    <path d="M 78.753884 19.297656 
L 72.003884 19.297656 
" clip-path="url(#pf7811ac4f7)" style="fill: none; stroke: #000000; stroke-width: 2; stroke-linecap: round"/>
   </g>
   <g id="line2d_20">
    <path d="M 78.753884 19.297656 
L 85.503884 19.297656 
" clip-path="url(#pf7811ac4f7)" style="fill: none; stroke: #000000; stroke-width: 2; stroke-linecap: round"/>
   </g>
   <g id="text_1">
    <!-- $I_{in}$ -->
    <g transform="translate(35.968884 206.526875) scale(0.125 -0.125)">
     <defs>
      <path id="DejaVuSans-Oblique-49" d="M 1081 4666 
L 1716 4666 
L 806 0 
L 172 0 
L 1081 4666 
z
" transform="scale(0.015625)"/>
      <path id="DejaVuSans-Oblique-69" d="M 1172 4863 
L 1747 4863 
L 1606 4134 
L 1031 4134 
L 1172 4863 
z
M 909 3500 
L 1484 3500 
L 800 0 
L 225 0 
L 909 3500 
z
" transform="scale(0.015625)"/>
      <path id="DejaVuSans-Oblique-6e" d="M 3566 2113 
L 3156 0 
L 2578 0 
L 2988 2091 
Q 3016 2238 3031 2350 
Q 3047 2463 3047 2528 
Q 3047 2791 2881 2937 
Q 2716 3084 2419 3084 
Q 1956 3084 1622 2776 
Q 1288 2469 1184 1941 
L 800 0 
L 225 0 
L 903 3500 
L 1478 3500 
L 1363 2950 
Q 1603 3253 1940 3418 
Q 2278 3584 2650 3584 
Q 3113 3584 3367 3334 
Q 3622 3084 3622 2631 
Q 3622 2519 3608 2391 
Q 3594 2263 3566 2113 
z
" transform="scale(0.015625)"/>
     </defs>
     <use xlink:href="#DejaVuSans-Oblique-49" transform="translate(0 0.09375)"/>
     <use xlink:href="#DejaVuSans-Oblique-69" transform="translate(29.492188 -16.3125) scale(0.7)"/>
     <use xlink:href="#DejaVuSans-Oblique-6e" transform="translate(48.94043 -16.3125) scale(0.7)"/>
    </g>
   </g>
   <g id="text_2">
    <!-- $C_1$ -->
    <g transform="translate(51.403884 100.146875) scale(0.125 -0.125)">
     <defs>
      <path id="DejaVuSans-Oblique-43" d="M 4447 4306 
L 4319 3641 
Q 4019 3944 3683 4091 
Q 3347 4238 2956 4238 
Q 2422 4238 2017 3981 
Q 1613 3725 1319 3200 
Q 1131 2863 1032 2486 
Q 934 2109 934 1728 
Q 934 1091 1264 756 
Q 1594 422 2222 422 
Q 2656 422 3056 561 
Q 3456 700 3834 978 
L 3688 231 
Q 3316 72 2936 -9 
Q 2556 -91 2175 -91 
Q 1278 -91 773 396 
Q 269 884 269 1753 
Q 269 2309 461 2846 
Q 653 3384 1013 3828 
Q 1394 4300 1883 4525 
Q 2372 4750 3022 4750 
Q 3422 4750 3780 4639 
Q 4138 4528 4447 4306 
z
" transform="scale(0.015625)"/>
      <path id="DejaVuSans-31" d="M 794 531 
L 1825 531 
L 1825 4091 
L 703 3866 
L 703 4441 
L 1819 4666 
L 2450 4666 
L 2450 531 
L 3481 531 
L 3481 0 
L 794 0 
L 794 531 
z
" transform="scale(0.015625)"/>
     </defs>
     <use xlink:href="#DejaVuSans-Oblique-43" transform="translate(0 0.78125)"/>
     <use xlink:href="#DejaVuSans-31" transform="translate(69.824219 -15.625) scale(0.7)"/>
    </g>
   </g>
   <g id="text_3">
    <!-- $L_1$ -->
    <g transform="translate(3.6 100.146875) scale(0.125 -0.125)">
     <defs>
      <path id="DejaVuSans-Oblique-4c" d="M 1075 4666 
L 1709 4666 
L 909 525 
L 3181 525 
L 3078 0 
L 172 0 
L 1075 4666 
z
" transform="scale(0.015625)"/>
     </defs>
     <use xlink:href="#DejaVuSans-Oblique-4c" transform="translate(0 0.09375)"/>
     <use xlink:href="#DejaVuSans-31" transform="translate(55.712891 -16.3125) scale(0.7)"/>
    </g>
   </g>
   <g id="text_4">
    <!-- $R_L$ -->
    <g transform="translate(97.153884 100.146875) scale(0.125 -0.125)">
     <defs>
      <path id="DejaVuSans-Oblique-52" d="M 1613 4147 
L 1294 2491 
L 2106 2491 
Q 2584 2491 2879 2755 
Q 3175 3019 3175 3444 
Q 3175 3784 2976 3965 
Q 2778 4147 2406 4147 
L 1613 4147 
z
M 2772 2241 
Q 2972 2194 3105 2009 
Q 3238 1825 3413 1275 
L 3809 0 
L 3144 0 
L 2778 1197 
Q 2638 1659 2453 1815 
Q 2269 1972 1888 1972 
L 1191 1972 
L 806 0 
L 172 0 
L 1081 4666 
L 2503 4666 
Q 3150 4666 3495 4373 
Q 3841 4081 3841 3531 
Q 3841 3044 3547 2687 
Q 3253 2331 2772 2241 
z
" transform="scale(0.015625)"/>
     </defs>
     <use xlink:href="#DejaVuSans-Oblique-52" transform="translate(0 0.09375)"/>
     <use xlink:href="#DejaVuSans-Oblique-4c" transform="translate(69.482422 -16.3125) scale(0.7)"/>
    </g>
   </g>
   <g id="text_5">
    <!-- $V_{dd}$ -->
    <g transform="translate(68.691384 13.098047) scale(0.125 -0.125)">
     <defs>
      <path id="DejaVuSans-Oblique-56" d="M 1319 0 
L 500 4666 
L 1119 4666 
L 1797 653 
L 4063 4666 
L 4750 4666 
L 2053 0 
L 1319 0 
z
" transform="scale(0.015625)"/>
      <path id="DejaVuSans-Oblique-64" d="M 2675 525 
Q 2444 222 2128 65 
Q 1813 -91 1428 -91 
Q 903 -91 598 267 
Q 294 625 294 1247 
Q 294 1766 478 2236 
Q 663 2706 1013 3078 
Q 1244 3325 1534 3454 
Q 1825 3584 2144 3584 
Q 2481 3584 2739 3421 
Q 2997 3259 3138 2956 
L 3513 4863 
L 4091 4863 
L 3144 0 
L 2566 0 
L 2675 525 
z
M 891 1350 
Q 891 897 1095 644 
Q 1300 391 1663 391 
Q 1931 391 2161 520 
Q 2391 650 2566 903 
Q 2750 1166 2856 1509 
Q 2963 1853 2963 2188 
Q 2963 2622 2758 2865 
Q 2553 3109 2194 3109 
Q 1922 3109 1687 2981 
Q 1453 2853 1288 2613 
Q 1106 2353 998 2009 
Q 891 1666 891 1350 
z
" transform="scale(0.015625)"/>
     </defs>
     <use xlink:href="#DejaVuSans-Oblique-56" transform="translate(0 0.09375)"/>
     <use xlink:href="#DejaVuSans-Oblique-64" transform="translate(68.408203 -16.3125) scale(0.7)"/>
     <use xlink:href="#DejaVuSans-Oblique-64" transform="translate(112.841797 -16.3125) scale(0.7)"/>
    </g>
   </g>
   <g id="text_6">
    <!-- - -->
    <g transform="translate(175.499002 127.146875) scale(0.125 -0.125)">
     <defs>
      <path id="DejaVuSans-2d" d="M 313 2009 
L 1997 2009 
L 1997 1497 
L 313 1497 
L 313 2009 
z
" transform="scale(0.015625)"/>
     </defs>
     <use xlink:href="#DejaVuSans-2d"/>
    </g>
   </g>
   <g id="text_7">
    <!-- $v_{out}$ -->
    <g transform="translate(166.691384 100.146875) scale(0.125 -0.125)">
     <defs>
      <path id="DejaVuSans-Oblique-76" d="M 459 3500 
L 1069 3500 
L 1581 525 
L 3256 3500 
L 3866 3500 
L 1875 0 
L 1100 0 
L 459 3500 
z
" transform="scale(0.015625)"/>
      <path id="DejaVuSans-Oblique-6f" d="M 1625 -91 
Q 1009 -91 651 289 
Q 294 669 294 1325 
Q 294 1706 417 2101 
Q 541 2497 738 2766 
Q 1047 3184 1428 3384 
Q 1809 3584 2291 3584 
Q 2888 3584 3255 3212 
Q 3622 2841 3622 2241 
Q 3622 1825 3500 1412 
Q 3378 1000 3181 728 
Q 2875 309 2494 109 
Q 2113 -91 1625 -91 
z
M 891 1344 
Q 891 869 1089 633 
Q 1288 397 1691 397 
Q 2269 397 2648 901 
Q 3028 1406 3028 2181 
Q 3028 2634 2825 2865 
Q 2622 3097 2228 3097 
Q 1903 3097 1650 2945 
Q 1397 2794 1197 2484 
Q 1050 2253 970 1956 
Q 891 1659 891 1344 
z
" transform="scale(0.015625)"/>
      <path id="DejaVuSans-Oblique-75" d="M 428 1388 
L 838 3500 
L 1416 3500 
L 1006 1409 
Q 975 1256 961 1147 
Q 947 1038 947 966 
Q 947 700 1109 554 
Q 1272 409 1569 409 
Q 2031 409 2368 721 
Q 2706 1034 2809 1563 
L 3194 3500 
L 3769 3500 
L 3091 0 
L 2516 0 
L 2631 550 
Q 2388 244 2052 76 
Q 1716 -91 1338 -91 
Q 878 -91 622 161 
Q 366 413 366 863 
Q 366 956 381 1097 
Q 397 1238 428 1388 
z
" transform="scale(0.015625)"/>
      <path id="DejaVuSans-Oblique-74" d="M 2706 3500 
L 2619 3053 
L 1472 3053 
L 1100 1153 
Q 1081 1047 1072 975 
Q 1063 903 1063 863 
Q 1063 663 1183 572 
Q 1303 481 1569 481 
L 2150 481 
L 2053 0 
L 1503 0 
Q 991 0 739 200 
Q 488 400 488 806 
Q 488 878 497 964 
Q 506 1050 525 1153 
L 897 3053 
L 409 3053 
L 500 3500 
L 978 3500 
L 1172 4494 
L 1747 4494 
L 1556 3500 
L 2706 3500 
z
" transform="scale(0.015625)"/>
     </defs>
     <use xlink:href="#DejaVuSans-Oblique-76" transform="translate(0 0.3125)"/>
     <use xlink:href="#DejaVuSans-Oblique-6f" transform="translate(59.179688 -16.09375) scale(0.7)"/>
     <use xlink:href="#DejaVuSans-Oblique-75" transform="translate(102.006836 -16.09375) scale(0.7)"/>
     <use xlink:href="#DejaVuSans-Oblique-74" transform="translate(146.37207 -16.09375) scale(0.7)"/>
    </g>
   </g>
   <g id="text_8">
    <!-- $+$ -->
    <g transform="translate(172.503884 73.146875) scale(0.125 -0.125)">
     <defs>
      <path id="DejaVuSans-2b" d="M 2944 4013 
L 2944 2272 
L 4684 2272 
L 4684 1741 
L 2944 1741 
L 2944 0 
L 2419 0 
L 2419 1741 
L 678 1741 
L 678 2272 
L 2419 2272 
L 2419 4013 
L 2944 4013 
z
" transform="scale(0.015625)"/>
     </defs>
     <use xlink:href="#DejaVuSans-2b" transform="translate(0 0.296875)"/>
    </g>
   </g>
   <g id="patch_3">
    <path d="M 51.693884 205.477656 
C 52.409933 205.477656 53.09675 205.193167 53.603073 204.686845 
C 54.109395 204.180522 54.393884 203.493705 54.393884 202.777656 
C 54.393884 202.061608 54.109395 201.374791 53.603073 200.868468 
C 53.09675 200.362145 52.409933 200.077656 51.693884 200.077656 
C 50.977836 200.077656 50.291019 200.362145 49.784696 200.868468 
C 49.278374 201.374791 48.993884 202.061608 48.993884 202.777656 
C 48.993884 203.493705 49.278374 204.180522 49.784696 204.686845 
C 50.291019 205.193167 50.977836 205.477656 51.693884 205.477656 
z
" clip-path="url(#pf7811ac4f7)" style="stroke: #000000; stroke-width: 2; stroke-linejoin: miter"/>
   </g>
   <g id="patch_4">
    <path d="M 78.753884 153.397656 
C 79.469933 153.397656 80.15675 153.113167 80.663073 152.606845 
C 81.169395 152.100522 81.453884 151.413705 81.453884 150.697656 
C 81.453884 149.981608 81.169395 149.294791 80.663073 148.788468 
C 80.15675 148.282145 79.469933 147.997656 78.753884 147.997656 
C 78.037836 147.997656 77.351019 148.282145 76.844696 148.788468 
C 76.338374 149.294791 76.053884 149.981608 76.053884 150.697656 
C 76.053884 151.413705 76.338374 152.100522 76.844696 152.606845 
C 77.351019 153.113167 78.037836 153.397656 78.753884 153.397656 
z
" clip-path="url(#pf7811ac4f7)" style="stroke: #000000; stroke-width: 2; stroke-linejoin: miter"/>
   </g>
   <g id="patch_5">
    <path d="M 141.753884 153.397656 
C 142.469933 153.397656 143.15675 153.113167 143.663073 152.606845 
C 144.169395 152.100522 144.453884 151.413705 144.453884 150.697656 
C 144.453884 149.981608 144.169395 149.294791 143.663073 148.788468 
C 143.15675 148.282145 142.469933 147.997656 141.753884 147.997656 
C 141.037836 147.997656 140.351019 148.282145 139.844696 148.788468 
C 139.338374 149.294791 139.053884 149.981608 139.053884 150.697656 
C 139.053884 151.413705 139.338374 152.100522 139.844696 152.606845 
C 140.351019 153.113167 141.037836 153.397656 141.753884 153.397656 
z
" clip-path="url(#pf7811ac4f7)" style="stroke: #000000; stroke-width: 2; stroke-linejoin: miter"/>
   </g>
   <g id="patch_6">
    <path d="M 141.753884 45.397656 
C 142.469933 45.397656 143.15675 45.113167 143.663073 44.606845 
C 144.169395 44.100522 144.453884 43.413705 144.453884 42.697656 
C 144.453884 41.981608 144.169395 41.294791 143.663073 40.788468 
C 143.15675 40.282145 142.469933 39.997656 141.753884 39.997656 
C 141.037836 39.997656 140.351019 40.282145 139.844696 40.788468 
C 139.338374 41.294791 139.053884 41.981608 139.053884 42.697656 
C 139.053884 43.413705 139.338374 44.100522 139.844696 44.606845 
C 140.351019 45.113167 141.037836 45.397656 141.753884 45.397656 
z
" clip-path="url(#pf7811ac4f7)" style="stroke: #000000; stroke-width: 2; stroke-linejoin: miter"/>
   </g>
   <g id="patch_7">
    <path d="M 78.753884 45.397656 
C 79.469933 45.397656 80.15675 45.113167 80.663073 44.606845 
C 81.169395 44.100522 81.453884 43.413705 81.453884 42.697656 
C 81.453884 41.981608 81.169395 41.294791 80.663073 40.788468 
C 80.15675 40.282145 79.469933 39.997656 78.753884 39.997656 
C 78.037836 39.997656 77.351019 40.282145 76.844696 40.788468 
C 76.338374 41.294791 76.053884 41.981608 76.053884 42.697656 
C 76.053884 43.413705 76.338374 44.100522 76.844696 44.606845 
C 77.351019 45.113167 78.037836 45.397656 78.753884 45.397656 
z
" clip-path="url(#pf7811ac4f7)" style="stroke: #000000; stroke-width: 2; stroke-linejoin: miter"/>
   </g>
  </g>
 </g>
 <defs>
  <clipPath id="pf7811ac4f7">
   <rect x="13.856056" y="7.717656" width="136.816773" height="254.76"/>
  </clipPath>
 </defs>
</svg>