<?xml version="1.0" encoding="utf-8" standalone="no"?>
<!DOCTYPE svg PUBLIC "-//W3C//DTD SVG 1.1//EN"
  "http://www.w3.org/Graphics/SVG/1.1/DTD/svg11.dtd">
<svg xmlns:xlink="http://www.w3.org/1999/xlink" width="260.532pt" height="278.48pt" viewBox="0 0 260.532 278.48" xmlns="http://www.w3.org/2000/svg" version="1.1">
 <metadata>
  <rdf:RDF xmlns:dc="http://purl.org/dc/elements/1.1/" xmlns:cc="http://creativecommons.org/ns#" xmlns:rdf="http://www.w3.org/1999/02/22-rdf-syntax-ns#">
   <cc:Work>
    <dc:type rdf:resource="http://purl.org/dc/dcmitype/StillImage"/>
    <dc:date>2025-10-05T21:19:47.982079</dc:date>
    <dc:format>image/svg+xml</dc:format>
    <dc:creator>
     <cc:Agent>
      <dc:title>Matplotlib v3.10.6, https://matplotlib.org/</dc:title>
     </cc:Agent>
    </dc:creator>
   </cc:Work>
  </rdf:RDF>
 </metadata>
 <defs>
  <style type="text/css">*{stroke-linejoin: round; stroke-linecap: butt}</style>
 </defs>
 <g id="figure_1">
  <g id="patch_1">
   <path d="M 0 278.48 
L 260.532 278.48 
L 260.532 0 
L 0 0 
z
" style="fill: #ffffff"/>
  </g>
  <g id="axes_1">
   <g id="patch_2">
    <path d="M 39.084 232.76 
C 41.470828 232.76 43.760219 231.811703 45.447961 230.123961 
C 47.135703 228.436219 48.084 226.146828 48.084 223.76 
C 48.084 221.373172 47.135703 219.083781 45.447961 217.396039 
C 43.760219 215.708297 41.470828 214.76 39.084 214.76 
C 36.697172 214.76 34.407781 215.708297 32.720039 217.396039 
C 31.032297 219.083781 30.084 221.373172 30.084 223.76 
C 30.084 226.146828 31.032297 228.436219 32.720039 230.123961 
C 34.407781 231.811703 36.697172 232.76 39.084 232.76 
L 39.084 232.76 
z
" clip-path="url(#pfbec6728a3)" style="fill: none; stroke: #000000; stroke-width: 2; stroke-linejoin: miter"/>
   </g>
   <g id="line2d_1">
    <path d="M 147.084 196.76 
L 160.284 196.76 
" clip-path="url(#pfbec6728a3)" style="fill: none; stroke: #000000; stroke-width: 2; stroke-linecap: round"/>
   </g>
   <g id="line2d_2">
    <path d="M 160.284 183.56 
L 160.284 209.96 
" clip-path="url(#pfbec6728a3)" style="fill: none; stroke: #000000; stroke-width: 2; stroke-linecap: round"/>
   </g>
   <g id="line2d_3">
    <path d="M 160.284 190.16 
L 174.144 178.28 
L 174.144 171.68 
" clip-path="url(#pfbec6728a3)" style="fill: none; stroke: #000000; stroke-width: 2; stroke-linecap: round"/>
   </g>
   <g id="line2d_4">
    <path d="M 160.284 203.36 
L 174.144 215.24 
L 174.144 221.84 
" clip-path="url(#pfbec6728a3)" style="fill: none; stroke: #000000; stroke-width: 2; stroke-linecap: round"/>
   </g>
   <g id="line2d_5">
    <path d="M 160.284 203.36 
L 167.310691 209.382878 
" clip-path="url(#pfbec6728a3)" style="fill: none; stroke: #000000; stroke-width: 2; stroke-linecap: round"/>
   </g>
   <g id="patch_3">
    <path d="M 169.65354 206.649554 
L 174.144 215.24 
L 164.967842 212.116201 
z
" clip-path="url(#pfbec6728a3)"/>
   </g>
   <g id="line2d_6">
    <path d="M 147.084 196.76 
L 111.084 196.76 
L 108.084 205.76 
L 102.084 187.76 
L 96.084 205.76 
L 90.084 187.76 
L 84.084 205.76 
L 78.084 187.76 
L 75.084 196.76 
L 39.084 196.76 
" clip-path="url(#pfbec6728a3)" style="fill: none; stroke: #000000; stroke-width: 2; stroke-linecap: round"/>
   </g>
   <g id="line2d_7">
    <path d="M 39.084 196.76 
L 39.084 214.76 
L 39.084 214.76 
M 39.084 232.76 
L 39.084 232.76 
L 39.084 250.76 
" clip-path="url(#pfbec6728a3)" style="fill: none; stroke: #000000; stroke-width: 2; stroke-linecap: round"/>
   </g>
   <g id="line2d_8">
    <path d="M 37.284 219.26 
L 40.884 219.26 
" clip-path="url(#pfbec6728a3)" style="fill: none; stroke: #000000; stroke-width: 2; stroke-linecap: round"/>
   </g>
   <g id="line2d_9">
    <path d="M 39.084 226.46 
L 39.084 230.06 
" clip-path="url(#pfbec6728a3)" style="fill: none; stroke: #000000; stroke-width: 2; stroke-linecap: round"/>
   </g>
   <g id="line2d_10">
    <path d="M 37.284 228.26 
L 40.884 228.26 
" clip-path="url(#pfbec6728a3)" style="fill: none; stroke: #000000; stroke-width: 2; stroke-linecap: round"/>
   </g>
   <g id="line2d_11">
    <path d="M 39.084 250.76 
L 106.614 250.76 
L 174.144 250.76 
" clip-path="url(#pfbec6728a3)" style="fill: none; stroke: #000000; stroke-width: 2; stroke-linecap: round"/>
   </g>
   <g id="line2d_12">
    <path d="M 174.144 250.76 
L 174.144 265.16 
L 165.144 265.16 
L 183.144 265.16 
M 167.844 269.48 
L 180.444 269.48 
M 172.344 273.8 
L 175.944 273.8 
" clip-path="url(#pfbec6728a3)" style="fill: none; stroke: #000000; stroke-width: 2; stroke-linecap: round"/>
   </g>
   <g id="line2d_13">
    <path d="M 174.144 250.76 
L 174.144 236.3 
L 174.144 221.84 
" clip-path="url(#pfbec6728a3)" style="fill: none; stroke: #000000; stroke-width: 2; stroke-linecap: round"/>
   </g>
   <g id="line2d_14">
    <path d="M 174.144 171.68 
L 174.144 158.18 
L 174.144 144.68 
" clip-path="url(#pfbec6728a3)" style="fill: none; stroke: #000000; stroke-width: 2; stroke-linecap: round"/>
   </g>
   <g id="line2d_15">
    <path d="M 174.144 144.68 
L 174.144 93.92 
M 165.144 93.92 
L 183.144 93.92 
M 165.144 87.44 
L 183.144 87.44 
M 174.144 87.44 
L 174.144 36.68 
" clip-path="url(#pfbec6728a3)" style="fill: none; stroke: #000000; stroke-width: 2; stroke-linecap: round"/>
   </g>
   <g id="line2d_16">
    <path d="M 174.144 144.68 
L 151.644 144.68 
L 129.144 144.68 
" clip-path="url(#pfbec6728a3)" style="fill: none; stroke: #000000; stroke-width: 2; stroke-linecap: round"/>
   </g>
   <g id="line2d_17">
    <path d="M 129.144 144.68 
L 129.144 108.68 
L 126.179813 108.54593 
L 123.188893 108.13824 
L 120.422083 107.465999 
L 118.111432 106.560462 
L 117.189692 106.035433 
L 116.450729 105.472453 
L 115.910119 104.880233 
L 115.579256 104.268098 
L 115.465116 103.645793 
L 115.570102 103.02328 
L 115.892004 102.410522 
L 116.424035 101.817277 
L 117.154982 101.252894 
L 118.069436 100.726112 
L 120.368309 99.816175 
L 123.12785 99.138658 
L 126.11662 98.72526 
L 129.083957 98.585528 
L 131.780994 98.706058 
L 133.981535 99.051618 
L 135.501024 99.568102 
L 135.962989 99.869463 
L 136.212023 100.187072 
L 136.242878 100.511077 
L 136.054903 100.831491 
L 135.65206 101.138403 
L 134.240085 101.673708 
L 132.125374 102.046971 
L 129.485284 102.201764 
L 126.541236 102.099981 
L 123.540142 101.725037 
L 120.7337 101.083252 
L 118.357281 100.203329 
L 117.394506 99.688598 
L 116.610192 99.133943 
L 116.020869 98.547898 
L 115.638959 97.939658 
L 115.472513 97.318887 
L 115.525038 96.695513 
L 115.795428 96.079518 
L 116.277983 95.480729 
L 116.962532 94.90861 
L 117.834645 94.372065 
L 120.064471 93.437379 
L 122.780447 92.72994 
L 125.754789 92.283954 
L 128.738044 92.111703 
L 131.48001 92.20251 
L 133.750723 92.523635 
L 135.359742 93.023023 
L 135.871431 93.319064 
L 136.17212 93.633668 
L 136.255471 93.957048 
L 136.119725 94.279232 
L 135.767746 94.590269 
L 135.206952 94.880449 
L 133.510352 95.361772 
L 131.172218 95.657711 
L 128.388645 95.718322 
L 125.393087 95.513398 
L 122.436776 95.035002 
L 119.767655 94.298134 
L 117.609578 93.339469 
L 116.780862 92.793629 
L 116.14354 92.214287 
L 115.711045 91.610498 
L 115.492495 90.991831 
L 115.492495 90.368169 
L 115.711045 89.749502 
L 116.14354 89.145713 
L 116.780862 88.566371 
L 117.609578 88.020531 
L 118.61222 87.51654 
L 121.051527 86.662935 
L 123.894202 86.052021 
L 126.901835 85.709913 
L 129.822178 85.640179 
L 132.410309 85.823543 
L 134.449163 86.219504 
L 135.767746 86.769731 
L 136.119725 87.080768 
L 136.255471 87.402952 
L 136.17212 87.726332 
L 135.871431 88.040936 
L 135.359742 88.336977 
L 133.750723 88.836365 
L 131.48001 89.15749 
L 128.738044 89.248297 
L 125.754789 89.076046 
L 122.780447 88.63006 
L 120.064471 87.922621 
L 117.834645 86.987935 
L 116.962532 86.45139 
L 116.277983 85.879271 
L 115.795428 85.280482 
L 115.525038 84.664487 
L 115.472513 84.041113 
L 115.638959 83.420342 
L 116.020869 82.812102 
L 116.610192 82.226057 
L 117.394506 81.671402 
L 118.357281 81.156671 
L 120.7337 80.276748 
L 123.540142 79.634963 
L 126.541236 79.260019 
L 129.485284 79.158236 
L 132.125374 79.313029 
L 134.240085 79.686292 
L 135.65206 80.221597 
L 136.054903 80.528509 
L 136.242878 80.848923 
L 136.212023 81.172928 
L 135.962989 81.490537 
L 135.501024 81.791898 
L 133.981535 82.308382 
L 131.780994 82.653942 
L 129.083957 82.774472 
L 126.11662 82.63474 
L 123.12785 82.221342 
L 120.368309 81.543825 
L 118.069436 80.633888 
L 117.154982 80.107106 
L 116.424035 79.542723 
L 115.892004 78.949478 
L 115.570102 78.33672 
L 115.465116 77.714207 
L 115.579256 77.091902 
L 115.910119 76.479767 
L 116.450729 75.887547 
L 117.189692 75.324567 
L 118.111432 74.799538 
L 120.422083 73.894001 
L 123.188893 73.22176 
L 126.179813 72.81407 
L 129.144 72.68 
L 129.144 36.68 
L 129.144 36.68 
" clip-path="url(#pfbec6728a3)" style="fill: none; stroke: #000000; stroke-width: 2; stroke-linecap: round"/>
   </g>
   <g id="line2d_18">
    <path d="M 174.144 144.68 
L 196.644 144.68 
L 219.144 144.68 
" clip-path="url(#pfbec6728a3)" style="fill: none; stroke: #000000; stroke-width: 2; stroke-linecap: round"/>
   </g>
   <g id="line2d_19">
    <path d="M 129.144 36.68 
L 129.144 22.28 
" clip-path="url(#pfbec6728a3)" style="fill: none; stroke: #000000; stroke-width: 2; stroke-linecap: round"/>
   </g>
   <g id="line2d_20">
    <path d="M 129.144 22.28 
L 122.394 22.28 
" clip-path="url(#pfbec6728a3)" style="fill: none; stroke: #000000; stroke-width: 2; stroke-linecap: round"/>
   </g>
   <g id="line2d_21">
    <path d="M 129.144 22.28 
L 135.894 22.28 
" clip-path="url(#pfbec6728a3)" style="fill: none; stroke: #000000; stroke-width: 2; stroke-linecap: round"/>
   </g>
   <g id="line2d_22">
    <path d="M 174.144 36.68 
L 174.144 22.28 
" clip-path="url(#pfbec6728a3)" style="fill: none; stroke: #000000; stroke-width: 2; stroke-linecap: round"/>
   </g>
   <g id="line2d_23">
    <path d="M 174.144 22.28 
L 167.394 22.28 
" clip-path="url(#pfbec6728a3)" style="fill: none; stroke: #000000; stroke-width: 2; stroke-linecap: round"/>
   </g>
   <g id="line2d_24">
    <path d="M 174.144 22.28 
L 180.894 22.28 
" clip-path="url(#pfbec6728a3)" style="fill: none; stroke: #000000; stroke-width: 2; stroke-linecap: round"/>
   </g>
   <g id="text_1">
    <!-- $R_{in}$ -->
    <g transform="translate(83.494 181.248438) scale(0.14 -0.14)">
     <defs>
      <path id="DejaVuSans-Oblique-52" d="M 1613 4147 
L 1294 2491 
L 2106 2491 
Q 2584 2491 2879 2755 
Q 3175 3019 3175 3444 
Q 3175 3784 2976 3965 
Q 2778 4147 2406 4147 
L 1613 4147 
z
M 2772 2241 
Q 2972 2194 3105 2009 
Q 3238 1825 3413 1275 
L 3809 0 
L 3144 0 
L 2778 1197 
Q 2638 1659 2453 1815 
Q 2269 1972 1888 1972 
L 1191 1972 
L 806 0 
L 172 0 
L 1081 4666 
L 2503 4666 
Q 3150 4666 3495 4373 
Q 3841 4081 3841 3531 
Q 3841 3044 3547 2687 
Q 3253 2331 2772 2241 
z
" transform="scale(0.015625)"/>
      <path id="DejaVuSans-Oblique-69" d="M 1172 4863 
L 1747 4863 
L 1606 4134 
L 1031 4134 
L 1172 4863 
z
M 909 3500 
L 1484 3500 
L 800 0 
L 225 0 
L 909 3500 
z
" transform="scale(0.015625)"/>
      <path id="DejaVuSans-Oblique-6e" d="M 3566 2113 
L 3156 0 
L 2578 0 
L 2988 2091 
Q 3016 2238 3031 2350 
Q 3047 2463 3047 2528 
Q 3047 2791 2881 2937 
Q 2716 3084 2419 3084 
Q 1956 3084 1622 2776 
Q 1288 2469 1184 1941 
L 800 0 
L 225 0 
L 903 3500 
L 1478 3500 
L 1363 2950 
Q 1603 3253 1940 3418 
Q 2278 3584 2650 3584 
Q 3113 3584 3367 3334 
Q 3622 3084 3622 2631 
Q 3622 2519 3608 2391 
Q 3594 2263 3566 2113 
z
" transform="scale(0.015625)"/>
     </defs>
     <use xlink:href="#DejaVuSans-Oblique-52" transform="translate(0 0.09375)"/>
     <use xlink:href="#DejaVuSans-Oblique-69" transform="translate(69.482422 -16.3125) scale(0.7)"/>
     <use xlink:href="#DejaVuSans-Oblique-6e" transform="translate(88.930664 -16.3125) scale(0.7)"/>
    </g>
   </g>
   <g id="text_2">
    <!-- $V_{in}$ -->
    <g transform="translate(9.384 227.623125) scale(0.14 -0.14)">
     <defs>
      <path id="DejaVuSans-Oblique-56" d="M 1319 0 
L 500 4666 
L 1119 4666 
L 1797 653 
L 4063 4666 
L 4750 4666 
L 2053 0 
L 1319 0 
z
" transform="scale(0.015625)"/>
     </defs>
     <use xlink:href="#DejaVuSans-Oblique-56" transform="translate(0 0.09375)"/>
     <use xlink:href="#DejaVuSans-Oblique-69" transform="translate(68.408203 -16.3125) scale(0.7)"/>
     <use xlink:href="#DejaVuSans-Oblique-6e" transform="translate(87.856445 -16.3125) scale(0.7)"/>
    </g>
   </g>
   <g id="text_3">
    <!-- $C_1$ -->
    <g transform="translate(145.024 94.543125) scale(0.14 -0.14)">
     <defs>
      <path id="DejaVuSans-Oblique-43" d="M 4447 4306 
L 4319 3641 
Q 4019 3944 3683 4091 
Q 3347 4238 2956 4238 
Q 2422 4238 2017 3981 
Q 1613 3725 1319 3200 
Q 1131 2863 1032 2486 
Q 934 2109 934 1728 
Q 934 1091 1264 756 
Q 1594 422 2222 422 
Q 2656 422 3056 561 
Q 3456 700 3834 978 
L 3688 231 
Q 3316 72 2936 -9 
Q 2556 -91 2175 -91 
Q 1278 -91 773 396 
Q 269 884 269 1753 
Q 269 2309 461 2846 
Q 653 3384 1013 3828 
Q 1394 4300 1883 4525 
Q 2372 4750 3022 4750 
Q 3422 4750 3780 4639 
Q 4138 4528 4447 4306 
z
" transform="scale(0.015625)"/>
      <path id="DejaVuSans-31" d="M 794 531 
L 1825 531 
L 1825 4091 
L 703 3866 
L 703 4441 
L 1819 4666 
L 2450 4666 
L 2450 531 
L 3481 531 
L 3481 0 
L 794 0 
L 794 531 
z
" transform="scale(0.015625)"/>
     </defs>
     <use xlink:href="#DejaVuSans-Oblique-43" transform="translate(0 0.78125)"/>
     <use xlink:href="#DejaVuSans-31" transform="translate(69.824219 -15.625) scale(0.7)"/>
    </g>
   </g>
   <g id="text_4">
    <!-- $L_1$ -->
    <g transform="translate(97.445116 94.543125) scale(0.14 -0.14)">
     <defs>
      <path id="DejaVuSans-Oblique-4c" d="M 1075 4666 
L 1709 4666 
L 909 525 
L 3181 525 
L 3078 0 
L 172 0 
L 1075 4666 
z
" transform="scale(0.015625)"/>
     </defs>
     <use xlink:href="#DejaVuSans-Oblique-4c" transform="translate(0 0.09375)"/>
     <use xlink:href="#DejaVuSans-31" transform="translate(55.712891 -16.3125) scale(0.7)"/>
    </g>
   </g>
   <g id="text_5">
    <!-- $V_{dd}$ -->
    <g transform="translate(117.874 15.768438) scale(0.14 -0.14)">
     <defs>
      <path id="DejaVuSans-Oblique-64" d="M 2675 525 
Q 2444 222 2128 65 
Q 1813 -91 1428 -91 
Q 903 -91 598 267 
Q 294 625 294 1247 
Q 294 1766 478 2236 
Q 663 2706 1013 3078 
Q 1244 3325 1534 3454 
Q 1825 3584 2144 3584 
Q 2481 3584 2739 3421 
Q 2997 3259 3138 2956 
L 3513 4863 
L 4091 4863 
L 3144 0 
L 2566 0 
L 2675 525 
z
M 891 1350 
Q 891 897 1095 644 
Q 1300 391 1663 391 
Q 1931 391 2161 520 
Q 2391 650 2566 903 
Q 2750 1166 2856 1509 
Q 2963 1853 2963 2188 
Q 2963 2622 2758 2865 
Q 2553 3109 2194 3109 
Q 1922 3109 1687 2981 
Q 1453 2853 1288 2613 
Q 1106 2353 998 2009 
Q 891 1666 891 1350 
z
" transform="scale(0.015625)"/>
     </defs>
     <use xlink:href="#DejaVuSans-Oblique-56" transform="translate(0 0.09375)"/>
     <use xlink:href="#DejaVuSans-Oblique-64" transform="translate(68.408203 -16.3125) scale(0.7)"/>
     <use xlink:href="#DejaVuSans-Oblique-64" transform="translate(112.841797 -16.3125) scale(0.7)"/>
    </g>
   </g>
   <g id="text_6">
    <!-- $V_{dd2}$ -->
    <g transform="translate(159.794 15.768438) scale(0.14 -0.14)">
     <defs>
      <path id="DejaVuSans-32" d="M 1228 531 
L 3431 531 
L 3431 0 
L 469 0 
L 469 531 
Q 828 903 1448 1529 
Q 2069 2156 2228 2338 
Q 2531 2678 2651 2914 
Q 2772 3150 2772 3378 
Q 2772 3750 2511 3984 
Q 2250 4219 1831 4219 
Q 1534 4219 1204 4116 
Q 875 4013 500 3803 
L 500 4441 
Q 881 4594 1212 4672 
Q 1544 4750 1819 4750 
Q 2544 4750 2975 4387 
Q 3406 4025 3406 3419 
Q 3406 3131 3298 2873 
Q 3191 2616 2906 2266 
Q 2828 2175 2409 1742 
Q 1991 1309 1228 531 
z
" transform="scale(0.015625)"/>
     </defs>
     <use xlink:href="#DejaVuSans-Oblique-56" transform="translate(0 0.09375)"/>
     <use xlink:href="#DejaVuSans-Oblique-64" transform="translate(68.408203 -16.3125) scale(0.7)"/>
     <use xlink:href="#DejaVuSans-Oblique-64" transform="translate(112.841797 -16.3125) scale(0.7)"/>
     <use xlink:href="#DejaVuSans-32" transform="translate(157.275391 -16.3125) scale(0.7)"/>
    </g>
   </g>
   <g id="patch_4">
    <path d="M 174.144 147.38 
C 174.860048 147.38 175.546866 147.095511 176.053188 146.589188 
C 176.559511 146.082866 176.844 145.396048 176.844 144.68 
C 176.844 143.963952 176.559511 143.277134 176.053188 142.770812 
C 175.546866 142.264489 174.860048 141.98 174.144 141.98 
C 173.427952 141.98 172.741134 142.264489 172.234812 142.770812 
C 171.728489 143.277134 171.444 143.963952 171.444 144.68 
C 171.444 145.396048 171.728489 146.082866 172.234812 146.589188 
C 172.741134 147.095511 173.427952 147.38 174.144 147.38 
z
" clip-path="url(#pfbec6728a3)" style="stroke: #000000; stroke-width: 2; stroke-linejoin: miter"/>
   </g>
   <g id="patch_5">
    <path d="M 219.144 147.38 
C 219.860048 147.38 220.546866 147.095511 221.053188 146.589188 
C 221.559511 146.082866 221.844 145.396048 221.844 144.68 
C 221.844 143.963952 221.559511 143.277134 221.053188 142.770812 
C 220.546866 142.264489 219.860048 141.98 219.144 141.98 
C 218.427952 141.98 217.741134 142.264489 217.234812 142.770812 
C 216.728489 143.277134 216.444 143.963952 216.444 144.68 
C 216.444 145.396048 216.728489 146.082866 217.234812 146.589188 
C 217.741134 147.095511 218.427952 147.38 219.144 147.38 
z
" clip-path="url(#pfbec6728a3)" style="fill: #ffffff; stroke: #000000; stroke-width: 2; stroke-linejoin: miter"/>
   </g>
   <g id="text_7">
    <!-- $v_{out}$ -->
    <g transform="translate(225.444 148.543125) scale(0.14 -0.14)">
     <defs>
      <path id="DejaVuSans-Oblique-76" d="M 459 3500 
L 1069 3500 
L 1581 525 
L 3256 3500 
L 3866 3500 
L 1875 0 
L 1100 0 
L 459 3500 
z
" transform="scale(0.015625)"/>
      <path id="DejaVuSans-Oblique-6f" d="M 1625 -91 
Q 1009 -91 651 289 
Q 294 669 294 1325 
Q 294 1706 417 2101 
Q 541 2497 738 2766 
Q 1047 3184 1428 3384 
Q 1809 3584 2291 3584 
Q 2888 3584 3255 3212 
Q 3622 2841 3622 2241 
Q 3622 1825 3500 1412 
Q 3378 1000 3181 728 
Q 2875 309 2494 109 
Q 2113 -91 1625 -91 
z
M 891 1344 
Q 891 869 1089 633 
Q 1288 397 1691 397 
Q 2269 397 2648 901 
Q 3028 1406 3028 2181 
Q 3028 2634 2825 2865 
Q 2622 3097 2228 3097 
Q 1903 3097 1650 2945 
Q 1397 2794 1197 2484 
Q 1050 2253 970 1956 
Q 891 1659 891 1344 
z
" transform="scale(0.015625)"/>
      <path id="DejaVuSans-Oblique-75" d="M 428 1388 
L 838 3500 
L 1416 3500 
L 1006 1409 
Q 975 1256 961 1147 
Q 947 1038 947 966 
Q 947 700 1109 554 
Q 1272 409 1569 409 
Q 2031 409 2368 721 
Q 2706 1034 2809 1563 
L 3194 3500 
L 3769 3500 
L 3091 0 
L 2516 0 
L 2631 550 
Q 2388 244 2052 76 
Q 1716 -91 1338 -91 
Q 878 -91 622 161 
Q 366 413 366 863 
Q 366 956 381 1097 
Q 397 1238 428 1388 
z
" transform="scale(0.015625)"/>
      <path id="DejaVuSans-Oblique-74" d="M 2706 3500 
L 2619 3053 
L 1472 3053 
L 1100 1153 
Q 1081 1047 1072 975 
Q 1063 903 1063 863 
Q 1063 663 1183 572 
Q 1303 481 1569 481 
L 2150 481 
L 2053 0 
L 1503 0 
Q 991 0 739 200 
Q 488 400 488 806 
Q 488 878 497 964 
Q 506 1050 525 1153 
L 897 3053 
L 409 3053 
L 500 3500 
L 978 3500 
L 1172 4494 
L 1747 4494 
L 1556 3500 
L 2706 3500 
z
" transform="scale(0.015625)"/>
     </defs>
     <use xlink:href="#DejaVuSans-Oblique-76" transform="translate(0 0.3125)"/>
     <use xlink:href="#DejaVuSans-Oblique-6f" transform="translate(59.179688 -16.09375) scale(0.7)"/>
     <use xlink:href="#DejaVuSans-Oblique-75" transform="translate(102.006836 -16.09375) scale(0.7)"/>
     <use xlink:href="#DejaVuSans-Oblique-74" transform="translate(146.37207 -16.09375) scale(0.7)"/>
    </g>
   </g>
  </g>
 </g>
 <defs>
  <clipPath id="pfbec6728a3">
   <rect x="0" y="0" width="260.532" height="278.48"/>
  </clipPath>
 </defs>
</svg>