<?xml version="1.0" encoding="utf-8" standalone="no"?>
<!DOCTYPE svg PUBLIC "-//W3C//DTD SVG 1.1//EN"
  "http://www.w3.org/Graphics/SVG/1.1/DTD/svg11.dtd">
<svg xmlns:xlink="http://www.w3.org/1999/xlink" width="312.7194pt" height="211.26pt" viewBox="0 0 312.7194 211.26" xmlns="http://www.w3.org/2000/svg" version="1.1">
 <metadata>
  <rdf:RDF xmlns:dc="http://purl.org/dc/elements/1.1/" xmlns:cc="http://creativecommons.org/ns#" xmlns:rdf="http://www.w3.org/1999/02/22-rdf-syntax-ns#">
   <cc:Work>
    <dc:type rdf:resource="http://purl.org/dc/dcmitype/StillImage"/>
    <dc:date>2022-10-02T15:18:31.624226</dc:date>
    <dc:format>image/svg+xml</dc:format>
    <dc:creator>
     <cc:Agent>
      <dc:title>Matplotlib v3.5.3, https://matplotlib.org/</dc:title>
     </cc:Agent>
    </dc:creator>
   </cc:Work>
  </rdf:RDF>
 </metadata>
 <defs>
  <style type="text/css">*{stroke-linejoin: round; stroke-linecap: butt}</style>
 </defs>
 <g id="figure_1">
  <g id="patch_1">
   <path d="M 0 211.26 
L 312.7194 211.26 
L 312.7194 0 
L 0 0 
L 0 211.26 
z
" style="fill: none"/>
  </g>
  <g id="axes_1">
   <g id="patch_2">
    <path d="M 58.506 61.413 
L 66.156 50.703 
L 73.806 61.413 
L 58.506 61.413 
z
" clip-path="url(#pd2ab3733d1)" style="fill: none; stroke: #ff0000; stroke-width: 2; stroke-linecap: round"/>
   </g>
   <g id="patch_3">
    <path d="M 58.506 127.101 
L 66.156 116.391 
L 73.806 127.101 
L 58.506 127.101 
z
" clip-path="url(#pd2ab3733d1)" style="fill: none; stroke: #ff0000; stroke-width: 2; stroke-linecap: round"/>
   </g>
   <g id="line2d_1">
    <path d="M 27.855 43.818 
L 39.075 43.818 
" clip-path="url(#pd2ab3733d1)" style="fill: none; stroke: #000000; stroke-width: 2; stroke-linecap: round"/>
   </g>
   <g id="line2d_2">
    <path d="M 39.075 32.598 
L 39.075 55.038 
" clip-path="url(#pd2ab3733d1)" style="fill: none; stroke: #000000; stroke-width: 2; stroke-linecap: round"/>
   </g>
   <g id="line2d_3">
    <path d="M 39.075 38.208 
L 50.856 28.11 
L 50.856 22.5 
" clip-path="url(#pd2ab3733d1)" style="fill: none; stroke: #000000; stroke-width: 2; stroke-linecap: round"/>
   </g>
   <g id="line2d_4">
    <path d="M 39.075 49.428 
L 50.856 59.526 
L 50.856 65.136 
" clip-path="url(#pd2ab3733d1)" style="fill: none; stroke: #000000; stroke-width: 2; stroke-linecap: round"/>
   </g>
   <g id="line2d_5">
    <path d="M 39.075 49.428 
L 45.047687 54.547446 
" clip-path="url(#pd2ab3733d1)" style="fill: none; stroke: #000000; stroke-width: 2; stroke-linecap: round"/>
   </g>
   <g id="patch_4">
    <path d="M 47.039109 52.224121 
L 50.856 59.526 
L 43.056265 56.870771 
z
" clip-path="url(#pd2ab3733d1)"/>
   </g>
   <g id="line2d_6">
    <path d="M 27.855 43.818 
L 27.855 66.768 
L 27.855 89.718 
" clip-path="url(#pd2ab3733d1)" style="fill: none; stroke: #000000; stroke-width: 2; stroke-linecap: round"/>
   </g>
   <g id="line2d_7">
    <path d="M 27.855 89.718 
L 27.855 111.138 
L 27.855 132.558 
" clip-path="url(#pd2ab3733d1)" style="fill: none; stroke: #000000; stroke-width: 2; stroke-linecap: round"/>
   </g>
   <g id="line2d_8">
    <path d="M 27.855 132.558 
L 39.075 132.558 
" clip-path="url(#pd2ab3733d1)" style="fill: none; stroke: #000000; stroke-width: 2; stroke-linecap: round"/>
   </g>
   <g id="line2d_9">
    <path d="M 39.075 121.338 
L 39.075 143.778 
" clip-path="url(#pd2ab3733d1)" style="fill: none; stroke: #000000; stroke-width: 2; stroke-linecap: round"/>
   </g>
   <g id="line2d_10">
    <path d="M 39.075 126.948 
L 50.856 116.85 
L 50.856 111.24 
" clip-path="url(#pd2ab3733d1)" style="fill: none; stroke: #000000; stroke-width: 2; stroke-linecap: round"/>
   </g>
   <g id="line2d_11">
    <path d="M 39.075 138.168 
L 50.856 148.266 
L 50.856 153.876 
" clip-path="url(#pd2ab3733d1)" style="fill: none; stroke: #000000; stroke-width: 2; stroke-linecap: round"/>
   </g>
   <g id="line2d_12">
    <path d="M 50.856 116.85 
L 44.883313 121.969446 
" clip-path="url(#pd2ab3733d1)" style="fill: none; stroke: #000000; stroke-width: 2; stroke-linecap: round"/>
   </g>
   <g id="patch_5">
    <path d="M 46.874735 124.292771 
L 39.075 126.948 
L 42.891891 119.646121 
z
" clip-path="url(#pd2ab3733d1)"/>
   </g>
   <g id="line2d_13">
    <path d="M 50.856 22.5 
L 50.856 10.26 
" clip-path="url(#pd2ab3733d1)" style="fill: none; stroke: #000000; stroke-width: 2; stroke-linecap: round"/>
   </g>
   <g id="line2d_14">
    <path d="M 50.856 10.26 
L 45.1185 10.26 
" clip-path="url(#pd2ab3733d1)" style="fill: none; stroke: #000000; stroke-width: 2; stroke-linecap: round"/>
   </g>
   <g id="line2d_15">
    <path d="M 50.856 10.26 
L 56.5935 10.26 
" clip-path="url(#pd2ab3733d1)" style="fill: none; stroke: #000000; stroke-width: 2; stroke-linecap: round"/>
   </g>
   <g id="line2d_16">
    <path d="M 27.855 89.718 
L 20.205 89.718 
L 12.555 89.718 
" clip-path="url(#pd2ab3733d1)" style="fill: none; stroke: #000000; stroke-width: 2; stroke-linecap: round"/>
   </g>
   <g id="line2d_17">
    <path d="M 50.856 65.136 
L 50.856 77.376 
L 50.856 89.616 
" clip-path="url(#pd2ab3733d1)" style="fill: none; stroke: #000000; stroke-width: 2; stroke-linecap: round"/>
   </g>
   <g id="line2d_18">
    <path d="M 50.856 89.616 
L 50.856 100.428 
L 50.856 111.24 
" clip-path="url(#pd2ab3733d1)" style="fill: none; stroke: #000000; stroke-width: 2; stroke-linecap: round"/>
   </g>
   <g id="line2d_19">
    <path d="M 50.856 89.616 
L 58.506 89.616 
L 66.156 89.616 
" clip-path="url(#pd2ab3733d1)" style="fill: none; stroke: #000000; stroke-width: 2; stroke-linecap: round"/>
   </g>
   <g id="line2d_20">
    <path d="M 66.156 89.616 
L 96.756 89.616 
L 96.869959 87.096441 
L 97.216496 84.554159 
L 97.787901 82.202371 
L 98.557607 80.238317 
L 99.482415 78.82672 
L 99.985802 78.367201 
L 100.506117 78.085968 
L 101.035076 77.988948 
L 101.564212 78.078187 
L 102.085057 78.351803 
L 102.589314 78.80403 
L 103.06904 79.425334 
L 103.925855 81.119506 
L 104.604997 83.29223 
L 105.070862 85.761284 
L 105.305734 88.319592 
L 105.31127 90.752592 
L 105.10836 92.856233 
L 104.735376 94.454086 
L 104.244956 95.412141 
L 103.974989 95.62382 
L 103.699585 95.650047 
L 103.427233 95.490268 
L 103.166357 95.147851 
L 102.711348 93.947673 
L 102.394075 92.150168 
L 102.262501 89.906092 
L 102.349016 87.403651 
L 102.667719 84.852721 
L 103.213236 82.467245 
L 103.96117 80.447289 
L 104.870148 78.962263 
L 105.368287 78.461338 
L 105.885291 78.136715 
L 106.412946 77.995236 
L 106.942814 78.039882 
L 107.46641 78.269713 
L 107.975381 78.679885 
L 108.461681 79.261752 
L 109.336642 80.88815 
L 110.039267 83.012504 
L 110.531982 85.456649 
L 110.794819 88.015596 
L 110.82709 90.474732 
L 110.647442 92.627812 
L 110.292297 94.294261 
L 109.812796 95.334316 
L 109.545382 95.589902 
L 109.270509 95.66075 
L 108.996653 95.545367 
L 108.732271 95.246184 
L 108.264579 94.125389 
L 107.928012 92.392362 
L 107.772152 90.192451 
L 107.831426 87.710159 
L 108.122218 85.153672 
L 108.641494 82.737398 
L 109.367059 80.663987 
L 110.259415 79.107332 
L 110.751856 78.565609 
L 111.265077 78.197988 
L 111.790944 78.012221 
L 112.321056 78.012221 
L 112.846923 78.197988 
L 113.360144 78.565609 
L 113.852585 79.107332 
L 114.744941 80.663987 
L 115.470506 82.737398 
L 115.989782 85.153672 
L 116.280574 87.710159 
L 116.339848 90.192451 
L 116.183988 92.392362 
L 115.847421 94.125389 
L 115.379729 95.246184 
L 115.115347 95.545367 
L 114.841491 95.66075 
L 114.566618 95.589902 
L 114.299204 95.334316 
L 113.819703 94.294261 
L 113.464558 92.627812 
L 113.28491 90.474732 
L 113.317181 88.015596 
L 113.580018 85.456649 
L 114.072733 83.012504 
L 114.775358 80.88815 
L 115.650319 79.261752 
L 116.136619 78.679885 
L 116.64559 78.269713 
L 117.169186 78.039882 
L 117.699054 77.995236 
L 118.226709 78.136715 
L 118.743713 78.461338 
L 119.241852 78.962263 
L 119.713309 79.628931 
L 120.547877 81.400088 
L 121.198779 83.626266 
L 121.63278 86.120758 
L 121.834834 88.674356 
L 121.809353 91.072894 
L 121.579826 93.115208 
L 121.18686 94.630014 
L 120.684767 95.490268 
L 120.412415 95.650047 
L 120.137011 95.62382 
L 119.867044 95.412141 
L 119.610887 95.01947 
L 119.171875 93.727905 
L 118.878149 91.857445 
L 118.775698 89.564964 
L 118.894471 87.042727 
L 119.245859 84.502272 
L 119.821749 82.156662 
L 120.595195 80.202621 
L 121.522686 78.80403 
L 122.026943 78.351803 
L 122.547788 78.078187 
L 123.076924 77.988948 
L 123.605883 78.085968 
L 124.126198 78.367201 
L 124.629585 78.82672 
L 125.108118 79.454838 
L 125.961687 81.160641 
L 126.636673 83.341547 
L 127.097821 85.814647 
L 127.327809 88.372525 
L 127.356 89.616 
L 157.956 89.616 
L 157.956 89.616 
" clip-path="url(#pd2ab3733d1)" style="fill: none; stroke: #000000; stroke-width: 2; stroke-linecap: round"/>
   </g>
   <g id="line2d_21">
    <path d="M 157.956 89.616 
L 201.102 89.616 
M 201.102 81.966 
L 201.102 97.266 
M 206.61 81.966 
L 206.61 97.266 
M 206.61 89.616 
L 249.756 89.616 
" clip-path="url(#pd2ab3733d1)" style="fill: none; stroke: #000000; stroke-width: 2; stroke-linecap: round"/>
   </g>
   <g id="line2d_22">
    <path d="M 249.756 89.616 
L 249.756 120.216 
L 257.406 122.766 
L 242.106 127.866 
L 257.406 132.966 
L 242.106 138.066 
L 257.406 143.166 
L 242.106 148.266 
L 249.756 150.816 
L 249.756 181.416 
" clip-path="url(#pd2ab3733d1)" style="fill: none; stroke: #000000; stroke-width: 2; stroke-linecap: round"/>
   </g>
   <g id="line2d_23">
    <path d="M 249.756 89.616 
L 257.406 89.616 
L 265.056 89.616 
" clip-path="url(#pd2ab3733d1)" style="fill: none; stroke: #000000; stroke-width: 2; stroke-linecap: round"/>
   </g>
   <g id="line2d_24">
    <path d="M 249.756 181.416 
L 257.406 181.416 
L 265.056 181.416 
" clip-path="url(#pd2ab3733d1)" style="fill: none; stroke: #000000; stroke-width: 2; stroke-linecap: round"/>
   </g>
   <g id="line2d_25">
    <path d="M 249.756 181.416 
L 150.306 181.416 
L 50.856 181.416 
" clip-path="url(#pd2ab3733d1)" style="fill: none; stroke: #000000; stroke-width: 2; stroke-linecap: round"/>
   </g>
   <g id="line2d_26">
    <path d="M 50.856 181.416 
L 50.856 193.656 
L 43.206 193.656 
L 58.506 193.656 
M 45.501 197.328 
L 56.211 197.328 
M 49.326 201 
L 52.386 201 
" clip-path="url(#pd2ab3733d1)" style="fill: none; stroke: #000000; stroke-width: 2; stroke-linecap: round"/>
   </g>
   <g id="line2d_27">
    <path d="M 50.856 181.416 
L 50.856 167.646 
L 50.856 153.876 
" clip-path="url(#pd2ab3733d1)" style="fill: none; stroke: #000000; stroke-width: 2; stroke-linecap: round"/>
   </g>
   <g id="line2d_28">
    <path d="M 66.156 89.616 
L 66.156 61.413 
M 58.506 50.703 
L 73.806 50.703 
M 66.156 50.703 
L 66.156 22.5 
" clip-path="url(#pd2ab3733d1)" style="fill: none; stroke: #ff0000; stroke-width: 2; stroke-linecap: round"/>
   </g>
   <g id="line2d_29">
    <path d="M 66.156 22.5 
L 58.506 22.5 
L 50.856 22.5 
" clip-path="url(#pd2ab3733d1)" style="fill: none; stroke: #ff0000; stroke-width: 2; stroke-linecap: round"/>
   </g>
   <g id="line2d_30">
    <path d="M 50.856 153.876 
L 58.506 153.876 
L 66.156 153.876 
" clip-path="url(#pd2ab3733d1)" style="fill: none; stroke: #ff0000; stroke-width: 2; stroke-linecap: round"/>
   </g>
   <g id="line2d_31">
    <path d="M 66.156 153.876 
L 66.156 127.101 
M 58.506 116.391 
L 73.806 116.391 
M 66.156 116.391 
L 66.156 89.616 
" clip-path="url(#pd2ab3733d1)" style="fill: none; stroke: #ff0000; stroke-width: 2; stroke-linecap: round"/>
   </g>
   <g id="text_1">
    <g clip-path="url(#pd2ab3733d1)">
     <!-- $L_1$ -->
     <g transform="translate(105.6185 72.329339)scale(0.125 -0.125)">
      <defs>
       <path id="DejaVuSans-Oblique-4c" d="M 1075 4666 
L 1709 4666 
L 909 525 
L 3181 525 
L 3078 0 
L 172 0 
L 1075 4666 
z
" transform="scale(0.015625)"/>
       <path id="DejaVuSans-31" d="M 794 531 
L 1825 531 
L 1825 4091 
L 703 3866 
L 703 4441 
L 1819 4666 
L 2450 4666 
L 2450 531 
L 3481 531 
L 3481 0 
L 794 0 
L 794 531 
z
" transform="scale(0.015625)"/>
      </defs>
      <use xlink:href="#DejaVuSans-Oblique-4c" transform="translate(0 0.09375)"/>
      <use xlink:href="#DejaVuSans-31" transform="translate(55.712891 -16.3125)scale(0.7)"/>
     </g>
    </g>
   </g>
   <g id="text_2">
    <g clip-path="url(#pd2ab3733d1)">
     <!-- $C_1$ -->
     <g transform="translate(196.481 76.306391)scale(0.125 -0.125)">
      <defs>
       <path id="DejaVuSans-Oblique-43" d="M 4447 4306 
L 4319 3641 
Q 4019 3944 3683 4091 
Q 3347 4238 2956 4238 
Q 2422 4238 2017 3981 
Q 1613 3725 1319 3200 
Q 1131 2863 1032 2486 
Q 934 2109 934 1728 
Q 934 1091 1264 756 
Q 1594 422 2222 422 
Q 2656 422 3056 561 
Q 3456 700 3834 978 
L 3688 231 
Q 3316 72 2936 -9 
Q 2556 -91 2175 -91 
Q 1278 -91 773 396 
Q 269 884 269 1753 
Q 269 2309 461 2846 
Q 653 3384 1013 3828 
Q 1394 4300 1883 4525 
Q 2372 4750 3022 4750 
Q 3422 4750 3780 4639 
Q 4138 4528 4447 4306 
z
" transform="scale(0.015625)"/>
      </defs>
      <use xlink:href="#DejaVuSans-Oblique-43" transform="translate(0 0.78125)"/>
      <use xlink:href="#DejaVuSans-31" transform="translate(69.824219 -15.625)scale(0.7)"/>
     </g>
    </g>
   </g>
   <g id="text_3">
    <g clip-path="url(#pd2ab3733d1)">
     <!-- $R_L$ -->
     <g transform="translate(225.046 138.965219)scale(0.125 -0.125)">
      <defs>
       <path id="DejaVuSans-Oblique-52" d="M 1613 4147 
L 1294 2491 
L 2106 2491 
Q 2584 2491 2879 2755 
Q 3175 3019 3175 3444 
Q 3175 3784 2976 3965 
Q 2778 4147 2406 4147 
L 1613 4147 
z
M 2772 2241 
Q 2972 2194 3105 2009 
Q 3238 1825 3413 1275 
L 3809 0 
L 3144 0 
L 2778 1197 
Q 2638 1659 2453 1815 
Q 2269 1972 1888 1972 
L 1191 1972 
L 806 0 
L 172 0 
L 1081 4666 
L 2503 4666 
Q 3150 4666 3495 4373 
Q 3841 4081 3841 3531 
Q 3841 3044 3547 2687 
Q 3253 2331 2772 2241 
z
" transform="scale(0.015625)"/>
      </defs>
      <use xlink:href="#DejaVuSans-Oblique-52" transform="translate(0 0.09375)"/>
      <use xlink:href="#DejaVuSans-Oblique-4c" transform="translate(69.482422 -16.3125)scale(0.7)"/>
     </g>
    </g>
   </g>
   <g id="text_4">
    <g clip-path="url(#pd2ab3733d1)">
     <!-- - -->
     <g transform="translate(275.041117 116.015219)scale(0.125 -0.125)">
      <defs>
       <path id="DejaVuSans-2d" d="M 313 2009 
L 1997 2009 
L 1997 1497 
L 313 1497 
L 313 2009 
z
" transform="scale(0.015625)"/>
      </defs>
      <use xlink:href="#DejaVuSans-2d"/>
     </g>
    </g>
   </g>
   <g id="text_5">
    <g clip-path="url(#pd2ab3733d1)">
     <!-- $v_{out}$ -->
     <g transform="translate(266.2335 138.965219)scale(0.125 -0.125)">
      <defs>
       <path id="DejaVuSans-Oblique-76" d="M 459 3500 
L 1069 3500 
L 1581 525 
L 3256 3500 
L 3866 3500 
L 1875 0 
L 1100 0 
L 459 3500 
z
" transform="scale(0.015625)"/>
       <path id="DejaVuSans-Oblique-6f" d="M 1625 -91 
Q 1009 -91 651 289 
Q 294 669 294 1325 
Q 294 1706 417 2101 
Q 541 2497 738 2766 
Q 1047 3184 1428 3384 
Q 1809 3584 2291 3584 
Q 2888 3584 3255 3212 
Q 3622 2841 3622 2241 
Q 3622 1825 3500 1412 
Q 3378 1000 3181 728 
Q 2875 309 2494 109 
Q 2113 -91 1625 -91 
z
M 891 1344 
Q 891 869 1089 633 
Q 1288 397 1691 397 
Q 2269 397 2648 901 
Q 3028 1406 3028 2181 
Q 3028 2634 2825 2865 
Q 2622 3097 2228 3097 
Q 1903 3097 1650 2945 
Q 1397 2794 1197 2484 
Q 1050 2253 970 1956 
Q 891 1659 891 1344 
z
" transform="scale(0.015625)"/>
       <path id="DejaVuSans-Oblique-75" d="M 428 1388 
L 838 3500 
L 1416 3500 
L 1006 1409 
Q 975 1256 961 1147 
Q 947 1038 947 966 
Q 947 700 1109 554 
Q 1272 409 1569 409 
Q 2031 409 2368 721 
Q 2706 1034 2809 1563 
L 3194 3500 
L 3769 3500 
L 3091 0 
L 2516 0 
L 2631 550 
Q 2388 244 2052 76 
Q 1716 -91 1338 -91 
Q 878 -91 622 161 
Q 366 413 366 863 
Q 366 956 381 1097 
Q 397 1238 428 1388 
z
" transform="scale(0.015625)"/>
       <path id="DejaVuSans-Oblique-74" d="M 2706 3500 
L 2619 3053 
L 1472 3053 
L 1100 1153 
Q 1081 1047 1072 975 
Q 1063 903 1063 863 
Q 1063 663 1183 572 
Q 1303 481 1569 481 
L 2150 481 
L 2053 0 
L 1503 0 
Q 991 0 739 200 
Q 488 400 488 806 
Q 488 878 497 964 
Q 506 1050 525 1153 
L 897 3053 
L 409 3053 
L 500 3500 
L 978 3500 
L 1172 4494 
L 1747 4494 
L 1556 3500 
L 2706 3500 
z
" transform="scale(0.015625)"/>
      </defs>
      <use xlink:href="#DejaVuSans-Oblique-76" transform="translate(0 0.3125)"/>
      <use xlink:href="#DejaVuSans-Oblique-6f" transform="translate(59.179688 -16.09375)scale(0.7)"/>
      <use xlink:href="#DejaVuSans-Oblique-75" transform="translate(102.006836 -16.09375)scale(0.7)"/>
      <use xlink:href="#DejaVuSans-Oblique-74" transform="translate(146.37207 -16.09375)scale(0.7)"/>
     </g>
    </g>
   </g>
   <g id="text_6">
    <g clip-path="url(#pd2ab3733d1)">
     <!-- $+$ -->
     <g transform="translate(272.046 161.915219)scale(0.125 -0.125)">
      <defs>
       <path id="DejaVuSans-2b" d="M 2944 4013 
L 2944 2272 
L 4684 2272 
L 4684 1741 
L 2944 1741 
L 2944 0 
L 2419 0 
L 2419 1741 
L 678 1741 
L 678 2272 
L 2419 2272 
L 2419 4013 
L 2944 4013 
z
" transform="scale(0.015625)"/>
      </defs>
      <use xlink:href="#DejaVuSans-2b" transform="translate(0 0.296875)"/>
     </g>
    </g>
   </g>
   <g id="patch_6">
    <path d="M 27.855 92.013 
C 28.463641 92.013 29.047436 91.771184 29.47781 91.34081 
C 29.908184 90.910436 30.15 90.326641 30.15 89.718 
C 30.15 89.109359 29.908184 88.525564 29.47781 88.09519 
C 29.047436 87.664816 28.463641 87.423 27.855 87.423 
C 27.246359 87.423 26.662564 87.664816 26.23219 88.09519 
C 25.801816 88.525564 25.56 89.109359 25.56 89.718 
C 25.56 90.326641 25.801816 90.910436 26.23219 91.34081 
C 26.662564 91.771184 27.246359 92.013 27.855 92.013 
z
" clip-path="url(#pd2ab3733d1)" style="stroke: #000000; stroke-width: 2; stroke-linejoin: miter"/>
   </g>
   <g id="patch_7">
    <path d="M 12.555 92.013 
C 13.163641 92.013 13.747436 91.771184 14.17781 91.34081 
C 14.608184 90.910436 14.85 90.326641 14.85 89.718 
C 14.85 89.109359 14.608184 88.525564 14.17781 88.09519 
C 13.747436 87.664816 13.163641 87.423 12.555 87.423 
C 11.946359 87.423 11.362564 87.664816 10.93219 88.09519 
C 10.501816 88.525564 10.26 89.109359 10.26 89.718 
C 10.26 90.326641 10.501816 90.910436 10.93219 91.34081 
C 11.362564 91.771184 11.946359 92.013 12.555 92.013 
z
" clip-path="url(#pd2ab3733d1)" style="fill: #ffffff; stroke: #000000; stroke-width: 2; stroke-linejoin: miter"/>
   </g>
   <g id="patch_8">
    <path d="M 50.856 91.911 
C 51.464641 91.911 52.048436 91.669184 52.47881 91.23881 
C 52.909184 90.808436 53.151 90.224641 53.151 89.616 
C 53.151 89.007359 52.909184 88.423564 52.47881 87.99319 
C 52.048436 87.562816 51.464641 87.321 50.856 87.321 
C 50.247359 87.321 49.663564 87.562816 49.23319 87.99319 
C 48.802816 88.423564 48.561 89.007359 48.561 89.616 
C 48.561 90.224641 48.802816 90.808436 49.23319 91.23881 
C 49.663564 91.669184 50.247359 91.911 50.856 91.911 
z
" clip-path="url(#pd2ab3733d1)" style="stroke: #000000; stroke-width: 2; stroke-linejoin: miter"/>
   </g>
   <g id="patch_9">
    <path d="M 66.156 91.911 
C 66.764641 91.911 67.348436 91.669184 67.77881 91.23881 
C 68.209184 90.808436 68.451 90.224641 68.451 89.616 
C 68.451 89.007359 68.209184 88.423564 67.77881 87.99319 
C 67.348436 87.562816 66.764641 87.321 66.156 87.321 
C 65.547359 87.321 64.963564 87.562816 64.53319 87.99319 
C 64.102816 88.423564 63.861 89.007359 63.861 89.616 
C 63.861 90.224641 64.102816 90.808436 64.53319 91.23881 
C 64.963564 91.669184 65.547359 91.911 66.156 91.911 
z
" clip-path="url(#pd2ab3733d1)" style="stroke: #000000; stroke-width: 2; stroke-linejoin: miter"/>
   </g>
   <g id="patch_10">
    <path d="M 265.056 91.911 
C 265.664641 91.911 266.248436 91.669184 266.67881 91.23881 
C 267.109184 90.808436 267.351 90.224641 267.351 89.616 
C 267.351 89.007359 267.109184 88.423564 266.67881 87.99319 
C 266.248436 87.562816 265.664641 87.321 265.056 87.321 
C 264.447359 87.321 263.863564 87.562816 263.43319 87.99319 
C 263.002816 88.423564 262.761 89.007359 262.761 89.616 
C 262.761 90.224641 263.002816 90.808436 263.43319 91.23881 
C 263.863564 91.669184 264.447359 91.911 265.056 91.911 
z
" clip-path="url(#pd2ab3733d1)" style="fill: #ffffff; stroke: #000000; stroke-width: 2; stroke-linejoin: miter"/>
   </g>
   <g id="patch_11">
    <path d="M 265.056 183.711 
C 265.664641 183.711 266.248436 183.469184 266.67881 183.03881 
C 267.109184 182.608436 267.351 182.024641 267.351 181.416 
C 267.351 180.807359 267.109184 180.223564 266.67881 179.79319 
C 266.248436 179.362816 265.664641 179.121 265.056 179.121 
C 264.447359 179.121 263.863564 179.362816 263.43319 179.79319 
C 263.002816 180.223564 262.761 180.807359 262.761 181.416 
C 262.761 182.024641 263.002816 182.608436 263.43319 183.03881 
C 263.863564 183.469184 264.447359 183.711 265.056 183.711 
z
" clip-path="url(#pd2ab3733d1)" style="fill: #ffffff; stroke: #000000; stroke-width: 2; stroke-linejoin: miter"/>
   </g>
   <g id="patch_12">
    <path d="M 50.856 183.711 
C 51.464641 183.711 52.048436 183.469184 52.47881 183.03881 
C 52.909184 182.608436 53.151 182.024641 53.151 181.416 
C 53.151 180.807359 52.909184 180.223564 52.47881 179.79319 
C 52.048436 179.362816 51.464641 179.121 50.856 179.121 
C 50.247359 179.121 49.663564 179.362816 49.23319 179.79319 
C 48.802816 180.223564 48.561 180.807359 48.561 181.416 
C 48.561 182.024641 48.802816 182.608436 49.23319 183.03881 
C 49.663564 183.469184 50.247359 183.711 50.856 183.711 
z
" clip-path="url(#pd2ab3733d1)" style="stroke: #000000; stroke-width: 2; stroke-linejoin: miter"/>
   </g>
   <g id="patch_13">
    <path d="M 50.856 24.795 
C 51.464641 24.795 52.048436 24.553184 52.47881 24.12281 
C 52.909184 23.692436 53.151 23.108641 53.151 22.5 
C 53.151 21.891359 52.909184 21.307564 52.47881 20.87719 
C 52.048436 20.446816 51.464641 20.205 50.856 20.205 
C 50.247359 20.205 49.663564 20.446816 49.23319 20.87719 
C 48.802816 21.307564 48.561 21.891359 48.561 22.5 
C 48.561 23.108641 48.802816 23.692436 49.23319 24.12281 
C 49.663564 24.553184 50.247359 24.795 50.856 24.795 
z
" clip-path="url(#pd2ab3733d1)" style="stroke: #000000; stroke-width: 2; stroke-linejoin: miter"/>
   </g>
   <g id="patch_14">
    <path d="M 50.856 156.171 
C 51.464641 156.171 52.048436 155.929184 52.47881 155.49881 
C 52.909184 155.068436 53.151 154.484641 53.151 153.876 
C 53.151 153.267359 52.909184 152.683564 52.47881 152.25319 
C 52.048436 151.822816 51.464641 151.581 50.856 151.581 
C 50.247359 151.581 49.663564 151.822816 49.23319 152.25319 
C 48.802816 152.683564 48.561 153.267359 48.561 153.876 
C 48.561 154.484641 48.802816 155.068436 49.23319 155.49881 
C 49.663564 155.929184 50.247359 156.171 50.856 156.171 
z
" clip-path="url(#pd2ab3733d1)" style="stroke: #000000; stroke-width: 2; stroke-linejoin: miter"/>
   </g>
  </g>
 </g>
 <defs>
  <clipPath id="pd2ab3733d1">
   <rect x="7.2" y="7.2" width="298.3194" height="196.86"/>
  </clipPath>
 </defs>
</svg>