<?xml version="1.0" encoding="utf-8" standalone="no"?>
<!DOCTYPE svg PUBLIC "-//W3C//DTD SVG 1.1//EN"
  "http://www.w3.org/Graphics/SVG/1.1/DTD/svg11.dtd">
<svg xmlns:xlink="http://www.w3.org/1999/xlink" width="346.77pt" height="260.659656pt" viewBox="0 0 346.77 260.659656" xmlns="http://www.w3.org/2000/svg" version="1.1">
 <metadata>
  <rdf:RDF xmlns:dc="http://purl.org/dc/elements/1.1/" xmlns:cc="http://creativecommons.org/ns#" xmlns:rdf="http://www.w3.org/1999/02/22-rdf-syntax-ns#">
   <cc:Work>
    <dc:type rdf:resource="http://purl.org/dc/dcmitype/StillImage"/>
    <dc:date>2023-09-25T21:50:20.782768</dc:date>
    <dc:format>image/svg+xml</dc:format>
    <dc:creator>
     <cc:Agent>
      <dc:title>Matplotlib v3.6.3, https://matplotlib.org/</dc:title>
     </cc:Agent>
    </dc:creator>
   </cc:Work>
  </rdf:RDF>
 </metadata>
 <defs>
  <style type="text/css">*{stroke-linejoin: round; stroke-linecap: butt}</style>
 </defs>
 <g id="figure_1">
  <g id="patch_1">
   <path d="M 0 260.659656 
L 346.77 260.659656 
L 346.77 0 
L 0 0 
z
" style="fill: #ffffff"/>
  </g>
  <g id="axes_1">
   <g id="patch_2">
    <path d="M 101.835 64.897656 
C 102.948853 64.897656 104.017235 64.455118 104.804848 63.667505 
C 105.592462 62.879892 106.035 61.811509 106.035 60.697656 
C 106.035 59.583803 105.592462 58.515421 104.804848 57.727808 
C 104.017235 56.940195 102.948853 56.497656 101.835 56.497656 
C 100.721147 56.497656 99.652765 56.940195 98.865152 57.727808 
C 98.077538 58.515421 97.635 59.583803 97.635 60.697656 
C 97.635 61.811509 98.077538 62.879892 98.865152 63.667505 
C 99.652765 64.455118 100.721147 64.897656 101.835 64.897656 
L 101.835 64.897656 
z
" clip-path="url(#pe546f42ace)" style="fill: none; stroke: #000000; stroke-width: 2; stroke-linejoin: miter"/>
   </g>
   <g id="patch_3">
    <path d="M 224.235 64.897656 
C 225.348853 64.897656 226.417235 64.455118 227.204848 63.667505 
C 227.992462 62.879892 228.435 61.811509 228.435 60.697656 
C 228.435 59.583803 227.992462 58.515421 227.204848 57.727808 
C 226.417235 56.940195 225.348853 56.497656 224.235 56.497656 
C 223.121147 56.497656 222.052765 56.940195 221.265152 57.727808 
C 220.477538 58.515421 220.035 59.583803 220.035 60.697656 
C 220.035 61.811509 220.477538 62.879892 221.265152 63.667505 
C 222.052765 64.455118 223.121147 64.897656 224.235 64.897656 
L 224.235 64.897656 
z
" clip-path="url(#pe546f42ace)" style="fill: none; stroke: #000000; stroke-width: 2; stroke-linejoin: miter"/>
   </g>
   <g id="patch_4">
    <path d="M 62.235 64.897656 
C 63.348853 64.897656 64.417235 64.455118 65.204848 63.667505 
C 65.992462 62.879892 66.435 61.811509 66.435 60.697656 
C 66.435 59.583803 65.992462 58.515421 65.204848 57.727808 
C 64.417235 56.940195 63.348853 56.497656 62.235 56.497656 
C 61.121147 56.497656 60.052765 56.940195 59.265152 57.727808 
C 58.477538 58.515421 58.035 59.583803 58.035 60.697656 
C 58.035 61.811509 58.477538 62.879892 59.265152 63.667505 
C 60.052765 64.455118 61.121147 64.897656 62.235 64.897656 
L 62.235 64.897656 
z
" clip-path="url(#pe546f42ace)" style="fill: none; stroke: #000000; stroke-width: 2; stroke-linejoin: miter"/>
   </g>
   <g id="patch_5">
    <path d="M 263.835 64.897656 
C 264.948853 64.897656 266.017235 64.455118 266.804848 63.667505 
C 267.592462 62.879892 268.035 61.811509 268.035 60.697656 
C 268.035 59.583803 267.592462 58.515421 266.804848 57.727808 
C 266.017235 56.940195 264.948853 56.497656 263.835 56.497656 
C 262.721147 56.497656 261.652765 56.940195 260.865152 57.727808 
C 260.077538 58.515421 259.635 59.583803 259.635 60.697656 
C 259.635 61.811509 260.077538 62.879892 260.865152 63.667505 
C 261.652765 64.455118 262.721147 64.897656 263.835 64.897656 
L 263.835 64.897656 
z
" clip-path="url(#pe546f42ace)" style="fill: none; stroke: #000000; stroke-width: 2; stroke-linejoin: miter"/>
   </g>
   <g id="line2d_1">
    <path d="M 163.035 168.697656 
L 163.035 183.697656 
L 187.035 183.697656 
L 187.035 207.697656 
L 163.035 207.697656 
L 163.035 222.697656 
" clip-path="url(#pe546f42ace)" style="fill: none; stroke: #000000; stroke-width: 2; stroke-linecap: round"/>
   </g>
   <g id="line2d_2">
    <path d="M 193.035 183.697656 
L 193.035 207.697656 
" clip-path="url(#pe546f42ace)" style="fill: none; stroke: #000000; stroke-width: 2; stroke-linecap: round"/>
   </g>
   <g id="line2d_3">
    <path d="M 193.035 195.697656 
L 212.235 195.697656 
" clip-path="url(#pe546f42ace)" style="fill: none; stroke: #000000; stroke-width: 2; stroke-linecap: round"/>
   </g>
   <g id="line2d_4">
    <path d="M 163.035 222.697656 
L 163.035 237.097656 
L 154.035 237.097656 
L 172.035 237.097656 
M 156.735 241.417656 
L 169.335 241.417656 
M 161.235 245.737656 
L 164.835 245.737656 
" clip-path="url(#pe546f42ace)" style="fill: none; stroke: #000000; stroke-width: 2; stroke-linecap: round"/>
   </g>
   <g id="line2d_5">
    <path d="M 163.035 168.697656 
L 163.035 155.197656 
L 163.035 141.697656 
" clip-path="url(#pe546f42ace)" style="fill: none; stroke: #000000; stroke-width: 2; stroke-linecap: round"/>
   </g>
   <g id="line2d_6">
    <path d="M 163.035 141.697656 
L 149.535 141.697656 
L 136.035 141.697656 
" clip-path="url(#pe546f42ace)" style="fill: none; stroke: #000000; stroke-width: 2; stroke-linecap: round"/>
   </g>
   <g id="line2d_7">
    <path d="M 136.035 141.697656 
L 136.035 126.697656 
L 112.035 126.697656 
L 112.035 102.697656 
L 136.035 102.697656 
L 136.035 87.697656 
" clip-path="url(#pe546f42ace)" style="fill: none; stroke: #000000; stroke-width: 2; stroke-linecap: round"/>
   </g>
   <g id="line2d_8">
    <path d="M 106.035 126.697656 
L 106.035 102.697656 
" clip-path="url(#pe546f42ace)" style="fill: none; stroke: #000000; stroke-width: 2; stroke-linecap: round"/>
   </g>
   <g id="line2d_9">
    <path d="M 106.035 114.697656 
L 86.835 114.697656 
" clip-path="url(#pe546f42ace)" style="fill: none; stroke: #000000; stroke-width: 2; stroke-linecap: round"/>
   </g>
   <g id="line2d_10">
    <path d="M 136.035 114.697656 
L 121.035 114.697656 
" clip-path="url(#pe546f42ace)" style="fill: none; stroke: #000000; stroke-width: 2; stroke-linecap: round"/>
   </g>
   <g id="patch_6">
    <path d="M 121.035 118.297656 
L 112.035 114.697656 
L 121.035 111.097656 
z
" clip-path="url(#pe546f42ace)"/>
   </g>
   <g id="line2d_11">
    <path d="M 136.035 87.697656 
L 136.035 72.697656 
L 112.035 72.697656 
L 112.035 48.697656 
L 136.035 48.697656 
L 136.035 33.697656 
" clip-path="url(#pe546f42ace)" style="fill: none; stroke: #000000; stroke-width: 2; stroke-linecap: round"/>
   </g>
   <g id="line2d_12">
    <path d="M 106.035 72.697656 
L 106.035 48.697656 
" clip-path="url(#pe546f42ace)" style="fill: none; stroke: #000000; stroke-width: 2; stroke-linecap: round"/>
   </g>
   <g id="line2d_13">
    <path d="M 97.635 60.697656 
L 86.835 60.697656 
" clip-path="url(#pe546f42ace)" style="fill: none; stroke: #000000; stroke-width: 2; stroke-linecap: round"/>
   </g>
   <g id="line2d_14">
    <path d="M 136.035 60.697656 
L 121.035 60.697656 
" clip-path="url(#pe546f42ace)" style="fill: none; stroke: #000000; stroke-width: 2; stroke-linecap: round"/>
   </g>
   <g id="patch_7">
    <path d="M 121.035 64.297656 
L 112.035 60.697656 
L 121.035 57.097656 
z
" clip-path="url(#pe546f42ace)"/>
   </g>
   <g id="line2d_15">
    <path d="M 136.035 87.697656 
L 111.435 87.697656 
L 86.835 87.697656 
" clip-path="url(#pe546f42ace)" style="fill: none; stroke: #000000; stroke-width: 2; stroke-linecap: round"/>
   </g>
   <g id="line2d_16">
    <path d="M 86.835 87.697656 
L 86.835 74.197656 
L 86.835 60.697656 
" clip-path="url(#pe546f42ace)" style="fill: none; stroke: #000000; stroke-width: 2; stroke-linecap: round"/>
   </g>
   <g id="line2d_17">
    <path d="M 136.035 33.697656 
L 149.535 33.697656 
L 163.035 33.697656 
" clip-path="url(#pe546f42ace)" style="fill: none; stroke: #000000; stroke-width: 2; stroke-linecap: round"/>
   </g>
   <g id="line2d_18">
    <path d="M 163.035 33.697656 
L 163.035 19.297656 
" clip-path="url(#pe546f42ace)" style="fill: none; stroke: #000000; stroke-width: 2; stroke-linecap: round"/>
   </g>
   <g id="line2d_19">
    <path d="M 163.035 19.297656 
L 156.285 19.297656 
" clip-path="url(#pe546f42ace)" style="fill: none; stroke: #000000; stroke-width: 2; stroke-linecap: round"/>
   </g>
   <g id="line2d_20">
    <path d="M 163.035 19.297656 
L 169.785 19.297656 
" clip-path="url(#pe546f42ace)" style="fill: none; stroke: #000000; stroke-width: 2; stroke-linecap: round"/>
   </g>
   <g id="line2d_21">
    <path d="M 163.035 33.697656 
L 176.535 33.697656 
L 190.035 33.697656 
" clip-path="url(#pe546f42ace)" style="fill: none; stroke: #000000; stroke-width: 2; stroke-linecap: round"/>
   </g>
   <g id="line2d_22">
    <path d="M 190.035 33.697656 
L 190.035 48.697656 
L 214.035 48.697656 
L 214.035 72.697656 
L 190.035 72.697656 
L 190.035 87.697656 
" clip-path="url(#pe546f42ace)" style="fill: none; stroke: #000000; stroke-width: 2; stroke-linecap: round"/>
   </g>
   <g id="line2d_23">
    <path d="M 220.035 48.697656 
L 220.035 72.697656 
" clip-path="url(#pe546f42ace)" style="fill: none; stroke: #000000; stroke-width: 2; stroke-linecap: round"/>
   </g>
   <g id="line2d_24">
    <path d="M 228.435 60.697656 
L 239.235 60.697656 
" clip-path="url(#pe546f42ace)" style="fill: none; stroke: #000000; stroke-width: 2; stroke-linecap: round"/>
   </g>
   <g id="line2d_25">
    <path d="M 190.035 60.697656 
L 205.035 60.697656 
" clip-path="url(#pe546f42ace)" style="fill: none; stroke: #000000; stroke-width: 2; stroke-linecap: round"/>
   </g>
   <g id="patch_8">
    <path d="M 205.035 57.097656 
L 214.035 60.697656 
L 205.035 64.297656 
z
" clip-path="url(#pe546f42ace)"/>
   </g>
   <g id="line2d_26">
    <path d="M 190.035 87.697656 
L 214.635 87.697656 
L 239.235 87.697656 
" clip-path="url(#pe546f42ace)" style="fill: none; stroke: #000000; stroke-width: 2; stroke-linecap: round"/>
   </g>
   <g id="line2d_27">
    <path d="M 239.235 87.697656 
L 239.235 74.197656 
L 239.235 60.697656 
" clip-path="url(#pe546f42ace)" style="fill: none; stroke: #000000; stroke-width: 2; stroke-linecap: round"/>
   </g>
   <g id="line2d_28">
    <path d="M 190.035 87.697656 
L 190.035 102.697656 
L 214.035 102.697656 
L 214.035 126.697656 
L 190.035 126.697656 
L 190.035 141.697656 
" clip-path="url(#pe546f42ace)" style="fill: none; stroke: #000000; stroke-width: 2; stroke-linecap: round"/>
   </g>
   <g id="line2d_29">
    <path d="M 220.035 102.697656 
L 220.035 126.697656 
" clip-path="url(#pe546f42ace)" style="fill: none; stroke: #000000; stroke-width: 2; stroke-linecap: round"/>
   </g>
   <g id="line2d_30">
    <path d="M 220.035 114.697656 
L 239.235 114.697656 
" clip-path="url(#pe546f42ace)" style="fill: none; stroke: #000000; stroke-width: 2; stroke-linecap: round"/>
   </g>
   <g id="line2d_31">
    <path d="M 190.035 114.697656 
L 205.035 114.697656 
" clip-path="url(#pe546f42ace)" style="fill: none; stroke: #000000; stroke-width: 2; stroke-linecap: round"/>
   </g>
   <g id="patch_9">
    <path d="M 205.035 111.097656 
L 214.035 114.697656 
L 205.035 118.297656 
z
" clip-path="url(#pe546f42ace)"/>
   </g>
   <g id="line2d_32">
    <path d="M 190.035 141.697656 
L 176.535 141.697656 
L 163.035 141.697656 
" clip-path="url(#pe546f42ace)" style="fill: none; stroke: #000000; stroke-width: 2; stroke-linecap: round"/>
   </g>
   <g id="line2d_33">
    <path d="M 136.035 33.697656 
L 82.035 33.697656 
L 28.035 33.697656 
" clip-path="url(#pe546f42ace)" style="fill: none; stroke: #000000; stroke-width: 2; stroke-linecap: round"/>
   </g>
   <g id="line2d_34">
    <path d="M 28.035 33.697656 
L 28.035 48.697656 
L 52.035 48.697656 
L 52.035 72.697656 
L 28.035 72.697656 
L 28.035 87.697656 
" clip-path="url(#pe546f42ace)" style="fill: none; stroke: #000000; stroke-width: 2; stroke-linecap: round"/>
   </g>
   <g id="line2d_35">
    <path d="M 58.035 48.697656 
L 58.035 72.697656 
" clip-path="url(#pe546f42ace)" style="fill: none; stroke: #000000; stroke-width: 2; stroke-linecap: round"/>
   </g>
   <g id="line2d_36">
    <path d="M 66.435 60.697656 
L 77.235 60.697656 
" clip-path="url(#pe546f42ace)" style="fill: none; stroke: #000000; stroke-width: 2; stroke-linecap: round"/>
   </g>
   <g id="line2d_37">
    <path d="M 28.035 60.697656 
L 43.035 60.697656 
" clip-path="url(#pe546f42ace)" style="fill: none; stroke: #000000; stroke-width: 2; stroke-linecap: round"/>
   </g>
   <g id="patch_10">
    <path d="M 43.035 57.097656 
L 52.035 60.697656 
L 43.035 64.297656 
z
" clip-path="url(#pe546f42ace)"/>
   </g>
   <g id="line2d_38">
    <path d="M 77.235 60.697656 
L 82.035 60.697656 
L 86.835 60.697656 
" clip-path="url(#pe546f42ace)" style="fill: none; stroke: #000000; stroke-width: 2; stroke-linecap: round"/>
   </g>
   <g id="line2d_39">
    <path d="M 28.035 87.697656 
L 28.035 113.797656 
L 28.035 139.897656 
" clip-path="url(#pe546f42ace)" style="fill: none; stroke: #000000; stroke-width: 2; stroke-linecap: round"/>
   </g>
   <g id="line2d_40">
    <path d="M 28.035 139.897656 
L 28.035 154.897656 
L 52.035 154.897656 
L 52.035 178.897656 
L 28.035 178.897656 
L 28.035 193.897656 
" clip-path="url(#pe546f42ace)" style="fill: none; stroke: #000000; stroke-width: 2; stroke-linecap: round"/>
   </g>
   <g id="line2d_41">
    <path d="M 58.035 154.897656 
L 58.035 178.897656 
" clip-path="url(#pe546f42ace)" style="fill: none; stroke: #000000; stroke-width: 2; stroke-linecap: round"/>
   </g>
   <g id="line2d_42">
    <path d="M 58.035 166.897656 
L 77.235 166.897656 
" clip-path="url(#pe546f42ace)" style="fill: none; stroke: #000000; stroke-width: 2; stroke-linecap: round"/>
   </g>
   <g id="line2d_43">
    <path d="M 28.035 166.897656 
L 43.035 166.897656 
" clip-path="url(#pe546f42ace)" style="fill: none; stroke: #000000; stroke-width: 2; stroke-linecap: round"/>
   </g>
   <g id="patch_11">
    <path d="M 43.035 163.297656 
L 52.035 166.897656 
L 43.035 170.497656 
z
" clip-path="url(#pe546f42ace)"/>
   </g>
   <g id="line2d_44">
    <path d="M 28.035 193.897656 
L 28.035 208.297656 
L 28.035 222.697656 
" clip-path="url(#pe546f42ace)" style="fill: none; stroke: #000000; stroke-width: 2; stroke-linecap: round"/>
   </g>
   <g id="line2d_45">
    <path d="M 28.035 222.697656 
L 95.535 222.697656 
L 163.035 222.697656 
" clip-path="url(#pe546f42ace)" style="fill: none; stroke: #000000; stroke-width: 2; stroke-linecap: round"/>
   </g>
   <g id="line2d_46">
    <path d="M 163.035 222.697656 
L 230.535 222.697656 
L 298.035 222.697656 
" clip-path="url(#pe546f42ace)" style="fill: none; stroke: #000000; stroke-width: 2; stroke-linecap: round"/>
   </g>
   <g id="line2d_47">
    <path d="M 298.035 222.697656 
L 298.035 208.297656 
L 298.035 193.897656 
" clip-path="url(#pe546f42ace)" style="fill: none; stroke: #000000; stroke-width: 2; stroke-linecap: round"/>
   </g>
   <g id="line2d_48">
    <path d="M 298.035 193.897656 
L 298.035 178.897656 
L 274.035 178.897656 
L 274.035 154.897656 
L 298.035 154.897656 
L 298.035 139.897656 
" clip-path="url(#pe546f42ace)" style="fill: none; stroke: #000000; stroke-width: 2; stroke-linecap: round"/>
   </g>
   <g id="line2d_49">
    <path d="M 268.035 178.897656 
L 268.035 154.897656 
" clip-path="url(#pe546f42ace)" style="fill: none; stroke: #000000; stroke-width: 2; stroke-linecap: round"/>
   </g>
   <g id="line2d_50">
    <path d="M 268.035 166.897656 
L 248.835 166.897656 
" clip-path="url(#pe546f42ace)" style="fill: none; stroke: #000000; stroke-width: 2; stroke-linecap: round"/>
   </g>
   <g id="line2d_51">
    <path d="M 298.035 166.897656 
L 283.035 166.897656 
" clip-path="url(#pe546f42ace)" style="fill: none; stroke: #000000; stroke-width: 2; stroke-linecap: round"/>
   </g>
   <g id="patch_12">
    <path d="M 283.035 170.497656 
L 274.035 166.897656 
L 283.035 163.297656 
z
" clip-path="url(#pe546f42ace)"/>
   </g>
   <g id="line2d_52">
    <path d="M 298.035 139.897656 
L 298.035 126.397656 
L 298.035 112.897656 
" clip-path="url(#pe546f42ace)" style="fill: none; stroke: #000000; stroke-width: 2; stroke-linecap: round"/>
   </g>
   <g id="line2d_53">
    <path d="M 298.035 112.897656 
L 298.035 100.297656 
L 298.035 87.697656 
" clip-path="url(#pe546f42ace)" style="fill: none; stroke: #000000; stroke-width: 2; stroke-linecap: round"/>
   </g>
   <g id="line2d_54">
    <path d="M 298.035 87.697656 
L 298.035 72.697656 
L 274.035 72.697656 
L 274.035 48.697656 
L 298.035 48.697656 
L 298.035 33.697656 
" clip-path="url(#pe546f42ace)" style="fill: none; stroke: #000000; stroke-width: 2; stroke-linecap: round"/>
   </g>
   <g id="line2d_55">
    <path d="M 268.035 72.697656 
L 268.035 48.697656 
" clip-path="url(#pe546f42ace)" style="fill: none; stroke: #000000; stroke-width: 2; stroke-linecap: round"/>
   </g>
   <g id="line2d_56">
    <path d="M 259.635 60.697656 
L 248.835 60.697656 
" clip-path="url(#pe546f42ace)" style="fill: none; stroke: #000000; stroke-width: 2; stroke-linecap: round"/>
   </g>
   <g id="line2d_57">
    <path d="M 298.035 60.697656 
L 283.035 60.697656 
" clip-path="url(#pe546f42ace)" style="fill: none; stroke: #000000; stroke-width: 2; stroke-linecap: round"/>
   </g>
   <g id="patch_13">
    <path d="M 283.035 64.297656 
L 274.035 60.697656 
L 283.035 57.097656 
z
" clip-path="url(#pe546f42ace)"/>
   </g>
   <g id="line2d_58">
    <path d="M 248.835 60.697656 
L 244.035 60.697656 
L 239.235 60.697656 
" clip-path="url(#pe546f42ace)" style="fill: none; stroke: #000000; stroke-width: 2; stroke-linecap: round"/>
   </g>
   <g id="line2d_59">
    <path d="M 298.035 33.697656 
L 298.035 33.697656 
L 298.035 33.697656 
" clip-path="url(#pe546f42ace)" style="fill: none; stroke: #000000; stroke-width: 2; stroke-linecap: round"/>
   </g>
   <g id="line2d_60">
    <path d="M 298.035 33.697656 
L 244.035 33.697656 
L 190.035 33.697656 
" clip-path="url(#pe546f42ace)" style="fill: none; stroke: #000000; stroke-width: 2; stroke-linecap: round"/>
   </g>
   <g id="line2d_61">
    <path d="M 77.235 166.897656 
L 77.235 153.397656 
L 77.235 139.897656 
" clip-path="url(#pe546f42ace)" style="fill: none; stroke: #000000; stroke-width: 2; stroke-linecap: round"/>
   </g>
   <g id="line2d_62">
    <path d="M 77.235 139.897656 
L 52.635 139.897656 
L 28.035 139.897656 
" clip-path="url(#pe546f42ace)" style="fill: none; stroke: #000000; stroke-width: 2; stroke-linecap: round"/>
   </g>
   <g id="line2d_63">
    <path d="M 77.235 166.897656 
L 163.035 166.897656 
L 248.835 166.897656 
" clip-path="url(#pe546f42ace)" style="fill: none; stroke: #000000; stroke-width: 2; stroke-linecap: round"/>
   </g>
   <g id="line2d_64">
    <path d="M 136.035 114.697656 
L 140.535 114.697656 
L 145.035 114.697656 
" clip-path="url(#pe546f42ace)" style="fill: none; stroke: #000000; stroke-width: 2; stroke-linecap: round"/>
   </g>
   <g id="line2d_65">
    <path d="M 145.035 114.697656 
L 145.035 128.197656 
L 145.035 141.697656 
" clip-path="url(#pe546f42ace)" style="fill: none; stroke: #000000; stroke-width: 2; stroke-linecap: round"/>
   </g>
   <g id="line2d_66">
    <path d="M 190.035 114.697656 
L 185.535 114.697656 
L 181.035 114.697656 
" clip-path="url(#pe546f42ace)" style="fill: none; stroke: #000000; stroke-width: 2; stroke-linecap: round"/>
   </g>
   <g id="line2d_67">
    <path d="M 181.035 114.697656 
L 181.035 128.197656 
L 181.035 141.697656 
" clip-path="url(#pe546f42ace)" style="fill: none; stroke: #000000; stroke-width: 2; stroke-linecap: round"/>
   </g>
   <g id="line2d_68">
    <path d="M 136.035 60.697656 
L 140.535 60.697656 
L 145.035 60.697656 
" clip-path="url(#pe546f42ace)" style="fill: none; stroke: #000000; stroke-width: 2; stroke-linecap: round"/>
   </g>
   <g id="line2d_69">
    <path d="M 145.035 60.697656 
L 145.035 47.197656 
L 145.035 33.697656 
" clip-path="url(#pe546f42ace)" style="fill: none; stroke: #000000; stroke-width: 2; stroke-linecap: round"/>
   </g>
   <g id="line2d_70">
    <path d="M 190.035 60.697656 
L 185.535 60.697656 
L 181.035 60.697656 
" clip-path="url(#pe546f42ace)" style="fill: none; stroke: #000000; stroke-width: 2; stroke-linecap: round"/>
   </g>
   <g id="line2d_71">
    <path d="M 181.035 60.697656 
L 181.035 47.197656 
L 181.035 33.697656 
" clip-path="url(#pe546f42ace)" style="fill: none; stroke: #000000; stroke-width: 2; stroke-linecap: round"/>
   </g>
   <g id="line2d_72">
    <path d="M 298.035 166.897656 
L 302.535 166.897656 
L 307.035 166.897656 
" clip-path="url(#pe546f42ace)" style="fill: none; stroke: #000000; stroke-width: 2; stroke-linecap: round"/>
   </g>
   <g id="line2d_73">
    <path d="M 307.035 166.897656 
L 307.035 194.797656 
L 307.035 222.697656 
" clip-path="url(#pe546f42ace)" style="fill: none; stroke: #000000; stroke-width: 2; stroke-linecap: round"/>
   </g>
   <g id="line2d_74">
    <path d="M 307.035 222.697656 
L 302.535 222.697656 
L 298.035 222.697656 
" clip-path="url(#pe546f42ace)" style="fill: none; stroke: #000000; stroke-width: 2; stroke-linecap: round"/>
   </g>
   <g id="line2d_75">
    <path d="M 28.035 166.897656 
L 23.535 166.897656 
L 19.035 166.897656 
" clip-path="url(#pe546f42ace)" style="fill: none; stroke: #000000; stroke-width: 2; stroke-linecap: round"/>
   </g>
   <g id="line2d_76">
    <path d="M 19.035 166.897656 
L 19.035 194.797656 
L 19.035 222.697656 
" clip-path="url(#pe546f42ace)" style="fill: none; stroke: #000000; stroke-width: 2; stroke-linecap: round"/>
   </g>
   <g id="line2d_77">
    <path d="M 19.035 222.697656 
L 23.535 222.697656 
L 28.035 222.697656 
" clip-path="url(#pe546f42ace)" style="fill: none; stroke: #000000; stroke-width: 2; stroke-linecap: round"/>
   </g>
   <g id="line2d_78">
    <path d="M 298.035 60.697656 
L 302.535 60.697656 
L 307.035 60.697656 
" clip-path="url(#pe546f42ace)" style="fill: none; stroke: #000000; stroke-width: 2; stroke-linecap: round"/>
   </g>
   <g id="line2d_79">
    <path d="M 307.035 60.697656 
L 307.035 47.197656 
L 307.035 33.697656 
" clip-path="url(#pe546f42ace)" style="fill: none; stroke: #000000; stroke-width: 2; stroke-linecap: round"/>
   </g>
   <g id="line2d_80">
    <path d="M 307.035 33.697656 
L 302.535 33.697656 
L 298.035 33.697656 
" clip-path="url(#pe546f42ace)" style="fill: none; stroke: #000000; stroke-width: 2; stroke-linecap: round"/>
   </g>
   <g id="line2d_81">
    <path d="M 28.035 60.697656 
L 23.535 60.697656 
L 19.035 60.697656 
" clip-path="url(#pe546f42ace)" style="fill: none; stroke: #000000; stroke-width: 2; stroke-linecap: round"/>
   </g>
   <g id="line2d_82">
    <path d="M 19.035 60.697656 
L 19.035 47.197656 
L 19.035 33.697656 
" clip-path="url(#pe546f42ace)" style="fill: none; stroke: #000000; stroke-width: 2; stroke-linecap: round"/>
   </g>
   <g id="line2d_83">
    <path d="M 19.035 33.697656 
L 23.535 33.697656 
L 28.035 33.697656 
" clip-path="url(#pe546f42ace)" style="fill: none; stroke: #000000; stroke-width: 2; stroke-linecap: round"/>
   </g>
   <g id="line2d_84">
    <path d="M 298.035 112.897656 
L 311.535 112.897656 
L 325.035 112.897656 
" clip-path="url(#pe546f42ace)" style="fill: none; stroke: #000000; stroke-width: 2; stroke-linecap: round"/>
   </g>
   <g id="text_1">
    <!-- $V_{dd}$ -->
    <g transform="translate(152.9725 13.098047) scale(0.125 -0.125)">
     <defs>
      <path id="DejaVuSans-Oblique-56" d="M 1319 0 
L 500 4666 
L 1119 4666 
L 1797 653 
L 4063 4666 
L 4750 4666 
L 2053 0 
L 1319 0 
z
" transform="scale(0.015625)"/>
      <path id="DejaVuSans-Oblique-64" d="M 2675 525 
Q 2444 222 2128 65 
Q 1813 -91 1428 -91 
Q 903 -91 598 267 
Q 294 625 294 1247 
Q 294 1766 478 2236 
Q 663 2706 1013 3078 
Q 1244 3325 1534 3454 
Q 1825 3584 2144 3584 
Q 2481 3584 2739 3421 
Q 2997 3259 3138 2956 
L 3513 4863 
L 4091 4863 
L 3144 0 
L 2566 0 
L 2675 525 
z
M 891 1350 
Q 891 897 1095 644 
Q 1300 391 1663 391 
Q 1931 391 2161 520 
Q 2391 650 2566 903 
Q 2750 1166 2856 1509 
Q 2963 1853 2963 2188 
Q 2963 2622 2758 2865 
Q 2553 3109 2194 3109 
Q 1922 3109 1687 2981 
Q 1453 2853 1288 2613 
Q 1106 2353 998 2009 
Q 891 1666 891 1350 
z
" transform="scale(0.015625)"/>
     </defs>
     <use xlink:href="#DejaVuSans-Oblique-56" transform="translate(0 0.09375)"/>
     <use xlink:href="#DejaVuSans-Oblique-64" transform="translate(68.408203 -16.3125) scale(0.7)"/>
     <use xlink:href="#DejaVuSans-Oblique-64" transform="translate(112.841797 -16.3125) scale(0.7)"/>
    </g>
   </g>
   <g id="patch_14">
    <path d="M 163.035 225.397656 
C 163.751048 225.397656 164.437866 225.113167 164.944188 224.606845 
C 165.450511 224.100522 165.735 223.413705 165.735 222.697656 
C 165.735 221.981608 165.450511 221.294791 164.944188 220.788468 
C 164.437866 220.282145 163.751048 219.997656 163.035 219.997656 
C 162.318952 219.997656 161.632134 220.282145 161.125812 220.788468 
C 160.619489 221.294791 160.335 221.981608 160.335 222.697656 
C 160.335 223.413705 160.619489 224.100522 161.125812 224.606845 
C 161.632134 225.113167 162.318952 225.397656 163.035 225.397656 
z
" clip-path="url(#pe546f42ace)" style="stroke: #000000; stroke-width: 2; stroke-linejoin: miter"/>
   </g>
   <g id="patch_15">
    <path d="M 163.035 144.397656 
C 163.751048 144.397656 164.437866 144.113167 164.944188 143.606845 
C 165.450511 143.100522 165.735 142.413705 165.735 141.697656 
C 165.735 140.981608 165.450511 140.294791 164.944188 139.788468 
C 164.437866 139.282145 163.751048 138.997656 163.035 138.997656 
C 162.318952 138.997656 161.632134 139.282145 161.125812 139.788468 
C 160.619489 140.294791 160.335 140.981608 160.335 141.697656 
C 160.335 142.413705 160.619489 143.100522 161.125812 143.606845 
C 161.632134 144.113167 162.318952 144.397656 163.035 144.397656 
z
" clip-path="url(#pe546f42ace)" style="stroke: #000000; stroke-width: 2; stroke-linejoin: miter"/>
   </g>
   <g id="patch_16">
    <path d="M 136.035 90.397656 
C 136.751048 90.397656 137.437866 90.113167 137.944188 89.606845 
C 138.450511 89.100522 138.735 88.413705 138.735 87.697656 
C 138.735 86.981608 138.450511 86.294791 137.944188 85.788468 
C 137.437866 85.282145 136.751048 84.997656 136.035 84.997656 
C 135.318952 84.997656 134.632134 85.282145 134.125812 85.788468 
C 133.619489 86.294791 133.335 86.981608 133.335 87.697656 
C 133.335 88.413705 133.619489 89.100522 134.125812 89.606845 
C 134.632134 90.113167 135.318952 90.397656 136.035 90.397656 
z
" clip-path="url(#pe546f42ace)" style="stroke: #000000; stroke-width: 2; stroke-linejoin: miter"/>
   </g>
   <g id="patch_17">
    <path d="M 86.835 63.397656 
C 87.551048 63.397656 88.237866 63.113167 88.744188 62.606845 
C 89.250511 62.100522 89.535 61.413705 89.535 60.697656 
C 89.535 59.981608 89.250511 59.294791 88.744188 58.788468 
C 88.237866 58.282145 87.551048 57.997656 86.835 57.997656 
C 86.118952 57.997656 85.432134 58.282145 84.925812 58.788468 
C 84.419489 59.294791 84.135 59.981608 84.135 60.697656 
C 84.135 61.413705 84.419489 62.100522 84.925812 62.606845 
C 85.432134 63.113167 86.118952 63.397656 86.835 63.397656 
z
" clip-path="url(#pe546f42ace)" style="stroke: #000000; stroke-width: 2; stroke-linejoin: miter"/>
   </g>
   <g id="patch_18">
    <path d="M 190.035 90.397656 
C 190.751048 90.397656 191.437866 90.113167 191.944188 89.606845 
C 192.450511 89.100522 192.735 88.413705 192.735 87.697656 
C 192.735 86.981608 192.450511 86.294791 191.944188 85.788468 
C 191.437866 85.282145 190.751048 84.997656 190.035 84.997656 
C 189.318952 84.997656 188.632134 85.282145 188.125812 85.788468 
C 187.619489 86.294791 187.335 86.981608 187.335 87.697656 
C 187.335 88.413705 187.619489 89.100522 188.125812 89.606845 
C 188.632134 90.113167 189.318952 90.397656 190.035 90.397656 
z
" clip-path="url(#pe546f42ace)" style="stroke: #000000; stroke-width: 2; stroke-linejoin: miter"/>
   </g>
   <g id="patch_19">
    <path d="M 239.235 63.397656 
C 239.951048 63.397656 240.637866 63.113167 241.144188 62.606845 
C 241.650511 62.100522 241.935 61.413705 241.935 60.697656 
C 241.935 59.981608 241.650511 59.294791 241.144188 58.788468 
C 240.637866 58.282145 239.951048 57.997656 239.235 57.997656 
C 238.518952 57.997656 237.832134 58.282145 237.325812 58.788468 
C 236.819489 59.294791 236.535 59.981608 236.535 60.697656 
C 236.535 61.413705 236.819489 62.100522 237.325812 62.606845 
C 237.832134 63.113167 238.518952 63.397656 239.235 63.397656 
z
" clip-path="url(#pe546f42ace)" style="stroke: #000000; stroke-width: 2; stroke-linejoin: miter"/>
   </g>
   <g id="patch_20">
    <path d="M 298.035 115.597656 
C 298.751048 115.597656 299.437866 115.313167 299.944188 114.806845 
C 300.450511 114.300522 300.735 113.613705 300.735 112.897656 
C 300.735 112.181608 300.450511 111.494791 299.944188 110.988468 
C 299.437866 110.482145 298.751048 110.197656 298.035 110.197656 
C 297.318952 110.197656 296.632134 110.482145 296.125812 110.988468 
C 295.619489 111.494791 295.335 112.181608 295.335 112.897656 
C 295.335 113.613705 295.619489 114.300522 296.125812 114.806845 
C 296.632134 115.313167 297.318952 115.597656 298.035 115.597656 
z
" clip-path="url(#pe546f42ace)" style="stroke: #000000; stroke-width: 2; stroke-linejoin: miter"/>
   </g>
   <g id="patch_21">
    <path d="M 77.235 169.597656 
C 77.951048 169.597656 78.637866 169.313167 79.144188 168.806845 
C 79.650511 168.300522 79.935 167.613705 79.935 166.897656 
C 79.935 166.181608 79.650511 165.494791 79.144188 164.988468 
C 78.637866 164.482145 77.951048 164.197656 77.235 164.197656 
C 76.518952 164.197656 75.832134 164.482145 75.325812 164.988468 
C 74.819489 165.494791 74.535 166.181608 74.535 166.897656 
C 74.535 167.613705 74.819489 168.300522 75.325812 168.806845 
C 75.832134 169.313167 76.518952 169.597656 77.235 169.597656 
z
" clip-path="url(#pe546f42ace)" style="stroke: #000000; stroke-width: 2; stroke-linejoin: miter"/>
   </g>
   <g id="patch_22">
    <path d="M 325.035 115.597656 
C 325.751048 115.597656 326.437866 115.313167 326.944188 114.806845 
C 327.450511 114.300522 327.735 113.613705 327.735 112.897656 
C 327.735 112.181608 327.450511 111.494791 326.944188 110.988468 
C 326.437866 110.482145 325.751048 110.197656 325.035 110.197656 
C 324.318952 110.197656 323.632134 110.482145 323.125812 110.988468 
C 322.619489 111.494791 322.335 112.181608 322.335 112.897656 
C 322.335 113.613705 322.619489 114.300522 323.125812 114.806845 
C 323.632134 115.313167 324.318952 115.597656 325.035 115.597656 
z
" clip-path="url(#pe546f42ace)" style="fill: #ffffff; stroke: #000000; stroke-width: 2; stroke-linejoin: miter"/>
   </g>
   <g id="text_2">
    <!-- $V_{out}$ -->
    <g transform="translate(313.41 103.998047) scale(0.125 -0.125)">
     <defs>
      <path id="DejaVuSans-Oblique-6f" d="M 1625 -91 
Q 1009 -91 651 289 
Q 294 669 294 1325 
Q 294 1706 417 2101 
Q 541 2497 738 2766 
Q 1047 3184 1428 3384 
Q 1809 3584 2291 3584 
Q 2888 3584 3255 3212 
Q 3622 2841 3622 2241 
Q 3622 1825 3500 1412 
Q 3378 1000 3181 728 
Q 2875 309 2494 109 
Q 2113 -91 1625 -91 
z
M 891 1344 
Q 891 869 1089 633 
Q 1288 397 1691 397 
Q 2269 397 2648 901 
Q 3028 1406 3028 2181 
Q 3028 2634 2825 2865 
Q 2622 3097 2228 3097 
Q 1903 3097 1650 2945 
Q 1397 2794 1197 2484 
Q 1050 2253 970 1956 
Q 891 1659 891 1344 
z
" transform="scale(0.015625)"/>
      <path id="DejaVuSans-Oblique-75" d="M 428 1388 
L 838 3500 
L 1416 3500 
L 1006 1409 
Q 975 1256 961 1147 
Q 947 1038 947 966 
Q 947 700 1109 554 
Q 1272 409 1569 409 
Q 2031 409 2368 721 
Q 2706 1034 2809 1563 
L 3194 3500 
L 3769 3500 
L 3091 0 
L 2516 0 
L 2631 550 
Q 2388 244 2052 76 
Q 1716 -91 1338 -91 
Q 878 -91 622 161 
Q 366 413 366 863 
Q 366 956 381 1097 
Q 397 1238 428 1388 
z
" transform="scale(0.015625)"/>
      <path id="DejaVuSans-Oblique-74" d="M 2706 3500 
L 2619 3053 
L 1472 3053 
L 1100 1153 
Q 1081 1047 1072 975 
Q 1063 903 1063 863 
Q 1063 663 1183 572 
Q 1303 481 1569 481 
L 2150 481 
L 2053 0 
L 1503 0 
Q 991 0 739 200 
Q 488 400 488 806 
Q 488 878 497 964 
Q 506 1050 525 1153 
L 897 3053 
L 409 3053 
L 500 3500 
L 978 3500 
L 1172 4494 
L 1747 4494 
L 1556 3500 
L 2706 3500 
z
" transform="scale(0.015625)"/>
     </defs>
     <use xlink:href="#DejaVuSans-Oblique-56" transform="translate(0 0.09375)"/>
     <use xlink:href="#DejaVuSans-Oblique-6f" transform="translate(68.408203 -16.3125) scale(0.7)"/>
     <use xlink:href="#DejaVuSans-Oblique-75" transform="translate(111.235352 -16.3125) scale(0.7)"/>
     <use xlink:href="#DejaVuSans-Oblique-74" transform="translate(155.600586 -16.3125) scale(0.7)"/>
    </g>
   </g>
   <g id="patch_23">
    <path d="M 212.235 198.397656 
C 212.951048 198.397656 213.637866 198.113167 214.144188 197.606845 
C 214.650511 197.100522 214.935 196.413705 214.935 195.697656 
C 214.935 194.981608 214.650511 194.294791 214.144188 193.788468 
C 213.637866 193.282145 212.951048 192.997656 212.235 192.997656 
C 211.518952 192.997656 210.832134 193.282145 210.325812 193.788468 
C 209.819489 194.294791 209.535 194.981608 209.535 195.697656 
C 209.535 196.413705 209.819489 197.100522 210.325812 197.606845 
C 210.832134 198.113167 211.518952 198.397656 212.235 198.397656 
z
" clip-path="url(#pe546f42ace)" style="fill: #ffffff; stroke: #000000; stroke-width: 2; stroke-linejoin: miter"/>
   </g>
   <g id="text_3">
    <!-- $V_{b}$ -->
    <g transform="translate(204.985 186.798047) scale(0.125 -0.125)">
     <defs>
      <path id="DejaVuSans-Oblique-62" d="M 3169 2138 
Q 3169 2591 2961 2847 
Q 2753 3103 2388 3103 
Q 2122 3103 1889 2973 
Q 1656 2844 1484 2597 
Q 1303 2338 1198 1995 
Q 1094 1653 1094 1313 
Q 1094 881 1298 636 
Q 1503 391 1863 391 
Q 2134 391 2365 517 
Q 2597 644 2772 891 
Q 2950 1147 3059 1487 
Q 3169 1828 3169 2138 
z
M 1381 2969 
Q 1594 3256 1914 3420 
Q 2234 3584 2584 3584 
Q 3122 3584 3439 3221 
Q 3756 2859 3756 2241 
Q 3756 1734 3570 1259 
Q 3384 784 3041 416 
Q 2816 172 2522 40 
Q 2228 -91 1906 -91 
Q 1566 -91 1316 65 
Q 1066 222 909 531 
L 806 0 
L 231 0 
L 1178 4863 
L 1753 4863 
L 1381 2969 
z
" transform="scale(0.015625)"/>
     </defs>
     <use xlink:href="#DejaVuSans-Oblique-56" transform="translate(0 0.09375)"/>
     <use xlink:href="#DejaVuSans-Oblique-62" transform="translate(68.408203 -16.3125) scale(0.7)"/>
    </g>
   </g>
   <g id="patch_24">
    <path d="M 239.235 117.397656 
C 239.951048 117.397656 240.637866 117.113167 241.144188 116.606845 
C 241.650511 116.100522 241.935 115.413705 241.935 114.697656 
C 241.935 113.981608 241.650511 113.294791 241.144188 112.788468 
C 240.637866 112.282145 239.951048 111.997656 239.235 111.997656 
C 238.518952 111.997656 237.832134 112.282145 237.325812 112.788468 
C 236.819489 113.294791 236.535 113.981608 236.535 114.697656 
C 236.535 115.413705 236.819489 116.100522 237.325812 116.606845 
C 237.832134 117.113167 238.518952 117.397656 239.235 117.397656 
z
" clip-path="url(#pe546f42ace)" style="fill: #ffffff; stroke: #000000; stroke-width: 2; stroke-linejoin: miter"/>
   </g>
   <g id="text_4">
    <!-- $V_{+}$ -->
    <g transform="translate(231.11 105.798047) scale(0.125 -0.125)">
     <defs>
      <path id="DejaVuSans-2b" d="M 2944 4013 
L 2944 2272 
L 4684 2272 
L 4684 1741 
L 2944 1741 
L 2944 0 
L 2419 0 
L 2419 1741 
L 678 1741 
L 678 2272 
L 2419 2272 
L 2419 4013 
L 2944 4013 
z
" transform="scale(0.015625)"/>
     </defs>
     <use xlink:href="#DejaVuSans-Oblique-56" transform="translate(0 0.09375)"/>
     <use xlink:href="#DejaVuSans-2b" transform="translate(68.408203 -16.3125) scale(0.7)"/>
    </g>
   </g>
   <g id="patch_25">
    <path d="M 86.835 117.397656 
C 87.551048 117.397656 88.237866 117.113167 88.744188 116.606845 
C 89.250511 116.100522 89.535 115.413705 89.535 114.697656 
C 89.535 113.981608 89.250511 113.294791 88.744188 112.788468 
C 88.237866 112.282145 87.551048 111.997656 86.835 111.997656 
C 86.118952 111.997656 85.432134 112.282145 84.925812 112.788468 
C 84.419489 113.294791 84.135 113.981608 84.135 114.697656 
C 84.135 115.413705 84.419489 116.100522 84.925812 116.606845 
C 85.432134 117.113167 86.118952 117.397656 86.835 117.397656 
z
" clip-path="url(#pe546f42ace)" style="fill: #ffffff; stroke: #000000; stroke-width: 2; stroke-linejoin: miter"/>
   </g>
   <g id="text_5">
    <!-- $V_{-}$ -->
    <g transform="translate(78.71 105.798047) scale(0.125 -0.125)">
     <defs>
      <path id="DejaVuSans-2212" d="M 678 2272 
L 4684 2272 
L 4684 1741 
L 678 1741 
L 678 2272 
z
" transform="scale(0.015625)"/>
     </defs>
     <use xlink:href="#DejaVuSans-Oblique-56" transform="translate(0 0.09375)"/>
     <use xlink:href="#DejaVuSans-2212" transform="translate(68.408203 -16.3125) scale(0.7)"/>
    </g>
   </g>
  </g>
 </g>
 <defs>
  <clipPath id="pe546f42ace">
   <rect x="3.6" y="7.975656" width="339.57" height="249.084"/>
  </clipPath>
 </defs>
</svg>