<?xml version="1.0" encoding="utf-8" standalone="no"?>
<!DOCTYPE svg PUBLIC "-//W3C//DTD SVG 1.1//EN"
  "http://www.w3.org/Graphics/SVG/1.1/DTD/svg11.dtd">
<svg xmlns:xlink="http://www.w3.org/1999/xlink" width="201.028452pt" height="242.2pt" viewBox="0 0 201.028452 242.2" xmlns="http://www.w3.org/2000/svg" version="1.1">
 <metadata>
  <rdf:RDF xmlns:dc="http://purl.org/dc/elements/1.1/" xmlns:cc="http://creativecommons.org/ns#" xmlns:rdf="http://www.w3.org/1999/02/22-rdf-syntax-ns#">
   <cc:Work>
    <dc:type rdf:resource="http://purl.org/dc/dcmitype/StillImage"/>
    <dc:date>2022-11-04T22:27:55.935614</dc:date>
    <dc:format>image/svg+xml</dc:format>
    <dc:creator>
     <cc:Agent>
      <dc:title>Matplotlib v3.5.3, https://matplotlib.org/</dc:title>
     </cc:Agent>
    </dc:creator>
   </cc:Work>
  </rdf:RDF>
 </metadata>
 <defs>
  <style type="text/css">*{stroke-linejoin: round; stroke-linecap: butt}</style>
 </defs>
 <g id="figure_1">
  <g id="patch_1">
   <path d="M 0 242.2 
L 201.028452 242.2 
L 201.028452 0 
L 0 0 
z
" style="fill: #ffffff"/>
  </g>
  <g id="axes_1">
   <g id="line2d_1">
    <path d="M 58.454052 191.038 
L 69.674052 191.038 
" clip-path="url(#p127552520c)" style="fill: none; stroke: #000000; stroke-width: 2; stroke-linecap: round"/>
   </g>
   <g id="line2d_2">
    <path d="M 69.674052 179.818 
L 69.674052 202.258 
" clip-path="url(#p127552520c)" style="fill: none; stroke: #000000; stroke-width: 2; stroke-linecap: round"/>
   </g>
   <g id="line2d_3">
    <path d="M 69.674052 185.428 
L 81.455052 175.33 
L 81.455052 169.72 
" clip-path="url(#p127552520c)" style="fill: none; stroke: #000000; stroke-width: 2; stroke-linecap: round"/>
   </g>
   <g id="line2d_4">
    <path d="M 69.674052 196.648 
L 81.455052 206.746 
L 81.455052 212.356 
" clip-path="url(#p127552520c)" style="fill: none; stroke: #000000; stroke-width: 2; stroke-linecap: round"/>
   </g>
   <g id="line2d_5">
    <path d="M 69.674052 196.648 
L 75.646739 201.767446 
" clip-path="url(#p127552520c)" style="fill: none; stroke: #000000; stroke-width: 2; stroke-linecap: round"/>
   </g>
   <g id="patch_2">
    <path d="M 77.63816 199.444121 
L 81.455052 206.746 
L 73.655317 204.090771 
z
" clip-path="url(#p127552520c)"/>
   </g>
   <g id="line2d_6">
    <path d="M 81.455052 212.356 
L 81.455052 224.596 
L 73.805052 224.596 
L 89.105052 224.596 
M 76.100052 228.268 
L 86.810052 228.268 
M 79.925052 231.94 
L 82.985052 231.94 
" clip-path="url(#p127552520c)" style="fill: none; stroke: #000000; stroke-width: 2; stroke-linecap: round"/>
   </g>
   <g id="line2d_7">
    <path d="M 81.455052 169.72 
L 81.455052 158.245 
L 81.455052 146.77 
" clip-path="url(#p127552520c)" style="fill: none; stroke: #000000; stroke-width: 2; stroke-linecap: round"/>
   </g>
   <g id="line2d_8">
    <path d="M 81.455052 146.77 
L 81.455052 103.624 
M 73.805052 103.624 
L 89.105052 103.624 
M 73.805052 98.116 
L 89.105052 98.116 
M 81.455052 98.116 
L 81.455052 54.97 
" clip-path="url(#p127552520c)" style="fill: none; stroke: #000000; stroke-width: 2; stroke-linecap: round"/>
   </g>
   <g id="line2d_9">
    <path d="M 81.455052 146.77 
L 62.330052 146.77 
L 43.205052 146.77 
" clip-path="url(#p127552520c)" style="fill: none; stroke: #000000; stroke-width: 2; stroke-linecap: round"/>
   </g>
   <g id="line2d_10">
    <path d="M 43.205052 146.77 
L 43.205052 116.17 
L 40.685493 116.056041 
L 38.143211 115.709504 
L 35.791422 115.138099 
L 33.827369 114.368393 
L 32.415771 113.443585 
L 31.956253 112.940198 
L 31.67502 112.419883 
L 31.578 111.890924 
L 31.667239 111.361788 
L 31.940855 110.840943 
L 32.393082 110.336686 
L 33.014386 109.85696 
L 34.708557 109.000145 
L 36.881282 108.321003 
L 39.350336 107.855138 
L 41.908644 107.620266 
L 44.341644 107.61473 
L 46.445285 107.81764 
L 48.043138 108.190624 
L 49.001192 108.681044 
L 49.212872 108.951011 
L 49.239098 109.226415 
L 49.079319 109.498767 
L 48.736903 109.759643 
L 47.536724 110.214652 
L 45.73922 110.531925 
L 43.495143 110.663499 
L 40.992702 110.576984 
L 38.441772 110.258281 
L 36.056296 109.712764 
L 34.03634 108.96483 
L 32.551315 108.055852 
L 32.05039 107.557713 
L 31.725767 107.040709 
L 31.584287 106.513054 
L 31.628934 105.983186 
L 31.858765 105.45959 
L 32.268937 104.950619 
L 32.850804 104.464319 
L 34.477202 103.589358 
L 36.601556 102.886733 
L 39.045701 102.394018 
L 41.604648 102.131181 
L 44.063784 102.09891 
L 46.216864 102.278558 
L 47.883313 102.633703 
L 48.923368 103.113204 
L 49.178954 103.380618 
L 49.249802 103.655491 
L 49.134418 103.929347 
L 48.835236 104.193729 
L 47.71444 104.661421 
L 45.981414 104.997988 
L 43.781503 105.153848 
L 41.299211 105.094574 
L 38.742724 104.803782 
L 36.32645 104.284506 
L 34.253039 103.558941 
L 32.696384 102.666585 
L 32.15466 102.174144 
L 31.78704 101.660923 
L 31.601272 101.135056 
L 31.601272 100.604944 
L 31.78704 100.079077 
L 32.15466 99.565856 
L 32.696384 99.073415 
L 34.253039 98.181059 
L 36.32645 97.455494 
L 38.742724 96.936218 
L 41.299211 96.645426 
L 43.781503 96.586152 
L 45.981414 96.742012 
L 47.71444 97.078579 
L 48.835236 97.546271 
L 49.134418 97.810653 
L 49.249802 98.084509 
L 49.178954 98.359382 
L 48.923368 98.626796 
L 47.883313 99.106297 
L 46.216864 99.461442 
L 44.063784 99.64109 
L 41.604648 99.608819 
L 39.045701 99.345982 
L 36.601556 98.853267 
L 34.477202 98.150642 
L 32.850804 97.275681 
L 32.268937 96.789381 
L 31.858765 96.28041 
L 31.628934 95.756814 
L 31.584287 95.226946 
L 31.725767 94.699291 
L 32.05039 94.182287 
L 32.551315 93.684148 
L 33.217982 93.212691 
L 34.989139 92.378123 
L 37.215317 91.727221 
L 39.70981 91.29322 
L 42.263408 91.091166 
L 44.661945 91.116647 
L 46.70426 91.346174 
L 48.219066 91.73914 
L 49.079319 92.241233 
L 49.239098 92.513585 
L 49.212872 92.788989 
L 49.001192 93.058956 
L 48.608522 93.315113 
L 47.316957 93.754125 
L 45.446497 94.047851 
L 43.154015 94.150302 
L 40.631779 94.031529 
L 38.091324 93.680141 
L 35.745714 93.104251 
L 33.791673 92.330805 
L 32.393082 91.403314 
L 31.940855 90.899057 
L 31.667239 90.378212 
L 31.578 89.849076 
L 31.67502 89.320117 
L 31.956253 88.799802 
L 32.415771 88.296415 
L 33.04389 87.817882 
L 34.749693 86.964313 
L 36.930599 86.289327 
L 39.403699 85.828179 
L 41.961577 85.598191 
L 43.205052 85.57 
L 43.205052 54.97 
L 43.205052 54.97 
" clip-path="url(#p127552520c)" style="fill: none; stroke: #000000; stroke-width: 2; stroke-linecap: round"/>
   </g>
   <g id="line2d_11">
    <path d="M 81.455052 146.77 
L 100.580052 146.77 
L 119.705052 146.77 
" clip-path="url(#p127552520c)" style="fill: none; stroke: #000000; stroke-width: 2; stroke-linecap: round"/>
   </g>
   <g id="line2d_12">
    <path d="M 119.705052 146.77 
L 119.705052 116.17 
L 112.055052 113.62 
L 127.355052 108.52 
L 112.055052 103.42 
L 127.355052 98.32 
L 112.055052 93.22 
L 127.355052 88.12 
L 119.705052 85.57 
L 119.705052 54.97 
" clip-path="url(#p127552520c)" style="fill: none; stroke: #000000; stroke-width: 2; stroke-linecap: round"/>
   </g>
   <g id="line2d_13">
    <path d="M 119.705052 146.77 
L 127.355052 146.77 
L 135.005052 146.77 
" clip-path="url(#p127552520c)" style="fill: none; stroke: #000000; stroke-width: 2; stroke-linecap: round"/>
   </g>
   <g id="line2d_14">
    <path d="M 119.705052 54.97 
L 127.355052 54.97 
L 135.005052 54.97 
" clip-path="url(#p127552520c)" style="fill: none; stroke: #000000; stroke-width: 2; stroke-linecap: round"/>
   </g>
   <g id="line2d_15">
    <path d="M 119.705052 54.97 
L 100.580052 54.97 
L 81.455052 54.97 
" clip-path="url(#p127552520c)" style="fill: none; stroke: #000000; stroke-width: 2; stroke-linecap: round"/>
   </g>
   <g id="line2d_16">
    <path d="M 43.205052 54.97 
L 62.330052 54.97 
L 81.455052 54.97 
" clip-path="url(#p127552520c)" style="fill: none; stroke: #000000; stroke-width: 2; stroke-linecap: round"/>
   </g>
   <g id="line2d_17">
    <path d="M 81.455052 54.97 
L 81.455052 51.145 
L 81.455052 47.32 
" clip-path="url(#p127552520c)" style="fill: none; stroke: #000000; stroke-width: 2; stroke-linecap: round"/>
   </g>
   <g id="line2d_18">
    <path d="M 81.455052 47.32 
L 81.455052 35.08 
" clip-path="url(#p127552520c)" style="fill: none; stroke: #000000; stroke-width: 2; stroke-linecap: round"/>
   </g>
   <g id="line2d_19">
    <path d="M 81.455052 35.08 
L 75.717552 35.08 
" clip-path="url(#p127552520c)" style="fill: none; stroke: #000000; stroke-width: 2; stroke-linecap: round"/>
   </g>
   <g id="line2d_20">
    <path d="M 81.455052 35.08 
L 87.192552 35.08 
" clip-path="url(#p127552520c)" style="fill: none; stroke: #000000; stroke-width: 2; stroke-linecap: round"/>
   </g>
   <g id="text_1">
    <g clip-path="url(#p127552520c)">
     <!-- $I_{in}$ -->
     <g transform="translate(43.269052 194.742219)scale(0.125 -0.125)">
      <defs>
       <path id="DejaVuSans-Oblique-49" d="M 1081 4666 
L 1716 4666 
L 806 0 
L 172 0 
L 1081 4666 
z
" transform="scale(0.015625)"/>
       <path id="DejaVuSans-Oblique-69" d="M 1172 4863 
L 1747 4863 
L 1606 4134 
L 1031 4134 
L 1172 4863 
z
M 909 3500 
L 1484 3500 
L 800 0 
L 225 0 
L 909 3500 
z
" transform="scale(0.015625)"/>
       <path id="DejaVuSans-Oblique-6e" d="M 3566 2113 
L 3156 0 
L 2578 0 
L 2988 2091 
Q 3016 2238 3031 2350 
Q 3047 2463 3047 2528 
Q 3047 2791 2881 2937 
Q 2716 3084 2419 3084 
Q 1956 3084 1622 2776 
Q 1288 2469 1184 1941 
L 800 0 
L 225 0 
L 903 3500 
L 1478 3500 
L 1363 2950 
Q 1603 3253 1940 3418 
Q 2278 3584 2650 3584 
Q 3113 3584 3367 3334 
Q 3622 3084 3622 2631 
Q 3622 2519 3608 2391 
Q 3594 2263 3566 2113 
z
" transform="scale(0.015625)"/>
      </defs>
      <use xlink:href="#DejaVuSans-Oblique-49" transform="translate(0 0.09375)"/>
      <use xlink:href="#DejaVuSans-Oblique-69" transform="translate(29.492188 -16.3125)scale(0.7)"/>
      <use xlink:href="#DejaVuSans-Oblique-6e" transform="translate(48.94043 -16.3125)scale(0.7)"/>
     </g>
    </g>
   </g>
   <g id="text_2">
    <g clip-path="url(#p127552520c)">
     <!-- $C_1$ -->
     <g transform="translate(55.995052 104.319219)scale(0.125 -0.125)">
      <defs>
       <path id="DejaVuSans-Oblique-43" d="M 4447 4306 
L 4319 3641 
Q 4019 3944 3683 4091 
Q 3347 4238 2956 4238 
Q 2422 4238 2017 3981 
Q 1613 3725 1319 3200 
Q 1131 2863 1032 2486 
Q 934 2109 934 1728 
Q 934 1091 1264 756 
Q 1594 422 2222 422 
Q 2656 422 3056 561 
Q 3456 700 3834 978 
L 3688 231 
Q 3316 72 2936 -9 
Q 2556 -91 2175 -91 
Q 1278 -91 773 396 
Q 269 884 269 1753 
Q 269 2309 461 2846 
Q 653 3384 1013 3828 
Q 1394 4300 1883 4525 
Q 2372 4750 3022 4750 
Q 3422 4750 3780 4639 
Q 4138 4528 4447 4306 
z
" transform="scale(0.015625)"/>
       <path id="DejaVuSans-31" d="M 794 531 
L 1825 531 
L 1825 4091 
L 703 3866 
L 703 4441 
L 1819 4666 
L 2450 4666 
L 2450 531 
L 3481 531 
L 3481 0 
L 794 0 
L 794 531 
z
" transform="scale(0.015625)"/>
      </defs>
      <use xlink:href="#DejaVuSans-Oblique-43" transform="translate(0 0.78125)"/>
      <use xlink:href="#DejaVuSans-31" transform="translate(69.824219 -15.625)scale(0.7)"/>
     </g>
    </g>
   </g>
   <g id="text_3">
    <g clip-path="url(#p127552520c)">
     <!-- $L_1$ -->
     <g transform="translate(15.643 104.319219)scale(0.125 -0.125)">
      <defs>
       <path id="DejaVuSans-Oblique-4c" d="M 1075 4666 
L 1709 4666 
L 909 525 
L 3181 525 
L 3078 0 
L 172 0 
L 1075 4666 
z
" transform="scale(0.015625)"/>
      </defs>
      <use xlink:href="#DejaVuSans-Oblique-4c" transform="translate(0 0.09375)"/>
      <use xlink:href="#DejaVuSans-31" transform="translate(55.712891 -16.3125)scale(0.7)"/>
     </g>
    </g>
   </g>
   <g id="text_4">
    <g clip-path="url(#p127552520c)">
     <!-- $R_L$ -->
     <g transform="translate(94.995052 104.319219)scale(0.125 -0.125)">
      <defs>
       <path id="DejaVuSans-Oblique-52" d="M 1613 4147 
L 1294 2491 
L 2106 2491 
Q 2584 2491 2879 2755 
Q 3175 3019 3175 3444 
Q 3175 3784 2976 3965 
Q 2778 4147 2406 4147 
L 1613 4147 
z
M 2772 2241 
Q 2972 2194 3105 2009 
Q 3238 1825 3413 1275 
L 3809 0 
L 3144 0 
L 2778 1197 
Q 2638 1659 2453 1815 
Q 2269 1972 1888 1972 
L 1191 1972 
L 806 0 
L 172 0 
L 1081 4666 
L 2503 4666 
Q 3150 4666 3495 4373 
Q 3841 4081 3841 3531 
Q 3841 3044 3547 2687 
Q 3253 2331 2772 2241 
z
" transform="scale(0.015625)"/>
      </defs>
      <use xlink:href="#DejaVuSans-Oblique-52" transform="translate(0 0.09375)"/>
      <use xlink:href="#DejaVuSans-Oblique-4c" transform="translate(69.482422 -16.3125)scale(0.7)"/>
     </g>
    </g>
   </g>
   <g id="text_5">
    <g clip-path="url(#p127552520c)">
     <!-- $V_{dd}$ -->
     <g transform="translate(71.392552 29.420391)scale(0.125 -0.125)">
      <defs>
       <path id="DejaVuSans-Oblique-56" d="M 1319 0 
L 500 4666 
L 1119 4666 
L 1797 653 
L 4063 4666 
L 4750 4666 
L 2053 0 
L 1319 0 
z
" transform="scale(0.015625)"/>
       <path id="DejaVuSans-Oblique-64" d="M 2675 525 
Q 2444 222 2128 65 
Q 1813 -91 1428 -91 
Q 903 -91 598 267 
Q 294 625 294 1247 
Q 294 1766 478 2236 
Q 663 2706 1013 3078 
Q 1244 3325 1534 3454 
Q 1825 3584 2144 3584 
Q 2481 3584 2739 3421 
Q 2997 3259 3138 2956 
L 3513 4863 
L 4091 4863 
L 3144 0 
L 2566 0 
L 2675 525 
z
M 891 1350 
Q 891 897 1095 644 
Q 1300 391 1663 391 
Q 1931 391 2161 520 
Q 2391 650 2566 903 
Q 2750 1166 2856 1509 
Q 2963 1853 2963 2188 
Q 2963 2622 2758 2865 
Q 2553 3109 2194 3109 
Q 1922 3109 1687 2981 
Q 1453 2853 1288 2613 
Q 1106 2353 998 2009 
Q 891 1666 891 1350 
z
" transform="scale(0.015625)"/>
      </defs>
      <use xlink:href="#DejaVuSans-Oblique-56" transform="translate(0 0.09375)"/>
      <use xlink:href="#DejaVuSans-Oblique-64" transform="translate(68.408203 -16.3125)scale(0.7)"/>
      <use xlink:href="#DejaVuSans-Oblique-64" transform="translate(112.841797 -16.3125)scale(0.7)"/>
     </g>
    </g>
   </g>
   <g id="text_6">
    <g clip-path="url(#p127552520c)">
     <!-- - -->
     <g transform="translate(163.350169 127.269219)scale(0.125 -0.125)">
      <defs>
       <path id="DejaVuSans-2d" d="M 313 2009 
L 1997 2009 
L 1997 1497 
L 313 1497 
L 313 2009 
z
" transform="scale(0.015625)"/>
      </defs>
      <use xlink:href="#DejaVuSans-2d"/>
     </g>
    </g>
   </g>
   <g id="text_7">
    <g clip-path="url(#p127552520c)">
     <!-- $v_{out}$ -->
     <g transform="translate(154.542552 104.319219)scale(0.125 -0.125)">
      <defs>
       <path id="DejaVuSans-Oblique-76" d="M 459 3500 
L 1069 3500 
L 1581 525 
L 3256 3500 
L 3866 3500 
L 1875 0 
L 1100 0 
L 459 3500 
z
" transform="scale(0.015625)"/>
       <path id="DejaVuSans-Oblique-6f" d="M 1625 -91 
Q 1009 -91 651 289 
Q 294 669 294 1325 
Q 294 1706 417 2101 
Q 541 2497 738 2766 
Q 1047 3184 1428 3384 
Q 1809 3584 2291 3584 
Q 2888 3584 3255 3212 
Q 3622 2841 3622 2241 
Q 3622 1825 3500 1412 
Q 3378 1000 3181 728 
Q 2875 309 2494 109 
Q 2113 -91 1625 -91 
z
M 891 1344 
Q 891 869 1089 633 
Q 1288 397 1691 397 
Q 2269 397 2648 901 
Q 3028 1406 3028 2181 
Q 3028 2634 2825 2865 
Q 2622 3097 2228 3097 
Q 1903 3097 1650 2945 
Q 1397 2794 1197 2484 
Q 1050 2253 970 1956 
Q 891 1659 891 1344 
z
" transform="scale(0.015625)"/>
       <path id="DejaVuSans-Oblique-75" d="M 428 1388 
L 838 3500 
L 1416 3500 
L 1006 1409 
Q 975 1256 961 1147 
Q 947 1038 947 966 
Q 947 700 1109 554 
Q 1272 409 1569 409 
Q 2031 409 2368 721 
Q 2706 1034 2809 1563 
L 3194 3500 
L 3769 3500 
L 3091 0 
L 2516 0 
L 2631 550 
Q 2388 244 2052 76 
Q 1716 -91 1338 -91 
Q 878 -91 622 161 
Q 366 413 366 863 
Q 366 956 381 1097 
Q 397 1238 428 1388 
z
" transform="scale(0.015625)"/>
       <path id="DejaVuSans-Oblique-74" d="M 2706 3500 
L 2619 3053 
L 1472 3053 
L 1100 1153 
Q 1081 1047 1072 975 
Q 1063 903 1063 863 
Q 1063 663 1183 572 
Q 1303 481 1569 481 
L 2150 481 
L 2053 0 
L 1503 0 
Q 991 0 739 200 
Q 488 400 488 806 
Q 488 878 497 964 
Q 506 1050 525 1153 
L 897 3053 
L 409 3053 
L 500 3500 
L 978 3500 
L 1172 4494 
L 1747 4494 
L 1556 3500 
L 2706 3500 
z
" transform="scale(0.015625)"/>
      </defs>
      <use xlink:href="#DejaVuSans-Oblique-76" transform="translate(0 0.3125)"/>
      <use xlink:href="#DejaVuSans-Oblique-6f" transform="translate(59.179688 -16.09375)scale(0.7)"/>
      <use xlink:href="#DejaVuSans-Oblique-75" transform="translate(102.006836 -16.09375)scale(0.7)"/>
      <use xlink:href="#DejaVuSans-Oblique-74" transform="translate(146.37207 -16.09375)scale(0.7)"/>
     </g>
    </g>
   </g>
   <g id="text_8">
    <g clip-path="url(#p127552520c)">
     <!-- $+$ -->
     <g transform="translate(160.355052 81.369219)scale(0.125 -0.125)">
      <defs>
       <path id="DejaVuSans-2b" d="M 2944 4013 
L 2944 2272 
L 4684 2272 
L 4684 1741 
L 2944 1741 
L 2944 0 
L 2419 0 
L 2419 1741 
L 678 1741 
L 678 2272 
L 2419 2272 
L 2419 4013 
L 2944 4013 
z
" transform="scale(0.015625)"/>
      </defs>
      <use xlink:href="#DejaVuSans-2b" transform="translate(0 0.296875)"/>
     </g>
    </g>
   </g>
   <g id="patch_3">
    <path d="M 58.454052 193.333 
C 59.062693 193.333 59.646488 193.091184 60.076862 192.66081 
C 60.507236 192.230436 60.749052 191.646641 60.749052 191.038 
C 60.749052 190.429359 60.507236 189.845564 60.076862 189.41519 
C 59.646488 188.984816 59.062693 188.743 58.454052 188.743 
C 57.845411 188.743 57.261616 188.984816 56.831242 189.41519 
C 56.400867 189.845564 56.159052 190.429359 56.159052 191.038 
C 56.159052 191.646641 56.400867 192.230436 56.831242 192.66081 
C 57.261616 193.091184 57.845411 193.333 58.454052 193.333 
z
" clip-path="url(#p127552520c)" style="fill: #ffffff; stroke: #000000; stroke-width: 2; stroke-linejoin: miter"/>
   </g>
   <g id="patch_4">
    <path d="M 81.455052 149.065 
C 82.063693 149.065 82.647488 148.823184 83.077862 148.39281 
C 83.508236 147.962436 83.750052 147.378641 83.750052 146.77 
C 83.750052 146.161359 83.508236 145.577564 83.077862 145.14719 
C 82.647488 144.716816 82.063693 144.475 81.455052 144.475 
C 80.846411 144.475 80.262616 144.716816 79.832242 145.14719 
C 79.401867 145.577564 79.160052 146.161359 79.160052 146.77 
C 79.160052 147.378641 79.401867 147.962436 79.832242 148.39281 
C 80.262616 148.823184 80.846411 149.065 81.455052 149.065 
z
" clip-path="url(#p127552520c)" style="stroke: #000000; stroke-width: 2; stroke-linejoin: miter"/>
   </g>
   <g id="patch_5">
    <path d="M 135.005052 149.065 
C 135.613693 149.065 136.197488 148.823184 136.627862 148.39281 
C 137.058236 147.962436 137.300052 147.378641 137.300052 146.77 
C 137.300052 146.161359 137.058236 145.577564 136.627862 145.14719 
C 136.197488 144.716816 135.613693 144.475 135.005052 144.475 
C 134.396411 144.475 133.812616 144.716816 133.382242 145.14719 
C 132.951867 145.577564 132.710052 146.161359 132.710052 146.77 
C 132.710052 147.378641 132.951867 147.962436 133.382242 148.39281 
C 133.812616 148.823184 134.396411 149.065 135.005052 149.065 
z
" clip-path="url(#p127552520c)" style="fill: #ffffff; stroke: #000000; stroke-width: 2; stroke-linejoin: miter"/>
   </g>
   <g id="patch_6">
    <path d="M 135.005052 57.265 
C 135.613693 57.265 136.197488 57.023184 136.627862 56.59281 
C 137.058236 56.162436 137.300052 55.578641 137.300052 54.97 
C 137.300052 54.361359 137.058236 53.777564 136.627862 53.34719 
C 136.197488 52.916816 135.613693 52.675 135.005052 52.675 
C 134.396411 52.675 133.812616 52.916816 133.382242 53.34719 
C 132.951867 53.777564 132.710052 54.361359 132.710052 54.97 
C 132.710052 55.578641 132.951867 56.162436 133.382242 56.59281 
C 133.812616 57.023184 134.396411 57.265 135.005052 57.265 
z
" clip-path="url(#p127552520c)" style="fill: #ffffff; stroke: #000000; stroke-width: 2; stroke-linejoin: miter"/>
   </g>
   <g id="patch_7">
    <path d="M 81.455052 57.265 
C 82.063693 57.265 82.647488 57.023184 83.077862 56.59281 
C 83.508236 56.162436 83.750052 55.578641 83.750052 54.97 
C 83.750052 54.361359 83.508236 53.777564 83.077862 53.34719 
C 82.647488 52.916816 82.063693 52.675 81.455052 52.675 
C 80.846411 52.675 80.262616 52.916816 79.832242 53.34719 
C 79.401867 53.777564 79.160052 54.361359 79.160052 54.97 
C 79.160052 55.578641 79.401867 56.162436 79.832242 56.59281 
C 80.262616 57.023184 80.846411 57.265 81.455052 57.265 
z
" clip-path="url(#p127552520c)" style="stroke: #000000; stroke-width: 2; stroke-linejoin: miter"/>
   </g>
  </g>
 </g>
 <defs>
  <clipPath id="p127552520c">
   <rect x="7.2" y="7.2" width="186.628452" height="227.8"/>
  </clipPath>
 </defs>
</svg>