<?xml version="1.0" encoding="utf-8" standalone="no"?>
<!DOCTYPE svg PUBLIC "-//W3C//DTD SVG 1.1//EN"
  "http://www.w3.org/Graphics/SVG/1.1/DTD/svg11.dtd">
<svg xmlns:xlink="http://www.w3.org/1999/xlink" width="372.3375pt" height="289.009656pt" viewBox="0 0 372.3375 289.009656" xmlns="http://www.w3.org/2000/svg" version="1.1">
 <metadata>
  <rdf:RDF xmlns:dc="http://purl.org/dc/elements/1.1/" xmlns:cc="http://creativecommons.org/ns#" xmlns:rdf="http://www.w3.org/1999/02/22-rdf-syntax-ns#">
   <cc:Work>
    <dc:type rdf:resource="http://purl.org/dc/dcmitype/StillImage"/>
    <dc:date>2023-09-26T15:35:17.928632</dc:date>
    <dc:format>image/svg+xml</dc:format>
    <dc:creator>
     <cc:Agent>
      <dc:title>Matplotlib v3.6.3, https://matplotlib.org/</dc:title>
     </cc:Agent>
    </dc:creator>
   </cc:Work>
  </rdf:RDF>
 </metadata>
 <defs>
  <style type="text/css">*{stroke-linejoin: round; stroke-linecap: butt}</style>
 </defs>
 <g id="figure_1">
  <g id="patch_1">
   <path d="M 0 289.009656 
L 372.3375 289.009656 
L 372.3375 0 
L 0 0 
z
" style="fill: #ffffff"/>
  </g>
  <g id="axes_1">
   <g id="line2d_1">
    <path d="M 109.275 33.697656 
L 109.275 19.297656 
" clip-path="url(#pf0b92920d9)" style="fill: none; stroke: #000000; stroke-width: 2; stroke-linecap: round"/>
   </g>
   <g id="line2d_2">
    <path d="M 109.275 19.297656 
L 102.525 19.297656 
" clip-path="url(#pf0b92920d9)" style="fill: none; stroke: #000000; stroke-width: 2; stroke-linecap: round"/>
   </g>
   <g id="line2d_3">
    <path d="M 109.275 19.297656 
L 116.025 19.297656 
" clip-path="url(#pf0b92920d9)" style="fill: none; stroke: #000000; stroke-width: 2; stroke-linecap: round"/>
   </g>
   <g id="line2d_4">
    <path d="M 109.275 33.697656 
L 109.275 69.697656 
L 112.239187 69.831726 
L 115.230107 70.239416 
L 117.996917 70.911657 
L 120.307568 71.817194 
L 121.229308 72.342224 
L 121.968271 72.905203 
L 122.508881 73.497424 
L 122.839744 74.109559 
L 122.953884 74.731863 
L 122.848898 75.354376 
L 122.526996 75.967135 
L 121.994965 76.560379 
L 121.264018 77.124762 
L 120.349564 77.651544 
L 118.050691 78.561481 
L 115.29115 79.238998 
L 112.30238 79.652397 
L 109.335043 79.792129 
L 106.638006 79.671599 
L 104.437465 79.326039 
L 102.917976 78.809554 
L 102.456011 78.508193 
L 102.206977 78.190584 
L 102.176122 77.86658 
L 102.364097 77.546166 
L 102.76694 77.239253 
L 104.178915 76.703949 
L 106.293626 76.330686 
L 108.933716 76.175893 
L 111.877764 76.277675 
L 114.878858 76.65262 
L 117.6853 77.294404 
L 120.061719 78.174327 
L 121.024494 78.689058 
L 121.808808 79.243713 
L 122.398131 79.829759 
L 122.780041 80.437999 
L 122.946487 81.058769 
L 122.893962 81.682144 
L 122.623572 82.298139 
L 122.141017 82.896928 
L 121.456468 83.469046 
L 120.584355 84.005591 
L 118.354529 84.940277 
L 115.638553 85.647717 
L 112.664211 86.093702 
L 109.680956 86.265953 
L 106.93899 86.175146 
L 104.668277 85.854021 
L 103.059258 85.354633 
L 102.547569 85.058593 
L 102.24688 84.743988 
L 102.163529 84.420608 
L 102.299275 84.098425 
L 102.651254 83.787387 
L 103.212048 83.497208 
L 104.908648 83.015884 
L 107.246782 82.719945 
L 110.030355 82.659334 
L 113.025913 82.864258 
L 115.982224 83.342654 
L 118.651345 84.079522 
L 120.809422 85.038187 
L 121.638138 85.584027 
L 122.27546 86.163369 
L 122.707955 86.767159 
L 122.926505 87.385826 
L 122.926505 88.009487 
L 122.707955 88.628154 
L 122.27546 89.231943 
L 121.638138 89.811285 
L 120.809422 90.357126 
L 119.80678 90.861116 
L 117.367473 91.714722 
L 114.524798 92.325635 
L 111.517165 92.667743 
L 108.596822 92.737478 
L 106.008691 92.554113 
L 103.969837 92.158152 
L 102.651254 91.607926 
L 102.299275 91.296888 
L 102.163529 90.974705 
L 102.24688 90.651324 
L 102.547569 90.33672 
L 103.059258 90.04068 
L 104.668277 89.541292 
L 106.93899 89.220166 
L 109.680956 89.129359 
L 112.664211 89.30161 
L 115.638553 89.747596 
L 118.354529 90.455036 
L 120.584355 91.389721 
L 121.456468 91.926267 
L 122.141017 92.498385 
L 122.623572 93.097174 
L 122.893962 93.713169 
L 122.946487 94.336543 
L 122.780041 94.957314 
L 122.398131 95.565554 
L 121.808808 96.151599 
L 121.024494 96.706255 
L 120.061719 97.220986 
L 117.6853 98.100908 
L 114.878858 98.742693 
L 111.877764 99.117638 
L 108.933716 99.21942 
L 106.293626 99.064627 
L 104.178915 98.691364 
L 102.76694 98.15606 
L 102.364097 97.849147 
L 102.176122 97.528733 
L 102.206977 97.204728 
L 102.456011 96.88712 
L 102.917976 96.585759 
L 104.437465 96.069274 
L 106.638006 95.723714 
L 109.335043 95.603184 
L 112.30238 95.742916 
L 115.29115 96.156314 
L 118.050691 96.833831 
L 120.349564 97.743768 
L 121.264018 98.270551 
L 121.994965 98.834934 
L 122.526996 99.428178 
L 122.848898 100.040936 
L 122.953884 100.66345 
L 122.839744 101.285754 
L 122.508881 101.897889 
L 121.968271 102.490109 
L 121.229308 103.053089 
L 120.307568 103.578118 
L 117.996917 104.483655 
L 115.230107 105.155897 
L 112.239187 105.563587 
L 109.275 105.697656 
L 109.275 141.697656 
L 109.275 141.697656 
" clip-path="url(#pf0b92920d9)" style="fill: none; stroke: #000000; stroke-width: 2; stroke-linecap: round"/>
   </g>
   <g id="line2d_5">
    <path d="M 109.275 141.697656 
L 160.035 141.697656 
M 160.035 132.697656 
L 160.035 150.697656 
M 166.515 132.697656 
L 166.515 150.697656 
M 166.515 141.697656 
L 217.275 141.697656 
" clip-path="url(#pf0b92920d9)" style="fill: none; stroke: #000000; stroke-width: 2; stroke-linecap: round"/>
   </g>
   <g id="line2d_6">
    <path d="M 217.275 141.697656 
L 253.275 141.697656 
L 253.40907 138.73347 
L 253.81676 135.742549 
L 254.489001 132.975739 
L 255.394538 130.665088 
L 255.919567 129.743348 
L 256.482547 129.004385 
L 257.074767 128.463775 
L 257.686902 128.132913 
L 258.309207 128.018772 
L 258.93172 128.123759 
L 259.544478 128.44566 
L 260.137723 128.977691 
L 260.702106 129.708638 
L 261.228888 130.623093 
L 262.138825 132.921965 
L 262.816342 135.681506 
L 263.22974 138.670276 
L 263.369472 141.637613 
L 263.248942 144.33465 
L 262.903382 146.535191 
L 262.386898 148.05468 
L 262.085537 148.516645 
L 261.767928 148.76568 
L 261.443923 148.796535 
L 261.123509 148.608559 
L 260.816597 148.205716 
L 260.281292 146.793742 
L 259.908029 144.67903 
L 259.753236 142.038941 
L 259.855019 139.094892 
L 260.229963 136.093798 
L 260.871748 133.287356 
L 261.751671 130.910937 
L 262.266402 129.948163 
L 262.821057 129.163848 
L 263.407102 128.574525 
L 264.015342 128.192615 
L 264.636113 128.026169 
L 265.259487 128.078694 
L 265.875482 128.349084 
L 266.474271 128.831639 
L 267.04639 129.516188 
L 267.582935 130.388302 
L 268.517621 132.618127 
L 269.22506 135.334103 
L 269.671046 138.308445 
L 269.843297 141.2917 
L 269.75249 144.033666 
L 269.431365 146.304379 
L 268.931977 147.913398 
L 268.635936 148.425087 
L 268.321332 148.725776 
L 267.997952 148.809127 
L 267.675768 148.673382 
L 267.364731 148.321403 
L 267.074551 147.760608 
L 266.593228 146.064009 
L 266.297289 143.725874 
L 266.236678 140.942301 
L 266.441602 137.946743 
L 266.919998 134.990432 
L 267.656866 132.321311 
L 268.615531 130.163234 
L 269.161371 129.334518 
L 269.740713 128.697196 
L 270.344502 128.264701 
L 270.963169 128.046151 
L 271.586831 128.046151 
L 272.205498 128.264701 
L 272.809287 128.697196 
L 273.388629 129.334518 
L 273.934469 130.163234 
L 274.43846 131.165876 
L 275.292065 133.605184 
L 275.902979 136.447859 
L 276.245087 139.455491 
L 276.314821 142.375834 
L 276.131457 144.963965 
L 275.735496 147.002819 
L 275.185269 148.321403 
L 274.874232 148.673382 
L 274.552048 148.809127 
L 274.228668 148.725776 
L 273.914064 148.425087 
L 273.618023 147.913398 
L 273.118635 146.304379 
L 272.79751 144.033666 
L 272.706703 141.2917 
L 272.878954 138.308445 
L 273.32494 135.334103 
L 274.032379 132.618127 
L 274.967065 130.388302 
L 275.50361 129.516188 
L 276.075729 128.831639 
L 276.674518 128.349084 
L 277.290513 128.078694 
L 277.913887 128.026169 
L 278.534658 128.192615 
L 279.142898 128.574525 
L 279.728943 129.163848 
L 280.283598 129.948163 
L 280.798329 130.910937 
L 281.678252 133.287356 
L 282.320037 136.093798 
L 282.694981 139.094892 
L 282.796764 142.038941 
L 282.641971 144.67903 
L 282.268708 146.793742 
L 281.733403 148.205716 
L 281.426491 148.608559 
L 281.106077 148.796535 
L 280.782072 148.76568 
L 280.464463 148.516645 
L 280.163102 148.05468 
L 279.646618 146.535191 
L 279.301058 144.33465 
L 279.180528 141.637613 
L 279.32026 138.670276 
L 279.733658 135.681506 
L 280.411175 132.921965 
L 281.321112 130.623093 
L 281.847894 129.708638 
L 282.412277 128.977691 
L 283.005522 128.44566 
L 283.61828 128.123759 
L 284.240793 128.018772 
L 284.863098 128.132913 
L 285.475233 128.463775 
L 286.067453 129.004385 
L 286.630433 129.743348 
L 287.155462 130.665088 
L 288.060999 132.975739 
L 288.73324 135.742549 
L 289.14093 138.73347 
L 289.275 141.697656 
L 325.275 141.697656 
L 325.275 141.697656 
" clip-path="url(#pf0b92920d9)" style="fill: none; stroke: #000000; stroke-width: 2; stroke-linecap: round"/>
   </g>
   <g id="line2d_7">
    <path d="M 325.275 141.697656 
L 325.275 177.697656 
L 334.275 180.697656 
L 316.275 186.697656 
L 334.275 192.697656 
L 316.275 198.697656 
L 334.275 204.697656 
L 316.275 210.697656 
L 325.275 213.697656 
L 325.275 249.697656 
" clip-path="url(#pf0b92920d9)" style="fill: none; stroke: #000000; stroke-width: 2; stroke-linecap: round"/>
   </g>
   <g id="line2d_8">
    <path d="M 325.275 141.697656 
L 334.275 141.697656 
L 343.275 141.697656 
" clip-path="url(#pf0b92920d9)" style="fill: none; stroke: #000000; stroke-width: 2; stroke-linecap: round"/>
   </g>
   <g id="line2d_9">
    <path d="M 325.275 249.697656 
L 334.275 249.697656 
L 343.275 249.697656 
" clip-path="url(#pf0b92920d9)" style="fill: none; stroke: #000000; stroke-width: 2; stroke-linecap: round"/>
   </g>
   <g id="line2d_10">
    <path d="M 343.275 249.697656 
L 226.275 249.697656 
L 109.275 249.697656 
" clip-path="url(#pf0b92920d9)" style="fill: none; stroke: #000000; stroke-width: 2; stroke-linecap: round"/>
   </g>
   <g id="line2d_11">
    <path d="M 109.275 249.697656 
L 109.275 198.937656 
M 100.275 198.937656 
L 118.275 198.937656 
M 100.275 192.457656 
L 118.275 192.457656 
M 109.275 192.457656 
L 109.275 141.697656 
" clip-path="url(#pf0b92920d9)" style="fill: none; stroke: #000000; stroke-width: 2; stroke-linecap: round"/>
   </g>
   <g id="line2d_12">
    <path d="M 109.275 249.697656 
L 109.275 264.097656 
L 100.275 264.097656 
L 118.275 264.097656 
M 102.975 268.417656 
L 115.575 268.417656 
M 107.475 272.737656 
L 111.075 272.737656 
" clip-path="url(#pf0b92920d9)" style="fill: none; stroke: #000000; stroke-width: 2; stroke-linecap: round"/>
   </g>
   <g id="line2d_13">
    <path d="M 109.275 249.697656 
L 91.275 249.697656 
L 73.275 249.697656 
" clip-path="url(#pf0b92920d9)" style="fill: none; stroke: #000000; stroke-width: 2; stroke-linecap: round"/>
   </g>
   <g id="line2d_14">
    <path d="M 73.275 249.697656 
L 73.275 234.697656 
L 49.275 234.697656 
L 49.275 210.697656 
L 73.275 210.697656 
L 73.275 195.697656 
" clip-path="url(#pf0b92920d9)" style="fill: none; stroke: #000000; stroke-width: 2; stroke-linecap: round"/>
   </g>
   <g id="line2d_15">
    <path d="M 43.275 234.697656 
L 43.275 210.697656 
" clip-path="url(#pf0b92920d9)" style="fill: none; stroke: #000000; stroke-width: 2; stroke-linecap: round"/>
   </g>
   <g id="line2d_16">
    <path d="M 43.275 222.697656 
L 24.075 222.697656 
" clip-path="url(#pf0b92920d9)" style="fill: none; stroke: #000000; stroke-width: 2; stroke-linecap: round"/>
   </g>
   <g id="line2d_17">
    <path d="M 73.275 195.697656 
L 73.275 168.697656 
L 73.275 141.697656 
" clip-path="url(#pf0b92920d9)" style="fill: none; stroke: #000000; stroke-width: 2; stroke-linecap: round"/>
   </g>
   <g id="line2d_18">
    <path d="M 73.275 141.697656 
L 91.275 141.697656 
L 109.275 141.697656 
" clip-path="url(#pf0b92920d9)" style="fill: none; stroke: #000000; stroke-width: 2; stroke-linecap: round"/>
   </g>
   <g id="text_1">
    <!-- $V_{dd}$ -->
    <g transform="translate(99.2125 13.098047) scale(0.125 -0.125)">
     <defs>
      <path id="DejaVuSans-Oblique-56" d="M 1319 0 
L 500 4666 
L 1119 4666 
L 1797 653 
L 4063 4666 
L 4750 4666 
L 2053 0 
L 1319 0 
z
" transform="scale(0.015625)"/>
      <path id="DejaVuSans-Oblique-64" d="M 2675 525 
Q 2444 222 2128 65 
Q 1813 -91 1428 -91 
Q 903 -91 598 267 
Q 294 625 294 1247 
Q 294 1766 478 2236 
Q 663 2706 1013 3078 
Q 1244 3325 1534 3454 
Q 1825 3584 2144 3584 
Q 2481 3584 2739 3421 
Q 2997 3259 3138 2956 
L 3513 4863 
L 4091 4863 
L 3144 0 
L 2566 0 
L 2675 525 
z
M 891 1350 
Q 891 897 1095 644 
Q 1300 391 1663 391 
Q 1931 391 2161 520 
Q 2391 650 2566 903 
Q 2750 1166 2856 1509 
Q 2963 1853 2963 2188 
Q 2963 2622 2758 2865 
Q 2553 3109 2194 3109 
Q 1922 3109 1687 2981 
Q 1453 2853 1288 2613 
Q 1106 2353 998 2009 
Q 891 1666 891 1350 
z
" transform="scale(0.015625)"/>
     </defs>
     <use xlink:href="#DejaVuSans-Oblique-56" transform="translate(0 0.09375)"/>
     <use xlink:href="#DejaVuSans-Oblique-64" transform="translate(68.408203 -16.3125) scale(0.7)"/>
     <use xlink:href="#DejaVuSans-Oblique-64" transform="translate(112.841797 -16.3125) scale(0.7)"/>
    </g>
   </g>
   <g id="text_2">
    <!-- 1000.00 uH -->
    <g transform="translate(25.577201 91.146875) scale(0.125 -0.125)">
     <defs>
      <path id="DejaVuSans-31" d="M 794 531 
L 1825 531 
L 1825 4091 
L 703 3866 
L 703 4441 
L 1819 4666 
L 2450 4666 
L 2450 531 
L 3481 531 
L 3481 0 
L 794 0 
L 794 531 
z
" transform="scale(0.015625)"/>
      <path id="DejaVuSans-30" d="M 2034 4250 
Q 1547 4250 1301 3770 
Q 1056 3291 1056 2328 
Q 1056 1369 1301 889 
Q 1547 409 2034 409 
Q 2525 409 2770 889 
Q 3016 1369 3016 2328 
Q 3016 3291 2770 3770 
Q 2525 4250 2034 4250 
z
M 2034 4750 
Q 2819 4750 3233 4129 
Q 3647 3509 3647 2328 
Q 3647 1150 3233 529 
Q 2819 -91 2034 -91 
Q 1250 -91 836 529 
Q 422 1150 422 2328 
Q 422 3509 836 4129 
Q 1250 4750 2034 4750 
z
" transform="scale(0.015625)"/>
      <path id="DejaVuSans-2e" d="M 684 794 
L 1344 794 
L 1344 0 
L 684 0 
L 684 794 
z
" transform="scale(0.015625)"/>
      <path id="DejaVuSans-20" transform="scale(0.015625)"/>
      <path id="DejaVuSans-75" d="M 544 1381 
L 544 3500 
L 1119 3500 
L 1119 1403 
Q 1119 906 1312 657 
Q 1506 409 1894 409 
Q 2359 409 2629 706 
Q 2900 1003 2900 1516 
L 2900 3500 
L 3475 3500 
L 3475 0 
L 2900 0 
L 2900 538 
Q 2691 219 2414 64 
Q 2138 -91 1772 -91 
Q 1169 -91 856 284 
Q 544 659 544 1381 
z
M 1991 3584 
L 1991 3584 
z
" transform="scale(0.015625)"/>
      <path id="DejaVuSans-48" d="M 628 4666 
L 1259 4666 
L 1259 2753 
L 3553 2753 
L 3553 4666 
L 4184 4666 
L 4184 0 
L 3553 0 
L 3553 2222 
L 1259 2222 
L 1259 0 
L 628 0 
L 628 4666 
z
" transform="scale(0.015625)"/>
     </defs>
     <use xlink:href="#DejaVuSans-31"/>
     <use xlink:href="#DejaVuSans-30" x="63.623047"/>
     <use xlink:href="#DejaVuSans-30" x="127.246094"/>
     <use xlink:href="#DejaVuSans-30" x="190.869141"/>
     <use xlink:href="#DejaVuSans-2e" x="254.492188"/>
     <use xlink:href="#DejaVuSans-30" x="286.279297"/>
     <use xlink:href="#DejaVuSans-30" x="349.902344"/>
     <use xlink:href="#DejaVuSans-20" x="413.525391"/>
     <use xlink:href="#DejaVuSans-75" x="445.3125"/>
     <use xlink:href="#DejaVuSans-48" x="508.691406"/>
    </g>
   </g>
   <g id="text_3">
    <!-- 6.04 nF -->
    <g transform="translate(139.816992 126.498047) scale(0.125 -0.125)">
     <defs>
      <path id="DejaVuSans-36" d="M 2113 2584 
Q 1688 2584 1439 2293 
Q 1191 2003 1191 1497 
Q 1191 994 1439 701 
Q 1688 409 2113 409 
Q 2538 409 2786 701 
Q 3034 994 3034 1497 
Q 3034 2003 2786 2293 
Q 2538 2584 2113 2584 
z
M 3366 4563 
L 3366 3988 
Q 3128 4100 2886 4159 
Q 2644 4219 2406 4219 
Q 1781 4219 1451 3797 
Q 1122 3375 1075 2522 
Q 1259 2794 1537 2939 
Q 1816 3084 2150 3084 
Q 2853 3084 3261 2657 
Q 3669 2231 3669 1497 
Q 3669 778 3244 343 
Q 2819 -91 2113 -91 
Q 1303 -91 875 529 
Q 447 1150 447 2328 
Q 447 3434 972 4092 
Q 1497 4750 2381 4750 
Q 2619 4750 2861 4703 
Q 3103 4656 3366 4563 
z
" transform="scale(0.015625)"/>
      <path id="DejaVuSans-34" d="M 2419 4116 
L 825 1625 
L 2419 1625 
L 2419 4116 
z
M 2253 4666 
L 3047 4666 
L 3047 1625 
L 3713 1625 
L 3713 1100 
L 3047 1100 
L 3047 0 
L 2419 0 
L 2419 1100 
L 313 1100 
L 313 1709 
L 2253 4666 
z
" transform="scale(0.015625)"/>
      <path id="DejaVuSans-6e" d="M 3513 2113 
L 3513 0 
L 2938 0 
L 2938 2094 
Q 2938 2591 2744 2837 
Q 2550 3084 2163 3084 
Q 1697 3084 1428 2787 
Q 1159 2491 1159 1978 
L 1159 0 
L 581 0 
L 581 3500 
L 1159 3500 
L 1159 2956 
Q 1366 3272 1645 3428 
Q 1925 3584 2291 3584 
Q 2894 3584 3203 3211 
Q 3513 2838 3513 2113 
z
" transform="scale(0.015625)"/>
      <path id="DejaVuSans-46" d="M 628 4666 
L 3309 4666 
L 3309 4134 
L 1259 4134 
L 1259 2759 
L 3109 2759 
L 3109 2228 
L 1259 2228 
L 1259 0 
L 628 0 
L 628 4666 
z
" transform="scale(0.015625)"/>
     </defs>
     <use xlink:href="#DejaVuSans-36"/>
     <use xlink:href="#DejaVuSans-2e" x="63.623047"/>
     <use xlink:href="#DejaVuSans-30" x="95.410156"/>
     <use xlink:href="#DejaVuSans-34" x="159.033203"/>
     <use xlink:href="#DejaVuSans-20" x="222.65625"/>
     <use xlink:href="#DejaVuSans-6e" x="254.443359"/>
     <use xlink:href="#DejaVuSans-46" x="317.822266"/>
    </g>
   </g>
   <g id="text_4">
    <!-- 24.93 uH -->
    <g transform="translate(242.734961 121.819162) scale(0.125 -0.125)">
     <defs>
      <path id="DejaVuSans-32" d="M 1228 531 
L 3431 531 
L 3431 0 
L 469 0 
L 469 531 
Q 828 903 1448 1529 
Q 2069 2156 2228 2338 
Q 2531 2678 2651 2914 
Q 2772 3150 2772 3378 
Q 2772 3750 2511 3984 
Q 2250 4219 1831 4219 
Q 1534 4219 1204 4116 
Q 875 4013 500 3803 
L 500 4441 
Q 881 4594 1212 4672 
Q 1544 4750 1819 4750 
Q 2544 4750 2975 4387 
Q 3406 4025 3406 3419 
Q 3406 3131 3298 2873 
Q 3191 2616 2906 2266 
Q 2828 2175 2409 1742 
Q 1991 1309 1228 531 
z
" transform="scale(0.015625)"/>
      <path id="DejaVuSans-39" d="M 703 97 
L 703 672 
Q 941 559 1184 500 
Q 1428 441 1663 441 
Q 2288 441 2617 861 
Q 2947 1281 2994 2138 
Q 2813 1869 2534 1725 
Q 2256 1581 1919 1581 
Q 1219 1581 811 2004 
Q 403 2428 403 3163 
Q 403 3881 828 4315 
Q 1253 4750 1959 4750 
Q 2769 4750 3195 4129 
Q 3622 3509 3622 2328 
Q 3622 1225 3098 567 
Q 2575 -91 1691 -91 
Q 1453 -91 1209 -44 
Q 966 3 703 97 
z
M 1959 2075 
Q 2384 2075 2632 2365 
Q 2881 2656 2881 3163 
Q 2881 3666 2632 3958 
Q 2384 4250 1959 4250 
Q 1534 4250 1286 3958 
Q 1038 3666 1038 3163 
Q 1038 2656 1286 2365 
Q 1534 2075 1959 2075 
z
" transform="scale(0.015625)"/>
      <path id="DejaVuSans-33" d="M 2597 2516 
Q 3050 2419 3304 2112 
Q 3559 1806 3559 1356 
Q 3559 666 3084 287 
Q 2609 -91 1734 -91 
Q 1441 -91 1130 -33 
Q 819 25 488 141 
L 488 750 
Q 750 597 1062 519 
Q 1375 441 1716 441 
Q 2309 441 2620 675 
Q 2931 909 2931 1356 
Q 2931 1769 2642 2001 
Q 2353 2234 1838 2234 
L 1294 2234 
L 1294 2753 
L 1863 2753 
Q 2328 2753 2575 2939 
Q 2822 3125 2822 3475 
Q 2822 3834 2567 4026 
Q 2313 4219 1838 4219 
Q 1578 4219 1281 4162 
Q 984 4106 628 3988 
L 628 4550 
Q 988 4650 1302 4700 
Q 1616 4750 1894 4750 
Q 2613 4750 3031 4423 
Q 3450 4097 3450 3541 
Q 3450 3153 3228 2886 
Q 3006 2619 2597 2516 
z
" transform="scale(0.015625)"/>
     </defs>
     <use xlink:href="#DejaVuSans-32"/>
     <use xlink:href="#DejaVuSans-34" x="63.623047"/>
     <use xlink:href="#DejaVuSans-2e" x="127.246094"/>
     <use xlink:href="#DejaVuSans-39" x="159.033203"/>
     <use xlink:href="#DejaVuSans-33" x="222.65625"/>
     <use xlink:href="#DejaVuSans-20" x="286.279297"/>
     <use xlink:href="#DejaVuSans-75" x="318.066406"/>
     <use xlink:href="#DejaVuSans-48" x="381.445312"/>
    </g>
   </g>
   <g id="text_5">
    <!-- 14.88 Ohm -->
    <g transform="translate(242.979687 199.146875) scale(0.125 -0.125)">
     <defs>
      <path id="DejaVuSans-38" d="M 2034 2216 
Q 1584 2216 1326 1975 
Q 1069 1734 1069 1313 
Q 1069 891 1326 650 
Q 1584 409 2034 409 
Q 2484 409 2743 651 
Q 3003 894 3003 1313 
Q 3003 1734 2745 1975 
Q 2488 2216 2034 2216 
z
M 1403 2484 
Q 997 2584 770 2862 
Q 544 3141 544 3541 
Q 544 4100 942 4425 
Q 1341 4750 2034 4750 
Q 2731 4750 3128 4425 
Q 3525 4100 3525 3541 
Q 3525 3141 3298 2862 
Q 3072 2584 2669 2484 
Q 3125 2378 3379 2068 
Q 3634 1759 3634 1313 
Q 3634 634 3220 271 
Q 2806 -91 2034 -91 
Q 1263 -91 848 271 
Q 434 634 434 1313 
Q 434 1759 690 2068 
Q 947 2378 1403 2484 
z
M 1172 3481 
Q 1172 3119 1398 2916 
Q 1625 2713 2034 2713 
Q 2441 2713 2670 2916 
Q 2900 3119 2900 3481 
Q 2900 3844 2670 4047 
Q 2441 4250 2034 4250 
Q 1625 4250 1398 4047 
Q 1172 3844 1172 3481 
z
" transform="scale(0.015625)"/>
      <path id="DejaVuSans-4f" d="M 2522 4238 
Q 1834 4238 1429 3725 
Q 1025 3213 1025 2328 
Q 1025 1447 1429 934 
Q 1834 422 2522 422 
Q 3209 422 3611 934 
Q 4013 1447 4013 2328 
Q 4013 3213 3611 3725 
Q 3209 4238 2522 4238 
z
M 2522 4750 
Q 3503 4750 4090 4092 
Q 4678 3434 4678 2328 
Q 4678 1225 4090 567 
Q 3503 -91 2522 -91 
Q 1538 -91 948 565 
Q 359 1222 359 2328 
Q 359 3434 948 4092 
Q 1538 4750 2522 4750 
z
" transform="scale(0.015625)"/>
      <path id="DejaVuSans-68" d="M 3513 2113 
L 3513 0 
L 2938 0 
L 2938 2094 
Q 2938 2591 2744 2837 
Q 2550 3084 2163 3084 
Q 1697 3084 1428 2787 
Q 1159 2491 1159 1978 
L 1159 0 
L 581 0 
L 581 4863 
L 1159 4863 
L 1159 2956 
Q 1366 3272 1645 3428 
Q 1925 3584 2291 3584 
Q 2894 3584 3203 3211 
Q 3513 2838 3513 2113 
z
" transform="scale(0.015625)"/>
      <path id="DejaVuSans-6d" d="M 3328 2828 
Q 3544 3216 3844 3400 
Q 4144 3584 4550 3584 
Q 5097 3584 5394 3201 
Q 5691 2819 5691 2113 
L 5691 0 
L 5113 0 
L 5113 2094 
Q 5113 2597 4934 2840 
Q 4756 3084 4391 3084 
Q 3944 3084 3684 2787 
Q 3425 2491 3425 1978 
L 3425 0 
L 2847 0 
L 2847 2094 
Q 2847 2600 2669 2842 
Q 2491 3084 2119 3084 
Q 1678 3084 1418 2786 
Q 1159 2488 1159 1978 
L 1159 0 
L 581 0 
L 581 3500 
L 1159 3500 
L 1159 2956 
Q 1356 3278 1631 3431 
Q 1906 3584 2284 3584 
Q 2666 3584 2933 3390 
Q 3200 3197 3328 2828 
z
" transform="scale(0.015625)"/>
     </defs>
     <use xlink:href="#DejaVuSans-31"/>
     <use xlink:href="#DejaVuSans-34" x="63.623047"/>
     <use xlink:href="#DejaVuSans-2e" x="127.246094"/>
     <use xlink:href="#DejaVuSans-38" x="159.033203"/>
     <use xlink:href="#DejaVuSans-38" x="222.65625"/>
     <use xlink:href="#DejaVuSans-20" x="286.279297"/>
     <use xlink:href="#DejaVuSans-4f" x="318.066406"/>
     <use xlink:href="#DejaVuSans-68" x="396.777344"/>
     <use xlink:href="#DejaVuSans-6d" x="460.15625"/>
    </g>
   </g>
   <g id="text_6">
    <!-- + -->
    <g transform="translate(352.437695 172.146875) scale(0.125 -0.125)">
     <defs>
      <path id="DejaVuSans-2b" d="M 2944 4013 
L 2944 2272 
L 4684 2272 
L 4684 1741 
L 2944 1741 
L 2944 0 
L 2419 0 
L 2419 1741 
L 678 1741 
L 678 2272 
L 2419 2272 
L 2419 4013 
L 2944 4013 
z
" transform="scale(0.015625)"/>
     </defs>
     <use xlink:href="#DejaVuSans-2b"/>
    </g>
   </g>
   <g id="text_7">
    <!-- $v_{out}$ -->
    <g transform="translate(346.6125 199.146875) scale(0.125 -0.125)">
     <defs>
      <path id="DejaVuSans-Oblique-76" d="M 459 3500 
L 1069 3500 
L 1581 525 
L 3256 3500 
L 3866 3500 
L 1875 0 
L 1100 0 
L 459 3500 
z
" transform="scale(0.015625)"/>
      <path id="DejaVuSans-Oblique-6f" d="M 1625 -91 
Q 1009 -91 651 289 
Q 294 669 294 1325 
Q 294 1706 417 2101 
Q 541 2497 738 2766 
Q 1047 3184 1428 3384 
Q 1809 3584 2291 3584 
Q 2888 3584 3255 3212 
Q 3622 2841 3622 2241 
Q 3622 1825 3500 1412 
Q 3378 1000 3181 728 
Q 2875 309 2494 109 
Q 2113 -91 1625 -91 
z
M 891 1344 
Q 891 869 1089 633 
Q 1288 397 1691 397 
Q 2269 397 2648 901 
Q 3028 1406 3028 2181 
Q 3028 2634 2825 2865 
Q 2622 3097 2228 3097 
Q 1903 3097 1650 2945 
Q 1397 2794 1197 2484 
Q 1050 2253 970 1956 
Q 891 1659 891 1344 
z
" transform="scale(0.015625)"/>
      <path id="DejaVuSans-Oblique-75" d="M 428 1388 
L 838 3500 
L 1416 3500 
L 1006 1409 
Q 975 1256 961 1147 
Q 947 1038 947 966 
Q 947 700 1109 554 
Q 1272 409 1569 409 
Q 2031 409 2368 721 
Q 2706 1034 2809 1563 
L 3194 3500 
L 3769 3500 
L 3091 0 
L 2516 0 
L 2631 550 
Q 2388 244 2052 76 
Q 1716 -91 1338 -91 
Q 878 -91 622 161 
Q 366 413 366 863 
Q 366 956 381 1097 
Q 397 1238 428 1388 
z
" transform="scale(0.015625)"/>
      <path id="DejaVuSans-Oblique-74" d="M 2706 3500 
L 2619 3053 
L 1472 3053 
L 1100 1153 
Q 1081 1047 1072 975 
Q 1063 903 1063 863 
Q 1063 663 1183 572 
Q 1303 481 1569 481 
L 2150 481 
L 2053 0 
L 1503 0 
Q 991 0 739 200 
Q 488 400 488 806 
Q 488 878 497 964 
Q 506 1050 525 1153 
L 897 3053 
L 409 3053 
L 500 3500 
L 978 3500 
L 1172 4494 
L 1747 4494 
L 1556 3500 
L 2706 3500 
z
" transform="scale(0.015625)"/>
     </defs>
     <use xlink:href="#DejaVuSans-Oblique-76" transform="translate(0 0.3125)"/>
     <use xlink:href="#DejaVuSans-Oblique-6f" transform="translate(59.179688 -16.09375) scale(0.7)"/>
     <use xlink:href="#DejaVuSans-Oblique-75" transform="translate(102.006836 -16.09375) scale(0.7)"/>
     <use xlink:href="#DejaVuSans-Oblique-74" transform="translate(146.37207 -16.09375) scale(0.7)"/>
    </g>
   </g>
   <g id="text_8">
    <!-- $-$ -->
    <g transform="translate(352.425 226.146875) scale(0.125 -0.125)">
     <defs>
      <path id="DejaVuSans-2212" d="M 678 2272 
L 4684 2272 
L 4684 1741 
L 678 1741 
L 678 2272 
z
" transform="scale(0.015625)"/>
     </defs>
     <use xlink:href="#DejaVuSans-2212" transform="translate(0 0.5)"/>
    </g>
   </g>
   <g id="text_9">
    <!-- 4.78 nF -->
    <g transform="translate(121.875 199.146875) scale(0.125 -0.125)">
     <defs>
      <path id="DejaVuSans-37" d="M 525 4666 
L 3525 4666 
L 3525 4397 
L 1831 0 
L 1172 0 
L 2766 4134 
L 525 4134 
L 525 4666 
z
" transform="scale(0.015625)"/>
     </defs>
     <use xlink:href="#DejaVuSans-34"/>
     <use xlink:href="#DejaVuSans-2e" x="63.623047"/>
     <use xlink:href="#DejaVuSans-37" x="95.410156"/>
     <use xlink:href="#DejaVuSans-38" x="159.033203"/>
     <use xlink:href="#DejaVuSans-20" x="222.65625"/>
     <use xlink:href="#DejaVuSans-6e" x="254.443359"/>
     <use xlink:href="#DejaVuSans-46" x="317.822266"/>
    </g>
   </g>
   <g id="text_10">
    <!-- $V_{in}$ -->
    <g transform="translate(3.6 226.146875) scale(0.125 -0.125)">
     <defs>
      <path id="DejaVuSans-Oblique-69" d="M 1172 4863 
L 1747 4863 
L 1606 4134 
L 1031 4134 
L 1172 4863 
z
M 909 3500 
L 1484 3500 
L 800 0 
L 225 0 
L 909 3500 
z
" transform="scale(0.015625)"/>
      <path id="DejaVuSans-Oblique-6e" d="M 3566 2113 
L 3156 0 
L 2578 0 
L 2988 2091 
Q 3016 2238 3031 2350 
Q 3047 2463 3047 2528 
Q 3047 2791 2881 2937 
Q 2716 3084 2419 3084 
Q 1956 3084 1622 2776 
Q 1288 2469 1184 1941 
L 800 0 
L 225 0 
L 903 3500 
L 1478 3500 
L 1363 2950 
Q 1603 3253 1940 3418 
Q 2278 3584 2650 3584 
Q 3113 3584 3367 3334 
Q 3622 3084 3622 2631 
Q 3622 2519 3608 2391 
Q 3594 2263 3566 2113 
z
" transform="scale(0.015625)"/>
     </defs>
     <use xlink:href="#DejaVuSans-Oblique-56" transform="translate(0 0.09375)"/>
     <use xlink:href="#DejaVuSans-Oblique-69" transform="translate(68.408203 -16.3125) scale(0.7)"/>
     <use xlink:href="#DejaVuSans-Oblique-6e" transform="translate(87.856445 -16.3125) scale(0.7)"/>
    </g>
   </g>
   <g id="patch_2">
    <path d="M 109.275 144.397656 
C 109.991048 144.397656 110.677866 144.113167 111.184188 143.606845 
C 111.690511 143.100522 111.975 142.413705 111.975 141.697656 
C 111.975 140.981608 111.690511 140.294791 111.184188 139.788468 
C 110.677866 139.282145 109.991048 138.997656 109.275 138.997656 
C 108.558952 138.997656 107.872134 139.282145 107.365812 139.788468 
C 106.859489 140.294791 106.575 140.981608 106.575 141.697656 
C 106.575 142.413705 106.859489 143.100522 107.365812 143.606845 
C 107.872134 144.113167 108.558952 144.397656 109.275 144.397656 
z
" clip-path="url(#pf0b92920d9)" style="stroke: #000000; stroke-width: 2; stroke-linejoin: miter"/>
   </g>
   <g id="patch_3">
    <path d="M 343.275 144.397656 
C 343.991048 144.397656 344.677866 144.113167 345.184188 143.606845 
C 345.690511 143.100522 345.975 142.413705 345.975 141.697656 
C 345.975 140.981608 345.690511 140.294791 345.184188 139.788468 
C 344.677866 139.282145 343.991048 138.997656 343.275 138.997656 
C 342.558952 138.997656 341.872134 139.282145 341.365812 139.788468 
C 340.859489 140.294791 340.575 140.981608 340.575 141.697656 
C 340.575 142.413705 340.859489 143.100522 341.365812 143.606845 
C 341.872134 144.113167 342.558952 144.397656 343.275 144.397656 
z
" clip-path="url(#pf0b92920d9)" style="fill: #ffffff; stroke: #000000; stroke-width: 2; stroke-linejoin: miter"/>
   </g>
   <g id="patch_4">
    <path d="M 343.275 252.397656 
C 343.991048 252.397656 344.677866 252.113167 345.184188 251.606845 
C 345.690511 251.100522 345.975 250.413705 345.975 249.697656 
C 345.975 248.981608 345.690511 248.294791 345.184188 247.788468 
C 344.677866 247.282145 343.991048 246.997656 343.275 246.997656 
C 342.558952 246.997656 341.872134 247.282145 341.365812 247.788468 
C 340.859489 248.294791 340.575 248.981608 340.575 249.697656 
C 340.575 250.413705 340.859489 251.100522 341.365812 251.606845 
C 341.872134 252.113167 342.558952 252.397656 343.275 252.397656 
z
" clip-path="url(#pf0b92920d9)" style="fill: #ffffff; stroke: #000000; stroke-width: 2; stroke-linejoin: miter"/>
   </g>
   <g id="patch_5">
    <path d="M 109.275 252.397656 
C 109.991048 252.397656 110.677866 252.113167 111.184188 251.606845 
C 111.690511 251.100522 111.975 250.413705 111.975 249.697656 
C 111.975 248.981608 111.690511 248.294791 111.184188 247.788468 
C 110.677866 247.282145 109.991048 246.997656 109.275 246.997656 
C 108.558952 246.997656 107.872134 247.282145 107.365812 247.788468 
C 106.859489 248.294791 106.575 248.981608 106.575 249.697656 
C 106.575 250.413705 106.859489 251.100522 107.365812 251.606845 
C 107.872134 252.113167 108.558952 252.397656 109.275 252.397656 
z
" clip-path="url(#pf0b92920d9)" style="stroke: #000000; stroke-width: 2; stroke-linejoin: miter"/>
   </g>
   <g id="patch_6">
    <path d="M 24.075 225.397656 
C 24.791048 225.397656 25.477866 225.113167 25.984188 224.606845 
C 26.490511 224.100522 26.775 223.413705 26.775 222.697656 
C 26.775 221.981608 26.490511 221.294791 25.984188 220.788468 
C 25.477866 220.282145 24.791048 219.997656 24.075 219.997656 
C 23.358952 219.997656 22.672134 220.282145 22.165812 220.788468 
C 21.659489 221.294791 21.375 221.981608 21.375 222.697656 
C 21.375 223.413705 21.659489 224.100522 22.165812 224.606845 
C 22.672134 225.113167 23.358952 225.397656 24.075 225.397656 
z
" clip-path="url(#pf0b92920d9)" style="fill: #ffffff; stroke: #000000; stroke-width: 2; stroke-linejoin: miter"/>
   </g>
  </g>
 </g>
 <defs>
  <clipPath id="pf0b92920d9">
   <rect x="5.145" y="6.625656" width="357.06" height="278.784"/>
  </clipPath>
 </defs>
</svg>