<?xml version="1.0" encoding="utf-8" standalone="no"?>
<!DOCTYPE svg PUBLIC "-//W3C//DTD SVG 1.1//EN"
  "http://www.w3.org/Graphics/SVG/1.1/DTD/svg11.dtd">
<svg xmlns:xlink="http://www.w3.org/1999/xlink" width="239.31pt" height="151.062052pt" viewBox="0 0 239.31 151.062052" xmlns="http://www.w3.org/2000/svg" version="1.1">
 <metadata>
  <rdf:RDF xmlns:dc="http://purl.org/dc/elements/1.1/" xmlns:cc="http://creativecommons.org/ns#" xmlns:rdf="http://www.w3.org/1999/02/22-rdf-syntax-ns#">
   <cc:Work>
    <dc:type rdf:resource="http://purl.org/dc/dcmitype/StillImage"/>
    <dc:date>2022-09-18T17:22:45.483054</dc:date>
    <dc:format>image/svg+xml</dc:format>
    <dc:creator>
     <cc:Agent>
      <dc:title>Matplotlib v3.5.3, https://matplotlib.org/</dc:title>
     </cc:Agent>
    </dc:creator>
   </cc:Work>
  </rdf:RDF>
 </metadata>
 <defs>
  <style type="text/css">*{stroke-linejoin: round; stroke-linecap: butt}</style>
 </defs>
 <g id="figure_1">
  <g id="patch_1">
   <path d="M 0 151.062052 
L 239.31 151.062052 
L 239.31 0 
L 0 0 
z
" style="fill: #ffffff"/>
  </g>
  <g id="axes_1">
   <g id="line2d_1">
    <path d="M 12.555 46.707052 
L 35.505 46.707052 
L 35.618959 44.187493 
L 35.965496 41.645211 
L 36.536901 39.293422 
L 37.306607 37.329369 
L 38.231415 35.917771 
L 38.734802 35.458253 
L 39.255117 35.17702 
L 39.784076 35.08 
L 40.313212 35.169239 
L 40.834057 35.442855 
L 41.338314 35.895082 
L 41.81804 36.516386 
L 42.674855 38.210557 
L 43.353997 40.383282 
L 43.819862 42.852336 
L 44.054734 45.410644 
L 44.06027 47.843644 
L 43.85736 49.947285 
L 43.484376 51.545138 
L 42.993956 52.503192 
L 42.723989 52.714872 
L 42.448585 52.741098 
L 42.176233 52.581319 
L 41.915357 52.238903 
L 41.460348 51.038724 
L 41.143075 49.24122 
L 41.011501 46.997143 
L 41.098016 44.494702 
L 41.416719 41.943772 
L 41.962236 39.558296 
L 42.71017 37.53834 
L 43.619148 36.053315 
L 44.117287 35.55239 
L 44.634291 35.227767 
L 45.161946 35.086287 
L 45.691814 35.130934 
L 46.21541 35.360765 
L 46.724381 35.770937 
L 47.210681 36.352804 
L 48.085642 37.979202 
L 48.788267 40.103556 
L 49.280982 42.547701 
L 49.543819 45.106648 
L 49.57609 47.565784 
L 49.396442 49.718864 
L 49.041297 51.385313 
L 48.561796 52.425368 
L 48.294382 52.680954 
L 48.019509 52.751802 
L 47.745653 52.636418 
L 47.481271 52.337236 
L 47.013579 51.21644 
L 46.677012 49.483414 
L 46.521152 47.283503 
L 46.580426 44.801211 
L 46.871218 42.244724 
L 47.390494 39.82845 
L 48.116059 37.755039 
L 49.008415 36.198384 
L 49.500856 35.65666 
L 50.014077 35.28904 
L 50.539944 35.103272 
L 51.070056 35.103272 
L 51.595923 35.28904 
L 52.109144 35.65666 
L 52.601585 36.198384 
L 53.493941 37.755039 
L 54.219506 39.82845 
L 54.738782 42.244724 
L 55.029574 44.801211 
L 55.088848 47.283503 
L 54.932988 49.483414 
L 54.596421 51.21644 
L 54.128729 52.337236 
L 53.864347 52.636418 
L 53.590491 52.751802 
L 53.315618 52.680954 
L 53.048204 52.425368 
L 52.568703 51.385313 
L 52.213558 49.718864 
L 52.03391 47.565784 
L 52.066181 45.106648 
L 52.329018 42.547701 
L 52.821733 40.103556 
L 53.524358 37.979202 
L 54.399319 36.352804 
L 54.885619 35.770937 
L 55.39459 35.360765 
L 55.918186 35.130934 
L 56.448054 35.086287 
L 56.975709 35.227767 
L 57.492713 35.55239 
L 57.990852 36.053315 
L 58.462309 36.719982 
L 59.296877 38.491139 
L 59.947779 40.717317 
L 60.38178 43.21181 
L 60.583834 45.765408 
L 60.558353 48.163945 
L 60.328826 50.20626 
L 59.93586 51.721066 
L 59.433767 52.581319 
L 59.161415 52.741098 
L 58.886011 52.714872 
L 58.616044 52.503192 
L 58.359887 52.110522 
L 57.920875 50.818957 
L 57.627149 48.948497 
L 57.524698 46.656015 
L 57.643471 44.133779 
L 57.994859 41.593324 
L 58.570749 39.247714 
L 59.344195 37.293673 
L 60.271686 35.895082 
L 60.775943 35.442855 
L 61.296788 35.169239 
L 61.825924 35.08 
L 62.354883 35.17702 
L 62.875198 35.458253 
L 63.378585 35.917771 
L 63.857118 36.54589 
L 64.710687 38.251693 
L 65.385673 40.432599 
L 65.846821 42.905699 
L 66.076809 45.463577 
L 66.105 46.707052 
L 89.055 46.707052 
L 89.055 46.707052 
" clip-path="url(#p9717899e5d)" style="fill: none; stroke: #000000; stroke-width: 2; stroke-linecap: round"/>
   </g>
   <g id="line2d_2">
    <path d="M 89.055 46.707052 
L 104.355 46.707052 
L 106.905 39.057052 
L 112.005 54.357052 
L 117.105 39.057052 
L 122.205 54.357052 
L 127.305 39.057052 
L 132.405 54.357052 
L 134.955 46.707052 
L 150.255 46.707052 
" clip-path="url(#p9717899e5d)" style="fill: none; stroke: #000000; stroke-width: 2; stroke-linecap: round"/>
   </g>
   <g id="line2d_3">
    <path d="M 150.255 46.707052 
L 150.255 89.853052 
M 157.905 89.853052 
L 142.605 89.853052 
M 157.905 95.361052 
L 142.605 95.361052 
M 150.255 95.361052 
L 150.255 138.507052 
" clip-path="url(#p9717899e5d)" style="fill: none; stroke: #000000; stroke-width: 2; stroke-linecap: round"/>
   </g>
   <g id="line2d_4">
    <path d="M 150.255 46.707052 
L 165.555 46.707052 
L 180.855 46.707052 
" clip-path="url(#p9717899e5d)" style="fill: none; stroke: #000000; stroke-width: 2; stroke-linecap: round"/>
   </g>
   <g id="line2d_5">
    <path d="M 180.855 46.707052 
L 180.855 77.307052 
L 188.505 79.857052 
L 173.205 84.957052 
L 188.505 90.057052 
L 173.205 95.157052 
L 188.505 100.257052 
L 173.205 105.357052 
L 180.855 107.907052 
L 180.855 138.507052 
" clip-path="url(#p9717899e5d)" style="fill: none; stroke: #000000; stroke-width: 2; stroke-linecap: round"/>
   </g>
   <g id="line2d_6">
    <path d="M 180.855 138.507052 
L 96.705 138.507052 
L 12.555 138.507052 
" clip-path="url(#p9717899e5d)" style="fill: none; stroke: #000000; stroke-width: 2; stroke-linecap: round"/>
   </g>
   <g id="line2d_7">
    <path d="M 180.855 138.507052 
L 203.805 138.507052 
L 226.755 138.507052 
" clip-path="url(#p9717899e5d)" style="fill: none; stroke: #000000; stroke-width: 2; stroke-linecap: round"/>
   </g>
   <g id="line2d_8">
    <path d="M 180.855 46.707052 
L 203.805 46.707052 
L 226.755 46.707052 
" clip-path="url(#p9717899e5d)" style="fill: none; stroke: #000000; stroke-width: 2; stroke-linecap: round"/>
   </g>
   <g id="text_1">
    <g clip-path="url(#p9717899e5d)">
     <!-- L -->
     <g transform="translate(47.322578 29.420391)scale(0.125 -0.125)">
      <defs>
       <path id="DejaVuSans-4c" d="M 628 4666 
L 1259 4666 
L 1259 531 
L 3531 531 
L 3531 0 
L 628 0 
L 628 4666 
z
" transform="scale(0.015625)"/>
      </defs>
      <use xlink:href="#DejaVuSans-4c"/>
     </g>
    </g>
   </g>
   <g id="text_2">
    <g clip-path="url(#p9717899e5d)">
     <!-- R -->
     <g transform="translate(115.312227 33.397442)scale(0.125 -0.125)">
      <defs>
       <path id="DejaVuSans-52" d="M 2841 2188 
Q 3044 2119 3236 1894 
Q 3428 1669 3622 1275 
L 4263 0 
L 3584 0 
L 2988 1197 
Q 2756 1666 2539 1819 
Q 2322 1972 1947 1972 
L 1259 1972 
L 1259 0 
L 628 0 
L 628 4666 
L 2053 4666 
Q 2853 4666 3247 4331 
Q 3641 3997 3641 3322 
Q 3641 2881 3436 2590 
Q 3231 2300 2841 2188 
z
M 1259 4147 
L 1259 2491 
L 2053 2491 
Q 2509 2491 2742 2702 
Q 2975 2913 2975 3322 
Q 2975 3731 2742 3939 
Q 2509 4147 2053 4147 
L 1259 4147 
z
" transform="scale(0.015625)"/>
      </defs>
      <use xlink:href="#DejaVuSans-52"/>
     </g>
    </g>
   </g>
   <g id="text_3">
    <g clip-path="url(#p9717899e5d)">
     <!-- C -->
     <g transform="translate(130.816484 96.056271)scale(0.125 -0.125)">
      <defs>
       <path id="DejaVuSans-43" d="M 4122 4306 
L 4122 3641 
Q 3803 3938 3442 4084 
Q 3081 4231 2675 4231 
Q 1875 4231 1450 3742 
Q 1025 3253 1025 2328 
Q 1025 1406 1450 917 
Q 1875 428 2675 428 
Q 3081 428 3442 575 
Q 3803 722 4122 1019 
L 4122 359 
Q 3791 134 3420 21 
Q 3050 -91 2638 -91 
Q 1578 -91 968 557 
Q 359 1206 359 2328 
Q 359 3453 968 4101 
Q 1578 4750 2638 4750 
Q 3056 4750 3426 4639 
Q 3797 4528 4122 4306 
z
" transform="scale(0.015625)"/>
      </defs>
      <use xlink:href="#DejaVuSans-43"/>
     </g>
    </g>
   </g>
   <g id="text_4">
    <g clip-path="url(#p9717899e5d)">
     <!-- g -->
     <g transform="translate(162.209453 96.056271)scale(0.125 -0.125)">
      <defs>
       <path id="DejaVuSans-67" d="M 2906 1791 
Q 2906 2416 2648 2759 
Q 2391 3103 1925 3103 
Q 1463 3103 1205 2759 
Q 947 2416 947 1791 
Q 947 1169 1205 825 
Q 1463 481 1925 481 
Q 2391 481 2648 825 
Q 2906 1169 2906 1791 
z
M 3481 434 
Q 3481 -459 3084 -895 
Q 2688 -1331 1869 -1331 
Q 1566 -1331 1297 -1286 
Q 1028 -1241 775 -1147 
L 775 -588 
Q 1028 -725 1275 -790 
Q 1522 -856 1778 -856 
Q 2344 -856 2625 -561 
Q 2906 -266 2906 331 
L 2906 616 
Q 2728 306 2450 153 
Q 2172 0 1784 0 
Q 1141 0 747 490 
Q 353 981 353 1791 
Q 353 2603 747 3093 
Q 1141 3584 1784 3584 
Q 2172 3584 2450 3431 
Q 2728 3278 2906 2969 
L 2906 3500 
L 3481 3500 
L 3481 434 
z
" transform="scale(0.015625)"/>
      </defs>
      <use xlink:href="#DejaVuSans-67"/>
     </g>
    </g>
   </g>
   <g id="patch_2">
    <path d="M 12.555 49.002052 
C 13.163641 49.002052 13.747436 48.760236 14.17781 48.329862 
C 14.608184 47.899488 14.85 47.315693 14.85 46.707052 
C 14.85 46.098411 14.608184 45.514616 14.17781 45.084242 
C 13.747436 44.653867 13.163641 44.412052 12.555 44.412052 
C 11.946359 44.412052 11.362564 44.653867 10.93219 45.084242 
C 10.501816 45.514616 10.26 46.098411 10.26 46.707052 
C 10.26 47.315693 10.501816 47.899488 10.93219 48.329862 
C 11.362564 48.760236 11.946359 49.002052 12.555 49.002052 
z
" clip-path="url(#p9717899e5d)" style="stroke: #000000; stroke-width: 2; stroke-linejoin: miter"/>
   </g>
   <g id="patch_3">
    <path d="M 12.555 140.802052 
C 13.163641 140.802052 13.747436 140.560236 14.17781 140.129862 
C 14.608184 139.699488 14.85 139.115693 14.85 138.507052 
C 14.85 137.898411 14.608184 137.314616 14.17781 136.884242 
C 13.747436 136.453867 13.163641 136.212052 12.555 136.212052 
C 11.946359 136.212052 11.362564 136.453867 10.93219 136.884242 
C 10.501816 137.314616 10.26 137.898411 10.26 138.507052 
C 10.26 139.115693 10.501816 139.699488 10.93219 140.129862 
C 11.362564 140.560236 11.946359 140.802052 12.555 140.802052 
z
" clip-path="url(#p9717899e5d)" style="stroke: #000000; stroke-width: 2; stroke-linejoin: miter"/>
   </g>
   <g id="patch_4">
    <path d="M 226.755 140.802052 
C 227.363641 140.802052 227.947436 140.560236 228.37781 140.129862 
C 228.808184 139.699488 229.05 139.115693 229.05 138.507052 
C 229.05 137.898411 228.808184 137.314616 228.37781 136.884242 
C 227.947436 136.453867 227.363641 136.212052 226.755 136.212052 
C 226.146359 136.212052 225.562564 136.453867 225.13219 136.884242 
C 224.701816 137.314616 224.46 137.898411 224.46 138.507052 
C 224.46 139.115693 224.701816 139.699488 225.13219 140.129862 
C 225.562564 140.560236 226.146359 140.802052 226.755 140.802052 
z
" clip-path="url(#p9717899e5d)" style="stroke: #000000; stroke-width: 2; stroke-linejoin: miter"/>
   </g>
   <g id="patch_5">
    <path d="M 226.755 49.002052 
C 227.363641 49.002052 227.947436 48.760236 228.37781 48.329862 
C 228.808184 47.899488 229.05 47.315693 229.05 46.707052 
C 229.05 46.098411 228.808184 45.514616 228.37781 45.084242 
C 227.947436 44.653867 227.363641 44.412052 226.755 44.412052 
C 226.146359 44.412052 225.562564 44.653867 225.13219 45.084242 
C 224.701816 45.514616 224.46 46.098411 224.46 46.707052 
C 224.46 47.315693 224.701816 47.899488 225.13219 48.329862 
C 225.562564 48.760236 226.146359 49.002052 226.755 49.002052 
z
" clip-path="url(#p9717899e5d)" style="stroke: #000000; stroke-width: 2; stroke-linejoin: miter"/>
   </g>
  </g>
 </g>
 <defs>
  <clipPath id="p9717899e5d">
   <rect x="7.2" y="7.2" width="224.91" height="136.662052"/>
  </clipPath>
 </defs>
</svg>