<?xml version="1.0" encoding="utf-8" standalone="no"?>
<!DOCTYPE svg PUBLIC "-//W3C//DTD SVG 1.1//EN"
  "http://www.w3.org/Graphics/SVG/1.1/DTD/svg11.dtd">
<svg xmlns:xlink="http://www.w3.org/1999/xlink" width="301.272pt" height="280.4pt" viewBox="0 0 301.272 280.4" xmlns="http://www.w3.org/2000/svg" version="1.1">
 <metadata>
  <rdf:RDF xmlns:dc="http://purl.org/dc/elements/1.1/" xmlns:cc="http://creativecommons.org/ns#" xmlns:rdf="http://www.w3.org/1999/02/22-rdf-syntax-ns#">
   <cc:Work>
    <dc:type rdf:resource="http://purl.org/dc/dcmitype/StillImage"/>
    <dc:date>2025-10-11T22:04:01.189123</dc:date>
    <dc:format>image/svg+xml</dc:format>
    <dc:creator>
     <cc:Agent>
      <dc:title>Matplotlib v3.10.6, https://matplotlib.org/</dc:title>
     </cc:Agent>
    </dc:creator>
   </cc:Work>
  </rdf:RDF>
 </metadata>
 <defs>
  <style type="text/css">*{stroke-linejoin: round; stroke-linecap: butt}</style>
 </defs>
 <g id="figure_1">
  <g id="patch_1">
   <path d="M 0 280.4 
L 301.272 280.4 
L 301.272 0 
L 0 0 
z
" style="fill: #ffffff"/>
  </g>
  <g id="axes_1">
   <g id="line2d_1">
    <path d="M 32.988 36.68 
L 32.988 22.28 
" clip-path="url(#p8bd25e5b1c)" style="fill: none; stroke: #000000; stroke-width: 2; stroke-linecap: round"/>
   </g>
   <g id="line2d_2">
    <path d="M 32.988 22.28 
L 26.238 22.28 
" clip-path="url(#p8bd25e5b1c)" style="fill: none; stroke: #000000; stroke-width: 2; stroke-linecap: round"/>
   </g>
   <g id="line2d_3">
    <path d="M 32.988 22.28 
L 39.738 22.28 
" clip-path="url(#p8bd25e5b1c)" style="fill: none; stroke: #000000; stroke-width: 2; stroke-linecap: round"/>
   </g>
   <g id="line2d_4">
    <path d="M 32.988 36.68 
L 32.988 72.68 
L 35.952187 72.81407 
L 38.943107 73.22176 
L 41.709917 73.894001 
L 44.020568 74.799538 
L 44.942308 75.324567 
L 45.681271 75.887547 
L 46.221881 76.479767 
L 46.552744 77.091902 
L 46.666884 77.714207 
L 46.561898 78.33672 
L 46.239996 78.949478 
L 45.707965 79.542723 
L 44.977018 80.107106 
L 44.062564 80.633888 
L 41.763691 81.543825 
L 39.00415 82.221342 
L 36.01538 82.63474 
L 33.048043 82.774472 
L 30.351006 82.653942 
L 28.150465 82.308382 
L 26.630976 81.791898 
L 26.169011 81.490537 
L 25.919977 81.172928 
L 25.889122 80.848923 
L 26.077097 80.528509 
L 26.47994 80.221597 
L 27.891915 79.686292 
L 30.006626 79.313029 
L 32.646716 79.158236 
L 35.590764 79.260019 
L 38.591858 79.634963 
L 41.3983 80.276748 
L 43.774719 81.156671 
L 44.737494 81.671402 
L 45.521808 82.226057 
L 46.111131 82.812102 
L 46.493041 83.420342 
L 46.659487 84.041113 
L 46.606962 84.664487 
L 46.336572 85.280482 
L 45.854017 85.879271 
L 45.169468 86.45139 
L 44.297355 86.987935 
L 42.067529 87.922621 
L 39.351553 88.63006 
L 36.377211 89.076046 
L 33.393956 89.248297 
L 30.65199 89.15749 
L 28.381277 88.836365 
L 26.772258 88.336977 
L 26.260569 88.040936 
L 25.95988 87.726332 
L 25.876529 87.402952 
L 26.012275 87.080768 
L 26.364254 86.769731 
L 26.925048 86.479551 
L 28.621648 85.998228 
L 30.959782 85.702289 
L 33.743355 85.641678 
L 36.738913 85.846602 
L 39.695224 86.324998 
L 42.364345 87.061866 
L 44.522422 88.020531 
L 45.351138 88.566371 
L 45.98846 89.145713 
L 46.420955 89.749502 
L 46.639505 90.368169 
L 46.639505 90.991831 
L 46.420955 91.610498 
L 45.98846 92.214287 
L 45.351138 92.793629 
L 44.522422 93.339469 
L 43.51978 93.84346 
L 41.080473 94.697065 
L 38.237798 95.307979 
L 35.230165 95.650087 
L 32.309822 95.719821 
L 29.721691 95.536457 
L 27.682837 95.140496 
L 26.364254 94.590269 
L 26.012275 94.279232 
L 25.876529 93.957048 
L 25.95988 93.633668 
L 26.260569 93.319064 
L 26.772258 93.023023 
L 28.381277 92.523635 
L 30.65199 92.20251 
L 33.393956 92.111703 
L 36.377211 92.283954 
L 39.351553 92.72994 
L 42.067529 93.437379 
L 44.297355 94.372065 
L 45.169468 94.90861 
L 45.854017 95.480729 
L 46.336572 96.079518 
L 46.606962 96.695513 
L 46.659487 97.318887 
L 46.493041 97.939658 
L 46.111131 98.547898 
L 45.521808 99.133943 
L 44.737494 99.688598 
L 43.774719 100.203329 
L 41.3983 101.083252 
L 38.591858 101.725037 
L 35.590764 102.099981 
L 32.646716 102.201764 
L 30.006626 102.046971 
L 27.891915 101.673708 
L 26.47994 101.138403 
L 26.077097 100.831491 
L 25.889122 100.511077 
L 25.919977 100.187072 
L 26.169011 99.869463 
L 26.630976 99.568102 
L 28.150465 99.051618 
L 30.351006 98.706058 
L 33.048043 98.585528 
L 36.01538 98.72526 
L 39.00415 99.138658 
L 41.763691 99.816175 
L 44.062564 100.726112 
L 44.977018 101.252894 
L 45.707965 101.817277 
L 46.239996 102.410522 
L 46.561898 103.02328 
L 46.666884 103.645793 
L 46.552744 104.268098 
L 46.221881 104.880233 
L 45.681271 105.472453 
L 44.942308 106.035433 
L 44.020568 106.560462 
L 41.709917 107.465999 
L 38.943107 108.13824 
L 35.952187 108.54593 
L 32.988 108.68 
L 32.988 144.68 
L 32.988 144.68 
" clip-path="url(#p8bd25e5b1c)" style="fill: none; stroke: #000000; stroke-width: 2; stroke-linecap: round"/>
   </g>
   <g id="line2d_5">
    <path d="M 32.988 144.68 
L 83.748 144.68 
M 83.748 135.68 
L 83.748 153.68 
M 90.228 135.68 
L 90.228 153.68 
M 90.228 144.68 
L 140.988 144.68 
" clip-path="url(#p8bd25e5b1c)" style="fill: none; stroke: #000000; stroke-width: 2; stroke-linecap: round"/>
   </g>
   <g id="line2d_6">
    <path d="M 140.988 144.68 
L 176.988 144.68 
L 177.12207 141.715813 
L 177.52976 138.724893 
L 178.202001 135.958083 
L 179.107538 133.647432 
L 179.632567 132.725692 
L 180.195547 131.986729 
L 180.787767 131.446119 
L 181.399902 131.115256 
L 182.022207 131.001116 
L 182.64472 131.106102 
L 183.257478 131.428004 
L 183.850723 131.960035 
L 184.415106 132.690982 
L 184.941888 133.605436 
L 185.851825 135.904309 
L 186.529342 138.66385 
L 186.94274 141.65262 
L 187.082472 144.619957 
L 186.961942 147.316994 
L 186.616382 149.517535 
L 186.099898 151.037024 
L 185.798537 151.498989 
L 185.480928 151.748023 
L 185.156923 151.778878 
L 184.836509 151.590903 
L 184.529597 151.18806 
L 183.994292 149.776085 
L 183.621029 147.661374 
L 183.466236 145.021284 
L 183.568019 142.077236 
L 183.942963 139.076142 
L 184.584748 136.2697 
L 185.464671 133.893281 
L 185.979402 132.930506 
L 186.534057 132.146192 
L 187.120102 131.556869 
L 187.728342 131.174959 
L 188.349113 131.008513 
L 188.972487 131.061038 
L 189.588482 131.331428 
L 190.187271 131.813983 
L 190.75939 132.498532 
L 191.295935 133.370645 
L 192.230621 135.600471 
L 192.93806 138.316447 
L 193.384046 141.290789 
L 193.556297 144.274044 
L 193.46549 147.01601 
L 193.144365 149.286723 
L 192.644977 150.895742 
L 192.348936 151.407431 
L 192.034332 151.70812 
L 191.710952 151.791471 
L 191.388768 151.655725 
L 191.077731 151.303746 
L 190.787551 150.742952 
L 190.306228 149.046352 
L 190.010289 146.708218 
L 189.949678 143.924645 
L 190.154602 140.929087 
L 190.632998 137.972776 
L 191.369866 135.303655 
L 192.328531 133.145578 
L 192.874371 132.316862 
L 193.453713 131.67954 
L 194.057502 131.247045 
L 194.676169 131.028495 
L 195.299831 131.028495 
L 195.918498 131.247045 
L 196.522287 131.67954 
L 197.101629 132.316862 
L 197.647469 133.145578 
L 198.15146 134.14822 
L 199.005065 136.587527 
L 199.615979 139.430202 
L 199.958087 142.437835 
L 200.027821 145.358178 
L 199.844457 147.946309 
L 199.448496 149.985163 
L 198.898269 151.303746 
L 198.587232 151.655725 
L 198.265048 151.791471 
L 197.941668 151.70812 
L 197.627064 151.407431 
L 197.331023 150.895742 
L 196.831635 149.286723 
L 196.51051 147.01601 
L 196.419703 144.274044 
L 196.591954 141.290789 
L 197.03794 138.316447 
L 197.745379 135.600471 
L 198.680065 133.370645 
L 199.21661 132.498532 
L 199.788729 131.813983 
L 200.387518 131.331428 
L 201.003513 131.061038 
L 201.626887 131.008513 
L 202.247658 131.174959 
L 202.855898 131.556869 
L 203.441943 132.146192 
L 203.996598 132.930506 
L 204.511329 133.893281 
L 205.391252 136.2697 
L 206.033037 139.076142 
L 206.407981 142.077236 
L 206.509764 145.021284 
L 206.354971 147.661374 
L 205.981708 149.776085 
L 205.446403 151.18806 
L 205.139491 151.590903 
L 204.819077 151.778878 
L 204.495072 151.748023 
L 204.177463 151.498989 
L 203.876102 151.037024 
L 203.359618 149.517535 
L 203.014058 147.316994 
L 202.893528 144.619957 
L 203.03326 141.65262 
L 203.446658 138.66385 
L 204.124175 135.904309 
L 205.034112 133.605436 
L 205.560894 132.690982 
L 206.125277 131.960035 
L 206.718522 131.428004 
L 207.33128 131.106102 
L 207.953793 131.001116 
L 208.576098 131.115256 
L 209.188233 131.446119 
L 209.780453 131.986729 
L 210.343433 132.725692 
L 210.868462 133.647432 
L 211.773999 135.958083 
L 212.44624 138.724893 
L 212.85393 141.715813 
L 212.988 144.68 
L 248.988 144.68 
L 248.988 144.68 
" clip-path="url(#p8bd25e5b1c)" style="fill: none; stroke: #000000; stroke-width: 2; stroke-linecap: round"/>
   </g>
   <g id="line2d_7">
    <path d="M 248.988 144.68 
L 248.988 180.68 
L 257.988 183.68 
L 239.988 189.68 
L 257.988 195.68 
L 239.988 201.68 
L 257.988 207.68 
L 239.988 213.68 
L 248.988 216.68 
L 248.988 252.68 
" clip-path="url(#p8bd25e5b1c)" style="fill: none; stroke: #000000; stroke-width: 2; stroke-linecap: round"/>
   </g>
   <g id="line2d_8">
    <path d="M 248.988 144.68 
L 257.988 144.68 
L 266.988 144.68 
" clip-path="url(#p8bd25e5b1c)" style="fill: none; stroke: #000000; stroke-width: 2; stroke-linecap: round"/>
   </g>
   <g id="line2d_9">
    <path d="M 248.988 252.68 
L 257.988 252.68 
L 266.988 252.68 
" clip-path="url(#p8bd25e5b1c)" style="fill: none; stroke: #000000; stroke-width: 2; stroke-linecap: round"/>
   </g>
   <g id="line2d_10">
    <path d="M 248.988 252.68 
L 140.988 252.68 
L 32.988 252.68 
" clip-path="url(#p8bd25e5b1c)" style="fill: none; stroke: #000000; stroke-width: 2; stroke-linecap: round"/>
   </g>
   <g id="line2d_11">
    <path d="M 32.988 144.68 
L 32.988 195.44 
M 41.988 195.44 
L 23.988 195.44 
M 41.988 201.92 
L 23.988 201.92 
M 32.988 201.92 
L 32.988 252.68 
" clip-path="url(#p8bd25e5b1c)" style="fill: none; stroke: #000000; stroke-width: 2; stroke-linecap: round"/>
   </g>
   <g id="line2d_12">
    <path d="M 32.988 252.68 
L 32.988 267.08 
L 23.988 267.08 
L 41.988 267.08 
M 26.688 271.4 
L 39.288 271.4 
M 31.188 275.72 
L 34.788 275.72 
" clip-path="url(#p8bd25e5b1c)" style="fill: none; stroke: #000000; stroke-width: 2; stroke-linecap: round"/>
   </g>
   <g id="text_1">
    <!-- $V_{dd}$ -->
    <g transform="translate(21.718 15.768438) scale(0.14 -0.14)">
     <defs>
      <path id="DejaVuSans-Oblique-56" d="M 1319 0 
L 500 4666 
L 1119 4666 
L 1797 653 
L 4063 4666 
L 4750 4666 
L 2053 0 
L 1319 0 
z
" transform="scale(0.015625)"/>
      <path id="DejaVuSans-Oblique-64" d="M 2675 525 
Q 2444 222 2128 65 
Q 1813 -91 1428 -91 
Q 903 -91 598 267 
Q 294 625 294 1247 
Q 294 1766 478 2236 
Q 663 2706 1013 3078 
Q 1244 3325 1534 3454 
Q 1825 3584 2144 3584 
Q 2481 3584 2739 3421 
Q 2997 3259 3138 2956 
L 3513 4863 
L 4091 4863 
L 3144 0 
L 2566 0 
L 2675 525 
z
M 891 1350 
Q 891 897 1095 644 
Q 1300 391 1663 391 
Q 1931 391 2161 520 
Q 2391 650 2566 903 
Q 2750 1166 2856 1509 
Q 2963 1853 2963 2188 
Q 2963 2622 2758 2865 
Q 2553 3109 2194 3109 
Q 1922 3109 1687 2981 
Q 1453 2853 1288 2613 
Q 1106 2353 998 2009 
Q 891 1666 891 1350 
z
" transform="scale(0.015625)"/>
     </defs>
     <use xlink:href="#DejaVuSans-Oblique-56" transform="translate(0 0.09375)"/>
     <use xlink:href="#DejaVuSans-Oblique-64" transform="translate(68.408203 -16.3125) scale(0.7)"/>
     <use xlink:href="#DejaVuSans-Oblique-64" transform="translate(112.841797 -16.3125) scale(0.7)"/>
    </g>
   </g>
   <g id="text_2">
    <!-- $L_1$ -->
    <g transform="translate(7.856529 94.543125) scale(0.14 -0.14)">
     <defs>
      <path id="DejaVuSans-Oblique-4c" d="M 1075 4666 
L 1709 4666 
L 909 525 
L 3181 525 
L 3078 0 
L 172 0 
L 1075 4666 
z
" transform="scale(0.015625)"/>
      <path id="DejaVuSans-31" d="M 794 531 
L 1825 531 
L 1825 4091 
L 703 3866 
L 703 4441 
L 1819 4666 
L 2450 4666 
L 2450 531 
L 3481 531 
L 3481 0 
L 794 0 
L 794 531 
z
" transform="scale(0.015625)"/>
     </defs>
     <use xlink:href="#DejaVuSans-Oblique-4c" transform="translate(0 0.09375)"/>
     <use xlink:href="#DejaVuSans-31" transform="translate(55.712891 -16.3125) scale(0.7)"/>
    </g>
   </g>
   <g id="text_3">
    <!-- $C_2$ -->
    <g transform="translate(78.728 129.168438) scale(0.14 -0.14)">
     <defs>
      <path id="DejaVuSans-Oblique-43" d="M 4447 4306 
L 4319 3641 
Q 4019 3944 3683 4091 
Q 3347 4238 2956 4238 
Q 2422 4238 2017 3981 
Q 1613 3725 1319 3200 
Q 1131 2863 1032 2486 
Q 934 2109 934 1728 
Q 934 1091 1264 756 
Q 1594 422 2222 422 
Q 2656 422 3056 561 
Q 3456 700 3834 978 
L 3688 231 
Q 3316 72 2936 -9 
Q 2556 -91 2175 -91 
Q 1278 -91 773 396 
Q 269 884 269 1753 
Q 269 2309 461 2846 
Q 653 3384 1013 3828 
Q 1394 4300 1883 4525 
Q 2372 4750 3022 4750 
Q 3422 4750 3780 4639 
Q 4138 4528 4447 4306 
z
" transform="scale(0.015625)"/>
      <path id="DejaVuSans-32" d="M 1228 531 
L 3431 531 
L 3431 0 
L 469 0 
L 469 531 
Q 828 903 1448 1529 
Q 2069 2156 2228 2338 
Q 2531 2678 2651 2914 
Q 2772 3150 2772 3378 
Q 2772 3750 2511 3984 
Q 2250 4219 1831 4219 
Q 1534 4219 1204 4116 
Q 875 4013 500 3803 
L 500 4441 
Q 881 4594 1212 4672 
Q 1544 4750 1819 4750 
Q 2544 4750 2975 4387 
Q 3406 4025 3406 3419 
Q 3406 3131 3298 2873 
Q 3191 2616 2906 2266 
Q 2828 2175 2409 1742 
Q 1991 1309 1228 531 
z
" transform="scale(0.015625)"/>
     </defs>
     <use xlink:href="#DejaVuSans-Oblique-43" transform="translate(0 0.78125)"/>
     <use xlink:href="#DejaVuSans-32" transform="translate(69.824219 -15.625) scale(0.7)"/>
    </g>
   </g>
   <g id="text_4">
    <!-- $L_2$ -->
    <g transform="translate(187.778 124.489553) scale(0.14 -0.14)">
     <use xlink:href="#DejaVuSans-Oblique-4c" transform="translate(0 0.09375)"/>
     <use xlink:href="#DejaVuSans-32" transform="translate(55.712891 -16.3125) scale(0.7)"/>
    </g>
   </g>
   <g id="text_5">
    <!-- $R_L$ -->
    <g transform="translate(220.708 202.543125) scale(0.14 -0.14)">
     <defs>
      <path id="DejaVuSans-Oblique-52" d="M 1613 4147 
L 1294 2491 
L 2106 2491 
Q 2584 2491 2879 2755 
Q 3175 3019 3175 3444 
Q 3175 3784 2976 3965 
Q 2778 4147 2406 4147 
L 1613 4147 
z
M 2772 2241 
Q 2972 2194 3105 2009 
Q 3238 1825 3413 1275 
L 3809 0 
L 3144 0 
L 2778 1197 
Q 2638 1659 2453 1815 
Q 2269 1972 1888 1972 
L 1191 1972 
L 806 0 
L 172 0 
L 1081 4666 
L 2503 4666 
Q 3150 4666 3495 4373 
Q 3841 4081 3841 3531 
Q 3841 3044 3547 2687 
Q 3253 2331 2772 2241 
z
" transform="scale(0.015625)"/>
     </defs>
     <use xlink:href="#DejaVuSans-Oblique-52" transform="translate(0 0.09375)"/>
     <use xlink:href="#DejaVuSans-Oblique-4c" transform="translate(69.482422 -16.3125) scale(0.7)"/>
    </g>
   </g>
   <g id="text_6">
    <!-- + -->
    <g transform="translate(275.522219 189.943125) scale(0.14 -0.14)">
     <defs>
      <path id="DejaVuSans-2b" d="M 2944 4013 
L 2944 2272 
L 4684 2272 
L 4684 1741 
L 2944 1741 
L 2944 0 
L 2419 0 
L 2419 1741 
L 678 1741 
L 678 2272 
L 2419 2272 
L 2419 4013 
L 2944 4013 
z
" transform="scale(0.015625)"/>
     </defs>
     <use xlink:href="#DejaVuSans-2b"/>
    </g>
   </g>
   <g id="text_7">
    <!-- $v_{out}$ -->
    <g transform="translate(268.998 216.943125) scale(0.14 -0.14)">
     <defs>
      <path id="DejaVuSans-Oblique-76" d="M 459 3500 
L 1069 3500 
L 1581 525 
L 3256 3500 
L 3866 3500 
L 1875 0 
L 1100 0 
L 459 3500 
z
" transform="scale(0.015625)"/>
      <path id="DejaVuSans-Oblique-6f" d="M 1625 -91 
Q 1009 -91 651 289 
Q 294 669 294 1325 
Q 294 1706 417 2101 
Q 541 2497 738 2766 
Q 1047 3184 1428 3384 
Q 1809 3584 2291 3584 
Q 2888 3584 3255 3212 
Q 3622 2841 3622 2241 
Q 3622 1825 3500 1412 
Q 3378 1000 3181 728 
Q 2875 309 2494 109 
Q 2113 -91 1625 -91 
z
M 891 1344 
Q 891 869 1089 633 
Q 1288 397 1691 397 
Q 2269 397 2648 901 
Q 3028 1406 3028 2181 
Q 3028 2634 2825 2865 
Q 2622 3097 2228 3097 
Q 1903 3097 1650 2945 
Q 1397 2794 1197 2484 
Q 1050 2253 970 1956 
Q 891 1659 891 1344 
z
" transform="scale(0.015625)"/>
      <path id="DejaVuSans-Oblique-75" d="M 428 1388 
L 838 3500 
L 1416 3500 
L 1006 1409 
Q 975 1256 961 1147 
Q 947 1038 947 966 
Q 947 700 1109 554 
Q 1272 409 1569 409 
Q 2031 409 2368 721 
Q 2706 1034 2809 1563 
L 3194 3500 
L 3769 3500 
L 3091 0 
L 2516 0 
L 2631 550 
Q 2388 244 2052 76 
Q 1716 -91 1338 -91 
Q 878 -91 622 161 
Q 366 413 366 863 
Q 366 956 381 1097 
Q 397 1238 428 1388 
z
" transform="scale(0.015625)"/>
      <path id="DejaVuSans-Oblique-74" d="M 2706 3500 
L 2619 3053 
L 1472 3053 
L 1100 1153 
Q 1081 1047 1072 975 
Q 1063 903 1063 863 
Q 1063 663 1183 572 
Q 1303 481 1569 481 
L 2150 481 
L 2053 0 
L 1503 0 
Q 991 0 739 200 
Q 488 400 488 806 
Q 488 878 497 964 
Q 506 1050 525 1153 
L 897 3053 
L 409 3053 
L 500 3500 
L 978 3500 
L 1172 4494 
L 1747 4494 
L 1556 3500 
L 2706 3500 
z
" transform="scale(0.015625)"/>
     </defs>
     <use xlink:href="#DejaVuSans-Oblique-76" transform="translate(0 0.3125)"/>
     <use xlink:href="#DejaVuSans-Oblique-6f" transform="translate(59.179688 -16.09375) scale(0.7)"/>
     <use xlink:href="#DejaVuSans-Oblique-75" transform="translate(102.006836 -16.09375) scale(0.7)"/>
     <use xlink:href="#DejaVuSans-Oblique-74" transform="translate(146.37207 -16.09375) scale(0.7)"/>
    </g>
   </g>
   <g id="text_8">
    <!-- $-$ -->
    <g transform="translate(275.508 243.943125) scale(0.14 -0.14)">
     <defs>
      <path id="DejaVuSans-2212" d="M 678 2272 
L 4684 2272 
L 4684 1741 
L 678 1741 
L 678 2272 
z
" transform="scale(0.015625)"/>
     </defs>
     <use xlink:href="#DejaVuSans-2212" transform="translate(0 0.5)"/>
    </g>
   </g>
   <g id="text_9">
    <!-- $C_1$ -->
    <g transform="translate(3.868 202.543125) scale(0.14 -0.14)">
     <use xlink:href="#DejaVuSans-Oblique-43" transform="translate(0 0.78125)"/>
     <use xlink:href="#DejaVuSans-31" transform="translate(69.824219 -15.625) scale(0.7)"/>
    </g>
   </g>
   <g id="patch_2">
    <path d="M 32.988 147.38 
C 33.704048 147.38 34.390866 147.095511 34.897188 146.589188 
C 35.403511 146.082866 35.688 145.396048 35.688 144.68 
C 35.688 143.963952 35.403511 143.277134 34.897188 142.770812 
C 34.390866 142.264489 33.704048 141.98 32.988 141.98 
C 32.271952 141.98 31.585134 142.264489 31.078812 142.770812 
C 30.572489 143.277134 30.288 143.963952 30.288 144.68 
C 30.288 145.396048 30.572489 146.082866 31.078812 146.589188 
C 31.585134 147.095511 32.271952 147.38 32.988 147.38 
z
" clip-path="url(#p8bd25e5b1c)" style="fill: #ff0000; stroke: #ff0000; stroke-width: 2; stroke-linejoin: miter"/>
   </g>
   <g id="patch_3">
    <path d="M 266.988 147.38 
C 267.704048 147.38 268.390866 147.095511 268.897188 146.589188 
C 269.403511 146.082866 269.688 145.396048 269.688 144.68 
C 269.688 143.963952 269.403511 143.277134 268.897188 142.770812 
C 268.390866 142.264489 267.704048 141.98 266.988 141.98 
C 266.271952 141.98 265.585134 142.264489 265.078812 142.770812 
C 264.572489 143.277134 264.288 143.963952 264.288 144.68 
C 264.288 145.396048 264.572489 146.082866 265.078812 146.589188 
C 265.585134 147.095511 266.271952 147.38 266.988 147.38 
z
" clip-path="url(#p8bd25e5b1c)" style="fill: #ffffff; stroke: #000000; stroke-width: 2; stroke-linejoin: miter"/>
   </g>
   <g id="patch_4">
    <path d="M 266.988 255.38 
C 267.704048 255.38 268.390866 255.095511 268.897188 254.589188 
C 269.403511 254.082866 269.688 253.396048 269.688 252.68 
C 269.688 251.963952 269.403511 251.277134 268.897188 250.770812 
C 268.390866 250.264489 267.704048 249.98 266.988 249.98 
C 266.271952 249.98 265.585134 250.264489 265.078812 250.770812 
C 264.572489 251.277134 264.288 251.963952 264.288 252.68 
C 264.288 253.396048 264.572489 254.082866 265.078812 254.589188 
C 265.585134 255.095511 266.271952 255.38 266.988 255.38 
z
" clip-path="url(#p8bd25e5b1c)" style="fill: #ffffff; stroke: #000000; stroke-width: 2; stroke-linejoin: miter"/>
   </g>
   <g id="patch_5">
    <path d="M 32.988 255.38 
C 33.704048 255.38 34.390866 255.095511 34.897188 254.589188 
C 35.403511 254.082866 35.688 253.396048 35.688 252.68 
C 35.688 251.963952 35.403511 251.277134 34.897188 250.770812 
C 34.390866 250.264489 33.704048 249.98 32.988 249.98 
C 32.271952 249.98 31.585134 250.264489 31.078812 250.770812 
C 30.572489 251.277134 30.288 251.963952 30.288 252.68 
C 30.288 253.396048 30.572489 254.082866 31.078812 254.589188 
C 31.585134 255.095511 32.271952 255.38 32.988 255.38 
z
" clip-path="url(#p8bd25e5b1c)" style="stroke: #000000; stroke-width: 2; stroke-linejoin: miter"/>
   </g>
  </g>
 </g>
 <defs>
  <clipPath id="p8bd25e5b1c">
   <rect x="0" y="0" width="301.272" height="280.4"/>
  </clipPath>
 </defs>
</svg>