<?xml version="1.0" encoding="utf-8" standalone="no"?>
<!DOCTYPE svg PUBLIC "-//W3C//DTD SVG 1.1//EN"
  "http://www.w3.org/Graphics/SVG/1.1/DTD/svg11.dtd">
<svg xmlns:xlink="http://www.w3.org/1999/xlink" width="846.978125pt" height="846.978125pt" viewBox="0 0 846.978125 846.978125" xmlns="http://www.w3.org/2000/svg" version="1.1">
 <metadata>
  <rdf:RDF xmlns:dc="http://purl.org/dc/elements/1.1/" xmlns:cc="http://creativecommons.org/ns#" xmlns:rdf="http://www.w3.org/1999/02/22-rdf-syntax-ns#">
   <cc:Work>
    <dc:type rdf:resource="http://purl.org/dc/dcmitype/StillImage"/>
    <dc:date>2022-12-06T00:25:35.554169</dc:date>
    <dc:format>image/svg+xml</dc:format>
    <dc:creator>
     <cc:Agent>
      <dc:title>Matplotlib v3.5.3, https://matplotlib.org/</dc:title>
     </cc:Agent>
    </dc:creator>
   </cc:Work>
  </rdf:RDF>
 </metadata>
 <defs>
  <style type="text/css">*{stroke-linejoin: round; stroke-linecap: butt}</style>
 </defs>
 <g id="figure_1">
  <g id="patch_1">
   <path d="M 0 846.978125 
L 846.978125 846.978125 
L 846.978125 0 
L 0 0 
L 0 846.978125 
z
" style="fill: none"/>
  </g>
  <g id="axes_1">
   <g id="patch_2">
    <path d="M 24.378125 822.6 
L 839.778125 822.6 
L 839.778125 7.2 
L 24.378125 7.2 
z
" style="fill: #ffffff"/>
   </g>
   <g id="patch_3">
    <path d="M 432.078125 785.536364 
C 530.372038 785.536364 624.653319 746.483778 694.157611 676.979486 
C 763.661903 607.475194 802.714489 513.193913 802.714489 414.9 
C 802.714489 316.606087 763.661903 222.324806 694.157611 152.820514 
C 624.653319 83.316222 530.372038 44.263636 432.078125 44.263636 
C 333.784212 44.263636 239.502931 83.316222 169.998639 152.820514 
C 100.494347 222.324806 61.441761 316.606087 61.441761 414.9 
C 61.441761 513.193913 100.494347 607.475194 169.998639 676.979486 
C 239.502931 746.483778 333.784212 785.536364 432.078125 785.536364 
L 432.078125 785.536364 
z
" clip-path="url(#p737e7d5c96)" style="fill: none; stroke: #000000; stroke-linejoin: miter"/>
   </g>
   <g id="patch_4">
    <path d="M 390.896307 744.354545 
C 478.268674 744.354545 562.074257 709.641136 623.85585 647.859543 
C 685.637443 586.07795 720.350852 502.272367 720.350852 414.9 
C 720.350852 327.527633 685.637443 243.72205 623.85585 181.940457 
C 562.074257 120.158864 478.268674 85.445455 390.896307 85.445455 
C 303.52394 85.445455 219.718357 120.158864 157.936764 181.940457 
C 96.155171 243.72205 61.441761 327.527633 61.441761 414.9 
C 61.441761 502.272367 96.155171 586.07795 157.936764 647.859543 
C 219.718357 709.641136 303.52394 744.354545 390.896307 744.354545 
L 390.896307 744.354545 
z
" clip-path="url(#p7b90256d54)" style="fill: none; stroke: #808080; stroke-linejoin: miter"/>
   </g>
   <g id="patch_5">
    <path d="M 357.950852 711.409091 
C 436.585982 711.409091 512.011007 680.167023 567.614441 624.563589 
C 623.217875 568.960155 654.459943 493.53513 654.459943 414.9 
C 654.459943 336.26487 623.217875 260.839845 567.614441 205.236411 
C 512.011007 149.632977 436.585982 118.390909 357.950852 118.390909 
C 279.315722 118.390909 203.890697 149.632977 148.287263 205.236411 
C 92.68383 260.839845 61.441761 336.26487 61.441761 414.9 
C 61.441761 493.53513 92.68383 568.960155 148.287263 624.563589 
C 203.890697 680.167023 279.315722 711.409091 357.950852 711.409091 
L 357.950852 711.409091 
z
" clip-path="url(#p7b90256d54)" style="fill: none; stroke: #808080; stroke-linejoin: miter"/>
   </g>
   <g id="patch_6">
    <path d="M 308.53267 661.990909 
C 374.061946 661.990909 436.916133 635.955852 483.252328 589.619657 
C 529.588523 543.283463 555.62358 480.429275 555.62358 414.9 
C 555.62358 349.370725 529.588523 286.516537 483.252328 240.180343 
C 436.916133 193.844148 374.061946 167.809091 308.53267 167.809091 
C 243.003395 167.809091 180.149208 193.844148 133.813013 240.180343 
C 87.476818 286.516537 61.441761 349.370725 61.441761 414.9 
C 61.441761 480.429275 87.476818 543.283463 133.813013 589.619657 
C 180.149208 635.955852 243.003395 661.990909 308.53267 661.990909 
L 308.53267 661.990909 
z
" clip-path="url(#p7b90256d54)" style="fill: none; stroke: #808080; stroke-linejoin: miter"/>
   </g>
   <g id="patch_7">
    <path d="M 246.759943 600.218182 
C 295.906899 600.218182 343.04754 580.691889 377.799686 545.939743 
C 412.551832 511.187597 432.078125 464.046956 432.078125 414.9 
C 432.078125 365.753044 412.551832 318.612403 377.799686 283.860257 
C 343.04754 249.108111 295.906899 229.581818 246.759943 229.581818 
C 197.612987 229.581818 150.472346 249.108111 115.7202 283.860257 
C 80.968054 318.612403 61.441761 365.753044 61.441761 414.9 
C 61.441761 464.046956 80.968054 511.187597 115.7202 545.939743 
C 150.472346 580.691889 197.612987 600.218182 246.759943 600.218182 
L 246.759943 600.218182 
z
" clip-path="url(#p7b90256d54)" style="fill: none; stroke: #808080; stroke-linejoin: miter"/>
   </g>
   <g id="patch_8">
    <path d="M 184.987216 538.445455 
C 217.751853 538.445455 249.178947 525.427926 272.347045 502.259829 
C 295.515142 479.091731 308.53267 447.664638 308.53267 414.9 
C 308.53267 382.135362 295.515142 350.708269 272.347045 327.540171 
C 249.178947 304.372074 217.751853 291.354545 184.987216 291.354545 
C 152.222578 291.354545 120.795485 304.372074 97.627387 327.540171 
C 74.45929 350.708269 61.441761 382.135362 61.441761 414.9 
C 61.441761 447.664638 74.45929 479.091731 97.627387 502.259829 
C 120.795485 525.427926 152.222578 538.445455 184.987216 538.445455 
L 184.987216 538.445455 
z
" clip-path="url(#p7b90256d54)" style="fill: none; stroke: #808080; stroke-linejoin: miter"/>
   </g>
   <g id="patch_9">
    <path d="M 135.569034 489.027273 
C 155.227817 489.027273 174.084073 481.216756 187.984931 467.315897 
C 201.88579 453.415039 209.696307 434.558783 209.696307 414.9 
C 209.696307 395.241217 201.88579 376.384961 187.984931 362.484103 
C 174.084073 348.583244 155.227817 340.772727 135.569034 340.772727 
C 115.910252 340.772727 97.053995 348.583244 83.153137 362.484103 
C 69.252278 376.384961 61.441761 395.241217 61.441761 414.9 
C 61.441761 434.558783 69.252278 453.415039 83.153137 467.315897 
C 97.053995 481.216756 115.910252 489.027273 135.569034 489.027273 
L 135.569034 489.027273 
z
" clip-path="url(#p7b90256d54)" style="fill: none; stroke: #808080; stroke-linejoin: miter"/>
   </g>
   <g id="patch_10">
    <path d="M 102.62358 456.081818 
C 113.545125 456.081818 124.020823 451.742642 131.743522 444.019943 
C 139.466222 436.297244 143.805398 425.821546 143.805398 414.9 
C 143.805398 403.978454 139.466222 393.502756 131.743522 385.780057 
C 124.020823 378.057358 113.545125 373.718182 102.62358 373.718182 
C 91.702034 373.718182 81.226336 378.057358 73.503637 385.780057 
C 65.780938 393.502756 61.441761 403.978454 61.441761 414.9 
C 61.441761 425.821546 65.780938 436.297244 73.503637 444.019943 
C 81.226336 451.742642 91.702034 456.081818 102.62358 456.081818 
L 102.62358 456.081818 
z
" clip-path="url(#p7b90256d54)" style="fill: none; stroke: #808080; stroke-linejoin: miter"/>
   </g>
   <g id="patch_11">
    <path d="M 83.2439 436.702139 
C 89.025895 436.702139 94.571853 434.404928 98.660341 430.31644 
C 102.748829 426.227953 105.046039 420.681995 105.046039 414.9 
C 105.046039 409.118005 102.748829 403.572047 98.660341 399.48356 
C 94.571853 395.395072 89.025895 393.097861 83.2439 393.097861 
C 77.461906 393.097861 71.915948 395.395072 67.82746 399.48356 
C 63.738972 403.572047 61.441761 409.118005 61.441761 414.9 
C 61.441761 420.681995 63.738972 426.227953 67.82746 430.31644 
C 71.915948 434.404928 77.461906 436.702139 83.2439 436.702139 
L 83.2439 436.702139 
z
" clip-path="url(#p7b90256d54)" style="fill: none; stroke: #808080; stroke-linejoin: miter"/>
   </g>
   <g id="patch_12">
    <path d="M 72.673166 426.131405 
C 75.65177 426.131405 78.508778 424.947993 80.614969 422.841803 
C 82.72116 420.735612 83.904571 417.878603 83.904571 414.9 
C 83.904571 411.921397 82.72116 409.064388 80.614969 406.958197 
C 78.508778 404.852007 75.65177 403.668595 72.673166 403.668595 
C 69.694563 403.668595 66.837554 404.852007 64.731364 406.958197 
C 62.625173 409.064388 61.441761 411.921397 61.441761 414.9 
C 61.441761 417.878603 62.625173 420.735612 64.731364 422.841803 
C 66.837554 424.947993 69.694563 426.131405 72.673166 426.131405 
L 72.673166 426.131405 
z
" clip-path="url(#p7b90256d54)" style="fill: none; stroke: #808080; stroke-linejoin: miter"/>
   </g>
   <g id="patch_13">
    <path d="M 61.441761 414.9 
C 454.617412 414.9 831.742537 258.689658 1109.759706 -19.32751 
C 1387.776874 -297.344679 1543.987216 -674.469804 1543.987216 -1067.645455 
C 1543.987216 -1460.821105 1387.776874 -1837.94623 1109.759706 -2115.963399 
C 831.742537 -2393.980567 454.617412 -2550.190909 61.441761 -2550.190909 
C -331.733889 -2550.190909 -708.859014 -2393.980567 -986.876183 -2115.963399 
C -1264.893352 -1837.94623 -1421.103693 -1460.821105 -1421.103693 -1067.645455 
C -1421.103693 -674.469804 -1264.893352 -297.344679 -986.876183 -19.32751 
C -708.859014 258.689658 -331.733889 414.9 61.441761 414.9 
L 61.441761 414.9 
z
" clip-path="url(#p7b90256d54)" style="fill: none; stroke: #808080; stroke-linejoin: miter"/>
   </g>
   <g id="patch_14">
    <path d="M 61.441761 414.9 
C 258.029587 414.9 446.592149 336.794829 585.600734 197.786245 
C 724.609318 58.777661 802.714489 -129.784902 802.714489 -326.372727 
C 802.714489 -522.960552 724.609318 -711.523115 585.600734 -850.531699 
C 446.592149 -989.540284 258.029587 -1067.645455 61.441761 -1067.645455 
C -135.146064 -1067.645455 -323.708626 -989.540284 -462.717211 -850.531699 
C -601.725795 -711.523115 -679.830966 -522.960552 -679.830966 -326.372727 
C -679.830966 -129.784902 -601.725795 58.777661 -462.717211 197.786245 
C -323.708626 336.794829 -135.146064 414.9 61.441761 414.9 
L 61.441761 414.9 
z
" clip-path="url(#p7b90256d54)" style="fill: none; stroke: #808080; stroke-linejoin: miter"/>
   </g>
   <g id="patch_15">
    <path d="M 61.441761 414.9 
C 159.735674 414.9 254.016955 375.847415 323.521247 306.343122 
C 393.02554 236.83883 432.078125 142.557549 432.078125 44.263636 
C 432.078125 -54.030276 393.02554 -148.311558 323.521247 -217.81585 
C 254.016955 -287.320142 159.735674 -326.372727 61.441761 -326.372727 
C -36.852151 -326.372727 -131.133433 -287.320142 -200.637725 -217.81585 
C -270.142017 -148.311558 -309.194602 -54.030276 -309.194602 44.263636 
C -309.194602 142.557549 -270.142017 236.83883 -200.637725 306.343122 
C -131.133433 375.847415 -36.852151 414.9 61.441761 414.9 
L 61.441761 414.9 
z
" clip-path="url(#p7b90256d54)" style="fill: none; stroke: #808080; stroke-linejoin: miter"/>
   </g>
   <g id="patch_16">
    <path d="M 61.441761 414.9 
C 110.588718 414.9 157.729358 395.373707 192.481504 360.621561 
C 227.23365 325.869415 246.759943 278.728774 246.759943 229.581818 
C 246.759943 180.434862 227.23365 133.294221 192.481504 98.542075 
C 157.729358 63.789929 110.588718 44.263636 61.441761 44.263636 
C 12.294805 44.263636 -34.845836 63.789929 -69.597982 98.542075 
C -104.350128 133.294221 -123.87642 180.434862 -123.87642 229.581818 
C -123.87642 278.728774 -104.350128 325.869415 -69.597982 360.621561 
C -34.845836 395.373707 12.294805 414.9 61.441761 414.9 
L 61.441761 414.9 
z
" clip-path="url(#p7b90256d54)" style="fill: none; stroke: #808080; stroke-linejoin: miter"/>
   </g>
   <g id="patch_17">
    <path d="M 61.441761 414.9 
C 86.01524 414.9 109.58556 405.136854 126.961633 387.760781 
C 144.337706 370.384708 154.100852 346.814387 154.100852 322.240909 
C 154.100852 297.667431 144.337706 274.097111 126.961633 256.721038 
C 109.58556 239.344965 86.01524 229.581818 61.441761 229.581818 
C 36.868283 229.581818 13.297963 239.344965 -4.07811 256.721038 
C -21.454183 274.097111 -31.21733 297.667431 -31.21733 322.240909 
C -31.21733 346.814387 -21.454183 370.384708 -4.07811 387.760781 
C 13.297963 405.136854 36.868283 414.9 61.441761 414.9 
L 61.441761 414.9 
z
" clip-path="url(#p7b90256d54)" style="fill: none; stroke: #808080; stroke-linejoin: miter"/>
   </g>
   <g id="patch_18">
    <path d="M 61.441761 414.9 
C 73.7285 414.9 85.513661 410.018427 94.201697 401.33039 
C 102.889734 392.642354 107.771307 380.857194 107.771307 368.570455 
C 107.771307 356.283715 102.889734 344.498555 94.201697 335.810519 
C 85.513661 327.122482 73.7285 322.240909 61.441761 322.240909 
C 49.155022 322.240909 37.369862 327.122482 28.681826 335.810519 
C 19.993789 344.498555 15.112216 356.283715 15.112216 368.570455 
C 15.112216 380.857194 19.993789 392.642354 28.681826 401.33039 
C 37.369862 410.018427 49.155022 414.9 61.441761 414.9 
L 61.441761 414.9 
z
" clip-path="url(#p7b90256d54)" style="fill: none; stroke: #808080; stroke-linejoin: miter"/>
   </g>
   <g id="patch_19">
    <path d="M 61.441761 414.9 
C 67.585131 414.9 73.477711 412.459213 77.821729 408.115195 
C 82.165748 403.771177 84.606534 397.878597 84.606534 391.735227 
C 84.606534 385.591858 82.165748 379.699278 77.821729 375.355259 
C 73.477711 371.011241 67.585131 368.570455 61.441761 368.570455 
C 55.298392 368.570455 49.405812 371.011241 45.061793 375.355259 
C 40.717775 379.699278 38.276989 385.591858 38.276989 391.735227 
C 38.276989 397.878597 40.717775 403.771177 45.061793 408.115195 
C 49.405812 412.459213 55.298392 414.9 61.441761 414.9 
L 61.441761 414.9 
z
" clip-path="url(#p7b90256d54)" style="fill: none; stroke: #808080; stroke-linejoin: miter"/>
   </g>
   <g id="patch_20">
    <path d="M 61.441761 414.9 
C 64.513446 414.9 67.459736 413.679607 69.631745 411.507598 
C 71.803754 409.335588 73.024148 406.389298 73.024148 403.317614 
C 73.024148 400.245929 71.803754 397.299639 69.631745 395.12763 
C 67.459736 392.955621 64.513446 391.735227 61.441761 391.735227 
C 58.370077 391.735227 55.423787 392.955621 53.251777 395.12763 
C 51.079768 397.299639 49.859375 400.245929 49.859375 403.317614 
C 49.859375 406.389298 51.079768 409.335588 53.251777 411.507598 
C 55.423787 413.679607 58.370077 414.9 61.441761 414.9 
L 61.441761 414.9 
z
" clip-path="url(#p7b90256d54)" style="fill: none; stroke: #808080; stroke-linejoin: miter"/>
   </g>
   <g id="patch_21">
    <path d="M 61.441761 414.9 
C -331.733889 414.9 -708.859014 571.110342 -986.876183 849.12751 
C -1264.893352 1127.144679 -1421.103693 1504.269804 -1421.103693 1897.445455 
C -1421.103693 2290.621105 -1264.893352 2667.74623 -986.876183 2945.763399 
C -708.859014 3223.780567 -331.733889 3379.990909 61.441761 3379.990909 
C 454.617412 3379.990909 831.742537 3223.780567 1109.759706 2945.763399 
C 1387.776874 2667.74623 1543.987216 2290.621105 1543.987216 1897.445455 
C 1543.987216 1504.269804 1387.776874 1127.144679 1109.759706 849.12751 
C 831.742537 571.110342 454.617412 414.9 61.441761 414.9 
L 61.441761 414.9 
z
" clip-path="url(#p7b90256d54)" style="fill: none; stroke: #808080; stroke-linejoin: miter"/>
   </g>
   <g id="patch_22">
    <path d="M 61.441761 414.9 
C -135.146064 414.9 -323.708626 493.005171 -462.717211 632.013755 
C -601.725795 771.022339 -679.830966 959.584902 -679.830966 1156.172727 
C -679.830966 1352.760552 -601.725795 1541.323115 -462.717211 1680.331699 
C -323.708626 1819.340284 -135.146064 1897.445455 61.441761 1897.445455 
C 258.029587 1897.445455 446.592149 1819.340284 585.600734 1680.331699 
C 724.609318 1541.323115 802.714489 1352.760552 802.714489 1156.172727 
C 802.714489 959.584902 724.609318 771.022339 585.600734 632.013755 
C 446.592149 493.005171 258.029587 414.9 61.441761 414.9 
L 61.441761 414.9 
z
" clip-path="url(#p7b90256d54)" style="fill: none; stroke: #808080; stroke-linejoin: miter"/>
   </g>
   <g id="patch_23">
    <path d="M 61.441761 414.9 
C -36.852151 414.9 -131.133433 453.952585 -200.637725 523.456878 
C -270.142017 592.96117 -309.194602 687.242451 -309.194602 785.536364 
C -309.194602 883.830276 -270.142017 978.111558 -200.637725 1047.61585 
C -131.133433 1117.120142 -36.852151 1156.172727 61.441761 1156.172727 
C 159.735674 1156.172727 254.016955 1117.120142 323.521247 1047.61585 
C 393.02554 978.111558 432.078125 883.830276 432.078125 785.536364 
C 432.078125 687.242451 393.02554 592.96117 323.521247 523.456878 
C 254.016955 453.952585 159.735674 414.9 61.441761 414.9 
L 61.441761 414.9 
z
" clip-path="url(#p7b90256d54)" style="fill: none; stroke: #808080; stroke-linejoin: miter"/>
   </g>
   <g id="patch_24">
    <path d="M 61.441761 414.9 
C 12.294805 414.9 -34.845836 434.426293 -69.597982 469.178439 
C -104.350128 503.930585 -123.87642 551.071226 -123.87642 600.218182 
C -123.87642 649.365138 -104.350128 696.505779 -69.597982 731.257925 
C -34.845836 766.010071 12.294805 785.536364 61.441761 785.536364 
C 110.588718 785.536364 157.729358 766.010071 192.481504 731.257925 
C 227.23365 696.505779 246.759943 649.365138 246.759943 600.218182 
C 246.759943 551.071226 227.23365 503.930585 192.481504 469.178439 
C 157.729358 434.426293 110.588718 414.9 61.441761 414.9 
L 61.441761 414.9 
z
" clip-path="url(#p7b90256d54)" style="fill: none; stroke: #808080; stroke-linejoin: miter"/>
   </g>
   <g id="patch_25">
    <path d="M 61.441761 414.9 
C 36.868283 414.9 13.297963 424.663146 -4.07811 442.039219 
C -21.454183 459.415292 -31.21733 482.985613 -31.21733 507.559091 
C -31.21733 532.132569 -21.454183 555.702889 -4.07811 573.078962 
C 13.297963 590.455035 36.868283 600.218182 61.441761 600.218182 
C 86.01524 600.218182 109.58556 590.455035 126.961633 573.078962 
C 144.337706 555.702889 154.100852 532.132569 154.100852 507.559091 
C 154.100852 482.985613 144.337706 459.415292 126.961633 442.039219 
C 109.58556 424.663146 86.01524 414.9 61.441761 414.9 
L 61.441761 414.9 
z
" clip-path="url(#p7b90256d54)" style="fill: none; stroke: #808080; stroke-linejoin: miter"/>
   </g>
   <g id="patch_26">
    <path d="M 61.441761 414.9 
C 49.155022 414.9 37.369862 419.781573 28.681826 428.46961 
C 19.993789 437.157646 15.112216 448.942806 15.112216 461.229545 
C 15.112216 473.516285 19.993789 485.301445 28.681826 493.989481 
C 37.369862 502.677518 49.155022 507.559091 61.441761 507.559091 
C 73.7285 507.559091 85.513661 502.677518 94.201697 493.989481 
C 102.889734 485.301445 107.771307 473.516285 107.771307 461.229545 
C 107.771307 448.942806 102.889734 437.157646 94.201697 428.46961 
C 85.513661 419.781573 73.7285 414.9 61.441761 414.9 
L 61.441761 414.9 
z
" clip-path="url(#p7b90256d54)" style="fill: none; stroke: #808080; stroke-linejoin: miter"/>
   </g>
   <g id="patch_27">
    <path d="M 61.441761 414.9 
C 55.298392 414.9 49.405812 417.340787 45.061793 421.684805 
C 40.717775 426.028823 38.276989 431.921403 38.276989 438.064773 
C 38.276989 444.208142 40.717775 450.100722 45.061793 454.444741 
C 49.405812 458.788759 55.298392 461.229545 61.441761 461.229545 
C 67.585131 461.229545 73.477711 458.788759 77.821729 454.444741 
C 82.165748 450.100722 84.606534 444.208142 84.606534 438.064773 
C 84.606534 431.921403 82.165748 426.028823 77.821729 421.684805 
C 73.477711 417.340787 67.585131 414.9 61.441761 414.9 
L 61.441761 414.9 
z
" clip-path="url(#p7b90256d54)" style="fill: none; stroke: #808080; stroke-linejoin: miter"/>
   </g>
   <g id="patch_28">
    <path d="M 61.441761 414.9 
C 58.370077 414.9 55.423787 416.120393 53.251777 418.292402 
C 51.079768 420.464412 49.859375 423.410702 49.859375 426.482386 
C 49.859375 429.554071 51.079768 432.500361 53.251777 434.67237 
C 55.423787 436.844379 58.370077 438.064773 61.441761 438.064773 
C 64.513446 438.064773 67.459736 436.844379 69.631745 434.67237 
C 71.803754 432.500361 73.024148 429.554071 73.024148 426.482386 
C 73.024148 423.410702 71.803754 420.464412 69.631745 418.292402 
C 67.459736 416.120393 64.513446 414.9 61.441761 414.9 
L 61.441761 414.9 
z
" clip-path="url(#p7b90256d54)" style="fill: none; stroke: #808080; stroke-linejoin: miter"/>
   </g>
   <g id="patch_29">
    <path d="M 432.078125 785.536364 
C 530.372038 785.536364 624.653319 746.483778 694.157611 676.979486 
C 763.661903 607.475194 802.714489 513.193913 802.714489 414.9 
C 802.714489 316.606087 763.661903 222.324806 694.157611 152.820514 
C 624.653319 83.316222 530.372038 44.263636 432.078125 44.263636 
C 333.784212 44.263636 239.502931 83.316222 169.998639 152.820514 
C 100.494347 222.324806 61.441761 316.606087 61.441761 414.9 
C 61.441761 513.193913 100.494347 607.475194 169.998639 676.979486 
C 239.502931 746.483778 333.784212 785.536364 432.078125 785.536364 
L 432.078125 785.536364 
z
" clip-path="url(#p7b90256d54)" style="fill: none; stroke: #000000; stroke-linejoin: miter"/>
   </g>
   <g id="patch_30">
    <path d="M 246.759943 600.218182 
C 295.906899 600.218182 343.04754 580.691889 377.799686 545.939743 
C 412.551832 511.187597 432.078125 464.046956 432.078125 414.9 
C 432.078125 365.753044 412.551832 318.612403 377.799686 283.860257 
C 343.04754 249.108111 295.906899 229.581818 246.759943 229.581818 
C 197.612987 229.581818 150.472346 249.108111 115.7202 283.860257 
C 80.968054 318.612403 61.441761 365.753044 61.441761 414.9 
C 61.441761 464.046956 80.968054 511.187597 115.7202 545.939743 
C 150.472346 580.691889 197.612987 600.218182 246.759943 600.218182 
L 246.759943 600.218182 
z
" clip-path="url(#p7b90256d54)" style="fill: none; stroke: #000000; stroke-linejoin: miter"/>
   </g>
   <g id="patch_31">
    <path d="M 61.441761 414.9 
C 159.735674 414.9 254.016955 375.847415 323.521247 306.343122 
C 393.02554 236.83883 432.078125 142.557549 432.078125 44.263636 
C 432.078125 -54.030276 393.02554 -148.311558 323.521247 -217.81585 
C 254.016955 -287.320142 159.735674 -326.372727 61.441761 -326.372727 
C -36.852151 -326.372727 -131.133433 -287.320142 -200.637725 -217.81585 
C -270.142017 -148.311558 -309.194602 -54.030276 -309.194602 44.263636 
C -309.194602 142.557549 -270.142017 236.83883 -200.637725 306.343122 
C -131.133433 375.847415 -36.852151 414.9 61.441761 414.9 
L 61.441761 414.9 
z
" clip-path="url(#p7b90256d54)" style="fill: none; stroke: #000000; stroke-linejoin: miter"/>
   </g>
   <g id="patch_32">
    <path d="M 61.441761 414.9 
C -36.852151 414.9 -131.133433 453.952585 -200.637725 523.456878 
C -270.142017 592.96117 -309.194602 687.242451 -309.194602 785.536364 
C -309.194602 883.830276 -270.142017 978.111558 -200.637725 1047.61585 
C -131.133433 1117.120142 -36.852151 1156.172727 61.441761 1156.172727 
C 159.735674 1156.172727 254.016955 1117.120142 323.521247 1047.61585 
C 393.02554 978.111558 432.078125 883.830276 432.078125 785.536364 
C 432.078125 687.242451 393.02554 592.96117 323.521247 523.456878 
C 254.016955 453.952585 159.735674 414.9 61.441761 414.9 
L 61.441761 414.9 
z
" clip-path="url(#p7b90256d54)" style="fill: none; stroke: #000000; stroke-linejoin: miter"/>
   </g>
   <g id="matplotlib.axis_1">
    <g id="text_1">
     <!-- Reëel deel -->
     <g transform="translate(405.904688 837.698438)scale(0.1 -0.1)">
      <defs>
       <path id="DejaVuSans-52" d="M 2841 2188 
Q 3044 2119 3236 1894 
Q 3428 1669 3622 1275 
L 4263 0 
L 3584 0 
L 2988 1197 
Q 2756 1666 2539 1819 
Q 2322 1972 1947 1972 
L 1259 1972 
L 1259 0 
L 628 0 
L 628 4666 
L 2053 4666 
Q 2853 4666 3247 4331 
Q 3641 3997 3641 3322 
Q 3641 2881 3436 2590 
Q 3231 2300 2841 2188 
z
M 1259 4147 
L 1259 2491 
L 2053 2491 
Q 2509 2491 2742 2702 
Q 2975 2913 2975 3322 
Q 2975 3731 2742 3939 
Q 2509 4147 2053 4147 
L 1259 4147 
z
" transform="scale(0.015625)"/>
       <path id="DejaVuSans-65" d="M 3597 1894 
L 3597 1613 
L 953 1613 
Q 991 1019 1311 708 
Q 1631 397 2203 397 
Q 2534 397 2845 478 
Q 3156 559 3463 722 
L 3463 178 
Q 3153 47 2828 -22 
Q 2503 -91 2169 -91 
Q 1331 -91 842 396 
Q 353 884 353 1716 
Q 353 2575 817 3079 
Q 1281 3584 2069 3584 
Q 2775 3584 3186 3129 
Q 3597 2675 3597 1894 
z
M 3022 2063 
Q 3016 2534 2758 2815 
Q 2500 3097 2075 3097 
Q 1594 3097 1305 2825 
Q 1016 2553 972 2059 
L 3022 2063 
z
" transform="scale(0.015625)"/>
       <path id="DejaVuSans-eb" d="M 3597 1894 
L 3597 1613 
L 953 1613 
Q 991 1019 1311 708 
Q 1631 397 2203 397 
Q 2534 397 2845 478 
Q 3156 559 3463 722 
L 3463 178 
Q 3153 47 2828 -22 
Q 2503 -91 2169 -91 
Q 1331 -91 842 396 
Q 353 884 353 1716 
Q 353 2575 817 3079 
Q 1281 3584 2069 3584 
Q 2775 3584 3186 3129 
Q 3597 2675 3597 1894 
z
M 3022 2063 
Q 3016 2534 2758 2815 
Q 2500 3097 2075 3097 
Q 1594 3097 1305 2825 
Q 1016 2553 972 2059 
L 3022 2063 
z
M 2328 4850 
L 2963 4850 
L 2963 4219 
L 2328 4219 
L 2328 4850 
z
M 1106 4850 
L 1741 4850 
L 1741 4219 
L 1106 4219 
L 1106 4850 
z
" transform="scale(0.015625)"/>
       <path id="DejaVuSans-6c" d="M 603 4863 
L 1178 4863 
L 1178 0 
L 603 0 
L 603 4863 
z
" transform="scale(0.015625)"/>
       <path id="DejaVuSans-20" transform="scale(0.015625)"/>
       <path id="DejaVuSans-64" d="M 2906 2969 
L 2906 4863 
L 3481 4863 
L 3481 0 
L 2906 0 
L 2906 525 
Q 2725 213 2448 61 
Q 2172 -91 1784 -91 
Q 1150 -91 751 415 
Q 353 922 353 1747 
Q 353 2572 751 3078 
Q 1150 3584 1784 3584 
Q 2172 3584 2448 3432 
Q 2725 3281 2906 2969 
z
M 947 1747 
Q 947 1113 1208 752 
Q 1469 391 1925 391 
Q 2381 391 2643 752 
Q 2906 1113 2906 1747 
Q 2906 2381 2643 2742 
Q 2381 3103 1925 3103 
Q 1469 3103 1208 2742 
Q 947 2381 947 1747 
z
" transform="scale(0.015625)"/>
      </defs>
      <use xlink:href="#DejaVuSans-52"/>
      <use xlink:href="#DejaVuSans-65" x="64.982422"/>
      <use xlink:href="#DejaVuSans-eb" x="126.505859"/>
      <use xlink:href="#DejaVuSans-65" x="188.029297"/>
      <use xlink:href="#DejaVuSans-6c" x="249.552734"/>
      <use xlink:href="#DejaVuSans-20" x="277.335938"/>
      <use xlink:href="#DejaVuSans-64" x="309.123047"/>
      <use xlink:href="#DejaVuSans-65" x="372.599609"/>
      <use xlink:href="#DejaVuSans-65" x="434.123047"/>
      <use xlink:href="#DejaVuSans-6c" x="495.646484"/>
     </g>
    </g>
   </g>
   <g id="matplotlib.axis_2">
    <g id="text_2">
     <!-- Imaginair deel -->
     <g transform="translate(14.798438 450.855469)rotate(-90)scale(0.1 -0.1)">
      <defs>
       <path id="DejaVuSans-49" d="M 628 4666 
L 1259 4666 
L 1259 0 
L 628 0 
L 628 4666 
z
" transform="scale(0.015625)"/>
       <path id="DejaVuSans-6d" d="M 3328 2828 
Q 3544 3216 3844 3400 
Q 4144 3584 4550 3584 
Q 5097 3584 5394 3201 
Q 5691 2819 5691 2113 
L 5691 0 
L 5113 0 
L 5113 2094 
Q 5113 2597 4934 2840 
Q 4756 3084 4391 3084 
Q 3944 3084 3684 2787 
Q 3425 2491 3425 1978 
L 3425 0 
L 2847 0 
L 2847 2094 
Q 2847 2600 2669 2842 
Q 2491 3084 2119 3084 
Q 1678 3084 1418 2786 
Q 1159 2488 1159 1978 
L 1159 0 
L 581 0 
L 581 3500 
L 1159 3500 
L 1159 2956 
Q 1356 3278 1631 3431 
Q 1906 3584 2284 3584 
Q 2666 3584 2933 3390 
Q 3200 3197 3328 2828 
z
" transform="scale(0.015625)"/>
       <path id="DejaVuSans-61" d="M 2194 1759 
Q 1497 1759 1228 1600 
Q 959 1441 959 1056 
Q 959 750 1161 570 
Q 1363 391 1709 391 
Q 2188 391 2477 730 
Q 2766 1069 2766 1631 
L 2766 1759 
L 2194 1759 
z
M 3341 1997 
L 3341 0 
L 2766 0 
L 2766 531 
Q 2569 213 2275 61 
Q 1981 -91 1556 -91 
Q 1019 -91 701 211 
Q 384 513 384 1019 
Q 384 1609 779 1909 
Q 1175 2209 1959 2209 
L 2766 2209 
L 2766 2266 
Q 2766 2663 2505 2880 
Q 2244 3097 1772 3097 
Q 1472 3097 1187 3025 
Q 903 2953 641 2809 
L 641 3341 
Q 956 3463 1253 3523 
Q 1550 3584 1831 3584 
Q 2591 3584 2966 3190 
Q 3341 2797 3341 1997 
z
" transform="scale(0.015625)"/>
       <path id="DejaVuSans-67" d="M 2906 1791 
Q 2906 2416 2648 2759 
Q 2391 3103 1925 3103 
Q 1463 3103 1205 2759 
Q 947 2416 947 1791 
Q 947 1169 1205 825 
Q 1463 481 1925 481 
Q 2391 481 2648 825 
Q 2906 1169 2906 1791 
z
M 3481 434 
Q 3481 -459 3084 -895 
Q 2688 -1331 1869 -1331 
Q 1566 -1331 1297 -1286 
Q 1028 -1241 775 -1147 
L 775 -588 
Q 1028 -725 1275 -790 
Q 1522 -856 1778 -856 
Q 2344 -856 2625 -561 
Q 2906 -266 2906 331 
L 2906 616 
Q 2728 306 2450 153 
Q 2172 0 1784 0 
Q 1141 0 747 490 
Q 353 981 353 1791 
Q 353 2603 747 3093 
Q 1141 3584 1784 3584 
Q 2172 3584 2450 3431 
Q 2728 3278 2906 2969 
L 2906 3500 
L 3481 3500 
L 3481 434 
z
" transform="scale(0.015625)"/>
       <path id="DejaVuSans-69" d="M 603 3500 
L 1178 3500 
L 1178 0 
L 603 0 
L 603 3500 
z
M 603 4863 
L 1178 4863 
L 1178 4134 
L 603 4134 
L 603 4863 
z
" transform="scale(0.015625)"/>
       <path id="DejaVuSans-6e" d="M 3513 2113 
L 3513 0 
L 2938 0 
L 2938 2094 
Q 2938 2591 2744 2837 
Q 2550 3084 2163 3084 
Q 1697 3084 1428 2787 
Q 1159 2491 1159 1978 
L 1159 0 
L 581 0 
L 581 3500 
L 1159 3500 
L 1159 2956 
Q 1366 3272 1645 3428 
Q 1925 3584 2291 3584 
Q 2894 3584 3203 3211 
Q 3513 2838 3513 2113 
z
" transform="scale(0.015625)"/>
       <path id="DejaVuSans-72" d="M 2631 2963 
Q 2534 3019 2420 3045 
Q 2306 3072 2169 3072 
Q 1681 3072 1420 2755 
Q 1159 2438 1159 1844 
L 1159 0 
L 581 0 
L 581 3500 
L 1159 3500 
L 1159 2956 
Q 1341 3275 1631 3429 
Q 1922 3584 2338 3584 
Q 2397 3584 2469 3576 
Q 2541 3569 2628 3553 
L 2631 2963 
z
" transform="scale(0.015625)"/>
      </defs>
      <use xlink:href="#DejaVuSans-49"/>
      <use xlink:href="#DejaVuSans-6d" x="29.492188"/>
      <use xlink:href="#DejaVuSans-61" x="126.904297"/>
      <use xlink:href="#DejaVuSans-67" x="188.183594"/>
      <use xlink:href="#DejaVuSans-69" x="251.660156"/>
      <use xlink:href="#DejaVuSans-6e" x="279.443359"/>
      <use xlink:href="#DejaVuSans-61" x="342.822266"/>
      <use xlink:href="#DejaVuSans-69" x="404.101562"/>
      <use xlink:href="#DejaVuSans-72" x="431.884766"/>
      <use xlink:href="#DejaVuSans-20" x="472.998047"/>
      <use xlink:href="#DejaVuSans-64" x="504.785156"/>
      <use xlink:href="#DejaVuSans-65" x="568.261719"/>
      <use xlink:href="#DejaVuSans-65" x="629.785156"/>
      <use xlink:href="#DejaVuSans-6c" x="691.308594"/>
     </g>
    </g>
   </g>
   <g id="line2d_1">
    <path d="M 24.378125 414.9 
L 839.778125 414.9 
" clip-path="url(#p7b90256d54)" style="fill: none; stroke: #000000; stroke-width: 0.1; stroke-linecap: square"/>
   </g>
   <g id="line2d_2">
    <path d="M 61.441761 822.6 
L 61.441761 7.2 
" clip-path="url(#p7b90256d54)" style="fill: none; stroke: #000000; stroke-width: 1.5; stroke-linecap: square"/>
   </g>
   <g id="line2d_3"/>
   <g id="line2d_4">
    <path d="M 594.491812 414.9 
L 594.392874 420.568156 
L 594.096181 426.229406 
L 593.602093 431.876853 
L 592.911214 437.503617 
L 592.024384 443.102841 
L 590.942684 448.667704 
L 589.667432 454.191427 
L 588.200182 459.667279 
L 586.542721 465.08859 
L 584.697069 470.448753 
L 582.665474 475.741238 
L 580.450411 480.959598 
L 578.05458 486.097474 
L 575.480899 491.148608 
L 572.732504 496.106844 
L 569.812743 500.966142 
L 566.725174 505.720581 
L 563.473558 510.36437 
L 560.061857 514.89185 
L 556.494228 519.297506 
L 552.775016 523.575969 
L 548.908754 527.722027 
L 544.900152 531.730629 
L 540.754094 535.596891 
L 536.475631 539.316103 
L 532.069975 542.883732 
L 527.542495 546.295433 
L 522.898706 549.547049 
L 518.144267 552.634618 
L 513.284969 555.554379 
L 508.326733 558.302774 
L 503.275599 560.876455 
L 498.137723 563.272286 
L 492.919363 565.487349 
L 487.626878 567.518944 
L 482.266715 569.364596 
L 476.845404 571.022057 
L 471.369552 572.489307 
L 465.845829 573.764559 
L 460.280966 574.846259 
L 454.681742 575.733089 
L 449.054978 576.423968 
L 443.407531 576.918056 
L 437.746281 577.214749 
L 432.078125 577.313687 
L 426.409969 577.214749 
L 420.748719 576.918056 
L 415.101272 576.423968 
L 409.474508 575.733089 
L 403.875284 574.846259 
L 398.310421 573.764559 
L 392.786698 572.489307 
L 387.310846 571.022057 
L 381.889535 569.364596 
L 376.529372 567.518944 
L 371.236887 565.487349 
L 366.018527 563.272286 
L 360.880651 560.876455 
L 355.829517 558.302774 
L 350.871281 555.554379 
L 346.011983 552.634618 
L 341.257544 549.547049 
L 336.613755 546.295433 
L 332.086275 542.883732 
L 327.680619 539.316103 
L 323.402156 535.596891 
L 319.256098 531.730629 
L 315.247496 527.722027 
L 311.381234 523.575969 
L 307.662022 519.297506 
L 304.094393 514.89185 
L 300.682692 510.36437 
L 297.431076 505.720581 
L 294.343507 500.966142 
L 291.423746 496.106844 
L 288.675351 491.148608 
L 286.10167 486.097474 
L 283.705839 480.959598 
L 281.490776 475.741238 
L 279.459181 470.448753 
L 277.613529 465.08859 
L 275.956068 459.667279 
L 274.488818 454.191427 
L 273.213566 448.667704 
L 272.131866 443.102841 
L 271.245036 437.503617 
L 270.554157 431.876853 
L 270.060069 426.229406 
L 269.763376 420.568156 
L 269.664438 414.9 
L 269.763376 409.231844 
L 270.060069 403.570594 
L 270.554157 397.923147 
L 271.245036 392.296383 
L 272.131866 386.697159 
L 273.213566 381.132296 
L 274.488818 375.608573 
L 275.956068 370.132721 
L 277.613529 364.71141 
L 279.459181 359.351247 
L 281.490776 354.058762 
L 283.705839 348.840402 
L 286.10167 343.702526 
L 288.675351 338.651392 
L 291.423746 333.693156 
L 294.343507 328.833858 
L 297.431076 324.079419 
L 300.682692 319.43563 
L 304.094393 314.90815 
L 307.662022 310.502494 
L 311.381234 306.224031 
L 315.247496 302.077973 
L 319.256098 298.069371 
L 323.402156 294.203109 
L 327.680619 290.483897 
L 332.086275 286.916268 
L 336.613755 283.504567 
L 341.257544 280.252951 
L 346.011983 277.165382 
L 350.871281 274.245621 
L 355.829517 271.497226 
L 358.343854 270.188345 
L 358.343854 270.188345 
" clip-path="url(#p737e7d5c96)" style="fill: none; stroke: #1f77b4; stroke-width: 1.5; stroke-linecap: square"/>
   </g>
   <g id="line2d_5">
    <path d="M 358.343854 270.188345 
" clip-path="url(#p737e7d5c96)" style="fill: none; stroke: #008000; stroke-width: 1.5; stroke-linecap: square"/>
    <defs>
     <path id="m1b26ec76a6" d="M 0 5 
C 1.326016 5 2.597899 4.473168 3.535534 3.535534 
C 4.473168 2.597899 5 1.326016 5 0 
C 5 -1.326016 4.473168 -2.597899 3.535534 -3.535534 
C 2.597899 -4.473168 1.326016 -5 0 -5 
C -1.326016 -5 -2.597899 -4.473168 -3.535534 -3.535534 
C -4.473168 -2.597899 -5 -1.326016 -5 0 
C -5 1.326016 -4.473168 2.597899 -3.535534 3.535534 
C -2.597899 4.473168 -1.326016 5 0 5 
z
" style="stroke: #008000"/>
    </defs>
    <g clip-path="url(#p737e7d5c96)">
     <use xlink:href="#m1b26ec76a6" x="358.343854" y="270.188345" style="fill: #008000; stroke: #008000"/>
    </g>
   </g>
   <g id="line2d_6">
    <path d="M 594.491812 414.9 
" clip-path="url(#p737e7d5c96)" style="fill: none; stroke: #ff0000; stroke-width: 1.5; stroke-linecap: square"/>
    <defs>
     <path id="mdfcf057aac" d="M 0 3.75 
C 0.994512 3.75 1.948425 3.354876 2.65165 2.65165 
C 3.354876 1.948425 3.75 0.994512 3.75 0 
C 3.75 -0.994512 3.354876 -1.948425 2.65165 -2.65165 
C 1.948425 -3.354876 0.994512 -3.75 0 -3.75 
C -0.994512 -3.75 -1.948425 -3.354876 -2.65165 -2.65165 
C -3.354876 -1.948425 -3.75 -0.994512 -3.75 0 
C -3.75 0.994512 -3.354876 1.948425 -2.65165 2.65165 
C -1.948425 3.354876 -0.994512 3.75 0 3.75 
z
" style="stroke: #ff0000"/>
    </defs>
    <g clip-path="url(#p737e7d5c96)">
     <use xlink:href="#mdfcf057aac" x="594.491812" y="414.9" style="fill: #ff0000; stroke: #ff0000"/>
    </g>
   </g>
   <g id="line2d_7">
    <path d="M 432.078125 414.9 
" clip-path="url(#p737e7d5c96)" style="fill: none; stroke: #000000; stroke-width: 1.5; stroke-linecap: square"/>
    <defs>
     <path id="m20536b4f26" d="M 0 3.75 
C 0.994512 3.75 1.948425 3.354876 2.65165 2.65165 
C 3.354876 1.948425 3.75 0.994512 3.75 0 
C 3.75 -0.994512 3.354876 -1.948425 2.65165 -2.65165 
C 1.948425 -3.354876 0.994512 -3.75 0 -3.75 
C -0.994512 -3.75 -1.948425 -3.354876 -2.65165 -2.65165 
C -3.354876 -1.948425 -3.75 -0.994512 -3.75 0 
C -3.75 0.994512 -3.354876 1.948425 -2.65165 2.65165 
C -1.948425 3.354876 -0.994512 3.75 0 3.75 
z
" style="stroke: #000000"/>
    </defs>
    <g clip-path="url(#p737e7d5c96)">
     <use xlink:href="#m20536b4f26" x="432.078125" y="414.9" style="stroke: #000000"/>
    </g>
   </g>
   <g id="patch_33">
    <path d="M 24.378125 822.6 
L 24.378125 7.2 
" style="fill: none"/>
   </g>
   <g id="patch_34">
    <path d="M 839.778125 822.6 
L 839.778125 7.2 
" style="fill: none"/>
   </g>
   <g id="patch_35">
    <path d="M 24.378125 822.6 
L 839.778125 822.6 
" style="fill: none"/>
   </g>
   <g id="patch_36">
    <path d="M 24.378125 7.2 
L 839.778125 7.2 
" style="fill: none"/>
   </g>
  </g>
 </g>
 <defs>
  <clipPath id="p737e7d5c96">
   <rect x="24.378125" y="7.2" width="815.4" height="815.4"/>
  </clipPath>
  <clipPath id="p7b90256d54">
   <path d="M 432.078125 785.536364 
C 530.372038 785.536364 624.653319 746.483778 694.157611 676.979486 
C 763.661903 607.475194 802.714489 513.193913 802.714489 414.9 
C 802.714489 316.606087 763.661903 222.324806 694.157611 152.820514 
C 624.653319 83.316222 530.372038 44.263636 432.078125 44.263636 
C 333.784212 44.263636 239.502931 83.316222 169.998639 152.820514 
C 100.494347 222.324806 61.441761 316.606087 61.441761 414.9 
C 61.441761 513.193913 100.494347 607.475194 169.998639 676.979486 
C 239.502931 746.483778 333.784212 785.536364 432.078125 785.536364 
z
"/>
  </clipPath>
 </defs>
</svg>