<?xml version="1.0" encoding="utf-8" standalone="no"?>
<!DOCTYPE svg PUBLIC "-//W3C//DTD SVG 1.1//EN"
  "http://www.w3.org/Graphics/SVG/1.1/DTD/svg11.dtd">
<svg xmlns:xlink="http://www.w3.org/1999/xlink" width="428.424pt" height="180.4pt" viewBox="0 0 428.424 180.4" xmlns="http://www.w3.org/2000/svg" version="1.1">
 <metadata>
  <rdf:RDF xmlns:dc="http://purl.org/dc/elements/1.1/" xmlns:cc="http://creativecommons.org/ns#" xmlns:rdf="http://www.w3.org/1999/02/22-rdf-syntax-ns#">
   <cc:Work>
    <dc:type rdf:resource="http://purl.org/dc/dcmitype/StillImage"/>
    <dc:date>2024-11-18T14:29:55.967804</dc:date>
    <dc:format>image/svg+xml</dc:format>
    <dc:creator>
     <cc:Agent>
      <dc:title>Matplotlib v3.9.2, https://matplotlib.org/</dc:title>
     </cc:Agent>
    </dc:creator>
   </cc:Work>
  </rdf:RDF>
 </metadata>
 <defs>
  <style type="text/css">*{stroke-linejoin: round; stroke-linecap: butt}</style>
 </defs>
 <g id="figure_1">
  <g id="patch_1">
   <path d="M 0 180.4 
L 428.424 180.4 
L 428.424 0 
L 0 0 
z
" style="fill: #ffffff"/>
  </g>
  <g id="axes_1">
   <g id="patch_2">
    <path d="M 49.884 102.28 
C 54.657656 102.28 59.236438 100.383406 62.611922 97.007922 
C 65.987406 93.632438 67.884 89.053656 67.884 84.28 
C 67.884 79.506344 65.987406 74.927562 62.611922 71.552078 
C 59.236438 68.176594 54.657656 66.28 49.884 66.28 
C 45.110344 66.28 40.531562 68.176594 37.156078 71.552078 
C 33.780594 74.927562 31.884 79.506344 31.884 84.28 
C 31.884 89.053656 33.780594 93.632438 37.156078 97.007922 
C 40.531562 100.383406 45.110344 102.28 49.884 102.28 
L 49.884 102.28 
z
" clip-path="url(#p05dffb15a7)" style="fill: none; stroke: #000000; stroke-width: 2; stroke-linejoin: miter"/>
   </g>
   <g id="patch_3">
    <path d="M 112.884 62.68 
C 112.884 61.261757 112.744319 59.857305 112.472949 58.547019 
C 112.20158 57.236733 111.803801 56.046096 111.302377 55.043247 
C 110.800952 54.040398 110.205633 53.244839 109.550491 52.702101 
C 108.895348 52.159363 108.193122 51.88 107.484 51.88 
C 106.774878 51.88 106.072652 52.159363 105.417509 52.702101 
C 104.762367 53.244839 104.167048 54.040398 103.665623 55.043247 
C 103.164199 56.046096 102.76642 57.236733 102.495051 58.547019 
C 102.223681 59.857305 102.084 61.261757 102.084 62.68 
C 102.084 64.098243 102.223681 65.502695 102.495051 66.812981 
C 102.76642 68.123267 103.164199 69.313904 103.665623 70.316753 
C 104.167048 71.319602 104.762367 72.115161 105.417509 72.657899 
C 106.072652 73.200637 106.774878 73.48 107.484 73.48 
C 108.193122 73.48 108.895348 73.200637 109.550491 72.657899 
C 110.205633 72.115161 110.800952 71.319602 111.302377 70.316753 
C 111.803801 69.313904 112.20158 68.123267 112.472949 66.812981 
C 112.744319 65.502695 112.884 64.098243 112.884 62.68 
" clip-path="url(#p05dffb15a7)" style="fill: none; stroke: #000000; stroke-width: 2; stroke-linejoin: miter"/>
   </g>
   <g id="patch_4">
    <path d="M 244.284 73.48 
C 245.71562 73.48 247.090069 72.341369 248.102377 70.316753 
C 249.114685 68.292137 249.684 65.54324 249.684 62.68 
C 249.684 59.81676 249.114685 57.067863 248.102377 55.043247 
C 247.090069 53.018631 245.71562 51.88 244.284 51.88 
" clip-path="url(#p05dffb15a7)" style="fill: none; stroke: #000000; stroke-width: 2; stroke-linejoin: miter"/>
   </g>
   <g id="patch_5">
    <path d="M 265.884 98.68 
C 267.077016 98.68 268.22239 98.205571 269.065981 97.361981 
C 269.909571 96.51839 270.384 95.373016 270.384 94.18 
C 270.384 92.986984 269.909571 91.84161 269.065981 90.998019 
C 268.22239 90.154429 267.077016 89.68 265.884 89.68 
" clip-path="url(#p05dffb15a7)" style="fill: none; stroke: #000000; stroke-width: 2; stroke-linejoin: miter"/>
   </g>
   <g id="patch_6">
    <path d="M 265.884 107.68 
C 267.077016 107.68 268.22239 107.205571 269.065981 106.361981 
C 269.909571 105.51839 270.384 104.373016 270.384 103.18 
C 270.384 101.986984 269.909571 100.84161 269.065981 99.998019 
C 268.22239 99.154429 267.077016 98.68 265.884 98.68 
" clip-path="url(#p05dffb15a7)" style="fill: none; stroke: #000000; stroke-width: 2; stroke-linejoin: miter"/>
   </g>
   <g id="patch_7">
    <path d="M 265.884 116.68 
C 267.077016 116.68 268.22239 116.205571 269.065981 115.361981 
C 269.909571 114.51839 270.384 113.373016 270.384 112.18 
C 270.384 110.986984 269.909571 109.84161 269.065981 108.998019 
C 268.22239 108.154429 267.077016 107.68 265.884 107.68 
" clip-path="url(#p05dffb15a7)" style="fill: none; stroke: #000000; stroke-width: 2; stroke-linejoin: miter"/>
   </g>
   <g id="patch_8">
    <path d="M 265.884 125.68 
C 267.077016 125.68 268.22239 125.205571 269.065981 124.361981 
C 269.909571 123.51839 270.384 122.373016 270.384 121.18 
C 270.384 119.986984 269.909571 118.84161 269.065981 117.998019 
C 268.22239 117.154429 267.077016 116.68 265.884 116.68 
" clip-path="url(#p05dffb15a7)" style="fill: none; stroke: #000000; stroke-width: 2; stroke-linejoin: miter"/>
   </g>
   <g id="patch_9">
    <path d="M 292.884 62.68 
C 292.884 61.261757 292.744319 59.857305 292.472949 58.547019 
C 292.20158 57.236733 291.803801 56.046096 291.302377 55.043247 
C 290.800952 54.040398 290.205633 53.244839 289.550491 52.702101 
C 288.895348 52.159363 288.193122 51.88 287.484 51.88 
C 286.774878 51.88 286.072652 52.159363 285.417509 52.702101 
C 284.762367 53.244839 284.167048 54.040398 283.665623 55.043247 
C 283.164199 56.046096 282.76642 57.236733 282.495051 58.547019 
C 282.223681 59.857305 282.084 61.261757 282.084 62.68 
C 282.084 64.098243 282.223681 65.502695 282.495051 66.812981 
C 282.76642 68.123267 283.164199 69.313904 283.665623 70.316753 
C 284.167048 71.319602 284.762367 72.115161 285.417509 72.657899 
C 286.072652 73.200637 286.774878 73.48 287.484 73.48 
C 288.193122 73.48 288.895348 73.200637 289.550491 72.657899 
C 290.205633 72.115161 290.800952 71.319602 291.302377 70.316753 
C 291.803801 69.313904 292.20158 68.123267 292.472949 66.812981 
C 292.744319 65.502695 292.884 64.098243 292.884 62.68 
" clip-path="url(#p05dffb15a7)" style="fill: none; stroke: #000000; stroke-width: 2; stroke-linejoin: miter"/>
   </g>
   <g id="patch_10">
    <path d="M 388.284 73.48 
C 389.71562 73.48 391.090069 72.341369 392.102377 70.316753 
C 393.114685 68.292137 393.684 65.54324 393.684 62.68 
C 393.684 59.81676 393.114685 57.067863 392.102377 55.043247 
C 391.090069 53.018631 389.71562 51.88 388.284 51.88 
" clip-path="url(#p05dffb15a7)" style="fill: none; stroke: #000000; stroke-width: 2; stroke-linejoin: miter"/>
   </g>
   <g id="line2d_1">
    <path d="M 49.884 120.28 
L 49.884 134.68 
L 40.884 134.68 
L 58.884 134.68 
M 43.584 139 
L 56.184 139 
M 48.084 143.32 
L 51.684 143.32 
" clip-path="url(#p05dffb15a7)" style="fill: none; stroke: #000000; stroke-width: 2; stroke-linecap: round"/>
   </g>
   <g id="line2d_2">
    <path d="M 49.884 120.28 
L 49.884 102.28 
L 49.884 102.28 
M 49.884 66.28 
L 49.884 66.28 
L 49.884 48.28 
" clip-path="url(#p05dffb15a7)" style="fill: none; stroke: #000000; stroke-width: 2; stroke-linecap: round"/>
   </g>
   <g id="line2d_3">
    <path d="M 58.884 84.28 
L 58.134 82.416503 
L 57.384 80.68 
L 56.634 79.188831 
L 55.884 78.044617 
L 55.134 77.325334 
L 54.384 77.08 
L 53.634 77.325334 
L 52.884 78.044617 
L 52.134 79.188831 
L 51.384 80.68 
L 50.634 82.416503 
L 49.884 84.28 
L 49.134 86.143497 
L 48.384 87.88 
L 47.634 89.371169 
L 46.884 90.515383 
L 46.134 91.234666 
L 45.384 91.48 
L 44.634 91.234666 
L 43.884 90.515383 
L 43.134 89.371169 
L 42.384 87.88 
L 41.634 86.143497 
L 40.884 84.28 
" clip-path="url(#p05dffb15a7)" style="fill: none; stroke: #000000; stroke-width: 2; stroke-linecap: round"/>
   </g>
   <g id="line2d_4">
    <path d="M 49.884 48.28 
L 67.884 48.28 
L 85.884 48.28 
" clip-path="url(#p05dffb15a7)" style="fill: none; stroke: #000000; stroke-width: 2; stroke-linecap: round"/>
   </g>
   <g id="line2d_5">
    <path d="M 85.884 48.28 
L 85.884 55.48 
L 85.884 62.68 
" clip-path="url(#p05dffb15a7)" style="fill: none; stroke: #000000; stroke-width: 2; stroke-linecap: round"/>
   </g>
   <g id="line2d_6">
    <path d="M 85.884 62.68 
L 107.484 62.68 
M 249.684 62.68 
L 265.884 62.68 
" clip-path="url(#p05dffb15a7)" style="fill: none; stroke: #000000; stroke-width: 2; stroke-linecap: round"/>
   </g>
   <g id="line2d_7">
    <path d="M 107.484 51.88 
L 244.284 51.88 
" clip-path="url(#p05dffb15a7)" style="fill: none; stroke: #000000; stroke-width: 2; stroke-linecap: round"/>
   </g>
   <g id="line2d_8">
    <path d="M 107.484 73.48 
L 244.284 73.48 
" clip-path="url(#p05dffb15a7)" style="fill: none; stroke: #000000; stroke-width: 2; stroke-linecap: round"/>
   </g>
   <g id="line2d_9">
    <path d="M 265.884 62.68 
L 265.884 89.68 
M 265.884 125.68 
L 265.884 152.68 
" clip-path="url(#p05dffb15a7)" style="fill: none; stroke: #000000; stroke-width: 2; stroke-linecap: round"/>
   </g>
   <g id="line2d_10">
    <path d="M 265.884 152.68 
L 265.884 167.08 
L 256.884 167.08 
L 274.884 167.08 
M 259.584 171.4 
L 272.184 171.4 
M 264.084 175.72 
L 267.684 175.72 
" clip-path="url(#p05dffb15a7)" style="fill: none; stroke: #000000; stroke-width: 2; stroke-linecap: round"/>
   </g>
   <g id="line2d_11">
    <path d="M 265.884 62.68 
L 287.484 62.68 
M 393.684 62.68 
L 409.884 62.68 
" clip-path="url(#p05dffb15a7)" style="fill: none; stroke: #000000; stroke-width: 2; stroke-linecap: round"/>
   </g>
   <g id="line2d_12">
    <path d="M 287.484 51.88 
L 388.284 51.88 
" clip-path="url(#p05dffb15a7)" style="fill: none; stroke: #000000; stroke-width: 2; stroke-linecap: round"/>
   </g>
   <g id="line2d_13">
    <path d="M 287.484 73.48 
L 388.284 73.48 
" clip-path="url(#p05dffb15a7)" style="fill: none; stroke: #000000; stroke-width: 2; stroke-linecap: round"/>
   </g>
   <g id="line2d_14">
    <path d="M 409.884 62.68 
L 409.884 41.08 
L 396.204 19.48 
L 423.564 19.48 
L 409.884 41.08 
" clip-path="url(#p05dffb15a7)" style="fill: none; stroke: #000000; stroke-width: 2; stroke-linecap: round"/>
   </g>
   <g id="line2d_15">
    <path d="M 244.284 51.88 
L 244.284 33.88 
L 244.284 15.88 
" clip-path="url(#p05dffb15a7)" style="fill: none; stroke: #000000; stroke-width: 2; stroke-linecap: round"/>
   </g>
   <g id="line2d_16">
    <path d="M 244.284 15.88 
L 265.884 15.88 
L 287.484 15.88 
" clip-path="url(#p05dffb15a7)" style="fill: none; stroke: #000000; stroke-width: 2; stroke-linecap: round"/>
   </g>
   <g id="line2d_17">
    <path d="M 287.484 15.88 
L 287.484 33.88 
L 287.484 51.88 
" clip-path="url(#p05dffb15a7)" style="fill: none; stroke: #000000; stroke-width: 2; stroke-linecap: round"/>
   </g>
   <g id="line2d_18">
    <path d="M 49.884 120.28 
L 78.684 120.28 
L 107.484 120.28 
" clip-path="url(#p05dffb15a7)" style="fill: none; stroke: #000000; stroke-width: 2; stroke-linecap: round"/>
   </g>
   <g id="line2d_19">
    <path d="M 107.484 120.28 
L 107.484 96.88 
L 107.484 73.48 
" clip-path="url(#p05dffb15a7)" style="fill: none; stroke: #000000; stroke-width: 2; stroke-linecap: round"/>
   </g>
   <g id="text_1">
    <!-- $V_{in}$ -->
    <g transform="translate(9.384 88.143125) scale(0.14 -0.14)">
     <defs>
      <path id="DejaVuSans-Oblique-56" d="M 1319 0 
L 500 4666 
L 1119 4666 
L 1797 653 
L 4063 4666 
L 4750 4666 
L 2053 0 
L 1319 0 
z
" transform="scale(0.015625)"/>
      <path id="DejaVuSans-Oblique-69" d="M 1172 4863 
L 1747 4863 
L 1606 4134 
L 1031 4134 
L 1172 4863 
z
M 909 3500 
L 1484 3500 
L 800 0 
L 225 0 
L 909 3500 
z
" transform="scale(0.015625)"/>
      <path id="DejaVuSans-Oblique-6e" d="M 3566 2113 
L 3156 0 
L 2578 0 
L 2988 2091 
Q 3016 2238 3031 2350 
Q 3047 2463 3047 2528 
Q 3047 2791 2881 2937 
Q 2716 3084 2419 3084 
Q 1956 3084 1622 2776 
Q 1288 2469 1184 1941 
L 800 0 
L 225 0 
L 903 3500 
L 1478 3500 
L 1363 2950 
Q 1603 3253 1940 3418 
Q 2278 3584 2650 3584 
Q 3113 3584 3367 3334 
Q 3622 3084 3622 2631 
Q 3622 2519 3608 2391 
Q 3594 2263 3566 2113 
z
" transform="scale(0.015625)"/>
     </defs>
     <use xlink:href="#DejaVuSans-Oblique-56" transform="translate(0 0.09375)"/>
     <use xlink:href="#DejaVuSans-Oblique-69" transform="translate(68.408203 -16.3125) scale(0.7)"/>
     <use xlink:href="#DejaVuSans-Oblique-6e" transform="translate(87.856445 -16.3125) scale(0.7)"/>
    </g>
   </g>
   <g id="text_2">
    <!-- $50\Omega$ -->
    <g transform="translate(161.604 45.368437) scale(0.14 -0.14)">
     <defs>
      <path id="DejaVuSans-35" d="M 691 4666 
L 3169 4666 
L 3169 4134 
L 1269 4134 
L 1269 2991 
Q 1406 3038 1543 3061 
Q 1681 3084 1819 3084 
Q 2600 3084 3056 2656 
Q 3513 2228 3513 1497 
Q 3513 744 3044 326 
Q 2575 -91 1722 -91 
Q 1428 -91 1123 -41 
Q 819 9 494 109 
L 494 744 
Q 775 591 1075 516 
Q 1375 441 1709 441 
Q 2250 441 2565 725 
Q 2881 1009 2881 1497 
Q 2881 1984 2565 2268 
Q 2250 2553 1709 2553 
Q 1456 2553 1204 2497 
Q 953 2441 691 2322 
L 691 4666 
z
" transform="scale(0.015625)"/>
      <path id="DejaVuSans-30" d="M 2034 4250 
Q 1547 4250 1301 3770 
Q 1056 3291 1056 2328 
Q 1056 1369 1301 889 
Q 1547 409 2034 409 
Q 2525 409 2770 889 
Q 3016 1369 3016 2328 
Q 3016 3291 2770 3770 
Q 2525 4250 2034 4250 
z
M 2034 4750 
Q 2819 4750 3233 4129 
Q 3647 3509 3647 2328 
Q 3647 1150 3233 529 
Q 2819 -91 2034 -91 
Q 1250 -91 836 529 
Q 422 1150 422 2328 
Q 422 3509 836 4129 
Q 1250 4750 2034 4750 
z
" transform="scale(0.015625)"/>
      <path id="DejaVuSans-3a9" d="M 4647 556 
L 4647 0 
L 2772 0 
L 2772 556 
Q 3325 859 3634 1378 
Q 3944 1897 3944 2528 
Q 3944 3278 3531 3731 
Q 3119 4184 2444 4184 
Q 1769 4184 1355 3729 
Q 941 3275 941 2528 
Q 941 1897 1250 1378 
Q 1563 859 2119 556 
L 2119 0 
L 244 0 
L 244 556 
L 1241 556 
Q 747 991 519 1456 
Q 294 1922 294 2497 
Q 294 3491 894 4106 
Q 1491 4722 2444 4722 
Q 3391 4722 3994 4106 
Q 4594 3494 4594 2528 
Q 4594 1922 4372 1459 
Q 4150 997 3647 556 
L 4647 556 
z
" transform="scale(0.015625)"/>
     </defs>
     <use xlink:href="#DejaVuSans-35" transform="translate(0 0.78125)"/>
     <use xlink:href="#DejaVuSans-30" transform="translate(63.623047 0.78125)"/>
     <use xlink:href="#DejaVuSans-3a9" transform="translate(127.246094 0.78125)"/>
    </g>
   </g>
   <g id="text_3">
    <!-- 56 nH -->
    <g transform="translate(220.618687 111.543125) scale(0.14 -0.14)">
     <defs>
      <path id="DejaVuSans-36" d="M 2113 2584 
Q 1688 2584 1439 2293 
Q 1191 2003 1191 1497 
Q 1191 994 1439 701 
Q 1688 409 2113 409 
Q 2538 409 2786 701 
Q 3034 994 3034 1497 
Q 3034 2003 2786 2293 
Q 2538 2584 2113 2584 
z
M 3366 4563 
L 3366 3988 
Q 3128 4100 2886 4159 
Q 2644 4219 2406 4219 
Q 1781 4219 1451 3797 
Q 1122 3375 1075 2522 
Q 1259 2794 1537 2939 
Q 1816 3084 2150 3084 
Q 2853 3084 3261 2657 
Q 3669 2231 3669 1497 
Q 3669 778 3244 343 
Q 2819 -91 2113 -91 
Q 1303 -91 875 529 
Q 447 1150 447 2328 
Q 447 3434 972 4092 
Q 1497 4750 2381 4750 
Q 2619 4750 2861 4703 
Q 3103 4656 3366 4563 
z
" transform="scale(0.015625)"/>
      <path id="DejaVuSans-20" transform="scale(0.015625)"/>
      <path id="DejaVuSans-6e" d="M 3513 2113 
L 3513 0 
L 2938 0 
L 2938 2094 
Q 2938 2591 2744 2837 
Q 2550 3084 2163 3084 
Q 1697 3084 1428 2787 
Q 1159 2491 1159 1978 
L 1159 0 
L 581 0 
L 581 3500 
L 1159 3500 
L 1159 2956 
Q 1366 3272 1645 3428 
Q 1925 3584 2291 3584 
Q 2894 3584 3203 3211 
Q 3513 2838 3513 2113 
z
" transform="scale(0.015625)"/>
      <path id="DejaVuSans-48" d="M 628 4666 
L 1259 4666 
L 1259 2753 
L 3553 2753 
L 3553 4666 
L 4184 4666 
L 4184 0 
L 3553 0 
L 3553 2222 
L 1259 2222 
L 1259 0 
L 628 0 
L 628 4666 
z
" transform="scale(0.015625)"/>
     </defs>
     <use xlink:href="#DejaVuSans-35"/>
     <use xlink:href="#DejaVuSans-36" x="63.623047"/>
     <use xlink:href="#DejaVuSans-20" x="127.246094"/>
     <use xlink:href="#DejaVuSans-6e" x="159.033203"/>
     <use xlink:href="#DejaVuSans-48" x="222.412109"/>
    </g>
   </g>
   <g id="text_4">
    <!-- $50\Omega$ -->
    <g transform="translate(323.604 45.368437) scale(0.14 -0.14)">
     <use xlink:href="#DejaVuSans-35" transform="translate(0 0.78125)"/>
     <use xlink:href="#DejaVuSans-30" transform="translate(63.623047 0.78125)"/>
     <use xlink:href="#DejaVuSans-3a9" transform="translate(127.246094 0.78125)"/>
    </g>
   </g>
   <g id="text_5">
    <!-- 7.2 cm -->
    <g transform="translate(313.859781 87.717813) scale(0.14 -0.14)">
     <defs>
      <path id="DejaVuSans-37" d="M 525 4666 
L 3525 4666 
L 3525 4397 
L 1831 0 
L 1172 0 
L 2766 4134 
L 525 4134 
L 525 4666 
z
" transform="scale(0.015625)"/>
      <path id="DejaVuSans-2e" d="M 684 794 
L 1344 794 
L 1344 0 
L 684 0 
L 684 794 
z
" transform="scale(0.015625)"/>
      <path id="DejaVuSans-32" d="M 1228 531 
L 3431 531 
L 3431 0 
L 469 0 
L 469 531 
Q 828 903 1448 1529 
Q 2069 2156 2228 2338 
Q 2531 2678 2651 2914 
Q 2772 3150 2772 3378 
Q 2772 3750 2511 3984 
Q 2250 4219 1831 4219 
Q 1534 4219 1204 4116 
Q 875 4013 500 3803 
L 500 4441 
Q 881 4594 1212 4672 
Q 1544 4750 1819 4750 
Q 2544 4750 2975 4387 
Q 3406 4025 3406 3419 
Q 3406 3131 3298 2873 
Q 3191 2616 2906 2266 
Q 2828 2175 2409 1742 
Q 1991 1309 1228 531 
z
" transform="scale(0.015625)"/>
      <path id="DejaVuSans-63" d="M 3122 3366 
L 3122 2828 
Q 2878 2963 2633 3030 
Q 2388 3097 2138 3097 
Q 1578 3097 1268 2742 
Q 959 2388 959 1747 
Q 959 1106 1268 751 
Q 1578 397 2138 397 
Q 2388 397 2633 464 
Q 2878 531 3122 666 
L 3122 134 
Q 2881 22 2623 -34 
Q 2366 -91 2075 -91 
Q 1284 -91 818 406 
Q 353 903 353 1747 
Q 353 2603 823 3093 
Q 1294 3584 2113 3584 
Q 2378 3584 2631 3529 
Q 2884 3475 3122 3366 
z
" transform="scale(0.015625)"/>
      <path id="DejaVuSans-6d" d="M 3328 2828 
Q 3544 3216 3844 3400 
Q 4144 3584 4550 3584 
Q 5097 3584 5394 3201 
Q 5691 2819 5691 2113 
L 5691 0 
L 5113 0 
L 5113 2094 
Q 5113 2597 4934 2840 
Q 4756 3084 4391 3084 
Q 3944 3084 3684 2787 
Q 3425 2491 3425 1978 
L 3425 0 
L 2847 0 
L 2847 2094 
Q 2847 2600 2669 2842 
Q 2491 3084 2119 3084 
Q 1678 3084 1418 2786 
Q 1159 2488 1159 1978 
L 1159 0 
L 581 0 
L 581 3500 
L 1159 3500 
L 1159 2956 
Q 1356 3278 1631 3431 
Q 1906 3584 2284 3584 
Q 2666 3584 2933 3390 
Q 3200 3197 3328 2828 
z
" transform="scale(0.015625)"/>
     </defs>
     <use xlink:href="#DejaVuSans-37"/>
     <use xlink:href="#DejaVuSans-2e" x="63.623047"/>
     <use xlink:href="#DejaVuSans-32" x="95.410156"/>
     <use xlink:href="#DejaVuSans-20" x="159.033203"/>
     <use xlink:href="#DejaVuSans-63" x="190.820312"/>
     <use xlink:href="#DejaVuSans-6d" x="245.800781"/>
    </g>
   </g>
   <g id="text_6">
    <!-- $80\Omega$ -->
    <g transform="translate(395.604 12.968437) scale(0.14 -0.14)">
     <defs>
      <path id="DejaVuSans-38" d="M 2034 2216 
Q 1584 2216 1326 1975 
Q 1069 1734 1069 1313 
Q 1069 891 1326 650 
Q 1584 409 2034 409 
Q 2484 409 2743 651 
Q 3003 894 3003 1313 
Q 3003 1734 2745 1975 
Q 2488 2216 2034 2216 
z
M 1403 2484 
Q 997 2584 770 2862 
Q 544 3141 544 3541 
Q 544 4100 942 4425 
Q 1341 4750 2034 4750 
Q 2731 4750 3128 4425 
Q 3525 4100 3525 3541 
Q 3525 3141 3298 2862 
Q 3072 2584 2669 2484 
Q 3125 2378 3379 2068 
Q 3634 1759 3634 1313 
Q 3634 634 3220 271 
Q 2806 -91 2034 -91 
Q 1263 -91 848 271 
Q 434 634 434 1313 
Q 434 1759 690 2068 
Q 947 2378 1403 2484 
z
M 1172 3481 
Q 1172 3119 1398 2916 
Q 1625 2713 2034 2713 
Q 2441 2713 2670 2916 
Q 2900 3119 2900 3481 
Q 2900 3844 2670 4047 
Q 2441 4250 2034 4250 
Q 1625 4250 1398 4047 
Q 1172 3844 1172 3481 
z
" transform="scale(0.015625)"/>
     </defs>
     <use xlink:href="#DejaVuSans-38" transform="translate(0 0.78125)"/>
     <use xlink:href="#DejaVuSans-30" transform="translate(63.623047 0.78125)"/>
     <use xlink:href="#DejaVuSans-3a9" transform="translate(127.246094 0.78125)"/>
    </g>
   </g>
   <g id="patch_11">
    <path d="M 49.884 122.98 
C 50.600048 122.98 51.286866 122.695511 51.793188 122.189188 
C 52.299511 121.682866 52.584 120.996048 52.584 120.28 
C 52.584 119.563952 52.299511 118.877134 51.793188 118.370812 
C 51.286866 117.864489 50.600048 117.58 49.884 117.58 
C 49.167952 117.58 48.481134 117.864489 47.974812 118.370812 
C 47.468489 118.877134 47.184 119.563952 47.184 120.28 
C 47.184 120.996048 47.468489 121.682866 47.974812 122.189188 
C 48.481134 122.695511 49.167952 122.98 49.884 122.98 
z
" clip-path="url(#p05dffb15a7)" style="stroke: #000000; stroke-width: 2; stroke-linejoin: miter"/>
   </g>
   <g id="patch_12">
    <path d="M 265.884 65.38 
C 266.600048 65.38 267.286866 65.095511 267.793188 64.589188 
C 268.299511 64.082866 268.584 63.396048 268.584 62.68 
C 268.584 61.963952 268.299511 61.277134 267.793188 60.770812 
C 267.286866 60.264489 266.600048 59.98 265.884 59.98 
C 265.167952 59.98 264.481134 60.264489 263.974812 60.770812 
C 263.468489 61.277134 263.184 61.963952 263.184 62.68 
C 263.184 63.396048 263.468489 64.082866 263.974812 64.589188 
C 264.481134 65.095511 265.167952 65.38 265.884 65.38 
z
" clip-path="url(#p05dffb15a7)" style="fill: #008000; stroke: #008000; stroke-width: 2; stroke-linejoin: miter"/>
   </g>
   <g id="patch_13">
    <path d="M 409.884 65.38 
C 410.600048 65.38 411.286866 65.095511 411.793188 64.589188 
C 412.299511 64.082866 412.584 63.396048 412.584 62.68 
C 412.584 61.963952 412.299511 61.277134 411.793188 60.770812 
C 411.286866 60.264489 410.600048 59.98 409.884 59.98 
C 409.167952 59.98 408.481134 60.264489 407.974812 60.770812 
C 407.468489 61.277134 407.184 61.963952 407.184 62.68 
C 407.184 63.396048 407.468489 64.082866 407.974812 64.589188 
C 408.481134 65.095511 409.167952 65.38 409.884 65.38 
z
" clip-path="url(#p05dffb15a7)" style="fill: #ff0000; stroke: #ff0000; stroke-width: 2; stroke-linejoin: miter"/>
   </g>
  </g>
 </g>
 <defs>
  <clipPath id="p05dffb15a7">
   <rect x="0" y="0" width="428.424" height="180.4"/>
  </clipPath>
 </defs>
</svg>