<?xml version="1.0" encoding="utf-8" standalone="no"?>
<!DOCTYPE svg PUBLIC "-//W3C//DTD SVG 1.1//EN"
  "http://www.w3.org/Graphics/SVG/1.1/DTD/svg11.dtd">
<svg xmlns:xlink="http://www.w3.org/1999/xlink" width="607.932pt" height="305.48pt" viewBox="0 0 607.932 305.48" xmlns="http://www.w3.org/2000/svg" version="1.1">
 <metadata>
  <rdf:RDF xmlns:dc="http://purl.org/dc/elements/1.1/" xmlns:cc="http://creativecommons.org/ns#" xmlns:rdf="http://www.w3.org/1999/02/22-rdf-syntax-ns#">
   <cc:Work>
    <dc:type rdf:resource="http://purl.org/dc/dcmitype/StillImage"/>
    <dc:date>2025-10-05T15:54:29.408708</dc:date>
    <dc:format>image/svg+xml</dc:format>
    <dc:creator>
     <cc:Agent>
      <dc:title>Matplotlib v3.10.6, https://matplotlib.org/</dc:title>
     </cc:Agent>
    </dc:creator>
   </cc:Work>
  </rdf:RDF>
 </metadata>
 <defs>
  <style type="text/css">*{stroke-linejoin: round; stroke-linecap: butt}</style>
 </defs>
 <g id="figure_1">
  <g id="patch_1">
   <path d="M 0 305.48 
L 607.932 305.48 
L 607.932 0 
L 0 0 
z
" style="fill: #ffffff"/>
  </g>
  <g id="axes_1">
   <g id="patch_2">
    <path d="M 44.484 237.26 
C 48.064242 237.26 51.498328 235.837555 54.029942 233.305942 
C 56.561555 230.774328 57.984 227.340242 57.984 223.76 
C 57.984 220.179758 56.561555 216.745672 54.029942 214.214058 
C 51.498328 211.682445 48.064242 210.26 44.484 210.26 
C 40.903758 210.26 37.469672 211.682445 34.938058 214.214058 
C 32.406445 216.745672 30.984 220.179758 30.984 223.76 
C 30.984 227.340242 32.406445 230.774328 34.938058 233.305942 
C 37.469672 235.837555 40.903758 237.26 44.484 237.26 
L 44.484 237.26 
z
" clip-path="url(#p02bd446228)" style="fill: none; stroke: #000000; stroke-width: 2; stroke-linejoin: miter"/>
   </g>
   <g id="line2d_1">
    <path d="M 152.484 169.76 
L 165.684 169.76 
" clip-path="url(#p02bd446228)" style="fill: none; stroke: #000000; stroke-width: 2; stroke-linecap: round"/>
   </g>
   <g id="line2d_2">
    <path d="M 165.684 156.56 
L 165.684 182.96 
" clip-path="url(#p02bd446228)" style="fill: none; stroke: #000000; stroke-width: 2; stroke-linecap: round"/>
   </g>
   <g id="line2d_3">
    <path d="M 165.684 163.16 
L 179.544 151.28 
L 179.544 144.68 
" clip-path="url(#p02bd446228)" style="fill: none; stroke: #000000; stroke-width: 2; stroke-linecap: round"/>
   </g>
   <g id="line2d_4">
    <path d="M 165.684 176.36 
L 179.544 188.24 
L 179.544 194.84 
" clip-path="url(#p02bd446228)" style="fill: none; stroke: #000000; stroke-width: 2; stroke-linecap: round"/>
   </g>
   <g id="line2d_5">
    <path d="M 165.684 176.36 
L 172.710691 182.382878 
" clip-path="url(#p02bd446228)" style="fill: none; stroke: #000000; stroke-width: 2; stroke-linecap: round"/>
   </g>
   <g id="patch_3">
    <path d="M 175.05354 179.649554 
L 179.544 188.24 
L 170.367842 185.116201 
z
" clip-path="url(#p02bd446228)"/>
   </g>
   <g id="line2d_6">
    <path d="M 152.484 169.76 
L 116.484 169.76 
L 113.484 178.76 
L 107.484 160.76 
L 101.484 178.76 
L 95.484 160.76 
L 89.484 178.76 
L 83.484 160.76 
L 80.484 169.76 
L 44.484 169.76 
" clip-path="url(#p02bd446228)" style="fill: none; stroke: #000000; stroke-width: 2; stroke-linecap: round"/>
   </g>
   <g id="line2d_7">
    <path d="M 44.484 169.76 
L 44.484 210.26 
L 44.484 210.26 
M 44.484 237.26 
L 44.484 237.26 
L 44.484 277.76 
" clip-path="url(#p02bd446228)" style="fill: none; stroke: #000000; stroke-width: 2; stroke-linecap: round"/>
   </g>
   <g id="line2d_8">
    <path d="M 41.784 217.01 
L 47.184 217.01 
" clip-path="url(#p02bd446228)" style="fill: none; stroke: #000000; stroke-width: 2; stroke-linecap: round"/>
   </g>
   <g id="line2d_9">
    <path d="M 44.484 227.81 
L 44.484 233.21 
" clip-path="url(#p02bd446228)" style="fill: none; stroke: #000000; stroke-width: 2; stroke-linecap: round"/>
   </g>
   <g id="line2d_10">
    <path d="M 41.784 230.51 
L 47.184 230.51 
" clip-path="url(#p02bd446228)" style="fill: none; stroke: #000000; stroke-width: 2; stroke-linecap: round"/>
   </g>
   <g id="line2d_11">
    <path d="M 44.484 277.76 
L 112.014 277.76 
L 179.544 277.76 
" clip-path="url(#p02bd446228)" style="fill: none; stroke: #000000; stroke-width: 2; stroke-linecap: round"/>
   </g>
   <g id="line2d_12">
    <path d="M 179.544 277.76 
L 179.544 292.16 
L 170.544 292.16 
L 188.544 292.16 
M 173.244 296.48 
L 185.844 296.48 
M 177.744 300.8 
L 181.344 300.8 
" clip-path="url(#p02bd446228)" style="fill: none; stroke: #000000; stroke-width: 2; stroke-linecap: round"/>
   </g>
   <g id="line2d_13">
    <path d="M 179.544 277.76 
L 179.544 236.3 
L 179.544 194.84 
" clip-path="url(#p02bd446228)" style="fill: none; stroke: #000000; stroke-width: 2; stroke-linecap: round"/>
   </g>
   <g id="line2d_14">
    <path d="M 179.544 144.68 
L 179.544 108.68 
L 176.579813 108.54593 
L 173.588893 108.13824 
L 170.822083 107.465999 
L 168.511432 106.560462 
L 167.589692 106.035433 
L 166.850729 105.472453 
L 166.310119 104.880233 
L 165.979256 104.268098 
L 165.865116 103.645793 
L 165.970102 103.02328 
L 166.292004 102.410522 
L 166.824035 101.817277 
L 167.554982 101.252894 
L 168.469436 100.726112 
L 170.768309 99.816175 
L 173.52785 99.138658 
L 176.51662 98.72526 
L 179.483957 98.585528 
L 182.180994 98.706058 
L 184.381535 99.051618 
L 185.901024 99.568102 
L 186.362989 99.869463 
L 186.612023 100.187072 
L 186.642878 100.511077 
L 186.454903 100.831491 
L 186.05206 101.138403 
L 184.640085 101.673708 
L 182.525374 102.046971 
L 179.885284 102.201764 
L 176.941236 102.099981 
L 173.940142 101.725037 
L 171.1337 101.083252 
L 168.757281 100.203329 
L 167.794506 99.688598 
L 167.010192 99.133943 
L 166.420869 98.547898 
L 166.038959 97.939658 
L 165.872513 97.318887 
L 165.925038 96.695513 
L 166.195428 96.079518 
L 166.677983 95.480729 
L 167.362532 94.90861 
L 168.234645 94.372065 
L 170.464471 93.437379 
L 173.180447 92.72994 
L 176.154789 92.283954 
L 179.138044 92.111703 
L 181.88001 92.20251 
L 184.150723 92.523635 
L 185.759742 93.023023 
L 186.271431 93.319064 
L 186.57212 93.633668 
L 186.655471 93.957048 
L 186.519725 94.279232 
L 186.167746 94.590269 
L 185.606952 94.880449 
L 183.910352 95.361772 
L 181.572218 95.657711 
L 178.788645 95.718322 
L 175.793087 95.513398 
L 172.836776 95.035002 
L 170.167655 94.298134 
L 168.009578 93.339469 
L 167.180862 92.793629 
L 166.54354 92.214287 
L 166.111045 91.610498 
L 165.892495 90.991831 
L 165.892495 90.368169 
L 166.111045 89.749502 
L 166.54354 89.145713 
L 167.180862 88.566371 
L 168.009578 88.020531 
L 169.01222 87.51654 
L 171.451527 86.662935 
L 174.294202 86.052021 
L 177.301835 85.709913 
L 180.222178 85.640179 
L 182.810309 85.823543 
L 184.849163 86.219504 
L 186.167746 86.769731 
L 186.519725 87.080768 
L 186.655471 87.402952 
L 186.57212 87.726332 
L 186.271431 88.040936 
L 185.759742 88.336977 
L 184.150723 88.836365 
L 181.88001 89.15749 
L 179.138044 89.248297 
L 176.154789 89.076046 
L 173.180447 88.63006 
L 170.464471 87.922621 
L 168.234645 86.987935 
L 167.362532 86.45139 
L 166.677983 85.879271 
L 166.195428 85.280482 
L 165.925038 84.664487 
L 165.872513 84.041113 
L 166.038959 83.420342 
L 166.420869 82.812102 
L 167.010192 82.226057 
L 167.794506 81.671402 
L 168.757281 81.156671 
L 171.1337 80.276748 
L 173.940142 79.634963 
L 176.941236 79.260019 
L 179.885284 79.158236 
L 182.525374 79.313029 
L 184.640085 79.686292 
L 186.05206 80.221597 
L 186.454903 80.528509 
L 186.642878 80.848923 
L 186.612023 81.172928 
L 186.362989 81.490537 
L 185.901024 81.791898 
L 184.381535 82.308382 
L 182.180994 82.653942 
L 179.483957 82.774472 
L 176.51662 82.63474 
L 173.52785 82.221342 
L 170.768309 81.543825 
L 168.469436 80.633888 
L 167.554982 80.107106 
L 166.824035 79.542723 
L 166.292004 78.949478 
L 165.970102 78.33672 
L 165.865116 77.714207 
L 165.979256 77.091902 
L 166.310119 76.479767 
L 166.850729 75.887547 
L 167.589692 75.324567 
L 168.511432 74.799538 
L 170.822083 73.894001 
L 173.588893 73.22176 
L 176.579813 72.81407 
L 179.544 72.68 
L 179.544 36.68 
L 179.544 36.68 
" clip-path="url(#p02bd446228)" style="fill: none; stroke: #000000; stroke-width: 2; stroke-linecap: round"/>
   </g>
   <g id="line2d_15">
    <path d="M 179.544 36.68 
L 179.544 22.28 
" clip-path="url(#p02bd446228)" style="fill: none; stroke: #000000; stroke-width: 2; stroke-linecap: round"/>
   </g>
   <g id="line2d_16">
    <path d="M 179.544 22.28 
L 172.794 22.28 
" clip-path="url(#p02bd446228)" style="fill: none; stroke: #000000; stroke-width: 2; stroke-linecap: round"/>
   </g>
   <g id="line2d_17">
    <path d="M 179.544 22.28 
L 186.294 22.28 
" clip-path="url(#p02bd446228)" style="fill: none; stroke: #000000; stroke-width: 2; stroke-linecap: round"/>
   </g>
   <g id="line2d_18">
    <path d="M 179.544 144.68 
L 230.304 144.68 
M 230.304 135.68 
L 230.304 153.68 
M 236.784 135.68 
L 236.784 153.68 
M 236.784 144.68 
L 287.544 144.68 
" clip-path="url(#p02bd446228)" style="fill: none; stroke: #000000; stroke-width: 2; stroke-linecap: round"/>
   </g>
   <g id="line2d_19">
    <path d="M 287.544 144.68 
L 338.304 144.68 
M 338.304 135.68 
L 338.304 153.68 
M 344.784 135.68 
L 344.784 153.68 
M 344.784 144.68 
L 395.544 144.68 
" clip-path="url(#p02bd446228)" style="fill: none; stroke: #000000; stroke-width: 2; stroke-linecap: round"/>
   </g>
   <g id="line2d_20">
    <path d="M 287.544 144.68 
L 287.544 172.58 
L 287.544 200.48 
" clip-path="url(#p02bd446228)" style="fill: none; stroke: #000000; stroke-width: 2; stroke-linecap: round"/>
   </g>
   <g id="line2d_21">
    <path d="M 287.544 200.48 
L 323.544 200.48 
L 323.67807 197.515813 
L 324.08576 194.524893 
L 324.758001 191.758083 
L 325.663538 189.447432 
L 326.188567 188.525692 
L 326.751547 187.786729 
L 327.343767 187.246119 
L 327.955902 186.915256 
L 328.578207 186.801116 
L 329.20072 186.906102 
L 329.813478 187.228004 
L 330.406723 187.760035 
L 330.971106 188.490982 
L 331.497888 189.405436 
L 332.407825 191.704309 
L 333.085342 194.46385 
L 333.49874 197.45262 
L 333.638472 200.419957 
L 333.517942 203.116994 
L 333.172382 205.317535 
L 332.655898 206.837024 
L 332.354537 207.298989 
L 332.036928 207.548023 
L 331.712923 207.578878 
L 331.392509 207.390903 
L 331.085597 206.98806 
L 330.550292 205.576085 
L 330.177029 203.461374 
L 330.022236 200.821284 
L 330.124019 197.877236 
L 330.498963 194.876142 
L 331.140748 192.0697 
L 332.020671 189.693281 
L 332.535402 188.730506 
L 333.090057 187.946192 
L 333.676102 187.356869 
L 334.284342 186.974959 
L 334.905113 186.808513 
L 335.528487 186.861038 
L 336.144482 187.131428 
L 336.743271 187.613983 
L 337.31539 188.298532 
L 337.851935 189.170645 
L 338.786621 191.400471 
L 339.49406 194.116447 
L 339.940046 197.090789 
L 340.112297 200.074044 
L 340.02149 202.81601 
L 339.700365 205.086723 
L 339.200977 206.695742 
L 338.904936 207.207431 
L 338.590332 207.50812 
L 338.266952 207.591471 
L 337.944768 207.455725 
L 337.633731 207.103746 
L 337.343551 206.542952 
L 336.862228 204.846352 
L 336.566289 202.508218 
L 336.505678 199.724645 
L 336.710602 196.729087 
L 337.188998 193.772776 
L 337.925866 191.103655 
L 338.884531 188.945578 
L 339.430371 188.116862 
L 340.009713 187.47954 
L 340.613502 187.047045 
L 341.232169 186.828495 
L 341.855831 186.828495 
L 342.474498 187.047045 
L 343.078287 187.47954 
L 343.657629 188.116862 
L 344.203469 188.945578 
L 344.70746 189.94822 
L 345.561065 192.387527 
L 346.171979 195.230202 
L 346.514087 198.237835 
L 346.583821 201.158178 
L 346.400457 203.746309 
L 346.004496 205.785163 
L 345.454269 207.103746 
L 345.143232 207.455725 
L 344.821048 207.591471 
L 344.497668 207.50812 
L 344.183064 207.207431 
L 343.887023 206.695742 
L 343.387635 205.086723 
L 343.06651 202.81601 
L 342.975703 200.074044 
L 343.147954 197.090789 
L 343.59394 194.116447 
L 344.301379 191.400471 
L 345.236065 189.170645 
L 345.77261 188.298532 
L 346.344729 187.613983 
L 346.943518 187.131428 
L 347.559513 186.861038 
L 348.182887 186.808513 
L 348.803658 186.974959 
L 349.411898 187.356869 
L 349.997943 187.946192 
L 350.552598 188.730506 
L 351.067329 189.693281 
L 351.947252 192.0697 
L 352.589037 194.876142 
L 352.963981 197.877236 
L 353.065764 200.821284 
L 352.910971 203.461374 
L 352.537708 205.576085 
L 352.002403 206.98806 
L 351.695491 207.390903 
L 351.375077 207.578878 
L 351.051072 207.548023 
L 350.733463 207.298989 
L 350.432102 206.837024 
L 349.915618 205.317535 
L 349.570058 203.116994 
L 349.449528 200.419957 
L 349.58926 197.45262 
L 350.002658 194.46385 
L 350.680175 191.704309 
L 351.590112 189.405436 
L 352.116894 188.490982 
L 352.681277 187.760035 
L 353.274522 187.228004 
L 353.88728 186.906102 
L 354.509793 186.801116 
L 355.132098 186.915256 
L 355.744233 187.246119 
L 356.336453 187.786729 
L 356.899433 188.525692 
L 357.424462 189.447432 
L 358.329999 191.758083 
L 359.00224 194.524893 
L 359.40993 197.515813 
L 359.544 200.48 
L 395.544 200.48 
L 395.544 200.48 
" clip-path="url(#p02bd446228)" style="fill: none; stroke: #000000; stroke-width: 2; stroke-linecap: round"/>
   </g>
   <g id="line2d_22">
    <path d="M 395.544 200.48 
L 395.544 172.58 
L 395.544 144.68 
" clip-path="url(#p02bd446228)" style="fill: none; stroke: #000000; stroke-width: 2; stroke-linecap: round"/>
   </g>
   <g id="line2d_23">
    <path d="M 395.544 144.68 
L 418.044 144.68 
L 440.544 144.68 
" clip-path="url(#p02bd446228)" style="fill: none; stroke: #000000; stroke-width: 2; stroke-linecap: round"/>
   </g>
   <g id="line2d_24">
    <path d="M 440.544 144.68 
L 440.544 180.68 
L 443.508187 180.81407 
L 446.499107 181.22176 
L 449.265917 181.894001 
L 451.576568 182.799538 
L 452.498308 183.324567 
L 453.237271 183.887547 
L 453.777881 184.479767 
L 454.108744 185.091902 
L 454.222884 185.714207 
L 454.117898 186.33672 
L 453.795996 186.949478 
L 453.263965 187.542723 
L 452.533018 188.107106 
L 451.618564 188.633888 
L 449.319691 189.543825 
L 446.56015 190.221342 
L 443.57138 190.63474 
L 440.604043 190.774472 
L 437.907006 190.653942 
L 435.706465 190.308382 
L 434.186976 189.791898 
L 433.725011 189.490537 
L 433.475977 189.172928 
L 433.445122 188.848923 
L 433.633097 188.528509 
L 434.03594 188.221597 
L 435.447915 187.686292 
L 437.562626 187.313029 
L 440.202716 187.158236 
L 443.146764 187.260019 
L 446.147858 187.634963 
L 448.9543 188.276748 
L 451.330719 189.156671 
L 452.293494 189.671402 
L 453.077808 190.226057 
L 453.667131 190.812102 
L 454.049041 191.420342 
L 454.215487 192.041113 
L 454.162962 192.664487 
L 453.892572 193.280482 
L 453.410017 193.879271 
L 452.725468 194.45139 
L 451.853355 194.987935 
L 449.623529 195.922621 
L 446.907553 196.63006 
L 443.933211 197.076046 
L 440.949956 197.248297 
L 438.20799 197.15749 
L 435.937277 196.836365 
L 434.328258 196.336977 
L 433.816569 196.040936 
L 433.51588 195.726332 
L 433.432529 195.402952 
L 433.568275 195.080768 
L 433.920254 194.769731 
L 434.481048 194.479551 
L 436.177648 193.998228 
L 438.515782 193.702289 
L 441.299355 193.641678 
L 444.294913 193.846602 
L 447.251224 194.324998 
L 449.920345 195.061866 
L 452.078422 196.020531 
L 452.907138 196.566371 
L 453.54446 197.145713 
L 453.976955 197.749502 
L 454.195505 198.368169 
L 454.195505 198.991831 
L 453.976955 199.610498 
L 453.54446 200.214287 
L 452.907138 200.793629 
L 452.078422 201.339469 
L 451.07578 201.84346 
L 448.636473 202.697065 
L 445.793798 203.307979 
L 442.786165 203.650087 
L 439.865822 203.719821 
L 437.277691 203.536457 
L 435.238837 203.140496 
L 433.920254 202.590269 
L 433.568275 202.279232 
L 433.432529 201.957048 
L 433.51588 201.633668 
L 433.816569 201.319064 
L 434.328258 201.023023 
L 435.937277 200.523635 
L 438.20799 200.20251 
L 440.949956 200.111703 
L 443.933211 200.283954 
L 446.907553 200.72994 
L 449.623529 201.437379 
L 451.853355 202.372065 
L 452.725468 202.90861 
L 453.410017 203.480729 
L 453.892572 204.079518 
L 454.162962 204.695513 
L 454.215487 205.318887 
L 454.049041 205.939658 
L 453.667131 206.547898 
L 453.077808 207.133943 
L 452.293494 207.688598 
L 451.330719 208.203329 
L 448.9543 209.083252 
L 446.147858 209.725037 
L 443.146764 210.099981 
L 440.202716 210.201764 
L 437.562626 210.046971 
L 435.447915 209.673708 
L 434.03594 209.138403 
L 433.633097 208.831491 
L 433.445122 208.511077 
L 433.475977 208.187072 
L 433.725011 207.869463 
L 434.186976 207.568102 
L 435.706465 207.051618 
L 437.907006 206.706058 
L 440.604043 206.585528 
L 443.57138 206.72526 
L 446.56015 207.138658 
L 449.319691 207.816175 
L 451.618564 208.726112 
L 452.533018 209.252894 
L 453.263965 209.817277 
L 453.795996 210.410522 
L 454.117898 211.02328 
L 454.222884 211.645793 
L 454.108744 212.268098 
L 453.777881 212.880233 
L 453.237271 213.472453 
L 452.498308 214.035433 
L 451.576568 214.560462 
L 449.265917 215.465999 
L 446.499107 216.13824 
L 443.508187 216.54593 
L 440.544 216.68 
L 440.544 252.68 
L 440.544 252.68 
" clip-path="url(#p02bd446228)" style="fill: none; stroke: #000000; stroke-width: 2; stroke-linecap: round"/>
   </g>
   <g id="line2d_25">
    <path d="M 440.544 144.68 
L 467.544 144.68 
L 494.544 144.68 
" clip-path="url(#p02bd446228)" style="fill: none; stroke: #000000; stroke-width: 2; stroke-linecap: round"/>
   </g>
   <g id="line2d_26">
    <path d="M 494.544 144.68 
L 494.544 195.44 
M 503.544 195.44 
L 485.544 195.44 
M 503.544 201.92 
L 485.544 201.92 
M 494.544 201.92 
L 494.544 252.68 
" clip-path="url(#p02bd446228)" style="fill: none; stroke: #000000; stroke-width: 2; stroke-linecap: round"/>
   </g>
   <g id="line2d_27">
    <path d="M 494.544 144.68 
L 521.544 144.68 
L 548.544 144.68 
" clip-path="url(#p02bd446228)" style="fill: none; stroke: #000000; stroke-width: 2; stroke-linecap: round"/>
   </g>
   <g id="line2d_28">
    <path d="M 548.544 144.68 
L 548.544 180.68 
L 557.544 183.68 
L 539.544 189.68 
L 557.544 195.68 
L 539.544 201.68 
L 557.544 207.68 
L 539.544 213.68 
L 548.544 216.68 
L 548.544 252.68 
" clip-path="url(#p02bd446228)" style="fill: none; stroke: #000000; stroke-width: 2; stroke-linecap: round"/>
   </g>
   <g id="line2d_29">
    <path d="M 548.544 144.68 
L 557.544 144.68 
L 566.544 144.68 
" clip-path="url(#p02bd446228)" style="fill: none; stroke: #000000; stroke-width: 2; stroke-linecap: round"/>
   </g>
   <g id="line2d_30">
    <path d="M 548.544 252.68 
L 521.544 252.68 
L 494.544 252.68 
" clip-path="url(#p02bd446228)" style="fill: none; stroke: #000000; stroke-width: 2; stroke-linecap: round"/>
   </g>
   <g id="line2d_31">
    <path d="M 494.544 252.68 
L 467.544 252.68 
L 440.544 252.68 
" clip-path="url(#p02bd446228)" style="fill: none; stroke: #000000; stroke-width: 2; stroke-linecap: round"/>
   </g>
   <g id="line2d_32">
    <path d="M 440.544 252.68 
L 310.044 252.68 
L 179.544 252.68 
" clip-path="url(#p02bd446228)" style="fill: none; stroke: #000000; stroke-width: 2; stroke-linecap: round"/>
   </g>
   <g id="text_1">
    <!-- $R_{in}$ -->
    <g transform="translate(88.894 154.248437) scale(0.14 -0.14)">
     <defs>
      <path id="DejaVuSans-Oblique-52" d="M 1613 4147 
L 1294 2491 
L 2106 2491 
Q 2584 2491 2879 2755 
Q 3175 3019 3175 3444 
Q 3175 3784 2976 3965 
Q 2778 4147 2406 4147 
L 1613 4147 
z
M 2772 2241 
Q 2972 2194 3105 2009 
Q 3238 1825 3413 1275 
L 3809 0 
L 3144 0 
L 2778 1197 
Q 2638 1659 2453 1815 
Q 2269 1972 1888 1972 
L 1191 1972 
L 806 0 
L 172 0 
L 1081 4666 
L 2503 4666 
Q 3150 4666 3495 4373 
Q 3841 4081 3841 3531 
Q 3841 3044 3547 2687 
Q 3253 2331 2772 2241 
z
" transform="scale(0.015625)"/>
      <path id="DejaVuSans-Oblique-69" d="M 1172 4863 
L 1747 4863 
L 1606 4134 
L 1031 4134 
L 1172 4863 
z
M 909 3500 
L 1484 3500 
L 800 0 
L 225 0 
L 909 3500 
z
" transform="scale(0.015625)"/>
      <path id="DejaVuSans-Oblique-6e" d="M 3566 2113 
L 3156 0 
L 2578 0 
L 2988 2091 
Q 3016 2238 3031 2350 
Q 3047 2463 3047 2528 
Q 3047 2791 2881 2937 
Q 2716 3084 2419 3084 
Q 1956 3084 1622 2776 
Q 1288 2469 1184 1941 
L 800 0 
L 225 0 
L 903 3500 
L 1478 3500 
L 1363 2950 
Q 1603 3253 1940 3418 
Q 2278 3584 2650 3584 
Q 3113 3584 3367 3334 
Q 3622 3084 3622 2631 
Q 3622 2519 3608 2391 
Q 3594 2263 3566 2113 
z
" transform="scale(0.015625)"/>
     </defs>
     <use xlink:href="#DejaVuSans-Oblique-52" transform="translate(0 0.09375)"/>
     <use xlink:href="#DejaVuSans-Oblique-69" transform="translate(69.482422 -16.3125) scale(0.7)"/>
     <use xlink:href="#DejaVuSans-Oblique-6e" transform="translate(88.930664 -16.3125) scale(0.7)"/>
    </g>
   </g>
   <g id="text_2">
    <!-- $V_{in}$ -->
    <g transform="translate(9.384 227.623125) scale(0.14 -0.14)">
     <defs>
      <path id="DejaVuSans-Oblique-56" d="M 1319 0 
L 500 4666 
L 1119 4666 
L 1797 653 
L 4063 4666 
L 4750 4666 
L 2053 0 
L 1319 0 
z
" transform="scale(0.015625)"/>
     </defs>
     <use xlink:href="#DejaVuSans-Oblique-56" transform="translate(0 0.09375)"/>
     <use xlink:href="#DejaVuSans-Oblique-69" transform="translate(68.408203 -16.3125) scale(0.7)"/>
     <use xlink:href="#DejaVuSans-Oblique-6e" transform="translate(87.856445 -16.3125) scale(0.7)"/>
    </g>
   </g>
   <g id="text_3">
    <!-- $L_2$ -->
    <g transform="translate(147.845116 94.543125) scale(0.14 -0.14)">
     <defs>
      <path id="DejaVuSans-Oblique-4c" d="M 1075 4666 
L 1709 4666 
L 909 525 
L 3181 525 
L 3078 0 
L 172 0 
L 1075 4666 
z
" transform="scale(0.015625)"/>
      <path id="DejaVuSans-32" d="M 1228 531 
L 3431 531 
L 3431 0 
L 469 0 
L 469 531 
Q 828 903 1448 1529 
Q 2069 2156 2228 2338 
Q 2531 2678 2651 2914 
Q 2772 3150 2772 3378 
Q 2772 3750 2511 3984 
Q 2250 4219 1831 4219 
Q 1534 4219 1204 4116 
Q 875 4013 500 3803 
L 500 4441 
Q 881 4594 1212 4672 
Q 1544 4750 1819 4750 
Q 2544 4750 2975 4387 
Q 3406 4025 3406 3419 
Q 3406 3131 3298 2873 
Q 3191 2616 2906 2266 
Q 2828 2175 2409 1742 
Q 1991 1309 1228 531 
z
" transform="scale(0.015625)"/>
     </defs>
     <use xlink:href="#DejaVuSans-Oblique-4c" transform="translate(0 0.09375)"/>
     <use xlink:href="#DejaVuSans-32" transform="translate(55.712891 -16.3125) scale(0.7)"/>
    </g>
   </g>
   <g id="text_4">
    <!-- $V_{dd}$ -->
    <g transform="translate(168.274 15.768438) scale(0.14 -0.14)">
     <defs>
      <path id="DejaVuSans-Oblique-64" d="M 2675 525 
Q 2444 222 2128 65 
Q 1813 -91 1428 -91 
Q 903 -91 598 267 
Q 294 625 294 1247 
Q 294 1766 478 2236 
Q 663 2706 1013 3078 
Q 1244 3325 1534 3454 
Q 1825 3584 2144 3584 
Q 2481 3584 2739 3421 
Q 2997 3259 3138 2956 
L 3513 4863 
L 4091 4863 
L 3144 0 
L 2566 0 
L 2675 525 
z
M 891 1350 
Q 891 897 1095 644 
Q 1300 391 1663 391 
Q 1931 391 2161 520 
Q 2391 650 2566 903 
Q 2750 1166 2856 1509 
Q 2963 1853 2963 2188 
Q 2963 2622 2758 2865 
Q 2553 3109 2194 3109 
Q 1922 3109 1687 2981 
Q 1453 2853 1288 2613 
Q 1106 2353 998 2009 
Q 891 1666 891 1350 
z
" transform="scale(0.015625)"/>
     </defs>
     <use xlink:href="#DejaVuSans-Oblique-56" transform="translate(0 0.09375)"/>
     <use xlink:href="#DejaVuSans-Oblique-64" transform="translate(68.408203 -16.3125) scale(0.7)"/>
     <use xlink:href="#DejaVuSans-Oblique-64" transform="translate(112.841797 -16.3125) scale(0.7)"/>
    </g>
   </g>
   <g id="text_5">
    <!-- $C_2$ -->
    <g transform="translate(225.284 129.168437) scale(0.14 -0.14)">
     <defs>
      <path id="DejaVuSans-Oblique-43" d="M 4447 4306 
L 4319 3641 
Q 4019 3944 3683 4091 
Q 3347 4238 2956 4238 
Q 2422 4238 2017 3981 
Q 1613 3725 1319 3200 
Q 1131 2863 1032 2486 
Q 934 2109 934 1728 
Q 934 1091 1264 756 
Q 1594 422 2222 422 
Q 2656 422 3056 561 
Q 3456 700 3834 978 
L 3688 231 
Q 3316 72 2936 -9 
Q 2556 -91 2175 -91 
Q 1278 -91 773 396 
Q 269 884 269 1753 
Q 269 2309 461 2846 
Q 653 3384 1013 3828 
Q 1394 4300 1883 4525 
Q 2372 4750 3022 4750 
Q 3422 4750 3780 4639 
Q 4138 4528 4447 4306 
z
" transform="scale(0.015625)"/>
     </defs>
     <use xlink:href="#DejaVuSans-Oblique-43" transform="translate(0 0.78125)"/>
     <use xlink:href="#DejaVuSans-32" transform="translate(69.824219 -15.625) scale(0.7)"/>
    </g>
   </g>
   <g id="text_6">
    <!-- $C_3$ -->
    <g transform="translate(333.284 129.168437) scale(0.14 -0.14)">
     <defs>
      <path id="DejaVuSans-33" d="M 2597 2516 
Q 3050 2419 3304 2112 
Q 3559 1806 3559 1356 
Q 3559 666 3084 287 
Q 2609 -91 1734 -91 
Q 1441 -91 1130 -33 
Q 819 25 488 141 
L 488 750 
Q 750 597 1062 519 
Q 1375 441 1716 441 
Q 2309 441 2620 675 
Q 2931 909 2931 1356 
Q 2931 1769 2642 2001 
Q 2353 2234 1838 2234 
L 1294 2234 
L 1294 2753 
L 1863 2753 
Q 2328 2753 2575 2939 
Q 2822 3125 2822 3475 
Q 2822 3834 2567 4026 
Q 2313 4219 1838 4219 
Q 1578 4219 1281 4162 
Q 984 4106 628 3988 
L 628 4550 
Q 988 4650 1302 4700 
Q 1616 4750 1894 4750 
Q 2613 4750 3031 4423 
Q 3450 4097 3450 3541 
Q 3450 3153 3228 2886 
Q 3006 2619 2597 2516 
z
" transform="scale(0.015625)"/>
     </defs>
     <use xlink:href="#DejaVuSans-Oblique-43" transform="translate(0 0.78125)"/>
     <use xlink:href="#DejaVuSans-33" transform="translate(69.824219 -15.625) scale(0.7)"/>
    </g>
   </g>
   <g id="text_7">
    <!-- $L_3$ -->
    <g transform="translate(334.334 180.289553) scale(0.14 -0.14)">
     <use xlink:href="#DejaVuSans-Oblique-4c" transform="translate(0 0.09375)"/>
     <use xlink:href="#DejaVuSans-33" transform="translate(55.712891 -16.3125) scale(0.7)"/>
    </g>
   </g>
   <g id="text_8">
    <!-- $L_1$ -->
    <g transform="translate(415.412529 202.543125) scale(0.14 -0.14)">
     <defs>
      <path id="DejaVuSans-31" d="M 794 531 
L 1825 531 
L 1825 4091 
L 703 3866 
L 703 4441 
L 1819 4666 
L 2450 4666 
L 2450 531 
L 3481 531 
L 3481 0 
L 794 0 
L 794 531 
z
" transform="scale(0.015625)"/>
     </defs>
     <use xlink:href="#DejaVuSans-Oblique-4c" transform="translate(0 0.09375)"/>
     <use xlink:href="#DejaVuSans-31" transform="translate(55.712891 -16.3125) scale(0.7)"/>
    </g>
   </g>
   <g id="text_9">
    <!-- $C_1$ -->
    <g transform="translate(465.424 202.543125) scale(0.14 -0.14)">
     <use xlink:href="#DejaVuSans-Oblique-43" transform="translate(0 0.78125)"/>
     <use xlink:href="#DejaVuSans-31" transform="translate(69.824219 -15.625) scale(0.7)"/>
    </g>
   </g>
   <g id="text_10">
    <!-- $R_L$ -->
    <g transform="translate(520.264 202.543125) scale(0.14 -0.14)">
     <use xlink:href="#DejaVuSans-Oblique-52" transform="translate(0 0.09375)"/>
     <use xlink:href="#DejaVuSans-Oblique-4c" transform="translate(69.482422 -16.3125) scale(0.7)"/>
    </g>
   </g>
   <g id="patch_4">
    <path d="M 44.484 172.46 
C 45.200048 172.46 45.886866 172.175511 46.393188 171.669188 
C 46.899511 171.162866 47.184 170.476048 47.184 169.76 
C 47.184 169.043952 46.899511 168.357134 46.393188 167.850812 
C 45.886866 167.344489 45.200048 167.06 44.484 167.06 
C 43.767952 167.06 43.081134 167.344489 42.574812 167.850812 
C 42.068489 168.357134 41.784 169.043952 41.784 169.76 
C 41.784 170.476048 42.068489 171.162866 42.574812 171.669188 
C 43.081134 172.175511 43.767952 172.46 44.484 172.46 
z
" clip-path="url(#p02bd446228)" style="fill: #ff0000; stroke: #ff0000; stroke-width: 2; stroke-linejoin: miter"/>
   </g>
   <g id="text_11">
    <!-- 1 -->
    <g style="fill: #ff0000" transform="translate(58.03025 198.823125) scale(0.14 -0.14)">
     <use xlink:href="#DejaVuSans-31"/>
    </g>
   </g>
   <g id="patch_5">
    <path d="M 179.544 147.38 
C 180.260048 147.38 180.946866 147.095511 181.453188 146.589188 
C 181.959511 146.082866 182.244 145.396048 182.244 144.68 
C 182.244 143.963952 181.959511 143.277134 181.453188 142.770812 
C 180.946866 142.264489 180.260048 141.98 179.544 141.98 
C 178.827952 141.98 178.141134 142.264489 177.634812 142.770812 
C 177.128489 143.277134 176.844 143.963952 176.844 144.68 
C 176.844 145.396048 177.128489 146.082866 177.634812 146.589188 
C 178.141134 147.095511 178.827952 147.38 179.544 147.38 
z
" clip-path="url(#p02bd446228)" style="fill: #ff0000; stroke: #ff0000; stroke-width: 2; stroke-linejoin: miter"/>
   </g>
   <g id="text_12">
    <!-- 2 -->
    <g style="fill: #ff0000" transform="translate(193.09025 173.743125) scale(0.14 -0.14)">
     <use xlink:href="#DejaVuSans-32"/>
    </g>
   </g>
   <g id="patch_6">
    <path d="M 287.544 147.38 
C 288.260048 147.38 288.946866 147.095511 289.453188 146.589188 
C 289.959511 146.082866 290.244 145.396048 290.244 144.68 
C 290.244 143.963952 289.959511 143.277134 289.453188 142.770812 
C 288.946866 142.264489 288.260048 141.98 287.544 141.98 
C 286.827952 141.98 286.141134 142.264489 285.634812 142.770812 
C 285.128489 143.277134 284.844 143.963952 284.844 144.68 
C 284.844 145.396048 285.128489 146.082866 285.634812 146.589188 
C 286.141134 147.095511 286.827952 147.38 287.544 147.38 
z
" clip-path="url(#p02bd446228)" style="fill: #ff0000; stroke: #ff0000; stroke-width: 2; stroke-linejoin: miter"/>
   </g>
   <g id="text_13">
    <!-- 5 -->
    <g style="fill: #ff0000" transform="translate(301.09025 173.743125) scale(0.14 -0.14)">
     <defs>
      <path id="DejaVuSans-35" d="M 691 4666 
L 3169 4666 
L 3169 4134 
L 1269 4134 
L 1269 2991 
Q 1406 3038 1543 3061 
Q 1681 3084 1819 3084 
Q 2600 3084 3056 2656 
Q 3513 2228 3513 1497 
Q 3513 744 3044 326 
Q 2575 -91 1722 -91 
Q 1428 -91 1123 -41 
Q 819 9 494 109 
L 494 744 
Q 775 591 1075 516 
Q 1375 441 1709 441 
Q 2250 441 2565 725 
Q 2881 1009 2881 1497 
Q 2881 1984 2565 2268 
Q 2250 2553 1709 2553 
Q 1456 2553 1204 2497 
Q 953 2441 691 2322 
L 691 4666 
z
" transform="scale(0.015625)"/>
     </defs>
     <use xlink:href="#DejaVuSans-35"/>
    </g>
   </g>
   <g id="patch_7">
    <path d="M 395.544 147.38 
C 396.260048 147.38 396.946866 147.095511 397.453188 146.589188 
C 397.959511 146.082866 398.244 145.396048 398.244 144.68 
C 398.244 143.963952 397.959511 143.277134 397.453188 142.770812 
C 396.946866 142.264489 396.260048 141.98 395.544 141.98 
C 394.827952 141.98 394.141134 142.264489 393.634812 142.770812 
C 393.128489 143.277134 392.844 143.963952 392.844 144.68 
C 392.844 145.396048 393.128489 146.082866 393.634812 146.589188 
C 394.141134 147.095511 394.827952 147.38 395.544 147.38 
z
" clip-path="url(#p02bd446228)" style="fill: #ff0000; stroke: #ff0000; stroke-width: 2; stroke-linejoin: miter"/>
   </g>
   <g id="text_14">
    <!-- 3 -->
    <g style="fill: #ff0000" transform="translate(409.09025 173.743125) scale(0.14 -0.14)">
     <use xlink:href="#DejaVuSans-33"/>
    </g>
   </g>
   <g id="patch_8">
    <path d="M 566.544 147.38 
C 567.260048 147.38 567.946866 147.095511 568.453188 146.589188 
C 568.959511 146.082866 569.244 145.396048 569.244 144.68 
C 569.244 143.963952 568.959511 143.277134 568.453188 142.770812 
C 567.946866 142.264489 567.260048 141.98 566.544 141.98 
C 565.827952 141.98 565.141134 142.264489 564.634812 142.770812 
C 564.128489 143.277134 563.844 143.963952 563.844 144.68 
C 563.844 145.396048 564.128489 146.082866 564.634812 146.589188 
C 565.141134 147.095511 565.827952 147.38 566.544 147.38 
z
" clip-path="url(#p02bd446228)" style="fill: #ffffff; stroke: #000000; stroke-width: 2; stroke-linejoin: miter"/>
   </g>
   <g id="text_15">
    <!-- $v_{out}$ -->
    <g transform="translate(572.844 148.543125) scale(0.14 -0.14)">
     <defs>
      <path id="DejaVuSans-Oblique-76" d="M 459 3500 
L 1069 3500 
L 1581 525 
L 3256 3500 
L 3866 3500 
L 1875 0 
L 1100 0 
L 459 3500 
z
" transform="scale(0.015625)"/>
      <path id="DejaVuSans-Oblique-6f" d="M 1625 -91 
Q 1009 -91 651 289 
Q 294 669 294 1325 
Q 294 1706 417 2101 
Q 541 2497 738 2766 
Q 1047 3184 1428 3384 
Q 1809 3584 2291 3584 
Q 2888 3584 3255 3212 
Q 3622 2841 3622 2241 
Q 3622 1825 3500 1412 
Q 3378 1000 3181 728 
Q 2875 309 2494 109 
Q 2113 -91 1625 -91 
z
M 891 1344 
Q 891 869 1089 633 
Q 1288 397 1691 397 
Q 2269 397 2648 901 
Q 3028 1406 3028 2181 
Q 3028 2634 2825 2865 
Q 2622 3097 2228 3097 
Q 1903 3097 1650 2945 
Q 1397 2794 1197 2484 
Q 1050 2253 970 1956 
Q 891 1659 891 1344 
z
" transform="scale(0.015625)"/>
      <path id="DejaVuSans-Oblique-75" d="M 428 1388 
L 838 3500 
L 1416 3500 
L 1006 1409 
Q 975 1256 961 1147 
Q 947 1038 947 966 
Q 947 700 1109 554 
Q 1272 409 1569 409 
Q 2031 409 2368 721 
Q 2706 1034 2809 1563 
L 3194 3500 
L 3769 3500 
L 3091 0 
L 2516 0 
L 2631 550 
Q 2388 244 2052 76 
Q 1716 -91 1338 -91 
Q 878 -91 622 161 
Q 366 413 366 863 
Q 366 956 381 1097 
Q 397 1238 428 1388 
z
" transform="scale(0.015625)"/>
      <path id="DejaVuSans-Oblique-74" d="M 2706 3500 
L 2619 3053 
L 1472 3053 
L 1100 1153 
Q 1081 1047 1072 975 
Q 1063 903 1063 863 
Q 1063 663 1183 572 
Q 1303 481 1569 481 
L 2150 481 
L 2053 0 
L 1503 0 
Q 991 0 739 200 
Q 488 400 488 806 
Q 488 878 497 964 
Q 506 1050 525 1153 
L 897 3053 
L 409 3053 
L 500 3500 
L 978 3500 
L 1172 4494 
L 1747 4494 
L 1556 3500 
L 2706 3500 
z
" transform="scale(0.015625)"/>
     </defs>
     <use xlink:href="#DejaVuSans-Oblique-76" transform="translate(0 0.3125)"/>
     <use xlink:href="#DejaVuSans-Oblique-6f" transform="translate(59.179688 -16.09375) scale(0.7)"/>
     <use xlink:href="#DejaVuSans-Oblique-75" transform="translate(102.006836 -16.09375) scale(0.7)"/>
     <use xlink:href="#DejaVuSans-Oblique-74" transform="translate(146.37207 -16.09375) scale(0.7)"/>
    </g>
   </g>
   <g id="patch_9">
    <path d="M 494.544 255.38 
C 495.260048 255.38 495.946866 255.095511 496.453188 254.589188 
C 496.959511 254.082866 497.244 253.396048 497.244 252.68 
C 497.244 251.963952 496.959511 251.277134 496.453188 250.770812 
C 495.946866 250.264489 495.260048 249.98 494.544 249.98 
C 493.827952 249.98 493.141134 250.264489 492.634812 250.770812 
C 492.128489 251.277134 491.844 251.963952 491.844 252.68 
C 491.844 253.396048 492.128489 254.082866 492.634812 254.589188 
C 493.141134 255.095511 493.827952 255.38 494.544 255.38 
z
" clip-path="url(#p02bd446228)" style="stroke: #000000; stroke-width: 2; stroke-linejoin: miter"/>
   </g>
   <g id="patch_10">
    <path d="M 440.544 255.38 
C 441.260048 255.38 441.946866 255.095511 442.453188 254.589188 
C 442.959511 254.082866 443.244 253.396048 443.244 252.68 
C 443.244 251.963952 442.959511 251.277134 442.453188 250.770812 
C 441.946866 250.264489 441.260048 249.98 440.544 249.98 
C 439.827952 249.98 439.141134 250.264489 438.634812 250.770812 
C 438.128489 251.277134 437.844 251.963952 437.844 252.68 
C 437.844 253.396048 438.128489 254.082866 438.634812 254.589188 
C 439.141134 255.095511 439.827952 255.38 440.544 255.38 
z
" clip-path="url(#p02bd446228)" style="stroke: #000000; stroke-width: 2; stroke-linejoin: miter"/>
   </g>
   <g id="patch_11">
    <path d="M 179.544 255.38 
C 180.260048 255.38 180.946866 255.095511 181.453188 254.589188 
C 181.959511 254.082866 182.244 253.396048 182.244 252.68 
C 182.244 251.963952 181.959511 251.277134 181.453188 250.770812 
C 180.946866 250.264489 180.260048 249.98 179.544 249.98 
C 178.827952 249.98 178.141134 250.264489 177.634812 250.770812 
C 177.128489 251.277134 176.844 251.963952 176.844 252.68 
C 176.844 253.396048 177.128489 254.082866 177.634812 254.589188 
C 178.141134 255.095511 178.827952 255.38 179.544 255.38 
z
" clip-path="url(#p02bd446228)" style="stroke: #000000; stroke-width: 2; stroke-linejoin: miter"/>
   </g>
  </g>
 </g>
 <defs>
  <clipPath id="p02bd446228">
   <rect x="0" y="-0" width="607.932" height="305.48"/>
  </clipPath>
 </defs>
</svg>