<?xml version="1.0" encoding="utf-8" standalone="no"?>
<!DOCTYPE svg PUBLIC "-//W3C//DTD SVG 1.1//EN"
  "http://www.w3.org/Graphics/SVG/1.1/DTD/svg11.dtd">
<svg xmlns:xlink="http://www.w3.org/1999/xlink" width="308.867286pt" height="239.869656pt" viewBox="0 0 308.867286 239.869656" xmlns="http://www.w3.org/2000/svg" version="1.1">
 <metadata>
  <rdf:RDF xmlns:dc="http://purl.org/dc/elements/1.1/" xmlns:cc="http://creativecommons.org/ns#" xmlns:rdf="http://www.w3.org/1999/02/22-rdf-syntax-ns#">
   <cc:Work>
    <dc:type rdf:resource="http://purl.org/dc/dcmitype/StillImage"/>
    <dc:date>2023-11-12T17:05:47.429897</dc:date>
    <dc:format>image/svg+xml</dc:format>
    <dc:creator>
     <cc:Agent>
      <dc:title>Matplotlib v3.8.0, https://matplotlib.org/</dc:title>
     </cc:Agent>
    </dc:creator>
   </cc:Work>
  </rdf:RDF>
 </metadata>
 <defs>
  <style type="text/css">*{stroke-linejoin: round; stroke-linecap: butt}</style>
 </defs>
 <g id="figure_1">
  <g id="patch_1">
   <path d="M 0 239.869656 
L 308.867286 239.869656 
L 308.867286 0 
L 0 0 
z
" style="fill: #ffffff"/>
  </g>
  <g id="axes_1">
   <g id="line2d_1">
    <path d="M 170.775 158.797656 
L 170.775 113.797656 
L 248.717286 158.797656 
L 170.775 203.797656 
L 170.775 158.797656 
M 248.717286 158.797656 
" clip-path="url(#p1a26bcdbbe)" style="fill: none; stroke: #000000; stroke-width: 2; stroke-linecap: round"/>
   </g>
   <g id="line2d_2">
    <path d="M 176.917786 136.297656 
L 184.117786 136.297656 
" clip-path="url(#p1a26bcdbbe)" style="fill: none; stroke: #000000; stroke-width: 2; stroke-linecap: round"/>
   </g>
   <g id="line2d_3">
    <path d="M 176.917786 181.297656 
L 184.117786 181.297656 
" clip-path="url(#p1a26bcdbbe)" style="fill: none; stroke: #000000; stroke-width: 2; stroke-linecap: round"/>
   </g>
   <g id="line2d_4">
    <path d="M 180.517786 184.897656 
L 180.517786 177.697656 
" clip-path="url(#p1a26bcdbbe)" style="fill: none; stroke: #000000; stroke-width: 2; stroke-linecap: round"/>
   </g>
   <g id="line2d_5">
    <path d="M 170.775 181.297656 
L 157.275 181.297656 
L 143.775 181.297656 
" clip-path="url(#p1a26bcdbbe)" style="fill: none; stroke: #000000; stroke-width: 2; stroke-linecap: round"/>
   </g>
   <g id="line2d_6">
    <path d="M 143.775 181.297656 
L 143.775 192.097656 
L 143.775 202.897656 
" clip-path="url(#p1a26bcdbbe)" style="fill: none; stroke: #000000; stroke-width: 2; stroke-linecap: round"/>
   </g>
   <g id="line2d_7">
    <path d="M 143.775 202.897656 
L 143.775 217.297656 
L 134.775 217.297656 
L 152.775 217.297656 
M 137.475 221.617656 
L 150.075 221.617656 
M 141.975 225.937656 
L 145.575 225.937656 
" clip-path="url(#p1a26bcdbbe)" style="fill: none; stroke: #000000; stroke-width: 2; stroke-linecap: round"/>
   </g>
   <g id="line2d_8">
    <path d="M 170.775 136.297656 
L 161.775 136.297656 
L 152.775 136.297656 
" clip-path="url(#p1a26bcdbbe)" style="fill: none; stroke: #000000; stroke-width: 2; stroke-linecap: round"/>
   </g>
   <g id="line2d_9">
    <path d="M 152.775 136.297656 
L 116.775 136.297656 
L 113.775 145.297656 
L 107.775 127.297656 
L 101.775 145.297656 
L 95.775 127.297656 
L 89.775 145.297656 
L 83.775 127.297656 
L 80.775 136.297656 
L 44.775 136.297656 
" clip-path="url(#p1a26bcdbbe)" style="fill: none; stroke: #000000; stroke-width: 2; stroke-linecap: round"/>
   </g>
   <g id="line2d_10">
    <path d="M 44.775 136.297656 
L 35.775 136.297656 
L 26.775 136.297656 
" clip-path="url(#p1a26bcdbbe)" style="fill: none; stroke: #000000; stroke-width: 2; stroke-linecap: round"/>
   </g>
   <g id="line2d_11">
    <path d="M 152.775 136.297656 
L 152.775 109.297656 
L 152.775 82.297656 
" clip-path="url(#p1a26bcdbbe)" style="fill: none; stroke: #000000; stroke-width: 2; stroke-linecap: round"/>
   </g>
   <g id="line2d_12">
    <path d="M 152.775 82.297656 
L 188.775 82.297656 
L 191.775 73.297656 
L 197.775 91.297656 
L 203.775 73.297656 
L 209.775 91.297656 
L 215.775 73.297656 
L 221.775 91.297656 
L 224.775 82.297656 
L 260.775 82.297656 
" clip-path="url(#p1a26bcdbbe)" style="fill: none; stroke: #000000; stroke-width: 2; stroke-linecap: round"/>
   </g>
   <g id="line2d_13">
    <path d="M 152.775 82.297656 
L 102.015 82.297656 
M 102.015 91.297656 
L 102.015 73.297656 
M 95.535 91.297656 
L 95.535 73.297656 
M 95.535 82.297656 
L 44.775 82.297656 
" clip-path="url(#p1a26bcdbbe)" style="fill: none; stroke: #000000; stroke-width: 2; stroke-linecap: round"/>
   </g>
   <g id="line2d_14">
    <path d="M 44.775 82.297656 
L 44.775 109.297656 
L 44.775 136.297656 
" clip-path="url(#p1a26bcdbbe)" style="fill: none; stroke: #000000; stroke-width: 2; stroke-linecap: round"/>
   </g>
   <g id="line2d_15">
    <path d="M 152.775 82.297656 
L 152.775 55.297656 
L 152.775 28.297656 
" clip-path="url(#p1a26bcdbbe)" style="fill: none; stroke: #000000; stroke-width: 2; stroke-linecap: round"/>
   </g>
   <g id="line2d_16">
    <path d="M 152.775 28.297656 
L 203.535 28.297656 
M 203.535 19.297656 
L 203.535 37.297656 
M 210.015 19.297656 
L 210.015 37.297656 
M 210.015 28.297656 
L 260.775 28.297656 
" clip-path="url(#p1a26bcdbbe)" style="fill: none; stroke: #000000; stroke-width: 2; stroke-linecap: round"/>
   </g>
   <g id="line2d_17">
    <path d="M 260.775 28.297656 
L 260.775 93.547656 
L 260.775 158.797656 
" clip-path="url(#p1a26bcdbbe)" style="fill: none; stroke: #000000; stroke-width: 2; stroke-linecap: round"/>
   </g>
   <g id="line2d_18">
    <path d="M 260.775 158.797656 
L 254.746143 158.797656 
L 248.717286 158.797656 
" clip-path="url(#p1a26bcdbbe)" style="fill: none; stroke: #000000; stroke-width: 2; stroke-linecap: round"/>
   </g>
   <g id="line2d_19">
    <path d="M 248.717286 158.797656 
L 262.217286 158.797656 
L 275.717286 158.797656 
" clip-path="url(#p1a26bcdbbe)" style="fill: none; stroke: #000000; stroke-width: 2; stroke-linecap: round"/>
   </g>
   <g id="text_1">
    <!-- $R_1$ -->
    <g transform="translate(91.4625 121.098047) scale(0.125 -0.125)">
     <defs>
      <path id="DejaVuSans-Oblique-52" d="M 1613 4147 
L 1294 2491 
L 2106 2491 
Q 2584 2491 2879 2755 
Q 3175 3019 3175 3444 
Q 3175 3784 2976 3965 
Q 2778 4147 2406 4147 
L 1613 4147 
z
M 2772 2241 
Q 2972 2194 3105 2009 
Q 3238 1825 3413 1275 
L 3809 0 
L 3144 0 
L 2778 1197 
Q 2638 1659 2453 1815 
Q 2269 1972 1888 1972 
L 1191 1972 
L 806 0 
L 172 0 
L 1081 4666 
L 2503 4666 
Q 3150 4666 3495 4373 
Q 3841 4081 3841 3531 
Q 3841 3044 3547 2687 
Q 3253 2331 2772 2241 
z
" transform="scale(0.015625)"/>
      <path id="DejaVuSans-31" d="M 794 531 
L 1825 531 
L 1825 4091 
L 703 3866 
L 703 4441 
L 1819 4666 
L 2450 4666 
L 2450 531 
L 3481 531 
L 3481 0 
L 794 0 
L 794 531 
z
" transform="scale(0.015625)"/>
     </defs>
     <use xlink:href="#DejaVuSans-Oblique-52" transform="translate(0 0.09375)"/>
     <use xlink:href="#DejaVuSans-31" transform="translate(69.482422 -16.3125) scale(0.7)"/>
    </g>
   </g>
   <g id="text_2">
    <!-- $R_2$ -->
    <g transform="translate(199.4625 67.098047) scale(0.125 -0.125)">
     <defs>
      <path id="DejaVuSans-32" d="M 1228 531 
L 3431 531 
L 3431 0 
L 469 0 
L 469 531 
Q 828 903 1448 1529 
Q 2069 2156 2228 2338 
Q 2531 2678 2651 2914 
Q 2772 3150 2772 3378 
Q 2772 3750 2511 3984 
Q 2250 4219 1831 4219 
Q 1534 4219 1204 4116 
Q 875 4013 500 3803 
L 500 4441 
Q 881 4594 1212 4672 
Q 1544 4750 1819 4750 
Q 2544 4750 2975 4387 
Q 3406 4025 3406 3419 
Q 3406 3131 3298 2873 
Q 3191 2616 2906 2266 
Q 2828 2175 2409 1742 
Q 1991 1309 1228 531 
z
" transform="scale(0.015625)"/>
     </defs>
     <use xlink:href="#DejaVuSans-Oblique-52" transform="translate(0 0.09375)"/>
     <use xlink:href="#DejaVuSans-32" transform="translate(69.482422 -16.3125) scale(0.7)"/>
    </g>
   </g>
   <g id="text_3">
    <!-- $C_1$ -->
    <g transform="translate(91.4 67.098047) scale(0.125 -0.125)">
     <defs>
      <path id="DejaVuSans-Oblique-43" d="M 4447 4306 
L 4319 3641 
Q 4019 3944 3683 4091 
Q 3347 4238 2956 4238 
Q 2422 4238 2017 3981 
Q 1613 3725 1319 3200 
Q 1131 2863 1032 2486 
Q 934 2109 934 1728 
Q 934 1091 1264 756 
Q 1594 422 2222 422 
Q 2656 422 3056 561 
Q 3456 700 3834 978 
L 3688 231 
Q 3316 72 2936 -9 
Q 2556 -91 2175 -91 
Q 1278 -91 773 396 
Q 269 884 269 1753 
Q 269 2309 461 2846 
Q 653 3384 1013 3828 
Q 1394 4300 1883 4525 
Q 2372 4750 3022 4750 
Q 3422 4750 3780 4639 
Q 4138 4528 4447 4306 
z
" transform="scale(0.015625)"/>
     </defs>
     <use xlink:href="#DejaVuSans-Oblique-43" transform="translate(0 0.78125)"/>
     <use xlink:href="#DejaVuSans-31" transform="translate(69.824219 -15.625) scale(0.7)"/>
    </g>
   </g>
   <g id="text_4">
    <!-- $C_2$ -->
    <g transform="translate(199.4 13.098047) scale(0.125 -0.125)">
     <use xlink:href="#DejaVuSans-Oblique-43" transform="translate(0 0.78125)"/>
     <use xlink:href="#DejaVuSans-32" transform="translate(69.824219 -15.625) scale(0.7)"/>
    </g>
   </g>
   <g id="patch_2">
    <path d="M 152.775 138.997656 
C 153.491048 138.997656 154.177866 138.713167 154.684188 138.206845 
C 155.190511 137.700522 155.475 137.013705 155.475 136.297656 
C 155.475 135.581608 155.190511 134.894791 154.684188 134.388468 
C 154.177866 133.882145 153.491048 133.597656 152.775 133.597656 
C 152.058952 133.597656 151.372134 133.882145 150.865812 134.388468 
C 150.359489 134.894791 150.075 135.581608 150.075 136.297656 
C 150.075 137.013705 150.359489 137.700522 150.865812 138.206845 
C 151.372134 138.713167 152.058952 138.997656 152.775 138.997656 
z
" clip-path="url(#p1a26bcdbbe)" style="stroke: #000000; stroke-width: 2; stroke-linejoin: miter"/>
   </g>
   <g id="patch_3">
    <path d="M 44.775 138.997656 
C 45.491048 138.997656 46.177866 138.713167 46.684188 138.206845 
C 47.190511 137.700522 47.475 137.013705 47.475 136.297656 
C 47.475 135.581608 47.190511 134.894791 46.684188 134.388468 
C 46.177866 133.882145 45.491048 133.597656 44.775 133.597656 
C 44.058952 133.597656 43.372134 133.882145 42.865812 134.388468 
C 42.359489 134.894791 42.075 135.581608 42.075 136.297656 
C 42.075 137.013705 42.359489 137.700522 42.865812 138.206845 
C 43.372134 138.713167 44.058952 138.997656 44.775 138.997656 
z
" clip-path="url(#p1a26bcdbbe)" style="stroke: #000000; stroke-width: 2; stroke-linejoin: miter"/>
   </g>
   <g id="patch_4">
    <path d="M 26.775 138.997656 
C 27.491048 138.997656 28.177866 138.713167 28.684188 138.206845 
C 29.190511 137.700522 29.475 137.013705 29.475 136.297656 
C 29.475 135.581608 29.190511 134.894791 28.684188 134.388468 
C 28.177866 133.882145 27.491048 133.597656 26.775 133.597656 
C 26.058952 133.597656 25.372134 133.882145 24.865812 134.388468 
C 24.359489 134.894791 24.075 135.581608 24.075 136.297656 
C 24.075 137.013705 24.359489 137.700522 24.865812 138.206845 
C 25.372134 138.713167 26.058952 138.997656 26.775 138.997656 
z
" clip-path="url(#p1a26bcdbbe)" style="fill: #ffffff; stroke: #000000; stroke-width: 2; stroke-linejoin: miter"/>
   </g>
   <g id="text_5">
    <!-- $V_{in}$ -->
    <g transform="translate(3.6 139.746875) scale(0.125 -0.125)">
     <defs>
      <path id="DejaVuSans-Oblique-56" d="M 1319 0 
L 500 4666 
L 1119 4666 
L 1797 653 
L 4063 4666 
L 4750 4666 
L 2053 0 
L 1319 0 
z
" transform="scale(0.015625)"/>
      <path id="DejaVuSans-Oblique-69" d="M 1172 4863 
L 1747 4863 
L 1606 4134 
L 1031 4134 
L 1172 4863 
z
M 909 3500 
L 1484 3500 
L 800 0 
L 225 0 
L 909 3500 
z
" transform="scale(0.015625)"/>
      <path id="DejaVuSans-Oblique-6e" d="M 3566 2113 
L 3156 0 
L 2578 0 
L 2988 2091 
Q 3016 2238 3031 2350 
Q 3047 2463 3047 2528 
Q 3047 2791 2881 2937 
Q 2716 3084 2419 3084 
Q 1956 3084 1622 2776 
Q 1288 2469 1184 1941 
L 800 0 
L 225 0 
L 903 3500 
L 1478 3500 
L 1363 2950 
Q 1603 3253 1940 3418 
Q 2278 3584 2650 3584 
Q 3113 3584 3367 3334 
Q 3622 3084 3622 2631 
Q 3622 2519 3608 2391 
Q 3594 2263 3566 2113 
z
" transform="scale(0.015625)"/>
     </defs>
     <use xlink:href="#DejaVuSans-Oblique-56" transform="translate(0 0.09375)"/>
     <use xlink:href="#DejaVuSans-Oblique-69" transform="translate(68.408203 -16.3125) scale(0.7)"/>
     <use xlink:href="#DejaVuSans-Oblique-6e" transform="translate(87.856445 -16.3125) scale(0.7)"/>
    </g>
   </g>
   <g id="patch_5">
    <path d="M 152.775 84.997656 
C 153.491048 84.997656 154.177866 84.713167 154.684188 84.206845 
C 155.190511 83.700522 155.475 83.013705 155.475 82.297656 
C 155.475 81.581608 155.190511 80.894791 154.684188 80.388468 
C 154.177866 79.882145 153.491048 79.597656 152.775 79.597656 
C 152.058952 79.597656 151.372134 79.882145 150.865812 80.388468 
C 150.359489 80.894791 150.075 81.581608 150.075 82.297656 
C 150.075 83.013705 150.359489 83.700522 150.865812 84.206845 
C 151.372134 84.713167 152.058952 84.997656 152.775 84.997656 
z
" clip-path="url(#p1a26bcdbbe)" style="stroke: #000000; stroke-width: 2; stroke-linejoin: miter"/>
   </g>
   <g id="patch_6">
    <path d="M 260.775 84.997656 
C 261.491048 84.997656 262.177866 84.713167 262.684188 84.206845 
C 263.190511 83.700522 263.475 83.013705 263.475 82.297656 
C 263.475 81.581608 263.190511 80.894791 262.684188 80.388468 
C 262.177866 79.882145 261.491048 79.597656 260.775 79.597656 
C 260.058952 79.597656 259.372134 79.882145 258.865812 80.388468 
C 258.359489 80.894791 258.075 81.581608 258.075 82.297656 
C 258.075 83.013705 258.359489 83.700522 258.865812 84.206845 
C 259.372134 84.713167 260.058952 84.997656 260.775 84.997656 
z
" clip-path="url(#p1a26bcdbbe)" style="stroke: #000000; stroke-width: 2; stroke-linejoin: miter"/>
   </g>
   <g id="patch_7">
    <path d="M 260.775 161.497656 
C 261.491048 161.497656 262.177866 161.213167 262.684188 160.706845 
C 263.190511 160.200522 263.475 159.513705 263.475 158.797656 
C 263.475 158.081608 263.190511 157.394791 262.684188 156.888468 
C 262.177866 156.382145 261.491048 156.097656 260.775 156.097656 
C 260.058952 156.097656 259.372134 156.382145 258.865812 156.888468 
C 258.359489 157.394791 258.075 158.081608 258.075 158.797656 
C 258.075 159.513705 258.359489 160.200522 258.865812 160.706845 
C 259.372134 161.213167 260.058952 161.497656 260.775 161.497656 
z
" clip-path="url(#p1a26bcdbbe)" style="stroke: #000000; stroke-width: 2; stroke-linejoin: miter"/>
   </g>
   <g id="patch_8">
    <path d="M 275.717286 161.497656 
C 276.433335 161.497656 277.120152 161.213167 277.626475 160.706845 
C 278.132797 160.200522 278.417286 159.513705 278.417286 158.797656 
C 278.417286 158.081608 278.132797 157.394791 277.626475 156.888468 
C 277.120152 156.382145 276.433335 156.097656 275.717286 156.097656 
C 275.001238 156.097656 274.314421 156.382145 273.808098 156.888468 
C 273.301775 157.394791 273.017286 158.081608 273.017286 158.797656 
C 273.017286 159.513705 273.301775 160.200522 273.808098 160.706845 
C 274.314421 161.213167 275.001238 161.497656 275.717286 161.497656 
z
" clip-path="url(#p1a26bcdbbe)" style="fill: #ffffff; stroke: #000000; stroke-width: 2; stroke-linejoin: miter"/>
   </g>
   <g id="text_6">
    <!-- $V_{out}$ -->
    <g transform="translate(282.017286 162.246875) scale(0.125 -0.125)">
     <defs>
      <path id="DejaVuSans-Oblique-6f" d="M 1625 -91 
Q 1009 -91 651 289 
Q 294 669 294 1325 
Q 294 1706 417 2101 
Q 541 2497 738 2766 
Q 1047 3184 1428 3384 
Q 1809 3584 2291 3584 
Q 2888 3584 3255 3212 
Q 3622 2841 3622 2241 
Q 3622 1825 3500 1412 
Q 3378 1000 3181 728 
Q 2875 309 2494 109 
Q 2113 -91 1625 -91 
z
M 891 1344 
Q 891 869 1089 633 
Q 1288 397 1691 397 
Q 2269 397 2648 901 
Q 3028 1406 3028 2181 
Q 3028 2634 2825 2865 
Q 2622 3097 2228 3097 
Q 1903 3097 1650 2945 
Q 1397 2794 1197 2484 
Q 1050 2253 970 1956 
Q 891 1659 891 1344 
z
" transform="scale(0.015625)"/>
      <path id="DejaVuSans-Oblique-75" d="M 428 1388 
L 838 3500 
L 1416 3500 
L 1006 1409 
Q 975 1256 961 1147 
Q 947 1038 947 966 
Q 947 700 1109 554 
Q 1272 409 1569 409 
Q 2031 409 2368 721 
Q 2706 1034 2809 1563 
L 3194 3500 
L 3769 3500 
L 3091 0 
L 2516 0 
L 2631 550 
Q 2388 244 2052 76 
Q 1716 -91 1338 -91 
Q 878 -91 622 161 
Q 366 413 366 863 
Q 366 956 381 1097 
Q 397 1238 428 1388 
z
" transform="scale(0.015625)"/>
      <path id="DejaVuSans-Oblique-74" d="M 2706 3500 
L 2619 3053 
L 1472 3053 
L 1100 1153 
Q 1081 1047 1072 975 
Q 1063 903 1063 863 
Q 1063 663 1183 572 
Q 1303 481 1569 481 
L 2150 481 
L 2053 0 
L 1503 0 
Q 991 0 739 200 
Q 488 400 488 806 
Q 488 878 497 964 
Q 506 1050 525 1153 
L 897 3053 
L 409 3053 
L 500 3500 
L 978 3500 
L 1172 4494 
L 1747 4494 
L 1556 3500 
L 2706 3500 
z
" transform="scale(0.015625)"/>
     </defs>
     <use xlink:href="#DejaVuSans-Oblique-56" transform="translate(0 0.09375)"/>
     <use xlink:href="#DejaVuSans-Oblique-6f" transform="translate(68.408203 -16.3125) scale(0.7)"/>
     <use xlink:href="#DejaVuSans-Oblique-75" transform="translate(111.235352 -16.3125) scale(0.7)"/>
     <use xlink:href="#DejaVuSans-Oblique-74" transform="translate(155.600586 -16.3125) scale(0.7)"/>
    </g>
   </g>
  </g>
 </g>
 <defs>
  <clipPath id="p1a26bcdbbe">
   <rect x="11.357886" y="8.965656" width="279.776515" height="227.304"/>
  </clipPath>
 </defs>
</svg>