<?xml version="1.0" encoding="utf-8" standalone="no"?>
<!DOCTYPE svg PUBLIC "-//W3C//DTD SVG 1.1//EN"
  "http://www.w3.org/Graphics/SVG/1.1/DTD/svg11.dtd">
<svg xmlns:xlink="http://www.w3.org/1999/xlink" width="605.803125pt" height="588.35625pt" viewBox="0 0 605.803125 588.35625" xmlns="http://www.w3.org/2000/svg" version="1.1">
 <metadata>
  <rdf:RDF xmlns:dc="http://purl.org/dc/elements/1.1/" xmlns:cc="http://creativecommons.org/ns#" xmlns:rdf="http://www.w3.org/1999/02/22-rdf-syntax-ns#">
   <cc:Work>
    <dc:type rdf:resource="http://purl.org/dc/dcmitype/StillImage"/>
    <dc:date>2022-11-04T22:29:14.469316</dc:date>
    <dc:format>image/svg+xml</dc:format>
    <dc:creator>
     <cc:Agent>
      <dc:title>Matplotlib v3.5.3, https://matplotlib.org/</dc:title>
     </cc:Agent>
    </dc:creator>
   </cc:Work>
  </rdf:RDF>
 </metadata>
 <defs>
  <style type="text/css">*{stroke-linejoin: round; stroke-linecap: butt}</style>
 </defs>
 <g id="figure_1">
  <g id="patch_1">
   <path d="M 0 588.35625 
L 605.803125 588.35625 
L 605.803125 0 
L 0 0 
L 0 588.35625 
z
" style="fill: none"/>
  </g>
  <g id="axes_1">
   <g id="patch_2">
    <path d="M 40.603125 550.8 
L 598.603125 550.8 
L 598.603125 7.2 
L 40.603125 7.2 
z
" style="fill: #ffffff"/>
   </g>
   <g id="matplotlib.axis_1">
    <g id="xtick_1">
     <g id="line2d_1">
      <path d="M 84.75464 550.8 
L 84.75464 7.2 
" clip-path="url(#p6bd50718f0)" style="fill: none; stroke: #b0b0b0; stroke-width: 0.8; stroke-linecap: square"/>
     </g>
     <g id="line2d_2">
      <defs>
       <path id="mdfcbc8a332" d="M 0 0 
L 0 3.5 
" style="stroke: #000000; stroke-width: 0.8"/>
      </defs>
      <g>
       <use xlink:href="#mdfcbc8a332" x="84.75464" y="550.8" style="stroke: #000000; stroke-width: 0.8"/>
      </g>
     </g>
     <g id="text_1">
      <!-- −4 -->
      <g transform="translate(77.383546 565.398438)scale(0.1 -0.1)">
       <defs>
        <path id="DejaVuSans-2212" d="M 678 2272 
L 4684 2272 
L 4684 1741 
L 678 1741 
L 678 2272 
z
" transform="scale(0.015625)"/>
        <path id="DejaVuSans-34" d="M 2419 4116 
L 825 1625 
L 2419 1625 
L 2419 4116 
z
M 2253 4666 
L 3047 4666 
L 3047 1625 
L 3713 1625 
L 3713 1100 
L 3047 1100 
L 3047 0 
L 2419 0 
L 2419 1100 
L 313 1100 
L 313 1709 
L 2253 4666 
z
" transform="scale(0.015625)"/>
       </defs>
       <use xlink:href="#DejaVuSans-2212"/>
       <use xlink:href="#DejaVuSans-34" x="83.789062"/>
      </g>
     </g>
    </g>
    <g id="xtick_2">
     <g id="line2d_3">
      <path d="M 178.694034 550.8 
L 178.694034 7.2 
" clip-path="url(#p6bd50718f0)" style="fill: none; stroke: #b0b0b0; stroke-width: 0.8; stroke-linecap: square"/>
     </g>
     <g id="line2d_4">
      <g>
       <use xlink:href="#mdfcbc8a332" x="178.694034" y="550.8" style="stroke: #000000; stroke-width: 0.8"/>
      </g>
     </g>
     <g id="text_2">
      <!-- −3 -->
      <g transform="translate(171.32294 565.398438)scale(0.1 -0.1)">
       <defs>
        <path id="DejaVuSans-33" d="M 2597 2516 
Q 3050 2419 3304 2112 
Q 3559 1806 3559 1356 
Q 3559 666 3084 287 
Q 2609 -91 1734 -91 
Q 1441 -91 1130 -33 
Q 819 25 488 141 
L 488 750 
Q 750 597 1062 519 
Q 1375 441 1716 441 
Q 2309 441 2620 675 
Q 2931 909 2931 1356 
Q 2931 1769 2642 2001 
Q 2353 2234 1838 2234 
L 1294 2234 
L 1294 2753 
L 1863 2753 
Q 2328 2753 2575 2939 
Q 2822 3125 2822 3475 
Q 2822 3834 2567 4026 
Q 2313 4219 1838 4219 
Q 1578 4219 1281 4162 
Q 984 4106 628 3988 
L 628 4550 
Q 988 4650 1302 4700 
Q 1616 4750 1894 4750 
Q 2613 4750 3031 4423 
Q 3450 4097 3450 3541 
Q 3450 3153 3228 2886 
Q 3006 2619 2597 2516 
z
" transform="scale(0.015625)"/>
       </defs>
       <use xlink:href="#DejaVuSans-2212"/>
       <use xlink:href="#DejaVuSans-33" x="83.789062"/>
      </g>
     </g>
    </g>
    <g id="xtick_3">
     <g id="line2d_5">
      <path d="M 272.633428 550.8 
L 272.633428 7.2 
" clip-path="url(#p6bd50718f0)" style="fill: none; stroke: #b0b0b0; stroke-width: 0.8; stroke-linecap: square"/>
     </g>
     <g id="line2d_6">
      <g>
       <use xlink:href="#mdfcbc8a332" x="272.633428" y="550.8" style="stroke: #000000; stroke-width: 0.8"/>
      </g>
     </g>
     <g id="text_3">
      <!-- −2 -->
      <g transform="translate(265.262334 565.398438)scale(0.1 -0.1)">
       <defs>
        <path id="DejaVuSans-32" d="M 1228 531 
L 3431 531 
L 3431 0 
L 469 0 
L 469 531 
Q 828 903 1448 1529 
Q 2069 2156 2228 2338 
Q 2531 2678 2651 2914 
Q 2772 3150 2772 3378 
Q 2772 3750 2511 3984 
Q 2250 4219 1831 4219 
Q 1534 4219 1204 4116 
Q 875 4013 500 3803 
L 500 4441 
Q 881 4594 1212 4672 
Q 1544 4750 1819 4750 
Q 2544 4750 2975 4387 
Q 3406 4025 3406 3419 
Q 3406 3131 3298 2873 
Q 3191 2616 2906 2266 
Q 2828 2175 2409 1742 
Q 1991 1309 1228 531 
z
" transform="scale(0.015625)"/>
       </defs>
       <use xlink:href="#DejaVuSans-2212"/>
       <use xlink:href="#DejaVuSans-32" x="83.789062"/>
      </g>
     </g>
    </g>
    <g id="xtick_4">
     <g id="line2d_7">
      <path d="M 366.572822 550.8 
L 366.572822 7.2 
" clip-path="url(#p6bd50718f0)" style="fill: none; stroke: #b0b0b0; stroke-width: 0.8; stroke-linecap: square"/>
     </g>
     <g id="line2d_8">
      <g>
       <use xlink:href="#mdfcbc8a332" x="366.572822" y="550.8" style="stroke: #000000; stroke-width: 0.8"/>
      </g>
     </g>
     <g id="text_4">
      <!-- −1 -->
      <g transform="translate(359.201728 565.398438)scale(0.1 -0.1)">
       <defs>
        <path id="DejaVuSans-31" d="M 794 531 
L 1825 531 
L 1825 4091 
L 703 3866 
L 703 4441 
L 1819 4666 
L 2450 4666 
L 2450 531 
L 3481 531 
L 3481 0 
L 794 0 
L 794 531 
z
" transform="scale(0.015625)"/>
       </defs>
       <use xlink:href="#DejaVuSans-2212"/>
       <use xlink:href="#DejaVuSans-31" x="83.789062"/>
      </g>
     </g>
    </g>
    <g id="xtick_5">
     <g id="line2d_9">
      <path d="M 460.512216 550.8 
L 460.512216 7.2 
" clip-path="url(#p6bd50718f0)" style="fill: none; stroke: #b0b0b0; stroke-width: 0.8; stroke-linecap: square"/>
     </g>
     <g id="line2d_10">
      <g>
       <use xlink:href="#mdfcbc8a332" x="460.512216" y="550.8" style="stroke: #000000; stroke-width: 0.8"/>
      </g>
     </g>
     <g id="text_5">
      <!-- 0 -->
      <g transform="translate(457.330966 565.398438)scale(0.1 -0.1)">
       <defs>
        <path id="DejaVuSans-30" d="M 2034 4250 
Q 1547 4250 1301 3770 
Q 1056 3291 1056 2328 
Q 1056 1369 1301 889 
Q 1547 409 2034 409 
Q 2525 409 2770 889 
Q 3016 1369 3016 2328 
Q 3016 3291 2770 3770 
Q 2525 4250 2034 4250 
z
M 2034 4750 
Q 2819 4750 3233 4129 
Q 3647 3509 3647 2328 
Q 3647 1150 3233 529 
Q 2819 -91 2034 -91 
Q 1250 -91 836 529 
Q 422 1150 422 2328 
Q 422 3509 836 4129 
Q 1250 4750 2034 4750 
z
" transform="scale(0.015625)"/>
       </defs>
       <use xlink:href="#DejaVuSans-30"/>
      </g>
     </g>
    </g>
    <g id="xtick_6">
     <g id="line2d_11">
      <path d="M 554.45161 550.8 
L 554.45161 7.2 
" clip-path="url(#p6bd50718f0)" style="fill: none; stroke: #b0b0b0; stroke-width: 0.8; stroke-linecap: square"/>
     </g>
     <g id="line2d_12">
      <g>
       <use xlink:href="#mdfcbc8a332" x="554.45161" y="550.8" style="stroke: #000000; stroke-width: 0.8"/>
      </g>
     </g>
     <g id="text_6">
      <!-- 1 -->
      <g transform="translate(551.27036 565.398438)scale(0.1 -0.1)">
       <use xlink:href="#DejaVuSans-31"/>
      </g>
     </g>
    </g>
    <g id="text_7">
     <!-- input voltage V(4) [V] -->
     <g transform="translate(265.467187 579.076563)scale(0.1 -0.1)">
      <defs>
       <path id="DejaVuSans-69" d="M 603 3500 
L 1178 3500 
L 1178 0 
L 603 0 
L 603 3500 
z
M 603 4863 
L 1178 4863 
L 1178 4134 
L 603 4134 
L 603 4863 
z
" transform="scale(0.015625)"/>
       <path id="DejaVuSans-6e" d="M 3513 2113 
L 3513 0 
L 2938 0 
L 2938 2094 
Q 2938 2591 2744 2837 
Q 2550 3084 2163 3084 
Q 1697 3084 1428 2787 
Q 1159 2491 1159 1978 
L 1159 0 
L 581 0 
L 581 3500 
L 1159 3500 
L 1159 2956 
Q 1366 3272 1645 3428 
Q 1925 3584 2291 3584 
Q 2894 3584 3203 3211 
Q 3513 2838 3513 2113 
z
" transform="scale(0.015625)"/>
       <path id="DejaVuSans-70" d="M 1159 525 
L 1159 -1331 
L 581 -1331 
L 581 3500 
L 1159 3500 
L 1159 2969 
Q 1341 3281 1617 3432 
Q 1894 3584 2278 3584 
Q 2916 3584 3314 3078 
Q 3713 2572 3713 1747 
Q 3713 922 3314 415 
Q 2916 -91 2278 -91 
Q 1894 -91 1617 61 
Q 1341 213 1159 525 
z
M 3116 1747 
Q 3116 2381 2855 2742 
Q 2594 3103 2138 3103 
Q 1681 3103 1420 2742 
Q 1159 2381 1159 1747 
Q 1159 1113 1420 752 
Q 1681 391 2138 391 
Q 2594 391 2855 752 
Q 3116 1113 3116 1747 
z
" transform="scale(0.015625)"/>
       <path id="DejaVuSans-75" d="M 544 1381 
L 544 3500 
L 1119 3500 
L 1119 1403 
Q 1119 906 1312 657 
Q 1506 409 1894 409 
Q 2359 409 2629 706 
Q 2900 1003 2900 1516 
L 2900 3500 
L 3475 3500 
L 3475 0 
L 2900 0 
L 2900 538 
Q 2691 219 2414 64 
Q 2138 -91 1772 -91 
Q 1169 -91 856 284 
Q 544 659 544 1381 
z
M 1991 3584 
L 1991 3584 
z
" transform="scale(0.015625)"/>
       <path id="DejaVuSans-74" d="M 1172 4494 
L 1172 3500 
L 2356 3500 
L 2356 3053 
L 1172 3053 
L 1172 1153 
Q 1172 725 1289 603 
Q 1406 481 1766 481 
L 2356 481 
L 2356 0 
L 1766 0 
Q 1100 0 847 248 
Q 594 497 594 1153 
L 594 3053 
L 172 3053 
L 172 3500 
L 594 3500 
L 594 4494 
L 1172 4494 
z
" transform="scale(0.015625)"/>
       <path id="DejaVuSans-20" transform="scale(0.015625)"/>
       <path id="DejaVuSans-76" d="M 191 3500 
L 800 3500 
L 1894 563 
L 2988 3500 
L 3597 3500 
L 2284 0 
L 1503 0 
L 191 3500 
z
" transform="scale(0.015625)"/>
       <path id="DejaVuSans-6f" d="M 1959 3097 
Q 1497 3097 1228 2736 
Q 959 2375 959 1747 
Q 959 1119 1226 758 
Q 1494 397 1959 397 
Q 2419 397 2687 759 
Q 2956 1122 2956 1747 
Q 2956 2369 2687 2733 
Q 2419 3097 1959 3097 
z
M 1959 3584 
Q 2709 3584 3137 3096 
Q 3566 2609 3566 1747 
Q 3566 888 3137 398 
Q 2709 -91 1959 -91 
Q 1206 -91 779 398 
Q 353 888 353 1747 
Q 353 2609 779 3096 
Q 1206 3584 1959 3584 
z
" transform="scale(0.015625)"/>
       <path id="DejaVuSans-6c" d="M 603 4863 
L 1178 4863 
L 1178 0 
L 603 0 
L 603 4863 
z
" transform="scale(0.015625)"/>
       <path id="DejaVuSans-61" d="M 2194 1759 
Q 1497 1759 1228 1600 
Q 959 1441 959 1056 
Q 959 750 1161 570 
Q 1363 391 1709 391 
Q 2188 391 2477 730 
Q 2766 1069 2766 1631 
L 2766 1759 
L 2194 1759 
z
M 3341 1997 
L 3341 0 
L 2766 0 
L 2766 531 
Q 2569 213 2275 61 
Q 1981 -91 1556 -91 
Q 1019 -91 701 211 
Q 384 513 384 1019 
Q 384 1609 779 1909 
Q 1175 2209 1959 2209 
L 2766 2209 
L 2766 2266 
Q 2766 2663 2505 2880 
Q 2244 3097 1772 3097 
Q 1472 3097 1187 3025 
Q 903 2953 641 2809 
L 641 3341 
Q 956 3463 1253 3523 
Q 1550 3584 1831 3584 
Q 2591 3584 2966 3190 
Q 3341 2797 3341 1997 
z
" transform="scale(0.015625)"/>
       <path id="DejaVuSans-67" d="M 2906 1791 
Q 2906 2416 2648 2759 
Q 2391 3103 1925 3103 
Q 1463 3103 1205 2759 
Q 947 2416 947 1791 
Q 947 1169 1205 825 
Q 1463 481 1925 481 
Q 2391 481 2648 825 
Q 2906 1169 2906 1791 
z
M 3481 434 
Q 3481 -459 3084 -895 
Q 2688 -1331 1869 -1331 
Q 1566 -1331 1297 -1286 
Q 1028 -1241 775 -1147 
L 775 -588 
Q 1028 -725 1275 -790 
Q 1522 -856 1778 -856 
Q 2344 -856 2625 -561 
Q 2906 -266 2906 331 
L 2906 616 
Q 2728 306 2450 153 
Q 2172 0 1784 0 
Q 1141 0 747 490 
Q 353 981 353 1791 
Q 353 2603 747 3093 
Q 1141 3584 1784 3584 
Q 2172 3584 2450 3431 
Q 2728 3278 2906 2969 
L 2906 3500 
L 3481 3500 
L 3481 434 
z
" transform="scale(0.015625)"/>
       <path id="DejaVuSans-65" d="M 3597 1894 
L 3597 1613 
L 953 1613 
Q 991 1019 1311 708 
Q 1631 397 2203 397 
Q 2534 397 2845 478 
Q 3156 559 3463 722 
L 3463 178 
Q 3153 47 2828 -22 
Q 2503 -91 2169 -91 
Q 1331 -91 842 396 
Q 353 884 353 1716 
Q 353 2575 817 3079 
Q 1281 3584 2069 3584 
Q 2775 3584 3186 3129 
Q 3597 2675 3597 1894 
z
M 3022 2063 
Q 3016 2534 2758 2815 
Q 2500 3097 2075 3097 
Q 1594 3097 1305 2825 
Q 1016 2553 972 2059 
L 3022 2063 
z
" transform="scale(0.015625)"/>
       <path id="DejaVuSans-56" d="M 1831 0 
L 50 4666 
L 709 4666 
L 2188 738 
L 3669 4666 
L 4325 4666 
L 2547 0 
L 1831 0 
z
" transform="scale(0.015625)"/>
       <path id="DejaVuSans-28" d="M 1984 4856 
Q 1566 4138 1362 3434 
Q 1159 2731 1159 2009 
Q 1159 1288 1364 580 
Q 1569 -128 1984 -844 
L 1484 -844 
Q 1016 -109 783 600 
Q 550 1309 550 2009 
Q 550 2706 781 3412 
Q 1013 4119 1484 4856 
L 1984 4856 
z
" transform="scale(0.015625)"/>
       <path id="DejaVuSans-29" d="M 513 4856 
L 1013 4856 
Q 1481 4119 1714 3412 
Q 1947 2706 1947 2009 
Q 1947 1309 1714 600 
Q 1481 -109 1013 -844 
L 513 -844 
Q 928 -128 1133 580 
Q 1338 1288 1338 2009 
Q 1338 2731 1133 3434 
Q 928 4138 513 4856 
z
" transform="scale(0.015625)"/>
       <path id="DejaVuSans-5b" d="M 550 4863 
L 1875 4863 
L 1875 4416 
L 1125 4416 
L 1125 -397 
L 1875 -397 
L 1875 -844 
L 550 -844 
L 550 4863 
z
" transform="scale(0.015625)"/>
       <path id="DejaVuSans-5d" d="M 1947 4863 
L 1947 -844 
L 622 -844 
L 622 -397 
L 1369 -397 
L 1369 4416 
L 622 4416 
L 622 4863 
L 1947 4863 
z
" transform="scale(0.015625)"/>
      </defs>
      <use xlink:href="#DejaVuSans-69"/>
      <use xlink:href="#DejaVuSans-6e" x="27.783203"/>
      <use xlink:href="#DejaVuSans-70" x="91.162109"/>
      <use xlink:href="#DejaVuSans-75" x="154.638672"/>
      <use xlink:href="#DejaVuSans-74" x="218.017578"/>
      <use xlink:href="#DejaVuSans-20" x="257.226562"/>
      <use xlink:href="#DejaVuSans-76" x="289.013672"/>
      <use xlink:href="#DejaVuSans-6f" x="348.193359"/>
      <use xlink:href="#DejaVuSans-6c" x="409.375"/>
      <use xlink:href="#DejaVuSans-74" x="437.158203"/>
      <use xlink:href="#DejaVuSans-61" x="476.367188"/>
      <use xlink:href="#DejaVuSans-67" x="537.646484"/>
      <use xlink:href="#DejaVuSans-65" x="601.123047"/>
      <use xlink:href="#DejaVuSans-20" x="662.646484"/>
      <use xlink:href="#DejaVuSans-56" x="694.433594"/>
      <use xlink:href="#DejaVuSans-28" x="762.841797"/>
      <use xlink:href="#DejaVuSans-34" x="801.855469"/>
      <use xlink:href="#DejaVuSans-29" x="865.478516"/>
      <use xlink:href="#DejaVuSans-20" x="904.492188"/>
      <use xlink:href="#DejaVuSans-5b" x="936.279297"/>
      <use xlink:href="#DejaVuSans-56" x="975.292969"/>
      <use xlink:href="#DejaVuSans-5d" x="1043.701172"/>
     </g>
    </g>
   </g>
   <g id="matplotlib.axis_2">
    <g id="ytick_1">
     <g id="line2d_13">
      <path d="M 40.603125 529.280713 
L 598.603125 529.280713 
" clip-path="url(#p6bd50718f0)" style="fill: none; stroke: #b0b0b0; stroke-width: 0.8; stroke-linecap: square"/>
     </g>
     <g id="line2d_14">
      <defs>
       <path id="m2490c302b9" d="M 0 0 
L -3.5 0 
" style="stroke: #000000; stroke-width: 0.8"/>
      </defs>
      <g>
       <use xlink:href="#m2490c302b9" x="40.603125" y="529.280713" style="stroke: #000000; stroke-width: 0.8"/>
      </g>
     </g>
     <g id="text_8">
      <!-- 0 -->
      <g transform="translate(27.240625 533.079932)scale(0.1 -0.1)">
       <use xlink:href="#DejaVuSans-30"/>
      </g>
     </g>
    </g>
    <g id="ytick_2">
     <g id="line2d_15">
      <path d="M 40.603125 410.435653 
L 598.603125 410.435653 
" clip-path="url(#p6bd50718f0)" style="fill: none; stroke: #b0b0b0; stroke-width: 0.8; stroke-linecap: square"/>
     </g>
     <g id="line2d_16">
      <g>
       <use xlink:href="#m2490c302b9" x="40.603125" y="410.435653" style="stroke: #000000; stroke-width: 0.8"/>
      </g>
     </g>
     <g id="text_9">
      <!-- 5 -->
      <g transform="translate(27.240625 414.234872)scale(0.1 -0.1)">
       <defs>
        <path id="DejaVuSans-35" d="M 691 4666 
L 3169 4666 
L 3169 4134 
L 1269 4134 
L 1269 2991 
Q 1406 3038 1543 3061 
Q 1681 3084 1819 3084 
Q 2600 3084 3056 2656 
Q 3513 2228 3513 1497 
Q 3513 744 3044 326 
Q 2575 -91 1722 -91 
Q 1428 -91 1123 -41 
Q 819 9 494 109 
L 494 744 
Q 775 591 1075 516 
Q 1375 441 1709 441 
Q 2250 441 2565 725 
Q 2881 1009 2881 1497 
Q 2881 1984 2565 2268 
Q 2250 2553 1709 2553 
Q 1456 2553 1204 2497 
Q 953 2441 691 2322 
L 691 4666 
z
" transform="scale(0.015625)"/>
       </defs>
       <use xlink:href="#DejaVuSans-35"/>
      </g>
     </g>
    </g>
    <g id="ytick_3">
     <g id="line2d_17">
      <path d="M 40.603125 291.590593 
L 598.603125 291.590593 
" clip-path="url(#p6bd50718f0)" style="fill: none; stroke: #b0b0b0; stroke-width: 0.8; stroke-linecap: square"/>
     </g>
     <g id="line2d_18">
      <g>
       <use xlink:href="#m2490c302b9" x="40.603125" y="291.590593" style="stroke: #000000; stroke-width: 0.8"/>
      </g>
     </g>
     <g id="text_10">
      <!-- 10 -->
      <g transform="translate(20.878125 295.389812)scale(0.1 -0.1)">
       <use xlink:href="#DejaVuSans-31"/>
       <use xlink:href="#DejaVuSans-30" x="63.623047"/>
      </g>
     </g>
    </g>
    <g id="ytick_4">
     <g id="line2d_19">
      <path d="M 40.603125 172.745533 
L 598.603125 172.745533 
" clip-path="url(#p6bd50718f0)" style="fill: none; stroke: #b0b0b0; stroke-width: 0.8; stroke-linecap: square"/>
     </g>
     <g id="line2d_20">
      <g>
       <use xlink:href="#m2490c302b9" x="40.603125" y="172.745533" style="stroke: #000000; stroke-width: 0.8"/>
      </g>
     </g>
     <g id="text_11">
      <!-- 15 -->
      <g transform="translate(20.878125 176.544752)scale(0.1 -0.1)">
       <use xlink:href="#DejaVuSans-31"/>
       <use xlink:href="#DejaVuSans-35" x="63.623047"/>
      </g>
     </g>
    </g>
    <g id="ytick_5">
     <g id="line2d_21">
      <path d="M 40.603125 53.900474 
L 598.603125 53.900474 
" clip-path="url(#p6bd50718f0)" style="fill: none; stroke: #b0b0b0; stroke-width: 0.8; stroke-linecap: square"/>
     </g>
     <g id="line2d_22">
      <g>
       <use xlink:href="#m2490c302b9" x="40.603125" y="53.900474" style="stroke: #000000; stroke-width: 0.8"/>
      </g>
     </g>
     <g id="text_12">
      <!-- 20 -->
      <g transform="translate(20.878125 57.699692)scale(0.1 -0.1)">
       <use xlink:href="#DejaVuSans-32"/>
       <use xlink:href="#DejaVuSans-30" x="63.623047"/>
      </g>
     </g>
    </g>
    <g id="text_13">
     <!-- output voltage V(2) [V] -->
     <g transform="translate(14.798438 336.766406)rotate(-90)scale(0.1 -0.1)">
      <use xlink:href="#DejaVuSans-6f"/>
      <use xlink:href="#DejaVuSans-75" x="61.181641"/>
      <use xlink:href="#DejaVuSans-74" x="124.560547"/>
      <use xlink:href="#DejaVuSans-70" x="163.769531"/>
      <use xlink:href="#DejaVuSans-75" x="227.246094"/>
      <use xlink:href="#DejaVuSans-74" x="290.625"/>
      <use xlink:href="#DejaVuSans-20" x="329.833984"/>
      <use xlink:href="#DejaVuSans-76" x="361.621094"/>
      <use xlink:href="#DejaVuSans-6f" x="420.800781"/>
      <use xlink:href="#DejaVuSans-6c" x="481.982422"/>
      <use xlink:href="#DejaVuSans-74" x="509.765625"/>
      <use xlink:href="#DejaVuSans-61" x="548.974609"/>
      <use xlink:href="#DejaVuSans-67" x="610.253906"/>
      <use xlink:href="#DejaVuSans-65" x="673.730469"/>
      <use xlink:href="#DejaVuSans-20" x="735.253906"/>
      <use xlink:href="#DejaVuSans-56" x="767.041016"/>
      <use xlink:href="#DejaVuSans-28" x="835.449219"/>
      <use xlink:href="#DejaVuSans-32" x="874.462891"/>
      <use xlink:href="#DejaVuSans-29" x="938.085938"/>
      <use xlink:href="#DejaVuSans-20" x="977.099609"/>
      <use xlink:href="#DejaVuSans-5b" x="1008.886719"/>
      <use xlink:href="#DejaVuSans-56" x="1047.900391"/>
      <use xlink:href="#DejaVuSans-5d" x="1116.308594"/>
     </g>
    </g>
   </g>
   <g id="line2d_23">
    <path d="M 319.603125 267.821581 
L 529.186191 267.923011 
L 533.10322 268.169518 
L 536.327579 268.597685 
L 539.173635 269.205686 
L 541.668784 269.951426 
L 544.075115 270.885762 
L 546.391665 272.008828 
L 548.617509 273.31792 
L 550.96011 274.967199 
L 553.190745 276.82786 
L 555.308335 278.890395 
L 557.311856 281.144225 
L 559.366281 283.807717 
L 561.282618 286.669643 
L 563.059763 289.713638 
L 564.826744 293.197111 
L 566.427973 296.852255 
L 567.862368 300.656444 
L 569.219414 304.893533 
L 570.380786 309.247627 
L 571.345574 313.689271 
L 572.16027 318.511626 
L 572.747696 323.363792 
L 573.107322 328.209075 
L 573.238827 333.010835 
L 573.14209 337.732582 
L 572.8172 342.338075 
L 572.308379 346.499976 
L 571.601462 350.500496 
L 570.697003 354.311201 
L 569.680886 357.655312 
L 568.495736 360.789701 
L 567.252413 363.478259 
L 565.86646 365.953333 
L 564.471387 368.020902 
L 562.95781 369.883615 
L 561.326461 371.529885 
L 559.741881 372.829292 
L 558.061255 373.932617 
L 556.285255 374.832275 
L 554.414591 375.521157 
L 552.450011 375.992723 
L 550.392302 376.241123 
L 548.242285 376.261374 
L 546.000822 376.04961 
L 543.668808 375.603466 
L 541.247177 374.92267 
L 538.481031 373.906231 
L 535.342656 372.490029 
L 531.802594 370.627725 
L 526.957246 367.7965 
L 503.501829 353.780511 
L 488.576778 345.216389 
L 472.111244 336.028839 
L 454.140567 326.260623 
L 434.723759 315.965818 
L 414.416087 305.451032 
L 392.889229 294.557262 
L 370.76919 283.610882 
L 347.730941 272.459249 
L 324.4548 261.438377 
L 300.631753 250.407124 
L 276.976203 239.699909 
L 253.697004 229.405499 
L 230.999686 219.607662 
L 209.084644 210.384515 
L 188.145363 201.807926 
L 168.366716 193.942981 
L 149.923328 186.847521 
L 133.321921 180.696433 
L 118.604972 175.477005 
L 106.060626 171.254988 
L 95.331038 167.873189 
L 86.78244 165.401546 
L 79.980148 163.658099 
L 74.88493 162.574439 
L 71.327802 162.030197 
L 68.890004 161.868996 
L 67.389607 161.97547 
L 66.552481 162.231167 
L 66.130865 162.563171 
L 65.974827 162.940435 
L 66.028273 163.433705 
L 66.336788 164.060412 
L 67.039901 164.937816 
L 68.30948 166.131678 
L 70.342414 167.715591 
L 73.358608 169.769483 
L 77.597963 172.377684 
L 83.316126 175.626479 
L 90.778714 179.601112 
L 100.253802 184.382185 
L 111.711412 189.904071 
L 125.285413 196.190977 
L 141.08238 203.253235 
L 158.781117 210.917269 
L 178.320734 219.135392 
L 199.607987 227.848361 
L 222.515108 236.985221 
L 246.878053 246.463369 
L 272.495263 256.188854 
L 298.621502 265.87184 
L 325.481591 275.590645 
L 352.77866 285.228217 
L 379.689171 294.492847 
L 405.899562 303.284194 
L 431.104431 311.509176 
L 455.010094 319.082911 
L 477.338002 325.929551 
L 497.827993 331.983 
L 515.920529 337.09959 
L 531.809444 341.594051 
L 535.349233 342.883002 
L 538.48735 344.269157 
L 541.253257 345.728486 
L 543.911896 347.376261 
L 546.461981 349.213107 
L 548.902278 351.235366 
L 551.231605 353.436582 
L 553.644806 356.03213 
L 555.923214 358.817956 
L 558.065516 361.779951 
L 560.231324 365.16998 
L 562.234485 368.728635 
L 564.073648 372.434743 
L 565.869454 376.565783 
L 567.472211 380.81457 
L 568.880664 385.152643 
L 570.17285 389.866868 
L 571.239555 394.61461 
L 572.079818 399.359785 
L 572.692884 404.066194 
L 573.078199 408.697637 
L 573.235419 413.218018 
L 573.1644 417.59144 
L 572.865208 421.782307 
L 572.380333 425.498015 
L 571.697306 428.995789 
L 570.886105 432.024278 
L 569.905056 434.819023 
L 568.849293 437.172787 
L 567.64998 439.292645 
L 566.425093 441.016629 
L 565.080757 442.518498 
L 563.755525 443.681234 
L 562.332641 444.642216 
L 560.812675 445.393232 
L 559.196234 445.926404 
L 557.483965 446.234238 
L 555.676553 446.309677 
L 553.77472 446.146179 
L 551.779228 445.737814 
L 549.690874 445.079404 
L 547.510494 444.166719 
L 545.006827 442.865549 
L 542.394076 441.251516 
L 539.420879 439.136452 
L 536.057106 436.440247 
L 532.271028 433.102402 
L 526.866714 428.002611 
L 510.236198 412.158245 
L 497.707253 400.596541 
L 484.255471 388.48881 
L 469.541722 375.548259 
L 454.007335 362.180307 
L 437.288219 348.088062 
L 419.889724 333.712719 
L 401.432319 318.754951 
L 382.477348 303.682658 
L 363.140068 288.58838 
L 343.03302 273.180059 
L 322.776109 257.941769 
L 302.498904 242.968086 
L 282.3311 228.350649 
L 262.401695 214.177621 
L 242.838161 200.533172 
L 223.765631 187.497001 
L 205.306096 175.143885 
L 187.577626 163.543269 
L 170.693616 152.7589 
L 155.14791 143.085173 
L 140.60218 134.289993 
L 127.475648 126.605265 
L 115.75968 119.993897 
L 105.43069 114.410668 
L 96.45209 109.803811 
L 88.986884 106.213744 
L 82.888272 103.514452 
L 78.006165 101.583058 
L 74.190797 100.301719 
L 71.399645 99.580593 
L 69.343191 99.263757 
L 67.95686 99.25368 
L 67.024369 99.450422 
L 66.443993 99.784305 
L 66.107839 100.230546 
L 65.970399 100.805786 
L 66.043774 101.564068 
L 66.373532 102.5332 
L 67.054389 103.81897 
L 68.194654 105.486959 
L 70.003003 107.711146 
L 72.567343 110.491949 
L 76.030091 113.90883 
L 80.539902 118.041856 
L 86.249306 122.969796 
L 93.311788 128.767903 
L 101.878236 135.505401 
L 111.801469 143.025653 
L 123.442973 151.562777 
L 136.567671 160.905805 
L 151.184271 171.033454 
L 167.283404 181.912707 
L 184.835554 193.498057 
L 203.338007 205.442808 
L 223.129229 217.951731 
L 243.633489 230.648618 
L 265.194578 243.735366 
L 287.17671 256.816619 
L 309.409773 269.79196 
L 332.228372 282.85038 
L 354.944781 295.593642 
L 377.375133 307.924058 
L 399.337878 319.748711 
L 420.655246 330.980128 
L 441.154696 341.536908 
L 460.670303 351.34428 
L 479.044108 360.334608 
L 496.127393 368.447826 
L 511.45046 375.482664 
L 534.359135 385.910525 
L 537.535659 387.735197 
L 540.586668 389.742063 
L 543.510404 391.944379 
L 546.305184 394.344344 
L 548.969398 396.937617 
L 551.501512 399.715779 
L 553.900066 402.667726 
L 556.346183 406.046713 
L 558.63228 409.596185 
L 560.756813 413.296556 
L 562.862442 417.426681 
L 564.77738 421.68119 
L 566.500126 426.032572 
L 568.131119 430.770325 
L 569.538468 435.551881 
L 570.720906 440.341694 
L 571.677369 445.103952 
L 572.406996 449.802709 
L 572.909131 454.401996 
L 573.183322 458.865932 
L 573.229322 463.158827 
L 573.04709 467.245272 
L 572.671232 470.842121 
L 572.096994 474.20051 
L 571.386532 477.081298 
L 570.505885 479.710835 
L 569.542442 481.896623 
L 568.532814 483.682169 
L 567.402717 485.246348 
L 566.152697 486.577086 
L 564.912759 487.574392 
L 563.574705 488.360508 
L 562.139073 488.927158 
L 560.764047 489.242905 
L 559.310892 489.368854 
L 557.605216 489.27974 
L 555.804348 488.942882 
L 553.909008 488.351923 
L 551.919955 487.501115 
L 549.624709 486.259161 
L 547.218143 484.691432 
L 544.701423 482.794438 
L 541.831712 480.348493 
L 538.57848 477.260366 
L 534.909539 473.444947 
L 530.509969 468.528849 
L 520.759173 457.16584 
L 509.461326 444.19488 
L 497.595343 430.912109 
L 484.521635 416.612735 
L 470.232391 401.322726 
L 455.162671 385.527465 
L 439.390558 369.314335 
L 422.534371 352.308476 
L 405.114824 335.051469 
L 387.227258 317.640267 
L 368.47192 299.699449 
L 349.434469 281.801571 
L 330.224806 264.048769 
L 310.953826 246.541061 
L 291.732776 229.375801 
L 272.672618 212.647151 
L 253.883384 196.445587 
L 235.47354 180.857418 
L 217.549365 165.964351 
L 200.214333 151.843074 
L 183.568515 138.564885 
L 167.708006 126.195347 
L 153.106699 115.081152 
L 139.416653 104.934081 
L 127.042564 96.03079 
L 115.968217 88.324691 
L 106.164824 81.761108 
L 97.592775 76.278951 
L 90.203325 71.812249 
L 84.12822 68.392662 
L 79.222273 65.876012 
L 75.341231 64.124329 
L 72.344582 63.007486 
L 70.18951 62.423098 
L 68.618624 62.209003 
L 67.520187 62.26949 
L 66.792906 62.519383 
L 66.319353 62.917793 
L 66.057403 63.429607 
L 65.966964 64.132465 
L 66.090698 65.058644 
L 66.5067 66.322669 
L 67.317789 68.001659 
L 68.637954 70.179466 
L 70.591589 72.945583 
L 73.312427 76.393792 
L 76.942089 80.620505 
L 81.628203 85.722787 
L 87.522008 91.796016 
L 94.541044 98.705169 
L 103.007719 106.719688 
L 112.768664 115.648539 
L 123.864822 125.496997 
L 136.325468 136.259935 
L 150.16635 147.920752 
L 165.387783 160.450359 
L 181.972734 173.806231 
L 199.437995 187.582592 
L 218.136551 202.042314 
L 237.516943 216.744808 
L 257.448939 231.588648 
L 278.299002 246.835528 
L 299.440318 262.017398 
L 320.72381 277.028848 
L 341.9994 291.767126 
L 363.616714 306.469529 
L 384.908723 320.679074 
L 405.71806 334.298495 
L 425.890923 347.236242 
L 445.278214 359.407069 
L 463.736643 370.732572 
L 480.738369 380.910491 
L 496.603864 390.154983 
L 510.888532 398.229497 
L 524.487463 405.661009 
L 531.703676 409.675578 
L 535.514306 412.048613 
L 538.90126 414.431243 
L 541.896165 416.811095 
L 544.763044 419.372243 
L 547.500245 422.113494 
L 550.106192 425.028397 
L 552.779445 428.370734 
L 555.29509 431.889898 
L 557.651426 435.568323 
L 559.846861 439.386912 
L 562.029532 443.632767 
L 564.022164 447.991341 
L 565.944473 452.755378 
L 567.645104 457.583236 
L 569.122528 462.439974 
L 570.375416 467.290213 
L 571.463073 472.416448 
L 572.292864 477.451233 
L 572.863939 482.351063 
L 573.163831 486.7835 
L 573.23555 491.023641 
L 573.079031 495.036234 
L 572.727146 498.545264 
L 572.176838 501.797743 
L 571.488541 504.564118 
L 570.702065 506.881558 
L 569.770971 508.955133 
L 568.790883 510.627702 
L 567.690201 512.06929 
L 566.585379 513.169268 
L 565.381774 514.059624 
L 564.079867 514.731813 
L 562.824532 515.143406 
L 561.490401 515.365753 
L 560.077905 515.393249 
L 558.417113 515.188754 
L 556.660804 514.730124 
L 554.809682 514.010878 
L 552.864486 513.025099 
L 550.617045 511.626671 
L 548.257805 509.893642 
L 545.557925 507.616624 
L 542.727909 504.934175 
L 539.517097 501.573658 
L 535.893128 497.441607 
L 531.544008 492.122301 
L 524.015947 482.474538 
L 512.355499 467.620639 
L 500.708743 453.158669 
L 487.845669 437.552486 
L 474.158594 421.300805 
L 459.291439 404.002613 
L 443.700496 386.20932 
L 427.466551 368.018478 
L 410.200106 349.011603 
L 392.437809 329.796042 
L 374.276876 310.478883 
L 355.816705 291.166455 
L 337.158331 271.963758 
L 318.403874 252.973905 
L 299.150336 233.798103 
L 280.014868 215.058848 
L 261.107938 196.858149 
L 242.538693 179.293642 
L 224.41433 162.458083 
L 206.839479 146.438879 
L 189.915597 131.317654 
L 174.155658 117.529098 
L 159.191776 104.727129 
L 145.105852 92.969296 
L 132.316677 82.580137 
L 120.812555 73.512801 
L 110.568927 65.711009 
L 101.550105 59.110909 
L 93.710946 53.642789 
L 87.201159 49.361174 
L 81.879501 46.109149 
L 77.453544 43.65711 
L 74.111607 42.042132 
L 71.544748 41.028142 
L 69.627772 40.49237 
L 68.244319 40.323187 
L 67.287968 40.420459 
L 66.663048 40.695691 
L 66.260298 41.1092 
L 66.028788 41.673839 
L 65.971151 42.449738 
L 66.130026 43.472613 
L 66.585809 44.869059 
L 67.44125 46.72441 
L 68.810226 49.131457 
L 70.816968 52.189233 
L 73.594986 56.001518 
L 77.285607 60.675011 
L 82.036074 66.317131 
L 87.997148 73.033444 
L 95.083705 80.67469 
L 103.61968 89.538921 
L 113.449007 99.414906 
L 124.61202 110.308512 
L 137.137341 122.214098 
L 151.040018 135.113333 
L 165.915786 148.61153 
L 182.104748 162.998607 
L 199.129774 177.833157 
L 217.351347 193.412952 
L 236.226942 209.259198 
L 255.635828 225.267675 
L 275.953461 241.736043 
L 296.564412 258.154982 
L 317.330179 274.415576 
L 338.11122 290.411441 
L 359.268984 306.415136 
L 380.147048 321.92608 
L 400.598191 336.842506 
L 420.478205 351.068223 
L 439.646907 364.513216 
L 457.96913 377.094187 
L 475.315678 388.735046 
L 491.191014 399.126397 
L 505.913312 408.500309 
L 519.070717 416.620166 
L 532.619676 424.954065 
L 536.390558 427.598265 
L 539.739986 430.232182 
L 542.699749 432.83764 
L 545.531023 435.61523 
L 548.232176 438.561992 
L 551.009786 441.936358 
L 553.630984 445.48679 
L 556.093998 449.197019 
L 558.397163 453.048872 
L 560.696945 457.332966 
L 562.807734 461.732909 
L 564.857691 466.54529 
L 566.68695 471.426089 
L 568.293864 476.340707 
L 569.676987 481.25401 
L 570.904252 486.453426 
L 571.874223 491.567627 
L 572.585906 496.553173 
L 573.038573 501.366682 
L 573.227293 505.684692 
L 573.187783 509.778221 
L 572.94502 513.365467 
L 572.503663 516.698633 
L 571.916308 519.542 
L 571.158409 522.118989 
L 570.384281 524.03676 
L 569.745026 525.085977 
L 569.223554 525.522596 
L 568.569749 525.726238 
L 567.551132 525.750166 
L 565.216838 525.520724 
L 561.443084 524.939228 
L 558.873324 524.333941 
L 556.785085 523.629995 
L 554.750834 522.712582 
L 552.602783 521.486237 
L 550.341972 519.929806 
L 547.969495 518.034855 
L 545.255334 515.576714 
L 542.411211 512.708955 
L 539.185323 509.143845 
L 535.545369 504.788771 
L 530.898135 498.848694 
L 520.876666 485.518047 
L 509.924925 471.165183 
L 498.093529 456.035811 
L 485.437163 440.211844 
L 471.608557 423.281952 
L 457.035475 405.791408 
L 441.344531 387.312786 
L 425.02279 368.439107 
L 408.154824 349.272299 
L 390.828033 329.914583 
L 372.636256 309.927468 
L 354.15422 289.956295 
L 335.48308 270.109511 
L 316.725027 250.493553 
L 297.982726 231.212303 
L 279.358757 212.366544 
L 260.955052 194.053457 
L 242.872337 176.366134 
L 225.209583 159.393122 
L 208.063459 143.217997 
L 191.52781 127.918968 
L 175.693138 113.568521 
L 160.646109 100.233096 
L 146.840119 88.289537 
L 133.92929 77.413177 
L 122.298877 67.903243 
L 111.92559 59.702556 
L 102.77492 52.745988 
L 94.802809 46.962238 
L 88.16431 42.412457 
L 82.719383 38.934988 
L 78.328007 36.374345 
L 74.720476 34.520533 
L 72.051868 33.382312 
L 70.041535 32.747185 
L 68.573491 32.499703 
L 67.541587 32.536253 
L 66.850341 32.765223 
L 66.385871 33.141522 
L 66.092556 33.674486 
L 65.970593 34.363077 
L 66.042893 35.349497 
L 66.371504 36.626225 
L 67.051075 38.336497 
L 68.189914 40.572353 
L 69.907069 43.432896 
L 72.331395 47.022893 
L 75.600284 51.451047 
L 79.857986 56.827915 
L 85.253452 63.263433 
L 91.714503 70.615379 
L 99.553982 79.18616 
L 108.632744 88.772496 
L 118.996594 99.386969 
L 130.681032 111.031334 
L 143.709469 123.695287 
L 158.091393 137.355286 
L 173.405702 151.59181 
L 189.999764 166.709167 
L 207.381883 182.242147 
L 225.917566 198.501208 
L 245.052479 214.985392 
L 264.664233 231.586973 
L 284.627386 248.198908 
L 305.320673 265.126298 
L 326.109936 281.84191 
L 346.855475 298.237051 
L 367.417883 314.206641 
L 387.658984 329.649867 
L 407.442763 344.470797 
L 426.636275 358.578956 
L 445.110544 371.889854 
L 462.741427 384.325469 
L 479.410446 395.81468 
L 495.00559 406.293647 
L 509.085239 415.48968 
L 521.952925 423.631452 
L 532.153058 430.110172 
L 535.944259 432.80461 
L 539.312869 435.475718 
L 542.290595 438.110282 
L 545.140067 440.913419 
L 547.859644 443.882999 
L 550.657455 447.279601 
L 553.299092 450.850099 
L 555.782769 454.578513 
L 558.278921 458.749692 
L 560.587976 463.058885 
L 562.708122 467.480429 
L 564.768193 472.312123 
L 566.607645 477.20832 
L 568.224823 482.134457 
L 569.618273 487.05544 
L 570.856611 492.258854 
L 571.837703 497.372763 
L 572.560546 502.353767 
L 573.024398 507.158519 
L 573.223618 511.464529 
L 573.19461 515.542419 
L 572.961645 519.111806 
L 572.530072 522.42158 
L 572.002329 524.884312 
L 571.627325 525.711985 
L 571.266578 525.993563 
L 570.729222 526.089629 
L 569.461817 526.006704 
L 563.584507 525.28677 
L 560.4591 524.711981 
L 558.139135 524.077937 
L 556.001693 523.257913 
L 553.922736 522.209017 
L 551.730379 520.839811 
L 549.425684 519.136324 
L 546.784663 516.889627 
L 544.012799 514.23396 
L 540.864148 510.895778 
L 537.306103 506.774358 
L 533.304611 501.787246 
L 527.670795 494.370692 
L 511.820519 473.354282 
L 500.488584 458.761608 
L 487.990042 443.029546 
L 474.311571 426.179649 
L 459.875385 408.754062 
L 444.752188 390.844317 
L 428.558198 372.015531 
L 411.799663 352.874659 
L 394.563418 333.524014 
L 376.938771 314.06577 
L 358.515869 294.061643 
L 339.879992 274.159976 
L 321.133135 254.467774 
L 302.377905 235.089595 
L 283.716952 216.127003 
L 265.252409 197.678059 
L 247.085336 179.836827 
L 229.315165 162.692912 
L 212.039154 146.331028 
L 195.351859 130.830595 
L 179.344611 116.265375 
L 164.506076 103.05595 
L 150.471168 90.852765 
L 137.312606 79.706672 
L 125.424523 69.926243 
L 114.786258 61.456347 
L 105.365746 54.233669 
L 97.121187 48.188489 
L 90.218624 43.39158 
L 84.330577 39.563812 
L 79.559454 36.719797 
L 75.765396 34.707181 
L 72.812915 33.382821 
L 70.572992 32.614013 
L 69.002495 32.288412 
L 67.879051 32.256142 
L 67.059873 32.444545 
L 66.533724 32.778031 
L 66.178629 33.268612 
L 65.994829 33.915277 
L 65.988597 34.784964 
L 66.224907 35.99702 
L 66.760224 37.537097 
L 67.704313 39.562008 
L 69.17082 42.167198 
L 71.283648 45.45443 
L 74.175849 49.530216 
L 77.988147 54.503901 
L 82.867015 60.485375 
L 88.751656 67.342446 
L 95.943718 75.371945 
L 104.319291 84.383617 
L 113.928667 94.3956 
L 124.813146 105.416219 
L 137.003343 117.442774 
L 150.517428 130.460358 
L 165.359317 144.440714 
L 181.091634 158.952916 
L 198.068546 174.305679 
L 215.784455 190.02513 
L 234.131636 206.011563 
L 253.488118 222.580444 
L 273.267485 239.21734 
L 293.343223 255.815639 
L 313.586924 272.270384 
L 334.375531 288.880109 
L 355.06487 305.123824 
L 375.515913 320.898078 
L 395.591232 336.103956 
L 415.155925 350.647683 
L 434.078521 364.441174 
L 452.231863 377.402547 
L 469.493964 389.456587 
L 485.748827 400.535154 
L 500.532088 410.345369 
L 513.832263 418.913834 
L 534.961285 432.426007 
L 538.37164 435.038398 
L 541.388465 437.613992 
L 544.277556 440.357232 
L 547.037249 443.26805 
L 549.879052 446.603755 
L 552.565207 450.117252 
L 555.093898 453.793273 
L 557.463416 457.614354 
L 559.835361 461.869742 
L 562.018987 466.246048 
L 564.012583 470.716895 
L 565.935932 475.581054 
L 567.637612 480.488184 
L 569.116091 485.403382 
L 570.445624 490.615345 
L 571.518332 495.753086 
L 572.333117 500.773237 
L 572.889145 505.63243 
L 573.174906 510.003303 
L 573.232484 514.159335 
L 573.061828 518.065461 
L 572.696762 521.454649 
L 572.180114 524.300245 
L 571.777294 525.518498 
L 571.432811 525.919497 
L 570.985089 526.071669 
L 570.102997 526.062261 
L 566.124201 525.620684 
L 561.954419 525.005742 
L 559.271228 524.399554 
L 557.032289 523.661181 
L 555.01239 522.758492 
L 552.878565 521.54912 
L 550.631846 520.010916 
L 548.273321 518.135002 
L 545.574212 515.698232 
L 542.744958 512.852045 
L 539.534959 509.309733 
L 535.911854 504.976846 
L 531.563703 499.421605 
L 523.73652 488.972656 
L 512.378803 473.928089 
L 501.088567 459.349023 
L 488.630253 443.628143 
L 475.390707 427.276397 
L 461.010299 409.871533 
L 445.937321 391.976828 
L 429.788927 373.157578 
L 413.069612 354.020245 
L 395.866006 334.667197 
L 378.267248 315.200689 
L 360.364526 295.722343 
L 341.745326 275.796249 
L 323.004937 256.07102 
L 304.24593 236.651496 
L 285.570976 217.639569 
L 267.082284 199.133668 
L 248.881048 181.228258 
L 231.066886 164.013382 
L 213.737296 147.574224 
L 196.987127 131.990701 
L 180.908056 117.337099 
L 165.991422 104.03712 
L 151.870718 91.739407 
L 138.974854 80.793038 
L 126.963652 70.884376 
L 116.198561 62.286862 
L 106.648707 54.938039 
L 98.273383 48.768935 
L 91.243934 43.854884 
L 85.229718 39.913406 
L 80.3384 36.963446 
L 76.43102 34.852943 
L 73.372804 33.438917 
L 71.035302 32.588731 
L 69.298066 32.180931 
L 68.049951 32.105776 
L 67.190086 32.265495 
L 66.628579 32.574365 
L 66.238063 33.040574 
L 66.018801 33.663127 
L 65.974362 34.507155 
L 66.147375 35.609565 
L 66.619161 37.104198 
L 67.492442 39.079215 
L 68.881047 41.630436 
L 70.909145 44.860078 
L 73.710153 48.875188 
L 77.425277 53.785744 
L 82.023517 59.487544 
L 87.776283 66.25862 
L 94.596992 73.942522 
L 102.807129 82.848924 
L 112.252951 92.760607 
L 122.977162 103.687009 
L 135.0119 115.626584 
L 148.376968 128.565602 
L 162.679184 142.103556 
L 178.261181 156.545763 
L 194.659126 171.444558 
L 212.237709 187.114504 
L 230.469131 203.069656 
L 249.730025 219.625335 
L 269.43784 236.267983 
L 289.466523 252.890697 
L 309.687964 269.388119 
L 330.479637 286.060004 
L 351.198221 302.383857 
L 371.704492 318.255449 
L 391.860652 333.574984 
L 411.531254 348.247703 
L 430.584116 362.184454 
L 448.891207 375.302206 
L 466.329505 387.52452 
L 482.393164 398.519382 
L 497.415587 408.538149 
L 510.968149 417.318226 
L 523.65879 425.27891 
L 532.047691 430.597183 
L 535.84346 433.273462 
L 539.216382 435.926115 
L 542.198146 438.542968 
L 545.05171 441.328105 
L 547.77543 444.279598 
L 550.577784 447.656662 
L 553.224017 451.207791 
L 555.712341 454.917085 
L 558.041074 458.766637 
L 560.36866 463.046949 
L 562.50751 467.441942 
L 564.587794 472.247893 
L 566.447622 477.121237 
L 568.08532 482.027492 
L 569.499415 486.931622 
L 570.759892 492.120448 
L 571.763223 497.223305 
L 572.50838 502.196816 
L 572.9946 506.997648 
L 573.214818 511.303226 
L 573.206816 515.383814 
L 572.970603 519.204452 
L 572.544423 522.50264 
L 572.021295 524.940418 
L 571.648977 525.735422 
L 571.290529 526.000616 
L 570.756235 526.088194 
L 569.407587 525.992543 
L 563.498436 525.259493 
L 560.360415 524.66744 
L 558.032136 524.010714 
L 555.887634 523.162498 
L 553.802262 522.083088 
L 551.603549 520.681659 
L 549.29256 518.945454 
L 546.644745 516.662885 
L 543.866169 513.97136 
L 540.710342 510.594651 
L 537.144685 506.432726 
L 533.135178 501.404722 
L 527.199892 493.551356 
L 512.606153 474.136772 
L 501.332982 459.559534 
L 488.891137 443.839553 
L 475.666855 427.487724 
L 461.300824 410.081761 
L 446.240801 392.184946 
L 430.104181 373.362495 
L 413.395007 354.220943 
L 396.199855 334.862692 
L 378.607822 315.390037 
L 360.71006 295.904641 
L 342.094091 275.970412 
L 323.355026 256.2362 
L 304.595426 236.806904 
L 285.917966 217.78448 
L 267.424869 199.267422 
L 249.217353 181.350264 
L 231.39507 164.123121 
L 214.055563 147.671249 
L 197.293736 132.07464 
L 181.201327 117.407656 
L 166.270176 104.094445 
L 152.13351 91.783362 
L 139.220821 80.82393 
L 127.191589 70.902206 
L 116.407914 62.292065 
L 106.839096 54.931098 
L 98.44459 48.750374 
L 91.39652 43.825609 
L 85.363781 39.873974 
L 80.454811 36.914765 
L 76.530782 34.795896 
L 73.457029 33.37436 
L 71.105184 32.517485 
L 69.354864 32.103782 
L 68.094972 32.02347 
L 67.224673 32.178741 
L 66.617284 32.51384 
L 66.230846 32.988422 
L 66.015667 33.619346 
L 65.975627 34.472383 
L 66.153353 35.584428 
L 66.630473 37.089949 
L 67.509699 39.077083 
L 68.904847 41.641609 
L 70.940061 44.885693 
L 73.74873 48.916314 
L 77.472019 53.843361 
L 82.078582 59.561929 
L 87.840074 66.35054 
L 94.669558 74.052032 
L 102.888729 82.976497 
L 112.343486 92.906006 
L 123.076458 103.849851 
L 135.1197 115.806326 
L 148.492924 128.76154 
L 162.802663 142.314425 
L 178.391682 156.770581 
L 194.795896 171.68186 
L 212.38009 187.363039 
L 230.616259 203.327777 
L 249.881092 219.89154 
L 269.591879 236.540473 
L 289.622549 253.167657 
L 309.844979 269.66773 
L 330.129825 285.937532 
L 350.850794 302.270131 
L 371.361786 318.151108 
L 391.524968 333.480597 
L 411.204849 348.163765 
L 430.269183 362.111384 
L 448.589862 375.240344 
L 466.043773 387.474127 
L 482.124516 398.480353 
L 497.165741 408.51058 
L 510.738175 417.30185 
L 523.450648 425.272997 
L 532.133491 430.7718 
L 535.92554 433.448697 
L 539.294952 436.102892 
L 542.273428 438.721446 
L 545.123661 441.508265 
L 547.844008 444.461265 
L 550.642663 447.839649 
L 553.285153 451.391694 
L 555.769694 455.101444 
L 558.266786 459.252314 
L 560.57679 463.541006 
L 562.697895 467.94188 
L 564.759 472.751264 
L 566.599496 477.625006 
L 568.217726 482.528569 
L 569.612233 487.426883 
L 570.851705 492.606035 
L 571.833936 497.695628 
L 572.557921 502.652286 
L 573.022919 507.43269 
L 573.223214 511.715893 
L 573.195282 515.771018 
L 572.963321 519.319208 
L 572.53275 522.606976 
L 572.055328 524.85258 
L 571.687886 525.696183 
L 571.33361 525.986243 
L 570.804869 526.086721 
L 569.554631 526.006132 
L 563.732371 525.292014 
L 560.470337 524.688353 
L 558.15132 524.043805 
L 556.014684 523.210837 
L 553.936459 522.148104 
L 551.744827 520.764512 
L 549.440851 519.046649 
L 546.800605 516.784411 
L 544.029507 514.113355 
L 540.881675 510.758651 
L 537.324499 506.61956 
L 533.323922 501.613517 
L 527.691298 494.171278 
L 512.174423 473.520617 
L 500.868888 458.907919 
L 488.395812 443.154781 
L 475.142588 426.773317 
L 460.749297 409.340626 
L 445.664716 391.421003 
L 429.962723 373.107355 
L 413.248994 353.958128 
L 396.050044 334.593647 
L 378.454989 315.116222 
L 360.554996 295.627524 
L 341.937573 275.691429 
L 323.197909 255.956891 
L 304.438571 236.528793 
L 285.762231 217.509065 
L 267.271107 198.996168 
L 249.066405 181.084596 
L 231.247762 163.864416 
L 213.912702 147.420828 
L 197.156103 131.833765 
L 181.069676 117.177519 
L 166.145037 103.875832 
L 152.015531 91.577263 
L 139.11039 80.630871 
L 127.089247 70.722977 
L 116.31391 62.126953 
L 106.7536 54.780262 
L 98.367702 48.613857 
L 91.327987 43.702885 
L 85.30356 39.76487 
L 80.40251 36.818553 
L 76.485952 34.711769 
L 73.419171 33.301448 
L 71.073763 32.454872 
L 69.329314 32.050521 
L 68.074707 31.978592 
L 67.209091 32.141264 
L 66.642585 32.452773 
L 66.24706 32.92169 
L 66.022784 33.54702 
L 65.972941 34.394113 
L 66.140166 35.499889 
L 66.605402 36.998435 
L 67.471379 38.977944 
L 68.851948 41.534266 
L 70.871304 44.769646 
L 73.662901 48.791161 
L 77.218104 53.516252 
L 81.779231 59.203796 
L 87.493087 65.960727 
L 94.27466 73.631283 
L 102.444501 82.524936 
L 111.850459 92.425098 
L 122.535578 103.341387 
L 134.532367 115.272437 
L 147.861021 128.204702 
L 162.129648 141.737948 
L 177.68028 156.17745 
L 194.050213 171.075687 
L 211.603704 186.747268 
L 229.813889 202.706253 
L 248.570041 218.852511 
L 268.254763 235.502586 
L 288.267918 252.137493 
L 308.4815 268.651733 
L 328.766217 284.941969 
L 349.496107 301.301795 
L 370.025121 317.216093 
L 390.215309 332.584691 
L 409.930996 347.312418 
L 429.039696 361.309673 
L 447.413003 374.492945 
L 464.927451 386.785292 
L 481.074486 397.852323 
L 496.18872 407.94654 
L 509.838358 416.802821 
L 522.635695 424.839805 
L 532.219209 430.896654 
L 536.007538 433.575438 
L 539.373437 436.232362 
L 542.348624 438.853725 
L 545.195524 441.643355 
L 547.912497 444.599007 
L 550.707453 447.979972 
L 553.3462 451.534216 
L 555.826956 455.245728 
L 558.319929 459.397962 
L 560.625773 463.687433 
L 562.742678 468.088475 
L 564.799246 472.897342 
L 566.635168 477.769831 
L 568.248791 482.671393 
L 569.638664 487.56695 
L 570.873167 492.742327 
L 571.850407 497.82728 
L 572.569385 502.778437 
L 573.029363 507.552484 
L 573.224946 511.828957 
L 573.1923 515.876614 
L 572.955941 519.417176 
L 572.520979 522.696166 
L 572.040114 524.917765 
L 571.670483 525.725099 
L 571.314335 525.996495 
L 570.783101 526.087281 
L 569.527896 526.002343 
L 563.689706 525.283903 
L 560.579799 524.710798 
L 558.270051 524.079044 
L 556.141284 523.262202 
L 554.070209 522.217209 
L 551.885663 520.852627 
L 549.588704 519.154303 
L 546.956031 516.913702 
L 544.192417 514.264425 
L 541.052587 510.933156 
L 537.503899 506.818467 
L 533.512259 501.836145 
L 527.891288 494.416981 
L 511.741372 472.924594 
L 500.403549 458.279734 
L 487.899329 442.49669 
L 474.617254 426.088682 
L 460.196802 408.632266 
L 445.087766 390.692642 
L 429.364143 372.362772 
L 412.631225 353.200839 
L 395.416288 333.827704 
L 377.80853 314.345674 
L 359.899183 294.856394 
L 341.781046 275.460338 
L 323.040791 255.726531 
L 304.281722 236.300408 
L 285.606509 217.283874 
L 267.117365 198.775355 
L 248.915484 180.86931 
L 231.100488 163.655759 
L 213.769881 147.219855 
L 197.018517 131.641475 
L 181.363093 117.377851 
L 166.423952 104.059273 
L 152.278499 91.743067 
L 139.356546 80.778911 
L 127.317387 70.852738 
L 116.523476 62.238554 
L 106.944213 54.873943 
L 98.539141 48.689959 
L 91.480813 43.762392 
L 85.437869 39.808291 
L 80.519173 36.847004 
L 76.58597 34.726403 
L 73.503655 33.303439 
L 71.143906 32.4454 
L 69.386375 32.03076 
L 68.119993 31.949704 
L 67.243943 32.104393 
L 66.631171 32.439011 
L 66.239724 32.913201 
L 66.01953 33.543786 
L 65.974087 34.396515 
L 66.146025 35.508299 
L 66.616594 37.013608 
L 67.488517 39.00061 
L 68.87563 41.565119 
L 70.902103 44.809339 
L 73.701363 48.84029 
L 77.264432 53.574981 
L 81.83389 59.272593 
L 87.556481 66.03997 
L 94.346841 73.720912 
L 102.52573 82.625125 
L 111.940639 92.535593 
L 122.634538 103.461839 
L 134.63985 115.402398 
L 147.976684 128.34362 
L 162.252858 141.884957 
L 177.810538 156.331833 
L 194.186768 171.236465 
L 211.745901 186.913567 
L 229.960864 202.876996 
L 248.7209 219.026611 
L 268.408652 235.67899 
L 288.423854 252.31505 
L 308.638484 268.829298 
L 328.923246 285.118416 
L 349.652139 301.475946 
L 370.179109 317.386818 
L 390.366217 332.750897 
L 410.07781 347.473057 
L 429.18143 361.463748 
L 447.548703 374.639517 
L 465.056206 386.923485 
L 481.195632 397.98156 
L 496.301481 408.066119 
L 509.94225 416.912377 
L 522.729834 424.938835 
L 532.0281 430.80712 
L 535.824717 433.477062 
L 539.198441 436.123464 
L 542.180955 438.734363 
L 545.03528 441.513436 
L 547.759769 444.458798 
L 550.562966 447.829175 
L 553.210053 451.373592 
L 555.699241 455.076166 
L 558.028846 458.919004 
L 560.357381 463.192105 
L 562.497188 467.57992 
L 564.578506 472.378225 
L 566.439377 477.243984 
L 568.078126 482.142724 
L 569.493277 487.039417 
L 570.754888 492.220407 
L 571.759357 497.315537 
L 572.505657 502.281441 
L 572.993022 507.074791 
L 573.214315 511.373477 
L 573.207389 515.447297 
L 572.972251 519.261296 
L 572.547074 522.553164 
L 572.024802 524.975186 
L 571.652984 525.749883 
L 571.294963 526.00518 
L 570.761237 526.087653 
L 569.413794 525.989756 
L 563.368628 525.233593 
L 560.371693 524.661212 
L 558.044363 524.001891 
L 555.900666 523.150547 
L 553.816026 522.067868 
L 551.618038 520.663096 
L 549.307767 518.923593 
L 546.660727 516.637494 
L 543.882917 513.942497 
L 540.727908 510.562061 
L 537.163119 506.396098 
L 533.154526 501.363589 
L 527.220491 493.503085 
L 512.629416 474.070077 
L 501.357994 459.480147 
L 488.917837 443.747594 
L 475.695119 427.383757 
L 461.330562 409.966074 
L 446.271868 392.058239 
L 430.592789 373.753139 
L 413.899407 354.60932 
L 396.717435 335.246829 
L 379.1359 315.768005 
L 361.245899 296.274568 
L 343.140129 276.867099 
L 324.405247 257.114155 
L 305.644082 237.661582 
L 286.959318 218.611516 
L 268.453218 200.062656 
L 250.22707 182.10976 
L 232.380629 164.843185 
L 215.01157 148.348448 
L 198.214958 132.705815 
L 182.082722 117.989938 
L 167.108189 104.626687 
L 152.923798 92.263421 
L 139.960782 81.251477 
L 127.877599 71.27577 
L 117.038294 62.612042 
L 107.412694 55.198234 
L 98.960739 48.965714 
L 91.856887 43.99209 
L 85.768648 39.993117 
L 80.806778 36.989883 
L 76.832849 34.830404 
L 73.712518 33.371727 
L 71.317671 32.481191 
L 69.528119 32.037289 
L 68.232912 31.930197 
L 67.331318 32.062054 
L 66.694633 32.375499 
L 66.280938 32.83016 
L 66.038467 33.441357 
L 65.96902 34.273378 
L 66.115243 35.363189 
L 66.556705 36.843886 
L 67.39618 38.803778 
L 68.747585 41.338854 
L 70.735211 44.55153 
L 73.370491 48.379243 
L 76.865197 53.059257 
L 81.362245 58.700071 
L 87.008901 65.409163 
L 93.722867 73.032862 
L 101.823076 81.879682 
L 111.160124 91.735051 
L 121.777643 102.609072 
L 133.708776 114.50088 
L 146.974401 127.397442 
L 161.18485 140.899815 
L 176.681119 155.312751 
L 193.002456 170.189715 
L 210.512363 185.845028 
L 228.685601 201.793405 
L 247.411667 217.934709 
L 267.072849 234.585528 
L 287.070024 251.226996 
L 307.275287 267.753495 
L 327.559402 284.061536 
L 348.296684 300.44517 
L 368.841151 316.388672 
L 389.054747 331.7916 
L 408.801641 346.558484 
L 427.949138 360.599397 
L 446.368569 373.830476 
L 463.93616 386.174402 
L 480.141465 397.295011 
L 495.319936 407.445638 
L 509.03756 416.359257 
L 521.60332 424.265395 
L 532.390401 431.072836 
L 536.171285 433.757328 
L 539.530155 436.42149 
L 542.49876 439.050124 
L 545.338992 441.847042 
L 548.049214 444.809689 
L 550.836767 448.197676 
L 553.468025 451.758206 
L 555.941208 455.475159 
L 558.425941 459.63222 
L 560.72346 463.92538 
L 562.831965 468.328922 
L 564.879455 473.139107 
L 566.706227 478.011471 
L 568.310636 482.911444 
L 569.691239 487.803931 
L 570.915802 492.97439 
L 571.883059 498.052724 
L 572.59202 502.995564 
L 573.041958 507.759602 
L 573.228116 512.025166 
L 573.186044 516.060456 
L 572.940891 519.588167 
L 572.497147 522.85194 
L 572.009394 525.02771 
L 571.691844 525.703085 
L 571.337995 525.988436 
L 570.809823 526.086463 
L 569.560719 526.004834 
L 563.742094 525.290255 
L 560.481568 524.685923 
L 558.163501 524.040529 
L 556.02767 523.206554 
L 553.950177 522.142791 
L 551.759271 520.758175 
L 549.456013 519.039336 
L 546.816542 516.776085 
L 544.046211 514.104056 
L 540.899198 510.74831 
L 537.342891 506.608048 
L 533.343229 501.600544 
L 527.711798 494.155552 
L 512.197758 473.494928 
L 500.893967 458.875583 
L 488.422574 443.115817 
L 475.17091 426.72798 
L 460.779088 409.28902 
L 445.695829 391.363452 
L 429.995007 373.044209 
L 413.282316 353.889616 
L 396.084232 334.520186 
L 378.489866 315.038249 
L 360.590382 295.545494 
L 342.478525 276.142455 
L 323.74096 256.397897 
L 304.980748 236.957504 
L 286.300566 217.923299 
L 267.802654 199.393849 
L 249.588255 181.463763 
L 231.757059 164.223234 
L 214.406658 147.757594 
L 197.632015 132.146917 
L 181.950717 117.849609 
L 166.982657 104.495318 
L 152.80539 92.14158 
L 139.849889 81.139393 
L 127.774764 71.173876 
L 116.94377 62.520409 
L 107.326653 55.116852 
L 98.883284 48.894504 
L 91.787768 43.930581 
L 85.707826 39.941105 
L 80.753864 36.946787 
L 76.787395 34.795605 
L 73.674029 33.344577 
L 71.285612 32.461025 
L 69.501928 32.023429 
L 68.212002 31.921965 
L 67.315089 32.058768 
L 66.682786 32.376809 
L 66.273168 32.83572 
L 66.03478 33.451143 
L 65.969731 34.287688 
L 66.120668 35.38231 
L 66.567464 36.86841 
L 67.412887 38.83427 
L 68.770837 41.375848 
L 70.765585 44.595518 
L 73.53069 48.60051 
L 77.058692 53.309066 
L 81.59101 58.979588 
L 87.274657 65.719235 
L 94.025841 73.373019 
L 102.164385 82.250094 
L 111.539375 92.13461 
L 122.194119 103.036373 
L 134.16141 114.954209 
L 147.461752 127.874764 
L 161.704252 141.398238 
L 177.230475 155.829754 
L 193.578597 170.722099 
L 211.112534 186.389819 
L 229.306152 202.347153 
L 248.048824 218.493951 
L 267.723013 235.146823 
L 287.729037 251.78675 
L 307.938934 268.308171 
L 328.223437 284.607677 
L 348.95671 300.979081 
L 369.492732 316.906954 
L 389.693505 332.291005 
L 409.423284 347.035937 
L 428.549488 361.052008 
L 446.943592 374.255561 
L 464.481992 386.569498 
L 480.655281 397.658698 
L 495.79845 407.776022 
L 509.478706 416.655576 
L 522.004415 424.527215 
L 532.199656 430.957195 
L 535.988834 433.63333 
L 539.355535 436.287521 
L 542.331472 438.906253 
L 545.179133 441.693212 
L 547.896876 444.646192 
L 550.692676 448.024288 
L 553.332277 451.575708 
L 555.813897 455.284456 
L 558.30781 459.433792 
L 560.614603 463.720458 
L 562.732467 468.118794 
L 564.790071 472.924879 
L 566.627036 477.794714 
L 568.241711 482.693755 
L 569.632641 487.58693 
L 570.868278 492.759922 
L 571.846657 497.842654 
L 572.566777 502.791758 
L 573.027901 507.563921 
L 573.224559 511.838785 
L 573.192989 515.884984 
L 572.957634 519.424323 
L 572.523674 522.702183 
L 572.043594 524.921839 
L 571.674463 525.726715 
L 571.318742 525.996892 
L 570.788077 526.087048 
L 569.534005 526.001863 
L 563.69945 525.283513 
L 560.590984 524.710498 
L 558.282185 524.078869 
L 556.154224 523.262214 
L 554.083881 522.217467 
L 551.900061 520.853193 
L 549.603821 519.155227 
L 546.971924 516.915061 
L 544.209077 514.266249 
L 541.070067 510.935484 
L 537.522248 506.821276 
L 533.531524 501.839251 
L 527.911746 494.419665 
L 511.764778 472.922668 
L 500.428695 458.274628 
L 487.926153 442.488365 
L 474.645634 426.077213 
L 460.226645 408.617652 
L 445.118925 390.674992 
L 429.396468 372.342207 
L 412.664582 353.177415 
L 395.450505 333.801576 
L 377.843429 314.317008 
L 359.934585 294.82537 
L 341.816765 275.427142 
L 323.076645 255.691308 
L 304.317513 236.263375 
L 285.642043 217.245255 
L 267.152446 198.735379 
L 248.949921 180.828211 
L 231.134092 163.613776 
L 213.802469 147.177225 
L 197.049909 131.598439 
L 181.393158 117.334649 
L 166.452533 104.016129 
L 152.305448 91.700203 
L 139.381775 80.736529 
L 127.340772 70.811037 
L 116.54496 62.197702 
L 106.963757 54.834086 
L 98.556722 48.651221 
L 91.496489 43.724836 
L 85.451649 39.771993 
L 80.531146 36.811977 
L 76.596239 34.692633 
L 73.512334 33.270891 
L 71.151116 32.41402 
L 69.392246 32.000477 
L 68.124658 31.920433 
L 67.247539 32.076038 
L 66.633767 32.41153 
L 66.241389 32.886548 
L 66.020264 33.517975 
L 65.973817 34.371626 
L 66.144679 35.484414 
L 66.614031 36.990882 
L 67.484598 38.979202 
L 68.870217 41.545194 
L 70.895067 44.791066 
L 73.692578 48.823842 
L 77.253852 53.560459 
L 81.821409 59.260169 
L 87.542007 66.029816 
L 94.330362 73.713117 
L 102.507187 82.619848 
L 111.920053 92.532905 
L 122.611949 103.461798 
L 134.615316 115.405049 
L 147.950285 128.348988 
L 162.224736 141.892981 
L 177.780809 156.342505 
L 194.155603 171.249691 
L 211.713449 186.929301 
L 229.927322 202.895111 
L 248.686472 219.046965 
L 268.373534 235.701485 
L 288.388269 252.339514 
L 308.602661 268.855549 
L 328.887413 285.146263 
L 349.616535 301.505225 
L 370.143971 317.417313 
L 390.331783 332.782388 
L 410.044311 347.50532 
L 429.149091 361.496558 
L 447.517742 374.672647 
L 465.02683 386.95671 
L 481.167993 398.014662 
L 496.275756 408.098891 
L 509.918549 416.944628 
L 522.404122 424.782216 
L 532.008506 430.836437 
L 535.805971 433.504529 
L 539.180495 436.148948 
L 542.16376 438.757919 
L 545.018844 441.535036 
L 547.744103 444.478451 
L 550.548144 447.846758 
L 553.196085 451.389165 
L 555.686136 455.089802 
L 558.016613 458.930786 
L 560.346096 463.201993 
L 562.48686 467.588026 
L 564.569213 472.384554 
L 566.431127 477.248677 
L 568.070926 482.145927 
L 569.487135 487.04128 
L 570.749879 492.221009 
L 571.755487 497.315053 
L 572.502929 502.280049 
L 572.991439 507.07267 
L 573.213807 511.370835 
L 573.207957 515.444292 
L 572.973894 519.258085 
L 572.549719 522.549918 
L 572.028305 524.972737 
L 571.656986 525.748737 
L 571.299393 526.004674 
L 570.766235 526.087476 
L 569.419996 525.989757 
L 563.378531 525.23403 
L 560.382967 524.662168 
L 558.056585 524.003554 
L 555.913693 523.153106 
L 553.829785 522.071421 
L 551.632523 520.667732 
L 549.322969 518.929361 
L 546.676704 516.644535 
L 543.89966 513.950831 
L 540.74547 510.571785 
L 537.181549 506.407238 
L 533.17387 501.375998 
L 527.531989 493.907238 
L 512.323281 473.650471 
L 501.028884 459.037963 
L 488.566556 443.284424 
L 475.323291 426.901966 
L 460.939379 409.467647 
L 445.863245 391.545796 
L 430.168727 373.229339 
L 413.461633 354.076636 
L 396.268218 334.708111 
L 378.677566 315.2261 
L 360.780824 295.732306 
L 342.670723 276.327276 
L 323.933923 256.579706 
L 305.173421 237.135347 
L 286.491895 218.096259 
L 267.991592 199.561044 
L 249.773767 181.624356 
L 231.93813 164.37643 
L 214.582297 147.902652 
L 197.801261 132.283147 
L 182.112853 117.976642 
L 167.136842 104.612608 
L 152.950827 92.24864 
L 139.986097 81.236096 
L 127.901076 71.259869 
L 117.059875 62.595717 
L 107.432339 55.181573 
L 98.978426 48.9488 
L 91.872672 43.975004 
L 85.78254 39.975925 
L 80.818865 36.972643 
L 76.843234 34.813166 
L 73.721314 33.354529 
L 71.325 32.464061 
L 69.534109 32.020245 
L 68.237697 31.913251 
L 67.335035 32.04521 
L 66.697351 32.358763 
L 66.282724 32.813536 
L 66.039322 33.424856 
L 65.968871 34.257021 
L 66.114019 35.347 
L 66.554263 36.827904 
L 67.392381 38.788047 
L 68.742292 41.323425 
L 70.728293 44.536462 
L 73.361893 48.36458 
L 76.854801 53.045069 
L 81.349945 58.686432 
L 86.994603 65.396154 
L 93.70656 73.020546 
L 101.804698 81.868147 
L 111.139696 91.724366 
L 121.755205 102.599301 
L 133.684383 114.492089 
L 146.948132 127.389693 
L 161.156849 140.893136 
L 176.651498 155.307196 
L 192.971386 170.185302 
L 210.479994 185.841798 
L 228.652128 201.791363 
L 247.377294 217.933851 
L 267.03777 234.585874 
L 287.034464 251.228528 
L 307.239473 267.756188 
L 327.523562 284.065357 
L 347.756991 300.055298 
L 368.308257 316.011818 
L 388.532232 331.430102 
L 408.293017 346.214547 
L 427.457822 360.275078 
L 445.897863 373.527673 
L 463.489227 385.894844 
L 479.720621 397.039627 
L 494.927873 407.215731 
L 508.675974 416.155269 
L 521.27441 424.087577 
L 532.370885 431.084015 
L 536.152618 433.767069 
L 539.512291 436.42966 
L 542.481648 439.056762 
L 545.32264 441.852135 
L 548.033633 444.813257 
L 550.82203 448.199641 
L 553.454143 451.758637 
L 555.928191 455.474139 
L 558.413864 459.629741 
L 560.712333 463.921557 
L 562.821797 468.323877 
L 564.870323 473.132893 
L 566.698138 478.004239 
L 568.303599 482.903348 
L 569.68526 487.795128 
L 570.910957 492.965008 
L 571.879353 498.042946 
L 572.589457 502.985573 
L 573.04054 507.749582 
L 573.227774 512.015287 
L 573.186777 516.050877 
L 572.942628 519.579014 
L 572.499886 522.84342 
L 572.012918 525.021735 
L 571.639412 525.769447 
L 571.279946 526.011895 
L 570.672817 526.087771 
L 569.124259 525.957822 
L 563.05241 525.181959 
L 560.012106 524.572422 
L 557.829349 523.925178 
L 555.856569 523.126489 
L 553.769454 522.035943 
L 551.569015 520.622846 
L 549.256315 518.874846 
L 546.606655 516.579385 
L 543.826255 513.874998 
L 540.668478 510.484474 
L 537.100753 506.307984 
L 533.089068 501.265117 
L 527.150805 493.393503 
L 512.879582 474.377735 
L 501.627 459.801151 
L 489.205029 444.080727 
L 475.999169 427.727352 
L 461.650497 410.318665 
L 446.606121 392.418004 
L 430.939723 374.118244 
L 414.257612 354.977999 
L 397.085054 335.617139 
L 379.511028 316.13802 
L 361.626593 296.642385 
L 343.524417 277.23085 
L 324.791153 257.471825 
L 306.029494 238.0113 
L 287.342126 218.951478 
L 268.831328 200.391132 
L 250.598412 182.425103 
L 232.743169 165.143842 
L 215.363326 148.632962 
L 198.554004 132.972837 
L 182.834119 118.623684 
L 167.822894 105.214179 
L 153.59811 92.802183 
L 140.592471 81.740758 
L 128.463571 71.713761 
L 117.577105 62.998733 
L 107.903346 55.533984 
L 99.402651 49.25121 
L 92.251457 44.229895 
L 86.116103 40.184462 
L 81.109313 37.137794 
L 77.093003 34.938061 
L 73.933104 33.442405 
L 71.50172 32.518221 
L 69.67883 32.044019 
L 68.353608 31.909971 
L 67.425413 32.018187 
L 66.763824 32.309708 
L 66.326954 32.744149 
L 66.061278 33.335272 
L 65.966823 34.145851 
L 66.086256 35.212911 
L 66.497387 36.668125 
L 67.251549 38.490307 
L 68.472959 40.849482 
L 70.280414 43.844213 
L 72.802418 47.578565 
L 76.175895 52.160357 
L 80.544481 57.699053 
L 85.858966 64.072263 
L 92.408692 71.570552 
L 100.085084 80.016401 
L 109.225268 89.729033 
L 119.649484 100.467434 
L 131.392673 112.232274 
L 144.111063 124.658187 
L 158.129611 138.042516 
L 173.446206 152.351906 
L 189.606544 167.143615 
L 206.971609 182.730716 
L 225.021534 198.630578 
L 243.646565 214.743102 
L 263.227909 231.384817 
L 283.169839 248.03764 
L 303.344804 264.595609 
L 323.623759 280.954769 
L 343.876999 297.013805 
L 364.474323 313.060246 
L 384.77012 328.586931 
L 404.628008 343.497283 
L 423.914544 357.700148 
L 442.500127 371.110331 
L 460.259864 383.649086 
L 476.676447 394.97348 
L 492.08836 405.339944 
L 506.053503 414.474128 
L 518.884927 422.605944 
L 533.006378 431.51827 
L 536.760306 434.229327 
L 540.093732 436.924656 
L 543.038512 439.58398 
L 545.854607 442.411576 
L 548.540395 445.40382 
L 551.30116 448.821877 
L 553.905315 452.409858 
L 556.351101 456.15126 
L 558.806019 460.330983 
L 561.073425 464.64276 
L 563.151543 469.060693 
L 565.166198 473.881452 
L 566.959877 478.759259 
L 568.530965 483.659454 
L 569.959858 488.871388 
L 571.132424 494.025715 
L 572.047463 499.07913 
L 572.704036 503.988266 
L 573.101472 508.709845 
L 573.238354 512.927708 
L 573.146995 516.907725 
L 572.855873 520.377039 
L 572.366226 523.564727 
L 571.895139 525.340716 
L 571.564037 525.845435 
L 571.196656 526.037424 
L 570.577677 526.085874 
L 568.722784 525.91346 
L 562.865172 525.151145 
L 559.961979 524.55981 
L 557.775366 523.906068 
L 555.799354 523.099779 
L 553.709034 522.000392 
L 551.505418 520.577922 
L 549.189573 518.820333 
L 546.536518 516.514282 
L 543.752764 513.799259 
L 540.591401 510.397315 
L 537.019873 506.20895 
L 532.729602 500.798486 
L 526.47512 492.483833 
L 513.106121 474.673864 
L 501.870652 460.11196 
L 489.465201 444.405071 
L 476.274659 428.063589 
L 461.940426 410.665389 
L 446.909069 392.773406 
L 431.254205 374.480492 
L 414.582351 355.345365 
L 397.418367 335.987671 
L 379.851188 316.509771 
L 361.971838 297.013426 
L 343.872957 277.599277 
L 325.141198 257.835623 
L 306.379129 238.368545 
L 287.689437 219.300308 
L 269.174413 200.729751 
L 250.935394 182.751796 
L 233.072205 165.456977 
L 215.682613 148.931001 
L 198.861795 133.254346 
L 183.129108 118.887832 
L 168.103553 105.459812 
L 153.862983 93.028258 
L 140.840681 81.946924 
L 128.693902 71.899244 
L 117.788987 63.163489 
L 108.096385 55.678121 
L 99.576613 49.37497 
L 92.406887 44.33429 
L 86.253086 40.269963 
L 81.228706 37.20561 
L 77.195796 34.989465 
L 74.020399 33.478718 
L 71.574702 32.540788 
L 69.73875 32.054197 
L 68.401767 31.909116 
L 67.463149 32.007651 
L 66.791801 32.290188 
L 66.345848 32.716337 
L 66.071077 33.299222 
L 65.96682 34.100999 
L 66.075751 35.15871 
L 66.443402 36.511278 
L 67.166802 38.306525 
L 68.354163 40.63624 
L 70.124385 43.599185 
L 72.606119 47.299669 
L 75.936483 51.845799 
L 80.259366 57.347382 
L 85.527461 63.683675 
L 92.028833 71.144336 
L 99.656845 79.553459 
L 108.46605 88.934548 
L 118.812816 99.617459 
L 130.142993 110.995536 
L 142.764367 123.35708 
L 156.69048 136.683038 
L 171.920345 150.940924 
L 188.002762 165.689871 
L 190.491711 167.94688 
L 190.491711 167.94688 
" clip-path="url(#p6bd50718f0)" style="fill: none; stroke: #1f77b4; stroke-width: 1.5; stroke-linecap: square"/>
   </g>
   <g id="patch_3">
    <path d="M 40.603125 550.8 
L 40.603125 7.2 
" style="fill: none; stroke: #000000; stroke-width: 0.8; stroke-linejoin: miter; stroke-linecap: square"/>
   </g>
   <g id="patch_4">
    <path d="M 598.603125 550.8 
L 598.603125 7.2 
" style="fill: none; stroke: #000000; stroke-width: 0.8; stroke-linejoin: miter; stroke-linecap: square"/>
   </g>
   <g id="patch_5">
    <path d="M 40.603125 550.8 
L 598.603125 550.8 
" style="fill: none; stroke: #000000; stroke-width: 0.8; stroke-linejoin: miter; stroke-linecap: square"/>
   </g>
   <g id="patch_6">
    <path d="M 40.603125 7.2 
L 598.603125 7.2 
" style="fill: none; stroke: #000000; stroke-width: 0.8; stroke-linejoin: miter; stroke-linecap: square"/>
   </g>
  </g>
 </g>
 <defs>
  <clipPath id="p6bd50718f0">
   <rect x="40.603125" y="7.2" width="558" height="543.6"/>
  </clipPath>
 </defs>
</svg>