<?xml version="1.0" encoding="utf-8" standalone="no"?>
<!DOCTYPE svg PUBLIC "-//W3C//DTD SVG 1.1//EN"
  "http://www.w3.org/Graphics/SVG/1.1/DTD/svg11.dtd">
<svg xmlns:xlink="http://www.w3.org/1999/xlink" width="754.970286pt" height="275pt" viewBox="0 0 754.970286 275" xmlns="http://www.w3.org/2000/svg" version="1.1">
 <metadata>
  <rdf:RDF xmlns:dc="http://purl.org/dc/elements/1.1/" xmlns:cc="http://creativecommons.org/ns#" xmlns:rdf="http://www.w3.org/1999/02/22-rdf-syntax-ns#">
   <cc:Work>
    <dc:type rdf:resource="http://purl.org/dc/dcmitype/StillImage"/>
    <dc:date>2025-11-17T10:09:59.973522</dc:date>
    <dc:format>image/svg+xml</dc:format>
    <dc:creator>
     <cc:Agent>
      <dc:title>Matplotlib v3.10.8, https://matplotlib.org/</dc:title>
     </cc:Agent>
    </dc:creator>
   </cc:Work>
  </rdf:RDF>
 </metadata>
 <defs>
  <style type="text/css">*{stroke-linejoin: round; stroke-linecap: butt}</style>
 </defs>
 <g id="figure_1">
  <g id="patch_1">
   <path d="M 0 275 
L 754.970286 275 
L 754.970286 0 
L 0 0 
z
" style="fill: #ffffff"/>
  </g>
  <g id="axes_1">
   <g id="patch_2">
    <path d="M 481.424286 71.78 
L 481.424286 35.78 
L 697.424286 35.78 
L 697.424286 107.78 
L 481.424286 107.78 
z
" clip-path="url(#p2c4e50e9c2)" style="fill: #add8e6; stroke: #add8e6; stroke-linejoin: miter"/>
   </g>
   <g id="patch_3">
    <path d="M 517.424286 215.78 
L 517.424286 179.78 
L 625.424286 179.78 
L 625.424286 251.78 
L 517.424286 251.78 
z
" clip-path="url(#p2c4e50e9c2)" style="fill: #add8e6; stroke: #add8e6; stroke-linejoin: miter"/>
   </g>
   <g id="line2d_1">
    <path d="M 223.482 107.78 
L 223.482 152.78 
L 301.424286 107.78 
L 223.482 62.78 
L 223.482 107.78 
M 301.424286 107.78 
" clip-path="url(#p2c4e50e9c2)" style="fill: none; stroke: #000000; stroke-width: 2; stroke-linecap: round"/>
   </g>
   <g id="line2d_2">
    <path d="M 229.624786 130.28 
L 236.824786 130.28 
" clip-path="url(#p2c4e50e9c2)" style="fill: none; stroke: #000000; stroke-width: 2; stroke-linecap: round"/>
   </g>
   <g id="line2d_3">
    <path d="M 229.624786 85.28 
L 236.824786 85.28 
" clip-path="url(#p2c4e50e9c2)" style="fill: none; stroke: #000000; stroke-width: 2; stroke-linecap: round"/>
   </g>
   <g id="line2d_4">
    <path d="M 233.224786 81.68 
L 233.224786 88.88 
" clip-path="url(#p2c4e50e9c2)" style="fill: none; stroke: #000000; stroke-width: 2; stroke-linecap: round"/>
   </g>
   <g id="line2d_5">
    <path d="M 223.482 85.28 
L 191.982 85.28 
L 160.482 85.28 
" clip-path="url(#p2c4e50e9c2)" style="fill: none; stroke: #000000; stroke-width: 2; stroke-linecap: round"/>
   </g>
   <g id="line2d_6">
    <path d="M 160.482 85.28 
L 127.722 85.28 
M 127.722 94.28 
L 127.722 76.28 
M 121.242 94.28 
L 121.242 76.28 
M 121.242 85.28 
L 88.482 85.28 
" clip-path="url(#p2c4e50e9c2)" style="fill: none; stroke: #000000; stroke-width: 2; stroke-linecap: round"/>
   </g>
   <g id="line2d_7">
    <path d="M 88.482 85.28 
L 55.722 85.28 
M 55.722 94.28 
L 55.722 76.28 
M 49.242 94.28 
L 49.242 76.28 
M 49.242 85.28 
L 16.482 85.28 
" clip-path="url(#p2c4e50e9c2)" style="fill: none; stroke: #000000; stroke-width: 2; stroke-linecap: round"/>
   </g>
   <g id="line2d_8">
    <path d="M 160.482 85.28 
L 160.482 103.28 
L 169.482 106.28 
L 151.482 112.28 
L 169.482 118.28 
L 151.482 124.28 
L 169.482 130.28 
L 151.482 136.28 
L 160.482 139.28 
L 160.482 157.28 
" clip-path="url(#p2c4e50e9c2)" style="fill: none; stroke: #000000; stroke-width: 2; stroke-linecap: round"/>
   </g>
   <g id="line2d_9">
    <path d="M 160.482 157.28 
L 160.482 171.68 
L 151.482 171.68 
L 169.482 171.68 
M 154.182 176 
L 166.782 176 
M 158.682 180.32 
L 162.282 180.32 
" clip-path="url(#p2c4e50e9c2)" style="fill: none; stroke: #000000; stroke-width: 2; stroke-linecap: round"/>
   </g>
   <g id="line2d_10">
    <path d="M 88.482 85.28 
L 88.482 58.28 
L 88.482 31.28 
" clip-path="url(#p2c4e50e9c2)" style="fill: none; stroke: #000000; stroke-width: 2; stroke-linecap: round"/>
   </g>
   <g id="line2d_11">
    <path d="M 88.482 31.28 
L 194.953143 31.28 
L 197.953143 22.28 
L 203.953143 40.28 
L 209.953143 22.28 
L 215.953143 40.28 
L 221.953143 22.28 
L 227.953143 40.28 
L 230.953143 31.28 
L 337.424286 31.28 
" clip-path="url(#p2c4e50e9c2)" style="fill: none; stroke: #000000; stroke-width: 2; stroke-linecap: round"/>
   </g>
   <g id="line2d_12">
    <path d="M 337.424286 31.28 
L 337.424286 69.53 
L 337.424286 107.78 
" clip-path="url(#p2c4e50e9c2)" style="fill: none; stroke: #000000; stroke-width: 2; stroke-linecap: round"/>
   </g>
   <g id="line2d_13">
    <path d="M 223.482 130.28 
L 214.482 130.28 
L 205.482 130.28 
" clip-path="url(#p2c4e50e9c2)" style="fill: none; stroke: #000000; stroke-width: 2; stroke-linecap: round"/>
   </g>
   <g id="line2d_14">
    <path d="M 205.482 130.28 
L 205.482 152.78 
L 205.482 175.28 
" clip-path="url(#p2c4e50e9c2)" style="fill: none; stroke: #000000; stroke-width: 2; stroke-linecap: round"/>
   </g>
   <g id="line2d_15">
    <path d="M 205.482 175.28 
L 205.482 193.28 
L 214.482 196.28 
L 196.482 202.28 
L 214.482 208.28 
L 196.482 214.28 
L 214.482 220.28 
L 196.482 226.28 
L 205.482 229.28 
L 205.482 247.28 
" clip-path="url(#p2c4e50e9c2)" style="fill: none; stroke: #000000; stroke-width: 2; stroke-linecap: round"/>
   </g>
   <g id="line2d_16">
    <path d="M 205.482 247.28 
L 205.482 261.68 
L 196.482 261.68 
L 214.482 261.68 
M 199.182 266 
L 211.782 266 
M 203.682 270.32 
L 207.282 270.32 
" clip-path="url(#p2c4e50e9c2)" style="fill: none; stroke: #000000; stroke-width: 2; stroke-linecap: round"/>
   </g>
   <g id="line2d_17">
    <path d="M 205.482 175.28 
L 244.453143 175.28 
L 247.453143 166.28 
L 253.453143 184.28 
L 259.453143 166.28 
L 265.453143 184.28 
L 271.453143 166.28 
L 277.453143 184.28 
L 280.453143 175.28 
L 319.424286 175.28 
" clip-path="url(#p2c4e50e9c2)" style="fill: none; stroke: #000000; stroke-width: 2; stroke-linecap: round"/>
   </g>
   <g id="line2d_18">
    <path d="M 319.424286 175.28 
L 319.424286 141.53 
L 319.424286 107.78 
" clip-path="url(#p2c4e50e9c2)" style="fill: none; stroke: #000000; stroke-width: 2; stroke-linecap: round"/>
   </g>
   <g id="line2d_19">
    <path d="M 301.424286 107.78 
L 337.424286 107.78 
L 373.424286 107.78 
" clip-path="url(#p2c4e50e9c2)" style="fill: none; stroke: #000000; stroke-width: 2; stroke-linecap: round"/>
   </g>
   <g id="line2d_20">
    <path d="M 481.424286 71.78 
L 481.424286 35.78 
L 697.424286 35.78 
L 697.424286 107.78 
L 481.424286 107.78 
L 481.424286 71.78 
" clip-path="url(#p2c4e50e9c2)" style="fill: none; stroke: #0000ff; stroke-width: 2; stroke-linecap: round"/>
   </g>
   <g id="line2d_21">
    <path d="M 517.424286 215.78 
L 517.424286 179.78 
L 625.424286 179.78 
L 625.424286 251.78 
L 517.424286 251.78 
L 517.424286 215.78 
" clip-path="url(#p2c4e50e9c2)" style="fill: none; stroke: #0000ff; stroke-width: 2; stroke-linecap: round"/>
   </g>
   <g id="text_1">
    <!-- $C$ -->
    <g transform="translate(119.582 69.768438) scale(0.14 -0.14)">
     <defs>
      <path id="DejaVuSans-Oblique-43" d="M 4447 4306 
L 4319 3641 
Q 4019 3944 3683 4091 
Q 3347 4238 2956 4238 
Q 2422 4238 2017 3981 
Q 1613 3725 1319 3200 
Q 1131 2863 1032 2486 
Q 934 2109 934 1728 
Q 934 1091 1264 756 
Q 1594 422 2222 422 
Q 2656 422 3056 561 
Q 3456 700 3834 978 
L 3688 231 
Q 3316 72 2936 -9 
Q 2556 -91 2175 -91 
Q 1278 -91 773 396 
Q 269 884 269 1753 
Q 269 2309 461 2846 
Q 653 3384 1013 3828 
Q 1394 4300 1883 4525 
Q 2372 4750 3022 4750 
Q 3422 4750 3780 4639 
Q 4138 4528 4447 4306 
z
" transform="scale(0.015625)"/>
     </defs>
     <use xlink:href="#DejaVuSans-Oblique-43" transform="translate(0 0.78125)"/>
    </g>
   </g>
   <g id="text_2">
    <!-- $C$ -->
    <g transform="translate(47.582 69.768438) scale(0.14 -0.14)">
     <use xlink:href="#DejaVuSans-Oblique-43" transform="translate(0 0.78125)"/>
    </g>
   </g>
   <g id="text_3">
    <!-- $R$ -->
    <g transform="translate(138.082 125.143125) scale(0.14 -0.14)">
     <defs>
      <path id="DejaVuSans-Oblique-52" d="M 1613 4147 
L 1294 2491 
L 2106 2491 
Q 2584 2491 2879 2755 
Q 3175 3019 3175 3444 
Q 3175 3784 2976 3965 
Q 2778 4147 2406 4147 
L 1613 4147 
z
M 2772 2241 
Q 2972 2194 3105 2009 
Q 3238 1825 3413 1275 
L 3809 0 
L 3144 0 
L 2778 1197 
Q 2638 1659 2453 1815 
Q 2269 1972 1888 1972 
L 1191 1972 
L 806 0 
L 172 0 
L 1081 4666 
L 2503 4666 
Q 3150 4666 3495 4373 
Q 3841 4081 3841 3531 
Q 3841 3044 3547 2687 
Q 3253 2331 2772 2241 
z
" transform="scale(0.015625)"/>
     </defs>
     <use xlink:href="#DejaVuSans-Oblique-52" transform="translate(0 0.09375)"/>
    </g>
   </g>
   <g id="text_4">
    <!-- $R$ -->
    <g transform="translate(208.053143 15.768438) scale(0.14 -0.14)">
     <use xlink:href="#DejaVuSans-Oblique-52" transform="translate(0 0.09375)"/>
    </g>
   </g>
   <g id="text_5">
    <!-- $R_x$ -->
    <g transform="translate(176.922 215.143125) scale(0.14 -0.14)">
     <defs>
      <path id="DejaVuSans-Oblique-78" d="M 3841 3500 
L 2234 1784 
L 3219 0 
L 2559 0 
L 1819 1388 
L 531 0 
L -166 0 
L 1556 1844 
L 641 3500 
L 1300 3500 
L 1972 2234 
L 3144 3500 
L 3841 3500 
z
" transform="scale(0.015625)"/>
     </defs>
     <use xlink:href="#DejaVuSans-Oblique-52" transform="translate(0 0.09375)"/>
     <use xlink:href="#DejaVuSans-Oblique-78" transform="translate(69.482422 -16.3125) scale(0.7)"/>
    </g>
   </g>
   <g id="text_6">
    <!-- $k R_x$ -->
    <g transform="translate(250.413143 159.768438) scale(0.14 -0.14)">
     <defs>
      <path id="DejaVuSans-Oblique-6b" d="M 1172 4863 
L 1747 4863 
L 1197 2028 
L 3169 3500 
L 3916 3500 
L 1716 1825 
L 3322 0 
L 2625 0 
L 1131 1709 
L 800 0 
L 225 0 
L 1172 4863 
z
" transform="scale(0.015625)"/>
     </defs>
     <use xlink:href="#DejaVuSans-Oblique-6b" transform="translate(0 0.015625)"/>
     <use xlink:href="#DejaVuSans-Oblique-52" transform="translate(57.910156 0.015625)"/>
     <use xlink:href="#DejaVuSans-Oblique-78" transform="translate(127.392578 -16.390625) scale(0.7)"/>
    </g>
   </g>
   <g id="text_7">
    <!-- $T(s)=\frac{(k+1)s^2}{s^2+\omega_c (2-k) s +\omega_c^2}$ -->
    <g style="fill: #0000ff" transform="translate(497.984286 75.92) scale(0.18 -0.18)">
     <defs>
      <path id="DejaVuSans-Oblique-54" d="M 378 4666 
L 4325 4666 
L 4225 4134 
L 2559 4134 
L 1759 0 
L 1125 0 
L 1925 4134 
L 275 4134 
L 378 4666 
z
" transform="scale(0.015625)"/>
      <path id="DejaVuSans-28" d="M 1984 4856 
Q 1566 4138 1362 3434 
Q 1159 2731 1159 2009 
Q 1159 1288 1364 580 
Q 1569 -128 1984 -844 
L 1484 -844 
Q 1016 -109 783 600 
Q 550 1309 550 2009 
Q 550 2706 781 3412 
Q 1013 4119 1484 4856 
L 1984 4856 
z
" transform="scale(0.015625)"/>
      <path id="DejaVuSans-Oblique-73" d="M 3200 3397 
L 3091 2853 
Q 2863 2978 2609 3040 
Q 2356 3103 2088 3103 
Q 1634 3103 1373 2948 
Q 1113 2794 1113 2528 
Q 1113 2219 1719 2053 
Q 1766 2041 1788 2034 
L 1972 1978 
Q 2547 1819 2739 1644 
Q 2931 1469 2931 1166 
Q 2931 609 2489 259 
Q 2047 -91 1331 -91 
Q 1053 -91 747 -37 
Q 441 16 72 128 
L 184 722 
Q 500 559 806 475 
Q 1113 391 1394 391 
Q 1816 391 2080 572 
Q 2344 753 2344 1031 
Q 2344 1331 1650 1516 
L 1591 1531 
L 1394 1581 
Q 956 1697 753 1886 
Q 550 2075 550 2369 
Q 550 2928 970 3256 
Q 1391 3584 2113 3584 
Q 2397 3584 2667 3537 
Q 2938 3491 3200 3397 
z
" transform="scale(0.015625)"/>
      <path id="DejaVuSans-29" d="M 513 4856 
L 1013 4856 
Q 1481 4119 1714 3412 
Q 1947 2706 1947 2009 
Q 1947 1309 1714 600 
Q 1481 -109 1013 -844 
L 513 -844 
Q 928 -128 1133 580 
Q 1338 1288 1338 2009 
Q 1338 2731 1133 3434 
Q 928 4138 513 4856 
z
" transform="scale(0.015625)"/>
      <path id="DejaVuSans-3d" d="M 678 2906 
L 4684 2906 
L 4684 2381 
L 678 2381 
L 678 2906 
z
M 678 1631 
L 4684 1631 
L 4684 1100 
L 678 1100 
L 678 1631 
z
" transform="scale(0.015625)"/>
      <path id="DejaVuSans-2b" d="M 2944 4013 
L 2944 2272 
L 4684 2272 
L 4684 1741 
L 2944 1741 
L 2944 0 
L 2419 0 
L 2419 1741 
L 678 1741 
L 678 2272 
L 2419 2272 
L 2419 4013 
L 2944 4013 
z
" transform="scale(0.015625)"/>
      <path id="DejaVuSans-31" d="M 794 531 
L 1825 531 
L 1825 4091 
L 703 3866 
L 703 4441 
L 1819 4666 
L 2450 4666 
L 2450 531 
L 3481 531 
L 3481 0 
L 794 0 
L 794 531 
z
" transform="scale(0.015625)"/>
      <path id="DejaVuSans-32" d="M 1228 531 
L 3431 531 
L 3431 0 
L 469 0 
L 469 531 
Q 828 903 1448 1529 
Q 2069 2156 2228 2338 
Q 2531 2678 2651 2914 
Q 2772 3150 2772 3378 
Q 2772 3750 2511 3984 
Q 2250 4219 1831 4219 
Q 1534 4219 1204 4116 
Q 875 4013 500 3803 
L 500 4441 
Q 881 4594 1212 4672 
Q 1544 4750 1819 4750 
Q 2544 4750 2975 4387 
Q 3406 4025 3406 3419 
Q 3406 3131 3298 2873 
Q 3191 2616 2906 2266 
Q 2828 2175 2409 1742 
Q 1991 1309 1228 531 
z
" transform="scale(0.015625)"/>
      <path id="DejaVuSans-Oblique-3c9" d="M 1369 -91 
Q 72 -91 434 1766 
Q 575 2500 1256 3500 
L 1875 3500 
Q 1231 2500 1088 1750 
Q 819 397 1519 397 
Q 2166 397 2478 2078 
L 3009 2078 
Q 2669 388 3316 397 
Q 4013 403 4275 1750 
Q 4419 2500 4169 3500 
L 4788 3500 
Q 5075 2500 4934 1766 
Q 4578 -94 3278 -91 
Q 2428 -88 2503 844 
Q 2194 -91 1369 -91 
z
" transform="scale(0.015625)"/>
      <path id="DejaVuSans-Oblique-63" d="M 3431 3366 
L 3316 2797 
Q 3109 2947 2876 3022 
Q 2644 3097 2394 3097 
Q 2119 3097 1870 3000 
Q 1622 2903 1453 2725 
Q 1184 2453 1037 2087 
Q 891 1722 891 1331 
Q 891 859 1127 628 
Q 1363 397 1844 397 
Q 2081 397 2348 469 
Q 2616 541 2906 684 
L 2797 116 
Q 2547 13 2283 -39 
Q 2019 -91 1741 -91 
Q 1044 -91 669 257 
Q 294 606 294 1253 
Q 294 1797 489 2255 
Q 684 2713 1069 3078 
Q 1331 3328 1684 3456 
Q 2038 3584 2456 3584 
Q 2700 3584 2940 3529 
Q 3181 3475 3431 3366 
z
" transform="scale(0.015625)"/>
      <path id="DejaVuSans-2212" d="M 678 2272 
L 4684 2272 
L 4684 1741 
L 678 1741 
L 678 2272 
z
" transform="scale(0.015625)"/>
     </defs>
     <use xlink:href="#DejaVuSans-Oblique-54" transform="translate(0 0.807813)"/>
     <use xlink:href="#DejaVuSans-28" transform="translate(61.083984 0.807813)"/>
     <use xlink:href="#DejaVuSans-Oblique-73" transform="translate(100.097656 0.807813)"/>
     <use xlink:href="#DejaVuSans-29" transform="translate(152.197266 0.807813)"/>
     <use xlink:href="#DejaVuSans-3d" transform="translate(210.693359 0.807813)"/>
     <use xlink:href="#DejaVuSans-28" transform="translate(508.964844 53.835938) scale(0.7)"/>
     <use xlink:href="#DejaVuSans-Oblique-6b" transform="translate(536.274414 53.835938) scale(0.7)"/>
     <use xlink:href="#DejaVuSans-2b" transform="translate(590.449219 53.835938) scale(0.7)"/>
     <use xlink:href="#DejaVuSans-31" transform="translate(662.739258 53.835938) scale(0.7)"/>
     <use xlink:href="#DejaVuSans-29" transform="translate(707.275391 53.835938) scale(0.7)"/>
     <use xlink:href="#DejaVuSans-Oblique-73" transform="translate(734.584961 53.835938) scale(0.7)"/>
     <use xlink:href="#DejaVuSans-32" transform="translate(774.309615 80.632812) scale(0.49)"/>
     <use xlink:href="#DejaVuSans-Oblique-73" transform="translate(313.964844 -49.809375) scale(0.7)"/>
     <use xlink:href="#DejaVuSans-32" transform="translate(353.689497 -23.0125) scale(0.49)"/>
     <use xlink:href="#DejaVuSans-2b" transform="translate(400.416548 -49.809375) scale(0.7)"/>
     <use xlink:href="#DejaVuSans-Oblique-3c9" transform="translate(472.706587 -49.809375) scale(0.7)"/>
     <use xlink:href="#DejaVuSans-Oblique-63" transform="translate(531.324751 -61.29375) scale(0.49)"/>
     <use xlink:href="#DejaVuSans-28" transform="translate(560.179243 -49.809375) scale(0.7)"/>
     <use xlink:href="#DejaVuSans-32" transform="translate(587.488814 -49.809375) scale(0.7)"/>
     <use xlink:href="#DejaVuSans-2212" transform="translate(645.662642 -49.809375) scale(0.7)"/>
     <use xlink:href="#DejaVuSans-Oblique-6b" transform="translate(717.952681 -49.809375) scale(0.7)"/>
     <use xlink:href="#DejaVuSans-29" transform="translate(758.48979 -49.809375) scale(0.7)"/>
     <use xlink:href="#DejaVuSans-Oblique-73" transform="translate(785.799361 -49.809375) scale(0.7)"/>
     <use xlink:href="#DejaVuSans-2b" transform="translate(835.906783 -49.809375) scale(0.7)"/>
     <use xlink:href="#DejaVuSans-Oblique-3c9" transform="translate(908.196822 -49.809375) scale(0.7)"/>
     <use xlink:href="#DejaVuSans-32" transform="translate(969.941288 -23.0125) scale(0.49)"/>
     <use xlink:href="#DejaVuSans-Oblique-63" transform="translate(966.814986 -68.95) scale(0.49)"/>
     <path d="M 313.964844 19.604688 
L 313.964844 25.854688 
L 1003.030643 25.854688 
L 1003.030643 19.604688 
L 313.964844 19.604688 
z
"/>
    </g>
   </g>
   <g id="text_8">
    <!-- $\omega_c=\frac{1}{R C}$ -->
    <g style="fill: #0000ff" transform="translate(539.204286 220.64) scale(0.18 -0.18)">
     <use xlink:href="#DejaVuSans-Oblique-3c9" transform="translate(0 0.16875)"/>
     <use xlink:href="#DejaVuSans-Oblique-63" transform="translate(83.740234 -16.2375) scale(0.7)"/>
     <use xlink:href="#DejaVuSans-3d" transform="translate(144.443359 0.16875)"/>
     <use xlink:href="#DejaVuSans-31" transform="translate(273.714844 43.965625) scale(0.7)"/>
     <use xlink:href="#DejaVuSans-Oblique-52" transform="translate(247.714844 -39.2375) scale(0.7)"/>
     <use xlink:href="#DejaVuSans-Oblique-43" transform="translate(296.352539 -39.2375) scale(0.7)"/>
     <path d="M 247.714844 18.965625 
L 247.714844 25.215625 
L 345.229492 25.215625 
L 345.229492 18.965625 
L 247.714844 18.965625 
z
"/>
    </g>
   </g>
   <g id="patch_4">
    <path d="M 16.482 87.98 
C 17.198048 87.98 17.884866 87.695511 18.391188 87.189188 
C 18.897511 86.682866 19.182 85.996048 19.182 85.28 
C 19.182 84.563952 18.897511 83.877134 18.391188 83.370812 
C 17.884866 82.864489 17.198048 82.58 16.482 82.58 
C 15.765952 82.58 15.079134 82.864489 14.572812 83.370812 
C 14.066489 83.877134 13.782 84.563952 13.782 85.28 
C 13.782 85.996048 14.066489 86.682866 14.572812 87.189188 
C 15.079134 87.695511 15.765952 87.98 16.482 87.98 
z
" clip-path="url(#p2c4e50e9c2)" style="fill: #ffffff; stroke: #000000; stroke-width: 2; stroke-linejoin: miter"/>
   </g>
   <g id="text_9">
    <!-- $V_{in}$ -->
    <g transform="translate(7.032 76.068438) scale(0.14 -0.14)">
     <defs>
      <path id="DejaVuSans-Oblique-56" d="M 1319 0 
L 500 4666 
L 1119 4666 
L 1797 653 
L 4063 4666 
L 4750 4666 
L 2053 0 
L 1319 0 
z
" transform="scale(0.015625)"/>
      <path id="DejaVuSans-Oblique-69" d="M 1172 4863 
L 1747 4863 
L 1606 4134 
L 1031 4134 
L 1172 4863 
z
M 909 3500 
L 1484 3500 
L 800 0 
L 225 0 
L 909 3500 
z
" transform="scale(0.015625)"/>
      <path id="DejaVuSans-Oblique-6e" d="M 3566 2113 
L 3156 0 
L 2578 0 
L 2988 2091 
Q 3016 2238 3031 2350 
Q 3047 2463 3047 2528 
Q 3047 2791 2881 2937 
Q 2716 3084 2419 3084 
Q 1956 3084 1622 2776 
Q 1288 2469 1184 1941 
L 800 0 
L 225 0 
L 903 3500 
L 1478 3500 
L 1363 2950 
Q 1603 3253 1940 3418 
Q 2278 3584 2650 3584 
Q 3113 3584 3367 3334 
Q 3622 3084 3622 2631 
Q 3622 2519 3608 2391 
Q 3594 2263 3566 2113 
z
" transform="scale(0.015625)"/>
     </defs>
     <use xlink:href="#DejaVuSans-Oblique-56" transform="translate(0 0.09375)"/>
     <use xlink:href="#DejaVuSans-Oblique-69" transform="translate(68.408203 -16.3125) scale(0.7)"/>
     <use xlink:href="#DejaVuSans-Oblique-6e" transform="translate(87.856445 -16.3125) scale(0.7)"/>
    </g>
   </g>
   <g id="patch_5">
    <path d="M 160.482 87.98 
C 161.198048 87.98 161.884866 87.695511 162.391188 87.189188 
C 162.897511 86.682866 163.182 85.996048 163.182 85.28 
C 163.182 84.563952 162.897511 83.877134 162.391188 83.370812 
C 161.884866 82.864489 161.198048 82.58 160.482 82.58 
C 159.765952 82.58 159.079134 82.864489 158.572812 83.370812 
C 158.066489 83.877134 157.782 84.563952 157.782 85.28 
C 157.782 85.996048 158.066489 86.682866 158.572812 87.189188 
C 159.079134 87.695511 159.765952 87.98 160.482 87.98 
z
" clip-path="url(#p2c4e50e9c2)" style="stroke: #000000; stroke-width: 2; stroke-linejoin: miter"/>
   </g>
   <g id="patch_6">
    <path d="M 88.482 87.98 
C 89.198048 87.98 89.884866 87.695511 90.391188 87.189188 
C 90.897511 86.682866 91.182 85.996048 91.182 85.28 
C 91.182 84.563952 90.897511 83.877134 90.391188 83.370812 
C 89.884866 82.864489 89.198048 82.58 88.482 82.58 
C 87.765952 82.58 87.079134 82.864489 86.572812 83.370812 
C 86.066489 83.877134 85.782 84.563952 85.782 85.28 
C 85.782 85.996048 86.066489 86.682866 86.572812 87.189188 
C 87.079134 87.695511 87.765952 87.98 88.482 87.98 
z
" clip-path="url(#p2c4e50e9c2)" style="stroke: #000000; stroke-width: 2; stroke-linejoin: miter"/>
   </g>
   <g id="patch_7">
    <path d="M 337.424286 110.48 
C 338.140335 110.48 338.827152 110.195511 339.333475 109.689188 
C 339.839797 109.182866 340.124286 108.496048 340.124286 107.78 
C 340.124286 107.063952 339.839797 106.377134 339.333475 105.870812 
C 338.827152 105.364489 338.140335 105.08 337.424286 105.08 
C 336.708238 105.08 336.021421 105.364489 335.515098 105.870812 
C 335.008775 106.377134 334.724286 107.063952 334.724286 107.78 
C 334.724286 108.496048 335.008775 109.182866 335.515098 109.689188 
C 336.021421 110.195511 336.708238 110.48 337.424286 110.48 
z
" clip-path="url(#p2c4e50e9c2)" style="stroke: #000000; stroke-width: 2; stroke-linejoin: miter"/>
   </g>
   <g id="patch_8">
    <path d="M 205.482 177.98 
C 206.198048 177.98 206.884866 177.695511 207.391188 177.189188 
C 207.897511 176.682866 208.182 175.996048 208.182 175.28 
C 208.182 174.563952 207.897511 173.877134 207.391188 173.370812 
C 206.884866 172.864489 206.198048 172.58 205.482 172.58 
C 204.765952 172.58 204.079134 172.864489 203.572812 173.370812 
C 203.066489 173.877134 202.782 174.563952 202.782 175.28 
C 202.782 175.996048 203.066489 176.682866 203.572812 177.189188 
C 204.079134 177.695511 204.765952 177.98 205.482 177.98 
z
" clip-path="url(#p2c4e50e9c2)" style="stroke: #000000; stroke-width: 2; stroke-linejoin: miter"/>
   </g>
   <g id="patch_9">
    <path d="M 319.424286 110.48 
C 320.140335 110.48 320.827152 110.195511 321.333475 109.689188 
C 321.839797 109.182866 322.124286 108.496048 322.124286 107.78 
C 322.124286 107.063952 321.839797 106.377134 321.333475 105.870812 
C 320.827152 105.364489 320.140335 105.08 319.424286 105.08 
C 318.708238 105.08 318.021421 105.364489 317.515098 105.870812 
C 317.008775 106.377134 316.724286 107.063952 316.724286 107.78 
C 316.724286 108.496048 317.008775 109.182866 317.515098 109.689188 
C 318.021421 110.195511 318.708238 110.48 319.424286 110.48 
z
" clip-path="url(#p2c4e50e9c2)" style="stroke: #000000; stroke-width: 2; stroke-linejoin: miter"/>
   </g>
   <g id="patch_10">
    <path d="M 373.424286 110.48 
C 374.140335 110.48 374.827152 110.195511 375.333475 109.689188 
C 375.839797 109.182866 376.124286 108.496048 376.124286 107.78 
C 376.124286 107.063952 375.839797 106.377134 375.333475 105.870812 
C 374.827152 105.364489 374.140335 105.08 373.424286 105.08 
C 372.708238 105.08 372.021421 105.364489 371.515098 105.870812 
C 371.008775 106.377134 370.724286 107.063952 370.724286 107.78 
C 370.724286 108.496048 371.008775 109.182866 371.515098 109.689188 
C 372.021421 110.195511 372.708238 110.48 373.424286 110.48 
z
" clip-path="url(#p2c4e50e9c2)" style="fill: #ffffff; stroke: #000000; stroke-width: 2; stroke-linejoin: miter"/>
   </g>
   <g id="text_10">
    <!-- $V_{out}$ -->
    <g transform="translate(379.724286 111.643125) scale(0.14 -0.14)">
     <defs>
      <path id="DejaVuSans-Oblique-6f" d="M 1625 -91 
Q 1009 -91 651 289 
Q 294 669 294 1325 
Q 294 1706 417 2101 
Q 541 2497 738 2766 
Q 1047 3184 1428 3384 
Q 1809 3584 2291 3584 
Q 2888 3584 3255 3212 
Q 3622 2841 3622 2241 
Q 3622 1825 3500 1412 
Q 3378 1000 3181 728 
Q 2875 309 2494 109 
Q 2113 -91 1625 -91 
z
M 891 1344 
Q 891 869 1089 633 
Q 1288 397 1691 397 
Q 2269 397 2648 901 
Q 3028 1406 3028 2181 
Q 3028 2634 2825 2865 
Q 2622 3097 2228 3097 
Q 1903 3097 1650 2945 
Q 1397 2794 1197 2484 
Q 1050 2253 970 1956 
Q 891 1659 891 1344 
z
" transform="scale(0.015625)"/>
      <path id="DejaVuSans-Oblique-75" d="M 428 1388 
L 838 3500 
L 1416 3500 
L 1006 1409 
Q 975 1256 961 1147 
Q 947 1038 947 966 
Q 947 700 1109 554 
Q 1272 409 1569 409 
Q 2031 409 2368 721 
Q 2706 1034 2809 1563 
L 3194 3500 
L 3769 3500 
L 3091 0 
L 2516 0 
L 2631 550 
Q 2388 244 2052 76 
Q 1716 -91 1338 -91 
Q 878 -91 622 161 
Q 366 413 366 863 
Q 366 956 381 1097 
Q 397 1238 428 1388 
z
" transform="scale(0.015625)"/>
      <path id="DejaVuSans-Oblique-74" d="M 2706 3500 
L 2619 3053 
L 1472 3053 
L 1100 1153 
Q 1081 1047 1072 975 
Q 1063 903 1063 863 
Q 1063 663 1183 572 
Q 1303 481 1569 481 
L 2150 481 
L 2053 0 
L 1503 0 
Q 991 0 739 200 
Q 488 400 488 806 
Q 488 878 497 964 
Q 506 1050 525 1153 
L 897 3053 
L 409 3053 
L 500 3500 
L 978 3500 
L 1172 4494 
L 1747 4494 
L 1556 3500 
L 2706 3500 
z
" transform="scale(0.015625)"/>
     </defs>
     <use xlink:href="#DejaVuSans-Oblique-56" transform="translate(0 0.09375)"/>
     <use xlink:href="#DejaVuSans-Oblique-6f" transform="translate(68.408203 -16.3125) scale(0.7)"/>
     <use xlink:href="#DejaVuSans-Oblique-75" transform="translate(111.235352 -16.3125) scale(0.7)"/>
     <use xlink:href="#DejaVuSans-Oblique-74" transform="translate(155.600586 -16.3125) scale(0.7)"/>
    </g>
   </g>
  </g>
 </g>
 <defs>
  <clipPath id="p2c4e50e9c2">
   <rect x="0" y="0" width="754.970286" height="275"/>
  </clipPath>
 </defs>
</svg>