<?xml version="1.0" encoding="utf-8" standalone="no"?>
<!DOCTYPE svg PUBLIC "-//W3C//DTD SVG 1.1//EN"
  "http://www.w3.org/Graphics/SVG/1.1/DTD/svg11.dtd">
<svg xmlns:xlink="http://www.w3.org/1999/xlink" width="664.56pt" height="81.36pt" viewBox="0 0 664.56 81.36" xmlns="http://www.w3.org/2000/svg" version="1.1">
 <metadata>
  <rdf:RDF xmlns:dc="http://purl.org/dc/elements/1.1/" xmlns:cc="http://creativecommons.org/ns#" xmlns:rdf="http://www.w3.org/1999/02/22-rdf-syntax-ns#">
   <cc:Work>
    <dc:type rdf:resource="http://purl.org/dc/dcmitype/StillImage"/>
    <dc:date>2025-11-02T23:23:18.347981</dc:date>
    <dc:format>image/svg+xml</dc:format>
    <dc:creator>
     <cc:Agent>
      <dc:title>Matplotlib v3.10.6, https://matplotlib.org/</dc:title>
     </cc:Agent>
    </dc:creator>
   </cc:Work>
  </rdf:RDF>
 </metadata>
 <defs>
  <style type="text/css">*{stroke-linejoin: round; stroke-linecap: butt}</style>
 </defs>
 <g id="figure_1">
  <g id="patch_1">
   <path d="M 0 81.36 
L 664.56 81.36 
L 664.56 0 
L 0 0 
z
" style="fill: #ffffff"/>
  </g>
  <g id="axes_1">
   <g id="line2d_1">
    <path d="M 4.68 40.68 
L 31.68 40.68 
L 49.68 40.68 
" clip-path="url(#pe57f6f536d)" style="fill: none; stroke: #000000; stroke-width: 2; stroke-linecap: round"/>
   </g>
   <g id="patch_2">
    <path d="M 49.68 37.98 
L 58.68 40.68 
L 49.68 43.38 
z
" clip-path="url(#pe57f6f536d)"/>
   </g>
   <g id="line2d_2">
    <path d="M 58.68 40.68 
L 58.68 4.68 
L 130.68 4.68 
L 130.68 76.68 
L 58.68 76.68 
L 58.68 40.68 
" clip-path="url(#pe57f6f536d)" style="fill: none; stroke: #000000; stroke-width: 2; stroke-linecap: round"/>
   </g>
   <g id="line2d_3">
    <path d="M 130.68 40.68 
L 157.68 40.68 
L 175.68 40.68 
" clip-path="url(#pe57f6f536d)" style="fill: none; stroke: #000000; stroke-width: 2; stroke-linecap: round"/>
   </g>
   <g id="patch_3">
    <path d="M 175.68 37.98 
L 184.68 40.68 
L 175.68 43.38 
z
" clip-path="url(#pe57f6f536d)"/>
   </g>
   <g id="line2d_4">
    <path d="M 184.68 40.68 
L 184.68 4.68 
L 256.68 4.68 
L 256.68 76.68 
L 184.68 76.68 
L 184.68 40.68 
" clip-path="url(#pe57f6f536d)" style="fill: none; stroke: #000000; stroke-width: 2; stroke-linecap: round"/>
   </g>
   <g id="line2d_5">
    <path d="M 256.68 40.68 
L 283.68 40.68 
L 301.68 40.68 
" clip-path="url(#pe57f6f536d)" style="fill: none; stroke: #000000; stroke-width: 2; stroke-linecap: round"/>
   </g>
   <g id="patch_4">
    <path d="M 301.68 37.98 
L 310.68 40.68 
L 301.68 43.38 
z
" clip-path="url(#pe57f6f536d)"/>
   </g>
   <g id="line2d_6">
    <path d="M 310.68 40.68 
L 310.68 4.68 
L 382.68 4.68 
L 382.68 76.68 
L 310.68 76.68 
L 310.68 40.68 
" clip-path="url(#pe57f6f536d)" style="fill: none; stroke: #000000; stroke-width: 2; stroke-linecap: round"/>
   </g>
   <g id="line2d_7">
    <path d="M 382.68 40.68 
L 409.68 40.68 
L 427.68 40.68 
" clip-path="url(#pe57f6f536d)" style="fill: none; stroke: #000000; stroke-width: 2; stroke-linecap: round"/>
   </g>
   <g id="patch_5">
    <path d="M 427.68 37.98 
L 436.68 40.68 
L 427.68 43.38 
z
" clip-path="url(#pe57f6f536d)"/>
   </g>
   <g id="line2d_8">
    <path d="M 479.88 40.68 
L 506.88 40.68 
L 524.88 40.68 
" clip-path="url(#pe57f6f536d)" style="fill: none; stroke: #000000; stroke-width: 2; stroke-linecap: round"/>
   </g>
   <g id="patch_6">
    <path d="M 524.88 37.98 
L 533.88 40.68 
L 524.88 43.38 
z
" clip-path="url(#pe57f6f536d)"/>
   </g>
   <g id="line2d_9">
    <path d="M 533.88 40.68 
L 533.88 4.68 
L 605.88 4.68 
L 605.88 76.68 
L 533.88 76.68 
L 533.88 40.68 
" clip-path="url(#pe57f6f536d)" style="fill: none; stroke: #000000; stroke-width: 2; stroke-linecap: round"/>
   </g>
   <g id="line2d_10">
    <path d="M 605.88 40.68 
L 632.88 40.68 
L 650.88 40.68 
" clip-path="url(#pe57f6f536d)" style="fill: none; stroke: #000000; stroke-width: 2; stroke-linecap: round"/>
   </g>
   <g id="patch_7">
    <path d="M 650.88 37.98 
L 659.88 40.68 
L 650.88 43.38 
z
" clip-path="url(#pe57f6f536d)"/>
   </g>
   <g id="text_1">
    <!-- $T_1(j \omega)$ -->
    <g transform="translate(73.82 44.53) scale(0.14 -0.14)">
     <defs>
      <path id="DejaVuSans-Oblique-54" d="M 378 4666 
L 4325 4666 
L 4225 4134 
L 2559 4134 
L 1759 0 
L 1125 0 
L 1925 4134 
L 275 4134 
L 378 4666 
z
" transform="scale(0.015625)"/>
      <path id="DejaVuSans-31" d="M 794 531 
L 1825 531 
L 1825 4091 
L 703 3866 
L 703 4441 
L 1819 4666 
L 2450 4666 
L 2450 531 
L 3481 531 
L 3481 0 
L 794 0 
L 794 531 
z
" transform="scale(0.015625)"/>
      <path id="DejaVuSans-28" d="M 1984 4856 
Q 1566 4138 1362 3434 
Q 1159 2731 1159 2009 
Q 1159 1288 1364 580 
Q 1569 -128 1984 -844 
L 1484 -844 
Q 1016 -109 783 600 
Q 550 1309 550 2009 
Q 550 2706 781 3412 
Q 1013 4119 1484 4856 
L 1984 4856 
z
" transform="scale(0.015625)"/>
      <path id="DejaVuSans-Oblique-6a" d="M 928 3500 
L 1503 3500 
L 813 -63 
L 809 -78 
Q 694 -675 544 -897 
Q 403 -1106 132 -1218 
Q -138 -1331 -506 -1331 
L -722 -1331 
L -628 -844 
L -481 -844 
Q -144 -844 -1 -703 
Q 141 -563 238 -63 
L 928 3500 
z
M 1197 4863 
L 1772 4863 
L 1631 4134 
L 1056 4134 
L 1197 4863 
z
" transform="scale(0.015625)"/>
      <path id="DejaVuSans-Oblique-3c9" d="M 1369 -91 
Q 72 -91 434 1766 
Q 575 2500 1256 3500 
L 1875 3500 
Q 1231 2500 1088 1750 
Q 819 397 1519 397 
Q 2166 397 2478 2078 
L 3009 2078 
Q 2669 388 3316 397 
Q 4013 403 4275 1750 
Q 4419 2500 4169 3500 
L 4788 3500 
Q 5075 2500 4934 1766 
Q 4578 -94 3278 -91 
Q 2428 -88 2503 844 
Q 2194 -91 1369 -91 
z
" transform="scale(0.015625)"/>
      <path id="DejaVuSans-29" d="M 513 4856 
L 1013 4856 
Q 1481 4119 1714 3412 
Q 1947 2706 1947 2009 
Q 1947 1309 1714 600 
Q 1481 -109 1013 -844 
L 513 -844 
Q 928 -128 1133 580 
Q 1338 1288 1338 2009 
Q 1338 2731 1133 3434 
Q 928 4138 513 4856 
z
" transform="scale(0.015625)"/>
     </defs>
     <use xlink:href="#DejaVuSans-Oblique-54" transform="translate(0 0.015625)"/>
     <use xlink:href="#DejaVuSans-31" transform="translate(61.083984 -16.390625) scale(0.7)"/>
     <use xlink:href="#DejaVuSans-28" transform="translate(108.354492 0.015625)"/>
     <use xlink:href="#DejaVuSans-Oblique-6a" transform="translate(147.368164 0.015625)"/>
     <use xlink:href="#DejaVuSans-Oblique-3c9" transform="translate(175.151367 0.015625)"/>
     <use xlink:href="#DejaVuSans-29" transform="translate(258.891602 0.015625)"/>
    </g>
   </g>
   <g id="text_2">
    <!-- $T_2(j \omega)$ -->
    <g transform="translate(199.82 44.53) scale(0.14 -0.14)">
     <defs>
      <path id="DejaVuSans-32" d="M 1228 531 
L 3431 531 
L 3431 0 
L 469 0 
L 469 531 
Q 828 903 1448 1529 
Q 2069 2156 2228 2338 
Q 2531 2678 2651 2914 
Q 2772 3150 2772 3378 
Q 2772 3750 2511 3984 
Q 2250 4219 1831 4219 
Q 1534 4219 1204 4116 
Q 875 4013 500 3803 
L 500 4441 
Q 881 4594 1212 4672 
Q 1544 4750 1819 4750 
Q 2544 4750 2975 4387 
Q 3406 4025 3406 3419 
Q 3406 3131 3298 2873 
Q 3191 2616 2906 2266 
Q 2828 2175 2409 1742 
Q 1991 1309 1228 531 
z
" transform="scale(0.015625)"/>
     </defs>
     <use xlink:href="#DejaVuSans-Oblique-54" transform="translate(0 0.015625)"/>
     <use xlink:href="#DejaVuSans-32" transform="translate(61.083984 -16.390625) scale(0.7)"/>
     <use xlink:href="#DejaVuSans-28" transform="translate(108.354492 0.015625)"/>
     <use xlink:href="#DejaVuSans-Oblique-6a" transform="translate(147.368164 0.015625)"/>
     <use xlink:href="#DejaVuSans-Oblique-3c9" transform="translate(175.151367 0.015625)"/>
     <use xlink:href="#DejaVuSans-29" transform="translate(258.891602 0.015625)"/>
    </g>
   </g>
   <g id="text_3">
    <!-- $T_3(j \omega)$ -->
    <g transform="translate(325.82 44.53) scale(0.14 -0.14)">
     <defs>
      <path id="DejaVuSans-33" d="M 2597 2516 
Q 3050 2419 3304 2112 
Q 3559 1806 3559 1356 
Q 3559 666 3084 287 
Q 2609 -91 1734 -91 
Q 1441 -91 1130 -33 
Q 819 25 488 141 
L 488 750 
Q 750 597 1062 519 
Q 1375 441 1716 441 
Q 2309 441 2620 675 
Q 2931 909 2931 1356 
Q 2931 1769 2642 2001 
Q 2353 2234 1838 2234 
L 1294 2234 
L 1294 2753 
L 1863 2753 
Q 2328 2753 2575 2939 
Q 2822 3125 2822 3475 
Q 2822 3834 2567 4026 
Q 2313 4219 1838 4219 
Q 1578 4219 1281 4162 
Q 984 4106 628 3988 
L 628 4550 
Q 988 4650 1302 4700 
Q 1616 4750 1894 4750 
Q 2613 4750 3031 4423 
Q 3450 4097 3450 3541 
Q 3450 3153 3228 2886 
Q 3006 2619 2597 2516 
z
" transform="scale(0.015625)"/>
     </defs>
     <use xlink:href="#DejaVuSans-Oblique-54" transform="translate(0 0.015625)"/>
     <use xlink:href="#DejaVuSans-33" transform="translate(61.083984 -16.390625) scale(0.7)"/>
     <use xlink:href="#DejaVuSans-28" transform="translate(108.354492 0.015625)"/>
     <use xlink:href="#DejaVuSans-Oblique-6a" transform="translate(147.368164 0.015625)"/>
     <use xlink:href="#DejaVuSans-Oblique-3c9" transform="translate(175.151367 0.015625)"/>
     <use xlink:href="#DejaVuSans-29" transform="translate(258.891602 0.015625)"/>
    </g>
   </g>
   <g id="text_4">
    <!-- $T_n(j \omega)$ -->
    <g transform="translate(549.02 44.53) scale(0.14 -0.14)">
     <defs>
      <path id="DejaVuSans-Oblique-6e" d="M 3566 2113 
L 3156 0 
L 2578 0 
L 2988 2091 
Q 3016 2238 3031 2350 
Q 3047 2463 3047 2528 
Q 3047 2791 2881 2937 
Q 2716 3084 2419 3084 
Q 1956 3084 1622 2776 
Q 1288 2469 1184 1941 
L 800 0 
L 225 0 
L 903 3500 
L 1478 3500 
L 1363 2950 
Q 1603 3253 1940 3418 
Q 2278 3584 2650 3584 
Q 3113 3584 3367 3334 
Q 3622 3084 3622 2631 
Q 3622 2519 3608 2391 
Q 3594 2263 3566 2113 
z
" transform="scale(0.015625)"/>
     </defs>
     <use xlink:href="#DejaVuSans-Oblique-54" transform="translate(0 0.015625)"/>
     <use xlink:href="#DejaVuSans-Oblique-6e" transform="translate(61.083984 -16.390625) scale(0.7)"/>
     <use xlink:href="#DejaVuSans-28" transform="translate(108.183594 0.015625)"/>
     <use xlink:href="#DejaVuSans-Oblique-6a" transform="translate(147.197266 0.015625)"/>
     <use xlink:href="#DejaVuSans-Oblique-3c9" transform="translate(174.980469 0.015625)"/>
     <use xlink:href="#DejaVuSans-29" transform="translate(258.720703 0.015625)"/>
    </g>
   </g>
   <g id="patch_8">
    <path d="M 447.48 43.38 
C 448.196048 43.38 448.882866 43.095511 449.389188 42.589188 
C 449.895511 42.082866 450.18 41.396048 450.18 40.68 
C 450.18 39.963952 449.895511 39.277134 449.389188 38.770812 
C 448.882866 38.264489 448.196048 37.98 447.48 37.98 
C 446.763952 37.98 446.077134 38.264489 445.570812 38.770812 
C 445.064489 39.277134 444.78 39.963952 444.78 40.68 
C 444.78 41.396048 445.064489 42.082866 445.570812 42.589188 
C 446.077134 43.095511 446.763952 43.38 447.48 43.38 
z
" clip-path="url(#pe57f6f536d)" style="stroke: #000000; stroke-width: 2; stroke-linejoin: miter"/>
   </g>
   <g id="patch_9">
    <path d="M 458.28 43.38 
C 458.996048 43.38 459.682866 43.095511 460.189188 42.589188 
C 460.695511 42.082866 460.98 41.396048 460.98 40.68 
C 460.98 39.963952 460.695511 39.277134 460.189188 38.770812 
C 459.682866 38.264489 458.996048 37.98 458.28 37.98 
C 457.563952 37.98 456.877134 38.264489 456.370812 38.770812 
C 455.864489 39.277134 455.58 39.963952 455.58 40.68 
C 455.58 41.396048 455.864489 42.082866 456.370812 42.589188 
C 456.877134 43.095511 457.563952 43.38 458.28 43.38 
z
" clip-path="url(#pe57f6f536d)" style="stroke: #000000; stroke-width: 2; stroke-linejoin: miter"/>
   </g>
   <g id="patch_10">
    <path d="M 469.08 43.38 
C 469.796048 43.38 470.482866 43.095511 470.989188 42.589188 
C 471.495511 42.082866 471.78 41.396048 471.78 40.68 
C 471.78 39.963952 471.495511 39.277134 470.989188 38.770812 
C 470.482866 38.264489 469.796048 37.98 469.08 37.98 
C 468.363952 37.98 467.677134 38.264489 467.170812 38.770812 
C 466.664489 39.277134 466.38 39.963952 466.38 40.68 
C 466.38 41.396048 466.664489 42.082866 467.170812 42.589188 
C 467.677134 43.095511 468.363952 43.38 469.08 43.38 
z
" clip-path="url(#pe57f6f536d)" style="stroke: #000000; stroke-width: 2; stroke-linejoin: miter"/>
   </g>
  </g>
 </g>
 <defs>
  <clipPath id="pe57f6f536d">
   <rect x="0" y="-0" width="664.56" height="81.36"/>
  </clipPath>
 </defs>
</svg>