<?xml version="1.0" encoding="utf-8" standalone="no"?>
<!DOCTYPE svg PUBLIC "-//W3C//DTD SVG 1.1//EN"
  "http://www.w3.org/Graphics/SVG/1.1/DTD/svg11.dtd">
<svg xmlns:xlink="http://www.w3.org/1999/xlink" width="725.782812pt" height="479.63625pt" viewBox="0 0 725.782812 479.63625" xmlns="http://www.w3.org/2000/svg" version="1.1">
 <metadata>
  <rdf:RDF xmlns:dc="http://purl.org/dc/elements/1.1/" xmlns:cc="http://creativecommons.org/ns#" xmlns:rdf="http://www.w3.org/1999/02/22-rdf-syntax-ns#">
   <cc:Work>
    <dc:type rdf:resource="http://purl.org/dc/dcmitype/StillImage"/>
    <dc:date>2022-12-11T20:51:32.720467</dc:date>
    <dc:format>image/svg+xml</dc:format>
    <dc:creator>
     <cc:Agent>
      <dc:title>Matplotlib v3.5.3, https://matplotlib.org/</dc:title>
     </cc:Agent>
    </dc:creator>
   </cc:Work>
  </rdf:RDF>
 </metadata>
 <defs>
  <style type="text/css">*{stroke-linejoin: round; stroke-linecap: butt}</style>
 </defs>
 <g id="figure_1">
  <g id="patch_1">
   <path d="M 0 479.63625 
L 725.782812 479.63625 
L 725.782812 0 
L 0 0 
L 0 479.63625 
z
" style="fill: none"/>
  </g>
  <g id="axes_1">
   <g id="patch_2">
    <path d="M 42.620313 442.08 
L 712.220313 442.08 
L 712.220313 7.2 
L 42.620313 7.2 
z
" style="fill: #ffffff"/>
   </g>
   <g id="matplotlib.axis_1">
    <g id="xtick_1">
     <g id="line2d_1">
      <path d="M 42.620313 442.08 
L 42.620313 7.2 
" clip-path="url(#p960e6e5f74)" style="fill: none; stroke: #b0b0b0; stroke-width: 0.8; stroke-linecap: square"/>
     </g>
     <g id="line2d_2">
      <defs>
       <path id="m22bb37bb34" d="M 0 0 
L 0 3.5 
" style="stroke: #000000; stroke-width: 0.8"/>
      </defs>
      <g>
       <use xlink:href="#m22bb37bb34" x="42.620313" y="442.08" style="stroke: #000000; stroke-width: 0.8"/>
      </g>
     </g>
     <g id="text_1">
      <!-- 0 -->
      <g transform="translate(39.439063 456.678437)scale(0.1 -0.1)">
       <defs>
        <path id="DejaVuSans-30" d="M 2034 4250 
Q 1547 4250 1301 3770 
Q 1056 3291 1056 2328 
Q 1056 1369 1301 889 
Q 1547 409 2034 409 
Q 2525 409 2770 889 
Q 3016 1369 3016 2328 
Q 3016 3291 2770 3770 
Q 2525 4250 2034 4250 
z
M 2034 4750 
Q 2819 4750 3233 4129 
Q 3647 3509 3647 2328 
Q 3647 1150 3233 529 
Q 2819 -91 2034 -91 
Q 1250 -91 836 529 
Q 422 1150 422 2328 
Q 422 3509 836 4129 
Q 1250 4750 2034 4750 
z
" transform="scale(0.015625)"/>
       </defs>
       <use xlink:href="#DejaVuSans-30"/>
      </g>
     </g>
    </g>
    <g id="xtick_2">
     <g id="line2d_3">
      <path d="M 176.540313 442.08 
L 176.540313 7.2 
" clip-path="url(#p960e6e5f74)" style="fill: none; stroke: #b0b0b0; stroke-width: 0.8; stroke-linecap: square"/>
     </g>
     <g id="line2d_4">
      <g>
       <use xlink:href="#m22bb37bb34" x="176.540313" y="442.08" style="stroke: #000000; stroke-width: 0.8"/>
      </g>
     </g>
     <g id="text_2">
      <!-- 2 -->
      <g transform="translate(173.359063 456.678437)scale(0.1 -0.1)">
       <defs>
        <path id="DejaVuSans-32" d="M 1228 531 
L 3431 531 
L 3431 0 
L 469 0 
L 469 531 
Q 828 903 1448 1529 
Q 2069 2156 2228 2338 
Q 2531 2678 2651 2914 
Q 2772 3150 2772 3378 
Q 2772 3750 2511 3984 
Q 2250 4219 1831 4219 
Q 1534 4219 1204 4116 
Q 875 4013 500 3803 
L 500 4441 
Q 881 4594 1212 4672 
Q 1544 4750 1819 4750 
Q 2544 4750 2975 4387 
Q 3406 4025 3406 3419 
Q 3406 3131 3298 2873 
Q 3191 2616 2906 2266 
Q 2828 2175 2409 1742 
Q 1991 1309 1228 531 
z
" transform="scale(0.015625)"/>
       </defs>
       <use xlink:href="#DejaVuSans-32"/>
      </g>
     </g>
    </g>
    <g id="xtick_3">
     <g id="line2d_5">
      <path d="M 310.460313 442.08 
L 310.460313 7.2 
" clip-path="url(#p960e6e5f74)" style="fill: none; stroke: #b0b0b0; stroke-width: 0.8; stroke-linecap: square"/>
     </g>
     <g id="line2d_6">
      <g>
       <use xlink:href="#m22bb37bb34" x="310.460313" y="442.08" style="stroke: #000000; stroke-width: 0.8"/>
      </g>
     </g>
     <g id="text_3">
      <!-- 4 -->
      <g transform="translate(307.279063 456.678437)scale(0.1 -0.1)">
       <defs>
        <path id="DejaVuSans-34" d="M 2419 4116 
L 825 1625 
L 2419 1625 
L 2419 4116 
z
M 2253 4666 
L 3047 4666 
L 3047 1625 
L 3713 1625 
L 3713 1100 
L 3047 1100 
L 3047 0 
L 2419 0 
L 2419 1100 
L 313 1100 
L 313 1709 
L 2253 4666 
z
" transform="scale(0.015625)"/>
       </defs>
       <use xlink:href="#DejaVuSans-34"/>
      </g>
     </g>
    </g>
    <g id="xtick_4">
     <g id="line2d_7">
      <path d="M 444.380313 442.08 
L 444.380313 7.2 
" clip-path="url(#p960e6e5f74)" style="fill: none; stroke: #b0b0b0; stroke-width: 0.8; stroke-linecap: square"/>
     </g>
     <g id="line2d_8">
      <g>
       <use xlink:href="#m22bb37bb34" x="444.380313" y="442.08" style="stroke: #000000; stroke-width: 0.8"/>
      </g>
     </g>
     <g id="text_4">
      <!-- 6 -->
      <g transform="translate(441.199063 456.678437)scale(0.1 -0.1)">
       <defs>
        <path id="DejaVuSans-36" d="M 2113 2584 
Q 1688 2584 1439 2293 
Q 1191 2003 1191 1497 
Q 1191 994 1439 701 
Q 1688 409 2113 409 
Q 2538 409 2786 701 
Q 3034 994 3034 1497 
Q 3034 2003 2786 2293 
Q 2538 2584 2113 2584 
z
M 3366 4563 
L 3366 3988 
Q 3128 4100 2886 4159 
Q 2644 4219 2406 4219 
Q 1781 4219 1451 3797 
Q 1122 3375 1075 2522 
Q 1259 2794 1537 2939 
Q 1816 3084 2150 3084 
Q 2853 3084 3261 2657 
Q 3669 2231 3669 1497 
Q 3669 778 3244 343 
Q 2819 -91 2113 -91 
Q 1303 -91 875 529 
Q 447 1150 447 2328 
Q 447 3434 972 4092 
Q 1497 4750 2381 4750 
Q 2619 4750 2861 4703 
Q 3103 4656 3366 4563 
z
" transform="scale(0.015625)"/>
       </defs>
       <use xlink:href="#DejaVuSans-36"/>
      </g>
     </g>
    </g>
    <g id="xtick_5">
     <g id="line2d_9">
      <path d="M 578.300313 442.08 
L 578.300313 7.2 
" clip-path="url(#p960e6e5f74)" style="fill: none; stroke: #b0b0b0; stroke-width: 0.8; stroke-linecap: square"/>
     </g>
     <g id="line2d_10">
      <g>
       <use xlink:href="#m22bb37bb34" x="578.300313" y="442.08" style="stroke: #000000; stroke-width: 0.8"/>
      </g>
     </g>
     <g id="text_5">
      <!-- 8 -->
      <g transform="translate(575.119063 456.678437)scale(0.1 -0.1)">
       <defs>
        <path id="DejaVuSans-38" d="M 2034 2216 
Q 1584 2216 1326 1975 
Q 1069 1734 1069 1313 
Q 1069 891 1326 650 
Q 1584 409 2034 409 
Q 2484 409 2743 651 
Q 3003 894 3003 1313 
Q 3003 1734 2745 1975 
Q 2488 2216 2034 2216 
z
M 1403 2484 
Q 997 2584 770 2862 
Q 544 3141 544 3541 
Q 544 4100 942 4425 
Q 1341 4750 2034 4750 
Q 2731 4750 3128 4425 
Q 3525 4100 3525 3541 
Q 3525 3141 3298 2862 
Q 3072 2584 2669 2484 
Q 3125 2378 3379 2068 
Q 3634 1759 3634 1313 
Q 3634 634 3220 271 
Q 2806 -91 2034 -91 
Q 1263 -91 848 271 
Q 434 634 434 1313 
Q 434 1759 690 2068 
Q 947 2378 1403 2484 
z
M 1172 3481 
Q 1172 3119 1398 2916 
Q 1625 2713 2034 2713 
Q 2441 2713 2670 2916 
Q 2900 3119 2900 3481 
Q 2900 3844 2670 4047 
Q 2441 4250 2034 4250 
Q 1625 4250 1398 4047 
Q 1172 3844 1172 3481 
z
" transform="scale(0.015625)"/>
       </defs>
       <use xlink:href="#DejaVuSans-38"/>
      </g>
     </g>
    </g>
    <g id="xtick_6">
     <g id="line2d_11">
      <path d="M 712.220313 442.08 
L 712.220313 7.2 
" clip-path="url(#p960e6e5f74)" style="fill: none; stroke: #b0b0b0; stroke-width: 0.8; stroke-linecap: square"/>
     </g>
     <g id="line2d_12">
      <g>
       <use xlink:href="#m22bb37bb34" x="712.220313" y="442.08" style="stroke: #000000; stroke-width: 0.8"/>
      </g>
     </g>
     <g id="text_6">
      <!-- 10 -->
      <g transform="translate(705.857813 456.678437)scale(0.1 -0.1)">
       <defs>
        <path id="DejaVuSans-31" d="M 794 531 
L 1825 531 
L 1825 4091 
L 703 3866 
L 703 4441 
L 1819 4666 
L 2450 4666 
L 2450 531 
L 3481 531 
L 3481 0 
L 794 0 
L 794 531 
z
" transform="scale(0.015625)"/>
       </defs>
       <use xlink:href="#DejaVuSans-31"/>
       <use xlink:href="#DejaVuSans-30" x="63.623047"/>
      </g>
     </g>
    </g>
    <g id="text_7">
     <!-- tijd [us] -->
     <g transform="translate(358.24375 470.356562)scale(0.1 -0.1)">
      <defs>
       <path id="DejaVuSans-74" d="M 1172 4494 
L 1172 3500 
L 2356 3500 
L 2356 3053 
L 1172 3053 
L 1172 1153 
Q 1172 725 1289 603 
Q 1406 481 1766 481 
L 2356 481 
L 2356 0 
L 1766 0 
Q 1100 0 847 248 
Q 594 497 594 1153 
L 594 3053 
L 172 3053 
L 172 3500 
L 594 3500 
L 594 4494 
L 1172 4494 
z
" transform="scale(0.015625)"/>
       <path id="DejaVuSans-69" d="M 603 3500 
L 1178 3500 
L 1178 0 
L 603 0 
L 603 3500 
z
M 603 4863 
L 1178 4863 
L 1178 4134 
L 603 4134 
L 603 4863 
z
" transform="scale(0.015625)"/>
       <path id="DejaVuSans-6a" d="M 603 3500 
L 1178 3500 
L 1178 -63 
Q 1178 -731 923 -1031 
Q 669 -1331 103 -1331 
L -116 -1331 
L -116 -844 
L 38 -844 
Q 366 -844 484 -692 
Q 603 -541 603 -63 
L 603 3500 
z
M 603 4863 
L 1178 4863 
L 1178 4134 
L 603 4134 
L 603 4863 
z
" transform="scale(0.015625)"/>
       <path id="DejaVuSans-64" d="M 2906 2969 
L 2906 4863 
L 3481 4863 
L 3481 0 
L 2906 0 
L 2906 525 
Q 2725 213 2448 61 
Q 2172 -91 1784 -91 
Q 1150 -91 751 415 
Q 353 922 353 1747 
Q 353 2572 751 3078 
Q 1150 3584 1784 3584 
Q 2172 3584 2448 3432 
Q 2725 3281 2906 2969 
z
M 947 1747 
Q 947 1113 1208 752 
Q 1469 391 1925 391 
Q 2381 391 2643 752 
Q 2906 1113 2906 1747 
Q 2906 2381 2643 2742 
Q 2381 3103 1925 3103 
Q 1469 3103 1208 2742 
Q 947 2381 947 1747 
z
" transform="scale(0.015625)"/>
       <path id="DejaVuSans-20" transform="scale(0.015625)"/>
       <path id="DejaVuSans-5b" d="M 550 4863 
L 1875 4863 
L 1875 4416 
L 1125 4416 
L 1125 -397 
L 1875 -397 
L 1875 -844 
L 550 -844 
L 550 4863 
z
" transform="scale(0.015625)"/>
       <path id="DejaVuSans-75" d="M 544 1381 
L 544 3500 
L 1119 3500 
L 1119 1403 
Q 1119 906 1312 657 
Q 1506 409 1894 409 
Q 2359 409 2629 706 
Q 2900 1003 2900 1516 
L 2900 3500 
L 3475 3500 
L 3475 0 
L 2900 0 
L 2900 538 
Q 2691 219 2414 64 
Q 2138 -91 1772 -91 
Q 1169 -91 856 284 
Q 544 659 544 1381 
z
M 1991 3584 
L 1991 3584 
z
" transform="scale(0.015625)"/>
       <path id="DejaVuSans-73" d="M 2834 3397 
L 2834 2853 
Q 2591 2978 2328 3040 
Q 2066 3103 1784 3103 
Q 1356 3103 1142 2972 
Q 928 2841 928 2578 
Q 928 2378 1081 2264 
Q 1234 2150 1697 2047 
L 1894 2003 
Q 2506 1872 2764 1633 
Q 3022 1394 3022 966 
Q 3022 478 2636 193 
Q 2250 -91 1575 -91 
Q 1294 -91 989 -36 
Q 684 19 347 128 
L 347 722 
Q 666 556 975 473 
Q 1284 391 1588 391 
Q 1994 391 2212 530 
Q 2431 669 2431 922 
Q 2431 1156 2273 1281 
Q 2116 1406 1581 1522 
L 1381 1569 
Q 847 1681 609 1914 
Q 372 2147 372 2553 
Q 372 3047 722 3315 
Q 1072 3584 1716 3584 
Q 2034 3584 2315 3537 
Q 2597 3491 2834 3397 
z
" transform="scale(0.015625)"/>
       <path id="DejaVuSans-5d" d="M 1947 4863 
L 1947 -844 
L 622 -844 
L 622 -397 
L 1369 -397 
L 1369 4416 
L 622 4416 
L 622 4863 
L 1947 4863 
z
" transform="scale(0.015625)"/>
      </defs>
      <use xlink:href="#DejaVuSans-74"/>
      <use xlink:href="#DejaVuSans-69" x="39.208984"/>
      <use xlink:href="#DejaVuSans-6a" x="66.992188"/>
      <use xlink:href="#DejaVuSans-64" x="94.775391"/>
      <use xlink:href="#DejaVuSans-20" x="158.251953"/>
      <use xlink:href="#DejaVuSans-5b" x="190.039062"/>
      <use xlink:href="#DejaVuSans-75" x="229.052734"/>
      <use xlink:href="#DejaVuSans-73" x="292.431641"/>
      <use xlink:href="#DejaVuSans-5d" x="344.53125"/>
     </g>
    </g>
   </g>
   <g id="matplotlib.axis_2">
    <g id="ytick_1">
     <g id="line2d_13">
      <path d="M 42.620313 434.900735 
L 712.220313 434.900735 
" clip-path="url(#p960e6e5f74)" style="fill: none; stroke: #b0b0b0; stroke-width: 0.8; stroke-linecap: square"/>
     </g>
     <g id="line2d_14">
      <defs>
       <path id="mae8e622742" d="M 0 0 
L -3.5 0 
" style="stroke: #000000; stroke-width: 0.8"/>
      </defs>
      <g>
       <use xlink:href="#mae8e622742" x="42.620313" y="434.900735" style="stroke: #000000; stroke-width: 0.8"/>
      </g>
     </g>
     <g id="text_8">
      <!-- −5 -->
      <g transform="translate(20.878125 438.699954)scale(0.1 -0.1)">
       <defs>
        <path id="DejaVuSans-2212" d="M 678 2272 
L 4684 2272 
L 4684 1741 
L 678 1741 
L 678 2272 
z
" transform="scale(0.015625)"/>
        <path id="DejaVuSans-35" d="M 691 4666 
L 3169 4666 
L 3169 4134 
L 1269 4134 
L 1269 2991 
Q 1406 3038 1543 3061 
Q 1681 3084 1819 3084 
Q 2600 3084 3056 2656 
Q 3513 2228 3513 1497 
Q 3513 744 3044 326 
Q 2575 -91 1722 -91 
Q 1428 -91 1123 -41 
Q 819 9 494 109 
L 494 744 
Q 775 591 1075 516 
Q 1375 441 1709 441 
Q 2250 441 2565 725 
Q 2881 1009 2881 1497 
Q 2881 1984 2565 2268 
Q 2250 2553 1709 2553 
Q 1456 2553 1204 2497 
Q 953 2441 691 2322 
L 691 4666 
z
" transform="scale(0.015625)"/>
       </defs>
       <use xlink:href="#DejaVuSans-2212"/>
       <use xlink:href="#DejaVuSans-35" x="83.789062"/>
      </g>
     </g>
    </g>
    <g id="ytick_2">
     <g id="line2d_15">
      <path d="M 42.620313 356.225687 
L 712.220313 356.225687 
" clip-path="url(#p960e6e5f74)" style="fill: none; stroke: #b0b0b0; stroke-width: 0.8; stroke-linecap: square"/>
     </g>
     <g id="line2d_16">
      <g>
       <use xlink:href="#mae8e622742" x="42.620313" y="356.225687" style="stroke: #000000; stroke-width: 0.8"/>
      </g>
     </g>
     <g id="text_9">
      <!-- 0 -->
      <g transform="translate(29.257813 360.024906)scale(0.1 -0.1)">
       <use xlink:href="#DejaVuSans-30"/>
      </g>
     </g>
    </g>
    <g id="ytick_3">
     <g id="line2d_17">
      <path d="M 42.620313 277.55064 
L 712.220313 277.55064 
" clip-path="url(#p960e6e5f74)" style="fill: none; stroke: #b0b0b0; stroke-width: 0.8; stroke-linecap: square"/>
     </g>
     <g id="line2d_18">
      <g>
       <use xlink:href="#mae8e622742" x="42.620313" y="277.55064" style="stroke: #000000; stroke-width: 0.8"/>
      </g>
     </g>
     <g id="text_10">
      <!-- 5 -->
      <g transform="translate(29.257813 281.349859)scale(0.1 -0.1)">
       <use xlink:href="#DejaVuSans-35"/>
      </g>
     </g>
    </g>
    <g id="ytick_4">
     <g id="line2d_19">
      <path d="M 42.620313 198.875592 
L 712.220313 198.875592 
" clip-path="url(#p960e6e5f74)" style="fill: none; stroke: #b0b0b0; stroke-width: 0.8; stroke-linecap: square"/>
     </g>
     <g id="line2d_20">
      <g>
       <use xlink:href="#mae8e622742" x="42.620313" y="198.875592" style="stroke: #000000; stroke-width: 0.8"/>
      </g>
     </g>
     <g id="text_11">
      <!-- 10 -->
      <g transform="translate(22.895313 202.674811)scale(0.1 -0.1)">
       <use xlink:href="#DejaVuSans-31"/>
       <use xlink:href="#DejaVuSans-30" x="63.623047"/>
      </g>
     </g>
    </g>
    <g id="ytick_5">
     <g id="line2d_21">
      <path d="M 42.620313 120.200545 
L 712.220313 120.200545 
" clip-path="url(#p960e6e5f74)" style="fill: none; stroke: #b0b0b0; stroke-width: 0.8; stroke-linecap: square"/>
     </g>
     <g id="line2d_22">
      <g>
       <use xlink:href="#mae8e622742" x="42.620313" y="120.200545" style="stroke: #000000; stroke-width: 0.8"/>
      </g>
     </g>
     <g id="text_12">
      <!-- 15 -->
      <g transform="translate(22.895313 123.999764)scale(0.1 -0.1)">
       <use xlink:href="#DejaVuSans-31"/>
       <use xlink:href="#DejaVuSans-35" x="63.623047"/>
      </g>
     </g>
    </g>
    <g id="ytick_6">
     <g id="line2d_23">
      <path d="M 42.620313 41.525497 
L 712.220313 41.525497 
" clip-path="url(#p960e6e5f74)" style="fill: none; stroke: #b0b0b0; stroke-width: 0.8; stroke-linecap: square"/>
     </g>
     <g id="line2d_24">
      <g>
       <use xlink:href="#mae8e622742" x="42.620313" y="41.525497" style="stroke: #000000; stroke-width: 0.8"/>
      </g>
     </g>
     <g id="text_13">
      <!-- 20 -->
      <g transform="translate(22.895313 45.324716)scale(0.1 -0.1)">
       <use xlink:href="#DejaVuSans-32"/>
       <use xlink:href="#DejaVuSans-30" x="63.623047"/>
      </g>
     </g>
    </g>
    <g id="text_14">
     <!-- Voltage [V] -->
     <g transform="translate(14.798438 252.307187)rotate(-90)scale(0.1 -0.1)">
      <defs>
       <path id="DejaVuSans-56" d="M 1831 0 
L 50 4666 
L 709 4666 
L 2188 738 
L 3669 4666 
L 4325 4666 
L 2547 0 
L 1831 0 
z
" transform="scale(0.015625)"/>
       <path id="DejaVuSans-6f" d="M 1959 3097 
Q 1497 3097 1228 2736 
Q 959 2375 959 1747 
Q 959 1119 1226 758 
Q 1494 397 1959 397 
Q 2419 397 2687 759 
Q 2956 1122 2956 1747 
Q 2956 2369 2687 2733 
Q 2419 3097 1959 3097 
z
M 1959 3584 
Q 2709 3584 3137 3096 
Q 3566 2609 3566 1747 
Q 3566 888 3137 398 
Q 2709 -91 1959 -91 
Q 1206 -91 779 398 
Q 353 888 353 1747 
Q 353 2609 779 3096 
Q 1206 3584 1959 3584 
z
" transform="scale(0.015625)"/>
       <path id="DejaVuSans-6c" d="M 603 4863 
L 1178 4863 
L 1178 0 
L 603 0 
L 603 4863 
z
" transform="scale(0.015625)"/>
       <path id="DejaVuSans-61" d="M 2194 1759 
Q 1497 1759 1228 1600 
Q 959 1441 959 1056 
Q 959 750 1161 570 
Q 1363 391 1709 391 
Q 2188 391 2477 730 
Q 2766 1069 2766 1631 
L 2766 1759 
L 2194 1759 
z
M 3341 1997 
L 3341 0 
L 2766 0 
L 2766 531 
Q 2569 213 2275 61 
Q 1981 -91 1556 -91 
Q 1019 -91 701 211 
Q 384 513 384 1019 
Q 384 1609 779 1909 
Q 1175 2209 1959 2209 
L 2766 2209 
L 2766 2266 
Q 2766 2663 2505 2880 
Q 2244 3097 1772 3097 
Q 1472 3097 1187 3025 
Q 903 2953 641 2809 
L 641 3341 
Q 956 3463 1253 3523 
Q 1550 3584 1831 3584 
Q 2591 3584 2966 3190 
Q 3341 2797 3341 1997 
z
" transform="scale(0.015625)"/>
       <path id="DejaVuSans-67" d="M 2906 1791 
Q 2906 2416 2648 2759 
Q 2391 3103 1925 3103 
Q 1463 3103 1205 2759 
Q 947 2416 947 1791 
Q 947 1169 1205 825 
Q 1463 481 1925 481 
Q 2391 481 2648 825 
Q 2906 1169 2906 1791 
z
M 3481 434 
Q 3481 -459 3084 -895 
Q 2688 -1331 1869 -1331 
Q 1566 -1331 1297 -1286 
Q 1028 -1241 775 -1147 
L 775 -588 
Q 1028 -725 1275 -790 
Q 1522 -856 1778 -856 
Q 2344 -856 2625 -561 
Q 2906 -266 2906 331 
L 2906 616 
Q 2728 306 2450 153 
Q 2172 0 1784 0 
Q 1141 0 747 490 
Q 353 981 353 1791 
Q 353 2603 747 3093 
Q 1141 3584 1784 3584 
Q 2172 3584 2450 3431 
Q 2728 3278 2906 2969 
L 2906 3500 
L 3481 3500 
L 3481 434 
z
" transform="scale(0.015625)"/>
       <path id="DejaVuSans-65" d="M 3597 1894 
L 3597 1613 
L 953 1613 
Q 991 1019 1311 708 
Q 1631 397 2203 397 
Q 2534 397 2845 478 
Q 3156 559 3463 722 
L 3463 178 
Q 3153 47 2828 -22 
Q 2503 -91 2169 -91 
Q 1331 -91 842 396 
Q 353 884 353 1716 
Q 353 2575 817 3079 
Q 1281 3584 2069 3584 
Q 2775 3584 3186 3129 
Q 3597 2675 3597 1894 
z
M 3022 2063 
Q 3016 2534 2758 2815 
Q 2500 3097 2075 3097 
Q 1594 3097 1305 2825 
Q 1016 2553 972 2059 
L 3022 2063 
z
" transform="scale(0.015625)"/>
      </defs>
      <use xlink:href="#DejaVuSans-56"/>
      <use xlink:href="#DejaVuSans-6f" x="60.658203"/>
      <use xlink:href="#DejaVuSans-6c" x="121.839844"/>
      <use xlink:href="#DejaVuSans-74" x="149.623047"/>
      <use xlink:href="#DejaVuSans-61" x="188.832031"/>
      <use xlink:href="#DejaVuSans-67" x="250.111328"/>
      <use xlink:href="#DejaVuSans-65" x="313.587891"/>
      <use xlink:href="#DejaVuSans-20" x="375.111328"/>
      <use xlink:href="#DejaVuSans-5b" x="406.898438"/>
      <use xlink:href="#DejaVuSans-56" x="445.912109"/>
      <use xlink:href="#DejaVuSans-5d" x="514.320312"/>
     </g>
    </g>
   </g>
   <g id="line2d_25">
    <path d="M 42.620313 183.140583 
L 49.199534 183.249101 
L 49.44059 183.569021 
L 49.721822 184.389389 
L 50.083406 186.244543 
L 50.552126 189.956562 
L 51.168158 196.779486 
L 52.05203 209.320941 
L 54.516158 245.592078 
L 55.172366 251.60799 
L 55.641086 254.132985 
L 55.962494 254.88036 
L 56.149982 254.920304 
L 56.324078 254.687717 
L 56.565134 253.932499 
L 56.913326 251.981447 
L 57.47579 247.280836 
L 58.81499 233.949938 
L 60.649694 213.283207 
L 65.966318 152.031 
L 67.439438 138.29115 
L 68.65811 128.882124 
L 69.702686 122.438509 
L 70.59995 118.194293 
L 71.363294 115.562616 
L 72.019502 114.034202 
L 72.555182 113.292573 
L 72.997118 113.022387 
L 73.385486 113.038168 
L 73.773854 113.288419 
L 74.229182 113.876203 
L 74.764862 114.96625 
L 75.407678 116.82577 
L 76.15763 119.721466 
L 77.041502 124.071912 
L 78.086078 130.393367 
L 79.344926 139.457785 
L 80.951966 152.772876 
L 83.630366 177.171191 
L 86.362334 201.349891 
L 87.982766 213.783403 
L 89.295182 222.235658 
L 90.406718 228.038542 
L 91.933406 235.597851 
L 92.482478 240.660264 
L 93.219038 249.755864 
L 94.424318 267.915992 
L 95.884046 289.028145 
L 96.607214 296.543106 
L 97.129502 299.957188 
L 97.491086 301.12242 
L 97.71875 301.299128 
L 97.879454 301.149911 
L 98.093726 300.585252 
L 98.38835 299.10599 
L 98.776718 295.896209 
L 99.312398 289.365622 
L 100.477502 271.689424 
L 102.111326 243.416202 
L 105.070958 187.449782 
L 107.521694 143.065053 
L 109.115342 118.075659 
L 110.400974 101.196037 
L 111.499118 89.52998 
L 112.436558 81.77361 
L 113.240078 76.825416 
L 113.92307 73.88592 
L 114.485534 72.347827 
L 114.92747 71.698821 
L 115.275662 71.53259 
L 115.570286 71.627808 
L 115.905086 71.996106 
L 116.320238 72.832344 
L 116.829134 74.420078 
L 117.445166 77.147989 
L 118.168334 81.429463 
L 119.025422 87.919563 
L 120.043214 97.438252 
L 121.261886 111.064192 
L 122.788574 130.802395 
L 125.10539 164.042152 
L 128.426606 211.282563 
L 130.06043 231.338081 
L 131.372846 244.885381 
L 132.484382 254.213343 
L 134.372654 269.063554 
L 135.14939 279.061719 
L 136.55555 300.709884 
L 137.787614 318.191654 
L 138.49739 325.412505 
L 139.006286 328.616237 
L 139.354478 329.664894 
L 139.56875 329.799965 
L 139.729454 329.631331 
L 139.957118 328.980213 
L 140.265134 327.300723 
L 140.666894 323.686093 
L 141.17579 316.854309 
L 142.099838 300.654402 
L 143.572958 270.945245 
L 145.702286 222.982468 
L 149.54579 136.167193 
L 151.15283 105.173728 
L 152.451854 84.148815 
L 153.549998 69.726055 
L 154.50083 59.969148 
L 155.317742 53.72214 
L 156.000734 50.056207 
L 156.563198 48.113435 
L 157.005134 47.269489 
L 157.339934 47.02826 
L 157.607774 47.080787 
L 157.902398 47.388663 
L 158.263982 48.120964 
L 158.71931 49.590401 
L 159.281774 52.228465 
L 159.951374 56.513534 
L 160.754894 63.212056 
L 161.692334 73.007587 
L 162.817262 87.252498 
L 164.183246 107.551292 
L 166.01795 138.417618 
L 171.294398 229.182297 
L 172.767518 249.746799 
L 173.98619 263.848018 
L 175.030766 273.524917 
L 176.19587 283.90925 
L 176.959214 293.61773 
L 178.191278 312.620599 
L 179.651006 334.235913 
L 180.387566 342.104731 
L 180.909854 345.625243 
L 181.271438 346.842678 
L 181.499102 347.039517 
L 181.659806 346.896855 
L 181.874078 346.328524 
L 182.168702 344.81307 
L 182.55707 341.46535 
L 183.039182 335.148301 
L 183.748958 322.38721 
L 185.088158 293.989797 
L 186.882686 250.819611 
L 192.453758 113.390286 
L 193.900094 84.843678 
L 195.105374 65.213283 
L 196.136558 51.843215 
L 197.02043 43.088323 
L 197.770382 37.696865 
L 198.399806 34.641894 
L 198.908702 33.157877 
L 199.29707 32.617104 
L 199.578302 32.54349 
L 199.846142 32.719971 
L 200.16755 33.246597 
L 200.56931 34.382071 
L 201.078206 36.567463 
L 201.694238 40.298668 
L 202.430798 46.25428 
L 203.301278 55.258147 
L 204.31907 68.232817 
L 205.551134 86.96807 
L 207.104606 114.245051 
L 209.515166 161.085515 
L 212.635502 220.870813 
L 214.269326 247.968803 
L 215.581742 266.28564 
L 216.693278 278.907663 
L 218.84939 301.687171 
L 220.001102 319.443016 
L 221.648318 344.352258 
L 222.384878 352.318061 
L 222.66611 353.815625 
L 222.853598 353.888476 
L 223.188398 353.681902 
L 223.576766 353.199983 
L 223.87139 352.437496 
L 224.179406 350.894912 
L 224.554382 347.726237 
L 225.023102 341.701748 
L 225.665918 330.204393 
L 226.95155 302.554264 
L 228.652334 260.866803 
L 234.933182 102.067636 
L 236.299166 75.456226 
L 237.450878 57.090832 
L 238.441886 44.626296 
L 239.285582 36.605952 
L 240.00875 31.692112 
L 240.597998 29.045785 
L 241.066718 27.813842 
L 241.428302 27.39034 
L 241.696142 27.370717 
L 241.963982 27.599594 
L 242.298782 28.232036 
L 242.713934 29.543858 
L 243.236222 32.007557 
L 243.865646 36.144803 
L 244.615598 42.666272 
L 245.49947 52.426573 
L 246.544046 66.568847 
L 247.802894 86.802118 
L 249.409934 116.464993 
L 252.155294 172.070391 
L 254.80691 224.070709 
L 256.41395 251.407728 
L 257.726366 270.145432 
L 258.837902 282.999928 
L 260.886878 305.053715 
L 262.03859 322.839898 
L 263.699198 347.993268 
L 264.275054 353.908266 
L 264.462542 354.114047 
L 264.770558 354.006416 
L 265.373198 353.567751 
L 265.72139 353.043824 
L 266.002622 352.183789 
L 266.32403 350.352447 
L 266.72579 346.57663 
L 267.221294 339.611973 
L 267.971246 325.373008 
L 269.350622 294.715427 
L 271.21211 247.912523 
L 276.341246 116.260796 
L 277.827758 85.096776 
L 279.059822 63.657506 
L 280.104398 49.081016 
L 281.001662 39.417427 
L 281.778398 33.279336 
L 282.421214 29.796127 
L 282.943502 28.038281 
L 283.345262 27.33949 
L 283.639886 27.186307 
L 283.894334 27.297047 
L 284.188958 27.704499 
L 284.563934 28.651876 
L 285.032654 30.500665 
L 285.60851 33.758107 
L 286.304894 39.095668 
L 287.121806 47.200069 
L 288.08603 59.116233 
L 289.237742 76.275112 
L 290.657294 100.96645 
L 292.612526 139.223555 
L 297.165806 229.542103 
L 298.719278 255.277824 
L 299.991518 272.849037 
L 301.062878 284.773746 
L 302.75027 302.374978 
L 303.741278 317.030662 
L 305.910782 349.784081 
L 306.36611 353.971871 
L 306.553598 354.112424 
L 306.915182 353.964103 
L 307.491038 353.51287 
L 307.825838 352.963596 
L 308.10707 352.031079 
L 308.428478 350.089111 
L 308.830238 346.167951 
L 309.339134 338.804272 
L 310.142654 323.251985 
L 311.548814 291.602146 
L 313.477262 242.680507 
L 318.204638 120.828519 
L 319.731326 88.159729 
L 320.990174 65.712661 
L 322.061534 50.342829 
L 322.985582 40.091719 
L 323.77571 33.640332 
L 324.431918 29.941852 
L 324.967598 28.048133 
L 325.38275 27.275877 
L 325.690766 27.093364 
L 325.945214 27.191814 
L 326.239838 27.585322 
L 326.614814 28.515435 
L 327.083534 30.343474 
L 327.65939 33.576809 
L 328.342382 38.771336 
L 329.159294 46.816045 
L 330.123518 58.670623 
L 331.27523 75.769871 
L 332.694782 100.410347 
L 334.636622 138.368283 
L 339.270254 230.275639 
L 340.810334 255.717117 
L 342.069182 273.061283 
L 343.140542 284.960026 
L 344.827934 302.54524 
L 345.818942 317.190917 
L 347.988446 349.878227 
L 348.430382 353.957736 
L 348.61787 354.112338 
L 348.966062 353.974318 
L 349.541918 353.534711 
L 349.876718 353.008813 
L 350.15795 352.118876 
L 350.479358 350.241862 
L 350.881118 346.406739 
L 351.390014 339.147384 
L 352.16675 324.224854 
L 353.559518 293.023921 
L 355.44779 245.285322 
L 360.362654 118.7503 
L 361.87595 86.645791 
L 363.121406 64.67411 
L 364.179374 49.678163 
L 365.09003 39.702403 
L 365.866766 33.43687 
L 366.522974 29.789104 
L 367.058654 27.937276 
L 367.473806 27.197603 
L 367.781822 27.039248 
L 368.03627 27.157603 
L 368.330894 27.574062 
L 368.70587 28.53317 
L 369.17459 30.396984 
L 369.750446 33.673331 
L 370.44683 39.034211 
L 371.263742 47.166277 
L 372.227966 59.114987 
L 373.379678 76.311707 
L 374.79923 101.046644 
L 376.767854 139.627766 
L 381.280958 229.259019 
L 382.83443 255.068442 
L 384.10667 272.706336 
L 385.191422 284.821492 
L 386.932382 303.0237 
L 387.950174 318.162482 
L 390.012542 349.305642 
L 390.494654 353.938694 
L 390.682142 354.112373 
L 391.016942 353.985283 
L 391.60619 353.542811 
L 391.954382 352.995904 
L 392.235614 352.094593 
L 392.557022 350.200321 
L 392.958782 346.342654 
L 393.467678 339.055734 
L 394.244414 324.107466 
L 395.637182 292.878398 
L 397.538846 244.760395 
L 402.413534 119.191014 
L 403.92683 87.01044 
L 405.172286 64.964391 
L 406.230254 49.899192 
L 407.14091 39.860842 
L 407.917646 33.540698 
L 408.573854 29.846504 
L 409.109534 27.956908 
L 409.524686 27.188211 
L 409.832702 27.008531 
L 410.08715 27.109441 
L 410.381774 27.505926 
L 410.75675 28.440017 
L 411.22547 30.273305 
L 411.801326 33.513471 
L 412.484318 38.716571 
L 413.30123 46.772078 
L 414.265454 58.639939 
L 415.417166 75.755439 
L 416.836718 100.415842 
L 418.778558 138.399362 
L 423.398798 230.111083 
L 424.938878 255.595171 
L 426.197726 272.977775 
L 427.269086 284.910521 
L 428.996654 302.938014 
L 430.001054 317.833129 
L 432.103598 349.534083 
L 432.572318 353.952636 
L 432.759806 354.111988 
L 433.107998 353.975018 
L 433.683854 353.537092 
L 434.032046 352.984392 
L 434.313278 352.072798 
L 434.634686 350.16298 
L 435.036446 346.284953 
L 435.545342 338.973199 
L 436.33547 323.724728 
L 437.74163 292.111433 
L 439.656686 243.555358 
L 444.43763 120.282363 
L 445.964318 87.669128 
L 447.223166 65.285255 
L 448.294526 49.979465 
L 449.205182 39.916689 
L 449.981918 33.57532 
L 450.638126 29.863139 
L 451.173806 27.958952 
L 451.588958 27.179066 
L 451.896974 26.991179 
L 452.151422 27.085384 
L 452.446046 27.474201 
L 452.821022 28.398705 
L 453.289742 30.220319 
L 453.865598 33.446686 
L 454.54859 38.634317 
L 455.365502 46.672788 
L 456.329726 58.522879 
L 457.481438 75.620865 
L 458.887598 100.018235 
L 460.829438 137.967515 
L 465.489854 230.458242 
L 467.029934 255.893399 
L 468.288782 273.225765 
L 469.360142 285.110223 
L 471.047534 302.65876 
L 472.038542 317.279217 
L 474.208046 349.915277 
L 474.649982 353.964539 
L 474.83747 354.111584 
L 475.199054 353.964903 
L 475.77491 353.51681 
L 476.10971 352.973655 
L 476.390942 352.052385 
L 476.71235 350.127998 
L 477.11411 346.230866 
L 477.623006 338.895859 
L 478.413134 323.627898 
L 479.819294 291.996537 
L 481.73435 243.424941 
L 486.515294 120.160922 
L 488.041982 87.563496 
L 489.30083 65.196303 
L 490.37219 49.906763 
L 491.282846 39.858921 
L 492.059582 33.530872 
L 492.71579 29.830215 
L 493.25147 27.935533 
L 493.666622 27.163032 
L 493.974638 26.980618 
L 494.229086 27.079329 
L 494.52371 27.473338 
L 494.898686 28.404397 
L 495.367406 30.234091 
L 495.943262 33.470162 
L 496.626254 38.668894 
L 497.443166 46.719921 
L 498.40739 58.583601 
L 499.559102 75.695751 
L 500.978654 100.354544 
L 502.920494 138.340294 
L 507.554126 230.313509 
L 509.094206 255.772787 
L 510.353054 273.1289 
L 511.424414 285.035617 
L 513.13859 302.904417 
L 514.14299 317.780187 
L 516.258926 349.647915 
L 516.727646 353.975121 
L 516.915134 354.11115 
L 517.29011 353.954808 
L 517.852574 353.511683 
L 518.187374 352.963327 
L 518.468606 352.032708 
L 518.790014 350.094306 
L 519.191774 346.178789 
L 519.70067 338.821452 
L 520.490798 323.535436 
L 521.896958 291.888166 
L 523.812014 243.303399 
L 528.579566 120.359036 
L 530.106254 87.729724 
L 531.365102 65.330686 
L 532.436462 50.011094 
L 533.347118 39.936229 
L 534.123854 33.584472 
L 534.780062 29.863571 
L 535.315742 27.952363 
L 535.730894 27.167125 
L 536.03891 26.975333 
L 536.293358 27.066359 
L 536.587982 27.451554 
L 536.962958 28.371551 
L 537.431678 30.18771 
L 538.007534 33.407682 
L 538.690526 38.588221 
L 539.507438 46.618995 
L 540.471662 58.461226 
L 541.623374 75.551728 
L 543.029534 99.942986 
L 544.957982 137.61741 
L 549.658574 230.875407 
L 551.185262 256.048543 
L 552.44411 273.356017 
L 553.51547 285.216351 
L 555.18947 302.611095 
L 556.180478 317.214758 
L 558.349982 349.861835 
L 558.80531 353.984775 
L 558.992798 354.110673 
L 559.367774 353.952309 
L 559.930238 353.506689 
L 560.265038 352.953195 
L 560.54627 352.01339 
L 560.867678 350.061287 
L 561.28283 345.967553 
L 561.791726 338.520521 
L 562.608638 322.605405 
L 564.02819 290.495914 
L 565.983422 240.709395 
L 570.563486 122.423642 
L 572.103566 89.217406 
L 573.375806 66.332134 
L 574.447166 50.801049 
L 575.371214 40.404826 
L 576.161342 33.827197 
L 576.830942 29.961888 
L 577.380014 27.972559 
L 577.795166 27.174259 
L 578.103182 26.972841 
L 578.35763 27.055973 
L 578.638862 27.408535 
L 579.000446 28.259996 
L 579.455774 29.95984 
L 580.018238 33.003248 
L 580.687838 37.938613 
L 581.491358 45.645314 
L 582.44219 57.08384 
L 583.567118 73.484737 
L 584.946494 97.072324 
L 586.79459 132.825147 
L 591.963902 234.960479 
L 593.450414 258.907505 
L 594.682478 275.366147 
L 595.727054 286.546092 
L 597.093038 300.422037 
L 597.990302 313.098165 
L 600.668702 352.632679 
L 600.909758 354.03965 
L 601.097246 354.105526 
L 601.552574 353.885594 
L 602.06147 353.436402 
L 602.382878 352.842781 
L 602.66411 351.804224 
L 602.99891 349.599042 
L 603.427454 345.084174 
L 603.963134 336.80495 
L 604.887182 318.25128 
L 606.360302 284.205998 
L 608.476238 229.563277 
L 612.359918 128.926835 
L 613.966958 93.414575 
L 615.265982 69.340434 
L 616.364126 52.838999 
L 617.314958 41.687477 
L 618.118478 34.656507 
L 618.80147 30.450791 
L 619.363934 28.222033 
L 619.80587 27.253928 
L 620.14067 26.977285 
L 620.395118 27.028711 
L 620.67635 27.346509 
L 621.024542 28.115964 
L 621.466478 29.683097 
L 622.01555 32.530176 
L 622.671758 37.197509 
L 623.448494 44.413665 
L 624.372542 55.211549 
L 625.470686 70.82808 
L 626.809886 93.272954 
L 628.564238 126.726184 
L 634.416542 241.448522 
L 635.836094 263.395379 
L 637.01459 278.384186 
L 638.032382 288.680974 
L 638.996606 298.34825 
L 639.82691 309.519313 
L 641.608046 337.603707 
L 642.612446 351.214855 
L 642.960638 354.002083 
L 643.148126 354.109569 
L 643.549886 353.93192 
L 644.098958 353.480984 
L 644.433758 352.900371 
L 644.71499 351.912886 
L 645.04979 349.783762 
L 645.464942 345.537242 
L 645.98723 337.679453 
L 646.85771 320.449552 
L 648.304046 287.37358 
L 650.33963 235.155481 
L 654.55811 125.97789 
L 656.138366 91.440293 
L 657.423998 67.936941 
L 658.50875 51.899383 
L 659.44619 41.106299 
L 660.24971 34.235951 
L 660.91931 30.233014 
L 661.468382 28.130461 
L 661.910318 27.210645 
L 662.231726 26.972458 
L 662.486174 27.039494 
L 662.767406 27.374412 
L 663.12899 28.203461 
L 663.584318 29.87561 
L 664.146782 32.885783 
L 664.816382 37.783275 
L 665.60651 45.304413 
L 666.54395 56.487239 
L 667.655486 72.562696 
L 669.02147 95.764651 
L 670.842782 130.838146 
L 676.226366 236.965749 
L 677.686094 260.207319 
L 678.904766 276.265085 
L 679.949342 287.254117 
L 681.168014 299.53096 
L 682.038494 311.591449 
L 684.904382 353.437619 
L 685.105262 354.08861 
L 685.306142 354.087651 
L 685.868606 353.768756 
L 686.310542 353.291165 
L 686.605166 352.626308 
L 686.89979 351.329544 
L 687.261374 348.571399 
L 687.716702 343.160678 
L 688.30595 333.162841 
L 689.471054 308.634162 
L 691.078094 269.952253 
L 693.823454 197.45735 
L 696.461678 129.99909 
L 698.08211 94.057505 
L 699.381134 69.870447 
L 700.49267 53.08173 
L 701.443502 41.872125 
L 702.260414 34.691155 
L 702.943406 30.473551 
L 703.50587 28.234971 
L 703.947806 27.259178 
L 704.282606 26.97675 
L 704.537054 27.023812 
L 704.818286 27.336826 
L 705.166478 28.10043 
L 705.608414 29.66027 
L 706.157486 32.498542 
L 706.813694 37.155786 
L 707.59043 44.360731 
L 708.514478 55.146487 
L 709.612622 70.750567 
L 710.951822 93.183509 
L 712.220313 117.023852 
L 712.220313 117.023852 
" clip-path="url(#p960e6e5f74)" style="fill: none; stroke: #1f77b4; stroke-width: 1.5; stroke-linecap: square"/>
   </g>
   <g id="line2d_26">
    <path d="M 42.620313 379.828202 
L 45.744398 360.718506 
L 47.351438 352.247058 
L 48.63707 346.587731 
L 49.721822 342.755651 
L 50.64587 340.253748 
L 51.435998 338.709751 
L 52.105598 337.848291 
L 52.681454 337.442681 
L 53.19035 337.34494 
L 53.672462 337.478579 
L 54.181358 337.857668 
L 54.757214 338.578671 
L 55.426814 339.799921 
L 56.20355 341.716569 
L 57.100814 344.566232 
L 58.14539 348.675983 
L 59.377454 354.486962 
L 60.89075 362.772091 
L 63.03347 375.877447 
L 66.91715 399.704516 
L 68.497406 407.932677 
L 69.769646 413.443847 
L 70.841006 417.153356 
L 71.751662 419.559862 
L 72.528398 421.034034 
L 73.197998 421.860911 
L 73.760462 422.231168 
L 74.255966 422.309656 
L 74.738078 422.162851 
L 75.260366 421.756329 
L 75.849614 420.991809 
L 76.519214 419.736805 
L 77.29595 417.782522 
L 78.193214 414.892049 
L 79.23779 410.739309 
L 80.483246 404.816557 
L 82.009934 396.404068 
L 84.219614 382.834368 
L 87.889022 360.316655 
L 89.48267 351.96956 
L 90.75491 346.413329 
L 91.82627 342.660195 
L 92.750318 340.182786 
L 93.540446 338.660823 
L 94.210046 337.818581 
L 94.785902 337.429743 
L 95.294798 337.346907 
L 95.77691 337.494658 
L 96.299198 337.902199 
L 96.888446 338.667853 
L 97.558046 339.924113 
L 98.334782 341.879796 
L 99.232046 344.771786 
L 100.276622 348.926124 
L 101.522078 354.850491 
L 103.048766 363.264453 
L 105.258446 376.835163 
L 108.927854 399.351438 
L 110.521502 407.696778 
L 111.793742 413.2512 
L 112.865102 417.002581 
L 113.78915 419.478345 
L 114.579278 420.99883 
L 115.248878 421.839782 
L 115.824734 422.227496 
L 116.33363 422.309331 
L 116.815742 422.160634 
L 117.33803 421.752075 
L 117.927278 420.985289 
L 118.596878 419.727772 
L 119.373614 417.770689 
L 120.270878 414.877181 
L 121.315454 410.721247 
L 122.56091 404.795266 
L 124.087598 396.379831 
L 126.297278 382.808113 
L 129.966686 360.293278 
L 131.560334 351.949694 
L 132.832574 346.397081 
L 133.903934 342.647453 
L 134.827982 340.173334 
L 135.61811 338.654328 
L 136.28771 337.814665 
L 136.850174 337.433514 
L 137.35907 337.346225 
L 137.841182 337.489759 
L 138.36347 337.892761 
L 138.952718 338.653364 
L 139.622318 339.904023 
L 140.399054 341.853464 
L 141.296318 344.73869 
L 142.340894 348.885908 
L 143.572958 354.734463 
L 145.099646 363.1323 
L 147.295934 376.607196 
L 151.01891 399.450211 
L 152.612558 407.78068 
L 153.884798 413.319785 
L 154.956158 417.056328 
L 155.866814 419.48779 
L 156.656942 421.005317 
L 157.326542 421.843691 
L 157.889006 422.223742 
L 158.397902 422.310032 
L 158.880014 422.165552 
L 159.402302 421.761531 
L 159.99155 420.999795 
L 160.66115 419.747878 
L 161.437886 417.797036 
L 162.33515 414.910292 
L 163.379726 410.761476 
L 164.61179 404.91132 
L 166.138478 396.512001 
L 168.334766 383.036085 
L 172.04435 360.269909 
L 173.637998 351.929838 
L 174.910238 346.380845 
L 175.981598 342.634726 
L 176.905646 340.163896 
L 177.695774 338.647848 
L 178.365374 337.810765 
L 178.927838 337.431812 
L 179.436734 337.346521 
L 179.918846 337.491948 
L 180.441134 337.896987 
L 181.030382 338.659857 
L 181.699982 339.91303 
L 182.476718 341.865273 
L 183.373982 344.753535 
L 184.418558 348.903949 
L 185.664014 354.824349 
L 187.190702 363.23469 
L 189.400382 376.802918 
L 193.06979 399.322721 
L 194.663438 407.67237 
L 195.935678 413.231235 
L 197.007038 416.986921 
L 197.931086 419.466724 
L 198.721214 420.990841 
L 199.390814 421.83496 
L 199.96667 422.225437 
L 200.475566 422.309728 
L 200.957678 422.163355 
L 201.479966 421.757297 
L 202.069214 420.993294 
L 202.738814 419.738864 
L 203.51555 417.785221 
L 204.412814 414.89544 
L 205.45739 410.743429 
L 206.702846 404.821414 
L 208.229534 396.409598 
L 210.439214 382.840359 
L 214.108622 360.32199 
L 215.70227 351.974095 
L 216.97451 346.417038 
L 218.04587 342.663104 
L 218.969918 340.184945 
L 219.760046 338.662307 
L 220.429646 337.819477 
L 221.005502 337.430125 
L 221.514398 337.346834 
L 221.99651 337.494153 
L 222.518798 337.901229 
L 223.108046 338.666365 
L 223.777646 339.922052 
L 224.554382 341.877096 
L 225.451646 344.768394 
L 226.496222 348.922003 
L 227.741678 354.845633 
L 229.268366 363.258923 
L 231.478046 376.829172 
L 235.147454 399.346103 
L 236.741102 407.692244 
L 238.013342 413.247492 
L 239.084702 416.999673 
L 240.00875 419.476188 
L 240.798878 420.997347 
L 241.468478 421.838888 
L 242.044334 422.227115 
L 242.55323 422.309407 
L 243.035342 422.161142 
L 243.55763 421.753047 
L 244.146878 420.986778 
L 244.816478 419.729834 
L 245.593214 417.773391 
L 246.490478 414.880575 
L 247.535054 410.72537 
L 248.78051 404.800125 
L 250.307198 396.385362 
L 252.516878 382.814104 
L 256.186286 360.298612 
L 257.779934 351.954226 
L 259.052174 346.400787 
L 260.123534 342.650359 
L 261.047582 340.175489 
L 261.83771 338.655808 
L 262.50731 337.815557 
L 263.069774 337.433905 
L 263.57867 337.346159 
L 264.060782 337.489262 
L 264.58307 337.891799 
L 265.172318 338.651885 
L 265.841918 339.90197 
L 266.618654 341.850772 
L 267.515918 344.735305 
L 268.560494 348.881792 
L 269.792558 354.729617 
L 271.319246 363.126777 
L 273.515534 376.601207 
L 277.23851 399.444884 
L 278.832158 407.776156 
L 280.104398 413.31609 
L 281.175758 417.053434 
L 282.086414 419.485636 
L 282.876542 421.003838 
L 283.546142 421.8428 
L 284.108606 422.223353 
L 284.617502 422.3101 
L 285.099614 422.166051 
L 285.621902 421.762495 
L 286.21115 421.001276 
L 286.88075 419.749933 
L 287.657486 417.799731 
L 288.55475 414.913679 
L 289.599326 410.765593 
L 290.83139 404.916167 
L 292.358078 396.517525 
L 294.554366 383.042074 
L 298.26395 360.275241 
L 299.857598 351.934368 
L 301.129838 346.384549 
L 302.201198 342.637629 
L 303.125246 340.166049 
L 303.915374 338.649326 
L 304.584974 337.811653 
L 305.147438 337.432199 
L 305.656334 337.346452 
L 306.138446 337.491447 
L 306.660734 337.896021 
L 307.249982 338.658374 
L 307.919582 339.910973 
L 308.696318 341.862577 
L 309.593582 344.750147 
L 310.638158 348.899831 
L 311.870222 354.750858 
L 313.39691 363.150981 
L 315.593198 376.627452 
L 319.302782 399.392845 
L 320.89643 407.73196 
L 322.16867 413.279968 
L 323.24003 417.025135 
L 324.164078 419.495069 
L 324.940814 420.989354 
L 325.610414 421.834062 
L 326.18627 422.225051 
L 326.695166 422.309799 
L 327.177278 422.163858 
L 327.699566 421.758265 
L 328.288814 420.994779 
L 328.958414 419.740922 
L 329.73515 417.787918 
L 330.632414 414.898831 
L 331.67699 410.747548 
L 332.922446 404.82627 
L 334.449134 396.415127 
L 336.658814 382.84635 
L 340.328222 360.327326 
L 341.92187 351.97863 
L 343.19411 346.420748 
L 344.26547 342.666015 
L 345.189518 340.187105 
L 345.979646 338.663792 
L 346.649246 337.820374 
L 347.225102 337.430509 
L 347.733998 337.346761 
L 348.21611 337.493648 
L 348.738398 337.900259 
L 349.327646 338.664879 
L 349.997246 339.919992 
L 350.773982 341.874397 
L 351.671246 344.765002 
L 352.715822 348.917882 
L 353.961278 354.840775 
L 355.487966 363.253392 
L 357.697646 376.823181 
L 361.367054 399.340768 
L 362.960702 407.68771 
L 364.232942 413.243784 
L 365.304302 416.996765 
L 366.22835 419.47403 
L 367.018478 420.995864 
L 367.688078 421.837993 
L 368.263934 422.226733 
L 368.77283 422.309482 
L 369.254942 422.161648 
L 369.77723 421.754019 
L 370.366478 420.988266 
L 371.036078 419.731896 
L 371.812814 417.776091 
L 372.710078 414.883968 
L 373.754654 410.729492 
L 375.00011 404.804984 
L 376.526798 396.390893 
L 378.736478 382.820095 
L 382.405886 360.303946 
L 383.999534 351.958759 
L 385.271774 346.404494 
L 386.343134 342.653266 
L 387.267182 340.177646 
L 388.05731 338.65729 
L 388.72691 337.81645 
L 389.302766 337.428835 
L 389.811662 337.347086 
L 390.293774 337.495866 
L 390.816062 337.904514 
L 391.40531 338.671399 
L 392.07491 339.929026 
L 392.851646 341.886231 
L 393.74891 344.779871 
L 394.793486 348.935944 
L 396.038942 354.862066 
L 397.56563 363.27763 
L 399.77531 376.849435 
L 403.444718 399.364144 
L 405.038366 407.707576 
L 406.310606 413.260031 
L 407.381966 417.009506 
L 408.306014 419.483481 
L 409.096142 421.002358 
L 409.765742 421.841909 
L 410.328206 422.222963 
L 410.837102 422.310166 
L 411.319214 422.166549 
L 411.841502 421.763458 
L 412.43075 421.002757 
L 413.10035 419.751987 
L 413.877086 417.802424 
L 414.77435 414.917066 
L 415.818926 410.769709 
L 417.05099 404.921014 
L 418.577678 396.523048 
L 420.773966 383.048063 
L 424.496942 360.205174 
L 426.09059 351.874859 
L 427.36283 346.335912 
L 428.43419 342.599522 
L 429.344846 340.168202 
L 430.134974 338.650804 
L 430.804574 337.812543 
L 431.367038 337.432587 
L 431.875934 337.346384 
L 432.358046 337.490947 
L 432.880334 337.895056 
L 433.469582 338.656891 
L 434.139182 339.908918 
L 434.915918 341.859882 
L 435.813182 344.746759 
L 436.857758 348.895714 
L 438.089822 354.74601 
L 439.61651 363.145458 
L 441.812798 376.621463 
L 445.522382 399.387513 
L 447.11603 407.72743 
L 448.38827 413.276266 
L 449.45963 417.022232 
L 450.383678 419.492918 
L 451.173806 421.008837 
L 451.843406 421.845808 
L 452.40587 422.224665 
L 452.914766 422.309869 
L 453.396878 422.16436 
L 453.919166 421.759232 
L 454.508414 420.996263 
L 455.178014 419.74298 
L 455.95475 417.790615 
L 456.852014 414.90222 
L 457.89659 410.751667 
L 459.142046 404.831126 
L 460.668734 396.420657 
L 462.878414 382.85234 
L 466.547822 360.332662 
L 468.14147 351.983166 
L 469.41371 346.424459 
L 470.48507 342.668926 
L 471.409118 340.189266 
L 472.199246 338.665278 
L 472.868846 337.821271 
L 473.444702 337.430893 
L 473.953598 337.346689 
L 474.43571 337.493144 
L 474.957998 337.899291 
L 475.547246 338.663393 
L 476.216846 339.917933 
L 476.993582 341.871698 
L 477.890846 344.761611 
L 478.935422 348.913762 
L 480.180878 354.835918 
L 481.707566 363.247862 
L 483.917246 376.81719 
L 487.586654 399.335433 
L 489.180302 407.683175 
L 490.452542 413.240074 
L 491.523902 416.993855 
L 492.44795 419.471871 
L 493.238078 420.99438 
L 493.907678 421.837098 
L 494.483534 422.226351 
L 494.99243 422.309555 
L 495.474542 422.162154 
L 495.99683 421.754989 
L 496.586078 420.989754 
L 497.255678 419.733957 
L 498.032414 417.778792 
L 498.929678 414.887361 
L 499.974254 410.733613 
L 501.21971 404.809842 
L 502.746398 396.396424 
L 504.956078 382.826087 
L 508.625486 360.30928 
L 510.219134 351.963293 
L 511.491374 346.408202 
L 512.562734 342.656174 
L 513.486782 340.179803 
L 514.27691 338.658772 
L 514.94651 337.817344 
L 515.522366 337.429216 
L 516.031262 337.347011 
L 516.513374 337.495358 
L 517.035662 337.903542 
L 517.62491 338.66991 
L 518.29451 339.926963 
L 519.071246 341.883529 
L 519.96851 344.776477 
L 521.013086 348.931822 
L 522.258542 354.857207 
L 523.78523 363.272098 
L 525.99491 376.843444 
L 529.664318 399.358811 
L 531.257966 407.703043 
L 532.530206 413.256325 
L 533.601566 417.006599 
L 534.525614 419.481326 
L 535.315742 421.000878 
L 535.985342 421.841017 
L 536.547806 422.222573 
L 537.056702 422.310232 
L 537.538814 422.167047 
L 538.061102 421.764421 
L 538.65035 421.004236 
L 539.31995 419.754041 
L 540.096686 417.805117 
L 540.99395 414.920452 
L 542.038526 410.773824 
L 543.27059 404.92586 
L 544.797278 396.528571 
L 546.993566 383.054051 
L 550.716542 360.210502 
L 552.31019 351.879382 
L 553.58243 346.339607 
L 554.65379 342.602416 
L 555.564446 340.170355 
L 556.354574 338.652282 
L 557.024174 337.813433 
L 557.586638 337.432976 
L 558.095534 337.346316 
L 558.577646 337.490447 
L 559.099934 337.894092 
L 559.689182 338.65541 
L 560.358782 339.906863 
L 561.135518 341.857187 
L 562.032782 344.743371 
L 563.077358 348.891597 
L 564.309422 354.741162 
L 565.83611 363.139934 
L 568.032398 376.615474 
L 571.741982 399.382181 
L 573.33563 407.722901 
L 574.60787 413.272562 
L 575.67923 417.019329 
L 576.603278 419.490766 
L 577.393406 421.00736 
L 578.063006 421.84492 
L 578.62547 422.224278 
L 579.134366 422.309938 
L 579.616478 422.164861 
L 580.138766 421.760198 
L 580.728014 420.997746 
L 581.397614 419.745037 
L 582.17435 417.793311 
L 583.071614 414.905609 
L 584.11619 410.755785 
L 585.348254 404.904619 
L 586.874942 396.504366 
L 589.07123 383.027807 
L 592.780814 360.26254 
L 594.374462 351.923578 
L 595.646702 346.375727 
L 596.718062 342.630714 
L 597.64211 340.160923 
L 598.418846 338.666765 
L 599.088446 337.82217 
L 599.664302 337.431278 
L 600.173198 337.346618 
L 600.65531 337.492641 
L 601.177598 337.898323 
L 601.766846 338.661908 
L 602.436446 339.915874 
L 603.213182 341.869 
L 604.110446 344.758221 
L 605.155022 348.909642 
L 606.400478 354.831061 
L 607.927166 363.242333 
L 610.136846 376.811199 
L 613.806254 399.330097 
L 615.399902 407.67864 
L 616.672142 413.236364 
L 617.743502 416.990945 
L 618.66755 419.469711 
L 619.457678 420.992895 
L 620.127278 421.836201 
L 620.703134 422.225968 
L 621.21203 422.309628 
L 621.694142 422.162659 
L 622.21643 421.755959 
L 622.805678 420.991241 
L 623.475278 419.736018 
L 624.252014 417.781491 
L 625.149278 414.890753 
L 626.193854 410.737734 
L 627.43931 404.8147 
L 628.965998 396.401954 
L 631.175678 382.832078 
L 634.845086 360.314615 
L 636.438734 351.967827 
L 637.710974 346.411911 
L 638.782334 342.659083 
L 639.706382 340.181961 
L 640.49651 338.660256 
L 641.16611 337.818239 
L 641.741966 337.429597 
L 642.250862 337.346936 
L 642.732974 337.494852 
L 643.255262 337.90257 
L 643.84451 338.668421 
L 644.51411 339.924901 
L 645.290846 341.880828 
L 646.18811 344.773083 
L 647.232686 348.927699 
L 648.478142 354.852348 
L 650.00483 363.266567 
L 652.21451 376.837453 
L 655.883918 399.353477 
L 657.477566 407.69851 
L 658.749806 413.252617 
L 659.821166 417.003693 
L 660.745214 419.47917 
L 661.535342 420.999396 
L 662.204942 421.840124 
L 662.767406 422.222181 
L 663.276302 422.310296 
L 663.758414 422.167543 
L 664.280702 421.765382 
L 664.86995 421.005715 
L 665.53955 419.756093 
L 666.316286 417.807809 
L 667.21355 414.923837 
L 668.258126 410.777939 
L 669.49019 404.930706 
L 671.016878 396.534093 
L 673.213166 383.06004 
L 676.936142 360.215829 
L 678.52979 351.883906 
L 679.80203 346.343304 
L 680.87339 342.605311 
L 681.784046 340.17251 
L 682.574174 338.653762 
L 683.243774 337.814324 
L 683.806238 337.433365 
L 684.315134 337.34625 
L 684.797246 337.489949 
L 685.319534 337.893129 
L 685.908782 338.65393 
L 686.578382 339.904808 
L 687.355118 341.854494 
L 688.252382 344.739985 
L 689.296958 348.887481 
L 690.529022 354.736316 
L 692.05571 363.134411 
L 694.251998 376.609485 
L 697.961582 399.376849 
L 699.55523 407.71837 
L 700.82747 413.268858 
L 701.89883 417.016426 
L 702.822878 419.488613 
L 703.613006 421.005882 
L 704.282606 421.844031 
L 704.84507 422.223891 
L 705.353966 422.310007 
L 705.836078 422.165361 
L 706.358366 421.761163 
L 706.947614 420.999229 
L 707.617214 419.747093 
L 708.39395 417.796006 
L 709.291214 414.908997 
L 710.33579 410.759903 
L 711.567854 404.909467 
L 712.220313 401.454585 
L 712.220313 401.454585 
" clip-path="url(#p960e6e5f74)" style="fill: none; stroke: #ff7f0e; stroke-width: 1.5; stroke-linecap: square"/>
   </g>
   <g id="line2d_27">
    <path d="M 42.620313 183.140583 
L 712.220313 183.140583 
L 712.220313 183.140583 
" clip-path="url(#p960e6e5f74)" style="fill: none; stroke: #2ca02c; stroke-width: 1.5; stroke-linecap: square"/>
   </g>
   <g id="patch_3">
    <path d="M 42.620313 442.08 
L 42.620313 7.2 
" style="fill: none; stroke: #000000; stroke-width: 0.8; stroke-linejoin: miter; stroke-linecap: square"/>
   </g>
   <g id="patch_4">
    <path d="M 712.220313 442.08 
L 712.220313 7.2 
" style="fill: none; stroke: #000000; stroke-width: 0.8; stroke-linejoin: miter; stroke-linecap: square"/>
   </g>
   <g id="patch_5">
    <path d="M 42.620313 442.08 
L 712.220313 442.08 
" style="fill: none; stroke: #000000; stroke-width: 0.8; stroke-linejoin: miter; stroke-linecap: square"/>
   </g>
   <g id="patch_6">
    <path d="M 42.620313 7.2 
L 712.220313 7.2 
" style="fill: none; stroke: #000000; stroke-width: 0.8; stroke-linejoin: miter; stroke-linecap: square"/>
   </g>
   <g id="legend_1">
    <g id="patch_7">
     <path d="M 586.996313 72.432 
L 690.596313 72.432 
Q 692.596313 72.432 692.596313 70.432 
L 692.596313 27.397625 
Q 692.596313 25.397625 690.596313 25.397625 
L 586.996313 25.397625 
Q 584.996313 25.397625 584.996313 27.397625 
L 584.996313 70.432 
Q 584.996313 72.432 586.996313 72.432 
z
" style="fill: #ffffff; opacity: 0.8; stroke: #cccccc; stroke-linejoin: miter"/>
    </g>
    <g id="line2d_28">
     <path d="M 588.996313 33.496062 
L 598.996313 33.496062 
L 608.996313 33.496062 
" style="fill: none; stroke: #1f77b4; stroke-width: 1.5; stroke-linecap: square"/>
    </g>
    <g id="text_15">
     <!-- V(2) [V]  ($V_{out}$) -->
     <g transform="translate(616.996313 36.996062)scale(0.1 -0.1)">
      <defs>
       <path id="DejaVuSans-28" d="M 1984 4856 
Q 1566 4138 1362 3434 
Q 1159 2731 1159 2009 
Q 1159 1288 1364 580 
Q 1569 -128 1984 -844 
L 1484 -844 
Q 1016 -109 783 600 
Q 550 1309 550 2009 
Q 550 2706 781 3412 
Q 1013 4119 1484 4856 
L 1984 4856 
z
" transform="scale(0.015625)"/>
       <path id="DejaVuSans-29" d="M 513 4856 
L 1013 4856 
Q 1481 4119 1714 3412 
Q 1947 2706 1947 2009 
Q 1947 1309 1714 600 
Q 1481 -109 1013 -844 
L 513 -844 
Q 928 -128 1133 580 
Q 1338 1288 1338 2009 
Q 1338 2731 1133 3434 
Q 928 4138 513 4856 
z
" transform="scale(0.015625)"/>
       <path id="DejaVuSans-Oblique-56" d="M 1319 0 
L 500 4666 
L 1119 4666 
L 1797 653 
L 4063 4666 
L 4750 4666 
L 2053 0 
L 1319 0 
z
" transform="scale(0.015625)"/>
       <path id="DejaVuSans-Oblique-6f" d="M 1625 -91 
Q 1009 -91 651 289 
Q 294 669 294 1325 
Q 294 1706 417 2101 
Q 541 2497 738 2766 
Q 1047 3184 1428 3384 
Q 1809 3584 2291 3584 
Q 2888 3584 3255 3212 
Q 3622 2841 3622 2241 
Q 3622 1825 3500 1412 
Q 3378 1000 3181 728 
Q 2875 309 2494 109 
Q 2113 -91 1625 -91 
z
M 891 1344 
Q 891 869 1089 633 
Q 1288 397 1691 397 
Q 2269 397 2648 901 
Q 3028 1406 3028 2181 
Q 3028 2634 2825 2865 
Q 2622 3097 2228 3097 
Q 1903 3097 1650 2945 
Q 1397 2794 1197 2484 
Q 1050 2253 970 1956 
Q 891 1659 891 1344 
z
" transform="scale(0.015625)"/>
       <path id="DejaVuSans-Oblique-75" d="M 428 1388 
L 838 3500 
L 1416 3500 
L 1006 1409 
Q 975 1256 961 1147 
Q 947 1038 947 966 
Q 947 700 1109 554 
Q 1272 409 1569 409 
Q 2031 409 2368 721 
Q 2706 1034 2809 1563 
L 3194 3500 
L 3769 3500 
L 3091 0 
L 2516 0 
L 2631 550 
Q 2388 244 2052 76 
Q 1716 -91 1338 -91 
Q 878 -91 622 161 
Q 366 413 366 863 
Q 366 956 381 1097 
Q 397 1238 428 1388 
z
" transform="scale(0.015625)"/>
       <path id="DejaVuSans-Oblique-74" d="M 2706 3500 
L 2619 3053 
L 1472 3053 
L 1100 1153 
Q 1081 1047 1072 975 
Q 1063 903 1063 863 
Q 1063 663 1183 572 
Q 1303 481 1569 481 
L 2150 481 
L 2053 0 
L 1503 0 
Q 991 0 739 200 
Q 488 400 488 806 
Q 488 878 497 964 
Q 506 1050 525 1153 
L 897 3053 
L 409 3053 
L 500 3500 
L 978 3500 
L 1172 4494 
L 1747 4494 
L 1556 3500 
L 2706 3500 
z
" transform="scale(0.015625)"/>
      </defs>
      <use xlink:href="#DejaVuSans-56" transform="translate(0 0.015625)"/>
      <use xlink:href="#DejaVuSans-28" transform="translate(68.408203 0.015625)"/>
      <use xlink:href="#DejaVuSans-32" transform="translate(107.421875 0.015625)"/>
      <use xlink:href="#DejaVuSans-29" transform="translate(171.044922 0.015625)"/>
      <use xlink:href="#DejaVuSans-20" transform="translate(210.058594 0.015625)"/>
      <use xlink:href="#DejaVuSans-5b" transform="translate(241.845703 0.015625)"/>
      <use xlink:href="#DejaVuSans-56" transform="translate(280.859375 0.015625)"/>
      <use xlink:href="#DejaVuSans-5d" transform="translate(349.267578 0.015625)"/>
      <use xlink:href="#DejaVuSans-20" transform="translate(388.28125 0.015625)"/>
      <use xlink:href="#DejaVuSans-20" transform="translate(420.068359 0.015625)"/>
      <use xlink:href="#DejaVuSans-28" transform="translate(451.855469 0.015625)"/>
      <use xlink:href="#DejaVuSans-Oblique-56" transform="translate(490.869141 0.015625)"/>
      <use xlink:href="#DejaVuSans-Oblique-6f" transform="translate(559.277344 -16.390625)scale(0.7)"/>
      <use xlink:href="#DejaVuSans-Oblique-75" transform="translate(602.104492 -16.390625)scale(0.7)"/>
      <use xlink:href="#DejaVuSans-Oblique-74" transform="translate(646.469727 -16.390625)scale(0.7)"/>
      <use xlink:href="#DejaVuSans-29" transform="translate(676.650391 0.015625)"/>
     </g>
    </g>
    <g id="line2d_29">
     <path d="M 588.996313 48.174187 
L 598.996313 48.174187 
L 608.996313 48.174187 
" style="fill: none; stroke: #ff7f0e; stroke-width: 1.5; stroke-linecap: square"/>
    </g>
    <g id="text_16">
     <!-- V(4) [V]  ($V_{in}$) -->
     <g transform="translate(616.996313 51.674187)scale(0.1 -0.1)">
      <defs>
       <path id="DejaVuSans-Oblique-69" d="M 1172 4863 
L 1747 4863 
L 1606 4134 
L 1031 4134 
L 1172 4863 
z
M 909 3500 
L 1484 3500 
L 800 0 
L 225 0 
L 909 3500 
z
" transform="scale(0.015625)"/>
       <path id="DejaVuSans-Oblique-6e" d="M 3566 2113 
L 3156 0 
L 2578 0 
L 2988 2091 
Q 3016 2238 3031 2350 
Q 3047 2463 3047 2528 
Q 3047 2791 2881 2937 
Q 2716 3084 2419 3084 
Q 1956 3084 1622 2776 
Q 1288 2469 1184 1941 
L 800 0 
L 225 0 
L 903 3500 
L 1478 3500 
L 1363 2950 
Q 1603 3253 1940 3418 
Q 2278 3584 2650 3584 
Q 3113 3584 3367 3334 
Q 3622 3084 3622 2631 
Q 3622 2519 3608 2391 
Q 3594 2263 3566 2113 
z
" transform="scale(0.015625)"/>
      </defs>
      <use xlink:href="#DejaVuSans-56" transform="translate(0 0.015625)"/>
      <use xlink:href="#DejaVuSans-28" transform="translate(68.408203 0.015625)"/>
      <use xlink:href="#DejaVuSans-34" transform="translate(107.421875 0.015625)"/>
      <use xlink:href="#DejaVuSans-29" transform="translate(171.044922 0.015625)"/>
      <use xlink:href="#DejaVuSans-20" transform="translate(210.058594 0.015625)"/>
      <use xlink:href="#DejaVuSans-5b" transform="translate(241.845703 0.015625)"/>
      <use xlink:href="#DejaVuSans-56" transform="translate(280.859375 0.015625)"/>
      <use xlink:href="#DejaVuSans-5d" transform="translate(349.267578 0.015625)"/>
      <use xlink:href="#DejaVuSans-20" transform="translate(388.28125 0.015625)"/>
      <use xlink:href="#DejaVuSans-20" transform="translate(420.068359 0.015625)"/>
      <use xlink:href="#DejaVuSans-28" transform="translate(451.855469 0.015625)"/>
      <use xlink:href="#DejaVuSans-Oblique-56" transform="translate(490.869141 0.015625)"/>
      <use xlink:href="#DejaVuSans-Oblique-69" transform="translate(559.277344 -16.390625)scale(0.7)"/>
      <use xlink:href="#DejaVuSans-Oblique-6e" transform="translate(578.725586 -16.390625)scale(0.7)"/>
      <use xlink:href="#DejaVuSans-29" transform="translate(625.825195 0.015625)"/>
     </g>
    </g>
    <g id="line2d_30">
     <path d="M 588.996313 62.852312 
L 598.996313 62.852312 
L 608.996313 62.852312 
" style="fill: none; stroke: #2ca02c; stroke-width: 1.5; stroke-linecap: square"/>
    </g>
    <g id="text_17">
     <!-- V(3) [V]  ($V_{dd}$) -->
     <g transform="translate(616.996313 66.352312)scale(0.1 -0.1)">
      <defs>
       <path id="DejaVuSans-33" d="M 2597 2516 
Q 3050 2419 3304 2112 
Q 3559 1806 3559 1356 
Q 3559 666 3084 287 
Q 2609 -91 1734 -91 
Q 1441 -91 1130 -33 
Q 819 25 488 141 
L 488 750 
Q 750 597 1062 519 
Q 1375 441 1716 441 
Q 2309 441 2620 675 
Q 2931 909 2931 1356 
Q 2931 1769 2642 2001 
Q 2353 2234 1838 2234 
L 1294 2234 
L 1294 2753 
L 1863 2753 
Q 2328 2753 2575 2939 
Q 2822 3125 2822 3475 
Q 2822 3834 2567 4026 
Q 2313 4219 1838 4219 
Q 1578 4219 1281 4162 
Q 984 4106 628 3988 
L 628 4550 
Q 988 4650 1302 4700 
Q 1616 4750 1894 4750 
Q 2613 4750 3031 4423 
Q 3450 4097 3450 3541 
Q 3450 3153 3228 2886 
Q 3006 2619 2597 2516 
z
" transform="scale(0.015625)"/>
       <path id="DejaVuSans-Oblique-64" d="M 2675 525 
Q 2444 222 2128 65 
Q 1813 -91 1428 -91 
Q 903 -91 598 267 
Q 294 625 294 1247 
Q 294 1766 478 2236 
Q 663 2706 1013 3078 
Q 1244 3325 1534 3454 
Q 1825 3584 2144 3584 
Q 2481 3584 2739 3421 
Q 2997 3259 3138 2956 
L 3513 4863 
L 4091 4863 
L 3144 0 
L 2566 0 
L 2675 525 
z
M 891 1350 
Q 891 897 1095 644 
Q 1300 391 1663 391 
Q 1931 391 2161 520 
Q 2391 650 2566 903 
Q 2750 1166 2856 1509 
Q 2963 1853 2963 2188 
Q 2963 2622 2758 2865 
Q 2553 3109 2194 3109 
Q 1922 3109 1687 2981 
Q 1453 2853 1288 2613 
Q 1106 2353 998 2009 
Q 891 1666 891 1350 
z
" transform="scale(0.015625)"/>
      </defs>
      <use xlink:href="#DejaVuSans-56" transform="translate(0 0.015625)"/>
      <use xlink:href="#DejaVuSans-28" transform="translate(68.408203 0.015625)"/>
      <use xlink:href="#DejaVuSans-33" transform="translate(107.421875 0.015625)"/>
      <use xlink:href="#DejaVuSans-29" transform="translate(171.044922 0.015625)"/>
      <use xlink:href="#DejaVuSans-20" transform="translate(210.058594 0.015625)"/>
      <use xlink:href="#DejaVuSans-5b" transform="translate(241.845703 0.015625)"/>
      <use xlink:href="#DejaVuSans-56" transform="translate(280.859375 0.015625)"/>
      <use xlink:href="#DejaVuSans-5d" transform="translate(349.267578 0.015625)"/>
      <use xlink:href="#DejaVuSans-20" transform="translate(388.28125 0.015625)"/>
      <use xlink:href="#DejaVuSans-20" transform="translate(420.068359 0.015625)"/>
      <use xlink:href="#DejaVuSans-28" transform="translate(451.855469 0.015625)"/>
      <use xlink:href="#DejaVuSans-Oblique-56" transform="translate(490.869141 0.015625)"/>
      <use xlink:href="#DejaVuSans-Oblique-64" transform="translate(559.277344 -16.390625)scale(0.7)"/>
      <use xlink:href="#DejaVuSans-Oblique-64" transform="translate(603.710938 -16.390625)scale(0.7)"/>
      <use xlink:href="#DejaVuSans-29" transform="translate(650.878906 0.015625)"/>
     </g>
    </g>
   </g>
  </g>
 </g>
 <defs>
  <clipPath id="p960e6e5f74">
   <rect x="42.620313" y="7.2" width="669.6" height="434.88"/>
  </clipPath>
 </defs>
</svg>