<?xml version="1.0" encoding="utf-8" standalone="no"?>
<!DOCTYPE svg PUBLIC "-//W3C//DTD SVG 1.1//EN"
  "http://www.w3.org/Graphics/SVG/1.1/DTD/svg11.dtd">
<svg xmlns:xlink="http://www.w3.org/1999/xlink" width="438.939pt" height="187.129656pt" viewBox="0 0 438.939 187.129656" xmlns="http://www.w3.org/2000/svg" version="1.1">
 <metadata>
  <rdf:RDF xmlns:dc="http://purl.org/dc/elements/1.1/" xmlns:cc="http://creativecommons.org/ns#" xmlns:rdf="http://www.w3.org/1999/02/22-rdf-syntax-ns#">
   <cc:Work>
    <dc:type rdf:resource="http://purl.org/dc/dcmitype/StillImage"/>
    <dc:date>2023-11-13T00:05:11.125436</dc:date>
    <dc:format>image/svg+xml</dc:format>
    <dc:creator>
     <cc:Agent>
      <dc:title>Matplotlib v3.8.0, https://matplotlib.org/</dc:title>
     </cc:Agent>
    </dc:creator>
   </cc:Work>
  </rdf:RDF>
 </metadata>
 <defs>
  <style type="text/css">*{stroke-linejoin: round; stroke-linecap: butt}</style>
 </defs>
 <g id="figure_1">
  <g id="patch_1">
   <path d="M 0 187.129656 
L 438.939 187.129656 
L 438.939 0 
L 0 0 
z
" style="fill: #ffffff"/>
  </g>
  <g id="axes_1">
   <g id="patch_2">
    <path d="M 42.075 102.097656 
C 46.848656 102.097656 51.427438 100.201063 54.802922 96.825578 
C 58.178406 93.450094 60.075 88.871312 60.075 84.097656 
C 60.075 79.324 58.178406 74.745219 54.802922 71.369734 
C 51.427438 67.99425 46.848656 66.097656 42.075 66.097656 
C 37.301344 66.097656 32.722562 67.99425 29.347078 71.369734 
C 25.971594 74.745219 24.075 79.324 24.075 84.097656 
C 24.075 88.871312 25.971594 93.450094 29.347078 96.825578 
C 32.722562 100.201063 37.301344 102.097656 42.075 102.097656 
L 42.075 102.097656 
z
" clip-path="url(#pa71f25a072)" style="fill: none; stroke: #000000; stroke-width: 2; stroke-linejoin: miter"/>
   </g>
   <g id="patch_3">
    <path d="M 105.075 62.497656 
C 105.075 61.079413 104.935319 59.674961 104.663949 58.364675 
C 104.39258 57.054389 103.994801 55.863752 103.493377 54.860903 
C 102.991952 53.858054 102.396633 53.062495 101.741491 52.519757 
C 101.086348 51.977019 100.384122 51.697656 99.675 51.697656 
C 98.965878 51.697656 98.263652 51.977019 97.608509 52.519757 
C 96.953367 53.062495 96.358048 53.858054 95.856623 54.860903 
C 95.355199 55.863752 94.95742 57.054389 94.686051 58.364675 
C 94.414681 59.674961 94.275 61.079413 94.275 62.497656 
C 94.275 63.915899 94.414681 65.320352 94.686051 66.630637 
C 94.95742 67.940923 95.355199 69.13156 95.856623 70.134409 
C 96.358048 71.137259 96.953367 71.932817 97.608509 72.475555 
C 98.263652 73.018293 98.965878 73.297656 99.675 73.297656 
C 100.384122 73.297656 101.086348 73.018293 101.741491 72.475555 
C 102.396633 71.932817 102.991952 71.137259 103.493377 70.134409 
C 103.994801 69.13156 104.39258 67.940923 104.663949 66.630637 
C 104.935319 65.320352 105.075 63.915899 105.075 62.497656 
" clip-path="url(#pa71f25a072)" style="fill: none; stroke: #000000; stroke-width: 2; stroke-linejoin: miter"/>
   </g>
   <g id="patch_4">
    <path d="M 236.475 73.297656 
C 237.90662 73.297656 239.281069 72.159026 240.293377 70.134409 
C 241.305685 68.109793 241.875 65.360896 241.875 62.497656 
C 241.875 59.634417 241.305685 56.885519 240.293377 54.860903 
C 239.281069 52.836287 237.90662 51.697656 236.475 51.697656 
" clip-path="url(#pa71f25a072)" style="fill: none; stroke: #000000; stroke-width: 2; stroke-linejoin: miter"/>
   </g>
   <g id="patch_5">
    <path d="M 258.075 98.497656 
C 259.268016 98.497656 260.41339 98.023227 261.256981 97.179637 
C 262.100571 96.336047 262.575 95.190673 262.575 93.997656 
C 262.575 92.80464 262.100571 91.659266 261.256981 90.815676 
C 260.41339 89.972086 259.268016 89.497656 258.075 89.497656 
" clip-path="url(#pa71f25a072)" style="fill: none; stroke: #000000; stroke-width: 2; stroke-linejoin: miter"/>
   </g>
   <g id="patch_6">
    <path d="M 258.075 107.497656 
C 259.268016 107.497656 260.41339 107.023227 261.256981 106.179637 
C 262.100571 105.336047 262.575 104.190673 262.575 102.997656 
C 262.575 101.80464 262.100571 100.659266 261.256981 99.815676 
C 260.41339 98.972086 259.268016 98.497656 258.075 98.497656 
" clip-path="url(#pa71f25a072)" style="fill: none; stroke: #000000; stroke-width: 2; stroke-linejoin: miter"/>
   </g>
   <g id="patch_7">
    <path d="M 258.075 116.497656 
C 259.268016 116.497656 260.41339 116.023227 261.256981 115.179637 
C 262.100571 114.336047 262.575 113.190673 262.575 111.997656 
C 262.575 110.80464 262.100571 109.659266 261.256981 108.815676 
C 260.41339 107.972086 259.268016 107.497656 258.075 107.497656 
" clip-path="url(#pa71f25a072)" style="fill: none; stroke: #000000; stroke-width: 2; stroke-linejoin: miter"/>
   </g>
   <g id="patch_8">
    <path d="M 258.075 125.497656 
C 259.268016 125.497656 260.41339 125.023227 261.256981 124.179637 
C 262.100571 123.336047 262.575 122.190673 262.575 120.997656 
C 262.575 119.80464 262.100571 118.659266 261.256981 117.815676 
C 260.41339 116.972086 259.268016 116.497656 258.075 116.497656 
" clip-path="url(#pa71f25a072)" style="fill: none; stroke: #000000; stroke-width: 2; stroke-linejoin: miter"/>
   </g>
   <g id="patch_9">
    <path d="M 285.075 62.497656 
C 285.075 61.079413 284.935319 59.674961 284.663949 58.364675 
C 284.39258 57.054389 283.994801 55.863752 283.493377 54.860903 
C 282.991952 53.858054 282.396633 53.062495 281.741491 52.519757 
C 281.086348 51.977019 280.384122 51.697656 279.675 51.697656 
C 278.965878 51.697656 278.263652 51.977019 277.608509 52.519757 
C 276.953367 53.062495 276.358048 53.858054 275.856623 54.860903 
C 275.355199 55.863752 274.95742 57.054389 274.686051 58.364675 
C 274.414681 59.674961 274.275 61.079413 274.275 62.497656 
C 274.275 63.915899 274.414681 65.320352 274.686051 66.630637 
C 274.95742 67.940923 275.355199 69.13156 275.856623 70.134409 
C 276.358048 71.137259 276.953367 71.932817 277.608509 72.475555 
C 278.263652 73.018293 278.965878 73.297656 279.675 73.297656 
C 280.384122 73.297656 281.086348 73.018293 281.741491 72.475555 
C 282.396633 71.932817 282.991952 71.137259 283.493377 70.134409 
C 283.994801 69.13156 284.39258 67.940923 284.663949 66.630637 
C 284.935319 65.320352 285.075 63.915899 285.075 62.497656 
" clip-path="url(#pa71f25a072)" style="fill: none; stroke: #000000; stroke-width: 2; stroke-linejoin: miter"/>
   </g>
   <g id="patch_10">
    <path d="M 380.475 73.297656 
C 381.90662 73.297656 383.281069 72.159026 384.293377 70.134409 
C 385.305685 68.109793 385.875 65.360896 385.875 62.497656 
C 385.875 59.634417 385.305685 56.885519 384.293377 54.860903 
C 383.281069 52.836287 381.90662 51.697656 380.475 51.697656 
" clip-path="url(#pa71f25a072)" style="fill: none; stroke: #000000; stroke-width: 2; stroke-linejoin: miter"/>
   </g>
   <g id="line2d_1">
    <path d="M 42.075 120.097656 
L 42.075 134.497656 
L 33.075 134.497656 
L 51.075 134.497656 
M 35.775 138.817656 
L 48.375 138.817656 
M 40.275 143.137656 
L 43.875 143.137656 
" clip-path="url(#pa71f25a072)" style="fill: none; stroke: #000000; stroke-width: 2; stroke-linecap: round"/>
   </g>
   <g id="line2d_2">
    <path d="M 42.075 120.097656 
L 42.075 102.097656 
L 42.075 102.097656 
M 42.075 66.097656 
L 42.075 66.097656 
L 42.075 48.097656 
" clip-path="url(#pa71f25a072)" style="fill: none; stroke: #000000; stroke-width: 2; stroke-linecap: round"/>
   </g>
   <g id="line2d_3">
    <path d="M 51.075 84.097656 
L 50.325 82.234159 
L 49.575 80.497656 
L 48.825 79.006487 
L 48.075 77.862273 
L 47.325 77.14299 
L 46.575 76.897656 
L 45.825 77.14299 
L 45.075 77.862273 
L 44.325 79.006487 
L 43.575 80.497656 
L 42.825 82.234159 
L 42.075 84.097656 
L 41.325 85.961153 
L 40.575 87.697656 
L 39.825 89.188825 
L 39.075 90.333039 
L 38.325 91.052322 
L 37.575 91.297656 
L 36.825 91.052322 
L 36.075 90.333039 
L 35.325 89.188825 
L 34.575 87.697656 
L 33.825 85.961153 
L 33.075 84.097656 
" clip-path="url(#pa71f25a072)" style="fill: none; stroke: #000000; stroke-width: 2; stroke-linecap: round"/>
   </g>
   <g id="line2d_4">
    <path d="M 42.075 48.097656 
L 60.075 48.097656 
L 78.075 48.097656 
" clip-path="url(#pa71f25a072)" style="fill: none; stroke: #000000; stroke-width: 2; stroke-linecap: round"/>
   </g>
   <g id="line2d_5">
    <path d="M 78.075 48.097656 
L 78.075 55.297656 
L 78.075 62.497656 
" clip-path="url(#pa71f25a072)" style="fill: none; stroke: #000000; stroke-width: 2; stroke-linecap: round"/>
   </g>
   <g id="line2d_6">
    <path d="M 78.075 62.497656 
L 99.675 62.497656 
M 241.875 62.497656 
L 258.075 62.497656 
" clip-path="url(#pa71f25a072)" style="fill: none; stroke: #000000; stroke-width: 2; stroke-linecap: round"/>
   </g>
   <g id="line2d_7">
    <path d="M 99.675 51.697656 
L 236.475 51.697656 
" clip-path="url(#pa71f25a072)" style="fill: none; stroke: #000000; stroke-width: 2; stroke-linecap: round"/>
   </g>
   <g id="line2d_8">
    <path d="M 99.675 73.297656 
L 236.475 73.297656 
" clip-path="url(#pa71f25a072)" style="fill: none; stroke: #000000; stroke-width: 2; stroke-linecap: round"/>
   </g>
   <g id="line2d_9">
    <path d="M 258.075 62.497656 
L 258.075 89.497656 
M 258.075 125.497656 
L 258.075 152.497656 
" clip-path="url(#pa71f25a072)" style="fill: none; stroke: #000000; stroke-width: 2; stroke-linecap: round"/>
   </g>
   <g id="line2d_10">
    <path d="M 258.075 152.497656 
L 258.075 166.897656 
L 249.075 166.897656 
L 267.075 166.897656 
M 251.775 171.217656 
L 264.375 171.217656 
M 256.275 175.537656 
L 259.875 175.537656 
" clip-path="url(#pa71f25a072)" style="fill: none; stroke: #000000; stroke-width: 2; stroke-linecap: round"/>
   </g>
   <g id="line2d_11">
    <path d="M 258.075 62.497656 
L 279.675 62.497656 
M 385.875 62.497656 
L 402.075 62.497656 
" clip-path="url(#pa71f25a072)" style="fill: none; stroke: #000000; stroke-width: 2; stroke-linecap: round"/>
   </g>
   <g id="line2d_12">
    <path d="M 279.675 51.697656 
L 380.475 51.697656 
" clip-path="url(#pa71f25a072)" style="fill: none; stroke: #000000; stroke-width: 2; stroke-linecap: round"/>
   </g>
   <g id="line2d_13">
    <path d="M 279.675 73.297656 
L 380.475 73.297656 
" clip-path="url(#pa71f25a072)" style="fill: none; stroke: #000000; stroke-width: 2; stroke-linecap: round"/>
   </g>
   <g id="line2d_14">
    <path d="M 402.075 62.497656 
L 402.075 40.897656 
L 388.395 19.297656 
L 415.755 19.297656 
L 402.075 40.897656 
" clip-path="url(#pa71f25a072)" style="fill: none; stroke: #000000; stroke-width: 2; stroke-linecap: round"/>
   </g>
   <g id="line2d_15">
    <path d="M 236.475 51.697656 
L 236.475 33.697656 
L 236.475 15.697656 
" clip-path="url(#pa71f25a072)" style="fill: none; stroke: #000000; stroke-width: 2; stroke-linecap: round"/>
   </g>
   <g id="line2d_16">
    <path d="M 236.475 15.697656 
L 258.075 15.697656 
L 279.675 15.697656 
" clip-path="url(#pa71f25a072)" style="fill: none; stroke: #000000; stroke-width: 2; stroke-linecap: round"/>
   </g>
   <g id="line2d_17">
    <path d="M 279.675 15.697656 
L 279.675 33.697656 
L 279.675 51.697656 
" clip-path="url(#pa71f25a072)" style="fill: none; stroke: #000000; stroke-width: 2; stroke-linecap: round"/>
   </g>
   <g id="line2d_18">
    <path d="M 42.075 120.097656 
L 70.875 120.097656 
L 99.675 120.097656 
" clip-path="url(#pa71f25a072)" style="fill: none; stroke: #000000; stroke-width: 2; stroke-linecap: round"/>
   </g>
   <g id="line2d_19">
    <path d="M 99.675 120.097656 
L 99.675 96.697656 
L 99.675 73.297656 
" clip-path="url(#pa71f25a072)" style="fill: none; stroke: #000000; stroke-width: 2; stroke-linecap: round"/>
   </g>
   <g id="text_1">
    <!-- $V_{in}$ -->
    <g transform="translate(3.6 87.546875) scale(0.125 -0.125)">
     <defs>
      <path id="DejaVuSans-Oblique-56" d="M 1319 0 
L 500 4666 
L 1119 4666 
L 1797 653 
L 4063 4666 
L 4750 4666 
L 2053 0 
L 1319 0 
z
" transform="scale(0.015625)"/>
      <path id="DejaVuSans-Oblique-69" d="M 1172 4863 
L 1747 4863 
L 1606 4134 
L 1031 4134 
L 1172 4863 
z
M 909 3500 
L 1484 3500 
L 800 0 
L 225 0 
L 909 3500 
z
" transform="scale(0.015625)"/>
      <path id="DejaVuSans-Oblique-6e" d="M 3566 2113 
L 3156 0 
L 2578 0 
L 2988 2091 
Q 3016 2238 3031 2350 
Q 3047 2463 3047 2528 
Q 3047 2791 2881 2937 
Q 2716 3084 2419 3084 
Q 1956 3084 1622 2776 
Q 1288 2469 1184 1941 
L 800 0 
L 225 0 
L 903 3500 
L 1478 3500 
L 1363 2950 
Q 1603 3253 1940 3418 
Q 2278 3584 2650 3584 
Q 3113 3584 3367 3334 
Q 3622 3084 3622 2631 
Q 3622 2519 3608 2391 
Q 3594 2263 3566 2113 
z
" transform="scale(0.015625)"/>
     </defs>
     <use xlink:href="#DejaVuSans-Oblique-56" transform="translate(0 0.09375)"/>
     <use xlink:href="#DejaVuSans-Oblique-69" transform="translate(68.408203 -16.3125) scale(0.7)"/>
     <use xlink:href="#DejaVuSans-Oblique-6e" transform="translate(87.856445 -16.3125) scale(0.7)"/>
    </g>
   </g>
   <g id="text_2">
    <!-- $50\Omega$ -->
    <g transform="translate(155.325 45.498047) scale(0.125 -0.125)">
     <defs>
      <path id="DejaVuSans-35" d="M 691 4666 
L 3169 4666 
L 3169 4134 
L 1269 4134 
L 1269 2991 
Q 1406 3038 1543 3061 
Q 1681 3084 1819 3084 
Q 2600 3084 3056 2656 
Q 3513 2228 3513 1497 
Q 3513 744 3044 326 
Q 2575 -91 1722 -91 
Q 1428 -91 1123 -41 
Q 819 9 494 109 
L 494 744 
Q 775 591 1075 516 
Q 1375 441 1709 441 
Q 2250 441 2565 725 
Q 2881 1009 2881 1497 
Q 2881 1984 2565 2268 
Q 2250 2553 1709 2553 
Q 1456 2553 1204 2497 
Q 953 2441 691 2322 
L 691 4666 
z
" transform="scale(0.015625)"/>
      <path id="DejaVuSans-30" d="M 2034 4250 
Q 1547 4250 1301 3770 
Q 1056 3291 1056 2328 
Q 1056 1369 1301 889 
Q 1547 409 2034 409 
Q 2525 409 2770 889 
Q 3016 1369 3016 2328 
Q 3016 3291 2770 3770 
Q 2525 4250 2034 4250 
z
M 2034 4750 
Q 2819 4750 3233 4129 
Q 3647 3509 3647 2328 
Q 3647 1150 3233 529 
Q 2819 -91 2034 -91 
Q 1250 -91 836 529 
Q 422 1150 422 2328 
Q 422 3509 836 4129 
Q 1250 4750 2034 4750 
z
" transform="scale(0.015625)"/>
      <path id="DejaVuSans-3a9" d="M 4647 556 
L 4647 0 
L 2772 0 
L 2772 556 
Q 3325 859 3634 1378 
Q 3944 1897 3944 2528 
Q 3944 3278 3531 3731 
Q 3119 4184 2444 4184 
Q 1769 4184 1355 3729 
Q 941 3275 941 2528 
Q 941 1897 1250 1378 
Q 1563 859 2119 556 
L 2119 0 
L 244 0 
L 244 556 
L 1241 556 
Q 747 991 519 1456 
Q 294 1922 294 2497 
Q 294 3491 894 4106 
Q 1491 4722 2444 4722 
Q 3391 4722 3994 4106 
Q 4594 3494 4594 2528 
Q 4594 1922 4372 1459 
Q 4150 997 3647 556 
L 4647 556 
z
" transform="scale(0.015625)"/>
     </defs>
     <use xlink:href="#DejaVuSans-35" transform="translate(0 0.78125)"/>
     <use xlink:href="#DejaVuSans-30" transform="translate(63.623047 0.78125)"/>
     <use xlink:href="#DejaVuSans-3a9" transform="translate(127.246094 0.78125)"/>
    </g>
   </g>
   <g id="text_3">
    <!-- 16.4nH -->
    <g transform="translate(209.320703 110.946875) scale(0.125 -0.125)">
     <defs>
      <path id="DejaVuSans-31" d="M 794 531 
L 1825 531 
L 1825 4091 
L 703 3866 
L 703 4441 
L 1819 4666 
L 2450 4666 
L 2450 531 
L 3481 531 
L 3481 0 
L 794 0 
L 794 531 
z
" transform="scale(0.015625)"/>
      <path id="DejaVuSans-36" d="M 2113 2584 
Q 1688 2584 1439 2293 
Q 1191 2003 1191 1497 
Q 1191 994 1439 701 
Q 1688 409 2113 409 
Q 2538 409 2786 701 
Q 3034 994 3034 1497 
Q 3034 2003 2786 2293 
Q 2538 2584 2113 2584 
z
M 3366 4563 
L 3366 3988 
Q 3128 4100 2886 4159 
Q 2644 4219 2406 4219 
Q 1781 4219 1451 3797 
Q 1122 3375 1075 2522 
Q 1259 2794 1537 2939 
Q 1816 3084 2150 3084 
Q 2853 3084 3261 2657 
Q 3669 2231 3669 1497 
Q 3669 778 3244 343 
Q 2819 -91 2113 -91 
Q 1303 -91 875 529 
Q 447 1150 447 2328 
Q 447 3434 972 4092 
Q 1497 4750 2381 4750 
Q 2619 4750 2861 4703 
Q 3103 4656 3366 4563 
z
" transform="scale(0.015625)"/>
      <path id="DejaVuSans-2e" d="M 684 794 
L 1344 794 
L 1344 0 
L 684 0 
L 684 794 
z
" transform="scale(0.015625)"/>
      <path id="DejaVuSans-34" d="M 2419 4116 
L 825 1625 
L 2419 1625 
L 2419 4116 
z
M 2253 4666 
L 3047 4666 
L 3047 1625 
L 3713 1625 
L 3713 1100 
L 3047 1100 
L 3047 0 
L 2419 0 
L 2419 1100 
L 313 1100 
L 313 1709 
L 2253 4666 
z
" transform="scale(0.015625)"/>
      <path id="DejaVuSans-6e" d="M 3513 2113 
L 3513 0 
L 2938 0 
L 2938 2094 
Q 2938 2591 2744 2837 
Q 2550 3084 2163 3084 
Q 1697 3084 1428 2787 
Q 1159 2491 1159 1978 
L 1159 0 
L 581 0 
L 581 3500 
L 1159 3500 
L 1159 2956 
Q 1366 3272 1645 3428 
Q 1925 3584 2291 3584 
Q 2894 3584 3203 3211 
Q 3513 2838 3513 2113 
z
" transform="scale(0.015625)"/>
      <path id="DejaVuSans-48" d="M 628 4666 
L 1259 4666 
L 1259 2753 
L 3553 2753 
L 3553 4666 
L 4184 4666 
L 4184 0 
L 3553 0 
L 3553 2222 
L 1259 2222 
L 1259 0 
L 628 0 
L 628 4666 
z
" transform="scale(0.015625)"/>
     </defs>
     <use xlink:href="#DejaVuSans-31"/>
     <use xlink:href="#DejaVuSans-36" x="63.623047"/>
     <use xlink:href="#DejaVuSans-2e" x="127.246094"/>
     <use xlink:href="#DejaVuSans-34" x="159.033203"/>
     <use xlink:href="#DejaVuSans-6e" x="222.65625"/>
     <use xlink:href="#DejaVuSans-48" x="286.035156"/>
    </g>
   </g>
   <g id="text_4">
    <!-- $50\Omega$ -->
    <g transform="translate(317.325 45.498047) scale(0.125 -0.125)">
     <use xlink:href="#DejaVuSans-35" transform="translate(0 0.78125)"/>
     <use xlink:href="#DejaVuSans-30" transform="translate(63.623047 0.78125)"/>
     <use xlink:href="#DejaVuSans-3a9" transform="translate(127.246094 0.78125)"/>
    </g>
   </g>
   <g id="text_5">
    <!-- 3.9 cm -->
    <g transform="translate(308.624805 86.395703) scale(0.125 -0.125)">
     <defs>
      <path id="DejaVuSans-33" d="M 2597 2516 
Q 3050 2419 3304 2112 
Q 3559 1806 3559 1356 
Q 3559 666 3084 287 
Q 2609 -91 1734 -91 
Q 1441 -91 1130 -33 
Q 819 25 488 141 
L 488 750 
Q 750 597 1062 519 
Q 1375 441 1716 441 
Q 2309 441 2620 675 
Q 2931 909 2931 1356 
Q 2931 1769 2642 2001 
Q 2353 2234 1838 2234 
L 1294 2234 
L 1294 2753 
L 1863 2753 
Q 2328 2753 2575 2939 
Q 2822 3125 2822 3475 
Q 2822 3834 2567 4026 
Q 2313 4219 1838 4219 
Q 1578 4219 1281 4162 
Q 984 4106 628 3988 
L 628 4550 
Q 988 4650 1302 4700 
Q 1616 4750 1894 4750 
Q 2613 4750 3031 4423 
Q 3450 4097 3450 3541 
Q 3450 3153 3228 2886 
Q 3006 2619 2597 2516 
z
" transform="scale(0.015625)"/>
      <path id="DejaVuSans-39" d="M 703 97 
L 703 672 
Q 941 559 1184 500 
Q 1428 441 1663 441 
Q 2288 441 2617 861 
Q 2947 1281 2994 2138 
Q 2813 1869 2534 1725 
Q 2256 1581 1919 1581 
Q 1219 1581 811 2004 
Q 403 2428 403 3163 
Q 403 3881 828 4315 
Q 1253 4750 1959 4750 
Q 2769 4750 3195 4129 
Q 3622 3509 3622 2328 
Q 3622 1225 3098 567 
Q 2575 -91 1691 -91 
Q 1453 -91 1209 -44 
Q 966 3 703 97 
z
M 1959 2075 
Q 2384 2075 2632 2365 
Q 2881 2656 2881 3163 
Q 2881 3666 2632 3958 
Q 2384 4250 1959 4250 
Q 1534 4250 1286 3958 
Q 1038 3666 1038 3163 
Q 1038 2656 1286 2365 
Q 1534 2075 1959 2075 
z
" transform="scale(0.015625)"/>
      <path id="DejaVuSans-20" transform="scale(0.015625)"/>
      <path id="DejaVuSans-63" d="M 3122 3366 
L 3122 2828 
Q 2878 2963 2633 3030 
Q 2388 3097 2138 3097 
Q 1578 3097 1268 2742 
Q 959 2388 959 1747 
Q 959 1106 1268 751 
Q 1578 397 2138 397 
Q 2388 397 2633 464 
Q 2878 531 3122 666 
L 3122 134 
Q 2881 22 2623 -34 
Q 2366 -91 2075 -91 
Q 1284 -91 818 406 
Q 353 903 353 1747 
Q 353 2603 823 3093 
Q 1294 3584 2113 3584 
Q 2378 3584 2631 3529 
Q 2884 3475 3122 3366 
z
" transform="scale(0.015625)"/>
      <path id="DejaVuSans-6d" d="M 3328 2828 
Q 3544 3216 3844 3400 
Q 4144 3584 4550 3584 
Q 5097 3584 5394 3201 
Q 5691 2819 5691 2113 
L 5691 0 
L 5113 0 
L 5113 2094 
Q 5113 2597 4934 2840 
Q 4756 3084 4391 3084 
Q 3944 3084 3684 2787 
Q 3425 2491 3425 1978 
L 3425 0 
L 2847 0 
L 2847 2094 
Q 2847 2600 2669 2842 
Q 2491 3084 2119 3084 
Q 1678 3084 1418 2786 
Q 1159 2488 1159 1978 
L 1159 0 
L 581 0 
L 581 3500 
L 1159 3500 
L 1159 2956 
Q 1356 3278 1631 3431 
Q 1906 3584 2284 3584 
Q 2666 3584 2933 3390 
Q 3200 3197 3328 2828 
z
" transform="scale(0.015625)"/>
     </defs>
     <use xlink:href="#DejaVuSans-33"/>
     <use xlink:href="#DejaVuSans-2e" x="63.623047"/>
     <use xlink:href="#DejaVuSans-39" x="95.410156"/>
     <use xlink:href="#DejaVuSans-20" x="159.033203"/>
     <use xlink:href="#DejaVuSans-63" x="190.820312"/>
     <use xlink:href="#DejaVuSans-6d" x="245.800781"/>
    </g>
   </g>
   <g id="text_6">
    <!-- $150\Omega$ -->
    <g transform="translate(385.325 13.098047) scale(0.125 -0.125)">
     <use xlink:href="#DejaVuSans-31" transform="translate(0 0.78125)"/>
     <use xlink:href="#DejaVuSans-35" transform="translate(63.623047 0.78125)"/>
     <use xlink:href="#DejaVuSans-30" transform="translate(127.246094 0.78125)"/>
     <use xlink:href="#DejaVuSans-3a9" transform="translate(190.869141 0.78125)"/>
    </g>
   </g>
   <g id="patch_11">
    <path d="M 42.075 122.797656 
C 42.791048 122.797656 43.477866 122.513167 43.984188 122.006845 
C 44.490511 121.500522 44.775 120.813705 44.775 120.097656 
C 44.775 119.381608 44.490511 118.694791 43.984188 118.188468 
C 43.477866 117.682145 42.791048 117.397656 42.075 117.397656 
C 41.358952 117.397656 40.672134 117.682145 40.165812 118.188468 
C 39.659489 118.694791 39.375 119.381608 39.375 120.097656 
C 39.375 120.813705 39.659489 121.500522 40.165812 122.006845 
C 40.672134 122.513167 41.358952 122.797656 42.075 122.797656 
z
" clip-path="url(#pa71f25a072)" style="stroke: #000000; stroke-width: 2; stroke-linejoin: miter"/>
   </g>
   <g id="patch_12">
    <path d="M 258.075 65.197656 
C 258.791048 65.197656 259.477866 64.913167 259.984188 64.406845 
C 260.490511 63.900522 260.775 63.213705 260.775 62.497656 
C 260.775 61.781608 260.490511 61.094791 259.984188 60.588468 
C 259.477866 60.082145 258.791048 59.797656 258.075 59.797656 
C 257.358952 59.797656 256.672134 60.082145 256.165812 60.588468 
C 255.659489 61.094791 255.375 61.781608 255.375 62.497656 
C 255.375 63.213705 255.659489 63.900522 256.165812 64.406845 
C 256.672134 64.913167 257.358952 65.197656 258.075 65.197656 
z
" clip-path="url(#pa71f25a072)" style="fill: #008000; stroke: #008000; stroke-width: 2; stroke-linejoin: miter"/>
   </g>
   <g id="patch_13">
    <path d="M 402.075 65.197656 
C 402.791048 65.197656 403.477866 64.913167 403.984188 64.406845 
C 404.490511 63.900522 404.775 63.213705 404.775 62.497656 
C 404.775 61.781608 404.490511 61.094791 403.984188 60.588468 
C 403.477866 60.082145 402.791048 59.797656 402.075 59.797656 
C 401.358952 59.797656 400.672134 60.082145 400.165812 60.588468 
C 399.659489 61.094791 399.375 61.781608 399.375 62.497656 
C 399.375 63.213705 399.659489 63.900522 400.165812 64.406845 
C 400.672134 64.913167 401.358952 65.197656 402.075 65.197656 
z
" clip-path="url(#pa71f25a072)" style="fill: #ff0000; stroke: #ff0000; stroke-width: 2; stroke-linejoin: miter"/>
   </g>
  </g>
 </g>
 <defs>
  <clipPath id="pa71f25a072">
   <rect x="4.491" y="7.705656" width="430.848" height="175.824"/>
  </clipPath>
 </defs>
</svg>