<?xml version="1.0" encoding="utf-8" standalone="no"?>
<!DOCTYPE svg PUBLIC "-//W3C//DTD SVG 1.1//EN"
  "http://www.w3.org/Graphics/SVG/1.1/DTD/svg11.dtd">
<svg xmlns:xlink="http://www.w3.org/1999/xlink" width="211.14pt" height="67.312656pt" viewBox="0 0 211.14 67.312656" xmlns="http://www.w3.org/2000/svg" version="1.1">
 <metadata>
  <rdf:RDF xmlns:dc="http://purl.org/dc/elements/1.1/" xmlns:cc="http://creativecommons.org/ns#" xmlns:rdf="http://www.w3.org/1999/02/22-rdf-syntax-ns#">
   <cc:Work>
    <dc:type rdf:resource="http://purl.org/dc/dcmitype/StillImage"/>
    <dc:date>2023-09-26T21:55:52.470235</dc:date>
    <dc:format>image/svg+xml</dc:format>
    <dc:creator>
     <cc:Agent>
      <dc:title>Matplotlib v3.6.3, https://matplotlib.org/</dc:title>
     </cc:Agent>
    </dc:creator>
   </cc:Work>
  </rdf:RDF>
 </metadata>
 <defs>
  <style type="text/css">*{stroke-linejoin: round; stroke-linecap: butt}</style>
 </defs>
 <g id="figure_1">
  <g id="patch_1">
   <path d="M 0 67.312656 
L 211.14 67.312656 
L 211.14 0 
L 0 0 
z
" style="fill: #ffffff"/>
  </g>
  <g id="axes_1">
   <g id="patch_2">
    <path d="M 42.57 30.097656 
C 42.57 28.679413 42.430319 27.274961 42.158949 25.964675 
C 41.88758 24.654389 41.489801 23.463752 40.988377 22.460903 
C 40.486952 21.458054 39.891633 20.662495 39.236491 20.119757 
C 38.581348 19.577019 37.879122 19.297656 37.17 19.297656 
C 36.460878 19.297656 35.758652 19.577019 35.103509 20.119757 
C 34.448367 20.662495 33.853048 21.458054 33.351623 22.460903 
C 32.850199 23.463752 32.45242 24.654389 32.181051 25.964675 
C 31.909681 27.274961 31.77 28.679413 31.77 30.097656 
C 31.77 31.515899 31.909681 32.920352 32.181051 34.230637 
C 32.45242 35.540923 32.850199 36.73156 33.351623 37.734409 
C 33.853048 38.737259 34.448367 39.532817 35.103509 40.075555 
C 35.758652 40.618293 36.460878 40.897656 37.17 40.897656 
C 37.879122 40.897656 38.581348 40.618293 39.236491 40.075555 
C 39.891633 39.532817 40.486952 38.737259 40.988377 37.734409 
C 41.489801 36.73156 41.88758 35.540923 42.158949 34.230637 
C 42.430319 32.920352 42.57 31.515899 42.57 30.097656 
" clip-path="url(#p565c956dfa)" style="fill: none; stroke: #000000; stroke-width: 2; stroke-linejoin: miter"/>
   </g>
   <g id="patch_3">
    <path d="M 173.97 40.897656 
C 175.40162 40.897656 176.776069 39.759026 177.788377 37.734409 
C 178.800685 35.709793 179.37 32.960896 179.37 30.097656 
C 179.37 27.234417 178.800685 24.485519 177.788377 22.460903 
C 176.776069 20.436287 175.40162 19.297656 173.97 19.297656 
" clip-path="url(#p565c956dfa)" style="fill: none; stroke: #000000; stroke-width: 2; stroke-linejoin: miter"/>
   </g>
   <g id="line2d_1">
    <path d="M 15.57 30.097656 
L 37.17 30.097656 
M 179.37 30.097656 
L 195.57 30.097656 
" clip-path="url(#p565c956dfa)" style="fill: none; stroke: #000000; stroke-width: 2; stroke-linecap: round"/>
   </g>
   <g id="line2d_2">
    <path d="M 37.17 19.297656 
L 173.97 19.297656 
" clip-path="url(#p565c956dfa)" style="fill: none; stroke: #000000; stroke-width: 2; stroke-linecap: round"/>
   </g>
   <g id="line2d_3">
    <path d="M 37.17 40.897656 
L 173.97 40.897656 
" clip-path="url(#p565c956dfa)" style="fill: none; stroke: #000000; stroke-width: 2; stroke-linecap: round"/>
   </g>
   <g id="line2d_4">
    <path d="M 173.97 40.897656 
L 173.97 49.897656 
L 173.97 58.897656 
" clip-path="url(#p565c956dfa)" style="fill: none; stroke: #000000; stroke-width: 2; stroke-linecap: round"/>
   </g>
   <g id="line2d_5">
    <path d="M 173.97 58.897656 
L 182.97 58.897656 
L 191.97 58.897656 
" clip-path="url(#p565c956dfa)" style="fill: none; stroke: #000000; stroke-width: 2; stroke-linecap: round"/>
   </g>
   <g id="line2d_6">
    <path d="M 37.17 40.897656 
L 37.17 49.897656 
L 37.17 58.897656 
" clip-path="url(#p565c956dfa)" style="fill: none; stroke: #000000; stroke-width: 2; stroke-linecap: round"/>
   </g>
   <g id="line2d_7">
    <path d="M 37.17 58.897656 
L 28.17 58.897656 
L 19.17 58.897656 
" clip-path="url(#p565c956dfa)" style="fill: none; stroke: #000000; stroke-width: 2; stroke-linecap: round"/>
   </g>
   <g id="text_1">
    <!-- $50\Omega$ -->
    <g transform="translate(92.82 13.098047) scale(0.125 -0.125)">
     <defs>
      <path id="DejaVuSans-35" d="M 691 4666 
L 3169 4666 
L 3169 4134 
L 1269 4134 
L 1269 2991 
Q 1406 3038 1543 3061 
Q 1681 3084 1819 3084 
Q 2600 3084 3056 2656 
Q 3513 2228 3513 1497 
Q 3513 744 3044 326 
Q 2575 -91 1722 -91 
Q 1428 -91 1123 -41 
Q 819 9 494 109 
L 494 744 
Q 775 591 1075 516 
Q 1375 441 1709 441 
Q 2250 441 2565 725 
Q 2881 1009 2881 1497 
Q 2881 1984 2565 2268 
Q 2250 2553 1709 2553 
Q 1456 2553 1204 2497 
Q 953 2441 691 2322 
L 691 4666 
z
" transform="scale(0.015625)"/>
      <path id="DejaVuSans-30" d="M 2034 4250 
Q 1547 4250 1301 3770 
Q 1056 3291 1056 2328 
Q 1056 1369 1301 889 
Q 1547 409 2034 409 
Q 2525 409 2770 889 
Q 3016 1369 3016 2328 
Q 3016 3291 2770 3770 
Q 2525 4250 2034 4250 
z
M 2034 4750 
Q 2819 4750 3233 4129 
Q 3647 3509 3647 2328 
Q 3647 1150 3233 529 
Q 2819 -91 2034 -91 
Q 1250 -91 836 529 
Q 422 1150 422 2328 
Q 422 3509 836 4129 
Q 1250 4750 2034 4750 
z
" transform="scale(0.015625)"/>
      <path id="DejaVuSans-3a9" d="M 4647 556 
L 4647 0 
L 2772 0 
L 2772 556 
Q 3325 859 3634 1378 
Q 3944 1897 3944 2528 
Q 3944 3278 3531 3731 
Q 3119 4184 2444 4184 
Q 1769 4184 1355 3729 
Q 941 3275 941 2528 
Q 941 1897 1250 1378 
Q 1563 859 2119 556 
L 2119 0 
L 244 0 
L 244 556 
L 1241 556 
Q 747 991 519 1456 
Q 294 1922 294 2497 
Q 294 3491 894 4106 
Q 1491 4722 2444 4722 
Q 3391 4722 3994 4106 
Q 4594 3494 4594 2528 
Q 4594 1922 4372 1459 
Q 4150 997 3647 556 
L 4647 556 
z
" transform="scale(0.015625)"/>
     </defs>
     <use xlink:href="#DejaVuSans-35" transform="translate(0 0.78125)"/>
     <use xlink:href="#DejaVuSans-30" transform="translate(63.623047 0.78125)"/>
     <use xlink:href="#DejaVuSans-3a9" transform="translate(127.246094 0.78125)"/>
    </g>
   </g>
   <g id="text_2">
    <!-- coax -->
    <g transform="translate(90.779961 53.995703) scale(0.125 -0.125)">
     <defs>
      <path id="DejaVuSans-63" d="M 3122 3366 
L 3122 2828 
Q 2878 2963 2633 3030 
Q 2388 3097 2138 3097 
Q 1578 3097 1268 2742 
Q 959 2388 959 1747 
Q 959 1106 1268 751 
Q 1578 397 2138 397 
Q 2388 397 2633 464 
Q 2878 531 3122 666 
L 3122 134 
Q 2881 22 2623 -34 
Q 2366 -91 2075 -91 
Q 1284 -91 818 406 
Q 353 903 353 1747 
Q 353 2603 823 3093 
Q 1294 3584 2113 3584 
Q 2378 3584 2631 3529 
Q 2884 3475 3122 3366 
z
" transform="scale(0.015625)"/>
      <path id="DejaVuSans-6f" d="M 1959 3097 
Q 1497 3097 1228 2736 
Q 959 2375 959 1747 
Q 959 1119 1226 758 
Q 1494 397 1959 397 
Q 2419 397 2687 759 
Q 2956 1122 2956 1747 
Q 2956 2369 2687 2733 
Q 2419 3097 1959 3097 
z
M 1959 3584 
Q 2709 3584 3137 3096 
Q 3566 2609 3566 1747 
Q 3566 888 3137 398 
Q 2709 -91 1959 -91 
Q 1206 -91 779 398 
Q 353 888 353 1747 
Q 353 2609 779 3096 
Q 1206 3584 1959 3584 
z
" transform="scale(0.015625)"/>
      <path id="DejaVuSans-61" d="M 2194 1759 
Q 1497 1759 1228 1600 
Q 959 1441 959 1056 
Q 959 750 1161 570 
Q 1363 391 1709 391 
Q 2188 391 2477 730 
Q 2766 1069 2766 1631 
L 2766 1759 
L 2194 1759 
z
M 3341 1997 
L 3341 0 
L 2766 0 
L 2766 531 
Q 2569 213 2275 61 
Q 1981 -91 1556 -91 
Q 1019 -91 701 211 
Q 384 513 384 1019 
Q 384 1609 779 1909 
Q 1175 2209 1959 2209 
L 2766 2209 
L 2766 2266 
Q 2766 2663 2505 2880 
Q 2244 3097 1772 3097 
Q 1472 3097 1187 3025 
Q 903 2953 641 2809 
L 641 3341 
Q 956 3463 1253 3523 
Q 1550 3584 1831 3584 
Q 2591 3584 2966 3190 
Q 3341 2797 3341 1997 
z
" transform="scale(0.015625)"/>
      <path id="DejaVuSans-78" d="M 3513 3500 
L 2247 1797 
L 3578 0 
L 2900 0 
L 1881 1375 
L 863 0 
L 184 0 
L 1544 1831 
L 300 3500 
L 978 3500 
L 1906 2253 
L 2834 3500 
L 3513 3500 
z
" transform="scale(0.015625)"/>
     </defs>
     <use xlink:href="#DejaVuSans-63"/>
     <use xlink:href="#DejaVuSans-6f" x="54.980469"/>
     <use xlink:href="#DejaVuSans-61" x="116.162109"/>
     <use xlink:href="#DejaVuSans-78" x="177.441406"/>
    </g>
   </g>
   <g id="patch_4">
    <path d="M 15.57 32.797656 
C 16.286048 32.797656 16.972866 32.513167 17.479188 32.006845 
C 17.985511 31.500522 18.27 30.813705 18.27 30.097656 
C 18.27 29.381608 17.985511 28.694791 17.479188 28.188468 
C 16.972866 27.682145 16.286048 27.397656 15.57 27.397656 
C 14.853952 27.397656 14.167134 27.682145 13.660812 28.188468 
C 13.154489 28.694791 12.87 29.381608 12.87 30.097656 
C 12.87 30.813705 13.154489 31.500522 13.660812 32.006845 
C 14.167134 32.513167 14.853952 32.797656 15.57 32.797656 
z
" clip-path="url(#p565c956dfa)" style="fill: #ff0000; stroke: #ff0000; stroke-width: 2; stroke-linejoin: miter"/>
   </g>
   <g id="patch_5">
    <path d="M 195.57 32.797656 
C 196.286048 32.797656 196.972866 32.513167 197.479188 32.006845 
C 197.985511 31.500522 198.27 30.813705 198.27 30.097656 
C 198.27 29.381608 197.985511 28.694791 197.479188 28.188468 
C 196.972866 27.682145 196.286048 27.397656 195.57 27.397656 
C 194.853952 27.397656 194.167134 27.682145 193.660812 28.188468 
C 193.154489 28.694791 192.87 29.381608 192.87 30.097656 
C 192.87 30.813705 193.154489 31.500522 193.660812 32.006845 
C 194.167134 32.513167 194.853952 32.797656 195.57 32.797656 
z
" clip-path="url(#p565c956dfa)" style="fill: #008000; stroke: #008000; stroke-width: 2; stroke-linejoin: miter"/>
   </g>
   <g id="patch_6">
    <path d="M 191.97 61.597656 
C 192.686048 61.597656 193.372866 61.313167 193.879188 60.806845 
C 194.385511 60.300522 194.67 59.613705 194.67 58.897656 
C 194.67 58.181608 194.385511 57.494791 193.879188 56.988468 
C 193.372866 56.482145 192.686048 56.197656 191.97 56.197656 
C 191.253952 56.197656 190.567134 56.482145 190.060812 56.988468 
C 189.554489 57.494791 189.27 58.181608 189.27 58.897656 
C 189.27 59.613705 189.554489 60.300522 190.060812 60.806845 
C 190.567134 61.313167 191.253952 61.597656 191.97 61.597656 
z
" clip-path="url(#p565c956dfa)" style="fill: #008000; stroke: #008000; stroke-width: 2; stroke-linejoin: miter"/>
   </g>
   <g id="patch_7">
    <path d="M 19.17 61.597656 
C 19.886048 61.597656 20.572866 61.313167 21.079188 60.806845 
C 21.585511 60.300522 21.87 59.613705 21.87 58.897656 
C 21.87 58.181608 21.585511 57.494791 21.079188 56.988468 
C 20.572866 56.482145 19.886048 56.197656 19.17 56.197656 
C 18.453952 56.197656 17.767134 56.482145 17.260812 56.988468 
C 16.754489 57.494791 16.47 58.181608 16.47 58.897656 
C 16.47 59.613705 16.754489 60.300522 17.260812 60.806845 
C 17.767134 61.313167 18.453952 61.597656 19.17 61.597656 
z
" clip-path="url(#p565c956dfa)" style="fill: #ff0000; stroke: #ff0000; stroke-width: 2; stroke-linejoin: miter"/>
   </g>
  </g>
 </g>
 <defs>
  <clipPath id="p565c956dfa">
   <rect x="3.6" y="17.182656" width="203.94" height="46.53"/>
  </clipPath>
 </defs>
</svg>