<?xml version="1.0" encoding="utf-8" standalone="no"?>
<!DOCTYPE svg PUBLIC "-//W3C//DTD SVG 1.1//EN"
  "http://www.w3.org/Graphics/SVG/1.1/DTD/svg11.dtd">
<svg xmlns:xlink="http://www.w3.org/1999/xlink" width="732.145313pt" height="479.63625pt" viewBox="0 0 732.145313 479.63625" xmlns="http://www.w3.org/2000/svg" version="1.1">
 <metadata>
  <rdf:RDF xmlns:dc="http://purl.org/dc/elements/1.1/" xmlns:cc="http://creativecommons.org/ns#" xmlns:rdf="http://www.w3.org/1999/02/22-rdf-syntax-ns#">
   <cc:Work>
    <dc:type rdf:resource="http://purl.org/dc/dcmitype/StillImage"/>
    <dc:date>2022-11-04T21:53:39.604953</dc:date>
    <dc:format>image/svg+xml</dc:format>
    <dc:creator>
     <cc:Agent>
      <dc:title>Matplotlib v3.5.3, https://matplotlib.org/</dc:title>
     </cc:Agent>
    </dc:creator>
   </cc:Work>
  </rdf:RDF>
 </metadata>
 <defs>
  <style type="text/css">*{stroke-linejoin: round; stroke-linecap: butt}</style>
 </defs>
 <g id="figure_1">
  <g id="patch_1">
   <path d="M 0 479.63625 
L 732.145313 479.63625 
L 732.145313 0 
L 0 0 
L 0 479.63625 
z
" style="fill: none"/>
  </g>
  <g id="axes_1">
   <g id="patch_2">
    <path d="M 48.982813 442.08 
L 718.582813 442.08 
L 718.582813 7.2 
L 48.982813 7.2 
z
" style="fill: #ffffff"/>
   </g>
   <g id="matplotlib.axis_1">
    <g id="xtick_1">
     <g id="line2d_1">
      <path d="M 48.982813 442.08 
L 48.982813 7.2 
" clip-path="url(#p70e7153d08)" style="fill: none; stroke: #b0b0b0; stroke-width: 0.8; stroke-linecap: square"/>
     </g>
     <g id="line2d_2">
      <defs>
       <path id="m03f7bb0432" d="M 0 0 
L 0 3.5 
" style="stroke: #000000; stroke-width: 0.8"/>
      </defs>
      <g>
       <use xlink:href="#m03f7bb0432" x="48.982813" y="442.08" style="stroke: #000000; stroke-width: 0.8"/>
      </g>
     </g>
     <g id="text_1">
      <!-- 0 -->
      <g transform="translate(45.801563 456.678437)scale(0.1 -0.1)">
       <defs>
        <path id="DejaVuSans-30" d="M 2034 4250 
Q 1547 4250 1301 3770 
Q 1056 3291 1056 2328 
Q 1056 1369 1301 889 
Q 1547 409 2034 409 
Q 2525 409 2770 889 
Q 3016 1369 3016 2328 
Q 3016 3291 2770 3770 
Q 2525 4250 2034 4250 
z
M 2034 4750 
Q 2819 4750 3233 4129 
Q 3647 3509 3647 2328 
Q 3647 1150 3233 529 
Q 2819 -91 2034 -91 
Q 1250 -91 836 529 
Q 422 1150 422 2328 
Q 422 3509 836 4129 
Q 1250 4750 2034 4750 
z
" transform="scale(0.015625)"/>
       </defs>
       <use xlink:href="#DejaVuSans-30"/>
      </g>
     </g>
    </g>
    <g id="xtick_2">
     <g id="line2d_3">
      <path d="M 182.902813 442.08 
L 182.902813 7.2 
" clip-path="url(#p70e7153d08)" style="fill: none; stroke: #b0b0b0; stroke-width: 0.8; stroke-linecap: square"/>
     </g>
     <g id="line2d_4">
      <g>
       <use xlink:href="#m03f7bb0432" x="182.902813" y="442.08" style="stroke: #000000; stroke-width: 0.8"/>
      </g>
     </g>
     <g id="text_2">
      <!-- 2 -->
      <g transform="translate(179.721563 456.678437)scale(0.1 -0.1)">
       <defs>
        <path id="DejaVuSans-32" d="M 1228 531 
L 3431 531 
L 3431 0 
L 469 0 
L 469 531 
Q 828 903 1448 1529 
Q 2069 2156 2228 2338 
Q 2531 2678 2651 2914 
Q 2772 3150 2772 3378 
Q 2772 3750 2511 3984 
Q 2250 4219 1831 4219 
Q 1534 4219 1204 4116 
Q 875 4013 500 3803 
L 500 4441 
Q 881 4594 1212 4672 
Q 1544 4750 1819 4750 
Q 2544 4750 2975 4387 
Q 3406 4025 3406 3419 
Q 3406 3131 3298 2873 
Q 3191 2616 2906 2266 
Q 2828 2175 2409 1742 
Q 1991 1309 1228 531 
z
" transform="scale(0.015625)"/>
       </defs>
       <use xlink:href="#DejaVuSans-32"/>
      </g>
     </g>
    </g>
    <g id="xtick_3">
     <g id="line2d_5">
      <path d="M 316.822813 442.08 
L 316.822813 7.2 
" clip-path="url(#p70e7153d08)" style="fill: none; stroke: #b0b0b0; stroke-width: 0.8; stroke-linecap: square"/>
     </g>
     <g id="line2d_6">
      <g>
       <use xlink:href="#m03f7bb0432" x="316.822813" y="442.08" style="stroke: #000000; stroke-width: 0.8"/>
      </g>
     </g>
     <g id="text_3">
      <!-- 4 -->
      <g transform="translate(313.641563 456.678437)scale(0.1 -0.1)">
       <defs>
        <path id="DejaVuSans-34" d="M 2419 4116 
L 825 1625 
L 2419 1625 
L 2419 4116 
z
M 2253 4666 
L 3047 4666 
L 3047 1625 
L 3713 1625 
L 3713 1100 
L 3047 1100 
L 3047 0 
L 2419 0 
L 2419 1100 
L 313 1100 
L 313 1709 
L 2253 4666 
z
" transform="scale(0.015625)"/>
       </defs>
       <use xlink:href="#DejaVuSans-34"/>
      </g>
     </g>
    </g>
    <g id="xtick_4">
     <g id="line2d_7">
      <path d="M 450.742813 442.08 
L 450.742813 7.2 
" clip-path="url(#p70e7153d08)" style="fill: none; stroke: #b0b0b0; stroke-width: 0.8; stroke-linecap: square"/>
     </g>
     <g id="line2d_8">
      <g>
       <use xlink:href="#m03f7bb0432" x="450.742813" y="442.08" style="stroke: #000000; stroke-width: 0.8"/>
      </g>
     </g>
     <g id="text_4">
      <!-- 6 -->
      <g transform="translate(447.561563 456.678437)scale(0.1 -0.1)">
       <defs>
        <path id="DejaVuSans-36" d="M 2113 2584 
Q 1688 2584 1439 2293 
Q 1191 2003 1191 1497 
Q 1191 994 1439 701 
Q 1688 409 2113 409 
Q 2538 409 2786 701 
Q 3034 994 3034 1497 
Q 3034 2003 2786 2293 
Q 2538 2584 2113 2584 
z
M 3366 4563 
L 3366 3988 
Q 3128 4100 2886 4159 
Q 2644 4219 2406 4219 
Q 1781 4219 1451 3797 
Q 1122 3375 1075 2522 
Q 1259 2794 1537 2939 
Q 1816 3084 2150 3084 
Q 2853 3084 3261 2657 
Q 3669 2231 3669 1497 
Q 3669 778 3244 343 
Q 2819 -91 2113 -91 
Q 1303 -91 875 529 
Q 447 1150 447 2328 
Q 447 3434 972 4092 
Q 1497 4750 2381 4750 
Q 2619 4750 2861 4703 
Q 3103 4656 3366 4563 
z
" transform="scale(0.015625)"/>
       </defs>
       <use xlink:href="#DejaVuSans-36"/>
      </g>
     </g>
    </g>
    <g id="xtick_5">
     <g id="line2d_9">
      <path d="M 584.662813 442.08 
L 584.662813 7.2 
" clip-path="url(#p70e7153d08)" style="fill: none; stroke: #b0b0b0; stroke-width: 0.8; stroke-linecap: square"/>
     </g>
     <g id="line2d_10">
      <g>
       <use xlink:href="#m03f7bb0432" x="584.662813" y="442.08" style="stroke: #000000; stroke-width: 0.8"/>
      </g>
     </g>
     <g id="text_5">
      <!-- 8 -->
      <g transform="translate(581.481563 456.678437)scale(0.1 -0.1)">
       <defs>
        <path id="DejaVuSans-38" d="M 2034 2216 
Q 1584 2216 1326 1975 
Q 1069 1734 1069 1313 
Q 1069 891 1326 650 
Q 1584 409 2034 409 
Q 2484 409 2743 651 
Q 3003 894 3003 1313 
Q 3003 1734 2745 1975 
Q 2488 2216 2034 2216 
z
M 1403 2484 
Q 997 2584 770 2862 
Q 544 3141 544 3541 
Q 544 4100 942 4425 
Q 1341 4750 2034 4750 
Q 2731 4750 3128 4425 
Q 3525 4100 3525 3541 
Q 3525 3141 3298 2862 
Q 3072 2584 2669 2484 
Q 3125 2378 3379 2068 
Q 3634 1759 3634 1313 
Q 3634 634 3220 271 
Q 2806 -91 2034 -91 
Q 1263 -91 848 271 
Q 434 634 434 1313 
Q 434 1759 690 2068 
Q 947 2378 1403 2484 
z
M 1172 3481 
Q 1172 3119 1398 2916 
Q 1625 2713 2034 2713 
Q 2441 2713 2670 2916 
Q 2900 3119 2900 3481 
Q 2900 3844 2670 4047 
Q 2441 4250 2034 4250 
Q 1625 4250 1398 4047 
Q 1172 3844 1172 3481 
z
" transform="scale(0.015625)"/>
       </defs>
       <use xlink:href="#DejaVuSans-38"/>
      </g>
     </g>
    </g>
    <g id="xtick_6">
     <g id="line2d_11">
      <path d="M 718.582813 442.08 
L 718.582813 7.2 
" clip-path="url(#p70e7153d08)" style="fill: none; stroke: #b0b0b0; stroke-width: 0.8; stroke-linecap: square"/>
     </g>
     <g id="line2d_12">
      <g>
       <use xlink:href="#m03f7bb0432" x="718.582813" y="442.08" style="stroke: #000000; stroke-width: 0.8"/>
      </g>
     </g>
     <g id="text_6">
      <!-- 10 -->
      <g transform="translate(712.220313 456.678437)scale(0.1 -0.1)">
       <defs>
        <path id="DejaVuSans-31" d="M 794 531 
L 1825 531 
L 1825 4091 
L 703 3866 
L 703 4441 
L 1819 4666 
L 2450 4666 
L 2450 531 
L 3481 531 
L 3481 0 
L 794 0 
L 794 531 
z
" transform="scale(0.015625)"/>
       </defs>
       <use xlink:href="#DejaVuSans-31"/>
       <use xlink:href="#DejaVuSans-30" x="63.623047"/>
      </g>
     </g>
    </g>
    <g id="text_7">
     <!-- tijd [us] -->
     <g transform="translate(364.60625 470.356562)scale(0.1 -0.1)">
      <defs>
       <path id="DejaVuSans-74" d="M 1172 4494 
L 1172 3500 
L 2356 3500 
L 2356 3053 
L 1172 3053 
L 1172 1153 
Q 1172 725 1289 603 
Q 1406 481 1766 481 
L 2356 481 
L 2356 0 
L 1766 0 
Q 1100 0 847 248 
Q 594 497 594 1153 
L 594 3053 
L 172 3053 
L 172 3500 
L 594 3500 
L 594 4494 
L 1172 4494 
z
" transform="scale(0.015625)"/>
       <path id="DejaVuSans-69" d="M 603 3500 
L 1178 3500 
L 1178 0 
L 603 0 
L 603 3500 
z
M 603 4863 
L 1178 4863 
L 1178 4134 
L 603 4134 
L 603 4863 
z
" transform="scale(0.015625)"/>
       <path id="DejaVuSans-6a" d="M 603 3500 
L 1178 3500 
L 1178 -63 
Q 1178 -731 923 -1031 
Q 669 -1331 103 -1331 
L -116 -1331 
L -116 -844 
L 38 -844 
Q 366 -844 484 -692 
Q 603 -541 603 -63 
L 603 3500 
z
M 603 4863 
L 1178 4863 
L 1178 4134 
L 603 4134 
L 603 4863 
z
" transform="scale(0.015625)"/>
       <path id="DejaVuSans-64" d="M 2906 2969 
L 2906 4863 
L 3481 4863 
L 3481 0 
L 2906 0 
L 2906 525 
Q 2725 213 2448 61 
Q 2172 -91 1784 -91 
Q 1150 -91 751 415 
Q 353 922 353 1747 
Q 353 2572 751 3078 
Q 1150 3584 1784 3584 
Q 2172 3584 2448 3432 
Q 2725 3281 2906 2969 
z
M 947 1747 
Q 947 1113 1208 752 
Q 1469 391 1925 391 
Q 2381 391 2643 752 
Q 2906 1113 2906 1747 
Q 2906 2381 2643 2742 
Q 2381 3103 1925 3103 
Q 1469 3103 1208 2742 
Q 947 2381 947 1747 
z
" transform="scale(0.015625)"/>
       <path id="DejaVuSans-20" transform="scale(0.015625)"/>
       <path id="DejaVuSans-5b" d="M 550 4863 
L 1875 4863 
L 1875 4416 
L 1125 4416 
L 1125 -397 
L 1875 -397 
L 1875 -844 
L 550 -844 
L 550 4863 
z
" transform="scale(0.015625)"/>
       <path id="DejaVuSans-75" d="M 544 1381 
L 544 3500 
L 1119 3500 
L 1119 1403 
Q 1119 906 1312 657 
Q 1506 409 1894 409 
Q 2359 409 2629 706 
Q 2900 1003 2900 1516 
L 2900 3500 
L 3475 3500 
L 3475 0 
L 2900 0 
L 2900 538 
Q 2691 219 2414 64 
Q 2138 -91 1772 -91 
Q 1169 -91 856 284 
Q 544 659 544 1381 
z
M 1991 3584 
L 1991 3584 
z
" transform="scale(0.015625)"/>
       <path id="DejaVuSans-73" d="M 2834 3397 
L 2834 2853 
Q 2591 2978 2328 3040 
Q 2066 3103 1784 3103 
Q 1356 3103 1142 2972 
Q 928 2841 928 2578 
Q 928 2378 1081 2264 
Q 1234 2150 1697 2047 
L 1894 2003 
Q 2506 1872 2764 1633 
Q 3022 1394 3022 966 
Q 3022 478 2636 193 
Q 2250 -91 1575 -91 
Q 1294 -91 989 -36 
Q 684 19 347 128 
L 347 722 
Q 666 556 975 473 
Q 1284 391 1588 391 
Q 1994 391 2212 530 
Q 2431 669 2431 922 
Q 2431 1156 2273 1281 
Q 2116 1406 1581 1522 
L 1381 1569 
Q 847 1681 609 1914 
Q 372 2147 372 2553 
Q 372 3047 722 3315 
Q 1072 3584 1716 3584 
Q 2034 3584 2315 3537 
Q 2597 3491 2834 3397 
z
" transform="scale(0.015625)"/>
       <path id="DejaVuSans-5d" d="M 1947 4863 
L 1947 -844 
L 622 -844 
L 622 -397 
L 1369 -397 
L 1369 4416 
L 622 4416 
L 622 4863 
L 1947 4863 
z
" transform="scale(0.015625)"/>
      </defs>
      <use xlink:href="#DejaVuSans-74"/>
      <use xlink:href="#DejaVuSans-69" x="39.208984"/>
      <use xlink:href="#DejaVuSans-6a" x="66.992188"/>
      <use xlink:href="#DejaVuSans-64" x="94.775391"/>
      <use xlink:href="#DejaVuSans-20" x="158.251953"/>
      <use xlink:href="#DejaVuSans-5b" x="190.039062"/>
      <use xlink:href="#DejaVuSans-75" x="229.052734"/>
      <use xlink:href="#DejaVuSans-73" x="292.431641"/>
      <use xlink:href="#DejaVuSans-5d" x="344.53125"/>
     </g>
    </g>
   </g>
   <g id="matplotlib.axis_2">
    <g id="ytick_1">
     <g id="line2d_13">
      <path d="M 48.982813 406.645243 
L 718.582813 406.645243 
" clip-path="url(#p70e7153d08)" style="fill: none; stroke: #b0b0b0; stroke-width: 0.8; stroke-linecap: square"/>
     </g>
     <g id="line2d_14">
      <defs>
       <path id="me1a1294764" d="M 0 0 
L -3.5 0 
" style="stroke: #000000; stroke-width: 0.8"/>
      </defs>
      <g>
       <use xlink:href="#me1a1294764" x="48.982813" y="406.645243" style="stroke: #000000; stroke-width: 0.8"/>
      </g>
     </g>
     <g id="text_8">
      <!-- −10 -->
      <g transform="translate(20.878125 410.444462)scale(0.1 -0.1)">
       <defs>
        <path id="DejaVuSans-2212" d="M 678 2272 
L 4684 2272 
L 4684 1741 
L 678 1741 
L 678 2272 
z
" transform="scale(0.015625)"/>
       </defs>
       <use xlink:href="#DejaVuSans-2212"/>
       <use xlink:href="#DejaVuSans-31" x="83.789062"/>
       <use xlink:href="#DejaVuSans-30" x="147.412109"/>
      </g>
     </g>
    </g>
    <g id="ytick_2">
     <g id="line2d_15">
      <path d="M 48.982813 315.704713 
L 718.582813 315.704713 
" clip-path="url(#p70e7153d08)" style="fill: none; stroke: #b0b0b0; stroke-width: 0.8; stroke-linecap: square"/>
     </g>
     <g id="line2d_16">
      <g>
       <use xlink:href="#me1a1294764" x="48.982813" y="315.704713" style="stroke: #000000; stroke-width: 0.8"/>
      </g>
     </g>
     <g id="text_9">
      <!-- 0 -->
      <g transform="translate(35.620312 319.503931)scale(0.1 -0.1)">
       <use xlink:href="#DejaVuSans-30"/>
      </g>
     </g>
    </g>
    <g id="ytick_3">
     <g id="line2d_17">
      <path d="M 48.982813 224.764182 
L 718.582813 224.764182 
" clip-path="url(#p70e7153d08)" style="fill: none; stroke: #b0b0b0; stroke-width: 0.8; stroke-linecap: square"/>
     </g>
     <g id="line2d_18">
      <g>
       <use xlink:href="#me1a1294764" x="48.982813" y="224.764182" style="stroke: #000000; stroke-width: 0.8"/>
      </g>
     </g>
     <g id="text_10">
      <!-- 10 -->
      <g transform="translate(29.257812 228.563401)scale(0.1 -0.1)">
       <use xlink:href="#DejaVuSans-31"/>
       <use xlink:href="#DejaVuSans-30" x="63.623047"/>
      </g>
     </g>
    </g>
    <g id="ytick_4">
     <g id="line2d_19">
      <path d="M 48.982813 133.823652 
L 718.582813 133.823652 
" clip-path="url(#p70e7153d08)" style="fill: none; stroke: #b0b0b0; stroke-width: 0.8; stroke-linecap: square"/>
     </g>
     <g id="line2d_20">
      <g>
       <use xlink:href="#me1a1294764" x="48.982813" y="133.823652" style="stroke: #000000; stroke-width: 0.8"/>
      </g>
     </g>
     <g id="text_11">
      <!-- 20 -->
      <g transform="translate(29.257812 137.622871)scale(0.1 -0.1)">
       <use xlink:href="#DejaVuSans-32"/>
       <use xlink:href="#DejaVuSans-30" x="63.623047"/>
      </g>
     </g>
    </g>
    <g id="ytick_5">
     <g id="line2d_21">
      <path d="M 48.982813 42.883121 
L 718.582813 42.883121 
" clip-path="url(#p70e7153d08)" style="fill: none; stroke: #b0b0b0; stroke-width: 0.8; stroke-linecap: square"/>
     </g>
     <g id="line2d_22">
      <g>
       <use xlink:href="#me1a1294764" x="48.982813" y="42.883121" style="stroke: #000000; stroke-width: 0.8"/>
      </g>
     </g>
     <g id="text_12">
      <!-- 30 -->
      <g transform="translate(29.257812 46.68234)scale(0.1 -0.1)">
       <defs>
        <path id="DejaVuSans-33" d="M 2597 2516 
Q 3050 2419 3304 2112 
Q 3559 1806 3559 1356 
Q 3559 666 3084 287 
Q 2609 -91 1734 -91 
Q 1441 -91 1130 -33 
Q 819 25 488 141 
L 488 750 
Q 750 597 1062 519 
Q 1375 441 1716 441 
Q 2309 441 2620 675 
Q 2931 909 2931 1356 
Q 2931 1769 2642 2001 
Q 2353 2234 1838 2234 
L 1294 2234 
L 1294 2753 
L 1863 2753 
Q 2328 2753 2575 2939 
Q 2822 3125 2822 3475 
Q 2822 3834 2567 4026 
Q 2313 4219 1838 4219 
Q 1578 4219 1281 4162 
Q 984 4106 628 3988 
L 628 4550 
Q 988 4650 1302 4700 
Q 1616 4750 1894 4750 
Q 2613 4750 3031 4423 
Q 3450 4097 3450 3541 
Q 3450 3153 3228 2886 
Q 3006 2619 2597 2516 
z
" transform="scale(0.015625)"/>
       </defs>
       <use xlink:href="#DejaVuSans-33"/>
       <use xlink:href="#DejaVuSans-30" x="63.623047"/>
      </g>
     </g>
    </g>
    <g id="text_13">
     <!-- Voltage [V] -->
     <g transform="translate(14.798437 252.307187)rotate(-90)scale(0.1 -0.1)">
      <defs>
       <path id="DejaVuSans-56" d="M 1831 0 
L 50 4666 
L 709 4666 
L 2188 738 
L 3669 4666 
L 4325 4666 
L 2547 0 
L 1831 0 
z
" transform="scale(0.015625)"/>
       <path id="DejaVuSans-6f" d="M 1959 3097 
Q 1497 3097 1228 2736 
Q 959 2375 959 1747 
Q 959 1119 1226 758 
Q 1494 397 1959 397 
Q 2419 397 2687 759 
Q 2956 1122 2956 1747 
Q 2956 2369 2687 2733 
Q 2419 3097 1959 3097 
z
M 1959 3584 
Q 2709 3584 3137 3096 
Q 3566 2609 3566 1747 
Q 3566 888 3137 398 
Q 2709 -91 1959 -91 
Q 1206 -91 779 398 
Q 353 888 353 1747 
Q 353 2609 779 3096 
Q 1206 3584 1959 3584 
z
" transform="scale(0.015625)"/>
       <path id="DejaVuSans-6c" d="M 603 4863 
L 1178 4863 
L 1178 0 
L 603 0 
L 603 4863 
z
" transform="scale(0.015625)"/>
       <path id="DejaVuSans-61" d="M 2194 1759 
Q 1497 1759 1228 1600 
Q 959 1441 959 1056 
Q 959 750 1161 570 
Q 1363 391 1709 391 
Q 2188 391 2477 730 
Q 2766 1069 2766 1631 
L 2766 1759 
L 2194 1759 
z
M 3341 1997 
L 3341 0 
L 2766 0 
L 2766 531 
Q 2569 213 2275 61 
Q 1981 -91 1556 -91 
Q 1019 -91 701 211 
Q 384 513 384 1019 
Q 384 1609 779 1909 
Q 1175 2209 1959 2209 
L 2766 2209 
L 2766 2266 
Q 2766 2663 2505 2880 
Q 2244 3097 1772 3097 
Q 1472 3097 1187 3025 
Q 903 2953 641 2809 
L 641 3341 
Q 956 3463 1253 3523 
Q 1550 3584 1831 3584 
Q 2591 3584 2966 3190 
Q 3341 2797 3341 1997 
z
" transform="scale(0.015625)"/>
       <path id="DejaVuSans-67" d="M 2906 1791 
Q 2906 2416 2648 2759 
Q 2391 3103 1925 3103 
Q 1463 3103 1205 2759 
Q 947 2416 947 1791 
Q 947 1169 1205 825 
Q 1463 481 1925 481 
Q 2391 481 2648 825 
Q 2906 1169 2906 1791 
z
M 3481 434 
Q 3481 -459 3084 -895 
Q 2688 -1331 1869 -1331 
Q 1566 -1331 1297 -1286 
Q 1028 -1241 775 -1147 
L 775 -588 
Q 1028 -725 1275 -790 
Q 1522 -856 1778 -856 
Q 2344 -856 2625 -561 
Q 2906 -266 2906 331 
L 2906 616 
Q 2728 306 2450 153 
Q 2172 0 1784 0 
Q 1141 0 747 490 
Q 353 981 353 1791 
Q 353 2603 747 3093 
Q 1141 3584 1784 3584 
Q 2172 3584 2450 3431 
Q 2728 3278 2906 2969 
L 2906 3500 
L 3481 3500 
L 3481 434 
z
" transform="scale(0.015625)"/>
       <path id="DejaVuSans-65" d="M 3597 1894 
L 3597 1613 
L 953 1613 
Q 991 1019 1311 708 
Q 1631 397 2203 397 
Q 2534 397 2845 478 
Q 3156 559 3463 722 
L 3463 178 
Q 3153 47 2828 -22 
Q 2503 -91 2169 -91 
Q 1331 -91 842 396 
Q 353 884 353 1716 
Q 353 2575 817 3079 
Q 1281 3584 2069 3584 
Q 2775 3584 3186 3129 
Q 3597 2675 3597 1894 
z
M 3022 2063 
Q 3016 2534 2758 2815 
Q 2500 3097 2075 3097 
Q 1594 3097 1305 2825 
Q 1016 2553 972 2059 
L 3022 2063 
z
" transform="scale(0.015625)"/>
      </defs>
      <use xlink:href="#DejaVuSans-56"/>
      <use xlink:href="#DejaVuSans-6f" x="60.658203"/>
      <use xlink:href="#DejaVuSans-6c" x="121.839844"/>
      <use xlink:href="#DejaVuSans-74" x="149.623047"/>
      <use xlink:href="#DejaVuSans-61" x="188.832031"/>
      <use xlink:href="#DejaVuSans-67" x="250.111328"/>
      <use xlink:href="#DejaVuSans-65" x="313.587891"/>
      <use xlink:href="#DejaVuSans-20" x="375.111328"/>
      <use xlink:href="#DejaVuSans-5b" x="406.898438"/>
      <use xlink:href="#DejaVuSans-56" x="445.912109"/>
      <use xlink:href="#DejaVuSans-5d" x="514.320312"/>
     </g>
    </g>
   </g>
   <g id="line2d_23">
    <path d="M 48.982813 313.782262 
L 49.026738 313.782186 
L 49.04013 313.669372 
L 49.30797 277.94058 
L 50.323352 140.870666 
L 50.435845 140.908719 
L 51.600949 141.126309 
L 53.837413 141.292224 
L 58.417476 141.38383 
L 64.591188 141.275826 
L 69.070813 141.010325 
L 69.072152 141.188274 
L 70.410013 308.783462 
L 70.41403 308.766109 
L 70.711333 308.456842 
L 71.287189 308.240013 
L 72.626389 308.01944 
L 75.385141 307.826662 
L 79.791109 307.756389 
L 85.241653 307.894584 
L 89.158813 308.147058 
L 89.160152 307.967956 
L 90.498013 128.089769 
L 90.585061 128.229145 
L 90.678805 128.602666 
L 90.718981 130.356091 
L 90.875449 140.650184 
L 91.076329 140.836797 
L 92.710153 141.232143 
L 96.593833 141.457814 
L 102.821113 141.45866 
L 108.110953 141.254556 
L 109.246813 141.175272 
L 110.586013 321.580653 
L 110.699845 321.487241 
L 110.887333 321.176079 
L 110.954293 320.54745 
L 110.994469 313.236205 
L 111.101262 308.659149 
L 111.114654 308.670369 
L 111.275358 308.49524 
L 111.48963 308.36773 
L 111.797646 308.25059 
L 112.668126 308.069704 
L 113.672526 307.946342 
L 120.234606 307.715712 
L 126.82347 307.906686 
L 129.334813 308.076117 
L 130.674013 127.893941 
L 130.787845 127.973407 
L 131.042293 128.306784 
L 131.109253 128.678688 
L 131.136037 129.731171 
L 131.295998 140.684475 
L 131.30939 140.675297 
L 131.483486 140.837616 
L 131.657582 140.921431 
L 131.938814 141.026486 
L 132.51467 141.151111 
L 133.25123 141.253222 
L 142.063166 141.487544 
L 149.294846 141.21102 
L 149.422813 141.201561 
L 150.762013 321.646379 
L 150.875845 321.577771 
L 151.143685 321.277888 
L 151.237429 320.779301 
L 151.277605 316.602904 
L 151.408277 308.649982 
L 151.890389 308.318057 
L 153.095669 308.047428 
L 155.800853 307.812732 
L 160.260389 307.712908 
L 165.335957 307.821277 
L 169.510813 308.064703 
L 169.512152 307.885035 
L 170.850013 127.868801 
L 170.937061 127.924103 
L 171.245077 128.246337 
L 171.338821 128.715178 
L 171.365605 129.999761 
L 171.525363 140.663983 
L 171.980691 140.963834 
L 173.105619 141.20731 
L 175.703667 141.412278 
L 180.498003 141.501536 
L 186.658323 141.368753 
L 189.598813 141.205326 
L 190.938013 321.65586 
L 191.051845 321.590297 
L 191.333077 321.292459 
L 191.426821 320.878084 
L 191.453605 320.014477 
L 191.63464 308.591434 
L 191.648032 308.616526 
L 191.795344 308.457646 
L 191.90248 308.395759 
L 192.049792 308.337139 
L 192.277456 308.250844 
L 192.585472 308.175399 
L 193.000624 308.09186 
L 193.763968 307.988019 
L 194.688016 307.897948 
L 197.701216 307.747156 
L 200.312656 307.713061 
L 208.254112 307.960223 
L 209.686813 308.063244 
L 211.026013 127.865417 
L 211.139845 127.935536 
L 211.434469 128.25823 
L 211.514821 128.621224 
L 211.554997 130.80055 
L 211.695297 140.670367 
L 211.708689 140.637123 
L 211.775649 140.758113 
L 211.869393 140.807932 
L 212.043489 140.919103 
L 212.217585 140.979406 
L 212.472033 141.060233 
L 212.847009 141.139451 
L 213.449649 141.226919 
L 214.212993 141.306778 
L 216.154833 141.423473 
L 218.217201 141.48284 
L 221.136657 141.499631 
L 224.966769 141.434232 
L 229.118289 141.250782 
L 229.774813 141.205662 
L 229.775444 141.289601 
L 231.114013 321.656767 
L 231.214453 321.599216 
L 231.495685 321.32439 
L 231.602821 320.906062 
L 231.642997 318.735026 
L 231.783861 308.627453 
L 231.797253 308.657404 
L 231.864213 308.541922 
L 231.877605 308.557641 
L 231.890997 308.518816 
L 231.957957 308.487362 
L 232.132053 308.371044 
L 232.306149 308.306655 
L 232.560597 308.221597 
L 232.948965 308.136339 
L 233.457861 308.050655 
L 234.194421 307.959381 
L 236.055909 307.819868 
L 237.970965 307.744506 
L 246.608805 307.860811 
L 249.862813 308.063142 
L 249.864152 307.883493 
L 251.202013 127.865104 
L 251.289061 127.919549 
L 251.610469 128.256506 
L 251.704213 128.804311 
L 251.744389 133.809087 
L 251.871794 140.666541 
L 251.885186 140.638979 
L 251.952146 140.755351 
L 252.04589 140.808059 
L 252.219986 140.918231 
L 252.394082 140.979558 
L 252.675314 141.066477 
L 253.11725 141.153162 
L 253.693106 141.236562 
L 255.099266 141.358808 
L 256.692914 141.438035 
L 267.285986 141.357044 
L 269.950813 141.205767 
L 271.290013 321.657029 
L 271.403845 321.591851 
L 271.698469 321.269476 
L 271.778821 320.907859 
L 271.818997 318.763886 
L 271.959924 308.628369 
L 271.973316 308.656865 
L 272.040276 308.542506 
L 272.13402 308.48716 
L 272.308116 308.371277 
L 272.482212 308.306628 
L 272.750052 308.222428 
L 273.111636 308.136232 
L 273.767844 308.031913 
L 274.584756 307.938207 
L 277.035492 307.78188 
L 279.338916 307.721879 
L 282.51282 307.727657 
L 289.67754 308.034547 
L 290.038813 308.063151 
L 291.378013 127.865105 
L 291.491845 127.935117 
L 291.786469 128.256482 
L 291.880213 128.804057 
L 291.920389 133.804814 
L 292.047801 140.666436 
L 292.061193 140.639029 
L 292.101369 140.729619 
L 292.114761 140.715806 
L 292.262073 140.849606 
L 292.275465 140.84367 
L 292.462953 140.938476 
L 292.704009 141.02265 
L 293.025417 141.102435 
L 293.480745 141.183124 
L 294.150345 141.266399 
L 295.154745 141.351545 
L 307.180761 141.369132 
L 310.126813 141.205759 
L 311.466013 321.657019 
L 311.579844 321.591838 
L 311.874468 321.269434 
L 311.95482 320.90768 
L 311.994996 318.761163 
L 312.135917 308.628283 
L 312.149309 308.656922 
L 312.216269 308.542453 
L 312.310013 308.487184 
L 312.484109 308.371259 
L 312.658205 308.306636 
L 312.926045 308.222434 
L 313.287629 308.136228 
L 313.943837 308.031917 
L 314.760749 307.938208 
L 317.184701 307.782986 
L 319.474733 307.722133 
L 327.603677 307.892608 
L 330.214813 308.063156 
L 331.554013 127.865113 
L 331.667844 127.935127 
L 331.962468 128.256518 
L 332.056212 128.804358 
L 332.096388 133.809578 
L 332.223793 140.666544 
L 332.237185 140.638967 
L 332.304145 140.755352 
L 332.397889 140.808051 
L 332.571985 140.918225 
L 332.746081 140.97955 
L 333.027313 141.06647 
L 333.469249 141.153153 
L 334.045105 141.236553 
L 335.451265 141.358798 
L 337.044913 141.438025 
L 347.637985 141.357035 
L 350.302813 141.205758 
L 351.642013 321.657015 
L 351.755844 321.591833 
L 352.050468 321.269413 
L 352.13082 320.90759 
L 352.170996 318.759732 
L 352.311914 308.628237 
L 352.325306 308.656953 
L 352.392266 308.542424 
L 352.48601 308.487196 
L 352.660106 308.371248 
L 352.834202 308.306638 
L 353.102042 308.222436 
L 353.463626 308.136225 
L 354.119834 308.031918 
L 354.936746 307.938207 
L 357.360698 307.782987 
L 359.65073 307.722133 
L 367.793066 307.893223 
L 370.390813 308.063157 
L 371.730013 127.865115 
L 371.843844 127.93513 
L 372.138468 128.256528 
L 372.232212 128.804443 
L 372.272388 133.81092 
L 372.399791 140.666575 
L 372.413183 140.63895 
L 372.480143 140.755375 
L 372.573887 140.808049 
L 372.747983 140.918232 
L 372.922079 140.979548 
L 373.203311 141.066472 
L 373.645247 141.153153 
L 374.221103 141.236554 
L 375.627263 141.358798 
L 377.220911 141.438025 
L 387.827375 141.356566 
L 390.478813 141.205757 
L 391.818013 321.657014 
L 391.931844 321.591832 
L 392.226468 321.269409 
L 392.30682 320.907571 
L 392.346996 318.759428 
L 392.487913 308.628227 
L 392.501305 308.656959 
L 392.568265 308.542418 
L 392.662009 308.487199 
L 392.836105 308.371246 
L 393.010201 308.306639 
L 393.278041 308.222437 
L 393.639625 308.136224 
L 394.295833 308.031918 
L 395.112745 307.938207 
L 397.536697 307.782987 
L 399.826729 307.722133 
L 407.969065 307.893223 
L 410.566813 308.063157 
L 411.906013 127.865115 
L 412.019844 127.93513 
L 412.314468 128.256529 
L 412.408212 128.804458 
L 412.448388 133.811155 
L 412.575791 140.66658 
L 412.589183 140.638947 
L 412.656143 140.755379 
L 412.749887 140.808049 
L 412.923983 140.918234 
L 413.098079 140.979548 
L 413.379311 141.066473 
L 413.821247 141.153152 
L 414.397103 141.236554 
L 415.803263 141.358798 
L 417.396911 141.438025 
L 428.003375 141.356566 
L 430.654813 141.205757 
L 431.994013 321.657014 
L 432.107844 321.591832 
L 432.402468 321.269408 
L 432.48282 320.907569 
L 432.522996 318.759383 
L 432.663913 308.628226 
L 432.677305 308.65696 
L 432.744265 308.542417 
L 432.838009 308.487199 
L 433.012105 308.371245 
L 433.186201 308.306639 
L 433.454041 308.222437 
L 433.815625 308.136224 
L 434.471833 308.031918 
L 435.288745 307.938207 
L 437.712697 307.782987 
L 440.002729 307.722133 
L 448.145065 307.893223 
L 450.742813 308.063157 
L 452.082013 127.865115 
L 452.195844 127.93513 
L 452.490468 128.25653 
L 452.584212 128.804459 
L 452.624388 133.811184 
L 452.751791 140.666581 
L 452.765183 140.638947 
L 452.832143 140.75538 
L 452.925887 140.808049 
L 453.099983 140.918234 
L 453.274079 140.979548 
L 453.555311 141.066473 
L 453.997247 141.153152 
L 454.573103 141.236554 
L 455.979263 141.358798 
L 457.572911 141.438025 
L 468.179375 141.356566 
L 470.830813 141.205757 
L 472.170013 321.657014 
L 472.283844 321.591832 
L 472.578468 321.269408 
L 472.65882 320.907568 
L 472.698996 318.759379 
L 472.839913 308.628226 
L 472.853305 308.65696 
L 472.920265 308.542417 
L 473.014009 308.487199 
L 473.188105 308.371245 
L 473.362201 308.306639 
L 473.630041 308.222437 
L 473.991625 308.136224 
L 474.647833 308.031918 
L 475.464745 307.938207 
L 477.888697 307.782987 
L 480.178729 307.722133 
L 488.321065 307.893223 
L 490.918813 308.063157 
L 492.258013 127.865115 
L 492.371844 127.93513 
L 492.666468 128.25653 
L 492.760212 128.80446 
L 492.800388 133.811186 
L 492.927791 140.666581 
L 492.941183 140.638947 
L 493.008143 140.75538 
L 493.101887 140.808049 
L 493.275983 140.918234 
L 493.450079 140.979548 
L 493.731311 141.066473 
L 494.173247 141.153152 
L 494.749103 141.236554 
L 496.155263 141.358798 
L 497.748911 141.438025 
L 508.355375 141.356566 
L 511.006813 141.205757 
L 512.346013 321.657014 
L 512.459844 321.591832 
L 512.754468 321.269408 
L 512.83482 320.907568 
L 512.874996 318.759379 
L 513.015913 308.628226 
L 513.029305 308.65696 
L 513.096265 308.542417 
L 513.190009 308.487199 
L 513.364105 308.371245 
L 513.538201 308.306639 
L 513.806041 308.222437 
L 514.167625 308.136224 
L 514.823833 308.031918 
L 515.640745 307.938207 
L 518.064697 307.782987 
L 520.354729 307.722133 
L 528.497065 307.893223 
L 531.094813 308.063157 
L 532.434013 127.865115 
L 532.547844 127.93513 
L 532.842468 128.25653 
L 532.936212 128.80446 
L 532.976388 133.811185 
L 533.103791 140.666581 
L 533.117183 140.638947 
L 533.184143 140.75538 
L 533.277887 140.808049 
L 533.451983 140.918234 
L 533.626079 140.979548 
L 533.907311 141.066473 
L 534.349247 141.153152 
L 534.925103 141.236554 
L 536.331263 141.358798 
L 537.924911 141.438025 
L 548.531375 141.356566 
L 551.182813 141.205757 
L 552.522013 321.657014 
L 552.635844 321.591832 
L 552.930468 321.269408 
L 553.01082 320.907568 
L 553.050996 318.759379 
L 553.191913 308.628226 
L 553.205305 308.65696 
L 553.272265 308.542417 
L 553.366009 308.487199 
L 553.540105 308.371245 
L 553.714201 308.306639 
L 553.982041 308.222437 
L 554.343625 308.136224 
L 554.999833 308.031918 
L 555.816745 307.938207 
L 558.240697 307.782987 
L 560.530729 307.722133 
L 568.673065 307.893223 
L 571.270813 308.063157 
L 572.610013 127.865115 
L 572.723845 127.93513 
L 573.018469 128.25653 
L 573.112213 128.80446 
L 573.152389 133.811185 
L 573.279791 140.666581 
L 573.293183 140.638947 
L 573.360143 140.75538 
L 573.453887 140.808049 
L 573.627983 140.918234 
L 573.802079 140.979548 
L 574.083311 141.066473 
L 574.525247 141.153152 
L 575.101103 141.236554 
L 576.507263 141.358798 
L 578.100911 141.438025 
L 588.707375 141.356566 
L 591.358813 141.205757 
L 592.698013 321.657014 
L 592.811845 321.591832 
L 593.106469 321.269408 
L 593.186821 320.907568 
L 593.226997 318.759379 
L 593.367913 308.628226 
L 593.381305 308.65696 
L 593.448265 308.542417 
L 593.542009 308.487199 
L 593.716105 308.371245 
L 593.890201 308.306639 
L 594.158041 308.222437 
L 594.519625 308.136224 
L 595.175833 308.031918 
L 595.992745 307.938207 
L 598.416697 307.782987 
L 600.706729 307.722133 
L 608.849065 307.893223 
L 611.446813 308.063157 
L 612.786013 127.865115 
L 612.899845 127.93513 
L 613.194469 128.25653 
L 613.288213 128.80446 
L 613.328389 133.811185 
L 613.455791 140.666581 
L 613.469183 140.638947 
L 613.536143 140.75538 
L 613.629887 140.808049 
L 613.803983 140.918234 
L 613.978079 140.979548 
L 614.259311 141.066473 
L 614.701247 141.153152 
L 615.277103 141.236554 
L 616.683263 141.358798 
L 618.276911 141.438025 
L 628.883375 141.356566 
L 631.534813 141.205757 
L 632.874013 321.657014 
L 632.987845 321.591832 
L 633.282469 321.269408 
L 633.362821 320.907568 
L 633.402997 318.759379 
L 633.543913 308.628226 
L 633.557305 308.65696 
L 633.624265 308.542417 
L 633.718009 308.487199 
L 633.892105 308.371245 
L 634.066201 308.306639 
L 634.334041 308.222437 
L 634.695625 308.136224 
L 635.351833 308.031918 
L 636.168745 307.938207 
L 638.592697 307.782987 
L 640.882729 307.722133 
L 649.025065 307.893223 
L 651.622813 308.063157 
L 652.962013 127.865115 
L 653.075845 127.93513 
L 653.370469 128.25653 
L 653.464213 128.804459 
L 653.504389 133.811185 
L 653.631791 140.666581 
L 653.645183 140.638947 
L 653.712143 140.75538 
L 653.805887 140.808049 
L 653.979983 140.918234 
L 654.154079 140.979548 
L 654.435311 141.066473 
L 654.877247 141.153152 
L 655.453103 141.236554 
L 656.859263 141.358798 
L 658.452911 141.438025 
L 669.059375 141.356566 
L 671.710813 141.205757 
L 673.050013 321.657014 
L 673.163845 321.591832 
L 673.458469 321.269408 
L 673.538821 320.907568 
L 673.578997 318.759379 
L 673.719913 308.628226 
L 673.733305 308.65696 
L 673.800265 308.542417 
L 673.894009 308.487199 
L 674.068105 308.371245 
L 674.242201 308.306639 
L 674.510041 308.222437 
L 674.871625 308.136224 
L 675.527833 308.031918 
L 676.344745 307.938207 
L 678.768697 307.782987 
L 681.058729 307.722133 
L 689.201065 307.893223 
L 691.798813 308.063157 
L 693.138013 127.865115 
L 693.251845 127.93513 
L 693.546469 128.25653 
L 693.640213 128.804459 
L 693.680389 133.811185 
L 693.807791 140.666581 
L 693.821183 140.638947 
L 693.888143 140.75538 
L 693.981887 140.808049 
L 694.155983 140.918234 
L 694.330079 140.979548 
L 694.611311 141.066473 
L 695.053247 141.153152 
L 695.629103 141.236554 
L 697.035263 141.358798 
L 698.628911 141.438025 
L 709.235375 141.356566 
L 711.886813 141.205757 
L 713.226013 321.657014 
L 713.339845 321.591832 
L 713.634469 321.269408 
L 713.714821 320.907568 
L 713.754997 318.759379 
L 713.895913 308.628226 
L 713.909305 308.65696 
L 713.976265 308.542417 
L 714.070009 308.487199 
L 714.244105 308.371245 
L 714.418201 308.306639 
L 714.686041 308.222437 
L 715.047625 308.136224 
L 715.703833 308.031918 
L 716.520745 307.938207 
L 718.582813 307.798455 
L 718.582813 307.798455 
" clip-path="url(#p70e7153d08)" style="fill: none; stroke: #1f77b4; stroke-width: 1.5; stroke-linecap: square"/>
   </g>
   <g id="line2d_24">
    <path d="M 48.982813 313.782262 
L 49.17405 313.676364 
L 49.361538 313.155566 
L 49.629378 311.636289 
L 49.97757 308.245561 
L 50.435845 301.314826 
L 51.922357 273.895937 
L 54.279349 225.657522 
L 57.466645 161.279211 
L 59.194212 130.878453 
L 60.613764 109.598796 
L 61.85922 94.109533 
L 62.957364 83.083084 
L 63.93498 75.386552 
L 64.792068 70.273869 
L 65.54202 67.027209 
L 66.198228 65.096999 
L 66.7473 64.111747 
L 67.189236 63.720226 
L 67.564212 63.658909 
L 67.925796 63.827237 
L 68.340948 64.285756 
L 68.849844 65.217163 
L 69.224821 66.296184 
L 69.506053 68.160088 
L 69.867637 72.224678 
L 70.322965 80.091885 
L 71.340757 102.538805 
L 72.934405 142.577666 
L 76.068133 228.494111 
L 78.438517 290.210746 
L 80.085733 327.575957 
L 81.465109 354.112188 
L 82.670389 373.279191 
L 83.741749 386.991417 
L 84.692581 396.49719 
L 85.536277 402.850736 
L 86.272837 406.834016 
L 86.902261 409.119515 
L 87.424549 410.261413 
L 87.839701 410.698319 
L 88.174501 410.757066 
L 88.495909 410.574531 
L 88.870885 410.075445 
L 89.259253 409.184134 
L 89.500309 407.854762 
L 89.835109 404.581252 
L 90.263653 397.89235 
L 90.942409 382.868027 
L 92.268217 349.762692 
L 94.102921 297.815344 
L 99.084745 154.031643 
L 100.691785 115.415097 
L 102.044377 87.964235 
L 103.236265 68.057527 
L 104.294233 53.914779 
L 105.231673 44.188459 
L 106.061977 37.751464 
L 106.771753 33.831086 
L 107.374393 31.610429 
L 107.869897 30.520026 
L 108.271657 30.10618 
L 108.593065 30.068534 
L 108.901081 30.269819 
L 109.266901 30.803573 
L 109.454389 31.457758 
L 109.722229 33.29718 
L 110.083813 37.515275 
L 110.539141 45.751751 
L 111.797646 75.674619 
L 113.310942 116.976954 
L 115.828638 192.868588 
L 118.761486 279.366271 
L 120.475662 323.51078 
L 121.895214 354.649599 
L 123.127278 377.081223 
L 124.225422 393.23793 
L 125.203038 404.51287 
L 126.060126 412.000137 
L 126.810078 416.7522 
L 127.452894 419.529335 
L 127.988574 420.961683 
L 128.417118 421.550839 
L 128.751918 421.678226 
L 129.046542 421.556053 
L 129.368293 421.172648 
L 129.555781 420.545628 
L 129.823621 418.738121 
L 130.185205 414.550469 
L 130.640533 406.332069 
L 131.91203 376.163144 
L 133.411934 335.233773 
L 135.822494 262.386229 
L 138.902654 170.810538 
L 140.630222 126.006648 
L 142.049774 94.646067 
L 143.281838 72.041144 
L 144.379982 55.748503 
L 145.357598 44.36906 
L 146.214686 36.80383 
L 146.964638 31.994374 
L 147.607454 29.176197 
L 148.143134 27.7154 
L 148.571678 27.107226 
L 148.906478 26.967273 
L 149.201102 27.080032 
L 149.496469 27.441584 
L 149.697349 28.216911 
L 149.978581 30.323981 
L 150.353557 35.038668 
L 150.822277 44.060422 
L 152.225189 77.841576 
L 153.792053 121.396943 
L 156.657941 208.710765 
L 159.215813 283.647426 
L 160.903205 326.793195 
L 162.309365 357.324855 
L 163.528037 379.224148 
L 164.612789 394.936652 
L 165.577013 405.858583 
L 166.420709 413.079625 
L 167.157269 417.640279 
L 167.786693 420.289274 
L 168.308981 421.644476 
L 168.724133 422.195467 
L 169.058933 422.311435 
L 169.353557 422.178202 
L 169.611253 421.824354 
L 169.825525 420.909078 
L 170.120149 418.515628 
L 170.508517 413.295859 
L 171.017413 402.982358 
L 172.476195 367.434809 
L 174.096627 321.838324 
L 180.658707 130.810402 
L 182.105043 98.148105 
L 183.363891 74.467952 
L 184.475427 57.507069 
L 185.466435 45.590496 
L 186.336915 37.611912 
L 187.100259 32.494689 
L 187.756467 29.458519 
L 188.305539 27.853004 
L 188.747475 27.157555 
L 189.095667 26.971949 
L 189.390291 27.056746 
L 189.672469 27.373073 
L 189.873349 28.124016 
L 190.154581 30.197838 
L 190.529557 34.86987 
L 190.998277 43.841168 
L 192.384592 77.088311 
L 193.938064 120.087337 
L 196.683424 203.559743 
L 199.348432 281.918188 
L 201.049216 325.583571 
L 202.455376 356.28038 
L 203.68744 378.559989 
L 204.772192 394.381821 
L 205.736416 405.404111 
L 206.593504 412.81226 
L 207.343456 417.489365 
L 207.97288 420.15448 
L 208.495168 421.523267 
L 208.923712 422.095679 
L 209.258512 422.208897 
L 209.553136 422.073521 
L 209.787253 421.751576 
L 210.001525 420.84706 
L 210.296149 418.468166 
L 210.684517 413.26712 
L 211.180021 403.279288 
L 212.619345 368.344766 
L 214.226385 323.307328 
L 217.694913 217.678766 
L 219.891201 155.097606 
L 221.498241 115.333093 
L 222.864225 86.783401 
L 224.056113 66.289394 
L 225.114081 51.719655 
L 226.051521 41.691004 
L 226.881825 35.045873 
L 227.604993 30.928887 
L 228.207633 28.64794 
L 228.703137 27.527915 
L 229.104897 27.102811 
L 229.412913 27.060497 
L 229.720929 27.257002 
L 229.901535 27.578853 
L 230.115807 28.567025 
L 230.423823 31.209391 
L 230.825583 36.884093 
L 231.361765 48.109889 
L 232.882005 85.541844 
L 234.569397 133.528005 
L 240.609189 310.456508 
L 242.109093 345.438447 
L 243.408117 370.782215 
L 244.546437 388.876504 
L 245.550837 401.543005 
L 246.448101 410.235599 
L 247.238229 415.874071 
L 247.921221 419.268878 
L 248.497077 421.101833 
L 248.952405 421.908316 
L 249.313989 422.158149 
L 249.608613 422.113884 
L 249.909685 421.831979 
L 250.097173 421.228778 
L 250.365013 419.451212 
L 250.726597 415.296446 
L 251.168533 407.396123 
L 252.394082 378.610366 
L 253.85381 339.242765 
L 256.103666 271.710951 
L 259.505234 170.363064 
L 261.21941 125.976332 
L 262.638962 94.650372 
L 263.871026 72.072016 
L 264.96917 55.799886 
L 265.946786 44.435977 
L 266.803874 36.882169 
L 267.553826 32.080999 
L 268.196642 29.268654 
L 268.732322 27.811833 
L 269.160866 27.20627 
L 269.495666 27.068009 
L 269.79029 27.182011 
L 270.037861 27.4901 
L 270.238741 28.27682 
L 270.519973 30.402131 
L 270.894949 35.145144 
L 271.363669 44.196051 
L 272.750052 77.468619 
L 274.303524 120.484628 
L 277.075668 204.756223 
L 279.713892 282.223941 
L 281.414676 325.829174 
L 282.820836 356.471446 
L 284.0529 378.70203 
L 285.137652 394.481151 
L 286.101876 405.466704 
L 286.958964 412.843707 
L 287.695524 417.42644 
L 288.33834 420.139769 
L 288.860628 421.492588 
L 289.27578 422.042409 
L 289.61058 422.157887 
L 289.905204 422.024549 
L 290.139253 421.704347 
L 290.353525 420.801393 
L 290.648149 418.424673 
L 291.036517 413.226532 
L 291.532021 403.242448 
L 292.971849 368.304671 
L 294.578889 323.277446 
L 298.047417 217.67092 
L 300.243705 155.101817 
L 301.850745 115.344532 
L 303.216729 86.799745 
L 304.408617 66.309033 
L 305.466585 51.741445 
L 306.404025 41.714103 
L 307.234329 35.06968 
L 307.957497 30.95298 
L 308.560137 28.67205 
L 309.055641 27.551895 
L 309.457401 27.126595 
L 309.765417 27.084078 
L 310.073433 27.280337 
L 310.254036 27.602812 
L 310.468308 28.592123 
L 310.776324 31.236165 
L 311.178084 36.913112 
L 311.713764 48.128886 
L 313.234061 85.558539 
L 314.921453 133.540213 
L 320.961245 310.453796 
L 322.461149 345.433074 
L 323.760173 370.775011 
L 324.898493 388.868072 
L 325.902893 401.53378 
L 326.800157 410.225892 
L 327.590285 415.86411 
L 328.273277 419.258818 
L 328.849133 421.091774 
L 329.304461 421.89831 
L 329.666045 422.148216 
L 329.960669 422.104029 
L 330.261685 421.822293 
L 330.449172 421.219186 
L 330.717012 419.441765 
L 331.078596 415.287213 
L 331.520532 407.387179 
L 332.746081 378.602368 
L 334.205809 339.236078 
L 336.455665 271.706522 
L 339.857233 170.362036 
L 341.571409 125.976798 
L 342.990961 94.651893 
L 344.223025 72.074301 
L 345.321169 55.802721 
L 346.298785 44.439198 
L 347.155873 36.885648 
L 347.905825 32.084643 
L 348.548641 29.272396 
L 349.084321 27.815626 
L 349.512865 27.210084 
L 349.847665 27.07183 
L 350.142289 27.185829 
L 350.38986 27.493911 
L 350.59074 28.280621 
L 350.871972 30.405912 
L 351.246948 35.14889 
L 351.715668 44.199739 
L 353.102042 77.471764 
L 354.655514 120.487319 
L 357.427658 204.757943 
L 360.065882 282.224693 
L 361.766666 325.829349 
L 363.172826 356.471197 
L 364.40489 378.70146 
L 365.489642 394.48034 
L 366.453866 405.465715 
L 367.310954 412.842589 
L 368.047514 417.425233 
L 368.69033 420.1385 
L 369.212618 421.491279 
L 369.62777 422.041076 
L 369.96257 422.15654 
L 370.257194 422.023191 
L 370.491252 421.702969 
L 370.705524 420.800006 
L 371.000148 418.423277 
L 371.388516 413.225127 
L 371.88402 403.24104 
L 373.323839 368.303571 
L 374.930879 323.276481 
L 378.399407 217.670343 
L 380.595695 155.101507 
L 382.202735 115.344407 
L 383.568719 86.799763 
L 384.760607 66.309162 
L 385.818575 51.74166 
L 386.756015 41.714383 
L 387.586319 35.070009 
L 388.309487 30.953345 
L 388.912127 28.67244 
L 389.407631 27.552302 
L 389.809391 27.127014 
L 390.117407 27.084505 
L 390.425423 27.280771 
L 390.606036 27.603263 
L 390.820308 28.592582 
L 391.128324 31.236635 
L 391.530084 36.913594 
L 392.065764 48.129382 
L 393.586057 85.55893 
L 395.273449 133.540578 
L 401.313241 310.453958 
L 402.813145 345.433177 
L 404.112169 370.775064 
L 405.250489 388.868084 
L 406.254889 401.533761 
L 407.152153 410.225846 
L 407.942281 415.864043 
L 408.625273 419.258735 
L 409.201129 421.091679 
L 409.656457 421.898206 
L 410.018041 422.148106 
L 410.312665 422.103914 
L 410.613685 421.822168 
L 410.801172 421.219057 
L 411.069012 419.44163 
L 411.430596 415.287071 
L 411.872532 407.387028 
L 413.098079 378.602267 
L 414.557807 339.235974 
L 416.807663 271.706424 
L 420.209231 170.361962 
L 421.923407 125.97674 
L 423.342959 94.65185 
L 424.575023 72.074271 
L 425.673167 55.802702 
L 426.650783 44.439189 
L 427.507871 36.885646 
L 428.257823 32.084647 
L 428.900639 29.272405 
L 429.436319 27.815639 
L 429.864863 27.210101 
L 430.199663 27.071848 
L 430.494287 27.185849 
L 430.74186 27.493936 
L 430.94274 28.280648 
L 431.223972 30.405943 
L 431.598948 35.148925 
L 432.067668 44.199778 
L 433.454041 77.471792 
L 435.007513 120.487354 
L 437.779657 204.757982 
L 440.417881 282.22473 
L 442.118665 325.829382 
L 443.524825 356.471226 
L 444.756889 378.701484 
L 445.841641 394.480361 
L 446.805865 405.465732 
L 447.662953 412.842602 
L 448.399513 417.425243 
L 449.042329 420.138508 
L 449.564617 421.491285 
L 449.979769 422.041081 
L 450.314569 422.156543 
L 450.609193 422.023193 
L 450.843252 421.702969 
L 451.057524 420.800006 
L 451.352148 418.423275 
L 451.740516 413.225123 
L 452.23602 403.241034 
L 453.675839 368.30357 
L 455.282879 323.276477 
L 458.751407 217.670334 
L 460.947695 155.101496 
L 462.554735 115.344396 
L 463.920719 86.799752 
L 465.112607 66.309152 
L 466.170575 51.741651 
L 467.108015 41.714374 
L 467.938319 35.070001 
L 468.661487 30.953338 
L 469.264127 28.672433 
L 469.759631 27.552296 
L 470.161391 27.127009 
L 470.469407 27.0845 
L 470.777423 27.280766 
L 470.958036 27.603259 
L 471.172308 28.592579 
L 471.480324 31.236632 
L 471.882084 36.913592 
L 472.417764 48.129381 
L 473.938057 85.558928 
L 475.625449 133.540578 
L 481.665241 310.453963 
L 483.165145 345.433182 
L 484.464169 370.77507 
L 485.602489 388.86809 
L 486.606889 401.533766 
L 487.504153 410.225851 
L 488.294281 415.864047 
L 488.977273 419.258739 
L 489.553129 421.091683 
L 490.008457 421.89821 
L 490.370041 422.14811 
L 490.664665 422.103918 
L 490.965685 421.822171 
L 491.153172 421.21906 
L 491.421012 419.441633 
L 491.782596 415.287073 
L 492.224532 407.38703 
L 493.450079 378.602269 
L 494.909807 339.235976 
L 497.159663 271.706424 
L 500.561231 170.361961 
L 502.275407 125.976738 
L 503.694959 94.651848 
L 504.927023 72.074269 
L 506.025167 55.8027 
L 507.002783 44.439187 
L 507.859871 36.885644 
L 508.609823 32.084645 
L 509.252639 29.272403 
L 509.788319 27.815637 
L 510.216863 27.210099 
L 510.551663 27.071846 
L 510.846287 27.185847 
L 511.09386 27.493934 
L 511.29474 28.280647 
L 511.575972 30.405941 
L 511.950948 35.148923 
L 512.419668 44.199777 
L 513.806041 77.471791 
L 515.359513 120.487353 
L 518.131657 204.757982 
L 520.769881 282.22473 
L 522.470665 325.829383 
L 523.876825 356.471227 
L 525.108889 378.701485 
L 526.193641 394.480361 
L 527.157865 405.465733 
L 528.014953 412.842603 
L 528.751513 417.425244 
L 529.394329 420.138509 
L 529.916617 421.491286 
L 530.331769 422.041082 
L 530.666569 422.156544 
L 530.961193 422.023194 
L 531.195252 421.70297 
L 531.409524 420.800007 
L 531.704148 418.423276 
L 532.092516 413.225124 
L 532.58802 403.241034 
L 534.027839 368.303571 
L 535.634879 323.276478 
L 539.103407 217.670334 
L 541.299695 155.101496 
L 542.906735 115.344396 
L 544.272719 86.799752 
L 545.464607 66.309152 
L 546.522575 51.74165 
L 547.460015 41.714374 
L 548.290319 35.070001 
L 549.013487 30.953337 
L 549.616127 28.672433 
L 550.111631 27.552296 
L 550.513391 27.127008 
L 550.821407 27.084499 
L 551.129423 27.280765 
L 551.310036 27.603258 
L 551.524308 28.592578 
L 551.832324 31.236632 
L 552.234084 36.913591 
L 552.769764 48.12938 
L 554.290057 85.558928 
L 555.977449 133.540578 
L 562.017241 310.453963 
L 563.517145 345.433182 
L 564.816169 370.77507 
L 565.954489 388.86809 
L 566.958889 401.533766 
L 567.856153 410.225851 
L 568.646281 415.864047 
L 569.329273 419.25874 
L 569.905129 421.091683 
L 570.360457 421.89821 
L 570.722041 422.14811 
L 571.016665 422.103918 
L 571.317685 421.822171 
L 571.505173 421.21906 
L 571.773013 419.441633 
L 572.134597 415.287074 
L 572.576533 407.38703 
L 573.802079 378.602269 
L 575.261807 339.235976 
L 577.511663 271.706424 
L 580.913231 170.361961 
L 582.627407 125.976738 
L 584.046959 94.651848 
L 585.279023 72.074269 
L 586.377167 55.8027 
L 587.354783 44.439187 
L 588.211871 36.885644 
L 588.961823 32.084645 
L 589.604639 29.272403 
L 590.140319 27.815637 
L 590.568863 27.210099 
L 590.903663 27.071846 
L 591.198287 27.185847 
L 591.445861 27.493934 
L 591.646741 28.280647 
L 591.927973 30.405941 
L 592.302949 35.148923 
L 592.771669 44.199777 
L 594.158041 77.471791 
L 595.711513 120.487353 
L 598.483657 204.757982 
L 601.121881 282.22473 
L 602.822665 325.829383 
L 604.228825 356.471227 
L 605.460889 378.701485 
L 606.545641 394.480361 
L 607.509865 405.465733 
L 608.366953 412.842603 
L 609.103513 417.425244 
L 609.746329 420.138509 
L 610.268617 421.491286 
L 610.683769 422.041082 
L 611.018569 422.156544 
L 611.313193 422.023194 
L 611.547253 421.70297 
L 611.761525 420.800007 
L 612.056149 418.423276 
L 612.444517 413.225124 
L 612.940021 403.241034 
L 614.379839 368.303571 
L 615.986879 323.276478 
L 619.455407 217.670334 
L 621.651695 155.101496 
L 623.258735 115.344396 
L 624.624719 86.799752 
L 625.816607 66.309152 
L 626.874575 51.74165 
L 627.812015 41.714374 
L 628.642319 35.070001 
L 629.365487 30.953337 
L 629.968127 28.672433 
L 630.463631 27.552296 
L 630.865391 27.127008 
L 631.173407 27.084499 
L 631.481423 27.280765 
L 631.662037 27.603258 
L 631.876309 28.592578 
L 632.184325 31.236632 
L 632.586085 36.913591 
L 633.121765 48.12938 
L 634.642057 85.558928 
L 636.329449 133.540578 
L 642.369241 310.453963 
L 643.869145 345.433182 
L 645.168169 370.77507 
L 646.306489 388.86809 
L 647.310889 401.533766 
L 648.208153 410.225851 
L 648.998281 415.864047 
L 649.681273 419.25874 
L 650.257129 421.091683 
L 650.712457 421.89821 
L 651.074041 422.14811 
L 651.368665 422.103918 
L 651.669685 421.822171 
L 651.857173 421.21906 
L 652.125013 419.441633 
L 652.486597 415.287074 
L 652.928533 407.38703 
L 654.154079 378.602269 
L 655.613807 339.235976 
L 657.863663 271.706424 
L 661.265231 170.361961 
L 662.979407 125.976738 
L 664.398959 94.651848 
L 665.631023 72.074269 
L 666.729167 55.8027 
L 667.706783 44.439187 
L 668.563871 36.885644 
L 669.313823 32.084645 
L 669.956639 29.272403 
L 670.492319 27.815637 
L 670.920863 27.210099 
L 671.255663 27.071846 
L 671.550287 27.185847 
L 671.797861 27.493934 
L 671.998741 28.280647 
L 672.279973 30.405941 
L 672.654949 35.148923 
L 673.123669 44.199777 
L 674.510041 77.471791 
L 676.063513 120.487353 
L 678.835657 204.757982 
L 681.473881 282.22473 
L 683.174665 325.829383 
L 684.580825 356.471227 
L 685.812889 378.701485 
L 686.897641 394.480361 
L 687.861865 405.465733 
L 688.718953 412.842603 
L 689.455513 417.425244 
L 690.098329 420.138509 
L 690.620617 421.491286 
L 691.035769 422.041082 
L 691.370569 422.156544 
L 691.665193 422.023194 
L 691.899253 421.70297 
L 692.113525 420.800007 
L 692.408149 418.423276 
L 692.796517 413.225124 
L 693.292021 403.241034 
L 694.731839 368.303571 
L 696.338879 323.276478 
L 699.807407 217.670334 
L 702.003695 155.101496 
L 703.610735 115.344396 
L 704.976719 86.799752 
L 706.168607 66.309152 
L 707.226575 51.74165 
L 708.164015 41.714374 
L 708.994319 35.070001 
L 709.717487 30.953337 
L 710.320127 28.672433 
L 710.815631 27.552296 
L 711.217391 27.127008 
L 711.525407 27.084499 
L 711.833423 27.280765 
L 712.014037 27.603258 
L 712.228309 28.592578 
L 712.536325 31.236632 
L 712.938085 36.913591 
L 713.473765 48.12938 
L 714.994057 85.558928 
L 716.681449 133.540578 
L 718.582813 191.580552 
L 718.582813 191.580552 
" clip-path="url(#p70e7153d08)" style="fill: none; stroke: #ff7f0e; stroke-width: 1.5; stroke-linecap: square"/>
   </g>
   <g id="line2d_25">
    <path d="M 48.982813 315.704713 
L 49.17405 315.599969 
L 49.361538 315.094252 
L 49.64277 313.565435 
L 50.017746 310.125984 
L 50.569764 302.639335 
L 51.949141 284.672723 
L 53.154421 271.700217 
L 54.225781 262.419777 
L 55.176613 255.985613 
L 56.020309 251.684364 
L 56.756869 248.98715 
L 57.386293 247.439132 
L 57.921972 246.651503 
L 58.363908 246.355101 
L 58.752276 246.348959 
L 59.140644 246.572247 
L 59.595972 247.114577 
L 60.145044 248.151361 
L 60.801252 249.903496 
L 61.59138 252.688983 
L 62.555604 256.966218 
L 63.7341 263.275581 
L 65.27418 272.832445 
L 67.925796 290.966587 
L 69.465877 302.392533 
L 69.947989 309.172587 
L 70.671157 323.145834 
L 72.117493 349.613206 
L 73.376341 368.820279 
L 74.487877 382.600077 
L 75.478885 392.30332 
L 76.362757 398.905756 
L 77.139493 403.140395 
L 77.809093 405.648403 
L 78.371557 406.966023 
L 78.826885 407.524063 
L 79.188469 407.654213 
L 79.523269 407.535648 
L 79.898245 407.13895 
L 80.353573 406.297028 
L 80.916037 404.739452 
L 81.599029 402.132271 
L 82.429333 398.005887 
L 83.433733 391.79701 
L 84.679189 382.602415 
L 86.339797 368.546445 
L 89.379781 340.530335 
L 89.861893 333.563866 
L 90.464533 321.278223 
L 91.745929 293.649405 
L 93.111913 268.668749 
L 94.303801 250.725439 
L 95.361769 237.956309 
L 96.299209 229.155019 
L 97.129513 223.311946 
L 97.852681 219.681383 
L 98.468713 217.625479 
L 98.977609 216.621032 
L 99.379369 216.25593 
L 99.714169 216.230633 
L 100.035577 216.43758 
L 100.423945 216.979838 
L 100.906057 218.079551 
L 101.495305 220.029931 
L 102.218473 223.266391 
L 103.088953 228.266243 
L 104.146921 235.73 
L 105.472729 246.771974 
L 107.334217 264.3269 
L 109.628485 287.946804 
L 110.164165 297.260701 
L 110.940901 315.37566 
L 112.09227 340.14468 
L 113.444862 365.149341 
L 114.623358 383.061214 
L 115.667934 395.781081 
L 116.605374 404.643327 
L 117.422286 410.418529 
L 118.132062 413.999754 
L 118.734702 416.025391 
L 119.243598 417.035629 
L 119.645358 417.396114 
L 119.966766 417.415864 
L 120.288174 417.204109 
L 120.676542 416.649487 
L 121.158654 415.524869 
L 121.747902 413.530489 
L 122.457678 410.290603 
L 123.328158 405.196327 
L 124.386126 397.583324 
L 125.711934 386.311222 
L 127.573422 368.377636 
L 129.716485 345.772013 
L 130.252165 336.316581 
L 131.028901 317.989442 
L 132.206654 292.262439 
L 133.559246 266.945349 
L 134.751134 248.582192 
L 135.809102 235.529824 
L 136.746542 226.547222 
L 137.576846 220.596711 
L 138.300014 216.911669 
L 138.916046 214.83677 
L 139.41155 213.853086 
L 139.81331 213.488297 
L 140.134718 213.466549 
L 140.456126 213.677561 
L 140.844494 214.23292 
L 141.326606 215.360864 
L 141.915854 217.362775 
L 142.62563 220.616493 
L 143.49611 225.734234 
L 144.554078 233.384232 
L 145.879886 244.713461 
L 147.727982 262.606408 
L 149.804485 284.655304 
L 150.340165 294.152144 
L 151.116901 312.555465 
L 152.305541 338.658596 
L 153.658133 364.073342 
L 154.850021 382.523889 
L 155.907989 395.652896 
L 156.845429 404.701413 
L 157.675733 410.707969 
L 158.398901 414.439578 
L 159.014933 416.552237 
L 159.523829 417.583983 
L 159.925589 417.958578 
L 160.246997 417.987823 
L 160.568405 417.783993 
L 160.956773 417.236892 
L 161.425493 416.155979 
L 162.014741 414.17996 
L 162.724517 410.954446 
L 163.581605 405.95368 
L 164.626181 398.456495 
L 165.938597 387.309812 
L 167.759909 369.744721 
L 169.879093 347.326783 
L 170.414773 337.904887 
L 171.178117 319.87219 
L 172.382451 293.309328 
L 173.748435 267.590832 
L 174.940323 249.107294 
L 175.998291 235.94506 
L 176.935731 226.865126 
L 177.766035 220.829947 
L 178.489203 217.073275 
L 179.105235 214.939454 
L 179.614131 213.890513 
L 180.015891 213.502602 
L 180.337299 213.462907 
L 180.658707 213.656493 
L 181.033683 214.167717 
L 181.502403 215.22169 
L 182.078259 217.114196 
L 182.774643 220.219435 
L 183.618339 225.060565 
L 184.649523 232.360187 
L 185.935155 243.159241 
L 187.702899 260.075876 
L 189.940309 283.557025 
L 190.475989 292.819698 
L 191.199157 309.776778 
L 192.424768 337.051955 
L 193.790752 362.935292 
L 194.996032 381.76107 
L 196.054 395.025552 
L 197.004832 404.309871 
L 197.835136 410.394367 
L 198.558304 414.193106 
L 199.174336 416.361832 
L 199.683232 417.438812 
L 200.098384 417.855387 
L 200.433184 417.898881 
L 200.754592 417.702594 
L 201.129568 417.18847 
L 201.598288 416.131264 
L 202.174144 414.235399 
L 202.870528 411.127025 
L 203.714224 406.283468 
L 204.745408 398.982912 
L 206.03104 388.185701 
L 207.798784 371.276526 
L 210.028309 347.891397 
L 210.563989 338.632418 
L 211.287157 321.685971 
L 212.512209 294.431655 
L 213.878193 268.547419 
L 215.083473 249.716705 
L 216.141441 236.445397 
L 217.092273 227.153471 
L 217.922577 221.061537 
L 218.645745 217.255942 
L 219.261777 215.08123 
L 219.770673 213.99928 
L 220.185825 213.578671 
L 220.520625 213.531959 
L 220.842033 213.725198 
L 221.217009 214.235834 
L 221.685729 215.288804 
L 222.261585 217.179696 
L 222.957969 220.282464 
L 223.801665 225.119923 
L 224.832849 232.4142 
L 226.118481 243.205567 
L 227.886225 260.110451 
L 230.115807 283.494603 
L 230.651487 292.751579 
L 231.375157 309.716016 
L 232.600773 336.990928 
L 233.966757 362.87335 
L 235.172037 381.700409 
L 236.230005 394.967441 
L 237.180837 404.255036 
L 238.011141 410.343043 
L 238.734309 414.145255 
L 239.350341 416.317195 
L 239.859237 417.396978 
L 240.274389 417.815923 
L 240.609189 417.861374 
L 240.930597 417.666998 
L 241.305573 417.155136 
L 241.774293 416.100796 
L 242.350149 414.208488 
L 243.046533 411.104432 
L 243.890229 406.266069 
L 244.921413 398.971699 
L 246.207045 388.181775 
L 247.974789 371.281509 
L 250.204309 347.905311 
L 250.739989 338.648022 
L 251.463157 321.703566 
L 252.688706 294.440828 
L 254.05469 268.56029 
L 255.25997 249.73207 
L 256.317938 236.462353 
L 257.26877 227.171391 
L 258.099074 221.07995 
L 258.822242 217.274533 
L 259.438274 215.099798 
L 259.94717 214.017714 
L 260.362322 213.596924 
L 260.697122 213.550019 
L 261.01853 213.743037 
L 261.393506 214.253372 
L 261.862226 215.305904 
L 262.438082 217.196172 
L 263.134466 220.298068 
L 263.978162 225.134324 
L 265.009346 232.426956 
L 266.294978 243.216076 
L 268.062722 260.117696 
L 270.292309 283.499874 
L 270.827989 292.759 
L 271.551157 309.712197 
L 272.776836 336.987023 
L 274.14282 362.867853 
L 275.3481 381.693836 
L 276.406068 394.960182 
L 277.3569 404.24736 
L 278.187204 410.335152 
L 278.910372 414.137284 
L 279.526404 416.309232 
L 280.0353 417.389071 
L 280.450452 417.808092 
L 280.785252 417.853624 
L 281.10666 417.659342 
L 281.481636 417.147608 
L 281.950356 416.093454 
L 282.526212 414.201413 
L 283.222596 411.097729 
L 284.066292 406.25988 
L 285.097476 398.966215 
L 286.383108 388.177253 
L 288.150852 371.278385 
L 290.380309 347.904567 
L 290.915989 338.647668 
L 291.639157 321.703712 
L 292.864713 294.441586 
L 294.230697 268.561803 
L 295.435977 249.734128 
L 296.493945 236.464792 
L 297.444777 227.174093 
L 298.275081 221.082822 
L 298.998249 217.277508 
L 299.614281 215.102829 
L 300.123177 214.02077 
L 300.538329 213.599987 
L 300.873129 213.553079 
L 301.194537 213.746088 
L 301.569513 214.256403 
L 302.038233 215.308898 
L 302.614089 217.199102 
L 303.310473 220.300898 
L 304.154169 225.137002 
L 305.185353 232.429407 
L 306.470985 243.218196 
L 308.238729 260.119303 
L 310.468308 283.50073 
L 311.003988 292.759695 
L 311.727156 309.71268 
L 312.952829 336.987018 
L 314.318813 362.86753 
L 315.524093 381.693275 
L 316.582061 394.959445 
L 317.532893 404.246493 
L 318.363197 410.334195 
L 319.086365 414.136265 
L 319.702397 416.308173 
L 320.211293 417.387986 
L 320.626445 417.806992 
L 320.961245 417.852515 
L 321.282653 417.658227 
L 321.657629 417.14649 
L 322.126349 416.092337 
L 322.702205 414.200305 
L 323.398589 411.096641 
L 324.242285 406.25883 
L 325.273469 398.965229 
L 326.559101 388.176369 
L 328.326845 371.277674 
L 330.556308 347.904035 
L 331.091988 338.647197 
L 331.815156 321.703324 
L 333.040705 294.441505 
L 334.406689 268.561838 
L 335.611969 249.734255 
L 336.669937 236.464988 
L 337.620769 227.174341 
L 338.451073 221.083108 
L 339.174241 217.277822 
L 339.790273 215.103163 
L 340.299169 214.021117 
L 340.714321 213.600343 
L 341.049121 213.553442 
L 341.370529 213.746455 
L 341.745505 214.256774 
L 342.214225 215.309272 
L 342.790081 217.199478 
L 343.486465 220.301273 
L 344.330161 225.13737 
L 345.361345 232.429759 
L 346.646977 243.21852 
L 348.414721 260.119575 
L 350.644308 283.500998 
L 351.179988 292.759942 
L 351.903156 309.712898 
L 353.128826 336.987106 
L 354.49481 362.867575 
L 355.70009 381.693284 
L 356.758058 394.959426 
L 357.70889 404.246451 
L 358.539194 410.334135 
L 359.262362 414.136191 
L 359.878394 416.308088 
L 360.38729 417.387894 
L 360.802442 417.806895 
L 361.137242 417.852414 
L 361.45865 417.658122 
L 361.833626 417.146381 
L 362.302346 416.092224 
L 362.878202 414.200187 
L 363.574586 411.09652 
L 364.418282 406.258707 
L 365.449466 398.965106 
L 366.735098 388.17625 
L 368.502842 371.277566 
L 370.732308 347.903915 
L 371.267988 338.647084 
L 371.991156 321.703219 
L 373.216703 294.441465 
L 374.582687 268.56181 
L 375.787967 249.734237 
L 376.845935 236.464979 
L 377.796767 227.17434 
L 378.627071 221.083114 
L 379.350239 217.277832 
L 379.966271 215.103177 
L 380.475167 214.021134 
L 380.890319 213.600362 
L 381.225119 213.553462 
L 381.546527 213.746477 
L 381.921503 214.256797 
L 382.390223 215.309298 
L 382.966079 217.199506 
L 383.662463 220.301303 
L 384.506159 225.137401 
L 385.537343 232.429792 
L 386.822975 243.218554 
L 388.590719 260.119608 
L 390.820308 283.501048 
L 391.355988 292.75999 
L 392.079156 309.712943 
L 393.304825 336.987131 
L 394.670809 362.867596 
L 395.876089 381.693301 
L 396.934057 394.959439 
L 397.884889 404.246462 
L 398.715193 410.334143 
L 399.438361 414.136197 
L 400.054393 416.308092 
L 400.563289 417.387896 
L 400.978441 417.806896 
L 401.313241 417.852414 
L 401.634649 417.658121 
L 402.009625 417.146379 
L 402.478345 416.092221 
L 403.054201 414.200183 
L 403.750585 411.096514 
L 404.594281 406.2587 
L 405.625465 398.965097 
L 406.911097 388.17624 
L 408.678841 371.277554 
L 410.908308 347.903897 
L 411.443988 338.647065 
L 412.167156 321.703202 
L 413.392703 294.441456 
L 414.758687 268.561802 
L 415.963967 249.73423 
L 417.021935 236.464973 
L 417.972767 227.174334 
L 418.803071 221.083108 
L 419.526239 217.277827 
L 420.142271 215.103172 
L 420.651167 214.02113 
L 421.066319 213.600358 
L 421.401119 213.553459 
L 421.722527 213.746474 
L 422.097503 214.256795 
L 422.566223 215.309296 
L 423.142079 217.199504 
L 423.838463 220.301301 
L 424.682159 225.137401 
L 425.713343 232.429792 
L 426.998975 243.218555 
L 428.766719 260.119609 
L 430.996308 283.501054 
L 431.531988 292.759996 
L 432.255156 309.712949 
L 433.480825 336.987135 
L 434.846809 362.8676 
L 436.052089 381.693305 
L 437.110057 394.959443 
L 438.060889 404.246465 
L 438.891193 410.334146 
L 439.614361 414.1362 
L 440.230393 416.308095 
L 440.739289 417.387899 
L 441.154441 417.806898 
L 441.489241 417.852416 
L 441.810649 417.658124 
L 442.185625 417.146381 
L 442.654345 416.092223 
L 443.230201 414.200185 
L 443.926585 411.096516 
L 444.770281 406.258701 
L 445.801465 398.965098 
L 447.087097 388.17624 
L 448.854841 371.277554 
L 451.084308 347.903895 
L 451.619988 338.647063 
L 452.343156 321.703199 
L 453.568703 294.441455 
L 454.934687 268.561801 
L 456.139967 249.734228 
L 457.197935 236.464971 
L 458.148767 227.174332 
L 458.979071 221.083107 
L 459.702239 217.277826 
L 460.318271 215.103171 
L 460.827167 214.021129 
L 461.242319 213.600357 
L 461.577119 213.553457 
L 461.898527 213.746472 
L 462.273503 214.256793 
L 462.742223 215.309294 
L 463.318079 217.199503 
L 464.014463 220.3013 
L 464.858159 225.1374 
L 465.889343 232.429791 
L 467.174975 243.218554 
L 468.942719 260.119609 
L 471.172308 283.501054 
L 471.707988 292.759997 
L 472.431156 309.71295 
L 473.656825 336.987135 
L 475.022809 362.867601 
L 476.228089 381.693306 
L 477.286057 394.959444 
L 478.236889 404.246466 
L 479.067193 410.334147 
L 479.790361 414.136201 
L 480.406393 416.308096 
L 480.915289 417.3879 
L 481.330441 417.806899 
L 481.665241 417.852417 
L 481.986649 417.658124 
L 482.361625 417.146382 
L 482.830345 416.092224 
L 483.406201 414.200186 
L 484.102585 411.096516 
L 484.946281 406.258701 
L 485.977465 398.965098 
L 487.263097 388.176241 
L 489.030841 371.277554 
L 491.260308 347.903895 
L 491.795988 338.647063 
L 492.519156 321.703199 
L 493.744703 294.441455 
L 495.110687 268.561801 
L 496.315967 249.734228 
L 497.373935 236.464971 
L 498.324767 227.174332 
L 499.155071 221.083106 
L 499.878239 217.277826 
L 500.494271 215.103171 
L 501.003167 214.021128 
L 501.418319 213.600357 
L 501.753119 213.553457 
L 502.074527 213.746472 
L 502.449503 214.256793 
L 502.918223 215.309294 
L 503.494079 217.199503 
L 504.190463 220.3013 
L 505.034159 225.1374 
L 506.065343 232.429791 
L 507.350975 243.218554 
L 509.118719 260.119609 
L 511.348308 283.501054 
L 511.883988 292.759997 
L 512.607156 309.71295 
L 513.832825 336.987135 
L 515.198809 362.867601 
L 516.404089 381.693306 
L 517.462057 394.959444 
L 518.412889 404.246466 
L 519.243193 410.334147 
L 519.966361 414.136201 
L 520.582393 416.308096 
L 521.091289 417.3879 
L 521.506441 417.806899 
L 521.841241 417.852417 
L 522.162649 417.658124 
L 522.537625 417.146382 
L 523.006345 416.092224 
L 523.582201 414.200186 
L 524.278585 411.096517 
L 525.122281 406.258701 
L 526.153465 398.965098 
L 527.439097 388.176241 
L 529.206841 371.277554 
L 531.436308 347.903895 
L 531.971988 338.647063 
L 532.695156 321.703199 
L 533.920703 294.441455 
L 535.286687 268.561801 
L 536.491967 249.734228 
L 537.549935 236.464971 
L 538.500767 227.174332 
L 539.331071 221.083106 
L 540.054239 217.277826 
L 540.670271 215.103171 
L 541.179167 214.021128 
L 541.594319 213.600357 
L 541.929119 213.553457 
L 542.250527 213.746472 
L 542.625503 214.256793 
L 543.094223 215.309294 
L 543.670079 217.199503 
L 544.366463 220.3013 
L 545.210159 225.1374 
L 546.241343 232.429791 
L 547.526975 243.218554 
L 549.294719 260.119609 
L 551.524308 283.501054 
L 552.059988 292.759997 
L 552.783156 309.71295 
L 554.008825 336.987135 
L 555.374809 362.867601 
L 556.580089 381.693306 
L 557.638057 394.959444 
L 558.588889 404.246466 
L 559.419193 410.334147 
L 560.142361 414.136201 
L 560.758393 416.308096 
L 561.267289 417.3879 
L 561.682441 417.806899 
L 562.017241 417.852417 
L 562.338649 417.658124 
L 562.713625 417.146382 
L 563.182345 416.092224 
L 563.758201 414.200186 
L 564.454585 411.096517 
L 565.298281 406.258701 
L 566.329465 398.965098 
L 567.615097 388.176241 
L 569.382841 371.277554 
L 571.612309 347.903895 
L 572.147989 338.647063 
L 572.871157 321.703199 
L 574.096703 294.441455 
L 575.462687 268.561801 
L 576.667967 249.734228 
L 577.725935 236.464971 
L 578.676767 227.174332 
L 579.507071 221.083106 
L 580.230239 217.277826 
L 580.846271 215.103171 
L 581.355167 214.021128 
L 581.770319 213.600357 
L 582.105119 213.553457 
L 582.426527 213.746472 
L 582.801503 214.256793 
L 583.270223 215.309294 
L 583.846079 217.199503 
L 584.542463 220.3013 
L 585.386159 225.1374 
L 586.417343 232.429791 
L 587.702975 243.218554 
L 589.470719 260.119609 
L 591.700309 283.501054 
L 592.235989 292.759997 
L 592.959157 309.71295 
L 594.184825 336.987135 
L 595.550809 362.867601 
L 596.756089 381.693306 
L 597.814057 394.959444 
L 598.764889 404.246466 
L 599.595193 410.334147 
L 600.318361 414.136201 
L 600.934393 416.308096 
L 601.443289 417.3879 
L 601.858441 417.806899 
L 602.193241 417.852417 
L 602.514649 417.658124 
L 602.889625 417.146382 
L 603.358345 416.092224 
L 603.934201 414.200186 
L 604.630585 411.096517 
L 605.474281 406.258701 
L 606.505465 398.965098 
L 607.791097 388.176241 
L 609.558841 371.277554 
L 611.788309 347.903895 
L 612.323989 338.647063 
L 613.047157 321.703199 
L 614.272703 294.441455 
L 615.638687 268.561801 
L 616.843967 249.734228 
L 617.901935 236.464971 
L 618.852767 227.174332 
L 619.683071 221.083106 
L 620.406239 217.277826 
L 621.022271 215.103171 
L 621.531167 214.021128 
L 621.946319 213.600357 
L 622.281119 213.553457 
L 622.602527 213.746472 
L 622.977503 214.256793 
L 623.446223 215.309294 
L 624.022079 217.199503 
L 624.718463 220.3013 
L 625.562159 225.1374 
L 626.593343 232.429791 
L 627.878975 243.218554 
L 629.646719 260.119609 
L 631.876309 283.501054 
L 632.411989 292.759997 
L 633.135157 309.71295 
L 634.360825 336.987135 
L 635.726809 362.867601 
L 636.932089 381.693306 
L 637.990057 394.959444 
L 638.940889 404.246466 
L 639.771193 410.334147 
L 640.494361 414.136201 
L 641.110393 416.308096 
L 641.619289 417.3879 
L 642.034441 417.806899 
L 642.369241 417.852417 
L 642.690649 417.658124 
L 643.065625 417.146382 
L 643.534345 416.092224 
L 644.110201 414.200186 
L 644.806585 411.096517 
L 645.650281 406.258701 
L 646.681465 398.965098 
L 647.967097 388.176241 
L 649.734841 371.277554 
L 651.964309 347.903895 
L 652.499989 338.647063 
L 653.223157 321.703199 
L 654.448703 294.441455 
L 655.814687 268.561801 
L 657.019967 249.734228 
L 658.077935 236.464971 
L 659.028767 227.174332 
L 659.859071 221.083106 
L 660.582239 217.277826 
L 661.198271 215.103171 
L 661.707167 214.021128 
L 662.122319 213.600357 
L 662.457119 213.553457 
L 662.778527 213.746472 
L 663.153503 214.256793 
L 663.622223 215.309294 
L 664.198079 217.199503 
L 664.894463 220.3013 
L 665.738159 225.1374 
L 666.769343 232.429791 
L 668.054975 243.218554 
L 669.822719 260.119609 
L 672.052309 283.501054 
L 672.587989 292.759997 
L 673.311157 309.71295 
L 674.536825 336.987135 
L 675.902809 362.867601 
L 677.108089 381.693306 
L 678.166057 394.959444 
L 679.116889 404.246466 
L 679.947193 410.334147 
L 680.670361 414.136201 
L 681.286393 416.308096 
L 681.795289 417.3879 
L 682.210441 417.806899 
L 682.545241 417.852417 
L 682.866649 417.658124 
L 683.241625 417.146382 
L 683.710345 416.092224 
L 684.286201 414.200186 
L 684.982585 411.096517 
L 685.826281 406.258701 
L 686.857465 398.965098 
L 688.143097 388.176241 
L 689.910841 371.277554 
L 692.140309 347.903895 
L 692.675989 338.647063 
L 693.399157 321.703199 
L 694.624703 294.441455 
L 695.990687 268.561801 
L 697.195967 249.734228 
L 698.253935 236.464971 
L 699.204767 227.174332 
L 700.035071 221.083106 
L 700.758239 217.277826 
L 701.374271 215.103171 
L 701.883167 214.021128 
L 702.298319 213.600357 
L 702.633119 213.553457 
L 702.954527 213.746472 
L 703.329503 214.256793 
L 703.798223 215.309294 
L 704.374079 217.199503 
L 705.070463 220.3013 
L 705.914159 225.1374 
L 706.945343 232.429791 
L 708.230975 243.218554 
L 709.998719 260.119609 
L 712.228309 283.501054 
L 712.763989 292.759997 
L 713.487157 309.71295 
L 714.712825 336.987135 
L 716.078809 362.867601 
L 717.284089 381.693306 
L 718.342057 394.959444 
L 718.582813 397.546721 
L 718.582813 397.546721 
" clip-path="url(#p70e7153d08)" style="fill: none; stroke: #2ca02c; stroke-width: 1.5; stroke-linecap: square"/>
   </g>
   <g id="line2d_26">
    <path d="M 48.982813 315.704713 
L 50.32603 133.831576 
L 50.422452 133.832734 
L 62.19402 133.873773 
L 69.070813 133.837661 
L 70.410013 315.701208 
L 70.510453 315.697725 
L 78.451909 315.553901 
L 87.866485 315.640406 
L 89.158813 315.659957 
L 90.611845 133.823642 
L 109.246813 133.850513 
L 110.686453 315.704751 
L 114.63675 315.593197 
L 124.895022 315.576402 
L 129.334813 315.647282 
L 130.787845 133.823615 
L 149.422813 133.853349 
L 150.862453 315.704768 
L 154.903589 315.593244 
L 161.586197 315.539727 
L 169.510813 315.644994 
L 170.963845 133.82361 
L 189.598813 133.853776 
L 191.038453 315.704771 
L 195.103168 315.593386 
L 199.120768 315.538919 
L 204.986464 315.57044 
L 209.686813 315.644696 
L 211.139845 133.823609 
L 229.774813 133.853814 
L 231.227845 315.70477 
L 235.279173 315.593481 
L 239.377125 315.538622 
L 245.363349 315.573101 
L 249.862813 315.644676 
L 251.315845 133.823609 
L 269.950813 133.853826 
L 271.390453 315.704772 
L 275.455236 315.593488 
L 279.620148 315.538238 
L 290.038813 315.644678 
L 291.491845 133.823609 
L 310.126813 133.853826 
L 311.566452 315.704772 
L 315.631229 315.593489 
L 319.796141 315.538239 
L 330.214813 315.644678 
L 331.667844 133.823609 
L 350.302813 133.853825 
L 351.742452 315.704772 
L 355.807226 315.59349 
L 359.958746 315.538403 
L 366.025322 315.574941 
L 370.390813 315.644679 
L 371.843844 133.823609 
L 390.478813 133.853825 
L 391.918452 315.704772 
L 395.983225 315.59349 
L 400.134745 315.538403 
L 406.201321 315.574941 
L 410.566813 315.644679 
L 412.019844 133.823609 
L 430.654813 133.853825 
L 432.094452 315.704772 
L 436.159225 315.59349 
L 440.310745 315.538403 
L 446.377321 315.574941 
L 450.742813 315.644679 
L 452.195844 133.823609 
L 470.830813 133.853825 
L 472.270452 315.704772 
L 476.335225 315.59349 
L 480.486745 315.538403 
L 486.553321 315.574941 
L 490.918813 315.644679 
L 492.371844 133.823609 
L 511.006813 133.853825 
L 512.446452 315.704772 
L 516.511225 315.59349 
L 520.662745 315.538403 
L 526.729321 315.574941 
L 531.094813 315.644679 
L 532.547844 133.823609 
L 551.182813 133.853825 
L 552.622452 315.704772 
L 556.687225 315.59349 
L 560.838745 315.538403 
L 566.905321 315.574941 
L 571.270813 315.644679 
L 572.723845 133.823609 
L 591.358813 133.853825 
L 592.798453 315.704772 
L 596.863225 315.59349 
L 601.014745 315.538403 
L 607.081321 315.574941 
L 611.446813 315.644679 
L 612.899845 133.823609 
L 631.534813 133.853825 
L 632.974453 315.704772 
L 637.039225 315.59349 
L 641.190745 315.538403 
L 647.257321 315.574941 
L 651.622813 315.644679 
L 653.075845 133.823609 
L 671.710813 133.853825 
L 673.150453 315.704772 
L 677.215225 315.59349 
L 681.366745 315.538403 
L 687.433321 315.574941 
L 691.798813 315.644679 
L 693.251845 133.823609 
L 711.886813 133.853825 
L 713.326453 315.704772 
L 717.391225 315.59349 
L 718.582813 315.569568 
L 718.582813 315.569568 
" clip-path="url(#p70e7153d08)" style="fill: none; stroke: #d62728; stroke-width: 1.5; stroke-linecap: square"/>
   </g>
   <g id="patch_3">
    <path d="M 48.982813 442.08 
L 48.982813 7.2 
" style="fill: none; stroke: #000000; stroke-width: 0.8; stroke-linejoin: miter; stroke-linecap: square"/>
   </g>
   <g id="patch_4">
    <path d="M 718.582813 442.08 
L 718.582813 7.2 
" style="fill: none; stroke: #000000; stroke-width: 0.8; stroke-linejoin: miter; stroke-linecap: square"/>
   </g>
   <g id="patch_5">
    <path d="M 48.982813 442.08 
L 718.582813 442.08 
" style="fill: none; stroke: #000000; stroke-width: 0.8; stroke-linejoin: miter; stroke-linecap: square"/>
   </g>
   <g id="patch_6">
    <path d="M 48.982813 7.2 
L 718.582813 7.2 
" style="fill: none; stroke: #000000; stroke-width: 0.8; stroke-linejoin: miter; stroke-linecap: square"/>
   </g>
   <g id="legend_1">
    <g id="patch_7">
     <path d="M 258.558812 102.8736 
L 362.158813 102.8736 
Q 364.158813 102.8736 364.158813 100.8736 
L 364.158813 43.1611 
Q 364.158813 41.1611 362.158813 41.1611 
L 258.558812 41.1611 
Q 256.558812 41.1611 256.558812 43.1611 
L 256.558812 100.8736 
Q 256.558812 102.8736 258.558812 102.8736 
z
" style="fill: #ffffff; opacity: 0.8; stroke: #cccccc; stroke-linejoin: miter"/>
    </g>
    <g id="line2d_27">
     <path d="M 260.558812 49.259537 
L 270.558812 49.259537 
L 280.558812 49.259537 
" style="fill: none; stroke: #1f77b4; stroke-width: 1.5; stroke-linecap: square"/>
    </g>
    <g id="text_14">
     <!-- V(2) [V] -->
     <g transform="translate(288.558812 52.759537)scale(0.1 -0.1)">
      <defs>
       <path id="DejaVuSans-28" d="M 1984 4856 
Q 1566 4138 1362 3434 
Q 1159 2731 1159 2009 
Q 1159 1288 1364 580 
Q 1569 -128 1984 -844 
L 1484 -844 
Q 1016 -109 783 600 
Q 550 1309 550 2009 
Q 550 2706 781 3412 
Q 1013 4119 1484 4856 
L 1984 4856 
z
" transform="scale(0.015625)"/>
       <path id="DejaVuSans-29" d="M 513 4856 
L 1013 4856 
Q 1481 4119 1714 3412 
Q 1947 2706 1947 2009 
Q 1947 1309 1714 600 
Q 1481 -109 1013 -844 
L 513 -844 
Q 928 -128 1133 580 
Q 1338 1288 1338 2009 
Q 1338 2731 1133 3434 
Q 928 4138 513 4856 
z
" transform="scale(0.015625)"/>
      </defs>
      <use xlink:href="#DejaVuSans-56"/>
      <use xlink:href="#DejaVuSans-28" x="68.408203"/>
      <use xlink:href="#DejaVuSans-32" x="107.421875"/>
      <use xlink:href="#DejaVuSans-29" x="171.044922"/>
      <use xlink:href="#DejaVuSans-20" x="210.058594"/>
      <use xlink:href="#DejaVuSans-5b" x="241.845703"/>
      <use xlink:href="#DejaVuSans-56" x="280.859375"/>
      <use xlink:href="#DejaVuSans-5d" x="349.267578"/>
     </g>
    </g>
    <g id="line2d_28">
     <path d="M 260.558812 63.937662 
L 270.558812 63.937662 
L 280.558812 63.937662 
" style="fill: none; stroke: #ff7f0e; stroke-width: 1.5; stroke-linecap: square"/>
    </g>
    <g id="text_15">
     <!-- V(5) [V] -->
     <g transform="translate(288.558812 67.437662)scale(0.1 -0.1)">
      <defs>
       <path id="DejaVuSans-35" d="M 691 4666 
L 3169 4666 
L 3169 4134 
L 1269 4134 
L 1269 2991 
Q 1406 3038 1543 3061 
Q 1681 3084 1819 3084 
Q 2600 3084 3056 2656 
Q 3513 2228 3513 1497 
Q 3513 744 3044 326 
Q 2575 -91 1722 -91 
Q 1428 -91 1123 -41 
Q 819 9 494 109 
L 494 744 
Q 775 591 1075 516 
Q 1375 441 1709 441 
Q 2250 441 2565 725 
Q 2881 1009 2881 1497 
Q 2881 1984 2565 2268 
Q 2250 2553 1709 2553 
Q 1456 2553 1204 2497 
Q 953 2441 691 2322 
L 691 4666 
z
" transform="scale(0.015625)"/>
      </defs>
      <use xlink:href="#DejaVuSans-56"/>
      <use xlink:href="#DejaVuSans-28" x="68.408203"/>
      <use xlink:href="#DejaVuSans-35" x="107.421875"/>
      <use xlink:href="#DejaVuSans-29" x="171.044922"/>
      <use xlink:href="#DejaVuSans-20" x="210.058594"/>
      <use xlink:href="#DejaVuSans-5b" x="241.845703"/>
      <use xlink:href="#DejaVuSans-56" x="280.859375"/>
      <use xlink:href="#DejaVuSans-5d" x="349.267578"/>
     </g>
    </g>
    <g id="line2d_29">
     <path d="M 260.558812 78.615787 
L 270.558812 78.615787 
L 280.558812 78.615787 
" style="fill: none; stroke: #2ca02c; stroke-width: 1.5; stroke-linecap: square"/>
    </g>
    <g id="text_16">
     <!-- V(6) [V]  ($V_{out}$) -->
     <g transform="translate(288.558812 82.115787)scale(0.1 -0.1)">
      <defs>
       <path id="DejaVuSans-Oblique-56" d="M 1319 0 
L 500 4666 
L 1119 4666 
L 1797 653 
L 4063 4666 
L 4750 4666 
L 2053 0 
L 1319 0 
z
" transform="scale(0.015625)"/>
       <path id="DejaVuSans-Oblique-6f" d="M 1625 -91 
Q 1009 -91 651 289 
Q 294 669 294 1325 
Q 294 1706 417 2101 
Q 541 2497 738 2766 
Q 1047 3184 1428 3384 
Q 1809 3584 2291 3584 
Q 2888 3584 3255 3212 
Q 3622 2841 3622 2241 
Q 3622 1825 3500 1412 
Q 3378 1000 3181 728 
Q 2875 309 2494 109 
Q 2113 -91 1625 -91 
z
M 891 1344 
Q 891 869 1089 633 
Q 1288 397 1691 397 
Q 2269 397 2648 901 
Q 3028 1406 3028 2181 
Q 3028 2634 2825 2865 
Q 2622 3097 2228 3097 
Q 1903 3097 1650 2945 
Q 1397 2794 1197 2484 
Q 1050 2253 970 1956 
Q 891 1659 891 1344 
z
" transform="scale(0.015625)"/>
       <path id="DejaVuSans-Oblique-75" d="M 428 1388 
L 838 3500 
L 1416 3500 
L 1006 1409 
Q 975 1256 961 1147 
Q 947 1038 947 966 
Q 947 700 1109 554 
Q 1272 409 1569 409 
Q 2031 409 2368 721 
Q 2706 1034 2809 1563 
L 3194 3500 
L 3769 3500 
L 3091 0 
L 2516 0 
L 2631 550 
Q 2388 244 2052 76 
Q 1716 -91 1338 -91 
Q 878 -91 622 161 
Q 366 413 366 863 
Q 366 956 381 1097 
Q 397 1238 428 1388 
z
" transform="scale(0.015625)"/>
       <path id="DejaVuSans-Oblique-74" d="M 2706 3500 
L 2619 3053 
L 1472 3053 
L 1100 1153 
Q 1081 1047 1072 975 
Q 1063 903 1063 863 
Q 1063 663 1183 572 
Q 1303 481 1569 481 
L 2150 481 
L 2053 0 
L 1503 0 
Q 991 0 739 200 
Q 488 400 488 806 
Q 488 878 497 964 
Q 506 1050 525 1153 
L 897 3053 
L 409 3053 
L 500 3500 
L 978 3500 
L 1172 4494 
L 1747 4494 
L 1556 3500 
L 2706 3500 
z
" transform="scale(0.015625)"/>
      </defs>
      <use xlink:href="#DejaVuSans-56" transform="translate(0 0.015625)"/>
      <use xlink:href="#DejaVuSans-28" transform="translate(68.408203 0.015625)"/>
      <use xlink:href="#DejaVuSans-36" transform="translate(107.421875 0.015625)"/>
      <use xlink:href="#DejaVuSans-29" transform="translate(171.044922 0.015625)"/>
      <use xlink:href="#DejaVuSans-20" transform="translate(210.058594 0.015625)"/>
      <use xlink:href="#DejaVuSans-5b" transform="translate(241.845703 0.015625)"/>
      <use xlink:href="#DejaVuSans-56" transform="translate(280.859375 0.015625)"/>
      <use xlink:href="#DejaVuSans-5d" transform="translate(349.267578 0.015625)"/>
      <use xlink:href="#DejaVuSans-20" transform="translate(388.28125 0.015625)"/>
      <use xlink:href="#DejaVuSans-20" transform="translate(420.068359 0.015625)"/>
      <use xlink:href="#DejaVuSans-28" transform="translate(451.855469 0.015625)"/>
      <use xlink:href="#DejaVuSans-Oblique-56" transform="translate(490.869141 0.015625)"/>
      <use xlink:href="#DejaVuSans-Oblique-6f" transform="translate(559.277344 -16.390625)scale(0.7)"/>
      <use xlink:href="#DejaVuSans-Oblique-75" transform="translate(602.104492 -16.390625)scale(0.7)"/>
      <use xlink:href="#DejaVuSans-Oblique-74" transform="translate(646.469727 -16.390625)scale(0.7)"/>
      <use xlink:href="#DejaVuSans-29" transform="translate(676.650391 0.015625)"/>
     </g>
    </g>
    <g id="line2d_30">
     <path d="M 260.558812 93.293912 
L 270.558812 93.293912 
L 280.558812 93.293912 
" style="fill: none; stroke: #d62728; stroke-width: 1.5; stroke-linecap: square"/>
    </g>
    <g id="text_17">
     <!-- V(1) [V]  ($V_{in}$) -->
     <g transform="translate(288.558812 96.793912)scale(0.1 -0.1)">
      <defs>
       <path id="DejaVuSans-Oblique-69" d="M 1172 4863 
L 1747 4863 
L 1606 4134 
L 1031 4134 
L 1172 4863 
z
M 909 3500 
L 1484 3500 
L 800 0 
L 225 0 
L 909 3500 
z
" transform="scale(0.015625)"/>
       <path id="DejaVuSans-Oblique-6e" d="M 3566 2113 
L 3156 0 
L 2578 0 
L 2988 2091 
Q 3016 2238 3031 2350 
Q 3047 2463 3047 2528 
Q 3047 2791 2881 2937 
Q 2716 3084 2419 3084 
Q 1956 3084 1622 2776 
Q 1288 2469 1184 1941 
L 800 0 
L 225 0 
L 903 3500 
L 1478 3500 
L 1363 2950 
Q 1603 3253 1940 3418 
Q 2278 3584 2650 3584 
Q 3113 3584 3367 3334 
Q 3622 3084 3622 2631 
Q 3622 2519 3608 2391 
Q 3594 2263 3566 2113 
z
" transform="scale(0.015625)"/>
      </defs>
      <use xlink:href="#DejaVuSans-56" transform="translate(0 0.015625)"/>
      <use xlink:href="#DejaVuSans-28" transform="translate(68.408203 0.015625)"/>
      <use xlink:href="#DejaVuSans-31" transform="translate(107.421875 0.015625)"/>
      <use xlink:href="#DejaVuSans-29" transform="translate(171.044922 0.015625)"/>
      <use xlink:href="#DejaVuSans-20" transform="translate(210.058594 0.015625)"/>
      <use xlink:href="#DejaVuSans-5b" transform="translate(241.845703 0.015625)"/>
      <use xlink:href="#DejaVuSans-56" transform="translate(280.859375 0.015625)"/>
      <use xlink:href="#DejaVuSans-5d" transform="translate(349.267578 0.015625)"/>
      <use xlink:href="#DejaVuSans-20" transform="translate(388.28125 0.015625)"/>
      <use xlink:href="#DejaVuSans-20" transform="translate(420.068359 0.015625)"/>
      <use xlink:href="#DejaVuSans-28" transform="translate(451.855469 0.015625)"/>
      <use xlink:href="#DejaVuSans-Oblique-56" transform="translate(490.869141 0.015625)"/>
      <use xlink:href="#DejaVuSans-Oblique-69" transform="translate(559.277344 -16.390625)scale(0.7)"/>
      <use xlink:href="#DejaVuSans-Oblique-6e" transform="translate(578.725586 -16.390625)scale(0.7)"/>
      <use xlink:href="#DejaVuSans-29" transform="translate(625.825195 0.015625)"/>
     </g>
    </g>
   </g>
  </g>
 </g>
 <defs>
  <clipPath id="p70e7153d08">
   <rect x="48.982813" y="7.2" width="669.6" height="434.88"/>
  </clipPath>
 </defs>
</svg>