<?xml version="1.0" encoding="utf-8" standalone="no"?>
<!DOCTYPE svg PUBLIC "-//W3C//DTD SVG 1.1//EN"
  "http://www.w3.org/Graphics/SVG/1.1/DTD/svg11.dtd">
<svg xmlns:xlink="http://www.w3.org/1999/xlink" width="493.611844pt" height="289.009656pt" viewBox="0 0 493.611844 289.009656" xmlns="http://www.w3.org/2000/svg" version="1.1">
 <metadata>
  <rdf:RDF xmlns:dc="http://purl.org/dc/elements/1.1/" xmlns:cc="http://creativecommons.org/ns#" xmlns:rdf="http://www.w3.org/1999/02/22-rdf-syntax-ns#">
   <cc:Work>
    <dc:type rdf:resource="http://purl.org/dc/dcmitype/StillImage"/>
    <dc:date>2023-09-25T21:20:43.768146</dc:date>
    <dc:format>image/svg+xml</dc:format>
    <dc:creator>
     <cc:Agent>
      <dc:title>Matplotlib v3.6.3, https://matplotlib.org/</dc:title>
     </cc:Agent>
    </dc:creator>
   </cc:Work>
  </rdf:RDF>
 </metadata>
 <defs>
  <style type="text/css">*{stroke-linejoin: round; stroke-linecap: butt}</style>
 </defs>
 <g id="figure_1">
  <g id="patch_1">
   <path d="M 0 289.009656 
L 493.611844 289.009656 
L 493.611844 0 
L 0 0 
z
" style="fill: #ffffff"/>
  </g>
  <g id="axes_1">
   <g id="patch_2">
    <path d="M 160.06575 249.697656 
L 160.06575 204.697656 
L 160.06575 204.697656 
M 160.06575 186.697656 
L 160.06575 186.697656 
L 160.06575 186.697656 
L 160.06575 141.697656 
L 160.06575 249.697656 
" clip-path="url(#p225f23bdff)" style="fill: #ff0000; stroke: #ff0000; stroke-linejoin: miter"/>
   </g>
   <g id="patch_3">
    <path d="M 160.06575 204.697656 
C 162.452578 204.697656 164.741969 203.749359 166.429711 202.061617 
C 168.117453 200.373875 169.06575 198.084484 169.06575 195.697656 
C 169.06575 193.310828 168.117453 191.021437 166.429711 189.333695 
C 164.741969 187.645953 162.452578 186.697656 160.06575 186.697656 
C 157.678922 186.697656 155.389531 187.645953 153.701789 189.333695 
C 152.014047 191.021437 151.06575 193.310828 151.06575 195.697656 
C 151.06575 198.084484 152.014047 200.373875 153.701789 202.061617 
C 155.389531 203.749359 157.678922 204.697656 160.06575 204.697656 
z
" clip-path="url(#p225f23bdff)" style="fill: #ff0000; stroke: #000000; stroke-width: 2; stroke-linejoin: miter"/>
   </g>
   <g id="patch_4">
    <path d="M 196.06575 141.697656 
L 196.06575 159.697656 
L 223.06575 141.697656 
L 196.06575 123.697656 
z
" clip-path="url(#p225f23bdff)" style="fill: #ff0000; stroke: #ff0000; stroke-linejoin: miter"/>
   </g>
   <g id="patch_5">
    <path d="M 295.06575 249.697656 
L 295.06575 231.697656 
L 295.06575 231.697656 
M 295.06575 213.697656 
L 295.06575 213.697656 
L 295.06575 213.697656 
L 295.06575 195.697656 
L 295.06575 249.697656 
" clip-path="url(#p225f23bdff)" style="fill: #008000; stroke: #008000; stroke-linejoin: miter"/>
   </g>
   <g id="patch_6">
    <path d="M 295.06575 231.697656 
C 297.452578 231.697656 299.741969 230.749359 301.429711 229.061617 
C 303.117453 227.373875 304.06575 225.084484 304.06575 222.697656 
C 304.06575 220.310828 303.117453 218.021437 301.429711 216.333695 
C 299.741969 214.645953 297.452578 213.697656 295.06575 213.697656 
C 292.678922 213.697656 290.389531 214.645953 288.701789 216.333695 
C 287.014047 218.021437 286.06575 220.310828 286.06575 222.697656 
C 286.06575 225.084484 287.014047 227.373875 288.701789 229.061617 
C 290.389531 230.749359 292.678922 231.697656 295.06575 231.697656 
z
" clip-path="url(#p225f23bdff)" style="fill: #008000; stroke: #000000; stroke-width: 2; stroke-linejoin: miter"/>
   </g>
   <g id="patch_7">
    <path d="M 349.06575 195.697656 
L 349.06575 213.697656 
L 376.06575 195.697656 
L 349.06575 177.697656 
z
" clip-path="url(#p225f23bdff)" style="fill: #008000; stroke: #008000; stroke-linejoin: miter"/>
   </g>
   <g id="patch_8">
    <path d="M 215.86575 256.897656 
L 216.037102 256.896297 
L 216.208412 256.892219 
L 216.379635 256.885424 
L 216.550728 256.875912 
L 216.72165 256.863688 
L 216.892355 256.848753 
L 217.062803 256.831112 
L 217.232948 256.810768 
L 217.40275 256.787728 
L 217.572165 256.761996 
L 217.74115 256.73358 
L 217.909663 256.702486 
L 218.077662 256.668723 
L 218.245104 256.632298 
L 218.411947 256.593221 
L 218.578148 256.551502 
L 218.743667 256.507152 
L 218.908462 256.46018 
L 219.07249 256.4106 
L 219.235711 256.358424 
L 219.398084 256.303665 
L 219.559568 256.246337 
L 219.720121 256.186453 
L 219.879705 256.12403 
L 220.038277 256.059083 
L 220.1958 255.991628 
L 220.352232 255.921682 
L 220.507535 255.849263 
L 220.661669 255.774389 
L 220.814596 255.697079 
L 220.966278 255.617353 
L 221.116675 255.53523 
L 221.26575 255.450731 
L 221.413466 255.363877 
L 221.559785 255.274691 
L 221.704671 255.183194 
L 221.848087 255.089411 
L 221.989997 254.993363 
L 222.130365 254.895077 
L 222.269156 254.794575 
L 222.406335 254.691884 
L 222.541867 254.58703 
L 222.675719 254.480038 
L 222.807856 254.370936 
L 222.938246 254.259752 
L 223.066855 254.146512 
L 223.193652 254.031247 
L 223.318603 253.913984 
L 223.441679 253.794753 
L 223.562847 253.673585 
L 223.682078 253.55051 
L 223.79934 253.425558 
L 223.914606 253.298761 
L 224.027845 253.170152 
L 224.13903 253.039762 
L 224.248132 252.907625 
L 224.355123 252.773773 
L 224.459978 252.638241 
L 224.562669 252.501062 
L 224.66317 252.362271 
L 224.761457 252.221903 
L 224.857504 252.079993 
L 224.951288 251.936577 
L 225.042785 251.791691 
L 225.131971 251.645372 
L 225.218824 251.497656 
L 225.303323 251.348581 
L 225.385446 251.198184 
L 225.465173 251.046503 
L 225.542483 250.893576 
L 225.617357 250.739441 
L 225.689776 250.584138 
L 225.759721 250.427706 
L 225.827176 250.270184 
L 225.892124 250.111611 
L 225.954547 249.952027 
L 226.01443 249.791474 
L 226.071759 249.62999 
L 226.126518 249.467617 
L 226.178694 249.304396 
L 226.228274 249.140368 
L 226.275245 248.975573 
L 226.319596 248.810055 
L 226.361315 248.643853 
L 226.400392 248.47701 
L 226.436816 248.309568 
L 226.47058 248.14157 
L 226.501674 247.973057 
L 226.53009 247.804071 
L 226.555822 247.634657 
L 226.578862 247.464855 
L 226.599205 247.294709 
L 226.616847 247.124262 
L 226.631782 246.953556 
L 226.644006 246.782635 
L 226.653517 246.611541 
L 226.660313 246.440318 
L 226.664391 246.269009 
L 226.66575 246.097656 
L 226.66575 127.297656 
L 226.664391 127.126304 
L 226.660313 126.954995 
L 226.653517 126.783772 
L 226.644006 126.612678 
L 226.631782 126.441757 
L 226.616847 126.271051 
L 226.599205 126.100604 
L 226.578862 125.930458 
L 226.555822 125.760656 
L 226.53009 125.591241 
L 226.501674 125.422256 
L 226.47058 125.253743 
L 226.436816 125.085744 
L 226.400392 124.918302 
L 226.361315 124.75146 
L 226.319596 124.585258 
L 226.275245 124.419739 
L 226.228274 124.254945 
L 226.178694 124.090916 
L 226.126518 123.927695 
L 226.071759 123.765322 
L 226.01443 123.603839 
L 225.954547 123.443285 
L 225.892124 123.283702 
L 225.827176 123.125129 
L 225.759721 122.967606 
L 225.689776 122.811174 
L 225.617357 122.655871 
L 225.542483 122.501737 
L 225.465173 122.34881 
L 225.385446 122.197129 
L 225.303323 122.046732 
L 225.218824 121.897656 
L 225.131971 121.74994 
L 225.042785 121.603621 
L 224.951288 121.458735 
L 224.857504 121.31532 
L 224.761457 121.17341 
L 224.66317 121.033042 
L 224.562669 120.894251 
L 224.459978 120.757072 
L 224.355123 120.621539 
L 224.248132 120.487687 
L 224.13903 120.35555 
L 224.027845 120.22516 
L 223.914606 120.096551 
L 223.79934 119.969755 
L 223.682078 119.844803 
L 223.562847 119.721727 
L 223.441679 119.600559 
L 223.318603 119.481329 
L 223.193652 119.364066 
L 223.066855 119.2488 
L 222.938246 119.135561 
L 222.807856 119.024376 
L 222.675719 118.915274 
L 222.541867 118.808283 
L 222.406335 118.703428 
L 222.269156 118.600737 
L 222.130365 118.500236 
L 221.989997 118.401949 
L 221.848087 118.305902 
L 221.704671 118.212118 
L 221.559785 118.120622 
L 221.413466 118.031435 
L 221.26575 117.944582 
L 221.116675 117.860083 
L 220.966278 117.77796 
L 220.814596 117.698233 
L 220.661669 117.620923 
L 220.507535 117.54605 
L 220.352232 117.473631 
L 220.1958 117.403685 
L 220.038277 117.33623 
L 219.879705 117.271283 
L 219.720121 117.208859 
L 219.559568 117.148976 
L 219.398084 117.091647 
L 219.235711 117.036888 
L 219.07249 116.984712 
L 218.908462 116.935132 
L 218.743667 116.888161 
L 218.578148 116.84381 
L 218.411947 116.802091 
L 218.245104 116.763015 
L 218.077662 116.72659 
L 217.909663 116.692826 
L 217.74115 116.661733 
L 217.572165 116.633316 
L 217.40275 116.607585 
L 217.232948 116.584544 
L 217.062803 116.564201 
L 216.892355 116.546559 
L 216.72165 116.531625 
L 216.550728 116.5194 
L 216.379635 116.509889 
L 216.208412 116.503094 
L 216.037102 116.499016 
L 215.86575 116.497656 
L 106.59375 116.497656 
L 106.422398 116.499016 
L 106.251088 116.503094 
L 106.079865 116.509889 
L 105.908772 116.5194 
L 105.73785 116.531625 
L 105.567145 116.546559 
L 105.396697 116.564201 
L 105.226552 116.584544 
L 105.05675 116.607585 
L 104.887335 116.633316 
L 104.71835 116.661733 
L 104.549837 116.692826 
L 104.381838 116.72659 
L 104.214396 116.763015 
L 104.047553 116.802091 
L 103.881352 116.84381 
L 103.715833 116.888161 
L 103.551038 116.935132 
L 103.38701 116.984712 
L 103.223789 117.036888 
L 103.061416 117.091647 
L 102.899932 117.148976 
L 102.739379 117.208859 
L 102.579795 117.271283 
L 102.421223 117.33623 
L 102.2637 117.403685 
L 102.107268 117.473631 
L 101.951965 117.54605 
L 101.797831 117.620923 
L 101.644904 117.698233 
L 101.493222 117.77796 
L 101.342825 117.860083 
L 101.19375 117.944582 
L 101.046034 118.031435 
L 100.899715 118.120622 
L 100.754829 118.212118 
L 100.611413 118.305902 
L 100.469503 118.401949 
L 100.329135 118.500236 
L 100.190344 118.600737 
L 100.053165 118.703428 
L 99.917633 118.808283 
L 99.783781 118.915274 
L 99.651644 119.024376 
L 99.521254 119.135561 
L 99.392645 119.2488 
L 99.265848 119.364066 
L 99.140897 119.481329 
L 99.017821 119.600559 
L 98.896653 119.721727 
L 98.777422 119.844803 
L 98.66016 119.969755 
L 98.544894 120.096551 
L 98.431655 120.22516 
L 98.32047 120.35555 
L 98.211368 120.487687 
L 98.104377 120.621539 
L 97.999522 120.757072 
L 97.896831 120.894251 
L 97.79633 121.033042 
L 97.698043 121.17341 
L 97.601996 121.31532 
L 97.508212 121.458735 
L 97.416715 121.603621 
L 97.327529 121.74994 
L 97.240676 121.897656 
L 97.156177 122.046732 
L 97.074054 122.197129 
L 96.994327 122.34881 
L 96.917017 122.501737 
L 96.842143 122.655871 
L 96.769724 122.811174 
L 96.699779 122.967606 
L 96.632324 123.125129 
L 96.567376 123.283702 
L 96.504953 123.443285 
L 96.44507 123.603839 
L 96.387741 123.765322 
L 96.332982 123.927695 
L 96.280806 124.090916 
L 96.231226 124.254945 
L 96.184255 124.419739 
L 96.139904 124.585258 
L 96.098185 124.75146 
L 96.059108 124.918302 
L 96.022684 125.085744 
L 95.98892 125.253743 
L 95.957826 125.422256 
L 95.92941 125.591241 
L 95.903678 125.760656 
L 95.880638 125.930458 
L 95.860295 126.100604 
L 95.842653 126.271051 
L 95.827718 126.441757 
L 95.815494 126.612678 
L 95.805983 126.783772 
L 95.799187 126.954995 
L 95.795109 127.126304 
L 95.79375 127.297656 
L 95.79375 246.097656 
L 95.795109 246.269009 
L 95.799187 246.440318 
L 95.805983 246.611541 
L 95.815494 246.782635 
L 95.827718 246.953556 
L 95.842653 247.124262 
L 95.860295 247.294709 
L 95.880638 247.464855 
L 95.903678 247.634657 
L 95.92941 247.804071 
L 95.957826 247.973057 
L 95.98892 248.14157 
L 96.022684 248.309568 
L 96.059108 248.47701 
L 96.098185 248.643853 
L 96.139904 248.810055 
L 96.184255 248.975573 
L 96.231226 249.140368 
L 96.280806 249.304396 
L 96.332982 249.467617 
L 96.387741 249.62999 
L 96.44507 249.791474 
L 96.504953 249.952027 
L 96.567376 250.111611 
L 96.632324 250.270184 
L 96.699779 250.427706 
L 96.769724 250.584138 
L 96.842143 250.739441 
L 96.917017 250.893576 
L 96.994327 251.046503 
L 97.074054 251.198184 
L 97.156177 251.348581 
L 97.240676 251.497656 
L 97.327529 251.645372 
L 97.416715 251.791691 
L 97.508212 251.936577 
L 97.601996 252.079993 
L 97.698043 252.221903 
L 97.79633 252.362271 
L 97.896831 252.501062 
L 97.999522 252.638241 
L 98.104377 252.773773 
L 98.211368 252.907625 
L 98.32047 253.039762 
L 98.431655 253.170152 
L 98.544894 253.298761 
L 98.66016 253.425558 
L 98.777422 253.55051 
L 98.896653 253.673585 
L 99.017821 253.794753 
L 99.140897 253.913984 
L 99.265848 254.031247 
L 99.392645 254.146512 
L 99.521254 254.259752 
L 99.651644 254.370936 
L 99.783781 254.480038 
L 99.917633 254.58703 
L 100.053165 254.691884 
L 100.190344 254.794575 
L 100.329135 254.895077 
L 100.469503 254.993363 
L 100.611413 255.089411 
L 100.754829 255.183194 
L 100.899715 255.274691 
L 101.046034 255.363877 
L 101.19375 255.450731 
L 101.342825 255.53523 
L 101.493222 255.617353 
L 101.644904 255.697079 
L 101.797831 255.774389 
L 101.951965 255.849263 
L 102.107268 255.921682 
L 102.2637 255.991628 
L 102.421223 256.059083 
L 102.579795 256.12403 
L 102.739379 256.186453 
L 102.899932 256.246337 
L 103.061416 256.303665 
L 103.223789 256.358424 
L 103.38701 256.4106 
L 103.551038 256.46018 
L 103.715833 256.507152 
L 103.881352 256.551502 
L 104.047553 256.593221 
L 104.214396 256.632298 
L 104.381838 256.668723 
L 104.549837 256.702486 
L 104.71835 256.73358 
L 104.887335 256.761996 
L 105.05675 256.787728 
L 105.226552 256.810768 
L 105.396697 256.831112 
L 105.567145 256.848753 
L 105.73785 256.863688 
L 105.908772 256.875912 
L 106.079865 256.885424 
L 106.251088 256.892219 
L 106.422398 256.896297 
L 106.59375 256.897656 
L 215.86575 256.897656 
z
" clip-path="url(#p225f23bdff)" style="fill: none; stroke-dasharray: 1.85,0.8; stroke-dashoffset: 0; stroke: #ff0000; stroke-width: 0.5; stroke-linecap: round"/>
   </g>
   <g id="patch_9">
    <path d="M 368.86575 256.897656 
L 369.037102 256.896297 
L 369.208412 256.892219 
L 369.379635 256.885424 
L 369.550728 256.875912 
L 369.72165 256.863688 
L 369.892355 256.848753 
L 370.062803 256.831112 
L 370.232948 256.810768 
L 370.40275 256.787728 
L 370.572165 256.761996 
L 370.74115 256.73358 
L 370.909663 256.702486 
L 371.077662 256.668723 
L 371.245104 256.632298 
L 371.411947 256.593221 
L 371.578148 256.551502 
L 371.743667 256.507152 
L 371.908462 256.46018 
L 372.07249 256.4106 
L 372.235711 256.358424 
L 372.398084 256.303665 
L 372.559568 256.246337 
L 372.720121 256.186453 
L 372.879705 256.12403 
L 373.038277 256.059083 
L 373.1958 255.991628 
L 373.352232 255.921682 
L 373.507535 255.849263 
L 373.661669 255.774389 
L 373.814596 255.697079 
L 373.966278 255.617353 
L 374.116675 255.53523 
L 374.26575 255.450731 
L 374.413466 255.363877 
L 374.559785 255.274691 
L 374.704671 255.183194 
L 374.848087 255.089411 
L 374.989997 254.993363 
L 375.130365 254.895077 
L 375.269156 254.794575 
L 375.406335 254.691884 
L 375.541867 254.58703 
L 375.675719 254.480038 
L 375.807856 254.370936 
L 375.938246 254.259752 
L 376.066855 254.146512 
L 376.193652 254.031247 
L 376.318603 253.913984 
L 376.441679 253.794753 
L 376.562847 253.673585 
L 376.682078 253.55051 
L 376.79934 253.425558 
L 376.914606 253.298761 
L 377.027845 253.170152 
L 377.13903 253.039762 
L 377.248132 252.907625 
L 377.355123 252.773773 
L 377.459978 252.638241 
L 377.562669 252.501062 
L 377.66317 252.362271 
L 377.761457 252.221903 
L 377.857504 252.079993 
L 377.951288 251.936577 
L 378.042785 251.791691 
L 378.131971 251.645372 
L 378.218824 251.497656 
L 378.303323 251.348581 
L 378.385446 251.198184 
L 378.465173 251.046503 
L 378.542483 250.893576 
L 378.617357 250.739441 
L 378.689776 250.584138 
L 378.759721 250.427706 
L 378.827176 250.270184 
L 378.892124 250.111611 
L 378.954547 249.952027 
L 379.01443 249.791474 
L 379.071759 249.62999 
L 379.126518 249.467617 
L 379.178694 249.304396 
L 379.228274 249.140368 
L 379.275245 248.975573 
L 379.319596 248.810055 
L 379.361315 248.643853 
L 379.400392 248.47701 
L 379.436816 248.309568 
L 379.47058 248.14157 
L 379.501674 247.973057 
L 379.53009 247.804071 
L 379.555822 247.634657 
L 379.578862 247.464855 
L 379.599205 247.294709 
L 379.616847 247.124262 
L 379.631782 246.953556 
L 379.644006 246.782635 
L 379.653517 246.611541 
L 379.660313 246.440318 
L 379.664391 246.269009 
L 379.66575 246.097656 
L 379.66575 181.297656 
L 379.664391 181.126304 
L 379.660313 180.954995 
L 379.653517 180.783772 
L 379.644006 180.612678 
L 379.631782 180.441757 
L 379.616847 180.271051 
L 379.599205 180.100604 
L 379.578862 179.930458 
L 379.555822 179.760656 
L 379.53009 179.591241 
L 379.501674 179.422256 
L 379.47058 179.253743 
L 379.436816 179.085744 
L 379.400392 178.918302 
L 379.361315 178.75146 
L 379.319596 178.585258 
L 379.275245 178.419739 
L 379.228274 178.254945 
L 379.178694 178.090916 
L 379.126518 177.927695 
L 379.071759 177.765322 
L 379.01443 177.603839 
L 378.954547 177.443285 
L 378.892124 177.283702 
L 378.827176 177.125129 
L 378.759721 176.967606 
L 378.689776 176.811174 
L 378.617357 176.655871 
L 378.542483 176.501737 
L 378.465173 176.34881 
L 378.385446 176.197129 
L 378.303323 176.046732 
L 378.218824 175.897656 
L 378.131971 175.74994 
L 378.042785 175.603621 
L 377.951288 175.458735 
L 377.857504 175.31532 
L 377.761457 175.17341 
L 377.66317 175.033042 
L 377.562669 174.894251 
L 377.459978 174.757072 
L 377.355123 174.621539 
L 377.248132 174.487687 
L 377.13903 174.35555 
L 377.027845 174.22516 
L 376.914606 174.096551 
L 376.79934 173.969755 
L 376.682078 173.844803 
L 376.562847 173.721727 
L 376.441679 173.600559 
L 376.318603 173.481329 
L 376.193652 173.364066 
L 376.066855 173.2488 
L 375.938246 173.135561 
L 375.807856 173.024376 
L 375.675719 172.915274 
L 375.541867 172.808283 
L 375.406335 172.703428 
L 375.269156 172.600737 
L 375.130365 172.500236 
L 374.989997 172.401949 
L 374.848087 172.305902 
L 374.704671 172.212118 
L 374.559785 172.120622 
L 374.413466 172.031435 
L 374.26575 171.944582 
L 374.116675 171.860083 
L 373.966278 171.77796 
L 373.814596 171.698233 
L 373.661669 171.620923 
L 373.507535 171.54605 
L 373.352232 171.473631 
L 373.1958 171.403685 
L 373.038277 171.33623 
L 372.879705 171.271283 
L 372.720121 171.208859 
L 372.559568 171.148976 
L 372.398084 171.091647 
L 372.235711 171.036888 
L 372.07249 170.984712 
L 371.908462 170.935132 
L 371.743667 170.888161 
L 371.578148 170.84381 
L 371.411947 170.802091 
L 371.245104 170.763015 
L 371.077662 170.72659 
L 370.909663 170.692826 
L 370.74115 170.661733 
L 370.572165 170.633316 
L 370.40275 170.607585 
L 370.232948 170.584544 
L 370.062803 170.564201 
L 369.892355 170.546559 
L 369.72165 170.531625 
L 369.550728 170.5194 
L 369.379635 170.509889 
L 369.208412 170.503094 
L 369.037102 170.499016 
L 368.86575 170.497656 
L 240.16575 170.497656 
L 239.994398 170.499016 
L 239.823088 170.503094 
L 239.651865 170.509889 
L 239.480772 170.5194 
L 239.30985 170.531625 
L 239.139145 170.546559 
L 238.968697 170.564201 
L 238.798552 170.584544 
L 238.62875 170.607585 
L 238.459335 170.633316 
L 238.29035 170.661733 
L 238.121837 170.692826 
L 237.953838 170.72659 
L 237.786396 170.763015 
L 237.619553 170.802091 
L 237.453352 170.84381 
L 237.287833 170.888161 
L 237.123038 170.935132 
L 236.95901 170.984712 
L 236.795789 171.036888 
L 236.633416 171.091647 
L 236.471932 171.148976 
L 236.311379 171.208859 
L 236.151795 171.271283 
L 235.993223 171.33623 
L 235.8357 171.403685 
L 235.679268 171.473631 
L 235.523965 171.54605 
L 235.369831 171.620923 
L 235.216904 171.698233 
L 235.065222 171.77796 
L 234.914825 171.860083 
L 234.76575 171.944582 
L 234.618034 172.031435 
L 234.471715 172.120622 
L 234.326829 172.212118 
L 234.183413 172.305902 
L 234.041503 172.401949 
L 233.901135 172.500236 
L 233.762344 172.600737 
L 233.625165 172.703428 
L 233.489633 172.808283 
L 233.355781 172.915274 
L 233.223644 173.024376 
L 233.093254 173.135561 
L 232.964645 173.2488 
L 232.837848 173.364066 
L 232.712897 173.481329 
L 232.589821 173.600559 
L 232.468653 173.721727 
L 232.349422 173.844803 
L 232.23216 173.969755 
L 232.116894 174.096551 
L 232.003655 174.22516 
L 231.89247 174.35555 
L 231.783368 174.487687 
L 231.676377 174.621539 
L 231.571522 174.757072 
L 231.468831 174.894251 
L 231.36833 175.033042 
L 231.270043 175.17341 
L 231.173996 175.31532 
L 231.080212 175.458735 
L 230.988715 175.603621 
L 230.899529 175.74994 
L 230.812676 175.897656 
L 230.728177 176.046732 
L 230.646054 176.197129 
L 230.566327 176.34881 
L 230.489017 176.501737 
L 230.414143 176.655871 
L 230.341724 176.811174 
L 230.271779 176.967606 
L 230.204324 177.125129 
L 230.139376 177.283702 
L 230.076953 177.443285 
L 230.01707 177.603839 
L 229.959741 177.765322 
L 229.904982 177.927695 
L 229.852806 178.090916 
L 229.803226 178.254945 
L 229.756255 178.419739 
L 229.711904 178.585258 
L 229.670185 178.75146 
L 229.631108 178.918302 
L 229.594684 179.085744 
L 229.56092 179.253743 
L 229.529826 179.422256 
L 229.50141 179.591241 
L 229.475678 179.760656 
L 229.452638 179.930458 
L 229.432295 180.100604 
L 229.414653 180.271051 
L 229.399718 180.441757 
L 229.387494 180.612678 
L 229.377983 180.783772 
L 229.371187 180.954995 
L 229.367109 181.126304 
L 229.36575 181.297656 
L 229.36575 246.097656 
L 229.367109 246.269009 
L 229.371187 246.440318 
L 229.377983 246.611541 
L 229.387494 246.782635 
L 229.399718 246.953556 
L 229.414653 247.124262 
L 229.432295 247.294709 
L 229.452638 247.464855 
L 229.475678 247.634657 
L 229.50141 247.804071 
L 229.529826 247.973057 
L 229.56092 248.14157 
L 229.594684 248.309568 
L 229.631108 248.47701 
L 229.670185 248.643853 
L 229.711904 248.810055 
L 229.756255 248.975573 
L 229.803226 249.140368 
L 229.852806 249.304396 
L 229.904982 249.467617 
L 229.959741 249.62999 
L 230.01707 249.791474 
L 230.076953 249.952027 
L 230.139376 250.111611 
L 230.204324 250.270184 
L 230.271779 250.427706 
L 230.341724 250.584138 
L 230.414143 250.739441 
L 230.489017 250.893576 
L 230.566327 251.046503 
L 230.646054 251.198184 
L 230.728177 251.348581 
L 230.812676 251.497656 
L 230.899529 251.645372 
L 230.988715 251.791691 
L 231.080212 251.936577 
L 231.173996 252.079993 
L 231.270043 252.221903 
L 231.36833 252.362271 
L 231.468831 252.501062 
L 231.571522 252.638241 
L 231.676377 252.773773 
L 231.783368 252.907625 
L 231.89247 253.039762 
L 232.003655 253.170152 
L 232.116894 253.298761 
L 232.23216 253.425558 
L 232.349422 253.55051 
L 232.468653 253.673585 
L 232.589821 253.794753 
L 232.712897 253.913984 
L 232.837848 254.031247 
L 232.964645 254.146512 
L 233.093254 254.259752 
L 233.223644 254.370936 
L 233.355781 254.480038 
L 233.489633 254.58703 
L 233.625165 254.691884 
L 233.762344 254.794575 
L 233.901135 254.895077 
L 234.041503 254.993363 
L 234.183413 255.089411 
L 234.326829 255.183194 
L 234.471715 255.274691 
L 234.618034 255.363877 
L 234.76575 255.450731 
L 234.914825 255.53523 
L 235.065222 255.617353 
L 235.216904 255.697079 
L 235.369831 255.774389 
L 235.523965 255.849263 
L 235.679268 255.921682 
L 235.8357 255.991628 
L 235.993223 256.059083 
L 236.151795 256.12403 
L 236.311379 256.186453 
L 236.471932 256.246337 
L 236.633416 256.303665 
L 236.795789 256.358424 
L 236.95901 256.4106 
L 237.123038 256.46018 
L 237.287833 256.507152 
L 237.453352 256.551502 
L 237.619553 256.593221 
L 237.786396 256.632298 
L 237.953838 256.668723 
L 238.121837 256.702486 
L 238.29035 256.73358 
L 238.459335 256.761996 
L 238.62875 256.787728 
L 238.798552 256.810768 
L 238.968697 256.831112 
L 239.139145 256.848753 
L 239.30985 256.863688 
L 239.480772 256.875912 
L 239.651865 256.885424 
L 239.823088 256.892219 
L 239.994398 256.896297 
L 240.16575 256.897656 
L 368.86575 256.897656 
z
" clip-path="url(#p225f23bdff)" style="fill: none; stroke-dasharray: 1.85,0.8; stroke-dashoffset: 0; stroke: #008000; stroke-width: 0.5; stroke-linecap: round"/>
   </g>
   <g id="patch_10">
    <path d="M 91.29375 186.697656 
C 68.79375 186.697656 86.79375 186.697656 59.79375 186.697656 
" clip-path="url(#p225f23bdff)" style="fill: none; stroke: #ff0000; stroke-width: 2; stroke-linejoin: miter; stroke-linecap: round"/>
   </g>
   <g id="patch_11">
    <path d="M 86.79375 183.097656 
L 95.79375 186.697656 
L 86.79375 190.297656 
z
" clip-path="url(#p225f23bdff)" style="fill: #ff0000"/>
   </g>
   <g id="patch_12">
    <path d="M 384.16575 213.697656 
C 420.16575 213.697656 393.16575 256.897656 433.66575 256.897656 
" clip-path="url(#p225f23bdff)" style="fill: none; stroke: #008000; stroke-width: 2; stroke-linejoin: miter; stroke-linecap: round"/>
   </g>
   <g id="patch_13">
    <path d="M 388.66575 217.297656 
L 379.66575 213.697656 
L 388.66575 210.097656 
z
" clip-path="url(#p225f23bdff)" style="fill: #008000"/>
   </g>
   <g id="line2d_1">
    <path d="M 160.06575 249.697656 
L 160.06575 204.697656 
L 160.06575 204.697656 
M 160.06575 186.697656 
L 160.06575 186.697656 
L 160.06575 141.697656 
" clip-path="url(#p225f23bdff)" style="fill: none; stroke: #000000; stroke-width: 2; stroke-linecap: round"/>
   </g>
   <g id="line2d_2">
    <path d="M 161.86575 200.197656 
L 158.26575 200.197656 
" clip-path="url(#p225f23bdff)" style="fill: none; stroke: #000000; stroke-width: 2; stroke-linecap: round"/>
   </g>
   <g id="line2d_3">
    <path d="M 160.06575 192.997656 
L 160.06575 189.397656 
" clip-path="url(#p225f23bdff)" style="fill: none; stroke: #000000; stroke-width: 2; stroke-linecap: round"/>
   </g>
   <g id="line2d_4">
    <path d="M 161.86575 191.197656 
L 158.26575 191.197656 
" clip-path="url(#p225f23bdff)" style="fill: none; stroke: #000000; stroke-width: 2; stroke-linecap: round"/>
   </g>
   <g id="line2d_5">
    <path d="M 160.06575 141.697656 
L 178.06575 141.697656 
L 196.06575 141.697656 
" clip-path="url(#p225f23bdff)" style="fill: none; stroke: #000000; stroke-width: 2; stroke-linecap: round"/>
   </g>
   <g id="line2d_6">
    <path d="M 196.06575 141.697656 
L 196.06575 159.697656 
L 223.06575 141.697656 
L 196.06575 123.697656 
L 196.06575 141.697656 
" clip-path="url(#p225f23bdff)" style="fill: none; stroke: #000000; stroke-width: 2; stroke-linecap: round"/>
   </g>
   <g id="line2d_7">
    <path d="M 160.06575 249.697656 
L 227.56575 249.697656 
L 295.06575 249.697656 
" clip-path="url(#p225f23bdff)" style="fill: none; stroke: #000000; stroke-width: 2; stroke-linecap: round"/>
   </g>
   <g id="line2d_8">
    <path d="M 295.06575 249.697656 
L 295.06575 231.697656 
L 295.06575 231.697656 
M 295.06575 213.697656 
L 295.06575 213.697656 
L 295.06575 195.697656 
" clip-path="url(#p225f23bdff)" style="fill: none; stroke: #000000; stroke-width: 2; stroke-linecap: round"/>
   </g>
   <g id="line2d_9">
    <path d="M 296.86575 227.197656 
L 293.26575 227.197656 
" clip-path="url(#p225f23bdff)" style="fill: none; stroke: #000000; stroke-width: 2; stroke-linecap: round"/>
   </g>
   <g id="line2d_10">
    <path d="M 295.06575 219.997656 
L 295.06575 216.397656 
" clip-path="url(#p225f23bdff)" style="fill: none; stroke: #000000; stroke-width: 2; stroke-linecap: round"/>
   </g>
   <g id="line2d_11">
    <path d="M 296.86575 218.197656 
L 293.26575 218.197656 
" clip-path="url(#p225f23bdff)" style="fill: none; stroke: #000000; stroke-width: 2; stroke-linecap: round"/>
   </g>
   <g id="line2d_12">
    <path d="M 295.06575 195.697656 
L 322.06575 195.697656 
L 349.06575 195.697656 
" clip-path="url(#p225f23bdff)" style="fill: none; stroke: #000000; stroke-width: 2; stroke-linecap: round"/>
   </g>
   <g id="line2d_13">
    <path d="M 349.06575 195.697656 
L 349.06575 213.697656 
L 376.06575 195.697656 
L 349.06575 177.697656 
L 349.06575 195.697656 
" clip-path="url(#p225f23bdff)" style="fill: none; stroke: #000000; stroke-width: 2; stroke-linecap: round"/>
   </g>
   <g id="line2d_14">
    <path d="M 376.06575 195.697656 
L 394.06575 195.697656 
L 412.06575 195.697656 
" clip-path="url(#p225f23bdff)" style="fill: none; stroke: #000000; stroke-width: 2; stroke-linecap: round"/>
   </g>
   <g id="line2d_15">
    <path d="M 412.06575 195.697656 
L 412.06575 174.097656 
L 398.38575 152.497656 
L 425.74575 152.497656 
L 412.06575 174.097656 
" clip-path="url(#p225f23bdff)" style="fill: none; stroke: #000000; stroke-width: 2; stroke-linecap: round"/>
   </g>
   <g id="line2d_16">
    <path d="M 295.06575 249.697656 
L 328.81575 249.697656 
L 362.56575 249.697656 
" clip-path="url(#p225f23bdff)" style="fill: none; stroke: #000000; stroke-width: 2; stroke-linecap: round"/>
   </g>
   <g id="line2d_17">
    <path d="M 362.56575 249.697656 
L 362.56575 264.097656 
L 353.56575 264.097656 
L 371.56575 264.097656 
M 356.26575 268.417656 
L 368.86575 268.417656 
M 360.76575 272.737656 
L 364.36575 272.737656 
" clip-path="url(#p225f23bdff)" style="fill: none; stroke: #000000; stroke-width: 2; stroke-linecap: round"/>
   </g>
   <g id="line2d_18">
    <path d="M 362.56575 249.697656 
L 362.56575 227.197656 
L 362.56575 204.697656 
" clip-path="url(#p225f23bdff)" style="fill: none; stroke: #000000; stroke-width: 2; stroke-linecap: round"/>
   </g>
   <g id="line2d_19">
    <path d="M 223.06575 141.697656 
L 289.57575 141.697656 
M 289.57575 132.697656 
L 289.57575 150.697656 
M 296.05575 132.697656 
L 296.05575 150.697656 
M 296.05575 141.697656 
L 362.56575 141.697656 
" clip-path="url(#p225f23bdff)" style="fill: none; stroke: #000000; stroke-width: 2; stroke-linecap: round"/>
   </g>
   <g id="line2d_20">
    <path d="M 362.56575 141.697656 
L 362.56575 164.197656 
L 362.56575 186.697656 
" clip-path="url(#p225f23bdff)" style="fill: none; stroke: #000000; stroke-width: 2; stroke-linecap: round"/>
   </g>
   <g id="line2d_21">
    <path d="M 362.56575 141.697656 
L 362.56575 105.697656 
L 359.601563 105.563587 
L 356.610643 105.155897 
L 353.843833 104.483655 
L 351.533182 103.578118 
L 350.611442 103.053089 
L 349.872479 102.490109 
L 349.331869 101.897889 
L 349.001006 101.285754 
L 348.886866 100.66345 
L 348.991852 100.040936 
L 349.313754 99.428178 
L 349.845785 98.834934 
L 350.576732 98.270551 
L 351.491186 97.743768 
L 353.790059 96.833831 
L 356.5496 96.156314 
L 359.53837 95.742916 
L 362.505707 95.603184 
L 365.202744 95.723714 
L 367.403285 96.069274 
L 368.922774 96.585759 
L 369.384739 96.88712 
L 369.633773 97.204728 
L 369.664628 97.528733 
L 369.476653 97.849147 
L 369.07381 98.15606 
L 367.661835 98.691364 
L 365.547124 99.064627 
L 362.907034 99.21942 
L 359.962986 99.117638 
L 356.961892 98.742693 
L 354.15545 98.100908 
L 351.779031 97.220986 
L 350.816256 96.706255 
L 350.031942 96.151599 
L 349.442619 95.565554 
L 349.060709 94.957314 
L 348.894263 94.336543 
L 348.946788 93.713169 
L 349.217178 93.097174 
L 349.699733 92.498385 
L 350.384282 91.926267 
L 351.256395 91.389721 
L 353.486221 90.455036 
L 356.202197 89.747596 
L 359.176539 89.30161 
L 362.159794 89.129359 
L 364.90176 89.220166 
L 367.172473 89.541292 
L 368.781492 90.04068 
L 369.293181 90.33672 
L 369.59387 90.651324 
L 369.677221 90.974705 
L 369.541475 91.296888 
L 369.189496 91.607926 
L 368.628702 91.898105 
L 366.932102 92.379428 
L 364.593968 92.675367 
L 361.810395 92.735978 
L 358.814837 92.531054 
L 355.858526 92.052659 
L 353.189405 91.31579 
L 351.031328 90.357126 
L 350.202612 89.811285 
L 349.56529 89.231943 
L 349.132795 88.628154 
L 348.914245 88.009487 
L 348.914245 87.385826 
L 349.132795 86.767159 
L 349.56529 86.163369 
L 350.202612 85.584027 
L 351.031328 85.038187 
L 352.03397 84.534196 
L 354.473277 83.680591 
L 357.315952 83.069678 
L 360.323585 82.727569 
L 363.243928 82.657835 
L 365.832059 82.841199 
L 367.870913 83.237161 
L 369.189496 83.787387 
L 369.541475 84.098425 
L 369.677221 84.420608 
L 369.59387 84.743988 
L 369.293181 85.058593 
L 368.781492 85.354633 
L 367.172473 85.854021 
L 364.90176 86.175146 
L 362.159794 86.265953 
L 359.176539 86.093702 
L 356.202197 85.647717 
L 353.486221 84.940277 
L 351.256395 84.005591 
L 350.384282 83.469046 
L 349.699733 82.896928 
L 349.217178 82.298139 
L 348.946788 81.682144 
L 348.894263 81.058769 
L 349.060709 80.437999 
L 349.442619 79.829759 
L 350.031942 79.243713 
L 350.816256 78.689058 
L 351.779031 78.174327 
L 354.15545 77.294404 
L 356.961892 76.65262 
L 359.962986 76.277675 
L 362.907034 76.175893 
L 365.547124 76.330686 
L 367.661835 76.703949 
L 369.07381 77.239253 
L 369.476653 77.546166 
L 369.664628 77.86658 
L 369.633773 78.190584 
L 369.384739 78.508193 
L 368.922774 78.809554 
L 367.403285 79.326039 
L 365.202744 79.671599 
L 362.505707 79.792129 
L 359.53837 79.652397 
L 356.5496 79.238998 
L 353.790059 78.561481 
L 351.491186 77.651544 
L 350.576732 77.124762 
L 349.845785 76.560379 
L 349.313754 75.967135 
L 348.991852 75.354376 
L 348.886866 74.731863 
L 349.001006 74.109559 
L 349.331869 73.497424 
L 349.872479 72.905203 
L 350.611442 72.342224 
L 351.533182 71.817194 
L 353.843833 70.911657 
L 356.610643 70.239416 
L 359.601563 69.831726 
L 362.56575 69.697656 
L 362.56575 33.697656 
L 362.56575 33.697656 
" clip-path="url(#p225f23bdff)" style="fill: none; stroke: #000000; stroke-width: 2; stroke-linecap: round"/>
   </g>
   <g id="line2d_22">
    <path d="M 362.56575 33.697656 
L 362.56575 19.297656 
" clip-path="url(#p225f23bdff)" style="fill: none; stroke: #000000; stroke-width: 2; stroke-linecap: round"/>
   </g>
   <g id="line2d_23">
    <path d="M 362.56575 19.297656 
L 355.81575 19.297656 
" clip-path="url(#p225f23bdff)" style="fill: none; stroke: #000000; stroke-width: 2; stroke-linecap: round"/>
   </g>
   <g id="line2d_24">
    <path d="M 362.56575 19.297656 
L 369.31575 19.297656 
" clip-path="url(#p225f23bdff)" style="fill: none; stroke: #000000; stroke-width: 2; stroke-linecap: round"/>
   </g>
   <g id="text_1">
    <!-- $V_{in LF}$ -->
    <g transform="translate(122.39075 199.146875) scale(0.125 -0.125)">
     <defs>
      <path id="DejaVuSans-Oblique-56" d="M 1319 0 
L 500 4666 
L 1119 4666 
L 1797 653 
L 4063 4666 
L 4750 4666 
L 2053 0 
L 1319 0 
z
" transform="scale(0.015625)"/>
      <path id="DejaVuSans-Oblique-69" d="M 1172 4863 
L 1747 4863 
L 1606 4134 
L 1031 4134 
L 1172 4863 
z
M 909 3500 
L 1484 3500 
L 800 0 
L 225 0 
L 909 3500 
z
" transform="scale(0.015625)"/>
      <path id="DejaVuSans-Oblique-6e" d="M 3566 2113 
L 3156 0 
L 2578 0 
L 2988 2091 
Q 3016 2238 3031 2350 
Q 3047 2463 3047 2528 
Q 3047 2791 2881 2937 
Q 2716 3084 2419 3084 
Q 1956 3084 1622 2776 
Q 1288 2469 1184 1941 
L 800 0 
L 225 0 
L 903 3500 
L 1478 3500 
L 1363 2950 
Q 1603 3253 1940 3418 
Q 2278 3584 2650 3584 
Q 3113 3584 3367 3334 
Q 3622 3084 3622 2631 
Q 3622 2519 3608 2391 
Q 3594 2263 3566 2113 
z
" transform="scale(0.015625)"/>
      <path id="DejaVuSans-Oblique-4c" d="M 1075 4666 
L 1709 4666 
L 909 525 
L 3181 525 
L 3078 0 
L 172 0 
L 1075 4666 
z
" transform="scale(0.015625)"/>
      <path id="DejaVuSans-Oblique-46" d="M 1081 4666 
L 3756 4666 
L 3653 4134 
L 1606 4134 
L 1338 2759 
L 3188 2759 
L 3084 2228 
L 1234 2228 
L 800 0 
L 172 0 
L 1081 4666 
z
" transform="scale(0.015625)"/>
     </defs>
     <use xlink:href="#DejaVuSans-Oblique-56" transform="translate(0 0.09375)"/>
     <use xlink:href="#DejaVuSans-Oblique-69" transform="translate(68.408203 -16.3125) scale(0.7)"/>
     <use xlink:href="#DejaVuSans-Oblique-6e" transform="translate(87.856445 -16.3125) scale(0.7)"/>
     <use xlink:href="#DejaVuSans-Oblique-4c" transform="translate(132.22168 -16.3125) scale(0.7)"/>
     <use xlink:href="#DejaVuSans-Oblique-46" transform="translate(171.220703 -16.3125) scale(0.7)"/>
    </g>
   </g>
   <g id="text_2">
    <!-- $V_{in HF}$ -->
    <g transform="translate(255.76575 226.146875) scale(0.125 -0.125)">
     <defs>
      <path id="DejaVuSans-Oblique-48" d="M 1081 4666 
L 1716 4666 
L 1344 2753 
L 3634 2753 
L 4006 4666 
L 4641 4666 
L 3731 0 
L 3097 0 
L 3531 2222 
L 1241 2222 
L 806 0 
L 172 0 
L 1081 4666 
z
" transform="scale(0.015625)"/>
     </defs>
     <use xlink:href="#DejaVuSans-Oblique-56" transform="translate(0 0.09375)"/>
     <use xlink:href="#DejaVuSans-Oblique-69" transform="translate(68.408203 -16.3125) scale(0.7)"/>
     <use xlink:href="#DejaVuSans-Oblique-6e" transform="translate(87.856445 -16.3125) scale(0.7)"/>
     <use xlink:href="#DejaVuSans-Oblique-48" transform="translate(132.22168 -16.3125) scale(0.7)"/>
     <use xlink:href="#DejaVuSans-Oblique-46" transform="translate(184.858398 -16.3125) scale(0.7)"/>
    </g>
   </g>
   <g id="text_3">
    <!-- $C$ -->
    <g transform="translate(288.44075 126.498047) scale(0.125 -0.125)">
     <defs>
      <path id="DejaVuSans-Oblique-43" d="M 4447 4306 
L 4319 3641 
Q 4019 3944 3683 4091 
Q 3347 4238 2956 4238 
Q 2422 4238 2017 3981 
Q 1613 3725 1319 3200 
Q 1131 2863 1032 2486 
Q 934 2109 934 1728 
Q 934 1091 1264 756 
Q 1594 422 2222 422 
Q 2656 422 3056 561 
Q 3456 700 3834 978 
L 3688 231 
Q 3316 72 2936 -9 
Q 2556 -91 2175 -91 
Q 1278 -91 773 396 
Q 269 884 269 1753 
Q 269 2309 461 2846 
Q 653 3384 1013 3828 
Q 1394 4300 1883 4525 
Q 2372 4750 3022 4750 
Q 3422 4750 3780 4639 
Q 4138 4528 4447 4306 
z
" transform="scale(0.015625)"/>
     </defs>
     <use xlink:href="#DejaVuSans-Oblique-43" transform="translate(0 0.78125)"/>
    </g>
   </g>
   <g id="text_4">
    <!-- $L$ -->
    <g transform="translate(338.286866 91.146875) scale(0.125 -0.125)">
     <use xlink:href="#DejaVuSans-Oblique-4c" transform="translate(0 0.09375)"/>
    </g>
   </g>
   <g id="text_5">
    <!-- $V_{dd}$ -->
    <g transform="translate(352.50325 13.098047) scale(0.125 -0.125)">
     <defs>
      <path id="DejaVuSans-Oblique-64" d="M 2675 525 
Q 2444 222 2128 65 
Q 1813 -91 1428 -91 
Q 903 -91 598 267 
Q 294 625 294 1247 
Q 294 1766 478 2236 
Q 663 2706 1013 3078 
Q 1244 3325 1534 3454 
Q 1825 3584 2144 3584 
Q 2481 3584 2739 3421 
Q 2997 3259 3138 2956 
L 3513 4863 
L 4091 4863 
L 3144 0 
L 2566 0 
L 2675 525 
z
M 891 1350 
Q 891 897 1095 644 
Q 1300 391 1663 391 
Q 1931 391 2161 520 
Q 2391 650 2566 903 
Q 2750 1166 2856 1509 
Q 2963 1853 2963 2188 
Q 2963 2622 2758 2865 
Q 2553 3109 2194 3109 
Q 1922 3109 1687 2981 
Q 1453 2853 1288 2613 
Q 1106 2353 998 2009 
Q 891 1666 891 1350 
z
" transform="scale(0.015625)"/>
     </defs>
     <use xlink:href="#DejaVuSans-Oblique-56" transform="translate(0 0.09375)"/>
     <use xlink:href="#DejaVuSans-Oblique-64" transform="translate(68.408203 -16.3125) scale(0.7)"/>
     <use xlink:href="#DejaVuSans-Oblique-64" transform="translate(112.841797 -16.3125) scale(0.7)"/>
    </g>
   </g>
   <g id="text_6">
    <!-- Klasse B -->
    <g style="fill: #ff0000" transform="translate(3.6 190.146875) scale(0.125 -0.125)">
     <defs>
      <path id="DejaVuSans-4b" d="M 628 4666 
L 1259 4666 
L 1259 2694 
L 3353 4666 
L 4166 4666 
L 1850 2491 
L 4331 0 
L 3500 0 
L 1259 2247 
L 1259 0 
L 628 0 
L 628 4666 
z
" transform="scale(0.015625)"/>
      <path id="DejaVuSans-6c" d="M 603 4863 
L 1178 4863 
L 1178 0 
L 603 0 
L 603 4863 
z
" transform="scale(0.015625)"/>
      <path id="DejaVuSans-61" d="M 2194 1759 
Q 1497 1759 1228 1600 
Q 959 1441 959 1056 
Q 959 750 1161 570 
Q 1363 391 1709 391 
Q 2188 391 2477 730 
Q 2766 1069 2766 1631 
L 2766 1759 
L 2194 1759 
z
M 3341 1997 
L 3341 0 
L 2766 0 
L 2766 531 
Q 2569 213 2275 61 
Q 1981 -91 1556 -91 
Q 1019 -91 701 211 
Q 384 513 384 1019 
Q 384 1609 779 1909 
Q 1175 2209 1959 2209 
L 2766 2209 
L 2766 2266 
Q 2766 2663 2505 2880 
Q 2244 3097 1772 3097 
Q 1472 3097 1187 3025 
Q 903 2953 641 2809 
L 641 3341 
Q 956 3463 1253 3523 
Q 1550 3584 1831 3584 
Q 2591 3584 2966 3190 
Q 3341 2797 3341 1997 
z
" transform="scale(0.015625)"/>
      <path id="DejaVuSans-73" d="M 2834 3397 
L 2834 2853 
Q 2591 2978 2328 3040 
Q 2066 3103 1784 3103 
Q 1356 3103 1142 2972 
Q 928 2841 928 2578 
Q 928 2378 1081 2264 
Q 1234 2150 1697 2047 
L 1894 2003 
Q 2506 1872 2764 1633 
Q 3022 1394 3022 966 
Q 3022 478 2636 193 
Q 2250 -91 1575 -91 
Q 1294 -91 989 -36 
Q 684 19 347 128 
L 347 722 
Q 666 556 975 473 
Q 1284 391 1588 391 
Q 1994 391 2212 530 
Q 2431 669 2431 922 
Q 2431 1156 2273 1281 
Q 2116 1406 1581 1522 
L 1381 1569 
Q 847 1681 609 1914 
Q 372 2147 372 2553 
Q 372 3047 722 3315 
Q 1072 3584 1716 3584 
Q 2034 3584 2315 3537 
Q 2597 3491 2834 3397 
z
" transform="scale(0.015625)"/>
      <path id="DejaVuSans-65" d="M 3597 1894 
L 3597 1613 
L 953 1613 
Q 991 1019 1311 708 
Q 1631 397 2203 397 
Q 2534 397 2845 478 
Q 3156 559 3463 722 
L 3463 178 
Q 3153 47 2828 -22 
Q 2503 -91 2169 -91 
Q 1331 -91 842 396 
Q 353 884 353 1716 
Q 353 2575 817 3079 
Q 1281 3584 2069 3584 
Q 2775 3584 3186 3129 
Q 3597 2675 3597 1894 
z
M 3022 2063 
Q 3016 2534 2758 2815 
Q 2500 3097 2075 3097 
Q 1594 3097 1305 2825 
Q 1016 2553 972 2059 
L 3022 2063 
z
" transform="scale(0.015625)"/>
      <path id="DejaVuSans-20" transform="scale(0.015625)"/>
      <path id="DejaVuSans-42" d="M 1259 2228 
L 1259 519 
L 2272 519 
Q 2781 519 3026 730 
Q 3272 941 3272 1375 
Q 3272 1813 3026 2020 
Q 2781 2228 2272 2228 
L 1259 2228 
z
M 1259 4147 
L 1259 2741 
L 2194 2741 
Q 2656 2741 2882 2914 
Q 3109 3088 3109 3444 
Q 3109 3797 2882 3972 
Q 2656 4147 2194 4147 
L 1259 4147 
z
M 628 4666 
L 2241 4666 
Q 2963 4666 3353 4366 
Q 3744 4066 3744 3513 
Q 3744 3084 3544 2831 
Q 3344 2578 2956 2516 
Q 3422 2416 3680 2098 
Q 3938 1781 3938 1306 
Q 3938 681 3513 340 
Q 3088 0 2303 0 
L 628 0 
L 628 4666 
z
" transform="scale(0.015625)"/>
     </defs>
     <use xlink:href="#DejaVuSans-4b"/>
     <use xlink:href="#DejaVuSans-6c" x="65.576172"/>
     <use xlink:href="#DejaVuSans-61" x="93.359375"/>
     <use xlink:href="#DejaVuSans-73" x="154.638672"/>
     <use xlink:href="#DejaVuSans-73" x="206.738281"/>
     <use xlink:href="#DejaVuSans-65" x="258.837891"/>
     <use xlink:href="#DejaVuSans-20" x="320.361328"/>
     <use xlink:href="#DejaVuSans-42" x="352.148438"/>
    </g>
   </g>
   <g id="text_7">
    <!-- Klasse C -->
    <g style="fill: #008000" transform="translate(437.26575 260.346875) scale(0.125 -0.125)">
     <defs>
      <path id="DejaVuSans-43" d="M 4122 4306 
L 4122 3641 
Q 3803 3938 3442 4084 
Q 3081 4231 2675 4231 
Q 1875 4231 1450 3742 
Q 1025 3253 1025 2328 
Q 1025 1406 1450 917 
Q 1875 428 2675 428 
Q 3081 428 3442 575 
Q 3803 722 4122 1019 
L 4122 359 
Q 3791 134 3420 21 
Q 3050 -91 2638 -91 
Q 1578 -91 968 557 
Q 359 1206 359 2328 
Q 359 3453 968 4101 
Q 1578 4750 2638 4750 
Q 3056 4750 3426 4639 
Q 3797 4528 4122 4306 
z
" transform="scale(0.015625)"/>
     </defs>
     <use xlink:href="#DejaVuSans-4b"/>
     <use xlink:href="#DejaVuSans-6c" x="65.576172"/>
     <use xlink:href="#DejaVuSans-61" x="93.359375"/>
     <use xlink:href="#DejaVuSans-73" x="154.638672"/>
     <use xlink:href="#DejaVuSans-73" x="206.738281"/>
     <use xlink:href="#DejaVuSans-65" x="258.837891"/>
     <use xlink:href="#DejaVuSans-20" x="320.361328"/>
     <use xlink:href="#DejaVuSans-43" x="352.148438"/>
    </g>
   </g>
   <g id="patch_14">
    <path d="M 295.06575 252.397656 
C 295.781798 252.397656 296.468616 252.113167 296.974938 251.606845 
C 297.481261 251.100522 297.76575 250.413705 297.76575 249.697656 
C 297.76575 248.981608 297.481261 248.294791 296.974938 247.788468 
C 296.468616 247.282145 295.781798 246.997656 295.06575 246.997656 
C 294.349702 246.997656 293.662884 247.282145 293.156562 247.788468 
C 292.650239 248.294791 292.36575 248.981608 292.36575 249.697656 
C 292.36575 250.413705 292.650239 251.100522 293.156562 251.606845 
C 293.662884 252.113167 294.349702 252.397656 295.06575 252.397656 
z
" clip-path="url(#p225f23bdff)" style="stroke: #000000; stroke-width: 2; stroke-linejoin: miter"/>
   </g>
  </g>
 </g>
 <defs>
  <clipPath id="p225f23bdff">
   <rect x="41.10015" y="6.625656" width="411.2592" height="278.784"/>
  </clipPath>
 </defs>
</svg>