<?xml version="1.0" encoding="utf-8" standalone="no"?>
<!DOCTYPE svg PUBLIC "-//W3C//DTD SVG 1.1//EN"
  "http://www.w3.org/Graphics/SVG/1.1/DTD/svg11.dtd">
<svg xmlns:xlink="http://www.w3.org/1999/xlink" width="358.6325pt" height="331.470485pt" viewBox="0 0 358.6325 331.470485" xmlns="http://www.w3.org/2000/svg" version="1.1">
 <metadata>
  <rdf:RDF xmlns:dc="http://purl.org/dc/elements/1.1/" xmlns:cc="http://creativecommons.org/ns#" xmlns:rdf="http://www.w3.org/1999/02/22-rdf-syntax-ns#">
   <cc:Work>
    <dc:type rdf:resource="http://purl.org/dc/dcmitype/StillImage"/>
    <dc:date>2023-09-26T21:32:29.559577</dc:date>
    <dc:format>image/svg+xml</dc:format>
    <dc:creator>
     <cc:Agent>
      <dc:title>Matplotlib v3.6.3, https://matplotlib.org/</dc:title>
     </cc:Agent>
    </dc:creator>
   </cc:Work>
  </rdf:RDF>
 </metadata>
 <defs>
  <style type="text/css">*{stroke-linejoin: round; stroke-linecap: butt}</style>
 </defs>
 <g id="figure_1">
  <g id="patch_1">
   <path d="M 0 331.470485 
L 358.6325 331.470485 
L 358.6325 -0 
L 0 -0 
z
" style="fill: #ffffff"/>
  </g>
  <g id="axes_1">
   <g id="patch_2">
    <path d="M 81.498672 185.976541 
C 81.498672 184.067714 80.739585 182.235116 79.389841 180.885372 
C 78.040097 179.535628 76.207498 178.776541 74.298672 178.776541 
C 72.389846 178.776541 70.557247 179.535628 69.207503 180.885372 
C 67.857759 182.235116 67.098672 184.067714 67.098672 185.976541 
" clip-path="url(#p8e519a0a19)" style="fill: none; stroke: #000000; stroke-width: 2; stroke-linejoin: miter"/>
   </g>
   <g id="patch_3">
    <path d="M 95.898672 185.976541 
C 95.898672 184.067714 95.139585 182.235116 93.789841 180.885372 
C 92.440097 179.535628 90.607498 178.776541 88.698672 178.776541 
C 86.789846 178.776541 84.957247 179.535628 83.607503 180.885372 
C 82.257759 182.235116 81.498672 184.067714 81.498672 185.976541 
" clip-path="url(#p8e519a0a19)" style="fill: none; stroke: #000000; stroke-width: 2; stroke-linejoin: miter"/>
   </g>
   <g id="patch_4">
    <path d="M 110.298672 185.976541 
C 110.298672 184.067714 109.539585 182.235116 108.189841 180.885372 
C 106.840097 179.535628 105.007498 178.776541 103.098672 178.776541 
C 101.189846 178.776541 99.357247 179.535628 98.007503 180.885372 
C 96.657759 182.235116 95.898672 184.067714 95.898672 185.976541 
" clip-path="url(#p8e519a0a19)" style="fill: none; stroke: #000000; stroke-width: 2; stroke-linejoin: miter"/>
   </g>
   <g id="patch_5">
    <path d="M 124.698672 185.976541 
C 124.698672 184.067714 123.939585 182.235116 122.589841 180.885372 
C 121.240097 179.535628 119.407498 178.776541 117.498672 178.776541 
C 115.589846 178.776541 113.757247 179.535628 112.407503 180.885372 
C 111.057759 182.235116 110.298672 184.067714 110.298672 185.976541 
" clip-path="url(#p8e519a0a19)" style="fill: none; stroke: #000000; stroke-width: 2; stroke-linejoin: miter"/>
   </g>
   <g id="patch_6">
    <path d="M 139.098672 185.976541 
C 139.098672 184.067714 138.339585 182.235116 136.989841 180.885372 
C 135.640097 179.535628 133.807498 178.776541 131.898672 178.776541 
C 129.989846 178.776541 128.157247 179.535628 126.807503 180.885372 
C 125.457759 182.235116 124.698672 184.067714 124.698672 185.976541 
" clip-path="url(#p8e519a0a19)" style="fill: none; stroke: #000000; stroke-width: 2; stroke-linejoin: miter"/>
   </g>
   <g id="patch_7">
    <path d="M 153.498672 185.976541 
C 153.498672 184.067714 152.739585 182.235116 151.389841 180.885372 
C 150.040097 179.535628 148.207498 178.776541 146.298672 178.776541 
C 144.389846 178.776541 142.557247 179.535628 141.207503 180.885372 
C 139.857759 182.235116 139.098672 184.067714 139.098672 185.976541 
" clip-path="url(#p8e519a0a19)" style="fill: none; stroke: #000000; stroke-width: 2; stroke-linejoin: miter"/>
   </g>
   <g id="patch_8">
    <path d="M 167.898672 185.976541 
C 167.898672 184.067714 167.139585 182.235116 165.789841 180.885372 
C 164.440097 179.535628 162.607498 178.776541 160.698672 178.776541 
C 158.789846 178.776541 156.957247 179.535628 155.607503 180.885372 
C 154.257759 182.235116 153.498672 184.067714 153.498672 185.976541 
" clip-path="url(#p8e519a0a19)" style="fill: none; stroke: #000000; stroke-width: 2; stroke-linejoin: miter"/>
   </g>
   <g id="patch_9">
    <path d="M 182.298672 185.976541 
C 182.298672 184.067714 181.539585 182.235116 180.189841 180.885372 
C 178.840097 179.535628 177.007498 178.776541 175.098672 178.776541 
C 173.189846 178.776541 171.357247 179.535628 170.007503 180.885372 
C 168.657759 182.235116 167.898672 184.067714 167.898672 185.976541 
" clip-path="url(#p8e519a0a19)" style="fill: none; stroke: #000000; stroke-width: 2; stroke-linejoin: miter"/>
   </g>
   <g id="patch_10">
    <path d="M 196.698672 185.976541 
C 196.698672 184.067714 195.939585 182.235116 194.589841 180.885372 
C 193.240097 179.535628 191.407498 178.776541 189.498672 178.776541 
C 187.589846 178.776541 185.757247 179.535628 184.407503 180.885372 
C 183.057759 182.235116 182.298672 184.067714 182.298672 185.976541 
" clip-path="url(#p8e519a0a19)" style="fill: none; stroke: #000000; stroke-width: 2; stroke-linejoin: miter"/>
   </g>
   <g id="patch_11">
    <path d="M 211.098672 185.976541 
C 211.098672 184.067714 210.339585 182.235116 208.989841 180.885372 
C 207.640097 179.535628 205.807498 178.776541 203.898672 178.776541 
C 201.989846 178.776541 200.157247 179.535628 198.807503 180.885372 
C 197.457759 182.235116 196.698672 184.067714 196.698672 185.976541 
" clip-path="url(#p8e519a0a19)" style="fill: none; stroke: #000000; stroke-width: 2; stroke-linejoin: miter"/>
   </g>
   <g id="patch_12">
    <path d="M 225.498672 185.976541 
C 225.498672 184.067714 224.739585 182.235116 223.389841 180.885372 
C 222.040097 179.535628 220.207498 178.776541 218.298672 178.776541 
C 216.389846 178.776541 214.557247 179.535628 213.207503 180.885372 
C 211.857759 182.235116 211.098672 184.067714 211.098672 185.976541 
" clip-path="url(#p8e519a0a19)" style="fill: none; stroke: #000000; stroke-width: 2; stroke-linejoin: miter"/>
   </g>
   <g id="patch_13">
    <path d="M 239.898672 185.976541 
C 239.898672 184.067714 239.139585 182.235116 237.789841 180.885372 
C 236.440097 179.535628 234.607498 178.776541 232.698672 178.776541 
C 230.789846 178.776541 228.957247 179.535628 227.607503 180.885372 
C 226.257759 182.235116 225.498672 184.067714 225.498672 185.976541 
" clip-path="url(#p8e519a0a19)" style="fill: none; stroke: #000000; stroke-width: 2; stroke-linejoin: miter"/>
   </g>
   <g id="patch_14">
    <path d="M 254.298672 185.976541 
C 254.298672 184.067714 253.539585 182.235116 252.189841 180.885372 
C 250.840097 179.535628 249.007498 178.776541 247.098672 178.776541 
C 245.189846 178.776541 243.357247 179.535628 242.007503 180.885372 
C 240.657759 182.235116 239.898672 184.067714 239.898672 185.976541 
" clip-path="url(#p8e519a0a19)" style="fill: none; stroke: #000000; stroke-width: 2; stroke-linejoin: miter"/>
   </g>
   <g id="patch_15">
    <path d="M 268.698672 185.976541 
C 268.698672 184.067714 267.939585 182.235116 266.589841 180.885372 
C 265.240097 179.535628 263.407498 178.776541 261.498672 178.776541 
C 259.589846 178.776541 257.757247 179.535628 256.407503 180.885372 
C 255.057759 182.235116 254.298672 184.067714 254.298672 185.976541 
" clip-path="url(#p8e519a0a19)" style="fill: none; stroke: #000000; stroke-width: 2; stroke-linejoin: miter"/>
   </g>
   <g id="patch_16">
    <path d="M 283.098672 185.976541 
C 283.098672 184.067714 282.339585 182.235116 280.989841 180.885372 
C 279.640097 179.535628 277.807498 178.776541 275.898672 178.776541 
C 273.989846 178.776541 272.157247 179.535628 270.807503 180.885372 
C 269.457759 182.235116 268.698672 184.067714 268.698672 185.976541 
" clip-path="url(#p8e519a0a19)" style="fill: none; stroke: #000000; stroke-width: 2; stroke-linejoin: miter"/>
   </g>
   <g id="patch_17">
    <path d="M 297.498672 185.976541 
C 297.498672 184.067714 296.739585 182.235116 295.389841 180.885372 
C 294.040097 179.535628 292.207498 178.776541 290.298672 178.776541 
C 288.389846 178.776541 286.557247 179.535628 285.207503 180.885372 
C 283.857759 182.235116 283.098672 184.067714 283.098672 185.976541 
" clip-path="url(#p8e519a0a19)" style="fill: none; stroke: #000000; stroke-width: 2; stroke-linejoin: miter"/>
   </g>
   <g id="patch_18">
    <path d="M 67.098672 149.976541 
C 67.098672 151.885367 67.857759 153.717965 69.207503 155.06771 
C 70.557247 156.417454 72.389846 157.176541 74.298672 157.176541 
C 76.207498 157.176541 78.040097 156.417454 79.389841 155.06771 
C 80.739585 153.717965 81.498672 151.885367 81.498672 149.976541 
" clip-path="url(#p8e519a0a19)" style="fill: none; stroke: #000000; stroke-width: 2; stroke-linejoin: miter"/>
   </g>
   <g id="patch_19">
    <path d="M 81.498672 149.976541 
C 81.498672 151.885367 82.257759 153.717965 83.607503 155.06771 
C 84.957247 156.417454 86.789846 157.176541 88.698672 157.176541 
C 90.607498 157.176541 92.440097 156.417454 93.789841 155.06771 
C 95.139585 153.717965 95.898672 151.885367 95.898672 149.976541 
" clip-path="url(#p8e519a0a19)" style="fill: none; stroke: #000000; stroke-width: 2; stroke-linejoin: miter"/>
   </g>
   <g id="patch_20">
    <path d="M 95.898672 149.976541 
C 95.898672 151.885367 96.657759 153.717965 98.007503 155.06771 
C 99.357247 156.417454 101.189846 157.176541 103.098672 157.176541 
C 105.007498 157.176541 106.840097 156.417454 108.189841 155.06771 
C 109.539585 153.717965 110.298672 151.885367 110.298672 149.976541 
" clip-path="url(#p8e519a0a19)" style="fill: none; stroke: #000000; stroke-width: 2; stroke-linejoin: miter"/>
   </g>
   <g id="patch_21">
    <path d="M 110.298672 149.976541 
C 110.298672 151.885367 111.057759 153.717965 112.407503 155.06771 
C 113.757247 156.417454 115.589846 157.176541 117.498672 157.176541 
C 119.407498 157.176541 121.240097 156.417454 122.589841 155.06771 
C 123.939585 153.717965 124.698672 151.885367 124.698672 149.976541 
" clip-path="url(#p8e519a0a19)" style="fill: none; stroke: #000000; stroke-width: 2; stroke-linejoin: miter"/>
   </g>
   <g id="patch_22">
    <path d="M 124.698672 149.976541 
C 124.698672 151.885367 125.457759 153.717965 126.807503 155.06771 
C 128.157247 156.417454 129.989846 157.176541 131.898672 157.176541 
C 133.807498 157.176541 135.640097 156.417454 136.989841 155.06771 
C 138.339585 153.717965 139.098672 151.885367 139.098672 149.976541 
" clip-path="url(#p8e519a0a19)" style="fill: none; stroke: #000000; stroke-width: 2; stroke-linejoin: miter"/>
   </g>
   <g id="patch_23">
    <path d="M 139.098672 149.976541 
C 139.098672 151.885367 139.857759 153.717965 141.207503 155.06771 
C 142.557247 156.417454 144.389846 157.176541 146.298672 157.176541 
C 148.207498 157.176541 150.040097 156.417454 151.389841 155.06771 
C 152.739585 153.717965 153.498672 151.885367 153.498672 149.976541 
" clip-path="url(#p8e519a0a19)" style="fill: none; stroke: #000000; stroke-width: 2; stroke-linejoin: miter"/>
   </g>
   <g id="patch_24">
    <path d="M 153.498672 149.976541 
C 153.498672 151.885367 154.257759 153.717965 155.607503 155.06771 
C 156.957247 156.417454 158.789846 157.176541 160.698672 157.176541 
C 162.607498 157.176541 164.440097 156.417454 165.789841 155.06771 
C 167.139585 153.717965 167.898672 151.885367 167.898672 149.976541 
" clip-path="url(#p8e519a0a19)" style="fill: none; stroke: #000000; stroke-width: 2; stroke-linejoin: miter"/>
   </g>
   <g id="patch_25">
    <path d="M 167.898672 149.976541 
C 167.898672 151.885367 168.657759 153.717965 170.007503 155.06771 
C 171.357247 156.417454 173.189846 157.176541 175.098672 157.176541 
C 177.007498 157.176541 178.840097 156.417454 180.189841 155.06771 
C 181.539585 153.717965 182.298672 151.885367 182.298672 149.976541 
" clip-path="url(#p8e519a0a19)" style="fill: none; stroke: #000000; stroke-width: 2; stroke-linejoin: miter"/>
   </g>
   <g id="patch_26">
    <path d="M 182.298672 149.976541 
C 182.298672 151.885367 183.057759 153.717965 184.407503 155.06771 
C 185.757247 156.417454 187.589846 157.176541 189.498672 157.176541 
C 191.407498 157.176541 193.240097 156.417454 194.589841 155.06771 
C 195.939585 153.717965 196.698672 151.885367 196.698672 149.976541 
" clip-path="url(#p8e519a0a19)" style="fill: none; stroke: #000000; stroke-width: 2; stroke-linejoin: miter"/>
   </g>
   <g id="patch_27">
    <path d="M 196.698672 149.976541 
C 196.698672 151.885367 197.457759 153.717965 198.807503 155.06771 
C 200.157247 156.417454 201.989846 157.176541 203.898672 157.176541 
C 205.807498 157.176541 207.640097 156.417454 208.989841 155.06771 
C 210.339585 153.717965 211.098672 151.885367 211.098672 149.976541 
" clip-path="url(#p8e519a0a19)" style="fill: none; stroke: #000000; stroke-width: 2; stroke-linejoin: miter"/>
   </g>
   <g id="patch_28">
    <path d="M 211.098672 149.976541 
C 211.098672 151.885367 211.857759 153.717965 213.207503 155.06771 
C 214.557247 156.417454 216.389846 157.176541 218.298672 157.176541 
C 220.207498 157.176541 222.040097 156.417454 223.389841 155.06771 
C 224.739585 153.717965 225.498672 151.885367 225.498672 149.976541 
" clip-path="url(#p8e519a0a19)" style="fill: none; stroke: #000000; stroke-width: 2; stroke-linejoin: miter"/>
   </g>
   <g id="patch_29">
    <path d="M 225.498672 149.976541 
C 225.498672 151.885367 226.257759 153.717965 227.607503 155.06771 
C 228.957247 156.417454 230.789846 157.176541 232.698672 157.176541 
C 234.607498 157.176541 236.440097 156.417454 237.789841 155.06771 
C 239.139585 153.717965 239.898672 151.885367 239.898672 149.976541 
" clip-path="url(#p8e519a0a19)" style="fill: none; stroke: #000000; stroke-width: 2; stroke-linejoin: miter"/>
   </g>
   <g id="patch_30">
    <path d="M 239.898672 149.976541 
C 239.898672 151.885367 240.657759 153.717965 242.007503 155.06771 
C 243.357247 156.417454 245.189846 157.176541 247.098672 157.176541 
C 249.007498 157.176541 250.840097 156.417454 252.189841 155.06771 
C 253.539585 153.717965 254.298672 151.885367 254.298672 149.976541 
" clip-path="url(#p8e519a0a19)" style="fill: none; stroke: #000000; stroke-width: 2; stroke-linejoin: miter"/>
   </g>
   <g id="patch_31">
    <path d="M 254.298672 149.976541 
C 254.298672 151.885367 255.057759 153.717965 256.407503 155.06771 
C 257.757247 156.417454 259.589846 157.176541 261.498672 157.176541 
C 263.407498 157.176541 265.240097 156.417454 266.589841 155.06771 
C 267.939585 153.717965 268.698672 151.885367 268.698672 149.976541 
" clip-path="url(#p8e519a0a19)" style="fill: none; stroke: #000000; stroke-width: 2; stroke-linejoin: miter"/>
   </g>
   <g id="patch_32">
    <path d="M 268.698672 149.976541 
C 268.698672 151.885367 269.457759 153.717965 270.807503 155.06771 
C 272.157247 156.417454 273.989846 157.176541 275.898672 157.176541 
C 277.807498 157.176541 279.640097 156.417454 280.989841 155.06771 
C 282.339585 153.717965 283.098672 151.885367 283.098672 149.976541 
" clip-path="url(#p8e519a0a19)" style="fill: none; stroke: #000000; stroke-width: 2; stroke-linejoin: miter"/>
   </g>
   <g id="patch_33">
    <path d="M 283.098672 149.976541 
C 283.098672 151.885367 283.857759 153.717965 285.207503 155.06771 
C 286.557247 156.417454 288.389846 157.176541 290.298672 157.176541 
C 292.207498 157.176541 294.040097 156.417454 295.389841 155.06771 
C 296.739585 153.717965 297.498672 151.885367 297.498672 149.976541 
" clip-path="url(#p8e519a0a19)" style="fill: none; stroke: #000000; stroke-width: 2; stroke-linejoin: miter"/>
   </g>
   <g id="line2d_1">
    <path d="M 67.098672 171.576541 
L 297.498672 171.576541 
" clip-path="url(#p8e519a0a19)" style="fill: none; stroke: #000000; stroke-width: 2; stroke-linecap: round"/>
   </g>
   <g id="line2d_2">
    <path d="M 67.098672 164.376541 
L 297.498672 164.376541 
" clip-path="url(#p8e519a0a19)" style="fill: none; stroke: #000000; stroke-width: 2; stroke-linecap: round"/>
   </g>
   <g id="line2d_3">
    <path d="M 67.098672 149.976541 
L 67.098672 113.976541 
L 67.098672 77.976541 
" clip-path="url(#p8e519a0a19)" style="fill: none; stroke: #000000; stroke-width: 2; stroke-linecap: round"/>
   </g>
   <g id="line2d_4">
    <path d="M 67.098672 77.976541 
L 103.098672 77.976541 
L 139.098672 77.976541 
" clip-path="url(#p8e519a0a19)" style="fill: none; stroke: #000000; stroke-width: 2; stroke-linecap: round"/>
   </g>
   <g id="line2d_5">
    <path d="M 139.098672 77.976541 
L 171.858672 77.976541 
M 171.858672 68.976541 
L 171.858672 86.976541 
M 178.338672 68.976541 
L 178.338672 86.976541 
M 178.338672 77.976541 
L 211.098672 77.976541 
" clip-path="url(#p8e519a0a19)" style="fill: none; stroke: #000000; stroke-width: 2; stroke-linecap: round"/>
   </g>
   <g id="line2d_6">
    <path d="M 139.098672 77.976541 
L 139.098672 55.476541 
L 139.098672 32.976541 
" clip-path="url(#p8e519a0a19)" style="fill: none; stroke: #000000; stroke-width: 2; stroke-linecap: round"/>
   </g>
   <g id="line2d_7">
    <path d="M 139.098672 32.976541 
L 157.098672 32.976541 
L 157.232742 30.012354 
L 157.640432 27.021434 
L 158.312673 24.254624 
L 159.21821 21.943972 
L 159.743239 21.022233 
L 160.306219 20.28327 
L 160.898439 19.742659 
L 161.510574 19.411797 
L 162.132879 19.297656 
L 162.755392 19.402643 
L 163.36815 19.724545 
L 163.961395 20.256576 
L 164.525777 20.987522 
L 165.05256 21.901977 
L 165.962497 24.200849 
L 166.640014 26.96039 
L 167.053412 29.949161 
L 167.193144 32.916498 
L 167.072614 35.613535 
L 166.727054 37.814076 
L 166.210569 39.333565 
L 165.909208 39.79553 
L 165.5916 40.044564 
L 165.267595 40.075419 
L 164.947181 39.887444 
L 164.640268 39.484601 
L 164.104964 38.072626 
L 163.731701 35.957915 
L 163.576908 33.317825 
L 163.67869 30.373777 
L 164.053635 27.372683 
L 164.69542 24.56624 
L 165.575343 22.189821 
L 166.090073 21.227047 
L 166.644729 20.442733 
L 167.230774 19.85341 
L 167.839014 19.4715 
L 168.459785 19.305053 
L 169.083159 19.357579 
L 169.699154 19.627968 
L 170.297943 20.110523 
L 170.870061 20.795072 
L 171.406607 21.667186 
L 172.341293 23.897011 
L 173.048732 26.612988 
L 173.494718 29.58733 
L 173.666969 32.570584 
L 173.576162 35.31255 
L 173.255037 37.583263 
L 172.755648 39.192282 
L 172.459608 39.703972 
L 172.145004 40.004661 
L 171.821623 40.088011 
L 171.49944 39.952266 
L 171.188402 39.600287 
L 170.898223 39.039493 
L 170.4169 37.342893 
L 170.120961 35.004759 
L 170.06035 32.221186 
L 170.265274 29.225627 
L 170.74367 26.269317 
L 171.480538 23.600196 
L 172.439202 21.442118 
L 172.985043 20.613402 
L 173.564385 19.97608 
L 174.168174 19.543586 
L 174.786841 19.325035 
L 175.410503 19.325035 
L 176.02917 19.543586 
L 176.632959 19.97608 
L 177.212301 20.613402 
L 177.758141 21.442118 
L 178.262132 22.444761 
L 179.115737 24.884068 
L 179.726651 27.726743 
L 180.068759 30.734375 
L 180.138493 33.654719 
L 179.955129 36.242849 
L 179.559167 38.281704 
L 179.008941 39.600287 
L 178.697904 39.952266 
L 178.37572 40.088011 
L 178.05234 40.004661 
L 177.737735 39.703972 
L 177.441695 39.192282 
L 176.942307 37.583263 
L 176.621182 35.31255 
L 176.530375 32.570584 
L 176.702626 29.58733 
L 177.148611 26.612988 
L 177.856051 23.897011 
L 178.790737 21.667186 
L 179.327282 20.795072 
L 179.899401 20.110523 
L 180.498189 19.627968 
L 181.114184 19.357579 
L 181.737559 19.305053 
L 182.35833 19.4715 
L 182.96657 19.85341 
L 183.552615 20.442733 
L 184.10727 21.227047 
L 184.622001 22.189821 
L 185.501924 24.56624 
L 186.143709 27.372683 
L 186.518653 30.373777 
L 186.620436 33.317825 
L 186.465642 35.957915 
L 186.09238 38.072626 
L 185.557075 39.484601 
L 185.250163 39.887444 
L 184.929748 40.075419 
L 184.605744 40.044564 
L 184.288135 39.79553 
L 183.986774 39.333565 
L 183.470289 37.814076 
L 183.12473 35.613535 
L 183.0042 32.916498 
L 183.143932 29.949161 
L 183.55733 26.96039 
L 184.234847 24.200849 
L 185.144784 21.901977 
L 185.671566 20.987522 
L 186.235949 20.256576 
L 186.829193 19.724545 
L 187.441952 19.402643 
L 188.064465 19.297656 
L 188.686769 19.411797 
L 189.298905 19.742659 
L 189.891125 20.28327 
L 190.454105 21.022233 
L 190.979134 21.943972 
L 191.884671 24.254624 
L 192.556912 27.021434 
L 192.964602 30.012354 
L 193.098672 32.976541 
L 211.098672 32.976541 
L 211.098672 32.976541 
" clip-path="url(#p8e519a0a19)" style="fill: none; stroke: #000000; stroke-width: 2; stroke-linecap: round"/>
   </g>
   <g id="line2d_8">
    <path d="M 211.098672 32.976541 
L 211.098672 55.476541 
L 211.098672 77.976541 
" clip-path="url(#p8e519a0a19)" style="fill: none; stroke: #000000; stroke-width: 2; stroke-linecap: round"/>
   </g>
   <g id="line2d_9">
    <path d="M 139.098672 77.976541 
L 139.098672 100.476541 
L 139.098672 122.976541 
" clip-path="url(#p8e519a0a19)" style="fill: none; stroke: #000000; stroke-width: 2; stroke-linecap: round"/>
   </g>
   <g id="line2d_10">
    <path d="M 139.098672 122.976541 
L 157.098672 122.976541 
L 160.098672 113.976541 
L 166.098672 131.976541 
L 172.098672 113.976541 
L 178.098672 131.976541 
L 184.098672 113.976541 
L 190.098672 131.976541 
L 193.098672 122.976541 
L 211.098672 122.976541 
" clip-path="url(#p8e519a0a19)" style="fill: none; stroke: #000000; stroke-width: 2; stroke-linecap: round"/>
   </g>
   <g id="line2d_11">
    <path d="M 211.098672 122.976541 
L 211.098672 100.476541 
L 211.098672 77.976541 
" clip-path="url(#p8e519a0a19)" style="fill: none; stroke: #000000; stroke-width: 2; stroke-linecap: round"/>
   </g>
   <g id="line2d_12">
    <path d="M 211.098672 77.976541 
L 254.298672 77.976541 
L 297.498672 77.976541 
" clip-path="url(#p8e519a0a19)" style="fill: none; stroke: #000000; stroke-width: 2; stroke-linecap: round"/>
   </g>
   <g id="line2d_13">
    <path d="M 297.498672 77.976541 
L 297.498672 113.976541 
L 297.498672 149.976541 
" clip-path="url(#p8e519a0a19)" style="fill: none; stroke: #000000; stroke-width: 2; stroke-linecap: round"/>
   </g>
   <g id="line2d_14">
    <path d="M 182.298672 185.976541 
L 182.298672 194.976541 
L 185.262858 195.11061 
L 188.253779 195.5183 
L 191.020589 196.190542 
L 193.33124 197.096079 
L 194.25298 197.621108 
L 194.991943 198.184088 
L 195.532553 198.776308 
L 195.863416 199.388443 
L 195.977556 200.010747 
L 195.872569 200.633261 
L 195.550668 201.246019 
L 195.018637 201.839263 
L 194.28769 202.403646 
L 193.373236 202.930429 
L 191.074363 203.840366 
L 188.314822 204.517883 
L 185.326052 204.931281 
L 182.358715 205.071013 
L 179.661678 204.950483 
L 177.461137 204.604923 
L 175.941648 204.088438 
L 175.479683 203.787077 
L 175.230648 203.469469 
L 175.199794 203.145464 
L 175.387769 202.82505 
L 175.790612 202.518137 
L 177.202587 201.982833 
L 179.317298 201.60957 
L 181.957388 201.454777 
L 184.901436 201.556559 
L 187.90253 201.931504 
L 190.708972 202.573289 
L 193.085391 203.453211 
L 194.048165 203.967942 
L 194.83248 204.522598 
L 195.421803 205.108643 
L 195.803713 205.716883 
L 195.970159 206.337654 
L 195.917634 206.961028 
L 195.647244 207.577023 
L 195.164689 208.175812 
L 194.48014 208.74793 
L 193.608027 209.284476 
L 191.378201 210.219161 
L 188.662225 210.926601 
L 185.687883 211.372587 
L 182.704628 211.544838 
L 179.962662 211.454031 
L 177.691949 211.132905 
L 176.08293 210.633517 
L 175.571241 210.337477 
L 175.270552 210.022873 
L 175.187201 209.699492 
L 175.322946 209.377309 
L 175.674926 209.066271 
L 176.23572 208.776092 
L 177.932319 208.294769 
L 180.270454 207.99883 
L 183.054027 207.938219 
L 186.049585 208.143143 
L 189.005896 208.621538 
L 191.675017 209.358407 
L 193.833094 210.317071 
L 194.66181 210.862912 
L 195.299132 211.442254 
L 195.731627 212.046043 
L 195.950177 212.66471 
L 195.950177 213.288371 
L 195.731627 213.907038 
L 195.299132 214.510828 
L 194.66181 215.09017 
L 193.833094 215.63601 
L 192.830452 216.14 
L 190.391145 216.993606 
L 187.548469 217.604519 
L 184.540837 217.946628 
L 181.620494 218.016362 
L 179.032363 217.832998 
L 176.993509 217.437036 
L 175.674926 216.88681 
L 175.322946 216.575772 
L 175.187201 216.253589 
L 175.270552 215.930209 
L 175.571241 215.615604 
L 176.08293 215.319564 
L 177.691949 214.820176 
L 179.962662 214.499051 
L 182.704628 214.408244 
L 185.687883 214.580495 
L 188.662225 215.02648 
L 191.378201 215.73392 
L 193.608027 216.668606 
L 194.48014 217.205151 
L 195.164689 217.777269 
L 195.647244 218.376058 
L 195.917634 218.992053 
L 195.970159 219.615428 
L 195.803713 220.236198 
L 195.421803 220.844438 
L 194.83248 221.430484 
L 194.048165 221.985139 
L 193.085391 222.49987 
L 190.708972 223.379793 
L 187.90253 224.021577 
L 184.901436 224.396522 
L 181.957388 224.498304 
L 179.317298 224.343511 
L 177.202587 223.970248 
L 175.790612 223.434944 
L 175.387769 223.128031 
L 175.199794 222.807617 
L 175.230648 222.483613 
L 175.479683 222.166004 
L 175.941648 221.864643 
L 177.461137 221.348158 
L 179.661678 221.002598 
L 182.358715 220.882068 
L 185.326052 221.0218 
L 188.314822 221.435199 
L 191.074363 222.112716 
L 193.373236 223.022653 
L 194.28769 223.549435 
L 195.018637 224.113818 
L 195.550668 224.707062 
L 195.872569 225.319821 
L 195.977556 225.942334 
L 195.863416 226.564638 
L 195.532553 227.176773 
L 194.991943 227.768994 
L 194.25298 228.331973 
L 193.33124 228.857003 
L 191.020589 229.76254 
L 188.253779 230.434781 
L 185.262858 230.842471 
L 182.298672 230.976541 
L 182.298672 239.976541 
L 182.298672 239.976541 
" clip-path="url(#p8e519a0a19)" style="fill: none; stroke: #000000; stroke-width: 2; stroke-linecap: round"/>
   </g>
   <g id="line2d_15">
    <path d="M 67.098672 185.976541 
L 67.098672 212.976541 
L 67.098672 239.976541 
" clip-path="url(#p8e519a0a19)" style="fill: none; stroke: #000000; stroke-width: 2; stroke-linecap: round"/>
   </g>
   <g id="line2d_16">
    <path d="M 40.038672 265.056541 
L 53.238672 265.056541 
" clip-path="url(#p8e519a0a19)" style="fill: none; stroke: #000000; stroke-width: 2; stroke-linecap: round"/>
   </g>
   <g id="line2d_17">
    <path d="M 53.238672 251.856541 
L 53.238672 278.256541 
" clip-path="url(#p8e519a0a19)" style="fill: none; stroke: #000000; stroke-width: 2; stroke-linecap: round"/>
   </g>
   <g id="line2d_18">
    <path d="M 53.238672 258.456541 
L 67.098672 246.576541 
L 67.098672 239.976541 
" clip-path="url(#p8e519a0a19)" style="fill: none; stroke: #000000; stroke-width: 2; stroke-linecap: round"/>
   </g>
   <g id="line2d_19">
    <path d="M 53.238672 271.656541 
L 67.098672 283.536541 
L 67.098672 290.136541 
" clip-path="url(#p8e519a0a19)" style="fill: none; stroke: #000000; stroke-width: 2; stroke-linecap: round"/>
   </g>
   <g id="line2d_20">
    <path d="M 53.238672 271.656541 
L 60.265362 277.679418 
" clip-path="url(#p8e519a0a19)" style="fill: none; stroke: #000000; stroke-width: 2; stroke-linecap: round"/>
   </g>
   <g id="patch_34">
    <path d="M 62.608211 274.946095 
L 67.098672 283.536541 
L 57.922514 280.412742 
z
" clip-path="url(#p8e519a0a19)"/>
   </g>
   <g id="line2d_21">
    <path d="M 297.498672 185.976541 
L 297.498672 212.976541 
L 297.498672 239.976541 
" clip-path="url(#p8e519a0a19)" style="fill: none; stroke: #000000; stroke-width: 2; stroke-linecap: round"/>
   </g>
   <g id="line2d_22">
    <path d="M 324.558672 265.056541 
L 311.358672 265.056541 
" clip-path="url(#p8e519a0a19)" style="fill: none; stroke: #000000; stroke-width: 2; stroke-linecap: round"/>
   </g>
   <g id="line2d_23">
    <path d="M 311.358672 251.856541 
L 311.358672 278.256541 
" clip-path="url(#p8e519a0a19)" style="fill: none; stroke: #000000; stroke-width: 2; stroke-linecap: round"/>
   </g>
   <g id="line2d_24">
    <path d="M 311.358672 258.456541 
L 297.498672 246.576541 
L 297.498672 239.976541 
" clip-path="url(#p8e519a0a19)" style="fill: none; stroke: #000000; stroke-width: 2; stroke-linecap: round"/>
   </g>
   <g id="line2d_25">
    <path d="M 311.358672 271.656541 
L 297.498672 283.536541 
L 297.498672 290.136541 
" clip-path="url(#p8e519a0a19)" style="fill: none; stroke: #000000; stroke-width: 2; stroke-linecap: round"/>
   </g>
   <g id="line2d_26">
    <path d="M 311.358672 271.656541 
L 304.331981 277.679418 
" clip-path="url(#p8e519a0a19)" style="fill: none; stroke: #000000; stroke-width: 2; stroke-linecap: round"/>
   </g>
   <g id="patch_35">
    <path d="M 306.67483 280.412742 
L 297.498672 283.536541 
L 301.989132 274.946095 
z
" clip-path="url(#p8e519a0a19)"/>
   </g>
   <g id="line2d_27">
    <path d="M 297.498672 290.136541 
L 239.898672 290.136541 
L 182.298672 290.136541 
" clip-path="url(#p8e519a0a19)" style="fill: none; stroke: #000000; stroke-width: 2; stroke-linecap: round"/>
   </g>
   <g id="line2d_28">
    <path d="M 182.298672 290.136541 
L 182.298672 304.536541 
L 173.298672 304.536541 
L 191.298672 304.536541 
M 175.998672 308.856541 
L 188.598672 308.856541 
M 180.498672 313.176541 
L 184.098672 313.176541 
" clip-path="url(#p8e519a0a19)" style="fill: none; stroke: #000000; stroke-width: 2; stroke-linecap: round"/>
   </g>
   <g id="line2d_29">
    <path d="M 182.298672 290.136541 
L 124.698672 290.136541 
L 67.098672 290.136541 
" clip-path="url(#p8e519a0a19)" style="fill: none; stroke: #000000; stroke-width: 2; stroke-linecap: round"/>
   </g>
   <g id="text_1">
    <!-- $C_1$ -->
    <g transform="translate(167.723672 62.776931) scale(0.125 -0.125)">
     <defs>
      <path id="DejaVuSans-Oblique-43" d="M 4447 4306 
L 4319 3641 
Q 4019 3944 3683 4091 
Q 3347 4238 2956 4238 
Q 2422 4238 2017 3981 
Q 1613 3725 1319 3200 
Q 1131 2863 1032 2486 
Q 934 2109 934 1728 
Q 934 1091 1264 756 
Q 1594 422 2222 422 
Q 2656 422 3056 561 
Q 3456 700 3834 978 
L 3688 231 
Q 3316 72 2936 -9 
Q 2556 -91 2175 -91 
Q 1278 -91 773 396 
Q 269 884 269 1753 
Q 269 2309 461 2846 
Q 653 3384 1013 3828 
Q 1394 4300 1883 4525 
Q 2372 4750 3022 4750 
Q 3422 4750 3780 4639 
Q 4138 4528 4447 4306 
z
" transform="scale(0.015625)"/>
      <path id="DejaVuSans-31" d="M 794 531 
L 1825 531 
L 1825 4091 
L 703 3866 
L 703 4441 
L 1819 4666 
L 2450 4666 
L 2450 531 
L 3481 531 
L 3481 0 
L 794 0 
L 794 531 
z
" transform="scale(0.015625)"/>
     </defs>
     <use xlink:href="#DejaVuSans-Oblique-43" transform="translate(0 0.78125)"/>
     <use xlink:href="#DejaVuSans-31" transform="translate(69.824219 -15.625) scale(0.7)"/>
    </g>
   </g>
   <g id="text_2">
    <!-- $L_1$ -->
    <g transform="translate(168.661172 13.098047) scale(0.125 -0.125)">
     <defs>
      <path id="DejaVuSans-Oblique-4c" d="M 1075 4666 
L 1709 4666 
L 909 525 
L 3181 525 
L 3078 0 
L 172 0 
L 1075 4666 
z
" transform="scale(0.015625)"/>
     </defs>
     <use xlink:href="#DejaVuSans-Oblique-4c" transform="translate(0 0.09375)"/>
     <use xlink:href="#DejaVuSans-31" transform="translate(55.712891 -16.3125) scale(0.7)"/>
    </g>
   </g>
   <g id="text_3">
    <!-- $R_L$ -->
    <g transform="translate(168.098672 107.776931) scale(0.125 -0.125)">
     <defs>
      <path id="DejaVuSans-Oblique-52" d="M 1613 4147 
L 1294 2491 
L 2106 2491 
Q 2584 2491 2879 2755 
Q 3175 3019 3175 3444 
Q 3175 3784 2976 3965 
Q 2778 4147 2406 4147 
L 1613 4147 
z
M 2772 2241 
Q 2972 2194 3105 2009 
Q 3238 1825 3413 1275 
L 3809 0 
L 3144 0 
L 2778 1197 
Q 2638 1659 2453 1815 
Q 2269 1972 1888 1972 
L 1191 1972 
L 806 0 
L 172 0 
L 1081 4666 
L 2503 4666 
Q 3150 4666 3495 4373 
Q 3841 4081 3841 3531 
Q 3841 3044 3547 2687 
Q 3253 2331 2772 2241 
z
" transform="scale(0.015625)"/>
     </defs>
     <use xlink:href="#DejaVuSans-Oblique-52" transform="translate(0 0.09375)"/>
     <use xlink:href="#DejaVuSans-Oblique-4c" transform="translate(69.482422 -16.3125) scale(0.7)"/>
    </g>
   </g>
   <g id="text_4">
    <!-- $L_{DC}$ -->
    <g transform="translate(151.337201 216.425759) scale(0.125 -0.125)">
     <defs>
      <path id="DejaVuSans-Oblique-44" d="M 1081 4666 
L 2438 4666 
Q 3519 4666 4070 4208 
Q 4622 3750 4622 2847 
Q 4622 2250 4412 1698 
Q 4203 1147 3834 769 
Q 3463 381 2891 190 
Q 2319 0 1538 0 
L 172 0 
L 1081 4666 
z
M 1613 4147 
L 909 519 
L 1734 519 
Q 2794 519 3375 1128 
Q 3956 1738 3956 2847 
Q 3956 3519 3581 3833 
Q 3206 4147 2406 4147 
L 1613 4147 
z
" transform="scale(0.015625)"/>
     </defs>
     <use xlink:href="#DejaVuSans-Oblique-4c" transform="translate(0 0.09375)"/>
     <use xlink:href="#DejaVuSans-Oblique-44" transform="translate(55.712891 -16.3125) scale(0.7)"/>
     <use xlink:href="#DejaVuSans-Oblique-43" transform="translate(109.614258 -16.3125) scale(0.7)"/>
    </g>
   </g>
   <g id="patch_36">
    <path d="M 139.098672 80.676541 
C 139.81472 80.676541 140.501538 80.392052 141.00786 79.885729 
C 141.514183 79.379406 141.798672 78.692589 141.798672 77.976541 
C 141.798672 77.260492 141.514183 76.573675 141.00786 76.067352 
C 140.501538 75.56103 139.81472 75.276541 139.098672 75.276541 
C 138.382624 75.276541 137.695806 75.56103 137.189484 76.067352 
C 136.683161 76.573675 136.398672 77.260492 136.398672 77.976541 
C 136.398672 78.692589 136.683161 79.379406 137.189484 79.885729 
C 137.695806 80.392052 138.382624 80.676541 139.098672 80.676541 
z
" clip-path="url(#p8e519a0a19)" style="stroke: #000000; stroke-width: 2; stroke-linejoin: miter"/>
   </g>
   <g id="patch_37">
    <path d="M 211.098672 80.676541 
C 211.81472 80.676541 212.501538 80.392052 213.00786 79.885729 
C 213.514183 79.379406 213.798672 78.692589 213.798672 77.976541 
C 213.798672 77.260492 213.514183 76.573675 213.00786 76.067352 
C 212.501538 75.56103 211.81472 75.276541 211.098672 75.276541 
C 210.382624 75.276541 209.695806 75.56103 209.189484 76.067352 
C 208.683161 76.573675 208.398672 77.260492 208.398672 77.976541 
C 208.398672 78.692589 208.683161 79.379406 209.189484 79.885729 
C 209.695806 80.392052 210.382624 80.676541 211.098672 80.676541 
z
" clip-path="url(#p8e519a0a19)" style="stroke: #000000; stroke-width: 2; stroke-linejoin: miter"/>
   </g>
   <g id="patch_38">
    <path d="M 182.298672 242.676541 
C 183.01472 242.676541 183.701538 242.392052 184.20786 241.885729 
C 184.714183 241.379406 184.998672 240.692589 184.998672 239.976541 
C 184.998672 239.260492 184.714183 238.573675 184.20786 238.067352 
C 183.701538 237.56103 183.01472 237.276541 182.298672 237.276541 
C 181.582624 237.276541 180.895806 237.56103 180.389484 238.067352 
C 179.883161 238.573675 179.598672 239.260492 179.598672 239.976541 
C 179.598672 240.692589 179.883161 241.379406 180.389484 241.885729 
C 180.895806 242.392052 181.582624 242.676541 182.298672 242.676541 
z
" clip-path="url(#p8e519a0a19)" style="stroke: #000000; stroke-width: 2; stroke-linejoin: miter"/>
   </g>
   <g id="text_5">
    <!-- $V_{DD}$ -->
    <g transform="translate(153.623672 243.425759) scale(0.125 -0.125)">
     <defs>
      <path id="DejaVuSans-Oblique-56" d="M 1319 0 
L 500 4666 
L 1119 4666 
L 1797 653 
L 4063 4666 
L 4750 4666 
L 2053 0 
L 1319 0 
z
" transform="scale(0.015625)"/>
     </defs>
     <use xlink:href="#DejaVuSans-Oblique-56" transform="translate(0 0.09375)"/>
     <use xlink:href="#DejaVuSans-Oblique-44" transform="translate(68.408203 -16.3125) scale(0.7)"/>
     <use xlink:href="#DejaVuSans-Oblique-44" transform="translate(122.30957 -16.3125) scale(0.7)"/>
    </g>
   </g>
   <g id="patch_39">
    <path d="M 182.298672 292.836541 
C 183.01472 292.836541 183.701538 292.552052 184.20786 292.045729 
C 184.714183 291.539406 184.998672 290.852589 184.998672 290.136541 
C 184.998672 289.420492 184.714183 288.733675 184.20786 288.227352 
C 183.701538 287.72103 183.01472 287.436541 182.298672 287.436541 
C 181.582624 287.436541 180.895806 287.72103 180.389484 288.227352 
C 179.883161 288.733675 179.598672 289.420492 179.598672 290.136541 
C 179.598672 290.852589 179.883161 291.539406 180.389484 292.045729 
C 180.895806 292.552052 181.582624 292.836541 182.298672 292.836541 
z
" clip-path="url(#p8e519a0a19)" style="stroke: #000000; stroke-width: 2; stroke-linejoin: miter"/>
   </g>
   <g id="patch_40">
    <path d="M 40.038672 267.756541 
C 40.75472 267.756541 41.441538 267.472052 41.94786 266.965729 
C 42.454183 266.459406 42.738672 265.772589 42.738672 265.056541 
C 42.738672 264.340492 42.454183 263.653675 41.94786 263.147352 
C 41.441538 262.64103 40.75472 262.356541 40.038672 262.356541 
C 39.322624 262.356541 38.635806 262.64103 38.129484 263.147352 
C 37.623161 263.653675 37.338672 264.340492 37.338672 265.056541 
C 37.338672 265.772589 37.623161 266.459406 38.129484 266.965729 
C 38.635806 267.472052 39.322624 267.756541 40.038672 267.756541 
z
" clip-path="url(#p8e519a0a19)" style="fill: #ffffff; stroke: #000000; stroke-width: 2; stroke-linejoin: miter"/>
   </g>
   <g id="text_6">
    <!-- Vin+ -->
    <g transform="translate(3.6 268.505759) scale(0.125 -0.125)">
     <defs>
      <path id="DejaVuSans-56" d="M 1831 0 
L 50 4666 
L 709 4666 
L 2188 738 
L 3669 4666 
L 4325 4666 
L 2547 0 
L 1831 0 
z
" transform="scale(0.015625)"/>
      <path id="DejaVuSans-69" d="M 603 3500 
L 1178 3500 
L 1178 0 
L 603 0 
L 603 3500 
z
M 603 4863 
L 1178 4863 
L 1178 4134 
L 603 4134 
L 603 4863 
z
" transform="scale(0.015625)"/>
      <path id="DejaVuSans-6e" d="M 3513 2113 
L 3513 0 
L 2938 0 
L 2938 2094 
Q 2938 2591 2744 2837 
Q 2550 3084 2163 3084 
Q 1697 3084 1428 2787 
Q 1159 2491 1159 1978 
L 1159 0 
L 581 0 
L 581 3500 
L 1159 3500 
L 1159 2956 
Q 1366 3272 1645 3428 
Q 1925 3584 2291 3584 
Q 2894 3584 3203 3211 
Q 3513 2838 3513 2113 
z
" transform="scale(0.015625)"/>
      <path id="DejaVuSans-2b" d="M 2944 4013 
L 2944 2272 
L 4684 2272 
L 4684 1741 
L 2944 1741 
L 2944 0 
L 2419 0 
L 2419 1741 
L 678 1741 
L 678 2272 
L 2419 2272 
L 2419 4013 
L 2944 4013 
z
" transform="scale(0.015625)"/>
     </defs>
     <use xlink:href="#DejaVuSans-56"/>
     <use xlink:href="#DejaVuSans-69" x="66.158203"/>
     <use xlink:href="#DejaVuSans-6e" x="93.941406"/>
     <use xlink:href="#DejaVuSans-2b" x="157.320312"/>
    </g>
   </g>
   <g id="patch_41">
    <path d="M 324.558672 267.756541 
C 325.27472 267.756541 325.961538 267.472052 326.46786 266.965729 
C 326.974183 266.459406 327.258672 265.772589 327.258672 265.056541 
C 327.258672 264.340492 326.974183 263.653675 326.46786 263.147352 
C 325.961538 262.64103 325.27472 262.356541 324.558672 262.356541 
C 323.842624 262.356541 323.155806 262.64103 322.649484 263.147352 
C 322.143161 263.653675 321.858672 264.340492 321.858672 265.056541 
C 321.858672 265.772589 322.143161 266.459406 322.649484 266.965729 
C 323.155806 267.472052 323.842624 267.756541 324.558672 267.756541 
z
" clip-path="url(#p8e519a0a19)" style="fill: #ffffff; stroke: #000000; stroke-width: 2; stroke-linejoin: miter"/>
   </g>
   <g id="text_7">
    <!-- Vin- -->
    <g transform="translate(330.858672 268.505759) scale(0.125 -0.125)">
     <defs>
      <path id="DejaVuSans-2d" d="M 313 2009 
L 1997 2009 
L 1997 1497 
L 313 1497 
L 313 2009 
z
" transform="scale(0.015625)"/>
     </defs>
     <use xlink:href="#DejaVuSans-56"/>
     <use xlink:href="#DejaVuSans-69" x="66.158203"/>
     <use xlink:href="#DejaVuSans-6e" x="93.941406"/>
     <use xlink:href="#DejaVuSans-2d" x="157.320312"/>
    </g>
   </g>
  </g>
 </g>
 <defs>
  <clipPath id="p8e519a0a19">
   <rect x="22.842672" y="4.603712" width="318.912" height="323.266773"/>
  </clipPath>
 </defs>
</svg>