<?xml version="1.0" encoding="utf-8" standalone="no"?>
<!DOCTYPE svg PUBLIC "-//W3C//DTD SVG 1.1//EN"
  "http://www.w3.org/Graphics/SVG/1.1/DTD/svg11.dtd">
<svg xmlns:xlink="http://www.w3.org/1999/xlink" width="405.776515pt" height="283.339656pt" viewBox="0 0 405.776515 283.339656" xmlns="http://www.w3.org/2000/svg" version="1.1">
 <metadata>
  <rdf:RDF xmlns:dc="http://purl.org/dc/elements/1.1/" xmlns:cc="http://creativecommons.org/ns#" xmlns:rdf="http://www.w3.org/1999/02/22-rdf-syntax-ns#">
   <cc:Work>
    <dc:type rdf:resource="http://purl.org/dc/dcmitype/StillImage"/>
    <dc:date>2023-11-12T22:12:02.709373</dc:date>
    <dc:format>image/svg+xml</dc:format>
    <dc:creator>
     <cc:Agent>
      <dc:title>Matplotlib v3.8.0, https://matplotlib.org/</dc:title>
     </cc:Agent>
    </dc:creator>
   </cc:Work>
  </rdf:RDF>
 </metadata>
 <defs>
  <style type="text/css">*{stroke-linejoin: round; stroke-linecap: butt}</style>
 </defs>
 <g id="figure_1">
  <g id="patch_1">
   <path d="M -0 283.339656 
L 405.776515 283.339656 
L 405.776515 0 
L -0 0 
z
" style="fill: #ffffff"/>
  </g>
  <g id="axes_1">
   <g id="line2d_1">
    <path d="M 231.417114 104.797656 
L 231.417114 149.797656 
L 309.359401 104.797656 
L 231.417114 59.797656 
L 231.417114 104.797656 
M 309.359401 104.797656 
" clip-path="url(#p78d2420967)" style="fill: none; stroke: #000000; stroke-width: 2; stroke-linecap: round"/>
   </g>
   <g id="line2d_2">
    <path d="M 237.5599 127.297656 
L 244.7599 127.297656 
" clip-path="url(#p78d2420967)" style="fill: none; stroke: #000000; stroke-width: 2; stroke-linecap: round"/>
   </g>
   <g id="line2d_3">
    <path d="M 237.5599 82.297656 
L 244.7599 82.297656 
" clip-path="url(#p78d2420967)" style="fill: none; stroke: #000000; stroke-width: 2; stroke-linecap: round"/>
   </g>
   <g id="line2d_4">
    <path d="M 241.1599 78.697656 
L 241.1599 85.897656 
" clip-path="url(#p78d2420967)" style="fill: none; stroke: #000000; stroke-width: 2; stroke-linecap: round"/>
   </g>
   <g id="line2d_5">
    <path d="M 231.417114 82.297656 
L 199.917114 82.297656 
L 168.417114 82.297656 
" clip-path="url(#p78d2420967)" style="fill: none; stroke: #000000; stroke-width: 2; stroke-linecap: round"/>
   </g>
   <g id="line2d_6">
    <path d="M 168.417114 82.297656 
L 150.417114 82.297656 
L 147.417114 91.297656 
L 141.417114 73.297656 
L 135.417114 91.297656 
L 129.417114 73.297656 
L 123.417114 91.297656 
L 117.417114 73.297656 
L 114.417114 82.297656 
L 96.417114 82.297656 
" clip-path="url(#p78d2420967)" style="fill: none; stroke: #000000; stroke-width: 2; stroke-linecap: round"/>
   </g>
   <g id="line2d_7">
    <path d="M 96.417114 82.297656 
L 78.417114 82.297656 
L 75.417114 91.297656 
L 69.417114 73.297656 
L 63.417114 91.297656 
L 57.417114 73.297656 
L 51.417114 91.297656 
L 45.417114 73.297656 
L 42.417114 82.297656 
L 24.417114 82.297656 
" clip-path="url(#p78d2420967)" style="fill: none; stroke: #000000; stroke-width: 2; stroke-linecap: round"/>
   </g>
   <g id="line2d_8">
    <path d="M 168.417114 82.297656 
L 168.417114 115.057656 
M 177.417114 115.057656 
L 159.417114 115.057656 
M 177.417114 121.537656 
L 159.417114 121.537656 
M 168.417114 121.537656 
L 168.417114 154.297656 
" clip-path="url(#p78d2420967)" style="fill: none; stroke: #000000; stroke-width: 2; stroke-linecap: round"/>
   </g>
   <g id="line2d_9">
    <path d="M 168.417114 154.297656 
L 168.417114 168.697656 
L 159.417114 168.697656 
L 177.417114 168.697656 
M 162.117114 173.017656 
L 174.717114 173.017656 
M 166.617114 177.337656 
L 170.217114 177.337656 
" clip-path="url(#p78d2420967)" style="fill: none; stroke: #000000; stroke-width: 2; stroke-linecap: round"/>
   </g>
   <g id="line2d_10">
    <path d="M 96.417114 82.297656 
L 96.417114 55.297656 
L 96.417114 28.297656 
" clip-path="url(#p78d2420967)" style="fill: none; stroke: #000000; stroke-width: 2; stroke-linecap: round"/>
   </g>
   <g id="line2d_11">
    <path d="M 96.417114 28.297656 
L 217.648257 28.297656 
M 217.648257 19.297656 
L 217.648257 37.297656 
M 224.128257 19.297656 
L 224.128257 37.297656 
M 224.128257 28.297656 
L 345.359401 28.297656 
" clip-path="url(#p78d2420967)" style="fill: none; stroke: #000000; stroke-width: 2; stroke-linecap: round"/>
   </g>
   <g id="line2d_12">
    <path d="M 345.359401 28.297656 
L 345.359401 66.547656 
L 345.359401 104.797656 
" clip-path="url(#p78d2420967)" style="fill: none; stroke: #000000; stroke-width: 2; stroke-linecap: round"/>
   </g>
   <g id="line2d_13">
    <path d="M 231.417114 127.297656 
L 222.417114 127.297656 
L 213.417114 127.297656 
" clip-path="url(#p78d2420967)" style="fill: none; stroke: #000000; stroke-width: 2; stroke-linecap: round"/>
   </g>
   <g id="line2d_14">
    <path d="M 213.417114 127.297656 
L 213.417114 149.797656 
L 213.417114 172.297656 
" clip-path="url(#p78d2420967)" style="fill: none; stroke: #000000; stroke-width: 2; stroke-linecap: round"/>
   </g>
   <g id="line2d_15">
    <path d="M 213.417114 172.297656 
L 213.417114 190.297656 
L 222.417114 193.297656 
L 204.417114 199.297656 
L 222.417114 205.297656 
L 204.417114 211.297656 
L 222.417114 217.297656 
L 204.417114 223.297656 
L 213.417114 226.297656 
L 213.417114 244.297656 
" clip-path="url(#p78d2420967)" style="fill: none; stroke: #000000; stroke-width: 2; stroke-linecap: round"/>
   </g>
   <g id="line2d_16">
    <path d="M 213.417114 244.297656 
L 213.417114 258.697656 
L 204.417114 258.697656 
L 222.417114 258.697656 
M 207.117114 263.017656 
L 219.717114 263.017656 
M 211.617114 267.337656 
L 215.217114 267.337656 
" clip-path="url(#p78d2420967)" style="fill: none; stroke: #000000; stroke-width: 2; stroke-linecap: round"/>
   </g>
   <g id="line2d_17">
    <path d="M 213.417114 172.297656 
L 252.388257 172.297656 
L 255.388257 163.297656 
L 261.388257 181.297656 
L 267.388257 163.297656 
L 273.388257 181.297656 
L 279.388257 163.297656 
L 285.388257 181.297656 
L 288.388257 172.297656 
L 327.359401 172.297656 
" clip-path="url(#p78d2420967)" style="fill: none; stroke: #000000; stroke-width: 2; stroke-linecap: round"/>
   </g>
   <g id="line2d_18">
    <path d="M 327.359401 172.297656 
L 327.359401 138.547656 
L 327.359401 104.797656 
" clip-path="url(#p78d2420967)" style="fill: none; stroke: #000000; stroke-width: 2; stroke-linecap: round"/>
   </g>
   <g id="line2d_19">
    <path d="M 309.359401 104.797656 
L 345.359401 104.797656 
L 381.359401 104.797656 
" clip-path="url(#p78d2420967)" style="fill: none; stroke: #000000; stroke-width: 2; stroke-linecap: round"/>
   </g>
   <g id="text_1">
    <!-- 9.95k$\Omega$ -->
    <g transform="translate(110.104614 67.098047) scale(0.125 -0.125)">
     <defs>
      <path id="DejaVuSans-39" d="M 703 97 
L 703 672 
Q 941 559 1184 500 
Q 1428 441 1663 441 
Q 2288 441 2617 861 
Q 2947 1281 2994 2138 
Q 2813 1869 2534 1725 
Q 2256 1581 1919 1581 
Q 1219 1581 811 2004 
Q 403 2428 403 3163 
Q 403 3881 828 4315 
Q 1253 4750 1959 4750 
Q 2769 4750 3195 4129 
Q 3622 3509 3622 2328 
Q 3622 1225 3098 567 
Q 2575 -91 1691 -91 
Q 1453 -91 1209 -44 
Q 966 3 703 97 
z
M 1959 2075 
Q 2384 2075 2632 2365 
Q 2881 2656 2881 3163 
Q 2881 3666 2632 3958 
Q 2384 4250 1959 4250 
Q 1534 4250 1286 3958 
Q 1038 3666 1038 3163 
Q 1038 2656 1286 2365 
Q 1534 2075 1959 2075 
z
" transform="scale(0.015625)"/>
      <path id="DejaVuSans-2e" d="M 684 794 
L 1344 794 
L 1344 0 
L 684 0 
L 684 794 
z
" transform="scale(0.015625)"/>
      <path id="DejaVuSans-35" d="M 691 4666 
L 3169 4666 
L 3169 4134 
L 1269 4134 
L 1269 2991 
Q 1406 3038 1543 3061 
Q 1681 3084 1819 3084 
Q 2600 3084 3056 2656 
Q 3513 2228 3513 1497 
Q 3513 744 3044 326 
Q 2575 -91 1722 -91 
Q 1428 -91 1123 -41 
Q 819 9 494 109 
L 494 744 
Q 775 591 1075 516 
Q 1375 441 1709 441 
Q 2250 441 2565 725 
Q 2881 1009 2881 1497 
Q 2881 1984 2565 2268 
Q 2250 2553 1709 2553 
Q 1456 2553 1204 2497 
Q 953 2441 691 2322 
L 691 4666 
z
" transform="scale(0.015625)"/>
      <path id="DejaVuSans-6b" d="M 581 4863 
L 1159 4863 
L 1159 1991 
L 2875 3500 
L 3609 3500 
L 1753 1863 
L 3688 0 
L 2938 0 
L 1159 1709 
L 1159 0 
L 581 0 
L 581 4863 
z
" transform="scale(0.015625)"/>
      <path id="DejaVuSans-3a9" d="M 4647 556 
L 4647 0 
L 2772 0 
L 2772 556 
Q 3325 859 3634 1378 
Q 3944 1897 3944 2528 
Q 3944 3278 3531 3731 
Q 3119 4184 2444 4184 
Q 1769 4184 1355 3729 
Q 941 3275 941 2528 
Q 941 1897 1250 1378 
Q 1563 859 2119 556 
L 2119 0 
L 244 0 
L 244 556 
L 1241 556 
Q 747 991 519 1456 
Q 294 1922 294 2497 
Q 294 3491 894 4106 
Q 1491 4722 2444 4722 
Q 3391 4722 3994 4106 
Q 4594 3494 4594 2528 
Q 4594 1922 4372 1459 
Q 4150 997 3647 556 
L 4647 556 
z
" transform="scale(0.015625)"/>
     </defs>
     <use xlink:href="#DejaVuSans-39" transform="translate(0 0.015625)"/>
     <use xlink:href="#DejaVuSans-2e" transform="translate(63.623047 0.015625)"/>
     <use xlink:href="#DejaVuSans-39" transform="translate(95.410156 0.015625)"/>
     <use xlink:href="#DejaVuSans-35" transform="translate(159.033203 0.015625)"/>
     <use xlink:href="#DejaVuSans-6b" transform="translate(222.65625 0.015625)"/>
     <use xlink:href="#DejaVuSans-3a9" transform="translate(280.566406 0.015625)"/>
    </g>
   </g>
   <g id="text_2">
    <!-- 9.95k$\Omega$ -->
    <g transform="translate(38.104614 67.098047) scale(0.125 -0.125)">
     <use xlink:href="#DejaVuSans-39" transform="translate(0 0.015625)"/>
     <use xlink:href="#DejaVuSans-2e" transform="translate(63.623047 0.015625)"/>
     <use xlink:href="#DejaVuSans-39" transform="translate(95.410156 0.015625)"/>
     <use xlink:href="#DejaVuSans-35" transform="translate(159.033203 0.015625)"/>
     <use xlink:href="#DejaVuSans-6b" transform="translate(222.65625 0.015625)"/>
     <use xlink:href="#DejaVuSans-3a9" transform="translate(280.566406 0.015625)"/>
    </g>
   </g>
   <g id="text_3">
    <!-- 16.00pF -->
    <g transform="translate(104.906958 121.746875) scale(0.125 -0.125)">
     <defs>
      <path id="DejaVuSans-31" d="M 794 531 
L 1825 531 
L 1825 4091 
L 703 3866 
L 703 4441 
L 1819 4666 
L 2450 4666 
L 2450 531 
L 3481 531 
L 3481 0 
L 794 0 
L 794 531 
z
" transform="scale(0.015625)"/>
      <path id="DejaVuSans-36" d="M 2113 2584 
Q 1688 2584 1439 2293 
Q 1191 2003 1191 1497 
Q 1191 994 1439 701 
Q 1688 409 2113 409 
Q 2538 409 2786 701 
Q 3034 994 3034 1497 
Q 3034 2003 2786 2293 
Q 2538 2584 2113 2584 
z
M 3366 4563 
L 3366 3988 
Q 3128 4100 2886 4159 
Q 2644 4219 2406 4219 
Q 1781 4219 1451 3797 
Q 1122 3375 1075 2522 
Q 1259 2794 1537 2939 
Q 1816 3084 2150 3084 
Q 2853 3084 3261 2657 
Q 3669 2231 3669 1497 
Q 3669 778 3244 343 
Q 2819 -91 2113 -91 
Q 1303 -91 875 529 
Q 447 1150 447 2328 
Q 447 3434 972 4092 
Q 1497 4750 2381 4750 
Q 2619 4750 2861 4703 
Q 3103 4656 3366 4563 
z
" transform="scale(0.015625)"/>
      <path id="DejaVuSans-30" d="M 2034 4250 
Q 1547 4250 1301 3770 
Q 1056 3291 1056 2328 
Q 1056 1369 1301 889 
Q 1547 409 2034 409 
Q 2525 409 2770 889 
Q 3016 1369 3016 2328 
Q 3016 3291 2770 3770 
Q 2525 4250 2034 4250 
z
M 2034 4750 
Q 2819 4750 3233 4129 
Q 3647 3509 3647 2328 
Q 3647 1150 3233 529 
Q 2819 -91 2034 -91 
Q 1250 -91 836 529 
Q 422 1150 422 2328 
Q 422 3509 836 4129 
Q 1250 4750 2034 4750 
z
" transform="scale(0.015625)"/>
      <path id="DejaVuSans-70" d="M 1159 525 
L 1159 -1331 
L 581 -1331 
L 581 3500 
L 1159 3500 
L 1159 2969 
Q 1341 3281 1617 3432 
Q 1894 3584 2278 3584 
Q 2916 3584 3314 3078 
Q 3713 2572 3713 1747 
Q 3713 922 3314 415 
Q 2916 -91 2278 -91 
Q 1894 -91 1617 61 
Q 1341 213 1159 525 
z
M 3116 1747 
Q 3116 2381 2855 2742 
Q 2594 3103 2138 3103 
Q 1681 3103 1420 2742 
Q 1159 2381 1159 1747 
Q 1159 1113 1420 752 
Q 1681 391 2138 391 
Q 2594 391 2855 752 
Q 3116 1113 3116 1747 
z
" transform="scale(0.015625)"/>
      <path id="DejaVuSans-46" d="M 628 4666 
L 3309 4666 
L 3309 4134 
L 1259 4134 
L 1259 2759 
L 3109 2759 
L 3109 2228 
L 1259 2228 
L 1259 0 
L 628 0 
L 628 4666 
z
" transform="scale(0.015625)"/>
     </defs>
     <use xlink:href="#DejaVuSans-31"/>
     <use xlink:href="#DejaVuSans-36" x="63.623047"/>
     <use xlink:href="#DejaVuSans-2e" x="127.246094"/>
     <use xlink:href="#DejaVuSans-30" x="159.033203"/>
     <use xlink:href="#DejaVuSans-30" x="222.65625"/>
     <use xlink:href="#DejaVuSans-70" x="286.279297"/>
     <use xlink:href="#DejaVuSans-46" x="349.755859"/>
    </g>
   </g>
   <g id="text_4">
    <!-- 16.00pF -->
    <g transform="translate(195.433179 13.098047) scale(0.125 -0.125)">
     <use xlink:href="#DejaVuSans-31"/>
     <use xlink:href="#DejaVuSans-36" x="63.623047"/>
     <use xlink:href="#DejaVuSans-2e" x="127.246094"/>
     <use xlink:href="#DejaVuSans-30" x="159.033203"/>
     <use xlink:href="#DejaVuSans-30" x="222.65625"/>
     <use xlink:href="#DejaVuSans-70" x="286.279297"/>
     <use xlink:href="#DejaVuSans-46" x="349.755859"/>
    </g>
   </g>
   <g id="text_5">
    <!-- 50.00k$\Omega$ -->
    <g transform="translate(148.192114 211.746875) scale(0.125 -0.125)">
     <use xlink:href="#DejaVuSans-35" transform="translate(0 0.015625)"/>
     <use xlink:href="#DejaVuSans-30" transform="translate(63.623047 0.015625)"/>
     <use xlink:href="#DejaVuSans-2e" transform="translate(127.246094 0.015625)"/>
     <use xlink:href="#DejaVuSans-30" transform="translate(159.033203 0.015625)"/>
     <use xlink:href="#DejaVuSans-30" transform="translate(222.65625 0.015625)"/>
     <use xlink:href="#DejaVuSans-6b" transform="translate(286.279297 0.015625)"/>
     <use xlink:href="#DejaVuSans-3a9" transform="translate(344.189453 0.015625)"/>
    </g>
   </g>
   <g id="text_6">
    <!-- 50.00k$\Omega$ -->
    <g transform="translate(244.075757 157.098047) scale(0.125 -0.125)">
     <use xlink:href="#DejaVuSans-35" transform="translate(0 0.015625)"/>
     <use xlink:href="#DejaVuSans-30" transform="translate(63.623047 0.015625)"/>
     <use xlink:href="#DejaVuSans-2e" transform="translate(127.246094 0.015625)"/>
     <use xlink:href="#DejaVuSans-30" transform="translate(159.033203 0.015625)"/>
     <use xlink:href="#DejaVuSans-30" transform="translate(222.65625 0.015625)"/>
     <use xlink:href="#DejaVuSans-6b" transform="translate(286.279297 0.015625)"/>
     <use xlink:href="#DejaVuSans-3a9" transform="translate(344.189453 0.015625)"/>
    </g>
   </g>
   <g id="patch_2">
    <path d="M 24.417114 84.997656 
C 25.133163 84.997656 25.81998 84.713167 26.326303 84.206845 
C 26.832625 83.700522 27.117114 83.013705 27.117114 82.297656 
C 27.117114 81.581608 26.832625 80.894791 26.326303 80.388468 
C 25.81998 79.882145 25.133163 79.597656 24.417114 79.597656 
C 23.701066 79.597656 23.014249 79.882145 22.507926 80.388468 
C 22.001603 80.894791 21.717114 81.581608 21.717114 82.297656 
C 21.717114 83.013705 22.001603 83.700522 22.507926 84.206845 
C 23.014249 84.713167 23.701066 84.997656 24.417114 84.997656 
z
" clip-path="url(#p78d2420967)" style="fill: #ffffff; stroke: #000000; stroke-width: 2; stroke-linejoin: miter"/>
   </g>
   <g id="text_7">
    <!-- $V_{1in}$ -->
    <g transform="translate(13.167114 73.398047) scale(0.125 -0.125)">
     <defs>
      <path id="DejaVuSans-Oblique-56" d="M 1319 0 
L 500 4666 
L 1119 4666 
L 1797 653 
L 4063 4666 
L 4750 4666 
L 2053 0 
L 1319 0 
z
" transform="scale(0.015625)"/>
      <path id="DejaVuSans-Oblique-69" d="M 1172 4863 
L 1747 4863 
L 1606 4134 
L 1031 4134 
L 1172 4863 
z
M 909 3500 
L 1484 3500 
L 800 0 
L 225 0 
L 909 3500 
z
" transform="scale(0.015625)"/>
      <path id="DejaVuSans-Oblique-6e" d="M 3566 2113 
L 3156 0 
L 2578 0 
L 2988 2091 
Q 3016 2238 3031 2350 
Q 3047 2463 3047 2528 
Q 3047 2791 2881 2937 
Q 2716 3084 2419 3084 
Q 1956 3084 1622 2776 
Q 1288 2469 1184 1941 
L 800 0 
L 225 0 
L 903 3500 
L 1478 3500 
L 1363 2950 
Q 1603 3253 1940 3418 
Q 2278 3584 2650 3584 
Q 3113 3584 3367 3334 
Q 3622 3084 3622 2631 
Q 3622 2519 3608 2391 
Q 3594 2263 3566 2113 
z
" transform="scale(0.015625)"/>
     </defs>
     <use xlink:href="#DejaVuSans-Oblique-56" transform="translate(0 0.09375)"/>
     <use xlink:href="#DejaVuSans-31" transform="translate(68.408203 -16.3125) scale(0.7)"/>
     <use xlink:href="#DejaVuSans-Oblique-69" transform="translate(112.944336 -16.3125) scale(0.7)"/>
     <use xlink:href="#DejaVuSans-Oblique-6e" transform="translate(132.392578 -16.3125) scale(0.7)"/>
    </g>
   </g>
   <g id="patch_3">
    <path d="M 168.417114 84.997656 
C 169.133163 84.997656 169.81998 84.713167 170.326303 84.206845 
C 170.832625 83.700522 171.117114 83.013705 171.117114 82.297656 
C 171.117114 81.581608 170.832625 80.894791 170.326303 80.388468 
C 169.81998 79.882145 169.133163 79.597656 168.417114 79.597656 
C 167.701066 79.597656 167.014249 79.882145 166.507926 80.388468 
C 166.001603 80.894791 165.717114 81.581608 165.717114 82.297656 
C 165.717114 83.013705 166.001603 83.700522 166.507926 84.206845 
C 167.014249 84.713167 167.701066 84.997656 168.417114 84.997656 
z
" clip-path="url(#p78d2420967)" style="stroke: #000000; stroke-width: 2; stroke-linejoin: miter"/>
   </g>
   <g id="patch_4">
    <path d="M 96.417114 84.997656 
C 97.133163 84.997656 97.81998 84.713167 98.326303 84.206845 
C 98.832625 83.700522 99.117114 83.013705 99.117114 82.297656 
C 99.117114 81.581608 98.832625 80.894791 98.326303 80.388468 
C 97.81998 79.882145 97.133163 79.597656 96.417114 79.597656 
C 95.701066 79.597656 95.014249 79.882145 94.507926 80.388468 
C 94.001603 80.894791 93.717114 81.581608 93.717114 82.297656 
C 93.717114 83.013705 94.001603 83.700522 94.507926 84.206845 
C 95.014249 84.713167 95.701066 84.997656 96.417114 84.997656 
z
" clip-path="url(#p78d2420967)" style="stroke: #000000; stroke-width: 2; stroke-linejoin: miter"/>
   </g>
   <g id="patch_5">
    <path d="M 345.359401 107.497656 
C 346.075449 107.497656 346.762266 107.213167 347.268589 106.706845 
C 347.774912 106.200522 348.059401 105.513705 348.059401 104.797656 
C 348.059401 104.081608 347.774912 103.394791 347.268589 102.888468 
C 346.762266 102.382145 346.075449 102.097656 345.359401 102.097656 
C 344.643352 102.097656 343.956535 102.382145 343.450212 102.888468 
C 342.94389 103.394791 342.659401 104.081608 342.659401 104.797656 
C 342.659401 105.513705 342.94389 106.200522 343.450212 106.706845 
C 343.956535 107.213167 344.643352 107.497656 345.359401 107.497656 
z
" clip-path="url(#p78d2420967)" style="stroke: #000000; stroke-width: 2; stroke-linejoin: miter"/>
   </g>
   <g id="patch_6">
    <path d="M 213.417114 174.997656 
C 214.133163 174.997656 214.81998 174.713167 215.326303 174.206845 
C 215.832625 173.700522 216.117114 173.013705 216.117114 172.297656 
C 216.117114 171.581608 215.832625 170.894791 215.326303 170.388468 
C 214.81998 169.882145 214.133163 169.597656 213.417114 169.597656 
C 212.701066 169.597656 212.014249 169.882145 211.507926 170.388468 
C 211.001603 170.894791 210.717114 171.581608 210.717114 172.297656 
C 210.717114 173.013705 211.001603 173.700522 211.507926 174.206845 
C 212.014249 174.713167 212.701066 174.997656 213.417114 174.997656 
z
" clip-path="url(#p78d2420967)" style="stroke: #000000; stroke-width: 2; stroke-linejoin: miter"/>
   </g>
   <g id="patch_7">
    <path d="M 327.359401 107.497656 
C 328.075449 107.497656 328.762266 107.213167 329.268589 106.706845 
C 329.774912 106.200522 330.059401 105.513705 330.059401 104.797656 
C 330.059401 104.081608 329.774912 103.394791 329.268589 102.888468 
C 328.762266 102.382145 328.075449 102.097656 327.359401 102.097656 
C 326.643352 102.097656 325.956535 102.382145 325.450212 102.888468 
C 324.94389 103.394791 324.659401 104.081608 324.659401 104.797656 
C 324.659401 105.513705 324.94389 106.200522 325.450212 106.706845 
C 325.956535 107.213167 326.643352 107.497656 327.359401 107.497656 
z
" clip-path="url(#p78d2420967)" style="stroke: #000000; stroke-width: 2; stroke-linejoin: miter"/>
   </g>
   <g id="patch_8">
    <path d="M 381.359401 107.497656 
C 382.075449 107.497656 382.762266 107.213167 383.268589 106.706845 
C 383.774912 106.200522 384.059401 105.513705 384.059401 104.797656 
C 384.059401 104.081608 383.774912 103.394791 383.268589 102.888468 
C 382.762266 102.382145 382.075449 102.097656 381.359401 102.097656 
C 380.643352 102.097656 379.956535 102.382145 379.450212 102.888468 
C 378.94389 103.394791 378.659401 104.081608 378.659401 104.797656 
C 378.659401 105.513705 378.94389 106.200522 379.450212 106.706845 
C 379.956535 107.213167 380.643352 107.497656 381.359401 107.497656 
z
" clip-path="url(#p78d2420967)" style="fill: #ffffff; stroke: #000000; stroke-width: 2; stroke-linejoin: miter"/>
   </g>
   <g id="text_8">
    <!-- $V_{1out}$ -->
    <g transform="translate(366.921901 95.898047) scale(0.125 -0.125)">
     <defs>
      <path id="DejaVuSans-Oblique-6f" d="M 1625 -91 
Q 1009 -91 651 289 
Q 294 669 294 1325 
Q 294 1706 417 2101 
Q 541 2497 738 2766 
Q 1047 3184 1428 3384 
Q 1809 3584 2291 3584 
Q 2888 3584 3255 3212 
Q 3622 2841 3622 2241 
Q 3622 1825 3500 1412 
Q 3378 1000 3181 728 
Q 2875 309 2494 109 
Q 2113 -91 1625 -91 
z
M 891 1344 
Q 891 869 1089 633 
Q 1288 397 1691 397 
Q 2269 397 2648 901 
Q 3028 1406 3028 2181 
Q 3028 2634 2825 2865 
Q 2622 3097 2228 3097 
Q 1903 3097 1650 2945 
Q 1397 2794 1197 2484 
Q 1050 2253 970 1956 
Q 891 1659 891 1344 
z
" transform="scale(0.015625)"/>
      <path id="DejaVuSans-Oblique-75" d="M 428 1388 
L 838 3500 
L 1416 3500 
L 1006 1409 
Q 975 1256 961 1147 
Q 947 1038 947 966 
Q 947 700 1109 554 
Q 1272 409 1569 409 
Q 2031 409 2368 721 
Q 2706 1034 2809 1563 
L 3194 3500 
L 3769 3500 
L 3091 0 
L 2516 0 
L 2631 550 
Q 2388 244 2052 76 
Q 1716 -91 1338 -91 
Q 878 -91 622 161 
Q 366 413 366 863 
Q 366 956 381 1097 
Q 397 1238 428 1388 
z
" transform="scale(0.015625)"/>
      <path id="DejaVuSans-Oblique-74" d="M 2706 3500 
L 2619 3053 
L 1472 3053 
L 1100 1153 
Q 1081 1047 1072 975 
Q 1063 903 1063 863 
Q 1063 663 1183 572 
Q 1303 481 1569 481 
L 2150 481 
L 2053 0 
L 1503 0 
Q 991 0 739 200 
Q 488 400 488 806 
Q 488 878 497 964 
Q 506 1050 525 1153 
L 897 3053 
L 409 3053 
L 500 3500 
L 978 3500 
L 1172 4494 
L 1747 4494 
L 1556 3500 
L 2706 3500 
z
" transform="scale(0.015625)"/>
     </defs>
     <use xlink:href="#DejaVuSans-Oblique-56" transform="translate(0 0.09375)"/>
     <use xlink:href="#DejaVuSans-31" transform="translate(68.408203 -16.3125) scale(0.7)"/>
     <use xlink:href="#DejaVuSans-Oblique-6f" transform="translate(112.944336 -16.3125) scale(0.7)"/>
     <use xlink:href="#DejaVuSans-Oblique-75" transform="translate(155.771484 -16.3125) scale(0.7)"/>
     <use xlink:href="#DejaVuSans-Oblique-74" transform="translate(200.136719 -16.3125) scale(0.7)"/>
    </g>
   </g>
  </g>
 </g>
 <defs>
  <clipPath id="p78d2420967">
   <rect x="3.6" y="6.895656" width="398.576515" height="272.844"/>
  </clipPath>
 </defs>
</svg>