<?xml version="1.0" encoding="utf-8" standalone="no"?>
<!DOCTYPE svg PUBLIC "-//W3C//DTD SVG 1.1//EN"
  "http://www.w3.org/Graphics/SVG/1.1/DTD/svg11.dtd">
<svg xmlns:xlink="http://www.w3.org/1999/xlink" width="361.7406pt" height="195.687052pt" viewBox="0 0 361.7406 195.687052" xmlns="http://www.w3.org/2000/svg" version="1.1">
 <metadata>
  <rdf:RDF xmlns:dc="http://purl.org/dc/elements/1.1/" xmlns:cc="http://creativecommons.org/ns#" xmlns:rdf="http://www.w3.org/1999/02/22-rdf-syntax-ns#">
   <cc:Work>
    <dc:type rdf:resource="http://purl.org/dc/dcmitype/StillImage"/>
    <dc:date>2022-11-04T21:54:16.703448</dc:date>
    <dc:format>image/svg+xml</dc:format>
    <dc:creator>
     <cc:Agent>
      <dc:title>Matplotlib v3.5.3, https://matplotlib.org/</dc:title>
     </cc:Agent>
    </dc:creator>
   </cc:Work>
  </rdf:RDF>
 </metadata>
 <defs>
  <style type="text/css">*{stroke-linejoin: round; stroke-linecap: butt}</style>
 </defs>
 <g id="figure_1">
  <g id="patch_1">
   <path d="M 0 195.687052 
L 361.7406 195.687052 
L 361.7406 0 
L 0 0 
L 0 195.687052 
z
" style="fill: none"/>
  </g>
  <g id="axes_1">
   <g id="patch_2">
    <path d="M 105.579 107.907052 
C 105.579 106.284549 104.933776 104.726841 103.786494 103.579558 
C 102.639211 102.432276 101.081502 101.787052 99.459 101.787052 
C 97.836498 101.787052 96.278789 102.432276 95.131506 103.579558 
C 93.984224 104.726841 93.339 106.284549 93.339 107.907052 
" clip-path="url(#p4c5e8d9ba2)" style="fill: none; stroke: #000000; stroke-width: 2; stroke-linejoin: miter"/>
   </g>
   <g id="patch_3">
    <path d="M 117.819 107.907052 
C 117.819 106.284549 117.173776 104.726841 116.026494 103.579558 
C 114.879211 102.432276 113.321502 101.787052 111.699 101.787052 
C 110.076498 101.787052 108.518789 102.432276 107.371506 103.579558 
C 106.224224 104.726841 105.579 106.284549 105.579 107.907052 
" clip-path="url(#p4c5e8d9ba2)" style="fill: none; stroke: #000000; stroke-width: 2; stroke-linejoin: miter"/>
   </g>
   <g id="patch_4">
    <path d="M 130.059 107.907052 
C 130.059 106.284549 129.413776 104.726841 128.266494 103.579558 
C 127.119211 102.432276 125.561502 101.787052 123.939 101.787052 
C 122.316498 101.787052 120.758789 102.432276 119.611506 103.579558 
C 118.464224 104.726841 117.819 106.284549 117.819 107.907052 
" clip-path="url(#p4c5e8d9ba2)" style="fill: none; stroke: #000000; stroke-width: 2; stroke-linejoin: miter"/>
   </g>
   <g id="patch_5">
    <path d="M 142.299 107.907052 
C 142.299 106.284549 141.653776 104.726841 140.506494 103.579558 
C 139.359211 102.432276 137.801502 101.787052 136.179 101.787052 
C 134.556498 101.787052 132.998789 102.432276 131.851506 103.579558 
C 130.704224 104.726841 130.059 106.284549 130.059 107.907052 
" clip-path="url(#p4c5e8d9ba2)" style="fill: none; stroke: #000000; stroke-width: 2; stroke-linejoin: miter"/>
   </g>
   <g id="patch_6">
    <path d="M 154.539 107.907052 
C 154.539 106.284549 153.893776 104.726841 152.746494 103.579558 
C 151.599211 102.432276 150.041502 101.787052 148.419 101.787052 
C 146.796498 101.787052 145.238789 102.432276 144.091506 103.579558 
C 142.944224 104.726841 142.299 106.284549 142.299 107.907052 
" clip-path="url(#p4c5e8d9ba2)" style="fill: none; stroke: #000000; stroke-width: 2; stroke-linejoin: miter"/>
   </g>
   <g id="patch_7">
    <path d="M 166.779 107.907052 
C 166.779 106.284549 166.133776 104.726841 164.986494 103.579558 
C 163.839211 102.432276 162.281502 101.787052 160.659 101.787052 
C 159.036498 101.787052 157.478789 102.432276 156.331506 103.579558 
C 155.184224 104.726841 154.539 106.284549 154.539 107.907052 
" clip-path="url(#p4c5e8d9ba2)" style="fill: none; stroke: #000000; stroke-width: 2; stroke-linejoin: miter"/>
   </g>
   <g id="patch_8">
    <path d="M 179.019 107.907052 
C 179.019 106.284549 178.373776 104.726841 177.226494 103.579558 
C 176.079211 102.432276 174.521502 101.787052 172.899 101.787052 
C 171.276498 101.787052 169.718789 102.432276 168.571506 103.579558 
C 167.424224 104.726841 166.779 106.284549 166.779 107.907052 
" clip-path="url(#p4c5e8d9ba2)" style="fill: none; stroke: #000000; stroke-width: 2; stroke-linejoin: miter"/>
   </g>
   <g id="patch_9">
    <path d="M 191.259 107.907052 
C 191.259 106.284549 190.613776 104.726841 189.466494 103.579558 
C 188.319211 102.432276 186.761502 101.787052 185.139 101.787052 
C 183.516498 101.787052 181.958789 102.432276 180.811506 103.579558 
C 179.664224 104.726841 179.019 106.284549 179.019 107.907052 
" clip-path="url(#p4c5e8d9ba2)" style="fill: none; stroke: #000000; stroke-width: 2; stroke-linejoin: miter"/>
   </g>
   <g id="patch_10">
    <path d="M 203.499 107.907052 
C 203.499 106.284549 202.853776 104.726841 201.706494 103.579558 
C 200.559211 102.432276 199.001502 101.787052 197.379 101.787052 
C 195.756498 101.787052 194.198789 102.432276 193.051506 103.579558 
C 191.904224 104.726841 191.259 106.284549 191.259 107.907052 
" clip-path="url(#p4c5e8d9ba2)" style="fill: none; stroke: #000000; stroke-width: 2; stroke-linejoin: miter"/>
   </g>
   <g id="patch_11">
    <path d="M 215.739 107.907052 
C 215.739 106.284549 215.093776 104.726841 213.946494 103.579558 
C 212.799211 102.432276 211.241502 101.787052 209.619 101.787052 
C 207.996498 101.787052 206.438789 102.432276 205.291506 103.579558 
C 204.144224 104.726841 203.499 106.284549 203.499 107.907052 
" clip-path="url(#p4c5e8d9ba2)" style="fill: none; stroke: #000000; stroke-width: 2; stroke-linejoin: miter"/>
   </g>
   <g id="patch_12">
    <path d="M 227.979 107.907052 
C 227.979 106.284549 227.333776 104.726841 226.186494 103.579558 
C 225.039211 102.432276 223.481502 101.787052 221.859 101.787052 
C 220.236498 101.787052 218.678789 102.432276 217.531506 103.579558 
C 216.384224 104.726841 215.739 106.284549 215.739 107.907052 
" clip-path="url(#p4c5e8d9ba2)" style="fill: none; stroke: #000000; stroke-width: 2; stroke-linejoin: miter"/>
   </g>
   <g id="patch_13">
    <path d="M 240.219 107.907052 
C 240.219 106.284549 239.573776 104.726841 238.426494 103.579558 
C 237.279211 102.432276 235.721502 101.787052 234.099 101.787052 
C 232.476498 101.787052 230.918789 102.432276 229.771506 103.579558 
C 228.624224 104.726841 227.979 106.284549 227.979 107.907052 
" clip-path="url(#p4c5e8d9ba2)" style="fill: none; stroke: #000000; stroke-width: 2; stroke-linejoin: miter"/>
   </g>
   <g id="patch_14">
    <path d="M 252.459 107.907052 
C 252.459 106.284549 251.813776 104.726841 250.666494 103.579558 
C 249.519211 102.432276 247.961502 101.787052 246.339 101.787052 
C 244.716498 101.787052 243.158789 102.432276 242.011506 103.579558 
C 240.864224 104.726841 240.219 106.284549 240.219 107.907052 
" clip-path="url(#p4c5e8d9ba2)" style="fill: none; stroke: #000000; stroke-width: 2; stroke-linejoin: miter"/>
   </g>
   <g id="patch_15">
    <path d="M 264.699 107.907052 
C 264.699 106.284549 264.053776 104.726841 262.906494 103.579558 
C 261.759211 102.432276 260.201502 101.787052 258.579 101.787052 
C 256.956498 101.787052 255.398789 102.432276 254.251506 103.579558 
C 253.104224 104.726841 252.459 106.284549 252.459 107.907052 
" clip-path="url(#p4c5e8d9ba2)" style="fill: none; stroke: #000000; stroke-width: 2; stroke-linejoin: miter"/>
   </g>
   <g id="patch_16">
    <path d="M 276.939 107.907052 
C 276.939 106.284549 276.293776 104.726841 275.146494 103.579558 
C 273.999211 102.432276 272.441502 101.787052 270.819 101.787052 
C 269.196498 101.787052 267.638789 102.432276 266.491506 103.579558 
C 265.344224 104.726841 264.699 106.284549 264.699 107.907052 
" clip-path="url(#p4c5e8d9ba2)" style="fill: none; stroke: #000000; stroke-width: 2; stroke-linejoin: miter"/>
   </g>
   <g id="patch_17">
    <path d="M 289.179 107.907052 
C 289.179 106.284549 288.533776 104.726841 287.386494 103.579558 
C 286.239211 102.432276 284.681502 101.787052 283.059 101.787052 
C 281.436498 101.787052 279.878789 102.432276 278.731506 103.579558 
C 277.584224 104.726841 276.939 106.284549 276.939 107.907052 
" clip-path="url(#p4c5e8d9ba2)" style="fill: none; stroke: #000000; stroke-width: 2; stroke-linejoin: miter"/>
   </g>
   <g id="patch_18">
    <path d="M 93.339 77.307052 
C 93.339 78.929554 93.984224 80.487263 95.131506 81.634545 
C 96.278789 82.781828 97.836498 83.427052 99.459 83.427052 
C 101.081502 83.427052 102.639211 82.781828 103.786494 81.634545 
C 104.933776 80.487263 105.579 78.929554 105.579 77.307052 
" clip-path="url(#p4c5e8d9ba2)" style="fill: none; stroke: #000000; stroke-width: 2; stroke-linejoin: miter"/>
   </g>
   <g id="patch_19">
    <path d="M 105.579 77.307052 
C 105.579 78.929554 106.224224 80.487263 107.371506 81.634545 
C 108.518789 82.781828 110.076498 83.427052 111.699 83.427052 
C 113.321502 83.427052 114.879211 82.781828 116.026494 81.634545 
C 117.173776 80.487263 117.819 78.929554 117.819 77.307052 
" clip-path="url(#p4c5e8d9ba2)" style="fill: none; stroke: #000000; stroke-width: 2; stroke-linejoin: miter"/>
   </g>
   <g id="patch_20">
    <path d="M 117.819 77.307052 
C 117.819 78.929554 118.464224 80.487263 119.611506 81.634545 
C 120.758789 82.781828 122.316498 83.427052 123.939 83.427052 
C 125.561502 83.427052 127.119211 82.781828 128.266494 81.634545 
C 129.413776 80.487263 130.059 78.929554 130.059 77.307052 
" clip-path="url(#p4c5e8d9ba2)" style="fill: none; stroke: #000000; stroke-width: 2; stroke-linejoin: miter"/>
   </g>
   <g id="patch_21">
    <path d="M 130.059 77.307052 
C 130.059 78.929554 130.704224 80.487263 131.851506 81.634545 
C 132.998789 82.781828 134.556498 83.427052 136.179 83.427052 
C 137.801502 83.427052 139.359211 82.781828 140.506494 81.634545 
C 141.653776 80.487263 142.299 78.929554 142.299 77.307052 
" clip-path="url(#p4c5e8d9ba2)" style="fill: none; stroke: #000000; stroke-width: 2; stroke-linejoin: miter"/>
   </g>
   <g id="patch_22">
    <path d="M 142.299 77.307052 
C 142.299 78.929554 142.944224 80.487263 144.091506 81.634545 
C 145.238789 82.781828 146.796498 83.427052 148.419 83.427052 
C 150.041502 83.427052 151.599211 82.781828 152.746494 81.634545 
C 153.893776 80.487263 154.539 78.929554 154.539 77.307052 
" clip-path="url(#p4c5e8d9ba2)" style="fill: none; stroke: #000000; stroke-width: 2; stroke-linejoin: miter"/>
   </g>
   <g id="patch_23">
    <path d="M 154.539 77.307052 
C 154.539 78.929554 155.184224 80.487263 156.331506 81.634545 
C 157.478789 82.781828 159.036498 83.427052 160.659 83.427052 
C 162.281502 83.427052 163.839211 82.781828 164.986494 81.634545 
C 166.133776 80.487263 166.779 78.929554 166.779 77.307052 
" clip-path="url(#p4c5e8d9ba2)" style="fill: none; stroke: #000000; stroke-width: 2; stroke-linejoin: miter"/>
   </g>
   <g id="patch_24">
    <path d="M 166.779 77.307052 
C 166.779 78.929554 167.424224 80.487263 168.571506 81.634545 
C 169.718789 82.781828 171.276498 83.427052 172.899 83.427052 
C 174.521502 83.427052 176.079211 82.781828 177.226494 81.634545 
C 178.373776 80.487263 179.019 78.929554 179.019 77.307052 
" clip-path="url(#p4c5e8d9ba2)" style="fill: none; stroke: #000000; stroke-width: 2; stroke-linejoin: miter"/>
   </g>
   <g id="patch_25">
    <path d="M 179.019 77.307052 
C 179.019 78.929554 179.664224 80.487263 180.811506 81.634545 
C 181.958789 82.781828 183.516498 83.427052 185.139 83.427052 
C 186.761502 83.427052 188.319211 82.781828 189.466494 81.634545 
C 190.613776 80.487263 191.259 78.929554 191.259 77.307052 
" clip-path="url(#p4c5e8d9ba2)" style="fill: none; stroke: #000000; stroke-width: 2; stroke-linejoin: miter"/>
   </g>
   <g id="patch_26">
    <path d="M 191.259 77.307052 
C 191.259 78.929554 191.904224 80.487263 193.051506 81.634545 
C 194.198789 82.781828 195.756498 83.427052 197.379 83.427052 
C 199.001502 83.427052 200.559211 82.781828 201.706494 81.634545 
C 202.853776 80.487263 203.499 78.929554 203.499 77.307052 
" clip-path="url(#p4c5e8d9ba2)" style="fill: none; stroke: #000000; stroke-width: 2; stroke-linejoin: miter"/>
   </g>
   <g id="patch_27">
    <path d="M 203.499 77.307052 
C 203.499 78.929554 204.144224 80.487263 205.291506 81.634545 
C 206.438789 82.781828 207.996498 83.427052 209.619 83.427052 
C 211.241502 83.427052 212.799211 82.781828 213.946494 81.634545 
C 215.093776 80.487263 215.739 78.929554 215.739 77.307052 
" clip-path="url(#p4c5e8d9ba2)" style="fill: none; stroke: #000000; stroke-width: 2; stroke-linejoin: miter"/>
   </g>
   <g id="patch_28">
    <path d="M 215.739 77.307052 
C 215.739 78.929554 216.384224 80.487263 217.531506 81.634545 
C 218.678789 82.781828 220.236498 83.427052 221.859 83.427052 
C 223.481502 83.427052 225.039211 82.781828 226.186494 81.634545 
C 227.333776 80.487263 227.979 78.929554 227.979 77.307052 
" clip-path="url(#p4c5e8d9ba2)" style="fill: none; stroke: #000000; stroke-width: 2; stroke-linejoin: miter"/>
   </g>
   <g id="patch_29">
    <path d="M 227.979 77.307052 
C 227.979 78.929554 228.624224 80.487263 229.771506 81.634545 
C 230.918789 82.781828 232.476498 83.427052 234.099 83.427052 
C 235.721502 83.427052 237.279211 82.781828 238.426494 81.634545 
C 239.573776 80.487263 240.219 78.929554 240.219 77.307052 
" clip-path="url(#p4c5e8d9ba2)" style="fill: none; stroke: #000000; stroke-width: 2; stroke-linejoin: miter"/>
   </g>
   <g id="patch_30">
    <path d="M 240.219 77.307052 
C 240.219 78.929554 240.864224 80.487263 242.011506 81.634545 
C 243.158789 82.781828 244.716498 83.427052 246.339 83.427052 
C 247.961502 83.427052 249.519211 82.781828 250.666494 81.634545 
C 251.813776 80.487263 252.459 78.929554 252.459 77.307052 
" clip-path="url(#p4c5e8d9ba2)" style="fill: none; stroke: #000000; stroke-width: 2; stroke-linejoin: miter"/>
   </g>
   <g id="patch_31">
    <path d="M 252.459 77.307052 
C 252.459 78.929554 253.104224 80.487263 254.251506 81.634545 
C 255.398789 82.781828 256.956498 83.427052 258.579 83.427052 
C 260.201502 83.427052 261.759211 82.781828 262.906494 81.634545 
C 264.053776 80.487263 264.699 78.929554 264.699 77.307052 
" clip-path="url(#p4c5e8d9ba2)" style="fill: none; stroke: #000000; stroke-width: 2; stroke-linejoin: miter"/>
   </g>
   <g id="patch_32">
    <path d="M 264.699 77.307052 
C 264.699 78.929554 265.344224 80.487263 266.491506 81.634545 
C 267.638789 82.781828 269.196498 83.427052 270.819 83.427052 
C 272.441502 83.427052 273.999211 82.781828 275.146494 81.634545 
C 276.293776 80.487263 276.939 78.929554 276.939 77.307052 
" clip-path="url(#p4c5e8d9ba2)" style="fill: none; stroke: #000000; stroke-width: 2; stroke-linejoin: miter"/>
   </g>
   <g id="patch_33">
    <path d="M 276.939 77.307052 
C 276.939 78.929554 277.584224 80.487263 278.731506 81.634545 
C 279.878789 82.781828 281.436498 83.427052 283.059 83.427052 
C 284.681502 83.427052 286.239211 82.781828 287.386494 81.634545 
C 288.533776 80.487263 289.179 78.929554 289.179 77.307052 
" clip-path="url(#p4c5e8d9ba2)" style="fill: none; stroke: #000000; stroke-width: 2; stroke-linejoin: miter"/>
   </g>
   <g id="line2d_1">
    <path d="M 93.339 95.667052 
L 289.179 95.667052 
" clip-path="url(#p4c5e8d9ba2)" style="fill: none; stroke: #000000; stroke-width: 2; stroke-linecap: round"/>
   </g>
   <g id="line2d_2">
    <path d="M 93.339 89.547052 
L 289.179 89.547052 
" clip-path="url(#p4c5e8d9ba2)" style="fill: none; stroke: #000000; stroke-width: 2; stroke-linecap: round"/>
   </g>
   <g id="line2d_3">
    <path d="M 93.339 77.307052 
L 93.339 62.007052 
L 93.339 46.707052 
" clip-path="url(#p4c5e8d9ba2)" style="fill: none; stroke: #000000; stroke-width: 2; stroke-linecap: round"/>
   </g>
   <g id="line2d_4">
    <path d="M 93.339 46.707052 
L 108.639 46.707052 
L 108.752959 44.187493 
L 109.099496 41.645211 
L 109.670901 39.293422 
L 110.440607 37.329369 
L 111.365415 35.917771 
L 111.868802 35.458253 
L 112.389117 35.17702 
L 112.918076 35.08 
L 113.447212 35.169239 
L 113.968057 35.442855 
L 114.472314 35.895082 
L 114.95204 36.516386 
L 115.808855 38.210557 
L 116.487997 40.383282 
L 116.953862 42.852336 
L 117.188734 45.410644 
L 117.19427 47.843644 
L 116.99136 49.947285 
L 116.618376 51.545138 
L 116.127956 52.503192 
L 115.857989 52.714872 
L 115.582585 52.741098 
L 115.310233 52.581319 
L 115.049357 52.238903 
L 114.594348 51.038724 
L 114.277075 49.24122 
L 114.145501 46.997143 
L 114.232016 44.494702 
L 114.550719 41.943772 
L 115.096236 39.558296 
L 115.84417 37.53834 
L 116.753148 36.053315 
L 117.251287 35.55239 
L 117.768291 35.227767 
L 118.295946 35.086287 
L 118.825814 35.130934 
L 119.34941 35.360765 
L 119.858381 35.770937 
L 120.344681 36.352804 
L 121.219642 37.979202 
L 121.922267 40.103556 
L 122.414982 42.547701 
L 122.677819 45.106648 
L 122.71009 47.565784 
L 122.530442 49.718864 
L 122.175297 51.385313 
L 121.695796 52.425368 
L 121.428382 52.680954 
L 121.153509 52.751802 
L 120.879653 52.636418 
L 120.615271 52.337236 
L 120.147579 51.21644 
L 119.811012 49.483414 
L 119.655152 47.283503 
L 119.714426 44.801211 
L 120.005218 42.244724 
L 120.524494 39.82845 
L 121.250059 37.755039 
L 122.142415 36.198384 
L 122.634856 35.65666 
L 123.148077 35.28904 
L 123.673944 35.103272 
L 124.204056 35.103272 
L 124.729923 35.28904 
L 125.243144 35.65666 
L 125.735585 36.198384 
L 126.627941 37.755039 
L 127.353506 39.82845 
L 127.872782 42.244724 
L 128.163574 44.801211 
L 128.222848 47.283503 
L 128.066988 49.483414 
L 127.730421 51.21644 
L 127.262729 52.337236 
L 126.998347 52.636418 
L 126.724491 52.751802 
L 126.449618 52.680954 
L 126.182204 52.425368 
L 125.702703 51.385313 
L 125.347558 49.718864 
L 125.16791 47.565784 
L 125.200181 45.106648 
L 125.463018 42.547701 
L 125.955733 40.103556 
L 126.658358 37.979202 
L 127.533319 36.352804 
L 128.019619 35.770937 
L 128.52859 35.360765 
L 129.052186 35.130934 
L 129.582054 35.086287 
L 130.109709 35.227767 
L 130.626713 35.55239 
L 131.124852 36.053315 
L 131.596309 36.719982 
L 132.430877 38.491139 
L 133.081779 40.717317 
L 133.51578 43.21181 
L 133.717834 45.765408 
L 133.692353 48.163945 
L 133.462826 50.20626 
L 133.06986 51.721066 
L 132.567767 52.581319 
L 132.295415 52.741098 
L 132.020011 52.714872 
L 131.750044 52.503192 
L 131.493887 52.110522 
L 131.054875 50.818957 
L 130.761149 48.948497 
L 130.658698 46.656015 
L 130.777471 44.133779 
L 131.128859 41.593324 
L 131.704749 39.247714 
L 132.478195 37.293673 
L 133.405686 35.895082 
L 133.909943 35.442855 
L 134.430788 35.169239 
L 134.959924 35.08 
L 135.488883 35.17702 
L 136.009198 35.458253 
L 136.512585 35.917771 
L 136.991118 36.54589 
L 137.844687 38.251693 
L 138.519673 40.432599 
L 138.980821 42.905699 
L 139.210809 45.463577 
L 139.239 46.707052 
L 154.539 46.707052 
L 154.539 46.707052 
" clip-path="url(#p4c5e8d9ba2)" style="fill: none; stroke: #000000; stroke-width: 2; stroke-linecap: round"/>
   </g>
   <g id="line2d_5">
    <path d="M 154.539 46.707052 
L 182.385 46.707052 
M 182.385 39.057052 
L 182.385 54.357052 
M 187.893 39.057052 
L 187.893 54.357052 
M 187.893 46.707052 
L 215.739 46.707052 
" clip-path="url(#p4c5e8d9ba2)" style="fill: none; stroke: #000000; stroke-width: 2; stroke-linecap: round"/>
   </g>
   <g id="line2d_6">
    <path d="M 215.739 46.707052 
L 237.159 46.707052 
L 239.709 39.057052 
L 244.809 54.357052 
L 249.909 39.057052 
L 255.009 54.357052 
L 260.109 39.057052 
L 265.209 54.357052 
L 267.759 46.707052 
L 289.179 46.707052 
" clip-path="url(#p4c5e8d9ba2)" style="fill: none; stroke: #000000; stroke-width: 2; stroke-linecap: round"/>
   </g>
   <g id="line2d_7">
    <path d="M 289.179 46.707052 
L 289.179 62.007052 
L 289.179 77.307052 
" clip-path="url(#p4c5e8d9ba2)" style="fill: none; stroke: #000000; stroke-width: 2; stroke-linecap: round"/>
   </g>
   <g id="line2d_8">
    <path d="M 191.259 107.907052 
L 191.259 115.557052 
L 191.259 123.207052 
" clip-path="url(#p4c5e8d9ba2)" style="fill: none; stroke: #000000; stroke-width: 2; stroke-linecap: round"/>
   </g>
   <g id="line2d_9">
    <path d="M 93.339 107.907052 
L 93.339 115.557052 
L 93.339 123.207052 
" clip-path="url(#p4c5e8d9ba2)" style="fill: none; stroke: #000000; stroke-width: 2; stroke-linecap: round"/>
   </g>
   <g id="line2d_10">
    <path d="M 70.338 144.525052 
L 81.558 144.525052 
" clip-path="url(#p4c5e8d9ba2)" style="fill: none; stroke: #000000; stroke-width: 2; stroke-linecap: round"/>
   </g>
   <g id="line2d_11">
    <path d="M 81.558 133.305052 
L 81.558 155.745052 
" clip-path="url(#p4c5e8d9ba2)" style="fill: none; stroke: #000000; stroke-width: 2; stroke-linecap: round"/>
   </g>
   <g id="line2d_12">
    <path d="M 81.558 138.915052 
L 93.339 128.817052 
L 93.339 123.207052 
" clip-path="url(#p4c5e8d9ba2)" style="fill: none; stroke: #000000; stroke-width: 2; stroke-linecap: round"/>
   </g>
   <g id="line2d_13">
    <path d="M 81.558 150.135052 
L 93.339 160.233052 
L 93.339 165.843052 
" clip-path="url(#p4c5e8d9ba2)" style="fill: none; stroke: #000000; stroke-width: 2; stroke-linecap: round"/>
   </g>
   <g id="line2d_14">
    <path d="M 81.558 150.135052 
L 87.530687 155.254498 
" clip-path="url(#p4c5e8d9ba2)" style="fill: none; stroke: #000000; stroke-width: 2; stroke-linecap: round"/>
   </g>
   <g id="patch_34">
    <path d="M 89.522109 152.931173 
L 93.339 160.233052 
L 85.539265 157.577823 
z
" clip-path="url(#p4c5e8d9ba2)"/>
   </g>
   <g id="line2d_15">
    <path d="M 289.179 107.907052 
L 289.179 115.557052 
L 289.179 123.207052 
" clip-path="url(#p4c5e8d9ba2)" style="fill: none; stroke: #000000; stroke-width: 2; stroke-linecap: round"/>
   </g>
   <g id="line2d_16">
    <path d="M 312.18 144.525052 
L 300.96 144.525052 
" clip-path="url(#p4c5e8d9ba2)" style="fill: none; stroke: #000000; stroke-width: 2; stroke-linecap: round"/>
   </g>
   <g id="line2d_17">
    <path d="M 300.96 133.305052 
L 300.96 155.745052 
" clip-path="url(#p4c5e8d9ba2)" style="fill: none; stroke: #000000; stroke-width: 2; stroke-linecap: round"/>
   </g>
   <g id="line2d_18">
    <path d="M 300.96 138.915052 
L 289.179 128.817052 
L 289.179 123.207052 
" clip-path="url(#p4c5e8d9ba2)" style="fill: none; stroke: #000000; stroke-width: 2; stroke-linecap: round"/>
   </g>
   <g id="line2d_19">
    <path d="M 300.96 150.135052 
L 289.179 160.233052 
L 289.179 165.843052 
" clip-path="url(#p4c5e8d9ba2)" style="fill: none; stroke: #000000; stroke-width: 2; stroke-linecap: round"/>
   </g>
   <g id="line2d_20">
    <path d="M 300.96 150.135052 
L 294.987313 155.254498 
" clip-path="url(#p4c5e8d9ba2)" style="fill: none; stroke: #000000; stroke-width: 2; stroke-linecap: round"/>
   </g>
   <g id="patch_35">
    <path d="M 296.978735 157.577823 
L 289.179 160.233052 
L 292.995891 152.931173 
z
" clip-path="url(#p4c5e8d9ba2)"/>
   </g>
   <g id="line2d_21">
    <path d="M 289.179 165.843052 
L 240.219 165.843052 
L 191.259 165.843052 
" clip-path="url(#p4c5e8d9ba2)" style="fill: none; stroke: #000000; stroke-width: 2; stroke-linecap: round"/>
   </g>
   <g id="line2d_22">
    <path d="M 191.259 165.843052 
L 191.259 178.083052 
L 183.609 178.083052 
L 198.909 178.083052 
M 185.904 181.755052 
L 196.614 181.755052 
M 189.729 185.427052 
L 192.789 185.427052 
" clip-path="url(#p4c5e8d9ba2)" style="fill: none; stroke: #000000; stroke-width: 2; stroke-linecap: round"/>
   </g>
   <g id="line2d_23">
    <path d="M 191.259 165.843052 
L 142.299 165.843052 
L 93.339 165.843052 
" clip-path="url(#p4c5e8d9ba2)" style="fill: none; stroke: #000000; stroke-width: 2; stroke-linecap: round"/>
   </g>
   <g id="text_1">
    <g clip-path="url(#p4c5e8d9ba2)">
     <!-- $n_{p1}:n_{p2}:n_{s}$ -->
     <g transform="translate(20.404 94.78088)scale(0.125 -0.125)">
      <defs>
       <path id="DejaVuSans-Oblique-6e" d="M 3566 2113 
L 3156 0 
L 2578 0 
L 2988 2091 
Q 3016 2238 3031 2350 
Q 3047 2463 3047 2528 
Q 3047 2791 2881 2937 
Q 2716 3084 2419 3084 
Q 1956 3084 1622 2776 
Q 1288 2469 1184 1941 
L 800 0 
L 225 0 
L 903 3500 
L 1478 3500 
L 1363 2950 
Q 1603 3253 1940 3418 
Q 2278 3584 2650 3584 
Q 3113 3584 3367 3334 
Q 3622 3084 3622 2631 
Q 3622 2519 3608 2391 
Q 3594 2263 3566 2113 
z
" transform="scale(0.015625)"/>
       <path id="DejaVuSans-Oblique-70" d="M 3175 2156 
Q 3175 2616 2975 2859 
Q 2775 3103 2400 3103 
Q 2144 3103 1911 2972 
Q 1678 2841 1497 2591 
Q 1319 2344 1212 1994 
Q 1106 1644 1106 1300 
Q 1106 863 1306 627 
Q 1506 391 1875 391 
Q 2147 391 2380 519 
Q 2613 647 2778 891 
Q 2956 1147 3065 1494 
Q 3175 1841 3175 2156 
z
M 1394 2969 
Q 1625 3272 1939 3428 
Q 2253 3584 2638 3584 
Q 3175 3584 3472 3232 
Q 3769 2881 3769 2247 
Q 3769 1728 3584 1258 
Q 3400 788 3053 416 
Q 2822 169 2531 39 
Q 2241 -91 1919 -91 
Q 1547 -91 1294 64 
Q 1041 219 916 525 
L 556 -1331 
L -19 -1331 
L 922 3500 
L 1497 3500 
L 1394 2969 
z
" transform="scale(0.015625)"/>
       <path id="DejaVuSans-31" d="M 794 531 
L 1825 531 
L 1825 4091 
L 703 3866 
L 703 4441 
L 1819 4666 
L 2450 4666 
L 2450 531 
L 3481 531 
L 3481 0 
L 794 0 
L 794 531 
z
" transform="scale(0.015625)"/>
       <path id="DejaVuSans-3a" d="M 750 794 
L 1409 794 
L 1409 0 
L 750 0 
L 750 794 
z
M 750 3309 
L 1409 3309 
L 1409 2516 
L 750 2516 
L 750 3309 
z
" transform="scale(0.015625)"/>
       <path id="DejaVuSans-32" d="M 1228 531 
L 3431 531 
L 3431 0 
L 469 0 
L 469 531 
Q 828 903 1448 1529 
Q 2069 2156 2228 2338 
Q 2531 2678 2651 2914 
Q 2772 3150 2772 3378 
Q 2772 3750 2511 3984 
Q 2250 4219 1831 4219 
Q 1534 4219 1204 4116 
Q 875 4013 500 3803 
L 500 4441 
Q 881 4594 1212 4672 
Q 1544 4750 1819 4750 
Q 2544 4750 2975 4387 
Q 3406 4025 3406 3419 
Q 3406 3131 3298 2873 
Q 3191 2616 2906 2266 
Q 2828 2175 2409 1742 
Q 1991 1309 1228 531 
z
" transform="scale(0.015625)"/>
       <path id="DejaVuSans-Oblique-73" d="M 3200 3397 
L 3091 2853 
Q 2863 2978 2609 3040 
Q 2356 3103 2088 3103 
Q 1634 3103 1373 2948 
Q 1113 2794 1113 2528 
Q 1113 2219 1719 2053 
Q 1766 2041 1788 2034 
L 1972 1978 
Q 2547 1819 2739 1644 
Q 2931 1469 2931 1166 
Q 2931 609 2489 259 
Q 2047 -91 1331 -91 
Q 1053 -91 747 -37 
Q 441 16 72 128 
L 184 722 
Q 500 559 806 475 
Q 1113 391 1394 391 
Q 1816 391 2080 572 
Q 2344 753 2344 1031 
Q 2344 1331 1650 1516 
L 1591 1531 
L 1394 1581 
Q 956 1697 753 1886 
Q 550 2075 550 2369 
Q 550 2928 970 3256 
Q 1391 3584 2113 3584 
Q 2397 3584 2667 3537 
Q 2938 3491 3200 3397 
z
" transform="scale(0.015625)"/>
      </defs>
      <use xlink:href="#DejaVuSans-Oblique-6e"/>
      <use xlink:href="#DejaVuSans-Oblique-70" transform="translate(63.378906 -16.40625)scale(0.7)"/>
      <use xlink:href="#DejaVuSans-31" transform="translate(107.8125 -16.40625)scale(0.7)"/>
      <use xlink:href="#DejaVuSans-3a" transform="translate(174.56543 0)"/>
      <use xlink:href="#DejaVuSans-Oblique-6e" transform="translate(227.739258 0)"/>
      <use xlink:href="#DejaVuSans-Oblique-70" transform="translate(291.118164 -16.40625)scale(0.7)"/>
      <use xlink:href="#DejaVuSans-32" transform="translate(335.551758 -16.40625)scale(0.7)"/>
      <use xlink:href="#DejaVuSans-3a" transform="translate(402.304688 0)"/>
      <use xlink:href="#DejaVuSans-Oblique-6e" transform="translate(455.478516 0)"/>
      <use xlink:href="#DejaVuSans-Oblique-73" transform="translate(518.857422 -16.40625)scale(0.7)"/>
     </g>
    </g>
   </g>
   <g id="text_2">
    <g clip-path="url(#p4c5e8d9ba2)">
     <!-- $L_1$ -->
     <g transform="translate(117.5015 29.420391)scale(0.125 -0.125)">
      <defs>
       <path id="DejaVuSans-Oblique-4c" d="M 1075 4666 
L 1709 4666 
L 909 525 
L 3181 525 
L 3078 0 
L 172 0 
L 1075 4666 
z
" transform="scale(0.015625)"/>
      </defs>
      <use xlink:href="#DejaVuSans-Oblique-4c" transform="translate(0 0.09375)"/>
      <use xlink:href="#DejaVuSans-31" transform="translate(55.712891 -16.3125)scale(0.7)"/>
     </g>
    </g>
   </g>
   <g id="text_3">
    <g clip-path="url(#p4c5e8d9ba2)">
     <!-- $C_1$ -->
     <g transform="translate(177.764 33.397442)scale(0.125 -0.125)">
      <defs>
       <path id="DejaVuSans-Oblique-43" d="M 4447 4306 
L 4319 3641 
Q 4019 3944 3683 4091 
Q 3347 4238 2956 4238 
Q 2422 4238 2017 3981 
Q 1613 3725 1319 3200 
Q 1131 2863 1032 2486 
Q 934 2109 934 1728 
Q 934 1091 1264 756 
Q 1594 422 2222 422 
Q 2656 422 3056 561 
Q 3456 700 3834 978 
L 3688 231 
Q 3316 72 2936 -9 
Q 2556 -91 2175 -91 
Q 1278 -91 773 396 
Q 269 884 269 1753 
Q 269 2309 461 2846 
Q 653 3384 1013 3828 
Q 1394 4300 1883 4525 
Q 2372 4750 3022 4750 
Q 3422 4750 3780 4639 
Q 4138 4528 4447 4306 
z
" transform="scale(0.015625)"/>
      </defs>
      <use xlink:href="#DejaVuSans-Oblique-43" transform="translate(0 0.78125)"/>
      <use xlink:href="#DejaVuSans-31" transform="translate(69.824219 -15.625)scale(0.7)"/>
     </g>
    </g>
   </g>
   <g id="text_4">
    <g clip-path="url(#p4c5e8d9ba2)">
     <!-- $R_L$ -->
     <g transform="translate(245.459 33.397442)scale(0.125 -0.125)">
      <defs>
       <path id="DejaVuSans-Oblique-52" d="M 1613 4147 
L 1294 2491 
L 2106 2491 
Q 2584 2491 2879 2755 
Q 3175 3019 3175 3444 
Q 3175 3784 2976 3965 
Q 2778 4147 2406 4147 
L 1613 4147 
z
M 2772 2241 
Q 2972 2194 3105 2009 
Q 3238 1825 3413 1275 
L 3809 0 
L 3144 0 
L 2778 1197 
Q 2638 1659 2453 1815 
Q 2269 1972 1888 1972 
L 1191 1972 
L 806 0 
L 172 0 
L 1081 4666 
L 2503 4666 
Q 3150 4666 3495 4373 
Q 3841 4081 3841 3531 
Q 3841 3044 3547 2687 
Q 3253 2331 2772 2241 
z
" transform="scale(0.015625)"/>
      </defs>
      <use xlink:href="#DejaVuSans-Oblique-52" transform="translate(0 0.09375)"/>
      <use xlink:href="#DejaVuSans-Oblique-4c" transform="translate(69.482422 -16.3125)scale(0.7)"/>
     </g>
    </g>
   </g>
   <g id="patch_36">
    <path d="M 191.259 125.502052 
C 191.867641 125.502052 192.451436 125.260236 192.88181 124.829862 
C 193.312184 124.399488 193.554 123.815693 193.554 123.207052 
C 193.554 122.598411 193.312184 122.014616 192.88181 121.584242 
C 192.451436 121.153867 191.867641 120.912052 191.259 120.912052 
C 190.650359 120.912052 190.066564 121.153867 189.63619 121.584242 
C 189.205816 122.014616 188.964 122.598411 188.964 123.207052 
C 188.964 123.815693 189.205816 124.399488 189.63619 124.829862 
C 190.066564 125.260236 190.650359 125.502052 191.259 125.502052 
z
" clip-path="url(#p4c5e8d9ba2)" style="stroke: #000000; stroke-width: 2; stroke-linejoin: miter"/>
   </g>
   <g id="text_5">
    <g clip-path="url(#p4c5e8d9ba2)">
     <!-- $V_{DD}$ -->
     <g transform="translate(163.529 126.656271)scale(0.125 -0.125)">
      <defs>
       <path id="DejaVuSans-Oblique-56" d="M 1319 0 
L 500 4666 
L 1119 4666 
L 1797 653 
L 4063 4666 
L 4750 4666 
L 2053 0 
L 1319 0 
z
" transform="scale(0.015625)"/>
       <path id="DejaVuSans-Oblique-44" d="M 1081 4666 
L 2438 4666 
Q 3519 4666 4070 4208 
Q 4622 3750 4622 2847 
Q 4622 2250 4412 1698 
Q 4203 1147 3834 769 
Q 3463 381 2891 190 
Q 2319 0 1538 0 
L 172 0 
L 1081 4666 
z
M 1613 4147 
L 909 519 
L 1734 519 
Q 2794 519 3375 1128 
Q 3956 1738 3956 2847 
Q 3956 3519 3581 3833 
Q 3206 4147 2406 4147 
L 1613 4147 
z
" transform="scale(0.015625)"/>
      </defs>
      <use xlink:href="#DejaVuSans-Oblique-56" transform="translate(0 0.09375)"/>
      <use xlink:href="#DejaVuSans-Oblique-44" transform="translate(68.408203 -16.3125)scale(0.7)"/>
      <use xlink:href="#DejaVuSans-Oblique-44" transform="translate(122.30957 -16.3125)scale(0.7)"/>
     </g>
    </g>
   </g>
   <g id="patch_37">
    <path d="M 191.259 168.138052 
C 191.867641 168.138052 192.451436 167.896236 192.88181 167.465862 
C 193.312184 167.035488 193.554 166.451693 193.554 165.843052 
C 193.554 165.234411 193.312184 164.650616 192.88181 164.220242 
C 192.451436 163.789867 191.867641 163.548052 191.259 163.548052 
C 190.650359 163.548052 190.066564 163.789867 189.63619 164.220242 
C 189.205816 164.650616 188.964 165.234411 188.964 165.843052 
C 188.964 166.451693 189.205816 167.035488 189.63619 167.465862 
C 190.066564 167.896236 190.650359 168.138052 191.259 168.138052 
z
" clip-path="url(#p4c5e8d9ba2)" style="stroke: #000000; stroke-width: 2; stroke-linejoin: miter"/>
   </g>
   <g id="patch_38">
    <path d="M 70.338 146.820052 
C 70.946641 146.820052 71.530436 146.578236 71.96081 146.147862 
C 72.391184 145.717488 72.633 145.133693 72.633 144.525052 
C 72.633 143.916411 72.391184 143.332616 71.96081 142.902242 
C 71.530436 142.471867 70.946641 142.230052 70.338 142.230052 
C 69.729359 142.230052 69.145564 142.471867 68.71519 142.902242 
C 68.284816 143.332616 68.043 143.916411 68.043 144.525052 
C 68.043 145.133693 68.284816 145.717488 68.71519 146.147862 
C 69.145564 146.578236 69.729359 146.820052 70.338 146.820052 
z
" clip-path="url(#p4c5e8d9ba2)" style="fill: #ffffff; stroke: #000000; stroke-width: 2; stroke-linejoin: miter"/>
   </g>
   <g id="text_6">
    <g clip-path="url(#p4c5e8d9ba2)">
     <!-- Vin+ -->
     <g transform="translate(34.844328 147.974271)scale(0.125 -0.125)">
      <defs>
       <path id="DejaVuSans-56" d="M 1831 0 
L 50 4666 
L 709 4666 
L 2188 738 
L 3669 4666 
L 4325 4666 
L 2547 0 
L 1831 0 
z
" transform="scale(0.015625)"/>
       <path id="DejaVuSans-69" d="M 603 3500 
L 1178 3500 
L 1178 0 
L 603 0 
L 603 3500 
z
M 603 4863 
L 1178 4863 
L 1178 4134 
L 603 4134 
L 603 4863 
z
" transform="scale(0.015625)"/>
       <path id="DejaVuSans-6e" d="M 3513 2113 
L 3513 0 
L 2938 0 
L 2938 2094 
Q 2938 2591 2744 2837 
Q 2550 3084 2163 3084 
Q 1697 3084 1428 2787 
Q 1159 2491 1159 1978 
L 1159 0 
L 581 0 
L 581 3500 
L 1159 3500 
L 1159 2956 
Q 1366 3272 1645 3428 
Q 1925 3584 2291 3584 
Q 2894 3584 3203 3211 
Q 3513 2838 3513 2113 
z
" transform="scale(0.015625)"/>
       <path id="DejaVuSans-2b" d="M 2944 4013 
L 2944 2272 
L 4684 2272 
L 4684 1741 
L 2944 1741 
L 2944 0 
L 2419 0 
L 2419 1741 
L 678 1741 
L 678 2272 
L 2419 2272 
L 2419 4013 
L 2944 4013 
z
" transform="scale(0.015625)"/>
      </defs>
      <use xlink:href="#DejaVuSans-56"/>
      <use xlink:href="#DejaVuSans-69" x="66.158203"/>
      <use xlink:href="#DejaVuSans-6e" x="93.941406"/>
      <use xlink:href="#DejaVuSans-2b" x="157.320312"/>
     </g>
    </g>
   </g>
   <g id="patch_39">
    <path d="M 312.18 146.820052 
C 312.788641 146.820052 313.372436 146.578236 313.80281 146.147862 
C 314.233184 145.717488 314.475 145.133693 314.475 144.525052 
C 314.475 143.916411 314.233184 143.332616 313.80281 142.902242 
C 313.372436 142.471867 312.788641 142.230052 312.18 142.230052 
C 311.571359 142.230052 310.987564 142.471867 310.55719 142.902242 
C 310.126816 143.332616 309.885 143.916411 309.885 144.525052 
C 309.885 145.133693 310.126816 145.717488 310.55719 146.147862 
C 310.987564 146.578236 311.571359 146.820052 312.18 146.820052 
z
" clip-path="url(#p4c5e8d9ba2)" style="fill: #ffffff; stroke: #000000; stroke-width: 2; stroke-linejoin: miter"/>
   </g>
   <g id="text_7">
    <g clip-path="url(#p4c5e8d9ba2)">
     <!-- Vin- -->
     <g transform="translate(317.535 147.974271)scale(0.125 -0.125)">
      <defs>
       <path id="DejaVuSans-2d" d="M 313 2009 
L 1997 2009 
L 1997 1497 
L 313 1497 
L 313 2009 
z
" transform="scale(0.015625)"/>
      </defs>
      <use xlink:href="#DejaVuSans-56"/>
      <use xlink:href="#DejaVuSans-69" x="66.158203"/>
      <use xlink:href="#DejaVuSans-6e" x="93.941406"/>
      <use xlink:href="#DejaVuSans-2d" x="157.320312"/>
     </g>
    </g>
   </g>
  </g>
 </g>
 <defs>
  <clipPath id="p4c5e8d9ba2">
   <rect x="7.2" y="7.2" width="347.3406" height="181.287052"/>
  </clipPath>
 </defs>
</svg>