<?xml version="1.0" encoding="utf-8" standalone="no"?>
<!DOCTYPE svg PUBLIC "-//W3C//DTD SVG 1.1//EN"
  "http://www.w3.org/Graphics/SVG/1.1/DTD/svg11.dtd">
<svg xmlns:xlink="http://www.w3.org/1999/xlink" width="368.608828pt" height="208.620485pt" viewBox="0 0 368.608828 208.620485" xmlns="http://www.w3.org/2000/svg" version="1.1">
 <metadata>
  <rdf:RDF xmlns:dc="http://purl.org/dc/elements/1.1/" xmlns:cc="http://creativecommons.org/ns#" xmlns:rdf="http://www.w3.org/1999/02/22-rdf-syntax-ns#">
   <cc:Work>
    <dc:type rdf:resource="http://purl.org/dc/dcmitype/StillImage"/>
    <dc:date>2023-09-26T21:22:16.537713</dc:date>
    <dc:format>image/svg+xml</dc:format>
    <dc:creator>
     <cc:Agent>
      <dc:title>Matplotlib v3.6.3, https://matplotlib.org/</dc:title>
     </cc:Agent>
    </dc:creator>
   </cc:Work>
  </rdf:RDF>
 </metadata>
 <defs>
  <style type="text/css">*{stroke-linejoin: round; stroke-linecap: butt}</style>
 </defs>
 <g id="figure_1">
  <g id="patch_1">
   <path d="M 0 208.620485 
L 368.608828 208.620485 
L 368.608828 0 
L 0 0 
z
" style="fill: #ffffff"/>
  </g>
  <g id="axes_1">
   <g id="patch_2">
    <path d="M 91.475 104.976541 
C 91.475 103.067714 90.715913 101.235116 89.366169 99.885372 
C 88.016425 98.535628 86.183826 97.776541 84.275 97.776541 
C 82.366174 97.776541 80.533575 98.535628 79.183831 99.885372 
C 77.834087 101.235116 77.075 103.067714 77.075 104.976541 
" clip-path="url(#pb5d58f16c7)" style="fill: none; stroke: #000000; stroke-width: 2; stroke-linejoin: miter"/>
   </g>
   <g id="patch_3">
    <path d="M 105.875 104.976541 
C 105.875 103.067714 105.115913 101.235116 103.766169 99.885372 
C 102.416425 98.535628 100.583826 97.776541 98.675 97.776541 
C 96.766174 97.776541 94.933575 98.535628 93.583831 99.885372 
C 92.234087 101.235116 91.475 103.067714 91.475 104.976541 
" clip-path="url(#pb5d58f16c7)" style="fill: none; stroke: #000000; stroke-width: 2; stroke-linejoin: miter"/>
   </g>
   <g id="patch_4">
    <path d="M 120.275 104.976541 
C 120.275 103.067714 119.515913 101.235116 118.166169 99.885372 
C 116.816425 98.535628 114.983826 97.776541 113.075 97.776541 
C 111.166174 97.776541 109.333575 98.535628 107.983831 99.885372 
C 106.634087 101.235116 105.875 103.067714 105.875 104.976541 
" clip-path="url(#pb5d58f16c7)" style="fill: none; stroke: #000000; stroke-width: 2; stroke-linejoin: miter"/>
   </g>
   <g id="patch_5">
    <path d="M 134.675 104.976541 
C 134.675 103.067714 133.915913 101.235116 132.566169 99.885372 
C 131.216425 98.535628 129.383826 97.776541 127.475 97.776541 
C 125.566174 97.776541 123.733575 98.535628 122.383831 99.885372 
C 121.034087 101.235116 120.275 103.067714 120.275 104.976541 
" clip-path="url(#pb5d58f16c7)" style="fill: none; stroke: #000000; stroke-width: 2; stroke-linejoin: miter"/>
   </g>
   <g id="patch_6">
    <path d="M 149.075 104.976541 
C 149.075 103.067714 148.315913 101.235116 146.966169 99.885372 
C 145.616425 98.535628 143.783826 97.776541 141.875 97.776541 
C 139.966174 97.776541 138.133575 98.535628 136.783831 99.885372 
C 135.434087 101.235116 134.675 103.067714 134.675 104.976541 
" clip-path="url(#pb5d58f16c7)" style="fill: none; stroke: #000000; stroke-width: 2; stroke-linejoin: miter"/>
   </g>
   <g id="patch_7">
    <path d="M 163.475 104.976541 
C 163.475 103.067714 162.715913 101.235116 161.366169 99.885372 
C 160.016425 98.535628 158.183826 97.776541 156.275 97.776541 
C 154.366174 97.776541 152.533575 98.535628 151.183831 99.885372 
C 149.834087 101.235116 149.075 103.067714 149.075 104.976541 
" clip-path="url(#pb5d58f16c7)" style="fill: none; stroke: #000000; stroke-width: 2; stroke-linejoin: miter"/>
   </g>
   <g id="patch_8">
    <path d="M 177.875 104.976541 
C 177.875 103.067714 177.115913 101.235116 175.766169 99.885372 
C 174.416425 98.535628 172.583826 97.776541 170.675 97.776541 
C 168.766174 97.776541 166.933575 98.535628 165.583831 99.885372 
C 164.234087 101.235116 163.475 103.067714 163.475 104.976541 
" clip-path="url(#pb5d58f16c7)" style="fill: none; stroke: #000000; stroke-width: 2; stroke-linejoin: miter"/>
   </g>
   <g id="patch_9">
    <path d="M 192.275 104.976541 
C 192.275 103.067714 191.515913 101.235116 190.166169 99.885372 
C 188.816425 98.535628 186.983826 97.776541 185.075 97.776541 
C 183.166174 97.776541 181.333575 98.535628 179.983831 99.885372 
C 178.634087 101.235116 177.875 103.067714 177.875 104.976541 
" clip-path="url(#pb5d58f16c7)" style="fill: none; stroke: #000000; stroke-width: 2; stroke-linejoin: miter"/>
   </g>
   <g id="patch_10">
    <path d="M 206.675 104.976541 
C 206.675 103.067714 205.915913 101.235116 204.566169 99.885372 
C 203.216425 98.535628 201.383826 97.776541 199.475 97.776541 
C 197.566174 97.776541 195.733575 98.535628 194.383831 99.885372 
C 193.034087 101.235116 192.275 103.067714 192.275 104.976541 
" clip-path="url(#pb5d58f16c7)" style="fill: none; stroke: #000000; stroke-width: 2; stroke-linejoin: miter"/>
   </g>
   <g id="patch_11">
    <path d="M 221.075 104.976541 
C 221.075 103.067714 220.315913 101.235116 218.966169 99.885372 
C 217.616425 98.535628 215.783826 97.776541 213.875 97.776541 
C 211.966174 97.776541 210.133575 98.535628 208.783831 99.885372 
C 207.434087 101.235116 206.675 103.067714 206.675 104.976541 
" clip-path="url(#pb5d58f16c7)" style="fill: none; stroke: #000000; stroke-width: 2; stroke-linejoin: miter"/>
   </g>
   <g id="patch_12">
    <path d="M 235.475 104.976541 
C 235.475 103.067714 234.715913 101.235116 233.366169 99.885372 
C 232.016425 98.535628 230.183826 97.776541 228.275 97.776541 
C 226.366174 97.776541 224.533575 98.535628 223.183831 99.885372 
C 221.834087 101.235116 221.075 103.067714 221.075 104.976541 
" clip-path="url(#pb5d58f16c7)" style="fill: none; stroke: #000000; stroke-width: 2; stroke-linejoin: miter"/>
   </g>
   <g id="patch_13">
    <path d="M 249.875 104.976541 
C 249.875 103.067714 249.115913 101.235116 247.766169 99.885372 
C 246.416425 98.535628 244.583826 97.776541 242.675 97.776541 
C 240.766174 97.776541 238.933575 98.535628 237.583831 99.885372 
C 236.234087 101.235116 235.475 103.067714 235.475 104.976541 
" clip-path="url(#pb5d58f16c7)" style="fill: none; stroke: #000000; stroke-width: 2; stroke-linejoin: miter"/>
   </g>
   <g id="patch_14">
    <path d="M 264.275 104.976541 
C 264.275 103.067714 263.515913 101.235116 262.166169 99.885372 
C 260.816425 98.535628 258.983826 97.776541 257.075 97.776541 
C 255.166174 97.776541 253.333575 98.535628 251.983831 99.885372 
C 250.634087 101.235116 249.875 103.067714 249.875 104.976541 
" clip-path="url(#pb5d58f16c7)" style="fill: none; stroke: #000000; stroke-width: 2; stroke-linejoin: miter"/>
   </g>
   <g id="patch_15">
    <path d="M 278.675 104.976541 
C 278.675 103.067714 277.915913 101.235116 276.566169 99.885372 
C 275.216425 98.535628 273.383826 97.776541 271.475 97.776541 
C 269.566174 97.776541 267.733575 98.535628 266.383831 99.885372 
C 265.034087 101.235116 264.275 103.067714 264.275 104.976541 
" clip-path="url(#pb5d58f16c7)" style="fill: none; stroke: #000000; stroke-width: 2; stroke-linejoin: miter"/>
   </g>
   <g id="patch_16">
    <path d="M 293.075 104.976541 
C 293.075 103.067714 292.315913 101.235116 290.966169 99.885372 
C 289.616425 98.535628 287.783826 97.776541 285.875 97.776541 
C 283.966174 97.776541 282.133575 98.535628 280.783831 99.885372 
C 279.434087 101.235116 278.675 103.067714 278.675 104.976541 
" clip-path="url(#pb5d58f16c7)" style="fill: none; stroke: #000000; stroke-width: 2; stroke-linejoin: miter"/>
   </g>
   <g id="patch_17">
    <path d="M 307.475 104.976541 
C 307.475 103.067714 306.715913 101.235116 305.366169 99.885372 
C 304.016425 98.535628 302.183826 97.776541 300.275 97.776541 
C 298.366174 97.776541 296.533575 98.535628 295.183831 99.885372 
C 293.834087 101.235116 293.075 103.067714 293.075 104.976541 
" clip-path="url(#pb5d58f16c7)" style="fill: none; stroke: #000000; stroke-width: 2; stroke-linejoin: miter"/>
   </g>
   <g id="patch_18">
    <path d="M 77.075 68.976541 
C 77.075 70.885367 77.834087 72.717965 79.183831 74.06771 
C 80.533575 75.417454 82.366174 76.176541 84.275 76.176541 
C 86.183826 76.176541 88.016425 75.417454 89.366169 74.06771 
C 90.715913 72.717965 91.475 70.885367 91.475 68.976541 
" clip-path="url(#pb5d58f16c7)" style="fill: none; stroke: #000000; stroke-width: 2; stroke-linejoin: miter"/>
   </g>
   <g id="patch_19">
    <path d="M 91.475 68.976541 
C 91.475 70.885367 92.234087 72.717965 93.583831 74.06771 
C 94.933575 75.417454 96.766174 76.176541 98.675 76.176541 
C 100.583826 76.176541 102.416425 75.417454 103.766169 74.06771 
C 105.115913 72.717965 105.875 70.885367 105.875 68.976541 
" clip-path="url(#pb5d58f16c7)" style="fill: none; stroke: #000000; stroke-width: 2; stroke-linejoin: miter"/>
   </g>
   <g id="patch_20">
    <path d="M 105.875 68.976541 
C 105.875 70.885367 106.634087 72.717965 107.983831 74.06771 
C 109.333575 75.417454 111.166174 76.176541 113.075 76.176541 
C 114.983826 76.176541 116.816425 75.417454 118.166169 74.06771 
C 119.515913 72.717965 120.275 70.885367 120.275 68.976541 
" clip-path="url(#pb5d58f16c7)" style="fill: none; stroke: #000000; stroke-width: 2; stroke-linejoin: miter"/>
   </g>
   <g id="patch_21">
    <path d="M 120.275 68.976541 
C 120.275 70.885367 121.034087 72.717965 122.383831 74.06771 
C 123.733575 75.417454 125.566174 76.176541 127.475 76.176541 
C 129.383826 76.176541 131.216425 75.417454 132.566169 74.06771 
C 133.915913 72.717965 134.675 70.885367 134.675 68.976541 
" clip-path="url(#pb5d58f16c7)" style="fill: none; stroke: #000000; stroke-width: 2; stroke-linejoin: miter"/>
   </g>
   <g id="patch_22">
    <path d="M 134.675 68.976541 
C 134.675 70.885367 135.434087 72.717965 136.783831 74.06771 
C 138.133575 75.417454 139.966174 76.176541 141.875 76.176541 
C 143.783826 76.176541 145.616425 75.417454 146.966169 74.06771 
C 148.315913 72.717965 149.075 70.885367 149.075 68.976541 
" clip-path="url(#pb5d58f16c7)" style="fill: none; stroke: #000000; stroke-width: 2; stroke-linejoin: miter"/>
   </g>
   <g id="patch_23">
    <path d="M 149.075 68.976541 
C 149.075 70.885367 149.834087 72.717965 151.183831 74.06771 
C 152.533575 75.417454 154.366174 76.176541 156.275 76.176541 
C 158.183826 76.176541 160.016425 75.417454 161.366169 74.06771 
C 162.715913 72.717965 163.475 70.885367 163.475 68.976541 
" clip-path="url(#pb5d58f16c7)" style="fill: none; stroke: #000000; stroke-width: 2; stroke-linejoin: miter"/>
   </g>
   <g id="patch_24">
    <path d="M 163.475 68.976541 
C 163.475 70.885367 164.234087 72.717965 165.583831 74.06771 
C 166.933575 75.417454 168.766174 76.176541 170.675 76.176541 
C 172.583826 76.176541 174.416425 75.417454 175.766169 74.06771 
C 177.115913 72.717965 177.875 70.885367 177.875 68.976541 
" clip-path="url(#pb5d58f16c7)" style="fill: none; stroke: #000000; stroke-width: 2; stroke-linejoin: miter"/>
   </g>
   <g id="patch_25">
    <path d="M 177.875 68.976541 
C 177.875 70.885367 178.634087 72.717965 179.983831 74.06771 
C 181.333575 75.417454 183.166174 76.176541 185.075 76.176541 
C 186.983826 76.176541 188.816425 75.417454 190.166169 74.06771 
C 191.515913 72.717965 192.275 70.885367 192.275 68.976541 
" clip-path="url(#pb5d58f16c7)" style="fill: none; stroke: #000000; stroke-width: 2; stroke-linejoin: miter"/>
   </g>
   <g id="patch_26">
    <path d="M 192.275 68.976541 
C 192.275 70.885367 193.034087 72.717965 194.383831 74.06771 
C 195.733575 75.417454 197.566174 76.176541 199.475 76.176541 
C 201.383826 76.176541 203.216425 75.417454 204.566169 74.06771 
C 205.915913 72.717965 206.675 70.885367 206.675 68.976541 
" clip-path="url(#pb5d58f16c7)" style="fill: none; stroke: #000000; stroke-width: 2; stroke-linejoin: miter"/>
   </g>
   <g id="patch_27">
    <path d="M 206.675 68.976541 
C 206.675 70.885367 207.434087 72.717965 208.783831 74.06771 
C 210.133575 75.417454 211.966174 76.176541 213.875 76.176541 
C 215.783826 76.176541 217.616425 75.417454 218.966169 74.06771 
C 220.315913 72.717965 221.075 70.885367 221.075 68.976541 
" clip-path="url(#pb5d58f16c7)" style="fill: none; stroke: #000000; stroke-width: 2; stroke-linejoin: miter"/>
   </g>
   <g id="patch_28">
    <path d="M 221.075 68.976541 
C 221.075 70.885367 221.834087 72.717965 223.183831 74.06771 
C 224.533575 75.417454 226.366174 76.176541 228.275 76.176541 
C 230.183826 76.176541 232.016425 75.417454 233.366169 74.06771 
C 234.715913 72.717965 235.475 70.885367 235.475 68.976541 
" clip-path="url(#pb5d58f16c7)" style="fill: none; stroke: #000000; stroke-width: 2; stroke-linejoin: miter"/>
   </g>
   <g id="patch_29">
    <path d="M 235.475 68.976541 
C 235.475 70.885367 236.234087 72.717965 237.583831 74.06771 
C 238.933575 75.417454 240.766174 76.176541 242.675 76.176541 
C 244.583826 76.176541 246.416425 75.417454 247.766169 74.06771 
C 249.115913 72.717965 249.875 70.885367 249.875 68.976541 
" clip-path="url(#pb5d58f16c7)" style="fill: none; stroke: #000000; stroke-width: 2; stroke-linejoin: miter"/>
   </g>
   <g id="patch_30">
    <path d="M 249.875 68.976541 
C 249.875 70.885367 250.634087 72.717965 251.983831 74.06771 
C 253.333575 75.417454 255.166174 76.176541 257.075 76.176541 
C 258.983826 76.176541 260.816425 75.417454 262.166169 74.06771 
C 263.515913 72.717965 264.275 70.885367 264.275 68.976541 
" clip-path="url(#pb5d58f16c7)" style="fill: none; stroke: #000000; stroke-width: 2; stroke-linejoin: miter"/>
   </g>
   <g id="patch_31">
    <path d="M 264.275 68.976541 
C 264.275 70.885367 265.034087 72.717965 266.383831 74.06771 
C 267.733575 75.417454 269.566174 76.176541 271.475 76.176541 
C 273.383826 76.176541 275.216425 75.417454 276.566169 74.06771 
C 277.915913 72.717965 278.675 70.885367 278.675 68.976541 
" clip-path="url(#pb5d58f16c7)" style="fill: none; stroke: #000000; stroke-width: 2; stroke-linejoin: miter"/>
   </g>
   <g id="patch_32">
    <path d="M 278.675 68.976541 
C 278.675 70.885367 279.434087 72.717965 280.783831 74.06771 
C 282.133575 75.417454 283.966174 76.176541 285.875 76.176541 
C 287.783826 76.176541 289.616425 75.417454 290.966169 74.06771 
C 292.315913 72.717965 293.075 70.885367 293.075 68.976541 
" clip-path="url(#pb5d58f16c7)" style="fill: none; stroke: #000000; stroke-width: 2; stroke-linejoin: miter"/>
   </g>
   <g id="patch_33">
    <path d="M 293.075 68.976541 
C 293.075 70.885367 293.834087 72.717965 295.183831 74.06771 
C 296.533575 75.417454 298.366174 76.176541 300.275 76.176541 
C 302.183826 76.176541 304.016425 75.417454 305.366169 74.06771 
C 306.715913 72.717965 307.475 70.885367 307.475 68.976541 
" clip-path="url(#pb5d58f16c7)" style="fill: none; stroke: #000000; stroke-width: 2; stroke-linejoin: miter"/>
   </g>
   <g id="line2d_1">
    <path d="M 77.075 90.576541 
L 307.475 90.576541 
" clip-path="url(#pb5d58f16c7)" style="fill: none; stroke: #000000; stroke-width: 2; stroke-linecap: round"/>
   </g>
   <g id="line2d_2">
    <path d="M 77.075 83.376541 
L 307.475 83.376541 
" clip-path="url(#pb5d58f16c7)" style="fill: none; stroke: #000000; stroke-width: 2; stroke-linecap: round"/>
   </g>
   <g id="line2d_3">
    <path d="M 77.075 68.976541 
L 77.075 50.976541 
L 77.075 32.976541 
" clip-path="url(#pb5d58f16c7)" style="fill: none; stroke: #000000; stroke-width: 2; stroke-linecap: round"/>
   </g>
   <g id="line2d_4">
    <path d="M 77.075 32.976541 
L 95.075 32.976541 
L 95.20907 30.012354 
L 95.61676 27.021434 
L 96.289001 24.254624 
L 97.194538 21.943972 
L 97.719567 21.022233 
L 98.282547 20.28327 
L 98.874767 19.742659 
L 99.486902 19.411797 
L 100.109207 19.297656 
L 100.73172 19.402643 
L 101.344478 19.724545 
L 101.937723 20.256576 
L 102.502106 20.987522 
L 103.028888 21.901977 
L 103.938825 24.200849 
L 104.616342 26.96039 
L 105.02974 29.949161 
L 105.169472 32.916498 
L 105.048942 35.613535 
L 104.703382 37.814076 
L 104.186898 39.333565 
L 103.885537 39.79553 
L 103.567928 40.044564 
L 103.243923 40.075419 
L 102.923509 39.887444 
L 102.616597 39.484601 
L 102.081292 38.072626 
L 101.708029 35.957915 
L 101.553236 33.317825 
L 101.655019 30.373777 
L 102.029963 27.372683 
L 102.671748 24.56624 
L 103.551671 22.189821 
L 104.066402 21.227047 
L 104.621057 20.442733 
L 105.207102 19.85341 
L 105.815342 19.4715 
L 106.436113 19.305053 
L 107.059487 19.357579 
L 107.675482 19.627968 
L 108.274271 20.110523 
L 108.84639 20.795072 
L 109.382935 21.667186 
L 110.317621 23.897011 
L 111.02506 26.612988 
L 111.471046 29.58733 
L 111.643297 32.570584 
L 111.55249 35.31255 
L 111.231365 37.583263 
L 110.731977 39.192282 
L 110.435936 39.703972 
L 110.121332 40.004661 
L 109.797952 40.088011 
L 109.475768 39.952266 
L 109.164731 39.600287 
L 108.874551 39.039493 
L 108.393228 37.342893 
L 108.097289 35.004759 
L 108.036678 32.221186 
L 108.241602 29.225627 
L 108.719998 26.269317 
L 109.456866 23.600196 
L 110.415531 21.442118 
L 110.961371 20.613402 
L 111.540713 19.97608 
L 112.144502 19.543586 
L 112.763169 19.325035 
L 113.386831 19.325035 
L 114.005498 19.543586 
L 114.609287 19.97608 
L 115.188629 20.613402 
L 115.734469 21.442118 
L 116.23846 22.444761 
L 117.092065 24.884068 
L 117.702979 27.726743 
L 118.045087 30.734375 
L 118.114821 33.654719 
L 117.931457 36.242849 
L 117.535496 38.281704 
L 116.985269 39.600287 
L 116.674232 39.952266 
L 116.352048 40.088011 
L 116.028668 40.004661 
L 115.714064 39.703972 
L 115.418023 39.192282 
L 114.918635 37.583263 
L 114.59751 35.31255 
L 114.506703 32.570584 
L 114.678954 29.58733 
L 115.12494 26.612988 
L 115.832379 23.897011 
L 116.767065 21.667186 
L 117.30361 20.795072 
L 117.875729 20.110523 
L 118.474518 19.627968 
L 119.090513 19.357579 
L 119.713887 19.305053 
L 120.334658 19.4715 
L 120.942898 19.85341 
L 121.528943 20.442733 
L 122.083598 21.227047 
L 122.598329 22.189821 
L 123.478252 24.56624 
L 124.120037 27.372683 
L 124.494981 30.373777 
L 124.596764 33.317825 
L 124.441971 35.957915 
L 124.068708 38.072626 
L 123.533403 39.484601 
L 123.226491 39.887444 
L 122.906077 40.075419 
L 122.582072 40.044564 
L 122.264463 39.79553 
L 121.963102 39.333565 
L 121.446618 37.814076 
L 121.101058 35.613535 
L 120.980528 32.916498 
L 121.12026 29.949161 
L 121.533658 26.96039 
L 122.211175 24.200849 
L 123.121112 21.901977 
L 123.647894 20.987522 
L 124.212277 20.256576 
L 124.805522 19.724545 
L 125.41828 19.402643 
L 126.040793 19.297656 
L 126.663098 19.411797 
L 127.275233 19.742659 
L 127.867453 20.28327 
L 128.430433 21.022233 
L 128.955462 21.943972 
L 129.860999 24.254624 
L 130.53324 27.021434 
L 130.94093 30.012354 
L 131.075 32.976541 
L 149.075 32.976541 
L 149.075 32.976541 
" clip-path="url(#pb5d58f16c7)" style="fill: none; stroke: #000000; stroke-width: 2; stroke-linecap: round"/>
   </g>
   <g id="line2d_5">
    <path d="M 149.075 32.976541 
L 181.835 32.976541 
M 181.835 23.976541 
L 181.835 41.976541 
M 188.315 23.976541 
L 188.315 41.976541 
M 188.315 32.976541 
L 221.075 32.976541 
" clip-path="url(#pb5d58f16c7)" style="fill: none; stroke: #000000; stroke-width: 2; stroke-linecap: round"/>
   </g>
   <g id="line2d_6">
    <path d="M 221.075 32.976541 
L 246.275 32.976541 
L 249.275 23.976541 
L 255.275 41.976541 
L 261.275 23.976541 
L 267.275 41.976541 
L 273.275 23.976541 
L 279.275 41.976541 
L 282.275 32.976541 
L 307.475 32.976541 
" clip-path="url(#pb5d58f16c7)" style="fill: none; stroke: #000000; stroke-width: 2; stroke-linecap: round"/>
   </g>
   <g id="line2d_7">
    <path d="M 307.475 32.976541 
L 307.475 50.976541 
L 307.475 68.976541 
" clip-path="url(#pb5d58f16c7)" style="fill: none; stroke: #000000; stroke-width: 2; stroke-linecap: round"/>
   </g>
   <g id="line2d_8">
    <path d="M 192.275 104.976541 
L 192.275 113.976541 
L 192.275 122.976541 
" clip-path="url(#pb5d58f16c7)" style="fill: none; stroke: #000000; stroke-width: 2; stroke-linecap: round"/>
   </g>
   <g id="line2d_9">
    <path d="M 77.075 104.976541 
L 77.075 113.976541 
L 77.075 122.976541 
" clip-path="url(#pb5d58f16c7)" style="fill: none; stroke: #000000; stroke-width: 2; stroke-linecap: round"/>
   </g>
   <g id="line2d_10">
    <path d="M 50.015 148.056541 
L 63.215 148.056541 
" clip-path="url(#pb5d58f16c7)" style="fill: none; stroke: #000000; stroke-width: 2; stroke-linecap: round"/>
   </g>
   <g id="line2d_11">
    <path d="M 63.215 134.856541 
L 63.215 161.256541 
" clip-path="url(#pb5d58f16c7)" style="fill: none; stroke: #000000; stroke-width: 2; stroke-linecap: round"/>
   </g>
   <g id="line2d_12">
    <path d="M 63.215 141.456541 
L 77.075 129.576541 
L 77.075 122.976541 
" clip-path="url(#pb5d58f16c7)" style="fill: none; stroke: #000000; stroke-width: 2; stroke-linecap: round"/>
   </g>
   <g id="line2d_13">
    <path d="M 63.215 154.656541 
L 77.075 166.536541 
L 77.075 173.136541 
" clip-path="url(#pb5d58f16c7)" style="fill: none; stroke: #000000; stroke-width: 2; stroke-linecap: round"/>
   </g>
   <g id="line2d_14">
    <path d="M 63.215 154.656541 
L 70.241691 160.679418 
" clip-path="url(#pb5d58f16c7)" style="fill: none; stroke: #000000; stroke-width: 2; stroke-linecap: round"/>
   </g>
   <g id="patch_34">
    <path d="M 72.58454 157.946095 
L 77.075 166.536541 
L 67.898842 163.412742 
z
" clip-path="url(#pb5d58f16c7)"/>
   </g>
   <g id="line2d_15">
    <path d="M 307.475 104.976541 
L 307.475 113.976541 
L 307.475 122.976541 
" clip-path="url(#pb5d58f16c7)" style="fill: none; stroke: #000000; stroke-width: 2; stroke-linecap: round"/>
   </g>
   <g id="line2d_16">
    <path d="M 334.535 148.056541 
L 321.335 148.056541 
" clip-path="url(#pb5d58f16c7)" style="fill: none; stroke: #000000; stroke-width: 2; stroke-linecap: round"/>
   </g>
   <g id="line2d_17">
    <path d="M 321.335 134.856541 
L 321.335 161.256541 
" clip-path="url(#pb5d58f16c7)" style="fill: none; stroke: #000000; stroke-width: 2; stroke-linecap: round"/>
   </g>
   <g id="line2d_18">
    <path d="M 321.335 141.456541 
L 307.475 129.576541 
L 307.475 122.976541 
" clip-path="url(#pb5d58f16c7)" style="fill: none; stroke: #000000; stroke-width: 2; stroke-linecap: round"/>
   </g>
   <g id="line2d_19">
    <path d="M 321.335 154.656541 
L 307.475 166.536541 
L 307.475 173.136541 
" clip-path="url(#pb5d58f16c7)" style="fill: none; stroke: #000000; stroke-width: 2; stroke-linecap: round"/>
   </g>
   <g id="line2d_20">
    <path d="M 321.335 154.656541 
L 314.308309 160.679418 
" clip-path="url(#pb5d58f16c7)" style="fill: none; stroke: #000000; stroke-width: 2; stroke-linecap: round"/>
   </g>
   <g id="patch_35">
    <path d="M 316.651158 163.412742 
L 307.475 166.536541 
L 311.96546 157.946095 
z
" clip-path="url(#pb5d58f16c7)"/>
   </g>
   <g id="line2d_21">
    <path d="M 307.475 173.136541 
L 249.875 173.136541 
L 192.275 173.136541 
" clip-path="url(#pb5d58f16c7)" style="fill: none; stroke: #000000; stroke-width: 2; stroke-linecap: round"/>
   </g>
   <g id="line2d_22">
    <path d="M 192.275 173.136541 
L 192.275 187.536541 
L 183.275 187.536541 
L 201.275 187.536541 
M 185.975 191.856541 
L 198.575 191.856541 
M 190.475 196.176541 
L 194.075 196.176541 
" clip-path="url(#pb5d58f16c7)" style="fill: none; stroke: #000000; stroke-width: 2; stroke-linecap: round"/>
   </g>
   <g id="line2d_23">
    <path d="M 192.275 173.136541 
L 134.675 173.136541 
L 77.075 173.136541 
" clip-path="url(#pb5d58f16c7)" style="fill: none; stroke: #000000; stroke-width: 2; stroke-linecap: round"/>
   </g>
   <g id="text_1">
    <!-- $n_{p1}:n_{p2}:n_{s}$ -->
    <g transform="translate(3.6 89.150369) scale(0.125 -0.125)">
     <defs>
      <path id="DejaVuSans-Oblique-6e" d="M 3566 2113 
L 3156 0 
L 2578 0 
L 2988 2091 
Q 3016 2238 3031 2350 
Q 3047 2463 3047 2528 
Q 3047 2791 2881 2937 
Q 2716 3084 2419 3084 
Q 1956 3084 1622 2776 
Q 1288 2469 1184 1941 
L 800 0 
L 225 0 
L 903 3500 
L 1478 3500 
L 1363 2950 
Q 1603 3253 1940 3418 
Q 2278 3584 2650 3584 
Q 3113 3584 3367 3334 
Q 3622 3084 3622 2631 
Q 3622 2519 3608 2391 
Q 3594 2263 3566 2113 
z
" transform="scale(0.015625)"/>
      <path id="DejaVuSans-Oblique-70" d="M 3175 2156 
Q 3175 2616 2975 2859 
Q 2775 3103 2400 3103 
Q 2144 3103 1911 2972 
Q 1678 2841 1497 2591 
Q 1319 2344 1212 1994 
Q 1106 1644 1106 1300 
Q 1106 863 1306 627 
Q 1506 391 1875 391 
Q 2147 391 2380 519 
Q 2613 647 2778 891 
Q 2956 1147 3065 1494 
Q 3175 1841 3175 2156 
z
M 1394 2969 
Q 1625 3272 1939 3428 
Q 2253 3584 2638 3584 
Q 3175 3584 3472 3232 
Q 3769 2881 3769 2247 
Q 3769 1728 3584 1258 
Q 3400 788 3053 416 
Q 2822 169 2531 39 
Q 2241 -91 1919 -91 
Q 1547 -91 1294 64 
Q 1041 219 916 525 
L 556 -1331 
L -19 -1331 
L 922 3500 
L 1497 3500 
L 1394 2969 
z
" transform="scale(0.015625)"/>
      <path id="DejaVuSans-31" d="M 794 531 
L 1825 531 
L 1825 4091 
L 703 3866 
L 703 4441 
L 1819 4666 
L 2450 4666 
L 2450 531 
L 3481 531 
L 3481 0 
L 794 0 
L 794 531 
z
" transform="scale(0.015625)"/>
      <path id="DejaVuSans-3a" d="M 750 794 
L 1409 794 
L 1409 0 
L 750 0 
L 750 794 
z
M 750 3309 
L 1409 3309 
L 1409 2516 
L 750 2516 
L 750 3309 
z
" transform="scale(0.015625)"/>
      <path id="DejaVuSans-32" d="M 1228 531 
L 3431 531 
L 3431 0 
L 469 0 
L 469 531 
Q 828 903 1448 1529 
Q 2069 2156 2228 2338 
Q 2531 2678 2651 2914 
Q 2772 3150 2772 3378 
Q 2772 3750 2511 3984 
Q 2250 4219 1831 4219 
Q 1534 4219 1204 4116 
Q 875 4013 500 3803 
L 500 4441 
Q 881 4594 1212 4672 
Q 1544 4750 1819 4750 
Q 2544 4750 2975 4387 
Q 3406 4025 3406 3419 
Q 3406 3131 3298 2873 
Q 3191 2616 2906 2266 
Q 2828 2175 2409 1742 
Q 1991 1309 1228 531 
z
" transform="scale(0.015625)"/>
      <path id="DejaVuSans-Oblique-73" d="M 3200 3397 
L 3091 2853 
Q 2863 2978 2609 3040 
Q 2356 3103 2088 3103 
Q 1634 3103 1373 2948 
Q 1113 2794 1113 2528 
Q 1113 2219 1719 2053 
Q 1766 2041 1788 2034 
L 1972 1978 
Q 2547 1819 2739 1644 
Q 2931 1469 2931 1166 
Q 2931 609 2489 259 
Q 2047 -91 1331 -91 
Q 1053 -91 747 -37 
Q 441 16 72 128 
L 184 722 
Q 500 559 806 475 
Q 1113 391 1394 391 
Q 1816 391 2080 572 
Q 2344 753 2344 1031 
Q 2344 1331 1650 1516 
L 1591 1531 
L 1394 1581 
Q 956 1697 753 1886 
Q 550 2075 550 2369 
Q 550 2928 970 3256 
Q 1391 3584 2113 3584 
Q 2397 3584 2667 3537 
Q 2938 3491 3200 3397 
z
" transform="scale(0.015625)"/>
     </defs>
     <use xlink:href="#DejaVuSans-Oblique-6e"/>
     <use xlink:href="#DejaVuSans-Oblique-70" transform="translate(63.378906 -16.40625) scale(0.7)"/>
     <use xlink:href="#DejaVuSans-31" transform="translate(107.8125 -16.40625) scale(0.7)"/>
     <use xlink:href="#DejaVuSans-3a" transform="translate(174.56543 0)"/>
     <use xlink:href="#DejaVuSans-Oblique-6e" transform="translate(227.739258 0)"/>
     <use xlink:href="#DejaVuSans-Oblique-70" transform="translate(291.118164 -16.40625) scale(0.7)"/>
     <use xlink:href="#DejaVuSans-32" transform="translate(335.551758 -16.40625) scale(0.7)"/>
     <use xlink:href="#DejaVuSans-3a" transform="translate(402.304688 0)"/>
     <use xlink:href="#DejaVuSans-Oblique-6e" transform="translate(455.478516 0)"/>
     <use xlink:href="#DejaVuSans-Oblique-73" transform="translate(518.857422 -16.40625) scale(0.7)"/>
    </g>
   </g>
   <g id="text_2">
    <!-- $L_1$ -->
    <g transform="translate(106.6375 13.098047) scale(0.125 -0.125)">
     <defs>
      <path id="DejaVuSans-Oblique-4c" d="M 1075 4666 
L 1709 4666 
L 909 525 
L 3181 525 
L 3078 0 
L 172 0 
L 1075 4666 
z
" transform="scale(0.015625)"/>
     </defs>
     <use xlink:href="#DejaVuSans-Oblique-4c" transform="translate(0 0.09375)"/>
     <use xlink:href="#DejaVuSans-31" transform="translate(55.712891 -16.3125) scale(0.7)"/>
    </g>
   </g>
   <g id="text_3">
    <!-- $C_1$ -->
    <g transform="translate(177.7 17.776931) scale(0.125 -0.125)">
     <defs>
      <path id="DejaVuSans-Oblique-43" d="M 4447 4306 
L 4319 3641 
Q 4019 3944 3683 4091 
Q 3347 4238 2956 4238 
Q 2422 4238 2017 3981 
Q 1613 3725 1319 3200 
Q 1131 2863 1032 2486 
Q 934 2109 934 1728 
Q 934 1091 1264 756 
Q 1594 422 2222 422 
Q 2656 422 3056 561 
Q 3456 700 3834 978 
L 3688 231 
Q 3316 72 2936 -9 
Q 2556 -91 2175 -91 
Q 1278 -91 773 396 
Q 269 884 269 1753 
Q 269 2309 461 2846 
Q 653 3384 1013 3828 
Q 1394 4300 1883 4525 
Q 2372 4750 3022 4750 
Q 3422 4750 3780 4639 
Q 4138 4528 4447 4306 
z
" transform="scale(0.015625)"/>
     </defs>
     <use xlink:href="#DejaVuSans-Oblique-43" transform="translate(0 0.78125)"/>
     <use xlink:href="#DejaVuSans-31" transform="translate(69.824219 -15.625) scale(0.7)"/>
    </g>
   </g>
   <g id="text_4">
    <!-- $R_L$ -->
    <g transform="translate(257.275 17.776931) scale(0.125 -0.125)">
     <defs>
      <path id="DejaVuSans-Oblique-52" d="M 1613 4147 
L 1294 2491 
L 2106 2491 
Q 2584 2491 2879 2755 
Q 3175 3019 3175 3444 
Q 3175 3784 2976 3965 
Q 2778 4147 2406 4147 
L 1613 4147 
z
M 2772 2241 
Q 2972 2194 3105 2009 
Q 3238 1825 3413 1275 
L 3809 0 
L 3144 0 
L 2778 1197 
Q 2638 1659 2453 1815 
Q 2269 1972 1888 1972 
L 1191 1972 
L 806 0 
L 172 0 
L 1081 4666 
L 2503 4666 
Q 3150 4666 3495 4373 
Q 3841 4081 3841 3531 
Q 3841 3044 3547 2687 
Q 3253 2331 2772 2241 
z
" transform="scale(0.015625)"/>
     </defs>
     <use xlink:href="#DejaVuSans-Oblique-52" transform="translate(0 0.09375)"/>
     <use xlink:href="#DejaVuSans-Oblique-4c" transform="translate(69.482422 -16.3125) scale(0.7)"/>
    </g>
   </g>
   <g id="patch_36">
    <path d="M 192.275 125.676541 
C 192.991048 125.676541 193.677866 125.392052 194.184188 124.885729 
C 194.690511 124.379406 194.975 123.692589 194.975 122.976541 
C 194.975 122.260492 194.690511 121.573675 194.184188 121.067352 
C 193.677866 120.56103 192.991048 120.276541 192.275 120.276541 
C 191.558952 120.276541 190.872134 120.56103 190.365812 121.067352 
C 189.859489 121.573675 189.575 122.260492 189.575 122.976541 
C 189.575 123.692589 189.859489 124.379406 190.365812 124.885729 
C 190.872134 125.392052 191.558952 125.676541 192.275 125.676541 
z
" clip-path="url(#pb5d58f16c7)" style="stroke: #000000; stroke-width: 2; stroke-linejoin: miter"/>
   </g>
   <g id="text_5">
    <!-- $V_{DD}$ -->
    <g transform="translate(163.6 126.425759) scale(0.125 -0.125)">
     <defs>
      <path id="DejaVuSans-Oblique-56" d="M 1319 0 
L 500 4666 
L 1119 4666 
L 1797 653 
L 4063 4666 
L 4750 4666 
L 2053 0 
L 1319 0 
z
" transform="scale(0.015625)"/>
      <path id="DejaVuSans-Oblique-44" d="M 1081 4666 
L 2438 4666 
Q 3519 4666 4070 4208 
Q 4622 3750 4622 2847 
Q 4622 2250 4412 1698 
Q 4203 1147 3834 769 
Q 3463 381 2891 190 
Q 2319 0 1538 0 
L 172 0 
L 1081 4666 
z
M 1613 4147 
L 909 519 
L 1734 519 
Q 2794 519 3375 1128 
Q 3956 1738 3956 2847 
Q 3956 3519 3581 3833 
Q 3206 4147 2406 4147 
L 1613 4147 
z
" transform="scale(0.015625)"/>
     </defs>
     <use xlink:href="#DejaVuSans-Oblique-56" transform="translate(0 0.09375)"/>
     <use xlink:href="#DejaVuSans-Oblique-44" transform="translate(68.408203 -16.3125) scale(0.7)"/>
     <use xlink:href="#DejaVuSans-Oblique-44" transform="translate(122.30957 -16.3125) scale(0.7)"/>
    </g>
   </g>
   <g id="patch_37">
    <path d="M 192.275 175.836541 
C 192.991048 175.836541 193.677866 175.552052 194.184188 175.045729 
C 194.690511 174.539406 194.975 173.852589 194.975 173.136541 
C 194.975 172.420492 194.690511 171.733675 194.184188 171.227352 
C 193.677866 170.72103 192.991048 170.436541 192.275 170.436541 
C 191.558952 170.436541 190.872134 170.72103 190.365812 171.227352 
C 189.859489 171.733675 189.575 172.420492 189.575 173.136541 
C 189.575 173.852589 189.859489 174.539406 190.365812 175.045729 
C 190.872134 175.552052 191.558952 175.836541 192.275 175.836541 
z
" clip-path="url(#pb5d58f16c7)" style="stroke: #000000; stroke-width: 2; stroke-linejoin: miter"/>
   </g>
   <g id="patch_38">
    <path d="M 50.015 150.756541 
C 50.731048 150.756541 51.417866 150.472052 51.924188 149.965729 
C 52.430511 149.459406 52.715 148.772589 52.715 148.056541 
C 52.715 147.340492 52.430511 146.653675 51.924188 146.147352 
C 51.417866 145.64103 50.731048 145.356541 50.015 145.356541 
C 49.298952 145.356541 48.612134 145.64103 48.105812 146.147352 
C 47.599489 146.653675 47.315 147.340492 47.315 148.056541 
C 47.315 148.772589 47.599489 149.459406 48.105812 149.965729 
C 48.612134 150.472052 49.298952 150.756541 50.015 150.756541 
z
" clip-path="url(#pb5d58f16c7)" style="fill: #ffffff; stroke: #000000; stroke-width: 2; stroke-linejoin: miter"/>
   </g>
   <g id="text_6">
    <!-- Vin+ -->
    <g transform="translate(13.576328 151.505759) scale(0.125 -0.125)">
     <defs>
      <path id="DejaVuSans-56" d="M 1831 0 
L 50 4666 
L 709 4666 
L 2188 738 
L 3669 4666 
L 4325 4666 
L 2547 0 
L 1831 0 
z
" transform="scale(0.015625)"/>
      <path id="DejaVuSans-69" d="M 603 3500 
L 1178 3500 
L 1178 0 
L 603 0 
L 603 3500 
z
M 603 4863 
L 1178 4863 
L 1178 4134 
L 603 4134 
L 603 4863 
z
" transform="scale(0.015625)"/>
      <path id="DejaVuSans-6e" d="M 3513 2113 
L 3513 0 
L 2938 0 
L 2938 2094 
Q 2938 2591 2744 2837 
Q 2550 3084 2163 3084 
Q 1697 3084 1428 2787 
Q 1159 2491 1159 1978 
L 1159 0 
L 581 0 
L 581 3500 
L 1159 3500 
L 1159 2956 
Q 1366 3272 1645 3428 
Q 1925 3584 2291 3584 
Q 2894 3584 3203 3211 
Q 3513 2838 3513 2113 
z
" transform="scale(0.015625)"/>
      <path id="DejaVuSans-2b" d="M 2944 4013 
L 2944 2272 
L 4684 2272 
L 4684 1741 
L 2944 1741 
L 2944 0 
L 2419 0 
L 2419 1741 
L 678 1741 
L 678 2272 
L 2419 2272 
L 2419 4013 
L 2944 4013 
z
" transform="scale(0.015625)"/>
     </defs>
     <use xlink:href="#DejaVuSans-56"/>
     <use xlink:href="#DejaVuSans-69" x="66.158203"/>
     <use xlink:href="#DejaVuSans-6e" x="93.941406"/>
     <use xlink:href="#DejaVuSans-2b" x="157.320312"/>
    </g>
   </g>
   <g id="patch_39">
    <path d="M 334.535 150.756541 
C 335.251048 150.756541 335.937866 150.472052 336.444188 149.965729 
C 336.950511 149.459406 337.235 148.772589 337.235 148.056541 
C 337.235 147.340492 336.950511 146.653675 336.444188 146.147352 
C 335.937866 145.64103 335.251048 145.356541 334.535 145.356541 
C 333.818952 145.356541 333.132134 145.64103 332.625812 146.147352 
C 332.119489 146.653675 331.835 147.340492 331.835 148.056541 
C 331.835 148.772589 332.119489 149.459406 332.625812 149.965729 
C 333.132134 150.472052 333.818952 150.756541 334.535 150.756541 
z
" clip-path="url(#pb5d58f16c7)" style="fill: #ffffff; stroke: #000000; stroke-width: 2; stroke-linejoin: miter"/>
   </g>
   <g id="text_7">
    <!-- Vin- -->
    <g transform="translate(340.835 151.505759) scale(0.125 -0.125)">
     <defs>
      <path id="DejaVuSans-2d" d="M 313 2009 
L 1997 2009 
L 1997 1497 
L 313 1497 
L 313 2009 
z
" transform="scale(0.015625)"/>
     </defs>
     <use xlink:href="#DejaVuSans-56"/>
     <use xlink:href="#DejaVuSans-69" x="66.158203"/>
     <use xlink:href="#DejaVuSans-6e" x="93.941406"/>
     <use xlink:href="#DejaVuSans-2d" x="157.320312"/>
    </g>
   </g>
  </g>
 </g>
 <defs>
  <clipPath id="pb5d58f16c7">
   <rect x="32.819" y="10.453712" width="318.912" height="194.566773"/>
  </clipPath>
 </defs>
</svg>