<?xml version="1.0" encoding="utf-8" standalone="no"?>
<!DOCTYPE svg PUBLIC "-//W3C//DTD SVG 1.1//EN"
  "http://www.w3.org/Graphics/SVG/1.1/DTD/svg11.dtd">
<!-- Created with matplotlib (https://matplotlib.org/) -->
<svg height="244.903375pt" version="1.1" viewBox="0 0 364.418058 244.903375" width="364.418058pt" xmlns="http://www.w3.org/2000/svg" xmlns:xlink="http://www.w3.org/1999/xlink">
 <metadata>
  <rdf:RDF xmlns:cc="http://creativecommons.org/ns#" xmlns:dc="http://purl.org/dc/elements/1.1/" xmlns:rdf="http://www.w3.org/1999/02/22-rdf-syntax-ns#">
   <cc:Work>
    <dc:type rdf:resource="http://purl.org/dc/dcmitype/StillImage"/>
    <dc:date>2020-10-26T01:08:47.066389</dc:date>
    <dc:format>image/svg+xml</dc:format>
    <dc:creator>
     <cc:Agent>
      <dc:title>Matplotlib v3.3.2, https://matplotlib.org/</dc:title>
     </cc:Agent>
    </dc:creator>
   </cc:Work>
  </rdf:RDF>
 </metadata>
 <defs>
  <style type="text/css">*{stroke-linecap:butt;stroke-linejoin:round;}</style>
 </defs>
 <g id="figure_1">
  <g id="patch_1">
   <path d="M 0 244.903375 
L 364.418058 244.903375 
L 364.418058 0 
L 0 0 
z
" style="fill:none;"/>
  </g>
  <g id="axes_1">
   <g id="line2d_1">
    <path clip-path="url(#p9f2cfbf14e)" d="M 206.1 96.484375 
L 206.1 134.734375 
L 276.248058 96.484375 
L 206.1 58.234375 
L 206.1 96.484375 
M 276.248058 96.484375 
" style="fill:none;stroke:#000000;stroke-linecap:round;stroke-width:2;"/>
   </g>
   <g id="line2d_2">
    <path clip-path="url(#p9f2cfbf14e)" d="M 211.628507 115.609375 
L 218.108507 115.609375 
" style="fill:none;stroke:#000000;stroke-linecap:round;stroke-width:2;"/>
   </g>
   <g id="line2d_3">
    <path clip-path="url(#p9f2cfbf14e)" d="M 211.628507 77.359375 
L 218.108507 77.359375 
" style="fill:none;stroke:#000000;stroke-linecap:round;stroke-width:2;"/>
   </g>
   <g id="line2d_4">
    <path clip-path="url(#p9f2cfbf14e)" d="M 214.868507 74.299375 
L 214.868507 80.419375 
" style="fill:none;stroke:#000000;stroke-linecap:round;stroke-width:2;"/>
   </g>
   <g id="line2d_5">
    <path clip-path="url(#p9f2cfbf14e)" d="M 206.1 77.359375 
L 177.75 77.359375 
L 149.4 77.359375 
" style="fill:none;stroke:#000000;stroke-linecap:round;stroke-width:2;"/>
   </g>
   <g id="line2d_6">
    <path clip-path="url(#p9f2cfbf14e)" d="M 149.4 77.359375 
L 133.2 77.359375 
L 130.5 85.009375 
L 125.1 69.709375 
L 119.7 85.009375 
L 114.3 69.709375 
L 108.9 85.009375 
L 103.5 69.709375 
L 100.8 77.359375 
L 84.6 77.359375 
" style="fill:none;stroke:#000000;stroke-linecap:round;stroke-width:2;"/>
   </g>
   <g id="line2d_7">
    <path clip-path="url(#p9f2cfbf14e)" d="M 84.6 77.359375 
L 68.4 77.359375 
L 65.7 85.009375 
L 60.3 69.709375 
L 54.9 85.009375 
L 49.5 69.709375 
L 44.1 85.009375 
L 38.7 69.709375 
L 36 77.359375 
L 19.8 77.359375 
" style="fill:none;stroke:#000000;stroke-linecap:round;stroke-width:2;"/>
   </g>
   <g id="line2d_8">
    <path clip-path="url(#p9f2cfbf14e)" d="M 149.4 77.359375 
L 149.4 105.205375 
M 157.5 105.205375 
L 141.3 105.205375 
M 157.5 110.713375 
L 141.3 110.713375 
M 149.4 110.713375 
L 149.4 138.559375 
" style="fill:none;stroke:#000000;stroke-linecap:round;stroke-width:2;"/>
   </g>
   <g id="line2d_9">
    <path clip-path="url(#p9f2cfbf14e)" d="M 149.4 138.559375 
L 149.4 150.799375 
L 141.3 150.799375 
L 157.5 150.799375 
M 143.73 154.471375 
L 155.07 154.471375 
M 147.78 158.143375 
L 151.02 158.143375 
" style="fill:none;stroke:#000000;stroke-linecap:round;stroke-width:2;"/>
   </g>
   <g id="line2d_10">
    <path clip-path="url(#p9f2cfbf14e)" d="M 84.6 77.359375 
L 84.6 54.409375 
L 84.6 31.459375 
" style="fill:none;stroke:#000000;stroke-linecap:round;stroke-width:2;"/>
   </g>
   <g id="line2d_11">
    <path clip-path="url(#p9f2cfbf14e)" d="M 84.6 31.459375 
L 193.708029 31.459375 
M 193.708029 23.809375 
L 193.708029 39.109375 
M 199.540029 23.809375 
L 199.540029 39.109375 
M 199.540029 31.459375 
L 308.648058 31.459375 
" style="fill:none;stroke:#000000;stroke-linecap:round;stroke-width:2;"/>
   </g>
   <g id="line2d_12">
    <path clip-path="url(#p9f2cfbf14e)" d="M 308.648058 31.459375 
L 308.648058 63.971875 
L 308.648058 96.484375 
" style="fill:none;stroke:#000000;stroke-linecap:round;stroke-width:2;"/>
   </g>
   <g id="line2d_13">
    <path clip-path="url(#p9f2cfbf14e)" d="M 206.1 115.609375 
L 198 115.609375 
L 189.9 115.609375 
" style="fill:none;stroke:#000000;stroke-linecap:round;stroke-width:2;"/>
   </g>
   <g id="line2d_14">
    <path clip-path="url(#p9f2cfbf14e)" d="M 189.9 115.609375 
L 189.9 134.734375 
L 189.9 153.859375 
" style="fill:none;stroke:#000000;stroke-linecap:round;stroke-width:2;"/>
   </g>
   <g id="line2d_15">
    <path clip-path="url(#p9f2cfbf14e)" d="M 189.9 153.859375 
L 189.9 169.159375 
L 198 171.709375 
L 181.8 176.809375 
L 198 181.909375 
L 181.8 187.009375 
L 198 192.109375 
L 181.8 197.209375 
L 189.9 199.759375 
L 189.9 215.059375 
" style="fill:none;stroke:#000000;stroke-linecap:round;stroke-width:2;"/>
   </g>
   <g id="line2d_16">
    <path clip-path="url(#p9f2cfbf14e)" d="M 189.9 215.059375 
L 189.9 227.299375 
L 181.8 227.299375 
L 198 227.299375 
M 184.23 230.971375 
L 195.57 230.971375 
M 188.28 234.643375 
L 191.52 234.643375 
" style="fill:none;stroke:#000000;stroke-linecap:round;stroke-width:2;"/>
   </g>
   <g id="line2d_17">
    <path clip-path="url(#p9f2cfbf14e)" d="M 189.9 153.859375 
L 224.974029 153.859375 
L 227.674029 146.209375 
L 233.074029 161.509375 
L 238.474029 146.209375 
L 243.874029 161.509375 
L 249.274029 146.209375 
L 254.674029 161.509375 
L 257.374029 153.859375 
L 292.448058 153.859375 
" style="fill:none;stroke:#000000;stroke-linecap:round;stroke-width:2;"/>
   </g>
   <g id="line2d_18">
    <path clip-path="url(#p9f2cfbf14e)" d="M 292.448058 153.859375 
L 292.448058 125.171875 
L 292.448058 96.484375 
" style="fill:none;stroke:#000000;stroke-linecap:round;stroke-width:2;"/>
   </g>
   <g id="line2d_19">
    <path clip-path="url(#p9f2cfbf14e)" d="M 276.248058 96.484375 
L 308.648058 96.484375 
L 341.048058 96.484375 
" style="fill:none;stroke:#000000;stroke-linecap:round;stroke-width:2;"/>
   </g>
   <g id="text_1">
    <!-- R -->
    <g transform="translate(112.136094 63.737812)scale(0.14 -0.14)">
     <defs>
      <path d="M 44.390625 34.1875 
Q 47.5625 33.109375 50.5625 29.59375 
Q 53.5625 26.078125 56.59375 19.921875 
L 66.609375 0 
L 56 0 
L 46.6875 18.703125 
Q 43.0625 26.03125 39.671875 28.421875 
Q 36.28125 30.8125 30.421875 30.8125 
L 19.671875 30.8125 
L 19.671875 0 
L 9.8125 0 
L 9.8125 72.90625 
L 32.078125 72.90625 
Q 44.578125 72.90625 50.734375 67.671875 
Q 56.890625 62.453125 56.890625 51.90625 
Q 56.890625 45.015625 53.6875 40.46875 
Q 50.484375 35.9375 44.390625 34.1875 
z
M 19.671875 64.796875 
L 19.671875 38.921875 
L 32.078125 38.921875 
Q 39.203125 38.921875 42.84375 42.21875 
Q 46.484375 45.515625 46.484375 51.90625 
Q 46.484375 58.296875 42.84375 61.546875 
Q 39.203125 64.796875 32.078125 64.796875 
z
" id="DejaVuSans-82"/>
     </defs>
     <use xlink:href="#DejaVuSans-82"/>
    </g>
   </g>
   <g id="text_2">
    <!-- R -->
    <g transform="translate(47.336094 63.737812)scale(0.14 -0.14)">
     <use xlink:href="#DejaVuSans-82"/>
    </g>
   </g>
   <g id="text_3">
    <!-- C -->
    <g transform="translate(128.284062 111.8225)scale(0.14 -0.14)">
     <defs>
      <path d="M 64.40625 67.28125 
L 64.40625 56.890625 
Q 59.421875 61.53125 53.78125 63.8125 
Q 48.140625 66.109375 41.796875 66.109375 
Q 29.296875 66.109375 22.65625 58.46875 
Q 16.015625 50.828125 16.015625 36.375 
Q 16.015625 21.96875 22.65625 14.328125 
Q 29.296875 6.6875 41.796875 6.6875 
Q 48.140625 6.6875 53.78125 8.984375 
Q 59.421875 11.28125 64.40625 15.921875 
L 64.40625 5.609375 
Q 59.234375 2.09375 53.4375 0.328125 
Q 47.65625 -1.421875 41.21875 -1.421875 
Q 24.65625 -1.421875 15.125 8.703125 
Q 5.609375 18.84375 5.609375 36.375 
Q 5.609375 53.953125 15.125 64.078125 
Q 24.65625 74.21875 41.21875 74.21875 
Q 47.75 74.21875 53.53125 72.484375 
Q 59.328125 70.75 64.40625 67.28125 
z
" id="DejaVuSans-67"/>
     </defs>
     <use xlink:href="#DejaVuSans-67"/>
    </g>
   </g>
   <g id="text_4">
    <!-- C -->
    <g transform="translate(191.73606 17.837812)scale(0.14 -0.14)">
     <use xlink:href="#DejaVuSans-67"/>
    </g>
   </g>
   <g id="text_5">
    <!-- R1 -->
    <g transform="translate(159.924687 188.3225)scale(0.14 -0.14)">
     <defs>
      <path d="M 12.40625 8.296875 
L 28.515625 8.296875 
L 28.515625 63.921875 
L 10.984375 60.40625 
L 10.984375 69.390625 
L 28.421875 72.90625 
L 38.28125 72.90625 
L 38.28125 8.296875 
L 54.390625 8.296875 
L 54.390625 0 
L 12.40625 0 
z
" id="DejaVuSans-49"/>
     </defs>
     <use xlink:href="#DejaVuSans-82"/>
     <use x="69.482422" xlink:href="#DejaVuSans-49"/>
    </g>
   </g>
   <g id="text_6">
    <!-- R2 -->
    <g transform="translate(231.856373 140.237812)scale(0.14 -0.14)">
     <defs>
      <path d="M 19.1875 8.296875 
L 53.609375 8.296875 
L 53.609375 0 
L 7.328125 0 
L 7.328125 8.296875 
Q 12.9375 14.109375 22.625 23.890625 
Q 32.328125 33.6875 34.8125 36.53125 
Q 39.546875 41.84375 41.421875 45.53125 
Q 43.3125 49.21875 43.3125 52.78125 
Q 43.3125 58.59375 39.234375 62.25 
Q 35.15625 65.921875 28.609375 65.921875 
Q 23.96875 65.921875 18.8125 64.3125 
Q 13.671875 62.703125 7.8125 59.421875 
L 7.8125 69.390625 
Q 13.765625 71.78125 18.9375 73 
Q 24.125 74.21875 28.421875 74.21875 
Q 39.75 74.21875 46.484375 68.546875 
Q 53.21875 62.890625 53.21875 53.421875 
Q 53.21875 48.921875 51.53125 44.890625 
Q 49.859375 40.875 45.40625 35.40625 
Q 44.1875 33.984375 37.640625 27.21875 
Q 31.109375 20.453125 19.1875 8.296875 
z
" id="DejaVuSans-50"/>
     </defs>
     <use xlink:href="#DejaVuSans-82"/>
     <use x="69.482422" xlink:href="#DejaVuSans-50"/>
    </g>
   </g>
   <g id="patch_2">
    <path clip-path="url(#p9f2cfbf14e)" d="M 19.8 79.654375 
C 20.444444 79.654375 21.062579 79.412559 21.518269 78.982185 
C 21.97396 78.551811 22.23 77.968016 22.23 77.359375 
C 22.23 76.750734 21.97396 76.166939 21.518269 75.736565 
C 21.062579 75.306191 20.444444 75.064375 19.8 75.064375 
C 19.155556 75.064375 18.537421 75.306191 18.081731 75.736565 
C 17.62604 76.166939 17.37 76.750734 17.37 77.359375 
C 17.37 77.968016 17.62604 78.551811 18.081731 78.982185 
C 18.537421 79.412559 19.155556 79.654375 19.8 79.654375 
z
" style="fill:#ffffff;stroke:#000000;stroke-linejoin:miter;stroke-width:2;"/>
   </g>
   <g id="patch_3">
    <path clip-path="url(#p9f2cfbf14e)" d="M 149.4 79.654375 
C 150.044444 79.654375 150.662579 79.412559 151.118269 78.982185 
C 151.57396 78.551811 151.83 77.968016 151.83 77.359375 
C 151.83 76.750734 151.57396 76.166939 151.118269 75.736565 
C 150.662579 75.306191 150.044444 75.064375 149.4 75.064375 
C 148.755556 75.064375 148.137421 75.306191 147.681731 75.736565 
C 147.22604 76.166939 146.97 76.750734 146.97 77.359375 
C 146.97 77.968016 147.22604 78.551811 147.681731 78.982185 
C 148.137421 79.412559 148.755556 79.654375 149.4 79.654375 
z
" style="stroke:#000000;stroke-linejoin:miter;stroke-width:2;"/>
   </g>
   <g id="patch_4">
    <path clip-path="url(#p9f2cfbf14e)" d="M 84.6 79.654375 
C 85.244444 79.654375 85.862579 79.412559 86.318269 78.982185 
C 86.77396 78.551811 87.03 77.968016 87.03 77.359375 
C 87.03 76.750734 86.77396 76.166939 86.318269 75.736565 
C 85.862579 75.306191 85.244444 75.064375 84.6 75.064375 
C 83.955556 75.064375 83.337421 75.306191 82.881731 75.736565 
C 82.42604 76.166939 82.17 76.750734 82.17 77.359375 
C 82.17 77.968016 82.42604 78.551811 82.881731 78.982185 
C 83.337421 79.412559 83.955556 79.654375 84.6 79.654375 
z
" style="stroke:#000000;stroke-linejoin:miter;stroke-width:2;"/>
   </g>
   <g id="patch_5">
    <path clip-path="url(#p9f2cfbf14e)" d="M 308.648058 98.779375 
C 309.292501 98.779375 309.910637 98.537559 310.366327 98.107185 
C 310.822018 97.676811 311.078058 97.093016 311.078058 96.484375 
C 311.078058 95.875734 310.822018 95.291939 310.366327 94.861565 
C 309.910637 94.431191 309.292501 94.189375 308.648058 94.189375 
C 308.003614 94.189375 307.385479 94.431191 306.929788 94.861565 
C 306.474098 95.291939 306.218058 95.875734 306.218058 96.484375 
C 306.218058 97.093016 306.474098 97.676811 306.929788 98.107185 
C 307.385479 98.537559 308.003614 98.779375 308.648058 98.779375 
z
" style="stroke:#000000;stroke-linejoin:miter;stroke-width:2;"/>
   </g>
   <g id="patch_6">
    <path clip-path="url(#p9f2cfbf14e)" d="M 189.9 156.154375 
C 190.544444 156.154375 191.162579 155.912559 191.618269 155.482185 
C 192.07396 155.051811 192.33 154.468016 192.33 153.859375 
C 192.33 153.250734 192.07396 152.666939 191.618269 152.236565 
C 191.162579 151.806191 190.544444 151.564375 189.9 151.564375 
C 189.255556 151.564375 188.637421 151.806191 188.181731 152.236565 
C 187.72604 152.666939 187.47 153.250734 187.47 153.859375 
C 187.47 154.468016 187.72604 155.051811 188.181731 155.482185 
C 188.637421 155.912559 189.255556 156.154375 189.9 156.154375 
z
" style="stroke:#000000;stroke-linejoin:miter;stroke-width:2;"/>
   </g>
   <g id="patch_7">
    <path clip-path="url(#p9f2cfbf14e)" d="M 292.448058 98.779375 
C 293.092501 98.779375 293.710637 98.537559 294.166327 98.107185 
C 294.622018 97.676811 294.878058 97.093016 294.878058 96.484375 
C 294.878058 95.875734 294.622018 95.291939 294.166327 94.861565 
C 293.710637 94.431191 293.092501 94.189375 292.448058 94.189375 
C 291.803614 94.189375 291.185479 94.431191 290.729788 94.861565 
C 290.274098 95.291939 290.018058 95.875734 290.018058 96.484375 
C 290.018058 97.093016 290.274098 97.676811 290.729788 98.107185 
C 291.185479 98.537559 291.803614 98.779375 292.448058 98.779375 
z
" style="stroke:#000000;stroke-linejoin:miter;stroke-width:2;"/>
   </g>
   <g id="patch_8">
    <path clip-path="url(#p9f2cfbf14e)" d="M 341.048058 98.779375 
C 341.692501 98.779375 342.310637 98.537559 342.766327 98.107185 
C 343.222018 97.676811 343.478058 97.093016 343.478058 96.484375 
C 343.478058 95.875734 343.222018 95.291939 342.766327 94.861565 
C 342.310637 94.431191 341.692501 94.189375 341.048058 94.189375 
C 340.403614 94.189375 339.785479 94.431191 339.329788 94.861565 
C 338.874098 95.291939 338.618058 95.875734 338.618058 96.484375 
C 338.618058 97.093016 338.874098 97.676811 339.329788 98.107185 
C 339.785479 98.537559 340.403614 98.779375 341.048058 98.779375 
z
" style="fill:#ffffff;stroke:#000000;stroke-linejoin:miter;stroke-width:2;"/>
   </g>
   <g id="text_7">
    <!-- $V_{1 in}$ -->
    <g transform="translate(7.2 69.092812)scale(0.14 -0.14)">
     <defs>
      <path d="M 20.609375 0 
L 7.8125 72.90625 
L 17.484375 72.90625 
L 28.078125 10.203125 
L 63.484375 72.90625 
L 74.21875 72.90625 
L 32.078125 0 
z
" id="DejaVuSans-Oblique-86"/>
      <path d="M 18.3125 75.984375 
L 27.296875 75.984375 
L 25.09375 64.59375 
L 16.109375 64.59375 
z
M 14.203125 54.6875 
L 23.1875 54.6875 
L 12.5 0 
L 3.515625 0 
z
" id="DejaVuSans-Oblique-105"/>
      <path d="M 55.71875 33.015625 
L 49.3125 0 
L 40.28125 0 
L 46.6875 32.671875 
Q 47.125 34.96875 47.359375 36.71875 
Q 47.609375 38.484375 47.609375 39.5 
Q 47.609375 43.609375 45.015625 45.890625 
Q 42.4375 48.1875 37.796875 48.1875 
Q 30.5625 48.1875 25.34375 43.375 
Q 20.125 38.578125 18.5 30.328125 
L 12.5 0 
L 3.515625 0 
L 14.109375 54.6875 
L 23.09375 54.6875 
L 21.296875 46.09375 
Q 25.046875 50.828125 30.3125 53.40625 
Q 35.59375 56 41.40625 56 
Q 48.640625 56 52.609375 52.09375 
Q 56.59375 48.1875 56.59375 41.109375 
Q 56.59375 39.359375 56.375 37.359375 
Q 56.15625 35.359375 55.71875 33.015625 
z
" id="DejaVuSans-Oblique-110"/>
     </defs>
     <use transform="translate(0 0.09375)" xlink:href="#DejaVuSans-Oblique-86"/>
     <use transform="translate(68.408203 -16.3125)scale(0.7)" xlink:href="#DejaVuSans-49"/>
     <use transform="translate(112.944336 -16.3125)scale(0.7)" xlink:href="#DejaVuSans-Oblique-105"/>
     <use transform="translate(132.392578 -16.3125)scale(0.7)" xlink:href="#DejaVuSans-Oblique-110"/>
    </g>
   </g>
   <g id="text_8">
    <!-- $V_{1 out}$ -->
    <g transform="translate(324.878058 88.217813)scale(0.14 -0.14)">
     <defs>
      <path d="M 25.390625 -1.421875 
Q 15.765625 -1.421875 10.171875 4.515625 
Q 4.59375 10.453125 4.59375 20.703125 
Q 4.59375 26.65625 6.515625 32.828125 
Q 8.453125 39.015625 11.53125 43.21875 
Q 16.359375 49.75 22.3125 52.875 
Q 28.265625 56 35.796875 56 
Q 45.125 56 50.859375 50.1875 
Q 56.59375 44.390625 56.59375 35.015625 
Q 56.59375 28.515625 54.6875 22.0625 
Q 52.78125 15.625 49.703125 11.375 
Q 44.921875 4.828125 38.96875 1.703125 
Q 33.015625 -1.421875 25.390625 -1.421875 
z
M 13.921875 21 
Q 13.921875 13.578125 17.015625 9.890625 
Q 20.125 6.203125 26.421875 6.203125 
Q 35.453125 6.203125 41.375 14.078125 
Q 47.3125 21.96875 47.3125 34.078125 
Q 47.3125 41.15625 44.140625 44.765625 
Q 40.96875 48.390625 34.8125 48.390625 
Q 29.734375 48.390625 25.78125 46.015625 
Q 21.828125 43.65625 18.703125 38.8125 
Q 16.40625 35.203125 15.15625 30.5625 
Q 13.921875 25.921875 13.921875 21 
z
" id="DejaVuSans-Oblique-111"/>
      <path d="M 6.6875 21.6875 
L 13.09375 54.6875 
L 22.125 54.6875 
L 15.71875 22.015625 
Q 15.234375 19.625 15.015625 17.921875 
Q 14.796875 16.21875 14.796875 15.09375 
Q 14.796875 10.9375 17.328125 8.65625 
Q 19.875 6.390625 24.515625 6.390625 
Q 31.734375 6.390625 37 11.265625 
Q 42.28125 16.15625 43.890625 24.421875 
L 49.90625 54.6875 
L 58.890625 54.6875 
L 48.296875 0 
L 39.3125 0 
L 41.109375 8.59375 
Q 37.3125 3.8125 32.0625 1.1875 
Q 26.8125 -1.421875 20.90625 -1.421875 
Q 13.71875 -1.421875 9.71875 2.515625 
Q 5.71875 6.453125 5.71875 13.484375 
Q 5.71875 14.9375 5.953125 17.140625 
Q 6.203125 19.34375 6.6875 21.6875 
z
" id="DejaVuSans-Oblique-117"/>
      <path d="M 42.28125 54.6875 
L 40.921875 47.703125 
L 23 47.703125 
L 17.1875 18.015625 
Q 16.890625 16.359375 16.75 15.234375 
Q 16.609375 14.109375 16.609375 13.484375 
Q 16.609375 10.359375 18.484375 8.9375 
Q 20.359375 7.515625 24.515625 7.515625 
L 33.59375 7.515625 
L 32.078125 0 
L 23.484375 0 
Q 15.484375 0 11.546875 3.125 
Q 7.625 6.25 7.625 12.59375 
Q 7.625 13.71875 7.765625 15.0625 
Q 7.90625 16.40625 8.203125 18.015625 
L 14.015625 47.703125 
L 6.390625 47.703125 
L 7.8125 54.6875 
L 15.28125 54.6875 
L 18.3125 70.21875 
L 27.296875 70.21875 
L 24.3125 54.6875 
z
" id="DejaVuSans-Oblique-116"/>
     </defs>
     <use transform="translate(0 0.09375)" xlink:href="#DejaVuSans-Oblique-86"/>
     <use transform="translate(68.408203 -16.3125)scale(0.7)" xlink:href="#DejaVuSans-49"/>
     <use transform="translate(112.944336 -16.3125)scale(0.7)" xlink:href="#DejaVuSans-Oblique-111"/>
     <use transform="translate(155.771484 -16.3125)scale(0.7)" xlink:href="#DejaVuSans-Oblique-117"/>
     <use transform="translate(200.136719 -16.3125)scale(0.7)" xlink:href="#DejaVuSans-Oblique-116"/>
    </g>
   </g>
  </g>
 </g>
 <defs>
  <clipPath id="p9f2cfbf14e">
   <rect height="216.954" width="332.588058" x="14.13" y="20.749375"/>
  </clipPath>
 </defs>
</svg>
