<?xml version="1.0" encoding="utf-8" standalone="no"?>
<!DOCTYPE svg PUBLIC "-//W3C//DTD SVG 1.1//EN"
  "http://www.w3.org/Graphics/SVG/1.1/DTD/svg11.dtd">
<!-- Created with matplotlib (https://matplotlib.org/) -->
<svg height="163.813375pt" version="1.1" viewBox="0 0 278.528058 163.813375" width="278.528058pt" xmlns="http://www.w3.org/2000/svg" xmlns:xlink="http://www.w3.org/1999/xlink">
 <metadata>
  <rdf:RDF xmlns:cc="http://creativecommons.org/ns#" xmlns:dc="http://purl.org/dc/elements/1.1/" xmlns:rdf="http://www.w3.org/1999/02/22-rdf-syntax-ns#">
   <cc:Work>
    <dc:type rdf:resource="http://purl.org/dc/dcmitype/StillImage"/>
    <dc:date>2020-10-26T23:42:57.363416</dc:date>
    <dc:format>image/svg+xml</dc:format>
    <dc:creator>
     <cc:Agent>
      <dc:title>Matplotlib v3.3.2, https://matplotlib.org/</dc:title>
     </cc:Agent>
    </dc:creator>
   </cc:Work>
  </rdf:RDF>
 </metadata>
 <defs>
  <style type="text/css">*{stroke-linecap:butt;stroke-linejoin:round;}</style>
 </defs>
 <g id="figure_1">
  <g id="patch_1">
   <path d="M 0 163.813375 
L 278.528058 163.813375 
L 278.528058 0 
L 0 0 
z
" style="fill:none;"/>
  </g>
  <g id="axes_1">
   <g id="line2d_1">
    <path clip-path="url(#pfbf5c54330)" d="M 145.17 96.484375 
L 145.17 58.234375 
L 215.318058 96.484375 
L 145.17 134.734375 
L 145.17 96.484375 
M 215.318058 96.484375 
" style="fill:none;stroke:#000000;stroke-linecap:round;stroke-width:2;"/>
   </g>
   <g id="line2d_2">
    <path clip-path="url(#pfbf5c54330)" d="M 150.698507 77.359375 
L 157.178507 77.359375 
" style="fill:none;stroke:#000000;stroke-linecap:round;stroke-width:2;"/>
   </g>
   <g id="line2d_3">
    <path clip-path="url(#pfbf5c54330)" d="M 150.698507 115.609375 
L 157.178507 115.609375 
" style="fill:none;stroke:#000000;stroke-linecap:round;stroke-width:2;"/>
   </g>
   <g id="line2d_4">
    <path clip-path="url(#pfbf5c54330)" d="M 153.938507 118.669375 
L 153.938507 112.549375 
" style="fill:none;stroke:#000000;stroke-linecap:round;stroke-width:2;"/>
   </g>
   <g id="line2d_5">
    <path clip-path="url(#pfbf5c54330)" d="M 145.17 115.609375 
L 133.02 115.609375 
L 120.87 115.609375 
" style="fill:none;stroke:#000000;stroke-linecap:round;stroke-width:2;"/>
   </g>
   <g id="line2d_6">
    <path clip-path="url(#pfbf5c54330)" d="M 120.87 115.609375 
L 120.87 124.789375 
L 120.87 133.969375 
" style="fill:none;stroke:#000000;stroke-linecap:round;stroke-width:2;"/>
   </g>
   <g id="line2d_7">
    <path clip-path="url(#pfbf5c54330)" d="M 120.87 133.969375 
L 120.87 146.209375 
L 112.77 146.209375 
L 128.97 146.209375 
M 115.2 149.881375 
L 126.54 149.881375 
M 119.25 153.553375 
L 122.49 153.553375 
" style="fill:none;stroke:#000000;stroke-linecap:round;stroke-width:2;"/>
   </g>
   <g id="line2d_8">
    <path clip-path="url(#pfbf5c54330)" d="M 145.17 77.359375 
L 137.07 77.359375 
L 128.97 77.359375 
" style="fill:none;stroke:#000000;stroke-linecap:round;stroke-width:2;"/>
   </g>
   <g id="line2d_9">
    <path clip-path="url(#pfbf5c54330)" d="M 128.97 77.359375 
L 96.57 77.359375 
L 96.57 85.009375 
L 64.17 85.009375 
L 64.17 69.709375 
L 96.57 69.709375 
L 96.57 77.359375 
M 64.17 77.359375 
L 31.77 77.359375 
" style="fill:none;stroke:#000000;stroke-linecap:round;stroke-width:2;"/>
   </g>
   <g id="line2d_10">
    <path clip-path="url(#pfbf5c54330)" d="M 128.97 77.359375 
L 128.97 54.409375 
L 128.97 31.459375 
" style="fill:none;stroke:#000000;stroke-linecap:round;stroke-width:2;"/>
   </g>
   <g id="line2d_11">
    <path clip-path="url(#pfbf5c54330)" d="M 128.97 31.459375 
L 161.37 31.459375 
L 161.37 23.809375 
L 193.77 23.809375 
L 193.77 39.109375 
L 161.37 39.109375 
L 161.37 31.459375 
M 193.77 31.459375 
L 226.17 31.459375 
" style="fill:none;stroke:#000000;stroke-linecap:round;stroke-width:2;"/>
   </g>
   <g id="line2d_12">
    <path clip-path="url(#pfbf5c54330)" d="M 226.17 31.459375 
L 226.17 63.971875 
L 226.17 96.484375 
" style="fill:none;stroke:#000000;stroke-linecap:round;stroke-width:2;"/>
   </g>
   <g id="line2d_13">
    <path clip-path="url(#pfbf5c54330)" d="M 226.17 96.484375 
L 220.744029 96.484375 
L 215.318058 96.484375 
" style="fill:none;stroke:#000000;stroke-linecap:round;stroke-width:2;"/>
   </g>
   <g id="line2d_14">
    <path clip-path="url(#pfbf5c54330)" d="M 215.318058 96.484375 
L 227.468058 96.484375 
L 239.618058 96.484375 
" style="fill:none;stroke:#000000;stroke-linecap:round;stroke-width:2;"/>
   </g>
   <g id="text_1">
    <!-- $Z_1$ -->
    <g transform="translate(72.25 63.737812)scale(0.14 -0.14)">
     <defs>
      <path d="M 13.09375 72.90625 
L 70.3125 72.90625 
L 68.890625 65.375 
L 12.40625 8.296875 
L 58.890625 8.296875 
L 57.328125 0 
L -2.203125 0 
L -0.78125 7.515625 
L 55.71875 64.59375 
L 11.53125 64.59375 
z
" id="DejaVuSans-Oblique-90"/>
      <path d="M 12.40625 8.296875 
L 28.515625 8.296875 
L 28.515625 63.921875 
L 10.984375 60.40625 
L 10.984375 69.390625 
L 28.421875 72.90625 
L 38.28125 72.90625 
L 38.28125 8.296875 
L 54.390625 8.296875 
L 54.390625 0 
L 12.40625 0 
z
" id="DejaVuSans-49"/>
     </defs>
     <use transform="translate(0 0.09375)" xlink:href="#DejaVuSans-Oblique-90"/>
     <use transform="translate(68.505859 -16.3125)scale(0.7)" xlink:href="#DejaVuSans-49"/>
    </g>
   </g>
   <g id="text_2">
    <!-- $Z_2$ -->
    <g transform="translate(169.45 17.837812)scale(0.14 -0.14)">
     <defs>
      <path d="M 19.1875 8.296875 
L 53.609375 8.296875 
L 53.609375 0 
L 7.328125 0 
L 7.328125 8.296875 
Q 12.9375 14.109375 22.625 23.890625 
Q 32.328125 33.6875 34.8125 36.53125 
Q 39.546875 41.84375 41.421875 45.53125 
Q 43.3125 49.21875 43.3125 52.78125 
Q 43.3125 58.59375 39.234375 62.25 
Q 35.15625 65.921875 28.609375 65.921875 
Q 23.96875 65.921875 18.8125 64.3125 
Q 13.671875 62.703125 7.8125 59.421875 
L 7.8125 69.390625 
Q 13.765625 71.78125 18.9375 73 
Q 24.125 74.21875 28.421875 74.21875 
Q 39.75 74.21875 46.484375 68.546875 
Q 53.21875 62.890625 53.21875 53.421875 
Q 53.21875 48.921875 51.53125 44.890625 
Q 49.859375 40.875 45.40625 35.40625 
Q 44.1875 33.984375 37.640625 27.21875 
Q 31.109375 20.453125 19.1875 8.296875 
z
" id="DejaVuSans-50"/>
     </defs>
     <use transform="translate(0 0.09375)" xlink:href="#DejaVuSans-Oblique-90"/>
     <use transform="translate(68.505859 -16.3125)scale(0.7)" xlink:href="#DejaVuSans-50"/>
    </g>
   </g>
   <g id="patch_2">
    <path clip-path="url(#pfbf5c54330)" d="M 128.97 79.654375 
C 129.614444 79.654375 130.232579 79.412559 130.688269 78.982185 
C 131.14396 78.551811 131.4 77.968016 131.4 77.359375 
C 131.4 76.750734 131.14396 76.166939 130.688269 75.736565 
C 130.232579 75.306191 129.614444 75.064375 128.97 75.064375 
C 128.325556 75.064375 127.707421 75.306191 127.251731 75.736565 
C 126.79604 76.166939 126.54 76.750734 126.54 77.359375 
C 126.54 77.968016 126.79604 78.551811 127.251731 78.982185 
C 127.707421 79.412559 128.325556 79.654375 128.97 79.654375 
z
" style="stroke:#000000;stroke-linejoin:miter;stroke-width:2;"/>
   </g>
   <g id="patch_3">
    <path clip-path="url(#pfbf5c54330)" d="M 31.77 79.654375 
C 32.414444 79.654375 33.032579 79.412559 33.488269 78.982185 
C 33.94396 78.551811 34.2 77.968016 34.2 77.359375 
C 34.2 76.750734 33.94396 76.166939 33.488269 75.736565 
C 33.032579 75.306191 32.414444 75.064375 31.77 75.064375 
C 31.125556 75.064375 30.507421 75.306191 30.051731 75.736565 
C 29.59604 76.166939 29.34 76.750734 29.34 77.359375 
C 29.34 77.968016 29.59604 78.551811 30.051731 78.982185 
C 30.507421 79.412559 31.125556 79.654375 31.77 79.654375 
z
" style="fill:#ffffff;stroke:#000000;stroke-linejoin:miter;stroke-width:2;"/>
   </g>
   <g id="patch_4">
    <path clip-path="url(#pfbf5c54330)" d="M 226.17 98.779375 
C 226.814444 98.779375 227.432579 98.537559 227.888269 98.107185 
C 228.34396 97.676811 228.6 97.093016 228.6 96.484375 
C 228.6 95.875734 228.34396 95.291939 227.888269 94.861565 
C 227.432579 94.431191 226.814444 94.189375 226.17 94.189375 
C 225.525556 94.189375 224.907421 94.431191 224.451731 94.861565 
C 223.99604 95.291939 223.74 95.875734 223.74 96.484375 
C 223.74 97.093016 223.99604 97.676811 224.451731 98.107185 
C 224.907421 98.537559 225.525556 98.779375 226.17 98.779375 
z
" style="stroke:#000000;stroke-linejoin:miter;stroke-width:2;"/>
   </g>
   <g id="patch_5">
    <path clip-path="url(#pfbf5c54330)" d="M 239.618058 98.779375 
C 240.262501 98.779375 240.880637 98.537559 241.336327 98.107185 
C 241.792018 97.676811 242.048058 97.093016 242.048058 96.484375 
C 242.048058 95.875734 241.792018 95.291939 241.336327 94.861565 
C 240.880637 94.431191 240.262501 94.189375 239.618058 94.189375 
C 238.973614 94.189375 238.355479 94.431191 237.899788 94.861565 
C 237.444098 95.291939 237.188058 95.875734 237.188058 96.484375 
C 237.188058 97.093016 237.444098 97.676811 237.899788 98.107185 
C 238.355479 98.537559 238.973614 98.779375 239.618058 98.779375 
z
" style="fill:#ffffff;stroke:#000000;stroke-linejoin:miter;stroke-width:2;"/>
   </g>
   <g id="text_3">
    <!-- $V_{in}$ -->
    <g transform="translate(7.2 81.2225)scale(0.14 -0.14)">
     <defs>
      <path d="M 20.609375 0 
L 7.8125 72.90625 
L 17.484375 72.90625 
L 28.078125 10.203125 
L 63.484375 72.90625 
L 74.21875 72.90625 
L 32.078125 0 
z
" id="DejaVuSans-Oblique-86"/>
      <path d="M 18.3125 75.984375 
L 27.296875 75.984375 
L 25.09375 64.59375 
L 16.109375 64.59375 
z
M 14.203125 54.6875 
L 23.1875 54.6875 
L 12.5 0 
L 3.515625 0 
z
" id="DejaVuSans-Oblique-105"/>
      <path d="M 55.71875 33.015625 
L 49.3125 0 
L 40.28125 0 
L 46.6875 32.671875 
Q 47.125 34.96875 47.359375 36.71875 
Q 47.609375 38.484375 47.609375 39.5 
Q 47.609375 43.609375 45.015625 45.890625 
Q 42.4375 48.1875 37.796875 48.1875 
Q 30.5625 48.1875 25.34375 43.375 
Q 20.125 38.578125 18.5 30.328125 
L 12.5 0 
L 3.515625 0 
L 14.109375 54.6875 
L 23.09375 54.6875 
L 21.296875 46.09375 
Q 25.046875 50.828125 30.3125 53.40625 
Q 35.59375 56 41.40625 56 
Q 48.640625 56 52.609375 52.09375 
Q 56.59375 48.1875 56.59375 41.109375 
Q 56.59375 39.359375 56.375 37.359375 
Q 56.15625 35.359375 55.71875 33.015625 
z
" id="DejaVuSans-Oblique-110"/>
     </defs>
     <use transform="translate(0 0.09375)" xlink:href="#DejaVuSans-Oblique-86"/>
     <use transform="translate(68.408203 -16.3125)scale(0.7)" xlink:href="#DejaVuSans-Oblique-105"/>
     <use transform="translate(87.856445 -16.3125)scale(0.7)" xlink:href="#DejaVuSans-Oblique-110"/>
    </g>
   </g>
   <g id="text_4">
    <!-- $V_{out}$ -->
    <g transform="translate(245.288058 100.3475)scale(0.14 -0.14)">
     <defs>
      <path d="M 25.390625 -1.421875 
Q 15.765625 -1.421875 10.171875 4.515625 
Q 4.59375 10.453125 4.59375 20.703125 
Q 4.59375 26.65625 6.515625 32.828125 
Q 8.453125 39.015625 11.53125 43.21875 
Q 16.359375 49.75 22.3125 52.875 
Q 28.265625 56 35.796875 56 
Q 45.125 56 50.859375 50.1875 
Q 56.59375 44.390625 56.59375 35.015625 
Q 56.59375 28.515625 54.6875 22.0625 
Q 52.78125 15.625 49.703125 11.375 
Q 44.921875 4.828125 38.96875 1.703125 
Q 33.015625 -1.421875 25.390625 -1.421875 
z
M 13.921875 21 
Q 13.921875 13.578125 17.015625 9.890625 
Q 20.125 6.203125 26.421875 6.203125 
Q 35.453125 6.203125 41.375 14.078125 
Q 47.3125 21.96875 47.3125 34.078125 
Q 47.3125 41.15625 44.140625 44.765625 
Q 40.96875 48.390625 34.8125 48.390625 
Q 29.734375 48.390625 25.78125 46.015625 
Q 21.828125 43.65625 18.703125 38.8125 
Q 16.40625 35.203125 15.15625 30.5625 
Q 13.921875 25.921875 13.921875 21 
z
" id="DejaVuSans-Oblique-111"/>
      <path d="M 6.6875 21.6875 
L 13.09375 54.6875 
L 22.125 54.6875 
L 15.71875 22.015625 
Q 15.234375 19.625 15.015625 17.921875 
Q 14.796875 16.21875 14.796875 15.09375 
Q 14.796875 10.9375 17.328125 8.65625 
Q 19.875 6.390625 24.515625 6.390625 
Q 31.734375 6.390625 37 11.265625 
Q 42.28125 16.15625 43.890625 24.421875 
L 49.90625 54.6875 
L 58.890625 54.6875 
L 48.296875 0 
L 39.3125 0 
L 41.109375 8.59375 
Q 37.3125 3.8125 32.0625 1.1875 
Q 26.8125 -1.421875 20.90625 -1.421875 
Q 13.71875 -1.421875 9.71875 2.515625 
Q 5.71875 6.453125 5.71875 13.484375 
Q 5.71875 14.9375 5.953125 17.140625 
Q 6.203125 19.34375 6.6875 21.6875 
z
" id="DejaVuSans-Oblique-117"/>
      <path d="M 42.28125 54.6875 
L 40.921875 47.703125 
L 23 47.703125 
L 17.1875 18.015625 
Q 16.890625 16.359375 16.75 15.234375 
Q 16.609375 14.109375 16.609375 13.484375 
Q 16.609375 10.359375 18.484375 8.9375 
Q 20.359375 7.515625 24.515625 7.515625 
L 33.59375 7.515625 
L 32.078125 0 
L 23.484375 0 
Q 15.484375 0 11.546875 3.125 
Q 7.625 6.25 7.625 12.59375 
Q 7.625 13.71875 7.765625 15.0625 
Q 7.90625 16.40625 8.203125 18.015625 
L 14.015625 47.703125 
L 6.390625 47.703125 
L 7.8125 54.6875 
L 15.28125 54.6875 
L 18.3125 70.21875 
L 27.296875 70.21875 
L 24.3125 54.6875 
z
" id="DejaVuSans-Oblique-116"/>
     </defs>
     <use transform="translate(0 0.09375)" xlink:href="#DejaVuSans-Oblique-86"/>
     <use transform="translate(68.408203 -16.3125)scale(0.7)" xlink:href="#DejaVuSans-Oblique-111"/>
     <use transform="translate(111.235352 -16.3125)scale(0.7)" xlink:href="#DejaVuSans-Oblique-117"/>
     <use transform="translate(155.600586 -16.3125)scale(0.7)" xlink:href="#DejaVuSans-Oblique-116"/>
    </g>
   </g>
  </g>
 </g>
 <defs>
  <clipPath id="pfbf5c54330">
   <rect height="135.864" width="219.188058" x="26.1" y="20.749375"/>
  </clipPath>
 </defs>
</svg>
