<?xml version="1.0" encoding="utf-8" standalone="no"?>
<!DOCTYPE svg PUBLIC "-//W3C//DTD SVG 1.1//EN"
  "http://www.w3.org/Graphics/SVG/1.1/DTD/svg11.dtd">
<!-- Created with matplotlib (https://matplotlib.org/) -->
<svg height="209.713375pt" version="1.1" viewBox="0 0 294.728058 209.713375" width="294.728058pt" xmlns="http://www.w3.org/2000/svg" xmlns:xlink="http://www.w3.org/1999/xlink">
 <metadata>
  <rdf:RDF xmlns:cc="http://creativecommons.org/ns#" xmlns:dc="http://purl.org/dc/elements/1.1/" xmlns:rdf="http://www.w3.org/1999/02/22-rdf-syntax-ns#">
   <cc:Work>
    <dc:type rdf:resource="http://purl.org/dc/dcmitype/StillImage"/>
    <dc:date>2020-10-19T17:44:25.855903</dc:date>
    <dc:format>image/svg+xml</dc:format>
    <dc:creator>
     <cc:Agent>
      <dc:title>Matplotlib v3.3.2, https://matplotlib.org/</dc:title>
     </cc:Agent>
    </dc:creator>
   </cc:Work>
  </rdf:RDF>
 </metadata>
 <defs>
  <style type="text/css">*{stroke-linecap:butt;stroke-linejoin:round;}</style>
 </defs>
 <g id="figure_1">
  <g id="patch_1">
   <path d="M 0 209.713375 
L 294.728058 209.713375 
L 294.728058 0 
L 0 0 
z
" style="fill:none;"/>
  </g>
  <g id="axes_1">
   <g id="line2d_1">
    <path clip-path="url(#pc2aad732ee)" d="M 161.37 142.384375 
L 161.37 104.134375 
L 231.518058 142.384375 
L 161.37 180.634375 
L 161.37 142.384375 
M 231.518058 142.384375 
" style="fill:none;stroke:#000000;stroke-linecap:round;stroke-width:2;"/>
   </g>
   <g id="line2d_2">
    <path clip-path="url(#pc2aad732ee)" d="M 166.898507 123.259375 
L 173.378507 123.259375 
" style="fill:none;stroke:#000000;stroke-linecap:round;stroke-width:2;"/>
   </g>
   <g id="line2d_3">
    <path clip-path="url(#pc2aad732ee)" d="M 166.898507 161.509375 
L 173.378507 161.509375 
" style="fill:none;stroke:#000000;stroke-linecap:round;stroke-width:2;"/>
   </g>
   <g id="line2d_4">
    <path clip-path="url(#pc2aad732ee)" d="M 170.138507 164.569375 
L 170.138507 158.449375 
" style="fill:none;stroke:#000000;stroke-linecap:round;stroke-width:2;"/>
   </g>
   <g id="line2d_5">
    <path clip-path="url(#pc2aad732ee)" d="M 161.37 161.509375 
L 149.22 161.509375 
L 137.07 161.509375 
" style="fill:none;stroke:#000000;stroke-linecap:round;stroke-width:2;"/>
   </g>
   <g id="line2d_6">
    <path clip-path="url(#pc2aad732ee)" d="M 137.07 161.509375 
L 137.07 170.689375 
L 137.07 179.869375 
" style="fill:none;stroke:#000000;stroke-linecap:round;stroke-width:2;"/>
   </g>
   <g id="line2d_7">
    <path clip-path="url(#pc2aad732ee)" d="M 137.07 179.869375 
L 137.07 192.109375 
L 128.97 192.109375 
L 145.17 192.109375 
M 131.4 195.781375 
L 142.74 195.781375 
M 135.45 199.453375 
L 138.69 199.453375 
" style="fill:none;stroke:#000000;stroke-linecap:round;stroke-width:2;"/>
   </g>
   <g id="line2d_8">
    <path clip-path="url(#pc2aad732ee)" d="M 161.37 123.259375 
L 153.27 123.259375 
L 145.17 123.259375 
" style="fill:none;stroke:#000000;stroke-linecap:round;stroke-width:2;"/>
   </g>
   <g id="line2d_9">
    <path clip-path="url(#pc2aad732ee)" d="M 145.17 123.259375 
L 112.77 123.259375 
L 110.07 130.909375 
L 104.67 115.609375 
L 99.27 130.909375 
L 93.87 115.609375 
L 88.47 130.909375 
L 83.07 115.609375 
L 80.37 123.259375 
L 47.97 123.259375 
" style="fill:none;stroke:#000000;stroke-linecap:round;stroke-width:2;"/>
   </g>
   <g id="line2d_10">
    <path clip-path="url(#pc2aad732ee)" d="M 47.97 123.259375 
L 39.87 123.259375 
L 31.77 123.259375 
" style="fill:none;stroke:#000000;stroke-linecap:round;stroke-width:2;"/>
   </g>
   <g id="line2d_11">
    <path clip-path="url(#pc2aad732ee)" d="M 145.17 123.259375 
L 145.17 100.309375 
L 145.17 77.359375 
" style="fill:none;stroke:#000000;stroke-linecap:round;stroke-width:2;"/>
   </g>
   <g id="line2d_12">
    <path clip-path="url(#pc2aad732ee)" d="M 145.17 77.359375 
L 177.57 77.359375 
L 180.27 69.709375 
L 185.67 85.009375 
L 191.07 69.709375 
L 196.47 85.009375 
L 201.87 69.709375 
L 207.27 85.009375 
L 209.97 77.359375 
L 242.37 77.359375 
" style="fill:none;stroke:#000000;stroke-linecap:round;stroke-width:2;"/>
   </g>
   <g id="line2d_13">
    <path clip-path="url(#pc2aad732ee)" d="M 145.17 77.359375 
L 145.17 54.409375 
L 145.17 31.459375 
" style="fill:none;stroke:#000000;stroke-linecap:round;stroke-width:2;"/>
   </g>
   <g id="line2d_14">
    <path clip-path="url(#pc2aad732ee)" d="M 145.17 31.459375 
L 190.854 31.459375 
M 190.854 23.809375 
L 190.854 39.109375 
M 196.686 23.809375 
L 196.686 39.109375 
M 196.686 31.459375 
L 242.37 31.459375 
" style="fill:none;stroke:#000000;stroke-linecap:round;stroke-width:2;"/>
   </g>
   <g id="line2d_15">
    <path clip-path="url(#pc2aad732ee)" d="M 242.37 31.459375 
L 242.37 86.921875 
L 242.37 142.384375 
" style="fill:none;stroke:#000000;stroke-linecap:round;stroke-width:2;"/>
   </g>
   <g id="line2d_16">
    <path clip-path="url(#pc2aad732ee)" d="M 242.37 142.384375 
L 236.944029 142.384375 
L 231.518058 142.384375 
" style="fill:none;stroke:#000000;stroke-linecap:round;stroke-width:2;"/>
   </g>
   <g id="line2d_17">
    <path clip-path="url(#pc2aad732ee)" d="M 231.518058 142.384375 
L 243.668058 142.384375 
L 255.818058 142.384375 
" style="fill:none;stroke:#000000;stroke-linecap:round;stroke-width:2;"/>
   </g>
   <g id="text_1">
    <!-- $R_1$ -->
    <g transform="translate(88.38 144.607187)scale(0.14 -0.14)">
     <defs>
      <path d="M 25.203125 64.796875 
L 20.21875 38.921875 
L 32.90625 38.921875 
Q 40.375 38.921875 44.984375 43.046875 
Q 49.609375 47.171875 49.609375 53.8125 
Q 49.609375 59.125 46.5 61.953125 
Q 43.40625 64.796875 37.59375 64.796875 
z
M 43.3125 35.015625 
Q 46.4375 34.28125 48.515625 31.390625 
Q 50.59375 28.515625 53.328125 19.921875 
L 59.515625 0 
L 49.125 0 
L 43.40625 18.703125 
Q 41.21875 25.921875 38.328125 28.359375 
Q 35.453125 30.8125 29.5 30.8125 
L 18.609375 30.8125 
L 12.59375 0 
L 2.6875 0 
L 16.890625 72.90625 
L 39.109375 72.90625 
Q 49.21875 72.90625 54.609375 68.328125 
Q 60.015625 63.765625 60.015625 55.171875 
Q 60.015625 47.5625 55.421875 41.984375 
Q 50.828125 36.421875 43.3125 35.015625 
z
" id="DejaVuSans-Oblique-82"/>
      <path d="M 12.40625 8.296875 
L 28.515625 8.296875 
L 28.515625 63.921875 
L 10.984375 60.40625 
L 10.984375 69.390625 
L 28.421875 72.90625 
L 38.28125 72.90625 
L 38.28125 8.296875 
L 54.390625 8.296875 
L 54.390625 0 
L 12.40625 0 
z
" id="DejaVuSans-49"/>
     </defs>
     <use transform="translate(0 0.09375)" xlink:href="#DejaVuSans-Oblique-82"/>
     <use transform="translate(69.482422 -16.3125)scale(0.7)" xlink:href="#DejaVuSans-49"/>
    </g>
   </g>
   <g id="text_2">
    <!-- $R_2$ -->
    <g transform="translate(185.58 63.737812)scale(0.14 -0.14)">
     <defs>
      <path d="M 19.1875 8.296875 
L 53.609375 8.296875 
L 53.609375 0 
L 7.328125 0 
L 7.328125 8.296875 
Q 12.9375 14.109375 22.625 23.890625 
Q 32.328125 33.6875 34.8125 36.53125 
Q 39.546875 41.84375 41.421875 45.53125 
Q 43.3125 49.21875 43.3125 52.78125 
Q 43.3125 58.59375 39.234375 62.25 
Q 35.15625 65.921875 28.609375 65.921875 
Q 23.96875 65.921875 18.8125 64.3125 
Q 13.671875 62.703125 7.8125 59.421875 
L 7.8125 69.390625 
Q 13.765625 71.78125 18.9375 73 
Q 24.125 74.21875 28.421875 74.21875 
Q 39.75 74.21875 46.484375 68.546875 
Q 53.21875 62.890625 53.21875 53.421875 
Q 53.21875 48.921875 51.53125 44.890625 
Q 49.859375 40.875 45.40625 35.40625 
Q 44.1875 33.984375 37.640625 27.21875 
Q 31.109375 20.453125 19.1875 8.296875 
z
" id="DejaVuSans-50"/>
     </defs>
     <use transform="translate(0 0.09375)" xlink:href="#DejaVuSans-Oblique-82"/>
     <use transform="translate(69.482422 -16.3125)scale(0.7)" xlink:href="#DejaVuSans-50"/>
    </g>
   </g>
   <g id="text_3">
    <!-- $C_2$ -->
    <g transform="translate(185.51 17.837812)scale(0.14 -0.14)">
     <defs>
      <path d="M 69.484375 67.28125 
L 67.484375 56.890625 
Q 62.796875 61.625 57.546875 63.921875 
Q 52.296875 66.21875 46.1875 66.21875 
Q 37.84375 66.21875 31.515625 62.203125 
Q 25.203125 58.203125 20.609375 50 
Q 17.671875 44.734375 16.125 38.84375 
Q 14.59375 32.953125 14.59375 27 
Q 14.59375 17.046875 19.75 11.8125 
Q 24.90625 6.59375 34.71875 6.59375 
Q 41.5 6.59375 47.75 8.765625 
Q 54 10.9375 59.90625 15.28125 
L 57.625 3.609375 
Q 51.8125 1.125 45.875 -0.140625 
Q 39.9375 -1.421875 33.984375 -1.421875 
Q 19.96875 -1.421875 12.078125 6.1875 
Q 4.203125 13.8125 4.203125 27.390625 
Q 4.203125 36.078125 7.203125 44.46875 
Q 10.203125 52.875 15.828125 59.8125 
Q 21.78125 67.1875 29.421875 70.703125 
Q 37.0625 74.21875 47.21875 74.21875 
Q 53.46875 74.21875 59.0625 72.484375 
Q 64.65625 70.75 69.484375 67.28125 
z
" id="DejaVuSans-Oblique-67"/>
     </defs>
     <use transform="translate(0 0.78125)" xlink:href="#DejaVuSans-Oblique-67"/>
     <use transform="translate(69.824219 -15.625)scale(0.7)" xlink:href="#DejaVuSans-50"/>
    </g>
   </g>
   <g id="patch_2">
    <path clip-path="url(#pc2aad732ee)" d="M 145.17 125.554375 
C 145.814444 125.554375 146.432579 125.312559 146.888269 124.882185 
C 147.34396 124.451811 147.6 123.868016 147.6 123.259375 
C 147.6 122.650734 147.34396 122.066939 146.888269 121.636565 
C 146.432579 121.206191 145.814444 120.964375 145.17 120.964375 
C 144.525556 120.964375 143.907421 121.206191 143.451731 121.636565 
C 142.99604 122.066939 142.74 122.650734 142.74 123.259375 
C 142.74 123.868016 142.99604 124.451811 143.451731 124.882185 
C 143.907421 125.312559 144.525556 125.554375 145.17 125.554375 
z
" style="stroke:#000000;stroke-linejoin:miter;stroke-width:2;"/>
   </g>
   <g id="patch_3">
    <path clip-path="url(#pc2aad732ee)" d="M 31.77 125.554375 
C 32.414444 125.554375 33.032579 125.312559 33.488269 124.882185 
C 33.94396 124.451811 34.2 123.868016 34.2 123.259375 
C 34.2 122.650734 33.94396 122.066939 33.488269 121.636565 
C 33.032579 121.206191 32.414444 120.964375 31.77 120.964375 
C 31.125556 120.964375 30.507421 121.206191 30.051731 121.636565 
C 29.59604 122.066939 29.34 122.650734 29.34 123.259375 
C 29.34 123.868016 29.59604 124.451811 30.051731 124.882185 
C 30.507421 125.312559 31.125556 125.554375 31.77 125.554375 
z
" style="fill:#ffffff;stroke:#000000;stroke-linejoin:miter;stroke-width:2;"/>
   </g>
   <g id="patch_4">
    <path clip-path="url(#pc2aad732ee)" d="M 145.17 79.654375 
C 145.814444 79.654375 146.432579 79.412559 146.888269 78.982185 
C 147.34396 78.551811 147.6 77.968016 147.6 77.359375 
C 147.6 76.750734 147.34396 76.166939 146.888269 75.736565 
C 146.432579 75.306191 145.814444 75.064375 145.17 75.064375 
C 144.525556 75.064375 143.907421 75.306191 143.451731 75.736565 
C 142.99604 76.166939 142.74 76.750734 142.74 77.359375 
C 142.74 77.968016 142.99604 78.551811 143.451731 78.982185 
C 143.907421 79.412559 144.525556 79.654375 145.17 79.654375 
z
" style="stroke:#000000;stroke-linejoin:miter;stroke-width:2;"/>
   </g>
   <g id="patch_5">
    <path clip-path="url(#pc2aad732ee)" d="M 242.37 79.654375 
C 243.014444 79.654375 243.632579 79.412559 244.088269 78.982185 
C 244.54396 78.551811 244.8 77.968016 244.8 77.359375 
C 244.8 76.750734 244.54396 76.166939 244.088269 75.736565 
C 243.632579 75.306191 243.014444 75.064375 242.37 75.064375 
C 241.725556 75.064375 241.107421 75.306191 240.651731 75.736565 
C 240.19604 76.166939 239.94 76.750734 239.94 77.359375 
C 239.94 77.968016 240.19604 78.551811 240.651731 78.982185 
C 241.107421 79.412559 241.725556 79.654375 242.37 79.654375 
z
" style="stroke:#000000;stroke-linejoin:miter;stroke-width:2;"/>
   </g>
   <g id="patch_6">
    <path clip-path="url(#pc2aad732ee)" d="M 242.37 144.679375 
C 243.014444 144.679375 243.632579 144.437559 244.088269 144.007185 
C 244.54396 143.576811 244.8 142.993016 244.8 142.384375 
C 244.8 141.775734 244.54396 141.191939 244.088269 140.761565 
C 243.632579 140.331191 243.014444 140.089375 242.37 140.089375 
C 241.725556 140.089375 241.107421 140.331191 240.651731 140.761565 
C 240.19604 141.191939 239.94 141.775734 239.94 142.384375 
C 239.94 142.993016 240.19604 143.576811 240.651731 144.007185 
C 241.107421 144.437559 241.725556 144.679375 242.37 144.679375 
z
" style="stroke:#000000;stroke-linejoin:miter;stroke-width:2;"/>
   </g>
   <g id="patch_7">
    <path clip-path="url(#pc2aad732ee)" d="M 255.818058 144.679375 
C 256.462501 144.679375 257.080637 144.437559 257.536327 144.007185 
C 257.992018 143.576811 258.248058 142.993016 258.248058 142.384375 
C 258.248058 141.775734 257.992018 141.191939 257.536327 140.761565 
C 257.080637 140.331191 256.462501 140.089375 255.818058 140.089375 
C 255.173614 140.089375 254.555479 140.331191 254.099788 140.761565 
C 253.644098 141.191939 253.388058 141.775734 253.388058 142.384375 
C 253.388058 142.993016 253.644098 143.576811 254.099788 144.007185 
C 254.555479 144.437559 255.173614 144.679375 255.818058 144.679375 
z
" style="fill:#ffffff;stroke:#000000;stroke-linejoin:miter;stroke-width:2;"/>
   </g>
   <g id="text_4">
    <!-- $V_{in}$ -->
    <g transform="translate(7.2 127.1225)scale(0.14 -0.14)">
     <defs>
      <path d="M 20.609375 0 
L 7.8125 72.90625 
L 17.484375 72.90625 
L 28.078125 10.203125 
L 63.484375 72.90625 
L 74.21875 72.90625 
L 32.078125 0 
z
" id="DejaVuSans-Oblique-86"/>
      <path d="M 18.3125 75.984375 
L 27.296875 75.984375 
L 25.09375 64.59375 
L 16.109375 64.59375 
z
M 14.203125 54.6875 
L 23.1875 54.6875 
L 12.5 0 
L 3.515625 0 
z
" id="DejaVuSans-Oblique-105"/>
      <path d="M 55.71875 33.015625 
L 49.3125 0 
L 40.28125 0 
L 46.6875 32.671875 
Q 47.125 34.96875 47.359375 36.71875 
Q 47.609375 38.484375 47.609375 39.5 
Q 47.609375 43.609375 45.015625 45.890625 
Q 42.4375 48.1875 37.796875 48.1875 
Q 30.5625 48.1875 25.34375 43.375 
Q 20.125 38.578125 18.5 30.328125 
L 12.5 0 
L 3.515625 0 
L 14.109375 54.6875 
L 23.09375 54.6875 
L 21.296875 46.09375 
Q 25.046875 50.828125 30.3125 53.40625 
Q 35.59375 56 41.40625 56 
Q 48.640625 56 52.609375 52.09375 
Q 56.59375 48.1875 56.59375 41.109375 
Q 56.59375 39.359375 56.375 37.359375 
Q 56.15625 35.359375 55.71875 33.015625 
z
" id="DejaVuSans-Oblique-110"/>
     </defs>
     <use transform="translate(0 0.09375)" xlink:href="#DejaVuSans-Oblique-86"/>
     <use transform="translate(68.408203 -16.3125)scale(0.7)" xlink:href="#DejaVuSans-Oblique-105"/>
     <use transform="translate(87.856445 -16.3125)scale(0.7)" xlink:href="#DejaVuSans-Oblique-110"/>
    </g>
   </g>
   <g id="text_5">
    <!-- $V_{out}$ -->
    <g transform="translate(261.488058 146.2475)scale(0.14 -0.14)">
     <defs>
      <path d="M 25.390625 -1.421875 
Q 15.765625 -1.421875 10.171875 4.515625 
Q 4.59375 10.453125 4.59375 20.703125 
Q 4.59375 26.65625 6.515625 32.828125 
Q 8.453125 39.015625 11.53125 43.21875 
Q 16.359375 49.75 22.3125 52.875 
Q 28.265625 56 35.796875 56 
Q 45.125 56 50.859375 50.1875 
Q 56.59375 44.390625 56.59375 35.015625 
Q 56.59375 28.515625 54.6875 22.0625 
Q 52.78125 15.625 49.703125 11.375 
Q 44.921875 4.828125 38.96875 1.703125 
Q 33.015625 -1.421875 25.390625 -1.421875 
z
M 13.921875 21 
Q 13.921875 13.578125 17.015625 9.890625 
Q 20.125 6.203125 26.421875 6.203125 
Q 35.453125 6.203125 41.375 14.078125 
Q 47.3125 21.96875 47.3125 34.078125 
Q 47.3125 41.15625 44.140625 44.765625 
Q 40.96875 48.390625 34.8125 48.390625 
Q 29.734375 48.390625 25.78125 46.015625 
Q 21.828125 43.65625 18.703125 38.8125 
Q 16.40625 35.203125 15.15625 30.5625 
Q 13.921875 25.921875 13.921875 21 
z
" id="DejaVuSans-Oblique-111"/>
      <path d="M 6.6875 21.6875 
L 13.09375 54.6875 
L 22.125 54.6875 
L 15.71875 22.015625 
Q 15.234375 19.625 15.015625 17.921875 
Q 14.796875 16.21875 14.796875 15.09375 
Q 14.796875 10.9375 17.328125 8.65625 
Q 19.875 6.390625 24.515625 6.390625 
Q 31.734375 6.390625 37 11.265625 
Q 42.28125 16.15625 43.890625 24.421875 
L 49.90625 54.6875 
L 58.890625 54.6875 
L 48.296875 0 
L 39.3125 0 
L 41.109375 8.59375 
Q 37.3125 3.8125 32.0625 1.1875 
Q 26.8125 -1.421875 20.90625 -1.421875 
Q 13.71875 -1.421875 9.71875 2.515625 
Q 5.71875 6.453125 5.71875 13.484375 
Q 5.71875 14.9375 5.953125 17.140625 
Q 6.203125 19.34375 6.6875 21.6875 
z
" id="DejaVuSans-Oblique-117"/>
      <path d="M 42.28125 54.6875 
L 40.921875 47.703125 
L 23 47.703125 
L 17.1875 18.015625 
Q 16.890625 16.359375 16.75 15.234375 
Q 16.609375 14.109375 16.609375 13.484375 
Q 16.609375 10.359375 18.484375 8.9375 
Q 20.359375 7.515625 24.515625 7.515625 
L 33.59375 7.515625 
L 32.078125 0 
L 23.484375 0 
Q 15.484375 0 11.546875 3.125 
Q 7.625 6.25 7.625 12.59375 
Q 7.625 13.71875 7.765625 15.0625 
Q 7.90625 16.40625 8.203125 18.015625 
L 14.015625 47.703125 
L 6.390625 47.703125 
L 7.8125 54.6875 
L 15.28125 54.6875 
L 18.3125 70.21875 
L 27.296875 70.21875 
L 24.3125 54.6875 
z
" id="DejaVuSans-Oblique-116"/>
     </defs>
     <use transform="translate(0 0.09375)" xlink:href="#DejaVuSans-Oblique-86"/>
     <use transform="translate(68.408203 -16.3125)scale(0.7)" xlink:href="#DejaVuSans-Oblique-111"/>
     <use transform="translate(111.235352 -16.3125)scale(0.7)" xlink:href="#DejaVuSans-Oblique-117"/>
     <use transform="translate(155.600586 -16.3125)scale(0.7)" xlink:href="#DejaVuSans-Oblique-116"/>
    </g>
   </g>
  </g>
 </g>
 <defs>
  <clipPath id="pc2aad732ee">
   <rect height="181.764" width="235.388058" x="26.1" y="20.749375"/>
  </clipPath>
 </defs>
</svg>
