<?xml version="1.0" encoding="utf-8" standalone="no"?>
<!DOCTYPE svg PUBLIC "-//W3C//DTD SVG 1.1//EN"
  "http://www.w3.org/Graphics/SVG/1.1/DTD/svg11.dtd">
<!-- Created with matplotlib (https://matplotlib.org/) -->
<svg height="272.747pt" version="1.1" viewBox="0 0 335.724 272.747" width="335.724pt" xmlns="http://www.w3.org/2000/svg" xmlns:xlink="http://www.w3.org/1999/xlink">
 <metadata>
  <rdf:RDF xmlns:cc="http://creativecommons.org/ns#" xmlns:dc="http://purl.org/dc/elements/1.1/" xmlns:rdf="http://www.w3.org/1999/02/22-rdf-syntax-ns#">
   <cc:Work>
    <dc:type rdf:resource="http://purl.org/dc/dcmitype/StillImage"/>
    <dc:date>2020-09-19T15:49:29.338611</dc:date>
    <dc:format>image/svg+xml</dc:format>
    <dc:creator>
     <cc:Agent>
      <dc:title>Matplotlib v3.3.2, https://matplotlib.org/</dc:title>
     </cc:Agent>
    </dc:creator>
   </cc:Work>
  </rdf:RDF>
 </metadata>
 <defs>
  <style type="text/css">*{stroke-linecap:butt;stroke-linejoin:round;}</style>
 </defs>
 <g id="figure_1">
  <g id="patch_1">
   <path d="M 0 272.747 
L 335.724 272.747 
L 335.724 0 
L 0 0 
z
" style="fill:none;"/>
  </g>
  <g id="axes_1">
   <g id="patch_2">
    <path clip-path="url(#p6033ae4a0d)" d="M 164.934 189.761 
L 157.905453 188.101482 
L 160.003474 185.789773 
L 152.449457 179.674617 
L 152.470543 179.651383 
L 160.02456 185.76654 
L 162.122581 183.454832 
z
" style="stroke:#000000;stroke-linejoin:miter;stroke-width:2;"/>
   </g>
   <g id="patch_3">
    <path clip-path="url(#p6033ae4a0d)" d="M 43.38 219.953 
C 46.602218 219.953 49.692895 218.743922 51.971347 216.59205 
C 54.249799 214.440179 55.53 211.521206 55.53 208.478 
C 55.53 205.434794 54.249799 202.515821 51.971347 200.36395 
C 49.692895 198.212078 46.602218 197.003 43.38 197.003 
C 40.157782 197.003 37.067105 198.212078 34.788653 200.36395 
C 32.510201 202.515821 31.23 205.434794 31.23 208.478 
C 31.23 211.521206 32.510201 214.440179 34.788653 216.59205 
C 37.067105 218.743922 40.157782 219.953 43.38 219.953 
z
" style="fill:none;stroke:#000000;stroke-linejoin:miter;stroke-width:2;"/>
   </g>
   <g id="patch_4">
    <path clip-path="url(#p6033ae4a0d)" d="M 205.434 68.585 
C 207.151944 68.585 208.801282 67.939776 210.016052 66.792494 
C 211.230822 65.645211 211.914 64.087502 211.914 62.465 
C 211.914 60.842498 211.230822 59.284789 210.016052 58.137506 
C 208.801282 56.990224 207.151944 56.345 205.434 56.345 
" style="fill:none;stroke:#000000;stroke-linejoin:miter;stroke-width:2;"/>
   </g>
   <g id="patch_5">
    <path clip-path="url(#p6033ae4a0d)" d="M 205.434 80.825 
C 207.151944 80.825 208.801282 80.179776 210.016052 79.032494 
C 211.230822 77.885211 211.914 76.327502 211.914 74.705 
C 211.914 73.082498 211.230822 71.524789 210.016052 70.377506 
C 208.801282 69.230224 207.151944 68.585 205.434 68.585 
" style="fill:none;stroke:#000000;stroke-linejoin:miter;stroke-width:2;"/>
   </g>
   <g id="patch_6">
    <path clip-path="url(#p6033ae4a0d)" d="M 205.434 93.065 
C 207.151944 93.065 208.801282 92.419776 210.016052 91.272494 
C 211.230822 90.125211 211.914 88.567502 211.914 86.945 
C 211.914 85.322498 211.230822 83.764789 210.016052 82.617506 
C 208.801282 81.470224 207.151944 80.825 205.434 80.825 
" style="fill:none;stroke:#000000;stroke-linejoin:miter;stroke-width:2;"/>
   </g>
   <g id="patch_7">
    <path clip-path="url(#p6033ae4a0d)" d="M 205.434 105.305 
C 207.151944 105.305 208.801282 104.659776 210.016052 103.512494 
C 211.230822 102.365211 211.914 100.807502 211.914 99.185 
C 211.914 97.562498 211.230822 96.004789 210.016052 94.857506 
C 208.801282 93.710224 207.151944 93.065 205.434 93.065 
" style="fill:none;stroke:#000000;stroke-linejoin:miter;stroke-width:2;"/>
   </g>
   <g id="patch_8">
    <path clip-path="url(#p6033ae4a0d)" d="M 205.434 117.545 
C 207.151944 117.545 208.801282 116.899776 210.016052 115.752494 
C 211.230822 114.605211 211.914 113.047502 211.914 111.425 
C 211.914 109.802498 211.230822 108.244789 210.016052 107.097506 
C 208.801282 105.950224 207.151944 105.305 205.434 105.305 
" style="fill:none;stroke:#000000;stroke-linejoin:miter;stroke-width:2;"/>
   </g>
   <g id="patch_9">
    <path clip-path="url(#p6033ae4a0d)" d="M 205.434 129.785 
C 207.151944 129.785 208.801282 129.139776 210.016052 127.992494 
C 211.230822 126.845211 211.914 125.287502 211.914 123.665 
C 211.914 122.042498 211.230822 120.484789 210.016052 119.337506 
C 208.801282 118.190224 207.151944 117.545 205.434 117.545 
" style="fill:none;stroke:#000000;stroke-linejoin:miter;stroke-width:2;"/>
   </g>
   <g id="patch_10">
    <path clip-path="url(#p6033ae4a0d)" d="M 237.834 68.585 
C 236.116056 68.585 234.466718 69.230224 233.251948 70.377506 
C 232.037178 71.524789 231.354 73.082498 231.354 74.705 
C 231.354 76.327502 232.037178 77.885211 233.251948 79.032494 
C 234.466718 80.179776 236.116056 80.825 237.834 80.825 
" style="fill:none;stroke:#000000;stroke-linejoin:miter;stroke-width:2;"/>
   </g>
   <g id="patch_11">
    <path clip-path="url(#p6033ae4a0d)" d="M 237.834 80.825 
C 236.116056 80.825 234.466718 81.470224 233.251948 82.617506 
C 232.037178 83.764789 231.354 85.322498 231.354 86.945 
C 231.354 88.567502 232.037178 90.125211 233.251948 91.272494 
C 234.466718 92.419776 236.116056 93.065 237.834 93.065 
" style="fill:none;stroke:#000000;stroke-linejoin:miter;stroke-width:2;"/>
   </g>
   <g id="patch_12">
    <path clip-path="url(#p6033ae4a0d)" d="M 237.834 93.065 
C 236.116056 93.065 234.466718 93.710224 233.251948 94.857506 
C 232.037178 96.004789 231.354 97.562498 231.354 99.185 
C 231.354 100.807502 232.037178 102.365211 233.251948 103.512494 
C 234.466718 104.659776 236.116056 105.305 237.834 105.305 
" style="fill:none;stroke:#000000;stroke-linejoin:miter;stroke-width:2;"/>
   </g>
   <g id="patch_13">
    <path clip-path="url(#p6033ae4a0d)" d="M 237.834 105.305 
C 236.116056 105.305 234.466718 105.950224 233.251948 107.097506 
C 232.037178 108.244789 231.354 109.802498 231.354 111.425 
C 231.354 113.047502 232.037178 114.605211 233.251948 115.752494 
C 234.466718 116.899776 236.116056 117.545 237.834 117.545 
" style="fill:none;stroke:#000000;stroke-linejoin:miter;stroke-width:2;"/>
   </g>
   <g id="line2d_1">
    <path clip-path="url(#p6033ae4a0d)" d="M 140.58 174.053 
L 152.46 174.053 
" style="fill:none;stroke:#000000;stroke-linecap:round;stroke-width:2;"/>
   </g>
   <g id="line2d_2">
    <path clip-path="url(#p6033ae4a0d)" d="M 152.46 162.833 
L 152.46 185.273 
" style="fill:none;stroke:#000000;stroke-linecap:round;stroke-width:2;"/>
   </g>
   <g id="line2d_3">
    <path clip-path="url(#p6033ae4a0d)" d="M 152.46 168.443 
L 164.934 158.345 
L 164.934 152.735 
" style="fill:none;stroke:#000000;stroke-linecap:round;stroke-width:2;"/>
   </g>
   <g id="line2d_4">
    <path clip-path="url(#p6033ae4a0d)" d="M 152.46 179.663 
L 164.934 189.761 
L 164.934 195.371 
" style="fill:none;stroke:#000000;stroke-linecap:round;stroke-width:2;"/>
   </g>
   <g id="line2d_5">
    <path clip-path="url(#p6033ae4a0d)" d="M 140.58 174.053 
L 94.896 174.053 
M 94.896 181.703 
L 94.896 166.403 
M 89.064 181.703 
L 89.064 166.403 
M 89.064 174.053 
L 43.38 174.053 
" style="fill:none;stroke:#000000;stroke-linecap:round;stroke-width:2;"/>
   </g>
   <g id="line2d_6">
    <path clip-path="url(#p6033ae4a0d)" d="M 140.58 174.053 
L 140.58 197.003 
L 142.580826 197.088469 
L 144.599697 197.348372 
L 146.467294 197.776926 
L 148.026984 198.354205 
L 149.147958 199.047811 
L 149.736202 199.815588 
L 149.813247 200.212307 
L 149.742381 200.609159 
L 149.525097 200.999793 
L 148.672587 201.73778 
L 147.327216 202.380391 
L 145.601818 202.889748 
L 143.641098 203.239147 
L 141.609501 203.415301 
L 139.677412 203.419453 
L 138.006873 203.26727 
L 136.73799 202.987532 
L 135.977182 202.619717 
L 135.809084 202.417242 
L 135.788257 202.210689 
L 135.91514 202.006425 
L 136.598283 201.629855 
L 137.801217 201.33513 
L 139.423055 201.162985 
L 141.327776 201.143874 
L 143.355633 201.295415 
L 145.336554 201.620916 
L 147.104401 202.109092 
L 148.510908 202.735019 
L 149.438114 203.462215 
L 149.695903 203.849968 
L 149.808254 204.24571 
L 149.772799 204.643111 
L 149.590286 205.035808 
L 149.264562 205.417535 
L 148.213814 206.124309 
L 146.708682 206.720171 
L 144.875398 207.171164 
L 142.867717 207.455479 
L 140.854021 207.565289 
L 139.003193 207.5074 
L 137.470462 207.302682 
L 136.384374 206.984323 
L 135.836019 206.595037 
L 135.779757 206.388882 
L 135.871385 206.18349 
L 136.487507 205.800214 
L 137.632712 205.49337 
L 139.210953 205.304709 
L 141.089865 205.26607 
L 143.111867 205.396709 
L 145.107376 205.701686 
L 146.909033 206.17144 
L 148.365735 206.782588 
L 149.355311 207.499892 
L 149.647244 207.884808 
L 149.794766 208.279208 
L 149.794766 208.676792 
L 149.647244 209.071192 
L 149.355311 209.456108 
L 148.365735 210.173412 
L 146.909033 210.78456 
L 145.107376 211.254314 
L 143.111867 211.559291 
L 141.089865 211.68993 
L 139.210953 211.651291 
L 137.632712 211.46263 
L 136.487507 211.155786 
L 135.871385 210.77251 
L 135.779757 210.567118 
L 135.836019 210.360963 
L 136.384374 209.971677 
L 137.470462 209.653318 
L 139.003193 209.4486 
L 140.854021 209.390711 
L 142.867717 209.500521 
L 144.875398 209.784836 
L 146.708682 210.235829 
L 148.213814 210.831691 
L 149.264562 211.538465 
L 149.590286 211.920192 
L 149.772799 212.312889 
L 149.808254 212.71029 
L 149.695903 213.106032 
L 149.438114 213.493785 
L 148.510908 214.220981 
L 147.104401 214.846908 
L 145.336554 215.335084 
L 143.355633 215.660585 
L 141.327776 215.812126 
L 139.423055 215.793015 
L 137.801217 215.62087 
L 136.598283 215.326145 
L 135.91514 214.949575 
L 135.788257 214.745311 
L 135.809084 214.538758 
L 135.977182 214.336283 
L 136.73799 213.968468 
L 138.006873 213.68873 
L 139.677412 213.536547 
L 141.609501 213.540699 
L 143.641098 213.716853 
L 145.601818 214.066252 
L 147.327216 214.575609 
L 148.672587 215.21822 
L 149.525097 215.956207 
L 149.742381 216.346841 
L 149.813247 216.743693 
L 149.736202 217.140412 
L 149.51287 217.530648 
L 148.649158 218.267088 
L 147.29455 218.907265 
L 145.562654 219.413505 
L 143.598722 219.759365 
L 141.567465 219.931857 
L 140.58 219.953 
L 140.58 242.903 
L 140.58 242.903 
" style="fill:none;stroke:#000000;stroke-linecap:round;stroke-width:2;"/>
   </g>
   <g id="line2d_7">
    <path clip-path="url(#p6033ae4a0d)" d="M 43.38 174.053 
L 43.38 197.003 
L 43.38 197.003 
M 43.38 219.953 
L 43.38 219.953 
L 43.38 242.903 
" style="fill:none;stroke:#000000;stroke-linecap:round;stroke-width:2;"/>
   </g>
   <g id="line2d_8">
    <path clip-path="url(#p6033ae4a0d)" d="M 40.95 202.7405 
L 45.81 202.7405 
" style="fill:none;stroke:#000000;stroke-linecap:round;stroke-width:2;"/>
   </g>
   <g id="line2d_9">
    <path clip-path="url(#p6033ae4a0d)" d="M 43.38 211.9205 
L 43.38 216.5105 
" style="fill:none;stroke:#000000;stroke-linecap:round;stroke-width:2;"/>
   </g>
   <g id="line2d_10">
    <path clip-path="url(#p6033ae4a0d)" d="M 40.95 214.2155 
L 45.81 214.2155 
" style="fill:none;stroke:#000000;stroke-linecap:round;stroke-width:2;"/>
   </g>
   <g id="line2d_11">
    <path clip-path="url(#p6033ae4a0d)" d="M 43.38 242.903 
L 104.157 242.903 
L 164.934 242.903 
" style="fill:none;stroke:#000000;stroke-linecap:round;stroke-width:2;"/>
   </g>
   <g id="line2d_12">
    <path clip-path="url(#p6033ae4a0d)" d="M 164.934 242.903 
L 164.934 255.143 
L 156.834 255.143 
L 173.034 255.143 
M 159.264 258.815 
L 170.604 258.815 
M 163.314 262.487 
L 166.554 262.487 
" style="fill:none;stroke:#000000;stroke-linecap:round;stroke-width:2;"/>
   </g>
   <g id="line2d_13">
    <path clip-path="url(#p6033ae4a0d)" d="M 164.934 242.903 
L 164.934 219.137 
L 164.934 195.371 
" style="fill:none;stroke:#000000;stroke-linecap:round;stroke-width:2;"/>
   </g>
   <g id="line2d_14">
    <path clip-path="url(#p6033ae4a0d)" d="M 164.934 152.735 
L 164.934 141.26 
L 164.934 129.785 
" style="fill:none;stroke:#000000;stroke-linecap:round;stroke-width:2;"/>
   </g>
   <g id="line2d_15">
    <path clip-path="url(#p6033ae4a0d)" d="M 164.934 129.785 
L 164.934 86.639 
M 156.834 86.639 
L 173.034 86.639 
M 156.834 81.131 
L 173.034 81.131 
M 164.934 81.131 
L 164.934 37.985 
" style="fill:none;stroke:#000000;stroke-linecap:round;stroke-width:2;"/>
   </g>
   <g id="line2d_16">
    <path clip-path="url(#p6033ae4a0d)" d="M 164.934 129.785 
L 185.184 129.785 
L 205.434 129.785 
" style="fill:none;stroke:#000000;stroke-linecap:round;stroke-width:2;"/>
   </g>
   <g id="line2d_17">
    <path clip-path="url(#p6033ae4a0d)" d="M 218.394 56.345 
L 218.394 129.785 
" style="fill:none;stroke:#000000;stroke-linecap:round;stroke-width:2;"/>
   </g>
   <g id="line2d_18">
    <path clip-path="url(#p6033ae4a0d)" d="M 224.874 56.345 
L 224.874 129.785 
" style="fill:none;stroke:#000000;stroke-linecap:round;stroke-width:2;"/>
   </g>
   <g id="line2d_19">
    <path clip-path="url(#p6033ae4a0d)" d="M 205.434 56.345 
L 185.184 56.345 
L 164.934 56.345 
" style="fill:none;stroke:#000000;stroke-linecap:round;stroke-width:2;"/>
   </g>
   <g id="line2d_20">
    <path clip-path="url(#p6033ae4a0d)" d="M 237.834 68.585 
L 266.184 68.585 
L 294.534 68.585 
" style="fill:none;stroke:#000000;stroke-linecap:round;stroke-width:2;"/>
   </g>
   <g id="line2d_21">
    <path clip-path="url(#p6033ae4a0d)" d="M 237.834 117.545 
L 249.984 117.545 
L 262.134 117.545 
" style="fill:none;stroke:#000000;stroke-linecap:round;stroke-width:2;"/>
   </g>
   <g id="line2d_22">
    <path clip-path="url(#p6033ae4a0d)" d="M 262.134 117.545 
L 262.134 129.785 
L 254.034 129.785 
L 270.234 129.785 
M 256.464 133.457 
L 267.804 133.457 
M 260.514 137.129 
L 263.754 137.129 
" style="fill:none;stroke:#000000;stroke-linecap:round;stroke-width:2;"/>
   </g>
   <g id="line2d_23">
    <path clip-path="url(#p6033ae4a0d)" d="M 164.934 37.985 
L 164.934 25.745 
" style="fill:none;stroke:#000000;stroke-linecap:round;stroke-width:2;"/>
   </g>
   <g id="line2d_24">
    <path clip-path="url(#p6033ae4a0d)" d="M 164.934 25.745 
L 158.859 25.745 
" style="fill:none;stroke:#000000;stroke-linecap:round;stroke-width:2;"/>
   </g>
   <g id="line2d_25">
    <path clip-path="url(#p6033ae4a0d)" d="M 164.934 25.745 
L 171.009 25.745 
" style="fill:none;stroke:#000000;stroke-linecap:round;stroke-width:2;"/>
   </g>
   <g id="text_1">
    <!-- $C_{in}$ -->
    <g transform="translate(81.02 160.0155)scale(0.16 -0.16)">
     <defs>
      <path d="M 69.484375 67.28125 
L 67.484375 56.890625 
Q 62.796875 61.625 57.546875 63.921875 
Q 52.296875 66.21875 46.1875 66.21875 
Q 37.84375 66.21875 31.515625 62.203125 
Q 25.203125 58.203125 20.609375 50 
Q 17.671875 44.734375 16.125 38.84375 
Q 14.59375 32.953125 14.59375 27 
Q 14.59375 17.046875 19.75 11.8125 
Q 24.90625 6.59375 34.71875 6.59375 
Q 41.5 6.59375 47.75 8.765625 
Q 54 10.9375 59.90625 15.28125 
L 57.625 3.609375 
Q 51.8125 1.125 45.875 -0.140625 
Q 39.9375 -1.421875 33.984375 -1.421875 
Q 19.96875 -1.421875 12.078125 6.1875 
Q 4.203125 13.8125 4.203125 27.390625 
Q 4.203125 36.078125 7.203125 44.46875 
Q 10.203125 52.875 15.828125 59.8125 
Q 21.78125 67.1875 29.421875 70.703125 
Q 37.0625 74.21875 47.21875 74.21875 
Q 53.46875 74.21875 59.0625 72.484375 
Q 64.65625 70.75 69.484375 67.28125 
z
" id="DejaVuSans-Oblique-67"/>
      <path d="M 18.3125 75.984375 
L 27.296875 75.984375 
L 25.09375 64.59375 
L 16.109375 64.59375 
z
M 14.203125 54.6875 
L 23.1875 54.6875 
L 12.5 0 
L 3.515625 0 
z
" id="DejaVuSans-Oblique-105"/>
      <path d="M 55.71875 33.015625 
L 49.3125 0 
L 40.28125 0 
L 46.6875 32.671875 
Q 47.125 34.96875 47.359375 36.71875 
Q 47.609375 38.484375 47.609375 39.5 
Q 47.609375 43.609375 45.015625 45.890625 
Q 42.4375 48.1875 37.796875 48.1875 
Q 30.5625 48.1875 25.34375 43.375 
Q 20.125 38.578125 18.5 30.328125 
L 12.5 0 
L 3.515625 0 
L 14.109375 54.6875 
L 23.09375 54.6875 
L 21.296875 46.09375 
Q 25.046875 50.828125 30.3125 53.40625 
Q 35.59375 56 41.40625 56 
Q 48.640625 56 52.609375 52.09375 
Q 56.59375 48.1875 56.59375 41.109375 
Q 56.59375 39.359375 56.375 37.359375 
Q 56.15625 35.359375 55.71875 33.015625 
z
" id="DejaVuSans-Oblique-110"/>
     </defs>
     <use transform="translate(0 0.78125)" xlink:href="#DejaVuSans-Oblique-67"/>
     <use transform="translate(69.824219 -15.625)scale(0.7)" xlink:href="#DejaVuSans-Oblique-105"/>
     <use transform="translate(89.272461 -15.625)scale(0.7)" xlink:href="#DejaVuSans-Oblique-110"/>
    </g>
   </g>
   <g id="text_2">
    <!-- $L_{in}$ -->
    <g transform="translate(113.669757 212.893)scale(0.16 -0.16)">
     <defs>
      <path d="M 16.796875 72.90625 
L 26.703125 72.90625 
L 14.203125 8.203125 
L 49.703125 8.203125 
L 48.09375 0 
L 2.6875 0 
z
" id="DejaVuSans-Oblique-76"/>
     </defs>
     <use transform="translate(0 0.09375)" xlink:href="#DejaVuSans-Oblique-76"/>
     <use transform="translate(55.712891 -16.3125)scale(0.7)" xlink:href="#DejaVuSans-Oblique-105"/>
     <use transform="translate(75.161133 -16.3125)scale(0.7)" xlink:href="#DejaVuSans-Oblique-110"/>
    </g>
   </g>
   <g id="text_3">
    <!-- $V_{in}$ -->
    <g transform="translate(7.2 212.893)scale(0.16 -0.16)">
     <defs>
      <path d="M 20.609375 0 
L 7.8125 72.90625 
L 17.484375 72.90625 
L 28.078125 10.203125 
L 63.484375 72.90625 
L 74.21875 72.90625 
L 32.078125 0 
z
" id="DejaVuSans-Oblique-86"/>
     </defs>
     <use transform="translate(0 0.09375)" xlink:href="#DejaVuSans-Oblique-86"/>
     <use transform="translate(68.408203 -16.3125)scale(0.7)" xlink:href="#DejaVuSans-Oblique-105"/>
     <use transform="translate(87.856445 -16.3125)scale(0.7)" xlink:href="#DejaVuSans-Oblique-110"/>
    </g>
   </g>
   <g id="text_4">
    <!-- $C_1$ -->
    <g transform="translate(134.714 88.3)scale(0.16 -0.16)">
     <defs>
      <path d="M 12.40625 8.296875 
L 28.515625 8.296875 
L 28.515625 63.921875 
L 10.984375 60.40625 
L 10.984375 69.390625 
L 28.421875 72.90625 
L 38.28125 72.90625 
L 38.28125 8.296875 
L 54.390625 8.296875 
L 54.390625 0 
L 12.40625 0 
z
" id="DejaVuSans-49"/>
     </defs>
     <use transform="translate(0 0.78125)" xlink:href="#DejaVuSans-Oblique-67"/>
     <use transform="translate(69.824219 -15.625)scale(0.7)" xlink:href="#DejaVuSans-49"/>
    </g>
   </g>
   <g id="text_5">
    <!-- $V_{dd}$ -->
    <g transform="translate(152.054 19.3575)scale(0.16 -0.16)">
     <defs>
      <path d="M 41.796875 8.203125 
Q 38.1875 3.46875 33.25 1.015625 
Q 28.328125 -1.421875 22.3125 -1.421875 
Q 14.109375 -1.421875 9.34375 4.171875 
Q 4.59375 9.765625 4.59375 19.484375 
Q 4.59375 27.59375 7.46875 34.9375 
Q 10.359375 42.28125 15.828125 48.09375 
Q 19.4375 51.953125 23.96875 53.96875 
Q 28.515625 56 33.5 56 
Q 38.765625 56 42.796875 53.453125 
Q 46.828125 50.921875 49.03125 46.1875 
L 54.890625 75.984375 
L 63.921875 75.984375 
L 49.125 0 
L 40.09375 0 
z
M 13.921875 21.09375 
Q 13.921875 14.015625 17.109375 10.0625 
Q 20.3125 6.109375 25.984375 6.109375 
Q 30.171875 6.109375 33.765625 8.125 
Q 37.359375 10.15625 40.09375 14.109375 
Q 42.96875 18.21875 44.625 23.578125 
Q 46.296875 28.953125 46.296875 34.1875 
Q 46.296875 40.96875 43.09375 44.765625 
Q 39.890625 48.578125 34.28125 48.578125 
Q 30.03125 48.578125 26.359375 46.578125 
Q 22.703125 44.578125 20.125 40.828125 
Q 17.28125 36.765625 15.59375 31.390625 
Q 13.921875 26.03125 13.921875 21.09375 
z
" id="DejaVuSans-Oblique-100"/>
     </defs>
     <use transform="translate(0 0.09375)" xlink:href="#DejaVuSans-Oblique-86"/>
     <use transform="translate(68.408203 -16.3125)scale(0.7)" xlink:href="#DejaVuSans-Oblique-100"/>
     <use transform="translate(112.841797 -16.3125)scale(0.7)" xlink:href="#DejaVuSans-Oblique-100"/>
    </g>
   </g>
   <g id="patch_14">
    <path clip-path="url(#p6033ae4a0d)" d="M 164.934 132.08 
C 165.578444 132.08 166.196579 131.838184 166.652269 131.40781 
C 167.10796 130.977436 167.364 130.393641 167.364 129.785 
C 167.364 129.176359 167.10796 128.592564 166.652269 128.16219 
C 166.196579 127.731816 165.578444 127.49 164.934 127.49 
C 164.289556 127.49 163.671421 127.731816 163.215731 128.16219 
C 162.76004 128.592564 162.504 129.176359 162.504 129.785 
C 162.504 130.393641 162.76004 130.977436 163.215731 131.40781 
C 163.671421 131.838184 164.289556 132.08 164.934 132.08 
z
" style="stroke:#000000;stroke-linejoin:miter;stroke-width:2;"/>
   </g>
   <g id="patch_15">
    <path clip-path="url(#p6033ae4a0d)" d="M 164.934 58.64 
C 165.578444 58.64 166.196579 58.398184 166.652269 57.96781 
C 167.10796 57.537436 167.364 56.953641 167.364 56.345 
C 167.364 55.736359 167.10796 55.152564 166.652269 54.72219 
C 166.196579 54.291816 165.578444 54.05 164.934 54.05 
C 164.289556 54.05 163.671421 54.291816 163.215731 54.72219 
C 162.76004 55.152564 162.504 55.736359 162.504 56.345 
C 162.504 56.953641 162.76004 57.537436 163.215731 57.96781 
C 163.671421 58.398184 164.289556 58.64 164.934 58.64 
z
" style="stroke:#000000;stroke-linejoin:miter;stroke-width:2;"/>
   </g>
   <g id="patch_16">
    <path clip-path="url(#p6033ae4a0d)" d="M 294.534 70.88 
C 295.178444 70.88 295.796579 70.638184 296.252269 70.20781 
C 296.70796 69.777436 296.964 69.193641 296.964 68.585 
C 296.964 67.976359 296.70796 67.392564 296.252269 66.96219 
C 295.796579 66.531816 295.178444 66.29 294.534 66.29 
C 293.889556 66.29 293.271421 66.531816 292.815731 66.96219 
C 292.36004 67.392564 292.104 67.976359 292.104 68.585 
C 292.104 69.193641 292.36004 69.777436 292.815731 70.20781 
C 293.271421 70.638184 293.889556 70.88 294.534 70.88 
z
" style="fill:#ffffff;stroke:#000000;stroke-linejoin:miter;stroke-width:2;"/>
   </g>
   <g id="text_6">
    <!-- $v_{out}$ -->
    <g transform="translate(300.204 73)scale(0.16 -0.16)">
     <defs>
      <path d="M 7.171875 54.6875 
L 16.703125 54.6875 
L 24.703125 8.203125 
L 50.875 54.6875 
L 60.40625 54.6875 
L 29.296875 0 
L 17.1875 0 
z
" id="DejaVuSans-Oblique-118"/>
      <path d="M 25.390625 -1.421875 
Q 15.765625 -1.421875 10.171875 4.515625 
Q 4.59375 10.453125 4.59375 20.703125 
Q 4.59375 26.65625 6.515625 32.828125 
Q 8.453125 39.015625 11.53125 43.21875 
Q 16.359375 49.75 22.3125 52.875 
Q 28.265625 56 35.796875 56 
Q 45.125 56 50.859375 50.1875 
Q 56.59375 44.390625 56.59375 35.015625 
Q 56.59375 28.515625 54.6875 22.0625 
Q 52.78125 15.625 49.703125 11.375 
Q 44.921875 4.828125 38.96875 1.703125 
Q 33.015625 -1.421875 25.390625 -1.421875 
z
M 13.921875 21 
Q 13.921875 13.578125 17.015625 9.890625 
Q 20.125 6.203125 26.421875 6.203125 
Q 35.453125 6.203125 41.375 14.078125 
Q 47.3125 21.96875 47.3125 34.078125 
Q 47.3125 41.15625 44.140625 44.765625 
Q 40.96875 48.390625 34.8125 48.390625 
Q 29.734375 48.390625 25.78125 46.015625 
Q 21.828125 43.65625 18.703125 38.8125 
Q 16.40625 35.203125 15.15625 30.5625 
Q 13.921875 25.921875 13.921875 21 
z
" id="DejaVuSans-Oblique-111"/>
      <path d="M 6.6875 21.6875 
L 13.09375 54.6875 
L 22.125 54.6875 
L 15.71875 22.015625 
Q 15.234375 19.625 15.015625 17.921875 
Q 14.796875 16.21875 14.796875 15.09375 
Q 14.796875 10.9375 17.328125 8.65625 
Q 19.875 6.390625 24.515625 6.390625 
Q 31.734375 6.390625 37 11.265625 
Q 42.28125 16.15625 43.890625 24.421875 
L 49.90625 54.6875 
L 58.890625 54.6875 
L 48.296875 0 
L 39.3125 0 
L 41.109375 8.59375 
Q 37.3125 3.8125 32.0625 1.1875 
Q 26.8125 -1.421875 20.90625 -1.421875 
Q 13.71875 -1.421875 9.71875 2.515625 
Q 5.71875 6.453125 5.71875 13.484375 
Q 5.71875 14.9375 5.953125 17.140625 
Q 6.203125 19.34375 6.6875 21.6875 
z
" id="DejaVuSans-Oblique-117"/>
      <path d="M 42.28125 54.6875 
L 40.921875 47.703125 
L 23 47.703125 
L 17.1875 18.015625 
Q 16.890625 16.359375 16.75 15.234375 
Q 16.609375 14.109375 16.609375 13.484375 
Q 16.609375 10.359375 18.484375 8.9375 
Q 20.359375 7.515625 24.515625 7.515625 
L 33.59375 7.515625 
L 32.078125 0 
L 23.484375 0 
Q 15.484375 0 11.546875 3.125 
Q 7.625 6.25 7.625 12.59375 
Q 7.625 13.71875 7.765625 15.0625 
Q 7.90625 16.40625 8.203125 18.015625 
L 14.015625 47.703125 
L 6.390625 47.703125 
L 7.8125 54.6875 
L 15.28125 54.6875 
L 18.3125 70.21875 
L 27.296875 70.21875 
L 24.3125 54.6875 
z
" id="DejaVuSans-Oblique-116"/>
     </defs>
     <use transform="translate(0 0.3125)" xlink:href="#DejaVuSans-Oblique-118"/>
     <use transform="translate(59.179688 -16.09375)scale(0.7)" xlink:href="#DejaVuSans-Oblique-111"/>
     <use transform="translate(102.006836 -16.09375)scale(0.7)" xlink:href="#DejaVuSans-Oblique-117"/>
     <use transform="translate(146.37207 -16.09375)scale(0.7)" xlink:href="#DejaVuSans-Oblique-116"/>
    </g>
   </g>
  </g>
 </g>
 <defs>
  <clipPath id="p6033ae4a0d">
   <rect height="242.862" width="276.264" x="23.94" y="22.685"/>
  </clipPath>
 </defs>
</svg>
