<?xml version="1.0" encoding="utf-8" standalone="no"?>
<!DOCTYPE svg PUBLIC "-//W3C//DTD SVG 1.1//EN"
  "http://www.w3.org/Graphics/SVG/1.1/DTD/svg11.dtd">
<!-- Created with matplotlib (https://matplotlib.org/) -->
<svg height="249.797pt" version="1.1" viewBox="0 0 241.764 249.797" width="241.764pt" xmlns="http://www.w3.org/2000/svg" xmlns:xlink="http://www.w3.org/1999/xlink">
 <metadata>
  <rdf:RDF xmlns:cc="http://creativecommons.org/ns#" xmlns:dc="http://purl.org/dc/elements/1.1/" xmlns:rdf="http://www.w3.org/1999/02/22-rdf-syntax-ns#">
   <cc:Work>
    <dc:type rdf:resource="http://purl.org/dc/dcmitype/StillImage"/>
    <dc:date>2020-09-19T15:59:10.829348</dc:date>
    <dc:format>image/svg+xml</dc:format>
    <dc:creator>
     <cc:Agent>
      <dc:title>Matplotlib v3.3.2, https://matplotlib.org/</dc:title>
     </cc:Agent>
    </dc:creator>
   </cc:Work>
  </rdf:RDF>
 </metadata>
 <defs>
  <style type="text/css">*{stroke-linecap:butt;stroke-linejoin:round;}</style>
 </defs>
 <g id="figure_1">
  <g id="patch_1">
   <path d="M 0 249.797 
L 241.764 249.797 
L 241.764 0 
L 0 0 
z
" style="fill:none;"/>
  </g>
  <g id="axes_1">
   <g id="patch_2">
    <path clip-path="url(#p6ebfd2e630)" d="M 160.074 189.761 
L 153.045453 188.101482 
L 155.143474 185.789773 
L 147.589457 179.674617 
L 147.610543 179.651383 
L 155.16456 185.76654 
L 157.262581 183.454832 
z
" style="stroke:#000000;stroke-linejoin:miter;stroke-width:2;"/>
   </g>
   <g id="patch_3">
    <path clip-path="url(#p6ebfd2e630)" d="M 38.52 204.653 
C 40.668145 204.653 42.728597 203.846948 44.247565 202.412367 
C 45.766533 200.977786 46.62 199.031804 46.62 197.003 
C 46.62 194.974196 45.766533 193.028214 44.247565 191.593633 
C 42.728597 190.159052 40.668145 189.353 38.52 189.353 
C 36.371855 189.353 34.311403 190.159052 32.792435 191.593633 
C 31.273467 193.028214 30.42 194.974196 30.42 197.003 
C 30.42 199.031804 31.273467 200.977786 32.792435 202.412367 
C 34.311403 203.846948 36.371855 204.653 38.52 204.653 
z
" style="fill:none;stroke:#000000;stroke-linejoin:miter;stroke-width:2;"/>
   </g>
   <g id="line2d_1">
    <path clip-path="url(#p6ebfd2e630)" d="M 135.72 174.053 
L 147.6 174.053 
" style="fill:none;stroke:#000000;stroke-linecap:round;stroke-width:2;"/>
   </g>
   <g id="line2d_2">
    <path clip-path="url(#p6ebfd2e630)" d="M 147.6 162.833 
L 147.6 185.273 
" style="fill:none;stroke:#000000;stroke-linecap:round;stroke-width:2;"/>
   </g>
   <g id="line2d_3">
    <path clip-path="url(#p6ebfd2e630)" d="M 147.6 168.443 
L 160.074 158.345 
L 160.074 152.735 
" style="fill:none;stroke:#000000;stroke-linecap:round;stroke-width:2;"/>
   </g>
   <g id="line2d_4">
    <path clip-path="url(#p6ebfd2e630)" d="M 147.6 179.663 
L 160.074 189.761 
L 160.074 195.371 
" style="fill:none;stroke:#000000;stroke-linecap:round;stroke-width:2;"/>
   </g>
   <g id="line2d_5">
    <path clip-path="url(#p6ebfd2e630)" d="M 135.72 174.053 
L 103.32 174.053 
L 100.62 181.703 
L 95.22 166.403 
L 89.82 181.703 
L 84.42 166.403 
L 79.02 181.703 
L 73.62 166.403 
L 70.92 174.053 
L 38.52 174.053 
" style="fill:none;stroke:#000000;stroke-linecap:round;stroke-width:2;"/>
   </g>
   <g id="line2d_6">
    <path clip-path="url(#p6ebfd2e630)" d="M 38.52 174.053 
L 38.52 189.353 
L 38.52 189.353 
M 38.52 204.653 
L 38.52 204.653 
L 38.52 219.953 
" style="fill:none;stroke:#000000;stroke-linecap:round;stroke-width:2;"/>
   </g>
   <g id="line2d_7">
    <path clip-path="url(#p6ebfd2e630)" d="M 36.9 193.178 
L 40.14 193.178 
" style="fill:none;stroke:#000000;stroke-linecap:round;stroke-width:2;"/>
   </g>
   <g id="line2d_8">
    <path clip-path="url(#p6ebfd2e630)" d="M 38.52 199.298 
L 38.52 202.358 
" style="fill:none;stroke:#000000;stroke-linecap:round;stroke-width:2;"/>
   </g>
   <g id="line2d_9">
    <path clip-path="url(#p6ebfd2e630)" d="M 36.9 200.828 
L 40.14 200.828 
" style="fill:none;stroke:#000000;stroke-linecap:round;stroke-width:2;"/>
   </g>
   <g id="line2d_10">
    <path clip-path="url(#p6ebfd2e630)" d="M 38.52 219.953 
L 99.297 219.953 
L 160.074 219.953 
" style="fill:none;stroke:#000000;stroke-linecap:round;stroke-width:2;"/>
   </g>
   <g id="line2d_11">
    <path clip-path="url(#p6ebfd2e630)" d="M 160.074 219.953 
L 160.074 232.193 
L 151.974 232.193 
L 168.174 232.193 
M 154.404 235.865 
L 165.744 235.865 
M 158.454 239.537 
L 161.694 239.537 
" style="fill:none;stroke:#000000;stroke-linecap:round;stroke-width:2;"/>
   </g>
   <g id="line2d_12">
    <path clip-path="url(#p6ebfd2e630)" d="M 160.074 219.953 
L 160.074 207.662 
L 160.074 195.371 
" style="fill:none;stroke:#000000;stroke-linecap:round;stroke-width:2;"/>
   </g>
   <g id="line2d_13">
    <path clip-path="url(#p6ebfd2e630)" d="M 160.074 152.735 
L 160.074 141.26 
L 160.074 129.785 
" style="fill:none;stroke:#000000;stroke-linecap:round;stroke-width:2;"/>
   </g>
   <g id="line2d_14">
    <path clip-path="url(#p6ebfd2e630)" d="M 160.074 129.785 
L 160.074 86.639 
M 151.974 86.639 
L 168.174 86.639 
M 151.974 81.131 
L 168.174 81.131 
M 160.074 81.131 
L 160.074 37.985 
" style="fill:none;stroke:#000000;stroke-linecap:round;stroke-width:2;"/>
   </g>
   <g id="line2d_15">
    <path clip-path="url(#p6ebfd2e630)" d="M 160.074 129.785 
L 139.824 129.785 
L 119.574 129.785 
" style="fill:none;stroke:#000000;stroke-linecap:round;stroke-width:2;"/>
   </g>
   <g id="line2d_16">
    <path clip-path="url(#p6ebfd2e630)" d="M 119.574 129.785 
L 119.574 99.185 
L 116.906232 99.071041 
L 114.214404 98.724504 
L 111.724275 98.153099 
L 109.644688 97.383393 
L 108.150056 96.458585 
L 107.663507 95.955198 
L 107.365731 95.434883 
L 107.263004 94.905924 
L 107.357492 94.376788 
L 107.647204 93.855943 
L 108.126032 93.351686 
L 108.783883 92.87196 
L 110.577712 92.015145 
L 112.878243 91.336003 
L 115.492536 90.870138 
L 118.201332 90.635266 
L 120.777451 90.62973 
L 123.004835 90.83264 
L 124.696679 91.205624 
L 125.71109 91.696044 
L 125.935221 91.966011 
L 125.96299 92.241415 
L 125.793813 92.513767 
L 125.431254 92.774643 
L 124.160477 93.229652 
L 122.257237 93.546925 
L 119.881156 93.678499 
L 117.231512 93.591984 
L 114.530528 93.273281 
L 112.00473 92.727764 
L 109.865953 91.97983 
L 108.293573 91.070852 
L 107.763182 90.572713 
L 107.419463 90.055709 
L 107.269661 89.528054 
L 107.316934 88.998186 
L 107.560285 88.47459 
L 107.994584 87.965619 
L 108.610678 87.479319 
L 110.332747 86.604358 
L 112.582064 85.901733 
L 115.169981 85.409018 
L 117.879455 85.146181 
L 120.483246 85.11391 
L 122.762978 85.293558 
L 124.527453 85.648703 
L 125.628688 86.128204 
L 125.899308 86.395618 
L 125.974323 86.670491 
L 125.852153 86.944347 
L 125.535372 87.208729 
L 124.348647 87.676421 
L 122.513678 88.012988 
L 120.18436 88.168848 
L 117.556051 88.109574 
L 114.849182 87.818782 
L 112.290775 87.299506 
L 110.095398 86.573941 
L 108.447175 85.681585 
L 107.873586 85.189144 
L 107.484341 84.675923 
L 107.287645 84.150056 
L 107.287645 83.619944 
L 107.484341 83.094077 
L 107.873586 82.580856 
L 108.447175 82.088415 
L 109.19302 81.624451 
L 111.135289 80.809586 
L 113.537498 80.183248 
L 116.198178 79.776612 
L 118.89418 79.602426 
L 121.399396 79.653946 
L 123.503717 79.905494 
L 125.030657 80.314619 
L 125.852153 80.825653 
L 125.974323 81.099509 
L 125.899308 81.374382 
L 125.628688 81.641796 
L 124.527453 82.121297 
L 122.762978 82.476442 
L 120.483246 82.65609 
L 117.879455 82.623819 
L 115.169981 82.360982 
L 112.582064 81.868267 
L 110.332747 81.165642 
L 108.610678 80.290681 
L 107.994584 79.804381 
L 107.560285 79.29541 
L 107.316934 78.771814 
L 107.269661 78.241946 
L 107.419463 77.714291 
L 107.763182 77.197287 
L 108.293573 76.699148 
L 108.999456 76.227691 
L 110.874799 75.393123 
L 113.231928 74.742221 
L 115.873156 74.30822 
L 118.576966 74.106166 
L 121.116593 74.131647 
L 123.279044 74.361174 
L 124.882956 74.75414 
L 125.793813 75.256233 
L 125.96299 75.528585 
L 125.935221 75.803989 
L 125.71109 76.073956 
L 125.295322 76.330113 
L 123.927782 76.769125 
L 121.947295 77.062851 
L 119.519961 77.165302 
L 116.849358 77.046529 
L 114.159465 76.695141 
L 111.675878 76.119251 
L 109.606893 75.345805 
L 108.126032 74.418314 
L 107.647204 73.914057 
L 107.357492 73.393212 
L 107.263004 72.864076 
L 107.365731 72.335117 
L 107.663507 71.814802 
L 108.150056 71.311415 
L 108.815123 70.832882 
L 110.621267 69.979313 
L 112.930462 69.304327 
L 115.549038 68.843179 
L 118.257379 68.613191 
L 119.574 68.585 
L 119.574 37.985 
L 119.574 37.985 
" style="fill:none;stroke:#000000;stroke-linecap:round;stroke-width:2;"/>
   </g>
   <g id="line2d_17">
    <path clip-path="url(#p6ebfd2e630)" d="M 160.074 129.785 
L 180.324 129.785 
L 200.574 129.785 
" style="fill:none;stroke:#000000;stroke-linecap:round;stroke-width:2;"/>
   </g>
   <g id="line2d_18">
    <path clip-path="url(#p6ebfd2e630)" d="M 119.574 37.985 
L 119.574 25.745 
" style="fill:none;stroke:#000000;stroke-linecap:round;stroke-width:2;"/>
   </g>
   <g id="line2d_19">
    <path clip-path="url(#p6ebfd2e630)" d="M 119.574 25.745 
L 113.499 25.745 
" style="fill:none;stroke:#000000;stroke-linecap:round;stroke-width:2;"/>
   </g>
   <g id="line2d_20">
    <path clip-path="url(#p6ebfd2e630)" d="M 119.574 25.745 
L 125.649 25.745 
" style="fill:none;stroke:#000000;stroke-linecap:round;stroke-width:2;"/>
   </g>
   <g id="line2d_21">
    <path clip-path="url(#p6ebfd2e630)" d="M 160.074 37.985 
L 160.074 25.745 
" style="fill:none;stroke:#000000;stroke-linecap:round;stroke-width:2;"/>
   </g>
   <g id="line2d_22">
    <path clip-path="url(#p6ebfd2e630)" d="M 160.074 25.745 
L 153.999 25.745 
" style="fill:none;stroke:#000000;stroke-linecap:round;stroke-width:2;"/>
   </g>
   <g id="line2d_23">
    <path clip-path="url(#p6ebfd2e630)" d="M 160.074 25.745 
L 166.149 25.745 
" style="fill:none;stroke:#000000;stroke-linecap:round;stroke-width:2;"/>
   </g>
   <g id="text_1">
    <!-- $R_{in}$ -->
    <g transform="translate(76.16 160.0155)scale(0.16 -0.16)">
     <defs>
      <path d="M 25.203125 64.796875 
L 20.21875 38.921875 
L 32.90625 38.921875 
Q 40.375 38.921875 44.984375 43.046875 
Q 49.609375 47.171875 49.609375 53.8125 
Q 49.609375 59.125 46.5 61.953125 
Q 43.40625 64.796875 37.59375 64.796875 
z
M 43.3125 35.015625 
Q 46.4375 34.28125 48.515625 31.390625 
Q 50.59375 28.515625 53.328125 19.921875 
L 59.515625 0 
L 49.125 0 
L 43.40625 18.703125 
Q 41.21875 25.921875 38.328125 28.359375 
Q 35.453125 30.8125 29.5 30.8125 
L 18.609375 30.8125 
L 12.59375 0 
L 2.6875 0 
L 16.890625 72.90625 
L 39.109375 72.90625 
Q 49.21875 72.90625 54.609375 68.328125 
Q 60.015625 63.765625 60.015625 55.171875 
Q 60.015625 47.5625 55.421875 41.984375 
Q 50.828125 36.421875 43.3125 35.015625 
z
" id="DejaVuSans-Oblique-82"/>
      <path d="M 18.3125 75.984375 
L 27.296875 75.984375 
L 25.09375 64.59375 
L 16.109375 64.59375 
z
M 14.203125 54.6875 
L 23.1875 54.6875 
L 12.5 0 
L 3.515625 0 
z
" id="DejaVuSans-Oblique-105"/>
      <path d="M 55.71875 33.015625 
L 49.3125 0 
L 40.28125 0 
L 46.6875 32.671875 
Q 47.125 34.96875 47.359375 36.71875 
Q 47.609375 38.484375 47.609375 39.5 
Q 47.609375 43.609375 45.015625 45.890625 
Q 42.4375 48.1875 37.796875 48.1875 
Q 30.5625 48.1875 25.34375 43.375 
Q 20.125 38.578125 18.5 30.328125 
L 12.5 0 
L 3.515625 0 
L 14.109375 54.6875 
L 23.09375 54.6875 
L 21.296875 46.09375 
Q 25.046875 50.828125 30.3125 53.40625 
Q 35.59375 56 41.40625 56 
Q 48.640625 56 52.609375 52.09375 
Q 56.59375 48.1875 56.59375 41.109375 
Q 56.59375 39.359375 56.375 37.359375 
Q 56.15625 35.359375 55.71875 33.015625 
z
" id="DejaVuSans-Oblique-110"/>
     </defs>
     <use transform="translate(0 0.09375)" xlink:href="#DejaVuSans-Oblique-82"/>
     <use transform="translate(69.482422 -16.3125)scale(0.7)" xlink:href="#DejaVuSans-Oblique-105"/>
     <use transform="translate(88.930664 -16.3125)scale(0.7)" xlink:href="#DejaVuSans-Oblique-110"/>
    </g>
   </g>
   <g id="text_2">
    <!-- $V_{in}$ -->
    <g transform="translate(7.2 201.418)scale(0.16 -0.16)">
     <defs>
      <path d="M 20.609375 0 
L 7.8125 72.90625 
L 17.484375 72.90625 
L 28.078125 10.203125 
L 63.484375 72.90625 
L 74.21875 72.90625 
L 32.078125 0 
z
" id="DejaVuSans-Oblique-86"/>
     </defs>
     <use transform="translate(0 0.09375)" xlink:href="#DejaVuSans-Oblique-86"/>
     <use transform="translate(68.408203 -16.3125)scale(0.7)" xlink:href="#DejaVuSans-Oblique-105"/>
     <use transform="translate(87.856445 -16.3125)scale(0.7)" xlink:href="#DejaVuSans-Oblique-110"/>
    </g>
   </g>
   <g id="text_3">
    <!-- $C_1$ -->
    <g transform="translate(129.854 88.3)scale(0.16 -0.16)">
     <defs>
      <path d="M 69.484375 67.28125 
L 67.484375 56.890625 
Q 62.796875 61.625 57.546875 63.921875 
Q 52.296875 66.21875 46.1875 66.21875 
Q 37.84375 66.21875 31.515625 62.203125 
Q 25.203125 58.203125 20.609375 50 
Q 17.671875 44.734375 16.125 38.84375 
Q 14.59375 32.953125 14.59375 27 
Q 14.59375 17.046875 19.75 11.8125 
Q 24.90625 6.59375 34.71875 6.59375 
Q 41.5 6.59375 47.75 8.765625 
Q 54 10.9375 59.90625 15.28125 
L 57.625 3.609375 
Q 51.8125 1.125 45.875 -0.140625 
Q 39.9375 -1.421875 33.984375 -1.421875 
Q 19.96875 -1.421875 12.078125 6.1875 
Q 4.203125 13.8125 4.203125 27.390625 
Q 4.203125 36.078125 7.203125 44.46875 
Q 10.203125 52.875 15.828125 59.8125 
Q 21.78125 67.1875 29.421875 70.703125 
Q 37.0625 74.21875 47.21875 74.21875 
Q 53.46875 74.21875 59.0625 72.484375 
Q 64.65625 70.75 69.484375 67.28125 
z
" id="DejaVuSans-Oblique-67"/>
      <path d="M 12.40625 8.296875 
L 28.515625 8.296875 
L 28.515625 63.921875 
L 10.984375 60.40625 
L 10.984375 69.390625 
L 28.421875 72.90625 
L 38.28125 72.90625 
L 38.28125 8.296875 
L 54.390625 8.296875 
L 54.390625 0 
L 12.40625 0 
z
" id="DejaVuSans-49"/>
     </defs>
     <use transform="translate(0 0.78125)" xlink:href="#DejaVuSans-Oblique-67"/>
     <use transform="translate(69.824219 -15.625)scale(0.7)" xlink:href="#DejaVuSans-49"/>
    </g>
   </g>
   <g id="text_4">
    <!-- $L_1$ -->
    <g transform="translate(87.543004 88.3)scale(0.16 -0.16)">
     <defs>
      <path d="M 16.796875 72.90625 
L 26.703125 72.90625 
L 14.203125 8.203125 
L 49.703125 8.203125 
L 48.09375 0 
L 2.6875 0 
z
" id="DejaVuSans-Oblique-76"/>
     </defs>
     <use transform="translate(0 0.09375)" xlink:href="#DejaVuSans-Oblique-76"/>
     <use transform="translate(55.712891 -16.3125)scale(0.7)" xlink:href="#DejaVuSans-49"/>
    </g>
   </g>
   <g id="text_5">
    <!-- $V_{dd}$ -->
    <g transform="translate(106.694 19.3575)scale(0.16 -0.16)">
     <defs>
      <path d="M 41.796875 8.203125 
Q 38.1875 3.46875 33.25 1.015625 
Q 28.328125 -1.421875 22.3125 -1.421875 
Q 14.109375 -1.421875 9.34375 4.171875 
Q 4.59375 9.765625 4.59375 19.484375 
Q 4.59375 27.59375 7.46875 34.9375 
Q 10.359375 42.28125 15.828125 48.09375 
Q 19.4375 51.953125 23.96875 53.96875 
Q 28.515625 56 33.5 56 
Q 38.765625 56 42.796875 53.453125 
Q 46.828125 50.921875 49.03125 46.1875 
L 54.890625 75.984375 
L 63.921875 75.984375 
L 49.125 0 
L 40.09375 0 
z
M 13.921875 21.09375 
Q 13.921875 14.015625 17.109375 10.0625 
Q 20.3125 6.109375 25.984375 6.109375 
Q 30.171875 6.109375 33.765625 8.125 
Q 37.359375 10.15625 40.09375 14.109375 
Q 42.96875 18.21875 44.625 23.578125 
Q 46.296875 28.953125 46.296875 34.1875 
Q 46.296875 40.96875 43.09375 44.765625 
Q 39.890625 48.578125 34.28125 48.578125 
Q 30.03125 48.578125 26.359375 46.578125 
Q 22.703125 44.578125 20.125 40.828125 
Q 17.28125 36.765625 15.59375 31.390625 
Q 13.921875 26.03125 13.921875 21.09375 
z
" id="DejaVuSans-Oblique-100"/>
     </defs>
     <use transform="translate(0 0.09375)" xlink:href="#DejaVuSans-Oblique-86"/>
     <use transform="translate(68.408203 -16.3125)scale(0.7)" xlink:href="#DejaVuSans-Oblique-100"/>
     <use transform="translate(112.841797 -16.3125)scale(0.7)" xlink:href="#DejaVuSans-Oblique-100"/>
    </g>
   </g>
   <g id="text_6">
    <!-- $V_{dd2}$ -->
    <g transform="translate(143.674 19.3575)scale(0.16 -0.16)">
     <defs>
      <path d="M 19.1875 8.296875 
L 53.609375 8.296875 
L 53.609375 0 
L 7.328125 0 
L 7.328125 8.296875 
Q 12.9375 14.109375 22.625 23.890625 
Q 32.328125 33.6875 34.8125 36.53125 
Q 39.546875 41.84375 41.421875 45.53125 
Q 43.3125 49.21875 43.3125 52.78125 
Q 43.3125 58.59375 39.234375 62.25 
Q 35.15625 65.921875 28.609375 65.921875 
Q 23.96875 65.921875 18.8125 64.3125 
Q 13.671875 62.703125 7.8125 59.421875 
L 7.8125 69.390625 
Q 13.765625 71.78125 18.9375 73 
Q 24.125 74.21875 28.421875 74.21875 
Q 39.75 74.21875 46.484375 68.546875 
Q 53.21875 62.890625 53.21875 53.421875 
Q 53.21875 48.921875 51.53125 44.890625 
Q 49.859375 40.875 45.40625 35.40625 
Q 44.1875 33.984375 37.640625 27.21875 
Q 31.109375 20.453125 19.1875 8.296875 
z
" id="DejaVuSans-50"/>
     </defs>
     <use transform="translate(0 0.09375)" xlink:href="#DejaVuSans-Oblique-86"/>
     <use transform="translate(68.408203 -16.3125)scale(0.7)" xlink:href="#DejaVuSans-Oblique-100"/>
     <use transform="translate(112.841797 -16.3125)scale(0.7)" xlink:href="#DejaVuSans-Oblique-100"/>
     <use transform="translate(157.275391 -16.3125)scale(0.7)" xlink:href="#DejaVuSans-50"/>
    </g>
   </g>
   <g id="patch_4">
    <path clip-path="url(#p6ebfd2e630)" d="M 160.074 132.08 
C 160.718444 132.08 161.336579 131.838184 161.792269 131.40781 
C 162.24796 130.977436 162.504 130.393641 162.504 129.785 
C 162.504 129.176359 162.24796 128.592564 161.792269 128.16219 
C 161.336579 127.731816 160.718444 127.49 160.074 127.49 
C 159.429556 127.49 158.811421 127.731816 158.355731 128.16219 
C 157.90004 128.592564 157.644 129.176359 157.644 129.785 
C 157.644 130.393641 157.90004 130.977436 158.355731 131.40781 
C 158.811421 131.838184 159.429556 132.08 160.074 132.08 
z
" style="stroke:#000000;stroke-linejoin:miter;stroke-width:2;"/>
   </g>
   <g id="patch_5">
    <path clip-path="url(#p6ebfd2e630)" d="M 200.574 132.08 
C 201.218444 132.08 201.836579 131.838184 202.292269 131.40781 
C 202.74796 130.977436 203.004 130.393641 203.004 129.785 
C 203.004 129.176359 202.74796 128.592564 202.292269 128.16219 
C 201.836579 127.731816 201.218444 127.49 200.574 127.49 
C 199.929556 127.49 199.311421 127.731816 198.855731 128.16219 
C 198.40004 128.592564 198.144 129.176359 198.144 129.785 
C 198.144 130.393641 198.40004 130.977436 198.855731 131.40781 
C 199.311421 131.838184 199.929556 132.08 200.574 132.08 
z
" style="fill:#ffffff;stroke:#000000;stroke-linejoin:miter;stroke-width:2;"/>
   </g>
   <g id="text_7">
    <!-- $v_{out}$ -->
    <g transform="translate(206.244 134.2)scale(0.16 -0.16)">
     <defs>
      <path d="M 7.171875 54.6875 
L 16.703125 54.6875 
L 24.703125 8.203125 
L 50.875 54.6875 
L 60.40625 54.6875 
L 29.296875 0 
L 17.1875 0 
z
" id="DejaVuSans-Oblique-118"/>
      <path d="M 25.390625 -1.421875 
Q 15.765625 -1.421875 10.171875 4.515625 
Q 4.59375 10.453125 4.59375 20.703125 
Q 4.59375 26.65625 6.515625 32.828125 
Q 8.453125 39.015625 11.53125 43.21875 
Q 16.359375 49.75 22.3125 52.875 
Q 28.265625 56 35.796875 56 
Q 45.125 56 50.859375 50.1875 
Q 56.59375 44.390625 56.59375 35.015625 
Q 56.59375 28.515625 54.6875 22.0625 
Q 52.78125 15.625 49.703125 11.375 
Q 44.921875 4.828125 38.96875 1.703125 
Q 33.015625 -1.421875 25.390625 -1.421875 
z
M 13.921875 21 
Q 13.921875 13.578125 17.015625 9.890625 
Q 20.125 6.203125 26.421875 6.203125 
Q 35.453125 6.203125 41.375 14.078125 
Q 47.3125 21.96875 47.3125 34.078125 
Q 47.3125 41.15625 44.140625 44.765625 
Q 40.96875 48.390625 34.8125 48.390625 
Q 29.734375 48.390625 25.78125 46.015625 
Q 21.828125 43.65625 18.703125 38.8125 
Q 16.40625 35.203125 15.15625 30.5625 
Q 13.921875 25.921875 13.921875 21 
z
" id="DejaVuSans-Oblique-111"/>
      <path d="M 6.6875 21.6875 
L 13.09375 54.6875 
L 22.125 54.6875 
L 15.71875 22.015625 
Q 15.234375 19.625 15.015625 17.921875 
Q 14.796875 16.21875 14.796875 15.09375 
Q 14.796875 10.9375 17.328125 8.65625 
Q 19.875 6.390625 24.515625 6.390625 
Q 31.734375 6.390625 37 11.265625 
Q 42.28125 16.15625 43.890625 24.421875 
L 49.90625 54.6875 
L 58.890625 54.6875 
L 48.296875 0 
L 39.3125 0 
L 41.109375 8.59375 
Q 37.3125 3.8125 32.0625 1.1875 
Q 26.8125 -1.421875 20.90625 -1.421875 
Q 13.71875 -1.421875 9.71875 2.515625 
Q 5.71875 6.453125 5.71875 13.484375 
Q 5.71875 14.9375 5.953125 17.140625 
Q 6.203125 19.34375 6.6875 21.6875 
z
" id="DejaVuSans-Oblique-117"/>
      <path d="M 42.28125 54.6875 
L 40.921875 47.703125 
L 23 47.703125 
L 17.1875 18.015625 
Q 16.890625 16.359375 16.75 15.234375 
Q 16.609375 14.109375 16.609375 13.484375 
Q 16.609375 10.359375 18.484375 8.9375 
Q 20.359375 7.515625 24.515625 7.515625 
L 33.59375 7.515625 
L 32.078125 0 
L 23.484375 0 
Q 15.484375 0 11.546875 3.125 
Q 7.625 6.25 7.625 12.59375 
Q 7.625 13.71875 7.765625 15.0625 
Q 7.90625 16.40625 8.203125 18.015625 
L 14.015625 47.703125 
L 6.390625 47.703125 
L 7.8125 54.6875 
L 15.28125 54.6875 
L 18.3125 70.21875 
L 27.296875 70.21875 
L 24.3125 54.6875 
z
" id="DejaVuSans-Oblique-116"/>
     </defs>
     <use transform="translate(0 0.3125)" xlink:href="#DejaVuSans-Oblique-118"/>
     <use transform="translate(59.179688 -16.09375)scale(0.7)" xlink:href="#DejaVuSans-Oblique-111"/>
     <use transform="translate(102.006836 -16.09375)scale(0.7)" xlink:href="#DejaVuSans-Oblique-117"/>
     <use transform="translate(146.37207 -16.09375)scale(0.7)" xlink:href="#DejaVuSans-Oblique-116"/>
    </g>
   </g>
  </g>
 </g>
 <defs>
  <clipPath id="p6ebfd2e630">
   <rect height="219.912" width="187.164" x="19.08" y="22.685"/>
  </clipPath>
 </defs>
</svg>
