<?xml version="1.0" encoding="utf-8" standalone="no"?>
<!DOCTYPE svg PUBLIC "-//W3C//DTD SVG 1.1//EN"
  "http://www.w3.org/Graphics/SVG/1.1/DTD/svg11.dtd">
<!-- Created with matplotlib (https://matplotlib.org/) -->
<svg height="257.447pt" version="1.1" viewBox="0 0 663.072 257.447" width="663.072pt" xmlns="http://www.w3.org/2000/svg" xmlns:xlink="http://www.w3.org/1999/xlink">
 <metadata>
  <rdf:RDF xmlns:cc="http://creativecommons.org/ns#" xmlns:dc="http://purl.org/dc/elements/1.1/" xmlns:rdf="http://www.w3.org/1999/02/22-rdf-syntax-ns#">
   <cc:Work>
    <dc:type rdf:resource="http://purl.org/dc/dcmitype/StillImage"/>
    <dc:date>2020-09-19T15:51:11.925261</dc:date>
    <dc:format>image/svg+xml</dc:format>
    <dc:creator>
     <cc:Agent>
      <dc:title>Matplotlib v3.3.2, https://matplotlib.org/</dc:title>
     </cc:Agent>
    </dc:creator>
   </cc:Work>
  </rdf:RDF>
 </metadata>
 <defs>
  <style type="text/css">*{stroke-linecap:butt;stroke-linejoin:round;}</style>
 </defs>
 <g id="figure_1">
  <g id="patch_1">
   <path d="M 0 257.447 
L 663.072 257.447 
L 663.072 0 
L 0 0 
z
" style="fill:none;"/>
  </g>
  <g id="axes_1">
   <g id="patch_2">
    <path clip-path="url(#p1c4e2c83db)" d="M 160.074 197.411 
L 153.045453 195.751482 
L 155.143474 193.439773 
L 147.589457 187.324617 
L 147.610543 187.301383 
L 155.16456 193.41654 
L 157.262581 191.104832 
z
" style="stroke:#000000;stroke-linejoin:miter;stroke-width:2;"/>
   </g>
   <g id="patch_3">
    <path clip-path="url(#p1c4e2c83db)" d="M 38.52 212.303 
C 40.668145 212.303 42.728597 211.496948 44.247565 210.062367 
C 45.766533 208.627786 46.62 206.681804 46.62 204.653 
C 46.62 202.624196 45.766533 200.678214 44.247565 199.243633 
C 42.728597 197.809052 40.668145 197.003 38.52 197.003 
C 36.371855 197.003 34.311403 197.809052 32.792435 199.243633 
C 31.273467 200.678214 30.42 202.624196 30.42 204.653 
C 30.42 206.681804 31.273467 208.627786 32.792435 210.062367 
C 34.311403 211.496948 36.371855 212.303 38.52 212.303 
z
" style="fill:none;stroke:#000000;stroke-linejoin:miter;stroke-width:2;"/>
   </g>
   <g id="patch_4">
    <path clip-path="url(#p1c4e2c83db)" d="M 362.628 197.411 
L 355.599453 195.751482 
L 357.697474 193.439773 
L 350.143457 187.324617 
L 350.164543 187.301383 
L 357.71856 193.41654 
L 359.816581 191.104832 
z
" style="stroke:#000000;stroke-linejoin:miter;stroke-width:2;"/>
   </g>
   <g id="patch_5">
    <path clip-path="url(#p1c4e2c83db)" d="M 565.182 197.411 
L 558.153453 195.751482 
L 560.251474 193.439773 
L 552.697457 187.324617 
L 552.718543 187.301383 
L 560.27256 193.41654 
L 562.370581 191.104832 
z
" style="stroke:#000000;stroke-linejoin:miter;stroke-width:2;"/>
   </g>
   <g id="line2d_1">
    <path clip-path="url(#p1c4e2c83db)" d="M 135.72 181.703 
L 147.6 181.703 
" style="fill:none;stroke:#000000;stroke-linecap:round;stroke-width:2;"/>
   </g>
   <g id="line2d_2">
    <path clip-path="url(#p1c4e2c83db)" d="M 147.6 170.483 
L 147.6 192.923 
" style="fill:none;stroke:#000000;stroke-linecap:round;stroke-width:2;"/>
   </g>
   <g id="line2d_3">
    <path clip-path="url(#p1c4e2c83db)" d="M 147.6 176.093 
L 160.074 165.995 
L 160.074 160.385 
" style="fill:none;stroke:#000000;stroke-linecap:round;stroke-width:2;"/>
   </g>
   <g id="line2d_4">
    <path clip-path="url(#p1c4e2c83db)" d="M 147.6 187.313 
L 160.074 197.411 
L 160.074 203.021 
" style="fill:none;stroke:#000000;stroke-linecap:round;stroke-width:2;"/>
   </g>
   <g id="line2d_5">
    <path clip-path="url(#p1c4e2c83db)" d="M 135.72 181.703 
L 103.32 181.703 
L 100.62 189.353 
L 95.22 174.053 
L 89.82 189.353 
L 84.42 174.053 
L 79.02 189.353 
L 73.62 174.053 
L 70.92 181.703 
L 38.52 181.703 
" style="fill:none;stroke:#000000;stroke-linecap:round;stroke-width:2;"/>
   </g>
   <g id="line2d_6">
    <path clip-path="url(#p1c4e2c83db)" d="M 38.52 181.703 
L 38.52 197.003 
L 38.52 197.003 
M 38.52 212.303 
L 38.52 212.303 
L 38.52 227.603 
" style="fill:none;stroke:#000000;stroke-linecap:round;stroke-width:2;"/>
   </g>
   <g id="line2d_7">
    <path clip-path="url(#p1c4e2c83db)" d="M 36.9 200.828 
L 40.14 200.828 
" style="fill:none;stroke:#000000;stroke-linecap:round;stroke-width:2;"/>
   </g>
   <g id="line2d_8">
    <path clip-path="url(#p1c4e2c83db)" d="M 38.52 206.948 
L 38.52 210.008 
" style="fill:none;stroke:#000000;stroke-linecap:round;stroke-width:2;"/>
   </g>
   <g id="line2d_9">
    <path clip-path="url(#p1c4e2c83db)" d="M 36.9 208.478 
L 40.14 208.478 
" style="fill:none;stroke:#000000;stroke-linecap:round;stroke-width:2;"/>
   </g>
   <g id="line2d_10">
    <path clip-path="url(#p1c4e2c83db)" d="M 38.52 227.603 
L 99.297 227.603 
L 160.074 227.603 
" style="fill:none;stroke:#000000;stroke-linecap:round;stroke-width:2;"/>
   </g>
   <g id="line2d_11">
    <path clip-path="url(#p1c4e2c83db)" d="M 160.074 227.603 
L 160.074 239.843 
L 151.974 239.843 
L 168.174 239.843 
M 154.404 243.515 
L 165.744 243.515 
M 158.454 247.187 
L 161.694 247.187 
" style="fill:none;stroke:#000000;stroke-linecap:round;stroke-width:2;"/>
   </g>
   <g id="line2d_12">
    <path clip-path="url(#p1c4e2c83db)" d="M 160.074 227.603 
L 160.074 215.312 
L 160.074 203.021 
" style="fill:none;stroke:#000000;stroke-linecap:round;stroke-width:2;"/>
   </g>
   <g id="line2d_13">
    <path clip-path="url(#p1c4e2c83db)" d="M 160.074 160.385 
L 160.074 148.91 
L 160.074 137.435 
" style="fill:none;stroke:#000000;stroke-linecap:round;stroke-width:2;"/>
   </g>
   <g id="line2d_14">
    <path clip-path="url(#p1c4e2c83db)" d="M 160.074 137.435 
L 205.758 137.435 
M 205.758 129.785 
L 205.758 145.085 
M 211.59 129.785 
L 211.59 145.085 
M 211.59 137.435 
L 257.274 137.435 
" style="fill:none;stroke:#000000;stroke-linecap:round;stroke-width:2;"/>
   </g>
   <g id="line2d_15">
    <path clip-path="url(#p1c4e2c83db)" d="M 160.074 137.435 
L 160.074 106.835 
L 157.406232 106.721041 
L 154.714404 106.374504 
L 152.224275 105.803099 
L 150.144688 105.033393 
L 148.650056 104.108585 
L 148.163507 103.605198 
L 147.865731 103.084883 
L 147.763004 102.555924 
L 147.857492 102.026788 
L 148.147204 101.505943 
L 148.626032 101.001686 
L 149.283883 100.52196 
L 151.077712 99.665145 
L 153.378243 98.986003 
L 155.992536 98.520138 
L 158.701332 98.285266 
L 161.277451 98.27973 
L 163.504835 98.48264 
L 165.196679 98.855624 
L 166.21109 99.346044 
L 166.435221 99.616011 
L 166.46299 99.891415 
L 166.293813 100.163767 
L 165.931254 100.424643 
L 164.660477 100.879652 
L 162.757237 101.196925 
L 160.381156 101.328499 
L 157.731512 101.241984 
L 155.030528 100.923281 
L 152.50473 100.377764 
L 150.365953 99.62983 
L 148.793573 98.720852 
L 148.263182 98.222713 
L 147.919463 97.705709 
L 147.769661 97.178054 
L 147.816934 96.648186 
L 148.060285 96.12459 
L 148.494584 95.615619 
L 149.110678 95.129319 
L 150.832747 94.254358 
L 153.082064 93.551733 
L 155.669981 93.059018 
L 158.379455 92.796181 
L 160.983246 92.76391 
L 163.262978 92.943558 
L 165.027453 93.298703 
L 166.128688 93.778204 
L 166.399308 94.045618 
L 166.474323 94.320491 
L 166.352153 94.594347 
L 166.035372 94.858729 
L 164.848647 95.326421 
L 163.013678 95.662988 
L 160.68436 95.818848 
L 158.056051 95.759574 
L 155.349182 95.468782 
L 152.790775 94.949506 
L 150.595398 94.223941 
L 148.947175 93.331585 
L 148.373586 92.839144 
L 147.984341 92.325923 
L 147.787645 91.800056 
L 147.787645 91.269944 
L 147.984341 90.744077 
L 148.373586 90.230856 
L 148.947175 89.738415 
L 149.69302 89.274451 
L 151.635289 88.459586 
L 154.037498 87.833248 
L 156.698178 87.426612 
L 159.39418 87.252426 
L 161.899396 87.303946 
L 164.003717 87.555494 
L 165.530657 87.964619 
L 166.352153 88.475653 
L 166.474323 88.749509 
L 166.399308 89.024382 
L 166.128688 89.291796 
L 165.027453 89.771297 
L 163.262978 90.126442 
L 160.983246 90.30609 
L 158.379455 90.273819 
L 155.669981 90.010982 
L 153.082064 89.518267 
L 150.832747 88.815642 
L 149.110678 87.940681 
L 148.494584 87.454381 
L 148.060285 86.94541 
L 147.816934 86.421814 
L 147.769661 85.891946 
L 147.919463 85.364291 
L 148.263182 84.847287 
L 148.793573 84.349148 
L 149.499456 83.877691 
L 151.374799 83.043123 
L 153.731928 82.392221 
L 156.373156 81.95822 
L 159.076966 81.756166 
L 161.616593 81.781647 
L 163.779044 82.011174 
L 165.382956 82.40414 
L 166.293813 82.906233 
L 166.46299 83.178585 
L 166.435221 83.453989 
L 166.21109 83.723956 
L 165.795322 83.980113 
L 164.427782 84.419125 
L 162.447295 84.712851 
L 160.019961 84.815302 
L 157.349358 84.696529 
L 154.659465 84.345141 
L 152.175878 83.769251 
L 150.106893 82.995805 
L 148.626032 82.068314 
L 148.147204 81.564057 
L 147.857492 81.043212 
L 147.763004 80.514076 
L 147.865731 79.985117 
L 148.163507 79.464802 
L 148.650056 78.961415 
L 149.315123 78.482882 
L 151.121267 77.629313 
L 153.430462 76.954327 
L 156.049038 76.493179 
L 158.757379 76.263191 
L 160.074 76.235 
L 160.074 45.635 
L 160.074 45.635 
" style="fill:none;stroke:#000000;stroke-linecap:round;stroke-width:2;"/>
   </g>
   <g id="line2d_16">
    <path clip-path="url(#p1c4e2c83db)" d="M 160.074 45.635 
L 160.074 41.81 
L 160.074 37.985 
" style="fill:none;stroke:#000000;stroke-linecap:round;stroke-width:2;"/>
   </g>
   <g id="line2d_17">
    <path clip-path="url(#p1c4e2c83db)" d="M 160.074 45.635 
L 160.074 33.395 
" style="fill:none;stroke:#000000;stroke-linecap:round;stroke-width:2;"/>
   </g>
   <g id="line2d_18">
    <path clip-path="url(#p1c4e2c83db)" d="M 160.074 33.395 
L 153.999 33.395 
" style="fill:none;stroke:#000000;stroke-linecap:round;stroke-width:2;"/>
   </g>
   <g id="line2d_19">
    <path clip-path="url(#p1c4e2c83db)" d="M 160.074 33.395 
L 166.149 33.395 
" style="fill:none;stroke:#000000;stroke-linecap:round;stroke-width:2;"/>
   </g>
   <g id="line2d_20">
    <path clip-path="url(#p1c4e2c83db)" d="M 257.274 137.435 
L 257.274 106.835 
L 249.174 104.285 
L 265.374 99.185 
L 249.174 94.085 
L 265.374 88.985 
L 249.174 83.885 
L 265.374 78.785 
L 257.274 76.235 
L 257.274 45.635 
" style="fill:none;stroke:#000000;stroke-linecap:round;stroke-width:2;"/>
   </g>
   <g id="line2d_21">
    <path clip-path="url(#p1c4e2c83db)" d="M 257.274 45.635 
L 257.274 41.81 
L 257.274 37.985 
" style="fill:none;stroke:#000000;stroke-linecap:round;stroke-width:2;"/>
   </g>
   <g id="line2d_22">
    <path clip-path="url(#p1c4e2c83db)" d="M 257.274 37.985 
L 257.274 25.745 
" style="fill:none;stroke:#000000;stroke-linecap:round;stroke-width:2;"/>
   </g>
   <g id="line2d_23">
    <path clip-path="url(#p1c4e2c83db)" d="M 257.274 25.745 
L 251.199 25.745 
" style="fill:none;stroke:#000000;stroke-linecap:round;stroke-width:2;"/>
   </g>
   <g id="line2d_24">
    <path clip-path="url(#p1c4e2c83db)" d="M 257.274 25.745 
L 263.349 25.745 
" style="fill:none;stroke:#000000;stroke-linecap:round;stroke-width:2;"/>
   </g>
   <g id="line2d_25">
    <path clip-path="url(#p1c4e2c83db)" d="M 257.274 137.435 
L 257.274 159.569 
L 257.274 181.703 
" style="fill:none;stroke:#000000;stroke-linecap:round;stroke-width:2;"/>
   </g>
   <g id="line2d_26">
    <path clip-path="url(#p1c4e2c83db)" d="M 257.274 181.703 
L 297.774 181.703 
L 338.274 181.703 
" style="fill:none;stroke:#000000;stroke-linecap:round;stroke-width:2;"/>
   </g>
   <g id="line2d_27">
    <path clip-path="url(#p1c4e2c83db)" d="M 338.274 181.703 
L 350.154 181.703 
" style="fill:none;stroke:#000000;stroke-linecap:round;stroke-width:2;"/>
   </g>
   <g id="line2d_28">
    <path clip-path="url(#p1c4e2c83db)" d="M 350.154 170.483 
L 350.154 192.923 
" style="fill:none;stroke:#000000;stroke-linecap:round;stroke-width:2;"/>
   </g>
   <g id="line2d_29">
    <path clip-path="url(#p1c4e2c83db)" d="M 350.154 176.093 
L 362.628 165.995 
L 362.628 160.385 
" style="fill:none;stroke:#000000;stroke-linecap:round;stroke-width:2;"/>
   </g>
   <g id="line2d_30">
    <path clip-path="url(#p1c4e2c83db)" d="M 350.154 187.313 
L 362.628 197.411 
L 362.628 203.021 
" style="fill:none;stroke:#000000;stroke-linecap:round;stroke-width:2;"/>
   </g>
   <g id="line2d_31">
    <path clip-path="url(#p1c4e2c83db)" d="M 362.628 203.021 
L 362.628 215.312 
L 362.628 227.603 
" style="fill:none;stroke:#000000;stroke-linecap:round;stroke-width:2;"/>
   </g>
   <g id="line2d_32">
    <path clip-path="url(#p1c4e2c83db)" d="M 362.628 227.603 
L 362.628 239.843 
L 354.528 239.843 
L 370.728 239.843 
M 356.958 243.515 
L 368.298 243.515 
M 361.008 247.187 
L 364.248 247.187 
" style="fill:none;stroke:#000000;stroke-linecap:round;stroke-width:2;"/>
   </g>
   <g id="line2d_33">
    <path clip-path="url(#p1c4e2c83db)" d="M 362.628 160.385 
L 362.628 148.91 
L 362.628 137.435 
" style="fill:none;stroke:#000000;stroke-linecap:round;stroke-width:2;"/>
   </g>
   <g id="line2d_34">
    <path clip-path="url(#p1c4e2c83db)" d="M 362.628 137.435 
L 408.312 137.435 
M 408.312 129.785 
L 408.312 145.085 
M 414.144 129.785 
L 414.144 145.085 
M 414.144 137.435 
L 459.828 137.435 
" style="fill:none;stroke:#000000;stroke-linecap:round;stroke-width:2;"/>
   </g>
   <g id="line2d_35">
    <path clip-path="url(#p1c4e2c83db)" d="M 362.628 137.435 
L 362.628 106.835 
L 359.960232 106.721041 
L 357.268404 106.374504 
L 354.778275 105.803099 
L 352.698688 105.033393 
L 351.204056 104.108585 
L 350.717507 103.605198 
L 350.419731 103.084883 
L 350.317004 102.555924 
L 350.411492 102.026788 
L 350.701204 101.505943 
L 351.180032 101.001686 
L 351.837883 100.52196 
L 353.631712 99.665145 
L 355.932243 98.986003 
L 358.546536 98.520138 
L 361.255332 98.285266 
L 363.831451 98.27973 
L 366.058835 98.48264 
L 367.750679 98.855624 
L 368.76509 99.346044 
L 368.989221 99.616011 
L 369.01699 99.891415 
L 368.847813 100.163767 
L 368.485254 100.424643 
L 367.214477 100.879652 
L 365.311237 101.196925 
L 362.935156 101.328499 
L 360.285512 101.241984 
L 357.584528 100.923281 
L 355.05873 100.377764 
L 352.919953 99.62983 
L 351.347573 98.720852 
L 350.817182 98.222713 
L 350.473463 97.705709 
L 350.323661 97.178054 
L 350.370934 96.648186 
L 350.614285 96.12459 
L 351.048584 95.615619 
L 351.664678 95.129319 
L 353.386747 94.254358 
L 355.636064 93.551733 
L 358.223981 93.059018 
L 360.933455 92.796181 
L 363.537246 92.76391 
L 365.816978 92.943558 
L 367.581453 93.298703 
L 368.682688 93.778204 
L 368.953308 94.045618 
L 369.028323 94.320491 
L 368.906153 94.594347 
L 368.589372 94.858729 
L 367.402647 95.326421 
L 365.567678 95.662988 
L 363.23836 95.818848 
L 360.610051 95.759574 
L 357.903182 95.468782 
L 355.344775 94.949506 
L 353.149398 94.223941 
L 351.501175 93.331585 
L 350.927586 92.839144 
L 350.538341 92.325923 
L 350.341645 91.800056 
L 350.341645 91.269944 
L 350.538341 90.744077 
L 350.927586 90.230856 
L 351.501175 89.738415 
L 352.24702 89.274451 
L 354.189289 88.459586 
L 356.591498 87.833248 
L 359.252178 87.426612 
L 361.94818 87.252426 
L 364.453396 87.303946 
L 366.557717 87.555494 
L 368.084657 87.964619 
L 368.906153 88.475653 
L 369.028323 88.749509 
L 368.953308 89.024382 
L 368.682688 89.291796 
L 367.581453 89.771297 
L 365.816978 90.126442 
L 363.537246 90.30609 
L 360.933455 90.273819 
L 358.223981 90.010982 
L 355.636064 89.518267 
L 353.386747 88.815642 
L 351.664678 87.940681 
L 351.048584 87.454381 
L 350.614285 86.94541 
L 350.370934 86.421814 
L 350.323661 85.891946 
L 350.473463 85.364291 
L 350.817182 84.847287 
L 351.347573 84.349148 
L 352.053456 83.877691 
L 353.928799 83.043123 
L 356.285928 82.392221 
L 358.927156 81.95822 
L 361.630966 81.756166 
L 364.170593 81.781647 
L 366.333044 82.011174 
L 367.936956 82.40414 
L 368.847813 82.906233 
L 369.01699 83.178585 
L 368.989221 83.453989 
L 368.76509 83.723956 
L 368.349322 83.980113 
L 366.981782 84.419125 
L 365.001295 84.712851 
L 362.573961 84.815302 
L 359.903358 84.696529 
L 357.213465 84.345141 
L 354.729878 83.769251 
L 352.660893 82.995805 
L 351.180032 82.068314 
L 350.701204 81.564057 
L 350.411492 81.043212 
L 350.317004 80.514076 
L 350.419731 79.985117 
L 350.717507 79.464802 
L 351.204056 78.961415 
L 351.869123 78.482882 
L 353.675267 77.629313 
L 355.984462 76.954327 
L 358.603038 76.493179 
L 361.311379 76.263191 
L 362.628 76.235 
L 362.628 45.635 
L 362.628 45.635 
" style="fill:none;stroke:#000000;stroke-linecap:round;stroke-width:2;"/>
   </g>
   <g id="line2d_36">
    <path clip-path="url(#p1c4e2c83db)" d="M 362.628 45.635 
L 362.628 41.81 
L 362.628 37.985 
" style="fill:none;stroke:#000000;stroke-linecap:round;stroke-width:2;"/>
   </g>
   <g id="line2d_37">
    <path clip-path="url(#p1c4e2c83db)" d="M 362.628 45.635 
L 362.628 33.395 
" style="fill:none;stroke:#000000;stroke-linecap:round;stroke-width:2;"/>
   </g>
   <g id="line2d_38">
    <path clip-path="url(#p1c4e2c83db)" d="M 362.628 33.395 
L 356.553 33.395 
" style="fill:none;stroke:#000000;stroke-linecap:round;stroke-width:2;"/>
   </g>
   <g id="line2d_39">
    <path clip-path="url(#p1c4e2c83db)" d="M 362.628 33.395 
L 368.703 33.395 
" style="fill:none;stroke:#000000;stroke-linecap:round;stroke-width:2;"/>
   </g>
   <g id="line2d_40">
    <path clip-path="url(#p1c4e2c83db)" d="M 459.828 137.435 
L 459.828 106.835 
L 451.728 104.285 
L 467.928 99.185 
L 451.728 94.085 
L 467.928 88.985 
L 451.728 83.885 
L 467.928 78.785 
L 459.828 76.235 
L 459.828 45.635 
" style="fill:none;stroke:#000000;stroke-linecap:round;stroke-width:2;"/>
   </g>
   <g id="line2d_41">
    <path clip-path="url(#p1c4e2c83db)" d="M 459.828 45.635 
L 459.828 41.81 
L 459.828 37.985 
" style="fill:none;stroke:#000000;stroke-linecap:round;stroke-width:2;"/>
   </g>
   <g id="line2d_42">
    <path clip-path="url(#p1c4e2c83db)" d="M 459.828 37.985 
L 459.828 25.745 
" style="fill:none;stroke:#000000;stroke-linecap:round;stroke-width:2;"/>
   </g>
   <g id="line2d_43">
    <path clip-path="url(#p1c4e2c83db)" d="M 459.828 25.745 
L 453.753 25.745 
" style="fill:none;stroke:#000000;stroke-linecap:round;stroke-width:2;"/>
   </g>
   <g id="line2d_44">
    <path clip-path="url(#p1c4e2c83db)" d="M 459.828 25.745 
L 465.903 25.745 
" style="fill:none;stroke:#000000;stroke-linecap:round;stroke-width:2;"/>
   </g>
   <g id="line2d_45">
    <path clip-path="url(#p1c4e2c83db)" d="M 459.828 137.435 
L 459.828 159.569 
L 459.828 181.703 
" style="fill:none;stroke:#000000;stroke-linecap:round;stroke-width:2;"/>
   </g>
   <g id="line2d_46">
    <path clip-path="url(#p1c4e2c83db)" d="M 459.828 181.703 
L 500.328 181.703 
L 540.828 181.703 
" style="fill:none;stroke:#000000;stroke-linecap:round;stroke-width:2;"/>
   </g>
   <g id="line2d_47">
    <path clip-path="url(#p1c4e2c83db)" d="M 540.828 181.703 
L 552.708 181.703 
" style="fill:none;stroke:#000000;stroke-linecap:round;stroke-width:2;"/>
   </g>
   <g id="line2d_48">
    <path clip-path="url(#p1c4e2c83db)" d="M 552.708 170.483 
L 552.708 192.923 
" style="fill:none;stroke:#000000;stroke-linecap:round;stroke-width:2;"/>
   </g>
   <g id="line2d_49">
    <path clip-path="url(#p1c4e2c83db)" d="M 552.708 176.093 
L 565.182 165.995 
L 565.182 160.385 
" style="fill:none;stroke:#000000;stroke-linecap:round;stroke-width:2;"/>
   </g>
   <g id="line2d_50">
    <path clip-path="url(#p1c4e2c83db)" d="M 552.708 187.313 
L 565.182 197.411 
L 565.182 203.021 
" style="fill:none;stroke:#000000;stroke-linecap:round;stroke-width:2;"/>
   </g>
   <g id="line2d_51">
    <path clip-path="url(#p1c4e2c83db)" d="M 565.182 203.021 
L 565.182 215.312 
L 565.182 227.603 
" style="fill:none;stroke:#000000;stroke-linecap:round;stroke-width:2;"/>
   </g>
   <g id="line2d_52">
    <path clip-path="url(#p1c4e2c83db)" d="M 565.182 227.603 
L 565.182 239.843 
L 557.082 239.843 
L 573.282 239.843 
M 559.512 243.515 
L 570.852 243.515 
M 563.562 247.187 
L 566.802 247.187 
" style="fill:none;stroke:#000000;stroke-linecap:round;stroke-width:2;"/>
   </g>
   <g id="line2d_53">
    <path clip-path="url(#p1c4e2c83db)" d="M 565.182 160.385 
L 565.182 148.91 
L 565.182 137.435 
" style="fill:none;stroke:#000000;stroke-linecap:round;stroke-width:2;"/>
   </g>
   <g id="line2d_54">
    <path clip-path="url(#p1c4e2c83db)" d="M 565.182 137.435 
L 565.182 94.289 
M 557.082 94.289 
L 573.282 94.289 
M 557.082 88.781 
L 573.282 88.781 
M 565.182 88.781 
L 565.182 45.635 
" style="fill:none;stroke:#000000;stroke-linecap:round;stroke-width:2;"/>
   </g>
   <g id="line2d_55">
    <path clip-path="url(#p1c4e2c83db)" d="M 565.182 137.435 
L 544.932 137.435 
L 524.682 137.435 
" style="fill:none;stroke:#000000;stroke-linecap:round;stroke-width:2;"/>
   </g>
   <g id="line2d_56">
    <path clip-path="url(#p1c4e2c83db)" d="M 524.682 137.435 
L 524.682 106.835 
L 522.014232 106.721041 
L 519.322404 106.374504 
L 516.832275 105.803099 
L 514.752688 105.033393 
L 513.258056 104.108585 
L 512.771507 103.605198 
L 512.473731 103.084883 
L 512.371004 102.555924 
L 512.465492 102.026788 
L 512.755204 101.505943 
L 513.234032 101.001686 
L 513.891883 100.52196 
L 515.685712 99.665145 
L 517.986243 98.986003 
L 520.600536 98.520138 
L 523.309332 98.285266 
L 525.885451 98.27973 
L 528.112835 98.48264 
L 529.804679 98.855624 
L 530.81909 99.346044 
L 531.043221 99.616011 
L 531.07099 99.891415 
L 530.901813 100.163767 
L 530.539254 100.424643 
L 529.268477 100.879652 
L 527.365237 101.196925 
L 524.989156 101.328499 
L 522.339512 101.241984 
L 519.638528 100.923281 
L 517.11273 100.377764 
L 514.973953 99.62983 
L 513.401573 98.720852 
L 512.871182 98.222713 
L 512.527463 97.705709 
L 512.377661 97.178054 
L 512.424934 96.648186 
L 512.668285 96.12459 
L 513.102584 95.615619 
L 513.718678 95.129319 
L 515.440747 94.254358 
L 517.690064 93.551733 
L 520.277981 93.059018 
L 522.987455 92.796181 
L 525.591246 92.76391 
L 527.870978 92.943558 
L 529.635453 93.298703 
L 530.736688 93.778204 
L 531.007308 94.045618 
L 531.082323 94.320491 
L 530.960153 94.594347 
L 530.643372 94.858729 
L 529.456647 95.326421 
L 527.621678 95.662988 
L 525.29236 95.818848 
L 522.664051 95.759574 
L 519.957182 95.468782 
L 517.398775 94.949506 
L 515.203398 94.223941 
L 513.555175 93.331585 
L 512.981586 92.839144 
L 512.592341 92.325923 
L 512.395645 91.800056 
L 512.395645 91.269944 
L 512.592341 90.744077 
L 512.981586 90.230856 
L 513.555175 89.738415 
L 514.30102 89.274451 
L 516.243289 88.459586 
L 518.645498 87.833248 
L 521.306178 87.426612 
L 524.00218 87.252426 
L 526.507396 87.303946 
L 528.611717 87.555494 
L 530.138657 87.964619 
L 530.960153 88.475653 
L 531.082323 88.749509 
L 531.007308 89.024382 
L 530.736688 89.291796 
L 529.635453 89.771297 
L 527.870978 90.126442 
L 525.591246 90.30609 
L 522.987455 90.273819 
L 520.277981 90.010982 
L 517.690064 89.518267 
L 515.440747 88.815642 
L 513.718678 87.940681 
L 513.102584 87.454381 
L 512.668285 86.94541 
L 512.424934 86.421814 
L 512.377661 85.891946 
L 512.527463 85.364291 
L 512.871182 84.847287 
L 513.401573 84.349148 
L 514.107456 83.877691 
L 515.982799 83.043123 
L 518.339928 82.392221 
L 520.981156 81.95822 
L 523.684966 81.756166 
L 526.224593 81.781647 
L 528.387044 82.011174 
L 529.990956 82.40414 
L 530.901813 82.906233 
L 531.07099 83.178585 
L 531.043221 83.453989 
L 530.81909 83.723956 
L 530.403322 83.980113 
L 529.035782 84.419125 
L 527.055295 84.712851 
L 524.627961 84.815302 
L 521.957358 84.696529 
L 519.267465 84.345141 
L 516.783878 83.769251 
L 514.714893 82.995805 
L 513.234032 82.068314 
L 512.755204 81.564057 
L 512.465492 81.043212 
L 512.371004 80.514076 
L 512.473731 79.985117 
L 512.771507 79.464802 
L 513.258056 78.961415 
L 513.923123 78.482882 
L 515.729267 77.629313 
L 518.038462 76.954327 
L 520.657038 76.493179 
L 523.365379 76.263191 
L 524.682 76.235 
L 524.682 45.635 
L 524.682 45.635 
" style="fill:none;stroke:#000000;stroke-linecap:round;stroke-width:2;"/>
   </g>
   <g id="line2d_57">
    <path clip-path="url(#p1c4e2c83db)" d="M 565.182 137.435 
L 585.432 137.435 
L 605.682 137.435 
" style="fill:none;stroke:#000000;stroke-linecap:round;stroke-width:2;"/>
   </g>
   <g id="line2d_58">
    <path clip-path="url(#p1c4e2c83db)" d="M 605.682 137.435 
L 605.682 106.835 
L 597.582 104.285 
L 613.782 99.185 
L 597.582 94.085 
L 613.782 88.985 
L 597.582 83.885 
L 613.782 78.785 
L 605.682 76.235 
L 605.682 45.635 
" style="fill:none;stroke:#000000;stroke-linecap:round;stroke-width:2;"/>
   </g>
   <g id="line2d_59">
    <path clip-path="url(#p1c4e2c83db)" d="M 605.682 137.435 
L 613.782 137.435 
L 621.882 137.435 
" style="fill:none;stroke:#000000;stroke-linecap:round;stroke-width:2;"/>
   </g>
   <g id="line2d_60">
    <path clip-path="url(#p1c4e2c83db)" d="M 605.682 45.635 
L 585.432 45.635 
L 565.182 45.635 
" style="fill:none;stroke:#000000;stroke-linecap:round;stroke-width:2;"/>
   </g>
   <g id="line2d_61">
    <path clip-path="url(#p1c4e2c83db)" d="M 524.682 45.635 
L 544.932 45.635 
L 565.182 45.635 
" style="fill:none;stroke:#000000;stroke-linecap:round;stroke-width:2;"/>
   </g>
   <g id="line2d_62">
    <path clip-path="url(#p1c4e2c83db)" d="M 565.182 45.635 
L 565.182 41.81 
L 565.182 37.985 
" style="fill:none;stroke:#000000;stroke-linecap:round;stroke-width:2;"/>
   </g>
   <g id="line2d_63">
    <path clip-path="url(#p1c4e2c83db)" d="M 565.182 37.985 
L 565.182 25.745 
" style="fill:none;stroke:#000000;stroke-linecap:round;stroke-width:2;"/>
   </g>
   <g id="line2d_64">
    <path clip-path="url(#p1c4e2c83db)" d="M 565.182 25.745 
L 559.107 25.745 
" style="fill:none;stroke:#000000;stroke-linecap:round;stroke-width:2;"/>
   </g>
   <g id="line2d_65">
    <path clip-path="url(#p1c4e2c83db)" d="M 565.182 25.745 
L 571.257 25.745 
" style="fill:none;stroke:#000000;stroke-linecap:round;stroke-width:2;"/>
   </g>
   <g id="text_1">
    <!-- $R_{in}$ -->
    <g transform="translate(76.16 167.6655)scale(0.16 -0.16)">
     <defs>
      <path d="M 25.203125 64.796875 
L 20.21875 38.921875 
L 32.90625 38.921875 
Q 40.375 38.921875 44.984375 43.046875 
Q 49.609375 47.171875 49.609375 53.8125 
Q 49.609375 59.125 46.5 61.953125 
Q 43.40625 64.796875 37.59375 64.796875 
z
M 43.3125 35.015625 
Q 46.4375 34.28125 48.515625 31.390625 
Q 50.59375 28.515625 53.328125 19.921875 
L 59.515625 0 
L 49.125 0 
L 43.40625 18.703125 
Q 41.21875 25.921875 38.328125 28.359375 
Q 35.453125 30.8125 29.5 30.8125 
L 18.609375 30.8125 
L 12.59375 0 
L 2.6875 0 
L 16.890625 72.90625 
L 39.109375 72.90625 
Q 49.21875 72.90625 54.609375 68.328125 
Q 60.015625 63.765625 60.015625 55.171875 
Q 60.015625 47.5625 55.421875 41.984375 
Q 50.828125 36.421875 43.3125 35.015625 
z
" id="DejaVuSans-Oblique-82"/>
      <path d="M 18.3125 75.984375 
L 27.296875 75.984375 
L 25.09375 64.59375 
L 16.109375 64.59375 
z
M 14.203125 54.6875 
L 23.1875 54.6875 
L 12.5 0 
L 3.515625 0 
z
" id="DejaVuSans-Oblique-105"/>
      <path d="M 55.71875 33.015625 
L 49.3125 0 
L 40.28125 0 
L 46.6875 32.671875 
Q 47.125 34.96875 47.359375 36.71875 
Q 47.609375 38.484375 47.609375 39.5 
Q 47.609375 43.609375 45.015625 45.890625 
Q 42.4375 48.1875 37.796875 48.1875 
Q 30.5625 48.1875 25.34375 43.375 
Q 20.125 38.578125 18.5 30.328125 
L 12.5 0 
L 3.515625 0 
L 14.109375 54.6875 
L 23.09375 54.6875 
L 21.296875 46.09375 
Q 25.046875 50.828125 30.3125 53.40625 
Q 35.59375 56 41.40625 56 
Q 48.640625 56 52.609375 52.09375 
Q 56.59375 48.1875 56.59375 41.109375 
Q 56.59375 39.359375 56.375 37.359375 
Q 56.15625 35.359375 55.71875 33.015625 
z
" id="DejaVuSans-Oblique-110"/>
     </defs>
     <use transform="translate(0 0.09375)" xlink:href="#DejaVuSans-Oblique-82"/>
     <use transform="translate(69.482422 -16.3125)scale(0.7)" xlink:href="#DejaVuSans-Oblique-105"/>
     <use transform="translate(88.930664 -16.3125)scale(0.7)" xlink:href="#DejaVuSans-Oblique-110"/>
    </g>
   </g>
   <g id="text_2">
    <!-- $V_{in}$ -->
    <g transform="translate(7.2 209.068)scale(0.16 -0.16)">
     <defs>
      <path d="M 20.609375 0 
L 7.8125 72.90625 
L 17.484375 72.90625 
L 28.078125 10.203125 
L 63.484375 72.90625 
L 74.21875 72.90625 
L 32.078125 0 
z
" id="DejaVuSans-Oblique-86"/>
     </defs>
     <use transform="translate(0 0.09375)" xlink:href="#DejaVuSans-Oblique-86"/>
     <use transform="translate(68.408203 -16.3125)scale(0.7)" xlink:href="#DejaVuSans-Oblique-105"/>
     <use transform="translate(87.856445 -16.3125)scale(0.7)" xlink:href="#DejaVuSans-Oblique-110"/>
    </g>
   </g>
   <g id="text_3">
    <!-- $C_1$ -->
    <g transform="translate(199.234 123.3975)scale(0.16 -0.16)">
     <defs>
      <path d="M 69.484375 67.28125 
L 67.484375 56.890625 
Q 62.796875 61.625 57.546875 63.921875 
Q 52.296875 66.21875 46.1875 66.21875 
Q 37.84375 66.21875 31.515625 62.203125 
Q 25.203125 58.203125 20.609375 50 
Q 17.671875 44.734375 16.125 38.84375 
Q 14.59375 32.953125 14.59375 27 
Q 14.59375 17.046875 19.75 11.8125 
Q 24.90625 6.59375 34.71875 6.59375 
Q 41.5 6.59375 47.75 8.765625 
Q 54 10.9375 59.90625 15.28125 
L 57.625 3.609375 
Q 51.8125 1.125 45.875 -0.140625 
Q 39.9375 -1.421875 33.984375 -1.421875 
Q 19.96875 -1.421875 12.078125 6.1875 
Q 4.203125 13.8125 4.203125 27.390625 
Q 4.203125 36.078125 7.203125 44.46875 
Q 10.203125 52.875 15.828125 59.8125 
Q 21.78125 67.1875 29.421875 70.703125 
Q 37.0625 74.21875 47.21875 74.21875 
Q 53.46875 74.21875 59.0625 72.484375 
Q 64.65625 70.75 69.484375 67.28125 
z
" id="DejaVuSans-Oblique-67"/>
      <path d="M 12.40625 8.296875 
L 28.515625 8.296875 
L 28.515625 63.921875 
L 10.984375 60.40625 
L 10.984375 69.390625 
L 28.421875 72.90625 
L 38.28125 72.90625 
L 38.28125 8.296875 
L 54.390625 8.296875 
L 54.390625 0 
L 12.40625 0 
z
" id="DejaVuSans-49"/>
     </defs>
     <use transform="translate(0 0.78125)" xlink:href="#DejaVuSans-Oblique-67"/>
     <use transform="translate(69.824219 -15.625)scale(0.7)" xlink:href="#DejaVuSans-49"/>
    </g>
   </g>
   <g id="text_4">
    <!-- $L_1$ -->
    <g transform="translate(128.043004 95.95)scale(0.16 -0.16)">
     <defs>
      <path d="M 16.796875 72.90625 
L 26.703125 72.90625 
L 14.203125 8.203125 
L 49.703125 8.203125 
L 48.09375 0 
L 2.6875 0 
z
" id="DejaVuSans-Oblique-76"/>
     </defs>
     <use transform="translate(0 0.09375)" xlink:href="#DejaVuSans-Oblique-76"/>
     <use transform="translate(55.712891 -16.3125)scale(0.7)" xlink:href="#DejaVuSans-49"/>
    </g>
   </g>
   <g id="text_5">
    <!-- $V_{dd}$ -->
    <g transform="translate(147.194 27.0075)scale(0.16 -0.16)">
     <defs>
      <path d="M 41.796875 8.203125 
Q 38.1875 3.46875 33.25 1.015625 
Q 28.328125 -1.421875 22.3125 -1.421875 
Q 14.109375 -1.421875 9.34375 4.171875 
Q 4.59375 9.765625 4.59375 19.484375 
Q 4.59375 27.59375 7.46875 34.9375 
Q 10.359375 42.28125 15.828125 48.09375 
Q 19.4375 51.953125 23.96875 53.96875 
Q 28.515625 56 33.5 56 
Q 38.765625 56 42.796875 53.453125 
Q 46.828125 50.921875 49.03125 46.1875 
L 54.890625 75.984375 
L 63.921875 75.984375 
L 49.125 0 
L 40.09375 0 
z
M 13.921875 21.09375 
Q 13.921875 14.015625 17.109375 10.0625 
Q 20.3125 6.109375 25.984375 6.109375 
Q 30.171875 6.109375 33.765625 8.125 
Q 37.359375 10.15625 40.09375 14.109375 
Q 42.96875 18.21875 44.625 23.578125 
Q 46.296875 28.953125 46.296875 34.1875 
Q 46.296875 40.96875 43.09375 44.765625 
Q 39.890625 48.578125 34.28125 48.578125 
Q 30.03125 48.578125 26.359375 46.578125 
Q 22.703125 44.578125 20.125 40.828125 
Q 17.28125 36.765625 15.59375 31.390625 
Q 13.921875 26.03125 13.921875 21.09375 
z
" id="DejaVuSans-Oblique-100"/>
     </defs>
     <use transform="translate(0 0.09375)" xlink:href="#DejaVuSans-Oblique-86"/>
     <use transform="translate(68.408203 -16.3125)scale(0.7)" xlink:href="#DejaVuSans-Oblique-100"/>
     <use transform="translate(112.841797 -16.3125)scale(0.7)" xlink:href="#DejaVuSans-Oblique-100"/>
    </g>
   </g>
   <g id="text_6">
    <!-- $R_{b2}$ -->
    <g transform="translate(220.014 95.95)scale(0.16 -0.16)">
     <defs>
      <path d="M 49.515625 33.40625 
Q 49.515625 40.484375 46.265625 44.484375 
Q 43.015625 48.484375 37.3125 48.484375 
Q 33.15625 48.484375 29.515625 46.453125 
Q 25.875 44.4375 23.1875 40.578125 
Q 20.359375 36.53125 18.71875 31.171875 
Q 17.09375 25.828125 17.09375 20.515625 
Q 17.09375 13.765625 20.28125 9.9375 
Q 23.484375 6.109375 29.109375 6.109375 
Q 33.34375 6.109375 36.953125 8.078125 
Q 40.578125 10.0625 43.3125 13.921875 
Q 46.09375 17.921875 47.796875 23.234375 
Q 49.515625 28.5625 49.515625 33.40625 
z
M 21.578125 46.390625 
Q 24.90625 50.875 29.90625 53.4375 
Q 34.90625 56 40.375 56 
Q 48.78125 56 53.734375 50.328125 
Q 58.6875 44.671875 58.6875 35.015625 
Q 58.6875 27.09375 55.78125 19.671875 
Q 52.875 12.25 47.515625 6.5 
Q 44 2.6875 39.40625 0.625 
Q 34.8125 -1.421875 29.78125 -1.421875 
Q 24.46875 -1.421875 20.5625 1.015625 
Q 16.65625 3.46875 14.203125 8.296875 
L 12.59375 0 
L 3.609375 0 
L 18.40625 75.984375 
L 27.390625 75.984375 
z
" id="DejaVuSans-Oblique-98"/>
      <path d="M 19.1875 8.296875 
L 53.609375 8.296875 
L 53.609375 0 
L 7.328125 0 
L 7.328125 8.296875 
Q 12.9375 14.109375 22.625 23.890625 
Q 32.328125 33.6875 34.8125 36.53125 
Q 39.546875 41.84375 41.421875 45.53125 
Q 43.3125 49.21875 43.3125 52.78125 
Q 43.3125 58.59375 39.234375 62.25 
Q 35.15625 65.921875 28.609375 65.921875 
Q 23.96875 65.921875 18.8125 64.3125 
Q 13.671875 62.703125 7.8125 59.421875 
L 7.8125 69.390625 
Q 13.765625 71.78125 18.9375 73 
Q 24.125 74.21875 28.421875 74.21875 
Q 39.75 74.21875 46.484375 68.546875 
Q 53.21875 62.890625 53.21875 53.421875 
Q 53.21875 48.921875 51.53125 44.890625 
Q 49.859375 40.875 45.40625 35.40625 
Q 44.1875 33.984375 37.640625 27.21875 
Q 31.109375 20.453125 19.1875 8.296875 
z
" id="DejaVuSans-50"/>
     </defs>
     <use transform="translate(0 0.09375)" xlink:href="#DejaVuSans-Oblique-82"/>
     <use transform="translate(69.482422 -16.3125)scale(0.7)" xlink:href="#DejaVuSans-Oblique-98"/>
     <use transform="translate(113.916016 -16.3125)scale(0.7)" xlink:href="#DejaVuSans-50"/>
    </g>
   </g>
   <g id="text_7">
    <!-- $V_{dd}$ -->
    <g transform="translate(244.394 19.3575)scale(0.16 -0.16)">
     <use transform="translate(0 0.09375)" xlink:href="#DejaVuSans-Oblique-86"/>
     <use transform="translate(68.408203 -16.3125)scale(0.7)" xlink:href="#DejaVuSans-Oblique-100"/>
     <use transform="translate(112.841797 -16.3125)scale(0.7)" xlink:href="#DejaVuSans-Oblique-100"/>
    </g>
   </g>
   <g id="text_8">
    <!-- $C_2$ -->
    <g transform="translate(401.788 123.3975)scale(0.16 -0.16)">
     <use transform="translate(0 0.78125)" xlink:href="#DejaVuSans-Oblique-67"/>
     <use transform="translate(69.824219 -15.625)scale(0.7)" xlink:href="#DejaVuSans-50"/>
    </g>
   </g>
   <g id="text_9">
    <!-- $L_2$ -->
    <g transform="translate(330.597004 95.95)scale(0.16 -0.16)">
     <use transform="translate(0 0.09375)" xlink:href="#DejaVuSans-Oblique-76"/>
     <use transform="translate(55.712891 -16.3125)scale(0.7)" xlink:href="#DejaVuSans-50"/>
    </g>
   </g>
   <g id="text_10">
    <!-- $V_{dd}$ -->
    <g transform="translate(349.748 27.0075)scale(0.16 -0.16)">
     <use transform="translate(0 0.09375)" xlink:href="#DejaVuSans-Oblique-86"/>
     <use transform="translate(68.408203 -16.3125)scale(0.7)" xlink:href="#DejaVuSans-Oblique-100"/>
     <use transform="translate(112.841797 -16.3125)scale(0.7)" xlink:href="#DejaVuSans-Oblique-100"/>
    </g>
   </g>
   <g id="text_11">
    <!-- $R_{b3}$ -->
    <g transform="translate(422.568 95.95)scale(0.16 -0.16)">
     <defs>
      <path d="M 40.578125 39.3125 
Q 47.65625 37.796875 51.625 33 
Q 55.609375 28.21875 55.609375 21.1875 
Q 55.609375 10.40625 48.1875 4.484375 
Q 40.765625 -1.421875 27.09375 -1.421875 
Q 22.515625 -1.421875 17.65625 -0.515625 
Q 12.796875 0.390625 7.625 2.203125 
L 7.625 11.71875 
Q 11.71875 9.328125 16.59375 8.109375 
Q 21.484375 6.890625 26.8125 6.890625 
Q 36.078125 6.890625 40.9375 10.546875 
Q 45.796875 14.203125 45.796875 21.1875 
Q 45.796875 27.640625 41.28125 31.265625 
Q 36.765625 34.90625 28.71875 34.90625 
L 20.21875 34.90625 
L 20.21875 43.015625 
L 29.109375 43.015625 
Q 36.375 43.015625 40.234375 45.921875 
Q 44.09375 48.828125 44.09375 54.296875 
Q 44.09375 59.90625 40.109375 62.90625 
Q 36.140625 65.921875 28.71875 65.921875 
Q 24.65625 65.921875 20.015625 65.03125 
Q 15.375 64.15625 9.8125 62.3125 
L 9.8125 71.09375 
Q 15.4375 72.65625 20.34375 73.4375 
Q 25.25 74.21875 29.59375 74.21875 
Q 40.828125 74.21875 47.359375 69.109375 
Q 53.90625 64.015625 53.90625 55.328125 
Q 53.90625 49.265625 50.4375 45.09375 
Q 46.96875 40.921875 40.578125 39.3125 
z
" id="DejaVuSans-51"/>
     </defs>
     <use transform="translate(0 0.09375)" xlink:href="#DejaVuSans-Oblique-82"/>
     <use transform="translate(69.482422 -16.3125)scale(0.7)" xlink:href="#DejaVuSans-Oblique-98"/>
     <use transform="translate(113.916016 -16.3125)scale(0.7)" xlink:href="#DejaVuSans-51"/>
    </g>
   </g>
   <g id="text_12">
    <!-- $V_{dd}$ -->
    <g transform="translate(446.948 19.3575)scale(0.16 -0.16)">
     <use transform="translate(0 0.09375)" xlink:href="#DejaVuSans-Oblique-86"/>
     <use transform="translate(68.408203 -16.3125)scale(0.7)" xlink:href="#DejaVuSans-Oblique-100"/>
     <use transform="translate(112.841797 -16.3125)scale(0.7)" xlink:href="#DejaVuSans-Oblique-100"/>
    </g>
   </g>
   <g id="text_13">
    <!-- $C_3$ -->
    <g transform="translate(534.962 95.95)scale(0.16 -0.16)">
     <use transform="translate(0 0.78125)" xlink:href="#DejaVuSans-Oblique-67"/>
     <use transform="translate(69.824219 -15.625)scale(0.7)" xlink:href="#DejaVuSans-51"/>
    </g>
   </g>
   <g id="text_14">
    <!-- $L_3$ -->
    <g transform="translate(492.651004 95.95)scale(0.16 -0.16)">
     <use transform="translate(0 0.09375)" xlink:href="#DejaVuSans-Oblique-76"/>
     <use transform="translate(55.712891 -16.3125)scale(0.7)" xlink:href="#DejaVuSans-51"/>
    </g>
   </g>
   <g id="text_15">
    <!-- $R_L$ -->
    <g transform="translate(576.422 95.95)scale(0.16 -0.16)">
     <use transform="translate(0 0.09375)" xlink:href="#DejaVuSans-Oblique-82"/>
     <use transform="translate(69.482422 -16.3125)scale(0.7)" xlink:href="#DejaVuSans-Oblique-76"/>
    </g>
   </g>
   <g id="text_16">
    <!-- $V_{dd}$ -->
    <g transform="translate(552.302 19.3575)scale(0.16 -0.16)">
     <use transform="translate(0 0.09375)" xlink:href="#DejaVuSans-Oblique-86"/>
     <use transform="translate(68.408203 -16.3125)scale(0.7)" xlink:href="#DejaVuSans-Oblique-100"/>
     <use transform="translate(112.841797 -16.3125)scale(0.7)" xlink:href="#DejaVuSans-Oblique-100"/>
    </g>
   </g>
   <g id="patch_6">
    <path clip-path="url(#p1c4e2c83db)" d="M 160.074 139.73 
C 160.718444 139.73 161.336579 139.488184 161.792269 139.05781 
C 162.24796 138.627436 162.504 138.043641 162.504 137.435 
C 162.504 136.826359 162.24796 136.242564 161.792269 135.81219 
C 161.336579 135.381816 160.718444 135.14 160.074 135.14 
C 159.429556 135.14 158.811421 135.381816 158.355731 135.81219 
C 157.90004 136.242564 157.644 136.826359 157.644 137.435 
C 157.644 138.043641 157.90004 138.627436 158.355731 139.05781 
C 158.811421 139.488184 159.429556 139.73 160.074 139.73 
z
" style="stroke:#000000;stroke-linejoin:miter;stroke-width:2;"/>
   </g>
   <g id="patch_7">
    <path clip-path="url(#p1c4e2c83db)" d="M 257.274 139.73 
C 257.918444 139.73 258.536579 139.488184 258.992269 139.05781 
C 259.44796 138.627436 259.704 138.043641 259.704 137.435 
C 259.704 136.826359 259.44796 136.242564 258.992269 135.81219 
C 258.536579 135.381816 257.918444 135.14 257.274 135.14 
C 256.629556 135.14 256.011421 135.381816 255.555731 135.81219 
C 255.10004 136.242564 254.844 136.826359 254.844 137.435 
C 254.844 138.043641 255.10004 138.627436 255.555731 139.05781 
C 256.011421 139.488184 256.629556 139.73 257.274 139.73 
z
" style="stroke:#000000;stroke-linejoin:miter;stroke-width:2;"/>
   </g>
   <g id="patch_8">
    <path clip-path="url(#p1c4e2c83db)" d="M 362.628 139.73 
C 363.272444 139.73 363.890579 139.488184 364.346269 139.05781 
C 364.80196 138.627436 365.058 138.043641 365.058 137.435 
C 365.058 136.826359 364.80196 136.242564 364.346269 135.81219 
C 363.890579 135.381816 363.272444 135.14 362.628 135.14 
C 361.983556 135.14 361.365421 135.381816 360.909731 135.81219 
C 360.45404 136.242564 360.198 136.826359 360.198 137.435 
C 360.198 138.043641 360.45404 138.627436 360.909731 139.05781 
C 361.365421 139.488184 361.983556 139.73 362.628 139.73 
z
" style="stroke:#000000;stroke-linejoin:miter;stroke-width:2;"/>
   </g>
   <g id="patch_9">
    <path clip-path="url(#p1c4e2c83db)" d="M 459.828 139.73 
C 460.472444 139.73 461.090579 139.488184 461.546269 139.05781 
C 462.00196 138.627436 462.258 138.043641 462.258 137.435 
C 462.258 136.826359 462.00196 136.242564 461.546269 135.81219 
C 461.090579 135.381816 460.472444 135.14 459.828 135.14 
C 459.183556 135.14 458.565421 135.381816 458.109731 135.81219 
C 457.65404 136.242564 457.398 136.826359 457.398 137.435 
C 457.398 138.043641 457.65404 138.627436 458.109731 139.05781 
C 458.565421 139.488184 459.183556 139.73 459.828 139.73 
z
" style="stroke:#000000;stroke-linejoin:miter;stroke-width:2;"/>
   </g>
   <g id="patch_10">
    <path clip-path="url(#p1c4e2c83db)" d="M 565.182 139.73 
C 565.826444 139.73 566.444579 139.488184 566.900269 139.05781 
C 567.35596 138.627436 567.612 138.043641 567.612 137.435 
C 567.612 136.826359 567.35596 136.242564 566.900269 135.81219 
C 566.444579 135.381816 565.826444 135.14 565.182 135.14 
C 564.537556 135.14 563.919421 135.381816 563.463731 135.81219 
C 563.00804 136.242564 562.752 136.826359 562.752 137.435 
C 562.752 138.043641 563.00804 138.627436 563.463731 139.05781 
C 563.919421 139.488184 564.537556 139.73 565.182 139.73 
z
" style="stroke:#000000;stroke-linejoin:miter;stroke-width:2;"/>
   </g>
   <g id="patch_11">
    <path clip-path="url(#p1c4e2c83db)" d="M 621.882 139.73 
C 622.526444 139.73 623.144579 139.488184 623.600269 139.05781 
C 624.05596 138.627436 624.312 138.043641 624.312 137.435 
C 624.312 136.826359 624.05596 136.242564 623.600269 135.81219 
C 623.144579 135.381816 622.526444 135.14 621.882 135.14 
C 621.237556 135.14 620.619421 135.381816 620.163731 135.81219 
C 619.70804 136.242564 619.452 136.826359 619.452 137.435 
C 619.452 138.043641 619.70804 138.627436 620.163731 139.05781 
C 620.619421 139.488184 621.237556 139.73 621.882 139.73 
z
" style="fill:#ffffff;stroke:#000000;stroke-linejoin:miter;stroke-width:2;"/>
   </g>
   <g id="patch_12">
    <path clip-path="url(#p1c4e2c83db)" d="M 565.182 47.93 
C 565.826444 47.93 566.444579 47.688184 566.900269 47.25781 
C 567.35596 46.827436 567.612 46.243641 567.612 45.635 
C 567.612 45.026359 567.35596 44.442564 566.900269 44.01219 
C 566.444579 43.581816 565.826444 43.34 565.182 43.34 
C 564.537556 43.34 563.919421 43.581816 563.463731 44.01219 
C 563.00804 44.442564 562.752 45.026359 562.752 45.635 
C 562.752 46.243641 563.00804 46.827436 563.463731 47.25781 
C 563.919421 47.688184 564.537556 47.93 565.182 47.93 
z
" style="stroke:#000000;stroke-linejoin:miter;stroke-width:2;"/>
   </g>
   <g id="text_17">
    <!-- $v_{out}$ -->
    <g transform="translate(627.552 141.85)scale(0.16 -0.16)">
     <defs>
      <path d="M 7.171875 54.6875 
L 16.703125 54.6875 
L 24.703125 8.203125 
L 50.875 54.6875 
L 60.40625 54.6875 
L 29.296875 0 
L 17.1875 0 
z
" id="DejaVuSans-Oblique-118"/>
      <path d="M 25.390625 -1.421875 
Q 15.765625 -1.421875 10.171875 4.515625 
Q 4.59375 10.453125 4.59375 20.703125 
Q 4.59375 26.65625 6.515625 32.828125 
Q 8.453125 39.015625 11.53125 43.21875 
Q 16.359375 49.75 22.3125 52.875 
Q 28.265625 56 35.796875 56 
Q 45.125 56 50.859375 50.1875 
Q 56.59375 44.390625 56.59375 35.015625 
Q 56.59375 28.515625 54.6875 22.0625 
Q 52.78125 15.625 49.703125 11.375 
Q 44.921875 4.828125 38.96875 1.703125 
Q 33.015625 -1.421875 25.390625 -1.421875 
z
M 13.921875 21 
Q 13.921875 13.578125 17.015625 9.890625 
Q 20.125 6.203125 26.421875 6.203125 
Q 35.453125 6.203125 41.375 14.078125 
Q 47.3125 21.96875 47.3125 34.078125 
Q 47.3125 41.15625 44.140625 44.765625 
Q 40.96875 48.390625 34.8125 48.390625 
Q 29.734375 48.390625 25.78125 46.015625 
Q 21.828125 43.65625 18.703125 38.8125 
Q 16.40625 35.203125 15.15625 30.5625 
Q 13.921875 25.921875 13.921875 21 
z
" id="DejaVuSans-Oblique-111"/>
      <path d="M 6.6875 21.6875 
L 13.09375 54.6875 
L 22.125 54.6875 
L 15.71875 22.015625 
Q 15.234375 19.625 15.015625 17.921875 
Q 14.796875 16.21875 14.796875 15.09375 
Q 14.796875 10.9375 17.328125 8.65625 
Q 19.875 6.390625 24.515625 6.390625 
Q 31.734375 6.390625 37 11.265625 
Q 42.28125 16.15625 43.890625 24.421875 
L 49.90625 54.6875 
L 58.890625 54.6875 
L 48.296875 0 
L 39.3125 0 
L 41.109375 8.59375 
Q 37.3125 3.8125 32.0625 1.1875 
Q 26.8125 -1.421875 20.90625 -1.421875 
Q 13.71875 -1.421875 9.71875 2.515625 
Q 5.71875 6.453125 5.71875 13.484375 
Q 5.71875 14.9375 5.953125 17.140625 
Q 6.203125 19.34375 6.6875 21.6875 
z
" id="DejaVuSans-Oblique-117"/>
      <path d="M 42.28125 54.6875 
L 40.921875 47.703125 
L 23 47.703125 
L 17.1875 18.015625 
Q 16.890625 16.359375 16.75 15.234375 
Q 16.609375 14.109375 16.609375 13.484375 
Q 16.609375 10.359375 18.484375 8.9375 
Q 20.359375 7.515625 24.515625 7.515625 
L 33.59375 7.515625 
L 32.078125 0 
L 23.484375 0 
Q 15.484375 0 11.546875 3.125 
Q 7.625 6.25 7.625 12.59375 
Q 7.625 13.71875 7.765625 15.0625 
Q 7.90625 16.40625 8.203125 18.015625 
L 14.015625 47.703125 
L 6.390625 47.703125 
L 7.8125 54.6875 
L 15.28125 54.6875 
L 18.3125 70.21875 
L 27.296875 70.21875 
L 24.3125 54.6875 
z
" id="DejaVuSans-Oblique-116"/>
     </defs>
     <use transform="translate(0 0.3125)" xlink:href="#DejaVuSans-Oblique-118"/>
     <use transform="translate(59.179688 -16.09375)scale(0.7)" xlink:href="#DejaVuSans-Oblique-111"/>
     <use transform="translate(102.006836 -16.09375)scale(0.7)" xlink:href="#DejaVuSans-Oblique-117"/>
     <use transform="translate(146.37207 -16.09375)scale(0.7)" xlink:href="#DejaVuSans-Oblique-116"/>
    </g>
   </g>
  </g>
 </g>
 <defs>
  <clipPath id="p1c4e2c83db">
   <rect height="227.562" width="608.472" x="19.08" y="22.685"/>
  </clipPath>
 </defs>
</svg>
