<?xml version="1.0" encoding="utf-8" standalone="no"?>
<!DOCTYPE svg PUBLIC "-//W3C//DTD SVG 1.1//EN"
  "http://www.w3.org/Graphics/SVG/1.1/DTD/svg11.dtd">
<svg xmlns:xlink="http://www.w3.org/1999/xlink" width="287.0052pt" height="260.764pt" viewBox="0 0 287.0052 260.764" xmlns="http://www.w3.org/2000/svg" version="1.1">
 <metadata>
  <rdf:RDF xmlns:dc="http://purl.org/dc/elements/1.1/" xmlns:cc="http://creativecommons.org/ns#" xmlns:rdf="http://www.w3.org/1999/02/22-rdf-syntax-ns#">
   <cc:Work>
    <dc:type rdf:resource="http://purl.org/dc/dcmitype/StillImage"/>
    <dc:date>2022-01-07T01:02:48.613436</dc:date>
    <dc:format>image/svg+xml</dc:format>
    <dc:creator>
     <cc:Agent>
      <dc:title>Matplotlib v3.5.1, https://matplotlib.org/</dc:title>
     </cc:Agent>
    </dc:creator>
   </cc:Work>
  </rdf:RDF>
 </metadata>
 <defs>
  <style type="text/css">*{stroke-linejoin: round; stroke-linecap: butt}</style>
 </defs>
 <g id="figure_1">
  <g id="patch_1">
   <path d="M 0 260.764 
L 287.0052 260.764 
L 287.0052 0 
L 0 0 
L 0 260.764 
z
" style="fill: none"/>
  </g>
  <g id="axes_1">
   <g id="line2d_1">
    <path d="M 40.4418 47.32 
L 40.4418 35.08 
" clip-path="url(#p1cbc41d816)" style="fill: none; stroke: #000000; stroke-width: 2; stroke-linecap: round"/>
   </g>
   <g id="line2d_2">
    <path d="M 40.4418 35.08 
L 34.7043 35.08 
" clip-path="url(#p1cbc41d816)" style="fill: none; stroke: #000000; stroke-width: 2; stroke-linecap: round"/>
   </g>
   <g id="line2d_3">
    <path d="M 40.4418 35.08 
L 46.1793 35.08 
" clip-path="url(#p1cbc41d816)" style="fill: none; stroke: #000000; stroke-width: 2; stroke-linecap: round"/>
   </g>
   <g id="line2d_4">
    <path d="M 40.4418 47.32 
L 40.4418 77.92 
L 42.961359 78.033959 
L 45.503641 78.380496 
L 47.855429 78.951901 
L 49.819483 79.721607 
L 51.23108 80.646415 
L 51.690599 81.149802 
L 51.971832 81.670117 
L 52.068852 82.199076 
L 51.979613 82.728212 
L 51.705997 83.249057 
L 51.25377 83.753314 
L 50.632466 84.23304 
L 48.938294 85.089855 
L 46.76557 85.768997 
L 44.296516 86.234862 
L 41.738208 86.469734 
L 39.305208 86.47527 
L 37.201567 86.27236 
L 35.603714 85.899376 
L 34.645659 85.408956 
L 34.43398 85.138989 
L 34.407753 84.863585 
L 34.567532 84.591233 
L 34.909949 84.330357 
L 36.110127 83.875348 
L 37.907632 83.558075 
L 40.151708 83.426501 
L 42.654149 83.513016 
L 45.205079 83.831719 
L 47.590555 84.377236 
L 49.610511 85.12517 
L 51.095537 86.034148 
L 51.596462 86.532287 
L 51.921085 87.049291 
L 52.062564 87.576946 
L 52.017918 88.106814 
L 51.788087 88.63041 
L 51.377915 89.139381 
L 50.796048 89.625681 
L 49.16965 90.500642 
L 47.045296 91.203267 
L 44.601151 91.695982 
L 42.042204 91.958819 
L 39.583068 91.99109 
L 37.429988 91.811442 
L 35.763539 91.456297 
L 34.723484 90.976796 
L 34.467898 90.709382 
L 34.39705 90.434509 
L 34.512433 90.160653 
L 34.811616 89.896271 
L 35.932411 89.428579 
L 37.665438 89.092012 
L 39.865349 88.936152 
L 42.347641 88.995426 
L 44.904128 89.286218 
L 47.320402 89.805494 
L 49.393813 90.531059 
L 50.950468 91.423415 
L 51.492191 91.915856 
L 51.859812 92.429077 
L 52.045579 92.954944 
L 52.045579 93.485056 
L 51.859812 94.010923 
L 51.492191 94.524144 
L 50.950468 95.016585 
L 49.393813 95.908941 
L 47.320402 96.634506 
L 44.904128 97.153782 
L 42.347641 97.444574 
L 39.865349 97.503848 
L 37.665438 97.347988 
L 35.932411 97.011421 
L 34.811616 96.543729 
L 34.512433 96.279347 
L 34.39705 96.005491 
L 34.467898 95.730618 
L 34.723484 95.463204 
L 35.763539 94.983703 
L 37.429988 94.628558 
L 39.583068 94.44891 
L 42.042204 94.481181 
L 44.601151 94.744018 
L 47.045296 95.236733 
L 49.16965 95.939358 
L 50.796048 96.814319 
L 51.377915 97.300619 
L 51.788087 97.80959 
L 52.017918 98.333186 
L 52.062564 98.863054 
L 51.921085 99.390709 
L 51.596462 99.907713 
L 51.095537 100.405852 
L 50.428869 100.877309 
L 48.657712 101.711877 
L 46.431534 102.362779 
L 43.937042 102.79678 
L 41.383444 102.998834 
L 38.984906 102.973353 
L 36.942592 102.743826 
L 35.427786 102.35086 
L 34.567532 101.848767 
L 34.407753 101.576415 
L 34.43398 101.301011 
L 34.645659 101.031044 
L 35.03833 100.774887 
L 36.329895 100.335875 
L 38.200355 100.042149 
L 40.492836 99.939698 
L 43.015073 100.058471 
L 45.555528 100.409859 
L 47.901138 100.985749 
L 49.855179 101.759195 
L 51.25377 102.686686 
L 51.705997 103.190943 
L 51.979613 103.711788 
L 52.068852 104.240924 
L 51.971832 104.769883 
L 51.690599 105.290198 
L 51.23108 105.793585 
L 50.602962 106.272118 
L 48.897159 107.125687 
L 46.716253 107.800673 
L 44.243153 108.261821 
L 41.685275 108.491809 
L 40.4418 108.52 
L 40.4418 139.12 
L 40.4418 139.12 
" clip-path="url(#p1cbc41d816)" style="fill: none; stroke: #000000; stroke-width: 2; stroke-linecap: round"/>
   </g>
   <g id="line2d_5">
    <path d="M 40.4418 139.12 
L 83.5878 139.12 
M 83.5878 131.47 
L 83.5878 146.77 
M 89.0958 131.47 
L 89.0958 146.77 
M 89.0958 139.12 
L 132.2418 139.12 
" clip-path="url(#p1cbc41d816)" style="fill: none; stroke: #000000; stroke-width: 2; stroke-linecap: round"/>
   </g>
   <g id="line2d_6">
    <path d="M 132.2418 139.12 
L 162.8418 139.12 
L 162.955759 136.600441 
L 163.302296 134.058159 
L 163.873701 131.706371 
L 164.643407 129.742317 
L 165.568215 128.33072 
L 166.071602 127.871201 
L 166.591917 127.589968 
L 167.120876 127.492948 
L 167.650012 127.582187 
L 168.170857 127.855803 
L 168.675114 128.30803 
L 169.15484 128.929334 
L 170.011655 130.623506 
L 170.690797 132.79623 
L 171.156662 135.265284 
L 171.391534 137.823592 
L 171.39707 140.256592 
L 171.19416 142.360233 
L 170.821176 143.958086 
L 170.330756 144.916141 
L 170.060789 145.12782 
L 169.785385 145.154047 
L 169.513033 144.994268 
L 169.252157 144.651851 
L 168.797148 143.451673 
L 168.479875 141.654168 
L 168.348301 139.410092 
L 168.434816 136.907651 
L 168.753519 134.356721 
L 169.299036 131.971245 
L 170.04697 129.951289 
L 170.955948 128.466263 
L 171.454087 127.965338 
L 171.971091 127.640715 
L 172.498746 127.499236 
L 173.028614 127.543882 
L 173.55221 127.773713 
L 174.061181 128.183885 
L 174.547481 128.765752 
L 175.422442 130.39215 
L 176.125067 132.516504 
L 176.617782 134.960649 
L 176.880619 137.519596 
L 176.91289 139.978732 
L 176.733242 142.131812 
L 176.378097 143.798261 
L 175.898596 144.838316 
L 175.631182 145.093902 
L 175.356309 145.16475 
L 175.082453 145.049367 
L 174.818071 144.750184 
L 174.350379 143.629389 
L 174.013812 141.896362 
L 173.857952 139.696451 
L 173.917226 137.214159 
L 174.208018 134.657672 
L 174.727294 132.241398 
L 175.452859 130.167987 
L 176.345215 128.611332 
L 176.837656 128.069609 
L 177.350877 127.701988 
L 177.876744 127.516221 
L 178.406856 127.516221 
L 178.932723 127.701988 
L 179.445944 128.069609 
L 179.938385 128.611332 
L 180.830741 130.167987 
L 181.556306 132.241398 
L 182.075582 134.657672 
L 182.366374 137.214159 
L 182.425648 139.696451 
L 182.269788 141.896362 
L 181.933221 143.629389 
L 181.465529 144.750184 
L 181.201147 145.049367 
L 180.927291 145.16475 
L 180.652418 145.093902 
L 180.385004 144.838316 
L 179.905503 143.798261 
L 179.550358 142.131812 
L 179.37071 139.978732 
L 179.402981 137.519596 
L 179.665818 134.960649 
L 180.158533 132.516504 
L 180.861158 130.39215 
L 181.736119 128.765752 
L 182.222419 128.183885 
L 182.73139 127.773713 
L 183.254986 127.543882 
L 183.784854 127.499236 
L 184.312509 127.640715 
L 184.829513 127.965338 
L 185.327652 128.466263 
L 185.799109 129.132931 
L 186.633677 130.904088 
L 187.284579 133.130266 
L 187.71858 135.624758 
L 187.920634 138.178356 
L 187.895153 140.576894 
L 187.665626 142.619208 
L 187.27266 144.134014 
L 186.770567 144.994268 
L 186.498215 145.154047 
L 186.222811 145.12782 
L 185.952844 144.916141 
L 185.696687 144.52347 
L 185.257675 143.231905 
L 184.963949 141.361445 
L 184.861498 139.068964 
L 184.980271 136.546727 
L 185.331659 134.006272 
L 185.907549 131.660662 
L 186.680995 129.706621 
L 187.608486 128.30803 
L 188.112743 127.855803 
L 188.633588 127.582187 
L 189.162724 127.492948 
L 189.691683 127.589968 
L 190.211998 127.871201 
L 190.715385 128.33072 
L 191.193918 128.958838 
L 192.047487 130.664641 
L 192.722473 132.845547 
L 193.183621 135.318647 
L 193.413609 137.876525 
L 193.4418 139.12 
L 224.0418 139.12 
L 224.0418 139.12 
" clip-path="url(#p1cbc41d816)" style="fill: none; stroke: #000000; stroke-width: 2; stroke-linecap: round"/>
   </g>
   <g id="line2d_7">
    <path d="M 224.0418 139.12 
L 224.0418 169.72 
L 231.6918 172.27 
L 216.3918 177.37 
L 231.6918 182.47 
L 216.3918 187.57 
L 231.6918 192.67 
L 216.3918 197.77 
L 224.0418 200.32 
L 224.0418 230.92 
" clip-path="url(#p1cbc41d816)" style="fill: none; stroke: #000000; stroke-width: 2; stroke-linecap: round"/>
   </g>
   <g id="line2d_8">
    <path d="M 224.0418 139.12 
L 231.6918 139.12 
L 239.3418 139.12 
" clip-path="url(#p1cbc41d816)" style="fill: none; stroke: #000000; stroke-width: 2; stroke-linecap: round"/>
   </g>
   <g id="line2d_9">
    <path d="M 224.0418 230.92 
L 231.6918 230.92 
L 239.3418 230.92 
" clip-path="url(#p1cbc41d816)" style="fill: none; stroke: #000000; stroke-width: 2; stroke-linecap: round"/>
   </g>
   <g id="line2d_10">
    <path d="M 224.0418 230.92 
L 132.2418 230.92 
L 40.4418 230.92 
" clip-path="url(#p1cbc41d816)" style="fill: none; stroke: #000000; stroke-width: 2; stroke-linecap: round"/>
   </g>
   <g id="line2d_11">
    <path d="M 40.4418 139.12 
L 40.4418 182.266 
M 48.0918 182.266 
L 32.7918 182.266 
M 48.0918 187.774 
L 32.7918 187.774 
M 40.4418 187.774 
L 40.4418 230.92 
" clip-path="url(#p1cbc41d816)" style="fill: none; stroke: #000000; stroke-width: 2; stroke-linecap: round"/>
   </g>
   <g id="line2d_12">
    <path d="M 40.4418 230.92 
L 40.4418 243.16 
L 32.7918 243.16 
L 48.0918 243.16 
M 35.0868 246.832 
L 45.7968 246.832 
M 38.9118 250.504 
L 41.9718 250.504 
" clip-path="url(#p1cbc41d816)" style="fill: none; stroke: #000000; stroke-width: 2; stroke-linecap: round"/>
   </g>
   <g id="text_1">
    <g clip-path="url(#p1cbc41d816)">
     <!-- $V_{dd}$ -->
     <g transform="translate(30.3793 29.420391)scale(0.125 -0.125)">
      <defs>
       <path id="DejaVuSans-Oblique-56" d="M 1319 0 
L 500 4666 
L 1119 4666 
L 1797 653 
L 4063 4666 
L 4750 4666 
L 2053 0 
L 1319 0 
z
" transform="scale(0.015625)"/>
       <path id="DejaVuSans-Oblique-64" d="M 2675 525 
Q 2444 222 2128 65 
Q 1813 -91 1428 -91 
Q 903 -91 598 267 
Q 294 625 294 1247 
Q 294 1766 478 2236 
Q 663 2706 1013 3078 
Q 1244 3325 1534 3454 
Q 1825 3584 2144 3584 
Q 2481 3584 2739 3421 
Q 2997 3259 3138 2956 
L 3513 4863 
L 4091 4863 
L 3144 0 
L 2566 0 
L 2675 525 
z
M 891 1350 
Q 891 897 1095 644 
Q 1300 391 1663 391 
Q 1931 391 2161 520 
Q 2391 650 2566 903 
Q 2750 1166 2856 1509 
Q 2963 1853 2963 2188 
Q 2963 2622 2758 2865 
Q 2553 3109 2194 3109 
Q 1922 3109 1687 2981 
Q 1453 2853 1288 2613 
Q 1106 2353 998 2009 
Q 891 1666 891 1350 
z
" transform="scale(0.015625)"/>
      </defs>
      <use xlink:href="#DejaVuSans-Oblique-56" transform="translate(0 0.09375)"/>
      <use xlink:href="#DejaVuSans-Oblique-64" transform="translate(68.408203 -16.3125)scale(0.7)"/>
      <use xlink:href="#DejaVuSans-Oblique-64" transform="translate(112.841797 -16.3125)scale(0.7)"/>
     </g>
    </g>
   </g>
   <g id="text_2">
    <g clip-path="url(#p1cbc41d816)">
     <!-- $L_1$ -->
     <g transform="translate(18.46205 96.669219)scale(0.125 -0.125)">
      <defs>
       <path id="DejaVuSans-Oblique-4c" d="M 1075 4666 
L 1709 4666 
L 909 525 
L 3181 525 
L 3078 0 
L 172 0 
L 1075 4666 
z
" transform="scale(0.015625)"/>
       <path id="DejaVuSans-31" d="M 794 531 
L 1825 531 
L 1825 4091 
L 703 3866 
L 703 4441 
L 1819 4666 
L 2450 4666 
L 2450 531 
L 3481 531 
L 3481 0 
L 794 0 
L 794 531 
z
" transform="scale(0.015625)"/>
      </defs>
      <use xlink:href="#DejaVuSans-Oblique-4c" transform="translate(0 0.09375)"/>
      <use xlink:href="#DejaVuSans-31" transform="translate(55.712891 -16.3125)scale(0.7)"/>
     </g>
    </g>
   </g>
   <g id="text_3">
    <g clip-path="url(#p1cbc41d816)">
     <!-- $C_2$ -->
     <g transform="translate(78.9668 125.810391)scale(0.125 -0.125)">
      <defs>
       <path id="DejaVuSans-Oblique-43" d="M 4447 4306 
L 4319 3641 
Q 4019 3944 3683 4091 
Q 3347 4238 2956 4238 
Q 2422 4238 2017 3981 
Q 1613 3725 1319 3200 
Q 1131 2863 1032 2486 
Q 934 2109 934 1728 
Q 934 1091 1264 756 
Q 1594 422 2222 422 
Q 2656 422 3056 561 
Q 3456 700 3834 978 
L 3688 231 
Q 3316 72 2936 -9 
Q 2556 -91 2175 -91 
Q 1278 -91 773 396 
Q 269 884 269 1753 
Q 269 2309 461 2846 
Q 653 3384 1013 3828 
Q 1394 4300 1883 4525 
Q 2372 4750 3022 4750 
Q 3422 4750 3780 4639 
Q 4138 4528 4447 4306 
z
" transform="scale(0.015625)"/>
       <path id="DejaVuSans-32" d="M 1228 531 
L 3431 531 
L 3431 0 
L 469 0 
L 469 531 
Q 828 903 1448 1529 
Q 2069 2156 2228 2338 
Q 2531 2678 2651 2914 
Q 2772 3150 2772 3378 
Q 2772 3750 2511 3984 
Q 2250 4219 1831 4219 
Q 1534 4219 1204 4116 
Q 875 4013 500 3803 
L 500 4441 
Q 881 4594 1212 4672 
Q 1544 4750 1819 4750 
Q 2544 4750 2975 4387 
Q 3406 4025 3406 3419 
Q 3406 3131 3298 2873 
Q 3191 2616 2906 2266 
Q 2828 2175 2409 1742 
Q 1991 1309 1228 531 
z
" transform="scale(0.015625)"/>
      </defs>
      <use xlink:href="#DejaVuSans-Oblique-43" transform="translate(0 0.78125)"/>
      <use xlink:href="#DejaVuSans-32" transform="translate(69.824219 -15.625)scale(0.7)"/>
     </g>
    </g>
   </g>
   <g id="text_4">
    <g clip-path="url(#p1cbc41d816)">
     <!-- $L_2$ -->
     <g transform="translate(171.7043 121.833339)scale(0.125 -0.125)">
      <use xlink:href="#DejaVuSans-Oblique-4c" transform="translate(0 0.09375)"/>
      <use xlink:href="#DejaVuSans-32" transform="translate(55.712891 -16.3125)scale(0.7)"/>
     </g>
    </g>
   </g>
   <g id="text_5">
    <g clip-path="url(#p1cbc41d816)">
     <!-- $R_L$ -->
     <g transform="translate(199.3318 188.469219)scale(0.125 -0.125)">
      <defs>
       <path id="DejaVuSans-Oblique-52" d="M 1613 4147 
L 1294 2491 
L 2106 2491 
Q 2584 2491 2879 2755 
Q 3175 3019 3175 3444 
Q 3175 3784 2976 3965 
Q 2778 4147 2406 4147 
L 1613 4147 
z
M 2772 2241 
Q 2972 2194 3105 2009 
Q 3238 1825 3413 1275 
L 3809 0 
L 3144 0 
L 2778 1197 
Q 2638 1659 2453 1815 
Q 2269 1972 1888 1972 
L 1191 1972 
L 806 0 
L 172 0 
L 1081 4666 
L 2503 4666 
Q 3150 4666 3495 4373 
Q 3841 4081 3841 3531 
Q 3841 3044 3547 2687 
Q 3253 2331 2772 2241 
z
" transform="scale(0.015625)"/>
      </defs>
      <use xlink:href="#DejaVuSans-Oblique-52" transform="translate(0 0.09375)"/>
      <use xlink:href="#DejaVuSans-Oblique-4c" transform="translate(69.482422 -16.3125)scale(0.7)"/>
     </g>
    </g>
   </g>
   <g id="text_6">
    <g clip-path="url(#p1cbc41d816)">
     <!-- + -->
     <g transform="translate(246.344495 165.519219)scale(0.125 -0.125)">
      <defs>
       <path id="DejaVuSans-2b" d="M 2944 4013 
L 2944 2272 
L 4684 2272 
L 4684 1741 
L 2944 1741 
L 2944 0 
L 2419 0 
L 2419 1741 
L 678 1741 
L 678 2272 
L 2419 2272 
L 2419 4013 
L 2944 4013 
z
" transform="scale(0.015625)"/>
      </defs>
      <use xlink:href="#DejaVuSans-2b"/>
     </g>
    </g>
   </g>
   <g id="text_7">
    <g clip-path="url(#p1cbc41d816)">
     <!-- $v_{out}$ -->
     <g transform="translate(240.5193 188.469219)scale(0.125 -0.125)">
      <defs>
       <path id="DejaVuSans-Oblique-76" d="M 459 3500 
L 1069 3500 
L 1581 525 
L 3256 3500 
L 3866 3500 
L 1875 0 
L 1100 0 
L 459 3500 
z
" transform="scale(0.015625)"/>
       <path id="DejaVuSans-Oblique-6f" d="M 1625 -91 
Q 1009 -91 651 289 
Q 294 669 294 1325 
Q 294 1706 417 2101 
Q 541 2497 738 2766 
Q 1047 3184 1428 3384 
Q 1809 3584 2291 3584 
Q 2888 3584 3255 3212 
Q 3622 2841 3622 2241 
Q 3622 1825 3500 1412 
Q 3378 1000 3181 728 
Q 2875 309 2494 109 
Q 2113 -91 1625 -91 
z
M 891 1344 
Q 891 869 1089 633 
Q 1288 397 1691 397 
Q 2269 397 2648 901 
Q 3028 1406 3028 2181 
Q 3028 2634 2825 2865 
Q 2622 3097 2228 3097 
Q 1903 3097 1650 2945 
Q 1397 2794 1197 2484 
Q 1050 2253 970 1956 
Q 891 1659 891 1344 
z
" transform="scale(0.015625)"/>
       <path id="DejaVuSans-Oblique-75" d="M 428 1388 
L 838 3500 
L 1416 3500 
L 1006 1409 
Q 975 1256 961 1147 
Q 947 1038 947 966 
Q 947 700 1109 554 
Q 1272 409 1569 409 
Q 2031 409 2368 721 
Q 2706 1034 2809 1563 
L 3194 3500 
L 3769 3500 
L 3091 0 
L 2516 0 
L 2631 550 
Q 2388 244 2052 76 
Q 1716 -91 1338 -91 
Q 878 -91 622 161 
Q 366 413 366 863 
Q 366 956 381 1097 
Q 397 1238 428 1388 
z
" transform="scale(0.015625)"/>
       <path id="DejaVuSans-Oblique-74" d="M 2706 3500 
L 2619 3053 
L 1472 3053 
L 1100 1153 
Q 1081 1047 1072 975 
Q 1063 903 1063 863 
Q 1063 663 1183 572 
Q 1303 481 1569 481 
L 2150 481 
L 2053 0 
L 1503 0 
Q 991 0 739 200 
Q 488 400 488 806 
Q 488 878 497 964 
Q 506 1050 525 1153 
L 897 3053 
L 409 3053 
L 500 3500 
L 978 3500 
L 1172 4494 
L 1747 4494 
L 1556 3500 
L 2706 3500 
z
" transform="scale(0.015625)"/>
      </defs>
      <use xlink:href="#DejaVuSans-Oblique-76" transform="translate(0 0.3125)"/>
      <use xlink:href="#DejaVuSans-Oblique-6f" transform="translate(59.179688 -16.09375)scale(0.7)"/>
      <use xlink:href="#DejaVuSans-Oblique-75" transform="translate(102.006836 -16.09375)scale(0.7)"/>
      <use xlink:href="#DejaVuSans-Oblique-74" transform="translate(146.37207 -16.09375)scale(0.7)"/>
     </g>
    </g>
   </g>
   <g id="text_8">
    <g clip-path="url(#p1cbc41d816)">
     <!-- $-$ -->
     <g transform="translate(246.3318 211.419219)scale(0.125 -0.125)">
      <defs>
       <path id="DejaVuSans-2212" d="M 678 2272 
L 4684 2272 
L 4684 1741 
L 678 1741 
L 678 2272 
z
" transform="scale(0.015625)"/>
      </defs>
      <use xlink:href="#DejaVuSans-2212" transform="translate(0 0.5)"/>
     </g>
    </g>
   </g>
   <g id="text_9">
    <g clip-path="url(#p1cbc41d816)">
     <!-- $C_1$ -->
     <g transform="translate(14.9818 188.469219)scale(0.125 -0.125)">
      <use xlink:href="#DejaVuSans-Oblique-43" transform="translate(0 0.78125)"/>
      <use xlink:href="#DejaVuSans-31" transform="translate(69.824219 -15.625)scale(0.7)"/>
     </g>
    </g>
   </g>
   <g id="patch_2">
    <path d="M 40.4418 141.415 
C 41.050441 141.415 41.634236 141.173184 42.06461 140.74281 
C 42.494984 140.312436 42.7368 139.728641 42.7368 139.12 
C 42.7368 138.511359 42.494984 137.927564 42.06461 137.49719 
C 41.634236 137.066816 41.050441 136.825 40.4418 136.825 
C 39.833159 136.825 39.249364 137.066816 38.81899 137.49719 
C 38.388616 137.927564 38.1468 138.511359 38.1468 139.12 
C 38.1468 139.728641 38.388616 140.312436 38.81899 140.74281 
C 39.249364 141.173184 39.833159 141.415 40.4418 141.415 
z
" clip-path="url(#p1cbc41d816)" style="stroke: #000000; stroke-width: 2; stroke-linejoin: miter"/>
   </g>
   <g id="patch_3">
    <path d="M 239.3418 141.415 
C 239.950441 141.415 240.534236 141.173184 240.96461 140.74281 
C 241.394984 140.312436 241.6368 139.728641 241.6368 139.12 
C 241.6368 138.511359 241.394984 137.927564 240.96461 137.49719 
C 240.534236 137.066816 239.950441 136.825 239.3418 136.825 
C 238.733159 136.825 238.149364 137.066816 237.71899 137.49719 
C 237.288616 137.927564 237.0468 138.511359 237.0468 139.12 
C 237.0468 139.728641 237.288616 140.312436 237.71899 140.74281 
C 238.149364 141.173184 238.733159 141.415 239.3418 141.415 
z
" clip-path="url(#p1cbc41d816)" style="fill: #ffffff; stroke: #000000; stroke-width: 2; stroke-linejoin: miter"/>
   </g>
   <g id="patch_4">
    <path d="M 239.3418 233.215 
C 239.950441 233.215 240.534236 232.973184 240.96461 232.54281 
C 241.394984 232.112436 241.6368 231.528641 241.6368 230.92 
C 241.6368 230.311359 241.394984 229.727564 240.96461 229.29719 
C 240.534236 228.866816 239.950441 228.625 239.3418 228.625 
C 238.733159 228.625 238.149364 228.866816 237.71899 229.29719 
C 237.288616 229.727564 237.0468 230.311359 237.0468 230.92 
C 237.0468 231.528641 237.288616 232.112436 237.71899 232.54281 
C 238.149364 232.973184 238.733159 233.215 239.3418 233.215 
z
" clip-path="url(#p1cbc41d816)" style="fill: #ffffff; stroke: #000000; stroke-width: 2; stroke-linejoin: miter"/>
   </g>
   <g id="patch_5">
    <path d="M 40.4418 233.215 
C 41.050441 233.215 41.634236 232.973184 42.06461 232.54281 
C 42.494984 232.112436 42.7368 231.528641 42.7368 230.92 
C 42.7368 230.311359 42.494984 229.727564 42.06461 229.29719 
C 41.634236 228.866816 41.050441 228.625 40.4418 228.625 
C 39.833159 228.625 39.249364 228.866816 38.81899 229.29719 
C 38.388616 229.727564 38.1468 230.311359 38.1468 230.92 
C 38.1468 231.528641 38.388616 232.112436 38.81899 232.54281 
C 39.249364 232.973184 39.833159 233.215 40.4418 233.215 
z
" clip-path="url(#p1cbc41d816)" style="stroke: #000000; stroke-width: 2; stroke-linejoin: miter"/>
   </g>
  </g>
 </g>
 <defs>
  <clipPath id="p1cbc41d816">
   <rect x="7.2" y="7.2" width="272.6052" height="246.364"/>
  </clipPath>
 </defs>
</svg>
