<?xml version="1.0" encoding="utf-8" standalone="no"?>
<!DOCTYPE svg PUBLIC "-//W3C//DTD SVG 1.1//EN"
  "http://www.w3.org/Graphics/SVG/1.1/DTD/svg11.dtd">
<svg xmlns:xlink="http://www.w3.org/1999/xlink" width="361.0368pt" height="260.764pt" viewBox="0 0 361.0368 260.764" xmlns="http://www.w3.org/2000/svg" version="1.1">
 <metadata>
  <rdf:RDF xmlns:dc="http://purl.org/dc/elements/1.1/" xmlns:cc="http://creativecommons.org/ns#" xmlns:rdf="http://www.w3.org/1999/02/22-rdf-syntax-ns#">
   <cc:Work>
    <dc:type rdf:resource="http://purl.org/dc/dcmitype/StillImage"/>
    <dc:date>2022-01-07T01:03:28.544052</dc:date>
    <dc:format>image/svg+xml</dc:format>
    <dc:creator>
     <cc:Agent>
      <dc:title>Matplotlib v3.5.1, https://matplotlib.org/</dc:title>
     </cc:Agent>
    </dc:creator>
   </cc:Work>
  </rdf:RDF>
 </metadata>
 <defs>
  <style type="text/css">*{stroke-linejoin: round; stroke-linecap: butt}</style>
 </defs>
 <g id="figure_1">
  <g id="patch_1">
   <path d="M 0 260.764 
L 361.0368 260.764 
L 361.0368 0 
L 0 0 
L 0 260.764 
z
" style="fill: none"/>
  </g>
  <g id="axes_1">
   <g id="line2d_1">
    <path d="M 114.4734 47.32 
L 114.4734 35.08 
" clip-path="url(#p1f7ecc50ba)" style="fill: none; stroke: #000000; stroke-width: 2; stroke-linecap: round"/>
   </g>
   <g id="line2d_2">
    <path d="M 114.4734 35.08 
L 108.7359 35.08 
" clip-path="url(#p1f7ecc50ba)" style="fill: none; stroke: #000000; stroke-width: 2; stroke-linecap: round"/>
   </g>
   <g id="line2d_3">
    <path d="M 114.4734 35.08 
L 120.2109 35.08 
" clip-path="url(#p1f7ecc50ba)" style="fill: none; stroke: #000000; stroke-width: 2; stroke-linecap: round"/>
   </g>
   <g id="line2d_4">
    <path d="M 114.4734 47.32 
L 114.4734 77.92 
L 116.992959 78.033959 
L 119.535241 78.380496 
L 121.887029 78.951901 
L 123.851083 79.721607 
L 125.26268 80.646415 
L 125.722199 81.149802 
L 126.003432 81.670117 
L 126.100452 82.199076 
L 126.011213 82.728212 
L 125.737597 83.249057 
L 125.28537 83.753314 
L 124.664066 84.23304 
L 122.969894 85.089855 
L 120.79717 85.768997 
L 118.328116 86.234862 
L 115.769808 86.469734 
L 113.336808 86.47527 
L 111.233167 86.27236 
L 109.635314 85.899376 
L 108.677259 85.408956 
L 108.46558 85.138989 
L 108.439353 84.863585 
L 108.599132 84.591233 
L 108.941549 84.330357 
L 110.141727 83.875348 
L 111.939232 83.558075 
L 114.183308 83.426501 
L 116.685749 83.513016 
L 119.236679 83.831719 
L 121.622155 84.377236 
L 123.642111 85.12517 
L 125.127137 86.034148 
L 125.628062 86.532287 
L 125.952685 87.049291 
L 126.094164 87.576946 
L 126.049518 88.106814 
L 125.819687 88.63041 
L 125.409515 89.139381 
L 124.827648 89.625681 
L 123.20125 90.500642 
L 121.076896 91.203267 
L 118.632751 91.695982 
L 116.073804 91.958819 
L 113.614668 91.99109 
L 111.461588 91.811442 
L 109.795139 91.456297 
L 108.755084 90.976796 
L 108.499498 90.709382 
L 108.42865 90.434509 
L 108.544033 90.160653 
L 108.843216 89.896271 
L 109.964011 89.428579 
L 111.697038 89.092012 
L 113.896949 88.936152 
L 116.379241 88.995426 
L 118.935728 89.286218 
L 121.352002 89.805494 
L 123.425413 90.531059 
L 124.982068 91.423415 
L 125.523791 91.915856 
L 125.891412 92.429077 
L 126.077179 92.954944 
L 126.077179 93.485056 
L 125.891412 94.010923 
L 125.523791 94.524144 
L 124.982068 95.016585 
L 123.425413 95.908941 
L 121.352002 96.634506 
L 118.935728 97.153782 
L 116.379241 97.444574 
L 113.896949 97.503848 
L 111.697038 97.347988 
L 109.964011 97.011421 
L 108.843216 96.543729 
L 108.544033 96.279347 
L 108.42865 96.005491 
L 108.499498 95.730618 
L 108.755084 95.463204 
L 109.795139 94.983703 
L 111.461588 94.628558 
L 113.614668 94.44891 
L 116.073804 94.481181 
L 118.632751 94.744018 
L 121.076896 95.236733 
L 123.20125 95.939358 
L 124.827648 96.814319 
L 125.409515 97.300619 
L 125.819687 97.80959 
L 126.049518 98.333186 
L 126.094164 98.863054 
L 125.952685 99.390709 
L 125.628062 99.907713 
L 125.127137 100.405852 
L 124.460469 100.877309 
L 122.689312 101.711877 
L 120.463134 102.362779 
L 117.968642 102.79678 
L 115.415044 102.998834 
L 113.016506 102.973353 
L 110.974192 102.743826 
L 109.459386 102.35086 
L 108.599132 101.848767 
L 108.439353 101.576415 
L 108.46558 101.301011 
L 108.677259 101.031044 
L 109.06993 100.774887 
L 110.361495 100.335875 
L 112.231955 100.042149 
L 114.524436 99.939698 
L 117.046673 100.058471 
L 119.587128 100.409859 
L 121.932738 100.985749 
L 123.886779 101.759195 
L 125.28537 102.686686 
L 125.737597 103.190943 
L 126.011213 103.711788 
L 126.100452 104.240924 
L 126.003432 104.769883 
L 125.722199 105.290198 
L 125.26268 105.793585 
L 124.634562 106.272118 
L 122.928759 107.125687 
L 120.747853 107.800673 
L 118.274753 108.261821 
L 115.716875 108.491809 
L 114.4734 108.52 
L 114.4734 139.12 
L 114.4734 139.12 
" clip-path="url(#p1f7ecc50ba)" style="fill: none; stroke: #000000; stroke-width: 2; stroke-linecap: round"/>
   </g>
   <g id="line2d_5">
    <path d="M 114.4734 139.12 
L 157.6194 139.12 
M 157.6194 131.47 
L 157.6194 146.77 
M 163.1274 131.47 
L 163.1274 146.77 
M 163.1274 139.12 
L 206.2734 139.12 
" clip-path="url(#p1f7ecc50ba)" style="fill: none; stroke: #000000; stroke-width: 2; stroke-linecap: round"/>
   </g>
   <g id="line2d_6">
    <path d="M 206.2734 139.12 
L 236.8734 139.12 
L 236.987359 136.600441 
L 237.333896 134.058159 
L 237.905301 131.706371 
L 238.675007 129.742317 
L 239.599815 128.33072 
L 240.103202 127.871201 
L 240.623517 127.589968 
L 241.152476 127.492948 
L 241.681612 127.582187 
L 242.202457 127.855803 
L 242.706714 128.30803 
L 243.18644 128.929334 
L 244.043255 130.623506 
L 244.722397 132.79623 
L 245.188262 135.265284 
L 245.423134 137.823592 
L 245.42867 140.256592 
L 245.22576 142.360233 
L 244.852776 143.958086 
L 244.362356 144.916141 
L 244.092389 145.12782 
L 243.816985 145.154047 
L 243.544633 144.994268 
L 243.283757 144.651851 
L 242.828748 143.451673 
L 242.511475 141.654168 
L 242.379901 139.410092 
L 242.466416 136.907651 
L 242.785119 134.356721 
L 243.330636 131.971245 
L 244.07857 129.951289 
L 244.987548 128.466263 
L 245.485687 127.965338 
L 246.002691 127.640715 
L 246.530346 127.499236 
L 247.060214 127.543882 
L 247.58381 127.773713 
L 248.092781 128.183885 
L 248.579081 128.765752 
L 249.454042 130.39215 
L 250.156667 132.516504 
L 250.649382 134.960649 
L 250.912219 137.519596 
L 250.94449 139.978732 
L 250.764842 142.131812 
L 250.409697 143.798261 
L 249.930196 144.838316 
L 249.662782 145.093902 
L 249.387909 145.16475 
L 249.114053 145.049367 
L 248.849671 144.750184 
L 248.381979 143.629389 
L 248.045412 141.896362 
L 247.889552 139.696451 
L 247.948826 137.214159 
L 248.239618 134.657672 
L 248.758894 132.241398 
L 249.484459 130.167987 
L 250.376815 128.611332 
L 250.869256 128.069609 
L 251.382477 127.701988 
L 251.908344 127.516221 
L 252.438456 127.516221 
L 252.964323 127.701988 
L 253.477544 128.069609 
L 253.969985 128.611332 
L 254.862341 130.167987 
L 255.587906 132.241398 
L 256.107182 134.657672 
L 256.397974 137.214159 
L 256.457248 139.696451 
L 256.301388 141.896362 
L 255.964821 143.629389 
L 255.497129 144.750184 
L 255.232747 145.049367 
L 254.958891 145.16475 
L 254.684018 145.093902 
L 254.416604 144.838316 
L 253.937103 143.798261 
L 253.581958 142.131812 
L 253.40231 139.978732 
L 253.434581 137.519596 
L 253.697418 134.960649 
L 254.190133 132.516504 
L 254.892758 130.39215 
L 255.767719 128.765752 
L 256.254019 128.183885 
L 256.76299 127.773713 
L 257.286586 127.543882 
L 257.816454 127.499236 
L 258.344109 127.640715 
L 258.861113 127.965338 
L 259.359252 128.466263 
L 259.830709 129.132931 
L 260.665277 130.904088 
L 261.316179 133.130266 
L 261.75018 135.624758 
L 261.952234 138.178356 
L 261.926753 140.576894 
L 261.697226 142.619208 
L 261.30426 144.134014 
L 260.802167 144.994268 
L 260.529815 145.154047 
L 260.254411 145.12782 
L 259.984444 144.916141 
L 259.728287 144.52347 
L 259.289275 143.231905 
L 258.995549 141.361445 
L 258.893098 139.068964 
L 259.011871 136.546727 
L 259.363259 134.006272 
L 259.939149 131.660662 
L 260.712595 129.706621 
L 261.640086 128.30803 
L 262.144343 127.855803 
L 262.665188 127.582187 
L 263.194324 127.492948 
L 263.723283 127.589968 
L 264.243598 127.871201 
L 264.746985 128.33072 
L 265.225518 128.958838 
L 266.079087 130.664641 
L 266.754073 132.845547 
L 267.215221 135.318647 
L 267.445209 137.876525 
L 267.4734 139.12 
L 298.0734 139.12 
L 298.0734 139.12 
" clip-path="url(#p1f7ecc50ba)" style="fill: none; stroke: #000000; stroke-width: 2; stroke-linecap: round"/>
   </g>
   <g id="line2d_7">
    <path d="M 298.0734 139.12 
L 298.0734 169.72 
L 305.7234 172.27 
L 290.4234 177.37 
L 305.7234 182.47 
L 290.4234 187.57 
L 305.7234 192.67 
L 290.4234 197.77 
L 298.0734 200.32 
L 298.0734 230.92 
" clip-path="url(#p1f7ecc50ba)" style="fill: none; stroke: #000000; stroke-width: 2; stroke-linecap: round"/>
   </g>
   <g id="line2d_8">
    <path d="M 298.0734 139.12 
L 305.7234 139.12 
L 313.3734 139.12 
" clip-path="url(#p1f7ecc50ba)" style="fill: none; stroke: #000000; stroke-width: 2; stroke-linecap: round"/>
   </g>
   <g id="line2d_9">
    <path d="M 298.0734 230.92 
L 305.7234 230.92 
L 313.3734 230.92 
" clip-path="url(#p1f7ecc50ba)" style="fill: none; stroke: #000000; stroke-width: 2; stroke-linecap: round"/>
   </g>
   <g id="line2d_10">
    <path d="M 298.0734 230.92 
L 206.2734 230.92 
L 114.4734 230.92 
" clip-path="url(#p1f7ecc50ba)" style="fill: none; stroke: #000000; stroke-width: 2; stroke-linecap: round"/>
   </g>
   <g id="line2d_11">
    <path d="M 114.4734 139.12 
L 114.4734 182.266 
M 122.1234 182.266 
L 106.8234 182.266 
M 122.1234 187.774 
L 106.8234 187.774 
M 114.4734 187.774 
L 114.4734 230.92 
" clip-path="url(#p1f7ecc50ba)" style="fill: none; stroke: #000000; stroke-width: 2; stroke-linecap: round"/>
   </g>
   <g id="line2d_12">
    <path d="M 114.4734 230.92 
L 114.4734 243.16 
L 106.8234 243.16 
L 122.1234 243.16 
M 109.1184 246.832 
L 119.8284 246.832 
M 112.9434 250.504 
L 116.0034 250.504 
" clip-path="url(#p1f7ecc50ba)" style="fill: none; stroke: #000000; stroke-width: 2; stroke-linecap: round"/>
   </g>
   <g id="line2d_13">
    <path d="M 114.4734 230.92 
L 99.1734 230.92 
L 83.8734 230.92 
" clip-path="url(#p1f7ecc50ba)" style="fill: none; stroke: #000000; stroke-width: 2; stroke-linecap: round"/>
   </g>
   <g id="line2d_14">
    <path d="M 83.8734 230.92 
L 83.8734 223.27 
L 83.8734 215.62 
" clip-path="url(#p1f7ecc50ba)" style="fill: none; stroke: #000000; stroke-width: 2; stroke-linecap: round"/>
   </g>
   <g id="line2d_15">
    <path d="M 83.8734 215.62 
L 83.8734 202.87 
L 63.4734 202.87 
L 63.4734 182.47 
L 83.8734 182.47 
L 83.8734 169.72 
" clip-path="url(#p1f7ecc50ba)" style="fill: none; stroke: #000000; stroke-width: 2; stroke-linecap: round"/>
   </g>
   <g id="line2d_16">
    <path d="M 55.8234 202.87 
L 55.8234 182.47 
" clip-path="url(#p1f7ecc50ba)" style="fill: none; stroke: #000000; stroke-width: 2; stroke-linecap: round"/>
   </g>
   <g id="line2d_17">
    <path d="M 55.8234 192.67 
L 39.5034 192.67 
" clip-path="url(#p1f7ecc50ba)" style="fill: none; stroke: #000000; stroke-width: 2; stroke-linecap: round"/>
   </g>
   <g id="line2d_18">
    <path d="M 83.8734 169.72 
L 83.8734 154.42 
L 83.8734 139.12 
" clip-path="url(#p1f7ecc50ba)" style="fill: none; stroke: #000000; stroke-width: 2; stroke-linecap: round"/>
   </g>
   <g id="line2d_19">
    <path d="M 83.8734 139.12 
L 99.1734 139.12 
L 114.4734 139.12 
" clip-path="url(#p1f7ecc50ba)" style="fill: none; stroke: #000000; stroke-width: 2; stroke-linecap: round"/>
   </g>
   <g id="text_1">
    <g clip-path="url(#p1f7ecc50ba)">
     <!-- $V_{dd}$ -->
     <g transform="translate(104.4109 29.420391)scale(0.125 -0.125)">
      <defs>
       <path id="DejaVuSans-Oblique-56" d="M 1319 0 
L 500 4666 
L 1119 4666 
L 1797 653 
L 4063 4666 
L 4750 4666 
L 2053 0 
L 1319 0 
z
" transform="scale(0.015625)"/>
       <path id="DejaVuSans-Oblique-64" d="M 2675 525 
Q 2444 222 2128 65 
Q 1813 -91 1428 -91 
Q 903 -91 598 267 
Q 294 625 294 1247 
Q 294 1766 478 2236 
Q 663 2706 1013 3078 
Q 1244 3325 1534 3454 
Q 1825 3584 2144 3584 
Q 2481 3584 2739 3421 
Q 2997 3259 3138 2956 
L 3513 4863 
L 4091 4863 
L 3144 0 
L 2566 0 
L 2675 525 
z
M 891 1350 
Q 891 897 1095 644 
Q 1300 391 1663 391 
Q 1931 391 2161 520 
Q 2391 650 2566 903 
Q 2750 1166 2856 1509 
Q 2963 1853 2963 2188 
Q 2963 2622 2758 2865 
Q 2553 3109 2194 3109 
Q 1922 3109 1687 2981 
Q 1453 2853 1288 2613 
Q 1106 2353 998 2009 
Q 891 1666 891 1350 
z
" transform="scale(0.015625)"/>
      </defs>
      <use xlink:href="#DejaVuSans-Oblique-56" transform="translate(0 0.09375)"/>
      <use xlink:href="#DejaVuSans-Oblique-64" transform="translate(68.408203 -16.3125)scale(0.7)"/>
      <use xlink:href="#DejaVuSans-Oblique-64" transform="translate(112.841797 -16.3125)scale(0.7)"/>
     </g>
    </g>
   </g>
   <g id="text_2">
    <g clip-path="url(#p1f7ecc50ba)">
     <!-- $L_1$ -->
     <g transform="translate(92.49365 96.669219)scale(0.125 -0.125)">
      <defs>
       <path id="DejaVuSans-Oblique-4c" d="M 1075 4666 
L 1709 4666 
L 909 525 
L 3181 525 
L 3078 0 
L 172 0 
L 1075 4666 
z
" transform="scale(0.015625)"/>
       <path id="DejaVuSans-31" d="M 794 531 
L 1825 531 
L 1825 4091 
L 703 3866 
L 703 4441 
L 1819 4666 
L 2450 4666 
L 2450 531 
L 3481 531 
L 3481 0 
L 794 0 
L 794 531 
z
" transform="scale(0.015625)"/>
      </defs>
      <use xlink:href="#DejaVuSans-Oblique-4c" transform="translate(0 0.09375)"/>
      <use xlink:href="#DejaVuSans-31" transform="translate(55.712891 -16.3125)scale(0.7)"/>
     </g>
    </g>
   </g>
   <g id="text_3">
    <g clip-path="url(#p1f7ecc50ba)">
     <!-- $C_2$ -->
     <g transform="translate(152.9984 125.810391)scale(0.125 -0.125)">
      <defs>
       <path id="DejaVuSans-Oblique-43" d="M 4447 4306 
L 4319 3641 
Q 4019 3944 3683 4091 
Q 3347 4238 2956 4238 
Q 2422 4238 2017 3981 
Q 1613 3725 1319 3200 
Q 1131 2863 1032 2486 
Q 934 2109 934 1728 
Q 934 1091 1264 756 
Q 1594 422 2222 422 
Q 2656 422 3056 561 
Q 3456 700 3834 978 
L 3688 231 
Q 3316 72 2936 -9 
Q 2556 -91 2175 -91 
Q 1278 -91 773 396 
Q 269 884 269 1753 
Q 269 2309 461 2846 
Q 653 3384 1013 3828 
Q 1394 4300 1883 4525 
Q 2372 4750 3022 4750 
Q 3422 4750 3780 4639 
Q 4138 4528 4447 4306 
z
" transform="scale(0.015625)"/>
       <path id="DejaVuSans-32" d="M 1228 531 
L 3431 531 
L 3431 0 
L 469 0 
L 469 531 
Q 828 903 1448 1529 
Q 2069 2156 2228 2338 
Q 2531 2678 2651 2914 
Q 2772 3150 2772 3378 
Q 2772 3750 2511 3984 
Q 2250 4219 1831 4219 
Q 1534 4219 1204 4116 
Q 875 4013 500 3803 
L 500 4441 
Q 881 4594 1212 4672 
Q 1544 4750 1819 4750 
Q 2544 4750 2975 4387 
Q 3406 4025 3406 3419 
Q 3406 3131 3298 2873 
Q 3191 2616 2906 2266 
Q 2828 2175 2409 1742 
Q 1991 1309 1228 531 
z
" transform="scale(0.015625)"/>
      </defs>
      <use xlink:href="#DejaVuSans-Oblique-43" transform="translate(0 0.78125)"/>
      <use xlink:href="#DejaVuSans-32" transform="translate(69.824219 -15.625)scale(0.7)"/>
     </g>
    </g>
   </g>
   <g id="text_4">
    <g clip-path="url(#p1f7ecc50ba)">
     <!-- $L_2$ -->
     <g transform="translate(245.7359 121.833339)scale(0.125 -0.125)">
      <use xlink:href="#DejaVuSans-Oblique-4c" transform="translate(0 0.09375)"/>
      <use xlink:href="#DejaVuSans-32" transform="translate(55.712891 -16.3125)scale(0.7)"/>
     </g>
    </g>
   </g>
   <g id="text_5">
    <g clip-path="url(#p1f7ecc50ba)">
     <!-- $R_L$ -->
     <g transform="translate(273.3634 188.469219)scale(0.125 -0.125)">
      <defs>
       <path id="DejaVuSans-Oblique-52" d="M 1613 4147 
L 1294 2491 
L 2106 2491 
Q 2584 2491 2879 2755 
Q 3175 3019 3175 3444 
Q 3175 3784 2976 3965 
Q 2778 4147 2406 4147 
L 1613 4147 
z
M 2772 2241 
Q 2972 2194 3105 2009 
Q 3238 1825 3413 1275 
L 3809 0 
L 3144 0 
L 2778 1197 
Q 2638 1659 2453 1815 
Q 2269 1972 1888 1972 
L 1191 1972 
L 806 0 
L 172 0 
L 1081 4666 
L 2503 4666 
Q 3150 4666 3495 4373 
Q 3841 4081 3841 3531 
Q 3841 3044 3547 2687 
Q 3253 2331 2772 2241 
z
" transform="scale(0.015625)"/>
      </defs>
      <use xlink:href="#DejaVuSans-Oblique-52" transform="translate(0 0.09375)"/>
      <use xlink:href="#DejaVuSans-Oblique-4c" transform="translate(69.482422 -16.3125)scale(0.7)"/>
     </g>
    </g>
   </g>
   <g id="text_6">
    <g clip-path="url(#p1f7ecc50ba)">
     <!-- + -->
     <g transform="translate(320.376095 165.519219)scale(0.125 -0.125)">
      <defs>
       <path id="DejaVuSans-2b" d="M 2944 4013 
L 2944 2272 
L 4684 2272 
L 4684 1741 
L 2944 1741 
L 2944 0 
L 2419 0 
L 2419 1741 
L 678 1741 
L 678 2272 
L 2419 2272 
L 2419 4013 
L 2944 4013 
z
" transform="scale(0.015625)"/>
      </defs>
      <use xlink:href="#DejaVuSans-2b"/>
     </g>
    </g>
   </g>
   <g id="text_7">
    <g clip-path="url(#p1f7ecc50ba)">
     <!-- $v_{out}$ -->
     <g transform="translate(314.5509 188.469219)scale(0.125 -0.125)">
      <defs>
       <path id="DejaVuSans-Oblique-76" d="M 459 3500 
L 1069 3500 
L 1581 525 
L 3256 3500 
L 3866 3500 
L 1875 0 
L 1100 0 
L 459 3500 
z
" transform="scale(0.015625)"/>
       <path id="DejaVuSans-Oblique-6f" d="M 1625 -91 
Q 1009 -91 651 289 
Q 294 669 294 1325 
Q 294 1706 417 2101 
Q 541 2497 738 2766 
Q 1047 3184 1428 3384 
Q 1809 3584 2291 3584 
Q 2888 3584 3255 3212 
Q 3622 2841 3622 2241 
Q 3622 1825 3500 1412 
Q 3378 1000 3181 728 
Q 2875 309 2494 109 
Q 2113 -91 1625 -91 
z
M 891 1344 
Q 891 869 1089 633 
Q 1288 397 1691 397 
Q 2269 397 2648 901 
Q 3028 1406 3028 2181 
Q 3028 2634 2825 2865 
Q 2622 3097 2228 3097 
Q 1903 3097 1650 2945 
Q 1397 2794 1197 2484 
Q 1050 2253 970 1956 
Q 891 1659 891 1344 
z
" transform="scale(0.015625)"/>
       <path id="DejaVuSans-Oblique-75" d="M 428 1388 
L 838 3500 
L 1416 3500 
L 1006 1409 
Q 975 1256 961 1147 
Q 947 1038 947 966 
Q 947 700 1109 554 
Q 1272 409 1569 409 
Q 2031 409 2368 721 
Q 2706 1034 2809 1563 
L 3194 3500 
L 3769 3500 
L 3091 0 
L 2516 0 
L 2631 550 
Q 2388 244 2052 76 
Q 1716 -91 1338 -91 
Q 878 -91 622 161 
Q 366 413 366 863 
Q 366 956 381 1097 
Q 397 1238 428 1388 
z
" transform="scale(0.015625)"/>
       <path id="DejaVuSans-Oblique-74" d="M 2706 3500 
L 2619 3053 
L 1472 3053 
L 1100 1153 
Q 1081 1047 1072 975 
Q 1063 903 1063 863 
Q 1063 663 1183 572 
Q 1303 481 1569 481 
L 2150 481 
L 2053 0 
L 1503 0 
Q 991 0 739 200 
Q 488 400 488 806 
Q 488 878 497 964 
Q 506 1050 525 1153 
L 897 3053 
L 409 3053 
L 500 3500 
L 978 3500 
L 1172 4494 
L 1747 4494 
L 1556 3500 
L 2706 3500 
z
" transform="scale(0.015625)"/>
      </defs>
      <use xlink:href="#DejaVuSans-Oblique-76" transform="translate(0 0.3125)"/>
      <use xlink:href="#DejaVuSans-Oblique-6f" transform="translate(59.179688 -16.09375)scale(0.7)"/>
      <use xlink:href="#DejaVuSans-Oblique-75" transform="translate(102.006836 -16.09375)scale(0.7)"/>
      <use xlink:href="#DejaVuSans-Oblique-74" transform="translate(146.37207 -16.09375)scale(0.7)"/>
     </g>
    </g>
   </g>
   <g id="text_8">
    <g clip-path="url(#p1f7ecc50ba)">
     <!-- $-$ -->
     <g transform="translate(320.3634 211.419219)scale(0.125 -0.125)">
      <defs>
       <path id="DejaVuSans-2212" d="M 678 2272 
L 4684 2272 
L 4684 1741 
L 678 1741 
L 678 2272 
z
" transform="scale(0.015625)"/>
      </defs>
      <use xlink:href="#DejaVuSans-2212" transform="translate(0 0.5)"/>
     </g>
    </g>
   </g>
   <g id="text_9">
    <g clip-path="url(#p1f7ecc50ba)">
     <!-- $C_1$ -->
     <g transform="translate(89.0134 188.469219)scale(0.125 -0.125)">
      <use xlink:href="#DejaVuSans-Oblique-43" transform="translate(0 0.78125)"/>
      <use xlink:href="#DejaVuSans-31" transform="translate(69.824219 -15.625)scale(0.7)"/>
     </g>
    </g>
   </g>
   <g id="text_10">
    <g clip-path="url(#p1f7ecc50ba)">
     <!-- $V_{in}$ -->
     <g transform="translate(19.5684 196.119219)scale(0.125 -0.125)">
      <defs>
       <path id="DejaVuSans-Oblique-69" d="M 1172 4863 
L 1747 4863 
L 1606 4134 
L 1031 4134 
L 1172 4863 
z
M 909 3500 
L 1484 3500 
L 800 0 
L 225 0 
L 909 3500 
z
" transform="scale(0.015625)"/>
       <path id="DejaVuSans-Oblique-6e" d="M 3566 2113 
L 3156 0 
L 2578 0 
L 2988 2091 
Q 3016 2238 3031 2350 
Q 3047 2463 3047 2528 
Q 3047 2791 2881 2937 
Q 2716 3084 2419 3084 
Q 1956 3084 1622 2776 
Q 1288 2469 1184 1941 
L 800 0 
L 225 0 
L 903 3500 
L 1478 3500 
L 1363 2950 
Q 1603 3253 1940 3418 
Q 2278 3584 2650 3584 
Q 3113 3584 3367 3334 
Q 3622 3084 3622 2631 
Q 3622 2519 3608 2391 
Q 3594 2263 3566 2113 
z
" transform="scale(0.015625)"/>
      </defs>
      <use xlink:href="#DejaVuSans-Oblique-56" transform="translate(0 0.09375)"/>
      <use xlink:href="#DejaVuSans-Oblique-69" transform="translate(68.408203 -16.3125)scale(0.7)"/>
      <use xlink:href="#DejaVuSans-Oblique-6e" transform="translate(87.856445 -16.3125)scale(0.7)"/>
     </g>
    </g>
   </g>
   <g id="patch_2">
    <path d="M 114.4734 141.415 
C 115.082041 141.415 115.665836 141.173184 116.09621 140.74281 
C 116.526584 140.312436 116.7684 139.728641 116.7684 139.12 
C 116.7684 138.511359 116.526584 137.927564 116.09621 137.49719 
C 115.665836 137.066816 115.082041 136.825 114.4734 136.825 
C 113.864759 136.825 113.280964 137.066816 112.85059 137.49719 
C 112.420216 137.927564 112.1784 138.511359 112.1784 139.12 
C 112.1784 139.728641 112.420216 140.312436 112.85059 140.74281 
C 113.280964 141.173184 113.864759 141.415 114.4734 141.415 
z
" clip-path="url(#p1f7ecc50ba)" style="stroke: #000000; stroke-width: 2; stroke-linejoin: miter"/>
   </g>
   <g id="patch_3">
    <path d="M 313.3734 141.415 
C 313.982041 141.415 314.565836 141.173184 314.99621 140.74281 
C 315.426584 140.312436 315.6684 139.728641 315.6684 139.12 
C 315.6684 138.511359 315.426584 137.927564 314.99621 137.49719 
C 314.565836 137.066816 313.982041 136.825 313.3734 136.825 
C 312.764759 136.825 312.180964 137.066816 311.75059 137.49719 
C 311.320216 137.927564 311.0784 138.511359 311.0784 139.12 
C 311.0784 139.728641 311.320216 140.312436 311.75059 140.74281 
C 312.180964 141.173184 312.764759 141.415 313.3734 141.415 
z
" clip-path="url(#p1f7ecc50ba)" style="fill: #ffffff; stroke: #000000; stroke-width: 2; stroke-linejoin: miter"/>
   </g>
   <g id="patch_4">
    <path d="M 313.3734 233.215 
C 313.982041 233.215 314.565836 232.973184 314.99621 232.54281 
C 315.426584 232.112436 315.6684 231.528641 315.6684 230.92 
C 315.6684 230.311359 315.426584 229.727564 314.99621 229.29719 
C 314.565836 228.866816 313.982041 228.625 313.3734 228.625 
C 312.764759 228.625 312.180964 228.866816 311.75059 229.29719 
C 311.320216 229.727564 311.0784 230.311359 311.0784 230.92 
C 311.0784 231.528641 311.320216 232.112436 311.75059 232.54281 
C 312.180964 232.973184 312.764759 233.215 313.3734 233.215 
z
" clip-path="url(#p1f7ecc50ba)" style="fill: #ffffff; stroke: #000000; stroke-width: 2; stroke-linejoin: miter"/>
   </g>
   <g id="patch_5">
    <path d="M 114.4734 233.215 
C 115.082041 233.215 115.665836 232.973184 116.09621 232.54281 
C 116.526584 232.112436 116.7684 231.528641 116.7684 230.92 
C 116.7684 230.311359 116.526584 229.727564 116.09621 229.29719 
C 115.665836 228.866816 115.082041 228.625 114.4734 228.625 
C 113.864759 228.625 113.280964 228.866816 112.85059 229.29719 
C 112.420216 229.727564 112.1784 230.311359 112.1784 230.92 
C 112.1784 231.528641 112.420216 232.112436 112.85059 232.54281 
C 113.280964 232.973184 113.864759 233.215 114.4734 233.215 
z
" clip-path="url(#p1f7ecc50ba)" style="stroke: #000000; stroke-width: 2; stroke-linejoin: miter"/>
   </g>
   <g id="patch_6">
    <path d="M 39.5034 194.965 
C 40.112041 194.965 40.695836 194.723184 41.12621 194.29281 
C 41.556584 193.862436 41.7984 193.278641 41.7984 192.67 
C 41.7984 192.061359 41.556584 191.477564 41.12621 191.04719 
C 40.695836 190.616816 40.112041 190.375 39.5034 190.375 
C 38.894759 190.375 38.310964 190.616816 37.88059 191.04719 
C 37.450216 191.477564 37.2084 192.061359 37.2084 192.67 
C 37.2084 193.278641 37.450216 193.862436 37.88059 194.29281 
C 38.310964 194.723184 38.894759 194.965 39.5034 194.965 
z
" clip-path="url(#p1f7ecc50ba)" style="fill: #ffffff; stroke: #000000; stroke-width: 2; stroke-linejoin: miter"/>
   </g>
  </g>
 </g>
 <defs>
  <clipPath id="p1f7ecc50ba">
   <rect x="7.2" y="7.2" width="346.6368" height="246.364"/>
  </clipPath>
 </defs>
</svg>
