<?xml version="1.0" encoding="utf-8" standalone="no"?>
<!DOCTYPE svg PUBLIC "-//W3C//DTD SVG 1.1//EN"
  "http://www.w3.org/Graphics/SVG/1.1/DTD/svg11.dtd">
<svg xmlns:xlink="http://www.w3.org/1999/xlink" width="284.18615pt" height="243.475pt" viewBox="0 0 284.18615 243.475" xmlns="http://www.w3.org/2000/svg" version="1.1">
 <metadata>
  <rdf:RDF xmlns:dc="http://purl.org/dc/elements/1.1/" xmlns:cc="http://creativecommons.org/ns#" xmlns:rdf="http://www.w3.org/1999/02/22-rdf-syntax-ns#">
   <cc:Work>
    <dc:type rdf:resource="http://purl.org/dc/dcmitype/StillImage"/>
    <dc:date>2022-01-07T01:01:00.349962</dc:date>
    <dc:format>image/svg+xml</dc:format>
    <dc:creator>
     <cc:Agent>
      <dc:title>Matplotlib v3.5.1, https://matplotlib.org/</dc:title>
     </cc:Agent>
    </dc:creator>
   </cc:Work>
  </rdf:RDF>
 </metadata>
 <defs>
  <style type="text/css">*{stroke-linejoin: round; stroke-linecap: butt}</style>
 </defs>
 <g id="figure_1">
  <g id="patch_1">
   <path d="M 0 243.475 
L 284.18615 243.475 
L 284.18615 0 
L 0 0 
L 0 243.475 
z
" style="fill: none"/>
  </g>
  <g id="axes_1">
   <g id="line2d_1">
    <path d="M 37.62275 47.32 
L 37.62275 35.08 
" clip-path="url(#pf5d5b5f6ae)" style="fill: none; stroke: #000000; stroke-width: 2; stroke-linecap: round"/>
   </g>
   <g id="line2d_2">
    <path d="M 37.62275 35.08 
L 31.88525 35.08 
" clip-path="url(#pf5d5b5f6ae)" style="fill: none; stroke: #000000; stroke-width: 2; stroke-linecap: round"/>
   </g>
   <g id="line2d_3">
    <path d="M 37.62275 35.08 
L 43.36025 35.08 
" clip-path="url(#pf5d5b5f6ae)" style="fill: none; stroke: #000000; stroke-width: 2; stroke-linecap: round"/>
   </g>
   <g id="line2d_4">
    <path d="M 37.62275 47.32 
L 37.62275 77.92 
L 40.142309 78.033959 
L 42.684591 78.380496 
L 45.036379 78.951901 
L 47.000433 79.721607 
L 48.41203 80.646415 
L 48.871549 81.149802 
L 49.152782 81.670117 
L 49.249802 82.199076 
L 49.160563 82.728212 
L 48.886947 83.249057 
L 48.43472 83.753314 
L 47.813416 84.23304 
L 46.119244 85.089855 
L 43.94652 85.768997 
L 41.477466 86.234862 
L 38.919158 86.469734 
L 36.486158 86.47527 
L 34.382516 86.27236 
L 32.784664 85.899376 
L 31.826609 85.408956 
L 31.61493 85.138989 
L 31.588703 84.863585 
L 31.748482 84.591233 
L 32.090899 84.330357 
L 33.291077 83.875348 
L 35.088582 83.558075 
L 37.332658 83.426501 
L 39.835099 83.513016 
L 42.386029 83.831719 
L 44.771505 84.377236 
L 46.791461 85.12517 
L 48.276487 86.034148 
L 48.777411 86.532287 
L 49.102035 87.049291 
L 49.243514 87.576946 
L 49.198868 88.106814 
L 48.969036 88.63041 
L 48.558865 89.139381 
L 47.976998 89.625681 
L 46.3506 90.500642 
L 44.226246 91.203267 
L 41.782101 91.695982 
L 39.223154 91.958819 
L 36.764018 91.99109 
L 34.610938 91.811442 
L 32.944489 91.456297 
L 31.904433 90.976796 
L 31.648848 90.709382 
L 31.578 90.434509 
L 31.693383 90.160653 
L 31.992566 89.896271 
L 33.113361 89.428579 
L 34.846388 89.092012 
L 37.046299 88.936152 
L 39.528591 88.995426 
L 42.085078 89.286218 
L 44.501352 89.805494 
L 46.574763 90.531059 
L 48.131418 91.423415 
L 48.673141 91.915856 
L 49.040761 92.429077 
L 49.226529 92.954944 
L 49.226529 93.485056 
L 49.040761 94.010923 
L 48.673141 94.524144 
L 48.131418 95.016585 
L 46.574763 95.908941 
L 44.501352 96.634506 
L 42.085078 97.153782 
L 39.528591 97.444574 
L 37.046299 97.503848 
L 34.846388 97.347988 
L 33.113361 97.011421 
L 31.992566 96.543729 
L 31.693383 96.279347 
L 31.578 96.005491 
L 31.648848 95.730618 
L 31.904433 95.463204 
L 32.944489 94.983703 
L 34.610938 94.628558 
L 36.764018 94.44891 
L 39.223154 94.481181 
L 41.782101 94.744018 
L 44.226246 95.236733 
L 46.3506 95.939358 
L 47.976998 96.814319 
L 48.558865 97.300619 
L 48.969036 97.80959 
L 49.198868 98.333186 
L 49.243514 98.863054 
L 49.102035 99.390709 
L 48.777411 99.907713 
L 48.276487 100.405852 
L 47.609819 100.877309 
L 45.838662 101.711877 
L 43.612484 102.362779 
L 41.117992 102.79678 
L 38.564394 102.998834 
L 36.165856 102.973353 
L 34.123542 102.743826 
L 32.608736 102.35086 
L 31.748482 101.848767 
L 31.588703 101.576415 
L 31.61493 101.301011 
L 31.826609 101.031044 
L 32.21928 100.774887 
L 33.510845 100.335875 
L 35.381305 100.042149 
L 37.673786 99.939698 
L 40.196023 100.058471 
L 42.736478 100.409859 
L 45.082088 100.985749 
L 47.036129 101.759195 
L 48.43472 102.686686 
L 48.886947 103.190943 
L 49.160563 103.711788 
L 49.249802 104.240924 
L 49.152782 104.769883 
L 48.871549 105.290198 
L 48.41203 105.793585 
L 47.783912 106.272118 
L 46.078109 107.125687 
L 43.897203 107.800673 
L 41.424103 108.261821 
L 38.866225 108.491809 
L 37.62275 108.52 
L 37.62275 139.12 
L 37.62275 139.12 
" clip-path="url(#pf5d5b5f6ae)" style="fill: none; stroke: #000000; stroke-width: 2; stroke-linecap: round"/>
   </g>
   <g id="line2d_5">
    <path d="M 37.62275 139.12 
L 80.76875 139.12 
M 80.76875 131.47 
L 80.76875 146.77 
M 86.27675 131.47 
L 86.27675 146.77 
M 86.27675 139.12 
L 129.42275 139.12 
" clip-path="url(#pf5d5b5f6ae)" style="fill: none; stroke: #000000; stroke-width: 2; stroke-linecap: round"/>
   </g>
   <g id="line2d_6">
    <path d="M 129.42275 139.12 
L 160.02275 139.12 
L 160.136709 136.600441 
L 160.483246 134.058159 
L 161.054651 131.706371 
L 161.824357 129.742317 
L 162.749165 128.33072 
L 163.252552 127.871201 
L 163.772867 127.589968 
L 164.301826 127.492948 
L 164.830962 127.582187 
L 165.351807 127.855803 
L 165.856064 128.30803 
L 166.33579 128.929334 
L 167.192605 130.623506 
L 167.871747 132.79623 
L 168.337612 135.265284 
L 168.572484 137.823592 
L 168.57802 140.256592 
L 168.37511 142.360233 
L 168.002126 143.958086 
L 167.511706 144.916141 
L 167.241739 145.12782 
L 166.966335 145.154047 
L 166.693983 144.994268 
L 166.433107 144.651851 
L 165.978098 143.451673 
L 165.660825 141.654168 
L 165.529251 139.410092 
L 165.615766 136.907651 
L 165.934469 134.356721 
L 166.479986 131.971245 
L 167.22792 129.951289 
L 168.136898 128.466263 
L 168.635037 127.965338 
L 169.152041 127.640715 
L 169.679696 127.499236 
L 170.209564 127.543882 
L 170.73316 127.773713 
L 171.242131 128.183885 
L 171.728431 128.765752 
L 172.603392 130.39215 
L 173.306017 132.516504 
L 173.798732 134.960649 
L 174.061569 137.519596 
L 174.09384 139.978732 
L 173.914192 142.131812 
L 173.559047 143.798261 
L 173.079546 144.838316 
L 172.812132 145.093902 
L 172.537259 145.16475 
L 172.263403 145.049367 
L 171.999021 144.750184 
L 171.531329 143.629389 
L 171.194762 141.896362 
L 171.038902 139.696451 
L 171.098176 137.214159 
L 171.388968 134.657672 
L 171.908244 132.241398 
L 172.633809 130.167987 
L 173.526165 128.611332 
L 174.018606 128.069609 
L 174.531827 127.701988 
L 175.057694 127.516221 
L 175.587806 127.516221 
L 176.113673 127.701988 
L 176.626894 128.069609 
L 177.119335 128.611332 
L 178.011691 130.167987 
L 178.737255 132.241398 
L 179.256532 134.657672 
L 179.547324 137.214159 
L 179.606598 139.696451 
L 179.450738 141.896362 
L 179.114171 143.629389 
L 178.646479 144.750184 
L 178.382097 145.049367 
L 178.108241 145.16475 
L 177.833368 145.093902 
L 177.565954 144.838316 
L 177.086453 143.798261 
L 176.731308 142.131812 
L 176.55166 139.978732 
L 176.583931 137.519596 
L 176.846768 134.960649 
L 177.339483 132.516504 
L 178.042108 130.39215 
L 178.917069 128.765752 
L 179.403369 128.183885 
L 179.91234 127.773713 
L 180.435936 127.543882 
L 180.965804 127.499236 
L 181.493459 127.640715 
L 182.010463 127.965338 
L 182.508602 128.466263 
L 182.980059 129.132931 
L 183.814627 130.904088 
L 184.465529 133.130266 
L 184.899529 135.624758 
L 185.101584 138.178356 
L 185.076103 140.576894 
L 184.846576 142.619208 
L 184.45361 144.134014 
L 183.951517 144.994268 
L 183.679165 145.154047 
L 183.403761 145.12782 
L 183.133794 144.916141 
L 182.877637 144.52347 
L 182.438625 143.231905 
L 182.144899 141.361445 
L 182.042448 139.068964 
L 182.161221 136.546727 
L 182.512609 134.006272 
L 183.088499 131.660662 
L 183.861945 129.706621 
L 184.789436 128.30803 
L 185.293693 127.855803 
L 185.814538 127.582187 
L 186.343674 127.492948 
L 186.872633 127.589968 
L 187.392948 127.871201 
L 187.896335 128.33072 
L 188.374868 128.958838 
L 189.228437 130.664641 
L 189.903423 132.845547 
L 190.36457 135.318647 
L 190.594559 137.876525 
L 190.62275 139.12 
L 221.22275 139.12 
L 221.22275 139.12 
" clip-path="url(#pf5d5b5f6ae)" style="fill: none; stroke: #000000; stroke-width: 2; stroke-linecap: round"/>
   </g>
   <g id="line2d_7">
    <path d="M 221.22275 139.12 
L 221.22275 169.72 
L 228.87275 172.27 
L 213.57275 177.37 
L 228.87275 182.47 
L 213.57275 187.57 
L 228.87275 192.67 
L 213.57275 197.77 
L 221.22275 200.32 
L 221.22275 230.92 
" clip-path="url(#pf5d5b5f6ae)" style="fill: none; stroke: #000000; stroke-width: 2; stroke-linecap: round"/>
   </g>
   <g id="line2d_8">
    <path d="M 221.22275 139.12 
L 228.87275 139.12 
L 236.52275 139.12 
" clip-path="url(#pf5d5b5f6ae)" style="fill: none; stroke: #000000; stroke-width: 2; stroke-linecap: round"/>
   </g>
   <g id="line2d_9">
    <path d="M 221.22275 230.92 
L 228.87275 230.92 
L 236.52275 230.92 
" clip-path="url(#pf5d5b5f6ae)" style="fill: none; stroke: #000000; stroke-width: 2; stroke-linecap: round"/>
   </g>
   <g id="line2d_10">
    <path d="M 221.22275 230.92 
L 129.42275 230.92 
L 37.62275 230.92 
" clip-path="url(#pf5d5b5f6ae)" style="fill: none; stroke: #000000; stroke-width: 2; stroke-linecap: round"/>
   </g>
   <g id="text_1">
    <g clip-path="url(#pf5d5b5f6ae)">
     <!-- $V_{dd}$ -->
     <g transform="translate(27.56025 29.420391)scale(0.125 -0.125)">
      <defs>
       <path id="DejaVuSans-Oblique-56" d="M 1319 0 
L 500 4666 
L 1119 4666 
L 1797 653 
L 4063 4666 
L 4750 4666 
L 2053 0 
L 1319 0 
z
" transform="scale(0.015625)"/>
       <path id="DejaVuSans-Oblique-64" d="M 2675 525 
Q 2444 222 2128 65 
Q 1813 -91 1428 -91 
Q 903 -91 598 267 
Q 294 625 294 1247 
Q 294 1766 478 2236 
Q 663 2706 1013 3078 
Q 1244 3325 1534 3454 
Q 1825 3584 2144 3584 
Q 2481 3584 2739 3421 
Q 2997 3259 3138 2956 
L 3513 4863 
L 4091 4863 
L 3144 0 
L 2566 0 
L 2675 525 
z
M 891 1350 
Q 891 897 1095 644 
Q 1300 391 1663 391 
Q 1931 391 2161 520 
Q 2391 650 2566 903 
Q 2750 1166 2856 1509 
Q 2963 1853 2963 2188 
Q 2963 2622 2758 2865 
Q 2553 3109 2194 3109 
Q 1922 3109 1687 2981 
Q 1453 2853 1288 2613 
Q 1106 2353 998 2009 
Q 891 1666 891 1350 
z
" transform="scale(0.015625)"/>
      </defs>
      <use xlink:href="#DejaVuSans-Oblique-56" transform="translate(0 0.09375)"/>
      <use xlink:href="#DejaVuSans-Oblique-64" transform="translate(68.408203 -16.3125)scale(0.7)"/>
      <use xlink:href="#DejaVuSans-Oblique-64" transform="translate(112.841797 -16.3125)scale(0.7)"/>
     </g>
    </g>
   </g>
   <g id="text_2">
    <g clip-path="url(#pf5d5b5f6ae)">
     <!-- $L_1$ -->
     <g transform="translate(15.643 96.669219)scale(0.125 -0.125)">
      <defs>
       <path id="DejaVuSans-Oblique-4c" d="M 1075 4666 
L 1709 4666 
L 909 525 
L 3181 525 
L 3078 0 
L 172 0 
L 1075 4666 
z
" transform="scale(0.015625)"/>
       <path id="DejaVuSans-31" d="M 794 531 
L 1825 531 
L 1825 4091 
L 703 3866 
L 703 4441 
L 1819 4666 
L 2450 4666 
L 2450 531 
L 3481 531 
L 3481 0 
L 794 0 
L 794 531 
z
" transform="scale(0.015625)"/>
      </defs>
      <use xlink:href="#DejaVuSans-Oblique-4c" transform="translate(0 0.09375)"/>
      <use xlink:href="#DejaVuSans-31" transform="translate(55.712891 -16.3125)scale(0.7)"/>
     </g>
    </g>
   </g>
   <g id="text_3">
    <g clip-path="url(#pf5d5b5f6ae)">
     <!-- $C_2$ -->
     <g transform="translate(76.14775 125.810391)scale(0.125 -0.125)">
      <defs>
       <path id="DejaVuSans-Oblique-43" d="M 4447 4306 
L 4319 3641 
Q 4019 3944 3683 4091 
Q 3347 4238 2956 4238 
Q 2422 4238 2017 3981 
Q 1613 3725 1319 3200 
Q 1131 2863 1032 2486 
Q 934 2109 934 1728 
Q 934 1091 1264 756 
Q 1594 422 2222 422 
Q 2656 422 3056 561 
Q 3456 700 3834 978 
L 3688 231 
Q 3316 72 2936 -9 
Q 2556 -91 2175 -91 
Q 1278 -91 773 396 
Q 269 884 269 1753 
Q 269 2309 461 2846 
Q 653 3384 1013 3828 
Q 1394 4300 1883 4525 
Q 2372 4750 3022 4750 
Q 3422 4750 3780 4639 
Q 4138 4528 4447 4306 
z
" transform="scale(0.015625)"/>
       <path id="DejaVuSans-32" d="M 1228 531 
L 3431 531 
L 3431 0 
L 469 0 
L 469 531 
Q 828 903 1448 1529 
Q 2069 2156 2228 2338 
Q 2531 2678 2651 2914 
Q 2772 3150 2772 3378 
Q 2772 3750 2511 3984 
Q 2250 4219 1831 4219 
Q 1534 4219 1204 4116 
Q 875 4013 500 3803 
L 500 4441 
Q 881 4594 1212 4672 
Q 1544 4750 1819 4750 
Q 2544 4750 2975 4387 
Q 3406 4025 3406 3419 
Q 3406 3131 3298 2873 
Q 3191 2616 2906 2266 
Q 2828 2175 2409 1742 
Q 1991 1309 1228 531 
z
" transform="scale(0.015625)"/>
      </defs>
      <use xlink:href="#DejaVuSans-Oblique-43" transform="translate(0 0.78125)"/>
      <use xlink:href="#DejaVuSans-32" transform="translate(69.824219 -15.625)scale(0.7)"/>
     </g>
    </g>
   </g>
   <g id="text_4">
    <g clip-path="url(#pf5d5b5f6ae)">
     <!-- $L_2$ -->
     <g transform="translate(168.88525 121.833339)scale(0.125 -0.125)">
      <use xlink:href="#DejaVuSans-Oblique-4c" transform="translate(0 0.09375)"/>
      <use xlink:href="#DejaVuSans-32" transform="translate(55.712891 -16.3125)scale(0.7)"/>
     </g>
    </g>
   </g>
   <g id="text_5">
    <g clip-path="url(#pf5d5b5f6ae)">
     <!-- $R_L$ -->
     <g transform="translate(196.51275 188.469219)scale(0.125 -0.125)">
      <defs>
       <path id="DejaVuSans-Oblique-52" d="M 1613 4147 
L 1294 2491 
L 2106 2491 
Q 2584 2491 2879 2755 
Q 3175 3019 3175 3444 
Q 3175 3784 2976 3965 
Q 2778 4147 2406 4147 
L 1613 4147 
z
M 2772 2241 
Q 2972 2194 3105 2009 
Q 3238 1825 3413 1275 
L 3809 0 
L 3144 0 
L 2778 1197 
Q 2638 1659 2453 1815 
Q 2269 1972 1888 1972 
L 1191 1972 
L 806 0 
L 172 0 
L 1081 4666 
L 2503 4666 
Q 3150 4666 3495 4373 
Q 3841 4081 3841 3531 
Q 3841 3044 3547 2687 
Q 3253 2331 2772 2241 
z
" transform="scale(0.015625)"/>
      </defs>
      <use xlink:href="#DejaVuSans-Oblique-52" transform="translate(0 0.09375)"/>
      <use xlink:href="#DejaVuSans-Oblique-4c" transform="translate(69.482422 -16.3125)scale(0.7)"/>
     </g>
    </g>
   </g>
   <g id="text_6">
    <g clip-path="url(#pf5d5b5f6ae)">
     <!-- + -->
     <g transform="translate(243.525445 165.519219)scale(0.125 -0.125)">
      <defs>
       <path id="DejaVuSans-2b" d="M 2944 4013 
L 2944 2272 
L 4684 2272 
L 4684 1741 
L 2944 1741 
L 2944 0 
L 2419 0 
L 2419 1741 
L 678 1741 
L 678 2272 
L 2419 2272 
L 2419 4013 
L 2944 4013 
z
" transform="scale(0.015625)"/>
      </defs>
      <use xlink:href="#DejaVuSans-2b"/>
     </g>
    </g>
   </g>
   <g id="text_7">
    <g clip-path="url(#pf5d5b5f6ae)">
     <!-- $v_{out}$ -->
     <g transform="translate(237.70025 188.469219)scale(0.125 -0.125)">
      <defs>
       <path id="DejaVuSans-Oblique-76" d="M 459 3500 
L 1069 3500 
L 1581 525 
L 3256 3500 
L 3866 3500 
L 1875 0 
L 1100 0 
L 459 3500 
z
" transform="scale(0.015625)"/>
       <path id="DejaVuSans-Oblique-6f" d="M 1625 -91 
Q 1009 -91 651 289 
Q 294 669 294 1325 
Q 294 1706 417 2101 
Q 541 2497 738 2766 
Q 1047 3184 1428 3384 
Q 1809 3584 2291 3584 
Q 2888 3584 3255 3212 
Q 3622 2841 3622 2241 
Q 3622 1825 3500 1412 
Q 3378 1000 3181 728 
Q 2875 309 2494 109 
Q 2113 -91 1625 -91 
z
M 891 1344 
Q 891 869 1089 633 
Q 1288 397 1691 397 
Q 2269 397 2648 901 
Q 3028 1406 3028 2181 
Q 3028 2634 2825 2865 
Q 2622 3097 2228 3097 
Q 1903 3097 1650 2945 
Q 1397 2794 1197 2484 
Q 1050 2253 970 1956 
Q 891 1659 891 1344 
z
" transform="scale(0.015625)"/>
       <path id="DejaVuSans-Oblique-75" d="M 428 1388 
L 838 3500 
L 1416 3500 
L 1006 1409 
Q 975 1256 961 1147 
Q 947 1038 947 966 
Q 947 700 1109 554 
Q 1272 409 1569 409 
Q 2031 409 2368 721 
Q 2706 1034 2809 1563 
L 3194 3500 
L 3769 3500 
L 3091 0 
L 2516 0 
L 2631 550 
Q 2388 244 2052 76 
Q 1716 -91 1338 -91 
Q 878 -91 622 161 
Q 366 413 366 863 
Q 366 956 381 1097 
Q 397 1238 428 1388 
z
" transform="scale(0.015625)"/>
       <path id="DejaVuSans-Oblique-74" d="M 2706 3500 
L 2619 3053 
L 1472 3053 
L 1100 1153 
Q 1081 1047 1072 975 
Q 1063 903 1063 863 
Q 1063 663 1183 572 
Q 1303 481 1569 481 
L 2150 481 
L 2053 0 
L 1503 0 
Q 991 0 739 200 
Q 488 400 488 806 
Q 488 878 497 964 
Q 506 1050 525 1153 
L 897 3053 
L 409 3053 
L 500 3500 
L 978 3500 
L 1172 4494 
L 1747 4494 
L 1556 3500 
L 2706 3500 
z
" transform="scale(0.015625)"/>
      </defs>
      <use xlink:href="#DejaVuSans-Oblique-76" transform="translate(0 0.3125)"/>
      <use xlink:href="#DejaVuSans-Oblique-6f" transform="translate(59.179688 -16.09375)scale(0.7)"/>
      <use xlink:href="#DejaVuSans-Oblique-75" transform="translate(102.006836 -16.09375)scale(0.7)"/>
      <use xlink:href="#DejaVuSans-Oblique-74" transform="translate(146.37207 -16.09375)scale(0.7)"/>
     </g>
    </g>
   </g>
   <g id="text_8">
    <g clip-path="url(#pf5d5b5f6ae)">
     <!-- $-$ -->
     <g transform="translate(243.51275 211.419219)scale(0.125 -0.125)">
      <defs>
       <path id="DejaVuSans-2212" d="M 678 2272 
L 4684 2272 
L 4684 1741 
L 678 1741 
L 678 2272 
z
" transform="scale(0.015625)"/>
      </defs>
      <use xlink:href="#DejaVuSans-2212" transform="translate(0 0.5)"/>
     </g>
    </g>
   </g>
   <g id="patch_2">
    <path d="M 37.62275 141.415 
C 38.231391 141.415 38.815186 141.173184 39.24556 140.74281 
C 39.675934 140.312436 39.91775 139.728641 39.91775 139.12 
C 39.91775 138.511359 39.675934 137.927564 39.24556 137.49719 
C 38.815186 137.066816 38.231391 136.825 37.62275 136.825 
C 37.014109 136.825 36.430314 137.066816 35.99994 137.49719 
C 35.569566 137.927564 35.32775 138.511359 35.32775 139.12 
C 35.32775 139.728641 35.569566 140.312436 35.99994 140.74281 
C 36.430314 141.173184 37.014109 141.415 37.62275 141.415 
z
" clip-path="url(#pf5d5b5f6ae)" style="stroke: #000000; stroke-width: 2; stroke-linejoin: miter"/>
   </g>
   <g id="patch_3">
    <path d="M 236.52275 141.415 
C 237.131391 141.415 237.715186 141.173184 238.14556 140.74281 
C 238.575934 140.312436 238.81775 139.728641 238.81775 139.12 
C 238.81775 138.511359 238.575934 137.927564 238.14556 137.49719 
C 237.715186 137.066816 237.131391 136.825 236.52275 136.825 
C 235.914109 136.825 235.330314 137.066816 234.89994 137.49719 
C 234.469566 137.927564 234.22775 138.511359 234.22775 139.12 
C 234.22775 139.728641 234.469566 140.312436 234.89994 140.74281 
C 235.330314 141.173184 235.914109 141.415 236.52275 141.415 
z
" clip-path="url(#pf5d5b5f6ae)" style="fill: #ffffff; stroke: #000000; stroke-width: 2; stroke-linejoin: miter"/>
   </g>
   <g id="patch_4">
    <path d="M 236.52275 233.215 
C 237.131391 233.215 237.715186 232.973184 238.14556 232.54281 
C 238.575934 232.112436 238.81775 231.528641 238.81775 230.92 
C 238.81775 230.311359 238.575934 229.727564 238.14556 229.29719 
C 237.715186 228.866816 237.131391 228.625 236.52275 228.625 
C 235.914109 228.625 235.330314 228.866816 234.89994 229.29719 
C 234.469566 229.727564 234.22775 230.311359 234.22775 230.92 
C 234.22775 231.528641 234.469566 232.112436 234.89994 232.54281 
C 235.330314 232.973184 235.914109 233.215 236.52275 233.215 
z
" clip-path="url(#pf5d5b5f6ae)" style="fill: #ffffff; stroke: #000000; stroke-width: 2; stroke-linejoin: miter"/>
   </g>
   <g id="patch_5">
    <path d="M 37.62275 233.215 
C 38.231391 233.215 38.815186 232.973184 39.24556 232.54281 
C 39.675934 232.112436 39.91775 231.528641 39.91775 230.92 
C 39.91775 230.311359 39.675934 229.727564 39.24556 229.29719 
C 38.815186 228.866816 38.231391 228.625 37.62275 228.625 
C 37.014109 228.625 36.430314 228.866816 35.99994 229.29719 
C 35.569566 229.727564 35.32775 230.311359 35.32775 230.92 
C 35.32775 231.528641 35.569566 232.112436 35.99994 232.54281 
C 36.430314 232.973184 37.014109 233.215 37.62275 233.215 
z
" clip-path="url(#pf5d5b5f6ae)" style="stroke: #000000; stroke-width: 2; stroke-linejoin: miter"/>
   </g>
  </g>
 </g>
 <defs>
  <clipPath id="pf5d5b5f6ae">
   <rect x="7.2" y="7.2" width="269.78615" height="229.075"/>
  </clipPath>
 </defs>
</svg>
