<?xml version="1.0" encoding="utf-8" standalone="no"?>
<!DOCTYPE svg PUBLIC "-//W3C//DTD SVG 1.1//EN"
  "http://www.w3.org/Graphics/SVG/1.1/DTD/svg11.dtd">
<!-- Created with matplotlib (https://matplotlib.org/) -->
<svg height="347.311375pt" version="1.1" viewBox="0 0 251.724 347.311375" width="251.724pt" xmlns="http://www.w3.org/2000/svg" xmlns:xlink="http://www.w3.org/1999/xlink">
 <metadata>
  <rdf:RDF xmlns:cc="http://creativecommons.org/ns#" xmlns:dc="http://purl.org/dc/elements/1.1/" xmlns:rdf="http://www.w3.org/1999/02/22-rdf-syntax-ns#">
   <cc:Work>
    <dc:type rdf:resource="http://purl.org/dc/dcmitype/StillImage"/>
    <dc:date>2020-10-19T08:41:39.926598</dc:date>
    <dc:format>image/svg+xml</dc:format>
    <dc:creator>
     <cc:Agent>
      <dc:title>Matplotlib v3.3.2, https://matplotlib.org/</dc:title>
     </cc:Agent>
    </dc:creator>
   </cc:Work>
  </rdf:RDF>
 </metadata>
 <defs>
  <style type="text/css">*{stroke-linecap:butt;stroke-linejoin:round;}</style>
 </defs>
 <g id="figure_1">
  <g id="patch_1">
   <path d="M 0 347.311375 
L 251.724 347.311375 
L 251.724 0 
L 0 0 
z
" style="fill:none;"/>
  </g>
  <g id="axes_1">
   <g id="patch_2">
    <path clip-path="url(#p19787ca2a0)" d="M 157.374 287.275375 
L 150.345453 285.615857 
L 152.443474 283.304148 
L 144.889457 277.188992 
L 144.910543 277.165758 
L 152.46456 283.280915 
L 154.562581 280.969207 
z
" style="stroke:#000000;stroke-linejoin:miter;stroke-width:2;"/>
   </g>
   <g id="patch_3">
    <path clip-path="url(#p19787ca2a0)" d="M 35.82 302.167375 
C 37.968145 302.167375 40.028597 301.361323 41.547565 299.926742 
C 43.066533 298.492161 43.92 296.546179 43.92 294.517375 
C 43.92 292.488571 43.066533 290.542589 41.547565 289.108008 
C 40.028597 287.673427 37.968145 286.867375 35.82 286.867375 
C 33.671855 286.867375 31.611403 287.673427 30.092435 289.108008 
C 28.573467 290.542589 27.72 292.488571 27.72 294.517375 
C 27.72 296.546179 28.573467 298.492161 30.092435 299.926742 
C 31.611403 301.361323 33.671855 302.167375 35.82 302.167375 
z
" style="fill:none;stroke:#000000;stroke-linejoin:miter;stroke-width:2;"/>
   </g>
   <g id="line2d_1">
    <path clip-path="url(#p19787ca2a0)" d="M 133.02 271.567375 
L 144.9 271.567375 
" style="fill:none;stroke:#000000;stroke-linecap:round;stroke-width:2;"/>
   </g>
   <g id="line2d_2">
    <path clip-path="url(#p19787ca2a0)" d="M 144.9 260.347375 
L 144.9 282.787375 
" style="fill:none;stroke:#000000;stroke-linecap:round;stroke-width:2;"/>
   </g>
   <g id="line2d_3">
    <path clip-path="url(#p19787ca2a0)" d="M 144.9 265.957375 
L 157.374 255.859375 
L 157.374 250.249375 
" style="fill:none;stroke:#000000;stroke-linecap:round;stroke-width:2;"/>
   </g>
   <g id="line2d_4">
    <path clip-path="url(#p19787ca2a0)" d="M 144.9 277.177375 
L 157.374 287.275375 
L 157.374 292.885375 
" style="fill:none;stroke:#000000;stroke-linecap:round;stroke-width:2;"/>
   </g>
   <g id="line2d_5">
    <path clip-path="url(#p19787ca2a0)" d="M 133.02 271.567375 
L 100.62 271.567375 
L 97.92 279.217375 
L 92.52 263.917375 
L 87.12 279.217375 
L 81.72 263.917375 
L 76.32 279.217375 
L 70.92 263.917375 
L 68.22 271.567375 
L 35.82 271.567375 
" style="fill:none;stroke:#000000;stroke-linecap:round;stroke-width:2;"/>
   </g>
   <g id="line2d_6">
    <path clip-path="url(#p19787ca2a0)" d="M 35.82 271.567375 
L 35.82 286.867375 
L 35.82 286.867375 
M 35.82 302.167375 
L 35.82 302.167375 
L 35.82 317.467375 
" style="fill:none;stroke:#000000;stroke-linecap:round;stroke-width:2;"/>
   </g>
   <g id="line2d_7">
    <path clip-path="url(#p19787ca2a0)" d="M 34.2 290.692375 
L 37.44 290.692375 
" style="fill:none;stroke:#000000;stroke-linecap:round;stroke-width:2;"/>
   </g>
   <g id="line2d_8">
    <path clip-path="url(#p19787ca2a0)" d="M 35.82 296.812375 
L 35.82 299.872375 
" style="fill:none;stroke:#000000;stroke-linecap:round;stroke-width:2;"/>
   </g>
   <g id="line2d_9">
    <path clip-path="url(#p19787ca2a0)" d="M 34.2 298.342375 
L 37.44 298.342375 
" style="fill:none;stroke:#000000;stroke-linecap:round;stroke-width:2;"/>
   </g>
   <g id="line2d_10">
    <path clip-path="url(#p19787ca2a0)" d="M 35.82 317.467375 
L 96.597 317.467375 
L 157.374 317.467375 
" style="fill:none;stroke:#000000;stroke-linecap:round;stroke-width:2;"/>
   </g>
   <g id="line2d_11">
    <path clip-path="url(#p19787ca2a0)" d="M 157.374 317.467375 
L 157.374 329.707375 
L 149.274 329.707375 
L 165.474 329.707375 
M 151.704 333.379375 
L 163.044 333.379375 
M 155.754 337.051375 
L 158.994 337.051375 
" style="fill:none;stroke:#000000;stroke-linecap:round;stroke-width:2;"/>
   </g>
   <g id="line2d_12">
    <path clip-path="url(#p19787ca2a0)" d="M 157.374 317.467375 
L 157.374 305.176375 
L 157.374 292.885375 
" style="fill:none;stroke:#000000;stroke-linecap:round;stroke-width:2;"/>
   </g>
   <g id="line2d_13">
    <path clip-path="url(#p19787ca2a0)" d="M 157.374 250.249375 
L 157.374 238.774375 
L 157.374 227.299375 
" style="fill:none;stroke:#000000;stroke-linecap:round;stroke-width:2;"/>
   </g>
   <g id="line2d_14">
    <path clip-path="url(#p19787ca2a0)" d="M 157.374 227.299375 
L 157.374 184.153375 
M 149.274 184.153375 
L 165.474 184.153375 
M 149.274 178.645375 
L 165.474 178.645375 
M 157.374 178.645375 
L 157.374 135.499375 
" style="fill:none;stroke:#000000;stroke-linecap:round;stroke-width:2;"/>
   </g>
   <g id="line2d_15">
    <path clip-path="url(#p19787ca2a0)" d="M 157.374 227.299375 
L 137.124 227.299375 
L 116.874 227.299375 
" style="fill:none;stroke:#000000;stroke-linecap:round;stroke-width:2;"/>
   </g>
   <g id="line2d_16">
    <path clip-path="url(#p19787ca2a0)" d="M 116.874 227.299375 
L 116.874 196.699375 
L 114.206232 196.585416 
L 111.514404 196.238879 
L 109.024275 195.667474 
L 106.944688 194.897768 
L 105.450056 193.97296 
L 104.963507 193.469573 
L 104.665731 192.949258 
L 104.563004 192.420299 
L 104.657492 191.891163 
L 104.947204 191.370318 
L 105.426032 190.866061 
L 106.083883 190.386335 
L 107.877712 189.52952 
L 110.178243 188.850378 
L 112.792536 188.384513 
L 115.501332 188.149641 
L 118.077451 188.144105 
L 120.304835 188.347015 
L 121.996679 188.719999 
L 123.01109 189.210419 
L 123.235221 189.480386 
L 123.26299 189.75579 
L 123.093813 190.028142 
L 122.731254 190.289018 
L 121.460477 190.744027 
L 119.557237 191.0613 
L 117.181156 191.192874 
L 114.531512 191.106359 
L 111.830528 190.787656 
L 109.30473 190.242139 
L 107.165953 189.494205 
L 105.593573 188.585227 
L 105.063182 188.087088 
L 104.719463 187.570084 
L 104.569661 187.042429 
L 104.616934 186.512561 
L 104.860285 185.988965 
L 105.294584 185.479994 
L 105.910678 184.993694 
L 107.632747 184.118733 
L 109.882064 183.416108 
L 112.469981 182.923393 
L 115.179455 182.660556 
L 117.783246 182.628285 
L 120.062978 182.807933 
L 121.827453 183.163078 
L 122.928688 183.642579 
L 123.199308 183.909993 
L 123.274323 184.184866 
L 123.152153 184.458722 
L 122.835372 184.723104 
L 121.648647 185.190796 
L 119.813678 185.527363 
L 117.48436 185.683223 
L 114.856051 185.623949 
L 112.149182 185.333157 
L 109.590775 184.813881 
L 107.395398 184.088316 
L 105.747175 183.19596 
L 105.173586 182.703519 
L 104.784341 182.190298 
L 104.587645 181.664431 
L 104.587645 181.134319 
L 104.784341 180.608452 
L 105.173586 180.095231 
L 105.747175 179.60279 
L 106.49302 179.138826 
L 108.435289 178.323961 
L 110.837498 177.697623 
L 113.498178 177.290987 
L 116.19418 177.116801 
L 118.699396 177.168321 
L 120.803717 177.419869 
L 122.330657 177.828994 
L 123.152153 178.340028 
L 123.274323 178.613884 
L 123.199308 178.888757 
L 122.928688 179.156171 
L 121.827453 179.635672 
L 120.062978 179.990817 
L 117.783246 180.170465 
L 115.179455 180.138194 
L 112.469981 179.875357 
L 109.882064 179.382642 
L 107.632747 178.680017 
L 105.910678 177.805056 
L 105.294584 177.318756 
L 104.860285 176.809785 
L 104.616934 176.286189 
L 104.569661 175.756321 
L 104.719463 175.228666 
L 105.063182 174.711662 
L 105.593573 174.213523 
L 106.299456 173.742066 
L 108.174799 172.907498 
L 110.531928 172.256596 
L 113.173156 171.822595 
L 115.876966 171.620541 
L 118.416593 171.646022 
L 120.579044 171.875549 
L 122.182956 172.268515 
L 123.093813 172.770608 
L 123.26299 173.04296 
L 123.235221 173.318364 
L 123.01109 173.588331 
L 122.595322 173.844488 
L 121.227782 174.2835 
L 119.247295 174.577226 
L 116.819961 174.679677 
L 114.149358 174.560904 
L 111.459465 174.209516 
L 108.975878 173.633626 
L 106.906893 172.86018 
L 105.426032 171.932689 
L 104.947204 171.428432 
L 104.657492 170.907587 
L 104.563004 170.378451 
L 104.665731 169.849492 
L 104.963507 169.329177 
L 105.450056 168.82579 
L 106.115123 168.347257 
L 107.921267 167.493688 
L 110.230462 166.818702 
L 112.849038 166.357554 
L 115.557379 166.127566 
L 116.874 166.099375 
L 116.874 135.499375 
L 116.874 135.499375 
" style="fill:none;stroke:#000000;stroke-linecap:round;stroke-width:2;"/>
   </g>
   <g id="line2d_17">
    <path clip-path="url(#p19787ca2a0)" d="M 157.374 135.499375 
L 157.374 92.353375 
M 149.274 92.353375 
L 165.474 92.353375 
M 149.274 86.845375 
L 165.474 86.845375 
M 157.374 86.845375 
L 157.374 43.699375 
" style="fill:none;stroke:#000000;stroke-linecap:round;stroke-width:2;"/>
   </g>
   <g id="line2d_18">
    <path clip-path="url(#p19787ca2a0)" d="M 157.374 135.499375 
L 137.124 135.499375 
L 116.874 135.499375 
" style="fill:none;stroke:#000000;stroke-linecap:round;stroke-width:2;"/>
   </g>
   <g id="line2d_19">
    <path clip-path="url(#p19787ca2a0)" d="M 116.874 135.499375 
L 116.874 104.899375 
L 114.206232 104.785416 
L 111.514404 104.438879 
L 109.024275 103.867474 
L 106.944688 103.097768 
L 105.450056 102.17296 
L 104.963507 101.669573 
L 104.665731 101.149258 
L 104.563004 100.620299 
L 104.657492 100.091163 
L 104.947204 99.570318 
L 105.426032 99.066061 
L 106.083883 98.586335 
L 107.877712 97.72952 
L 110.178243 97.050378 
L 112.792536 96.584513 
L 115.501332 96.349641 
L 118.077451 96.344105 
L 120.304835 96.547015 
L 121.996679 96.919999 
L 123.01109 97.410419 
L 123.235221 97.680386 
L 123.26299 97.95579 
L 123.093813 98.228142 
L 122.731254 98.489018 
L 121.460477 98.944027 
L 119.557237 99.2613 
L 117.181156 99.392874 
L 114.531512 99.306359 
L 111.830528 98.987656 
L 109.30473 98.442139 
L 107.165953 97.694205 
L 105.593573 96.785227 
L 105.063182 96.287088 
L 104.719463 95.770084 
L 104.569661 95.242429 
L 104.616934 94.712561 
L 104.860285 94.188965 
L 105.294584 93.679994 
L 105.910678 93.193694 
L 107.632747 92.318733 
L 109.882064 91.616108 
L 112.469981 91.123393 
L 115.179455 90.860556 
L 117.783246 90.828285 
L 120.062978 91.007933 
L 121.827453 91.363078 
L 122.928688 91.842579 
L 123.199308 92.109993 
L 123.274323 92.384866 
L 123.152153 92.658722 
L 122.835372 92.923104 
L 121.648647 93.390796 
L 119.813678 93.727363 
L 117.48436 93.883223 
L 114.856051 93.823949 
L 112.149182 93.533157 
L 109.590775 93.013881 
L 107.395398 92.288316 
L 105.747175 91.39596 
L 105.173586 90.903519 
L 104.784341 90.390298 
L 104.587645 89.864431 
L 104.587645 89.334319 
L 104.784341 88.808452 
L 105.173586 88.295231 
L 105.747175 87.80279 
L 106.49302 87.338826 
L 108.435289 86.523961 
L 110.837498 85.897623 
L 113.498178 85.490987 
L 116.19418 85.316801 
L 118.699396 85.368321 
L 120.803717 85.619869 
L 122.330657 86.028994 
L 123.152153 86.540028 
L 123.274323 86.813884 
L 123.199308 87.088757 
L 122.928688 87.356171 
L 121.827453 87.835672 
L 120.062978 88.190817 
L 117.783246 88.370465 
L 115.179455 88.338194 
L 112.469981 88.075357 
L 109.882064 87.582642 
L 107.632747 86.880017 
L 105.910678 86.005056 
L 105.294584 85.518756 
L 104.860285 85.009785 
L 104.616934 84.486189 
L 104.569661 83.956321 
L 104.719463 83.428666 
L 105.063182 82.911662 
L 105.593573 82.413523 
L 106.299456 81.942066 
L 108.174799 81.107498 
L 110.531928 80.456596 
L 113.173156 80.022595 
L 115.876966 79.820541 
L 118.416593 79.846022 
L 120.579044 80.075549 
L 122.182956 80.468515 
L 123.093813 80.970608 
L 123.26299 81.24296 
L 123.235221 81.518364 
L 123.01109 81.788331 
L 122.595322 82.044488 
L 121.227782 82.4835 
L 119.247295 82.777226 
L 116.819961 82.879677 
L 114.149358 82.760904 
L 111.459465 82.409516 
L 108.975878 81.833626 
L 106.906893 81.06018 
L 105.426032 80.132689 
L 104.947204 79.628432 
L 104.657492 79.107587 
L 104.563004 78.578451 
L 104.665731 78.049492 
L 104.963507 77.529177 
L 105.450056 77.02579 
L 106.115123 76.547257 
L 107.921267 75.693688 
L 110.230462 75.018702 
L 112.849038 74.557554 
L 115.557379 74.327566 
L 116.874 74.299375 
L 116.874 43.699375 
L 116.874 43.699375 
" style="fill:none;stroke:#000000;stroke-linecap:round;stroke-width:2;"/>
   </g>
   <g id="line2d_20">
    <path clip-path="url(#p19787ca2a0)" d="M 157.374 135.499375 
L 177.624 135.499375 
L 197.874 135.499375 
" style="fill:none;stroke:#000000;stroke-linecap:round;stroke-width:2;"/>
   </g>
   <g id="line2d_21">
    <path clip-path="url(#p19787ca2a0)" d="M 197.874 135.499375 
L 197.874 104.899375 
L 189.774 102.349375 
L 205.974 97.249375 
L 189.774 92.149375 
L 205.974 87.049375 
L 189.774 81.949375 
L 205.974 76.849375 
L 197.874 74.299375 
L 197.874 43.699375 
" style="fill:none;stroke:#000000;stroke-linecap:round;stroke-width:2;"/>
   </g>
   <g id="line2d_22">
    <path clip-path="url(#p19787ca2a0)" d="M 197.874 135.499375 
L 205.974 135.499375 
L 214.074 135.499375 
" style="fill:none;stroke:#000000;stroke-linecap:round;stroke-width:2;"/>
   </g>
   <g id="line2d_23">
    <path clip-path="url(#p19787ca2a0)" d="M 197.874 43.699375 
L 177.624 43.699375 
L 157.374 43.699375 
" style="fill:none;stroke:#000000;stroke-linecap:round;stroke-width:2;"/>
   </g>
   <g id="line2d_24">
    <path clip-path="url(#p19787ca2a0)" d="M 116.874 43.699375 
L 137.124 43.699375 
L 157.374 43.699375 
" style="fill:none;stroke:#000000;stroke-linecap:round;stroke-width:2;"/>
   </g>
   <g id="line2d_25">
    <path clip-path="url(#p19787ca2a0)" d="M 157.374 43.699375 
L 157.374 39.874375 
L 157.374 36.049375 
" style="fill:none;stroke:#000000;stroke-linecap:round;stroke-width:2;"/>
   </g>
   <g id="line2d_26">
    <path clip-path="url(#p19787ca2a0)" d="M 157.374 36.049375 
L 157.374 23.809375 
" style="fill:none;stroke:#000000;stroke-linecap:round;stroke-width:2;"/>
   </g>
   <g id="line2d_27">
    <path clip-path="url(#p19787ca2a0)" d="M 157.374 23.809375 
L 151.299 23.809375 
" style="fill:none;stroke:#000000;stroke-linecap:round;stroke-width:2;"/>
   </g>
   <g id="line2d_28">
    <path clip-path="url(#p19787ca2a0)" d="M 157.374 23.809375 
L 163.449 23.809375 
" style="fill:none;stroke:#000000;stroke-linecap:round;stroke-width:2;"/>
   </g>
   <g id="text_1">
    <!-- $R_{in}$ -->
    <g transform="translate(74.83 257.945812)scale(0.14 -0.14)">
     <defs>
      <path d="M 25.203125 64.796875 
L 20.21875 38.921875 
L 32.90625 38.921875 
Q 40.375 38.921875 44.984375 43.046875 
Q 49.609375 47.171875 49.609375 53.8125 
Q 49.609375 59.125 46.5 61.953125 
Q 43.40625 64.796875 37.59375 64.796875 
z
M 43.3125 35.015625 
Q 46.4375 34.28125 48.515625 31.390625 
Q 50.59375 28.515625 53.328125 19.921875 
L 59.515625 0 
L 49.125 0 
L 43.40625 18.703125 
Q 41.21875 25.921875 38.328125 28.359375 
Q 35.453125 30.8125 29.5 30.8125 
L 18.609375 30.8125 
L 12.59375 0 
L 2.6875 0 
L 16.890625 72.90625 
L 39.109375 72.90625 
Q 49.21875 72.90625 54.609375 68.328125 
Q 60.015625 63.765625 60.015625 55.171875 
Q 60.015625 47.5625 55.421875 41.984375 
Q 50.828125 36.421875 43.3125 35.015625 
z
" id="DejaVuSans-Oblique-82"/>
      <path d="M 18.3125 75.984375 
L 27.296875 75.984375 
L 25.09375 64.59375 
L 16.109375 64.59375 
z
M 14.203125 54.6875 
L 23.1875 54.6875 
L 12.5 0 
L 3.515625 0 
z
" id="DejaVuSans-Oblique-105"/>
      <path d="M 55.71875 33.015625 
L 49.3125 0 
L 40.28125 0 
L 46.6875 32.671875 
Q 47.125 34.96875 47.359375 36.71875 
Q 47.609375 38.484375 47.609375 39.5 
Q 47.609375 43.609375 45.015625 45.890625 
Q 42.4375 48.1875 37.796875 48.1875 
Q 30.5625 48.1875 25.34375 43.375 
Q 20.125 38.578125 18.5 30.328125 
L 12.5 0 
L 3.515625 0 
L 14.109375 54.6875 
L 23.09375 54.6875 
L 21.296875 46.09375 
Q 25.046875 50.828125 30.3125 53.40625 
Q 35.59375 56 41.40625 56 
Q 48.640625 56 52.609375 52.09375 
Q 56.59375 48.1875 56.59375 41.109375 
Q 56.59375 39.359375 56.375 37.359375 
Q 56.15625 35.359375 55.71875 33.015625 
z
" id="DejaVuSans-Oblique-110"/>
     </defs>
     <use transform="translate(0 0.09375)" xlink:href="#DejaVuSans-Oblique-82"/>
     <use transform="translate(69.482422 -16.3125)scale(0.7)" xlink:href="#DejaVuSans-Oblique-105"/>
     <use transform="translate(88.930664 -16.3125)scale(0.7)" xlink:href="#DejaVuSans-Oblique-110"/>
    </g>
   </g>
   <g id="text_2">
    <!-- $V_{in}$ -->
    <g transform="translate(7.2 298.3805)scale(0.14 -0.14)">
     <defs>
      <path d="M 20.609375 0 
L 7.8125 72.90625 
L 17.484375 72.90625 
L 28.078125 10.203125 
L 63.484375 72.90625 
L 74.21875 72.90625 
L 32.078125 0 
z
" id="DejaVuSans-Oblique-86"/>
     </defs>
     <use transform="translate(0 0.09375)" xlink:href="#DejaVuSans-Oblique-86"/>
     <use transform="translate(68.408203 -16.3125)scale(0.7)" xlink:href="#DejaVuSans-Oblique-105"/>
     <use transform="translate(87.856445 -16.3125)scale(0.7)" xlink:href="#DejaVuSans-Oblique-110"/>
    </g>
   </g>
   <g id="text_3">
    <!-- $C_3$ -->
    <g transform="translate(129.514 185.2625)scale(0.14 -0.14)">
     <defs>
      <path d="M 69.484375 67.28125 
L 67.484375 56.890625 
Q 62.796875 61.625 57.546875 63.921875 
Q 52.296875 66.21875 46.1875 66.21875 
Q 37.84375 66.21875 31.515625 62.203125 
Q 25.203125 58.203125 20.609375 50 
Q 17.671875 44.734375 16.125 38.84375 
Q 14.59375 32.953125 14.59375 27 
Q 14.59375 17.046875 19.75 11.8125 
Q 24.90625 6.59375 34.71875 6.59375 
Q 41.5 6.59375 47.75 8.765625 
Q 54 10.9375 59.90625 15.28125 
L 57.625 3.609375 
Q 51.8125 1.125 45.875 -0.140625 
Q 39.9375 -1.421875 33.984375 -1.421875 
Q 19.96875 -1.421875 12.078125 6.1875 
Q 4.203125 13.8125 4.203125 27.390625 
Q 4.203125 36.078125 7.203125 44.46875 
Q 10.203125 52.875 15.828125 59.8125 
Q 21.78125 67.1875 29.421875 70.703125 
Q 37.0625 74.21875 47.21875 74.21875 
Q 53.46875 74.21875 59.0625 72.484375 
Q 64.65625 70.75 69.484375 67.28125 
z
" id="DejaVuSans-Oblique-67"/>
      <path d="M 40.578125 39.3125 
Q 47.65625 37.796875 51.625 33 
Q 55.609375 28.21875 55.609375 21.1875 
Q 55.609375 10.40625 48.1875 4.484375 
Q 40.765625 -1.421875 27.09375 -1.421875 
Q 22.515625 -1.421875 17.65625 -0.515625 
Q 12.796875 0.390625 7.625 2.203125 
L 7.625 11.71875 
Q 11.71875 9.328125 16.59375 8.109375 
Q 21.484375 6.890625 26.8125 6.890625 
Q 36.078125 6.890625 40.9375 10.546875 
Q 45.796875 14.203125 45.796875 21.1875 
Q 45.796875 27.640625 41.28125 31.265625 
Q 36.765625 34.90625 28.71875 34.90625 
L 20.21875 34.90625 
L 20.21875 43.015625 
L 29.109375 43.015625 
Q 36.375 43.015625 40.234375 45.921875 
Q 44.09375 48.828125 44.09375 54.296875 
Q 44.09375 59.90625 40.109375 62.90625 
Q 36.140625 65.921875 28.71875 65.921875 
Q 24.65625 65.921875 20.015625 65.03125 
Q 15.375 64.15625 9.8125 62.3125 
L 9.8125 71.09375 
Q 15.4375 72.65625 20.34375 73.4375 
Q 25.25 74.21875 29.59375 74.21875 
Q 40.828125 74.21875 47.359375 69.109375 
Q 53.90625 64.015625 53.90625 55.328125 
Q 53.90625 49.265625 50.4375 45.09375 
Q 46.96875 40.921875 40.578125 39.3125 
z
" id="DejaVuSans-51"/>
     </defs>
     <use transform="translate(0 0.78125)" xlink:href="#DejaVuSans-Oblique-67"/>
     <use transform="translate(69.824219 -15.625)scale(0.7)" xlink:href="#DejaVuSans-51"/>
    </g>
   </g>
   <g id="text_4">
    <!-- $L_3$ -->
    <g transform="translate(86.903004 185.2625)scale(0.14 -0.14)">
     <defs>
      <path d="M 16.796875 72.90625 
L 26.703125 72.90625 
L 14.203125 8.203125 
L 49.703125 8.203125 
L 48.09375 0 
L 2.6875 0 
z
" id="DejaVuSans-Oblique-76"/>
     </defs>
     <use transform="translate(0 0.09375)" xlink:href="#DejaVuSans-Oblique-76"/>
     <use transform="translate(55.712891 -16.3125)scale(0.7)" xlink:href="#DejaVuSans-51"/>
    </g>
   </g>
   <g id="text_5">
    <!-- $C_1$ -->
    <g transform="translate(129.514 93.4625)scale(0.14 -0.14)">
     <defs>
      <path d="M 12.40625 8.296875 
L 28.515625 8.296875 
L 28.515625 63.921875 
L 10.984375 60.40625 
L 10.984375 69.390625 
L 28.421875 72.90625 
L 38.28125 72.90625 
L 38.28125 8.296875 
L 54.390625 8.296875 
L 54.390625 0 
L 12.40625 0 
z
" id="DejaVuSans-49"/>
     </defs>
     <use transform="translate(0 0.78125)" xlink:href="#DejaVuSans-Oblique-67"/>
     <use transform="translate(69.824219 -15.625)scale(0.7)" xlink:href="#DejaVuSans-49"/>
    </g>
   </g>
   <g id="text_6">
    <!-- $L_1$ -->
    <g transform="translate(86.903004 93.4625)scale(0.14 -0.14)">
     <use transform="translate(0 0.09375)" xlink:href="#DejaVuSans-Oblique-76"/>
     <use transform="translate(55.712891 -16.3125)scale(0.7)" xlink:href="#DejaVuSans-49"/>
    </g>
   </g>
   <g id="text_7">
    <!-- $R_L$ -->
    <g transform="translate(170.854 93.4625)scale(0.14 -0.14)">
     <use transform="translate(0 0.09375)" xlink:href="#DejaVuSans-Oblique-82"/>
     <use transform="translate(69.482422 -16.3125)scale(0.7)" xlink:href="#DejaVuSans-Oblique-76"/>
    </g>
   </g>
   <g id="text_8">
    <!-- $V_{dd}$ -->
    <g transform="translate(146.104 17.837812)scale(0.14 -0.14)">
     <defs>
      <path d="M 41.796875 8.203125 
Q 38.1875 3.46875 33.25 1.015625 
Q 28.328125 -1.421875 22.3125 -1.421875 
Q 14.109375 -1.421875 9.34375 4.171875 
Q 4.59375 9.765625 4.59375 19.484375 
Q 4.59375 27.59375 7.46875 34.9375 
Q 10.359375 42.28125 15.828125 48.09375 
Q 19.4375 51.953125 23.96875 53.96875 
Q 28.515625 56 33.5 56 
Q 38.765625 56 42.796875 53.453125 
Q 46.828125 50.921875 49.03125 46.1875 
L 54.890625 75.984375 
L 63.921875 75.984375 
L 49.125 0 
L 40.09375 0 
z
M 13.921875 21.09375 
Q 13.921875 14.015625 17.109375 10.0625 
Q 20.3125 6.109375 25.984375 6.109375 
Q 30.171875 6.109375 33.765625 8.125 
Q 37.359375 10.15625 40.09375 14.109375 
Q 42.96875 18.21875 44.625 23.578125 
Q 46.296875 28.953125 46.296875 34.1875 
Q 46.296875 40.96875 43.09375 44.765625 
Q 39.890625 48.578125 34.28125 48.578125 
Q 30.03125 48.578125 26.359375 46.578125 
Q 22.703125 44.578125 20.125 40.828125 
Q 17.28125 36.765625 15.59375 31.390625 
Q 13.921875 26.03125 13.921875 21.09375 
z
" id="DejaVuSans-Oblique-100"/>
     </defs>
     <use transform="translate(0 0.09375)" xlink:href="#DejaVuSans-Oblique-86"/>
     <use transform="translate(68.408203 -16.3125)scale(0.7)" xlink:href="#DejaVuSans-Oblique-100"/>
     <use transform="translate(112.841797 -16.3125)scale(0.7)" xlink:href="#DejaVuSans-Oblique-100"/>
    </g>
   </g>
   <g id="patch_4">
    <path clip-path="url(#p19787ca2a0)" d="M 35.82 273.862375 
C 36.464444 273.862375 37.082579 273.620559 37.538269 273.190185 
C 37.99396 272.759811 38.25 272.176016 38.25 271.567375 
C 38.25 270.958734 37.99396 270.374939 37.538269 269.944565 
C 37.082579 269.514191 36.464444 269.272375 35.82 269.272375 
C 35.175556 269.272375 34.557421 269.514191 34.101731 269.944565 
C 33.64604 270.374939 33.39 270.958734 33.39 271.567375 
C 33.39 272.176016 33.64604 272.759811 34.101731 273.190185 
C 34.557421 273.620559 35.175556 273.862375 35.82 273.862375 
z
" style="fill:#ff0000;stroke:#ff0000;stroke-linejoin:miter;stroke-width:2;"/>
   </g>
   <g id="patch_5">
    <path clip-path="url(#p19787ca2a0)" d="M 157.374 229.594375 
C 158.018444 229.594375 158.636579 229.352559 159.092269 228.922185 
C 159.54796 228.491811 159.804 227.908016 159.804 227.299375 
C 159.804 226.690734 159.54796 226.106939 159.092269 225.676565 
C 158.636579 225.246191 158.018444 225.004375 157.374 225.004375 
C 156.729556 225.004375 156.111421 225.246191 155.655731 225.676565 
C 155.20004 226.106939 154.944 226.690734 154.944 227.299375 
C 154.944 227.908016 155.20004 228.491811 155.655731 228.922185 
C 156.111421 229.352559 156.729556 229.594375 157.374 229.594375 
z
" style="fill:#ff0000;stroke:#ff0000;stroke-linejoin:miter;stroke-width:2;"/>
   </g>
   <g id="patch_6">
    <path clip-path="url(#p19787ca2a0)" d="M 116.874 137.794375 
C 117.518444 137.794375 118.136579 137.552559 118.592269 137.122185 
C 119.04796 136.691811 119.304 136.108016 119.304 135.499375 
C 119.304 134.890734 119.04796 134.306939 118.592269 133.876565 
C 118.136579 133.446191 117.518444 133.204375 116.874 133.204375 
C 116.229556 133.204375 115.611421 133.446191 115.155731 133.876565 
C 114.70004 134.306939 114.444 134.890734 114.444 135.499375 
C 114.444 136.108016 114.70004 136.691811 115.155731 137.122185 
C 115.611421 137.552559 116.229556 137.794375 116.874 137.794375 
z
" style="fill:#ff0000;stroke:#ff0000;stroke-linejoin:miter;stroke-width:2;"/>
   </g>
   <g id="patch_7">
    <path clip-path="url(#p19787ca2a0)" d="M 214.074 137.794375 
C 214.718444 137.794375 215.336579 137.552559 215.792269 137.122185 
C 216.24796 136.691811 216.504 136.108016 216.504 135.499375 
C 216.504 134.890734 216.24796 134.306939 215.792269 133.876565 
C 215.336579 133.446191 214.718444 133.204375 214.074 133.204375 
C 213.429556 133.204375 212.811421 133.446191 212.355731 133.876565 
C 211.90004 134.306939 211.644 134.890734 211.644 135.499375 
C 211.644 136.108016 211.90004 136.691811 212.355731 137.122185 
C 212.811421 137.552559 213.429556 137.794375 214.074 137.794375 
z
" style="fill:#ffffff;stroke:#000000;stroke-linejoin:miter;stroke-width:2;"/>
   </g>
   <g id="patch_8">
    <path clip-path="url(#p19787ca2a0)" d="M 157.374 45.994375 
C 158.018444 45.994375 158.636579 45.752559 159.092269 45.322185 
C 159.54796 44.891811 159.804 44.308016 159.804 43.699375 
C 159.804 43.090734 159.54796 42.506939 159.092269 42.076565 
C 158.636579 41.646191 158.018444 41.404375 157.374 41.404375 
C 156.729556 41.404375 156.111421 41.646191 155.655731 42.076565 
C 155.20004 42.506939 154.944 43.090734 154.944 43.699375 
C 154.944 44.308016 155.20004 44.891811 155.655731 45.322185 
C 156.111421 45.752559 156.729556 45.994375 157.374 45.994375 
z
" style="fill:#ff0000;stroke:#ff0000;stroke-linejoin:miter;stroke-width:2;"/>
   </g>
   <g id="text_9">
    <!-- 1 -->
    <g style="fill:#ff0000;" transform="translate(43.1125 290.075812)scale(0.14 -0.14)">
     <use xlink:href="#DejaVuSans-49"/>
    </g>
   </g>
   <g id="text_10">
    <!-- 2 -->
    <g style="fill:#ff0000;" transform="translate(164.6665 245.807813)scale(0.14 -0.14)">
     <defs>
      <path d="M 19.1875 8.296875 
L 53.609375 8.296875 
L 53.609375 0 
L 7.328125 0 
L 7.328125 8.296875 
Q 12.9375 14.109375 22.625 23.890625 
Q 32.328125 33.6875 34.8125 36.53125 
Q 39.546875 41.84375 41.421875 45.53125 
Q 43.3125 49.21875 43.3125 52.78125 
Q 43.3125 58.59375 39.234375 62.25 
Q 35.15625 65.921875 28.609375 65.921875 
Q 23.96875 65.921875 18.8125 64.3125 
Q 13.671875 62.703125 7.8125 59.421875 
L 7.8125 69.390625 
Q 13.765625 71.78125 18.9375 73 
Q 24.125 74.21875 28.421875 74.21875 
Q 39.75 74.21875 46.484375 68.546875 
Q 53.21875 62.890625 53.21875 53.421875 
Q 53.21875 48.921875 51.53125 44.890625 
Q 49.859375 40.875 45.40625 35.40625 
Q 44.1875 33.984375 37.640625 27.21875 
Q 31.109375 20.453125 19.1875 8.296875 
z
" id="DejaVuSans-50"/>
     </defs>
     <use xlink:href="#DejaVuSans-50"/>
    </g>
   </g>
   <g id="text_11">
    <!-- 5 -->
    <g style="fill:#ff0000;" transform="translate(124.1665 154.007812)scale(0.14 -0.14)">
     <defs>
      <path d="M 10.796875 72.90625 
L 49.515625 72.90625 
L 49.515625 64.59375 
L 19.828125 64.59375 
L 19.828125 46.734375 
Q 21.96875 47.46875 24.109375 47.828125 
Q 26.265625 48.1875 28.421875 48.1875 
Q 40.625 48.1875 47.75 41.5 
Q 54.890625 34.8125 54.890625 23.390625 
Q 54.890625 11.625 47.5625 5.09375 
Q 40.234375 -1.421875 26.90625 -1.421875 
Q 22.3125 -1.421875 17.546875 -0.640625 
Q 12.796875 0.140625 7.71875 1.703125 
L 7.71875 11.625 
Q 12.109375 9.234375 16.796875 8.0625 
Q 21.484375 6.890625 26.703125 6.890625 
Q 35.15625 6.890625 40.078125 11.328125 
Q 45.015625 15.765625 45.015625 23.390625 
Q 45.015625 31 40.078125 35.4375 
Q 35.15625 39.890625 26.703125 39.890625 
Q 22.75 39.890625 18.8125 39.015625 
Q 14.890625 38.140625 10.796875 36.28125 
z
" id="DejaVuSans-53"/>
     </defs>
     <use xlink:href="#DejaVuSans-53"/>
    </g>
   </g>
   <g id="text_12">
    <!-- $v_{out}$ -->
    <g transform="translate(219.744 139.3625)scale(0.14 -0.14)">
     <defs>
      <path d="M 7.171875 54.6875 
L 16.703125 54.6875 
L 24.703125 8.203125 
L 50.875 54.6875 
L 60.40625 54.6875 
L 29.296875 0 
L 17.1875 0 
z
" id="DejaVuSans-Oblique-118"/>
      <path d="M 25.390625 -1.421875 
Q 15.765625 -1.421875 10.171875 4.515625 
Q 4.59375 10.453125 4.59375 20.703125 
Q 4.59375 26.65625 6.515625 32.828125 
Q 8.453125 39.015625 11.53125 43.21875 
Q 16.359375 49.75 22.3125 52.875 
Q 28.265625 56 35.796875 56 
Q 45.125 56 50.859375 50.1875 
Q 56.59375 44.390625 56.59375 35.015625 
Q 56.59375 28.515625 54.6875 22.0625 
Q 52.78125 15.625 49.703125 11.375 
Q 44.921875 4.828125 38.96875 1.703125 
Q 33.015625 -1.421875 25.390625 -1.421875 
z
M 13.921875 21 
Q 13.921875 13.578125 17.015625 9.890625 
Q 20.125 6.203125 26.421875 6.203125 
Q 35.453125 6.203125 41.375 14.078125 
Q 47.3125 21.96875 47.3125 34.078125 
Q 47.3125 41.15625 44.140625 44.765625 
Q 40.96875 48.390625 34.8125 48.390625 
Q 29.734375 48.390625 25.78125 46.015625 
Q 21.828125 43.65625 18.703125 38.8125 
Q 16.40625 35.203125 15.15625 30.5625 
Q 13.921875 25.921875 13.921875 21 
z
" id="DejaVuSans-Oblique-111"/>
      <path d="M 6.6875 21.6875 
L 13.09375 54.6875 
L 22.125 54.6875 
L 15.71875 22.015625 
Q 15.234375 19.625 15.015625 17.921875 
Q 14.796875 16.21875 14.796875 15.09375 
Q 14.796875 10.9375 17.328125 8.65625 
Q 19.875 6.390625 24.515625 6.390625 
Q 31.734375 6.390625 37 11.265625 
Q 42.28125 16.15625 43.890625 24.421875 
L 49.90625 54.6875 
L 58.890625 54.6875 
L 48.296875 0 
L 39.3125 0 
L 41.109375 8.59375 
Q 37.3125 3.8125 32.0625 1.1875 
Q 26.8125 -1.421875 20.90625 -1.421875 
Q 13.71875 -1.421875 9.71875 2.515625 
Q 5.71875 6.453125 5.71875 13.484375 
Q 5.71875 14.9375 5.953125 17.140625 
Q 6.203125 19.34375 6.6875 21.6875 
z
" id="DejaVuSans-Oblique-117"/>
      <path d="M 42.28125 54.6875 
L 40.921875 47.703125 
L 23 47.703125 
L 17.1875 18.015625 
Q 16.890625 16.359375 16.75 15.234375 
Q 16.609375 14.109375 16.609375 13.484375 
Q 16.609375 10.359375 18.484375 8.9375 
Q 20.359375 7.515625 24.515625 7.515625 
L 33.59375 7.515625 
L 32.078125 0 
L 23.484375 0 
Q 15.484375 0 11.546875 3.125 
Q 7.625 6.25 7.625 12.59375 
Q 7.625 13.71875 7.765625 15.0625 
Q 7.90625 16.40625 8.203125 18.015625 
L 14.015625 47.703125 
L 6.390625 47.703125 
L 7.8125 54.6875 
L 15.28125 54.6875 
L 18.3125 70.21875 
L 27.296875 70.21875 
L 24.3125 54.6875 
z
" id="DejaVuSans-Oblique-116"/>
     </defs>
     <use transform="translate(0 0.3125)" xlink:href="#DejaVuSans-Oblique-118"/>
     <use transform="translate(59.179688 -16.09375)scale(0.7)" xlink:href="#DejaVuSans-Oblique-111"/>
     <use transform="translate(102.006836 -16.09375)scale(0.7)" xlink:href="#DejaVuSans-Oblique-117"/>
     <use transform="translate(146.37207 -16.09375)scale(0.7)" xlink:href="#DejaVuSans-Oblique-116"/>
    </g>
   </g>
   <g id="text_13">
    <!-- 3 -->
    <g style="fill:#ff0000;" transform="translate(164.6665 62.207812)scale(0.14 -0.14)">
     <use xlink:href="#DejaVuSans-51"/>
    </g>
   </g>
  </g>
 </g>
 <defs>
  <clipPath id="p19787ca2a0">
   <rect height="319.362" width="203.364" x="16.38" y="20.749375"/>
  </clipPath>
 </defs>
</svg>
