<?xml version="1.0" encoding="utf-8" standalone="no"?>
<!DOCTYPE svg PUBLIC "-//W3C//DTD SVG 1.1//EN"
  "http://www.w3.org/Graphics/SVG/1.1/DTD/svg11.dtd">
<!-- Created with matplotlib (https://matplotlib.org/) -->
<svg height="230.929375pt" version="1.1" viewBox="0 0 186.360996 230.929375" width="186.360996pt" xmlns="http://www.w3.org/2000/svg" xmlns:xlink="http://www.w3.org/1999/xlink">
 <metadata>
  <rdf:RDF xmlns:cc="http://creativecommons.org/ns#" xmlns:dc="http://purl.org/dc/elements/1.1/" xmlns:rdf="http://www.w3.org/1999/02/22-rdf-syntax-ns#">
   <cc:Work>
    <dc:type rdf:resource="http://purl.org/dc/dcmitype/StillImage"/>
    <dc:date>2020-10-16T23:48:34.929142</dc:date>
    <dc:format>image/svg+xml</dc:format>
    <dc:creator>
     <cc:Agent>
      <dc:title>Matplotlib v3.3.2, https://matplotlib.org/</dc:title>
     </cc:Agent>
    </dc:creator>
   </cc:Work>
  </rdf:RDF>
 </metadata>
 <defs>
  <style type="text/css">*{stroke-linecap:butt;stroke-linejoin:round;}</style>
 </defs>
 <g id="figure_1">
  <g id="patch_1">
   <path d="M 0 230.929375 
L 186.360996 230.929375 
L 186.360996 0 
L 0 0 
z
" style="fill:none;"/>
  </g>
  <g id="axes_1">
   <g id="line2d_1">
    <path clip-path="url(#p77b6b15eed)" d="M 134.370996 135.499375 
L 134.370996 104.899375 
M 134.370996 74.299375 
L 134.370996 43.699375 
" style="fill:none;stroke:#ffffff;stroke-linecap:round;stroke-width:2;"/>
   </g>
   <g id="text_1">
    <!-- - -->
    <g transform="translate(164.245527 116.4125)scale(0.14 -0.14)">
     <defs>
      <path d="M 4.890625 31.390625 
L 31.203125 31.390625 
L 31.203125 23.390625 
L 4.890625 23.390625 
z
" id="DejaVuSans-45"/>
     </defs>
     <use xlink:href="#DejaVuSans-45"/>
    </g>
   </g>
   <g id="text_2">
    <!-- $v_{out}$ -->
    <g transform="translate(154.380996 93.4625)scale(0.14 -0.14)">
     <defs>
      <path d="M 7.171875 54.6875 
L 16.703125 54.6875 
L 24.703125 8.203125 
L 50.875 54.6875 
L 60.40625 54.6875 
L 29.296875 0 
L 17.1875 0 
z
" id="DejaVuSans-Oblique-118"/>
      <path d="M 25.390625 -1.421875 
Q 15.765625 -1.421875 10.171875 4.515625 
Q 4.59375 10.453125 4.59375 20.703125 
Q 4.59375 26.65625 6.515625 32.828125 
Q 8.453125 39.015625 11.53125 43.21875 
Q 16.359375 49.75 22.3125 52.875 
Q 28.265625 56 35.796875 56 
Q 45.125 56 50.859375 50.1875 
Q 56.59375 44.390625 56.59375 35.015625 
Q 56.59375 28.515625 54.6875 22.0625 
Q 52.78125 15.625 49.703125 11.375 
Q 44.921875 4.828125 38.96875 1.703125 
Q 33.015625 -1.421875 25.390625 -1.421875 
z
M 13.921875 21 
Q 13.921875 13.578125 17.015625 9.890625 
Q 20.125 6.203125 26.421875 6.203125 
Q 35.453125 6.203125 41.375 14.078125 
Q 47.3125 21.96875 47.3125 34.078125 
Q 47.3125 41.15625 44.140625 44.765625 
Q 40.96875 48.390625 34.8125 48.390625 
Q 29.734375 48.390625 25.78125 46.015625 
Q 21.828125 43.65625 18.703125 38.8125 
Q 16.40625 35.203125 15.15625 30.5625 
Q 13.921875 25.921875 13.921875 21 
z
" id="DejaVuSans-Oblique-111"/>
      <path d="M 6.6875 21.6875 
L 13.09375 54.6875 
L 22.125 54.6875 
L 15.71875 22.015625 
Q 15.234375 19.625 15.015625 17.921875 
Q 14.796875 16.21875 14.796875 15.09375 
Q 14.796875 10.9375 17.328125 8.65625 
Q 19.875 6.390625 24.515625 6.390625 
Q 31.734375 6.390625 37 11.265625 
Q 42.28125 16.15625 43.890625 24.421875 
L 49.90625 54.6875 
L 58.890625 54.6875 
L 48.296875 0 
L 39.3125 0 
L 41.109375 8.59375 
Q 37.3125 3.8125 32.0625 1.1875 
Q 26.8125 -1.421875 20.90625 -1.421875 
Q 13.71875 -1.421875 9.71875 2.515625 
Q 5.71875 6.453125 5.71875 13.484375 
Q 5.71875 14.9375 5.953125 17.140625 
Q 6.203125 19.34375 6.6875 21.6875 
z
" id="DejaVuSans-Oblique-117"/>
      <path d="M 42.28125 54.6875 
L 40.921875 47.703125 
L 23 47.703125 
L 17.1875 18.015625 
Q 16.890625 16.359375 16.75 15.234375 
Q 16.609375 14.109375 16.609375 13.484375 
Q 16.609375 10.359375 18.484375 8.9375 
Q 20.359375 7.515625 24.515625 7.515625 
L 33.59375 7.515625 
L 32.078125 0 
L 23.484375 0 
Q 15.484375 0 11.546875 3.125 
Q 7.625 6.25 7.625 12.59375 
Q 7.625 13.71875 7.765625 15.0625 
Q 7.90625 16.40625 8.203125 18.015625 
L 14.015625 47.703125 
L 6.390625 47.703125 
L 7.8125 54.6875 
L 15.28125 54.6875 
L 18.3125 70.21875 
L 27.296875 70.21875 
L 24.3125 54.6875 
z
" id="DejaVuSans-Oblique-116"/>
     </defs>
     <use transform="translate(0 0.3125)" xlink:href="#DejaVuSans-Oblique-118"/>
     <use transform="translate(59.179688 -16.09375)scale(0.7)" xlink:href="#DejaVuSans-Oblique-111"/>
     <use transform="translate(102.006836 -16.09375)scale(0.7)" xlink:href="#DejaVuSans-Oblique-117"/>
     <use transform="translate(146.37207 -16.09375)scale(0.7)" xlink:href="#DejaVuSans-Oblique-116"/>
    </g>
   </g>
   <g id="text_3">
    <!-- $+$ -->
    <g transform="translate(160.890996 70.5125)scale(0.14 -0.14)">
     <defs>
      <path d="M 46 62.703125 
L 46 35.5 
L 73.1875 35.5 
L 73.1875 27.203125 
L 46 27.203125 
L 46 0 
L 37.796875 0 
L 37.796875 27.203125 
L 10.59375 27.203125 
L 10.59375 35.5 
L 37.796875 35.5 
L 37.796875 62.703125 
z
" id="DejaVuSans-43"/>
     </defs>
     <use transform="translate(0 0.296875)" xlink:href="#DejaVuSans-43"/>
    </g>
   </g>
   <g id="patch_2">
    <path clip-path="url(#p77b6b15eed)" d="M 77.670996 195.475375 
L 70.642449 193.815857 
L 72.74047 191.504148 
L 65.186453 185.388992 
L 65.207539 185.365758 
L 72.761556 191.480915 
L 74.859577 189.169207 
z
" style="stroke:#000000;stroke-linejoin:miter;stroke-width:2;"/>
   </g>
   <g id="line2d_2">
    <path clip-path="url(#p77b6b15eed)" d="M 53.316996 179.767375 
L 65.196996 179.767375 
" style="fill:none;stroke:#000000;stroke-linecap:round;stroke-width:2;"/>
   </g>
   <g id="line2d_3">
    <path clip-path="url(#p77b6b15eed)" d="M 65.196996 168.547375 
L 65.196996 190.987375 
" style="fill:none;stroke:#000000;stroke-linecap:round;stroke-width:2;"/>
   </g>
   <g id="line2d_4">
    <path clip-path="url(#p77b6b15eed)" d="M 65.196996 174.157375 
L 77.670996 164.059375 
L 77.670996 158.449375 
" style="fill:none;stroke:#000000;stroke-linecap:round;stroke-width:2;"/>
   </g>
   <g id="line2d_5">
    <path clip-path="url(#p77b6b15eed)" d="M 65.196996 185.377375 
L 77.670996 195.475375 
L 77.670996 201.085375 
" style="fill:none;stroke:#000000;stroke-linecap:round;stroke-width:2;"/>
   </g>
   <g id="line2d_6">
    <path clip-path="url(#p77b6b15eed)" d="M 77.670996 201.085375 
L 77.670996 213.325375 
L 69.570996 213.325375 
L 85.770996 213.325375 
M 72.000996 216.997375 
L 83.340996 216.997375 
M 76.050996 220.669375 
L 79.290996 220.669375 
" style="fill:none;stroke:#000000;stroke-linecap:round;stroke-width:2;"/>
   </g>
   <g id="line2d_7">
    <path clip-path="url(#p77b6b15eed)" d="M 77.670996 158.449375 
L 77.670996 146.974375 
L 77.670996 135.499375 
" style="fill:none;stroke:#000000;stroke-linecap:round;stroke-width:2;"/>
   </g>
   <g id="line2d_8">
    <path clip-path="url(#p77b6b15eed)" d="M 77.670996 135.499375 
L 77.670996 92.353375 
M 69.570996 92.353375 
L 85.770996 92.353375 
M 69.570996 86.845375 
L 85.770996 86.845375 
M 77.670996 86.845375 
L 77.670996 43.699375 
" style="fill:none;stroke:#000000;stroke-linecap:round;stroke-width:2;"/>
   </g>
   <g id="line2d_9">
    <path clip-path="url(#p77b6b15eed)" d="M 77.670996 135.499375 
L 57.420996 135.499375 
L 37.170996 135.499375 
" style="fill:none;stroke:#000000;stroke-linecap:round;stroke-width:2;"/>
   </g>
   <g id="line2d_10">
    <path clip-path="url(#p77b6b15eed)" d="M 37.170996 135.499375 
L 37.170996 104.899375 
L 34.503228 104.785416 
L 31.8114 104.438879 
L 29.321271 103.867474 
L 27.241684 103.097768 
L 25.747052 102.17296 
L 25.260503 101.669573 
L 24.962727 101.149258 
L 24.86 100.620299 
L 24.954488 100.091163 
L 25.2442 99.570318 
L 25.723028 99.066061 
L 26.380879 98.586335 
L 28.174708 97.72952 
L 30.475239 97.050378 
L 33.089532 96.584513 
L 35.798328 96.349641 
L 38.374447 96.344105 
L 40.601831 96.547015 
L 42.293675 96.919999 
L 43.308086 97.410419 
L 43.532217 97.680386 
L 43.559986 97.95579 
L 43.390809 98.228142 
L 43.02825 98.489018 
L 41.757473 98.944027 
L 39.854233 99.2613 
L 37.478152 99.392874 
L 34.828508 99.306359 
L 32.127524 98.987656 
L 29.601726 98.442139 
L 27.462949 97.694205 
L 25.890569 96.785227 
L 25.360178 96.287088 
L 25.016459 95.770084 
L 24.866657 95.242429 
L 24.91393 94.712561 
L 25.157281 94.188965 
L 25.59158 93.679994 
L 26.207674 93.193694 
L 27.929743 92.318733 
L 30.17906 91.616108 
L 32.766977 91.123393 
L 35.476451 90.860556 
L 38.080242 90.828285 
L 40.359974 91.007933 
L 42.124449 91.363078 
L 43.225684 91.842579 
L 43.496304 92.109993 
L 43.571319 92.384866 
L 43.449149 92.658722 
L 43.132368 92.923104 
L 41.945643 93.390796 
L 40.110674 93.727363 
L 37.781356 93.883223 
L 35.153047 93.823949 
L 32.446178 93.533157 
L 29.887771 93.013881 
L 27.692394 92.288316 
L 26.044172 91.39596 
L 25.470582 90.903519 
L 25.081337 90.390298 
L 24.884641 89.864431 
L 24.884641 89.334319 
L 25.081337 88.808452 
L 25.470582 88.295231 
L 26.044172 87.80279 
L 26.790016 87.338826 
L 28.732285 86.523961 
L 31.134495 85.897623 
L 33.795174 85.490987 
L 36.491176 85.316801 
L 38.996392 85.368321 
L 41.100713 85.619869 
L 42.627653 86.028994 
L 43.449149 86.540028 
L 43.571319 86.813884 
L 43.496304 87.088757 
L 43.225684 87.356171 
L 42.124449 87.835672 
L 40.359974 88.190817 
L 38.080242 88.370465 
L 35.476451 88.338194 
L 32.766977 88.075357 
L 30.17906 87.582642 
L 27.929743 86.880017 
L 26.207674 86.005056 
L 25.59158 85.518756 
L 25.157281 85.009785 
L 24.91393 84.486189 
L 24.866657 83.956321 
L 25.016459 83.428666 
L 25.360178 82.911662 
L 25.890569 82.413523 
L 26.596452 81.942066 
L 28.471795 81.107498 
L 30.828924 80.456596 
L 33.470152 80.022595 
L 36.173962 79.820541 
L 38.713589 79.846022 
L 40.87604 80.075549 
L 42.479952 80.468515 
L 43.390809 80.970608 
L 43.559986 81.24296 
L 43.532217 81.518364 
L 43.308086 81.788331 
L 42.892318 82.044488 
L 41.524778 82.4835 
L 39.544291 82.777226 
L 37.116957 82.879677 
L 34.446354 82.760904 
L 31.756461 82.409516 
L 29.272874 81.833626 
L 27.203889 81.06018 
L 25.723028 80.132689 
L 25.2442 79.628432 
L 24.954488 79.107587 
L 24.86 78.578451 
L 24.962727 78.049492 
L 25.260503 77.529177 
L 25.747052 77.02579 
L 26.412119 76.547257 
L 28.218263 75.693688 
L 30.527458 75.018702 
L 33.146034 74.557554 
L 35.854375 74.327566 
L 37.170996 74.299375 
L 37.170996 43.699375 
L 37.170996 43.699375 
" style="fill:none;stroke:#000000;stroke-linecap:round;stroke-width:2;"/>
   </g>
   <g id="line2d_11">
    <path clip-path="url(#p77b6b15eed)" d="M 77.670996 135.499375 
L 97.920996 135.499375 
L 118.170996 135.499375 
" style="fill:none;stroke:#000000;stroke-linecap:round;stroke-width:2;"/>
   </g>
   <g id="line2d_12">
    <path clip-path="url(#p77b6b15eed)" d="M 118.170996 135.499375 
L 118.170996 104.899375 
L 110.070996 102.349375 
L 126.270996 97.249375 
L 110.070996 92.149375 
L 126.270996 87.049375 
L 110.070996 81.949375 
L 126.270996 76.849375 
L 118.170996 74.299375 
L 118.170996 43.699375 
" style="fill:none;stroke:#000000;stroke-linecap:round;stroke-width:2;"/>
   </g>
   <g id="line2d_13">
    <path clip-path="url(#p77b6b15eed)" d="M 118.170996 135.499375 
L 126.270996 135.499375 
L 134.370996 135.499375 
" style="fill:none;stroke:#000000;stroke-linecap:round;stroke-width:2;"/>
   </g>
   <g id="line2d_14">
    <path clip-path="url(#p77b6b15eed)" d="M 118.170996 43.699375 
L 126.270996 43.699375 
L 134.370996 43.699375 
" style="fill:none;stroke:#000000;stroke-linecap:round;stroke-width:2;"/>
   </g>
   <g id="line2d_15">
    <path clip-path="url(#p77b6b15eed)" d="M 118.170996 43.699375 
L 97.920996 43.699375 
L 77.670996 43.699375 
" style="fill:none;stroke:#000000;stroke-linecap:round;stroke-width:2;"/>
   </g>
   <g id="line2d_16">
    <path clip-path="url(#p77b6b15eed)" d="M 37.170996 43.699375 
L 57.420996 43.699375 
L 77.670996 43.699375 
" style="fill:none;stroke:#000000;stroke-linecap:round;stroke-width:2;"/>
   </g>
   <g id="line2d_17">
    <path clip-path="url(#p77b6b15eed)" d="M 77.670996 43.699375 
L 77.670996 39.874375 
L 77.670996 36.049375 
" style="fill:none;stroke:#000000;stroke-linecap:round;stroke-width:2;"/>
   </g>
   <g id="line2d_18">
    <path clip-path="url(#p77b6b15eed)" d="M 77.670996 36.049375 
L 77.670996 23.809375 
" style="fill:none;stroke:#000000;stroke-linecap:round;stroke-width:2;"/>
   </g>
   <g id="line2d_19">
    <path clip-path="url(#p77b6b15eed)" d="M 77.670996 23.809375 
L 71.595996 23.809375 
" style="fill:none;stroke:#000000;stroke-linecap:round;stroke-width:2;"/>
   </g>
   <g id="line2d_20">
    <path clip-path="url(#p77b6b15eed)" d="M 77.670996 23.809375 
L 83.745996 23.809375 
" style="fill:none;stroke:#000000;stroke-linecap:round;stroke-width:2;"/>
   </g>
   <g id="text_4">
    <!-- $I_{in}$ -->
    <g transform="translate(36.496996 183.6305)scale(0.14 -0.14)">
     <defs>
      <path d="M 16.890625 72.90625 
L 26.8125 72.90625 
L 12.59375 0 
L 2.6875 0 
z
" id="DejaVuSans-Oblique-73"/>
      <path d="M 18.3125 75.984375 
L 27.296875 75.984375 
L 25.09375 64.59375 
L 16.109375 64.59375 
z
M 14.203125 54.6875 
L 23.1875 54.6875 
L 12.5 0 
L 3.515625 0 
z
" id="DejaVuSans-Oblique-105"/>
      <path d="M 55.71875 33.015625 
L 49.3125 0 
L 40.28125 0 
L 46.6875 32.671875 
Q 47.125 34.96875 47.359375 36.71875 
Q 47.609375 38.484375 47.609375 39.5 
Q 47.609375 43.609375 45.015625 45.890625 
Q 42.4375 48.1875 37.796875 48.1875 
Q 30.5625 48.1875 25.34375 43.375 
Q 20.125 38.578125 18.5 30.328125 
L 12.5 0 
L 3.515625 0 
L 14.109375 54.6875 
L 23.09375 54.6875 
L 21.296875 46.09375 
Q 25.046875 50.828125 30.3125 53.40625 
Q 35.59375 56 41.40625 56 
Q 48.640625 56 52.609375 52.09375 
Q 56.59375 48.1875 56.59375 41.109375 
Q 56.59375 39.359375 56.375 37.359375 
Q 56.15625 35.359375 55.71875 33.015625 
z
" id="DejaVuSans-Oblique-110"/>
     </defs>
     <use transform="translate(0 0.09375)" xlink:href="#DejaVuSans-Oblique-73"/>
     <use transform="translate(29.492188 -16.3125)scale(0.7)" xlink:href="#DejaVuSans-Oblique-105"/>
     <use transform="translate(48.94043 -16.3125)scale(0.7)" xlink:href="#DejaVuSans-Oblique-110"/>
    </g>
   </g>
   <g id="text_5">
    <!-- $C_1$ -->
    <g transform="translate(49.810996 93.4625)scale(0.14 -0.14)">
     <defs>
      <path d="M 69.484375 67.28125 
L 67.484375 56.890625 
Q 62.796875 61.625 57.546875 63.921875 
Q 52.296875 66.21875 46.1875 66.21875 
Q 37.84375 66.21875 31.515625 62.203125 
Q 25.203125 58.203125 20.609375 50 
Q 17.671875 44.734375 16.125 38.84375 
Q 14.59375 32.953125 14.59375 27 
Q 14.59375 17.046875 19.75 11.8125 
Q 24.90625 6.59375 34.71875 6.59375 
Q 41.5 6.59375 47.75 8.765625 
Q 54 10.9375 59.90625 15.28125 
L 57.625 3.609375 
Q 51.8125 1.125 45.875 -0.140625 
Q 39.9375 -1.421875 33.984375 -1.421875 
Q 19.96875 -1.421875 12.078125 6.1875 
Q 4.203125 13.8125 4.203125 27.390625 
Q 4.203125 36.078125 7.203125 44.46875 
Q 10.203125 52.875 15.828125 59.8125 
Q 21.78125 67.1875 29.421875 70.703125 
Q 37.0625 74.21875 47.21875 74.21875 
Q 53.46875 74.21875 59.0625 72.484375 
Q 64.65625 70.75 69.484375 67.28125 
z
" id="DejaVuSans-Oblique-67"/>
      <path d="M 12.40625 8.296875 
L 28.515625 8.296875 
L 28.515625 63.921875 
L 10.984375 60.40625 
L 10.984375 69.390625 
L 28.421875 72.90625 
L 38.28125 72.90625 
L 38.28125 8.296875 
L 54.390625 8.296875 
L 54.390625 0 
L 12.40625 0 
z
" id="DejaVuSans-49"/>
     </defs>
     <use transform="translate(0 0.78125)" xlink:href="#DejaVuSans-Oblique-67"/>
     <use transform="translate(69.824219 -15.625)scale(0.7)" xlink:href="#DejaVuSans-49"/>
    </g>
   </g>
   <g id="text_6">
    <!-- $L_1$ -->
    <g transform="translate(7.2 93.4625)scale(0.14 -0.14)">
     <defs>
      <path d="M 16.796875 72.90625 
L 26.703125 72.90625 
L 14.203125 8.203125 
L 49.703125 8.203125 
L 48.09375 0 
L 2.6875 0 
z
" id="DejaVuSans-Oblique-76"/>
     </defs>
     <use transform="translate(0 0.09375)" xlink:href="#DejaVuSans-Oblique-76"/>
     <use transform="translate(55.712891 -16.3125)scale(0.7)" xlink:href="#DejaVuSans-49"/>
    </g>
   </g>
   <g id="text_7">
    <!-- $R_L$ -->
    <g transform="translate(91.150996 93.4625)scale(0.14 -0.14)">
     <defs>
      <path d="M 25.203125 64.796875 
L 20.21875 38.921875 
L 32.90625 38.921875 
Q 40.375 38.921875 44.984375 43.046875 
Q 49.609375 47.171875 49.609375 53.8125 
Q 49.609375 59.125 46.5 61.953125 
Q 43.40625 64.796875 37.59375 64.796875 
z
M 43.3125 35.015625 
Q 46.4375 34.28125 48.515625 31.390625 
Q 50.59375 28.515625 53.328125 19.921875 
L 59.515625 0 
L 49.125 0 
L 43.40625 18.703125 
Q 41.21875 25.921875 38.328125 28.359375 
Q 35.453125 30.8125 29.5 30.8125 
L 18.609375 30.8125 
L 12.59375 0 
L 2.6875 0 
L 16.890625 72.90625 
L 39.109375 72.90625 
Q 49.21875 72.90625 54.609375 68.328125 
Q 60.015625 63.765625 60.015625 55.171875 
Q 60.015625 47.5625 55.421875 41.984375 
Q 50.828125 36.421875 43.3125 35.015625 
z
" id="DejaVuSans-Oblique-82"/>
     </defs>
     <use transform="translate(0 0.09375)" xlink:href="#DejaVuSans-Oblique-82"/>
     <use transform="translate(69.482422 -16.3125)scale(0.7)" xlink:href="#DejaVuSans-Oblique-76"/>
    </g>
   </g>
   <g id="text_8">
    <!-- $V_{dd}$ -->
    <g transform="translate(66.400996 17.837812)scale(0.14 -0.14)">
     <defs>
      <path d="M 20.609375 0 
L 7.8125 72.90625 
L 17.484375 72.90625 
L 28.078125 10.203125 
L 63.484375 72.90625 
L 74.21875 72.90625 
L 32.078125 0 
z
" id="DejaVuSans-Oblique-86"/>
      <path d="M 41.796875 8.203125 
Q 38.1875 3.46875 33.25 1.015625 
Q 28.328125 -1.421875 22.3125 -1.421875 
Q 14.109375 -1.421875 9.34375 4.171875 
Q 4.59375 9.765625 4.59375 19.484375 
Q 4.59375 27.59375 7.46875 34.9375 
Q 10.359375 42.28125 15.828125 48.09375 
Q 19.4375 51.953125 23.96875 53.96875 
Q 28.515625 56 33.5 56 
Q 38.765625 56 42.796875 53.453125 
Q 46.828125 50.921875 49.03125 46.1875 
L 54.890625 75.984375 
L 63.921875 75.984375 
L 49.125 0 
L 40.09375 0 
z
M 13.921875 21.09375 
Q 13.921875 14.015625 17.109375 10.0625 
Q 20.3125 6.109375 25.984375 6.109375 
Q 30.171875 6.109375 33.765625 8.125 
Q 37.359375 10.15625 40.09375 14.109375 
Q 42.96875 18.21875 44.625 23.578125 
Q 46.296875 28.953125 46.296875 34.1875 
Q 46.296875 40.96875 43.09375 44.765625 
Q 39.890625 48.578125 34.28125 48.578125 
Q 30.03125 48.578125 26.359375 46.578125 
Q 22.703125 44.578125 20.125 40.828125 
Q 17.28125 36.765625 15.59375 31.390625 
Q 13.921875 26.03125 13.921875 21.09375 
z
" id="DejaVuSans-Oblique-100"/>
     </defs>
     <use transform="translate(0 0.09375)" xlink:href="#DejaVuSans-Oblique-86"/>
     <use transform="translate(68.408203 -16.3125)scale(0.7)" xlink:href="#DejaVuSans-Oblique-100"/>
     <use transform="translate(112.841797 -16.3125)scale(0.7)" xlink:href="#DejaVuSans-Oblique-100"/>
    </g>
   </g>
   <g id="patch_3">
    <path clip-path="url(#p77b6b15eed)" d="M 53.316996 182.062375 
C 53.96144 182.062375 54.579575 181.820559 55.035266 181.390185 
C 55.490956 180.959811 55.746996 180.376016 55.746996 179.767375 
C 55.746996 179.158734 55.490956 178.574939 55.035266 178.144565 
C 54.579575 177.714191 53.96144 177.472375 53.316996 177.472375 
C 52.672552 177.472375 52.054417 177.714191 51.598727 178.144565 
C 51.143036 178.574939 50.886996 179.158734 50.886996 179.767375 
C 50.886996 180.376016 51.143036 180.959811 51.598727 181.390185 
C 52.054417 181.820559 52.672552 182.062375 53.316996 182.062375 
z
" style="fill:#ffffff;stroke:#000000;stroke-linejoin:miter;stroke-width:2;"/>
   </g>
   <g id="patch_4">
    <path clip-path="url(#p77b6b15eed)" d="M 77.670996 137.794375 
C 78.31544 137.794375 78.933575 137.552559 79.389266 137.122185 
C 79.844956 136.691811 80.100996 136.108016 80.100996 135.499375 
C 80.100996 134.890734 79.844956 134.306939 79.389266 133.876565 
C 78.933575 133.446191 78.31544 133.204375 77.670996 133.204375 
C 77.026552 133.204375 76.408417 133.446191 75.952727 133.876565 
C 75.497036 134.306939 75.240996 134.890734 75.240996 135.499375 
C 75.240996 136.108016 75.497036 136.691811 75.952727 137.122185 
C 76.408417 137.552559 77.026552 137.794375 77.670996 137.794375 
z
" style="stroke:#000000;stroke-linejoin:miter;stroke-width:2;"/>
   </g>
   <g id="patch_5">
    <path clip-path="url(#p77b6b15eed)" d="M 134.370996 137.794375 
C 135.01544 137.794375 135.633575 137.552559 136.089266 137.122185 
C 136.544956 136.691811 136.800996 136.108016 136.800996 135.499375 
C 136.800996 134.890734 136.544956 134.306939 136.089266 133.876565 
C 135.633575 133.446191 135.01544 133.204375 134.370996 133.204375 
C 133.726552 133.204375 133.108417 133.446191 132.652727 133.876565 
C 132.197036 134.306939 131.940996 134.890734 131.940996 135.499375 
C 131.940996 136.108016 132.197036 136.691811 132.652727 137.122185 
C 133.108417 137.552559 133.726552 137.794375 134.370996 137.794375 
z
" style="fill:#ffffff;stroke:#000000;stroke-linejoin:miter;stroke-width:2;"/>
   </g>
   <g id="patch_6">
    <path clip-path="url(#p77b6b15eed)" d="M 134.370996 45.994375 
C 135.01544 45.994375 135.633575 45.752559 136.089266 45.322185 
C 136.544956 44.891811 136.800996 44.308016 136.800996 43.699375 
C 136.800996 43.090734 136.544956 42.506939 136.089266 42.076565 
C 135.633575 41.646191 135.01544 41.404375 134.370996 41.404375 
C 133.726552 41.404375 133.108417 41.646191 132.652727 42.076565 
C 132.197036 42.506939 131.940996 43.090734 131.940996 43.699375 
C 131.940996 44.308016 132.197036 44.891811 132.652727 45.322185 
C 133.108417 45.752559 133.726552 45.994375 134.370996 45.994375 
z
" style="fill:#ffffff;stroke:#000000;stroke-linejoin:miter;stroke-width:2;"/>
   </g>
   <g id="patch_7">
    <path clip-path="url(#p77b6b15eed)" d="M 77.670996 45.994375 
C 78.31544 45.994375 78.933575 45.752559 79.389266 45.322185 
C 79.844956 44.891811 80.100996 44.308016 80.100996 43.699375 
C 80.100996 43.090734 79.844956 42.506939 79.389266 42.076565 
C 78.933575 41.646191 78.31544 41.404375 77.670996 41.404375 
C 77.026552 41.404375 76.408417 41.646191 75.952727 42.076565 
C 75.497036 42.506939 75.240996 43.090734 75.240996 43.699375 
C 75.240996 44.308016 75.497036 44.891811 75.952727 45.322185 
C 76.408417 45.752559 77.026552 45.994375 77.670996 45.994375 
z
" style="stroke:#000000;stroke-linejoin:miter;stroke-width:2;"/>
   </g>
  </g>
 </g>
 <defs>
  <clipPath id="p77b6b15eed">
   <rect height="202.98" width="118.420996" x="21.62" y="20.749375"/>
  </clipPath>
 </defs>
</svg>
