<?xml version="1.0" encoding="utf-8" standalone="no"?>
<!DOCTYPE svg PUBLIC "-//W3C//DTD SVG 1.1//EN"
  "http://www.w3.org/Graphics/SVG/1.1/DTD/svg11.dtd">
<!-- Created with matplotlib (https://matplotlib.org/) -->
<svg height="247.861375pt" version="1.1" viewBox="0 0 548.184 247.861375" width="548.184pt" xmlns="http://www.w3.org/2000/svg" xmlns:xlink="http://www.w3.org/1999/xlink">
 <metadata>
  <rdf:RDF xmlns:cc="http://creativecommons.org/ns#" xmlns:dc="http://purl.org/dc/elements/1.1/" xmlns:rdf="http://www.w3.org/1999/02/22-rdf-syntax-ns#">
   <cc:Work>
    <dc:type rdf:resource="http://purl.org/dc/dcmitype/StillImage"/>
    <dc:date>2020-10-17T22:08:21.340984</dc:date>
    <dc:format>image/svg+xml</dc:format>
    <dc:creator>
     <cc:Agent>
      <dc:title>Matplotlib v3.3.2, https://matplotlib.org/</dc:title>
     </cc:Agent>
    </dc:creator>
   </cc:Work>
  </rdf:RDF>
 </metadata>
 <defs>
  <style type="text/css">*{stroke-linecap:butt;stroke-linejoin:round;}</style>
 </defs>
 <g id="figure_1">
  <g id="patch_1">
   <path d="M 0 247.861375 
L 548.184 247.861375 
L 548.184 0 
L 0 0 
z
" style="fill:none;"/>
  </g>
  <g id="axes_1">
   <g id="patch_2">
    <path clip-path="url(#p31a06a49e4)" d="M 162.234 164.875375 
L 155.205453 163.215857 
L 157.303474 160.904148 
L 149.749457 154.788992 
L 149.770543 154.765758 
L 157.32456 160.880915 
L 159.422581 158.569207 
z
" style="stroke:#000000;stroke-linejoin:miter;stroke-width:2;"/>
   </g>
   <g id="patch_3">
    <path clip-path="url(#p31a06a49e4)" d="M 40.68 195.067375 
C 43.902218 195.067375 46.992895 193.858297 49.271347 191.706425 
C 51.549799 189.554554 52.83 186.635581 52.83 183.592375 
C 52.83 180.549169 51.549799 177.630196 49.271347 175.478325 
C 46.992895 173.326453 43.902218 172.117375 40.68 172.117375 
C 37.457782 172.117375 34.367105 173.326453 32.088653 175.478325 
C 29.810201 177.630196 28.53 180.549169 28.53 183.592375 
C 28.53 186.635581 29.810201 189.554554 32.088653 191.706425 
C 34.367105 193.858297 37.457782 195.067375 40.68 195.067375 
z
" style="fill:none;stroke:#000000;stroke-linejoin:miter;stroke-width:2;"/>
   </g>
   <g id="line2d_1">
    <path clip-path="url(#p31a06a49e4)" d="M 137.88 149.167375 
L 149.76 149.167375 
" style="fill:none;stroke:#000000;stroke-linecap:round;stroke-width:2;"/>
   </g>
   <g id="line2d_2">
    <path clip-path="url(#p31a06a49e4)" d="M 149.76 137.947375 
L 149.76 160.387375 
" style="fill:none;stroke:#000000;stroke-linecap:round;stroke-width:2;"/>
   </g>
   <g id="line2d_3">
    <path clip-path="url(#p31a06a49e4)" d="M 149.76 143.557375 
L 162.234 133.459375 
L 162.234 127.849375 
" style="fill:none;stroke:#000000;stroke-linecap:round;stroke-width:2;"/>
   </g>
   <g id="line2d_4">
    <path clip-path="url(#p31a06a49e4)" d="M 149.76 154.777375 
L 162.234 164.875375 
L 162.234 170.485375 
" style="fill:none;stroke:#000000;stroke-linecap:round;stroke-width:2;"/>
   </g>
   <g id="line2d_5">
    <path clip-path="url(#p31a06a49e4)" d="M 137.88 149.167375 
L 105.48 149.167375 
L 102.78 156.817375 
L 97.38 141.517375 
L 91.98 156.817375 
L 86.58 141.517375 
L 81.18 156.817375 
L 75.78 141.517375 
L 73.08 149.167375 
L 40.68 149.167375 
" style="fill:none;stroke:#000000;stroke-linecap:round;stroke-width:2;"/>
   </g>
   <g id="line2d_6">
    <path clip-path="url(#p31a06a49e4)" d="M 40.68 149.167375 
L 40.68 172.117375 
L 40.68 172.117375 
M 40.68 195.067375 
L 40.68 195.067375 
L 40.68 218.017375 
" style="fill:none;stroke:#000000;stroke-linecap:round;stroke-width:2;"/>
   </g>
   <g id="line2d_7">
    <path clip-path="url(#p31a06a49e4)" d="M 38.25 177.854875 
L 43.11 177.854875 
" style="fill:none;stroke:#000000;stroke-linecap:round;stroke-width:2;"/>
   </g>
   <g id="line2d_8">
    <path clip-path="url(#p31a06a49e4)" d="M 40.68 187.034875 
L 40.68 191.624875 
" style="fill:none;stroke:#000000;stroke-linecap:round;stroke-width:2;"/>
   </g>
   <g id="line2d_9">
    <path clip-path="url(#p31a06a49e4)" d="M 38.25 189.329875 
L 43.11 189.329875 
" style="fill:none;stroke:#000000;stroke-linecap:round;stroke-width:2;"/>
   </g>
   <g id="line2d_10">
    <path clip-path="url(#p31a06a49e4)" d="M 40.68 218.017375 
L 101.457 218.017375 
L 162.234 218.017375 
" style="fill:none;stroke:#000000;stroke-linecap:round;stroke-width:2;"/>
   </g>
   <g id="line2d_11">
    <path clip-path="url(#p31a06a49e4)" d="M 162.234 218.017375 
L 162.234 230.257375 
L 154.134 230.257375 
L 170.334 230.257375 
M 156.564 233.929375 
L 167.904 233.929375 
M 160.614 237.601375 
L 163.854 237.601375 
" style="fill:none;stroke:#000000;stroke-linecap:round;stroke-width:2;"/>
   </g>
   <g id="line2d_12">
    <path clip-path="url(#p31a06a49e4)" d="M 162.234 218.017375 
L 162.234 194.251375 
L 162.234 170.485375 
" style="fill:none;stroke:#000000;stroke-linecap:round;stroke-width:2;"/>
   </g>
   <g id="line2d_13">
    <path clip-path="url(#p31a06a49e4)" d="M 162.234 127.849375 
L 162.234 97.249375 
L 159.566232 97.135416 
L 156.874404 96.788879 
L 154.384275 96.217474 
L 152.304688 95.447768 
L 150.810056 94.52296 
L 150.323507 94.019573 
L 150.025731 93.499258 
L 149.923004 92.970299 
L 150.017492 92.441163 
L 150.307204 91.920318 
L 150.786032 91.416061 
L 151.443883 90.936335 
L 153.237712 90.07952 
L 155.538243 89.400378 
L 158.152536 88.934513 
L 160.861332 88.699641 
L 163.437451 88.694105 
L 165.664835 88.897015 
L 167.356679 89.269999 
L 168.37109 89.760419 
L 168.595221 90.030386 
L 168.62299 90.30579 
L 168.453813 90.578142 
L 168.091254 90.839018 
L 166.820477 91.294027 
L 164.917237 91.6113 
L 162.541156 91.742874 
L 159.891512 91.656359 
L 157.190528 91.337656 
L 154.66473 90.792139 
L 152.525953 90.044205 
L 150.953573 89.135227 
L 150.423182 88.637088 
L 150.079463 88.120084 
L 149.929661 87.592429 
L 149.976934 87.062561 
L 150.220285 86.538965 
L 150.654584 86.029994 
L 151.270678 85.543694 
L 152.992747 84.668733 
L 155.242064 83.966108 
L 157.829981 83.473393 
L 160.539455 83.210556 
L 163.143246 83.178285 
L 165.422978 83.357933 
L 167.187453 83.713078 
L 168.288688 84.192579 
L 168.559308 84.459993 
L 168.634323 84.734866 
L 168.512153 85.008722 
L 168.195372 85.273104 
L 167.008647 85.740796 
L 165.173678 86.077363 
L 162.84436 86.233223 
L 160.216051 86.173949 
L 157.509182 85.883157 
L 154.950775 85.363881 
L 152.755398 84.638316 
L 151.107175 83.74596 
L 150.533586 83.253519 
L 150.144341 82.740298 
L 149.947645 82.214431 
L 149.947645 81.684319 
L 150.144341 81.158452 
L 150.533586 80.645231 
L 151.107175 80.15279 
L 151.85302 79.688826 
L 153.795289 78.873961 
L 156.197498 78.247623 
L 158.858178 77.840987 
L 161.55418 77.666801 
L 164.059396 77.718321 
L 166.163717 77.969869 
L 167.690657 78.378994 
L 168.512153 78.890028 
L 168.634323 79.163884 
L 168.559308 79.438757 
L 168.288688 79.706171 
L 167.187453 80.185672 
L 165.422978 80.540817 
L 163.143246 80.720465 
L 160.539455 80.688194 
L 157.829981 80.425357 
L 155.242064 79.932642 
L 152.992747 79.230017 
L 151.270678 78.355056 
L 150.654584 77.868756 
L 150.220285 77.359785 
L 149.976934 76.836189 
L 149.929661 76.306321 
L 150.079463 75.778666 
L 150.423182 75.261662 
L 150.953573 74.763523 
L 151.659456 74.292066 
L 153.534799 73.457498 
L 155.891928 72.806596 
L 158.533156 72.372595 
L 161.236966 72.170541 
L 163.776593 72.196022 
L 165.939044 72.425549 
L 167.542956 72.818515 
L 168.453813 73.320608 
L 168.62299 73.59296 
L 168.595221 73.868364 
L 168.37109 74.138331 
L 167.955322 74.394488 
L 166.587782 74.8335 
L 164.607295 75.127226 
L 162.179961 75.229677 
L 159.509358 75.110904 
L 156.819465 74.759516 
L 154.335878 74.183626 
L 152.266893 73.41018 
L 150.786032 72.482689 
L 150.307204 71.978432 
L 150.017492 71.457587 
L 149.923004 70.928451 
L 150.025731 70.399492 
L 150.323507 69.879177 
L 150.810056 69.37579 
L 151.475123 68.897257 
L 153.281267 68.043688 
L 155.590462 67.368702 
L 158.209038 66.907554 
L 160.917379 66.677566 
L 162.234 66.649375 
L 162.234 36.049375 
L 162.234 36.049375 
" style="fill:none;stroke:#000000;stroke-linecap:round;stroke-width:2;"/>
   </g>
   <g id="line2d_14">
    <path clip-path="url(#p31a06a49e4)" d="M 162.234 36.049375 
L 162.234 23.809375 
" style="fill:none;stroke:#000000;stroke-linecap:round;stroke-width:2;"/>
   </g>
   <g id="line2d_15">
    <path clip-path="url(#p31a06a49e4)" d="M 162.234 23.809375 
L 156.159 23.809375 
" style="fill:none;stroke:#000000;stroke-linecap:round;stroke-width:2;"/>
   </g>
   <g id="line2d_16">
    <path clip-path="url(#p31a06a49e4)" d="M 162.234 23.809375 
L 168.309 23.809375 
" style="fill:none;stroke:#000000;stroke-linecap:round;stroke-width:2;"/>
   </g>
   <g id="line2d_17">
    <path clip-path="url(#p31a06a49e4)" d="M 162.234 127.849375 
L 207.918 127.849375 
M 207.918 120.199375 
L 207.918 135.499375 
M 213.75 120.199375 
L 213.75 135.499375 
M 213.75 127.849375 
L 259.434 127.849375 
" style="fill:none;stroke:#000000;stroke-linecap:round;stroke-width:2;"/>
   </g>
   <g id="line2d_18">
    <path clip-path="url(#p31a06a49e4)" d="M 259.434 127.849375 
L 305.118 127.849375 
M 305.118 120.199375 
L 305.118 135.499375 
M 310.95 120.199375 
L 310.95 135.499375 
M 310.95 127.849375 
L 356.634 127.849375 
" style="fill:none;stroke:#000000;stroke-linecap:round;stroke-width:2;"/>
   </g>
   <g id="line2d_19">
    <path clip-path="url(#p31a06a49e4)" d="M 259.434 127.849375 
L 259.434 151.564375 
L 259.434 175.279375 
" style="fill:none;stroke:#000000;stroke-linecap:round;stroke-width:2;"/>
   </g>
   <g id="line2d_20">
    <path clip-path="url(#p31a06a49e4)" d="M 259.434 175.279375 
L 291.834 175.279375 
L 291.954663 172.759816 
L 292.321584 170.217534 
L 292.926601 167.865746 
L 293.741584 165.901692 
L 294.720792 164.490095 
L 295.253791 164.030576 
L 295.804712 163.749343 
L 296.364786 163.652323 
L 296.925048 163.741562 
L 297.476531 164.015178 
L 298.01045 164.467405 
L 298.518395 165.088709 
L 299.425611 166.782881 
L 300.144702 168.955605 
L 300.637972 171.424659 
L 300.88666 173.982967 
L 300.892521 176.415967 
L 300.677675 178.519608 
L 300.282751 180.117461 
L 299.763483 181.075516 
L 299.477635 181.287195 
L 299.186031 181.313422 
L 298.897658 181.153643 
L 298.621437 180.811226 
L 298.139663 179.611048 
L 297.803727 177.813543 
L 297.664413 175.569467 
L 297.756017 173.067026 
L 298.093467 170.516096 
L 298.671073 168.13062 
L 299.463004 166.110664 
L 300.425451 164.625638 
L 300.952892 164.124713 
L 301.500308 163.80009 
L 302.059002 163.658611 
L 302.620039 163.703257 
L 303.174434 163.933088 
L 303.713344 164.34326 
L 304.228251 164.925127 
L 304.711142 165.666423 
L 305.552359 167.561775 
L 306.189054 169.870355 
L 306.590441 172.398546 
L 306.745467 174.934312 
L 306.663741 177.264983 
L 306.374728 179.195089 
L 305.925279 180.562755 
L 305.375699 181.253277 
L 305.084656 181.324125 
L 304.794692 181.208742 
L 304.514758 180.909559 
L 304.019554 179.788764 
L 303.663189 178.055737 
L 303.498161 175.855826 
L 303.560922 173.373534 
L 303.868819 170.817047 
L 304.418641 168.400773 
L 305.186886 166.327362 
L 306.131734 164.770707 
L 306.653142 164.228984 
L 307.196552 163.861363 
L 307.753352 163.675596 
L 308.314648 163.675596 
L 308.871448 163.861363 
L 309.414858 164.228984 
L 309.936266 164.770707 
L 310.427522 165.475116 
L 311.290321 167.309482 
L 311.953502 169.578235 
L 312.384058 172.091099 
L 312.56849 174.637323 
L 312.51394 177.00336 
L 312.247595 178.990775 
L 311.814404 180.432884 
L 311.273308 181.208742 
L 310.983344 181.324125 
L 310.692301 181.253277 
L 310.409157 180.997691 
L 309.90145 179.957636 
L 309.525415 178.291187 
L 309.335199 176.138107 
L 309.369368 173.678971 
L 309.647666 171.120024 
L 310.169364 168.675879 
L 310.91332 166.551525 
L 311.839749 164.925127 
L 312.354656 164.34326 
L 312.893566 163.933088 
L 313.447961 163.703257 
L 314.008998 163.658611 
L 314.567692 163.80009 
L 315.115108 164.124713 
L 315.642549 164.625638 
L 316.141739 165.292306 
L 317.025399 167.063463 
L 317.71459 169.289641 
L 318.174119 171.784133 
L 318.38806 174.337731 
L 318.361079 176.736269 
L 318.118052 178.778583 
L 317.70197 180.293389 
L 317.170342 181.153643 
L 316.881969 181.313422 
L 316.590365 181.287195 
L 316.304517 181.075516 
L 316.033292 180.682845 
L 315.568456 179.39128 
L 315.257452 177.52082 
L 315.148975 175.228339 
L 315.274734 172.706102 
L 315.646792 170.165647 
L 316.256558 167.820037 
L 317.075501 165.865996 
L 318.05755 164.467405 
L 318.591469 164.015178 
L 319.142952 163.741562 
L 319.703214 163.652323 
L 320.263288 163.749343 
L 320.814209 164.030576 
L 321.347208 164.490095 
L 321.853889 165.118213 
L 322.757669 166.824016 
L 323.47236 169.004922 
L 323.960633 171.478022 
L 324.20415 174.0359 
L 324.234 175.279375 
L 356.634 175.279375 
L 356.634 175.279375 
" style="fill:none;stroke:#000000;stroke-linecap:round;stroke-width:2;"/>
   </g>
   <g id="line2d_21">
    <path clip-path="url(#p31a06a49e4)" d="M 356.634 175.279375 
L 356.634 151.564375 
L 356.634 127.849375 
" style="fill:none;stroke:#000000;stroke-linecap:round;stroke-width:2;"/>
   </g>
   <g id="line2d_22">
    <path clip-path="url(#p31a06a49e4)" d="M 356.634 127.849375 
L 376.884 127.849375 
L 397.134 127.849375 
" style="fill:none;stroke:#000000;stroke-linecap:round;stroke-width:2;"/>
   </g>
   <g id="line2d_23">
    <path clip-path="url(#p31a06a49e4)" d="M 397.134 127.849375 
L 397.134 158.449375 
L 399.801768 158.563334 
L 402.493596 158.909871 
L 404.983725 159.481276 
L 407.063312 160.250982 
L 408.557944 161.17579 
L 409.044493 161.679177 
L 409.342269 162.199492 
L 409.444996 162.728451 
L 409.350508 163.257587 
L 409.060796 163.778432 
L 408.581968 164.282689 
L 407.924117 164.762415 
L 406.130288 165.61923 
L 403.829757 166.298372 
L 401.215464 166.764237 
L 398.506668 166.999109 
L 395.930549 167.004645 
L 393.703165 166.801735 
L 392.011321 166.428751 
L 390.99691 165.938331 
L 390.772779 165.668364 
L 390.74501 165.39296 
L 390.914187 165.120608 
L 391.276746 164.859732 
L 392.547523 164.404723 
L 394.450763 164.08745 
L 396.826844 163.955876 
L 399.476488 164.042391 
L 402.177472 164.361094 
L 404.70327 164.906611 
L 406.842047 165.654545 
L 408.414427 166.563523 
L 408.944818 167.061662 
L 409.288537 167.578666 
L 409.438339 168.106321 
L 409.391066 168.636189 
L 409.147715 169.159785 
L 408.713416 169.668756 
L 408.097322 170.155056 
L 406.375253 171.030017 
L 404.125936 171.732642 
L 401.538019 172.225357 
L 398.828545 172.488194 
L 396.224754 172.520465 
L 393.945022 172.340817 
L 392.180547 171.985672 
L 391.079312 171.506171 
L 390.808692 171.238757 
L 390.733677 170.963884 
L 390.855847 170.690028 
L 391.172628 170.425646 
L 392.359353 169.957954 
L 394.194322 169.621387 
L 396.52364 169.465527 
L 399.151949 169.524801 
L 401.858818 169.815593 
L 404.417225 170.334869 
L 406.612602 171.060434 
L 408.260825 171.95279 
L 408.834414 172.445231 
L 409.223659 172.958452 
L 409.420355 173.484319 
L 409.420355 174.014431 
L 409.223659 174.540298 
L 408.834414 175.053519 
L 408.260825 175.54596 
L 407.51498 176.009924 
L 405.572711 176.824789 
L 403.170502 177.451127 
L 400.509822 177.857763 
L 397.81382 178.031949 
L 395.308604 177.980429 
L 393.204283 177.728881 
L 391.677343 177.319756 
L 390.855847 176.808722 
L 390.733677 176.534866 
L 390.808692 176.259993 
L 391.079312 175.992579 
L 392.180547 175.513078 
L 393.945022 175.157933 
L 396.224754 174.978285 
L 398.828545 175.010556 
L 401.538019 175.273393 
L 404.125936 175.766108 
L 406.375253 176.468733 
L 408.097322 177.343694 
L 408.713416 177.829994 
L 409.147715 178.338965 
L 409.391066 178.862561 
L 409.438339 179.392429 
L 409.288537 179.920084 
L 408.944818 180.437088 
L 408.414427 180.935227 
L 407.708544 181.406684 
L 405.833201 182.241252 
L 403.476072 182.892154 
L 400.834844 183.326155 
L 398.131034 183.528209 
L 395.591407 183.502728 
L 393.428956 183.273201 
L 391.825044 182.880235 
L 390.914187 182.378142 
L 390.74501 182.10579 
L 390.772779 181.830386 
L 390.99691 181.560419 
L 391.412678 181.304262 
L 392.780218 180.86525 
L 394.760705 180.571524 
L 397.188039 180.469073 
L 399.858642 180.587846 
L 402.548535 180.939234 
L 405.032122 181.515124 
L 407.101107 182.28857 
L 408.581968 183.216061 
L 409.060796 183.720318 
L 409.350508 184.241163 
L 409.444996 184.770299 
L 409.342269 185.299258 
L 409.044493 185.819573 
L 408.557944 186.32296 
L 407.892877 186.801493 
L 406.086733 187.655062 
L 403.777538 188.330048 
L 401.158962 188.791196 
L 398.450621 189.021184 
L 397.134 189.049375 
L 397.134 219.649375 
L 397.134 219.649375 
" style="fill:none;stroke:#000000;stroke-linecap:round;stroke-width:2;"/>
   </g>
   <g id="line2d_24">
    <path clip-path="url(#p31a06a49e4)" d="M 397.134 127.849375 
L 421.434 127.849375 
L 445.734 127.849375 
" style="fill:none;stroke:#000000;stroke-linecap:round;stroke-width:2;"/>
   </g>
   <g id="line2d_25">
    <path clip-path="url(#p31a06a49e4)" d="M 445.734 127.849375 
L 445.734 170.995375 
M 453.834 170.995375 
L 437.634 170.995375 
M 453.834 176.503375 
L 437.634 176.503375 
M 445.734 176.503375 
L 445.734 219.649375 
" style="fill:none;stroke:#000000;stroke-linecap:round;stroke-width:2;"/>
   </g>
   <g id="line2d_26">
    <path clip-path="url(#p31a06a49e4)" d="M 445.734 127.849375 
L 470.034 127.849375 
L 494.334 127.849375 
" style="fill:none;stroke:#000000;stroke-linecap:round;stroke-width:2;"/>
   </g>
   <g id="line2d_27">
    <path clip-path="url(#p31a06a49e4)" d="M 494.334 127.849375 
L 494.334 158.449375 
L 502.434 160.999375 
L 486.234 166.099375 
L 502.434 171.199375 
L 486.234 176.299375 
L 502.434 181.399375 
L 486.234 186.499375 
L 494.334 189.049375 
L 494.334 219.649375 
" style="fill:none;stroke:#000000;stroke-linecap:round;stroke-width:2;"/>
   </g>
   <g id="line2d_28">
    <path clip-path="url(#p31a06a49e4)" d="M 494.334 127.849375 
L 502.434 127.849375 
L 510.534 127.849375 
" style="fill:none;stroke:#000000;stroke-linecap:round;stroke-width:2;"/>
   </g>
   <g id="line2d_29">
    <path clip-path="url(#p31a06a49e4)" d="M 494.334 219.649375 
L 470.034 219.649375 
L 445.734 219.649375 
" style="fill:none;stroke:#000000;stroke-linecap:round;stroke-width:2;"/>
   </g>
   <g id="line2d_30">
    <path clip-path="url(#p31a06a49e4)" d="M 445.734 219.649375 
L 421.434 219.649375 
L 397.134 219.649375 
" style="fill:none;stroke:#000000;stroke-linecap:round;stroke-width:2;"/>
   </g>
   <g id="line2d_31">
    <path clip-path="url(#p31a06a49e4)" d="M 397.134 219.649375 
L 279.684 219.649375 
L 162.234 219.649375 
" style="fill:none;stroke:#000000;stroke-linecap:round;stroke-width:2;"/>
   </g>
   <g id="text_1">
    <!-- $R_{in}$ -->
    <g transform="translate(79.69 135.545813)scale(0.14 -0.14)">
     <defs>
      <path d="M 25.203125 64.796875 
L 20.21875 38.921875 
L 32.90625 38.921875 
Q 40.375 38.921875 44.984375 43.046875 
Q 49.609375 47.171875 49.609375 53.8125 
Q 49.609375 59.125 46.5 61.953125 
Q 43.40625 64.796875 37.59375 64.796875 
z
M 43.3125 35.015625 
Q 46.4375 34.28125 48.515625 31.390625 
Q 50.59375 28.515625 53.328125 19.921875 
L 59.515625 0 
L 49.125 0 
L 43.40625 18.703125 
Q 41.21875 25.921875 38.328125 28.359375 
Q 35.453125 30.8125 29.5 30.8125 
L 18.609375 30.8125 
L 12.59375 0 
L 2.6875 0 
L 16.890625 72.90625 
L 39.109375 72.90625 
Q 49.21875 72.90625 54.609375 68.328125 
Q 60.015625 63.765625 60.015625 55.171875 
Q 60.015625 47.5625 55.421875 41.984375 
Q 50.828125 36.421875 43.3125 35.015625 
z
" id="DejaVuSans-Oblique-82"/>
      <path d="M 18.3125 75.984375 
L 27.296875 75.984375 
L 25.09375 64.59375 
L 16.109375 64.59375 
z
M 14.203125 54.6875 
L 23.1875 54.6875 
L 12.5 0 
L 3.515625 0 
z
" id="DejaVuSans-Oblique-105"/>
      <path d="M 55.71875 33.015625 
L 49.3125 0 
L 40.28125 0 
L 46.6875 32.671875 
Q 47.125 34.96875 47.359375 36.71875 
Q 47.609375 38.484375 47.609375 39.5 
Q 47.609375 43.609375 45.015625 45.890625 
Q 42.4375 48.1875 37.796875 48.1875 
Q 30.5625 48.1875 25.34375 43.375 
Q 20.125 38.578125 18.5 30.328125 
L 12.5 0 
L 3.515625 0 
L 14.109375 54.6875 
L 23.09375 54.6875 
L 21.296875 46.09375 
Q 25.046875 50.828125 30.3125 53.40625 
Q 35.59375 56 41.40625 56 
Q 48.640625 56 52.609375 52.09375 
Q 56.59375 48.1875 56.59375 41.109375 
Q 56.59375 39.359375 56.375 37.359375 
Q 56.15625 35.359375 55.71875 33.015625 
z
" id="DejaVuSans-Oblique-110"/>
     </defs>
     <use transform="translate(0 0.09375)" xlink:href="#DejaVuSans-Oblique-82"/>
     <use transform="translate(69.482422 -16.3125)scale(0.7)" xlink:href="#DejaVuSans-Oblique-105"/>
     <use transform="translate(88.930664 -16.3125)scale(0.7)" xlink:href="#DejaVuSans-Oblique-110"/>
    </g>
   </g>
   <g id="text_2">
    <!-- $V_{in}$ -->
    <g transform="translate(7.2 187.4555)scale(0.14 -0.14)">
     <defs>
      <path d="M 20.609375 0 
L 7.8125 72.90625 
L 17.484375 72.90625 
L 28.078125 10.203125 
L 63.484375 72.90625 
L 74.21875 72.90625 
L 32.078125 0 
z
" id="DejaVuSans-Oblique-86"/>
     </defs>
     <use transform="translate(0 0.09375)" xlink:href="#DejaVuSans-Oblique-86"/>
     <use transform="translate(68.408203 -16.3125)scale(0.7)" xlink:href="#DejaVuSans-Oblique-105"/>
     <use transform="translate(87.856445 -16.3125)scale(0.7)" xlink:href="#DejaVuSans-Oblique-110"/>
    </g>
   </g>
   <g id="text_3">
    <!-- $L_2$ -->
    <g transform="translate(132.263004 85.8125)scale(0.14 -0.14)">
     <defs>
      <path d="M 16.796875 72.90625 
L 26.703125 72.90625 
L 14.203125 8.203125 
L 49.703125 8.203125 
L 48.09375 0 
L 2.6875 0 
z
" id="DejaVuSans-Oblique-76"/>
      <path d="M 19.1875 8.296875 
L 53.609375 8.296875 
L 53.609375 0 
L 7.328125 0 
L 7.328125 8.296875 
Q 12.9375 14.109375 22.625 23.890625 
Q 32.328125 33.6875 34.8125 36.53125 
Q 39.546875 41.84375 41.421875 45.53125 
Q 43.3125 49.21875 43.3125 52.78125 
Q 43.3125 58.59375 39.234375 62.25 
Q 35.15625 65.921875 28.609375 65.921875 
Q 23.96875 65.921875 18.8125 64.3125 
Q 13.671875 62.703125 7.8125 59.421875 
L 7.8125 69.390625 
Q 13.765625 71.78125 18.9375 73 
Q 24.125 74.21875 28.421875 74.21875 
Q 39.75 74.21875 46.484375 68.546875 
Q 53.21875 62.890625 53.21875 53.421875 
Q 53.21875 48.921875 51.53125 44.890625 
Q 49.859375 40.875 45.40625 35.40625 
Q 44.1875 33.984375 37.640625 27.21875 
Q 31.109375 20.453125 19.1875 8.296875 
z
" id="DejaVuSans-50"/>
     </defs>
     <use transform="translate(0 0.09375)" xlink:href="#DejaVuSans-Oblique-76"/>
     <use transform="translate(55.712891 -16.3125)scale(0.7)" xlink:href="#DejaVuSans-50"/>
    </g>
   </g>
   <g id="text_4">
    <!-- $V_{dd}$ -->
    <g transform="translate(150.964 17.837813)scale(0.14 -0.14)">
     <defs>
      <path d="M 41.796875 8.203125 
Q 38.1875 3.46875 33.25 1.015625 
Q 28.328125 -1.421875 22.3125 -1.421875 
Q 14.109375 -1.421875 9.34375 4.171875 
Q 4.59375 9.765625 4.59375 19.484375 
Q 4.59375 27.59375 7.46875 34.9375 
Q 10.359375 42.28125 15.828125 48.09375 
Q 19.4375 51.953125 23.96875 53.96875 
Q 28.515625 56 33.5 56 
Q 38.765625 56 42.796875 53.453125 
Q 46.828125 50.921875 49.03125 46.1875 
L 54.890625 75.984375 
L 63.921875 75.984375 
L 49.125 0 
L 40.09375 0 
z
M 13.921875 21.09375 
Q 13.921875 14.015625 17.109375 10.0625 
Q 20.3125 6.109375 25.984375 6.109375 
Q 30.171875 6.109375 33.765625 8.125 
Q 37.359375 10.15625 40.09375 14.109375 
Q 42.96875 18.21875 44.625 23.578125 
Q 46.296875 28.953125 46.296875 34.1875 
Q 46.296875 40.96875 43.09375 44.765625 
Q 39.890625 48.578125 34.28125 48.578125 
Q 30.03125 48.578125 26.359375 46.578125 
Q 22.703125 44.578125 20.125 40.828125 
Q 17.28125 36.765625 15.59375 31.390625 
Q 13.921875 26.03125 13.921875 21.09375 
z
" id="DejaVuSans-Oblique-100"/>
     </defs>
     <use transform="translate(0 0.09375)" xlink:href="#DejaVuSans-Oblique-86"/>
     <use transform="translate(68.408203 -16.3125)scale(0.7)" xlink:href="#DejaVuSans-Oblique-100"/>
     <use transform="translate(112.841797 -16.3125)scale(0.7)" xlink:href="#DejaVuSans-Oblique-100"/>
    </g>
   </g>
   <g id="text_5">
    <!-- $C_2$ -->
    <g transform="translate(202.574 114.227813)scale(0.14 -0.14)">
     <defs>
      <path d="M 69.484375 67.28125 
L 67.484375 56.890625 
Q 62.796875 61.625 57.546875 63.921875 
Q 52.296875 66.21875 46.1875 66.21875 
Q 37.84375 66.21875 31.515625 62.203125 
Q 25.203125 58.203125 20.609375 50 
Q 17.671875 44.734375 16.125 38.84375 
Q 14.59375 32.953125 14.59375 27 
Q 14.59375 17.046875 19.75 11.8125 
Q 24.90625 6.59375 34.71875 6.59375 
Q 41.5 6.59375 47.75 8.765625 
Q 54 10.9375 59.90625 15.28125 
L 57.625 3.609375 
Q 51.8125 1.125 45.875 -0.140625 
Q 39.9375 -1.421875 33.984375 -1.421875 
Q 19.96875 -1.421875 12.078125 6.1875 
Q 4.203125 13.8125 4.203125 27.390625 
Q 4.203125 36.078125 7.203125 44.46875 
Q 10.203125 52.875 15.828125 59.8125 
Q 21.78125 67.1875 29.421875 70.703125 
Q 37.0625 74.21875 47.21875 74.21875 
Q 53.46875 74.21875 59.0625 72.484375 
Q 64.65625 70.75 69.484375 67.28125 
z
" id="DejaVuSans-Oblique-67"/>
     </defs>
     <use transform="translate(0 0.78125)" xlink:href="#DejaVuSans-Oblique-67"/>
     <use transform="translate(69.824219 -15.625)scale(0.7)" xlink:href="#DejaVuSans-50"/>
    </g>
   </g>
   <g id="text_6">
    <!-- $C_3$ -->
    <g transform="translate(299.774 114.227813)scale(0.14 -0.14)">
     <defs>
      <path d="M 40.578125 39.3125 
Q 47.65625 37.796875 51.625 33 
Q 55.609375 28.21875 55.609375 21.1875 
Q 55.609375 10.40625 48.1875 4.484375 
Q 40.765625 -1.421875 27.09375 -1.421875 
Q 22.515625 -1.421875 17.65625 -0.515625 
Q 12.796875 0.390625 7.625 2.203125 
L 7.625 11.71875 
Q 11.71875 9.328125 16.59375 8.109375 
Q 21.484375 6.890625 26.8125 6.890625 
Q 36.078125 6.890625 40.9375 10.546875 
Q 45.796875 14.203125 45.796875 21.1875 
Q 45.796875 27.640625 41.28125 31.265625 
Q 36.765625 34.90625 28.71875 34.90625 
L 20.21875 34.90625 
L 20.21875 43.015625 
L 29.109375 43.015625 
Q 36.375 43.015625 40.234375 45.921875 
Q 44.09375 48.828125 44.09375 54.296875 
Q 44.09375 59.90625 40.109375 62.90625 
Q 36.140625 65.921875 28.71875 65.921875 
Q 24.65625 65.921875 20.015625 65.03125 
Q 15.375 64.15625 9.8125 62.3125 
L 9.8125 71.09375 
Q 15.4375 72.65625 20.34375 73.4375 
Q 25.25 74.21875 29.59375 74.21875 
Q 40.828125 74.21875 47.359375 69.109375 
Q 53.90625 64.015625 53.90625 55.328125 
Q 53.90625 49.265625 50.4375 45.09375 
Q 46.96875 40.921875 40.578125 39.3125 
z
" id="DejaVuSans-51"/>
     </defs>
     <use transform="translate(0 0.78125)" xlink:href="#DejaVuSans-Oblique-67"/>
     <use transform="translate(69.824219 -15.625)scale(0.7)" xlink:href="#DejaVuSans-51"/>
    </g>
   </g>
   <g id="text_7">
    <!-- $L_3$ -->
    <g transform="translate(300.824 157.680761)scale(0.14 -0.14)">
     <use transform="translate(0 0.09375)" xlink:href="#DejaVuSans-Oblique-76"/>
     <use transform="translate(55.712891 -16.3125)scale(0.7)" xlink:href="#DejaVuSans-51"/>
    </g>
   </g>
   <g id="text_8">
    <!-- $L_1$ -->
    <g transform="translate(373.073677 177.6125)scale(0.14 -0.14)">
     <defs>
      <path d="M 12.40625 8.296875 
L 28.515625 8.296875 
L 28.515625 63.921875 
L 10.984375 60.40625 
L 10.984375 69.390625 
L 28.421875 72.90625 
L 38.28125 72.90625 
L 38.28125 8.296875 
L 54.390625 8.296875 
L 54.390625 0 
L 12.40625 0 
z
" id="DejaVuSans-49"/>
     </defs>
     <use transform="translate(0 0.09375)" xlink:href="#DejaVuSans-Oblique-76"/>
     <use transform="translate(55.712891 -16.3125)scale(0.7)" xlink:href="#DejaVuSans-49"/>
    </g>
   </g>
   <g id="text_9">
    <!-- $C_1$ -->
    <g transform="translate(417.874 177.6125)scale(0.14 -0.14)">
     <use transform="translate(0 0.78125)" xlink:href="#DejaVuSans-Oblique-67"/>
     <use transform="translate(69.824219 -15.625)scale(0.7)" xlink:href="#DejaVuSans-49"/>
    </g>
   </g>
   <g id="text_10">
    <!-- $R_L$ -->
    <g transform="translate(467.314 177.6125)scale(0.14 -0.14)">
     <use transform="translate(0 0.09375)" xlink:href="#DejaVuSans-Oblique-82"/>
     <use transform="translate(69.482422 -16.3125)scale(0.7)" xlink:href="#DejaVuSans-Oblique-76"/>
    </g>
   </g>
   <g id="patch_4">
    <path clip-path="url(#p31a06a49e4)" d="M 40.68 151.462375 
C 41.324444 151.462375 41.942579 151.220559 42.398269 150.790185 
C 42.85396 150.359811 43.11 149.776016 43.11 149.167375 
C 43.11 148.558734 42.85396 147.974939 42.398269 147.544565 
C 41.942579 147.114191 41.324444 146.872375 40.68 146.872375 
C 40.035556 146.872375 39.417421 147.114191 38.961731 147.544565 
C 38.50604 147.974939 38.25 148.558734 38.25 149.167375 
C 38.25 149.776016 38.50604 150.359811 38.961731 150.790185 
C 39.417421 151.220559 40.035556 151.462375 40.68 151.462375 
z
" style="fill:#ff0000;stroke:#ff0000;stroke-linejoin:miter;stroke-width:2;"/>
   </g>
   <g id="patch_5">
    <path clip-path="url(#p31a06a49e4)" d="M 162.234 130.144375 
C 162.878444 130.144375 163.496579 129.902559 163.952269 129.472185 
C 164.40796 129.041811 164.664 128.458016 164.664 127.849375 
C 164.664 127.240734 164.40796 126.656939 163.952269 126.226565 
C 163.496579 125.796191 162.878444 125.554375 162.234 125.554375 
C 161.589556 125.554375 160.971421 125.796191 160.515731 126.226565 
C 160.06004 126.656939 159.804 127.240734 159.804 127.849375 
C 159.804 128.458016 160.06004 129.041811 160.515731 129.472185 
C 160.971421 129.902559 161.589556 130.144375 162.234 130.144375 
z
" style="fill:#ff0000;stroke:#ff0000;stroke-linejoin:miter;stroke-width:2;"/>
   </g>
   <g id="patch_6">
    <path clip-path="url(#p31a06a49e4)" d="M 259.434 130.144375 
C 260.078444 130.144375 260.696579 129.902559 261.152269 129.472185 
C 261.60796 129.041811 261.864 128.458016 261.864 127.849375 
C 261.864 127.240734 261.60796 126.656939 261.152269 126.226565 
C 260.696579 125.796191 260.078444 125.554375 259.434 125.554375 
C 258.789556 125.554375 258.171421 125.796191 257.715731 126.226565 
C 257.26004 126.656939 257.004 127.240734 257.004 127.849375 
C 257.004 128.458016 257.26004 129.041811 257.715731 129.472185 
C 258.171421 129.902559 258.789556 130.144375 259.434 130.144375 
z
" style="fill:#ff0000;stroke:#ff0000;stroke-linejoin:miter;stroke-width:2;"/>
   </g>
   <g id="patch_7">
    <path clip-path="url(#p31a06a49e4)" d="M 356.634 130.144375 
C 357.278444 130.144375 357.896579 129.902559 358.352269 129.472185 
C 358.80796 129.041811 359.064 128.458016 359.064 127.849375 
C 359.064 127.240734 358.80796 126.656939 358.352269 126.226565 
C 357.896579 125.796191 357.278444 125.554375 356.634 125.554375 
C 355.989556 125.554375 355.371421 125.796191 354.915731 126.226565 
C 354.46004 126.656939 354.204 127.240734 354.204 127.849375 
C 354.204 128.458016 354.46004 129.041811 354.915731 129.472185 
C 355.371421 129.902559 355.989556 130.144375 356.634 130.144375 
z
" style="fill:#ff0000;stroke:#ff0000;stroke-linejoin:miter;stroke-width:2;"/>
   </g>
   <g id="patch_8">
    <path clip-path="url(#p31a06a49e4)" d="M 510.534 130.144375 
C 511.178444 130.144375 511.796579 129.902559 512.252269 129.472185 
C 512.70796 129.041811 512.964 128.458016 512.964 127.849375 
C 512.964 127.240734 512.70796 126.656939 512.252269 126.226565 
C 511.796579 125.796191 511.178444 125.554375 510.534 125.554375 
C 509.889556 125.554375 509.271421 125.796191 508.815731 126.226565 
C 508.36004 126.656939 508.104 127.240734 508.104 127.849375 
C 508.104 128.458016 508.36004 129.041811 508.815731 129.472185 
C 509.271421 129.902559 509.889556 130.144375 510.534 130.144375 
z
" style="fill:#ffffff;stroke:#000000;stroke-linejoin:miter;stroke-width:2;"/>
   </g>
   <g id="patch_9">
    <path clip-path="url(#p31a06a49e4)" d="M 445.734 221.944375 
C 446.378444 221.944375 446.996579 221.702559 447.452269 221.272185 
C 447.90796 220.841811 448.164 220.258016 448.164 219.649375 
C 448.164 219.040734 447.90796 218.456939 447.452269 218.026565 
C 446.996579 217.596191 446.378444 217.354375 445.734 217.354375 
C 445.089556 217.354375 444.471421 217.596191 444.015731 218.026565 
C 443.56004 218.456939 443.304 219.040734 443.304 219.649375 
C 443.304 220.258016 443.56004 220.841811 444.015731 221.272185 
C 444.471421 221.702559 445.089556 221.944375 445.734 221.944375 
z
" style="stroke:#000000;stroke-linejoin:miter;stroke-width:2;"/>
   </g>
   <g id="patch_10">
    <path clip-path="url(#p31a06a49e4)" d="M 397.134 221.944375 
C 397.778444 221.944375 398.396579 221.702559 398.852269 221.272185 
C 399.30796 220.841811 399.564 220.258016 399.564 219.649375 
C 399.564 219.040734 399.30796 218.456939 398.852269 218.026565 
C 398.396579 217.596191 397.778444 217.354375 397.134 217.354375 
C 396.489556 217.354375 395.871421 217.596191 395.415731 218.026565 
C 394.96004 218.456939 394.704 219.040734 394.704 219.649375 
C 394.704 220.258016 394.96004 220.841811 395.415731 221.272185 
C 395.871421 221.702559 396.489556 221.944375 397.134 221.944375 
z
" style="stroke:#000000;stroke-linejoin:miter;stroke-width:2;"/>
   </g>
   <g id="patch_11">
    <path clip-path="url(#p31a06a49e4)" d="M 162.234 221.944375 
C 162.878444 221.944375 163.496579 221.702559 163.952269 221.272185 
C 164.40796 220.841811 164.664 220.258016 164.664 219.649375 
C 164.664 219.040734 164.40796 218.456939 163.952269 218.026565 
C 163.496579 217.596191 162.878444 217.354375 162.234 217.354375 
C 161.589556 217.354375 160.971421 217.596191 160.515731 218.026565 
C 160.06004 218.456939 159.804 219.040734 159.804 219.649375 
C 159.804 220.258016 160.06004 220.841811 160.515731 221.272185 
C 160.971421 221.702559 161.589556 221.944375 162.234 221.944375 
z
" style="stroke:#000000;stroke-linejoin:miter;stroke-width:2;"/>
   </g>
   <g id="text_11">
    <!-- 1 -->
    <g style="fill:#ff0000;" transform="translate(47.9725 167.675813)scale(0.14 -0.14)">
     <use xlink:href="#DejaVuSans-49"/>
    </g>
   </g>
   <g id="text_12">
    <!-- 2 -->
    <g style="fill:#ff0000;" transform="translate(169.5265 146.357813)scale(0.14 -0.14)">
     <use xlink:href="#DejaVuSans-50"/>
    </g>
   </g>
   <g id="text_13">
    <!-- 5 -->
    <g style="fill:#ff0000;" transform="translate(266.7265 146.357813)scale(0.14 -0.14)">
     <defs>
      <path d="M 10.796875 72.90625 
L 49.515625 72.90625 
L 49.515625 64.59375 
L 19.828125 64.59375 
L 19.828125 46.734375 
Q 21.96875 47.46875 24.109375 47.828125 
Q 26.265625 48.1875 28.421875 48.1875 
Q 40.625 48.1875 47.75 41.5 
Q 54.890625 34.8125 54.890625 23.390625 
Q 54.890625 11.625 47.5625 5.09375 
Q 40.234375 -1.421875 26.90625 -1.421875 
Q 22.3125 -1.421875 17.546875 -0.640625 
Q 12.796875 0.140625 7.71875 1.703125 
L 7.71875 11.625 
Q 12.109375 9.234375 16.796875 8.0625 
Q 21.484375 6.890625 26.703125 6.890625 
Q 35.15625 6.890625 40.078125 11.328125 
Q 45.015625 15.765625 45.015625 23.390625 
Q 45.015625 31 40.078125 35.4375 
Q 35.15625 39.890625 26.703125 39.890625 
Q 22.75 39.890625 18.8125 39.015625 
Q 14.890625 38.140625 10.796875 36.28125 
z
" id="DejaVuSans-53"/>
     </defs>
     <use xlink:href="#DejaVuSans-53"/>
    </g>
   </g>
   <g id="text_14">
    <!-- 3 -->
    <g style="fill:#ff0000;" transform="translate(363.9265 146.357812)scale(0.14 -0.14)">
     <use xlink:href="#DejaVuSans-51"/>
    </g>
   </g>
   <g id="text_15">
    <!-- $v_{out}$ -->
    <g transform="translate(516.204 131.7125)scale(0.14 -0.14)">
     <defs>
      <path d="M 7.171875 54.6875 
L 16.703125 54.6875 
L 24.703125 8.203125 
L 50.875 54.6875 
L 60.40625 54.6875 
L 29.296875 0 
L 17.1875 0 
z
" id="DejaVuSans-Oblique-118"/>
      <path d="M 25.390625 -1.421875 
Q 15.765625 -1.421875 10.171875 4.515625 
Q 4.59375 10.453125 4.59375 20.703125 
Q 4.59375 26.65625 6.515625 32.828125 
Q 8.453125 39.015625 11.53125 43.21875 
Q 16.359375 49.75 22.3125 52.875 
Q 28.265625 56 35.796875 56 
Q 45.125 56 50.859375 50.1875 
Q 56.59375 44.390625 56.59375 35.015625 
Q 56.59375 28.515625 54.6875 22.0625 
Q 52.78125 15.625 49.703125 11.375 
Q 44.921875 4.828125 38.96875 1.703125 
Q 33.015625 -1.421875 25.390625 -1.421875 
z
M 13.921875 21 
Q 13.921875 13.578125 17.015625 9.890625 
Q 20.125 6.203125 26.421875 6.203125 
Q 35.453125 6.203125 41.375 14.078125 
Q 47.3125 21.96875 47.3125 34.078125 
Q 47.3125 41.15625 44.140625 44.765625 
Q 40.96875 48.390625 34.8125 48.390625 
Q 29.734375 48.390625 25.78125 46.015625 
Q 21.828125 43.65625 18.703125 38.8125 
Q 16.40625 35.203125 15.15625 30.5625 
Q 13.921875 25.921875 13.921875 21 
z
" id="DejaVuSans-Oblique-111"/>
      <path d="M 6.6875 21.6875 
L 13.09375 54.6875 
L 22.125 54.6875 
L 15.71875 22.015625 
Q 15.234375 19.625 15.015625 17.921875 
Q 14.796875 16.21875 14.796875 15.09375 
Q 14.796875 10.9375 17.328125 8.65625 
Q 19.875 6.390625 24.515625 6.390625 
Q 31.734375 6.390625 37 11.265625 
Q 42.28125 16.15625 43.890625 24.421875 
L 49.90625 54.6875 
L 58.890625 54.6875 
L 48.296875 0 
L 39.3125 0 
L 41.109375 8.59375 
Q 37.3125 3.8125 32.0625 1.1875 
Q 26.8125 -1.421875 20.90625 -1.421875 
Q 13.71875 -1.421875 9.71875 2.515625 
Q 5.71875 6.453125 5.71875 13.484375 
Q 5.71875 14.9375 5.953125 17.140625 
Q 6.203125 19.34375 6.6875 21.6875 
z
" id="DejaVuSans-Oblique-117"/>
      <path d="M 42.28125 54.6875 
L 40.921875 47.703125 
L 23 47.703125 
L 17.1875 18.015625 
Q 16.890625 16.359375 16.75 15.234375 
Q 16.609375 14.109375 16.609375 13.484375 
Q 16.609375 10.359375 18.484375 8.9375 
Q 20.359375 7.515625 24.515625 7.515625 
L 33.59375 7.515625 
L 32.078125 0 
L 23.484375 0 
Q 15.484375 0 11.546875 3.125 
Q 7.625 6.25 7.625 12.59375 
Q 7.625 13.71875 7.765625 15.0625 
Q 7.90625 16.40625 8.203125 18.015625 
L 14.015625 47.703125 
L 6.390625 47.703125 
L 7.8125 54.6875 
L 15.28125 54.6875 
L 18.3125 70.21875 
L 27.296875 70.21875 
L 24.3125 54.6875 
z
" id="DejaVuSans-Oblique-116"/>
     </defs>
     <use transform="translate(0 0.3125)" xlink:href="#DejaVuSans-Oblique-118"/>
     <use transform="translate(59.179688 -16.09375)scale(0.7)" xlink:href="#DejaVuSans-Oblique-111"/>
     <use transform="translate(102.006836 -16.09375)scale(0.7)" xlink:href="#DejaVuSans-Oblique-117"/>
     <use transform="translate(146.37207 -16.09375)scale(0.7)" xlink:href="#DejaVuSans-Oblique-116"/>
    </g>
   </g>
  </g>
 </g>
 <defs>
  <clipPath id="p31a06a49e4">
   <rect height="219.912" width="494.964" x="21.24" y="20.749375"/>
  </clipPath>
 </defs>
</svg>
