<?xml version="1.0" encoding="utf-8" standalone="no"?>
<!DOCTYPE svg PUBLIC "-//W3C//DTD SVG 1.1//EN"
  "http://www.w3.org/Graphics/SVG/1.1/DTD/svg11.dtd">
<svg xmlns:xlink="http://www.w3.org/1999/xlink" width="501.7968pt" height="217.924pt" viewBox="0 0 501.7968 217.924" xmlns="http://www.w3.org/2000/svg" version="1.1">
 <metadata>
  <rdf:RDF xmlns:dc="http://purl.org/dc/elements/1.1/" xmlns:cc="http://creativecommons.org/ns#" xmlns:rdf="http://www.w3.org/1999/02/22-rdf-syntax-ns#">
   <cc:Work>
    <dc:type rdf:resource="http://purl.org/dc/dcmitype/StillImage"/>
    <dc:date>2022-01-02T22:37:00.734932</dc:date>
    <dc:format>image/svg+xml</dc:format>
    <dc:creator>
     <cc:Agent>
      <dc:title>Matplotlib v3.5.1, https://matplotlib.org/</dc:title>
     </cc:Agent>
    </dc:creator>
   </cc:Work>
  </rdf:RDF>
 </metadata>
 <defs>
  <style type="text/css">*{stroke-linejoin: round; stroke-linecap: butt}</style>
 </defs>
 <g id="figure_1">
  <g id="patch_1">
   <path d="M 0 217.924 
L 501.7968 217.924 
L 501.7968 0 
L 0 0 
L 0 217.924 
z
" style="fill: none"/>
  </g>
  <g id="axes_1">
   <g id="patch_2">
    <path d="M 298.0734 151.36 
C 299.695902 151.36 301.253611 150.714776 302.400894 149.567494 
C 303.548176 148.420211 304.1934 146.862502 304.1934 145.24 
C 304.1934 143.617498 303.548176 142.059789 302.400894 140.912506 
C 301.253611 139.765224 299.695902 139.12 298.0734 139.12 
" clip-path="url(#p52945f216e)" style="fill: none; stroke: #000000; stroke-width: 2; stroke-linejoin: miter"/>
   </g>
   <g id="patch_3">
    <path d="M 298.0734 163.6 
C 299.695902 163.6 301.253611 162.954776 302.400894 161.807494 
C 303.548176 160.660211 304.1934 159.102502 304.1934 157.48 
C 304.1934 155.857498 303.548176 154.299789 302.400894 153.152506 
C 301.253611 152.005224 299.695902 151.36 298.0734 151.36 
" clip-path="url(#p52945f216e)" style="fill: none; stroke: #000000; stroke-width: 2; stroke-linejoin: miter"/>
   </g>
   <g id="patch_4">
    <path d="M 298.0734 175.84 
C 299.695902 175.84 301.253611 175.194776 302.400894 174.047494 
C 303.548176 172.900211 304.1934 171.342502 304.1934 169.72 
C 304.1934 168.097498 303.548176 166.539789 302.400894 165.392506 
C 301.253611 164.245224 299.695902 163.6 298.0734 163.6 
" clip-path="url(#p52945f216e)" style="fill: none; stroke: #000000; stroke-width: 2; stroke-linejoin: miter"/>
   </g>
   <g id="patch_5">
    <path d="M 298.0734 188.08 
C 299.695902 188.08 301.253611 187.434776 302.400894 186.287494 
C 303.548176 185.140211 304.1934 183.582502 304.1934 181.96 
C 304.1934 180.337498 303.548176 178.779789 302.400894 177.632506 
C 301.253611 176.485224 299.695902 175.84 298.0734 175.84 
" clip-path="url(#p52945f216e)" style="fill: none; stroke: #000000; stroke-width: 2; stroke-linejoin: miter"/>
   </g>
   <g id="patch_6">
    <path d="M 328.6734 139.12 
C 327.050898 139.12 325.493189 139.765224 324.345906 140.912506 
C 323.198624 142.059789 322.5534 143.617498 322.5534 145.24 
C 322.5534 146.862502 323.198624 148.420211 324.345906 149.567494 
C 325.493189 150.714776 327.050898 151.36 328.6734 151.36 
" clip-path="url(#p52945f216e)" style="fill: none; stroke: #000000; stroke-width: 2; stroke-linejoin: miter"/>
   </g>
   <g id="patch_7">
    <path d="M 328.6734 151.36 
C 327.050898 151.36 325.493189 152.005224 324.345906 153.152506 
C 323.198624 154.299789 322.5534 155.857498 322.5534 157.48 
C 322.5534 159.102502 323.198624 160.660211 324.345906 161.807494 
C 325.493189 162.954776 327.050898 163.6 328.6734 163.6 
" clip-path="url(#p52945f216e)" style="fill: none; stroke: #000000; stroke-width: 2; stroke-linejoin: miter"/>
   </g>
   <g id="patch_8">
    <path d="M 328.6734 163.6 
C 327.050898 163.6 325.493189 164.245224 324.345906 165.392506 
C 323.198624 166.539789 322.5534 168.097498 322.5534 169.72 
C 322.5534 171.342502 323.198624 172.900211 324.345906 174.047494 
C 325.493189 175.194776 327.050898 175.84 328.6734 175.84 
" clip-path="url(#p52945f216e)" style="fill: none; stroke: #000000; stroke-width: 2; stroke-linejoin: miter"/>
   </g>
   <g id="patch_9">
    <path d="M 328.6734 175.84 
C 327.050898 175.84 325.493189 176.485224 324.345906 177.632506 
C 323.198624 178.779789 322.5534 180.337498 322.5534 181.96 
C 322.5534 183.582502 323.198624 185.140211 324.345906 186.287494 
C 325.493189 187.434776 327.050898 188.08 328.6734 188.08 
" clip-path="url(#p52945f216e)" style="fill: none; stroke: #000000; stroke-width: 2; stroke-linejoin: miter"/>
   </g>
   <g id="patch_10">
    <path d="M 382.2234 139.12 
C 382.2234 137.914493 382.104671 136.720709 381.874007 135.606966 
C 381.643343 134.493223 381.305231 133.481182 380.87902 132.62876 
C 380.452809 131.776338 379.946788 131.100113 379.389917 130.638786 
C 378.833046 130.177459 378.236153 129.94 377.6334 129.94 
C 377.030647 129.94 376.433754 130.177459 375.876883 130.638786 
C 375.320012 131.100113 374.813991 131.776338 374.38778 132.62876 
C 373.961569 133.481182 373.623457 134.493223 373.392793 135.606966 
C 373.162129 136.720709 373.0434 137.914493 373.0434 139.12 
C 373.0434 140.325507 373.162129 141.519291 373.392793 142.633034 
C 373.623457 143.746777 373.961569 144.758818 374.38778 145.61124 
C 374.813991 146.463662 375.320012 147.139887 375.876883 147.601214 
C 376.433754 148.062541 377.030647 148.3 377.6334 148.3 
C 378.236153 148.3 378.833046 148.062541 379.389917 147.601214 
C 379.946788 147.139887 380.452809 146.463662 380.87902 145.61124 
C 381.305231 144.758818 381.643343 143.746777 381.874007 142.633034 
C 382.104671 141.519291 382.2234 140.325507 382.2234 139.12 
" clip-path="url(#p52945f216e)" style="fill: none; stroke: #000000; stroke-width: 2; stroke-linejoin: miter"/>
   </g>
   <g id="patch_11">
    <path d="M 432.7134 148.3 
C 433.930277 148.3 435.098558 147.332164 435.95902 145.61124 
C 436.819482 143.890317 437.3034 141.553754 437.3034 139.12 
C 437.3034 136.686246 436.819482 134.349683 435.95902 132.62876 
C 435.098558 130.907836 433.930277 129.94 432.7134 129.94 
" clip-path="url(#p52945f216e)" style="fill: none; stroke: #000000; stroke-width: 2; stroke-linejoin: miter"/>
   </g>
   <g id="line2d_1">
    <path d="M 114.4734 47.32 
L 114.4734 35.08 
" clip-path="url(#p52945f216e)" style="fill: none; stroke: #000000; stroke-width: 2; stroke-linecap: round"/>
   </g>
   <g id="line2d_2">
    <path d="M 114.4734 35.08 
L 108.7359 35.08 
" clip-path="url(#p52945f216e)" style="fill: none; stroke: #000000; stroke-width: 2; stroke-linecap: round"/>
   </g>
   <g id="line2d_3">
    <path d="M 114.4734 35.08 
L 120.2109 35.08 
" clip-path="url(#p52945f216e)" style="fill: none; stroke: #000000; stroke-width: 2; stroke-linecap: round"/>
   </g>
   <g id="line2d_4">
    <path d="M 114.4734 47.32 
L 114.4734 77.92 
L 116.992959 78.033959 
L 119.535241 78.380496 
L 121.887029 78.951901 
L 123.851083 79.721607 
L 125.26268 80.646415 
L 125.722199 81.149802 
L 126.003432 81.670117 
L 126.100452 82.199076 
L 126.011213 82.728212 
L 125.737597 83.249057 
L 125.28537 83.753314 
L 124.664066 84.23304 
L 122.969894 85.089855 
L 120.79717 85.768997 
L 118.328116 86.234862 
L 115.769808 86.469734 
L 113.336808 86.47527 
L 111.233167 86.27236 
L 109.635314 85.899376 
L 108.677259 85.408956 
L 108.46558 85.138989 
L 108.439353 84.863585 
L 108.599132 84.591233 
L 108.941549 84.330357 
L 110.141727 83.875348 
L 111.939232 83.558075 
L 114.183308 83.426501 
L 116.685749 83.513016 
L 119.236679 83.831719 
L 121.622155 84.377236 
L 123.642111 85.12517 
L 125.127137 86.034148 
L 125.628062 86.532287 
L 125.952685 87.049291 
L 126.094164 87.576946 
L 126.049518 88.106814 
L 125.819687 88.63041 
L 125.409515 89.139381 
L 124.827648 89.625681 
L 123.20125 90.500642 
L 121.076896 91.203267 
L 118.632751 91.695982 
L 116.073804 91.958819 
L 113.614668 91.99109 
L 111.461588 91.811442 
L 109.795139 91.456297 
L 108.755084 90.976796 
L 108.499498 90.709382 
L 108.42865 90.434509 
L 108.544033 90.160653 
L 108.843216 89.896271 
L 109.964011 89.428579 
L 111.697038 89.092012 
L 113.896949 88.936152 
L 116.379241 88.995426 
L 118.935728 89.286218 
L 121.352002 89.805494 
L 123.425413 90.531059 
L 124.982068 91.423415 
L 125.523791 91.915856 
L 125.891412 92.429077 
L 126.077179 92.954944 
L 126.077179 93.485056 
L 125.891412 94.010923 
L 125.523791 94.524144 
L 124.982068 95.016585 
L 123.425413 95.908941 
L 121.352002 96.634506 
L 118.935728 97.153782 
L 116.379241 97.444574 
L 113.896949 97.503848 
L 111.697038 97.347988 
L 109.964011 97.011421 
L 108.843216 96.543729 
L 108.544033 96.279347 
L 108.42865 96.005491 
L 108.499498 95.730618 
L 108.755084 95.463204 
L 109.795139 94.983703 
L 111.461588 94.628558 
L 113.614668 94.44891 
L 116.073804 94.481181 
L 118.632751 94.744018 
L 121.076896 95.236733 
L 123.20125 95.939358 
L 124.827648 96.814319 
L 125.409515 97.300619 
L 125.819687 97.80959 
L 126.049518 98.333186 
L 126.094164 98.863054 
L 125.952685 99.390709 
L 125.628062 99.907713 
L 125.127137 100.405852 
L 124.460469 100.877309 
L 122.689312 101.711877 
L 120.463134 102.362779 
L 117.968642 102.79678 
L 115.415044 102.998834 
L 113.016506 102.973353 
L 110.974192 102.743826 
L 109.459386 102.35086 
L 108.599132 101.848767 
L 108.439353 101.576415 
L 108.46558 101.301011 
L 108.677259 101.031044 
L 109.06993 100.774887 
L 110.361495 100.335875 
L 112.231955 100.042149 
L 114.524436 99.939698 
L 117.046673 100.058471 
L 119.587128 100.409859 
L 121.932738 100.985749 
L 123.886779 101.759195 
L 125.28537 102.686686 
L 125.737597 103.190943 
L 126.011213 103.711788 
L 126.100452 104.240924 
L 126.003432 104.769883 
L 125.722199 105.290198 
L 125.26268 105.793585 
L 124.634562 106.272118 
L 122.928759 107.125687 
L 120.747853 107.800673 
L 118.274753 108.261821 
L 115.716875 108.491809 
L 114.4734 108.52 
L 114.4734 139.12 
L 114.4734 139.12 
" clip-path="url(#p52945f216e)" style="fill: none; stroke: #000000; stroke-width: 2; stroke-linecap: round"/>
   </g>
   <g id="line2d_5">
    <path d="M 114.4734 139.12 
L 157.6194 139.12 
M 157.6194 131.47 
L 157.6194 146.77 
M 163.1274 131.47 
L 163.1274 146.77 
M 163.1274 139.12 
L 206.2734 139.12 
" clip-path="url(#p52945f216e)" style="fill: none; stroke: #000000; stroke-width: 2; stroke-linecap: round"/>
   </g>
   <g id="line2d_6">
    <path d="M 206.2734 139.12 
L 236.8734 139.12 
L 236.987359 136.600441 
L 237.333896 134.058159 
L 237.905301 131.706371 
L 238.675007 129.742317 
L 239.599815 128.33072 
L 240.103202 127.871201 
L 240.623517 127.589968 
L 241.152476 127.492948 
L 241.681612 127.582187 
L 242.202457 127.855803 
L 242.706714 128.30803 
L 243.18644 128.929334 
L 244.043255 130.623506 
L 244.722397 132.79623 
L 245.188262 135.265284 
L 245.423134 137.823592 
L 245.42867 140.256592 
L 245.22576 142.360233 
L 244.852776 143.958086 
L 244.362356 144.916141 
L 244.092389 145.12782 
L 243.816985 145.154047 
L 243.544633 144.994268 
L 243.283757 144.651851 
L 242.828748 143.451673 
L 242.511475 141.654168 
L 242.379901 139.410092 
L 242.466416 136.907651 
L 242.785119 134.356721 
L 243.330636 131.971245 
L 244.07857 129.951289 
L 244.987548 128.466263 
L 245.485687 127.965338 
L 246.002691 127.640715 
L 246.530346 127.499236 
L 247.060214 127.543882 
L 247.58381 127.773713 
L 248.092781 128.183885 
L 248.579081 128.765752 
L 249.454042 130.39215 
L 250.156667 132.516504 
L 250.649382 134.960649 
L 250.912219 137.519596 
L 250.94449 139.978732 
L 250.764842 142.131812 
L 250.409697 143.798261 
L 249.930196 144.838316 
L 249.662782 145.093902 
L 249.387909 145.16475 
L 249.114053 145.049367 
L 248.849671 144.750184 
L 248.381979 143.629389 
L 248.045412 141.896362 
L 247.889552 139.696451 
L 247.948826 137.214159 
L 248.239618 134.657672 
L 248.758894 132.241398 
L 249.484459 130.167987 
L 250.376815 128.611332 
L 250.869256 128.069609 
L 251.382477 127.701988 
L 251.908344 127.516221 
L 252.438456 127.516221 
L 252.964323 127.701988 
L 253.477544 128.069609 
L 253.969985 128.611332 
L 254.862341 130.167987 
L 255.587906 132.241398 
L 256.107182 134.657672 
L 256.397974 137.214159 
L 256.457248 139.696451 
L 256.301388 141.896362 
L 255.964821 143.629389 
L 255.497129 144.750184 
L 255.232747 145.049367 
L 254.958891 145.16475 
L 254.684018 145.093902 
L 254.416604 144.838316 
L 253.937103 143.798261 
L 253.581958 142.131812 
L 253.40231 139.978732 
L 253.434581 137.519596 
L 253.697418 134.960649 
L 254.190133 132.516504 
L 254.892758 130.39215 
L 255.767719 128.765752 
L 256.254019 128.183885 
L 256.76299 127.773713 
L 257.286586 127.543882 
L 257.816454 127.499236 
L 258.344109 127.640715 
L 258.861113 127.965338 
L 259.359252 128.466263 
L 259.830709 129.132931 
L 260.665277 130.904088 
L 261.316179 133.130266 
L 261.75018 135.624758 
L 261.952234 138.178356 
L 261.926753 140.576894 
L 261.697226 142.619208 
L 261.30426 144.134014 
L 260.802167 144.994268 
L 260.529815 145.154047 
L 260.254411 145.12782 
L 259.984444 144.916141 
L 259.728287 144.52347 
L 259.289275 143.231905 
L 258.995549 141.361445 
L 258.893098 139.068964 
L 259.011871 136.546727 
L 259.363259 134.006272 
L 259.939149 131.660662 
L 260.712595 129.706621 
L 261.640086 128.30803 
L 262.144343 127.855803 
L 262.665188 127.582187 
L 263.194324 127.492948 
L 263.723283 127.589968 
L 264.243598 127.871201 
L 264.746985 128.33072 
L 265.225518 128.958838 
L 266.079087 130.664641 
L 266.754073 132.845547 
L 267.215221 135.318647 
L 267.445209 137.876525 
L 267.4734 139.12 
L 298.0734 139.12 
L 298.0734 139.12 
" clip-path="url(#p52945f216e)" style="fill: none; stroke: #000000; stroke-width: 2; stroke-linecap: round"/>
   </g>
   <g id="line2d_7">
    <path d="M 310.3134 139.12 
L 310.3134 188.08 
" clip-path="url(#p52945f216e)" style="fill: none; stroke: #000000; stroke-width: 2; stroke-linecap: round"/>
   </g>
   <g id="line2d_8">
    <path d="M 316.4334 139.12 
L 316.4334 188.08 
" clip-path="url(#p52945f216e)" style="fill: none; stroke: #000000; stroke-width: 2; stroke-linecap: round"/>
   </g>
   <g id="line2d_9">
    <path d="M 328.6734 139.12 
L 343.9734 139.12 
L 359.2734 139.12 
" clip-path="url(#p52945f216e)" style="fill: none; stroke: #000000; stroke-width: 2; stroke-linecap: round"/>
   </g>
   <g id="line2d_10">
    <path d="M 359.2734 139.12 
L 377.6334 139.12 
M 437.3034 139.12 
L 451.0734 139.12 
" clip-path="url(#p52945f216e)" style="fill: none; stroke: #000000; stroke-width: 2; stroke-linecap: round"/>
   </g>
   <g id="line2d_11">
    <path d="M 377.6334 129.94 
L 432.7134 129.94 
" clip-path="url(#p52945f216e)" style="fill: none; stroke: #000000; stroke-width: 2; stroke-linecap: round"/>
   </g>
   <g id="line2d_12">
    <path d="M 377.6334 148.3 
L 432.7134 148.3 
" clip-path="url(#p52945f216e)" style="fill: none; stroke: #000000; stroke-width: 2; stroke-linecap: round"/>
   </g>
   <g id="line2d_13">
    <path d="M 451.0734 139.12 
L 458.7234 139.12 
L 466.3734 139.12 
" clip-path="url(#p52945f216e)" style="fill: none; stroke: #000000; stroke-width: 2; stroke-linecap: round"/>
   </g>
   <g id="line2d_14">
    <path d="M 432.7134 148.3 
L 432.7134 168.19 
L 432.7134 188.08 
" clip-path="url(#p52945f216e)" style="fill: none; stroke: #000000; stroke-width: 2; stroke-linecap: round"/>
   </g>
   <g id="line2d_15">
    <path d="M 432.7134 188.08 
L 449.5434 188.08 
L 466.3734 188.08 
" clip-path="url(#p52945f216e)" style="fill: none; stroke: #000000; stroke-width: 2; stroke-linecap: round"/>
   </g>
   <g id="line2d_16">
    <path d="M 377.6334 148.3 
L 377.6334 168.19 
L 377.6334 188.08 
" clip-path="url(#p52945f216e)" style="fill: none; stroke: #000000; stroke-width: 2; stroke-linecap: round"/>
   </g>
   <g id="line2d_17">
    <path d="M 377.6334 188.08 
L 353.1534 188.08 
L 328.6734 188.08 
" clip-path="url(#p52945f216e)" style="fill: none; stroke: #000000; stroke-width: 2; stroke-linecap: round"/>
   </g>
   <g id="line2d_18">
    <path d="M 298.0734 188.08 
L 206.2734 188.08 
L 114.4734 188.08 
" clip-path="url(#p52945f216e)" style="fill: none; stroke: #000000; stroke-width: 2; stroke-linecap: round"/>
   </g>
   <g id="line2d_19">
    <path d="M 114.4734 188.08 
L 114.4734 166.354 
M 106.8234 166.354 
L 122.1234 166.354 
M 106.8234 160.846 
L 122.1234 160.846 
M 114.4734 160.846 
L 114.4734 139.12 
" clip-path="url(#p52945f216e)" style="fill: none; stroke: #000000; stroke-width: 2; stroke-linecap: round"/>
   </g>
   <g id="line2d_20">
    <path d="M 114.4734 188.08 
L 114.4734 200.32 
L 106.8234 200.32 
L 122.1234 200.32 
M 109.1184 203.992 
L 119.8284 203.992 
M 112.9434 207.664 
L 116.0034 207.664 
" clip-path="url(#p52945f216e)" style="fill: none; stroke: #000000; stroke-width: 2; stroke-linecap: round"/>
   </g>
   <g id="line2d_21">
    <path d="M 114.4734 188.08 
L 99.1734 188.08 
L 83.8734 188.08 
" clip-path="url(#p52945f216e)" style="fill: none; stroke: #000000; stroke-width: 2; stroke-linecap: round"/>
   </g>
   <g id="line2d_22">
    <path d="M 83.8734 188.08 
L 83.8734 175.33 
L 63.4734 175.33 
L 63.4734 154.93 
L 83.8734 154.93 
L 83.8734 142.18 
" clip-path="url(#p52945f216e)" style="fill: none; stroke: #000000; stroke-width: 2; stroke-linecap: round"/>
   </g>
   <g id="line2d_23">
    <path d="M 55.8234 175.33 
L 55.8234 154.93 
" clip-path="url(#p52945f216e)" style="fill: none; stroke: #000000; stroke-width: 2; stroke-linecap: round"/>
   </g>
   <g id="line2d_24">
    <path d="M 55.8234 165.13 
L 39.5034 165.13 
" clip-path="url(#p52945f216e)" style="fill: none; stroke: #000000; stroke-width: 2; stroke-linecap: round"/>
   </g>
   <g id="line2d_25">
    <path d="M 83.8734 142.18 
L 83.8734 140.65 
L 83.8734 139.12 
" clip-path="url(#p52945f216e)" style="fill: none; stroke: #000000; stroke-width: 2; stroke-linecap: round"/>
   </g>
   <g id="line2d_26">
    <path d="M 83.8734 139.12 
L 99.1734 139.12 
L 114.4734 139.12 
" clip-path="url(#p52945f216e)" style="fill: none; stroke: #000000; stroke-width: 2; stroke-linecap: round"/>
   </g>
   <g id="text_1">
    <g clip-path="url(#p52945f216e)">
     <!-- $V_{dd}$ -->
     <g transform="translate(104.4109 29.420391)scale(0.125 -0.125)">
      <defs>
       <path id="DejaVuSans-Oblique-56" d="M 1319 0 
L 500 4666 
L 1119 4666 
L 1797 653 
L 4063 4666 
L 4750 4666 
L 2053 0 
L 1319 0 
z
" transform="scale(0.015625)"/>
       <path id="DejaVuSans-Oblique-64" d="M 2675 525 
Q 2444 222 2128 65 
Q 1813 -91 1428 -91 
Q 903 -91 598 267 
Q 294 625 294 1247 
Q 294 1766 478 2236 
Q 663 2706 1013 3078 
Q 1244 3325 1534 3454 
Q 1825 3584 2144 3584 
Q 2481 3584 2739 3421 
Q 2997 3259 3138 2956 
L 3513 4863 
L 4091 4863 
L 3144 0 
L 2566 0 
L 2675 525 
z
M 891 1350 
Q 891 897 1095 644 
Q 1300 391 1663 391 
Q 1931 391 2161 520 
Q 2391 650 2566 903 
Q 2750 1166 2856 1509 
Q 2963 1853 2963 2188 
Q 2963 2622 2758 2865 
Q 2553 3109 2194 3109 
Q 1922 3109 1687 2981 
Q 1453 2853 1288 2613 
Q 1106 2353 998 2009 
Q 891 1666 891 1350 
z
" transform="scale(0.015625)"/>
      </defs>
      <use xlink:href="#DejaVuSans-Oblique-56" transform="translate(0 0.09375)"/>
      <use xlink:href="#DejaVuSans-Oblique-64" transform="translate(68.408203 -16.3125)scale(0.7)"/>
      <use xlink:href="#DejaVuSans-Oblique-64" transform="translate(112.841797 -16.3125)scale(0.7)"/>
     </g>
    </g>
   </g>
   <g id="text_2">
    <g clip-path="url(#p52945f216e)">
     <!-- 1000.00 uH -->
     <g transform="translate(32.382322 96.669219)scale(0.125 -0.125)">
      <defs>
       <path id="DejaVuSans-31" d="M 794 531 
L 1825 531 
L 1825 4091 
L 703 3866 
L 703 4441 
L 1819 4666 
L 2450 4666 
L 2450 531 
L 3481 531 
L 3481 0 
L 794 0 
L 794 531 
z
" transform="scale(0.015625)"/>
       <path id="DejaVuSans-30" d="M 2034 4250 
Q 1547 4250 1301 3770 
Q 1056 3291 1056 2328 
Q 1056 1369 1301 889 
Q 1547 409 2034 409 
Q 2525 409 2770 889 
Q 3016 1369 3016 2328 
Q 3016 3291 2770 3770 
Q 2525 4250 2034 4250 
z
M 2034 4750 
Q 2819 4750 3233 4129 
Q 3647 3509 3647 2328 
Q 3647 1150 3233 529 
Q 2819 -91 2034 -91 
Q 1250 -91 836 529 
Q 422 1150 422 2328 
Q 422 3509 836 4129 
Q 1250 4750 2034 4750 
z
" transform="scale(0.015625)"/>
       <path id="DejaVuSans-2e" d="M 684 794 
L 1344 794 
L 1344 0 
L 684 0 
L 684 794 
z
" transform="scale(0.015625)"/>
       <path id="DejaVuSans-20" transform="scale(0.015625)"/>
       <path id="DejaVuSans-75" d="M 544 1381 
L 544 3500 
L 1119 3500 
L 1119 1403 
Q 1119 906 1312 657 
Q 1506 409 1894 409 
Q 2359 409 2629 706 
Q 2900 1003 2900 1516 
L 2900 3500 
L 3475 3500 
L 3475 0 
L 2900 0 
L 2900 538 
Q 2691 219 2414 64 
Q 2138 -91 1772 -91 
Q 1169 -91 856 284 
Q 544 659 544 1381 
z
M 1991 3584 
L 1991 3584 
z
" transform="scale(0.015625)"/>
       <path id="DejaVuSans-48" d="M 628 4666 
L 1259 4666 
L 1259 2753 
L 3553 2753 
L 3553 4666 
L 4184 4666 
L 4184 0 
L 3553 0 
L 3553 2222 
L 1259 2222 
L 1259 0 
L 628 0 
L 628 4666 
z
" transform="scale(0.015625)"/>
      </defs>
      <use xlink:href="#DejaVuSans-31"/>
      <use xlink:href="#DejaVuSans-30" x="63.623047"/>
      <use xlink:href="#DejaVuSans-30" x="127.246094"/>
      <use xlink:href="#DejaVuSans-30" x="190.869141"/>
      <use xlink:href="#DejaVuSans-2e" x="254.492188"/>
      <use xlink:href="#DejaVuSans-30" x="286.279297"/>
      <use xlink:href="#DejaVuSans-30" x="349.902344"/>
      <use xlink:href="#DejaVuSans-20" x="413.525391"/>
      <use xlink:href="#DejaVuSans-75" x="445.3125"/>
      <use xlink:href="#DejaVuSans-48" x="508.691406"/>
     </g>
    </g>
   </g>
   <g id="text_3">
    <g clip-path="url(#p52945f216e)">
     <!-- 6.04 nF -->
     <g transform="translate(136.915392 125.810391)scale(0.125 -0.125)">
      <defs>
       <path id="DejaVuSans-36" d="M 2113 2584 
Q 1688 2584 1439 2293 
Q 1191 2003 1191 1497 
Q 1191 994 1439 701 
Q 1688 409 2113 409 
Q 2538 409 2786 701 
Q 3034 994 3034 1497 
Q 3034 2003 2786 2293 
Q 2538 2584 2113 2584 
z
M 3366 4563 
L 3366 3988 
Q 3128 4100 2886 4159 
Q 2644 4219 2406 4219 
Q 1781 4219 1451 3797 
Q 1122 3375 1075 2522 
Q 1259 2794 1537 2939 
Q 1816 3084 2150 3084 
Q 2853 3084 3261 2657 
Q 3669 2231 3669 1497 
Q 3669 778 3244 343 
Q 2819 -91 2113 -91 
Q 1303 -91 875 529 
Q 447 1150 447 2328 
Q 447 3434 972 4092 
Q 1497 4750 2381 4750 
Q 2619 4750 2861 4703 
Q 3103 4656 3366 4563 
z
" transform="scale(0.015625)"/>
       <path id="DejaVuSans-34" d="M 2419 4116 
L 825 1625 
L 2419 1625 
L 2419 4116 
z
M 2253 4666 
L 3047 4666 
L 3047 1625 
L 3713 1625 
L 3713 1100 
L 3047 1100 
L 3047 0 
L 2419 0 
L 2419 1100 
L 313 1100 
L 313 1709 
L 2253 4666 
z
" transform="scale(0.015625)"/>
       <path id="DejaVuSans-6e" d="M 3513 2113 
L 3513 0 
L 2938 0 
L 2938 2094 
Q 2938 2591 2744 2837 
Q 2550 3084 2163 3084 
Q 1697 3084 1428 2787 
Q 1159 2491 1159 1978 
L 1159 0 
L 581 0 
L 581 3500 
L 1159 3500 
L 1159 2956 
Q 1366 3272 1645 3428 
Q 1925 3584 2291 3584 
Q 2894 3584 3203 3211 
Q 3513 2838 3513 2113 
z
" transform="scale(0.015625)"/>
       <path id="DejaVuSans-46" d="M 628 4666 
L 3309 4666 
L 3309 4134 
L 1259 4134 
L 1259 2759 
L 3109 2759 
L 3109 2228 
L 1259 2228 
L 1259 0 
L 628 0 
L 628 4666 
z
" transform="scale(0.015625)"/>
      </defs>
      <use xlink:href="#DejaVuSans-36"/>
      <use xlink:href="#DejaVuSans-2e" x="63.623047"/>
      <use xlink:href="#DejaVuSans-30" x="95.410156"/>
      <use xlink:href="#DejaVuSans-34" x="159.033203"/>
      <use xlink:href="#DejaVuSans-20" x="222.65625"/>
      <use xlink:href="#DejaVuSans-6e" x="254.443359"/>
      <use xlink:href="#DejaVuSans-46" x="317.822266"/>
     </g>
    </g>
   </g>
   <g id="text_4">
    <g clip-path="url(#p52945f216e)">
     <!-- 24.93 uH -->
     <g transform="translate(223.633361 121.833339)scale(0.125 -0.125)">
      <defs>
       <path id="DejaVuSans-32" d="M 1228 531 
L 3431 531 
L 3431 0 
L 469 0 
L 469 531 
Q 828 903 1448 1529 
Q 2069 2156 2228 2338 
Q 2531 2678 2651 2914 
Q 2772 3150 2772 3378 
Q 2772 3750 2511 3984 
Q 2250 4219 1831 4219 
Q 1534 4219 1204 4116 
Q 875 4013 500 3803 
L 500 4441 
Q 881 4594 1212 4672 
Q 1544 4750 1819 4750 
Q 2544 4750 2975 4387 
Q 3406 4025 3406 3419 
Q 3406 3131 3298 2873 
Q 3191 2616 2906 2266 
Q 2828 2175 2409 1742 
Q 1991 1309 1228 531 
z
" transform="scale(0.015625)"/>
       <path id="DejaVuSans-39" d="M 703 97 
L 703 672 
Q 941 559 1184 500 
Q 1428 441 1663 441 
Q 2288 441 2617 861 
Q 2947 1281 2994 2138 
Q 2813 1869 2534 1725 
Q 2256 1581 1919 1581 
Q 1219 1581 811 2004 
Q 403 2428 403 3163 
Q 403 3881 828 4315 
Q 1253 4750 1959 4750 
Q 2769 4750 3195 4129 
Q 3622 3509 3622 2328 
Q 3622 1225 3098 567 
Q 2575 -91 1691 -91 
Q 1453 -91 1209 -44 
Q 966 3 703 97 
z
M 1959 2075 
Q 2384 2075 2632 2365 
Q 2881 2656 2881 3163 
Q 2881 3666 2632 3958 
Q 2384 4250 1959 4250 
Q 1534 4250 1286 3958 
Q 1038 3666 1038 3163 
Q 1038 2656 1286 2365 
Q 1534 2075 1959 2075 
z
" transform="scale(0.015625)"/>
       <path id="DejaVuSans-33" d="M 2597 2516 
Q 3050 2419 3304 2112 
Q 3559 1806 3559 1356 
Q 3559 666 3084 287 
Q 2609 -91 1734 -91 
Q 1441 -91 1130 -33 
Q 819 25 488 141 
L 488 750 
Q 750 597 1062 519 
Q 1375 441 1716 441 
Q 2309 441 2620 675 
Q 2931 909 2931 1356 
Q 2931 1769 2642 2001 
Q 2353 2234 1838 2234 
L 1294 2234 
L 1294 2753 
L 1863 2753 
Q 2328 2753 2575 2939 
Q 2822 3125 2822 3475 
Q 2822 3834 2567 4026 
Q 2313 4219 1838 4219 
Q 1578 4219 1281 4162 
Q 984 4106 628 3988 
L 628 4550 
Q 988 4650 1302 4700 
Q 1616 4750 1894 4750 
Q 2613 4750 3031 4423 
Q 3450 4097 3450 3541 
Q 3450 3153 3228 2886 
Q 3006 2619 2597 2516 
z
" transform="scale(0.015625)"/>
      </defs>
      <use xlink:href="#DejaVuSans-32"/>
      <use xlink:href="#DejaVuSans-34" x="63.623047"/>
      <use xlink:href="#DejaVuSans-2e" x="127.246094"/>
      <use xlink:href="#DejaVuSans-39" x="159.033203"/>
      <use xlink:href="#DejaVuSans-33" x="222.65625"/>
      <use xlink:href="#DejaVuSans-20" x="286.279297"/>
      <use xlink:href="#DejaVuSans-75" x="318.066406"/>
      <use xlink:href="#DejaVuSans-48" x="381.445312"/>
     </g>
    </g>
   </g>
   <g id="text_5">
    <g clip-path="url(#p52945f216e)">
     <!-- 1.83 -->
     <g transform="translate(299.457384 133.460391)scale(0.125 -0.125)">
      <defs>
       <path id="DejaVuSans-38" d="M 2034 2216 
Q 1584 2216 1326 1975 
Q 1069 1734 1069 1313 
Q 1069 891 1326 650 
Q 1584 409 2034 409 
Q 2484 409 2743 651 
Q 3003 894 3003 1313 
Q 3003 1734 2745 1975 
Q 2488 2216 2034 2216 
z
M 1403 2484 
Q 997 2584 770 2862 
Q 544 3141 544 3541 
Q 544 4100 942 4425 
Q 1341 4750 2034 4750 
Q 2731 4750 3128 4425 
Q 3525 4100 3525 3541 
Q 3525 3141 3298 2862 
Q 3072 2584 2669 2484 
Q 3125 2378 3379 2068 
Q 3634 1759 3634 1313 
Q 3634 634 3220 271 
Q 2806 -91 2034 -91 
Q 1263 -91 848 271 
Q 434 634 434 1313 
Q 434 1759 690 2068 
Q 947 2378 1403 2484 
z
M 1172 3481 
Q 1172 3119 1398 2916 
Q 1625 2713 2034 2713 
Q 2441 2713 2670 2916 
Q 2900 3119 2900 3481 
Q 2900 3844 2670 4047 
Q 2441 4250 2034 4250 
Q 1625 4250 1398 4047 
Q 1172 3844 1172 3481 
z
" transform="scale(0.015625)"/>
      </defs>
      <use xlink:href="#DejaVuSans-31"/>
      <use xlink:href="#DejaVuSans-2e" x="63.623047"/>
      <use xlink:href="#DejaVuSans-38" x="95.410156"/>
      <use xlink:href="#DejaVuSans-33" x="159.033203"/>
     </g>
    </g>
   </g>
   <g id="text_6">
    <g clip-path="url(#p52945f216e)">
     <!-- 50 Ohm -->
     <g transform="translate(380.265197 124.280391)scale(0.125 -0.125)">
      <defs>
       <path id="DejaVuSans-35" d="M 691 4666 
L 3169 4666 
L 3169 4134 
L 1269 4134 
L 1269 2991 
Q 1406 3038 1543 3061 
Q 1681 3084 1819 3084 
Q 2600 3084 3056 2656 
Q 3513 2228 3513 1497 
Q 3513 744 3044 326 
Q 2575 -91 1722 -91 
Q 1428 -91 1123 -41 
Q 819 9 494 109 
L 494 744 
Q 775 591 1075 516 
Q 1375 441 1709 441 
Q 2250 441 2565 725 
Q 2881 1009 2881 1497 
Q 2881 1984 2565 2268 
Q 2250 2553 1709 2553 
Q 1456 2553 1204 2497 
Q 953 2441 691 2322 
L 691 4666 
z
" transform="scale(0.015625)"/>
       <path id="DejaVuSans-4f" d="M 2522 4238 
Q 1834 4238 1429 3725 
Q 1025 3213 1025 2328 
Q 1025 1447 1429 934 
Q 1834 422 2522 422 
Q 3209 422 3611 934 
Q 4013 1447 4013 2328 
Q 4013 3213 3611 3725 
Q 3209 4238 2522 4238 
z
M 2522 4750 
Q 3503 4750 4090 4092 
Q 4678 3434 4678 2328 
Q 4678 1225 4090 567 
Q 3503 -91 2522 -91 
Q 1538 -91 948 565 
Q 359 1222 359 2328 
Q 359 3434 948 4092 
Q 1538 4750 2522 4750 
z
" transform="scale(0.015625)"/>
       <path id="DejaVuSans-68" d="M 3513 2113 
L 3513 0 
L 2938 0 
L 2938 2094 
Q 2938 2591 2744 2837 
Q 2550 3084 2163 3084 
Q 1697 3084 1428 2787 
Q 1159 2491 1159 1978 
L 1159 0 
L 581 0 
L 581 4863 
L 1159 4863 
L 1159 2956 
Q 1366 3272 1645 3428 
Q 1925 3584 2291 3584 
Q 2894 3584 3203 3211 
Q 3513 2838 3513 2113 
z
" transform="scale(0.015625)"/>
       <path id="DejaVuSans-6d" d="M 3328 2828 
Q 3544 3216 3844 3400 
Q 4144 3584 4550 3584 
Q 5097 3584 5394 3201 
Q 5691 2819 5691 2113 
L 5691 0 
L 5113 0 
L 5113 2094 
Q 5113 2597 4934 2840 
Q 4756 3084 4391 3084 
Q 3944 3084 3684 2787 
Q 3425 2491 3425 1978 
L 3425 0 
L 2847 0 
L 2847 2094 
Q 2847 2600 2669 2842 
Q 2491 3084 2119 3084 
Q 1678 3084 1418 2786 
Q 1159 2488 1159 1978 
L 1159 0 
L 581 0 
L 581 3500 
L 1159 3500 
L 1159 2956 
Q 1356 3278 1631 3431 
Q 1906 3584 2284 3584 
Q 2666 3584 2933 3390 
Q 3200 3197 3328 2828 
z
" transform="scale(0.015625)"/>
      </defs>
      <use xlink:href="#DejaVuSans-35"/>
      <use xlink:href="#DejaVuSans-30" x="63.623047"/>
      <use xlink:href="#DejaVuSans-20" x="127.246094"/>
      <use xlink:href="#DejaVuSans-4f" x="159.033203"/>
      <use xlink:href="#DejaVuSans-68" x="237.744141"/>
      <use xlink:href="#DejaVuSans-6d" x="301.123047"/>
     </g>
    </g>
   </g>
   <g id="text_7">
    <g clip-path="url(#p52945f216e)">
     <!-- + -->
     <g transform="translate(461.136095 154.809219)scale(0.125 -0.125)">
      <defs>
       <path id="DejaVuSans-2b" d="M 2944 4013 
L 2944 2272 
L 4684 2272 
L 4684 1741 
L 2944 1741 
L 2944 0 
L 2419 0 
L 2419 1741 
L 678 1741 
L 678 2272 
L 2419 2272 
L 2419 4013 
L 2944 4013 
z
" transform="scale(0.015625)"/>
      </defs>
      <use xlink:href="#DejaVuSans-2b"/>
     </g>
    </g>
   </g>
   <g id="text_8">
    <g clip-path="url(#p52945f216e)">
     <!-- $v_{out}$ -->
     <g transform="translate(455.3109 167.049219)scale(0.125 -0.125)">
      <defs>
       <path id="DejaVuSans-Oblique-76" d="M 459 3500 
L 1069 3500 
L 1581 525 
L 3256 3500 
L 3866 3500 
L 1875 0 
L 1100 0 
L 459 3500 
z
" transform="scale(0.015625)"/>
       <path id="DejaVuSans-Oblique-6f" d="M 1625 -91 
Q 1009 -91 651 289 
Q 294 669 294 1325 
Q 294 1706 417 2101 
Q 541 2497 738 2766 
Q 1047 3184 1428 3384 
Q 1809 3584 2291 3584 
Q 2888 3584 3255 3212 
Q 3622 2841 3622 2241 
Q 3622 1825 3500 1412 
Q 3378 1000 3181 728 
Q 2875 309 2494 109 
Q 2113 -91 1625 -91 
z
M 891 1344 
Q 891 869 1089 633 
Q 1288 397 1691 397 
Q 2269 397 2648 901 
Q 3028 1406 3028 2181 
Q 3028 2634 2825 2865 
Q 2622 3097 2228 3097 
Q 1903 3097 1650 2945 
Q 1397 2794 1197 2484 
Q 1050 2253 970 1956 
Q 891 1659 891 1344 
z
" transform="scale(0.015625)"/>
       <path id="DejaVuSans-Oblique-75" d="M 428 1388 
L 838 3500 
L 1416 3500 
L 1006 1409 
Q 975 1256 961 1147 
Q 947 1038 947 966 
Q 947 700 1109 554 
Q 1272 409 1569 409 
Q 2031 409 2368 721 
Q 2706 1034 2809 1563 
L 3194 3500 
L 3769 3500 
L 3091 0 
L 2516 0 
L 2631 550 
Q 2388 244 2052 76 
Q 1716 -91 1338 -91 
Q 878 -91 622 161 
Q 366 413 366 863 
Q 366 956 381 1097 
Q 397 1238 428 1388 
z
" transform="scale(0.015625)"/>
       <path id="DejaVuSans-Oblique-74" d="M 2706 3500 
L 2619 3053 
L 1472 3053 
L 1100 1153 
Q 1081 1047 1072 975 
Q 1063 903 1063 863 
Q 1063 663 1183 572 
Q 1303 481 1569 481 
L 2150 481 
L 2053 0 
L 1503 0 
Q 991 0 739 200 
Q 488 400 488 806 
Q 488 878 497 964 
Q 506 1050 525 1153 
L 897 3053 
L 409 3053 
L 500 3500 
L 978 3500 
L 1172 4494 
L 1747 4494 
L 1556 3500 
L 2706 3500 
z
" transform="scale(0.015625)"/>
      </defs>
      <use xlink:href="#DejaVuSans-Oblique-76" transform="translate(0 0.3125)"/>
      <use xlink:href="#DejaVuSans-Oblique-6f" transform="translate(59.179688 -16.09375)scale(0.7)"/>
      <use xlink:href="#DejaVuSans-Oblique-75" transform="translate(102.006836 -16.09375)scale(0.7)"/>
      <use xlink:href="#DejaVuSans-Oblique-74" transform="translate(146.37207 -16.09375)scale(0.7)"/>
     </g>
    </g>
   </g>
   <g id="text_9">
    <g clip-path="url(#p52945f216e)">
     <!-- $-$ -->
     <g transform="translate(461.1234 179.289219)scale(0.125 -0.125)">
      <defs>
       <path id="DejaVuSans-2212" d="M 678 2272 
L 4684 2272 
L 4684 1741 
L 678 1741 
L 678 2272 
z
" transform="scale(0.015625)"/>
      </defs>
      <use xlink:href="#DejaVuSans-2212" transform="translate(0 0.5)"/>
     </g>
    </g>
   </g>
   <g id="text_10">
    <g clip-path="url(#p52945f216e)">
     <!-- 4.78 nF -->
     <g transform="translate(125.1834 167.049219)scale(0.125 -0.125)">
      <defs>
       <path id="DejaVuSans-37" d="M 525 4666 
L 3525 4666 
L 3525 4397 
L 1831 0 
L 1172 0 
L 2766 4134 
L 525 4134 
L 525 4666 
z
" transform="scale(0.015625)"/>
      </defs>
      <use xlink:href="#DejaVuSans-34"/>
      <use xlink:href="#DejaVuSans-2e" x="63.623047"/>
      <use xlink:href="#DejaVuSans-37" x="95.410156"/>
      <use xlink:href="#DejaVuSans-38" x="159.033203"/>
      <use xlink:href="#DejaVuSans-20" x="222.65625"/>
      <use xlink:href="#DejaVuSans-6e" x="254.443359"/>
      <use xlink:href="#DejaVuSans-46" x="317.822266"/>
     </g>
    </g>
   </g>
   <g id="text_11">
    <g clip-path="url(#p52945f216e)">
     <!-- $V_{in}$ -->
     <g transform="translate(19.5684 168.579219)scale(0.125 -0.125)">
      <defs>
       <path id="DejaVuSans-Oblique-69" d="M 1172 4863 
L 1747 4863 
L 1606 4134 
L 1031 4134 
L 1172 4863 
z
M 909 3500 
L 1484 3500 
L 800 0 
L 225 0 
L 909 3500 
z
" transform="scale(0.015625)"/>
       <path id="DejaVuSans-Oblique-6e" d="M 3566 2113 
L 3156 0 
L 2578 0 
L 2988 2091 
Q 3016 2238 3031 2350 
Q 3047 2463 3047 2528 
Q 3047 2791 2881 2937 
Q 2716 3084 2419 3084 
Q 1956 3084 1622 2776 
Q 1288 2469 1184 1941 
L 800 0 
L 225 0 
L 903 3500 
L 1478 3500 
L 1363 2950 
Q 1603 3253 1940 3418 
Q 2278 3584 2650 3584 
Q 3113 3584 3367 3334 
Q 3622 3084 3622 2631 
Q 3622 2519 3608 2391 
Q 3594 2263 3566 2113 
z
" transform="scale(0.015625)"/>
      </defs>
      <use xlink:href="#DejaVuSans-Oblique-56" transform="translate(0 0.09375)"/>
      <use xlink:href="#DejaVuSans-Oblique-69" transform="translate(68.408203 -16.3125)scale(0.7)"/>
      <use xlink:href="#DejaVuSans-Oblique-6e" transform="translate(87.856445 -16.3125)scale(0.7)"/>
     </g>
    </g>
   </g>
   <g id="patch_12">
    <path d="M 114.4734 141.415 
C 115.082041 141.415 115.665836 141.173184 116.09621 140.74281 
C 116.526584 140.312436 116.7684 139.728641 116.7684 139.12 
C 116.7684 138.511359 116.526584 137.927564 116.09621 137.49719 
C 115.665836 137.066816 115.082041 136.825 114.4734 136.825 
C 113.864759 136.825 113.280964 137.066816 112.85059 137.49719 
C 112.420216 137.927564 112.1784 138.511359 112.1784 139.12 
C 112.1784 139.728641 112.420216 140.312436 112.85059 140.74281 
C 113.280964 141.173184 113.864759 141.415 114.4734 141.415 
z
" clip-path="url(#p52945f216e)" style="stroke: #000000; stroke-width: 2; stroke-linejoin: miter"/>
   </g>
   <g id="patch_13">
    <path d="M 466.3734 141.415 
C 466.982041 141.415 467.565836 141.173184 467.99621 140.74281 
C 468.426584 140.312436 468.6684 139.728641 468.6684 139.12 
C 468.6684 138.511359 468.426584 137.927564 467.99621 137.49719 
C 467.565836 137.066816 466.982041 136.825 466.3734 136.825 
C 465.764759 136.825 465.180964 137.066816 464.75059 137.49719 
C 464.320216 137.927564 464.0784 138.511359 464.0784 139.12 
C 464.0784 139.728641 464.320216 140.312436 464.75059 140.74281 
C 465.180964 141.173184 465.764759 141.415 466.3734 141.415 
z
" clip-path="url(#p52945f216e)" style="fill: #ffffff; stroke: #000000; stroke-width: 2; stroke-linejoin: miter"/>
   </g>
   <g id="patch_14">
    <path d="M 466.3734 190.375 
C 466.982041 190.375 467.565836 190.133184 467.99621 189.70281 
C 468.426584 189.272436 468.6684 188.688641 468.6684 188.08 
C 468.6684 187.471359 468.426584 186.887564 467.99621 186.45719 
C 467.565836 186.026816 466.982041 185.785 466.3734 185.785 
C 465.764759 185.785 465.180964 186.026816 464.75059 186.45719 
C 464.320216 186.887564 464.0784 187.471359 464.0784 188.08 
C 464.0784 188.688641 464.320216 189.272436 464.75059 189.70281 
C 465.180964 190.133184 465.764759 190.375 466.3734 190.375 
z
" clip-path="url(#p52945f216e)" style="fill: #ffffff; stroke: #000000; stroke-width: 2; stroke-linejoin: miter"/>
   </g>
   <g id="patch_15">
    <path d="M 114.4734 190.375 
C 115.082041 190.375 115.665836 190.133184 116.09621 189.70281 
C 116.526584 189.272436 116.7684 188.688641 116.7684 188.08 
C 116.7684 187.471359 116.526584 186.887564 116.09621 186.45719 
C 115.665836 186.026816 115.082041 185.785 114.4734 185.785 
C 113.864759 185.785 113.280964 186.026816 112.85059 186.45719 
C 112.420216 186.887564 112.1784 187.471359 112.1784 188.08 
C 112.1784 188.688641 112.420216 189.272436 112.85059 189.70281 
C 113.280964 190.133184 113.864759 190.375 114.4734 190.375 
z
" clip-path="url(#p52945f216e)" style="stroke: #000000; stroke-width: 2; stroke-linejoin: miter"/>
   </g>
   <g id="patch_16">
    <path d="M 39.5034 167.425 
C 40.112041 167.425 40.695836 167.183184 41.12621 166.75281 
C 41.556584 166.322436 41.7984 165.738641 41.7984 165.13 
C 41.7984 164.521359 41.556584 163.937564 41.12621 163.50719 
C 40.695836 163.076816 40.112041 162.835 39.5034 162.835 
C 38.894759 162.835 38.310964 163.076816 37.88059 163.50719 
C 37.450216 163.937564 37.2084 164.521359 37.2084 165.13 
C 37.2084 165.738641 37.450216 166.322436 37.88059 166.75281 
C 38.310964 167.183184 38.894759 167.425 39.5034 167.425 
z
" clip-path="url(#p52945f216e)" style="fill: #ffffff; stroke: #000000; stroke-width: 2; stroke-linejoin: miter"/>
   </g>
  </g>
 </g>
 <defs>
  <clipPath id="p52945f216e">
   <rect x="7.2" y="7.2" width="487.3968" height="203.524"/>
  </clipPath>
 </defs>
</svg>
