<?xml version="1.0" encoding="utf-8" standalone="no"?>
<!DOCTYPE svg PUBLIC "-//W3C//DTD SVG 1.1//EN"
  "http://www.w3.org/Graphics/SVG/1.1/DTD/svg11.dtd">
<!-- Created with matplotlib (https://matplotlib.org/) -->
<svg height="139.791427pt" version="1.1" viewBox="0 0 256.02 139.791427" width="256.02pt" xmlns="http://www.w3.org/2000/svg" xmlns:xlink="http://www.w3.org/1999/xlink">
 <metadata>
  <rdf:RDF xmlns:cc="http://creativecommons.org/ns#" xmlns:dc="http://purl.org/dc/elements/1.1/" xmlns:rdf="http://www.w3.org/1999/02/22-rdf-syntax-ns#">
   <cc:Work>
    <dc:type rdf:resource="http://purl.org/dc/dcmitype/StillImage"/>
    <dc:date>2020-10-04T12:57:27.887121</dc:date>
    <dc:format>image/svg+xml</dc:format>
    <dc:creator>
     <cc:Agent>
      <dc:title>Matplotlib v3.3.2, https://matplotlib.org/</dc:title>
     </cc:Agent>
    </dc:creator>
   </cc:Work>
  </rdf:RDF>
 </metadata>
 <defs>
  <style type="text/css">*{stroke-linecap:butt;stroke-linejoin:round;}</style>
 </defs>
 <g id="figure_1">
  <g id="patch_1">
   <path d="M 0 139.791427 
L 256.02 139.791427 
L 256.02 0 
L 0 0 
z
" style="fill:none;"/>
  </g>
  <g id="axes_1">
   <g id="line2d_1">
    <path clip-path="url(#p24884ff5c2)" d="M 223.47 35.436427 
L 223.47 66.036427 
M 223.47 96.636427 
L 223.47 127.236427 
" style="fill:none;stroke:#ffffff;stroke-linecap:round;stroke-width:2;"/>
   </g>
   <g id="text_1">
    <!-- - -->
    <g transform="translate(233.904531 62.249552)scale(0.14 -0.14)">
     <defs>
      <path d="M 4.890625 31.390625 
L 31.203125 31.390625 
L 31.203125 23.390625 
L 4.890625 23.390625 
z
" id="DejaVuSans-45"/>
     </defs>
     <use xlink:href="#DejaVuSans-45"/>
    </g>
   </g>
   <g id="text_2">
    <!-- $v_{out}$ -->
    <g transform="translate(224.04 85.199552)scale(0.14 -0.14)">
     <defs>
      <path d="M 7.171875 54.6875 
L 16.703125 54.6875 
L 24.703125 8.203125 
L 50.875 54.6875 
L 60.40625 54.6875 
L 29.296875 0 
L 17.1875 0 
z
" id="DejaVuSans-Oblique-118"/>
      <path d="M 25.390625 -1.421875 
Q 15.765625 -1.421875 10.171875 4.515625 
Q 4.59375 10.453125 4.59375 20.703125 
Q 4.59375 26.65625 6.515625 32.828125 
Q 8.453125 39.015625 11.53125 43.21875 
Q 16.359375 49.75 22.3125 52.875 
Q 28.265625 56 35.796875 56 
Q 45.125 56 50.859375 50.1875 
Q 56.59375 44.390625 56.59375 35.015625 
Q 56.59375 28.515625 54.6875 22.0625 
Q 52.78125 15.625 49.703125 11.375 
Q 44.921875 4.828125 38.96875 1.703125 
Q 33.015625 -1.421875 25.390625 -1.421875 
z
M 13.921875 21 
Q 13.921875 13.578125 17.015625 9.890625 
Q 20.125 6.203125 26.421875 6.203125 
Q 35.453125 6.203125 41.375 14.078125 
Q 47.3125 21.96875 47.3125 34.078125 
Q 47.3125 41.15625 44.140625 44.765625 
Q 40.96875 48.390625 34.8125 48.390625 
Q 29.734375 48.390625 25.78125 46.015625 
Q 21.828125 43.65625 18.703125 38.8125 
Q 16.40625 35.203125 15.15625 30.5625 
Q 13.921875 25.921875 13.921875 21 
z
" id="DejaVuSans-Oblique-111"/>
      <path d="M 6.6875 21.6875 
L 13.09375 54.6875 
L 22.125 54.6875 
L 15.71875 22.015625 
Q 15.234375 19.625 15.015625 17.921875 
Q 14.796875 16.21875 14.796875 15.09375 
Q 14.796875 10.9375 17.328125 8.65625 
Q 19.875 6.390625 24.515625 6.390625 
Q 31.734375 6.390625 37 11.265625 
Q 42.28125 16.15625 43.890625 24.421875 
L 49.90625 54.6875 
L 58.890625 54.6875 
L 48.296875 0 
L 39.3125 0 
L 41.109375 8.59375 
Q 37.3125 3.8125 32.0625 1.1875 
Q 26.8125 -1.421875 20.90625 -1.421875 
Q 13.71875 -1.421875 9.71875 2.515625 
Q 5.71875 6.453125 5.71875 13.484375 
Q 5.71875 14.9375 5.953125 17.140625 
Q 6.203125 19.34375 6.6875 21.6875 
z
" id="DejaVuSans-Oblique-117"/>
      <path d="M 42.28125 54.6875 
L 40.921875 47.703125 
L 23 47.703125 
L 17.1875 18.015625 
Q 16.890625 16.359375 16.75 15.234375 
Q 16.609375 14.109375 16.609375 13.484375 
Q 16.609375 10.359375 18.484375 8.9375 
Q 20.359375 7.515625 24.515625 7.515625 
L 33.59375 7.515625 
L 32.078125 0 
L 23.484375 0 
Q 15.484375 0 11.546875 3.125 
Q 7.625 6.25 7.625 12.59375 
Q 7.625 13.71875 7.765625 15.0625 
Q 7.90625 16.40625 8.203125 18.015625 
L 14.015625 47.703125 
L 6.390625 47.703125 
L 7.8125 54.6875 
L 15.28125 54.6875 
L 18.3125 70.21875 
L 27.296875 70.21875 
L 24.3125 54.6875 
z
" id="DejaVuSans-Oblique-116"/>
     </defs>
     <use transform="translate(0 0.3125)" xlink:href="#DejaVuSans-Oblique-118"/>
     <use transform="translate(59.179688 -16.09375)scale(0.7)" xlink:href="#DejaVuSans-Oblique-111"/>
     <use transform="translate(102.006836 -16.09375)scale(0.7)" xlink:href="#DejaVuSans-Oblique-117"/>
     <use transform="translate(146.37207 -16.09375)scale(0.7)" xlink:href="#DejaVuSans-Oblique-116"/>
    </g>
   </g>
   <g id="text_3">
    <!-- $+$ -->
    <g transform="translate(230.55 108.149552)scale(0.14 -0.14)">
     <defs>
      <path d="M 46 62.703125 
L 46 35.5 
L 73.1875 35.5 
L 73.1875 27.203125 
L 46 27.203125 
L 46 0 
L 37.796875 0 
L 37.796875 27.203125 
L 10.59375 27.203125 
L 10.59375 35.5 
L 37.796875 35.5 
L 37.796875 62.703125 
z
" id="DejaVuSans-43"/>
     </defs>
     <use transform="translate(0 0.296875)" xlink:href="#DejaVuSans-43"/>
    </g>
   </g>
   <g id="line2d_2">
    <path clip-path="url(#p24884ff5c2)" d="M 12.87 35.436427 
L 58.554 35.436427 
M 58.554 27.786427 
L 58.554 43.086427 
M 64.386 27.786427 
L 64.386 43.086427 
M 64.386 35.436427 
L 110.07 35.436427 
" style="fill:none;stroke:#000000;stroke-linecap:round;stroke-width:2;"/>
   </g>
   <g id="line2d_3">
    <path clip-path="url(#p24884ff5c2)" d="M 110.07 35.436427 
L 142.47 35.436427 
L 142.590663 32.916868 
L 142.957584 30.374586 
L 143.562601 28.022797 
L 144.377584 26.058744 
L 145.356792 24.647146 
L 145.889791 24.187628 
L 146.440712 23.906395 
L 147.000786 23.809375 
L 147.561048 23.898614 
L 148.112531 24.17223 
L 148.64645 24.624457 
L 149.154395 25.245761 
L 150.061611 26.939932 
L 150.780702 29.112657 
L 151.273972 31.581711 
L 151.52266 34.140019 
L 151.528521 36.573019 
L 151.313675 38.67666 
L 150.918751 40.274513 
L 150.399483 41.232567 
L 150.113635 41.444247 
L 149.822031 41.470473 
L 149.533658 41.310694 
L 149.257437 40.968278 
L 148.775663 39.768099 
L 148.439727 37.970595 
L 148.300413 35.726518 
L 148.392017 33.224077 
L 148.729467 30.673147 
L 149.307073 28.287671 
L 150.099004 26.267715 
L 151.061451 24.78269 
L 151.588892 24.281765 
L 152.136308 23.957142 
L 152.695002 23.815662 
L 153.256039 23.860309 
L 153.810434 24.09014 
L 154.349344 24.500312 
L 154.864251 25.082179 
L 155.347142 25.823475 
L 156.188359 27.718827 
L 156.825054 30.027407 
L 157.226441 32.555597 
L 157.381467 35.091364 
L 157.299741 37.422035 
L 157.010728 39.352141 
L 156.561279 40.719807 
L 156.011699 41.410329 
L 155.720656 41.481177 
L 155.430692 41.365793 
L 155.150758 41.066611 
L 154.655554 39.945815 
L 154.299189 38.212789 
L 154.134161 36.012878 
L 154.196922 33.530586 
L 154.504819 30.974099 
L 155.054641 28.557825 
L 155.822886 26.484414 
L 156.767734 24.927759 
L 157.289142 24.386035 
L 157.832552 24.018415 
L 158.389352 23.832647 
L 158.950648 23.832647 
L 159.507448 24.018415 
L 160.050858 24.386035 
L 160.572266 24.927759 
L 161.063522 25.632168 
L 161.926321 27.466533 
L 162.589502 29.735286 
L 163.020058 32.24815 
L 163.20449 34.794375 
L 163.14994 37.160412 
L 162.883595 39.147826 
L 162.450404 40.589936 
L 161.909308 41.365793 
L 161.619344 41.481177 
L 161.328301 41.410329 
L 161.045157 41.154743 
L 160.53745 40.114688 
L 160.161415 38.448239 
L 159.971199 36.295159 
L 160.005368 33.836023 
L 160.283666 31.277076 
L 160.805364 28.832931 
L 161.54932 26.708577 
L 162.475749 25.082179 
L 162.990656 24.500312 
L 163.529566 24.09014 
L 164.083961 23.860309 
L 164.644998 23.815662 
L 165.203692 23.957142 
L 165.751108 24.281765 
L 166.278549 24.78269 
L 166.777739 25.449357 
L 167.661399 27.220514 
L 168.35059 29.446692 
L 168.810119 31.941185 
L 169.02406 34.494783 
L 168.997079 36.89332 
L 168.754052 38.935635 
L 168.33797 40.450441 
L 167.806342 41.310694 
L 167.517969 41.470473 
L 167.226365 41.444247 
L 166.940517 41.232567 
L 166.669292 40.839897 
L 166.204456 39.548332 
L 165.893452 37.677872 
L 165.784975 35.38539 
L 165.910734 32.863154 
L 166.282792 30.322699 
L 166.892558 27.977089 
L 167.711501 26.023048 
L 168.69355 24.624457 
L 169.227469 24.17223 
L 169.778952 23.898614 
L 170.339214 23.809375 
L 170.899288 23.906395 
L 171.450209 24.187628 
L 171.983208 24.647146 
L 172.489889 25.275265 
L 173.393669 26.981068 
L 174.10836 29.161974 
L 174.596633 31.635074 
L 174.84015 34.192952 
L 174.87 35.436427 
L 207.27 35.436427 
L 207.27 35.436427 
" style="fill:none;stroke:#000000;stroke-linecap:round;stroke-width:2;"/>
   </g>
   <g id="line2d_4">
    <path clip-path="url(#p24884ff5c2)" d="M 207.27 35.436427 
L 207.27 66.036427 
L 215.37 68.586427 
L 199.17 73.686427 
L 215.37 78.786427 
L 199.17 83.886427 
L 215.37 88.986427 
L 199.17 94.086427 
L 207.27 96.636427 
L 207.27 127.236427 
" style="fill:none;stroke:#000000;stroke-linecap:round;stroke-width:2;"/>
   </g>
   <g id="line2d_5">
    <path clip-path="url(#p24884ff5c2)" d="M 207.27 35.436427 
L 215.37 35.436427 
L 223.47 35.436427 
" style="fill:none;stroke:#000000;stroke-linecap:round;stroke-width:2;"/>
   </g>
   <g id="line2d_6">
    <path clip-path="url(#p24884ff5c2)" d="M 207.27 127.236427 
L 215.37 127.236427 
L 223.47 127.236427 
" style="fill:none;stroke:#000000;stroke-linecap:round;stroke-width:2;"/>
   </g>
   <g id="line2d_7">
    <path clip-path="url(#p24884ff5c2)" d="M 207.27 127.236427 
L 110.07 127.236427 
L 12.87 127.236427 
" style="fill:none;stroke:#000000;stroke-linecap:round;stroke-width:2;"/>
   </g>
   <g id="text_4">
    <!-- $C_1$ -->
    <g transform="translate(53.21 21.814864)scale(0.14 -0.14)">
     <defs>
      <path d="M 69.484375 67.28125 
L 67.484375 56.890625 
Q 62.796875 61.625 57.546875 63.921875 
Q 52.296875 66.21875 46.1875 66.21875 
Q 37.84375 66.21875 31.515625 62.203125 
Q 25.203125 58.203125 20.609375 50 
Q 17.671875 44.734375 16.125 38.84375 
Q 14.59375 32.953125 14.59375 27 
Q 14.59375 17.046875 19.75 11.8125 
Q 24.90625 6.59375 34.71875 6.59375 
Q 41.5 6.59375 47.75 8.765625 
Q 54 10.9375 59.90625 15.28125 
L 57.625 3.609375 
Q 51.8125 1.125 45.875 -0.140625 
Q 39.9375 -1.421875 33.984375 -1.421875 
Q 19.96875 -1.421875 12.078125 6.1875 
Q 4.203125 13.8125 4.203125 27.390625 
Q 4.203125 36.078125 7.203125 44.46875 
Q 10.203125 52.875 15.828125 59.8125 
Q 21.78125 67.1875 29.421875 70.703125 
Q 37.0625 74.21875 47.21875 74.21875 
Q 53.46875 74.21875 59.0625 72.484375 
Q 64.65625 70.75 69.484375 67.28125 
z
" id="DejaVuSans-Oblique-67"/>
      <path d="M 12.40625 8.296875 
L 28.515625 8.296875 
L 28.515625 63.921875 
L 10.984375 60.40625 
L 10.984375 69.390625 
L 28.421875 72.90625 
L 38.28125 72.90625 
L 38.28125 8.296875 
L 54.390625 8.296875 
L 54.390625 0 
L 12.40625 0 
z
" id="DejaVuSans-49"/>
     </defs>
     <use transform="translate(0 0.78125)" xlink:href="#DejaVuSans-Oblique-67"/>
     <use transform="translate(69.824219 -15.625)scale(0.7)" xlink:href="#DejaVuSans-49"/>
    </g>
   </g>
   <g id="text_5">
    <!-- $L_1$ -->
    <g transform="translate(151.46 17.837812)scale(0.14 -0.14)">
     <defs>
      <path d="M 16.796875 72.90625 
L 26.703125 72.90625 
L 14.203125 8.203125 
L 49.703125 8.203125 
L 48.09375 0 
L 2.6875 0 
z
" id="DejaVuSans-Oblique-76"/>
     </defs>
     <use transform="translate(0 0.09375)" xlink:href="#DejaVuSans-Oblique-76"/>
     <use transform="translate(55.712891 -16.3125)scale(0.7)" xlink:href="#DejaVuSans-49"/>
    </g>
   </g>
   <g id="text_6">
    <!-- $R_L$ -->
    <g transform="translate(180.25 85.199552)scale(0.14 -0.14)">
     <defs>
      <path d="M 25.203125 64.796875 
L 20.21875 38.921875 
L 32.90625 38.921875 
Q 40.375 38.921875 44.984375 43.046875 
Q 49.609375 47.171875 49.609375 53.8125 
Q 49.609375 59.125 46.5 61.953125 
Q 43.40625 64.796875 37.59375 64.796875 
z
M 43.3125 35.015625 
Q 46.4375 34.28125 48.515625 31.390625 
Q 50.59375 28.515625 53.328125 19.921875 
L 59.515625 0 
L 49.125 0 
L 43.40625 18.703125 
Q 41.21875 25.921875 38.328125 28.359375 
Q 35.453125 30.8125 29.5 30.8125 
L 18.609375 30.8125 
L 12.59375 0 
L 2.6875 0 
L 16.890625 72.90625 
L 39.109375 72.90625 
Q 49.21875 72.90625 54.609375 68.328125 
Q 60.015625 63.765625 60.015625 55.171875 
Q 60.015625 47.5625 55.421875 41.984375 
Q 50.828125 36.421875 43.3125 35.015625 
z
" id="DejaVuSans-Oblique-82"/>
     </defs>
     <use transform="translate(0 0.09375)" xlink:href="#DejaVuSans-Oblique-82"/>
     <use transform="translate(69.482422 -16.3125)scale(0.7)" xlink:href="#DejaVuSans-Oblique-76"/>
    </g>
   </g>
   <g id="patch_2">
    <path clip-path="url(#p24884ff5c2)" d="M 12.87 37.731427 
C 13.514444 37.731427 14.132579 37.489611 14.588269 37.059237 
C 15.04396 36.628863 15.3 36.045068 15.3 35.436427 
C 15.3 34.827786 15.04396 34.243991 14.588269 33.813617 
C 14.132579 33.383242 13.514444 33.141427 12.87 33.141427 
C 12.225556 33.141427 11.607421 33.383242 11.151731 33.813617 
C 10.69604 34.243991 10.44 34.827786 10.44 35.436427 
C 10.44 36.045068 10.69604 36.628863 11.151731 37.059237 
C 11.607421 37.489611 12.225556 37.731427 12.87 37.731427 
z
" style="stroke:#000000;stroke-linejoin:miter;stroke-width:2;"/>
   </g>
   <g id="patch_3">
    <path clip-path="url(#p24884ff5c2)" d="M 223.47 37.731427 
C 224.114444 37.731427 224.732579 37.489611 225.188269 37.059237 
C 225.64396 36.628863 225.9 36.045068 225.9 35.436427 
C 225.9 34.827786 225.64396 34.243991 225.188269 33.813617 
C 224.732579 33.383242 224.114444 33.141427 223.47 33.141427 
C 222.825556 33.141427 222.207421 33.383242 221.751731 33.813617 
C 221.29604 34.243991 221.04 34.827786 221.04 35.436427 
C 221.04 36.045068 221.29604 36.628863 221.751731 37.059237 
C 222.207421 37.489611 222.825556 37.731427 223.47 37.731427 
z
" style="fill:#ffffff;stroke:#000000;stroke-linejoin:miter;stroke-width:2;"/>
   </g>
   <g id="patch_4">
    <path clip-path="url(#p24884ff5c2)" d="M 223.47 129.531427 
C 224.114444 129.531427 224.732579 129.289611 225.188269 128.859237 
C 225.64396 128.428863 225.9 127.845068 225.9 127.236427 
C 225.9 126.627786 225.64396 126.043991 225.188269 125.613617 
C 224.732579 125.183242 224.114444 124.941427 223.47 124.941427 
C 222.825556 124.941427 222.207421 125.183242 221.751731 125.613617 
C 221.29604 126.043991 221.04 126.627786 221.04 127.236427 
C 221.04 127.845068 221.29604 128.428863 221.751731 128.859237 
C 222.207421 129.289611 222.825556 129.531427 223.47 129.531427 
z
" style="fill:#ffffff;stroke:#000000;stroke-linejoin:miter;stroke-width:2;"/>
   </g>
   <g id="patch_5">
    <path clip-path="url(#p24884ff5c2)" d="M 12.87 129.531427 
C 13.514444 129.531427 14.132579 129.289611 14.588269 128.859237 
C 15.04396 128.428863 15.3 127.845068 15.3 127.236427 
C 15.3 126.627786 15.04396 126.043991 14.588269 125.613617 
C 14.132579 125.183242 13.514444 124.941427 12.87 124.941427 
C 12.225556 124.941427 11.607421 125.183242 11.151731 125.613617 
C 10.69604 126.043991 10.44 126.627786 10.44 127.236427 
C 10.44 127.845068 10.69604 128.428863 11.151731 128.859237 
C 11.607421 129.289611 12.225556 129.531427 12.87 129.531427 
z
" style="stroke:#000000;stroke-linejoin:miter;stroke-width:2;"/>
   </g>
  </g>
 </g>
 <defs>
  <clipPath id="p24884ff5c2">
   <rect height="111.842052" width="221.94" x="7.2" y="20.749375"/>
  </clipPath>
 </defs>
</svg>
