<?xml version="1.0" encoding="utf-8" standalone="no"?>
<!DOCTYPE svg PUBLIC "-//W3C//DTD SVG 1.1//EN"
  "http://www.w3.org/Graphics/SVG/1.1/DTD/svg11.dtd">
<!-- Created with matplotlib (https://matplotlib.org/) -->
<svg height="249.797pt" version="1.1" viewBox="0 0 330.864 249.797" width="330.864pt" xmlns="http://www.w3.org/2000/svg" xmlns:xlink="http://www.w3.org/1999/xlink">
 <metadata>
  <rdf:RDF xmlns:cc="http://creativecommons.org/ns#" xmlns:dc="http://purl.org/dc/elements/1.1/" xmlns:rdf="http://www.w3.org/1999/02/22-rdf-syntax-ns#">
   <cc:Work>
    <dc:type rdf:resource="http://purl.org/dc/dcmitype/StillImage"/>
    <dc:date>2020-09-19T15:49:36.476545</dc:date>
    <dc:format>image/svg+xml</dc:format>
    <dc:creator>
     <cc:Agent>
      <dc:title>Matplotlib v3.3.2, https://matplotlib.org/</dc:title>
     </cc:Agent>
    </dc:creator>
   </cc:Work>
  </rdf:RDF>
 </metadata>
 <defs>
  <style type="text/css">*{stroke-linecap:butt;stroke-linejoin:round;}</style>
 </defs>
 <g id="figure_1">
  <g id="patch_1">
   <path d="M 0 249.797 
L 330.864 249.797 
L 330.864 0 
L 0 0 
z
" style="fill:none;"/>
  </g>
  <g id="axes_1">
   <g id="patch_2">
    <path clip-path="url(#p1708834d43)" d="M 160.074 189.761 
L 153.045453 188.101482 
L 155.143474 185.789773 
L 147.589457 179.674617 
L 147.610543 179.651383 
L 155.16456 185.76654 
L 157.262581 183.454832 
z
" style="stroke:#000000;stroke-linejoin:miter;stroke-width:2;"/>
   </g>
   <g id="patch_3">
    <path clip-path="url(#p1708834d43)" d="M 38.52 204.653 
C 40.668145 204.653 42.728597 203.846948 44.247565 202.412367 
C 45.766533 200.977786 46.62 199.031804 46.62 197.003 
C 46.62 194.974196 45.766533 193.028214 44.247565 191.593633 
C 42.728597 190.159052 40.668145 189.353 38.52 189.353 
C 36.371855 189.353 34.311403 190.159052 32.792435 191.593633 
C 31.273467 193.028214 30.42 194.974196 30.42 197.003 
C 30.42 199.031804 31.273467 200.977786 32.792435 202.412367 
C 34.311403 203.846948 36.371855 204.653 38.52 204.653 
z
" style="fill:none;stroke:#000000;stroke-linejoin:miter;stroke-width:2;"/>
   </g>
   <g id="patch_4">
    <path clip-path="url(#p1708834d43)" d="M 200.574 68.585 
C 202.291944 68.585 203.941282 67.939776 205.156052 66.792494 
C 206.370822 65.645211 207.054 64.087502 207.054 62.465 
C 207.054 60.842498 206.370822 59.284789 205.156052 58.137506 
C 203.941282 56.990224 202.291944 56.345 200.574 56.345 
" style="fill:none;stroke:#000000;stroke-linejoin:miter;stroke-width:2;"/>
   </g>
   <g id="patch_5">
    <path clip-path="url(#p1708834d43)" d="M 200.574 80.825 
C 202.291944 80.825 203.941282 80.179776 205.156052 79.032494 
C 206.370822 77.885211 207.054 76.327502 207.054 74.705 
C 207.054 73.082498 206.370822 71.524789 205.156052 70.377506 
C 203.941282 69.230224 202.291944 68.585 200.574 68.585 
" style="fill:none;stroke:#000000;stroke-linejoin:miter;stroke-width:2;"/>
   </g>
   <g id="patch_6">
    <path clip-path="url(#p1708834d43)" d="M 200.574 93.065 
C 202.291944 93.065 203.941282 92.419776 205.156052 91.272494 
C 206.370822 90.125211 207.054 88.567502 207.054 86.945 
C 207.054 85.322498 206.370822 83.764789 205.156052 82.617506 
C 203.941282 81.470224 202.291944 80.825 200.574 80.825 
" style="fill:none;stroke:#000000;stroke-linejoin:miter;stroke-width:2;"/>
   </g>
   <g id="patch_7">
    <path clip-path="url(#p1708834d43)" d="M 200.574 105.305 
C 202.291944 105.305 203.941282 104.659776 205.156052 103.512494 
C 206.370822 102.365211 207.054 100.807502 207.054 99.185 
C 207.054 97.562498 206.370822 96.004789 205.156052 94.857506 
C 203.941282 93.710224 202.291944 93.065 200.574 93.065 
" style="fill:none;stroke:#000000;stroke-linejoin:miter;stroke-width:2;"/>
   </g>
   <g id="patch_8">
    <path clip-path="url(#p1708834d43)" d="M 200.574 117.545 
C 202.291944 117.545 203.941282 116.899776 205.156052 115.752494 
C 206.370822 114.605211 207.054 113.047502 207.054 111.425 
C 207.054 109.802498 206.370822 108.244789 205.156052 107.097506 
C 203.941282 105.950224 202.291944 105.305 200.574 105.305 
" style="fill:none;stroke:#000000;stroke-linejoin:miter;stroke-width:2;"/>
   </g>
   <g id="patch_9">
    <path clip-path="url(#p1708834d43)" d="M 200.574 129.785 
C 202.291944 129.785 203.941282 129.139776 205.156052 127.992494 
C 206.370822 126.845211 207.054 125.287502 207.054 123.665 
C 207.054 122.042498 206.370822 120.484789 205.156052 119.337506 
C 203.941282 118.190224 202.291944 117.545 200.574 117.545 
" style="fill:none;stroke:#000000;stroke-linejoin:miter;stroke-width:2;"/>
   </g>
   <g id="patch_10">
    <path clip-path="url(#p1708834d43)" d="M 232.974 68.585 
C 231.256056 68.585 229.606718 69.230224 228.391948 70.377506 
C 227.177178 71.524789 226.494 73.082498 226.494 74.705 
C 226.494 76.327502 227.177178 77.885211 228.391948 79.032494 
C 229.606718 80.179776 231.256056 80.825 232.974 80.825 
" style="fill:none;stroke:#000000;stroke-linejoin:miter;stroke-width:2;"/>
   </g>
   <g id="patch_11">
    <path clip-path="url(#p1708834d43)" d="M 232.974 80.825 
C 231.256056 80.825 229.606718 81.470224 228.391948 82.617506 
C 227.177178 83.764789 226.494 85.322498 226.494 86.945 
C 226.494 88.567502 227.177178 90.125211 228.391948 91.272494 
C 229.606718 92.419776 231.256056 93.065 232.974 93.065 
" style="fill:none;stroke:#000000;stroke-linejoin:miter;stroke-width:2;"/>
   </g>
   <g id="patch_12">
    <path clip-path="url(#p1708834d43)" d="M 232.974 93.065 
C 231.256056 93.065 229.606718 93.710224 228.391948 94.857506 
C 227.177178 96.004789 226.494 97.562498 226.494 99.185 
C 226.494 100.807502 227.177178 102.365211 228.391948 103.512494 
C 229.606718 104.659776 231.256056 105.305 232.974 105.305 
" style="fill:none;stroke:#000000;stroke-linejoin:miter;stroke-width:2;"/>
   </g>
   <g id="patch_13">
    <path clip-path="url(#p1708834d43)" d="M 232.974 105.305 
C 231.256056 105.305 229.606718 105.950224 228.391948 107.097506 
C 227.177178 108.244789 226.494 109.802498 226.494 111.425 
C 226.494 113.047502 227.177178 114.605211 228.391948 115.752494 
C 229.606718 116.899776 231.256056 117.545 232.974 117.545 
" style="fill:none;stroke:#000000;stroke-linejoin:miter;stroke-width:2;"/>
   </g>
   <g id="line2d_1">
    <path clip-path="url(#p1708834d43)" d="M 135.72 174.053 
L 147.6 174.053 
" style="fill:none;stroke:#000000;stroke-linecap:round;stroke-width:2;"/>
   </g>
   <g id="line2d_2">
    <path clip-path="url(#p1708834d43)" d="M 147.6 162.833 
L 147.6 185.273 
" style="fill:none;stroke:#000000;stroke-linecap:round;stroke-width:2;"/>
   </g>
   <g id="line2d_3">
    <path clip-path="url(#p1708834d43)" d="M 147.6 168.443 
L 160.074 158.345 
L 160.074 152.735 
" style="fill:none;stroke:#000000;stroke-linecap:round;stroke-width:2;"/>
   </g>
   <g id="line2d_4">
    <path clip-path="url(#p1708834d43)" d="M 147.6 179.663 
L 160.074 189.761 
L 160.074 195.371 
" style="fill:none;stroke:#000000;stroke-linecap:round;stroke-width:2;"/>
   </g>
   <g id="line2d_5">
    <path clip-path="url(#p1708834d43)" d="M 135.72 174.053 
L 103.32 174.053 
L 100.62 181.703 
L 95.22 166.403 
L 89.82 181.703 
L 84.42 166.403 
L 79.02 181.703 
L 73.62 166.403 
L 70.92 174.053 
L 38.52 174.053 
" style="fill:none;stroke:#000000;stroke-linecap:round;stroke-width:2;"/>
   </g>
   <g id="line2d_6">
    <path clip-path="url(#p1708834d43)" d="M 38.52 174.053 
L 38.52 189.353 
L 38.52 189.353 
M 38.52 204.653 
L 38.52 204.653 
L 38.52 219.953 
" style="fill:none;stroke:#000000;stroke-linecap:round;stroke-width:2;"/>
   </g>
   <g id="line2d_7">
    <path clip-path="url(#p1708834d43)" d="M 36.9 193.178 
L 40.14 193.178 
" style="fill:none;stroke:#000000;stroke-linecap:round;stroke-width:2;"/>
   </g>
   <g id="line2d_8">
    <path clip-path="url(#p1708834d43)" d="M 38.52 199.298 
L 38.52 202.358 
" style="fill:none;stroke:#000000;stroke-linecap:round;stroke-width:2;"/>
   </g>
   <g id="line2d_9">
    <path clip-path="url(#p1708834d43)" d="M 36.9 200.828 
L 40.14 200.828 
" style="fill:none;stroke:#000000;stroke-linecap:round;stroke-width:2;"/>
   </g>
   <g id="line2d_10">
    <path clip-path="url(#p1708834d43)" d="M 38.52 219.953 
L 99.297 219.953 
L 160.074 219.953 
" style="fill:none;stroke:#000000;stroke-linecap:round;stroke-width:2;"/>
   </g>
   <g id="line2d_11">
    <path clip-path="url(#p1708834d43)" d="M 160.074 219.953 
L 160.074 232.193 
L 151.974 232.193 
L 168.174 232.193 
M 154.404 235.865 
L 165.744 235.865 
M 158.454 239.537 
L 161.694 239.537 
" style="fill:none;stroke:#000000;stroke-linecap:round;stroke-width:2;"/>
   </g>
   <g id="line2d_12">
    <path clip-path="url(#p1708834d43)" d="M 160.074 219.953 
L 160.074 207.662 
L 160.074 195.371 
" style="fill:none;stroke:#000000;stroke-linecap:round;stroke-width:2;"/>
   </g>
   <g id="line2d_13">
    <path clip-path="url(#p1708834d43)" d="M 160.074 152.735 
L 160.074 141.26 
L 160.074 129.785 
" style="fill:none;stroke:#000000;stroke-linecap:round;stroke-width:2;"/>
   </g>
   <g id="line2d_14">
    <path clip-path="url(#p1708834d43)" d="M 160.074 129.785 
L 160.074 86.639 
M 151.974 86.639 
L 168.174 86.639 
M 151.974 81.131 
L 168.174 81.131 
M 160.074 81.131 
L 160.074 37.985 
" style="fill:none;stroke:#000000;stroke-linecap:round;stroke-width:2;"/>
   </g>
   <g id="line2d_15">
    <path clip-path="url(#p1708834d43)" d="M 160.074 129.785 
L 180.324 129.785 
L 200.574 129.785 
" style="fill:none;stroke:#000000;stroke-linecap:round;stroke-width:2;"/>
   </g>
   <g id="line2d_16">
    <path clip-path="url(#p1708834d43)" d="M 213.534 56.345 
L 213.534 129.785 
" style="fill:none;stroke:#000000;stroke-linecap:round;stroke-width:2;"/>
   </g>
   <g id="line2d_17">
    <path clip-path="url(#p1708834d43)" d="M 220.014 56.345 
L 220.014 129.785 
" style="fill:none;stroke:#000000;stroke-linecap:round;stroke-width:2;"/>
   </g>
   <g id="line2d_18">
    <path clip-path="url(#p1708834d43)" d="M 200.574 56.345 
L 180.324 56.345 
L 160.074 56.345 
" style="fill:none;stroke:#000000;stroke-linecap:round;stroke-width:2;"/>
   </g>
   <g id="line2d_19">
    <path clip-path="url(#p1708834d43)" d="M 232.974 68.585 
L 261.324 68.585 
L 289.674 68.585 
" style="fill:none;stroke:#000000;stroke-linecap:round;stroke-width:2;"/>
   </g>
   <g id="line2d_20">
    <path clip-path="url(#p1708834d43)" d="M 232.974 117.545 
L 245.124 117.545 
L 257.274 117.545 
" style="fill:none;stroke:#000000;stroke-linecap:round;stroke-width:2;"/>
   </g>
   <g id="line2d_21">
    <path clip-path="url(#p1708834d43)" d="M 257.274 117.545 
L 257.274 129.785 
L 249.174 129.785 
L 265.374 129.785 
M 251.604 133.457 
L 262.944 133.457 
M 255.654 137.129 
L 258.894 137.129 
" style="fill:none;stroke:#000000;stroke-linecap:round;stroke-width:2;"/>
   </g>
   <g id="line2d_22">
    <path clip-path="url(#p1708834d43)" d="M 160.074 37.985 
L 160.074 25.745 
" style="fill:none;stroke:#000000;stroke-linecap:round;stroke-width:2;"/>
   </g>
   <g id="line2d_23">
    <path clip-path="url(#p1708834d43)" d="M 160.074 25.745 
L 153.999 25.745 
" style="fill:none;stroke:#000000;stroke-linecap:round;stroke-width:2;"/>
   </g>
   <g id="line2d_24">
    <path clip-path="url(#p1708834d43)" d="M 160.074 25.745 
L 166.149 25.745 
" style="fill:none;stroke:#000000;stroke-linecap:round;stroke-width:2;"/>
   </g>
   <g id="text_1">
    <!-- $R_{in}$ -->
    <g transform="translate(76.16 160.0155)scale(0.16 -0.16)">
     <defs>
      <path d="M 25.203125 64.796875 
L 20.21875 38.921875 
L 32.90625 38.921875 
Q 40.375 38.921875 44.984375 43.046875 
Q 49.609375 47.171875 49.609375 53.8125 
Q 49.609375 59.125 46.5 61.953125 
Q 43.40625 64.796875 37.59375 64.796875 
z
M 43.3125 35.015625 
Q 46.4375 34.28125 48.515625 31.390625 
Q 50.59375 28.515625 53.328125 19.921875 
L 59.515625 0 
L 49.125 0 
L 43.40625 18.703125 
Q 41.21875 25.921875 38.328125 28.359375 
Q 35.453125 30.8125 29.5 30.8125 
L 18.609375 30.8125 
L 12.59375 0 
L 2.6875 0 
L 16.890625 72.90625 
L 39.109375 72.90625 
Q 49.21875 72.90625 54.609375 68.328125 
Q 60.015625 63.765625 60.015625 55.171875 
Q 60.015625 47.5625 55.421875 41.984375 
Q 50.828125 36.421875 43.3125 35.015625 
z
" id="DejaVuSans-Oblique-82"/>
      <path d="M 18.3125 75.984375 
L 27.296875 75.984375 
L 25.09375 64.59375 
L 16.109375 64.59375 
z
M 14.203125 54.6875 
L 23.1875 54.6875 
L 12.5 0 
L 3.515625 0 
z
" id="DejaVuSans-Oblique-105"/>
      <path d="M 55.71875 33.015625 
L 49.3125 0 
L 40.28125 0 
L 46.6875 32.671875 
Q 47.125 34.96875 47.359375 36.71875 
Q 47.609375 38.484375 47.609375 39.5 
Q 47.609375 43.609375 45.015625 45.890625 
Q 42.4375 48.1875 37.796875 48.1875 
Q 30.5625 48.1875 25.34375 43.375 
Q 20.125 38.578125 18.5 30.328125 
L 12.5 0 
L 3.515625 0 
L 14.109375 54.6875 
L 23.09375 54.6875 
L 21.296875 46.09375 
Q 25.046875 50.828125 30.3125 53.40625 
Q 35.59375 56 41.40625 56 
Q 48.640625 56 52.609375 52.09375 
Q 56.59375 48.1875 56.59375 41.109375 
Q 56.59375 39.359375 56.375 37.359375 
Q 56.15625 35.359375 55.71875 33.015625 
z
" id="DejaVuSans-Oblique-110"/>
     </defs>
     <use transform="translate(0 0.09375)" xlink:href="#DejaVuSans-Oblique-82"/>
     <use transform="translate(69.482422 -16.3125)scale(0.7)" xlink:href="#DejaVuSans-Oblique-105"/>
     <use transform="translate(88.930664 -16.3125)scale(0.7)" xlink:href="#DejaVuSans-Oblique-110"/>
    </g>
   </g>
   <g id="text_2">
    <!-- $V_{in}$ -->
    <g transform="translate(7.2 201.418)scale(0.16 -0.16)">
     <defs>
      <path d="M 20.609375 0 
L 7.8125 72.90625 
L 17.484375 72.90625 
L 28.078125 10.203125 
L 63.484375 72.90625 
L 74.21875 72.90625 
L 32.078125 0 
z
" id="DejaVuSans-Oblique-86"/>
     </defs>
     <use transform="translate(0 0.09375)" xlink:href="#DejaVuSans-Oblique-86"/>
     <use transform="translate(68.408203 -16.3125)scale(0.7)" xlink:href="#DejaVuSans-Oblique-105"/>
     <use transform="translate(87.856445 -16.3125)scale(0.7)" xlink:href="#DejaVuSans-Oblique-110"/>
    </g>
   </g>
   <g id="text_3">
    <!-- $C_1$ -->
    <g transform="translate(129.854 88.3)scale(0.16 -0.16)">
     <defs>
      <path d="M 69.484375 67.28125 
L 67.484375 56.890625 
Q 62.796875 61.625 57.546875 63.921875 
Q 52.296875 66.21875 46.1875 66.21875 
Q 37.84375 66.21875 31.515625 62.203125 
Q 25.203125 58.203125 20.609375 50 
Q 17.671875 44.734375 16.125 38.84375 
Q 14.59375 32.953125 14.59375 27 
Q 14.59375 17.046875 19.75 11.8125 
Q 24.90625 6.59375 34.71875 6.59375 
Q 41.5 6.59375 47.75 8.765625 
Q 54 10.9375 59.90625 15.28125 
L 57.625 3.609375 
Q 51.8125 1.125 45.875 -0.140625 
Q 39.9375 -1.421875 33.984375 -1.421875 
Q 19.96875 -1.421875 12.078125 6.1875 
Q 4.203125 13.8125 4.203125 27.390625 
Q 4.203125 36.078125 7.203125 44.46875 
Q 10.203125 52.875 15.828125 59.8125 
Q 21.78125 67.1875 29.421875 70.703125 
Q 37.0625 74.21875 47.21875 74.21875 
Q 53.46875 74.21875 59.0625 72.484375 
Q 64.65625 70.75 69.484375 67.28125 
z
" id="DejaVuSans-Oblique-67"/>
      <path d="M 12.40625 8.296875 
L 28.515625 8.296875 
L 28.515625 63.921875 
L 10.984375 60.40625 
L 10.984375 69.390625 
L 28.421875 72.90625 
L 38.28125 72.90625 
L 38.28125 8.296875 
L 54.390625 8.296875 
L 54.390625 0 
L 12.40625 0 
z
" id="DejaVuSans-49"/>
     </defs>
     <use transform="translate(0 0.78125)" xlink:href="#DejaVuSans-Oblique-67"/>
     <use transform="translate(69.824219 -15.625)scale(0.7)" xlink:href="#DejaVuSans-49"/>
    </g>
   </g>
   <g id="text_4">
    <!-- $V_{dd}$ -->
    <g transform="translate(147.194 19.3575)scale(0.16 -0.16)">
     <defs>
      <path d="M 41.796875 8.203125 
Q 38.1875 3.46875 33.25 1.015625 
Q 28.328125 -1.421875 22.3125 -1.421875 
Q 14.109375 -1.421875 9.34375 4.171875 
Q 4.59375 9.765625 4.59375 19.484375 
Q 4.59375 27.59375 7.46875 34.9375 
Q 10.359375 42.28125 15.828125 48.09375 
Q 19.4375 51.953125 23.96875 53.96875 
Q 28.515625 56 33.5 56 
Q 38.765625 56 42.796875 53.453125 
Q 46.828125 50.921875 49.03125 46.1875 
L 54.890625 75.984375 
L 63.921875 75.984375 
L 49.125 0 
L 40.09375 0 
z
M 13.921875 21.09375 
Q 13.921875 14.015625 17.109375 10.0625 
Q 20.3125 6.109375 25.984375 6.109375 
Q 30.171875 6.109375 33.765625 8.125 
Q 37.359375 10.15625 40.09375 14.109375 
Q 42.96875 18.21875 44.625 23.578125 
Q 46.296875 28.953125 46.296875 34.1875 
Q 46.296875 40.96875 43.09375 44.765625 
Q 39.890625 48.578125 34.28125 48.578125 
Q 30.03125 48.578125 26.359375 46.578125 
Q 22.703125 44.578125 20.125 40.828125 
Q 17.28125 36.765625 15.59375 31.390625 
Q 13.921875 26.03125 13.921875 21.09375 
z
" id="DejaVuSans-Oblique-100"/>
     </defs>
     <use transform="translate(0 0.09375)" xlink:href="#DejaVuSans-Oblique-86"/>
     <use transform="translate(68.408203 -16.3125)scale(0.7)" xlink:href="#DejaVuSans-Oblique-100"/>
     <use transform="translate(112.841797 -16.3125)scale(0.7)" xlink:href="#DejaVuSans-Oblique-100"/>
    </g>
   </g>
   <g id="patch_14">
    <path clip-path="url(#p1708834d43)" d="M 160.074 132.08 
C 160.718444 132.08 161.336579 131.838184 161.792269 131.40781 
C 162.24796 130.977436 162.504 130.393641 162.504 129.785 
C 162.504 129.176359 162.24796 128.592564 161.792269 128.16219 
C 161.336579 127.731816 160.718444 127.49 160.074 127.49 
C 159.429556 127.49 158.811421 127.731816 158.355731 128.16219 
C 157.90004 128.592564 157.644 129.176359 157.644 129.785 
C 157.644 130.393641 157.90004 130.977436 158.355731 131.40781 
C 158.811421 131.838184 159.429556 132.08 160.074 132.08 
z
" style="stroke:#000000;stroke-linejoin:miter;stroke-width:2;"/>
   </g>
   <g id="patch_15">
    <path clip-path="url(#p1708834d43)" d="M 160.074 58.64 
C 160.718444 58.64 161.336579 58.398184 161.792269 57.96781 
C 162.24796 57.537436 162.504 56.953641 162.504 56.345 
C 162.504 55.736359 162.24796 55.152564 161.792269 54.72219 
C 161.336579 54.291816 160.718444 54.05 160.074 54.05 
C 159.429556 54.05 158.811421 54.291816 158.355731 54.72219 
C 157.90004 55.152564 157.644 55.736359 157.644 56.345 
C 157.644 56.953641 157.90004 57.537436 158.355731 57.96781 
C 158.811421 58.398184 159.429556 58.64 160.074 58.64 
z
" style="stroke:#000000;stroke-linejoin:miter;stroke-width:2;"/>
   </g>
   <g id="patch_16">
    <path clip-path="url(#p1708834d43)" d="M 289.674 70.88 
C 290.318444 70.88 290.936579 70.638184 291.392269 70.20781 
C 291.84796 69.777436 292.104 69.193641 292.104 68.585 
C 292.104 67.976359 291.84796 67.392564 291.392269 66.96219 
C 290.936579 66.531816 290.318444 66.29 289.674 66.29 
C 289.029556 66.29 288.411421 66.531816 287.955731 66.96219 
C 287.50004 67.392564 287.244 67.976359 287.244 68.585 
C 287.244 69.193641 287.50004 69.777436 287.955731 70.20781 
C 288.411421 70.638184 289.029556 70.88 289.674 70.88 
z
" style="fill:#ffffff;stroke:#000000;stroke-linejoin:miter;stroke-width:2;"/>
   </g>
   <g id="text_5">
    <!-- $v_{out}$ -->
    <g transform="translate(295.344 73)scale(0.16 -0.16)">
     <defs>
      <path d="M 7.171875 54.6875 
L 16.703125 54.6875 
L 24.703125 8.203125 
L 50.875 54.6875 
L 60.40625 54.6875 
L 29.296875 0 
L 17.1875 0 
z
" id="DejaVuSans-Oblique-118"/>
      <path d="M 25.390625 -1.421875 
Q 15.765625 -1.421875 10.171875 4.515625 
Q 4.59375 10.453125 4.59375 20.703125 
Q 4.59375 26.65625 6.515625 32.828125 
Q 8.453125 39.015625 11.53125 43.21875 
Q 16.359375 49.75 22.3125 52.875 
Q 28.265625 56 35.796875 56 
Q 45.125 56 50.859375 50.1875 
Q 56.59375 44.390625 56.59375 35.015625 
Q 56.59375 28.515625 54.6875 22.0625 
Q 52.78125 15.625 49.703125 11.375 
Q 44.921875 4.828125 38.96875 1.703125 
Q 33.015625 -1.421875 25.390625 -1.421875 
z
M 13.921875 21 
Q 13.921875 13.578125 17.015625 9.890625 
Q 20.125 6.203125 26.421875 6.203125 
Q 35.453125 6.203125 41.375 14.078125 
Q 47.3125 21.96875 47.3125 34.078125 
Q 47.3125 41.15625 44.140625 44.765625 
Q 40.96875 48.390625 34.8125 48.390625 
Q 29.734375 48.390625 25.78125 46.015625 
Q 21.828125 43.65625 18.703125 38.8125 
Q 16.40625 35.203125 15.15625 30.5625 
Q 13.921875 25.921875 13.921875 21 
z
" id="DejaVuSans-Oblique-111"/>
      <path d="M 6.6875 21.6875 
L 13.09375 54.6875 
L 22.125 54.6875 
L 15.71875 22.015625 
Q 15.234375 19.625 15.015625 17.921875 
Q 14.796875 16.21875 14.796875 15.09375 
Q 14.796875 10.9375 17.328125 8.65625 
Q 19.875 6.390625 24.515625 6.390625 
Q 31.734375 6.390625 37 11.265625 
Q 42.28125 16.15625 43.890625 24.421875 
L 49.90625 54.6875 
L 58.890625 54.6875 
L 48.296875 0 
L 39.3125 0 
L 41.109375 8.59375 
Q 37.3125 3.8125 32.0625 1.1875 
Q 26.8125 -1.421875 20.90625 -1.421875 
Q 13.71875 -1.421875 9.71875 2.515625 
Q 5.71875 6.453125 5.71875 13.484375 
Q 5.71875 14.9375 5.953125 17.140625 
Q 6.203125 19.34375 6.6875 21.6875 
z
" id="DejaVuSans-Oblique-117"/>
      <path d="M 42.28125 54.6875 
L 40.921875 47.703125 
L 23 47.703125 
L 17.1875 18.015625 
Q 16.890625 16.359375 16.75 15.234375 
Q 16.609375 14.109375 16.609375 13.484375 
Q 16.609375 10.359375 18.484375 8.9375 
Q 20.359375 7.515625 24.515625 7.515625 
L 33.59375 7.515625 
L 32.078125 0 
L 23.484375 0 
Q 15.484375 0 11.546875 3.125 
Q 7.625 6.25 7.625 12.59375 
Q 7.625 13.71875 7.765625 15.0625 
Q 7.90625 16.40625 8.203125 18.015625 
L 14.015625 47.703125 
L 6.390625 47.703125 
L 7.8125 54.6875 
L 15.28125 54.6875 
L 18.3125 70.21875 
L 27.296875 70.21875 
L 24.3125 54.6875 
z
" id="DejaVuSans-Oblique-116"/>
     </defs>
     <use transform="translate(0 0.3125)" xlink:href="#DejaVuSans-Oblique-118"/>
     <use transform="translate(59.179688 -16.09375)scale(0.7)" xlink:href="#DejaVuSans-Oblique-111"/>
     <use transform="translate(102.006836 -16.09375)scale(0.7)" xlink:href="#DejaVuSans-Oblique-117"/>
     <use transform="translate(146.37207 -16.09375)scale(0.7)" xlink:href="#DejaVuSans-Oblique-116"/>
    </g>
   </g>
  </g>
 </g>
 <defs>
  <clipPath id="p1708834d43">
   <rect height="219.912" width="276.264" x="19.08" y="22.685"/>
  </clipPath>
 </defs>
</svg>
