<?xml version="1.0" encoding="utf-8" standalone="no"?>
<!DOCTYPE svg PUBLIC "-//W3C//DTD SVG 1.1//EN"
  "http://www.w3.org/Graphics/SVG/1.1/DTD/svg11.dtd">
<!-- Created with matplotlib (https://matplotlib.org/) -->
<svg height="211.26pt" version="1.1" viewBox="0 0 296.574 211.26" width="296.574pt" xmlns="http://www.w3.org/2000/svg" xmlns:xlink="http://www.w3.org/1999/xlink">
 <metadata>
  <rdf:RDF xmlns:cc="http://creativecommons.org/ns#" xmlns:dc="http://purl.org/dc/elements/1.1/" xmlns:rdf="http://www.w3.org/1999/02/22-rdf-syntax-ns#">
   <cc:Work>
    <dc:type rdf:resource="http://purl.org/dc/dcmitype/StillImage"/>
    <dc:date>2020-10-16T23:46:18.372310</dc:date>
    <dc:format>image/svg+xml</dc:format>
    <dc:creator>
     <cc:Agent>
      <dc:title>Matplotlib v3.3.2, https://matplotlib.org/</dc:title>
     </cc:Agent>
    </dc:creator>
   </cc:Work>
  </rdf:RDF>
 </metadata>
 <defs>
  <style type="text/css">*{stroke-linecap:butt;stroke-linejoin:round;}</style>
 </defs>
 <g id="figure_1">
  <g id="patch_1">
   <path d="M 0 211.26 
L 296.574 211.26 
L 296.574 0 
L 0 0 
z
" style="fill:none;"/>
  </g>
  <g id="axes_1">
   <g id="line2d_1">
    <path clip-path="url(#p0d319eb111)" d="M 264.024 89.616 
L 264.024 120.216 
M 264.024 150.816 
L 264.024 181.416 
" style="fill:none;stroke:#ffffff;stroke-linecap:round;stroke-width:2;"/>
   </g>
   <g id="text_1">
    <!-- - -->
    <g transform="translate(274.458531 116.429125)scale(0.14 -0.14)">
     <defs>
      <path d="M 4.890625 31.390625 
L 31.203125 31.390625 
L 31.203125 23.390625 
L 4.890625 23.390625 
z
" id="DejaVuSans-45"/>
     </defs>
     <use xlink:href="#DejaVuSans-45"/>
    </g>
   </g>
   <g id="text_2">
    <!-- $v_{out}$ -->
    <g transform="translate(264.594 139.379125)scale(0.14 -0.14)">
     <defs>
      <path d="M 7.171875 54.6875 
L 16.703125 54.6875 
L 24.703125 8.203125 
L 50.875 54.6875 
L 60.40625 54.6875 
L 29.296875 0 
L 17.1875 0 
z
" id="DejaVuSans-Oblique-118"/>
      <path d="M 25.390625 -1.421875 
Q 15.765625 -1.421875 10.171875 4.515625 
Q 4.59375 10.453125 4.59375 20.703125 
Q 4.59375 26.65625 6.515625 32.828125 
Q 8.453125 39.015625 11.53125 43.21875 
Q 16.359375 49.75 22.3125 52.875 
Q 28.265625 56 35.796875 56 
Q 45.125 56 50.859375 50.1875 
Q 56.59375 44.390625 56.59375 35.015625 
Q 56.59375 28.515625 54.6875 22.0625 
Q 52.78125 15.625 49.703125 11.375 
Q 44.921875 4.828125 38.96875 1.703125 
Q 33.015625 -1.421875 25.390625 -1.421875 
z
M 13.921875 21 
Q 13.921875 13.578125 17.015625 9.890625 
Q 20.125 6.203125 26.421875 6.203125 
Q 35.453125 6.203125 41.375 14.078125 
Q 47.3125 21.96875 47.3125 34.078125 
Q 47.3125 41.15625 44.140625 44.765625 
Q 40.96875 48.390625 34.8125 48.390625 
Q 29.734375 48.390625 25.78125 46.015625 
Q 21.828125 43.65625 18.703125 38.8125 
Q 16.40625 35.203125 15.15625 30.5625 
Q 13.921875 25.921875 13.921875 21 
z
" id="DejaVuSans-Oblique-111"/>
      <path d="M 6.6875 21.6875 
L 13.09375 54.6875 
L 22.125 54.6875 
L 15.71875 22.015625 
Q 15.234375 19.625 15.015625 17.921875 
Q 14.796875 16.21875 14.796875 15.09375 
Q 14.796875 10.9375 17.328125 8.65625 
Q 19.875 6.390625 24.515625 6.390625 
Q 31.734375 6.390625 37 11.265625 
Q 42.28125 16.15625 43.890625 24.421875 
L 49.90625 54.6875 
L 58.890625 54.6875 
L 48.296875 0 
L 39.3125 0 
L 41.109375 8.59375 
Q 37.3125 3.8125 32.0625 1.1875 
Q 26.8125 -1.421875 20.90625 -1.421875 
Q 13.71875 -1.421875 9.71875 2.515625 
Q 5.71875 6.453125 5.71875 13.484375 
Q 5.71875 14.9375 5.953125 17.140625 
Q 6.203125 19.34375 6.6875 21.6875 
z
" id="DejaVuSans-Oblique-117"/>
      <path d="M 42.28125 54.6875 
L 40.921875 47.703125 
L 23 47.703125 
L 17.1875 18.015625 
Q 16.890625 16.359375 16.75 15.234375 
Q 16.609375 14.109375 16.609375 13.484375 
Q 16.609375 10.359375 18.484375 8.9375 
Q 20.359375 7.515625 24.515625 7.515625 
L 33.59375 7.515625 
L 32.078125 0 
L 23.484375 0 
Q 15.484375 0 11.546875 3.125 
Q 7.625 6.25 7.625 12.59375 
Q 7.625 13.71875 7.765625 15.0625 
Q 7.90625 16.40625 8.203125 18.015625 
L 14.015625 47.703125 
L 6.390625 47.703125 
L 7.8125 54.6875 
L 15.28125 54.6875 
L 18.3125 70.21875 
L 27.296875 70.21875 
L 24.3125 54.6875 
z
" id="DejaVuSans-Oblique-116"/>
     </defs>
     <use transform="translate(0 0.3125)" xlink:href="#DejaVuSans-Oblique-118"/>
     <use transform="translate(59.179688 -16.09375)scale(0.7)" xlink:href="#DejaVuSans-Oblique-111"/>
     <use transform="translate(102.006836 -16.09375)scale(0.7)" xlink:href="#DejaVuSans-Oblique-117"/>
     <use transform="translate(146.37207 -16.09375)scale(0.7)" xlink:href="#DejaVuSans-Oblique-116"/>
    </g>
   </g>
   <g id="text_3">
    <!-- $+$ -->
    <g transform="translate(271.104 162.329125)scale(0.14 -0.14)">
     <defs>
      <path d="M 46 62.703125 
L 46 35.5 
L 73.1875 35.5 
L 73.1875 27.203125 
L 46 27.203125 
L 46 0 
L 37.796875 0 
L 37.796875 27.203125 
L 10.59375 27.203125 
L 10.59375 35.5 
L 37.796875 35.5 
L 37.796875 62.703125 
z
" id="DejaVuSans-43"/>
     </defs>
     <use transform="translate(0 0.296875)" xlink:href="#DejaVuSans-43"/>
    </g>
   </g>
   <g id="patch_2">
    <path clip-path="url(#p0d319eb111)" d="M 53.424 59.526 
L 46.395453 57.866482 
L 48.493474 55.554773 
L 40.939457 49.439617 
L 40.960543 49.416383 
L 48.51456 55.53154 
L 50.612581 53.219832 
z
" style="stroke:#000000;stroke-linejoin:miter;stroke-width:2;"/>
   </g>
   <g id="patch_3">
    <path clip-path="url(#p0d319eb111)" d="M 40.95 126.948 
L 43.761419 120.641832 
L 45.85944 122.95354 
L 53.413457 116.838383 
L 53.434543 116.861617 
L 45.880526 122.976773 
L 47.978547 125.288482 
z
" style="stroke:#000000;stroke-linejoin:miter;stroke-width:2;"/>
   </g>
   <g id="line2d_2">
    <path clip-path="url(#p0d319eb111)" d="M 29.07 43.818 
L 40.95 43.818 
" style="fill:none;stroke:#000000;stroke-linecap:round;stroke-width:2;"/>
   </g>
   <g id="line2d_3">
    <path clip-path="url(#p0d319eb111)" d="M 40.95 32.598 
L 40.95 55.038 
" style="fill:none;stroke:#000000;stroke-linecap:round;stroke-width:2;"/>
   </g>
   <g id="line2d_4">
    <path clip-path="url(#p0d319eb111)" d="M 40.95 38.208 
L 53.424 28.11 
L 53.424 22.5 
" style="fill:none;stroke:#000000;stroke-linecap:round;stroke-width:2;"/>
   </g>
   <g id="line2d_5">
    <path clip-path="url(#p0d319eb111)" d="M 40.95 49.428 
L 53.424 59.526 
L 53.424 65.136 
" style="fill:none;stroke:#000000;stroke-linecap:round;stroke-width:2;"/>
   </g>
   <g id="line2d_6">
    <path clip-path="url(#p0d319eb111)" d="M 29.07 43.818 
L 29.07 66.768 
L 29.07 89.718 
" style="fill:none;stroke:#000000;stroke-linecap:round;stroke-width:2;"/>
   </g>
   <g id="line2d_7">
    <path clip-path="url(#p0d319eb111)" d="M 29.07 89.718 
L 29.07 111.138 
L 29.07 132.558 
" style="fill:none;stroke:#000000;stroke-linecap:round;stroke-width:2;"/>
   </g>
   <g id="line2d_8">
    <path clip-path="url(#p0d319eb111)" d="M 29.07 132.558 
L 40.95 132.558 
" style="fill:none;stroke:#000000;stroke-linecap:round;stroke-width:2;"/>
   </g>
   <g id="line2d_9">
    <path clip-path="url(#p0d319eb111)" d="M 40.95 121.338 
L 40.95 143.778 
" style="fill:none;stroke:#000000;stroke-linecap:round;stroke-width:2;"/>
   </g>
   <g id="line2d_10">
    <path clip-path="url(#p0d319eb111)" d="M 40.95 126.948 
L 53.424 116.85 
L 53.424 111.24 
" style="fill:none;stroke:#000000;stroke-linecap:round;stroke-width:2;"/>
   </g>
   <g id="line2d_11">
    <path clip-path="url(#p0d319eb111)" d="M 40.95 138.168 
L 53.424 148.266 
L 53.424 153.876 
" style="fill:none;stroke:#000000;stroke-linecap:round;stroke-width:2;"/>
   </g>
   <g id="line2d_12">
    <path clip-path="url(#p0d319eb111)" d="M 53.424 22.5 
L 53.424 10.26 
" style="fill:none;stroke:#000000;stroke-linecap:round;stroke-width:2;"/>
   </g>
   <g id="line2d_13">
    <path clip-path="url(#p0d319eb111)" d="M 53.424 10.26 
L 47.349 10.26 
" style="fill:none;stroke:#000000;stroke-linecap:round;stroke-width:2;"/>
   </g>
   <g id="line2d_14">
    <path clip-path="url(#p0d319eb111)" d="M 53.424 10.26 
L 59.499 10.26 
" style="fill:none;stroke:#000000;stroke-linecap:round;stroke-width:2;"/>
   </g>
   <g id="line2d_15">
    <path clip-path="url(#p0d319eb111)" d="M 29.07 89.718 
L 20.97 89.718 
L 12.87 89.718 
" style="fill:none;stroke:#000000;stroke-linecap:round;stroke-width:2;"/>
   </g>
   <g id="line2d_16">
    <path clip-path="url(#p0d319eb111)" d="M 53.424 65.136 
L 53.424 77.376 
L 53.424 89.616 
" style="fill:none;stroke:#000000;stroke-linecap:round;stroke-width:2;"/>
   </g>
   <g id="line2d_17">
    <path clip-path="url(#p0d319eb111)" d="M 53.424 89.616 
L 85.824 89.616 
L 85.944663 87.096441 
L 86.311584 84.554159 
L 86.916601 82.202371 
L 87.731584 80.238317 
L 88.710792 78.82672 
L 89.243791 78.367201 
L 89.794712 78.085968 
L 90.354786 77.988948 
L 90.915048 78.078187 
L 91.466531 78.351803 
L 92.00045 78.80403 
L 92.508395 79.425334 
L 93.415611 81.119506 
L 94.134702 83.29223 
L 94.627972 85.761284 
L 94.87666 88.319592 
L 94.882521 90.752592 
L 94.667675 92.856233 
L 94.272751 94.454086 
L 93.753483 95.412141 
L 93.467635 95.62382 
L 93.176031 95.650047 
L 92.887658 95.490268 
L 92.611437 95.147851 
L 92.129663 93.947673 
L 91.793727 92.150168 
L 91.654413 89.906092 
L 91.746017 87.403651 
L 92.083467 84.852721 
L 92.661073 82.467245 
L 93.453004 80.447289 
L 94.415451 78.962263 
L 94.942892 78.461338 
L 95.490308 78.136715 
L 96.049002 77.995236 
L 96.610039 78.039882 
L 97.164434 78.269713 
L 97.703344 78.679885 
L 98.218251 79.261752 
L 98.701142 80.003048 
L 99.542359 81.8984 
L 100.179054 84.20698 
L 100.580441 86.735171 
L 100.735467 89.270937 
L 100.653741 91.601608 
L 100.364728 93.531714 
L 99.915279 94.89938 
L 99.365699 95.589902 
L 99.074656 95.66075 
L 98.784692 95.545367 
L 98.504758 95.246184 
L 98.009554 94.125389 
L 97.653189 92.392362 
L 97.488161 90.192451 
L 97.550922 87.710159 
L 97.858819 85.153672 
L 98.408641 82.737398 
L 99.176886 80.663987 
L 100.121734 79.107332 
L 100.643142 78.565609 
L 101.186552 78.197988 
L 101.743352 78.012221 
L 102.304648 78.012221 
L 102.861448 78.197988 
L 103.404858 78.565609 
L 103.926266 79.107332 
L 104.417522 79.811741 
L 105.280321 81.646107 
L 105.943502 83.91486 
L 106.374058 86.427724 
L 106.55849 88.973948 
L 106.50394 91.339985 
L 106.237595 93.3274 
L 105.804404 94.769509 
L 105.263308 95.545367 
L 104.973344 95.66075 
L 104.682301 95.589902 
L 104.399157 95.334316 
L 103.89145 94.294261 
L 103.515415 92.627812 
L 103.325199 90.474732 
L 103.359368 88.015596 
L 103.637666 85.456649 
L 104.159364 83.012504 
L 104.90332 80.88815 
L 105.829749 79.261752 
L 106.344656 78.679885 
L 106.883566 78.269713 
L 107.437961 78.039882 
L 107.998998 77.995236 
L 108.557692 78.136715 
L 109.105108 78.461338 
L 109.632549 78.962263 
L 110.131739 79.628931 
L 111.015399 81.400088 
L 111.70459 83.626266 
L 112.164119 86.120758 
L 112.37806 88.674356 
L 112.351079 91.072894 
L 112.108052 93.115208 
L 111.69197 94.630014 
L 111.160342 95.490268 
L 110.871969 95.650047 
L 110.580365 95.62382 
L 110.294517 95.412141 
L 110.023292 95.01947 
L 109.558456 93.727905 
L 109.247452 91.857445 
L 109.138975 89.564964 
L 109.264734 87.042727 
L 109.636792 84.502272 
L 110.246558 82.156662 
L 111.065501 80.202621 
L 112.04755 78.80403 
L 112.581469 78.351803 
L 113.132952 78.078187 
L 113.693214 77.988948 
L 114.253288 78.085968 
L 114.804209 78.367201 
L 115.337208 78.82672 
L 115.843889 79.454838 
L 116.747669 81.160641 
L 117.46236 83.341547 
L 117.950633 85.814647 
L 118.19415 88.372525 
L 118.224 89.616 
L 150.624 89.616 
L 150.624 89.616 
" style="fill:none;stroke:#000000;stroke-linecap:round;stroke-width:2;"/>
   </g>
   <g id="line2d_18">
    <path clip-path="url(#p0d319eb111)" d="M 53.424 89.616 
L 53.424 101.856 
L 53.424 114.096 
" style="fill:none;stroke:#000000;stroke-linecap:round;stroke-width:2;"/>
   </g>
   <g id="line2d_19">
    <path clip-path="url(#p0d319eb111)" d="M 150.624 89.616 
L 196.308 89.616 
M 196.308 81.966 
L 196.308 97.266 
M 202.14 81.966 
L 202.14 97.266 
M 202.14 89.616 
L 247.824 89.616 
" style="fill:none;stroke:#000000;stroke-linecap:round;stroke-width:2;"/>
   </g>
   <g id="line2d_20">
    <path clip-path="url(#p0d319eb111)" d="M 247.824 89.616 
L 247.824 120.216 
L 255.924 122.766 
L 239.724 127.866 
L 255.924 132.966 
L 239.724 138.066 
L 255.924 143.166 
L 239.724 148.266 
L 247.824 150.816 
L 247.824 181.416 
" style="fill:none;stroke:#000000;stroke-linecap:round;stroke-width:2;"/>
   </g>
   <g id="line2d_21">
    <path clip-path="url(#p0d319eb111)" d="M 247.824 89.616 
L 255.924 89.616 
L 264.024 89.616 
" style="fill:none;stroke:#000000;stroke-linecap:round;stroke-width:2;"/>
   </g>
   <g id="line2d_22">
    <path clip-path="url(#p0d319eb111)" d="M 247.824 181.416 
L 255.924 181.416 
L 264.024 181.416 
" style="fill:none;stroke:#000000;stroke-linecap:round;stroke-width:2;"/>
   </g>
   <g id="line2d_23">
    <path clip-path="url(#p0d319eb111)" d="M 247.824 181.416 
L 150.624 181.416 
L 53.424 181.416 
" style="fill:none;stroke:#000000;stroke-linecap:round;stroke-width:2;"/>
   </g>
   <g id="line2d_24">
    <path clip-path="url(#p0d319eb111)" d="M 53.424 181.416 
L 53.424 193.656 
L 45.324 193.656 
L 61.524 193.656 
M 47.754 197.328 
L 59.094 197.328 
M 51.804 201 
L 55.044 201 
" style="fill:none;stroke:#000000;stroke-linecap:round;stroke-width:2;"/>
   </g>
   <g id="line2d_25">
    <path clip-path="url(#p0d319eb111)" d="M 53.424 181.416 
L 53.424 167.646 
L 53.424 153.876 
" style="fill:none;stroke:#000000;stroke-linecap:round;stroke-width:2;"/>
   </g>
   <g id="text_4">
    <!-- $L_1$ -->
    <g transform="translate(94.814 72.017386)scale(0.14 -0.14)">
     <defs>
      <path d="M 16.796875 72.90625 
L 26.703125 72.90625 
L 14.203125 8.203125 
L 49.703125 8.203125 
L 48.09375 0 
L 2.6875 0 
z
" id="DejaVuSans-Oblique-76"/>
      <path d="M 12.40625 8.296875 
L 28.515625 8.296875 
L 28.515625 63.921875 
L 10.984375 60.40625 
L 10.984375 69.390625 
L 28.421875 72.90625 
L 38.28125 72.90625 
L 38.28125 8.296875 
L 54.390625 8.296875 
L 54.390625 0 
L 12.40625 0 
z
" id="DejaVuSans-49"/>
     </defs>
     <use transform="translate(0 0.09375)" xlink:href="#DejaVuSans-Oblique-76"/>
     <use transform="translate(55.712891 -16.3125)scale(0.7)" xlink:href="#DejaVuSans-49"/>
    </g>
   </g>
   <g id="text_5">
    <!-- $C_1$ -->
    <g transform="translate(190.964 75.994437)scale(0.14 -0.14)">
     <defs>
      <path d="M 69.484375 67.28125 
L 67.484375 56.890625 
Q 62.796875 61.625 57.546875 63.921875 
Q 52.296875 66.21875 46.1875 66.21875 
Q 37.84375 66.21875 31.515625 62.203125 
Q 25.203125 58.203125 20.609375 50 
Q 17.671875 44.734375 16.125 38.84375 
Q 14.59375 32.953125 14.59375 27 
Q 14.59375 17.046875 19.75 11.8125 
Q 24.90625 6.59375 34.71875 6.59375 
Q 41.5 6.59375 47.75 8.765625 
Q 54 10.9375 59.90625 15.28125 
L 57.625 3.609375 
Q 51.8125 1.125 45.875 -0.140625 
Q 39.9375 -1.421875 33.984375 -1.421875 
Q 19.96875 -1.421875 12.078125 6.1875 
Q 4.203125 13.8125 4.203125 27.390625 
Q 4.203125 36.078125 7.203125 44.46875 
Q 10.203125 52.875 15.828125 59.8125 
Q 21.78125 67.1875 29.421875 70.703125 
Q 37.0625 74.21875 47.21875 74.21875 
Q 53.46875 74.21875 59.0625 72.484375 
Q 64.65625 70.75 69.484375 67.28125 
z
" id="DejaVuSans-Oblique-67"/>
     </defs>
     <use transform="translate(0 0.78125)" xlink:href="#DejaVuSans-Oblique-67"/>
     <use transform="translate(69.824219 -15.625)scale(0.7)" xlink:href="#DejaVuSans-49"/>
    </g>
   </g>
   <g id="text_6">
    <!-- $R_L$ -->
    <g transform="translate(220.804 139.379125)scale(0.14 -0.14)">
     <defs>
      <path d="M 25.203125 64.796875 
L 20.21875 38.921875 
L 32.90625 38.921875 
Q 40.375 38.921875 44.984375 43.046875 
Q 49.609375 47.171875 49.609375 53.8125 
Q 49.609375 59.125 46.5 61.953125 
Q 43.40625 64.796875 37.59375 64.796875 
z
M 43.3125 35.015625 
Q 46.4375 34.28125 48.515625 31.390625 
Q 50.59375 28.515625 53.328125 19.921875 
L 59.515625 0 
L 49.125 0 
L 43.40625 18.703125 
Q 41.21875 25.921875 38.328125 28.359375 
Q 35.453125 30.8125 29.5 30.8125 
L 18.609375 30.8125 
L 12.59375 0 
L 2.6875 0 
L 16.890625 72.90625 
L 39.109375 72.90625 
Q 49.21875 72.90625 54.609375 68.328125 
Q 60.015625 63.765625 60.015625 55.171875 
Q 60.015625 47.5625 55.421875 41.984375 
Q 50.828125 36.421875 43.3125 35.015625 
z
" id="DejaVuSans-Oblique-82"/>
     </defs>
     <use transform="translate(0 0.09375)" xlink:href="#DejaVuSans-Oblique-82"/>
     <use transform="translate(69.482422 -16.3125)scale(0.7)" xlink:href="#DejaVuSans-Oblique-76"/>
    </g>
   </g>
   <g id="patch_4">
    <path clip-path="url(#p0d319eb111)" d="M 29.07 92.013 
C 29.714444 92.013 30.332579 91.771184 30.788269 91.34081 
C 31.24396 90.910436 31.5 90.326641 31.5 89.718 
C 31.5 89.109359 31.24396 88.525564 30.788269 88.09519 
C 30.332579 87.664816 29.714444 87.423 29.07 87.423 
C 28.425556 87.423 27.807421 87.664816 27.351731 88.09519 
C 26.89604 88.525564 26.64 89.109359 26.64 89.718 
C 26.64 90.326641 26.89604 90.910436 27.351731 91.34081 
C 27.807421 91.771184 28.425556 92.013 29.07 92.013 
z
" style="fill:#ff0000;stroke:#ff0000;stroke-linejoin:miter;stroke-width:2;"/>
   </g>
   <g id="patch_5">
    <path clip-path="url(#p0d319eb111)" d="M 53.424 24.795 
C 54.068444 24.795 54.686579 24.553184 55.142269 24.12281 
C 55.59796 23.692436 55.854 23.108641 55.854 22.5 
C 55.854 21.891359 55.59796 21.307564 55.142269 20.87719 
C 54.686579 20.446816 54.068444 20.205 53.424 20.205 
C 52.779556 20.205 52.161421 20.446816 51.705731 20.87719 
C 51.25004 21.307564 50.994 21.891359 50.994 22.5 
C 50.994 23.108641 51.25004 23.692436 51.705731 24.12281 
C 52.161421 24.553184 52.779556 24.795 53.424 24.795 
z
" style="fill:#ff0000;stroke:#ff0000;stroke-linejoin:miter;stroke-width:2;"/>
   </g>
   <g id="patch_6">
    <path clip-path="url(#p0d319eb111)" d="M 12.87 92.013 
C 13.514444 92.013 14.132579 91.771184 14.588269 91.34081 
C 15.04396 90.910436 15.3 90.326641 15.3 89.718 
C 15.3 89.109359 15.04396 88.525564 14.588269 88.09519 
C 14.132579 87.664816 13.514444 87.423 12.87 87.423 
C 12.225556 87.423 11.607421 87.664816 11.151731 88.09519 
C 10.69604 88.525564 10.44 89.109359 10.44 89.718 
C 10.44 90.326641 10.69604 90.910436 11.151731 91.34081 
C 11.607421 91.771184 12.225556 92.013 12.87 92.013 
z
" style="fill:#ffffff;stroke:#000000;stroke-linejoin:miter;stroke-width:2;"/>
   </g>
   <g id="patch_7">
    <path clip-path="url(#p0d319eb111)" d="M 53.424 91.911 
C 54.068444 91.911 54.686579 91.669184 55.142269 91.23881 
C 55.59796 90.808436 55.854 90.224641 55.854 89.616 
C 55.854 89.007359 55.59796 88.423564 55.142269 87.99319 
C 54.686579 87.562816 54.068444 87.321 53.424 87.321 
C 52.779556 87.321 52.161421 87.562816 51.705731 87.99319 
C 51.25004 88.423564 50.994 89.007359 50.994 89.616 
C 50.994 90.224641 51.25004 90.808436 51.705731 91.23881 
C 52.161421 91.669184 52.779556 91.911 53.424 91.911 
z
" style="fill:#ff0000;stroke:#ff0000;stroke-linejoin:miter;stroke-width:2;"/>
   </g>
   <g id="patch_8">
    <path clip-path="url(#p0d319eb111)" d="M 150.624 91.911 
C 151.268444 91.911 151.886579 91.669184 152.342269 91.23881 
C 152.79796 90.808436 153.054 90.224641 153.054 89.616 
C 153.054 89.007359 152.79796 88.423564 152.342269 87.99319 
C 151.886579 87.562816 151.268444 87.321 150.624 87.321 
C 149.979556 87.321 149.361421 87.562816 148.905731 87.99319 
C 148.45004 88.423564 148.194 89.007359 148.194 89.616 
C 148.194 90.224641 148.45004 90.808436 148.905731 91.23881 
C 149.361421 91.669184 149.979556 91.911 150.624 91.911 
z
" style="fill:#ff0000;stroke:#ff0000;stroke-linejoin:miter;stroke-width:2;"/>
   </g>
   <g id="patch_9">
    <path clip-path="url(#p0d319eb111)" d="M 247.824 91.911 
C 248.468444 91.911 249.086579 91.669184 249.542269 91.23881 
C 249.99796 90.808436 250.254 90.224641 250.254 89.616 
C 250.254 89.007359 249.99796 88.423564 249.542269 87.99319 
C 249.086579 87.562816 248.468444 87.321 247.824 87.321 
C 247.179556 87.321 246.561421 87.562816 246.105731 87.99319 
C 245.65004 88.423564 245.394 89.007359 245.394 89.616 
C 245.394 90.224641 245.65004 90.808436 246.105731 91.23881 
C 246.561421 91.669184 247.179556 91.911 247.824 91.911 
z
" style="fill:#ff0000;stroke:#ff0000;stroke-linejoin:miter;stroke-width:2;"/>
   </g>
   <g id="patch_10">
    <path clip-path="url(#p0d319eb111)" d="M 264.024 91.911 
C 264.668444 91.911 265.286579 91.669184 265.742269 91.23881 
C 266.19796 90.808436 266.454 90.224641 266.454 89.616 
C 266.454 89.007359 266.19796 88.423564 265.742269 87.99319 
C 265.286579 87.562816 264.668444 87.321 264.024 87.321 
C 263.379556 87.321 262.761421 87.562816 262.305731 87.99319 
C 261.85004 88.423564 261.594 89.007359 261.594 89.616 
C 261.594 90.224641 261.85004 90.808436 262.305731 91.23881 
C 262.761421 91.669184 263.379556 91.911 264.024 91.911 
z
" style="fill:#ffffff;stroke:#000000;stroke-linejoin:miter;stroke-width:2;"/>
   </g>
   <g id="patch_11">
    <path clip-path="url(#p0d319eb111)" d="M 264.024 183.711 
C 264.668444 183.711 265.286579 183.469184 265.742269 183.03881 
C 266.19796 182.608436 266.454 182.024641 266.454 181.416 
C 266.454 180.807359 266.19796 180.223564 265.742269 179.79319 
C 265.286579 179.362816 264.668444 179.121 264.024 179.121 
C 263.379556 179.121 262.761421 179.362816 262.305731 179.79319 
C 261.85004 180.223564 261.594 180.807359 261.594 181.416 
C 261.594 182.024641 261.85004 182.608436 262.305731 183.03881 
C 262.761421 183.469184 263.379556 183.711 264.024 183.711 
z
" style="fill:#ffffff;stroke:#000000;stroke-linejoin:miter;stroke-width:2;"/>
   </g>
   <g id="patch_12">
    <path clip-path="url(#p0d319eb111)" d="M 53.424 183.711 
C 54.068444 183.711 54.686579 183.469184 55.142269 183.03881 
C 55.59796 182.608436 55.854 182.024641 55.854 181.416 
C 55.854 180.807359 55.59796 180.223564 55.142269 179.79319 
C 54.686579 179.362816 54.068444 179.121 53.424 179.121 
C 52.779556 179.121 52.161421 179.362816 51.705731 179.79319 
C 51.25004 180.223564 50.994 180.807359 50.994 181.416 
C 50.994 182.024641 51.25004 182.608436 51.705731 183.03881 
C 52.161421 183.469184 52.779556 183.711 53.424 183.711 
z
" style="fill:#ff0000;stroke:#ff0000;stroke-linejoin:miter;stroke-width:2;"/>
   </g>
   <g id="text_7">
    <!-- 1 -->
    <g style="fill:#ff0000;" transform="translate(13.6825 77.626438)scale(0.14 -0.14)">
     <use xlink:href="#DejaVuSans-49"/>
    </g>
   </g>
   <g id="text_8">
    <!-- 3 -->
    <g style="fill:#ff0000;" transform="translate(63.9565 28.768438)scale(0.14 -0.14)">
     <defs>
      <path d="M 40.578125 39.3125 
Q 47.65625 37.796875 51.625 33 
Q 55.609375 28.21875 55.609375 21.1875 
Q 55.609375 10.40625 48.1875 4.484375 
Q 40.765625 -1.421875 27.09375 -1.421875 
Q 22.515625 -1.421875 17.65625 -0.515625 
Q 12.796875 0.390625 7.625 2.203125 
L 7.625 11.71875 
Q 11.71875 9.328125 16.59375 8.109375 
Q 21.484375 6.890625 26.8125 6.890625 
Q 36.078125 6.890625 40.9375 10.546875 
Q 45.796875 14.203125 45.796875 21.1875 
Q 45.796875 27.640625 41.28125 31.265625 
Q 36.765625 34.90625 28.71875 34.90625 
L 20.21875 34.90625 
L 20.21875 43.015625 
L 29.109375 43.015625 
Q 36.375 43.015625 40.234375 45.921875 
Q 44.09375 48.828125 44.09375 54.296875 
Q 44.09375 59.90625 40.109375 62.90625 
Q 36.140625 65.921875 28.71875 65.921875 
Q 24.65625 65.921875 20.015625 65.03125 
Q 15.375 64.15625 9.8125 62.3125 
L 9.8125 71.09375 
Q 15.4375 72.65625 20.34375 73.4375 
Q 25.25 74.21875 29.59375 74.21875 
Q 40.828125 74.21875 47.359375 69.109375 
Q 53.90625 64.015625 53.90625 55.328125 
Q 53.90625 49.265625 50.4375 45.09375 
Q 46.96875 40.921875 40.578125 39.3125 
z
" id="DejaVuSans-51"/>
     </defs>
     <use xlink:href="#DejaVuSans-51"/>
    </g>
   </g>
   <g id="text_9">
    <!-- 2 -->
    <g style="fill:#ff0000;" transform="translate(57.4765 77.524438)scale(0.14 -0.14)">
     <defs>
      <path d="M 19.1875 8.296875 
L 53.609375 8.296875 
L 53.609375 0 
L 7.328125 0 
L 7.328125 8.296875 
Q 12.9375 14.109375 22.625 23.890625 
Q 32.328125 33.6875 34.8125 36.53125 
Q 39.546875 41.84375 41.421875 45.53125 
Q 43.3125 49.21875 43.3125 52.78125 
Q 43.3125 58.59375 39.234375 62.25 
Q 35.15625 65.921875 28.609375 65.921875 
Q 23.96875 65.921875 18.8125 64.3125 
Q 13.671875 62.703125 7.8125 59.421875 
L 7.8125 69.390625 
Q 13.765625 71.78125 18.9375 73 
Q 24.125 74.21875 28.421875 74.21875 
Q 39.75 74.21875 46.484375 68.546875 
Q 53.21875 62.890625 53.21875 53.421875 
Q 53.21875 48.921875 51.53125 44.890625 
Q 49.859375 40.875 45.40625 35.40625 
Q 44.1875 33.984375 37.640625 27.21875 
Q 31.109375 20.453125 19.1875 8.296875 
z
" id="DejaVuSans-50"/>
     </defs>
     <use xlink:href="#DejaVuSans-50"/>
    </g>
   </g>
   <g id="text_10">
    <!-- 5 -->
    <g style="fill:#ff0000;" transform="translate(154.6765 77.524437)scale(0.14 -0.14)">
     <defs>
      <path d="M 10.796875 72.90625 
L 49.515625 72.90625 
L 49.515625 64.59375 
L 19.828125 64.59375 
L 19.828125 46.734375 
Q 21.96875 47.46875 24.109375 47.828125 
Q 26.265625 48.1875 28.421875 48.1875 
Q 40.625 48.1875 47.75 41.5 
Q 54.890625 34.8125 54.890625 23.390625 
Q 54.890625 11.625 47.5625 5.09375 
Q 40.234375 -1.421875 26.90625 -1.421875 
Q 22.3125 -1.421875 17.546875 -0.640625 
Q 12.796875 0.140625 7.71875 1.703125 
L 7.71875 11.625 
Q 12.109375 9.234375 16.796875 8.0625 
Q 21.484375 6.890625 26.703125 6.890625 
Q 35.15625 6.890625 40.078125 11.328125 
Q 45.015625 15.765625 45.015625 23.390625 
Q 45.015625 31 40.078125 35.4375 
Q 35.15625 39.890625 26.703125 39.890625 
Q 22.75 39.890625 18.8125 39.015625 
Q 14.890625 38.140625 10.796875 36.28125 
z
" id="DejaVuSans-53"/>
     </defs>
     <use xlink:href="#DejaVuSans-53"/>
    </g>
   </g>
   <g id="text_11">
    <!-- 6 -->
    <g style="fill:#ff0000;" transform="translate(251.8765 77.524437)scale(0.14 -0.14)">
     <defs>
      <path d="M 33.015625 40.375 
Q 26.375 40.375 22.484375 35.828125 
Q 18.609375 31.296875 18.609375 23.390625 
Q 18.609375 15.53125 22.484375 10.953125 
Q 26.375 6.390625 33.015625 6.390625 
Q 39.65625 6.390625 43.53125 10.953125 
Q 47.40625 15.53125 47.40625 23.390625 
Q 47.40625 31.296875 43.53125 35.828125 
Q 39.65625 40.375 33.015625 40.375 
z
M 52.59375 71.296875 
L 52.59375 62.3125 
Q 48.875 64.0625 45.09375 64.984375 
Q 41.3125 65.921875 37.59375 65.921875 
Q 27.828125 65.921875 22.671875 59.328125 
Q 17.53125 52.734375 16.796875 39.40625 
Q 19.671875 43.65625 24.015625 45.921875 
Q 28.375 48.1875 33.59375 48.1875 
Q 44.578125 48.1875 50.953125 41.515625 
Q 57.328125 34.859375 57.328125 23.390625 
Q 57.328125 12.15625 50.6875 5.359375 
Q 44.046875 -1.421875 33.015625 -1.421875 
Q 20.359375 -1.421875 13.671875 8.265625 
Q 6.984375 17.96875 6.984375 36.375 
Q 6.984375 53.65625 15.1875 63.9375 
Q 23.390625 74.21875 37.203125 74.21875 
Q 40.921875 74.21875 44.703125 73.484375 
Q 48.484375 72.75 52.59375 71.296875 
z
" id="DejaVuSans-54"/>
     </defs>
     <use xlink:href="#DejaVuSans-54"/>
    </g>
   </g>
   <g id="text_12">
    <!-- 0 -->
    <g style="fill:#ff0000;" transform="translate(57.4765 169.324437)scale(0.14 -0.14)">
     <defs>
      <path d="M 31.78125 66.40625 
Q 24.171875 66.40625 20.328125 58.90625 
Q 16.5 51.421875 16.5 36.375 
Q 16.5 21.390625 20.328125 13.890625 
Q 24.171875 6.390625 31.78125 6.390625 
Q 39.453125 6.390625 43.28125 13.890625 
Q 47.125 21.390625 47.125 36.375 
Q 47.125 51.421875 43.28125 58.90625 
Q 39.453125 66.40625 31.78125 66.40625 
z
M 31.78125 74.21875 
Q 44.046875 74.21875 50.515625 64.515625 
Q 56.984375 54.828125 56.984375 36.375 
Q 56.984375 17.96875 50.515625 8.265625 
Q 44.046875 -1.421875 31.78125 -1.421875 
Q 19.53125 -1.421875 13.0625 8.265625 
Q 6.59375 17.96875 6.59375 36.375 
Q 6.59375 54.828125 13.0625 64.515625 
Q 19.53125 74.21875 31.78125 74.21875 
z
" id="DejaVuSans-48"/>
     </defs>
     <use xlink:href="#DejaVuSans-48"/>
    </g>
   </g>
  </g>
 </g>
 <defs>
  <clipPath id="p0d319eb111">
   <rect height="196.86" width="262.494" x="7.2" y="7.2"/>
  </clipPath>
 </defs>
</svg>
