<?xml version="1.0" encoding="utf-8" standalone="no"?>
<!DOCTYPE svg PUBLIC "-//W3C//DTD SVG 1.1//EN"
  "http://www.w3.org/Graphics/SVG/1.1/DTD/svg11.dtd">
<svg xmlns:xlink="http://www.w3.org/1999/xlink" width="429.4834pt" height="198.34pt" viewBox="0 0 429.4834 198.34" xmlns="http://www.w3.org/2000/svg" version="1.1">
 <metadata>
  <rdf:RDF xmlns:dc="http://purl.org/dc/elements/1.1/" xmlns:cc="http://creativecommons.org/ns#" xmlns:rdf="http://www.w3.org/1999/02/22-rdf-syntax-ns#">
   <cc:Work>
    <dc:type rdf:resource="http://purl.org/dc/dcmitype/StillImage"/>
    <dc:date>2021-12-12T23:35:13.858582</dc:date>
    <dc:format>image/svg+xml</dc:format>
    <dc:creator>
     <cc:Agent>
      <dc:title>Matplotlib v3.5.0, https://matplotlib.org/</dc:title>
     </cc:Agent>
    </dc:creator>
   </cc:Work>
  </rdf:RDF>
 </metadata>
 <defs>
  <style type="text/css">*{stroke-linejoin: round; stroke-linecap: butt}</style>
 </defs>
 <g id="figure_1">
  <g id="patch_1">
   <path d="M 0 198.34 
L 429.4834 198.34 
L 429.4834 0 
L 0 0 
L 0 198.34 
z
" style="fill: none"/>
  </g>
  <g id="axes_1">
   <g id="patch_2">
    <path d="M 51.7434 99.34 
C 55.801007 99.34 59.692972 97.727895 62.562134 94.858734 
C 65.431295 91.989572 67.0434 88.097607 67.0434 84.04 
C 67.0434 79.982393 65.431295 76.090428 62.562134 73.221266 
C 59.692972 70.352105 55.801007 68.74 51.7434 68.74 
C 47.685793 68.74 43.793828 70.352105 40.924666 73.221266 
C 38.055505 76.090428 36.4434 79.982393 36.4434 84.04 
C 36.4434 88.097607 38.055505 91.989572 40.924666 94.858734 
C 43.793828 97.727895 47.685793 99.34 51.7434 99.34 
L 51.7434 99.34 
z
" clip-path="url(#p76c99d91b8)" style="fill: none; stroke: #000000; stroke-width: 2; stroke-linejoin: miter"/>
   </g>
   <g id="patch_3">
    <path d="M 105.2934 65.68 
C 105.2934 64.474493 105.174671 63.280709 104.944007 62.166966 
C 104.713343 61.053223 104.375231 60.041182 103.94902 59.18876 
C 103.522809 58.336338 103.016788 57.660113 102.459917 57.198786 
C 101.903046 56.737459 101.306153 56.5 100.7034 56.5 
C 100.100647 56.5 99.503754 56.737459 98.946883 57.198786 
C 98.390012 57.660113 97.883991 58.336338 97.45778 59.18876 
C 97.031569 60.041182 96.693457 61.053223 96.462793 62.166966 
C 96.232129 63.280709 96.1134 64.474493 96.1134 65.68 
C 96.1134 66.885507 96.232129 68.079291 96.462793 69.193034 
C 96.693457 70.306777 97.031569 71.318818 97.45778 72.17124 
C 97.883991 73.023662 98.390012 73.699887 98.946883 74.161214 
C 99.503754 74.622541 100.100647 74.86 100.7034 74.86 
C 101.306153 74.86 101.903046 74.622541 102.459917 74.161214 
C 103.016788 73.699887 103.522809 73.023662 103.94902 72.17124 
C 104.375231 71.318818 104.713343 70.306777 104.944007 69.193034 
C 105.174671 68.079291 105.2934 66.885507 105.2934 65.68 
" clip-path="url(#p76c99d91b8)" style="fill: none; stroke: #000000; stroke-width: 2; stroke-linejoin: miter"/>
   </g>
   <g id="patch_4">
    <path d="M 216.9834 74.86 
C 218.200277 74.86 219.368558 73.892164 220.22902 72.17124 
C 221.089482 70.450317 221.5734 68.113754 221.5734 65.68 
C 221.5734 63.246246 221.089482 60.909683 220.22902 59.18876 
C 219.368558 57.467836 218.200277 56.5 216.9834 56.5 
" clip-path="url(#p76c99d91b8)" style="fill: none; stroke: #000000; stroke-width: 2; stroke-linejoin: miter"/>
   </g>
   <g id="patch_5">
    <path d="M 235.3434 88.63 
C 236.548907 88.63 237.742691 88.511271 238.856434 88.280607 
C 239.970177 88.049943 240.982218 87.711831 241.83464 87.28562 
C 242.687062 86.859409 243.363287 86.353388 243.824614 85.796517 
C 244.285941 85.239646 244.5234 84.642753 244.5234 84.04 
C 244.5234 83.437247 244.285941 82.840354 243.824614 82.283483 
C 243.363287 81.726612 242.687062 81.220591 241.83464 80.79438 
C 240.982218 80.368169 239.970177 80.030057 238.856434 79.799393 
C 237.742691 79.568729 236.548907 79.45 235.3434 79.45 
C 234.137893 79.45 232.944109 79.568729 231.830366 79.799393 
C 230.716623 80.030057 229.704582 80.368169 228.85216 80.79438 
C 227.999738 81.220591 227.323513 81.726612 226.862186 82.283483 
C 226.400859 82.840354 226.1634 83.437247 226.1634 84.04 
C 226.1634 84.642753 226.400859 85.239646 226.862186 85.796517 
C 227.323513 86.353388 227.999738 86.859409 228.85216 87.28562 
C 229.704582 87.711831 230.716623 88.049943 231.830366 88.280607 
C 232.944109 88.511271 234.137893 88.63 235.3434 88.63 
" clip-path="url(#p76c99d91b8)" style="fill: none; stroke: #000000; stroke-width: 2; stroke-linejoin: miter"/>
   </g>
   <g id="patch_6">
    <path d="M 226.1634 169.72 
C 226.1634 170.936877 227.131236 172.105158 228.85216 172.96562 
C 230.573083 173.826082 232.909646 174.31 235.3434 174.31 
C 237.777154 174.31 240.113717 173.826082 241.83464 172.96562 
C 243.555564 172.105158 244.5234 170.936877 244.5234 169.72 
" clip-path="url(#p76c99d91b8)" style="fill: none; stroke: #000000; stroke-width: 2; stroke-linejoin: miter"/>
   </g>
   <g id="patch_7">
    <path d="M 258.2934 65.68 
C 258.2934 64.474493 258.174671 63.280709 257.944007 62.166966 
C 257.713343 61.053223 257.375231 60.041182 256.94902 59.18876 
C 256.522809 58.336338 256.016788 57.660113 255.459917 57.198786 
C 254.903046 56.737459 254.306153 56.5 253.7034 56.5 
C 253.100647 56.5 252.503754 56.737459 251.946883 57.198786 
C 251.390012 57.660113 250.883991 58.336338 250.45778 59.18876 
C 250.031569 60.041182 249.693457 61.053223 249.462793 62.166966 
C 249.232129 63.280709 249.1134 64.474493 249.1134 65.68 
C 249.1134 66.885507 249.232129 68.079291 249.462793 69.193034 
C 249.693457 70.306777 250.031569 71.318818 250.45778 72.17124 
C 250.883991 73.023662 251.390012 73.699887 251.946883 74.161214 
C 252.503754 74.622541 253.100647 74.86 253.7034 74.86 
C 254.306153 74.86 254.903046 74.622541 255.459917 74.161214 
C 256.016788 73.699887 256.522809 73.023662 256.94902 72.17124 
C 257.375231 71.318818 257.713343 70.306777 257.944007 69.193034 
C 258.174671 68.079291 258.2934 66.885507 258.2934 65.68 
" clip-path="url(#p76c99d91b8)" style="fill: none; stroke: #000000; stroke-width: 2; stroke-linejoin: miter"/>
   </g>
   <g id="patch_8">
    <path d="M 339.3834 74.86 
C 340.600277 74.86 341.768558 73.892164 342.62902 72.17124 
C 343.489482 70.450317 343.9734 68.113754 343.9734 65.68 
C 343.9734 63.246246 343.489482 60.909683 342.62902 59.18876 
C 341.768558 57.467836 340.600277 56.5 339.3834 56.5 
" clip-path="url(#p76c99d91b8)" style="fill: none; stroke: #000000; stroke-width: 2; stroke-linejoin: miter"/>
   </g>
   <g id="line2d_1">
    <path d="M 51.7434 114.64 
L 51.7434 126.88 
L 44.0934 126.88 
L 59.3934 126.88 
M 46.3884 130.552 
L 57.0984 130.552 
M 50.2134 134.224 
L 53.2734 134.224 
" clip-path="url(#p76c99d91b8)" style="fill: none; stroke: #000000; stroke-width: 2; stroke-linecap: round"/>
   </g>
   <g id="line2d_2">
    <path d="M 51.7434 114.64 
L 51.7434 99.34 
L 51.7434 99.34 
M 51.7434 68.74 
L 51.7434 68.74 
L 51.7434 53.44 
" clip-path="url(#p76c99d91b8)" style="fill: none; stroke: #000000; stroke-width: 2; stroke-linecap: round"/>
   </g>
   <g id="line2d_3">
    <path d="M 59.3934 84.04 
L 58.7559 82.456027 
L 58.1184 80.98 
L 57.4809 79.712506 
L 56.8434 78.739925 
L 56.2059 78.128534 
L 55.5684 77.92 
L 54.9309 78.128534 
L 54.2934 78.739925 
L 53.6559 79.712506 
L 53.0184 80.98 
L 52.3809 82.456027 
L 51.7434 84.04 
L 51.1059 85.623973 
L 50.4684 87.1 
L 49.8309 88.367494 
L 49.1934 89.340075 
L 48.5559 89.951466 
L 47.9184 90.16 
L 47.2809 89.951466 
L 46.6434 89.340075 
L 46.0059 88.367494 
L 45.3684 87.1 
L 44.7309 85.623973 
L 44.0934 84.04 
" clip-path="url(#p76c99d91b8)" style="fill: none; stroke: #000000; stroke-width: 2; stroke-linecap: round"/>
   </g>
   <g id="line2d_4">
    <path d="M 51.7434 53.44 
L 67.0434 53.44 
L 82.3434 53.44 
" clip-path="url(#p76c99d91b8)" style="fill: none; stroke: #000000; stroke-width: 2; stroke-linecap: round"/>
   </g>
   <g id="line2d_5">
    <path d="M 82.3434 53.44 
L 82.3434 59.56 
L 82.3434 65.68 
" clip-path="url(#p76c99d91b8)" style="fill: none; stroke: #000000; stroke-width: 2; stroke-linecap: round"/>
   </g>
   <g id="line2d_6">
    <path d="M 82.3434 65.68 
L 100.7034 65.68 
M 221.5734 65.68 
L 235.3434 65.68 
" clip-path="url(#p76c99d91b8)" style="fill: none; stroke: #000000; stroke-width: 2; stroke-linecap: round"/>
   </g>
   <g id="line2d_7">
    <path d="M 100.7034 56.5 
L 216.9834 56.5 
" clip-path="url(#p76c99d91b8)" style="fill: none; stroke: #000000; stroke-width: 2; stroke-linecap: round"/>
   </g>
   <g id="line2d_8">
    <path d="M 100.7034 74.86 
L 216.9834 74.86 
" clip-path="url(#p76c99d91b8)" style="fill: none; stroke: #000000; stroke-width: 2; stroke-linecap: round"/>
   </g>
   <g id="line2d_9">
    <path d="M 235.3434 65.68 
L 235.3434 84.04 
M 235.3434 174.31 
L 235.3434 188.08 
" clip-path="url(#p76c99d91b8)" style="fill: none; stroke: #000000; stroke-width: 2; stroke-linecap: round"/>
   </g>
   <g id="line2d_10">
    <path d="M 244.5234 84.04 
L 244.5234 169.72 
" clip-path="url(#p76c99d91b8)" style="fill: none; stroke: #000000; stroke-width: 2; stroke-linecap: round"/>
   </g>
   <g id="line2d_11">
    <path d="M 226.1634 84.04 
L 226.1634 169.72 
" clip-path="url(#p76c99d91b8)" style="fill: none; stroke: #000000; stroke-width: 2; stroke-linecap: round"/>
   </g>
   <g id="line2d_12">
    <path d="M 216.9834 74.86 
L 216.9834 79.45 
L 216.9834 84.04 
" clip-path="url(#p76c99d91b8)" style="fill: none; stroke: #000000; stroke-width: 2; stroke-linecap: round"/>
   </g>
   <g id="line2d_13">
    <path d="M 216.9834 84.04 
L 221.5734 84.04 
L 226.1634 84.04 
" clip-path="url(#p76c99d91b8)" style="fill: none; stroke: #000000; stroke-width: 2; stroke-linecap: round"/>
   </g>
   <g id="line2d_14">
    <path d="M 235.3434 65.68 
L 253.7034 65.68 
M 343.9734 65.68 
L 357.7434 65.68 
" clip-path="url(#p76c99d91b8)" style="fill: none; stroke: #000000; stroke-width: 2; stroke-linecap: round"/>
   </g>
   <g id="line2d_15">
    <path d="M 253.7034 56.5 
L 339.3834 56.5 
" clip-path="url(#p76c99d91b8)" style="fill: none; stroke: #000000; stroke-width: 2; stroke-linecap: round"/>
   </g>
   <g id="line2d_16">
    <path d="M 253.7034 74.86 
L 339.3834 74.86 
" clip-path="url(#p76c99d91b8)" style="fill: none; stroke: #000000; stroke-width: 2; stroke-linecap: round"/>
   </g>
   <g id="line2d_17">
    <path d="M 357.7434 65.68 
L 357.7434 47.32 
L 346.1154 28.96 
L 369.3714 28.96 
L 357.7434 47.32 
" clip-path="url(#p76c99d91b8)" style="fill: none; stroke: #000000; stroke-width: 2; stroke-linecap: round"/>
   </g>
   <g id="line2d_18">
    <path d="M 216.9834 56.5 
L 216.9834 41.2 
L 216.9834 25.9 
" clip-path="url(#p76c99d91b8)" style="fill: none; stroke: #000000; stroke-width: 2; stroke-linecap: round"/>
   </g>
   <g id="line2d_19">
    <path d="M 216.9834 25.9 
L 235.3434 25.9 
L 253.7034 25.9 
" clip-path="url(#p76c99d91b8)" style="fill: none; stroke: #000000; stroke-width: 2; stroke-linecap: round"/>
   </g>
   <g id="line2d_20">
    <path d="M 253.7034 25.9 
L 253.7034 41.2 
L 253.7034 56.5 
" clip-path="url(#p76c99d91b8)" style="fill: none; stroke: #000000; stroke-width: 2; stroke-linecap: round"/>
   </g>
   <g id="line2d_21">
    <path d="M 51.7434 114.64 
L 76.2234 114.64 
L 100.7034 114.64 
" clip-path="url(#p76c99d91b8)" style="fill: none; stroke: #000000; stroke-width: 2; stroke-linecap: round"/>
   </g>
   <g id="line2d_22">
    <path d="M 100.7034 114.64 
L 100.7034 94.75 
L 100.7034 74.86 
" clip-path="url(#p76c99d91b8)" style="fill: none; stroke: #000000; stroke-width: 2; stroke-linecap: round"/>
   </g>
   <g id="text_1">
    <!-- $V_{in}$ -->
    <g transform="translate(14.4834 87.903125)scale(0.14 -0.14)">
     <defs>
      <path id="DejaVuSans-Oblique-56" d="M 1319 0 
L 500 4666 
L 1119 4666 
L 1797 653 
L 4063 4666 
L 4750 4666 
L 2053 0 
L 1319 0 
z
" transform="scale(0.015625)"/>
      <path id="DejaVuSans-Oblique-69" d="M 1172 4863 
L 1747 4863 
L 1606 4134 
L 1031 4134 
L 1172 4863 
z
M 909 3500 
L 1484 3500 
L 800 0 
L 225 0 
L 909 3500 
z
" transform="scale(0.015625)"/>
      <path id="DejaVuSans-Oblique-6e" d="M 3566 2113 
L 3156 0 
L 2578 0 
L 2988 2091 
Q 3016 2238 3031 2350 
Q 3047 2463 3047 2528 
Q 3047 2791 2881 2937 
Q 2716 3084 2419 3084 
Q 1956 3084 1622 2776 
Q 1288 2469 1184 1941 
L 800 0 
L 225 0 
L 903 3500 
L 1478 3500 
L 1363 2950 
Q 1603 3253 1940 3418 
Q 2278 3584 2650 3584 
Q 3113 3584 3367 3334 
Q 3622 3084 3622 2631 
Q 3622 2519 3608 2391 
Q 3594 2263 3566 2113 
z
" transform="scale(0.015625)"/>
     </defs>
     <use xlink:href="#DejaVuSans-Oblique-56" transform="translate(0 0.09375)"/>
     <use xlink:href="#DejaVuSans-Oblique-69" transform="translate(68.408203 -16.3125)scale(0.7)"/>
     <use xlink:href="#DejaVuSans-Oblique-6e" transform="translate(87.856445 -16.3125)scale(0.7)"/>
    </g>
   </g>
   <g id="text_2">
    <!-- $50\Omega$ -->
    <g transform="translate(144.5634 50.528437)scale(0.14 -0.14)">
     <defs>
      <path id="DejaVuSans-35" d="M 691 4666 
L 3169 4666 
L 3169 4134 
L 1269 4134 
L 1269 2991 
Q 1406 3038 1543 3061 
Q 1681 3084 1819 3084 
Q 2600 3084 3056 2656 
Q 3513 2228 3513 1497 
Q 3513 744 3044 326 
Q 2575 -91 1722 -91 
Q 1428 -91 1123 -41 
Q 819 9 494 109 
L 494 744 
Q 775 591 1075 516 
Q 1375 441 1709 441 
Q 2250 441 2565 725 
Q 2881 1009 2881 1497 
Q 2881 1984 2565 2268 
Q 2250 2553 1709 2553 
Q 1456 2553 1204 2497 
Q 953 2441 691 2322 
L 691 4666 
z
" transform="scale(0.015625)"/>
      <path id="DejaVuSans-30" d="M 2034 4250 
Q 1547 4250 1301 3770 
Q 1056 3291 1056 2328 
Q 1056 1369 1301 889 
Q 1547 409 2034 409 
Q 2525 409 2770 889 
Q 3016 1369 3016 2328 
Q 3016 3291 2770 3770 
Q 2525 4250 2034 4250 
z
M 2034 4750 
Q 2819 4750 3233 4129 
Q 3647 3509 3647 2328 
Q 3647 1150 3233 529 
Q 2819 -91 2034 -91 
Q 1250 -91 836 529 
Q 422 1150 422 2328 
Q 422 3509 836 4129 
Q 1250 4750 2034 4750 
z
" transform="scale(0.015625)"/>
      <path id="DejaVuSans-3a9" d="M 4647 556 
L 4647 0 
L 2772 0 
L 2772 556 
Q 3325 859 3634 1378 
Q 3944 1897 3944 2528 
Q 3944 3278 3531 3731 
Q 3119 4184 2444 4184 
Q 1769 4184 1355 3729 
Q 941 3275 941 2528 
Q 941 1897 1250 1378 
Q 1563 859 2119 556 
L 2119 0 
L 244 0 
L 244 556 
L 1241 556 
Q 747 991 519 1456 
Q 294 1922 294 2497 
Q 294 3491 894 4106 
Q 1491 4722 2444 4722 
Q 3391 4722 3994 4106 
Q 4594 3494 4594 2528 
Q 4594 1922 4372 1459 
Q 4150 997 3647 556 
L 4647 556 
z
" transform="scale(0.015625)"/>
     </defs>
     <use xlink:href="#DejaVuSans-35" transform="translate(0 0.78125)"/>
     <use xlink:href="#DejaVuSans-30" transform="translate(63.623047 0.78125)"/>
     <use xlink:href="#DejaVuSans-3a9" transform="translate(127.246094 0.78125)"/>
    </g>
   </g>
   <g id="text_3">
    <!-- $50\Omega$ -->
    <g transform="translate(194.5434 130.743125)scale(0.14 -0.14)">
     <use xlink:href="#DejaVuSans-35" transform="translate(0 0.78125)"/>
     <use xlink:href="#DejaVuSans-30" transform="translate(63.623047 0.78125)"/>
     <use xlink:href="#DejaVuSans-3a9" transform="translate(127.246094 0.78125)"/>
    </g>
   </g>
   <g id="text_4">
    <!-- 3.1 mm -->
    <g transform="translate(247.5834 130.743125)scale(0.14 -0.14)">
     <defs>
      <path id="DejaVuSans-33" d="M 2597 2516 
Q 3050 2419 3304 2112 
Q 3559 1806 3559 1356 
Q 3559 666 3084 287 
Q 2609 -91 1734 -91 
Q 1441 -91 1130 -33 
Q 819 25 488 141 
L 488 750 
Q 750 597 1062 519 
Q 1375 441 1716 441 
Q 2309 441 2620 675 
Q 2931 909 2931 1356 
Q 2931 1769 2642 2001 
Q 2353 2234 1838 2234 
L 1294 2234 
L 1294 2753 
L 1863 2753 
Q 2328 2753 2575 2939 
Q 2822 3125 2822 3475 
Q 2822 3834 2567 4026 
Q 2313 4219 1838 4219 
Q 1578 4219 1281 4162 
Q 984 4106 628 3988 
L 628 4550 
Q 988 4650 1302 4700 
Q 1616 4750 1894 4750 
Q 2613 4750 3031 4423 
Q 3450 4097 3450 3541 
Q 3450 3153 3228 2886 
Q 3006 2619 2597 2516 
z
" transform="scale(0.015625)"/>
      <path id="DejaVuSans-2e" d="M 684 794 
L 1344 794 
L 1344 0 
L 684 0 
L 684 794 
z
" transform="scale(0.015625)"/>
      <path id="DejaVuSans-31" d="M 794 531 
L 1825 531 
L 1825 4091 
L 703 3866 
L 703 4441 
L 1819 4666 
L 2450 4666 
L 2450 531 
L 3481 531 
L 3481 0 
L 794 0 
L 794 531 
z
" transform="scale(0.015625)"/>
      <path id="DejaVuSans-20" transform="scale(0.015625)"/>
      <path id="DejaVuSans-6d" d="M 3328 2828 
Q 3544 3216 3844 3400 
Q 4144 3584 4550 3584 
Q 5097 3584 5394 3201 
Q 5691 2819 5691 2113 
L 5691 0 
L 5113 0 
L 5113 2094 
Q 5113 2597 4934 2840 
Q 4756 3084 4391 3084 
Q 3944 3084 3684 2787 
Q 3425 2491 3425 1978 
L 3425 0 
L 2847 0 
L 2847 2094 
Q 2847 2600 2669 2842 
Q 2491 3084 2119 3084 
Q 1678 3084 1418 2786 
Q 1159 2488 1159 1978 
L 1159 0 
L 581 0 
L 581 3500 
L 1159 3500 
L 1159 2956 
Q 1356 3278 1631 3431 
Q 1906 3584 2284 3584 
Q 2666 3584 2933 3390 
Q 3200 3197 3328 2828 
z
" transform="scale(0.015625)"/>
     </defs>
     <use xlink:href="#DejaVuSans-33"/>
     <use xlink:href="#DejaVuSans-2e" x="63.623047"/>
     <use xlink:href="#DejaVuSans-31" x="95.410156"/>
     <use xlink:href="#DejaVuSans-20" x="159.033203"/>
     <use xlink:href="#DejaVuSans-6d" x="190.820312"/>
     <use xlink:href="#DejaVuSans-6d" x="288.232422"/>
    </g>
   </g>
   <g id="text_5">
    <!-- $50\Omega$ -->
    <g transform="translate(282.2634 50.528437)scale(0.14 -0.14)">
     <use xlink:href="#DejaVuSans-35" transform="translate(0 0.78125)"/>
     <use xlink:href="#DejaVuSans-30" transform="translate(63.623047 0.78125)"/>
     <use xlink:href="#DejaVuSans-3a9" transform="translate(127.246094 0.78125)"/>
    </g>
   </g>
   <g id="text_6">
    <!-- 2.8 mm -->
    <g transform="translate(269.54965 88.557812)scale(0.14 -0.14)">
     <defs>
      <path id="DejaVuSans-32" d="M 1228 531 
L 3431 531 
L 3431 0 
L 469 0 
L 469 531 
Q 828 903 1448 1529 
Q 2069 2156 2228 2338 
Q 2531 2678 2651 2914 
Q 2772 3150 2772 3378 
Q 2772 3750 2511 3984 
Q 2250 4219 1831 4219 
Q 1534 4219 1204 4116 
Q 875 4013 500 3803 
L 500 4441 
Q 881 4594 1212 4672 
Q 1544 4750 1819 4750 
Q 2544 4750 2975 4387 
Q 3406 4025 3406 3419 
Q 3406 3131 3298 2873 
Q 3191 2616 2906 2266 
Q 2828 2175 2409 1742 
Q 1991 1309 1228 531 
z
" transform="scale(0.015625)"/>
      <path id="DejaVuSans-38" d="M 2034 2216 
Q 1584 2216 1326 1975 
Q 1069 1734 1069 1313 
Q 1069 891 1326 650 
Q 1584 409 2034 409 
Q 2484 409 2743 651 
Q 3003 894 3003 1313 
Q 3003 1734 2745 1975 
Q 2488 2216 2034 2216 
z
M 1403 2484 
Q 997 2584 770 2862 
Q 544 3141 544 3541 
Q 544 4100 942 4425 
Q 1341 4750 2034 4750 
Q 2731 4750 3128 4425 
Q 3525 4100 3525 3541 
Q 3525 3141 3298 2862 
Q 3072 2584 2669 2484 
Q 3125 2378 3379 2068 
Q 3634 1759 3634 1313 
Q 3634 634 3220 271 
Q 2806 -91 2034 -91 
Q 1263 -91 848 271 
Q 434 634 434 1313 
Q 434 1759 690 2068 
Q 947 2378 1403 2484 
z
M 1172 3481 
Q 1172 3119 1398 2916 
Q 1625 2713 2034 2713 
Q 2441 2713 2670 2916 
Q 2900 3119 2900 3481 
Q 2900 3844 2670 4047 
Q 2441 4250 2034 4250 
Q 1625 4250 1398 4047 
Q 1172 3844 1172 3481 
z
" transform="scale(0.015625)"/>
     </defs>
     <use xlink:href="#DejaVuSans-32"/>
     <use xlink:href="#DejaVuSans-2e" x="63.623047"/>
     <use xlink:href="#DejaVuSans-38" x="95.410156"/>
     <use xlink:href="#DejaVuSans-20" x="159.033203"/>
     <use xlink:href="#DejaVuSans-6d" x="190.820312"/>
     <use xlink:href="#DejaVuSans-6d" x="288.232422"/>
    </g>
   </g>
   <g id="text_7">
    <!-- $39.371 + j 9.5971\Omega$ -->
    <g transform="translate(293.2034 22.96)scale(0.14 -0.14)">
     <defs>
      <path id="DejaVuSans-39" d="M 703 97 
L 703 672 
Q 941 559 1184 500 
Q 1428 441 1663 441 
Q 2288 441 2617 861 
Q 2947 1281 2994 2138 
Q 2813 1869 2534 1725 
Q 2256 1581 1919 1581 
Q 1219 1581 811 2004 
Q 403 2428 403 3163 
Q 403 3881 828 4315 
Q 1253 4750 1959 4750 
Q 2769 4750 3195 4129 
Q 3622 3509 3622 2328 
Q 3622 1225 3098 567 
Q 2575 -91 1691 -91 
Q 1453 -91 1209 -44 
Q 966 3 703 97 
z
M 1959 2075 
Q 2384 2075 2632 2365 
Q 2881 2656 2881 3163 
Q 2881 3666 2632 3958 
Q 2384 4250 1959 4250 
Q 1534 4250 1286 3958 
Q 1038 3666 1038 3163 
Q 1038 2656 1286 2365 
Q 1534 2075 1959 2075 
z
" transform="scale(0.015625)"/>
      <path id="DejaVuSans-37" d="M 525 4666 
L 3525 4666 
L 3525 4397 
L 1831 0 
L 1172 0 
L 2766 4134 
L 525 4134 
L 525 4666 
z
" transform="scale(0.015625)"/>
      <path id="DejaVuSans-2b" d="M 2944 4013 
L 2944 2272 
L 4684 2272 
L 4684 1741 
L 2944 1741 
L 2944 0 
L 2419 0 
L 2419 1741 
L 678 1741 
L 678 2272 
L 2419 2272 
L 2419 4013 
L 2944 4013 
z
" transform="scale(0.015625)"/>
      <path id="DejaVuSans-Oblique-6a" d="M 928 3500 
L 1503 3500 
L 813 -63 
L 809 -78 
Q 694 -675 544 -897 
Q 403 -1106 132 -1218 
Q -138 -1331 -506 -1331 
L -722 -1331 
L -628 -844 
L -481 -844 
Q -144 -844 -1 -703 
Q 141 -563 238 -63 
L 928 3500 
z
M 1197 4863 
L 1772 4863 
L 1631 4134 
L 1056 4134 
L 1197 4863 
z
" transform="scale(0.015625)"/>
     </defs>
     <use xlink:href="#DejaVuSans-33" transform="translate(0 0.015625)"/>
     <use xlink:href="#DejaVuSans-39" transform="translate(63.623047 0.015625)"/>
     <use xlink:href="#DejaVuSans-2e" transform="translate(127.246094 0.015625)"/>
     <use xlink:href="#DejaVuSans-33" transform="translate(159.033203 0.015625)"/>
     <use xlink:href="#DejaVuSans-37" transform="translate(222.65625 0.015625)"/>
     <use xlink:href="#DejaVuSans-31" transform="translate(286.279297 0.015625)"/>
     <use xlink:href="#DejaVuSans-2b" transform="translate(369.384766 0.015625)"/>
     <use xlink:href="#DejaVuSans-Oblique-6a" transform="translate(472.65625 0.015625)"/>
     <use xlink:href="#DejaVuSans-39" transform="translate(500.439453 0.015625)"/>
     <use xlink:href="#DejaVuSans-2e" transform="translate(564.0625 0.015625)"/>
     <use xlink:href="#DejaVuSans-35" transform="translate(595.849609 0.015625)"/>
     <use xlink:href="#DejaVuSans-39" transform="translate(653.972656 0.015625)"/>
     <use xlink:href="#DejaVuSans-37" transform="translate(717.595703 0.015625)"/>
     <use xlink:href="#DejaVuSans-31" transform="translate(781.21875 0.015625)"/>
     <use xlink:href="#DejaVuSans-3a9" transform="translate(844.841797 0.015625)"/>
    </g>
   </g>
   <g id="patch_9">
    <path d="M 51.7434 116.935 
C 52.352041 116.935 52.935836 116.693184 53.36621 116.26281 
C 53.796584 115.832436 54.0384 115.248641 54.0384 114.64 
C 54.0384 114.031359 53.796584 113.447564 53.36621 113.01719 
C 52.935836 112.586816 52.352041 112.345 51.7434 112.345 
C 51.134759 112.345 50.550964 112.586816 50.12059 113.01719 
C 49.690216 113.447564 49.4484 114.031359 49.4484 114.64 
C 49.4484 115.248641 49.690216 115.832436 50.12059 116.26281 
C 50.550964 116.693184 51.134759 116.935 51.7434 116.935 
z
" clip-path="url(#p76c99d91b8)" style="stroke: #000000; stroke-width: 2; stroke-linejoin: miter"/>
   </g>
   <g id="patch_10">
    <path d="M 235.3434 67.975 
C 235.952041 67.975 236.535836 67.733184 236.96621 67.30281 
C 237.396584 66.872436 237.6384 66.288641 237.6384 65.68 
C 237.6384 65.071359 237.396584 64.487564 236.96621 64.05719 
C 236.535836 63.626816 235.952041 63.385 235.3434 63.385 
C 234.734759 63.385 234.150964 63.626816 233.72059 64.05719 
C 233.290216 64.487564 233.0484 65.071359 233.0484 65.68 
C 233.0484 66.288641 233.290216 66.872436 233.72059 67.30281 
C 234.150964 67.733184 234.734759 67.975 235.3434 67.975 
z
" clip-path="url(#p76c99d91b8)" style="fill: #008000; stroke: #008000; stroke-width: 2; stroke-linejoin: miter"/>
   </g>
   <g id="patch_11">
    <path d="M 357.7434 67.975 
C 358.352041 67.975 358.935836 67.733184 359.36621 67.30281 
C 359.796584 66.872436 360.0384 66.288641 360.0384 65.68 
C 360.0384 65.071359 359.796584 64.487564 359.36621 64.05719 
C 358.935836 63.626816 358.352041 63.385 357.7434 63.385 
C 357.134759 63.385 356.550964 63.626816 356.12059 64.05719 
C 355.690216 64.487564 355.4484 65.071359 355.4484 65.68 
C 355.4484 66.288641 355.690216 66.872436 356.12059 67.30281 
C 356.550964 67.733184 357.134759 67.975 357.7434 67.975 
z
" clip-path="url(#p76c99d91b8)" style="fill: #ff0000; stroke: #ff0000; stroke-width: 2; stroke-linejoin: miter"/>
   </g>
  </g>
 </g>
 <defs>
  <clipPath id="p76c99d91b8">
   <rect x="7.2" y="7.2" width="410.8815" height="183.94"/>
  </clipPath>
 </defs>
</svg>
