<?xml version="1.0" encoding="utf-8" standalone="no"?>
<!DOCTYPE svg PUBLIC "-//W3C//DTD SVG 1.1//EN"
  "http://www.w3.org/Graphics/SVG/1.1/DTD/svg11.dtd">
<svg xmlns:xlink="http://www.w3.org/1999/xlink" width="470.5134pt" height="182.7pt" viewBox="0 0 470.5134 182.7" xmlns="http://www.w3.org/2000/svg" version="1.1">
 <metadata>
  <rdf:RDF xmlns:dc="http://purl.org/dc/elements/1.1/" xmlns:cc="http://creativecommons.org/ns#" xmlns:rdf="http://www.w3.org/1999/02/22-rdf-syntax-ns#">
   <cc:Work>
    <dc:type rdf:resource="http://purl.org/dc/dcmitype/StillImage"/>
    <dc:date>2022-02-16T23:44:10.833604</dc:date>
    <dc:format>image/svg+xml</dc:format>
    <dc:creator>
     <cc:Agent>
      <dc:title>Matplotlib v3.5.1, https://matplotlib.org/</dc:title>
     </cc:Agent>
    </dc:creator>
   </cc:Work>
  </rdf:RDF>
 </metadata>
 <defs>
  <style type="text/css">*{stroke-linejoin: round; stroke-linecap: butt}</style>
 </defs>
 <g id="figure_1">
  <g id="patch_1">
   <path d="M 0 182.7 
L 470.5134 182.7 
L 470.5134 0 
L 0 0 
L 0 182.7 
z
" style="fill: none"/>
  </g>
  <g id="axes_1">
   <g id="patch_2">
    <path d="M 54.8034 83.7 
C 58.861007 83.7 62.752972 82.087895 65.622134 79.218734 
C 68.491295 76.349572 70.1034 72.457607 70.1034 68.4 
C 70.1034 64.342393 68.491295 60.450428 65.622134 57.581266 
C 62.752972 54.712105 58.861007 53.1 54.8034 53.1 
C 50.745793 53.1 46.853828 54.712105 43.984666 57.581266 
C 41.115505 60.450428 39.5034 64.342393 39.5034 68.4 
C 39.5034 72.457607 41.115505 76.349572 43.984666 79.218734 
C 46.853828 82.087895 50.745793 83.7 54.8034 83.7 
L 54.8034 83.7 
z
" clip-path="url(#pc7e3674f46)" style="fill: none; stroke: #000000; stroke-width: 2; stroke-linejoin: miter"/>
   </g>
   <g id="patch_3">
    <path d="M 108.3534 50.04 
C 108.3534 48.834493 108.234671 47.640709 108.004007 46.526966 
C 107.773343 45.413223 107.435231 44.401182 107.00902 43.54876 
C 106.582809 42.696338 106.076788 42.020113 105.519917 41.558786 
C 104.963046 41.097459 104.366153 40.86 103.7634 40.86 
C 103.160647 40.86 102.563754 41.097459 102.006883 41.558786 
C 101.450012 42.020113 100.943991 42.696338 100.51778 43.54876 
C 100.091569 44.401182 99.753457 45.413223 99.522793 46.526966 
C 99.292129 47.640709 99.1734 48.834493 99.1734 50.04 
C 99.1734 51.245507 99.292129 52.439291 99.522793 53.553034 
C 99.753457 54.666777 100.091569 55.678818 100.51778 56.53124 
C 100.943991 57.383662 101.450012 58.059887 102.006883 58.521214 
C 102.563754 58.982541 103.160647 59.22 103.7634 59.22 
C 104.366153 59.22 104.963046 58.982541 105.519917 58.521214 
C 106.076788 58.059887 106.582809 57.383662 107.00902 56.53124 
C 107.435231 55.678818 107.773343 54.666777 108.004007 53.553034 
C 108.234671 52.439291 108.3534 51.245507 108.3534 50.04 
" clip-path="url(#pc7e3674f46)" style="fill: none; stroke: #000000; stroke-width: 2; stroke-linejoin: miter"/>
   </g>
   <g id="patch_4">
    <path d="M 220.0434 59.22 
C 221.260277 59.22 222.428558 58.252164 223.28902 56.53124 
C 224.149482 54.810317 224.6334 52.473754 224.6334 50.04 
C 224.6334 47.606246 224.149482 45.269683 223.28902 43.54876 
C 222.428558 41.827836 221.260277 40.86 220.0434 40.86 
" clip-path="url(#pc7e3674f46)" style="fill: none; stroke: #000000; stroke-width: 2; stroke-linejoin: miter"/>
   </g>
   <g id="patch_5">
    <path d="M 238.4034 72.99 
C 239.608907 72.99 240.802691 72.871271 241.916434 72.640607 
C 243.030177 72.409943 244.042218 72.071831 244.89464 71.64562 
C 245.747062 71.219409 246.423287 70.713388 246.884614 70.156517 
C 247.345941 69.599646 247.5834 69.002753 247.5834 68.4 
C 247.5834 67.797247 247.345941 67.200354 246.884614 66.643483 
C 246.423287 66.086612 245.747062 65.580591 244.89464 65.15438 
C 244.042218 64.728169 243.030177 64.390057 241.916434 64.159393 
C 240.802691 63.928729 239.608907 63.81 238.4034 63.81 
C 237.197893 63.81 236.004109 63.928729 234.890366 64.159393 
C 233.776623 64.390057 232.764582 64.728169 231.91216 65.15438 
C 231.059738 65.580591 230.383513 66.086612 229.922186 66.643483 
C 229.460859 67.200354 229.2234 67.797247 229.2234 68.4 
C 229.2234 69.002753 229.460859 69.599646 229.922186 70.156517 
C 230.383513 70.713388 231.059738 71.219409 231.91216 71.64562 
C 232.764582 72.071831 233.776623 72.409943 234.890366 72.640607 
C 236.004109 72.871271 237.197893 72.99 238.4034 72.99 
" clip-path="url(#pc7e3674f46)" style="fill: none; stroke: #000000; stroke-width: 2; stroke-linejoin: miter"/>
   </g>
   <g id="patch_6">
    <path d="M 229.2234 154.08 
C 229.2234 155.296877 230.191236 156.465158 231.91216 157.32562 
C 233.633083 158.186082 235.969646 158.67 238.4034 158.67 
C 240.837154 158.67 243.173717 158.186082 244.89464 157.32562 
C 246.615564 156.465158 247.5834 155.296877 247.5834 154.08 
" clip-path="url(#pc7e3674f46)" style="fill: none; stroke: #000000; stroke-width: 2; stroke-linejoin: miter"/>
   </g>
   <g id="patch_7">
    <path d="M 261.3534 50.04 
C 261.3534 48.834493 261.234671 47.640709 261.004007 46.526966 
C 260.773343 45.413223 260.435231 44.401182 260.00902 43.54876 
C 259.582809 42.696338 259.076788 42.020113 258.519917 41.558786 
C 257.963046 41.097459 257.366153 40.86 256.7634 40.86 
C 256.160647 40.86 255.563754 41.097459 255.006883 41.558786 
C 254.450012 42.020113 253.943991 42.696338 253.51778 43.54876 
C 253.091569 44.401182 252.753457 45.413223 252.522793 46.526966 
C 252.292129 47.640709 252.1734 48.834493 252.1734 50.04 
C 252.1734 51.245507 252.292129 52.439291 252.522793 53.553034 
C 252.753457 54.666777 253.091569 55.678818 253.51778 56.53124 
C 253.943991 57.383662 254.450012 58.059887 255.006883 58.521214 
C 255.563754 58.982541 256.160647 59.22 256.7634 59.22 
C 257.366153 59.22 257.963046 58.982541 258.519917 58.521214 
C 259.076788 58.059887 259.582809 57.383662 260.00902 56.53124 
C 260.435231 55.678818 260.773343 54.666777 261.004007 53.553034 
C 261.234671 52.439291 261.3534 51.245507 261.3534 50.04 
" clip-path="url(#pc7e3674f46)" style="fill: none; stroke: #000000; stroke-width: 2; stroke-linejoin: miter"/>
   </g>
   <g id="patch_8">
    <path d="M 342.4434 59.22 
C 343.660277 59.22 344.828558 58.252164 345.68902 56.53124 
C 346.549482 54.810317 347.0334 52.473754 347.0334 50.04 
C 347.0334 47.606246 346.549482 45.269683 345.68902 43.54876 
C 344.828558 41.827836 343.660277 40.86 342.4434 40.86 
" clip-path="url(#pc7e3674f46)" style="fill: none; stroke: #000000; stroke-width: 2; stroke-linejoin: miter"/>
   </g>
   <g id="line2d_1">
    <path d="M 54.8034 99 
L 54.8034 111.24 
L 47.1534 111.24 
L 62.4534 111.24 
M 49.4484 114.912 
L 60.1584 114.912 
M 53.2734 118.584 
L 56.3334 118.584 
" clip-path="url(#pc7e3674f46)" style="fill: none; stroke: #000000; stroke-width: 2; stroke-linecap: round"/>
   </g>
   <g id="line2d_2">
    <path d="M 54.8034 99 
L 54.8034 83.7 
L 54.8034 83.7 
M 54.8034 53.1 
L 54.8034 53.1 
L 54.8034 37.8 
" clip-path="url(#pc7e3674f46)" style="fill: none; stroke: #000000; stroke-width: 2; stroke-linecap: round"/>
   </g>
   <g id="line2d_3">
    <path d="M 62.4534 68.4 
L 61.8159 66.816027 
L 61.1784 65.34 
L 60.5409 64.072506 
L 59.9034 63.099925 
L 59.2659 62.488534 
L 58.6284 62.28 
L 57.9909 62.488534 
L 57.3534 63.099925 
L 56.7159 64.072506 
L 56.0784 65.34 
L 55.4409 66.816027 
L 54.8034 68.4 
L 54.1659 69.983973 
L 53.5284 71.46 
L 52.8909 72.727494 
L 52.2534 73.700075 
L 51.6159 74.311466 
L 50.9784 74.52 
L 50.3409 74.311466 
L 49.7034 73.700075 
L 49.0659 72.727494 
L 48.4284 71.46 
L 47.7909 69.983973 
L 47.1534 68.4 
" clip-path="url(#pc7e3674f46)" style="fill: none; stroke: #000000; stroke-width: 2; stroke-linecap: round"/>
   </g>
   <g id="line2d_4">
    <path d="M 54.8034 37.8 
L 70.1034 37.8 
L 85.4034 37.8 
" clip-path="url(#pc7e3674f46)" style="fill: none; stroke: #000000; stroke-width: 2; stroke-linecap: round"/>
   </g>
   <g id="line2d_5">
    <path d="M 85.4034 37.8 
L 85.4034 43.92 
L 85.4034 50.04 
" clip-path="url(#pc7e3674f46)" style="fill: none; stroke: #000000; stroke-width: 2; stroke-linecap: round"/>
   </g>
   <g id="line2d_6">
    <path d="M 85.4034 50.04 
L 103.7634 50.04 
M 224.6334 50.04 
L 238.4034 50.04 
" clip-path="url(#pc7e3674f46)" style="fill: none; stroke: #000000; stroke-width: 2; stroke-linecap: round"/>
   </g>
   <g id="line2d_7">
    <path d="M 103.7634 40.86 
L 220.0434 40.86 
" clip-path="url(#pc7e3674f46)" style="fill: none; stroke: #000000; stroke-width: 2; stroke-linecap: round"/>
   </g>
   <g id="line2d_8">
    <path d="M 103.7634 59.22 
L 220.0434 59.22 
" clip-path="url(#pc7e3674f46)" style="fill: none; stroke: #000000; stroke-width: 2; stroke-linecap: round"/>
   </g>
   <g id="line2d_9">
    <path d="M 238.4034 50.04 
L 238.4034 68.4 
M 238.4034 158.67 
L 238.4034 172.44 
" clip-path="url(#pc7e3674f46)" style="fill: none; stroke: #000000; stroke-width: 2; stroke-linecap: round"/>
   </g>
   <g id="line2d_10">
    <path d="M 247.5834 68.4 
L 247.5834 154.08 
" clip-path="url(#pc7e3674f46)" style="fill: none; stroke: #000000; stroke-width: 2; stroke-linecap: round"/>
   </g>
   <g id="line2d_11">
    <path d="M 229.2234 68.4 
L 229.2234 154.08 
" clip-path="url(#pc7e3674f46)" style="fill: none; stroke: #000000; stroke-width: 2; stroke-linecap: round"/>
   </g>
   <g id="line2d_12">
    <path d="M 220.0434 59.22 
L 220.0434 63.81 
L 220.0434 68.4 
" clip-path="url(#pc7e3674f46)" style="fill: none; stroke: #000000; stroke-width: 2; stroke-linecap: round"/>
   </g>
   <g id="line2d_13">
    <path d="M 220.0434 68.4 
L 224.6334 68.4 
L 229.2234 68.4 
" clip-path="url(#pc7e3674f46)" style="fill: none; stroke: #000000; stroke-width: 2; stroke-linecap: round"/>
   </g>
   <g id="line2d_14">
    <path d="M 238.4034 50.04 
L 256.7634 50.04 
M 347.0334 50.04 
L 360.8034 50.04 
" clip-path="url(#pc7e3674f46)" style="fill: none; stroke: #000000; stroke-width: 2; stroke-linecap: round"/>
   </g>
   <g id="line2d_15">
    <path d="M 256.7634 40.86 
L 342.4434 40.86 
" clip-path="url(#pc7e3674f46)" style="fill: none; stroke: #000000; stroke-width: 2; stroke-linecap: round"/>
   </g>
   <g id="line2d_16">
    <path d="M 256.7634 59.22 
L 342.4434 59.22 
" clip-path="url(#pc7e3674f46)" style="fill: none; stroke: #000000; stroke-width: 2; stroke-linecap: round"/>
   </g>
   <g id="line2d_17">
    <path d="M 360.8034 50.04 
L 376.1034 50.04 
L 391.4034 50.04 
" clip-path="url(#pc7e3674f46)" style="fill: none; stroke: #000000; stroke-width: 2; stroke-linecap: round"/>
   </g>
   <g id="line2d_18">
    <path d="M 391.4034 50.04 
L 391.4034 80.64 
L 399.0534 83.19 
L 383.7534 88.29 
L 399.0534 93.39 
L 383.7534 98.49 
L 399.0534 103.59 
L 383.7534 108.69 
L 391.4034 111.24 
L 391.4034 141.84 
" clip-path="url(#pc7e3674f46)" style="fill: none; stroke: #000000; stroke-width: 2; stroke-linecap: round"/>
   </g>
   <g id="line2d_19">
    <path d="M 391.4034 50.04 
L 422.0034 50.04 
L 452.6034 50.04 
" clip-path="url(#pc7e3674f46)" style="fill: none; stroke: #000000; stroke-width: 2; stroke-linecap: round"/>
   </g>
   <g id="line2d_20">
    <path d="M 452.6034 50.04 
L 452.6034 93.186 
M 460.2534 93.186 
L 444.9534 93.186 
M 460.2534 98.694 
L 444.9534 98.694 
M 452.6034 98.694 
L 452.6034 141.84 
" clip-path="url(#pc7e3674f46)" style="fill: none; stroke: #000000; stroke-width: 2; stroke-linecap: round"/>
   </g>
   <g id="line2d_21">
    <path d="M 452.6034 141.84 
L 422.0034 141.84 
L 391.4034 141.84 
" clip-path="url(#pc7e3674f46)" style="fill: none; stroke: #000000; stroke-width: 2; stroke-linecap: round"/>
   </g>
   <g id="line2d_22">
    <path d="M 342.4434 59.22 
L 342.4434 100.53 
L 342.4434 141.84 
" clip-path="url(#pc7e3674f46)" style="fill: none; stroke: #000000; stroke-width: 2; stroke-linecap: round"/>
   </g>
   <g id="line2d_23">
    <path d="M 342.4434 141.84 
L 366.9234 141.84 
L 391.4034 141.84 
" clip-path="url(#pc7e3674f46)" style="fill: none; stroke: #000000; stroke-width: 2; stroke-linecap: round"/>
   </g>
   <g id="line2d_24">
    <path d="M 220.0434 40.86 
L 220.0434 25.56 
L 220.0434 10.26 
" clip-path="url(#pc7e3674f46)" style="fill: none; stroke: #000000; stroke-width: 2; stroke-linecap: round"/>
   </g>
   <g id="line2d_25">
    <path d="M 220.0434 10.26 
L 238.4034 10.26 
L 256.7634 10.26 
" clip-path="url(#pc7e3674f46)" style="fill: none; stroke: #000000; stroke-width: 2; stroke-linecap: round"/>
   </g>
   <g id="line2d_26">
    <path d="M 256.7634 10.26 
L 256.7634 25.56 
L 256.7634 40.86 
" clip-path="url(#pc7e3674f46)" style="fill: none; stroke: #000000; stroke-width: 2; stroke-linecap: round"/>
   </g>
   <g id="line2d_27">
    <path d="M 54.8034 99 
L 79.2834 99 
L 103.7634 99 
" clip-path="url(#pc7e3674f46)" style="fill: none; stroke: #000000; stroke-width: 2; stroke-linecap: round"/>
   </g>
   <g id="line2d_28">
    <path d="M 103.7634 99 
L 103.7634 79.11 
L 103.7634 59.22 
" clip-path="url(#pc7e3674f46)" style="fill: none; stroke: #000000; stroke-width: 2; stroke-linecap: round"/>
   </g>
   <g id="text_1">
    <g clip-path="url(#pc7e3674f46)">
     <!-- $V_{in}$ -->
     <g transform="translate(19.5684 71.849219)scale(0.125 -0.125)">
      <defs>
       <path id="DejaVuSans-Oblique-56" d="M 1319 0 
L 500 4666 
L 1119 4666 
L 1797 653 
L 4063 4666 
L 4750 4666 
L 2053 0 
L 1319 0 
z
" transform="scale(0.015625)"/>
       <path id="DejaVuSans-Oblique-69" d="M 1172 4863 
L 1747 4863 
L 1606 4134 
L 1031 4134 
L 1172 4863 
z
M 909 3500 
L 1484 3500 
L 800 0 
L 225 0 
L 909 3500 
z
" transform="scale(0.015625)"/>
       <path id="DejaVuSans-Oblique-6e" d="M 3566 2113 
L 3156 0 
L 2578 0 
L 2988 2091 
Q 3016 2238 3031 2350 
Q 3047 2463 3047 2528 
Q 3047 2791 2881 2937 
Q 2716 3084 2419 3084 
Q 1956 3084 1622 2776 
Q 1288 2469 1184 1941 
L 800 0 
L 225 0 
L 903 3500 
L 1478 3500 
L 1363 2950 
Q 1603 3253 1940 3418 
Q 2278 3584 2650 3584 
Q 3113 3584 3367 3334 
Q 3622 3084 3622 2631 
Q 3622 2519 3608 2391 
Q 3594 2263 3566 2113 
z
" transform="scale(0.015625)"/>
      </defs>
      <use xlink:href="#DejaVuSans-Oblique-56" transform="translate(0 0.09375)"/>
      <use xlink:href="#DejaVuSans-Oblique-69" transform="translate(68.408203 -16.3125)scale(0.7)"/>
      <use xlink:href="#DejaVuSans-Oblique-6e" transform="translate(87.856445 -16.3125)scale(0.7)"/>
     </g>
    </g>
   </g>
   <g id="text_2">
    <g clip-path="url(#pc7e3674f46)">
     <!-- $64\Omega$ -->
     <g transform="translate(149.1534 35.200391)scale(0.125 -0.125)">
      <defs>
       <path id="DejaVuSans-36" d="M 2113 2584 
Q 1688 2584 1439 2293 
Q 1191 2003 1191 1497 
Q 1191 994 1439 701 
Q 1688 409 2113 409 
Q 2538 409 2786 701 
Q 3034 994 3034 1497 
Q 3034 2003 2786 2293 
Q 2538 2584 2113 2584 
z
M 3366 4563 
L 3366 3988 
Q 3128 4100 2886 4159 
Q 2644 4219 2406 4219 
Q 1781 4219 1451 3797 
Q 1122 3375 1075 2522 
Q 1259 2794 1537 2939 
Q 1816 3084 2150 3084 
Q 2853 3084 3261 2657 
Q 3669 2231 3669 1497 
Q 3669 778 3244 343 
Q 2819 -91 2113 -91 
Q 1303 -91 875 529 
Q 447 1150 447 2328 
Q 447 3434 972 4092 
Q 1497 4750 2381 4750 
Q 2619 4750 2861 4703 
Q 3103 4656 3366 4563 
z
" transform="scale(0.015625)"/>
       <path id="DejaVuSans-34" d="M 2419 4116 
L 825 1625 
L 2419 1625 
L 2419 4116 
z
M 2253 4666 
L 3047 4666 
L 3047 1625 
L 3713 1625 
L 3713 1100 
L 3047 1100 
L 3047 0 
L 2419 0 
L 2419 1100 
L 313 1100 
L 313 1709 
L 2253 4666 
z
" transform="scale(0.015625)"/>
       <path id="DejaVuSans-3a9" d="M 4647 556 
L 4647 0 
L 2772 0 
L 2772 556 
Q 3325 859 3634 1378 
Q 3944 1897 3944 2528 
Q 3944 3278 3531 3731 
Q 3119 4184 2444 4184 
Q 1769 4184 1355 3729 
Q 941 3275 941 2528 
Q 941 1897 1250 1378 
Q 1563 859 2119 556 
L 2119 0 
L 244 0 
L 244 556 
L 1241 556 
Q 747 991 519 1456 
Q 294 1922 294 2497 
Q 294 3491 894 4106 
Q 1491 4722 2444 4722 
Q 3391 4722 3994 4106 
Q 4594 3494 4594 2528 
Q 4594 1922 4372 1459 
Q 4150 997 3647 556 
L 4647 556 
z
" transform="scale(0.015625)"/>
      </defs>
      <use xlink:href="#DejaVuSans-36" transform="translate(0 0.78125)"/>
      <use xlink:href="#DejaVuSans-34" transform="translate(63.623047 0.78125)"/>
      <use xlink:href="#DejaVuSans-3a9" transform="translate(127.246094 0.78125)"/>
     </g>
    </g>
   </g>
   <g id="text_3">
    <g clip-path="url(#pc7e3674f46)">
     <!-- $64\Omega$ -->
     <g transform="translate(200.6634 114.689219)scale(0.125 -0.125)">
      <use xlink:href="#DejaVuSans-36" transform="translate(0 0.78125)"/>
      <use xlink:href="#DejaVuSans-34" transform="translate(63.623047 0.78125)"/>
      <use xlink:href="#DejaVuSans-3a9" transform="translate(127.246094 0.78125)"/>
     </g>
    </g>
   </g>
   <g id="text_4">
    <g clip-path="url(#pc7e3674f46)">
     <!-- 41.0 mm -->
     <g transform="translate(250.6434 114.689219)scale(0.125 -0.125)">
      <defs>
       <path id="DejaVuSans-31" d="M 794 531 
L 1825 531 
L 1825 4091 
L 703 3866 
L 703 4441 
L 1819 4666 
L 2450 4666 
L 2450 531 
L 3481 531 
L 3481 0 
L 794 0 
L 794 531 
z
" transform="scale(0.015625)"/>
       <path id="DejaVuSans-2e" d="M 684 794 
L 1344 794 
L 1344 0 
L 684 0 
L 684 794 
z
" transform="scale(0.015625)"/>
       <path id="DejaVuSans-30" d="M 2034 4250 
Q 1547 4250 1301 3770 
Q 1056 3291 1056 2328 
Q 1056 1369 1301 889 
Q 1547 409 2034 409 
Q 2525 409 2770 889 
Q 3016 1369 3016 2328 
Q 3016 3291 2770 3770 
Q 2525 4250 2034 4250 
z
M 2034 4750 
Q 2819 4750 3233 4129 
Q 3647 3509 3647 2328 
Q 3647 1150 3233 529 
Q 2819 -91 2034 -91 
Q 1250 -91 836 529 
Q 422 1150 422 2328 
Q 422 3509 836 4129 
Q 1250 4750 2034 4750 
z
" transform="scale(0.015625)"/>
       <path id="DejaVuSans-20" transform="scale(0.015625)"/>
       <path id="DejaVuSans-6d" d="M 3328 2828 
Q 3544 3216 3844 3400 
Q 4144 3584 4550 3584 
Q 5097 3584 5394 3201 
Q 5691 2819 5691 2113 
L 5691 0 
L 5113 0 
L 5113 2094 
Q 5113 2597 4934 2840 
Q 4756 3084 4391 3084 
Q 3944 3084 3684 2787 
Q 3425 2491 3425 1978 
L 3425 0 
L 2847 0 
L 2847 2094 
Q 2847 2600 2669 2842 
Q 2491 3084 2119 3084 
Q 1678 3084 1418 2786 
Q 1159 2488 1159 1978 
L 1159 0 
L 581 0 
L 581 3500 
L 1159 3500 
L 1159 2956 
Q 1356 3278 1631 3431 
Q 1906 3584 2284 3584 
Q 2666 3584 2933 3390 
Q 3200 3197 3328 2828 
z
" transform="scale(0.015625)"/>
      </defs>
      <use xlink:href="#DejaVuSans-34"/>
      <use xlink:href="#DejaVuSans-31" x="63.623047"/>
      <use xlink:href="#DejaVuSans-2e" x="127.246094"/>
      <use xlink:href="#DejaVuSans-30" x="159.033203"/>
      <use xlink:href="#DejaVuSans-20" x="222.65625"/>
      <use xlink:href="#DejaVuSans-6d" x="254.443359"/>
      <use xlink:href="#DejaVuSans-6d" x="351.855469"/>
     </g>
    </g>
   </g>
   <g id="text_5">
    <g clip-path="url(#pc7e3674f46)">
     <!-- $64\Omega$ -->
     <g transform="translate(286.8534 35.200391)scale(0.125 -0.125)">
      <use xlink:href="#DejaVuSans-36" transform="translate(0 0.78125)"/>
      <use xlink:href="#DejaVuSans-34" transform="translate(63.623047 0.78125)"/>
      <use xlink:href="#DejaVuSans-3a9" transform="translate(127.246094 0.78125)"/>
     </g>
    </g>
   </g>
   <g id="text_6">
    <g clip-path="url(#pc7e3674f46)">
     <!-- 41.0 mm -->
     <g transform="translate(271.525275 71.778047)scale(0.125 -0.125)">
      <use xlink:href="#DejaVuSans-34"/>
      <use xlink:href="#DejaVuSans-31" x="63.623047"/>
      <use xlink:href="#DejaVuSans-2e" x="127.246094"/>
      <use xlink:href="#DejaVuSans-30" x="159.033203"/>
      <use xlink:href="#DejaVuSans-20" x="222.65625"/>
      <use xlink:href="#DejaVuSans-6d" x="254.443359"/>
      <use xlink:href="#DejaVuSans-6d" x="351.855469"/>
     </g>
    </g>
   </g>
   <g id="text_7">
    <g clip-path="url(#pc7e3674f46)">
     <!-- 32Ω -->
     <g transform="translate(355.234416 99.389219)scale(0.125 -0.125)">
      <defs>
       <path id="DejaVuSans-33" d="M 2597 2516 
Q 3050 2419 3304 2112 
Q 3559 1806 3559 1356 
Q 3559 666 3084 287 
Q 2609 -91 1734 -91 
Q 1441 -91 1130 -33 
Q 819 25 488 141 
L 488 750 
Q 750 597 1062 519 
Q 1375 441 1716 441 
Q 2309 441 2620 675 
Q 2931 909 2931 1356 
Q 2931 1769 2642 2001 
Q 2353 2234 1838 2234 
L 1294 2234 
L 1294 2753 
L 1863 2753 
Q 2328 2753 2575 2939 
Q 2822 3125 2822 3475 
Q 2822 3834 2567 4026 
Q 2313 4219 1838 4219 
Q 1578 4219 1281 4162 
Q 984 4106 628 3988 
L 628 4550 
Q 988 4650 1302 4700 
Q 1616 4750 1894 4750 
Q 2613 4750 3031 4423 
Q 3450 4097 3450 3541 
Q 3450 3153 3228 2886 
Q 3006 2619 2597 2516 
z
" transform="scale(0.015625)"/>
       <path id="DejaVuSans-32" d="M 1228 531 
L 3431 531 
L 3431 0 
L 469 0 
L 469 531 
Q 828 903 1448 1529 
Q 2069 2156 2228 2338 
Q 2531 2678 2651 2914 
Q 2772 3150 2772 3378 
Q 2772 3750 2511 3984 
Q 2250 4219 1831 4219 
Q 1534 4219 1204 4116 
Q 875 4013 500 3803 
L 500 4441 
Q 881 4594 1212 4672 
Q 1544 4750 1819 4750 
Q 2544 4750 2975 4387 
Q 3406 4025 3406 3419 
Q 3406 3131 3298 2873 
Q 3191 2616 2906 2266 
Q 2828 2175 2409 1742 
Q 1991 1309 1228 531 
z
" transform="scale(0.015625)"/>
      </defs>
      <use xlink:href="#DejaVuSans-33"/>
      <use xlink:href="#DejaVuSans-32" x="63.623047"/>
      <use xlink:href="#DejaVuSans-3a9" x="127.246094"/>
     </g>
    </g>
   </g>
   <g id="text_8">
    <g clip-path="url(#pc7e3674f46)">
     <!-- 5pF -->
     <g transform="translate(418.815275 99.389219)scale(0.125 -0.125)">
      <defs>
       <path id="DejaVuSans-35" d="M 691 4666 
L 3169 4666 
L 3169 4134 
L 1269 4134 
L 1269 2991 
Q 1406 3038 1543 3061 
Q 1681 3084 1819 3084 
Q 2600 3084 3056 2656 
Q 3513 2228 3513 1497 
Q 3513 744 3044 326 
Q 2575 -91 1722 -91 
Q 1428 -91 1123 -41 
Q 819 9 494 109 
L 494 744 
Q 775 591 1075 516 
Q 1375 441 1709 441 
Q 2250 441 2565 725 
Q 2881 1009 2881 1497 
Q 2881 1984 2565 2268 
Q 2250 2553 1709 2553 
Q 1456 2553 1204 2497 
Q 953 2441 691 2322 
L 691 4666 
z
" transform="scale(0.015625)"/>
       <path id="DejaVuSans-70" d="M 1159 525 
L 1159 -1331 
L 581 -1331 
L 581 3500 
L 1159 3500 
L 1159 2969 
Q 1341 3281 1617 3432 
Q 1894 3584 2278 3584 
Q 2916 3584 3314 3078 
Q 3713 2572 3713 1747 
Q 3713 922 3314 415 
Q 2916 -91 2278 -91 
Q 1894 -91 1617 61 
Q 1341 213 1159 525 
z
M 3116 1747 
Q 3116 2381 2855 2742 
Q 2594 3103 2138 3103 
Q 1681 3103 1420 2742 
Q 1159 2381 1159 1747 
Q 1159 1113 1420 752 
Q 1681 391 2138 391 
Q 2594 391 2855 752 
Q 3116 1113 3116 1747 
z
" transform="scale(0.015625)"/>
       <path id="DejaVuSans-46" d="M 628 4666 
L 3309 4666 
L 3309 4134 
L 1259 4134 
L 1259 2759 
L 3109 2759 
L 3109 2228 
L 1259 2228 
L 1259 0 
L 628 0 
L 628 4666 
z
" transform="scale(0.015625)"/>
      </defs>
      <use xlink:href="#DejaVuSans-35"/>
      <use xlink:href="#DejaVuSans-70" x="63.623047"/>
      <use xlink:href="#DejaVuSans-46" x="127.099609"/>
     </g>
    </g>
   </g>
   <g id="patch_9">
    <path d="M 54.8034 101.295 
C 55.412041 101.295 55.995836 101.053184 56.42621 100.62281 
C 56.856584 100.192436 57.0984 99.608641 57.0984 99 
C 57.0984 98.391359 56.856584 97.807564 56.42621 97.37719 
C 55.995836 96.946816 55.412041 96.705 54.8034 96.705 
C 54.194759 96.705 53.610964 96.946816 53.18059 97.37719 
C 52.750216 97.807564 52.5084 98.391359 52.5084 99 
C 52.5084 99.608641 52.750216 100.192436 53.18059 100.62281 
C 53.610964 101.053184 54.194759 101.295 54.8034 101.295 
z
" clip-path="url(#pc7e3674f46)" style="stroke: #000000; stroke-width: 2; stroke-linejoin: miter"/>
   </g>
   <g id="patch_10">
    <path d="M 238.4034 52.335 
C 239.012041 52.335 239.595836 52.093184 240.02621 51.66281 
C 240.456584 51.232436 240.6984 50.648641 240.6984 50.04 
C 240.6984 49.431359 240.456584 48.847564 240.02621 48.41719 
C 239.595836 47.986816 239.012041 47.745 238.4034 47.745 
C 237.794759 47.745 237.210964 47.986816 236.78059 48.41719 
C 236.350216 48.847564 236.1084 49.431359 236.1084 50.04 
C 236.1084 50.648641 236.350216 51.232436 236.78059 51.66281 
C 237.210964 52.093184 237.794759 52.335 238.4034 52.335 
z
" clip-path="url(#pc7e3674f46)" style="fill: #008000; stroke: #008000; stroke-width: 2; stroke-linejoin: miter"/>
   </g>
   <g id="patch_11">
    <path d="M 360.8034 52.335 
C 361.412041 52.335 361.995836 52.093184 362.42621 51.66281 
C 362.856584 51.232436 363.0984 50.648641 363.0984 50.04 
C 363.0984 49.431359 362.856584 48.847564 362.42621 48.41719 
C 361.995836 47.986816 361.412041 47.745 360.8034 47.745 
C 360.194759 47.745 359.610964 47.986816 359.18059 48.41719 
C 358.750216 48.847564 358.5084 49.431359 358.5084 50.04 
C 358.5084 50.648641 358.750216 51.232436 359.18059 51.66281 
C 359.610964 52.093184 360.194759 52.335 360.8034 52.335 
z
" clip-path="url(#pc7e3674f46)" style="fill: #ff0000; stroke: #ff0000; stroke-width: 2; stroke-linejoin: miter"/>
   </g>
  </g>
 </g>
 <defs>
  <clipPath id="pc7e3674f46">
   <rect x="7.2" y="7.2" width="456.1134" height="168.3"/>
  </clipPath>
 </defs>
</svg>
