<?xml version="1.0" encoding="utf-8" standalone="no"?>
<!DOCTYPE svg PUBLIC "-//W3C//DTD SVG 1.1//EN"
  "http://www.w3.org/Graphics/SVG/1.1/DTD/svg11.dtd">
<svg xmlns:xlink="http://www.w3.org/1999/xlink" width="178.11pt" height="75.175pt" viewBox="0 0 178.11 75.175" xmlns="http://www.w3.org/2000/svg" version="1.1">
 <metadata>
  <rdf:RDF xmlns:dc="http://purl.org/dc/elements/1.1/" xmlns:cc="http://creativecommons.org/ns#" xmlns:rdf="http://www.w3.org/1999/02/22-rdf-syntax-ns#">
   <cc:Work>
    <dc:type rdf:resource="http://purl.org/dc/dcmitype/StillImage"/>
    <dc:date>2021-12-05T15:23:28.056599</dc:date>
    <dc:format>image/svg+xml</dc:format>
    <dc:creator>
     <cc:Agent>
      <dc:title>Matplotlib v3.5.0, https://matplotlib.org/</dc:title>
     </cc:Agent>
    </dc:creator>
   </cc:Work>
  </rdf:RDF>
 </metadata>
 <defs>
  <style type="text/css">*{stroke-linejoin: round; stroke-linecap: butt}</style>
 </defs>
 <g id="figure_1">
  <g id="patch_1">
   <path d="M 0 75.175 
L 178.11 75.175 
L 178.11 0 
L 0 0 
L 0 75.175 
z
" style="fill: none"/>
  </g>
  <g id="axes_1">
   <g id="patch_2">
    <path d="M 35.505 38.14 
C 35.505 36.934493 35.386271 35.740709 35.155607 34.626966 
C 34.924943 33.513223 34.586831 32.501182 34.16062 31.64876 
C 33.734409 30.796338 33.228388 30.120113 32.671517 29.658786 
C 32.114646 29.197459 31.517753 28.96 30.915 28.96 
C 30.312247 28.96 29.715354 29.197459 29.158483 29.658786 
C 28.601612 30.120113 28.095591 30.796338 27.66938 31.64876 
C 27.243169 32.501182 26.905057 33.513223 26.674393 34.626966 
C 26.443729 35.740709 26.325 36.934493 26.325 38.14 
C 26.325 39.345507 26.443729 40.539291 26.674393 41.653034 
C 26.905057 42.766777 27.243169 43.778818 27.66938 44.63124 
C 28.095591 45.483662 28.601612 46.159887 29.158483 46.621214 
C 29.715354 47.082541 30.312247 47.32 30.915 47.32 
C 31.517753 47.32 32.114646 47.082541 32.671517 46.621214 
C 33.228388 46.159887 33.734409 45.483662 34.16062 44.63124 
C 34.586831 43.778818 34.924943 42.766777 35.155607 41.653034 
C 35.386271 40.539291 35.505 39.345507 35.505 38.14 
" clip-path="url(#p19f2719cb5)" style="fill: none; stroke: #000000; stroke-width: 2; stroke-linejoin: miter"/>
   </g>
   <g id="patch_3">
    <path d="M 147.195 47.32 
C 148.411877 47.32 149.580158 46.352164 150.44062 44.63124 
C 151.301082 42.910317 151.785 40.573754 151.785 38.14 
C 151.785 35.706246 151.301082 33.369683 150.44062 31.64876 
C 149.580158 29.927836 148.411877 28.96 147.195 28.96 
" clip-path="url(#p19f2719cb5)" style="fill: none; stroke: #000000; stroke-width: 2; stroke-linejoin: miter"/>
   </g>
   <g id="line2d_1">
    <path d="M 12.555 38.14 
L 30.915 38.14 
M 151.785 38.14 
L 165.555 38.14 
" clip-path="url(#p19f2719cb5)" style="fill: none; stroke: #000000; stroke-width: 2; stroke-linecap: round"/>
   </g>
   <g id="line2d_2">
    <path d="M 30.915 28.96 
L 147.195 28.96 
" clip-path="url(#p19f2719cb5)" style="fill: none; stroke: #000000; stroke-width: 2; stroke-linecap: round"/>
   </g>
   <g id="line2d_3">
    <path d="M 30.915 47.32 
L 147.195 47.32 
" clip-path="url(#p19f2719cb5)" style="fill: none; stroke: #000000; stroke-width: 2; stroke-linecap: round"/>
   </g>
   <g id="line2d_4">
    <path d="M 147.195 47.32 
L 147.195 54.97 
L 147.195 62.62 
" clip-path="url(#p19f2719cb5)" style="fill: none; stroke: #000000; stroke-width: 2; stroke-linecap: round"/>
   </g>
   <g id="line2d_5">
    <path d="M 147.195 62.62 
L 154.845 62.62 
L 162.495 62.62 
" clip-path="url(#p19f2719cb5)" style="fill: none; stroke: #000000; stroke-width: 2; stroke-linecap: round"/>
   </g>
   <g id="line2d_6">
    <path d="M 30.915 47.32 
L 30.915 54.97 
L 30.915 62.62 
" clip-path="url(#p19f2719cb5)" style="fill: none; stroke: #000000; stroke-width: 2; stroke-linecap: round"/>
   </g>
   <g id="line2d_7">
    <path d="M 30.915 62.62 
L 23.265 62.62 
L 15.615 62.62 
" clip-path="url(#p19f2719cb5)" style="fill: none; stroke: #000000; stroke-width: 2; stroke-linecap: round"/>
   </g>
   <g id="text_1">
    <!-- $50\Omega$ -->
    <g transform="translate(74.775 22.988437)scale(0.14 -0.14)">
     <defs>
      <path id="DejaVuSans-35" d="M 691 4666 
L 3169 4666 
L 3169 4134 
L 1269 4134 
L 1269 2991 
Q 1406 3038 1543 3061 
Q 1681 3084 1819 3084 
Q 2600 3084 3056 2656 
Q 3513 2228 3513 1497 
Q 3513 744 3044 326 
Q 2575 -91 1722 -91 
Q 1428 -91 1123 -41 
Q 819 9 494 109 
L 494 744 
Q 775 591 1075 516 
Q 1375 441 1709 441 
Q 2250 441 2565 725 
Q 2881 1009 2881 1497 
Q 2881 1984 2565 2268 
Q 2250 2553 1709 2553 
Q 1456 2553 1204 2497 
Q 953 2441 691 2322 
L 691 4666 
z
" transform="scale(0.015625)"/>
      <path id="DejaVuSans-30" d="M 2034 4250 
Q 1547 4250 1301 3770 
Q 1056 3291 1056 2328 
Q 1056 1369 1301 889 
Q 1547 409 2034 409 
Q 2525 409 2770 889 
Q 3016 1369 3016 2328 
Q 3016 3291 2770 3770 
Q 2525 4250 2034 4250 
z
M 2034 4750 
Q 2819 4750 3233 4129 
Q 3647 3509 3647 2328 
Q 3647 1150 3233 529 
Q 2819 -91 2034 -91 
Q 1250 -91 836 529 
Q 422 1150 422 2328 
Q 422 3509 836 4129 
Q 1250 4750 2034 4750 
z
" transform="scale(0.015625)"/>
      <path id="DejaVuSans-3a9" d="M 4647 556 
L 4647 0 
L 2772 0 
L 2772 556 
Q 3325 859 3634 1378 
Q 3944 1897 3944 2528 
Q 3944 3278 3531 3731 
Q 3119 4184 2444 4184 
Q 1769 4184 1355 3729 
Q 941 3275 941 2528 
Q 941 1897 1250 1378 
Q 1563 859 2119 556 
L 2119 0 
L 244 0 
L 244 556 
L 1241 556 
Q 747 991 519 1456 
Q 294 1922 294 2497 
Q 294 3491 894 4106 
Q 1491 4722 2444 4722 
Q 3391 4722 3994 4106 
Q 4594 3494 4594 2528 
Q 4594 1922 4372 1459 
Q 4150 997 3647 556 
L 4647 556 
z
" transform="scale(0.015625)"/>
     </defs>
     <use xlink:href="#DejaVuSans-35" transform="translate(0 0.78125)"/>
     <use xlink:href="#DejaVuSans-30" transform="translate(63.623047 0.78125)"/>
     <use xlink:href="#DejaVuSans-3a9" transform="translate(127.246094 0.78125)"/>
    </g>
   </g>
   <g id="text_2">
    <!-- coax -->
    <g transform="translate(72.490156 61.017812)scale(0.14 -0.14)">
     <defs>
      <path id="DejaVuSans-63" d="M 3122 3366 
L 3122 2828 
Q 2878 2963 2633 3030 
Q 2388 3097 2138 3097 
Q 1578 3097 1268 2742 
Q 959 2388 959 1747 
Q 959 1106 1268 751 
Q 1578 397 2138 397 
Q 2388 397 2633 464 
Q 2878 531 3122 666 
L 3122 134 
Q 2881 22 2623 -34 
Q 2366 -91 2075 -91 
Q 1284 -91 818 406 
Q 353 903 353 1747 
Q 353 2603 823 3093 
Q 1294 3584 2113 3584 
Q 2378 3584 2631 3529 
Q 2884 3475 3122 3366 
z
" transform="scale(0.015625)"/>
      <path id="DejaVuSans-6f" d="M 1959 3097 
Q 1497 3097 1228 2736 
Q 959 2375 959 1747 
Q 959 1119 1226 758 
Q 1494 397 1959 397 
Q 2419 397 2687 759 
Q 2956 1122 2956 1747 
Q 2956 2369 2687 2733 
Q 2419 3097 1959 3097 
z
M 1959 3584 
Q 2709 3584 3137 3096 
Q 3566 2609 3566 1747 
Q 3566 888 3137 398 
Q 2709 -91 1959 -91 
Q 1206 -91 779 398 
Q 353 888 353 1747 
Q 353 2609 779 3096 
Q 1206 3584 1959 3584 
z
" transform="scale(0.015625)"/>
      <path id="DejaVuSans-61" d="M 2194 1759 
Q 1497 1759 1228 1600 
Q 959 1441 959 1056 
Q 959 750 1161 570 
Q 1363 391 1709 391 
Q 2188 391 2477 730 
Q 2766 1069 2766 1631 
L 2766 1759 
L 2194 1759 
z
M 3341 1997 
L 3341 0 
L 2766 0 
L 2766 531 
Q 2569 213 2275 61 
Q 1981 -91 1556 -91 
Q 1019 -91 701 211 
Q 384 513 384 1019 
Q 384 1609 779 1909 
Q 1175 2209 1959 2209 
L 2766 2209 
L 2766 2266 
Q 2766 2663 2505 2880 
Q 2244 3097 1772 3097 
Q 1472 3097 1187 3025 
Q 903 2953 641 2809 
L 641 3341 
Q 956 3463 1253 3523 
Q 1550 3584 1831 3584 
Q 2591 3584 2966 3190 
Q 3341 2797 3341 1997 
z
" transform="scale(0.015625)"/>
      <path id="DejaVuSans-78" d="M 3513 3500 
L 2247 1797 
L 3578 0 
L 2900 0 
L 1881 1375 
L 863 0 
L 184 0 
L 1544 1831 
L 300 3500 
L 978 3500 
L 1906 2253 
L 2834 3500 
L 3513 3500 
z
" transform="scale(0.015625)"/>
     </defs>
     <use xlink:href="#DejaVuSans-63"/>
     <use xlink:href="#DejaVuSans-6f" x="54.980469"/>
     <use xlink:href="#DejaVuSans-61" x="116.162109"/>
     <use xlink:href="#DejaVuSans-78" x="177.441406"/>
    </g>
   </g>
   <g id="patch_4">
    <path d="M 12.555 40.435 
C 13.163641 40.435 13.747436 40.193184 14.17781 39.76281 
C 14.608184 39.332436 14.85 38.748641 14.85 38.14 
C 14.85 37.531359 14.608184 36.947564 14.17781 36.51719 
C 13.747436 36.086816 13.163641 35.845 12.555 35.845 
C 11.946359 35.845 11.362564 36.086816 10.93219 36.51719 
C 10.501816 36.947564 10.26 37.531359 10.26 38.14 
C 10.26 38.748641 10.501816 39.332436 10.93219 39.76281 
C 11.362564 40.193184 11.946359 40.435 12.555 40.435 
z
" clip-path="url(#p19f2719cb5)" style="fill: #ff0000; stroke: #ff0000; stroke-width: 2; stroke-linejoin: miter"/>
   </g>
   <g id="patch_5">
    <path d="M 165.555 40.435 
C 166.163641 40.435 166.747436 40.193184 167.17781 39.76281 
C 167.608184 39.332436 167.85 38.748641 167.85 38.14 
C 167.85 37.531359 167.608184 36.947564 167.17781 36.51719 
C 166.747436 36.086816 166.163641 35.845 165.555 35.845 
C 164.946359 35.845 164.362564 36.086816 163.93219 36.51719 
C 163.501816 36.947564 163.26 37.531359 163.26 38.14 
C 163.26 38.748641 163.501816 39.332436 163.93219 39.76281 
C 164.362564 40.193184 164.946359 40.435 165.555 40.435 
z
" clip-path="url(#p19f2719cb5)" style="fill: #008000; stroke: #008000; stroke-width: 2; stroke-linejoin: miter"/>
   </g>
   <g id="patch_6">
    <path d="M 162.495 64.915 
C 163.103641 64.915 163.687436 64.673184 164.11781 64.24281 
C 164.548184 63.812436 164.79 63.228641 164.79 62.62 
C 164.79 62.011359 164.548184 61.427564 164.11781 60.99719 
C 163.687436 60.566816 163.103641 60.325 162.495 60.325 
C 161.886359 60.325 161.302564 60.566816 160.87219 60.99719 
C 160.441816 61.427564 160.2 62.011359 160.2 62.62 
C 160.2 63.228641 160.441816 63.812436 160.87219 64.24281 
C 161.302564 64.673184 161.886359 64.915 162.495 64.915 
z
" clip-path="url(#p19f2719cb5)" style="fill: #008000; stroke: #008000; stroke-width: 2; stroke-linejoin: miter"/>
   </g>
   <g id="patch_7">
    <path d="M 15.615 64.915 
C 16.223641 64.915 16.807436 64.673184 17.23781 64.24281 
C 17.668184 63.812436 17.91 63.228641 17.91 62.62 
C 17.91 62.011359 17.668184 61.427564 17.23781 60.99719 
C 16.807436 60.566816 16.223641 60.325 15.615 60.325 
C 15.006359 60.325 14.422564 60.566816 13.99219 60.99719 
C 13.561816 61.427564 13.32 62.011359 13.32 62.62 
C 13.32 63.228641 13.561816 63.812436 13.99219 64.24281 
C 14.422564 64.673184 15.006359 64.915 15.615 64.915 
z
" clip-path="url(#p19f2719cb5)" style="fill: #ff0000; stroke: #ff0000; stroke-width: 2; stroke-linejoin: miter"/>
   </g>
  </g>
 </g>
 <defs>
  <clipPath id="p19f2719cb5">
   <rect x="7.2" y="7.2" width="163.71" height="60.775"/>
  </clipPath>
 </defs>
</svg>
