<svg width="590" height="318" xmlns="http://www.w3.org/2000/svg" xmlns:xlink="http://www.w3.org/1999/xlink" overflow="hidden"><defs><clipPath id="clip0"><rect x="541" y="83" width="590" height="318"/></clipPath></defs><g clip-path="url(#clip0)" transform="translate(-541 -83)"><path d="M941.129 108.77 918.5 86.5001 918.5 132.135 941.129 108.77" stroke="#000000" stroke-width="4.58333" stroke-linecap="round" stroke-linejoin="round" stroke-miterlimit="10" fill-rule="evenodd"/><path d="M0 0 0.000360892 59.0001" stroke="#000000" stroke-width="4.58333" stroke-linejoin="round" stroke-miterlimit="10" fill="none" fill-rule="evenodd" transform="matrix(1 0 0 -1 814.5 314.5)"/><path d="M0 0 0.000360892 47.9998" stroke="#000000" stroke-width="4.58333" stroke-linejoin="round" stroke-miterlimit="10" fill="none" fill-rule="evenodd" transform="matrix(1 0 0 -1 939.5 133.5)"/><path d="M814.5 110.5 814.5 137.5" stroke="#000000" stroke-width="4.58333" stroke-linejoin="round" stroke-miterlimit="10" fill="none" fill-rule="evenodd"/><path d="M997.5 209.5 1085.5 209.5" stroke="#000000" stroke-width="4.58333" stroke-linejoin="round" stroke-miterlimit="10" fill="none" fill-rule="evenodd"/><path d="M999.5 222.5 1087.5 222.5" stroke="#000000" stroke-width="4.58333" stroke-linejoin="round" stroke-miterlimit="10" fill="none" fill-rule="evenodd"/><path d="M736.5 350.5 701.5 293.5" stroke="#000000" stroke-width="4.58333" stroke-linejoin="round" stroke-miterlimit="10" fill="none" fill-rule="evenodd"/><path d="M815.5 109.5 918.5 109.501" stroke="#000000" stroke-width="4.58333" stroke-linejoin="round" stroke-miterlimit="10" fill="none" fill-rule="evenodd"/><path d="M941.5 109.5 1109.5 109.501" stroke="#000000" stroke-width="4.58333" stroke-linejoin="round" stroke-miterlimit="10" fill="none" fill-rule="evenodd"/><path d="M0 0 77.9997 0.000360892" stroke="#000000" stroke-width="4.58333" stroke-linejoin="round" stroke-miterlimit="10" fill="none" fill-rule="evenodd" transform="matrix(-1 0 0 1 638.5 109.5)"/><path d="M1042.5 110.5 1042.5 206.5" stroke="#000000" stroke-width="4.58333" stroke-linejoin="round" stroke-miterlimit="10" fill="none" fill-rule="evenodd"/><path d="M1042.5 224.5 1042.5 311.5" stroke="#000000" stroke-width="4.58333" stroke-linejoin="round" stroke-miterlimit="10" fill="none" fill-rule="evenodd"/><path d="M815.5 313.5 1108.5 313.5" stroke="#000000" stroke-width="4.58333" stroke-linejoin="round" stroke-miterlimit="10" fill="none" fill-rule="evenodd"/><path d="M0 0 0.000360892 29.9999" stroke="#000000" stroke-width="4.58333" stroke-linejoin="round" stroke-miterlimit="10" fill="none" fill-rule="evenodd" transform="matrix(1 0 0 -1 814.5 314.5)"/><path d="M0 0 0.000360892 47.9998" stroke="#000000" stroke-width="4.58333" stroke-linejoin="round" stroke-miterlimit="10" fill="none" fill-rule="evenodd" transform="matrix(1 0 0 -1 939.5 133.5)"/><path d="M814.5 110.5 814.5 158.5" stroke="#000000" stroke-width="4.58333" stroke-linejoin="round" stroke-miterlimit="10" fill="none" fill-rule="evenodd"/><path d="M0 0 181 0.000360892" stroke="#000000" stroke-width="4.58333" stroke-linejoin="round" stroke-miterlimit="10" fill="none" fill-rule="evenodd" transform="matrix(-1 0 0 1 741.5 109.5)"/><path d="M0 0 0.000360892 52.9999" stroke="#000000" stroke-width="4.58333" stroke-linejoin="round" stroke-miterlimit="10" fill="none" fill-rule="evenodd" transform="matrix(1 0 0 -1 738.5 160.5)"/><path d="M738.5 257.5 738.5 294.5" stroke="#000000" stroke-width="4.58333" stroke-linejoin="round" stroke-miterlimit="10" fill="none" fill-rule="evenodd"/><path d="M739.132 357.5 739.132 391.142 559.5 390.784" stroke="#000000" stroke-width="4.58333" stroke-linecap="round" stroke-linejoin="round" stroke-miterlimit="10" fill="none" fill-rule="evenodd"/><path d="M739.5 159.5C747.232 159.5 753.5 164.873 753.5 171.5 753.5 178.128 747.232 183.5 739.5 183.5" stroke="#000000" stroke-width="4.58333" stroke-linecap="round" stroke-linejoin="round" stroke-miterlimit="10" fill="none" fill-rule="evenodd"/><path d="M739.5 183.5C747.232 183.5 753.5 188.873 753.5 195.5 753.5 202.128 747.232 207.5 739.5 207.5" stroke="#000000" stroke-width="4.58333" stroke-linecap="round" stroke-linejoin="round" stroke-miterlimit="10" fill="none" fill-rule="evenodd"/><path d="M739.5 207.5C747.232 207.5 753.5 212.873 753.5 219.5 753.5 226.128 747.232 231.5 739.5 231.5" stroke="#000000" stroke-width="4.58333" stroke-linecap="round" stroke-linejoin="round" stroke-miterlimit="10" fill="none" fill-rule="evenodd"/><path d="M739.5 231.5C747.232 231.5 753.5 236.872 753.5 243.5 753.5 250.127 747.232 255.5 739.5 255.5" stroke="#000000" stroke-width="4.58333" stroke-linecap="round" stroke-linejoin="round" stroke-miterlimit="10" fill="none" fill-rule="evenodd"/><path d="M768.5 161.5 768.5 255.5" stroke="#000000" stroke-width="4.58333" stroke-linejoin="round" stroke-miterlimit="10" fill="none" fill-rule="evenodd"/><path d="M813.5 183.5C805.769 183.5 799.5 178.127 799.5 171.5 799.5 164.872 805.769 159.5 813.5 159.5" stroke="#000000" stroke-width="4.58333" stroke-linecap="round" stroke-linejoin="round" stroke-miterlimit="10" fill="none" fill-rule="evenodd"/><path d="M813.5 207.5C805.769 207.5 799.5 202.127 799.5 195.5 799.5 188.872 805.769 183.5 813.5 183.5" stroke="#000000" stroke-width="4.58333" stroke-linecap="round" stroke-linejoin="round" stroke-miterlimit="10" fill="none" fill-rule="evenodd"/><path d="M813.5 231.5C805.768 231.5 799.5 226.127 799.5 219.5 799.5 212.872 805.768 207.5 813.5 207.5" stroke="#000000" stroke-width="4.58333" stroke-linecap="round" stroke-linejoin="round" stroke-miterlimit="10" fill="none" fill-rule="evenodd"/><path d="M813.5 255.5C805.769 255.5 799.5 250.127 799.5 243.5 799.5 236.872 805.769 231.5 813.5 231.5" stroke="#000000" stroke-width="4.58333" stroke-linecap="round" stroke-linejoin="round" stroke-miterlimit="10" fill="none" fill-rule="evenodd"/><path d="M784.5 161.5 784.5 255.5" stroke="#000000" stroke-width="4.58333" stroke-linejoin="round" stroke-miterlimit="10" fill="none" fill-rule="evenodd"/><path d="M731.5 300.5C731.5 296.634 735.082 293.5 739.5 293.5 743.918 293.5 747.5 296.634 747.5 300.5 747.5 304.366 743.918 307.5 739.5 307.5 735.082 307.5 731.5 304.366 731.5 300.5Z" stroke="#000000" stroke-width="4.58333" stroke-linejoin="round" stroke-miterlimit="10" fill-rule="evenodd"/><path d="M544.5 109C544.5 104.858 548.082 101.5 552.5 101.5 556.918 101.5 560.5 104.858 560.5 109 560.5 113.142 556.918 116.5 552.5 116.5 548.082 116.5 544.5 113.142 544.5 109Z" stroke="#000000" stroke-width="4.58333" stroke-linejoin="round" stroke-miterlimit="10" fill="none" fill-rule="evenodd"/><path d="M730.5 352.5C730.5 348.634 734.082 345.5 738.5 345.5 742.918 345.5 746.5 348.634 746.5 352.5 746.5 356.366 742.918 359.5 738.5 359.5 734.082 359.5 730.5 356.366 730.5 352.5Z" stroke="#000000" stroke-width="4.58333" stroke-linejoin="round" stroke-miterlimit="10" fill-rule="evenodd"/><path d="M543.5 391C543.5 386.858 547.082 383.5 551.5 383.5 555.918 383.5 559.5 386.858 559.5 391 559.5 395.142 555.918 398.5 551.5 398.5 547.082 398.5 543.5 395.142 543.5 391Z" stroke="#000000" stroke-width="4.58333" stroke-linejoin="round" stroke-miterlimit="10" fill="none" fill-rule="evenodd"/><path d="M1034.5 312.5C1034.5 308.634 1038.08 305.5 1042.5 305.5 1046.92 305.5 1050.5 308.634 1050.5 312.5 1050.5 316.366 1046.92 319.5 1042.5 319.5 1038.08 319.5 1034.5 316.366 1034.5 312.5Z" stroke="#000000" stroke-width="4.58333" stroke-linejoin="round" stroke-miterlimit="10" fill-rule="evenodd"/><path d="M1112.5 312.5C1112.5 308.634 1116.08 305.5 1120.5 305.5 1124.92 305.5 1128.5 308.634 1128.5 312.5 1128.5 316.366 1124.92 319.5 1120.5 319.5 1116.08 319.5 1112.5 316.366 1112.5 312.5Z" stroke="#000000" stroke-width="4.58333" stroke-linejoin="round" stroke-miterlimit="10" fill="none" fill-rule="evenodd"/><path d="M1033.5 109C1033.5 104.858 1037.08 101.5 1041.5 101.5 1045.92 101.5 1049.5 104.858 1049.5 109 1049.5 113.142 1045.92 116.5 1041.5 116.5 1037.08 116.5 1033.5 113.142 1033.5 109Z" stroke="#000000" stroke-width="4.58333" stroke-linejoin="round" stroke-miterlimit="10" fill-rule="evenodd"/><path d="M1111.5 109C1111.5 104.858 1115.08 101.5 1119.5 101.5 1123.92 101.5 1127.5 104.858 1127.5 109 1127.5 113.142 1123.92 116.5 1119.5 116.5 1115.08 116.5 1111.5 113.142 1111.5 109Z" stroke="#000000" stroke-width="4.58333" stroke-linejoin="round" stroke-miterlimit="10" fill="none" fill-rule="evenodd"/><path d="M711.5 262.5C711.5 258.634 715.082 255.5 719.5 255.5 723.918 255.5 727.5 258.634 727.5 262.5 727.5 266.366 723.918 269.5 719.5 269.5 715.082 269.5 711.5 266.366 711.5 262.5Z" stroke="#000000" stroke-width="4.58333" stroke-linejoin="round" stroke-miterlimit="10" fill-rule="evenodd"/><path d="M823.5 155C823.5 150.858 826.858 147.5 831 147.5 835.142 147.5 838.5 150.858 838.5 155 838.5 159.142 835.142 162.5 831 162.5 826.858 162.5 823.5 159.142 823.5 155Z" stroke="#000000" stroke-width="4.58333" stroke-linejoin="round" stroke-miterlimit="10" fill-rule="evenodd"/></g></svg>